<svg xmlns="http://www.w3.org/2000/svg" xmlns:xlink="http://www.w3.org/1999/xlink" style="shape-rendering:geometricPrecision; text-rendering:geometricPrecision; image-rendering:optimizeQuality; fill-rule:evenodd; clip-rule:evenodd" version="1.1" viewBox="0 0 29000 29000" xml:space="preserve"><defs><style type="text/css">.HairBack-Fox0fil0 {fill:none}
.Tail-Fox7fil14 {fill:url(#Tail-Fox7id168)}
.Tail-Fox7fil15 {fill:url(#Tail-Fox7id71)}
.Tail-Fox7fil8 {fill:black;fill-opacity:0.200000}
.Tail-Fox7fil0 {fill:none}
.Tail-Fox7str0 {stroke:black;stroke-width:150;stroke-linecap:round;stroke-linejoin:round}
.RightFoot-Fox0fil20 {fill:url(#RightFoot-Fox0id163)}
.RightFoot-Fox0fil8 {fill:black;fill-opacity:0.200000}
.RightFoot-Fox0fil0 {fill:none}
.RightFoot-Fox0fil18 {fill:black;fill-rule:nonzero}
.RightLeg-Fox5fil28 {fill:url(#RightLeg-Fox5id47)}
.RightLeg-Fox5fil18 {fill:black;fill-rule:nonzero}
.RightLeg-Fox5fil8 {fill:black;fill-opacity:0.200000}
.LeftFoot-Fox0fil29 {fill:url(#LeftFoot-Fox0id166)}
.LeftFoot-Fox0fil8 {fill:black;fill-opacity:0.200000}
.LeftFoot-Fox0fil0 {fill:none}
.LeftFoot-Fox0fil18 {fill:black;fill-rule:nonzero}
.LeftLeg-Fox5fil33 {fill:url(#LeftLeg-Fox5id43)}
.LeftLeg-Fox5fil18 {fill:black;fill-rule:nonzero}
.LeftLeg-Fox5fil8 {fill:black;fill-opacity:0.200000}
.RightHand-Fox0fil34 {fill:url(#RightHand-Fox0id128)}
.RightHand-Fox0fil8 {fill:black;fill-opacity:0.200000}
.RightHand-Fox0fil0 {fill:none}
.RightHand-Fox0str0 {stroke:black;stroke-width:150;stroke-linecap:round;stroke-linejoin:round}
.RightPaw-Fox2fil41 {fill:url(#RightPaw-Fox2id91)}
.RightPaw-Fox2fil8 {fill:black;fill-opacity:0.200000}
.RightPaw-Fox2fil18 {fill:black;fill-rule:nonzero}
.LeftHand-Fox0fil44 {fill:url(#LeftHand-Fox0id144)}
.LeftHand-Fox0fil8 {fill:black;fill-opacity:0.200000}
.LeftHand-Fox0fil0 {fill:none}
.LeftHand-Fox0str0 {stroke:black;stroke-width:150;stroke-linecap:round;stroke-linejoin:round}
.LeftPaw-Fox2fil50 {fill:url(#LeftPaw-Fox2id150)}
.LeftPaw-Fox2fil8 {fill:black;fill-opacity:0.200000}
.LeftPaw-Fox2fil18 {fill:black;fill-rule:nonzero}
.Body-Fox3fil53 {fill:url(#Body-Fox3id192)}
.Body-Fox3fil8 {fill:black;fill-opacity:0.200000}
.Body-Fox3fil18 {fill:black;fill-rule:nonzero}
.Body-Fox3fil57 {fill:black;fill-opacity:0.101961}
.Body-Fox3fil58 {fill:url(#Body-Fox3id49)}
.Ears-Fox11fil124 {fill:url(#Ears-Fox11id95)}
.Ears-Fox11fil125 {fill:url(#Ears-Fox11id123)}
.Ears-Fox11fil126 {fill:url(#Ears-Fox11id121)}
.Ears-Fox11fil127 {fill:url(#Ears-Fox11id108)}
.Ears-Fox11fil128 {fill:url(#Ears-Fox11id122)}
.Ears-Fox11fil129 {fill:url(#Ears-Fox11id0)}
.Ears-Fox11fil0 {fill:none}
.Ears-Fox11str1 {stroke:black;stroke-width:150}
.Head-Fox7fil139 {fill:url(#Head-Fox7id94)}
.Head-Fox7fil12 {fill:#7a6945;fill-opacity:0.501961}
.Head-Fox7fil8 {fill:black;fill-opacity:0.200000}
.Head-Fox7fil18 {fill:black;fill-rule:nonzero}
.Mouth-Fox4fil8 {fill:black;fill-opacity:0.200000}
.Mouth-Fox4fil2 {fill:black}
.Mouth-Fox4fil0 {fill:none}
.Mouth-Fox4str0 {stroke:black;stroke-width:150;stroke-linecap:round;stroke-linejoin:round}
.Mouth-Fox4fil142 {fill:white}
.Mouth-Fox4str1 {stroke:black;stroke-width:150}
.Eyes-Fox9fil150 {fill:#544627}
.Eyes-Fox9fil4 {fill:black;fill-opacity:0.501961}
.Eyes-Fox9fil200 {fill:url(#Eyes-Fox9id174)}
.Eyes-Fox9fil201 {fill:url(#Eyes-Fox9id25)}
.Eyes-Fox9fil202 {fill:url(#Eyes-Fox9id23)}
.Eyes-Fox9fil142 {fill:white}
.Eyes-Fox9fil203 {fill:url(#Eyes-Fox9id173)}
.Eyes-Fox9fil204 {fill:url(#Eyes-Fox9id26)}
.Eyes-Fox9fil205 {fill:url(#Eyes-Fox9id102)}
.Eyes-Fox9fil0 {fill:none}
.Eyes-Fox9str1 {stroke:black;stroke-width:150}
.Moustache-Fox3fil206 {fill:url(#Moustache-Fox3id199)}
.Nose-Fox0fil215 {fill:url(#Nose-Fox0id189)}
.Nose-Fox0str0 {stroke:black;stroke-width:150;stroke-linecap:round;stroke-linejoin:round}
.Hair-Fox4fil5 {fill:black;fill-opacity:0.301961}
.Hair-Fox4fil220 {fill:url(#Hair-Fox4id126)}
.Hair-Fox4fil18 {fill:black;fill-rule:nonzero}
.Hair-Fox4fil4 {fill:black;fill-opacity:0.501961}
.Hair-Fox4fil219 {fill:url(#Hair-Fox4id1)}
.Hair-Fox4str0 {stroke:black;stroke-width:150;stroke-linecap:round;stroke-linejoin:round}
.Hair-Fox4fil221 {fill:url(#Hair-Fox4id188)}
.Hair-Fox4fil222 {fill:url(#Hair-Fox4id8)}
.WeaponFlySwatterBack-Mediumfil1 {fill:black;fill-rule:nonzero;fill-opacity:0.200000}
.WeaponFlySwatterBack-Mediumfil0 {fill:url(#WeaponFlySwatterBack-Mediumid26);fill-rule:nonzero}
.WeaponFlySwatterBack-Mediumstr0 {stroke:black;stroke-width:150;stroke-linecap:round;stroke-linejoin:round}
.WeaponFlySwatter-Mediumfil3 {fill:black;fill-opacity:0.200000}
.WeaponFlySwatter-Mediumfil4 {fill:url(#WeaponFlySwatter-Mediumid24);fill-rule:nonzero}
.WeaponFlySwatter-Mediumfil1 {fill:black;fill-rule:nonzero;fill-opacity:0.200000}
.WeaponFlySwatter-Mediumfil2 {fill:url(#WeaponFlySwatter-Mediumid0)}
.WeaponFlySwatter-Mediumstr0 {stroke:black;stroke-width:150;stroke-linecap:round;stroke-linejoin:round}
.WeaponFlySwatter-Mediumfil5 {fill:none;fill-rule:nonzero}
.WeaponFlySwatter-Mediumstr1 {stroke:black;stroke-width:150}
.NecklaceTornShirtBlue-Mediumfil10 {fill:url(#NecklaceTornShirtBlue-Mediumid1)}
.NecklaceTornShirtBlue-Mediumfil2 {fill:black;fill-opacity:0.301961}
.NecklaceTornShirtBlue-Mediumfil3 {fill:black}
.NecklaceTornShirtBlue-Mediumfil4 {fill:black;fill-opacity:0.501961}
.NecklaceTornShirtBlue-Mediumfil1 {fill:none}
.NecklaceTornShirtBlue-Mediumfil5 {fill:black;fill-rule:nonzero}
.NecklaceTornShirtBlue-Mediumfil6 {fill:black;fill-opacity:0.400000}
.NecklaceTornShirtBlue-Mediumstr1 {stroke:black;stroke-width:150;stroke-linecap:round;stroke-linejoin:round}
</style><linearGradient gradientUnits="objectBoundingBox" id="Tail-Fox7id168" x1="21.6477%" x2="78.3522%" y1="90.1854%" y2="9.81459%">
   <stop offset="0" style="stop-opacity:1; stop-color:#c7d0d9"/>
   <stop offset="0.568627" style="stop-opacity:1; stop-color:#f7fbff"/>
   <stop offset="1" style="stop-opacity:1; stop-color:#ffffff"/>
  </linearGradient><linearGradient gradientUnits="userSpaceOnUse" id="Tail-Fox7id71" x1="20567.8" x2="23404.3" y1="20889.9" y2="17430.7">
   <stop offset="0" style="stop-opacity:1; stop-color:#7a6945"/>
   <stop offset="1" style="stop-opacity:1; stop-color:#544627"/>
  </linearGradient><linearGradient gradientUnits="userSpaceOnUse" id="RightFoot-Fox0id163" x1="16304.9" x2="16304.9" xlink:href="#RightFoot-Fox0id14" y1="23252.2" y2="25473.4">
  </linearGradient><linearGradient gradientUnits="userSpaceOnUse" id="RightLeg-Fox5id47" x1="14529.9" x2="16503.6" xlink:href="#RightLeg-Fox5id41" y1="23914.3" y2="21127.8">
  </linearGradient><linearGradient gradientUnits="userSpaceOnUse" id="LeftFoot-Fox0id166" x1="11002.8" x2="11002.8" xlink:href="#LeftFoot-Fox0id14" y1="23252.1" y2="25473.4">
  </linearGradient><linearGradient gradientUnits="objectBoundingBox" id="LeftLeg-Fox5id43" x1="76.8084%" x2="23.1916%" xlink:href="#LeftLeg-Fox5id41" y1="93.4795%" y2="6.52046%">
  </linearGradient><linearGradient gradientUnits="objectBoundingBox" id="RightHand-Fox0id128" x1="19.7151%" x2="80.2849%" y1="10.4183%" y2="89.5814%">
   <stop offset="0" style="stop-opacity:1; stop-color:#c7d0d9"/>
   <stop offset="0.0196078" style="stop-opacity:1; stop-color:#c7d0d9"/>
   <stop offset="0.721569" style="stop-opacity:1; stop-color:#f7fbff"/>
   <stop offset="1" style="stop-opacity:1; stop-color:#f7fbff"/>
  </linearGradient><linearGradient gradientUnits="userSpaceOnUse" id="RightPaw-Fox2id91" x1="18753.4" x2="17671.1" xlink:href="#RightPaw-Fox2id5" y1="21628.2" y2="19462.6">
  </linearGradient><linearGradient gradientUnits="objectBoundingBox" id="LeftHand-Fox0id144" x1="80.2849%" x2="19.7151%" xlink:href="#LeftHand-Fox0id128" y1="10.4183%" y2="89.5814%">
  </linearGradient><linearGradient gradientUnits="userSpaceOnUse" id="LeftPaw-Fox2id150" x1="8539.59" x2="9651.19" xlink:href="#LeftPaw-Fox2id5" y1="21657.5" y2="19433.3">
  </linearGradient><linearGradient gradientUnits="objectBoundingBox" id="Body-Fox3id192" x1="50%" x2="50%" y1="0.000177723%" y2="100%">
   <stop offset="0" style="stop-opacity:1; stop-color:#c7d0d9"/>
   <stop offset="0.101961" style="stop-opacity:1; stop-color:#c7d0d9"/>
   <stop offset="0.521569" style="stop-opacity:1; stop-color:#f7fbff"/>
   <stop offset="1" style="stop-opacity:1; stop-color:#ffffff"/>
  </linearGradient><linearGradient gradientUnits="objectBoundingBox" id="Body-Fox3id49" x1="50.0001%" x2="50.0001%" y1="0%" y2="99.9998%">
   <stop offset="0" style="stop-opacity:1; stop-color:#ebe1c7"/>
   <stop offset="0.121569" style="stop-opacity:1; stop-color:#ebe1c7"/>
   <stop offset="0.509804" style="stop-opacity:1; stop-color:#f8f1df"/>
   <stop offset="1" style="stop-opacity:1; stop-color:#f8f1df"/>
  </linearGradient><linearGradient gradientUnits="userSpaceOnUse" id="Ears-Fox11id95" x1="9246.96" x2="9246.96" xlink:href="#Ears-Fox11id27" y1="13693.8" y2="4632.51">
  </linearGradient><linearGradient gradientUnits="userSpaceOnUse" id="Ears-Fox11id123" x1="7790.49" x2="7048.47" xlink:href="#Ears-Fox11id5" y1="7318.62" y2="4739.02">
  </linearGradient><linearGradient gradientUnits="userSpaceOnUse" id="Ears-Fox11id121" x1="7107.96" x2="7107.96" xlink:href="#Ears-Fox11id0" y1="13203.8" y2="6228.15">
  </linearGradient><linearGradient gradientUnits="userSpaceOnUse" id="Ears-Fox11id108" x1="18116.9" x2="18116.9" xlink:href="#Ears-Fox11id27" y1="13693.8" y2="4632.51">
  </linearGradient><linearGradient gradientUnits="userSpaceOnUse" id="Ears-Fox11id122" x1="20315.4" x2="19573.3" xlink:href="#Ears-Fox11id5" y1="7318.62" y2="4739.02">
  </linearGradient><linearGradient gradientUnits="objectBoundingBox" id="Head-Fox7id94" x1="50%" x2="50%" y1="99.9999%" y2="0%">
   <stop offset="0" style="stop-opacity:1; stop-color:#c7d0d9"/>
   <stop offset="0.4" style="stop-opacity:1; stop-color:#f7fbff"/>
   <stop offset="1" style="stop-opacity:1; stop-color:#ffffff"/>
  </linearGradient><linearGradient gradientUnits="userSpaceOnUse" id="Eyes-Fox9id174" x1="10692.8" x2="9987.82" xlink:href="#Eyes-Fox9id11" y1="14899.5" y2="11363.2">
  </linearGradient><linearGradient gradientUnits="userSpaceOnUse" id="Eyes-Fox9id25" x1="9252.67" x2="12054.6" xlink:href="#Eyes-Fox9id4" y1="12956.5" y2="12956.5">
  </linearGradient><linearGradient gradientUnits="userSpaceOnUse" id="Eyes-Fox9id23" x1="10718.3" x2="10718.3" xlink:href="#Eyes-Fox9id3" y1="11567.3" y2="14177.8">
  </linearGradient><linearGradient gradientUnits="userSpaceOnUse" id="Eyes-Fox9id173" x1="16671" x2="17376" xlink:href="#Eyes-Fox9id11" y1="14899.5" y2="11363.2">
  </linearGradient><linearGradient gradientUnits="userSpaceOnUse" id="Eyes-Fox9id26" x1="15309.3" x2="18111.2" xlink:href="#Eyes-Fox9id4" y1="12956.5" y2="12956.5">
  </linearGradient><linearGradient gradientUnits="userSpaceOnUse" id="Eyes-Fox9id102" x1="16645.5" x2="16645.5" xlink:href="#Eyes-Fox9id3" y1="11567.3" y2="14177.8">
  </linearGradient><linearGradient gradientUnits="userSpaceOnUse" id="Moustache-Fox3id199" x1="13681.9" x2="13681.9" xlink:href="#Moustache-Fox3id51" y1="14049.5" y2="17558.2">
  </linearGradient><linearGradient gradientUnits="userSpaceOnUse" id="Nose-Fox0id189" x1="13681.9" x2="13681.9" y1="14170" y2="14789.2">
   <stop offset="0" style="stop-opacity:1; stop-color:#FFCCCC"/>
   <stop offset="1" style="stop-opacity:1; stop-color:#453F2C"/>
  </linearGradient><linearGradient gradientUnits="userSpaceOnUse" id="Hair-Fox4id126" x1="13683" x2="13683" xlink:href="#Hair-Fox4id37" y1="6279.78" y2="8132.22">
  </linearGradient><linearGradient gradientUnits="userSpaceOnUse" id="Hair-Fox4id1" x1="13681.9" x2="13681.9" y1="5002.87" y2="7062.69">
   <stop offset="0" style="stop-opacity:1; stop-color:#dbd391"/>
   <stop offset="0.411765" style="stop-opacity:1; stop-color:#dbd391"/>
   <stop offset="1" style="stop-opacity:1; stop-color:#f5eeba"/>
  </linearGradient><linearGradient gradientUnits="userSpaceOnUse" id="Hair-Fox4id188" x1="13681.7" x2="13681.7" xlink:href="#Hair-Fox4id37" y1="5910.95" y2="3198.09">
  </linearGradient><linearGradient gradientUnits="userSpaceOnUse" id="Hair-Fox4id8" x1="12452.1" x2="14911.7" y1="6166.63" y2="6166.63">
   <stop offset="0" style="stop-opacity:1; stop-color:#465666"/>
   <stop offset="0.678431" style="stop-opacity:1; stop-color:#fdfeff"/>
   <stop offset="1" style="stop-opacity:1; stop-color:#5e6f80"/>
  </linearGradient><linearGradient gradientUnits="userSpaceOnUse" id="WeaponFlySwatterBack-Mediumid26" x1="7745.86" x2="9181.7" xlink:href="#WeaponFlySwatterBack-Mediumid24" y1="21810.6" y2="20301.7">
  </linearGradient><linearGradient gradientUnits="userSpaceOnUse" id="WeaponFlySwatter-Mediumid24" x1="12160.4" x2="14712.1" y1="25216.2" y2="22534.8">
   <stop offset="0" style="stop-opacity:1; stop-color:#008011"/>
   <stop offset="1" style="stop-opacity:1; stop-color:#00BD55"/>
  </linearGradient><linearGradient gradientUnits="userSpaceOnUse" id="WeaponFlySwatter-Mediumid0" x1="9457.05" x2="12008.3" y1="22428.9" y2="22293.2">
   <stop offset="0" style="stop-opacity:1; stop-color:#787878"/>
   <stop offset="1" style="stop-opacity:1; stop-color:#D6D6D6"/>
  </linearGradient><linearGradient gradientUnits="userSpaceOnUse" id="NecklaceTornShirtBlue-Mediumid1" x1="13681.9" x2="13681.9" y1="22800.8" y2="17350.8">
   <stop offset="0" style="stop-opacity:1; stop-color:#4B5761"/>
   <stop offset="1" style="stop-opacity:1; stop-color:#859FB8"/>
  </linearGradient><linearGradient gradientUnits="userSpaceOnUse" id="RightFoot-Fox0id14" x1="15903.9" x2="21356.9" y1="9993.71" y2="4540.69">
   <stop offset="0" style="stop-opacity:1; stop-color:#c7d0d9"/>
   <stop offset="1" style="stop-opacity:1; stop-color:#7a6945"/>
  </linearGradient><linearGradient gradientUnits="objectBoundingBox" id="RightLeg-Fox5id41" x1="23.3197%" x2="76.6803%" y1="93.6504%" y2="6.34959%">
   <stop offset="0" style="stop-opacity:1; stop-color:#ffffff"/>
   <stop offset="0.2" style="stop-opacity:1; stop-color:#ffffff"/>
   <stop offset="1" style="stop-opacity:1; stop-color:#f7fbff"/>
  </linearGradient><linearGradient gradientUnits="userSpaceOnUse" id="LeftFoot-Fox0id14" x1="15903.9" x2="21356.9" y1="9993.71" y2="4540.69">
   <stop offset="0" style="stop-opacity:1; stop-color:#c7d0d9"/>
   <stop offset="1" style="stop-opacity:1; stop-color:#7a6945"/>
  </linearGradient><linearGradient gradientUnits="objectBoundingBox" id="LeftLeg-Fox5id41" x1="23.3197%" x2="76.6803%" y1="93.6504%" y2="6.34959%">
   <stop offset="0" style="stop-opacity:1; stop-color:#ffffff"/>
   <stop offset="0.2" style="stop-opacity:1; stop-color:#ffffff"/>
   <stop offset="1" style="stop-opacity:1; stop-color:#f7fbff"/>
  </linearGradient><linearGradient gradientUnits="userSpaceOnUse" id="RightPaw-Fox2id5" x1="19051.7" x2="16703.6" y1="13095.1" y2="4932.14">
   <stop offset="0" style="stop-opacity:1; stop-color:#544627"/>
   <stop offset="1" style="stop-opacity:1; stop-color:#7a6945"/>
  </linearGradient><linearGradient gradientUnits="objectBoundingBox" id="LeftHand-Fox0id128" x1="19.7151%" x2="80.2849%" y1="10.4183%" y2="89.5814%">
   <stop offset="0" style="stop-opacity:1; stop-color:#c7d0d9"/>
   <stop offset="0.0196078" style="stop-opacity:1; stop-color:#c7d0d9"/>
   <stop offset="0.721569" style="stop-opacity:1; stop-color:#f7fbff"/>
   <stop offset="1" style="stop-opacity:1; stop-color:#f7fbff"/>
  </linearGradient><linearGradient gradientUnits="userSpaceOnUse" id="LeftPaw-Fox2id5" x1="19051.7" x2="16703.6" y1="13095.1" y2="4932.14">
   <stop offset="0" style="stop-opacity:1; stop-color:#544627"/>
   <stop offset="1" style="stop-opacity:1; stop-color:#7a6945"/>
  </linearGradient><linearGradient gradientUnits="userSpaceOnUse" id="Ears-Fox11id27" x1="21988.9" x2="18216.9" y1="10927.7" y2="6684.2">
   <stop offset="0" style="stop-opacity:1; stop-color:#c7d0d9"/>
   <stop offset="1" style="stop-opacity:1; stop-color:#f7fbff"/>
  </linearGradient><linearGradient gradientUnits="userSpaceOnUse" id="Ears-Fox11id5" x1="19051.7" x2="16703.6" y1="13095.1" y2="4932.14">
   <stop offset="0" style="stop-opacity:1; stop-color:#544627"/>
   <stop offset="1" style="stop-opacity:1; stop-color:#7a6945"/>
  </linearGradient><linearGradient gradientUnits="userSpaceOnUse" id="Ears-Fox11id0" x1="20255.9" x2="20255.9" y1="13203.8" y2="6228.15">
   <stop offset="0" style="stop-opacity:1; stop-color:#ebe1c7"/>
   <stop offset="1" style="stop-opacity:1; stop-color:#f8f1df"/>
  </linearGradient><linearGradient gradientUnits="userSpaceOnUse" id="Eyes-Fox9id11" x1="16664.8" x2="17411" y1="14898.5" y2="11291.1">
   <stop offset="0" style="stop-opacity:1; stop-color:#5e6f80"/>
   <stop offset="1" style="stop-opacity:1; stop-color:black"/>
  </linearGradient><linearGradient gradientUnits="objectBoundingBox" id="Eyes-Fox9id4" x1="100%" x2="0.00029984%" y1="50%" y2="50%">
   <stop offset="0" style="stop-opacity:1; stop-color:#5e6f80"/>
   <stop offset="0.501961" style="stop-opacity:1; stop-color:#fdfeff"/>
   <stop offset="1" style="stop-opacity:1; stop-color:#5e6f80"/>
  </linearGradient><linearGradient gradientUnits="userSpaceOnUse" id="Eyes-Fox9id3" x1="16867.8" x2="16867.8" y1="11330.3" y2="14359.1">
   <stop offset="0" style="stop-opacity:1; stop-color:black"/>
   <stop offset="0.4" style="stop-opacity:1; stop-color:black"/>
   <stop offset="1" style="stop-opacity:1; stop-color:#465666"/>
  </linearGradient><linearGradient gradientUnits="userSpaceOnUse" id="Moustache-Fox3id51" x1="16449.3" x2="13952.3" y1="14690.1" y2="16381.9">
   <stop offset="0" style="stop-opacity:1; stop-color:#f5eeba"/>
   <stop offset="0.290196" style="stop-opacity:1; stop-color:#f5eeba"/>
   <stop offset="1" style="stop-opacity:1; stop-color:#dbd391"/>
  </linearGradient><linearGradient gradientUnits="userSpaceOnUse" id="Hair-Fox4id37" x1="14316" x2="14150.5" y1="4497.03" y2="8171.67">
   <stop offset="0" style="stop-opacity:1; stop-color:#dbd391"/>
   <stop offset="1" style="stop-opacity:1; stop-color:#f5eeba"/>
  </linearGradient><linearGradient gradientUnits="userSpaceOnUse" id="WeaponFlySwatterBack-Mediumid24" x1="12160.4" x2="14712.1" y1="25216.2" y2="22534.8">
   <stop offset="0" style="stop-opacity:1; stop-color:#008011"/>
   <stop offset="1" style="stop-opacity:1; stop-color:#00BD55"/>
  </linearGradient></defs><g id="HairBack-Fox0">
 <animateTransform additive="sum" attributeName="transform" dur="10" repeatCount="indefinite" type="translate" values="0;0 200;0;0 200;0;0 200;0;0 200;0"/>
  <metadata id="CorelCorpID_0Corel-Layer"/>
  <rect class="HairBack-Fox0fil0" height="908" width="908" x="13228" y="16528"/>
 </g><g id="Tail-Fox7">
  <metadata id="CorelCorpID_10Corel-Layer"/>
  <path class="Tail-Fox7fil14" d="M15078 19187c1357,950 4209,480 4730,-49 23,212 -10,443 -154,603 1185,-62 1753,-1639 1019,-2259 229,-21 459,33 679,157 32,-338 -176,-679 -366,-841 1288,-89 2734,1378 2401,2958 171,-69 359,-277 404,-531 1080,2975 -2233,5930 -5598,4969 84,192 394,359 578,497 -845,212 -6410,-24 -6519,-3566 -317,-317 2374,-2412 2826,-1938z" style="fill:#356c52"/>
  <path class="Tail-Fox7fil15" d="M21327 19649c-232,419 -61,845 -417,1229 570,66 944,-370 1338,-611 14,423 214,714 105,1161 349,-85 702,-296 987,-860 69,393 411,703 460,959 255,-717 279,-1509 -9,-2302 -45,254 -233,462 -404,531 333,-1580 -1113,-3047 -2401,-2958 190,162 398,503 366,841 -220,-124 -450,-178 -679,-157 742,761 65,1992 -700,2187 548,290 986,29 1354,-20z" style="fill:#0d9ea5"/>
  <path class="Tail-Fox7fil8" d="M23686 21809c-823,1820 -3145,3055 -5493,2385 84,192 394,359 578,497 -762,191 -5360,18 -6337,-2615 1690,1440 5465,2105 8330,1378 789,-201 2685,-1101 3223,-2827 -40,417 -126,777 -301,1182z" style="fill:#40a61c"/>
  <path class="Tail-Fox7fil0 Tail-Fox7str0" d="M15078 19187c1357,950 4209,480 4730,-49 23,212 -10,443 -154,603 1185,-62 1753,-1639 1019,-2259 229,-21 459,33 679,157 32,-338 -176,-679 -366,-841 1288,-89 2734,1378 2401,2958 171,-69 359,-277 404,-531 1080,2975 -2233,5930 -5598,4969 84,192 394,359 578,497 -845,212 -6410,-24 -6519,-3566 -317,-317 2374,-2412 2826,-1938z" style="fill:#738b03"/>
 </g><g id="RightFoot-Fox0">
  <metadata id="CorelCorpID_15Corel-Layer"/>
  <path class="RightFoot-Fox0fil20" d="M17344 25232c-137,249 -447,331 -676,123 -79,82 -307,169 -584,76 -453,-152 -647,-627 -1039,-897 -210,-335 50,-672 -74,-810 206,-438 728,-491 1087,-467 300,20 870,160 658,684 145,50 358,135 465,193 170,92 294,217 379,350 158,246 119,748 -216,748z" style="fill:#606dfe"/>
  <path class="RightFoot-Fox0fil8" d="M17344 25232c-137,249 -447,331 -676,123 -79,82 -307,169 -584,76 -453,-152 -647,-627 -1039,-897 -173,-120 -100,-408 -65,-624 13,30 63,32 85,19 1,85 -2,160 47,261 304,621 1402,1311 1539,663 237,396 662,243 605,-148 145,250 318,57 222,-294 143,96 177,309 171,486 -20,178 -119,335 -305,335z" style="fill:#f08857"/>
  <path class="RightFoot-Fox0fil0" d="M16657 23949c534,135 771,327 906,532 162,244 116,751 -219,751 -137,249 -447,331 -676,123 -79,82 -307,169 -584,76 -453,-152 -586,-562 -971,-844 -192,-140 -159,-401 -128,-554" style="fill:#a45ca0"/>
  <path class="RightFoot-Fox0fil18" d="M17265 25213c0,3 0,7 0,10 -56,86 -141,149 -240,169 -80,16 -166,3 -246,-45l-11 -8c45,-255 18,-572 -319,-636 159,118 182,399 156,611 -40,33 -112,65 -206,77 -84,11 -184,6 -293,-31 -253,-85 -404,-261 -562,-447 -265,-311 -583,-400 -489,-864 8,-41 -26,-86 -55,-89 -23,-2 -77,17 -85,58 -113,558 212,630 523,995 171,201 335,392 625,490 130,43 251,50 353,37 104,-13 191,-49 250,-89l3 0c111,81 247,115 383,88 136,-28 255,-114 333,-234 144,-15 246,-113 298,-251 29,-74 42,-157 42,-240 0,-135 -36,-275 -103,-376 -73,-110 -173,-216 -325,-313 -137,-86 -316,-165 -558,-231l-100 128c258,65 447,144 584,231 133,84 219,176 282,271 50,76 77,183 77,290 0,66 -10,130 -31,185 -24,64 -62,112 -114,138 13,-317 -122,-634 -445,-624 209,111 299,298 273,700z" style="fill:#d2dc4a"/>
 </g><g id="LeftFoot-Fox0">
  <metadata id="CorelCorpID_24Corel-Layer"/>
  <path class="LeftFoot-Fox0fil29" d="M9963 25232c137,249 448,331 677,123 78,82 306,169 583,76 454,-152 648,-627 1039,-897 210,-335 -49,-672 75,-810 -206,-438 -729,-491 -1088,-467 -299,20 -869,160 -657,684 -145,50 -358,135 -465,193 -170,92 -294,217 -380,350 -158,246 -118,748 216,748z" style="fill:#1b7ca8"/>
  <path class="LeftFoot-Fox0fil8" d="M9963 25232c137,249 448,331 677,123 78,82 306,169 583,76 454,-152 648,-627 1039,-897 173,-120 101,-408 65,-624 -13,30 -63,32 -84,19 -2,85 1,160 -48,261 -303,621 -1401,1311 -1539,663 -236,396 -661,243 -605,-148 -144,250 -317,57 -221,-294 -143,96 -177,309 -171,486 19,178 118,335 304,335z" style="fill:#18f899"/>
  <path class="LeftFoot-Fox0fil0" d="M10650 23949c-534,135 -770,327 -906,532 -161,244 -115,751 219,751 137,249 448,331 677,123 78,82 307,169 583,76 454,-152 587,-562 972,-844 192,-140 159,-401 128,-554" style="fill:#c67975"/>
  <path class="LeftFoot-Fox0fil18" d="M10042 25213c0,3 0,7 0,10 57,86 142,149 241,169 80,16 166,3 245,-45l12 -8c-45,-255 -19,-572 318,-636 -158,118 -181,399 -155,611 39,33 111,65 206,77 84,11 184,6 292,-31 254,-85 404,-261 562,-447 266,-311 584,-400 490,-864 -8,-41 26,-86 55,-89 22,-2 76,17 85,58 113,558 -213,630 -523,995 -172,201 -335,392 -625,490 -131,43 -252,50 -354,37 -103,-13 -190,-49 -250,-89l-3 0c-111,81 -247,115 -382,88 -137,-28 -256,-114 -333,-234 -144,-15 -246,-113 -299,-251 -28,-74 -41,-157 -41,-240 0,-135 35,-275 102,-376 73,-110 173,-216 326,-313 136,-86 316,-165 558,-231l100 128c-259,65 -447,144 -584,231 -133,84 -219,176 -282,271 -50,76 -77,183 -77,290 0,66 10,130 31,185 24,64 62,112 114,138 -13,-317 122,-634 445,-624 -209,111 -299,298 -274,700z" style="fill:#386d2a"/>
 </g><g id="RightLeg-Fox5">
  <metadata id="CorelCorpID_23Corel-Layer"/>
  <path class="RightLeg-Fox5fil28" d="M13654 20939c701,0 2353,-56 2710,226 459,506 1021,773 1016,1435 -190,-142 -343,-152 -452,-109 252,198 433,533 303,848 -95,231 -277,434 -434,562 -224,183 -468,125 -546,-15 -72,-132 3,-231 80,-241 57,-7 149,41 151,155 116,-164 -7,-389 -136,-425 -226,-64 -381,70 -430,296 -29,132 28,336 -181,421 -142,57 -337,-52 -268,-218 31,110 164,59 196,-10 40,-84 -6,-193 -124,-224 -210,-57 -408,295 -638,-35 -114,-303 -846,-438 -1247,-445l0 -2221z" style="fill:#5a8c4f"/>
  <path class="RightLeg-Fox5fil18" d="M15057 24610c33,25 62,27 88,-6 25,-32 18,-79 -15,-104 -85,-66 -111,-236 -89,-338 34,-163 71,-342 -66,-579 0,-1 -1,-3 -2,-4 -100,-171 -247,-296 -460,-378 -208,-80 -506,-119 -859,-119l0 150c335,0 616,36 805,108 180,69 302,173 385,314 0,2 1,3 2,4 108,188 77,337 48,473 -32,154 43,385 163,479zm1227 -3463c110,87 269,241 426,445 128,166 290,299 478,568 62,88 132,199 128,332 -124,-116 -346,-149 -436,-75 -49,58 48,155 102,217 129,149 237,334 205,522 -24,140 -101,307 -181,423 -154,223 -427,476 -707,613 326,-17 760,-427 830,-528 89,-127 165,-267 201,-421 80,-333 -148,-658 -257,-708 156,12 252,240 338,176 110,-81 92,-375 -49,-589 -205,-312 -438,-521 -532,-638 -166,-209 -338,-363 -454,-454l-92 117z" style="fill:#f247e1"/>
  <path class="RightLeg-Fox5fil8" d="M17104 23529c209,-291 238,-592 -99,-1030 55,-55 234,0 366,119 77,-524 -680,-1089 -941,-1444 -191,187 -411,669 -270,926 319,-263 740,-155 874,126 -346,-39 -655,218 -434,301 290,109 715,454 504,1002z" style="fill:#9be7a2"/>
 </g><g id="LeftLeg-Fox5">
  <metadata id="CorelCorpID_32Corel-Layer"/>
  <path class="LeftLeg-Fox5fil33" d="M13654 20939c-701,0 -2353,-56 -2710,226 -459,506 -1021,773 -1016,1435 189,-142 343,-152 451,-109 -251,198 -433,533 -303,848 96,231 278,434 434,562 225,183 469,125 546,-15 73,-132 -3,-231 -80,-241 -57,-7 -149,41 -150,155 -116,-164 7,-389 135,-425 226,-64 382,70 431,296 29,132 -28,336 181,421 141,57 337,-52 268,-218 -31,110 -164,59 -197,-10 -39,-84 6,-193 125,-224 210,-57 408,295 638,-35 114,-303 845,-438 1247,-445l0 -2221z" style="fill:#27bc3d"/>
  <path class="LeftLeg-Fox5fil18" d="M12251 24610c-33,25 -63,27 -88,-6 -25,-32 -19,-79 14,-104 85,-66 111,-236 90,-338 -34,-163 -72,-342 65,-579 1,-1 2,-3 3,-4 100,-171 246,-296 460,-378 208,-80 506,-119 859,-119l0 150c-335,0 -616,36 -806,108 -179,69 -302,173 -384,314 -1,2 -2,3 -2,4 -109,188 -77,337 -49,473 33,154 -42,385 -162,479zm-1227 -3463c-110,87 -269,241 -426,445 -128,166 -290,299 -479,568 -61,88 -131,199 -127,332 124,-116 346,-149 435,-75 49,58 -47,155 -102,217 -128,149 -236,334 -204,522 24,140 100,307 180,423 155,223 428,476 708,613 -326,-17 -761,-427 -831,-528 -88,-127 -164,-267 -201,-421 -79,-333 149,-658 257,-708 -156,12 -251,240 -338,176 -109,-81 -91,-375 50,-589 205,-312 438,-521 531,-638 167,-209 338,-363 454,-454l93 117z" style="fill:#4f64fa"/>
  <path class="LeftLeg-Fox5fil8" d="M10204 23529c-210,-291 -238,-592 98,-1030 -54,-55 -234,0 -365,119 -78,-524 680,-1089 941,-1444 190,187 411,669 269,926 -318,-263 -739,-155 -873,126 346,-39 655,218 434,301 -290,109 -716,454 -504,1002z" style="fill:#abafc1"/>
 </g><g id="RightHand-Fox0">
 <animateTransform additive="sum" attributeName="transform" dur="10" repeatCount="indefinite" type="translate" values="0;0 200;0;0 200;0;0 200;0;0 200;0"/>
  <metadata id="CorelCorpID_33Corel-Layer"/>
  <path class="RightHand-Fox0fil34" d="M15438 17646c166,-72 204,-212 419,-180 1007,152 2171,1615 2590,2346 281,490 -618,1230 -886,986 -389,-355 -757,-565 -1090,-638 -348,-77 -727,-1837 -1033,-2514z" style="fill:#a6c3d5"/>
  <path class="RightHand-Fox0fil0 RightHand-Fox0str0" d="M15894 17470c1132,325 2053,1546 2505,2334m-838 994c-383,-350 -775,-593 -1110,-636" style="fill:#7d1ac4"/>
  <path class="RightHand-Fox0fil8" d="M17390 20682c-242,-242 -554,-457 -866,-480 -152,-170 -246,-612 -157,-856 201,284 528,601 788,813 127,103 289,193 380,265 -29,81 -73,157 -144,221 0,12 -1,25 -1,37z" style="fill:#451f6d"/>
 </g><g id="LeftHand-Fox0">
 <animateTransform additive="sum" attributeName="transform" dur="10" repeatCount="indefinite" type="translate" values="0;0 200;0;0 200;0;0 200;0;0 200;0"/>
  <metadata id="CorelCorpID_44Corel-Layer"/>
  <path class="LeftHand-Fox0fil44" d="M11870 17646c-166,-72 -204,-212 -419,-180 -1007,152 -2171,1615 -2591,2346 -281,490 619,1230 887,986 388,-355 757,-565 1089,-638 349,-77 728,-1837 1034,-2514z" style="fill:#5eadea"/>
  <path class="LeftHand-Fox0fil0 LeftHand-Fox0str0" d="M11414 17470c-1133,325 -2053,1546 -2505,2334m838 994c382,-350 775,-593 1109,-636" style="fill:#332d6d"/>
  <path class="LeftHand-Fox0fil8" d="M9918 20682c242,-242 553,-457 866,-480 152,-170 245,-612 156,-856 -201,284 -527,601 -787,813 -127,103 -289,193 -380,265 29,81 73,157 144,221 0,12 1,25 1,37z" style="fill:#e2fb90"/>
 </g><g id="Body-Fox3">
 <animateTransform additive="sum" attributeName="transform" dur="10" repeatCount="indefinite" type="translate" values="0;0 200;0;0 200;0;0 200;0;0 200;0"/>
  <metadata id="CorelCorpID_58Corel-Layer"/>
  <path class="Body-Fox3fil53" d="M13654 23035c-1331,-3 -2731,-477 -2932,-1956 -143,-1051 441,-2541 1033,-3671 326,53 1001,53 1899,54 897,-1 1572,-1 1899,-54 591,1130 1176,2620 1033,3671 -202,1479 -1601,1953 -2932,1956z" style="fill:#eb6cfb"/>
  <path class="Body-Fox3fil8" d="M12532 22906c-908,-225 -1666,-768 -1810,-1827 -69,-505 31,-1112 218,-1732 -261,1919 185,3039 1592,3559z" style="fill:#2028de"/>
  <path class="Body-Fox3fil18" d="M11147 22100c-343,-354 -481,-873 -499,-1011 -34,-248 -29,-518 7,-802 17,-134 156,-771 285,-941 -140,680 -199,1317 -144,1723 41,304 111,608 351,1031z" style="fill:#740dd9"/>
  <path class="Body-Fox3fil8" d="M14775 22906c908,-225 1667,-768 1811,-1827 69,-505 -31,-1112 -219,-1732 261,1919 -185,3039 -1592,3559z" style="fill:#c26a72"/>
  <path class="Body-Fox3fil18" d="M16160 22100c344,-354 481,-873 500,-1011 34,-248 28,-518 -8,-802 -17,-134 -155,-771 -285,-941 141,680 200,1317 145,1723 -42,304 -112,608 -352,1031z" style="fill:#ae420f"/>
  <path class="Body-Fox3fil57" d="M13654 17895c921,-4 1675,-114 1983,-130 488,279 633,1188 129,1878 -260,-193 142,540 -887,1229 -19,-286 -288,-419 -393,-189 -128,279 -413,350 -368,1016 -882,-46 -1052,-681 -1389,-984 -105,-95 -283,-80 -254,178 -588,-322 -720,-900 -733,-1315 -5,-170 -167,-177 -246,34 -351,-454 -393,-1613 184,-1913 308,16 1052,192 1974,196z" style="fill:#a3650c"/>
  <path class="Body-Fox3fil58" d="M13654 17570c921,-4 1607,-115 1915,-130 489,278 629,1158 125,1848 -42,-225 -330,-263 -381,-559 -230,535 584,895 -369,1795 17,-315 -273,-347 -415,-558 32,666 -608,730 -570,1367 -1310,-491 -884,-1062 -1230,-1356 -24,280 -363,333 -334,590 -855,-719 -234,-1293 -465,-1828 -29,331 -333,336 -412,548 -351,-454 -305,-1555 272,-1854 308,15 942,133 1864,137z" style="fill:#765cf1"/>
 </g><g id="WeaponFlySwatterBack-Medium">
 <animateTransform additive="sum" attributeName="transform" dur="10" repeatCount="indefinite" type="translate" values="0;0 200;0;0 200;0;0 200;0;0 200;0"/>
  <metadata id="CorelCorpID_0Corel-Layer"/>
  <g id="_2367108334752">
   <path class="WeaponFlySwatterBack-Mediumfil0 WeaponFlySwatterBack-Mediumstr0" d="M9496 21664l211 -158 -1804 -1241c-168,-116 -453,-135 -616,153 -163,289 1,523 187,607l1996 902 26 -263z" style="fill:#2722a3"/>
   <path class="WeaponFlySwatterBack-Mediumfil1" d="M7463 20235c-66,36 -127,96 -176,183 -163,289 1,523 187,607l1996 902 22 -221c-464,-223 -1683,-816 -1870,-979 -151,-131 -206,-332 -159,-492z" style="fill:#b69c93"/>
  </g>
 </g><g id="RightPaw-Fox2">
 <animateTransform additive="sum" attributeName="transform" dur="10" repeatCount="indefinite" type="translate" values="0;0 200;0;0 200;0;0 200;0;0 200;0"/>
  <metadata id="CorelCorpID_41Corel-Layer"/>
  <path class="RightPaw-Fox2fil41" d="M17391 20645c-37,796 536,1303 918,955 300,471 1048,122 959,-347 241,-634 -518,-1244 -954,-1587 -129,-155 -206,-274 -278,-399 17,326 -300,151 -507,69 111,217 22,587 -418,535 95,134 203,471 26,573 52,47 227,170 254,201z" style="fill:#7fef8b"/>
  <path class="RightPaw-Fox2fil8" d="M17391 20645c-37,796 536,1303 918,955 300,471 1048,122 959,-347 15,-41 27,-81 34,-122 -52,-54 -116,-106 -195,-155 141,440 -471,730 -702,246 -315,467 -757,67 -766,-341 -3,-175 -7,-286 -49,-362 -49,-89 -173,-162 -359,-302 6,96 -18,184 -94,227 52,47 227,170 254,201z" style="fill:#745341"/>
  <path class="RightPaw-Fox2fil18" d="M18407 21599c103,-158 125,-439 -86,-523 72,118 25,376 -67,463 -134,127 -256,135 -418,31 -90,-58 -174,-151 -239,-271 -90,-168 -144,-386 -134,-638 1,-21 -7,-51 -23,-67 -51,-48 -201,-153 -251,-190 -33,-24 -85,-11 -108,21 -24,33 -10,73 22,96 42,31 171,138 213,169 -5,265 56,497 153,678 77,142 178,253 288,324 173,111 373,124 545,8 98,117 225,176 358,190 204,21 420,-68 557,-220 100,-112 156,-256 133,-414 223,-631 -399,-1134 -840,-1491 -102,-82 -130,-143 -201,-248 -22,-33 -232,-290 -265,-268 -34,22 -43,68 -20,101 87,129 149,222 187,282 64,98 106,165 207,248 346,280 842,694 831,1091 -51,-68 -153,-154 -273,-142 186,156 313,547 133,744 -107,116 -276,188 -434,172 -100,-10 -195,-56 -268,-146z" style="fill:#8e46a7"/>
 </g><g id="LeftPaw-Fox2">
 <animateTransform additive="sum" attributeName="transform" dur="10" repeatCount="indefinite" type="translate" values="0;0 200;0;0 200;0;0 200;0;0 200;0"/>
  <metadata id="CorelCorpID_52Corel-Layer"/>
  <path class="LeftPaw-Fox2fil50" d="M9917 20645c36,796 -537,1303 -918,955 -300,471 -1048,122 -959,-347 -241,-634 518,-1244 954,-1587 129,-155 205,-274 278,-399 -17,326 300,151 507,69 -111,217 -23,587 418,535 -95,134 -204,471 -27,573 -51,47 -226,170 -253,201z" style="fill:#3869af"/>
  <path class="LeftPaw-Fox2fil8" d="M9917 20645c36,796 -537,1303 -918,955 -300,471 -1048,122 -959,-347 -16,-41 -27,-81 -34,-122 52,-54 116,-106 194,-155 -140,440 472,730 703,246 315,467 757,67 765,-341 4,-175 8,-286 50,-362 49,-89 173,-162 359,-302 -6,96 17,184 93,227 -51,47 -226,170 -253,201z" style="fill:#09490d"/>
  <path class="LeftPaw-Fox2fil18" d="M8901 21599c-104,-158 -125,-439 86,-523 -73,118 -25,376 67,463 134,127 256,135 418,31 90,-58 173,-151 238,-271 91,-168 145,-386 135,-638 -1,-21 6,-51 23,-67 51,-48 200,-153 251,-190 32,-24 84,-11 108,21 24,33 10,73 -23,96 -42,31 -170,138 -213,169 5,265 -55,497 -153,678 -76,142 -177,253 -287,324 -173,111 -373,124 -545,8 -98,117 -226,176 -358,190 -205,21 -421,-68 -557,-220 -100,-112 -156,-256 -133,-414 -223,-631 399,-1134 840,-1491 101,-82 130,-143 200,-248 23,-33 233,-290 266,-268 33,22 42,68 20,101 -87,129 -149,222 -187,282 -64,98 -106,165 -208,248 -346,280 -841,694 -830,1091 51,-68 153,-154 272,-142 -185,156 -312,547 -132,744 107,116 276,188 434,172 99,-10 195,-56 268,-146z" style="fill:#7e4794"/>
 </g><g id="NecklaceTornShirtBlue-Medium">
 <animateTransform additive="sum" attributeName="transform" dur="10" repeatCount="indefinite" type="translate" values="0;0 200;0;0 200;0;0 200;0;0 200;0"/>
  <metadata id="CorelCorpID_4Corel-Layer"/>
  <path class="NecklaceTornShirtBlue-Mediumfil10" d="M13682 18647c658,0 2106,-245 1878,-1292 1232,-64 1965,547 2452,984 40,498 -620,1484 -1420,1443 419,783 542,2091 542,2091 -868,673 -2173,928 -3452,928 -1280,0 -2584,-255 -3452,-928 0,0 123,-1308 542,-2091 -800,41 -1460,-945 -1420,-1443 487,-437 1220,-1048 2452,-984 -228,1047 1220,1292 1878,1292zm-333 224c-277,229 -967,753 -1160,652 -247,60 -410,138 -477,171 22,-127 203,-274 387,-425 175,-49 406,-58 634,-218 203,-142 461,-160 616,-180zm1178 3258c209,-147 658,-582 898,-748 7,75 -49,109 -19,182 147,-99 287,-237 421,-317 -42,89 -123,265 -164,356 163,46 282,69 284,184 -130,-13 -477,85 -607,71 -56,106 -113,211 -169,317 -27,-24 -28,-108 -56,-131 -187,8 -401,77 -588,86zm512 -1313c17,-50 351,-288 480,-272 97,46 328,-90 367,-119 -3,47 -86,288 -90,335 -114,-24 -560,-16 -757,56zm70 208c-205,101 -486,172 -744,289 -199,91 -379,234 -526,292 -125,49 -193,20 -243,47 -88,48 -558,215 -643,437 350,-88 701,-176 1051,-265 93,5 185,9 278,14 57,-80 115,-159 172,-239 95,3 190,5 284,7 124,-194 247,-388 371,-582zm-979 -582c-170,79 -233,90 -347,144 -120,56 -110,-23 -231,32 -460,210 -1469,842 -1922,1067 377,-66 754,-132 1131,-198 128,26 255,53 383,79 -6,-57 -74,-152 -80,-210 144,-43 276,-73 424,-48 194,-328 428,-577 642,-866zm1445 -873c-234,152 -444,178 -678,330 73,58 -65,175 -82,282 141,-80 318,-165 393,-215 52,1 190,2 243,3 9,-103 115,-298 124,-400zm-640 -474c-373,78 -645,308 -1185,321 -161,4 -263,-135 -481,15 -131,90 -324,228 -436,353 -75,84 -63,148 -160,243 -327,318 -757,679 -984,957 280,-106 467,-184 747,-290 119,7 374,-50 493,-44 62,-101 81,-166 143,-268 319,-114 639,-229 959,-344 301,-314 602,-629 904,-943z" style="fill:#aec2d2"/>
  <path class="NecklaceTornShirtBlue-Mediumfil1 NecklaceTornShirtBlue-Mediumstr1" d="M13682 18647c658,0 2106,-245 1878,-1292 1232,-64 1965,547 2452,984 40,498 -620,1484 -1420,1443 419,783 542,2091 542,2091 -868,673 -2173,928 -3452,928 -1280,0 -2584,-255 -3452,-928 0,0 123,-1308 542,-2091 -800,41 -1460,-945 -1420,-1443 487,-437 1220,-1048 2452,-984 -228,1047 1220,1292 1878,1292z" style="fill:#3fba0e"/>
  <path class="NecklaceTornShirtBlue-Mediumfil2" d="M13995 22796c-104,3 -209,5 -313,5 -1280,0 -2584,-255 -3452,-928 0,0 123,-1308 542,-2091l351 -665c0,0 -905,2070 83,2793 985,721 2779,885 2789,886z" style="fill:#357aa0"/>
  <g>
   <path class="NecklaceTornShirtBlue-Mediumfil3" d="M13413 18948c-171,141 -496,392 -769,545 -180,102 -347,162 -460,134 -106,27 -194,57 -265,84 -74,29 -129,56 -161,72 -50,26 -110,6 -135,-43 -11,-22 -13,-46 -8,-68 31,-160 218,-314 412,-472l9 -8c11,-9 23,-15 36,-19l0 0c47,-13 97,-23 149,-34 140,-29 302,-62 455,-169 204,-143 446,-172 612,-192 34,-4 29,-3 49,-6 54,-7 104,32 111,86 5,36 -10,69 -35,90zm-64 -77c-277,229 -967,753 -1160,652 -247,60 -410,138 -477,171 22,-127 203,-274 387,-425 175,-49 406,-58 634,-218 203,-142 461,-160 616,-180zm2478 2375c-42,89 -123,265 -164,356 163,46 282,69 284,184 -130,-13 -477,85 -607,71 -56,106 -113,211 -169,317 -27,-24 -28,-108 -56,-131 -187,8 -401,77 -588,86 209,-147 658,-582 898,-748 7,75 -49,109 -19,182 147,-99 287,-237 421,-317zm-308 -702c97,46 328,-90 367,-119 -3,47 -86,288 -90,335 -114,-24 -560,-16 -757,56 17,-50 351,-288 480,-272zm-410 480c-205,101 -486,172 -744,289 -199,91 -379,234 -526,292 -125,49 -193,20 -243,47 -88,48 -558,215 -643,437 350,-88 701,-176 1051,-265 93,5 185,9 278,14 57,-80 115,-159 172,-239 95,3 190,5 284,7 124,-194 247,-388 371,-582zm-1965 542c-6,-57 -74,-152 -80,-210 144,-43 276,-73 424,-48 194,-328 428,-577 642,-866 -170,79 -233,90 -347,144 -120,56 -110,-23 -231,32 -460,210 -1469,842 -1922,1067 377,-66 754,-132 1131,-198 128,26 255,53 383,79zm1753 -1667c73,58 -65,175 -82,282 141,-80 318,-165 393,-215 52,1 190,2 243,3 9,-103 115,-298 124,-400 -234,152 -444,178 -678,330zm-866 139c301,-314 602,-629 904,-943 -373,78 -645,308 -1185,321 -161,4 -263,-135 -481,15 -131,90 -324,228 -436,353 -75,84 -63,148 -160,243 -327,318 -757,679 -984,957 280,-106 467,-184 747,-290 119,7 374,-50 493,-44 62,-101 81,-166 143,-268 319,-114 639,-229 959,-344zm443 2006c95,-67 245,-199 400,-335 178,-157 364,-320 495,-410 45,-31 107,-20 138,26 6,8 10,17 13,26l22 -17c78,-65 155,-127 233,-174 48,-28 109,-13 137,34 18,30 18,64 5,93l0 0c-42,91 -63,136 -82,178 -10,22 -21,46 -33,73 145,43 241,91 245,246 1,55 -42,101 -97,102 -4,0 -9,0 -12,-1l0 1c-51,-6 -164,14 -277,34 -93,17 -187,33 -261,37l-141 264c-26,48 -86,67 -135,41 -7,-4 -13,-8 -19,-13l0 0c-32,-28 -44,-64 -54,-101 -67,8 -139,22 -211,36 -104,20 -207,39 -309,44 -55,3 -101,-40 -104,-95 -2,-37 17,-70 47,-89zm504 -1307c52,-57 158,-141 263,-200 103,-58 213,-101 290,-91 11,1 21,4 30,8l0 0c9,4 38,-2 73,-14 84,-27 172,-80 194,-96 45,-32 107,-22 139,23 14,20 20,43 18,66l1 0c-3,34 -26,111 -49,188 -20,67 -40,134 -41,146 -4,55 -52,97 -107,92 -6,0 -12,-1 -18,-2 -60,-11 -215,-13 -375,-2 -124,10 -247,27 -323,54 -51,19 -109,-8 -127,-59 -15,-42 -1,-87 32,-113zm-261 334c127,-45 248,-87 348,-136l0 0c30,-15 67,-14 97,5 47,30 60,91 31,137l-369 580c-17,30 -50,49 -87,49l-233 -6 -139 192c-18,29 -51,47 -88,45l-262 -12 -1038 261 0 0c-20,4 -40,4 -60,-4 -52,-20 -77,-78 -57,-129 85,-221 440,-378 617,-456 34,-15 61,-27 72,-33 41,-22 76,-24 120,-26 33,-2 77,-4 134,-26 64,-26 143,-74 229,-127 89,-55 185,-114 291,-162 132,-60 266,-107 394,-152zm-829 -636c52,-20 110,-42 200,-84l0 0c32,-14 71,-12 101,11 45,33 54,95 21,139 -69,94 -145,188 -221,283 -143,179 -286,358 -411,569 -19,38 -62,61 -107,54 -63,-11 -123,-10 -183,-2 -30,4 -60,11 -92,18 22,44 43,88 48,132l-1 0c2,10 1,21 -1,31 -11,54 -64,89 -118,78l-364 -75 -1113 195 0 0c-43,7 -87,-14 -107,-54 -24,-50 -4,-110 45,-134 200,-99 514,-281 839,-470 404,-235 827,-480 1087,-599 91,-41 134,-32 178,-22 11,2 23,5 52,-9 57,-27 100,-43 147,-61zm1311 -793c107,-43 213,-86 322,-157l0 0c18,-12 40,-18 63,-15 55,4 95,53 90,108 -6,65 -37,146 -68,227 -26,68 -53,136 -56,173 -5,51 -49,92 -101,90 -27,0 -74,0 -120,-1 -34,0 -67,0 -93,-1 -46,28 -110,61 -180,98 -61,32 -127,66 -191,102 -19,12 -43,17 -66,13 -55,-9 -92,-60 -83,-114 10,-61 40,-113 69,-162 14,-23 75,-6 50,-25l1 0c-9,-7 -16,-15 -22,-24 -30,-46 -17,-108 29,-138 125,-82 241,-128 356,-174zm-694 -508c133,-54 262,-106 409,-137l0 0c31,-6 65,2 90,26 39,38 41,101 2,141l-903 944 -1 -1c-10,11 -23,20 -38,25l-925 332c-19,34 -34,65 -49,96 -21,43 -42,86 -74,140 -18,32 -53,52 -92,50 -50,-3 -139,9 -228,21 -88,12 -176,24 -243,23 -121,46 -237,92 -354,138 -111,44 -221,88 -375,146l0 0c-32,12 -69,7 -98,-16 -42,-35 -49,-98 -14,-141 156,-192 401,-417 644,-641 121,-111 242,-222 347,-325 41,-39 57,-74 74,-108 19,-41 38,-81 82,-130 61,-68 142,-138 224,-202 77,-60 161,-119 230,-166 185,-128 302,-92 419,-55 39,12 78,24 115,23 321,-8 546,-98 758,-183z" style="fill:#157783"/>
  </g>
  <path class="NecklaceTornShirtBlue-Mediumfil4" d="M13349 18871c-51,43 -117,95 -192,153 -83,30 -171,74 -263,139 -222,156 -446,165 -617,212 -91,75 -200,142 -288,205 -137,46 -230,91 -277,114 22,-127 203,-274 387,-425 175,-49 406,-58 634,-218 203,-142 461,-160 616,-180zm1178 3258c209,-147 658,-582 898,-748 7,75 -49,109 -19,182 147,-99 287,-237 421,-317l-19 40c-117,89 -193,296 -328,387 -494,129 -191,291 -594,400 -121,23 -245,50 -359,56zm512 -1313c17,-50 351,-288 480,-272 97,46 328,-90 367,-119 -1,11 -6,32 -13,58 -63,40 -257,146 -342,106 -95,-12 -306,118 -409,203 -30,7 -58,15 -83,24zm70 208c-205,101 -486,172 -744,289 -199,91 -379,234 -526,292 -125,49 -193,20 -243,47 -88,48 -558,215 -643,437l94 -24c118,-197 657,-288 739,-333 49,-26 114,3 236,-45 143,-57 319,-196 512,-284 223,-102 364,-220 533,-314l42 -65zm-979 -582c-170,79 -233,90 -347,144 -120,56 -110,-23 -231,32 -460,210 -1469,842 -1922,1067l222 -39c480,-242 1377,-710 1792,-900 118,-53 108,24 225,-31 48,-22 82,-54 118,-88 48,-61 96,-122 143,-185zm1445 -873c-234,152 -444,178 -678,330 73,58 -65,175 -82,282 45,-26 93,-52 141,-77 38,-31 63,-57 29,-83 182,-118 349,-158 525,-245 30,-77 60,-154 65,-207zm-640 -474c-373,78 -645,308 -1185,321 -161,4 -263,-135 -481,15 -131,90 -324,228 -436,353 -75,84 -63,148 -160,243 -327,318 -757,679 -984,957 82,-31 157,-60 227,-87 244,-238 628,-494 899,-759 95,-92 83,-154 156,-236 109,-122 303,-156 431,-244 211,-146 258,-63 414,-67 448,-11 702,-248 992,-364l127 -132z" style="fill:#3163b3"/>
  <path class="NecklaceTornShirtBlue-Mediumfil1" d="M13349 18871c-277,229 -967,753 -1160,652 -247,60 -410,138 -477,171 22,-127 203,-274 387,-425 175,-49 406,-58 634,-218 203,-142 461,-160 616,-180zm1178 3258c209,-147 658,-582 898,-748 7,75 -49,109 -19,182 147,-99 287,-237 421,-317 -42,89 -123,265 -164,356 163,46 282,69 284,184 -130,-13 -477,85 -607,71 -56,106 -113,211 -169,317 -27,-24 -28,-108 -56,-131 -187,8 -401,77 -588,86zm512 -1313c17,-50 351,-288 480,-272 97,46 328,-90 367,-119 -3,47 -86,288 -90,335 -114,-24 -560,-16 -757,56zm70 208c-205,101 -486,172 -744,289 -199,91 -379,234 -526,292 -125,49 -193,20 -243,47 -88,48 -558,215 -643,437 350,-88 701,-176 1051,-265 93,5 185,9 278,14 57,-80 115,-159 172,-239 95,3 190,5 284,7 124,-194 247,-388 371,-582zm-979 -582c-170,79 -233,90 -347,144 -120,56 -110,-23 -231,32 -460,210 -1469,842 -1922,1067 377,-66 754,-132 1131,-198 128,26 255,53 383,79 -6,-57 -74,-152 -80,-210 144,-43 276,-73 424,-48 194,-328 428,-577 642,-866zm1445 -873c-234,152 -444,178 -678,330 73,58 -65,175 -82,282 141,-80 318,-165 393,-215 52,1 190,2 243,3 9,-103 115,-298 124,-400zm-640 -474c-373,78 -645,308 -1185,321 -161,4 -263,-135 -481,15 -131,90 -324,228 -436,353 -75,84 -63,148 -160,243 -327,318 -757,679 -984,957 280,-106 467,-184 747,-290 119,7 374,-50 493,-44 62,-101 81,-166 143,-268 319,-114 639,-229 959,-344 301,-314 602,-629 904,-943z" style="fill:#b90348"/>
  <path class="NecklaceTornShirtBlue-Mediumfil5" d="M16220 19111c23,-20 175,164 294,352 72,116 129,253 145,286 18,37 3,82 -34,100 -37,18 -82,3 -100,-34 -19,-38 -69,-180 -129,-303 -92,-191 -198,-380 -176,-401z" style="fill:#d4c609"/>
  <path class="NecklaceTornShirtBlue-Mediumfil6" d="M17857 18910c-387,494 -1164,789 -1616,207 -137,-105 262,486 398,758 -15,-31 -31,-63 -47,-93 547,28 1028,-424 1265,-872z" style="fill:#e74cf7"/>
  <path class="NecklaceTornShirtBlue-Mediumfil5" d="M11144 19111c-23,-20 -175,164 -294,352 -72,116 -129,253 -146,286 -18,37 -2,82 35,100 37,18 82,3 100,-34 18,-38 69,-180 128,-303 93,-191 199,-380 177,-401z" style="fill:#3fd56f"/>
  <path class="NecklaceTornShirtBlue-Mediumfil6" d="M9506 18910c388,494 1164,789 1617,207 136,-105 -262,486 -399,758 16,-31 32,-63 48,-93 -547,28 -1028,-424 -1266,-872z" style="fill:#113841"/>
 </g><g id="Ears-Fox11">
 <animateTransform additive="sum" attributeName="transform" dur="10" repeatCount="indefinite" type="translate" values="0;0 200;0;0 200;0;0 200;0;0 200;0"/>
  <metadata id="CorelCorpID_73Corel-Layer"/>
  <path class="Ears-Fox11fil124" d="M6921 4667c-525,-549 -2048,5650 1002,9027 1042,-1738 3124,-3564 4497,-3843 -1362,-2890 -3933,-3546 -5499,-5184z" style="fill:#cc0601"/>
  <path class="Ears-Fox11fil125" d="M6921 4667c-227,-238 -649,888 -723,1905 104,702 502,804 713,851 -177,-728 563,-546 1153,-225 -235,-654 121,-1028 577,-707 -28,-290 -136,-518 -405,-759 -362,-247 -815,-542 -1315,-1065z" style="fill:#554188"/>
  <path class="Ears-Fox11fil126" d="M6230 6228c-26,906 130,1907 726,2633 -218,-84 -340,-25 -536,-154 6,791 634,1163 874,1821 -204,-120 -344,-10 -536,-119 225,943 978,1201 1380,1901 -256,309 -352,586 -608,894 -1662,-2599 -1568,-5005 -1300,-6976z" style="fill:#7afa02"/>
  <path class="Ears-Fox11fil0 Ears-Fox11str1" d="M6921 4667c-525,-549 -2048,5650 1002,9027 1042,-1738 3124,-3564 4497,-3843 -1362,-2890 -3933,-3546 -5499,-5184z" style="fill:#2baa52"/>
  <path class="Ears-Fox11fil127" d="M20443 4667c525,-549 2048,5650 -1002,9027 -1042,-1738 -3124,-3564 -4497,-3843 1362,-2890 3933,-3546 5499,-5184z" style="fill:#7429fc"/>
  <path class="Ears-Fox11fil128" d="M20443 4667c227,-238 649,888 723,1905 -105,702 -502,804 -713,851 177,-728 -563,-546 -1153,-225 234,-654 -122,-1028 -577,-707 28,-290 136,-518 405,-759 362,-247 815,-542 1315,-1065z" style="fill:#094682"/>
  <path class="Ears-Fox11fil129" d="M21134 6228c25,906 -130,1907 -726,2633 218,-84 340,-25 536,-154 -6,791 -634,1163 -874,1821 203,-120 344,-10 536,-119 -225,943 -978,1201 -1380,1901 256,309 352,586 608,894 1662,-2599 1568,-5005 1300,-6976z" style="fill:#eef80c"/>
  <path class="Ears-Fox11fil0 Ears-Fox11str1" d="M20443 4667c525,-549 2048,5650 -1002,9027 -1042,-1738 -3124,-3564 -4497,-3843 1362,-2890 3933,-3546 5499,-5184z" style="fill:#6feb67"/>
 </g><g id="Head-Fox7">
 <animateTransform additive="sum" attributeName="transform" dur="10" repeatCount="indefinite" type="translate" values="0;0 200;0;0 200;0;0 200;0;0 200;0"/>
  <metadata id="CorelCorpID_81Corel-Layer"/>
  <path class="Head-Fox7fil139" d="M13682 7385c-1186,0 -2352,460 -3346,1200 -2252,1676 -3414,4752 -3177,7677 1371,-367 2823,1083 4156,1301 782,129 1591,192 2367,192 775,0 1584,-63 2367,-192 1332,-218 2784,-1668 4156,-1301 237,-2925 -925,-6001 -3178,-7677 -993,-740 -2159,-1200 -3345,-1200z" style="fill:#26ea76"/>
  <path class="Head-Fox7fil12" d="M11315 17563c783,129 1591,192 2367,192 775,0 1584,-63 2367,-192 1523,-380 3020,-1692 4124,-1308 -600,-1106 -1595,-1427 -2717,-1504 853,-222 1845,-1431 1416,-2681 -559,-1628 -2260,-2401 -3758,-1442 -336,-38 -593,-1872 -1432,-1872 -839,0 -1096,1834 -1433,1872 -1497,-959 -3198,-186 -3757,1442 -429,1250 563,2459 1415,2681 -1121,77 -2117,398 -2716,1504 1104,-384 2601,928 4124,1308z" style="fill:#26e4dd"/>
  <path class="Head-Fox7fil8" d="M7767 12074c-508,1314 -723,2769 -608,4188 723,-193 1469,118 2207,488 -603,-481 -1174,-926 -1428,-1482 -358,-787 -459,-1264 -171,-3194z" style="fill:#d75a3e"/>
  <path class="Head-Fox7fil18" d="M13682 7460c-545,0 -1085,98 -1606,277 -299,103 -1034,406 -1670,796 393,-448 1433,-872 1622,-937 536,-185 1093,-286 1654,-286l0 150z" style="fill:#314d9c"/>
  <path class="Head-Fox7fil18" d="M8093 11334c-392,855 -664,2086 -730,2442 -145,786 -193,1594 -136,2393 826,-177 1666,251 2490,676 567,292 1632,757 2718,857 -1169,-14 -2097,-373 -2786,-724 -829,-423 -1670,-857 -2469,-644 -5,2 -10,3 -15,3 -41,3 -77,-28 -81,-69 -68,-839 -21,-1691 132,-2519 46,-247 334,-1652 877,-2415z" style="fill:#28e28c"/>
  <path class="Head-Fox7fil18" d="M13682 7460c544,0 1085,98 1605,277 299,103 1035,406 1670,796 -392,-448 -1432,-872 -1621,-937 -536,-185 -1093,-286 -1654,-286l0 150z" style="fill:#f03a21"/>
  <path class="Head-Fox7fil18" d="M19271 11334c391,855 663,2086 729,2442 146,786 194,1594 137,2393 -826,-177 -1666,251 -2490,676 -567,292 -1633,757 -2719,857 1170,-14 2097,-373 2787,-724 829,-423 1670,-857 2468,-644 5,2 11,3 16,3 41,3 77,-28 81,-69 67,-839 21,-1691 -132,-2519 -46,-247 -334,-1652 -877,-2415z" style="fill:#bd8510"/>
 </g><g id="Mouth-Fox4">
 <animateTransform additive="sum" attributeName="transform" dur="10" repeatCount="indefinite" type="translate" values="0;0 200;0;0 200;0;0 200;0;0 200;0"/>
  <metadata id="CorelCorpID_86Corel-Layer"/>
  <path class="Mouth-Fox4fil0 Mouth-Fox4str0" d="M12162 15279c668,535 1494,2 1520,-947" style="fill:#fd6a42"/>
  <path class="Mouth-Fox4fil0 Mouth-Fox4str0" d="M15202 15279c-668,535 -1494,2 -1520,-947" style="fill:#6dd9b2"/>
  <path class="Mouth-Fox4fil8" d="M12299 15432c464,462 892,93 1383,93 491,0 919,369 1382,-93 -562,240 -1049,-225 -1382,-139 -333,-86 -820,379 -1383,139z" style="fill:#94092e"/>
  <path class="Mouth-Fox4fil2" d="M13682 15293c176,0 410,94 503,143 -187,-227 -385,-555 -503,-776 -118,221 -317,549 -504,776 94,-49 328,-143 504,-143z" style="fill:#cb0092"/>
  <path class="Mouth-Fox4fil142 Mouth-Fox4str1" d="M12742 15496c17,127 221,442 303,424 81,-11 237,-396 244,-597 -146,93 -358,169 -547,173z" style="fill:#ce65e9"/>
  <path class="Mouth-Fox4fil142 Mouth-Fox4str1" d="M14622 15496c-17,127 -221,442 -304,424 -80,-11 -236,-396 -243,-597 146,93 358,169 547,173z" style="fill:#57f673"/>
 </g><g id="WeaponFlySwatter-Medium">
 <animateTransform additive="sum" attributeName="transform" dur="10" repeatCount="indefinite" type="translate" values="0;0 200;0;0 200;0;0 200;0;0 200;0"/>
  <metadata id="CorelCorpID_1Corel-Layer"/>
  <g id="_2367108401984">
   <path class="WeaponFlySwatter-Mediumfil2 WeaponFlySwatter-Mediumstr0" d="M12021 22875c-60,107 -120,214 -181,320 -796,-449 -1593,-899 -2390,-1348 -25,-155 36,-261 180,-320 797,449 1594,899 2391,1348z" style="fill:#fbc2d0"/>
   <path class="WeaponFlySwatter-Mediumfil3" d="M11911 23070l-71 125c-796,-449 -1593,-899 -2390,-1348 -13,-83 -2,-151 33,-206l2428 1429z" style="fill:#c8a3f5"/>
   <path class="WeaponFlySwatter-Mediumfil4" d="M15132 23138c18,9 34,17 47,25 244,135 344,347 329,601 -14,234 -129,505 -322,782 -47,68 -98,134 -152,200 -54,66 -110,129 -168,190 -241,251 -505,440 -763,538 -282,107 -559,110 -802,-25 -14,-8 -29,-17 -45,-28l-1620 -1038c-225,-145 -316,-292 -255,-521 53,-198 230,-454 546,-840 316,-385 540,-615 743,-729 237,-133 437,-118 684,-1l1778 846zm-2015 -717l-36 45 194 108 52 -64 -94 -44c-41,-20 -79,-34 -116,-45zm341 152l-57 70 194 108 67 -81 -204 -97zm335 159l-72 89 194 107 81 -99 -203 -97zm335 160l-88 106 195 108 96 -118 -203 -96zm335 159l-103 124 195 108 111 -135 -203 -97zm334 159l-117 143 194 108 127 -154 -204 -97zm324 173l-121 147 194 108 49 -60c-20,-76 -60,-142 -122,-195zm131 432l-14 -8 -130 158 91 50c25,-69 43,-136 53,-200zm-103 318l-123 -68 -129 158 157 87c36,-60 68,-119 95,-177zm-164 284l-170 -95 -130 158 180 100c37,-47 71,-93 103,-138 6,-8 12,-17 17,-25zm-201 262l-181 -100 -129 158 170 95c8,-8 15,-15 23,-23 39,-41 78,-84 117,-130zm-235 245l-157 -87 -130 158 123 68c55,-42 110,-89 164,-139zm-278 220l-91 -50 -129 158 13 8c69,-31 138,-70 207,-116zm-477 198l49 -60 -194 -108 -121 148c83,27 173,33 266,20zm-397 -84l127 -153 -195 -108 -117 143 185 118zm-305 -195l112 -136 -195 -108 -102 125 185 119zm-305 -196l97 -117 -194 -108 -88 106 185 119zm-305 -195l82 -100 -194 -107 -73 88 185 119zm-305 -196l67 -81 -194 -108 -58 70 185 119zm-304 -195l51 -63 -194 -108 -36 44c25,24 56,48 93,72l86 55zm-248 -374l61 34 130 -158 -109 -61c-40,70 -67,131 -82,185zm149 -293l124 69 129 -158 -136 -76c-45,60 -84,115 -117,165zm194 -266l141 78 130 -158 -143 -80c-46,56 -89,110 -128,160zm209 -259l144 79 130 -158 -141 -78c-42,49 -86,101 -133,157zm218 -254l137 76 130 -158 -124 -69c-45,45 -92,95 -143,151zm240 -242l109 61 130 -158 -61 -34c-55,31 -114,75 -178,131zm1843 1917l-194 -108 -130 158 194 108 130 -158zm-320 -178l-194 -107 -130 158 194 107 130 -158zm-320 -177l-194 -108 -130 158 194 108 130 -158zm-320 -177l-194 -108 -130 158 195 107 129 -157zm-319 -178l-195 -108 -130 158 195 108 130 -158zm-320 -177l-195 -108 -129 158 194 108 130 -158zm-320 -178l-194 -107 -130 157 194 108 130 -158zm-113 -207l195 108 129 -158 -194 -108 -130 158zm320 177l194 108 130 -158 -194 -107 -130 157zm320 178l194 108 130 -158 -194 -108 -130 158zm320 177l194 108 130 -158 -194 -108 -130 158zm320 178l194 107 130 -157 -195 -108 -129 158zm320 177l194 108 130 -158 -195 -108 -129 158zm319 178l195 107 129 -158 -194 -107 -130 158zm-1707 -1322l194 107 130 -158 -194 -107 -130 158zm320 177l194 108 130 -158 -195 -108 -129 158zm320 177l194 108 130 -158 -195 -107 -129 157zm319 178l195 108 129 -158 -194 -108 -130 158zm320 177l194 108 130 -158 -194 -108 -130 158zm320 178l194 107 130 -157 -194 -108 -130 158zm320 177l194 108 130 -158 -194 -108 -130 158zm-1708 -1322l195 108 129 -158 -194 -108 -130 158zm320 178l194 107 130 -158 -194 -107 -130 158zm320 177l194 108 130 -158 -194 -108 -130 158zm320 177l194 108 130 -158 -194 -107 -130 157zm320 178l194 108 130 -158 -195 -108 -129 158zm320 177l194 108 130 -158 -195 -108 -129 158zm319 178l195 107 129 -157 -194 -108 -130 158zm-2635 -193l-130 158 195 108 129 -158 -194 -108zm320 177l-130 158 194 108 130 -158 -194 -108zm320 178l-130 158 194 107 130 -157 -194 -108zm320 177l-130 158 194 108 130 -158 -194 -108zm319 178l-129 158 194 107 130 -158 -195 -107zm320 177l-129 158 194 108 130 -158 -195 -108zm320 177l-130 158 195 108 129 -158 -194 -108zm-2130 -807l-130 158 194 108 130 -158 -194 -108zm319 178l-129 158 194 107 130 -157 -195 -108zm320 177l-130 158 195 108 129 -158 -194 -108zm320 178l-130 158 195 107 129 -158 -194 -107zm320 177l-130 158 194 108 130 -158 -194 -108zm320 177l-130 158 194 108 130 -158 -194 -108zm320 178l-130 158 194 108 130 -158 -194 -108z" style="fill:#73bcf0"/>
   <path class="WeaponFlySwatter-Mediumfil1" d="M14481 25269c-125,88 -252,157 -378,205 -282,107 -559,110 -802,-25 -14,-8 -29,-17 -45,-28l-1620 -1038c-225,-145 -316,-292 -255,-521 53,-198 230,-454 546,-840 316,-385 540,-615 743,-729 237,-133 437,-118 684,-1l44 21c-232,65 -436,163 -608,285l84 -102 -61 -34c-55,31 -114,75 -178,131l92 51c-37,28 -71,57 -105,87l-84 -47c-45,45 -92,95 -143,151l81 45c-29,32 -56,65 -81,100l-85 -48c-42,49 -86,101 -133,157l107 59c-21,37 -40,75 -58,113l-130 -73c-46,56 -89,110 -128,160l141 78 94 -115c-48,113 -81,229 -100,345l-80 97 65 36c-1,13 -2,26 -2,39 -2,36 1,73 9,109l-153 -85 -130 158 194 108 103 -125c15,48 36,97 64,144l-41 51 123 68c114,144 280,282 473,408l-38 -22 -88 106 185 119 92 -111c41,23 83,46 126,69l-98 119 185 119 112 -136 -54 -30c254,122 524,220 774,285l1 1 0 -1c52,14 104,26 154,36l-28 34 13 8c22,-10 43,-20 64,-32 129,25 248,39 353,41zm-687 73l49 -60 -194 -108 -121 148c83,27 173,33 266,20zm-397 -84l127 -153 -195 -108 -117 143 185 118zm-915 -586l82 -100 -194 -107 -73 88 185 119zm-305 -196l67 -81 -194 -108 -58 70 185 119zm-304 -195l51 -63 -194 -108 -36 44c25,24 56,48 93,72l86 55zm-248 -374l61 34 130 -158 -109 -61c-40,70 -67,131 -82,185zm149 -293l124 69 129 -158 -136 -76c-45,60 -84,115 -117,165z" style="fill:#60131d"/>
   <path class="WeaponFlySwatter-Mediumfil5 WeaponFlySwatter-Mediumstr1" d="M15132 23138c18,9 34,17 47,25 244,135 344,347 329,601 -14,234 -129,505 -322,782 -47,68 -98,134 -152,200 -54,66 -110,129 -168,190 -241,251 -505,440 -763,538 -282,107 -559,110 -802,-25 -14,-8 -29,-17 -45,-28l-1620 -1038c-225,-145 -316,-292 -255,-521 53,-198 230,-454 546,-840 316,-385 540,-615 743,-729 237,-133 437,-118 684,-1l1778 846z" style="fill:#c50a48"/>
  </g>
 </g><g id="Eyes-Fox9">
 <animateTransform additive="sum" attributeName="transform" dur="10" repeatCount="indefinite" type="translate" values="0;0 200;0;0 200;0;0 200;0;0 200;0"/>
  <metadata id="CorelCorpID_102Corel-Layer"/>
  <path class="Eyes-Fox9fil150" d="M10650 10702c54,132 487,302 890,674 370,341 569,759 764,758 218,-1 303,-450 207,-710 -79,-214 -457,-588 -929,-766 -559,-211 -998,-115 -932,44z"/>
  <path class="Eyes-Fox9fil4" d="M10650 10702c54,132 487,302 890,674 370,341 569,759 764,758 218,-1 303,-450 207,-710 -79,-214 -457,-588 -929,-766 -559,-211 -998,-115 -932,44z"/>
  <path class="Eyes-Fox9fil200" d="M9478 14753c1296,480 2933,-440 2775,-1205 -547,-1536 -2521,-2475 -3016,-2081 -1278,1015 -957,2842 241,3286z"/>
  <path class="Eyes-Fox9fil201" d="M12055 13147c-280,-620 -1276,-1464 -1976,-1662 -259,55 -530,276 -644,495 -446,865 10,1858 470,2181 557,391 1214,308 1588,36 313,-227 549,-709 562,-1050z"/>
  <path class="Eyes-Fox9fil202" d="M11318 12239c-317,-282 -682,-530 -1011,-672 -229,328 -286,923 -207,1504 104,773 468,1113 684,1107 215,-6 621,-718 584,-1491 -7,-153 -24,-305 -50,-448z"/>
  <circle class="Eyes-Fox9fil142" r="235" transform="matrix(0.686977 0.523683 -0.42619 0.668712 9090.61 14075.6)"/>
  <circle class="Eyes-Fox9fil142" r="235" transform="matrix(0.252399 0.323889 -0.276862 0.255805 8856.66 13738.4)"/>
  <path class="Eyes-Fox9fil4" d="M11701 14452c93,-63 178,-130 252,-201 90,-127 180,-272 282,-421 29,-94 37,-189 18,-282 -547,-1536 -2521,-2475 -3016,-2081 -416,331 -663,748 -765,1175 686,-601 1356,-601 1814,-528 872,139 1658,1160 1415,2338z"/>
  <circle class="Eyes-Fox9fil142" r="235" transform="matrix(0.127023 2.18149 -1.98577 0.284037 9536.73 12437.1)"/>
  <path class="Eyes-Fox9fil0 Eyes-Fox9str1" d="M9478 14753c1296,480 2973,-450 2775,-1205 -402,-1526 -2521,-2475 -3016,-2081 -1278,1015 -957,2842 241,3286z"/>
  <path class="Eyes-Fox9fil150" d="M16714 10702c-54,132 -487,302 -890,674 -371,341 -569,759 -765,758 -217,-1 -302,-450 -206,-710 79,-214 457,-588 929,-766 559,-211 998,-115 932,44z"/>
  <path class="Eyes-Fox9fil4" d="M16714 10702c-54,132 -487,302 -890,674 -371,341 -569,759 -765,758 -217,-1 -302,-450 -206,-710 79,-214 457,-588 929,-766 559,-211 998,-115 932,44z"/>
  <path class="Eyes-Fox9fil203" d="M17885 14753c-1295,480 -2932,-440 -2774,-1205 547,-1536 2521,-2475 3016,-2081 1278,1015 957,2842 -242,3286z"/>
  <path class="Eyes-Fox9fil204" d="M15309 13147c280,-620 1276,-1464 1976,-1662 259,55 530,276 643,495 447,865 -9,1858 -469,2181 -558,391 -1214,308 -1588,36 -313,-227 -549,-709 -562,-1050z"/>
  <path class="Eyes-Fox9fil205" d="M16046 12239c317,-282 682,-530 1011,-672 229,328 286,923 207,1504 -104,773 -468,1113 -684,1107 -215,-6 -622,-718 -584,-1491 7,-153 24,-305 50,-448z"/>
  <circle class="Eyes-Fox9fil142" r="235" transform="matrix(-0.686977 0.523683 0.42619 0.668712 18273.2 14075.6)"/>
  <circle class="Eyes-Fox9fil142" r="235" transform="matrix(-0.252399 0.323889 0.276862 0.255805 18507.2 13738.4)"/>
  <path class="Eyes-Fox9fil4" d="M15663 14452c-94,-63 -178,-130 -252,-201 -90,-127 -180,-272 -282,-421 -30,-94 -37,-189 -18,-282 547,-1536 2521,-2475 3016,-2081 416,331 663,748 764,1175 -685,-601 -1356,-601 -1813,-528 -872,139 -1658,1160 -1415,2338z"/>
  <circle class="Eyes-Fox9fil142" r="235" transform="matrix(-0.127023 2.18149 1.98577 0.284037 17827.1 12437.1)"/>
  <path class="Eyes-Fox9fil0 Eyes-Fox9str1" d="M17885 14753c-1295,480 -2972,-450 -2774,-1205 402,-1526 2521,-2475 3016,-2081 1278,1015 957,2842 -242,3286z"/>
 </g><g id="Moustache-Fox3">
 <animateTransform additive="sum" attributeName="transform" dur="10" repeatCount="indefinite" type="translate" values="0;0 200;0;0 200;0;0 200;0;0 200;0"/>
  <metadata id="CorelCorpID_106Corel-Layer"/>
  <path class="Moustache-Fox3fil206" d="M12569 14544c12,-45 54,-72 94,-61 40,10 63,55 51,100 -24,91 -67,214 -165,327 -27,-134 -4,-274 20,-366zm2226 0c-12,-45 -54,-72 -94,-61 -40,10 -63,55 -51,100 24,91 67,214 165,327 26,-134 4,-274 -20,-366zm-207 -421c-7,-46 -45,-79 -86,-73 -41,6 -69,48 -63,94 13,93 41,220 124,344 43,-129 38,-271 25,-365zm340 28c-14,-44 -58,-70 -97,-57 -40,13 -60,59 -46,103 30,90 79,210 183,318 19,-135 -11,-275 -40,-364zm268 423c-19,-42 -65,-63 -103,-46 -38,17 -53,65 -35,107 39,87 100,201 215,298 5,-137 -39,-272 -77,-359zm-1514 2533l0 0c60,-123 75,-264 75,-359 0,-46 -34,-84 -75,-84 -41,0 -75,38 -75,84 0,95 15,236 75,359l0 0zm262 93c0,-47 -34,-84 -75,-84 -42,0 -75,37 -75,84 0,94 9,224 75,358 60,-122 75,-264 75,-358zm462 -61c-6,-46 -45,-78 -86,-73 -41,6 -69,48 -63,93 13,94 40,221 123,346 43,-130 39,-272 26,-366zm-230 -416c0,-46 -34,-84 -75,-84 -42,0 -75,38 -75,84 0,94 9,224 75,358 60,-122 75,-264 75,-358zm683 381c-8,-46 -48,-77 -89,-70 -40,7 -67,50 -59,96 17,93 48,219 136,340 38,-131 28,-273 12,-366zm-276 -436c-6,-46 -44,-79 -85,-73 -41,5 -69,47 -63,93 13,94 40,221 123,345 43,-130 38,-272 25,-365zm714 313c-14,-44 -58,-70 -97,-58 -40,13 -60,59 -46,103 28,90 76,211 179,319 20,-135 -8,-274 -36,-364zm-304 -402c-8,-46 -48,-77 -89,-70 -40,7 -67,50 -59,96 17,93 48,219 136,340 38,-131 28,-273 12,-366zm751 311c-14,-44 -57,-70 -96,-59 -40,12 -61,58 -48,102 27,91 73,212 175,322 22,-134 -4,-274 -31,-365zm-352 -494c-14,-44 -57,-70 -97,-57 -39,12 -60,58 -46,102 28,90 76,211 179,320 21,-135 -7,-275 -36,-365zm726 336c-23,-40 -70,-57 -106,-37 -37,20 -48,69 -26,109 46,83 116,192 239,279 -7,-137 -62,-268 -107,-351zm-345 -603c-17,-43 -62,-66 -100,-51 -39,15 -57,62 -40,105 35,89 91,206 201,307 11,-136 -27,-273 -61,-361zm437 197c-25,-39 -74,-53 -109,-31 -35,22 -43,72 -18,111 51,80 128,184 255,263 -14,-136 -78,-263 -128,-343zm422 140c-26,-38 -76,-50 -110,-26 -34,24 -40,74 -13,112 54,77 136,178 266,251 -20,-135 -89,-259 -143,-337zm-515 -677c-25,-39 -74,-52 -109,-29 -34,23 -41,73 -16,112 52,78 132,181 261,257 -18,-135 -84,-261 -136,-340zm446 166c-28,-38 -77,-48 -110,-23 -34,25 -38,75 -10,112 56,76 141,175 273,243 -24,-134 -97,-256 -153,-332zm478 181c-32,-34 -82,-39 -112,-10 -30,28 -29,78 3,112 64,69 160,157 300,210 -40,-130 -126,-243 -191,-312zm-690 -763c-27,-38 -76,-49 -110,-26 -34,24 -39,75 -13,112 55,78 138,178 269,249 -22,-134 -92,-258 -146,-335zm545 198c-33,-32 -83,-35 -112,-5 -29,30 -26,80 8,112 67,66 166,150 308,197 -45,-128 -136,-238 -204,-304zm500 117c-36,-30 -87,-28 -113,4 -26,32 -19,82 17,112 73,60 179,135 324,170 -56,-124 -156,-226 -228,-286zm-453 -513c-40,-23 -90,-13 -111,23 -21,36 -5,84 35,107 82,48 198,105 347,116 -75,-114 -190,-198 -271,-246zm688 18c-39,-25 -88,-18 -111,17 -23,35 -9,84 29,109 80,51 193,114 342,133 -70,-118 -180,-207 -260,-259zm-4855 -1070c7,-46 45,-79 86,-73 41,6 69,48 63,94 -13,93 -41,220 -124,344 -43,-129 -38,-271 -25,-365zm-340 28c14,-44 58,-70 97,-57 40,13 60,59 45,103 -29,90 -78,210 -182,318 -19,-135 11,-275 40,-364zm-268 423c19,-42 65,-63 103,-46 38,17 53,65 34,107 -38,87 -99,201 -214,298 -5,-137 39,-272 77,-359zm1252 2626c0,-47 34,-84 75,-84 42,0 75,37 75,84 0,94 -9,224 -75,358 -60,-122 -75,-264 -75,-358zm-462 -61c6,-46 44,-78 85,-73 42,6 70,48 63,93 -12,94 -39,221 -123,346 -43,-130 -38,-272 -25,-366zm230 -416c0,-46 34,-84 75,-84 41,0 75,38 75,84 0,94 -9,224 -75,358 -60,-122 -75,-264 -75,-358zm-683 381c8,-46 48,-77 89,-70 40,7 67,50 59,96 -17,93 -48,219 -136,340 -38,-131 -28,-273 -12,-366zm275 -436c7,-46 45,-79 86,-73 41,5 69,47 63,93 -13,94 -40,221 -123,345 -43,-130 -38,-272 -26,-365zm-713 313c14,-44 57,-70 97,-58 40,13 60,59 46,103 -28,90 -76,211 -179,319 -21,-135 8,-274 36,-364zm304 -402c8,-46 48,-77 88,-70 41,7 68,50 60,96 -17,93 -49,219 -137,340 -38,-131 -28,-273 -11,-366zm-751 311c14,-44 56,-70 96,-59 40,12 61,58 48,102 -27,91 -73,212 -175,322 -22,-134 4,-274 31,-365zm352 -494c14,-44 57,-70 97,-57 39,12 60,58 46,102 -29,90 -76,211 -179,320 -21,-135 7,-275 36,-365zm-726 336c23,-40 70,-57 106,-37 37,20 48,69 26,109 -46,83 -116,192 -239,279 7,-137 62,-268 107,-351zm345 -603c17,-43 62,-66 100,-51 39,15 56,62 40,105 -35,89 -91,206 -201,307 -11,-136 26,-273 61,-361zm-437 197c25,-39 74,-53 109,-31 35,22 43,72 18,111 -51,80 -128,184 -256,263 15,-136 79,-263 129,-343zm-422 140c26,-38 75,-50 109,-26 34,24 40,74 14,112 -54,77 -136,178 -266,251 20,-135 89,-259 143,-337zm515 -677c25,-39 74,-52 108,-29 35,23 42,73 17,112 -52,78 -132,181 -261,257 18,-135 83,-261 136,-340zm-446 166c27,-38 77,-48 110,-23 33,25 38,75 10,112 -56,76 -141,175 -273,243 24,-134 97,-256 153,-332zm-478 181c31,-34 82,-39 112,-10 30,28 29,78 -3,112 -65,69 -160,157 -300,210 40,-130 126,-243 191,-312zm690 -763c27,-38 76,-49 110,-26 34,24 39,75 13,112 -55,78 -138,178 -269,249 22,-134 91,-258 146,-335zm-545 198c33,-32 83,-35 112,-5 29,30 25,80 -8,112 -67,66 -167,150 -309,197 46,-128 137,-238 205,-304zm-500 117c36,-30 86,-28 113,4 26,32 19,82 -17,112 -73,60 -179,135 -324,170 56,-124 155,-226 228,-286zm453 -513c40,-23 90,-13 111,23 21,36 5,84 -35,107 -82,48 -198,105 -348,116 76,-114 191,-198 272,-246zm-688 18c38,-25 88,-18 111,17 22,35 9,84 -30,109 -79,51 -193,114 -341,133 70,-118 180,-207 260,-259z" style="fill:#37c3fd"/>
 </g><g id="Nose-Fox0">
 <animateTransform additive="sum" attributeName="transform" dur="10" repeatCount="indefinite" type="translate" values="0;0 200;0;0 200;0;0 200;0;0 200;0"/>
  <metadata id="CorelCorpID_111Corel-Layer"/>
  <path class="Nose-Fox0fil215 Nose-Fox0str0" d="M13682 14170c-247,0 -591,102 -564,255 24,141 250,364 564,364 314,0 540,-223 564,-364 27,-153 -317,-255 -564,-255z" style="fill:#36e081"/>
 </g><g id="Hair-Fox4">
 <animateTransform additive="sum" attributeName="transform" dur="10" repeatCount="indefinite" type="translate" values="0;0 200;0;0 200;0;0 200;0;0 200;0"/>
  <metadata id="CorelCorpID_116Corel-Layer"/>
  <path class="Hair-Fox4fil219 Hair-Fox4str0" d="M10792 5723c397,-1231 1819,-654 2094,31 0,369 358,878 358,1247 -813,252 -944,-342 -1687,-445 -462,-64 -734,-411 -765,-833zm5780 0c-397,-1231 -1819,-654 -2094,31 0,369 81,975 -456,1220 788,288 1048,-262 1651,-412 452,-113 868,-417 899,-839z" style="fill:#119d9b"/>
  <path class="Hair-Fox4fil5" d="M10792 5723c397,-1231 1819,-654 2094,31 0,369 358,878 358,1247 -813,252 -944,-342 -1687,-445 -462,-64 -734,-411 -765,-833zm5780 0c-397,-1231 -1819,-654 -2094,31 0,369 81,975 -456,1220 788,288 1048,-262 1651,-412 452,-113 868,-417 899,-839z" style="fill:#064067"/>
  <path class="Hair-Fox4fil5" d="M12778 7166c-239,-87 -527,-363 -766,-450 534,-562 -168,-1391 -1158,-1124 107,-271 215,-543 323,-814 604,107 1208,215 1812,323 -59,636 -152,1428 -211,2065z" style="fill:#aedfee"/>
  <path class="Hair-Fox4fil220" d="M16309 8122c-513,-921 -1591,-1147 -1603,-1504 -166,-219 -717,-338 -1024,-338 -307,0 -858,119 -1024,338 -12,357 -1087,593 -1601,1514 35,-17 84,-31 130,-18 471,-208 1489,-439 2495,-439 1006,0 2025,231 2496,439 37,-12 96,-9 131,8z" style="fill:#7294bd"/>
  <path class="Hair-Fox4fil18" d="M16365 8135c-15,14 -27,16 -66,37 -39,-19 -81,-38 -121,-59 -282,-444 -702,-731 -1026,-950 -2,-1 -3,-2 -5,-3 -277,-188 -488,-332 -514,-512 -67,-77 -196,-141 -343,-189 -206,-69 -444,-104 -608,-104 -165,0 -402,35 -608,104 -147,48 -276,112 -343,189 -26,181 -240,326 -519,515l0 0 0 0c-324,220 -744,505 -1026,950 -40,19 -93,45 -122,59 -36,-20 -85,0 -65,-37 297,-533 770,-853 1129,-1096l0 0c255,-172 448,-303 455,-421 0,-15 5,-31 16,-45 83,-111 245,-196 428,-257 221,-73 477,-111 655,-111 178,0 434,38 655,111 183,61 345,146 428,257l0 0c9,12 15,27 15,43 4,117 196,248 451,420 2,1 3,2 5,3 359,243 831,563 1129,1096z" style="fill:#ca91c2"/>
  <path class="Hair-Fox4fil221 Hair-Fox4str0" d="M16572 5723c40,-879 -514,-1917 -1723,-1986 -390,-730 -2004,-755 -2700,151 -934,89 -1397,956 -1357,1835 398,-804 1549,-663 1816,188 223,-267 685,-340 1074,-332 389,-8 851,65 1074,332 267,-851 1417,-992 1816,-188z" style="fill:#2cd03e"/>
  <path class="Hair-Fox4fil5" d="M13161 5065c329,-749 -85,-1401 -719,-1378 -145,34 -225,118 -365,281 693,-113 1145,561 1084,1097z" style="fill:#ab245a"/>
  <path class="Hair-Fox4fil5" d="M14746 3711c282,460 -13,1280 -347,1460 633,-33 954,-919 672,-1339 -168,-66 -222,-95 -325,-121z" style="fill:#fd6282"/>
  <path class="Hair-Fox4fil222 Hair-Fox4str0" d="M13682 5557c328,0 1010,83 1169,389 113,219 58,901 -79,824 -227,-215 -762,-320 -1090,-320 -328,0 -863,105 -1090,320 -137,77 -192,-605 -79,-824 159,-306 841,-389 1169,-389z" style="fill:#855bd8"/>
  <path class="Hair-Fox4fil4" d="M13682 5557c328,0 1010,83 1169,389 113,219 58,901 -79,824 -227,-215 -762,-320 -1090,-320 -328,0 -863,105 -1090,320 -137,77 -192,-605 -79,-824 159,-306 841,-389 1169,-389z" style="fill:#91c60c"/>
  <path class="Hair-Fox4fil5" d="M13368 6466c-252,28 -665,199 -776,304 -137,77 -192,-605 -79,-824 86,-165 436,-240 688,-297 -540,207 -508,890 167,817z" style="fill:#d043c9"/>
 </g></svg>