<svg xmlns="http://www.w3.org/2000/svg" xmlns:xlink="http://www.w3.org/1999/xlink" style="shape-rendering:geometricPrecision; text-rendering:geometricPrecision; image-rendering:optimizeQuality; fill-rule:evenodd; clip-rule:evenodd" version="1.1" viewBox="0 0 29000 29000" xml:space="preserve"><defs><style type="text/css">.BraceletLeather-Mediumfil43new {fill:white;fill-opacity:0.200000}
.BraceletLeather-Mediumfil46new {fill:white;fill-rule:nonzero;fill-opacity:0.200000}
.BraceletLeather-Mediumfil42new {fill:url(#BraceletLeather-Mediumid14new)}
.BraceletLeather-Mediumstr3new {stroke:black;stroke-width:100;stroke-linecap:round;stroke-linejoin:round}
.BraceletLeather-Mediumfil33new {fill:none}
.BraceletLeather-Mediumfil44new {fill:url(#BraceletLeather-Mediumid88new)}
.BraceletLeather-Mediumfil45new {fill:url(#BraceletLeather-Mediumid672new);fill-rule:nonzero}
.BraceletLeather-Mediumstr4new {stroke:black;stroke-width:100}
.BraceletLeather-Mediumfil47new {fill:none;fill-rule:nonzero}
.BraceletLeather-Mediumfil48new {fill:url(#BraceletLeather-Mediumid15new)}
.BraceletLeather-Mediumfil49new {fill:url(#BraceletLeather-Mediumid207new)}
.BraceletLeather-Mediumfil50new {fill:url(#BraceletLeather-Mediumid690new);fill-rule:nonzero}
.HairBack-Fox0fil0 {fill:none}
.Tail-Fox3fil10 {fill:url(#Tail-Fox3id29)}
.Tail-Fox3fil11 {fill:#fffcf1}
.Tail-Fox3fil8 {fill:black;fill-opacity:0.200000}
.Tail-Fox3fil0 {fill:none}
.Tail-Fox3str0 {stroke:black;stroke-width:150;stroke-linecap:round;stroke-linejoin:round}
.RightFoot-Fox0fil20 {fill:url(#RightFoot-Fox0id163)}
.RightFoot-Fox0fil8 {fill:black;fill-opacity:0.200000}
.RightFoot-Fox0fil0 {fill:none}
.RightFoot-Fox0fil18 {fill:black;fill-rule:nonzero}
.RightLeg-Fox0fil23 {fill:url(#RightLeg-Fox0id41)}
.RightLeg-Fox0fil18 {fill:black;fill-rule:nonzero}
.RightLeg-Fox0fil8 {fill:black;fill-opacity:0.200000}
.LeftFoot-Fox0fil29 {fill:url(#LeftFoot-Fox0id166)}
.LeftFoot-Fox0fil8 {fill:black;fill-opacity:0.200000}
.LeftFoot-Fox0fil0 {fill:none}
.LeftFoot-Fox0fil18 {fill:black;fill-rule:nonzero}
.LeftLeg-Fox0fil32 {fill:url(#LeftLeg-Fox0id44)}
.LeftLeg-Fox0fil18 {fill:black;fill-rule:nonzero}
.LeftLeg-Fox0fil8 {fill:black;fill-opacity:0.200000}
.RightHand-Fox0fil34 {fill:url(#RightHand-Fox0id128)}
.RightHand-Fox0fil8 {fill:black;fill-opacity:0.200000}
.RightHand-Fox0fil0 {fill:none}
.RightHand-Fox0str0 {stroke:black;stroke-width:150;stroke-linecap:round;stroke-linejoin:round}
.RightPaw-Fox0fil39 {fill:url(#RightPaw-Fox0id92)}
.RightPaw-Fox0fil8 {fill:black;fill-opacity:0.200000}
.RightPaw-Fox0fil18 {fill:black;fill-rule:nonzero}
.LeftHand-Fox0fil44 {fill:url(#LeftHand-Fox0id144)}
.LeftHand-Fox0fil8 {fill:black;fill-opacity:0.200000}
.LeftHand-Fox0fil0 {fill:none}
.LeftHand-Fox0str0 {stroke:black;stroke-width:150;stroke-linecap:round;stroke-linejoin:round}
.LeftPaw-Fox0fil48 {fill:url(#LeftPaw-Fox0id151)}
.LeftPaw-Fox0fil8 {fill:black;fill-opacity:0.200000}
.LeftPaw-Fox0fil18 {fill:black;fill-rule:nonzero}
.Body-Fox5fil53 {fill:url(#Body-Fox5id192)}
.Body-Fox5fil8 {fill:black;fill-opacity:0.200000}
.Body-Fox5fil18 {fill:black;fill-rule:nonzero}
.Body-Fox5fil59 {fill:url(#Body-Fox5id175)}
.Ears-Fox0fil62 {fill:url(#Ears-Fox0id186)}
.Ears-Fox0fil8 {fill:black;fill-opacity:0.200000}
.Ears-Fox0fil63 {fill:url(#Ears-Fox0id194)}
.Ears-Fox0fil65 {fill:url(#Ears-Fox0id86)}
.Ears-Fox0fil66 {fill:url(#Ears-Fox0id59)}
.Ears-Fox0fil61 {fill:url(#Ears-Fox0id171)}
.Ears-Fox0str1 {stroke:black;stroke-width:150}
.Ears-Fox0fil64 {fill:url(#Ears-Fox0id38)}
.Head-Fox0fil130 {fill:url(#Head-Fox0id115)}
.Head-Fox0fil8 {fill:black;fill-opacity:0.200000}
.Head-Fox0fil18 {fill:black;fill-rule:nonzero}
.Mouth-Fox0fil0 {fill:none}
.Mouth-Fox0str0 {stroke:black;stroke-width:150;stroke-linecap:round;stroke-linejoin:round}
.Eyes-Fox2fil150 {fill:#4d4c4a}
.Eyes-Fox2fil8 {fill:black;fill-opacity:0.200000}
.Eyes-Fox2fil160 {fill:url(#Eyes-Fox2id196)}
.Eyes-Fox2fil161 {fill:url(#Eyes-Fox2id130)}
.Eyes-Fox2fil162 {fill:url(#Eyes-Fox2id141)}
.Eyes-Fox2fil4 {fill:black;fill-opacity:0.501961}
.Eyes-Fox2fil142 {fill:white}
.Eyes-Fox2fil18 {fill:black;fill-rule:nonzero}
.Eyes-Fox2fil163 {fill:url(#Eyes-Fox2id60)}
.Eyes-Fox2fil164 {fill:url(#Eyes-Fox2id127)}
.Eyes-Fox2fil165 {fill:url(#Eyes-Fox2id63)}
.Moustache-Fox0fil0 {fill:none}
.Nose-Fox0fil215 {fill:url(#Nose-Fox0id189)}
.Nose-Fox0str0 {stroke:black;stroke-width:150;stroke-linecap:round;stroke-linejoin:round}
.Hair-Fox0fil0 {fill:none}
.HatTW-Mediumfil110 {fill:#421100;fill-opacity:0.901961}
.HatTW-Mediumfil111 {fill:black;fill-opacity:0.600000}
.HatTW-Mediumfil10 {fill:white}
.HatTW-Mediumfil112 {fill:url(#HatTW-Mediumid6)}
.HatTW-Mediumfil66 {fill:#CCCCFF;fill-opacity:0.301961}
.HatTW-Mediumfil113 {fill:white;fill-opacity:0.301961}
.WeaponBflyNetBack-Mediumfil1 {fill:black;fill-rule:nonzero;fill-opacity:0.200000}
.WeaponBflyNetBack-Mediumfil12 {fill:url(#WeaponBflyNetBack-Mediumid25);fill-rule:nonzero}
.WeaponBflyNetBack-Mediumstr0 {stroke:black;stroke-width:150;stroke-linecap:round;stroke-linejoin:round}
.WeaponBflyNet-Mediumfil13 {fill:white;fill-opacity:0.701961}
.WeaponBflyNet-Mediumfil3 {fill:black;fill-opacity:0.200000}
.WeaponBflyNet-Mediumfil14 {fill:none}
.WeaponBflyNet-Mediumstr2 {stroke:#85E7FF;stroke-width:150;stroke-linecap:round;stroke-linejoin:round}
.WeaponBflyNet-Mediumstr3 {stroke:#85E7FF;stroke-width:150}
.WeaponBflyNet-Mediumfil15 {fill:url(#WeaponBflyNet-Mediumid2)}
.WeaponBflyNet-Mediumstr0 {stroke:black;stroke-width:150;stroke-linecap:round;stroke-linejoin:round}
.WeaponBflyNet-Mediumfil16 {fill:url(#WeaponBflyNet-Mediumid1)}
.WeaponBflyNet-Mediumstr1 {stroke:black;stroke-width:150}
.NecklaceTornShirtGreen-Mediumfil7 {fill:url(#NecklaceTornShirtGreen-Mediumid0)}
.NecklaceTornShirtGreen-Mediumfil2 {fill:black;fill-opacity:0.301961}
.NecklaceTornShirtGreen-Mediumfil3 {fill:black}
.NecklaceTornShirtGreen-Mediumfil4 {fill:black;fill-opacity:0.501961}
.NecklaceTornShirtGreen-Mediumfil1 {fill:none}
.NecklaceTornShirtGreen-Mediumfil5 {fill:black;fill-rule:nonzero}
.NecklaceTornShirtGreen-Mediumfil6 {fill:black;fill-opacity:0.400000}
.NecklaceTornShirtGreen-Mediumstr1 {stroke:black;stroke-width:150;stroke-linecap:round;stroke-linejoin:round}
.AccessoryDuckfil122 {fill:url(#AccessoryDuckid90)}
.AccessoryDuckfil48 {fill:white;fill-opacity:0.501961}
.AccessoryDuckfil123 {fill:#CC1400;fill-opacity:0.301961}
.AccessoryDuckfil124 {fill:url(#AccessoryDuckid94)}
.AccessoryDuckfil3 {fill:black;fill-rule:nonzero}
.AccessoryDuckfil125 {fill:url(#AccessoryDuckid39)}
.AccessoryDuckfil126 {fill:url(#AccessoryDuckid95)}
.AccessoryDuckfil127 {fill:url(#AccessoryDuckid92)}
.AccessoryDuckfil2 {fill:none}
.AccessoryDuckfil128 {fill:#912323;fill-opacity:0.501961}
.AccessoryDuckfil14 {fill:white}
.AccessoryDuckfil129 {fill:white;fill-rule:nonzero;fill-opacity:0.501961}
.AccessoryDuckfil130 {fill:white;fill-rule:nonzero}
.AccessoryDuckstr1 {stroke:black;stroke-width:150}
.AccessoryDuckstr18 {stroke:#99CC66;stroke-width:150;stroke-linecap:round;stroke-linejoin:round}
.AccessoryDuckstr0 {stroke:black;stroke-width:150;stroke-linecap:round;stroke-linejoin:round}
</style><linearGradient gradientUnits="userSpaceOnUse" id="BraceletLeather-Mediumid14new" x1="8682.96" x2="8745.92" y1="19682.8" y2="19053.1">
   <stop offset="0" style="stop-opacity:1; stop-color:#683501"/>
   <stop offset="1" style="stop-opacity:1; stop-color:#B08227"/>
  </linearGradient><linearGradient gradientUnits="userSpaceOnUse" id="BraceletLeather-Mediumid88new" x1="8626.8" x2="8294.02" xlink:href="#BraceletLeather-Mediumid14new" y1="19859" y2="19314.4">
  </linearGradient><linearGradient gradientUnits="userSpaceOnUse" id="BraceletLeather-Mediumid672new" x1="8784.44" x2="10049.5" y1="19759" y2="20796.3">
   <stop offset="0" style="stop-opacity:1; stop-color:#643300"/>
   <stop offset="0.321569" style="stop-opacity:1; stop-color:#B5872A"/>
   <stop offset="1" style="stop-opacity:1; stop-color:#643300"/>
  </linearGradient><linearGradient gradientUnits="userSpaceOnUse" id="BraceletLeather-Mediumid15new" x1="18680.9" x2="18617.9" xlink:href="#BraceletLeather-Mediumid14new" y1="19682.8" y2="19053.1">
  </linearGradient><linearGradient gradientUnits="userSpaceOnUse" id="BraceletLeather-Mediumid207new" x1="18737" x2="19069.8" xlink:href="#BraceletLeather-Mediumid14new" y1="19859" y2="19314.4">
  </linearGradient><linearGradient gradientUnits="userSpaceOnUse" id="BraceletLeather-Mediumid690new" x1="18579.4" x2="17314.3" xlink:href="#BraceletLeather-Mediumid672new" y1="19759" y2="20796.3">
  </linearGradient><linearGradient gradientUnits="objectBoundingBox" id="Tail-Fox3id29" x1="8.37223%" x2="91.6278%" y1="24.481%" y2="75.519%">
   <stop offset="0" style="stop-opacity:1; stop-color:#d99338"/>
   <stop offset="0.458824" style="stop-opacity:1; stop-color:#ffb250"/>
   <stop offset="0.780392" style="stop-opacity:1; stop-color:#ffc375"/>
   <stop offset="1" style="stop-opacity:1; stop-color:#ffc375"/>
  </linearGradient><linearGradient gradientUnits="userSpaceOnUse" id="RightFoot-Fox0id163" x1="16304.9" x2="16304.9" xlink:href="#RightFoot-Fox0id14" y1="23252.2" y2="25473.4">
  </linearGradient><linearGradient gradientUnits="objectBoundingBox" id="RightLeg-Fox0id41" x1="23.3197%" x2="76.6803%" y1="93.6504%" y2="6.34959%">
   <stop offset="0" style="stop-opacity:1; stop-color:#ffc375"/>
   <stop offset="0.2" style="stop-opacity:1; stop-color:#ffc375"/>
   <stop offset="1" style="stop-opacity:1; stop-color:#ffb250"/>
  </linearGradient><linearGradient gradientUnits="userSpaceOnUse" id="LeftFoot-Fox0id166" x1="11002.8" x2="11002.8" xlink:href="#LeftFoot-Fox0id14" y1="23252.1" y2="25473.4">
  </linearGradient><linearGradient gradientUnits="objectBoundingBox" id="LeftLeg-Fox0id44" x1="76.6803%" x2="23.3197%" xlink:href="#LeftLeg-Fox0id41" y1="93.6504%" y2="6.34959%">
  </linearGradient><linearGradient gradientUnits="objectBoundingBox" id="RightHand-Fox0id128" x1="19.7151%" x2="80.2849%" y1="10.4183%" y2="89.5814%">
   <stop offset="0" style="stop-opacity:1; stop-color:#d99338"/>
   <stop offset="0.0196078" style="stop-opacity:1; stop-color:#d99338"/>
   <stop offset="0.721569" style="stop-opacity:1; stop-color:#ffb250"/>
   <stop offset="1" style="stop-opacity:1; stop-color:#ffb250"/>
  </linearGradient><linearGradient gradientUnits="userSpaceOnUse" id="RightPaw-Fox0id92" x1="18753.4" x2="17671.1" y1="21628.2" y2="19462.6">
   <stop offset="0" style="stop-opacity:1; stop-color:#737373"/>
   <stop offset="1" style="stop-opacity:1; stop-color:#d99338"/>
  </linearGradient><linearGradient gradientUnits="objectBoundingBox" id="LeftHand-Fox0id144" x1="80.2849%" x2="19.7151%" xlink:href="#LeftHand-Fox0id128" y1="10.4183%" y2="89.5814%">
  </linearGradient><linearGradient gradientUnits="userSpaceOnUse" id="LeftPaw-Fox0id151" x1="8539.59" x2="9651.19" xlink:href="#LeftPaw-Fox0id92" y1="21657.5" y2="19433.3">
  </linearGradient><linearGradient gradientUnits="objectBoundingBox" id="Body-Fox5id192" x1="50%" x2="50%" y1="0.000177723%" y2="100%">
   <stop offset="0" style="stop-opacity:1; stop-color:#d99338"/>
   <stop offset="0.101961" style="stop-opacity:1; stop-color:#d99338"/>
   <stop offset="0.521569" style="stop-opacity:1; stop-color:#ffb250"/>
   <stop offset="1" style="stop-opacity:1; stop-color:#ffc375"/>
  </linearGradient><linearGradient gradientUnits="userSpaceOnUse" id="Body-Fox5id175" x1="13639.7" x2="13639.7" y1="17471.4" y2="22339.9">
   <stop offset="0" style="stop-opacity:1; stop-color:#ffb250"/>
   <stop offset="0.541176" style="stop-opacity:1; stop-color:#ffc375"/>
   <stop offset="1" style="stop-opacity:1; stop-color:#ffc375"/>
  </linearGradient><linearGradient gradientUnits="userSpaceOnUse" id="Ears-Fox0id186" x1="10840.8" x2="7788.08" xlink:href="#Ears-Fox0id0" y1="11322.7" y2="7353.95">
  </linearGradient><linearGradient gradientUnits="userSpaceOnUse" id="Ears-Fox0id194" x1="10187.9" x2="9370.57" xlink:href="#Ears-Fox0id59" y1="11958.3" y2="8029.28">
  </linearGradient><linearGradient gradientUnits="userSpaceOnUse" id="Ears-Fox0id86" x1="16332.3" x2="19766.5" xlink:href="#Ears-Fox0id0" y1="11570.7" y2="7105.91">
  </linearGradient><linearGradient gradientUnits="userSpaceOnUse" id="Ears-Fox0id171" x1="10412" x2="8422.75" xlink:href="#Ears-Fox0id38" y1="12955.9" y2="6040.17">
  </linearGradient><linearGradient gradientUnits="userSpaceOnUse" id="Head-Fox0id115" x1="13681.9" x2="13681.9" xlink:href="#Head-Fox0id94" y1="17755.4" y2="7384.8">
  </linearGradient><linearGradient gradientUnits="userSpaceOnUse" id="Eyes-Fox2id196" x1="10820.6" x2="10040.1" xlink:href="#Eyes-Fox2id11" y1="14909.8" y2="11262.1">
  </linearGradient><linearGradient gradientUnits="userSpaceOnUse" id="Eyes-Fox2id130" x1="9276.72" x2="12080.1" xlink:href="#Eyes-Fox2id4" y1="13215.6" y2="13215.6">
  </linearGradient><linearGradient gradientUnits="userSpaceOnUse" id="Eyes-Fox2id141" x1="10410" x2="11070.2" xlink:href="#Eyes-Fox2id3" y1="11480.3" y2="14275.1">
  </linearGradient><linearGradient gradientUnits="userSpaceOnUse" id="Eyes-Fox2id60" x1="16552.3" x2="17314.7" xlink:href="#Eyes-Fox2id11" y1="14867.4" y2="11304.5">
  </linearGradient><linearGradient gradientUnits="userSpaceOnUse" id="Eyes-Fox2id127" x1="18087.1" x2="15283.7" xlink:href="#Eyes-Fox2id4" y1="13215.6" y2="13215.6">
  </linearGradient><linearGradient gradientUnits="userSpaceOnUse" id="Eyes-Fox2id63" x1="16623.8" x2="16623.8" xlink:href="#Eyes-Fox2id3" y1="11396.3" y2="14359.1">
  </linearGradient><linearGradient gradientUnits="userSpaceOnUse" id="Nose-Fox0id189" x1="13681.9" x2="13681.9" y1="14170" y2="14789.2">
   <stop offset="0" style="stop-opacity:1; stop-color:#FFCCCC"/>
   <stop offset="1" style="stop-opacity:1; stop-color:#453F2C"/>
  </linearGradient><linearGradient gradientUnits="userSpaceOnUse" id="HatTW-Mediumid6" x1="10752.7" x2="16611.2" y1="15637.4" y2="10489">
   <stop offset="0" style="stop-opacity:1; stop-color:#090926"/>
   <stop offset="1" style="stop-opacity:1; stop-color:#210D57"/>
  </linearGradient><linearGradient gradientUnits="userSpaceOnUse" id="WeaponBflyNetBack-Mediumid25" x1="7204.83" x2="8458.79" y1="22047.5" y2="19400.3">
   <stop offset="0" style="stop-opacity:1; stop-color:#FF6666"/>
   <stop offset="1" style="stop-opacity:1; stop-color:#FFC5B0"/>
  </linearGradient><linearGradient gradientUnits="userSpaceOnUse" id="WeaponBflyNet-Mediumid2" x1="9470.94" x2="12022.2" y1="22463.7" y2="22328">
   <stop offset="0" style="stop-opacity:1; stop-color:#5C3005"/>
   <stop offset="1" style="stop-opacity:1; stop-color:#B87939"/>
  </linearGradient><linearGradient gradientUnits="userSpaceOnUse" id="WeaponBflyNet-Mediumid1" x1="14169.4" x2="14169.4" y1="25399.5" y2="22680.1">
   <stop offset="0" style="stop-opacity:1; stop-color:#D4A373"/>
   <stop offset="1" style="stop-opacity:1; stop-color:#B87939"/>
  </linearGradient><linearGradient gradientUnits="userSpaceOnUse" id="NecklaceTornShirtGreen-Mediumid0" x1="13681.9" x2="13681.9" y1="22800.8" y2="17350.8">
   <stop offset="0" style="stop-opacity:1; stop-color:#393C2B"/>
   <stop offset="1" style="stop-opacity:1; stop-color:#796F39"/>
  </linearGradient><radialGradient cx="5981.45" cy="24530.5" fx="5981.45" fy="24530.5" gradientTransform="matrix(1.08261 -0.0530996 0.0971573 0.591681 -2877 10334)" gradientUnits="userSpaceOnUse" id="AccessoryDuckid90" r="1635.36">
   <stop offset="0" style="stop-opacity:1; stop-color:#FFF256"/>
   <stop offset="0.631373" style="stop-opacity:1; stop-color:#FEE75C"/>
   <stop offset="1" style="stop-opacity:1; stop-color:#FFD83B"/>
  </radialGradient><radialGradient cx="6799.04" cy="23034.7" fx="6799.04" fy="23034.7" gradientTransform="matrix(1.0826 -0.0971566 0.0971566 1.0826 -2800 -1242)" gradientUnits="userSpaceOnUse" id="AccessoryDuckid94" r="935.18" xlink:href="#AccessoryDuckid90">
  </radialGradient><linearGradient gradientUnits="userSpaceOnUse" id="AccessoryDuckid39" x1="6677.2" x2="6677.2" y1="22471.8" y2="23026.9">
   <stop offset="0" style="stop-opacity:1; stop-color:black"/>
   <stop offset="1" style="stop-opacity:1; stop-color:#453223"/>
  </linearGradient><radialGradient cx="7621.66" cy="22955.4" fx="7621.66" fy="22955.4" gradientTransform="matrix(1.00003 -0 -0 0.645815 0 8130)" gradientUnits="userSpaceOnUse" id="AccessoryDuckid95" r="730.87">
   <stop offset="0" style="stop-opacity:1; stop-color:#FFB73B"/>
   <stop offset="1" style="stop-opacity:1; stop-color:#E05A00"/>
  </radialGradient><radialGradient cx="5594.96" cy="24567.2" fx="5594.96" fy="24567.2" gradientTransform="matrix(1.0826 -0.0578086 0.0971565 0.644153 -2849 9066)" gradientUnits="userSpaceOnUse" id="AccessoryDuckid92" r="719.36" xlink:href="#AccessoryDuckid90">
  </radialGradient><linearGradient gradientUnits="userSpaceOnUse" id="RightFoot-Fox0id14" x1="15903.9" x2="21356.9" y1="9993.71" y2="4540.69">
   <stop offset="0" style="stop-opacity:1; stop-color:#d99338"/>
   <stop offset="1" style="stop-opacity:1; stop-color:#737373"/>
  </linearGradient><linearGradient gradientUnits="userSpaceOnUse" id="LeftFoot-Fox0id14" x1="15903.9" x2="21356.9" y1="9993.71" y2="4540.69">
   <stop offset="0" style="stop-opacity:1; stop-color:#d99338"/>
   <stop offset="1" style="stop-opacity:1; stop-color:#737373"/>
  </linearGradient><linearGradient gradientUnits="objectBoundingBox" id="LeftLeg-Fox0id41" x1="23.3197%" x2="76.6803%" y1="93.6504%" y2="6.34959%">
   <stop offset="0" style="stop-opacity:1; stop-color:#ffc375"/>
   <stop offset="0.2" style="stop-opacity:1; stop-color:#ffc375"/>
   <stop offset="1" style="stop-opacity:1; stop-color:#ffb250"/>
  </linearGradient><linearGradient gradientUnits="objectBoundingBox" id="LeftHand-Fox0id128" x1="19.7151%" x2="80.2849%" y1="10.4183%" y2="89.5814%">
   <stop offset="0" style="stop-opacity:1; stop-color:#d99338"/>
   <stop offset="0.0196078" style="stop-opacity:1; stop-color:#d99338"/>
   <stop offset="0.721569" style="stop-opacity:1; stop-color:#ffb250"/>
   <stop offset="1" style="stop-opacity:1; stop-color:#ffb250"/>
  </linearGradient><linearGradient gradientUnits="userSpaceOnUse" id="LeftPaw-Fox0id92" x1="18753.4" x2="17671.1" y1="21628.2" y2="19462.6">
   <stop offset="0" style="stop-opacity:1; stop-color:#737373"/>
   <stop offset="1" style="stop-opacity:1; stop-color:#d99338"/>
  </linearGradient><linearGradient gradientUnits="userSpaceOnUse" id="Ears-Fox0id0" x1="20255.9" x2="20255.9" y1="13203.8" y2="6228.15">
   <stop offset="0" style="stop-opacity:1; stop-color:#f2edda"/>
   <stop offset="1" style="stop-opacity:1; stop-color:#fffcf1"/>
  </linearGradient><linearGradient gradientUnits="userSpaceOnUse" id="Ears-Fox0id59" x1="17144.5" x2="18024.7" y1="12109.4" y2="7878.16">
   <stop offset="0" style="stop-opacity:1; stop-color:#9C6666"/>
   <stop offset="1" style="stop-opacity:1; stop-color:#F2E6E6"/>
  </linearGradient><linearGradient gradientUnits="userSpaceOnUse" id="Ears-Fox0id38" x1="16871.2" x2="19021.7" y1="13236.2" y2="5759.79">
   <stop offset="0" style="stop-opacity:1; stop-color:#d99338"/>
   <stop offset="0.478431" style="stop-opacity:1; stop-color:#ffb250"/>
   <stop offset="1" style="stop-opacity:1; stop-color:#ffc375"/>
  </linearGradient><linearGradient gradientUnits="objectBoundingBox" id="Head-Fox0id94" x1="50%" x2="50%" y1="99.9999%" y2="0%">
   <stop offset="0" style="stop-opacity:1; stop-color:#d99338"/>
   <stop offset="0.4" style="stop-opacity:1; stop-color:#ffb250"/>
   <stop offset="1" style="stop-opacity:1; stop-color:#ffc375"/>
  </linearGradient><linearGradient gradientUnits="userSpaceOnUse" id="Eyes-Fox2id11" x1="16664.8" x2="17411" y1="14898.5" y2="11291.1">
   <stop offset="0" style="stop-opacity:1; stop-color:#500073"/>
   <stop offset="1" style="stop-opacity:1; stop-color:black"/>
  </linearGradient><linearGradient gradientUnits="objectBoundingBox" id="Eyes-Fox2id4" x1="100%" x2="0.00029984%" y1="50%" y2="50%">
   <stop offset="0" style="stop-opacity:1; stop-color:#500073"/>
   <stop offset="0.501961" style="stop-opacity:1; stop-color:#a900f2"/>
   <stop offset="1" style="stop-opacity:1; stop-color:#500073"/>
  </linearGradient><linearGradient gradientUnits="userSpaceOnUse" id="Eyes-Fox2id3" x1="16867.8" x2="16867.8" y1="11330.3" y2="14359.1">
   <stop offset="0" style="stop-opacity:1; stop-color:black"/>
   <stop offset="0.4" style="stop-opacity:1; stop-color:black"/>
   <stop offset="1" style="stop-opacity:1; stop-color:#3e0059"/>
  </linearGradient></defs><g id="HairBack-Fox0">
 <animateTransform additive="sum" attributeName="transform" dur="10" repeatCount="indefinite" type="translate" values="0;0 200;0;0 200;0;0 200;0;0 200;0"/>
  <metadata id="CorelCorpID_0Corel-Layer"/>
  <rect class="HairBack-Fox0fil0" height="908" width="908" x="13228" y="16528"/>
 </g><g id="Tail-Fox3">
  <metadata id="CorelCorpID_6Corel-Layer"/>
  <path class="Tail-Fox3fil10" d="M13378 20620c1055,798 2901,1153 3156,-587 402,-2751 1220,-3559 2564,-4130 1113,-473 3101,-478 4041,688 -210,-61 -560,-45 -729,39 1686,822 2438,3547 426,5408 -639,-1706 -2218,-1642 -3170,-361 238,-61 598,35 676,205 -648,104 -1121,623 -1494,797 249,-62 548,15 680,225 -668,70 -1414,764 -2406,1003 -1158,280 -2417,208 -3453,-234 -1023,-437 -1733,-1068 -1863,-1800 -365,-262 1050,-1648 1572,-1253z" style="fill:#3c7224"/>
  <path class="Tail-Fox3fil11" d="M23109 17128c1152,1134 1432,3333 -273,4910 -433,-1156 -1297,-1499 -2105,-1202 256,-278 548,-540 986,-612 -507,-270 -561,-589 -1093,-583 305,-311 972,-605 1717,-484 -374,-276 -450,-636 -790,-860 745,-302 1007,163 1614,215 57,-457 41,-926 -56,-1384z" style="fill:#d2d6fd"/>
  <path class="Tail-Fox3fil0 Tail-Fox3str0" d="M13378 20620c1055,798 2910,1155 3156,-587 353,-2507 1159,-3559 2503,-4130 1113,-473 3162,-478 4102,688 -210,-61 -560,-45 -729,39 1686,822 2438,3547 426,5408 -639,-1706 -2218,-1642 -3170,-361 238,-61 598,35 676,205 -648,104 -1121,623 -1494,797 249,-62 548,15 680,225 -668,70 -1414,764 -2406,1003 -1158,280 -2417,208 -3453,-234 -1023,-437 -1733,-1068 -1863,-1800 -365,-262 1050,-1648 1572,-1253z" style="fill:#9a122e"/>
  <path class="Tail-Fox3fil8" d="M22836 22038c-639,-1706 -2218,-1642 -3170,-361 238,-61 598,35 676,205 -648,104 -1121,623 -1494,797 249,-62 548,15 680,225 -668,70 -1414,764 -2406,1003 -1158,280 -2417,208 -3453,-234 -526,-225 -969,-501 -1293,-815 1525,504 4481,805 6358,-708 -244,-35 -665,64 -963,-7 1454,-450 1988,-1843 3228,-1972 942,-98 1987,441 1837,1867z" style="fill:#637cac"/>
 </g><g id="RightFoot-Fox0">
  <metadata id="CorelCorpID_15Corel-Layer"/>
  <path class="RightFoot-Fox0fil20" d="M17344 25232c-137,249 -447,331 -676,123 -79,82 -307,169 -584,76 -453,-152 -647,-627 -1039,-897 -210,-335 50,-672 -74,-810 206,-438 728,-491 1087,-467 300,20 870,160 658,684 145,50 358,135 465,193 170,92 294,217 379,350 158,246 119,748 -216,748z" style="fill:#eff49b"/>
  <path class="RightFoot-Fox0fil8" d="M17344 25232c-137,249 -447,331 -676,123 -79,82 -307,169 -584,76 -453,-152 -647,-627 -1039,-897 -173,-120 -100,-408 -65,-624 13,30 63,32 85,19 1,85 -2,160 47,261 304,621 1402,1311 1539,663 237,396 662,243 605,-148 145,250 318,57 222,-294 143,96 177,309 171,486 -20,178 -119,335 -305,335z" style="fill:#175152"/>
  <path class="RightFoot-Fox0fil0" d="M16657 23949c534,135 771,327 906,532 162,244 116,751 -219,751 -137,249 -447,331 -676,123 -79,82 -307,169 -584,76 -453,-152 -586,-562 -971,-844 -192,-140 -159,-401 -128,-554" style="fill:#f1001e"/>
  <path class="RightFoot-Fox0fil18" d="M17265 25213c0,3 0,7 0,10 -56,86 -141,149 -240,169 -80,16 -166,3 -246,-45l-11 -8c45,-255 18,-572 -319,-636 159,118 182,399 156,611 -40,33 -112,65 -206,77 -84,11 -184,6 -293,-31 -253,-85 -404,-261 -562,-447 -265,-311 -583,-400 -489,-864 8,-41 -26,-86 -55,-89 -23,-2 -77,17 -85,58 -113,558 212,630 523,995 171,201 335,392 625,490 130,43 251,50 353,37 104,-13 191,-49 250,-89l3 0c111,81 247,115 383,88 136,-28 255,-114 333,-234 144,-15 246,-113 298,-251 29,-74 42,-157 42,-240 0,-135 -36,-275 -103,-376 -73,-110 -173,-216 -325,-313 -137,-86 -316,-165 -558,-231l-100 128c258,65 447,144 584,231 133,84 219,176 282,271 50,76 77,183 77,290 0,66 -10,130 -31,185 -24,64 -62,112 -114,138 13,-317 -122,-634 -445,-624 209,111 299,298 273,700z" style="fill:#78c517"/>
 </g><g id="LeftFoot-Fox0">
  <metadata id="CorelCorpID_24Corel-Layer"/>
  <path class="LeftFoot-Fox0fil29" d="M9963 25232c137,249 448,331 677,123 78,82 306,169 583,76 454,-152 648,-627 1039,-897 210,-335 -49,-672 75,-810 -206,-438 -729,-491 -1088,-467 -299,20 -869,160 -657,684 -145,50 -358,135 -465,193 -170,92 -294,217 -380,350 -158,246 -118,748 216,748z" style="fill:#763fc1"/>
  <path class="LeftFoot-Fox0fil8" d="M9963 25232c137,249 448,331 677,123 78,82 306,169 583,76 454,-152 648,-627 1039,-897 173,-120 101,-408 65,-624 -13,30 -63,32 -84,19 -2,85 1,160 -48,261 -303,621 -1401,1311 -1539,663 -236,396 -661,243 -605,-148 -144,250 -317,57 -221,-294 -143,96 -177,309 -171,486 19,178 118,335 304,335z" style="fill:#5e7c9d"/>
  <path class="LeftFoot-Fox0fil0" d="M10650 23949c-534,135 -770,327 -906,532 -161,244 -115,751 219,751 137,249 448,331 677,123 78,82 307,169 583,76 454,-152 587,-562 972,-844 192,-140 159,-401 128,-554" style="fill:#55cbf3"/>
  <path class="LeftFoot-Fox0fil18" d="M10042 25213c0,3 0,7 0,10 57,86 142,149 241,169 80,16 166,3 245,-45l12 -8c-45,-255 -19,-572 318,-636 -158,118 -181,399 -155,611 39,33 111,65 206,77 84,11 184,6 292,-31 254,-85 404,-261 562,-447 266,-311 584,-400 490,-864 -8,-41 26,-86 55,-89 22,-2 76,17 85,58 113,558 -213,630 -523,995 -172,201 -335,392 -625,490 -131,43 -252,50 -354,37 -103,-13 -190,-49 -250,-89l-3 0c-111,81 -247,115 -382,88 -137,-28 -256,-114 -333,-234 -144,-15 -246,-113 -299,-251 -28,-74 -41,-157 -41,-240 0,-135 35,-275 102,-376 73,-110 173,-216 326,-313 136,-86 316,-165 558,-231l100 128c-259,65 -447,144 -584,231 -133,84 -219,176 -282,271 -50,76 -77,183 -77,290 0,66 10,130 31,185 24,64 62,112 114,138 -13,-317 122,-634 445,-624 -209,111 -299,298 -274,700z" style="fill:#540e99"/>
 </g><g id="RightLeg-Fox0">
  <metadata id="CorelCorpID_18Corel-Layer"/>
  <path class="RightLeg-Fox0fil23" d="M13654 20939c701,0 2353,-56 2710,226 302,239 937,901 935,1761 -1,258 -252,770 -502,975 -224,183 -478,247 -575,10 -338,335 -711,115 -758,-169 -304,192 -490,58 -579,-180 -114,-303 -830,-395 -1231,-402l0 -2221z" style="fill:#3445cc"/>
  <path class="RightLeg-Fox0fil18" d="M15057 24610c33,25 62,27 88,-6 25,-32 18,-79 -15,-104 -85,-66 -111,-236 -89,-338 34,-163 71,-342 -66,-579 0,-1 -1,-3 -2,-4 -100,-171 -247,-296 -460,-378 -208,-80 -506,-119 -859,-119l0 150c335,0 616,36 805,108 180,69 302,173 385,314 0,2 1,3 2,4 108,188 77,337 48,473 -32,154 43,385 163,479zm1227 -3463c175,139 478,451 693,860 144,272 248,587 247,919 -1,245 -87,464 -218,653 -154,223 -427,476 -707,613 326,-17 760,-427 830,-528 147,-211 244,-458 244,-738 2,-360 -110,-698 -263,-989 -227,-430 -547,-760 -734,-907l-92 117z" style="fill:#1aa7c7"/>
  <path class="RightLeg-Fox0fil8" d="M17192 23390c67,-148 106,-305 107,-464 2,-775 -541,-1451 -869,-1752 -191,187 -411,669 -270,926 596,-490 1139,823 1032,1290z" style="fill:#ed4373"/>
 </g><g id="LeftLeg-Fox0">
  <metadata id="CorelCorpID_27Corel-Layer"/>
  <path class="LeftLeg-Fox0fil32" d="M13654 20939c-701,0 -2353,-56 -2710,226 -303,239 -938,901 -935,1761 1,258 251,770 501,975 225,183 478,247 576,10 338,335 710,115 758,-169 303,192 489,58 579,-180 114,-303 829,-395 1231,-402l0 -2221z" style="fill:#87674a"/>
  <path class="LeftLeg-Fox0fil18" d="M12251 24610c-33,25 -63,27 -88,-6 -25,-32 -19,-79 14,-104 85,-66 111,-236 90,-338 -34,-163 -72,-342 65,-579 1,-1 2,-3 3,-4 100,-171 246,-296 460,-378 208,-80 506,-119 859,-119l0 150c-335,0 -616,36 -806,108 -179,69 -302,173 -384,314 -1,2 -2,3 -2,4 -109,188 -77,337 -49,473 33,154 -42,385 -162,479zm-1227 -3463c-176,139 -478,451 -694,860 -143,272 -247,587 -246,919 0,245 86,464 217,653 155,223 428,476 708,613 -326,-17 -761,-427 -831,-528 -146,-211 -243,-458 -244,-738 -1,-360 110,-698 264,-989 226,-430 547,-760 733,-907l93 117z" style="fill:#fc8a0b"/>
  <path class="LeftLeg-Fox0fil8" d="M10116 23390c-67,-148 -107,-305 -107,-464 -2,-775 540,-1451 869,-1752 190,187 411,669 269,926 -595,-490 -1138,823 -1031,1290z" style="fill:#b3209a"/>
 </g><g id="RightHand-Fox0">
 <animateTransform additive="sum" attributeName="transform" dur="10" repeatCount="indefinite" type="translate" values="0;0 200;0;0 200;0;0 200;0;0 200;0"/>
  <metadata id="CorelCorpID_33Corel-Layer"/>
  <path class="RightHand-Fox0fil34" d="M15438 17646c166,-72 204,-212 419,-180 1007,152 2171,1615 2590,2346 281,490 -618,1230 -886,986 -389,-355 -757,-565 -1090,-638 -348,-77 -727,-1837 -1033,-2514z" style="fill:#98b306"/>
  <path class="RightHand-Fox0fil0 RightHand-Fox0str0" d="M15894 17470c1132,325 2053,1546 2505,2334m-838 994c-383,-350 -775,-593 -1110,-636" style="fill:#34b42b"/>
  <path class="RightHand-Fox0fil8" d="M17390 20682c-242,-242 -554,-457 -866,-480 -152,-170 -246,-612 -157,-856 201,284 528,601 788,813 127,103 289,193 380,265 -29,81 -73,157 -144,221 0,12 -1,25 -1,37z" style="fill:#d9e284"/>
 </g><g id="LeftHand-Fox0">
 <animateTransform additive="sum" attributeName="transform" dur="10" repeatCount="indefinite" type="translate" values="0;0 200;0;0 200;0;0 200;0;0 200;0"/>
  <metadata id="CorelCorpID_44Corel-Layer"/>
  <path class="LeftHand-Fox0fil44" d="M11870 17646c-166,-72 -204,-212 -419,-180 -1007,152 -2171,1615 -2591,2346 -281,490 619,1230 887,986 388,-355 757,-565 1089,-638 349,-77 728,-1837 1034,-2514z" style="fill:#ae70c1"/>
  <path class="LeftHand-Fox0fil0 LeftHand-Fox0str0" d="M11414 17470c-1133,325 -2053,1546 -2505,2334m838 994c382,-350 775,-593 1109,-636" style="fill:#b29342"/>
  <path class="LeftHand-Fox0fil8" d="M9918 20682c242,-242 553,-457 866,-480 152,-170 245,-612 156,-856 -201,284 -527,601 -787,813 -127,103 -289,193 -380,265 29,81 73,157 144,221 0,12 1,25 1,37z" style="fill:#842c3c"/>
 </g><g id="Body-Fox5">
 <animateTransform additive="sum" attributeName="transform" dur="10" repeatCount="indefinite" type="translate" values="0;0 200;0;0 200;0;0 200;0;0 200;0"/>
  <metadata id="CorelCorpID_60Corel-Layer"/>
  <path class="Body-Fox5fil53" d="M13654 23035c-1331,-3 -2731,-477 -2932,-1956 -143,-1051 441,-2541 1033,-3671 326,53 1001,53 1899,54 897,-1 1572,-1 1899,-54 591,1130 1176,2620 1033,3671 -202,1479 -1601,1953 -2932,1956z" style="fill:#5f4553"/>
  <path class="Body-Fox5fil8" d="M12532 22906c-908,-225 -1666,-768 -1810,-1827 -69,-505 31,-1112 218,-1732 -261,1919 185,3039 1592,3559z" style="fill:#9862eb"/>
  <path class="Body-Fox5fil18" d="M11147 22100c-343,-354 -481,-873 -499,-1011 -34,-248 -29,-518 7,-802 17,-134 156,-771 285,-941 -140,680 -199,1317 -144,1723 41,304 111,608 351,1031z" style="fill:#51c3f4"/>
  <path class="Body-Fox5fil8" d="M14775 22906c908,-225 1667,-768 1811,-1827 69,-505 -31,-1112 -219,-1732 261,1919 -185,3039 -1592,3559z" style="fill:#8d60fb"/>
  <path class="Body-Fox5fil18" d="M16160 22100c344,-354 481,-873 500,-1011 34,-248 28,-518 -8,-802 -17,-134 -155,-771 -285,-941 141,680 200,1317 145,1723 -42,304 -112,608 -352,1031z" style="fill:#664e0b"/>
  <path class="Body-Fox5fil59" d="M13560 17605c922,-4 1758,-23 1995,-121 129,444 477,434 613,967 88,344 -86,666 -286,808 -124,88 -416,144 -535,-68 123,108 309,-30 320,-137 15,-147 -191,-316 -370,-209 -626,375 779,1200 -208,1783 109,-350 -150,-569 -460,-585 -294,-14 -507,181 -547,392 -26,139 13,279 160,306 73,13 145,-37 145,-111 0,-142 -168,-209 -228,-82 16,-257 282,-310 456,-273 224,48 361,328 293,667 -110,551 -723,443 -787,818 -33,195 172,440 330,219 87,221 -149,381 -389,359 -827,-78 -636,-973 -986,-1223 -476,-340 -580,460 -140,382 -61,142 -288,253 -566,137 -378,-158 -505,-745 -92,-1155 193,-190 380,-364 392,-661 18,-469 -301,-518 -401,-487 -97,29 -174,144 -174,229 0,85 80,177 177,177 98,0 178,-79 178,-177 0,-32 -9,-62 -24,-88 87,81 141,215 129,350 -29,330 -555,513 -830,312 -678,-496 288,-1186 76,-1543 -79,-132 -248,-133 -361,-16 -92,94 -80,321 130,389 -305,42 -522,-233 -476,-478 97,-519 509,-609 483,-1015 308,16 1062,130 1983,134z" style="fill:#923944"/>
 </g><g id="WeaponBflyNetBack-Medium">
 <animateTransform additive="sum" attributeName="transform" dur="10" repeatCount="indefinite" type="translate" values="0;0 200;0;0 200;0;0 200;0;0 200;0"/>
  <metadata id="CorelCorpID_6Corel-Layer"/>
  <path class="WeaponBflyNetBack-Mediumfil12 WeaponBflyNetBack-Mediumstr0" d="M9510 21699l211 -158 -3097 -1978c-171,-110 -453,-135 -615,154 -163,288 4,515 187,606l3288 1638 26 -262z" style="fill:#6e3508"/>
  <path class="WeaponBflyNetBack-Mediumfil1" d="M6205 19540c-65,37 -126,96 -176,184 -162,288 5,515 188,606l3267 1631 22 -220c-464,-223 -2955,-1545 -3141,-1708 -152,-132 -207,-333 -160,-493z" style="fill:#40c433"/>
 </g><g id="RightPaw-Fox0">
 <animateTransform additive="sum" attributeName="transform" dur="10" repeatCount="indefinite" type="translate" values="0;0 200;0;0 200;0;0 200;0;0 200;0"/>
  <metadata id="CorelCorpID_39Corel-Layer"/>
  <path class="RightPaw-Fox0fil39" d="M17391 20645c-37,796 536,1303 918,955 300,471 1048,122 959,-347 241,-634 -518,-1244 -954,-1587 -129,-155 -206,-274 -278,-399 17,326 -300,151 -507,69 111,217 22,587 -418,535 95,134 203,471 26,573 52,47 227,170 254,201z" style="fill:#8ea063"/>
  <path class="RightPaw-Fox0fil8" d="M17391 20645c-37,796 536,1303 918,955 300,471 1048,122 959,-347 15,-41 27,-81 34,-122 -52,-54 -116,-106 -195,-155 141,440 -471,730 -702,246 -315,467 -757,67 -766,-341 -3,-175 -7,-286 -49,-362 -49,-89 -173,-162 -359,-302 6,96 -18,184 -94,227 52,47 227,170 254,201z" style="fill:#e792ed"/>
  <path class="RightPaw-Fox0fil18" d="M18407 21599c103,-158 125,-439 -86,-523 72,118 25,376 -67,463 -134,127 -256,135 -418,31 -90,-58 -174,-151 -239,-271 -90,-168 -144,-386 -134,-638 1,-21 -7,-51 -23,-67 -51,-48 -201,-153 -251,-190 -33,-24 -85,-11 -108,21 -24,33 -10,73 22,96 42,31 171,138 213,169 -5,265 56,497 153,678 77,142 178,253 288,324 173,111 373,124 545,8 98,117 225,176 358,190 204,21 420,-68 557,-220 100,-112 156,-256 133,-414 223,-631 -399,-1134 -840,-1491 -102,-82 -130,-143 -201,-248 -22,-33 -232,-290 -265,-268 -34,22 -43,68 -20,101 87,129 149,222 187,282 64,98 106,165 207,248 346,280 842,694 831,1091 -51,-68 -153,-154 -273,-142 186,156 313,547 133,744 -107,116 -276,188 -434,172 -100,-10 -195,-56 -268,-146z" style="fill:#50d099"/>
 </g><g id="LeftPaw-Fox0">
 <animateTransform additive="sum" attributeName="transform" dur="10" repeatCount="indefinite" type="translate" values="0;0 200;0;0 200;0;0 200;0;0 200;0"/>
  <metadata id="CorelCorpID_50Corel-Layer"/>
  <path class="LeftPaw-Fox0fil48" d="M9917 20645c36,796 -537,1303 -918,955 -300,471 -1048,122 -959,-347 -241,-634 518,-1244 954,-1587 129,-155 205,-274 278,-399 -17,326 300,151 507,69 -111,217 -23,587 418,535 -95,134 -204,471 -27,573 -51,47 -226,170 -253,201z" style="fill:#1cf29f"/>
  <path class="LeftPaw-Fox0fil8" d="M9917 20645c36,796 -537,1303 -918,955 -300,471 -1048,122 -959,-347 -16,-41 -27,-81 -34,-122 52,-54 116,-106 194,-155 -140,440 472,730 703,246 315,467 757,67 765,-341 4,-175 8,-286 50,-362 49,-89 173,-162 359,-302 -6,96 17,184 93,227 -51,47 -226,170 -253,201z" style="fill:#9d5389"/>
  <path class="LeftPaw-Fox0fil18" d="M8901 21599c-104,-158 -125,-439 86,-523 -73,118 -25,376 67,463 134,127 256,135 418,31 90,-58 173,-151 238,-271 91,-168 145,-386 135,-638 -1,-21 6,-51 23,-67 51,-48 200,-153 251,-190 32,-24 84,-11 108,21 24,33 10,73 -23,96 -42,31 -170,138 -213,169 5,265 -55,497 -153,678 -76,142 -177,253 -287,324 -173,111 -373,124 -545,8 -98,117 -226,176 -358,190 -205,21 -421,-68 -557,-220 -100,-112 -156,-256 -133,-414 -223,-631 399,-1134 840,-1491 101,-82 130,-143 200,-248 23,-33 233,-290 266,-268 33,22 42,68 20,101 -87,129 -149,222 -187,282 -64,98 -106,165 -208,248 -346,280 -841,694 -830,1091 51,-68 153,-154 272,-142 -185,156 -312,547 -132,744 107,116 276,188 434,172 99,-10 195,-56 268,-146z" style="fill:#eb28d3"/>
 </g><g id="NecklaceTornShirtGreen-Medium">
 <animateTransform additive="sum" attributeName="transform" dur="10" repeatCount="indefinite" type="translate" values="0;0 200;0;0 200;0;0 200;0;0 200;0"/>
  <metadata id="CorelCorpID_1Corel-Layer"/>
  <path class="NecklaceTornShirtGreen-Mediumfil7" d="M13682 18647c658,0 2106,-245 1878,-1292 1232,-64 1965,547 2452,984 40,498 -620,1484 -1420,1443 419,783 542,2091 542,2091 -868,673 -2173,928 -3452,928 -1280,0 -2584,-255 -3452,-928 0,0 123,-1308 542,-2091 -800,41 -1460,-945 -1420,-1443 487,-437 1220,-1048 2452,-984 -228,1047 1220,1292 1878,1292zm-333 224c-277,229 -967,753 -1160,652 -247,60 -410,138 -477,171 22,-127 203,-274 387,-425 175,-49 406,-58 634,-218 203,-142 461,-160 616,-180zm1178 3258c209,-147 658,-582 898,-748 7,75 -49,109 -19,182 147,-99 287,-237 421,-317 -42,89 -123,265 -164,356 163,46 282,69 284,184 -130,-13 -477,85 -607,71 -56,106 -113,211 -169,317 -27,-24 -28,-108 -56,-131 -187,8 -401,77 -588,86zm512 -1313c17,-50 351,-288 480,-272 97,46 328,-90 367,-119 -3,47 -86,288 -90,335 -114,-24 -560,-16 -757,56zm70 208c-205,101 -486,172 -744,289 -199,91 -379,234 -526,292 -125,49 -193,20 -243,47 -88,48 -558,215 -643,437 350,-88 701,-176 1051,-265 93,5 185,9 278,14 57,-80 115,-159 172,-239 95,3 190,5 284,7 124,-194 247,-388 371,-582zm-979 -582c-170,79 -233,90 -347,144 -120,56 -110,-23 -231,32 -460,210 -1469,842 -1922,1067 377,-66 754,-132 1131,-198 128,26 255,53 383,79 -6,-57 -74,-152 -80,-210 144,-43 276,-73 424,-48 194,-328 428,-577 642,-866zm1445 -873c-234,152 -444,178 -678,330 73,58 -65,175 -82,282 141,-80 318,-165 393,-215 52,1 190,2 243,3 9,-103 115,-298 124,-400zm-640 -474c-373,78 -645,308 -1185,321 -161,4 -263,-135 -481,15 -131,90 -324,228 -436,353 -75,84 -63,148 -160,243 -327,318 -757,679 -984,957 280,-106 467,-184 747,-290 119,7 374,-50 493,-44 62,-101 81,-166 143,-268 319,-114 639,-229 959,-344 301,-314 602,-629 904,-943z" style="fill:#37b18d"/>
  <path class="NecklaceTornShirtGreen-Mediumfil1 NecklaceTornShirtGreen-Mediumstr1" d="M13682 18647c658,0 2106,-245 1878,-1292 1232,-64 1965,547 2452,984 40,498 -620,1484 -1420,1443 419,783 542,2091 542,2091 -868,673 -2173,928 -3452,928 -1280,0 -2584,-255 -3452,-928 0,0 123,-1308 542,-2091 -800,41 -1460,-945 -1420,-1443 487,-437 1220,-1048 2452,-984 -228,1047 1220,1292 1878,1292z" style="fill:#e6f830"/>
  <path class="NecklaceTornShirtGreen-Mediumfil2" d="M13995 22796c-104,3 -209,5 -313,5 -1280,0 -2584,-255 -3452,-928 0,0 123,-1308 542,-2091l351 -665c0,0 -905,2070 83,2793 985,721 2779,885 2789,886z" style="fill:#f9cc84"/>
  <g>
   <path class="NecklaceTornShirtGreen-Mediumfil3" d="M13413 18948c-171,141 -496,392 -769,545 -180,102 -347,162 -460,134 -106,27 -194,57 -265,84 -74,29 -129,56 -161,72 -50,26 -110,6 -135,-43 -11,-22 -13,-46 -8,-68 31,-160 218,-314 412,-472l9 -8c11,-9 23,-15 36,-19l0 0c47,-13 97,-23 149,-34 140,-29 302,-62 455,-169 204,-143 446,-172 612,-192 34,-4 29,-3 49,-6 54,-7 104,32 111,86 5,36 -10,69 -35,90zm-64 -77c-277,229 -967,753 -1160,652 -247,60 -410,138 -477,171 22,-127 203,-274 387,-425 175,-49 406,-58 634,-218 203,-142 461,-160 616,-180zm2478 2375c-42,89 -123,265 -164,356 163,46 282,69 284,184 -130,-13 -477,85 -607,71 -56,106 -113,211 -169,317 -27,-24 -28,-108 -56,-131 -187,8 -401,77 -588,86 209,-147 658,-582 898,-748 7,75 -49,109 -19,182 147,-99 287,-237 421,-317zm-308 -702c97,46 328,-90 367,-119 -3,47 -86,288 -90,335 -114,-24 -560,-16 -757,56 17,-50 351,-288 480,-272zm-410 480c-205,101 -486,172 -744,289 -199,91 -379,234 -526,292 -125,49 -193,20 -243,47 -88,48 -558,215 -643,437 350,-88 701,-176 1051,-265 93,5 185,9 278,14 57,-80 115,-159 172,-239 95,3 190,5 284,7 124,-194 247,-388 371,-582zm-1965 542c-6,-57 -74,-152 -80,-210 144,-43 276,-73 424,-48 194,-328 428,-577 642,-866 -170,79 -233,90 -347,144 -120,56 -110,-23 -231,32 -460,210 -1469,842 -1922,1067 377,-66 754,-132 1131,-198 128,26 255,53 383,79zm1753 -1667c73,58 -65,175 -82,282 141,-80 318,-165 393,-215 52,1 190,2 243,3 9,-103 115,-298 124,-400 -234,152 -444,178 -678,330zm-866 139c301,-314 602,-629 904,-943 -373,78 -645,308 -1185,321 -161,4 -263,-135 -481,15 -131,90 -324,228 -436,353 -75,84 -63,148 -160,243 -327,318 -757,679 -984,957 280,-106 467,-184 747,-290 119,7 374,-50 493,-44 62,-101 81,-166 143,-268 319,-114 639,-229 959,-344zm443 2006c95,-67 245,-199 400,-335 178,-157 364,-320 495,-410 45,-31 107,-20 138,26 6,8 10,17 13,26l22 -17c78,-65 155,-127 233,-174 48,-28 109,-13 137,34 18,30 18,64 5,93l0 0c-42,91 -63,136 -82,178 -10,22 -21,46 -33,73 145,43 241,91 245,246 1,55 -42,101 -97,102 -4,0 -9,0 -12,-1l0 1c-51,-6 -164,14 -277,34 -93,17 -187,33 -261,37l-141 264c-26,48 -86,67 -135,41 -7,-4 -13,-8 -19,-13l0 0c-32,-28 -44,-64 -54,-101 -67,8 -139,22 -211,36 -104,20 -207,39 -309,44 -55,3 -101,-40 -104,-95 -2,-37 17,-70 47,-89zm504 -1307c52,-57 158,-141 263,-200 103,-58 213,-101 290,-91 11,1 21,4 30,8l0 0c9,4 38,-2 73,-14 84,-27 172,-80 194,-96 45,-32 107,-22 139,23 14,20 20,43 18,66l1 0c-3,34 -26,111 -49,188 -20,67 -40,134 -41,146 -4,55 -52,97 -107,92 -6,0 -12,-1 -18,-2 -60,-11 -215,-13 -375,-2 -124,10 -247,27 -323,54 -51,19 -109,-8 -127,-59 -15,-42 -1,-87 32,-113zm-261 334c127,-45 248,-87 348,-136l0 0c30,-15 67,-14 97,5 47,30 60,91 31,137l-369 580c-17,30 -50,49 -87,49l-233 -6 -139 192c-18,29 -51,47 -88,45l-262 -12 -1038 261 0 0c-20,4 -40,4 -60,-4 -52,-20 -77,-78 -57,-129 85,-221 440,-378 617,-456 34,-15 61,-27 72,-33 41,-22 76,-24 120,-26 33,-2 77,-4 134,-26 64,-26 143,-74 229,-127 89,-55 185,-114 291,-162 132,-60 266,-107 394,-152zm-829 -636c52,-20 110,-42 200,-84l0 0c32,-14 71,-12 101,11 45,33 54,95 21,139 -69,94 -145,188 -221,283 -143,179 -286,358 -411,569 -19,38 -62,61 -107,54 -63,-11 -123,-10 -183,-2 -30,4 -60,11 -92,18 22,44 43,88 48,132l-1 0c2,10 1,21 -1,31 -11,54 -64,89 -118,78l-364 -75 -1113 195 0 0c-43,7 -87,-14 -107,-54 -24,-50 -4,-110 45,-134 200,-99 514,-281 839,-470 404,-235 827,-480 1087,-599 91,-41 134,-32 178,-22 11,2 23,5 52,-9 57,-27 100,-43 147,-61zm1311 -793c107,-43 213,-86 322,-157l0 0c18,-12 40,-18 63,-15 55,4 95,53 90,108 -6,65 -37,146 -68,227 -26,68 -53,136 -56,173 -5,51 -49,92 -101,90 -27,0 -74,0 -120,-1 -34,0 -67,0 -93,-1 -46,28 -110,61 -180,98 -61,32 -127,66 -191,102 -19,12 -43,17 -66,13 -55,-9 -92,-60 -83,-114 10,-61 40,-113 69,-162 14,-23 75,-6 50,-25l1 0c-9,-7 -16,-15 -22,-24 -30,-46 -17,-108 29,-138 125,-82 241,-128 356,-174zm-694 -508c133,-54 262,-106 409,-137l0 0c31,-6 65,2 90,26 39,38 41,101 2,141l-903 944 -1 -1c-10,11 -23,20 -38,25l-925 332c-19,34 -34,65 -49,96 -21,43 -42,86 -74,140 -18,32 -53,52 -92,50 -50,-3 -139,9 -228,21 -88,12 -176,24 -243,23 -121,46 -237,92 -354,138 -111,44 -221,88 -375,146l0 0c-32,12 -69,7 -98,-16 -42,-35 -49,-98 -14,-141 156,-192 401,-417 644,-641 121,-111 242,-222 347,-325 41,-39 57,-74 74,-108 19,-41 38,-81 82,-130 61,-68 142,-138 224,-202 77,-60 161,-119 230,-166 185,-128 302,-92 419,-55 39,12 78,24 115,23 321,-8 546,-98 758,-183z" style="fill:#9941e0"/>
  </g>
  <path class="NecklaceTornShirtGreen-Mediumfil4" d="M13349 18871c-51,43 -117,95 -192,153 -83,30 -171,74 -263,139 -222,156 -446,165 -617,212 -91,75 -200,142 -288,205 -137,46 -230,91 -277,114 22,-127 203,-274 387,-425 175,-49 406,-58 634,-218 203,-142 461,-160 616,-180zm1178 3258c209,-147 658,-582 898,-748 7,75 -49,109 -19,182 147,-99 287,-237 421,-317l-19 40c-117,89 -193,296 -328,387 -494,129 -191,291 -594,400 -121,23 -245,50 -359,56zm1149 -523c156,43 269,68 271,180l0 0c-10,-103 -123,-125 -276,-168l5 -12zm-496 551l-9 17c-26,-23 -28,-98 -51,-127 6,0 12,-1 18,-1 22,19 26,78 42,111zm-141 -1341c17,-50 351,-288 480,-272 97,46 328,-90 367,-119 -1,11 -6,32 -13,58 -63,40 -257,146 -342,106 -95,-12 -306,118 -409,203 -30,7 -58,15 -83,24zm70 208c-205,101 -486,172 -744,289 -199,91 -379,234 -526,292 -125,49 -193,20 -243,47 -88,48 -558,215 -643,437l94 -24c118,-197 657,-288 739,-333 49,-26 114,3 236,-45 143,-57 319,-196 512,-284 223,-102 364,-220 533,-314l42 -65zm-979 -582c-170,79 -233,90 -347,144 -120,56 -110,-23 -231,32 -460,210 -1469,842 -1922,1067l222 -39c480,-242 1377,-710 1792,-900 118,-53 108,24 225,-31 48,-22 82,-54 118,-88 48,-61 96,-122 143,-185zm1445 -873c-234,152 -444,178 -678,330 73,58 -65,175 -82,282 45,-26 93,-52 141,-77 38,-31 63,-57 29,-83 182,-118 349,-158 525,-245 30,-77 60,-154 65,-207zm-640 -474c-373,78 -645,308 -1185,321 -161,4 -263,-135 -481,15 -131,90 -324,228 -436,353 -75,84 -63,148 -160,243 -327,318 -757,679 -984,957 82,-31 157,-60 227,-87 244,-238 628,-494 899,-759 95,-92 83,-154 156,-236 109,-122 303,-156 431,-244 211,-146 258,-63 414,-67 448,-11 702,-248 992,-364l127 -132z" style="fill:#53d801"/>
  <path class="NecklaceTornShirtGreen-Mediumfil1" d="M13349 18871c-277,229 -967,753 -1160,652 -247,60 -410,138 -477,171 22,-127 203,-274 387,-425 175,-49 406,-58 634,-218 203,-142 461,-160 616,-180zm1178 3258c209,-147 658,-582 898,-748 7,75 -49,109 -19,182 147,-99 287,-237 421,-317 -42,89 -123,265 -164,356 163,46 282,69 284,184 -130,-13 -477,85 -607,71 -56,106 -113,211 -169,317 -27,-24 -28,-108 -56,-131 -187,8 -401,77 -588,86zm512 -1313c17,-50 351,-288 480,-272 97,46 328,-90 367,-119 -3,47 -86,288 -90,335 -114,-24 -560,-16 -757,56zm70 208c-205,101 -486,172 -744,289 -199,91 -379,234 -526,292 -125,49 -193,20 -243,47 -88,48 -558,215 -643,437 350,-88 701,-176 1051,-265 93,5 185,9 278,14 57,-80 115,-159 172,-239 95,3 190,5 284,7 124,-194 247,-388 371,-582zm-979 -582c-170,79 -233,90 -347,144 -120,56 -110,-23 -231,32 -460,210 -1469,842 -1922,1067 377,-66 754,-132 1131,-198 128,26 255,53 383,79 -6,-57 -74,-152 -80,-210 144,-43 276,-73 424,-48 194,-328 428,-577 642,-866zm1445 -873c-234,152 -444,178 -678,330 73,58 -65,175 -82,282 141,-80 318,-165 393,-215 52,1 190,2 243,3 9,-103 115,-298 124,-400zm-640 -474c-373,78 -645,308 -1185,321 -161,4 -263,-135 -481,15 -131,90 -324,228 -436,353 -75,84 -63,148 -160,243 -327,318 -757,679 -984,957 280,-106 467,-184 747,-290 119,7 374,-50 493,-44 62,-101 81,-166 143,-268 319,-114 639,-229 959,-344 301,-314 602,-629 904,-943z" style="fill:#01eef4"/>
  <path class="NecklaceTornShirtGreen-Mediumfil5" d="M16220 19111c23,-20 175,164 294,352 72,116 129,253 145,286 18,37 3,82 -34,100 -37,18 -82,3 -100,-34 -19,-38 -69,-180 -129,-303 -92,-191 -198,-380 -176,-401z" style="fill:#005e1e"/>
  <path class="NecklaceTornShirtGreen-Mediumfil6" d="M17857 18910c-387,494 -1164,789 -1616,207 -137,-105 262,486 398,758 -15,-31 -31,-63 -47,-93 547,28 1028,-424 1265,-872z" style="fill:#00a792"/>
  <path class="NecklaceTornShirtGreen-Mediumfil5" d="M11144 19111c-23,-20 -175,164 -294,352 -72,116 -129,253 -146,286 -18,37 -2,82 35,100 37,18 82,3 100,-34 18,-38 69,-180 128,-303 93,-191 199,-380 177,-401z" style="fill:#e9cd4a"/>
  <path class="NecklaceTornShirtGreen-Mediumfil6" d="M9506 18910c388,494 1164,789 1617,207 136,-105 -262,486 -399,758 16,-31 32,-63 48,-93 -547,28 -1028,-424 -1266,-872z" style="fill:#3c0e35"/>
 </g><g id="Ears-Fox0">
 <animateTransform additive="sum" attributeName="transform" dur="10" repeatCount="indefinite" type="translate" values="0;0 200;0;0 200;0;0 200;0;0 200;0"/>
  <metadata id="CorelCorpID_62Corel-Layer"/>
  <path class="Ears-Fox0fil61 Ears-Fox0str1" d="M6977 5380c-586,470 -1285,5624 1175,8314 989,-1846 2965,-3786 4268,-4082 -1078,-3159 -4878,-4684 -5443,-4232z" style="fill:#4f89ed"/>
  <path class="Ears-Fox0fil62" d="M11531 9366c-1158,-2499 -3809,-3644 -4096,-3142 -661,1158 -336,5198 865,6345 899,-701 2332,-2503 3231,-3203z" style="fill:#86e655"/>
  <path class="Ears-Fox0fil8" d="M10967 8397c-1290,-1818 -3285,-2605 -3532,-2173 -103,180 -182,431 -238,730 550,-1426 3106,778 3476,1712 99,-95 192,-187 294,-269z" style="fill:#117bda"/>
  <path class="Ears-Fox0fil63" d="M11439 9441c-879,-1190 -2130,-1776 -2638,-1727 -838,82 -1000,3119 67,4562 898,-700 1673,-2135 2571,-2835z" style="fill:#75be4a"/>
  <path class="Ears-Fox0fil64 Ears-Fox0str1" d="M20387 5380c586,470 1285,5624 -1175,8314 -990,-1846 -2965,-3786 -4268,-4082 1078,-3159 4878,-4684 5443,-4232z" style="fill:#953120"/>
  <path class="Ears-Fox0fil65" d="M15833 9366c1158,-2499 3809,-3644 4095,-3142 662,1158 337,5198 -865,6345 -898,-701 -2332,-2503 -3230,-3203z" style="fill:#4088f2"/>
  <path class="Ears-Fox0fil8" d="M16397 8397c1290,-1818 3285,-2605 3531,-2173 104,180 183,431 238,730 -549,-1426 -3105,778 -3475,1712 -99,-95 -192,-187 -294,-269z" style="fill:#7ce6fb"/>
  <path class="Ears-Fox0fil66" d="M15925 9441c879,-1190 2130,-1776 2638,-1727 838,82 1000,3119 -67,4562 -898,-700 -1673,-2135 -2571,-2835z" style="fill:#3da7b3"/>
 </g><g id="BraceletLeather-Medium">
 <animateTransform additive="sum" attributeName="transform" dur="10" repeatCount="indefinite" type="translate" values="0;0 200;0;0 200;0;0 200;0;0 200;0"/>
  <metadata id="CorelCorpID_17Corel-Layer"/>
  <path class="BraceletLeather-Mediumfil42new BraceletLeather-Mediumstr3new" d="M8689 19690c-86,-160 -115,-250 -201,-410 -29,-75 3,-239 44,-232 104,3 219,4 324,-2 3,181 43,415 96,612 -87,11 -175,21 -263,32z" style="fill:#87f222"/>
  <path class="BraceletLeather-Mediumfil43new" d="M8689 19690c-86,-160 -115,-250 -201,-410 -29,-75 3,-239 44,-232l8 0c53,219 164,421 282,626l-133 16z" style="fill:#f39172"/>
  <path class="BraceletLeather-Mediumfil33new BraceletLeather-Mediumstr3new" d="M8689 19690c-86,-160 -115,-250 -201,-410 -29,-75 3,-239 44,-232 104,3 219,4 324,-2 3,181 43,415 96,612 -87,11 -175,21 -263,32z" style="fill:#771934"/>
  <path class="BraceletLeather-Mediumfil44new BraceletLeather-Mediumstr3new" d="M8645 19884c-170,-64 -251,-113 -421,-177 -71,-38 -153,-183 -118,-204 81,-66 168,-141 243,-214 121,135 304,285 474,399 -59,66 -118,131 -178,196z" style="fill:#713692"/>
  <path class="BraceletLeather-Mediumfil43new" d="M8645 19884c-170,-64 -251,-113 -421,-177 -71,-38 -153,-183 -118,-204l6 -5c184,130 400,211 623,288l-90 98z" style="fill:#b615f9"/>
  <path class="BraceletLeather-Mediumfil33new BraceletLeather-Mediumstr3new" d="M8645 19884c-170,-64 -251,-113 -421,-177 -71,-38 -153,-183 -118,-204 81,-66 168,-141 243,-214 121,135 304,285 474,399 -59,66 -118,131 -178,196z" style="fill:#46feb0"/>
  <path class="BraceletLeather-Mediumfil45new BraceletLeather-Mediumstr4new" d="M8734 19936c-151,-67 -255,-143 -151,-272 117,-147 267,-135 481,-33 407,194 958,608 1165,923 91,139 91,306 -39,409 -129,103 -210,-20 -308,-153 -243,-331 -765,-704 -1148,-874z" style="fill:#8f83da"/>
  <path class="BraceletLeather-Mediumfil46new" d="M8734 19936c-79,-35 -145,-73 -176,-119 77,-41 167,-29 240,0 506,201 953,539 1254,974 48,70 58,140 38,210 -76,-6 -138,-95 -208,-191 -243,-331 -765,-704 -1148,-874z" style="fill:#119289"/>
  <path class="BraceletLeather-Mediumfil47new BraceletLeather-Mediumstr4new" d="M8734 19936c-151,-67 -255,-143 -151,-272 117,-147 267,-135 481,-33 407,194 958,608 1165,923 91,139 91,306 -39,409 -129,103 -210,-20 -308,-153 -243,-331 -765,-704 -1148,-874z" style="fill:#b355a3"/>
  <path class="BraceletLeather-Mediumfil48new BraceletLeather-Mediumstr3new" d="M18674 19690c87,-160 116,-250 202,-410 29,-75 -3,-239 -44,-232 -104,3 -219,4 -324,-2 -3,181 -43,415 -97,612 88,11 176,21 263,32z" style="fill:#7035a6"/>
  <path class="BraceletLeather-Mediumfil43new" d="M18674 19690c87,-160 116,-250 202,-410 29,-75 -3,-239 -44,-232l-8 0c-53,219 -164,421 -282,626l132 16z" style="fill:#6d6aac"/>
  <path class="BraceletLeather-Mediumfil33new BraceletLeather-Mediumstr3new" d="M18674 19690c87,-160 116,-250 202,-410 29,-75 -3,-239 -44,-232 -104,3 -219,4 -324,-2 -3,181 -43,415 -97,612 88,11 176,21 263,32z" style="fill:#a9467e"/>
  <path class="BraceletLeather-Mediumfil49new BraceletLeather-Mediumstr3new" d="M18718 19884c170,-64 252,-113 422,-177 71,-38 153,-183 118,-204 -81,-66 -168,-141 -243,-214 -121,135 -305,285 -475,399 60,66 119,131 178,196z" style="fill:#763f85"/>
  <path class="BraceletLeather-Mediumfil43new" d="M18718 19884c170,-64 252,-113 422,-177 71,-38 153,-183 118,-204l-6 -5c-184,130 -400,211 -623,288l89 98z" style="fill:#19aceb"/>
  <path class="BraceletLeather-Mediumfil33new BraceletLeather-Mediumstr3new" d="M18718 19884c170,-64 252,-113 422,-177 71,-38 153,-183 118,-204 -81,-66 -168,-141 -243,-214 -121,135 -305,285 -475,399 60,66 119,131 178,196z" style="fill:#5fa281"/>
  <path class="BraceletLeather-Mediumfil50new BraceletLeather-Mediumstr4new" d="M18630 19936c151,-67 255,-143 151,-272 -117,-147 -267,-135 -481,-33 -407,194 -958,608 -1165,923 -91,139 -91,306 39,409 129,103 210,-20 307,-153 244,-331 766,-704 1149,-874z" style="fill:#766ec2"/>
  <path class="BraceletLeather-Mediumfil46new" d="M18630 19936c79,-35 145,-73 175,-119 -76,-41 -166,-29 -239,0 -507,201 -954,539 -1254,974 -48,70 -58,140 -38,210 76,-6 137,-95 207,-191 244,-331 766,-704 1149,-874z" style="fill:#7d6c48"/>
  <path class="BraceletLeather-Mediumfil47new BraceletLeather-Mediumstr4new" d="M18630 19936c151,-67 255,-143 151,-272 -117,-147 -267,-135 -481,-33 -407,194 -958,608 -1165,923 -91,139 -91,306 39,409 129,103 210,-20 307,-153 244,-331 766,-704 1149,-874z" style="fill:#c962aa"/>
 </g><g id="Head-Fox0">
 <animateTransform additive="sum" attributeName="transform" dur="10" repeatCount="indefinite" type="translate" values="0;0 200;0;0 200;0;0 200;0;0 200;0"/>
  <metadata id="CorelCorpID_74Corel-Layer"/>
  <path class="Head-Fox0fil130" d="M13682 7385c-2938,0 -5748,2824 -6132,5713 -82,620 -202,968 -600,1267 390,1429 1482,2296 2835,2796 1196,441 2596,594 3897,594 1402,0 2919,-178 4172,-703 1225,-513 2196,-1356 2560,-2687 -398,-299 -518,-647 -600,-1267 -384,-2889 -3194,-5713 -6132,-5713z" style="fill:#5b2628"/>
  <path class="Head-Fox0fil8" d="M7847 11898c-458,1059 -155,2015 -897,2467 584,2138 2905,3136 5290,3315 -3418,-571 -4898,-2161 -4393,-5782z" style="fill:#86fc07"/>
  <path class="Head-Fox0fil18" d="M13682 7460c-545,0 -1085,98 -1606,277 -299,103 -1034,406 -1670,796 393,-448 1433,-872 1622,-937 536,-185 1093,-286 1654,-286l0 150zm-5630 3935c-295,623 -387,1409 -428,1713 -42,317 -94,565 -188,774 -89,200 -214,362 -401,511 279,972 893,1675 1694,2175 982,613 2445,1037 3624,1131 -1295,-22 -2710,-384 -3703,-1004 -844,-527 -1488,-1272 -1772,-2308 -9,-30 1,-63 27,-82 188,-141 310,-294 395,-484 87,-194 136,-429 176,-732 25,-189 202,-1187 576,-1694z" style="fill:#34d507"/>
  <path class="Head-Fox0fil18" d="M13682 7460c544,0 1085,98 1605,277 299,103 1035,406 1670,796 -392,-448 -1432,-872 -1621,-937 -536,-185 -1093,-286 -1654,-286l0 150zm5630 3935c295,623 387,1409 428,1713 42,317 94,565 187,774 89,200 215,362 402,511 -279,972 -893,1675 -1695,2175 -981,613 -2444,1037 -3623,1131 1295,-22 2710,-384 3703,-1004 843,-527 1488,-1272 1772,-2308 9,-30 -1,-63 -27,-82 -188,-141 -310,-294 -395,-484 -87,-194 -136,-429 -176,-732 -25,-189 -203,-1187 -576,-1694z" style="fill:#527435"/>
 </g><g id="Mouth-Fox0">
 <animateTransform additive="sum" attributeName="transform" dur="10" repeatCount="indefinite" type="translate" values="0;0 200;0;0 200;0;0 200;0;0 200;0"/>
  <metadata id="CorelCorpID_82Corel-Layer"/>
  <path class="Mouth-Fox0fil0 Mouth-Fox0str0" d="M12445 15102c107,562 1268,727 1237,-476" style="fill:#a41b0c"/>
  <path class="Mouth-Fox0fil0 Mouth-Fox0str0" d="M14921 15102c-108,562 -1268,727 -1238,-476" style="fill:#dd3b3a"/>
 </g><g id="WeaponBflyNet-Medium">
 <animateTransform additive="sum" attributeName="transform" dur="10" repeatCount="indefinite" type="translate" values="0;0 200;0;0 200;0;0 200;0;0 200;0"/>
  <metadata id="CorelCorpID_7Corel-Layer"/>
  <path class="WeaponBflyNet-Mediumfil13" d="M9944 24239c-1031,247 -2610,1424 -2409,1744 202,321 807,-308 2195,-285 1388,24 3318,548 4389,475 1072,-73 2527,-605 2527,-1008 0,-404 -664,-890 -664,-890l-1329 -819 -1589 -545 -1246 35c-312,696 -844,1047 -1874,1293z" style="fill:#336d19"/>
  <path class="WeaponBflyNet-Mediumfil14 WeaponBflyNet-Mediumstr2" d="M12208 23611c1081,-10 2699,732 3400,1560" style="fill:#ff6494"/>
  <path class="WeaponBflyNet-Mediumfil14 WeaponBflyNet-Mediumstr2" d="M15001 25038c361,-118 643,-350 896,-735" style="fill:#ea0015"/>
  <path class="WeaponBflyNet-Mediumfil14 WeaponBflyNet-Mediumstr2" d="M14199 24735c361,-118 799,-594 993,-1009" style="fill:#9a99f5"/>
  <path class="WeaponBflyNet-Mediumfil14 WeaponBflyNet-Mediumstr2" d="M13338 24354c351,-256 662,-654 857,-1068" style="fill:#09627f"/>
  <path class="WeaponBflyNet-Mediumfil14 WeaponBflyNet-Mediumstr2" d="M12448 23933c351,-255 662,-653 856,-1068" style="fill:#6ca30a"/>
  <path class="WeaponBflyNet-Mediumfil14 WeaponBflyNet-Mediumstr3" d="M9944 24239c-1031,247 -2610,1424 -2409,1744 202,321 807,-308 2195,-285 1388,24 3289,510 4389,475 1101,-35 2500,-626 2500,-1029 0,-404 -637,-869 -637,-869l-1329 -819 -1589 -545 -1246 35c-312,696 -844,1047 -1874,1293z" style="fill:#24f3a2"/>
  <path class="WeaponBflyNet-Mediumfil15 WeaponBflyNet-Mediumstr0" d="M12035 22910c-60,107 -121,213 -181,320 -796,-450 -1593,-899 -2390,-1348 -25,-155 36,-261 180,-320 797,449 1594,899 2391,1348z" style="fill:#9ac71b"/>
  <path class="WeaponBflyNet-Mediumfil14 WeaponBflyNet-Mediumstr2" d="M7552 25924c388,-461 1369,-846 2240,-977 1201,-181 2132,-581 2417,-1260" style="fill:#a9721d"/>
  <path class="WeaponBflyNet-Mediumfil3" d="M11925 23104l-71 126c-796,-450 -1593,-899 -2390,-1348 -14,-83 -2,-151 33,-206l2428 1428z" style="fill:#734b30"/>
  <path class="WeaponBflyNet-Mediumfil14 WeaponBflyNet-Mediumstr2" d="M13504 26144c892,-24 1786,-100 2461,-823" style="fill:#91180f"/>
  <path class="WeaponBflyNet-Mediumfil14 WeaponBflyNet-Mediumstr2" d="M11549 25873c1214,-25 2062,57 3174,-816" style="fill:#661c6a"/>
  <path class="WeaponBflyNet-Mediumfil14 WeaponBflyNet-Mediumstr2" d="M7630 26002c382,-247 1117,-495 1934,-589 1497,-171 3030,135 3829,-826" style="fill:#2b3f1c"/>
  <path class="WeaponBflyNet-Mediumfil16 WeaponBflyNet-Mediumstr1" d="M14530 23222c1360,601 2301,1453 2101,1904 -199,452 -1463,331 -2822,-269 -1360,-600 -2301,-1452 -2102,-1904 200,-451 1463,-331 2823,269zm-2073 437c425,367 973,670 1485,896 512,226 1105,426 1663,494 853,103 929,-68 277,-629 -426,-366 -973,-670 -1485,-896 -512,-226 -1105,-425 -1663,-493 -854,-103 -929,67 -277,628z" style="fill:#e8aeb9"/>
  <path class="WeaponBflyNet-Mediumfil3" d="M16555 25232c-345,321 -1506,173 -2746,-375 -1360,-600 -2301,-1452 -2102,-1904 38,-86 115,-151 223,-196 -33,31 -59,66 -76,106 -199,451 742,1303 2101,1903 1101,486 2139,658 2600,466zm-318 -112c15,-47 65,-258 5,-340 -71,-95 -191,-214 -360,-360 -426,-366 -973,-670 -1485,-896 -512,-226 -1105,-425 -1663,-493 -257,-31 -443,-37 -560,-16 33,-108 266,-128 706,-75 558,68 1151,268 1663,494 513,226 1060,529 1486,896 171,147 292,267 362,363 116,159 17,396 -154,427z" style="fill:#6c1677"/>
  <path class="WeaponBflyNet-Mediumfil14 WeaponBflyNet-Mediumstr2" d="M11269 23733c142,1272 2907,2208 4031,2233" style="fill:#190bc4"/>
  <path class="WeaponBflyNet-Mediumfil14 WeaponBflyNet-Mediumstr2" d="M10476 24127c-23,1341 1755,1969 3097,2026" style="fill:#95a72a"/>
  <path class="WeaponBflyNet-Mediumfil14 WeaponBflyNet-Mediumstr2" d="M9671 24329c-323,500 220,1274 858,1420" style="fill:#69403f"/>
  <path class="WeaponBflyNet-Mediumfil14 WeaponBflyNet-Mediumstr2" d="M8801 24747c-190,293 -4,865 395,962" style="fill:#2587dd"/>
  <path class="WeaponBflyNet-Mediumfil14 WeaponBflyNet-Mediumstr2" d="M8109 25223c-267,258 -33,735 247,682" style="fill:#b82a92"/>
 </g><g id="Eyes-Fox2">
 <animateTransform additive="sum" attributeName="transform" dur="10" repeatCount="indefinite" type="translate" values="0;0 200;0;0 200;0;0 200;0;0 200;0"/>
  <metadata id="CorelCorpID_95Corel-Layer"/>
  <path class="Eyes-Fox2fil150" d="M10419 9662c50,106 426,155 783,395 328,220 512,551 679,502 185,-53 242,-482 151,-695 -75,-175 -410,-422 -819,-470 -484,-55 -856,139 -794,268z"/>
  <path class="Eyes-Fox2fil8" d="M10419 9662c50,106 426,155 783,395 328,220 512,551 679,502 185,-53 242,-482 151,-695 -75,-175 -410,-422 -819,-470 -484,-55 -856,139 -794,268z"/>
  <path class="Eyes-Fox2fil160" d="M9678 14753c980,374 3167,181 2480,-1924 -505,-1550 -1827,-1956 -3094,-1179 -922,1004 -455,2696 614,3103z"/>
  <path class="Eyes-Fox2fil161" d="M12080 13344c10,-972 -405,-1486 -974,-1583 -84,-15 -167,-23 -249,-26 -434,17 -840,-34 -1133,277 -784,833 -382,1933 33,2312 877,799 2311,240 2323,-980z"/>
  <path class="Eyes-Fox2fil162" d="M10471 11431c626,-175 1253,332 1401,1132 149,799 -238,1588 -863,1762 -626,174 -1253,-333 -1401,-1132 -149,-799 238,-1588 863,-1762z"/>
  <path class="Eyes-Fox2fil4" d="M12274 13240c-208,-898 -888,-1972 -1896,-2005 -678,-23 -1199,290 -1541,838 -380,608 -271,1240 -178,1516 87,-1267 1016,-1926 1742,-1934 891,-10 1385,501 1873,1585z"/>
  <circle class="Eyes-Fox2fil142" r="235" transform="matrix(2.29542 -0.208545 0.267105 2.285 10953.6 12277.1)"/>
  <circle class="Eyes-Fox2fil142" r="235" transform="matrix(0.819853 0.0201454 -0.0264891 0.794972 11484.8 12977.7)"/>
  <circle class="Eyes-Fox2fil142" r="235" transform="matrix(0.422656 -0.24244 0.410415 0.68102 9464.21 14142.6)"/>
  <path class="Eyes-Fox2fil18" d="M9705 14683c426,163 1088,215 1629,38 182,-59 349,-144 487,-259 137,-114 246,-258 315,-437 110,-291 113,-675 -49,-1173 -76,-232 -170,-437 -280,-616 -245,-399 -568,-666 -933,-798 -366,-132 -777,-130 -1198,7 -187,61 -376,149 -564,263 -153,170 -266,359 -343,559 -142,375 -156,785 -66,1163 89,378 281,723 548,969 133,122 286,220 454,284zm1675 181c-574,187 -1276,132 -1728,-41 -186,-71 -355,-179 -502,-314 -764,-701 -1013,-1752 -823,-2956 131,296 465,186 698,33 204,-134 404,-218 605,-283 452,-148 896,-149 1294,-6 398,144 747,431 1011,861 116,189 215,405 294,648 174,533 169,951 47,1272 -78,204 -203,368 -359,498 -154,129 -338,223 -537,288z"/>
  <path class="Eyes-Fox2fil150" d="M16945 9662c-50,106 -426,155 -783,395 -328,220 -512,551 -679,502 -185,-53 -242,-482 -151,-695 74,-175 410,-422 819,-470 484,-55 856,139 794,268z"/>
  <path class="Eyes-Fox2fil8" d="M16945 9662c-50,106 -426,155 -783,395 -328,220 -512,551 -679,502 -185,-53 -242,-482 -151,-695 74,-175 410,-422 819,-470 484,-55 856,139 794,268z"/>
  <path class="Eyes-Fox2fil163" d="M17685 14753c-979,374 -3166,181 -2479,-1924 505,-1550 1827,-1956 3094,-1179 922,1004 454,2696 -615,3103z"/>
  <path class="Eyes-Fox2fil164" d="M15284 13344c-10,-972 405,-1486 974,-1583 84,-15 167,-23 249,-26 434,17 840,-34 1133,277 784,833 382,1933 -33,2312 -877,799 -2311,240 -2323,-980z"/>
  <path class="Eyes-Fox2fil165" d="M16892 11431c-625,-175 -1252,332 -1401,1132 -148,799 239,1588 864,1762 626,174 1253,-333 1401,-1132 149,-799 -238,-1588 -864,-1762z"/>
  <path class="Eyes-Fox2fil4" d="M15090 13240c208,-898 888,-1972 1896,-2005 678,-23 1199,290 1541,838 380,608 270,1240 178,1516 -87,-1267 -1016,-1926 -1742,-1934 -891,-10 -1385,501 -1873,1585z"/>
  <circle class="Eyes-Fox2fil142" r="235" transform="matrix(2.29542 -0.208545 0.267105 2.285 17114.3 12277.1)"/>
  <circle class="Eyes-Fox2fil142" r="235" transform="matrix(0.819853 0.0201454 -0.0264891 0.794972 17798.3 12977.7)"/>
  <circle class="Eyes-Fox2fil142" r="235" transform="matrix(0.422656 -0.24244 0.410415 0.68102 15924 14085.6)"/>
  <path class="Eyes-Fox2fil18" d="M17659 14683c-426,163 -1088,215 -1629,38 -182,-59 -349,-144 -488,-259 -136,-114 -245,-258 -314,-437 -110,-291 -113,-675 49,-1173 76,-232 170,-437 279,-616 246,-399 568,-666 934,-798 366,-132 777,-130 1198,7 187,61 376,149 563,263 154,170 267,359 343,559 143,375 157,785 67,1163 -89,378 -281,723 -548,969 -134,122 -286,220 -454,284zm-1675 181c573,187 1276,132 1728,-41 186,-71 355,-179 502,-314 764,-701 1013,-1752 823,-2956 -131,296 -465,186 -698,33 -204,-134 -404,-218 -605,-283 -453,-148 -897,-149 -1294,-6 -398,144 -748,431 -1011,861 -116,189 -215,405 -295,648 -174,533 -168,951 -46,1272 78,204 203,368 359,498 154,129 338,223 537,288z"/>
 </g><g id="Moustache-Fox0">
 <animateTransform additive="sum" attributeName="transform" dur="10" repeatCount="indefinite" type="translate" values="0;0 200;0;0 200;0;0 200;0;0 200;0"/>
  <metadata id="CorelCorpID_103Corel-Layer"/>
  <rect class="Moustache-Fox0fil0" height="583" width="417" x="13474" y="14867"/>
 </g><g id="Nose-Fox0">
 <animateTransform additive="sum" attributeName="transform" dur="10" repeatCount="indefinite" type="translate" values="0;0 200;0;0 200;0;0 200;0;0 200;0"/>
  <metadata id="CorelCorpID_111Corel-Layer"/>
  <path class="Nose-Fox0fil215 Nose-Fox0str0" d="M13682 14170c-247,0 -591,102 -564,255 24,141 250,364 564,364 314,0 540,-223 564,-364 27,-153 -317,-255 -564,-255z" style="fill:#dd52ef"/>
 </g><g id="AccessoryDuck">
  <metadata id="CorelCorpID_7Corel-Layer"/>
  <g>
   <path class="AccessoryDuckfil122" d="M6799 23590c567,92 901,386 954,797 53,412 -243,1082 -841,1089 -393,5 -1153,26 -1786,26 -391,0 -696,-285 -829,-563 -183,-382 -87,-1276 203,-1374 170,-58 552,365 851,277 435,-128 967,-330 1448,-252z" style="fill:#509237"/>
   <path class="AccessoryDuckfil48" d="M7758 24535c-23,406 -315,934 -846,941 -393,5 -1153,26 -1786,26 -391,0 -696,-285 -829,-563 -156,-325 -109,-1021 87,-1282 -106,322 -111,821 11,1082 131,278 430,563 813,563 621,0 1366,-21 1751,-26 437,-6 710,-381 799,-741z" style="fill:#cd6aed"/>
   <path class="AccessoryDuckfil123" d="M6799 23590c56,9 109,20 160,33 -130,90 -255,351 -427,375 -135,19 -523,-198 -655,-168 -209,48 -405,103 -557,148 -275,81 -535,-184 -692,-130 -267,91 -276,730 -108,1082 120,250 435,557 785,572 -61,0 -120,0 -179,0 -391,0 -696,-285 -829,-563 -183,-382 -87,-1276 203,-1374 170,-58 552,365 851,277 435,-128 967,-330 1448,-252z" style="fill:#dc3d36"/>
   <path class="AccessoryDuckfil2 AccessoryDuckstr1" d="M6799 23590c567,92 901,386 954,797 53,412 -243,1082 -841,1089 -393,5 -1153,26 -1786,26 -391,0 -696,-285 -829,-563 -183,-382 -87,-1276 203,-1374 170,-58 552,365 851,277 435,-128 967,-330 1448,-252z" style="fill:#acb295"/>
   <path class="AccessoryDuckfil124" d="M6799 22018c651,0 1017,455 1017,1017 0,561 -456,1016 -1017,1016 -561,0 -1016,-455 -1016,-1016 0,-562 365,-1017 1016,-1017z" style="fill:#69f733"/>
   <path class="AccessoryDuckfil123" d="M6799 22018c651,0 1017,455 1017,1017 0,95 -14,186 -38,274 13,-58 21,-117 21,-178 0,-519 -394,-978 -993,-978 -598,0 -854,358 -854,878 0,454 400,909 767,1017 -524,-41 -936,-479 -936,-1013 0,-562 365,-1017 1016,-1017z" style="fill:#def18a"/>
   <path class="AccessoryDuckfil3" d="M6185 23844c-28,28 -290,-116 -378,-327 -53,-104 -110,-285 -125,-443 -4,-44 -7,-84 -7,-123 0,-256 79,-492 231,-671 152,-180 376,-303 666,-331 43,-4 85,-6 127,-6 344,0 637,118 846,308 218,199 346,477 346,784 0,197 -53,383 -146,543 -114,198 -486,429 -501,374 -14,-55 186,-125 372,-448 79,-138 125,-298 125,-469 0,-264 -109,-502 -297,-673 -182,-166 -440,-269 -745,-269 -41,0 -79,2 -113,5 -248,24 -438,127 -566,278 -128,152 -195,354 -195,575 0,37 2,74 5,108 14,140 50,256 110,390 60,135 273,366 245,395z" style="fill:#b8baa7"/>
   <path class="AccessoryDuckfil123" d="M6658 22472c143,0 258,134 258,300 0,166 -115,300 -258,300 -143,0 -259,-134 -259,-300 0,-166 116,-300 259,-300z" style="fill:#f39c5d"/>
   <ellipse class="AccessoryDuckfil125" cx="6677" cy="22749" rx="239" ry="278"/>
   <path class="AccessoryDuckfil2 AccessoryDuckstr18" d="M8022 22883c-201,144 -531,341 -779,257" style="fill:#901c47"/>
   <path class="AccessoryDuckfil126" d="M6906 23254c-93,-143 260,-242 351,-320 100,-87 101,-231 168,-331 379,92 984,-279 923,-35 -43,175 -342,292 -454,408 135,81 371,182 293,310 -165,270 -1199,93 -1281,-32z" style="fill:#185d38"/>
   <path class="AccessoryDuckfil127" d="M5595 24102c432,0 782,85 782,426 0,341 -350,504 -782,504 -432,0 -782,-445 -782,-651 0,-207 350,-279 782,-279z" style="fill:#ca2cdd"/>
   <path class="AccessoryDuckfil123" d="M5595 24102c112,0 218,6 314,20 -54,-3 -109,-5 -167,-5 -397,0 -719,62 -719,238 0,176 322,556 719,556 224,0 424,-44 556,-135 -127,173 -394,256 -703,256 -432,0 -782,-445 -782,-651 0,-207 350,-279 782,-279z" style="fill:#4af795"/>
   <path class="AccessoryDuckfil2" d="M5595 24102c432,0 782,85 782,426 0,341 -350,504 -782,504 -432,0 -782,-445 -782,-651 0,-207 350,-279 782,-279z" style="fill:#723188"/>
   <path class="AccessoryDuckfil128" d="M7774 23111c-89,-34 -14,-124 -111,-45 -97,79 -363,35 -380,106 -17,71 420,126 587,75 167,-51 -7,-102 -96,-136z" style="fill:#f004b6"/>
   <path class="AccessoryDuckfil3" d="M7978 22822c34,-24 80,-16 105,17 24,33 16,80 -17,104 -104,75 -242,164 -388,223 -227,93 -542,12 -506,-50 0,-32 161,63 450,-88 126,-66 259,-136 356,-206z" style="fill:#343a92"/>
   <path class="AccessoryDuckfil2 AccessoryDuckstr0" d="M6843 23214c-50,-149 300,-228 411,-311 100,-77 103,-211 171,-300 595,142 902,-305 923,-35 14,173 -342,292 -454,408 135,81 371,182 293,310 -165,270 -1277,131 -1344,-72z" style="fill:#4b6faa"/>
   <ellipse class="AccessoryDuckfil14" cx="6745" cy="22636" rx="71" ry="72"/>
   <path class="AccessoryDuckfil14" d="M6953 22225c60,7 105,42 101,77 -4,35 -60,68 -120,61 -60,-7 -102,-52 -98,-87 4,-36 57,-59 117,-51z" style="fill:#1655c0"/>
   <path class="AccessoryDuckfil14" d="M7236 22345c28,16 43,42 34,59 -10,16 -24,5 -52,-11 -28,-16 -60,-31 -50,-47 9,-17 40,-17 68,-1z" style="fill:#9a53c8"/>
   <path class="AccessoryDuckfil129" d="M7161 25119c-29,-51 140,-147 188,-480 19,-137 -2,-287 -86,-411 -23,-34 -14,-80 20,-104 35,-23 81,-14 104,21 107,157 135,344 110,515 -35,244 -307,509 -336,459z" style="fill:#e09182"/>
   <path class="AccessoryDuckfil130" d="M5478 24311c0,-39 423,-52 488,-36 278,75 233,289 199,309 -34,19 11,-154 -222,-212 -285,-70 -465,-23 -465,-61z" style="fill:#e92c23"/>
  </g>
 </g><g id="Hair-Fox0">
 <animateTransform additive="sum" attributeName="transform" dur="10" repeatCount="indefinite" type="translate" values="0;0 200;0;0 200;0;0 200;0;0 200;0"/>
  <metadata id="CorelCorpID_112Corel-Layer"/>
  <rect class="Hair-Fox0fil0" height="977" width="977" x="13193" y="6900"/>
 </g><g id="HatTW-Medium">
 <animateTransform additive="sum" attributeName="transform" dur="10" repeatCount="indefinite" type="translate" values="0;0 200;0;0 200;0;0 200;0;0 200;0"/>
  <metadata id="CorelCorpID_13Corel-Layer"/>
  <path class="HatTW-Mediumfil110" d="M8713 11560c971,-296 3138,-237 4105,192 168,75 274,1529 -357,2379 -489,657 -1881,754 -2735,440 -1109,-408 -1595,-2545 -1013,-3011z" style="fill:#04ec31"/>
  <path class="HatTW-Mediumfil111" d="M8713 11560c295,-90 700,-147 1149,-171 104,49 192,104 257,165 -689,-101 -1492,954 -1390,1822 -13,6 -26,11 -39,15 -293,-731 -314,-1561 23,-1831z" style="fill:#b7200b"/>
  <path class="HatTW-Mediumfil10" d="M10936 11668c436,-36 1378,55 1549,259 200,238 206,786 97,1242 25,-905 -542,-1418 -1646,-1501z" style="fill:#c80ff8"/>
  <path class="HatTW-Mediumfil110" d="M18656 11560c-948,-296 -3066,-237 -4011,192 -164,75 -267,1529 349,2379 477,657 1838,754 2673,440 1084,-408 1559,-2545 989,-3011z" style="fill:#179db2"/>
  <path class="HatTW-Mediumfil111" d="M14717 11560c294,-90 700,-147 1148,-171 105,49 316,112 381,174 -941,-18 -1615,998 -1512,1866 -13,6 -67,38 -81,42 -293,-731 -274,-1641 64,-1911z" style="fill:#dcdfbc"/>
  <path class="HatTW-Mediumfil112" d="M19322 11369c-1306,-190 -3297,-188 -4576,62l0 0 -2 0c-28,6 -57,11 -84,17 -5,1 -10,3 -15,4 -285,57 -628,81 -963,81 -335,0 -678,-24 -964,-81 -4,-1 -9,-3 -14,-4 -28,-6 -56,-11 -84,-17l-2 0 0 0c-1279,-250 -3271,-252 -4576,-62 -183,26 -235,764 -68,834 205,86 292,477 390,781 182,567 359,1455 1369,1769 1035,321 2527,86 2921,-691 190,-373 286,-818 317,-1234l0 0c69,-301 389,-419 711,-419 322,0 642,118 711,419l0 0c31,416 127,861 316,1234 394,777 1887,1012 2922,691 1010,-314 1187,-1202 1369,-1769 97,-304 185,-695 390,-781 167,-70 114,-808 -68,-834zm-10549 263c955,-173 2881,-110 3774,126 185,31 388,1467 -197,2271 -475,652 -1743,800 -2610,476 -1017,-382 -1107,-1373 -1153,-2126 -18,-293 29,-718 186,-747zm9818 0c-955,-173 -2881,-110 -3774,126 -185,31 -389,1467 197,2271 475,652 1743,800 2609,476 1018,-382 1108,-1373 1154,-2126 18,-293 -29,-718 -186,-747z" style="fill:#5b2ea0"/>
  <path class="HatTW-Mediumfil66" d="M16399 14660l0 0c-573,-46 -1111,-255 -1385,-631 -38,-52 -72,-107 -104,-164l-1 -1c15,175 381,901 1490,796z" style="fill:#c0986f"/>
  <path class="HatTW-Mediumfil10" d="M17254 11669c414,-39 1166,-47 1338,182 149,198 128,1123 -77,1531 169,-1022 -120,-1693 -1261,-1713z" style="fill:#b579fc"/>
  <path class="HatTW-Mediumfil66" d="M10429 14662l-11 -6c-238,-23 -469,-73 -678,-151 -381,-143 -632,-371 -799,-641 31,104 383,889 1488,798z" style="fill:#17f6d9"/>
  <ellipse class="HatTW-Mediumfil10" rx="215" ry="463" transform="matrix(0.416562 0.211958 -0.131315 0.258074 12450.3 13473.9)"/>
  <ellipse class="HatTW-Mediumfil10" rx="215" ry="463" transform="matrix(0.416562 0.211958 -0.131315 0.258074 18321.8 13603.1)"/>
  <path class="HatTW-Mediumfil113" d="M9368 13602c127,-69 358,42 515,250 158,208 182,433 56,502 -127,70 -358,-42 -516,-250 -157,-207 -182,-432 -55,-502z" style="fill:#6a9c1b"/>
  <path class="HatTW-Mediumfil113" d="M15314 13602c127,-69 357,42 515,250 157,208 182,433 55,502 -127,70 -357,-42 -515,-250 -157,-207 -182,-432 -55,-502z" style="fill:#b94006"/>
  <path class="HatTW-Mediumfil66" d="M19071 11514c-1162,-180 -2516,-219 -4243,-24 1070,-228 3138,-253 4440,-65 87,13 136,185 150,363 -42,-125 -156,-244 -347,-274z" style="fill:#d1cbff"/>
  <path class="HatTW-Mediumfil66" d="M14347 12425c65,-267 13,-720 -80,-794 -102,-81 -679,-5 -1149,-66 344,107 915,86 1040,174 152,106 164,448 189,686z" style="fill:#9e9224"/>
  <path class="HatTW-Mediumfil66" d="M12438 11579c-1162,-220 -2516,-305 -4243,-168 1070,-192 3139,-146 4440,85 87,16 136,190 150,369 -42,-128 -156,-250 -347,-286z" style="fill:#c22ada"/>
 </g></svg>