<svg xmlns="http://www.w3.org/2000/svg" xmlns:xlink="http://www.w3.org/1999/xlink" style="shape-rendering:geometricPrecision; text-rendering:geometricPrecision; image-rendering:optimizeQuality; fill-rule:evenodd; clip-rule:evenodd" version="1.1" viewBox="0 0 29000 29000" xml:space="preserve"><defs><style type="text/css">.BraceletLeather-Mediumfil43new {fill:white;fill-opacity:0.200000}
.BraceletLeather-Mediumfil46new {fill:white;fill-rule:nonzero;fill-opacity:0.200000}
.BraceletLeather-Mediumfil42new {fill:url(#BraceletLeather-Mediumid14new)}
.BraceletLeather-Mediumstr3new {stroke:black;stroke-width:100;stroke-linecap:round;stroke-linejoin:round}
.BraceletLeather-Mediumfil33new {fill:none}
.BraceletLeather-Mediumfil44new {fill:url(#BraceletLeather-Mediumid88new)}
.BraceletLeather-Mediumfil45new {fill:url(#BraceletLeather-Mediumid672new);fill-rule:nonzero}
.BraceletLeather-Mediumstr4new {stroke:black;stroke-width:100}
.BraceletLeather-Mediumfil47new {fill:none;fill-rule:nonzero}
.BraceletLeather-Mediumfil48new {fill:url(#BraceletLeather-Mediumid15new)}
.BraceletLeather-Mediumfil49new {fill:url(#BraceletLeather-Mediumid207new)}
.BraceletLeather-Mediumfil50new {fill:url(#BraceletLeather-Mediumid690new);fill-rule:nonzero}
.NecklaceYinYangfil225new {fill:url(#NecklaceYinYangid676new);fill-rule:nonzero}
.NecklaceYinYangfil46new {fill:white;fill-rule:nonzero;fill-opacity:0.200000}
.NecklaceYinYangfil84new {fill:black}
.NecklaceYinYangfil83new {fill:white}
.NecklaceYinYangfil47new {fill:none;fill-rule:nonzero}
.NecklaceYinYangstr4new {stroke:black;stroke-width:100}
.NecklaceYinYangfil226new {fill:url(#NecklaceYinYangid677new);fill-rule:nonzero}
.NecklaceYinYangstr3new {stroke:black;stroke-width:100;stroke-linecap:round;stroke-linejoin:round}
.NecklaceYinYangfil227new {fill:url(#NecklaceYinYangid669new);fill-rule:nonzero}
.NecklaceYinYangfil228new {fill:url(#NecklaceYinYangid705new);fill-rule:nonzero}
.NecklaceYinYangfil229new {fill:url(#NecklaceYinYangid685new);fill-rule:nonzero}
.NecklaceYinYangfil230new {fill:url(#NecklaceYinYangid101new)}
.HatFedora-Mediumfil14 {fill:black;fill-opacity:0.301961}
.HatFedora-Mediumfil29 {fill:black;fill-opacity:0.200000}
.HatFedora-Mediumfil40 {fill:url(#HatFedora-Mediumid9)}
.HatFedora-Mediumfil34 {fill:white;fill-opacity:0.200000}
.HatFedora-Mediumfil35 {fill:black;fill-rule:nonzero}
.HatFedora-Mediumfil36 {fill:url(#HatFedora-Mediumid5)}
.HatFedora-Mediumstr1 {stroke:black;stroke-width:150}
.HatFedora-Mediumfil37 {fill:url(#HatFedora-Mediumid21)}
.HatFedora-Mediumstr2 {stroke:black;stroke-width:150;stroke-linecap:round;stroke-linejoin:round}
.HatFedora-Mediumfil38 {fill:url(#HatFedora-Mediumid18)}
.HatFedora-Mediumfil39 {fill:url(#HatFedora-Mediumid25)}
.HatFedora-Mediumfil2 {fill:none}
.RightFoot-Rabbit0fil27 {fill:#ffe5bf}
    
.RightFoot-Rabbit0fil10 {fill:black;fill-opacity:0.200000}
    
.RightFoot-Rabbit0fil0 {fill:none}
    
.RightFoot-Rabbit0fil28 {fill:black;fill-rule:nonzero}
    
.RightLeg-Rabbit5fil36 {fill:url(#RightLeg-Rabbit5id9)}
    
.RightLeg-Rabbit5fil27 {fill:#ffe5bf}
    
.RightLeg-Rabbit5fil10 {fill:black;fill-opacity:0.200000}
    
.RightLeg-Rabbit5fil28 {fill:black;fill-rule:nonzero}
    
.LeftFoot-Rabbit0fil27 {fill:#ffe5bf}
    
.LeftFoot-Rabbit0fil10 {fill:black;fill-opacity:0.200000}
    
.LeftFoot-Rabbit0fil0 {fill:none}
    
.LeftFoot-Rabbit0fil28 {fill:black;fill-rule:nonzero}
    
.LeftLeg-Rabbit5fil45 {fill:url(#LeftLeg-Rabbit5id8)}
    
.LeftLeg-Rabbit5fil27 {fill:#ffe5bf}
    
.LeftLeg-Rabbit5fil10 {fill:black;fill-opacity:0.200000}
    
.LeftLeg-Rabbit5fil28 {fill:black;fill-rule:nonzero}
    
.RightHand-Rabbit0fil46 {fill:url(#RightHand-Rabbit0id27)}
    
.RightHand-Rabbit0fil10 {fill:black;fill-opacity:0.200000}
    
.RightHand-Rabbit0fil0 {fill:none}
    
.RightHand-Rabbit0str0 {stroke:black;stroke-width:150;stroke-linecap:round;stroke-linejoin:round;stroke-miterlimit:22.9256}
    
.RightPaw-Rabbit1fil50 {fill:url(#RightPaw-Rabbit1id45)}
    
.RightPaw-Rabbit1fil10 {fill:black;fill-opacity:0.200000}
    
.RightPaw-Rabbit1fil28 {fill:black;fill-rule:nonzero}
    
.LeftHand-Rabbit0fil52 {fill:url(#LeftHand-Rabbit0id173)}
    
.LeftHand-Rabbit0fil10 {fill:black;fill-opacity:0.200000}
    
.LeftHand-Rabbit0fil0 {fill:none}
    
.LeftHand-Rabbit0str0 {stroke:black;stroke-width:150;stroke-linecap:round;stroke-linejoin:round;stroke-miterlimit:22.9256}
    
.Body-Rabbit3fil58 {fill:url(#Body-Rabbit3id42)}
    
.Body-Rabbit3fil10 {fill:black;fill-opacity:0.200000}
    
.Body-Rabbit3fil28 {fill:black;fill-rule:nonzero}
    
.Body-Rabbit3fil27 {fill:#ffe5bf}
    
.LeftPaw-Rabbit1fil64 {fill:url(#LeftPaw-Rabbit1id2)}
    
.LeftPaw-Rabbit1fil10 {fill:black;fill-opacity:0.200000}
    
.LeftPaw-Rabbit1fil28 {fill:black;fill-rule:nonzero}
    
.Head-Rabbit3fil173 {fill:url(#Head-Rabbit3id281)}
    
.Head-Rabbit3fil10 {fill:black;fill-opacity:0.200000}
    
.Head-Rabbit3fil28 {fill:black;fill-rule:nonzero}
    
.Head-Rabbit3fil174 {fill:url(#Head-Rabbit3id25)}
    
.Mouth-Rabbit4fil195 {fill:url(#Mouth-Rabbit4id109)}
    
.Mouth-Rabbit4str0 {stroke:black;stroke-width:150;stroke-linecap:round;stroke-linejoin:round;stroke-miterlimit:22.9256}
    
.Mouth-Rabbit4fil10 {fill:black;fill-opacity:0.200000}
    
.Mouth-Rabbit4fil0 {fill:none}
    
.Mouth-Rabbit4fil192 {fill:black}
    
.Mouth-Rabbit4fil196 {fill:url(#Mouth-Rabbit4id107)}
    
.Eyes-Rabbit0fil208 {fill:url(#Eyes-Rabbit0id41)}
    
.Eyes-Rabbit0fil209 {fill:url(#Eyes-Rabbit0id100)}
    
.Eyes-Rabbit0fil210 {fill:url(#Eyes-Rabbit0id286)}
    
.Eyes-Rabbit0fil0 {fill:none}
    
.Eyes-Rabbit0str0 {stroke:black;stroke-width:150;stroke-linecap:round;stroke-linejoin:round;stroke-miterlimit:22.9256}
    
.Eyes-Rabbit0fil189 {fill:black;fill-opacity:0.501961}
    
.Eyes-Rabbit0fil211 {fill:white}
    
.Eyes-Rabbit0fil212 {fill:url(#Eyes-Rabbit0id44)}
    
.Eyes-Rabbit0fil213 {fill:url(#Eyes-Rabbit0id101)}
    
.Eyes-Rabbit0fil214 {fill:url(#Eyes-Rabbit0id270)}
    
.Moustache-Rabbit0fil0 {fill:none}
    
.Nose-Rabbit0fil320 {fill:url(#Nose-Rabbit0id300)}
    
.Nose-Rabbit0str0 {stroke:black;stroke-width:150;stroke-linecap:round;stroke-linejoin:round;stroke-miterlimit:22.9256}
    
</style><linearGradient gradientUnits="userSpaceOnUse" id="BraceletLeather-Mediumid14new" x1="8682.96" x2="8745.92" y1="19682.8" y2="19053.1">
   <stop offset="0" style="stop-opacity:1; stop-color:#683501"/>
   <stop offset="1" style="stop-opacity:1; stop-color:#B08227"/>
  </linearGradient><linearGradient gradientUnits="userSpaceOnUse" id="BraceletLeather-Mediumid88new" x1="8626.8" x2="8294.02" xlink:href="#BraceletLeather-Mediumid14new" y1="19859" y2="19314.4">
  </linearGradient><linearGradient gradientUnits="userSpaceOnUse" id="BraceletLeather-Mediumid672new" x1="8784.44" x2="10049.5" y1="19759" y2="20796.3">
   <stop offset="0" style="stop-opacity:1; stop-color:#643300"/>
   <stop offset="0.321569" style="stop-opacity:1; stop-color:#B5872A"/>
   <stop offset="1" style="stop-opacity:1; stop-color:#643300"/>
  </linearGradient><linearGradient gradientUnits="userSpaceOnUse" id="BraceletLeather-Mediumid15new" x1="18680.9" x2="18617.9" xlink:href="#BraceletLeather-Mediumid14new" y1="19682.8" y2="19053.1">
  </linearGradient><linearGradient gradientUnits="userSpaceOnUse" id="BraceletLeather-Mediumid207new" x1="18737" x2="19069.8" xlink:href="#BraceletLeather-Mediumid14new" y1="19859" y2="19314.4">
  </linearGradient><linearGradient gradientUnits="userSpaceOnUse" id="BraceletLeather-Mediumid690new" x1="18579.4" x2="17314.3" xlink:href="#BraceletLeather-Mediumid672new" y1="19759" y2="20796.3">
  </linearGradient><linearGradient gradientUnits="userSpaceOnUse" id="NecklaceYinYangid676new" x1="13681.9" x2="13681.9" xlink:href="#NecklaceYinYangid669new" y1="17208" y2="20390.5">
  </linearGradient><linearGradient gradientUnits="userSpaceOnUse" id="NecklaceYinYangid677new" x1="11189" x2="11399.5" xlink:href="#NecklaceYinYangid669new" y1="18603.5" y2="18002.2">
  </linearGradient><linearGradient gradientUnits="userSpaceOnUse" id="NecklaceYinYangid705new" x1="16170.9" x2="15961.3" xlink:href="#NecklaceYinYangid669new" y1="18602.8" y2="18004">
  </linearGradient><linearGradient gradientUnits="userSpaceOnUse" id="NecklaceYinYangid685new" x1="15099" x2="14900.7" xlink:href="#NecklaceYinYangid669new" y1="19895.5" y2="19273.3">
  </linearGradient><linearGradient gradientUnits="userSpaceOnUse" id="NecklaceYinYangid101new" x1="13681.9" x2="13681.9" y1="20483.4" y2="19943.6">
   <stop offset="0" style="stop-opacity:1; stop-color:#2B2A29"/>
   <stop offset="1" style="stop-opacity:1; stop-color:#ffe5bf"/>
  </linearGradient><linearGradient gradientUnits="userSpaceOnUse" id="HatFedora-Mediumid9" x1="7659.63" x2="19704.3" xlink:href="#HatFedora-Mediumid7" y1="10519.2" y2="10519.2">
  </linearGradient><linearGradient gradientUnits="userSpaceOnUse" id="HatFedora-Mediumid5" x1="7309.93" x2="20053.9" xlink:href="#HatFedora-Mediumid3" y1="9314.49" y2="13151.8">
  </linearGradient><linearGradient gradientUnits="userSpaceOnUse" id="HatFedora-Mediumid21" x1="5667.01" x2="10810.5" xlink:href="#HatFedora-Mediumid8" y1="10845" y2="11626.8">
  </linearGradient><linearGradient gradientUnits="userSpaceOnUse" id="HatFedora-Mediumid18" x1="16553.4" x2="21696.8" xlink:href="#HatFedora-Mediumid13" y1="10845" y2="11626.8">
  </linearGradient><linearGradient gradientUnits="userSpaceOnUse" id="HatFedora-Mediumid25" x1="8895.72" x2="18468.2" xlink:href="#HatFedora-Mediumid3" y1="6260.45" y2="10415.4">
  </linearGradient><linearGradient gradientUnits="userSpaceOnUse" id="RightLeg-Rabbit5id9" x1="16126.23" x2="15277.41" xlink:href="#RightLeg-Rabbit5id8" y1="24257.64" y2="21207.22">
  </linearGradient><linearGradient gradientUnits="userSpaceOnUse" id="LeftLeg-Rabbit5id8" x1="11237.69" x2="12086.51" y1="24257.64" y2="21207.22">
   <stop offset="0" style="stop-opacity:1; stop-color:#8e8c9a"/>
   <stop offset="0.180392" style="stop-opacity:1; stop-color:#8e8c9a"/>
   <stop offset="0.501961" style="stop-opacity:1; stop-color:#b3b3b3"/>
   <stop offset="1" style="stop-opacity:1; stop-color:#b3b3b3"/>
  </linearGradient><linearGradient gradientUnits="objectBoundingBox" id="RightHand-Rabbit0id27" x1="34.0586%" x2="65.9414%" xlink:href="#RightHand-Rabbit0id26" y1="2.36576%" y2="97.6342%">
  </linearGradient><linearGradient gradientUnits="userSpaceOnUse" id="RightPaw-Rabbit1id45" x1="17533.67" x2="19153.07" xlink:href="#RightPaw-Rabbit1id1" y1="21110.79" y2="20547.53">
  </linearGradient><linearGradient gradientUnits="objectBoundingBox" id="LeftHand-Rabbit0id173" x1="73.7265%" x2="26.114%" xlink:href="#LeftHand-Rabbit0id26" y1="4.01633%" y2="96.2351%">
  </linearGradient><linearGradient gradientUnits="objectBoundingBox" id="Body-Rabbit3id42" x1="50%" x2="50%" y1="2.16557e-14%" y2="100%">
   <stop offset="0" style="stop-opacity:1; stop-color:#656373"/>
   <stop offset="0.0313725" style="stop-opacity:1; stop-color:#656373"/>
   <stop offset="0.529412" style="stop-opacity:1; stop-color:#8e8c9a"/>
   <stop offset="1" style="stop-opacity:1; stop-color:#b3b3b3"/>
  </linearGradient><linearGradient gradientUnits="userSpaceOnUse" id="LeftPaw-Rabbit1id2" x1="8404.11" x2="9636.83" xlink:href="#LeftPaw-Rabbit1id1" y1="21497.53" y2="20160.79">
  </linearGradient><linearGradient gradientUnits="userSpaceOnUse" id="Head-Rabbit3id281" x1="13235.31" x2="13235.31" xlink:href="#Head-Rabbit3id221" y1="18004.13" y2="7484.8">
  </linearGradient><linearGradient gradientUnits="userSpaceOnUse" id="Head-Rabbit3id25" x1="13681.94" x2="13681.94" xlink:href="#Head-Rabbit3id23" y1="15241.38" y2="13477.6">
  </linearGradient><linearGradient gradientUnits="userSpaceOnUse" id="Mouth-Rabbit4id109" x1="13956.31" x2="13956.31" xlink:href="#Mouth-Rabbit4id81" y1="15946.36" y2="16898.64">
  </linearGradient><linearGradient gradientUnits="userSpaceOnUse" id="Mouth-Rabbit4id107" x1="13407.53" x2="13407.53" xlink:href="#Mouth-Rabbit4id81" y1="15946.36" y2="16898.64">
  </linearGradient><linearGradient gradientUnits="userSpaceOnUse" id="Eyes-Rabbit0id41" x1="17102.45" x2="17102.45" y1="15038.45" y2="11047.09">
   <stop offset="0" style="stop-opacity:1; stop-color:#805900"/>
   <stop offset="1" style="stop-opacity:1; stop-color:black"/>
  </linearGradient><linearGradient gradientUnits="userSpaceOnUse" id="Eyes-Rabbit0id100" x1="15382.04" x2="18287.3" xlink:href="#Eyes-Rabbit0id85" y1="12837.5" y2="12837.5">
  </linearGradient><linearGradient gradientUnits="userSpaceOnUse" id="Eyes-Rabbit0id286" x1="16332.51" x2="16332.51" xlink:href="#Eyes-Rabbit0id84" y1="10943.71" y2="14289.17">
  </linearGradient><linearGradient gradientUnits="userSpaceOnUse" id="Eyes-Rabbit0id44" x1="10261.43" x2="10261.43" xlink:href="#Eyes-Rabbit0id41" y1="15038.45" y2="11047.09">
  </linearGradient><linearGradient gradientUnits="userSpaceOnUse" id="Eyes-Rabbit0id101" x1="9076.59" x2="11981.85" xlink:href="#Eyes-Rabbit0id85" y1="12837.5" y2="12837.5">
  </linearGradient><linearGradient gradientUnits="userSpaceOnUse" id="Eyes-Rabbit0id270" x1="10637.39" x2="10637.39" xlink:href="#Eyes-Rabbit0id84" y1="10943.71" y2="14289.17">
  </linearGradient><linearGradient gradientUnits="userSpaceOnUse" id="Nose-Rabbit0id300" x1="12846.46" x2="12948.19" y1="14801.53" y2="15641.16">
   <stop offset="0" style="stop-opacity:1; stop-color:#FFCCCC"/>
   <stop offset="1" style="stop-opacity:1; stop-color:#DB9092"/>
  </linearGradient><linearGradient gradientUnits="userSpaceOnUse" id="NecklaceYinYangid669new" x1="12270.9" x2="12467.6" y1="19894.7" y2="19277.5">
   <stop offset="0" style="stop-opacity:1; stop-color:#643300"/>
   <stop offset="1" style="stop-opacity:1; stop-color:#AB7D2D"/>
  </linearGradient><linearGradient gradientUnits="userSpaceOnUse" id="HatFedora-Mediumid7" x1="8510.55" x2="18853.4" y1="11561.2" y2="11561.2">
   <stop offset="0" style="stop-opacity:1; stop-color:#343434"/>
   <stop offset="0.231373" style="stop-opacity:1; stop-color:#2B2B2B"/>
   <stop offset="0.709804" style="stop-opacity:1; stop-color:#787878"/>
   <stop offset="1" style="stop-opacity:1; stop-color:#414142"/>
  </linearGradient><linearGradient gradientUnits="userSpaceOnUse" id="HatFedora-Mediumid3" x1="7309.93" x2="20053.9" y1="8514.49" y2="12351.8">
   <stop offset="0" style="stop-opacity:1; stop-color:#573410"/>
   <stop offset="0.478431" style="stop-opacity:1; stop-color:#A6794E"/>
   <stop offset="0.768627" style="stop-opacity:1; stop-color:#C8A77A"/>
   <stop offset="1" style="stop-opacity:1; stop-color:#A88460"/>
  </linearGradient><linearGradient gradientUnits="userSpaceOnUse" id="HatFedora-Mediumid8" x1="6799.48" x2="11216.2" y1="11840.9" y2="12512.2">
   <stop offset="0" style="stop-opacity:1; stop-color:#805325"/>
   <stop offset="0.768627" style="stop-opacity:1; stop-color:#C8A77A"/>
   <stop offset="1" style="stop-opacity:1; stop-color:#A88460"/>
  </linearGradient><linearGradient gradientUnits="userSpaceOnUse" id="HatFedora-Mediumid13" x1="16553.4" x2="21696.8" y1="10045" y2="10826.8">
   <stop offset="0" style="stop-opacity:1; stop-color:#805325"/>
   <stop offset="0.768627" style="stop-opacity:1; stop-color:#E8C697"/>
   <stop offset="1" style="stop-opacity:1; stop-color:#B8936E"/>
  </linearGradient><linearGradient gradientUnits="userSpaceOnUse" id="RightLeg-Rabbit5id8" x1="11237.69" x2="12086.51" y1="24257.64" y2="21207.22">
   <stop offset="0" style="stop-opacity:1; stop-color:#8e8c9a"/>
   <stop offset="0.180392" style="stop-opacity:1; stop-color:#8e8c9a"/>
   <stop offset="0.501961" style="stop-opacity:1; stop-color:#b3b3b3"/>
   <stop offset="1" style="stop-opacity:1; stop-color:#b3b3b3"/>
  </linearGradient><linearGradient gradientUnits="userSpaceOnUse" id="RightHand-Rabbit0id26" x1="16087.42" x2="17274.71" y1="17785.04" y2="20860.85">
   <stop offset="0" style="stop-opacity:1; stop-color:#656373"/>
   <stop offset="0.878431" style="stop-opacity:1; stop-color:#8e8c9a"/>
   <stop offset="1" style="stop-opacity:1; stop-color:#8e8c9a"/>
  </linearGradient><linearGradient gradientUnits="userSpaceOnUse" id="RightPaw-Rabbit1id1" x1="13681.94" x2="13681.94" y1="17582.76" y2="9785.49">
   <stop offset="0" style="stop-opacity:1; stop-color:#657886"/>
   <stop offset="1" style="stop-opacity:1; stop-color:#93a3ad"/>
  </linearGradient><linearGradient gradientUnits="userSpaceOnUse" id="LeftHand-Rabbit0id26" x1="16087.42" x2="17274.71" y1="17785.04" y2="20860.85">
   <stop offset="0" style="stop-opacity:1; stop-color:#656373"/>
   <stop offset="0.878431" style="stop-opacity:1; stop-color:#8e8c9a"/>
   <stop offset="1" style="stop-opacity:1; stop-color:#8e8c9a"/>
  </linearGradient><linearGradient gradientUnits="userSpaceOnUse" id="LeftPaw-Rabbit1id1" x1="13681.94" x2="13681.94" y1="17582.76" y2="9785.49">
   <stop offset="0" style="stop-opacity:1; stop-color:#657886"/>
   <stop offset="1" style="stop-opacity:1; stop-color:#93a3ad"/>
  </linearGradient><linearGradient gradientUnits="userSpaceOnUse" id="Head-Rabbit3id221" x1="16765.71" x2="20913.82" y1="3487.2" y2="8549.49">
   <stop offset="0" style="stop-opacity:1; stop-color:#656373"/>
   <stop offset="0.0313725" style="stop-opacity:1; stop-color:#656373"/>
   <stop offset="0.321569" style="stop-opacity:1; stop-color:#8e8c9a"/>
   <stop offset="1" style="stop-opacity:1; stop-color:#b3b3b3"/>
  </linearGradient><linearGradient gradientUnits="userSpaceOnUse" id="Head-Rabbit3id23" x1="13681.92" x2="13681.92" y1="22974.87" y2="18143.76">
   <stop offset="0" style="stop-opacity:1; stop-color:#ffe5bf"/>
   <stop offset="0.658824" style="stop-opacity:1; stop-color:#ffe5bf"/>
   <stop offset="1" style="stop-opacity:1; stop-color:#f2d5aa"/>
  </linearGradient><linearGradient gradientUnits="userSpaceOnUse" id="Mouth-Rabbit4id81" x1="13402.39" x2="13402.39" y1="15588.37" y2="16582.43">
   <stop offset="0" style="stop-opacity:1; stop-color:#D6D6D6"/>
   <stop offset="0.6" style="stop-opacity:1; stop-color:white"/>
   <stop offset="1" style="stop-opacity:1; stop-color:#ffe5bf"/>
  </linearGradient><linearGradient gradientUnits="userSpaceOnUse" id="Eyes-Rabbit0id85" x1="8896.68" x2="12138.14" y1="13030.37" y2="13030.37">
   <stop offset="0" style="stop-opacity:1; stop-color:#805900"/>
   <stop offset="0.501961" style="stop-opacity:1; stop-color:#ffc029"/>
   <stop offset="1" style="stop-opacity:1; stop-color:#805900"/>
  </linearGradient><linearGradient gradientUnits="userSpaceOnUse" id="Eyes-Rabbit0id84" x1="16563.56" x2="16563.56" y1="11311.33" y2="14277.21">
   <stop offset="0" style="stop-opacity:1; stop-color:black"/>
   <stop offset="0.4" style="stop-opacity:1; stop-color:black"/>
   <stop offset="1" style="stop-opacity:1; stop-color:#664700"/>
  </linearGradient></defs><g id="RightFoot-Rabbit0">
  <metadata id="CorelCorpID_4Corel-Layer"/>
  <path class="RightFoot-Rabbit0fil27" d="M17611.19 25439.21c-123.56,214.04 -403.48,285.33 -610.7,105.88 -70.65,70.23 -293.11,185.78 -526.32,65.76 -538.29,-277.03 -1055.04,-639.06 -1398.31,-887.33 -220.49,-159.46 -188.05,-525.91 -70.64,-700.58 363.68,340.29 782.66,-165.21 1075.55,-247.93 373.84,-101.68 736.94,157.82 534.63,412.54 198.78,95.76 1024.55,447.2 1177.27,620.9 168.78,191.95 120.75,630.76 -181.48,630.76z" style="fill:#5c9569"/>
  <path class="RightFoot-Rabbit0fil10" d="M17619.89 25467.81c-123.56,214.04 -392.89,285.33 -600.11,105.88 -263.27,261.71 -916.66,-12.43 -1207.68,-387.7 -314.79,-217.24 -676.79,-421.62 -795.64,-500.03 -156.12,-103 -53.19,-398.33 -20.96,-584.15 17.85,-13.98 36.32,-26.67 55.45,-37.83 -59.89,533.31 1968.85,1766.03 1957.44,1098.35 213.34,341.57 585.05,186.16 533.82,-150.27 126.71,133.91 271.29,-14.39 142.78,-274 182.48,62.12 215.54,288.03 209.67,440.56 -17.28,153.49 -106.7,289.19 -274.77,289.19z" style="fill:#b9a794"/>
  <path class="RightFoot-Rabbit0fil0" d="M16655.48 24185.7c277.12,231.33 479.91,239.56 632.6,413.23 168.75,191.92 120.75,630.76 -181.48,630.76 -123.56,214.04 -403.48,285.33 -610.7,105.88 -70.65,70.23 -276.53,145.76 -526.32,65.76 -409.3,-131.08 -519.97,-488.94 -871.1,-725.96 -156.04,-105.33 -138.82,-331.38 -109.24,-523.93" style="fill:#9d2b0e"/>
  <path class="RightFoot-Rabbit0fil28" d="M16703.53 24128.28c-32.23,14.49 -151.74,68.29 -96.1,114.84 143.13,119.49 265.97,181.45 373.06,235.47 99.11,49.99 720.41,275.03 788.45,352.42 80.91,92.01 97.3,255.88 55.21,369.54 -18.07,48.79 -77.99,123.14 -125.37,147 7.55,-268.78 -114.77,-534.12 -402.24,-526.25 186.74,95.17 268.32,253.8 247.69,592.25 -49.04,79.15 -127.69,137.43 -219.87,155.2 -79.73,15.37 -160.2,-1.74 -228.24,-45.5 38.29,-218.05 10.29,-483.64 -289.14,-537.54 139.24,98.32 162.69,330.02 141.92,510.69 -31.45,29.61 -97.92,60.43 -188.69,71.77 -74.89,9.35 -163.69,4.41 -259.78,-26.36 -221.4,-70.9 -389.39,-150.77 -526.67,-306.64 -103.47,-117.46 -723.13,-457.1 -875.28,-559.8 -56.89,-38.4 -106.48,-200.43 -115.52,-274.13 -5.91,-48.16 -12.39,-90.93 -7.5,-133.2 3.75,-32.35 5.98,-48.97 23.54,-102.83 14.63,-97.52 -109.65,-115.23 -144.78,-21.39 -12.89,39.53 -20.74,74.23 -25.45,109.36 -7,52.14 -2.13,105.01 5.37,166.22 13.96,113.78 81.43,313.29 180.56,380.19 136.05,91.83 749.3,424.19 846.56,534.6 151.08,171.53 332.23,266.34 593.47,350 119.65,38.32 230.28,44.46 323.64,32.8 92.59,-11.56 170.46,-41.41 225.37,-75.73 103.09,69.99 225.69,98.3 348.74,74.57 124.29,-23.96 233.03,-98.13 304.52,-201.86 136.16,-15.63 261.32,-136.4 307.77,-261.86 61.19,-165.25 34.13,-386.54 -83.33,-520.12 -86.71,-98.62 -720.16,-329.8 -833.57,-387 -99.73,-50.31 -214.13,-108.01 -344.34,-216.71z" style="fill:#46b6a6"/>
 </g><g id="LeftFoot-Rabbit0">
  <metadata id="CorelCorpID_13Corel-Layer"/>
  <path class="LeftFoot-Rabbit0fil27" d="M9752.69 25439.21c123.56,214.04 403.48,285.33 610.7,105.88 70.65,70.23 276.53,145.75 526.32,65.76 409.29,-131.08 1021.6,-618.6 1364.87,-866.87 220.49,-159.46 204.8,-507.21 104.08,-721.04 -363.68,340.29 -782.66,-165.21 -1075.55,-247.93 -373.84,-101.68 -736.94,157.82 -534.63,412.54 -198.78,95.76 -1024.55,447.2 -1177.27,620.9 -168.78,191.95 -120.75,630.76 181.48,630.76z" style="fill:#225906"/>
  <path class="LeftFoot-Rabbit0fil10" d="M9743.99 25467.81c123.56,214.04 392.89,285.33 600.11,105.88 263.27,261.71 916.66,-12.43 1207.68,-387.7 314.79,-217.24 676.79,-421.62 795.64,-500.03 156.12,-103 53.19,-398.33 20.96,-584.15 -17.85,-13.98 -36.32,-26.67 -55.45,-37.83 59.89,533.31 -1968.85,1766.03 -1957.44,1098.35 -213.34,341.57 -585.05,186.16 -533.82,-150.27 -126.71,133.91 -271.29,-14.39 -142.78,-274 -182.48,62.12 -215.54,288.03 -209.67,440.56 17.28,153.49 106.7,289.19 274.77,289.19z" style="fill:#cabbae"/>
  <path class="LeftFoot-Rabbit0fil0" d="M10708.4 24185.7c-277.12,231.33 -479.91,239.56 -632.6,413.23 -168.75,191.92 -120.75,630.76 181.48,630.76 123.56,214.04 403.48,285.33 610.7,105.88 70.65,70.23 276.53,145.76 526.32,65.76 409.3,-131.08 519.97,-488.94 871.1,-725.96 156.04,-105.33 138.82,-331.38 109.24,-523.93" style="fill:#6a9ab9"/>
  <path class="LeftFoot-Rabbit0fil28" d="M10660.35 24128.28c32.23,14.49 151.74,68.29 96.1,114.84 -143.13,119.49 -265.97,181.45 -373.06,235.47 -99.11,49.99 -720.41,275.03 -788.45,352.42 -80.91,92.01 -97.3,255.88 -55.21,369.54 18.07,48.79 77.99,123.14 125.37,147 -7.55,-268.78 114.77,-534.12 402.24,-526.25 -186.74,95.17 -268.32,253.8 -247.69,592.25 49.04,79.15 127.69,137.43 219.87,155.2 79.73,15.37 160.2,-1.74 228.24,-45.5 -38.29,-218.05 -10.29,-483.64 289.14,-537.54 -139.24,98.32 -162.69,330.02 -141.92,510.69 31.45,29.61 97.92,60.43 188.69,71.77 74.89,9.35 163.69,4.41 259.78,-26.36 221.4,-70.9 389.39,-150.77 526.67,-306.64 103.47,-117.46 723.13,-457.1 875.28,-559.8 56.89,-38.4 106.48,-200.43 115.52,-274.13 5.91,-48.16 12.39,-90.93 7.5,-133.2 -3.75,-32.35 -5.98,-48.97 -23.54,-102.83 -14.63,-97.52 109.65,-115.23 144.78,-21.39 12.89,39.53 20.74,74.23 25.45,109.36 7,52.14 2.13,105.01 -5.37,166.22 -13.96,113.78 -81.43,313.29 -180.56,380.19 -136.05,91.83 -749.3,424.19 -846.56,534.6 -151.08,171.53 -332.23,266.34 -593.47,350 -119.65,38.32 -230.28,44.46 -323.64,32.8 -92.59,-11.56 -170.46,-41.41 -225.37,-75.73 -103.09,69.99 -225.69,98.3 -348.74,74.57 -124.29,-23.96 -233.03,-98.13 -304.52,-201.86 -136.16,-15.63 -261.32,-136.4 -307.77,-261.86 -61.19,-165.25 -34.13,-386.54 83.33,-520.12 86.71,-98.62 720.16,-329.8 833.57,-387 99.73,-50.31 214.13,-108.01 344.34,-216.71z" style="fill:#2af360"/>
 </g><g id="RightLeg-Rabbit5">
  <metadata id="CorelCorpID_12Corel-Layer"/>
  <path class="RightLeg-Rabbit5fil36" d="M13682 23259.3c350.13,0 1187.72,54.86 1405.45,467.27 87.54,165.8 -123.6,236.81 -55.98,329.08 214.87,221.86 636.02,309.24 894.44,108.39 312.34,-242.74 729.63,-235.28 737.22,-16.12 150.3,-63.23 398.99,-283.43 427.82,-382.75 416.85,68.7 605.41,-369.65 363.13,-827.7 40.25,-68.57 320.31,-132.71 258.75,-303.64 -232.51,-645.56 -883.05,-868.09 -1382.72,-1445.61 -621.48,859.57 -1470.39,1269.07 -2648.11,1328.08l0 743z" style="fill:#37c030"/>
  <path class="RightLeg-Rabbit5fil27" d="M14251.63 23224.86c-8.59,41.93 429.53,60.11 873.34,-83.65 248.02,-80.34 475.25,-69.27 634.35,-45.57 273.92,40.81 333.17,247.73 181.71,355.49 144.47,-2.89 410.95,19.95 460.75,116.11 169.67,327.65 -344.19,493.17 -502.92,616.54 -258.45,200.87 -680.63,73.48 -895.5,-148.38 -9.31,-12.7 -13.63,-25.02 -14.44,-37.26l0 -0.03c36.41,-85.22 105.37,-71.83 98.53,-271.54 -6.84,-199.71 -835.82,-501.71 -835.82,-501.71z" style="fill:#163afe"/>
  <path class="RightLeg-Rabbit5fil10" d="M17090.95 23765.17c261.39,31.13 489.47,-175.85 415.11,-754.37 -6.91,-53.74 -81.86,-153.61 -28.23,-159.66 108.73,-12.26 253.38,-193.74 187.27,-332.27 -242.35,-507.83 -866.46,-876.4 -1106.76,-1096.6l-285.66 578.41c26.43,47.89 52.85,95.78 79.28,143.67 387.48,-413.26 1396.39,1116.5 738.99,1620.82z" style="fill:#37f84d"/>
  <path class="RightLeg-Rabbit5fil28" d="M13681.96 23156.77c0,53.89 0,70.23 0,150.29 1.05,-0.09 369.7,-11.33 754.7,102.19 128.96,38.03 326.86,124.14 481.95,220.11 121.28,75.04 227.25,140.61 294.6,161.31 67.97,20.91 336.72,117.86 720.21,19.22 -408.62,-65.2 -515.39,-112.7 -675.71,-162 -47.86,-14.71 -146.31,-75.63 -259,-145.36 -162.97,-100.83 -370.1,-192.66 -519.34,-236.67 -413.86,-122.04 -796.28,-109.25 -797.41,-109.09z" style="fill:#98f081"/>
  <path class="RightLeg-Rabbit5fil28" d="M14852.41 24149.58c-6.63,40.77 19.98,82.54 60.75,89.17 40.77,6.63 59.9,0.68 77.73,-47.56 3.27,-19.88 35.74,-71.71 63.2,-114.07 105.22,-162.3 243.27,-375.23 -65.46,-578.32 -34.46,-22.65 -80.77,-13.08 -103.42,21.38 -22.65,34.46 -13.08,80.77 21.38,103.42 184.59,121.43 92.39,263.67 22.1,372.08 -36.56,56.4 -63.62,104.09 -76.28,153.9z" style="fill:#3dca16"/>
  <path class="RightLeg-Rabbit5fil28" d="M16618.15 21476.2c-41.09,-4.2 -77.83,25.7 -82.03,66.79 -4.2,41.09 25.7,77.83 66.79,82.03 161.07,17.07 599.3,395.51 860.76,713.33 70.89,86.18 125.49,170.06 152.69,244.12 21.74,59.21 24.67,109.1 0.99,143.12 -80.54,115.74 -170.49,97.44 -297.91,120.65 55.67,47.23 143.94,142.06 149.29,429.66 1.36,73.35 -7.17,148.15 -27.5,214.91 -19.1,62.7 -48.35,117.67 -89.21,155.91 -129.91,121.57 -258.85,44.88 -280.15,26.9 -207.8,345.92 -607.19,561.12 -737.55,625.09 263.74,5.24 468.46,-146.87 542.68,-205.35 95.54,-75.28 167.25,-154.35 243.07,-245.86 142.95,23.4 252.79,-15.89 333.91,-91.8 61.44,-57.51 103.92,-135.23 130.21,-221.53 25.05,-82.24 35.59,-172.84 33.96,-260.61 -2.35,-125.87 -31.1,-248.72 -79.35,-337.97 97.33,-25.49 162.64,-68.49 201.59,-124.46 54.87,-78.85 55.16,-175.19 16.59,-280.22 -33.11,-90.17 -96.56,-188.62 -177.89,-287.48 -281.15,-341.75 -772.97,-747.31 -960.94,-767.23z" style="fill:#063db1"/>
 </g><g id="LeftLeg-Rabbit5">
  <metadata id="CorelCorpID_21Corel-Layer"/>
  <g id="_2131616278096">
   <path class="LeftLeg-Rabbit5fil45" d="M13681.92 23259.3c-350.13,0 -1187.72,54.86 -1405.45,467.27 -87.54,165.8 123.6,236.81 55.98,329.08 -214.87,221.86 -636.02,309.24 -894.44,108.39 -312.34,-242.74 -729.63,-235.28 -737.22,-16.12 -150.3,-63.23 -398.99,-283.43 -427.82,-382.75 -416.85,68.7 -605.41,-369.65 -363.13,-827.7 -40.25,-68.57 -320.31,-132.71 -258.75,-303.64 232.51,-645.56 883.05,-868.09 1382.72,-1445.61 621.48,859.57 1470.39,1269.07 2648.11,1328.08l0 743z" style="fill:#6f1814"/>
   <path class="LeftLeg-Rabbit5fil27" d="M13112.29 23224.86c8.59,41.93 -429.53,60.11 -873.34,-83.65 -248.02,-80.34 -475.25,-69.27 -634.35,-45.57 -273.92,40.81 -333.17,247.73 -181.71,355.49 -144.47,-2.89 -410.95,19.95 -460.75,116.11 -169.67,327.65 344.19,493.17 502.92,616.54 258.45,200.87 680.63,73.48 895.5,-148.38 9.31,-12.7 13.63,-25.02 14.44,-37.26l0 -0.03c-36.41,-85.22 -105.37,-71.83 -98.53,-271.54 6.84,-199.71 835.82,-501.71 835.82,-501.71z" style="fill:#ccef14"/>
   <path class="LeftLeg-Rabbit5fil10" d="M10272.97 23765.17c-261.39,31.13 -489.47,-175.85 -415.11,-754.37 6.91,-53.74 81.86,-153.61 28.23,-159.66 -108.73,-12.26 -253.38,-193.74 -187.27,-332.27 242.35,-507.83 866.46,-876.4 1106.76,-1096.6l285.66 578.41c-26.43,47.89 -52.85,95.78 -79.28,143.67 -387.48,-413.26 -1396.39,1116.5 -738.99,1620.82z" style="fill:#4070c2"/>
   <path class="LeftLeg-Rabbit5fil28" d="M13681.96 23156.77c0,53.89 0,70.23 0,150.29 -1.05,-0.09 -369.7,-11.33 -754.7,102.19 -128.96,38.03 -326.86,124.14 -481.95,220.11 -121.28,75.04 -227.25,140.61 -294.6,161.31 -67.97,20.91 -336.72,117.86 -720.21,19.22 408.62,-65.2 515.39,-112.7 675.71,-162 47.86,-14.71 146.31,-75.63 259,-145.36 162.97,-100.83 370.1,-192.66 519.34,-236.67 413.86,-122.04 796.28,-109.25 797.41,-109.09z" style="fill:#d54383"/>
   <path class="LeftLeg-Rabbit5fil28" d="M12511.51 24149.58c6.63,40.77 -19.98,82.54 -60.75,89.17 -40.77,6.63 -59.9,0.68 -77.73,-47.56 -3.27,-19.88 -35.74,-71.71 -63.2,-114.07 -105.22,-162.3 -243.27,-375.23 65.46,-578.32 34.46,-22.65 80.77,-13.08 103.42,21.38 22.65,34.46 13.08,80.77 -21.38,103.42 -184.59,121.43 -92.39,263.67 -22.1,372.08 36.56,56.4 63.62,104.09 76.28,153.9z" style="fill:#2c5999"/>
   <path class="LeftLeg-Rabbit5fil28" d="M10745.77 21476.2c41.09,-4.2 77.83,25.7 82.03,66.79 4.2,41.09 -25.7,77.83 -66.79,82.03 -161.07,17.07 -599.3,395.51 -860.76,713.33 -70.89,86.18 -125.49,170.06 -152.69,244.12 -21.74,59.21 -24.67,109.1 -0.99,143.12 80.54,115.74 170.49,97.44 297.91,120.65 -55.67,47.23 -143.94,142.06 -149.29,429.66 -1.36,73.35 7.17,148.15 27.5,214.91 19.1,62.7 48.35,117.67 89.21,155.91 129.91,121.57 258.85,44.88 280.15,26.9 207.8,345.92 607.19,561.12 737.55,625.09 -263.74,5.24 -468.46,-146.87 -542.68,-205.35 -95.54,-75.28 -167.25,-154.35 -243.07,-245.86 -142.95,23.4 -252.79,-15.89 -333.91,-91.8 -61.44,-57.51 -103.92,-135.23 -130.21,-221.53 -25.05,-82.24 -35.59,-172.84 -33.96,-260.61 2.35,-125.87 31.1,-248.72 79.35,-337.97 -97.33,-25.49 -162.64,-68.49 -201.59,-124.46 -54.87,-78.85 -55.16,-175.19 -16.59,-280.22 33.11,-90.17 96.56,-188.62 177.89,-287.48 281.15,-341.75 772.97,-747.31 960.94,-767.23z" style="fill:#68de73"/>
  </g>
 </g><g id="RightHand-Rabbit0">
  <animateTransform additive="sum" attributeName="transform" dur="10" repeatCount="indefinite" type="translate" values="0;0 200;0;0 200;0;0 200;0;0 200;0"/>
  <metadata id="CorelCorpID_22Corel-Layer"/>
  <path class="RightHand-Rabbit0fil46" d="M16231.2 17708.66c1006.56,345.42 1818.61,1401.79 2256.58,2165.43 288.88,503.69 -636.05,1265.03 -911.19,1013.52 -627.05,-573.17 -1208.37,-619.78 -1688.45,-542.15 -741.88,119.97 -1352.69,-1920.87 -930.81,-2545.29 421.91,-21.63 933.51,-40.49 1273.87,-91.51z" style="fill:#c711da"/>
  <path class="RightHand-Rabbit0fil10" d="M17511.96 20830.3c-602.27,-518.8 -1160.28,-559.8 -1623.82,-484.84 -171.07,27.66 -335.13,-59.69 -481.2,-217.95 -325.13,-471.76 752.73,-1097.7 1038.62,-655.88 261.31,403.84 734.1,847.76 1111.39,1126.01 -1.79,93.3 16.27,193.39 -44.96,232.66l0 -0.01 -0.03 0.01z" style="fill:#e99b49"/>
  <path class="RightHand-Rabbit0fil0 RightHand-Rabbit0str0" d="M16476.95 20332.96c340.18,46.54 711.15,199.54 1099.64,554.65 275.13,251.49 1152.89,-508.63 864.02,-1012.31 -437.96,-763.63 -1202.86,-1821.23 -2209.41,-2166.64 -90.05,-30.9 -171.83,-58.83 -246.03,-84.05" style="fill:#156741"/>
 </g><g id="LeftHand-Rabbit0">
   <animateTransform additive="sum" attributeName="transform" dur="10" repeatCount="indefinite" type="translate" values="0;0 200;0;0 200;0;0 200;0;0 200;0"/>
  <metadata id="CorelCorpID_31Corel-Layer"/>
  <path class="LeftHand-Rabbit0fil52" d="M11132.64 17708.66c-1006.56,345.42 -1818.61,1401.79 -2256.58,2165.43 -288.88,503.69 636.05,1265.03 911.19,1013.52 627.05,-573.17 1208.37,-619.78 1688.45,-542.15 741.88,119.97 1352.69,-1920.87 930.81,-2545.29 -421.91,-21.63 -933.51,-40.49 -1273.87,-91.51z" style="fill:#8832f2"/>
  <path class="LeftHand-Rabbit0fil10" d="M9851.88 20830.3c602.27,-518.8 1160.28,-559.8 1623.82,-484.84 171.07,27.66 335.13,-59.69 481.2,-217.95 325.13,-471.76 -752.73,-1097.7 -1038.62,-655.88 -261.31,403.84 -734.1,847.76 -1111.39,1126.01 1.79,93.3 -16.27,193.39 44.96,232.66l0 -0.01 0.03 0.01z" style="fill:#ac5d15"/>
  <path class="LeftHand-Rabbit0fil0 LeftHand-Rabbit0str0" d="M10886.89 20332.96c-340.18,46.54 -711.15,199.54 -1099.64,554.65 -275.13,251.49 -1152.89,-508.63 -864.02,-1012.31 437.96,-763.63 1202.86,-1821.23 2209.41,-2166.64 90.05,-30.9 171.83,-58.83 246.03,-84.05" style="fill:#7d40cd"/>
 </g><g id="Body-Rabbit3">
   <animateTransform additive="sum" attributeName="transform" dur="10" repeatCount="indefinite" type="translate" values="0;0 200;0;0 200;0;0 200;0;0 200;0"/>
  <metadata id="CorelCorpID_40Corel-Layer"/>
  <path class="Body-Rabbit3fil58" d="M13681.92 23134.87c-1547.89,0 -2751.5,-290.59 -2992.7,-1955.85 -146.87,-1014.04 390.42,-2286.86 991,-3419.88 634.24,80.29 1288.94,123.26 2001.7,142.31 712.76,-19.05 1367.46,-62.02 2001.7,-142.31 600.58,1133.02 1137.87,2405.84 991,3419.88 -241.2,1665.26 -1444.81,1955.85 -2992.7,1955.85z" style="fill:#696ef8"/>
  <path class="Body-Rabbit3fil10" d="M12620.51 23067.29c-1015.93,-155.83 -1748.88,-628.88 -1931.29,-1888.27 -75.17,-519 28.96,-1105.79 228.98,-1706.93 -223.57,2000.42 401.77,3257.02 1702.31,3595.2z" style="fill:#2a4456"/>
  <path class="Body-Rabbit3fil28" d="M11011.96 22144.35c-249.8,-320.87 -347.52,-640.99 -396.86,-954.78 -59.27,-376.93 -23.8,-997.6 184.1,-1319.31 -78.5,420.39 -93.5,905.22 -35.86,1298.21 50,340.9 103.32,571.56 248.62,975.88z" style="fill:#ee80e9"/>
  <path class="Body-Rabbit3fil10" d="M14743.33 23067.29c1015.93,-155.83 1748.88,-628.88 1931.29,-1888.27 75.17,-519 -28.96,-1105.79 -228.98,-1706.93 223.57,2000.42 -401.77,3257.02 -1702.31,3595.2z" style="fill:#cb91f9"/>
  <path class="Body-Rabbit3fil28" d="M16351.92 22144.35c249.8,-320.87 347.52,-640.99 396.86,-954.78 59.27,-376.93 23.8,-997.6 -184.1,-1319.31 78.5,420.39 93.5,905.22 35.86,1298.21 -50,340.9 -103.32,571.56 -248.62,975.88z" style="fill:#abaa1c"/>
  <g id="_2131552578544">
   <path class="Body-Rabbit3fil10" d="M13681.94 21242.67c-321.97,-1236.78 -1012.02,-1464.52 -1632.11,-1843.67 -183.57,-112.25 -410.5,-305.64 -507.98,-514.9 -166.82,-358.14 -182.44,-850.06 296.94,-521.78 173.68,132.21 557.9,210.24 882.62,339.71 528.52,210.73 765.31,579.99 960.53,799.46 195.22,-219.47 432.01,-588.73 960.53,-799.46 324.72,-129.47 708.94,-207.5 882.62,-339.71 479.38,-328.28 463.76,163.64 296.94,521.78 -97.48,209.26 -324.41,402.65 -507.98,514.9 -620.09,379.15 -1310.14,606.89 -1632.11,1843.67z" style="fill:#651a1d"/>
   <path class="Body-Rabbit3fil27" d="M13681.94 20787.78c-321.97,-1109.96 -1012.02,-1314.35 -1632.11,-1654.62 -183.57,-100.74 -410.5,-274.3 -507.98,-462.11 -166.82,-321.41 -182.44,-762.89 296.94,-468.27 173.68,118.66 557.9,188.68 882.62,304.88 528.52,189.12 765.31,520.52 960.53,717.48 195.22,-196.96 432.01,-528.36 960.53,-717.48 324.72,-116.2 708.94,-186.22 882.62,-304.88 479.38,-294.62 463.76,146.86 296.94,468.27 -97.48,187.81 -324.41,361.37 -507.98,462.11 -620.09,340.27 -1310.14,544.66 -1632.11,1654.62z" style="fill:#516fd2"/>
  </g>
 </g><g id="RightPaw-Rabbit1">
  <animateTransform additive="sum" attributeName="transform" dur="10" repeatCount="indefinite" type="translate" values="0;0 200;0;0 200;0;0 200;0;0 200;0"/>
  <metadata id="CorelCorpID_29Corel-Layer"/>
  <path class="RightPaw-Rabbit1fil50" d="M17500.83 20836.37c-31.01,671.59 506.32,1058.8 828,765.31 253.5,397.35 884.17,103.39 809.26,-292.5 203.13,-535.14 -266.24,-1035.76 -634.19,-1325.08 -198.11,-64.5 -364.18,-247.68 -461.85,44.06 -113.97,340.43 -156.85,278.81 -402.23,397.75 -163.53,79.26 -10.67,351.89 -138.99,410.46z" style="fill:#288dda"/>
  <path class="RightPaw-Rabbit1fil10" d="M17500.83 20836.37c-31.01,671.59 506.32,1058.8 828,765.31 341.06,429.25 911,23.85 753.65,-292.7 -65.31,297.19 -520.59,407.83 -657.17,-118.23 -113.25,412.02 -522.03,237.66 -614.7,26.73 -95.14,-216.58 -44.81,-462.8 -253.66,-619.84 -1.8,93.31 16.28,193.4 -44.96,232.65l-0.16 0.1 -0.17 0.11c-1.48,0.93 -2.97,1.82 -4.53,2.69l-0.17 0.1 -0.18 0.09 -0.14 0.09 -0.03 0.01 -0.18 0.1 -0.17 0.09 -0.18 0.09c-1.69,0.92 -3.44,1.79 -5.25,2.61z" style="fill:#ec797b"/>
  <path class="RightPaw-Rabbit1fil28" d="M17436.91 20673.48c-79.39,-58.19 -167.86,62.52 -88.48,120.7 28.24,20.69 56.25,42.36 83.3,64.61 -3.93,302.02 99.68,551.64 246.17,712.18 55.54,60.86 117.82,109.47 183.4,143.86 145.9,76.49 311.53,82.65 453.24,-7.98 209.57,238.5 583.03,191.12 784.7,-34.27 86.01,-96.11 134.73,-220.26 115.83,-356.13 82.54,-234.31 46.25,-463.42 -52.44,-673.52 -132.46,-282 -402.86,-497.73 -588.08,-703.58 -33.5,-37.22 -180.19,-286.69 -214.16,-345.48 -58.56,-79 -178.69,10.05 -120.12,89.06 35.43,47.77 75.16,120.11 111.48,186.29 6.41,11.67 81.45,153.11 123.81,187.52 201.58,163.8 430.96,392.41 551.71,649.47 38.04,80.97 65.19,164.94 76.97,250.68 -53.73,-69.19 -156.09,-151.42 -275.06,-139.39 80.64,67.61 125.53,143.46 171.18,252.76 65.8,157.59 113.11,362.41 -12.44,502.72 -141.93,158.63 -411.75,205.47 -562.48,33.5 115.64,-164.64 117.79,-464.48 -80.37,-548.33 54.53,102.27 47.95,374.07 -54.76,476.76 -86.33,86.32 -222.41,119.56 -359.87,47.5 -49.57,-25.99 -97.71,-63.9 -141.8,-112.22 -128.18,-140.48 -217.35,-364.86 -206.61,-639.48 1.55,-21.67 -6.3,-43.83 -23.35,-59.87 -36.49,-34.26 -81.32,-67.73 -121.77,-97.36z" style="fill:#b5e071"/>
 </g><g id="LeftPaw-Rabbit1">
   <animateTransform additive="sum" attributeName="transform" dur="10" repeatCount="indefinite" type="translate" values="0;0 200;0;0 200;0;0 200;0;0 200;0"/>
  <metadata id="CorelCorpID_44Corel-Layer"/>
  <path class="LeftPaw-Rabbit1fil64" d="M9863.01 20836.37c31.01,671.59 -506.32,1058.8 -828,765.31 -253.5,397.35 -884.17,103.39 -809.26,-292.5 -203.13,-535.14 266.24,-1035.76 634.19,-1325.08 198.11,-64.5 364.18,-247.68 461.85,44.06 113.97,340.43 156.85,278.81 402.23,397.75 163.53,79.26 10.67,351.89 138.99,410.46z" style="fill:#865338"/>
  <path class="LeftPaw-Rabbit1fil10" d="M9863.01 20836.37c31.01,671.59 -506.32,1058.8 -828,765.31 -341.06,429.25 -911,23.85 -753.65,-292.7 65.31,297.19 520.59,407.83 657.17,-118.23 113.25,412.02 522.03,237.66 614.7,26.73 95.14,-216.58 44.81,-462.8 253.66,-619.84 1.8,93.31 -16.28,193.4 44.96,232.65l0.16 0.1 0.17 0.11c1.48,0.93 2.97,1.82 4.53,2.69l0.17 0.1 0.18 0.09 0.14 0.09 0.03 0.01 0.18 0.1 0.17 0.09 0.18 0.09c1.69,0.92 3.44,1.79 5.25,2.61z" style="fill:#4680bb"/>
  <path class="LeftPaw-Rabbit1fil28" d="M9926.93 20673.48c79.39,-58.19 167.86,62.52 88.48,120.7 -28.24,20.69 -56.25,42.36 -83.3,64.61 3.93,302.02 -99.68,551.64 -246.17,712.18 -55.54,60.86 -117.82,109.47 -183.4,143.86 -145.9,76.49 -311.53,82.65 -453.24,-7.98 -209.57,238.5 -583.03,191.12 -784.7,-34.27 -86.01,-96.11 -134.73,-220.26 -115.83,-356.13 -82.54,-234.31 -46.25,-463.42 52.44,-673.52 132.46,-282 402.86,-497.73 588.08,-703.58 33.5,-37.22 180.19,-286.69 214.16,-345.48 58.56,-79 178.69,10.05 120.12,89.06 -35.43,47.77 -75.16,120.11 -111.48,186.29 -6.41,11.67 -81.45,153.11 -123.81,187.52 -201.58,163.8 -430.96,392.41 -551.71,649.47 -38.04,80.97 -65.19,164.94 -76.97,250.68 53.73,-69.19 156.09,-151.42 275.06,-139.39 -80.64,67.61 -125.53,143.46 -171.18,252.76 -65.8,157.59 -113.11,362.41 12.44,502.72 141.93,158.63 411.75,205.47 562.48,33.5 -115.64,-164.64 -117.79,-464.48 80.37,-548.33 -54.53,102.27 -47.95,374.07 54.76,476.76 86.33,86.32 222.41,119.56 359.87,47.5 49.57,-25.99 97.71,-63.9 141.8,-112.22 128.18,-140.48 217.35,-364.86 206.61,-639.48 -1.55,-21.67 6.3,-43.83 23.35,-59.87 36.49,-34.26 81.32,-67.73 121.77,-97.36z" style="fill:#4c6d4f"/>
 </g><g id="NecklaceYinYang">
 <animateTransform additive="sum" attributeName="transform" dur="10" repeatCount="indefinite" type="translate" values="0;0 200;0;0 200;0;0 200;0;0 200;0"/>
  <metadata id="CorelCorpID_40Corel-Layer"/>
  <path class="NecklaceYinYangfil225new" d="M16543 17208c-73,675 -449,1409 -941,2000 -570,684 -1305,1183 -1920,1183 -615,0 -1350,-499 -1920,-1183 -492,-591 -868,-1325 -941,-2000l352 0c73,593 413,1245 856,1777 509,611 1145,1056 1653,1056 508,0 1144,-445 1653,-1056 442,-532 782,-1184 856,-1777l352 0z" style="fill:#f23157"/>
  <path class="NecklaceYinYangfil46new" d="M11135 16868c-273,1109 1292,3303 2547,3303 1255,0 2820,-2194 2547,-3303l-25 4c1,34 2,68 2,103 0,650 -370,1407 -871,2010 -509,611 -1145,1056 -1653,1056 -508,0 -1144,-445 -1653,-1056 -501,-603 -871,-1360 -871,-2010 0,-35 1,-69 2,-103l-25 -4z" style="fill:#f73b19"/>
  <path class="NecklaceYinYangfil47new NecklaceYinYangstr4new" d="M16543 17208c-73,675 -449,1409 -941,2000 -570,684 -1305,1183 -1920,1183 -615,0 -1350,-499 -1920,-1183 -492,-591 -868,-1325 -941,-2000l352 0c73,593 413,1245 856,1777 509,611 1145,1056 1653,1056 508,0 1144,-445 1653,-1056 442,-532 782,-1184 856,-1777l352 0z" style="fill:#9e6228"/>
  <path class="NecklaceYinYangfil226new NecklaceYinYangstr3new" d="M11302 18631c-392,0 -362,-385 -163,-550 197,-163 493,-157 449,148 -114,-87 -503,248 -286,402z" style="fill:#3e31e3"/>
  <path class="NecklaceYinYangfil227new NecklaceYinYangstr3new" d="M12385 19918c-393,11 -359,-370 -179,-545 182,-179 487,-172 453,134 -117,-83 -496,263 -274,411z" style="fill:#29904d"/>
  <path class="NecklaceYinYangfil228new NecklaceYinYangstr3new" d="M16062 18631c392,0 345,-403 163,-550 -200,-160 -493,-157 -449,148 114,-87 503,248 286,402z" style="fill:#b7168d"/>
  <path class="NecklaceYinYangfil229new NecklaceYinYangstr3new" d="M14979 19918c393,11 384,-357 179,-545 -202,-187 -487,-172 -453,134 117,-83 496,263 274,411z" style="fill:#6bde71"/>
  <g>
   <circle class="NecklaceYinYangfil84new" r="1577" transform="matrix(-0.552338 -0.290723 0.290723 -0.552338 13681.9 21396.4)"/>
   <g>
    <path class="NecklaceYinYangfil84new" d="M14075 20650c412,217 570,727 353,1139 -215,409 -719,568 -1129,359l0 0c-3,-2 -7,-4 -10,-5l0 0c-206,-109 -285,-364 -177,-570 109,-206 364,-285 570,-177l0 0c206,109 461,30 570,-176 108,-207 29,-462 -177,-570z" style="fill:#15ec0b"/>
    <path class="NecklaceYinYangfil83new" d="M13289 22143c-412,-217 -570,-727 -353,-1139 215,-409 718,-568 1129,-359l0 0c3,2 7,3 10,5l0 0c206,108 285,363 177,570 -109,206 -364,285 -570,176l0 0c-206,-108 -461,-29 -570,177 -108,206 -29,461 177,570z" style="fill:#7e873f"/>
    <path class="NecklaceYinYangfil84new" d="M13943 20901c67,35 93,119 58,187 -36,67 -119,93 -187,58 -68,-36 -94,-120 -58,-187 36,-68 119,-94 187,-58z" style="fill:#b9a8a2"/>
    <path class="NecklaceYinYangfil83new" d="M13421 21892c-68,-36 -94,-119 -58,-187 36,-67 119,-93 187,-58 68,36 93,119 58,187 -36,68 -119,94 -187,58z" style="fill:#91e066"/>
   </g>
  </g>
  <path class="NecklaceYinYangfil230new NecklaceYinYangstr4new" d="M13599 19944l166 0c25,0 47,21 46,46l-24 447c-1,26 -20,46 -46,46l-119 0c-25,0 -44,-20 -46,-46l-23 -447c-1,-26 21,-46 46,-46z" style="fill:#2f116b"/>
 </g><g id="BraceletLeather-Medium">
 <animateTransform additive="sum" attributeName="transform" dur="10" repeatCount="indefinite" type="translate" values="0;0 200;0;0 200;0;0 200;0;0 200;0"/>
  <metadata id="CorelCorpID_17Corel-Layer"/>
  <path class="BraceletLeather-Mediumfil42new BraceletLeather-Mediumstr3new" d="M8689 19690c-86,-160 -115,-250 -201,-410 -29,-75 3,-239 44,-232 104,3 219,4 324,-2 3,181 43,415 96,612 -87,11 -175,21 -263,32z" style="fill:#c6285f"/>
  <path class="BraceletLeather-Mediumfil43new" d="M8689 19690c-86,-160 -115,-250 -201,-410 -29,-75 3,-239 44,-232l8 0c53,219 164,421 282,626l-133 16z" style="fill:#0a808c"/>
  <path class="BraceletLeather-Mediumfil33new BraceletLeather-Mediumstr3new" d="M8689 19690c-86,-160 -115,-250 -201,-410 -29,-75 3,-239 44,-232 104,3 219,4 324,-2 3,181 43,415 96,612 -87,11 -175,21 -263,32z" style="fill:#b5d4e1"/>
  <path class="BraceletLeather-Mediumfil44new BraceletLeather-Mediumstr3new" d="M8645 19884c-170,-64 -251,-113 -421,-177 -71,-38 -153,-183 -118,-204 81,-66 168,-141 243,-214 121,135 304,285 474,399 -59,66 -118,131 -178,196z" style="fill:#02ac6f"/>
  <path class="BraceletLeather-Mediumfil43new" d="M8645 19884c-170,-64 -251,-113 -421,-177 -71,-38 -153,-183 -118,-204l6 -5c184,130 400,211 623,288l-90 98z" style="fill:#95eb4f"/>
  <path class="BraceletLeather-Mediumfil33new BraceletLeather-Mediumstr3new" d="M8645 19884c-170,-64 -251,-113 -421,-177 -71,-38 -153,-183 -118,-204 81,-66 168,-141 243,-214 121,135 304,285 474,399 -59,66 -118,131 -178,196z" style="fill:#442bae"/>
  <path class="BraceletLeather-Mediumfil45new BraceletLeather-Mediumstr4new" d="M8734 19936c-151,-67 -255,-143 -151,-272 117,-147 267,-135 481,-33 407,194 958,608 1165,923 91,139 91,306 -39,409 -129,103 -210,-20 -308,-153 -243,-331 -765,-704 -1148,-874z" style="fill:#7d38fe"/>
  <path class="BraceletLeather-Mediumfil46new" d="M8734 19936c-79,-35 -145,-73 -176,-119 77,-41 167,-29 240,0 506,201 953,539 1254,974 48,70 58,140 38,210 -76,-6 -138,-95 -208,-191 -243,-331 -765,-704 -1148,-874z" style="fill:#6cb329"/>
  <path class="BraceletLeather-Mediumfil47new BraceletLeather-Mediumstr4new" d="M8734 19936c-151,-67 -255,-143 -151,-272 117,-147 267,-135 481,-33 407,194 958,608 1165,923 91,139 91,306 -39,409 -129,103 -210,-20 -308,-153 -243,-331 -765,-704 -1148,-874z" style="fill:#b58f62"/>
  <path class="BraceletLeather-Mediumfil48new BraceletLeather-Mediumstr3new" d="M18674 19690c87,-160 116,-250 202,-410 29,-75 -3,-239 -44,-232 -104,3 -219,4 -324,-2 -3,181 -43,415 -97,612 88,11 176,21 263,32z" style="fill:#d0ebb1"/>
  <path class="BraceletLeather-Mediumfil43new" d="M18674 19690c87,-160 116,-250 202,-410 29,-75 -3,-239 -44,-232l-8 0c-53,219 -164,421 -282,626l132 16z" style="fill:#141000"/>
  <path class="BraceletLeather-Mediumfil33new BraceletLeather-Mediumstr3new" d="M18674 19690c87,-160 116,-250 202,-410 29,-75 -3,-239 -44,-232 -104,3 -219,4 -324,-2 -3,181 -43,415 -97,612 88,11 176,21 263,32z" style="fill:#4c15e9"/>
  <path class="BraceletLeather-Mediumfil49new BraceletLeather-Mediumstr3new" d="M18718 19884c170,-64 252,-113 422,-177 71,-38 153,-183 118,-204 -81,-66 -168,-141 -243,-214 -121,135 -305,285 -475,399 60,66 119,131 178,196z" style="fill:#d6b7c9"/>
  <path class="BraceletLeather-Mediumfil43new" d="M18718 19884c170,-64 252,-113 422,-177 71,-38 153,-183 118,-204l-6 -5c-184,130 -400,211 -623,288l89 98z" style="fill:#a73af9"/>
  <path class="BraceletLeather-Mediumfil33new BraceletLeather-Mediumstr3new" d="M18718 19884c170,-64 252,-113 422,-177 71,-38 153,-183 118,-204 -81,-66 -168,-141 -243,-214 -121,135 -305,285 -475,399 60,66 119,131 178,196z" style="fill:#0b58d7"/>
  <path class="BraceletLeather-Mediumfil50new BraceletLeather-Mediumstr4new" d="M18630 19936c151,-67 255,-143 151,-272 -117,-147 -267,-135 -481,-33 -407,194 -958,608 -1165,923 -91,139 -91,306 39,409 129,103 210,-20 307,-153 244,-331 766,-704 1149,-874z" style="fill:#4706a3"/>
  <path class="BraceletLeather-Mediumfil46new" d="M18630 19936c79,-35 145,-73 175,-119 -76,-41 -166,-29 -239,0 -507,201 -954,539 -1254,974 -48,70 -58,140 -38,210 76,-6 137,-95 207,-191 244,-331 766,-704 1149,-874z" style="fill:#867433"/>
  <path class="BraceletLeather-Mediumfil47new BraceletLeather-Mediumstr4new" d="M18630 19936c151,-67 255,-143 151,-272 -117,-147 -267,-135 -481,-33 -407,194 -958,608 -1165,923 -91,139 -91,306 39,409 129,103 210,-20 307,-153 244,-331 766,-704 1149,-874z" style="fill:#668ac9"/>
 </g><g id="Head-Rabbit3">
   <animateTransform additive="sum" attributeName="transform" dur="10" repeatCount="indefinite" type="translate" values="0;0 200;0;0 200;0;0 200;0;0 200;0"/>
  <metadata id="CorelCorpID_63Corel-Layer"/>
  <path class="Head-Rabbit3fil173" d="M13681.94 7484.8c-2350.35,2.9 -4778.78,2163.21 -5759.2,4512.83 -194.58,466.32 -341.94,1534.77 -547.19,1743.07 -240.98,244.6 -508.57,-138.31 -333.56,-323.26 0.66,-0.23 -306.11,141.87 -363.44,668.14 -47.7,437.88 469.31,902.1 1365.89,904.78 -308.03,228.02 -860.31,128.3 -1028.16,571.03 42.48,-6.17 1070.48,260.34 2235.74,1192.12 526.76,330.13 970.2,671.24 1956.87,958.01 772.13,224.41 1635.31,292.61 2473.05,292.61 837.74,0 1700.92,-68.2 2473.05,-292.61 986.67,-286.77 1467.28,-574.75 1956.87,-958.01 1424.75,-1115.35 2234.68,-1192.26 2235.74,-1192.12 -167.85,-442.73 -720.13,-343.01 -1028.16,-571.03 896.58,-2.68 1413.59,-466.9 1365.89,-904.78 -57.33,-526.27 -364.1,-668.37 -363.44,-668.14 175.01,184.95 -92.58,567.86 -333.56,323.26 -205.25,-208.3 -352.61,-1276.75 -547.19,-1743.07 -980.42,-2349.62 -3408.85,-4509.93 -5759.2,-4512.83z" style="fill:#10f208"/>
  <path class="Head-Rabbit3fil10" d="M8150.6 11499.27c-168.01,329.86 -308.98,666.32 -417.84,1003.8 -118.24,366.54 -186.73,759.17 -281.79,1109.89 -51.36,76.66 -309.53,439.4 -529.86,-112.27 -490.53,618.25 -127.97,979.03 -43.9,1076.62 223.02,258.89 831.62,388.75 1092.52,397.99 -308.03,227.64 -838.9,177.38 -942.08,544.92 19.94,4.16 1135.19,339.23 1916.56,1043.25 1027.89,647.14 1612.17,1086.07 2865.6,1265.13 -1431.25,-571.11 -2427.11,-1275.9 -3187.04,-2091.93 -143.09,-153.65 -410.19,-67.37 -751.5,-296.71 154.3,-134.97 294.6,-249.48 383.84,-436.35 49.86,-104.42 -2.97,-190.68 -104.16,-215.79 -407.03,-101 -792.44,-143.65 -869.68,-640.38 673.56,-92.1 669.87,-1238.07 751.03,-1895.24 30.92,-250.4 71.04,-502 118.3,-752.93z" style="fill:#b59e0b"/>
  <path class="Head-Rabbit3fil28" d="M18356.09 10169.14c496.34,603.72 1048.95,1848.35 1240.5,2635.75 103.03,423.5 205.04,842.75 338.42,977.9 104.5,105.89 216.51,120.44 311.28,83.75 39.89,-15.44 75.76,-40.12 105.85,-70.85 29.06,-29.7 53.17,-65.62 70.51,-104.66 10.43,-23.48 18.4,-48.11 23.54,-73.26 69.09,92.96 140.2,239.94 164.73,464.8 1.77,16.33 2.69,31.84 2.73,46.42 0.49,165.45 -91.94,334.01 -264.01,471.4 -180.15,143.84 -445.45,252.42 -782.37,289.18 -79.67,8.69 -162.39,13.41 -247.83,13.66 -41.26,0 -74.71,33.45 -74.71,74.71 0,24.59 11.88,46.4 30.21,60.02 128.26,94.85 286.89,135.97 446.41,177.31 198.44,51.43 398.53,103.32 508.77,266.9 -873.56,253.26 -1603.63,832.57 -2344.46,1312.73 -448.41,290.59 -893.29,578.9 -1751.47,827.91 -260.52,75.59 -720.52,198.72 -1639.98,339.89 691.72,67.65 1505.79,-145.32 1681.58,-196.33 879.58,-255.22 1333.65,-549.48 1791.31,-846.07 456.23,-295.62 1891.07,-1349.83 2367.8,-1298.54 12.7,2.19 26.14,1.15 39.07,-3.72 38.67,-14.56 58.21,-57.72 43.65,-96.39 -118.09,-310.95 -389.74,-381.38 -658.77,-451.1 -45.85,-11.88 -91.63,-23.74 -136.09,-36.85 348.54,-44.17 626.65,-161.73 820.04,-316.13 208.77,-166.69 320.89,-377.25 320.27,-588.58 -0.05,-21.64 -1.18,-42.42 -3.33,-62.24 -61.93,-567.59 -404.64,-726.35 -405.62,-726.81l-0.06 0.13c-27.16,-12.92 -60.64,-8.62 -83.73,13.35 -29.93,28.47 -31.11,75.83 -2.64,105.76 43.8,46.21 43.88,114.22 18.44,171.49 -9.9,22.29 -23.79,42.94 -40.63,60.14 -15.83,16.16 -33.88,28.83 -53.11,36.27 -42.37,16.4 -95.73,6.57 -150.74,-49.17 -104.56,-105.95 -201.66,-505.04 -299.74,-908.18 -184.83,-759.68 -593.36,-1775.73 -1385.82,-2600.59z" style="fill:#dcdaac"/>
  <path class="Head-Rabbit3fil28" d="M9007.79 10169.14c-496.34,603.72 -1048.95,1848.35 -1240.5,2635.75 -103.03,423.5 -205.04,842.75 -338.42,977.9 -104.5,105.89 -216.51,120.44 -311.28,83.75 -39.89,-15.44 -75.76,-40.12 -105.85,-70.85 -29.06,-29.7 -53.17,-65.62 -70.51,-104.66 -10.43,-23.48 -18.4,-48.11 -23.54,-73.26 -69.09,92.96 -140.2,239.94 -164.73,464.8 -1.77,16.33 -2.69,31.84 -2.73,46.42 -0.49,165.45 91.94,334.01 264.01,471.4 180.15,143.84 445.45,252.42 782.37,289.18 79.67,8.69 162.39,13.41 247.83,13.66 41.26,0 74.71,33.45 74.71,74.71 0,24.59 -11.88,46.4 -30.21,60.02 -128.26,94.85 -286.89,135.97 -446.41,177.31 -198.44,51.43 -398.53,103.32 -508.77,266.9 873.56,253.26 1603.63,832.57 2344.46,1312.73 448.41,290.59 893.29,578.9 1751.47,827.91 260.52,75.59 720.52,198.72 1639.98,339.89 -691.72,67.65 -1505.79,-145.32 -1681.58,-196.33 -879.58,-255.22 -1333.65,-549.48 -1791.31,-846.07 -456.23,-295.62 -1891.07,-1349.83 -2367.8,-1298.54 -12.7,2.19 -26.14,1.15 -39.07,-3.72 -38.67,-14.56 -58.21,-57.72 -43.65,-96.39 118.09,-310.95 389.74,-381.38 658.77,-451.1 45.85,-11.88 91.63,-23.74 136.09,-36.85 -348.54,-44.17 -626.65,-161.73 -820.04,-316.13 -208.77,-166.69 -320.89,-377.25 -320.27,-588.58 0.05,-21.64 1.18,-42.42 3.33,-62.24 61.93,-567.59 404.64,-726.35 405.62,-726.81l0.06 0.13c27.16,-12.92 60.64,-8.62 83.73,13.35 29.93,28.47 31.11,75.83 2.64,105.76 -43.8,46.21 -43.88,114.22 -18.44,171.49 9.9,22.29 23.79,42.94 40.63,60.14 15.83,16.16 33.88,28.83 53.11,36.27 42.37,16.4 95.73,6.57 150.74,-49.17 104.56,-105.95 201.66,-505.04 299.74,-908.18 184.83,-759.68 593.36,-1775.73 1385.82,-2600.59z" style="fill:#bde008"/>
  <path class="Head-Rabbit3fil28" d="M13681.94 7559.8c-408.05,0 -767.02,56.44 -1101.68,148.75 -949.75,261.97 -2036.74,899.1 -2715.65,1499.17 604.3,-730.18 1714.22,-1378.1 2675.81,-1643.31 347.84,-95.94 719.98,-154.61 1141.52,-154.61 421.54,0 793.68,58.67 1141.52,154.61 961.59,265.21 2071.51,913.13 2675.81,1643.31 -678.91,-600.07 -1765.9,-1237.2 -2715.65,-1499.17 -334.66,-92.31 -693.63,-148.75 -1101.68,-148.75z" style="fill:#595a2e"/>
  <path class="Head-Rabbit3fil174" d="M13681.94 15241.38l-896.71 -432.43c0,0 46.8,-458.23 896.71,-1331.35 849.91,873.12 896.71,1331.35 896.71,1331.35l-896.71 432.43z" style="fill:#7e21a6"/>
 </g><g id="Mouth-Rabbit4">
   <animateTransform additive="sum" attributeName="transform" dur="10" repeatCount="indefinite" type="translate" values="0;0 200;0;0 200;0;0 200;0;0 200;0"/>
  <metadata id="CorelCorpID_72Corel-Layer"/>
  <g id="_2131646422608">
   <path class="Mouth-Rabbit4fil195 Mouth-Rabbit4str0" d="M13681.94 15946.36l-0.02 917.14c0,0 104.15,89.59 296.97,-17.36 192.83,-106.95 251.8,-545.25 251.8,-545.25 0,0 -196.23,-129.08 -548.75,-354.53z" style="fill:#55c13f"/>
   <path class="Mouth-Rabbit4fil10" d="M15269 15795.69c-403.96,486.78 -705.75,580.16 -1023.06,586.88 -176.44,3.74 -357.7,-109.27 -564,-106.37l0.05 -399.09c18.08,-1.33 35.86,-2.08 53.32,-2.08 251.96,0 428.76,304.41 760.48,272.42 191.4,-18.45 434.43,-109.76 773.21,-351.76z" style="fill:#2b3e3d"/>
   <path class="Mouth-Rabbit4fil0 Mouth-Rabbit4str0" d="M13681.94 15544.17c0.02,128.06 0.05,214.55 0.05,368.31 171.34,126.63 506.21,423.54 757.84,405.35 364.43,-26.34 931.04,-570.62 933.74,-693.84" style="fill:#752093"/>
   <path class="Mouth-Rabbit4fil192" d="M15125.77 15467.88c0,0 147.45,170.67 52.93,313.41 -94.52,142.76 233.73,-70.77 261.09,-140.97 27.36,-70.21 -129.74,-235.01 -314.02,-172.44z" style="fill:#184079"/>
  </g>
  <g id="_2131646420112">
   <path class="Mouth-Rabbit4fil196 Mouth-Rabbit4str0" d="M13681.9 15946.36l0.02 917.14c0,0 -104.15,89.59 -296.97,-17.36 -192.83,-106.95 -251.8,-545.25 -251.8,-545.25 0,0 196.23,-129.08 548.75,-354.53z" style="fill:#c2cef4"/>
   <path class="Mouth-Rabbit4fil10" d="M12094.84 15795.69c403.96,486.78 705.75,580.16 1023.06,586.88 176.44,3.74 357.7,-109.27 564,-106.37l-0.05 -399.09c-18.08,-1.33 -35.86,-2.08 -53.32,-2.08 -251.96,0 -428.76,304.41 -760.48,272.42 -191.4,-18.45 -434.43,-109.76 -773.21,-351.76z" style="fill:#ebfd75"/>
   <path class="Mouth-Rabbit4fil0 Mouth-Rabbit4str0" d="M13681.9 15544.17c-0.02,128.06 -0.05,214.55 -0.05,368.31 -171.34,126.63 -506.21,423.54 -757.84,405.35 -364.43,-26.34 -931.04,-570.62 -933.74,-693.84" style="fill:#885e58"/>
   <path class="Mouth-Rabbit4fil192" d="M12238.07 15467.88c0,0 -147.45,170.67 -52.93,313.41 94.52,142.76 -233.73,-70.77 -261.09,-140.97 -27.36,-70.21 129.74,-235.01 314.02,-172.44z" style="fill:#dfa177"/>
  </g>
 </g><g id="Eyes-Rabbit0">
   <animate attributeName="opacity" dur="10" repeatCount="indefinite" values="0;1;1;1;1;1;1;1;1;1;1;1;1;1;1;1;1;1;1;1;1;1;1;1;1;1;1;1;1;1;1;1;1;1;1;1;1;1;1;1;1;1;1;1;1;1;1;1;1;1;1;1;1;1;1;1;1;1;1;1;1;1;1;1;1;1;1;1;1;1;1;1;1;1;1;1;1;1;1;1;1;1;1;1;0;0"/>
   <animateTransform additive="sum" attributeName="transform" dur="10" repeatCount="indefinite" type="translate" values="0;0 200;0;0 200;0;0 200;0;0 200;0"/>
  <metadata id="CorelCorpID_79Corel-Layer"/>
  <g id="_2131646402128">
   <g>
    <path class="Eyes-Rabbit0fil208" d="M18383.1 11191.16c-357.46,-238.31 -3284.81,-696.46 -2978.83,3556.25 1387.53,962.27 4582.81,-522.43 2978.83,-3556.25z"/>
    <path class="Eyes-Rabbit0fil209" d="M16332.52 14618.7c-343.68,0 -666.58,-88.8 -947.18,-244.54 -75.17,-2584.59 1144.1,-3237.62 2059.31,-3317.87 509.13,352.87 842.65,941.26 842.65,1607.62 0,1079.59 -875.2,1954.79 -1954.78,1954.79z"/>
    <path class="Eyes-Rabbit0fil210" d="M16332.52 14289.16c-367.41,0 -700.15,-185.84 -941.63,-486.52 89.01,-1733.41 847.5,-2421.75 1583.04,-2653.67 413.69,284.23 694.18,834.81 694.18,1467.47 0,923.8 -597.99,1672.72 -1335.59,1672.72z"/>
    <path class="Eyes-Rabbit0fil0 Eyes-Rabbit0str0" d="M18383.1 11191.16c-357.46,-238.31 -3284.82,-696.46 -2978.83,3556.26 1387.53,962.26 4582.81,-522.44 2978.83,-3556.26z"/>
    <path class="Eyes-Rabbit0fil189" d="M18383.1 11191.16c-357.46,-238.31 -3284.82,-696.46 -2978.83,3556.26 0,0 32.36,21.78 32.36,21.78 -100.29,-1811.77 1104.37,-3603.15 3206.7,-2988.03 -55.36,-137.45 -183.79,-445.43 -260.23,-590.01z"/>
   </g>
   <g>
    <circle class="Eyes-Rabbit0fil211" r="234.72" transform="matrix(-0.997236 -0.0846451 -0.116043 0.927445 17842.2 14032.5)"/>
    <circle class="Eyes-Rabbit0fil211" r="234.72" transform="matrix(-0.499889 0.0111977 0.0161512 0.441882 18262.2 13522.2)"/>
    <path class="Eyes-Rabbit0fil211" d="M16445.3 11983.72c502.89,7.53 584.41,1146.27 -147.28,1146.21 -753.8,-0.06 -397.67,-1154.37 147.28,-1146.21z"/>
   </g>
  </g>
  <g id="_2131646400368">
   <g>
    <path class="Eyes-Rabbit0fil212" d="M8980.78 11191.16c357.46,-238.31 3284.81,-696.46 2978.83,3556.25 -1387.53,962.27 -4582.81,-522.43 -2978.83,-3556.25z"/>
    <path class="Eyes-Rabbit0fil213" d="M11031.36 14618.7c343.68,0 666.58,-88.8 947.18,-244.54 75.17,-2584.59 -1144.1,-3237.62 -2059.31,-3317.87 -509.13,352.87 -842.65,941.26 -842.65,1607.62 0,1079.59 875.2,1954.79 1954.78,1954.79z"/>
    <path class="Eyes-Rabbit0fil214" d="M11031.36 14289.16c367.41,0 700.15,-185.84 941.63,-486.52 -89.01,-1733.41 -847.5,-2421.75 -1583.04,-2653.67 -413.69,284.23 -694.18,834.81 -694.18,1467.47 0,923.8 597.99,1672.72 1335.59,1672.72z"/>
    <path class="Eyes-Rabbit0fil0 Eyes-Rabbit0str0" d="M8980.78 11191.16c357.46,-238.31 3284.82,-696.46 2978.83,3556.26 -1387.53,962.26 -4582.81,-522.44 -2978.83,-3556.26z"/>
    <path class="Eyes-Rabbit0fil189" d="M8980.78 11191.16c357.46,-238.31 3284.82,-696.46 2978.83,3556.26 0,0 -32.36,21.78 -32.36,21.78 100.29,-1811.77 -1104.37,-3603.15 -3206.7,-2988.03 55.36,-137.45 183.79,-445.43 260.23,-590.01z"/>
   </g>
   <g>
    <circle class="Eyes-Rabbit0fil211" r="234.72" transform="matrix(0.997236 -0.0846451 0.116043 0.927445 9521.69 14032.5)"/>
    <circle class="Eyes-Rabbit0fil211" r="234.72" transform="matrix(0.499889 0.0111977 -0.0161512 0.441882 9101.67 13522.2)"/>
    <path class="Eyes-Rabbit0fil211" d="M10918.58 11983.72c-502.89,7.53 -584.41,1146.27 147.28,1146.21 753.8,-0.06 397.67,-1154.37 -147.28,-1146.21z"/>
   </g>
  </g>
 </g><g id="Moustache-Rabbit0">
   <animateTransform additive="sum" attributeName="transform" dur="10" repeatCount="indefinite" type="translate" values="0;0 200;0;0 200;0;0 200;0;0 200;0"/>
  <metadata id="CorelCorpID_98Corel-Layer"/>
  <rect class="Moustache-Rabbit0fil0" height="1458.79" width="1352.04" x="13005.92" y="11962.24"/>
  <rect class="Moustache-Rabbit0fil0" height="1458.79" width="1352.04" x="13005.92" y="11962.24"/>
 </g><g id="Nose-Rabbit0">
   <animateTransform additive="sum" attributeName="transform" dur="10" repeatCount="indefinite" type="translate" values="0;0 200;0;0 200;0;0 200;0;0 200;0"/>
  <metadata id="CorelCorpID_107Corel-Layer"/>
  <path class="Nose-Rabbit0fil320 Nose-Rabbit0str0" d="M13681.94 15552.26c0,0 -562.44,-234.12 -896.71,-743.31 389.83,185.2 450.19,134.81 896.71,339.9 446.52,-205.09 506.88,-154.7 896.71,-339.9 -334.27,509.19 -896.71,743.31 -896.71,743.31z" style="fill:#2fec59"/>
 </g><g id="HatFedora-Medium">
 <animateTransform additive="sum" attributeName="transform" dur="10" repeatCount="indefinite" type="translate" values="0;0 200;0;0 200;0;0 200;0;0 200;0"/>
  <metadata id="CorelCorpID_6Corel-Layer"/>
  <g id="_1789286603760">
   <path class="HatFedora-Mediumfil14" d="M7955 11937c1265,757 3086,1583 5727,1583 2641,0 4462,-826 5727,-1583 -1919,374 -3837,667 -5727,667 -1890,0 -3808,-293 -5727,-667z" style="fill:#3142d9"/>
   <path class="HatFedora-Mediumfil36 HatFedora-Mediumstr1" d="M13682 10964c-3355,0 -7870,-2123 -8193,-997 -189,659 693,1411 980,1572 489,274 4583,1290 7213,1290 2630,0 6724,-1016 7213,-1290 286,-161 1169,-913 980,-1572 -323,-1126 -4839,997 -8193,997z" style="fill:#0d8c3a"/>
   <path class="HatFedora-Mediumfil29" d="M17269 12444c942,-587 2255,-1607 510,-1868l0 0c1823,-445 3342,-893 3514,-296 165,576 -606,1233 -856,1373 -254,143 -1620,514 -3168,791z" style="fill:#6ad4c1"/>
   <path class="HatFedora-Mediumfil14" d="M12870 12801c-3928,-292 -1702,-901 -538,-1281 1164,-380 -111,-308 -1145,-658 -2498,-490 -4908,-1382 -5132,-619 -174,595 640,1274 905,1419 407,223 3521,991 5910,1139z" style="fill:#6bcc7f"/>
   <path class="HatFedora-Mediumfil37 HatFedora-Mediumstr2" d="M11015 12596c-1986,-573 -5154,-1890 -5487,-2720 -7,12 -13,24 -19,37l-3 6c-6,15 -12,31 -17,48 -189,659 693,1411 980,1572 340,191 2424,740 4546,1057z" style="fill:#af723a"/>
   <path class="HatFedora-Mediumfil38 HatFedora-Mediumstr2" d="M16349 12596c1986,-573 5154,-1890 5486,-2720 8,12 14,24 20,37l3 6c6,15 12,31 17,48 189,659 -694,1411 -980,1572 -340,191 -2424,740 -4546,1057z" style="fill:#44078f"/>
   <path class="HatFedora-Mediumfil39 HatFedora-Mediumstr1" d="M13910 5897c520,0 2166,-651 2671,-614 2043,150 2733,2936 2883,4157 41,337 100,930 100,1044 0,632 -2634,911 -5882,911 -3248,0 -5882,-279 -5882,-911 0,-290 62,-730 126,-1051 329,-1658 1396,-3445 2382,-4001 757,-427 2710,465 3602,465z" style="fill:#6e0d4d"/>
   <path class="HatFedora-Mediumfil29" d="M10764 11303c-732,-2466 -54,-4447 -72,-4877 -25,-569 -747,-764 -1058,-441 -758,807 -1454,2166 -1708,3448 -64,321 -126,761 -126,1051 0,426 1193,691 2964,819z" style="fill:#6d79c3"/>
   <path class="HatFedora-Mediumfil40" d="M13682 10294c2688,0 4262,-488 5662,-836 330,-82 360,100 360,830 0,925 -3334,1326 -6022,1326 -2688,0 -6022,-401 -6022,-1326 0,-955 47,-920 447,-808 1370,386 2970,814 5575,814z" style="fill:#daa7b9"/>
   <path class="HatFedora-Mediumfil34" d="M13682 10294c2688,0 4262,-488 5662,-836 330,-82 360,100 360,830 0,83 -27,162 -77,236 21,-698 -8,-873 -343,-803 -1436,300 -3055,735 -5792,657 -2645,-74 -4259,-537 -5639,-954 62,1 145,26 254,56 1370,386 2970,814 5575,814z" style="fill:#55c5b9"/>
   <path class="HatFedora-Mediumfil2 HatFedora-Mediumstr2" d="M13682 10294c2688,0 4262,-488 5662,-836 330,-82 360,100 360,830 0,925 -3334,1326 -6022,1326 -2688,0 -6022,-401 -6022,-1326 0,-955 47,-920 447,-808 1370,386 2970,814 5575,814z" style="fill:#4aee2c"/>
   <path class="HatFedora-Mediumfil35" d="M10645 5763c49,-33 367,406 912,868 545,461 1317,828 1273,864 -45,36 -762,-225 -1363,-744 -601,-518 -870,-955 -822,-988zm3929 1656c3,-57 1441,-623 1745,-825 724,-481 137,-795 158,-848 22,-54 720,446 -71,972 -193,128 -1834,758 -1832,701z" style="fill:#c8b043"/>
   <path class="HatFedora-Mediumfil14" d="M14574 7419c245,-65 1818,-729 1879,-795 202,-218 507,-585 28,-863 -212,-123 -2033,843 -3013,645 -832,-169 -3218,-1189 -2815,-581 201,303 1483,1470 2160,1673 646,193 1128,89 1761,-79z" style="fill:#7d48e4"/>
   <path class="HatFedora-Mediumfil14" d="M13687 11614c-2204,-31 -2184,-1008 -1152,-1314 -1517,-221 -2948,-403 -4428,-820 -400,-112 -447,-147 -447,808 0,923 3345,1332 6027,1326z" style="fill:#48a8aa"/>
   <path class="HatFedora-Mediumfil34" d="M17253 6196c-221,-474 515,-383 618,125 103,509 -1595,1290 -1679,1177 -83,-113 1282,-829 1061,-1302z" style="fill:#0df1c0"/>
  </g>
 </g></svg>