<svg xmlns="http://www.w3.org/2000/svg" xmlns:xlink="http://www.w3.org/1999/xlink" style="shape-rendering:geometricPrecision; text-rendering:geometricPrecision; image-rendering:optimizeQuality; fill-rule:evenodd; clip-rule:evenodd" version="1.1" viewBox="0 0 29000 29000" xml:space="preserve"><defs><style type="text/css">.HatBanderasBack-Mediumfil3new {fill:black;fill-opacity:0.301961}
.HatBanderasBack-Mediumfil16new {fill:url(#HatBanderasBack-Mediumid415new)}
.HatBanderasBack-Mediumstr2new {stroke:#2B2A29;stroke-width:150}
.BraceletLeather-Mediumfil43new {fill:white;fill-opacity:0.200000}
.BraceletLeather-Mediumfil46new {fill:white;fill-rule:nonzero;fill-opacity:0.200000}
.BraceletLeather-Mediumfil42new {fill:url(#BraceletLeather-Mediumid14new)}
.BraceletLeather-Mediumstr3new {stroke:black;stroke-width:100;stroke-linecap:round;stroke-linejoin:round}
.BraceletLeather-Mediumfil33new {fill:none}
.BraceletLeather-Mediumfil44new {fill:url(#BraceletLeather-Mediumid88new)}
.BraceletLeather-Mediumfil45new {fill:url(#BraceletLeather-Mediumid672new);fill-rule:nonzero}
.BraceletLeather-Mediumstr4new {stroke:black;stroke-width:100}
.BraceletLeather-Mediumfil47new {fill:none;fill-rule:nonzero}
.BraceletLeather-Mediumfil48new {fill:url(#BraceletLeather-Mediumid15new)}
.BraceletLeather-Mediumfil49new {fill:url(#BraceletLeather-Mediumid207new)}
.BraceletLeather-Mediumfil50new {fill:url(#BraceletLeather-Mediumid690new);fill-rule:nonzero}
.NecklaceYinYangfil225new {fill:url(#NecklaceYinYangid676new);fill-rule:nonzero}
.NecklaceYinYangfil46new {fill:white;fill-rule:nonzero;fill-opacity:0.200000}
.NecklaceYinYangfil84new {fill:black}
.NecklaceYinYangfil83new {fill:white}
.NecklaceYinYangfil47new {fill:none;fill-rule:nonzero}
.NecklaceYinYangstr4new {stroke:black;stroke-width:100}
.NecklaceYinYangfil226new {fill:url(#NecklaceYinYangid677new);fill-rule:nonzero}
.NecklaceYinYangstr3new {stroke:black;stroke-width:100;stroke-linecap:round;stroke-linejoin:round}
.NecklaceYinYangfil227new {fill:url(#NecklaceYinYangid669new);fill-rule:nonzero}
.NecklaceYinYangfil228new {fill:url(#NecklaceYinYangid705new);fill-rule:nonzero}
.NecklaceYinYangfil229new {fill:url(#NecklaceYinYangid685new);fill-rule:nonzero}
.NecklaceYinYangfil230new {fill:url(#NecklaceYinYangid101new)}
.HatBanderas-Mediumfil608new {fill:url(#HatBanderas-Mediumid682new);fill-rule:nonzero}
.HatBanderas-Mediumfil609new {fill:#FFCC99;fill-rule:nonzero;fill-opacity:0.301961}
.HatBanderas-Mediumfil14new {fill:black;fill-opacity:0.200000}
.HatBanderas-Mediumfil246new {fill:#643200;fill-opacity:0.200000}
.HatBanderas-Mediumfil619new {fill:#d6b2cb;fill-opacity:0.200000}
.HatBanderas-Mediumfil621new {fill:url(#HatBanderas-Mediumid706new);fill-rule:nonzero}
.HatBanderas-Mediumfil360new {fill:black;fill-rule:nonzero;fill-opacity:0.200000}
.HatBanderas-Mediumfil47new {fill:none;fill-rule:nonzero}
.HatBanderas-Mediumstr0new {stroke:black;stroke-width:150;stroke-linecap:round;stroke-linejoin:round}
.HatBanderas-Mediumfil610new {fill:url(#HatBanderas-Mediumid667new);fill-rule:nonzero}
.HatBanderas-Mediumfil611new {fill:#DB9600}
.HatBanderas-Mediumfil612new {fill:url(#HatBanderas-Mediumid156new)}
.HatBanderas-Mediumfil613new {fill:url(#HatBanderas-Mediumid153new)}
.HatBanderas-Mediumfil614new {fill:url(#HatBanderas-Mediumid65new)}
.HatBanderas-Mediumfil615new {fill:url(#HatBanderas-Mediumid190new)}
.HatBanderas-Mediumfil616new {fill:url(#HatBanderas-Mediumid569new)}
.HatBanderas-Mediumfil617new {fill:url(#HatBanderas-Mediumid188new)}
.HatBanderas-Mediumfil618new {fill:url(#HatBanderas-Mediumid192new)}
.HatBanderas-Mediumfil620new {fill:url(#HatBanderas-Mediumid168new)}
.HatBanderas-Mediumfil622new {fill:url(#HatBanderas-Mediumid708new);fill-rule:nonzero}
.AccessoryDuckfil122 {fill:url(#AccessoryDuckid90)}
.AccessoryDuckfil48 {fill:white;fill-opacity:0.501961}
.AccessoryDuckfil123 {fill:#CC1400;fill-opacity:0.301961}
.AccessoryDuckfil124 {fill:url(#AccessoryDuckid94)}
.AccessoryDuckfil3 {fill:black;fill-rule:nonzero}
.AccessoryDuckfil125 {fill:url(#AccessoryDuckid39)}
.AccessoryDuckfil126 {fill:url(#AccessoryDuckid95)}
.AccessoryDuckfil127 {fill:url(#AccessoryDuckid92)}
.AccessoryDuckfil2 {fill:none}
.AccessoryDuckfil128 {fill:#912323;fill-opacity:0.501961}
.AccessoryDuckfil14 {fill:white}
.AccessoryDuckfil129 {fill:white;fill-rule:nonzero;fill-opacity:0.501961}
.AccessoryDuckfil130 {fill:white;fill-rule:nonzero}
.AccessoryDuckstr1 {stroke:black;stroke-width:150}
.AccessoryDuckstr18 {stroke:#99CC66;stroke-width:150;stroke-linecap:round;stroke-linejoin:round}
.AccessoryDuckstr0 {stroke:black;stroke-width:150;stroke-linecap:round;stroke-linejoin:round}
.HairBack-Rabbit0fil0 {fill:none}
    
.RightFoot-Rabbit0fil27 {fill:#f9f7f4}
    
.RightFoot-Rabbit0fil10 {fill:black;fill-opacity:0.200000}
    
.RightFoot-Rabbit0fil0 {fill:none}
    
.RightFoot-Rabbit0fil28 {fill:black;fill-rule:nonzero}
    
.RightLeg-Rabbit0fil31 {fill:url(#RightLeg-Rabbit0id13)}
    
.RightLeg-Rabbit0fil27 {fill:#f9f7f4}
    
.RightLeg-Rabbit0fil28 {fill:black;fill-rule:nonzero}
    
.RightLeg-Rabbit0fil10 {fill:black;fill-opacity:0.200000}
    
.LeftFoot-Rabbit0fil27 {fill:#f9f7f4}
    
.LeftFoot-Rabbit0fil10 {fill:black;fill-opacity:0.200000}
    
.LeftFoot-Rabbit0fil0 {fill:none}
    
.LeftFoot-Rabbit0fil28 {fill:black;fill-rule:nonzero}
    
.LeftLeg-Rabbit0fil39 {fill:url(#LeftLeg-Rabbit0id6)}
    
.LeftLeg-Rabbit0fil27 {fill:#f9f7f4}
    
.LeftLeg-Rabbit0fil10 {fill:black;fill-opacity:0.200000}
    
.LeftLeg-Rabbit0fil28 {fill:black;fill-rule:nonzero}
    
.RightHand-Rabbit1fil46 {fill:url(#RightHand-Rabbit1id27)}
    
.RightHand-Rabbit1fil47 {fill:url(#RightHand-Rabbit1id57)}
    
.RightHand-Rabbit1fil0 {fill:none}
    
.RightHand-Rabbit1str0 {stroke:black;stroke-width:150;stroke-linecap:round;stroke-linejoin:round;stroke-miterlimit:22.9256}
    
.RightHand-Rabbit1fil10 {fill:black;fill-opacity:0.200000}
    
.RightPaw-Rabbit2fil51 {fill:url(#RightPaw-Rabbit2id240)}
    
.RightPaw-Rabbit2fil10 {fill:black;fill-opacity:0.200000}
    
.RightPaw-Rabbit2fil28 {fill:black;fill-rule:nonzero}
    
.LeftHand-Rabbit1fil53 {fill:url(#LeftHand-Rabbit1id172)}
    
.LeftHand-Rabbit1fil10 {fill:black;fill-opacity:0.200000}
    
.LeftHand-Rabbit1fil54 {fill:url(#LeftHand-Rabbit1id218)}
    
.LeftHand-Rabbit1fil0 {fill:none}
    
.LeftHand-Rabbit1str0 {stroke:black;stroke-width:150;stroke-linecap:round;stroke-linejoin:round;stroke-miterlimit:22.9256}
    
.Body-Rabbit0fil58 {fill:url(#Body-Rabbit0id42)}
    
.Body-Rabbit0fil10 {fill:black;fill-opacity:0.200000}
    
.Body-Rabbit0fil28 {fill:black;fill-rule:nonzero}
    
.Body-Rabbit0fil59 {fill:url(#Body-Rabbit0id23)}
    
.LeftPaw-Rabbit2fil65 {fill:url(#LeftPaw-Rabbit2id239)}
    
.LeftPaw-Rabbit2fil10 {fill:black;fill-opacity:0.200000}
    
.LeftPaw-Rabbit2fil28 {fill:black;fill-rule:nonzero}
    
.Head-Rabbit2fil170 {fill:url(#Head-Rabbit2id39)}
    
.Head-Rabbit2fil10 {fill:black;fill-opacity:0.200000}
    
.Head-Rabbit2fil171 {fill:url(#Head-Rabbit2id136)}
    
.Head-Rabbit2fil172 {fill:url(#Head-Rabbit2id285)}
    
.Head-Rabbit2fil28 {fill:black;fill-rule:nonzero}
    
.Mouth-Rabbit3fil193 {fill:url(#Mouth-Rabbit3id132)}
    
.Mouth-Rabbit3str0 {stroke:black;stroke-width:150;stroke-linecap:round;stroke-linejoin:round;stroke-miterlimit:22.9256}
    
.Mouth-Rabbit3fil194 {fill:url(#Mouth-Rabbit3id133)}
    
.Mouth-Rabbit3fil0 {fill:none}
    
.Mouth-Rabbit3fil10 {fill:black;fill-opacity:0.200000}
    
.EyesClosed-Rabbit5fil10 {fill:black;fill-opacity:0.200000}
    
.EyesClosed-Rabbit5fil192 {fill:black}
    
.EyesClosed-Rabbit5fil241 {fill:#657886}
    
.Eyes-Rabbit5fil242 {fill:url(#Eyes-Rabbit5id244)}
    
.Eyes-Rabbit5fil243 {fill:url(#Eyes-Rabbit5id166)}
    
.Eyes-Rabbit5fil244 {fill:url(#Eyes-Rabbit5id303)}
    
.Eyes-Rabbit5fil189 {fill:black;fill-opacity:0.501961}
    
.Eyes-Rabbit5fil0 {fill:none}
    
.Eyes-Rabbit5str0 {stroke:black;stroke-width:150;stroke-linecap:round;stroke-linejoin:round;stroke-miterlimit:22.9256}
    
.Eyes-Rabbit5fil211 {fill:white}
    
.Eyes-Rabbit5fil245 {fill:url(#Eyes-Rabbit5id180)}
    
.Eyes-Rabbit5fil246 {fill:url(#Eyes-Rabbit5id274)}
    
.Eyes-Rabbit5fil247 {fill:url(#Eyes-Rabbit5id254)}
    
.Moustache-Rabbit0fil0 {fill:none}
    
.Nose-Rabbit0fil320 {fill:url(#Nose-Rabbit0id300)}
    
.Nose-Rabbit0str0 {stroke:black;stroke-width:150;stroke-linecap:round;stroke-linejoin:round;stroke-miterlimit:22.9256}
    
</style><linearGradient gradientUnits="userSpaceOnUse" id="HatBanderasBack-Mediumid415new" x1="11406.4" x2="11406.4" xlink:href="#HatBanderasBack-Mediumid273new" y1="14755.2" y2="11000.6">
  </linearGradient><linearGradient gradientUnits="userSpaceOnUse" id="BraceletLeather-Mediumid14new" x1="8682.96" x2="8745.92" y1="19682.8" y2="19053.1">
   <stop offset="0" style="stop-opacity:1; stop-color:#683501"/>
   <stop offset="1" style="stop-opacity:1; stop-color:#B08227"/>
  </linearGradient><linearGradient gradientUnits="userSpaceOnUse" id="BraceletLeather-Mediumid88new" x1="8626.8" x2="8294.02" xlink:href="#BraceletLeather-Mediumid14new" y1="19859" y2="19314.4">
  </linearGradient><linearGradient gradientUnits="userSpaceOnUse" id="BraceletLeather-Mediumid672new" x1="8784.44" x2="10049.5" y1="19759" y2="20796.3">
   <stop offset="0" style="stop-opacity:1; stop-color:#643300"/>
   <stop offset="0.321569" style="stop-opacity:1; stop-color:#B5872A"/>
   <stop offset="1" style="stop-opacity:1; stop-color:#643300"/>
  </linearGradient><linearGradient gradientUnits="userSpaceOnUse" id="BraceletLeather-Mediumid15new" x1="18680.9" x2="18617.9" xlink:href="#BraceletLeather-Mediumid14new" y1="19682.8" y2="19053.1">
  </linearGradient><linearGradient gradientUnits="userSpaceOnUse" id="BraceletLeather-Mediumid207new" x1="18737" x2="19069.8" xlink:href="#BraceletLeather-Mediumid14new" y1="19859" y2="19314.4">
  </linearGradient><linearGradient gradientUnits="userSpaceOnUse" id="BraceletLeather-Mediumid690new" x1="18579.4" x2="17314.3" xlink:href="#BraceletLeather-Mediumid672new" y1="19759" y2="20796.3">
  </linearGradient><linearGradient gradientUnits="userSpaceOnUse" id="NecklaceYinYangid676new" x1="13681.9" x2="13681.9" xlink:href="#NecklaceYinYangid669new" y1="17208" y2="20390.5">
  </linearGradient><linearGradient gradientUnits="userSpaceOnUse" id="NecklaceYinYangid677new" x1="11189" x2="11399.5" xlink:href="#NecklaceYinYangid669new" y1="18603.5" y2="18002.2">
  </linearGradient><linearGradient gradientUnits="userSpaceOnUse" id="NecklaceYinYangid705new" x1="16170.9" x2="15961.3" xlink:href="#NecklaceYinYangid669new" y1="18602.8" y2="18004">
  </linearGradient><linearGradient gradientUnits="userSpaceOnUse" id="NecklaceYinYangid685new" x1="15099" x2="14900.7" xlink:href="#NecklaceYinYangid669new" y1="19895.5" y2="19273.3">
  </linearGradient><linearGradient gradientUnits="userSpaceOnUse" id="NecklaceYinYangid101new" x1="13681.9" x2="13681.9" y1="20483.4" y2="19943.6">
   <stop offset="0" style="stop-opacity:1; stop-color:#2B2A29"/>
   <stop offset="1" style="stop-opacity:1; stop-color:#f9f7f4"/>
  </linearGradient><linearGradient gradientUnits="userSpaceOnUse" id="HatBanderas-Mediumid682new" x1="13602.1" x2="11925.5" y1="11547.2" y2="4747.37">
   <stop offset="0" style="stop-opacity:1; stop-color:#0F0A00"/>
   <stop offset="1" style="stop-opacity:1; stop-color:#615A3E"/>
  </linearGradient><linearGradient gradientUnits="userSpaceOnUse" id="HatBanderas-Mediumid706new" x1="14196.7" x2="11590.4" xlink:href="#HatBanderas-Mediumid682new" y1="14479.3" y2="3909.34">
  </linearGradient><linearGradient gradientUnits="userSpaceOnUse" id="HatBanderas-Mediumid667new" x1="13059.3" x2="12043.7" y1="11875.2" y2="7756.23">
   <stop offset="0" style="stop-opacity:1; stop-color:#570D00"/>
   <stop offset="1" style="stop-opacity:1; stop-color:#C90000"/>
  </linearGradient><linearGradient gradientUnits="userSpaceOnUse" id="HatBanderas-Mediumid156new" x1="17132.7" x2="15358.6" xlink:href="#HatBanderas-Mediumid29new" y1="6534.95" y2="4566.09">
  </linearGradient><linearGradient gradientUnits="userSpaceOnUse" id="HatBanderas-Mediumid153new" x1="17891.3" x2="18675.4" xlink:href="#HatBanderas-Mediumid29new" y1="6718.18" y2="3050.2">
  </linearGradient><linearGradient gradientUnits="userSpaceOnUse" id="HatBanderas-Mediumid65new" x1="18407.5" x2="23687.9" xlink:href="#HatBanderas-Mediumid29new" y1="5325.25" y2="4441.39">
  </linearGradient><linearGradient gradientUnits="userSpaceOnUse" id="HatBanderas-Mediumid190new" x1="22805.7" x2="23399.6" xlink:href="#HatBanderas-Mediumid29new" y1="9246.61" y2="6663.65">
  </linearGradient><linearGradient gradientUnits="userSpaceOnUse" id="HatBanderas-Mediumid569new" x1="18102.7" x2="19619.8" xlink:href="#HatBanderas-Mediumid29new" y1="6097.02" y2="7516.76">
  </linearGradient><linearGradient gradientUnits="userSpaceOnUse" id="HatBanderas-Mediumid188new" x1="22423.7" x2="22545.4" xlink:href="#HatBanderas-Mediumid29new" y1="9500.13" y2="6706.71">
  </linearGradient><linearGradient gradientUnits="userSpaceOnUse" id="HatBanderas-Mediumid192new" x1="20528.7" x2="20011.2" xlink:href="#HatBanderas-Mediumid29new" y1="7723.46" y2="5385.04">
  </linearGradient><linearGradient gradientUnits="userSpaceOnUse" id="HatBanderas-Mediumid168new" x1="16082.9" x2="23396.2" xlink:href="#HatBanderas-Mediumid29new" y1="7125.45" y2="7308.29">
  </linearGradient><linearGradient gradientUnits="userSpaceOnUse" id="HatBanderas-Mediumid708new" x1="19172.7" x2="18887.4" y1="6164.67" y2="5430.19">
   <stop offset="0" style="stop-opacity:1; stop-color:#38321F"/>
   <stop offset="1" style="stop-opacity:1; stop-color:#615A3E"/>
  </linearGradient><radialGradient cx="5981.45" cy="24530.5" fx="5981.45" fy="24530.5" gradientTransform="matrix(1.08261 -0.0530996 0.0971573 0.591681 -2877 10334)" gradientUnits="userSpaceOnUse" id="AccessoryDuckid90" r="1635.36">
   <stop offset="0" style="stop-opacity:1; stop-color:#FFF256"/>
   <stop offset="0.631373" style="stop-opacity:1; stop-color:#FEE75C"/>
   <stop offset="1" style="stop-opacity:1; stop-color:#FFD83B"/>
  </radialGradient><radialGradient cx="6799.04" cy="23034.7" fx="6799.04" fy="23034.7" gradientTransform="matrix(1.0826 -0.0971566 0.0971566 1.0826 -2800 -1242)" gradientUnits="userSpaceOnUse" id="AccessoryDuckid94" r="935.18" xlink:href="#AccessoryDuckid90">
  </radialGradient><linearGradient gradientUnits="userSpaceOnUse" id="AccessoryDuckid39" x1="6677.2" x2="6677.2" y1="22471.8" y2="23026.9">
   <stop offset="0" style="stop-opacity:1; stop-color:black"/>
   <stop offset="1" style="stop-opacity:1; stop-color:#453223"/>
  </linearGradient><radialGradient cx="7621.66" cy="22955.4" fx="7621.66" fy="22955.4" gradientTransform="matrix(1.00003 -0 -0 0.645815 0 8130)" gradientUnits="userSpaceOnUse" id="AccessoryDuckid95" r="730.87">
   <stop offset="0" style="stop-opacity:1; stop-color:#FFB73B"/>
   <stop offset="1" style="stop-opacity:1; stop-color:#E05A00"/>
  </radialGradient><radialGradient cx="5594.96" cy="24567.2" fx="5594.96" fy="24567.2" gradientTransform="matrix(1.0826 -0.0578086 0.0971565 0.644153 -2849 9066)" gradientUnits="userSpaceOnUse" id="AccessoryDuckid92" r="719.36" xlink:href="#AccessoryDuckid90">
  </radialGradient><linearGradient gradientUnits="objectBoundingBox" id="RightLeg-Rabbit0id13" x1="50%" x2="50%" xlink:href="#RightLeg-Rabbit0id6" y1="105.828%" y2="0%">
  </linearGradient><linearGradient gradientUnits="objectBoundingBox" id="LeftLeg-Rabbit0id6" x1="50%" x2="50%" y1="105.828%" y2="0%">
   <stop offset="0" style="stop-opacity:1; stop-color:#ffffff"/>
   <stop offset="0.439216" style="stop-opacity:1; stop-color:#ffffff"/>
   <stop offset="1" style="stop-opacity:1; stop-color:#efe7d9"/>
  </linearGradient><linearGradient gradientUnits="objectBoundingBox" id="RightHand-Rabbit1id27" x1="34.0586%" x2="65.9414%" xlink:href="#RightHand-Rabbit1id26" y1="2.36576%" y2="97.6342%">
  </linearGradient><linearGradient gradientUnits="userSpaceOnUse" id="RightHand-Rabbit1id57" x1="16861.81" x2="18547.07" xlink:href="#RightHand-Rabbit1id1" y1="20138.27" y2="18937.39">
  </linearGradient><linearGradient gradientUnits="userSpaceOnUse" id="RightPaw-Rabbit2id240" x1="18885.17" x2="17767.58" xlink:href="#RightPaw-Rabbit2id120" y1="21615.27" y2="20072.14">
  </linearGradient><linearGradient gradientUnits="userSpaceOnUse" id="LeftHand-Rabbit1id172" x1="11799.86" x2="9559.74" xlink:href="#LeftHand-Rabbit1id26" y1="18000.35" y2="20653.66">
  </linearGradient><linearGradient gradientUnits="userSpaceOnUse" id="LeftHand-Rabbit1id218" x1="10935.76" x2="9234.93" xlink:href="#LeftHand-Rabbit1id1" y1="18298.45" y2="19709.66">
  </linearGradient><linearGradient gradientUnits="objectBoundingBox" id="Body-Rabbit0id42" x1="50%" x2="50%" y1="2.16557e-14%" y2="100%">
   <stop offset="0" style="stop-opacity:1; stop-color:#c9bfad"/>
   <stop offset="0.0313725" style="stop-opacity:1; stop-color:#c9bfad"/>
   <stop offset="0.529412" style="stop-opacity:1; stop-color:#efe7d9"/>
   <stop offset="1" style="stop-opacity:1; stop-color:#ffffff"/>
  </linearGradient><linearGradient gradientUnits="userSpaceOnUse" id="Body-Rabbit0id23" x1="13681.92" x2="13681.92" y1="22974.87" y2="18143.76">
   <stop offset="0" style="stop-opacity:1; stop-color:#f9f7f4"/>
   <stop offset="0.658824" style="stop-opacity:1; stop-color:#f9f7f4"/>
   <stop offset="1" style="stop-opacity:1; stop-color:#ede7dd"/>
  </linearGradient><linearGradient gradientUnits="userSpaceOnUse" id="LeftPaw-Rabbit2id239" x1="8478.67" x2="9596.26" xlink:href="#LeftPaw-Rabbit2id120" y1="21615.27" y2="20072.14">
  </linearGradient><linearGradient gradientUnits="userSpaceOnUse" id="Head-Rabbit2id39" x1="13686.09" x2="13686.08" y1="17936.72" y2="7484.8">
   <stop offset="0" style="stop-opacity:1; stop-color:#c9bfad"/>
   <stop offset="0.4" style="stop-opacity:1; stop-color:#efe7d9"/>
   <stop offset="1" style="stop-opacity:1; stop-color:#ffffff"/>
  </linearGradient><linearGradient gradientUnits="userSpaceOnUse" id="Head-Rabbit2id136" x1="16748.03" x2="16748.03" xlink:href="#Head-Rabbit2id1" y1="16525.26" y2="8186.07">
  </linearGradient><linearGradient gradientUnits="userSpaceOnUse" id="Head-Rabbit2id285" x1="10291.27" x2="10291.27" xlink:href="#Head-Rabbit2id23" y1="10253.78" y2="15909.19">
  </linearGradient><linearGradient gradientUnits="userSpaceOnUse" id="Mouth-Rabbit3id132" x1="13999.76" x2="13999.76" xlink:href="#Mouth-Rabbit3id81" y1="15986.17" y2="16708.22">
  </linearGradient><linearGradient gradientUnits="userSpaceOnUse" id="Mouth-Rabbit3id133" x1="13358.3" x2="13358.3" xlink:href="#Mouth-Rabbit3id81" y1="15986.17" y2="16708.22">
  </linearGradient><linearGradient gradientUnits="userSpaceOnUse" id="Eyes-Rabbit5id244" x1="16892.89" x2="17323.24" xlink:href="#Eyes-Rabbit5id41" y1="15117.63" y2="11005.16">
  </linearGradient><linearGradient gradientUnits="userSpaceOnUse" id="Eyes-Rabbit5id166" x1="18279.5" x2="15344.66" xlink:href="#Eyes-Rabbit5id85" y1="13435.33" y2="13140.62">
  </linearGradient><linearGradient gradientUnits="userSpaceOnUse" id="Eyes-Rabbit5id303" x1="16857.88" x2="16594.14" xlink:href="#Eyes-Rabbit5id84" y1="11785.62" y2="14305.9">
  </linearGradient><linearGradient gradientUnits="userSpaceOnUse" id="Eyes-Rabbit5id180" x1="10152.43" x2="10582.78" xlink:href="#Eyes-Rabbit5id41" y1="15117.63" y2="11005.16">
  </linearGradient><linearGradient gradientUnits="userSpaceOnUse" id="Eyes-Rabbit5id274" x1="12052.8" x2="9117.95" xlink:href="#Eyes-Rabbit5id85" y1="13435.33" y2="13140.62">
  </linearGradient><linearGradient gradientUnits="userSpaceOnUse" id="Eyes-Rabbit5id254" x1="11186.03" x2="10922.29" xlink:href="#Eyes-Rabbit5id84" y1="11785.62" y2="14305.9">
  </linearGradient><linearGradient gradientUnits="userSpaceOnUse" id="Nose-Rabbit0id300" x1="12846.46" x2="12948.19" y1="14801.53" y2="15641.16">
   <stop offset="0" style="stop-opacity:1; stop-color:#FFCCCC"/>
   <stop offset="1" style="stop-opacity:1; stop-color:#DB9092"/>
  </linearGradient><linearGradient gradientUnits="userSpaceOnUse" id="HatBanderasBack-Mediumid273new" x1="11276.3" x2="11276.3" y1="15499.7" y2="11357.8">
   <stop offset="0" style="stop-opacity:1; stop-color:#3B3621"/>
   <stop offset="1" style="stop-opacity:1; stop-color:#0D0A05"/>
  </linearGradient><linearGradient gradientUnits="userSpaceOnUse" id="NecklaceYinYangid669new" x1="12270.9" x2="12467.6" y1="19894.7" y2="19277.5">
   <stop offset="0" style="stop-opacity:1; stop-color:#643300"/>
   <stop offset="1" style="stop-opacity:1; stop-color:#AB7D2D"/>
  </linearGradient><linearGradient gradientUnits="userSpaceOnUse" id="HatBanderas-Mediumid29new" x1="23027" x2="23148.7" y1="9696.19" y2="6902.77">
   <stop offset="0" style="stop-opacity:1; stop-color:#DB9600"/>
   <stop offset="1" style="stop-opacity:1; stop-color:#FFCC00"/>
  </linearGradient><linearGradient gradientUnits="objectBoundingBox" id="RightLeg-Rabbit0id6" x1="50%" x2="50%" y1="105.828%" y2="0%">
   <stop offset="0" style="stop-opacity:1; stop-color:#ffffff"/>
   <stop offset="0.439216" style="stop-opacity:1; stop-color:#ffffff"/>
   <stop offset="1" style="stop-opacity:1; stop-color:#efe7d9"/>
  </linearGradient><linearGradient gradientUnits="userSpaceOnUse" id="RightHand-Rabbit1id26" x1="16087.42" x2="17274.71" y1="17785.04" y2="20860.85">
   <stop offset="0" style="stop-opacity:1; stop-color:#c9bfad"/>
   <stop offset="0.878431" style="stop-opacity:1; stop-color:#efe7d9"/>
   <stop offset="1" style="stop-opacity:1; stop-color:#efe7d9"/>
  </linearGradient><linearGradient gradientUnits="userSpaceOnUse" id="RightHand-Rabbit1id1" x1="13681.94" x2="13681.94" y1="17582.76" y2="9785.49">
   <stop offset="0" style="stop-opacity:1; stop-color:#657886"/>
   <stop offset="1" style="stop-opacity:1; stop-color:#93a3ad"/>
  </linearGradient><linearGradient gradientUnits="userSpaceOnUse" id="RightPaw-Rabbit2id120" x1="16037.58" x2="16764.95" y1="25652.81" y2="23762.51">
   <stop offset="0" style="stop-opacity:1; stop-color:#657886"/>
   <stop offset="0.780392" style="stop-opacity:1; stop-color:#efe7d9"/>
   <stop offset="1" style="stop-opacity:1; stop-color:#efe7d9"/>
  </linearGradient><linearGradient gradientUnits="userSpaceOnUse" id="LeftHand-Rabbit1id26" x1="16087.42" x2="17274.71" y1="17785.04" y2="20860.85">
   <stop offset="0" style="stop-opacity:1; stop-color:#c9bfad"/>
   <stop offset="0.878431" style="stop-opacity:1; stop-color:#efe7d9"/>
   <stop offset="1" style="stop-opacity:1; stop-color:#efe7d9"/>
  </linearGradient><linearGradient gradientUnits="userSpaceOnUse" id="LeftHand-Rabbit1id1" x1="13681.94" x2="13681.94" y1="17582.76" y2="9785.49">
   <stop offset="0" style="stop-opacity:1; stop-color:#657886"/>
   <stop offset="1" style="stop-opacity:1; stop-color:#93a3ad"/>
  </linearGradient><linearGradient gradientUnits="userSpaceOnUse" id="LeftPaw-Rabbit2id120" x1="16037.58" x2="16764.95" y1="25652.81" y2="23762.51">
   <stop offset="0" style="stop-opacity:1; stop-color:#657886"/>
   <stop offset="0.780392" style="stop-opacity:1; stop-color:#efe7d9"/>
   <stop offset="1" style="stop-opacity:1; stop-color:#efe7d9"/>
  </linearGradient><linearGradient gradientUnits="userSpaceOnUse" id="Head-Rabbit2id1" x1="13681.94" x2="13681.94" y1="17582.76" y2="9785.49">
   <stop offset="0" style="stop-opacity:1; stop-color:#657886"/>
   <stop offset="1" style="stop-opacity:1; stop-color:#93a3ad"/>
  </linearGradient><linearGradient gradientUnits="userSpaceOnUse" id="Head-Rabbit2id23" x1="13681.92" x2="13681.92" y1="22974.87" y2="18143.76">
   <stop offset="0" style="stop-opacity:1; stop-color:#f9f7f4"/>
   <stop offset="0.658824" style="stop-opacity:1; stop-color:#f9f7f4"/>
   <stop offset="1" style="stop-opacity:1; stop-color:#ede7dd"/>
  </linearGradient><linearGradient gradientUnits="userSpaceOnUse" id="Mouth-Rabbit3id81" x1="13402.39" x2="13402.39" y1="15588.37" y2="16582.43">
   <stop offset="0" style="stop-opacity:1; stop-color:#D6D6D6"/>
   <stop offset="0.6" style="stop-opacity:1; stop-color:white"/>
   <stop offset="1" style="stop-opacity:1; stop-color:#f9f7f4"/>
  </linearGradient><linearGradient gradientUnits="userSpaceOnUse" id="Eyes-Rabbit5id41" x1="17102.45" x2="17102.45" y1="15038.45" y2="11047.09">
   <stop offset="0" style="stop-opacity:1; stop-color:#805900"/>
   <stop offset="1" style="stop-opacity:1; stop-color:black"/>
  </linearGradient><linearGradient gradientUnits="userSpaceOnUse" id="Eyes-Rabbit5id85" x1="8896.68" x2="12138.14" y1="13030.37" y2="13030.37">
   <stop offset="0" style="stop-opacity:1; stop-color:#805900"/>
   <stop offset="0.501961" style="stop-opacity:1; stop-color:#ffc029"/>
   <stop offset="1" style="stop-opacity:1; stop-color:#805900"/>
  </linearGradient><linearGradient gradientUnits="userSpaceOnUse" id="Eyes-Rabbit5id84" x1="16563.56" x2="16563.56" y1="11311.33" y2="14277.21">
   <stop offset="0" style="stop-opacity:1; stop-color:black"/>
   <stop offset="0.4" style="stop-opacity:1; stop-color:black"/>
   <stop offset="1" style="stop-opacity:1; stop-color:#664700"/>
  </linearGradient></defs><g id="HatBanderasBack-Medium">
 <animateTransform additive="sum" attributeName="transform" dur="10" repeatCount="indefinite" type="translate" values="0;0 200;0;0 200;0;0 200;0;0 200;0"/>
  <metadata id="CorelCorpID_7Corel-Layer"/>
  <path class="HatBanderasBack-Mediumfil16new HatBanderasBack-Mediumstr2new" d="M19319 11711c-1698,-571 -3233,-710 -5574,-710 -5662,0 -10252,1138 -10252,2543 0,848 1874,1491 4030,1087 3082,-577 4927,-2776 11796,-2920z" style="fill:#e2333b"/>
  <path class="HatBanderasBack-Mediumfil3new" d="M9431 11236c-3506,404 -5938,1286 -5938,2308 0,107 30,211 87,311 1508,-1228 4279,-771 4327,639 1244,-360 1143,-1811 1524,-3258z" style="fill:#10a9cf"/>
 </g><g id="HairBack-Rabbit0">
  <animateTransform additive="sum" attributeName="transform" dur="10" repeatCount="indefinite" type="translate" values="0;0 200;0;0 200;0;0 200;0;0 200;0"/>
  <metadata id="CorelCorpID_0Corel-Layer"/>
  <rect class="HairBack-Rabbit0fil0" height="889.5" width="889.5" x="13237.19" y="6589.66"/>
 </g><g id="RightFoot-Rabbit0">
  <metadata id="CorelCorpID_4Corel-Layer"/>
  <path class="RightFoot-Rabbit0fil27" d="M17611.19 25439.21c-123.56,214.04 -403.48,285.33 -610.7,105.88 -70.65,70.23 -293.11,185.78 -526.32,65.76 -538.29,-277.03 -1055.04,-639.06 -1398.31,-887.33 -220.49,-159.46 -188.05,-525.91 -70.64,-700.58 363.68,340.29 782.66,-165.21 1075.55,-247.93 373.84,-101.68 736.94,157.82 534.63,412.54 198.78,95.76 1024.55,447.2 1177.27,620.9 168.78,191.95 120.75,630.76 -181.48,630.76z" style="fill:#4c43a4"/>
  <path class="RightFoot-Rabbit0fil10" d="M17619.89 25467.81c-123.56,214.04 -392.89,285.33 -600.11,105.88 -263.27,261.71 -916.66,-12.43 -1207.68,-387.7 -314.79,-217.24 -676.79,-421.62 -795.64,-500.03 -156.12,-103 -53.19,-398.33 -20.96,-584.15 17.85,-13.98 36.32,-26.67 55.45,-37.83 -59.89,533.31 1968.85,1766.03 1957.44,1098.35 213.34,341.57 585.05,186.16 533.82,-150.27 126.71,133.91 271.29,-14.39 142.78,-274 182.48,62.12 215.54,288.03 209.67,440.56 -17.28,153.49 -106.7,289.19 -274.77,289.19z" style="fill:#fff7bf"/>
  <path class="RightFoot-Rabbit0fil0" d="M16655.48 24185.7c277.12,231.33 479.91,239.56 632.6,413.23 168.75,191.92 120.75,630.76 -181.48,630.76 -123.56,214.04 -403.48,285.33 -610.7,105.88 -70.65,70.23 -276.53,145.76 -526.32,65.76 -409.3,-131.08 -519.97,-488.94 -871.1,-725.96 -156.04,-105.33 -138.82,-331.38 -109.24,-523.93" style="fill:#6fe77c"/>
  <path class="RightFoot-Rabbit0fil28" d="M16703.53 24128.28c-32.23,14.49 -151.74,68.29 -96.1,114.84 143.13,119.49 265.97,181.45 373.06,235.47 99.11,49.99 720.41,275.03 788.45,352.42 80.91,92.01 97.3,255.88 55.21,369.54 -18.07,48.79 -77.99,123.14 -125.37,147 7.55,-268.78 -114.77,-534.12 -402.24,-526.25 186.74,95.17 268.32,253.8 247.69,592.25 -49.04,79.15 -127.69,137.43 -219.87,155.2 -79.73,15.37 -160.2,-1.74 -228.24,-45.5 38.29,-218.05 10.29,-483.64 -289.14,-537.54 139.24,98.32 162.69,330.02 141.92,510.69 -31.45,29.61 -97.92,60.43 -188.69,71.77 -74.89,9.35 -163.69,4.41 -259.78,-26.36 -221.4,-70.9 -389.39,-150.77 -526.67,-306.64 -103.47,-117.46 -723.13,-457.1 -875.28,-559.8 -56.89,-38.4 -106.48,-200.43 -115.52,-274.13 -5.91,-48.16 -12.39,-90.93 -7.5,-133.2 3.75,-32.35 5.98,-48.97 23.54,-102.83 14.63,-97.52 -109.65,-115.23 -144.78,-21.39 -12.89,39.53 -20.74,74.23 -25.45,109.36 -7,52.14 -2.13,105.01 5.37,166.22 13.96,113.78 81.43,313.29 180.56,380.19 136.05,91.83 749.3,424.19 846.56,534.6 151.08,171.53 332.23,266.34 593.47,350 119.65,38.32 230.28,44.46 323.64,32.8 92.59,-11.56 170.46,-41.41 225.37,-75.73 103.09,69.99 225.69,98.3 348.74,74.57 124.29,-23.96 233.03,-98.13 304.52,-201.86 136.16,-15.63 261.32,-136.4 307.77,-261.86 61.19,-165.25 34.13,-386.54 -83.33,-520.12 -86.71,-98.62 -720.16,-329.8 -833.57,-387 -99.73,-50.31 -214.13,-108.01 -344.34,-216.71z" style="fill:#91a741"/>
 </g><g id="LeftFoot-Rabbit0">
  <metadata id="CorelCorpID_13Corel-Layer"/>
  <path class="LeftFoot-Rabbit0fil27" d="M9752.69 25439.21c123.56,214.04 403.48,285.33 610.7,105.88 70.65,70.23 276.53,145.75 526.32,65.76 409.29,-131.08 1021.6,-618.6 1364.87,-866.87 220.49,-159.46 204.8,-507.21 104.08,-721.04 -363.68,340.29 -782.66,-165.21 -1075.55,-247.93 -373.84,-101.68 -736.94,157.82 -534.63,412.54 -198.78,95.76 -1024.55,447.2 -1177.27,620.9 -168.78,191.95 -120.75,630.76 181.48,630.76z" style="fill:#e76ebc"/>
  <path class="LeftFoot-Rabbit0fil10" d="M9743.99 25467.81c123.56,214.04 392.89,285.33 600.11,105.88 263.27,261.71 916.66,-12.43 1207.68,-387.7 314.79,-217.24 676.79,-421.62 795.64,-500.03 156.12,-103 53.19,-398.33 20.96,-584.15 -17.85,-13.98 -36.32,-26.67 -55.45,-37.83 59.89,533.31 -1968.85,1766.03 -1957.44,1098.35 -213.34,341.57 -585.05,186.16 -533.82,-150.27 -126.71,133.91 -271.29,-14.39 -142.78,-274 -182.48,62.12 -215.54,288.03 -209.67,440.56 17.28,153.49 106.7,289.19 274.77,289.19z" style="fill:#122d13"/>
  <path class="LeftFoot-Rabbit0fil0" d="M10708.4 24185.7c-277.12,231.33 -479.91,239.56 -632.6,413.23 -168.75,191.92 -120.75,630.76 181.48,630.76 123.56,214.04 403.48,285.33 610.7,105.88 70.65,70.23 276.53,145.76 526.32,65.76 409.3,-131.08 519.97,-488.94 871.1,-725.96 156.04,-105.33 138.82,-331.38 109.24,-523.93" style="fill:#4c5563"/>
  <path class="LeftFoot-Rabbit0fil28" d="M10660.35 24128.28c32.23,14.49 151.74,68.29 96.1,114.84 -143.13,119.49 -265.97,181.45 -373.06,235.47 -99.11,49.99 -720.41,275.03 -788.45,352.42 -80.91,92.01 -97.3,255.88 -55.21,369.54 18.07,48.79 77.99,123.14 125.37,147 -7.55,-268.78 114.77,-534.12 402.24,-526.25 -186.74,95.17 -268.32,253.8 -247.69,592.25 49.04,79.15 127.69,137.43 219.87,155.2 79.73,15.37 160.2,-1.74 228.24,-45.5 -38.29,-218.05 -10.29,-483.64 289.14,-537.54 -139.24,98.32 -162.69,330.02 -141.92,510.69 31.45,29.61 97.92,60.43 188.69,71.77 74.89,9.35 163.69,4.41 259.78,-26.36 221.4,-70.9 389.39,-150.77 526.67,-306.64 103.47,-117.46 723.13,-457.1 875.28,-559.8 56.89,-38.4 106.48,-200.43 115.52,-274.13 5.91,-48.16 12.39,-90.93 7.5,-133.2 -3.75,-32.35 -5.98,-48.97 -23.54,-102.83 -14.63,-97.52 109.65,-115.23 144.78,-21.39 12.89,39.53 20.74,74.23 25.45,109.36 7,52.14 2.13,105.01 -5.37,166.22 -13.96,113.78 -81.43,313.29 -180.56,380.19 -136.05,91.83 -749.3,424.19 -846.56,534.6 -151.08,171.53 -332.23,266.34 -593.47,350 -119.65,38.32 -230.28,44.46 -323.64,32.8 -92.59,-11.56 -170.46,-41.41 -225.37,-75.73 -103.09,69.99 -225.69,98.3 -348.74,74.57 -124.29,-23.96 -233.03,-98.13 -304.52,-201.86 -136.16,-15.63 -261.32,-136.4 -307.77,-261.86 -61.19,-165.25 -34.13,-386.54 83.33,-520.12 86.71,-98.62 720.16,-329.8 833.57,-387 99.73,-50.31 214.13,-108.01 344.34,-216.71z" style="fill:#9d04c3"/>
 </g><g id="RightLeg-Rabbit0">
  <metadata id="CorelCorpID_7Corel-Layer"/>
  <path class="RightLeg-Rabbit0fil31" d="M13681.96 23259.3c350.13,0 1187.7,54.85 1405.45,467.27 87.55,165.82 -151.71,216.56 -84.09,308.83 214.87,221.86 637.04,349.26 895.5,148.38 312.37,-242.78 712.13,-231.34 719.72,-12.18 370.09,-264.31 864.16,-647.7 865.47,-1092.28 2.53,-860.67 -851.23,-1651.69 -1153.94,-1891.1 -621.48,859.57 -1470.39,1269.07 -2648.11,1328.08l0 743z" style="fill:#5b80ec"/>
  <path class="RightLeg-Rabbit0fil27" d="M15041.74 23686.98c95.88,103.18 -23.84,202.94 -38.42,358.42 214.87,221.86 637.05,349.26 895.5,148.38 312.37,-242.77 712.13,-231.34 719.72,-12.18 500.6,-357.52 1118.93,-754.49 755.85,-1660.39 -386.13,1194.45 -1463.35,1524.06 -2332.65,1165.77z" style="fill:#d44c4c"/>
  <path class="RightLeg-Rabbit0fil28" d="M16285.67 21248.32c474.85,376.94 1120.37,1042.59 1118.33,1735.75 -1.13,388.03 -178.15,727.78 -465.88,963.66 -200.45,164.33 -440.69,212.09 -574.07,330.27 171.14,-34.1 422.55,-72.82 630.16,-223.79 362.58,-263.67 557.8,-589.45 559.21,-1070.14 2.19,-736.68 -664.8,-1449.29 -1177.06,-1854.44l-46.29 58.59 -44.38 60.1 -0.02 0z" style="fill:#1a0c5b"/>
  <path class="RightLeg-Rabbit0fil10" d="M17375.94 23464.04c67.26,-148.73 106.69,-305.87 107.15,-464.07 2.29,-775.51 -724.56,-1425.03 -1053.4,-1726.35l-157.05 727.06c26.43,47.89 52.85,95.78 79.28,143.67 387.48,-413.26 1131.08,852.41 1024.02,1319.69z" style="fill:#f3daf7"/>
  <path class="RightLeg-Rabbit0fil28" d="M13681.96 23156.77c0,53.89 0,70.23 0,150.29 1.05,-0.09 369.66,-11.33 754.66,102.19 128.96,38.03 326.86,124.14 481.95,220.11 121.28,75.04 227.25,140.61 294.6,161.31 67.97,20.91 336.72,117.86 720.21,19.22 -408.62,-65.2 -515.39,-112.7 -675.71,-162 -47.86,-14.71 -146.31,-75.63 -259,-145.36 -162.97,-100.83 -370.1,-192.66 -519.34,-236.67 -413.86,-122.04 -796.24,-109.25 -797.37,-109.09z" style="fill:#dbfd6e"/>
  <path class="RightLeg-Rabbit0fil28" d="M14852.37 24149.58c-6.63,40.77 19.98,82.54 60.75,89.17 40.77,6.63 59.9,0.68 77.73,-47.56 3.27,-19.88 35.74,-71.71 63.2,-114.07 105.22,-162.3 243.27,-375.23 -65.46,-578.32 -34.46,-22.65 -80.77,-13.08 -103.42,21.38 -22.65,34.46 -13.08,80.77 21.38,103.42 184.59,121.43 92.39,263.67 22.1,372.08 -36.56,56.4 -63.62,104.09 -76.28,153.9z" style="fill:#c8e2b7"/>
 </g><g id="LeftLeg-Rabbit0">
  <metadata id="CorelCorpID_16Corel-Layer"/>
  <path class="LeftLeg-Rabbit0fil39" d="M13681.92 23259.3c-350.13,0 -1187.72,54.86 -1405.45,467.27 -87.54,165.8 123.6,236.81 55.98,329.08 -214.87,221.86 -622.19,269.45 -880.62,68.6 -312.34,-242.75 -743.45,-195.49 -751.04,23.67 -453.63,-190.83 -819.62,-624.03 -820.92,-1068.6 -2.52,-860.66 851.23,-1651.69 1153.94,-1891.1 621.48,859.57 1470.39,1269.07 2648.11,1328.08l0 743z" style="fill:#b80edb"/>
  <path class="LeftLeg-Rabbit0fil27" d="M12299.44 23686.98c-95.88,103.18 23.84,202.94 38.42,358.42 -214.87,221.86 -637.05,349.26 -895.5,148.38 -312.37,-242.77 -712.13,-231.34 -719.72,-12.18 -500.6,-357.52 -1118.93,-754.49 -755.85,-1660.39 386.13,1194.45 1463.35,1524.06 2332.65,1165.77z" style="fill:#1c2168"/>
  <path class="LeftLeg-Rabbit0fil10" d="M9987.94 23464.04c-67.26,-148.73 -106.69,-305.87 -107.15,-464.07 -2.29,-775.51 724.56,-1425.03 1053.4,-1726.35l157.05 727.06c-26.43,47.89 -52.85,95.78 -79.28,143.67 -387.48,-413.26 -1131.08,852.41 -1024.02,1319.69z" style="fill:#52ef2b"/>
  <path class="LeftLeg-Rabbit0fil28" d="M13681.96 23156.77c0,53.89 0,70.23 0,150.29 -1.05,-0.09 -369.7,-11.33 -754.7,102.19 -128.96,38.03 -326.86,124.14 -481.95,220.11 -121.28,75.04 -227.25,140.61 -294.6,161.31 -67.97,20.91 -336.72,117.86 -720.21,19.22 408.62,-65.2 515.39,-112.7 675.71,-162 47.86,-14.71 146.31,-75.63 259,-145.36 162.97,-100.83 370.1,-192.66 519.34,-236.67 413.86,-122.04 796.28,-109.25 797.41,-109.09z" style="fill:#8782cd"/>
  <path class="LeftLeg-Rabbit0fil28" d="M12511.51 24149.58c6.63,40.77 -19.98,82.54 -60.75,89.17 -40.77,6.63 -59.9,0.68 -77.73,-47.56 -3.27,-19.88 -35.74,-71.71 -63.2,-114.07 -105.22,-162.3 -243.27,-375.23 65.46,-578.32 34.46,-22.65 80.77,-13.08 103.42,21.38 22.65,34.46 13.08,80.77 -21.38,103.42 -184.59,121.43 -92.39,263.67 -22.1,372.08 36.56,56.4 63.62,104.09 76.28,153.9z" style="fill:#e67d6c"/>
  <path class="LeftLeg-Rabbit0fil28" d="M11078.21 21248.32c-474.85,376.94 -1120.37,1042.59 -1118.33,1735.75 1.13,388.03 178.15,727.78 465.88,963.66 200.45,164.33 440.69,212.09 574.07,330.27 -171.14,-34.1 -422.55,-72.82 -630.16,-223.79 -362.58,-263.67 -557.8,-589.45 -559.21,-1070.14 -2.19,-736.68 664.8,-1449.29 1177.06,-1854.44l46.29 58.59 44.38 60.1 0.02 0z" style="fill:#be6165"/>
 </g><g id="RightHand-Rabbit1">
  <animateTransform additive="sum" attributeName="transform" dur="10" repeatCount="indefinite" type="translate" values="0;0 200;0;0 200;0;0 200;0;0 200;0"/>
  <metadata id="CorelCorpID_23Corel-Layer"/>
  <path class="RightHand-Rabbit1fil46" d="M16231.2 17708.66c1006.56,345.42 1818.61,1401.79 2256.58,2165.43 288.88,503.69 -636.05,1265.03 -911.19,1013.52 -627.05,-573.17 -1208.37,-619.78 -1688.45,-542.15 -741.88,119.97 -1352.69,-1920.87 -930.81,-2545.29 421.91,-21.63 933.51,-40.49 1273.87,-91.51z" style="fill:#e927d3"/>
  <path class="RightHand-Rabbit1fil47" d="M17028.17 18152.09c111.8,-6.86 782.72,793.91 801.05,817.23 342.71,435.99 536.96,756.1 645.66,989.24 124.69,267.42 -149.87,645.77 -892.67,965.06 0,0 -350.03,-367.59 -502.36,-392.98 -135.9,-245.3 -9.34,-526.52 89.03,-693.94 407.29,-693.11 -600.95,-1292.58 -140.71,-1684.61z" style="fill:#500887"/>
  <path class="RightHand-Rabbit1fil0 RightHand-Rabbit1str0" d="M16476.95 20332.96c340.18,46.54 711.15,199.54 1099.64,554.65 275.13,251.49 1152.89,-508.63 864.02,-1012.31 -437.96,-763.63 -1202.86,-1821.23 -2209.41,-2166.64 -90.05,-30.9 -171.83,-58.83 -246.03,-84.05" style="fill:#aaf634"/>
  <path class="RightHand-Rabbit1fil10" d="M17511.96 20830.3c-602.27,-518.8 -1160.28,-559.8 -1623.82,-484.84 -171.07,27.66 -335.13,-59.69 -481.2,-217.95 -325.13,-471.76 752.73,-1097.7 1038.62,-655.88 261.31,403.84 734.1,847.76 1111.39,1126.01 -1.79,93.3 16.27,193.39 -44.96,232.66l0 -0.01 -0.03 0.01z" style="fill:#860110"/>
 </g><g id="LeftHand-Rabbit1">
   <animateTransform additive="sum" attributeName="transform" dur="10" repeatCount="indefinite" type="translate" values="0;0 200;0;0 200;0;0 200;0;0 200;0"/>
  <metadata id="CorelCorpID_32Corel-Layer"/>
  <path class="LeftHand-Rabbit1fil53" d="M11132.64 17708.66c-1006.56,345.42 -1818.61,1401.79 -2256.58,2165.43 -288.88,503.69 636.05,1265.03 911.19,1013.52 627.05,-573.17 1208.37,-619.78 1688.45,-542.15 741.88,119.97 1352.69,-1920.87 930.81,-2545.29 -421.91,-21.63 -933.51,-40.49 -1273.87,-91.51z" style="fill:#c71d37"/>
  <path class="LeftHand-Rabbit1fil10" d="M9851.88 20830.3c602.27,-518.8 1160.28,-559.8 1623.82,-484.84 171.07,27.66 335.13,-59.69 481.2,-217.95 325.13,-471.76 -752.73,-1097.7 -1038.62,-655.88 -261.31,403.84 -734.1,847.76 -1111.39,1126.01 1.79,93.3 -16.27,193.39 44.96,232.66l0 -0.01 0.03 0.01z" style="fill:#509718"/>
  <path class="LeftHand-Rabbit1fil54" d="M10630.29 17947.94c-375.61,194.99 -1369.45,1243.79 -1493.81,1643.06 513.81,-527.87 1096,-113.05 1499.88,-409.59 300.29,-220.47 350.79,-949.23 -6.07,-1233.47z" style="fill:#44aec2"/>
  <path class="LeftHand-Rabbit1fil0 LeftHand-Rabbit1str0" d="M10886.89 20332.96c-340.18,46.54 -711.15,199.54 -1099.64,554.65 -275.13,251.49 -1152.89,-508.63 -864.02,-1012.31 437.96,-763.63 1202.86,-1821.23 2209.41,-2166.64 90.05,-30.9 171.83,-58.83 246.03,-84.05" style="fill:#915025"/>
 </g><g id="Body-Rabbit0">
   <animateTransform additive="sum" attributeName="transform" dur="10" repeatCount="indefinite" type="translate" values="0;0 200;0;0 200;0;0 200;0;0 200;0"/>
  <metadata id="CorelCorpID_37Corel-Layer"/>
  <path class="Body-Rabbit0fil58" d="M13681.92 23134.87c-1547.89,0 -2751.5,-290.59 -2992.7,-1955.85 -146.87,-1014.04 390.42,-2286.86 991,-3419.88 634.24,80.29 1288.94,123.26 2001.7,142.31 712.76,-19.05 1367.46,-62.02 2001.7,-142.31 600.58,1133.02 1137.87,2405.84 991,3419.88 -241.2,1665.26 -1444.81,1955.85 -2992.7,1955.85z" style="fill:#11eb10"/>
  <path class="Body-Rabbit0fil10" d="M12620.51 23067.29c-1015.93,-155.83 -1748.88,-628.88 -1931.29,-1888.27 -75.17,-519 28.96,-1105.79 228.98,-1706.93 -223.57,2000.42 401.77,3257.02 1702.31,3595.2z" style="fill:#96c0bd"/>
  <path class="Body-Rabbit0fil28" d="M11011.96 22144.35c-249.8,-320.87 -347.52,-640.99 -396.86,-954.78 -59.27,-376.93 -23.8,-997.6 184.1,-1319.31 -78.5,420.39 -93.5,905.22 -35.86,1298.21 50,340.9 103.32,571.56 248.62,975.88z" style="fill:#fe33e9"/>
  <path class="Body-Rabbit0fil59" d="M13681.92 18224.34c-910.76,0 -1629.68,-343.53 -1974.1,388.03 -874.88,1858.28 -905.44,4362.5 1974.1,4362.5 2879.54,0 2848.98,-2504.22 1974.1,-4362.5 -344.42,-731.56 -1063.34,-388.03 -1974.1,-388.03z" style="fill:#843f80"/>
  <path class="Body-Rabbit0fil10" d="M14743.33 23067.29c1015.93,-155.83 1748.88,-628.88 1931.29,-1888.27 75.17,-519 -28.96,-1105.79 -228.98,-1706.93 223.57,2000.42 -401.77,3257.02 -1702.31,3595.2z" style="fill:#1eab6c"/>
  <path class="Body-Rabbit0fil28" d="M16351.92 22144.35c249.8,-320.87 347.52,-640.99 396.86,-954.78 59.27,-376.93 23.8,-997.6 -184.1,-1319.31 78.5,420.39 93.5,905.22 35.86,1298.21 -50,340.9 -103.32,571.56 -248.62,975.88z" style="fill:#cde125"/>
 </g><g id="RightPaw-Rabbit2">
  <animateTransform additive="sum" attributeName="transform" dur="10" repeatCount="indefinite" type="translate" values="0;0 200;0;0 200;0;0 200;0;0 200;0"/>
  <metadata id="CorelCorpID_30Corel-Layer"/>
  <g id="_2131552597904">
   <path class="RightPaw-Rabbit2fil51" d="M17500.83 20836.37c-31.01,671.59 506.32,1058.8 828,765.31 253.5,397.35 884.17,103.39 809.26,-292.5 203.13,-535.14 -266.24,-1035.76 -634.19,-1325.08 -198.11,-64.5 -364.18,-247.68 -461.85,44.06 -113.97,340.43 -156.85,278.81 -402.23,397.75 -163.53,79.26 -10.67,351.89 -138.99,410.46z" style="fill:#ace29b"/>
   <path class="RightPaw-Rabbit2fil10" d="M17500.83 20836.37c-31.01,671.59 506.32,1058.8 828,765.31 341.06,429.25 911,23.85 753.65,-292.7 -65.31,297.19 -520.59,407.83 -657.17,-118.23 -113.25,412.02 -522.03,237.66 -614.7,26.73 -95.14,-216.58 -44.81,-462.8 -253.66,-619.84 -1.8,93.31 16.28,193.4 -44.96,232.65l-0.16 0.1 -0.17 0.11c-1.48,0.93 -2.97,1.82 -4.53,2.69l-0.17 0.1 -0.18 0.09 -0.14 0.09 -0.03 0.01 -0.18 0.1 -0.17 0.09 -0.18 0.09c-1.69,0.92 -3.44,1.79 -5.25,2.61z" style="fill:#881b55"/>
   <path class="RightPaw-Rabbit2fil28" d="M17436.91 20673.48c-79.39,-58.19 -167.86,62.52 -88.48,120.7 28.24,20.69 56.25,42.36 83.3,64.61 -3.93,302.02 99.68,551.64 246.17,712.18 55.54,60.86 117.82,109.47 183.4,143.86 145.9,76.49 311.53,82.65 453.24,-7.98 209.57,238.5 583.03,191.12 784.7,-34.27 86.01,-96.11 134.73,-220.26 115.83,-356.13 82.54,-234.31 46.25,-463.42 -52.44,-673.52 -132.46,-282 -402.86,-497.73 -588.08,-703.58 -33.5,-37.22 -180.19,-286.69 -214.16,-345.48 -58.56,-79 -178.69,10.05 -120.12,89.06 35.43,47.77 75.16,120.11 111.48,186.29 6.41,11.67 81.45,153.11 123.81,187.52 201.58,163.8 430.96,392.41 551.71,649.47 38.04,80.97 65.19,164.94 76.97,250.68 -53.73,-69.19 -156.09,-151.42 -275.06,-139.39 80.64,67.61 125.53,143.46 171.18,252.76 65.8,157.59 113.11,362.41 -12.44,502.72 -141.93,158.63 -411.75,205.47 -562.48,33.5 115.64,-164.64 117.79,-464.48 -80.37,-548.33 54.53,102.27 47.95,374.07 -54.76,476.76 -86.33,86.32 -222.41,119.56 -359.87,47.5 -49.57,-25.99 -97.71,-63.9 -141.8,-112.22 -128.18,-140.48 -217.35,-364.86 -206.61,-639.48 1.55,-21.67 -6.3,-43.83 -23.35,-59.87 -36.49,-34.26 -81.32,-67.73 -121.77,-97.36z" style="fill:#325b65"/>
  </g>
 </g><g id="LeftPaw-Rabbit2">
   <animateTransform additive="sum" attributeName="transform" dur="10" repeatCount="indefinite" type="translate" values="0;0 200;0;0 200;0;0 200;0;0 200;0"/>
  <metadata id="CorelCorpID_45Corel-Layer"/>
  <path class="LeftPaw-Rabbit2fil65" d="M9863.01 20836.37c31.01,671.59 -506.32,1058.8 -828,765.31 -253.5,397.35 -884.17,103.39 -809.26,-292.5 -203.13,-535.14 266.24,-1035.76 634.19,-1325.08 198.11,-64.5 364.18,-247.68 461.85,44.06 113.97,340.43 156.85,278.81 402.23,397.75 163.53,79.26 10.67,351.89 138.99,410.46z" style="fill:#5f040a"/>
  <path class="LeftPaw-Rabbit2fil10" d="M9863.01 20836.37c31.01,671.59 -506.32,1058.8 -828,765.31 -341.06,429.25 -911,23.85 -753.65,-292.7 65.31,297.19 520.59,407.83 657.17,-118.23 113.25,412.02 522.03,237.66 614.7,26.73 95.14,-216.58 44.81,-462.8 253.66,-619.84 1.8,93.31 -16.28,193.4 44.96,232.65l0.16 0.1 0.17 0.11c1.48,0.93 2.97,1.82 4.53,2.69l0.17 0.1 0.18 0.09 0.14 0.09 0.03 0.01 0.18 0.1 0.17 0.09 0.18 0.09c1.69,0.92 3.44,1.79 5.25,2.61z" style="fill:#995de9"/>
  <path class="LeftPaw-Rabbit2fil28" d="M9926.93 20673.48c79.39,-58.19 167.86,62.52 88.48,120.7 -28.24,20.69 -56.25,42.36 -83.3,64.61 3.93,302.02 -99.68,551.64 -246.17,712.18 -55.54,60.86 -117.82,109.47 -183.4,143.86 -145.9,76.49 -311.53,82.65 -453.24,-7.98 -209.57,238.5 -583.03,191.12 -784.7,-34.27 -86.01,-96.11 -134.73,-220.26 -115.83,-356.13 -82.54,-234.31 -46.25,-463.42 52.44,-673.52 132.46,-282 402.86,-497.73 588.08,-703.58 33.5,-37.22 180.19,-286.69 214.16,-345.48 58.56,-79 178.69,10.05 120.12,89.06 -35.43,47.77 -75.16,120.11 -111.48,186.29 -6.41,11.67 -81.45,153.11 -123.81,187.52 -201.58,163.8 -430.96,392.41 -551.71,649.47 -38.04,80.97 -65.19,164.94 -76.97,250.68 53.73,-69.19 156.09,-151.42 275.06,-139.39 -80.64,67.61 -125.53,143.46 -171.18,252.76 -65.8,157.59 -113.11,362.41 12.44,502.72 141.93,158.63 411.75,205.47 562.48,33.5 -115.64,-164.64 -117.79,-464.48 80.37,-548.33 -54.53,102.27 -47.95,374.07 54.76,476.76 86.33,86.32 222.41,119.56 359.87,47.5 49.57,-25.99 97.71,-63.9 141.8,-112.22 128.18,-140.48 217.35,-364.86 206.61,-639.48 -1.55,-21.67 6.3,-43.83 23.35,-59.87 36.49,-34.26 81.32,-67.73 121.77,-97.36z" style="fill:#324fee"/>
 </g><g id="NecklaceYinYang">
 <animateTransform additive="sum" attributeName="transform" dur="10" repeatCount="indefinite" type="translate" values="0;0 200;0;0 200;0;0 200;0;0 200;0"/>
  <metadata id="CorelCorpID_40Corel-Layer"/>
  <path class="NecklaceYinYangfil225new" d="M16543 17208c-73,675 -449,1409 -941,2000 -570,684 -1305,1183 -1920,1183 -615,0 -1350,-499 -1920,-1183 -492,-591 -868,-1325 -941,-2000l352 0c73,593 413,1245 856,1777 509,611 1145,1056 1653,1056 508,0 1144,-445 1653,-1056 442,-532 782,-1184 856,-1777l352 0z" style="fill:#49d567"/>
  <path class="NecklaceYinYangfil46new" d="M11135 16868c-273,1109 1292,3303 2547,3303 1255,0 2820,-2194 2547,-3303l-25 4c1,34 2,68 2,103 0,650 -370,1407 -871,2010 -509,611 -1145,1056 -1653,1056 -508,0 -1144,-445 -1653,-1056 -501,-603 -871,-1360 -871,-2010 0,-35 1,-69 2,-103l-25 -4z" style="fill:#6d3311"/>
  <path class="NecklaceYinYangfil47new NecklaceYinYangstr4new" d="M16543 17208c-73,675 -449,1409 -941,2000 -570,684 -1305,1183 -1920,1183 -615,0 -1350,-499 -1920,-1183 -492,-591 -868,-1325 -941,-2000l352 0c73,593 413,1245 856,1777 509,611 1145,1056 1653,1056 508,0 1144,-445 1653,-1056 442,-532 782,-1184 856,-1777l352 0z" style="fill:#1c2379"/>
  <path class="NecklaceYinYangfil226new NecklaceYinYangstr3new" d="M11302 18631c-392,0 -362,-385 -163,-550 197,-163 493,-157 449,148 -114,-87 -503,248 -286,402z" style="fill:#69cdf0"/>
  <path class="NecklaceYinYangfil227new NecklaceYinYangstr3new" d="M12385 19918c-393,11 -359,-370 -179,-545 182,-179 487,-172 453,134 -117,-83 -496,263 -274,411z" style="fill:#fb970e"/>
  <path class="NecklaceYinYangfil228new NecklaceYinYangstr3new" d="M16062 18631c392,0 345,-403 163,-550 -200,-160 -493,-157 -449,148 114,-87 503,248 286,402z" style="fill:#863290"/>
  <path class="NecklaceYinYangfil229new NecklaceYinYangstr3new" d="M14979 19918c393,11 384,-357 179,-545 -202,-187 -487,-172 -453,134 117,-83 496,263 274,411z" style="fill:#441227"/>
  <g>
   <circle class="NecklaceYinYangfil84new" r="1577" transform="matrix(-0.552338 -0.290723 0.290723 -0.552338 13681.9 21396.4)"/>
   <g>
    <path class="NecklaceYinYangfil84new" d="M14075 20650c412,217 570,727 353,1139 -215,409 -719,568 -1129,359l0 0c-3,-2 -7,-4 -10,-5l0 0c-206,-109 -285,-364 -177,-570 109,-206 364,-285 570,-177l0 0c206,109 461,30 570,-176 108,-207 29,-462 -177,-570z" style="fill:#3f0edf"/>
    <path class="NecklaceYinYangfil83new" d="M13289 22143c-412,-217 -570,-727 -353,-1139 215,-409 718,-568 1129,-359l0 0c3,2 7,3 10,5l0 0c206,108 285,363 177,570 -109,206 -364,285 -570,176l0 0c-206,-108 -461,-29 -570,177 -108,206 -29,461 177,570z" style="fill:#56d070"/>
    <path class="NecklaceYinYangfil84new" d="M13943 20901c67,35 93,119 58,187 -36,67 -119,93 -187,58 -68,-36 -94,-120 -58,-187 36,-68 119,-94 187,-58z" style="fill:#8fdaf0"/>
    <path class="NecklaceYinYangfil83new" d="M13421 21892c-68,-36 -94,-119 -58,-187 36,-67 119,-93 187,-58 68,36 93,119 58,187 -36,68 -119,94 -187,58z" style="fill:#a602ae"/>
   </g>
  </g>
  <path class="NecklaceYinYangfil230new NecklaceYinYangstr4new" d="M13599 19944l166 0c25,0 47,21 46,46l-24 447c-1,26 -20,46 -46,46l-119 0c-25,0 -44,-20 -46,-46l-23 -447c-1,-26 21,-46 46,-46z" style="fill:#61c64a"/>
 </g><g id="BraceletLeather-Medium">
 <animateTransform additive="sum" attributeName="transform" dur="10" repeatCount="indefinite" type="translate" values="0;0 200;0;0 200;0;0 200;0;0 200;0"/>
  <metadata id="CorelCorpID_17Corel-Layer"/>
  <path class="BraceletLeather-Mediumfil42new BraceletLeather-Mediumstr3new" d="M8689 19690c-86,-160 -115,-250 -201,-410 -29,-75 3,-239 44,-232 104,3 219,4 324,-2 3,181 43,415 96,612 -87,11 -175,21 -263,32z" style="fill:#c715c0"/>
  <path class="BraceletLeather-Mediumfil43new" d="M8689 19690c-86,-160 -115,-250 -201,-410 -29,-75 3,-239 44,-232l8 0c53,219 164,421 282,626l-133 16z" style="fill:#6acc6a"/>
  <path class="BraceletLeather-Mediumfil33new BraceletLeather-Mediumstr3new" d="M8689 19690c-86,-160 -115,-250 -201,-410 -29,-75 3,-239 44,-232 104,3 219,4 324,-2 3,181 43,415 96,612 -87,11 -175,21 -263,32z" style="fill:#a278bc"/>
  <path class="BraceletLeather-Mediumfil44new BraceletLeather-Mediumstr3new" d="M8645 19884c-170,-64 -251,-113 -421,-177 -71,-38 -153,-183 -118,-204 81,-66 168,-141 243,-214 121,135 304,285 474,399 -59,66 -118,131 -178,196z" style="fill:#3bc922"/>
  <path class="BraceletLeather-Mediumfil43new" d="M8645 19884c-170,-64 -251,-113 -421,-177 -71,-38 -153,-183 -118,-204l6 -5c184,130 400,211 623,288l-90 98z" style="fill:#2b700d"/>
  <path class="BraceletLeather-Mediumfil33new BraceletLeather-Mediumstr3new" d="M8645 19884c-170,-64 -251,-113 -421,-177 -71,-38 -153,-183 -118,-204 81,-66 168,-141 243,-214 121,135 304,285 474,399 -59,66 -118,131 -178,196z" style="fill:#071873"/>
  <path class="BraceletLeather-Mediumfil45new BraceletLeather-Mediumstr4new" d="M8734 19936c-151,-67 -255,-143 -151,-272 117,-147 267,-135 481,-33 407,194 958,608 1165,923 91,139 91,306 -39,409 -129,103 -210,-20 -308,-153 -243,-331 -765,-704 -1148,-874z" style="fill:#e2182f"/>
  <path class="BraceletLeather-Mediumfil46new" d="M8734 19936c-79,-35 -145,-73 -176,-119 77,-41 167,-29 240,0 506,201 953,539 1254,974 48,70 58,140 38,210 -76,-6 -138,-95 -208,-191 -243,-331 -765,-704 -1148,-874z" style="fill:#b82ee7"/>
  <path class="BraceletLeather-Mediumfil47new BraceletLeather-Mediumstr4new" d="M8734 19936c-151,-67 -255,-143 -151,-272 117,-147 267,-135 481,-33 407,194 958,608 1165,923 91,139 91,306 -39,409 -129,103 -210,-20 -308,-153 -243,-331 -765,-704 -1148,-874z" style="fill:#12b006"/>
  <path class="BraceletLeather-Mediumfil48new BraceletLeather-Mediumstr3new" d="M18674 19690c87,-160 116,-250 202,-410 29,-75 -3,-239 -44,-232 -104,3 -219,4 -324,-2 -3,181 -43,415 -97,612 88,11 176,21 263,32z" style="fill:#56eba8"/>
  <path class="BraceletLeather-Mediumfil43new" d="M18674 19690c87,-160 116,-250 202,-410 29,-75 -3,-239 -44,-232l-8 0c-53,219 -164,421 -282,626l132 16z" style="fill:#cf436e"/>
  <path class="BraceletLeather-Mediumfil33new BraceletLeather-Mediumstr3new" d="M18674 19690c87,-160 116,-250 202,-410 29,-75 -3,-239 -44,-232 -104,3 -219,4 -324,-2 -3,181 -43,415 -97,612 88,11 176,21 263,32z" style="fill:#5b66a7"/>
  <path class="BraceletLeather-Mediumfil49new BraceletLeather-Mediumstr3new" d="M18718 19884c170,-64 252,-113 422,-177 71,-38 153,-183 118,-204 -81,-66 -168,-141 -243,-214 -121,135 -305,285 -475,399 60,66 119,131 178,196z" style="fill:#ff47cf"/>
  <path class="BraceletLeather-Mediumfil43new" d="M18718 19884c170,-64 252,-113 422,-177 71,-38 153,-183 118,-204l-6 -5c-184,130 -400,211 -623,288l89 98z" style="fill:#679d6a"/>
  <path class="BraceletLeather-Mediumfil33new BraceletLeather-Mediumstr3new" d="M18718 19884c170,-64 252,-113 422,-177 71,-38 153,-183 118,-204 -81,-66 -168,-141 -243,-214 -121,135 -305,285 -475,399 60,66 119,131 178,196z" style="fill:#5ecc15"/>
  <path class="BraceletLeather-Mediumfil50new BraceletLeather-Mediumstr4new" d="M18630 19936c151,-67 255,-143 151,-272 -117,-147 -267,-135 -481,-33 -407,194 -958,608 -1165,923 -91,139 -91,306 39,409 129,103 210,-20 307,-153 244,-331 766,-704 1149,-874z" style="fill:#04bf8e"/>
  <path class="BraceletLeather-Mediumfil46new" d="M18630 19936c79,-35 145,-73 175,-119 -76,-41 -166,-29 -239,0 -507,201 -954,539 -1254,974 -48,70 -58,140 -38,210 76,-6 137,-95 207,-191 244,-331 766,-704 1149,-874z" style="fill:#e498d6"/>
  <path class="BraceletLeather-Mediumfil47new BraceletLeather-Mediumstr4new" d="M18630 19936c151,-67 255,-143 151,-272 -117,-147 -267,-135 -481,-33 -407,194 -958,608 -1165,923 -91,139 -91,306 39,409 129,103 210,-20 307,-153 244,-331 766,-704 1149,-874z" style="fill:#d2bf5a"/>
 </g><g id="Head-Rabbit2">
   <animateTransform additive="sum" attributeName="transform" dur="10" repeatCount="indefinite" type="translate" values="0;0 200;0;0 200;0;0 200;0;0 200;0"/>
  <metadata id="CorelCorpID_62Corel-Layer"/>
  <path class="Head-Rabbit2fil170" d="M13681.94 7484.8c-3317.85,29.1 -6810.78,4284.97 -6118.37,7422.04 477.37,2162.82 3344.41,3029.88 6118.37,3029.88 2773.96,0 5636.9,-867.98 6118.37,-3029.88 318,-1427.9 -169.92,-2904.37 -1129.72,-4272.94 -534.38,-555.74 -1112.15,-1289.72 -1631.44,-1823.11 -967.5,-865.02 -2195.85,-1325.98 -3357.21,-1325.99z" style="fill:#c3ecc1"/>
  <path class="Head-Rabbit2fil10" d="M8458.47 10922.11c-784.99,1275.18 -1176.92,2718.44 -894.9,3984.73 421.08,1890.7 2663.57,2791.72 5075.04,2988.04 -4045.8,-960.15 -5423.91,-2961.05 -4180.14,-6972.77z" style="fill:#c03718"/>
  <path class="Head-Rabbit2fil171" d="M16174.59 8218.46c578.53,287.62 804.91,528.32 1289.43,947.43 386.7,334.51 1047.51,1222.67 1289.74,1468.79 1054.25,1505.19 1398.37,2974.98 1004.75,4518.14 -1462.43,3141.33 -7154.84,556.86 -6033.8,-4375.98 204.95,-901.8 653.16,-1573.87 1210.25,-2054.75 301.42,-260.17 814.94,-651.41 1239.63,-503.63z" style="fill:#ab1098"/>
  <path class="Head-Rabbit2fil172" d="M12595.54 12717.06c85.82,-1870.87 -2905.59,-3216.56 -4065.24,-1994.97 -1552.52,1974.27 -219.08,5247.91 2351.61,5191.61l0.08 -0.01c285.5,780.12 1295.38,1611.26 2799.95,1611.26 2288.5,0 3432.72,-1922.89 2623.75,-2664.33 -2030.78,-1861.29 -1735.4,-3879.75 -2623.75,-3879.75 -592.35,0 -506.08,586.3 -1086.4,1736.19z" style="fill:#62b205"/>
  <path class="Head-Rabbit2fil28" d="M13681.94 7559.8c-408.05,0 -767.02,56.44 -1101.68,148.75 -949.75,261.97 -2036.74,899.1 -2715.65,1499.17 604.3,-730.18 1714.22,-1378.1 2675.81,-1643.31 347.84,-95.94 719.98,-154.61 1141.52,-154.61 421.54,0 793.68,58.67 1141.52,154.61 961.59,265.21 2071.51,913.13 2675.81,1643.31 -678.91,-600.07 -1765.9,-1237.2 -2715.65,-1499.17 -334.66,-92.31 -693.63,-148.75 -1101.68,-148.75z" style="fill:#5eb97c"/>
  <path class="Head-Rabbit2fil28" d="M18410.69 10238.26c570.13,841.02 921.69,1492.78 1241.8,2665.51 217.04,795.05 133.62,1728.42 77.69,1979.56 -178.58,801.84 -697.02,1428.14 -1416.95,1902.22 -661.21,435.41 -2110.79,926.56 -3200.89,1064.47 1560.35,-30.12 2775.1,-598.49 3282.93,-929.93 753.19,-491.58 1329.37,-1151.32 1517.36,-1995.41 59.36,-266.55 133.07,-1244.85 -87.34,-2064.17 -229.03,-851.31 -688.2,-2100.4 -1414.6,-2622.25z" style="fill:#19d120"/>
  <path class="Head-Rabbit2fil28" d="M8953.19 10238.26c-570.13,841.02 -921.69,1492.78 -1241.8,2665.51 -217.04,795.05 -133.62,1728.42 -77.69,1979.56 178.58,801.84 697.02,1428.14 1416.95,1902.22 661.21,435.41 2110.79,926.56 3200.89,1064.47 -1560.35,-30.12 -2775.1,-598.49 -3282.93,-929.93 -753.19,-491.58 -1329.37,-1151.32 -1517.36,-1995.41 -59.36,-266.55 -133.07,-1244.85 87.34,-2064.17 229.03,-851.31 688.2,-2100.4 1414.6,-2622.25z" style="fill:#068c97"/>
 </g><g id="Mouth-Rabbit3">
   <animateTransform additive="sum" attributeName="transform" dur="10" repeatCount="indefinite" type="translate" values="0;0 200;0;0 200;0;0 200;0;0 200;0"/>
  <metadata id="CorelCorpID_71Corel-Layer"/>
  <path class="Mouth-Rabbit3fil193 Mouth-Rabbit3str0" d="M13679.02 16010.81l3.22 577.8c-0.24,59.51 54.98,117.79 144.15,119.51 103.72,1.99 221.15,-34.27 344.57,-112.22 126.08,-79.62 208.84,-233.36 96.8,-339.99 -174.01,-165.59 -558.93,-334.12 -588.74,-245.1z" style="fill:#e5a651"/>
  <path class="Mouth-Rabbit3fil194 Mouth-Rabbit3str0" d="M13679.02 16010.81l-3.22 577.8c0.24,59.51 -54.98,117.79 -144.15,119.51 -103.72,1.99 -221.15,-34.27 -344.57,-112.22 -126.08,-79.62 -208.84,-233.36 -96.8,-339.99 174.01,-165.59 558.93,-334.12 588.74,-245.1z" style="fill:#6b6a4f"/>
  <line class="Mouth-Rabbit3fil0 Mouth-Rabbit3str0" x1="13681.94" x2="13681.94" y1="15466.79" y2="15943.77"/>
  <path class="Mouth-Rabbit3fil10" d="M13060.31 16457.74c0,0 377.27,-258.62 621.63,-218.83 14.4,-98.75 0,-271.16 0,-271.16 0,0 -657.64,136.09 -670.79,303.91 -13.15,167.83 49.16,186.08 49.16,186.08z" style="fill:#4ee9a9"/>
  <path class="Mouth-Rabbit3fil10" d="M14316.38 16457.74c0,0 -377.27,-258.62 -621.63,-218.83 -14.4,-98.75 0,-271.16 0,-271.16 0,0 657.64,136.09 670.79,303.91 13.15,167.83 -49.16,186.08 -49.16,186.08z" style="fill:#354c96"/>
  <path class="Mouth-Rabbit3fil0 Mouth-Rabbit3str0" d="M13681.94 15910.15c310.96,42.88 965.8,484.03 1038.41,876.66" style="fill:#1025d3"/>
  <path class="Mouth-Rabbit3fil0 Mouth-Rabbit3str0" d="M13681.94 15910.15c-310.96,42.88 -965.8,484.03 -1038.41,876.66" style="fill:#c6e46a"/>
  <path class="Mouth-Rabbit3fil10" d="M14664.6 16796.01c-49.85,-94.27 -276.36,-248.71 -455.73,-92.82 -136.52,27.45 131.49,-344.91 143.5,-344.88 12.01,0.01 253.69,-2.23 312.23,437.7z" style="fill:#633716"/>
  <path class="Mouth-Rabbit3fil10" d="M12699.28 16796.01c49.85,-94.27 291.16,-257.3 470.53,-101.43 136.52,27.47 -146.29,-336.3 -158.3,-336.27 -12.01,0.01 -253.69,-2.23 -312.23,437.7z" style="fill:#0b7d44"/>
 </g><g id="EyesClosed-Rabbit5">
   <animateTransform additive="sum" attributeName="transform" dur="10" repeatCount="indefinite" type="translate" values="0;0 200;0;0 200;0;0 200;0;0 200;0"/>
  <metadata id="CorelCorpID_88Corel-Layer"/>
  <g id="_2131599764560">
   <path class="EyesClosed-Rabbit5fil10" d="M12202.3 14641.55c-139.22,-187.96 -521.34,-283.96 -879.56,-219.04 -581.99,105.49 -1176.46,64.83 -1647.49,-174.91 -804.51,-409.44 -1201.19,-1264.08 -1191.41,-1959.42 150.91,390.19 649.57,1144.17 1392.41,1538.91 423.04,224.81 899.32,334.43 1328.8,368.62 495.95,39.5 739.38,-63.18 997.25,445.84z"/>
   <path class="EyesClosed-Rabbit5fil192" d="M12205.01 14661.14c-63.74,-92.05 -203.68,-199.42 -377.79,-265.23 -557.22,-210.55 -1131.05,153.76 -2086.17,-332.34 -804.51,-409.46 -1271,-1215.86 -1261.22,-1911.2 150.91,390.19 653.58,1110.64 1396.42,1505.38 486.29,258.42 1059.73,404.46 1550.37,456.03 429.07,45.1 719.34,90.29 778.39,547.36z"/>
  </g>
  <g id="_2131599762160">
   <path class="EyesClosed-Rabbit5fil10" d="M15161.58 14641.55c139.22,-187.96 521.34,-283.96 879.56,-219.04 581.99,105.49 1176.46,64.83 1647.49,-174.91 804.51,-409.44 1201.19,-1264.08 1191.41,-1959.42 -150.91,390.19 -649.57,1144.17 -1392.41,1538.91 -423.04,224.81 -899.32,334.43 -1328.8,368.62 -495.95,39.5 -739.38,-63.18 -997.25,445.84z"/>
   <path class="EyesClosed-Rabbit5fil192" d="M15158.87 14661.14c63.74,-92.05 203.68,-199.42 377.79,-265.23 557.22,-210.55 1131.05,153.76 2086.17,-332.34 804.51,-409.46 1271,-1215.86 1261.22,-1911.2 -150.91,390.19 -653.58,1110.64 -1396.42,1505.38 -486.29,258.42 -1059.73,404.46 -1550.37,456.03 -429.07,45.1 -719.34,90.29 -778.39,547.36z"/>
  </g>
  <g id="_2131599762448">
   <path class="EyesClosed-Rabbit5fil241" d="M9646.46 10666.38c284.18,252.41 2024.67,1087.92 2183.03,1030.11 211.36,-77.16 64.85,-535.48 -161.98,-749.75 -508.65,-480.5 -2287.15,-516.73 -2021.05,-280.36z"/>
   <path class="EyesClosed-Rabbit5fil10" d="M9646.46 10666.38c284.18,252.41 2024.67,1087.92 2183.03,1030.11 211.36,-77.16 64.85,-535.48 -161.98,-749.75 -508.65,-480.5 -2287.15,-516.73 -2021.05,-280.36z"/>
  </g>
  <g id="_2131599760656">
   <path class="EyesClosed-Rabbit5fil241" d="M17717.42 10666.38c-284.18,252.41 -2024.67,1087.92 -2183.03,1030.11 -211.36,-77.16 -64.85,-535.48 161.98,-749.75 508.65,-480.5 2287.15,-516.73 2021.05,-280.36z"/>
   <path class="EyesClosed-Rabbit5fil10" d="M17717.42 10666.38c-284.18,252.41 -2024.67,1087.92 -2183.03,1030.11 -211.36,-77.16 -64.85,-535.48 161.98,-749.75 508.65,-480.5 2287.15,-516.73 2021.05,-280.36z"/>
  </g>
 </g><g id="Eyes-Rabbit5">
   <animate attributeName="opacity" dur="10" repeatCount="indefinite" values="0;1;1;1;1;1;1;1;1;1;1;1;1;1;1;1;1;1;1;1;1;1;1;1;1;1;1;1;1;1;1;1;1;1;1;1;1;1;1;1;1;1;1;1;1;1;1;1;1;1;1;1;1;1;1;1;1;1;1;1;1;1;1;1;1;1;1;1;1;1;1;1;1;1;1;1;1;1;1;1;1;1;1;1;0;0"/>
   <animateTransform additive="sum" attributeName="transform" dur="10" repeatCount="indefinite" type="translate" values="0;0 200;0;0 200;0;0 200;0;0 200;0"/>
  <metadata id="CorelCorpID_89Corel-Layer"/>
  <g id="_2131599759632">
   <g>
    <path class="Eyes-Rabbit5fil242" d="M15431.95 13033.41c-118.85,438.31 -196.12,967.4 -215.08,1605.69 1179.6,1031.92 4066.83,148.64 3625.03,-2480.51 -1868.88,-442.98 -2929.75,341.6 -3409.95,874.82z"/>
    <path class="Eyes-Rabbit5fil243" d="M15431.8 13033.58c430.24,-477.82 1326.9,-1157.52 2853.35,-974.94 62.17,233.47 84.16,482.33 58.55,737.43 -111.75,1112.84 -1086.1,1922.52 -2176.21,1808.43 -347.03,-36.31 -663.88,-161.96 -931.1,-352.15 33.65,-469.08 101.52,-872.34 195.41,-1218.77z"/>
    <path class="Eyes-Rabbit5fil244" d="M15432.06 13033.29c371.21,-412.15 1089.17,-974.57 2259.04,-1004.15 42.47,205.08 55.08,425.48 32.27,652.56 -95.62,952.27 -776.96,1661.06 -1521.77,1583.12 -370.99,-38.82 -687.73,-265.55 -900.45,-601.01 34.66,-228.75 78.8,-438.35 130.91,-630.52z"/>
    <path class="Eyes-Rabbit5fil189" d="M18799.29 12148.67c-419.41,-77.74 -3655.45,-833.31 -3633.46,2433.59 0,0 51.04,56.84 51.04,56.84 282.6,-1761.06 1648.99,-2547.22 3708.17,-1691.01 -41.67,-147.55 -63.52,-642.3 -125.75,-799.42z"/>
    <path class="Eyes-Rabbit5fil0 Eyes-Rabbit5str0" d="M15576.78 12883.53c-293.43,355.66 -340.95,1117.28 -359.91,1755.57 1179.6,1031.92 4066.83,148.65 3625.03,-2480.51 -1868.88,-442.98 -2784.92,191.72 -3265.12,724.94z"/>
   </g>
   <g>
    <circle class="Eyes-Rabbit5fil211" r="234.72" transform="matrix(-0.356054 -0.844268 -1.67169 0.860515 17439.6 14442.6)"/>
    <circle class="Eyes-Rabbit5fil211" r="234.72" transform="matrix(-0.483139 -0.199855 -0.348888 0.735302 18063.1 13926.8)"/>
    <path class="Eyes-Rabbit5fil211" d="M17331.92 12344.42c-482.44,-39.17 -784.3,898 -98.08,969.81 626.66,65.58 560.67,-932.25 98.08,-969.81z"/>
   </g>
  </g>
  <g id="_2131599755472">
   <g>
    <path class="Eyes-Rabbit5fil245" d="M11931.93 13033.41c118.85,438.31 196.12,967.4 215.08,1605.69 -1179.6,1031.92 -4066.83,148.64 -3625.03,-2480.51 1868.88,-442.98 2929.75,341.6 3409.95,874.82z"/>
    <path class="Eyes-Rabbit5fil246" d="M11932.08 13033.58c-430.24,-477.82 -1326.9,-1157.52 -2853.35,-974.94 -62.17,233.47 -84.16,482.33 -58.55,737.43 111.75,1112.84 1086.1,1922.52 2176.21,1808.43 347.03,-36.31 663.88,-161.96 931.1,-352.15 -33.65,-469.08 -101.52,-872.34 -195.41,-1218.77z"/>
    <path class="Eyes-Rabbit5fil247" d="M11931.82 13033.29c-371.21,-412.15 -1089.17,-974.57 -2259.04,-1004.15 -42.47,205.08 -55.08,425.48 -32.27,652.56 95.62,952.27 776.96,1661.06 1521.77,1583.12 370.99,-38.82 687.73,-265.55 900.45,-601.01 -34.66,-228.75 -78.8,-438.35 -130.91,-630.52z"/>
    <path class="Eyes-Rabbit5fil189" d="M8564.59 12148.67c419.41,-77.74 3655.45,-833.31 3633.46,2433.59 0,0 -51.04,56.84 -51.04,56.84 -282.6,-1761.06 -1648.99,-2547.22 -3708.17,-1691.01 41.67,-147.55 63.52,-642.3 125.75,-799.42z"/>
    <path class="Eyes-Rabbit5fil0 Eyes-Rabbit5str0" d="M11787.1 12883.53c293.43,355.66 340.95,1117.28 359.91,1755.57 -1179.6,1031.92 -4066.83,148.65 -3625.03,-2480.51 1868.88,-442.98 2784.92,191.72 3265.12,724.94z"/>
   </g>
   <g>
    <circle class="Eyes-Rabbit5fil211" r="234.72" transform="matrix(0.356054 -0.844268 1.67169 0.860515 9924.33 14442.6)"/>
    <circle class="Eyes-Rabbit5fil211" r="234.72" transform="matrix(0.483139 -0.199855 0.348888 0.735302 9300.77 13926.8)"/>
    <path class="Eyes-Rabbit5fil211" d="M10031.96 12344.42c482.44,-39.17 784.3,898 98.08,969.81 -626.66,65.58 -560.67,-932.25 -98.08,-969.81z"/>
   </g>
  </g>
 </g><g id="Moustache-Rabbit0">
   <animateTransform additive="sum" attributeName="transform" dur="10" repeatCount="indefinite" type="translate" values="0;0 200;0;0 200;0;0 200;0;0 200;0"/>
  <metadata id="CorelCorpID_98Corel-Layer"/>
  <rect class="Moustache-Rabbit0fil0" height="1458.79" width="1352.04" x="13005.92" y="11962.24"/>
  <rect class="Moustache-Rabbit0fil0" height="1458.79" width="1352.04" x="13005.92" y="11962.24"/>
 </g><g id="Nose-Rabbit0">
   <animateTransform additive="sum" attributeName="transform" dur="10" repeatCount="indefinite" type="translate" values="0;0 200;0;0 200;0;0 200;0;0 200;0"/>
  <metadata id="CorelCorpID_107Corel-Layer"/>
  <path class="Nose-Rabbit0fil320 Nose-Rabbit0str0" d="M13681.94 15552.26c0,0 -562.44,-234.12 -896.71,-743.31 389.83,185.2 450.19,134.81 896.71,339.9 446.52,-205.09 506.88,-154.7 896.71,-339.9 -334.27,509.19 -896.71,743.31 -896.71,743.31z" style="fill:#b564dc"/>
 </g><g id="AccessoryDuck">
  <metadata id="CorelCorpID_7Corel-Layer"/>
  <g>
   <path class="AccessoryDuckfil122" d="M6799 23590c567,92 901,386 954,797 53,412 -243,1082 -841,1089 -393,5 -1153,26 -1786,26 -391,0 -696,-285 -829,-563 -183,-382 -87,-1276 203,-1374 170,-58 552,365 851,277 435,-128 967,-330 1448,-252z" style="fill:#cea1da"/>
   <path class="AccessoryDuckfil48" d="M7758 24535c-23,406 -315,934 -846,941 -393,5 -1153,26 -1786,26 -391,0 -696,-285 -829,-563 -156,-325 -109,-1021 87,-1282 -106,322 -111,821 11,1082 131,278 430,563 813,563 621,0 1366,-21 1751,-26 437,-6 710,-381 799,-741z" style="fill:#d0af09"/>
   <path class="AccessoryDuckfil123" d="M6799 23590c56,9 109,20 160,33 -130,90 -255,351 -427,375 -135,19 -523,-198 -655,-168 -209,48 -405,103 -557,148 -275,81 -535,-184 -692,-130 -267,91 -276,730 -108,1082 120,250 435,557 785,572 -61,0 -120,0 -179,0 -391,0 -696,-285 -829,-563 -183,-382 -87,-1276 203,-1374 170,-58 552,365 851,277 435,-128 967,-330 1448,-252z" style="fill:#f7c1e5"/>
   <path class="AccessoryDuckfil2 AccessoryDuckstr1" d="M6799 23590c567,92 901,386 954,797 53,412 -243,1082 -841,1089 -393,5 -1153,26 -1786,26 -391,0 -696,-285 -829,-563 -183,-382 -87,-1276 203,-1374 170,-58 552,365 851,277 435,-128 967,-330 1448,-252z" style="fill:#3ec855"/>
   <path class="AccessoryDuckfil124" d="M6799 22018c651,0 1017,455 1017,1017 0,561 -456,1016 -1017,1016 -561,0 -1016,-455 -1016,-1016 0,-562 365,-1017 1016,-1017z" style="fill:#bafd79"/>
   <path class="AccessoryDuckfil123" d="M6799 22018c651,0 1017,455 1017,1017 0,95 -14,186 -38,274 13,-58 21,-117 21,-178 0,-519 -394,-978 -993,-978 -598,0 -854,358 -854,878 0,454 400,909 767,1017 -524,-41 -936,-479 -936,-1013 0,-562 365,-1017 1016,-1017z" style="fill:#73c686"/>
   <path class="AccessoryDuckfil3" d="M6185 23844c-28,28 -290,-116 -378,-327 -53,-104 -110,-285 -125,-443 -4,-44 -7,-84 -7,-123 0,-256 79,-492 231,-671 152,-180 376,-303 666,-331 43,-4 85,-6 127,-6 344,0 637,118 846,308 218,199 346,477 346,784 0,197 -53,383 -146,543 -114,198 -486,429 -501,374 -14,-55 186,-125 372,-448 79,-138 125,-298 125,-469 0,-264 -109,-502 -297,-673 -182,-166 -440,-269 -745,-269 -41,0 -79,2 -113,5 -248,24 -438,127 -566,278 -128,152 -195,354 -195,575 0,37 2,74 5,108 14,140 50,256 110,390 60,135 273,366 245,395z" style="fill:#421764"/>
   <path class="AccessoryDuckfil123" d="M6658 22472c143,0 258,134 258,300 0,166 -115,300 -258,300 -143,0 -259,-134 -259,-300 0,-166 116,-300 259,-300z" style="fill:#28ae60"/>
   <ellipse class="AccessoryDuckfil125" cx="6677" cy="22749" rx="239" ry="278"/>
   <path class="AccessoryDuckfil2 AccessoryDuckstr18" d="M8022 22883c-201,144 -531,341 -779,257" style="fill:#e74313"/>
   <path class="AccessoryDuckfil126" d="M6906 23254c-93,-143 260,-242 351,-320 100,-87 101,-231 168,-331 379,92 984,-279 923,-35 -43,175 -342,292 -454,408 135,81 371,182 293,310 -165,270 -1199,93 -1281,-32z" style="fill:#05feb3"/>
   <path class="AccessoryDuckfil127" d="M5595 24102c432,0 782,85 782,426 0,341 -350,504 -782,504 -432,0 -782,-445 -782,-651 0,-207 350,-279 782,-279z" style="fill:#b63685"/>
   <path class="AccessoryDuckfil123" d="M5595 24102c112,0 218,6 314,20 -54,-3 -109,-5 -167,-5 -397,0 -719,62 -719,238 0,176 322,556 719,556 224,0 424,-44 556,-135 -127,173 -394,256 -703,256 -432,0 -782,-445 -782,-651 0,-207 350,-279 782,-279z" style="fill:#96d040"/>
   <path class="AccessoryDuckfil2" d="M5595 24102c432,0 782,85 782,426 0,341 -350,504 -782,504 -432,0 -782,-445 -782,-651 0,-207 350,-279 782,-279z" style="fill:#ea9440"/>
   <path class="AccessoryDuckfil128" d="M7774 23111c-89,-34 -14,-124 -111,-45 -97,79 -363,35 -380,106 -17,71 420,126 587,75 167,-51 -7,-102 -96,-136z" style="fill:#3b74d6"/>
   <path class="AccessoryDuckfil3" d="M7978 22822c34,-24 80,-16 105,17 24,33 16,80 -17,104 -104,75 -242,164 -388,223 -227,93 -542,12 -506,-50 0,-32 161,63 450,-88 126,-66 259,-136 356,-206z" style="fill:#846c32"/>
   <path class="AccessoryDuckfil2 AccessoryDuckstr0" d="M6843 23214c-50,-149 300,-228 411,-311 100,-77 103,-211 171,-300 595,142 902,-305 923,-35 14,173 -342,292 -454,408 135,81 371,182 293,310 -165,270 -1277,131 -1344,-72z" style="fill:#c902ac"/>
   <ellipse class="AccessoryDuckfil14" cx="6745" cy="22636" rx="71" ry="72"/>
   <path class="AccessoryDuckfil14" d="M6953 22225c60,7 105,42 101,77 -4,35 -60,68 -120,61 -60,-7 -102,-52 -98,-87 4,-36 57,-59 117,-51z" style="fill:#d1c319"/>
   <path class="AccessoryDuckfil14" d="M7236 22345c28,16 43,42 34,59 -10,16 -24,5 -52,-11 -28,-16 -60,-31 -50,-47 9,-17 40,-17 68,-1z" style="fill:#6936e2"/>
   <path class="AccessoryDuckfil129" d="M7161 25119c-29,-51 140,-147 188,-480 19,-137 -2,-287 -86,-411 -23,-34 -14,-80 20,-104 35,-23 81,-14 104,21 107,157 135,344 110,515 -35,244 -307,509 -336,459z" style="fill:#bc37d1"/>
   <path class="AccessoryDuckfil130" d="M5478 24311c0,-39 423,-52 488,-36 278,75 233,289 199,309 -34,19 11,-154 -222,-212 -285,-70 -465,-23 -465,-61z" style="fill:#865a6e"/>
  </g>
 </g><g id="HatBanderas-Medium">
 <animateTransform additive="sum" attributeName="transform" dur="10" repeatCount="indefinite" type="translate" values="0;0 200;0;0 200;0;0 200;0;0 200;0"/>
  <metadata id="CorelCorpID_64Corel-Layer"/>
  <path class="HatBanderas-Mediumfil608new" d="M7959 11361c315,-948 283,-1863 443,-2630 211,-1023 1742,-2185 2423,-2801 1794,-1622 3961,-935 5564,-236 1027,447 574,1635 1180,2577 -133,664 -267,1328 -401,1992 -2244,242 -4489,484 -6734,726 -910,112 -1566,260 -2475,372z" style="fill:#3b06d1"/>
  <path class="HatBanderas-Mediumfil609new" d="M8355 8991c14,-88 29,-175 47,-260 211,-1023 1742,-2185 2423,-2801 1140,-1031 2431,-1129 3632,-884 -565,31 -1203,113 -1827,292 -1559,448 -3623,2678 -4275,3653z" style="fill:#01dabb"/>
  <path class="HatBanderas-Mediumfil47new HatBanderas-Mediumstr0new" d="M7959 11361c315,-948 283,-1863 443,-2630 211,-1023 1742,-2185 2423,-2801 1794,-1622 3961,-935 5564,-236 1027,447 574,1635 1180,2577 -133,664 -267,1328 -401,1992 -2244,242 -4489,484 -6734,726 -910,112 -1566,260 -2475,372z" style="fill:#83dafc"/>
  <path class="HatBanderas-Mediumfil610new HatBanderas-Mediumstr0new" d="M7703 11284c3111,-218 6430,-406 9541,-625 55,-704 101,-1607 156,-2312 -3850,1458 -7221,-213 -9270,1000 -425,252 -28,1097 -427,1937z" style="fill:#013d3c"/>
  <path class="HatBanderas-Mediumfil14new" d="M10333 10721c1580,-377 4142,-1201 4608,-1784 -773,106 -2311,65 -3294,-14 3814,-261 4857,-1209 5077,-3192 166,1416 836,2760 1002,4177 -2057,266 -5336,546 -7393,813z" style="fill:#e3717f"/>
  <g>
   <polygon class="HatBanderas-Mediumfil611new HatBanderas-Mediumstr0new" points="15759,7871 16169,8162 15309,9146 "/>
   <path class="HatBanderas-Mediumfil611new HatBanderas-Mediumstr0new" d="M16088 7402c2554,-1831 1647,465 4000,498 -2380,946 -1930,-996 -4000,-498z" style="fill:#f8153f"/>
   <path class="HatBanderas-Mediumfil612new HatBanderas-Mediumstr0new" d="M16152 7377c2159,-2138 -249,-1752 -385,-3653 -1072,1962 917,1960 385,3653z" style="fill:#8ce5b9"/>
   <path class="HatBanderas-Mediumfil613new HatBanderas-Mediumstr0new" d="M16663 6821c492,-575 1176,-976 2062,-1244 739,-627 -458,-1720 1179,-2419 -167,-296 -2155,-371 -2872,394 -1014,1082 818,1798 -369,3269z" style="fill:#757105"/>
   <path class="HatBanderas-Mediumfil614new HatBanderas-Mediumstr0new" d="M18152 5802c817,-228 2487,-446 3438,539 1232,380 1176,-573 2354,95 -156,-1266 -2439,-3355 -3577,-3081 -1609,387 -182,1829 -2215,2447z" style="fill:#b351a3"/>
   <path class="HatBanderas-Mediumfil615new HatBanderas-Mediumstr0new" d="M21993 6592c1113,336 1233,-253 1971,217 333,758 447,2209 -408,2510 -346,-975 -702,-1911 -1563,-2727z" style="fill:#04d46c"/>
   <path class="HatBanderas-Mediumfil616new HatBanderas-Mediumstr0new" d="M17040 6579c549,-298 1226,-768 1606,-750 1325,65 1240,1738 2036,1939 -1614,185 -1629,-1231 -3642,-1189z" style="fill:#7d132c"/>
   <path class="HatBanderas-Mediumfil617new HatBanderas-Mediumstr0new" d="M21441 7862c-109,-496 787,-438 478,-1170 806,692 1426,1701 1619,2645 -569,675 -2052,-733 -2097,-1475z" style="fill:#21ae61"/>
   <path class="HatBanderas-Mediumfil618new HatBanderas-Mediumstr0new" d="M18753 5690c1289,238 1055,1539 2323,1989 -54,-683 991,-349 637,-1233 -1083,-891 -2006,-1334 -2960,-756z" style="fill:#844a6a"/>
   <path class="HatBanderas-Mediumfil246new" d="M16931 6426c1130,-963 -654,-2092 670,-3066 -964,973 641,1996 -370,2897 -75,48 -225,121 -300,169z" style="fill:#042ff4"/>
   <path class="HatBanderas-Mediumfil246new" d="M18732 5659c1553,-429 554,-1695 2286,-2060 -1412,500 -511,1604 -1923,2023 -94,14 -270,22 -363,37z" style="fill:#e40f14"/>
   <path class="HatBanderas-Mediumfil246new" d="M19310 5581c1619,-214 677,-1410 2459,-1538 -1495,304 -615,1328 -2094,1551 -95,1 -270,-14 -365,-13z" style="fill:#33acc6"/>
   <path class="HatBanderas-Mediumfil246new" d="M19655 5599c1638,-80 851,-1213 2641,-1194 -1526,179 -780,1136 -2279,1236 -95,-6 -267,-35 -362,-42z" style="fill:#f46ce2"/>
   <path class="HatBanderas-Mediumfil246new" d="M16333 7138c778,-1169 -734,-1822 -632,-2822 217,1119 1551,1511 867,2595 -57,62 -178,165 -235,227z" style="fill:#e1d784"/>
   <path class="HatBanderas-Mediumfil246new" d="M20508 5747c1520,501 1285,-613 2889,31 -1472,-372 -1179,568 -2585,134 -82,-39 -222,-126 -304,-165z" style="fill:#0fc621"/>
   <path class="HatBanderas-Mediumfil619new" d="M17290 6521c1597,-307 1756,674 2726,1056 -820,-482 -923,-1436 -2394,-1181 -89,29 -243,97 -332,125z" style="fill:#34daa5"/>
   <path class="HatBanderas-Mediumfil619new" d="M17585 6087c1636,-99 1601,889 2484,1390 -715,-580 -630,-1536 -2133,-1472 -93,17 -258,65 -351,82z" style="fill:#cf970d"/>
   <path class="HatBanderas-Mediumfil246new" d="M21904 6659c892,636 1060,-171 1967,578 -897,-538 -974,161 -1808,-407 -45,-42 -114,-129 -159,-171z" style="fill:#516559"/>
   <path class="HatBanderas-Mediumfil619new" d="M18698 5714c1637,101 1418,1074 2197,1677 -599,-661 -337,-1595 -1834,-1715 -95,5 -268,32 -363,38z" style="fill:#0c2dd4"/>
   <path class="HatBanderas-Mediumfil619new" d="M20468 5773c336,489 132,1062 453,1607 -180,-529 54,-1062 -177,-1519l-276 -88z" style="fill:#616ad5"/>
   <path class="HatBanderas-Mediumfil620new HatBanderas-Mediumstr0new" d="M16051 7462c1882,-3196 6384,-2609 7377,1551 -1789,-4138 -5362,-4068 -7049,-1302 -109,-83 -219,-166 -328,-249z" style="fill:#9d215c"/>
   <path class="HatBanderas-Mediumfil246new" d="M22630 7098c445,181 795,-100 1310,587 -558,-533 -847,-256 -1251,-429l-59 -158z" style="fill:#f5ae39"/>
   <path class="HatBanderas-Mediumfil246new" d="M17251 6099c1275,-836 -311,-2144 1159,-2969 -1112,863 314,2046 -834,2833 -82,39 -243,96 -325,136z" style="fill:#576aed"/>
   <path class="HatBanderas-Mediumfil246new" d="M17566 5900c1448,-624 198,-2152 1835,-2736 -1295,676 -173,2057 -1484,2653 -90,26 -262,57 -351,83z" style="fill:#d7a137"/>
   <path class="HatBanderas-Mediumfil246new" d="M22198 7007c-29,403 -745,703 -269,1408 -290,-658 391,-918 409,-1287l-140 -121z" style="fill:#4b5475"/>
   <path class="HatBanderas-Mediumfil246new" d="M23012 7790c310,317 773,180 883,978 -229,-673 -635,-520 -911,-814l28 -164z" style="fill:#9889a9"/>
   <path class="HatBanderas-Mediumfil246new" d="M22363 7297c61,401 -667,959 -41,1583 -432,-605 270,-1119 206,-1484l-165 -99z" style="fill:#59b43e"/>
   <path class="HatBanderas-Mediumfil246new" d="M22648 7689c62,400 -489,950 137,1574 -432,-605 93,-1110 28,-1475l-165 -99z" style="fill:#93838e"/>
  </g>
  <path class="HatBanderas-Mediumfil621new" d="M3515 13711c-351,-1259 2163,-2149 3856,-2547 3094,-728 7063,-902 8457,-1880 2518,-1769 -877,-4108 1209,-4537 4244,-871 8098,6761 2402,6978 -3995,-729 -8357,-625 -12276,181 -1483,306 -3596,942 -3648,1805z" style="fill:#c183b8"/>
  <path class="HatBanderas-Mediumfil609new" d="M7624 11106c3054,-679 6848,-870 8204,-1822 2518,-1769 -877,-4108 1209,-4537 637,-131 1266,-68 1855,131 -1567,-193 -2453,137 -2249,846 210,728 582,1431 354,2393 -228,963 -937,1558 -2634,2014 -1697,456 -5395,747 -6750,1013l11 -38z" style="fill:#a07502"/>
  <path class="HatBanderas-Mediumfil360new" d="M21086 6423c1736,2042 1968,5164 -1647,5302 -1750,-319 -3571,-479 -5394,-489 2647,-526 5098,0 6257,-641 1182,-654 1765,-2164 784,-4172z" style="fill:#6e48f5"/>
  <path class="HatBanderas-Mediumfil360new" d="M18486 5304c132,-205 474,-203 762,5 288,208 414,543 282,748 -133,206 -475,203 -763,-5 -288,-208 -414,-543 -281,-748z" style="fill:#d7a1d7"/>
  <path class="HatBanderas-Mediumfil622new HatBanderas-Mediumstr0new" d="M18654 5526c96,-148 342,-146 549,4 208,150 299,391 203,539 -96,148 -342,146 -549,-4 -208,-150 -299,-391 -203,-539z" style="fill:#ec3ba6"/>
  <path class="HatBanderas-Mediumfil47new HatBanderas-Mediumstr0new" d="M3515 13711c-351,-1259 2163,-2149 3856,-2547 3094,-728 7063,-902 8457,-1880 2518,-1769 -877,-4108 1209,-4537 4244,-871 8098,6761 2402,6978 -3995,-729 -8357,-625 -12276,181 -1483,306 -3596,942 -3648,1805z" style="fill:#7e5a71"/>
  <path class="HatBanderas-Mediumfil609new" d="M18797 5526c49,-17 98,-5 109,25 11,31 -20,70 -69,86 -50,17 -98,5 -109,-25 -11,-31 20,-70 69,-86z" style="fill:#8c6d60"/>
 </g></svg>