<svg xmlns="http://www.w3.org/2000/svg" xmlns:xlink="http://www.w3.org/1999/xlink" style="shape-rendering:geometricPrecision; text-rendering:geometricPrecision; image-rendering:optimizeQuality; fill-rule:evenodd; clip-rule:evenodd" version="1.1" viewBox="0 0 29000 29000" xml:space="preserve"><defs><style type="text/css">.BraceletSteel-Mediumfil57new {fill:url(#BraceletSteel-Mediumid666new);fill-rule:nonzero}
.BraceletSteel-Mediumstr4new {stroke:black;stroke-width:100}
.BraceletSteel-Mediumfil58new {fill:url(#BraceletSteel-Mediumid686new);fill-rule:nonzero}
.NecklaceShipWheelfil14new {fill:black;fill-opacity:0.200000}
.NecklaceShipWheelfil372new {fill:url(#NecklaceShipWheelid598new)}
.NecklaceShipWheelfil373new {fill:#EDC26D;fill-opacity:0.301961}
.NecklaceShipWheelfil375new {fill:url(#NecklaceShipWheelid339new)}
.NecklaceShipWheelfil377new {fill:url(#NecklaceShipWheelid552new)}
.NecklaceShipWheelfil379new {fill:url(#NecklaceShipWheelid476new)}
.NecklaceShipWheelfil381new {fill:url(#NecklaceShipWheelid592new)}
.NecklaceShipWheelfil383new {fill:url(#NecklaceShipWheelid392new)}
.NecklaceShipWheelfil385new {fill:url(#NecklaceShipWheelid560new)}
.NecklaceShipWheelfil387new {fill:url(#NecklaceShipWheelid388new)}
.NecklaceShipWheelfil389new {fill:url(#NecklaceShipWheelid577new)}
.NecklaceShipWheelfil391new {fill:url(#NecklaceShipWheelid522new)}
.NecklaceShipWheelfil393new {fill:url(#NecklaceShipWheelid605new)}
.NecklaceShipWheelfil395new {fill:url(#NecklaceShipWheelid384new)}
.NecklaceShipWheelfil399new {fill:#EDC26D;fill-opacity:0.200000}
.NecklaceShipWheelfil371new {fill:url(#NecklaceShipWheelid0new)}
.NecklaceShipWheelstr0new {stroke:black;stroke-width:150;stroke-linecap:round;stroke-linejoin:round}
.NecklaceShipWheelfil33new {fill:none}
.NecklaceShipWheelfil374 {fill:url(#NecklaceShipWheelid1004)}
.NecklaceShipWheelfil376new {fill:url(#NecklaceShipWheelid291new)}
.NecklaceShipWheelfil378new {fill:url(#NecklaceShipWheelid520new)}
.NecklaceShipWheelfil380new {fill:url(#NecklaceShipWheelid266new)}
.NecklaceShipWheelfil382new {fill:url(#NecklaceShipWheelid341new)}
.NecklaceShipWheelfil384new {fill:url(#NecklaceShipWheelid334new)}
.NecklaceShipWheelfil386new {fill:url(#NecklaceShipWheelid309new)}
.NecklaceShipWheelfil388new {fill:url(#NecklaceShipWheelid524new)}
.NecklaceShipWheelfil390new {fill:url(#NecklaceShipWheelid468new)}
.NecklaceShipWheelfil392new {fill:url(#NecklaceShipWheelid431new)}
.NecklaceShipWheelfil394new {fill:url(#NecklaceShipWheelid526new)}
.NecklaceShipWheelfil396new {fill:url(#NecklaceShipWheelid443new)}
.NecklaceShipWheelfil397new {fill:url(#NecklaceShipWheelid198new)}
.NecklaceShipWheelfil398new {fill:url(#NecklaceShipWheelid505new)}
.NecklaceShipWheelstr6new {stroke:black;stroke-width:150}
.HatG-Mediumfil14new {fill:black;fill-opacity:0.200000}
.HatG-Mediumfil635new {fill:url(#HatG-Mediumid47new)}
.HatG-Mediumfil636new {fill:url(#HatG-Mediumid218new)}
.HatG-Mediumfil637new {fill:url(#HatG-Mediumid49new)}
.HatG-Mediumfil638new {fill:url(#HatG-Mediumid170new)}
.HatG-Mediumfil640new {fill:url(#HatG-Mediumid3new)}
.HatG-Mediumfil641new {fill:url(#HatG-Mediumid56new)}
.HatG-Mediumfil33new {fill:none}
.HatG-Mediumstr0new {stroke:black;stroke-width:150;stroke-linecap:round;stroke-linejoin:round}
.HatG-Mediumfil639new {fill:none}
.HatG-Mediumstr19new {stroke:black;stroke-width:100;stroke-opacity:0.101961}
.HatG-Mediumstr20new {stroke:black;stroke-width:75;stroke-linecap:round;stroke-linejoin:round;stroke-dasharray:150.000000 225.000000;stroke-opacity:0.101961}
.HatG-Mediumstr6new {stroke:black;stroke-width:150}
.NecklaceTornShirtBlue-Mediumfil10 {fill:url(#NecklaceTornShirtBlue-Mediumid1)}
.NecklaceTornShirtBlue-Mediumfil2 {fill:black;fill-opacity:0.301961}
.NecklaceTornShirtBlue-Mediumfil3 {fill:black}
.NecklaceTornShirtBlue-Mediumfil4 {fill:black;fill-opacity:0.501961}
.NecklaceTornShirtBlue-Mediumfil1 {fill:none}
.NecklaceTornShirtBlue-Mediumfil5 {fill:black;fill-rule:nonzero}
.NecklaceTornShirtBlue-Mediumfil6 {fill:black;fill-opacity:0.400000}
.NecklaceTornShirtBlue-Mediumstr1 {stroke:black;stroke-width:150;stroke-linecap:round;stroke-linejoin:round}
.HairBack-Rabbit0fil0 {fill:none}
    
.RightFoot-Rabbit1fil29 {fill:url(#RightFoot-Rabbit1id112)}
    
.RightFoot-Rabbit1fil10 {fill:black;fill-opacity:0.200000}
    
.RightFoot-Rabbit1fil0 {fill:none}
    
.RightFoot-Rabbit1fil28 {fill:black;fill-rule:nonzero}
    
.RightLeg-Rabbit5fil36 {fill:url(#RightLeg-Rabbit5id9)}
    
.RightLeg-Rabbit5fil27 {fill:#f2ebf3}
    
.RightLeg-Rabbit5fil10 {fill:black;fill-opacity:0.200000}
    
.RightLeg-Rabbit5fil28 {fill:black;fill-rule:nonzero}
    
.LeftFoot-Rabbit1fil37 {fill:url(#LeftFoot-Rabbit1id110)}
    
.LeftFoot-Rabbit1fil10 {fill:black;fill-opacity:0.200000}
    
.LeftFoot-Rabbit1fil0 {fill:none}
    
.LeftFoot-Rabbit1fil28 {fill:black;fill-rule:nonzero}
    
.LeftLeg-Rabbit5fil45 {fill:url(#LeftLeg-Rabbit5id8)}
    
.LeftLeg-Rabbit5fil27 {fill:#f2ebf3}
    
.LeftLeg-Rabbit5fil10 {fill:black;fill-opacity:0.200000}
    
.LeftLeg-Rabbit5fil28 {fill:black;fill-rule:nonzero}
    
.RightHand-Rabbit5fil49 {fill:url(#RightHand-Rabbit5id26)}
    
.RightHand-Rabbit5fil27 {fill:#f2ebf3}
    
.RightHand-Rabbit5fil10 {fill:black;fill-opacity:0.200000}
    
.RightHand-Rabbit5fil28 {fill:black;fill-rule:nonzero}
    
.RightPaw-Rabbit2fil51 {fill:url(#RightPaw-Rabbit2id240)}
    
.RightPaw-Rabbit2fil10 {fill:black;fill-opacity:0.200000}
    
.RightPaw-Rabbit2fil28 {fill:black;fill-rule:nonzero}
    
.LeftHand-Rabbit5fil57 {fill:url(#LeftHand-Rabbit5id28)}
    
.LeftHand-Rabbit5fil27 {fill:#f2ebf3}
    
.LeftHand-Rabbit5fil10 {fill:black;fill-opacity:0.200000}
    
.LeftHand-Rabbit5fil28 {fill:black;fill-rule:nonzero}
    
.Body-Rabbit5fil58 {fill:url(#Body-Rabbit5id42)}
    
.Body-Rabbit5fil10 {fill:black;fill-opacity:0.200000}
    
.Body-Rabbit5fil28 {fill:black;fill-rule:nonzero}
    
.Body-Rabbit5fil61 {fill:black;fill-opacity:0.258824}
    
.Body-Rabbit5fil27 {fill:#f2ebf3}
    
.Body-Rabbit5fil62 {fill:black;fill-opacity:0.121569}
    
.Body-Rabbit5fil63 {fill:black;fill-rule:nonzero;fill-opacity:0.200000}
    
.LeftPaw-Rabbit2fil65 {fill:url(#LeftPaw-Rabbit2id239)}
    
.LeftPaw-Rabbit2fil10 {fill:black;fill-opacity:0.200000}
    
.LeftPaw-Rabbit2fil28 {fill:black;fill-rule:nonzero}
    
.Head-Rabbit5fil178 {fill:url(#Head-Rabbit5id272)}
    
.Head-Rabbit5fil179 {fill:url(#Head-Rabbit5id271)}
    
.Head-Rabbit5fil28 {fill:black;fill-rule:nonzero}
    
.Head-Rabbit5fil180 {fill:url(#Head-Rabbit5id192)}
    
.Head-Rabbit5fil181 {fill:url(#Head-Rabbit5id200)}
    
.Head-Rabbit5fil10 {fill:black;fill-opacity:0.200000}
    
.Mouth-Rabbit1fil0 {fill:none}
    
.Mouth-Rabbit1str0 {stroke:black;stroke-width:150;stroke-linecap:round;stroke-linejoin:round;stroke-miterlimit:22.9256}
    
.Mouth-Rabbit1fil188 {fill:url(#Mouth-Rabbit1id290)}
    
.Mouth-Rabbit1fil189 {fill:black;fill-opacity:0.501961}
    
.Mouth-Rabbit1fil190 {fill:url(#Mouth-Rabbit1id114)}
    
.Mouth-Rabbit1fil191 {fill:url(#Mouth-Rabbit1id81)}
    
.EyesClosed-Rabbit0fil207 {fill:#715a66}
    
.EyesClosed-Rabbit0fil10 {fill:black;fill-opacity:0.200000}
    
.EyesClosed-Rabbit0fil63 {fill:black;fill-rule:nonzero;fill-opacity:0.200000}
    
.EyesClosed-Rabbit0fil28 {fill:black;fill-rule:nonzero}
    
.Eyes-Rabbit0fil208 {fill:url(#Eyes-Rabbit0id41)}
    
.Eyes-Rabbit0fil209 {fill:url(#Eyes-Rabbit0id100)}
    
.Eyes-Rabbit0fil210 {fill:url(#Eyes-Rabbit0id286)}
    
.Eyes-Rabbit0fil0 {fill:none}
    
.Eyes-Rabbit0str0 {stroke:black;stroke-width:150;stroke-linecap:round;stroke-linejoin:round;stroke-miterlimit:22.9256}
    
.Eyes-Rabbit0fil189 {fill:black;fill-opacity:0.501961}
    
.Eyes-Rabbit0fil211 {fill:white}
    
.Eyes-Rabbit0fil212 {fill:url(#Eyes-Rabbit0id44)}
    
.Eyes-Rabbit0fil213 {fill:url(#Eyes-Rabbit0id101)}
    
.Eyes-Rabbit0fil214 {fill:url(#Eyes-Rabbit0id270)}
    
.Moustache-Rabbit0fil0 {fill:none}
    
.Nose-Rabbit0fil320 {fill:url(#Nose-Rabbit0id300)}
    
.Nose-Rabbit0str0 {stroke:black;stroke-width:150;stroke-linecap:round;stroke-linejoin:round;stroke-miterlimit:22.9256}
    
</style><linearGradient gradientUnits="userSpaceOnUse" id="BraceletSteel-Mediumid666new" x1="8808.47" x2="10149.2" xlink:href="#BraceletSteel-Mediumid663new" y1="19708.3" y2="20807.9">
  </linearGradient><linearGradient gradientUnits="userSpaceOnUse" id="BraceletSteel-Mediumid686new" x1="18555.4" x2="17214.7" xlink:href="#BraceletSteel-Mediumid663new" y1="19708.3" y2="20807.9">
  </linearGradient><linearGradient gradientUnits="userSpaceOnUse" id="NecklaceShipWheelid598new" x1="10946.7" x2="11398.3" xlink:href="#NecklaceShipWheelid198new" y1="16600" y2="17725.9">
  </linearGradient><linearGradient gradientUnits="userSpaceOnUse" id="NecklaceShipWheelid339new" x1="12518.8" x2="12947" xlink:href="#NecklaceShipWheelid198new" y1="18755.5" y2="19611.7">
  </linearGradient><linearGradient gradientUnits="userSpaceOnUse" id="NecklaceShipWheelid552new" x1="9023.86" x2="10212.5" xlink:href="#NecklaceShipWheelid198new" y1="20827.6" y2="21151.5">
  </linearGradient><linearGradient gradientUnits="userSpaceOnUse" id="NecklaceShipWheelid476new" x1="11591.8" x2="12634.8" xlink:href="#NecklaceShipWheelid198new" y1="20530.1" y2="20746.4">
  </linearGradient><linearGradient gradientUnits="userSpaceOnUse" id="NecklaceShipWheelid592new" x1="11552" x2="12513.5" xlink:href="#NecklaceShipWheelid198new" y1="24648.7" y2="23806.9">
  </linearGradient><linearGradient gradientUnits="userSpaceOnUse" id="NecklaceShipWheelid392new" x1="12660.1" x2="13464.5" xlink:href="#NecklaceShipWheelid198new" y1="22282.5" y2="21518.6">
  </linearGradient><linearGradient gradientUnits="userSpaceOnUse" id="NecklaceShipWheelid560new" x1="16417.2" x2="15965.5" xlink:href="#NecklaceShipWheelid198new" y1="24294" y2="23168.1">
  </linearGradient><linearGradient gradientUnits="userSpaceOnUse" id="NecklaceShipWheelid388new" x1="14845" x2="14416.8" xlink:href="#NecklaceShipWheelid198new" y1="22138.5" y2="21282.3">
  </linearGradient><linearGradient gradientUnits="userSpaceOnUse" id="NecklaceShipWheelid577new" x1="18340" x2="17151.4" xlink:href="#NecklaceShipWheelid198new" y1="20066.3" y2="19742.5">
  </linearGradient><linearGradient gradientUnits="userSpaceOnUse" id="NecklaceShipWheelid522new" x1="15772" x2="14729.1" xlink:href="#NecklaceShipWheelid198new" y1="20363.9" y2="20147.6">
  </linearGradient><linearGradient gradientUnits="userSpaceOnUse" id="NecklaceShipWheelid605new" x1="15811.8" x2="14850.3" xlink:href="#NecklaceShipWheelid198new" y1="16245.3" y2="17087.1">
  </linearGradient><linearGradient gradientUnits="userSpaceOnUse" id="NecklaceShipWheelid384new" x1="14703.8" x2="13899.3" xlink:href="#NecklaceShipWheelid198new" y1="18611.5" y2="19375.4">
  </linearGradient><linearGradient gradientUnits="userSpaceOnUse" id="NecklaceShipWheelid0new" x1="13681.9" x2="13681.9" y1="25815.8" y2="19053.8">
   <stop offset="0" style="stop-opacity:1; stop-color:#96612C"/>
   <stop offset="1" style="stop-opacity:1; stop-color:#472809"/>
  </linearGradient><linearGradient gradientUnits="userSpaceOnUse" id="NecklaceShipWheelid1004" x1="10847.2" x2="10197.9" xlink:href="#NecklaceShipWheelid27" y1="14638.9" y2="11698.6">
  </linearGradient><linearGradient gradientUnits="userSpaceOnUse" id="NecklaceShipWheelid291new" x1="12300.1" x2="12310.4" xlink:href="#NecklaceShipWheelid198new" y1="18376.7" y2="18866.9">
  </linearGradient><linearGradient gradientUnits="userSpaceOnUse" id="NecklaceShipWheelid520new" x1="10722.1" x2="10282.8" xlink:href="#NecklaceShipWheelid198new" y1="20695" y2="20990.7">
  </linearGradient><linearGradient gradientUnits="userSpaceOnUse" id="NecklaceShipWheelid266new" x1="11162.9" x2="11662.9" xlink:href="#NecklaceShipWheelid198new" y1="20628.7" y2="20824.5">
  </linearGradient><linearGradient gradientUnits="userSpaceOnUse" id="NecklaceShipWheelid341new" x1="12385.5" x2="12484.5" xlink:href="#NecklaceShipWheelid198new" y1="23148.3" y2="23648.7">
  </linearGradient><linearGradient gradientUnits="userSpaceOnUse" id="NecklaceShipWheelid334new" x1="12586.8" x2="12992.4" xlink:href="#NecklaceShipWheelid198new" y1="22698.8" y2="22404.8">
  </linearGradient><linearGradient gradientUnits="userSpaceOnUse" id="NecklaceShipWheelid309new" x1="15384.4" x2="15844.6" xlink:href="#NecklaceShipWheelid198new" y1="22929.3" y2="23075.9">
  </linearGradient><linearGradient gradientUnits="userSpaceOnUse" id="NecklaceShipWheelid524new" x1="15063.8" x2="15053.4" xlink:href="#NecklaceShipWheelid198new" y1="22517.3" y2="22027.1">
  </linearGradient><linearGradient gradientUnits="userSpaceOnUse" id="NecklaceShipWheelid468new" x1="16641.7" x2="17081.1" xlink:href="#NecklaceShipWheelid198new" y1="20199" y2="19903.3">
  </linearGradient><linearGradient gradientUnits="userSpaceOnUse" id="NecklaceShipWheelid431new" x1="16201" x2="15700.9" xlink:href="#NecklaceShipWheelid198new" y1="20265.3" y2="20069.4">
  </linearGradient><linearGradient gradientUnits="userSpaceOnUse" id="NecklaceShipWheelid526new" x1="14978.3" x2="14879.4" xlink:href="#NecklaceShipWheelid198new" y1="17745.7" y2="17245.3">
  </linearGradient><linearGradient gradientUnits="userSpaceOnUse" id="NecklaceShipWheelid443new" x1="14777" x2="14371.5" xlink:href="#NecklaceShipWheelid198new" y1="18195.2" y2="18489.2">
  </linearGradient><linearGradient gradientUnits="userSpaceOnUse" id="NecklaceShipWheelid505new" x1="14288.3" x2="13075.5" xlink:href="#NecklaceShipWheelid198new" y1="19443.4" y2="21417.5">
  </linearGradient><linearGradient gradientUnits="userSpaceOnUse" id="HatG-Mediumid47new" x1="8773.38" x2="12925.9" y1="10563.5" y2="5372.75">
   <stop offset="0" style="stop-opacity:1; stop-color:#CCCCD0"/>
   <stop offset="1" style="stop-opacity:1; stop-color:#F2F2F6"/>
  </linearGradient><linearGradient gradientUnits="userSpaceOnUse" id="HatG-Mediumid218new" x1="7703.58" x2="9238.2" xlink:href="#HatG-Mediumid170new" y1="10639.8" y2="6826.5">
  </linearGradient><linearGradient gradientUnits="userSpaceOnUse" id="HatG-Mediumid49new" x1="14578.6" x2="18656.5" y1="10035.4" y2="5357.8">
   <stop offset="0" style="stop-opacity:1; stop-color:#DBDBE0"/>
   <stop offset="0.74902" style="stop-opacity:1; stop-color:white"/>
   <stop offset="1" style="stop-opacity:1; stop-color:white"/>
  </linearGradient><linearGradient gradientUnits="userSpaceOnUse" id="HatG-Mediumid3new" x1="13755" x2="13755" y1="9815.97" y2="13088.5">
   <stop offset="0" style="stop-opacity:1; stop-color:#15153B"/>
   <stop offset="1" style="stop-opacity:1; stop-color:#080814"/>
  </linearGradient><linearGradient gradientUnits="userSpaceOnUse" id="HatG-Mediumid56new" x1="20387.5" x2="7122.61" y1="10226.4" y2="11933.8">
   <stop offset="0" style="stop-opacity:1; stop-color:#6666CC"/>
   <stop offset="1" style="stop-opacity:1; stop-color:#3D3B78"/>
  </linearGradient><linearGradient gradientUnits="userSpaceOnUse" id="NecklaceTornShirtBlue-Mediumid1" x1="13681.9" x2="13681.9" y1="22800.8" y2="17350.8">
   <stop offset="0" style="stop-opacity:1; stop-color:#4B5761"/>
   <stop offset="1" style="stop-opacity:1; stop-color:#859FB8"/>
  </linearGradient><linearGradient gradientUnits="userSpaceOnUse" id="RightFoot-Rabbit1id112" x1="14926.86" x2="17886.29" xlink:href="#RightFoot-Rabbit1id1" y1="24782.79" y2="24637.35">
  </linearGradient><linearGradient gradientUnits="userSpaceOnUse" id="RightLeg-Rabbit5id9" x1="16126.23" x2="15277.41" xlink:href="#RightLeg-Rabbit5id8" y1="24257.64" y2="21207.22">
  </linearGradient><linearGradient gradientUnits="userSpaceOnUse" id="LeftFoot-Rabbit1id110" x1="12458.59" x2="9478.79" xlink:href="#LeftFoot-Rabbit1id1" y1="24893.69" y2="24724.99">
  </linearGradient><linearGradient gradientUnits="userSpaceOnUse" id="LeftLeg-Rabbit5id8" x1="11237.69" x2="12086.51" y1="24257.64" y2="21207.22">
   <stop offset="0" style="stop-opacity:1; stop-color:#c5b9c0"/>
   <stop offset="0.180392" style="stop-opacity:1; stop-color:#c5b9c0"/>
   <stop offset="0.501961" style="stop-opacity:1; stop-color:#dedede"/>
   <stop offset="1" style="stop-opacity:1; stop-color:#dedede"/>
  </linearGradient><linearGradient gradientUnits="userSpaceOnUse" id="RightHand-Rabbit5id26" x1="16087.42" x2="17274.71" y1="17785.04" y2="20860.85">
   <stop offset="0" style="stop-opacity:1; stop-color:#9e8d97"/>
   <stop offset="0.878431" style="stop-opacity:1; stop-color:#c5b9c0"/>
   <stop offset="1" style="stop-opacity:1; stop-color:#c5b9c0"/>
  </linearGradient><linearGradient gradientUnits="userSpaceOnUse" id="RightPaw-Rabbit2id240" x1="18885.17" x2="17767.58" xlink:href="#RightPaw-Rabbit2id120" y1="21615.27" y2="20072.14">
  </linearGradient><linearGradient gradientUnits="userSpaceOnUse" id="LeftHand-Rabbit5id28" x1="11276.46" x2="10089.17" xlink:href="#LeftHand-Rabbit5id26" y1="17785.04" y2="20860.85">
  </linearGradient><linearGradient gradientUnits="objectBoundingBox" id="Body-Rabbit5id42" x1="50%" x2="50%" y1="2.16557e-14%" y2="100%">
   <stop offset="0" style="stop-opacity:1; stop-color:#9e8d97"/>
   <stop offset="0.0313725" style="stop-opacity:1; stop-color:#9e8d97"/>
   <stop offset="0.529412" style="stop-opacity:1; stop-color:#c5b9c0"/>
   <stop offset="1" style="stop-opacity:1; stop-color:#dedede"/>
  </linearGradient><linearGradient gradientUnits="userSpaceOnUse" id="LeftPaw-Rabbit2id239" x1="8478.67" x2="9596.26" xlink:href="#LeftPaw-Rabbit2id120" y1="21615.27" y2="20072.14">
  </linearGradient><linearGradient gradientUnits="userSpaceOnUse" id="Head-Rabbit5id272" x1="12770.77" x2="12770.76" xlink:href="#Head-Rabbit5id39" y1="17936.72" y2="7484.8">
  </linearGradient><linearGradient gradientUnits="userSpaceOnUse" id="Head-Rabbit5id271" x1="12770.77" x2="12770.76" xlink:href="#Head-Rabbit5id39" y1="17972.09" y2="7484.8">
  </linearGradient><linearGradient gradientUnits="userSpaceOnUse" id="Head-Rabbit5id192" x1="12602.62" x2="8010.14" xlink:href="#Head-Rabbit5id53" y1="13111.03" y2="13111.03">
  </linearGradient><linearGradient gradientUnits="userSpaceOnUse" id="Head-Rabbit5id200" x1="18274.48" x2="13682" xlink:href="#Head-Rabbit5id53" y1="13111.03" y2="13111.03">
  </linearGradient><linearGradient gradientUnits="userSpaceOnUse" id="Mouth-Rabbit1id290" x1="13678.98" x2="13272.34" y1="16947.06" y2="15756.82">
   <stop offset="0" style="stop-opacity:1; stop-color:#FF9999"/>
   <stop offset="1" style="stop-opacity:1; stop-color:#C46668"/>
  </linearGradient><linearGradient gradientUnits="userSpaceOnUse" id="Mouth-Rabbit1id114" x1="13962.57" x2="13962.57" xlink:href="#Mouth-Rabbit1id81" y1="15588.37" y2="16582.43">
  </linearGradient><linearGradient gradientUnits="userSpaceOnUse" id="Eyes-Rabbit0id41" x1="17102.45" x2="17102.45" y1="15038.45" y2="11047.09">
   <stop offset="0" style="stop-opacity:1; stop-color:#490a80"/>
   <stop offset="1" style="stop-opacity:1; stop-color:black"/>
  </linearGradient><linearGradient gradientUnits="userSpaceOnUse" id="Eyes-Rabbit0id100" x1="15382.04" x2="18287.3" xlink:href="#Eyes-Rabbit0id85" y1="12837.5" y2="12837.5">
  </linearGradient><linearGradient gradientUnits="userSpaceOnUse" id="Eyes-Rabbit0id286" x1="16332.51" x2="16332.51" xlink:href="#Eyes-Rabbit0id84" y1="10943.71" y2="14289.17">
  </linearGradient><linearGradient gradientUnits="userSpaceOnUse" id="Eyes-Rabbit0id44" x1="10261.43" x2="10261.43" xlink:href="#Eyes-Rabbit0id41" y1="15038.45" y2="11047.09">
  </linearGradient><linearGradient gradientUnits="userSpaceOnUse" id="Eyes-Rabbit0id101" x1="9076.59" x2="11981.85" xlink:href="#Eyes-Rabbit0id85" y1="12837.5" y2="12837.5">
  </linearGradient><linearGradient gradientUnits="userSpaceOnUse" id="Eyes-Rabbit0id270" x1="10637.39" x2="10637.39" xlink:href="#Eyes-Rabbit0id84" y1="10943.71" y2="14289.17">
  </linearGradient><linearGradient gradientUnits="userSpaceOnUse" id="Nose-Rabbit0id300" x1="12846.46" x2="12948.19" y1="14801.53" y2="15641.16">
   <stop offset="0" style="stop-opacity:1; stop-color:#FFCCCC"/>
   <stop offset="1" style="stop-opacity:1; stop-color:#DB9092"/>
  </linearGradient><linearGradient gradientUnits="userSpaceOnUse" id="BraceletSteel-Mediumid663new" x1="19208.4" x2="16994.4" y1="19855.6" y2="20661.5">
   <stop offset="0" style="stop-opacity:1; stop-color:#424352"/>
   <stop offset="0.109804" style="stop-opacity:1; stop-color:#848690"/>
   <stop offset="0.25098" style="stop-opacity:1; stop-color:#FFFFFC"/>
   <stop offset="0.470588" style="stop-opacity:1; stop-color:#8D8F99"/>
   <stop offset="0.780392" style="stop-opacity:1; stop-color:#16171A"/>
   <stop offset="1" style="stop-opacity:1; stop-color:#42444D"/>
  </linearGradient><linearGradient gradientUnits="userSpaceOnUse" id="NecklaceShipWheelid198new" x1="15325.7" x2="12038.2" y1="17755" y2="23105.9">
   <stop offset="0" style="stop-opacity:1; stop-color:#96612C"/>
   <stop offset="1" style="stop-opacity:1; stop-color:#754515"/>
  </linearGradient><linearGradient gradientUnits="userSpaceOnUse" id="NecklaceShipWheelid27" x1="16937.6" x2="16937.6" y1="14961.3" y2="11448.6">
   <stop offset="0" style="stop-opacity:1; stop-color:#490a80"/>
   <stop offset="1" style="stop-opacity:1; stop-color:black"/>
  </linearGradient><linearGradient gradientUnits="userSpaceOnUse" id="HatG-Mediumid170new" x1="18179.1" x2="19599.3" y1="10226.2" y2="6697.29">
   <stop offset="0" style="stop-opacity:1; stop-color:#15153B"/>
   <stop offset="1" style="stop-opacity:1; stop-color:#4A47A1"/>
  </linearGradient><linearGradient gradientUnits="userSpaceOnUse" id="RightFoot-Rabbit1id1" x1="13681.94" x2="13681.94" y1="17582.76" y2="9785.49">
   <stop offset="0" style="stop-opacity:1; stop-color:#715a66"/>
   <stop offset="1" style="stop-opacity:1; stop-color:#96878f"/>
  </linearGradient><linearGradient gradientUnits="userSpaceOnUse" id="RightLeg-Rabbit5id8" x1="11237.69" x2="12086.51" y1="24257.64" y2="21207.22">
   <stop offset="0" style="stop-opacity:1; stop-color:#c5b9c0"/>
   <stop offset="0.180392" style="stop-opacity:1; stop-color:#c5b9c0"/>
   <stop offset="0.501961" style="stop-opacity:1; stop-color:#dedede"/>
   <stop offset="1" style="stop-opacity:1; stop-color:#dedede"/>
  </linearGradient><linearGradient gradientUnits="userSpaceOnUse" id="LeftFoot-Rabbit1id1" x1="13681.94" x2="13681.94" y1="17582.76" y2="9785.49">
   <stop offset="0" style="stop-opacity:1; stop-color:#715a66"/>
   <stop offset="1" style="stop-opacity:1; stop-color:#96878f"/>
  </linearGradient><linearGradient gradientUnits="userSpaceOnUse" id="RightPaw-Rabbit2id120" x1="16037.58" x2="16764.95" y1="25652.81" y2="23762.51">
   <stop offset="0" style="stop-opacity:1; stop-color:#715a66"/>
   <stop offset="0.780392" style="stop-opacity:1; stop-color:#c5b9c0"/>
   <stop offset="1" style="stop-opacity:1; stop-color:#c5b9c0"/>
  </linearGradient><linearGradient gradientUnits="userSpaceOnUse" id="LeftHand-Rabbit5id26" x1="16087.42" x2="17274.71" y1="17785.04" y2="20860.85">
   <stop offset="0" style="stop-opacity:1; stop-color:#9e8d97"/>
   <stop offset="0.878431" style="stop-opacity:1; stop-color:#c5b9c0"/>
   <stop offset="1" style="stop-opacity:1; stop-color:#c5b9c0"/>
  </linearGradient><linearGradient gradientUnits="userSpaceOnUse" id="LeftPaw-Rabbit2id120" x1="16037.58" x2="16764.95" y1="25652.81" y2="23762.51">
   <stop offset="0" style="stop-opacity:1; stop-color:#715a66"/>
   <stop offset="0.780392" style="stop-opacity:1; stop-color:#c5b9c0"/>
   <stop offset="1" style="stop-opacity:1; stop-color:#c5b9c0"/>
  </linearGradient><linearGradient gradientUnits="userSpaceOnUse" id="Head-Rabbit5id39" x1="13686.09" x2="13686.08" y1="17936.72" y2="7484.8">
   <stop offset="0" style="stop-opacity:1; stop-color:#9e8d97"/>
   <stop offset="0.4" style="stop-opacity:1; stop-color:#c5b9c0"/>
   <stop offset="1" style="stop-opacity:1; stop-color:#dedede"/>
  </linearGradient><linearGradient gradientUnits="userSpaceOnUse" id="Head-Rabbit5id53" x1="13681.92" x2="13681.92" y1="22716.29" y2="18527.08">
   <stop offset="0" style="stop-opacity:1; stop-color:#f2ebf3"/>
   <stop offset="0.65098" style="stop-opacity:1; stop-color:#f2ebf3"/>
   <stop offset="1" style="stop-opacity:1; stop-color:#e3d3e6"/>
  </linearGradient><linearGradient gradientUnits="userSpaceOnUse" id="Mouth-Rabbit1id81" x1="13402.39" x2="13402.39" y1="15588.37" y2="16582.43">
   <stop offset="0" style="stop-opacity:1; stop-color:#D6D6D6"/>
   <stop offset="0.6" style="stop-opacity:1; stop-color:white"/>
   <stop offset="1" style="stop-opacity:1; stop-color:#f2ebf3"/>
  </linearGradient><linearGradient gradientUnits="userSpaceOnUse" id="Eyes-Rabbit0id85" x1="8896.68" x2="12138.14" y1="13030.37" y2="13030.37">
   <stop offset="0" style="stop-opacity:1; stop-color:#490a80"/>
   <stop offset="0.501961" style="stop-opacity:1; stop-color:#af54ff"/>
   <stop offset="1" style="stop-opacity:1; stop-color:#490a80"/>
  </linearGradient><linearGradient gradientUnits="userSpaceOnUse" id="Eyes-Rabbit0id84" x1="16563.56" x2="16563.56" y1="11311.33" y2="14277.21">
   <stop offset="0" style="stop-opacity:1; stop-color:black"/>
   <stop offset="0.4" style="stop-opacity:1; stop-color:black"/>
   <stop offset="1" style="stop-opacity:1; stop-color:#380366"/>
  </linearGradient></defs><g id="HairBack-Rabbit0">
  <animateTransform additive="sum" attributeName="transform" dur="10" repeatCount="indefinite" type="translate" values="0;0 200;0;0 200;0;0 200;0;0 200;0"/>
  <metadata id="CorelCorpID_0Corel-Layer"/>
  <rect class="HairBack-Rabbit0fil0" height="889.5" width="889.5" x="13237.19" y="6589.66"/>
 </g><g id="RightFoot-Rabbit1">
  <metadata id="CorelCorpID_5Corel-Layer"/>
  <path class="RightFoot-Rabbit1fil29" d="M17611.19 25439.21c-123.56,214.04 -403.48,285.33 -610.7,105.88 -70.65,70.23 -299.03,196.65 -526.32,65.76 -586.28,-337.61 -1042.92,-609.55 -1386.19,-857.82 -220.49,-159.46 -187.2,-517.49 -82.76,-730.09 363.68,340.29 782.66,-165.21 1075.55,-247.93 373.84,-101.68 736.94,157.82 534.63,412.54 198.78,95.76 1024.55,447.2 1177.27,620.9 168.78,191.95 120.75,630.76 -181.48,630.76z" style="fill:#5fa1dd"/>
  <path class="RightFoot-Rabbit1fil10" d="M17619.89 25467.81c-123.56,214.04 -392.89,285.33 -600.11,105.88 -263.27,261.71 -916.66,-12.43 -1207.68,-387.7 -314.79,-217.24 -676.79,-421.62 -795.64,-500.03 -156.12,-103 -53.19,-398.33 -20.96,-584.15 17.85,-13.98 36.32,-26.67 55.45,-37.83 -59.89,533.31 1968.85,1766.03 1957.44,1098.35 213.34,341.57 585.05,186.16 533.82,-150.27 126.71,133.91 271.29,-14.39 142.78,-274 182.48,62.12 215.54,288.03 209.67,440.56 -17.28,153.49 -106.7,289.19 -274.77,289.19z" style="fill:#e5c16b"/>
  <path class="RightFoot-Rabbit1fil0" d="M16655.48 24185.7c277.12,231.33 479.91,239.56 632.6,413.23 168.75,191.92 120.75,630.76 -181.48,630.76 -123.56,214.04 -403.48,285.33 -610.7,105.88 -70.65,70.23 -276.53,145.76 -526.32,65.76 -409.3,-131.08 -519.97,-488.94 -871.1,-725.96 -156.04,-105.33 -138.82,-331.38 -109.24,-523.93" style="fill:#9615f1"/>
  <path class="RightFoot-Rabbit1fil28" d="M16703.53 24128.28c-32.23,14.49 -151.74,68.29 -96.1,114.84 143.13,119.49 265.97,181.45 373.06,235.47 99.11,49.99 720.41,275.03 788.45,352.42 80.91,92.01 97.3,255.88 55.21,369.54 -18.07,48.79 -77.99,123.14 -125.37,147 7.55,-268.78 -114.77,-534.12 -402.24,-526.25 186.74,95.17 268.32,253.8 247.69,592.25 -49.04,79.15 -127.69,137.43 -219.87,155.2 -79.73,15.37 -160.2,-1.74 -228.24,-45.5 38.29,-218.05 10.29,-483.64 -289.14,-537.54 139.24,98.32 162.69,330.02 141.92,510.69 -31.45,29.61 -97.92,60.43 -188.69,71.77 -74.89,9.35 -163.69,4.41 -259.78,-26.36 -221.4,-70.9 -389.39,-150.77 -526.67,-306.64 -103.47,-117.46 -723.13,-457.1 -875.28,-559.8 -56.89,-38.4 -106.48,-200.43 -115.52,-274.13 -5.91,-48.16 -12.39,-90.93 -7.5,-133.2 3.75,-32.35 5.98,-48.97 23.54,-102.83 14.63,-97.52 -109.65,-115.23 -144.78,-21.39 -12.89,39.53 -20.74,74.23 -25.45,109.36 -7,52.14 -2.13,105.01 5.37,166.22 13.96,113.78 81.43,313.29 180.56,380.19 136.05,91.83 749.3,424.19 846.56,534.6 151.08,171.53 332.23,266.34 593.47,350 119.65,38.32 230.28,44.46 323.64,32.8 92.59,-11.56 170.46,-41.41 225.37,-75.73 103.09,69.99 225.69,98.3 348.74,74.57 124.29,-23.96 233.03,-98.13 304.52,-201.86 136.16,-15.63 261.32,-136.4 307.77,-261.86 61.19,-165.25 34.13,-386.54 -83.33,-520.12 -86.71,-98.62 -720.16,-329.8 -833.57,-387 -99.73,-50.31 -214.13,-108.01 -344.34,-216.71z" style="fill:#5ef875"/>
 </g><g id="LeftFoot-Rabbit1">
  <metadata id="CorelCorpID_14Corel-Layer"/>
  <path class="LeftFoot-Rabbit1fil37" d="M9752.69 25439.21c123.56,214.04 403.48,285.33 610.7,105.88 70.65,70.23 276.53,145.75 526.32,65.76 409.29,-131.08 1085.43,-657.98 1428.7,-906.25 220.49,-159.46 149.94,-530.15 40.25,-681.66 -363.68,340.29 -696.62,95.24 -989.51,12.52 -373.84,-101.68 -822.98,-102.63 -620.67,152.09 -198.78,95.76 -1024.55,447.2 -1177.27,620.9 -168.78,191.95 -120.75,630.76 181.48,630.76z" style="fill:#5a14a8"/>
  <path class="LeftFoot-Rabbit1fil10" d="M9743.99 25467.81c123.56,214.04 392.89,285.33 600.11,105.88 263.27,261.71 916.66,-12.43 1207.68,-387.7 314.79,-217.24 676.79,-421.62 795.64,-500.03 156.12,-103 53.19,-398.33 20.96,-584.15 -17.85,-13.98 -36.32,-26.67 -55.45,-37.83 59.89,533.31 -1968.85,1766.03 -1957.44,1098.35 -213.34,341.57 -585.05,186.16 -533.82,-150.27 -126.71,133.91 -271.29,-14.39 -142.78,-274 -182.48,62.12 -215.54,288.03 -209.67,440.56 17.28,153.49 106.7,289.19 274.77,289.19z" style="fill:#496dab"/>
  <path class="LeftFoot-Rabbit1fil0" d="M10708.4 24185.7c-277.12,231.33 -479.91,239.56 -632.6,413.23 -168.75,191.92 -120.75,630.76 181.48,630.76 123.56,214.04 403.48,285.33 610.7,105.88 70.65,70.23 276.53,145.76 526.32,65.76 409.3,-131.08 519.97,-488.94 871.1,-725.96 156.04,-105.33 138.82,-331.38 109.24,-523.93" style="fill:#11ac9b"/>
  <path class="LeftFoot-Rabbit1fil28" d="M10660.35 24128.28c32.23,14.49 151.74,68.29 96.1,114.84 -143.13,119.49 -265.97,181.45 -373.06,235.47 -99.11,49.99 -720.41,275.03 -788.45,352.42 -80.91,92.01 -97.3,255.88 -55.21,369.54 18.07,48.79 77.99,123.14 125.37,147 -7.55,-268.78 114.77,-534.12 402.24,-526.25 -186.74,95.17 -268.32,253.8 -247.69,592.25 49.04,79.15 127.69,137.43 219.87,155.2 79.73,15.37 160.2,-1.74 228.24,-45.5 -38.29,-218.05 -10.29,-483.64 289.14,-537.54 -139.24,98.32 -162.69,330.02 -141.92,510.69 31.45,29.61 97.92,60.43 188.69,71.77 74.89,9.35 163.69,4.41 259.78,-26.36 221.4,-70.9 389.39,-150.77 526.67,-306.64 103.47,-117.46 723.13,-457.1 875.28,-559.8 56.89,-38.4 106.48,-200.43 115.52,-274.13 5.91,-48.16 12.39,-90.93 7.5,-133.2 -3.75,-32.35 -5.98,-48.97 -23.54,-102.83 -14.63,-97.52 109.65,-115.23 144.78,-21.39 12.89,39.53 20.74,74.23 25.45,109.36 7,52.14 2.13,105.01 -5.37,166.22 -13.96,113.78 -81.43,313.29 -180.56,380.19 -136.05,91.83 -749.3,424.19 -846.56,534.6 -151.08,171.53 -332.23,266.34 -593.47,350 -119.65,38.32 -230.28,44.46 -323.64,32.8 -92.59,-11.56 -170.46,-41.41 -225.37,-75.73 -103.09,69.99 -225.69,98.3 -348.74,74.57 -124.29,-23.96 -233.03,-98.13 -304.52,-201.86 -136.16,-15.63 -261.32,-136.4 -307.77,-261.86 -61.19,-165.25 -34.13,-386.54 83.33,-520.12 86.71,-98.62 720.16,-329.8 833.57,-387 99.73,-50.31 214.13,-108.01 344.34,-216.71z" style="fill:#95a694"/>
 </g><g id="RightLeg-Rabbit5">
  <metadata id="CorelCorpID_12Corel-Layer"/>
  <path class="RightLeg-Rabbit5fil36" d="M13682 23259.3c350.13,0 1187.72,54.86 1405.45,467.27 87.54,165.8 -123.6,236.81 -55.98,329.08 214.87,221.86 636.02,309.24 894.44,108.39 312.34,-242.74 729.63,-235.28 737.22,-16.12 150.3,-63.23 398.99,-283.43 427.82,-382.75 416.85,68.7 605.41,-369.65 363.13,-827.7 40.25,-68.57 320.31,-132.71 258.75,-303.64 -232.51,-645.56 -883.05,-868.09 -1382.72,-1445.61 -621.48,859.57 -1470.39,1269.07 -2648.11,1328.08l0 743z" style="fill:#5d2200"/>
  <path class="RightLeg-Rabbit5fil27" d="M14251.63 23224.86c-8.59,41.93 429.53,60.11 873.34,-83.65 248.02,-80.34 475.25,-69.27 634.35,-45.57 273.92,40.81 333.17,247.73 181.71,355.49 144.47,-2.89 410.95,19.95 460.75,116.11 169.67,327.65 -344.19,493.17 -502.92,616.54 -258.45,200.87 -680.63,73.48 -895.5,-148.38 -9.31,-12.7 -13.63,-25.02 -14.44,-37.26l0 -0.03c36.41,-85.22 105.37,-71.83 98.53,-271.54 -6.84,-199.71 -835.82,-501.71 -835.82,-501.71z" style="fill:#894e02"/>
  <path class="RightLeg-Rabbit5fil10" d="M17090.95 23765.17c261.39,31.13 489.47,-175.85 415.11,-754.37 -6.91,-53.74 -81.86,-153.61 -28.23,-159.66 108.73,-12.26 253.38,-193.74 187.27,-332.27 -242.35,-507.83 -866.46,-876.4 -1106.76,-1096.6l-285.66 578.41c26.43,47.89 52.85,95.78 79.28,143.67 387.48,-413.26 1396.39,1116.5 738.99,1620.82z" style="fill:#aee281"/>
  <path class="RightLeg-Rabbit5fil28" d="M13681.96 23156.77c0,53.89 0,70.23 0,150.29 1.05,-0.09 369.7,-11.33 754.7,102.19 128.96,38.03 326.86,124.14 481.95,220.11 121.28,75.04 227.25,140.61 294.6,161.31 67.97,20.91 336.72,117.86 720.21,19.22 -408.62,-65.2 -515.39,-112.7 -675.71,-162 -47.86,-14.71 -146.31,-75.63 -259,-145.36 -162.97,-100.83 -370.1,-192.66 -519.34,-236.67 -413.86,-122.04 -796.28,-109.25 -797.41,-109.09z" style="fill:#ff2137"/>
  <path class="RightLeg-Rabbit5fil28" d="M14852.41 24149.58c-6.63,40.77 19.98,82.54 60.75,89.17 40.77,6.63 59.9,0.68 77.73,-47.56 3.27,-19.88 35.74,-71.71 63.2,-114.07 105.22,-162.3 243.27,-375.23 -65.46,-578.32 -34.46,-22.65 -80.77,-13.08 -103.42,21.38 -22.65,34.46 -13.08,80.77 21.38,103.42 184.59,121.43 92.39,263.67 22.1,372.08 -36.56,56.4 -63.62,104.09 -76.28,153.9z" style="fill:#f67a07"/>
  <path class="RightLeg-Rabbit5fil28" d="M16618.15 21476.2c-41.09,-4.2 -77.83,25.7 -82.03,66.79 -4.2,41.09 25.7,77.83 66.79,82.03 161.07,17.07 599.3,395.51 860.76,713.33 70.89,86.18 125.49,170.06 152.69,244.12 21.74,59.21 24.67,109.1 0.99,143.12 -80.54,115.74 -170.49,97.44 -297.91,120.65 55.67,47.23 143.94,142.06 149.29,429.66 1.36,73.35 -7.17,148.15 -27.5,214.91 -19.1,62.7 -48.35,117.67 -89.21,155.91 -129.91,121.57 -258.85,44.88 -280.15,26.9 -207.8,345.92 -607.19,561.12 -737.55,625.09 263.74,5.24 468.46,-146.87 542.68,-205.35 95.54,-75.28 167.25,-154.35 243.07,-245.86 142.95,23.4 252.79,-15.89 333.91,-91.8 61.44,-57.51 103.92,-135.23 130.21,-221.53 25.05,-82.24 35.59,-172.84 33.96,-260.61 -2.35,-125.87 -31.1,-248.72 -79.35,-337.97 97.33,-25.49 162.64,-68.49 201.59,-124.46 54.87,-78.85 55.16,-175.19 16.59,-280.22 -33.11,-90.17 -96.56,-188.62 -177.89,-287.48 -281.15,-341.75 -772.97,-747.31 -960.94,-767.23z" style="fill:#ed990d"/>
 </g><g id="LeftLeg-Rabbit5">
  <metadata id="CorelCorpID_21Corel-Layer"/>
  <g id="_2131616278096">
   <path class="LeftLeg-Rabbit5fil45" d="M13681.92 23259.3c-350.13,0 -1187.72,54.86 -1405.45,467.27 -87.54,165.8 123.6,236.81 55.98,329.08 -214.87,221.86 -636.02,309.24 -894.44,108.39 -312.34,-242.74 -729.63,-235.28 -737.22,-16.12 -150.3,-63.23 -398.99,-283.43 -427.82,-382.75 -416.85,68.7 -605.41,-369.65 -363.13,-827.7 -40.25,-68.57 -320.31,-132.71 -258.75,-303.64 232.51,-645.56 883.05,-868.09 1382.72,-1445.61 621.48,859.57 1470.39,1269.07 2648.11,1328.08l0 743z" style="fill:#886f8c"/>
   <path class="LeftLeg-Rabbit5fil27" d="M13112.29 23224.86c8.59,41.93 -429.53,60.11 -873.34,-83.65 -248.02,-80.34 -475.25,-69.27 -634.35,-45.57 -273.92,40.81 -333.17,247.73 -181.71,355.49 -144.47,-2.89 -410.95,19.95 -460.75,116.11 -169.67,327.65 344.19,493.17 502.92,616.54 258.45,200.87 680.63,73.48 895.5,-148.38 9.31,-12.7 13.63,-25.02 14.44,-37.26l0 -0.03c-36.41,-85.22 -105.37,-71.83 -98.53,-271.54 6.84,-199.71 835.82,-501.71 835.82,-501.71z" style="fill:#14d79b"/>
   <path class="LeftLeg-Rabbit5fil10" d="M10272.97 23765.17c-261.39,31.13 -489.47,-175.85 -415.11,-754.37 6.91,-53.74 81.86,-153.61 28.23,-159.66 -108.73,-12.26 -253.38,-193.74 -187.27,-332.27 242.35,-507.83 866.46,-876.4 1106.76,-1096.6l285.66 578.41c-26.43,47.89 -52.85,95.78 -79.28,143.67 -387.48,-413.26 -1396.39,1116.5 -738.99,1620.82z" style="fill:#c1a3d9"/>
   <path class="LeftLeg-Rabbit5fil28" d="M13681.96 23156.77c0,53.89 0,70.23 0,150.29 -1.05,-0.09 -369.7,-11.33 -754.7,102.19 -128.96,38.03 -326.86,124.14 -481.95,220.11 -121.28,75.04 -227.25,140.61 -294.6,161.31 -67.97,20.91 -336.72,117.86 -720.21,19.22 408.62,-65.2 515.39,-112.7 675.71,-162 47.86,-14.71 146.31,-75.63 259,-145.36 162.97,-100.83 370.1,-192.66 519.34,-236.67 413.86,-122.04 796.28,-109.25 797.41,-109.09z" style="fill:#04002f"/>
   <path class="LeftLeg-Rabbit5fil28" d="M12511.51 24149.58c6.63,40.77 -19.98,82.54 -60.75,89.17 -40.77,6.63 -59.9,0.68 -77.73,-47.56 -3.27,-19.88 -35.74,-71.71 -63.2,-114.07 -105.22,-162.3 -243.27,-375.23 65.46,-578.32 34.46,-22.65 80.77,-13.08 103.42,21.38 22.65,34.46 13.08,80.77 -21.38,103.42 -184.59,121.43 -92.39,263.67 -22.1,372.08 36.56,56.4 63.62,104.09 76.28,153.9z" style="fill:#aa25bf"/>
   <path class="LeftLeg-Rabbit5fil28" d="M10745.77 21476.2c41.09,-4.2 77.83,25.7 82.03,66.79 4.2,41.09 -25.7,77.83 -66.79,82.03 -161.07,17.07 -599.3,395.51 -860.76,713.33 -70.89,86.18 -125.49,170.06 -152.69,244.12 -21.74,59.21 -24.67,109.1 -0.99,143.12 80.54,115.74 170.49,97.44 297.91,120.65 -55.67,47.23 -143.94,142.06 -149.29,429.66 -1.36,73.35 7.17,148.15 27.5,214.91 19.1,62.7 48.35,117.67 89.21,155.91 129.91,121.57 258.85,44.88 280.15,26.9 207.8,345.92 607.19,561.12 737.55,625.09 -263.74,5.24 -468.46,-146.87 -542.68,-205.35 -95.54,-75.28 -167.25,-154.35 -243.07,-245.86 -142.95,23.4 -252.79,-15.89 -333.91,-91.8 -61.44,-57.51 -103.92,-135.23 -130.21,-221.53 -25.05,-82.24 -35.59,-172.84 -33.96,-260.61 2.35,-125.87 31.1,-248.72 79.35,-337.97 -97.33,-25.49 -162.64,-68.49 -201.59,-124.46 -54.87,-78.85 -55.16,-175.19 -16.59,-280.22 33.11,-90.17 96.56,-188.62 177.89,-287.48 281.15,-341.75 772.97,-747.31 960.94,-767.23z" style="fill:#85c554"/>
  </g>
 </g><g id="RightHand-Rabbit5">
  <animateTransform additive="sum" attributeName="transform" dur="10" repeatCount="indefinite" type="translate" values="0;0 200;0;0 200;0;0 200;0;0 200;0"/>
  <metadata id="CorelCorpID_27Corel-Layer"/>
  <path class="RightHand-Rabbit5fil49" d="M16231.2 17708.66c560.16,192.23 1718.91,662.86 1418.55,1080.13 306.45,211.29 940.46,386.68 618.49,750.79 83.24,114.53 157.68,226.65 219.54,334.51 288.86,503.68 -636.05,1265.03 -911.19,1013.52 -627.05,-573.17 -1208.37,-619.78 -1688.45,-542.15 -741.88,119.97 -1352.69,-1920.87 -930.81,-2545.29 421.91,-21.63 933.51,-40.49 1273.87,-91.51z" style="fill:#4462cf"/>
  <path class="RightHand-Rabbit5fil27" d="M17577.17 20798.13c-321.7,-290.86 -632.04,-405.25 -920.24,-484.42 -221.32,-196.47 -642.27,-965.41 -451.1,-1264.19 65.42,-102.23 1409.64,-31.29 1010.14,533.86 757.32,-304.78 967.98,8.95 879.91,-78.06 186.39,181.45 488.99,485.13 418.83,652.55 -154.16,367.87 -793.01,587.7 -937.54,640.26z" style="fill:#a8bd2c"/>
  <path class="RightHand-Rabbit5fil10" d="M17511.96 20830.3c-602.27,-518.8 -1160.28,-559.8 -1623.82,-484.84 -171.07,27.66 -335.13,-59.69 -481.2,-217.95 -325.13,-471.76 752.73,-1097.7 1038.62,-655.88 261.31,403.84 734.1,847.76 1111.39,1126.01 -1.79,93.3 16.27,193.39 -44.96,232.66l0 -0.01 -0.03 0.01z" style="fill:#1732d7"/>
  <path class="RightHand-Rabbit5fil28" d="M16466.99 20407.08c-40.93,-5.5 -69.66,-43.15 -64.16,-84.08 5.5,-40.93 43.15,-69.66 84.08,-64.16 177.26,24.25 362.53,76.23 553.97,168.35l0.23 0.12 0.06 -0.12c189.7,91.28 385.57,222.31 585.81,405.34 42.35,38.72 114.59,38 198.03,9.9 87.86,-29.59 184.36,-88.85 274.26,-166.76 90.94,-78.82 173.94,-175.91 233.42,-280.06 91.67,-160.5 126.66,-337.02 42.88,-483.1 -28.58,-49.84 -58.3,-100.49 -89.01,-151.51 -20.25,-33.63 -133.61,-199.11 -194.89,-255.54 0.83,-2.68 272.35,27.94 194.41,-127.57 -84.45,-168.56 -450.37,-378.52 -623.77,-478.01 -49.99,-28.68 -177.07,-119 -193,-131.81 -21.98,-17.68 266.44,-92.84 70.97,-340.71 -231.07,-256.28 -988.85,-605.06 -1327.33,-651.23 -78.25,-28.36 -147.21,-23.02 -211.01,-44.21l-69.89 -23.19c-39.15,-13.26 -60.14,-55.77 -46.88,-94.92 13.26,-39.15 55.77,-60.14 94.92,-46.88 45.79,15.56 57.68,19.52 68.73,23.19 68.55,22.77 137.44,16.84 215.4,45.39 400.75,108.78 1103.44,376.67 1387.38,691.65 119.58,132.65 165.17,303.33 72.29,435.26l12.84 7.38c185.8,106.6 577.88,331.58 682.95,541.29 53.34,106.45 47.04,205.79 -58.05,285.53 18.95,30.54 36.68,59.53 53.25,87.04 31.95,53.08 62.21,104.63 90.77,154.43 114.22,199.17 73.14,428.19 -42.88,631.34 -68.16,119.34 -162.58,229.98 -265.64,319.32 -104.1,90.22 -218.29,159.66 -324.66,195.48 -134.08,45.16 -258.81,38.42 -346.27,-41.54 -188.23,-172.05 -372.14,-295.12 -550.07,-380.74l0.05 -0.11c-176.08,-84.7 -346.35,-132.49 -509.19,-154.76z" style="fill:#57d204"/>
 </g><g id="LeftHand-Rabbit5">
  <animateTransform additive="sum" attributeName="transform" dur="10" repeatCount="indefinite" type="translate" values="0;0 200;0;0 200;0;0 200;0;0 200;0"/>
  <metadata id="CorelCorpID_36Corel-Layer"/>
  <path class="LeftHand-Rabbit5fil57" d="M11132.68 17708.66c-560.16,192.23 -1718.91,662.86 -1418.55,1080.13 -306.45,211.29 -940.46,386.68 -618.49,750.79 -83.24,114.53 -157.68,226.65 -219.54,334.51 -288.86,503.68 636.05,1265.03 911.19,1013.52 627.05,-573.17 1208.37,-619.78 1688.45,-542.15 741.88,119.97 1352.69,-1920.87 930.81,-2545.29 -421.91,-21.63 -933.51,-40.49 -1273.87,-91.51z" style="fill:#102a77"/>
  <path class="LeftHand-Rabbit5fil27" d="M9786.71 20798.13c321.7,-290.86 632.04,-405.25 920.24,-484.42 221.32,-196.47 642.27,-965.41 451.1,-1264.19 -65.42,-102.23 -1409.64,-31.29 -1010.14,533.86 -757.32,-304.78 -967.98,8.95 -879.91,-78.06 -186.39,181.45 -488.99,485.13 -418.83,652.55 154.16,367.87 793.01,587.7 937.54,640.26z" style="fill:#e58707"/>
  <path class="LeftHand-Rabbit5fil10" d="M9851.92 20830.3c602.27,-518.8 1160.28,-559.8 1623.82,-484.84 171.07,27.66 335.13,-59.69 481.2,-217.95 325.13,-471.76 -752.73,-1097.7 -1038.62,-655.88 -261.31,403.84 -734.1,847.76 -1111.39,1126.01 1.79,93.3 -16.27,193.39 44.96,232.66l0 -0.01 0.03 0.01z" style="fill:#d69269"/>
  <path class="LeftHand-Rabbit5fil28" d="M10896.89 20407.08c40.93,-5.5 69.66,-43.15 64.16,-84.08 -5.5,-40.93 -43.15,-69.66 -84.08,-64.16 -177.26,24.25 -362.53,76.23 -553.97,168.35l-0.23 0.12 -0.06 -0.12c-189.7,91.28 -385.57,222.31 -585.81,405.34 -42.35,38.72 -114.59,38 -198.03,9.9 -87.86,-29.59 -184.36,-88.85 -274.26,-166.76 -90.94,-78.82 -173.94,-175.91 -233.42,-280.06 -91.67,-160.5 -126.66,-337.02 -42.88,-483.1 28.58,-49.84 58.3,-100.49 89.01,-151.51 20.25,-33.63 133.61,-199.11 194.89,-255.54 -0.83,-2.68 -272.35,27.94 -194.41,-127.57 84.45,-168.56 450.37,-378.52 623.77,-478.01 49.99,-28.68 177.07,-119 193,-131.81 21.98,-17.68 -266.44,-92.84 -70.97,-340.71 231.07,-256.28 988.85,-605.06 1327.33,-651.23 78.25,-28.36 147.21,-23.02 211.01,-44.21l69.89 -23.19c39.15,-13.26 60.14,-55.77 46.88,-94.92 -13.26,-39.15 -55.77,-60.14 -94.92,-46.88 -45.79,15.56 -57.68,19.52 -68.73,23.19 -68.55,22.77 -137.44,16.84 -215.4,45.39 -400.75,108.78 -1103.44,376.67 -1387.38,691.65 -119.58,132.65 -165.17,303.33 -72.29,435.26l-12.84 7.38c-185.8,106.6 -577.88,331.58 -682.95,541.29 -53.34,106.45 -47.04,205.79 58.05,285.53 -18.95,30.54 -36.68,59.53 -53.25,87.04 -31.95,53.08 -62.21,104.63 -90.77,154.43 -114.22,199.17 -73.14,428.19 42.88,631.34 68.16,119.34 162.58,229.98 265.64,319.32 104.1,90.22 218.29,159.66 324.66,195.48 134.08,45.16 258.81,38.42 346.27,-41.54 188.23,-172.05 372.14,-295.12 550.07,-380.74l-0.05 -0.11c176.08,-84.7 346.35,-132.49 509.19,-154.76z" style="fill:#ec7a3b"/>
 </g><g id="Body-Rabbit5">
   <animateTransform additive="sum" attributeName="transform" dur="10" repeatCount="indefinite" type="translate" values="0;0 200;0;0 200;0;0 200;0;0 200;0"/>
  <metadata id="CorelCorpID_42Corel-Layer"/>
  <path class="Body-Rabbit5fil58" d="M13681.92 23134.87c-1547.89,0 -2751.5,-290.59 -2992.7,-1955.85 -146.87,-1014.04 390.42,-2286.86 991,-3419.88 634.24,80.29 1288.94,123.26 2001.7,142.31 712.76,-19.05 1367.46,-62.02 2001.7,-142.31 600.58,1133.02 1137.87,2405.84 991,3419.88 -241.2,1665.26 -1444.81,1955.85 -2992.7,1955.85z" style="fill:#d0f41a"/>
  <path class="Body-Rabbit5fil10" d="M12620.51 23067.29c-1015.93,-155.83 -1748.88,-628.88 -1931.29,-1888.27 -75.17,-519 28.96,-1105.79 228.98,-1706.93 -223.57,2000.42 401.77,3257.02 1702.31,3595.2z" style="fill:#880eda"/>
  <path class="Body-Rabbit5fil28" d="M11011.96 22144.35c-249.8,-320.87 -347.52,-640.99 -396.86,-954.78 -59.27,-376.93 -23.8,-997.6 184.1,-1319.31 -78.5,420.39 -93.5,905.22 -35.86,1298.21 50,340.9 103.32,571.56 248.62,975.88z" style="fill:#673db5"/>
  <path class="Body-Rabbit5fil10" d="M14743.33 23067.29c1015.93,-155.83 1748.88,-628.88 1931.29,-1888.27 75.17,-519 -28.96,-1105.79 -228.98,-1706.93 223.57,2000.42 -401.77,3257.02 -1702.31,3595.2z" style="fill:#084dac"/>
  <path class="Body-Rabbit5fil28" d="M16351.92 22144.35c249.8,-320.87 347.52,-640.99 396.86,-954.78 59.27,-376.93 23.8,-997.6 -184.1,-1319.31 78.5,420.39 93.5,905.22 35.86,1298.21 -50,340.9 -103.32,571.56 -248.62,975.88z" style="fill:#9018e1"/>
  <path class="Body-Rabbit5fil61" d="M12901.47 21742.01c194.19,-380.09 189.19,-648.3 -113.38,-900.31 30.7,97.54 68.58,159.13 76.29,256.99 -2.92,-50.03 -924.37,-199 -1214.43,-688.92 -308.44,-520.97 -218.79,-1046.65 -234.45,-1216.63 -42.67,188.1 -187.74,315.73 -114.95,593.22 -1098.6,-941.02 -379.17,-1958.47 222.78,-2089.73 178.26,-38.87 350.86,-37.61 491.39,26.49 358.03,163.3 837.03,1092.72 822.79,1295.59 142.42,-32.83 307.82,-219.49 357.94,-474.5 14.57,343.5 -16.6,619.31 509.58,836.38 -39.09,-406.37 216.88,-583.56 423.57,-633.58 73.66,262.56 174.01,398.3 317.72,397.25 94.55,-658.59 829.87,-1438.38 1242.14,-1375.98 879.32,133.1 1456.18,880.79 376.14,2133.66 98.61,-398.44 -108.5,-619.56 -110.98,-555.62 -40.79,1051.72 -621.41,1544.87 -1221.18,1687.23 41.02,-115.57 287.52,-377.28 283,-688.93 -593.89,409.4 -248.87,904.25 -249.12,1173.67 -64.59,-59.7 -685.76,60.91 -852.29,-477.87 -96.82,613.4 -587.9,660.55 -1012.56,701.59z" style="fill:#f5e2f6"/>
  <path class="Body-Rabbit5fil27" d="M13049.62 21476.83c479.31,-787.81 -437.29,-728.86 -497.86,-1343.3 -23.3,425.68 12.13,407.6 230.61,725.35 -2.93,-42 -778.82,-173.72 -1068.92,-585.14 -308.48,-437.44 -382.82,-1203.18 -398.5,-1345.9 -42.66,157.91 -166.57,331.75 -93.78,564.74 -813.21,-689.36 -557.9,-1840.74 518.02,-1916.74 652.77,-45.46 3127.31,-36.71 3893.11,27.16 1121.81,93.38 1307.48,1050.47 522.25,1928.88 98.61,-334.55 -169.3,-525.21 -171.78,-471.48 -40.83,883.08 -518.27,1586.49 -1118.04,1706.04 41.02,-97.06 158.82,-341.13 154.3,-602.81 -593.89,343.77 -466.6,884.63 -466.87,1110.87 -116.01,-16.54 -541.03,-17.57 -631.84,-519.44 -57.21,568.3 -415.06,728.93 -870.7,721.77z" style="fill:#e28876"/>
  <path class="Body-Rabbit5fil62" d="M13049.62 21476.83c479.31,-787.81 -437.29,-728.86 -497.86,-1343.3 -23.3,425.68 12.13,407.6 230.61,725.35 -2.93,-42 -778.82,-173.72 -1068.92,-585.14 -308.48,-437.44 -382.82,-1203.18 -398.5,-1345.9 -42.66,157.91 -166.57,331.75 -93.78,564.74 -704.24,-596.98 -606.99,-1540.3 130.45,-1831.8 -37.1,75.11 -82.95,76.24 -82.95,76.24 0,0 -409.08,361.14 -235.06,896 174.02,534.86 691.01,-330.17 532.26,-4.73 -158.75,325.44 3.3,924.48 320.8,1358.39 317.5,433.91 618.45,-259.19 618.45,-259.19 300.33,469.95 941.36,1737.29 1487.33,587.8 86.59,73.85 62.82,1196.35 1182.6,-807.91 -69.07,430.28 -93.61,1354.56 468.03,283.61 241.79,-461.06 280.47,-719.68 174.63,-952.51 -105.84,-232.83 329.69,362.15 597.96,100.54 268.27,-261.61 -43.85,-853.8 -291.94,-1136.77 -248.09,-282.97 -53.39,-67.7 -67.54,-95.95 582.39,246.33 925.55,900.23 98.36,1825.58 98.61,-334.55 -169.3,-525.21 -171.78,-471.48 -40.83,883.08 -518.27,1586.49 -1118.04,1706.04 41.02,-97.06 158.82,-341.13 154.3,-602.81 -593.89,343.77 -466.6,884.63 -466.87,1110.87 -116.01,-16.54 -541.03,-17.57 -631.84,-519.44 -57.21,568.3 -415.06,728.93 -870.7,721.77z" style="fill:#9b8d00"/>
  <path class="Body-Rabbit5fil28" d="M11143.99 17655.45c33.65,-23.94 80.36,-16.07 104.3,17.58 23.94,33.65 16.07,80.36 -17.58,104.3 -0.81,0.57 -117.07,81.15 -227.21,227.53 -318.82,423.73 -273.93,743.99 -103.49,1108.65 -218.78,-333.98 -342.43,-759.44 -23.03,-1188.99 128.61,-172.97 266.06,-268.4 267.01,-269.07z" style="fill:#56da8e"/>
  <path class="Body-Rabbit5fil28" d="M16186.38 17768.72c-33.17,-24.75 -39.99,-71.71 -15.24,-104.88 24.75,-33.17 71.71,-39.99 104.88,-15.24 1.07,0.8 188.88,138.25 320.81,381.83 180.66,333.52 40.29,912.81 -122.79,1063.3 14.74,-59.45 263.85,-476.56 -7.02,-987.92 -113.91,-215.06 -279.7,-336.39 -280.64,-337.09z" style="fill:#fc8a5f"/>
  <path class="Body-Rabbit5fil63" d="M12130.47 18530.2c172.28,475.57 509.35,577.96 630.71,606.02 130.42,-149.8 298.72,-272.5 387.23,-383.77 47.04,215.13 191.54,599.61 596.61,767.39 5.1,-148.6 189.97,-475.34 461.59,-643.33 67.81,222.42 136.75,295.75 225.23,392.1 170.82,-257.33 592.6,-395.39 868.68,-775 -161.26,488.19 -818.69,854.17 -814.82,983.21 -30.9,19.47 -255.46,-124.28 -349.18,-369.86 -238.71,248.38 -268.57,548.77 -197.42,598.21 -549.06,25.53 -778.02,-394.38 -856.53,-687.91 -72.05,81.98 -162.72,172.22 -253.37,293.66 -24.29,-19.03 -688.09,-44.77 -698.73,-780.72z" style="fill:#9f8ee6"/>
 </g><g id="RightPaw-Rabbit2">
  <animateTransform additive="sum" attributeName="transform" dur="10" repeatCount="indefinite" type="translate" values="0;0 200;0;0 200;0;0 200;0;0 200;0"/>
  <metadata id="CorelCorpID_30Corel-Layer"/>
  <g id="_2131552597904">
   <path class="RightPaw-Rabbit2fil51" d="M17500.83 20836.37c-31.01,671.59 506.32,1058.8 828,765.31 253.5,397.35 884.17,103.39 809.26,-292.5 203.13,-535.14 -266.24,-1035.76 -634.19,-1325.08 -198.11,-64.5 -364.18,-247.68 -461.85,44.06 -113.97,340.43 -156.85,278.81 -402.23,397.75 -163.53,79.26 -10.67,351.89 -138.99,410.46z" style="fill:#449f5f"/>
   <path class="RightPaw-Rabbit2fil10" d="M17500.83 20836.37c-31.01,671.59 506.32,1058.8 828,765.31 341.06,429.25 911,23.85 753.65,-292.7 -65.31,297.19 -520.59,407.83 -657.17,-118.23 -113.25,412.02 -522.03,237.66 -614.7,26.73 -95.14,-216.58 -44.81,-462.8 -253.66,-619.84 -1.8,93.31 16.28,193.4 -44.96,232.65l-0.16 0.1 -0.17 0.11c-1.48,0.93 -2.97,1.82 -4.53,2.69l-0.17 0.1 -0.18 0.09 -0.14 0.09 -0.03 0.01 -0.18 0.1 -0.17 0.09 -0.18 0.09c-1.69,0.92 -3.44,1.79 -5.25,2.61z" style="fill:#c85eca"/>
   <path class="RightPaw-Rabbit2fil28" d="M17436.91 20673.48c-79.39,-58.19 -167.86,62.52 -88.48,120.7 28.24,20.69 56.25,42.36 83.3,64.61 -3.93,302.02 99.68,551.64 246.17,712.18 55.54,60.86 117.82,109.47 183.4,143.86 145.9,76.49 311.53,82.65 453.24,-7.98 209.57,238.5 583.03,191.12 784.7,-34.27 86.01,-96.11 134.73,-220.26 115.83,-356.13 82.54,-234.31 46.25,-463.42 -52.44,-673.52 -132.46,-282 -402.86,-497.73 -588.08,-703.58 -33.5,-37.22 -180.19,-286.69 -214.16,-345.48 -58.56,-79 -178.69,10.05 -120.12,89.06 35.43,47.77 75.16,120.11 111.48,186.29 6.41,11.67 81.45,153.11 123.81,187.52 201.58,163.8 430.96,392.41 551.71,649.47 38.04,80.97 65.19,164.94 76.97,250.68 -53.73,-69.19 -156.09,-151.42 -275.06,-139.39 80.64,67.61 125.53,143.46 171.18,252.76 65.8,157.59 113.11,362.41 -12.44,502.72 -141.93,158.63 -411.75,205.47 -562.48,33.5 115.64,-164.64 117.79,-464.48 -80.37,-548.33 54.53,102.27 47.95,374.07 -54.76,476.76 -86.33,86.32 -222.41,119.56 -359.87,47.5 -49.57,-25.99 -97.71,-63.9 -141.8,-112.22 -128.18,-140.48 -217.35,-364.86 -206.61,-639.48 1.55,-21.67 -6.3,-43.83 -23.35,-59.87 -36.49,-34.26 -81.32,-67.73 -121.77,-97.36z" style="fill:#d66104"/>
  </g>
 </g><g id="LeftPaw-Rabbit2">
   <animateTransform additive="sum" attributeName="transform" dur="10" repeatCount="indefinite" type="translate" values="0;0 200;0;0 200;0;0 200;0;0 200;0"/>
  <metadata id="CorelCorpID_45Corel-Layer"/>
  <path class="LeftPaw-Rabbit2fil65" d="M9863.01 20836.37c31.01,671.59 -506.32,1058.8 -828,765.31 -253.5,397.35 -884.17,103.39 -809.26,-292.5 -203.13,-535.14 266.24,-1035.76 634.19,-1325.08 198.11,-64.5 364.18,-247.68 461.85,44.06 113.97,340.43 156.85,278.81 402.23,397.75 163.53,79.26 10.67,351.89 138.99,410.46z" style="fill:#1b76cd"/>
  <path class="LeftPaw-Rabbit2fil10" d="M9863.01 20836.37c31.01,671.59 -506.32,1058.8 -828,765.31 -341.06,429.25 -911,23.85 -753.65,-292.7 65.31,297.19 520.59,407.83 657.17,-118.23 113.25,412.02 522.03,237.66 614.7,26.73 95.14,-216.58 44.81,-462.8 253.66,-619.84 1.8,93.31 -16.28,193.4 44.96,232.65l0.16 0.1 0.17 0.11c1.48,0.93 2.97,1.82 4.53,2.69l0.17 0.1 0.18 0.09 0.14 0.09 0.03 0.01 0.18 0.1 0.17 0.09 0.18 0.09c1.69,0.92 3.44,1.79 5.25,2.61z" style="fill:#9f9fe9"/>
  <path class="LeftPaw-Rabbit2fil28" d="M9926.93 20673.48c79.39,-58.19 167.86,62.52 88.48,120.7 -28.24,20.69 -56.25,42.36 -83.3,64.61 3.93,302.02 -99.68,551.64 -246.17,712.18 -55.54,60.86 -117.82,109.47 -183.4,143.86 -145.9,76.49 -311.53,82.65 -453.24,-7.98 -209.57,238.5 -583.03,191.12 -784.7,-34.27 -86.01,-96.11 -134.73,-220.26 -115.83,-356.13 -82.54,-234.31 -46.25,-463.42 52.44,-673.52 132.46,-282 402.86,-497.73 588.08,-703.58 33.5,-37.22 180.19,-286.69 214.16,-345.48 58.56,-79 178.69,10.05 120.12,89.06 -35.43,47.77 -75.16,120.11 -111.48,186.29 -6.41,11.67 -81.45,153.11 -123.81,187.52 -201.58,163.8 -430.96,392.41 -551.71,649.47 -38.04,80.97 -65.19,164.94 -76.97,250.68 53.73,-69.19 156.09,-151.42 275.06,-139.39 -80.64,67.61 -125.53,143.46 -171.18,252.76 -65.8,157.59 -113.11,362.41 12.44,502.72 141.93,158.63 411.75,205.47 562.48,33.5 -115.64,-164.64 -117.79,-464.48 80.37,-548.33 -54.53,102.27 -47.95,374.07 54.76,476.76 86.33,86.32 222.41,119.56 359.87,47.5 49.57,-25.99 97.71,-63.9 141.8,-112.22 128.18,-140.48 217.35,-364.86 206.61,-639.48 -1.55,-21.67 6.3,-43.83 23.35,-59.87 36.49,-34.26 81.32,-67.73 121.77,-97.36z" style="fill:#b470e6"/>
 </g><g id="NecklaceTornShirtBlue-Medium">
 <animateTransform additive="sum" attributeName="transform" dur="10" repeatCount="indefinite" type="translate" values="0;0 200;0;0 200;0;0 200;0;0 200;0"/>
  <metadata id="CorelCorpID_4Corel-Layer"/>
  <path class="NecklaceTornShirtBlue-Mediumfil10" d="M13682 18647c658,0 2106,-245 1878,-1292 1232,-64 1965,547 2452,984 40,498 -620,1484 -1420,1443 419,783 542,2091 542,2091 -868,673 -2173,928 -3452,928 -1280,0 -2584,-255 -3452,-928 0,0 123,-1308 542,-2091 -800,41 -1460,-945 -1420,-1443 487,-437 1220,-1048 2452,-984 -228,1047 1220,1292 1878,1292zm-333 224c-277,229 -967,753 -1160,652 -247,60 -410,138 -477,171 22,-127 203,-274 387,-425 175,-49 406,-58 634,-218 203,-142 461,-160 616,-180zm1178 3258c209,-147 658,-582 898,-748 7,75 -49,109 -19,182 147,-99 287,-237 421,-317 -42,89 -123,265 -164,356 163,46 282,69 284,184 -130,-13 -477,85 -607,71 -56,106 -113,211 -169,317 -27,-24 -28,-108 -56,-131 -187,8 -401,77 -588,86zm512 -1313c17,-50 351,-288 480,-272 97,46 328,-90 367,-119 -3,47 -86,288 -90,335 -114,-24 -560,-16 -757,56zm70 208c-205,101 -486,172 -744,289 -199,91 -379,234 -526,292 -125,49 -193,20 -243,47 -88,48 -558,215 -643,437 350,-88 701,-176 1051,-265 93,5 185,9 278,14 57,-80 115,-159 172,-239 95,3 190,5 284,7 124,-194 247,-388 371,-582zm-979 -582c-170,79 -233,90 -347,144 -120,56 -110,-23 -231,32 -460,210 -1469,842 -1922,1067 377,-66 754,-132 1131,-198 128,26 255,53 383,79 -6,-57 -74,-152 -80,-210 144,-43 276,-73 424,-48 194,-328 428,-577 642,-866zm1445 -873c-234,152 -444,178 -678,330 73,58 -65,175 -82,282 141,-80 318,-165 393,-215 52,1 190,2 243,3 9,-103 115,-298 124,-400zm-640 -474c-373,78 -645,308 -1185,321 -161,4 -263,-135 -481,15 -131,90 -324,228 -436,353 -75,84 -63,148 -160,243 -327,318 -757,679 -984,957 280,-106 467,-184 747,-290 119,7 374,-50 493,-44 62,-101 81,-166 143,-268 319,-114 639,-229 959,-344 301,-314 602,-629 904,-943z" style="fill:#98d485"/>
  <path class="NecklaceTornShirtBlue-Mediumfil1 NecklaceTornShirtBlue-Mediumstr1" d="M13682 18647c658,0 2106,-245 1878,-1292 1232,-64 1965,547 2452,984 40,498 -620,1484 -1420,1443 419,783 542,2091 542,2091 -868,673 -2173,928 -3452,928 -1280,0 -2584,-255 -3452,-928 0,0 123,-1308 542,-2091 -800,41 -1460,-945 -1420,-1443 487,-437 1220,-1048 2452,-984 -228,1047 1220,1292 1878,1292z" style="fill:#549e01"/>
  <path class="NecklaceTornShirtBlue-Mediumfil2" d="M13995 22796c-104,3 -209,5 -313,5 -1280,0 -2584,-255 -3452,-928 0,0 123,-1308 542,-2091l351 -665c0,0 -905,2070 83,2793 985,721 2779,885 2789,886z" style="fill:#7aebb2"/>
  <g>
   <path class="NecklaceTornShirtBlue-Mediumfil3" d="M13413 18948c-171,141 -496,392 -769,545 -180,102 -347,162 -460,134 -106,27 -194,57 -265,84 -74,29 -129,56 -161,72 -50,26 -110,6 -135,-43 -11,-22 -13,-46 -8,-68 31,-160 218,-314 412,-472l9 -8c11,-9 23,-15 36,-19l0 0c47,-13 97,-23 149,-34 140,-29 302,-62 455,-169 204,-143 446,-172 612,-192 34,-4 29,-3 49,-6 54,-7 104,32 111,86 5,36 -10,69 -35,90zm-64 -77c-277,229 -967,753 -1160,652 -247,60 -410,138 -477,171 22,-127 203,-274 387,-425 175,-49 406,-58 634,-218 203,-142 461,-160 616,-180zm2478 2375c-42,89 -123,265 -164,356 163,46 282,69 284,184 -130,-13 -477,85 -607,71 -56,106 -113,211 -169,317 -27,-24 -28,-108 -56,-131 -187,8 -401,77 -588,86 209,-147 658,-582 898,-748 7,75 -49,109 -19,182 147,-99 287,-237 421,-317zm-308 -702c97,46 328,-90 367,-119 -3,47 -86,288 -90,335 -114,-24 -560,-16 -757,56 17,-50 351,-288 480,-272zm-410 480c-205,101 -486,172 -744,289 -199,91 -379,234 -526,292 -125,49 -193,20 -243,47 -88,48 -558,215 -643,437 350,-88 701,-176 1051,-265 93,5 185,9 278,14 57,-80 115,-159 172,-239 95,3 190,5 284,7 124,-194 247,-388 371,-582zm-1965 542c-6,-57 -74,-152 -80,-210 144,-43 276,-73 424,-48 194,-328 428,-577 642,-866 -170,79 -233,90 -347,144 -120,56 -110,-23 -231,32 -460,210 -1469,842 -1922,1067 377,-66 754,-132 1131,-198 128,26 255,53 383,79zm1753 -1667c73,58 -65,175 -82,282 141,-80 318,-165 393,-215 52,1 190,2 243,3 9,-103 115,-298 124,-400 -234,152 -444,178 -678,330zm-866 139c301,-314 602,-629 904,-943 -373,78 -645,308 -1185,321 -161,4 -263,-135 -481,15 -131,90 -324,228 -436,353 -75,84 -63,148 -160,243 -327,318 -757,679 -984,957 280,-106 467,-184 747,-290 119,7 374,-50 493,-44 62,-101 81,-166 143,-268 319,-114 639,-229 959,-344zm443 2006c95,-67 245,-199 400,-335 178,-157 364,-320 495,-410 45,-31 107,-20 138,26 6,8 10,17 13,26l22 -17c78,-65 155,-127 233,-174 48,-28 109,-13 137,34 18,30 18,64 5,93l0 0c-42,91 -63,136 -82,178 -10,22 -21,46 -33,73 145,43 241,91 245,246 1,55 -42,101 -97,102 -4,0 -9,0 -12,-1l0 1c-51,-6 -164,14 -277,34 -93,17 -187,33 -261,37l-141 264c-26,48 -86,67 -135,41 -7,-4 -13,-8 -19,-13l0 0c-32,-28 -44,-64 -54,-101 -67,8 -139,22 -211,36 -104,20 -207,39 -309,44 -55,3 -101,-40 -104,-95 -2,-37 17,-70 47,-89zm504 -1307c52,-57 158,-141 263,-200 103,-58 213,-101 290,-91 11,1 21,4 30,8l0 0c9,4 38,-2 73,-14 84,-27 172,-80 194,-96 45,-32 107,-22 139,23 14,20 20,43 18,66l1 0c-3,34 -26,111 -49,188 -20,67 -40,134 -41,146 -4,55 -52,97 -107,92 -6,0 -12,-1 -18,-2 -60,-11 -215,-13 -375,-2 -124,10 -247,27 -323,54 -51,19 -109,-8 -127,-59 -15,-42 -1,-87 32,-113zm-261 334c127,-45 248,-87 348,-136l0 0c30,-15 67,-14 97,5 47,30 60,91 31,137l-369 580c-17,30 -50,49 -87,49l-233 -6 -139 192c-18,29 -51,47 -88,45l-262 -12 -1038 261 0 0c-20,4 -40,4 -60,-4 -52,-20 -77,-78 -57,-129 85,-221 440,-378 617,-456 34,-15 61,-27 72,-33 41,-22 76,-24 120,-26 33,-2 77,-4 134,-26 64,-26 143,-74 229,-127 89,-55 185,-114 291,-162 132,-60 266,-107 394,-152zm-829 -636c52,-20 110,-42 200,-84l0 0c32,-14 71,-12 101,11 45,33 54,95 21,139 -69,94 -145,188 -221,283 -143,179 -286,358 -411,569 -19,38 -62,61 -107,54 -63,-11 -123,-10 -183,-2 -30,4 -60,11 -92,18 22,44 43,88 48,132l-1 0c2,10 1,21 -1,31 -11,54 -64,89 -118,78l-364 -75 -1113 195 0 0c-43,7 -87,-14 -107,-54 -24,-50 -4,-110 45,-134 200,-99 514,-281 839,-470 404,-235 827,-480 1087,-599 91,-41 134,-32 178,-22 11,2 23,5 52,-9 57,-27 100,-43 147,-61zm1311 -793c107,-43 213,-86 322,-157l0 0c18,-12 40,-18 63,-15 55,4 95,53 90,108 -6,65 -37,146 -68,227 -26,68 -53,136 -56,173 -5,51 -49,92 -101,90 -27,0 -74,0 -120,-1 -34,0 -67,0 -93,-1 -46,28 -110,61 -180,98 -61,32 -127,66 -191,102 -19,12 -43,17 -66,13 -55,-9 -92,-60 -83,-114 10,-61 40,-113 69,-162 14,-23 75,-6 50,-25l1 0c-9,-7 -16,-15 -22,-24 -30,-46 -17,-108 29,-138 125,-82 241,-128 356,-174zm-694 -508c133,-54 262,-106 409,-137l0 0c31,-6 65,2 90,26 39,38 41,101 2,141l-903 944 -1 -1c-10,11 -23,20 -38,25l-925 332c-19,34 -34,65 -49,96 -21,43 -42,86 -74,140 -18,32 -53,52 -92,50 -50,-3 -139,9 -228,21 -88,12 -176,24 -243,23 -121,46 -237,92 -354,138 -111,44 -221,88 -375,146l0 0c-32,12 -69,7 -98,-16 -42,-35 -49,-98 -14,-141 156,-192 401,-417 644,-641 121,-111 242,-222 347,-325 41,-39 57,-74 74,-108 19,-41 38,-81 82,-130 61,-68 142,-138 224,-202 77,-60 161,-119 230,-166 185,-128 302,-92 419,-55 39,12 78,24 115,23 321,-8 546,-98 758,-183z" style="fill:#fb37d5"/>
  </g>
  <path class="NecklaceTornShirtBlue-Mediumfil4" d="M13349 18871c-51,43 -117,95 -192,153 -83,30 -171,74 -263,139 -222,156 -446,165 -617,212 -91,75 -200,142 -288,205 -137,46 -230,91 -277,114 22,-127 203,-274 387,-425 175,-49 406,-58 634,-218 203,-142 461,-160 616,-180zm1178 3258c209,-147 658,-582 898,-748 7,75 -49,109 -19,182 147,-99 287,-237 421,-317l-19 40c-117,89 -193,296 -328,387 -494,129 -191,291 -594,400 -121,23 -245,50 -359,56zm512 -1313c17,-50 351,-288 480,-272 97,46 328,-90 367,-119 -1,11 -6,32 -13,58 -63,40 -257,146 -342,106 -95,-12 -306,118 -409,203 -30,7 -58,15 -83,24zm70 208c-205,101 -486,172 -744,289 -199,91 -379,234 -526,292 -125,49 -193,20 -243,47 -88,48 -558,215 -643,437l94 -24c118,-197 657,-288 739,-333 49,-26 114,3 236,-45 143,-57 319,-196 512,-284 223,-102 364,-220 533,-314l42 -65zm-979 -582c-170,79 -233,90 -347,144 -120,56 -110,-23 -231,32 -460,210 -1469,842 -1922,1067l222 -39c480,-242 1377,-710 1792,-900 118,-53 108,24 225,-31 48,-22 82,-54 118,-88 48,-61 96,-122 143,-185zm1445 -873c-234,152 -444,178 -678,330 73,58 -65,175 -82,282 45,-26 93,-52 141,-77 38,-31 63,-57 29,-83 182,-118 349,-158 525,-245 30,-77 60,-154 65,-207zm-640 -474c-373,78 -645,308 -1185,321 -161,4 -263,-135 -481,15 -131,90 -324,228 -436,353 -75,84 -63,148 -160,243 -327,318 -757,679 -984,957 82,-31 157,-60 227,-87 244,-238 628,-494 899,-759 95,-92 83,-154 156,-236 109,-122 303,-156 431,-244 211,-146 258,-63 414,-67 448,-11 702,-248 992,-364l127 -132z" style="fill:#95e850"/>
  <path class="NecklaceTornShirtBlue-Mediumfil1" d="M13349 18871c-277,229 -967,753 -1160,652 -247,60 -410,138 -477,171 22,-127 203,-274 387,-425 175,-49 406,-58 634,-218 203,-142 461,-160 616,-180zm1178 3258c209,-147 658,-582 898,-748 7,75 -49,109 -19,182 147,-99 287,-237 421,-317 -42,89 -123,265 -164,356 163,46 282,69 284,184 -130,-13 -477,85 -607,71 -56,106 -113,211 -169,317 -27,-24 -28,-108 -56,-131 -187,8 -401,77 -588,86zm512 -1313c17,-50 351,-288 480,-272 97,46 328,-90 367,-119 -3,47 -86,288 -90,335 -114,-24 -560,-16 -757,56zm70 208c-205,101 -486,172 -744,289 -199,91 -379,234 -526,292 -125,49 -193,20 -243,47 -88,48 -558,215 -643,437 350,-88 701,-176 1051,-265 93,5 185,9 278,14 57,-80 115,-159 172,-239 95,3 190,5 284,7 124,-194 247,-388 371,-582zm-979 -582c-170,79 -233,90 -347,144 -120,56 -110,-23 -231,32 -460,210 -1469,842 -1922,1067 377,-66 754,-132 1131,-198 128,26 255,53 383,79 -6,-57 -74,-152 -80,-210 144,-43 276,-73 424,-48 194,-328 428,-577 642,-866zm1445 -873c-234,152 -444,178 -678,330 73,58 -65,175 -82,282 141,-80 318,-165 393,-215 52,1 190,2 243,3 9,-103 115,-298 124,-400zm-640 -474c-373,78 -645,308 -1185,321 -161,4 -263,-135 -481,15 -131,90 -324,228 -436,353 -75,84 -63,148 -160,243 -327,318 -757,679 -984,957 280,-106 467,-184 747,-290 119,7 374,-50 493,-44 62,-101 81,-166 143,-268 319,-114 639,-229 959,-344 301,-314 602,-629 904,-943z" style="fill:#a6f0bb"/>
  <path class="NecklaceTornShirtBlue-Mediumfil5" d="M16220 19111c23,-20 175,164 294,352 72,116 129,253 145,286 18,37 3,82 -34,100 -37,18 -82,3 -100,-34 -19,-38 -69,-180 -129,-303 -92,-191 -198,-380 -176,-401z" style="fill:#13a0ae"/>
  <path class="NecklaceTornShirtBlue-Mediumfil6" d="M17857 18910c-387,494 -1164,789 -1616,207 -137,-105 262,486 398,758 -15,-31 -31,-63 -47,-93 547,28 1028,-424 1265,-872z" style="fill:#4533b1"/>
  <path class="NecklaceTornShirtBlue-Mediumfil5" d="M11144 19111c-23,-20 -175,164 -294,352 -72,116 -129,253 -146,286 -18,37 -2,82 35,100 37,18 82,3 100,-34 18,-38 69,-180 128,-303 93,-191 199,-380 177,-401z" style="fill:#eae506"/>
  <path class="NecklaceTornShirtBlue-Mediumfil6" d="M9506 18910c388,494 1164,789 1617,207 136,-105 -262,486 -399,758 16,-31 32,-63 48,-93 -547,28 -1028,-424 -1266,-872z" style="fill:#69aa40"/>
 </g><g id="BraceletSteel-Medium">
 <animateTransform additive="sum" attributeName="transform" dur="10" repeatCount="indefinite" type="translate" values="0;0 200;0;0 200;0;0 200;0;0 200;0"/>
  <metadata id="CorelCorpID_19Corel-Layer"/>
  <path class="BraceletSteel-Mediumfil57new BraceletSteel-Mediumstr4new" d="M8743 19983c-151,-67 -236,-210 -167,-360 70,-150 216,-158 370,-99 394,150 1163,722 1389,1066 91,139 106,280 -23,383 -130,103 -302,47 -400,-86 -244,-332 -771,-729 -1169,-904z" style="fill:#3cc049"/>
  <path class="BraceletSteel-Mediumfil58new BraceletSteel-Mediumstr4new" d="M18621 19983c151,-67 236,-210 167,-360 -70,-150 -216,-158 -371,-99 -393,150 -1162,722 -1389,1066 -90,139 -105,280 24,383 130,103 302,47 400,-86 244,-332 771,-729 1169,-904z" style="fill:#f750da"/>
 </g><g id="Head-Rabbit5">
   <animateTransform additive="sum" attributeName="transform" dur="10" repeatCount="indefinite" type="translate" values="0;0 200;0;0 200;0;0 200;0;0 200;0"/>
  <metadata id="CorelCorpID_65Corel-Layer"/>
  <path class="Head-Rabbit5fil178" d="M13681.94 7484.8c-445.34,3.91 -928,85.23 -1427.99,229.61 -1103.62,371.14 -2203.53,1165.08 -3042.09,2204.93 -1205.15,1494.44 -873.15,1203.93 -1580.65,2915.57 -539.03,1304.04 -1168.62,733.51 -1297.48,754.47 267.46,916.27 831.17,972.32 1178.54,1031.08 -221.07,307.54 -745.98,366.01 -995.04,105.15 118.19,944.25 1140.39,887.04 1303.34,879.04 -137.35,278.35 -452.51,391.43 -657.93,352.06 1066.97,1055.11 3854.35,1785.09 4967.72,1886.01 325.37,46.56 1551.56,58.73 1551.56,58.73l0.02 -7260.89 0.02 7260.89c0,0 1226.19,-12.17 1551.56,-58.73 1113.37,-100.92 3900.75,-830.9 4967.72,-1886.01 -205.42,39.37 -520.58,-73.71 -657.93,-352.06 162.95,8 1185.15,65.21 1303.34,-879.04 -249.06,260.86 -773.97,202.39 -995.04,-105.15 347.37,-58.76 911.08,-114.81 1178.54,-1031.08 -128.86,-20.96 -758.45,549.57 -1297.48,-754.47 -707.5,-1711.64 -375.5,-1421.13 -1580.65,-2915.57 -838.56,-1039.85 -1938.47,-1833.79 -3042.09,-2204.93 -499.99,-144.38 -982.65,-225.7 -1427.99,-229.61z" style="fill:#bf2f97"/>
  <path class="Head-Rabbit5fil179" d="M13681.94 7484.8c-445.34,3.92 -928,85.52 -1427.99,230.39 -1103.62,372.39 -2203.53,1169.02 -3042.09,2212.39 -1205.15,1499.5 -873.15,1208 -1580.65,2925.43 -539.03,1308.46 -1168.62,736 -1297.48,757.03 267.46,919.37 831.17,975.61 1178.54,1034.57 -221.07,308.58 -745.98,367.25 -995.04,105.5 118.19,947.45 1140.39,890.04 1303.34,882.02 -137.35,279.29 -452.51,392.75 -657.93,353.25 1066.97,1058.68 3854.35,1791.13 4967.72,1892.39 325.37,46.72 1551.56,58.93 1551.56,58.93l0.02 -7285.46 0.02 7285.46c0,0 1226.19,-12.21 1551.56,-58.93 1113.37,-101.26 3900.75,-833.71 4967.72,-1892.39 -205.42,39.5 -520.58,-73.96 -657.93,-353.25 162.95,8.02 1185.15,65.43 1303.34,-882.02 -249.06,261.75 -773.97,203.08 -995.04,-105.5 347.37,-58.96 911.08,-115.2 1178.54,-1034.57 -128.86,-21.03 -758.45,551.43 -1297.48,-757.03 -707.5,-1717.43 -375.5,-1425.93 -1580.65,-2925.43 -838.56,-1043.37 -1938.47,-1840 -3042.09,-2212.39 -499.99,-144.87 -982.65,-226.47 -1427.99,-230.39z" style="fill:#d3284b"/>
  <path class="Head-Rabbit5fil28" d="M13681.94 7559.8c-408.05,0 -767.02,56.44 -1101.68,148.75 -949.75,261.97 -2036.74,899.1 -2715.65,1499.17 604.3,-730.18 1714.22,-1378.1 2675.81,-1643.31 347.84,-95.94 719.98,-154.61 1141.52,-154.61 421.54,0 793.68,58.67 1141.52,154.61 961.59,265.21 2071.51,913.13 2675.81,1643.31 -678.91,-600.07 -1765.9,-1237.2 -2715.65,-1499.17 -334.66,-92.31 -693.63,-148.75 -1101.68,-148.75z" style="fill:#1fa99b"/>
  <path class="Head-Rabbit5fil180" d="M9291.86 10605.42c-1450.23,403.45 -1732.05,3221.38 -524.52,4269.17 911.6,791.01 2065.09,1058.89 3209.47,537.29 19.54,210.62 144.88,891.49 948.89,959.77 333.14,16.99 652.05,-110.72 756.3,-227.75 -0.01,-169.81 -0.09,-317.19 -0.06,-555.53 0,0 -799.05,-570.93 -896.71,-779.42 -97.66,-208.49 -188.25,-1322.69 -188.25,-1322.69l-0.35 -0.67c-133.69,-1493.09 -990.07,-3297.04 -3304.77,-2880.17z" style="fill:#c4ac17"/>
  <path class="Head-Rabbit5fil181" d="M18072.14 10605.42c1450.23,403.45 1732.05,3221.38 524.52,4269.17 -911.6,791.01 -2065.09,1058.89 -3209.47,537.29 -19.54,210.62 -144.88,891.49 -948.89,959.77 -333.14,16.99 -652.05,-110.72 -756.3,-227.75 0.01,-169.81 0.09,-317.19 0.06,-555.53 0,0 799.05,-570.93 896.71,-779.42 97.66,-208.49 188.25,-1322.69 188.25,-1322.69l0.35 -0.67c133.69,-1493.09 990.07,-3297.04 3304.77,-2880.17z" style="fill:#47839c"/>
  <path class="Head-Rabbit5fil28" d="M12641.48 17908.84c-1104.4,67.06 -3251.79,-652.3 -3491.78,-743.41 -816.27,-309.89 -1581.75,-702.45 -2039.79,-1155.4 -29.44,-29.12 -29.71,-76.61 -0.59,-106.05 19.22,-19.43 46.45,-26.15 71.2,-20.1 94.6,16.95 216.85,-3.9 329.4,-64.12 62.48,-33.43 121.48,-79 170.54,-136.96 -348.68,-2.89 -1130.92,-95.53 -1237.64,-948.11 -5.01,-41.09 24.24,-78.48 65.33,-83.49 25.99,-3.17 50.49,7.38 66.27,25.95 16.55,16.96 34.36,32.22 53.17,45.73 104.34,75.01 244.42,103.4 383.98,89.55 127.95,-12.7 254.19,-60.92 351.31,-141.33 -363.23,-65.27 -853.22,-212.3 -1100.93,-1060.92 -11.48,-39.64 11.34,-81.1 50.98,-92.58 2.93,-0.85 5.86,-1.5 8.8,-1.98 42.88,-7.05 90.72,11.47 154.13,36 220.9,85.47 692.92,268.08 1085.62,-743.66 345.91,-891.2 541.8,-1393.48 753.06,-1790.4 85.38,-160.43 491.66,-797.05 961.07,-1176.2 -438.07,592.06 -694.8,993.93 -829.23,1246.52 -206.73,388.41 -401.47,887.78 -745.44,1773.98 -432.33,1113.85 -977.05,944.65 -1252.23,839.53 255.76,710.03 720.07,786.62 1032.37,838.06l43.49 7.18 -0.02 0.12c10.98,1.82 21.73,6.13 31.37,13.07 33.49,24.1 41.09,70.8 16.99,104.29 -23.55,32.76 -49.9,62.84 -78.48,90.12 -124.71,119.07 -295.7,189.89 -468.22,207.02 -137.59,13.66 -277.2,-6.83 -396.44,-64.15 208.9,681.08 1032.47,640.47 1183.72,633.02l1.38 -0.07c12.95,-1 26.32,1.35 38.81,7.51 37.05,18.28 52.26,63.15 33.98,100.2 -70.83,143.55 -183.81,247.7 -307.42,313.84 -73.69,39.43 -151.6,65.36 -226.98,78.12 450.31,384.47 1128.58,722.09 1849.18,995.67 334.11,126.85 2075.07,702.07 3439.04,883.45z" style="fill:#c6741a"/>
  <path class="Head-Rabbit5fil28" d="M14722.4 17908.84c1104.4,67.06 3251.79,-652.3 3491.78,-743.41 816.27,-309.89 1581.75,-702.45 2039.79,-1155.4 29.44,-29.12 29.71,-76.61 0.59,-106.05 -19.22,-19.43 -46.45,-26.15 -71.2,-20.1 -94.6,16.95 -216.85,-3.9 -329.4,-64.12 -62.48,-33.43 -121.48,-79 -170.54,-136.96 348.68,-2.89 1130.92,-95.53 1237.64,-948.11 5.01,-41.09 -24.24,-78.48 -65.33,-83.49 -25.99,-3.17 -50.49,7.38 -66.27,25.95 -16.55,16.96 -34.36,32.22 -53.17,45.73 -104.34,75.01 -244.42,103.4 -383.98,89.55 -127.95,-12.7 -254.19,-60.92 -351.31,-141.33 363.23,-65.27 853.22,-212.3 1100.93,-1060.92 11.48,-39.64 -11.34,-81.1 -50.98,-92.58 -2.93,-0.85 -5.86,-1.5 -8.8,-1.98 -42.88,-7.05 -90.72,11.47 -154.13,36 -220.9,85.47 -692.92,268.08 -1085.62,-743.66 -345.91,-891.2 -541.8,-1393.48 -753.06,-1790.4 -85.38,-160.43 -491.66,-797.05 -961.07,-1176.2 438.07,592.06 694.8,993.93 829.23,1246.52 206.73,388.41 401.47,887.78 745.44,1773.98 432.33,1113.85 977.05,944.65 1252.23,839.53 -255.76,710.03 -720.07,786.62 -1032.37,838.06l-43.49 7.18 0.02 0.12c-10.98,1.82 -21.73,6.13 -31.37,13.07 -33.49,24.1 -41.09,70.8 -16.99,104.29 23.55,32.76 49.9,62.84 78.48,90.12 124.71,119.07 295.7,189.89 468.22,207.02 137.59,13.66 277.2,-6.83 396.44,-64.15 -208.9,681.08 -1032.47,640.47 -1183.72,633.02l-1.38 -0.07c-12.95,-1 -26.32,1.35 -38.81,7.51 -37.05,18.28 -52.26,63.15 -33.98,100.2 70.83,143.55 183.81,247.7 307.42,313.84 73.69,39.43 151.6,65.36 226.98,78.12 -450.31,384.47 -1128.58,722.09 -1849.18,995.67 -334.11,126.85 -2075.07,702.07 -3439.04,883.45z" style="fill:#9f8e6e"/>
  <path class="Head-Rabbit5fil10" d="M8206.38 11490.52c-486.96,676.83 -523.66,2525.87 -1861.7,2139.95 47.01,311.74 562.17,1054.73 1168.27,993.38 0.66,0 4.3,29.17 4.7,31.93 -65.75,88.37 -429.15,319.32 -983.1,173.31 457.83,1113.85 1332.23,718.49 1296.15,800.71 -114.23,164.65 -385.28,287.28 -627.06,377.75 687.43,650.08 2139.91,1241.68 3593.65,1593.14 582.7,155.32 1207.53,256.32 1844.19,308.15 -3878.4,-920.42 -5358.32,-2312.3 -4435.1,-6418.32zm-515.39 3837.87c-266.72,-10.79 -590.85,-92.22 -912.48,-375.9 321.06,100.48 584.76,66.97 789.88,-23.57 31.27,138.46 72.42,271.54 122.6,399.47zm-209.66 -1035.91c-262.22,-48.98 -568.58,-182.36 -843.4,-536.33 368.04,55.41 651.14,-6.68 859.15,-131.55 -21.94,224.93 -27.6,448.1 -15.75,667.88z" style="fill:#67644c"/>
 </g><g id="Mouth-Rabbit1">
   <animateTransform additive="sum" attributeName="transform" dur="10" repeatCount="indefinite" type="translate" values="0;0 200;0;0 200;0;0 200;0;0 200;0"/>
  <metadata id="CorelCorpID_69Corel-Layer"/>
  <path class="Mouth-Rabbit1fil0 Mouth-Rabbit1str0" d="M13681.94 15480.93c0,547.4 -541.58,1187.08 -1235.1,782.58 -113.18,-66.02 -180.9,-151.98 -248.67,-256.36" style="fill:#248b32"/>
  <path class="Mouth-Rabbit1fil0 Mouth-Rabbit1str0" d="M13681.94 15480.93c0,547.4 541.58,1187.08 1235.1,782.58 113.18,-66.02 180.9,-151.98 248.67,-256.36" style="fill:#fa8bc4"/>
  <path class="Mouth-Rabbit1fil188 Mouth-Rabbit1str0" d="M12446.84 16263.51c217.47,113.49 515.69,297.6 649.07,430.38 180.06,179.25 386.25,224.34 586.05,221.97 199.8,2.37 405.99,-42.72 586.05,-221.97 133.38,-132.78 431.6,-316.89 649.07,-430.38 -485.36,288.36 -1029.54,12.67 -1235.1,-475.59l-0.02 0.06 -0.02 -0.06c-205.56,488.26 -749.74,763.95 -1235.1,475.59z" style="fill:#7bd52c"/>
  <path class="Mouth-Rabbit1fil189" d="M14197.18 16768.27c172.16,-44.01 359.02,-295.38 346.74,-354.71 -12.28,-59.33 -390.58,36 -515.66,-193.47 -121.72,-223.3 -535.46,-254.42 -657.18,-31.12 -125.08,229.46 -490.43,166.81 -502.71,226.15 -12.28,59.34 -8.6,174.27 261.29,331.98 206.27,-165.29 861.26,-144.11 1067.52,21.17z" style="fill:#4d2a61"/>
  <path class="Mouth-Rabbit1fil190 Mouth-Rabbit1str0" d="M13681.94 15588.37l0 989.84c0,0 287.09,30.88 450.6,-74.35 163.51,-105.23 97.47,-162.38 97.47,-162.38 0,0 -442.36,-85.67 -548.07,-753.11z" style="fill:#81107a"/>
  <path class="Mouth-Rabbit1fil191 Mouth-Rabbit1str0" d="M13681.94 15588.37l0 989.84c0,0 -287.09,30.88 -450.6,-74.35 -163.51,-105.23 -93.71,-163.9 -93.71,-163.9 0,0 438.6,-84.15 544.31,-751.59z" style="fill:#e14629"/>
 </g><g id="EyesClosed-Rabbit0">
   <animateTransform additive="sum" attributeName="transform" dur="10" repeatCount="indefinite" type="translate" values="0;0 200;0;0 200;0;0 200;0;0 200;0"/>
  <metadata id="CorelCorpID_78Corel-Layer"/>
  <g id="_2131646407184">
   <path class="EyesClosed-Rabbit0fil207" d="M16844.41 10145.48c12.91,1.17 -1068.9,255.28 -1567.51,940.43 -485.36,666.94 18.72,-1873.51 592.66,-1735.67 420.39,100.96 1125.66,559.75 974.85,795.24z"/>
   <path class="EyesClosed-Rabbit0fil10" d="M16844.41 10145.48c12.91,1.17 -1068.9,255.28 -1567.51,940.43 -485.36,666.94 18.72,-1873.51 592.66,-1735.67 420.39,100.96 1125.66,559.75 974.85,795.24z"/>
  </g>
  <g id="_2131646405488">
   <path class="EyesClosed-Rabbit0fil207" d="M10519.47 10145.48c-12.91,1.17 1068.9,255.28 1567.51,940.43 485.36,666.94 -18.72,-1873.51 -592.66,-1735.67 -420.39,100.96 -1125.66,559.75 -974.85,795.24z"/>
   <path class="EyesClosed-Rabbit0fil10" d="M10519.47 10145.48c-12.91,1.17 1068.9,255.28 1567.51,940.43 485.36,666.94 -18.72,-1873.51 -592.66,-1735.67 -420.39,100.96 -1125.66,559.75 -974.85,795.24z"/>
  </g>
  <path class="EyesClosed-Rabbit0fil63" d="M15422.9 14726.25c8.31,-239.26 439.86,-111.25 626.08,-94.23 1582.76,144.78 2555.59,-703.87 2726.37,-2318.75 106.94,2146.15 -1233.31,2859.8 -3159.56,2403.12 -79.75,-18.74 -170.28,-38.07 -192.89,9.86z"/>
  <path class="EyesClosed-Rabbit0fil28" d="M15385.27 14763.4c17.22,-408.34 1283.5,43.55 2339.73,-795.65 560.83,-445.59 953.85,-1055.37 1046.92,-1935.37 97.46,1955.86 -1151.18,3058.81 -3019.12,2663.72 -277.27,-58.63 -263.63,2.98 -367.53,67.3z"/>
  <g id="_2131646406704">
   <path class="EyesClosed-Rabbit0fil63" d="M11940.98 14726.25c-8.31,-239.26 -439.86,-111.25 -626.08,-94.23 -1582.76,144.78 -2555.59,-703.87 -2726.37,-2318.75 -106.94,2146.15 1233.31,2859.8 3159.56,2403.12 79.75,-18.74 170.28,-38.07 192.89,9.86z"/>
   <path class="EyesClosed-Rabbit0fil28" d="M11978.61 14763.4c-17.22,-408.34 -1283.5,43.55 -2339.73,-795.65 -560.83,-445.59 -953.85,-1055.37 -1046.92,-1935.37 -97.46,1955.86 1151.18,3058.81 3019.12,2663.72 277.27,-58.63 263.63,2.98 367.53,67.3z"/>
  </g>
 </g><g id="Eyes-Rabbit0">
   <animate attributeName="opacity" dur="10" repeatCount="indefinite" values="0;1;1;1;1;1;1;1;1;1;1;1;1;1;1;1;1;1;1;1;1;1;1;1;1;1;1;1;1;1;1;1;1;1;1;1;1;1;1;1;1;1;1;1;1;1;1;1;1;1;1;1;1;1;1;1;1;1;1;1;1;1;1;1;1;1;1;1;1;1;1;1;1;1;1;1;1;1;1;1;1;1;1;1;0;0"/>
   <animateTransform additive="sum" attributeName="transform" dur="10" repeatCount="indefinite" type="translate" values="0;0 200;0;0 200;0;0 200;0;0 200;0"/>
  <metadata id="CorelCorpID_79Corel-Layer"/>
  <g id="_2131646402128">
   <g>
    <path class="Eyes-Rabbit0fil208" d="M18383.1 11191.16c-357.46,-238.31 -3284.81,-696.46 -2978.83,3556.25 1387.53,962.27 4582.81,-522.43 2978.83,-3556.25z"/>
    <path class="Eyes-Rabbit0fil209" d="M16332.52 14618.7c-343.68,0 -666.58,-88.8 -947.18,-244.54 -75.17,-2584.59 1144.1,-3237.62 2059.31,-3317.87 509.13,352.87 842.65,941.26 842.65,1607.62 0,1079.59 -875.2,1954.79 -1954.78,1954.79z"/>
    <path class="Eyes-Rabbit0fil210" d="M16332.52 14289.16c-367.41,0 -700.15,-185.84 -941.63,-486.52 89.01,-1733.41 847.5,-2421.75 1583.04,-2653.67 413.69,284.23 694.18,834.81 694.18,1467.47 0,923.8 -597.99,1672.72 -1335.59,1672.72z"/>
    <path class="Eyes-Rabbit0fil0 Eyes-Rabbit0str0" d="M18383.1 11191.16c-357.46,-238.31 -3284.82,-696.46 -2978.83,3556.26 1387.53,962.26 4582.81,-522.44 2978.83,-3556.26z"/>
    <path class="Eyes-Rabbit0fil189" d="M18383.1 11191.16c-357.46,-238.31 -3284.82,-696.46 -2978.83,3556.26 0,0 32.36,21.78 32.36,21.78 -100.29,-1811.77 1104.37,-3603.15 3206.7,-2988.03 -55.36,-137.45 -183.79,-445.43 -260.23,-590.01z"/>
   </g>
   <g>
    <circle class="Eyes-Rabbit0fil211" r="234.72" transform="matrix(-0.997236 -0.0846451 -0.116043 0.927445 17842.2 14032.5)"/>
    <circle class="Eyes-Rabbit0fil211" r="234.72" transform="matrix(-0.499889 0.0111977 0.0161512 0.441882 18262.2 13522.2)"/>
    <path class="Eyes-Rabbit0fil211" d="M16445.3 11983.72c502.89,7.53 584.41,1146.27 -147.28,1146.21 -753.8,-0.06 -397.67,-1154.37 147.28,-1146.21z"/>
   </g>
  </g>
  <g id="_2131646400368">
   <g>
    <path class="Eyes-Rabbit0fil212" d="M8980.78 11191.16c357.46,-238.31 3284.81,-696.46 2978.83,3556.25 -1387.53,962.27 -4582.81,-522.43 -2978.83,-3556.25z"/>
    <path class="Eyes-Rabbit0fil213" d="M11031.36 14618.7c343.68,0 666.58,-88.8 947.18,-244.54 75.17,-2584.59 -1144.1,-3237.62 -2059.31,-3317.87 -509.13,352.87 -842.65,941.26 -842.65,1607.62 0,1079.59 875.2,1954.79 1954.78,1954.79z"/>
    <path class="Eyes-Rabbit0fil214" d="M11031.36 14289.16c367.41,0 700.15,-185.84 941.63,-486.52 -89.01,-1733.41 -847.5,-2421.75 -1583.04,-2653.67 -413.69,284.23 -694.18,834.81 -694.18,1467.47 0,923.8 597.99,1672.72 1335.59,1672.72z"/>
    <path class="Eyes-Rabbit0fil0 Eyes-Rabbit0str0" d="M8980.78 11191.16c357.46,-238.31 3284.82,-696.46 2978.83,3556.26 -1387.53,962.26 -4582.81,-522.44 -2978.83,-3556.26z"/>
    <path class="Eyes-Rabbit0fil189" d="M8980.78 11191.16c357.46,-238.31 3284.82,-696.46 2978.83,3556.26 0,0 -32.36,21.78 -32.36,21.78 100.29,-1811.77 -1104.37,-3603.15 -3206.7,-2988.03 55.36,-137.45 183.79,-445.43 260.23,-590.01z"/>
   </g>
   <g>
    <circle class="Eyes-Rabbit0fil211" r="234.72" transform="matrix(0.997236 -0.0846451 0.116043 0.927445 9521.69 14032.5)"/>
    <circle class="Eyes-Rabbit0fil211" r="234.72" transform="matrix(0.499889 0.0111977 -0.0161512 0.441882 9101.67 13522.2)"/>
    <path class="Eyes-Rabbit0fil211" d="M10918.58 11983.72c-502.89,7.53 -584.41,1146.27 147.28,1146.21 753.8,-0.06 397.67,-1154.37 -147.28,-1146.21z"/>
   </g>
  </g>
 </g><g id="Moustache-Rabbit0">
   <animateTransform additive="sum" attributeName="transform" dur="10" repeatCount="indefinite" type="translate" values="0;0 200;0;0 200;0;0 200;0;0 200;0"/>
  <metadata id="CorelCorpID_98Corel-Layer"/>
  <rect class="Moustache-Rabbit0fil0" height="1458.79" width="1352.04" x="13005.92" y="11962.24"/>
  <rect class="Moustache-Rabbit0fil0" height="1458.79" width="1352.04" x="13005.92" y="11962.24"/>
 </g><g id="Nose-Rabbit0">
   <animateTransform additive="sum" attributeName="transform" dur="10" repeatCount="indefinite" type="translate" values="0;0 200;0;0 200;0;0 200;0;0 200;0"/>
  <metadata id="CorelCorpID_107Corel-Layer"/>
  <path class="Nose-Rabbit0fil320 Nose-Rabbit0str0" d="M13681.94 15552.26c0,0 -562.44,-234.12 -896.71,-743.31 389.83,185.2 450.19,134.81 896.71,339.9 446.52,-205.09 506.88,-154.7 896.71,-339.9 -334.27,509.19 -896.71,743.31 -896.71,743.31z" style="fill:#6eb70b"/>
 </g><g id="HatG-Medium">
 <animateTransform additive="sum" attributeName="transform" dur="10" repeatCount="indefinite" type="translate" values="0;0 200;0;0 200;0;0 200;0;0 200;0"/>
  <metadata id="CorelCorpID_66Corel-Layer"/>
  <path class="HatG-Mediumfil14new" d="M7531 13089c2101,487 3675,-1155 5913,-1187 2169,-31 4070,1356 6337,650 -719,-580 -1088,-1273 -1807,-1853 -1486,-133 -2972,-266 -4457,-399 -1613,345 -3225,689 -4838,1033 -465,483 -683,1272 -1148,1756z" style="fill:#1141cc"/>
  <path class="HatG-Mediumfil635new" d="M7709 11316c-106,-2279 -184,-3213 638,-4380 673,-956 4533,-2691 5040,-2243 561,603 1046,3598 246,5547 -1977,83 -3951,427 -5924,1076z" style="fill:#765798"/>
  <path class="HatG-Mediumfil636new" d="M7709 11316c-106,-2279 -184,-3213 638,-4380 162,-230 509,-506 950,-785 -1513,1132 -1360,3016 -1030,4988 -95,29 -463,146 -558,177z" style="fill:#d2b6e9"/>
  <path class="HatG-Mediumfil637new" d="M13414 4670c126,1861 93,3713 219,5570 2058,-86 4120,111 6188,544 -12,-2183 -460,-3199 -1240,-4202 -324,-418 -1289,-824 -2212,-1251 -1264,-584 -2675,-852 -2955,-661z" style="fill:#372b7e"/>
  <path class="HatG-Mediumfil638new" d="M18334 6346c102,79 186,157 247,236 780,1003 1228,2019 1240,4202 -73,-15 -421,-108 -494,-123 197,-1798 -506,-3916 -1369,-4522 -13,-8 386,219 376,207z" style="fill:#69dccc"/>
  <path class="HatG-Mediumfil33new HatG-Mediumstr0new" d="M7709 11316c-106,-2279 -184,-3213 638,-4380 673,-956 4533,-2691 5040,-2243 200,-234 1671,32 2982,638 923,427 1888,833 2212,1251 780,1003 1228,2019 1240,4202 -4056,-849 -8087,-791 -12112,532z" style="fill:#1b362d"/>
  <path class="HatG-Mediumfil639new HatG-Mediumstr19new" d="M13621 10126c-98,-1837 -80,-3667 -231,-5459" style="fill:#b5e030"/>
  <path class="HatG-Mediumfil640new" d="M7531 13089c-370,0 -1426,-339 -1009,-1291 518,-1181 5239,-1804 7140,-1941 2666,-192 7392,272 7422,1763 10,530 -464,966 -1303,932 -1065,-1618 -3963,-1937 -6182,-1916 -2113,20 -5501,1171 -6068,2453z" style="fill:#7ff0bb"/>
  <path class="HatG-Mediumfil639new HatG-Mediumstr20new" d="M13209 10079c13,-1387 -159,-3697 -178,-4811 -6,-362 10,-592 65,-630" style="fill:#2354b1"/>
  <path class="HatG-Mediumfil639new HatG-Mediumstr20new" d="M14076 10045c-134,-1380 -165,-3696 -243,-4807 -26,-362 -62,-590 -120,-623" style="fill:#ac8211"/>
  <path class="HatG-Mediumfil639new HatG-Mediumstr20new" d="M19199 10436c-4,-2389 -724,-4035 -1871,-4670" style="fill:#4c310d"/>
  <path class="HatG-Mediumfil639new HatG-Mediumstr20new" d="M8439 10844c-402,-2263 -278,-3874 1357,-5006" style="fill:#c72331"/>
  <path class="HatG-Mediumfil641new" d="M6439 12344c-29,-154 -9,-334 83,-546 518,-1181 5239,-1804 7140,-1941 2666,-192 7392,272 7422,1763 1,55 -3,108 -13,161 -260,-1401 -4812,-1836 -7409,-1650 -1901,137 -6622,760 -7140,1942 -42,97 -69,187 -83,271z" style="fill:#5c1c28"/>
  <path class="HatG-Mediumfil33new HatG-Mediumstr6new" d="M7531 13089c-370,0 -1426,-339 -1009,-1291 518,-1181 5239,-1804 7140,-1941 2666,-192 7392,272 7422,1763 10,530 -464,966 -1303,932 -1065,-1618 -3963,-1937 -6182,-1916 -2113,20 -5501,1171 -6068,2453z" style="fill:#9eb327"/>
 </g><g id="NecklaceShipWheel">
  <metadata id="CorelCorpID_57Corel-Layer"/>
  <path class="NecklaceShipWheelfil371new NecklaceShipWheelstr0new" d="M13682 19054c-550,0 -1250,379 -1347,1130l-729 5632 2076 0 2076 0 -729 -5632c-97,-751 -798,-1130 -1347,-1130z" style="fill:#6c3c30"/>
  <path class="NecklaceShipWheelfil14new" d="M14042 19617c639,268 940,1002 672,1640 -267,639 -1001,940 -1640,672 -638,-267 -939,-1001 -672,-1640 268,-638 1002,-939 1640,-672z" style="fill:#7f3050"/>
  <path class="NecklaceShipWheelfil14new" d="M12132 21754l-526 4062 2076 0 2076 0 -66 -509c-1400,227 -3532,285 -3560,-3553z" style="fill:#928b41"/>
  <g>
   <path class="NecklaceShipWheelfil372new" d="M11448 17890c63,-48 127,-97 190,-145 63,-48 127,-96 190,-145 -93,-477 -544,-1362 -856,-1124l-380 289c-312,238 421,908 856,1125z" style="fill:#4185c0"/>
   <path class="NecklaceShipWheelfil14new" d="M11448 17890c63,-48 127,-97 190,-145 59,-45 118,-90 177,-134 -429,68 -910,-176 -1277,-585 107,298 589,704 910,864z" style="fill:#f420a4"/>
   <path class="NecklaceShipWheelfil373new" d="M11755 17656l73 -56c-93,-477 -544,-1362 -856,-1124l-380 289c-84,64 -92,160 -51,269 8,-8 16,-16 26,-23l381 -290c274,-209 655,449 807,935z" style="fill:#1ac6a4"/>
   <path class="NecklaceShipWheelfil33new NecklaceShipWheelstr0new" d="M11448 17890c63,-48 127,-97 190,-145 63,-48 127,-96 190,-145 -93,-477 -544,-1362 -856,-1124l-380 289c-312,238 421,908 856,1125z" style="fill:#c13292"/>
   <polygon class="NecklaceShipWheelfil374 NecklaceShipWheelstr0new" points="11326,17924 11894,17492 12173,17859 11605,18291 "/>
   <path class="NecklaceShipWheelfil375new" d="M12166 18834c64,-48 127,-96 191,-145 63,-48 127,-96 190,-145 334,267 579,601 753,989 -64,48 -127,97 -191,145 -63,48 -127,97 -190,145 -328,-271 -585,-596 -753,-989z" style="fill:#12379f"/>
   <path class="NecklaceShipWheelfil14new" d="M13147 19410l-163 124 -153 117 -58 10c-219,-184 -368,-500 -517,-738 302,363 496,575 891,487z" style="fill:#6d8ac7"/>
   <path class="NecklaceShipWheelfil373new" d="M12415 18645l132 -101c334,267 579,601 753,989l-155 82c-170,-379 -408,-707 -730,-970z" style="fill:#8df13a"/>
   <path class="NecklaceShipWheelfil33new NecklaceShipWheelstr0new" d="M12166 18834c64,-48 127,-96 191,-145 63,-48 127,-96 190,-145 334,267 579,601 753,989 -64,48 -127,97 -191,145 -63,48 -127,97 -190,145 -328,-271 -585,-596 -753,-989z" style="fill:#efd4f2"/>
   <polygon class="NecklaceShipWheelfil376new NecklaceShipWheelstr0new" points="12161,19022 12729,18589 12450,18222 11882,18654 "/>
  </g>
  <g>
   <path class="NecklaceShipWheelfil377new" d="M10350 21103c-10,-79 -20,-158 -30,-237 -10,-79 -20,-158 -30,-237 -460,-158 -1452,-210 -1402,179l60 475c50,388 997,89 1402,-180z" style="fill:#7f8e8f"/>
   <path class="NecklaceShipWheelfil14new" d="M10350 21103c-10,-79 -20,-158 -30,-237 -9,-73 -19,-147 -28,-220 -156,405 -607,700 -1144,813 311,57 904,-158 1202,-356z" style="fill:#3fcc91"/>
   <path class="NecklaceShipWheelfil373new" d="M10301 20720l-11 -91c-460,-158 -1452,-210 -1402,179l60 475c14,104 92,159 208,178 -4,-11 -6,-23 -8,-35l-60 -474c-44,-342 716,-343 1213,-232z" style="fill:#f32a8b"/>
   <path class="NecklaceShipWheelfil33new NecklaceShipWheelstr0new" d="M10350 21103c-10,-79 -20,-158 -30,-237 -10,-79 -20,-158 -30,-237 -460,-158 -1452,-210 -1402,179l60 475c50,388 997,89 1402,-180z" style="fill:#a32604"/>
   <polygon class="NecklaceShipWheelfil378new NecklaceShipWheelstr0new" points="10319,21226 10228,20518 10686,20460 10776,21168 "/>
   <path class="NecklaceShipWheelfil379new" d="M11527 20953c-10,-79 -20,-158 -30,-237 -10,-79 -20,-158 -30,-237 397,-156 809,-201 1232,-158 10,79 21,158 31,237 10,80 20,159 30,238 -399,148 -809,208 -1233,157z" style="fill:#02882e"/>
   <path class="NecklaceShipWheelfil14new" d="M12516 20392l26 203 25 191 -20 55c-269,98 -617,69 -898,79 466,-80 746,-142 867,-528z" style="fill:#f894e7"/>
   <path class="NecklaceShipWheelfil373new" d="M11488 20643l-21 -164c397,-156 809,-201 1232,-158l-6 175c-413,-42 -816,0 -1205,147z" style="fill:#16ffdf"/>
   <path class="NecklaceShipWheelfil33new NecklaceShipWheelstr0new" d="M11527 20953c-10,-79 -20,-158 -30,-237 -10,-79 -20,-158 -30,-237 397,-156 809,-201 1232,-158 10,79 21,158 31,237 10,80 20,159 30,238 -399,148 -809,208 -1233,157z" style="fill:#7c7e7a"/>
   <polygon class="NecklaceShipWheelfil380new NecklaceShipWheelstr0new" points="11687,21051 11596,20343 11139,20402 11229,21110 "/>
  </g>
  <g>
   <path class="NecklaceShipWheelfil381new" d="M12585 23660c-74,-30 -147,-61 -221,-92 -74,-31 -147,-62 -221,-92 -366,319 -907,1152 -546,1303l442 185c361,151 575,-818 546,-1304z" style="fill:#6257ae"/>
   <path class="NecklaceShipWheelfil14new" d="M12585 23660c-74,-30 -147,-61 -221,-92 -68,-29 -137,-57 -205,-86 273,338 303,876 133,1398 204,-241 315,-862 293,-1220z" style="fill:#90dc26"/>
   <path class="NecklaceShipWheelfil373new" d="M12228 23511l-85 -35c-366,319 -907,1152 -546,1303l442 185c97,41 184,0 258,-90 -11,-3 -22,-6 -34,-11l-441 -185c-317,-133 61,-792 406,-1167z" style="fill:#14955b"/>
   <path class="NecklaceShipWheelfil33new NecklaceShipWheelstr0new" d="M12585 23660c-74,-30 -147,-61 -221,-92 -74,-31 -147,-62 -221,-92 -366,319 -907,1152 -546,1303l442 185c361,151 575,-818 546,-1304z" style="fill:#971fc7"/>
   <polygon class="NecklaceShipWheelfil382new NecklaceShipWheelstr0new" points="12675,23749 12017,23473 12195,23048 12853,23324 "/>
   <path class="NecklaceShipWheelfil383new" d="M13043 22566c-74,-31 -147,-62 -221,-92 -73,-31 -147,-62 -220,-93 63,-422 231,-801 480,-1146 73,31 147,62 220,92 74,31 147,62 221,93 -71,419 -224,804 -480,1146z" style="fill:#ab56db"/>
   <path class="NecklaceShipWheelfil14new" d="M13052 21429l188 79 178 74 38 45c-50,282 -249,569 -381,817 163,-444 250,-717 -23,-1015z" style="fill:#25d643"/>
   <path class="NecklaceShipWheelfil373new" d="M12755 22445l-153 -64c64,-422 231,-801 480,-1146l148 93c-243,337 -408,707 -475,1117z" style="fill:#b3fb7f"/>
   <path class="NecklaceShipWheelfil33new NecklaceShipWheelstr0new" d="M13043 22566c-74,-31 -147,-62 -221,-92 -73,-31 -147,-62 -220,-93 63,-422 231,-801 480,-1146 73,31 147,62 220,92 74,31 147,62 221,93 -71,419 -224,804 -480,1146z" style="fill:#77af89"/>
   <polygon class="NecklaceShipWheelfil384new NecklaceShipWheelstr0new" points="13208,22477 12549,22201 12371,22627 13030,22902 "/>
  </g>
  <g>
   <path class="NecklaceShipWheelfil385new" d="M15916 23004c-63,48 -127,97 -190,145 -64,48 -127,96 -191,145 94,477 545,1362 857,1124l380 -289c312,-238 -421,-908 -856,-1125z" style="fill:#6f2ee2"/>
   <path class="NecklaceShipWheelfil14new" d="M15916 23004c-63,48 -127,97 -190,145 -59,45 -118,90 -177,134 429,-68 910,176 1277,585 -107,-298 -589,-704 -910,-864z" style="fill:#123740"/>
   <path class="NecklaceShipWheelfil373new" d="M15609 23238l-74 56c94,477 545,1362 857,1124l380 -289c84,-64 92,-160 51,-269 -8,8 -16,16 -26,23l-381 290c-274,209 -655,-449 -807,-935z" style="fill:#bc2e16"/>
   <path class="NecklaceShipWheelfil33new NecklaceShipWheelstr0new" d="M15916 23004c-63,48 -127,97 -190,145 -64,48 -127,96 -191,145 94,477 545,1362 857,1124l380 -289c312,-238 -421,-908 -856,-1125z" style="fill:#5ec655"/>
   <polygon class="NecklaceShipWheelfil386new NecklaceShipWheelstr0new" points="16038,22970 15470,23402 15191,23035 15759,22603 "/>
   <path class="NecklaceShipWheelfil387new" d="M15198 22060c-64,48 -127,97 -191,145 -63,48 -127,96 -190,145 -334,-267 -579,-601 -753,-989 64,-48 127,-97 191,-145 63,-48 127,-97 190,-145 328,271 585,596 753,989z" style="fill:#3b5fce"/>
   <path class="NecklaceShipWheelfil14new" d="M14217 21484l163 -124 153 -117 58 -10c219,184 368,500 517,738 -303,-363 -496,-575 -891,-487z" style="fill:#85ed34"/>
   <path class="NecklaceShipWheelfil373new" d="M14949 22249l-132 101c-334,-267 -579,-601 -753,-989l155 -82c170,379 408,707 730,970z" style="fill:#3f9e5a"/>
   <path class="NecklaceShipWheelfil33new NecklaceShipWheelstr0new" d="M15198 22060c-64,48 -127,97 -191,145 -63,48 -127,96 -190,145 -334,-267 -579,-601 -753,-989 64,-48 127,-97 191,-145 63,-48 127,-97 190,-145 328,271 585,596 753,989z" style="fill:#fe0965"/>
   <polygon class="NecklaceShipWheelfil388new NecklaceShipWheelstr0new" points="15203,21873 14635,22305 14914,22672 15482,22240 "/>
  </g>
  <g>
   <path class="NecklaceShipWheelfil389new" d="M17013 19791c11,79 21,158 31,237 10,79 20,158 30,237 460,158 1452,210 1402,-179l-60 -475c-50,-388 -997,-89 -1403,180z" style="fill:#50d9c5"/>
   <path class="NecklaceShipWheelfil14new" d="M17013 19791c11,79 21,158 31,237 9,73 19,147 28,220 155,-405 607,-700 1144,-813 -311,-57 -904,158 -1203,356z" style="fill:#5a199d"/>
   <path class="NecklaceShipWheelfil373new" d="M17062 20174l12 91c460,158 1452,210 1402,-179l-60 -475c-14,-104 -92,-159 -208,-178 3,11 6,23 7,35l61 474c44,342 -717,343 -1214,232z" style="fill:#9d408f"/>
   <path class="NecklaceShipWheelfil33new NecklaceShipWheelstr0new" d="M17013 19791c11,79 21,158 31,237 10,79 20,158 30,237 460,158 1452,210 1402,-179l-60 -475c-50,-388 -997,-89 -1403,180z" style="fill:#14f1a8"/>
   <polygon class="NecklaceShipWheelfil390new NecklaceShipWheelstr0new" points="17045,19668 17135,20376 16678,20434 16587,19726 "/>
   <path class="NecklaceShipWheelfil391new" d="M15837 19941c10,79 20,158 30,237 10,79 20,158 30,237 -397,156 -809,201 -1232,158 -11,-79 -21,-158 -31,-237 -10,-80 -20,-159 -30,-238 399,-148 808,-208 1233,-157z" style="fill:#e381a0"/>
   <path class="NecklaceShipWheelfil14new" d="M14847 20502l-25 -203 -25 -191 20 -55c269,-98 617,-69 898,-79 -466,81 -746,142 -868,528z" style="fill:#f95388"/>
   <path class="NecklaceShipWheelfil373new" d="M15876 20251l21 164c-398,156 -809,201 -1232,158l6 -175c413,42 816,0 1205,-147z" style="fill:#21f45d"/>
   <path class="NecklaceShipWheelfil33new NecklaceShipWheelstr0new" d="M15837 19941c10,79 20,158 30,237 10,79 20,158 30,237 -397,156 -809,201 -1232,158 -11,-79 -21,-158 -31,-237 -10,-80 -20,-159 -30,-238 399,-148 808,-208 1233,-157z" style="fill:#9ddb90"/>
   <polygon class="NecklaceShipWheelfil392new NecklaceShipWheelstr0new" points="15677,19843 15767,20551 16225,20492 16135,19784 "/>
  </g>
  <g>
   <path class="NecklaceShipWheelfil393new" d="M14779 17234c74,30 147,61 221,92 73,31 147,62 221,92 366,-319 907,-1152 546,-1303l-442 -185c-361,-151 -576,818 -546,1304z" style="fill:#fee777"/>
   <path class="NecklaceShipWheelfil14new" d="M14779 17234c74,30 147,61 221,92 68,29 136,57 205,86 -274,-338 -303,-876 -133,-1398 -204,241 -315,862 -293,1220z" style="fill:#3a15fa"/>
   <path class="NecklaceShipWheelfil373new" d="M15135 17383l86 35c366,-319 907,-1152 546,-1303l-442 -185c-97,-41 -184,0 -258,90 11,3 22,6 34,11l441 185c317,133 -61,792 -407,1167z" style="fill:#ea2be0"/>
   <path class="NecklaceShipWheelfil33new NecklaceShipWheelstr0new" d="M14779 17234c74,30 147,61 221,92 73,31 147,62 221,92 366,-319 907,-1152 546,-1303l-442 -185c-361,-151 -576,818 -546,1304z" style="fill:#bd1a48"/>
   <polygon class="NecklaceShipWheelfil394new NecklaceShipWheelstr0new" points="14689,17145 15347,17421 15169,17846 14511,17570 "/>
   <path class="NecklaceShipWheelfil395new" d="M14321 18328c73,31 147,62 221,92 73,31 147,62 220,93 -64,422 -231,801 -480,1146 -73,-31 -147,-62 -220,-92 -74,-31 -148,-62 -221,-93 71,-419 224,-804 480,-1146z" style="fill:#d4b600"/>
   <path class="NecklaceShipWheelfil14new" d="M14312 19465l-188 -79 -178 -74 -38 -45c50,-282 249,-569 381,-817 -163,444 -250,717 23,1015z" style="fill:#2895d5"/>
   <path class="NecklaceShipWheelfil373new" d="M14609 18449l153 64c-64,422 -231,801 -480,1146l-148 -93c243,-337 408,-707 475,-1117z" style="fill:#a5478a"/>
   <path class="NecklaceShipWheelfil33new NecklaceShipWheelstr0new" d="M14321 18328c73,31 147,62 221,92 73,31 147,62 220,93 -64,422 -231,801 -480,1146 -73,-31 -147,-62 -220,-92 -74,-31 -148,-62 -221,-93 71,-419 224,-804 480,-1146z" style="fill:#33f4f7"/>
   <polygon class="NecklaceShipWheelfil396new NecklaceShipWheelstr0new" points="14156,18417 14814,18693 14993,18267 14334,17992 "/>
  </g>
  <path class="NecklaceShipWheelfil397new NecklaceShipWheelstr0new" d="M14906 17507c1615,676 2376,2533 1700,4148 -677,1615 -2534,2375 -4148,1699 -1615,-676 -2376,-2533 -1700,-4148 676,-1615 2534,-2376 4148,-1699zm-329 787c1179,494 1735,1851 1241,3031 -494,1180 -1851,1736 -3031,1242 -1180,-494 -1735,-1851 -1241,-3031 494,-1180 1851,-1736 3031,-1242z" style="fill:#c01c30"/>
  <path class="NecklaceShipWheelfil398new NecklaceShipWheelstr0new" d="M14134 19352c595,249 876,934 627,1530 -250,596 -935,877 -1531,627 -595,-249 -876,-935 -627,-1530 250,-596 935,-877 1531,-627z" style="fill:#8b3cab"/>
  <path class="NecklaceShipWheelfil399new" d="M14134 19352c595,249 876,934 627,1530 -38,91 -86,174 -142,249 4,-10 8,-19 12,-29 250,-595 -31,-1281 -627,-1530 -505,-212 -1075,-42 -1388,378 259,-576 932,-844 1518,-598z" style="fill:#a582b2"/>
  <circle class="NecklaceShipWheelfil33new NecklaceShipWheelstr6new" r="1167" transform="matrix(0.924318 0.38709 -0.38709 0.924318 13681.9 20430.5)"/>
  <path class="NecklaceShipWheelfil373new" d="M14816 17722c747,313 1298,900 1583,1595 284,696 304,1500 -9,2247 -313,748 -900,1298 -1595,1583 -696,285 -1499,305 -2247,-8 -748,-313 -1298,-900 -1583,-1595 -285,-696 -304,-1500 9,-2247 313,-748 899,-1298 1595,-1583 695,-285 1499,-305 2247,8zm1214 1747c-246,-601 -722,-1108 -1368,-1378 -646,-271 -1341,-254 -1942,-8 -600,246 -1107,721 -1378,1367 -271,647 -254,1342 -8,1942 246,601 721,1108 1367,1378 647,271 1342,254 1943,8 600,-246 1107,-721 1378,-1367 270,-647 254,-1342 8,-1942z" style="fill:#7c9c60"/>
  <path class="NecklaceShipWheelfil373new" d="M14816 17722c747,313 1298,900 1583,1595 284,696 304,1500 -9,2247 -103,248 -237,474 -395,676 112,-164 210,-341 290,-532 313,-747 293,-1551 8,-2246 -285,-696 -835,-1283 -1583,-1596 -747,-313 -1551,-293 -2247,-8 -465,191 -881,500 -1200,907 330,-479 788,-839 1306,-1051 695,-285 1499,-305 2247,8zm-3231 1279c-94,139 -176,289 -243,449 -271,647 -254,1342 -8,1942 246,601 721,1108 1367,1378 647,271 1342,254 1943,8 398,-163 755,-427 1029,-774 -285,419 -684,733 -1135,918 -601,246 -1295,263 -1942,-8 -646,-270 -1122,-777 -1368,-1378 -246,-600 -262,-1295 9,-1942 91,-218 209,-416 348,-593z" style="fill:#906208"/>
 </g></svg>