<svg xmlns="http://www.w3.org/2000/svg" xmlns:xlink="http://www.w3.org/1999/xlink" style="shape-rendering:geometricPrecision; text-rendering:geometricPrecision; image-rendering:optimizeQuality; fill-rule:evenodd; clip-rule:evenodd" version="1.1" viewBox="0 0 29000 29000" xml:space="preserve"><defs><style type="text/css">.AccessorySOF3fil67 {fill:white;fill-opacity:0.101961}
.AccessorySOF3fil69 {fill:white;fill-opacity:0.200000}
.AccessorySOF3fil765 {fill:url(#AccessorySOF3id508)}
.AccessorySOF3str2 {stroke:black;stroke-width:100;stroke-linecap:round;stroke-linejoin:round;stroke-miterlimit:22.9256}
.AccessorySOF3fil766 {fill:url(#AccessorySOF3id608)}
.AccessorySOF3fil767 {fill:url(#AccessorySOF3id840)}
.AccessorySOF3fil768 {fill:url(#AccessorySOF3id181)}
.AccessorySOF3fil769 {fill:url(#AccessorySOF3id340)}
.AccessorySOF3fil770 {fill:url(#AccessorySOF3id821)}
.AccessorySOF3fil771 {fill:url(#AccessorySOF3id735)}
.AccessorySOF3fil0 {fill:none}
.AccessorySOF3str4 {stroke:black;stroke-width:200;stroke-linecap:round;stroke-linejoin:round;stroke-miterlimit:22.9256}
.AccessorySOF3fil772 {fill:url(#AccessorySOF3id738)}
.AccessorySOF3fil773 {fill:url(#AccessorySOF3id745)}
.AccessorySOF3fil774 {fill:#3D3A3A}
.AccessorySOF3fil775 {fill:url(#AccessorySOF3id764)}
.AccessorySOF3fil776 {fill:url(#AccessorySOF3id767)}
.AccessorySOF3fil777 {fill:url(#AccessorySOF3id684)}
.AccessorySOF3fil778 {fill:url(#AccessorySOF3id546)}
.AccessorySOF3fil779 {fill:url(#AccessorySOF3id651)}
.AccessorySOF3fil780 {fill:url(#AccessorySOF3id573)}
.AccessorySOF3fil781 {fill:url(#AccessorySOF3id190)}
.AccessorySOF3fil782 {fill:url(#AccessorySOF3id896)}
.AccessorySOF3fil783 {fill:url(#AccessorySOF3id122)}
.AccessorySOF3fil784 {fill:url(#AccessorySOF3id768)}
.AccessorySOF3fil785 {fill:url(#AccessorySOF3id180)}
.AccessorySOF3fil786 {fill:url(#AccessorySOF3id113)}
.AccessorySOF3fil787 {fill:url(#AccessorySOF3id334)}
.AccessorySOF3fil788 {fill:url(#AccessorySOF3id213)}
.AccessorySOF3fil789 {fill:url(#AccessorySOF3id402)}
.AccessorySOF3fil790 {fill:url(#AccessorySOF3id662)}
.AccessorySOF3fil791 {fill:url(#AccessorySOF3id132)}
.AccessorySOF3fil792 {fill:url(#AccessorySOF3id197)}
.AccessorySOF3fil793 {fill:url(#AccessorySOF3id544)}
.AccessorySOF3fil794 {fill:url(#AccessorySOF3id744)}
.AccessorySOF3fil795 {fill:url(#AccessorySOF3id549)}
.AccessorySOF3fil796 {fill:url(#AccessorySOF3id829)}
.AccessorySOF3fil797 {fill:url(#AccessorySOF3id191)}
.AccessorySOF3fil798 {fill:url(#AccessorySOF3id459)}
.AccessorySOF3fil799 {fill:url(#AccessorySOF3id692)}
.AccessorySOF3fil800 {fill:url(#AccessorySOF3id266)}
.AccessorySOF3fil801 {fill:url(#AccessorySOF3id734)}
.HairBack-Rabbit0fil0 {fill:none}
    
.RightFoot-Rabbit0fil27 {fill:#fffef6}
    
.RightFoot-Rabbit0fil10 {fill:black;fill-opacity:0.200000}
    
.RightFoot-Rabbit0fil0 {fill:none}
    
.RightFoot-Rabbit0fil28 {fill:black;fill-rule:nonzero}
    
.RightLeg-Rabbit0fil31 {fill:url(#RightLeg-Rabbit0id13)}
    
.RightLeg-Rabbit0fil27 {fill:#fffef6}
    
.RightLeg-Rabbit0fil28 {fill:black;fill-rule:nonzero}
    
.RightLeg-Rabbit0fil10 {fill:black;fill-opacity:0.200000}
    
.LeftFoot-Rabbit0fil27 {fill:#fffef6}
    
.LeftFoot-Rabbit0fil10 {fill:black;fill-opacity:0.200000}
    
.LeftFoot-Rabbit0fil0 {fill:none}
    
.LeftFoot-Rabbit0fil28 {fill:black;fill-rule:nonzero}
    
.LeftLeg-Rabbit0fil39 {fill:url(#LeftLeg-Rabbit0id6)}
    
.LeftLeg-Rabbit0fil27 {fill:#fffef6}
    
.LeftLeg-Rabbit0fil10 {fill:black;fill-opacity:0.200000}
    
.LeftLeg-Rabbit0fil28 {fill:black;fill-rule:nonzero}
    
.RightHand-Rabbit0fil46 {fill:url(#RightHand-Rabbit0id27)}
    
.RightHand-Rabbit0fil10 {fill:black;fill-opacity:0.200000}
    
.RightHand-Rabbit0fil0 {fill:none}
    
.RightHand-Rabbit0str0 {stroke:black;stroke-width:150;stroke-linecap:round;stroke-linejoin:round;stroke-miterlimit:22.9256}
    
.RightPaw-Rabbit0fil27 {fill:#fffef6}
    
.RightPaw-Rabbit0fil10 {fill:black;fill-opacity:0.200000}
    
.RightPaw-Rabbit0fil28 {fill:black;fill-rule:nonzero}
    
.LeftHand-Rabbit0fil52 {fill:url(#LeftHand-Rabbit0id173)}
    
.LeftHand-Rabbit0fil10 {fill:black;fill-opacity:0.200000}
    
.LeftHand-Rabbit0fil0 {fill:none}
    
.LeftHand-Rabbit0str0 {stroke:black;stroke-width:150;stroke-linecap:round;stroke-linejoin:round;stroke-miterlimit:22.9256}
    
.Body-Rabbit0fil58 {fill:url(#Body-Rabbit0id42)}
    
.Body-Rabbit0fil10 {fill:black;fill-opacity:0.200000}
    
.Body-Rabbit0fil28 {fill:black;fill-rule:nonzero}
    
.Body-Rabbit0fil59 {fill:url(#Body-Rabbit0id23)}
    
.LeftPaw-Rabbit0fil27 {fill:#fffef6}
    
.LeftPaw-Rabbit0fil10 {fill:black;fill-opacity:0.200000}
    
.LeftPaw-Rabbit0fil28 {fill:black;fill-rule:nonzero}
    
.Ears-Rabbit10fil140 {fill:url(#Ears-Rabbit10id253)}
    
.Ears-Rabbit10str0 {stroke:black;stroke-width:150;stroke-linecap:round;stroke-linejoin:round;stroke-miterlimit:22.9256}
    
.Ears-Rabbit10fil141 {fill:url(#Ears-Rabbit10id294)}
    
.Ears-Rabbit10fil142 {fill:url(#Ears-Rabbit10id206)}
    
.Ears-Rabbit10fil143 {fill:url(#Ears-Rabbit10id182)}
    
.Ears-Rabbit10fil0 {fill:none}
    
.Ears-Rabbit10fil76 {fill:black;fill-opacity:0.301961}
    
.Ears-Rabbit10fil10 {fill:black;fill-opacity:0.200000}
    
.Ears-Rabbit10fil144 {fill:url(#Ears-Rabbit10id184)}
    
.Ears-Rabbit10fil145 {fill:url(#Ears-Rabbit10id248)}
    
.Ears-Rabbit10fil146 {fill:url(#Ears-Rabbit10id171)}
    
.Ears-Rabbit10fil147 {fill:url(#Ears-Rabbit10id296)}
    
.Head-Rabbit5fil178 {fill:url(#Head-Rabbit5id272)}
    
.Head-Rabbit5fil179 {fill:url(#Head-Rabbit5id271)}
    
.Head-Rabbit5fil28 {fill:black;fill-rule:nonzero}
    
.Head-Rabbit5fil180 {fill:url(#Head-Rabbit5id192)}
    
.Head-Rabbit5fil181 {fill:url(#Head-Rabbit5id200)}
    
.Head-Rabbit5fil10 {fill:black;fill-opacity:0.200000}
    
.Mouth-Rabbit7fil0 {fill:none}
    
.Mouth-Rabbit7str0 {stroke:black;stroke-width:150;stroke-linecap:round;stroke-linejoin:round;stroke-miterlimit:22.9256}
    
.Mouth-Rabbit7fil200 {fill:url(#Mouth-Rabbit7id94)}
    
.Mouth-Rabbit7fil201 {fill:url(#Mouth-Rabbit7id83)}
    
.Mouth-Rabbit7fil10 {fill:black;fill-opacity:0.200000}
    
.EyesClosed-Rabbit9fil207 {fill:#bfb9b6}
    
.EyesClosed-Rabbit9fil10 {fill:black;fill-opacity:0.200000}
    
.EyesClosed-Rabbit9fil28 {fill:black;fill-rule:nonzero}
    
.Eyes-Rabbit9fil269 {fill:url(#Eyes-Rabbit9id151)}
    
.Eyes-Rabbit9fil270 {fill:url(#Eyes-Rabbit9id138)}
    
.Eyes-Rabbit9fil271 {fill:url(#Eyes-Rabbit9id209)}
    
.Eyes-Rabbit9fil0 {fill:none}
    
.Eyes-Rabbit9str0 {stroke:black;stroke-width:150;stroke-linecap:round;stroke-linejoin:round;stroke-miterlimit:22.9256}
    
.Eyes-Rabbit9fil189 {fill:black;fill-opacity:0.501961}
    
.Eyes-Rabbit9fil211 {fill:white}
    
.Eyes-Rabbit9fil272 {fill:url(#Eyes-Rabbit9id148)}
    
.Eyes-Rabbit9fil273 {fill:url(#Eyes-Rabbit9id137)}
    
.Eyes-Rabbit9fil274 {fill:url(#Eyes-Rabbit9id222)}
    
.Moustache-Rabbit6fil315 {fill:url(#Moustache-Rabbit6id287)}
    
.Moustache-Rabbit6fil316 {fill:black;fill-rule:nonzero}
    
.Nose-Rabbit0fil320 {fill:url(#Nose-Rabbit0id300)}
    
.Nose-Rabbit0str0 {stroke:black;stroke-width:150;stroke-linecap:round;stroke-linejoin:round;stroke-miterlimit:22.9256}
    
.Hair-Rabbit0fil0 {fill:none}
    
</style><linearGradient gradientUnits="userSpaceOnUse" id="AccessorySOF3id508" x1="6171.46" x2="8736.25" xlink:href="#AccessorySOF3id113" y1="21900.91" y2="22886.24">
  </linearGradient><linearGradient gradientUnits="userSpaceOnUse" id="AccessorySOF3id608" x1="3562.24" x2="1085.17" xlink:href="#AccessorySOF3id113" y1="21705.44" y2="23102.94">
  </linearGradient><linearGradient gradientUnits="userSpaceOnUse" id="AccessorySOF3id840" x1="6216.54" x2="9006.39" xlink:href="#AccessorySOF3id113" y1="22068.9" y2="23995.08">
  </linearGradient><linearGradient gradientUnits="userSpaceOnUse" id="AccessorySOF3id181" x1="3878" x2="5889" y1="21531" y2="21606">
   <stop offset="0" style="stop-opacity:1; stop-color:#0A0A0A"/>
   <stop offset="0.6" style="stop-opacity:1; stop-color:#4D4949"/>
   <stop offset="1" style="stop-opacity:1; stop-color:#212020"/>
  </linearGradient><linearGradient gradientUnits="userSpaceOnUse" id="AccessorySOF3id340" x1="4731" x2="5037" y1="20749" y2="21571">
   <stop offset="0" style="stop-opacity:1; stop-color:#292727"/>
   <stop offset="1" style="stop-opacity:1; stop-color:#5E5A5A"/>
  </linearGradient><linearGradient gradientUnits="userSpaceOnUse" id="AccessorySOF3id821" x1="14731.67" x2="14978.04" xlink:href="#AccessorySOF3id113" y1="7153.48" y2="7346.13">
  </linearGradient><linearGradient gradientUnits="userSpaceOnUse" id="AccessorySOF3id735" x1="11872.79" x2="12188.49" xlink:href="#AccessorySOF3id113" y1="11993.83" y2="12240.14">
  </linearGradient><linearGradient gradientUnits="userSpaceOnUse" id="AccessorySOF3id738" x1="3228.27" x2="2551.45" xlink:href="#AccessorySOF3id113" y1="16807" y2="17793">
  </linearGradient><linearGradient gradientUnits="userSpaceOnUse" id="AccessorySOF3id745" x1="5944.15" x2="6189.09" xlink:href="#AccessorySOF3id113" y1="18857.01" y2="21055.4">
  </linearGradient><linearGradient gradientUnits="userSpaceOnUse" id="AccessorySOF3id764" x1="14950.71" x2="14453.72" xlink:href="#AccessorySOF3id573" y1="4584.66" y2="4439.63">
  </linearGradient><linearGradient gradientUnits="userSpaceOnUse" id="AccessorySOF3id767" x1="13772.42" x2="13244.82" xlink:href="#AccessorySOF3id181" y1="6390.97" y2="5966.58">
  </linearGradient><linearGradient gradientUnits="userSpaceOnUse" id="AccessorySOF3id684" x1="12047.94" x2="11495.83" xlink:href="#AccessorySOF3id573" y1="8678.08" y2="8536.13">
  </linearGradient><linearGradient gradientUnits="userSpaceOnUse" id="AccessorySOF3id546" x1="10599.3" x2="9936.22" xlink:href="#AccessorySOF3id181" y1="10970.32" y2="10423.98">
  </linearGradient><linearGradient gradientUnits="userSpaceOnUse" id="AccessorySOF3id651" x1="10446.13" x2="9837.93" xlink:href="#AccessorySOF3id181" y1="11166.48" y2="10587.52">
  </linearGradient><linearGradient gradientUnits="userSpaceOnUse" id="AccessorySOF3id190" x1="7339.38" x2="5772.35" xlink:href="#AccessorySOF3id181" y1="16446.93" y2="15276.54">
  </linearGradient><linearGradient gradientUnits="userSpaceOnUse" id="AccessorySOF3id896" x1="6286.45" x2="4485.53" xlink:href="#AccessorySOF3id181" y1="18284.91" y2="16687.63">
  </linearGradient><linearGradient gradientUnits="userSpaceOnUse" id="AccessorySOF3id122" x1="5587.26" x2="4915.46" y1="18126.48" y2="17263.62">
   <stop offset="0" style="stop-opacity:1; stop-color:black"/>
   <stop offset="1" style="stop-opacity:1; stop-color:#242323"/>
  </linearGradient><linearGradient gradientUnits="userSpaceOnUse" id="AccessorySOF3id768" x1="5749.36" x2="4240.56" xlink:href="#AccessorySOF3id181" y1="18703.14" y2="17366.16">
  </linearGradient><linearGradient gradientUnits="userSpaceOnUse" id="AccessorySOF3id180" x1="5163.25" x2="4600.79" xlink:href="#AccessorySOF3id122" y1="18571.03" y2="17848.08">
  </linearGradient><linearGradient gradientUnits="userSpaceOnUse" id="AccessorySOF3id334" x1="6403" x2="6463" xlink:href="#AccessorySOF3id113" y1="14317" y2="13907">
  </linearGradient><linearGradient gradientUnits="userSpaceOnUse" id="AccessorySOF3id213" x1="9286" x2="11068" xlink:href="#AccessorySOF3id113" y1="16996" y2="17639">
  </linearGradient><linearGradient gradientUnits="userSpaceOnUse" id="AccessorySOF3id402" x1="7957" x2="8362" xlink:href="#AccessorySOF3id113" y1="15652" y2="15528">
  </linearGradient><linearGradient gradientUnits="userSpaceOnUse" id="AccessorySOF3id662" x1="7760" x2="9926" xlink:href="#AccessorySOF3id113" y1="13244" y2="12844">
  </linearGradient><linearGradient gradientUnits="userSpaceOnUse" id="AccessorySOF3id132" x1="7609" x2="8052" xlink:href="#AccessorySOF3id113" y1="14196" y2="14301">
  </linearGradient><linearGradient gradientUnits="userSpaceOnUse" id="AccessorySOF3id197" x1="2597.39" x2="2329.32" xlink:href="#AccessorySOF3id113" y1="15240.45" y2="14928.54">
  </linearGradient><linearGradient gradientUnits="userSpaceOnUse" id="AccessorySOF3id544" x1="8459.95" x2="8192.47" xlink:href="#AccessorySOF3id113" y1="20144.93" y2="19834.11">
  </linearGradient><linearGradient gradientUnits="userSpaceOnUse" id="AccessorySOF3id744" x1="4843.2" x2="4598.51" xlink:href="#AccessorySOF3id113" y1="16217.59" y2="14018.76">
  </linearGradient><linearGradient gradientUnits="userSpaceOnUse" id="AccessorySOF3id549" x1="7558.52" x2="8235.41" xlink:href="#AccessorySOF3id113" y1="18268" y2="17282">
  </linearGradient><linearGradient gradientUnits="userSpaceOnUse" id="AccessorySOF3id829" x1="8755.03" x2="8503.75" xlink:href="#AccessorySOF3id113" y1="9395.66" y2="9089.93">
  </linearGradient><linearGradient gradientUnits="userSpaceOnUse" id="AccessorySOF3id191" x1="11011.25" x2="11220.81" xlink:href="#AccessorySOF3id113" y1="10050.78" y2="9698.01">
  </linearGradient><linearGradient gradientUnits="userSpaceOnUse" id="AccessorySOF3id459" x1="12295.74" x2="12099.86" xlink:href="#AccessorySOF3id113" y1="5123.7" y2="4885.46">
  </linearGradient><linearGradient gradientUnits="userSpaceOnUse" id="AccessorySOF3id692" x1="14059.58" x2="14223.11" xlink:href="#AccessorySOF3id113" y1="5638.13" y2="5363.2">
  </linearGradient><linearGradient gradientUnits="userSpaceOnUse" id="AccessorySOF3id266" x1="4574" x2="5197" xlink:href="#AccessorySOF3id113" y1="18297" y2="20870">
  </linearGradient><linearGradient gradientUnits="userSpaceOnUse" id="AccessorySOF3id734" x1="3778.03" x2="901.04" xlink:href="#AccessorySOF3id113" y1="22225.81" y2="24243.94">
  </linearGradient><linearGradient gradientUnits="objectBoundingBox" id="RightLeg-Rabbit0id13" x1="50%" x2="50%" xlink:href="#RightLeg-Rabbit0id6" y1="105.828%" y2="0%">
  </linearGradient><linearGradient gradientUnits="objectBoundingBox" id="LeftLeg-Rabbit0id6" x1="50%" x2="50%" y1="105.828%" y2="0%">
   <stop offset="0" style="stop-opacity:1; stop-color:#ffffff"/>
   <stop offset="0.439216" style="stop-opacity:1; stop-color:#ffffff"/>
   <stop offset="1" style="stop-opacity:1; stop-color:#f3e7e7"/>
  </linearGradient><linearGradient gradientUnits="objectBoundingBox" id="RightHand-Rabbit0id27" x1="34.0586%" x2="65.9414%" xlink:href="#RightHand-Rabbit0id26" y1="2.36576%" y2="97.6342%">
  </linearGradient><linearGradient gradientUnits="objectBoundingBox" id="LeftHand-Rabbit0id173" x1="73.7265%" x2="26.114%" xlink:href="#LeftHand-Rabbit0id26" y1="4.01633%" y2="96.2351%">
  </linearGradient><linearGradient gradientUnits="objectBoundingBox" id="Body-Rabbit0id42" x1="50%" x2="50%" y1="2.16557e-14%" y2="100%">
   <stop offset="0" style="stop-opacity:1; stop-color:#ccb8b8"/>
   <stop offset="0.0313725" style="stop-opacity:1; stop-color:#ccb8b8"/>
   <stop offset="0.529412" style="stop-opacity:1; stop-color:#f3e7e7"/>
   <stop offset="1" style="stop-opacity:1; stop-color:#ffffff"/>
  </linearGradient><linearGradient gradientUnits="userSpaceOnUse" id="Body-Rabbit0id23" x1="13681.92" x2="13681.92" y1="22974.87" y2="18143.76">
   <stop offset="0" style="stop-opacity:1; stop-color:#fffef6"/>
   <stop offset="0.658824" style="stop-opacity:1; stop-color:#fffef6"/>
   <stop offset="1" style="stop-opacity:1; stop-color:#f2f0dc"/>
  </linearGradient><linearGradient gradientUnits="userSpaceOnUse" id="Ears-Rabbit10id253" x1="7724.81" x2="9337.83" xlink:href="#Ears-Rabbit10id1" y1="11081.69" y2="782.37">
  </linearGradient><linearGradient gradientUnits="userSpaceOnUse" id="Ears-Rabbit10id294" x1="5701.09" x2="10810.71" xlink:href="#Ears-Rabbit10id43" y1="3646.19" y2="7294.22">
  </linearGradient><linearGradient gradientUnits="userSpaceOnUse" id="Ears-Rabbit10id206" x1="6409.18" x2="10619.88" xlink:href="#Ears-Rabbit10id171" y1="4709.03" y2="7700.9">
  </linearGradient><linearGradient gradientUnits="userSpaceOnUse" id="Ears-Rabbit10id182" x1="7100.76" x2="10311.38" y1="5976.91" y2="8142.84">
   <stop offset="0" style="stop-opacity:1; stop-color:#CF9090"/>
   <stop offset="1" style="stop-opacity:1; stop-color:#A35858"/>
  </linearGradient><linearGradient gradientUnits="userSpaceOnUse" id="Ears-Rabbit10id184" x1="19639.07" x2="18026.05" xlink:href="#Ears-Rabbit10id1" y1="11081.69" y2="782.37">
  </linearGradient><linearGradient gradientUnits="userSpaceOnUse" id="Ears-Rabbit10id248" x1="21662.79" x2="16553.17" xlink:href="#Ears-Rabbit10id43" y1="3646.19" y2="7294.22">
  </linearGradient><linearGradient gradientUnits="userSpaceOnUse" id="Ears-Rabbit10id296" x1="20263.12" x2="17052.5" xlink:href="#Ears-Rabbit10id182" y1="5976.91" y2="8142.84">
  </linearGradient><linearGradient gradientUnits="userSpaceOnUse" id="Head-Rabbit5id272" x1="12770.77" x2="12770.76" xlink:href="#Head-Rabbit5id39" y1="17936.72" y2="7484.8">
  </linearGradient><linearGradient gradientUnits="userSpaceOnUse" id="Head-Rabbit5id271" x1="12770.77" x2="12770.76" xlink:href="#Head-Rabbit5id39" y1="17972.09" y2="7484.8">
  </linearGradient><linearGradient gradientUnits="userSpaceOnUse" id="Head-Rabbit5id192" x1="12602.62" x2="8010.14" xlink:href="#Head-Rabbit5id53" y1="13111.03" y2="13111.03">
  </linearGradient><linearGradient gradientUnits="userSpaceOnUse" id="Head-Rabbit5id200" x1="18274.48" x2="13682" xlink:href="#Head-Rabbit5id53" y1="13111.03" y2="13111.03">
  </linearGradient><linearGradient gradientUnits="userSpaceOnUse" id="Mouth-Rabbit7id94" x1="13385.7" x2="13385.7" xlink:href="#Mouth-Rabbit7id81" y1="16046.07" y2="16954.16">
  </linearGradient><linearGradient gradientUnits="userSpaceOnUse" id="Mouth-Rabbit7id83" x1="13967.74" x2="13967.74" xlink:href="#Mouth-Rabbit7id81" y1="16046.07" y2="16954.16">
  </linearGradient><linearGradient gradientUnits="userSpaceOnUse" id="Eyes-Rabbit9id151" x1="17002.94" x2="17002.94" xlink:href="#Eyes-Rabbit9id41" y1="14820.57" y2="11127.41">
  </linearGradient><linearGradient gradientUnits="userSpaceOnUse" id="Eyes-Rabbit9id138" x1="15183.56" x2="18313.99" xlink:href="#Eyes-Rabbit9id85" y1="12893.71" y2="12893.71">
  </linearGradient><linearGradient gradientUnits="userSpaceOnUse" id="Eyes-Rabbit9id209" x1="16354.73" x2="16354.73" xlink:href="#Eyes-Rabbit9id84" y1="11135.01" y2="14268.61">
  </linearGradient><linearGradient gradientUnits="userSpaceOnUse" id="Eyes-Rabbit9id148" x1="10360.94" x2="10360.94" xlink:href="#Eyes-Rabbit9id41" y1="14820.57" y2="11127.41">
  </linearGradient><linearGradient gradientUnits="userSpaceOnUse" id="Eyes-Rabbit9id137" x1="9049.89" x2="12180.32" xlink:href="#Eyes-Rabbit9id85" y1="12893.71" y2="12893.71">
  </linearGradient><linearGradient gradientUnits="userSpaceOnUse" id="Eyes-Rabbit9id222" x1="10618.61" x2="10618.61" xlink:href="#Eyes-Rabbit9id84" y1="11135.01" y2="14268.61">
  </linearGradient><linearGradient gradientUnits="userSpaceOnUse" id="Moustache-Rabbit6id287" x1="12623.46" x2="12202.65" xlink:href="#Moustache-Rabbit6id135" y1="15922.33" y2="17455.74">
  </linearGradient><linearGradient gradientUnits="userSpaceOnUse" id="Nose-Rabbit0id300" x1="12846.46" x2="12948.19" y1="14801.53" y2="15641.16">
   <stop offset="0" style="stop-opacity:1; stop-color:#FFCCCC"/>
   <stop offset="1" style="stop-opacity:1; stop-color:#DB9092"/>
  </linearGradient><linearGradient gradientUnits="userSpaceOnUse" id="AccessorySOF3id113" x1="4825" x2="4007" y1="13245" y2="11524">
   <stop offset="0" style="stop-opacity:1; stop-color:black"/>
   <stop offset="1" style="stop-opacity:1; stop-color:#3B3939"/>
  </linearGradient><linearGradient gradientUnits="userSpaceOnUse" id="AccessorySOF3id573" x1="9048.23" x2="8344.27" y1="13008.89" y2="12780.63">
   <stop offset="0" style="stop-opacity:1; stop-color:#242222"/>
   <stop offset="0.6" style="stop-opacity:1; stop-color:#787676"/>
   <stop offset="1" style="stop-opacity:1; stop-color:#363434"/>
  </linearGradient><linearGradient gradientUnits="objectBoundingBox" id="RightLeg-Rabbit0id6" x1="50%" x2="50%" y1="105.828%" y2="0%">
   <stop offset="0" style="stop-opacity:1; stop-color:#ffffff"/>
   <stop offset="0.439216" style="stop-opacity:1; stop-color:#ffffff"/>
   <stop offset="1" style="stop-opacity:1; stop-color:#f3e7e7"/>
  </linearGradient><linearGradient gradientUnits="userSpaceOnUse" id="RightHand-Rabbit0id26" x1="16087.42" x2="17274.71" y1="17785.04" y2="20860.85">
   <stop offset="0" style="stop-opacity:1; stop-color:#ccb8b8"/>
   <stop offset="0.878431" style="stop-opacity:1; stop-color:#f3e7e7"/>
   <stop offset="1" style="stop-opacity:1; stop-color:#f3e7e7"/>
  </linearGradient><linearGradient gradientUnits="userSpaceOnUse" id="LeftHand-Rabbit0id26" x1="16087.42" x2="17274.71" y1="17785.04" y2="20860.85">
   <stop offset="0" style="stop-opacity:1; stop-color:#ccb8b8"/>
   <stop offset="0.878431" style="stop-opacity:1; stop-color:#f3e7e7"/>
   <stop offset="1" style="stop-opacity:1; stop-color:#f3e7e7"/>
  </linearGradient><linearGradient gradientUnits="userSpaceOnUse" id="Ears-Rabbit10id1" x1="13681.94" x2="13681.94" y1="17582.76" y2="9785.49">
   <stop offset="0" style="stop-opacity:1; stop-color:#bfb9b6"/>
   <stop offset="1" style="stop-opacity:1; stop-color:#e6e6e6"/>
  </linearGradient><linearGradient gradientUnits="userSpaceOnUse" id="Ears-Rabbit10id43" x1="20439.04" x2="17328.61" y1="5146.97" y2="5706.05">
   <stop offset="0" style="stop-opacity:1; stop-color:#F5E2E2"/>
   <stop offset="0.670588" style="stop-opacity:1; stop-color:#DDC0C0"/>
   <stop offset="1" style="stop-opacity:1; stop-color:#C49D9D"/>
  </linearGradient><linearGradient gradientUnits="userSpaceOnUse" id="Ears-Rabbit10id171" x1="20954.7" x2="16744" y1="4709.03" y2="7700.9">
   <stop offset="0" style="stop-opacity:1; stop-color:#EDC2C2"/>
   <stop offset="1" style="stop-opacity:1; stop-color:#AD6161"/>
  </linearGradient><linearGradient gradientUnits="userSpaceOnUse" id="Head-Rabbit5id39" x1="13686.09" x2="13686.08" y1="17936.72" y2="7484.8">
   <stop offset="0" style="stop-opacity:1; stop-color:#ccb8b8"/>
   <stop offset="0.4" style="stop-opacity:1; stop-color:#f3e7e7"/>
   <stop offset="1" style="stop-opacity:1; stop-color:#ffffff"/>
  </linearGradient><linearGradient gradientUnits="userSpaceOnUse" id="Head-Rabbit5id53" x1="13681.92" x2="13681.92" y1="22716.29" y2="18527.08">
   <stop offset="0" style="stop-opacity:1; stop-color:#fffef6"/>
   <stop offset="0.65098" style="stop-opacity:1; stop-color:#fffef6"/>
   <stop offset="1" style="stop-opacity:1; stop-color:#f2f0dc"/>
  </linearGradient><linearGradient gradientUnits="userSpaceOnUse" id="Mouth-Rabbit7id81" x1="13402.39" x2="13402.39" y1="15588.37" y2="16582.43">
   <stop offset="0" style="stop-opacity:1; stop-color:#D6D6D6"/>
   <stop offset="0.6" style="stop-opacity:1; stop-color:white"/>
   <stop offset="1" style="stop-opacity:1; stop-color:#fffef6"/>
  </linearGradient><linearGradient gradientUnits="userSpaceOnUse" id="Eyes-Rabbit9id41" x1="17102.45" x2="17102.45" y1="15038.45" y2="11047.09">
   <stop offset="0" style="stop-opacity:1; stop-color:#00437d"/>
   <stop offset="1" style="stop-opacity:1; stop-color:black"/>
  </linearGradient><linearGradient gradientUnits="userSpaceOnUse" id="Eyes-Rabbit9id85" x1="8896.68" x2="12138.14" y1="13030.37" y2="13030.37">
   <stop offset="0" style="stop-opacity:1; stop-color:#00437d"/>
   <stop offset="0.501961" style="stop-opacity:1; stop-color:#2597fc"/>
   <stop offset="1" style="stop-opacity:1; stop-color:#00437d"/>
  </linearGradient><linearGradient gradientUnits="userSpaceOnUse" id="Eyes-Rabbit9id84" x1="16563.56" x2="16563.56" y1="11311.33" y2="14277.21">
   <stop offset="0" style="stop-opacity:1; stop-color:black"/>
   <stop offset="0.4" style="stop-opacity:1; stop-color:black"/>
   <stop offset="1" style="stop-opacity:1; stop-color:#003563"/>
  </linearGradient><linearGradient gradientUnits="userSpaceOnUse" id="Moustache-Rabbit6id135" x1="15916.59" x2="11341.67" y1="16667" y2="19359.82">
   <stop offset="0" style="stop-opacity:1; stop-color:#efdeea"/>
   <stop offset="1" style="stop-opacity:1; stop-color:#d6b2cb"/>
  </linearGradient></defs><g id="AccessorySOF3">
  <metadata id="CorelCorpID_58Corel-Layer"/>
  <g id="_1775817171872">
   <path class="AccessorySOF3fil765 AccessorySOF3str2" d="M5727 21349c-94,56 -216,308 -190,359 1024,481 2640,1275 3664,1757 117,29 277,-305 189,-373 -1009,-477 -2654,-1266 -3663,-1743z" style="fill:#a689ca"/>
   <path class="AccessorySOF3fil766 AccessorySOF3str2" d="M4084 21265l230 351 -3799 1975c-131,64 -333,-272 -226,-365l3795 -1961z" style="fill:#b420e5"/>
   <path class="AccessorySOF3fil767 AccessorySOF3str2" d="M5916 21493l-270 300 3714 2832c121,88 363,-202 268,-314l-3712 -2818z" style="fill:#468e9a"/>
   <path class="AccessorySOF3fil768 AccessorySOF3str2" d="M3850 21763c0,118 463,215 1034,216 570,0 1033,-95 1033,-214l1 -604 -2067 -2 -1 604z" style="fill:#83dc02"/>
   <path class="AccessorySOF3fil769 AccessorySOF3str2" d="M5918 21161c0,-118 -463,-215 -1033,-216 -571,0 -1034,96 -1034,214 0,119 462,216 1033,217 571,0 1034,-96 1034,-215z" style="fill:#1fca28"/>
   <path class="AccessorySOF3fil770 AccessorySOF3str2" d="M13672 6409l156 -186 2230 1882c32,85 -61,202 -157,186l-2229 -1882z" style="fill:#aec81b"/>
   <path class="AccessorySOF3fil771 AccessorySOF3str2" d="M10516 11040l200 -237 2854 2408c40,109 -78,258 -201,238l-2853 -2409z" style="fill:#5f912f"/>
   <path class="AccessorySOF3fil0 AccessorySOF3str4" d="M797 13585c529,1189 693,2387 717,3587 1809,1260 3407,2722 4906,4280 1201,-331 2463,-244 3754,58" style="fill:#b5a02f"/>
   <path class="AccessorySOF3fil772 AccessorySOF3str2" d="M4539 17476c47,-51 49,-282 0,-303 -1104,-12 -2170,-36 -3274,-49 -112,12 -101,295 8,310 1089,14 2177,28 3266,42z" style="fill:#d7ad8a"/>
   <path class="AccessorySOF3fil773 AccessorySOF3str2" d="M5606 18368c43,-56 270,-98 299,-54 208,1084 421,2129 630,3213 8,113 -272,152 -306,47 -208,-1068 -415,-2137 -623,-3206z" style="fill:#ac0f06"/>
   <path class="AccessorySOF3fil774 AccessorySOF3str2" d="M6117 14720l1494 1279 -2099 2452c-468,-323 -1186,-913 -1494,-1280l2099 -2451z" style="fill:#cbccf4"/>
   <path class="AccessorySOF3fil775 AccessorySOF3str2" d="M16120 3008c29,-41 -46,-145 -167,-232 -121,-86 -243,-124 -272,-83l-2379 3317 438 314 2380 -3316z" style="fill:#f6c1fc"/>
   <path class="AccessorySOF3fil776 AccessorySOF3str2" d="M13956 6199c26,-36 -89,-162 -256,-282 -166,-120 -322,-188 -348,-152l-272 379 604 433 272 -378z" style="fill:#1637de"/>
   <path class="AccessorySOF3fil774 AccessorySOF3str2" d="M13080 6144c-25,36 89,162 256,282 167,119 323,187 348,151 26,-36 -88,-162 -255,-281 -167,-120 -323,-188 -349,-152z" style="fill:#c7c978"/>
   <path class="AccessorySOF3fil777 AccessorySOF3str2" d="M13115 6194l-3178 4430 511 366c1059,-1477 2118,-2953 3178,-4430 20,-111 -416,-405 -511,-366z" style="fill:#378083"/>
   <path class="AccessorySOF3fil778 AccessorySOF3str2" d="M10788 10767c26,-36 -121,-185 -327,-333 -207,-149 -395,-240 -421,-204l-272 379 749 536 271 -378z" style="fill:#994b63"/>
   <path class="AccessorySOF3fil779 AccessorySOF3str2" d="M9768 10609c-25,36 121,185 328,333 206,148 395,239 421,203 25,-35 -121,-185 -328,-333 -207,-148 -395,-239 -421,-203z" style="fill:#0e7c15"/>
   <path class="AccessorySOF3fil780 AccessorySOF3str2" d="M9839 10661l-2861 3988 606 435 2861 -3989c31,-90 -538,-493 -606,-434z" style="fill:#e0c85a"/>
   <path class="AccessorySOF3fil781 AccessorySOF3str2" d="M8380 15073c76,-107 -230,-458 -685,-784 -455,-326 -886,-504 -962,-397l-1949 2716 1647 1181 1949 -2716z" style="fill:#6acc93"/>
   <path class="AccessorySOF3fil782 AccessorySOF3str2" d="M6725 18034c105,-147 -317,-630 -943,-1079 -626,-449 -1219,-694 -1324,-547l-340 474 2267 1627 340 -475z" style="fill:#3a3d1d"/>
   <path class="AccessorySOF3fil783 AccessorySOF3str2" d="M4118 16882c-106,147 316,630 942,1079 626,450 1219,695 1325,548 105,-147 -317,-631 -943,-1080 -626,-449 -1219,-694 -1324,-547z" style="fill:#4b40bb"/>
   <path class="AccessorySOF3fil784 AccessorySOF3str2" d="M6117 18494c88,-123 -266,-528 -790,-904 -524,-376 -1021,-581 -1109,-458l-285 397 1899 1362 285 -397z" style="fill:#35b2f0"/>
   <path class="AccessorySOF3fil785 AccessorySOF3str2" d="M3933 17529c-88,123 265,528 789,904 525,376 1021,581 1110,458 88,-123 -266,-528 -790,-904 -524,-376 -1021,-581 -1109,-458z" style="fill:#289447"/>
   <path class="AccessorySOF3fil786 AccessorySOF3str2" d="M5885 14705l1050 -1226 -3988 -3415c-411,295 -906,899 -1050,1226l3988 3415z" style="fill:#95dd38"/>
   <polygon class="AccessorySOF3fil787 AccessorySOF3str2" points="6142,14159 6435,13817 6725,14066 6432,14407 "/>
   <path class="AccessorySOF3fil788 AccessorySOF3str2" d="M7659 16224l1049 -1226 3988 3415c-239,416 -708,985 -1049,1225l-3988 -3414z" style="fill:#a37639"/>
   <polygon class="AccessorySOF3fil789 AccessorySOF3str2" points="8159,15886 8451,15544 8161,15295 7869,15637 "/>
   <path class="AccessorySOF3fil67" d="M7613 14495c-27,561 -1083,1649 -1625,2473 126,91 294,258 420,365 848,-903 1151,-2125 1711,-2410 -132,-170 -308,-307 -506,-428z" style="fill:#558dbb"/>
   <path class="AccessorySOF3fil790 AccessorySOF3str2" d="M7103 13602l1494 1248 1988 -2363c-264,-427 -1051,-1116 -1494,-1248l-1988 2363z" style="fill:#fc7b7b"/>
   <polygon class="AccessorySOF3fil791 AccessorySOF3str2" points="7742,13932 8159,14280 7919,14566 7502,14218 "/>
   <path class="AccessorySOF3fil0 AccessorySOF3str4" d="M752 13640c1264,309 2471,257 3657,67 1561,1556 3285,2869 5084,4066 -112,1242 198,2467 725,3685" style="fill:#b4ecda"/>
   <path class="AccessorySOF3fil792 AccessorySOF3str2" d="M4236 16773l199 -239 -3756 -3138c-90,-1 -214,128 -199,239l3756 3138z" style="fill:#6e0ebd"/>
   <path class="AccessorySOF3fil793 AccessorySOF3str2" d="M10108 21679c92,2 208,-133 200,-239l-3756 -3137 -199 238 3755 3138z" style="fill:#e93f2b"/>
   <path class="AccessorySOF3fil794 AccessorySOF3str2" d="M5181 16707c-42,56 -269,99 -298,54 -209,-1083 -422,-2129 -630,-3213 -9,-112 272,-152 306,-47 208,1069 415,2137 622,3206z" style="fill:#0b9f44"/>
   <path class="AccessorySOF3fil795 AccessorySOF3str2" d="M6249 17599c-48,52 -49,283 0,303 1104,13 2170,37 3274,49 112,-12 101,-295 -8,-310 -1089,-14 -2177,-28 -3266,-42z" style="fill:#616ea4"/>
   <path class="AccessorySOF3fil796 AccessorySOF3str2" d="M9944 10558l200 -238 -2853 -2408c-114,-22 -241,120 -200,238l2853 2408z" style="fill:#04acb6"/>
   <path class="AccessorySOF3fil797 AccessorySOF3str2" d="M10556 10749c-83,21 -254,-97 -238,-200l1363 -1556c109,-41 258,77 237,200l-1362 1556z" style="fill:#0f22dc"/>
   <path class="AccessorySOF3fil798 AccessorySOF3str2" d="M13225 6032l157 -186 -2230 -1881c-89,-17 -188,94 -156,186l2229 1881z" style="fill:#1577e5"/>
   <path class="AccessorySOF3fil799 AccessorySOF3str2" d="M13703 6184c-64,17 -198,-76 -185,-156l1064 -1216c86,-32 202,61 186,157l-1065 1215z" style="fill:#dfe79d"/>
   <path class="AccessorySOF3fil800 AccessorySOF3str2" d="M4542 18007c297,105 576,359 691,498l-3 2656 -691 0 3 -3154z" style="fill:#537cbd"/>
   <path class="AccessorySOF3fil801 AccessorySOF3str2" d="M3985 21457c94,9 313,237 287,301 -1026,994 -2581,2315 -3607,3310 -117,88 -374,-203 -286,-315 1010,-982 2596,-2314 3606,-3296z" style="fill:#7c7b74"/>
   <path class="AccessorySOF3fil67" d="M2152 11051c191,-322 505,-641 800,-859 1271,1070 2516,2149 3787,3218 -1265,-962 -2503,-1935 -3768,-2897 -290,53 -607,286 -819,538z" style="fill:#a68870"/>
   <path class="AccessorySOF3fil67" d="M11848 19341c289,-237 558,-596 728,-920 -1249,-1095 -2503,-2162 -3752,-3257 1142,1104 2290,2182 3432,3287 -9,294 -190,643 -408,890z" style="fill:#1ef682"/>
   <path class="AccessorySOF3fil67" d="M9272 11396c494,316 894,692 1199,1077 -594,716 -1188,1432 -1782,2148 489,-699 1024,-1481 1449,-2129 -78,-337 -469,-753 -866,-1096z" style="fill:#edf7c1"/>
   <path class="AccessorySOF3fil69" d="M11755 9053c48,9 88,56 98,109 -405,488 -825,965 -1230,1452 218,-370 1179,-1424 1132,-1561z" style="fill:#7d7c49"/>
   <path class="AccessorySOF3fil69" d="M15940 8236c38,-14 65,-58 66,-103 -396,-348 -1033,-845 -1430,-1193 227,276 1385,1177 1364,1296z" style="fill:#99eed3"/>
   <path class="AccessorySOF3fil69" d="M14631 4872c36,6 66,41 73,81 -304,366 -619,724 -923,1090 164,-278 885,-1069 850,-1171z" style="fill:#24117a"/>
   <path class="AccessorySOF3fil69" d="M11066 4101c7,-34 41,-63 79,-69 349,294 690,600 1039,894 -265,-159 -1019,-857 -1118,-825z" style="fill:#d7cf5e"/>
   <path class="AccessorySOF3fil69" d="M7161 8077c10,-47 58,-86 111,-95 479,414 1327,1117 1806,1531 -365,-224 -1779,-1479 -1917,-1436z" style="fill:#cb2230"/>
   <path class="AccessorySOF3fil69" d="M13435 13372c46,-16 78,-69 79,-123 -479,-415 -2187,-1839 -2666,-2253 275,329 2611,2234 2587,2376z" style="fill:#364faf"/>
   <path class="AccessorySOF3fil67" d="M5691 16978c172,127 344,264 517,418 -125,59 -210,169 -275,306 -155,-148 -325,-281 -515,-394 145,-65 231,-179 273,-330z" style="fill:#9793fa"/>
   <path class="AccessorySOF3fil67" d="M5139 17968c107,-38 188,-186 234,-257 143,115 354,271 491,460 -77,40 -186,141 -201,232 -117,-145 -311,-316 -524,-435z" style="fill:#6a137a"/>
   <path class="AccessorySOF3fil67" d="M4736 21084c379,-75 350,-1481 428,-2536 -4,841 -4,1686 -8,2526 -139,5 -282,5 -420,10z" style="fill:#606d2f"/>
   <path class="AccessorySOF3fil67" d="M5279 21898c76,-129 32,-338 -16,-473 158,-10 343,-30 518,-80 -71,102 -57,324 -7,454 -131,51 -358,82 -495,99z" style="fill:#ea5023"/>
   <path class="AccessorySOF3fil67" d="M9451 24548l-3153 -2646 3273 2462c2,73 -40,134 -120,184z" style="fill:#7aaefc"/>
   <path class="AccessorySOF3fil67" d="M6776 21932c853,405 1706,809 2559,1214 2,82 -34,145 -79,204 -827,-473 -1653,-945 -2480,-1418z" style="fill:#6426f4"/>
   <path class="AccessorySOF3fil67" d="M451 24845l3631 -3139c-1163,1092 -2326,2185 -3489,3277 -66,-28 -113,-74 -142,-138z" style="fill:#3ea814"/>
   <path class="AccessorySOF3fil67" d="M325 23292l3317 -1657c-1061,624 -2179,1204 -3241,1828 -36,-42 -82,-117 -76,-171z" style="fill:#ae2896"/>
   <path class="AccessorySOF3fil69" d="M6674 17675c945,14 1889,29 2833,43 29,36 28,96 17,123 -950,-56 -1900,-111 -2850,-166z" style="fill:#11c3e4"/>
   <path class="AccessorySOF3fil69" d="M6914 18708c1105,920 2210,1840 3316,2760 12,50 -52,111 -82,94 -1078,-952 -2156,-1903 -3234,-2854z" style="fill:#c0997a"/>
   <path class="AccessorySOF3fil69" d="M5980 19059c161,825 323,1649 484,2474 -35,33 -107,49 -140,25 -115,-833 -229,-1666 -344,-2499z" style="fill:#08943a"/>
   <path class="AccessorySOF3fil69" d="M4350 13549c234,994 472,2001 706,2996 -190,-1003 -381,-2005 -571,-3008 -13,-22 -109,-31 -135,12z" style="fill:#d3d5fd"/>
   <path class="AccessorySOF3fil69" d="M666 13477c1170,978 2363,1991 3533,2968 -1195,-944 -2412,-1924 -3608,-2868 -1,-55 37,-97 75,-100z" style="fill:#a1a92d"/>
   <path class="AccessorySOF3fil69" d="M1291 17203c826,11 1653,21 2479,31 -833,29 -1665,58 -2498,87 -24,-44 -15,-110 19,-118z" style="fill:#07479a"/>
  </g>
 </g><g id="HairBack-Rabbit0">
  <animateTransform additive="sum" attributeName="transform" dur="10" repeatCount="indefinite" type="translate" values="0;0 200;0;0 200;0;0 200;0;0 200;0"/>
  <metadata id="CorelCorpID_0Corel-Layer"/>
  <rect class="HairBack-Rabbit0fil0" height="889.5" width="889.5" x="13237.19" y="6589.66"/>
 </g><g id="RightFoot-Rabbit0">
  <metadata id="CorelCorpID_4Corel-Layer"/>
  <path class="RightFoot-Rabbit0fil27" d="M17611.19 25439.21c-123.56,214.04 -403.48,285.33 -610.7,105.88 -70.65,70.23 -293.11,185.78 -526.32,65.76 -538.29,-277.03 -1055.04,-639.06 -1398.31,-887.33 -220.49,-159.46 -188.05,-525.91 -70.64,-700.58 363.68,340.29 782.66,-165.21 1075.55,-247.93 373.84,-101.68 736.94,157.82 534.63,412.54 198.78,95.76 1024.55,447.2 1177.27,620.9 168.78,191.95 120.75,630.76 -181.48,630.76z" style="fill:#5aa707"/>
  <path class="RightFoot-Rabbit0fil10" d="M17619.89 25467.81c-123.56,214.04 -392.89,285.33 -600.11,105.88 -263.27,261.71 -916.66,-12.43 -1207.68,-387.7 -314.79,-217.24 -676.79,-421.62 -795.64,-500.03 -156.12,-103 -53.19,-398.33 -20.96,-584.15 17.85,-13.98 36.32,-26.67 55.45,-37.83 -59.89,533.31 1968.85,1766.03 1957.44,1098.35 213.34,341.57 585.05,186.16 533.82,-150.27 126.71,133.91 271.29,-14.39 142.78,-274 182.48,62.12 215.54,288.03 209.67,440.56 -17.28,153.49 -106.7,289.19 -274.77,289.19z" style="fill:#2fc172"/>
  <path class="RightFoot-Rabbit0fil0" d="M16655.48 24185.7c277.12,231.33 479.91,239.56 632.6,413.23 168.75,191.92 120.75,630.76 -181.48,630.76 -123.56,214.04 -403.48,285.33 -610.7,105.88 -70.65,70.23 -276.53,145.76 -526.32,65.76 -409.3,-131.08 -519.97,-488.94 -871.1,-725.96 -156.04,-105.33 -138.82,-331.38 -109.24,-523.93" style="fill:#522515"/>
  <path class="RightFoot-Rabbit0fil28" d="M16703.53 24128.28c-32.23,14.49 -151.74,68.29 -96.1,114.84 143.13,119.49 265.97,181.45 373.06,235.47 99.11,49.99 720.41,275.03 788.45,352.42 80.91,92.01 97.3,255.88 55.21,369.54 -18.07,48.79 -77.99,123.14 -125.37,147 7.55,-268.78 -114.77,-534.12 -402.24,-526.25 186.74,95.17 268.32,253.8 247.69,592.25 -49.04,79.15 -127.69,137.43 -219.87,155.2 -79.73,15.37 -160.2,-1.74 -228.24,-45.5 38.29,-218.05 10.29,-483.64 -289.14,-537.54 139.24,98.32 162.69,330.02 141.92,510.69 -31.45,29.61 -97.92,60.43 -188.69,71.77 -74.89,9.35 -163.69,4.41 -259.78,-26.36 -221.4,-70.9 -389.39,-150.77 -526.67,-306.64 -103.47,-117.46 -723.13,-457.1 -875.28,-559.8 -56.89,-38.4 -106.48,-200.43 -115.52,-274.13 -5.91,-48.16 -12.39,-90.93 -7.5,-133.2 3.75,-32.35 5.98,-48.97 23.54,-102.83 14.63,-97.52 -109.65,-115.23 -144.78,-21.39 -12.89,39.53 -20.74,74.23 -25.45,109.36 -7,52.14 -2.13,105.01 5.37,166.22 13.96,113.78 81.43,313.29 180.56,380.19 136.05,91.83 749.3,424.19 846.56,534.6 151.08,171.53 332.23,266.34 593.47,350 119.65,38.32 230.28,44.46 323.64,32.8 92.59,-11.56 170.46,-41.41 225.37,-75.73 103.09,69.99 225.69,98.3 348.74,74.57 124.29,-23.96 233.03,-98.13 304.52,-201.86 136.16,-15.63 261.32,-136.4 307.77,-261.86 61.19,-165.25 34.13,-386.54 -83.33,-520.12 -86.71,-98.62 -720.16,-329.8 -833.57,-387 -99.73,-50.31 -214.13,-108.01 -344.34,-216.71z" style="fill:#44678d"/>
 </g><g id="LeftFoot-Rabbit0">
  <metadata id="CorelCorpID_13Corel-Layer"/>
  <path class="LeftFoot-Rabbit0fil27" d="M9752.69 25439.21c123.56,214.04 403.48,285.33 610.7,105.88 70.65,70.23 276.53,145.75 526.32,65.76 409.29,-131.08 1021.6,-618.6 1364.87,-866.87 220.49,-159.46 204.8,-507.21 104.08,-721.04 -363.68,340.29 -782.66,-165.21 -1075.55,-247.93 -373.84,-101.68 -736.94,157.82 -534.63,412.54 -198.78,95.76 -1024.55,447.2 -1177.27,620.9 -168.78,191.95 -120.75,630.76 181.48,630.76z" style="fill:#842cd4"/>
  <path class="LeftFoot-Rabbit0fil10" d="M9743.99 25467.81c123.56,214.04 392.89,285.33 600.11,105.88 263.27,261.71 916.66,-12.43 1207.68,-387.7 314.79,-217.24 676.79,-421.62 795.64,-500.03 156.12,-103 53.19,-398.33 20.96,-584.15 -17.85,-13.98 -36.32,-26.67 -55.45,-37.83 59.89,533.31 -1968.85,1766.03 -1957.44,1098.35 -213.34,341.57 -585.05,186.16 -533.82,-150.27 -126.71,133.91 -271.29,-14.39 -142.78,-274 -182.48,62.12 -215.54,288.03 -209.67,440.56 17.28,153.49 106.7,289.19 274.77,289.19z" style="fill:#a02a44"/>
  <path class="LeftFoot-Rabbit0fil0" d="M10708.4 24185.7c-277.12,231.33 -479.91,239.56 -632.6,413.23 -168.75,191.92 -120.75,630.76 181.48,630.76 123.56,214.04 403.48,285.33 610.7,105.88 70.65,70.23 276.53,145.76 526.32,65.76 409.3,-131.08 519.97,-488.94 871.1,-725.96 156.04,-105.33 138.82,-331.38 109.24,-523.93" style="fill:#f0ce20"/>
  <path class="LeftFoot-Rabbit0fil28" d="M10660.35 24128.28c32.23,14.49 151.74,68.29 96.1,114.84 -143.13,119.49 -265.97,181.45 -373.06,235.47 -99.11,49.99 -720.41,275.03 -788.45,352.42 -80.91,92.01 -97.3,255.88 -55.21,369.54 18.07,48.79 77.99,123.14 125.37,147 -7.55,-268.78 114.77,-534.12 402.24,-526.25 -186.74,95.17 -268.32,253.8 -247.69,592.25 49.04,79.15 127.69,137.43 219.87,155.2 79.73,15.37 160.2,-1.74 228.24,-45.5 -38.29,-218.05 -10.29,-483.64 289.14,-537.54 -139.24,98.32 -162.69,330.02 -141.92,510.69 31.45,29.61 97.92,60.43 188.69,71.77 74.89,9.35 163.69,4.41 259.78,-26.36 221.4,-70.9 389.39,-150.77 526.67,-306.64 103.47,-117.46 723.13,-457.1 875.28,-559.8 56.89,-38.4 106.48,-200.43 115.52,-274.13 5.91,-48.16 12.39,-90.93 7.5,-133.2 -3.75,-32.35 -5.98,-48.97 -23.54,-102.83 -14.63,-97.52 109.65,-115.23 144.78,-21.39 12.89,39.53 20.74,74.23 25.45,109.36 7,52.14 2.13,105.01 -5.37,166.22 -13.96,113.78 -81.43,313.29 -180.56,380.19 -136.05,91.83 -749.3,424.19 -846.56,534.6 -151.08,171.53 -332.23,266.34 -593.47,350 -119.65,38.32 -230.28,44.46 -323.64,32.8 -92.59,-11.56 -170.46,-41.41 -225.37,-75.73 -103.09,69.99 -225.69,98.3 -348.74,74.57 -124.29,-23.96 -233.03,-98.13 -304.52,-201.86 -136.16,-15.63 -261.32,-136.4 -307.77,-261.86 -61.19,-165.25 -34.13,-386.54 83.33,-520.12 86.71,-98.62 720.16,-329.8 833.57,-387 99.73,-50.31 214.13,-108.01 344.34,-216.71z" style="fill:#3ec8c3"/>
 </g><g id="RightLeg-Rabbit0">
  <metadata id="CorelCorpID_7Corel-Layer"/>
  <path class="RightLeg-Rabbit0fil31" d="M13681.96 23259.3c350.13,0 1187.7,54.85 1405.45,467.27 87.55,165.82 -151.71,216.56 -84.09,308.83 214.87,221.86 637.04,349.26 895.5,148.38 312.37,-242.78 712.13,-231.34 719.72,-12.18 370.09,-264.31 864.16,-647.7 865.47,-1092.28 2.53,-860.67 -851.23,-1651.69 -1153.94,-1891.1 -621.48,859.57 -1470.39,1269.07 -2648.11,1328.08l0 743z" style="fill:#bca95a"/>
  <path class="RightLeg-Rabbit0fil27" d="M15041.74 23686.98c95.88,103.18 -23.84,202.94 -38.42,358.42 214.87,221.86 637.05,349.26 895.5,148.38 312.37,-242.77 712.13,-231.34 719.72,-12.18 500.6,-357.52 1118.93,-754.49 755.85,-1660.39 -386.13,1194.45 -1463.35,1524.06 -2332.65,1165.77z" style="fill:#74124f"/>
  <path class="RightLeg-Rabbit0fil28" d="M16285.67 21248.32c474.85,376.94 1120.37,1042.59 1118.33,1735.75 -1.13,388.03 -178.15,727.78 -465.88,963.66 -200.45,164.33 -440.69,212.09 -574.07,330.27 171.14,-34.1 422.55,-72.82 630.16,-223.79 362.58,-263.67 557.8,-589.45 559.21,-1070.14 2.19,-736.68 -664.8,-1449.29 -1177.06,-1854.44l-46.29 58.59 -44.38 60.1 -0.02 0z" style="fill:#c29ad3"/>
  <path class="RightLeg-Rabbit0fil10" d="M17375.94 23464.04c67.26,-148.73 106.69,-305.87 107.15,-464.07 2.29,-775.51 -724.56,-1425.03 -1053.4,-1726.35l-157.05 727.06c26.43,47.89 52.85,95.78 79.28,143.67 387.48,-413.26 1131.08,852.41 1024.02,1319.69z" style="fill:#770c95"/>
  <path class="RightLeg-Rabbit0fil28" d="M13681.96 23156.77c0,53.89 0,70.23 0,150.29 1.05,-0.09 369.66,-11.33 754.66,102.19 128.96,38.03 326.86,124.14 481.95,220.11 121.28,75.04 227.25,140.61 294.6,161.31 67.97,20.91 336.72,117.86 720.21,19.22 -408.62,-65.2 -515.39,-112.7 -675.71,-162 -47.86,-14.71 -146.31,-75.63 -259,-145.36 -162.97,-100.83 -370.1,-192.66 -519.34,-236.67 -413.86,-122.04 -796.24,-109.25 -797.37,-109.09z" style="fill:#0d91d4"/>
  <path class="RightLeg-Rabbit0fil28" d="M14852.37 24149.58c-6.63,40.77 19.98,82.54 60.75,89.17 40.77,6.63 59.9,0.68 77.73,-47.56 3.27,-19.88 35.74,-71.71 63.2,-114.07 105.22,-162.3 243.27,-375.23 -65.46,-578.32 -34.46,-22.65 -80.77,-13.08 -103.42,21.38 -22.65,34.46 -13.08,80.77 21.38,103.42 184.59,121.43 92.39,263.67 22.1,372.08 -36.56,56.4 -63.62,104.09 -76.28,153.9z" style="fill:#8a764f"/>
 </g><g id="LeftLeg-Rabbit0">
  <metadata id="CorelCorpID_16Corel-Layer"/>
  <path class="LeftLeg-Rabbit0fil39" d="M13681.92 23259.3c-350.13,0 -1187.72,54.86 -1405.45,467.27 -87.54,165.8 123.6,236.81 55.98,329.08 -214.87,221.86 -622.19,269.45 -880.62,68.6 -312.34,-242.75 -743.45,-195.49 -751.04,23.67 -453.63,-190.83 -819.62,-624.03 -820.92,-1068.6 -2.52,-860.66 851.23,-1651.69 1153.94,-1891.1 621.48,859.57 1470.39,1269.07 2648.11,1328.08l0 743z" style="fill:#187a6a"/>
  <path class="LeftLeg-Rabbit0fil27" d="M12299.44 23686.98c-95.88,103.18 23.84,202.94 38.42,358.42 -214.87,221.86 -637.05,349.26 -895.5,148.38 -312.37,-242.77 -712.13,-231.34 -719.72,-12.18 -500.6,-357.52 -1118.93,-754.49 -755.85,-1660.39 386.13,1194.45 1463.35,1524.06 2332.65,1165.77z" style="fill:#4a9303"/>
  <path class="LeftLeg-Rabbit0fil10" d="M9987.94 23464.04c-67.26,-148.73 -106.69,-305.87 -107.15,-464.07 -2.29,-775.51 724.56,-1425.03 1053.4,-1726.35l157.05 727.06c-26.43,47.89 -52.85,95.78 -79.28,143.67 -387.48,-413.26 -1131.08,852.41 -1024.02,1319.69z" style="fill:#3f7e5d"/>
  <path class="LeftLeg-Rabbit0fil28" d="M13681.96 23156.77c0,53.89 0,70.23 0,150.29 -1.05,-0.09 -369.7,-11.33 -754.7,102.19 -128.96,38.03 -326.86,124.14 -481.95,220.11 -121.28,75.04 -227.25,140.61 -294.6,161.31 -67.97,20.91 -336.72,117.86 -720.21,19.22 408.62,-65.2 515.39,-112.7 675.71,-162 47.86,-14.71 146.31,-75.63 259,-145.36 162.97,-100.83 370.1,-192.66 519.34,-236.67 413.86,-122.04 796.28,-109.25 797.41,-109.09z" style="fill:#49b732"/>
  <path class="LeftLeg-Rabbit0fil28" d="M12511.51 24149.58c6.63,40.77 -19.98,82.54 -60.75,89.17 -40.77,6.63 -59.9,0.68 -77.73,-47.56 -3.27,-19.88 -35.74,-71.71 -63.2,-114.07 -105.22,-162.3 -243.27,-375.23 65.46,-578.32 34.46,-22.65 80.77,-13.08 103.42,21.38 22.65,34.46 13.08,80.77 -21.38,103.42 -184.59,121.43 -92.39,263.67 -22.1,372.08 36.56,56.4 63.62,104.09 76.28,153.9z" style="fill:#dad7bf"/>
  <path class="LeftLeg-Rabbit0fil28" d="M11078.21 21248.32c-474.85,376.94 -1120.37,1042.59 -1118.33,1735.75 1.13,388.03 178.15,727.78 465.88,963.66 200.45,164.33 440.69,212.09 574.07,330.27 -171.14,-34.1 -422.55,-72.82 -630.16,-223.79 -362.58,-263.67 -557.8,-589.45 -559.21,-1070.14 -2.19,-736.68 664.8,-1449.29 1177.06,-1854.44l46.29 58.59 44.38 60.1 0.02 0z" style="fill:#bebb1c"/>
 </g><g id="RightHand-Rabbit0">
  <animateTransform additive="sum" attributeName="transform" dur="10" repeatCount="indefinite" type="translate" values="0;0 200;0;0 200;0;0 200;0;0 200;0"/>
  <metadata id="CorelCorpID_22Corel-Layer"/>
  <path class="RightHand-Rabbit0fil46" d="M16231.2 17708.66c1006.56,345.42 1818.61,1401.79 2256.58,2165.43 288.88,503.69 -636.05,1265.03 -911.19,1013.52 -627.05,-573.17 -1208.37,-619.78 -1688.45,-542.15 -741.88,119.97 -1352.69,-1920.87 -930.81,-2545.29 421.91,-21.63 933.51,-40.49 1273.87,-91.51z" style="fill:#29cfa4"/>
  <path class="RightHand-Rabbit0fil10" d="M17511.96 20830.3c-602.27,-518.8 -1160.28,-559.8 -1623.82,-484.84 -171.07,27.66 -335.13,-59.69 -481.2,-217.95 -325.13,-471.76 752.73,-1097.7 1038.62,-655.88 261.31,403.84 734.1,847.76 1111.39,1126.01 -1.79,93.3 16.27,193.39 -44.96,232.66l0 -0.01 -0.03 0.01z" style="fill:#df6395"/>
  <path class="RightHand-Rabbit0fil0 RightHand-Rabbit0str0" d="M16476.95 20332.96c340.18,46.54 711.15,199.54 1099.64,554.65 275.13,251.49 1152.89,-508.63 864.02,-1012.31 -437.96,-763.63 -1202.86,-1821.23 -2209.41,-2166.64 -90.05,-30.9 -171.83,-58.83 -246.03,-84.05" style="fill:#6a524b"/>
 </g><g id="LeftHand-Rabbit0">
   <animateTransform additive="sum" attributeName="transform" dur="10" repeatCount="indefinite" type="translate" values="0;0 200;0;0 200;0;0 200;0;0 200;0"/>
  <metadata id="CorelCorpID_31Corel-Layer"/>
  <path class="LeftHand-Rabbit0fil52" d="M11132.64 17708.66c-1006.56,345.42 -1818.61,1401.79 -2256.58,2165.43 -288.88,503.69 636.05,1265.03 911.19,1013.52 627.05,-573.17 1208.37,-619.78 1688.45,-542.15 741.88,119.97 1352.69,-1920.87 930.81,-2545.29 -421.91,-21.63 -933.51,-40.49 -1273.87,-91.51z" style="fill:#950655"/>
  <path class="LeftHand-Rabbit0fil10" d="M9851.88 20830.3c602.27,-518.8 1160.28,-559.8 1623.82,-484.84 171.07,27.66 335.13,-59.69 481.2,-217.95 325.13,-471.76 -752.73,-1097.7 -1038.62,-655.88 -261.31,403.84 -734.1,847.76 -1111.39,1126.01 1.79,93.3 -16.27,193.39 44.96,232.66l0 -0.01 0.03 0.01z" style="fill:#dbce46"/>
  <path class="LeftHand-Rabbit0fil0 LeftHand-Rabbit0str0" d="M10886.89 20332.96c-340.18,46.54 -711.15,199.54 -1099.64,554.65 -275.13,251.49 -1152.89,-508.63 -864.02,-1012.31 437.96,-763.63 1202.86,-1821.23 2209.41,-2166.64 90.05,-30.9 171.83,-58.83 246.03,-84.05" style="fill:#121c0c"/>
 </g><g id="Body-Rabbit0">
   <animateTransform additive="sum" attributeName="transform" dur="10" repeatCount="indefinite" type="translate" values="0;0 200;0;0 200;0;0 200;0;0 200;0"/>
  <metadata id="CorelCorpID_37Corel-Layer"/>
  <path class="Body-Rabbit0fil58" d="M13681.92 23134.87c-1547.89,0 -2751.5,-290.59 -2992.7,-1955.85 -146.87,-1014.04 390.42,-2286.86 991,-3419.88 634.24,80.29 1288.94,123.26 2001.7,142.31 712.76,-19.05 1367.46,-62.02 2001.7,-142.31 600.58,1133.02 1137.87,2405.84 991,3419.88 -241.2,1665.26 -1444.81,1955.85 -2992.7,1955.85z" style="fill:#c41afa"/>
  <path class="Body-Rabbit0fil10" d="M12620.51 23067.29c-1015.93,-155.83 -1748.88,-628.88 -1931.29,-1888.27 -75.17,-519 28.96,-1105.79 228.98,-1706.93 -223.57,2000.42 401.77,3257.02 1702.31,3595.2z" style="fill:#065cda"/>
  <path class="Body-Rabbit0fil28" d="M11011.96 22144.35c-249.8,-320.87 -347.52,-640.99 -396.86,-954.78 -59.27,-376.93 -23.8,-997.6 184.1,-1319.31 -78.5,420.39 -93.5,905.22 -35.86,1298.21 50,340.9 103.32,571.56 248.62,975.88z" style="fill:#47a659"/>
  <path class="Body-Rabbit0fil59" d="M13681.92 18224.34c-910.76,0 -1629.68,-343.53 -1974.1,388.03 -874.88,1858.28 -905.44,4362.5 1974.1,4362.5 2879.54,0 2848.98,-2504.22 1974.1,-4362.5 -344.42,-731.56 -1063.34,-388.03 -1974.1,-388.03z" style="fill:#ca0fda"/>
  <path class="Body-Rabbit0fil10" d="M14743.33 23067.29c1015.93,-155.83 1748.88,-628.88 1931.29,-1888.27 75.17,-519 -28.96,-1105.79 -228.98,-1706.93 223.57,2000.42 -401.77,3257.02 -1702.31,3595.2z" style="fill:#b56f07"/>
  <path class="Body-Rabbit0fil28" d="M16351.92 22144.35c249.8,-320.87 347.52,-640.99 396.86,-954.78 59.27,-376.93 23.8,-997.6 -184.1,-1319.31 78.5,420.39 93.5,905.22 35.86,1298.21 -50,340.9 -103.32,571.56 -248.62,975.88z" style="fill:#38c203"/>
 </g><g id="RightPaw-Rabbit0">
  <animateTransform additive="sum" attributeName="transform" dur="10" repeatCount="indefinite" type="translate" values="0;0 200;0;0 200;0;0 200;0;0 200;0"/>
  <metadata id="CorelCorpID_28Corel-Layer"/>
  <path class="RightPaw-Rabbit0fil27" d="M17500.83 20836.37c-31.01,671.59 506.32,1058.8 828,765.31 253.5,397.35 884.17,103.39 809.26,-292.5 203.13,-535.14 -266.24,-1035.76 -634.19,-1325.08 -198.11,-64.5 -364.18,-247.68 -461.85,44.06 -113.97,340.43 -156.85,278.81 -402.23,397.75 -163.53,79.26 -10.67,351.89 -138.99,410.46z" style="fill:#963859"/>
  <path class="RightPaw-Rabbit0fil10" d="M17500.83 20836.37c-31.01,671.59 506.32,1058.8 828,765.31 341.06,429.25 911,23.85 753.65,-292.7 -65.31,297.19 -520.59,407.83 -657.17,-118.23 -113.25,412.02 -522.03,237.66 -614.7,26.73 -95.14,-216.58 -44.81,-462.8 -253.66,-619.84 -1.8,93.31 16.28,193.4 -44.96,232.65l-0.16 0.1 -0.17 0.11c-1.48,0.93 -2.97,1.82 -4.53,2.69l-0.17 0.1 -0.18 0.09 -0.14 0.09 -0.03 0.01 -0.18 0.1 -0.17 0.09 -0.18 0.09c-1.69,0.92 -3.44,1.79 -5.25,2.61z" style="fill:#eda9d0"/>
  <path class="RightPaw-Rabbit0fil28" d="M17436.91 20673.48c-79.39,-58.19 -167.86,62.52 -88.48,120.7 28.24,20.69 56.25,42.36 83.3,64.61 -3.93,302.02 99.68,551.64 246.17,712.18 55.54,60.86 117.82,109.47 183.4,143.86 145.9,76.49 311.53,82.65 453.24,-7.98 209.57,238.5 583.03,191.12 784.7,-34.27 86.01,-96.11 134.73,-220.26 115.83,-356.13 82.54,-234.31 46.25,-463.42 -52.44,-673.52 -132.46,-282 -402.86,-497.73 -588.08,-703.58 -33.5,-37.22 -180.19,-286.69 -214.16,-345.48 -58.56,-79 -178.69,10.05 -120.12,89.06 35.43,47.77 75.16,120.11 111.48,186.29 6.41,11.67 81.45,153.11 123.81,187.52 201.58,163.8 430.96,392.41 551.71,649.47 38.04,80.97 65.19,164.94 76.97,250.68 -53.73,-69.19 -156.09,-151.42 -275.06,-139.39 80.64,67.61 125.53,143.46 171.18,252.76 65.8,157.59 113.11,362.41 -12.44,502.72 -141.93,158.63 -411.75,205.47 -562.48,33.5 115.64,-164.64 117.79,-464.48 -80.37,-548.33 54.53,102.27 47.95,374.07 -54.76,476.76 -86.33,86.32 -222.41,119.56 -359.87,47.5 -49.57,-25.99 -97.71,-63.9 -141.8,-112.22 -128.18,-140.48 -217.35,-364.86 -206.61,-639.48 1.55,-21.67 -6.3,-43.83 -23.35,-59.87 -36.49,-34.26 -81.32,-67.73 -121.77,-97.36z" style="fill:#13b012"/>
 </g><g id="LeftPaw-Rabbit0">
   <animateTransform additive="sum" attributeName="transform" dur="10" repeatCount="indefinite" type="translate" values="0;0 200;0;0 200;0;0 200;0;0 200;0"/>
  <metadata id="CorelCorpID_43Corel-Layer"/>
  <path class="LeftPaw-Rabbit0fil27" d="M9863.01 20836.37c31.01,671.59 -506.32,1058.8 -828,765.31 -253.5,397.35 -884.17,103.39 -809.26,-292.5 -203.13,-535.14 266.24,-1035.76 634.19,-1325.08 198.11,-64.5 364.18,-247.68 461.85,44.06 113.97,340.43 156.85,278.81 402.23,397.75 163.53,79.26 10.67,351.89 138.99,410.46z" style="fill:#885e01"/>
  <path class="LeftPaw-Rabbit0fil10" d="M9863.01 20836.37c31.01,671.59 -506.32,1058.8 -828,765.31 -341.06,429.25 -911,23.85 -753.65,-292.7 65.31,297.19 520.59,407.83 657.17,-118.23 113.25,412.02 522.03,237.66 614.7,26.73 95.14,-216.58 44.81,-462.8 253.66,-619.84 1.8,93.31 -16.28,193.4 44.96,232.65l0.16 0.1 0.17 0.11c1.48,0.93 2.97,1.82 4.53,2.69l0.17 0.1 0.18 0.09 0.14 0.09 0.03 0.01 0.18 0.1 0.17 0.09 0.18 0.09c1.69,0.92 3.44,1.79 5.25,2.61z" style="fill:#9656b7"/>
  <path class="LeftPaw-Rabbit0fil28" d="M9926.93 20673.48c79.39,-58.19 167.86,62.52 88.48,120.7 -28.24,20.69 -56.25,42.36 -83.3,64.61 3.93,302.02 -99.68,551.64 -246.17,712.18 -55.54,60.86 -117.82,109.47 -183.4,143.86 -145.9,76.49 -311.53,82.65 -453.24,-7.98 -209.57,238.5 -583.03,191.12 -784.7,-34.27 -86.01,-96.11 -134.73,-220.26 -115.83,-356.13 -82.54,-234.31 -46.25,-463.42 52.44,-673.52 132.46,-282 402.86,-497.73 588.08,-703.58 33.5,-37.22 180.19,-286.69 214.16,-345.48 58.56,-79 178.69,10.05 120.12,89.06 -35.43,47.77 -75.16,120.11 -111.48,186.29 -6.41,11.67 -81.45,153.11 -123.81,187.52 -201.58,163.8 -430.96,392.41 -551.71,649.47 -38.04,80.97 -65.19,164.94 -76.97,250.68 53.73,-69.19 156.09,-151.42 275.06,-139.39 -80.64,67.61 -125.53,143.46 -171.18,252.76 -65.8,157.59 -113.11,362.41 12.44,502.72 141.93,158.63 411.75,205.47 562.48,33.5 -115.64,-164.64 -117.79,-464.48 80.37,-548.33 -54.53,102.27 -47.95,374.07 54.76,476.76 86.33,86.32 222.41,119.56 359.87,47.5 49.57,-25.99 97.71,-63.9 141.8,-112.22 128.18,-140.48 217.35,-364.86 206.61,-639.48 -1.55,-21.67 6.3,-43.83 23.35,-59.87 36.49,-34.26 81.32,-67.73 121.77,-97.36z" style="fill:#3d57d0"/>
 </g><g id="Ears-Rabbit10">
   <animateTransform additive="sum" attributeName="transform" dur="10" repeatCount="indefinite" type="translate" values="0;0 200;0;0 200;0;0 200;0;0 200;0"/>
  <metadata id="CorelCorpID_56Corel-Layer"/>
  <g id="_2131679818032">
   <path class="Ears-Rabbit10fil140 Ears-Rabbit10str0" d="M10762.9 9248.72c71.03,33.16 200,-729.18 306.27,-2141.36 170.7,-2268.31 -30.04,-5640.4 -2621.51,-6426.65 -1275.76,-387.04 -1529.15,71.79 -1983.77,1426.45 -839.18,2500.58 -446.65,5157.17 715.72,5902.87 1649.72,1058.35 1327.5,3176.35 1329.9,3194.55 1124.96,-52 1601.19,-1061.52 2253.39,-1955.86z" style="fill:#250e3f"/>
   <path class="Ears-Rabbit10fil141" d="M8448.01 677.58c-1277.47,-371.53 -1526.28,46.03 -1967.69,1282.64 -814.81,2282.67 -349.02,4991.84 818.56,5690.86 1657.12,992.1 2165.04,2849.27 2167.6,2866 14.46,-62.74 -131.05,-600.95 172.52,-1935.42 322.32,-1416.89 700.47,-1980.12 938.71,-3046.83 388.58,-1739.83 -278.18,-4318.77 -2129.7,-4857.25z" style="fill:#967b63"/>
   <path class="Ears-Rabbit10fil142" d="M7796.99 7952.23c-2120.52,-1861.28 -272.99,-5985.58 101.33,-5994.58 614.13,-14.77 2944,1146.21 2404.73,4663.91 -115.03,341.16 -526.53,1414.04 -650.56,1892 -221.32,852.8 -177.97,2006.98 -178.48,2002.25 -234.94,-991 -1411.62,-2210.31 -1677.02,-2563.58z" style="fill:#56737c"/>
   <path class="Ears-Rabbit10fil143" d="M8634.14 8791.58c-1928.8,-2038.74 -828.62,-4825.46 -337.4,-5119.85 200,-119.86 1918.36,936.03 1666.15,3903.23 -105.59,313.14 -212.07,668.14 -312.8,1110.96 -142.6,626.82 -205.36,1430.82 -163.82,1837.84 -215.66,-909.63 -608.52,-1407.91 -852.13,-1732.18z" style="fill:#19fbc2"/>
   <path class="Ears-Rabbit10fil0 Ears-Rabbit10str0" d="M8448.01 677.58c-1277.47,-371.53 -1526.28,46.03 -1967.69,1282.64 -814.81,2282.67 -349.01,4991.84 818.56,5690.86 1657.12,992.09 2170.29,2838.46 2172.85,2855.19 5.62,-159.74 -136.29,-590.13 167.27,-1924.61 322.32,-1416.88 700.47,-1980.12 938.71,-3046.83 388.58,-1739.83 -278.18,-4318.77 -2129.7,-4857.25z" style="fill:#2cdff4"/>
   <path class="Ears-Rabbit10fil76" d="M11113.81 5831.1c0,0 -22.2,-1.32 -44.18,107.38 -28.93,143.05 -54.35,517.5 -135.12,801.97 -126.47,445.49 -338.79,946.02 -641.54,1571.06 -643.04,1327.54 -567.91,2248.2 -567.91,2248.2 0,0 1035.25,-705.42 1159.59,-1724.05 124.34,-1018.64 302.44,-2504.84 229.16,-3004.56z" style="fill:#f83ea0"/>
   <path class="Ears-Rabbit10fil76" d="M7613.86 8352.48c325.89,8 1796.98,1939.52 1680.68,2487.79 -102.33,482.36 -779.22,308.23 -779.22,308.23 0,0 159.79,-1717.35 -901.46,-2796.02z" style="fill:#7c7a65"/>
   <path class="Ears-Rabbit10fil10" d="M6065.53 3911.41c176.76,-1355.87 723.81,-2709.26 1469.51,-2855.15 568.28,-111.19 1684.04,386.17 2310.5,1803.45 322.36,729.36 445.43,1291.59 451.38,1800.66 -381.22,-2002.94 -1917.11,-2714.28 -2398.6,-2702.72 -98.69,2.37 -371.95,369.61 -629.43,1052.94 951.3,-1797.85 2209.67,666.58 2605.76,1659.71 137.12,343.81 227.88,702.05 287.93,1031.07 -56.5,233.01 -126.38,472.18 -200.87,729.67 -201.35,-2097.81 -1493.19,-2862.26 -1664.97,-2759.31 -215.2,128.97 -547.25,736.3 -690.32,1549.52 466.79,-1259.94 1206.53,-1171.25 1741.88,60.13 -966.11,3325.53 -234.31,3236.05 30.11,4860.15 117.34,-682.1 321.88,-1777.86 491.26,-2414.83 -0.49,51.22 -1.71,100.64 -3.53,148.02 32.2,-104.69 64.51,-204.18 96.75,-299.76 6.24,-73.45 10.93,-145.4 14.82,-216.52 93.77,-283.66 195.65,-518.83 290.03,-774.93 2.57,43.58 4.59,84.33 6.14,121.76 11.13,-31.25 20.97,-59.38 29.17,-83.71 11.71,-76.44 21.61,-151.36 30.66,-225.59 16.66,-50.04 32.94,-101.35 48.73,-154.41 144.97,-487.05 248.12,-1133.45 294.44,-1446.68 347.7,-2350.97 -1716.72,-4912.37 -3528.99,-4076.9 -314.21,240.44 -423.63,587.01 -612.29,1145.7 -183.87,544.48 -368.45,1245.28 -470.07,2047.73z" style="fill:#6caccc"/>
  </g>
  <g id="_2131679813904">
   <path class="Ears-Rabbit10fil144 Ears-Rabbit10str0" d="M16600.98 9248.72c-71.03,33.16 -200,-729.18 -306.27,-2141.36 -170.7,-2268.31 30.04,-5640.4 2621.51,-6426.65 1275.76,-387.04 1529.15,71.79 1983.77,1426.45 839.18,2500.58 446.65,5157.17 -715.72,5902.87 -1649.72,1058.35 -1327.5,3176.35 -1329.9,3194.55 -1124.96,-52 -1601.19,-1061.52 -2253.39,-1955.86z" style="fill:#6f888e"/>
   <path class="Ears-Rabbit10fil145" d="M18915.87 677.58c1277.47,-371.53 1526.28,46.03 1967.69,1282.64 814.81,2282.67 349.02,4991.84 -818.56,5690.86 -1657.12,992.1 -2165.04,2849.27 -2167.6,2866 -14.46,-62.74 131.05,-600.95 -172.52,-1935.42 -322.32,-1416.89 -700.47,-1980.12 -938.71,-3046.83 -388.58,-1739.83 278.18,-4318.77 2129.7,-4857.25z" style="fill:#edad84"/>
   <path class="Ears-Rabbit10fil146" d="M19566.89 7952.23c2120.52,-1861.28 272.99,-5985.58 -101.33,-5994.58 -614.13,-14.77 -2944,1146.21 -2404.73,4663.91 115.03,341.16 526.53,1414.04 650.56,1892 221.32,852.8 177.97,2006.98 178.48,2002.25 234.94,-991 1411.62,-2210.31 1677.02,-2563.58z" style="fill:#9a257a"/>
   <path class="Ears-Rabbit10fil147" d="M18729.74 8791.58c1928.8,-2038.74 828.62,-4825.46 337.4,-5119.85 -200,-119.86 -1918.36,936.03 -1666.15,3903.23 105.59,313.14 212.07,668.14 312.8,1110.96 142.6,626.82 205.36,1430.82 163.82,1837.84 215.66,-909.63 608.52,-1407.91 852.13,-1732.18z" style="fill:#1fc8a3"/>
   <path class="Ears-Rabbit10fil0 Ears-Rabbit10str0" d="M18915.87 677.58c1277.47,-371.53 1526.28,46.03 1967.69,1282.64 814.81,2282.67 349.01,4991.84 -818.56,5690.86 -1657.12,992.09 -2170.29,2838.46 -2172.85,2855.19 -5.62,-159.74 136.29,-590.13 -167.27,-1924.61 -322.32,-1416.88 -700.47,-1980.12 -938.71,-3046.83 -388.58,-1739.83 278.18,-4318.77 2129.7,-4857.25z" style="fill:#09e3c6"/>
   <path class="Ears-Rabbit10fil76" d="M16250.07 5831.1c0,0 22.2,-1.32 44.18,107.38 28.93,143.05 54.35,517.5 135.12,801.97 126.47,445.49 338.79,946.02 641.54,1571.06 643.04,1327.54 567.91,2248.2 567.91,2248.2 0,0 -1035.25,-705.42 -1159.59,-1724.05 -124.34,-1018.64 -302.44,-2504.84 -229.16,-3004.56z" style="fill:#a82f70"/>
   <path class="Ears-Rabbit10fil76" d="M19750.02 8352.48c-325.89,8 -1796.98,1939.52 -1680.68,2487.79 102.33,482.36 779.22,308.23 779.22,308.23 0,0 -159.79,-1717.35 901.46,-2796.02z" style="fill:#dd2154"/>
   <path class="Ears-Rabbit10fil10" d="M21298.35 3911.41c-176.76,-1355.87 -723.81,-2709.26 -1469.51,-2855.15 -568.28,-111.19 -1684.04,386.17 -2310.5,1803.45 -322.36,729.36 -445.43,1291.59 -451.38,1800.66 381.22,-2002.94 1917.11,-2714.28 2398.6,-2702.72 98.69,2.37 371.95,369.61 629.43,1052.94 -951.3,-1797.85 -2209.67,666.58 -2605.76,1659.71 -137.12,343.81 -227.88,702.05 -287.93,1031.07 56.5,233.01 126.38,472.18 200.87,729.67 201.35,-2097.81 1493.19,-2862.26 1664.97,-2759.31 215.2,128.97 547.25,736.3 690.32,1549.52 -466.79,-1259.94 -1206.53,-1171.25 -1741.88,60.13 966.11,3325.53 234.31,3236.05 -30.11,4860.15 -117.34,-682.1 -321.88,-1777.86 -491.26,-2414.83 0.49,51.22 1.71,100.64 3.53,148.02 -32.2,-104.69 -64.51,-204.18 -96.75,-299.76 -6.24,-73.45 -10.93,-145.4 -14.82,-216.52 -93.77,-283.66 -195.65,-518.83 -290.03,-774.93 -2.57,43.58 -4.59,84.33 -6.14,121.76 -11.13,-31.25 -20.97,-59.38 -29.17,-83.71 -11.71,-76.44 -21.61,-151.36 -30.66,-225.59 -16.66,-50.04 -32.94,-101.35 -48.73,-154.41 -144.97,-487.05 -248.12,-1133.45 -294.44,-1446.68 -347.7,-2350.97 1716.72,-4912.37 3528.99,-4076.9 314.21,240.44 423.63,587.01 612.29,1145.7 183.87,544.48 368.45,1245.28 470.07,2047.73z" style="fill:#fa1388"/>
  </g>
 </g><g id="Head-Rabbit5">
   <animateTransform additive="sum" attributeName="transform" dur="10" repeatCount="indefinite" type="translate" values="0;0 200;0;0 200;0;0 200;0;0 200;0"/>
  <metadata id="CorelCorpID_65Corel-Layer"/>
  <path class="Head-Rabbit5fil178" d="M13681.94 7484.8c-445.34,3.91 -928,85.23 -1427.99,229.61 -1103.62,371.14 -2203.53,1165.08 -3042.09,2204.93 -1205.15,1494.44 -873.15,1203.93 -1580.65,2915.57 -539.03,1304.04 -1168.62,733.51 -1297.48,754.47 267.46,916.27 831.17,972.32 1178.54,1031.08 -221.07,307.54 -745.98,366.01 -995.04,105.15 118.19,944.25 1140.39,887.04 1303.34,879.04 -137.35,278.35 -452.51,391.43 -657.93,352.06 1066.97,1055.11 3854.35,1785.09 4967.72,1886.01 325.37,46.56 1551.56,58.73 1551.56,58.73l0.02 -7260.89 0.02 7260.89c0,0 1226.19,-12.17 1551.56,-58.73 1113.37,-100.92 3900.75,-830.9 4967.72,-1886.01 -205.42,39.37 -520.58,-73.71 -657.93,-352.06 162.95,8 1185.15,65.21 1303.34,-879.04 -249.06,260.86 -773.97,202.39 -995.04,-105.15 347.37,-58.76 911.08,-114.81 1178.54,-1031.08 -128.86,-20.96 -758.45,549.57 -1297.48,-754.47 -707.5,-1711.64 -375.5,-1421.13 -1580.65,-2915.57 -838.56,-1039.85 -1938.47,-1833.79 -3042.09,-2204.93 -499.99,-144.38 -982.65,-225.7 -1427.99,-229.61z" style="fill:#cb2623"/>
  <path class="Head-Rabbit5fil179" d="M13681.94 7484.8c-445.34,3.92 -928,85.52 -1427.99,230.39 -1103.62,372.39 -2203.53,1169.02 -3042.09,2212.39 -1205.15,1499.5 -873.15,1208 -1580.65,2925.43 -539.03,1308.46 -1168.62,736 -1297.48,757.03 267.46,919.37 831.17,975.61 1178.54,1034.57 -221.07,308.58 -745.98,367.25 -995.04,105.5 118.19,947.45 1140.39,890.04 1303.34,882.02 -137.35,279.29 -452.51,392.75 -657.93,353.25 1066.97,1058.68 3854.35,1791.13 4967.72,1892.39 325.37,46.72 1551.56,58.93 1551.56,58.93l0.02 -7285.46 0.02 7285.46c0,0 1226.19,-12.21 1551.56,-58.93 1113.37,-101.26 3900.75,-833.71 4967.72,-1892.39 -205.42,39.5 -520.58,-73.96 -657.93,-353.25 162.95,8.02 1185.15,65.43 1303.34,-882.02 -249.06,261.75 -773.97,203.08 -995.04,-105.5 347.37,-58.96 911.08,-115.2 1178.54,-1034.57 -128.86,-21.03 -758.45,551.43 -1297.48,-757.03 -707.5,-1717.43 -375.5,-1425.93 -1580.65,-2925.43 -838.56,-1043.37 -1938.47,-1840 -3042.09,-2212.39 -499.99,-144.87 -982.65,-226.47 -1427.99,-230.39z" style="fill:#1869af"/>
  <path class="Head-Rabbit5fil28" d="M13681.94 7559.8c-408.05,0 -767.02,56.44 -1101.68,148.75 -949.75,261.97 -2036.74,899.1 -2715.65,1499.17 604.3,-730.18 1714.22,-1378.1 2675.81,-1643.31 347.84,-95.94 719.98,-154.61 1141.52,-154.61 421.54,0 793.68,58.67 1141.52,154.61 961.59,265.21 2071.51,913.13 2675.81,1643.31 -678.91,-600.07 -1765.9,-1237.2 -2715.65,-1499.17 -334.66,-92.31 -693.63,-148.75 -1101.68,-148.75z" style="fill:#ffcf20"/>
  <path class="Head-Rabbit5fil180" d="M9291.86 10605.42c-1450.23,403.45 -1732.05,3221.38 -524.52,4269.17 911.6,791.01 2065.09,1058.89 3209.47,537.29 19.54,210.62 144.88,891.49 948.89,959.77 333.14,16.99 652.05,-110.72 756.3,-227.75 -0.01,-169.81 -0.09,-317.19 -0.06,-555.53 0,0 -799.05,-570.93 -896.71,-779.42 -97.66,-208.49 -188.25,-1322.69 -188.25,-1322.69l-0.35 -0.67c-133.69,-1493.09 -990.07,-3297.04 -3304.77,-2880.17z" style="fill:#635574"/>
  <path class="Head-Rabbit5fil181" d="M18072.14 10605.42c1450.23,403.45 1732.05,3221.38 524.52,4269.17 -911.6,791.01 -2065.09,1058.89 -3209.47,537.29 -19.54,210.62 -144.88,891.49 -948.89,959.77 -333.14,16.99 -652.05,-110.72 -756.3,-227.75 0.01,-169.81 0.09,-317.19 0.06,-555.53 0,0 799.05,-570.93 896.71,-779.42 97.66,-208.49 188.25,-1322.69 188.25,-1322.69l0.35 -0.67c133.69,-1493.09 990.07,-3297.04 3304.77,-2880.17z" style="fill:#0c46b6"/>
  <path class="Head-Rabbit5fil28" d="M12641.48 17908.84c-1104.4,67.06 -3251.79,-652.3 -3491.78,-743.41 -816.27,-309.89 -1581.75,-702.45 -2039.79,-1155.4 -29.44,-29.12 -29.71,-76.61 -0.59,-106.05 19.22,-19.43 46.45,-26.15 71.2,-20.1 94.6,16.95 216.85,-3.9 329.4,-64.12 62.48,-33.43 121.48,-79 170.54,-136.96 -348.68,-2.89 -1130.92,-95.53 -1237.64,-948.11 -5.01,-41.09 24.24,-78.48 65.33,-83.49 25.99,-3.17 50.49,7.38 66.27,25.95 16.55,16.96 34.36,32.22 53.17,45.73 104.34,75.01 244.42,103.4 383.98,89.55 127.95,-12.7 254.19,-60.92 351.31,-141.33 -363.23,-65.27 -853.22,-212.3 -1100.93,-1060.92 -11.48,-39.64 11.34,-81.1 50.98,-92.58 2.93,-0.85 5.86,-1.5 8.8,-1.98 42.88,-7.05 90.72,11.47 154.13,36 220.9,85.47 692.92,268.08 1085.62,-743.66 345.91,-891.2 541.8,-1393.48 753.06,-1790.4 85.38,-160.43 491.66,-797.05 961.07,-1176.2 -438.07,592.06 -694.8,993.93 -829.23,1246.52 -206.73,388.41 -401.47,887.78 -745.44,1773.98 -432.33,1113.85 -977.05,944.65 -1252.23,839.53 255.76,710.03 720.07,786.62 1032.37,838.06l43.49 7.18 -0.02 0.12c10.98,1.82 21.73,6.13 31.37,13.07 33.49,24.1 41.09,70.8 16.99,104.29 -23.55,32.76 -49.9,62.84 -78.48,90.12 -124.71,119.07 -295.7,189.89 -468.22,207.02 -137.59,13.66 -277.2,-6.83 -396.44,-64.15 208.9,681.08 1032.47,640.47 1183.72,633.02l1.38 -0.07c12.95,-1 26.32,1.35 38.81,7.51 37.05,18.28 52.26,63.15 33.98,100.2 -70.83,143.55 -183.81,247.7 -307.42,313.84 -73.69,39.43 -151.6,65.36 -226.98,78.12 450.31,384.47 1128.58,722.09 1849.18,995.67 334.11,126.85 2075.07,702.07 3439.04,883.45z" style="fill:#ae35e9"/>
  <path class="Head-Rabbit5fil28" d="M14722.4 17908.84c1104.4,67.06 3251.79,-652.3 3491.78,-743.41 816.27,-309.89 1581.75,-702.45 2039.79,-1155.4 29.44,-29.12 29.71,-76.61 0.59,-106.05 -19.22,-19.43 -46.45,-26.15 -71.2,-20.1 -94.6,16.95 -216.85,-3.9 -329.4,-64.12 -62.48,-33.43 -121.48,-79 -170.54,-136.96 348.68,-2.89 1130.92,-95.53 1237.64,-948.11 5.01,-41.09 -24.24,-78.48 -65.33,-83.49 -25.99,-3.17 -50.49,7.38 -66.27,25.95 -16.55,16.96 -34.36,32.22 -53.17,45.73 -104.34,75.01 -244.42,103.4 -383.98,89.55 -127.95,-12.7 -254.19,-60.92 -351.31,-141.33 363.23,-65.27 853.22,-212.3 1100.93,-1060.92 11.48,-39.64 -11.34,-81.1 -50.98,-92.58 -2.93,-0.85 -5.86,-1.5 -8.8,-1.98 -42.88,-7.05 -90.72,11.47 -154.13,36 -220.9,85.47 -692.92,268.08 -1085.62,-743.66 -345.91,-891.2 -541.8,-1393.48 -753.06,-1790.4 -85.38,-160.43 -491.66,-797.05 -961.07,-1176.2 438.07,592.06 694.8,993.93 829.23,1246.52 206.73,388.41 401.47,887.78 745.44,1773.98 432.33,1113.85 977.05,944.65 1252.23,839.53 -255.76,710.03 -720.07,786.62 -1032.37,838.06l-43.49 7.18 0.02 0.12c-10.98,1.82 -21.73,6.13 -31.37,13.07 -33.49,24.1 -41.09,70.8 -16.99,104.29 23.55,32.76 49.9,62.84 78.48,90.12 124.71,119.07 295.7,189.89 468.22,207.02 137.59,13.66 277.2,-6.83 396.44,-64.15 -208.9,681.08 -1032.47,640.47 -1183.72,633.02l-1.38 -0.07c-12.95,-1 -26.32,1.35 -38.81,7.51 -37.05,18.28 -52.26,63.15 -33.98,100.2 70.83,143.55 183.81,247.7 307.42,313.84 73.69,39.43 151.6,65.36 226.98,78.12 -450.31,384.47 -1128.58,722.09 -1849.18,995.67 -334.11,126.85 -2075.07,702.07 -3439.04,883.45z" style="fill:#579bdf"/>
  <path class="Head-Rabbit5fil10" d="M8206.38 11490.52c-486.96,676.83 -523.66,2525.87 -1861.7,2139.95 47.01,311.74 562.17,1054.73 1168.27,993.38 0.66,0 4.3,29.17 4.7,31.93 -65.75,88.37 -429.15,319.32 -983.1,173.31 457.83,1113.85 1332.23,718.49 1296.15,800.71 -114.23,164.65 -385.28,287.28 -627.06,377.75 687.43,650.08 2139.91,1241.68 3593.65,1593.14 582.7,155.32 1207.53,256.32 1844.19,308.15 -3878.4,-920.42 -5358.32,-2312.3 -4435.1,-6418.32zm-515.39 3837.87c-266.72,-10.79 -590.85,-92.22 -912.48,-375.9 321.06,100.48 584.76,66.97 789.88,-23.57 31.27,138.46 72.42,271.54 122.6,399.47zm-209.66 -1035.91c-262.22,-48.98 -568.58,-182.36 -843.4,-536.33 368.04,55.41 651.14,-6.68 859.15,-131.55 -21.94,224.93 -27.6,448.1 -15.75,667.88z" style="fill:#aa5b82"/>
 </g><g id="Mouth-Rabbit7">
   <animateTransform additive="sum" attributeName="transform" dur="10" repeatCount="indefinite" type="translate" values="0;0 200;0;0 200;0;0 200;0;0 200;0"/>
  <metadata id="CorelCorpID_75Corel-Layer"/>
  <g id="_2131646413936">
   <path class="Mouth-Rabbit7fil0 Mouth-Rabbit7str0" d="M12604.54 16487.91c492.5,-247.55 1077.39,-367.34 1077.39,-573.95l0 -197.05" style="fill:#2c1a87"/>
   <path class="Mouth-Rabbit7fil0 Mouth-Rabbit7str0" d="M14759.32 16487.91c-492.5,-247.55 -1077.41,-367.34 -1077.39,-573.95l0.02 -375.14" style="fill:#40b2f3"/>
   <path class="Mouth-Rabbit7fil200 Mouth-Rabbit7str0" d="M13676.72 16046.07l0 883.71c0,0 -452.01,58.21 -501.54,-5.29 -49.53,-63.5 -80.49,-640.3 -80.49,-640.3l582.03 -238.12z" style="fill:#36cc0b"/>
   <path class="Mouth-Rabbit7fil201 Mouth-Rabbit7str0" d="M13676.72 16046.07l0 883.71c0,0 452.01,58.21 501.54,-5.29 49.53,-63.5 80.49,-640.3 80.49,-640.3l-582.03 -238.12z" style="fill:#85f260"/>
   <path class="Mouth-Rabbit7fil10" d="M12829.43 16380.65c48.66,46.51 -101.33,148.07 -114.13,251.52 -12.8,103.44 -186.33,119.7 -269.39,58.89 -83.06,-60.81 -87.88,-171.56 6.96,-238.24 94.84,-66.69 327.9,-118.68 376.56,-72.17z" style="fill:#c60fb7"/>
   <path class="Mouth-Rabbit7fil10" d="M14534.45 16380.65c-48.66,46.51 101.33,148.07 114.13,251.52 12.8,103.44 186.33,119.7 269.39,58.89 83.06,-60.81 87.88,-171.56 -6.96,-238.24 -94.84,-66.69 -327.9,-118.68 -376.56,-72.17z" style="fill:#c248d5"/>
  </g>
 </g><g id="EyesClosed-Rabbit9">
   <animateTransform additive="sum" attributeName="transform" dur="10" repeatCount="indefinite" type="translate" values="0;0 200;0;0 200;0;0 200;0;0 200;0"/>
  <metadata id="CorelCorpID_96Corel-Layer"/>
  <g id="_2131599724336">
   <path class="EyesClosed-Rabbit9fil207" d="M16103.38 10798.46c235.26,-200.25 451.13,-353.3 754.07,-429.4 150.16,-37.73 145.36,-219.92 -103.37,-272.25 -147.87,-31.13 -476.96,-75.26 -736.38,-32.5 -570.39,94.02 -1088.2,540.58 -1104,865.52 -14.91,306.62 48.99,594.52 193.51,767.31 261.67,312.88 623.67,-581.61 996.17,-898.68z"/>
   <path class="EyesClosed-Rabbit9fil10" d="M16103.38 10798.46c235.26,-200.25 451.13,-353.3 754.07,-429.4 150.16,-37.73 145.36,-219.92 -103.37,-272.25 -147.87,-31.13 -476.96,-75.26 -736.38,-32.5 -570.39,94.02 -1088.2,540.58 -1104,865.52 -14.91,306.62 48.99,594.52 193.51,767.31 261.67,312.88 623.67,-581.61 996.17,-898.68z"/>
  </g>
  <g id="_2131599723792">
   <path class="EyesClosed-Rabbit9fil207" d="M11260.5 10798.46c-235.26,-200.25 -451.13,-353.3 -754.07,-429.4 -150.16,-37.73 -145.36,-219.92 103.37,-272.25 147.87,-31.13 476.96,-75.26 736.38,-32.5 570.39,94.02 1088.2,540.58 1104,865.52 14.91,306.62 -48.99,594.52 -193.51,767.31 -261.67,312.88 -623.67,-581.61 -996.17,-898.68z"/>
   <path class="EyesClosed-Rabbit9fil10" d="M11260.5 10798.46c-235.26,-200.25 -451.13,-353.3 -754.07,-429.4 -150.16,-37.73 -145.36,-219.92 103.37,-272.25 147.87,-31.13 476.96,-75.26 736.38,-32.5 570.39,94.02 1088.2,540.58 1104,865.52 14.91,306.62 -48.99,594.52 -193.51,767.31 -261.67,312.88 -623.67,-581.61 -996.17,-898.68z"/>
  </g>
  <path class="EyesClosed-Rabbit9fil28" d="M15219.85 14073.04c-89.13,-5.32 -100.13,-88.81 -22.14,-106.82 569.93,-131.69 1223.44,-228.38 1921.48,-541.39 591.12,-265.06 1253.15,-725.71 1520,-1075.28 45.26,-59.28 75.19,-109.44 116.84,-105.59 129.45,11.93 58.17,203.69 40.23,267.69 -145.54,519.27 -804.89,1032.18 -1548.09,1288.03 -603.53,207.76 -1215.55,197.39 -2028.32,273.36z"/>
  <path class="EyesClosed-Rabbit9fil28" d="M12144.03 14073.04c89.13,-5.32 100.13,-88.81 22.14,-106.82 -569.93,-131.69 -1223.44,-228.38 -1921.48,-541.39 -591.12,-265.06 -1253.15,-725.71 -1520,-1075.28 -45.26,-59.28 -75.19,-109.44 -116.84,-105.59 -129.45,11.93 -58.17,203.69 -40.23,267.69 145.54,519.27 804.89,1032.18 1548.09,1288.03 603.53,207.76 1215.55,197.39 2028.32,273.36z"/>
 </g><g id="Eyes-Rabbit9">
   <animate attributeName="opacity" dur="10" repeatCount="indefinite" values="0;1;1;1;1;1;1;1;1;1;1;1;1;1;1;1;1;1;1;1;1;1;1;1;1;1;1;1;1;1;1;1;1;1;1;1;1;1;1;1;1;1;1;1;1;1;1;1;1;1;1;1;1;1;1;1;1;1;1;1;1;1;1;1;1;1;1;1;1;1;1;1;1;1;1;1;1;1;1;1;1;1;1;1;0;0"/>
   <animateTransform additive="sum" attributeName="transform" dur="10" repeatCount="indefinite" type="translate" values="0;0 200;0;0 200;0;0 200;0;0 200;0"/>
  <metadata id="CorelCorpID_97Corel-Layer"/>
  <g id="_2131599789968">
   <g>
    <path class="Eyes-Rabbit9fil269" d="M18263.6 11154.4c-329.28,-156.96 -2060.39,375.3 -2932.2,1473.62 -62.73,391.81 -174.6,813.62 -133.83,1380.29 389.61,679.03 1322.03,1136.18 2515.18,527.63 945.55,-482.25 1637.97,-1864.96 550.85,-3381.54z"/>
    <path class="Eyes-Rabbit9fil270" d="M16465.58 14605.32c-271.49,0 -1190.31,-149.54 -1278.36,-789.58 -18.04,-620.32 29.62,-797.16 167.87,-1253.73 567.87,-771.4 1428.95,-1050.07 2319.36,-1379.92 393.4,366.15 639.54,888.45 639.54,1468.28 0,1107.69 -740.73,1954.95 -1848.41,1954.95z"/>
    <path class="Eyes-Rabbit9fil271" d="M15484.62 12363.45c337.62,-437.32 761.92,-687.37 1741.51,-1036.18 277.88,314.07 452.55,768.68 452.55,1274.39 0,807.19 -339.86,1722.18 -1295.32,1664.32 -848.9,-51.49 -1094.12,-1138.74 -898.74,-1902.53z"/>
    <path class="Eyes-Rabbit9fil0 Eyes-Rabbit9str0" d="M18230.61 11139.05c-350.11,-121.67 -1788.82,400.23 -2575.82,1040.19 -400.92,322.97 -512.8,1056.48 -457.21,1829.07 944.09,1812.26 4621.44,414.01 3364.31,-2337.24 -50.24,-109.95 -224.94,-495.07 -331.28,-532.02z"/>
    <path class="Eyes-Rabbit9fil189" d="M18244.87 11119.01c-292.78,-195.21 -2263.22,452.68 -2871.9,1396.64 -128.95,407.14 -223.12,1089.77 -147.92,1555.28 21.37,35.99 102.11,216.64 129.44,163.24 -147.35,-1655.55 1382.27,-2820.83 3331.4,-2250.53 -56.8,-141.02 -362.58,-716.29 -441.02,-864.63z"/>
   </g>
   <g>
    <circle class="Eyes-Rabbit9fil211" r="234.72" transform="matrix(-0.138536 2.37922 2.16576 0.309783 17346.5 12543.6)"/>
    <circle class="Eyes-Rabbit9fil211" r="234.72" transform="matrix(-0.779081 0.593895 0.48333 0.758367 17894.9 13868.2)"/>
    <circle class="Eyes-Rabbit9fil211" r="234.72" transform="matrix(-0.297726 0.382054 0.326582 0.301743 18192.2 13340.1)"/>
   </g>
  </g>
  <g id="_2131599785360">
   <g>
    <path class="Eyes-Rabbit9fil272" d="M9100.28 11154.4c329.28,-156.96 2060.39,375.3 2932.2,1473.62 62.73,391.81 174.6,813.62 133.83,1380.29 -389.61,679.03 -1322.03,1136.18 -2515.18,527.63 -945.55,-482.25 -1637.97,-1864.96 -550.85,-3381.54z"/>
    <path class="Eyes-Rabbit9fil273" d="M10898.3 14605.32c271.49,0 1190.31,-149.54 1278.36,-789.58 18.04,-620.32 -29.62,-797.16 -167.87,-1253.73 -567.87,-771.4 -1428.95,-1050.07 -2319.36,-1379.92 -393.4,366.15 -639.54,888.45 -639.54,1468.28 0,1107.69 740.73,1954.95 1848.41,1954.95z"/>
    <path class="Eyes-Rabbit9fil274" d="M11879.26 12363.45c-337.62,-437.32 -761.92,-687.37 -1741.51,-1036.18 -277.88,314.07 -452.55,768.68 -452.55,1274.39 0,807.19 339.86,1722.18 1295.32,1664.32 848.9,-51.49 1094.12,-1138.74 898.74,-1902.53z"/>
    <path class="Eyes-Rabbit9fil0 Eyes-Rabbit9str0" d="M9133.27 11139.05c350.11,-121.67 1788.82,400.23 2575.82,1040.19 400.92,322.97 512.8,1056.48 457.21,1829.07 -944.09,1812.26 -4621.44,414.01 -3364.31,-2337.24 50.24,-109.95 224.94,-495.07 331.28,-532.02z"/>
    <path class="Eyes-Rabbit9fil189" d="M9119.01 11119.01c292.78,-195.21 2263.22,452.68 2871.9,1396.64 128.95,407.14 223.12,1089.77 147.92,1555.28 -21.37,35.99 -102.11,216.64 -129.44,163.24 147.35,-1655.55 -1382.27,-2820.83 -3331.4,-2250.53 56.8,-141.02 362.58,-716.29 441.02,-864.63z"/>
   </g>
   <g>
    <circle class="Eyes-Rabbit9fil211" r="234.72" transform="matrix(0.138536 2.37922 -2.16576 0.309783 10017.4 12543.6)"/>
    <circle class="Eyes-Rabbit9fil211" r="234.72" transform="matrix(0.779081 0.593895 -0.48333 0.758367 9468.96 13868.2)"/>
    <circle class="Eyes-Rabbit9fil211" r="234.72" transform="matrix(0.297726 0.382054 -0.326582 0.301743 9171.63 13340.1)"/>
   </g>
  </g>
 </g><g id="Moustache-Rabbit6">
   <animateTransform additive="sum" attributeName="transform" dur="10" repeatCount="indefinite" type="translate" values="0;0 200;0;0 200;0;0 200;0;0 200;0"/>
  <metadata id="CorelCorpID_104Corel-Layer"/>
  <path class="Moustache-Rabbit6fil315" d="M11857.88 15447.89c395.51,-81 655.74,124.99 910.19,87.2 248.22,-36.87 337.73,-305.85 297.11,-327.89 -79.56,-43.18 616.76,407.07 616.76,407.07 153.79,613.02 667.22,787 1059.3,737.95 301.96,-37.77 461.88,-230.39 591.62,-330.98 363.4,-281.74 865.43,716.12 -107.69,1432.74 -178.39,131.37 -985.99,469.25 -1094.32,221.86 -15.23,-34.8 -14.59,-37.86 15.11,-105.67 64.04,-146.2 -200.48,-219.3 -464.51,-219.3l0 0.1c-260.52,2.05 -526.66,75.07 -463.53,219.2 29.7,67.81 30.34,70.87 15.11,105.67 -108.33,247.39 -915.93,-90.49 -1094.32,-221.86 -973.12,-716.62 -471.09,-1714.48 -107.69,-1432.74 129.74,100.59 289.66,293.21 591.62,330.98 392.08,49.05 905.51,-124.93 1059.3,-737.95 0,0 701.61,-442.31 622.05,-399.13 -40.62,22.04 43.6,283.08 291.82,319.95 254.45,37.79 514.68,-168.2 910.19,-87.2 625.4,128.09 769.48,671.63 713.32,1193.03 -21.96,203.86 -74.54,404.35 -140.92,575.28 -304.2,783.32 -1524.18,956.04 -2385.71,957.49l0 0.09c-862.12,0.03 -2101.69,-170.87 -2407.21,-957.58 -66.37,-170.93 -118.96,-371.42 -140.92,-575.28 -56.16,-521.4 87.92,-1064.94 713.32,-1193.03z" style="fill:#171e03"/>
  <path class="Moustache-Rabbit6fil316" d="M13757.14 15645.45c-9.7,-38.78 -35.08,-102.56 -75.2,-93.19 -40.12,-9.37 -65.5,54.41 -75.2,93.19 -62.57,249.44 -187.57,410.88 -338.32,509.27 -193.65,126.4 -432,151.42 -636.4,125.85 -220.69,-27.59 -362.45,-151.21 -472.58,-247.23 -28.01,-24.43 -54.16,-47.23 -81.54,-68.46 -86.5,-67.07 -180.23,-79.75 -268.56,-49.87 -185.79,62.83 -248.54,298.55 -271.95,465.67 -44.46,317.32 121.75,640.6 340.65,841.9 -117.24,-153.14 -327.98,-430.47 -208.97,-904.25 18.3,-72.9 47.32,-134.91 82.86,-181.98 32.17,-42.6 68.95,-72.1 106.63,-84.84 39.77,-13.45 83.44,-6.59 125.58,26.08 22.1,17.14 47.69,39.45 75.1,63.35 125.06,109.05 286.03,249.41 554.02,282.92 235.26,29.43 511.32,-0.49 738.94,-149.07 133.22,-86.95 249.15,-213.71 329.69,-391.66l0.05 -160.34 0.05 160.34c80.54,177.95 196.47,304.71 329.69,391.66 227.62,148.58 503.68,178.5 738.94,149.07 267.99,-33.51 428.96,-173.87 554.02,-282.92 27.41,-23.9 53,-46.21 75.1,-63.35 42.14,-32.67 85.81,-39.53 125.58,-26.08 37.68,12.74 74.46,42.24 106.63,84.84 35.54,47.07 64.56,109.08 82.86,181.98 119.01,473.78 -91.73,751.11 -208.97,904.25 218.9,-201.3 385.11,-524.58 340.65,-841.9 -23.41,-167.12 -86.16,-402.84 -271.95,-465.67 -88.33,-29.88 -182.06,-17.2 -268.56,49.87 -27.38,21.23 -53.53,44.03 -81.54,68.46 -110.13,96.02 -251.89,219.64 -472.58,247.23 -204.4,25.57 -442.75,0.55 -636.4,-125.85 -150.75,-98.39 -275.75,-259.83 -338.32,-509.27zm-75.2 2600.5c-502.54,0.02 -1128.67,-57.47 -1631.7,-258.47 -194.97,-77.9 -614.45,-270.25 -741.83,-717.09 161.83,262.49 351.14,435.74 803.96,616.67 482.08,192.63 1082.28,214.47 1569.57,214.46 487.29,0.01 1087.49,-21.83 1569.57,-214.46 452.82,-180.93 642.13,-354.18 803.96,-616.67 -127.38,446.84 -546.86,639.19 -741.83,717.09 -503.03,201 -1129.16,258.49 -1631.7,258.47z" style="fill:#7e0332"/>
 </g><g id="Nose-Rabbit0">
   <animateTransform additive="sum" attributeName="transform" dur="10" repeatCount="indefinite" type="translate" values="0;0 200;0;0 200;0;0 200;0;0 200;0"/>
  <metadata id="CorelCorpID_107Corel-Layer"/>
  <path class="Nose-Rabbit0fil320 Nose-Rabbit0str0" d="M13681.94 15552.26c0,0 -562.44,-234.12 -896.71,-743.31 389.83,185.2 450.19,134.81 896.71,339.9 446.52,-205.09 506.88,-154.7 896.71,-339.9 -334.27,509.19 -896.71,743.31 -896.71,743.31z" style="fill:#eba528"/>
 </g><g id="Hair-Rabbit0">
   <animateTransform additive="sum" attributeName="transform" dur="10" repeatCount="indefinite" type="translate" values="0;0 200;0;0 200;0;0 200;0;0 200;0"/>
  <metadata id="CorelCorpID_108Corel-Layer"/>
  <rect class="Hair-Rabbit0fil0" height="889.5" width="889.5" x="13237.19" y="6589.66"/>
 </g></svg>