<svg xmlns="http://www.w3.org/2000/svg" xmlns:xlink="http://www.w3.org/1999/xlink" style="shape-rendering:geometricPrecision; text-rendering:geometricPrecision; image-rendering:optimizeQuality; fill-rule:evenodd; clip-rule:evenodd" version="1.1" viewBox="0 0 29000 29000" xml:space="preserve"><defs><style type="text/css">.BraceletLeather-Mediumfil43new {fill:white;fill-opacity:0.200000}
.BraceletLeather-Mediumfil46new {fill:white;fill-rule:nonzero;fill-opacity:0.200000}
.BraceletLeather-Mediumfil42new {fill:url(#BraceletLeather-Mediumid14new)}
.BraceletLeather-Mediumstr3new {stroke:black;stroke-width:100;stroke-linecap:round;stroke-linejoin:round}
.BraceletLeather-Mediumfil33new {fill:none}
.BraceletLeather-Mediumfil44new {fill:url(#BraceletLeather-Mediumid88new)}
.BraceletLeather-Mediumfil45new {fill:url(#BraceletLeather-Mediumid672new);fill-rule:nonzero}
.BraceletLeather-Mediumstr4new {stroke:black;stroke-width:100}
.BraceletLeather-Mediumfil47new {fill:none;fill-rule:nonzero}
.BraceletLeather-Mediumfil48new {fill:url(#BraceletLeather-Mediumid15new)}
.BraceletLeather-Mediumfil49new {fill:url(#BraceletLeather-Mediumid207new)}
.BraceletLeather-Mediumfil50new {fill:url(#BraceletLeather-Mediumid690new);fill-rule:nonzero}
.NecklaceYinYangfil225new {fill:url(#NecklaceYinYangid676new);fill-rule:nonzero}
.NecklaceYinYangfil46new {fill:white;fill-rule:nonzero;fill-opacity:0.200000}
.NecklaceYinYangfil84new {fill:black}
.NecklaceYinYangfil83new {fill:white}
.NecklaceYinYangfil47new {fill:none;fill-rule:nonzero}
.NecklaceYinYangstr4new {stroke:black;stroke-width:100}
.NecklaceYinYangfil226new {fill:url(#NecklaceYinYangid677new);fill-rule:nonzero}
.NecklaceYinYangstr3new {stroke:black;stroke-width:100;stroke-linecap:round;stroke-linejoin:round}
.NecklaceYinYangfil227new {fill:url(#NecklaceYinYangid669new);fill-rule:nonzero}
.NecklaceYinYangfil228new {fill:url(#NecklaceYinYangid705new);fill-rule:nonzero}
.NecklaceYinYangfil229new {fill:url(#NecklaceYinYangid685new);fill-rule:nonzero}
.NecklaceYinYangfil230new {fill:url(#NecklaceYinYangid101new)}
.HatG-Mediumfil14new {fill:black;fill-opacity:0.200000}
.HatG-Mediumfil635new {fill:url(#HatG-Mediumid47new)}
.HatG-Mediumfil636new {fill:url(#HatG-Mediumid218new)}
.HatG-Mediumfil637new {fill:url(#HatG-Mediumid49new)}
.HatG-Mediumfil638new {fill:url(#HatG-Mediumid170new)}
.HatG-Mediumfil640new {fill:url(#HatG-Mediumid3new)}
.HatG-Mediumfil641new {fill:url(#HatG-Mediumid56new)}
.HatG-Mediumfil33new {fill:none}
.HatG-Mediumstr0new {stroke:black;stroke-width:150;stroke-linecap:round;stroke-linejoin:round}
.HatG-Mediumfil639new {fill:none}
.HatG-Mediumstr19new {stroke:black;stroke-width:100;stroke-opacity:0.101961}
.HatG-Mediumstr20new {stroke:black;stroke-width:75;stroke-linecap:round;stroke-linejoin:round;stroke-dasharray:150.000000 225.000000;stroke-opacity:0.101961}
.HatG-Mediumstr6new {stroke:black;stroke-width:150}
.WeaponFlySwatterBack-Mediumfil1 {fill:black;fill-rule:nonzero;fill-opacity:0.200000}
.WeaponFlySwatterBack-Mediumfil0 {fill:url(#WeaponFlySwatterBack-Mediumid26);fill-rule:nonzero}
.WeaponFlySwatterBack-Mediumstr0 {stroke:black;stroke-width:150;stroke-linecap:round;stroke-linejoin:round}
.WeaponFlySwatter-Mediumfil3 {fill:black;fill-opacity:0.200000}
.WeaponFlySwatter-Mediumfil4 {fill:url(#WeaponFlySwatter-Mediumid24);fill-rule:nonzero}
.WeaponFlySwatter-Mediumfil1 {fill:black;fill-rule:nonzero;fill-opacity:0.200000}
.WeaponFlySwatter-Mediumfil2 {fill:url(#WeaponFlySwatter-Mediumid0)}
.WeaponFlySwatter-Mediumstr0 {stroke:black;stroke-width:150;stroke-linecap:round;stroke-linejoin:round}
.WeaponFlySwatter-Mediumfil5 {fill:none;fill-rule:nonzero}
.WeaponFlySwatter-Mediumstr1 {stroke:black;stroke-width:150}
.AccessoryTeddyfil111 {fill:url(#AccessoryTeddyid56)}
.AccessoryTeddyfil3 {fill:black;fill-rule:nonzero}
.AccessoryTeddyfil112 {fill:url(#AccessoryTeddyid75)}
.AccessoryTeddyfil19 {fill:black;fill-opacity:0.501961}
.AccessoryTeddyfil115 {fill:url(#AccessoryTeddyid69)}
.AccessoryTeddyfil117 {fill:url(#AccessoryTeddyid31)}
.AccessoryTeddyfil119 {fill:url(#AccessoryTeddyid5)}
.AccessoryTeddyfil120 {fill:url(#AccessoryTeddyid36)}
.AccessoryTeddyfil121 {fill:url(#AccessoryTeddyid41)}
.AccessoryTeddyfil15 {fill:black}
.AccessoryTeddyfil14 {fill:white}
.AccessoryTeddyfil109 {fill:url(#AccessoryTeddyid76)}
.AccessoryTeddystr1 {stroke:black;stroke-width:150}
.AccessoryTeddyfil110 {fill:url(#AccessoryTeddyid88)}
.AccessoryTeddyfil113 {fill:#B88531}
.AccessoryTeddyfil114 {fill:url(#AccessoryTeddyid10)}
.AccessoryTeddyfil116 {fill:url(#AccessoryTeddyid29)}
.AccessoryTeddyfil118 {fill:url(#AccessoryTeddyid27)}
.AccessoryTeddyfil2 {fill:none}
.AccessoryTeddystr8 {stroke:black;stroke-width:100;stroke-linecap:round;stroke-linejoin:round}
.HairBack-Rabbit0fil0 {fill:none}
    
.RightFoot-Rabbit0fil27 {fill:#f2ebf3}
    
.RightFoot-Rabbit0fil10 {fill:black;fill-opacity:0.200000}
    
.RightFoot-Rabbit0fil0 {fill:none}
    
.RightFoot-Rabbit0fil28 {fill:black;fill-rule:nonzero}
    
.RightLeg-Rabbit0fil31 {fill:url(#RightLeg-Rabbit0id13)}
    
.RightLeg-Rabbit0fil27 {fill:#f2ebf3}
    
.RightLeg-Rabbit0fil28 {fill:black;fill-rule:nonzero}
    
.RightLeg-Rabbit0fil10 {fill:black;fill-opacity:0.200000}
    
.LeftFoot-Rabbit0fil27 {fill:#f2ebf3}
    
.LeftFoot-Rabbit0fil10 {fill:black;fill-opacity:0.200000}
    
.LeftFoot-Rabbit0fil0 {fill:none}
    
.LeftFoot-Rabbit0fil28 {fill:black;fill-rule:nonzero}
    
.LeftLeg-Rabbit0fil39 {fill:url(#LeftLeg-Rabbit0id6)}
    
.LeftLeg-Rabbit0fil27 {fill:#f2ebf3}
    
.LeftLeg-Rabbit0fil10 {fill:black;fill-opacity:0.200000}
    
.LeftLeg-Rabbit0fil28 {fill:black;fill-rule:nonzero}
    
.RightHand-Rabbit0fil46 {fill:url(#RightHand-Rabbit0id27)}
    
.RightHand-Rabbit0fil10 {fill:black;fill-opacity:0.200000}
    
.RightHand-Rabbit0fil0 {fill:none}
    
.RightHand-Rabbit0str0 {stroke:black;stroke-width:150;stroke-linecap:round;stroke-linejoin:round;stroke-miterlimit:22.9256}
    
.RightPaw-Rabbit1fil50 {fill:url(#RightPaw-Rabbit1id45)}
    
.RightPaw-Rabbit1fil10 {fill:black;fill-opacity:0.200000}
    
.RightPaw-Rabbit1fil28 {fill:black;fill-rule:nonzero}
    
.LeftHand-Rabbit0fil52 {fill:url(#LeftHand-Rabbit0id173)}
    
.LeftHand-Rabbit0fil10 {fill:black;fill-opacity:0.200000}
    
.LeftHand-Rabbit0fil0 {fill:none}
    
.LeftHand-Rabbit0str0 {stroke:black;stroke-width:150;stroke-linecap:round;stroke-linejoin:round;stroke-miterlimit:22.9256}
    
.Body-Rabbit5fil58 {fill:url(#Body-Rabbit5id42)}
    
.Body-Rabbit5fil10 {fill:black;fill-opacity:0.200000}
    
.Body-Rabbit5fil28 {fill:black;fill-rule:nonzero}
    
.Body-Rabbit5fil61 {fill:black;fill-opacity:0.258824}
    
.Body-Rabbit5fil27 {fill:#f2ebf3}
    
.Body-Rabbit5fil62 {fill:black;fill-opacity:0.121569}
    
.Body-Rabbit5fil63 {fill:black;fill-rule:nonzero;fill-opacity:0.200000}
    
.LeftPaw-Rabbit1fil64 {fill:url(#LeftPaw-Rabbit1id2)}
    
.LeftPaw-Rabbit1fil10 {fill:black;fill-opacity:0.200000}
    
.LeftPaw-Rabbit1fil28 {fill:black;fill-rule:nonzero}
    
.Head-Rabbit5fil178 {fill:url(#Head-Rabbit5id272)}
    
.Head-Rabbit5fil179 {fill:url(#Head-Rabbit5id271)}
    
.Head-Rabbit5fil28 {fill:black;fill-rule:nonzero}
    
.Head-Rabbit5fil180 {fill:url(#Head-Rabbit5id192)}
    
.Head-Rabbit5fil181 {fill:url(#Head-Rabbit5id200)}
    
.Head-Rabbit5fil10 {fill:black;fill-opacity:0.200000}
    
.Mouth-Rabbit0fil0 {fill:none}
    
.Mouth-Rabbit0str0 {stroke:black;stroke-width:150;stroke-linecap:round;stroke-linejoin:round;stroke-miterlimit:22.9256}
    
.Mouth-Rabbit0fil186 {fill:url(#Mouth-Rabbit0id82)}
    
.Mouth-Rabbit0fil187 {fill:url(#Mouth-Rabbit0id88)}
    
.EyesClosed-Rabbit9fil207 {fill:#715a66}
    
.EyesClosed-Rabbit9fil10 {fill:black;fill-opacity:0.200000}
    
.EyesClosed-Rabbit9fil28 {fill:black;fill-rule:nonzero}
    
.Eyes-Rabbit9fil269 {fill:url(#Eyes-Rabbit9id151)}
    
.Eyes-Rabbit9fil270 {fill:url(#Eyes-Rabbit9id138)}
    
.Eyes-Rabbit9fil271 {fill:url(#Eyes-Rabbit9id209)}
    
.Eyes-Rabbit9fil0 {fill:none}
    
.Eyes-Rabbit9str0 {stroke:black;stroke-width:150;stroke-linecap:round;stroke-linejoin:round;stroke-miterlimit:22.9256}
    
.Eyes-Rabbit9fil189 {fill:black;fill-opacity:0.501961}
    
.Eyes-Rabbit9fil211 {fill:white}
    
.Eyes-Rabbit9fil272 {fill:url(#Eyes-Rabbit9id148)}
    
.Eyes-Rabbit9fil273 {fill:url(#Eyes-Rabbit9id137)}
    
.Eyes-Rabbit9fil274 {fill:url(#Eyes-Rabbit9id222)}
    
.Moustache-Rabbit0fil0 {fill:none}
    
.Nose-Rabbit0fil320 {fill:url(#Nose-Rabbit0id300)}
    
.Nose-Rabbit0str0 {stroke:black;stroke-width:150;stroke-linecap:round;stroke-linejoin:round;stroke-miterlimit:22.9256}
    
</style><linearGradient gradientUnits="userSpaceOnUse" id="BraceletLeather-Mediumid14new" x1="8682.96" x2="8745.92" y1="19682.8" y2="19053.1">
   <stop offset="0" style="stop-opacity:1; stop-color:#683501"/>
   <stop offset="1" style="stop-opacity:1; stop-color:#B08227"/>
  </linearGradient><linearGradient gradientUnits="userSpaceOnUse" id="BraceletLeather-Mediumid88new" x1="8626.8" x2="8294.02" xlink:href="#BraceletLeather-Mediumid14new" y1="19859" y2="19314.4">
  </linearGradient><linearGradient gradientUnits="userSpaceOnUse" id="BraceletLeather-Mediumid672new" x1="8784.44" x2="10049.5" y1="19759" y2="20796.3">
   <stop offset="0" style="stop-opacity:1; stop-color:#643300"/>
   <stop offset="0.321569" style="stop-opacity:1; stop-color:#B5872A"/>
   <stop offset="1" style="stop-opacity:1; stop-color:#643300"/>
  </linearGradient><linearGradient gradientUnits="userSpaceOnUse" id="BraceletLeather-Mediumid15new" x1="18680.9" x2="18617.9" xlink:href="#BraceletLeather-Mediumid14new" y1="19682.8" y2="19053.1">
  </linearGradient><linearGradient gradientUnits="userSpaceOnUse" id="BraceletLeather-Mediumid207new" x1="18737" x2="19069.8" xlink:href="#BraceletLeather-Mediumid14new" y1="19859" y2="19314.4">
  </linearGradient><linearGradient gradientUnits="userSpaceOnUse" id="BraceletLeather-Mediumid690new" x1="18579.4" x2="17314.3" xlink:href="#BraceletLeather-Mediumid672new" y1="19759" y2="20796.3">
  </linearGradient><linearGradient gradientUnits="userSpaceOnUse" id="NecklaceYinYangid676new" x1="13681.9" x2="13681.9" xlink:href="#NecklaceYinYangid669new" y1="17208" y2="20390.5">
  </linearGradient><linearGradient gradientUnits="userSpaceOnUse" id="NecklaceYinYangid677new" x1="11189" x2="11399.5" xlink:href="#NecklaceYinYangid669new" y1="18603.5" y2="18002.2">
  </linearGradient><linearGradient gradientUnits="userSpaceOnUse" id="NecklaceYinYangid705new" x1="16170.9" x2="15961.3" xlink:href="#NecklaceYinYangid669new" y1="18602.8" y2="18004">
  </linearGradient><linearGradient gradientUnits="userSpaceOnUse" id="NecklaceYinYangid685new" x1="15099" x2="14900.7" xlink:href="#NecklaceYinYangid669new" y1="19895.5" y2="19273.3">
  </linearGradient><linearGradient gradientUnits="userSpaceOnUse" id="NecklaceYinYangid101new" x1="13681.9" x2="13681.9" y1="20483.4" y2="19943.6">
   <stop offset="0" style="stop-opacity:1; stop-color:#2B2A29"/>
   <stop offset="1" style="stop-opacity:1; stop-color:#f2ebf3"/>
  </linearGradient><linearGradient gradientUnits="userSpaceOnUse" id="HatG-Mediumid47new" x1="8773.38" x2="12925.9" y1="10563.5" y2="5372.75">
   <stop offset="0" style="stop-opacity:1; stop-color:#CCCCD0"/>
   <stop offset="1" style="stop-opacity:1; stop-color:#F2F2F6"/>
  </linearGradient><linearGradient gradientUnits="userSpaceOnUse" id="HatG-Mediumid218new" x1="7703.58" x2="9238.2" xlink:href="#HatG-Mediumid170new" y1="10639.8" y2="6826.5">
  </linearGradient><linearGradient gradientUnits="userSpaceOnUse" id="HatG-Mediumid49new" x1="14578.6" x2="18656.5" y1="10035.4" y2="5357.8">
   <stop offset="0" style="stop-opacity:1; stop-color:#DBDBE0"/>
   <stop offset="0.74902" style="stop-opacity:1; stop-color:white"/>
   <stop offset="1" style="stop-opacity:1; stop-color:white"/>
  </linearGradient><linearGradient gradientUnits="userSpaceOnUse" id="HatG-Mediumid3new" x1="13755" x2="13755" y1="9815.97" y2="13088.5">
   <stop offset="0" style="stop-opacity:1; stop-color:#15153B"/>
   <stop offset="1" style="stop-opacity:1; stop-color:#080814"/>
  </linearGradient><linearGradient gradientUnits="userSpaceOnUse" id="HatG-Mediumid56new" x1="20387.5" x2="7122.61" y1="10226.4" y2="11933.8">
   <stop offset="0" style="stop-opacity:1; stop-color:#6666CC"/>
   <stop offset="1" style="stop-opacity:1; stop-color:#3D3B78"/>
  </linearGradient><linearGradient gradientUnits="userSpaceOnUse" id="WeaponFlySwatterBack-Mediumid26" x1="7745.86" x2="9181.7" xlink:href="#WeaponFlySwatterBack-Mediumid24" y1="21810.6" y2="20301.7">
  </linearGradient><linearGradient gradientUnits="userSpaceOnUse" id="WeaponFlySwatter-Mediumid24" x1="12160.4" x2="14712.1" y1="25216.2" y2="22534.8">
   <stop offset="0" style="stop-opacity:1; stop-color:#008011"/>
   <stop offset="1" style="stop-opacity:1; stop-color:#00BD55"/>
  </linearGradient><linearGradient gradientUnits="userSpaceOnUse" id="WeaponFlySwatter-Mediumid0" x1="9457.05" x2="12008.3" y1="22428.9" y2="22293.2">
   <stop offset="0" style="stop-opacity:1; stop-color:#787878"/>
   <stop offset="1" style="stop-opacity:1; stop-color:#D6D6D6"/>
  </linearGradient><linearGradient gradientUnits="userSpaceOnUse" id="AccessoryTeddyid56" x1="5274.88" x2="5544.57" y1="25442.4" y2="22421.3">
   <stop offset="0" style="stop-opacity:1; stop-color:#B88531"/>
   <stop offset="0.14902" style="stop-opacity:1; stop-color:#99672C"/>
   <stop offset="0.639216" style="stop-opacity:1; stop-color:#9C6E24"/>
   <stop offset="1" style="stop-opacity:1; stop-color:#523100"/>
  </linearGradient><linearGradient gradientUnits="userSpaceOnUse" id="AccessoryTeddyid75" x1="5571.12" x2="5255.06" xlink:href="#AccessoryTeddyid5" y1="22926.7" y2="24922">
  </linearGradient><linearGradient gradientUnits="userSpaceOnUse" id="AccessoryTeddyid69" x1="5447.62" x2="5256.22" xlink:href="#AccessoryTeddyid5" y1="21348.3" y2="22556.4">
  </linearGradient><linearGradient gradientUnits="userSpaceOnUse" id="AccessoryTeddyid31" x1="4032.54" x2="3912.76" xlink:href="#AccessoryTeddyid5" y1="24354.6" y2="25110.8">
  </linearGradient><linearGradient gradientUnits="userSpaceOnUse" id="AccessoryTeddyid36" x1="4875.13" x2="5044.37" y1="21255" y2="20829.7">
   <stop offset="0" style="stop-opacity:1; stop-color:#5C3600"/>
   <stop offset="0.509804" style="stop-opacity:1; stop-color:#2C160A"/>
   <stop offset="1" style="stop-opacity:1; stop-color:#3F261A"/>
  </linearGradient><linearGradient gradientUnits="userSpaceOnUse" id="AccessoryTeddyid41" x1="5933.75" x2="5890.77" xlink:href="#AccessoryTeddyid36" y1="21325.3" y2="20867.1">
  </linearGradient><linearGradient gradientUnits="userSpaceOnUse" id="AccessoryTeddyid76" x1="7386.63" x2="5965.55" xlink:href="#AccessoryTeddyid56" y1="24047.7" y2="22751.4">
  </linearGradient><linearGradient gradientUnits="userSpaceOnUse" id="AccessoryTeddyid88" x1="3357.21" x2="4839.21" xlink:href="#AccessoryTeddyid56" y1="24050.5" y2="22671">
  </linearGradient><linearGradient gradientUnits="userSpaceOnUse" id="AccessoryTeddyid10" x1="4764.52" x2="6162.34" y1="22575.4" y2="20450.7">
   <stop offset="0" style="stop-opacity:1; stop-color:#B88531"/>
   <stop offset="0.14902" style="stop-opacity:1; stop-color:#99672C"/>
   <stop offset="0.501961" style="stop-opacity:1; stop-color:#9C6E24"/>
   <stop offset="1" style="stop-opacity:1; stop-color:#FFC44F"/>
  </linearGradient><linearGradient gradientUnits="userSpaceOnUse" id="AccessoryTeddyid29" x1="3813.38" x2="4245.66" xlink:href="#AccessoryTeddyid27" y1="24177.4" y2="25442.6">
  </linearGradient><linearGradient gradientUnits="objectBoundingBox" id="RightLeg-Rabbit0id13" x1="50%" x2="50%" xlink:href="#RightLeg-Rabbit0id6" y1="105.828%" y2="0%">
  </linearGradient><linearGradient gradientUnits="objectBoundingBox" id="LeftLeg-Rabbit0id6" x1="50%" x2="50%" y1="105.828%" y2="0%">
   <stop offset="0" style="stop-opacity:1; stop-color:#dedede"/>
   <stop offset="0.439216" style="stop-opacity:1; stop-color:#dedede"/>
   <stop offset="1" style="stop-opacity:1; stop-color:#c5b9c0"/>
  </linearGradient><linearGradient gradientUnits="objectBoundingBox" id="RightHand-Rabbit0id27" x1="34.0586%" x2="65.9414%" xlink:href="#RightHand-Rabbit0id26" y1="2.36576%" y2="97.6342%">
  </linearGradient><linearGradient gradientUnits="userSpaceOnUse" id="RightPaw-Rabbit1id45" x1="17533.67" x2="19153.07" xlink:href="#RightPaw-Rabbit1id1" y1="21110.79" y2="20547.53">
  </linearGradient><linearGradient gradientUnits="objectBoundingBox" id="LeftHand-Rabbit0id173" x1="73.7265%" x2="26.114%" xlink:href="#LeftHand-Rabbit0id26" y1="4.01633%" y2="96.2351%">
  </linearGradient><linearGradient gradientUnits="objectBoundingBox" id="Body-Rabbit5id42" x1="50%" x2="50%" y1="2.16557e-14%" y2="100%">
   <stop offset="0" style="stop-opacity:1; stop-color:#9e8d97"/>
   <stop offset="0.0313725" style="stop-opacity:1; stop-color:#9e8d97"/>
   <stop offset="0.529412" style="stop-opacity:1; stop-color:#c5b9c0"/>
   <stop offset="1" style="stop-opacity:1; stop-color:#dedede"/>
  </linearGradient><linearGradient gradientUnits="userSpaceOnUse" id="LeftPaw-Rabbit1id2" x1="8404.11" x2="9636.83" xlink:href="#LeftPaw-Rabbit1id1" y1="21497.53" y2="20160.79">
  </linearGradient><linearGradient gradientUnits="userSpaceOnUse" id="Head-Rabbit5id272" x1="12770.77" x2="12770.76" xlink:href="#Head-Rabbit5id39" y1="17936.72" y2="7484.8">
  </linearGradient><linearGradient gradientUnits="userSpaceOnUse" id="Head-Rabbit5id271" x1="12770.77" x2="12770.76" xlink:href="#Head-Rabbit5id39" y1="17972.09" y2="7484.8">
  </linearGradient><linearGradient gradientUnits="userSpaceOnUse" id="Head-Rabbit5id192" x1="12602.62" x2="8010.14" xlink:href="#Head-Rabbit5id53" y1="13111.03" y2="13111.03">
  </linearGradient><linearGradient gradientUnits="userSpaceOnUse" id="Head-Rabbit5id200" x1="18274.48" x2="13682" xlink:href="#Head-Rabbit5id53" y1="13111.03" y2="13111.03">
  </linearGradient><linearGradient gradientUnits="userSpaceOnUse" id="Mouth-Rabbit0id82" x1="13394.97" x2="13394.97" xlink:href="#Mouth-Rabbit0id81" y1="15799.54" y2="16710.95">
  </linearGradient><linearGradient gradientUnits="userSpaceOnUse" id="Mouth-Rabbit0id88" x1="13968.9" x2="13968.9" xlink:href="#Mouth-Rabbit0id81" y1="15799.54" y2="16710.95">
  </linearGradient><linearGradient gradientUnits="userSpaceOnUse" id="Eyes-Rabbit9id151" x1="17002.94" x2="17002.94" xlink:href="#Eyes-Rabbit9id41" y1="14820.57" y2="11127.41">
  </linearGradient><linearGradient gradientUnits="userSpaceOnUse" id="Eyes-Rabbit9id138" x1="15183.56" x2="18313.99" xlink:href="#Eyes-Rabbit9id85" y1="12893.71" y2="12893.71">
  </linearGradient><linearGradient gradientUnits="userSpaceOnUse" id="Eyes-Rabbit9id209" x1="16354.73" x2="16354.73" xlink:href="#Eyes-Rabbit9id84" y1="11135.01" y2="14268.61">
  </linearGradient><linearGradient gradientUnits="userSpaceOnUse" id="Eyes-Rabbit9id148" x1="10360.94" x2="10360.94" xlink:href="#Eyes-Rabbit9id41" y1="14820.57" y2="11127.41">
  </linearGradient><linearGradient gradientUnits="userSpaceOnUse" id="Eyes-Rabbit9id137" x1="9049.89" x2="12180.32" xlink:href="#Eyes-Rabbit9id85" y1="12893.71" y2="12893.71">
  </linearGradient><linearGradient gradientUnits="userSpaceOnUse" id="Eyes-Rabbit9id222" x1="10618.61" x2="10618.61" xlink:href="#Eyes-Rabbit9id84" y1="11135.01" y2="14268.61">
  </linearGradient><linearGradient gradientUnits="userSpaceOnUse" id="Nose-Rabbit0id300" x1="12846.46" x2="12948.19" y1="14801.53" y2="15641.16">
   <stop offset="0" style="stop-opacity:1; stop-color:#FFCCCC"/>
   <stop offset="1" style="stop-opacity:1; stop-color:#DB9092"/>
  </linearGradient><linearGradient gradientUnits="userSpaceOnUse" id="NecklaceYinYangid669new" x1="12270.9" x2="12467.6" y1="19894.7" y2="19277.5">
   <stop offset="0" style="stop-opacity:1; stop-color:#643300"/>
   <stop offset="1" style="stop-opacity:1; stop-color:#AB7D2D"/>
  </linearGradient><linearGradient gradientUnits="userSpaceOnUse" id="HatG-Mediumid170new" x1="18179.1" x2="19599.3" y1="10226.2" y2="6697.29">
   <stop offset="0" style="stop-opacity:1; stop-color:#15153B"/>
   <stop offset="1" style="stop-opacity:1; stop-color:#4A47A1"/>
  </linearGradient><linearGradient gradientUnits="userSpaceOnUse" id="WeaponFlySwatterBack-Mediumid24" x1="12160.4" x2="14712.1" y1="25216.2" y2="22534.8">
   <stop offset="0" style="stop-opacity:1; stop-color:#008011"/>
   <stop offset="1" style="stop-opacity:1; stop-color:#00BD55"/>
  </linearGradient><linearGradient gradientUnits="userSpaceOnUse" id="AccessoryTeddyid5" x1="6771.67" x2="6651.69" y1="24347.4" y2="25104.8">
   <stop offset="0" style="stop-opacity:1; stop-color:#F2D996"/>
   <stop offset="1" style="stop-opacity:1; stop-color:#C79A45"/>
  </linearGradient><linearGradient gradientUnits="userSpaceOnUse" id="AccessoryTeddyid27" x1="7031.19" x2="6244.99" y1="24298.4" y2="25352.6">
   <stop offset="0" style="stop-opacity:1; stop-color:#B88531"/>
   <stop offset="0.329412" style="stop-opacity:1; stop-color:#99672C"/>
   <stop offset="0.541176" style="stop-opacity:1; stop-color:#9C6E24"/>
   <stop offset="1" style="stop-opacity:1; stop-color:#523100"/>
  </linearGradient><linearGradient gradientUnits="objectBoundingBox" id="RightLeg-Rabbit0id6" x1="50%" x2="50%" y1="105.828%" y2="0%">
   <stop offset="0" style="stop-opacity:1; stop-color:#dedede"/>
   <stop offset="0.439216" style="stop-opacity:1; stop-color:#dedede"/>
   <stop offset="1" style="stop-opacity:1; stop-color:#c5b9c0"/>
  </linearGradient><linearGradient gradientUnits="userSpaceOnUse" id="RightHand-Rabbit0id26" x1="16087.42" x2="17274.71" y1="17785.04" y2="20860.85">
   <stop offset="0" style="stop-opacity:1; stop-color:#9e8d97"/>
   <stop offset="0.878431" style="stop-opacity:1; stop-color:#c5b9c0"/>
   <stop offset="1" style="stop-opacity:1; stop-color:#c5b9c0"/>
  </linearGradient><linearGradient gradientUnits="userSpaceOnUse" id="RightPaw-Rabbit1id1" x1="13681.94" x2="13681.94" y1="17582.76" y2="9785.49">
   <stop offset="0" style="stop-opacity:1; stop-color:#715a66"/>
   <stop offset="1" style="stop-opacity:1; stop-color:#96878f"/>
  </linearGradient><linearGradient gradientUnits="userSpaceOnUse" id="LeftHand-Rabbit0id26" x1="16087.42" x2="17274.71" y1="17785.04" y2="20860.85">
   <stop offset="0" style="stop-opacity:1; stop-color:#9e8d97"/>
   <stop offset="0.878431" style="stop-opacity:1; stop-color:#c5b9c0"/>
   <stop offset="1" style="stop-opacity:1; stop-color:#c5b9c0"/>
  </linearGradient><linearGradient gradientUnits="userSpaceOnUse" id="LeftPaw-Rabbit1id1" x1="13681.94" x2="13681.94" y1="17582.76" y2="9785.49">
   <stop offset="0" style="stop-opacity:1; stop-color:#715a66"/>
   <stop offset="1" style="stop-opacity:1; stop-color:#96878f"/>
  </linearGradient><linearGradient gradientUnits="userSpaceOnUse" id="Head-Rabbit5id39" x1="13686.09" x2="13686.08" y1="17936.72" y2="7484.8">
   <stop offset="0" style="stop-opacity:1; stop-color:#9e8d97"/>
   <stop offset="0.4" style="stop-opacity:1; stop-color:#c5b9c0"/>
   <stop offset="1" style="stop-opacity:1; stop-color:#dedede"/>
  </linearGradient><linearGradient gradientUnits="userSpaceOnUse" id="Head-Rabbit5id53" x1="13681.92" x2="13681.92" y1="22716.29" y2="18527.08">
   <stop offset="0" style="stop-opacity:1; stop-color:#f2ebf3"/>
   <stop offset="0.65098" style="stop-opacity:1; stop-color:#f2ebf3"/>
   <stop offset="1" style="stop-opacity:1; stop-color:#e3d3e6"/>
  </linearGradient><linearGradient gradientUnits="userSpaceOnUse" id="Mouth-Rabbit0id81" x1="13402.39" x2="13402.39" y1="15588.37" y2="16582.43">
   <stop offset="0" style="stop-opacity:1; stop-color:#D6D6D6"/>
   <stop offset="0.6" style="stop-opacity:1; stop-color:white"/>
   <stop offset="1" style="stop-opacity:1; stop-color:#f2ebf3"/>
  </linearGradient><linearGradient gradientUnits="userSpaceOnUse" id="Eyes-Rabbit9id41" x1="17102.45" x2="17102.45" y1="15038.45" y2="11047.09">
   <stop offset="0" style="stop-opacity:1; stop-color:#490a80"/>
   <stop offset="1" style="stop-opacity:1; stop-color:black"/>
  </linearGradient><linearGradient gradientUnits="userSpaceOnUse" id="Eyes-Rabbit9id85" x1="8896.68" x2="12138.14" y1="13030.37" y2="13030.37">
   <stop offset="0" style="stop-opacity:1; stop-color:#490a80"/>
   <stop offset="0.501961" style="stop-opacity:1; stop-color:#af54ff"/>
   <stop offset="1" style="stop-opacity:1; stop-color:#490a80"/>
  </linearGradient><linearGradient gradientUnits="userSpaceOnUse" id="Eyes-Rabbit9id84" x1="16563.56" x2="16563.56" y1="11311.33" y2="14277.21">
   <stop offset="0" style="stop-opacity:1; stop-color:black"/>
   <stop offset="0.4" style="stop-opacity:1; stop-color:black"/>
   <stop offset="1" style="stop-opacity:1; stop-color:#380366"/>
  </linearGradient></defs><g id="HairBack-Rabbit0">
  <animateTransform additive="sum" attributeName="transform" dur="10" repeatCount="indefinite" type="translate" values="0;0 200;0;0 200;0;0 200;0;0 200;0"/>
  <metadata id="CorelCorpID_0Corel-Layer"/>
  <rect class="HairBack-Rabbit0fil0" height="889.5" width="889.5" x="13237.19" y="6589.66"/>
 </g><g id="RightFoot-Rabbit0">
  <metadata id="CorelCorpID_4Corel-Layer"/>
  <path class="RightFoot-Rabbit0fil27" d="M17611.19 25439.21c-123.56,214.04 -403.48,285.33 -610.7,105.88 -70.65,70.23 -293.11,185.78 -526.32,65.76 -538.29,-277.03 -1055.04,-639.06 -1398.31,-887.33 -220.49,-159.46 -188.05,-525.91 -70.64,-700.58 363.68,340.29 782.66,-165.21 1075.55,-247.93 373.84,-101.68 736.94,157.82 534.63,412.54 198.78,95.76 1024.55,447.2 1177.27,620.9 168.78,191.95 120.75,630.76 -181.48,630.76z" style="fill:#ed4d4e"/>
  <path class="RightFoot-Rabbit0fil10" d="M17619.89 25467.81c-123.56,214.04 -392.89,285.33 -600.11,105.88 -263.27,261.71 -916.66,-12.43 -1207.68,-387.7 -314.79,-217.24 -676.79,-421.62 -795.64,-500.03 -156.12,-103 -53.19,-398.33 -20.96,-584.15 17.85,-13.98 36.32,-26.67 55.45,-37.83 -59.89,533.31 1968.85,1766.03 1957.44,1098.35 213.34,341.57 585.05,186.16 533.82,-150.27 126.71,133.91 271.29,-14.39 142.78,-274 182.48,62.12 215.54,288.03 209.67,440.56 -17.28,153.49 -106.7,289.19 -274.77,289.19z" style="fill:#b3029a"/>
  <path class="RightFoot-Rabbit0fil0" d="M16655.48 24185.7c277.12,231.33 479.91,239.56 632.6,413.23 168.75,191.92 120.75,630.76 -181.48,630.76 -123.56,214.04 -403.48,285.33 -610.7,105.88 -70.65,70.23 -276.53,145.76 -526.32,65.76 -409.3,-131.08 -519.97,-488.94 -871.1,-725.96 -156.04,-105.33 -138.82,-331.38 -109.24,-523.93" style="fill:#c730dc"/>
  <path class="RightFoot-Rabbit0fil28" d="M16703.53 24128.28c-32.23,14.49 -151.74,68.29 -96.1,114.84 143.13,119.49 265.97,181.45 373.06,235.47 99.11,49.99 720.41,275.03 788.45,352.42 80.91,92.01 97.3,255.88 55.21,369.54 -18.07,48.79 -77.99,123.14 -125.37,147 7.55,-268.78 -114.77,-534.12 -402.24,-526.25 186.74,95.17 268.32,253.8 247.69,592.25 -49.04,79.15 -127.69,137.43 -219.87,155.2 -79.73,15.37 -160.2,-1.74 -228.24,-45.5 38.29,-218.05 10.29,-483.64 -289.14,-537.54 139.24,98.32 162.69,330.02 141.92,510.69 -31.45,29.61 -97.92,60.43 -188.69,71.77 -74.89,9.35 -163.69,4.41 -259.78,-26.36 -221.4,-70.9 -389.39,-150.77 -526.67,-306.64 -103.47,-117.46 -723.13,-457.1 -875.28,-559.8 -56.89,-38.4 -106.48,-200.43 -115.52,-274.13 -5.91,-48.16 -12.39,-90.93 -7.5,-133.2 3.75,-32.35 5.98,-48.97 23.54,-102.83 14.63,-97.52 -109.65,-115.23 -144.78,-21.39 -12.89,39.53 -20.74,74.23 -25.45,109.36 -7,52.14 -2.13,105.01 5.37,166.22 13.96,113.78 81.43,313.29 180.56,380.19 136.05,91.83 749.3,424.19 846.56,534.6 151.08,171.53 332.23,266.34 593.47,350 119.65,38.32 230.28,44.46 323.64,32.8 92.59,-11.56 170.46,-41.41 225.37,-75.73 103.09,69.99 225.69,98.3 348.74,74.57 124.29,-23.96 233.03,-98.13 304.52,-201.86 136.16,-15.63 261.32,-136.4 307.77,-261.86 61.19,-165.25 34.13,-386.54 -83.33,-520.12 -86.71,-98.62 -720.16,-329.8 -833.57,-387 -99.73,-50.31 -214.13,-108.01 -344.34,-216.71z" style="fill:#8bae79"/>
 </g><g id="LeftFoot-Rabbit0">
  <metadata id="CorelCorpID_13Corel-Layer"/>
  <path class="LeftFoot-Rabbit0fil27" d="M9752.69 25439.21c123.56,214.04 403.48,285.33 610.7,105.88 70.65,70.23 276.53,145.75 526.32,65.76 409.29,-131.08 1021.6,-618.6 1364.87,-866.87 220.49,-159.46 204.8,-507.21 104.08,-721.04 -363.68,340.29 -782.66,-165.21 -1075.55,-247.93 -373.84,-101.68 -736.94,157.82 -534.63,412.54 -198.78,95.76 -1024.55,447.2 -1177.27,620.9 -168.78,191.95 -120.75,630.76 181.48,630.76z" style="fill:#0f1c92"/>
  <path class="LeftFoot-Rabbit0fil10" d="M9743.99 25467.81c123.56,214.04 392.89,285.33 600.11,105.88 263.27,261.71 916.66,-12.43 1207.68,-387.7 314.79,-217.24 676.79,-421.62 795.64,-500.03 156.12,-103 53.19,-398.33 20.96,-584.15 -17.85,-13.98 -36.32,-26.67 -55.45,-37.83 59.89,533.31 -1968.85,1766.03 -1957.44,1098.35 -213.34,341.57 -585.05,186.16 -533.82,-150.27 -126.71,133.91 -271.29,-14.39 -142.78,-274 -182.48,62.12 -215.54,288.03 -209.67,440.56 17.28,153.49 106.7,289.19 274.77,289.19z" style="fill:#808fd1"/>
  <path class="LeftFoot-Rabbit0fil0" d="M10708.4 24185.7c-277.12,231.33 -479.91,239.56 -632.6,413.23 -168.75,191.92 -120.75,630.76 181.48,630.76 123.56,214.04 403.48,285.33 610.7,105.88 70.65,70.23 276.53,145.76 526.32,65.76 409.3,-131.08 519.97,-488.94 871.1,-725.96 156.04,-105.33 138.82,-331.38 109.24,-523.93" style="fill:#08fb6e"/>
  <path class="LeftFoot-Rabbit0fil28" d="M10660.35 24128.28c32.23,14.49 151.74,68.29 96.1,114.84 -143.13,119.49 -265.97,181.45 -373.06,235.47 -99.11,49.99 -720.41,275.03 -788.45,352.42 -80.91,92.01 -97.3,255.88 -55.21,369.54 18.07,48.79 77.99,123.14 125.37,147 -7.55,-268.78 114.77,-534.12 402.24,-526.25 -186.74,95.17 -268.32,253.8 -247.69,592.25 49.04,79.15 127.69,137.43 219.87,155.2 79.73,15.37 160.2,-1.74 228.24,-45.5 -38.29,-218.05 -10.29,-483.64 289.14,-537.54 -139.24,98.32 -162.69,330.02 -141.92,510.69 31.45,29.61 97.92,60.43 188.69,71.77 74.89,9.35 163.69,4.41 259.78,-26.36 221.4,-70.9 389.39,-150.77 526.67,-306.64 103.47,-117.46 723.13,-457.1 875.28,-559.8 56.89,-38.4 106.48,-200.43 115.52,-274.13 5.91,-48.16 12.39,-90.93 7.5,-133.2 -3.75,-32.35 -5.98,-48.97 -23.54,-102.83 -14.63,-97.52 109.65,-115.23 144.78,-21.39 12.89,39.53 20.74,74.23 25.45,109.36 7,52.14 2.13,105.01 -5.37,166.22 -13.96,113.78 -81.43,313.29 -180.56,380.19 -136.05,91.83 -749.3,424.19 -846.56,534.6 -151.08,171.53 -332.23,266.34 -593.47,350 -119.65,38.32 -230.28,44.46 -323.64,32.8 -92.59,-11.56 -170.46,-41.41 -225.37,-75.73 -103.09,69.99 -225.69,98.3 -348.74,74.57 -124.29,-23.96 -233.03,-98.13 -304.52,-201.86 -136.16,-15.63 -261.32,-136.4 -307.77,-261.86 -61.19,-165.25 -34.13,-386.54 83.33,-520.12 86.71,-98.62 720.16,-329.8 833.57,-387 99.73,-50.31 214.13,-108.01 344.34,-216.71z" style="fill:#e375ba"/>
 </g><g id="RightLeg-Rabbit0">
  <metadata id="CorelCorpID_7Corel-Layer"/>
  <path class="RightLeg-Rabbit0fil31" d="M13681.96 23259.3c350.13,0 1187.7,54.85 1405.45,467.27 87.55,165.82 -151.71,216.56 -84.09,308.83 214.87,221.86 637.04,349.26 895.5,148.38 312.37,-242.78 712.13,-231.34 719.72,-12.18 370.09,-264.31 864.16,-647.7 865.47,-1092.28 2.53,-860.67 -851.23,-1651.69 -1153.94,-1891.1 -621.48,859.57 -1470.39,1269.07 -2648.11,1328.08l0 743z" style="fill:#31ea45"/>
  <path class="RightLeg-Rabbit0fil27" d="M15041.74 23686.98c95.88,103.18 -23.84,202.94 -38.42,358.42 214.87,221.86 637.05,349.26 895.5,148.38 312.37,-242.77 712.13,-231.34 719.72,-12.18 500.6,-357.52 1118.93,-754.49 755.85,-1660.39 -386.13,1194.45 -1463.35,1524.06 -2332.65,1165.77z" style="fill:#79252b"/>
  <path class="RightLeg-Rabbit0fil28" d="M16285.67 21248.32c474.85,376.94 1120.37,1042.59 1118.33,1735.75 -1.13,388.03 -178.15,727.78 -465.88,963.66 -200.45,164.33 -440.69,212.09 -574.07,330.27 171.14,-34.1 422.55,-72.82 630.16,-223.79 362.58,-263.67 557.8,-589.45 559.21,-1070.14 2.19,-736.68 -664.8,-1449.29 -1177.06,-1854.44l-46.29 58.59 -44.38 60.1 -0.02 0z" style="fill:#555dc8"/>
  <path class="RightLeg-Rabbit0fil10" d="M17375.94 23464.04c67.26,-148.73 106.69,-305.87 107.15,-464.07 2.29,-775.51 -724.56,-1425.03 -1053.4,-1726.35l-157.05 727.06c26.43,47.89 52.85,95.78 79.28,143.67 387.48,-413.26 1131.08,852.41 1024.02,1319.69z" style="fill:#24c210"/>
  <path class="RightLeg-Rabbit0fil28" d="M13681.96 23156.77c0,53.89 0,70.23 0,150.29 1.05,-0.09 369.66,-11.33 754.66,102.19 128.96,38.03 326.86,124.14 481.95,220.11 121.28,75.04 227.25,140.61 294.6,161.31 67.97,20.91 336.72,117.86 720.21,19.22 -408.62,-65.2 -515.39,-112.7 -675.71,-162 -47.86,-14.71 -146.31,-75.63 -259,-145.36 -162.97,-100.83 -370.1,-192.66 -519.34,-236.67 -413.86,-122.04 -796.24,-109.25 -797.37,-109.09z" style="fill:#f67d2c"/>
  <path class="RightLeg-Rabbit0fil28" d="M14852.37 24149.58c-6.63,40.77 19.98,82.54 60.75,89.17 40.77,6.63 59.9,0.68 77.73,-47.56 3.27,-19.88 35.74,-71.71 63.2,-114.07 105.22,-162.3 243.27,-375.23 -65.46,-578.32 -34.46,-22.65 -80.77,-13.08 -103.42,21.38 -22.65,34.46 -13.08,80.77 21.38,103.42 184.59,121.43 92.39,263.67 22.1,372.08 -36.56,56.4 -63.62,104.09 -76.28,153.9z" style="fill:#4d0cee"/>
 </g><g id="LeftLeg-Rabbit0">
  <metadata id="CorelCorpID_16Corel-Layer"/>
  <path class="LeftLeg-Rabbit0fil39" d="M13681.92 23259.3c-350.13,0 -1187.72,54.86 -1405.45,467.27 -87.54,165.8 123.6,236.81 55.98,329.08 -214.87,221.86 -622.19,269.45 -880.62,68.6 -312.34,-242.75 -743.45,-195.49 -751.04,23.67 -453.63,-190.83 -819.62,-624.03 -820.92,-1068.6 -2.52,-860.66 851.23,-1651.69 1153.94,-1891.1 621.48,859.57 1470.39,1269.07 2648.11,1328.08l0 743z" style="fill:#788ee2"/>
  <path class="LeftLeg-Rabbit0fil27" d="M12299.44 23686.98c-95.88,103.18 23.84,202.94 38.42,358.42 -214.87,221.86 -637.05,349.26 -895.5,148.38 -312.37,-242.77 -712.13,-231.34 -719.72,-12.18 -500.6,-357.52 -1118.93,-754.49 -755.85,-1660.39 386.13,1194.45 1463.35,1524.06 2332.65,1165.77z" style="fill:#c48a0f"/>
  <path class="LeftLeg-Rabbit0fil10" d="M9987.94 23464.04c-67.26,-148.73 -106.69,-305.87 -107.15,-464.07 -2.29,-775.51 724.56,-1425.03 1053.4,-1726.35l157.05 727.06c-26.43,47.89 -52.85,95.78 -79.28,143.67 -387.48,-413.26 -1131.08,852.41 -1024.02,1319.69z" style="fill:#e9cccd"/>
  <path class="LeftLeg-Rabbit0fil28" d="M13681.96 23156.77c0,53.89 0,70.23 0,150.29 -1.05,-0.09 -369.7,-11.33 -754.7,102.19 -128.96,38.03 -326.86,124.14 -481.95,220.11 -121.28,75.04 -227.25,140.61 -294.6,161.31 -67.97,20.91 -336.72,117.86 -720.21,19.22 408.62,-65.2 515.39,-112.7 675.71,-162 47.86,-14.71 146.31,-75.63 259,-145.36 162.97,-100.83 370.1,-192.66 519.34,-236.67 413.86,-122.04 796.28,-109.25 797.41,-109.09z" style="fill:#878788"/>
  <path class="LeftLeg-Rabbit0fil28" d="M12511.51 24149.58c6.63,40.77 -19.98,82.54 -60.75,89.17 -40.77,6.63 -59.9,0.68 -77.73,-47.56 -3.27,-19.88 -35.74,-71.71 -63.2,-114.07 -105.22,-162.3 -243.27,-375.23 65.46,-578.32 34.46,-22.65 80.77,-13.08 103.42,21.38 22.65,34.46 13.08,80.77 -21.38,103.42 -184.59,121.43 -92.39,263.67 -22.1,372.08 36.56,56.4 63.62,104.09 76.28,153.9z" style="fill:#6710b5"/>
  <path class="LeftLeg-Rabbit0fil28" d="M11078.21 21248.32c-474.85,376.94 -1120.37,1042.59 -1118.33,1735.75 1.13,388.03 178.15,727.78 465.88,963.66 200.45,164.33 440.69,212.09 574.07,330.27 -171.14,-34.1 -422.55,-72.82 -630.16,-223.79 -362.58,-263.67 -557.8,-589.45 -559.21,-1070.14 -2.19,-736.68 664.8,-1449.29 1177.06,-1854.44l46.29 58.59 44.38 60.1 0.02 0z" style="fill:#c00d7f"/>
 </g><g id="RightHand-Rabbit0">
  <animateTransform additive="sum" attributeName="transform" dur="10" repeatCount="indefinite" type="translate" values="0;0 200;0;0 200;0;0 200;0;0 200;0"/>
  <metadata id="CorelCorpID_22Corel-Layer"/>
  <path class="RightHand-Rabbit0fil46" d="M16231.2 17708.66c1006.56,345.42 1818.61,1401.79 2256.58,2165.43 288.88,503.69 -636.05,1265.03 -911.19,1013.52 -627.05,-573.17 -1208.37,-619.78 -1688.45,-542.15 -741.88,119.97 -1352.69,-1920.87 -930.81,-2545.29 421.91,-21.63 933.51,-40.49 1273.87,-91.51z" style="fill:#9697bc"/>
  <path class="RightHand-Rabbit0fil10" d="M17511.96 20830.3c-602.27,-518.8 -1160.28,-559.8 -1623.82,-484.84 -171.07,27.66 -335.13,-59.69 -481.2,-217.95 -325.13,-471.76 752.73,-1097.7 1038.62,-655.88 261.31,403.84 734.1,847.76 1111.39,1126.01 -1.79,93.3 16.27,193.39 -44.96,232.66l0 -0.01 -0.03 0.01z" style="fill:#93f8fb"/>
  <path class="RightHand-Rabbit0fil0 RightHand-Rabbit0str0" d="M16476.95 20332.96c340.18,46.54 711.15,199.54 1099.64,554.65 275.13,251.49 1152.89,-508.63 864.02,-1012.31 -437.96,-763.63 -1202.86,-1821.23 -2209.41,-2166.64 -90.05,-30.9 -171.83,-58.83 -246.03,-84.05" style="fill:#66d3db"/>
 </g><g id="LeftHand-Rabbit0">
   <animateTransform additive="sum" attributeName="transform" dur="10" repeatCount="indefinite" type="translate" values="0;0 200;0;0 200;0;0 200;0;0 200;0"/>
  <metadata id="CorelCorpID_31Corel-Layer"/>
  <path class="LeftHand-Rabbit0fil52" d="M11132.64 17708.66c-1006.56,345.42 -1818.61,1401.79 -2256.58,2165.43 -288.88,503.69 636.05,1265.03 911.19,1013.52 627.05,-573.17 1208.37,-619.78 1688.45,-542.15 741.88,119.97 1352.69,-1920.87 930.81,-2545.29 -421.91,-21.63 -933.51,-40.49 -1273.87,-91.51z" style="fill:#bedc1d"/>
  <path class="LeftHand-Rabbit0fil10" d="M9851.88 20830.3c602.27,-518.8 1160.28,-559.8 1623.82,-484.84 171.07,27.66 335.13,-59.69 481.2,-217.95 325.13,-471.76 -752.73,-1097.7 -1038.62,-655.88 -261.31,403.84 -734.1,847.76 -1111.39,1126.01 1.79,93.3 -16.27,193.39 44.96,232.66l0 -0.01 0.03 0.01z" style="fill:#5c3a71"/>
  <path class="LeftHand-Rabbit0fil0 LeftHand-Rabbit0str0" d="M10886.89 20332.96c-340.18,46.54 -711.15,199.54 -1099.64,554.65 -275.13,251.49 -1152.89,-508.63 -864.02,-1012.31 437.96,-763.63 1202.86,-1821.23 2209.41,-2166.64 90.05,-30.9 171.83,-58.83 246.03,-84.05" style="fill:#ab5ccb"/>
 </g><g id="Body-Rabbit5">
   <animateTransform additive="sum" attributeName="transform" dur="10" repeatCount="indefinite" type="translate" values="0;0 200;0;0 200;0;0 200;0;0 200;0"/>
  <metadata id="CorelCorpID_42Corel-Layer"/>
  <path class="Body-Rabbit5fil58" d="M13681.92 23134.87c-1547.89,0 -2751.5,-290.59 -2992.7,-1955.85 -146.87,-1014.04 390.42,-2286.86 991,-3419.88 634.24,80.29 1288.94,123.26 2001.7,142.31 712.76,-19.05 1367.46,-62.02 2001.7,-142.31 600.58,1133.02 1137.87,2405.84 991,3419.88 -241.2,1665.26 -1444.81,1955.85 -2992.7,1955.85z" style="fill:#77c4e2"/>
  <path class="Body-Rabbit5fil10" d="M12620.51 23067.29c-1015.93,-155.83 -1748.88,-628.88 -1931.29,-1888.27 -75.17,-519 28.96,-1105.79 228.98,-1706.93 -223.57,2000.42 401.77,3257.02 1702.31,3595.2z" style="fill:#8c17f7"/>
  <path class="Body-Rabbit5fil28" d="M11011.96 22144.35c-249.8,-320.87 -347.52,-640.99 -396.86,-954.78 -59.27,-376.93 -23.8,-997.6 184.1,-1319.31 -78.5,420.39 -93.5,905.22 -35.86,1298.21 50,340.9 103.32,571.56 248.62,975.88z" style="fill:#b63cc0"/>
  <path class="Body-Rabbit5fil10" d="M14743.33 23067.29c1015.93,-155.83 1748.88,-628.88 1931.29,-1888.27 75.17,-519 -28.96,-1105.79 -228.98,-1706.93 223.57,2000.42 -401.77,3257.02 -1702.31,3595.2z" style="fill:#2c55e2"/>
  <path class="Body-Rabbit5fil28" d="M16351.92 22144.35c249.8,-320.87 347.52,-640.99 396.86,-954.78 59.27,-376.93 23.8,-997.6 -184.1,-1319.31 78.5,420.39 93.5,905.22 35.86,1298.21 -50,340.9 -103.32,571.56 -248.62,975.88z" style="fill:#2281ea"/>
  <path class="Body-Rabbit5fil61" d="M12901.47 21742.01c194.19,-380.09 189.19,-648.3 -113.38,-900.31 30.7,97.54 68.58,159.13 76.29,256.99 -2.92,-50.03 -924.37,-199 -1214.43,-688.92 -308.44,-520.97 -218.79,-1046.65 -234.45,-1216.63 -42.67,188.1 -187.74,315.73 -114.95,593.22 -1098.6,-941.02 -379.17,-1958.47 222.78,-2089.73 178.26,-38.87 350.86,-37.61 491.39,26.49 358.03,163.3 837.03,1092.72 822.79,1295.59 142.42,-32.83 307.82,-219.49 357.94,-474.5 14.57,343.5 -16.6,619.31 509.58,836.38 -39.09,-406.37 216.88,-583.56 423.57,-633.58 73.66,262.56 174.01,398.3 317.72,397.25 94.55,-658.59 829.87,-1438.38 1242.14,-1375.98 879.32,133.1 1456.18,880.79 376.14,2133.66 98.61,-398.44 -108.5,-619.56 -110.98,-555.62 -40.79,1051.72 -621.41,1544.87 -1221.18,1687.23 41.02,-115.57 287.52,-377.28 283,-688.93 -593.89,409.4 -248.87,904.25 -249.12,1173.67 -64.59,-59.7 -685.76,60.91 -852.29,-477.87 -96.82,613.4 -587.9,660.55 -1012.56,701.59z" style="fill:#307394"/>
  <path class="Body-Rabbit5fil27" d="M13049.62 21476.83c479.31,-787.81 -437.29,-728.86 -497.86,-1343.3 -23.3,425.68 12.13,407.6 230.61,725.35 -2.93,-42 -778.82,-173.72 -1068.92,-585.14 -308.48,-437.44 -382.82,-1203.18 -398.5,-1345.9 -42.66,157.91 -166.57,331.75 -93.78,564.74 -813.21,-689.36 -557.9,-1840.74 518.02,-1916.74 652.77,-45.46 3127.31,-36.71 3893.11,27.16 1121.81,93.38 1307.48,1050.47 522.25,1928.88 98.61,-334.55 -169.3,-525.21 -171.78,-471.48 -40.83,883.08 -518.27,1586.49 -1118.04,1706.04 41.02,-97.06 158.82,-341.13 154.3,-602.81 -593.89,343.77 -466.6,884.63 -466.87,1110.87 -116.01,-16.54 -541.03,-17.57 -631.84,-519.44 -57.21,568.3 -415.06,728.93 -870.7,721.77z" style="fill:#0be9f2"/>
  <path class="Body-Rabbit5fil62" d="M13049.62 21476.83c479.31,-787.81 -437.29,-728.86 -497.86,-1343.3 -23.3,425.68 12.13,407.6 230.61,725.35 -2.93,-42 -778.82,-173.72 -1068.92,-585.14 -308.48,-437.44 -382.82,-1203.18 -398.5,-1345.9 -42.66,157.91 -166.57,331.75 -93.78,564.74 -704.24,-596.98 -606.99,-1540.3 130.45,-1831.8 -37.1,75.11 -82.95,76.24 -82.95,76.24 0,0 -409.08,361.14 -235.06,896 174.02,534.86 691.01,-330.17 532.26,-4.73 -158.75,325.44 3.3,924.48 320.8,1358.39 317.5,433.91 618.45,-259.19 618.45,-259.19 300.33,469.95 941.36,1737.29 1487.33,587.8 86.59,73.85 62.82,1196.35 1182.6,-807.91 -69.07,430.28 -93.61,1354.56 468.03,283.61 241.79,-461.06 280.47,-719.68 174.63,-952.51 -105.84,-232.83 329.69,362.15 597.96,100.54 268.27,-261.61 -43.85,-853.8 -291.94,-1136.77 -248.09,-282.97 -53.39,-67.7 -67.54,-95.95 582.39,246.33 925.55,900.23 98.36,1825.58 98.61,-334.55 -169.3,-525.21 -171.78,-471.48 -40.83,883.08 -518.27,1586.49 -1118.04,1706.04 41.02,-97.06 158.82,-341.13 154.3,-602.81 -593.89,343.77 -466.6,884.63 -466.87,1110.87 -116.01,-16.54 -541.03,-17.57 -631.84,-519.44 -57.21,568.3 -415.06,728.93 -870.7,721.77z" style="fill:#525e08"/>
  <path class="Body-Rabbit5fil28" d="M11143.99 17655.45c33.65,-23.94 80.36,-16.07 104.3,17.58 23.94,33.65 16.07,80.36 -17.58,104.3 -0.81,0.57 -117.07,81.15 -227.21,227.53 -318.82,423.73 -273.93,743.99 -103.49,1108.65 -218.78,-333.98 -342.43,-759.44 -23.03,-1188.99 128.61,-172.97 266.06,-268.4 267.01,-269.07z" style="fill:#6cf496"/>
  <path class="Body-Rabbit5fil28" d="M16186.38 17768.72c-33.17,-24.75 -39.99,-71.71 -15.24,-104.88 24.75,-33.17 71.71,-39.99 104.88,-15.24 1.07,0.8 188.88,138.25 320.81,381.83 180.66,333.52 40.29,912.81 -122.79,1063.3 14.74,-59.45 263.85,-476.56 -7.02,-987.92 -113.91,-215.06 -279.7,-336.39 -280.64,-337.09z" style="fill:#2ae455"/>
  <path class="Body-Rabbit5fil63" d="M12130.47 18530.2c172.28,475.57 509.35,577.96 630.71,606.02 130.42,-149.8 298.72,-272.5 387.23,-383.77 47.04,215.13 191.54,599.61 596.61,767.39 5.1,-148.6 189.97,-475.34 461.59,-643.33 67.81,222.42 136.75,295.75 225.23,392.1 170.82,-257.33 592.6,-395.39 868.68,-775 -161.26,488.19 -818.69,854.17 -814.82,983.21 -30.9,19.47 -255.46,-124.28 -349.18,-369.86 -238.71,248.38 -268.57,548.77 -197.42,598.21 -549.06,25.53 -778.02,-394.38 -856.53,-687.91 -72.05,81.98 -162.72,172.22 -253.37,293.66 -24.29,-19.03 -688.09,-44.77 -698.73,-780.72z" style="fill:#f390db"/>
 </g><g id="WeaponFlySwatterBack-Medium">
 <animateTransform additive="sum" attributeName="transform" dur="10" repeatCount="indefinite" type="translate" values="0;0 200;0;0 200;0;0 200;0;0 200;0"/>
  <metadata id="CorelCorpID_0Corel-Layer"/>
  <g id="_2367108334752">
   <path class="WeaponFlySwatterBack-Mediumfil0 WeaponFlySwatterBack-Mediumstr0" d="M9496 21664l211 -158 -1804 -1241c-168,-116 -453,-135 -616,153 -163,289 1,523 187,607l1996 902 26 -263z" style="fill:#ff8287"/>
   <path class="WeaponFlySwatterBack-Mediumfil1" d="M7463 20235c-66,36 -127,96 -176,183 -163,289 1,523 187,607l1996 902 22 -221c-464,-223 -1683,-816 -1870,-979 -151,-131 -206,-332 -159,-492z" style="fill:#7fb349"/>
  </g>
 </g><g id="RightPaw-Rabbit1">
  <animateTransform additive="sum" attributeName="transform" dur="10" repeatCount="indefinite" type="translate" values="0;0 200;0;0 200;0;0 200;0;0 200;0"/>
  <metadata id="CorelCorpID_29Corel-Layer"/>
  <path class="RightPaw-Rabbit1fil50" d="M17500.83 20836.37c-31.01,671.59 506.32,1058.8 828,765.31 253.5,397.35 884.17,103.39 809.26,-292.5 203.13,-535.14 -266.24,-1035.76 -634.19,-1325.08 -198.11,-64.5 -364.18,-247.68 -461.85,44.06 -113.97,340.43 -156.85,278.81 -402.23,397.75 -163.53,79.26 -10.67,351.89 -138.99,410.46z" style="fill:#a22588"/>
  <path class="RightPaw-Rabbit1fil10" d="M17500.83 20836.37c-31.01,671.59 506.32,1058.8 828,765.31 341.06,429.25 911,23.85 753.65,-292.7 -65.31,297.19 -520.59,407.83 -657.17,-118.23 -113.25,412.02 -522.03,237.66 -614.7,26.73 -95.14,-216.58 -44.81,-462.8 -253.66,-619.84 -1.8,93.31 16.28,193.4 -44.96,232.65l-0.16 0.1 -0.17 0.11c-1.48,0.93 -2.97,1.82 -4.53,2.69l-0.17 0.1 -0.18 0.09 -0.14 0.09 -0.03 0.01 -0.18 0.1 -0.17 0.09 -0.18 0.09c-1.69,0.92 -3.44,1.79 -5.25,2.61z" style="fill:#0bc7c7"/>
  <path class="RightPaw-Rabbit1fil28" d="M17436.91 20673.48c-79.39,-58.19 -167.86,62.52 -88.48,120.7 28.24,20.69 56.25,42.36 83.3,64.61 -3.93,302.02 99.68,551.64 246.17,712.18 55.54,60.86 117.82,109.47 183.4,143.86 145.9,76.49 311.53,82.65 453.24,-7.98 209.57,238.5 583.03,191.12 784.7,-34.27 86.01,-96.11 134.73,-220.26 115.83,-356.13 82.54,-234.31 46.25,-463.42 -52.44,-673.52 -132.46,-282 -402.86,-497.73 -588.08,-703.58 -33.5,-37.22 -180.19,-286.69 -214.16,-345.48 -58.56,-79 -178.69,10.05 -120.12,89.06 35.43,47.77 75.16,120.11 111.48,186.29 6.41,11.67 81.45,153.11 123.81,187.52 201.58,163.8 430.96,392.41 551.71,649.47 38.04,80.97 65.19,164.94 76.97,250.68 -53.73,-69.19 -156.09,-151.42 -275.06,-139.39 80.64,67.61 125.53,143.46 171.18,252.76 65.8,157.59 113.11,362.41 -12.44,502.72 -141.93,158.63 -411.75,205.47 -562.48,33.5 115.64,-164.64 117.79,-464.48 -80.37,-548.33 54.53,102.27 47.95,374.07 -54.76,476.76 -86.33,86.32 -222.41,119.56 -359.87,47.5 -49.57,-25.99 -97.71,-63.9 -141.8,-112.22 -128.18,-140.48 -217.35,-364.86 -206.61,-639.48 1.55,-21.67 -6.3,-43.83 -23.35,-59.87 -36.49,-34.26 -81.32,-67.73 -121.77,-97.36z" style="fill:#7d445c"/>
 </g><g id="LeftPaw-Rabbit1">
   <animateTransform additive="sum" attributeName="transform" dur="10" repeatCount="indefinite" type="translate" values="0;0 200;0;0 200;0;0 200;0;0 200;0"/>
  <metadata id="CorelCorpID_44Corel-Layer"/>
  <path class="LeftPaw-Rabbit1fil64" d="M9863.01 20836.37c31.01,671.59 -506.32,1058.8 -828,765.31 -253.5,397.35 -884.17,103.39 -809.26,-292.5 -203.13,-535.14 266.24,-1035.76 634.19,-1325.08 198.11,-64.5 364.18,-247.68 461.85,44.06 113.97,340.43 156.85,278.81 402.23,397.75 163.53,79.26 10.67,351.89 138.99,410.46z" style="fill:#a1e1b5"/>
  <path class="LeftPaw-Rabbit1fil10" d="M9863.01 20836.37c31.01,671.59 -506.32,1058.8 -828,765.31 -341.06,429.25 -911,23.85 -753.65,-292.7 65.31,297.19 520.59,407.83 657.17,-118.23 113.25,412.02 522.03,237.66 614.7,26.73 95.14,-216.58 44.81,-462.8 253.66,-619.84 1.8,93.31 -16.28,193.4 44.96,232.65l0.16 0.1 0.17 0.11c1.48,0.93 2.97,1.82 4.53,2.69l0.17 0.1 0.18 0.09 0.14 0.09 0.03 0.01 0.18 0.1 0.17 0.09 0.18 0.09c1.69,0.92 3.44,1.79 5.25,2.61z" style="fill:#d3b810"/>
  <path class="LeftPaw-Rabbit1fil28" d="M9926.93 20673.48c79.39,-58.19 167.86,62.52 88.48,120.7 -28.24,20.69 -56.25,42.36 -83.3,64.61 3.93,302.02 -99.68,551.64 -246.17,712.18 -55.54,60.86 -117.82,109.47 -183.4,143.86 -145.9,76.49 -311.53,82.65 -453.24,-7.98 -209.57,238.5 -583.03,191.12 -784.7,-34.27 -86.01,-96.11 -134.73,-220.26 -115.83,-356.13 -82.54,-234.31 -46.25,-463.42 52.44,-673.52 132.46,-282 402.86,-497.73 588.08,-703.58 33.5,-37.22 180.19,-286.69 214.16,-345.48 58.56,-79 178.69,10.05 120.12,89.06 -35.43,47.77 -75.16,120.11 -111.48,186.29 -6.41,11.67 -81.45,153.11 -123.81,187.52 -201.58,163.8 -430.96,392.41 -551.71,649.47 -38.04,80.97 -65.19,164.94 -76.97,250.68 53.73,-69.19 156.09,-151.42 275.06,-139.39 -80.64,67.61 -125.53,143.46 -171.18,252.76 -65.8,157.59 -113.11,362.41 12.44,502.72 141.93,158.63 411.75,205.47 562.48,33.5 -115.64,-164.64 -117.79,-464.48 80.37,-548.33 -54.53,102.27 -47.95,374.07 54.76,476.76 86.33,86.32 222.41,119.56 359.87,47.5 49.57,-25.99 97.71,-63.9 141.8,-112.22 128.18,-140.48 217.35,-364.86 206.61,-639.48 -1.55,-21.67 6.3,-43.83 23.35,-59.87 36.49,-34.26 81.32,-67.73 121.77,-97.36z" style="fill:#a5fde1"/>
 </g><g id="NecklaceYinYang">
 <animateTransform additive="sum" attributeName="transform" dur="10" repeatCount="indefinite" type="translate" values="0;0 200;0;0 200;0;0 200;0;0 200;0"/>
  <metadata id="CorelCorpID_40Corel-Layer"/>
  <path class="NecklaceYinYangfil225new" d="M16543 17208c-73,675 -449,1409 -941,2000 -570,684 -1305,1183 -1920,1183 -615,0 -1350,-499 -1920,-1183 -492,-591 -868,-1325 -941,-2000l352 0c73,593 413,1245 856,1777 509,611 1145,1056 1653,1056 508,0 1144,-445 1653,-1056 442,-532 782,-1184 856,-1777l352 0z" style="fill:#51297e"/>
  <path class="NecklaceYinYangfil46new" d="M11135 16868c-273,1109 1292,3303 2547,3303 1255,0 2820,-2194 2547,-3303l-25 4c1,34 2,68 2,103 0,650 -370,1407 -871,2010 -509,611 -1145,1056 -1653,1056 -508,0 -1144,-445 -1653,-1056 -501,-603 -871,-1360 -871,-2010 0,-35 1,-69 2,-103l-25 -4z" style="fill:#7fd53f"/>
  <path class="NecklaceYinYangfil47new NecklaceYinYangstr4new" d="M16543 17208c-73,675 -449,1409 -941,2000 -570,684 -1305,1183 -1920,1183 -615,0 -1350,-499 -1920,-1183 -492,-591 -868,-1325 -941,-2000l352 0c73,593 413,1245 856,1777 509,611 1145,1056 1653,1056 508,0 1144,-445 1653,-1056 442,-532 782,-1184 856,-1777l352 0z" style="fill:#e1106b"/>
  <path class="NecklaceYinYangfil226new NecklaceYinYangstr3new" d="M11302 18631c-392,0 -362,-385 -163,-550 197,-163 493,-157 449,148 -114,-87 -503,248 -286,402z" style="fill:#9a6cf1"/>
  <path class="NecklaceYinYangfil227new NecklaceYinYangstr3new" d="M12385 19918c-393,11 -359,-370 -179,-545 182,-179 487,-172 453,134 -117,-83 -496,263 -274,411z" style="fill:#75cccc"/>
  <path class="NecklaceYinYangfil228new NecklaceYinYangstr3new" d="M16062 18631c392,0 345,-403 163,-550 -200,-160 -493,-157 -449,148 114,-87 503,248 286,402z" style="fill:#8e8d68"/>
  <path class="NecklaceYinYangfil229new NecklaceYinYangstr3new" d="M14979 19918c393,11 384,-357 179,-545 -202,-187 -487,-172 -453,134 117,-83 496,263 274,411z" style="fill:#0d5052"/>
  <g>
   <circle class="NecklaceYinYangfil84new" r="1577" transform="matrix(-0.552338 -0.290723 0.290723 -0.552338 13681.9 21396.4)"/>
   <g>
    <path class="NecklaceYinYangfil84new" d="M14075 20650c412,217 570,727 353,1139 -215,409 -719,568 -1129,359l0 0c-3,-2 -7,-4 -10,-5l0 0c-206,-109 -285,-364 -177,-570 109,-206 364,-285 570,-177l0 0c206,109 461,30 570,-176 108,-207 29,-462 -177,-570z" style="fill:#243f35"/>
    <path class="NecklaceYinYangfil83new" d="M13289 22143c-412,-217 -570,-727 -353,-1139 215,-409 718,-568 1129,-359l0 0c3,2 7,3 10,5l0 0c206,108 285,363 177,570 -109,206 -364,285 -570,176l0 0c-206,-108 -461,-29 -570,177 -108,206 -29,461 177,570z" style="fill:#c62802"/>
    <path class="NecklaceYinYangfil84new" d="M13943 20901c67,35 93,119 58,187 -36,67 -119,93 -187,58 -68,-36 -94,-120 -58,-187 36,-68 119,-94 187,-58z" style="fill:#bef13f"/>
    <path class="NecklaceYinYangfil83new" d="M13421 21892c-68,-36 -94,-119 -58,-187 36,-67 119,-93 187,-58 68,36 93,119 58,187 -36,68 -119,94 -187,58z" style="fill:#51932c"/>
   </g>
  </g>
  <path class="NecklaceYinYangfil230new NecklaceYinYangstr4new" d="M13599 19944l166 0c25,0 47,21 46,46l-24 447c-1,26 -20,46 -46,46l-119 0c-25,0 -44,-20 -46,-46l-23 -447c-1,-26 21,-46 46,-46z" style="fill:#cefe4a"/>
 </g><g id="BraceletLeather-Medium">
 <animateTransform additive="sum" attributeName="transform" dur="10" repeatCount="indefinite" type="translate" values="0;0 200;0;0 200;0;0 200;0;0 200;0"/>
  <metadata id="CorelCorpID_17Corel-Layer"/>
  <path class="BraceletLeather-Mediumfil42new BraceletLeather-Mediumstr3new" d="M8689 19690c-86,-160 -115,-250 -201,-410 -29,-75 3,-239 44,-232 104,3 219,4 324,-2 3,181 43,415 96,612 -87,11 -175,21 -263,32z" style="fill:#60c59f"/>
  <path class="BraceletLeather-Mediumfil43new" d="M8689 19690c-86,-160 -115,-250 -201,-410 -29,-75 3,-239 44,-232l8 0c53,219 164,421 282,626l-133 16z" style="fill:#298190"/>
  <path class="BraceletLeather-Mediumfil33new BraceletLeather-Mediumstr3new" d="M8689 19690c-86,-160 -115,-250 -201,-410 -29,-75 3,-239 44,-232 104,3 219,4 324,-2 3,181 43,415 96,612 -87,11 -175,21 -263,32z" style="fill:#ba120c"/>
  <path class="BraceletLeather-Mediumfil44new BraceletLeather-Mediumstr3new" d="M8645 19884c-170,-64 -251,-113 -421,-177 -71,-38 -153,-183 -118,-204 81,-66 168,-141 243,-214 121,135 304,285 474,399 -59,66 -118,131 -178,196z" style="fill:#2af801"/>
  <path class="BraceletLeather-Mediumfil43new" d="M8645 19884c-170,-64 -251,-113 -421,-177 -71,-38 -153,-183 -118,-204l6 -5c184,130 400,211 623,288l-90 98z" style="fill:#deed18"/>
  <path class="BraceletLeather-Mediumfil33new BraceletLeather-Mediumstr3new" d="M8645 19884c-170,-64 -251,-113 -421,-177 -71,-38 -153,-183 -118,-204 81,-66 168,-141 243,-214 121,135 304,285 474,399 -59,66 -118,131 -178,196z" style="fill:#1374d2"/>
  <path class="BraceletLeather-Mediumfil45new BraceletLeather-Mediumstr4new" d="M8734 19936c-151,-67 -255,-143 -151,-272 117,-147 267,-135 481,-33 407,194 958,608 1165,923 91,139 91,306 -39,409 -129,103 -210,-20 -308,-153 -243,-331 -765,-704 -1148,-874z" style="fill:#d2b5a1"/>
  <path class="BraceletLeather-Mediumfil46new" d="M8734 19936c-79,-35 -145,-73 -176,-119 77,-41 167,-29 240,0 506,201 953,539 1254,974 48,70 58,140 38,210 -76,-6 -138,-95 -208,-191 -243,-331 -765,-704 -1148,-874z" style="fill:#1f250a"/>
  <path class="BraceletLeather-Mediumfil47new BraceletLeather-Mediumstr4new" d="M8734 19936c-151,-67 -255,-143 -151,-272 117,-147 267,-135 481,-33 407,194 958,608 1165,923 91,139 91,306 -39,409 -129,103 -210,-20 -308,-153 -243,-331 -765,-704 -1148,-874z" style="fill:#a1f6ff"/>
  <path class="BraceletLeather-Mediumfil48new BraceletLeather-Mediumstr3new" d="M18674 19690c87,-160 116,-250 202,-410 29,-75 -3,-239 -44,-232 -104,3 -219,4 -324,-2 -3,181 -43,415 -97,612 88,11 176,21 263,32z" style="fill:#c68572"/>
  <path class="BraceletLeather-Mediumfil43new" d="M18674 19690c87,-160 116,-250 202,-410 29,-75 -3,-239 -44,-232l-8 0c-53,219 -164,421 -282,626l132 16z" style="fill:#4f70a0"/>
  <path class="BraceletLeather-Mediumfil33new BraceletLeather-Mediumstr3new" d="M18674 19690c87,-160 116,-250 202,-410 29,-75 -3,-239 -44,-232 -104,3 -219,4 -324,-2 -3,181 -43,415 -97,612 88,11 176,21 263,32z" style="fill:#5f860d"/>
  <path class="BraceletLeather-Mediumfil49new BraceletLeather-Mediumstr3new" d="M18718 19884c170,-64 252,-113 422,-177 71,-38 153,-183 118,-204 -81,-66 -168,-141 -243,-214 -121,135 -305,285 -475,399 60,66 119,131 178,196z" style="fill:#8043f3"/>
  <path class="BraceletLeather-Mediumfil43new" d="M18718 19884c170,-64 252,-113 422,-177 71,-38 153,-183 118,-204l-6 -5c-184,130 -400,211 -623,288l89 98z" style="fill:#312f24"/>
  <path class="BraceletLeather-Mediumfil33new BraceletLeather-Mediumstr3new" d="M18718 19884c170,-64 252,-113 422,-177 71,-38 153,-183 118,-204 -81,-66 -168,-141 -243,-214 -121,135 -305,285 -475,399 60,66 119,131 178,196z" style="fill:#560d03"/>
  <path class="BraceletLeather-Mediumfil50new BraceletLeather-Mediumstr4new" d="M18630 19936c151,-67 255,-143 151,-272 -117,-147 -267,-135 -481,-33 -407,194 -958,608 -1165,923 -91,139 -91,306 39,409 129,103 210,-20 307,-153 244,-331 766,-704 1149,-874z" style="fill:#4de9ef"/>
  <path class="BraceletLeather-Mediumfil46new" d="M18630 19936c79,-35 145,-73 175,-119 -76,-41 -166,-29 -239,0 -507,201 -954,539 -1254,974 -48,70 -58,140 -38,210 76,-6 137,-95 207,-191 244,-331 766,-704 1149,-874z" style="fill:#439e53"/>
  <path class="BraceletLeather-Mediumfil47new BraceletLeather-Mediumstr4new" d="M18630 19936c151,-67 255,-143 151,-272 -117,-147 -267,-135 -481,-33 -407,194 -958,608 -1165,923 -91,139 -91,306 39,409 129,103 210,-20 307,-153 244,-331 766,-704 1149,-874z" style="fill:#d52779"/>
 </g><g id="Head-Rabbit5">
   <animateTransform additive="sum" attributeName="transform" dur="10" repeatCount="indefinite" type="translate" values="0;0 200;0;0 200;0;0 200;0;0 200;0"/>
  <metadata id="CorelCorpID_65Corel-Layer"/>
  <path class="Head-Rabbit5fil178" d="M13681.94 7484.8c-445.34,3.91 -928,85.23 -1427.99,229.61 -1103.62,371.14 -2203.53,1165.08 -3042.09,2204.93 -1205.15,1494.44 -873.15,1203.93 -1580.65,2915.57 -539.03,1304.04 -1168.62,733.51 -1297.48,754.47 267.46,916.27 831.17,972.32 1178.54,1031.08 -221.07,307.54 -745.98,366.01 -995.04,105.15 118.19,944.25 1140.39,887.04 1303.34,879.04 -137.35,278.35 -452.51,391.43 -657.93,352.06 1066.97,1055.11 3854.35,1785.09 4967.72,1886.01 325.37,46.56 1551.56,58.73 1551.56,58.73l0.02 -7260.89 0.02 7260.89c0,0 1226.19,-12.17 1551.56,-58.73 1113.37,-100.92 3900.75,-830.9 4967.72,-1886.01 -205.42,39.37 -520.58,-73.71 -657.93,-352.06 162.95,8 1185.15,65.21 1303.34,-879.04 -249.06,260.86 -773.97,202.39 -995.04,-105.15 347.37,-58.76 911.08,-114.81 1178.54,-1031.08 -128.86,-20.96 -758.45,549.57 -1297.48,-754.47 -707.5,-1711.64 -375.5,-1421.13 -1580.65,-2915.57 -838.56,-1039.85 -1938.47,-1833.79 -3042.09,-2204.93 -499.99,-144.38 -982.65,-225.7 -1427.99,-229.61z" style="fill:#0e6ad5"/>
  <path class="Head-Rabbit5fil179" d="M13681.94 7484.8c-445.34,3.92 -928,85.52 -1427.99,230.39 -1103.62,372.39 -2203.53,1169.02 -3042.09,2212.39 -1205.15,1499.5 -873.15,1208 -1580.65,2925.43 -539.03,1308.46 -1168.62,736 -1297.48,757.03 267.46,919.37 831.17,975.61 1178.54,1034.57 -221.07,308.58 -745.98,367.25 -995.04,105.5 118.19,947.45 1140.39,890.04 1303.34,882.02 -137.35,279.29 -452.51,392.75 -657.93,353.25 1066.97,1058.68 3854.35,1791.13 4967.72,1892.39 325.37,46.72 1551.56,58.93 1551.56,58.93l0.02 -7285.46 0.02 7285.46c0,0 1226.19,-12.21 1551.56,-58.93 1113.37,-101.26 3900.75,-833.71 4967.72,-1892.39 -205.42,39.5 -520.58,-73.96 -657.93,-353.25 162.95,8.02 1185.15,65.43 1303.34,-882.02 -249.06,261.75 -773.97,203.08 -995.04,-105.5 347.37,-58.96 911.08,-115.2 1178.54,-1034.57 -128.86,-21.03 -758.45,551.43 -1297.48,-757.03 -707.5,-1717.43 -375.5,-1425.93 -1580.65,-2925.43 -838.56,-1043.37 -1938.47,-1840 -3042.09,-2212.39 -499.99,-144.87 -982.65,-226.47 -1427.99,-230.39z" style="fill:#7c7a94"/>
  <path class="Head-Rabbit5fil28" d="M13681.94 7559.8c-408.05,0 -767.02,56.44 -1101.68,148.75 -949.75,261.97 -2036.74,899.1 -2715.65,1499.17 604.3,-730.18 1714.22,-1378.1 2675.81,-1643.31 347.84,-95.94 719.98,-154.61 1141.52,-154.61 421.54,0 793.68,58.67 1141.52,154.61 961.59,265.21 2071.51,913.13 2675.81,1643.31 -678.91,-600.07 -1765.9,-1237.2 -2715.65,-1499.17 -334.66,-92.31 -693.63,-148.75 -1101.68,-148.75z" style="fill:#07aa1d"/>
  <path class="Head-Rabbit5fil180" d="M9291.86 10605.42c-1450.23,403.45 -1732.05,3221.38 -524.52,4269.17 911.6,791.01 2065.09,1058.89 3209.47,537.29 19.54,210.62 144.88,891.49 948.89,959.77 333.14,16.99 652.05,-110.72 756.3,-227.75 -0.01,-169.81 -0.09,-317.19 -0.06,-555.53 0,0 -799.05,-570.93 -896.71,-779.42 -97.66,-208.49 -188.25,-1322.69 -188.25,-1322.69l-0.35 -0.67c-133.69,-1493.09 -990.07,-3297.04 -3304.77,-2880.17z" style="fill:#034450"/>
  <path class="Head-Rabbit5fil181" d="M18072.14 10605.42c1450.23,403.45 1732.05,3221.38 524.52,4269.17 -911.6,791.01 -2065.09,1058.89 -3209.47,537.29 -19.54,210.62 -144.88,891.49 -948.89,959.77 -333.14,16.99 -652.05,-110.72 -756.3,-227.75 0.01,-169.81 0.09,-317.19 0.06,-555.53 0,0 799.05,-570.93 896.71,-779.42 97.66,-208.49 188.25,-1322.69 188.25,-1322.69l0.35 -0.67c133.69,-1493.09 990.07,-3297.04 3304.77,-2880.17z" style="fill:#81d39b"/>
  <path class="Head-Rabbit5fil28" d="M12641.48 17908.84c-1104.4,67.06 -3251.79,-652.3 -3491.78,-743.41 -816.27,-309.89 -1581.75,-702.45 -2039.79,-1155.4 -29.44,-29.12 -29.71,-76.61 -0.59,-106.05 19.22,-19.43 46.45,-26.15 71.2,-20.1 94.6,16.95 216.85,-3.9 329.4,-64.12 62.48,-33.43 121.48,-79 170.54,-136.96 -348.68,-2.89 -1130.92,-95.53 -1237.64,-948.11 -5.01,-41.09 24.24,-78.48 65.33,-83.49 25.99,-3.17 50.49,7.38 66.27,25.95 16.55,16.96 34.36,32.22 53.17,45.73 104.34,75.01 244.42,103.4 383.98,89.55 127.95,-12.7 254.19,-60.92 351.31,-141.33 -363.23,-65.27 -853.22,-212.3 -1100.93,-1060.92 -11.48,-39.64 11.34,-81.1 50.98,-92.58 2.93,-0.85 5.86,-1.5 8.8,-1.98 42.88,-7.05 90.72,11.47 154.13,36 220.9,85.47 692.92,268.08 1085.62,-743.66 345.91,-891.2 541.8,-1393.48 753.06,-1790.4 85.38,-160.43 491.66,-797.05 961.07,-1176.2 -438.07,592.06 -694.8,993.93 -829.23,1246.52 -206.73,388.41 -401.47,887.78 -745.44,1773.98 -432.33,1113.85 -977.05,944.65 -1252.23,839.53 255.76,710.03 720.07,786.62 1032.37,838.06l43.49 7.18 -0.02 0.12c10.98,1.82 21.73,6.13 31.37,13.07 33.49,24.1 41.09,70.8 16.99,104.29 -23.55,32.76 -49.9,62.84 -78.48,90.12 -124.71,119.07 -295.7,189.89 -468.22,207.02 -137.59,13.66 -277.2,-6.83 -396.44,-64.15 208.9,681.08 1032.47,640.47 1183.72,633.02l1.38 -0.07c12.95,-1 26.32,1.35 38.81,7.51 37.05,18.28 52.26,63.15 33.98,100.2 -70.83,143.55 -183.81,247.7 -307.42,313.84 -73.69,39.43 -151.6,65.36 -226.98,78.12 450.31,384.47 1128.58,722.09 1849.18,995.67 334.11,126.85 2075.07,702.07 3439.04,883.45z" style="fill:#69f4b3"/>
  <path class="Head-Rabbit5fil28" d="M14722.4 17908.84c1104.4,67.06 3251.79,-652.3 3491.78,-743.41 816.27,-309.89 1581.75,-702.45 2039.79,-1155.4 29.44,-29.12 29.71,-76.61 0.59,-106.05 -19.22,-19.43 -46.45,-26.15 -71.2,-20.1 -94.6,16.95 -216.85,-3.9 -329.4,-64.12 -62.48,-33.43 -121.48,-79 -170.54,-136.96 348.68,-2.89 1130.92,-95.53 1237.64,-948.11 5.01,-41.09 -24.24,-78.48 -65.33,-83.49 -25.99,-3.17 -50.49,7.38 -66.27,25.95 -16.55,16.96 -34.36,32.22 -53.17,45.73 -104.34,75.01 -244.42,103.4 -383.98,89.55 -127.95,-12.7 -254.19,-60.92 -351.31,-141.33 363.23,-65.27 853.22,-212.3 1100.93,-1060.92 11.48,-39.64 -11.34,-81.1 -50.98,-92.58 -2.93,-0.85 -5.86,-1.5 -8.8,-1.98 -42.88,-7.05 -90.72,11.47 -154.13,36 -220.9,85.47 -692.92,268.08 -1085.62,-743.66 -345.91,-891.2 -541.8,-1393.48 -753.06,-1790.4 -85.38,-160.43 -491.66,-797.05 -961.07,-1176.2 438.07,592.06 694.8,993.93 829.23,1246.52 206.73,388.41 401.47,887.78 745.44,1773.98 432.33,1113.85 977.05,944.65 1252.23,839.53 -255.76,710.03 -720.07,786.62 -1032.37,838.06l-43.49 7.18 0.02 0.12c-10.98,1.82 -21.73,6.13 -31.37,13.07 -33.49,24.1 -41.09,70.8 -16.99,104.29 23.55,32.76 49.9,62.84 78.48,90.12 124.71,119.07 295.7,189.89 468.22,207.02 137.59,13.66 277.2,-6.83 396.44,-64.15 -208.9,681.08 -1032.47,640.47 -1183.72,633.02l-1.38 -0.07c-12.95,-1 -26.32,1.35 -38.81,7.51 -37.05,18.28 -52.26,63.15 -33.98,100.2 70.83,143.55 183.81,247.7 307.42,313.84 73.69,39.43 151.6,65.36 226.98,78.12 -450.31,384.47 -1128.58,722.09 -1849.18,995.67 -334.11,126.85 -2075.07,702.07 -3439.04,883.45z" style="fill:#895b16"/>
  <path class="Head-Rabbit5fil10" d="M8206.38 11490.52c-486.96,676.83 -523.66,2525.87 -1861.7,2139.95 47.01,311.74 562.17,1054.73 1168.27,993.38 0.66,0 4.3,29.17 4.7,31.93 -65.75,88.37 -429.15,319.32 -983.1,173.31 457.83,1113.85 1332.23,718.49 1296.15,800.71 -114.23,164.65 -385.28,287.28 -627.06,377.75 687.43,650.08 2139.91,1241.68 3593.65,1593.14 582.7,155.32 1207.53,256.32 1844.19,308.15 -3878.4,-920.42 -5358.32,-2312.3 -4435.1,-6418.32zm-515.39 3837.87c-266.72,-10.79 -590.85,-92.22 -912.48,-375.9 321.06,100.48 584.76,66.97 789.88,-23.57 31.27,138.46 72.42,271.54 122.6,399.47zm-209.66 -1035.91c-262.22,-48.98 -568.58,-182.36 -843.4,-536.33 368.04,55.41 651.14,-6.68 859.15,-131.55 -21.94,224.93 -27.6,448.1 -15.75,667.88z" style="fill:#fedb30"/>
 </g><g id="Mouth-Rabbit0">
   <animateTransform additive="sum" attributeName="transform" dur="10" repeatCount="indefinite" type="translate" values="0;0 200;0;0 200;0;0 200;0;0 200;0"/>
  <metadata id="CorelCorpID_68Corel-Layer"/>
  <path class="Mouth-Rabbit0fil0 Mouth-Rabbit0str0" d="M13681.94 15480.93c0,341.31 -250.76,1248.84 -1293.21,772.59" style="fill:#dc3c67"/>
  <path class="Mouth-Rabbit0fil0 Mouth-Rabbit0str0" d="M13681.94 15480.93c0,341.31 250.76,1248.84 1293.21,772.59" style="fill:#510349"/>
  <path class="Mouth-Rabbit0fil186 Mouth-Rabbit0str0" d="M13681.94 15799.54l0 906.34c0,0 -287.09,37.01 -450.6,-89.12 -163.51,-126.14 -117.3,-251.95 -117.3,-251.95 0,0 303.44,-37.44 567.9,-565.27z" style="fill:#3951a7"/>
  <path class="Mouth-Rabbit0fil187 Mouth-Rabbit0str0" d="M13681.94 15799.54l0 906.34c0,0 287.09,37.01 450.6,-89.12 163.51,-126.14 117.3,-251.95 117.3,-251.95 0,0 -303.44,-37.44 -567.9,-565.27z" style="fill:#4d1190"/>
 </g><g id="EyesClosed-Rabbit9">
   <animateTransform additive="sum" attributeName="transform" dur="10" repeatCount="indefinite" type="translate" values="0;0 200;0;0 200;0;0 200;0;0 200;0"/>
  <metadata id="CorelCorpID_96Corel-Layer"/>
  <g id="_2131599724336">
   <path class="EyesClosed-Rabbit9fil207" d="M16103.38 10798.46c235.26,-200.25 451.13,-353.3 754.07,-429.4 150.16,-37.73 145.36,-219.92 -103.37,-272.25 -147.87,-31.13 -476.96,-75.26 -736.38,-32.5 -570.39,94.02 -1088.2,540.58 -1104,865.52 -14.91,306.62 48.99,594.52 193.51,767.31 261.67,312.88 623.67,-581.61 996.17,-898.68z"/>
   <path class="EyesClosed-Rabbit9fil10" d="M16103.38 10798.46c235.26,-200.25 451.13,-353.3 754.07,-429.4 150.16,-37.73 145.36,-219.92 -103.37,-272.25 -147.87,-31.13 -476.96,-75.26 -736.38,-32.5 -570.39,94.02 -1088.2,540.58 -1104,865.52 -14.91,306.62 48.99,594.52 193.51,767.31 261.67,312.88 623.67,-581.61 996.17,-898.68z"/>
  </g>
  <g id="_2131599723792">
   <path class="EyesClosed-Rabbit9fil207" d="M11260.5 10798.46c-235.26,-200.25 -451.13,-353.3 -754.07,-429.4 -150.16,-37.73 -145.36,-219.92 103.37,-272.25 147.87,-31.13 476.96,-75.26 736.38,-32.5 570.39,94.02 1088.2,540.58 1104,865.52 14.91,306.62 -48.99,594.52 -193.51,767.31 -261.67,312.88 -623.67,-581.61 -996.17,-898.68z"/>
   <path class="EyesClosed-Rabbit9fil10" d="M11260.5 10798.46c-235.26,-200.25 -451.13,-353.3 -754.07,-429.4 -150.16,-37.73 -145.36,-219.92 103.37,-272.25 147.87,-31.13 476.96,-75.26 736.38,-32.5 570.39,94.02 1088.2,540.58 1104,865.52 14.91,306.62 -48.99,594.52 -193.51,767.31 -261.67,312.88 -623.67,-581.61 -996.17,-898.68z"/>
  </g>
  <path class="EyesClosed-Rabbit9fil28" d="M15219.85 14073.04c-89.13,-5.32 -100.13,-88.81 -22.14,-106.82 569.93,-131.69 1223.44,-228.38 1921.48,-541.39 591.12,-265.06 1253.15,-725.71 1520,-1075.28 45.26,-59.28 75.19,-109.44 116.84,-105.59 129.45,11.93 58.17,203.69 40.23,267.69 -145.54,519.27 -804.89,1032.18 -1548.09,1288.03 -603.53,207.76 -1215.55,197.39 -2028.32,273.36z"/>
  <path class="EyesClosed-Rabbit9fil28" d="M12144.03 14073.04c89.13,-5.32 100.13,-88.81 22.14,-106.82 -569.93,-131.69 -1223.44,-228.38 -1921.48,-541.39 -591.12,-265.06 -1253.15,-725.71 -1520,-1075.28 -45.26,-59.28 -75.19,-109.44 -116.84,-105.59 -129.45,11.93 -58.17,203.69 -40.23,267.69 145.54,519.27 804.89,1032.18 1548.09,1288.03 603.53,207.76 1215.55,197.39 2028.32,273.36z"/>
 </g><g id="WeaponFlySwatter-Medium">
 <animateTransform additive="sum" attributeName="transform" dur="10" repeatCount="indefinite" type="translate" values="0;0 200;0;0 200;0;0 200;0;0 200;0"/>
  <metadata id="CorelCorpID_1Corel-Layer"/>
  <g id="_2367108401984">
   <path class="WeaponFlySwatter-Mediumfil2 WeaponFlySwatter-Mediumstr0" d="M12021 22875c-60,107 -120,214 -181,320 -796,-449 -1593,-899 -2390,-1348 -25,-155 36,-261 180,-320 797,449 1594,899 2391,1348z" style="fill:#3c9f9e"/>
   <path class="WeaponFlySwatter-Mediumfil3" d="M11911 23070l-71 125c-796,-449 -1593,-899 -2390,-1348 -13,-83 -2,-151 33,-206l2428 1429z" style="fill:#5e8635"/>
   <path class="WeaponFlySwatter-Mediumfil4" d="M15132 23138c18,9 34,17 47,25 244,135 344,347 329,601 -14,234 -129,505 -322,782 -47,68 -98,134 -152,200 -54,66 -110,129 -168,190 -241,251 -505,440 -763,538 -282,107 -559,110 -802,-25 -14,-8 -29,-17 -45,-28l-1620 -1038c-225,-145 -316,-292 -255,-521 53,-198 230,-454 546,-840 316,-385 540,-615 743,-729 237,-133 437,-118 684,-1l1778 846zm-2015 -717l-36 45 194 108 52 -64 -94 -44c-41,-20 -79,-34 -116,-45zm341 152l-57 70 194 108 67 -81 -204 -97zm335 159l-72 89 194 107 81 -99 -203 -97zm335 160l-88 106 195 108 96 -118 -203 -96zm335 159l-103 124 195 108 111 -135 -203 -97zm334 159l-117 143 194 108 127 -154 -204 -97zm324 173l-121 147 194 108 49 -60c-20,-76 -60,-142 -122,-195zm131 432l-14 -8 -130 158 91 50c25,-69 43,-136 53,-200zm-103 318l-123 -68 -129 158 157 87c36,-60 68,-119 95,-177zm-164 284l-170 -95 -130 158 180 100c37,-47 71,-93 103,-138 6,-8 12,-17 17,-25zm-201 262l-181 -100 -129 158 170 95c8,-8 15,-15 23,-23 39,-41 78,-84 117,-130zm-235 245l-157 -87 -130 158 123 68c55,-42 110,-89 164,-139zm-278 220l-91 -50 -129 158 13 8c69,-31 138,-70 207,-116zm-477 198l49 -60 -194 -108 -121 148c83,27 173,33 266,20zm-397 -84l127 -153 -195 -108 -117 143 185 118zm-305 -195l112 -136 -195 -108 -102 125 185 119zm-305 -196l97 -117 -194 -108 -88 106 185 119zm-305 -195l82 -100 -194 -107 -73 88 185 119zm-305 -196l67 -81 -194 -108 -58 70 185 119zm-304 -195l51 -63 -194 -108 -36 44c25,24 56,48 93,72l86 55zm-248 -374l61 34 130 -158 -109 -61c-40,70 -67,131 -82,185zm149 -293l124 69 129 -158 -136 -76c-45,60 -84,115 -117,165zm194 -266l141 78 130 -158 -143 -80c-46,56 -89,110 -128,160zm209 -259l144 79 130 -158 -141 -78c-42,49 -86,101 -133,157zm218 -254l137 76 130 -158 -124 -69c-45,45 -92,95 -143,151zm240 -242l109 61 130 -158 -61 -34c-55,31 -114,75 -178,131zm1843 1917l-194 -108 -130 158 194 108 130 -158zm-320 -178l-194 -107 -130 158 194 107 130 -158zm-320 -177l-194 -108 -130 158 194 108 130 -158zm-320 -177l-194 -108 -130 158 195 107 129 -157zm-319 -178l-195 -108 -130 158 195 108 130 -158zm-320 -177l-195 -108 -129 158 194 108 130 -158zm-320 -178l-194 -107 -130 157 194 108 130 -158zm-113 -207l195 108 129 -158 -194 -108 -130 158zm320 177l194 108 130 -158 -194 -107 -130 157zm320 178l194 108 130 -158 -194 -108 -130 158zm320 177l194 108 130 -158 -194 -108 -130 158zm320 178l194 107 130 -157 -195 -108 -129 158zm320 177l194 108 130 -158 -195 -108 -129 158zm319 178l195 107 129 -158 -194 -107 -130 158zm-1707 -1322l194 107 130 -158 -194 -107 -130 158zm320 177l194 108 130 -158 -195 -108 -129 158zm320 177l194 108 130 -158 -195 -107 -129 157zm319 178l195 108 129 -158 -194 -108 -130 158zm320 177l194 108 130 -158 -194 -108 -130 158zm320 178l194 107 130 -157 -194 -108 -130 158zm320 177l194 108 130 -158 -194 -108 -130 158zm-1708 -1322l195 108 129 -158 -194 -108 -130 158zm320 178l194 107 130 -158 -194 -107 -130 158zm320 177l194 108 130 -158 -194 -108 -130 158zm320 177l194 108 130 -158 -194 -107 -130 157zm320 178l194 108 130 -158 -195 -108 -129 158zm320 177l194 108 130 -158 -195 -108 -129 158zm319 178l195 107 129 -157 -194 -108 -130 158zm-2635 -193l-130 158 195 108 129 -158 -194 -108zm320 177l-130 158 194 108 130 -158 -194 -108zm320 178l-130 158 194 107 130 -157 -194 -108zm320 177l-130 158 194 108 130 -158 -194 -108zm319 178l-129 158 194 107 130 -158 -195 -107zm320 177l-129 158 194 108 130 -158 -195 -108zm320 177l-130 158 195 108 129 -158 -194 -108zm-2130 -807l-130 158 194 108 130 -158 -194 -108zm319 178l-129 158 194 107 130 -157 -195 -108zm320 177l-130 158 195 108 129 -158 -194 -108zm320 178l-130 158 195 107 129 -158 -194 -107zm320 177l-130 158 194 108 130 -158 -194 -108zm320 177l-130 158 194 108 130 -158 -194 -108zm320 178l-130 158 194 108 130 -158 -194 -108z" style="fill:#13c49e"/>
   <path class="WeaponFlySwatter-Mediumfil1" d="M14481 25269c-125,88 -252,157 -378,205 -282,107 -559,110 -802,-25 -14,-8 -29,-17 -45,-28l-1620 -1038c-225,-145 -316,-292 -255,-521 53,-198 230,-454 546,-840 316,-385 540,-615 743,-729 237,-133 437,-118 684,-1l44 21c-232,65 -436,163 -608,285l84 -102 -61 -34c-55,31 -114,75 -178,131l92 51c-37,28 -71,57 -105,87l-84 -47c-45,45 -92,95 -143,151l81 45c-29,32 -56,65 -81,100l-85 -48c-42,49 -86,101 -133,157l107 59c-21,37 -40,75 -58,113l-130 -73c-46,56 -89,110 -128,160l141 78 94 -115c-48,113 -81,229 -100,345l-80 97 65 36c-1,13 -2,26 -2,39 -2,36 1,73 9,109l-153 -85 -130 158 194 108 103 -125c15,48 36,97 64,144l-41 51 123 68c114,144 280,282 473,408l-38 -22 -88 106 185 119 92 -111c41,23 83,46 126,69l-98 119 185 119 112 -136 -54 -30c254,122 524,220 774,285l1 1 0 -1c52,14 104,26 154,36l-28 34 13 8c22,-10 43,-20 64,-32 129,25 248,39 353,41zm-687 73l49 -60 -194 -108 -121 148c83,27 173,33 266,20zm-397 -84l127 -153 -195 -108 -117 143 185 118zm-915 -586l82 -100 -194 -107 -73 88 185 119zm-305 -196l67 -81 -194 -108 -58 70 185 119zm-304 -195l51 -63 -194 -108 -36 44c25,24 56,48 93,72l86 55zm-248 -374l61 34 130 -158 -109 -61c-40,70 -67,131 -82,185zm149 -293l124 69 129 -158 -136 -76c-45,60 -84,115 -117,165z" style="fill:#6d6290"/>
   <path class="WeaponFlySwatter-Mediumfil5 WeaponFlySwatter-Mediumstr1" d="M15132 23138c18,9 34,17 47,25 244,135 344,347 329,601 -14,234 -129,505 -322,782 -47,68 -98,134 -152,200 -54,66 -110,129 -168,190 -241,251 -505,440 -763,538 -282,107 -559,110 -802,-25 -14,-8 -29,-17 -45,-28l-1620 -1038c-225,-145 -316,-292 -255,-521 53,-198 230,-454 546,-840 316,-385 540,-615 743,-729 237,-133 437,-118 684,-1l1778 846z" style="fill:#ead137"/>
  </g>
 </g><g id="Eyes-Rabbit9">
   <animate attributeName="opacity" dur="10" repeatCount="indefinite" values="0;1;1;1;1;1;1;1;1;1;1;1;1;1;1;1;1;1;1;1;1;1;1;1;1;1;1;1;1;1;1;1;1;1;1;1;1;1;1;1;1;1;1;1;1;1;1;1;1;1;1;1;1;1;1;1;1;1;1;1;1;1;1;1;1;1;1;1;1;1;1;1;1;1;1;1;1;1;1;1;1;1;1;1;0;0"/>
   <animateTransform additive="sum" attributeName="transform" dur="10" repeatCount="indefinite" type="translate" values="0;0 200;0;0 200;0;0 200;0;0 200;0"/>
  <metadata id="CorelCorpID_97Corel-Layer"/>
  <g id="_2131599789968">
   <g>
    <path class="Eyes-Rabbit9fil269" d="M18263.6 11154.4c-329.28,-156.96 -2060.39,375.3 -2932.2,1473.62 -62.73,391.81 -174.6,813.62 -133.83,1380.29 389.61,679.03 1322.03,1136.18 2515.18,527.63 945.55,-482.25 1637.97,-1864.96 550.85,-3381.54z"/>
    <path class="Eyes-Rabbit9fil270" d="M16465.58 14605.32c-271.49,0 -1190.31,-149.54 -1278.36,-789.58 -18.04,-620.32 29.62,-797.16 167.87,-1253.73 567.87,-771.4 1428.95,-1050.07 2319.36,-1379.92 393.4,366.15 639.54,888.45 639.54,1468.28 0,1107.69 -740.73,1954.95 -1848.41,1954.95z"/>
    <path class="Eyes-Rabbit9fil271" d="M15484.62 12363.45c337.62,-437.32 761.92,-687.37 1741.51,-1036.18 277.88,314.07 452.55,768.68 452.55,1274.39 0,807.19 -339.86,1722.18 -1295.32,1664.32 -848.9,-51.49 -1094.12,-1138.74 -898.74,-1902.53z"/>
    <path class="Eyes-Rabbit9fil0 Eyes-Rabbit9str0" d="M18230.61 11139.05c-350.11,-121.67 -1788.82,400.23 -2575.82,1040.19 -400.92,322.97 -512.8,1056.48 -457.21,1829.07 944.09,1812.26 4621.44,414.01 3364.31,-2337.24 -50.24,-109.95 -224.94,-495.07 -331.28,-532.02z"/>
    <path class="Eyes-Rabbit9fil189" d="M18244.87 11119.01c-292.78,-195.21 -2263.22,452.68 -2871.9,1396.64 -128.95,407.14 -223.12,1089.77 -147.92,1555.28 21.37,35.99 102.11,216.64 129.44,163.24 -147.35,-1655.55 1382.27,-2820.83 3331.4,-2250.53 -56.8,-141.02 -362.58,-716.29 -441.02,-864.63z"/>
   </g>
   <g>
    <circle class="Eyes-Rabbit9fil211" r="234.72" transform="matrix(-0.138536 2.37922 2.16576 0.309783 17346.5 12543.6)"/>
    <circle class="Eyes-Rabbit9fil211" r="234.72" transform="matrix(-0.779081 0.593895 0.48333 0.758367 17894.9 13868.2)"/>
    <circle class="Eyes-Rabbit9fil211" r="234.72" transform="matrix(-0.297726 0.382054 0.326582 0.301743 18192.2 13340.1)"/>
   </g>
  </g>
  <g id="_2131599785360">
   <g>
    <path class="Eyes-Rabbit9fil272" d="M9100.28 11154.4c329.28,-156.96 2060.39,375.3 2932.2,1473.62 62.73,391.81 174.6,813.62 133.83,1380.29 -389.61,679.03 -1322.03,1136.18 -2515.18,527.63 -945.55,-482.25 -1637.97,-1864.96 -550.85,-3381.54z"/>
    <path class="Eyes-Rabbit9fil273" d="M10898.3 14605.32c271.49,0 1190.31,-149.54 1278.36,-789.58 18.04,-620.32 -29.62,-797.16 -167.87,-1253.73 -567.87,-771.4 -1428.95,-1050.07 -2319.36,-1379.92 -393.4,366.15 -639.54,888.45 -639.54,1468.28 0,1107.69 740.73,1954.95 1848.41,1954.95z"/>
    <path class="Eyes-Rabbit9fil274" d="M11879.26 12363.45c-337.62,-437.32 -761.92,-687.37 -1741.51,-1036.18 -277.88,314.07 -452.55,768.68 -452.55,1274.39 0,807.19 339.86,1722.18 1295.32,1664.32 848.9,-51.49 1094.12,-1138.74 898.74,-1902.53z"/>
    <path class="Eyes-Rabbit9fil0 Eyes-Rabbit9str0" d="M9133.27 11139.05c350.11,-121.67 1788.82,400.23 2575.82,1040.19 400.92,322.97 512.8,1056.48 457.21,1829.07 -944.09,1812.26 -4621.44,414.01 -3364.31,-2337.24 50.24,-109.95 224.94,-495.07 331.28,-532.02z"/>
    <path class="Eyes-Rabbit9fil189" d="M9119.01 11119.01c292.78,-195.21 2263.22,452.68 2871.9,1396.64 128.95,407.14 223.12,1089.77 147.92,1555.28 -21.37,35.99 -102.11,216.64 -129.44,163.24 147.35,-1655.55 -1382.27,-2820.83 -3331.4,-2250.53 56.8,-141.02 362.58,-716.29 441.02,-864.63z"/>
   </g>
   <g>
    <circle class="Eyes-Rabbit9fil211" r="234.72" transform="matrix(0.138536 2.37922 -2.16576 0.309783 10017.4 12543.6)"/>
    <circle class="Eyes-Rabbit9fil211" r="234.72" transform="matrix(0.779081 0.593895 -0.48333 0.758367 9468.96 13868.2)"/>
    <circle class="Eyes-Rabbit9fil211" r="234.72" transform="matrix(0.297726 0.382054 -0.326582 0.301743 9171.63 13340.1)"/>
   </g>
  </g>
 </g><g id="Moustache-Rabbit0">
   <animateTransform additive="sum" attributeName="transform" dur="10" repeatCount="indefinite" type="translate" values="0;0 200;0;0 200;0;0 200;0;0 200;0"/>
  <metadata id="CorelCorpID_98Corel-Layer"/>
  <rect class="Moustache-Rabbit0fil0" height="1458.79" width="1352.04" x="13005.92" y="11962.24"/>
  <rect class="Moustache-Rabbit0fil0" height="1458.79" width="1352.04" x="13005.92" y="11962.24"/>
 </g><g id="Nose-Rabbit0">
   <animateTransform additive="sum" attributeName="transform" dur="10" repeatCount="indefinite" type="translate" values="0;0 200;0;0 200;0;0 200;0;0 200;0"/>
  <metadata id="CorelCorpID_107Corel-Layer"/>
  <path class="Nose-Rabbit0fil320 Nose-Rabbit0str0" d="M13681.94 15552.26c0,0 -562.44,-234.12 -896.71,-743.31 389.83,185.2 450.19,134.81 896.71,339.9 446.52,-205.09 506.88,-154.7 896.71,-339.9 -334.27,509.19 -896.71,743.31 -896.71,743.31z" style="fill:#067b4c"/>
 </g><g id="AccessoryTeddy">
  <metadata id="CorelCorpID_6Corel-Layer"/>
  <g>
   <path class="AccessoryTeddyfil109 AccessoryTeddystr1" d="M7342 24083c-376,367 -734,92 -1120,-302 -385,-395 -508,-899 -275,-1126 233,-228 734,-93 1119,302 385,394 651,759 276,1126z" style="fill:#f35665"/>
   <path class="AccessoryTeddyfil110 AccessoryTeddystr1" d="M3383 24083c376,367 734,92 1119,-302 386,-395 636,-998 402,-1225 -233,-228 -860,6 -1245,401 -386,394 -652,759 -276,1126z" style="fill:#b9a4c1"/>
   <path class="AccessoryTeddyfil111" d="M5474 22410c640,0 1105,587 1322,1161 112,294 175,1129 -17,1563 -161,363 -464,317 -1305,317 -880,0 -1336,51 -1486,-333 -165,-422 -4,-1305 110,-1600 225,-583 735,-1108 1376,-1108z" style="fill:#1efd73"/>
   <path class="AccessoryTeddyfil3" d="M6432 22924c9,-17 270,267 434,621 76,162 114,514 110,860 -3,276 -40,557 -129,759 -163,369 -434,367 -1121,363 -56,0 -117,-1 -252,-1 -140,0 -209,1 -275,1 -735,5 -1129,8 -1281,-382 -73,-189 -86,-458 -68,-730 26,-369 103,-750 178,-924 183,-426 425,-605 441,-589 17,17 -179,238 -301,643 -52,170 -144,525 -168,880 -18,253 -7,500 58,666 115,294 473,291 1141,287 107,-1 221,-2 275,-2 44,0 152,1 252,2 617,3 860,5 984,-275 81,-182 114,-441 117,-699 4,-328 -39,-648 -101,-807 -118,-305 -304,-656 -294,-673z" style="fill:#90c5c5"/>
   <path class="AccessoryTeddyfil112" d="M5441 22923c422,0 729,302 872,681 358,949 -178,1322 -872,1322 -694,0 -1329,-264 -906,-1357 149,-384 484,-646 906,-646z" style="fill:#52269d"/>
   <path class="AccessoryTeddyfil113 AccessoryTeddystr1" d="M4534 21091c-308,0 -557,-222 -557,-496 0,-274 272,-592 580,-592 308,0 535,318 535,592 0,274 -250,496 -558,496z" style="fill:#b7e229"/>
   <path class="AccessoryTeddyfil19" d="M4573 20888c-153,0 -277,-111 -277,-247 0,-136 124,-246 277,-246 153,0 277,110 277,246 0,136 -124,247 -277,247z" style="fill:#b70024"/>
   <path class="AccessoryTeddyfil113 AccessoryTeddystr1" d="M6909 21352c-308,0 -557,-222 -557,-496 0,-274 269,-582 577,-582 308,0 538,308 538,582 0,274 -250,496 -558,496z" style="fill:#37c58c"/>
   <path class="AccessoryTeddyfil19" d="M6845 21167c-158,0 -286,-114 -286,-254 0,-140 128,-253 286,-253 157,0 285,113 285,253 0,140 -128,254 -285,254z" style="fill:#6f35f7"/>
   <path class="AccessoryTeddyfil114 AccessoryTeddystr1" d="M5493 20331c787,13 1234,692 1367,1304 132,611 -412,1168 -1605,1043 -1192,-126 -1303,-654 -1157,-1101 145,-446 609,-1260 1395,-1246z" style="fill:#806ca9"/>
   <path class="AccessoryTeddyfil115" d="M5439 21393c431,45 822,371 786,717 -36,347 -738,429 -971,403 -234,-26 -812,-239 -776,-586 37,-347 530,-579 961,-534z" style="fill:#8970d6"/>
   <path class="AccessoryTeddyfil116 AccessoryTeddystr1" d="M3763 24181c419,-194 673,49 808,408 135,359 70,749 -211,880 -281,130 -610,-82 -808,-408 -197,-326 -207,-686 211,-880z" style="fill:#68584e"/>
   <path class="AccessoryTeddyfil117" d="M3693 24534c42,-20 64,21 89,74 24,53 42,98 0,118 -42,19 -96,-8 -120,-61 -25,-53 -11,-112 31,-131zm316 152c119,-55 176,-94 246,56 69,151 53,307 -66,362 -119,55 -272,-22 -342,-172 -69,-151 43,-191 162,-246zm68 -337c42,-20 77,19 102,72 24,53 28,100 -13,119 -42,20 -96,-7 -121,-60 -24,-53 -10,-112 32,-131zm-236 27c46,-21 84,16 112,74 27,59 33,118 -14,139 -46,22 -106,-8 -133,-67 -28,-59 -12,-124 35,-146z" style="fill:#6fb4dc"/>
   <path class="AccessoryTeddyfil118 AccessoryTeddystr1" d="M6934 24204c363,182 359,535 184,885 -176,351 -543,522 -820,383 -277,-138 -313,-489 -184,-885 130,-397 457,-565 820,-383z" style="fill:#0d3d19"/>
   <path class="AccessoryTeddyfil119" d="M7009 24559c-41,-22 -66,16 -95,67 -28,51 -49,95 -9,118 40,22 96,-1 125,-52 28,-50 19,-110 -21,-133zm-328 127c-114,-64 -167,-107 -249,38 -81,144 -76,301 38,366 114,64 273,-1 354,-146 81,-144 -28,-193 -143,-258zm-40 -341c-41,-23 -79,13 -108,64 -28,51 -36,98 4,120 40,23 96,0 125,-51 28,-51 19,-111 -21,-133zm233 46c-45,-25 -86,9 -118,65 -31,57 -42,114 3,140 45,25 106,-1 138,-57 32,-57 21,-123 -23,-148z" style="fill:#4fe814"/>
   <path class="AccessoryTeddyfil120" d="M5033 20819c97,34 143,162 102,285 -40,124 -151,196 -248,162 -97,-34 -143,-162 -103,-286 40,-123 152,-196 249,-161z" style="fill:#1f1d4d"/>
   <path class="AccessoryTeddyfil121" d="M5895 20863c103,-9 195,89 205,218 9,128 -67,240 -170,248 -104,9 -195,-88 -205,-217 -10,-129 66,-240 170,-249z" style="fill:#965cea"/>
   <ellipse class="AccessoryTeddyfil15" rx="135" ry="181" transform="matrix(0.829594 -0.069368 0.0580151 0.767535 5912.39 21095.8)"/>
   <ellipse class="AccessoryTeddyfil15" rx="135" ry="181" transform="matrix(0.786889 0.277973 -0.240129 0.736754 4959.74 21042.4)"/>
   <path class="AccessoryTeddyfil14" d="M5960 20949c18,-10 42,-1 53,20 11,22 6,48 -12,58 -18,11 -34,-2 -45,-24 -12,-21 -14,-43 4,-54z" style="fill:#37d985"/>
   <path class="AccessoryTeddyfil14" d="M5059 20926c21,-2 39,16 41,41 3,24 -12,46 -33,48 -21,3 -27,-16 -29,-41 -2,-25 1,-46 21,-48z" style="fill:#b8d2c7"/>
   <path class="AccessoryTeddyfil15" d="M5329 21486c408,22 178,349 -19,330 -197,-19 -388,-353 19,-330z" style="fill:#150538"/>
   <path class="AccessoryTeddyfil2 AccessoryTeddystr8" d="M4818 21716c-84,107 -82,346 90,433 173,88 282,-23 385,-209 84,253 255,330 428,286 173,-44 301,-229 176,-443" style="fill:#ae31fe"/>
   <line class="AccessoryTeddyfil2 AccessoryTeddystr8" x1="5333" x2="5293" y1="21651" y2="21940"/>
  </g>
 </g><g id="HatG-Medium">
 <animateTransform additive="sum" attributeName="transform" dur="10" repeatCount="indefinite" type="translate" values="0;0 200;0;0 200;0;0 200;0;0 200;0"/>
  <metadata id="CorelCorpID_66Corel-Layer"/>
  <path class="HatG-Mediumfil14new" d="M7531 13089c2101,487 3675,-1155 5913,-1187 2169,-31 4070,1356 6337,650 -719,-580 -1088,-1273 -1807,-1853 -1486,-133 -2972,-266 -4457,-399 -1613,345 -3225,689 -4838,1033 -465,483 -683,1272 -1148,1756z" style="fill:#dde8c2"/>
  <path class="HatG-Mediumfil635new" d="M7709 11316c-106,-2279 -184,-3213 638,-4380 673,-956 4533,-2691 5040,-2243 561,603 1046,3598 246,5547 -1977,83 -3951,427 -5924,1076z" style="fill:#a240d7"/>
  <path class="HatG-Mediumfil636new" d="M7709 11316c-106,-2279 -184,-3213 638,-4380 162,-230 509,-506 950,-785 -1513,1132 -1360,3016 -1030,4988 -95,29 -463,146 -558,177z" style="fill:#d9873f"/>
  <path class="HatG-Mediumfil637new" d="M13414 4670c126,1861 93,3713 219,5570 2058,-86 4120,111 6188,544 -12,-2183 -460,-3199 -1240,-4202 -324,-418 -1289,-824 -2212,-1251 -1264,-584 -2675,-852 -2955,-661z" style="fill:#cabba4"/>
  <path class="HatG-Mediumfil638new" d="M18334 6346c102,79 186,157 247,236 780,1003 1228,2019 1240,4202 -73,-15 -421,-108 -494,-123 197,-1798 -506,-3916 -1369,-4522 -13,-8 386,219 376,207z" style="fill:#417a83"/>
  <path class="HatG-Mediumfil33new HatG-Mediumstr0new" d="M7709 11316c-106,-2279 -184,-3213 638,-4380 673,-956 4533,-2691 5040,-2243 200,-234 1671,32 2982,638 923,427 1888,833 2212,1251 780,1003 1228,2019 1240,4202 -4056,-849 -8087,-791 -12112,532z" style="fill:#6bf142"/>
  <path class="HatG-Mediumfil639new HatG-Mediumstr19new" d="M13621 10126c-98,-1837 -80,-3667 -231,-5459" style="fill:#7ab0af"/>
  <path class="HatG-Mediumfil640new" d="M7531 13089c-370,0 -1426,-339 -1009,-1291 518,-1181 5239,-1804 7140,-1941 2666,-192 7392,272 7422,1763 10,530 -464,966 -1303,932 -1065,-1618 -3963,-1937 -6182,-1916 -2113,20 -5501,1171 -6068,2453z" style="fill:#35c6c8"/>
  <path class="HatG-Mediumfil639new HatG-Mediumstr20new" d="M13209 10079c13,-1387 -159,-3697 -178,-4811 -6,-362 10,-592 65,-630" style="fill:#9a0938"/>
  <path class="HatG-Mediumfil639new HatG-Mediumstr20new" d="M14076 10045c-134,-1380 -165,-3696 -243,-4807 -26,-362 -62,-590 -120,-623" style="fill:#431f27"/>
  <path class="HatG-Mediumfil639new HatG-Mediumstr20new" d="M19199 10436c-4,-2389 -724,-4035 -1871,-4670" style="fill:#9e5fba"/>
  <path class="HatG-Mediumfil639new HatG-Mediumstr20new" d="M8439 10844c-402,-2263 -278,-3874 1357,-5006" style="fill:#7fd1cb"/>
  <path class="HatG-Mediumfil641new" d="M6439 12344c-29,-154 -9,-334 83,-546 518,-1181 5239,-1804 7140,-1941 2666,-192 7392,272 7422,1763 1,55 -3,108 -13,161 -260,-1401 -4812,-1836 -7409,-1650 -1901,137 -6622,760 -7140,1942 -42,97 -69,187 -83,271z" style="fill:#8a20be"/>
  <path class="HatG-Mediumfil33new HatG-Mediumstr6new" d="M7531 13089c-370,0 -1426,-339 -1009,-1291 518,-1181 5239,-1804 7140,-1941 2666,-192 7392,272 7422,1763 10,530 -464,966 -1303,932 -1065,-1618 -3963,-1937 -6182,-1916 -2113,20 -5501,1171 -6068,2453z" style="fill:#cdfa6a"/>
 </g></svg>