<svg xmlns="http://www.w3.org/2000/svg" xmlns:xlink="http://www.w3.org/1999/xlink" style="shape-rendering:geometricPrecision; text-rendering:geometricPrecision; image-rendering:optimizeQuality; fill-rule:evenodd; clip-rule:evenodd" version="1.1" viewBox="0 0 29000 29000" xml:space="preserve"><defs><style type="text/css">.HairBack-Rabbit0fil0 {fill:none}
    
.RightFoot-Rabbit0fil27 {fill:#f2ebf3}
    
.RightFoot-Rabbit0fil10 {fill:black;fill-opacity:0.200000}
    
.RightFoot-Rabbit0fil0 {fill:none}
    
.RightFoot-Rabbit0fil28 {fill:black;fill-rule:nonzero}
    
.RightLeg-Rabbit3fil35 {fill:url(#RightLeg-Rabbit3id10)}
    
.RightLeg-Rabbit3fil28 {fill:black;fill-rule:nonzero}
    
.RightLeg-Rabbit3fil10 {fill:black;fill-opacity:0.200000}
    
.RightLeg-Rabbit3fil27 {fill:#f2ebf3}
    
.LeftFoot-Rabbit0fil27 {fill:#f2ebf3}
    
.LeftFoot-Rabbit0fil10 {fill:black;fill-opacity:0.200000}
    
.LeftFoot-Rabbit0fil0 {fill:none}
    
.LeftFoot-Rabbit0fil28 {fill:black;fill-rule:nonzero}
    
.LeftLeg-Rabbit3fil43 {fill:url(#LeftLeg-Rabbit3id11)}
    
.LeftLeg-Rabbit3fil27 {fill:#f2ebf3}
    
.LeftLeg-Rabbit3fil10 {fill:black;fill-opacity:0.200000}
    
.LeftLeg-Rabbit3fil28 {fill:black;fill-rule:nonzero}
    
.RightHand-Rabbit0fil46 {fill:url(#RightHand-Rabbit0id27)}
    
.RightHand-Rabbit0fil10 {fill:black;fill-opacity:0.200000}
    
.RightHand-Rabbit0fil0 {fill:none}
    
.RightHand-Rabbit0str0 {stroke:black;stroke-width:150;stroke-linecap:round;stroke-linejoin:round;stroke-miterlimit:22.9256}
    
.RightPaw-Rabbit2fil51 {fill:url(#RightPaw-Rabbit2id240)}
    
.RightPaw-Rabbit2fil10 {fill:black;fill-opacity:0.200000}
    
.RightPaw-Rabbit2fil28 {fill:black;fill-rule:nonzero}
    
.LeftHand-Rabbit0fil52 {fill:url(#LeftHand-Rabbit0id173)}
    
.LeftHand-Rabbit0fil10 {fill:black;fill-opacity:0.200000}
    
.LeftHand-Rabbit0fil0 {fill:none}
    
.LeftHand-Rabbit0str0 {stroke:black;stroke-width:150;stroke-linecap:round;stroke-linejoin:round;stroke-miterlimit:22.9256}
    
.Body-Rabbit0fil58 {fill:url(#Body-Rabbit0id42)}
    
.Body-Rabbit0fil10 {fill:black;fill-opacity:0.200000}
    
.Body-Rabbit0fil28 {fill:black;fill-rule:nonzero}
    
.Body-Rabbit0fil59 {fill:url(#Body-Rabbit0id23)}
    
.LeftPaw-Rabbit2fil65 {fill:url(#LeftPaw-Rabbit2id239)}
    
.LeftPaw-Rabbit2fil10 {fill:black;fill-opacity:0.200000}
    
.LeftPaw-Rabbit2fil28 {fill:black;fill-rule:nonzero}
    
.Ears-Rabbit9fil134 {fill:url(#Ears-Rabbit9id80)}
    
.Ears-Rabbit9fil28 {fill:black;fill-rule:nonzero}
    
.Ears-Rabbit9fil135 {fill:url(#Ears-Rabbit9id99)}
    
.Ears-Rabbit9fil136 {fill:url(#Ears-Rabbit9id187)}
    
.Ears-Rabbit9fil0 {fill:none}
    
.Ears-Rabbit9str0 {stroke:black;stroke-width:150;stroke-linecap:round;stroke-linejoin:round;stroke-miterlimit:22.9256}
    
.Ears-Rabbit9fil10 {fill:black;fill-opacity:0.200000}
    
.Ears-Rabbit9fil137 {fill:url(#Ears-Rabbit9id79)}
    
.Ears-Rabbit9fil138 {fill:url(#Ears-Rabbit9id96)}
    
.Ears-Rabbit9fil139 {fill:url(#Ears-Rabbit9id188)}
    
.Head-Rabbit0fil168 {fill:url(#Head-Rabbit0id47)}
    
.Head-Rabbit0fil10 {fill:black;fill-opacity:0.200000}
    
.Head-Rabbit0fil28 {fill:black;fill-rule:nonzero}
    
.Mouth-Rabbit4fil195 {fill:url(#Mouth-Rabbit4id109)}
    
.Mouth-Rabbit4str0 {stroke:black;stroke-width:150;stroke-linecap:round;stroke-linejoin:round;stroke-miterlimit:22.9256}
    
.Mouth-Rabbit4fil10 {fill:black;fill-opacity:0.200000}
    
.Mouth-Rabbit4fil0 {fill:none}
    
.Mouth-Rabbit4fil192 {fill:black}
    
.Mouth-Rabbit4fil196 {fill:url(#Mouth-Rabbit4id107)}
    
.EyesClosed-Rabbit7fil28 {fill:black;fill-rule:nonzero}
    
.EyesClosed-Rabbit7fil207 {fill:#715a66}
    
.EyesClosed-Rabbit7fil10 {fill:black;fill-opacity:0.200000}
    
.Eyes-Rabbit7fil254 {fill:url(#Eyes-Rabbit7id161)}
    
.Eyes-Rabbit7fil255 {fill:url(#Eyes-Rabbit7id309)}
    
.Eyes-Rabbit7fil256 {fill:url(#Eyes-Rabbit7id310)}
    
.Eyes-Rabbit7fil257 {fill:url(#Eyes-Rabbit7id84)}
    
.Eyes-Rabbit7fil189 {fill:black;fill-opacity:0.501961}
    
.Eyes-Rabbit7fil0 {fill:none}
    
.Eyes-Rabbit7str0 {stroke:black;stroke-width:150;stroke-linecap:round;stroke-linejoin:round;stroke-miterlimit:22.9256}
    
.Eyes-Rabbit7fil211 {fill:white}
    
.Eyes-Rabbit7fil258 {fill:url(#Eyes-Rabbit7id162)}
    
.Eyes-Rabbit7fil259 {fill:url(#Eyes-Rabbit7id308)}
    
.Eyes-Rabbit7fil260 {fill:url(#Eyes-Rabbit7id311)}
    
.Eyes-Rabbit7fil261 {fill:url(#Eyes-Rabbit7id86)}
    
.Moustache-Rabbit0fil0 {fill:none}
    
.Nose-Rabbit0fil320 {fill:url(#Nose-Rabbit0id300)}
    
.Nose-Rabbit0str0 {stroke:black;stroke-width:150;stroke-linecap:round;stroke-linejoin:round;stroke-miterlimit:22.9256}
    
.Hair-Rabbit0fil0 {fill:none}
    
</style><linearGradient gradientUnits="userSpaceOnUse" id="RightLeg-Rabbit3id10" x1="15134.35" x2="16031.86" xlink:href="#RightLeg-Rabbit3id8" y1="24250.44" y2="21221.87">
  </linearGradient><linearGradient gradientUnits="userSpaceOnUse" id="LeftLeg-Rabbit3id11" x1="11340.78" x2="12221" xlink:href="#LeftLeg-Rabbit3id8" y1="24220.68" y2="21218.98">
  </linearGradient><linearGradient gradientUnits="objectBoundingBox" id="RightHand-Rabbit0id27" x1="34.0586%" x2="65.9414%" xlink:href="#RightHand-Rabbit0id26" y1="2.36576%" y2="97.6342%">
  </linearGradient><linearGradient gradientUnits="userSpaceOnUse" id="RightPaw-Rabbit2id240" x1="18885.17" x2="17767.58" xlink:href="#RightPaw-Rabbit2id120" y1="21615.27" y2="20072.14">
  </linearGradient><linearGradient gradientUnits="objectBoundingBox" id="LeftHand-Rabbit0id173" x1="73.7265%" x2="26.114%" xlink:href="#LeftHand-Rabbit0id26" y1="4.01633%" y2="96.2351%">
  </linearGradient><linearGradient gradientUnits="objectBoundingBox" id="Body-Rabbit0id42" x1="50%" x2="50%" y1="2.16557e-14%" y2="100%">
   <stop offset="0" style="stop-opacity:1; stop-color:#9e8d97"/>
   <stop offset="0.0313725" style="stop-opacity:1; stop-color:#9e8d97"/>
   <stop offset="0.529412" style="stop-opacity:1; stop-color:#c5b9c0"/>
   <stop offset="1" style="stop-opacity:1; stop-color:#dedede"/>
  </linearGradient><linearGradient gradientUnits="userSpaceOnUse" id="Body-Rabbit0id23" x1="13681.92" x2="13681.92" y1="22974.87" y2="18143.76">
   <stop offset="0" style="stop-opacity:1; stop-color:#f2ebf3"/>
   <stop offset="0.658824" style="stop-opacity:1; stop-color:#f2ebf3"/>
   <stop offset="1" style="stop-opacity:1; stop-color:#e3d3e6"/>
  </linearGradient><linearGradient gradientUnits="userSpaceOnUse" id="LeftPaw-Rabbit2id239" x1="8478.67" x2="9596.26" xlink:href="#LeftPaw-Rabbit2id120" y1="21615.27" y2="20072.14">
  </linearGradient><linearGradient gradientUnits="userSpaceOnUse" id="Ears-Rabbit9id80" x1="18754.28" x2="18754.28" xlink:href="#Ears-Rabbit9id23" y1="20077.14" y2="7899.45">
  </linearGradient><linearGradient gradientUnits="userSpaceOnUse" id="Ears-Rabbit9id99" x1="21585.98" x2="16396.36" xlink:href="#Ears-Rabbit9id43" y1="16859.38" y2="11477.14">
  </linearGradient><linearGradient gradientUnits="userSpaceOnUse" id="Ears-Rabbit9id187" x1="17920.43" x2="20496.16" y1="13694.32" y2="12594.69">
   <stop offset="0" style="stop-opacity:1; stop-color:#E4BBB9"/>
   <stop offset="0.65098" style="stop-opacity:1; stop-color:#CE9F9E"/>
   <stop offset="1" style="stop-opacity:1; stop-color:#B88383"/>
  </linearGradient><linearGradient gradientUnits="userSpaceOnUse" id="Ears-Rabbit9id79" x1="8609.61" x2="8609.61" xlink:href="#Ears-Rabbit9id23" y1="20077.14" y2="7899.45">
  </linearGradient><linearGradient gradientUnits="userSpaceOnUse" id="Ears-Rabbit9id96" x1="10967.53" x2="5777.91" xlink:href="#Ears-Rabbit9id43" y1="16859.38" y2="11477.14">
  </linearGradient><linearGradient gradientUnits="userSpaceOnUse" id="Ears-Rabbit9id188" x1="9443.45" x2="6867.72" xlink:href="#Ears-Rabbit9id187" y1="13694.32" y2="12594.69">
  </linearGradient><linearGradient gradientUnits="objectBoundingBox" id="Head-Rabbit0id47" x1="50%" x2="50%" xlink:href="#Head-Rabbit0id39" y1="100%" y2="0%">
  </linearGradient><linearGradient gradientUnits="userSpaceOnUse" id="Mouth-Rabbit4id109" x1="13956.31" x2="13956.31" xlink:href="#Mouth-Rabbit4id81" y1="15946.36" y2="16898.64">
  </linearGradient><linearGradient gradientUnits="userSpaceOnUse" id="Mouth-Rabbit4id107" x1="13407.53" x2="13407.53" xlink:href="#Mouth-Rabbit4id81" y1="15946.36" y2="16898.64">
  </linearGradient><linearGradient gradientUnits="userSpaceOnUse" id="Eyes-Rabbit7id161" x1="16814.95" x2="17219.65" xlink:href="#Eyes-Rabbit7id41" y1="15007.25" y2="11187.32">
  </linearGradient><radialGradient cx="17054.08" cy="13528.53" fx="17054.08" fy="13528.53" gradientTransform="matrix(-1.02041 -0 -0 1.0148 34456 -200)" gradientUnits="userSpaceOnUse" id="Eyes-Rabbit7id309" r="1771.12" xlink:href="#Eyes-Rabbit7id308">
  </radialGradient><radialGradient cx="17186.97" cy="12474.74" fx="17186.97" fy="12474.74" gradientTransform="matrix(0.759365 -0 -0 1.16278 4136 -2031)" gradientUnits="userSpaceOnUse" id="Eyes-Rabbit7id310" r="740.37" xlink:href="#Eyes-Rabbit7id308">
  </radialGradient><linearGradient gradientUnits="userSpaceOnUse" id="Eyes-Rabbit7id84" x1="16563.56" x2="16563.56" y1="11311.33" y2="14277.21">
   <stop offset="0" style="stop-opacity:1; stop-color:black"/>
   <stop offset="0.4" style="stop-opacity:1; stop-color:black"/>
   <stop offset="1" style="stop-opacity:1; stop-color:#664700"/>
  </linearGradient><linearGradient gradientUnits="userSpaceOnUse" id="Eyes-Rabbit7id162" x1="10182.11" x2="10586.81" xlink:href="#Eyes-Rabbit7id41" y1="15007.25" y2="11187.32">
  </linearGradient><radialGradient cx="10006.83" cy="12474.74" fx="10006.83" fy="12474.74" gradientTransform="matrix(-0.759365 -0 -0 1.16278 17606 -2031)" gradientUnits="userSpaceOnUse" id="Eyes-Rabbit7id311" r="740.37" xlink:href="#Eyes-Rabbit7id308">
  </radialGradient><linearGradient gradientUnits="userSpaceOnUse" id="Eyes-Rabbit7id86" x1="10800.32" x2="10800.32" xlink:href="#Eyes-Rabbit7id84" y1="11311.33" y2="14277.21">
  </linearGradient><linearGradient gradientUnits="userSpaceOnUse" id="Nose-Rabbit0id300" x1="12846.46" x2="12948.19" y1="14801.53" y2="15641.16">
   <stop offset="0" style="stop-opacity:1; stop-color:#FFCCCC"/>
   <stop offset="1" style="stop-opacity:1; stop-color:#DB9092"/>
  </linearGradient><linearGradient gradientUnits="userSpaceOnUse" id="RightLeg-Rabbit3id8" x1="11237.69" x2="12086.51" y1="24257.64" y2="21207.22">
   <stop offset="0" style="stop-opacity:1; stop-color:#c5b9c0"/>
   <stop offset="0.180392" style="stop-opacity:1; stop-color:#c5b9c0"/>
   <stop offset="0.501961" style="stop-opacity:1; stop-color:#dedede"/>
   <stop offset="1" style="stop-opacity:1; stop-color:#dedede"/>
  </linearGradient><linearGradient gradientUnits="userSpaceOnUse" id="LeftLeg-Rabbit3id8" x1="11237.69" x2="12086.51" y1="24257.64" y2="21207.22">
   <stop offset="0" style="stop-opacity:1; stop-color:#c5b9c0"/>
   <stop offset="0.180392" style="stop-opacity:1; stop-color:#c5b9c0"/>
   <stop offset="0.501961" style="stop-opacity:1; stop-color:#dedede"/>
   <stop offset="1" style="stop-opacity:1; stop-color:#dedede"/>
  </linearGradient><linearGradient gradientUnits="userSpaceOnUse" id="RightHand-Rabbit0id26" x1="16087.42" x2="17274.71" y1="17785.04" y2="20860.85">
   <stop offset="0" style="stop-opacity:1; stop-color:#9e8d97"/>
   <stop offset="0.878431" style="stop-opacity:1; stop-color:#c5b9c0"/>
   <stop offset="1" style="stop-opacity:1; stop-color:#c5b9c0"/>
  </linearGradient><linearGradient gradientUnits="userSpaceOnUse" id="RightPaw-Rabbit2id120" x1="16037.58" x2="16764.95" y1="25652.81" y2="23762.51">
   <stop offset="0" style="stop-opacity:1; stop-color:#715a66"/>
   <stop offset="0.780392" style="stop-opacity:1; stop-color:#c5b9c0"/>
   <stop offset="1" style="stop-opacity:1; stop-color:#c5b9c0"/>
  </linearGradient><linearGradient gradientUnits="userSpaceOnUse" id="LeftHand-Rabbit0id26" x1="16087.42" x2="17274.71" y1="17785.04" y2="20860.85">
   <stop offset="0" style="stop-opacity:1; stop-color:#9e8d97"/>
   <stop offset="0.878431" style="stop-opacity:1; stop-color:#c5b9c0"/>
   <stop offset="1" style="stop-opacity:1; stop-color:#c5b9c0"/>
  </linearGradient><linearGradient gradientUnits="userSpaceOnUse" id="LeftPaw-Rabbit2id120" x1="16037.58" x2="16764.95" y1="25652.81" y2="23762.51">
   <stop offset="0" style="stop-opacity:1; stop-color:#715a66"/>
   <stop offset="0.780392" style="stop-opacity:1; stop-color:#c5b9c0"/>
   <stop offset="1" style="stop-opacity:1; stop-color:#c5b9c0"/>
  </linearGradient><linearGradient gradientUnits="userSpaceOnUse" id="Ears-Rabbit9id23" x1="13681.92" x2="13681.92" y1="22974.87" y2="18143.76">
   <stop offset="0" style="stop-opacity:1; stop-color:#f2ebf3"/>
   <stop offset="0.658824" style="stop-opacity:1; stop-color:#f2ebf3"/>
   <stop offset="1" style="stop-opacity:1; stop-color:#e3d3e6"/>
  </linearGradient><linearGradient gradientUnits="userSpaceOnUse" id="Ears-Rabbit9id43" x1="20439.04" x2="17328.61" y1="5146.97" y2="5706.05">
   <stop offset="0" style="stop-opacity:1; stop-color:#F5E2E2"/>
   <stop offset="0.670588" style="stop-opacity:1; stop-color:#DDC0C0"/>
   <stop offset="1" style="stop-opacity:1; stop-color:#C49D9D"/>
  </linearGradient><linearGradient gradientUnits="userSpaceOnUse" id="Head-Rabbit0id39" x1="13686.09" x2="13686.08" y1="17936.72" y2="7484.8">
   <stop offset="0" style="stop-opacity:1; stop-color:#9e8d97"/>
   <stop offset="0.4" style="stop-opacity:1; stop-color:#c5b9c0"/>
   <stop offset="1" style="stop-opacity:1; stop-color:#dedede"/>
  </linearGradient><linearGradient gradientUnits="userSpaceOnUse" id="Mouth-Rabbit4id81" x1="13402.39" x2="13402.39" y1="15588.37" y2="16582.43">
   <stop offset="0" style="stop-opacity:1; stop-color:#D6D6D6"/>
   <stop offset="0.6" style="stop-opacity:1; stop-color:white"/>
   <stop offset="1" style="stop-opacity:1; stop-color:#f2ebf3"/>
  </linearGradient><linearGradient gradientUnits="userSpaceOnUse" id="Eyes-Rabbit7id41" x1="17102.45" x2="17102.45" y1="15038.45" y2="11047.09">
   <stop offset="0" style="stop-opacity:1; stop-color:#805900"/>
   <stop offset="1" style="stop-opacity:1; stop-color:black"/>
  </linearGradient><radialGradient cx="10378.15" cy="13528.53" fx="10378.15" fy="13528.53" gradientTransform="matrix(1.02041 -0 -0 1.0148 -212 -200)" gradientUnits="userSpaceOnUse" id="Eyes-Rabbit7id308" r="1771.12">
   <stop offset="0" style="stop-opacity:1; stop-color:#ffc029"/>
   <stop offset="1" style="stop-opacity:1; stop-color:#805900"/>
  </radialGradient></defs><g id="HairBack-Rabbit0">
  <animateTransform additive="sum" attributeName="transform" dur="10" repeatCount="indefinite" type="translate" values="0;0 200;0;0 200;0;0 200;0;0 200;0"/>
  <metadata id="CorelCorpID_0Corel-Layer"/>
  <rect class="HairBack-Rabbit0fil0" height="889.5" width="889.5" x="13237.19" y="6589.66"/>
 </g><g id="RightFoot-Rabbit0">
  <metadata id="CorelCorpID_4Corel-Layer"/>
  <path class="RightFoot-Rabbit0fil27" d="M17611.19 25439.21c-123.56,214.04 -403.48,285.33 -610.7,105.88 -70.65,70.23 -293.11,185.78 -526.32,65.76 -538.29,-277.03 -1055.04,-639.06 -1398.31,-887.33 -220.49,-159.46 -188.05,-525.91 -70.64,-700.58 363.68,340.29 782.66,-165.21 1075.55,-247.93 373.84,-101.68 736.94,157.82 534.63,412.54 198.78,95.76 1024.55,447.2 1177.27,620.9 168.78,191.95 120.75,630.76 -181.48,630.76z" style="fill:#af8708"/>
  <path class="RightFoot-Rabbit0fil10" d="M17619.89 25467.81c-123.56,214.04 -392.89,285.33 -600.11,105.88 -263.27,261.71 -916.66,-12.43 -1207.68,-387.7 -314.79,-217.24 -676.79,-421.62 -795.64,-500.03 -156.12,-103 -53.19,-398.33 -20.96,-584.15 17.85,-13.98 36.32,-26.67 55.45,-37.83 -59.89,533.31 1968.85,1766.03 1957.44,1098.35 213.34,341.57 585.05,186.16 533.82,-150.27 126.71,133.91 271.29,-14.39 142.78,-274 182.48,62.12 215.54,288.03 209.67,440.56 -17.28,153.49 -106.7,289.19 -274.77,289.19z" style="fill:#ea3f46"/>
  <path class="RightFoot-Rabbit0fil0" d="M16655.48 24185.7c277.12,231.33 479.91,239.56 632.6,413.23 168.75,191.92 120.75,630.76 -181.48,630.76 -123.56,214.04 -403.48,285.33 -610.7,105.88 -70.65,70.23 -276.53,145.76 -526.32,65.76 -409.3,-131.08 -519.97,-488.94 -871.1,-725.96 -156.04,-105.33 -138.82,-331.38 -109.24,-523.93" style="fill:#59f874"/>
  <path class="RightFoot-Rabbit0fil28" d="M16703.53 24128.28c-32.23,14.49 -151.74,68.29 -96.1,114.84 143.13,119.49 265.97,181.45 373.06,235.47 99.11,49.99 720.41,275.03 788.45,352.42 80.91,92.01 97.3,255.88 55.21,369.54 -18.07,48.79 -77.99,123.14 -125.37,147 7.55,-268.78 -114.77,-534.12 -402.24,-526.25 186.74,95.17 268.32,253.8 247.69,592.25 -49.04,79.15 -127.69,137.43 -219.87,155.2 -79.73,15.37 -160.2,-1.74 -228.24,-45.5 38.29,-218.05 10.29,-483.64 -289.14,-537.54 139.24,98.32 162.69,330.02 141.92,510.69 -31.45,29.61 -97.92,60.43 -188.69,71.77 -74.89,9.35 -163.69,4.41 -259.78,-26.36 -221.4,-70.9 -389.39,-150.77 -526.67,-306.64 -103.47,-117.46 -723.13,-457.1 -875.28,-559.8 -56.89,-38.4 -106.48,-200.43 -115.52,-274.13 -5.91,-48.16 -12.39,-90.93 -7.5,-133.2 3.75,-32.35 5.98,-48.97 23.54,-102.83 14.63,-97.52 -109.65,-115.23 -144.78,-21.39 -12.89,39.53 -20.74,74.23 -25.45,109.36 -7,52.14 -2.13,105.01 5.37,166.22 13.96,113.78 81.43,313.29 180.56,380.19 136.05,91.83 749.3,424.19 846.56,534.6 151.08,171.53 332.23,266.34 593.47,350 119.65,38.32 230.28,44.46 323.64,32.8 92.59,-11.56 170.46,-41.41 225.37,-75.73 103.09,69.99 225.69,98.3 348.74,74.57 124.29,-23.96 233.03,-98.13 304.52,-201.86 136.16,-15.63 261.32,-136.4 307.77,-261.86 61.19,-165.25 34.13,-386.54 -83.33,-520.12 -86.71,-98.62 -720.16,-329.8 -833.57,-387 -99.73,-50.31 -214.13,-108.01 -344.34,-216.71z" style="fill:#6a1002"/>
 </g><g id="LeftFoot-Rabbit0">
  <metadata id="CorelCorpID_13Corel-Layer"/>
  <path class="LeftFoot-Rabbit0fil27" d="M9752.69 25439.21c123.56,214.04 403.48,285.33 610.7,105.88 70.65,70.23 276.53,145.75 526.32,65.76 409.29,-131.08 1021.6,-618.6 1364.87,-866.87 220.49,-159.46 204.8,-507.21 104.08,-721.04 -363.68,340.29 -782.66,-165.21 -1075.55,-247.93 -373.84,-101.68 -736.94,157.82 -534.63,412.54 -198.78,95.76 -1024.55,447.2 -1177.27,620.9 -168.78,191.95 -120.75,630.76 181.48,630.76z" style="fill:#ee2549"/>
  <path class="LeftFoot-Rabbit0fil10" d="M9743.99 25467.81c123.56,214.04 392.89,285.33 600.11,105.88 263.27,261.71 916.66,-12.43 1207.68,-387.7 314.79,-217.24 676.79,-421.62 795.64,-500.03 156.12,-103 53.19,-398.33 20.96,-584.15 -17.85,-13.98 -36.32,-26.67 -55.45,-37.83 59.89,533.31 -1968.85,1766.03 -1957.44,1098.35 -213.34,341.57 -585.05,186.16 -533.82,-150.27 -126.71,133.91 -271.29,-14.39 -142.78,-274 -182.48,62.12 -215.54,288.03 -209.67,440.56 17.28,153.49 106.7,289.19 274.77,289.19z" style="fill:#9c743e"/>
  <path class="LeftFoot-Rabbit0fil0" d="M10708.4 24185.7c-277.12,231.33 -479.91,239.56 -632.6,413.23 -168.75,191.92 -120.75,630.76 181.48,630.76 123.56,214.04 403.48,285.33 610.7,105.88 70.65,70.23 276.53,145.76 526.32,65.76 409.3,-131.08 519.97,-488.94 871.1,-725.96 156.04,-105.33 138.82,-331.38 109.24,-523.93" style="fill:#5c4e1a"/>
  <path class="LeftFoot-Rabbit0fil28" d="M10660.35 24128.28c32.23,14.49 151.74,68.29 96.1,114.84 -143.13,119.49 -265.97,181.45 -373.06,235.47 -99.11,49.99 -720.41,275.03 -788.45,352.42 -80.91,92.01 -97.3,255.88 -55.21,369.54 18.07,48.79 77.99,123.14 125.37,147 -7.55,-268.78 114.77,-534.12 402.24,-526.25 -186.74,95.17 -268.32,253.8 -247.69,592.25 49.04,79.15 127.69,137.43 219.87,155.2 79.73,15.37 160.2,-1.74 228.24,-45.5 -38.29,-218.05 -10.29,-483.64 289.14,-537.54 -139.24,98.32 -162.69,330.02 -141.92,510.69 31.45,29.61 97.92,60.43 188.69,71.77 74.89,9.35 163.69,4.41 259.78,-26.36 221.4,-70.9 389.39,-150.77 526.67,-306.64 103.47,-117.46 723.13,-457.1 875.28,-559.8 56.89,-38.4 106.48,-200.43 115.52,-274.13 5.91,-48.16 12.39,-90.93 7.5,-133.2 -3.75,-32.35 -5.98,-48.97 -23.54,-102.83 -14.63,-97.52 109.65,-115.23 144.78,-21.39 12.89,39.53 20.74,74.23 25.45,109.36 7,52.14 2.13,105.01 -5.37,166.22 -13.96,113.78 -81.43,313.29 -180.56,380.19 -136.05,91.83 -749.3,424.19 -846.56,534.6 -151.08,171.53 -332.23,266.34 -593.47,350 -119.65,38.32 -230.28,44.46 -323.64,32.8 -92.59,-11.56 -170.46,-41.41 -225.37,-75.73 -103.09,69.99 -225.69,98.3 -348.74,74.57 -124.29,-23.96 -233.03,-98.13 -304.52,-201.86 -136.16,-15.63 -261.32,-136.4 -307.77,-261.86 -61.19,-165.25 -34.13,-386.54 83.33,-520.12 86.71,-98.62 720.16,-329.8 833.57,-387 99.73,-50.31 214.13,-108.01 344.34,-216.71z" style="fill:#3c6d83"/>
 </g><g id="RightLeg-Rabbit3">
  <metadata id="CorelCorpID_10Corel-Layer"/>
  <path class="RightLeg-Rabbit3fil35" d="M13681.96 23259.3c350.13,0 1142.52,33.19 1360.27,445.6 87.54,165.82 -106.53,238.23 -38.91,330.5 214.87,221.86 637.04,349.26 895.5,148.38 312.37,-242.78 712.13,-231.34 719.72,-12.18 391.8,-142.75 877.82,-571.2 865.47,-1092.28 -20.39,-860.43 -851.23,-1651.69 -1153.94,-1891.1 -621.48,859.57 -1470.39,1269.07 -2648.11,1328.08l0 743z" style="fill:#c0884b"/>
  <path class="RightLeg-Rabbit3fil28" d="M16285.67 21248.32c474.85,376.94 1120.37,1042.59 1118.33,1735.75 -1.13,388.03 -178.15,727.78 -465.88,963.66 -200.45,164.33 -440.69,212.09 -574.07,330.27 171.14,-34.1 422.55,-72.82 630.16,-223.79 362.58,-263.67 557.8,-589.45 559.21,-1070.14 2.19,-736.68 -664.8,-1449.29 -1177.06,-1854.44l-46.29 58.59 -44.38 60.1 -0.02 0z" style="fill:#6cb4d7"/>
  <path class="RightLeg-Rabbit3fil10" d="M17375.94 23464.04c67.26,-148.73 106.69,-305.87 107.15,-464.07 2.29,-775.51 -724.56,-1425.03 -1053.4,-1726.35l-157.05 727.06c26.43,47.89 52.85,95.78 79.28,143.67 387.48,-413.26 1131.08,852.41 1024.02,1319.69z" style="fill:#f1eb25"/>
  <path class="RightLeg-Rabbit3fil27" d="M14291.28 23248.67c21.78,7.92 582.27,-191.7 1116.59,-90.71 169.29,31.93 362.43,156.87 551.63,213.78 131.27,39.48 457.88,48.18 511.03,142.58 159.11,282.69 -412.98,546.08 -571.71,669.46 -258.46,200.87 -680.63,73.48 -895.5,-148.38 -9.31,-12.7 -13.63,-25.02 -14.44,-37.26l0 -0.03c36.41,-85.22 104.54,-96 98.53,-271.54 -7.67,-223.89 -796.13,-477.9 -796.13,-477.9z" style="fill:#e73fc0"/>
  <path class="RightLeg-Rabbit3fil28" d="M13681.96 23156.77c0,53.89 0,70.23 0,150.29 1.05,-0.09 369.66,-11.33 754.66,102.19 128.96,38.03 326.86,124.14 481.95,220.11 121.28,75.04 227.25,140.61 294.6,161.31 67.97,20.91 336.72,117.86 720.21,19.22 -408.62,-65.2 -515.39,-112.7 -675.71,-162 -47.86,-14.71 -146.31,-75.63 -259,-145.36 -162.97,-100.83 -370.1,-192.66 -519.34,-236.67 -413.86,-122.04 -796.24,-109.25 -797.37,-109.09z" style="fill:#73acef"/>
  <path class="RightLeg-Rabbit3fil28" d="M14852.37 24149.58c-6.63,40.77 19.98,82.54 60.75,89.17 40.77,6.63 59.9,0.68 77.73,-47.56 3.27,-19.88 35.74,-71.71 63.2,-114.07 105.22,-162.3 243.27,-375.23 -65.46,-578.32 -34.46,-22.65 -80.77,-13.08 -103.42,21.38 -22.65,34.46 -13.08,80.77 21.38,103.42 184.59,121.43 92.39,263.67 22.1,372.08 -36.56,56.4 -63.62,104.09 -76.28,153.9z" style="fill:#56389c"/>
 </g><g id="LeftLeg-Rabbit3">
  <metadata id="CorelCorpID_19Corel-Layer"/>
  <path class="LeftLeg-Rabbit3fil43" d="M13681.92 23259.3c-350.13,0 -1187.72,54.86 -1405.45,467.27 -87.54,165.8 123.6,236.81 55.98,329.08 -214.87,221.86 -622.19,269.45 -880.62,68.6 -312.34,-242.75 -743.45,-195.49 -751.04,23.67 -453.63,-190.83 -819.62,-624.03 -820.92,-1068.6 -2.52,-860.66 851.23,-1651.69 1153.94,-1891.1 621.48,859.57 1470.39,1269.07 2648.11,1328.08l0 743z" style="fill:#e1301e"/>
  <path class="LeftLeg-Rabbit3fil27" d="M13072.6 23248.67c-21.78,7.92 -582.27,-191.7 -1116.59,-90.71 -169.29,31.93 -362.43,156.87 -551.63,213.78 -131.27,39.48 -457.88,48.18 -511.03,142.58 -159.11,282.69 412.98,546.08 571.71,669.46 258.46,200.87 680.63,73.48 895.5,-148.38 9.31,-12.7 13.63,-25.02 14.44,-37.26l0 -0.03c-36.41,-85.22 -104.54,-96 -98.53,-271.54 7.67,-223.89 796.13,-477.9 796.13,-477.9z" style="fill:#535653"/>
  <path class="LeftLeg-Rabbit3fil10" d="M9987.94 23464.04c-67.26,-148.73 -106.69,-305.87 -107.15,-464.07 -2.29,-775.51 724.56,-1425.03 1053.4,-1726.35l157.05 727.06c-26.43,47.89 -52.85,95.78 -79.28,143.67 -387.48,-413.26 -1131.08,852.41 -1024.02,1319.69z" style="fill:#602fc8"/>
  <path class="LeftLeg-Rabbit3fil28" d="M13681.96 23156.77c0,53.89 0,70.23 0,150.29 -1.05,-0.09 -369.7,-11.33 -754.7,102.19 -128.96,38.03 -326.86,124.14 -481.95,220.11 -121.28,75.04 -227.25,140.61 -294.6,161.31 -67.97,20.91 -336.72,117.86 -720.21,19.22 408.62,-65.2 515.39,-112.7 675.71,-162 47.86,-14.71 146.31,-75.63 259,-145.36 162.97,-100.83 370.1,-192.66 519.34,-236.67 413.86,-122.04 796.28,-109.25 797.41,-109.09z" style="fill:#f88786"/>
  <path class="LeftLeg-Rabbit3fil28" d="M12511.51 24149.58c6.63,40.77 -19.98,82.54 -60.75,89.17 -40.77,6.63 -59.9,0.68 -77.73,-47.56 -3.27,-19.88 -35.74,-71.71 -63.2,-114.07 -105.22,-162.3 -243.27,-375.23 65.46,-578.32 34.46,-22.65 80.77,-13.08 103.42,21.38 22.65,34.46 13.08,80.77 -21.38,103.42 -184.59,121.43 -92.39,263.67 -22.1,372.08 36.56,56.4 63.62,104.09 76.28,153.9z" style="fill:#54071d"/>
  <path class="LeftLeg-Rabbit3fil28" d="M11078.21 21248.32c-474.85,376.94 -1120.37,1042.59 -1118.33,1735.75 1.13,388.03 178.15,727.78 465.88,963.66 200.45,164.33 440.69,212.09 574.07,330.27 -171.14,-34.1 -422.55,-72.82 -630.16,-223.79 -362.58,-263.67 -557.8,-589.45 -559.21,-1070.14 -2.19,-736.68 664.8,-1449.29 1177.06,-1854.44l46.29 58.59 44.38 60.1 0.02 0z" style="fill:#e4756e"/>
 </g><g id="RightHand-Rabbit0">
  <animateTransform additive="sum" attributeName="transform" dur="10" repeatCount="indefinite" type="translate" values="0;0 200;0;0 200;0;0 200;0;0 200;0"/>
  <metadata id="CorelCorpID_22Corel-Layer"/>
  <path class="RightHand-Rabbit0fil46" d="M16231.2 17708.66c1006.56,345.42 1818.61,1401.79 2256.58,2165.43 288.88,503.69 -636.05,1265.03 -911.19,1013.52 -627.05,-573.17 -1208.37,-619.78 -1688.45,-542.15 -741.88,119.97 -1352.69,-1920.87 -930.81,-2545.29 421.91,-21.63 933.51,-40.49 1273.87,-91.51z" style="fill:#6b220a"/>
  <path class="RightHand-Rabbit0fil10" d="M17511.96 20830.3c-602.27,-518.8 -1160.28,-559.8 -1623.82,-484.84 -171.07,27.66 -335.13,-59.69 -481.2,-217.95 -325.13,-471.76 752.73,-1097.7 1038.62,-655.88 261.31,403.84 734.1,847.76 1111.39,1126.01 -1.79,93.3 16.27,193.39 -44.96,232.66l0 -0.01 -0.03 0.01z" style="fill:#8d1179"/>
  <path class="RightHand-Rabbit0fil0 RightHand-Rabbit0str0" d="M16476.95 20332.96c340.18,46.54 711.15,199.54 1099.64,554.65 275.13,251.49 1152.89,-508.63 864.02,-1012.31 -437.96,-763.63 -1202.86,-1821.23 -2209.41,-2166.64 -90.05,-30.9 -171.83,-58.83 -246.03,-84.05" style="fill:#41f68c"/>
 </g><g id="LeftHand-Rabbit0">
   <animateTransform additive="sum" attributeName="transform" dur="10" repeatCount="indefinite" type="translate" values="0;0 200;0;0 200;0;0 200;0;0 200;0"/>
  <metadata id="CorelCorpID_31Corel-Layer"/>
  <path class="LeftHand-Rabbit0fil52" d="M11132.64 17708.66c-1006.56,345.42 -1818.61,1401.79 -2256.58,2165.43 -288.88,503.69 636.05,1265.03 911.19,1013.52 627.05,-573.17 1208.37,-619.78 1688.45,-542.15 741.88,119.97 1352.69,-1920.87 930.81,-2545.29 -421.91,-21.63 -933.51,-40.49 -1273.87,-91.51z" style="fill:#ed24ae"/>
  <path class="LeftHand-Rabbit0fil10" d="M9851.88 20830.3c602.27,-518.8 1160.28,-559.8 1623.82,-484.84 171.07,27.66 335.13,-59.69 481.2,-217.95 325.13,-471.76 -752.73,-1097.7 -1038.62,-655.88 -261.31,403.84 -734.1,847.76 -1111.39,1126.01 1.79,93.3 -16.27,193.39 44.96,232.66l0 -0.01 0.03 0.01z" style="fill:#7458dd"/>
  <path class="LeftHand-Rabbit0fil0 LeftHand-Rabbit0str0" d="M10886.89 20332.96c-340.18,46.54 -711.15,199.54 -1099.64,554.65 -275.13,251.49 -1152.89,-508.63 -864.02,-1012.31 437.96,-763.63 1202.86,-1821.23 2209.41,-2166.64 90.05,-30.9 171.83,-58.83 246.03,-84.05" style="fill:#dc4cb8"/>
 </g><g id="Body-Rabbit0">
   <animateTransform additive="sum" attributeName="transform" dur="10" repeatCount="indefinite" type="translate" values="0;0 200;0;0 200;0;0 200;0;0 200;0"/>
  <metadata id="CorelCorpID_37Corel-Layer"/>
  <path class="Body-Rabbit0fil58" d="M13681.92 23134.87c-1547.89,0 -2751.5,-290.59 -2992.7,-1955.85 -146.87,-1014.04 390.42,-2286.86 991,-3419.88 634.24,80.29 1288.94,123.26 2001.7,142.31 712.76,-19.05 1367.46,-62.02 2001.7,-142.31 600.58,1133.02 1137.87,2405.84 991,3419.88 -241.2,1665.26 -1444.81,1955.85 -2992.7,1955.85z" style="fill:#4d3c9d"/>
  <path class="Body-Rabbit0fil10" d="M12620.51 23067.29c-1015.93,-155.83 -1748.88,-628.88 -1931.29,-1888.27 -75.17,-519 28.96,-1105.79 228.98,-1706.93 -223.57,2000.42 401.77,3257.02 1702.31,3595.2z" style="fill:#aab0de"/>
  <path class="Body-Rabbit0fil28" d="M11011.96 22144.35c-249.8,-320.87 -347.52,-640.99 -396.86,-954.78 -59.27,-376.93 -23.8,-997.6 184.1,-1319.31 -78.5,420.39 -93.5,905.22 -35.86,1298.21 50,340.9 103.32,571.56 248.62,975.88z" style="fill:#f2f819"/>
  <path class="Body-Rabbit0fil59" d="M13681.92 18224.34c-910.76,0 -1629.68,-343.53 -1974.1,388.03 -874.88,1858.28 -905.44,4362.5 1974.1,4362.5 2879.54,0 2848.98,-2504.22 1974.1,-4362.5 -344.42,-731.56 -1063.34,-388.03 -1974.1,-388.03z" style="fill:#cf31e2"/>
  <path class="Body-Rabbit0fil10" d="M14743.33 23067.29c1015.93,-155.83 1748.88,-628.88 1931.29,-1888.27 75.17,-519 -28.96,-1105.79 -228.98,-1706.93 223.57,2000.42 -401.77,3257.02 -1702.31,3595.2z" style="fill:#02a1c1"/>
  <path class="Body-Rabbit0fil28" d="M16351.92 22144.35c249.8,-320.87 347.52,-640.99 396.86,-954.78 59.27,-376.93 23.8,-997.6 -184.1,-1319.31 78.5,420.39 93.5,905.22 35.86,1298.21 -50,340.9 -103.32,571.56 -248.62,975.88z" style="fill:#9922c0"/>
 </g><g id="RightPaw-Rabbit2">
  <animateTransform additive="sum" attributeName="transform" dur="10" repeatCount="indefinite" type="translate" values="0;0 200;0;0 200;0;0 200;0;0 200;0"/>
  <metadata id="CorelCorpID_30Corel-Layer"/>
  <g id="_2131552597904">
   <path class="RightPaw-Rabbit2fil51" d="M17500.83 20836.37c-31.01,671.59 506.32,1058.8 828,765.31 253.5,397.35 884.17,103.39 809.26,-292.5 203.13,-535.14 -266.24,-1035.76 -634.19,-1325.08 -198.11,-64.5 -364.18,-247.68 -461.85,44.06 -113.97,340.43 -156.85,278.81 -402.23,397.75 -163.53,79.26 -10.67,351.89 -138.99,410.46z" style="fill:#e9f917"/>
   <path class="RightPaw-Rabbit2fil10" d="M17500.83 20836.37c-31.01,671.59 506.32,1058.8 828,765.31 341.06,429.25 911,23.85 753.65,-292.7 -65.31,297.19 -520.59,407.83 -657.17,-118.23 -113.25,412.02 -522.03,237.66 -614.7,26.73 -95.14,-216.58 -44.81,-462.8 -253.66,-619.84 -1.8,93.31 16.28,193.4 -44.96,232.65l-0.16 0.1 -0.17 0.11c-1.48,0.93 -2.97,1.82 -4.53,2.69l-0.17 0.1 -0.18 0.09 -0.14 0.09 -0.03 0.01 -0.18 0.1 -0.17 0.09 -0.18 0.09c-1.69,0.92 -3.44,1.79 -5.25,2.61z" style="fill:#05a15b"/>
   <path class="RightPaw-Rabbit2fil28" d="M17436.91 20673.48c-79.39,-58.19 -167.86,62.52 -88.48,120.7 28.24,20.69 56.25,42.36 83.3,64.61 -3.93,302.02 99.68,551.64 246.17,712.18 55.54,60.86 117.82,109.47 183.4,143.86 145.9,76.49 311.53,82.65 453.24,-7.98 209.57,238.5 583.03,191.12 784.7,-34.27 86.01,-96.11 134.73,-220.26 115.83,-356.13 82.54,-234.31 46.25,-463.42 -52.44,-673.52 -132.46,-282 -402.86,-497.73 -588.08,-703.58 -33.5,-37.22 -180.19,-286.69 -214.16,-345.48 -58.56,-79 -178.69,10.05 -120.12,89.06 35.43,47.77 75.16,120.11 111.48,186.29 6.41,11.67 81.45,153.11 123.81,187.52 201.58,163.8 430.96,392.41 551.71,649.47 38.04,80.97 65.19,164.94 76.97,250.68 -53.73,-69.19 -156.09,-151.42 -275.06,-139.39 80.64,67.61 125.53,143.46 171.18,252.76 65.8,157.59 113.11,362.41 -12.44,502.72 -141.93,158.63 -411.75,205.47 -562.48,33.5 115.64,-164.64 117.79,-464.48 -80.37,-548.33 54.53,102.27 47.95,374.07 -54.76,476.76 -86.33,86.32 -222.41,119.56 -359.87,47.5 -49.57,-25.99 -97.71,-63.9 -141.8,-112.22 -128.18,-140.48 -217.35,-364.86 -206.61,-639.48 1.55,-21.67 -6.3,-43.83 -23.35,-59.87 -36.49,-34.26 -81.32,-67.73 -121.77,-97.36z" style="fill:#70a693"/>
  </g>
 </g><g id="LeftPaw-Rabbit2">
   <animateTransform additive="sum" attributeName="transform" dur="10" repeatCount="indefinite" type="translate" values="0;0 200;0;0 200;0;0 200;0;0 200;0"/>
  <metadata id="CorelCorpID_45Corel-Layer"/>
  <path class="LeftPaw-Rabbit2fil65" d="M9863.01 20836.37c31.01,671.59 -506.32,1058.8 -828,765.31 -253.5,397.35 -884.17,103.39 -809.26,-292.5 -203.13,-535.14 266.24,-1035.76 634.19,-1325.08 198.11,-64.5 364.18,-247.68 461.85,44.06 113.97,340.43 156.85,278.81 402.23,397.75 163.53,79.26 10.67,351.89 138.99,410.46z" style="fill:#f3073b"/>
  <path class="LeftPaw-Rabbit2fil10" d="M9863.01 20836.37c31.01,671.59 -506.32,1058.8 -828,765.31 -341.06,429.25 -911,23.85 -753.65,-292.7 65.31,297.19 520.59,407.83 657.17,-118.23 113.25,412.02 522.03,237.66 614.7,26.73 95.14,-216.58 44.81,-462.8 253.66,-619.84 1.8,93.31 -16.28,193.4 44.96,232.65l0.16 0.1 0.17 0.11c1.48,0.93 2.97,1.82 4.53,2.69l0.17 0.1 0.18 0.09 0.14 0.09 0.03 0.01 0.18 0.1 0.17 0.09 0.18 0.09c1.69,0.92 3.44,1.79 5.25,2.61z" style="fill:#8cc915"/>
  <path class="LeftPaw-Rabbit2fil28" d="M9926.93 20673.48c79.39,-58.19 167.86,62.52 88.48,120.7 -28.24,20.69 -56.25,42.36 -83.3,64.61 3.93,302.02 -99.68,551.64 -246.17,712.18 -55.54,60.86 -117.82,109.47 -183.4,143.86 -145.9,76.49 -311.53,82.65 -453.24,-7.98 -209.57,238.5 -583.03,191.12 -784.7,-34.27 -86.01,-96.11 -134.73,-220.26 -115.83,-356.13 -82.54,-234.31 -46.25,-463.42 52.44,-673.52 132.46,-282 402.86,-497.73 588.08,-703.58 33.5,-37.22 180.19,-286.69 214.16,-345.48 58.56,-79 178.69,10.05 120.12,89.06 -35.43,47.77 -75.16,120.11 -111.48,186.29 -6.41,11.67 -81.45,153.11 -123.81,187.52 -201.58,163.8 -430.96,392.41 -551.71,649.47 -38.04,80.97 -65.19,164.94 -76.97,250.68 53.73,-69.19 156.09,-151.42 275.06,-139.39 -80.64,67.61 -125.53,143.46 -171.18,252.76 -65.8,157.59 -113.11,362.41 12.44,502.72 141.93,158.63 411.75,205.47 562.48,33.5 -115.64,-164.64 -117.79,-464.48 80.37,-548.33 -54.53,102.27 -47.95,374.07 54.76,476.76 86.33,86.32 222.41,119.56 359.87,47.5 49.57,-25.99 97.71,-63.9 141.8,-112.22 128.18,-140.48 217.35,-364.86 206.61,-639.48 -1.55,-21.67 6.3,-43.83 23.35,-59.87 36.49,-34.26 81.32,-67.73 121.77,-97.36z" style="fill:#89b2a6"/>
 </g><g id="Ears-Rabbit9">
   <animateTransform additive="sum" attributeName="transform" dur="10" repeatCount="indefinite" type="translate" values="0;0 200;0;0 200;0;0 200;0;0 200;0"/>
  <metadata id="CorelCorpID_55Corel-Layer"/>
  <g id="_2131679823824">
   <path class="Ears-Rabbit9fil134" d="M15426.54 7932.36c936.62,-115.19 1825.81,73.52 2628.16,545.81 655.65,385.94 1360.77,1073.74 1952.32,1976.04 663.72,1012.36 1196.23,2285.23 1584.35,3516.54 584.83,1855.33 778.49,3673.5 -90.3,4897.85 -95.84,-38.19 -203.8,-194.22 -321.02,-511.3 -170.08,1022.97 -530.94,1239.12 -877.98,1597.06 -78.88,-98.64 -96.96,-238.21 -147.86,-764.36 -202.24,569.94 -460.53,762.26 -603.57,887.14 -316.79,-385.27 -467.19,-634.37 -552.39,-1050.23 -81.54,143.45 -99.22,328.41 -169.09,364.12 -652.81,-439.06 -779.02,-2616.82 -426.37,-3276.3 233.06,-1799.64 610.9,-3816.33 -295.58,-4828.88 -498.75,-741.51 -1242.52,-1348.72 -1601.45,-1930.17 -224.61,-363.86 -1197.94,-763.06 -1079.22,-1423.32z" style="fill:#17e8e2"/>
   <path class="Ears-Rabbit9fil28" d="M15417.46 7857.95c498.49,-61.3 1023.06,-39.63 1514.83,81.83 2759.89,681.72 3984.87,3756.13 4791.5,6198.3 588.91,1782.97 695.77,3566.05 -161.78,4773.88 -21.41,30.09 -61.02,39.56 -93.22,24.11 -62.63,-26.63 -125.93,-86.91 -188.72,-186.92 -24.16,-38.48 -48.71,-83.33 -73.61,-134.97 -161.04,719.81 -431.72,982.67 -711.14,1253.95 -46.56,45.21 -93.4,90.69 -139.64,138.38 -28.8,29.6 -76.16,30.26 -105.76,1.46 -3.66,-3.56 -6.88,-7.41 -9.65,-11.47 -45.61,-58.64 -73.49,-127.02 -96.16,-250.52 -11.96,-65.2 -22.73,-147.14 -34.46,-253.85 -169.69,349.39 -355.17,508.54 -479.29,615.03l-30.5 26.23c-31.06,27.18 -78.29,24.03 -105.47,-7.03l-2.69 -3.26c-160.95,-195.82 -279.94,-357.61 -370.02,-524.15 -57.25,-105.85 -102.66,-213.19 -139.46,-331.73 -29.43,87.12 -57.41,158.79 -119.08,190.31 -24.97,12.76 -53.77,10.1 -75.54,-4.45 -321.93,-216.43 -521.44,-812.01 -605.2,-1455.66 -95.13,-731 -43.01,-1532.64 147.99,-1905.38 22.36,-172.36 43.46,-328.18 64.66,-484.76 222.72,-1645.49 457.14,-3377.3 -343.5,-4271.63 -2.35,-2.63 -4.48,-5.38 -6.39,-8.24 -249.34,-370.57 -561.83,-708.65 -855.68,-1026.57 -292.17,-316.1 -566.26,-612.63 -747.29,-905.9 -67.37,-109.14 -219.33,-229.87 -386.04,-362.31 -362.79,-288.21 -790.44,-627.96 -703.15,-1113.45 5.92,-33.07 32.78,-57.13 64.49,-60.99l-0.03 -0.24zm1479.09 227.15c-454.42,-112.23 -939.06,-135.76 -1403.46,-84.99 -28.5,371.35 340.75,664.72 656.22,915.34 177.1,140.7 338.52,268.94 420.02,400.97 173.9,281.7 442.94,572.78 729.73,883.06 297.27,321.62 613.34,663.58 867.95,1041.35 841.77,947 603.11,2710.53 376.28,4386.37 -23.41,172.95 -46.7,344.99 -66.22,495.67 -1,9.19 -3.74,18.36 -8.36,27.02 -182.67,341.62 -230.78,1115.74 -138.07,1828.19 73.69,566.31 234.92,1087.93 485.87,1308.77 53.16,-133.24 124.95,-256.8 190.61,-388.74 28.36,153.83 163.63,476.9 246.4,629.94 76.26,140.98 175.55,279.73 306.49,442.26 148.82,-129 407.82,-472.45 587.17,-854.72 59.77,214.65 119.57,568.44 171.95,715.5 24.01,-23.69 47.99,-46.97 71.89,-70.18 137.73,-133.72 267.78,-268.75 392.88,-457.82 166.19,-251.17 350.78,-801.29 370.37,-1016.1 59.4,45.18 211.95,368.25 326.72,479 780.96,-1162.14 666.07,-2868.44 100.42,-4581.03 -789.12,-2389.13 -1979.36,-5431.58 -4684.86,-6099.86z" style="fill:#a9bdad"/>
   <path class="Ears-Rabbit9fil135" d="M16738.07 9665.67c2942.51,225.2 4779.53,5267.16 4472.9,7242.93 -326.69,2105.04 -2232.35,2111.36 -2529.37,1128.61 -359.58,-1189.75 651.1,-5695.48 -738.68,-6977.14 -567.3,-641.7 -440.05,-612.63 -1204.85,-1394.4z" style="fill:#b04277"/>
   <path class="Ears-Rabbit9fil136" d="M19490.53 11357.4c525.33,624.39 1352.4,2440.01 1486.67,3180.56 301.55,1663.13 -403.01,2964.48 -954.86,3063.56 -561.14,100.75 -370.12,-1178.62 -241,-1812.3 -155.35,408.57 -352.27,1202.24 -746.72,737.42 -264.37,-311.54 -268.36,-787.87 -170.65,-1366.89 104.74,-620.66 -240.72,-2792.61 -679.03,-3592.1 -648.94,-1055.7 -1296.56,-1746.86 -1426.08,-1963.74 97.6,-42.23 453.82,-17.26 1189.85,375.58 497.28,265.43 1128.68,886.86 1541.82,1377.91z" style="fill:#59705d"/>
   <path class="Ears-Rabbit9fil0" d="M17614.1 9824.51c2489.43,939.63 3889.72,5294.91 3596.87,7084.09 -346.43,2116.53 -2252.03,2156.94 -2529.37,1128.61 -455.83,-1690.13 891.89,-4943.71 -963.31,-7220.61 -448.18,-550.01 -996.3,-1129.84 -946.94,-1222.38 26.34,-49.4 260.24,10.43 842.75,230.29z" style="fill:#204caf"/>
   <path class="Ears-Rabbit9fil0 Ears-Rabbit9str0" d="M17548.13 9854.4c2489.43,939.61 3955.68,5265.02 3662.84,7054.2 -346.43,2116.52 -2252.03,2156.94 -2529.37,1128.61 -455.83,-1690.13 891.89,-4943.71 -963.31,-7220.61 -448.18,-550.01 -996.29,-1129.84 -946.94,-1222.38 26.34,-49.39 194.29,40.32 776.78,260.18z" style="fill:#f69d7e"/>
   <path class="Ears-Rabbit9fil10" d="M18209.18 16966.48l397.6 -251.4c-234.55,1614 614.8,1881.74 621.04,1937.48 11.05,98.8 152.53,873.53 448.12,714.95 170.39,-91.41 388,-546.32 470.23,-543.37 0,0 120.12,381.83 337.33,462.35 120.61,44.71 556.03,-1024.19 687.3,-1421.47 6.65,62.37 250.85,776.31 444.8,727.07 30.76,-7.81 -51.43,302.63 -152.11,255.83 -134.3,-62.42 -326.75,-449.9 -329,-403.82 -7.22,147.27 -30.54,302.35 -82.76,453.15 -203.2,586.77 -630.13,1123.85 -744.73,991.5 -128.29,-148.16 -140.91,-723.76 -152.79,-698.75 -152.41,320.79 -461.21,835.05 -603.57,887.14 0,0 -478.14,-552.04 -540.6,-995.57 -39.98,1.55 -180.88,309.46 -180.88,309.46 0,0 -722.96,-461.95 -619.98,-2424.55z" style="fill:#009b37"/>
   <path class="Ears-Rabbit9fil10" d="M18774.57 10605.45c1881.53,1687.38 3058.15,5539.75 2162.07,7012.89 292.41,-1730.79 -280.62,-2915.92 -1025.57,-3118.02 185,-1796.7 -971.86,-3602.37 -1136.5,-3894.87z" style="fill:#f790ed"/>
  </g>
  <g id="_2131679821872">
   <path class="Ears-Rabbit9fil137" d="M11937.34 7932.36c-936.62,-115.19 -1825.81,73.52 -2628.16,545.81 -655.65,385.94 -1360.77,1073.74 -1952.32,1976.04 -663.72,1012.36 -1196.23,2285.23 -1584.35,3516.54 -584.83,1855.33 -778.49,3673.5 90.3,4897.85 95.84,-38.19 203.8,-194.22 321.02,-511.3 170.08,1022.97 530.94,1239.12 877.98,1597.06 78.88,-98.64 96.96,-238.21 147.86,-764.36 202.24,569.94 460.53,762.26 603.57,887.14 316.79,-385.27 467.19,-634.37 552.39,-1050.23 81.54,143.45 99.22,328.41 169.09,364.12 652.81,-439.06 779.02,-2616.82 426.37,-3276.3 -233.06,-1799.64 -610.9,-3816.33 295.58,-4828.88 498.75,-741.51 1242.52,-1348.72 1601.45,-1930.17 224.61,-363.86 1197.94,-763.06 1079.22,-1423.32z" style="fill:#77075b"/>
   <path class="Ears-Rabbit9fil28" d="M11946.42 7857.95c-498.49,-61.3 -1023.06,-39.63 -1514.83,81.83 -2759.89,681.72 -3984.87,3756.13 -4791.5,6198.3 -588.91,1782.97 -695.77,3566.05 161.78,4773.88 21.41,30.09 61.02,39.56 93.22,24.11 62.63,-26.63 125.93,-86.91 188.72,-186.92 24.16,-38.48 48.71,-83.33 73.61,-134.97 161.04,719.81 431.72,982.67 711.14,1253.95 46.56,45.21 93.4,90.69 139.64,138.38 28.8,29.6 76.16,30.26 105.76,1.46 3.66,-3.56 6.88,-7.41 9.65,-11.47 45.61,-58.64 73.49,-127.02 96.16,-250.52 11.96,-65.2 22.73,-147.14 34.46,-253.85 169.69,349.39 355.17,508.54 479.29,615.03l30.5 26.23c31.06,27.18 78.29,24.03 105.47,-7.03l2.69 -3.26c160.95,-195.82 279.94,-357.61 370.02,-524.15 57.25,-105.85 102.66,-213.19 139.46,-331.73 29.43,87.12 57.41,158.79 119.08,190.31 24.97,12.76 53.77,10.1 75.54,-4.45 321.93,-216.43 521.44,-812.01 605.2,-1455.66 95.13,-731 43.01,-1532.64 -147.99,-1905.38 -22.36,-172.36 -43.46,-328.18 -64.66,-484.76 -222.72,-1645.49 -457.14,-3377.3 343.5,-4271.63 2.35,-2.63 4.48,-5.38 6.39,-8.24 249.34,-370.57 561.83,-708.65 855.68,-1026.57 292.17,-316.1 566.26,-612.63 747.29,-905.9 67.37,-109.14 219.33,-229.87 386.04,-362.31 362.79,-288.21 790.44,-627.96 703.15,-1113.45 -5.92,-33.07 -32.78,-57.13 -64.49,-60.99l0.03 -0.24zm-1479.09 227.15c454.42,-112.23 939.06,-135.76 1403.46,-84.99 28.5,371.35 -340.75,664.72 -656.22,915.34 -177.1,140.7 -338.52,268.94 -420.02,400.97 -173.9,281.7 -442.94,572.78 -729.73,883.06 -297.27,321.62 -613.34,663.58 -867.95,1041.35 -841.77,947 -603.11,2710.53 -376.28,4386.37 23.41,172.95 46.7,344.99 66.22,495.67 1,9.19 3.74,18.36 8.36,27.02 182.67,341.62 230.78,1115.74 138.07,1828.19 -73.69,566.31 -234.92,1087.93 -485.87,1308.77 -53.16,-133.24 -124.95,-256.8 -190.61,-388.74 -28.36,153.83 -163.63,476.9 -246.4,629.94 -76.26,140.98 -175.55,279.73 -306.49,442.26 -148.82,-129 -407.82,-472.45 -587.17,-854.72 -59.77,214.65 -119.57,568.44 -171.95,715.5 -24.01,-23.69 -47.99,-46.97 -71.89,-70.18 -137.73,-133.72 -267.78,-268.75 -392.88,-457.82 -166.19,-251.17 -350.78,-801.29 -370.37,-1016.1 -59.4,45.18 -211.95,368.25 -326.72,479 -780.96,-1162.14 -666.07,-2868.44 -100.42,-4581.03 789.12,-2389.13 1979.36,-5431.58 4684.86,-6099.86z" style="fill:#30f18a"/>
   <path class="Ears-Rabbit9fil138" d="M10625.81 9665.67c-2942.51,225.2 -4779.53,5267.16 -4472.9,7242.93 326.69,2105.04 2232.35,2111.36 2529.37,1128.61 359.58,-1189.75 -651.1,-5695.48 738.68,-6977.14 567.3,-641.7 440.05,-612.63 1204.85,-1394.4z" style="fill:#567bea"/>
   <path class="Ears-Rabbit9fil139" d="M7873.35 11357.4c-525.33,624.39 -1352.4,2440.01 -1486.67,3180.56 -301.55,1663.13 403.01,2964.48 954.86,3063.56 561.14,100.75 370.12,-1178.62 241,-1812.3 155.35,408.57 352.27,1202.24 746.72,737.42 264.37,-311.54 268.36,-787.87 170.65,-1366.89 -104.74,-620.66 240.72,-2792.61 679.03,-3592.1 648.94,-1055.7 1296.56,-1746.86 1426.08,-1963.74 -97.6,-42.23 -453.82,-17.26 -1189.85,375.58 -497.28,265.43 -1128.68,886.86 -1541.82,1377.91z" style="fill:#db2084"/>
   <path class="Ears-Rabbit9fil0" d="M9749.78 9824.51c-2489.43,939.63 -3889.72,5294.91 -3596.87,7084.09 346.43,2116.53 2252.03,2156.94 2529.37,1128.61 455.83,-1690.13 -891.89,-4943.71 963.31,-7220.61 448.18,-550.01 996.3,-1129.84 946.94,-1222.38 -26.34,-49.4 -260.24,10.43 -842.75,230.29z" style="fill:#f92305"/>
   <path class="Ears-Rabbit9fil0 Ears-Rabbit9str0" d="M9815.75 9854.4c-2489.43,939.61 -3955.68,5265.02 -3662.84,7054.2 346.43,2116.52 2252.03,2156.94 2529.37,1128.61 455.83,-1690.13 -891.89,-4943.71 963.31,-7220.61 448.18,-550.01 996.29,-1129.84 946.94,-1222.38 -26.34,-49.39 -194.29,40.32 -776.78,260.18z" style="fill:#44114d"/>
   <path class="Ears-Rabbit9fil10" d="M9154.7 16966.48l-397.6 -251.4c234.55,1614 -614.8,1881.74 -621.04,1937.48 -11.05,98.8 -152.53,873.53 -448.12,714.95 -170.39,-91.41 -388,-546.32 -470.23,-543.37 0,0 -120.12,381.83 -337.33,462.35 -120.61,44.71 -556.03,-1024.19 -687.3,-1421.47 -6.65,62.37 -250.85,776.31 -444.8,727.07 -30.76,-7.81 51.43,302.63 152.11,255.83 134.3,-62.42 326.75,-449.9 329,-403.82 7.22,147.27 30.54,302.35 82.76,453.15 203.2,586.77 630.13,1123.85 744.73,991.5 128.29,-148.16 140.91,-723.76 152.79,-698.75 152.41,320.79 461.21,835.05 603.57,887.14 0,0 478.14,-552.04 540.6,-995.57 39.98,1.55 180.88,309.46 180.88,309.46 0,0 722.96,-461.95 619.98,-2424.55z" style="fill:#b2cfb8"/>
   <path class="Ears-Rabbit9fil10" d="M8589.31 10605.45c-1881.53,1687.38 -3058.15,5539.75 -2162.07,7012.89 -292.41,-1730.79 280.62,-2915.92 1025.57,-3118.02 -185,-1796.7 971.86,-3602.37 1136.5,-3894.87z" style="fill:#7ff352"/>
  </g>
 </g><g id="Head-Rabbit0">
   <animateTransform additive="sum" attributeName="transform" dur="10" repeatCount="indefinite" type="translate" values="0;0 200;0;0 200;0;0 200;0;0 200;0"/>
  <metadata id="CorelCorpID_60Corel-Layer"/>
  <path class="Head-Rabbit0fil168" d="M13681.94 7484.8c-3317.85,29.1 -6810.78,4284.97 -6118.37,7422.04 477.37,2162.82 3344.41,3029.88 6118.37,3029.88 2773.96,0 5654.54,-832.69 6153.65,-2941.68 703.67,-3159.58 -2821.25,-7510.23 -6153.65,-7510.24z" style="fill:#9aab10"/>
  <path class="Head-Rabbit0fil10" d="M8458.47 10922.11c-784.99,1275.18 -1176.92,2718.44 -894.9,3984.73 421.08,1890.7 2663.57,2791.72 5075.04,2988.04 -4045.8,-960.15 -5423.91,-2961.05 -4180.14,-6972.77z" style="fill:#27d6cb"/>
  <path class="Head-Rabbit0fil28" d="M8953.19 10238.26c-570.13,841.02 -921.69,1492.78 -1241.8,2665.51 -217.04,795.05 -133.62,1728.42 -77.69,1979.56 178.58,801.84 697.02,1428.14 1416.95,1902.22 661.21,435.41 2110.79,926.56 3200.89,1064.47 -1560.35,-30.12 -2775.1,-598.49 -3282.93,-929.93 -753.19,-491.58 -1329.37,-1151.32 -1517.36,-1995.41 -59.36,-266.55 -133.07,-1244.85 87.34,-2064.17 229.03,-851.31 688.2,-2100.4 1414.6,-2622.25z" style="fill:#e9bb7f"/>
  <path class="Head-Rabbit0fil28" d="M18410.69 10238.26c570.13,841.02 921.69,1492.78 1241.8,2665.51 217.04,795.05 133.62,1728.42 77.69,1979.56 -178.58,801.84 -697.02,1428.14 -1416.95,1902.22 -661.21,435.41 -2110.79,926.56 -3200.89,1064.47 1560.35,-30.12 2775.1,-598.49 3282.93,-929.93 753.19,-491.58 1329.37,-1151.32 1517.36,-1995.41 59.36,-266.55 133.07,-1244.85 -87.34,-2064.17 -229.03,-851.31 -688.2,-2100.4 -1414.6,-2622.25z" style="fill:#862c03"/>
  <path class="Head-Rabbit0fil28" d="M13681.94 7559.8c-408.05,0 -767.02,56.44 -1101.68,148.75 -949.75,261.97 -2036.74,899.1 -2715.65,1499.17 604.3,-730.18 1714.22,-1378.1 2675.81,-1643.31 347.84,-95.94 719.98,-154.61 1141.52,-154.61 421.54,0 793.68,58.67 1141.52,154.61 961.59,265.21 2071.51,913.13 2675.81,1643.31 -678.91,-600.07 -1765.9,-1237.2 -2715.65,-1499.17 -334.66,-92.31 -693.63,-148.75 -1101.68,-148.75z" style="fill:#ca7f7b"/>
 </g><g id="Mouth-Rabbit4">
   <animateTransform additive="sum" attributeName="transform" dur="10" repeatCount="indefinite" type="translate" values="0;0 200;0;0 200;0;0 200;0;0 200;0"/>
  <metadata id="CorelCorpID_72Corel-Layer"/>
  <g id="_2131646422608">
   <path class="Mouth-Rabbit4fil195 Mouth-Rabbit4str0" d="M13681.94 15946.36l-0.02 917.14c0,0 104.15,89.59 296.97,-17.36 192.83,-106.95 251.8,-545.25 251.8,-545.25 0,0 -196.23,-129.08 -548.75,-354.53z" style="fill:#a48e88"/>
   <path class="Mouth-Rabbit4fil10" d="M15269 15795.69c-403.96,486.78 -705.75,580.16 -1023.06,586.88 -176.44,3.74 -357.7,-109.27 -564,-106.37l0.05 -399.09c18.08,-1.33 35.86,-2.08 53.32,-2.08 251.96,0 428.76,304.41 760.48,272.42 191.4,-18.45 434.43,-109.76 773.21,-351.76z" style="fill:#9343a4"/>
   <path class="Mouth-Rabbit4fil0 Mouth-Rabbit4str0" d="M13681.94 15544.17c0.02,128.06 0.05,214.55 0.05,368.31 171.34,126.63 506.21,423.54 757.84,405.35 364.43,-26.34 931.04,-570.62 933.74,-693.84" style="fill:#064545"/>
   <path class="Mouth-Rabbit4fil192" d="M15125.77 15467.88c0,0 147.45,170.67 52.93,313.41 -94.52,142.76 233.73,-70.77 261.09,-140.97 27.36,-70.21 -129.74,-235.01 -314.02,-172.44z" style="fill:#fd84a6"/>
  </g>
  <g id="_2131646420112">
   <path class="Mouth-Rabbit4fil196 Mouth-Rabbit4str0" d="M13681.9 15946.36l0.02 917.14c0,0 -104.15,89.59 -296.97,-17.36 -192.83,-106.95 -251.8,-545.25 -251.8,-545.25 0,0 196.23,-129.08 548.75,-354.53z" style="fill:#96802f"/>
   <path class="Mouth-Rabbit4fil10" d="M12094.84 15795.69c403.96,486.78 705.75,580.16 1023.06,586.88 176.44,3.74 357.7,-109.27 564,-106.37l-0.05 -399.09c-18.08,-1.33 -35.86,-2.08 -53.32,-2.08 -251.96,0 -428.76,304.41 -760.48,272.42 -191.4,-18.45 -434.43,-109.76 -773.21,-351.76z" style="fill:#79eff2"/>
   <path class="Mouth-Rabbit4fil0 Mouth-Rabbit4str0" d="M13681.9 15544.17c-0.02,128.06 -0.05,214.55 -0.05,368.31 -171.34,126.63 -506.21,423.54 -757.84,405.35 -364.43,-26.34 -931.04,-570.62 -933.74,-693.84" style="fill:#04c2d4"/>
   <path class="Mouth-Rabbit4fil192" d="M12238.07 15467.88c0,0 -147.45,170.67 -52.93,313.41 94.52,142.76 -233.73,-70.77 -261.09,-140.97 -27.36,-70.21 129.74,-235.01 314.02,-172.44z" style="fill:#05510b"/>
  </g>
 </g><g id="EyesClosed-Rabbit7">
   <animateTransform additive="sum" attributeName="transform" dur="10" repeatCount="indefinite" type="translate" values="0;0 200;0;0 200;0;0 200;0;0 200;0"/>
  <metadata id="CorelCorpID_92Corel-Layer"/>
  <path class="EyesClosed-Rabbit7fil28" d="M15278.83 14340.96c-47.53,72.85 11.44,129.89 70.77,79.29 372.6,-317.61 1813.46,-1447.67 2867.54,-1701.64 154.66,-37.26 246.13,-52.14 394.27,-54.25 72.67,-1.03 129.28,4.63 150.43,-30.2 65.76,-108.24 -125.69,-163.69 -186.19,-186.78 -889.52,-339.38 -2112.03,572.33 -3296.82,1893.58z"/>
  <path class="EyesClosed-Rabbit7fil28" d="M12085.05 14340.96c47.53,72.85 -11.44,129.89 -70.77,79.29 -372.6,-317.61 -1813.46,-1447.67 -2867.54,-1701.64 -154.66,-37.26 -246.13,-52.14 -394.27,-54.25 -72.67,-1.03 -129.28,4.63 -150.43,-30.2 -65.76,-108.24 125.69,-163.69 186.19,-186.78 889.52,-339.38 2112.03,572.33 3296.82,1893.58z"/>
  <g id="_2131599743920">
   <path class="EyesClosed-Rabbit7fil207" d="M16776.92 9565.55c191.49,38.68 291.52,167.62 266.07,335.85 328.74,-154.16 647.84,10.99 595.96,254.85 331.67,-138.52 985.84,1185.16 -35.29,525.16 -431.47,-278.87 -944.32,-268.35 -1375.17,-124.09 -766.03,256.51 -261.34,-1155.39 548.43,-991.77z"/>
   <path class="EyesClosed-Rabbit7fil10" d="M16776.92 9565.55c191.49,38.68 291.52,167.62 266.07,335.85 328.74,-154.16 647.84,10.99 595.96,254.85 331.67,-138.52 985.84,1185.16 -35.29,525.16 -431.47,-278.87 -944.32,-268.35 -1375.17,-124.09 -766.03,256.51 -261.34,-1155.39 548.43,-991.77z"/>
  </g>
  <g id="_2131599744912">
   <path class="EyesClosed-Rabbit7fil207" d="M10586.96 9565.55c-191.49,38.68 -291.52,167.62 -266.07,335.85 -328.74,-154.16 -647.84,10.99 -595.96,254.85 -331.67,-138.52 -985.84,1185.16 35.29,525.16 431.47,-278.87 944.32,-268.35 1375.17,-124.09 766.03,256.51 261.34,-1155.39 -548.43,-991.77z"/>
   <path class="EyesClosed-Rabbit7fil10" d="M10586.96 9565.55c-191.49,38.68 -291.52,167.62 -266.07,335.85 -328.74,-154.16 -647.84,10.99 -595.96,254.85 -331.67,-138.52 -985.84,1185.16 35.29,525.16 431.47,-278.87 944.32,-268.35 1375.17,-124.09 766.03,256.51 261.34,-1155.39 -548.43,-991.77z"/>
  </g>
 </g><g id="Eyes-Rabbit7">
   <animate attributeName="opacity" dur="10" repeatCount="indefinite" values="0;1;1;1;1;1;1;1;1;1;1;1;1;1;1;1;1;1;1;1;1;1;1;1;1;1;1;1;1;1;1;1;1;1;1;1;1;1;1;1;1;1;1;1;1;1;1;1;1;1;1;1;1;1;1;1;1;1;1;1;1;1;1;1;1;1;1;1;1;1;1;1;1;1;1;1;1;1;1;1;1;1;1;1;0;0"/>
   <animateTransform additive="sum" attributeName="transform" dur="10" repeatCount="indefinite" type="translate" values="0;0 200;0;0 200;0;0 200;0;0 200;0"/>
  <metadata id="CorelCorpID_93Corel-Layer"/>
  <g id="_2131599739760">
   <g>
    <path class="Eyes-Rabbit7fil254" d="M15295.6 14277.25c113.58,1087.42 3104.16,957.12 3396.6,-996.28 457.38,-3055.12 -3788.52,-2755.2 -3396.6,996.28z"/>
    <path class="Eyes-Rabbit7fil255" d="M15311.34 13334.12c3.47,-73.1 10.46,-147.88 20.57,-223.52l1370.68 -269.55 -1379.7 659.81c-5.44,-40.04 -9.26,-124.42 -11.55,-166.74zm1405.91 -510.61l-1341.42 165.28c180.62,-1259.23 1087.64,-216.49 1347.21,-182.78 17.71,2.3 21.75,62.46 32.09,53.36l1480.09 -1301.88 230.55 244.2 -1712.09 1074.57c-40.67,5.05 -39.72,-27.75 -36.43,-52.75zm1942.37 -537.95c51.69,88.79 39.39,298.59 68.85,386.92l-1946.43 200.28 1877.58 -587.2zm27.26 878.29c6.3,94.71 -27.67,247.45 -40.79,337.04l-1871.68 -614.24 1912.47 277.2zm-224.55 711.71c-45.33,108.77 -102.45,208.94 -166.47,297.72l-1542.4 -1280.51 1708.87 982.79zm-515.59 621.8c-69.48,54.12 -246.99,150.67 -325.61,187.67l-882.05 -1787.46 1207.66 1599.79zm-760.56 362.82c-107.49,23.35 -258.58,42.28 -365.13,46.45l-100.31 -2018.61 465.44 1972.16zm-827.48 95.65c-98.97,-13.23 -262.1,-63.31 -352.03,-86.74l700.43 -1989.19 -348.4 2075.93zm-802.41 -269.96c-129.28,-59.03 -154.39,-132.19 -240.96,-263.53l1385.43 -1561.76 -1144.47 1825.29z"/>
    <path class="Eyes-Rabbit7fil256" d="M16740.52 12832.83l1063 -1538.69c0,0 -407.26,-87.84 -442.2,-89.04 -34.94,-1.2 -620.8,1627.73 -620.8,1627.73z"/>
    <path class="Eyes-Rabbit7fil257" d="M16762.66 11311.33c-709.45,267.93 -1354.46,1017.45 -1472.75,2253.15 242.48,427.71 676.29,712.73 1171.18,712.73 760.01,0 1376.12,-672.05 1376.12,-1501.07 0,-716 -459.61,-1314.83 -1074.55,-1464.81z"/>
    <path class="Eyes-Rabbit7fil189" d="M15371.19 14507.56c29.12,-1690.76 997.04,-3252.42 3202.83,-2469.94 -848.64,-1771.61 -3577.91,-627.13 -3278.42,2239.63 8.79,84.17 34.9,161.02 75.59,230.31z"/>
    <path class="Eyes-Rabbit7fil0 Eyes-Rabbit7str0" d="M15295.6 14277.24c113.59,1087.43 3104.16,957.14 3396.6,-996.27 457.38,-3055.12 -3788.52,-2755.21 -3396.6,996.27z"/>
   </g>
   <g>
    <path class="Eyes-Rabbit7fil211" d="M18554 12635.13c103.43,1151.97 -636.8,1823.11 -1273.87,1919.37 885.79,-489.09 1081.26,-1147.03 1273.87,-1919.37z"/>
    <circle class="Eyes-Rabbit7fil211" r="234.72" transform="matrix(1.49196 -1.86635 1.51818 1.0191 16474.5 12298.3)"/>
    <circle class="Eyes-Rabbit7fil211" r="234.72" transform="matrix(0.553563 -1.03405 0.839144 0.367625 17700.3 13676.3)"/>
    <circle class="Eyes-Rabbit7fil211" r="234.72" transform="matrix(0.341267 -0.637484 0.517326 0.226638 17436.2 13251.6)"/>
   </g>
  </g>
  <g id="_2131599735184">
   <g>
    <path class="Eyes-Rabbit7fil258" d="M12068.28 14277.25c-113.58,1087.42 -3104.16,957.12 -3396.6,-996.28 -457.38,-3055.12 3788.52,-2755.2 3396.6,996.28z"/>
    <path class="Eyes-Rabbit7fil259" d="M12052.54 13334.12c-3.47,-73.1 -10.46,-147.88 -20.57,-223.52l-1370.68 -269.55 1379.7 659.81c5.44,-40.04 9.26,-124.42 11.55,-166.74zm-1405.91 -510.61l1341.42 165.28c-180.62,-1259.23 -1087.64,-216.49 -1347.21,-182.78 -17.71,2.3 -21.75,62.46 -32.09,53.36l-1480.09 -1301.88 -230.55 244.2 1712.09 1074.57c40.67,5.05 39.72,-27.75 36.43,-52.75zm-1942.37 -537.95c-51.69,88.79 -39.39,298.59 -68.85,386.92l1946.43 200.28 -1877.58 -587.2zm-27.26 878.29c-6.3,94.71 27.67,247.45 40.79,337.04l1871.68 -614.24 -1912.47 277.2zm224.55 711.71c45.33,108.77 102.45,208.94 166.47,297.72l1542.4 -1280.51 -1708.87 982.79zm515.59 621.8c69.48,54.12 246.99,150.67 325.61,187.67l882.05 -1787.46 -1207.66 1599.79zm760.56 362.82c107.49,23.35 258.58,42.28 365.13,46.45l100.31 -2018.61 -465.44 1972.16zm827.48 95.65c98.97,-13.23 262.1,-63.31 352.03,-86.74l-700.43 -1989.19 348.4 2075.93zm802.41 -269.96c129.28,-59.03 154.39,-132.19 240.96,-263.53l-1385.43 -1561.76 1144.47 1825.29z"/>
    <path class="Eyes-Rabbit7fil260" d="M10623.36 12832.83l-1063 -1538.69c0,0 407.26,-87.84 442.2,-89.04 34.94,-1.2 620.8,1627.73 620.8,1627.73z"/>
    <path class="Eyes-Rabbit7fil261" d="M10601.22 11311.33c709.45,267.93 1354.46,1017.45 1472.75,2253.15 -242.48,427.71 -676.29,712.73 -1171.18,712.73 -760.01,0 -1376.12,-672.05 -1376.12,-1501.07 0,-716 459.61,-1314.83 1074.55,-1464.81z"/>
    <path class="Eyes-Rabbit7fil189" d="M11992.69 14507.56c-29.12,-1690.76 -997.04,-3252.42 -3202.83,-2469.94 848.64,-1771.61 3577.91,-627.13 3278.42,2239.63 -8.79,84.17 -34.9,161.02 -75.59,230.31z"/>
    <path class="Eyes-Rabbit7fil0 Eyes-Rabbit7str0" d="M12068.28 14277.24c-113.59,1087.43 -3104.16,957.14 -3396.6,-996.27 -457.38,-3055.12 3788.52,-2755.21 3396.6,996.27z"/>
   </g>
   <g>
    <path class="Eyes-Rabbit7fil211" d="M8809.88 12635.13c-103.43,1151.97 636.8,1823.11 1273.87,1919.37 -885.79,-489.09 -1081.26,-1147.03 -1273.87,-1919.37z"/>
    <circle class="Eyes-Rabbit7fil211" r="234.72" transform="matrix(-1.49196 -1.86635 -1.51818 1.0191 10889.4 12298.3)"/>
    <circle class="Eyes-Rabbit7fil211" r="234.72" transform="matrix(-0.553563 -1.03405 -0.839144 0.367625 9663.57 13676.3)"/>
    <circle class="Eyes-Rabbit7fil211" r="234.72" transform="matrix(-0.341267 -0.637484 -0.517326 0.226638 9927.71 13251.6)"/>
   </g>
  </g>
 </g><g id="Moustache-Rabbit0">
   <animateTransform additive="sum" attributeName="transform" dur="10" repeatCount="indefinite" type="translate" values="0;0 200;0;0 200;0;0 200;0;0 200;0"/>
  <metadata id="CorelCorpID_98Corel-Layer"/>
  <rect class="Moustache-Rabbit0fil0" height="1458.79" width="1352.04" x="13005.92" y="11962.24"/>
  <rect class="Moustache-Rabbit0fil0" height="1458.79" width="1352.04" x="13005.92" y="11962.24"/>
 </g><g id="Nose-Rabbit0">
   <animateTransform additive="sum" attributeName="transform" dur="10" repeatCount="indefinite" type="translate" values="0;0 200;0;0 200;0;0 200;0;0 200;0"/>
  <metadata id="CorelCorpID_107Corel-Layer"/>
  <path class="Nose-Rabbit0fil320 Nose-Rabbit0str0" d="M13681.94 15552.26c0,0 -562.44,-234.12 -896.71,-743.31 389.83,185.2 450.19,134.81 896.71,339.9 446.52,-205.09 506.88,-154.7 896.71,-339.9 -334.27,509.19 -896.71,743.31 -896.71,743.31z" style="fill:#3f3a3f"/>
 </g><g id="Hair-Rabbit0">
   <animateTransform additive="sum" attributeName="transform" dur="10" repeatCount="indefinite" type="translate" values="0;0 200;0;0 200;0;0 200;0;0 200;0"/>
  <metadata id="CorelCorpID_108Corel-Layer"/>
  <rect class="Hair-Rabbit0fil0" height="889.5" width="889.5" x="13237.19" y="6589.66"/>
 </g></svg>