<svg xmlns="http://www.w3.org/2000/svg" xmlns:xlink="http://www.w3.org/1999/xlink" style="shape-rendering:geometricPrecision; text-rendering:geometricPrecision; image-rendering:optimizeQuality; fill-rule:evenodd; clip-rule:evenodd" version="1.1" viewBox="0 0 29000 29000" xml:space="preserve"><defs><style type="text/css">.HairBack-Lizard2fil14 {fill:black;fill-opacity:0.200000}
.HairBack-Lizard2fil605 {fill:url(#HairBack-Lizard2id822)}
.HairBack-Lizard2str5 {stroke:black;stroke-width:100;stroke-linecap:round;stroke-linejoin:round}
.HairBack-Lizard2fil606 {fill:url(#HairBack-Lizard2id1003)}
.HairBack-Lizard2fil611 {fill:url(#HairBack-Lizard2id102)}
.HairBack-Lizard2str0 {stroke:black;stroke-width:150;stroke-linecap:round;stroke-linejoin:round}
.HairBack-Lizard2fil608 {fill:url(#HairBack-Lizard2id821)}
.HairBack-Lizard2fil609 {fill:url(#HairBack-Lizard2id840)}
.HairBack-Lizard2fil612 {fill:url(#HairBack-Lizard2id295)}
.Tail-Lizard6fil14 {fill:black;fill-opacity:0.200000}
.Tail-Lizard6fil628 {fill:white;fill-opacity:0.301961}
.Tail-Lizard6fil627 {fill:url(#Tail-Lizard6id241)}
.Tail-Lizard6str0 {stroke:black;stroke-width:150;stroke-linecap:round;stroke-linejoin:round}
.RightFoot-Lizard0fil636 {fill:url(#RightFoot-Lizard0id220)}
.RightFoot-Lizard0fil32 {fill:black;fill-rule:nonzero}
.RightLeg-Lizard0fil639 {fill:url(#RightLeg-Lizard0id33)}
.RightLeg-Lizard0fil14 {fill:black;fill-opacity:0.200000}
.RightLeg-Lizard0fil32 {fill:black;fill-rule:nonzero}
.LeftFoot-Lizard0fil645 {fill:url(#LeftFoot-Lizard0id444)}
.LeftFoot-Lizard0fil32 {fill:black;fill-rule:nonzero}
.LeftLeg-Lizard0fil648 {fill:url(#LeftLeg-Lizard0id17)}
.LeftLeg-Lizard0fil14 {fill:black;fill-opacity:0.200000}
.LeftLeg-Lizard0fil32 {fill:black;fill-rule:nonzero}
.RightHand-Lizard4fil655 {fill:url(#RightHand-Lizard4id333)}
.RightHand-Lizard4fil14 {fill:black;fill-opacity:0.200000}
.RightHand-Lizard4fil628 {fill:white;fill-opacity:0.301961}
.RightHand-Lizard4fil32 {fill:black;fill-rule:nonzero}
.RightPaw-Lizard1fil662 {fill:url(#RightPaw-Lizard1id362)}
.RightPaw-Lizard1fil32 {fill:black;fill-rule:nonzero}
.LeftHand-Lizard4fil667 {fill:url(#LeftHand-Lizard4id837)}
.LeftHand-Lizard4fil14 {fill:black;fill-opacity:0.200000}
.LeftHand-Lizard4fil628 {fill:white;fill-opacity:0.301961}
.LeftHand-Lizard4fil32 {fill:black;fill-rule:nonzero}
.LeftPaw-Lizard1fil672 {fill:url(#LeftPaw-Lizard1id495)}
.LeftPaw-Lizard1fil32 {fill:black;fill-rule:nonzero}
.Body-Lizard5fil674 {fill:url(#Body-Lizard5id282)}
.Body-Lizard5fil682 {fill:url(#Body-Lizard5id455)}
.Body-Lizard5fil14 {fill:black;fill-opacity:0.200000}
.Body-Lizard5fil32 {fill:black;fill-rule:nonzero}
.Body-Lizard5fil683 {fill:url(#Body-Lizard5id755)}
.Body-Lizard5fil684 {fill:url(#Body-Lizard5id625)}
.Head-Lizard2fil690 {fill:url(#Head-Lizard2id275)}
.Head-Lizard2fil688 {fill:url(#Head-Lizard2id1040)}
.Head-Lizard2fil14 {fill:black;fill-opacity:0.200000}
.Head-Lizard2fil691 {fill:url(#Head-Lizard2id271)}
.Head-Lizard2fil32 {fill:black;fill-rule:nonzero}
.Mouth-Lizard0fil708 {fill:url(#Mouth-Lizard0id185)}
.Mouth-Lizard0fil22 {fill:none}
.Mouth-Lizard0str0 {stroke:black;stroke-width:150;stroke-linecap:round;stroke-linejoin:round}
.Mouth-Lizard0str11 {stroke:#2B2A29;stroke-width:150;stroke-linecap:round;stroke-linejoin:round}
.Eyes-Lizard6fil14 {fill:black;fill-opacity:0.200000}
.Eyes-Lizard6fil764 {fill:url(#Eyes-Lizard6id65)}
.Eyes-Lizard6fil765 {fill:url(#Eyes-Lizard6id14)}
.Eyes-Lizard6fil766 {fill:url(#Eyes-Lizard6id689)}
.Eyes-Lizard6fil152 {fill:white}
.Eyes-Lizard6fil740 {fill:black;fill-opacity:0.400000}
.Eyes-Lizard6fil767 {fill:url(#Eyes-Lizard6id117)}
.Eyes-Lizard6fil768 {fill:url(#Eyes-Lizard6id4)}
.Eyes-Lizard6fil769 {fill:url(#Eyes-Lizard6id702)}
.Eyes-Lizard6fil22 {fill:none}
.Eyes-Lizard6str0 {stroke:black;stroke-width:150;stroke-linecap:round;stroke-linejoin:round}
.Moustache-Lizard0fil22 {fill:none}
.Nose-Lizard0fil100 {fill:black}
.HatUshanka-Mediumfil31new {fill:white;fill-opacity:0.501961}
.HatUshanka-Mediumfil14new {fill:black;fill-opacity:0.200000}
.HatUshanka-Mediumfil683new {fill:url(#HatUshanka-Mediumid572new)}
.HatUshanka-Mediumfil685new {fill:url(#HatUshanka-Mediumid440new)}
.HatUshanka-Mediumfil679new {fill:#643200}
.HatUshanka-Mediumstr0new {stroke:black;stroke-width:150;stroke-linecap:round;stroke-linejoin:round}
.HatUshanka-Mediumfil680new {fill:url(#HatUshanka-Mediumid136new)}
.HatUshanka-Mediumstr6new {stroke:black;stroke-width:150}
.HatUshanka-Mediumfil33new {fill:none}
.HatUshanka-Mediumfil681new {fill:url(#HatUshanka-Mediumid553new)}
.HatUshanka-Mediumfil682new {fill:url(#HatUshanka-Mediumid574new)}
.HatUshanka-Mediumfil684new {fill:url(#HatUshanka-Mediumid702new);fill-rule:nonzero}
.WeaponFlySwatterBack-Mediumfil1 {fill:black;fill-rule:nonzero;fill-opacity:0.200000}
.WeaponFlySwatterBack-Mediumfil0 {fill:url(#WeaponFlySwatterBack-Mediumid26);fill-rule:nonzero}
.WeaponFlySwatterBack-Mediumstr0 {stroke:black;stroke-width:150;stroke-linecap:round;stroke-linejoin:round}
.WeaponFlySwatter-Mediumfil3 {fill:black;fill-opacity:0.200000}
.WeaponFlySwatter-Mediumfil4 {fill:url(#WeaponFlySwatter-Mediumid24);fill-rule:nonzero}
.WeaponFlySwatter-Mediumfil1 {fill:black;fill-rule:nonzero;fill-opacity:0.200000}
.WeaponFlySwatter-Mediumfil2 {fill:url(#WeaponFlySwatter-Mediumid0)}
.WeaponFlySwatter-Mediumstr0 {stroke:black;stroke-width:150;stroke-linecap:round;stroke-linejoin:round}
.WeaponFlySwatter-Mediumfil5 {fill:none;fill-rule:nonzero}
.WeaponFlySwatter-Mediumstr1 {stroke:black;stroke-width:150}
.AccessoryTeddyfil111 {fill:url(#AccessoryTeddyid56)}
.AccessoryTeddyfil3 {fill:black;fill-rule:nonzero}
.AccessoryTeddyfil112 {fill:url(#AccessoryTeddyid75)}
.AccessoryTeddyfil19 {fill:black;fill-opacity:0.501961}
.AccessoryTeddyfil115 {fill:url(#AccessoryTeddyid69)}
.AccessoryTeddyfil117 {fill:url(#AccessoryTeddyid31)}
.AccessoryTeddyfil119 {fill:url(#AccessoryTeddyid5)}
.AccessoryTeddyfil120 {fill:url(#AccessoryTeddyid36)}
.AccessoryTeddyfil121 {fill:url(#AccessoryTeddyid41)}
.AccessoryTeddyfil15 {fill:black}
.AccessoryTeddyfil14 {fill:white}
.AccessoryTeddyfil109 {fill:url(#AccessoryTeddyid76)}
.AccessoryTeddystr1 {stroke:black;stroke-width:150}
.AccessoryTeddyfil110 {fill:url(#AccessoryTeddyid88)}
.AccessoryTeddyfil113 {fill:#B88531}
.AccessoryTeddyfil114 {fill:url(#AccessoryTeddyid10)}
.AccessoryTeddyfil116 {fill:url(#AccessoryTeddyid29)}
.AccessoryTeddyfil118 {fill:url(#AccessoryTeddyid27)}
.AccessoryTeddyfil2 {fill:none}
.AccessoryTeddystr8 {stroke:black;stroke-width:100;stroke-linecap:round;stroke-linejoin:round}
.NecklaceCapeBlueBack-Mediumfil3 {fill:black;fill-opacity:0.301961}
.NecklaceCapeBlueBack-Mediumfil4 {fill:black;fill-opacity:0.200000}
.NecklaceCapeBlueBack-Mediumfil31 {fill:url(#NecklaceCapeBlueBack-Mediumid40);fill-rule:nonzero}
.NecklaceCapeBlueBack-Mediumfil14 {fill:black;fill-rule:nonzero}
.NecklaceCapeBlueBack-Mediumfil25 {fill:#020E27}
.NecklaceCapeBlueBack-Mediumstr0 {stroke:black;stroke-width:150;stroke-linecap:round;stroke-linejoin:round}
.NecklaceCapeBlueBack-Mediumfil30 {fill:url(#NecklaceCapeBlueBack-Mediumid1)}
.NecklaceCapeBlueBack-Mediumfil2 {fill:black;fill-opacity:0.501961}
.NecklaceCapeBlueBack-Mediumstr2 {stroke:black;stroke-width:150;stroke-linecap:round;stroke-linejoin:round;stroke-opacity:0.501961}
.NecklaceCapeBlue-Mediumfil33 {fill:url(#NecklaceCapeBlue-Mediumid0)}
.NecklaceCapeBlue-Mediumfil14 {fill:black;fill-rule:nonzero}
.NecklaceCapeBlue-Mediumfil10 {fill:black;fill-opacity:0.400000}
.NecklaceCapeBlue-Mediumfil11 {fill:white;fill-opacity:0.800000}
.NecklaceCapeBlue-Mediumfil32 {fill:url(#NecklaceCapeBlue-Mediumid7)}
.NecklaceCapeBlue-Mediumstr0 {stroke:black;stroke-width:150;stroke-linecap:round;stroke-linejoin:round}
.NecklaceCapeBlue-Mediumfil17 {fill:url(#NecklaceCapeBlue-Mediumid31)}
.NecklaceCapeBlue-Mediumstr1 {stroke:black;stroke-width:150}
.NecklaceCapeBlue-Mediumfil18 {fill:url(#NecklaceCapeBlue-Mediumid37)}
</style><linearGradient gradientUnits="objectBoundingBox" id="HairBack-Lizard2id822" x1="27.0587%" x2="72.9413%" xlink:href="#HairBack-Lizard2id78" y1="78.7196%" y2="21.2781%">
  </linearGradient><linearGradient gradientUnits="objectBoundingBox" id="HairBack-Lizard2id1003" x1="45.9175%" x2="54.0825%" xlink:href="#HairBack-Lizard2id78" y1="90.056%" y2="9.94402%">
  </linearGradient><linearGradient gradientUnits="userSpaceOnUse" id="HairBack-Lizard2id102" x1="10942" x2="8559.36" y1="15613.5" y2="20378.7">
   <stop offset="0" style="stop-opacity:1; stop-color:#50e051"/>
   <stop offset="1" style="stop-opacity:1; stop-color:#fafcff"/>
  </linearGradient><linearGradient gradientUnits="objectBoundingBox" id="HairBack-Lizard2id821" x1="72.9413%" x2="27.0587%" xlink:href="#HairBack-Lizard2id78" y1="78.7196%" y2="21.2781%">
  </linearGradient><linearGradient gradientUnits="objectBoundingBox" id="HairBack-Lizard2id840" x1="54.0825%" x2="45.9175%" xlink:href="#HairBack-Lizard2id78" y1="90.056%" y2="9.94402%">
  </linearGradient><linearGradient gradientUnits="userSpaceOnUse" id="HairBack-Lizard2id295" x1="16381.1" x2="18763.7" xlink:href="#HairBack-Lizard2id102" y1="15613.5" y2="20378.7">
  </linearGradient><linearGradient gradientUnits="userSpaceOnUse" id="Tail-Lizard6id241" x1="20562.4" x2="15001.6" y1="15850.2" y2="24554.1">
   <stop offset="0" style="stop-opacity:1; stop-color:#6ec7ff"/>
   <stop offset="0.501961" style="stop-opacity:1; stop-color:#50e051"/>
   <stop offset="1" style="stop-opacity:1; stop-color:#3aba3a"/>
  </linearGradient><linearGradient gradientUnits="userSpaceOnUse" id="RightFoot-Lizard0id220" x1="16306.2" x2="16825.8" y1="23871.7" y2="25810.9">
   <stop offset="0" style="stop-opacity:1; stop-color:#7ffa7f"/>
   <stop offset="0.101961" style="stop-opacity:1; stop-color:#7ffa7f"/>
   <stop offset="1" style="stop-opacity:1; stop-color:#fafcff"/>
  </linearGradient><linearGradient gradientUnits="userSpaceOnUse" id="RightLeg-Lizard0id33" x1="15490.3" x2="15490.3" xlink:href="#RightLeg-Lizard0id17" y1="24310" y2="21166.6">
  </linearGradient><linearGradient gradientUnits="userSpaceOnUse" id="LeftFoot-Lizard0id444" x1="11057.6" x2="10538" xlink:href="#LeftFoot-Lizard0id220" y1="23871.7" y2="25810.9">
  </linearGradient><linearGradient gradientUnits="userSpaceOnUse" id="LeftLeg-Lizard0id17" x1="11873.5" x2="11873.5" y1="24310" y2="21166.6">
   <stop offset="0" style="stop-opacity:1; stop-color:#7ffa7f"/>
   <stop offset="0.431373" style="stop-opacity:1; stop-color:#7ffa7f"/>
   <stop offset="1" style="stop-opacity:1; stop-color:#50e051"/>
  </linearGradient><linearGradient gradientUnits="objectBoundingBox" id="RightHand-Lizard4id333" x1="39.0063%" x2="60.9934%" y1="1.86633%" y2="98.1334%">
   <stop offset="0" style="stop-opacity:1; stop-color:#3aba3a"/>
   <stop offset="0.788235" style="stop-opacity:1; stop-color:#50e051"/>
   <stop offset="1" style="stop-opacity:1; stop-color:#50e051"/>
  </linearGradient><linearGradient gradientUnits="userSpaceOnUse" id="RightPaw-Lizard1id362" x1="17833.9" x2="18955.5" y1="19888.5" y2="21831.2">
   <stop offset="0" style="stop-opacity:1; stop-color:#50e051"/>
   <stop offset="0.25098" style="stop-opacity:1; stop-color:#50e051"/>
   <stop offset="1" style="stop-opacity:1; stop-color:#6ec7ff"/>
  </linearGradient><linearGradient gradientUnits="objectBoundingBox" id="LeftHand-Lizard4id837" x1="66.4859%" x2="33.5144%" xlink:href="#LeftHand-Lizard4id333" y1="1.74592%" y2="98.2538%">
  </linearGradient><linearGradient gradientUnits="userSpaceOnUse" id="LeftPaw-Lizard1id495" x1="9529.97" x2="8408.35" xlink:href="#LeftPaw-Lizard1id362" y1="19888.5" y2="21831.2">
  </linearGradient><linearGradient gradientUnits="objectBoundingBox" id="Body-Lizard5id282" x1="50%" x2="50%" y1="0%" y2="100%">
   <stop offset="0" style="stop-opacity:1; stop-color:#3aba3a"/>
   <stop offset="0.501961" style="stop-opacity:1; stop-color:#50e051"/>
   <stop offset="1" style="stop-opacity:1; stop-color:#7ffa7f"/>
  </linearGradient><linearGradient gradientUnits="userSpaceOnUse" id="Body-Lizard5id455" x1="13681.9" x2="13681.9" y1="17688.3" y2="23042.1">
   <stop offset="0" style="stop-opacity:1; stop-color:#3aba3a"/>
   <stop offset="0.329412" style="stop-opacity:1; stop-color:#3aba3a"/>
   <stop offset="1" style="stop-opacity:1; stop-color:#7ffa7f"/>
  </linearGradient><linearGradient gradientUnits="userSpaceOnUse" id="Body-Lizard5id755" x1="13681.9" x2="13681.9" y1="22882.1" y2="17688.3">
   <stop offset="0" style="stop-opacity:1; stop-color:#fafcff"/>
   <stop offset="0.85098" style="stop-opacity:1; stop-color:#e1e8f2"/>
   <stop offset="1" style="stop-opacity:1; stop-color:#e1e8f2"/>
  </linearGradient><linearGradient gradientUnits="userSpaceOnUse" id="Body-Lizard5id625" x1="13681.9" x2="13681.9" y1="22580.3" y2="18418.3">
   <stop offset="0" style="stop-opacity:1; stop-color:#fafcff"/>
   <stop offset="0.329412" style="stop-opacity:1; stop-color:#e1e8f2"/>
   <stop offset="1" style="stop-opacity:1; stop-color:#e1e8f2"/>
  </linearGradient><linearGradient gradientUnits="userSpaceOnUse" id="Head-Lizard2id275" x1="13681.9" x2="13681.9" xlink:href="#Head-Lizard2id122" y1="17795.9" y2="7794.35">
  </linearGradient><radialGradient cx="13653.8" cy="14622.1" fx="13653.8" fy="14622.1" gradientTransform="matrix(1 -0 -0 0.8 0 2924)" gradientUnits="userSpaceOnUse" id="Head-Lizard2id1040" r="3500">
   <stop offset="0" style="stop-opacity:1; stop-color:#6ec7ff"/>
   <stop offset="1" style="stop-opacity:1; stop-color:#50e051"/>
  </radialGradient><linearGradient gradientUnits="userSpaceOnUse" id="Head-Lizard2id271" x1="13543.2" x2="13543.2" xlink:href="#Head-Lizard2id197" y1="13878.5" y2="8882.37">
  </linearGradient><linearGradient gradientUnits="objectBoundingBox" id="Mouth-Lizard0id185" x1="50%" x2="50%" xlink:href="#Mouth-Lizard0id133" y1="100%" y2="0%">
  </linearGradient><linearGradient gradientUnits="userSpaceOnUse" id="Eyes-Lizard6id65" x1="10105.7" x2="9931.95" xlink:href="#Eyes-Lizard6id0" y1="14962.5" y2="11648">
  </linearGradient><linearGradient gradientUnits="userSpaceOnUse" id="Eyes-Lizard6id14" x1="10018.8" x2="10018.8" xlink:href="#Eyes-Lizard6id4" y1="14939.8" y2="11666.7">
  </linearGradient><linearGradient gradientUnits="userSpaceOnUse" id="Eyes-Lizard6id689" x1="10468.6" x2="10468.6" xlink:href="#Eyes-Lizard6id384" y1="11666.5" y2="14456.7">
  </linearGradient><linearGradient gradientUnits="userSpaceOnUse" id="Eyes-Lizard6id117" x1="17258.2" x2="17431.9" xlink:href="#Eyes-Lizard6id0" y1="14962.5" y2="11648">
  </linearGradient><linearGradient gradientUnits="userSpaceOnUse" id="Eyes-Lizard6id702" x1="16976.8" x2="16976.8" xlink:href="#Eyes-Lizard6id384" y1="11666.5" y2="14456.7">
  </linearGradient><linearGradient gradientUnits="userSpaceOnUse" id="HatUshanka-Mediumid572new" x1="13613" x2="13289.9" y1="12530.1" y2="6043.75">
   <stop offset="0" style="stop-opacity:1; stop-color:#C9AD91"/>
   <stop offset="0.509804" style="stop-opacity:1; stop-color:#EBD1B7"/>
   <stop offset="1" style="stop-opacity:1; stop-color:#F2DFCB"/>
  </linearGradient><linearGradient gradientUnits="userSpaceOnUse" id="HatUshanka-Mediumid440new" x1="13217.6" x2="13567.9" y1="8259.32" y2="10477.9">
   <stop offset="0" style="stop-opacity:1; stop-color:red"/>
   <stop offset="1" style="stop-opacity:1; stop-color:#870000"/>
  </linearGradient><linearGradient gradientUnits="userSpaceOnUse" id="HatUshanka-Mediumid136new" x1="18968.1" x2="23659.1" y1="11787.9" y2="12257">
   <stop offset="0" style="stop-opacity:1; stop-color:#C9AD91"/>
   <stop offset="0.560784" style="stop-opacity:1; stop-color:#EBD1B7"/>
   <stop offset="1" style="stop-opacity:1; stop-color:#F2DFCB"/>
  </linearGradient><linearGradient gradientUnits="userSpaceOnUse" id="HatUshanka-Mediumid553new" x1="7438.35" x2="3427.57" xlink:href="#HatUshanka-Mediumid136new" y1="12658.2" y2="11303.2">
  </linearGradient><linearGradient gradientUnits="userSpaceOnUse" id="HatUshanka-Mediumid574new" x1="13447.3" x2="13294.7" y1="12378.6" y2="5601.47">
   <stop offset="0" style="stop-opacity:1; stop-color:#5C3005"/>
   <stop offset="1" style="stop-opacity:1; stop-color:#DBA777"/>
  </linearGradient><linearGradient gradientUnits="userSpaceOnUse" id="HatUshanka-Mediumid702new" x1="12852.6" x2="13935.1" y1="10469.1" y2="8266.76">
   <stop offset="0" style="stop-opacity:1; stop-color:#AB8900"/>
   <stop offset="0.321569" style="stop-opacity:1; stop-color:#FBE773"/>
   <stop offset="0.631373" style="stop-opacity:1; stop-color:white"/>
   <stop offset="0.8" style="stop-opacity:1; stop-color:#FDE976"/>
   <stop offset="1" style="stop-opacity:1; stop-color:#DEA700"/>
  </linearGradient><linearGradient gradientUnits="userSpaceOnUse" id="WeaponFlySwatterBack-Mediumid26" x1="7745.86" x2="9181.7" xlink:href="#WeaponFlySwatterBack-Mediumid24" y1="21810.6" y2="20301.7">
  </linearGradient><linearGradient gradientUnits="userSpaceOnUse" id="WeaponFlySwatter-Mediumid24" x1="12160.4" x2="14712.1" y1="25216.2" y2="22534.8">
   <stop offset="0" style="stop-opacity:1; stop-color:#008011"/>
   <stop offset="1" style="stop-opacity:1; stop-color:#00BD55"/>
  </linearGradient><linearGradient gradientUnits="userSpaceOnUse" id="WeaponFlySwatter-Mediumid0" x1="9457.05" x2="12008.3" y1="22428.9" y2="22293.2">
   <stop offset="0" style="stop-opacity:1; stop-color:#787878"/>
   <stop offset="1" style="stop-opacity:1; stop-color:#D6D6D6"/>
  </linearGradient><linearGradient gradientUnits="userSpaceOnUse" id="AccessoryTeddyid56" x1="5274.88" x2="5544.57" y1="25442.4" y2="22421.3">
   <stop offset="0" style="stop-opacity:1; stop-color:#B88531"/>
   <stop offset="0.14902" style="stop-opacity:1; stop-color:#99672C"/>
   <stop offset="0.639216" style="stop-opacity:1; stop-color:#9C6E24"/>
   <stop offset="1" style="stop-opacity:1; stop-color:#523100"/>
  </linearGradient><linearGradient gradientUnits="userSpaceOnUse" id="AccessoryTeddyid75" x1="5571.12" x2="5255.06" xlink:href="#AccessoryTeddyid5" y1="22926.7" y2="24922">
  </linearGradient><linearGradient gradientUnits="userSpaceOnUse" id="AccessoryTeddyid69" x1="5447.62" x2="5256.22" xlink:href="#AccessoryTeddyid5" y1="21348.3" y2="22556.4">
  </linearGradient><linearGradient gradientUnits="userSpaceOnUse" id="AccessoryTeddyid31" x1="4032.54" x2="3912.76" xlink:href="#AccessoryTeddyid5" y1="24354.6" y2="25110.8">
  </linearGradient><linearGradient gradientUnits="userSpaceOnUse" id="AccessoryTeddyid36" x1="4875.13" x2="5044.37" y1="21255" y2="20829.7">
   <stop offset="0" style="stop-opacity:1; stop-color:#5C3600"/>
   <stop offset="0.509804" style="stop-opacity:1; stop-color:#2C160A"/>
   <stop offset="1" style="stop-opacity:1; stop-color:#3F261A"/>
  </linearGradient><linearGradient gradientUnits="userSpaceOnUse" id="AccessoryTeddyid41" x1="5933.75" x2="5890.77" xlink:href="#AccessoryTeddyid36" y1="21325.3" y2="20867.1">
  </linearGradient><linearGradient gradientUnits="userSpaceOnUse" id="AccessoryTeddyid76" x1="7386.63" x2="5965.55" xlink:href="#AccessoryTeddyid56" y1="24047.7" y2="22751.4">
  </linearGradient><linearGradient gradientUnits="userSpaceOnUse" id="AccessoryTeddyid88" x1="3357.21" x2="4839.21" xlink:href="#AccessoryTeddyid56" y1="24050.5" y2="22671">
  </linearGradient><linearGradient gradientUnits="userSpaceOnUse" id="AccessoryTeddyid10" x1="4764.52" x2="6162.34" y1="22575.4" y2="20450.7">
   <stop offset="0" style="stop-opacity:1; stop-color:#B88531"/>
   <stop offset="0.14902" style="stop-opacity:1; stop-color:#99672C"/>
   <stop offset="0.501961" style="stop-opacity:1; stop-color:#9C6E24"/>
   <stop offset="1" style="stop-opacity:1; stop-color:#FFC44F"/>
  </linearGradient><linearGradient gradientUnits="userSpaceOnUse" id="AccessoryTeddyid29" x1="3813.38" x2="4245.66" xlink:href="#AccessoryTeddyid27" y1="24177.4" y2="25442.6">
  </linearGradient><linearGradient gradientUnits="userSpaceOnUse" id="NecklaceCapeBlueBack-Mediumid40" x1="4519.1" x2="6360.56" xlink:href="#NecklaceCapeBlueBack-Mediumid4" y1="17697.6" y2="22165.4">
  </linearGradient><linearGradient gradientUnits="userSpaceOnUse" id="NecklaceCapeBlueBack-Mediumid1" x1="5802.55" x2="15394.4" y1="24344" y2="17117.2">
   <stop offset="0" style="stop-opacity:1; stop-color:#0012B0"/>
   <stop offset="0.368627" style="stop-opacity:1; stop-color:#0075B8"/>
   <stop offset="0.709804" style="stop-opacity:1; stop-color:#011A63"/>
   <stop offset="1" style="stop-opacity:1; stop-color:#100029"/>
  </linearGradient><linearGradient gradientUnits="userSpaceOnUse" id="NecklaceCapeBlue-Mediumid0" x1="9527.52" x2="11718.5" y1="17324.6" y2="18089.7">
   <stop offset="0" style="stop-opacity:1; stop-color:#0340A9"/>
   <stop offset="0.25098" style="stop-opacity:1; stop-color:#0341AA"/>
   <stop offset="0.568627" style="stop-opacity:1; stop-color:#0D8BE6"/>
   <stop offset="1" style="stop-opacity:1; stop-color:#200049"/>
  </linearGradient><linearGradient gradientUnits="userSpaceOnUse" id="NecklaceCapeBlue-Mediumid7" x1="17530.6" x2="12330.9" y1="17814.8" y2="18031.5">
   <stop offset="0" style="stop-opacity:1; stop-color:#0067B0"/>
   <stop offset="0.270588" style="stop-opacity:1; stop-color:#006BB8"/>
   <stop offset="0.768627" style="stop-opacity:1; stop-color:#011A63"/>
   <stop offset="1" style="stop-opacity:1; stop-color:#100029"/>
  </linearGradient><linearGradient gradientUnits="objectBoundingBox" id="NecklaceCapeBlue-Mediumid31" x1="82.4142%" x2="17.5858%" xlink:href="#NecklaceCapeBlue-Mediumid30" y1="12.6218%" y2="87.3782%">
  </linearGradient><linearGradient gradientUnits="objectBoundingBox" id="NecklaceCapeBlue-Mediumid37" x1="82.4142%" x2="17.5858%" xlink:href="#NecklaceCapeBlue-Mediumid30" y1="12.6218%" y2="87.3782%">
  </linearGradient><linearGradient gradientUnits="objectBoundingBox" id="HairBack-Lizard2id78" x1="95.8017%" x2="4.19832%" y1="69.3451%" y2="30.6549%">
   <stop offset="0" style="stop-opacity:1; stop-color:#E0D0BF"/>
   <stop offset="1" style="stop-opacity:1; stop-color:#B5987B"/>
  </linearGradient><linearGradient gradientUnits="userSpaceOnUse" id="RightLeg-Lizard0id17" x1="11873.5" x2="11873.5" y1="24310" y2="21166.6">
   <stop offset="0" style="stop-opacity:1; stop-color:#7ffa7f"/>
   <stop offset="0.431373" style="stop-opacity:1; stop-color:#7ffa7f"/>
   <stop offset="1" style="stop-opacity:1; stop-color:#50e051"/>
  </linearGradient><linearGradient gradientUnits="userSpaceOnUse" id="LeftFoot-Lizard0id220" x1="16306.2" x2="16825.8" y1="23871.7" y2="25810.9">
   <stop offset="0" style="stop-opacity:1; stop-color:#7ffa7f"/>
   <stop offset="0.101961" style="stop-opacity:1; stop-color:#7ffa7f"/>
   <stop offset="1" style="stop-opacity:1; stop-color:#fafcff"/>
  </linearGradient><linearGradient gradientUnits="objectBoundingBox" id="LeftHand-Lizard4id333" x1="39.0063%" x2="60.9934%" y1="1.86633%" y2="98.1334%">
   <stop offset="0" style="stop-opacity:1; stop-color:#3aba3a"/>
   <stop offset="0.788235" style="stop-opacity:1; stop-color:#50e051"/>
   <stop offset="1" style="stop-opacity:1; stop-color:#50e051"/>
  </linearGradient><linearGradient gradientUnits="userSpaceOnUse" id="LeftPaw-Lizard1id362" x1="17833.9" x2="18955.5" y1="19888.5" y2="21831.2">
   <stop offset="0" style="stop-opacity:1; stop-color:#50e051"/>
   <stop offset="0.25098" style="stop-opacity:1; stop-color:#50e051"/>
   <stop offset="1" style="stop-opacity:1; stop-color:#6ec7ff"/>
  </linearGradient><linearGradient gradientUnits="userSpaceOnUse" id="Head-Lizard2id122" x1="13681.9" x2="13681.9" y1="17788.8" y2="7794.35">
   <stop offset="0" style="stop-opacity:1; stop-color:#3aba3a"/>
   <stop offset="0.219608" style="stop-opacity:1; stop-color:#50e051"/>
   <stop offset="0.639216" style="stop-opacity:1; stop-color:#50e051"/>
   <stop offset="1" style="stop-opacity:1; stop-color:#7ffa7f"/>
  </linearGradient><linearGradient gradientUnits="userSpaceOnUse" id="Head-Lizard2id197" x1="10977.1" x2="11533.4" y1="22223.4" y2="24299.5">
   <stop offset="0" style="stop-opacity:1; stop-color:#4cabe6"/>
   <stop offset="0.85098" style="stop-opacity:1; stop-color:#6ec7ff"/>
   <stop offset="1" style="stop-opacity:1; stop-color:#6ec7ff"/>
  </linearGradient><linearGradient gradientUnits="userSpaceOnUse" id="Mouth-Lizard0id133" x1="13681.9" x2="13681.9" y1="17844" y2="15520.7">
   <stop offset="0" style="stop-opacity:1; stop-color:#e1e8f2"/>
   <stop offset="1" style="stop-opacity:1; stop-color:#fafcff"/>
  </linearGradient><linearGradient gradientUnits="objectBoundingBox" id="Eyes-Lizard6id0" x1="50.0001%" x2="50.0001%" y1="100%" y2="0.000230848%">
   <stop offset="0" style="stop-opacity:1; stop-color:#805900"/>
   <stop offset="0.388235" style="stop-opacity:1; stop-color:#805900"/>
   <stop offset="1" style="stop-opacity:1; stop-color:black"/>
  </linearGradient><linearGradient gradientUnits="userSpaceOnUse" id="Eyes-Lizard6id4" x1="17345" x2="17345" y1="14939.8" y2="11666.7">
   <stop offset="0" style="stop-opacity:1; stop-color:#805900"/>
   <stop offset="0.168627" style="stop-opacity:1; stop-color:#ffc029"/>
   <stop offset="0.541176" style="stop-opacity:1; stop-color:#805900"/>
   <stop offset="1" style="stop-opacity:1; stop-color:black"/>
  </linearGradient><linearGradient gradientUnits="userSpaceOnUse" id="Eyes-Lizard6id384" x1="16417.8" x2="16417.8" y1="11784.3" y2="14068.5">
   <stop offset="0" style="stop-opacity:1; stop-color:black"/>
   <stop offset="0.45" style="stop-opacity:1; stop-color:black"/>
   <stop offset="1" style="stop-opacity:1; stop-color:#664700"/>
  </linearGradient><linearGradient gradientUnits="userSpaceOnUse" id="WeaponFlySwatterBack-Mediumid24" x1="12160.4" x2="14712.1" y1="25216.2" y2="22534.8">
   <stop offset="0" style="stop-opacity:1; stop-color:#008011"/>
   <stop offset="1" style="stop-opacity:1; stop-color:#00BD55"/>
  </linearGradient><linearGradient gradientUnits="userSpaceOnUse" id="AccessoryTeddyid5" x1="6771.67" x2="6651.69" y1="24347.4" y2="25104.8">
   <stop offset="0" style="stop-opacity:1; stop-color:#F2D996"/>
   <stop offset="1" style="stop-opacity:1; stop-color:#C79A45"/>
  </linearGradient><linearGradient gradientUnits="userSpaceOnUse" id="AccessoryTeddyid27" x1="7031.19" x2="6244.99" y1="24298.4" y2="25352.6">
   <stop offset="0" style="stop-opacity:1; stop-color:#B88531"/>
   <stop offset="0.329412" style="stop-opacity:1; stop-color:#99672C"/>
   <stop offset="0.541176" style="stop-opacity:1; stop-color:#9C6E24"/>
   <stop offset="1" style="stop-opacity:1; stop-color:#523100"/>
  </linearGradient><linearGradient gradientUnits="userSpaceOnUse" id="NecklaceCapeBlueBack-Mediumid4" x1="928.05" x2="7023.91" y1="19047.7" y2="21436.7">
   <stop offset="0" style="stop-opacity:1; stop-color:#006DCC"/>
   <stop offset="0.270588" style="stop-opacity:1; stop-color:#0D8BE6"/>
   <stop offset="0.529412" style="stop-opacity:1; stop-color:#033FA8"/>
   <stop offset="1" style="stop-opacity:1; stop-color:#083E9B"/>
  </linearGradient><linearGradient gradientUnits="objectBoundingBox" id="NecklaceCapeBlue-Mediumid30" x1="82.4142%" x2="17.5858%" y1="12.6218%" y2="87.3782%">
   <stop offset="0" style="stop-opacity:1; stop-color:#B3C0CC"/>
   <stop offset="0.270588" style="stop-opacity:1; stop-color:#D8DDE6"/>
   <stop offset="0.541176" style="stop-opacity:1; stop-color:#909DA8"/>
   <stop offset="1" style="stop-opacity:1; stop-color:#DBF5FF"/>
  </linearGradient></defs><g id="HairBack-Lizard2">
 <animateTransform additive="sum" attributeName="transform" dur="10" repeatCount="indefinite" type="translate" values="0;0 200;0;0 200;0;0 200;0;0 200;0"/>
  <metadata id="CorelCorpID_314Corel-Layer"/>
  <path class="HairBack-Lizard2fil605 HairBack-Lizard2str5" d="M6894 19094c-46,79 -70,407 22,435 93,29 160,-205 256,-285 -73,-84 -208,-136 -278,-150z" style="fill:#8bf7d2"/>
  <path class="HairBack-Lizard2fil606 HairBack-Lizard2str5" d="M8583 20396c-17,90 70,407 166,403 97,-5 90,-247 146,-355 -96,-55 -242,-58 -312,-48z" style="fill:#d4076a"/>
  <path class="HairBack-Lizard2fil611 HairBack-Lizard2str0" d="M8693 15387c-686,786 -1626,2252 -1774,3785 64,4 140,45 183,97 1367,-1133 1226,355 1517,1152 64,-4 186,28 232,54 876,-1799 1701,-1719 2140,130 146,-1759 1446,-1979 1592,-3738 -1297,-493 -2594,-986 -3890,-1480z" style="fill:#5f266f"/>
  <path class="HairBack-Lizard2fil14" d="M8109 16235c-344,498 -1145,1831 -1159,2886 0,44 37,4 39,48 232,-986 893,-2127 1626,-1754 379,193 -536,1366 60,3009 -250,-3126 1616,-2488 1546,-1220 239,118 591,555 752,1345 49,-1052 1276,-2360 1410,-2809 -167,-651 -3612,-1344 -4274,-1505z" style="fill:#8707f9"/>
  <path class="HairBack-Lizard2fil608 HairBack-Lizard2str5" d="M20429 19094c46,79 70,407 -22,435 -93,29 -160,-205 -256,-285 73,-84 209,-136 278,-150z" style="fill:#85291c"/>
  <path class="HairBack-Lizard2fil609 HairBack-Lizard2str5" d="M18740 20396c17,90 -70,407 -166,403 -97,-5 -90,-247 -146,-355 96,-55 242,-58 312,-48z" style="fill:#861c71"/>
  <path class="HairBack-Lizard2fil612 HairBack-Lizard2str0" d="M18630 15387c686,786 1626,2252 1774,3785 -64,4 -140,45 -183,97 -1367,-1133 -1226,355 -1517,1152 -64,-4 -186,28 -232,54 -876,-1799 -1700,-1719 -2140,130 -146,-1759 -1446,-1979 -1592,-3738 1297,-493 2594,-986 3890,-1480z" style="fill:#32d45b"/>
  <path class="HairBack-Lizard2fil14" d="M19214 16235c344,498 1145,1831 1159,2886 0,44 -37,4 -39,48 -232,-986 -893,-2127 -1626,-1754 -379,193 536,1366 -60,3009 250,-3126 -1616,-2488 -1546,-1220 -239,118 -591,555 -752,1345 -49,-1052 -1276,-2360 -1409,-2809 166,-651 3611,-1344 4273,-1505z" style="fill:#d29a96"/>
 </g><g id="NecklaceCapeBlueBack-Medium">
  <animateTransform additive="sum" attributeName="transform" dur="10" repeatCount="indefinite" type="translate" values="0;0 200;0;0 200;0;0 200;0;0 200;0"/>
  <metadata id="CorelCorpID_8Corel-Layer"/>
  <g id="_1834010021856">
   <g>
    <polygon class="NecklaceCapeBlueBack-Mediumfil25 NecklaceCapeBlueBack-Mediumstr0" points="8345,22996 7275,24229 6804,23598 "/>
    <path class="NecklaceCapeBlueBack-Mediumfil30 NecklaceCapeBlueBack-Mediumstr0" d="M2979 19025c2533,160 2278,2523 4260,1413 771,-431 2189,-2086 2427,-2628 82,-76 1004,-817 1286,-825 97,-3 1408,590 1977,563 2633,-122 2971,-468 3275,-364 256,88 -6,337 449,377 497,44 850,58 939,190 354,529 1283,4208 -137,6383 -1889,-287 -1219,543 -2327,296 -534,-119 -651,-468 -910,-496 -521,-54 -356,348 -1427,83 -884,-219 -2036,-430 -3373,163 -800,356 -1105,-429 -1681,-539 -220,-42 -837,-86 -464,527 140,230 -1017,19 -1387,-216 -788,-503 -112,-731 -551,-1192 -647,-680 -1171,235 -1825,-318 -224,-188 -259,-534 -168,-1004 205,-1056 75,-2081 -363,-2413z" style="fill:#1b97fd"/>
    <path class="NecklaceCapeBlueBack-Mediumfil2 NecklaceCapeBlueBack-Mediumstr2" d="M2979 19025c2533,160 2278,2523 4260,1413 771,-431 2189,-2086 2427,-2628 82,-76 1004,-817 1286,-825 97,-3 1408,590 1977,563 2633,-122 2971,-468 3275,-364 256,88 -6,337 449,377 497,44 850,58 939,190 354,529 1283,4208 -137,6383 -1889,-287 -1219,543 -2327,296 -534,-119 -651,-468 -910,-496 -521,-54 -356,348 -1427,83 -884,-219 -2036,-430 -3373,163 -800,356 -1105,-429 -1681,-539 -220,-42 -837,-86 -464,527 140,230 -1017,19 -1387,-216 -788,-503 -112,-731 -551,-1192 -647,-680 -1171,235 -1825,-318 -224,-188 -259,-534 -168,-1004 205,-1056 75,-2081 -363,-2413z" style="fill:#b04599"/>
    <path class="NecklaceCapeBlueBack-Mediumfil3" d="M4053 22627c2107,-851 2456,-1340 3031,-1778 575,-439 1017,-916 1425,-1527 -443,478 -922,922 -1270,1116 -1982,1110 -1727,-1253 -4260,-1413 438,332 568,1357 363,2413 -91,470 -56,816 168,1004 190,161 369,197 543,185z" style="fill:#d22d7f"/>
    <path class="NecklaceCapeBlueBack-Mediumfil4" d="M16149 24181c1964,-1984 402,-4259 138,-6459 61,-12 123,-25 187,-37 458,-119 1029,-66 1118,66 354,529 1283,4208 -137,6383 -744,-113 -1091,-53 -1306,47zm-6958 -5761c473,-529 357,-342 475,-610 82,-76 112,-255 394,-264 31,-1 230,92 486,218 -138,2315 -3115,5673 -3318,5927 -190,88 130,503 0,563 -317,146 -1201,-217 -1342,-302 -417,-252 -429,-440 -408,-627 3110,-1766 3019,-2877 3713,-4905zm1846 -409c174,88 344,176 486,249 -773,1962 -1726,4431 -2105,5920 -587,261 -908,-92 -1264,-342 1852,-2054 2591,-4240 2883,-5827zm1215 431c704,-20 1246,-95 1762,-199 -303,1984 -733,4378 -1095,5804 -41,-9 -83,-19 -128,-30 -540,-133 -1178,-264 -1898,-211 1305,-2498 1470,-4200 1359,-5364zm2549 -379c239,-58 486,-120 755,-183 232,1841 684,4005 -1057,6208 -95,-79 -177,-143 -281,-154 -204,-21 -303,28 -412,79 1232,-2913 1287,-4779 995,-5950z" style="fill:#0cb60d"/>
   </g>
   <g>
    <path class="NecklaceCapeBlueBack-Mediumfil31" d="M9651 18259c-377,741 -1253,1968 -2151,2575 -652,440 -2153,1366 -3020,322 -922,-1109 -1802,-1055 -3252,-368 469,-1234 1903,-2437 3397,-1550 509,301 1442,2076 2891,922 761,-606 1418,-1286 1791,-1931l344 30z" style="fill:#e86b07"/>
    <path class="NecklaceCapeBlueBack-Mediumfil14" d="M9720 18285c-187,373 -504,875 -881,1350 -383,482 -834,948 -1297,1261 -330,223 -875,569 -1451,728 -591,163 -1211,130 -1669,-420 -446,-538 -880,-793 -1375,-831 -502,-38 -1073,144 -1787,482 -37,18 -82,2 -99,-35 -9,-20 -9,-41 -2,-60 63,-165 143,-330 237,-490 285,-480 705,-912 1204,-1169 503,-259 1086,-338 1690,-109 124,47 249,107 373,181 125,74 266,223 431,397 527,555 1311,1380 2376,531 503,-401 953,-821 1306,-1245 167,-201 319,-414 438,-616l164 15c-130,229 -298,469 -487,696 -361,434 -818,861 -1328,1267 -1172,934 -2012,50 -2577,-545 -157,-166 -292,-307 -399,-371 -117,-70 -234,-126 -350,-170 -560,-213 -1101,-138 -1569,102 -472,243 -871,655 -1143,1112 -57,96 -108,194 -153,293 656,-297 1197,-453 1686,-415 537,41 1004,313 1479,884 410,494 974,520 1514,371 554,-152 1085,-490 1407,-707 449,-304 890,-759 1264,-1230 354,-446 653,-915 837,-1271l161 14z" style="fill:#33a5a4"/>
   </g>
  </g>
 </g><g id="Tail-Lizard6">
  <metadata id="CorelCorpID_322Corel-Layer"/>
  <path class="Tail-Lizard6fil627 Tail-Lizard6str0" d="M11570 22345c342,1192 2113,2514 4454,2392 2079,-109 4147,-1381 3936,-4385 -67,-958 -92,-2057 813,-2493 754,-364 1630,13 1840,1044 154,761 -253,1347 -807,1426 -353,50 -794,-112 -887,-620 -61,-330 222,-923 717,-967 -743,-200 -1187,455 -1244,970 -100,890 549,1592 1453,1591 1144,-3 2417,-1040 2100,-2981 -367,-2247 -2754,-3319 -4904,-2239 -1434,720 -2057,2067 -2032,3721 22,1497 -647,2000 -2896,-200l-2543 2741z" style="fill:#dc3087"/>
  <path class="Tail-Lizard6fil14" d="M20384 19804c-47,846 588,1500 1461,1499 513,-1 1051,-211 1461,-616 -1327,626 -2586,423 -2922,-883z" style="fill:#1c72ac"/>
  <path class="Tail-Lizard6fil14" d="M20085 18625c123,-325 334,-596 688,-766 754,-364 1630,13 1840,1044 4,22 8,43 11,64 16,16 32,32 48,49 -58,-2097 -2472,-2005 -2679,-355 31,-12 62,-24 92,-36z" style="fill:#fa2c79"/>
  <path class="Tail-Lizard6fil14" d="M11751 22773c590,1058 2210,2072 4273,1964 1141,-60 2279,-470 3039,-1325 -2314,1134 -5237,948 -7312,-639z" style="fill:#ebe5c2"/>
  <path class="Tail-Lizard6fil628" d="M17726 22954c227,-219 564,-450 1000,-400 57,274 -2,705 -154,987 45,-494 -260,-707 -846,-587zm3903 -2490c-194,-37 -368,-89 -526,-4 15,162 163,378 328,456 -204,-302 -77,-439 198,-452zm1161 -290c-81,162 -124,318 -136,523 208,44 344,-16 584,-100 -277,7 -498,-98 -448,-423zm82 -749c-73,172 -107,424 -30,644 288,-16 489,-104 652,-288 -320,84 -627,-15 -622,-356zm738 -1594c19,203 26,493 -126,689 -325,-139 -431,-286 -587,-498 268,210 582,88 713,-191zm-2012 -1083c272,76 594,252 708,620 -232,209 -606,203 -895,184 450,-199 506,-479 187,-804zm-605 -916c352,165 767,383 877,630 -174,198 -581,308 -1007,332 323,-192 502,-645 130,-962zm-2128 1978c166,-178 518,-388 898,-326 116,310 75,651 -75,928 14,-523 -412,-726 -823,-602zm-1342 285c202,-339 567,-639 1030,-738 157,356 183,915 105,1217 -91,-525 -695,-767 -1135,-479zm910 1152c153,-313 573,-565 927,-632 169,231 202,806 120,1108 -158,-590 -714,-721 -1047,-476zm307 2657c212,-252 603,-644 888,-697 164,224 76,667 -13,1010 -77,-464 -346,-555 -875,-313zm-764 746c281,-427 266,-841 264,-1029 -207,3 -558,19 -935,268 523,-117 757,223 671,761z" style="fill:#7da540"/>
 </g><g id="RightFoot-Lizard0">
  <metadata id="CorelCorpID_327Corel-Layer"/>
  <path class="RightFoot-Lizard0fil636" d="M16896 24005c177,194 630,99 971,213 299,100 377,345 252,488 -126,145 -306,76 -460,51 -150,-23 -303,-85 -424,-49 177,63 791,364 618,803 -89,226 -408,214 -663,10 -311,-249 -694,-450 -946,-419 -343,42 -190,563 -583,572 -600,14 -308,-788 -664,-1201 -43,-70 -57,-204 -18,-292 582,-77 1506,161 1917,-176z" style="fill:#c27d33"/>
  <path class="RightFoot-Lizard0fil32" d="M16951 23955c84,92 268,105 469,119 229,16 506,34 687,193 110,95 176,241 128,385 -96,287 -393,216 -620,174 44,31 88,65 128,103 260,243 321,768 -102,820 -176,21 -363,-61 -498,-170 -204,-163 -618,-436 -891,-403 -276,34 -138,562 -589,572 -420,10 -453,-299 -522,-643 -42,-206 -130,-417 -197,-588 -20,-52 -8,-108 45,-121 50,-7 100,40 130,121 53,141 128,373 169,566 59,275 83,523 372,516 323,-7 175,-523 575,-571 322,-40 760,241 1002,435 102,82 251,153 386,137 285,-35 179,-411 17,-562 -187,-176 -460,-252 -477,-309 -12,-39 11,-81 51,-92 130,-39 386,31 538,62 117,23 292,53 342,-95 28,-85 -22,-170 -85,-224 -149,-130 -411,-143 -600,-157 -211,-15 -408,-29 -535,-135 31,-62 55,-97 77,-133z" style="fill:#27fa34"/>
 </g><g id="LeftFoot-Lizard0">
  <metadata id="CorelCorpID_336Corel-Layer"/>
  <path class="LeftFoot-Lizard0fil645" d="M10468 24005c-177,194 -630,99 -971,213 -299,100 -377,345 -253,488 127,145 307,76 460,51 151,-23 304,-85 425,-49 -177,63 -791,364 -619,803 89,226 409,214 664,10 311,-249 694,-450 946,-419 343,42 190,563 583,572 600,14 308,-788 663,-1201 44,-70 58,-204 19,-292 -583,-77 -1506,161 -1917,-176z" style="fill:#7f9c24"/>
  <path class="LeftFoot-Lizard0fil32" d="M10412 23955c-83,92 -268,105 -468,119 -229,16 -506,34 -688,193 -109,95 -176,241 -128,385 96,287 394,216 620,174 -44,31 -87,65 -127,103 -260,243 -321,768 102,820 176,21 363,-61 498,-170 203,-163 618,-436 891,-403 276,34 138,562 589,572 419,10 452,-299 522,-643 42,-206 130,-417 196,-588 21,-52 9,-108 -45,-121 -50,-7 -99,40 -130,121 -52,141 -127,373 -168,566 -59,275 -83,523 -372,516 -323,-7 -175,-523 -575,-571 -322,-40 -761,241 -1002,435 -103,82 -251,153 -386,137 -285,-35 -179,-411 -17,-562 187,-176 460,-252 477,-309 12,-39 -11,-81 -51,-92 -130,-39 -386,31 -538,62 -118,23 -292,53 -342,-95 -28,-85 22,-170 85,-224 149,-130 411,-143 600,-157 211,-15 408,-29 535,-135 -31,-62 -55,-97 -78,-133z" style="fill:#d27db0"/>
 </g><g id="RightLeg-Lizard0">
  <metadata id="CorelCorpID_330Corel-Layer"/>
  <path class="RightLeg-Lizard0fil639" d="M13682 23167c428,0 1386,122 1321,776 -5,52 -27,166 -34,307 456,84 1272,76 1625,0 415,-193 703,-872 705,-1316 2,-661 -392,-1250 -712,-1596 -352,-381 -2030,-8 -2905,-8l0 1837z" style="fill:#52f840"/>
  <path class="RightLeg-Lizard0fil14" d="M17192 23398c67,-149 106,-306 107,-464 2,-776 -541,-1452 -869,-1753 -19,257 -41,545 -78,871 387,-414 947,878 840,1346z" style="fill:#5975e0"/>
  <path class="RightLeg-Lizard0fil32" d="M15042 24729c32,73 153,5 117,-101 -61,-182 -128,-334 -105,-448 91,-447 -112,-807 -541,-972 -208,-80 -478,-118 -831,-118l0 150c335,0 588,35 777,108 361,138 514,417 435,791 -35,237 15,295 148,590zm1242 -3575c175,139 478,451 693,860 144,273 248,587 247,920 -1,533 -241,1011 -637,1322 634,-260 785,-833 786,-1322 2,-360 -110,-698 -263,-990 -227,-429 -547,-760 -734,-907 -34,-25 -144,-95 -178,-56 -36,41 10,108 86,173z" style="fill:#2aa59a"/>
 </g><g id="LeftLeg-Lizard0">
  <metadata id="CorelCorpID_339Corel-Layer"/>
  <path class="LeftLeg-Lizard0fil648" d="M13682 23167c-428,0 -1386,122 -1321,776 5,52 26,166 34,307 -456,84 -1272,76 -1625,0 -415,-193 -704,-872 -705,-1316 -2,-661 392,-1250 712,-1596 352,-381 2030,-8 2905,-8l0 1837z" style="fill:#bcce0d"/>
  <path class="LeftLeg-Lizard0fil14" d="M10172 23398c-67,-149 -106,-306 -107,-464 -2,-776 540,-1452 869,-1753 19,257 41,545 78,871 -388,-414 -947,878 -840,1346z" style="fill:#392897"/>
  <path class="LeftLeg-Lizard0fil32" d="M12322 24729c-33,73 -153,5 -118,-101 61,-182 129,-334 106,-448 -91,-447 111,-807 541,-972 208,-80 478,-118 831,-118l0 150c-335,0 -588,35 -777,108 -361,138 -514,417 -435,791 35,237 -15,295 -148,590zm-1242 -3575c-175,139 -478,451 -694,860 -143,273 -247,587 -246,920 1,533 241,1011 637,1322 -634,-260 -785,-833 -787,-1322 -1,-360 110,-698 264,-990 226,-429 547,-760 734,-907 34,-25 144,-95 178,-56 36,41 -10,108 -86,173z" style="fill:#d26f1e"/>
 </g><g id="RightHand-Lizard4">
 <animateTransform additive="sum" attributeName="transform" dur="10" repeatCount="indefinite" type="translate" values="0;0 200;0;0 200;0;0 200;0;0 200;0"/>
  <metadata id="CorelCorpID_349Corel-Layer"/>
  <path class="RightHand-Lizard4fil655" d="M15421 17507c1371,-107 2467,1307 3017,2266 289,504 -937,1282 -1053,928 -133,-408 -583,-502 -1005,-495 -145,-773 -770,-2364 -959,-2699z" style="fill:#3076c7"/>
  <path class="RightHand-Lizard4fil14" d="M17408 20600c-414,-340 -751,-361 -1105,-375l143 -846c440,204 921,896 962,1221z" style="fill:#0aad25"/>
  <path class="RightHand-Lizard4fil628" d="M17277 20109c76,91 200,163 343,170 29,-114 10,-282 -28,-368 -2,161 -170,262 -315,198zm342 -558c89,78 223,130 365,115 11,-117 -34,-280 -84,-359 23,159 -128,285 -281,244zm-676 -138c122,107 303,178 497,157 15,-159 -46,-381 -115,-489 32,217 -174,389 -382,332zm489 -979c91,92 177,187 260,284 0,25 -1,49 -3,72 -272,29 -527,-70 -699,-220 171,46 339,-16 442,-136zm-1205 365c208,88 480,103 728,-9 -49,-218 -228,-486 -366,-599 136,274 -61,591 -362,608z" style="fill:#841799"/>
  <path class="RightHand-Lizard4fil32" d="M16155 17514c-40,-12 -81,11 -93,50 -12,40 11,82 50,94 431,128 825,397 1169,724 463,440 838,982 1093,1427 50,87 177,12 129,-73 -261,-455 -643,-1010 -1119,-1462 -360,-342 -773,-624 -1229,-760zm1159 3210c13,39 55,61 95,48 39,-13 52,-64 39,-103 -48,-207 -228,-359 -429,-441 -192,-78 -421,-101 -641,-97 -41,1 -74,35 -73,76 1,41 35,74 76,74 202,-4 410,17 582,86 162,66 292,177 351,357z" style="fill:#09348b"/>
 </g><g id="LeftHand-Lizard4">
 <animateTransform additive="sum" attributeName="transform" dur="10" repeatCount="indefinite" type="translate" values="0;0 200;0;0 200;0;0 200;0;0 200;0"/>
  <metadata id="CorelCorpID_358Corel-Layer"/>
  <path class="LeftHand-Lizard4fil667" d="M11943 17507c-1371,-107 -2467,1307 -3017,2266 -289,504 937,1282 1052,928 134,-408 584,-502 1006,-495 145,-773 770,-2364 959,-2699z" style="fill:#fe6c27"/>
  <path class="LeftHand-Lizard4fil14" d="M9956 20600c414,-340 751,-361 1105,-375l-143 -846c-440,204 -921,896 -962,1221z" style="fill:#4d7c42"/>
  <path class="LeftHand-Lizard4fil628" d="M11128 18799c-208,88 -480,103 -728,-9 49,-218 228,-486 366,-599 -136,274 61,591 362,608zm-1205 -365c-91,92 -177,187 -260,284 0,25 1,49 3,72 272,29 527,-70 699,-220 -171,46 -339,-16 -442,-136zm489 979c-122,107 -303,178 -497,157 -15,-159 46,-381 115,-489 -32,217 174,389 382,332zm-676 138c-89,78 -222,130 -365,115 -11,-117 34,-280 84,-359 -23,159 128,285 281,244zm342 558c-76,91 -200,163 -343,170 -29,-114 -10,-282 28,-368 2,161 170,262 315,198z" style="fill:#aabe98"/>
  <path class="LeftHand-Lizard4fil32" d="M11209 17514c39,-12 81,11 93,50 12,40 -11,82 -50,94 -431,128 -825,397 -1169,724 -463,440 -838,982 -1093,1427 -50,87 -178,12 -129,-73 261,-455 643,-1010 1119,-1462 360,-342 773,-624 1229,-760zm-1159 3210c-13,39 -55,61 -95,48 -39,-13 -52,-64 -39,-103 48,-207 228,-359 429,-441 192,-78 420,-101 640,-97 42,1 75,35 74,76 -1,41 -35,74 -76,74 -202,-4 -410,17 -582,86 -162,66 -293,177 -351,357z" style="fill:#1d4fea"/>
 </g><g id="Body-Lizard5">
 <animateTransform additive="sum" attributeName="transform" dur="10" repeatCount="indefinite" type="translate" values="0;0 200;0;0 200;0;0 200;0;0 200;0"/>
  <metadata id="CorelCorpID_368Corel-Layer"/>
  <path class="Body-Lizard5fil674" d="M13682 23042c-1548,0 -2752,-290 -2993,-1956 -146,-1007 384,-2270 980,-3398 748,64 1420,73 2013,73 593,0 1265,-9 2013,-73 596,1128 1126,2391 980,3398 -242,1666 -1445,1956 -2993,1956z" style="fill:#1241de"/>
  <path class="Body-Lizard5fil682" d="M13682 23042c-16,0 -32,0 -47,0 -15,-54 -30,-107 -45,-161 26,1 53,1 79,1l1 2 0 -2c4,0 8,0 12,0 4,0 8,0 11,0l1 2 0 -2c27,0 54,0 80,-1 -15,54 -30,107 -45,161 -16,0 -31,0 -47,0zm-236 -169c-14,55 -27,110 -39,166 -25,-1 -50,-2 -75,-3 12,-56 25,-113 39,-170 25,2 50,5 75,7zm-493 -92c36,80 72,161 108,242 -26,-2 -51,-4 -77,-6 -43,-90 -85,-179 -126,-268 31,11 63,22 95,32zm-163 -59c-11,91 -17,182 -19,273 -34,-4 -69,-8 -103,-13 -68,-119 -134,-239 -195,-358 -9,108 -8,217 -2,325 -26,-5 -52,-10 -78,-16 -9,-148 -5,-296 3,-444l0 -2c45,37 93,71 143,104 52,99 102,197 153,296 5,-67 12,-134 20,-201 25,13 51,25 78,36zm-676 -531c-11,83 -20,166 -26,249 0,4 0,7 -1,10 0,0 0,0 0,0 -4,34 -28,40 -59,-6 0,0 0,0 0,0 0,0 0,0 0,0 -1,-2 -2,-4 -3,-6 -88,-146 -168,-293 -252,-440 -16,163 -30,327 -25,491 73,108 149,217 228,325 -43,-16 -84,-32 -125,-50 -32,-45 -64,-89 -93,-134 2,32 6,64 11,96 -30,-15 -59,-30 -88,-45 -10,-77 -17,-153 -24,-230 0,0 0,-1 0,-1 0,0 0,0 0,0 0,-1 0,-2 0,-4 1,-194 17,-388 34,-583 -83,-163 -168,-327 -255,-491 -27,148 -53,295 -79,443 -1,3 -1,7 -2,10 0,0 0,0 0,0 -10,34 -37,39 -63,-6 0,0 0,0 0,0 -1,0 -1,0 -2,-1 0,-2 -1,-3 -2,-5 -80,-147 -163,-294 -246,-441 -24,164 -47,328 -68,491 133,195 262,391 401,586 1,1 2,2 3,4 14,19 29,38 43,57 -224,-176 -405,-407 -537,-708 24,-189 50,-379 87,-569 -80,-163 -161,-327 -241,-491 -19,73 -38,146 -55,219 -10,-112 -12,-226 -8,-343 6,-18 12,-37 18,-55 0,0 0,0 0,0 0,0 0,0 1,-1 0,0 0,0 0,0 62,-188 132,-390 208,-578 -14,-71 -34,-187 -45,-285 67,137 227,456 309,676 50,-145 108,-293 167,-440 0,0 0,0 1,-1 0,0 0,0 0,-1 0,-1 0,-1 1,-2 78,-195 159,-390 244,-585 -50,-164 -99,-327 -140,-492 -72,149 -138,296 -204,443 -2,5 -4,8 -6,11 0,0 0,0 0,0 -20,34 -51,40 -66,-6 0,0 0,0 0,0 -1,0 -1,0 -1,0 0,-2 0,-5 -1,-6 -73,-176 -115,-361 -143,-543 80,104 139,206 185,339 169,-358 317,-671 509,-1005 -24,-117 -43,-235 -60,-353l25 -46c21,2 43,4 65,6 17,116 36,232 58,347 1,1 0,3 1,4 31,146 63,294 98,440 16,-34 32,-69 48,-103 -17,102 -38,210 -60,318 -15,6 -29,-3 -38,-31 0,0 0,0 0,-1 0,0 0,0 0,0 0,-1 -1,-3 -1,-5 -40,-146 -75,-294 -106,-440 -81,163 -159,327 -236,491 50,194 104,391 165,586 0,1 0,2 1,3 20,64 40,129 61,193 -2,17 -5,34 -7,51 -7,59 -14,119 -20,179 -29,-82 -57,-163 -83,-245 -70,164 -135,328 -199,491 70,196 147,391 227,586 1,1 1,2 2,3 5,14 11,28 17,43 3,97 9,193 18,288 -23,-51 -46,-102 -68,-153 -50,164 -95,327 -140,491 95,196 198,392 295,587 1,1 1,3 1,3 82,148 165,294 245,441 8,-61 16,-122 24,-183 25,39 50,77 77,113zm3311 -3809c16,34 32,69 48,103 35,-146 67,-294 98,-440 0,-1 0,-3 0,-4 23,-115 42,-231 59,-347 22,-2 43,-4 65,-6l24 46c-16,118 -35,236 -59,353 191,334 340,647 509,1005 46,-133 105,-235 185,-339 -29,182 -70,367 -143,543 -1,1 -1,4 -2,6 0,0 0,0 0,0 0,0 0,0 0,0 -15,46 -46,40 -66,6 0,0 0,0 0,0 -3,-3 -4,-6 -6,-11 -66,-147 -132,-294 -204,-443 -41,165 -90,328 -140,492 85,195 166,390 244,585 0,1 0,1 0,2 1,1 1,1 1,1 1,1 1,1 1,1 59,147 117,295 167,440 82,-220 242,-539 309,-676 -12,98 -32,214 -45,285 76,188 146,390 208,578 0,0 0,0 0,0 1,1 1,1 1,1 0,0 0,0 0,0 6,18 12,37 18,55 4,117 2,231 -8,343 -17,-73 -36,-146 -55,-219 -80,164 -161,328 -241,491 36,190 63,380 87,569 -132,301 -314,532 -537,708 14,-19 29,-38 43,-57 1,-2 1,-3 3,-4 139,-195 268,-391 401,-586 -21,-163 -44,-327 -68,-491 -84,147 -166,294 -246,441 -1,2 -2,3 -3,5 0,1 0,1 -1,1 0,0 0,0 0,0 -26,45 -53,40 -63,6 0,0 0,0 0,0 -1,-3 -1,-7 -3,-10 -25,-148 -51,-295 -78,-443 -87,164 -173,328 -255,491 17,195 33,389 34,583 0,2 0,3 0,4 0,0 0,0 0,0 0,0 0,1 0,1 -7,77 -14,153 -24,230 -29,15 -58,30 -88,45 5,-32 9,-64 11,-96 -30,45 -61,89 -93,134 -41,18 -83,34 -125,50 79,-108 155,-217 228,-325 5,-164 -9,-328 -25,-491 -84,147 -164,294 -252,440 -1,2 -2,4 -3,6 0,0 0,0 0,0 0,0 0,0 0,0 -31,46 -55,40 -59,6 0,0 0,0 0,0 -1,-3 -2,-6 -2,-10 -5,-83 -15,-166 -25,-249 27,-36 52,-74 77,-113 8,61 16,122 24,183 80,-147 163,-293 244,-441 0,0 1,-2 2,-3 97,-195 199,-391 295,-587 -46,-164 -90,-327 -140,-491 -22,51 -45,102 -68,153 9,-95 15,-191 18,-288 6,-15 12,-29 17,-43 1,-1 1,-2 2,-3 80,-195 157,-390 227,-586 -64,-163 -129,-327 -200,-491 -25,82 -53,163 -82,245 -6,-60 -13,-120 -20,-179 -2,-17 -5,-34 -7,-51 21,-64 41,-129 61,-193 0,-1 0,-2 1,-3 61,-195 115,-392 164,-586 -76,-164 -155,-328 -235,-491 -31,146 -66,294 -106,440 0,2 -1,4 -1,5 0,0 0,0 0,0 0,1 0,1 0,1 -9,28 -24,37 -38,31 -22,-108 -43,-216 -60,-318zm-457 4105l0 2c8,148 11,296 3,444 -26,6 -52,11 -78,16 6,-108 7,-217 -2,-325 -61,119 -127,239 -196,358 -34,5 -68,9 -103,13 -1,-91 -7,-182 -18,-273 27,-11 53,-23 78,-36 8,67 15,134 20,201 51,-99 101,-197 153,-296 50,-33 98,-67 143,-104zm-463 262c-40,89 -83,178 -125,268 -26,2 -52,4 -77,6 36,-81 72,-162 108,-242 32,-10 64,-21 94,-32zm-512 117c14,57 27,114 39,170 -25,1 -50,2 -75,3 -12,-56 -25,-111 -40,-166 26,-2 51,-5 76,-7zm2318 -1675c0,1 0,2 -2,3 -71,148 -153,294 -235,441 -24,-148 -51,-295 -90,-442 0,0 0,-1 0,-2 0,0 0,0 -1,0 0,-1 0,-2 0,-3 -53,-195 -107,-389 -174,-584 68,-164 135,-326 196,-489 57,147 108,293 158,440 1,4 3,8 4,11 0,0 0,0 0,0 17,34 47,39 68,-7 0,0 0,0 0,0 0,0 0,0 0,0 1,-2 2,-4 2,-5 62,-147 123,-292 178,-439 62,163 117,325 172,489 -84,196 -180,392 -276,587zm-5258 0c0,1 0,2 2,3 71,148 153,294 235,441 24,-148 50,-295 90,-442 0,0 0,-1 0,-2 0,0 0,0 1,0 0,-1 0,-2 0,-3 53,-195 107,-389 174,-584 -68,-164 -135,-326 -196,-489 -57,147 -108,293 -158,440 -2,4 -3,8 -4,11 0,0 0,0 0,0 -17,34 -48,39 -68,-7 0,0 0,0 0,0 0,0 0,0 0,0 -1,-2 -2,-4 -2,-5 -62,-147 -123,-292 -178,-439 -62,163 -118,325 -172,489 83,196 180,392 276,587z" style="fill:#f9ae43"/>
  <path class="Body-Lizard5fil14" d="M11837 22758c-601,-267 -1017,-766 -1148,-1672 -75,-519 29,-1106 229,-1707 -223,2177 509,3077 919,3379z" style="fill:#7df042"/>
  <path class="Body-Lizard5fil32" d="M11012 22052c-250,-321 -348,-641 -397,-955 -59,-377 -24,-998 184,-1319 -78,420 -93,905 -36,1298 50,341 104,571 249,976z" style="fill:#70975c"/>
  <path class="Body-Lizard5fil683" d="M13682 17761c-799,0 -1124,-25 -1767,-73 210,210 -121,1257 -197,1859 -215,1711 94,3335 1964,3335 1869,0 2179,-1624 1964,-3335 -76,-602 -407,-1649 -198,-1859 -642,48 -967,73 -1766,73z" style="fill:#ecb3b8"/>
  <path class="Body-Lizard5fil684" d="M13682 22329c-128,-336 -261,-658 -395,-993 76,-181 151,-362 229,-543 55,133 110,266 166,398 56,-132 111,-265 165,-398 79,181 154,362 230,543 -134,335 -267,657 -395,993zm0 -1447c-40,-96 -80,-191 -121,-287 0,-1 -1,-2 -1,-3 -93,-217 -185,-433 -276,-650 74,-181 145,-362 218,-544 59,141 119,282 180,422 60,-140 121,-281 180,-422 72,182 144,363 218,544 -91,217 -184,433 -276,650 0,1 -1,2 -2,3 -40,96 -80,191 -120,287zm0 -1354c-47,-109 -94,-219 -139,-328 -1,-1 -2,-3 -2,-3 -110,-258 -200,-532 -330,-779 -72,194 -152,386 -231,579 -71,-192 -134,-385 -205,-575 -65,118 -342,743 -358,783 -10,24 -16,77 -3,108 74,181 174,448 247,633 -86,197 -177,392 -255,591 -47,120 -24,153 19,260 161,377 319,755 485,1130 53,120 78,149 137,-1 56,-144 113,-288 173,-433 130,322 257,644 388,971 66,163 81,149 148,-7 137,-318 264,-643 387,-964 61,145 118,289 174,433 59,150 83,121 137,1 166,-375 323,-753 485,-1130 43,-107 66,-140 19,-260 -79,-199 -169,-394 -255,-591 73,-185 173,-452 247,-633 13,-31 7,-84 -3,-108 -16,-40 -293,-665 -358,-783 -71,190 -135,383 -205,575 -79,-193 -160,-385 -231,-579 -130,247 -220,521 -330,779 0,0 -1,2 -2,3 -46,109 -92,219 -139,328zm707 2257c-149,-381 -319,-764 -475,-1142 78,-181 154,-363 230,-543 59,139 117,279 175,418 68,166 90,144 150,3 59,-140 117,-280 173,-421 79,181 155,362 232,544 -157,378 -320,765 -485,1141zm5 -1393c-160,-383 -314,-757 -467,-1143 75,-182 150,-363 219,-543 62,154 123,308 183,461 26,65 62,123 109,2 60,-154 117,-309 171,-464 79,181 156,363 235,545 -140,381 -292,766 -450,1142zm-1419 1393c149,-381 318,-764 475,-1142 -78,-181 -154,-363 -230,-543 -59,139 -117,279 -175,418 -69,166 -90,144 -150,3 -59,-140 -117,-280 -173,-421 -79,181 -155,362 -232,544 157,378 320,765 485,1141zm-5 -1393c160,-383 314,-757 466,-1143 -74,-182 -149,-363 -219,-543 -61,154 -122,308 -183,461 -25,65 -61,123 -108,2 -60,-154 -117,-309 -171,-464 -79,181 -156,363 -235,545 140,381 292,766 450,1142z" style="fill:#9ff593"/>
  <path class="Body-Lizard5fil14" d="M15527 22758c601,-267 1016,-766 1148,-1672 75,-519 -29,-1106 -229,-1707 223,2177 -509,3077 -919,3379z" style="fill:#8e835e"/>
  <path class="Body-Lizard5fil32" d="M16352 22052c250,-321 347,-641 397,-955 59,-377 24,-998 -184,-1319 78,420 93,905 36,1298 -50,341 -104,571 -249,976z" style="fill:#bb654e"/>
 </g><g id="WeaponFlySwatterBack-Medium">
 <animateTransform additive="sum" attributeName="transform" dur="10" repeatCount="indefinite" type="translate" values="0;0 200;0;0 200;0;0 200;0;0 200;0"/>
  <metadata id="CorelCorpID_0Corel-Layer"/>
  <g id="_2367108334752">
   <path class="WeaponFlySwatterBack-Mediumfil0 WeaponFlySwatterBack-Mediumstr0" d="M9496 21664l211 -158 -1804 -1241c-168,-116 -453,-135 -616,153 -163,289 1,523 187,607l1996 902 26 -263z" style="fill:#1e388b"/>
   <path class="WeaponFlySwatterBack-Mediumfil1" d="M7463 20235c-66,36 -127,96 -176,183 -163,289 1,523 187,607l1996 902 22 -221c-464,-223 -1683,-816 -1870,-979 -151,-131 -206,-332 -159,-492z" style="fill:#6d08db"/>
  </g>
 </g><g id="NecklaceCapeBlue-Medium">
  <animateTransform additive="sum" attributeName="transform" dur="10" repeatCount="indefinite" type="translate" values="0;0 200;0;0 200;0;0 200;0;0 200;0"/>
  <metadata id="CorelCorpID_9Corel-Layer"/>
  <g id="_1834010018304">
   <path class="NecklaceCapeBlue-Mediumfil32 NecklaceCapeBlue-Mediumstr0" d="M12255 18362c975,116 2758,-1179 4054,-1285 300,-24 456,257 674,315 232,63 654,221 624,464 -438,-98 -549,-97 -1111,224 -1286,735 -2757,853 -4231,496 -1,-30 -17,-118 -10,-214z" style="fill:#8d4c53"/>
   <path class="NecklaceCapeBlue-Mediumfil33" d="M11771 18438c-606,-187 -811,-311 -1134,-548 -125,-91 -689,-385 -858,76 -34,92 -71,180 -132,302l-344 -33c100,-174 169,-325 228,-498 122,-357 425,-349 681,-554 197,-158 585,-234 740,-198 909,209 929,642 991,1400l0 0c-47,17 -108,35 -172,53z" style="fill:#f6684f"/>
   <path class="NecklaceCapeBlue-Mediumfil14" d="M11749 18510c-307,-95 -513,-175 -685,-261 -172,-86 -307,-178 -471,-299 -38,-27 -122,-76 -223,-113 -85,-31 -180,-54 -267,-48 -79,6 -152,36 -205,108 -19,26 -35,57 -49,94 -32,88 -78,191 -135,304l-160 -14c66,-129 119,-244 154,-341 19,-51 42,-95 69,-131 83,-113 196,-160 316,-169 111,-8 227,19 328,56 116,43 215,100 260,134 159,116 288,204 450,286 160,80 354,155 641,244 25,-7 50,-14 74,-21l18 -6c-56,-688 -96,-1084 -928,-1275 -73,-17 -209,-4 -350,34 -123,33 -245,83 -327,149 -95,76 -192,123 -284,168 -158,76 -303,147 -373,352 -57,168 -135,336 -230,504l-165 -14c107,-180 192,-360 253,-538 90,-265 263,-348 449,-439 87,-42 176,-85 257,-149 100,-81 242,-141 381,-178 163,-44 328,-57 422,-35 948,218 983,660 1046,1430l3 34c1,8 0,17 -2,26 -3,16 -12,30 -25,41l0 0 0 0c-8,6 -16,11 -26,14 -23,8 -48,16 -75,24 -31,10 -65,20 -99,29 -15,4 -29,4 -42,0z" style="fill:#376618"/>
   <ellipse class="NecklaceCapeBlue-Mediumfil17 NecklaceCapeBlue-Mediumstr1" cx="11884" cy="18448" rx="437" ry="424"/>
   <ellipse class="NecklaceCapeBlue-Mediumfil18 NecklaceCapeBlue-Mediumstr1" cx="12643" cy="18527" rx="290" ry="282"/>
   <path class="NecklaceCapeBlue-Mediumfil10" d="M11884 18872c178,0 331,-104 399,-252 -72,62 -166,99 -270,99 -226,0 -409,-178 -409,-398 0,-99 37,-189 98,-259 -150,67 -254,215 -254,386 0,234 195,424 436,424z" style="fill:#7c903b"/>
   <path class="NecklaceCapeBlue-Mediumfil10" d="M12672 18785c120,0 224,-70 270,-170 -49,42 -113,67 -183,67 -152,0 -276,-120 -276,-269 0,-67 25,-128 66,-175 -101,46 -172,145 -172,261 0,158 132,286 295,286z" style="fill:#43100c"/>
   <path class="NecklaceCapeBlue-Mediumfil11" d="M12146 18644c43,-55 69,-122 69,-196 0,-177 -148,-321 -331,-321 -81,0 -155,28 -212,75 34,-10 71,-16 109,-16 208,0 377,164 377,367 0,31 -4,62 -12,91z" style="fill:#3c109a"/>
   <path class="NecklaceCapeBlue-Mediumfil11" d="M12792 18625c24,-29 37,-66 37,-106 0,-96 -80,-173 -178,-173 -44,0 -84,15 -115,40 19,-5 38,-8 59,-8 112,0 204,88 204,198 0,17 -3,33 -7,49z" style="fill:#8cb991"/>
  </g>
 </g><g id="RightPaw-Lizard1">
 <animateTransform additive="sum" attributeName="transform" dur="10" repeatCount="indefinite" type="translate" values="0;0 200;0;0 200;0;0 200;0;0 200;0"/>
  <metadata id="CorelCorpID_352Corel-Layer"/>
  <path class="RightPaw-Lizard1fil662" d="M18407 19719c160,284 636,568 871,846 165,195 249,575 80,649 -149,66 -234,-108 -348,-218 -112,-108 -200,-191 -255,-121 94,89 123,234 200,476 89,279 3,682 -262,648 -142,-19 -126,-223 -244,-454 -92,-182 -171,-298 -384,-304 -138,-4 -217,58 -274,139 -100,142 -35,313 -193,347 -194,42 -272,-288 -250,-544 21,-247 62,-507 -9,-582 605,-42 1153,-458 1068,-882z" style="fill:#1cd580"/>
  <path class="RightPaw-Lizard1fil32" d="M18467 19678c-21,-36 -66,-49 -102,-28 -36,20 -47,64 -27,100 13,23 28,49 44,71 107,145 280,276 455,408 150,114 301,228 399,344 84,99 164,261 169,392 2,54 -10,100 -40,126 -68,57 -155,5 -221,-85 -68,-94 -155,-212 -277,-234 -166,-31 -205,68 -150,146 72,103 161,338 196,566 16,103 19,202 2,282 -15,68 -43,121 -91,144 -30,16 -70,21 -122,14 -42,-5 -62,-72 -91,-165 -23,-73 -49,-158 -95,-248 -50,-98 -96,-179 -163,-239 -71,-65 -159,-102 -286,-106 -84,-3 -151,16 -206,47 -56,32 -97,75 -131,124 -50,70 -65,141 -78,204 -12,56 -22,104 -68,113 -16,3 -30,4 -42,3 -27,-2 -48,-16 -64,-38 -21,-29 -36,-71 -46,-120 -19,-94 -18,-208 -9,-310 5,-64 12,-117 19,-167 23,-169 45,-290 -27,-448 -17,-38 -66,-65 -103,-48 -38,17 -55,61 -38,99 54,119 39,232 20,377 -8,55 -16,114 -21,175 -9,113 -10,242 12,351 14,69 37,132 73,180 41,56 98,92 172,98 26,2 54,1 83,-5 143,-29 162,-120 185,-229 11,-49 22,-104 54,-149 23,-32 49,-61 82,-80 33,-18 75,-29 129,-28 86,3 144,27 189,67 49,45 88,113 130,197 41,80 65,157 86,224 45,147 78,252 215,270 83,10 152,-1 208,-29 93,-47 147,-136 170,-247 21,-99 19,-216 0,-336 -28,-188 -97,-388 -171,-523 42,11 114,93 156,151 101,141 269,235 415,116 71,-58 97,-147 93,-245 -6,-166 -98,-358 -204,-484 -109,-129 -266,-248 -423,-366 -189,-144 -378,-287 -460,-432z" style="fill:#b3e1c0"/>
 </g><g id="LeftPaw-Lizard1">
 <animateTransform additive="sum" attributeName="transform" dur="10" repeatCount="indefinite" type="translate" values="0;0 200;0;0 200;0;0 200;0;0 200;0"/>
  <metadata id="CorelCorpID_361Corel-Layer"/>
  <path class="LeftPaw-Lizard1fil672" d="M8957 19719c-161,284 -636,568 -871,846 -165,195 -249,575 -80,649 148,66 234,-108 348,-218 112,-108 200,-191 255,-121 -94,89 -123,234 -200,476 -89,279 -3,682 262,648 142,-19 126,-223 244,-454 92,-182 171,-298 384,-304 138,-4 217,58 274,139 100,142 35,313 192,347 195,42 272,-288 251,-544 -21,-247 -62,-507 9,-582 -605,-42 -1153,-458 -1068,-882z" style="fill:#cab2dd"/>
  <path class="LeftPaw-Lizard1fil32" d="M8897 19678c21,-36 66,-49 102,-28 36,20 47,64 27,100 -13,23 -28,49 -44,71 -107,145 -280,276 -455,408 -150,114 -301,228 -399,344 -84,99 -164,261 -169,392 -2,54 10,100 40,126 68,57 155,5 221,-85 68,-94 155,-212 277,-234 166,-31 205,68 150,146 -72,103 -162,338 -196,566 -16,103 -19,202 -2,282 15,68 43,121 91,144 30,16 70,21 122,14 42,-5 62,-72 91,-165 23,-73 49,-158 95,-248 50,-98 96,-179 163,-239 71,-65 159,-102 286,-106 84,-3 151,16 206,47 56,32 97,75 131,124 50,70 65,141 78,204 12,56 22,104 68,113 16,3 29,4 41,3 28,-2 49,-16 65,-38 21,-29 36,-71 46,-120 19,-94 18,-208 9,-310 -5,-64 -12,-117 -19,-167 -23,-169 -45,-290 26,-448 17,-38 66,-65 104,-48 38,17 55,61 38,99 -54,119 -39,232 -20,377 8,55 16,114 21,175 9,113 10,242 -12,351 -14,69 -37,132 -73,180 -42,56 -98,92 -172,98 -26,2 -54,1 -83,-5 -143,-29 -162,-120 -185,-229 -11,-49 -22,-104 -54,-149 -23,-32 -49,-61 -83,-80 -32,-18 -74,-29 -128,-28 -86,3 -144,27 -189,67 -49,45 -88,113 -131,197 -40,80 -64,157 -85,224 -45,147 -78,252 -215,270 -83,10 -152,-1 -208,-29 -93,-47 -147,-136 -170,-247 -21,-99 -19,-216 -1,-336 29,-188 98,-388 172,-523 -43,11 -114,93 -156,151 -101,141 -269,235 -416,116 -70,-58 -96,-147 -92,-245 6,-166 98,-358 204,-484 109,-129 266,-248 423,-366 189,-144 378,-287 460,-432z" style="fill:#11660f"/>
 </g><g id="Head-Lizard2">
 <animateTransform additive="sum" attributeName="transform" dur="10" repeatCount="indefinite" type="translate" values="0;0 200;0;0 200;0;0 200;0;0 200;0"/>
  <metadata id="CorelCorpID_372Corel-Layer"/>
  <path class="Head-Lizard2fil690" d="M13677 17796c-2774,0 -5309,-326 -6045,-2683 -509,-1629 233,-3251 984,-4113 -692,-592 -427,-1227 213,-1454 447,-158 949,-366 1308,-606 1009,-673 2198,-1146 3545,-1146 1347,0 2536,473 3545,1146 359,240 861,448 1308,606 640,227 905,862 213,1454 751,862 1492,2484 984,4113 -736,2357 -3281,2683 -6055,2683z" style="fill:#fe7b3a"/>
  <path class="Head-Lizard2fil688" d="M13654 11822c1933,0 3500,1254 3500,2800 0,1546 -1567,2800 -3500,2800 -1933,0 -3500,-1254 -3500,-2800 0,-1546 1567,-2800 3500,-2800z" style="fill:#790877"/>
  <path class="Head-Lizard2fil14" d="M12054 17786c-2092,-172 -3834,-788 -4422,-2673 -271,-866 -187,-1731 63,-2480 -639,2990 2593,4976 4359,5153z" style="fill:#52d0ec"/>
  <path class="Head-Lizard2fil691" d="M14224 13488c-155,-20 -211,-14 -234,-54 -22,-39 -33,-218 17,-275 50,-57 271,-109 323,-74 47,30 117,84 152,157 16,35 -103,267 -258,246zm1190 -3434c-419,442 -527,635 -704,615 -176,-20 -554,-299 -621,-588 -66,-288 356,-1079 585,-1165 205,-78 434,-3 746,54 147,27 413,641 -6,1084zm-2294 -488c-302,-381 -643,-700 -987,-610 -343,89 -1026,39 -486,611 540,571 365,787 989,729 624,-58 605,-577 484,-730zm88 1074c-68,302 -101,838 213,860 314,23 446,82 553,-247 108,-329 221,-349 -57,-635 -278,-286 -682,-99 -709,22zm-596 1370c-39,-169 -114,-429 -1,-478 112,-49 469,49 456,157 -12,108 -58,356 -140,384 -83,28 -295,22 -315,-63zm1423 -147c79,-190 186,-493 328,-463 143,29 421,371 335,467 -86,96 -302,305 -401,275 -100,-30 -302,-182 -262,-279zm-15 665c-90,-218 -304,-568 -511,-444 -206,124 -315,145 -237,398 77,253 15,315 315,372 299,56 469,-238 433,-326zm-385 818c67,240 112,319 68,376 -45,58 -299,187 -415,150 -115,-37 -330,-329 -312,-428 16,-88 51,-224 136,-322 41,-46 455,-17 523,224z" style="fill:#c45c2e"/>
  <path class="Head-Lizard2fil32" d="M12213 17798c-493,50 -1520,-128 -1706,-174 -445,-109 -859,-255 -1232,-450 -803,-420 -1410,-1063 -1715,-2039 -228,-732 -209,-1464 -50,-2127 192,-802 588,-1506 996,-1994 -352,-301 -481,-746 -334,-1032 169,-330 422,-434 904,-624 362,-142 742,-292 1019,-480 289,-196 590,-380 907,-539 124,-62 744,-365 1268,-369 -505,146 -1021,412 -1201,503 -311,156 -606,336 -890,529 -292,198 -679,351 -1049,496 -459,181 -687,321 -800,576 -95,217 -46,504 328,865 36,28 45,76 14,111 -413,473 -823,1181 -1017,1992 -153,640 -172,1344 48,2049 292,933 873,1549 1642,1951 363,190 769,333 1206,439 250,61 1375,273 1662,317z" style="fill:#12ec15"/>
  <path class="Head-Lizard2fil32" d="M15151 17798c493,50 1520,-128 1705,-174 446,-109 860,-255 1232,-450 803,-420 1411,-1063 1715,-2039 229,-732 210,-1464 51,-2127 -192,-802 -588,-1506 -996,-1994 352,-301 480,-746 334,-1032 -169,-330 -422,-434 -904,-624 -362,-142 -742,-292 -1020,-480 -288,-196 -589,-380 -906,-539 -124,-62 -744,-365 -1268,-369 504,146 1021,412 1201,503 310,156 606,336 890,529 292,198 679,351 1049,496 459,181 687,321 800,576 95,217 46,504 -329,865 -35,28 -44,76 -13,111 413,473 823,1181 1017,1992 153,640 172,1344 -48,2049 -292,933 -873,1549 -1642,1951 -363,190 -769,333 -1206,439 -250,61 -1375,273 -1662,317z" style="fill:#e5e2c4"/>
 </g><g id="Mouth-Lizard0">
 <animateTransform additive="sum" attributeName="transform" dur="10" repeatCount="indefinite" type="translate" values="0;0 200;0;0 200;0;0 200;0;0 200;0"/>
  <metadata id="CorelCorpID_378Corel-Layer"/>
  <path class="Mouth-Lizard0fil708" d="M13682 17844c-963,0 -1475,-57 -2157,-142 -844,-197 -1780,-993 -1989,-1942 580,802 2764,3 4146,5 1382,-2 3502,822 4146,-5 -209,949 -1146,1745 -1990,1942 -681,85 -1193,142 -2156,142z" style="fill:#791841"/>
  <path class="Mouth-Lizard0fil22 Mouth-Lizard0str0" d="M13682 15765c-1207,0 -3628,825 -4146,-5" style="fill:#809566"/>
  <path class="Mouth-Lizard0fil22 Mouth-Lizard0str11" d="M13682 15765c1207,0 3628,825 4146,-5" style="fill:#090860"/>
 </g><g id="WeaponFlySwatter-Medium">
 <animateTransform additive="sum" attributeName="transform" dur="10" repeatCount="indefinite" type="translate" values="0;0 200;0;0 200;0;0 200;0;0 200;0"/>
  <metadata id="CorelCorpID_1Corel-Layer"/>
  <g id="_2367108401984">
   <path class="WeaponFlySwatter-Mediumfil2 WeaponFlySwatter-Mediumstr0" d="M12021 22875c-60,107 -120,214 -181,320 -796,-449 -1593,-899 -2390,-1348 -25,-155 36,-261 180,-320 797,449 1594,899 2391,1348z" style="fill:#1d551f"/>
   <path class="WeaponFlySwatter-Mediumfil3" d="M11911 23070l-71 125c-796,-449 -1593,-899 -2390,-1348 -13,-83 -2,-151 33,-206l2428 1429z" style="fill:#1974c7"/>
   <path class="WeaponFlySwatter-Mediumfil4" d="M15132 23138c18,9 34,17 47,25 244,135 344,347 329,601 -14,234 -129,505 -322,782 -47,68 -98,134 -152,200 -54,66 -110,129 -168,190 -241,251 -505,440 -763,538 -282,107 -559,110 -802,-25 -14,-8 -29,-17 -45,-28l-1620 -1038c-225,-145 -316,-292 -255,-521 53,-198 230,-454 546,-840 316,-385 540,-615 743,-729 237,-133 437,-118 684,-1l1778 846zm-2015 -717l-36 45 194 108 52 -64 -94 -44c-41,-20 -79,-34 -116,-45zm341 152l-57 70 194 108 67 -81 -204 -97zm335 159l-72 89 194 107 81 -99 -203 -97zm335 160l-88 106 195 108 96 -118 -203 -96zm335 159l-103 124 195 108 111 -135 -203 -97zm334 159l-117 143 194 108 127 -154 -204 -97zm324 173l-121 147 194 108 49 -60c-20,-76 -60,-142 -122,-195zm131 432l-14 -8 -130 158 91 50c25,-69 43,-136 53,-200zm-103 318l-123 -68 -129 158 157 87c36,-60 68,-119 95,-177zm-164 284l-170 -95 -130 158 180 100c37,-47 71,-93 103,-138 6,-8 12,-17 17,-25zm-201 262l-181 -100 -129 158 170 95c8,-8 15,-15 23,-23 39,-41 78,-84 117,-130zm-235 245l-157 -87 -130 158 123 68c55,-42 110,-89 164,-139zm-278 220l-91 -50 -129 158 13 8c69,-31 138,-70 207,-116zm-477 198l49 -60 -194 -108 -121 148c83,27 173,33 266,20zm-397 -84l127 -153 -195 -108 -117 143 185 118zm-305 -195l112 -136 -195 -108 -102 125 185 119zm-305 -196l97 -117 -194 -108 -88 106 185 119zm-305 -195l82 -100 -194 -107 -73 88 185 119zm-305 -196l67 -81 -194 -108 -58 70 185 119zm-304 -195l51 -63 -194 -108 -36 44c25,24 56,48 93,72l86 55zm-248 -374l61 34 130 -158 -109 -61c-40,70 -67,131 -82,185zm149 -293l124 69 129 -158 -136 -76c-45,60 -84,115 -117,165zm194 -266l141 78 130 -158 -143 -80c-46,56 -89,110 -128,160zm209 -259l144 79 130 -158 -141 -78c-42,49 -86,101 -133,157zm218 -254l137 76 130 -158 -124 -69c-45,45 -92,95 -143,151zm240 -242l109 61 130 -158 -61 -34c-55,31 -114,75 -178,131zm1843 1917l-194 -108 -130 158 194 108 130 -158zm-320 -178l-194 -107 -130 158 194 107 130 -158zm-320 -177l-194 -108 -130 158 194 108 130 -158zm-320 -177l-194 -108 -130 158 195 107 129 -157zm-319 -178l-195 -108 -130 158 195 108 130 -158zm-320 -177l-195 -108 -129 158 194 108 130 -158zm-320 -178l-194 -107 -130 157 194 108 130 -158zm-113 -207l195 108 129 -158 -194 -108 -130 158zm320 177l194 108 130 -158 -194 -107 -130 157zm320 178l194 108 130 -158 -194 -108 -130 158zm320 177l194 108 130 -158 -194 -108 -130 158zm320 178l194 107 130 -157 -195 -108 -129 158zm320 177l194 108 130 -158 -195 -108 -129 158zm319 178l195 107 129 -158 -194 -107 -130 158zm-1707 -1322l194 107 130 -158 -194 -107 -130 158zm320 177l194 108 130 -158 -195 -108 -129 158zm320 177l194 108 130 -158 -195 -107 -129 157zm319 178l195 108 129 -158 -194 -108 -130 158zm320 177l194 108 130 -158 -194 -108 -130 158zm320 178l194 107 130 -157 -194 -108 -130 158zm320 177l194 108 130 -158 -194 -108 -130 158zm-1708 -1322l195 108 129 -158 -194 -108 -130 158zm320 178l194 107 130 -158 -194 -107 -130 158zm320 177l194 108 130 -158 -194 -108 -130 158zm320 177l194 108 130 -158 -194 -107 -130 157zm320 178l194 108 130 -158 -195 -108 -129 158zm320 177l194 108 130 -158 -195 -108 -129 158zm319 178l195 107 129 -157 -194 -108 -130 158zm-2635 -193l-130 158 195 108 129 -158 -194 -108zm320 177l-130 158 194 108 130 -158 -194 -108zm320 178l-130 158 194 107 130 -157 -194 -108zm320 177l-130 158 194 108 130 -158 -194 -108zm319 178l-129 158 194 107 130 -158 -195 -107zm320 177l-129 158 194 108 130 -158 -195 -108zm320 177l-130 158 195 108 129 -158 -194 -108zm-2130 -807l-130 158 194 108 130 -158 -194 -108zm319 178l-129 158 194 107 130 -157 -195 -108zm320 177l-130 158 195 108 129 -158 -194 -108zm320 178l-130 158 195 107 129 -158 -194 -107zm320 177l-130 158 194 108 130 -158 -194 -108zm320 177l-130 158 194 108 130 -158 -194 -108zm320 178l-130 158 194 108 130 -158 -194 -108z" style="fill:#c59b05"/>
   <path class="WeaponFlySwatter-Mediumfil1" d="M14481 25269c-125,88 -252,157 -378,205 -282,107 -559,110 -802,-25 -14,-8 -29,-17 -45,-28l-1620 -1038c-225,-145 -316,-292 -255,-521 53,-198 230,-454 546,-840 316,-385 540,-615 743,-729 237,-133 437,-118 684,-1l44 21c-232,65 -436,163 -608,285l84 -102 -61 -34c-55,31 -114,75 -178,131l92 51c-37,28 -71,57 -105,87l-84 -47c-45,45 -92,95 -143,151l81 45c-29,32 -56,65 -81,100l-85 -48c-42,49 -86,101 -133,157l107 59c-21,37 -40,75 -58,113l-130 -73c-46,56 -89,110 -128,160l141 78 94 -115c-48,113 -81,229 -100,345l-80 97 65 36c-1,13 -2,26 -2,39 -2,36 1,73 9,109l-153 -85 -130 158 194 108 103 -125c15,48 36,97 64,144l-41 51 123 68c114,144 280,282 473,408l-38 -22 -88 106 185 119 92 -111c41,23 83,46 126,69l-98 119 185 119 112 -136 -54 -30c254,122 524,220 774,285l1 1 0 -1c52,14 104,26 154,36l-28 34 13 8c22,-10 43,-20 64,-32 129,25 248,39 353,41zm-687 73l49 -60 -194 -108 -121 148c83,27 173,33 266,20zm-397 -84l127 -153 -195 -108 -117 143 185 118zm-915 -586l82 -100 -194 -107 -73 88 185 119zm-305 -196l67 -81 -194 -108 -58 70 185 119zm-304 -195l51 -63 -194 -108 -36 44c25,24 56,48 93,72l86 55zm-248 -374l61 34 130 -158 -109 -61c-40,70 -67,131 -82,185zm149 -293l124 69 129 -158 -136 -76c-45,60 -84,115 -117,165z" style="fill:#7852dd"/>
   <path class="WeaponFlySwatter-Mediumfil5 WeaponFlySwatter-Mediumstr1" d="M15132 23138c18,9 34,17 47,25 244,135 344,347 329,601 -14,234 -129,505 -322,782 -47,68 -98,134 -152,200 -54,66 -110,129 -168,190 -241,251 -505,440 -763,538 -282,107 -559,110 -802,-25 -14,-8 -29,-17 -45,-28l-1620 -1038c-225,-145 -316,-292 -255,-521 53,-198 230,-454 546,-840 316,-385 540,-615 743,-729 237,-133 437,-118 684,-1l1778 846z" style="fill:#c761f7"/>
  </g>
 </g><g id="Eyes-Lizard6">
 <animateTransform additive="sum" attributeName="transform" dur="10" repeatCount="indefinite" type="translate" values="0;0 200;0;0 200;0;0 200;0;0 200;0"/>
  <metadata id="CorelCorpID_393Corel-Layer"/>
  <path class="Eyes-Lizard6fil14" d="M7970 13978c-139,-654 55,-1614 677,-2434 111,-147 269,-358 464,-468 -1331,-963 2210,-479 2742,232 533,710 828,2205 15,3344 -989,1386 -3530,1048 -3898,-674z"/>
  <g>
        <animateTransform additive="sum" attributeName="transform" dur="10" repeatCount="indefinite" type="translate" values="0;0;0;0;0;0;0;0;0;0;0;0;0;0;0;0;0;0;0;0;0;0;0;0;0;0;0;0;0;0;0;0;0;0;0;0;0;0;0;0;0;0;0;0;0;0;0;0;0;0;0;0;0;0;0;0;0;0;0;0;0;0;0;0;0;0;0;0;0;0;0;0;0;0;0;0;0;0;0;0;0;0;0;0;0;0;0;0;0;0;0 13300;0"/> 
        <g>
            <animateTransform additive="sum" attributeName="transform" dur="10" repeatCount="indefinite" type="scale" values="1;1;1;1;1;1;1;1;1;1;1;1;1;1;1;1;1;1;1;1;1;1;1;1;1;1;1;1;1;1;1;1;1;1;1;1;1;1;1;1;1;1;1;1;1;1;1;1;1;1;1;1;1;1;1;1;1;1;1;1;1;1;1;1;1;1;1;1;1;1;1;1;1;1;1;1;1;1;1;1;1;1;1;1;1;1;1;1;1;1;1 0.01;1"/> 
            <path class="Eyes-Lizard6fil764" d="M8524 14352c557,809 2184,744 2842,77 467,-472 521,-1738 252,-2569 -666,-234 -1813,-252 -2891,-73 -426,685 -700,1844 -203,2565z"/>
            <path class="Eyes-Lizard6fil765" d="M8660 14513c17,17 35,33 54,49 402,-276 874,-554 1413,-789 -424,337 -770,681 -1052,1011 24,10 48,20 73,29 308,-292 657,-576 1053,-829 -232,292 -440,611 -612,938 32,5 64,8 97,11 186,-271 391,-547 620,-795 -109,262 -197,534 -246,802 35,-2 71,-5 106,-8 76,-255 174,-515 295,-756l-3 710c29,-6 57,-13 86,-20l84 -628 177 544c19,-7 37,-15 56,-23l3 -1 1 0 1 -1 1 0 1 -1c4,-2 8,-3 12,-5l-110 -588 304 489c22,-13 44,-26 65,-40l-257 -554 457 397 1 0 0 0 0 0c9,-9 18,-17 26,-26 10,-10 20,-21 30,-32l-446 -500 588 290c14,-27 28,-55 41,-84l-574 -373 650 169c12,-39 23,-79 33,-120l-670 -290 713 89c5,-30 10,-59 14,-89l-721 -174 741 0c3,-29 5,-59 7,-89l-754 -84 761 -64c1,-35 1,-71 1,-107l-768 -33 766 -107c-2,-40 -4,-81 -6,-121l-698 -1 687 -137c-4,-37 -8,-73 -13,-109l-705 48 681 -212c-7,-42 -15,-83 -23,-124l-696 101 658 -263c-9,-35 -19,-70 -30,-105l-671 164 504 -259c-72,-20 -148,-38 -228,-54l-344 121 217 -144c-211,-34 -443,-56 -690,-65 10,28 19,57 28,85 -19,-29 -38,-57 -57,-86 -60,-2 -120,-3 -182,-3 44,64 87,128 127,194 -78,-67 -157,-132 -239,-194 -77,0 -154,2 -233,5 137,121 268,248 392,381 -222,-139 -442,-261 -661,-367 -64,4 -128,9 -192,15 280,155 545,329 797,519 -453,-213 -952,-352 -1467,-435l-7 2c-12,18 -23,37 -34,57 502,147 986,328 1421,562 -510,-161 -1030,-245 -1583,-244 -11,26 -23,52 -33,79 555,69 1090,205 1604,394 -581,-76 -1152,-96 -1724,-51 -6,21 -12,43 -18,65 605,7 1199,70 1744,207 -591,-28 -1213,1 -1812,115 -5,32 -10,63 -14,95 591,-50 1185,-67 1774,-41 -598,58 -1196,179 -1794,368 0,18 0,36 0,54 591,-134 1191,-219 1801,-243 -615,126 -1206,302 -1770,554 3,16 6,32 9,48 571,-195 1150,-310 1724,-395 -553,178 -1095,409 -1624,713 6,15 13,30 21,45 517,-244 1061,-447 1640,-594 -532,280 -1013,611 -1399,938z"/>
            <path class="Eyes-Lizard6fil766" d="M11303 11751c-414,-77 -923,-101 -1457,-74 -200,422 -333,965 -316,1475 31,955 426,1454 1095,1265 669,-189 859,-1402 758,-2230 -19,-155 -46,-301 -80,-436z"/>
            <circle class="Eyes-Lizard6fil152" r="235" transform="matrix(0.386601 -0.693281 1.39025 0.889533 9274.35 14376.1)"/>
            <circle class="Eyes-Lizard6fil152" r="235" transform="matrix(0.437299 -0.127093 0.239024 0.657032 8790.54 13824.5)"/>
            <path class="Eyes-Lizard6fil152" d="M11142 12356c444,10 642,1002 9,1002 -578,0 -435,-1012 -9,-1002z"/>
            <path class="Eyes-Lizard6fil22 Eyes-Lizard6str0" d="M8524 14352c557,809 2184,744 2842,77 467,-472 521,-1738 252,-2569 -130,-270 -2715,-300 -2891,-73 -426,685 -700,1844 -203,2565z"/>
            <path class="Eyes-Lizard6fil740" d="M11773 12726c-19,-306 -71,-607 -155,-866 -666,-234 -1813,-252 -2891,-73 -168,270 -312,614 -395,975 791,-984 2882,-820 3441,-36z"/>
        </g>
    </g>
    <path class="Eyes-Lizard6fil14" d="M19394 13978c139,-654 -55,-1614 -677,-2434 -111,-147 -269,-358 -464,-468 1331,-963 -2210,-479 -2743,232 -532,710 -827,2205 -14,3344 989,1386 3530,1048 3898,-674z"/>
  <g>
        <animateTransform additive="sum" attributeName="transform" dur="10" repeatCount="indefinite" type="translate" values="0;0;0;0;0;0;0;0;0;0;0;0;0;0;0;0;0;0;0;0;0;0;0;0;0;0;0;0;0;0;0;0;0;0;0;0;0;0;0;0;0;0;0;0;0;0;0;0;0;0;0;0;0;0;0;0;0;0;0;0;0;0;0;0;0;0;0;0;0;0;0;0;0;0;0;0;0;0;0;0;0;0;0;0;0;0;0;0;0;0;0 13300;0"/> 
        <g>
            <animateTransform additive="sum" attributeName="transform" dur="10" repeatCount="indefinite" type="scale" values="1;1;1;1;1;1;1;1;1;1;1;1;1;1;1;1;1;1;1;1;1;1;1;1;1;1;1;1;1;1;1;1;1;1;1;1;1;1;1;1;1;1;1;1;1;1;1;1;1;1;1;1;1;1;1;1;1;1;1;1;1;1;1;1;1;1;1;1;1;1;1;1;1;1;1;1;1;1;1;1;1;1;1;1;1;1;1;1;1;1;1 0.01;1"/> 
            <path class="Eyes-Lizard6fil767" d="M18840 14352c-557,809 -2184,744 -2842,77 -467,-472 -521,-1738 -253,-2569 667,-234 1813,-252 2892,-73 426,685 700,1844 203,2565z"/>
            <path class="Eyes-Lizard6fil768" d="M18704 14513c-18,17 -35,33 -54,49 -402,-276 -874,-554 -1413,-789 424,337 770,681 1052,1011 -24,10 -48,20 -73,29 -308,-292 -657,-576 -1053,-829 231,292 440,611 612,938 -32,5 -65,8 -97,11 -186,-271 -391,-547 -620,-795 109,262 197,534 246,802 -35,-2 -71,-5 -106,-8 -76,-255 -174,-515 -295,-756l3 710c-29,-6 -57,-13 -86,-20l-84 -628 -177 544c-19,-7 -38,-15 -56,-23l-3 -1 -1 0 -1 -1 -1 0 -1 -1c-4,-2 -8,-3 -12,-5l110 -588 -304 489c-22,-13 -44,-26 -65,-40l257 -554 -457 397 -1 0 0 0 0 0c-9,-9 -18,-17 -26,-26 -10,-10 -20,-21 -30,-32l446 -500 -588 290c-14,-27 -28,-55 -41,-84l573 -373 -649 169c-12,-39 -23,-79 -34,-120l671 -290 -713 89c-5,-30 -10,-59 -14,-89l721 -174 -741 0c-3,-29 -5,-59 -7,-89l754 -84 -761 -64c-1,-35 -1,-71 -1,-107l768 -33 -766 -107c2,-40 4,-81 6,-121l698 -1 -687 -137c4,-37 8,-73 12,-109l706 48 -681 -212c7,-42 15,-83 23,-124l695 101 -657 -263c9,-35 19,-70 30,-105l671 164 -504 -259c72,-20 148,-38 228,-54l344 121 -217 -144c210,-34 443,-56 690,-65 -10,28 -19,57 -28,85 19,-29 38,-57 57,-86 60,-2 120,-3 181,-3 -43,64 -86,128 -126,194 78,-67 157,-132 239,-194 76,0 154,2 233,5 -137,121 -268,248 -392,381 222,-139 442,-261 661,-367 63,4 127,9 192,15 -280,155 -545,329 -797,519 453,-213 952,-352 1466,-435l8 2c11,18 23,37 34,57 -502,147 -987,328 -1421,562 510,-161 1030,-245 1583,-244 11,26 22,52 33,79 -555,69 -1090,205 -1604,394 580,-76 1152,-96 1724,-51 6,21 12,43 18,65 -605,7 -1199,70 -1745,207 592,-28 1214,1 1813,115 5,32 10,63 14,95 -591,-50 -1185,-67 -1775,-41 599,58 1197,179 1795,368 0,18 0,36 0,54 -592,-134 -1191,-219 -1801,-243 614,126 1205,302 1770,554 -3,16 -6,32 -9,48 -571,-195 -1151,-310 -1724,-395 553,178 1095,409 1624,713 -7,15 -13,30 -21,45 -517,-244 -1061,-447 -1640,-594 532,280 1013,611 1399,938z"/>
            <path class="Eyes-Lizard6fil769" d="M16143 11751c414,-77 922,-101 1456,-74 200,422 333,965 317,1475 -31,955 -426,1454 -1096,1265 -669,-189 -859,-1402 -758,-2230 19,-155 46,-301 81,-436z"/>
            <circle class="Eyes-Lizard6fil152" r="235" transform="matrix(0.386601 -0.693281 1.39025 0.889533 16701 14412.4)"/>
            <circle class="Eyes-Lizard6fil152" r="235" transform="matrix(0.437299 -0.127093 0.239024 0.657032 16208.1 13833.6)"/>
            <path class="Eyes-Lizard6fil152" d="M18061 12286c444,10 642,1002 9,1002 -578,0 -434,-1012 -9,-1002z"/>
            <path class="Eyes-Lizard6fil22 Eyes-Lizard6str0" d="M18840 14352c-557,809 -2184,744 -2842,77 -467,-472 -521,-1738 -253,-2569 130,-270 2716,-300 2892,-73 426,685 700,1844 203,2565z"/>
            <path class="Eyes-Lizard6fil740" d="M15591 12726c18,-306 71,-607 154,-866 667,-234 1813,-252 2892,-73 168,270 312,614 395,975 -791,-984 -2882,-820 -3441,-36z"/>
        </g>
    </g>
 </g><g id="Moustache-Lizard0">
 <animateTransform additive="sum" attributeName="transform" dur="10" repeatCount="indefinite" type="translate" values="0;0 200;0;0 200;0;0 200;0;0 200;0"/>
  <metadata id="CorelCorpID_398Corel-Layer"/>
  <rect class="Moustache-Lizard0fil22" height="802" width="919" x="13222" y="14329"/>
 </g><g id="Nose-Lizard0">
 <animateTransform additive="sum" attributeName="transform" dur="10" repeatCount="indefinite" type="translate" values="0;0 200;0;0 200;0;0 200;0;0 200;0"/>
  <metadata id="CorelCorpID_400Corel-Layer"/>
  <g>
   <path class="Nose-Lizard0fil100" d="M13012 15166c-94,181 -789,71 -592,-308 197,-378 686,127 592,308z" style="fill:#ff4243"/>
   <path class="Nose-Lizard0fil100" d="M14352 15166c94,181 789,71 592,-308 -197,-378 -687,127 -592,308z" style="fill:#b7891f"/>
  </g>
 </g><g id="AccessoryTeddy">
  <metadata id="CorelCorpID_6Corel-Layer"/>
  <g>
   <path class="AccessoryTeddyfil109 AccessoryTeddystr1" d="M7342 24083c-376,367 -734,92 -1120,-302 -385,-395 -508,-899 -275,-1126 233,-228 734,-93 1119,302 385,394 651,759 276,1126z" style="fill:#d9c601"/>
   <path class="AccessoryTeddyfil110 AccessoryTeddystr1" d="M3383 24083c376,367 734,92 1119,-302 386,-395 636,-998 402,-1225 -233,-228 -860,6 -1245,401 -386,394 -652,759 -276,1126z" style="fill:#30b021"/>
   <path class="AccessoryTeddyfil111" d="M5474 22410c640,0 1105,587 1322,1161 112,294 175,1129 -17,1563 -161,363 -464,317 -1305,317 -880,0 -1336,51 -1486,-333 -165,-422 -4,-1305 110,-1600 225,-583 735,-1108 1376,-1108z" style="fill:#9f21fa"/>
   <path class="AccessoryTeddyfil3" d="M6432 22924c9,-17 270,267 434,621 76,162 114,514 110,860 -3,276 -40,557 -129,759 -163,369 -434,367 -1121,363 -56,0 -117,-1 -252,-1 -140,0 -209,1 -275,1 -735,5 -1129,8 -1281,-382 -73,-189 -86,-458 -68,-730 26,-369 103,-750 178,-924 183,-426 425,-605 441,-589 17,17 -179,238 -301,643 -52,170 -144,525 -168,880 -18,253 -7,500 58,666 115,294 473,291 1141,287 107,-1 221,-2 275,-2 44,0 152,1 252,2 617,3 860,5 984,-275 81,-182 114,-441 117,-699 4,-328 -39,-648 -101,-807 -118,-305 -304,-656 -294,-673z" style="fill:#ebc7ab"/>
   <path class="AccessoryTeddyfil112" d="M5441 22923c422,0 729,302 872,681 358,949 -178,1322 -872,1322 -694,0 -1329,-264 -906,-1357 149,-384 484,-646 906,-646z" style="fill:#cf07c5"/>
   <path class="AccessoryTeddyfil113 AccessoryTeddystr1" d="M4534 21091c-308,0 -557,-222 -557,-496 0,-274 272,-592 580,-592 308,0 535,318 535,592 0,274 -250,496 -558,496z" style="fill:#b8dbaf"/>
   <path class="AccessoryTeddyfil19" d="M4573 20888c-153,0 -277,-111 -277,-247 0,-136 124,-246 277,-246 153,0 277,110 277,246 0,136 -124,247 -277,247z" style="fill:#eead28"/>
   <path class="AccessoryTeddyfil113 AccessoryTeddystr1" d="M6909 21352c-308,0 -557,-222 -557,-496 0,-274 269,-582 577,-582 308,0 538,308 538,582 0,274 -250,496 -558,496z" style="fill:#e70a26"/>
   <path class="AccessoryTeddyfil19" d="M6845 21167c-158,0 -286,-114 -286,-254 0,-140 128,-253 286,-253 157,0 285,113 285,253 0,140 -128,254 -285,254z" style="fill:#a2ab33"/>
   <path class="AccessoryTeddyfil114 AccessoryTeddystr1" d="M5493 20331c787,13 1234,692 1367,1304 132,611 -412,1168 -1605,1043 -1192,-126 -1303,-654 -1157,-1101 145,-446 609,-1260 1395,-1246z" style="fill:#ee20cb"/>
   <path class="AccessoryTeddyfil115" d="M5439 21393c431,45 822,371 786,717 -36,347 -738,429 -971,403 -234,-26 -812,-239 -776,-586 37,-347 530,-579 961,-534z" style="fill:#cbf7eb"/>
   <path class="AccessoryTeddyfil116 AccessoryTeddystr1" d="M3763 24181c419,-194 673,49 808,408 135,359 70,749 -211,880 -281,130 -610,-82 -808,-408 -197,-326 -207,-686 211,-880z" style="fill:#0097ad"/>
   <path class="AccessoryTeddyfil117" d="M3693 24534c42,-20 64,21 89,74 24,53 42,98 0,118 -42,19 -96,-8 -120,-61 -25,-53 -11,-112 31,-131zm316 152c119,-55 176,-94 246,56 69,151 53,307 -66,362 -119,55 -272,-22 -342,-172 -69,-151 43,-191 162,-246zm68 -337c42,-20 77,19 102,72 24,53 28,100 -13,119 -42,20 -96,-7 -121,-60 -24,-53 -10,-112 32,-131zm-236 27c46,-21 84,16 112,74 27,59 33,118 -14,139 -46,22 -106,-8 -133,-67 -28,-59 -12,-124 35,-146z" style="fill:#1f84fd"/>
   <path class="AccessoryTeddyfil118 AccessoryTeddystr1" d="M6934 24204c363,182 359,535 184,885 -176,351 -543,522 -820,383 -277,-138 -313,-489 -184,-885 130,-397 457,-565 820,-383z" style="fill:#8f0ed3"/>
   <path class="AccessoryTeddyfil119" d="M7009 24559c-41,-22 -66,16 -95,67 -28,51 -49,95 -9,118 40,22 96,-1 125,-52 28,-50 19,-110 -21,-133zm-328 127c-114,-64 -167,-107 -249,38 -81,144 -76,301 38,366 114,64 273,-1 354,-146 81,-144 -28,-193 -143,-258zm-40 -341c-41,-23 -79,13 -108,64 -28,51 -36,98 4,120 40,23 96,0 125,-51 28,-51 19,-111 -21,-133zm233 46c-45,-25 -86,9 -118,65 -31,57 -42,114 3,140 45,25 106,-1 138,-57 32,-57 21,-123 -23,-148z" style="fill:#2e0a9c"/>
   <path class="AccessoryTeddyfil120" d="M5033 20819c97,34 143,162 102,285 -40,124 -151,196 -248,162 -97,-34 -143,-162 -103,-286 40,-123 152,-196 249,-161z" style="fill:#f38912"/>
   <path class="AccessoryTeddyfil121" d="M5895 20863c103,-9 195,89 205,218 9,128 -67,240 -170,248 -104,9 -195,-88 -205,-217 -10,-129 66,-240 170,-249z" style="fill:#d59e7d"/>
   <ellipse class="AccessoryTeddyfil15" rx="135" ry="181" transform="matrix(0.829594 -0.069368 0.0580151 0.767535 5912.39 21095.8)"/>
   <ellipse class="AccessoryTeddyfil15" rx="135" ry="181" transform="matrix(0.786889 0.277973 -0.240129 0.736754 4959.74 21042.4)"/>
   <path class="AccessoryTeddyfil14" d="M5960 20949c18,-10 42,-1 53,20 11,22 6,48 -12,58 -18,11 -34,-2 -45,-24 -12,-21 -14,-43 4,-54z" style="fill:#37cd4a"/>
   <path class="AccessoryTeddyfil14" d="M5059 20926c21,-2 39,16 41,41 3,24 -12,46 -33,48 -21,3 -27,-16 -29,-41 -2,-25 1,-46 21,-48z" style="fill:#656488"/>
   <path class="AccessoryTeddyfil15" d="M5329 21486c408,22 178,349 -19,330 -197,-19 -388,-353 19,-330z" style="fill:#6a11ef"/>
   <path class="AccessoryTeddyfil2 AccessoryTeddystr8" d="M4818 21716c-84,107 -82,346 90,433 173,88 282,-23 385,-209 84,253 255,330 428,286 173,-44 301,-229 176,-443" style="fill:#4f3be2"/>
   <line class="AccessoryTeddyfil2 AccessoryTeddystr8" x1="5333" x2="5293" y1="21651" y2="21940"/>
  </g>
 </g><g id="HatUshanka-Medium">
 <animateTransform additive="sum" attributeName="transform" dur="10" repeatCount="indefinite" type="translate" values="0;0 200;0;0 200;0;0 200;0;0 200;0"/>
  <metadata id="CorelCorpID_72Corel-Layer"/>
  <path class="HatUshanka-Mediumfil679new HatUshanka-Mediumstr0new" d="M22896 14084c732,273 1517,312 2404,81 -41,-245 -146,-449 -299,-689 -717,363 -1269,431 -2009,221 -31,148 -65,240 -96,387z" style="fill:#646d05"/>
  <path class="HatUshanka-Mediumfil680new HatUshanka-Mediumstr6new" d="M19254 9461c24,1213 2131,2656 3492,3078 1483,459 933,2099 -387,2044 -1146,-48 -2563,-886 -3235,-3157 -276,-934 -51,-1607 130,-1965z" style="fill:#e857c5"/>
  <path class="HatUshanka-Mediumfil31new" d="M20588 11368c684,533 1506,969 2158,1171 675,209 928,662 881,1088 -155,-378 -608,-707 -843,-823 106,227 87,422 19,524 -196,-352 -557,-622 -984,-949 100,196 -5,493 -71,600 -206,-515 -559,-962 -1160,-1611z" style="fill:#0e41ea"/>
  <path class="HatUshanka-Mediumfil33new HatUshanka-Mediumstr6new" d="M19254 9461c24,1213 2131,2656 3492,3078 1483,459 933,2099 -387,2044 -1146,-48 -2563,-886 -3235,-3157 -276,-934 -51,-1607 130,-1965z" style="fill:#d97503"/>
  <path class="HatUshanka-Mediumfil14new" d="M23631 13576c-29,530 -528,1038 -1272,1007 -1146,-48 -2563,-886 -3235,-3157 -96,-326 -132,-620 -129,-880 626,1986 3054,4373 4636,3030z" style="fill:#468ed4"/>
  <path class="HatUshanka-Mediumfil679new HatUshanka-Mediumstr0new" d="M3594 11128c-510,-593 -818,-1316 -907,-2228 243,-46 471,-18 749,43 -92,798 35,1339 487,1961 -127,80 -202,144 -329,224z" style="fill:#078a08"/>
  <path class="HatUshanka-Mediumfil681new HatUshanka-Mediumstr6new" d="M7315 11182c-309,1281 -1846,743 -2559,-528 -584,-1041 -2209,-163 -1610,1287 491,1186 2066,1941 3155,1806 983,-121 1325,-584 1516,-1555 191,-970 -502,-1010 -502,-1010z" style="fill:#f3198d"/>
  <path class="HatUshanka-Mediumfil31new" d="M6241 11888c-526,-115 -1116,-576 -1485,-1234 -443,-789 -1485,-475 -1701,356 209,-423 757,-616 1191,-403 -441,-10 -766,342 -846,593 380,-131 979,-355 1518,107 -364,-87 -668,39 -789,166 682,-16 1337,570 2112,415z" style="fill:#730503"/>
  <path class="HatUshanka-Mediumfil33new HatUshanka-Mediumstr6new" d="M7315 11182c-309,1281 -1846,743 -2559,-528 -584,-1041 -2209,-163 -1610,1287 491,1186 2066,1941 3155,1806 983,-121 1325,-584 1516,-1555 191,-970 -502,-1010 -502,-1010z" style="fill:#fd4736"/>
  <path class="HatUshanka-Mediumfil14new" d="M3028 11508c18,137 56,282 118,433 491,1186 2066,1941 3155,1806 983,-121 1325,-584 1516,-1555 81,-410 4,-654 -112,-799 -52,867 -597,1858 -1632,1858 -1196,1 -2647,-754 -3045,-1743z" style="fill:#bf7aff"/>
  <path class="HatUshanka-Mediumfil682new HatUshanka-Mediumstr6new" d="M7788 12774c3696,-1000 7493,-1367 11404,-1004 220,21 426,-187 418,-408 -53,-1387 -44,-2184 -334,-3672 -215,-1104 -693,-2073 -1752,-2294 -2278,-478 -6338,-77 -8296,657 -1152,433 -1771,1186 -1951,2583 -200,1545 -192,2300 19,3893 29,219 278,303 492,245z" style="fill:#3ccf7a"/>
  <path class="HatUshanka-Mediumfil683new" d="M7733 12832c2874,-832 8062,-1209 11263,-994 109,7 216,15 321,24 406,34 540,-667 308,-955 -935,-1160 -1145,-1220 -1188,-2863 -28,-1076 -773,-1926 -1462,-2138 -1637,-503 -6230,165 -7604,819 -646,308 -1180,1059 -1228,2118 -72,1605 -367,2291 -906,3132 -230,357 129,963 496,857z" style="fill:#b2c482"/>
  <path class="HatUshanka-Mediumfil14new" d="M8369 12664c2991,-723 7767,-1034 10737,-818 -874,-427 -2968,-624 -5387,-451 -2506,178 -4610,699 -5350,1269z" style="fill:#04ef0b"/>
  <path class="HatUshanka-Mediumfil31new" d="M18432 7941c-70,-1026 -790,-1830 -1457,-2035 -1637,-503 -6230,165 -7604,819 -637,303 -1165,1037 -1226,2072 301,-756 664,-1439 1850,-1837 -222,204 -518,692 -563,1094 281,-471 1263,-1335 1998,-1561 -128,239 -476,1018 -515,1275 358,-421 1033,-1028 1647,-1299 -157,236 -314,481 -366,797 494,-577 1181,-1040 1878,-1175 -207,287 -405,628 -452,951 277,-407 899,-915 1539,-1025 -59,256 -82,635 45,926 281,-165 596,-543 779,-903 125,367 489,849 764,1083 127,-250 166,-624 -17,-945 764,277 1393,825 1700,1763z" style="fill:#c6263d"/>
  <path class="HatUshanka-Mediumfil33new HatUshanka-Mediumstr6new" d="M7733 12832c2973,-860 8419,-1234 11584,-970 406,34 540,-667 308,-955 -935,-1160 -1145,-1220 -1188,-2863 -28,-1076 -773,-1926 -1462,-2138 -1637,-503 -6230,165 -7604,819 -646,308 -1180,1059 -1228,2118 -72,1605 -367,2291 -906,3132 -230,357 129,963 496,857z" style="fill:#32c335"/>
  <path class="HatUshanka-Mediumfil684new HatUshanka-Mediumstr0new" d="M12636 10268c-8,-118 43,-275 89,-386 -71,13 -145,1 -211,-25 -91,-37 -168,-94 -229,-171 -53,-66 -94,-139 -115,-220 -31,-114 -39,-256 14,-365 24,-49 60,-90 118,-128 69,-44 142,-57 213,-49 43,5 84,17 123,35 -52,-100 -80,-229 -77,-341 3,-90 25,-178 73,-255 52,-85 154,-154 254,-161 92,-6 161,17 239,64 83,49 154,131 203,226 41,-122 129,-243 239,-309 165,-98 349,-41 458,108 63,85 95,193 102,298 5,71 -1,145 -19,215 62,-34 134,-52 203,-49 159,7 254,116 304,254 37,102 31,243 0,345 -49,159 -151,308 -312,368 -39,15 -79,23 -127,26 -17,1 89,147 105,175 47,84 84,175 90,260 5,69 -10,133 -40,187 -33,57 -82,101 -144,128 -146,64 -261,32 -406,-18 -89,-29 -178,-58 -272,-44 -108,16 -193,66 -289,108 -130,55 -274,89 -405,16 -56,-32 -103,-79 -134,-132 -32,-55 -42,-97 -47,-160z" style="fill:#444d88"/>
  <path class="HatUshanka-Mediumfil685new" d="M12756 10260c3,45 7,68 30,108 40,67 115,120 204,114 109,-8 191,-49 277,-88 41,-18 78,-33 121,-49 75,-27 134,-37 213,-31 24,2 43,4 65,8 116,21 267,98 360,92l2 0 11 -1c42,-3 58,-5 102,-25 76,-33 119,-106 113,-197 -9,-129 -124,-296 -204,-399 -45,-58 -108,-131 -163,-181 -23,-21 -43,-42 -65,-57l-70 -55c-31,-23 -88,-54 -126,-66 -97,-31 -125,-29 -222,-22 -134,9 -293,101 -378,199 -35,41 -34,42 -62,78 -90,116 -218,423 -208,572zm660 -1544l4 59c8,114 72,231 163,284 97,56 184,32 265,-37 120,-103 172,-269 161,-425 -6,-97 -37,-179 -78,-236 -30,-40 -81,-82 -129,-95 -27,-7 -48,-11 -66,-11l-25 2c-22,3 -44,12 -77,27 -26,13 -51,28 -70,48 -28,28 -18,14 -45,51 -66,90 -110,219 -103,333zm-356 418c84,-6 141,-50 181,-121 116,-205 10,-535 -175,-644 -53,-32 -100,-52 -170,-48 -64,5 -131,56 -161,105 -76,123 -66,288 -12,430 19,52 65,127 103,165 62,60 141,119 234,113zm881 216c5,85 21,145 73,206 31,37 91,77 156,73 72,-5 119,-23 174,-65 80,-60 129,-150 158,-245 22,-70 22,-135 17,-213 -2,-34 -27,-93 -45,-123 -11,-19 -20,-31 -34,-47 -71,-83 -202,-77 -293,-14 -65,45 -114,102 -150,173 -33,64 -63,158 -56,255zm-1677 -39c4,54 7,73 21,124 8,28 17,53 29,77 30,60 84,133 139,173 64,47 140,88 230,82 129,-9 197,-143 188,-275 -10,-150 -68,-254 -157,-338 -19,-18 -31,-30 -56,-47 -87,-60 -194,-96 -292,-33 -74,48 -91,102 -99,184 -2,19 -4,33 -3,53z" style="fill:#b82ce8"/>
 </g></svg>