<svg xmlns="http://www.w3.org/2000/svg" xmlns:xlink="http://www.w3.org/1999/xlink" style="shape-rendering:geometricPrecision; text-rendering:geometricPrecision; image-rendering:optimizeQuality; fill-rule:evenodd; clip-rule:evenodd" version="1.1" viewBox="0 0 29000 29000" xml:space="preserve"><defs><style type="text/css">.HairBack-Lizard3fil14 {fill:black;fill-opacity:0.200000}
.HairBack-Lizard3fil605 {fill:url(#HairBack-Lizard3id822)}
.HairBack-Lizard3str5 {stroke:black;stroke-width:100;stroke-linecap:round;stroke-linejoin:round}
.HairBack-Lizard3fil606 {fill:url(#HairBack-Lizard3id1003)}
.HairBack-Lizard3fil613 {fill:url(#HairBack-Lizard3id103)}
.HairBack-Lizard3str0 {stroke:black;stroke-width:150;stroke-linecap:round;stroke-linejoin:round}
.HairBack-Lizard3fil608 {fill:url(#HairBack-Lizard3id821)}
.HairBack-Lizard3fil609 {fill:url(#HairBack-Lizard3id840)}
.HairBack-Lizard3fil614 {fill:url(#HairBack-Lizard3id296)}
.Tail-Lizard7fil615 {fill:url(#Tail-Lizard7id237)}
.Tail-Lizard7fil629 {fill:url(#Tail-Lizard7id238)}
.Tail-Lizard7fil22 {fill:none}
.Tail-Lizard7str0 {stroke:black;stroke-width:150;stroke-linecap:round;stroke-linejoin:round}
.RightFoot-Lizard0fil636 {fill:url(#RightFoot-Lizard0id220)}
.RightFoot-Lizard0fil32 {fill:black;fill-rule:nonzero}
.RightLeg-Lizard0fil639 {fill:url(#RightLeg-Lizard0id33)}
.RightLeg-Lizard0fil14 {fill:black;fill-opacity:0.200000}
.RightLeg-Lizard0fil32 {fill:black;fill-rule:nonzero}
.LeftFoot-Lizard0fil645 {fill:url(#LeftFoot-Lizard0id444)}
.LeftFoot-Lizard0fil32 {fill:black;fill-rule:nonzero}
.LeftLeg-Lizard0fil648 {fill:url(#LeftLeg-Lizard0id17)}
.LeftLeg-Lizard0fil14 {fill:black;fill-opacity:0.200000}
.LeftLeg-Lizard0fil32 {fill:black;fill-rule:nonzero}
.RightHand-Lizard0fil655 {fill:url(#RightHand-Lizard0id333)}
.RightHand-Lizard0fil14 {fill:black;fill-opacity:0.200000}
.RightHand-Lizard0fil32 {fill:black;fill-rule:nonzero}
.RightPaw-Lizard0fil661 {fill:url(#RightPaw-Lizard0id332)}
.RightPaw-Lizard0fil32 {fill:black;fill-rule:nonzero}
.LeftHand-Lizard0fil664 {fill:url(#LeftHand-Lizard0id879)}
.LeftHand-Lizard0fil14 {fill:black;fill-opacity:0.200000}
.LeftHand-Lizard0fil32 {fill:black;fill-rule:nonzero}
.LeftPaw-Lizard0fil671 {fill:url(#LeftPaw-Lizard0id580)}
.LeftPaw-Lizard0fil32 {fill:black;fill-rule:nonzero}
.Body-Lizard4fil674 {fill:url(#Body-Lizard4id282)}
.Body-Lizard4fil14 {fill:black;fill-opacity:0.200000}
.Body-Lizard4fil32 {fill:black;fill-rule:nonzero}
.Body-Lizard4fil678 {fill:url(#Body-Lizard4id754)}
.Body-Lizard4fil628 {fill:white;fill-opacity:0.301961}
.Ears-Lizard0fil22 {fill:none}
.Head-Lizard0fil685 {fill:url(#Head-Lizard0id122)}
.Head-Lizard0fil14 {fill:black;fill-opacity:0.200000}
.Head-Lizard0fil32 {fill:black;fill-rule:nonzero}
.Head-Lizard0fil686 {fill:url(#Head-Lizard0id1041)}
.Mouth-Lizard0fil708 {fill:url(#Mouth-Lizard0id185)}
.Mouth-Lizard0fil22 {fill:none}
.Mouth-Lizard0str0 {stroke:black;stroke-width:150;stroke-linecap:round;stroke-linejoin:round}
.Mouth-Lizard0str11 {stroke:#2B2A29;stroke-width:150;stroke-linecap:round;stroke-linejoin:round}
.Eyes-Lizard5fil14 {fill:black;fill-opacity:0.200000}
.Eyes-Lizard5fil758 {fill:url(#Eyes-Lizard5id352)}
.Eyes-Lizard5fil759 {fill:url(#Eyes-Lizard5id12)}
.Eyes-Lizard5fil740 {fill:black;fill-opacity:0.400000}
.Eyes-Lizard5fil760 {fill:url(#Eyes-Lizard5id1072)}
.Eyes-Lizard5fil152 {fill:white}
.Eyes-Lizard5fil761 {fill:url(#Eyes-Lizard5id415)}
.Eyes-Lizard5fil762 {fill:url(#Eyes-Lizard5id262)}
.Eyes-Lizard5fil763 {fill:url(#Eyes-Lizard5id1068)}
.Eyes-Lizard5fil22 {fill:none}
.Eyes-Lizard5str4 {stroke:black;stroke-width:150}
.Moustache-Lizard0fil22 {fill:none}
.Nose-Lizard0fil100 {fill:black}
.Hair-Lizard6fil32 {fill:black;fill-rule:nonzero}
.Hair-Lizard6fil810 {fill:url(#Hair-Lizard6id986)}
.Hair-Lizard6str0 {stroke:black;stroke-width:150;stroke-linecap:round;stroke-linejoin:round}
.Hair-Lizard6fil811 {fill:url(#Hair-Lizard6id938)}
.Hair-Lizard6fil812 {fill:url(#Hair-Lizard6id936)}
.Hair-Lizard6fil813 {fill:url(#Hair-Lizard6id910)}
.Hair-Lizard6fil814 {fill:url(#Hair-Lizard6id893)}
.Hair-Lizard6fil815 {fill:url(#Hair-Lizard6id922)}
.Hair-Lizard6fil816 {fill:url(#Hair-Lizard6id905)}
.Hair-Lizard6fil817 {fill:url(#Hair-Lizard6id1028)}
.BraceletLeather-Mediumfil43new {fill:white;fill-opacity:0.200000}
.BraceletLeather-Mediumfil46new {fill:white;fill-rule:nonzero;fill-opacity:0.200000}
.BraceletLeather-Mediumfil42new {fill:url(#BraceletLeather-Mediumid14new)}
.BraceletLeather-Mediumstr3new {stroke:black;stroke-width:100;stroke-linecap:round;stroke-linejoin:round}
.BraceletLeather-Mediumfil33new {fill:none}
.BraceletLeather-Mediumfil44new {fill:url(#BraceletLeather-Mediumid88new)}
.BraceletLeather-Mediumfil45new {fill:url(#BraceletLeather-Mediumid672new);fill-rule:nonzero}
.BraceletLeather-Mediumstr4new {stroke:black;stroke-width:100}
.BraceletLeather-Mediumfil47new {fill:none;fill-rule:nonzero}
.BraceletLeather-Mediumfil48new {fill:url(#BraceletLeather-Mediumid15new)}
.BraceletLeather-Mediumfil49new {fill:url(#BraceletLeather-Mediumid207new)}
.BraceletLeather-Mediumfil50new {fill:url(#BraceletLeather-Mediumid690new);fill-rule:nonzero}
.NecklaceYinYangfil225new {fill:url(#NecklaceYinYangid676new);fill-rule:nonzero}
.NecklaceYinYangfil46new {fill:white;fill-rule:nonzero;fill-opacity:0.200000}
.NecklaceYinYangfil84new {fill:black}
.NecklaceYinYangfil83new {fill:white}
.NecklaceYinYangfil47new {fill:none;fill-rule:nonzero}
.NecklaceYinYangstr4new {stroke:black;stroke-width:100}
.NecklaceYinYangfil226new {fill:url(#NecklaceYinYangid677new);fill-rule:nonzero}
.NecklaceYinYangstr3new {stroke:black;stroke-width:100;stroke-linecap:round;stroke-linejoin:round}
.NecklaceYinYangfil227new {fill:url(#NecklaceYinYangid669new);fill-rule:nonzero}
.NecklaceYinYangfil228new {fill:url(#NecklaceYinYangid705new);fill-rule:nonzero}
.NecklaceYinYangfil229new {fill:url(#NecklaceYinYangid685new);fill-rule:nonzero}
.NecklaceYinYangfil230new {fill:url(#NecklaceYinYangid101new)}
.NecklaceShipWheelfil14new {fill:black;fill-opacity:0.200000}
.NecklaceShipWheelfil372new {fill:url(#NecklaceShipWheelid598new)}
.NecklaceShipWheelfil373new {fill:#EDC26D;fill-opacity:0.301961}
.NecklaceShipWheelfil375new {fill:url(#NecklaceShipWheelid339new)}
.NecklaceShipWheelfil377new {fill:url(#NecklaceShipWheelid552new)}
.NecklaceShipWheelfil379new {fill:url(#NecklaceShipWheelid476new)}
.NecklaceShipWheelfil381new {fill:url(#NecklaceShipWheelid592new)}
.NecklaceShipWheelfil383new {fill:url(#NecklaceShipWheelid392new)}
.NecklaceShipWheelfil385new {fill:url(#NecklaceShipWheelid560new)}
.NecklaceShipWheelfil387new {fill:url(#NecklaceShipWheelid388new)}
.NecklaceShipWheelfil389new {fill:url(#NecklaceShipWheelid577new)}
.NecklaceShipWheelfil391new {fill:url(#NecklaceShipWheelid522new)}
.NecklaceShipWheelfil393new {fill:url(#NecklaceShipWheelid605new)}
.NecklaceShipWheelfil395new {fill:url(#NecklaceShipWheelid384new)}
.NecklaceShipWheelfil399new {fill:#EDC26D;fill-opacity:0.200000}
.NecklaceShipWheelfil371new {fill:url(#NecklaceShipWheelid0new)}
.NecklaceShipWheelstr0new {stroke:black;stroke-width:150;stroke-linecap:round;stroke-linejoin:round}
.NecklaceShipWheelfil33new {fill:none}
.NecklaceShipWheelfil374 {fill:url(#NecklaceShipWheelid1004)}
.NecklaceShipWheelfil376new {fill:url(#NecklaceShipWheelid291new)}
.NecklaceShipWheelfil378new {fill:url(#NecklaceShipWheelid520new)}
.NecklaceShipWheelfil380new {fill:url(#NecklaceShipWheelid266new)}
.NecklaceShipWheelfil382new {fill:url(#NecklaceShipWheelid341new)}
.NecklaceShipWheelfil384new {fill:url(#NecklaceShipWheelid334new)}
.NecklaceShipWheelfil386new {fill:url(#NecklaceShipWheelid309new)}
.NecklaceShipWheelfil388new {fill:url(#NecklaceShipWheelid524new)}
.NecklaceShipWheelfil390new {fill:url(#NecklaceShipWheelid468new)}
.NecklaceShipWheelfil392new {fill:url(#NecklaceShipWheelid431new)}
.NecklaceShipWheelfil394new {fill:url(#NecklaceShipWheelid526new)}
.NecklaceShipWheelfil396new {fill:url(#NecklaceShipWheelid443new)}
.NecklaceShipWheelfil397new {fill:url(#NecklaceShipWheelid198new)}
.NecklaceShipWheelfil398new {fill:url(#NecklaceShipWheelid505new)}
.NecklaceShipWheelstr6new {stroke:black;stroke-width:150}
.HatGlasses-Bigfil571new {fill:white;fill-opacity:0.400000}
.HatGlasses-Bigfil572new {fill:white;fill-opacity:0.701961}
.HatGlasses-Bigfil708new {fill:url(#HatGlasses-Bigid683new);fill-rule:nonzero}
</style><linearGradient gradientUnits="objectBoundingBox" id="HairBack-Lizard3id822" x1="27.0587%" x2="72.9413%" xlink:href="#HairBack-Lizard3id78" y1="78.7196%" y2="21.2781%">
  </linearGradient><linearGradient gradientUnits="objectBoundingBox" id="HairBack-Lizard3id1003" x1="45.9175%" x2="54.0825%" xlink:href="#HairBack-Lizard3id78" y1="90.056%" y2="9.94402%">
  </linearGradient><linearGradient gradientUnits="userSpaceOnUse" id="HairBack-Lizard3id103" x1="10942" x2="8559.36" y1="15613.5" y2="20378.7">
   <stop offset="0" style="stop-opacity:1; stop-color:#3aba3a"/>
   <stop offset="0.478431" style="stop-opacity:1; stop-color:#50e051"/>
   <stop offset="1" style="stop-opacity:1; stop-color:#6ec7ff"/>
  </linearGradient><linearGradient gradientUnits="objectBoundingBox" id="HairBack-Lizard3id821" x1="72.9413%" x2="27.0587%" xlink:href="#HairBack-Lizard3id78" y1="78.7196%" y2="21.2781%">
  </linearGradient><linearGradient gradientUnits="objectBoundingBox" id="HairBack-Lizard3id840" x1="54.0825%" x2="45.9175%" xlink:href="#HairBack-Lizard3id78" y1="90.056%" y2="9.94402%">
  </linearGradient><linearGradient gradientUnits="userSpaceOnUse" id="HairBack-Lizard3id296" x1="16381.1" x2="18763.7" xlink:href="#HairBack-Lizard3id103" y1="15613.5" y2="20378.7">
  </linearGradient><linearGradient gradientUnits="objectBoundingBox" id="Tail-Lizard7id237" x1="39.9431%" x2="60.0569%" y1="102.625%" y2="0%">
   <stop offset="0" style="stop-opacity:1; stop-color:#3aba3a"/>
   <stop offset="0.411765" style="stop-opacity:1; stop-color:#50e051"/>
   <stop offset="1" style="stop-opacity:1; stop-color:#7ffa7f"/>
  </linearGradient><linearGradient gradientUnits="userSpaceOnUse" id="Tail-Lizard7id238" x1="16517.1" x2="18627.5" xlink:href="#Tail-Lizard7id74" y1="24649.6" y2="16773.3">
  </linearGradient><linearGradient gradientUnits="userSpaceOnUse" id="RightFoot-Lizard0id220" x1="16306.2" x2="16825.8" y1="23871.7" y2="25810.9">
   <stop offset="0" style="stop-opacity:1; stop-color:#7ffa7f"/>
   <stop offset="0.101961" style="stop-opacity:1; stop-color:#7ffa7f"/>
   <stop offset="1" style="stop-opacity:1; stop-color:#ddddcb"/>
  </linearGradient><linearGradient gradientUnits="userSpaceOnUse" id="RightLeg-Lizard0id33" x1="15490.3" x2="15490.3" xlink:href="#RightLeg-Lizard0id17" y1="24310" y2="21166.6">
  </linearGradient><linearGradient gradientUnits="userSpaceOnUse" id="LeftFoot-Lizard0id444" x1="11057.6" x2="10538" xlink:href="#LeftFoot-Lizard0id220" y1="23871.7" y2="25810.9">
  </linearGradient><linearGradient gradientUnits="userSpaceOnUse" id="LeftLeg-Lizard0id17" x1="11873.5" x2="11873.5" y1="24310" y2="21166.6">
   <stop offset="0" style="stop-opacity:1; stop-color:#7ffa7f"/>
   <stop offset="0.431373" style="stop-opacity:1; stop-color:#7ffa7f"/>
   <stop offset="1" style="stop-opacity:1; stop-color:#50e051"/>
  </linearGradient><linearGradient gradientUnits="objectBoundingBox" id="RightHand-Lizard0id333" x1="39.0063%" x2="60.9934%" y1="1.86633%" y2="98.1334%">
   <stop offset="0" style="stop-opacity:1; stop-color:#3aba3a"/>
   <stop offset="0.788235" style="stop-opacity:1; stop-color:#50e051"/>
   <stop offset="1" style="stop-opacity:1; stop-color:#50e051"/>
  </linearGradient><linearGradient gradientUnits="userSpaceOnUse" id="RightPaw-Lizard0id332" x1="17833.9" x2="18955.5" y1="19888.5" y2="21831.2">
   <stop offset="0" style="stop-opacity:1; stop-color:#50e051"/>
   <stop offset="0.2" style="stop-opacity:1; stop-color:#50e051"/>
   <stop offset="1" style="stop-opacity:1; stop-color:#7ffa7f"/>
  </linearGradient><linearGradient gradientUnits="userSpaceOnUse" id="LeftHand-Lizard0id879" x1="10916.9" x2="9907.76" xlink:href="#LeftHand-Lizard0id333" y1="17558.9" y2="20732.9">
  </linearGradient><linearGradient gradientUnits="userSpaceOnUse" id="LeftPaw-Lizard0id580" x1="9529.97" x2="8408.35" xlink:href="#LeftPaw-Lizard0id332" y1="19888.5" y2="21831.2">
  </linearGradient><linearGradient gradientUnits="objectBoundingBox" id="Body-Lizard4id282" x1="50%" x2="50%" y1="0%" y2="100%">
   <stop offset="0" style="stop-opacity:1; stop-color:#3aba3a"/>
   <stop offset="0.501961" style="stop-opacity:1; stop-color:#50e051"/>
   <stop offset="1" style="stop-opacity:1; stop-color:#7ffa7f"/>
  </linearGradient><linearGradient gradientUnits="objectBoundingBox" id="Body-Lizard4id754" x1="50%" x2="50%" xlink:href="#Body-Lizard4id641" y1="100%" y2="0%">
  </linearGradient><linearGradient gradientUnits="userSpaceOnUse" id="Head-Lizard0id122" x1="13681.9" x2="13681.9" y1="17788.8" y2="7794.35">
   <stop offset="0" style="stop-opacity:1; stop-color:#3aba3a"/>
   <stop offset="0.219608" style="stop-opacity:1; stop-color:#50e051"/>
   <stop offset="0.639216" style="stop-opacity:1; stop-color:#50e051"/>
   <stop offset="1" style="stop-opacity:1; stop-color:#7ffa7f"/>
  </linearGradient><radialGradient cx="13653.8" cy="14622.1" fx="13653.8" fy="14622.1" gradientTransform="matrix(1 -0 -0 0.789835 0 3073)" gradientUnits="userSpaceOnUse" id="Head-Lizard0id1041" r="2412.15">
   <stop offset="0" style="stop-opacity:1; stop-color:#3aba3a"/>
   <stop offset="1" style="stop-opacity:1; stop-color:#50e051"/>
  </radialGradient><linearGradient gradientUnits="objectBoundingBox" id="Mouth-Lizard0id185" x1="50%" x2="50%" xlink:href="#Mouth-Lizard0id133" y1="100%" y2="0%">
  </linearGradient><linearGradient gradientUnits="objectBoundingBox" id="Eyes-Lizard5id352" x1="55.115%" x2="44.8847%" xlink:href="#Eyes-Lizard5id0" y1="98.9977%" y2="1.00257%">
  </linearGradient><linearGradient gradientUnits="objectBoundingBox" id="Eyes-Lizard5id12" x1="50%" x2="50%" xlink:href="#Eyes-Lizard5id2" y1="100%" y2="0%">
  </linearGradient><radialGradient cx="10333.8" cy="13407.5" fx="10333.8" fy="13407.5" gradientTransform="matrix(0.273727 1.55794 -1.02157 0.41745 21202 -8289)" gradientUnits="userSpaceOnUse" id="Eyes-Lizard5id1072" r="1083.69" xlink:href="#Eyes-Lizard5id1055">
  </radialGradient><linearGradient gradientUnits="userSpaceOnUse" id="Eyes-Lizard5id415" x1="17198.1" x2="17569.5" xlink:href="#Eyes-Lizard5id0" y1="14916.8" y2="10671.8">
  </linearGradient><linearGradient gradientUnits="userSpaceOnUse" id="Eyes-Lizard5id262" x1="17383.3" x2="17383.3" xlink:href="#Eyes-Lizard5id2" y1="14954.7" y2="10628.7">
  </linearGradient><radialGradient cx="17030" cy="13407.5" fx="17030" fy="13407.5" gradientTransform="matrix(-0.273727 1.55794 1.02157 0.41745 7995 -18721)" gradientUnits="userSpaceOnUse" id="Eyes-Lizard5id1068" r="1083.69" xlink:href="#Eyes-Lizard5id1055">
  </radialGradient><linearGradient gradientUnits="userSpaceOnUse" id="Hair-Lizard6id986" x1="12730.7" x2="12707.4" xlink:href="#Hair-Lizard6id49" y1="7891.9" y2="6910.78">
  </linearGradient><linearGradient gradientUnits="userSpaceOnUse" id="Hair-Lizard6id938" x1="14853.9" x2="14897.8" xlink:href="#Hair-Lizard6id49" y1="7912.39" y2="6348.47">
  </linearGradient><linearGradient gradientUnits="userSpaceOnUse" id="Hair-Lizard6id936" x1="14168.9" x2="15255.2" xlink:href="#Hair-Lizard6id49" y1="8041.33" y2="5055.01">
  </linearGradient><linearGradient gradientUnits="userSpaceOnUse" id="Hair-Lizard6id910" x1="14734.6" x2="13566.7" xlink:href="#Hair-Lizard6id49" y1="7604.89" y2="3497.15">
  </linearGradient><linearGradient gradientUnits="userSpaceOnUse" id="Hair-Lizard6id893" x1="12350.2" x2="14056.7" xlink:href="#Hair-Lizard6id49" y1="7054.79" y2="4582.31">
  </linearGradient><linearGradient gradientUnits="userSpaceOnUse" id="Hair-Lizard6id922" x1="13050" x2="11908.4" xlink:href="#Hair-Lizard6id49" y1="8224.38" y2="5255.02">
  </linearGradient><linearGradient gradientUnits="userSpaceOnUse" id="Hair-Lizard6id905" x1="13680.2" x2="14270" xlink:href="#Hair-Lizard6id49" y1="8611.28" y2="5302.84">
  </linearGradient><linearGradient gradientUnits="userSpaceOnUse" id="Hair-Lizard6id1028" x1="13856" x2="14579.8" xlink:href="#Hair-Lizard6id49" y1="8953.69" y2="6423.57">
  </linearGradient><linearGradient gradientUnits="userSpaceOnUse" id="BraceletLeather-Mediumid14new" x1="8682.96" x2="8745.92" y1="19682.8" y2="19053.1">
   <stop offset="0" style="stop-opacity:1; stop-color:#683501"/>
   <stop offset="1" style="stop-opacity:1; stop-color:#B08227"/>
  </linearGradient><linearGradient gradientUnits="userSpaceOnUse" id="BraceletLeather-Mediumid88new" x1="8626.8" x2="8294.02" xlink:href="#BraceletLeather-Mediumid14new" y1="19859" y2="19314.4">
  </linearGradient><linearGradient gradientUnits="userSpaceOnUse" id="BraceletLeather-Mediumid672new" x1="8784.44" x2="10049.5" y1="19759" y2="20796.3">
   <stop offset="0" style="stop-opacity:1; stop-color:#643300"/>
   <stop offset="0.321569" style="stop-opacity:1; stop-color:#B5872A"/>
   <stop offset="1" style="stop-opacity:1; stop-color:#643300"/>
  </linearGradient><linearGradient gradientUnits="userSpaceOnUse" id="BraceletLeather-Mediumid15new" x1="18680.9" x2="18617.9" xlink:href="#BraceletLeather-Mediumid14new" y1="19682.8" y2="19053.1">
  </linearGradient><linearGradient gradientUnits="userSpaceOnUse" id="BraceletLeather-Mediumid207new" x1="18737" x2="19069.8" xlink:href="#BraceletLeather-Mediumid14new" y1="19859" y2="19314.4">
  </linearGradient><linearGradient gradientUnits="userSpaceOnUse" id="BraceletLeather-Mediumid690new" x1="18579.4" x2="17314.3" xlink:href="#BraceletLeather-Mediumid672new" y1="19759" y2="20796.3">
  </linearGradient><linearGradient gradientUnits="userSpaceOnUse" id="NecklaceYinYangid676new" x1="13681.9" x2="13681.9" xlink:href="#NecklaceYinYangid669new" y1="17208" y2="20390.5">
  </linearGradient><linearGradient gradientUnits="userSpaceOnUse" id="NecklaceYinYangid677new" x1="11189" x2="11399.5" xlink:href="#NecklaceYinYangid669new" y1="18603.5" y2="18002.2">
  </linearGradient><linearGradient gradientUnits="userSpaceOnUse" id="NecklaceYinYangid705new" x1="16170.9" x2="15961.3" xlink:href="#NecklaceYinYangid669new" y1="18602.8" y2="18004">
  </linearGradient><linearGradient gradientUnits="userSpaceOnUse" id="NecklaceYinYangid685new" x1="15099" x2="14900.7" xlink:href="#NecklaceYinYangid669new" y1="19895.5" y2="19273.3">
  </linearGradient><linearGradient gradientUnits="userSpaceOnUse" id="NecklaceYinYangid101new" x1="13681.9" x2="13681.9" y1="20483.4" y2="19943.6">
   <stop offset="0" style="stop-opacity:1; stop-color:#2B2A29"/>
   <stop offset="1" style="stop-opacity:1; stop-color:#ddddcb"/>
  </linearGradient><linearGradient gradientUnits="userSpaceOnUse" id="NecklaceShipWheelid598new" x1="10946.7" x2="11398.3" xlink:href="#NecklaceShipWheelid198new" y1="16600" y2="17725.9">
  </linearGradient><linearGradient gradientUnits="userSpaceOnUse" id="NecklaceShipWheelid339new" x1="12518.8" x2="12947" xlink:href="#NecklaceShipWheelid198new" y1="18755.5" y2="19611.7">
  </linearGradient><linearGradient gradientUnits="userSpaceOnUse" id="NecklaceShipWheelid552new" x1="9023.86" x2="10212.5" xlink:href="#NecklaceShipWheelid198new" y1="20827.6" y2="21151.5">
  </linearGradient><linearGradient gradientUnits="userSpaceOnUse" id="NecklaceShipWheelid476new" x1="11591.8" x2="12634.8" xlink:href="#NecklaceShipWheelid198new" y1="20530.1" y2="20746.4">
  </linearGradient><linearGradient gradientUnits="userSpaceOnUse" id="NecklaceShipWheelid592new" x1="11552" x2="12513.5" xlink:href="#NecklaceShipWheelid198new" y1="24648.7" y2="23806.9">
  </linearGradient><linearGradient gradientUnits="userSpaceOnUse" id="NecklaceShipWheelid392new" x1="12660.1" x2="13464.5" xlink:href="#NecklaceShipWheelid198new" y1="22282.5" y2="21518.6">
  </linearGradient><linearGradient gradientUnits="userSpaceOnUse" id="NecklaceShipWheelid560new" x1="16417.2" x2="15965.5" xlink:href="#NecklaceShipWheelid198new" y1="24294" y2="23168.1">
  </linearGradient><linearGradient gradientUnits="userSpaceOnUse" id="NecklaceShipWheelid388new" x1="14845" x2="14416.8" xlink:href="#NecklaceShipWheelid198new" y1="22138.5" y2="21282.3">
  </linearGradient><linearGradient gradientUnits="userSpaceOnUse" id="NecklaceShipWheelid577new" x1="18340" x2="17151.4" xlink:href="#NecklaceShipWheelid198new" y1="20066.3" y2="19742.5">
  </linearGradient><linearGradient gradientUnits="userSpaceOnUse" id="NecklaceShipWheelid522new" x1="15772" x2="14729.1" xlink:href="#NecklaceShipWheelid198new" y1="20363.9" y2="20147.6">
  </linearGradient><linearGradient gradientUnits="userSpaceOnUse" id="NecklaceShipWheelid605new" x1="15811.8" x2="14850.3" xlink:href="#NecklaceShipWheelid198new" y1="16245.3" y2="17087.1">
  </linearGradient><linearGradient gradientUnits="userSpaceOnUse" id="NecklaceShipWheelid384new" x1="14703.8" x2="13899.3" xlink:href="#NecklaceShipWheelid198new" y1="18611.5" y2="19375.4">
  </linearGradient><linearGradient gradientUnits="userSpaceOnUse" id="NecklaceShipWheelid0new" x1="13681.9" x2="13681.9" y1="25815.8" y2="19053.8">
   <stop offset="0" style="stop-opacity:1; stop-color:#96612C"/>
   <stop offset="1" style="stop-opacity:1; stop-color:#472809"/>
  </linearGradient><linearGradient gradientUnits="userSpaceOnUse" id="NecklaceShipWheelid1004" x1="10847.2" x2="10197.9" xlink:href="#NecklaceShipWheelid27" y1="14638.9" y2="11698.6">
  </linearGradient><linearGradient gradientUnits="userSpaceOnUse" id="NecklaceShipWheelid291new" x1="12300.1" x2="12310.4" xlink:href="#NecklaceShipWheelid198new" y1="18376.7" y2="18866.9">
  </linearGradient><linearGradient gradientUnits="userSpaceOnUse" id="NecklaceShipWheelid520new" x1="10722.1" x2="10282.8" xlink:href="#NecklaceShipWheelid198new" y1="20695" y2="20990.7">
  </linearGradient><linearGradient gradientUnits="userSpaceOnUse" id="NecklaceShipWheelid266new" x1="11162.9" x2="11662.9" xlink:href="#NecklaceShipWheelid198new" y1="20628.7" y2="20824.5">
  </linearGradient><linearGradient gradientUnits="userSpaceOnUse" id="NecklaceShipWheelid341new" x1="12385.5" x2="12484.5" xlink:href="#NecklaceShipWheelid198new" y1="23148.3" y2="23648.7">
  </linearGradient><linearGradient gradientUnits="userSpaceOnUse" id="NecklaceShipWheelid334new" x1="12586.8" x2="12992.4" xlink:href="#NecklaceShipWheelid198new" y1="22698.8" y2="22404.8">
  </linearGradient><linearGradient gradientUnits="userSpaceOnUse" id="NecklaceShipWheelid309new" x1="15384.4" x2="15844.6" xlink:href="#NecklaceShipWheelid198new" y1="22929.3" y2="23075.9">
  </linearGradient><linearGradient gradientUnits="userSpaceOnUse" id="NecklaceShipWheelid524new" x1="15063.8" x2="15053.4" xlink:href="#NecklaceShipWheelid198new" y1="22517.3" y2="22027.1">
  </linearGradient><linearGradient gradientUnits="userSpaceOnUse" id="NecklaceShipWheelid468new" x1="16641.7" x2="17081.1" xlink:href="#NecklaceShipWheelid198new" y1="20199" y2="19903.3">
  </linearGradient><linearGradient gradientUnits="userSpaceOnUse" id="NecklaceShipWheelid431new" x1="16201" x2="15700.9" xlink:href="#NecklaceShipWheelid198new" y1="20265.3" y2="20069.4">
  </linearGradient><linearGradient gradientUnits="userSpaceOnUse" id="NecklaceShipWheelid526new" x1="14978.3" x2="14879.4" xlink:href="#NecklaceShipWheelid198new" y1="17745.7" y2="17245.3">
  </linearGradient><linearGradient gradientUnits="userSpaceOnUse" id="NecklaceShipWheelid443new" x1="14777" x2="14371.5" xlink:href="#NecklaceShipWheelid198new" y1="18195.2" y2="18489.2">
  </linearGradient><linearGradient gradientUnits="userSpaceOnUse" id="NecklaceShipWheelid505new" x1="14288.3" x2="13075.5" xlink:href="#NecklaceShipWheelid198new" y1="19443.4" y2="21417.5">
  </linearGradient><linearGradient gradientUnits="userSpaceOnUse" id="HatGlasses-Bigid683new" x1="11456.4" x2="15907.5" xlink:href="#HatGlasses-Bigid680new" y1="16219.5" y2="11234.2">
  </linearGradient><linearGradient gradientUnits="objectBoundingBox" id="HairBack-Lizard3id78" x1="95.8017%" x2="4.19832%" y1="69.3451%" y2="30.6549%">
   <stop offset="0" style="stop-opacity:1; stop-color:#E0D0BF"/>
   <stop offset="1" style="stop-opacity:1; stop-color:#B5987B"/>
  </linearGradient><linearGradient gradientUnits="userSpaceOnUse" id="Tail-Lizard7id74" x1="15961" x2="18418.2" y1="23174.1" y2="17871.9">
   <stop offset="0" style="stop-opacity:1; stop-color:#3aba3a"/>
   <stop offset="1" style="stop-opacity:1; stop-color:#50e051"/>
  </linearGradient><linearGradient gradientUnits="userSpaceOnUse" id="RightLeg-Lizard0id17" x1="11873.5" x2="11873.5" y1="24310" y2="21166.6">
   <stop offset="0" style="stop-opacity:1; stop-color:#7ffa7f"/>
   <stop offset="0.431373" style="stop-opacity:1; stop-color:#7ffa7f"/>
   <stop offset="1" style="stop-opacity:1; stop-color:#50e051"/>
  </linearGradient><linearGradient gradientUnits="userSpaceOnUse" id="LeftFoot-Lizard0id220" x1="16306.2" x2="16825.8" y1="23871.7" y2="25810.9">
   <stop offset="0" style="stop-opacity:1; stop-color:#7ffa7f"/>
   <stop offset="0.101961" style="stop-opacity:1; stop-color:#7ffa7f"/>
   <stop offset="1" style="stop-opacity:1; stop-color:#ddddcb"/>
  </linearGradient><linearGradient gradientUnits="objectBoundingBox" id="LeftHand-Lizard0id333" x1="39.0063%" x2="60.9934%" y1="1.86633%" y2="98.1334%">
   <stop offset="0" style="stop-opacity:1; stop-color:#3aba3a"/>
   <stop offset="0.788235" style="stop-opacity:1; stop-color:#50e051"/>
   <stop offset="1" style="stop-opacity:1; stop-color:#50e051"/>
  </linearGradient><linearGradient gradientUnits="userSpaceOnUse" id="LeftPaw-Lizard0id332" x1="17833.9" x2="18955.5" y1="19888.5" y2="21831.2">
   <stop offset="0" style="stop-opacity:1; stop-color:#50e051"/>
   <stop offset="0.2" style="stop-opacity:1; stop-color:#50e051"/>
   <stop offset="1" style="stop-opacity:1; stop-color:#7ffa7f"/>
  </linearGradient><linearGradient gradientUnits="userSpaceOnUse" id="Body-Lizard4id641" x1="13681.9" x2="13681.9" y1="22882.1" y2="17688.3">
   <stop offset="0" style="stop-opacity:1; stop-color:#ddddcb"/>
   <stop offset="0.65098" style="stop-opacity:1; stop-color:#d1d1b6"/>
   <stop offset="1" style="stop-opacity:1; stop-color:#d1d1b6"/>
  </linearGradient><linearGradient gradientUnits="userSpaceOnUse" id="Mouth-Lizard0id133" x1="13681.9" x2="13681.9" y1="17844" y2="15520.7">
   <stop offset="0" style="stop-opacity:1; stop-color:#d1d1b6"/>
   <stop offset="1" style="stop-opacity:1; stop-color:#ddddcb"/>
  </linearGradient><linearGradient gradientUnits="objectBoundingBox" id="Eyes-Lizard5id0" x1="50.0001%" x2="50.0001%" y1="100%" y2="0.000230848%">
   <stop offset="0" style="stop-opacity:1; stop-color:#490a80"/>
   <stop offset="0.388235" style="stop-opacity:1; stop-color:#490a80"/>
   <stop offset="1" style="stop-opacity:1; stop-color:black"/>
  </linearGradient><linearGradient gradientUnits="userSpaceOnUse" id="Eyes-Lizard5id2" x1="17267.3" x2="17267.3" y1="14970.1" y2="11355.9">
   <stop offset="0" style="stop-opacity:1; stop-color:#490a80"/>
   <stop offset="0.168627" style="stop-opacity:1; stop-color:#af54ff"/>
   <stop offset="0.490196" style="stop-opacity:1; stop-color:#490a80"/>
   <stop offset="1" style="stop-opacity:1; stop-color:black"/>
  </linearGradient><radialGradient cx="16677.2" cy="12783.5" fx="16677.2" fy="12783.5" gradientTransform="matrix(-0.257879 1.16297 1.08696 0.253253 7083 -9849)" gradientUnits="userSpaceOnUse" id="Eyes-Lizard5id1055" r="1194.51">
   <stop offset="0" style="stop-opacity:1; stop-color:#380366"/>
   <stop offset="0.75" style="stop-opacity:1; stop-color:black"/>
   <stop offset="1" style="stop-opacity:1; stop-color:black"/>
  </radialGradient><linearGradient gradientUnits="userSpaceOnUse" id="Hair-Lizard6id49" x1="13715.8" x2="13715.8" y1="6802.99" y2="8218.57">
   <stop offset="0" style="stop-opacity:1; stop-color:#4cabe6"/>
   <stop offset="1" style="stop-opacity:1; stop-color:#6ec7ff"/>
  </linearGradient><linearGradient gradientUnits="userSpaceOnUse" id="NecklaceYinYangid669new" x1="12270.9" x2="12467.6" y1="19894.7" y2="19277.5">
   <stop offset="0" style="stop-opacity:1; stop-color:#643300"/>
   <stop offset="1" style="stop-opacity:1; stop-color:#AB7D2D"/>
  </linearGradient><linearGradient gradientUnits="userSpaceOnUse" id="NecklaceShipWheelid198new" x1="15325.7" x2="12038.2" y1="17755" y2="23105.9">
   <stop offset="0" style="stop-opacity:1; stop-color:#96612C"/>
   <stop offset="1" style="stop-opacity:1; stop-color:#754515"/>
  </linearGradient><linearGradient gradientUnits="userSpaceOnUse" id="NecklaceShipWheelid27" x1="16937.6" x2="16937.6" y1="14961.3" y2="11448.6">
   <stop offset="0" style="stop-opacity:1; stop-color:#490a80"/>
   <stop offset="1" style="stop-opacity:1; stop-color:black"/>
  </linearGradient><linearGradient gradientUnits="userSpaceOnUse" id="HatGlasses-Bigid680new" x1="11522.6" x2="15841.3" y1="16145.3" y2="11308.4">
   <stop offset="0" style="stop-opacity:1; stop-color:#01013B"/>
   <stop offset="1" style="stop-opacity:1; stop-color:#000094"/>
  </linearGradient></defs><g id="HairBack-Lizard3">
 <animateTransform additive="sum" attributeName="transform" dur="10" repeatCount="indefinite" type="translate" values="0;0 200;0;0 200;0;0 200;0;0 200;0"/>
  <metadata id="CorelCorpID_315Corel-Layer"/>
  <path class="HairBack-Lizard3fil605 HairBack-Lizard3str5" d="M6894 19094c-46,79 -70,407 22,435 93,29 160,-205 256,-285 -73,-84 -208,-136 -278,-150z" style="fill:#5d6a91"/>
  <path class="HairBack-Lizard3fil606 HairBack-Lizard3str5" d="M8583 20396c-17,90 70,407 166,403 97,-5 90,-247 146,-355 -96,-55 -242,-58 -312,-48z" style="fill:#913ea9"/>
  <path class="HairBack-Lizard3fil613 HairBack-Lizard3str0" d="M8693 15387c-686,786 -1626,2252 -1774,3785 64,4 140,45 183,97 1367,-1133 1226,355 1517,1152 64,-4 186,28 232,54 876,-1799 1701,-1719 2140,130 146,-1759 1446,-1979 1592,-3738 -1297,-493 -2594,-986 -3890,-1480z" style="fill:#015b41"/>
  <path class="HairBack-Lizard3fil14" d="M8109 16235c-344,498 -1145,1831 -1159,2886 0,44 37,4 39,48 232,-986 893,-2127 1626,-1754 379,193 -536,1366 60,3009 -250,-3126 1616,-2488 1546,-1220 239,118 591,555 752,1345 49,-1052 1276,-2360 1410,-2809 -167,-651 -3612,-1344 -4274,-1505z" style="fill:#82c6ad"/>
  <path class="HairBack-Lizard3fil608 HairBack-Lizard3str5" d="M20429 19094c46,79 70,407 -22,435 -93,29 -160,-205 -256,-285 73,-84 209,-136 278,-150z" style="fill:#fd90fc"/>
  <path class="HairBack-Lizard3fil609 HairBack-Lizard3str5" d="M18740 20396c17,90 -70,407 -166,403 -97,-5 -90,-247 -146,-355 96,-55 242,-58 312,-48z" style="fill:#4bbdd3"/>
  <path class="HairBack-Lizard3fil614 HairBack-Lizard3str0" d="M18630 15387c686,786 1626,2252 1774,3785 -64,4 -140,45 -183,97 -1367,-1133 -1226,355 -1517,1152 -64,-4 -186,28 -232,54 -876,-1799 -1700,-1719 -2140,130 -146,-1759 -1446,-1979 -1592,-3738 1297,-493 2594,-986 3890,-1480z" style="fill:#f754ba"/>
  <path class="HairBack-Lizard3fil14" d="M19214 16235c344,498 1145,1831 1159,2886 0,44 -37,4 -39,48 -232,-986 -893,-2127 -1626,-1754 -379,193 536,1366 -60,3009 250,-3126 -1616,-2488 -1546,-1220 -239,118 -591,555 -752,1345 -49,-1052 -1276,-2360 -1409,-2809 166,-651 3611,-1344 4273,-1505z" style="fill:#80f42e"/>
 </g><g id="Tail-Lizard7">
  <metadata id="CorelCorpID_323Corel-Layer"/>
  <path class="Tail-Lizard7fil615" d="M12061 22242c2116,2822 7296,2969 9617,590 1591,-1631 1091,-4161 -213,-5311 -752,-663 -1213,-660 -1292,-512 -87,162 390,517 660,1024 346,647 369,2150 -746,2824 -2078,1256 -3858,-232 -4441,-1087l-3585 2472z" style="fill:#ac05fa"/>
  <path class="Tail-Lizard7fil629" d="M12481 22728l514 -380c33,-29 108,-77 147,-100 17,-9 27,-14 32,-16l366 -151 262 -284 0 0 0 -2 330 -365c17,-18 48,-46 74,-63 7,-4 19,-11 23,-13l193 -84 172 -222c12,-15 45,-45 61,-58 7,-3 11,-7 16,-9l196 -91c7,-5 7,-5 11,-7l144 -66 108 -195 0 0 0 0 0 0 158 -261c9,-14 23,-32 35,-43 5,-6 6,-5 9,-7l85 -52 93 -167c5,-12 19,-30 28,-42 9,-4 5,-2 4,-3l104 -72c3,-1 3,-3 7,-5l76 -51 8 -24c5,7 11,14 17,22 -8,18 -25,39 -39,47l-83 55 -65 177 112 -66c0,0 0,0 0,0l88 -51 29 -109c5,7 11,13 17,20l-19 86c-1,3 0,4 -3,6l0 0c-7,20 -19,39 -33,48l0 0 0 0c5,-2 -1,0 2,-2l-93 53 -60 202 127 -62c-1,2 3,-1 0,0l104 -50 27 -183 7 -3 0 0 0 -2 3 -19c7,8 13,15 20,22l-3 2 -20 182c1,1 -2,4 0,5l0 0c-6,19 -21,45 -31,49l0 0 0 0c1,0 -4,3 -3,2l-109 52 -38 220 151 -58c2,-2 4,-3 5,-3l118 -44 8 -208 2 -1 0 0 4 -3 5 -97c8,8 16,17 25,26l-1 15 11 -5c15,15 30,30 45,45l-59 25 0 208c-1,2 -1,4 -1,5l0 0c-5,25 -15,50 -32,56l0 0 0 0c1,-1 -1,1 -1,1l-122 41 -16 253 186 -54c2,-2 3,-3 3,-3l146 -42 -29 -229 5 -3 0 0 -1 -2 -14 -193c12,12 25,24 37,36l9 97 73 -24c21,19 42,37 64,56l-128 37 35 234c0,3 0,7 -1,9l0 0c4,23 -8,49 -25,55l0 0 0 0c0,1 -2,1 -2,0l-151 39 34 276 227 -46c0,1 1,0 1,1l182 -34 -81 -257 2 -2 0 0 -1 -2 -71 -293c17,15 35,29 53,43l48 186 156 -31c34,24 68,47 103,70l141 288 278 -36c-1,2 -3,1 -1,0l23 -2c55,27 112,52 169,76l-110 11 253 307 374 -46c1,1 0,0 1,0l296 -43 -22 -15c51,6 102,12 154,15l0 0c3,2 8,4 8,7l0 0c33,20 44,47 10,56l0 0 0 0c0,1 0,0 0,-1l-316 58 413 261 498 -150c0,0 -1,0 0,0l372 -178 -354 -77c67,-10 135,-23 204,-39l313 45c2,1 9,1 11,2l0 0c43,6 61,31 20,59l0 0 0 0c0,0 2,1 2,0l-385 213 562 78 524 -408c0,-1 -1,-1 2,-2l338 -358 -514 84 0 0 0 0 0 0 -106 6c78,-40 157,-84 236,-132 20,-12 40,-24 59,-37l-39 50 507 -105c3,-2 9,-2 13,-4l0 0c42,-7 65,13 34,58l0 0 0 1c0,0 0,2 0,3l-330 379 577 -127 379 -587c1,-2 -2,-1 0,-3l197 -442 -436 207 0 0 0 0 0 0 -453 157c34,-42 65,-86 94,-130l324 -118 191 -547c0,-1 -2,-2 1,-4l55 -398 -240 144c5,-40 10,-80 13,-120l256 -168c3,-3 6,-4 9,-6l0 0c29,-15 60,-6 65,36l0 0 0 0c-1,2 0,3 0,3l-33 404 370 -270 -56 -538c0,-2 -1,-1 -1,-3l-132 -374 -196 256 -2 -1 0 1 -1 1 -276 233c-3,-38 -7,-76 -11,-114l199 -179 -232 -435c0,1 0,-1 0,-1l-252 -273 -24 33c-23,-34 -46,-67 -69,-99l22 -30c2,-3 4,-3 2,-5l2 0c14,-18 51,-20 85,6l0 0 1 0c0,1 3,3 3,4l263 265 130 -257 -391 -329c0,0 -1,-1 -1,-1l-336 -186 -75 164c-31,-38 -59,-74 -84,-107l57 -124c3,-3 4,-4 3,-4l0 0c11,-15 44,-18 85,-1l0 0 1 0c0,0 0,0 4,1l336 179 36 -197 -472 -187c34,-4 73,-4 117,2l354 133 -1 -18c33,16 67,34 102,54l2 40 -2 0 -40 238 327 270 43 -206c0,-1 0,-3 0,-5l0 0c8,-14 33,-13 68,13l0 0 0 1c1,1 2,1 4,2l272 277 10 -110c28,27 56,56 83,84l-11 122 247 374 40 -163c24,32 47,65 69,98l-62 205 0 0 0 0 0 0 -212 354 64 456 240 -269c1,-1 3,-3 3,-7l0 0c18,-20 45,-12 58,35l0 2 0 0c0,1 1,1 2,3l32 443 246 -321 -142 -514c89,173 166,355 229,544l-21 46 0 2 0 0 -1 2 -319 384 -90 527 331 -286c4,-3 6,-5 8,-6l0 0c26,-20 49,-7 44,47l0 0 0 0c-1,2 -1,4 -2,6l-108 507 352 -332c4,40 7,80 10,120l-411 371 -260 576 432 -281c4,-1 6,-4 9,-5l0 0c36,-20 55,-2 33,56l0 0 0 0c0,0 -2,3 -2,6l-268 548 406 -282c-9,45 -19,91 -30,136l-478 317 -434 603 528 -257c8,-3 9,-4 14,-6l0 0c42,-18 56,5 17,65l0 0 0 0c-4,5 -4,7 -5,8l-436 570 282 -144c-37,54 -77,108 -118,161l-318 154 -619 548 336 -86c-66,55 -134,108 -203,159l-385 68 -2 0 1 -1 -8 3 -822 15 -682 295 589 93c3,1 10,1 14,3l0 0c48,8 52,40 -16,74l0 0 -3 2c1,-1 -6,2 -6,1l-673 280 244 38c-88,27 -178,53 -268,77l-185 -34 -676 207c-120,16 -240,30 -361,41l-541 -345 -635 119 269 257c-83,-2 -165,-6 -248,-11l-229 -245 3 -2 -4 0 0 0 -317 -451 -520 80 159 357c3,4 3,7 5,11l0 0c10,32 -19,76 -84,91l0 0 0 0c-5,2 -5,0 -5,1l-103 19c-105,-21 -209,-44 -312,-70l317 -56 -136 -366 2 -2 -2 -2 1 -1 -127 -467 -424 58 19 375c1,1 0,6 2,8l0 0c-3,37 -39,82 -96,92l0 0 0 0c-2,2 -3,2 -3,3l-437 79c-64,-25 -127,-51 -190,-78l107 -27c0,1 2,1 3,1l475 -94 -8 -368 2 -1 -2 -1 2 -3 21 -459 -363 66 -79 360c3,0 -2,6 -1,8l0 -1c-10,35 -53,79 -103,93l0 0 0 0c-4,0 -5,2 -6,1l-435 98 -61 114c-37,-19 -74,-39 -111,-60l5 -7 -12 4c-40,-23 -80,-46 -120,-69l304 -92c0,-1 2,-2 3,-2l428 -100 86 -357 -1 1 0 0 0 -3 122 -433 -321 74 -147 341c0,3 -4,8 -3,8l1 0c-20,36 -66,78 -112,90l0 0 0 0c-5,3 -5,2 -7,4l-399 107 -172 228c-31,-20 -62,-40 -92,-61l105 -117 -179 66c-30,-21 -60,-42 -90,-64l459 -156c1,0 2,-1 2,1l396 -115 153 -336 1 -3 0 0 3 -1 194 -410 -301 92 -191 315c4,-1 -1,4 -3,6l0 0c-20,32 -70,72 -115,89l0 0 0 0c-7,4 -7,4 -6,3l-389 131 -296 315c-25,-20 -50,-40 -76,-59l215 -200 -310 122c-23,-19 -46,-38 -68,-58l579 -215c5,-3 3,-2 3,-1l386 -132 196 -313 -1 0 0 0 2 -2 254 -393 -274 95 -236 303c-1,4 -6,8 -7,10l0 0c-21,28 -78,72 -119,86l0 0 0 0c-8,4 -4,1 -4,1l-374 138 -435 398c-21,-19 -42,-38 -63,-57l341 -278 -441 185c-33,-31 -66,-63 -98,-96zm9096 -4895c-1,-1 -3,-1 -3,-2l-265 -288 -56 217 2 0 0 1 0 1 -162 309 199 361 173 -247c1,-1 4,-3 5,-4l0 0c15,-18 44,-14 67,21l0 1 0 0c0,2 2,2 3,3l152 365 169 -288 -284 -450zm458 1656c2,-1 0,-2 0,-3l-9 -446 -263 268 0 0 1 0 0 0 -461 325 -153 465 415 -218c2,-2 6,-4 8,-5l0 0c34,-16 61,-1 50,47l0 0 0 1c0,1 1,1 0,3l-175 452 460 -264 127 -625zm133 946c-1,-1 -1,-1 -1,-4l141 -506 -359 280 0 0 0 0 -3 0 -565 314 -310 504 493 -202c4,-3 9,-5 10,-5l0 0c42,-15 61,5 33,58l0 0 0 0c-1,2 -1,5 -2,7l-317 479 558 -248 322 -677zm-1079 1022c1,-1 1,-2 1,-4l340 -461 -505 181 -1 0 0 0 -4 1 -703 141 -442 362 547 -36c4,0 9,-1 12,0l0 0c46,-1 64,22 19,63l0 0 0 0c0,1 -2,3 -6,5l-443 333 629 -42 556 -543zm-1399 600c0,0 0,-1 2,-2l446 -298 -543 -1 0 0 0 0 -2 -2 -666 -112 -427 142 460 172c2,2 10,2 11,4l0 0c41,15 50,43 3,63l0 0 0 0c0,0 -3,1 -4,1l-424 134 531 190 613 -291zm-1317 40c0,1 0,0 2,0l410 -112 -440 -196 1 -2 0 0 -1 -1 -487 -317 -324 39 306 268c0,3 7,4 7,8l0 0c29,24 30,55 -8,61l0 0 0 0c1,0 -2,1 -4,1l-326 42 357 304 507 -95zm-980 -291c2,0 2,-1 3,0l311 -37 -286 -275 2 -2 0 0 0 -3 -301 -364 -239 29 182 274c1,4 4,5 4,7l0 0c16,27 11,58 -18,65l0 0 0 0c4,-3 0,-2 0,-2l-248 32 210 315 380 -39zm-661 -364c3,0 3,-1 3,0l234 -29 -164 -277 3 -2 0 0 -2 -2 -168 -344 -179 32 91 260c3,1 3,5 3,8l0 0c8,24 -1,54 -23,59l0 0 0 0c1,0 -3,1 -3,0l-187 30 102 305 290 -40zm5284 50c0,0 3,-3 4,-5l296 -534 -458 264 -2 1 0 0 -3 1 -676 284 -462 473 563 -130c5,-3 6,-3 14,-5l0 0c44,-8 59,16 19,66l0 0 0 0c-2,1 -4,4 -8,8l-461 441 642 -160 532 -704zm-1408 926c0,-2 4,-3 4,-4l477 -409 -572 97 -2 1 0 0 -5 0 -747 24 -523 260 541 81c3,2 7,2 14,3l0 0c46,7 54,36 3,66l0 0 0 0c-1,0 -4,1 -7,3l-514 239 620 89 711 -450zm-1542 340c0,-1 2,0 2,-1l503 -210 -525 -111 -2 0 0 0 -6 -2 -618 -246 -442 90 401 240c1,3 5,4 9,7l0 0c36,22 40,52 -10,66l0 0 0 0c-1,0 -1,0 -3,1l-437 88 459 269 669 -191zm-1282 -156c-1,-1 0,-1 2,-1l416 -74 -377 -254 -1 -2 0 0 -4 -3 -407 -365 -332 37 245 293c0,3 2,5 4,7l0 0c21,28 18,60 -19,68l0 0 0 0c0,0 -2,-1 -4,0l-333 37 279 333 531 -76zm-909 -349c0,-1 0,-1 0,0l318 -33 -225 -297 0 -2 0 0 -2 -2 -236 -381 -253 34 128 289c0,4 3,5 4,7l0 0c11,27 2,58 -27,64l0 0 0 0c-1,1 -2,0 -2,0l-259 34 143 334 411 -47zm-611 -376c-1,0 0,1 1,-1l247 -33 -117 -285 1 -2 0 0 -1 -3 -112 -364 -200 41 51 267c-3,4 0,5 0,8l0 0c4,27 -9,57 -33,63l0 0 0 0c1,-1 1,-2 -1,1l-205 35 48 315 321 -42zm-396 -357c0,0 -2,0 0,0l195 -35 -39 -269 0 0 0 0 0 -3 -31 -331 -158 44 -5 247c-4,5 -2,4 -3,7l0 0c-3,26 -14,52 -36,60l0 0 0 0c-1,0 2,-3 -1,0l-165 39 -17 290 260 -49zm-254 -314c-1,0 0,-1 2,0l159 -41 10 -244 4 -4 0 0 -3 0 23 -298 -128 46 -41 224c-4,4 -1,3 -3,8l0 0c-4,20 -19,46 -38,54l0 0 0 0c0,1 0,0 0,0l-141 46 -60 264 216 -55zm-150 -277c0,-1 -4,2 0,-1l133 -45 47 -221 1 -1 0 0 -1 -2 52 -264 -106 47 -67 208c-4,2 -2,3 -4,6l0 0c-7,19 -24,44 -37,50l0 0 0 0c-4,3 0,1 -1,2l-116 45 -92 246 191 -70zm-87 -237c-2,0 -2,1 2,-1l112 -46 70 -203 -1 0 0 0 2 -2 77 -242 -90 50 -80 186c-5,4 -5,5 -4,5l0 0c-9,19 -26,43 -40,51l0 0 0 0c-2,0 0,-1 1,-1l-105 50 -107 222 163 -69zm-38 -205c-2,0 -4,2 2,-1l96 -49 83 -184 1 -1 0 0 3 -3 89 -217 -83 57 -85 165c-10,19 -36,48 -42,50l-94 56 -117 201 147 -74zm6212 2143c0,0 0,-2 4,-4l464 -545 -554 229 0 0 -3 1 0 0 -780 169 -599 400 609 -32c5,0 7,0 13,-1l0 0c50,-2 61,27 1,72l0 0 0 0c-1,1 -5,4 -5,4l-592 370 696 -40 746 -623zm-1687 675c0,0 1,1 5,0l588 -330 -602 -8 0 0 -2 0 0 0 -738 -124 -572 178 507 179c8,0 9,2 14,4l0 0c41,16 45,47 -14,69l0 0 0 0c-2,1 -6,3 -7,3l-559 168 579 197 801 -336zm-1580 79c0,0 1,0 2,-2l544 -145 -485 -202 0 0 -2 -1 0 0 -537 -335 -458 71 338 283c7,2 8,4 11,8l0 0c28,27 22,60 -25,70l0 0 0 0c-3,-1 -7,2 -7,1l-455 72 390 318 684 -138zm-1208 -269c0,0 2,1 3,0l435 -63 -315 -291 0 0 -2 -3 0 0 -326 -403 -358 44 197 307c1,2 3,2 3,7l0 0c16,31 7,63 -34,70l0 0 0 0c-1,0 -4,2 -4,3l-360 44 221 351 540 -66zm-839 -385c0,0 0,0 3,-1l340 -39 -172 -313 0 0 -2 1 0 0 -165 -402 -278 35 83 306c4,2 3,5 4,6l0 0c4,31 -10,64 -42,69l0 0 0 0c-1,0 -5,2 -7,3l-280 32 87 357 429 -54zm-558 -397c0,0 0,2 2,2l275 -40 -74 -299 0 0 1 -2 0 0 -50 -380 -228 43 12 281c0,3 1,5 0,10l0 0c-1,25 -19,56 -46,64l0 0 0 0c-3,0 -5,1 -5,0l-232 42 0 331 345 -52zm-359 -366c0,0 0,0 0,0l227 -45 0 -278 0 0 -1 -2 0 0 25 -347 -190 47 -39 260c-3,3 1,3 -1,7l0 0c-7,27 -27,57 -50,64l0 0 0 0c0,-2 -4,1 -4,1l-197 46 -63 310 293 -63zm-224 -328c0,0 -1,1 1,-1l194 -51 47 -255 0 0 -1 -1 0 0 79 -321 -168 60 -69 233c-3,4 -3,5 -1,5l0 0c-11,25 -30,53 -51,61l0 0 0 0c-2,0 -7,2 -4,1l-177 57 -98 277 248 -65zm-136 -282c0,0 0,1 0,0l176 -60 73 -231 0 0 0 0 0 0 119 -299 -148 63 -89 212c-8,7 -4,5 -5,8l0 0c-13,21 -35,48 -54,57l0 0 0 0c-1,0 -1,0 -2,0l-157 60 -128 259 215 -69zm-60 -257c0,0 0,0 0,-1l155 -60 98 -215 0 0 0 1 0 0 135 -269 -135 68 -105 194c-11,19 -33,49 -58,61l-147 66 -143 237 200 -82zm4005 3019c0,-1 3,-3 3,-3l659 -251 -573 -120 -1 1 1 -2 -5 -1 -672 -258 -596 129 433 252c4,1 7,5 11,7l0 0c36,23 33,58 -29,74l0 0 -5 1c2,0 -1,1 -3,1l-592 134 493 284 876 -248zm-1546 -116c3,0 8,-1 8,-1l564 -114 -406 -269 -3 -1 1 -1 -3 -1 -444 -391 -471 62 257 322c4,2 4,5 8,8l0 0c19,30 9,68 -41,77l0 0 -4 0c2,0 -1,0 -2,0l-483 71 293 366 726 -128zm-1130 -340c3,1 7,0 7,0l453 -60 -234 -327 -3 -1 2 -2 -3 -3 -241 -427 -373 46 120 330c1,3 1,7 4,10l0 0c6,30 -10,67 -50,73l0 0 -2 1c1,1 -3,2 -4,1l-391 56 126 386 589 -83zm-778 -405c2,-2 5,-3 5,-3l372 -53 -105 -329 0 -2 1 0 -3 0 -86 -428 -307 49 23 316c-2,3 0,7 0,12l0 0c0,27 -24,66 -58,71l0 0 -1 -1c0,1 -2,1 -1,1l-329 58 8 375 481 -66zm-510 -413c1,0 3,0 3,0l307 -50 -6 -320 -1 -1 1 -2 0 0 20 -405 -261 57 -48 300c2,0 -1,4 0,5l0 0c-8,29 -36,67 -62,73l0 0 -3 -1c1,0 -1,2 0,1l-283 62 -77 354 410 -73zm-331 -374c1,0 3,0 3,0l265 -60 59 -299 0 2 2 -4 -2 1 94 -377 -220 60 -100 280c0,1 -3,6 -2,8l0 0c-10,26 -41,59 -64,66l0 0 -1 0c-1,0 -1,1 -4,2l-247 67 -141 335 358 -81zm-200 -339c1,0 3,-2 3,-2l237 -64 105 -279 0 0 -2 0 2 -1 135 -337 -195 64 -136 261c0,2 -3,5 -3,7l0 0c-17,26 -45,57 -67,65l2 -1 -2 1c-2,0 0,-1 -3,1l-224 72 -187 318 335 -105zm-118 -292c6,-3 8,-5 9,-5l210 -67 139 -262 0 0 0 0 4 -3 171 -315 -181 71 -154 240c0,2 -5,6 -4,7l0 0c-17,24 -51,55 -67,62l0 0 0 0c-2,1 -2,0 -3,1l-213 81 -214 295 303 -105zm-52 -260c5,-3 4,-2 5,-2l203 -80 159 -240 0 0 1 -1 -1 -1 191 -289 -169 77 -166 222c-14,18 -56,59 -76,67l-207 90 -229 272 289 -115zm-1001 904c-1,2 2,0 2,0l370 -139 233 -298 5 -4 0 0 -1 0 287 -366 -273 111 -255 283c-21,23 -85,75 -135,96l-374 154 -543 442 684 -279z" style="fill:#505732"/>
  <path class="Tail-Lizard7fil22 Tail-Lizard7str0" d="M12061 22242c2116,2822 7296,2969 9617,590 1591,-1631 1091,-4161 -213,-5311 -752,-663 -1213,-660 -1292,-512 -87,162 390,517 660,1024 346,647 369,2150 -746,2824 -2078,1256 -3858,-232 -4441,-1087l-3585 2472z" style="fill:#263320"/>
 </g><g id="RightFoot-Lizard0">
  <metadata id="CorelCorpID_327Corel-Layer"/>
  <path class="RightFoot-Lizard0fil636" d="M16896 24005c177,194 630,99 971,213 299,100 377,345 252,488 -126,145 -306,76 -460,51 -150,-23 -303,-85 -424,-49 177,63 791,364 618,803 -89,226 -408,214 -663,10 -311,-249 -694,-450 -946,-419 -343,42 -190,563 -583,572 -600,14 -308,-788 -664,-1201 -43,-70 -57,-204 -18,-292 582,-77 1506,161 1917,-176z" style="fill:#8686a6"/>
  <path class="RightFoot-Lizard0fil32" d="M16951 23955c84,92 268,105 469,119 229,16 506,34 687,193 110,95 176,241 128,385 -96,287 -393,216 -620,174 44,31 88,65 128,103 260,243 321,768 -102,820 -176,21 -363,-61 -498,-170 -204,-163 -618,-436 -891,-403 -276,34 -138,562 -589,572 -420,10 -453,-299 -522,-643 -42,-206 -130,-417 -197,-588 -20,-52 -8,-108 45,-121 50,-7 100,40 130,121 53,141 128,373 169,566 59,275 83,523 372,516 323,-7 175,-523 575,-571 322,-40 760,241 1002,435 102,82 251,153 386,137 285,-35 179,-411 17,-562 -187,-176 -460,-252 -477,-309 -12,-39 11,-81 51,-92 130,-39 386,31 538,62 117,23 292,53 342,-95 28,-85 -22,-170 -85,-224 -149,-130 -411,-143 -600,-157 -211,-15 -408,-29 -535,-135 31,-62 55,-97 77,-133z" style="fill:#eb1558"/>
 </g><g id="LeftFoot-Lizard0">
  <metadata id="CorelCorpID_336Corel-Layer"/>
  <path class="LeftFoot-Lizard0fil645" d="M10468 24005c-177,194 -630,99 -971,213 -299,100 -377,345 -253,488 127,145 307,76 460,51 151,-23 304,-85 425,-49 -177,63 -791,364 -619,803 89,226 409,214 664,10 311,-249 694,-450 946,-419 343,42 190,563 583,572 600,14 308,-788 663,-1201 44,-70 58,-204 19,-292 -583,-77 -1506,161 -1917,-176z" style="fill:#84b806"/>
  <path class="LeftFoot-Lizard0fil32" d="M10412 23955c-83,92 -268,105 -468,119 -229,16 -506,34 -688,193 -109,95 -176,241 -128,385 96,287 394,216 620,174 -44,31 -87,65 -127,103 -260,243 -321,768 102,820 176,21 363,-61 498,-170 203,-163 618,-436 891,-403 276,34 138,562 589,572 419,10 452,-299 522,-643 42,-206 130,-417 196,-588 21,-52 9,-108 -45,-121 -50,-7 -99,40 -130,121 -52,141 -127,373 -168,566 -59,275 -83,523 -372,516 -323,-7 -175,-523 -575,-571 -322,-40 -761,241 -1002,435 -103,82 -251,153 -386,137 -285,-35 -179,-411 -17,-562 187,-176 460,-252 477,-309 12,-39 -11,-81 -51,-92 -130,-39 -386,31 -538,62 -118,23 -292,53 -342,-95 -28,-85 22,-170 85,-224 149,-130 411,-143 600,-157 211,-15 408,-29 535,-135 -31,-62 -55,-97 -78,-133z" style="fill:#0f11df"/>
 </g><g id="RightLeg-Lizard0">
  <metadata id="CorelCorpID_330Corel-Layer"/>
  <path class="RightLeg-Lizard0fil639" d="M13682 23167c428,0 1386,122 1321,776 -5,52 -27,166 -34,307 456,84 1272,76 1625,0 415,-193 703,-872 705,-1316 2,-661 -392,-1250 -712,-1596 -352,-381 -2030,-8 -2905,-8l0 1837z" style="fill:#cbd3a9"/>
  <path class="RightLeg-Lizard0fil14" d="M17192 23398c67,-149 106,-306 107,-464 2,-776 -541,-1452 -869,-1753 -19,257 -41,545 -78,871 387,-414 947,878 840,1346z" style="fill:#ea5726"/>
  <path class="RightLeg-Lizard0fil32" d="M15042 24729c32,73 153,5 117,-101 -61,-182 -128,-334 -105,-448 91,-447 -112,-807 -541,-972 -208,-80 -478,-118 -831,-118l0 150c335,0 588,35 777,108 361,138 514,417 435,791 -35,237 15,295 148,590zm1242 -3575c175,139 478,451 693,860 144,273 248,587 247,920 -1,533 -241,1011 -637,1322 634,-260 785,-833 786,-1322 2,-360 -110,-698 -263,-990 -227,-429 -547,-760 -734,-907 -34,-25 -144,-95 -178,-56 -36,41 10,108 86,173z" style="fill:#6771ba"/>
 </g><g id="LeftLeg-Lizard0">
  <metadata id="CorelCorpID_339Corel-Layer"/>
  <path class="LeftLeg-Lizard0fil648" d="M13682 23167c-428,0 -1386,122 -1321,776 5,52 26,166 34,307 -456,84 -1272,76 -1625,0 -415,-193 -704,-872 -705,-1316 -2,-661 392,-1250 712,-1596 352,-381 2030,-8 2905,-8l0 1837z" style="fill:#b92759"/>
  <path class="LeftLeg-Lizard0fil14" d="M10172 23398c-67,-149 -106,-306 -107,-464 -2,-776 540,-1452 869,-1753 19,257 41,545 78,871 -388,-414 -947,878 -840,1346z" style="fill:#f7506d"/>
  <path class="LeftLeg-Lizard0fil32" d="M12322 24729c-33,73 -153,5 -118,-101 61,-182 129,-334 106,-448 -91,-447 111,-807 541,-972 208,-80 478,-118 831,-118l0 150c-335,0 -588,35 -777,108 -361,138 -514,417 -435,791 35,237 -15,295 -148,590zm-1242 -3575c-175,139 -478,451 -694,860 -143,273 -247,587 -246,920 1,533 241,1011 637,1322 -634,-260 -785,-833 -787,-1322 -1,-360 110,-698 264,-990 226,-429 547,-760 734,-907 34,-25 144,-95 178,-56 36,41 -10,108 -86,173z" style="fill:#16b7d0"/>
 </g><g id="RightHand-Lizard0">
 <animateTransform additive="sum" attributeName="transform" dur="10" repeatCount="indefinite" type="translate" values="0;0 200;0;0 200;0;0 200;0;0 200;0"/>
  <metadata id="CorelCorpID_345Corel-Layer"/>
  <path class="RightHand-Lizard0fil655" d="M15421 17507c1371,-107 2467,1307 3017,2266 289,504 -937,1282 -1053,928 -133,-408 -583,-502 -1005,-495 -145,-773 -770,-2364 -959,-2699z" style="fill:#3ebe52"/>
  <path class="RightHand-Lizard0fil14" d="M17408 20600c-414,-340 -751,-361 -1105,-375l143 -846c440,204 921,896 962,1221z" style="fill:#3fe2fe"/>
  <path class="RightHand-Lizard0fil32" d="M16155 17514c-40,-12 -81,11 -93,50 -12,40 11,82 50,94 431,128 825,397 1169,724 463,440 838,982 1093,1427 50,87 177,12 129,-73 -261,-455 -643,-1010 -1119,-1462 -360,-342 -773,-624 -1229,-760zm1159 3210c13,39 55,61 95,48 39,-13 52,-64 39,-103 -48,-207 -228,-359 -429,-441 -192,-78 -421,-101 -641,-97 -41,1 -74,35 -73,76 1,41 35,74 76,74 202,-4 410,17 582,86 162,66 292,177 351,357z" style="fill:#5df9f7"/>
 </g><g id="LeftHand-Lizard0">
 <animateTransform additive="sum" attributeName="transform" dur="10" repeatCount="indefinite" type="translate" values="0;0 200;0;0 200;0;0 200;0;0 200;0"/>
  <metadata id="CorelCorpID_354Corel-Layer"/>
  <path class="LeftHand-Lizard0fil664" d="M11943 17507c-1371,-107 -2467,1307 -3017,2266 -289,504 937,1282 1052,928 134,-408 584,-502 1006,-495 145,-773 770,-2364 959,-2699z" style="fill:#99f81b"/>
  <path class="LeftHand-Lizard0fil14" d="M9956 20600c414,-340 751,-361 1105,-375l-143 -846c-440,204 -921,896 -962,1221z" style="fill:#a7fd7b"/>
  <path class="LeftHand-Lizard0fil32" d="M11209 17514c39,-12 81,11 93,50 12,40 -11,82 -50,94 -431,128 -825,397 -1169,724 -463,440 -838,982 -1093,1427 -50,87 -178,12 -129,-73 261,-455 643,-1010 1119,-1462 360,-342 773,-624 1229,-760zm-1159 3210c-13,39 -55,61 -95,48 -39,-13 -52,-64 -39,-103 48,-207 228,-359 429,-441 192,-78 420,-101 640,-97 42,1 75,35 74,76 -1,41 -35,74 -76,74 -202,-4 -410,17 -582,86 -162,66 -293,177 -351,357z" style="fill:#a0bac7"/>
 </g><g id="Body-Lizard4">
 <animateTransform additive="sum" attributeName="transform" dur="10" repeatCount="indefinite" type="translate" values="0;0 200;0;0 200;0;0 200;0;0 200;0"/>
  <metadata id="CorelCorpID_367Corel-Layer"/>
  <path class="Body-Lizard4fil674" d="M13682 23042c-1548,0 -2752,-290 -2993,-1956 -146,-1007 384,-2270 980,-3398 748,64 1420,73 2013,73 593,0 1265,-9 2013,-73 596,1128 1126,2391 980,3398 -242,1666 -1445,1956 -2993,1956z" style="fill:#b8f7c4"/>
  <path class="Body-Lizard4fil14" d="M11837 22758c-601,-267 -1017,-766 -1148,-1672 -75,-519 29,-1106 229,-1707 -223,2177 509,3077 919,3379z" style="fill:#a9e9b5"/>
  <path class="Body-Lizard4fil32" d="M11012 22052c-250,-321 -348,-641 -397,-955 -59,-377 -24,-998 184,-1319 -78,420 -93,905 -36,1298 50,341 104,571 249,976z" style="fill:#3570fe"/>
  <path class="Body-Lizard4fil678" d="M13682 17761c-799,0 -1124,-25 -1767,-73 210,210 -121,1257 -197,1859 -215,1711 94,3335 1964,3335 1869,0 2179,-1624 1964,-3335 -76,-602 -407,-1649 -198,-1859 -642,48 -967,73 -1766,73z" style="fill:#2621d5"/>
  <path class="Body-Lizard4fil14" d="M15527 22758c601,-267 1016,-766 1148,-1672 75,-519 -29,-1106 -229,-1707 223,2177 -509,3077 -919,3379z" style="fill:#657924"/>
  <path class="Body-Lizard4fil32" d="M16352 22052c250,-321 347,-641 397,-955 59,-377 24,-998 -184,-1319 78,420 93,905 36,1298 -50,341 -104,571 -249,976z" style="fill:#7d5843"/>
  <path class="Body-Lizard4fil628" d="M16012 18414c33,173 28,319 -99,489 -158,-73 -297,-203 -360,-328 186,149 397,65 459,-161zm489 1287c5,121 -40,259 -143,361 -99,-66 -199,-205 -229,-296 111,120 307,82 372,-65zm-346 446c-12,102 -66,213 -165,286 -76,-68 -142,-197 -156,-278 78,115 247,108 321,-8zm-116 1382c-43,93 -129,181 -247,220 -50,-88 -72,-233 -61,-313 38,134 202,180 308,93zm106 614c-61,82 -164,151 -287,164 -31,-97 -23,-242 5,-319 10,139 160,218 282,155zm-4667 -235c43,94 129,182 247,220 50,-88 72,-232 60,-313 -38,134 -201,180 -307,93zm-494 -184c43,93 129,181 247,220 50,-88 72,-233 60,-313 -38,134 -201,180 -307,93zm-201 -1304c26,99 97,200 206,258 65,-78 111,-217 113,-298 -61,125 -229,143 -319,40zm447 -419c4,121 58,256 168,351 95,-73 185,-219 208,-312 -102,128 -300,103 -376,-39zm-200 -809c-36,189 0,417 138,603 173,-80 363,-276 432,-412 -203,163 -502,56 -570,-191z" style="fill:#ac87e9"/>
 </g><g id="RightPaw-Lizard0">
 <animateTransform additive="sum" attributeName="transform" dur="10" repeatCount="indefinite" type="translate" values="0;0 200;0;0 200;0;0 200;0;0 200;0"/>
  <metadata id="CorelCorpID_351Corel-Layer"/>
  <path class="RightPaw-Lizard0fil661" d="M18407 19719c160,284 636,568 871,846 165,195 249,575 80,649 -149,66 -234,-108 -348,-218 -112,-108 -200,-191 -255,-121 94,89 123,234 200,476 89,279 3,682 -262,648 -142,-19 -126,-223 -244,-454 -92,-182 -171,-298 -384,-304 -138,-4 -217,58 -274,139 -100,142 -35,313 -193,347 -194,42 -272,-288 -250,-544 21,-247 62,-507 -9,-582 605,-42 1153,-458 1068,-882z" style="fill:#229d3f"/>
  <path class="RightPaw-Lizard0fil32" d="M18467 19678c-21,-36 -66,-49 -102,-28 -36,20 -47,64 -27,100 13,23 28,49 44,71 107,145 280,276 455,408 150,114 301,228 399,344 84,99 164,261 169,392 2,54 -10,100 -40,126 -68,57 -155,5 -221,-85 -68,-94 -155,-212 -277,-234 -166,-31 -205,68 -150,146 72,103 161,338 196,566 16,103 19,202 2,282 -15,68 -43,121 -91,144 -30,16 -70,21 -122,14 -42,-5 -62,-72 -91,-165 -23,-73 -49,-158 -95,-248 -50,-98 -96,-179 -163,-239 -71,-65 -159,-102 -286,-106 -84,-3 -151,16 -206,47 -56,32 -97,75 -131,124 -50,70 -65,141 -78,204 -12,56 -22,104 -68,113 -16,3 -30,4 -42,3 -27,-2 -48,-16 -64,-38 -21,-29 -36,-71 -46,-120 -19,-94 -18,-208 -9,-310 5,-64 12,-117 19,-167 23,-169 45,-290 -27,-448 -17,-38 -66,-65 -103,-48 -38,17 -55,61 -38,99 54,119 39,232 20,377 -8,55 -16,114 -21,175 -9,113 -10,242 12,351 14,69 37,132 73,180 41,56 98,92 172,98 26,2 54,1 83,-5 143,-29 162,-120 185,-229 11,-49 22,-104 54,-149 23,-32 49,-61 82,-80 33,-18 75,-29 129,-28 86,3 144,27 189,67 49,45 88,113 130,197 41,80 65,157 86,224 45,147 78,252 215,270 83,10 152,-1 208,-29 93,-47 147,-136 170,-247 21,-99 19,-216 0,-336 -28,-188 -97,-388 -171,-523 42,11 114,93 156,151 101,141 269,235 415,116 71,-58 97,-147 93,-245 -6,-166 -98,-358 -204,-484 -109,-129 -266,-248 -423,-366 -189,-144 -378,-287 -460,-432z" style="fill:#4b5068"/>
 </g><g id="LeftPaw-Lizard0">
 <animateTransform additive="sum" attributeName="transform" dur="10" repeatCount="indefinite" type="translate" values="0;0 200;0;0 200;0;0 200;0;0 200;0"/>
  <metadata id="CorelCorpID_360Corel-Layer"/>
  <path class="LeftPaw-Lizard0fil671" d="M8957 19719c-161,284 -636,568 -871,846 -165,195 -249,575 -80,649 148,66 234,-108 348,-218 112,-108 200,-191 255,-121 -94,89 -123,234 -200,476 -89,279 -3,682 262,648 142,-19 126,-223 244,-454 92,-182 171,-298 384,-304 138,-4 217,58 274,139 100,142 35,313 192,347 195,42 272,-288 251,-544 -21,-247 -62,-507 9,-582 -605,-42 -1153,-458 -1068,-882z" style="fill:#5c8b73"/>
  <path class="LeftPaw-Lizard0fil32" d="M8897 19678c21,-36 66,-49 102,-28 36,20 47,64 27,100 -13,23 -28,49 -44,71 -107,145 -280,276 -455,408 -150,114 -301,228 -399,344 -84,99 -164,261 -169,392 -2,54 10,100 40,126 68,57 155,5 221,-85 68,-94 155,-212 277,-234 166,-31 205,68 150,146 -72,103 -162,338 -196,566 -16,103 -19,202 -2,282 15,68 43,121 91,144 30,16 70,21 122,14 42,-5 62,-72 91,-165 23,-73 49,-158 95,-248 50,-98 96,-179 163,-239 71,-65 159,-102 286,-106 84,-3 151,16 206,47 56,32 97,75 131,124 50,70 65,141 78,204 12,56 22,104 68,113 16,3 29,4 41,3 28,-2 49,-16 65,-38 21,-29 36,-71 46,-120 19,-94 18,-208 9,-310 -5,-64 -12,-117 -19,-167 -23,-169 -45,-290 26,-448 17,-38 66,-65 104,-48 38,17 55,61 38,99 -54,119 -39,232 -20,377 8,55 16,114 21,175 9,113 10,242 -12,351 -14,69 -37,132 -73,180 -42,56 -98,92 -172,98 -26,2 -54,1 -83,-5 -143,-29 -162,-120 -185,-229 -11,-49 -22,-104 -54,-149 -23,-32 -49,-61 -83,-80 -32,-18 -74,-29 -128,-28 -86,3 -144,27 -189,67 -49,45 -88,113 -131,197 -40,80 -64,157 -85,224 -45,147 -78,252 -215,270 -83,10 -152,-1 -208,-29 -93,-47 -147,-136 -170,-247 -21,-99 -19,-216 -1,-336 29,-188 98,-388 172,-523 -43,11 -114,93 -156,151 -101,141 -269,235 -416,116 -70,-58 -96,-147 -92,-245 6,-166 98,-358 204,-484 109,-129 266,-248 423,-366 189,-144 378,-287 460,-432z" style="fill:#00b9c2"/>
 </g><g id="NecklaceYinYang">
 <animateTransform additive="sum" attributeName="transform" dur="10" repeatCount="indefinite" type="translate" values="0;0 200;0;0 200;0;0 200;0;0 200;0"/>
  <metadata id="CorelCorpID_40Corel-Layer"/>
  <path class="NecklaceYinYangfil225new" d="M16543 17208c-73,675 -449,1409 -941,2000 -570,684 -1305,1183 -1920,1183 -615,0 -1350,-499 -1920,-1183 -492,-591 -868,-1325 -941,-2000l352 0c73,593 413,1245 856,1777 509,611 1145,1056 1653,1056 508,0 1144,-445 1653,-1056 442,-532 782,-1184 856,-1777l352 0z" style="fill:#51e413"/>
  <path class="NecklaceYinYangfil46new" d="M11135 16868c-273,1109 1292,3303 2547,3303 1255,0 2820,-2194 2547,-3303l-25 4c1,34 2,68 2,103 0,650 -370,1407 -871,2010 -509,611 -1145,1056 -1653,1056 -508,0 -1144,-445 -1653,-1056 -501,-603 -871,-1360 -871,-2010 0,-35 1,-69 2,-103l-25 -4z" style="fill:#cf8dff"/>
  <path class="NecklaceYinYangfil47new NecklaceYinYangstr4new" d="M16543 17208c-73,675 -449,1409 -941,2000 -570,684 -1305,1183 -1920,1183 -615,0 -1350,-499 -1920,-1183 -492,-591 -868,-1325 -941,-2000l352 0c73,593 413,1245 856,1777 509,611 1145,1056 1653,1056 508,0 1144,-445 1653,-1056 442,-532 782,-1184 856,-1777l352 0z" style="fill:#e015a2"/>
  <path class="NecklaceYinYangfil226new NecklaceYinYangstr3new" d="M11302 18631c-392,0 -362,-385 -163,-550 197,-163 493,-157 449,148 -114,-87 -503,248 -286,402z" style="fill:#a2ec1d"/>
  <path class="NecklaceYinYangfil227new NecklaceYinYangstr3new" d="M12385 19918c-393,11 -359,-370 -179,-545 182,-179 487,-172 453,134 -117,-83 -496,263 -274,411z" style="fill:#c1b4d0"/>
  <path class="NecklaceYinYangfil228new NecklaceYinYangstr3new" d="M16062 18631c392,0 345,-403 163,-550 -200,-160 -493,-157 -449,148 114,-87 503,248 286,402z" style="fill:#baa7eb"/>
  <path class="NecklaceYinYangfil229new NecklaceYinYangstr3new" d="M14979 19918c393,11 384,-357 179,-545 -202,-187 -487,-172 -453,134 117,-83 496,263 274,411z" style="fill:#23232b"/>
  <g>
   <circle class="NecklaceYinYangfil84new" r="1577" transform="matrix(-0.552338 -0.290723 0.290723 -0.552338 13681.9 21396.4)"/>
   <g>
    <path class="NecklaceYinYangfil84new" d="M14075 20650c412,217 570,727 353,1139 -215,409 -719,568 -1129,359l0 0c-3,-2 -7,-4 -10,-5l0 0c-206,-109 -285,-364 -177,-570 109,-206 364,-285 570,-177l0 0c206,109 461,30 570,-176 108,-207 29,-462 -177,-570z" style="fill:#7421a7"/>
    <path class="NecklaceYinYangfil83new" d="M13289 22143c-412,-217 -570,-727 -353,-1139 215,-409 718,-568 1129,-359l0 0c3,2 7,3 10,5l0 0c206,108 285,363 177,570 -109,206 -364,285 -570,176l0 0c-206,-108 -461,-29 -570,177 -108,206 -29,461 177,570z" style="fill:#aa11c7"/>
    <path class="NecklaceYinYangfil84new" d="M13943 20901c67,35 93,119 58,187 -36,67 -119,93 -187,58 -68,-36 -94,-120 -58,-187 36,-68 119,-94 187,-58z" style="fill:#9c4ead"/>
    <path class="NecklaceYinYangfil83new" d="M13421 21892c-68,-36 -94,-119 -58,-187 36,-67 119,-93 187,-58 68,36 93,119 58,187 -36,68 -119,94 -187,58z" style="fill:#beeed5"/>
   </g>
  </g>
  <path class="NecklaceYinYangfil230new NecklaceYinYangstr4new" d="M13599 19944l166 0c25,0 47,21 46,46l-24 447c-1,26 -20,46 -46,46l-119 0c-25,0 -44,-20 -46,-46l-23 -447c-1,-26 21,-46 46,-46z" style="fill:#07f7a3"/>
 </g><g id="Ears-Lizard0">
 <animateTransform additive="sum" attributeName="transform" dur="10" repeatCount="indefinite" type="translate" values="0;0 200;0;0 200;0;0 200;0;0 200;0"/>
  <metadata id="CorelCorpID_369Corel-Layer"/>
  <rect class="Ears-Lizard0fil22" height="1984" width="1815" x="12969" y="8203"/>
 </g><g id="BraceletLeather-Medium">
 <animateTransform additive="sum" attributeName="transform" dur="10" repeatCount="indefinite" type="translate" values="0;0 200;0;0 200;0;0 200;0;0 200;0"/>
  <metadata id="CorelCorpID_17Corel-Layer"/>
  <path class="BraceletLeather-Mediumfil42new BraceletLeather-Mediumstr3new" d="M8689 19690c-86,-160 -115,-250 -201,-410 -29,-75 3,-239 44,-232 104,3 219,4 324,-2 3,181 43,415 96,612 -87,11 -175,21 -263,32z" style="fill:#4eb599"/>
  <path class="BraceletLeather-Mediumfil43new" d="M8689 19690c-86,-160 -115,-250 -201,-410 -29,-75 3,-239 44,-232l8 0c53,219 164,421 282,626l-133 16z" style="fill:#e543c0"/>
  <path class="BraceletLeather-Mediumfil33new BraceletLeather-Mediumstr3new" d="M8689 19690c-86,-160 -115,-250 -201,-410 -29,-75 3,-239 44,-232 104,3 219,4 324,-2 3,181 43,415 96,612 -87,11 -175,21 -263,32z" style="fill:#e9920d"/>
  <path class="BraceletLeather-Mediumfil44new BraceletLeather-Mediumstr3new" d="M8645 19884c-170,-64 -251,-113 -421,-177 -71,-38 -153,-183 -118,-204 81,-66 168,-141 243,-214 121,135 304,285 474,399 -59,66 -118,131 -178,196z" style="fill:#586036"/>
  <path class="BraceletLeather-Mediumfil43new" d="M8645 19884c-170,-64 -251,-113 -421,-177 -71,-38 -153,-183 -118,-204l6 -5c184,130 400,211 623,288l-90 98z" style="fill:#e5797c"/>
  <path class="BraceletLeather-Mediumfil33new BraceletLeather-Mediumstr3new" d="M8645 19884c-170,-64 -251,-113 -421,-177 -71,-38 -153,-183 -118,-204 81,-66 168,-141 243,-214 121,135 304,285 474,399 -59,66 -118,131 -178,196z" style="fill:#7540f0"/>
  <path class="BraceletLeather-Mediumfil45new BraceletLeather-Mediumstr4new" d="M8734 19936c-151,-67 -255,-143 -151,-272 117,-147 267,-135 481,-33 407,194 958,608 1165,923 91,139 91,306 -39,409 -129,103 -210,-20 -308,-153 -243,-331 -765,-704 -1148,-874z" style="fill:#4cac77"/>
  <path class="BraceletLeather-Mediumfil46new" d="M8734 19936c-79,-35 -145,-73 -176,-119 77,-41 167,-29 240,0 506,201 953,539 1254,974 48,70 58,140 38,210 -76,-6 -138,-95 -208,-191 -243,-331 -765,-704 -1148,-874z" style="fill:#20cc29"/>
  <path class="BraceletLeather-Mediumfil47new BraceletLeather-Mediumstr4new" d="M8734 19936c-151,-67 -255,-143 -151,-272 117,-147 267,-135 481,-33 407,194 958,608 1165,923 91,139 91,306 -39,409 -129,103 -210,-20 -308,-153 -243,-331 -765,-704 -1148,-874z" style="fill:#650b8b"/>
  <path class="BraceletLeather-Mediumfil48new BraceletLeather-Mediumstr3new" d="M18674 19690c87,-160 116,-250 202,-410 29,-75 -3,-239 -44,-232 -104,3 -219,4 -324,-2 -3,181 -43,415 -97,612 88,11 176,21 263,32z" style="fill:#cee50f"/>
  <path class="BraceletLeather-Mediumfil43new" d="M18674 19690c87,-160 116,-250 202,-410 29,-75 -3,-239 -44,-232l-8 0c-53,219 -164,421 -282,626l132 16z" style="fill:#9ab631"/>
  <path class="BraceletLeather-Mediumfil33new BraceletLeather-Mediumstr3new" d="M18674 19690c87,-160 116,-250 202,-410 29,-75 -3,-239 -44,-232 -104,3 -219,4 -324,-2 -3,181 -43,415 -97,612 88,11 176,21 263,32z" style="fill:#35e9cb"/>
  <path class="BraceletLeather-Mediumfil49new BraceletLeather-Mediumstr3new" d="M18718 19884c170,-64 252,-113 422,-177 71,-38 153,-183 118,-204 -81,-66 -168,-141 -243,-214 -121,135 -305,285 -475,399 60,66 119,131 178,196z" style="fill:#b6e9eb"/>
  <path class="BraceletLeather-Mediumfil43new" d="M18718 19884c170,-64 252,-113 422,-177 71,-38 153,-183 118,-204l-6 -5c-184,130 -400,211 -623,288l89 98z" style="fill:#ca7b21"/>
  <path class="BraceletLeather-Mediumfil33new BraceletLeather-Mediumstr3new" d="M18718 19884c170,-64 252,-113 422,-177 71,-38 153,-183 118,-204 -81,-66 -168,-141 -243,-214 -121,135 -305,285 -475,399 60,66 119,131 178,196z" style="fill:#aade6d"/>
  <path class="BraceletLeather-Mediumfil50new BraceletLeather-Mediumstr4new" d="M18630 19936c151,-67 255,-143 151,-272 -117,-147 -267,-135 -481,-33 -407,194 -958,608 -1165,923 -91,139 -91,306 39,409 129,103 210,-20 307,-153 244,-331 766,-704 1149,-874z" style="fill:#a19d00"/>
  <path class="BraceletLeather-Mediumfil46new" d="M18630 19936c79,-35 145,-73 175,-119 -76,-41 -166,-29 -239,0 -507,201 -954,539 -1254,974 -48,70 -58,140 -38,210 76,-6 137,-95 207,-191 244,-331 766,-704 1149,-874z" style="fill:#47e6da"/>
  <path class="BraceletLeather-Mediumfil47new BraceletLeather-Mediumstr4new" d="M18630 19936c151,-67 255,-143 151,-272 -117,-147 -267,-135 -481,-33 -407,194 -958,608 -1165,923 -91,139 -91,306 39,409 129,103 210,-20 307,-153 244,-331 766,-704 1149,-874z" style="fill:#26a46e"/>
 </g><g id="Head-Lizard0">
 <animateTransform additive="sum" attributeName="transform" dur="10" repeatCount="indefinite" type="translate" values="0;0 200;0;0 200;0;0 200;0;0 200;0"/>
  <metadata id="CorelCorpID_370Corel-Layer"/>
  <path class="Head-Lizard0fil685" d="M13682 17789c-2774,0 -5314,-319 -6050,-2676 -509,-1629 233,-3251 984,-4113 -692,-592 -427,-1227 213,-1454 447,-158 949,-366 1308,-606 1009,-673 2198,-1146 3545,-1146 1347,0 2536,473 3545,1146 359,240 861,448 1308,606 640,227 905,862 213,1454 751,862 1492,2484 984,4113 -736,2357 -3276,2676 -6050,2676z" style="fill:#5c4f28"/>
  <path class="Head-Lizard0fil14" d="M12054 17786c-2092,-172 -3834,-788 -4422,-2673 -271,-866 -187,-1731 63,-2480 -639,2990 2593,4976 4359,5153z" style="fill:#cc4403"/>
  <path class="Head-Lizard0fil32" d="M12213 17798c-493,50 -1520,-128 -1706,-174 -445,-109 -859,-255 -1232,-450 -803,-420 -1410,-1063 -1715,-2039 -228,-732 -209,-1464 -50,-2127 192,-802 588,-1506 996,-1994 -352,-301 -481,-746 -334,-1032 169,-330 422,-434 904,-624 362,-142 742,-292 1019,-480 289,-196 590,-380 907,-539 124,-62 744,-365 1268,-369 -505,146 -1021,412 -1201,503 -311,156 -606,336 -890,529 -292,198 -679,351 -1049,496 -459,181 -687,321 -800,576 -95,217 -46,504 328,865 36,28 45,76 14,111 -413,473 -823,1181 -1017,1992 -153,640 -172,1344 48,2049 292,933 873,1549 1642,1951 363,190 769,333 1206,439 250,61 1375,273 1662,317z" style="fill:#36f393"/>
  <path class="Head-Lizard0fil32" d="M15151 17798c493,50 1520,-128 1705,-174 446,-109 860,-255 1232,-450 803,-420 1411,-1063 1715,-2039 229,-732 210,-1464 51,-2127 -192,-802 -588,-1506 -996,-1994 352,-301 480,-746 334,-1032 -169,-330 -422,-434 -904,-624 -362,-142 -742,-292 -1020,-480 -288,-196 -589,-380 -906,-539 -124,-62 -744,-365 -1268,-369 504,146 1021,412 1201,503 310,156 606,336 890,529 292,198 679,351 1049,496 459,181 687,321 800,576 95,217 46,504 -329,865 -35,28 -44,76 -13,111 413,473 823,1181 1017,1992 153,640 172,1344 -48,2049 -292,933 -873,1549 -1642,1951 -363,190 -769,333 -1206,439 -250,61 -1375,273 -1662,317z" style="fill:#4d6ef1"/>
  <path class="Head-Lizard0fil686" d="M13654 12622c1381,0 2500,896 2500,2000 0,1105 -1119,2000 -2500,2000 -1381,0 -2500,-895 -2500,-2000 0,-1104 1119,-2000 2500,-2000z" style="fill:#da038a"/>
 </g><g id="Mouth-Lizard0">
 <animateTransform additive="sum" attributeName="transform" dur="10" repeatCount="indefinite" type="translate" values="0;0 200;0;0 200;0;0 200;0;0 200;0"/>
  <metadata id="CorelCorpID_378Corel-Layer"/>
  <path class="Mouth-Lizard0fil708" d="M13682 17844c-963,0 -1475,-57 -2157,-142 -844,-197 -1780,-993 -1989,-1942 580,802 2764,3 4146,5 1382,-2 3502,822 4146,-5 -209,949 -1146,1745 -1990,1942 -681,85 -1193,142 -2156,142z" style="fill:#aba0ea"/>
  <path class="Mouth-Lizard0fil22 Mouth-Lizard0str0" d="M13682 15765c-1207,0 -3628,825 -4146,-5" style="fill:#ec6bf3"/>
  <path class="Mouth-Lizard0fil22 Mouth-Lizard0str11" d="M13682 15765c1207,0 3628,825 4146,-5" style="fill:#37bf1b"/>
 </g><g id="Eyes-Lizard5">
 <animateTransform additive="sum" attributeName="transform" dur="10" repeatCount="indefinite" type="translate" values="0;0 200;0;0 200;0;0 200;0;0 200;0"/>
  <metadata id="CorelCorpID_392Corel-Layer"/>
  <path class="Eyes-Lizard5fil14" d="M7970 13978c-146,-775 118,-2127 1014,-3020 -1331,-964 1812,-1105 2599,-217 786,888 1089,2831 276,3970 -989,1387 -3597,811 -3889,-733z"/>
  <g>
        <animateTransform additive="sum" attributeName="transform" dur="10" repeatCount="indefinite" type="translate" values="0;0;0;0;0;0;0;0;0;0;0;0;0;0;0;0;0;0;0;0;0;0;0;0;0;0;0;0;0;0;0;0;0;0;0;0;0;0;0;0;0;0;0;0;0;0;0;0;0;0;0;0;0;0;0;0;0;0;0;0;0;0;0;0;0;0;0;0;0;0;0;0;0;0;0;0;0;0;0;0;0;0;0;0;0;0;0;0;0;0;0 13300;0"/> 
        <g>
            <animateTransform additive="sum" attributeName="transform" dur="10" repeatCount="indefinite" type="scale" values="1;1;1;1;1;1;1;1;1;1;1;1;1;1;1;1;1;1;1;1;1;1;1;1;1;1;1;1;1;1;1;1;1;1;1;1;1;1;1;1;1;1;1;1;1;1;1;1;1;1;1;1;1;1;1;1;1;1;1;1;1;1;1;1;1;1;1;1;1;1;1;1;1;1;1;1;1;1;1;1;1;1;1;1;1;1;1;1;1;1;1 0.01;1"/> 
            <path class="Eyes-Lizard5fil758" d="M8452 14385c557,808 2256,711 2914,44 644,-652 482,-2662 45,-3311 -381,-566 -1248,-614 -1803,-283 -1379,822 -1782,2642 -1156,3550z"/>
            <path class="Eyes-Lizard5fil759" d="M8605 14560c16,15 33,29 50,43 415,-289 906,-584 1472,-830 -440,351 -797,709 -1086,1050 23,9 47,17 70,25 317,-304 678,-601 1090,-864 -237,299 -450,627 -624,963 31,3 62,6 94,8 190,-279 400,-563 635,-817 -110,265 -199,542 -249,813 36,-2 71,-6 106,-10 77,-258 175,-521 298,-765l-3 714c28,-7 57,-14 85,-21l85 -631 177 545c25,-11 50,-21 75,-32l-110 -588 304 489c22,-13 44,-26 65,-40l-257 -554 457 397c9,-8 18,-17 27,-26 10,-10 20,-21 30,-32l-446 -500 589 291c15,-27 29,-55 42,-84l-576 -374 654 170c12,-39 24,-78 34,-119l-675 -292 719 90c5,-30 10,-59 15,-89l-728 -175 750 0c3,-29 5,-59 8,-88l-764 -85 773 -65c1,-35 3,-70 3,-105l-782 -34 783 -110c-1,-39 -1,-78 -3,-118l-718 -1 711 -142c-2,-36 -5,-71 -8,-106l-734 50 717 -223c-5,-40 -10,-80 -16,-119l-739 107 710 -283c-6,-34 -13,-67 -20,-100l-733 179 692 -356c-8,-32 -17,-63 -26,-94l-734 258 673 -445c-11,-29 -23,-58 -34,-85l-695 338 574 -568 -1 -2c-14,-21 -28,-41 -43,-60l-542 432 343 -624c-15,-11 -30,-21 -46,-31l-346 514 82 -643c-19,-7 -39,-14 -59,-19l-166 685c-34,-253 -94,-500 -170,-742 -18,0 -36,-1 -54,-1 64,316 102,632 119,947 -123,-328 -294,-629 -512,-905 -18,5 -36,9 -54,14 211,344 370,702 486,1071 -221,-345 -500,-653 -860,-910 -18,11 -36,22 -54,34 317,299 583,627 802,981 -339,-292 -712,-542 -1118,-747 -15,12 -28,24 -42,36 403,260 762,563 1080,903 -451,-283 -897,-497 -1338,-644 -10,12 -21,24 -31,36 476,209 910,472 1313,775 -479,-225 -1010,-367 -1556,-448 -10,16 -20,32 -31,49 531,152 1043,339 1500,585 -540,-170 -1092,-255 -1682,-243 -10,22 -20,44 -29,66 589,66 1156,206 1699,406 -616,-81 -1221,-98 -1828,-42 -5,18 -10,37 -15,55 639,1 1269,63 1845,208 -625,-30 -1284,4 -1914,135 -4,28 -7,56 -10,83 623,-56 1250,-76 1872,-49 -628,61 -1257,192 -1886,397 1,15 1,30 2,46 621,-147 1250,-239 1891,-264 -644,132 -1261,319 -1850,591 3,13 6,26 9,39 597,-213 1204,-334 1804,-423 -578,185 -1143,429 -1694,754 6,13 12,26 18,39 540,-260 1107,-475 1713,-629 -558,293 -1059,643 -1454,985z"/>
            <path class="Eyes-Lizard5fil740" d="M11750 13501c132,-849 -39,-1937 -339,-2383 -381,-566 -1248,-614 -1803,-283 -830,495 -1306,1350 -1417,2151 444,-1198 1906,-2113 2492,-1923 818,266 1174,1264 1067,2438z"/>
            <path class="Eyes-Lizard5fil760" d="M10247 10989c651,-163 1053,398 1180,1226 128,828 84,2008 -835,2202 -919,194 -1363,-347 -1402,-1302 -39,-955 406,-1963 1057,-2126z"/>
            <path class="Eyes-Lizard5fil22 Eyes-Lizard5str4" d="M8452 14385c557,808 2256,711 2914,44 644,-652 482,-2662 45,-3311 -381,-566 -1248,-614 -1803,-283 -1379,822 -1782,2642 -1156,3550z"/>
            <path class="Eyes-Lizard5fil152" d="M10296 14232c214,-22 240,-95 253,-359 14,264 40,337 254,359 -214,21 -240,94 -254,358 -13,-264 -39,-337 -253,-358z"/>
            <path class="Eyes-Lizard5fil152" d="M10054 14430c94,-9 106,-41 111,-157 6,116 18,148 112,157 -94,10 -106,42 -112,157 -5,-115 -17,-147 -111,-157z"/>
            <path class="Eyes-Lizard5fil152" d="M10689 13703c94,-9 105,-41 111,-157 6,116 18,148 112,157 -94,10 -106,42 -112,157 -6,-115 -17,-147 -111,-157z"/>
            <path class="Eyes-Lizard5fil152" d="M8885 12298c129,-13 145,-57 153,-216 8,159 24,203 153,216 -129,13 -145,57 -153,216 -8,-159 -24,-203 -153,-216z"/>
            <path class="Eyes-Lizard5fil152" d="M11110 13961c94,-9 105,-41 111,-157 6,116 18,148 112,157 -94,10 -106,42 -112,158 -6,-116 -17,-148 -111,-158z"/>
            <path class="Eyes-Lizard5fil152" d="M8431 13602c-8,951 787,1268 1452,1178 -605,-76 -1257,-417 -1452,-1178z"/>
            <circle class="Eyes-Lizard5fil152" r="235" transform="matrix(1.65698 -1.53296 0.903442 0.660992 9546.21 11364.7)"/>
            <circle class="Eyes-Lizard5fil152" r="235" transform="matrix(0.246297 -0.515148 0.344329 0.113736 8921.89 11882.2)"/>
            <circle class="Eyes-Lizard5fil152" r="235" transform="matrix(0.570071 -0.0325374 0.0663361 0.356508 10408.1 10967.5)"/>
            <path class="Eyes-Lizard5fil152" d="M10940 13046c190,-20 213,-84 225,-318 12,234 35,298 225,318 -190,19 -213,84 -225,317 -12,-233 -35,-298 -225,-317z"/>
            <circle class="Eyes-Lizard5fil152" r="235" transform="matrix(0.571973 0.0891005 -0.163247 0.800032 11439.4 13653)"/>
        </g>
    </g>
    <path class="Eyes-Lizard5fil14" d="M19394 13978c146,-775 -118,-2127 -1014,-3020 1331,-964 -1812,-1105 -2599,-217 -786,888 -1089,2831 -276,3970 988,1387 3597,811 3889,-733z"/>
   <g>
        <animateTransform additive="sum" attributeName="transform" dur="10" repeatCount="indefinite" type="translate" values="0;0;0;0;0;0;0;0;0;0;0;0;0;0;0;0;0;0;0;0;0;0;0;0;0;0;0;0;0;0;0;0;0;0;0;0;0;0;0;0;0;0;0;0;0;0;0;0;0;0;0;0;0;0;0;0;0;0;0;0;0;0;0;0;0;0;0;0;0;0;0;0;0;0;0;0;0;0;0;0;0;0;0;0;0;0;0;0;0;0;0 13300;0"/> 
        <g>
            <animateTransform additive="sum" attributeName="transform" dur="10" repeatCount="indefinite" type="scale" values="1;1;1;1;1;1;1;1;1;1;1;1;1;1;1;1;1;1;1;1;1;1;1;1;1;1;1;1;1;1;1;1;1;1;1;1;1;1;1;1;1;1;1;1;1;1;1;1;1;1;1;1;1;1;1;1;1;1;1;1;1;1;1;1;1;1;1;1;1;1;1;1;1;1;1;1;1;1;1;1;1;1;1;1;1;1;1;1;1;1;1 0.01;1"/> 
            <path class="Eyes-Lizard5fil761" d="M18912 14385c-557,808 -2256,711 -2914,44 -644,-652 -482,-2662 -45,-3311 381,-566 1248,-614 1803,-283 1379,822 1782,2642 1156,3550z"/>
            <path class="Eyes-Lizard5fil762" d="M18759 14560c-16,15 -33,29 -50,43 -415,-289 -906,-584 -1472,-830 440,351 797,709 1085,1050 -23,9 -46,17 -69,25 -317,-304 -678,-601 -1090,-864 237,299 450,627 624,963 -31,3 -63,6 -94,8 -190,-279 -400,-563 -635,-817 110,265 199,542 248,813 -35,-2 -70,-6 -105,-10 -77,-258 -176,-521 -298,-765l3 714c-29,-7 -57,-14 -85,-21l-85 -631 -177 545c-25,-11 -50,-21 -75,-32l110 -588 -304 489c-22,-13 -44,-26 -65,-40l257 -554 -457 397c-10,-8 -19,-17 -27,-26 -11,-10 -21,-21 -30,-32l446 -500 -590 291c-14,-27 -28,-55 -41,-84l575 -374 -653 170c-12,-39 -24,-78 -34,-119l675 -292 -719 90c-6,-30 -10,-59 -15,-89l728 -175 -750 0c-3,-29 -6,-59 -8,-88l764 -85 -773 -65c-2,-35 -3,-70 -3,-105l782 -34 -783 -110c0,-39 1,-78 3,-118l718 -1 -711 -142c2,-36 5,-71 7,-106l735 50 -717 -223c5,-40 10,-80 16,-119l738 107 -709 -283c6,-34 13,-67 19,-100l734 179 -692 -356c8,-32 17,-63 26,-94l734 258 -673 -445c11,-29 23,-58 34,-85l694 338 -573 -568 1 -2c14,-21 28,-41 43,-60l542 432 -343 -624c15,-11 30,-21 46,-31l345 514 -81 -643c19,-7 39,-14 59,-19l166 685c34,-253 93,-500 169,-742 19,0 37,-1 55,-1 -64,316 -103,632 -119,947 123,-328 294,-629 512,-905 18,5 36,9 54,14 -211,344 -370,702 -486,1071 220,-345 500,-653 860,-910 18,11 36,22 54,34 -317,299 -584,627 -802,981 339,-292 711,-542 1118,-747 14,12 28,24 42,36 -403,260 -762,563 -1080,903 451,-283 897,-497 1338,-644 10,12 21,24 31,36 -476,209 -910,472 -1313,775 479,-225 1010,-367 1555,-448 11,16 21,32 31,49 -530,152 -1042,339 -1499,585 540,-170 1092,-255 1682,-243 10,22 19,44 29,66 -590,66 -1156,206 -1699,406 616,-81 1221,-98 1828,-42 5,18 10,37 15,55 -639,1 -1269,63 -1846,208 626,-30 1285,4 1915,135 4,28 7,56 10,83 -623,-56 -1250,-76 -1873,-49 629,61 1258,192 1887,397 -1,15 -2,30 -2,46 -621,-147 -1250,-239 -1891,-264 643,132 1261,319 1850,591 -3,13 -6,26 -9,39 -597,-213 -1204,-334 -1804,-423 578,185 1143,429 1694,754 -6,13 -12,26 -19,39 -539,-260 -1106,-475 -1712,-629 557,293 1059,643 1454,985z"/>
            <path class="Eyes-Lizard5fil740" d="M15614 13501c-132,-849 39,-1937 339,-2383 381,-566 1248,-614 1803,-283 830,495 1306,1350 1417,2151 -444,-1198 -1906,-2113 -2492,-1923 -818,266 -1175,1264 -1067,2438z"/>
            <path class="Eyes-Lizard5fil763" d="M17117 10989c-651,-163 -1053,398 -1180,1226 -128,828 -85,2008 835,2202 919,194 1363,-347 1402,-1302 39,-955 -406,-1963 -1057,-2126z"/>
            <path class="Eyes-Lizard5fil22 Eyes-Lizard5str4" d="M18912 14385c-557,808 -2256,711 -2914,44 -644,-652 -482,-2662 -45,-3311 381,-566 1248,-614 1803,-283 1379,822 1782,2642 1156,3550z"/>
            <path class="Eyes-Lizard5fil152" d="M17068 14232c-214,-22 -240,-95 -254,-359 -13,264 -39,337 -253,359 214,21 240,94 253,358 14,-264 40,-337 254,-358z"/>
            <path class="Eyes-Lizard5fil152" d="M17310 14430c-94,-9 -106,-41 -112,-157 -5,116 -17,148 -111,157 94,10 106,42 111,157 6,-115 18,-147 112,-157z"/>
            <path class="Eyes-Lizard5fil152" d="M16675 13703c-94,-9 -106,-41 -111,-157 -6,116 -18,148 -112,157 94,10 106,42 112,157 5,-115 17,-147 111,-157z"/>
            <path class="Eyes-Lizard5fil152" d="M18479 12298c-129,-13 -145,-57 -153,-216 -8,159 -24,203 -153,216 129,13 145,57 153,216 8,-159 24,-203 153,-216z"/>
            <path class="Eyes-Lizard5fil152" d="M16254 13961c-94,-9 -106,-41 -111,-157 -6,116 -18,148 -112,157 94,10 106,42 112,158 5,-116 17,-148 111,-158z"/>
            <path class="Eyes-Lizard5fil152" d="M18933 13602c8,951 -787,1268 -1452,1178 605,-76 1257,-417 1452,-1178z"/>
            <circle class="Eyes-Lizard5fil152" r="235" transform="matrix(-1.65698 -1.53296 -0.903442 0.660992 17817.6 11364.7)"/>
            <circle class="Eyes-Lizard5fil152" r="235" transform="matrix(-0.246297 -0.515148 -0.344329 0.113736 18442 11882.2)"/>
            <circle class="Eyes-Lizard5fil152" r="235" transform="matrix(-0.570071 -0.0325374 -0.0663361 0.356508 16955.7 10967.5)"/>
            <path class="Eyes-Lizard5fil152" d="M16424 13046c-190,-20 -213,-84 -225,-318 -12,234 -35,298 -225,318 190,19 213,84 225,317 12,-233 35,-298 225,-317z"/>
            <circle class="Eyes-Lizard5fil152" r="235" transform="matrix(-0.571973 0.0891005 0.163247 0.800032 15924.5 13653)"/>
        </g>
    </g>
 </g><g id="Moustache-Lizard0">
 <animateTransform additive="sum" attributeName="transform" dur="10" repeatCount="indefinite" type="translate" values="0;0 200;0;0 200;0;0 200;0;0 200;0"/>
  <metadata id="CorelCorpID_398Corel-Layer"/>
  <rect class="Moustache-Lizard0fil22" height="802" width="919" x="13222" y="14329"/>
 </g><g id="Nose-Lizard0">
 <animateTransform additive="sum" attributeName="transform" dur="10" repeatCount="indefinite" type="translate" values="0;0 200;0;0 200;0;0 200;0;0 200;0"/>
  <metadata id="CorelCorpID_400Corel-Layer"/>
  <g>
   <path class="Nose-Lizard0fil100" d="M13012 15166c-94,181 -789,71 -592,-308 197,-378 686,127 592,308z" style="fill:#c03c17"/>
   <path class="Nose-Lizard0fil100" d="M14352 15166c94,181 789,71 592,-308 -197,-378 -687,127 -592,308z" style="fill:#6f8ec9"/>
  </g>
 </g><g id="HatGlasses-Big">
 <animateTransform additive="sum" attributeName="transform" dur="10" repeatCount="indefinite" type="translate" values="0;0 200;0;0 200;0;0 200;0;0 200;0"/>
  <metadata id="CorelCorpID_77Corel-Layer"/>
  <path class="HatGlasses-Bigfil571new" d="M8526 12672c1186,-170 2359,-126 3470,174 316,85 403,326 429,523 49,369 12,738 -141,1108 -76,183 -218,292 -415,317 -988,127 -1943,119 -2963,-54 -231,-39 -359,-150 -480,-361 -238,-413 -340,-803 -347,-1205 -5,-292 179,-463 447,-502z" style="fill:#2583cc"/>
  <path class="HatGlasses-Bigfil572new" d="M8526 12672c1186,-170 2359,-126 3470,174 316,85 403,326 429,523 49,369 12,738 -141,1108 -36,86 -86,156 -150,208 99,-556 56,-1023 -447,-1453 -549,-469 -2698,-720 -3551,-315 74,-137 214,-219 390,-245z" style="fill:#52754d"/>
  <path class="HatGlasses-Bigfil571new" d="M18838 12672c-1186,-170 -2359,-126 -3470,174 -316,85 -403,326 -429,523 -50,369 -12,738 141,1108 76,183 218,292 415,317 988,127 1943,119 2963,-54 231,-39 359,-150 480,-361 238,-413 340,-803 347,-1205 5,-292 -180,-463 -447,-502z" style="fill:#3585fa"/>
  <path class="HatGlasses-Bigfil572new" d="M18838 12672c-1186,-170 -2359,-126 -3470,174 -202,54 -310,172 -369,302 732,-530 3052,-443 3568,-53 462,349 342,971 104,1574 109,-61 189,-155 267,-290 238,-413 340,-803 347,-1205 5,-292 -180,-463 -447,-502z" style="fill:#343f56"/>
  <path class="HatGlasses-Bigfil708new" d="M18819 12800c-593,-86 -1184,-117 -1764,-88 -561,28 -1115,113 -1654,258 -123,33 -201,95 -250,168 -51,76 -74,166 -85,248 -23,173 -26,347 -5,522 21,173 66,347 138,520 28,70 69,125 121,164 52,40 116,65 191,75 488,62 968,92 1451,84 483,-7 970,-52 1475,-138 94,-16 165,-45 224,-91 61,-48 114,-116 166,-207 113,-196 194,-387 247,-577 54,-189 79,-376 83,-566 2,-107 -29,-190 -82,-250 -58,-66 -147,-107 -256,-122zm-10311 -255c609,-88 1215,-119 1813,-89 579,28 1149,115 1703,264 484,109 1212,273 1658,273 446,0 1174,-164 1658,-273 554,-149 1124,-236 1703,-264 597,-30 1204,1 1813,89 168,24 311,93 411,206 96,107 149,249 146,425 -3,213 -32,422 -91,631 -59,209 -148,419 -273,636 -68,120 -141,212 -231,282 -93,73 -201,118 -339,142 -515,87 -1015,133 -1513,141 -496,8 -988,-22 -1487,-87 -122,-15 -228,-57 -315,-124 -88,-67 -156,-158 -203,-271 -81,-195 -131,-390 -155,-584 -98,-446 -620,-660 -1124,-660 -504,0 -1026,214 -1124,660 -24,194 -74,389 -155,584 -47,113 -115,204 -203,271 -88,67 -193,109 -315,124 -499,65 -991,95 -1487,87 -498,-8 -998,-54 -1514,-141 -137,-24 -245,-69 -338,-142 -90,-70 -163,-162 -232,-282 -124,-217 -213,-427 -272,-636 -59,-209 -88,-418 -91,-631 -4,-176 50,-318 146,-425 100,-113 243,-182 411,-206zm1801 167c-580,-29 -1171,2 -1765,88 -108,15 -197,56 -255,122 -54,60 -84,143 -82,250 4,190 29,377 82,566 54,190 135,381 248,577 52,91 104,159 166,207 59,46 130,75 224,91 505,86 992,131 1475,138 483,8 963,-22 1451,-84 75,-10 139,-35 191,-75 52,-39 92,-94 121,-164 72,-173 117,-347 138,-520 21,-175 18,-349 -5,-522 -11,-82 -34,-172 -86,-248 -48,-73 -126,-135 -249,-168 -540,-145 -1093,-230 -1654,-258z" style="fill:#42d6ff"/>
 </g><g id="Hair-Lizard6">
 <animateTransform additive="sum" attributeName="transform" dur="10" repeatCount="indefinite" type="translate" values="0;0 200;0;0 200;0;0 200;0;0 200;0"/>
  <metadata id="CorelCorpID_407Corel-Layer"/>
  <path class="Hair-Lizard6fil810 Hair-Lizard6str0" d="M12664 7882c-57,-122 -114,-233 -169,-330 -535,-941 -26,-788 638,185 11,17 22,34 34,51l-503 94z" style="fill:#17ec9e"/>
  <path class="Hair-Lizard6fil811 Hair-Lizard6str0" d="M14845 7896c138,-356 277,-667 410,-901 535,-940 26,-787 -637,186 -115,168 -231,379 -345,614l188 14 384 87z" style="fill:#a0ef46"/>
  <path class="Hair-Lizard6fil812 Hair-Lizard6str0" d="M13876 7945c531,-887 1129,-1764 1578,-2223 757,-773 226,-755 -664,17 -363,316 -795,857 -1182,1418l268 0 0 788z" style="fill:#074d53"/>
  <path class="Hair-Lizard6fil813 Hair-Lizard6str0" d="M13904 8160c99,-1325 488,-3579 915,-4574 426,-994 -63,-785 -613,256 -550,1041 -994,3487 -861,3942 167,557 479,313 559,376z" style="fill:#161a8b"/>
  <path class="Hair-Lizard6fil814 Hair-Lizard6str0" d="M13260 8138c34,-1328 -269,-2954 -594,-3986 -325,-1032 141,-775 584,315 443,1091 723,2703 546,3142 -223,538 -450,475 -536,529z" style="fill:#4ff0ce"/>
  <path class="Hair-Lizard6fil32" d="M11102 8309c722,-371 1771,-590 2580,-590 809,0 1858,219 2580,590l-60 117c-662,-340 -1777,-572 -2520,-572 -743,0 -1858,232 -2520,572l-60 -117z" style="fill:#28f55e"/>
  <path class="Hair-Lizard6fil815 Hair-Lizard6str0" d="M13347 8364c-527,-1219 -872,-1867 -1601,-2667 -729,-800 -89,-771 732,61 822,832 1026,1508 1050,1981 25,582 -125,540 -181,625z" style="fill:#6d05f8"/>
  <path class="Hair-Lizard6fil816 Hair-Lizard6str0" d="M13308 8015c-51,-1281 574,-2466 1186,-2873 611,-406 -823,1715 -841,3585 -3,314 -325,-209 -345,-712z" style="fill:#21fb5a"/>
  <path class="Hair-Lizard6fil817 Hair-Lizard6str0" d="M13550 8485c130,-835 571,-1782 1068,-2111 796,-526 -285,808 -311,2314 -4,222 -247,436 -469,432 -350,-7 -334,-365 -288,-635z" style="fill:#196562"/>
 </g><g id="NecklaceShipWheel">
  <metadata id="CorelCorpID_57Corel-Layer"/>
  <path class="NecklaceShipWheelfil371new NecklaceShipWheelstr0new" d="M13682 19054c-550,0 -1250,379 -1347,1130l-729 5632 2076 0 2076 0 -729 -5632c-97,-751 -798,-1130 -1347,-1130z" style="fill:#c2befb"/>
  <path class="NecklaceShipWheelfil14new" d="M14042 19617c639,268 940,1002 672,1640 -267,639 -1001,940 -1640,672 -638,-267 -939,-1001 -672,-1640 268,-638 1002,-939 1640,-672z" style="fill:#92d1aa"/>
  <path class="NecklaceShipWheelfil14new" d="M12132 21754l-526 4062 2076 0 2076 0 -66 -509c-1400,227 -3532,285 -3560,-3553z" style="fill:#edfce3"/>
  <g>
   <path class="NecklaceShipWheelfil372new" d="M11448 17890c63,-48 127,-97 190,-145 63,-48 127,-96 190,-145 -93,-477 -544,-1362 -856,-1124l-380 289c-312,238 421,908 856,1125z" style="fill:#e3038b"/>
   <path class="NecklaceShipWheelfil14new" d="M11448 17890c63,-48 127,-97 190,-145 59,-45 118,-90 177,-134 -429,68 -910,-176 -1277,-585 107,298 589,704 910,864z" style="fill:#69d2ec"/>
   <path class="NecklaceShipWheelfil373new" d="M11755 17656l73 -56c-93,-477 -544,-1362 -856,-1124l-380 289c-84,64 -92,160 -51,269 8,-8 16,-16 26,-23l381 -290c274,-209 655,449 807,935z" style="fill:#1b0c11"/>
   <path class="NecklaceShipWheelfil33new NecklaceShipWheelstr0new" d="M11448 17890c63,-48 127,-97 190,-145 63,-48 127,-96 190,-145 -93,-477 -544,-1362 -856,-1124l-380 289c-312,238 421,908 856,1125z" style="fill:#e32dcc"/>
   <polygon class="NecklaceShipWheelfil374 NecklaceShipWheelstr0new" points="11326,17924 11894,17492 12173,17859 11605,18291 "/>
   <path class="NecklaceShipWheelfil375new" d="M12166 18834c64,-48 127,-96 191,-145 63,-48 127,-96 190,-145 334,267 579,601 753,989 -64,48 -127,97 -191,145 -63,48 -127,97 -190,145 -328,-271 -585,-596 -753,-989z" style="fill:#7222d1"/>
   <path class="NecklaceShipWheelfil14new" d="M13147 19410l-163 124 -153 117 -58 10c-219,-184 -368,-500 -517,-738 302,363 496,575 891,487z" style="fill:#775252"/>
   <path class="NecklaceShipWheelfil373new" d="M12415 18645l132 -101c334,267 579,601 753,989l-155 82c-170,-379 -408,-707 -730,-970z" style="fill:#8def31"/>
   <path class="NecklaceShipWheelfil33new NecklaceShipWheelstr0new" d="M12166 18834c64,-48 127,-96 191,-145 63,-48 127,-96 190,-145 334,267 579,601 753,989 -64,48 -127,97 -191,145 -63,48 -127,97 -190,145 -328,-271 -585,-596 -753,-989z" style="fill:#50b64e"/>
   <polygon class="NecklaceShipWheelfil376new NecklaceShipWheelstr0new" points="12161,19022 12729,18589 12450,18222 11882,18654 "/>
  </g>
  <g>
   <path class="NecklaceShipWheelfil377new" d="M10350 21103c-10,-79 -20,-158 -30,-237 -10,-79 -20,-158 -30,-237 -460,-158 -1452,-210 -1402,179l60 475c50,388 997,89 1402,-180z" style="fill:#988449"/>
   <path class="NecklaceShipWheelfil14new" d="M10350 21103c-10,-79 -20,-158 -30,-237 -9,-73 -19,-147 -28,-220 -156,405 -607,700 -1144,813 311,57 904,-158 1202,-356z" style="fill:#a294ce"/>
   <path class="NecklaceShipWheelfil373new" d="M10301 20720l-11 -91c-460,-158 -1452,-210 -1402,179l60 475c14,104 92,159 208,178 -4,-11 -6,-23 -8,-35l-60 -474c-44,-342 716,-343 1213,-232z" style="fill:#d99897"/>
   <path class="NecklaceShipWheelfil33new NecklaceShipWheelstr0new" d="M10350 21103c-10,-79 -20,-158 -30,-237 -10,-79 -20,-158 -30,-237 -460,-158 -1452,-210 -1402,179l60 475c50,388 997,89 1402,-180z" style="fill:#92d274"/>
   <polygon class="NecklaceShipWheelfil378new NecklaceShipWheelstr0new" points="10319,21226 10228,20518 10686,20460 10776,21168 "/>
   <path class="NecklaceShipWheelfil379new" d="M11527 20953c-10,-79 -20,-158 -30,-237 -10,-79 -20,-158 -30,-237 397,-156 809,-201 1232,-158 10,79 21,158 31,237 10,80 20,159 30,238 -399,148 -809,208 -1233,157z" style="fill:#5b1753"/>
   <path class="NecklaceShipWheelfil14new" d="M12516 20392l26 203 25 191 -20 55c-269,98 -617,69 -898,79 466,-80 746,-142 867,-528z" style="fill:#2f38fc"/>
   <path class="NecklaceShipWheelfil373new" d="M11488 20643l-21 -164c397,-156 809,-201 1232,-158l-6 175c-413,-42 -816,0 -1205,147z" style="fill:#2474c3"/>
   <path class="NecklaceShipWheelfil33new NecklaceShipWheelstr0new" d="M11527 20953c-10,-79 -20,-158 -30,-237 -10,-79 -20,-158 -30,-237 397,-156 809,-201 1232,-158 10,79 21,158 31,237 10,80 20,159 30,238 -399,148 -809,208 -1233,157z" style="fill:#9efbd8"/>
   <polygon class="NecklaceShipWheelfil380new NecklaceShipWheelstr0new" points="11687,21051 11596,20343 11139,20402 11229,21110 "/>
  </g>
  <g>
   <path class="NecklaceShipWheelfil381new" d="M12585 23660c-74,-30 -147,-61 -221,-92 -74,-31 -147,-62 -221,-92 -366,319 -907,1152 -546,1303l442 185c361,151 575,-818 546,-1304z" style="fill:#652603"/>
   <path class="NecklaceShipWheelfil14new" d="M12585 23660c-74,-30 -147,-61 -221,-92 -68,-29 -137,-57 -205,-86 273,338 303,876 133,1398 204,-241 315,-862 293,-1220z" style="fill:#8db159"/>
   <path class="NecklaceShipWheelfil373new" d="M12228 23511l-85 -35c-366,319 -907,1152 -546,1303l442 185c97,41 184,0 258,-90 -11,-3 -22,-6 -34,-11l-441 -185c-317,-133 61,-792 406,-1167z" style="fill:#5a1f0f"/>
   <path class="NecklaceShipWheelfil33new NecklaceShipWheelstr0new" d="M12585 23660c-74,-30 -147,-61 -221,-92 -74,-31 -147,-62 -221,-92 -366,319 -907,1152 -546,1303l442 185c361,151 575,-818 546,-1304z" style="fill:#1ececb"/>
   <polygon class="NecklaceShipWheelfil382new NecklaceShipWheelstr0new" points="12675,23749 12017,23473 12195,23048 12853,23324 "/>
   <path class="NecklaceShipWheelfil383new" d="M13043 22566c-74,-31 -147,-62 -221,-92 -73,-31 -147,-62 -220,-93 63,-422 231,-801 480,-1146 73,31 147,62 220,92 74,31 147,62 221,93 -71,419 -224,804 -480,1146z" style="fill:#1f2072"/>
   <path class="NecklaceShipWheelfil14new" d="M13052 21429l188 79 178 74 38 45c-50,282 -249,569 -381,817 163,-444 250,-717 -23,-1015z" style="fill:#207af0"/>
   <path class="NecklaceShipWheelfil373new" d="M12755 22445l-153 -64c64,-422 231,-801 480,-1146l148 93c-243,337 -408,707 -475,1117z" style="fill:#c97177"/>
   <path class="NecklaceShipWheelfil33new NecklaceShipWheelstr0new" d="M13043 22566c-74,-31 -147,-62 -221,-92 -73,-31 -147,-62 -220,-93 63,-422 231,-801 480,-1146 73,31 147,62 220,92 74,31 147,62 221,93 -71,419 -224,804 -480,1146z" style="fill:#ee8c45"/>
   <polygon class="NecklaceShipWheelfil384new NecklaceShipWheelstr0new" points="13208,22477 12549,22201 12371,22627 13030,22902 "/>
  </g>
  <g>
   <path class="NecklaceShipWheelfil385new" d="M15916 23004c-63,48 -127,97 -190,145 -64,48 -127,96 -191,145 94,477 545,1362 857,1124l380 -289c312,-238 -421,-908 -856,-1125z" style="fill:#c394e6"/>
   <path class="NecklaceShipWheelfil14new" d="M15916 23004c-63,48 -127,97 -190,145 -59,45 -118,90 -177,134 429,-68 910,176 1277,585 -107,-298 -589,-704 -910,-864z" style="fill:#53bb5b"/>
   <path class="NecklaceShipWheelfil373new" d="M15609 23238l-74 56c94,477 545,1362 857,1124l380 -289c84,-64 92,-160 51,-269 -8,8 -16,16 -26,23l-381 290c-274,209 -655,-449 -807,-935z" style="fill:#74bcea"/>
   <path class="NecklaceShipWheelfil33new NecklaceShipWheelstr0new" d="M15916 23004c-63,48 -127,97 -190,145 -64,48 -127,96 -191,145 94,477 545,1362 857,1124l380 -289c312,-238 -421,-908 -856,-1125z" style="fill:#fae60a"/>
   <polygon class="NecklaceShipWheelfil386new NecklaceShipWheelstr0new" points="16038,22970 15470,23402 15191,23035 15759,22603 "/>
   <path class="NecklaceShipWheelfil387new" d="M15198 22060c-64,48 -127,97 -191,145 -63,48 -127,96 -190,145 -334,-267 -579,-601 -753,-989 64,-48 127,-97 191,-145 63,-48 127,-97 190,-145 328,271 585,596 753,989z" style="fill:#71f50f"/>
   <path class="NecklaceShipWheelfil14new" d="M14217 21484l163 -124 153 -117 58 -10c219,184 368,500 517,738 -303,-363 -496,-575 -891,-487z" style="fill:#8edc90"/>
   <path class="NecklaceShipWheelfil373new" d="M14949 22249l-132 101c-334,-267 -579,-601 -753,-989l155 -82c170,379 408,707 730,970z" style="fill:#aa53ec"/>
   <path class="NecklaceShipWheelfil33new NecklaceShipWheelstr0new" d="M15198 22060c-64,48 -127,97 -191,145 -63,48 -127,96 -190,145 -334,-267 -579,-601 -753,-989 64,-48 127,-97 191,-145 63,-48 127,-97 190,-145 328,271 585,596 753,989z" style="fill:#ce91ac"/>
   <polygon class="NecklaceShipWheelfil388new NecklaceShipWheelstr0new" points="15203,21873 14635,22305 14914,22672 15482,22240 "/>
  </g>
  <g>
   <path class="NecklaceShipWheelfil389new" d="M17013 19791c11,79 21,158 31,237 10,79 20,158 30,237 460,158 1452,210 1402,-179l-60 -475c-50,-388 -997,-89 -1403,180z" style="fill:#9c3cb7"/>
   <path class="NecklaceShipWheelfil14new" d="M17013 19791c11,79 21,158 31,237 9,73 19,147 28,220 155,-405 607,-700 1144,-813 -311,-57 -904,158 -1203,356z" style="fill:#4e1665"/>
   <path class="NecklaceShipWheelfil373new" d="M17062 20174l12 91c460,158 1452,210 1402,-179l-60 -475c-14,-104 -92,-159 -208,-178 3,11 6,23 7,35l61 474c44,342 -717,343 -1214,232z" style="fill:#e6c0d7"/>
   <path class="NecklaceShipWheelfil33new NecklaceShipWheelstr0new" d="M17013 19791c11,79 21,158 31,237 10,79 20,158 30,237 460,158 1452,210 1402,-179l-60 -475c-50,-388 -997,-89 -1403,180z" style="fill:#5266e1"/>
   <polygon class="NecklaceShipWheelfil390new NecklaceShipWheelstr0new" points="17045,19668 17135,20376 16678,20434 16587,19726 "/>
   <path class="NecklaceShipWheelfil391new" d="M15837 19941c10,79 20,158 30,237 10,79 20,158 30,237 -397,156 -809,201 -1232,158 -11,-79 -21,-158 -31,-237 -10,-80 -20,-159 -30,-238 399,-148 808,-208 1233,-157z" style="fill:#2afde0"/>
   <path class="NecklaceShipWheelfil14new" d="M14847 20502l-25 -203 -25 -191 20 -55c269,-98 617,-69 898,-79 -466,81 -746,142 -868,528z" style="fill:#1a3779"/>
   <path class="NecklaceShipWheelfil373new" d="M15876 20251l21 164c-398,156 -809,201 -1232,158l6 -175c413,42 816,0 1205,-147z" style="fill:#8fff98"/>
   <path class="NecklaceShipWheelfil33new NecklaceShipWheelstr0new" d="M15837 19941c10,79 20,158 30,237 10,79 20,158 30,237 -397,156 -809,201 -1232,158 -11,-79 -21,-158 -31,-237 -10,-80 -20,-159 -30,-238 399,-148 808,-208 1233,-157z" style="fill:#e55379"/>
   <polygon class="NecklaceShipWheelfil392new NecklaceShipWheelstr0new" points="15677,19843 15767,20551 16225,20492 16135,19784 "/>
  </g>
  <g>
   <path class="NecklaceShipWheelfil393new" d="M14779 17234c74,30 147,61 221,92 73,31 147,62 221,92 366,-319 907,-1152 546,-1303l-442 -185c-361,-151 -576,818 -546,1304z" style="fill:#b36afe"/>
   <path class="NecklaceShipWheelfil14new" d="M14779 17234c74,30 147,61 221,92 68,29 136,57 205,86 -274,-338 -303,-876 -133,-1398 -204,241 -315,862 -293,1220z" style="fill:#ef0060"/>
   <path class="NecklaceShipWheelfil373new" d="M15135 17383l86 35c366,-319 907,-1152 546,-1303l-442 -185c-97,-41 -184,0 -258,90 11,3 22,6 34,11l441 185c317,133 -61,792 -407,1167z" style="fill:#3c8e5d"/>
   <path class="NecklaceShipWheelfil33new NecklaceShipWheelstr0new" d="M14779 17234c74,30 147,61 221,92 73,31 147,62 221,92 366,-319 907,-1152 546,-1303l-442 -185c-361,-151 -576,818 -546,1304z" style="fill:#29af63"/>
   <polygon class="NecklaceShipWheelfil394new NecklaceShipWheelstr0new" points="14689,17145 15347,17421 15169,17846 14511,17570 "/>
   <path class="NecklaceShipWheelfil395new" d="M14321 18328c73,31 147,62 221,92 73,31 147,62 220,93 -64,422 -231,801 -480,1146 -73,-31 -147,-62 -220,-92 -74,-31 -148,-62 -221,-93 71,-419 224,-804 480,-1146z" style="fill:#956c93"/>
   <path class="NecklaceShipWheelfil14new" d="M14312 19465l-188 -79 -178 -74 -38 -45c50,-282 249,-569 381,-817 -163,444 -250,717 23,1015z" style="fill:#1dc09a"/>
   <path class="NecklaceShipWheelfil373new" d="M14609 18449l153 64c-64,422 -231,801 -480,1146l-148 -93c243,-337 408,-707 475,-1117z" style="fill:#108e01"/>
   <path class="NecklaceShipWheelfil33new NecklaceShipWheelstr0new" d="M14321 18328c73,31 147,62 221,92 73,31 147,62 220,93 -64,422 -231,801 -480,1146 -73,-31 -147,-62 -220,-92 -74,-31 -148,-62 -221,-93 71,-419 224,-804 480,-1146z" style="fill:#7b23d1"/>
   <polygon class="NecklaceShipWheelfil396new NecklaceShipWheelstr0new" points="14156,18417 14814,18693 14993,18267 14334,17992 "/>
  </g>
  <path class="NecklaceShipWheelfil397new NecklaceShipWheelstr0new" d="M14906 17507c1615,676 2376,2533 1700,4148 -677,1615 -2534,2375 -4148,1699 -1615,-676 -2376,-2533 -1700,-4148 676,-1615 2534,-2376 4148,-1699zm-329 787c1179,494 1735,1851 1241,3031 -494,1180 -1851,1736 -3031,1242 -1180,-494 -1735,-1851 -1241,-3031 494,-1180 1851,-1736 3031,-1242z" style="fill:#ef9f75"/>
  <path class="NecklaceShipWheelfil398new NecklaceShipWheelstr0new" d="M14134 19352c595,249 876,934 627,1530 -250,596 -935,877 -1531,627 -595,-249 -876,-935 -627,-1530 250,-596 935,-877 1531,-627z" style="fill:#b981ce"/>
  <path class="NecklaceShipWheelfil399new" d="M14134 19352c595,249 876,934 627,1530 -38,91 -86,174 -142,249 4,-10 8,-19 12,-29 250,-595 -31,-1281 -627,-1530 -505,-212 -1075,-42 -1388,378 259,-576 932,-844 1518,-598z" style="fill:#252b7f"/>
  <circle class="NecklaceShipWheelfil33new NecklaceShipWheelstr6new" r="1167" transform="matrix(0.924318 0.38709 -0.38709 0.924318 13681.9 20430.5)"/>
  <path class="NecklaceShipWheelfil373new" d="M14816 17722c747,313 1298,900 1583,1595 284,696 304,1500 -9,2247 -313,748 -900,1298 -1595,1583 -696,285 -1499,305 -2247,-8 -748,-313 -1298,-900 -1583,-1595 -285,-696 -304,-1500 9,-2247 313,-748 899,-1298 1595,-1583 695,-285 1499,-305 2247,8zm1214 1747c-246,-601 -722,-1108 -1368,-1378 -646,-271 -1341,-254 -1942,-8 -600,246 -1107,721 -1378,1367 -271,647 -254,1342 -8,1942 246,601 721,1108 1367,1378 647,271 1342,254 1943,8 600,-246 1107,-721 1378,-1367 270,-647 254,-1342 8,-1942z" style="fill:#2e57f3"/>
  <path class="NecklaceShipWheelfil373new" d="M14816 17722c747,313 1298,900 1583,1595 284,696 304,1500 -9,2247 -103,248 -237,474 -395,676 112,-164 210,-341 290,-532 313,-747 293,-1551 8,-2246 -285,-696 -835,-1283 -1583,-1596 -747,-313 -1551,-293 -2247,-8 -465,191 -881,500 -1200,907 330,-479 788,-839 1306,-1051 695,-285 1499,-305 2247,8zm-3231 1279c-94,139 -176,289 -243,449 -271,647 -254,1342 -8,1942 246,601 721,1108 1367,1378 647,271 1342,254 1943,8 398,-163 755,-427 1029,-774 -285,419 -684,733 -1135,918 -601,246 -1295,263 -1942,-8 -646,-270 -1122,-777 -1368,-1378 -246,-600 -262,-1295 9,-1942 91,-218 209,-416 348,-593z" style="fill:#db93c6"/>
 </g></svg>