<svg xmlns="http://www.w3.org/2000/svg" xmlns:xlink="http://www.w3.org/1999/xlink" style="shape-rendering:geometricPrecision; text-rendering:geometricPrecision; image-rendering:optimizeQuality; fill-rule:evenodd; clip-rule:evenodd" version="1.1" viewBox="0 0 29000 29000" xml:space="preserve"><defs><style type="text/css">.HairBack-Lizard2fil14 {fill:black;fill-opacity:0.200000}
.HairBack-Lizard2fil605 {fill:url(#HairBack-Lizard2id822)}
.HairBack-Lizard2str5 {stroke:black;stroke-width:100;stroke-linecap:round;stroke-linejoin:round}
.HairBack-Lizard2fil606 {fill:url(#HairBack-Lizard2id1003)}
.HairBack-Lizard2fil611 {fill:url(#HairBack-Lizard2id102)}
.HairBack-Lizard2str0 {stroke:black;stroke-width:150;stroke-linecap:round;stroke-linejoin:round}
.HairBack-Lizard2fil608 {fill:url(#HairBack-Lizard2id821)}
.HairBack-Lizard2fil609 {fill:url(#HairBack-Lizard2id840)}
.HairBack-Lizard2fil612 {fill:url(#HairBack-Lizard2id295)}
.Tail-Lizard1fil617 {fill:url(#Tail-Lizard1id236)}
.Tail-Lizard1fil616 {fill:url(#Tail-Lizard1id234)}
.Tail-Lizard1fil618 {fill:url(#Tail-Lizard1id194)}
.Tail-Lizard1fil22 {fill:none}
.Tail-Lizard1str0 {stroke:black;stroke-width:150;stroke-linecap:round;stroke-linejoin:round}
.RightFoot-Lizard0fil636 {fill:url(#RightFoot-Lizard0id220)}
.RightFoot-Lizard0fil32 {fill:black;fill-rule:nonzero}
.RightLeg-Lizard0fil639 {fill:url(#RightLeg-Lizard0id33)}
.RightLeg-Lizard0fil14 {fill:black;fill-opacity:0.200000}
.RightLeg-Lizard0fil32 {fill:black;fill-rule:nonzero}
.LeftFoot-Lizard0fil645 {fill:url(#LeftFoot-Lizard0id444)}
.LeftFoot-Lizard0fil32 {fill:black;fill-rule:nonzero}
.LeftLeg-Lizard0fil648 {fill:url(#LeftLeg-Lizard0id17)}
.LeftLeg-Lizard0fil14 {fill:black;fill-opacity:0.200000}
.LeftLeg-Lizard0fil32 {fill:black;fill-rule:nonzero}
.RightHand-Lizard1fil656 {fill:url(#RightHand-Lizard1id329)}
.RightHand-Lizard1fil657 {fill:url(#RightHand-Lizard1id206)}
.RightHand-Lizard1fil14 {fill:black;fill-opacity:0.200000}
.RightHand-Lizard1fil32 {fill:black;fill-rule:nonzero}
.RightPaw-Lizard1fil662 {fill:url(#RightPaw-Lizard1id362)}
.RightPaw-Lizard1fil32 {fill:black;fill-rule:nonzero}
.LeftHand-Lizard1fil665 {fill:url(#LeftHand-Lizard1id838)}
.LeftHand-Lizard1fil666 {fill:url(#LeftHand-Lizard1id503)}
.LeftHand-Lizard1fil14 {fill:black;fill-opacity:0.200000}
.LeftHand-Lizard1fil32 {fill:black;fill-rule:nonzero}
.LeftPaw-Lizard1fil672 {fill:url(#LeftPaw-Lizard1id495)}
.LeftPaw-Lizard1fil32 {fill:black;fill-rule:nonzero}
.Body-Lizard4fil674 {fill:url(#Body-Lizard4id282)}
.Body-Lizard4fil14 {fill:black;fill-opacity:0.200000}
.Body-Lizard4fil32 {fill:black;fill-rule:nonzero}
.Body-Lizard4fil678 {fill:url(#Body-Lizard4id754)}
.Body-Lizard4fil628 {fill:white;fill-opacity:0.301961}
.Head-Lizard4fil693 {fill:url(#Head-Lizard4id412)}
.Head-Lizard4fil686 {fill:url(#Head-Lizard4id1041)}
.Head-Lizard4fil694 {fill:url(#Head-Lizard4id284)}
.Head-Lizard4fil32 {fill:black;fill-rule:nonzero}
.Head-Lizard4fil14 {fill:black;fill-opacity:0.200000}
.Mouth-Lizard2fil711 {fill:url(#Mouth-Lizard2id133)}
.Mouth-Lizard2fil22 {fill:none}
.Mouth-Lizard2str0 {stroke:black;stroke-width:150;stroke-linecap:round;stroke-linejoin:round}
.Mouth-Lizard2fil712 {fill:url(#Mouth-Lizard2id998)}
.Mouth-Lizard2fil713 {fill:url(#Mouth-Lizard2id981)}
.Eyes-Lizard3fil14 {fill:black;fill-opacity:0.200000}
.Eyes-Lizard3fil750 {fill:url(#Eyes-Lizard3id9)}
.Eyes-Lizard3fil751 {fill:url(#Eyes-Lizard3id13)}
.Eyes-Lizard3fil740 {fill:black;fill-opacity:0.400000}
.Eyes-Lizard3fil752 {fill:url(#Eyes-Lizard3id678)}
.Eyes-Lizard3fil152 {fill:white}
.Eyes-Lizard3fil32 {fill:black;fill-rule:nonzero}
.Eyes-Lizard3fil747 {fill:url(#Eyes-Lizard3id0)}
.Eyes-Lizard3fil753 {fill:url(#Eyes-Lizard3id3)}
.Eyes-Lizard3fil754 {fill:url(#Eyes-Lizard3id688)}
.Moustache-Lizard1fil792 {fill:#4c69c2;fill-rule:nonzero}
.Moustache-Lizard1fil32 {fill:black;fill-rule:nonzero}
.Nose-Lizard0fil100 {fill:black}
.HatBaseballBlue-Mediumfil12 {fill:black;fill-opacity:0.200000}
.HatBaseballBlue-Mediumfil306 {fill:url(#HatBaseballBlue-Mediumid241)}
.HatBaseballBlue-Mediumfil167 {fill:black;fill-opacity:0.301961}
.HatBaseballBlue-Mediumfil260 {fill:white;fill-opacity:0.101961}
.HatBaseballBlue-Mediumfil305 {fill:url(#HatBaseballBlue-Mediumid146)}
.HatBaseballBlue-Mediumstr1 {stroke:black;stroke-width:150;stroke-linecap:round;stroke-linejoin:round}
.HatBaseballBlue-Mediumfil165 {fill:none}
.HatBaseballBlue-Mediumstr6 {stroke:white;stroke-width:75;stroke-linecap:round;stroke-linejoin:round;stroke-dasharray:150.000000 225.000000;stroke-opacity:0.200000}
.HatBaseballBlue-Mediumstr7 {stroke:white;stroke-width:100;stroke-opacity:0.200000}
.HatBaseballBlue-Mediumfil11 {fill:none}
.HatBaseballBlue-Mediumfil307 {fill:url(#HatBaseballBlue-Mediumid227)}
.BraceletTeen-Mediumfil113 {fill:#FF4FA7;fill-rule:nonzero}
.BraceletTeen-Mediumfil114 {fill:#FF99CC;fill-rule:nonzero}
.BraceletTeen-Mediumfil14 {fill:black;fill-opacity:0.200000}
.BraceletTeen-Mediumfil112 {fill:none;fill-rule:nonzero}
.BraceletTeen-Mediumstr4 {stroke:black;stroke-width:250}
.BraceletTeen-Mediumfil115 {fill:url(#BraceletTeen-Mediumid260)}
.BraceletTeen-Mediumstr0 {stroke:black;stroke-width:150;stroke-linecap:round;stroke-linejoin:round}
.BraceletTeen-Mediumfil116 {fill:url(#BraceletTeen-Mediumid18)}
.AccessoryTeddyfil111 {fill:url(#AccessoryTeddyid56)}
.AccessoryTeddyfil3 {fill:black;fill-rule:nonzero}
.AccessoryTeddyfil112 {fill:url(#AccessoryTeddyid75)}
.AccessoryTeddyfil19 {fill:black;fill-opacity:0.501961}
.AccessoryTeddyfil115 {fill:url(#AccessoryTeddyid69)}
.AccessoryTeddyfil117 {fill:url(#AccessoryTeddyid31)}
.AccessoryTeddyfil119 {fill:url(#AccessoryTeddyid5)}
.AccessoryTeddyfil120 {fill:url(#AccessoryTeddyid36)}
.AccessoryTeddyfil121 {fill:url(#AccessoryTeddyid41)}
.AccessoryTeddyfil15 {fill:black}
.AccessoryTeddyfil14 {fill:white}
.AccessoryTeddyfil109 {fill:url(#AccessoryTeddyid76)}
.AccessoryTeddystr1 {stroke:black;stroke-width:150}
.AccessoryTeddyfil110 {fill:url(#AccessoryTeddyid88)}
.AccessoryTeddyfil113 {fill:#B88531}
.AccessoryTeddyfil114 {fill:url(#AccessoryTeddyid10)}
.AccessoryTeddyfil116 {fill:url(#AccessoryTeddyid29)}
.AccessoryTeddyfil118 {fill:url(#AccessoryTeddyid27)}
.AccessoryTeddyfil2 {fill:none}
.AccessoryTeddystr8 {stroke:black;stroke-width:100;stroke-linecap:round;stroke-linejoin:round}
</style><linearGradient gradientUnits="objectBoundingBox" id="HairBack-Lizard2id822" x1="27.0587%" x2="72.9413%" xlink:href="#HairBack-Lizard2id78" y1="78.7196%" y2="21.2781%">
  </linearGradient><linearGradient gradientUnits="objectBoundingBox" id="HairBack-Lizard2id1003" x1="45.9175%" x2="54.0825%" xlink:href="#HairBack-Lizard2id78" y1="90.056%" y2="9.94402%">
  </linearGradient><linearGradient gradientUnits="userSpaceOnUse" id="HairBack-Lizard2id102" x1="10942" x2="8559.36" y1="15613.5" y2="20378.7">
   <stop offset="0" style="stop-opacity:1; stop-color:#6687e9"/>
   <stop offset="1" style="stop-opacity:1; stop-color:#daf0cb"/>
  </linearGradient><linearGradient gradientUnits="objectBoundingBox" id="HairBack-Lizard2id821" x1="72.9413%" x2="27.0587%" xlink:href="#HairBack-Lizard2id78" y1="78.7196%" y2="21.2781%">
  </linearGradient><linearGradient gradientUnits="objectBoundingBox" id="HairBack-Lizard2id840" x1="54.0825%" x2="45.9175%" xlink:href="#HairBack-Lizard2id78" y1="90.056%" y2="9.94402%">
  </linearGradient><linearGradient gradientUnits="userSpaceOnUse" id="HairBack-Lizard2id295" x1="16381.1" x2="18763.7" xlink:href="#HairBack-Lizard2id102" y1="15613.5" y2="20378.7">
  </linearGradient><linearGradient gradientUnits="userSpaceOnUse" id="Tail-Lizard1id236" x1="16299.7" x2="18434.2" y1="24695.9" y2="16729.6">
   <stop offset="0" style="stop-opacity:1; stop-color:#4c69c2"/>
   <stop offset="0.329412" style="stop-opacity:1; stop-color:#6687e9"/>
   <stop offset="1" style="stop-opacity:1; stop-color:#ff9135"/>
  </linearGradient><linearGradient gradientUnits="objectBoundingBox" id="Tail-Lizard1id234" x1="0%" x2="100%" xlink:href="#Tail-Lizard1id133" y1="50.0001%" y2="50.0001%">
  </linearGradient><linearGradient gradientUnits="userSpaceOnUse" id="Tail-Lizard1id194" x1="17677.8" x2="21530.5" xlink:href="#Tail-Lizard1id5" y1="21397" y2="19994.8">
  </linearGradient><linearGradient gradientUnits="userSpaceOnUse" id="RightFoot-Lizard0id220" x1="16306.2" x2="16825.8" y1="23871.7" y2="25810.9">
   <stop offset="0" style="stop-opacity:1; stop-color:#96b1ff"/>
   <stop offset="0.101961" style="stop-opacity:1; stop-color:#96b1ff"/>
   <stop offset="1" style="stop-opacity:1; stop-color:#daf0cb"/>
  </linearGradient><linearGradient gradientUnits="userSpaceOnUse" id="RightLeg-Lizard0id33" x1="15490.3" x2="15490.3" xlink:href="#RightLeg-Lizard0id17" y1="24310" y2="21166.6">
  </linearGradient><linearGradient gradientUnits="userSpaceOnUse" id="LeftFoot-Lizard0id444" x1="11057.6" x2="10538" xlink:href="#LeftFoot-Lizard0id220" y1="23871.7" y2="25810.9">
  </linearGradient><linearGradient gradientUnits="userSpaceOnUse" id="LeftLeg-Lizard0id17" x1="11873.5" x2="11873.5" y1="24310" y2="21166.6">
   <stop offset="0" style="stop-opacity:1; stop-color:#96b1ff"/>
   <stop offset="0.431373" style="stop-opacity:1; stop-color:#96b1ff"/>
   <stop offset="1" style="stop-opacity:1; stop-color:#6687e9"/>
  </linearGradient><linearGradient gradientUnits="userSpaceOnUse" id="RightHand-Lizard1id329" x1="16951.5" x2="16951.5" y1="17501.5" y2="20790.3">
   <stop offset="0" style="stop-opacity:1; stop-color:#4c69c2"/>
   <stop offset="0.0784314" style="stop-opacity:1; stop-color:#4c69c2"/>
   <stop offset="0.831373" style="stop-opacity:1; stop-color:#6687e9"/>
   <stop offset="1" style="stop-opacity:1; stop-color:#6687e9"/>
  </linearGradient><linearGradient gradientUnits="userSpaceOnUse" id="RightHand-Lizard1id206" x1="17257.3" x2="17257.3" xlink:href="#RightHand-Lizard1id5" y1="17603.2" y2="19825.9">
  </linearGradient><linearGradient gradientUnits="userSpaceOnUse" id="RightPaw-Lizard1id362" x1="17833.9" x2="18955.5" y1="19888.5" y2="21831.2">
   <stop offset="0" style="stop-opacity:1; stop-color:#6687e9"/>
   <stop offset="0.25098" style="stop-opacity:1; stop-color:#6687e9"/>
   <stop offset="1" style="stop-opacity:1; stop-color:#ff9135"/>
  </linearGradient><linearGradient gradientUnits="userSpaceOnUse" id="LeftHand-Lizard1id838" x1="10635.8" x2="10188.9" xlink:href="#LeftHand-Lizard1id329" y1="17474.7" y2="20817.2">
  </linearGradient><linearGradient gradientUnits="userSpaceOnUse" id="LeftHand-Lizard1id503" x1="10106.6" x2="10106.6" xlink:href="#LeftHand-Lizard1id5" y1="17603.2" y2="19825.9">
  </linearGradient><linearGradient gradientUnits="userSpaceOnUse" id="LeftPaw-Lizard1id495" x1="9529.97" x2="8408.35" xlink:href="#LeftPaw-Lizard1id362" y1="19888.5" y2="21831.2">
  </linearGradient><linearGradient gradientUnits="objectBoundingBox" id="Body-Lizard4id282" x1="50%" x2="50%" y1="0%" y2="100%">
   <stop offset="0" style="stop-opacity:1; stop-color:#4c69c2"/>
   <stop offset="0.501961" style="stop-opacity:1; stop-color:#6687e9"/>
   <stop offset="1" style="stop-opacity:1; stop-color:#96b1ff"/>
  </linearGradient><linearGradient gradientUnits="objectBoundingBox" id="Body-Lizard4id754" x1="50%" x2="50%" xlink:href="#Body-Lizard4id641" y1="100%" y2="0%">
  </linearGradient><linearGradient gradientUnits="userSpaceOnUse" id="Head-Lizard4id412" x1="13681.9" x2="13681.9" xlink:href="#Head-Lizard4id122" y1="17825.9" y2="7794.34">
  </linearGradient><radialGradient cx="13653.8" cy="14622.1" fx="13653.8" fy="14622.1" gradientTransform="matrix(1 -0 -0 0.789835 0 3073)" gradientUnits="userSpaceOnUse" id="Head-Lizard4id1041" r="2412.15">
   <stop offset="0" style="stop-opacity:1; stop-color:#4c69c2"/>
   <stop offset="1" style="stop-opacity:1; stop-color:#6687e9"/>
  </radialGradient><linearGradient gradientUnits="objectBoundingBox" id="Head-Lizard4id284" x1="50%" x2="50%" y1="100%" y2="0%">
   <stop offset="0" style="stop-opacity:1; stop-color:#4c69c2"/>
   <stop offset="0.231373" style="stop-opacity:1; stop-color:#4c69c2"/>
   <stop offset="0.729412" style="stop-opacity:1; stop-color:#6687e9"/>
   <stop offset="1" style="stop-opacity:1; stop-color:#96b1ff"/>
  </linearGradient><linearGradient gradientUnits="userSpaceOnUse" id="Mouth-Lizard2id133" x1="13681.9" x2="13681.9" y1="17844" y2="15520.7">
   <stop offset="0" style="stop-opacity:1; stop-color:#c8e3b6"/>
   <stop offset="1" style="stop-opacity:1; stop-color:#daf0cb"/>
  </linearGradient><linearGradient gradientUnits="userSpaceOnUse" id="Mouth-Lizard2id998" x1="11543.1" x2="11293.3" xlink:href="#Mouth-Lizard2id981" y1="15493" y2="16524.3">
  </linearGradient><linearGradient gradientUnits="objectBoundingBox" id="Eyes-Lizard3id9" x1="49.9999%" x2="49.9999%" xlink:href="#Eyes-Lizard3id0" y1="100%" y2="0.000230848%">
  </linearGradient><linearGradient gradientUnits="objectBoundingBox" id="Eyes-Lizard3id13" x1="50%" x2="50%" xlink:href="#Eyes-Lizard3id3" y1="100%" y2="0%">
  </linearGradient><linearGradient gradientUnits="userSpaceOnUse" id="Eyes-Lizard3id678" x1="10466.7" x2="10466.7" xlink:href="#Eyes-Lizard3id384" y1="11019.3" y2="14527">
  </linearGradient><linearGradient gradientUnits="userSpaceOnUse" id="Eyes-Lizard3id688" x1="16897.1" x2="16897.1" xlink:href="#Eyes-Lizard3id384" y1="11019.3" y2="14527">
  </linearGradient><linearGradient gradientUnits="userSpaceOnUse" id="HatBaseballBlue-Mediumid241" x1="8052.38" x2="19252.9" xlink:href="#HatBaseballBlue-Mediumid221" y1="10493" y2="8054.43">
  </linearGradient><linearGradient gradientUnits="userSpaceOnUse" id="HatBaseballBlue-Mediumid146" x1="12797.5" x2="14175.5" xlink:href="#HatBaseballBlue-Mediumid136" y1="5819.27" y2="5742.69">
  </linearGradient><linearGradient gradientUnits="userSpaceOnUse" id="HatBaseballBlue-Mediumid227" x1="8141.83" x2="19186.9" xlink:href="#HatBaseballBlue-Mediumid221" y1="12496.2" y2="11395.7">
  </linearGradient><linearGradient gradientUnits="userSpaceOnUse" id="BraceletTeen-Mediumid260" x1="18559.3" x2="17414.2" y1="20067.6" y2="20536.4">
   <stop offset="0" style="stop-opacity:1; stop-color:yellow"/>
   <stop offset="1" style="stop-opacity:1; stop-color:#FF9933"/>
  </linearGradient><linearGradient gradientUnits="userSpaceOnUse" id="BraceletTeen-Mediumid18" x1="17346.3" x2="18321.7" y1="20618" y2="19628.6">
   <stop offset="0" style="stop-opacity:1; stop-color:#FF0066"/>
   <stop offset="1" style="stop-opacity:1; stop-color:#FF5E5E"/>
  </linearGradient><linearGradient gradientUnits="userSpaceOnUse" id="AccessoryTeddyid56" x1="5274.88" x2="5544.57" y1="25442.4" y2="22421.3">
   <stop offset="0" style="stop-opacity:1; stop-color:#B88531"/>
   <stop offset="0.14902" style="stop-opacity:1; stop-color:#99672C"/>
   <stop offset="0.639216" style="stop-opacity:1; stop-color:#9C6E24"/>
   <stop offset="1" style="stop-opacity:1; stop-color:#523100"/>
  </linearGradient><linearGradient gradientUnits="userSpaceOnUse" id="AccessoryTeddyid75" x1="5571.12" x2="5255.06" xlink:href="#AccessoryTeddyid5" y1="22926.7" y2="24922">
  </linearGradient><linearGradient gradientUnits="userSpaceOnUse" id="AccessoryTeddyid69" x1="5447.62" x2="5256.22" xlink:href="#AccessoryTeddyid5" y1="21348.3" y2="22556.4">
  </linearGradient><linearGradient gradientUnits="userSpaceOnUse" id="AccessoryTeddyid31" x1="4032.54" x2="3912.76" xlink:href="#AccessoryTeddyid5" y1="24354.6" y2="25110.8">
  </linearGradient><linearGradient gradientUnits="userSpaceOnUse" id="AccessoryTeddyid36" x1="4875.13" x2="5044.37" y1="21255" y2="20829.7">
   <stop offset="0" style="stop-opacity:1; stop-color:#5C3600"/>
   <stop offset="0.509804" style="stop-opacity:1; stop-color:#2C160A"/>
   <stop offset="1" style="stop-opacity:1; stop-color:#3F261A"/>
  </linearGradient><linearGradient gradientUnits="userSpaceOnUse" id="AccessoryTeddyid41" x1="5933.75" x2="5890.77" xlink:href="#AccessoryTeddyid36" y1="21325.3" y2="20867.1">
  </linearGradient><linearGradient gradientUnits="userSpaceOnUse" id="AccessoryTeddyid76" x1="7386.63" x2="5965.55" xlink:href="#AccessoryTeddyid56" y1="24047.7" y2="22751.4">
  </linearGradient><linearGradient gradientUnits="userSpaceOnUse" id="AccessoryTeddyid88" x1="3357.21" x2="4839.21" xlink:href="#AccessoryTeddyid56" y1="24050.5" y2="22671">
  </linearGradient><linearGradient gradientUnits="userSpaceOnUse" id="AccessoryTeddyid10" x1="4764.52" x2="6162.34" y1="22575.4" y2="20450.7">
   <stop offset="0" style="stop-opacity:1; stop-color:#B88531"/>
   <stop offset="0.14902" style="stop-opacity:1; stop-color:#99672C"/>
   <stop offset="0.501961" style="stop-opacity:1; stop-color:#9C6E24"/>
   <stop offset="1" style="stop-opacity:1; stop-color:#FFC44F"/>
  </linearGradient><linearGradient gradientUnits="userSpaceOnUse" id="AccessoryTeddyid29" x1="3813.38" x2="4245.66" xlink:href="#AccessoryTeddyid27" y1="24177.4" y2="25442.6">
  </linearGradient><linearGradient gradientUnits="objectBoundingBox" id="HairBack-Lizard2id78" x1="95.8017%" x2="4.19832%" y1="69.3451%" y2="30.6549%">
   <stop offset="0" style="stop-opacity:1; stop-color:#E0D0BF"/>
   <stop offset="1" style="stop-opacity:1; stop-color:#B5987B"/>
  </linearGradient><linearGradient gradientUnits="userSpaceOnUse" id="Tail-Lizard1id133" x1="13681.9" x2="13681.9" y1="17844" y2="15520.7">
   <stop offset="0" style="stop-opacity:1; stop-color:#c8e3b6"/>
   <stop offset="1" style="stop-opacity:1; stop-color:#daf0cb"/>
  </linearGradient><linearGradient gradientUnits="objectBoundingBox" id="Tail-Lizard1id5" x1="50%" x2="50%" y1="0%" y2="100%">
   <stop offset="0" style="stop-opacity:1; stop-color:#386936"/>
   <stop offset="1" style="stop-opacity:1; stop-color:#598f57"/>
  </linearGradient><linearGradient gradientUnits="userSpaceOnUse" id="RightLeg-Lizard0id17" x1="11873.5" x2="11873.5" y1="24310" y2="21166.6">
   <stop offset="0" style="stop-opacity:1; stop-color:#96b1ff"/>
   <stop offset="0.431373" style="stop-opacity:1; stop-color:#96b1ff"/>
   <stop offset="1" style="stop-opacity:1; stop-color:#6687e9"/>
  </linearGradient><linearGradient gradientUnits="userSpaceOnUse" id="LeftFoot-Lizard0id220" x1="16306.2" x2="16825.8" y1="23871.7" y2="25810.9">
   <stop offset="0" style="stop-opacity:1; stop-color:#96b1ff"/>
   <stop offset="0.101961" style="stop-opacity:1; stop-color:#96b1ff"/>
   <stop offset="1" style="stop-opacity:1; stop-color:#daf0cb"/>
  </linearGradient><linearGradient gradientUnits="objectBoundingBox" id="RightHand-Lizard1id5" x1="50%" x2="50%" y1="0%" y2="100%">
   <stop offset="0" style="stop-opacity:1; stop-color:#386936"/>
   <stop offset="1" style="stop-opacity:1; stop-color:#598f57"/>
  </linearGradient><linearGradient gradientUnits="userSpaceOnUse" id="LeftHand-Lizard1id329" x1="16951.5" x2="16951.5" y1="17501.5" y2="20790.3">
   <stop offset="0" style="stop-opacity:1; stop-color:#4c69c2"/>
   <stop offset="0.0784314" style="stop-opacity:1; stop-color:#4c69c2"/>
   <stop offset="0.831373" style="stop-opacity:1; stop-color:#6687e9"/>
   <stop offset="1" style="stop-opacity:1; stop-color:#6687e9"/>
  </linearGradient><linearGradient gradientUnits="objectBoundingBox" id="LeftHand-Lizard1id5" x1="50%" x2="50%" y1="0%" y2="100%">
   <stop offset="0" style="stop-opacity:1; stop-color:#386936"/>
   <stop offset="1" style="stop-opacity:1; stop-color:#598f57"/>
  </linearGradient><linearGradient gradientUnits="userSpaceOnUse" id="LeftPaw-Lizard1id362" x1="17833.9" x2="18955.5" y1="19888.5" y2="21831.2">
   <stop offset="0" style="stop-opacity:1; stop-color:#6687e9"/>
   <stop offset="0.25098" style="stop-opacity:1; stop-color:#6687e9"/>
   <stop offset="1" style="stop-opacity:1; stop-color:#ff9135"/>
  </linearGradient><linearGradient gradientUnits="userSpaceOnUse" id="Body-Lizard4id641" x1="13681.9" x2="13681.9" y1="22882.1" y2="17688.3">
   <stop offset="0" style="stop-opacity:1; stop-color:#daf0cb"/>
   <stop offset="0.65098" style="stop-opacity:1; stop-color:#c8e3b6"/>
   <stop offset="1" style="stop-opacity:1; stop-color:#c8e3b6"/>
  </linearGradient><linearGradient gradientUnits="userSpaceOnUse" id="Head-Lizard4id122" x1="13681.9" x2="13681.9" y1="17788.8" y2="7794.35">
   <stop offset="0" style="stop-opacity:1; stop-color:#4c69c2"/>
   <stop offset="0.219608" style="stop-opacity:1; stop-color:#6687e9"/>
   <stop offset="0.639216" style="stop-opacity:1; stop-color:#6687e9"/>
   <stop offset="1" style="stop-opacity:1; stop-color:#96b1ff"/>
  </linearGradient><linearGradient gradientUnits="userSpaceOnUse" id="Mouth-Lizard2id981" x1="15820.7" x2="16070.5" y1="15493" y2="16524.3">
   <stop offset="0" style="stop-opacity:1; stop-color:#B5B5B5"/>
   <stop offset="0.619608" style="stop-opacity:1; stop-color:white"/>
   <stop offset="1" style="stop-opacity:1; stop-color:white"/>
  </linearGradient><linearGradient gradientUnits="objectBoundingBox" id="Eyes-Lizard3id0" x1="50.0001%" x2="50.0001%" y1="100%" y2="0.000230848%">
   <stop offset="0" style="stop-opacity:1; stop-color:#805900"/>
   <stop offset="0.388235" style="stop-opacity:1; stop-color:#805900"/>
   <stop offset="1" style="stop-opacity:1; stop-color:black"/>
  </linearGradient><linearGradient gradientUnits="userSpaceOnUse" id="Eyes-Lizard3id3" x1="17264.5" x2="17264.5" y1="15055.2" y2="10729.2">
   <stop offset="0" style="stop-opacity:1; stop-color:#805900"/>
   <stop offset="0.168627" style="stop-opacity:1; stop-color:#ffc029"/>
   <stop offset="0.509804" style="stop-opacity:1; stop-color:#805900"/>
   <stop offset="1" style="stop-opacity:1; stop-color:black"/>
  </linearGradient><linearGradient gradientUnits="userSpaceOnUse" id="Eyes-Lizard3id384" x1="16417.8" x2="16417.8" y1="11784.3" y2="14068.5">
   <stop offset="0" style="stop-opacity:1; stop-color:black"/>
   <stop offset="0.45" style="stop-opacity:1; stop-color:black"/>
   <stop offset="1" style="stop-opacity:1; stop-color:#664700"/>
  </linearGradient><linearGradient gradientUnits="userSpaceOnUse" id="HatBaseballBlue-Mediumid221" x1="7866.29" x2="19463.6" y1="12137.3" y2="10981.8">
   <stop offset="0" style="stop-opacity:1; stop-color:#30216E"/>
   <stop offset="0.301961" style="stop-opacity:1; stop-color:#34249C"/>
   <stop offset="0.709804" style="stop-opacity:1; stop-color:#6044C7"/>
   <stop offset="1" style="stop-opacity:1; stop-color:#3E20AB"/>
  </linearGradient><linearGradient gradientUnits="userSpaceOnUse" id="HatBaseballBlue-Mediumid136" x1="12754.7" x2="14201.6" y1="5126.54" y2="5046.14">
   <stop offset="0" style="stop-opacity:1; stop-color:#412E9E"/>
   <stop offset="0.588235" style="stop-opacity:1; stop-color:#6748D4"/>
   <stop offset="1" style="stop-opacity:1; stop-color:#2E1BBD"/>
  </linearGradient><linearGradient gradientUnits="userSpaceOnUse" id="AccessoryTeddyid5" x1="6771.67" x2="6651.69" y1="24347.4" y2="25104.8">
   <stop offset="0" style="stop-opacity:1; stop-color:#F2D996"/>
   <stop offset="1" style="stop-opacity:1; stop-color:#C79A45"/>
  </linearGradient><linearGradient gradientUnits="userSpaceOnUse" id="AccessoryTeddyid27" x1="7031.19" x2="6244.99" y1="24298.4" y2="25352.6">
   <stop offset="0" style="stop-opacity:1; stop-color:#B88531"/>
   <stop offset="0.329412" style="stop-opacity:1; stop-color:#99672C"/>
   <stop offset="0.541176" style="stop-opacity:1; stop-color:#9C6E24"/>
   <stop offset="1" style="stop-opacity:1; stop-color:#523100"/>
  </linearGradient></defs><g id="HairBack-Lizard2">
 <animateTransform additive="sum" attributeName="transform" dur="10" repeatCount="indefinite" type="translate" values="0;0 200;0;0 200;0;0 200;0;0 200;0"/>
  <metadata id="CorelCorpID_314Corel-Layer"/>
  <path class="HairBack-Lizard2fil605 HairBack-Lizard2str5" d="M6894 19094c-46,79 -70,407 22,435 93,29 160,-205 256,-285 -73,-84 -208,-136 -278,-150z" style="fill:#cd7aa2"/>
  <path class="HairBack-Lizard2fil606 HairBack-Lizard2str5" d="M8583 20396c-17,90 70,407 166,403 97,-5 90,-247 146,-355 -96,-55 -242,-58 -312,-48z" style="fill:#ae22e0"/>
  <path class="HairBack-Lizard2fil611 HairBack-Lizard2str0" d="M8693 15387c-686,786 -1626,2252 -1774,3785 64,4 140,45 183,97 1367,-1133 1226,355 1517,1152 64,-4 186,28 232,54 876,-1799 1701,-1719 2140,130 146,-1759 1446,-1979 1592,-3738 -1297,-493 -2594,-986 -3890,-1480z" style="fill:#d9500d"/>
  <path class="HairBack-Lizard2fil14" d="M8109 16235c-344,498 -1145,1831 -1159,2886 0,44 37,4 39,48 232,-986 893,-2127 1626,-1754 379,193 -536,1366 60,3009 -250,-3126 1616,-2488 1546,-1220 239,118 591,555 752,1345 49,-1052 1276,-2360 1410,-2809 -167,-651 -3612,-1344 -4274,-1505z" style="fill:#5caefa"/>
  <path class="HairBack-Lizard2fil608 HairBack-Lizard2str5" d="M20429 19094c46,79 70,407 -22,435 -93,29 -160,-205 -256,-285 73,-84 209,-136 278,-150z" style="fill:#602fbe"/>
  <path class="HairBack-Lizard2fil609 HairBack-Lizard2str5" d="M18740 20396c17,90 -70,407 -166,403 -97,-5 -90,-247 -146,-355 96,-55 242,-58 312,-48z" style="fill:#38eae0"/>
  <path class="HairBack-Lizard2fil612 HairBack-Lizard2str0" d="M18630 15387c686,786 1626,2252 1774,3785 -64,4 -140,45 -183,97 -1367,-1133 -1226,355 -1517,1152 -64,-4 -186,28 -232,54 -876,-1799 -1700,-1719 -2140,130 -146,-1759 -1446,-1979 -1592,-3738 1297,-493 2594,-986 3890,-1480z" style="fill:#191b6d"/>
  <path class="HairBack-Lizard2fil14" d="M19214 16235c344,498 1145,1831 1159,2886 0,44 -37,4 -39,48 -232,-986 -893,-2127 -1626,-1754 -379,193 536,1366 -60,3009 250,-3126 -1616,-2488 -1546,-1220 -239,118 -591,555 -752,1345 -49,-1052 -1276,-2360 -1409,-2809 166,-651 3611,-1344 4273,-1505z" style="fill:#a69bc9"/>
 </g><g id="Tail-Lizard1">
  <metadata id="CorelCorpID_317Corel-Layer"/>
  <path class="Tail-Lizard1fil617" d="M12061 22242c2116,2822 7296,2969 9617,590 1591,-1631 1091,-4161 -213,-5311 -752,-663 -1213,-660 -1292,-512 -87,162 390,517 660,1024 346,647 369,2150 -746,2824 -2078,1256 -3858,-232 -4441,-1087l-3585 2472z" style="fill:#c10806"/>
  <path class="Tail-Lizard1fil616" d="M12061 22242c2116,2822 7296,2969 9617,590 945,-969 1152,-2256 891,-3382 180,1371 -1241,4097 -4509,3848 -2233,-171 -3185,-1751 -3565,-2734l-2434 1678z" style="fill:#8056b4"/>
  <path class="Tail-Lizard1fil618" d="M21255 19059c-22,-79 -37,-104 -22,-123 14,-19 98,-62 136,-50 38,13 108,109 103,141 -6,29 -17,74 -45,106 -14,15 -150,5 -172,-74zm228 314c-156,20 -212,14 -234,54 -23,39 -34,218 16,275 50,58 271,109 323,75 47,-31 117,-85 152,-158 17,-35 -102,-267 -257,-246zm-567 431c-70,207 -171,408 -310,589 87,36 179,67 255,96 111,41 276,-197 306,-311 23,-92 -130,-262 -251,-374zm419 512c-22,79 -37,105 -22,124 14,19 98,61 136,49 38,-12 108,-108 103,-141 -6,-29 -17,-73 -45,-105 -13,-15 -150,-6 -172,73zm-324 698c-155,-20 -211,-14 -234,-54 -22,-39 -34,-218 16,-275 51,-58 272,-109 324,-75 47,31 117,85 152,158 16,35 -103,267 -258,246zm-571 548c-33,-118 -55,-156 -33,-185 21,-28 146,-91 202,-73 57,19 162,161 153,210 -8,43 -25,109 -67,157 -19,22 -222,8 -255,-109zm29 -1009c-109,113 -236,216 -382,304 -45,28 -90,53 -135,78 67,118 187,254 263,278 116,38 371,-91 415,-149 44,-58 -1,-136 -68,-377 -16,-55 -50,-99 -93,-134zm-188 1192c-118,286 -398,743 -669,581 -270,-162 -412,-189 -310,-520 101,-331 20,-412 412,-487 392,-74 614,311 567,426zm-1116 683c22,-79 36,-105 22,-124 -15,-19 -98,-61 -136,-49 -38,13 -109,108 -103,141 5,29 17,73 45,105 13,16 149,6 172,-73zm-1484 -213c-81,-42 -106,-64 -130,-52 -24,11 -89,93 -84,136 5,44 93,143 129,144 33,1 84,-1 125,-25 20,-11 40,-161 -40,-203zm1447 -955c-499,121 -970,98 -1398,-13 -78,132 -144,268 -193,385 -74,181 276,786 892,669 616,-116 489,-244 648,-764 34,-112 51,-202 51,-277z" style="fill:#b4dde9"/>
  <path class="Tail-Lizard1fil22 Tail-Lizard1str0" d="M12061 22242c2116,2822 7296,2969 9617,590 1591,-1631 1091,-4161 -213,-5311 -752,-663 -1213,-660 -1292,-512 -87,162 390,517 660,1024 346,647 369,2150 -746,2824 -2078,1256 -3858,-232 -4441,-1087l-3585 2472z" style="fill:#793104"/>
 </g><g id="RightFoot-Lizard0">
  <metadata id="CorelCorpID_327Corel-Layer"/>
  <path class="RightFoot-Lizard0fil636" d="M16896 24005c177,194 630,99 971,213 299,100 377,345 252,488 -126,145 -306,76 -460,51 -150,-23 -303,-85 -424,-49 177,63 791,364 618,803 -89,226 -408,214 -663,10 -311,-249 -694,-450 -946,-419 -343,42 -190,563 -583,572 -600,14 -308,-788 -664,-1201 -43,-70 -57,-204 -18,-292 582,-77 1506,161 1917,-176z" style="fill:#c45f19"/>
  <path class="RightFoot-Lizard0fil32" d="M16951 23955c84,92 268,105 469,119 229,16 506,34 687,193 110,95 176,241 128,385 -96,287 -393,216 -620,174 44,31 88,65 128,103 260,243 321,768 -102,820 -176,21 -363,-61 -498,-170 -204,-163 -618,-436 -891,-403 -276,34 -138,562 -589,572 -420,10 -453,-299 -522,-643 -42,-206 -130,-417 -197,-588 -20,-52 -8,-108 45,-121 50,-7 100,40 130,121 53,141 128,373 169,566 59,275 83,523 372,516 323,-7 175,-523 575,-571 322,-40 760,241 1002,435 102,82 251,153 386,137 285,-35 179,-411 17,-562 -187,-176 -460,-252 -477,-309 -12,-39 11,-81 51,-92 130,-39 386,31 538,62 117,23 292,53 342,-95 28,-85 -22,-170 -85,-224 -149,-130 -411,-143 -600,-157 -211,-15 -408,-29 -535,-135 31,-62 55,-97 77,-133z" style="fill:#de4fe7"/>
 </g><g id="LeftFoot-Lizard0">
  <metadata id="CorelCorpID_336Corel-Layer"/>
  <path class="LeftFoot-Lizard0fil645" d="M10468 24005c-177,194 -630,99 -971,213 -299,100 -377,345 -253,488 127,145 307,76 460,51 151,-23 304,-85 425,-49 -177,63 -791,364 -619,803 89,226 409,214 664,10 311,-249 694,-450 946,-419 343,42 190,563 583,572 600,14 308,-788 663,-1201 44,-70 58,-204 19,-292 -583,-77 -1506,161 -1917,-176z" style="fill:#8ace70"/>
  <path class="LeftFoot-Lizard0fil32" d="M10412 23955c-83,92 -268,105 -468,119 -229,16 -506,34 -688,193 -109,95 -176,241 -128,385 96,287 394,216 620,174 -44,31 -87,65 -127,103 -260,243 -321,768 102,820 176,21 363,-61 498,-170 203,-163 618,-436 891,-403 276,34 138,562 589,572 419,10 452,-299 522,-643 42,-206 130,-417 196,-588 21,-52 9,-108 -45,-121 -50,-7 -99,40 -130,121 -52,141 -127,373 -168,566 -59,275 -83,523 -372,516 -323,-7 -175,-523 -575,-571 -322,-40 -761,241 -1002,435 -103,82 -251,153 -386,137 -285,-35 -179,-411 -17,-562 187,-176 460,-252 477,-309 12,-39 -11,-81 -51,-92 -130,-39 -386,31 -538,62 -118,23 -292,53 -342,-95 -28,-85 22,-170 85,-224 149,-130 411,-143 600,-157 211,-15 408,-29 535,-135 -31,-62 -55,-97 -78,-133z" style="fill:#c32b87"/>
 </g><g id="RightLeg-Lizard0">
  <metadata id="CorelCorpID_330Corel-Layer"/>
  <path class="RightLeg-Lizard0fil639" d="M13682 23167c428,0 1386,122 1321,776 -5,52 -27,166 -34,307 456,84 1272,76 1625,0 415,-193 703,-872 705,-1316 2,-661 -392,-1250 -712,-1596 -352,-381 -2030,-8 -2905,-8l0 1837z" style="fill:#3f1aa6"/>
  <path class="RightLeg-Lizard0fil14" d="M17192 23398c67,-149 106,-306 107,-464 2,-776 -541,-1452 -869,-1753 -19,257 -41,545 -78,871 387,-414 947,878 840,1346z" style="fill:#f1eb45"/>
  <path class="RightLeg-Lizard0fil32" d="M15042 24729c32,73 153,5 117,-101 -61,-182 -128,-334 -105,-448 91,-447 -112,-807 -541,-972 -208,-80 -478,-118 -831,-118l0 150c335,0 588,35 777,108 361,138 514,417 435,791 -35,237 15,295 148,590zm1242 -3575c175,139 478,451 693,860 144,273 248,587 247,920 -1,533 -241,1011 -637,1322 634,-260 785,-833 786,-1322 2,-360 -110,-698 -263,-990 -227,-429 -547,-760 -734,-907 -34,-25 -144,-95 -178,-56 -36,41 10,108 86,173z" style="fill:#267b93"/>
 </g><g id="LeftLeg-Lizard0">
  <metadata id="CorelCorpID_339Corel-Layer"/>
  <path class="LeftLeg-Lizard0fil648" d="M13682 23167c-428,0 -1386,122 -1321,776 5,52 26,166 34,307 -456,84 -1272,76 -1625,0 -415,-193 -704,-872 -705,-1316 -2,-661 392,-1250 712,-1596 352,-381 2030,-8 2905,-8l0 1837z" style="fill:#1857f1"/>
  <path class="LeftLeg-Lizard0fil14" d="M10172 23398c-67,-149 -106,-306 -107,-464 -2,-776 540,-1452 869,-1753 19,257 41,545 78,871 -388,-414 -947,878 -840,1346z" style="fill:#6c905a"/>
  <path class="LeftLeg-Lizard0fil32" d="M12322 24729c-33,73 -153,5 -118,-101 61,-182 129,-334 106,-448 -91,-447 111,-807 541,-972 208,-80 478,-118 831,-118l0 150c-335,0 -588,35 -777,108 -361,138 -514,417 -435,791 35,237 -15,295 -148,590zm-1242 -3575c-175,139 -478,451 -694,860 -143,273 -247,587 -246,920 1,533 241,1011 637,1322 -634,-260 -785,-833 -787,-1322 -1,-360 110,-698 264,-990 226,-429 547,-760 734,-907 34,-25 144,-95 178,-56 36,41 -10,108 -86,173z" style="fill:#242f69"/>
 </g><g id="RightHand-Lizard1">
 <animateTransform additive="sum" attributeName="transform" dur="10" repeatCount="indefinite" type="translate" values="0;0 200;0;0 200;0;0 200;0;0 200;0"/>
  <metadata id="CorelCorpID_346Corel-Layer"/>
  <path class="RightHand-Lizard1fil656" d="M15421 17507c1371,-107 2467,1307 3017,2266 289,504 -937,1282 -1053,928 -133,-408 -583,-502 -1005,-495 -145,-773 -770,-2364 -959,-2699z" style="fill:#cb1004"/>
  <path class="RightHand-Lizard1fil657" d="M18274 19434c56,85 108,168 156,249 -2,40 -9,73 -17,88 -23,39 -79,33 -234,54 -156,20 -274,-212 -258,-246 35,-74 105,-127 152,-158 31,-21 122,-11 201,13zm-701 241c-22,-79 -36,-105 -22,-124 15,-19 98,-61 136,-49 38,12 109,108 103,140 -5,29 -17,74 -45,106 -13,15 -149,6 -172,-73zm-509 -389c-22,79 -37,105 -22,124 14,19 98,61 136,49 38,-13 108,-108 102,-141 -5,-29 -16,-73 -44,-106 -14,-15 -150,-5 -172,74zm-513 -200c58,-140 195,-363 326,-284 132,79 201,93 152,254 -49,162 -10,201 -201,237 -191,37 -300,-151 -277,-207zm867 -699c256,246 485,521 680,790 -59,61 -156,107 -281,182 -271,162 -551,-295 -669,-581 -34,-81 69,-298 270,-391zm-1225 -784c383,124 739,352 1057,630 -64,179 -298,428 -649,362 -455,-86 -361,-181 -479,-565 -72,-236 -38,-339 71,-427z" style="fill:#aae709"/>
  <path class="RightHand-Lizard1fil14" d="M17408 20600c-414,-340 -751,-361 -1105,-375l143 -846c440,204 921,896 962,1221z" style="fill:#2a760b"/>
  <path class="RightHand-Lizard1fil32" d="M16155 17514c-40,-12 -81,11 -93,50 -12,40 11,82 50,94 431,128 825,397 1169,724 463,440 838,982 1093,1427 50,87 177,12 129,-73 -261,-455 -643,-1010 -1119,-1462 -360,-342 -773,-624 -1229,-760zm1159 3210c13,39 55,61 95,48 39,-13 52,-64 39,-103 -48,-207 -228,-359 -429,-441 -192,-78 -421,-101 -641,-97 -41,1 -74,35 -73,76 1,41 35,74 76,74 202,-4 410,17 582,86 162,66 292,177 351,357z" style="fill:#b2fc6b"/>
 </g><g id="LeftHand-Lizard1">
 <animateTransform additive="sum" attributeName="transform" dur="10" repeatCount="indefinite" type="translate" values="0;0 200;0;0 200;0;0 200;0;0 200;0"/>
  <metadata id="CorelCorpID_355Corel-Layer"/>
  <path class="LeftHand-Lizard1fil665" d="M11943 17507c-1371,-107 -2467,1307 -3017,2266 -289,504 937,1282 1052,928 134,-408 584,-502 1006,-495 145,-773 770,-2364 959,-2699z" style="fill:#da2ea4"/>
  <path class="LeftHand-Lizard1fil666" d="M9090 19434c-56,85 -108,168 -156,249 2,40 9,73 17,88 23,39 79,33 234,54 155,20 274,-212 258,-246 -35,-74 -105,-127 -152,-158 -31,-21 -122,-11 -201,13zm700 241c22,-79 37,-105 23,-124 -15,-19 -98,-61 -136,-49 -38,12 -109,108 -103,140 5,29 17,74 45,106 13,15 149,6 171,-73zm510 -389c22,79 37,105 22,124 -14,19 -98,61 -136,49 -38,-13 -108,-108 -102,-141 5,-29 16,-73 44,-106 14,-15 150,-5 172,74zm513 -200c-58,-140 -195,-363 -327,-284 -131,79 -201,93 -151,254 49,162 10,201 201,237 191,37 300,-151 277,-207zm-868 -699c-256,246 -484,521 -679,790 59,61 156,107 281,182 270,162 551,-295 669,-581 34,-81 -69,-298 -271,-391zm1226 -784c-383,124 -739,352 -1058,630 65,179 299,428 649,362 456,-86 362,-181 480,-565 72,-236 38,-339 -71,-427z" style="fill:#b84124"/>
  <path class="LeftHand-Lizard1fil14" d="M9956 20600c414,-340 751,-361 1105,-375l-143 -846c-440,204 -921,896 -962,1221z" style="fill:#79a46c"/>
  <path class="LeftHand-Lizard1fil32" d="M11209 17514c39,-12 81,11 93,50 12,40 -11,82 -50,94 -431,128 -825,397 -1169,724 -463,440 -838,982 -1093,1427 -50,87 -178,12 -129,-73 261,-455 643,-1010 1119,-1462 360,-342 773,-624 1229,-760zm-1159 3210c-13,39 -55,61 -95,48 -39,-13 -52,-64 -39,-103 48,-207 228,-359 429,-441 192,-78 420,-101 640,-97 42,1 75,35 74,76 -1,41 -35,74 -76,74 -202,-4 -410,17 -582,86 -162,66 -293,177 -351,357z" style="fill:#659994"/>
 </g><g id="Body-Lizard4">
 <animateTransform additive="sum" attributeName="transform" dur="10" repeatCount="indefinite" type="translate" values="0;0 200;0;0 200;0;0 200;0;0 200;0"/>
  <metadata id="CorelCorpID_367Corel-Layer"/>
  <path class="Body-Lizard4fil674" d="M13682 23042c-1548,0 -2752,-290 -2993,-1956 -146,-1007 384,-2270 980,-3398 748,64 1420,73 2013,73 593,0 1265,-9 2013,-73 596,1128 1126,2391 980,3398 -242,1666 -1445,1956 -2993,1956z" style="fill:#8487a0"/>
  <path class="Body-Lizard4fil14" d="M11837 22758c-601,-267 -1017,-766 -1148,-1672 -75,-519 29,-1106 229,-1707 -223,2177 509,3077 919,3379z" style="fill:#8c68e4"/>
  <path class="Body-Lizard4fil32" d="M11012 22052c-250,-321 -348,-641 -397,-955 -59,-377 -24,-998 184,-1319 -78,420 -93,905 -36,1298 50,341 104,571 249,976z" style="fill:#c6f637"/>
  <path class="Body-Lizard4fil678" d="M13682 17761c-799,0 -1124,-25 -1767,-73 210,210 -121,1257 -197,1859 -215,1711 94,3335 1964,3335 1869,0 2179,-1624 1964,-3335 -76,-602 -407,-1649 -198,-1859 -642,48 -967,73 -1766,73z" style="fill:#3c7b7c"/>
  <path class="Body-Lizard4fil14" d="M15527 22758c601,-267 1016,-766 1148,-1672 75,-519 -29,-1106 -229,-1707 223,2177 -509,3077 -919,3379z" style="fill:#876be2"/>
  <path class="Body-Lizard4fil32" d="M16352 22052c250,-321 347,-641 397,-955 59,-377 24,-998 -184,-1319 78,420 93,905 36,1298 -50,341 -104,571 -249,976z" style="fill:#09a613"/>
  <path class="Body-Lizard4fil628" d="M16012 18414c33,173 28,319 -99,489 -158,-73 -297,-203 -360,-328 186,149 397,65 459,-161zm489 1287c5,121 -40,259 -143,361 -99,-66 -199,-205 -229,-296 111,120 307,82 372,-65zm-346 446c-12,102 -66,213 -165,286 -76,-68 -142,-197 -156,-278 78,115 247,108 321,-8zm-116 1382c-43,93 -129,181 -247,220 -50,-88 -72,-233 -61,-313 38,134 202,180 308,93zm106 614c-61,82 -164,151 -287,164 -31,-97 -23,-242 5,-319 10,139 160,218 282,155zm-4667 -235c43,94 129,182 247,220 50,-88 72,-232 60,-313 -38,134 -201,180 -307,93zm-494 -184c43,93 129,181 247,220 50,-88 72,-233 60,-313 -38,134 -201,180 -307,93zm-201 -1304c26,99 97,200 206,258 65,-78 111,-217 113,-298 -61,125 -229,143 -319,40zm447 -419c4,121 58,256 168,351 95,-73 185,-219 208,-312 -102,128 -300,103 -376,-39zm-200 -809c-36,189 0,417 138,603 173,-80 363,-276 432,-412 -203,163 -502,56 -570,-191z" style="fill:#fe9bb2"/>
 </g><g id="RightPaw-Lizard1">
 <animateTransform additive="sum" attributeName="transform" dur="10" repeatCount="indefinite" type="translate" values="0;0 200;0;0 200;0;0 200;0;0 200;0"/>
  <metadata id="CorelCorpID_352Corel-Layer"/>
  <path class="RightPaw-Lizard1fil662" d="M18407 19719c160,284 636,568 871,846 165,195 249,575 80,649 -149,66 -234,-108 -348,-218 -112,-108 -200,-191 -255,-121 94,89 123,234 200,476 89,279 3,682 -262,648 -142,-19 -126,-223 -244,-454 -92,-182 -171,-298 -384,-304 -138,-4 -217,58 -274,139 -100,142 -35,313 -193,347 -194,42 -272,-288 -250,-544 21,-247 62,-507 -9,-582 605,-42 1153,-458 1068,-882z" style="fill:#fcf1df"/>
  <path class="RightPaw-Lizard1fil32" d="M18467 19678c-21,-36 -66,-49 -102,-28 -36,20 -47,64 -27,100 13,23 28,49 44,71 107,145 280,276 455,408 150,114 301,228 399,344 84,99 164,261 169,392 2,54 -10,100 -40,126 -68,57 -155,5 -221,-85 -68,-94 -155,-212 -277,-234 -166,-31 -205,68 -150,146 72,103 161,338 196,566 16,103 19,202 2,282 -15,68 -43,121 -91,144 -30,16 -70,21 -122,14 -42,-5 -62,-72 -91,-165 -23,-73 -49,-158 -95,-248 -50,-98 -96,-179 -163,-239 -71,-65 -159,-102 -286,-106 -84,-3 -151,16 -206,47 -56,32 -97,75 -131,124 -50,70 -65,141 -78,204 -12,56 -22,104 -68,113 -16,3 -30,4 -42,3 -27,-2 -48,-16 -64,-38 -21,-29 -36,-71 -46,-120 -19,-94 -18,-208 -9,-310 5,-64 12,-117 19,-167 23,-169 45,-290 -27,-448 -17,-38 -66,-65 -103,-48 -38,17 -55,61 -38,99 54,119 39,232 20,377 -8,55 -16,114 -21,175 -9,113 -10,242 12,351 14,69 37,132 73,180 41,56 98,92 172,98 26,2 54,1 83,-5 143,-29 162,-120 185,-229 11,-49 22,-104 54,-149 23,-32 49,-61 82,-80 33,-18 75,-29 129,-28 86,3 144,27 189,67 49,45 88,113 130,197 41,80 65,157 86,224 45,147 78,252 215,270 83,10 152,-1 208,-29 93,-47 147,-136 170,-247 21,-99 19,-216 0,-336 -28,-188 -97,-388 -171,-523 42,11 114,93 156,151 101,141 269,235 415,116 71,-58 97,-147 93,-245 -6,-166 -98,-358 -204,-484 -109,-129 -266,-248 -423,-366 -189,-144 -378,-287 -460,-432z" style="fill:#e4ad1b"/>
 </g><g id="LeftPaw-Lizard1">
 <animateTransform additive="sum" attributeName="transform" dur="10" repeatCount="indefinite" type="translate" values="0;0 200;0;0 200;0;0 200;0;0 200;0"/>
  <metadata id="CorelCorpID_361Corel-Layer"/>
  <path class="LeftPaw-Lizard1fil672" d="M8957 19719c-161,284 -636,568 -871,846 -165,195 -249,575 -80,649 148,66 234,-108 348,-218 112,-108 200,-191 255,-121 -94,89 -123,234 -200,476 -89,279 -3,682 262,648 142,-19 126,-223 244,-454 92,-182 171,-298 384,-304 138,-4 217,58 274,139 100,142 35,313 192,347 195,42 272,-288 251,-544 -21,-247 -62,-507 9,-582 -605,-42 -1153,-458 -1068,-882z" style="fill:#4d9296"/>
  <path class="LeftPaw-Lizard1fil32" d="M8897 19678c21,-36 66,-49 102,-28 36,20 47,64 27,100 -13,23 -28,49 -44,71 -107,145 -280,276 -455,408 -150,114 -301,228 -399,344 -84,99 -164,261 -169,392 -2,54 10,100 40,126 68,57 155,5 221,-85 68,-94 155,-212 277,-234 166,-31 205,68 150,146 -72,103 -162,338 -196,566 -16,103 -19,202 -2,282 15,68 43,121 91,144 30,16 70,21 122,14 42,-5 62,-72 91,-165 23,-73 49,-158 95,-248 50,-98 96,-179 163,-239 71,-65 159,-102 286,-106 84,-3 151,16 206,47 56,32 97,75 131,124 50,70 65,141 78,204 12,56 22,104 68,113 16,3 29,4 41,3 28,-2 49,-16 65,-38 21,-29 36,-71 46,-120 19,-94 18,-208 9,-310 -5,-64 -12,-117 -19,-167 -23,-169 -45,-290 26,-448 17,-38 66,-65 104,-48 38,17 55,61 38,99 -54,119 -39,232 -20,377 8,55 16,114 21,175 9,113 10,242 -12,351 -14,69 -37,132 -73,180 -42,56 -98,92 -172,98 -26,2 -54,1 -83,-5 -143,-29 -162,-120 -185,-229 -11,-49 -22,-104 -54,-149 -23,-32 -49,-61 -83,-80 -32,-18 -74,-29 -128,-28 -86,3 -144,27 -189,67 -49,45 -88,113 -131,197 -40,80 -64,157 -85,224 -45,147 -78,252 -215,270 -83,10 -152,-1 -208,-29 -93,-47 -147,-136 -170,-247 -21,-99 -19,-216 -1,-336 29,-188 98,-388 172,-523 -43,11 -114,93 -156,151 -101,141 -269,235 -416,116 -70,-58 -96,-147 -92,-245 6,-166 98,-358 204,-484 109,-129 266,-248 423,-366 189,-144 378,-287 460,-432z" style="fill:#697bfa"/>
 </g><g id="BraceletTeen-Medium">
 <animateTransform additive="sum" attributeName="transform" dur="10" repeatCount="indefinite" type="translate" values="0;0 200;0;0 200;0;0 200;0;0 200;0"/>
  <metadata id="CorelCorpID_11Corel-Layer"/>
  <g>
   <path class="BraceletTeen-Mediumfil112 BraceletTeen-Mediumstr4" d="M8775 19883c-36,11 -75,-9 -86,-45 -11,-36 9,-74 45,-85l295 -160c36,-11 75,9 86,45 11,36 -9,75 -45,86l-295 159z" style="fill:#7aa0f0"/>
   <path class="BraceletTeen-Mediumfil113" d="M8775 19883c-36,11 -75,-9 -86,-45 -11,-36 9,-74 45,-85l295 -160c36,-11 75,9 86,45 11,36 -9,75 -45,86l-295 159z" style="fill:#becc73"/>
  </g>
  <g>
   <path class="BraceletTeen-Mediumfil112 BraceletTeen-Mediumstr4" d="M9168 20164c-36,11 -74,-9 -85,-45 -11,-36 9,-74 45,-85l362 -149c36,-11 74,9 86,45 11,36 -9,74 -45,85l-363 149z" style="fill:#d6355d"/>
   <path class="BraceletTeen-Mediumfil113" d="M9168 20164c-36,11 -74,-9 -85,-45 -11,-36 9,-74 45,-85l362 -149c36,-11 74,9 86,45 11,36 -9,74 -45,85l-363 149z" style="fill:#43eed8"/>
  </g>
  <g>
   <path class="BraceletTeen-Mediumfil112 BraceletTeen-Mediumstr4" d="M9648 20513c-36,11 -74,-9 -85,-45 -12,-36 8,-74 44,-86l432 -139c36,-11 75,9 86,45 11,36 -9,74 -45,85l-432 140z" style="fill:#2a0b31"/>
   <path class="BraceletTeen-Mediumfil113" d="M9648 20513c-36,11 -74,-9 -85,-45 -12,-36 8,-74 44,-86l432 -139c36,-11 75,9 86,45 11,36 -9,74 -45,85l-432 140z" style="fill:#abb476"/>
  </g>
  <g>
   <path class="BraceletTeen-Mediumfil112 BraceletTeen-Mediumstr4" d="M10046 20909c-36,11 -74,-9 -85,-45 -11,-36 9,-75 45,-86l285 -120c36,-11 75,9 86,45 11,36 -9,74 -45,85l-286 121z" style="fill:#cfe9b4"/>
   <path class="BraceletTeen-Mediumfil113" d="M10046 20909c-36,11 -74,-9 -85,-45 -11,-36 9,-75 45,-86l285 -120c36,-11 75,9 86,45 11,36 -9,74 -45,85l-286 121z" style="fill:#5d3831"/>
  </g>
  <g>
   <path class="BraceletTeen-Mediumfil112 BraceletTeen-Mediumstr4" d="M9150 20084c-4,38 -37,65 -75,61 -37,-4 -64,-37 -60,-75l9 -423c4,-37 37,-65 75,-61 37,4 64,38 60,75l-9 423z" style="fill:#584cad"/>
   <path class="BraceletTeen-Mediumfil114" d="M9150 20084c-4,38 -37,65 -75,61 -37,-4 -64,-37 -60,-75l9 -423c4,-37 37,-65 75,-61 37,4 64,38 60,75l-9 423z" style="fill:#931eee"/>
  </g>
  <g>
   <path class="BraceletTeen-Mediumfil112 BraceletTeen-Mediumstr4" d="M9647 20434c-4,37 -38,64 -75,60 -38,-5 -65,-39 -60,-76l-9 -497c4,-38 38,-64 76,-60 37,4 64,38 60,76l8 497z" style="fill:#1fa659"/>
   <path class="BraceletTeen-Mediumfil114" d="M9647 20434c-4,37 -38,64 -75,60 -38,-5 -65,-39 -60,-76l-9 -497c4,-38 38,-64 76,-60 37,4 64,38 60,76l8 497z" style="fill:#6ffe0f"/>
  </g>
  <g>
   <path class="BraceletTeen-Mediumfil112 BraceletTeen-Mediumstr4" d="M10087 20871c-5,37 -39,64 -76,60 -37,-5 -64,-39 -60,-76l61 -531c4,-37 38,-64 75,-60 38,5 64,39 60,76l-60 531z" style="fill:#1e682a"/>
   <path class="BraceletTeen-Mediumfil114" d="M10087 20871c-5,37 -39,64 -76,60 -37,-5 -64,-39 -60,-76l61 -531c4,-37 38,-64 75,-60 38,5 64,39 60,76l-60 531z" style="fill:#c069ae"/>
  </g>
  <path class="BraceletTeen-Mediumfil115 BraceletTeen-Mediumstr0" d="M17160 20630c123,-469 981,-973 1510,-838 90,24 186,227 123,277 -576,-55 -1304,310 -1440,758 -12,43 -191,-110 -193,-197z" style="fill:#4c0d03"/>
  <path class="BraceletTeen-Mediumfil116 BraceletTeen-Mediumstr0" d="M17128 20675c-12,-697 720,-1252 1205,-1249 93,0 242,139 200,207 -608,158 -1123,559 -1149,1165 4,45 -213,33 -256,-123z" style="fill:#c03523"/>
  <path class="BraceletTeen-Mediumfil14" d="M17152 20736c-48,-281 10,-429 191,-656 -24,113 91,198 216,185 49,-102 167,-189 216,-291 63,-15 126,-29 188,-43 -56,130 -45,196 26,284 -225,117 -385,223 -549,382 -24,77 -48,154 -72,231 -81,-27 -135,-65 -216,-92z" style="fill:#2f600d"/>
 </g><g id="Head-Lizard4">
 <animateTransform additive="sum" attributeName="transform" dur="10" repeatCount="indefinite" type="translate" values="0;0 200;0;0 200;0;0 200;0;0 200;0"/>
  <metadata id="CorelCorpID_374Corel-Layer"/>
  <path class="Head-Lizard4fil693" d="M13677 17826c-881,0 -1733,-38 -2517,-162 -1703,-270 -4006,-1866 -4284,-3648 -49,-315 626,350 628,-156 2,-371 -381,-706 -227,-1549 58,-316 492,459 615,-165 100,-509 492,-1138 617,-1294 -240,-291 -508,-437 -580,-604 -63,-144 53,-272 371,-302 336,-50 442,-52 771,-62 28,-169 -288,-721 -172,-762 302,-107 570,-37 848,42 141,-71 273,-146 390,-224 1009,-673 2198,-1146 3545,-1146 1347,0 2536,473 3545,1146 117,78 249,153 390,224 278,-79 546,-149 847,-42 117,41 -200,593 -171,762 329,10 435,12 771,62 318,30 434,158 371,302 -72,167 -340,313 -580,604 125,156 517,785 617,1294 123,624 557,-151 615,165 154,843 -229,1178 -227,1549 2,506 677,-159 628,156 -278,1782 -2581,3378 -4284,3648 -784,124 -1646,162 -2527,162z" style="fill:#f9502d"/>
  <path class="Head-Lizard4fil686" d="M13654 12622c1381,0 2500,896 2500,2000 0,1105 -1119,2000 -2500,2000 -1381,0 -2500,-895 -2500,-2000 0,-1104 1119,-2000 2500,-2000z" style="fill:#f2eaa0"/>
  <path class="Head-Lizard4fil694" d="M8167 12667c-55,-96 -9,-176 30,-209l341 -332 -91 -217c-67,-126 -6,-208 27,-278l312 -472 -126 -385c-14,-41 -58,-104 80,-207 765,-695 613,-557 905,-832 21,-16 88,-58 92,-7 5,6 64,309 71,345l398 -406 -30 -389c0,-123 43,-132 122,-211l457 -418c85,-88 471,-337 83,17l-544 503 36 381c125,-129 250,-259 377,-387 21,-18 68,-45 79,-1 0,107 37,249 52,359l382 -428c-2,-41 -16,-472 -15,-473 33,-404 120,-410 117,-50l14 397c38,-43 345,-395 358,-402 30,-31 65,-40 70,-2 4,6 39,331 44,372 641,-812 452,-567 766,-971 14,-20 75,-66 71,-11 -61,0 155,870 173,937l252 -404c16,-35 57,-54 78,-7 -15,11 119,360 133,403 426,-788 364,-684 440,-859 76,175 13,71 439,859 14,-43 148,-392 133,-403 22,-47 63,-28 78,7l252 404c18,-67 235,-937 173,-937 -4,-55 58,-9 71,11 315,404 125,159 767,971 4,-41 39,-366 44,-372 4,-38 39,-29 69,2 13,7 320,359 359,402l14 -397c-4,-360 84,-354 116,50 1,1 -13,432 -14,473l381 428c16,-110 52,-252 52,-359 11,-44 58,-17 80,1 126,128 251,258 377,387l35 -381 -544 -503c-388,-354 -2,-105 84,-17l456 418c79,79 122,88 122,211l-30 389 398 406c7,-36 67,-339 71,-345 4,-51 71,-9 92,7 293,275 141,137 906,832 137,103 93,166 80,207l-127 385 312 472c33,70 94,152 28,278l-92 217 341 332c39,33 85,113 31,209 -200,334 -360,479 -306,332l216 -423c-244,-243 -479,-478 -719,-724 -69,147 -136,296 -208,442 -167,-190 -684,-717 -840,-888l-126 294c-18,-1 -35,-1 -53,-1 -57,0 -113,4 -168,12 -232,-273 -451,-536 -678,-813 -136,312 -271,609 -416,919l300 392c-26,36 -51,74 -74,113 -216,-283 -430,-564 -644,-848 -162,324 -319,621 -492,940l309 431c23,-43 219,-409 227,-412 118,-224 267,-53 68,161 -180,321 -358,634 -543,952l307 427c24,-40 241,-417 244,-417 26,-44 74,-43 105,-15 30,68 527,696 680,899 61,59 110,56 -41,322l-230 385 287 394c33,-56 240,-418 260,-433 23,-37 69,-53 104,-23 30,23 222,290 262,342l285 -465c-291,-374 -161,-309 -194,-479l277 347c114,-195 163,-241 306,-283 -197,332 -395,659 -596,988 -86,211 -269,-116 -390,-278l-259 431c0,1 0,2 -1,3l-306 487c-16,-207 68,-341 171,-504 -204,-280 -408,-559 -612,-838 -199,326 -398,651 -600,976l250 366 -173 0c-161,-236 -323,-467 -488,-700 -145,236 -292,466 -440,700l-164 0 205 -323c-218,-317 -435,-637 -656,-951 -222,314 -439,634 -656,951l204 323 -164 0c-148,-234 -294,-464 -440,-700 -165,233 -326,464 -488,700l-173 0 250 -366c-201,-325 -400,-650 -599,-976 -205,279 -408,558 -613,838 103,163 187,297 171,504l-305 -487c-2,-1 -2,-2 -2,-3l-259 -431c-121,162 -303,489 -390,278 -201,-329 -398,-656 -595,-988 143,42 192,88 305,283l278 -347c-34,170 97,105 -195,479l285 465c40,-52 233,-319 262,-342 36,-30 81,-14 104,23 20,15 227,377 261,433l286 -394 -230 -385c-150,-266 -102,-263 -41,-322 153,-203 650,-831 680,-899 32,-28 80,-29 105,15 3,0 220,377 244,417l308 -427c-186,-318 -364,-631 -543,-952 -200,-214 -51,-385 68,-161 7,3 203,369 227,412l308 -431c-173,-319 -330,-616 -491,-940 -214,284 -429,565 -644,848 -23,-39 -48,-77 -75,-113l301 -392c-145,-310 -280,-607 -417,-919 -227,277 -446,540 -678,813 -55,-8 -111,-12 -168,-12 -17,0 -35,0 -52,1l-126 -294c-157,171 -674,698 -841,888 -71,-146 -139,-295 -208,-442 -240,246 -474,481 -719,724l216 423c54,147 -106,2 -305,-332zm5554 -4415c-125,258 -233,462 -390,752l193 446 197 -365 197 365 192 -446c-157,-290 -264,-494 -389,-752zm0 1072c-153,280 -306,544 -467,822l229 447c78,-135 156,-274 238,-407 81,133 159,272 238,407l228 -447c-161,-278 -314,-542 -466,-822zm0 1105c-173,295 -341,565 -523,858l251 449c34,-55 246,-406 272,-423 26,17 237,368 272,423l251 -449c-183,-293 -350,-563 -523,-858zm0 1118c-188,297 -376,586 -569,882l268 451c62,-95 207,-336 268,-409 9,-10 20,-17 33,-21 12,4 23,11 32,21 62,73 206,314 268,409l268 -451c-193,-296 -380,-585 -568,-882zm0 1122c-201,304 -401,600 -605,902l279 452c26,-39 270,-404 276,-407 14,-14 32,-23 50,-23 18,0 35,9 49,23 7,3 250,368 277,407l279 -452c-205,-302 -405,-598 -605,-902zm0 1120c-211,309 -423,616 -635,924l285 453c77,-113 197,-311 280,-407 18,-19 44,-27 70,-19 25,-8 51,0 69,19 83,96 203,294 281,407l285 -453c-213,-308 -424,-615 -635,-924zm4094 -3915c284,268 568,533 854,800l-118 383c-101,-97 -257,-267 -361,-345 -32,-26 -78,-29 -92,6 5,4 -108,326 -120,362l-379 -389c92,-306 150,-511 216,-817zm382 987c435,429 335,327 726,881l-119 286c-79,-81 -244,-270 -322,-329 -34,-25 -79,-25 -98,13 -68,104 -122,262 -175,379l-345 -375c119,-293 226,-559 333,-855zm-1434 -1543c282,286 564,574 843,862l-112 398c-114,-123 -240,-249 -350,-374 -34,-28 -76,-33 -88,4 -1,1 -109,337 -121,373l-360 -416c95,-347 137,-502 188,-847zm391 1043c260,286 508,551 775,832l-170 413c-32,-35 -326,-353 -328,-361 -33,-26 -78,-29 -97,12 -3,0 -149,349 -164,386l-346 -406c117,-297 223,-577 330,-876zm-1374 -1638c266,304 531,607 799,909l-109 410 -319 -385c-22,-26 -79,-57 -92,-7 -32,48 -100,308 -123,383l-333 -433c88,-353 129,-527 177,-877zm364 1087c246,298 494,591 744,885l-163 423c-58,-70 -271,-346 -322,-385 -27,-25 -74,-36 -91,7 0,1 -149,355 -165,394l-330 -427c124,-316 221,-577 327,-897zm-1256 -1691c243,315 484,622 730,934l-112 422c-90,-122 -204,-298 -300,-407 -27,-31 -63,-37 -78,2 0,13 -110,346 -125,393l-292 -444c93,-372 131,-532 177,-900zm315 1117c229,308 460,613 691,920l-168 431 -289 -392c-9,-28 -76,-56 -97,-5 0,0 -155,362 -171,401l-302 -441c136,-336 229,-573 336,-914zm212 1119c227,313 440,593 676,902l-208 440 -289 -384c-16,-38 -79,-47 -105,-1 -1,0 -182,366 -201,405l-308 -437c151,-311 293,-611 435,-925zm328 3360c215,286 429,570 643,856l-278 462c-41,-56 -246,-348 -277,-371 -33,-33 -81,-22 -105,15 -88,133 -173,286 -257,424l-300 -421c194,-322 383,-641 574,-965zm-1387 -5069c198,317 397,625 603,937l-178 440 -255 -400c-24,-36 -68,-54 -91,-5 -2,1 -166,364 -184,404l-261 -444c144,-337 247,-590 366,-932zm136 1137c204,316 406,616 616,929l-215 444 -267 -397c-31,-36 -72,-52 -102,-2 1,0 -188,367 -208,406l-281 -443c168,-326 308,-604 457,-937zm96 1138c24,36 266,398 266,398l367 522 -245 448 -270 -391c-27,-41 -80,-46 -108,-2 -86,130 -156,274 -233,410l-289 -443c175,-316 344,-622 512,-942zm69 1139c215,307 426,605 645,910l-262 453 -276 -389c-17,-37 -83,-42 -111,3 -17,13 -214,357 -245,409l-300 -439c190,-319 368,-624 549,-947zm57 1140c214,300 428,600 643,899l-277 458c-29,-39 -281,-388 -281,-392 -36,-35 -108,-19 -108,12 -7,5 -229,371 -255,413l-303 -440c196,-318 390,-630 581,-950zm40 1138c211,297 423,593 635,890l-288 463c-80,-114 -188,-290 -275,-388 -35,-34 -81,-24 -108,14 -8,6 -233,371 -259,414l-302 -439c200,-318 400,-634 597,-954zm-5127 -4464c-285,268 -568,533 -855,800l118 383c101,-97 257,-267 361,-345 33,-26 78,-29 92,6 -5,4 109,326 121,362l378 -389c-92,-306 -149,-511 -215,-817zm-383 987c-434,429 -334,327 -726,881l120 286c79,-81 244,-270 321,-329 34,-25 80,-25 98,13 69,104 122,262 176,379l344 -375c-119,-293 -226,-559 -333,-855zm1434 -1543c-282,286 -563,574 -843,862l112 398c114,-123 240,-249 350,-374 34,-28 77,-33 88,4 1,1 110,337 122,373l360 -416c-96,-347 -138,-502 -189,-847zm-391 1043c-260,286 -508,551 -775,832l170 413c32,-35 326,-353 329,-361 32,-26 78,-29 96,12 3,0 149,349 165,386l345 -406c-116,-297 -223,-577 -330,-876zm1375 -1638c-266,304 -532,607 -800,909l110 410 318 -385c23,-26 80,-57 92,-7 32,48 100,308 124,383l333 -433c-88,-353 -130,-527 -177,-877zm-365 1087c-246,298 -493,591 -743,885l162 423c59,-70 272,-346 322,-385 27,-25 74,-36 91,7 0,1 149,355 166,394l330 -427c-125,-316 -222,-577 -328,-897zm1256 -1691c-242,315 -483,622 -730,934l112 422c90,-122 205,-298 301,-407 27,-31 62,-37 78,2 0,13 110,346 124,393l292 -444c-93,-372 -130,-532 -177,-900zm-315 1117c-229,308 -460,613 -691,920l169 431 289 -392c9,-28 75,-56 96,-5 0,0 155,362 171,401l302 -441c-136,-336 -228,-573 -336,-914zm-212 1119c-227,313 -439,593 -676,902l208 440 289 -384c17,-38 79,-47 105,-1 1,0 182,366 201,405l308 -437c-151,-311 -292,-611 -435,-925zm-327 3360c-215,286 -430,570 -644,856l278 462c41,-56 247,-348 278,-371 33,-33 80,-22 105,15 88,133 173,286 256,424l300 -421c-194,-322 -383,-641 -573,-965zm1387 -5069c-198,317 -397,625 -604,937l179 440 255 -400c24,-36 67,-54 90,-5 2,1 166,364 185,404l260 -444c-143,-337 -247,-590 -365,-932zm-136 1137c-205,316 -406,616 -617,929l216 444 266 -397c32,-36 72,-52 102,-2 -1,0 188,367 208,406l281 -443c-167,-326 -307,-604 -456,-937zm-97 1138c-23,36 -266,398 -266,398l-367 522 245 448 271 -391c27,-41 79,-46 107,-2 87,130 156,274 233,410l289 -443c-175,-316 -344,-622 -512,-942zm-69 1139c-215,307 -426,605 -645,910l262 453 277 -389c16,-37 82,-42 110,3 18,13 214,357 245,409l301 -439c-190,-319 -369,-624 -550,-947zm-57 1140c-214,300 -427,600 -643,899l278 458c28,-39 280,-388 280,-392 37,-35 108,-19 108,12 8,5 229,371 255,413l303 -440c-195,-318 -390,-630 -581,-950zm-39 1138c-212,297 -423,593 -635,890l287 463c80,-114 188,-290 275,-388 35,-34 81,-24 108,14 8,6 233,371 259,414l302 -439c-200,-318 -399,-634 -596,-954z" style="fill:#1ddbcb"/>
  <path class="Head-Lizard4fil32" d="M8564 10788c27,31 23,78 -8,105 -31,27 -79,24 -106,-7 -73,-86 -172,-172 -267,-255 -99,-85 -193,-168 -258,-249 -111,-138 -141,-266 6,-384 102,-82 253,-137 431,-163 176,-27 382,-26 593,2 85,11 5,-151 -36,-237 -105,-220 -221,-463 -5,-560 189,-86 532,-72 853,51 245,94 479,251 629,476 33,62 62,-38 70,-68 58,-207 134,-479 363,-503 207,-21 460,88 687,269 93,75 392,408 367,697 -71,-180 -248,-411 -460,-580 -198,-158 -412,-254 -579,-237 -128,13 -188,230 -234,394 -32,117 -59,213 -118,248 -65,38 -128,16 -195,-98 -129,-217 -350,-369 -583,-458 -286,-109 -582,-125 -738,-55 -76,34 5,205 78,359 59,124 115,240 103,327 -12,93 -75,143 -222,124 -197,-27 -388,-27 -551,-3 -153,23 -279,67 -359,131 -58,47 -38,106 16,174 56,70 146,148 241,230 97,86 199,175 282,270z" style="fill:#f5f20b"/>
  <path class="Head-Lizard4fil32" d="M12211 17798c-190,23 -543,-4 -614,-12 -151,-18 -298,-28 -449,-52 -921,-146 -2012,-669 -2873,-1402 -759,-646 -1340,-1453 -1473,-2305 -17,-111 23,-161 101,-173 63,-10 143,23 231,60 79,33 166,68 226,69 40,0 69,-29 69,-123 1,-117 -38,-241 -97,-378 -122,-289 -232,-799 -128,-1185 22,-122 83,-153 167,-138 52,10 106,44 164,81 53,34 110,71 157,80 49,10 95,-28 126,-188 42,-209 130,-437 229,-644 129,-271 278,-510 366,-633l151 -54c25,27 27,68 4,98 -74,91 -242,350 -386,653 -95,198 -178,413 -217,608 -54,276 -170,333 -301,307 -74,-14 -145,-60 -210,-101 -60,-36 -95,-66 -111,2 -90,394 35,810 130,1062 57,153 107,286 106,431 -1,207 -93,272 -220,271 -89,0 -190,-42 -281,-80 -105,-45 -123,-14 -108,63 158,773 701,1507 1401,2103 841,716 1898,1247 2793,1389 144,22 293,67 446,84 88,10 245,45 601,107zm-2472 -8714c59,-30 118,-62 175,-95 65,-37 126,-74 182,-111 228,-152 459,-305 706,-434 235,-123 464,-238 729,-327 40,-13 418,-149 739,-147 -279,78 -658,245 -696,261 -239,102 -476,227 -704,346 -241,126 -467,275 -691,425 -62,41 -126,80 -191,118 -65,37 -133,73 -206,110l-43 -146z" style="fill:#21ed52"/>
  <path class="Head-Lizard4fil32" d="M18800 10788c-27,31 -23,78 8,105 31,27 78,24 105,-7 74,-86 173,-172 268,-255 98,-85 193,-168 258,-249 111,-138 141,-266 -6,-384 -102,-82 -253,-137 -431,-163 -177,-27 -382,-26 -593,2 -86,11 -5,-151 36,-237 105,-220 220,-463 5,-560 -189,-86 -532,-72 -854,51 -244,94 -479,251 -628,476 -34,62 -62,-38 -70,-68 -58,-207 -134,-479 -363,-503 -207,-21 -461,88 -687,269 -94,75 -392,408 -368,697 71,-180 249,-411 461,-580 198,-158 412,-254 579,-237 127,13 188,230 234,394 32,117 59,213 118,248 65,38 128,16 195,-98 129,-217 350,-369 583,-458 286,-109 582,-125 738,-55 76,34 -5,205 -79,359 -59,124 -114,240 -102,327 12,93 75,143 222,124 196,-27 388,-27 551,-3 153,23 279,67 359,131 57,47 38,106 -17,174 -56,70 -146,148 -240,230 -97,86 -200,175 -282,270z" style="fill:#74b33a"/>
  <path class="Head-Lizard4fil14" d="M11299 17685c-47,-7 -93,-14 -139,-21 -1703,-270 -4006,-1866 -4284,-3648 -49,-315 626,350 628,-156 187,2105 2275,3486 3795,3825z" style="fill:#84e2d2"/>
  <path class="Head-Lizard4fil32" d="M15153 17798c189,23 543,-4 614,-12 151,-18 298,-28 449,-52 920,-146 2012,-669 2873,-1402 758,-646 1340,-1453 1473,-2305 17,-111 -23,-161 -101,-173 -63,-10 -143,23 -232,60 -78,33 -165,68 -225,69 -40,0 -69,-29 -70,-123 0,-117 39,-241 97,-378 123,-289 232,-799 129,-1185 -22,-122 -83,-153 -168,-138 -52,10 -105,44 -163,81 -53,34 -111,71 -157,80 -49,10 -95,-28 -126,-188 -42,-209 -130,-437 -229,-644 -129,-271 -278,-510 -367,-633l-151 -54c-24,27 -26,68 -3,98 74,91 241,350 386,653 94,198 178,413 216,608 55,276 171,333 302,307 74,-14 145,-60 210,-101 60,-36 95,-66 111,2 90,394 -35,810 -130,1062 -57,153 -107,286 -106,431 1,207 93,272 219,271 90,0 191,-42 282,-80 105,-45 122,-14 108,63 -158,773 -702,1507 -1401,2103 -841,716 -1898,1247 -2793,1389 -145,22 -293,67 -447,84 -87,10 -244,45 -600,107zm2472 -8714c-59,-30 -118,-62 -175,-95 -65,-37 -126,-74 -182,-111 -228,-152 -459,-305 -707,-434 -234,-123 -463,-238 -729,-327 -39,-13 -417,-149 -738,-147 279,78 658,245 696,261 239,102 476,227 704,346 241,126 467,275 691,425 62,41 125,80 191,118 64,37 133,73 205,110l44 -146z" style="fill:#aeddbc"/>
 </g><g id="Mouth-Lizard2">
 <animateTransform additive="sum" attributeName="transform" dur="10" repeatCount="indefinite" type="translate" values="0;0 200;0;0 200;0;0 200;0;0 200;0"/>
  <metadata id="CorelCorpID_380Corel-Layer"/>
  <path class="Mouth-Lizard2fil711" d="M13682 17844c-963,0 -1475,-57 -2157,-142 -844,-197 -1780,-993 -1989,-1942 861,-682 2764,310 4146,312 1382,-2 3285,-994 4146,-312 -209,949 -1146,1745 -1990,1942 -681,85 -1193,142 -2156,142z" style="fill:#77e119"/>
  <path class="Mouth-Lizard2fil22 Mouth-Lizard2str0" d="M9536 15760c905,-666 2447,312 4146,312 1699,0 3241,-978 4146,-312" style="fill:#1866fd"/>
  <path class="Mouth-Lizard2fil712 Mouth-Lizard2str0" d="M10530 15541c64,320 209,703 503,935 256,-126 405,-449 454,-698 38,239 263,472 430,572 176,-94 271,-233 390,-441 -606,-129 -1255,-318 -1777,-368z" style="fill:#666c94"/>
  <path class="Mouth-Lizard2fil713 Mouth-Lizard2str0" d="M16834 15541c-64,320 -210,703 -504,935 -255,-126 -404,-449 -453,-698 -38,239 -263,472 -430,572 -176,-94 -271,-233 -390,-441 606,-129 1255,-318 1777,-368z" style="fill:#e030c7"/>
 </g><g id="Eyes-Lizard3">
 <animateTransform additive="sum" attributeName="transform" dur="10" repeatCount="indefinite" type="translate" values="0;0 200;0;0 200;0;0 200;0;0 200;0"/>
  <metadata id="CorelCorpID_390Corel-Layer"/>
  <path class="Eyes-Lizard3fil14" d="M7970 13978c-146,-775 118,-2127 1014,-3020 -1331,-964 1812,-1105 2599,-217 786,888 1089,2831 276,3970 -989,1387 -3597,811 -3889,-733z"/>
  <path class="Eyes-Lizard3fil750" d="M8571 14485c557,808 2256,712 2914,45 644,-653 482,-2662 45,-3312 -381,-565 -1248,-614 -1804,-283 -1378,823 -1781,2642 -1155,3550z"/>
  <path class="Eyes-Lizard3fil751" d="M8724 14661c16,14 33,29 50,43 415,-290 906,-584 1472,-830 -441,350 -797,708 -1086,1050 23,8 46,17 70,25 317,-304 678,-602 1090,-865 -238,300 -450,628 -625,963 32,4 63,6 95,8 190,-278 399,-562 635,-816 -111,265 -200,541 -249,813 36,-3 71,-6 106,-10 77,-258 175,-522 298,-766l-4 715c29,-7 58,-14 86,-22l85 -631 177 545c25,-10 50,-21 75,-31l-110 -588 304 489c22,-13 44,-27 65,-40l-257 -554 457 397c9,-9 18,-17 27,-26 10,-11 20,-21 30,-33l-446 -499 589 291c15,-27 29,-55 42,-84l-576 -374 654 169c12,-38 23,-78 34,-118l-675 -293 719 90c5,-29 10,-58 15,-88l-728 -175 750 0c3,-29 5,-59 8,-89l-764 -84 773 -65c1,-35 2,-70 3,-106l-783 -34 784 -109c-1,-39 -2,-79 -3,-118l-719 -1 712 -143c-2,-35 -5,-70 -8,-105l-735 49 718 -222c-5,-41 -11,-80 -16,-120l-739 107 710 -283c-6,-34 -13,-67 -20,-99l-733 178 692 -355c-8,-32 -17,-63 -26,-94l-734 257 672 -444c-11,-30 -22,-58 -34,-86l-694 338 574 -568 -1 -2c-14,-20 -29,-40 -44,-59l-541 431 343 -623c-15,-11 -31,-22 -46,-32l-346 514 82 -643c-20,-7 -39,-13 -59,-19l-166 686c-34,-254 -94,-500 -170,-742 -18,-1 -36,-2 -54,-2 64,316 102,632 119,948 -123,-328 -294,-629 -512,-905 -18,4 -36,9 -54,14 211,344 370,701 485,1070 -220,-345 -499,-652 -859,-909 -18,11 -36,22 -54,33 317,300 583,628 802,982 -339,-292 -712,-542 -1119,-747 -14,11 -28,23 -41,36 403,260 762,562 1079,903 -450,-284 -896,-498 -1337,-645 -11,12 -21,24 -31,36 476,209 910,472 1313,776 -479,-225 -1010,-368 -1556,-449 -10,17 -21,33 -31,50 531,151 1043,339 1500,584 -541,-170 -1092,-255 -1682,-243 -10,22 -20,45 -29,67 589,65 1155,206 1699,405 -616,-80 -1221,-97 -1828,-42 -5,19 -10,37 -15,55 639,2 1269,64 1845,208 -625,-29 -1284,4 -1914,136 -4,28 -7,55 -10,83 622,-56 1250,-77 1872,-50 -628,62 -1257,192 -1886,398 1,15 1,30 2,45 620,-146 1250,-238 1890,-263 -643,131 -1261,318 -1849,590 3,14 6,27 8,40 597,-213 1204,-335 1804,-423 -577,185 -1142,429 -1693,753 6,13 12,26 18,39 539,-260 1107,-475 1712,-628 -557,293 -1059,643 -1453,985z"/>
  <path class="Eyes-Lizard3fil740" d="M11869 13601c132,-849 -39,-1937 -339,-2383 -381,-565 -1248,-614 -1804,-283 -829,495 -1305,1351 -1416,2152 444,-1199 1906,-2113 2492,-1923 818,266 1174,1264 1067,2437z"/>
  <path class="Eyes-Lizard3fil752" d="M10486 14496c475,179 712,-437 812,-1265 100,-828 78,-2125 -657,-2202 -735,-77 -1017,324 -1047,1278 -31,955 416,2010 892,2189z"/>
  <path class="Eyes-Lizard3fil152" d="M10990 11269c-611,15 -860,1318 27,1310 913,-9 634,-1325 -27,-1310z"/>
  <circle class="Eyes-Lizard3fil152" r="235" transform="matrix(0.810263 0.185424 -0.210929 1.026 10054.4 11944.1)"/>
  <circle class="Eyes-Lizard3fil152" r="235" transform="matrix(0.679281 -0.313746 0.501256 0.914888 9256.69 13963.7)"/>
  <path class="Eyes-Lizard3fil32" d="M8632 14443c34,49 73,95 116,138 282,277 737,404 1207,405 474,1 960,-127 1295,-358 67,-46 128,-97 182,-151 279,-283 399,-846 407,-1434 9,-706 -142,-1442 -372,-1783 -168,-251 -442,-393 -738,-439 -330,-52 -688,14 -964,179 -53,31 -104,64 -153,98 -593,408 -978,1013 -1150,1625 -171,608 -131,1220 124,1648 15,25 30,49 46,72zm-1021 -666c311,163 578,2 603,-492 10,-198 47,-401 104,-603 181,-642 585,-1278 1209,-1707 52,-36 106,-71 161,-104 305,-182 700,-255 1064,-198 335,53 646,215 840,504 245,363 406,1134 396,1867 -8,623 -140,1225 -450,1538 -60,61 -128,117 -203,169 -360,248 -877,385 -1380,384 -364,0 -876,-51 -1361,-290 -353,-174 -807,-537 -983,-1068z"/>
  <path class="Eyes-Lizard3fil14" d="M19394 13978c146,-775 -118,-2127 -1014,-3020 1331,-964 -1812,-1105 -2599,-217 -786,888 -1089,2831 -276,3970 988,1387 3597,811 3889,-733z"/>
  <path class="Eyes-Lizard3fil747" d="M18793 14485c-557,808 -2256,712 -2914,45 -644,-653 -482,-2662 -45,-3312 381,-565 1248,-614 1804,-283 1378,823 1781,2642 1155,3550z"/>
  <path class="Eyes-Lizard3fil753" d="M18640 14661c-16,14 -33,29 -50,43 -415,-290 -906,-584 -1472,-830 440,350 797,708 1086,1050 -23,8 -47,17 -70,25 -317,-304 -678,-602 -1090,-865 237,300 450,628 624,963 -31,4 -62,6 -94,8 -190,-278 -400,-562 -635,-816 111,265 200,541 249,813 -36,-3 -71,-6 -106,-10 -77,-258 -175,-522 -298,-766l3 715c-28,-7 -57,-14 -85,-22l-85 -631 -177 545c-25,-10 -50,-21 -75,-31l110 -588 -304 489c-22,-13 -44,-27 -65,-40l257 -554 -457 397c-9,-9 -18,-17 -27,-26 -10,-11 -20,-21 -30,-33l446 -499 -589 291c-15,-27 -29,-55 -42,-84l576 -374 -654 169c-12,-38 -24,-78 -34,-118l675 -293 -719 90c-5,-29 -10,-58 -15,-88l728 -175 -750 0c-3,-29 -5,-59 -8,-89l764 -84 -773 -65c-1,-35 -2,-70 -3,-106l782 -34 -783 -109c1,-39 1,-79 3,-118l718 -1 -711 -143c2,-35 5,-70 8,-105l734 49 -717 -222c5,-41 10,-80 16,-120l739 107 -710 -283c6,-34 13,-67 20,-99l733 178 -692 -355c8,-32 17,-63 26,-94l734 257 -673 -444c11,-30 23,-58 34,-86l695 338 -574 -568 1 -2c14,-20 29,-40 44,-59l541 431 -343 -623c15,-11 30,-22 46,-32l346 514 -82 -643c19,-7 39,-13 59,-19l166 686c34,-254 94,-500 170,-742 18,-1 36,-2 54,-2 -64,316 -102,632 -119,948 123,-328 294,-629 512,-905 18,4 36,9 54,14 -211,344 -370,701 -485,1070 220,-345 499,-652 859,-909 18,11 36,22 54,33 -317,300 -583,628 -802,982 339,-292 712,-542 1119,-747 14,11 27,23 41,36 -403,260 -762,562 -1080,903 451,-284 897,-498 1338,-645 10,12 21,24 31,36 -476,209 -910,472 -1313,776 479,-225 1010,-368 1556,-449 10,17 20,33 31,50 -531,151 -1043,339 -1500,584 541,-170 1092,-255 1682,-243 10,22 20,45 29,67 -589,65 -1156,206 -1699,405 616,-80 1221,-97 1828,-42 5,19 10,37 15,55 -639,2 -1269,64 -1845,208 625,-29 1284,4 1914,136 4,28 7,55 10,83 -623,-56 -1250,-77 -1872,-50 628,62 1257,192 1886,398 -1,15 -1,30 -2,45 -621,-146 -1250,-238 -1891,-263 644,131 1261,318 1850,590 -3,14 -6,27 -9,40 -597,-213 -1204,-335 -1803,-423 577,185 1142,429 1693,753 -6,13 -12,26 -18,39 -539,-260 -1107,-475 -1713,-628 558,293 1059,643 1454,985z"/>
  <path class="Eyes-Lizard3fil740" d="M15495 13601c-132,-849 39,-1937 339,-2383 381,-565 1248,-614 1804,-283 829,495 1305,1351 1416,2152 -444,-1199 -1906,-2113 -2492,-1923 -818,266 -1174,1264 -1067,2437z"/>
  <path class="Eyes-Lizard3fil754" d="M16878 14496c-475,179 -712,-437 -812,-1265 -101,-828 -79,-2125 657,-2202 735,-77 1017,324 1047,1278 31,955 -417,2010 -892,2189z"/>
  <path class="Eyes-Lizard3fil152" d="M16374 11269c610,15 860,1318 -27,1310 -913,-9 -634,-1325 27,-1310z"/>
  <circle class="Eyes-Lizard3fil152" r="235" transform="matrix(-0.810263 0.185424 0.210929 1.026 17309.5 11944.1)"/>
  <circle class="Eyes-Lizard3fil152" r="235" transform="matrix(-0.679281 -0.313746 -0.501256 0.914888 18107.2 13963.7)"/>
  <path class="Eyes-Lizard3fil32" d="M18732 14443c-35,49 -73,95 -116,138 -282,277 -737,404 -1208,405 -473,1 -959,-127 -1295,-358 -67,-46 -127,-97 -181,-151 -279,-283 -399,-846 -407,-1434 -10,-706 142,-1442 371,-1783 169,-251 442,-393 739,-439 330,-52 688,14 964,179 53,31 104,64 153,98 593,408 978,1013 1150,1625 171,608 131,1220 -125,1648 -14,25 -29,49 -45,72zm1021 -666c-311,163 -578,2 -603,-492 -11,-198 -47,-401 -104,-603 -181,-642 -586,-1278 -1209,-1707 -52,-36 -106,-71 -161,-104 -305,-182 -700,-255 -1064,-198 -335,53 -646,215 -840,504 -245,363 -406,1134 -396,1867 8,623 140,1225 450,1538 60,61 128,117 202,169 361,248 878,385 1380,384 365,0 877,-51 1362,-290 353,-174 806,-537 983,-1068z"/>
 </g><g id="Moustache-Lizard1">
 <animateTransform additive="sum" attributeName="transform" dur="10" repeatCount="indefinite" type="translate" values="0;0 200;0;0 200;0;0 200;0;0 200;0"/>
  <metadata id="CorelCorpID_399Corel-Layer"/>
  <path class="Moustache-Lizard1fil792" d="M10515 15256c68,-8 130,42 138,110 8,69 -41,130 -110,138 -759,90 -907,492 -846,1007 83,703 653,1782 326,2550 51,-926 -473,-1660 -574,-2522 -78,-657 108,-1170 1066,-1283z" style="fill:#fc6c14"/>
  <path class="Moustache-Lizard1fil32" d="M10582 15493c-263,110 -499,58 -729,384 -116,164 -136,382 -107,628 26,221 102,482 182,758 174,603 370,1279 141,1817 -11,26 -40,38 -66,27 -20,-9 -32,-29 -30,-50 29,-526 -133,-993 -293,-1457 -119,-344 -238,-688 -281,-1055 -40,-340 -11,-644 154,-880 178,-256 599,-481 1011,-405 -208,-3 -649,60 -929,462 -149,213 -174,494 -137,811 43,358 159,696 276,1035 126,363 252,728 290,1124 47,-439 -99,-942 -232,-1401 -81,-281 -158,-546 -185,-775 -31,-268 -8,-509 125,-697 76,-108 252,-214 436,-268 161,-46 291,-38 374,-58z" style="fill:#01baa7"/>
  <path class="Moustache-Lizard1fil792" d="M16849 15256c-69,-8 -130,42 -138,110 -8,69 41,130 110,138 759,90 907,492 846,1007 -83,703 -653,1782 -326,2550 -51,-926 473,-1660 574,-2522 77,-657 -108,-1170 -1066,-1283z" style="fill:#41af45"/>
  <path class="Moustache-Lizard1fil32" d="M16782 15493c263,110 499,58 728,384 116,164 136,382 107,628 -26,221 -101,482 -181,758 -175,603 -370,1279 -141,1817 11,26 40,38 66,27 20,-9 31,-29 30,-50 -29,-526 132,-993 293,-1457 119,-344 237,-688 281,-1055 40,-340 11,-644 -154,-880 -178,-256 -599,-481 -1011,-405 208,-3 649,60 929,462 149,213 174,494 136,811 -42,358 -158,696 -275,1035 -126,363 -252,728 -290,1124 -47,-439 99,-942 232,-1401 81,-281 158,-546 185,-775 31,-268 8,-509 -125,-697 -76,-108 -253,-214 -436,-268 -161,-46 -291,-38 -374,-58z" style="fill:#6f9580"/>
 </g><g id="Nose-Lizard0">
 <animateTransform additive="sum" attributeName="transform" dur="10" repeatCount="indefinite" type="translate" values="0;0 200;0;0 200;0;0 200;0;0 200;0"/>
  <metadata id="CorelCorpID_400Corel-Layer"/>
  <g>
   <path class="Nose-Lizard0fil100" d="M13012 15166c-94,181 -789,71 -592,-308 197,-378 686,127 592,308z" style="fill:#55c7a6"/>
   <path class="Nose-Lizard0fil100" d="M14352 15166c94,181 789,71 592,-308 -197,-378 -687,127 -592,308z" style="fill:#a8fc91"/>
  </g>
 </g><g id="AccessoryTeddy">
  <metadata id="CorelCorpID_6Corel-Layer"/>
  <g>
   <path class="AccessoryTeddyfil109 AccessoryTeddystr1" d="M7342 24083c-376,367 -734,92 -1120,-302 -385,-395 -508,-899 -275,-1126 233,-228 734,-93 1119,302 385,394 651,759 276,1126z" style="fill:#948f40"/>
   <path class="AccessoryTeddyfil110 AccessoryTeddystr1" d="M3383 24083c376,367 734,92 1119,-302 386,-395 636,-998 402,-1225 -233,-228 -860,6 -1245,401 -386,394 -652,759 -276,1126z" style="fill:#5022b1"/>
   <path class="AccessoryTeddyfil111" d="M5474 22410c640,0 1105,587 1322,1161 112,294 175,1129 -17,1563 -161,363 -464,317 -1305,317 -880,0 -1336,51 -1486,-333 -165,-422 -4,-1305 110,-1600 225,-583 735,-1108 1376,-1108z" style="fill:#6b7e9b"/>
   <path class="AccessoryTeddyfil3" d="M6432 22924c9,-17 270,267 434,621 76,162 114,514 110,860 -3,276 -40,557 -129,759 -163,369 -434,367 -1121,363 -56,0 -117,-1 -252,-1 -140,0 -209,1 -275,1 -735,5 -1129,8 -1281,-382 -73,-189 -86,-458 -68,-730 26,-369 103,-750 178,-924 183,-426 425,-605 441,-589 17,17 -179,238 -301,643 -52,170 -144,525 -168,880 -18,253 -7,500 58,666 115,294 473,291 1141,287 107,-1 221,-2 275,-2 44,0 152,1 252,2 617,3 860,5 984,-275 81,-182 114,-441 117,-699 4,-328 -39,-648 -101,-807 -118,-305 -304,-656 -294,-673z" style="fill:#822c95"/>
   <path class="AccessoryTeddyfil112" d="M5441 22923c422,0 729,302 872,681 358,949 -178,1322 -872,1322 -694,0 -1329,-264 -906,-1357 149,-384 484,-646 906,-646z" style="fill:#e3420e"/>
   <path class="AccessoryTeddyfil113 AccessoryTeddystr1" d="M4534 21091c-308,0 -557,-222 -557,-496 0,-274 272,-592 580,-592 308,0 535,318 535,592 0,274 -250,496 -558,496z" style="fill:#dec58d"/>
   <path class="AccessoryTeddyfil19" d="M4573 20888c-153,0 -277,-111 -277,-247 0,-136 124,-246 277,-246 153,0 277,110 277,246 0,136 -124,247 -277,247z" style="fill:#8577bc"/>
   <path class="AccessoryTeddyfil113 AccessoryTeddystr1" d="M6909 21352c-308,0 -557,-222 -557,-496 0,-274 269,-582 577,-582 308,0 538,308 538,582 0,274 -250,496 -558,496z" style="fill:#4500ee"/>
   <path class="AccessoryTeddyfil19" d="M6845 21167c-158,0 -286,-114 -286,-254 0,-140 128,-253 286,-253 157,0 285,113 285,253 0,140 -128,254 -285,254z" style="fill:#0f6998"/>
   <path class="AccessoryTeddyfil114 AccessoryTeddystr1" d="M5493 20331c787,13 1234,692 1367,1304 132,611 -412,1168 -1605,1043 -1192,-126 -1303,-654 -1157,-1101 145,-446 609,-1260 1395,-1246z" style="fill:#f05cd1"/>
   <path class="AccessoryTeddyfil115" d="M5439 21393c431,45 822,371 786,717 -36,347 -738,429 -971,403 -234,-26 -812,-239 -776,-586 37,-347 530,-579 961,-534z" style="fill:#8b7aeb"/>
   <path class="AccessoryTeddyfil116 AccessoryTeddystr1" d="M3763 24181c419,-194 673,49 808,408 135,359 70,749 -211,880 -281,130 -610,-82 -808,-408 -197,-326 -207,-686 211,-880z" style="fill:#7ab99f"/>
   <path class="AccessoryTeddyfil117" d="M3693 24534c42,-20 64,21 89,74 24,53 42,98 0,118 -42,19 -96,-8 -120,-61 -25,-53 -11,-112 31,-131zm316 152c119,-55 176,-94 246,56 69,151 53,307 -66,362 -119,55 -272,-22 -342,-172 -69,-151 43,-191 162,-246zm68 -337c42,-20 77,19 102,72 24,53 28,100 -13,119 -42,20 -96,-7 -121,-60 -24,-53 -10,-112 32,-131zm-236 27c46,-21 84,16 112,74 27,59 33,118 -14,139 -46,22 -106,-8 -133,-67 -28,-59 -12,-124 35,-146z" style="fill:#2c7b5c"/>
   <path class="AccessoryTeddyfil118 AccessoryTeddystr1" d="M6934 24204c363,182 359,535 184,885 -176,351 -543,522 -820,383 -277,-138 -313,-489 -184,-885 130,-397 457,-565 820,-383z" style="fill:#1c8a70"/>
   <path class="AccessoryTeddyfil119" d="M7009 24559c-41,-22 -66,16 -95,67 -28,51 -49,95 -9,118 40,22 96,-1 125,-52 28,-50 19,-110 -21,-133zm-328 127c-114,-64 -167,-107 -249,38 -81,144 -76,301 38,366 114,64 273,-1 354,-146 81,-144 -28,-193 -143,-258zm-40 -341c-41,-23 -79,13 -108,64 -28,51 -36,98 4,120 40,23 96,0 125,-51 28,-51 19,-111 -21,-133zm233 46c-45,-25 -86,9 -118,65 -31,57 -42,114 3,140 45,25 106,-1 138,-57 32,-57 21,-123 -23,-148z" style="fill:#7193c9"/>
   <path class="AccessoryTeddyfil120" d="M5033 20819c97,34 143,162 102,285 -40,124 -151,196 -248,162 -97,-34 -143,-162 -103,-286 40,-123 152,-196 249,-161z" style="fill:#898c00"/>
   <path class="AccessoryTeddyfil121" d="M5895 20863c103,-9 195,89 205,218 9,128 -67,240 -170,248 -104,9 -195,-88 -205,-217 -10,-129 66,-240 170,-249z" style="fill:#5287c2"/>
   <ellipse class="AccessoryTeddyfil15" rx="135" ry="181" transform="matrix(0.829594 -0.069368 0.0580151 0.767535 5912.39 21095.8)"/>
   <ellipse class="AccessoryTeddyfil15" rx="135" ry="181" transform="matrix(0.786889 0.277973 -0.240129 0.736754 4959.74 21042.4)"/>
   <path class="AccessoryTeddyfil14" d="M5960 20949c18,-10 42,-1 53,20 11,22 6,48 -12,58 -18,11 -34,-2 -45,-24 -12,-21 -14,-43 4,-54z" style="fill:#9b1d97"/>
   <path class="AccessoryTeddyfil14" d="M5059 20926c21,-2 39,16 41,41 3,24 -12,46 -33,48 -21,3 -27,-16 -29,-41 -2,-25 1,-46 21,-48z" style="fill:#f15639"/>
   <path class="AccessoryTeddyfil15" d="M5329 21486c408,22 178,349 -19,330 -197,-19 -388,-353 19,-330z" style="fill:#adaaea"/>
   <path class="AccessoryTeddyfil2 AccessoryTeddystr8" d="M4818 21716c-84,107 -82,346 90,433 173,88 282,-23 385,-209 84,253 255,330 428,286 173,-44 301,-229 176,-443" style="fill:#f6a186"/>
   <line class="AccessoryTeddyfil2 AccessoryTeddystr8" x1="5333" x2="5293" y1="21651" y2="21940"/>
  </g>
 </g><g id="HatBaseballBlue-Medium">
 <animateTransform additive="sum" attributeName="transform" dur="10" repeatCount="indefinite" type="translate" values="0;0 200;0;0 200;0;0 200;0;0 200;0"/>
  <metadata id="CorelCorpID_50Corel-Layer"/>
  <path class="HatBaseballBlue-Mediumfil12" d="M8128 12979c0,0 735,1133 2036,892 1301,-241 2301,-693 3651,-627 2058,101 3012,446 3759,518 572,56 1201,-691 1675,-1060 -1808,-442 -3940,-1257 -5747,-1699 -1615,610 -3760,1366 -5374,1976z" style="fill:#639c38"/>
  <path class="HatBaseballBlue-Mediumfil305 HatBaseballBlue-Mediumstr1" d="M13478 5443c395,-10 720,133 725,319 5,187 -312,346 -708,356 -395,11 -720,-132 -725,-318 -5,-187 312,-346 708,-357z" style="fill:#790c69"/>
  <path class="HatBaseballBlue-Mediumfil306" d="M13488 5822c-1432,37 -3230,615 -4505,1987 -1285,1383 -1915,5062 -1357,4914 1218,-1165 3599,-1794 5994,-1857 2395,-63 4805,441 6083,1541 565,118 -257,-3523 -1613,-4837 -1345,-1303 -3170,-1786 -4602,-1748z" style="fill:#3b4a74"/>
  <path class="HatBaseballBlue-Mediumfil165 HatBaseballBlue-Mediumstr6" d="M12581 5913c-3093,716 -3975,3417 -4148,5902" style="fill:#89dc92"/>
  <path class="HatBaseballBlue-Mediumfil165 HatBaseballBlue-Mediumstr6" d="M14398 5865c3126,553 4148,3204 4451,5677" style="fill:#6c8ae3"/>
  <path class="HatBaseballBlue-Mediumfil165 HatBaseballBlue-Mediumstr7" d="M13676 10317c-146,-1834 -78,-3001 -239,-4504" style="fill:#5a253e"/>
  <path class="HatBaseballBlue-Mediumfil165 HatBaseballBlue-Mediumstr6" d="M13417 10340c-96,-1369 -115,-2765 -243,-3876 -42,-360 -6,-592 48,-632" style="fill:#8e1e23"/>
  <path class="HatBaseballBlue-Mediumfil165 HatBaseballBlue-Mediumstr6" d="M13966 10326c-56,-1371 -193,-2760 -188,-3879 2,-362 -60,-589 -118,-622" style="fill:#81c444"/>
  <path class="HatBaseballBlue-Mediumfil167" d="M10252 6781c-383,252 -941,675 -1269,1028 -1285,1383 -1915,5062 -1357,4914 353,-337 552,-596 1072,-843 -945,524 -284,-3404 1554,-5099z" style="fill:#ba9462"/>
  <path class="HatBaseballBlue-Mediumfil11 HatBaseballBlue-Mediumstr1" d="M13488 5822c-1432,37 -3230,615 -4505,1987 -1285,1383 -1915,5062 -1357,4914 1218,-1165 3599,-1794 5994,-1857 2395,-63 4805,441 6083,1541 565,118 -257,-3523 -1613,-4837 -1345,-1303 -3170,-1786 -4602,-1748z" style="fill:#d74bfa"/>
  <path class="HatBaseballBlue-Mediumfil307 HatBaseballBlue-Mediumstr1" d="M7626 12723c73,263 469,746 750,801 764,150 1817,-1303 5277,-1394 3460,-90 4587,1305 5343,1116 278,-70 648,-573 707,-839 -1791,-2894 -10441,-2667 -12077,316z" style="fill:#df2f0a"/>
  <path class="HatBaseballBlue-Mediumfil12" d="M7626 12723c73,263 469,746 750,801 764,150 1817,-1303 5277,-1394 3460,-90 4587,1305 5343,1116 104,-26 220,-112 329,-224 -606,325 -1967,-1146 -5281,-1222 -2862,-66 -4884,1248 -5655,50 -325,258 -586,550 -763,873z" style="fill:#87c96a"/>
  <path class="HatBaseballBlue-Mediumfil260" d="M18827 11683c419,1306 -2623,-271 -5321,66 1947,-58 3738,498 5066,1133 542,273 934,-136 1007,-447 -246,-337 -453,-544 -752,-752z" style="fill:#91ab0a"/>
 </g></svg>