<svg xmlns="http://www.w3.org/2000/svg" xmlns:xlink="http://www.w3.org/1999/xlink" style="shape-rendering:geometricPrecision; text-rendering:geometricPrecision; image-rendering:optimizeQuality; fill-rule:evenodd; clip-rule:evenodd" version="1.1" viewBox="0 0 29000 29000" xml:space="preserve"><defs><style type="text/css">.HairBack-Lizard2fil14 {fill:black;fill-opacity:0.200000}
.HairBack-Lizard2fil605 {fill:url(#HairBack-Lizard2id822)}
.HairBack-Lizard2str5 {stroke:black;stroke-width:100;stroke-linecap:round;stroke-linejoin:round}
.HairBack-Lizard2fil606 {fill:url(#HairBack-Lizard2id1003)}
.HairBack-Lizard2fil611 {fill:url(#HairBack-Lizard2id102)}
.HairBack-Lizard2str0 {stroke:black;stroke-width:150;stroke-linecap:round;stroke-linejoin:round}
.HairBack-Lizard2fil608 {fill:url(#HairBack-Lizard2id821)}
.HairBack-Lizard2fil609 {fill:url(#HairBack-Lizard2id840)}
.HairBack-Lizard2fil612 {fill:url(#HairBack-Lizard2id295)}
.Tail-Lizard0fil615 {fill:url(#Tail-Lizard0id237)}
.Tail-Lizard0fil616 {fill:url(#Tail-Lizard0id234)}
.Tail-Lizard0fil22 {fill:none}
.Tail-Lizard0str0 {stroke:black;stroke-width:150;stroke-linecap:round;stroke-linejoin:round}
.RightFoot-Lizard0fil636 {fill:url(#RightFoot-Lizard0id220)}
.RightFoot-Lizard0fil32 {fill:black;fill-rule:nonzero}
.RightLeg-Lizard0fil639 {fill:url(#RightLeg-Lizard0id33)}
.RightLeg-Lizard0fil14 {fill:black;fill-opacity:0.200000}
.RightLeg-Lizard0fil32 {fill:black;fill-rule:nonzero}
.LeftFoot-Lizard0fil645 {fill:url(#LeftFoot-Lizard0id444)}
.LeftFoot-Lizard0fil32 {fill:black;fill-rule:nonzero}
.LeftLeg-Lizard0fil648 {fill:url(#LeftLeg-Lizard0id17)}
.LeftLeg-Lizard0fil14 {fill:black;fill-opacity:0.200000}
.LeftLeg-Lizard0fil32 {fill:black;fill-rule:nonzero}
.RightHand-Lizard0fil655 {fill:url(#RightHand-Lizard0id333)}
.RightHand-Lizard0fil14 {fill:black;fill-opacity:0.200000}
.RightHand-Lizard0fil32 {fill:black;fill-rule:nonzero}
.RightPaw-Lizard0fil661 {fill:url(#RightPaw-Lizard0id332)}
.RightPaw-Lizard0fil32 {fill:black;fill-rule:nonzero}
.LeftHand-Lizard0fil664 {fill:url(#LeftHand-Lizard0id879)}
.LeftHand-Lizard0fil14 {fill:black;fill-opacity:0.200000}
.LeftHand-Lizard0fil32 {fill:black;fill-rule:nonzero}
.LeftPaw-Lizard0fil671 {fill:url(#LeftPaw-Lizard0id580)}
.LeftPaw-Lizard0fil32 {fill:black;fill-rule:nonzero}
.Body-Lizard0fil674 {fill:url(#Body-Lizard0id282)}
.Body-Lizard0fil14 {fill:black;fill-opacity:0.200000}
.Body-Lizard0fil32 {fill:black;fill-rule:nonzero}
.Body-Lizard0fil675 {fill:url(#Body-Lizard0id641)}
.Ears-Lizard0fil22 {fill:none}
.Head-Lizard6fil697 {fill:url(#Head-Lizard6id78)}
.Head-Lizard6fil338 {fill:white;fill-opacity:0.501961}
.Head-Lizard6fil698 {fill:url(#Head-Lizard6id512)}
.Head-Lizard6fil699 {fill:url(#Head-Lizard6id380)}
.Head-Lizard6fil688 {fill:url(#Head-Lizard6id1040)}
.Head-Lizard6fil14 {fill:black;fill-opacity:0.200000}
.Head-Lizard6fil32 {fill:black;fill-rule:nonzero}
.Head-Lizard6fil700 {fill:url(#Head-Lizard6id381)}
.Head-Lizard6fil22 {fill:none}
.Head-Lizard6str4 {stroke:black;stroke-width:150}
.Mouth-Lizard2fil711 {fill:url(#Mouth-Lizard2id133)}
.Mouth-Lizard2fil22 {fill:none}
.Mouth-Lizard2str0 {stroke:black;stroke-width:150;stroke-linecap:round;stroke-linejoin:round}
.Mouth-Lizard2fil712 {fill:url(#Mouth-Lizard2id998)}
.Mouth-Lizard2fil713 {fill:url(#Mouth-Lizard2id981)}
.Eyes-Lizard6fil14 {fill:black;fill-opacity:0.200000}
.Eyes-Lizard6fil764 {fill:url(#Eyes-Lizard6id65)}
.Eyes-Lizard6fil765 {fill:url(#Eyes-Lizard6id14)}
.Eyes-Lizard6fil766 {fill:url(#Eyes-Lizard6id689)}
.Eyes-Lizard6fil152 {fill:white}
.Eyes-Lizard6fil740 {fill:black;fill-opacity:0.400000}
.Eyes-Lizard6fil767 {fill:url(#Eyes-Lizard6id117)}
.Eyes-Lizard6fil768 {fill:url(#Eyes-Lizard6id4)}
.Eyes-Lizard6fil769 {fill:url(#Eyes-Lizard6id702)}
.Eyes-Lizard6fil22 {fill:none}
.Eyes-Lizard6str0 {stroke:black;stroke-width:150;stroke-linecap:round;stroke-linejoin:round}
.Moustache-Lizard0fil22 {fill:none}
.Nose-Lizard0fil100 {fill:black}
.Hair-Lizard4fil100 {fill:black}
.Hair-Lizard4fil800 {fill:url(#Hair-Lizard4id716)}
.Hair-Lizard4fil32 {fill:black;fill-rule:nonzero}
.Hair-Lizard4fil801 {fill:url(#Hair-Lizard4id374)}
.Hair-Lizard4fil14 {fill:black;fill-opacity:0.200000}
.Hair-Lizard4fil802 {fill:url(#Hair-Lizard4id567)}
.Hair-Lizard4fil803 {fill:url(#Hair-Lizard4id1030)}
.Hair-Lizard4fil799 {fill:#2B2A29;fill-rule:nonzero}
.Hair-Lizard4fil804 {fill:url(#Hair-Lizard4id696)}
.Hair-Lizard4fil805 {fill:url(#Hair-Lizard4id259)}
</style><linearGradient gradientUnits="objectBoundingBox" id="HairBack-Lizard2id822" x1="27.0587%" x2="72.9413%" xlink:href="#HairBack-Lizard2id78" y1="78.7196%" y2="21.2781%">
  </linearGradient><linearGradient gradientUnits="objectBoundingBox" id="HairBack-Lizard2id1003" x1="45.9175%" x2="54.0825%" xlink:href="#HairBack-Lizard2id78" y1="90.056%" y2="9.94402%">
  </linearGradient><linearGradient gradientUnits="userSpaceOnUse" id="HairBack-Lizard2id102" x1="10942" x2="8559.36" y1="15613.5" y2="20378.7">
   <stop offset="0" style="stop-opacity:1; stop-color:#6687e9"/>
   <stop offset="1" style="stop-opacity:1; stop-color:#fff0e1"/>
  </linearGradient><linearGradient gradientUnits="objectBoundingBox" id="HairBack-Lizard2id821" x1="72.9413%" x2="27.0587%" xlink:href="#HairBack-Lizard2id78" y1="78.7196%" y2="21.2781%">
  </linearGradient><linearGradient gradientUnits="objectBoundingBox" id="HairBack-Lizard2id840" x1="54.0825%" x2="45.9175%" xlink:href="#HairBack-Lizard2id78" y1="90.056%" y2="9.94402%">
  </linearGradient><linearGradient gradientUnits="userSpaceOnUse" id="HairBack-Lizard2id295" x1="16381.1" x2="18763.7" xlink:href="#HairBack-Lizard2id102" y1="15613.5" y2="20378.7">
  </linearGradient><linearGradient gradientUnits="objectBoundingBox" id="Tail-Lizard0id237" x1="39.9431%" x2="60.0569%" y1="102.625%" y2="0%">
   <stop offset="0" style="stop-opacity:1; stop-color:#4c69c2"/>
   <stop offset="0.411765" style="stop-opacity:1; stop-color:#6687e9"/>
   <stop offset="1" style="stop-opacity:1; stop-color:#96b1ff"/>
  </linearGradient><linearGradient gradientUnits="objectBoundingBox" id="Tail-Lizard0id234" x1="0%" x2="100%" xlink:href="#Tail-Lizard0id133" y1="50.0001%" y2="50.0001%">
  </linearGradient><linearGradient gradientUnits="userSpaceOnUse" id="RightFoot-Lizard0id220" x1="16306.2" x2="16825.8" y1="23871.7" y2="25810.9">
   <stop offset="0" style="stop-opacity:1; stop-color:#96b1ff"/>
   <stop offset="0.101961" style="stop-opacity:1; stop-color:#96b1ff"/>
   <stop offset="1" style="stop-opacity:1; stop-color:#fff0e1"/>
  </linearGradient><linearGradient gradientUnits="userSpaceOnUse" id="RightLeg-Lizard0id33" x1="15490.3" x2="15490.3" xlink:href="#RightLeg-Lizard0id17" y1="24310" y2="21166.6">
  </linearGradient><linearGradient gradientUnits="userSpaceOnUse" id="LeftFoot-Lizard0id444" x1="11057.6" x2="10538" xlink:href="#LeftFoot-Lizard0id220" y1="23871.7" y2="25810.9">
  </linearGradient><linearGradient gradientUnits="userSpaceOnUse" id="LeftLeg-Lizard0id17" x1="11873.5" x2="11873.5" y1="24310" y2="21166.6">
   <stop offset="0" style="stop-opacity:1; stop-color:#96b1ff"/>
   <stop offset="0.431373" style="stop-opacity:1; stop-color:#96b1ff"/>
   <stop offset="1" style="stop-opacity:1; stop-color:#6687e9"/>
  </linearGradient><linearGradient gradientUnits="objectBoundingBox" id="RightHand-Lizard0id333" x1="39.0063%" x2="60.9934%" y1="1.86633%" y2="98.1334%">
   <stop offset="0" style="stop-opacity:1; stop-color:#4c69c2"/>
   <stop offset="0.788235" style="stop-opacity:1; stop-color:#6687e9"/>
   <stop offset="1" style="stop-opacity:1; stop-color:#6687e9"/>
  </linearGradient><linearGradient gradientUnits="userSpaceOnUse" id="RightPaw-Lizard0id332" x1="17833.9" x2="18955.5" y1="19888.5" y2="21831.2">
   <stop offset="0" style="stop-opacity:1; stop-color:#6687e9"/>
   <stop offset="0.2" style="stop-opacity:1; stop-color:#6687e9"/>
   <stop offset="1" style="stop-opacity:1; stop-color:#96b1ff"/>
  </linearGradient><linearGradient gradientUnits="userSpaceOnUse" id="LeftHand-Lizard0id879" x1="10916.9" x2="9907.76" xlink:href="#LeftHand-Lizard0id333" y1="17558.9" y2="20732.9">
  </linearGradient><linearGradient gradientUnits="userSpaceOnUse" id="LeftPaw-Lizard0id580" x1="9529.97" x2="8408.35" xlink:href="#LeftPaw-Lizard0id332" y1="19888.5" y2="21831.2">
  </linearGradient><linearGradient gradientUnits="objectBoundingBox" id="Body-Lizard0id282" x1="50%" x2="50%" y1="0%" y2="100%">
   <stop offset="0" style="stop-opacity:1; stop-color:#4c69c2"/>
   <stop offset="0.501961" style="stop-opacity:1; stop-color:#6687e9"/>
   <stop offset="1" style="stop-opacity:1; stop-color:#96b1ff"/>
  </linearGradient><linearGradient gradientUnits="userSpaceOnUse" id="Body-Lizard0id641" x1="13681.9" x2="13681.9" y1="22882.1" y2="17688.3">
   <stop offset="0" style="stop-opacity:1; stop-color:#fff0e1"/>
   <stop offset="0.65098" style="stop-opacity:1; stop-color:#f2dec9"/>
   <stop offset="1" style="stop-opacity:1; stop-color:#f2dec9"/>
  </linearGradient><linearGradient gradientUnits="objectBoundingBox" id="Head-Lizard6id78" x1="95.8017%" x2="4.19832%" y1="69.3451%" y2="30.6549%">
   <stop offset="0" style="stop-opacity:1; stop-color:#E0D0BF"/>
   <stop offset="1" style="stop-opacity:1; stop-color:#B5987B"/>
  </linearGradient><linearGradient gradientUnits="objectBoundingBox" id="Head-Lizard6id512" x1="4.19832%" x2="95.8017%" xlink:href="#Head-Lizard6id78" y1="69.3451%" y2="30.6549%">
  </linearGradient><linearGradient gradientUnits="userSpaceOnUse" id="Head-Lizard6id380" x1="13681.9" x2="13681.9" y1="17772.9" y2="7794.34">
   <stop offset="0" style="stop-opacity:1; stop-color:#4c69c2"/>
   <stop offset="0.219608" style="stop-opacity:1; stop-color:#6687e9"/>
   <stop offset="0.670588" style="stop-opacity:1; stop-color:#6687e9"/>
   <stop offset="1" style="stop-opacity:1; stop-color:#96b1ff"/>
  </linearGradient><radialGradient cx="13653.8" cy="14622.1" fx="13653.8" fy="14622.1" gradientTransform="matrix(1 -0 -0 0.8 0 2924)" gradientUnits="userSpaceOnUse" id="Head-Lizard6id1040" r="3500">
   <stop offset="0" style="stop-opacity:1; stop-color:#00f0f0"/>
   <stop offset="1" style="stop-opacity:1; stop-color:#6687e9"/>
  </radialGradient><linearGradient gradientUnits="userSpaceOnUse" id="Head-Lizard6id381" x1="13611.4" x2="13611.4" xlink:href="#Head-Lizard6id49" y1="11972.2" y2="9256.08">
  </linearGradient><linearGradient gradientUnits="userSpaceOnUse" id="Mouth-Lizard2id133" x1="13681.9" x2="13681.9" y1="17844" y2="15520.7">
   <stop offset="0" style="stop-opacity:1; stop-color:#f2dec9"/>
   <stop offset="1" style="stop-opacity:1; stop-color:#fff0e1"/>
  </linearGradient><linearGradient gradientUnits="userSpaceOnUse" id="Mouth-Lizard2id998" x1="11543.1" x2="11293.3" xlink:href="#Mouth-Lizard2id981" y1="15493" y2="16524.3">
  </linearGradient><linearGradient gradientUnits="userSpaceOnUse" id="Eyes-Lizard6id65" x1="10105.7" x2="9931.95" xlink:href="#Eyes-Lizard6id0" y1="14962.5" y2="11648">
  </linearGradient><linearGradient gradientUnits="userSpaceOnUse" id="Eyes-Lizard6id14" x1="10018.8" x2="10018.8" xlink:href="#Eyes-Lizard6id4" y1="14939.8" y2="11666.7">
  </linearGradient><linearGradient gradientUnits="userSpaceOnUse" id="Eyes-Lizard6id689" x1="10468.6" x2="10468.6" xlink:href="#Eyes-Lizard6id384" y1="11666.5" y2="14456.7">
  </linearGradient><linearGradient gradientUnits="userSpaceOnUse" id="Eyes-Lizard6id117" x1="17258.2" x2="17431.9" xlink:href="#Eyes-Lizard6id0" y1="14962.5" y2="11648">
  </linearGradient><linearGradient gradientUnits="userSpaceOnUse" id="Eyes-Lizard6id702" x1="16976.8" x2="16976.8" xlink:href="#Eyes-Lizard6id384" y1="11666.5" y2="14456.7">
  </linearGradient><linearGradient gradientUnits="userSpaceOnUse" id="Hair-Lizard4id716" x1="10270.5" x2="12250.4" xlink:href="#Hair-Lizard4id567" y1="9771.05" y2="9905.57">
  </linearGradient><linearGradient gradientUnits="userSpaceOnUse" id="Hair-Lizard4id374" x1="11139.4" x2="11441.1" xlink:href="#Hair-Lizard4id259" y1="9475.04" y2="6036.02">
  </linearGradient><linearGradient gradientUnits="userSpaceOnUse" id="Hair-Lizard4id1030" x1="13681.9" x2="13681.9" y1="12046" y2="8544.64">
   <stop offset="0" style="stop-opacity:1; stop-color:#6687e9"/>
   <stop offset="1" style="stop-opacity:1; stop-color:#00f0f0"/>
  </linearGradient><linearGradient gradientUnits="userSpaceOnUse" id="Hair-Lizard4id696" x1="15080.2" x2="17126.6" xlink:href="#Hair-Lizard4id567" y1="9838.3" y2="9838.3">
  </linearGradient><linearGradient gradientUnits="objectBoundingBox" id="HairBack-Lizard2id78" x1="95.8017%" x2="4.19832%" y1="69.3451%" y2="30.6549%">
   <stop offset="0" style="stop-opacity:1; stop-color:#E0D0BF"/>
   <stop offset="1" style="stop-opacity:1; stop-color:#B5987B"/>
  </linearGradient><linearGradient gradientUnits="userSpaceOnUse" id="Tail-Lizard0id133" x1="13681.9" x2="13681.9" y1="17844" y2="15520.7">
   <stop offset="0" style="stop-opacity:1; stop-color:#f2dec9"/>
   <stop offset="1" style="stop-opacity:1; stop-color:#fff0e1"/>
  </linearGradient><linearGradient gradientUnits="userSpaceOnUse" id="RightLeg-Lizard0id17" x1="11873.5" x2="11873.5" y1="24310" y2="21166.6">
   <stop offset="0" style="stop-opacity:1; stop-color:#96b1ff"/>
   <stop offset="0.431373" style="stop-opacity:1; stop-color:#96b1ff"/>
   <stop offset="1" style="stop-opacity:1; stop-color:#6687e9"/>
  </linearGradient><linearGradient gradientUnits="userSpaceOnUse" id="LeftFoot-Lizard0id220" x1="16306.2" x2="16825.8" y1="23871.7" y2="25810.9">
   <stop offset="0" style="stop-opacity:1; stop-color:#96b1ff"/>
   <stop offset="0.101961" style="stop-opacity:1; stop-color:#96b1ff"/>
   <stop offset="1" style="stop-opacity:1; stop-color:#fff0e1"/>
  </linearGradient><linearGradient gradientUnits="objectBoundingBox" id="LeftHand-Lizard0id333" x1="39.0063%" x2="60.9934%" y1="1.86633%" y2="98.1334%">
   <stop offset="0" style="stop-opacity:1; stop-color:#4c69c2"/>
   <stop offset="0.788235" style="stop-opacity:1; stop-color:#6687e9"/>
   <stop offset="1" style="stop-opacity:1; stop-color:#6687e9"/>
  </linearGradient><linearGradient gradientUnits="userSpaceOnUse" id="LeftPaw-Lizard0id332" x1="17833.9" x2="18955.5" y1="19888.5" y2="21831.2">
   <stop offset="0" style="stop-opacity:1; stop-color:#6687e9"/>
   <stop offset="0.2" style="stop-opacity:1; stop-color:#6687e9"/>
   <stop offset="1" style="stop-opacity:1; stop-color:#96b1ff"/>
  </linearGradient><linearGradient gradientUnits="userSpaceOnUse" id="Head-Lizard6id49" x1="13715.8" x2="13715.8" y1="6802.99" y2="8218.57">
   <stop offset="0" style="stop-opacity:1; stop-color:#00d6d6"/>
   <stop offset="1" style="stop-opacity:1; stop-color:#00f0f0"/>
  </linearGradient><linearGradient gradientUnits="userSpaceOnUse" id="Mouth-Lizard2id981" x1="15820.7" x2="16070.5" y1="15493" y2="16524.3">
   <stop offset="0" style="stop-opacity:1; stop-color:#B5B5B5"/>
   <stop offset="0.619608" style="stop-opacity:1; stop-color:white"/>
   <stop offset="1" style="stop-opacity:1; stop-color:white"/>
  </linearGradient><linearGradient gradientUnits="objectBoundingBox" id="Eyes-Lizard6id0" x1="50.0001%" x2="50.0001%" y1="100%" y2="0.000230848%">
   <stop offset="0" style="stop-opacity:1; stop-color:#2a4f80"/>
   <stop offset="0.388235" style="stop-opacity:1; stop-color:#2a4f80"/>
   <stop offset="1" style="stop-opacity:1; stop-color:black"/>
  </linearGradient><linearGradient gradientUnits="userSpaceOnUse" id="Eyes-Lizard6id4" x1="17345" x2="17345" y1="14939.8" y2="11666.7">
   <stop offset="0" style="stop-opacity:1; stop-color:#2a4f80"/>
   <stop offset="0.168627" style="stop-opacity:1; stop-color:#94c3ff"/>
   <stop offset="0.541176" style="stop-opacity:1; stop-color:#2a4f80"/>
   <stop offset="1" style="stop-opacity:1; stop-color:black"/>
  </linearGradient><linearGradient gradientUnits="userSpaceOnUse" id="Eyes-Lizard6id384" x1="16417.8" x2="16417.8" y1="11784.3" y2="14068.5">
   <stop offset="0" style="stop-opacity:1; stop-color:black"/>
   <stop offset="0.45" style="stop-opacity:1; stop-color:black"/>
   <stop offset="1" style="stop-opacity:1; stop-color:#1d3c66"/>
  </linearGradient><linearGradient gradientUnits="userSpaceOnUse" id="Hair-Lizard4id567" x1="12448.6" x2="14915.2" y1="11514.7" y2="11514.7">
   <stop offset="0" style="stop-opacity:1; stop-color:#6687e9"/>
   <stop offset="1" style="stop-opacity:1; stop-color:#96b1ff"/>
  </linearGradient><linearGradient gradientUnits="userSpaceOnUse" id="Hair-Lizard4id259" x1="16224.4" x2="15922.7" y1="9475.04" y2="6036.02">
   <stop offset="0" style="stop-opacity:1; stop-color:#96b1ff"/>
   <stop offset="1" style="stop-opacity:1; stop-color:#00f0f0"/>
  </linearGradient></defs><g id="HairBack-Lizard2">
 <animateTransform additive="sum" attributeName="transform" dur="10" repeatCount="indefinite" type="translate" values="0;0 200;0;0 200;0;0 200;0;0 200;0"/>
  <metadata id="CorelCorpID_314Corel-Layer"/>
  <path class="HairBack-Lizard2fil605 HairBack-Lizard2str5" d="M6894 19094c-46,79 -70,407 22,435 93,29 160,-205 256,-285 -73,-84 -208,-136 -278,-150z" style="fill:#f2c446"/>
  <path class="HairBack-Lizard2fil606 HairBack-Lizard2str5" d="M8583 20396c-17,90 70,407 166,403 97,-5 90,-247 146,-355 -96,-55 -242,-58 -312,-48z" style="fill:#f2e344"/>
  <path class="HairBack-Lizard2fil611 HairBack-Lizard2str0" d="M8693 15387c-686,786 -1626,2252 -1774,3785 64,4 140,45 183,97 1367,-1133 1226,355 1517,1152 64,-4 186,28 232,54 876,-1799 1701,-1719 2140,130 146,-1759 1446,-1979 1592,-3738 -1297,-493 -2594,-986 -3890,-1480z" style="fill:#967d48"/>
  <path class="HairBack-Lizard2fil14" d="M8109 16235c-344,498 -1145,1831 -1159,2886 0,44 37,4 39,48 232,-986 893,-2127 1626,-1754 379,193 -536,1366 60,3009 -250,-3126 1616,-2488 1546,-1220 239,118 591,555 752,1345 49,-1052 1276,-2360 1410,-2809 -167,-651 -3612,-1344 -4274,-1505z" style="fill:#e33db9"/>
  <path class="HairBack-Lizard2fil608 HairBack-Lizard2str5" d="M20429 19094c46,79 70,407 -22,435 -93,29 -160,-205 -256,-285 73,-84 209,-136 278,-150z" style="fill:#a3689d"/>
  <path class="HairBack-Lizard2fil609 HairBack-Lizard2str5" d="M18740 20396c17,90 -70,407 -166,403 -97,-5 -90,-247 -146,-355 96,-55 242,-58 312,-48z" style="fill:#068026"/>
  <path class="HairBack-Lizard2fil612 HairBack-Lizard2str0" d="M18630 15387c686,786 1626,2252 1774,3785 -64,4 -140,45 -183,97 -1367,-1133 -1226,355 -1517,1152 -64,-4 -186,28 -232,54 -876,-1799 -1700,-1719 -2140,130 -146,-1759 -1446,-1979 -1592,-3738 1297,-493 2594,-986 3890,-1480z" style="fill:#36d226"/>
  <path class="HairBack-Lizard2fil14" d="M19214 16235c344,498 1145,1831 1159,2886 0,44 -37,4 -39,48 -232,-986 -893,-2127 -1626,-1754 -379,193 536,1366 -60,3009 250,-3126 -1616,-2488 -1546,-1220 -239,118 -591,555 -752,1345 -49,-1052 -1276,-2360 -1409,-2809 166,-651 3611,-1344 4273,-1505z" style="fill:#22e8b5"/>
 </g><g id="Tail-Lizard0">
  <metadata id="CorelCorpID_316Corel-Layer"/>
  <path class="Tail-Lizard0fil615" d="M12061 22242c2116,2822 7296,2969 9617,590 1591,-1631 1091,-4161 -213,-5311 -752,-663 -1213,-660 -1292,-512 -87,162 390,517 660,1024 346,647 369,2150 -746,2824 -2078,1256 -3858,-232 -4441,-1087l-3585 2472z" style="fill:#fe279c"/>
  <path class="Tail-Lizard0fil616" d="M12061 22242c2116,2822 7296,2969 9617,590 945,-969 1152,-2256 891,-3382 180,1371 -1241,4097 -4509,3848 -2233,-171 -3185,-1751 -3565,-2734l-2434 1678z" style="fill:#112dcd"/>
  <path class="Tail-Lizard0fil22 Tail-Lizard0str0" d="M12061 22242c2116,2822 7296,2969 9617,590 1591,-1631 1091,-4161 -213,-5311 -752,-663 -1213,-660 -1292,-512 -87,162 390,517 660,1024 346,647 369,2150 -746,2824 -2078,1256 -3858,-232 -4441,-1087l-3585 2472z" style="fill:#db489d"/>
 </g><g id="RightFoot-Lizard0">
  <metadata id="CorelCorpID_327Corel-Layer"/>
  <path class="RightFoot-Lizard0fil636" d="M16896 24005c177,194 630,99 971,213 299,100 377,345 252,488 -126,145 -306,76 -460,51 -150,-23 -303,-85 -424,-49 177,63 791,364 618,803 -89,226 -408,214 -663,10 -311,-249 -694,-450 -946,-419 -343,42 -190,563 -583,572 -600,14 -308,-788 -664,-1201 -43,-70 -57,-204 -18,-292 582,-77 1506,161 1917,-176z" style="fill:#64ca39"/>
  <path class="RightFoot-Lizard0fil32" d="M16951 23955c84,92 268,105 469,119 229,16 506,34 687,193 110,95 176,241 128,385 -96,287 -393,216 -620,174 44,31 88,65 128,103 260,243 321,768 -102,820 -176,21 -363,-61 -498,-170 -204,-163 -618,-436 -891,-403 -276,34 -138,562 -589,572 -420,10 -453,-299 -522,-643 -42,-206 -130,-417 -197,-588 -20,-52 -8,-108 45,-121 50,-7 100,40 130,121 53,141 128,373 169,566 59,275 83,523 372,516 323,-7 175,-523 575,-571 322,-40 760,241 1002,435 102,82 251,153 386,137 285,-35 179,-411 17,-562 -187,-176 -460,-252 -477,-309 -12,-39 11,-81 51,-92 130,-39 386,31 538,62 117,23 292,53 342,-95 28,-85 -22,-170 -85,-224 -149,-130 -411,-143 -600,-157 -211,-15 -408,-29 -535,-135 31,-62 55,-97 77,-133z" style="fill:#115d95"/>
 </g><g id="LeftFoot-Lizard0">
  <metadata id="CorelCorpID_336Corel-Layer"/>
  <path class="LeftFoot-Lizard0fil645" d="M10468 24005c-177,194 -630,99 -971,213 -299,100 -377,345 -253,488 127,145 307,76 460,51 151,-23 304,-85 425,-49 -177,63 -791,364 -619,803 89,226 409,214 664,10 311,-249 694,-450 946,-419 343,42 190,563 583,572 600,14 308,-788 663,-1201 44,-70 58,-204 19,-292 -583,-77 -1506,161 -1917,-176z" style="fill:#5f2821"/>
  <path class="LeftFoot-Lizard0fil32" d="M10412 23955c-83,92 -268,105 -468,119 -229,16 -506,34 -688,193 -109,95 -176,241 -128,385 96,287 394,216 620,174 -44,31 -87,65 -127,103 -260,243 -321,768 102,820 176,21 363,-61 498,-170 203,-163 618,-436 891,-403 276,34 138,562 589,572 419,10 452,-299 522,-643 42,-206 130,-417 196,-588 21,-52 9,-108 -45,-121 -50,-7 -99,40 -130,121 -52,141 -127,373 -168,566 -59,275 -83,523 -372,516 -323,-7 -175,-523 -575,-571 -322,-40 -761,241 -1002,435 -103,82 -251,153 -386,137 -285,-35 -179,-411 -17,-562 187,-176 460,-252 477,-309 12,-39 -11,-81 -51,-92 -130,-39 -386,31 -538,62 -118,23 -292,53 -342,-95 -28,-85 22,-170 85,-224 149,-130 411,-143 600,-157 211,-15 408,-29 535,-135 -31,-62 -55,-97 -78,-133z" style="fill:#bbc2df"/>
 </g><g id="RightLeg-Lizard0">
  <metadata id="CorelCorpID_330Corel-Layer"/>
  <path class="RightLeg-Lizard0fil639" d="M13682 23167c428,0 1386,122 1321,776 -5,52 -27,166 -34,307 456,84 1272,76 1625,0 415,-193 703,-872 705,-1316 2,-661 -392,-1250 -712,-1596 -352,-381 -2030,-8 -2905,-8l0 1837z" style="fill:#a64c17"/>
  <path class="RightLeg-Lizard0fil14" d="M17192 23398c67,-149 106,-306 107,-464 2,-776 -541,-1452 -869,-1753 -19,257 -41,545 -78,871 387,-414 947,878 840,1346z" style="fill:#5ba2b2"/>
  <path class="RightLeg-Lizard0fil32" d="M15042 24729c32,73 153,5 117,-101 -61,-182 -128,-334 -105,-448 91,-447 -112,-807 -541,-972 -208,-80 -478,-118 -831,-118l0 150c335,0 588,35 777,108 361,138 514,417 435,791 -35,237 15,295 148,590zm1242 -3575c175,139 478,451 693,860 144,273 248,587 247,920 -1,533 -241,1011 -637,1322 634,-260 785,-833 786,-1322 2,-360 -110,-698 -263,-990 -227,-429 -547,-760 -734,-907 -34,-25 -144,-95 -178,-56 -36,41 10,108 86,173z" style="fill:#3ca4a7"/>
 </g><g id="LeftLeg-Lizard0">
  <metadata id="CorelCorpID_339Corel-Layer"/>
  <path class="LeftLeg-Lizard0fil648" d="M13682 23167c-428,0 -1386,122 -1321,776 5,52 26,166 34,307 -456,84 -1272,76 -1625,0 -415,-193 -704,-872 -705,-1316 -2,-661 392,-1250 712,-1596 352,-381 2030,-8 2905,-8l0 1837z" style="fill:#fa6c0f"/>
  <path class="LeftLeg-Lizard0fil14" d="M10172 23398c-67,-149 -106,-306 -107,-464 -2,-776 540,-1452 869,-1753 19,257 41,545 78,871 -388,-414 -947,878 -840,1346z" style="fill:#9cc6d9"/>
  <path class="LeftLeg-Lizard0fil32" d="M12322 24729c-33,73 -153,5 -118,-101 61,-182 129,-334 106,-448 -91,-447 111,-807 541,-972 208,-80 478,-118 831,-118l0 150c-335,0 -588,35 -777,108 -361,138 -514,417 -435,791 35,237 -15,295 -148,590zm-1242 -3575c-175,139 -478,451 -694,860 -143,273 -247,587 -246,920 1,533 241,1011 637,1322 -634,-260 -785,-833 -787,-1322 -1,-360 110,-698 264,-990 226,-429 547,-760 734,-907 34,-25 144,-95 178,-56 36,41 -10,108 -86,173z" style="fill:#7f9be0"/>
 </g><g id="RightHand-Lizard0">
 <animateTransform additive="sum" attributeName="transform" dur="10" repeatCount="indefinite" type="translate" values="0;0 200;0;0 200;0;0 200;0;0 200;0"/>
  <metadata id="CorelCorpID_345Corel-Layer"/>
  <path class="RightHand-Lizard0fil655" d="M15421 17507c1371,-107 2467,1307 3017,2266 289,504 -937,1282 -1053,928 -133,-408 -583,-502 -1005,-495 -145,-773 -770,-2364 -959,-2699z" style="fill:#010046"/>
  <path class="RightHand-Lizard0fil14" d="M17408 20600c-414,-340 -751,-361 -1105,-375l143 -846c440,204 921,896 962,1221z" style="fill:#bcfb10"/>
  <path class="RightHand-Lizard0fil32" d="M16155 17514c-40,-12 -81,11 -93,50 -12,40 11,82 50,94 431,128 825,397 1169,724 463,440 838,982 1093,1427 50,87 177,12 129,-73 -261,-455 -643,-1010 -1119,-1462 -360,-342 -773,-624 -1229,-760zm1159 3210c13,39 55,61 95,48 39,-13 52,-64 39,-103 -48,-207 -228,-359 -429,-441 -192,-78 -421,-101 -641,-97 -41,1 -74,35 -73,76 1,41 35,74 76,74 202,-4 410,17 582,86 162,66 292,177 351,357z" style="fill:#c5dc1b"/>
 </g><g id="LeftHand-Lizard0">
 <animateTransform additive="sum" attributeName="transform" dur="10" repeatCount="indefinite" type="translate" values="0;0 200;0;0 200;0;0 200;0;0 200;0"/>
  <metadata id="CorelCorpID_354Corel-Layer"/>
  <path class="LeftHand-Lizard0fil664" d="M11943 17507c-1371,-107 -2467,1307 -3017,2266 -289,504 937,1282 1052,928 134,-408 584,-502 1006,-495 145,-773 770,-2364 959,-2699z" style="fill:#065637"/>
  <path class="LeftHand-Lizard0fil14" d="M9956 20600c414,-340 751,-361 1105,-375l-143 -846c-440,204 -921,896 -962,1221z" style="fill:#07010f"/>
  <path class="LeftHand-Lizard0fil32" d="M11209 17514c39,-12 81,11 93,50 12,40 -11,82 -50,94 -431,128 -825,397 -1169,724 -463,440 -838,982 -1093,1427 -50,87 -178,12 -129,-73 261,-455 643,-1010 1119,-1462 360,-342 773,-624 1229,-760zm-1159 3210c-13,39 -55,61 -95,48 -39,-13 -52,-64 -39,-103 48,-207 228,-359 429,-441 192,-78 420,-101 640,-97 42,1 75,35 74,76 -1,41 -35,74 -76,74 -202,-4 -410,17 -582,86 -162,66 -293,177 -351,357z" style="fill:#e19f43"/>
 </g><g id="Body-Lizard0">
 <animateTransform additive="sum" attributeName="transform" dur="10" repeatCount="indefinite" type="translate" values="0;0 200;0;0 200;0;0 200;0;0 200;0"/>
  <metadata id="CorelCorpID_363Corel-Layer"/>
  <path class="Body-Lizard0fil674" d="M13682 23042c-1548,0 -2752,-290 -2993,-1956 -146,-1007 384,-2270 980,-3398 748,64 1420,73 2013,73 593,0 1265,-9 2013,-73 596,1128 1126,2391 980,3398 -242,1666 -1445,1956 -2993,1956z" style="fill:#74bc3d"/>
  <path class="Body-Lizard0fil14" d="M11837 22758c-601,-267 -1017,-766 -1148,-1672 -75,-519 29,-1106 229,-1707 -223,2177 509,3077 919,3379z" style="fill:#e509fb"/>
  <path class="Body-Lizard0fil32" d="M11012 22052c-250,-321 -348,-641 -397,-955 -59,-377 -24,-998 184,-1319 -78,420 -93,905 -36,1298 50,341 104,571 249,976z" style="fill:#f0acbe"/>
  <path class="Body-Lizard0fil675" d="M13682 17761c-911,0 -1281,-25 -2013,-73 238,210 -139,1257 -225,1859 -246,1711 107,3335 2238,3335 2131,0 2484,-1624 2238,-3335 -86,-602 -463,-1649 -225,-1859 -732,48 -1102,73 -2013,73z" style="fill:#7bbca9"/>
  <path class="Body-Lizard0fil14" d="M15527 22758c601,-267 1016,-766 1148,-1672 75,-519 -29,-1106 -229,-1707 223,2177 -509,3077 -919,3379z" style="fill:#c7bacc"/>
  <path class="Body-Lizard0fil32" d="M16352 22052c250,-321 347,-641 397,-955 59,-377 24,-998 -184,-1319 78,420 93,905 36,1298 -50,341 -104,571 -249,976z" style="fill:#a22b58"/>
 </g><g id="RightPaw-Lizard0">
 <animateTransform additive="sum" attributeName="transform" dur="10" repeatCount="indefinite" type="translate" values="0;0 200;0;0 200;0;0 200;0;0 200;0"/>
  <metadata id="CorelCorpID_351Corel-Layer"/>
  <path class="RightPaw-Lizard0fil661" d="M18407 19719c160,284 636,568 871,846 165,195 249,575 80,649 -149,66 -234,-108 -348,-218 -112,-108 -200,-191 -255,-121 94,89 123,234 200,476 89,279 3,682 -262,648 -142,-19 -126,-223 -244,-454 -92,-182 -171,-298 -384,-304 -138,-4 -217,58 -274,139 -100,142 -35,313 -193,347 -194,42 -272,-288 -250,-544 21,-247 62,-507 -9,-582 605,-42 1153,-458 1068,-882z" style="fill:#3496d9"/>
  <path class="RightPaw-Lizard0fil32" d="M18467 19678c-21,-36 -66,-49 -102,-28 -36,20 -47,64 -27,100 13,23 28,49 44,71 107,145 280,276 455,408 150,114 301,228 399,344 84,99 164,261 169,392 2,54 -10,100 -40,126 -68,57 -155,5 -221,-85 -68,-94 -155,-212 -277,-234 -166,-31 -205,68 -150,146 72,103 161,338 196,566 16,103 19,202 2,282 -15,68 -43,121 -91,144 -30,16 -70,21 -122,14 -42,-5 -62,-72 -91,-165 -23,-73 -49,-158 -95,-248 -50,-98 -96,-179 -163,-239 -71,-65 -159,-102 -286,-106 -84,-3 -151,16 -206,47 -56,32 -97,75 -131,124 -50,70 -65,141 -78,204 -12,56 -22,104 -68,113 -16,3 -30,4 -42,3 -27,-2 -48,-16 -64,-38 -21,-29 -36,-71 -46,-120 -19,-94 -18,-208 -9,-310 5,-64 12,-117 19,-167 23,-169 45,-290 -27,-448 -17,-38 -66,-65 -103,-48 -38,17 -55,61 -38,99 54,119 39,232 20,377 -8,55 -16,114 -21,175 -9,113 -10,242 12,351 14,69 37,132 73,180 41,56 98,92 172,98 26,2 54,1 83,-5 143,-29 162,-120 185,-229 11,-49 22,-104 54,-149 23,-32 49,-61 82,-80 33,-18 75,-29 129,-28 86,3 144,27 189,67 49,45 88,113 130,197 41,80 65,157 86,224 45,147 78,252 215,270 83,10 152,-1 208,-29 93,-47 147,-136 170,-247 21,-99 19,-216 0,-336 -28,-188 -97,-388 -171,-523 42,11 114,93 156,151 101,141 269,235 415,116 71,-58 97,-147 93,-245 -6,-166 -98,-358 -204,-484 -109,-129 -266,-248 -423,-366 -189,-144 -378,-287 -460,-432z" style="fill:#adea15"/>
 </g><g id="LeftPaw-Lizard0">
 <animateTransform additive="sum" attributeName="transform" dur="10" repeatCount="indefinite" type="translate" values="0;0 200;0;0 200;0;0 200;0;0 200;0"/>
  <metadata id="CorelCorpID_360Corel-Layer"/>
  <path class="LeftPaw-Lizard0fil671" d="M8957 19719c-161,284 -636,568 -871,846 -165,195 -249,575 -80,649 148,66 234,-108 348,-218 112,-108 200,-191 255,-121 -94,89 -123,234 -200,476 -89,279 -3,682 262,648 142,-19 126,-223 244,-454 92,-182 171,-298 384,-304 138,-4 217,58 274,139 100,142 35,313 192,347 195,42 272,-288 251,-544 -21,-247 -62,-507 9,-582 -605,-42 -1153,-458 -1068,-882z" style="fill:#456f42"/>
  <path class="LeftPaw-Lizard0fil32" d="M8897 19678c21,-36 66,-49 102,-28 36,20 47,64 27,100 -13,23 -28,49 -44,71 -107,145 -280,276 -455,408 -150,114 -301,228 -399,344 -84,99 -164,261 -169,392 -2,54 10,100 40,126 68,57 155,5 221,-85 68,-94 155,-212 277,-234 166,-31 205,68 150,146 -72,103 -162,338 -196,566 -16,103 -19,202 -2,282 15,68 43,121 91,144 30,16 70,21 122,14 42,-5 62,-72 91,-165 23,-73 49,-158 95,-248 50,-98 96,-179 163,-239 71,-65 159,-102 286,-106 84,-3 151,16 206,47 56,32 97,75 131,124 50,70 65,141 78,204 12,56 22,104 68,113 16,3 29,4 41,3 28,-2 49,-16 65,-38 21,-29 36,-71 46,-120 19,-94 18,-208 9,-310 -5,-64 -12,-117 -19,-167 -23,-169 -45,-290 26,-448 17,-38 66,-65 104,-48 38,17 55,61 38,99 -54,119 -39,232 -20,377 8,55 16,114 21,175 9,113 10,242 -12,351 -14,69 -37,132 -73,180 -42,56 -98,92 -172,98 -26,2 -54,1 -83,-5 -143,-29 -162,-120 -185,-229 -11,-49 -22,-104 -54,-149 -23,-32 -49,-61 -83,-80 -32,-18 -74,-29 -128,-28 -86,3 -144,27 -189,67 -49,45 -88,113 -131,197 -40,80 -64,157 -85,224 -45,147 -78,252 -215,270 -83,10 -152,-1 -208,-29 -93,-47 -147,-136 -170,-247 -21,-99 -19,-216 -1,-336 29,-188 98,-388 172,-523 -43,11 -114,93 -156,151 -101,141 -269,235 -416,116 -70,-58 -96,-147 -92,-245 6,-166 98,-358 204,-484 109,-129 266,-248 423,-366 189,-144 378,-287 460,-432z" style="fill:#f3e8d0"/>
 </g><g id="Ears-Lizard0">
 <animateTransform additive="sum" attributeName="transform" dur="10" repeatCount="indefinite" type="translate" values="0;0 200;0;0 200;0;0 200;0;0 200;0"/>
  <metadata id="CorelCorpID_369Corel-Layer"/>
  <rect class="Ears-Lizard0fil22" height="1984" width="1815" x="12969" y="8203"/>
 </g><g id="Head-Lizard6">
 <animateTransform additive="sum" attributeName="transform" dur="10" repeatCount="indefinite" type="translate" values="0;0 200;0;0 200;0;0 200;0;0 200;0"/>
  <metadata id="CorelCorpID_376Corel-Layer"/>
  <path class="Head-Lizard6fil697" d="M19519 14066c594,-25 1612,1096 1460,1696 -80,314 -1645,-138 -1915,240 -82,-830 170,-1487 455,-1936z" style="fill:#6df69b"/>
  <path class="Head-Lizard6fil338" d="M20478 14624c337,361 581,822 501,1138 -47,184 -602,105 -1109,84 -25,-16 -50,-31 -76,-45 232,-64 471,-94 538,-146 -71,-65 -228,-162 -299,-246 106,-68 327,-59 404,-82 -69,-91 -198,-216 -229,-310 174,-24 253,25 357,39 -38,-135 -87,-302 -217,-501 46,27 89,49 130,69z" style="fill:#54dbc4"/>
  <path class="Head-Lizard6fil22 Head-Lizard6str4" d="M19519 14066c594,-25 1612,1096 1460,1696 -80,314 -1645,-138 -1915,240 -82,-830 170,-1487 455,-1936z" style="fill:#d99860"/>
  <path class="Head-Lizard6fil698" d="M7845 14066c-594,-25 -1612,1096 -1460,1696 80,314 1645,-138 1915,240 82,-830 -170,-1487 -455,-1936z" style="fill:#093fa3"/>
  <path class="Head-Lizard6fil338" d="M6886 14624c-337,361 -581,822 -501,1138 47,184 602,105 1109,84 25,-16 50,-31 76,-45 -232,-64 -471,-94 -538,-146 71,-65 228,-162 299,-246 -106,-68 -327,-59 -404,-82 69,-91 198,-216 229,-310 -174,-24 -253,25 -357,39 37,-135 87,-302 217,-501 -46,27 -89,49 -130,69z" style="fill:#43afe8"/>
  <path class="Head-Lizard6fil22 Head-Lizard6str4" d="M7845 14066c-594,-25 -1612,1096 -1460,1696 80,314 1645,-138 1915,240 82,-830 -170,-1487 -455,-1936z" style="fill:#eee131"/>
  <path class="Head-Lizard6fil699" d="M13679 17773c-1487,0 -2911,-33 -4014,-508 -583,-251 -1141,-626 -1563,-1030 -175,5 -346,-193 -324,-348 209,-548 -56,-1422 -522,-1599 -165,-121 -104,-525 41,-595 161,-886 715,-2113 1319,-2693 -653,-856 -217,-1799 66,-1855 346,-69 691,287 1455,-205 1009,-673 2198,-1146 3545,-1146 1347,0 2536,473 3545,1146 764,492 1109,136 1455,205 283,56 719,999 66,1855 604,580 1158,1807 1319,2693 145,70 206,474 41,595 -466,177 -731,1051 -523,1599 23,155 -149,353 -323,348 -422,404 -980,779 -1563,1030 -1103,475 -2534,508 -4020,508z" style="fill:#c3ea8b"/>
  <path class="Head-Lizard6fil688" d="M13654 11822c1933,0 3500,1254 3500,2800 0,1546 -1567,2800 -3500,2800 -1933,0 -3500,-1254 -3500,-2800 0,-1546 1567,-2800 3500,-2800z" style="fill:#5998c4"/>
  <path class="Head-Lizard6fil14" d="M11837 17780c-1634,-183 -2874,-629 -3740,-1552 -148,-53 -311,-167 -335,-366 -259,-75 -1487,110 -1359,-131 415,-1 1371,-137 1396,-660 15,-335 -483,-744 -586,-834 -84,-270 -16,-452 103,-575 114,-512 323,-970 466,-1246 -208,886 -286,1506 164,2261 152,255 275,807 432,1045 755,1148 2174,1826 3459,2058z" style="fill:#ffd0e4"/>
  <path class="Head-Lizard6fil32" d="M12354 17792c-869,69 -1916,-112 -2719,-458 -290,-125 -575,-281 -841,-456 -265,-175 -510,-368 -722,-569 -7,0 -14,-1 -21,-2 -92,-13 -178,-67 -241,-137 -64,-71 -106,-161 -108,-247 -1,-16 0,-32 2,-47 1,-5 2,-11 4,-16l0 0 1 -1 1 -3c97,-258 82,-593 -11,-886 -92,-288 -259,-532 -469,-612 -4,-2 -8,-3 -11,-5 -4,-3 -9,-6 -12,-9 -35,-27 -62,-62 -82,-103 -39,-80 -49,-183 -39,-281 11,-97 43,-192 90,-257 16,-22 34,-40 54,-55 87,-461 276,-1007 521,-1507 221,-450 487,-864 766,-1148 -155,-219 -245,-443 -287,-656 -55,-276 -29,-536 35,-746 65,-214 173,-379 280,-461 40,-31 82,-51 123,-59 122,-24 238,-3 367,22 252,47 562,105 1062,-216l2 -1c570,-380 1449,-907 2172,-903 -245,75 -525,177 -804,305 -461,211 -927,483 -1285,722 -2,1 -3,2 -4,3 -550,353 -893,289 -1171,237 -114,-22 -215,-41 -310,-22 -18,4 -39,14 -61,31 -85,65 -172,202 -228,386 -58,188 -80,422 -31,673 42,210 134,431 298,647l0 0c23,30 21,73 -7,99 -284,273 -557,693 -782,1153 -245,498 -432,1042 -515,1496 -3,24 -18,46 -41,58 -12,5 -23,16 -33,30 -32,44 -54,112 -62,185 -8,73 -1,146 25,200 9,18 20,34 33,46 250,100 445,378 548,703 103,321 118,691 11,979 -1,5 -1,10 -1,15 2,50 29,105 70,151 41,46 96,81 151,89 10,1 20,2 28,2l0 0c20,-1 39,6 54,20 210,202 456,396 722,572 257,169 534,321 818,443 734,316 1801,534 2660,596z" style="fill:#b42be7"/>
  <path class="Head-Lizard6fil32" d="M9142 9267c-40,-9 -66,-49 -57,-89 9,-41 49,-67 89,-58 815,176 2004,609 2435,1130 -848,-541 -1564,-788 -2467,-983z" style="fill:#af0b02"/>
  <path class="Head-Lizard6fil14" d="M10924 8473c-1262,883 -74,960 679,1758 -649,-428 -1350,-745 -2083,-994 486,-163 932,-566 1404,-764z" style="fill:#df03ef"/>
  <path class="Head-Lizard6fil32" d="M15010 17792c868,69 1915,-112 2719,-458 290,-125 575,-281 841,-456 264,-175 509,-368 722,-569 7,0 14,-1 21,-2 92,-13 178,-67 241,-137 64,-71 106,-161 108,-247 1,-16 0,-32 -2,-47 -1,-5 -3,-11 -5,-16l0 0 0 -1 -1 -3c-97,-258 -82,-593 11,-886 92,-288 259,-532 469,-612 4,-2 7,-3 11,-5 4,-3 8,-6 12,-9 35,-27 62,-62 82,-103 38,-80 49,-183 39,-281 -11,-97 -43,-192 -90,-257 -16,-22 -34,-40 -54,-55 -88,-461 -277,-1007 -521,-1507 -221,-450 -487,-864 -767,-1148 156,-219 246,-443 288,-656 54,-276 29,-536 -35,-746 -65,-214 -173,-379 -280,-461 -41,-31 -82,-51 -123,-59 -122,-24 -238,-3 -367,22 -252,47 -562,105 -1062,-216l-2 -1c-570,-380 -1449,-907 -2172,-903 244,75 525,177 803,305 461,211 928,483 1286,722 1,1 3,2 4,3 550,353 893,289 1171,237 114,-22 215,-41 310,-22 18,4 39,14 61,31 85,65 172,202 228,386 58,188 80,422 31,673 -42,210 -134,431 -299,647l0 0c-22,30 -20,73 8,99 284,273 557,693 782,1153 245,498 432,1042 515,1496 3,24 18,46 41,58 11,5 22,16 33,30 32,44 54,112 62,185 8,73 1,146 -25,200 -9,18 -20,34 -33,46 -250,100 -445,378 -549,703 -102,321 -117,691 -10,979 1,5 1,10 1,15 -2,50 -29,105 -70,151 -42,46 -96,81 -151,89 -10,1 -20,2 -29,2l0 0c-19,-1 -38,6 -53,20 -211,202 -456,396 -722,572 -257,169 -535,321 -819,443 -733,316 -1800,534 -2659,596z" style="fill:#2ee560"/>
  <path class="Head-Lizard6fil32" d="M18222 9267c40,-9 66,-49 57,-89 -9,-41 -49,-67 -89,-58 -815,176 -2038,609 -2468,1130 848,-541 1597,-788 2500,-983z" style="fill:#6f61d2"/>
  <path class="Head-Lizard6fil14" d="M16440 8473c1262,883 74,960 -679,1758 649,-428 1349,-745 2083,-994 -486,-163 -933,-566 -1404,-764z" style="fill:#b7e555"/>
  <path class="Head-Lizard6fil14" d="M19247 16222c-141,-436 121,-1565 651,-1838 -533,1175 323,1408 1061,1435 -479,104 -901,10 -1358,14 4,246 -131,314 -354,389z" style="fill:#2406c3"/>
  <path class="Head-Lizard6fil700" d="M13594 11145c194,133 169,464 78,688 -58,145 -347,178 -472,93 -207,-143 -313,-326 -216,-565 76,-188 447,-328 610,-216zm-577 -1889c79,-5 150,88 174,164 27,89 30,213 -37,278 -50,48 -149,-2 -203,-46 -60,-50 -118,-132 -105,-209 14,-83 87,-181 171,-187zm-529 694c-66,45 -174,1 -233,-53 -69,-63 -134,-168 -109,-258 19,-67 130,-74 198,-63 77,12 169,54 197,126 30,79 17,201 -53,248zm578 826c-125,-43 -191,-246 -200,-398 -6,-98 83,-243 164,-216 133,47 270,207 279,369 8,127 -138,281 -243,245zm1336 555c157,-134 137,-464 63,-689 -46,-144 -258,-304 -358,-218 -167,142 -273,451 -195,691 61,188 360,328 490,216zm-157 -1313c130,-28 219,-222 246,-372 17,-96 -54,-251 -137,-233 -138,30 -292,173 -321,333 -23,125 104,296 212,272zm651 -145c65,7 138,-70 174,-136 23,-43 13,-127 -29,-131 -69,-7 -164,36 -202,106 -30,56 3,155 57,161z" style="fill:#27e1e6"/>
 </g><g id="Mouth-Lizard2">
 <animateTransform additive="sum" attributeName="transform" dur="10" repeatCount="indefinite" type="translate" values="0;0 200;0;0 200;0;0 200;0;0 200;0"/>
  <metadata id="CorelCorpID_380Corel-Layer"/>
  <path class="Mouth-Lizard2fil711" d="M13682 17844c-963,0 -1475,-57 -2157,-142 -844,-197 -1780,-993 -1989,-1942 861,-682 2764,310 4146,312 1382,-2 3285,-994 4146,-312 -209,949 -1146,1745 -1990,1942 -681,85 -1193,142 -2156,142z" style="fill:#90b9d8"/>
  <path class="Mouth-Lizard2fil22 Mouth-Lizard2str0" d="M9536 15760c905,-666 2447,312 4146,312 1699,0 3241,-978 4146,-312" style="fill:#b2b20b"/>
  <path class="Mouth-Lizard2fil712 Mouth-Lizard2str0" d="M10530 15541c64,320 209,703 503,935 256,-126 405,-449 454,-698 38,239 263,472 430,572 176,-94 271,-233 390,-441 -606,-129 -1255,-318 -1777,-368z" style="fill:#59d03a"/>
  <path class="Mouth-Lizard2fil713 Mouth-Lizard2str0" d="M16834 15541c-64,320 -210,703 -504,935 -255,-126 -404,-449 -453,-698 -38,239 -263,472 -430,572 -176,-94 -271,-233 -390,-441 606,-129 1255,-318 1777,-368z" style="fill:#e02663"/>
 </g><g id="Eyes-Lizard6">
 <animateTransform additive="sum" attributeName="transform" dur="10" repeatCount="indefinite" type="translate" values="0;0 200;0;0 200;0;0 200;0;0 200;0"/>
  <metadata id="CorelCorpID_393Corel-Layer"/>
  <path class="Eyes-Lizard6fil14" d="M7970 13978c-139,-654 55,-1614 677,-2434 111,-147 269,-358 464,-468 -1331,-963 2210,-479 2742,232 533,710 828,2205 15,3344 -989,1386 -3530,1048 -3898,-674z"/>
  <g>
        <animateTransform additive="sum" attributeName="transform" dur="10" repeatCount="indefinite" type="translate" values="0;0;0;0;0;0;0;0;0;0;0;0;0;0;0;0;0;0;0;0;0;0;0;0;0;0;0;0;0;0;0;0;0;0;0;0;0;0;0;0;0;0;0;0;0;0;0;0;0;0;0;0;0;0;0;0;0;0;0;0;0;0;0;0;0;0;0;0;0;0;0;0;0;0;0;0;0;0;0;0;0;0;0;0;0;0;0;0;0;0;0 13300;0"/> 
        <g>
            <animateTransform additive="sum" attributeName="transform" dur="10" repeatCount="indefinite" type="scale" values="1;1;1;1;1;1;1;1;1;1;1;1;1;1;1;1;1;1;1;1;1;1;1;1;1;1;1;1;1;1;1;1;1;1;1;1;1;1;1;1;1;1;1;1;1;1;1;1;1;1;1;1;1;1;1;1;1;1;1;1;1;1;1;1;1;1;1;1;1;1;1;1;1;1;1;1;1;1;1;1;1;1;1;1;1;1;1;1;1;1;1 0.01;1"/> 
            <path class="Eyes-Lizard6fil764" d="M8524 14352c557,809 2184,744 2842,77 467,-472 521,-1738 252,-2569 -666,-234 -1813,-252 -2891,-73 -426,685 -700,1844 -203,2565z"/>
            <path class="Eyes-Lizard6fil765" d="M8660 14513c17,17 35,33 54,49 402,-276 874,-554 1413,-789 -424,337 -770,681 -1052,1011 24,10 48,20 73,29 308,-292 657,-576 1053,-829 -232,292 -440,611 -612,938 32,5 64,8 97,11 186,-271 391,-547 620,-795 -109,262 -197,534 -246,802 35,-2 71,-5 106,-8 76,-255 174,-515 295,-756l-3 710c29,-6 57,-13 86,-20l84 -628 177 544c19,-7 37,-15 56,-23l3 -1 1 0 1 -1 1 0 1 -1c4,-2 8,-3 12,-5l-110 -588 304 489c22,-13 44,-26 65,-40l-257 -554 457 397 1 0 0 0 0 0c9,-9 18,-17 26,-26 10,-10 20,-21 30,-32l-446 -500 588 290c14,-27 28,-55 41,-84l-574 -373 650 169c12,-39 23,-79 33,-120l-670 -290 713 89c5,-30 10,-59 14,-89l-721 -174 741 0c3,-29 5,-59 7,-89l-754 -84 761 -64c1,-35 1,-71 1,-107l-768 -33 766 -107c-2,-40 -4,-81 -6,-121l-698 -1 687 -137c-4,-37 -8,-73 -13,-109l-705 48 681 -212c-7,-42 -15,-83 -23,-124l-696 101 658 -263c-9,-35 -19,-70 -30,-105l-671 164 504 -259c-72,-20 -148,-38 -228,-54l-344 121 217 -144c-211,-34 -443,-56 -690,-65 10,28 19,57 28,85 -19,-29 -38,-57 -57,-86 -60,-2 -120,-3 -182,-3 44,64 87,128 127,194 -78,-67 -157,-132 -239,-194 -77,0 -154,2 -233,5 137,121 268,248 392,381 -222,-139 -442,-261 -661,-367 -64,4 -128,9 -192,15 280,155 545,329 797,519 -453,-213 -952,-352 -1467,-435l-7 2c-12,18 -23,37 -34,57 502,147 986,328 1421,562 -510,-161 -1030,-245 -1583,-244 -11,26 -23,52 -33,79 555,69 1090,205 1604,394 -581,-76 -1152,-96 -1724,-51 -6,21 -12,43 -18,65 605,7 1199,70 1744,207 -591,-28 -1213,1 -1812,115 -5,32 -10,63 -14,95 591,-50 1185,-67 1774,-41 -598,58 -1196,179 -1794,368 0,18 0,36 0,54 591,-134 1191,-219 1801,-243 -615,126 -1206,302 -1770,554 3,16 6,32 9,48 571,-195 1150,-310 1724,-395 -553,178 -1095,409 -1624,713 6,15 13,30 21,45 517,-244 1061,-447 1640,-594 -532,280 -1013,611 -1399,938z"/>
            <path class="Eyes-Lizard6fil766" d="M11303 11751c-414,-77 -923,-101 -1457,-74 -200,422 -333,965 -316,1475 31,955 426,1454 1095,1265 669,-189 859,-1402 758,-2230 -19,-155 -46,-301 -80,-436z"/>
            <circle class="Eyes-Lizard6fil152" r="235" transform="matrix(0.386601 -0.693281 1.39025 0.889533 9274.35 14376.1)"/>
            <circle class="Eyes-Lizard6fil152" r="235" transform="matrix(0.437299 -0.127093 0.239024 0.657032 8790.54 13824.5)"/>
            <path class="Eyes-Lizard6fil152" d="M11142 12356c444,10 642,1002 9,1002 -578,0 -435,-1012 -9,-1002z"/>
            <path class="Eyes-Lizard6fil22 Eyes-Lizard6str0" d="M8524 14352c557,809 2184,744 2842,77 467,-472 521,-1738 252,-2569 -130,-270 -2715,-300 -2891,-73 -426,685 -700,1844 -203,2565z"/>
            <path class="Eyes-Lizard6fil740" d="M11773 12726c-19,-306 -71,-607 -155,-866 -666,-234 -1813,-252 -2891,-73 -168,270 -312,614 -395,975 791,-984 2882,-820 3441,-36z"/>
        </g>
    </g>
    <path class="Eyes-Lizard6fil14" d="M19394 13978c139,-654 -55,-1614 -677,-2434 -111,-147 -269,-358 -464,-468 1331,-963 -2210,-479 -2743,232 -532,710 -827,2205 -14,3344 989,1386 3530,1048 3898,-674z"/>
  <g>
        <animateTransform additive="sum" attributeName="transform" dur="10" repeatCount="indefinite" type="translate" values="0;0;0;0;0;0;0;0;0;0;0;0;0;0;0;0;0;0;0;0;0;0;0;0;0;0;0;0;0;0;0;0;0;0;0;0;0;0;0;0;0;0;0;0;0;0;0;0;0;0;0;0;0;0;0;0;0;0;0;0;0;0;0;0;0;0;0;0;0;0;0;0;0;0;0;0;0;0;0;0;0;0;0;0;0;0;0;0;0;0;0 13300;0"/> 
        <g>
            <animateTransform additive="sum" attributeName="transform" dur="10" repeatCount="indefinite" type="scale" values="1;1;1;1;1;1;1;1;1;1;1;1;1;1;1;1;1;1;1;1;1;1;1;1;1;1;1;1;1;1;1;1;1;1;1;1;1;1;1;1;1;1;1;1;1;1;1;1;1;1;1;1;1;1;1;1;1;1;1;1;1;1;1;1;1;1;1;1;1;1;1;1;1;1;1;1;1;1;1;1;1;1;1;1;1;1;1;1;1;1;1 0.01;1"/> 
            <path class="Eyes-Lizard6fil767" d="M18840 14352c-557,809 -2184,744 -2842,77 -467,-472 -521,-1738 -253,-2569 667,-234 1813,-252 2892,-73 426,685 700,1844 203,2565z"/>
            <path class="Eyes-Lizard6fil768" d="M18704 14513c-18,17 -35,33 -54,49 -402,-276 -874,-554 -1413,-789 424,337 770,681 1052,1011 -24,10 -48,20 -73,29 -308,-292 -657,-576 -1053,-829 231,292 440,611 612,938 -32,5 -65,8 -97,11 -186,-271 -391,-547 -620,-795 109,262 197,534 246,802 -35,-2 -71,-5 -106,-8 -76,-255 -174,-515 -295,-756l3 710c-29,-6 -57,-13 -86,-20l-84 -628 -177 544c-19,-7 -38,-15 -56,-23l-3 -1 -1 0 -1 -1 -1 0 -1 -1c-4,-2 -8,-3 -12,-5l110 -588 -304 489c-22,-13 -44,-26 -65,-40l257 -554 -457 397 -1 0 0 0 0 0c-9,-9 -18,-17 -26,-26 -10,-10 -20,-21 -30,-32l446 -500 -588 290c-14,-27 -28,-55 -41,-84l573 -373 -649 169c-12,-39 -23,-79 -34,-120l671 -290 -713 89c-5,-30 -10,-59 -14,-89l721 -174 -741 0c-3,-29 -5,-59 -7,-89l754 -84 -761 -64c-1,-35 -1,-71 -1,-107l768 -33 -766 -107c2,-40 4,-81 6,-121l698 -1 -687 -137c4,-37 8,-73 12,-109l706 48 -681 -212c7,-42 15,-83 23,-124l695 101 -657 -263c9,-35 19,-70 30,-105l671 164 -504 -259c72,-20 148,-38 228,-54l344 121 -217 -144c210,-34 443,-56 690,-65 -10,28 -19,57 -28,85 19,-29 38,-57 57,-86 60,-2 120,-3 181,-3 -43,64 -86,128 -126,194 78,-67 157,-132 239,-194 76,0 154,2 233,5 -137,121 -268,248 -392,381 222,-139 442,-261 661,-367 63,4 127,9 192,15 -280,155 -545,329 -797,519 453,-213 952,-352 1466,-435l8 2c11,18 23,37 34,57 -502,147 -987,328 -1421,562 510,-161 1030,-245 1583,-244 11,26 22,52 33,79 -555,69 -1090,205 -1604,394 580,-76 1152,-96 1724,-51 6,21 12,43 18,65 -605,7 -1199,70 -1745,207 592,-28 1214,1 1813,115 5,32 10,63 14,95 -591,-50 -1185,-67 -1775,-41 599,58 1197,179 1795,368 0,18 0,36 0,54 -592,-134 -1191,-219 -1801,-243 614,126 1205,302 1770,554 -3,16 -6,32 -9,48 -571,-195 -1151,-310 -1724,-395 553,178 1095,409 1624,713 -7,15 -13,30 -21,45 -517,-244 -1061,-447 -1640,-594 532,280 1013,611 1399,938z"/>
            <path class="Eyes-Lizard6fil769" d="M16143 11751c414,-77 922,-101 1456,-74 200,422 333,965 317,1475 -31,955 -426,1454 -1096,1265 -669,-189 -859,-1402 -758,-2230 19,-155 46,-301 81,-436z"/>
            <circle class="Eyes-Lizard6fil152" r="235" transform="matrix(0.386601 -0.693281 1.39025 0.889533 16701 14412.4)"/>
            <circle class="Eyes-Lizard6fil152" r="235" transform="matrix(0.437299 -0.127093 0.239024 0.657032 16208.1 13833.6)"/>
            <path class="Eyes-Lizard6fil152" d="M18061 12286c444,10 642,1002 9,1002 -578,0 -434,-1012 -9,-1002z"/>
            <path class="Eyes-Lizard6fil22 Eyes-Lizard6str0" d="M18840 14352c-557,809 -2184,744 -2842,77 -467,-472 -521,-1738 -253,-2569 130,-270 2716,-300 2892,-73 426,685 700,1844 203,2565z"/>
            <path class="Eyes-Lizard6fil740" d="M15591 12726c18,-306 71,-607 154,-866 667,-234 1813,-252 2892,-73 168,270 312,614 395,975 -791,-984 -2882,-820 -3441,-36z"/>
        </g>
    </g>
 </g><g id="Moustache-Lizard0">
 <animateTransform additive="sum" attributeName="transform" dur="10" repeatCount="indefinite" type="translate" values="0;0 200;0;0 200;0;0 200;0;0 200;0"/>
  <metadata id="CorelCorpID_398Corel-Layer"/>
  <rect class="Moustache-Lizard0fil22" height="802" width="919" x="13222" y="14329"/>
 </g><g id="Nose-Lizard0">
 <animateTransform additive="sum" attributeName="transform" dur="10" repeatCount="indefinite" type="translate" values="0;0 200;0;0 200;0;0 200;0;0 200;0"/>
  <metadata id="CorelCorpID_400Corel-Layer"/>
  <g>
   <path class="Nose-Lizard0fil100" d="M13012 15166c-94,181 -789,71 -592,-308 197,-378 686,127 592,308z" style="fill:#1bd188"/>
   <path class="Nose-Lizard0fil100" d="M14352 15166c94,181 789,71 592,-308 -197,-378 -687,127 -592,308z" style="fill:#f2d19d"/>
  </g>
 </g><g id="Hair-Lizard4">
 <animateTransform additive="sum" attributeName="transform" dur="10" repeatCount="indefinite" type="translate" values="0;0 200;0;0 200;0;0 200;0;0 200;0"/>
  <metadata id="CorelCorpID_405Corel-Layer"/>
  <ellipse class="Hair-Lizard4fil100" rx="1023" ry="427" transform="matrix(1.07008 0.0363772 -0.0410228 1.28156 11244.5 9900.4)"/>
  <path class="Hair-Lizard4fil800" d="M11277 9328c565,19 1016,263 1007,545 -9,282 -475,495 -1040,476 -565,-19 -1016,-263 -1007,-545 9,-283 475,-496 1040,-476z" style="fill:#a839aa"/>
  <path class="Hair-Lizard4fil32" d="M11102 8309c722,-371 1771,-590 2580,-590 809,0 1858,219 2580,590l-60 117c-662,-340 -1777,-572 -2520,-572 -743,0 -1858,232 -2520,572l-60 -117z" style="fill:#d3acc4"/>
  <path class="Hair-Lizard4fil801" d="M10342 9609c243,-1788 1387,-4182 1666,-4245 235,75 160,2693 235,4390 15,351 -879,482 -1448,332 -296,-78 -490,-204 -453,-477z" style="fill:#8f78ea"/>
  <path class="Hair-Lizard4fil14" d="M10342 9609c90,-659 302,-1401 548,-2077 -352,1596 0,2420 773,2589 -278,43 -607,34 -868,-35 -296,-78 -490,-204 -453,-477z" style="fill:#ea29d4"/>
  <path class="Hair-Lizard4fil32" d="M10333 9684c57,-901 973,-4239 1659,-4393 28,-7 57,4 74,26 274,271 245,2508 177,4455 -130,-1048 -13,-3921 -243,-4324 -564,185 -1482,3407 -1667,4236z" style="fill:#8f83d6"/>
  <ellipse class="Hair-Lizard4fil100" cx="13682" cy="11609" rx="1311" ry="796"/>
  <ellipse class="Hair-Lizard4fil802" cx="13682" cy="11515" rx="1233" ry="759"/>
  <path class="Hair-Lizard4fil803" d="M13682 8545c-261,0 -964,1487 -1112,2856 -34,319 576,645 1112,645 535,0 1146,-326 1112,-645 -148,-1369 -851,-2856 -1112,-2856z" style="fill:#b79087"/>
  <path class="Hair-Lizard4fil14" d="M12982 9716c-186,501 -349,1104 -412,1685 -34,319 576,645 1112,645 24,0 49,-1 73,-2 -603,-253 -960,-1072 -773,-2328z" style="fill:#50dd76"/>
  <path class="Hair-Lizard4fil799" d="M13682 8620c-92,0 -380,400 -642,1048 -191,471 -379,1147 -470,1733 15,-688 260,-1502 371,-1787 274,-704 600,-1144 741,-1144 140,0 467,440 741,1144 111,285 356,1099 371,1787 -91,-586 -279,-1262 -470,-1733 -262,-648 -550,-1048 -642,-1048z" style="fill:#59ed29"/>
  <ellipse class="Hair-Lizard4fil100" rx="1023" ry="427" transform="matrix(-1.07008 0.0363772 0.0410228 1.28156 16119.4 9900.4)"/>
  <path class="Hair-Lizard4fil804" d="M16087 9328c-565,19 -1016,263 -1007,545 9,282 475,495 1040,476 565,-19 1015,-263 1006,-545 -9,-283 -474,-496 -1039,-476z" style="fill:#fc7866"/>
  <path class="Hair-Lizard4fil805" d="M17022 9609c-243,-1788 -1387,-4182 -1666,-4245 -236,75 -161,2693 -235,4390 -16,351 878,482 1448,332 296,-78 490,-204 453,-477z" style="fill:#39e9c3"/>
  <path class="Hair-Lizard4fil14" d="M15169 7457c-12,763 -18,1606 -48,2297 -15,346 855,479 1425,338 -860,-206 -1274,-984 -1377,-2635z" style="fill:#27ceca"/>
  <path class="Hair-Lizard4fil32" d="M17031 9684c-57,-901 -974,-4239 -1659,-4393 -28,-7 -57,4 -74,26 -274,271 -245,2508 -177,4455 130,-1048 13,-3921 243,-4324 564,185 1482,3407 1667,4236z" style="fill:#34a3a0"/>
  <path class="Hair-Lizard4fil14" d="M10415 9223c-61,476 391,665 820,694 484,32 1034,-77 989,-573 -35,274 -570,386 -971,350 -389,-34 -834,-238 -838,-471z" style="fill:#efa815"/>
  <path class="Hair-Lizard4fil14" d="M10602 8565c-81,449 313,653 696,702 432,55 930,-20 917,-495 -47,259 -532,338 -889,284 -345,-53 -733,-270 -724,-491z" style="fill:#257b8b"/>
  <path class="Hair-Lizard4fil14" d="M10766 7926c-94,408 259,613 608,676 393,71 852,26 861,-409 -54,235 -502,284 -827,217 -314,-65 -660,-281 -642,-484z" style="fill:#87724f"/>
  <path class="Hair-Lizard4fil14" d="M10956 7379c-80,354 224,553 525,609 339,62 734,4 741,-374 -46,204 -432,245 -712,187 -271,-57 -569,-246 -554,-422z" style="fill:#3e0d3a"/>
  <path class="Hair-Lizard4fil14" d="M11137 6848c-71,301 191,490 459,537 303,53 626,-36 632,-358 -41,174 -345,229 -595,179 -242,-48 -509,-209 -496,-358z" style="fill:#cbbe17"/>
  <path class="Hair-Lizard4fil14" d="M11316 6332c-67,257 136,416 365,462 258,52 531,-6 543,-281 -39,147 -298,174 -511,126 -207,-46 -412,-179 -397,-307z" style="fill:#7af767"/>
  <path class="Hair-Lizard4fil14" d="M11553 5843c-63,209 75,355 238,408 184,59 385,29 409,-200 -37,121 -225,127 -377,73 -147,-52 -288,-176 -270,-281z" style="fill:#3ea9db"/>
  <path class="Hair-Lizard4fil14" d="M16955 9223c61,476 -391,665 -821,694 -484,32 -1033,-77 -989,-573 36,274 571,386 972,350 388,-34 833,-238 838,-471z" style="fill:#00ff63"/>
  <path class="Hair-Lizard4fil14" d="M16768 8565c80,449 -314,653 -697,702 -432,55 -929,-20 -917,-495 47,259 532,338 889,284 346,-53 734,-270 725,-491z" style="fill:#ad0bc9"/>
  <path class="Hair-Lizard4fil14" d="M16604 7926c93,408 -259,613 -608,676 -393,71 -853,26 -862,-409 54,235 502,284 827,217 315,-65 661,-281 643,-484z" style="fill:#c102f2"/>
  <path class="Hair-Lizard4fil14" d="M16413 7379c80,354 -224,553 -525,609 -338,62 -734,4 -741,-374 46,204 432,245 712,187 271,-57 569,-246 554,-422z" style="fill:#c43d64"/>
  <path class="Hair-Lizard4fil14" d="M16232 6848c71,301 -190,490 -459,537 -303,53 -626,-36 -632,-358 41,174 345,229 596,179 242,-48 508,-209 495,-358z" style="fill:#5bf5ec"/>
  <path class="Hair-Lizard4fil14" d="M16054 6332c66,257 -136,416 -365,462 -259,52 -532,-6 -543,-281 38,147 297,174 510,126 207,-46 412,-179 398,-307z" style="fill:#6fcfca"/>
  <path class="Hair-Lizard4fil14" d="M15817 5843c62,209 -75,355 -239,408 -184,59 -385,29 -408,-200 36,121 225,127 376,73 147,-52 288,-176 271,-281z" style="fill:#53831e"/>
  <path class="Hair-Lizard4fil14" d="M14734 11008c7,30 10,60 10,91 0,375 -476,679 -1062,679 -587,0 -1062,-304 -1062,-679 0,-31 3,-61 10,-91 107,268 537,469 1052,469 515,0 945,-201 1052,-469z" style="fill:#b21600"/>
  <path class="Hair-Lizard4fil14" d="M14588 10326c5,27 8,55 8,83 0,340 -409,616 -914,616 -505,0 -914,-276 -914,-616 0,-28 3,-56 8,-83 93,244 463,426 906,426 443,0 813,-182 906,-426z" style="fill:#3caa96"/>
  <path class="Hair-Lizard4fil14" d="M14413 9696c5,22 7,44 7,67 0,280 -331,507 -738,507 -408,0 -738,-227 -738,-507 0,-23 2,-45 7,-67 74,200 373,349 731,349 358,0 657,-149 731,-349z" style="fill:#9243fd"/>
  <path class="Hair-Lizard4fil14" d="M14179 9115c3,18 5,36 5,54 0,225 -225,407 -502,407 -277,0 -502,-182 -502,-407 0,-18 2,-36 5,-54 51,160 254,280 497,280 243,0 446,-120 497,-280z" style="fill:#69c38d"/>
 </g></svg>