<svg xmlns="http://www.w3.org/2000/svg" xmlns:xlink="http://www.w3.org/1999/xlink" style="shape-rendering:geometricPrecision; text-rendering:geometricPrecision; image-rendering:optimizeQuality; fill-rule:evenodd; clip-rule:evenodd" version="1.1" viewBox="0 0 29000 29000" xml:space="preserve"><defs><style type="text/css">.HairBack-Lizard2fil14 {fill:black;fill-opacity:0.200000}
.HairBack-Lizard2fil605 {fill:url(#HairBack-Lizard2id822)}
.HairBack-Lizard2str5 {stroke:black;stroke-width:100;stroke-linecap:round;stroke-linejoin:round}
.HairBack-Lizard2fil606 {fill:url(#HairBack-Lizard2id1003)}
.HairBack-Lizard2fil611 {fill:url(#HairBack-Lizard2id102)}
.HairBack-Lizard2str0 {stroke:black;stroke-width:150;stroke-linecap:round;stroke-linejoin:round}
.HairBack-Lizard2fil608 {fill:url(#HairBack-Lizard2id821)}
.HairBack-Lizard2fil609 {fill:url(#HairBack-Lizard2id840)}
.HairBack-Lizard2fil612 {fill:url(#HairBack-Lizard2id295)}
.Tail-Lizard7fil615 {fill:url(#Tail-Lizard7id237)}
.Tail-Lizard7fil629 {fill:url(#Tail-Lizard7id238)}
.Tail-Lizard7fil22 {fill:none}
.Tail-Lizard7str0 {stroke:black;stroke-width:150;stroke-linecap:round;stroke-linejoin:round}
.RightFoot-Lizard0fil636 {fill:url(#RightFoot-Lizard0id220)}
.RightFoot-Lizard0fil32 {fill:black;fill-rule:nonzero}
.RightLeg-Lizard0fil639 {fill:url(#RightLeg-Lizard0id33)}
.RightLeg-Lizard0fil14 {fill:black;fill-opacity:0.200000}
.RightLeg-Lizard0fil32 {fill:black;fill-rule:nonzero}
.LeftFoot-Lizard0fil645 {fill:url(#LeftFoot-Lizard0id444)}
.LeftFoot-Lizard0fil32 {fill:black;fill-rule:nonzero}
.LeftLeg-Lizard0fil648 {fill:url(#LeftLeg-Lizard0id17)}
.LeftLeg-Lizard0fil14 {fill:black;fill-opacity:0.200000}
.LeftLeg-Lizard0fil32 {fill:black;fill-rule:nonzero}
.RightHand-Lizard0fil655 {fill:url(#RightHand-Lizard0id333)}
.RightHand-Lizard0fil14 {fill:black;fill-opacity:0.200000}
.RightHand-Lizard0fil32 {fill:black;fill-rule:nonzero}
.RightPaw-Lizard0fil661 {fill:url(#RightPaw-Lizard0id332)}
.RightPaw-Lizard0fil32 {fill:black;fill-rule:nonzero}
.LeftHand-Lizard0fil664 {fill:url(#LeftHand-Lizard0id879)}
.LeftHand-Lizard0fil14 {fill:black;fill-opacity:0.200000}
.LeftHand-Lizard0fil32 {fill:black;fill-rule:nonzero}
.LeftPaw-Lizard0fil671 {fill:url(#LeftPaw-Lizard0id580)}
.LeftPaw-Lizard0fil32 {fill:black;fill-rule:nonzero}
.Body-Lizard0fil674 {fill:url(#Body-Lizard0id282)}
.Body-Lizard0fil14 {fill:black;fill-opacity:0.200000}
.Body-Lizard0fil32 {fill:black;fill-rule:nonzero}
.Body-Lizard0fil675 {fill:url(#Body-Lizard0id641)}
.Head-Lizard5fil695 {fill:url(#Head-Lizard5id378)}
.Head-Lizard5fil688 {fill:url(#Head-Lizard5id1040)}
.Head-Lizard5fil14 {fill:black;fill-opacity:0.200000}
.Head-Lizard5fil32 {fill:black;fill-rule:nonzero}
.Head-Lizard5fil696 {fill:url(#Head-Lizard5id30)}
.Mouth-Lizard0fil708 {fill:url(#Mouth-Lizard0id185)}
.Mouth-Lizard0fil22 {fill:none}
.Mouth-Lizard0str0 {stroke:black;stroke-width:150;stroke-linecap:round;stroke-linejoin:round}
.Mouth-Lizard0str11 {stroke:#2B2A29;stroke-width:150;stroke-linecap:round;stroke-linejoin:round}
.Eyes-Lizard5fil14 {fill:black;fill-opacity:0.200000}
.Eyes-Lizard5fil758 {fill:url(#Eyes-Lizard5id352)}
.Eyes-Lizard5fil759 {fill:url(#Eyes-Lizard5id12)}
.Eyes-Lizard5fil740 {fill:black;fill-opacity:0.400000}
.Eyes-Lizard5fil760 {fill:url(#Eyes-Lizard5id1072)}
.Eyes-Lizard5fil152 {fill:white}
.Eyes-Lizard5fil761 {fill:url(#Eyes-Lizard5id415)}
.Eyes-Lizard5fil762 {fill:url(#Eyes-Lizard5id262)}
.Eyes-Lizard5fil763 {fill:url(#Eyes-Lizard5id1068)}
.Eyes-Lizard5fil22 {fill:none}
.Eyes-Lizard5str4 {stroke:black;stroke-width:150}
.Moustache-Lizard0fil22 {fill:none}
.Nose-Lizard0fil100 {fill:black}
.BraceletLeather-Mediumfil43new {fill:white;fill-opacity:0.200000}
.BraceletLeather-Mediumfil46new {fill:white;fill-rule:nonzero;fill-opacity:0.200000}
.BraceletLeather-Mediumfil42new {fill:url(#BraceletLeather-Mediumid14new)}
.BraceletLeather-Mediumstr3new {stroke:black;stroke-width:100;stroke-linecap:round;stroke-linejoin:round}
.BraceletLeather-Mediumfil33new {fill:none}
.BraceletLeather-Mediumfil44new {fill:url(#BraceletLeather-Mediumid88new)}
.BraceletLeather-Mediumfil45new {fill:url(#BraceletLeather-Mediumid672new);fill-rule:nonzero}
.BraceletLeather-Mediumstr4new {stroke:black;stroke-width:100}
.BraceletLeather-Mediumfil47new {fill:none;fill-rule:nonzero}
.BraceletLeather-Mediumfil48new {fill:url(#BraceletLeather-Mediumid15new)}
.BraceletLeather-Mediumfil49new {fill:url(#BraceletLeather-Mediumid207new)}
.BraceletLeather-Mediumfil50new {fill:url(#BraceletLeather-Mediumid690new);fill-rule:nonzero}
.HatShemaghBack-Mediumfil79 {fill:url(#HatShemaghBack-Mediumid17)}
.HatShemaghBack-Mediumstr1 {stroke:black;stroke-width:150;stroke-linecap:round;stroke-linejoin:round}
.HatShemagh-Mediumfil82 {fill:url(#HatShemagh-Mediumid4)}
.HatShemagh-Mediumfil70 {fill:#CC1400;fill-rule:nonzero;fill-opacity:0.501961}
.HatShemagh-Mediumfil71 {fill:#D31F0C;fill-rule:nonzero;fill-opacity:0.301961}
.HatShemagh-Mediumfil72 {fill:#CC1400;fill-rule:nonzero;fill-opacity:0.301961}
.HatShemagh-Mediumfil73 {fill:#2B2A29;fill-opacity:0.200000}
.HatShemagh-Mediumfil74 {fill:black;fill-rule:nonzero}
.HatShemagh-Mediumfil83 {fill:url(#HatShemagh-Mediumid111);fill-rule:nonzero}
.HatShemagh-Mediumfil76 {fill:white;fill-rule:nonzero;fill-opacity:0.501961}
.HatShemagh-Mediumfil77 {fill:black;fill-opacity:0.200000}
.HatShemagh-Mediumfil80 {fill:url(#HatShemagh-Mediumid32)}
.HatShemagh-Mediumstr0 {stroke:black;stroke-width:150}
.HatShemagh-Mediumfil81 {fill:url(#HatShemagh-Mediumid33)}
.HatShemagh-Mediumfil12 {fill:none}
.HatShemagh-Mediumstr4 {stroke:black;stroke-width:150;stroke-linecap:round;stroke-linejoin:round}
.HatShemagh-Mediumfil78 {fill:none;fill-rule:nonzero}
.HatShemagh-Mediumstr5 {stroke:black;stroke-width:150}
.NecklaceTornShirtGreen-Mediumfil7 {fill:url(#NecklaceTornShirtGreen-Mediumid0)}
.NecklaceTornShirtGreen-Mediumfil2 {fill:black;fill-opacity:0.301961}
.NecklaceTornShirtGreen-Mediumfil3 {fill:black}
.NecklaceTornShirtGreen-Mediumfil4 {fill:black;fill-opacity:0.501961}
.NecklaceTornShirtGreen-Mediumfil1 {fill:none}
.NecklaceTornShirtGreen-Mediumfil5 {fill:black;fill-rule:nonzero}
.NecklaceTornShirtGreen-Mediumfil6 {fill:black;fill-opacity:0.400000}
.NecklaceTornShirtGreen-Mediumstr1 {stroke:black;stroke-width:150;stroke-linecap:round;stroke-linejoin:round}
</style><linearGradient gradientUnits="objectBoundingBox" id="HairBack-Lizard2id822" x1="27.0587%" x2="72.9413%" xlink:href="#HairBack-Lizard2id78" y1="78.7196%" y2="21.2781%">
  </linearGradient><linearGradient gradientUnits="objectBoundingBox" id="HairBack-Lizard2id1003" x1="45.9175%" x2="54.0825%" xlink:href="#HairBack-Lizard2id78" y1="90.056%" y2="9.94402%">
  </linearGradient><linearGradient gradientUnits="userSpaceOnUse" id="HairBack-Lizard2id102" x1="10942" x2="8559.36" y1="15613.5" y2="20378.7">
   <stop offset="0" style="stop-opacity:1; stop-color:#bd7e55"/>
   <stop offset="1" style="stop-opacity:1; stop-color:#fff0e1"/>
  </linearGradient><linearGradient gradientUnits="objectBoundingBox" id="HairBack-Lizard2id821" x1="72.9413%" x2="27.0587%" xlink:href="#HairBack-Lizard2id78" y1="78.7196%" y2="21.2781%">
  </linearGradient><linearGradient gradientUnits="objectBoundingBox" id="HairBack-Lizard2id840" x1="54.0825%" x2="45.9175%" xlink:href="#HairBack-Lizard2id78" y1="90.056%" y2="9.94402%">
  </linearGradient><linearGradient gradientUnits="userSpaceOnUse" id="HairBack-Lizard2id295" x1="16381.1" x2="18763.7" xlink:href="#HairBack-Lizard2id102" y1="15613.5" y2="20378.7">
  </linearGradient><linearGradient gradientUnits="objectBoundingBox" id="Tail-Lizard7id237" x1="39.9431%" x2="60.0569%" y1="102.625%" y2="0%">
   <stop offset="0" style="stop-opacity:1; stop-color:#96603c"/>
   <stop offset="0.411765" style="stop-opacity:1; stop-color:#bd7e55"/>
   <stop offset="1" style="stop-opacity:1; stop-color:#d6a381"/>
  </linearGradient><linearGradient gradientUnits="userSpaceOnUse" id="Tail-Lizard7id238" x1="16517.1" x2="18627.5" xlink:href="#Tail-Lizard7id74" y1="24649.6" y2="16773.3">
  </linearGradient><linearGradient gradientUnits="userSpaceOnUse" id="RightFoot-Lizard0id220" x1="16306.2" x2="16825.8" y1="23871.7" y2="25810.9">
   <stop offset="0" style="stop-opacity:1; stop-color:#d6a381"/>
   <stop offset="0.101961" style="stop-opacity:1; stop-color:#d6a381"/>
   <stop offset="1" style="stop-opacity:1; stop-color:#fff0e1"/>
  </linearGradient><linearGradient gradientUnits="userSpaceOnUse" id="RightLeg-Lizard0id33" x1="15490.3" x2="15490.3" xlink:href="#RightLeg-Lizard0id17" y1="24310" y2="21166.6">
  </linearGradient><linearGradient gradientUnits="userSpaceOnUse" id="LeftFoot-Lizard0id444" x1="11057.6" x2="10538" xlink:href="#LeftFoot-Lizard0id220" y1="23871.7" y2="25810.9">
  </linearGradient><linearGradient gradientUnits="userSpaceOnUse" id="LeftLeg-Lizard0id17" x1="11873.5" x2="11873.5" y1="24310" y2="21166.6">
   <stop offset="0" style="stop-opacity:1; stop-color:#d6a381"/>
   <stop offset="0.431373" style="stop-opacity:1; stop-color:#d6a381"/>
   <stop offset="1" style="stop-opacity:1; stop-color:#bd7e55"/>
  </linearGradient><linearGradient gradientUnits="objectBoundingBox" id="RightHand-Lizard0id333" x1="39.0063%" x2="60.9934%" y1="1.86633%" y2="98.1334%">
   <stop offset="0" style="stop-opacity:1; stop-color:#96603c"/>
   <stop offset="0.788235" style="stop-opacity:1; stop-color:#bd7e55"/>
   <stop offset="1" style="stop-opacity:1; stop-color:#bd7e55"/>
  </linearGradient><linearGradient gradientUnits="userSpaceOnUse" id="RightPaw-Lizard0id332" x1="17833.9" x2="18955.5" y1="19888.5" y2="21831.2">
   <stop offset="0" style="stop-opacity:1; stop-color:#bd7e55"/>
   <stop offset="0.2" style="stop-opacity:1; stop-color:#bd7e55"/>
   <stop offset="1" style="stop-opacity:1; stop-color:#d6a381"/>
  </linearGradient><linearGradient gradientUnits="userSpaceOnUse" id="LeftHand-Lizard0id879" x1="10916.9" x2="9907.76" xlink:href="#LeftHand-Lizard0id333" y1="17558.9" y2="20732.9">
  </linearGradient><linearGradient gradientUnits="userSpaceOnUse" id="LeftPaw-Lizard0id580" x1="9529.97" x2="8408.35" xlink:href="#LeftPaw-Lizard0id332" y1="19888.5" y2="21831.2">
  </linearGradient><linearGradient gradientUnits="objectBoundingBox" id="Body-Lizard0id282" x1="50%" x2="50%" y1="0%" y2="100%">
   <stop offset="0" style="stop-opacity:1; stop-color:#96603c"/>
   <stop offset="0.501961" style="stop-opacity:1; stop-color:#bd7e55"/>
   <stop offset="1" style="stop-opacity:1; stop-color:#d6a381"/>
  </linearGradient><linearGradient gradientUnits="userSpaceOnUse" id="Body-Lizard0id641" x1="13681.9" x2="13681.9" y1="22882.1" y2="17688.3">
   <stop offset="0" style="stop-opacity:1; stop-color:#fff0e1"/>
   <stop offset="0.65098" style="stop-opacity:1; stop-color:#f2dec9"/>
   <stop offset="1" style="stop-opacity:1; stop-color:#f2dec9"/>
  </linearGradient><linearGradient gradientUnits="userSpaceOnUse" id="Head-Lizard5id378" x1="13681.9" x2="13681.9" xlink:href="#Head-Lizard5id122" y1="17781.3" y2="7794.34">
  </linearGradient><radialGradient cx="13653.8" cy="14622.1" fx="13653.8" fy="14622.1" gradientTransform="matrix(1 -0 -0 0.8 0 2924)" gradientUnits="userSpaceOnUse" id="Head-Lizard5id1040" r="3500">
   <stop offset="0" style="stop-opacity:1; stop-color:#e1c700"/>
   <stop offset="1" style="stop-opacity:1; stop-color:#bd7e55"/>
  </radialGradient><linearGradient gradientUnits="userSpaceOnUse" id="Head-Lizard5id30" x1="13623.1" x2="13623.1" xlink:href="#Head-Lizard5id5" y1="13892.8" y2="9188.09">
  </linearGradient><linearGradient gradientUnits="objectBoundingBox" id="Mouth-Lizard0id185" x1="50%" x2="50%" xlink:href="#Mouth-Lizard0id133" y1="100%" y2="0%">
  </linearGradient><linearGradient gradientUnits="objectBoundingBox" id="Eyes-Lizard5id352" x1="55.115%" x2="44.8847%" xlink:href="#Eyes-Lizard5id0" y1="98.9977%" y2="1.00257%">
  </linearGradient><linearGradient gradientUnits="objectBoundingBox" id="Eyes-Lizard5id12" x1="50%" x2="50%" xlink:href="#Eyes-Lizard5id2" y1="100%" y2="0%">
  </linearGradient><radialGradient cx="10333.8" cy="13407.5" fx="10333.8" fy="13407.5" gradientTransform="matrix(0.273727 1.55794 -1.02157 0.41745 21202 -8289)" gradientUnits="userSpaceOnUse" id="Eyes-Lizard5id1072" r="1083.69" xlink:href="#Eyes-Lizard5id1055">
  </radialGradient><linearGradient gradientUnits="userSpaceOnUse" id="Eyes-Lizard5id415" x1="17198.1" x2="17569.5" xlink:href="#Eyes-Lizard5id0" y1="14916.8" y2="10671.8">
  </linearGradient><linearGradient gradientUnits="userSpaceOnUse" id="Eyes-Lizard5id262" x1="17383.3" x2="17383.3" xlink:href="#Eyes-Lizard5id2" y1="14954.7" y2="10628.7">
  </linearGradient><radialGradient cx="17030" cy="13407.5" fx="17030" fy="13407.5" gradientTransform="matrix(-0.273727 1.55794 1.02157 0.41745 7995 -18721)" gradientUnits="userSpaceOnUse" id="Eyes-Lizard5id1068" r="1083.69" xlink:href="#Eyes-Lizard5id1055">
  </radialGradient><linearGradient gradientUnits="userSpaceOnUse" id="BraceletLeather-Mediumid14new" x1="8682.96" x2="8745.92" y1="19682.8" y2="19053.1">
   <stop offset="0" style="stop-opacity:1; stop-color:#683501"/>
   <stop offset="1" style="stop-opacity:1; stop-color:#B08227"/>
  </linearGradient><linearGradient gradientUnits="userSpaceOnUse" id="BraceletLeather-Mediumid88new" x1="8626.8" x2="8294.02" xlink:href="#BraceletLeather-Mediumid14new" y1="19859" y2="19314.4">
  </linearGradient><linearGradient gradientUnits="userSpaceOnUse" id="BraceletLeather-Mediumid672new" x1="8784.44" x2="10049.5" y1="19759" y2="20796.3">
   <stop offset="0" style="stop-opacity:1; stop-color:#643300"/>
   <stop offset="0.321569" style="stop-opacity:1; stop-color:#B5872A"/>
   <stop offset="1" style="stop-opacity:1; stop-color:#643300"/>
  </linearGradient><linearGradient gradientUnits="userSpaceOnUse" id="BraceletLeather-Mediumid15new" x1="18680.9" x2="18617.9" xlink:href="#BraceletLeather-Mediumid14new" y1="19682.8" y2="19053.1">
  </linearGradient><linearGradient gradientUnits="userSpaceOnUse" id="BraceletLeather-Mediumid207new" x1="18737" x2="19069.8" xlink:href="#BraceletLeather-Mediumid14new" y1="19859" y2="19314.4">
  </linearGradient><linearGradient gradientUnits="userSpaceOnUse" id="BraceletLeather-Mediumid690new" x1="18579.4" x2="17314.3" xlink:href="#BraceletLeather-Mediumid672new" y1="19759" y2="20796.3">
  </linearGradient><linearGradient gradientUnits="userSpaceOnUse" id="HatShemaghBack-Mediumid17" x1="13355.8" x2="13355.8" y1="19912.4" y2="9053.71">
   <stop offset="0" style="stop-opacity:1; stop-color:#BFBBB5"/>
   <stop offset="0.360784" style="stop-opacity:1; stop-color:#787472"/>
   <stop offset="1" style="stop-opacity:1; stop-color:#332727"/>
  </linearGradient><linearGradient gradientUnits="userSpaceOnUse" id="HatShemagh-Mediumid4" x1="9536.29" x2="17162.1" y1="19087.5" y2="7448.07">
   <stop offset="0" style="stop-opacity:1; stop-color:#BABABA"/>
   <stop offset="0.501961" style="stop-opacity:1; stop-color:#E0E0E0"/>
   <stop offset="1" style="stop-opacity:1; stop-color:#fff0e1"/>
  </linearGradient><linearGradient gradientUnits="userSpaceOnUse" id="HatShemagh-Mediumid111" x1="8596.6" x2="18508.8" y1="8303.94" y2="8303.94">
   <stop offset="0" style="stop-opacity:1; stop-color:#3A3B3B"/>
   <stop offset="0.478431" style="stop-opacity:1; stop-color:#7A7878"/>
   <stop offset="1" style="stop-opacity:1; stop-color:#6C6969"/>
  </linearGradient><linearGradient gradientUnits="userSpaceOnUse" id="HatShemagh-Mediumid32" x1="17890.5" x2="17217.5" y1="11407.6" y2="9606.62">
   <stop offset="0" style="stop-opacity:1; stop-color:#9D9E9E"/>
   <stop offset="1" style="stop-opacity:1; stop-color:#525252"/>
  </linearGradient><linearGradient gradientUnits="userSpaceOnUse" id="HatShemagh-Mediumid33" x1="9692.15" x2="8811.85" xlink:href="#HatShemagh-Mediumid32" y1="12911.1" y2="10555.3">
  </linearGradient><linearGradient gradientUnits="userSpaceOnUse" id="NecklaceTornShirtGreen-Mediumid0" x1="13681.9" x2="13681.9" y1="22800.8" y2="17350.8">
   <stop offset="0" style="stop-opacity:1; stop-color:#393C2B"/>
   <stop offset="1" style="stop-opacity:1; stop-color:#796F39"/>
  </linearGradient><linearGradient gradientUnits="objectBoundingBox" id="HairBack-Lizard2id78" x1="95.8017%" x2="4.19832%" y1="69.3451%" y2="30.6549%">
   <stop offset="0" style="stop-opacity:1; stop-color:#E0D0BF"/>
   <stop offset="1" style="stop-opacity:1; stop-color:#B5987B"/>
  </linearGradient><linearGradient gradientUnits="userSpaceOnUse" id="Tail-Lizard7id74" x1="15961" x2="18418.2" y1="23174.1" y2="17871.9">
   <stop offset="0" style="stop-opacity:1; stop-color:#96603c"/>
   <stop offset="1" style="stop-opacity:1; stop-color:#bd7e55"/>
  </linearGradient><linearGradient gradientUnits="userSpaceOnUse" id="RightLeg-Lizard0id17" x1="11873.5" x2="11873.5" y1="24310" y2="21166.6">
   <stop offset="0" style="stop-opacity:1; stop-color:#d6a381"/>
   <stop offset="0.431373" style="stop-opacity:1; stop-color:#d6a381"/>
   <stop offset="1" style="stop-opacity:1; stop-color:#bd7e55"/>
  </linearGradient><linearGradient gradientUnits="userSpaceOnUse" id="LeftFoot-Lizard0id220" x1="16306.2" x2="16825.8" y1="23871.7" y2="25810.9">
   <stop offset="0" style="stop-opacity:1; stop-color:#d6a381"/>
   <stop offset="0.101961" style="stop-opacity:1; stop-color:#d6a381"/>
   <stop offset="1" style="stop-opacity:1; stop-color:#fff0e1"/>
  </linearGradient><linearGradient gradientUnits="objectBoundingBox" id="LeftHand-Lizard0id333" x1="39.0063%" x2="60.9934%" y1="1.86633%" y2="98.1334%">
   <stop offset="0" style="stop-opacity:1; stop-color:#96603c"/>
   <stop offset="0.788235" style="stop-opacity:1; stop-color:#bd7e55"/>
   <stop offset="1" style="stop-opacity:1; stop-color:#bd7e55"/>
  </linearGradient><linearGradient gradientUnits="userSpaceOnUse" id="LeftPaw-Lizard0id332" x1="17833.9" x2="18955.5" y1="19888.5" y2="21831.2">
   <stop offset="0" style="stop-opacity:1; stop-color:#bd7e55"/>
   <stop offset="0.2" style="stop-opacity:1; stop-color:#bd7e55"/>
   <stop offset="1" style="stop-opacity:1; stop-color:#d6a381"/>
  </linearGradient><linearGradient gradientUnits="userSpaceOnUse" id="Head-Lizard5id122" x1="13681.9" x2="13681.9" y1="17788.8" y2="7794.35">
   <stop offset="0" style="stop-opacity:1; stop-color:#96603c"/>
   <stop offset="0.219608" style="stop-opacity:1; stop-color:#bd7e55"/>
   <stop offset="0.639216" style="stop-opacity:1; stop-color:#bd7e55"/>
   <stop offset="1" style="stop-opacity:1; stop-color:#d6a381"/>
  </linearGradient><linearGradient gradientUnits="objectBoundingBox" id="Head-Lizard5id5" x1="50%" x2="50%" y1="0%" y2="100%">
   <stop offset="0" style="stop-opacity:1; stop-color:#ffb331"/>
   <stop offset="1" style="stop-opacity:1; stop-color:#ffbd4a"/>
  </linearGradient><linearGradient gradientUnits="userSpaceOnUse" id="Mouth-Lizard0id133" x1="13681.9" x2="13681.9" y1="17844" y2="15520.7">
   <stop offset="0" style="stop-opacity:1; stop-color:#f2dec9"/>
   <stop offset="1" style="stop-opacity:1; stop-color:#fff0e1"/>
  </linearGradient><linearGradient gradientUnits="objectBoundingBox" id="Eyes-Lizard5id0" x1="50.0001%" x2="50.0001%" y1="100%" y2="0.000230848%">
   <stop offset="0" style="stop-opacity:1; stop-color:#805900"/>
   <stop offset="0.388235" style="stop-opacity:1; stop-color:#805900"/>
   <stop offset="1" style="stop-opacity:1; stop-color:black"/>
  </linearGradient><linearGradient gradientUnits="userSpaceOnUse" id="Eyes-Lizard5id2" x1="17267.3" x2="17267.3" y1="14970.1" y2="11355.9">
   <stop offset="0" style="stop-opacity:1; stop-color:#805900"/>
   <stop offset="0.168627" style="stop-opacity:1; stop-color:#ffc029"/>
   <stop offset="0.490196" style="stop-opacity:1; stop-color:#805900"/>
   <stop offset="1" style="stop-opacity:1; stop-color:black"/>
  </linearGradient><radialGradient cx="16677.2" cy="12783.5" fx="16677.2" fy="12783.5" gradientTransform="matrix(-0.257879 1.16297 1.08696 0.253253 7083 -9849)" gradientUnits="userSpaceOnUse" id="Eyes-Lizard5id1055" r="1194.51">
   <stop offset="0" style="stop-opacity:1; stop-color:#664700"/>
   <stop offset="0.75" style="stop-opacity:1; stop-color:black"/>
   <stop offset="1" style="stop-opacity:1; stop-color:black"/>
  </radialGradient></defs><g id="HairBack-Lizard2">
 <animateTransform additive="sum" attributeName="transform" dur="10" repeatCount="indefinite" type="translate" values="0;0 200;0;0 200;0;0 200;0;0 200;0"/>
  <metadata id="CorelCorpID_314Corel-Layer"/>
  <path class="HairBack-Lizard2fil605 HairBack-Lizard2str5" d="M6894 19094c-46,79 -70,407 22,435 93,29 160,-205 256,-285 -73,-84 -208,-136 -278,-150z" style="fill:#43cc69"/>
  <path class="HairBack-Lizard2fil606 HairBack-Lizard2str5" d="M8583 20396c-17,90 70,407 166,403 97,-5 90,-247 146,-355 -96,-55 -242,-58 -312,-48z" style="fill:#665a12"/>
  <path class="HairBack-Lizard2fil611 HairBack-Lizard2str0" d="M8693 15387c-686,786 -1626,2252 -1774,3785 64,4 140,45 183,97 1367,-1133 1226,355 1517,1152 64,-4 186,28 232,54 876,-1799 1701,-1719 2140,130 146,-1759 1446,-1979 1592,-3738 -1297,-493 -2594,-986 -3890,-1480z" style="fill:#b8ab45"/>
  <path class="HairBack-Lizard2fil14" d="M8109 16235c-344,498 -1145,1831 -1159,2886 0,44 37,4 39,48 232,-986 893,-2127 1626,-1754 379,193 -536,1366 60,3009 -250,-3126 1616,-2488 1546,-1220 239,118 591,555 752,1345 49,-1052 1276,-2360 1410,-2809 -167,-651 -3612,-1344 -4274,-1505z" style="fill:#fe495c"/>
  <path class="HairBack-Lizard2fil608 HairBack-Lizard2str5" d="M20429 19094c46,79 70,407 -22,435 -93,29 -160,-205 -256,-285 73,-84 209,-136 278,-150z" style="fill:#d4b62d"/>
  <path class="HairBack-Lizard2fil609 HairBack-Lizard2str5" d="M18740 20396c17,90 -70,407 -166,403 -97,-5 -90,-247 -146,-355 96,-55 242,-58 312,-48z" style="fill:#7e57e3"/>
  <path class="HairBack-Lizard2fil612 HairBack-Lizard2str0" d="M18630 15387c686,786 1626,2252 1774,3785 -64,4 -140,45 -183,97 -1367,-1133 -1226,355 -1517,1152 -64,-4 -186,28 -232,54 -876,-1799 -1700,-1719 -2140,130 -146,-1759 -1446,-1979 -1592,-3738 1297,-493 2594,-986 3890,-1480z" style="fill:#cc41bb"/>
  <path class="HairBack-Lizard2fil14" d="M19214 16235c344,498 1145,1831 1159,2886 0,44 -37,4 -39,48 -232,-986 -893,-2127 -1626,-1754 -379,193 536,1366 -60,3009 250,-3126 -1616,-2488 -1546,-1220 -239,118 -591,555 -752,1345 -49,-1052 -1276,-2360 -1409,-2809 166,-651 3611,-1344 4273,-1505z" style="fill:#c766ed"/>
 </g><g id="Tail-Lizard7">
  <metadata id="CorelCorpID_323Corel-Layer"/>
  <path class="Tail-Lizard7fil615" d="M12061 22242c2116,2822 7296,2969 9617,590 1591,-1631 1091,-4161 -213,-5311 -752,-663 -1213,-660 -1292,-512 -87,162 390,517 660,1024 346,647 369,2150 -746,2824 -2078,1256 -3858,-232 -4441,-1087l-3585 2472z" style="fill:#8fa939"/>
  <path class="Tail-Lizard7fil629" d="M12481 22728l514 -380c33,-29 108,-77 147,-100 17,-9 27,-14 32,-16l366 -151 262 -284 0 0 0 -2 330 -365c17,-18 48,-46 74,-63 7,-4 19,-11 23,-13l193 -84 172 -222c12,-15 45,-45 61,-58 7,-3 11,-7 16,-9l196 -91c7,-5 7,-5 11,-7l144 -66 108 -195 0 0 0 0 0 0 158 -261c9,-14 23,-32 35,-43 5,-6 6,-5 9,-7l85 -52 93 -167c5,-12 19,-30 28,-42 9,-4 5,-2 4,-3l104 -72c3,-1 3,-3 7,-5l76 -51 8 -24c5,7 11,14 17,22 -8,18 -25,39 -39,47l-83 55 -65 177 112 -66c0,0 0,0 0,0l88 -51 29 -109c5,7 11,13 17,20l-19 86c-1,3 0,4 -3,6l0 0c-7,20 -19,39 -33,48l0 0 0 0c5,-2 -1,0 2,-2l-93 53 -60 202 127 -62c-1,2 3,-1 0,0l104 -50 27 -183 7 -3 0 0 0 -2 3 -19c7,8 13,15 20,22l-3 2 -20 182c1,1 -2,4 0,5l0 0c-6,19 -21,45 -31,49l0 0 0 0c1,0 -4,3 -3,2l-109 52 -38 220 151 -58c2,-2 4,-3 5,-3l118 -44 8 -208 2 -1 0 0 4 -3 5 -97c8,8 16,17 25,26l-1 15 11 -5c15,15 30,30 45,45l-59 25 0 208c-1,2 -1,4 -1,5l0 0c-5,25 -15,50 -32,56l0 0 0 0c1,-1 -1,1 -1,1l-122 41 -16 253 186 -54c2,-2 3,-3 3,-3l146 -42 -29 -229 5 -3 0 0 -1 -2 -14 -193c12,12 25,24 37,36l9 97 73 -24c21,19 42,37 64,56l-128 37 35 234c0,3 0,7 -1,9l0 0c4,23 -8,49 -25,55l0 0 0 0c0,1 -2,1 -2,0l-151 39 34 276 227 -46c0,1 1,0 1,1l182 -34 -81 -257 2 -2 0 0 -1 -2 -71 -293c17,15 35,29 53,43l48 186 156 -31c34,24 68,47 103,70l141 288 278 -36c-1,2 -3,1 -1,0l23 -2c55,27 112,52 169,76l-110 11 253 307 374 -46c1,1 0,0 1,0l296 -43 -22 -15c51,6 102,12 154,15l0 0c3,2 8,4 8,7l0 0c33,20 44,47 10,56l0 0 0 0c0,1 0,0 0,-1l-316 58 413 261 498 -150c0,0 -1,0 0,0l372 -178 -354 -77c67,-10 135,-23 204,-39l313 45c2,1 9,1 11,2l0 0c43,6 61,31 20,59l0 0 0 0c0,0 2,1 2,0l-385 213 562 78 524 -408c0,-1 -1,-1 2,-2l338 -358 -514 84 0 0 0 0 0 0 -106 6c78,-40 157,-84 236,-132 20,-12 40,-24 59,-37l-39 50 507 -105c3,-2 9,-2 13,-4l0 0c42,-7 65,13 34,58l0 0 0 1c0,0 0,2 0,3l-330 379 577 -127 379 -587c1,-2 -2,-1 0,-3l197 -442 -436 207 0 0 0 0 0 0 -453 157c34,-42 65,-86 94,-130l324 -118 191 -547c0,-1 -2,-2 1,-4l55 -398 -240 144c5,-40 10,-80 13,-120l256 -168c3,-3 6,-4 9,-6l0 0c29,-15 60,-6 65,36l0 0 0 0c-1,2 0,3 0,3l-33 404 370 -270 -56 -538c0,-2 -1,-1 -1,-3l-132 -374 -196 256 -2 -1 0 1 -1 1 -276 233c-3,-38 -7,-76 -11,-114l199 -179 -232 -435c0,1 0,-1 0,-1l-252 -273 -24 33c-23,-34 -46,-67 -69,-99l22 -30c2,-3 4,-3 2,-5l2 0c14,-18 51,-20 85,6l0 0 1 0c0,1 3,3 3,4l263 265 130 -257 -391 -329c0,0 -1,-1 -1,-1l-336 -186 -75 164c-31,-38 -59,-74 -84,-107l57 -124c3,-3 4,-4 3,-4l0 0c11,-15 44,-18 85,-1l0 0 1 0c0,0 0,0 4,1l336 179 36 -197 -472 -187c34,-4 73,-4 117,2l354 133 -1 -18c33,16 67,34 102,54l2 40 -2 0 -40 238 327 270 43 -206c0,-1 0,-3 0,-5l0 0c8,-14 33,-13 68,13l0 0 0 1c1,1 2,1 4,2l272 277 10 -110c28,27 56,56 83,84l-11 122 247 374 40 -163c24,32 47,65 69,98l-62 205 0 0 0 0 0 0 -212 354 64 456 240 -269c1,-1 3,-3 3,-7l0 0c18,-20 45,-12 58,35l0 2 0 0c0,1 1,1 2,3l32 443 246 -321 -142 -514c89,173 166,355 229,544l-21 46 0 2 0 0 -1 2 -319 384 -90 527 331 -286c4,-3 6,-5 8,-6l0 0c26,-20 49,-7 44,47l0 0 0 0c-1,2 -1,4 -2,6l-108 507 352 -332c4,40 7,80 10,120l-411 371 -260 576 432 -281c4,-1 6,-4 9,-5l0 0c36,-20 55,-2 33,56l0 0 0 0c0,0 -2,3 -2,6l-268 548 406 -282c-9,45 -19,91 -30,136l-478 317 -434 603 528 -257c8,-3 9,-4 14,-6l0 0c42,-18 56,5 17,65l0 0 0 0c-4,5 -4,7 -5,8l-436 570 282 -144c-37,54 -77,108 -118,161l-318 154 -619 548 336 -86c-66,55 -134,108 -203,159l-385 68 -2 0 1 -1 -8 3 -822 15 -682 295 589 93c3,1 10,1 14,3l0 0c48,8 52,40 -16,74l0 0 -3 2c1,-1 -6,2 -6,1l-673 280 244 38c-88,27 -178,53 -268,77l-185 -34 -676 207c-120,16 -240,30 -361,41l-541 -345 -635 119 269 257c-83,-2 -165,-6 -248,-11l-229 -245 3 -2 -4 0 0 0 -317 -451 -520 80 159 357c3,4 3,7 5,11l0 0c10,32 -19,76 -84,91l0 0 0 0c-5,2 -5,0 -5,1l-103 19c-105,-21 -209,-44 -312,-70l317 -56 -136 -366 2 -2 -2 -2 1 -1 -127 -467 -424 58 19 375c1,1 0,6 2,8l0 0c-3,37 -39,82 -96,92l0 0 0 0c-2,2 -3,2 -3,3l-437 79c-64,-25 -127,-51 -190,-78l107 -27c0,1 2,1 3,1l475 -94 -8 -368 2 -1 -2 -1 2 -3 21 -459 -363 66 -79 360c3,0 -2,6 -1,8l0 -1c-10,35 -53,79 -103,93l0 0 0 0c-4,0 -5,2 -6,1l-435 98 -61 114c-37,-19 -74,-39 -111,-60l5 -7 -12 4c-40,-23 -80,-46 -120,-69l304 -92c0,-1 2,-2 3,-2l428 -100 86 -357 -1 1 0 0 0 -3 122 -433 -321 74 -147 341c0,3 -4,8 -3,8l1 0c-20,36 -66,78 -112,90l0 0 0 0c-5,3 -5,2 -7,4l-399 107 -172 228c-31,-20 -62,-40 -92,-61l105 -117 -179 66c-30,-21 -60,-42 -90,-64l459 -156c1,0 2,-1 2,1l396 -115 153 -336 1 -3 0 0 3 -1 194 -410 -301 92 -191 315c4,-1 -1,4 -3,6l0 0c-20,32 -70,72 -115,89l0 0 0 0c-7,4 -7,4 -6,3l-389 131 -296 315c-25,-20 -50,-40 -76,-59l215 -200 -310 122c-23,-19 -46,-38 -68,-58l579 -215c5,-3 3,-2 3,-1l386 -132 196 -313 -1 0 0 0 2 -2 254 -393 -274 95 -236 303c-1,4 -6,8 -7,10l0 0c-21,28 -78,72 -119,86l0 0 0 0c-8,4 -4,1 -4,1l-374 138 -435 398c-21,-19 -42,-38 -63,-57l341 -278 -441 185c-33,-31 -66,-63 -98,-96zm9096 -4895c-1,-1 -3,-1 -3,-2l-265 -288 -56 217 2 0 0 1 0 1 -162 309 199 361 173 -247c1,-1 4,-3 5,-4l0 0c15,-18 44,-14 67,21l0 1 0 0c0,2 2,2 3,3l152 365 169 -288 -284 -450zm458 1656c2,-1 0,-2 0,-3l-9 -446 -263 268 0 0 1 0 0 0 -461 325 -153 465 415 -218c2,-2 6,-4 8,-5l0 0c34,-16 61,-1 50,47l0 0 0 1c0,1 1,1 0,3l-175 452 460 -264 127 -625zm133 946c-1,-1 -1,-1 -1,-4l141 -506 -359 280 0 0 0 0 -3 0 -565 314 -310 504 493 -202c4,-3 9,-5 10,-5l0 0c42,-15 61,5 33,58l0 0 0 0c-1,2 -1,5 -2,7l-317 479 558 -248 322 -677zm-1079 1022c1,-1 1,-2 1,-4l340 -461 -505 181 -1 0 0 0 -4 1 -703 141 -442 362 547 -36c4,0 9,-1 12,0l0 0c46,-1 64,22 19,63l0 0 0 0c0,1 -2,3 -6,5l-443 333 629 -42 556 -543zm-1399 600c0,0 0,-1 2,-2l446 -298 -543 -1 0 0 0 0 -2 -2 -666 -112 -427 142 460 172c2,2 10,2 11,4l0 0c41,15 50,43 3,63l0 0 0 0c0,0 -3,1 -4,1l-424 134 531 190 613 -291zm-1317 40c0,1 0,0 2,0l410 -112 -440 -196 1 -2 0 0 -1 -1 -487 -317 -324 39 306 268c0,3 7,4 7,8l0 0c29,24 30,55 -8,61l0 0 0 0c1,0 -2,1 -4,1l-326 42 357 304 507 -95zm-980 -291c2,0 2,-1 3,0l311 -37 -286 -275 2 -2 0 0 0 -3 -301 -364 -239 29 182 274c1,4 4,5 4,7l0 0c16,27 11,58 -18,65l0 0 0 0c4,-3 0,-2 0,-2l-248 32 210 315 380 -39zm-661 -364c3,0 3,-1 3,0l234 -29 -164 -277 3 -2 0 0 -2 -2 -168 -344 -179 32 91 260c3,1 3,5 3,8l0 0c8,24 -1,54 -23,59l0 0 0 0c1,0 -3,1 -3,0l-187 30 102 305 290 -40zm5284 50c0,0 3,-3 4,-5l296 -534 -458 264 -2 1 0 0 -3 1 -676 284 -462 473 563 -130c5,-3 6,-3 14,-5l0 0c44,-8 59,16 19,66l0 0 0 0c-2,1 -4,4 -8,8l-461 441 642 -160 532 -704zm-1408 926c0,-2 4,-3 4,-4l477 -409 -572 97 -2 1 0 0 -5 0 -747 24 -523 260 541 81c3,2 7,2 14,3l0 0c46,7 54,36 3,66l0 0 0 0c-1,0 -4,1 -7,3l-514 239 620 89 711 -450zm-1542 340c0,-1 2,0 2,-1l503 -210 -525 -111 -2 0 0 0 -6 -2 -618 -246 -442 90 401 240c1,3 5,4 9,7l0 0c36,22 40,52 -10,66l0 0 0 0c-1,0 -1,0 -3,1l-437 88 459 269 669 -191zm-1282 -156c-1,-1 0,-1 2,-1l416 -74 -377 -254 -1 -2 0 0 -4 -3 -407 -365 -332 37 245 293c0,3 2,5 4,7l0 0c21,28 18,60 -19,68l0 0 0 0c0,0 -2,-1 -4,0l-333 37 279 333 531 -76zm-909 -349c0,-1 0,-1 0,0l318 -33 -225 -297 0 -2 0 0 -2 -2 -236 -381 -253 34 128 289c0,4 3,5 4,7l0 0c11,27 2,58 -27,64l0 0 0 0c-1,1 -2,0 -2,0l-259 34 143 334 411 -47zm-611 -376c-1,0 0,1 1,-1l247 -33 -117 -285 1 -2 0 0 -1 -3 -112 -364 -200 41 51 267c-3,4 0,5 0,8l0 0c4,27 -9,57 -33,63l0 0 0 0c1,-1 1,-2 -1,1l-205 35 48 315 321 -42zm-396 -357c0,0 -2,0 0,0l195 -35 -39 -269 0 0 0 0 0 -3 -31 -331 -158 44 -5 247c-4,5 -2,4 -3,7l0 0c-3,26 -14,52 -36,60l0 0 0 0c-1,0 2,-3 -1,0l-165 39 -17 290 260 -49zm-254 -314c-1,0 0,-1 2,0l159 -41 10 -244 4 -4 0 0 -3 0 23 -298 -128 46 -41 224c-4,4 -1,3 -3,8l0 0c-4,20 -19,46 -38,54l0 0 0 0c0,1 0,0 0,0l-141 46 -60 264 216 -55zm-150 -277c0,-1 -4,2 0,-1l133 -45 47 -221 1 -1 0 0 -1 -2 52 -264 -106 47 -67 208c-4,2 -2,3 -4,6l0 0c-7,19 -24,44 -37,50l0 0 0 0c-4,3 0,1 -1,2l-116 45 -92 246 191 -70zm-87 -237c-2,0 -2,1 2,-1l112 -46 70 -203 -1 0 0 0 2 -2 77 -242 -90 50 -80 186c-5,4 -5,5 -4,5l0 0c-9,19 -26,43 -40,51l0 0 0 0c-2,0 0,-1 1,-1l-105 50 -107 222 163 -69zm-38 -205c-2,0 -4,2 2,-1l96 -49 83 -184 1 -1 0 0 3 -3 89 -217 -83 57 -85 165c-10,19 -36,48 -42,50l-94 56 -117 201 147 -74zm6212 2143c0,0 0,-2 4,-4l464 -545 -554 229 0 0 -3 1 0 0 -780 169 -599 400 609 -32c5,0 7,0 13,-1l0 0c50,-2 61,27 1,72l0 0 0 0c-1,1 -5,4 -5,4l-592 370 696 -40 746 -623zm-1687 675c0,0 1,1 5,0l588 -330 -602 -8 0 0 -2 0 0 0 -738 -124 -572 178 507 179c8,0 9,2 14,4l0 0c41,16 45,47 -14,69l0 0 0 0c-2,1 -6,3 -7,3l-559 168 579 197 801 -336zm-1580 79c0,0 1,0 2,-2l544 -145 -485 -202 0 0 -2 -1 0 0 -537 -335 -458 71 338 283c7,2 8,4 11,8l0 0c28,27 22,60 -25,70l0 0 0 0c-3,-1 -7,2 -7,1l-455 72 390 318 684 -138zm-1208 -269c0,0 2,1 3,0l435 -63 -315 -291 0 0 -2 -3 0 0 -326 -403 -358 44 197 307c1,2 3,2 3,7l0 0c16,31 7,63 -34,70l0 0 0 0c-1,0 -4,2 -4,3l-360 44 221 351 540 -66zm-839 -385c0,0 0,0 3,-1l340 -39 -172 -313 0 0 -2 1 0 0 -165 -402 -278 35 83 306c4,2 3,5 4,6l0 0c4,31 -10,64 -42,69l0 0 0 0c-1,0 -5,2 -7,3l-280 32 87 357 429 -54zm-558 -397c0,0 0,2 2,2l275 -40 -74 -299 0 0 1 -2 0 0 -50 -380 -228 43 12 281c0,3 1,5 0,10l0 0c-1,25 -19,56 -46,64l0 0 0 0c-3,0 -5,1 -5,0l-232 42 0 331 345 -52zm-359 -366c0,0 0,0 0,0l227 -45 0 -278 0 0 -1 -2 0 0 25 -347 -190 47 -39 260c-3,3 1,3 -1,7l0 0c-7,27 -27,57 -50,64l0 0 0 0c0,-2 -4,1 -4,1l-197 46 -63 310 293 -63zm-224 -328c0,0 -1,1 1,-1l194 -51 47 -255 0 0 -1 -1 0 0 79 -321 -168 60 -69 233c-3,4 -3,5 -1,5l0 0c-11,25 -30,53 -51,61l0 0 0 0c-2,0 -7,2 -4,1l-177 57 -98 277 248 -65zm-136 -282c0,0 0,1 0,0l176 -60 73 -231 0 0 0 0 0 0 119 -299 -148 63 -89 212c-8,7 -4,5 -5,8l0 0c-13,21 -35,48 -54,57l0 0 0 0c-1,0 -1,0 -2,0l-157 60 -128 259 215 -69zm-60 -257c0,0 0,0 0,-1l155 -60 98 -215 0 0 0 1 0 0 135 -269 -135 68 -105 194c-11,19 -33,49 -58,61l-147 66 -143 237 200 -82zm4005 3019c0,-1 3,-3 3,-3l659 -251 -573 -120 -1 1 1 -2 -5 -1 -672 -258 -596 129 433 252c4,1 7,5 11,7l0 0c36,23 33,58 -29,74l0 0 -5 1c2,0 -1,1 -3,1l-592 134 493 284 876 -248zm-1546 -116c3,0 8,-1 8,-1l564 -114 -406 -269 -3 -1 1 -1 -3 -1 -444 -391 -471 62 257 322c4,2 4,5 8,8l0 0c19,30 9,68 -41,77l0 0 -4 0c2,0 -1,0 -2,0l-483 71 293 366 726 -128zm-1130 -340c3,1 7,0 7,0l453 -60 -234 -327 -3 -1 2 -2 -3 -3 -241 -427 -373 46 120 330c1,3 1,7 4,10l0 0c6,30 -10,67 -50,73l0 0 -2 1c1,1 -3,2 -4,1l-391 56 126 386 589 -83zm-778 -405c2,-2 5,-3 5,-3l372 -53 -105 -329 0 -2 1 0 -3 0 -86 -428 -307 49 23 316c-2,3 0,7 0,12l0 0c0,27 -24,66 -58,71l0 0 -1 -1c0,1 -2,1 -1,1l-329 58 8 375 481 -66zm-510 -413c1,0 3,0 3,0l307 -50 -6 -320 -1 -1 1 -2 0 0 20 -405 -261 57 -48 300c2,0 -1,4 0,5l0 0c-8,29 -36,67 -62,73l0 0 -3 -1c1,0 -1,2 0,1l-283 62 -77 354 410 -73zm-331 -374c1,0 3,0 3,0l265 -60 59 -299 0 2 2 -4 -2 1 94 -377 -220 60 -100 280c0,1 -3,6 -2,8l0 0c-10,26 -41,59 -64,66l0 0 -1 0c-1,0 -1,1 -4,2l-247 67 -141 335 358 -81zm-200 -339c1,0 3,-2 3,-2l237 -64 105 -279 0 0 -2 0 2 -1 135 -337 -195 64 -136 261c0,2 -3,5 -3,7l0 0c-17,26 -45,57 -67,65l2 -1 -2 1c-2,0 0,-1 -3,1l-224 72 -187 318 335 -105zm-118 -292c6,-3 8,-5 9,-5l210 -67 139 -262 0 0 0 0 4 -3 171 -315 -181 71 -154 240c0,2 -5,6 -4,7l0 0c-17,24 -51,55 -67,62l0 0 0 0c-2,1 -2,0 -3,1l-213 81 -214 295 303 -105zm-52 -260c5,-3 4,-2 5,-2l203 -80 159 -240 0 0 1 -1 -1 -1 191 -289 -169 77 -166 222c-14,18 -56,59 -76,67l-207 90 -229 272 289 -115zm-1001 904c-1,2 2,0 2,0l370 -139 233 -298 5 -4 0 0 -1 0 287 -366 -273 111 -255 283c-21,23 -85,75 -135,96l-374 154 -543 442 684 -279z" style="fill:#fe8274"/>
  <path class="Tail-Lizard7fil22 Tail-Lizard7str0" d="M12061 22242c2116,2822 7296,2969 9617,590 1591,-1631 1091,-4161 -213,-5311 -752,-663 -1213,-660 -1292,-512 -87,162 390,517 660,1024 346,647 369,2150 -746,2824 -2078,1256 -3858,-232 -4441,-1087l-3585 2472z" style="fill:#4e72e0"/>
 </g><g id="HatShemaghBack-Medium">
 <animateTransform additive="sum" attributeName="transform" dur="10" repeatCount="indefinite" type="translate" values="0;0 200;0;0 200;0;0 200;0;0 200;0"/>
  <metadata id="CorelCorpID_11Corel-Layer"/>
  <path class="HatShemaghBack-Mediumfil79 HatShemaghBack-Mediumstr1" d="M9486 18261c-400,-104 -2672,-415 -2672,-415 0,0 743,-1051 294,-1594 -450,-542 471,-3540 471,-3540l1471 -3103 6049 -432 3105 -123 1453 3685 82 3697c0,0 -241,1437 -146,1547 96,110 305,1059 305,1059l-135 478 -321 392c0,0 1197,-1598 -1158,-1413 -2355,186 -1918,939 -2990,119 -339,-259 -819,603 -1348,411 -529,-193 -1178,-725 -1873,-29 -1017,1017 -1755,-522 -2587,-739z" style="fill:#5aabfe"/>
 </g><g id="RightFoot-Lizard0">
  <metadata id="CorelCorpID_327Corel-Layer"/>
  <path class="RightFoot-Lizard0fil636" d="M16896 24005c177,194 630,99 971,213 299,100 377,345 252,488 -126,145 -306,76 -460,51 -150,-23 -303,-85 -424,-49 177,63 791,364 618,803 -89,226 -408,214 -663,10 -311,-249 -694,-450 -946,-419 -343,42 -190,563 -583,572 -600,14 -308,-788 -664,-1201 -43,-70 -57,-204 -18,-292 582,-77 1506,161 1917,-176z" style="fill:#d15660"/>
  <path class="RightFoot-Lizard0fil32" d="M16951 23955c84,92 268,105 469,119 229,16 506,34 687,193 110,95 176,241 128,385 -96,287 -393,216 -620,174 44,31 88,65 128,103 260,243 321,768 -102,820 -176,21 -363,-61 -498,-170 -204,-163 -618,-436 -891,-403 -276,34 -138,562 -589,572 -420,10 -453,-299 -522,-643 -42,-206 -130,-417 -197,-588 -20,-52 -8,-108 45,-121 50,-7 100,40 130,121 53,141 128,373 169,566 59,275 83,523 372,516 323,-7 175,-523 575,-571 322,-40 760,241 1002,435 102,82 251,153 386,137 285,-35 179,-411 17,-562 -187,-176 -460,-252 -477,-309 -12,-39 11,-81 51,-92 130,-39 386,31 538,62 117,23 292,53 342,-95 28,-85 -22,-170 -85,-224 -149,-130 -411,-143 -600,-157 -211,-15 -408,-29 -535,-135 31,-62 55,-97 77,-133z" style="fill:#5d9229"/>
 </g><g id="LeftFoot-Lizard0">
  <metadata id="CorelCorpID_336Corel-Layer"/>
  <path class="LeftFoot-Lizard0fil645" d="M10468 24005c-177,194 -630,99 -971,213 -299,100 -377,345 -253,488 127,145 307,76 460,51 151,-23 304,-85 425,-49 -177,63 -791,364 -619,803 89,226 409,214 664,10 311,-249 694,-450 946,-419 343,42 190,563 583,572 600,14 308,-788 663,-1201 44,-70 58,-204 19,-292 -583,-77 -1506,161 -1917,-176z" style="fill:#987a6d"/>
  <path class="LeftFoot-Lizard0fil32" d="M10412 23955c-83,92 -268,105 -468,119 -229,16 -506,34 -688,193 -109,95 -176,241 -128,385 96,287 394,216 620,174 -44,31 -87,65 -127,103 -260,243 -321,768 102,820 176,21 363,-61 498,-170 203,-163 618,-436 891,-403 276,34 138,562 589,572 419,10 452,-299 522,-643 42,-206 130,-417 196,-588 21,-52 9,-108 -45,-121 -50,-7 -99,40 -130,121 -52,141 -127,373 -168,566 -59,275 -83,523 -372,516 -323,-7 -175,-523 -575,-571 -322,-40 -761,241 -1002,435 -103,82 -251,153 -386,137 -285,-35 -179,-411 -17,-562 187,-176 460,-252 477,-309 12,-39 -11,-81 -51,-92 -130,-39 -386,31 -538,62 -118,23 -292,53 -342,-95 -28,-85 22,-170 85,-224 149,-130 411,-143 600,-157 211,-15 408,-29 535,-135 -31,-62 -55,-97 -78,-133z" style="fill:#df8550"/>
 </g><g id="RightLeg-Lizard0">
  <metadata id="CorelCorpID_330Corel-Layer"/>
  <path class="RightLeg-Lizard0fil639" d="M13682 23167c428,0 1386,122 1321,776 -5,52 -27,166 -34,307 456,84 1272,76 1625,0 415,-193 703,-872 705,-1316 2,-661 -392,-1250 -712,-1596 -352,-381 -2030,-8 -2905,-8l0 1837z" style="fill:#79b482"/>
  <path class="RightLeg-Lizard0fil14" d="M17192 23398c67,-149 106,-306 107,-464 2,-776 -541,-1452 -869,-1753 -19,257 -41,545 -78,871 387,-414 947,878 840,1346z" style="fill:#e385d0"/>
  <path class="RightLeg-Lizard0fil32" d="M15042 24729c32,73 153,5 117,-101 -61,-182 -128,-334 -105,-448 91,-447 -112,-807 -541,-972 -208,-80 -478,-118 -831,-118l0 150c335,0 588,35 777,108 361,138 514,417 435,791 -35,237 15,295 148,590zm1242 -3575c175,139 478,451 693,860 144,273 248,587 247,920 -1,533 -241,1011 -637,1322 634,-260 785,-833 786,-1322 2,-360 -110,-698 -263,-990 -227,-429 -547,-760 -734,-907 -34,-25 -144,-95 -178,-56 -36,41 10,108 86,173z" style="fill:#2294c9"/>
 </g><g id="LeftLeg-Lizard0">
  <metadata id="CorelCorpID_339Corel-Layer"/>
  <path class="LeftLeg-Lizard0fil648" d="M13682 23167c-428,0 -1386,122 -1321,776 5,52 26,166 34,307 -456,84 -1272,76 -1625,0 -415,-193 -704,-872 -705,-1316 -2,-661 392,-1250 712,-1596 352,-381 2030,-8 2905,-8l0 1837z" style="fill:#657eb2"/>
  <path class="LeftLeg-Lizard0fil14" d="M10172 23398c-67,-149 -106,-306 -107,-464 -2,-776 540,-1452 869,-1753 19,257 41,545 78,871 -388,-414 -947,878 -840,1346z" style="fill:#4d3684"/>
  <path class="LeftLeg-Lizard0fil32" d="M12322 24729c-33,73 -153,5 -118,-101 61,-182 129,-334 106,-448 -91,-447 111,-807 541,-972 208,-80 478,-118 831,-118l0 150c-335,0 -588,35 -777,108 -361,138 -514,417 -435,791 35,237 -15,295 -148,590zm-1242 -3575c-175,139 -478,451 -694,860 -143,273 -247,587 -246,920 1,533 241,1011 637,1322 -634,-260 -785,-833 -787,-1322 -1,-360 110,-698 264,-990 226,-429 547,-760 734,-907 34,-25 144,-95 178,-56 36,41 -10,108 -86,173z" style="fill:#f72a45"/>
 </g><g id="RightHand-Lizard0">
 <animateTransform additive="sum" attributeName="transform" dur="10" repeatCount="indefinite" type="translate" values="0;0 200;0;0 200;0;0 200;0;0 200;0"/>
  <metadata id="CorelCorpID_345Corel-Layer"/>
  <path class="RightHand-Lizard0fil655" d="M15421 17507c1371,-107 2467,1307 3017,2266 289,504 -937,1282 -1053,928 -133,-408 -583,-502 -1005,-495 -145,-773 -770,-2364 -959,-2699z" style="fill:#722752"/>
  <path class="RightHand-Lizard0fil14" d="M17408 20600c-414,-340 -751,-361 -1105,-375l143 -846c440,204 921,896 962,1221z" style="fill:#93a522"/>
  <path class="RightHand-Lizard0fil32" d="M16155 17514c-40,-12 -81,11 -93,50 -12,40 11,82 50,94 431,128 825,397 1169,724 463,440 838,982 1093,1427 50,87 177,12 129,-73 -261,-455 -643,-1010 -1119,-1462 -360,-342 -773,-624 -1229,-760zm1159 3210c13,39 55,61 95,48 39,-13 52,-64 39,-103 -48,-207 -228,-359 -429,-441 -192,-78 -421,-101 -641,-97 -41,1 -74,35 -73,76 1,41 35,74 76,74 202,-4 410,17 582,86 162,66 292,177 351,357z" style="fill:#b9d1bf"/>
 </g><g id="LeftHand-Lizard0">
 <animateTransform additive="sum" attributeName="transform" dur="10" repeatCount="indefinite" type="translate" values="0;0 200;0;0 200;0;0 200;0;0 200;0"/>
  <metadata id="CorelCorpID_354Corel-Layer"/>
  <path class="LeftHand-Lizard0fil664" d="M11943 17507c-1371,-107 -2467,1307 -3017,2266 -289,504 937,1282 1052,928 134,-408 584,-502 1006,-495 145,-773 770,-2364 959,-2699z" style="fill:#f37dcc"/>
  <path class="LeftHand-Lizard0fil14" d="M9956 20600c414,-340 751,-361 1105,-375l-143 -846c-440,204 -921,896 -962,1221z" style="fill:#581647"/>
  <path class="LeftHand-Lizard0fil32" d="M11209 17514c39,-12 81,11 93,50 12,40 -11,82 -50,94 -431,128 -825,397 -1169,724 -463,440 -838,982 -1093,1427 -50,87 -178,12 -129,-73 261,-455 643,-1010 1119,-1462 360,-342 773,-624 1229,-760zm-1159 3210c-13,39 -55,61 -95,48 -39,-13 -52,-64 -39,-103 48,-207 228,-359 429,-441 192,-78 420,-101 640,-97 42,1 75,35 74,76 -1,41 -35,74 -76,74 -202,-4 -410,17 -582,86 -162,66 -293,177 -351,357z" style="fill:#1f4db0"/>
 </g><g id="Body-Lizard0">
 <animateTransform additive="sum" attributeName="transform" dur="10" repeatCount="indefinite" type="translate" values="0;0 200;0;0 200;0;0 200;0;0 200;0"/>
  <metadata id="CorelCorpID_363Corel-Layer"/>
  <path class="Body-Lizard0fil674" d="M13682 23042c-1548,0 -2752,-290 -2993,-1956 -146,-1007 384,-2270 980,-3398 748,64 1420,73 2013,73 593,0 1265,-9 2013,-73 596,1128 1126,2391 980,3398 -242,1666 -1445,1956 -2993,1956z" style="fill:#f3c0b2"/>
  <path class="Body-Lizard0fil14" d="M11837 22758c-601,-267 -1017,-766 -1148,-1672 -75,-519 29,-1106 229,-1707 -223,2177 509,3077 919,3379z" style="fill:#843975"/>
  <path class="Body-Lizard0fil32" d="M11012 22052c-250,-321 -348,-641 -397,-955 -59,-377 -24,-998 184,-1319 -78,420 -93,905 -36,1298 50,341 104,571 249,976z" style="fill:#48b27f"/>
  <path class="Body-Lizard0fil675" d="M13682 17761c-911,0 -1281,-25 -2013,-73 238,210 -139,1257 -225,1859 -246,1711 107,3335 2238,3335 2131,0 2484,-1624 2238,-3335 -86,-602 -463,-1649 -225,-1859 -732,48 -1102,73 -2013,73z" style="fill:#cde15a"/>
  <path class="Body-Lizard0fil14" d="M15527 22758c601,-267 1016,-766 1148,-1672 75,-519 -29,-1106 -229,-1707 223,2177 -509,3077 -919,3379z" style="fill:#98c36d"/>
  <path class="Body-Lizard0fil32" d="M16352 22052c250,-321 347,-641 397,-955 59,-377 24,-998 -184,-1319 78,420 93,905 36,1298 -50,341 -104,571 -249,976z" style="fill:#ee509f"/>
 </g><g id="RightPaw-Lizard0">
 <animateTransform additive="sum" attributeName="transform" dur="10" repeatCount="indefinite" type="translate" values="0;0 200;0;0 200;0;0 200;0;0 200;0"/>
  <metadata id="CorelCorpID_351Corel-Layer"/>
  <path class="RightPaw-Lizard0fil661" d="M18407 19719c160,284 636,568 871,846 165,195 249,575 80,649 -149,66 -234,-108 -348,-218 -112,-108 -200,-191 -255,-121 94,89 123,234 200,476 89,279 3,682 -262,648 -142,-19 -126,-223 -244,-454 -92,-182 -171,-298 -384,-304 -138,-4 -217,58 -274,139 -100,142 -35,313 -193,347 -194,42 -272,-288 -250,-544 21,-247 62,-507 -9,-582 605,-42 1153,-458 1068,-882z" style="fill:#1e81cc"/>
  <path class="RightPaw-Lizard0fil32" d="M18467 19678c-21,-36 -66,-49 -102,-28 -36,20 -47,64 -27,100 13,23 28,49 44,71 107,145 280,276 455,408 150,114 301,228 399,344 84,99 164,261 169,392 2,54 -10,100 -40,126 -68,57 -155,5 -221,-85 -68,-94 -155,-212 -277,-234 -166,-31 -205,68 -150,146 72,103 161,338 196,566 16,103 19,202 2,282 -15,68 -43,121 -91,144 -30,16 -70,21 -122,14 -42,-5 -62,-72 -91,-165 -23,-73 -49,-158 -95,-248 -50,-98 -96,-179 -163,-239 -71,-65 -159,-102 -286,-106 -84,-3 -151,16 -206,47 -56,32 -97,75 -131,124 -50,70 -65,141 -78,204 -12,56 -22,104 -68,113 -16,3 -30,4 -42,3 -27,-2 -48,-16 -64,-38 -21,-29 -36,-71 -46,-120 -19,-94 -18,-208 -9,-310 5,-64 12,-117 19,-167 23,-169 45,-290 -27,-448 -17,-38 -66,-65 -103,-48 -38,17 -55,61 -38,99 54,119 39,232 20,377 -8,55 -16,114 -21,175 -9,113 -10,242 12,351 14,69 37,132 73,180 41,56 98,92 172,98 26,2 54,1 83,-5 143,-29 162,-120 185,-229 11,-49 22,-104 54,-149 23,-32 49,-61 82,-80 33,-18 75,-29 129,-28 86,3 144,27 189,67 49,45 88,113 130,197 41,80 65,157 86,224 45,147 78,252 215,270 83,10 152,-1 208,-29 93,-47 147,-136 170,-247 21,-99 19,-216 0,-336 -28,-188 -97,-388 -171,-523 42,11 114,93 156,151 101,141 269,235 415,116 71,-58 97,-147 93,-245 -6,-166 -98,-358 -204,-484 -109,-129 -266,-248 -423,-366 -189,-144 -378,-287 -460,-432z" style="fill:#d81ff0"/>
 </g><g id="LeftPaw-Lizard0">
 <animateTransform additive="sum" attributeName="transform" dur="10" repeatCount="indefinite" type="translate" values="0;0 200;0;0 200;0;0 200;0;0 200;0"/>
  <metadata id="CorelCorpID_360Corel-Layer"/>
  <path class="LeftPaw-Lizard0fil671" d="M8957 19719c-161,284 -636,568 -871,846 -165,195 -249,575 -80,649 148,66 234,-108 348,-218 112,-108 200,-191 255,-121 -94,89 -123,234 -200,476 -89,279 -3,682 262,648 142,-19 126,-223 244,-454 92,-182 171,-298 384,-304 138,-4 217,58 274,139 100,142 35,313 192,347 195,42 272,-288 251,-544 -21,-247 -62,-507 9,-582 -605,-42 -1153,-458 -1068,-882z" style="fill:#db7433"/>
  <path class="LeftPaw-Lizard0fil32" d="M8897 19678c21,-36 66,-49 102,-28 36,20 47,64 27,100 -13,23 -28,49 -44,71 -107,145 -280,276 -455,408 -150,114 -301,228 -399,344 -84,99 -164,261 -169,392 -2,54 10,100 40,126 68,57 155,5 221,-85 68,-94 155,-212 277,-234 166,-31 205,68 150,146 -72,103 -162,338 -196,566 -16,103 -19,202 -2,282 15,68 43,121 91,144 30,16 70,21 122,14 42,-5 62,-72 91,-165 23,-73 49,-158 95,-248 50,-98 96,-179 163,-239 71,-65 159,-102 286,-106 84,-3 151,16 206,47 56,32 97,75 131,124 50,70 65,141 78,204 12,56 22,104 68,113 16,3 29,4 41,3 28,-2 49,-16 65,-38 21,-29 36,-71 46,-120 19,-94 18,-208 9,-310 -5,-64 -12,-117 -19,-167 -23,-169 -45,-290 26,-448 17,-38 66,-65 104,-48 38,17 55,61 38,99 -54,119 -39,232 -20,377 8,55 16,114 21,175 9,113 10,242 -12,351 -14,69 -37,132 -73,180 -42,56 -98,92 -172,98 -26,2 -54,1 -83,-5 -143,-29 -162,-120 -185,-229 -11,-49 -22,-104 -54,-149 -23,-32 -49,-61 -83,-80 -32,-18 -74,-29 -128,-28 -86,3 -144,27 -189,67 -49,45 -88,113 -131,197 -40,80 -64,157 -85,224 -45,147 -78,252 -215,270 -83,10 -152,-1 -208,-29 -93,-47 -147,-136 -170,-247 -21,-99 -19,-216 -1,-336 29,-188 98,-388 172,-523 -43,11 -114,93 -156,151 -101,141 -269,235 -416,116 -70,-58 -96,-147 -92,-245 6,-166 98,-358 204,-484 109,-129 266,-248 423,-366 189,-144 378,-287 460,-432z" style="fill:#c5105f"/>
 </g><g id="NecklaceTornShirtGreen-Medium">
 <animateTransform additive="sum" attributeName="transform" dur="10" repeatCount="indefinite" type="translate" values="0;0 200;0;0 200;0;0 200;0;0 200;0"/>
  <metadata id="CorelCorpID_1Corel-Layer"/>
  <path class="NecklaceTornShirtGreen-Mediumfil7" d="M13682 18647c658,0 2106,-245 1878,-1292 1232,-64 1965,547 2452,984 40,498 -620,1484 -1420,1443 419,783 542,2091 542,2091 -868,673 -2173,928 -3452,928 -1280,0 -2584,-255 -3452,-928 0,0 123,-1308 542,-2091 -800,41 -1460,-945 -1420,-1443 487,-437 1220,-1048 2452,-984 -228,1047 1220,1292 1878,1292zm-333 224c-277,229 -967,753 -1160,652 -247,60 -410,138 -477,171 22,-127 203,-274 387,-425 175,-49 406,-58 634,-218 203,-142 461,-160 616,-180zm1178 3258c209,-147 658,-582 898,-748 7,75 -49,109 -19,182 147,-99 287,-237 421,-317 -42,89 -123,265 -164,356 163,46 282,69 284,184 -130,-13 -477,85 -607,71 -56,106 -113,211 -169,317 -27,-24 -28,-108 -56,-131 -187,8 -401,77 -588,86zm512 -1313c17,-50 351,-288 480,-272 97,46 328,-90 367,-119 -3,47 -86,288 -90,335 -114,-24 -560,-16 -757,56zm70 208c-205,101 -486,172 -744,289 -199,91 -379,234 -526,292 -125,49 -193,20 -243,47 -88,48 -558,215 -643,437 350,-88 701,-176 1051,-265 93,5 185,9 278,14 57,-80 115,-159 172,-239 95,3 190,5 284,7 124,-194 247,-388 371,-582zm-979 -582c-170,79 -233,90 -347,144 -120,56 -110,-23 -231,32 -460,210 -1469,842 -1922,1067 377,-66 754,-132 1131,-198 128,26 255,53 383,79 -6,-57 -74,-152 -80,-210 144,-43 276,-73 424,-48 194,-328 428,-577 642,-866zm1445 -873c-234,152 -444,178 -678,330 73,58 -65,175 -82,282 141,-80 318,-165 393,-215 52,1 190,2 243,3 9,-103 115,-298 124,-400zm-640 -474c-373,78 -645,308 -1185,321 -161,4 -263,-135 -481,15 -131,90 -324,228 -436,353 -75,84 -63,148 -160,243 -327,318 -757,679 -984,957 280,-106 467,-184 747,-290 119,7 374,-50 493,-44 62,-101 81,-166 143,-268 319,-114 639,-229 959,-344 301,-314 602,-629 904,-943z" style="fill:#9bb886"/>
  <path class="NecklaceTornShirtGreen-Mediumfil1 NecklaceTornShirtGreen-Mediumstr1" d="M13682 18647c658,0 2106,-245 1878,-1292 1232,-64 1965,547 2452,984 40,498 -620,1484 -1420,1443 419,783 542,2091 542,2091 -868,673 -2173,928 -3452,928 -1280,0 -2584,-255 -3452,-928 0,0 123,-1308 542,-2091 -800,41 -1460,-945 -1420,-1443 487,-437 1220,-1048 2452,-984 -228,1047 1220,1292 1878,1292z" style="fill:#398d6b"/>
  <path class="NecklaceTornShirtGreen-Mediumfil2" d="M13995 22796c-104,3 -209,5 -313,5 -1280,0 -2584,-255 -3452,-928 0,0 123,-1308 542,-2091l351 -665c0,0 -905,2070 83,2793 985,721 2779,885 2789,886z" style="fill:#653bc0"/>
  <g>
   <path class="NecklaceTornShirtGreen-Mediumfil3" d="M13413 18948c-171,141 -496,392 -769,545 -180,102 -347,162 -460,134 -106,27 -194,57 -265,84 -74,29 -129,56 -161,72 -50,26 -110,6 -135,-43 -11,-22 -13,-46 -8,-68 31,-160 218,-314 412,-472l9 -8c11,-9 23,-15 36,-19l0 0c47,-13 97,-23 149,-34 140,-29 302,-62 455,-169 204,-143 446,-172 612,-192 34,-4 29,-3 49,-6 54,-7 104,32 111,86 5,36 -10,69 -35,90zm-64 -77c-277,229 -967,753 -1160,652 -247,60 -410,138 -477,171 22,-127 203,-274 387,-425 175,-49 406,-58 634,-218 203,-142 461,-160 616,-180zm2478 2375c-42,89 -123,265 -164,356 163,46 282,69 284,184 -130,-13 -477,85 -607,71 -56,106 -113,211 -169,317 -27,-24 -28,-108 -56,-131 -187,8 -401,77 -588,86 209,-147 658,-582 898,-748 7,75 -49,109 -19,182 147,-99 287,-237 421,-317zm-308 -702c97,46 328,-90 367,-119 -3,47 -86,288 -90,335 -114,-24 -560,-16 -757,56 17,-50 351,-288 480,-272zm-410 480c-205,101 -486,172 -744,289 -199,91 -379,234 -526,292 -125,49 -193,20 -243,47 -88,48 -558,215 -643,437 350,-88 701,-176 1051,-265 93,5 185,9 278,14 57,-80 115,-159 172,-239 95,3 190,5 284,7 124,-194 247,-388 371,-582zm-1965 542c-6,-57 -74,-152 -80,-210 144,-43 276,-73 424,-48 194,-328 428,-577 642,-866 -170,79 -233,90 -347,144 -120,56 -110,-23 -231,32 -460,210 -1469,842 -1922,1067 377,-66 754,-132 1131,-198 128,26 255,53 383,79zm1753 -1667c73,58 -65,175 -82,282 141,-80 318,-165 393,-215 52,1 190,2 243,3 9,-103 115,-298 124,-400 -234,152 -444,178 -678,330zm-866 139c301,-314 602,-629 904,-943 -373,78 -645,308 -1185,321 -161,4 -263,-135 -481,15 -131,90 -324,228 -436,353 -75,84 -63,148 -160,243 -327,318 -757,679 -984,957 280,-106 467,-184 747,-290 119,7 374,-50 493,-44 62,-101 81,-166 143,-268 319,-114 639,-229 959,-344zm443 2006c95,-67 245,-199 400,-335 178,-157 364,-320 495,-410 45,-31 107,-20 138,26 6,8 10,17 13,26l22 -17c78,-65 155,-127 233,-174 48,-28 109,-13 137,34 18,30 18,64 5,93l0 0c-42,91 -63,136 -82,178 -10,22 -21,46 -33,73 145,43 241,91 245,246 1,55 -42,101 -97,102 -4,0 -9,0 -12,-1l0 1c-51,-6 -164,14 -277,34 -93,17 -187,33 -261,37l-141 264c-26,48 -86,67 -135,41 -7,-4 -13,-8 -19,-13l0 0c-32,-28 -44,-64 -54,-101 -67,8 -139,22 -211,36 -104,20 -207,39 -309,44 -55,3 -101,-40 -104,-95 -2,-37 17,-70 47,-89zm504 -1307c52,-57 158,-141 263,-200 103,-58 213,-101 290,-91 11,1 21,4 30,8l0 0c9,4 38,-2 73,-14 84,-27 172,-80 194,-96 45,-32 107,-22 139,23 14,20 20,43 18,66l1 0c-3,34 -26,111 -49,188 -20,67 -40,134 -41,146 -4,55 -52,97 -107,92 -6,0 -12,-1 -18,-2 -60,-11 -215,-13 -375,-2 -124,10 -247,27 -323,54 -51,19 -109,-8 -127,-59 -15,-42 -1,-87 32,-113zm-261 334c127,-45 248,-87 348,-136l0 0c30,-15 67,-14 97,5 47,30 60,91 31,137l-369 580c-17,30 -50,49 -87,49l-233 -6 -139 192c-18,29 -51,47 -88,45l-262 -12 -1038 261 0 0c-20,4 -40,4 -60,-4 -52,-20 -77,-78 -57,-129 85,-221 440,-378 617,-456 34,-15 61,-27 72,-33 41,-22 76,-24 120,-26 33,-2 77,-4 134,-26 64,-26 143,-74 229,-127 89,-55 185,-114 291,-162 132,-60 266,-107 394,-152zm-829 -636c52,-20 110,-42 200,-84l0 0c32,-14 71,-12 101,11 45,33 54,95 21,139 -69,94 -145,188 -221,283 -143,179 -286,358 -411,569 -19,38 -62,61 -107,54 -63,-11 -123,-10 -183,-2 -30,4 -60,11 -92,18 22,44 43,88 48,132l-1 0c2,10 1,21 -1,31 -11,54 -64,89 -118,78l-364 -75 -1113 195 0 0c-43,7 -87,-14 -107,-54 -24,-50 -4,-110 45,-134 200,-99 514,-281 839,-470 404,-235 827,-480 1087,-599 91,-41 134,-32 178,-22 11,2 23,5 52,-9 57,-27 100,-43 147,-61zm1311 -793c107,-43 213,-86 322,-157l0 0c18,-12 40,-18 63,-15 55,4 95,53 90,108 -6,65 -37,146 -68,227 -26,68 -53,136 -56,173 -5,51 -49,92 -101,90 -27,0 -74,0 -120,-1 -34,0 -67,0 -93,-1 -46,28 -110,61 -180,98 -61,32 -127,66 -191,102 -19,12 -43,17 -66,13 -55,-9 -92,-60 -83,-114 10,-61 40,-113 69,-162 14,-23 75,-6 50,-25l1 0c-9,-7 -16,-15 -22,-24 -30,-46 -17,-108 29,-138 125,-82 241,-128 356,-174zm-694 -508c133,-54 262,-106 409,-137l0 0c31,-6 65,2 90,26 39,38 41,101 2,141l-903 944 -1 -1c-10,11 -23,20 -38,25l-925 332c-19,34 -34,65 -49,96 -21,43 -42,86 -74,140 -18,32 -53,52 -92,50 -50,-3 -139,9 -228,21 -88,12 -176,24 -243,23 -121,46 -237,92 -354,138 -111,44 -221,88 -375,146l0 0c-32,12 -69,7 -98,-16 -42,-35 -49,-98 -14,-141 156,-192 401,-417 644,-641 121,-111 242,-222 347,-325 41,-39 57,-74 74,-108 19,-41 38,-81 82,-130 61,-68 142,-138 224,-202 77,-60 161,-119 230,-166 185,-128 302,-92 419,-55 39,12 78,24 115,23 321,-8 546,-98 758,-183z" style="fill:#40061f"/>
  </g>
  <path class="NecklaceTornShirtGreen-Mediumfil4" d="M13349 18871c-51,43 -117,95 -192,153 -83,30 -171,74 -263,139 -222,156 -446,165 -617,212 -91,75 -200,142 -288,205 -137,46 -230,91 -277,114 22,-127 203,-274 387,-425 175,-49 406,-58 634,-218 203,-142 461,-160 616,-180zm1178 3258c209,-147 658,-582 898,-748 7,75 -49,109 -19,182 147,-99 287,-237 421,-317l-19 40c-117,89 -193,296 -328,387 -494,129 -191,291 -594,400 -121,23 -245,50 -359,56zm1149 -523c156,43 269,68 271,180l0 0c-10,-103 -123,-125 -276,-168l5 -12zm-496 551l-9 17c-26,-23 -28,-98 -51,-127 6,0 12,-1 18,-1 22,19 26,78 42,111zm-141 -1341c17,-50 351,-288 480,-272 97,46 328,-90 367,-119 -1,11 -6,32 -13,58 -63,40 -257,146 -342,106 -95,-12 -306,118 -409,203 -30,7 -58,15 -83,24zm70 208c-205,101 -486,172 -744,289 -199,91 -379,234 -526,292 -125,49 -193,20 -243,47 -88,48 -558,215 -643,437l94 -24c118,-197 657,-288 739,-333 49,-26 114,3 236,-45 143,-57 319,-196 512,-284 223,-102 364,-220 533,-314l42 -65zm-979 -582c-170,79 -233,90 -347,144 -120,56 -110,-23 -231,32 -460,210 -1469,842 -1922,1067l222 -39c480,-242 1377,-710 1792,-900 118,-53 108,24 225,-31 48,-22 82,-54 118,-88 48,-61 96,-122 143,-185zm1445 -873c-234,152 -444,178 -678,330 73,58 -65,175 -82,282 45,-26 93,-52 141,-77 38,-31 63,-57 29,-83 182,-118 349,-158 525,-245 30,-77 60,-154 65,-207zm-640 -474c-373,78 -645,308 -1185,321 -161,4 -263,-135 -481,15 -131,90 -324,228 -436,353 -75,84 -63,148 -160,243 -327,318 -757,679 -984,957 82,-31 157,-60 227,-87 244,-238 628,-494 899,-759 95,-92 83,-154 156,-236 109,-122 303,-156 431,-244 211,-146 258,-63 414,-67 448,-11 702,-248 992,-364l127 -132z" style="fill:#dc66ea"/>
  <path class="NecklaceTornShirtGreen-Mediumfil1" d="M13349 18871c-277,229 -967,753 -1160,652 -247,60 -410,138 -477,171 22,-127 203,-274 387,-425 175,-49 406,-58 634,-218 203,-142 461,-160 616,-180zm1178 3258c209,-147 658,-582 898,-748 7,75 -49,109 -19,182 147,-99 287,-237 421,-317 -42,89 -123,265 -164,356 163,46 282,69 284,184 -130,-13 -477,85 -607,71 -56,106 -113,211 -169,317 -27,-24 -28,-108 -56,-131 -187,8 -401,77 -588,86zm512 -1313c17,-50 351,-288 480,-272 97,46 328,-90 367,-119 -3,47 -86,288 -90,335 -114,-24 -560,-16 -757,56zm70 208c-205,101 -486,172 -744,289 -199,91 -379,234 -526,292 -125,49 -193,20 -243,47 -88,48 -558,215 -643,437 350,-88 701,-176 1051,-265 93,5 185,9 278,14 57,-80 115,-159 172,-239 95,3 190,5 284,7 124,-194 247,-388 371,-582zm-979 -582c-170,79 -233,90 -347,144 -120,56 -110,-23 -231,32 -460,210 -1469,842 -1922,1067 377,-66 754,-132 1131,-198 128,26 255,53 383,79 -6,-57 -74,-152 -80,-210 144,-43 276,-73 424,-48 194,-328 428,-577 642,-866zm1445 -873c-234,152 -444,178 -678,330 73,58 -65,175 -82,282 141,-80 318,-165 393,-215 52,1 190,2 243,3 9,-103 115,-298 124,-400zm-640 -474c-373,78 -645,308 -1185,321 -161,4 -263,-135 -481,15 -131,90 -324,228 -436,353 -75,84 -63,148 -160,243 -327,318 -757,679 -984,957 280,-106 467,-184 747,-290 119,7 374,-50 493,-44 62,-101 81,-166 143,-268 319,-114 639,-229 959,-344 301,-314 602,-629 904,-943z" style="fill:#8599b2"/>
  <path class="NecklaceTornShirtGreen-Mediumfil5" d="M16220 19111c23,-20 175,164 294,352 72,116 129,253 145,286 18,37 3,82 -34,100 -37,18 -82,3 -100,-34 -19,-38 -69,-180 -129,-303 -92,-191 -198,-380 -176,-401z" style="fill:#07ba24"/>
  <path class="NecklaceTornShirtGreen-Mediumfil6" d="M17857 18910c-387,494 -1164,789 -1616,207 -137,-105 262,486 398,758 -15,-31 -31,-63 -47,-93 547,28 1028,-424 1265,-872z" style="fill:#0249f0"/>
  <path class="NecklaceTornShirtGreen-Mediumfil5" d="M11144 19111c-23,-20 -175,164 -294,352 -72,116 -129,253 -146,286 -18,37 -2,82 35,100 37,18 82,3 100,-34 18,-38 69,-180 128,-303 93,-191 199,-380 177,-401z" style="fill:#b56caa"/>
  <path class="NecklaceTornShirtGreen-Mediumfil6" d="M9506 18910c388,494 1164,789 1617,207 136,-105 -262,486 -399,758 16,-31 32,-63 48,-93 -547,28 -1028,-424 -1266,-872z" style="fill:#64e8f3"/>
 </g><g id="BraceletLeather-Medium">
 <animateTransform additive="sum" attributeName="transform" dur="10" repeatCount="indefinite" type="translate" values="0;0 200;0;0 200;0;0 200;0;0 200;0"/>
  <metadata id="CorelCorpID_17Corel-Layer"/>
  <path class="BraceletLeather-Mediumfil42new BraceletLeather-Mediumstr3new" d="M8689 19690c-86,-160 -115,-250 -201,-410 -29,-75 3,-239 44,-232 104,3 219,4 324,-2 3,181 43,415 96,612 -87,11 -175,21 -263,32z" style="fill:#d8723d"/>
  <path class="BraceletLeather-Mediumfil43new" d="M8689 19690c-86,-160 -115,-250 -201,-410 -29,-75 3,-239 44,-232l8 0c53,219 164,421 282,626l-133 16z" style="fill:#e4582d"/>
  <path class="BraceletLeather-Mediumfil33new BraceletLeather-Mediumstr3new" d="M8689 19690c-86,-160 -115,-250 -201,-410 -29,-75 3,-239 44,-232 104,3 219,4 324,-2 3,181 43,415 96,612 -87,11 -175,21 -263,32z" style="fill:#5b3cd7"/>
  <path class="BraceletLeather-Mediumfil44new BraceletLeather-Mediumstr3new" d="M8645 19884c-170,-64 -251,-113 -421,-177 -71,-38 -153,-183 -118,-204 81,-66 168,-141 243,-214 121,135 304,285 474,399 -59,66 -118,131 -178,196z" style="fill:#120ea3"/>
  <path class="BraceletLeather-Mediumfil43new" d="M8645 19884c-170,-64 -251,-113 -421,-177 -71,-38 -153,-183 -118,-204l6 -5c184,130 400,211 623,288l-90 98z" style="fill:#2709d3"/>
  <path class="BraceletLeather-Mediumfil33new BraceletLeather-Mediumstr3new" d="M8645 19884c-170,-64 -251,-113 -421,-177 -71,-38 -153,-183 -118,-204 81,-66 168,-141 243,-214 121,135 304,285 474,399 -59,66 -118,131 -178,196z" style="fill:#e00c35"/>
  <path class="BraceletLeather-Mediumfil45new BraceletLeather-Mediumstr4new" d="M8734 19936c-151,-67 -255,-143 -151,-272 117,-147 267,-135 481,-33 407,194 958,608 1165,923 91,139 91,306 -39,409 -129,103 -210,-20 -308,-153 -243,-331 -765,-704 -1148,-874z" style="fill:#5b5f77"/>
  <path class="BraceletLeather-Mediumfil46new" d="M8734 19936c-79,-35 -145,-73 -176,-119 77,-41 167,-29 240,0 506,201 953,539 1254,974 48,70 58,140 38,210 -76,-6 -138,-95 -208,-191 -243,-331 -765,-704 -1148,-874z" style="fill:#c5ad0d"/>
  <path class="BraceletLeather-Mediumfil47new BraceletLeather-Mediumstr4new" d="M8734 19936c-151,-67 -255,-143 -151,-272 117,-147 267,-135 481,-33 407,194 958,608 1165,923 91,139 91,306 -39,409 -129,103 -210,-20 -308,-153 -243,-331 -765,-704 -1148,-874z" style="fill:#ab7b09"/>
  <path class="BraceletLeather-Mediumfil48new BraceletLeather-Mediumstr3new" d="M18674 19690c87,-160 116,-250 202,-410 29,-75 -3,-239 -44,-232 -104,3 -219,4 -324,-2 -3,181 -43,415 -97,612 88,11 176,21 263,32z" style="fill:#10a59b"/>
  <path class="BraceletLeather-Mediumfil43new" d="M18674 19690c87,-160 116,-250 202,-410 29,-75 -3,-239 -44,-232l-8 0c-53,219 -164,421 -282,626l132 16z" style="fill:#bbb8bd"/>
  <path class="BraceletLeather-Mediumfil33new BraceletLeather-Mediumstr3new" d="M18674 19690c87,-160 116,-250 202,-410 29,-75 -3,-239 -44,-232 -104,3 -219,4 -324,-2 -3,181 -43,415 -97,612 88,11 176,21 263,32z" style="fill:#92db84"/>
  <path class="BraceletLeather-Mediumfil49new BraceletLeather-Mediumstr3new" d="M18718 19884c170,-64 252,-113 422,-177 71,-38 153,-183 118,-204 -81,-66 -168,-141 -243,-214 -121,135 -305,285 -475,399 60,66 119,131 178,196z" style="fill:#9d4a53"/>
  <path class="BraceletLeather-Mediumfil43new" d="M18718 19884c170,-64 252,-113 422,-177 71,-38 153,-183 118,-204l-6 -5c-184,130 -400,211 -623,288l89 98z" style="fill:#2e1439"/>
  <path class="BraceletLeather-Mediumfil33new BraceletLeather-Mediumstr3new" d="M18718 19884c170,-64 252,-113 422,-177 71,-38 153,-183 118,-204 -81,-66 -168,-141 -243,-214 -121,135 -305,285 -475,399 60,66 119,131 178,196z" style="fill:#56a0c1"/>
  <path class="BraceletLeather-Mediumfil50new BraceletLeather-Mediumstr4new" d="M18630 19936c151,-67 255,-143 151,-272 -117,-147 -267,-135 -481,-33 -407,194 -958,608 -1165,923 -91,139 -91,306 39,409 129,103 210,-20 307,-153 244,-331 766,-704 1149,-874z" style="fill:#c784ce"/>
  <path class="BraceletLeather-Mediumfil46new" d="M18630 19936c79,-35 145,-73 175,-119 -76,-41 -166,-29 -239,0 -507,201 -954,539 -1254,974 -48,70 -58,140 -38,210 76,-6 137,-95 207,-191 244,-331 766,-704 1149,-874z" style="fill:#72144a"/>
  <path class="BraceletLeather-Mediumfil47new BraceletLeather-Mediumstr4new" d="M18630 19936c151,-67 255,-143 151,-272 -117,-147 -267,-135 -481,-33 -407,194 -958,608 -1165,923 -91,139 -91,306 39,409 129,103 210,-20 307,-153 244,-331 766,-704 1149,-874z" style="fill:#d72535"/>
 </g><g id="Head-Lizard5">
 <animateTransform additive="sum" attributeName="transform" dur="10" repeatCount="indefinite" type="translate" values="0;0 200;0;0 200;0;0 200;0;0 200;0"/>
  <metadata id="CorelCorpID_375Corel-Layer"/>
  <path class="Head-Lizard5fil695" d="M13682 17781c-1487,0 -2914,-41 -4017,-516 -1362,-586 -2343,-1831 -2417,-2586 -80,-810 608,-2949 1368,-3679 -653,-856 -102,-1988 66,-1855 102,80 540,389 1455,-205 1009,-673 2198,-1146 3545,-1146 1347,0 2536,473 3545,1146 915,594 1353,285 1455,205 168,-133 719,999 66,1855 760,730 1448,2869 1368,3679 -74,755 -1055,2000 -2417,2586 -1103,475 -2530,516 -4017,516z" style="fill:#32ec99"/>
  <path class="Head-Lizard5fil688" d="M13654 11822c1933,0 3500,1254 3500,2800 0,1546 -1567,2800 -3500,2800 -1933,0 -3500,-1254 -3500,-2800 0,-1546 1567,-2800 3500,-2800z" style="fill:#f67575"/>
  <path class="Head-Lizard5fil14" d="M12214 17786c-2328,-50 -4184,-995 -4921,-2827 -117,-290 -134,-1223 523,-2495 -1012,3268 2148,5078 4398,5322z" style="fill:#96c0c1"/>
  <path class="Head-Lizard5fil32" d="M12283 17788c-803,68 -1903,-134 -2648,-454 -648,-279 -1211,-705 -1635,-1158 -483,-517 -786,-1073 -827,-1489 -43,-441 133,-1258 422,-2037 239,-642 576,-1278 914,-1643 -292,-357 -336,-966 -251,-1399 45,-232 237,-722 484,-517 206,171 705,210 1355,-214l0 0c624,-416 1414,-861 2174,-904 -264,74 -531,179 -804,305 -454,209 -911,472 -1288,724l-1 1c-671,435 -1165,471 -1514,221 -77,-55 -194,148 -253,447 -76,383 -57,923 259,1278 29,29 28,77 -2,105 -348,335 -683,977 -933,1648 -282,760 -454,1551 -413,1970 38,385 326,908 788,1402 410,439 956,852 1584,1122 683,294 1773,519 2589,592z" style="fill:#d28e58"/>
  <path class="Head-Lizard5fil696" d="M13584 13856c-52,-76 -4,-218 54,-307 38,-58 149,-102 182,-53 56,82 66,229 3,324 -49,75 -195,100 -239,36zm649 -383c-92,-9 -170,-137 -201,-239 -19,-66 18,-180 77,-174 99,10 218,97 250,206 26,86 -48,214 -126,207zm-669 -547c68,123 -61,256 -98,471 -18,104 -196,128 -258,66 -221,-219 -229,-402 -135,-544 74,-111 435,-96 491,7zm234 -924c14,-108 148,-347 259,-374 176,-42 429,-4 531,105 111,118 -74,408 -121,597 -34,137 -183,301 -320,340 -450,126 -374,-485 -349,-668zm-886 -427c-75,132 -47,362 -27,551 12,108 107,431 193,457 136,41 337,-167 415,-276 85,-119 64,-332 27,-520 -27,-137 -142,-307 -249,-339 -120,-35 -298,21 -359,127zm1899 -625c67,112 -62,232 -98,426 -18,95 -197,117 -259,61 -221,-199 -228,-364 -134,-492 74,-101 434,-87 491,5zm-1866 -232c152,-361 160,-655 348,-856 108,-115 345,-147 469,-51 198,154 501,527 500,778 -2,272 -300,463 -508,639 -151,127 -434,164 -589,43 -174,-137 -305,-349 -220,-553zm-683 534c-108,-71 -43,-235 -94,-427 -24,-93 128,-189 208,-165 285,84 362,230 332,387 -23,122 -355,265 -446,205zm1782 -1651c-93,-9 -171,-137 -202,-239 -19,-66 18,-180 77,-174 99,10 218,97 251,206 25,86 -49,214 -126,207zm-903 -80c-51,-29 -57,-116 -41,-173 20,-67 69,-146 138,-158 51,-10 92,62 107,112 17,55 19,131 -20,173 -43,46 -129,77 -184,46zm-1145 354c20,162 204,306 352,425 85,68 397,219 495,162 157,-92 203,-422 202,-570 -1,-162 -167,-298 -332,-402 -119,-76 -344,-98 -466,-26 -137,81 -267,281 -251,411zm-208 -429c68,111 -61,232 -98,426 -18,94 -196,116 -259,60 -221,-198 -228,-363 -134,-492 74,-101 435,-87 491,6zm2971 1090c-162,-24 -301,-211 -416,-363 -66,-87 -140,-350 -80,-447 95,-155 415,-313 563,-308 162,5 236,244 336,411 72,121 89,346 14,467 -85,135 -287,259 -417,240zm795 -531c-108,-71 -44,-235 -94,-427 -24,-92 127,-189 208,-165 284,84 362,230 332,387 -23,122 -355,265 -446,205z" style="fill:#0997ac"/>
  <path class="Head-Lizard5fil32" d="M15081 17788c802,68 1903,-134 2648,-454 648,-279 1211,-705 1635,-1158 483,-517 785,-1073 826,-1489 44,-441 -132,-1258 -421,-2037 -239,-642 -577,-1278 -914,-1643 292,-357 335,-966 251,-1399 -45,-232 -237,-722 -484,-517 -206,171 -705,210 -1355,-214l0 0c-624,-416 -1414,-861 -2174,-904 264,74 531,179 803,305 455,209 911,472 1289,724l1 1c671,435 1165,471 1514,221 77,-55 194,148 253,447 76,383 57,923 -259,1278 -29,29 -28,77 2,105 348,335 683,977 933,1648 282,760 454,1551 413,1970 -38,385 -327,908 -788,1402 -410,439 -956,852 -1585,1122 -682,294 -1772,519 -2588,592z" style="fill:#f16072"/>
 </g><g id="Mouth-Lizard0">
 <animateTransform additive="sum" attributeName="transform" dur="10" repeatCount="indefinite" type="translate" values="0;0 200;0;0 200;0;0 200;0;0 200;0"/>
  <metadata id="CorelCorpID_378Corel-Layer"/>
  <path class="Mouth-Lizard0fil708" d="M13682 17844c-963,0 -1475,-57 -2157,-142 -844,-197 -1780,-993 -1989,-1942 580,802 2764,3 4146,5 1382,-2 3502,822 4146,-5 -209,949 -1146,1745 -1990,1942 -681,85 -1193,142 -2156,142z" style="fill:#9bd224"/>
  <path class="Mouth-Lizard0fil22 Mouth-Lizard0str0" d="M13682 15765c-1207,0 -3628,825 -4146,-5" style="fill:#828a37"/>
  <path class="Mouth-Lizard0fil22 Mouth-Lizard0str11" d="M13682 15765c1207,0 3628,825 4146,-5" style="fill:#1bd514"/>
 </g><g id="Eyes-Lizard5">
 <animateTransform additive="sum" attributeName="transform" dur="10" repeatCount="indefinite" type="translate" values="0;0 200;0;0 200;0;0 200;0;0 200;0"/>
  <metadata id="CorelCorpID_392Corel-Layer"/>
  <path class="Eyes-Lizard5fil14" d="M7970 13978c-146,-775 118,-2127 1014,-3020 -1331,-964 1812,-1105 2599,-217 786,888 1089,2831 276,3970 -989,1387 -3597,811 -3889,-733z"/>
  <g>
        <animateTransform additive="sum" attributeName="transform" dur="10" repeatCount="indefinite" type="translate" values="0;0;0;0;0;0;0;0;0;0;0;0;0;0;0;0;0;0;0;0;0;0;0;0;0;0;0;0;0;0;0;0;0;0;0;0;0;0;0;0;0;0;0;0;0;0;0;0;0;0;0;0;0;0;0;0;0;0;0;0;0;0;0;0;0;0;0;0;0;0;0;0;0;0;0;0;0;0;0;0;0;0;0;0;0;0;0;0;0;0;0 13300;0"/> 
        <g>
            <animateTransform additive="sum" attributeName="transform" dur="10" repeatCount="indefinite" type="scale" values="1;1;1;1;1;1;1;1;1;1;1;1;1;1;1;1;1;1;1;1;1;1;1;1;1;1;1;1;1;1;1;1;1;1;1;1;1;1;1;1;1;1;1;1;1;1;1;1;1;1;1;1;1;1;1;1;1;1;1;1;1;1;1;1;1;1;1;1;1;1;1;1;1;1;1;1;1;1;1;1;1;1;1;1;1;1;1;1;1;1;1 0.01;1"/> 
            <path class="Eyes-Lizard5fil758" d="M8452 14385c557,808 2256,711 2914,44 644,-652 482,-2662 45,-3311 -381,-566 -1248,-614 -1803,-283 -1379,822 -1782,2642 -1156,3550z"/>
            <path class="Eyes-Lizard5fil759" d="M8605 14560c16,15 33,29 50,43 415,-289 906,-584 1472,-830 -440,351 -797,709 -1086,1050 23,9 47,17 70,25 317,-304 678,-601 1090,-864 -237,299 -450,627 -624,963 31,3 62,6 94,8 190,-279 400,-563 635,-817 -110,265 -199,542 -249,813 36,-2 71,-6 106,-10 77,-258 175,-521 298,-765l-3 714c28,-7 57,-14 85,-21l85 -631 177 545c25,-11 50,-21 75,-32l-110 -588 304 489c22,-13 44,-26 65,-40l-257 -554 457 397c9,-8 18,-17 27,-26 10,-10 20,-21 30,-32l-446 -500 589 291c15,-27 29,-55 42,-84l-576 -374 654 170c12,-39 24,-78 34,-119l-675 -292 719 90c5,-30 10,-59 15,-89l-728 -175 750 0c3,-29 5,-59 8,-88l-764 -85 773 -65c1,-35 3,-70 3,-105l-782 -34 783 -110c-1,-39 -1,-78 -3,-118l-718 -1 711 -142c-2,-36 -5,-71 -8,-106l-734 50 717 -223c-5,-40 -10,-80 -16,-119l-739 107 710 -283c-6,-34 -13,-67 -20,-100l-733 179 692 -356c-8,-32 -17,-63 -26,-94l-734 258 673 -445c-11,-29 -23,-58 -34,-85l-695 338 574 -568 -1 -2c-14,-21 -28,-41 -43,-60l-542 432 343 -624c-15,-11 -30,-21 -46,-31l-346 514 82 -643c-19,-7 -39,-14 -59,-19l-166 685c-34,-253 -94,-500 -170,-742 -18,0 -36,-1 -54,-1 64,316 102,632 119,947 -123,-328 -294,-629 -512,-905 -18,5 -36,9 -54,14 211,344 370,702 486,1071 -221,-345 -500,-653 -860,-910 -18,11 -36,22 -54,34 317,299 583,627 802,981 -339,-292 -712,-542 -1118,-747 -15,12 -28,24 -42,36 403,260 762,563 1080,903 -451,-283 -897,-497 -1338,-644 -10,12 -21,24 -31,36 476,209 910,472 1313,775 -479,-225 -1010,-367 -1556,-448 -10,16 -20,32 -31,49 531,152 1043,339 1500,585 -540,-170 -1092,-255 -1682,-243 -10,22 -20,44 -29,66 589,66 1156,206 1699,406 -616,-81 -1221,-98 -1828,-42 -5,18 -10,37 -15,55 639,1 1269,63 1845,208 -625,-30 -1284,4 -1914,135 -4,28 -7,56 -10,83 623,-56 1250,-76 1872,-49 -628,61 -1257,192 -1886,397 1,15 1,30 2,46 621,-147 1250,-239 1891,-264 -644,132 -1261,319 -1850,591 3,13 6,26 9,39 597,-213 1204,-334 1804,-423 -578,185 -1143,429 -1694,754 6,13 12,26 18,39 540,-260 1107,-475 1713,-629 -558,293 -1059,643 -1454,985z"/>
            <path class="Eyes-Lizard5fil740" d="M11750 13501c132,-849 -39,-1937 -339,-2383 -381,-566 -1248,-614 -1803,-283 -830,495 -1306,1350 -1417,2151 444,-1198 1906,-2113 2492,-1923 818,266 1174,1264 1067,2438z"/>
            <path class="Eyes-Lizard5fil760" d="M10247 10989c651,-163 1053,398 1180,1226 128,828 84,2008 -835,2202 -919,194 -1363,-347 -1402,-1302 -39,-955 406,-1963 1057,-2126z"/>
            <path class="Eyes-Lizard5fil22 Eyes-Lizard5str4" d="M8452 14385c557,808 2256,711 2914,44 644,-652 482,-2662 45,-3311 -381,-566 -1248,-614 -1803,-283 -1379,822 -1782,2642 -1156,3550z"/>
            <path class="Eyes-Lizard5fil152" d="M10296 14232c214,-22 240,-95 253,-359 14,264 40,337 254,359 -214,21 -240,94 -254,358 -13,-264 -39,-337 -253,-358z"/>
            <path class="Eyes-Lizard5fil152" d="M10054 14430c94,-9 106,-41 111,-157 6,116 18,148 112,157 -94,10 -106,42 -112,157 -5,-115 -17,-147 -111,-157z"/>
            <path class="Eyes-Lizard5fil152" d="M10689 13703c94,-9 105,-41 111,-157 6,116 18,148 112,157 -94,10 -106,42 -112,157 -6,-115 -17,-147 -111,-157z"/>
            <path class="Eyes-Lizard5fil152" d="M8885 12298c129,-13 145,-57 153,-216 8,159 24,203 153,216 -129,13 -145,57 -153,216 -8,-159 -24,-203 -153,-216z"/>
            <path class="Eyes-Lizard5fil152" d="M11110 13961c94,-9 105,-41 111,-157 6,116 18,148 112,157 -94,10 -106,42 -112,158 -6,-116 -17,-148 -111,-158z"/>
            <path class="Eyes-Lizard5fil152" d="M8431 13602c-8,951 787,1268 1452,1178 -605,-76 -1257,-417 -1452,-1178z"/>
            <circle class="Eyes-Lizard5fil152" r="235" transform="matrix(1.65698 -1.53296 0.903442 0.660992 9546.21 11364.7)"/>
            <circle class="Eyes-Lizard5fil152" r="235" transform="matrix(0.246297 -0.515148 0.344329 0.113736 8921.89 11882.2)"/>
            <circle class="Eyes-Lizard5fil152" r="235" transform="matrix(0.570071 -0.0325374 0.0663361 0.356508 10408.1 10967.5)"/>
            <path class="Eyes-Lizard5fil152" d="M10940 13046c190,-20 213,-84 225,-318 12,234 35,298 225,318 -190,19 -213,84 -225,317 -12,-233 -35,-298 -225,-317z"/>
            <circle class="Eyes-Lizard5fil152" r="235" transform="matrix(0.571973 0.0891005 -0.163247 0.800032 11439.4 13653)"/>
        </g>
    </g>
    <path class="Eyes-Lizard5fil14" d="M19394 13978c146,-775 -118,-2127 -1014,-3020 1331,-964 -1812,-1105 -2599,-217 -786,888 -1089,2831 -276,3970 988,1387 3597,811 3889,-733z"/>
   <g>
        <animateTransform additive="sum" attributeName="transform" dur="10" repeatCount="indefinite" type="translate" values="0;0;0;0;0;0;0;0;0;0;0;0;0;0;0;0;0;0;0;0;0;0;0;0;0;0;0;0;0;0;0;0;0;0;0;0;0;0;0;0;0;0;0;0;0;0;0;0;0;0;0;0;0;0;0;0;0;0;0;0;0;0;0;0;0;0;0;0;0;0;0;0;0;0;0;0;0;0;0;0;0;0;0;0;0;0;0;0;0;0;0 13300;0"/> 
        <g>
            <animateTransform additive="sum" attributeName="transform" dur="10" repeatCount="indefinite" type="scale" values="1;1;1;1;1;1;1;1;1;1;1;1;1;1;1;1;1;1;1;1;1;1;1;1;1;1;1;1;1;1;1;1;1;1;1;1;1;1;1;1;1;1;1;1;1;1;1;1;1;1;1;1;1;1;1;1;1;1;1;1;1;1;1;1;1;1;1;1;1;1;1;1;1;1;1;1;1;1;1;1;1;1;1;1;1;1;1;1;1;1;1 0.01;1"/> 
            <path class="Eyes-Lizard5fil761" d="M18912 14385c-557,808 -2256,711 -2914,44 -644,-652 -482,-2662 -45,-3311 381,-566 1248,-614 1803,-283 1379,822 1782,2642 1156,3550z"/>
            <path class="Eyes-Lizard5fil762" d="M18759 14560c-16,15 -33,29 -50,43 -415,-289 -906,-584 -1472,-830 440,351 797,709 1085,1050 -23,9 -46,17 -69,25 -317,-304 -678,-601 -1090,-864 237,299 450,627 624,963 -31,3 -63,6 -94,8 -190,-279 -400,-563 -635,-817 110,265 199,542 248,813 -35,-2 -70,-6 -105,-10 -77,-258 -176,-521 -298,-765l3 714c-29,-7 -57,-14 -85,-21l-85 -631 -177 545c-25,-11 -50,-21 -75,-32l110 -588 -304 489c-22,-13 -44,-26 -65,-40l257 -554 -457 397c-10,-8 -19,-17 -27,-26 -11,-10 -21,-21 -30,-32l446 -500 -590 291c-14,-27 -28,-55 -41,-84l575 -374 -653 170c-12,-39 -24,-78 -34,-119l675 -292 -719 90c-6,-30 -10,-59 -15,-89l728 -175 -750 0c-3,-29 -6,-59 -8,-88l764 -85 -773 -65c-2,-35 -3,-70 -3,-105l782 -34 -783 -110c0,-39 1,-78 3,-118l718 -1 -711 -142c2,-36 5,-71 7,-106l735 50 -717 -223c5,-40 10,-80 16,-119l738 107 -709 -283c6,-34 13,-67 19,-100l734 179 -692 -356c8,-32 17,-63 26,-94l734 258 -673 -445c11,-29 23,-58 34,-85l694 338 -573 -568 1 -2c14,-21 28,-41 43,-60l542 432 -343 -624c15,-11 30,-21 46,-31l345 514 -81 -643c19,-7 39,-14 59,-19l166 685c34,-253 93,-500 169,-742 19,0 37,-1 55,-1 -64,316 -103,632 -119,947 123,-328 294,-629 512,-905 18,5 36,9 54,14 -211,344 -370,702 -486,1071 220,-345 500,-653 860,-910 18,11 36,22 54,34 -317,299 -584,627 -802,981 339,-292 711,-542 1118,-747 14,12 28,24 42,36 -403,260 -762,563 -1080,903 451,-283 897,-497 1338,-644 10,12 21,24 31,36 -476,209 -910,472 -1313,775 479,-225 1010,-367 1555,-448 11,16 21,32 31,49 -530,152 -1042,339 -1499,585 540,-170 1092,-255 1682,-243 10,22 19,44 29,66 -590,66 -1156,206 -1699,406 616,-81 1221,-98 1828,-42 5,18 10,37 15,55 -639,1 -1269,63 -1846,208 626,-30 1285,4 1915,135 4,28 7,56 10,83 -623,-56 -1250,-76 -1873,-49 629,61 1258,192 1887,397 -1,15 -2,30 -2,46 -621,-147 -1250,-239 -1891,-264 643,132 1261,319 1850,591 -3,13 -6,26 -9,39 -597,-213 -1204,-334 -1804,-423 578,185 1143,429 1694,754 -6,13 -12,26 -19,39 -539,-260 -1106,-475 -1712,-629 557,293 1059,643 1454,985z"/>
            <path class="Eyes-Lizard5fil740" d="M15614 13501c-132,-849 39,-1937 339,-2383 381,-566 1248,-614 1803,-283 830,495 1306,1350 1417,2151 -444,-1198 -1906,-2113 -2492,-1923 -818,266 -1175,1264 -1067,2438z"/>
            <path class="Eyes-Lizard5fil763" d="M17117 10989c-651,-163 -1053,398 -1180,1226 -128,828 -85,2008 835,2202 919,194 1363,-347 1402,-1302 39,-955 -406,-1963 -1057,-2126z"/>
            <path class="Eyes-Lizard5fil22 Eyes-Lizard5str4" d="M18912 14385c-557,808 -2256,711 -2914,44 -644,-652 -482,-2662 -45,-3311 381,-566 1248,-614 1803,-283 1379,822 1782,2642 1156,3550z"/>
            <path class="Eyes-Lizard5fil152" d="M17068 14232c-214,-22 -240,-95 -254,-359 -13,264 -39,337 -253,359 214,21 240,94 253,358 14,-264 40,-337 254,-358z"/>
            <path class="Eyes-Lizard5fil152" d="M17310 14430c-94,-9 -106,-41 -112,-157 -5,116 -17,148 -111,157 94,10 106,42 111,157 6,-115 18,-147 112,-157z"/>
            <path class="Eyes-Lizard5fil152" d="M16675 13703c-94,-9 -106,-41 -111,-157 -6,116 -18,148 -112,157 94,10 106,42 112,157 5,-115 17,-147 111,-157z"/>
            <path class="Eyes-Lizard5fil152" d="M18479 12298c-129,-13 -145,-57 -153,-216 -8,159 -24,203 -153,216 129,13 145,57 153,216 8,-159 24,-203 153,-216z"/>
            <path class="Eyes-Lizard5fil152" d="M16254 13961c-94,-9 -106,-41 -111,-157 -6,116 -18,148 -112,157 94,10 106,42 112,158 5,-116 17,-148 111,-158z"/>
            <path class="Eyes-Lizard5fil152" d="M18933 13602c8,951 -787,1268 -1452,1178 605,-76 1257,-417 1452,-1178z"/>
            <circle class="Eyes-Lizard5fil152" r="235" transform="matrix(-1.65698 -1.53296 -0.903442 0.660992 17817.6 11364.7)"/>
            <circle class="Eyes-Lizard5fil152" r="235" transform="matrix(-0.246297 -0.515148 -0.344329 0.113736 18442 11882.2)"/>
            <circle class="Eyes-Lizard5fil152" r="235" transform="matrix(-0.570071 -0.0325374 -0.0663361 0.356508 16955.7 10967.5)"/>
            <path class="Eyes-Lizard5fil152" d="M16424 13046c-190,-20 -213,-84 -225,-318 -12,234 -35,298 -225,318 190,19 213,84 225,317 12,-233 35,-298 225,-317z"/>
            <circle class="Eyes-Lizard5fil152" r="235" transform="matrix(-0.571973 0.0891005 0.163247 0.800032 15924.5 13653)"/>
        </g>
    </g>
 </g><g id="HatShemagh-Medium">
 <animateTransform additive="sum" attributeName="transform" dur="10" repeatCount="indefinite" type="translate" values="0;0 200;0;0 200;0;0 200;0;0 200;0"/>
  <metadata id="CorelCorpID_12Corel-Layer"/>
  <path class="HatShemagh-Mediumfil80 HatShemagh-Mediumstr0" d="M17910 11421c150,629 537,-1166 279,-1607 -259,-441 -1356,-344 -1356,-344 880,702 927,1321 1077,1951z" style="fill:#1ec8ab"/>
  <path class="HatShemagh-Mediumfil81 HatShemagh-Mediumstr0" d="M8767 13083c-151,629 -395,-2003 -136,-2443 259,-441 1356,-344 1356,-344 -1114,521 -1070,2158 -1220,2787z" style="fill:#d53576"/>
  <path class="HatShemagh-Mediumfil82" d="M8726 11763c-72,-615 88,-1426 1006,-1243 918,182 2487,344 2831,-159 344,-503 833,-966 2117,-278 731,392 1534,-174 2411,-353 662,-136 1243,-15 955,948 -492,1652 408,2326 1251,3638 425,663 -940,2316 -569,3189 370,873 1261,2050 714,2407 961,21 635,-2566 714,-3201 80,-635 821,-714 662,-1270 -159,-556 -688,-3651 -1138,-4180 -450,-530 -221,-2385 -1411,-2703 -501,-133 -1077,-795 -1702,-1199 -863,-558 -1797,-858 -2549,-689 -1296,291 -1743,298 -2616,443 -301,51 -838,290 -1238,545 -174,111 -311,299 -447,475 -371,480 -1015,864 -1537,1370 -593,576 -1322,2556 -1189,3853 132,1296 -1466,3328 -1069,3805 397,476 741,344 1032,899 291,556 1263,701 1349,1429 370,-271 622,-833 225,-1283 -397,-450 -1125,-2606 -569,-3374 556,-767 990,-1185 767,-3069z" style="fill:#5d9806"/>
  <path class="HatShemagh-Mediumfil70" d="M20117 18716c-48,31 -105,53 -171,60 -128,15 -323,68 -509,144 -27,-59 -55,-120 -85,-181 206,-85 427,-145 572,-161 92,-10 161,-90 215,-179 -5,107 -12,214 -22,317zm-1453 -1517c3,69 12,135 28,197 187,-17 427,-53 562,-129 105,-61 204,-106 306,-141 101,-35 206,-61 323,-82 77,-13 169,-80 262,-170 2,-63 6,-118 11,-163 10,-74 28,-141 53,-202 -129,167 -271,323 -360,338 -126,23 -241,51 -354,90 -114,40 -224,90 -340,156 -110,63 -323,92 -491,106zm193 584c95,192 204,393 309,591 197,-50 388,-93 504,-103 275,-24 229,-430 478,-652 -2,-174 -5,-338 -6,-482 -175,44 -319,98 -354,135 -62,68 -362,484 -739,449 -69,-7 -133,18 -192,62zm1596 -1617c24,-24 47,-47 71,-69l-19 -12c0,1 -19,32 -52,81zm-13715 -1493c-41,108 -84,216 -129,323 57,211 134,411 232,480 97,68 181,136 257,212 77,75 148,158 218,258 99,141 339,293 508,388 -15,-85 -28,-169 -38,-253 -123,-76 -249,-168 -307,-250 -77,-109 -155,-202 -241,-286 -85,-84 -178,-158 -282,-232 -96,-68 -172,-386 -218,-640zm-259 624c-66,148 -134,294 -198,436 186,640 472,757 822,945 371,198 219,754 490,813 148,33 437,158 670,265 -104,-226 -208,-506 -295,-806 -215,-119 -358,-407 -395,-464 -46,-73 -384,-232 -642,-278 -166,-30 -345,-546 -452,-911zm-341 752c-48,109 -92,214 -130,313 54,182 138,378 263,454 66,40 133,76 197,111 150,81 292,158 349,239 21,28 41,97 64,176 65,224 152,519 437,609 180,56 453,193 692,358 187,129 349,273 421,405 63,114 135,254 201,388 43,-85 74,-176 88,-270 -39,-76 -78,-149 -114,-215 -88,-160 -273,-327 -483,-472 -255,-177 -550,-324 -745,-385 -184,-58 -253,-294 -306,-474 -28,-97 -53,-180 -92,-236 -85,-118 -246,-205 -416,-298 -65,-35 -130,-71 -190,-106 -133,-81 -207,-429 -236,-597z" style="fill:#941b69"/>
  <path class="HatShemagh-Mediumfil71" d="M7777 15345l-15 -14c-18,213 -18,464 -8,730 -54,-34 -106,-71 -153,-108 -6,-275 -1,-533 25,-749 -32,-31 -63,-61 -92,-91 -40,212 -93,398 -164,534 -5,8 -9,17 -13,26 -35,-42 -71,-80 -109,-118 71,-145 122,-348 158,-578 -97,-110 -163,-202 -180,-262 -6,-21 -18,-43 -35,-65 -30,101 -63,203 -97,306 -42,123 -86,245 -133,361l-5 -4c-34,-24 -66,-80 -94,-152 31,-83 61,-168 90,-253 42,-123 80,-247 114,-365 -54,-36 -118,-71 -188,-103 -17,-8 -33,-15 -50,-22 15,-48 30,-96 44,-144 23,10 46,20 68,30 60,28 116,58 168,90 64,-236 106,-436 116,-545 13,-131 -48,-537 -115,-983l-21 -144c-33,-10 -66,-20 -99,-29 4,-49 9,-99 14,-150 20,5 41,11 61,16 -11,-77 -22,-154 -33,-230 24,-160 55,-323 92,-485 22,223 60,495 100,767 98,38 189,84 259,138 -8,-36 -17,-74 -26,-115 -74,-321 -180,-782 -155,-1437 61,-189 128,-372 200,-545 -9,58 -16,115 -22,171 81,43 162,93 240,146 48,33 95,68 139,103 15,-107 25,-228 38,-367 23,-262 52,-587 122,-1015 55,-72 109,-135 162,-187 9,-9 19,-18 28,-27 -101,544 -136,937 -163,1242 -16,184 -30,336 -53,472 108,105 189,214 219,312 14,45 53,89 109,133 -108,-675 23,-1058 318,-1925 16,-48 33,-97 50,-147 -107,-72 -242,-135 -379,-180 42,-39 85,-76 128,-113 107,41 211,90 301,147 54,-162 113,-339 176,-536 71,-57 142,-114 211,-170 -96,305 -183,568 -261,799 79,67 136,143 160,223 35,113 228,180 450,241l-93 129c-240,-69 -447,-155 -500,-327 -11,-37 -35,-74 -69,-111l-32 93c-306,897 -429,1260 -289,1984 75,41 159,81 247,121 6,59 12,117 17,173 -78,-36 -155,-71 -227,-107 74,403 116,859 120,1280 2,181 -4,357 -17,518 -62,177 -140,332 -230,478 15,-54 29,-113 40,-177 -27,-17 -54,-35 -81,-53 -93,-65 -182,-138 -265,-215 -2,233 -22,426 -54,588 -41,206 -101,365 -170,495 -40,76 -69,181 -88,306 9,8 17,16 26,24 -13,55 -24,112 -32,172zm689 -1479c25,-195 35,-420 33,-656 -4,-453 -55,-949 -141,-1372 -146,-86 -255,-180 -289,-292 -17,-54 -56,-114 -110,-176 -19,207 17,621 57,1081 31,361 65,750 76,1099 106,108 226,214 353,302 7,5 14,9 21,14zm-811 1160c20,-99 48,-185 83,-252 63,-119 118,-264 156,-455 37,-187 57,-418 50,-709 -111,-119 -208,-239 -286,-346 -1,54 -2,113 -3,176 -8,410 -20,997 -92,1493 28,30 59,61 92,93zm280 -1649c-15,-292 -42,-612 -69,-914 -46,-533 -87,-1007 -42,-1199 2,-7 3,-15 5,-22 -59,-51 -125,-102 -195,-150 -55,-38 -113,-74 -170,-107 -60,755 58,1269 138,1616 39,172 70,305 67,412 58,96 150,227 266,364zm-502 1405c55,-456 65,-974 72,-1345 3,-165 6,-301 12,-389 -21,-36 -36,-66 -46,-89 -27,-65 -112,-125 -223,-175l10 61c68,454 129,868 115,1018 -12,123 -62,356 -136,625 67,58 114,121 133,186 7,27 30,63 63,108z" style="fill:#50dd9c"/>
  <path class="HatShemagh-Mediumfil72" d="M19099 17119c-10,-152 29,-372 101,-628 10,-35 21,-71 32,-107 -25,-1 -50,-4 -76,-9 -130,-23 -224,-55 -295,-100 18,-49 36,-97 55,-146 53,44 136,76 266,99 34,6 66,7 97,5 122,-368 290,-787 465,-1168 17,-38 30,-77 37,-119 -55,2 -108,-4 -159,-17 -97,-26 -183,-76 -254,-135 10,-70 13,-137 10,-200 4,5 8,9 12,14 67,75 160,147 270,176 41,11 85,15 131,11 -18,-418 -362,-988 -710,-1564 -98,-163 -196,-326 -288,-487 -83,47 -152,109 -208,181 -47,60 -86,128 -118,199 -33,-48 -64,-97 -95,-146 28,-51 59,-99 95,-145 69,-87 152,-163 252,-220 -253,-460 -436,-898 -387,-1255 8,-58 12,-115 13,-173 -160,38 -296,40 -415,21 7,-49 15,-99 24,-150 109,17 236,14 385,-24 -20,-224 -87,-447 -188,-666 23,-85 28,-194 -45,-289l0 0c-13,-58 -32,-109 -58,-152 -3,-20 -5,-40 -7,-60 32,48 63,97 92,146 186,314 316,642 352,974 10,-4 19,-8 29,-12 154,-62 262,-123 340,-181 -68,-413 -199,-846 -367,-1242 -241,-568 -557,-1061 -872,-1322l24 -29c140,108 276,202 407,270 213,277 413,633 578,1023 160,376 287,784 361,1181 34,-39 57,-75 79,-107 75,-113 123,-185 312,-184 11,51 22,102 33,151 -142,-3 -173,44 -221,116 -38,59 -86,129 -173,207 21,142 34,283 39,418 7,190 187,466 325,677 66,101 123,189 152,253 40,90 91,209 148,349 95,3 184,-20 286,-115 45,-41 90,-82 136,-123 15,53 29,106 44,161 -26,24 -53,49 -79,73 -119,110 -222,149 -325,155 187,468 423,1103 585,1665 41,-68 76,-136 110,-201 25,-48 49,-95 74,-139 17,77 33,153 48,228 -51,98 -106,203 -179,303 135,509 191,936 72,1100 -42,58 -80,120 -114,185 164,-62 338,-202 493,-354 15,76 13,142 -3,203 -182,161 -384,296 -571,328 -28,69 -52,141 -73,212 -41,141 -69,281 -86,412 -58,66 -115,124 -165,160 11,-183 45,-399 107,-613 15,-50 30,-99 48,-148 -162,35 -284,110 -396,178 -100,61 -192,117 -298,145 -17,56 -34,110 -48,163 -60,212 -98,392 -103,515 -29,15 -58,30 -87,47 -16,10 -35,18 -56,26zm781 -1992c-158,344 -310,719 -426,1058 52,-25 104,-56 159,-90 144,-88 304,-185 539,-213 50,-110 109,-215 178,-310 82,-113 37,-451 -69,-872 -15,16 -31,31 -48,46 -32,28 -63,53 -94,75 -63,44 -124,75 -183,95 -7,74 -25,145 -56,211zm-670 -1973c347,575 691,1145 727,1600 31,-14 63,-32 96,-55 26,-19 53,-40 80,-64 37,-34 71,-71 102,-108 -167,-610 -437,-1334 -640,-1834 -28,-5 -57,-10 -87,-16 -123,-23 -266,-50 -453,-18 -36,6 -71,14 -104,25 89,155 184,313 279,470zm-730 -1776c-44,319 133,733 376,1173 48,-17 100,-31 155,-40 208,-35 363,-7 496,18 -43,-104 -81,-193 -113,-264 -24,-53 -78,-136 -141,-233 -147,-226 -340,-521 -348,-752 -4,-105 -13,-213 -27,-322 -79,50 -179,102 -308,154 -26,10 -51,20 -76,29 1,79 -3,158 -14,237z" style="fill:#a33153"/>
  <path class="HatShemagh-Mediumfil72" d="M17007 9748c-90,-145 -197,-290 -309,-429 -459,110 -903,245 -1079,319 -143,60 -376,48 -643,2 44,201 74,395 66,564 -50,-8 -99,-18 -148,-33 4,-162 -31,-358 -77,-562 -243,-51 -504,-122 -745,-187 -241,-66 -463,-127 -625,-155 -139,-25 -308,10 -485,77 -102,214 -208,451 -310,679 -71,159 -140,313 -206,454 -60,44 -133,80 -216,109 87,-180 184,-398 285,-624 79,-175 160,-356 240,-528 -371,180 -743,455 -930,593l0 0c-18,13 -34,25 -48,36 -82,59 -217,90 -381,98 -69,210 -149,400 -237,533 -60,-3 -120,-6 -181,-9 92,-95 181,-291 260,-522 -83,-2 -170,-9 -258,-19 -287,-34 -594,-106 -820,-195 -127,211 -259,414 -374,581 -18,-3 -36,-7 -54,-10 -38,-8 -74,-13 -108,-18 119,-170 262,-387 398,-614 -14,-7 -28,-14 -41,-22 -111,-62 -234,-84 -360,-76 32,-54 62,-105 86,-150 121,4 238,35 347,96 14,8 29,16 44,24 72,-124 140,-249 201,-370 166,-331 270,-620 211,-736 -73,-142 -212,-450 -332,-781 -79,-5 -158,-11 -235,-20 45,-50 91,-96 141,-137 13,1 27,2 40,3l-9 -27c16,-12 32,-23 49,-34 26,-17 53,-33 80,-50 13,40 27,80 41,120 328,11 650,-20 903,-115 18,-6 35,-12 53,-18 -25,-143 -41,-288 -43,-431 54,-17 104,-30 150,-40 -1,139 14,283 37,426 417,-115 762,-80 1126,-42 117,12 236,25 361,32 -95,-182 -182,-364 -232,-530 -7,-25 -14,-50 -20,-74 49,-7 98,-15 149,-23 5,18 10,36 15,54 53,178 154,379 260,579 324,4 689,-39 1143,-213 -100,-225 -188,-450 -220,-652l51 -11c31,-7 63,-13 95,-19 28,187 114,405 213,627l18 -8c183,-78 478,-74 835,-25 -61,-166 -106,-321 -124,-446 -6,-39 -9,-75 -10,-109 51,11 101,23 152,37 1,16 3,32 6,50 18,122 64,279 129,448 6,15 12,31 18,46 395,65 851,174 1308,283 89,21 179,43 268,64 89,70 177,142 264,215 -186,-43 -376,-88 -567,-134 -420,-100 -839,-200 -1205,-266 187,426 457,872 671,1043 146,117 363,326 578,573 30,34 59,68 88,103 117,-28 234,-53 347,-75 98,-19 193,-35 282,-48 49,46 93,90 130,132 -115,14 -246,36 -383,63 -89,17 -180,37 -271,57 111,141 215,289 303,435 -24,4 -48,9 -72,14 -28,5 -56,12 -84,18zm-415 -557c-12,-15 -25,-29 -37,-43 -209,-240 -419,-442 -559,-555 -247,-197 -557,-719 -754,-1189 -368,-57 -669,-69 -839,4 -5,2 -10,4 -15,6 19,41 38,82 57,122 167,356 325,693 302,926 -19,191 56,484 135,790 20,77 39,154 58,230 266,52 495,71 621,18 171,-72 589,-200 1031,-309zm-1814 258c-14,-54 -27,-107 -41,-160 -82,-320 -160,-625 -139,-841 19,-193 -130,-512 -288,-849 -20,-43 -40,-86 -60,-129 -445,171 -806,223 -1126,226 214,401 403,770 234,959 -87,97 -192,280 -305,503 151,-43 294,-61 420,-39 164,29 391,91 638,158 216,60 449,123 667,172zm-1926 -220c143,-296 280,-546 395,-674 104,-117 -78,-458 -274,-824l-20 -37c-159,-6 -310,-22 -458,-37 -352,-37 -685,-71 -1083,40 43,212 101,417 152,597 71,250 128,453 118,578 -15,195 -105,692 -238,1138 107,-9 193,-31 244,-68 15,-11 31,-23 48,-36l1 1c217,-161 674,-498 1115,-678zm-1566 786c138,-447 232,-959 247,-1154 8,-99 -46,-291 -113,-527 -51,-178 -108,-380 -151,-591 -10,3 -19,7 -29,10 -256,96 -576,132 -901,126 113,301 237,576 304,706 85,166 -25,502 -211,872 -59,118 -125,240 -196,362 211,79 494,145 761,176 101,12 199,19 289,20z" style="fill:#6a6af3"/>
  <path class="HatShemagh-Mediumfil73" d="M8726 11763c-52,-443 17,-987 402,-1189 -30,-58 -37,-113 -7,-159 139,-211 638,-869 733,-1083 96,-213 17,-382 161,-252 143,130 1602,532 1933,598 331,66 159,198 -13,489 -95,161 -393,351 -723,528 612,17 1163,-60 1351,-334l13 -19 0 0c0,0 451,-797 524,-817 73,-19 1669,-172 1662,-99 -4,47 -48,408 -63,667 403,206 828,127 1274,-16 -121,-264 -383,-730 -354,-750 40,-26 1658,-282 1678,-302 20,-19 536,448 573,551 38,102 207,238 176,345l0 0c94,155 108,397 0,757 -376,1262 61,1953 664,2795 -118,-476 -241,-1037 -344,-1244 -199,-397 53,-1693 79,-1978 26,-284 -621,-1144 -476,-1422 51,-97 259,-157 507,-194 -64,-31 -133,-57 -207,-77 -487,-129 -1045,-759 -1651,-1166 -890,277 -2065,657 -2399,657 -537,0 -1598,245 -1982,82 -384,-163 -1045,-73 -572,-426 270,-201 835,-558 1318,-827 -595,102 -991,137 -1581,235 -301,51 -838,290 -1238,545 -174,111 -311,299 -447,475 -371,480 -1015,864 -1537,1370 -593,576 -1322,2556 -1189,3853 132,1296 -1466,3328 -1069,3805 397,476 741,344 1032,899 291,556 1263,701 1349,1429 370,-271 622,-833 225,-1283 -397,-450 -1125,-2606 -569,-3374 556,-767 990,-1185 767,-3069zm10652 2932c-42,784 -963,2074 -650,2810 179,421 479,914 680,1351 -30,-647 -43,-1642 109,-2340 242,-1116 159,-3414 -40,-3665 -198,-251 7,1344 -99,1844l0 0zm765 2509c-2,-208 -1,-381 13,-493 77,-612 767,-708 676,-1211 -315,18 -647,-222 -707,-1141 -250,920 18,2845 18,2845l0 0zm-12243 -5773c-76,-200 -150,-403 -119,-781 -100,11 -505,1283 -437,1998 68,714 -167,2371 -355,2820 -187,449 374,1279 501,1321 66,21 -275,-1264 25,-1793 299,-529 522,-1650 522,-1650 0,0 207,744 299,559 93,-186 307,-988 207,-1678 -101,-690 -133,-1090 -38,-1380 96,-290 321,-567 255,-872 -211,-403 -997,1361 -860,1456z" style="fill:#f491b7"/>
  <path class="HatShemagh-Mediumfil74" d="M8948 10837c-20,37 -65,50 -102,30 -36,-20 -49,-65 -29,-102 221,-399 441,-651 603,-884 207,-299 531,-777 531,-777 0,0 -269,657 -413,869 -157,231 -375,476 -590,864z" style="fill:#8de690"/>
  <path class="HatShemagh-Mediumfil74" d="M7952 14984c-6,41 -44,70 -85,64 -41,-6 -69,-43 -64,-84 35,-249 77,-431 113,-589 84,-367 85,-660 121,-1029 146,479 136,580 25,1062 -36,156 -77,335 -110,576z" style="fill:#1dd3ad"/>
  <path class="HatShemagh-Mediumfil74" d="M18157 9982c12,39 -9,81 -49,94 -39,12 -81,-9 -94,-48 -212,-661 -890,-1052 -1353,-1591 603,388 1265,828 1496,1545z" style="fill:#da376d"/>
  <path class="HatShemagh-Mediumfil12 HatShemagh-Mediumstr4" d="M8726 11763c-72,-615 88,-1426 1006,-1243 918,182 2487,344 2831,-159 344,-503 833,-966 2117,-278 731,392 1534,-174 2411,-353 662,-136 1243,-15 955,948 -492,1652 408,2326 1251,3638 425,663 -940,2316 -569,3189 370,873 1261,2050 714,2407 961,21 635,-2566 714,-3201 80,-635 821,-714 662,-1270 -159,-556 -688,-3651 -1138,-4180 -450,-530 -221,-2385 -1411,-2703 -501,-133 -1077,-795 -1702,-1199 -863,-558 -1797,-858 -2549,-689 -1296,291 -1743,298 -2616,443 -301,51 -838,290 -1238,545 -174,111 -311,299 -447,475 -371,480 -1015,864 -1537,1370 -593,576 -1322,2556 -1189,3853 132,1296 -1466,3328 -1069,3805 397,476 741,344 1032,899 291,556 1263,701 1349,1429 370,-271 622,-833 225,-1283 -397,-450 -1125,-2606 -569,-3374 556,-767 990,-1185 767,-3069z" style="fill:#ec4090"/>
  <path class="HatShemagh-Mediumfil83" d="M18472 8425c-524,550 -4728,909 -5438,929 -1284,36 -2296,-71 -4363,-327 -189,45 51,-235 -38,-463 -47,-455 642,-454 918,-463 1767,-54 1944,127 3416,-25 1461,-151 3611,-884 4110,-825 343,40 1668,882 1395,1174z" style="fill:#d95b96"/>
  <path class="HatShemagh-Mediumfil76" d="M11793 8138c1767,-54 1286,-75 1838,-159 1453,-222 2947,-787 3446,-728 242,28 972,455 1286,807 -372,-306 -872,-592 -1071,-620 -535,-76 -2866,661 -4443,787 -417,33 -1979,-59 -1056,-87z" style="fill:#0d8dca"/>
  <path class="HatShemagh-Mediumfil74" d="M15194 8387c554,-218 1119,-469 1699,-604 280,-64 600,-117 1039,-162 41,-4 78,26 82,68 4,41 -26,77 -67,81 -447,46 -769,100 -1051,167 -565,133 -1137,305 -1702,450zm-3452 348c0,0 -1519,93 -1682,92 -485,-4 -960,-21 -1413,-65 -41,-4 -71,-40 -68,-81 4,-41 41,-71 82,-68 454,44 931,61 1419,64 188,2 1662,58 1662,58z" style="fill:#363450"/>
  <path class="HatShemagh-Mediumfil77" d="M10756 8100c-70,99 -80,200 63,271 390,196 2732,163 3870,-121 1137,-285 2606,-602 2632,-662 27,-59 -244,-288 -311,-341 343,41 1735,886 1462,1178 -524,550 -4728,909 -5438,929 -1284,36 -2296,-71 -4363,-327 -189,45 51,-235 -38,-463 -47,-455 642,-454 918,-463 512,-15 890,-11 1205,-1zm702 947c892,-13 5838,-607 6202,-832 364,-225 -17,-460 -134,-494 -116,-35 -2124,606 -2282,653 -158,48 -3549,448 -4464,365 -916,-83 -213,321 678,308z" style="fill:#20d977"/>
  <path class="HatShemagh-Mediumfil78 HatShemagh-Mediumstr5" d="M18472 8425c-524,550 -4728,909 -5438,929 -1284,36 -2296,-71 -4363,-327 -189,45 51,-235 -38,-463 -47,-455 642,-454 918,-463 1767,-54 1944,127 3416,-25 1461,-151 3611,-884 4110,-825 343,40 1668,882 1395,1174z" style="fill:#d64689"/>
 </g><g id="Moustache-Lizard0">
 <animateTransform additive="sum" attributeName="transform" dur="10" repeatCount="indefinite" type="translate" values="0;0 200;0;0 200;0;0 200;0;0 200;0"/>
  <metadata id="CorelCorpID_398Corel-Layer"/>
  <rect class="Moustache-Lizard0fil22" height="802" width="919" x="13222" y="14329"/>
 </g><g id="Nose-Lizard0">
 <animateTransform additive="sum" attributeName="transform" dur="10" repeatCount="indefinite" type="translate" values="0;0 200;0;0 200;0;0 200;0;0 200;0"/>
  <metadata id="CorelCorpID_400Corel-Layer"/>
  <g>
   <path class="Nose-Lizard0fil100" d="M13012 15166c-94,181 -789,71 -592,-308 197,-378 686,127 592,308z" style="fill:#2e6117"/>
   <path class="Nose-Lizard0fil100" d="M14352 15166c94,181 789,71 592,-308 -197,-378 -687,127 -592,308z" style="fill:#bb692f"/>
  </g>
 </g></svg>