<svg xmlns="http://www.w3.org/2000/svg" xmlns:xlink="http://www.w3.org/1999/xlink" style="shape-rendering:geometricPrecision; text-rendering:geometricPrecision; image-rendering:optimizeQuality; fill-rule:evenodd; clip-rule:evenodd" version="1.1" viewBox="0 0 29000 29000" xml:space="preserve"><defs><style type="text/css">.Tail-Lizard9fil633 {fill:url(#Tail-Lizard9id446)}
.Tail-Lizard9fil14 {fill:black;fill-opacity:0.200000}
.Tail-Lizard9fil632 {fill:url(#Tail-Lizard9id143)}
.Tail-Lizard9str0 {stroke:black;stroke-width:150;stroke-linecap:round;stroke-linejoin:round}
.Tail-Lizard9fil22 {fill:none}
.Tail-Lizard9fil634 {fill:#7df56b}
.RightFoot-Lizard0fil636 {fill:url(#RightFoot-Lizard0id220)}
.RightFoot-Lizard0fil32 {fill:black;fill-rule:nonzero}
.RightLeg-Lizard0fil639 {fill:url(#RightLeg-Lizard0id33)}
.RightLeg-Lizard0fil14 {fill:black;fill-opacity:0.200000}
.RightLeg-Lizard0fil32 {fill:black;fill-rule:nonzero}
.LeftFoot-Lizard0fil645 {fill:url(#LeftFoot-Lizard0id444)}
.LeftFoot-Lizard0fil32 {fill:black;fill-rule:nonzero}
.LeftLeg-Lizard0fil648 {fill:url(#LeftLeg-Lizard0id17)}
.LeftLeg-Lizard0fil14 {fill:black;fill-opacity:0.200000}
.LeftLeg-Lizard0fil32 {fill:black;fill-rule:nonzero}
.RightHand-Lizard0fil655 {fill:url(#RightHand-Lizard0id333)}
.RightHand-Lizard0fil14 {fill:black;fill-opacity:0.200000}
.RightHand-Lizard0fil32 {fill:black;fill-rule:nonzero}
.RightPaw-Lizard0fil661 {fill:url(#RightPaw-Lizard0id332)}
.RightPaw-Lizard0fil32 {fill:black;fill-rule:nonzero}
.LeftHand-Lizard0fil664 {fill:url(#LeftHand-Lizard0id879)}
.LeftHand-Lizard0fil14 {fill:black;fill-opacity:0.200000}
.LeftHand-Lizard0fil32 {fill:black;fill-rule:nonzero}
.LeftPaw-Lizard0fil671 {fill:url(#LeftPaw-Lizard0id580)}
.LeftPaw-Lizard0fil32 {fill:black;fill-rule:nonzero}
.Body-Lizard0fil674 {fill:url(#Body-Lizard0id282)}
.Body-Lizard0fil14 {fill:black;fill-opacity:0.200000}
.Body-Lizard0fil32 {fill:black;fill-rule:nonzero}
.Body-Lizard0fil675 {fill:url(#Body-Lizard0id641)}
.Head-Lizard5fil695 {fill:url(#Head-Lizard5id378)}
.Head-Lizard5fil688 {fill:url(#Head-Lizard5id1040)}
.Head-Lizard5fil14 {fill:black;fill-opacity:0.200000}
.Head-Lizard5fil32 {fill:black;fill-rule:nonzero}
.Head-Lizard5fil696 {fill:url(#Head-Lizard5id30)}
.Mouth-Lizard0fil708 {fill:url(#Mouth-Lizard0id185)}
.Mouth-Lizard0fil22 {fill:none}
.Mouth-Lizard0str0 {stroke:black;stroke-width:150;stroke-linecap:round;stroke-linejoin:round}
.Mouth-Lizard0str11 {stroke:#2B2A29;stroke-width:150;stroke-linecap:round;stroke-linejoin:round}
.Eyes-Lizard5fil14 {fill:black;fill-opacity:0.200000}
.Eyes-Lizard5fil758 {fill:url(#Eyes-Lizard5id352)}
.Eyes-Lizard5fil759 {fill:url(#Eyes-Lizard5id12)}
.Eyes-Lizard5fil740 {fill:black;fill-opacity:0.400000}
.Eyes-Lizard5fil760 {fill:url(#Eyes-Lizard5id1072)}
.Eyes-Lizard5fil152 {fill:white}
.Eyes-Lizard5fil761 {fill:url(#Eyes-Lizard5id415)}
.Eyes-Lizard5fil762 {fill:url(#Eyes-Lizard5id262)}
.Eyes-Lizard5fil763 {fill:url(#Eyes-Lizard5id1068)}
.Eyes-Lizard5fil22 {fill:none}
.Eyes-Lizard5str4 {stroke:black;stroke-width:150}
.Moustache-Lizard0fil22 {fill:none}
.Nose-Lizard0fil100 {fill:black}
.BraceletGold-Mediumfil3new {fill:black;fill-opacity:0.301961}
.BraceletGold-Mediumfil66new {fill:url(#BraceletGold-Mediumid695new);fill-rule:nonzero}
.BraceletGold-Mediumstr3new {stroke:black;stroke-width:100;stroke-linecap:round;stroke-linejoin:round}
.BraceletGold-Mediumfil67new {fill:url(#BraceletGold-Mediumid700new);fill-rule:nonzero}
.HatMotorbikeBack-Mediumfil53 {fill:url(#HatMotorbikeBack-Mediumid0)}
.HatMotorbikeBack-Mediumstr4 {stroke:black;stroke-width:150;stroke-linecap:round;stroke-linejoin:round}
.HatMotorbikeRed-Mediumfil3 {fill:#2B2A29;fill-opacity:0.400000}
.HatMotorbikeRed-Mediumfil54 {fill:url(#HatMotorbikeRed-Mediumid46);fill-opacity:0.501961}
.HatMotorbikeRed-Mediumfil18 {fill:white;fill-opacity:0.501961}
.HatMotorbikeRed-Mediumfil55 {fill:url(#HatMotorbikeRed-Mediumid41)}
.HatMotorbikeRed-Mediumfil6 {fill:white;fill-rule:nonzero}
.HatMotorbikeRed-Mediumfil49 {fill:white}
.HatMotorbikeRed-Mediumfil5 {fill:#2B2A29;fill-opacity:0.301961}
.HatMotorbikeRed-Mediumfil56 {fill:url(#HatMotorbikeRed-Mediumid2)}
.HatMotorbikeRed-Mediumfil2 {fill:none}
.HatMotorbikeRed-Mediumstr0 {stroke:black;stroke-width:150;stroke-linejoin:round}
.HatMotorbikeRed-Mediumstr2 {stroke:black;stroke-width:150;stroke-linecap:round;stroke-linejoin:round}
.HatMotorbikeRed-Mediumfil51 {fill:#4B4B4B}
.HatMotorbikeRed-Mediumstr5 {stroke:black;stroke-width:100}
.WeaponFlySwatterBack-Mediumfil1 {fill:black;fill-rule:nonzero;fill-opacity:0.200000}
.WeaponFlySwatterBack-Mediumfil0 {fill:url(#WeaponFlySwatterBack-Mediumid26);fill-rule:nonzero}
.WeaponFlySwatterBack-Mediumstr0 {stroke:black;stroke-width:150;stroke-linecap:round;stroke-linejoin:round}
.WeaponFlySwatter-Mediumfil3 {fill:black;fill-opacity:0.200000}
.WeaponFlySwatter-Mediumfil4 {fill:url(#WeaponFlySwatter-Mediumid24);fill-rule:nonzero}
.WeaponFlySwatter-Mediumfil1 {fill:black;fill-rule:nonzero;fill-opacity:0.200000}
.WeaponFlySwatter-Mediumfil2 {fill:url(#WeaponFlySwatter-Mediumid0)}
.WeaponFlySwatter-Mediumstr0 {stroke:black;stroke-width:150;stroke-linecap:round;stroke-linejoin:round}
.WeaponFlySwatter-Mediumfil5 {fill:none;fill-rule:nonzero}
.WeaponFlySwatter-Mediumstr1 {stroke:black;stroke-width:150}
.AccessoryDuckfil122 {fill:url(#AccessoryDuckid90)}
.AccessoryDuckfil48 {fill:white;fill-opacity:0.501961}
.AccessoryDuckfil123 {fill:#CC1400;fill-opacity:0.301961}
.AccessoryDuckfil124 {fill:url(#AccessoryDuckid94)}
.AccessoryDuckfil3 {fill:black;fill-rule:nonzero}
.AccessoryDuckfil125 {fill:url(#AccessoryDuckid39)}
.AccessoryDuckfil126 {fill:url(#AccessoryDuckid95)}
.AccessoryDuckfil127 {fill:url(#AccessoryDuckid92)}
.AccessoryDuckfil2 {fill:none}
.AccessoryDuckfil128 {fill:#912323;fill-opacity:0.501961}
.AccessoryDuckfil14 {fill:white}
.AccessoryDuckfil129 {fill:white;fill-rule:nonzero;fill-opacity:0.501961}
.AccessoryDuckfil130 {fill:white;fill-rule:nonzero}
.AccessoryDuckstr1 {stroke:black;stroke-width:150}
.AccessoryDuckstr18 {stroke:#99CC66;stroke-width:150;stroke-linecap:round;stroke-linejoin:round}
.AccessoryDuckstr0 {stroke:black;stroke-width:150;stroke-linecap:round;stroke-linejoin:round}
.NecklaceCapeGoldBack-Mediumfil44 {fill:#341F02;fill-opacity:0.501961}
.NecklaceCapeGoldBack-Mediumfil3 {fill:black;fill-opacity:0.301961}
.NecklaceCapeGoldBack-Mediumfil4 {fill:black;fill-opacity:0.200000}
.NecklaceCapeGoldBack-Mediumfil45 {fill:url(#NecklaceCapeGoldBack-Mediumid39);fill-rule:nonzero}
.NecklaceCapeGoldBack-Mediumfil14 {fill:black;fill-rule:nonzero}
.NecklaceCapeGoldBack-Mediumfil38 {fill:#341F02}
.NecklaceCapeGoldBack-Mediumstr0 {stroke:black;stroke-width:150;stroke-linecap:round;stroke-linejoin:round}
.NecklaceCapeGoldBack-Mediumfil43 {fill:url(#NecklaceCapeGoldBack-Mediumid3)}
.NecklaceCapeGold-Mediumfil47 {fill:url(#NecklaceCapeGold-Mediumid12)}
.NecklaceCapeGold-Mediumfil14 {fill:black;fill-rule:nonzero}
.NecklaceCapeGold-Mediumfil10 {fill:black;fill-opacity:0.400000}
.NecklaceCapeGold-Mediumfil11 {fill:white;fill-opacity:0.800000}
.NecklaceCapeGold-Mediumfil46 {fill:url(#NecklaceCapeGold-Mediumid9)}
.NecklaceCapeGold-Mediumstr0 {stroke:black;stroke-width:150;stroke-linecap:round;stroke-linejoin:round}
.NecklaceCapeGold-Mediumfil17 {fill:url(#NecklaceCapeGold-Mediumid31)}
.NecklaceCapeGold-Mediumstr1 {stroke:black;stroke-width:150}
.NecklaceCapeGold-Mediumfil18 {fill:url(#NecklaceCapeGold-Mediumid37)}
</style><linearGradient gradientUnits="userSpaceOnUse" id="Tail-Lizard9id446" x1="20760" x2="15384.2" y1="27304.3" y2="18549.5">
   <stop offset="0" style="stop-opacity:1; stop-color:#7df56b"/>
   <stop offset="1" style="stop-opacity:1; stop-color:#cfc476"/>
  </linearGradient><linearGradient gradientUnits="objectBoundingBox" id="Tail-Lizard9id143" x1="10.0426%" x2="89.9575%" xlink:href="#Tail-Lizard9id49" y1="82.9888%" y2="17.0115%">
  </linearGradient><linearGradient gradientUnits="userSpaceOnUse" id="RightFoot-Lizard0id220" x1="16306.2" x2="16825.8" y1="23871.7" y2="25810.9">
   <stop offset="0" style="stop-opacity:1; stop-color:#fff8c4"/>
   <stop offset="0.101961" style="stop-opacity:1; stop-color:#fff8c4"/>
   <stop offset="1" style="stop-opacity:1; stop-color:#dcf1ff"/>
  </linearGradient><linearGradient gradientUnits="userSpaceOnUse" id="RightLeg-Lizard0id33" x1="15490.3" x2="15490.3" xlink:href="#RightLeg-Lizard0id17" y1="24310" y2="21166.6">
  </linearGradient><linearGradient gradientUnits="userSpaceOnUse" id="LeftFoot-Lizard0id444" x1="11057.6" x2="10538" xlink:href="#LeftFoot-Lizard0id220" y1="23871.7" y2="25810.9">
  </linearGradient><linearGradient gradientUnits="userSpaceOnUse" id="LeftLeg-Lizard0id17" x1="11873.5" x2="11873.5" y1="24310" y2="21166.6">
   <stop offset="0" style="stop-opacity:1; stop-color:#fff8c4"/>
   <stop offset="0.431373" style="stop-opacity:1; stop-color:#fff8c4"/>
   <stop offset="1" style="stop-opacity:1; stop-color:#f5ea97"/>
  </linearGradient><linearGradient gradientUnits="objectBoundingBox" id="RightHand-Lizard0id333" x1="39.0063%" x2="60.9934%" y1="1.86633%" y2="98.1334%">
   <stop offset="0" style="stop-opacity:1; stop-color:#cfc476"/>
   <stop offset="0.788235" style="stop-opacity:1; stop-color:#f5ea97"/>
   <stop offset="1" style="stop-opacity:1; stop-color:#f5ea97"/>
  </linearGradient><linearGradient gradientUnits="userSpaceOnUse" id="RightPaw-Lizard0id332" x1="17833.9" x2="18955.5" y1="19888.5" y2="21831.2">
   <stop offset="0" style="stop-opacity:1; stop-color:#f5ea97"/>
   <stop offset="0.2" style="stop-opacity:1; stop-color:#f5ea97"/>
   <stop offset="1" style="stop-opacity:1; stop-color:#fff8c4"/>
  </linearGradient><linearGradient gradientUnits="userSpaceOnUse" id="LeftHand-Lizard0id879" x1="10916.9" x2="9907.76" xlink:href="#LeftHand-Lizard0id333" y1="17558.9" y2="20732.9">
  </linearGradient><linearGradient gradientUnits="userSpaceOnUse" id="LeftPaw-Lizard0id580" x1="9529.97" x2="8408.35" xlink:href="#LeftPaw-Lizard0id332" y1="19888.5" y2="21831.2">
  </linearGradient><linearGradient gradientUnits="objectBoundingBox" id="Body-Lizard0id282" x1="50%" x2="50%" y1="0%" y2="100%">
   <stop offset="0" style="stop-opacity:1; stop-color:#cfc476"/>
   <stop offset="0.501961" style="stop-opacity:1; stop-color:#f5ea97"/>
   <stop offset="1" style="stop-opacity:1; stop-color:#fff8c4"/>
  </linearGradient><linearGradient gradientUnits="userSpaceOnUse" id="Body-Lizard0id641" x1="13681.9" x2="13681.9" y1="22882.1" y2="17688.3">
   <stop offset="0" style="stop-opacity:1; stop-color:#dcf1ff"/>
   <stop offset="0.65098" style="stop-opacity:1; stop-color:#c4e0f2"/>
   <stop offset="1" style="stop-opacity:1; stop-color:#c4e0f2"/>
  </linearGradient><linearGradient gradientUnits="userSpaceOnUse" id="Head-Lizard5id378" x1="13681.9" x2="13681.9" xlink:href="#Head-Lizard5id122" y1="17781.3" y2="7794.34">
  </linearGradient><radialGradient cx="13653.8" cy="14622.1" fx="13653.8" fy="14622.1" gradientTransform="matrix(1 -0 -0 0.8 0 2924)" gradientUnits="userSpaceOnUse" id="Head-Lizard5id1040" r="3500">
   <stop offset="0" style="stop-opacity:1; stop-color:#7df56b"/>
   <stop offset="1" style="stop-opacity:1; stop-color:#f5ea97"/>
  </radialGradient><linearGradient gradientUnits="userSpaceOnUse" id="Head-Lizard5id30" x1="13623.1" x2="13623.1" xlink:href="#Head-Lizard5id5" y1="13892.8" y2="9188.09">
  </linearGradient><linearGradient gradientUnits="objectBoundingBox" id="Mouth-Lizard0id185" x1="50%" x2="50%" xlink:href="#Mouth-Lizard0id133" y1="100%" y2="0%">
  </linearGradient><linearGradient gradientUnits="objectBoundingBox" id="Eyes-Lizard5id352" x1="55.115%" x2="44.8847%" xlink:href="#Eyes-Lizard5id0" y1="98.9977%" y2="1.00257%">
  </linearGradient><linearGradient gradientUnits="objectBoundingBox" id="Eyes-Lizard5id12" x1="50%" x2="50%" xlink:href="#Eyes-Lizard5id2" y1="100%" y2="0%">
  </linearGradient><radialGradient cx="10333.8" cy="13407.5" fx="10333.8" fy="13407.5" gradientTransform="matrix(0.273727 1.55794 -1.02157 0.41745 21202 -8289)" gradientUnits="userSpaceOnUse" id="Eyes-Lizard5id1072" r="1083.69" xlink:href="#Eyes-Lizard5id1055">
  </radialGradient><linearGradient gradientUnits="userSpaceOnUse" id="Eyes-Lizard5id415" x1="17198.1" x2="17569.5" xlink:href="#Eyes-Lizard5id0" y1="14916.8" y2="10671.8">
  </linearGradient><linearGradient gradientUnits="userSpaceOnUse" id="Eyes-Lizard5id262" x1="17383.3" x2="17383.3" xlink:href="#Eyes-Lizard5id2" y1="14954.7" y2="10628.7">
  </linearGradient><radialGradient cx="17030" cy="13407.5" fx="17030" fy="13407.5" gradientTransform="matrix(-0.273727 1.55794 1.02157 0.41745 7995 -18721)" gradientUnits="userSpaceOnUse" id="Eyes-Lizard5id1068" r="1083.69" xlink:href="#Eyes-Lizard5id1055">
  </radialGradient><linearGradient gradientUnits="userSpaceOnUse" id="BraceletGold-Mediumid695new" x1="8795.03" x2="10201.4" y1="19661" y2="20720.4">
   <stop offset="0" style="stop-opacity:1; stop-color:#CC9933"/>
   <stop offset="0.109804" style="stop-opacity:1; stop-color:#FFF98F"/>
   <stop offset="0.25098" style="stop-opacity:1; stop-color:#FFFFFC"/>
   <stop offset="0.478431" style="stop-opacity:1; stop-color:#FFF982"/>
   <stop offset="0.811765" style="stop-opacity:1; stop-color:#643300"/>
   <stop offset="1" style="stop-opacity:1; stop-color:#CC9933"/>
  </linearGradient><linearGradient gradientUnits="userSpaceOnUse" id="BraceletGold-Mediumid700new" x1="18568.8" x2="17162.5" xlink:href="#BraceletGold-Mediumid695new" y1="19661" y2="20720.4">
  </linearGradient><linearGradient gradientUnits="userSpaceOnUse" id="HatMotorbikeBack-Mediumid0" x1="9711.83" x2="17652" y1="17643.8" y2="17643.8">
   <stop offset="0" style="stop-opacity:1; stop-color:#3B3B3B"/>
   <stop offset="0.219608" style="stop-opacity:1; stop-color:#6B6B6B"/>
   <stop offset="0.419608" style="stop-opacity:1; stop-color:#383838"/>
   <stop offset="1" style="stop-opacity:1; stop-color:#99999A"/>
  </linearGradient><linearGradient gradientUnits="objectBoundingBox" id="HatMotorbikeRed-Mediumid46" x1="8.20043%" x2="91.7996%" y1="81.9606%" y2="18.0397%">
   <stop offset="0" style="stop-opacity:1; stop-color:#411E1D"/>
   <stop offset="0.25098" style="stop-opacity:1; stop-color:#D7997E"/>
   <stop offset="0.470588" style="stop-opacity:1; stop-color:#FED36E"/>
   <stop offset="0.74902" style="stop-opacity:1; stop-color:#dcf1ff"/>
   <stop offset="1" style="stop-opacity:1; stop-color:#CA8C1E"/>
  </linearGradient><radialGradient cx="13681.9" cy="9916.41" fx="13681.9" fy="9916.41" gradientTransform="matrix(1.04739 -0.58548 0.971492 0.631221 -10282 11667)" gradientUnits="userSpaceOnUse" id="HatMotorbikeRed-Mediumid41" r="4751.28">
   <stop offset="0" style="stop-opacity:1; stop-color:#FF875C"/>
   <stop offset="0.670588" style="stop-opacity:1; stop-color:#FF4524"/>
   <stop offset="1" style="stop-opacity:1; stop-color:#B82A23"/>
  </radialGradient><linearGradient gradientUnits="objectBoundingBox" id="HatMotorbikeRed-Mediumid2" x1="15.9091%" x2="84.0909%" y1="100.832%" y2="0%">
   <stop offset="0" style="stop-opacity:1; stop-color:#666666"/>
   <stop offset="0.509804" style="stop-opacity:1; stop-color:#9E9E9E"/>
   <stop offset="1" style="stop-opacity:1; stop-color:#8D8D8D"/>
  </linearGradient><linearGradient gradientUnits="userSpaceOnUse" id="WeaponFlySwatterBack-Mediumid26" x1="7745.86" x2="9181.7" xlink:href="#WeaponFlySwatterBack-Mediumid24" y1="21810.6" y2="20301.7">
  </linearGradient><linearGradient gradientUnits="userSpaceOnUse" id="WeaponFlySwatter-Mediumid24" x1="12160.4" x2="14712.1" y1="25216.2" y2="22534.8">
   <stop offset="0" style="stop-opacity:1; stop-color:#008011"/>
   <stop offset="1" style="stop-opacity:1; stop-color:#00BD55"/>
  </linearGradient><linearGradient gradientUnits="userSpaceOnUse" id="WeaponFlySwatter-Mediumid0" x1="9457.05" x2="12008.3" y1="22428.9" y2="22293.2">
   <stop offset="0" style="stop-opacity:1; stop-color:#787878"/>
   <stop offset="1" style="stop-opacity:1; stop-color:#D6D6D6"/>
  </linearGradient><radialGradient cx="5981.45" cy="24530.5" fx="5981.45" fy="24530.5" gradientTransform="matrix(1.08261 -0.0530996 0.0971573 0.591681 -2877 10334)" gradientUnits="userSpaceOnUse" id="AccessoryDuckid90" r="1635.36">
   <stop offset="0" style="stop-opacity:1; stop-color:#FFF256"/>
   <stop offset="0.631373" style="stop-opacity:1; stop-color:#FEE75C"/>
   <stop offset="1" style="stop-opacity:1; stop-color:#FFD83B"/>
  </radialGradient><radialGradient cx="6799.04" cy="23034.7" fx="6799.04" fy="23034.7" gradientTransform="matrix(1.0826 -0.0971566 0.0971566 1.0826 -2800 -1242)" gradientUnits="userSpaceOnUse" id="AccessoryDuckid94" r="935.18" xlink:href="#AccessoryDuckid90">
  </radialGradient><linearGradient gradientUnits="userSpaceOnUse" id="AccessoryDuckid39" x1="6677.2" x2="6677.2" y1="22471.8" y2="23026.9">
   <stop offset="0" style="stop-opacity:1; stop-color:black"/>
   <stop offset="1" style="stop-opacity:1; stop-color:#453223"/>
  </linearGradient><radialGradient cx="7621.66" cy="22955.4" fx="7621.66" fy="22955.4" gradientTransform="matrix(1.00003 -0 -0 0.645815 0 8130)" gradientUnits="userSpaceOnUse" id="AccessoryDuckid95" r="730.87">
   <stop offset="0" style="stop-opacity:1; stop-color:#FFB73B"/>
   <stop offset="1" style="stop-opacity:1; stop-color:#E05A00"/>
  </radialGradient><radialGradient cx="5594.96" cy="24567.2" fx="5594.96" fy="24567.2" gradientTransform="matrix(1.0826 -0.0578086 0.0971565 0.644153 -2849 9066)" gradientUnits="userSpaceOnUse" id="AccessoryDuckid92" r="719.36" xlink:href="#AccessoryDuckid90">
  </radialGradient><linearGradient gradientUnits="userSpaceOnUse" id="NecklaceCapeGoldBack-Mediumid39" x1="4520.19" x2="6359.47" y1="17698.1" y2="22164.9">
   <stop offset="0" style="stop-opacity:1; stop-color:#CCA300"/>
   <stop offset="0.231373" style="stop-opacity:1; stop-color:#E6D00E"/>
   <stop offset="0.509804" style="stop-opacity:1; stop-color:#A87403"/>
   <stop offset="1" style="stop-opacity:1; stop-color:#AE7D04"/>
  </linearGradient><linearGradient gradientUnits="userSpaceOnUse" id="NecklaceCapeGoldBack-Mediumid3" x1="5802.55" x2="15394.4" y1="24344" y2="17117.2">
   <stop offset="0" style="stop-opacity:1; stop-color:#B06F00"/>
   <stop offset="0.368627" style="stop-opacity:1; stop-color:#B89C00"/>
   <stop offset="0.709804" style="stop-opacity:1; stop-color:#633501"/>
   <stop offset="1" style="stop-opacity:1; stop-color:#290B00"/>
  </linearGradient><linearGradient gradientUnits="userSpaceOnUse" id="NecklaceCapeGold-Mediumid12" x1="9527.35" x2="11718.7" y1="17325.6" y2="18088.7">
   <stop offset="0" style="stop-opacity:1; stop-color:#AE7D04"/>
   <stop offset="0.25098" style="stop-opacity:1; stop-color:#AE7D04"/>
   <stop offset="0.568627" style="stop-opacity:1; stop-color:#E3C735"/>
   <stop offset="1" style="stop-opacity:1; stop-color:#491B00"/>
  </linearGradient><linearGradient gradientUnits="userSpaceOnUse" id="NecklaceCapeGold-Mediumid9" x1="17530.6" x2="12330.9" y1="17814.8" y2="18031.5">
   <stop offset="0" style="stop-opacity:1; stop-color:#B06700"/>
   <stop offset="0.270588" style="stop-opacity:1; stop-color:#B89C00"/>
   <stop offset="0.768627" style="stop-opacity:1; stop-color:#633501"/>
   <stop offset="1" style="stop-opacity:1; stop-color:#290D00"/>
  </linearGradient><linearGradient gradientUnits="objectBoundingBox" id="NecklaceCapeGold-Mediumid31" x1="82.4142%" x2="17.5858%" xlink:href="#NecklaceCapeGold-Mediumid30" y1="12.6218%" y2="87.3782%">
  </linearGradient><linearGradient gradientUnits="objectBoundingBox" id="NecklaceCapeGold-Mediumid37" x1="82.4142%" x2="17.5858%" xlink:href="#NecklaceCapeGold-Mediumid30" y1="12.6218%" y2="87.3782%">
  </linearGradient><linearGradient gradientUnits="userSpaceOnUse" id="Tail-Lizard9id49" x1="13715.8" x2="13715.8" y1="6802.99" y2="8218.57">
   <stop offset="0" style="stop-opacity:1; stop-color:#5edb4b"/>
   <stop offset="1" style="stop-opacity:1; stop-color:#7df56b"/>
  </linearGradient><linearGradient gradientUnits="userSpaceOnUse" id="RightLeg-Lizard0id17" x1="11873.5" x2="11873.5" y1="24310" y2="21166.6">
   <stop offset="0" style="stop-opacity:1; stop-color:#fff8c4"/>
   <stop offset="0.431373" style="stop-opacity:1; stop-color:#fff8c4"/>
   <stop offset="1" style="stop-opacity:1; stop-color:#f5ea97"/>
  </linearGradient><linearGradient gradientUnits="userSpaceOnUse" id="LeftFoot-Lizard0id220" x1="16306.2" x2="16825.8" y1="23871.7" y2="25810.9">
   <stop offset="0" style="stop-opacity:1; stop-color:#fff8c4"/>
   <stop offset="0.101961" style="stop-opacity:1; stop-color:#fff8c4"/>
   <stop offset="1" style="stop-opacity:1; stop-color:#dcf1ff"/>
  </linearGradient><linearGradient gradientUnits="objectBoundingBox" id="LeftHand-Lizard0id333" x1="39.0063%" x2="60.9934%" y1="1.86633%" y2="98.1334%">
   <stop offset="0" style="stop-opacity:1; stop-color:#cfc476"/>
   <stop offset="0.788235" style="stop-opacity:1; stop-color:#f5ea97"/>
   <stop offset="1" style="stop-opacity:1; stop-color:#f5ea97"/>
  </linearGradient><linearGradient gradientUnits="userSpaceOnUse" id="LeftPaw-Lizard0id332" x1="17833.9" x2="18955.5" y1="19888.5" y2="21831.2">
   <stop offset="0" style="stop-opacity:1; stop-color:#f5ea97"/>
   <stop offset="0.2" style="stop-opacity:1; stop-color:#f5ea97"/>
   <stop offset="1" style="stop-opacity:1; stop-color:#fff8c4"/>
  </linearGradient><linearGradient gradientUnits="userSpaceOnUse" id="Head-Lizard5id122" x1="13681.9" x2="13681.9" y1="17788.8" y2="7794.35">
   <stop offset="0" style="stop-opacity:1; stop-color:#cfc476"/>
   <stop offset="0.219608" style="stop-opacity:1; stop-color:#f5ea97"/>
   <stop offset="0.639216" style="stop-opacity:1; stop-color:#f5ea97"/>
   <stop offset="1" style="stop-opacity:1; stop-color:#fff8c4"/>
  </linearGradient><linearGradient gradientUnits="objectBoundingBox" id="Head-Lizard5id5" x1="50%" x2="50%" y1="0%" y2="100%">
   <stop offset="0" style="stop-opacity:1; stop-color:#b9c6ff"/>
   <stop offset="1" style="stop-opacity:1; stop-color:#d4dcff"/>
  </linearGradient><linearGradient gradientUnits="userSpaceOnUse" id="Mouth-Lizard0id133" x1="13681.9" x2="13681.9" y1="17844" y2="15520.7">
   <stop offset="0" style="stop-opacity:1; stop-color:#c4e0f2"/>
   <stop offset="1" style="stop-opacity:1; stop-color:#dcf1ff"/>
  </linearGradient><linearGradient gradientUnits="objectBoundingBox" id="Eyes-Lizard5id0" x1="50.0001%" x2="50.0001%" y1="100%" y2="0.000230848%">
   <stop offset="0" style="stop-opacity:1; stop-color:#805900"/>
   <stop offset="0.388235" style="stop-opacity:1; stop-color:#805900"/>
   <stop offset="1" style="stop-opacity:1; stop-color:black"/>
  </linearGradient><linearGradient gradientUnits="userSpaceOnUse" id="Eyes-Lizard5id2" x1="17267.3" x2="17267.3" y1="14970.1" y2="11355.9">
   <stop offset="0" style="stop-opacity:1; stop-color:#805900"/>
   <stop offset="0.168627" style="stop-opacity:1; stop-color:#ffc029"/>
   <stop offset="0.490196" style="stop-opacity:1; stop-color:#805900"/>
   <stop offset="1" style="stop-opacity:1; stop-color:black"/>
  </linearGradient><radialGradient cx="16677.2" cy="12783.5" fx="16677.2" fy="12783.5" gradientTransform="matrix(-0.257879 1.16297 1.08696 0.253253 7083 -9849)" gradientUnits="userSpaceOnUse" id="Eyes-Lizard5id1055" r="1194.51">
   <stop offset="0" style="stop-opacity:1; stop-color:#664700"/>
   <stop offset="0.75" style="stop-opacity:1; stop-color:black"/>
   <stop offset="1" style="stop-opacity:1; stop-color:black"/>
  </radialGradient><linearGradient gradientUnits="userSpaceOnUse" id="WeaponFlySwatterBack-Mediumid24" x1="12160.4" x2="14712.1" y1="25216.2" y2="22534.8">
   <stop offset="0" style="stop-opacity:1; stop-color:#008011"/>
   <stop offset="1" style="stop-opacity:1; stop-color:#00BD55"/>
  </linearGradient><linearGradient gradientUnits="objectBoundingBox" id="NecklaceCapeGold-Mediumid30" x1="82.4142%" x2="17.5858%" y1="12.6218%" y2="87.3782%">
   <stop offset="0" style="stop-opacity:1; stop-color:#B3C0CC"/>
   <stop offset="0.270588" style="stop-opacity:1; stop-color:#D8DDE6"/>
   <stop offset="0.541176" style="stop-opacity:1; stop-color:#909DA8"/>
   <stop offset="1" style="stop-opacity:1; stop-color:#DBF5FF"/>
  </linearGradient></defs><g id="NecklaceCapeGoldBack-Medium">
  <animateTransform additive="sum" attributeName="transform" dur="10" repeatCount="indefinite" type="translate" values="0;0 200;0;0 200;0;0 200;0;0 200;0"/>
  <metadata id="CorelCorpID_14Corel-Layer"/>
  <g id="_1834009988448">
   <g>
    <polygon class="NecklaceCapeGoldBack-Mediumfil38 NecklaceCapeGoldBack-Mediumstr0" points="8345,22996 7275,24229 6804,23598 "/>
    <path class="NecklaceCapeGoldBack-Mediumfil43 NecklaceCapeGoldBack-Mediumstr0" d="M2979 19025c2533,160 2278,2523 4260,1413 771,-431 2189,-2086 2427,-2628 82,-76 1004,-817 1286,-825 97,-3 1408,590 1977,563 2633,-122 2971,-468 3275,-364 256,88 -6,337 449,377 497,44 850,58 939,190 354,529 1283,4208 -137,6383 -1889,-287 -1219,543 -2327,296 -534,-119 -651,-468 -910,-496 -521,-54 -356,348 -1427,83 -884,-219 -2036,-430 -3373,163 -800,356 -1105,-429 -1681,-539 -220,-42 -837,-86 -464,527 140,230 -1017,19 -1387,-216 -788,-503 -112,-731 -551,-1192 -647,-680 -1171,235 -1825,-318 -224,-188 -259,-534 -168,-1004 205,-1056 75,-2081 -363,-2413z" style="fill:#1b6baa"/>
    <path class="NecklaceCapeGoldBack-Mediumfil44" d="M2979 19025c2533,160 2278,2523 4260,1413 771,-431 2189,-2086 2427,-2628 82,-76 1004,-817 1286,-825 97,-3 1408,590 1977,563 2633,-122 2971,-468 3275,-364 256,88 -6,337 449,377 497,44 850,58 939,190 354,529 1283,4208 -137,6383 -1889,-287 -1219,543 -2327,296 -534,-119 -651,-468 -910,-496 -521,-54 -356,348 -1427,83 -884,-219 -2036,-430 -3373,163 -800,356 -1105,-429 -1681,-539 -220,-42 -837,-86 -464,527 140,230 -1017,19 -1387,-216 -788,-503 -112,-731 -551,-1192 -647,-680 -1171,235 -1825,-318 -224,-188 -259,-534 -168,-1004 205,-1056 75,-2081 -363,-2413z" style="fill:#513a5a"/>
    <path class="NecklaceCapeGoldBack-Mediumfil3" d="M4053 22627c2107,-851 2456,-1340 3031,-1778 575,-439 1017,-916 1425,-1527 -443,478 -922,922 -1270,1116 -1982,1110 -1727,-1253 -4260,-1413 438,332 568,1357 363,2413 -91,470 -56,816 168,1004 190,161 369,197 543,185z" style="fill:#e2824b"/>
    <path class="NecklaceCapeGoldBack-Mediumfil4" d="M16149 24181c1964,-1984 402,-4259 138,-6459 61,-12 123,-25 187,-37 458,-119 1029,-66 1118,66 354,529 1283,4208 -137,6383 -744,-113 -1091,-53 -1306,47zm-6958 -5761c473,-529 357,-342 475,-610 82,-76 112,-255 394,-264 31,-1 230,92 486,218 -138,2315 -3115,5673 -3318,5927 -190,88 130,503 0,563 -317,146 -1201,-217 -1342,-302 -417,-252 -429,-440 -408,-627 3110,-1766 3019,-2877 3713,-4905zm1846 -409c174,88 344,176 486,249 -773,1962 -1726,4431 -2105,5920 -587,261 -908,-92 -1264,-342 1852,-2054 2591,-4240 2883,-5827zm1215 431c704,-20 1246,-95 1762,-199 -303,1984 -733,4378 -1095,5804 -41,-9 -83,-19 -128,-30 -540,-133 -1178,-264 -1898,-211 1305,-2498 1470,-4200 1359,-5364zm2549 -379c239,-58 486,-120 755,-183 232,1841 684,4005 -1057,6208 -95,-79 -177,-143 -281,-154 -204,-21 -303,28 -412,79 1232,-2913 1287,-4779 995,-5950z" style="fill:#ccbf59"/>
   </g>
   <g>
    <path class="NecklaceCapeGoldBack-Mediumfil45" d="M9651 18259c-377,741 -1253,1968 -2151,2575 -652,440 -2153,1366 -3020,322 -922,-1109 -1802,-1055 -3252,-368 469,-1234 1903,-2437 3397,-1550 509,301 1442,2076 2891,922 761,-606 1418,-1286 1791,-1931l344 30z" style="fill:#002f32"/>
    <path class="NecklaceCapeGoldBack-Mediumfil14" d="M9720 18285c-187,373 -504,875 -881,1350 -383,482 -834,948 -1297,1261 -330,223 -875,569 -1451,728 -591,163 -1211,130 -1669,-420 -446,-538 -880,-793 -1375,-831 -502,-38 -1073,144 -1787,482 -37,18 -82,2 -99,-35 -9,-20 -9,-41 -2,-60 63,-165 143,-330 237,-490 285,-480 705,-912 1204,-1169 503,-259 1086,-338 1690,-109 124,47 249,107 373,181 125,74 266,223 431,397 527,555 1311,1380 2376,531 503,-401 953,-821 1306,-1245 167,-201 319,-414 438,-616l164 15c-130,229 -298,469 -487,696 -361,434 -818,861 -1328,1267 -1172,934 -2012,50 -2577,-545 -157,-166 -292,-307 -399,-371 -117,-70 -234,-126 -350,-170 -560,-213 -1101,-138 -1569,102 -472,243 -871,655 -1143,1112 -57,96 -108,194 -153,293 656,-297 1197,-453 1686,-415 537,41 1004,313 1479,884 410,494 974,520 1514,371 554,-152 1085,-490 1407,-707 449,-304 890,-759 1264,-1230 354,-446 653,-915 837,-1271l161 14z" style="fill:#9994a1"/>
   </g>
  </g>
 </g><g id="Tail-Lizard9">
  <metadata id="CorelCorpID_325Corel-Layer"/>
  <path class="Tail-Lizard9fil632 Tail-Lizard9str0" d="M21783 19833c625,-803 1519,-721 1859,-600 649,231 -701,18 -1421,1250 -112,192 -473,166 -637,17 -260,-234 -13,-494 199,-667zm-5288 -38c131,-836 572,-1782 1069,-2111 796,-526 -285,807 -311,2313 -4,223 -248,436 -469,432 -350,-6 -334,-364 -289,-634zm944 -151c131,-836 571,-1783 1069,-2112 796,-526 -286,808 -311,2314 -4,222 -248,436 -469,432 -350,-7 -335,-365 -289,-634zm853 -51c178,-827 671,-1747 1187,-2048 824,-480 -331,790 -442,2293 -16,222 -272,421 -493,404 -348,-26 -313,-382 -252,-649zm929 54c247,-809 816,-1685 1355,-1940 806,-383 -242,614 -575,1961 380,-733 1050,-1460 1602,-1621 777,-228 -132,425 -711,1503 497,-534 1150,-975 1640,-1024 950,-94 -629,581 -1353,1902 -107,195 -422,271 -616,164 -95,-52 -143,-118 -160,-190 -112,56 -244,74 -354,38 -160,-52 -215,-158 -215,-281 -108,111 -273,179 -416,156 -346,-55 -280,-408 -197,-668z" style="fill:#8adaf7"/>
  <path class="Tail-Lizard9fil633" d="M22650 26832c-1326,401 -3314,-197 -3579,-1672 697,866 2364,863 3008,402 1011,-723 1036,-1899 184,-2695 -797,-744 -2116,-555 -3779,552 -780,519 -2231,1027 -3752,880 -1334,-129 -2727,-783 -3697,-2128 -558,-773 5027,-1481 5447,-1803 3366,-2580 6806,-1437 8165,950 970,1706 650,4712 -1997,5514z" style="fill:#756b74"/>
  <path class="Tail-Lizard9fil14" d="M22762 23586c-100,-256 -267,-502 -499,-719 -797,-744 -2116,-555 -3779,552 -1353,900 -4791,1528 -6944,-650l1774 -1358c779,1673 3479,1959 4967,1131 1814,-1008 4195,-710 4481,1044z" style="fill:#4823ac"/>
  <path class="Tail-Lizard9fil22 Tail-Lizard9str0" d="M22650 26832c-1326,401 -3314,-197 -3579,-1672 697,866 2364,863 3008,402 1011,-723 1036,-1899 184,-2695 -797,-744 -2114,-553 -3779,552 -1763,1170 -5373,1630 -7449,-1248 -558,-773 5027,-1481 5447,-1803 3366,-2580 6806,-1437 8165,950 970,1706 650,4712 -1997,5514z" style="fill:#befccd"/>
  <path class="Tail-Lizard9fil634 Tail-Lizard9str0" d="M24105 20836c148,-98 463,60 583,243 317,480 -177,105 -363,394 -102,158 -402,-497 -220,-637zm-655 -903c207,-86 573,-82 776,46 533,337 -66,169 -263,489 -132,214 -371,-441 -513,-535z" style="fill:#54bd46"/>
 </g><g id="RightFoot-Lizard0">
  <metadata id="CorelCorpID_327Corel-Layer"/>
  <path class="RightFoot-Lizard0fil636" d="M16896 24005c177,194 630,99 971,213 299,100 377,345 252,488 -126,145 -306,76 -460,51 -150,-23 -303,-85 -424,-49 177,63 791,364 618,803 -89,226 -408,214 -663,10 -311,-249 -694,-450 -946,-419 -343,42 -190,563 -583,572 -600,14 -308,-788 -664,-1201 -43,-70 -57,-204 -18,-292 582,-77 1506,161 1917,-176z" style="fill:#33cb2c"/>
  <path class="RightFoot-Lizard0fil32" d="M16951 23955c84,92 268,105 469,119 229,16 506,34 687,193 110,95 176,241 128,385 -96,287 -393,216 -620,174 44,31 88,65 128,103 260,243 321,768 -102,820 -176,21 -363,-61 -498,-170 -204,-163 -618,-436 -891,-403 -276,34 -138,562 -589,572 -420,10 -453,-299 -522,-643 -42,-206 -130,-417 -197,-588 -20,-52 -8,-108 45,-121 50,-7 100,40 130,121 53,141 128,373 169,566 59,275 83,523 372,516 323,-7 175,-523 575,-571 322,-40 760,241 1002,435 102,82 251,153 386,137 285,-35 179,-411 17,-562 -187,-176 -460,-252 -477,-309 -12,-39 11,-81 51,-92 130,-39 386,31 538,62 117,23 292,53 342,-95 28,-85 -22,-170 -85,-224 -149,-130 -411,-143 -600,-157 -211,-15 -408,-29 -535,-135 31,-62 55,-97 77,-133z" style="fill:#cd5f47"/>
 </g><g id="LeftFoot-Lizard0">
  <metadata id="CorelCorpID_336Corel-Layer"/>
  <path class="LeftFoot-Lizard0fil645" d="M10468 24005c-177,194 -630,99 -971,213 -299,100 -377,345 -253,488 127,145 307,76 460,51 151,-23 304,-85 425,-49 -177,63 -791,364 -619,803 89,226 409,214 664,10 311,-249 694,-450 946,-419 343,42 190,563 583,572 600,14 308,-788 663,-1201 44,-70 58,-204 19,-292 -583,-77 -1506,161 -1917,-176z" style="fill:#b084d1"/>
  <path class="LeftFoot-Lizard0fil32" d="M10412 23955c-83,92 -268,105 -468,119 -229,16 -506,34 -688,193 -109,95 -176,241 -128,385 96,287 394,216 620,174 -44,31 -87,65 -127,103 -260,243 -321,768 102,820 176,21 363,-61 498,-170 203,-163 618,-436 891,-403 276,34 138,562 589,572 419,10 452,-299 522,-643 42,-206 130,-417 196,-588 21,-52 9,-108 -45,-121 -50,-7 -99,40 -130,121 -52,141 -127,373 -168,566 -59,275 -83,523 -372,516 -323,-7 -175,-523 -575,-571 -322,-40 -761,241 -1002,435 -103,82 -251,153 -386,137 -285,-35 -179,-411 -17,-562 187,-176 460,-252 477,-309 12,-39 -11,-81 -51,-92 -130,-39 -386,31 -538,62 -118,23 -292,53 -342,-95 -28,-85 22,-170 85,-224 149,-130 411,-143 600,-157 211,-15 408,-29 535,-135 -31,-62 -55,-97 -78,-133z" style="fill:#6c036d"/>
 </g><g id="RightLeg-Lizard0">
  <metadata id="CorelCorpID_330Corel-Layer"/>
  <path class="RightLeg-Lizard0fil639" d="M13682 23167c428,0 1386,122 1321,776 -5,52 -27,166 -34,307 456,84 1272,76 1625,0 415,-193 703,-872 705,-1316 2,-661 -392,-1250 -712,-1596 -352,-381 -2030,-8 -2905,-8l0 1837z" style="fill:#2c8d20"/>
  <path class="RightLeg-Lizard0fil14" d="M17192 23398c67,-149 106,-306 107,-464 2,-776 -541,-1452 -869,-1753 -19,257 -41,545 -78,871 387,-414 947,878 840,1346z" style="fill:#b7b9bf"/>
  <path class="RightLeg-Lizard0fil32" d="M15042 24729c32,73 153,5 117,-101 -61,-182 -128,-334 -105,-448 91,-447 -112,-807 -541,-972 -208,-80 -478,-118 -831,-118l0 150c335,0 588,35 777,108 361,138 514,417 435,791 -35,237 15,295 148,590zm1242 -3575c175,139 478,451 693,860 144,273 248,587 247,920 -1,533 -241,1011 -637,1322 634,-260 785,-833 786,-1322 2,-360 -110,-698 -263,-990 -227,-429 -547,-760 -734,-907 -34,-25 -144,-95 -178,-56 -36,41 10,108 86,173z" style="fill:#015ab7"/>
 </g><g id="LeftLeg-Lizard0">
  <metadata id="CorelCorpID_339Corel-Layer"/>
  <path class="LeftLeg-Lizard0fil648" d="M13682 23167c-428,0 -1386,122 -1321,776 5,52 26,166 34,307 -456,84 -1272,76 -1625,0 -415,-193 -704,-872 -705,-1316 -2,-661 392,-1250 712,-1596 352,-381 2030,-8 2905,-8l0 1837z" style="fill:#a6fede"/>
  <path class="LeftLeg-Lizard0fil14" d="M10172 23398c-67,-149 -106,-306 -107,-464 -2,-776 540,-1452 869,-1753 19,257 41,545 78,871 -388,-414 -947,878 -840,1346z" style="fill:#94aae8"/>
  <path class="LeftLeg-Lizard0fil32" d="M12322 24729c-33,73 -153,5 -118,-101 61,-182 129,-334 106,-448 -91,-447 111,-807 541,-972 208,-80 478,-118 831,-118l0 150c-335,0 -588,35 -777,108 -361,138 -514,417 -435,791 35,237 -15,295 -148,590zm-1242 -3575c-175,139 -478,451 -694,860 -143,273 -247,587 -246,920 1,533 241,1011 637,1322 -634,-260 -785,-833 -787,-1322 -1,-360 110,-698 264,-990 226,-429 547,-760 734,-907 34,-25 144,-95 178,-56 36,41 -10,108 -86,173z" style="fill:#3ab146"/>
 </g><g id="RightHand-Lizard0">
 <animateTransform additive="sum" attributeName="transform" dur="10" repeatCount="indefinite" type="translate" values="0;0 200;0;0 200;0;0 200;0;0 200;0"/>
  <metadata id="CorelCorpID_345Corel-Layer"/>
  <path class="RightHand-Lizard0fil655" d="M15421 17507c1371,-107 2467,1307 3017,2266 289,504 -937,1282 -1053,928 -133,-408 -583,-502 -1005,-495 -145,-773 -770,-2364 -959,-2699z" style="fill:#721f3a"/>
  <path class="RightHand-Lizard0fil14" d="M17408 20600c-414,-340 -751,-361 -1105,-375l143 -846c440,204 921,896 962,1221z" style="fill:#ea334b"/>
  <path class="RightHand-Lizard0fil32" d="M16155 17514c-40,-12 -81,11 -93,50 -12,40 11,82 50,94 431,128 825,397 1169,724 463,440 838,982 1093,1427 50,87 177,12 129,-73 -261,-455 -643,-1010 -1119,-1462 -360,-342 -773,-624 -1229,-760zm1159 3210c13,39 55,61 95,48 39,-13 52,-64 39,-103 -48,-207 -228,-359 -429,-441 -192,-78 -421,-101 -641,-97 -41,1 -74,35 -73,76 1,41 35,74 76,74 202,-4 410,17 582,86 162,66 292,177 351,357z" style="fill:#f20148"/>
 </g><g id="LeftHand-Lizard0">
 <animateTransform additive="sum" attributeName="transform" dur="10" repeatCount="indefinite" type="translate" values="0;0 200;0;0 200;0;0 200;0;0 200;0"/>
  <metadata id="CorelCorpID_354Corel-Layer"/>
  <path class="LeftHand-Lizard0fil664" d="M11943 17507c-1371,-107 -2467,1307 -3017,2266 -289,504 937,1282 1052,928 134,-408 584,-502 1006,-495 145,-773 770,-2364 959,-2699z" style="fill:#2178ff"/>
  <path class="LeftHand-Lizard0fil14" d="M9956 20600c414,-340 751,-361 1105,-375l-143 -846c-440,204 -921,896 -962,1221z" style="fill:#08df4a"/>
  <path class="LeftHand-Lizard0fil32" d="M11209 17514c39,-12 81,11 93,50 12,40 -11,82 -50,94 -431,128 -825,397 -1169,724 -463,440 -838,982 -1093,1427 -50,87 -178,12 -129,-73 261,-455 643,-1010 1119,-1462 360,-342 773,-624 1229,-760zm-1159 3210c-13,39 -55,61 -95,48 -39,-13 -52,-64 -39,-103 48,-207 228,-359 429,-441 192,-78 420,-101 640,-97 42,1 75,35 74,76 -1,41 -35,74 -76,74 -202,-4 -410,17 -582,86 -162,66 -293,177 -351,357z" style="fill:#a87744"/>
 </g><g id="Body-Lizard0">
 <animateTransform additive="sum" attributeName="transform" dur="10" repeatCount="indefinite" type="translate" values="0;0 200;0;0 200;0;0 200;0;0 200;0"/>
  <metadata id="CorelCorpID_363Corel-Layer"/>
  <path class="Body-Lizard0fil674" d="M13682 23042c-1548,0 -2752,-290 -2993,-1956 -146,-1007 384,-2270 980,-3398 748,64 1420,73 2013,73 593,0 1265,-9 2013,-73 596,1128 1126,2391 980,3398 -242,1666 -1445,1956 -2993,1956z" style="fill:#3a39d1"/>
  <path class="Body-Lizard0fil14" d="M11837 22758c-601,-267 -1017,-766 -1148,-1672 -75,-519 29,-1106 229,-1707 -223,2177 509,3077 919,3379z" style="fill:#9805c2"/>
  <path class="Body-Lizard0fil32" d="M11012 22052c-250,-321 -348,-641 -397,-955 -59,-377 -24,-998 184,-1319 -78,420 -93,905 -36,1298 50,341 104,571 249,976z" style="fill:#f5ce1b"/>
  <path class="Body-Lizard0fil675" d="M13682 17761c-911,0 -1281,-25 -2013,-73 238,210 -139,1257 -225,1859 -246,1711 107,3335 2238,3335 2131,0 2484,-1624 2238,-3335 -86,-602 -463,-1649 -225,-1859 -732,48 -1102,73 -2013,73z" style="fill:#29abd8"/>
  <path class="Body-Lizard0fil14" d="M15527 22758c601,-267 1016,-766 1148,-1672 75,-519 -29,-1106 -229,-1707 223,2177 -509,3077 -919,3379z" style="fill:#318b42"/>
  <path class="Body-Lizard0fil32" d="M16352 22052c250,-321 347,-641 397,-955 59,-377 24,-998 -184,-1319 78,420 93,905 36,1298 -50,341 -104,571 -249,976z" style="fill:#366db1"/>
 </g><g id="WeaponFlySwatterBack-Medium">
 <animateTransform additive="sum" attributeName="transform" dur="10" repeatCount="indefinite" type="translate" values="0;0 200;0;0 200;0;0 200;0;0 200;0"/>
  <metadata id="CorelCorpID_0Corel-Layer"/>
  <g id="_2367108334752">
   <path class="WeaponFlySwatterBack-Mediumfil0 WeaponFlySwatterBack-Mediumstr0" d="M9496 21664l211 -158 -1804 -1241c-168,-116 -453,-135 -616,153 -163,289 1,523 187,607l1996 902 26 -263z" style="fill:#7a28c5"/>
   <path class="WeaponFlySwatterBack-Mediumfil1" d="M7463 20235c-66,36 -127,96 -176,183 -163,289 1,523 187,607l1996 902 22 -221c-464,-223 -1683,-816 -1870,-979 -151,-131 -206,-332 -159,-492z" style="fill:#360e5f"/>
  </g>
 </g><g id="NecklaceCapeGold-Medium">
  <animateTransform additive="sum" attributeName="transform" dur="10" repeatCount="indefinite" type="translate" values="0;0 200;0;0 200;0;0 200;0;0 200;0"/>
  <metadata id="CorelCorpID_15Corel-Layer"/>
  <g id="_1834009982832">
   <path class="NecklaceCapeGold-Mediumfil46 NecklaceCapeGold-Mediumstr0" d="M12255 18362c975,116 2758,-1179 4054,-1285 300,-24 456,257 674,315 232,63 654,221 624,464 -438,-98 -549,-97 -1111,224 -1286,735 -2757,853 -4231,496 -1,-30 -17,-118 -10,-214z" style="fill:#d35a3b"/>
   <path class="NecklaceCapeGold-Mediumfil47" d="M11771 18438c-606,-187 -811,-311 -1134,-548 -125,-91 -689,-385 -858,76 -34,92 -71,180 -132,302l-344 -33c100,-174 169,-325 228,-498 122,-357 425,-349 681,-554 197,-158 585,-234 740,-198 909,209 929,642 991,1400l0 0c-47,17 -108,35 -172,53z" style="fill:#9aa029"/>
   <path class="NecklaceCapeGold-Mediumfil14" d="M11749 18510c-307,-95 -513,-175 -685,-261 -172,-86 -307,-178 -471,-299 -38,-27 -122,-76 -223,-113 -85,-31 -180,-54 -267,-48 -79,6 -152,36 -205,108 -19,26 -35,57 -49,94 -32,88 -78,191 -135,304l-160 -14c66,-129 119,-244 154,-341 19,-51 42,-95 69,-131 83,-113 196,-160 316,-169 111,-8 227,19 328,56 116,43 215,100 260,134 159,116 288,204 450,286 160,80 354,155 641,244 25,-7 50,-14 74,-21l18 -6c-56,-688 -96,-1084 -928,-1275 -73,-17 -209,-4 -350,34 -123,33 -245,83 -327,149 -95,76 -192,123 -284,168 -158,76 -303,147 -373,352 -57,168 -135,336 -230,504l-165 -14c107,-180 192,-360 253,-538 90,-265 263,-348 449,-439 87,-42 176,-85 257,-149 100,-81 242,-141 381,-178 163,-44 328,-57 422,-35 948,218 983,660 1046,1430l3 34c1,8 0,17 -2,26 -3,16 -12,30 -25,41l0 0 0 0c-8,6 -16,11 -26,14 -23,8 -48,16 -75,24 -31,10 -65,20 -99,29 -15,4 -29,4 -42,0z" style="fill:#d434d8"/>
   <ellipse class="NecklaceCapeGold-Mediumfil17 NecklaceCapeGold-Mediumstr1" cx="11884" cy="18448" rx="437" ry="424"/>
   <ellipse class="NecklaceCapeGold-Mediumfil18 NecklaceCapeGold-Mediumstr1" cx="12643" cy="18527" rx="290" ry="282"/>
   <path class="NecklaceCapeGold-Mediumfil10" d="M11884 18872c178,0 331,-104 399,-252 -72,62 -166,99 -270,99 -226,0 -409,-178 -409,-398 0,-99 37,-189 98,-259 -150,67 -254,215 -254,386 0,234 195,424 436,424z" style="fill:#cbc62b"/>
   <path class="NecklaceCapeGold-Mediumfil10" d="M12672 18785c120,0 224,-70 270,-170 -49,42 -113,67 -183,67 -152,0 -276,-120 -276,-269 0,-67 25,-128 66,-175 -101,46 -172,145 -172,261 0,158 132,286 295,286z" style="fill:#23e304"/>
   <path class="NecklaceCapeGold-Mediumfil11" d="M12146 18644c43,-55 69,-122 69,-196 0,-177 -148,-321 -331,-321 -81,0 -155,28 -212,75 34,-10 71,-16 109,-16 208,0 377,164 377,367 0,31 -4,62 -12,91z" style="fill:#11c9a6"/>
   <path class="NecklaceCapeGold-Mediumfil11" d="M12792 18625c24,-29 37,-66 37,-106 0,-96 -80,-173 -178,-173 -44,0 -84,15 -115,40 19,-5 38,-8 59,-8 112,0 204,88 204,198 0,17 -3,33 -7,49z" style="fill:#8cad3f"/>
  </g>
 </g><g id="RightPaw-Lizard0">
 <animateTransform additive="sum" attributeName="transform" dur="10" repeatCount="indefinite" type="translate" values="0;0 200;0;0 200;0;0 200;0;0 200;0"/>
  <metadata id="CorelCorpID_351Corel-Layer"/>
  <path class="RightPaw-Lizard0fil661" d="M18407 19719c160,284 636,568 871,846 165,195 249,575 80,649 -149,66 -234,-108 -348,-218 -112,-108 -200,-191 -255,-121 94,89 123,234 200,476 89,279 3,682 -262,648 -142,-19 -126,-223 -244,-454 -92,-182 -171,-298 -384,-304 -138,-4 -217,58 -274,139 -100,142 -35,313 -193,347 -194,42 -272,-288 -250,-544 21,-247 62,-507 -9,-582 605,-42 1153,-458 1068,-882z" style="fill:#155c24"/>
  <path class="RightPaw-Lizard0fil32" d="M18467 19678c-21,-36 -66,-49 -102,-28 -36,20 -47,64 -27,100 13,23 28,49 44,71 107,145 280,276 455,408 150,114 301,228 399,344 84,99 164,261 169,392 2,54 -10,100 -40,126 -68,57 -155,5 -221,-85 -68,-94 -155,-212 -277,-234 -166,-31 -205,68 -150,146 72,103 161,338 196,566 16,103 19,202 2,282 -15,68 -43,121 -91,144 -30,16 -70,21 -122,14 -42,-5 -62,-72 -91,-165 -23,-73 -49,-158 -95,-248 -50,-98 -96,-179 -163,-239 -71,-65 -159,-102 -286,-106 -84,-3 -151,16 -206,47 -56,32 -97,75 -131,124 -50,70 -65,141 -78,204 -12,56 -22,104 -68,113 -16,3 -30,4 -42,3 -27,-2 -48,-16 -64,-38 -21,-29 -36,-71 -46,-120 -19,-94 -18,-208 -9,-310 5,-64 12,-117 19,-167 23,-169 45,-290 -27,-448 -17,-38 -66,-65 -103,-48 -38,17 -55,61 -38,99 54,119 39,232 20,377 -8,55 -16,114 -21,175 -9,113 -10,242 12,351 14,69 37,132 73,180 41,56 98,92 172,98 26,2 54,1 83,-5 143,-29 162,-120 185,-229 11,-49 22,-104 54,-149 23,-32 49,-61 82,-80 33,-18 75,-29 129,-28 86,3 144,27 189,67 49,45 88,113 130,197 41,80 65,157 86,224 45,147 78,252 215,270 83,10 152,-1 208,-29 93,-47 147,-136 170,-247 21,-99 19,-216 0,-336 -28,-188 -97,-388 -171,-523 42,11 114,93 156,151 101,141 269,235 415,116 71,-58 97,-147 93,-245 -6,-166 -98,-358 -204,-484 -109,-129 -266,-248 -423,-366 -189,-144 -378,-287 -460,-432z" style="fill:#27b608"/>
 </g><g id="LeftPaw-Lizard0">
 <animateTransform additive="sum" attributeName="transform" dur="10" repeatCount="indefinite" type="translate" values="0;0 200;0;0 200;0;0 200;0;0 200;0"/>
  <metadata id="CorelCorpID_360Corel-Layer"/>
  <path class="LeftPaw-Lizard0fil671" d="M8957 19719c-161,284 -636,568 -871,846 -165,195 -249,575 -80,649 148,66 234,-108 348,-218 112,-108 200,-191 255,-121 -94,89 -123,234 -200,476 -89,279 -3,682 262,648 142,-19 126,-223 244,-454 92,-182 171,-298 384,-304 138,-4 217,58 274,139 100,142 35,313 192,347 195,42 272,-288 251,-544 -21,-247 -62,-507 9,-582 -605,-42 -1153,-458 -1068,-882z" style="fill:#ad34de"/>
  <path class="LeftPaw-Lizard0fil32" d="M8897 19678c21,-36 66,-49 102,-28 36,20 47,64 27,100 -13,23 -28,49 -44,71 -107,145 -280,276 -455,408 -150,114 -301,228 -399,344 -84,99 -164,261 -169,392 -2,54 10,100 40,126 68,57 155,5 221,-85 68,-94 155,-212 277,-234 166,-31 205,68 150,146 -72,103 -162,338 -196,566 -16,103 -19,202 -2,282 15,68 43,121 91,144 30,16 70,21 122,14 42,-5 62,-72 91,-165 23,-73 49,-158 95,-248 50,-98 96,-179 163,-239 71,-65 159,-102 286,-106 84,-3 151,16 206,47 56,32 97,75 131,124 50,70 65,141 78,204 12,56 22,104 68,113 16,3 29,4 41,3 28,-2 49,-16 65,-38 21,-29 36,-71 46,-120 19,-94 18,-208 9,-310 -5,-64 -12,-117 -19,-167 -23,-169 -45,-290 26,-448 17,-38 66,-65 104,-48 38,17 55,61 38,99 -54,119 -39,232 -20,377 8,55 16,114 21,175 9,113 10,242 -12,351 -14,69 -37,132 -73,180 -42,56 -98,92 -172,98 -26,2 -54,1 -83,-5 -143,-29 -162,-120 -185,-229 -11,-49 -22,-104 -54,-149 -23,-32 -49,-61 -83,-80 -32,-18 -74,-29 -128,-28 -86,3 -144,27 -189,67 -49,45 -88,113 -131,197 -40,80 -64,157 -85,224 -45,147 -78,252 -215,270 -83,10 -152,-1 -208,-29 -93,-47 -147,-136 -170,-247 -21,-99 -19,-216 -1,-336 29,-188 98,-388 172,-523 -43,11 -114,93 -156,151 -101,141 -269,235 -416,116 -70,-58 -96,-147 -92,-245 6,-166 98,-358 204,-484 109,-129 266,-248 423,-366 189,-144 378,-287 460,-432z" style="fill:#0b46af"/>
 </g><g id="BraceletGold-Medium">
 <animateTransform additive="sum" attributeName="transform" dur="10" repeatCount="indefinite" type="translate" values="0;0 200;0;0 200;0;0 200;0;0 200;0"/>
  <metadata id="CorelCorpID_23Corel-Layer"/>
  <path class="BraceletGold-Mediumfil66new BraceletGold-Mediumstr3new" d="M10392 20534c79,89 47,248 -72,354 -119,107 -281,121 -360,32 -53,-59 -57,-150 -18,-235 -84,28 -173,15 -235,-42 -74,-68 -89,-180 -46,-281 -96,59 -216,61 -303,-6 -82,-63 -113,-168 -90,-270 -103,65 -228,65 -308,-8 -53,-49 -76,-120 -68,-194 -86,59 -187,71 -257,20 -97,-71 -99,-233 -5,-362 94,-129 249,-177 346,-107 59,44 83,123 70,207 102,-64 226,-64 305,9 64,58 84,148 62,236 94,-57 211,-57 297,9 94,72 121,201 76,315 103,-68 231,-70 312,5 74,68 89,179 47,280 94,-36 191,-25 247,38z" style="fill:#295633"/>
  <path class="BraceletGold-Mediumfil3new" d="M8821 19869c89,-45 175,-196 176,-279 36,20 77,54 114,74 -72,24 -169,168 -170,275 -42,-20 -78,-50 -120,-70z" style="fill:#f63420"/>
  <path class="BraceletGold-Mediumfil3new" d="M9174 20077c95,-34 192,-174 204,-257 33,24 83,58 117,83 -75,15 -188,157 -192,273 -39,-25 -89,-74 -129,-99z" style="fill:#0274e7"/>
  <path class="BraceletGold-Mediumfil3new" d="M9568 20352c111,-30 185,-163 196,-246 34,24 86,87 120,111 -74,16 -185,125 -199,231 -40,-25 -78,-71 -117,-96z" style="fill:#a0c5a4"/>
  <path class="BraceletGold-Mediumfil3new" d="M9883 20650c114,-10 208,-138 233,-217 29,29 68,65 97,95 -75,2 -211,122 -244,224 -34,-32 -52,-70 -86,-102z" style="fill:#864093"/>
  <path class="BraceletGold-Mediumfil67new BraceletGold-Mediumstr3new" d="M16972 20534c-80,89 -47,248 72,354 119,107 280,121 360,32 53,-59 56,-150 17,-235 85,28 174,15 236,-42 74,-68 89,-180 46,-281 95,59 215,61 303,-6 82,-63 113,-168 90,-270 102,65 228,65 308,-8 53,-49 76,-120 68,-194 86,59 187,71 257,20 97,-71 99,-233 5,-362 -95,-129 -249,-177 -346,-107 -60,44 -83,123 -70,207 -102,-64 -226,-64 -306,9 -63,58 -83,148 -61,236 -94,-57 -211,-57 -297,9 -94,72 -122,201 -76,315 -103,-68 -231,-70 -312,5 -74,68 -89,179 -47,280 -94,-36 -191,-25 -247,38z" style="fill:#a42ed7"/>
  <path class="BraceletGold-Mediumfil3new" d="M18543 19869c-89,-45 -175,-196 -176,-279 -37,20 -77,54 -114,74 72,24 169,168 170,275 42,-20 78,-50 120,-70z" style="fill:#6a9302"/>
  <path class="BraceletGold-Mediumfil3new" d="M18189 20077c-94,-34 -192,-174 -203,-257 -34,24 -83,58 -117,83 74,15 188,157 191,273 40,-25 90,-74 129,-99z" style="fill:#446429"/>
  <path class="BraceletGold-Mediumfil3new" d="M17796 20352c-111,-30 -185,-163 -196,-246 -34,24 -86,87 -120,111 74,16 184,125 199,231 40,-25 77,-71 117,-96z" style="fill:#bcabd5"/>
  <path class="BraceletGold-Mediumfil3new" d="M17481 20650c-114,-10 -208,-138 -233,-217 -29,29 -68,65 -98,95 76,2 212,122 244,224 35,-32 53,-70 87,-102z" style="fill:#9a0a91"/>
 </g><g id="HatMotorbikeBack-Medium">
 <animateTransform additive="sum" attributeName="transform" dur="10" repeatCount="indefinite" type="translate" values="0;0 200;0;0 200;0;0 200;0;0 200;0"/>
  <metadata id="CorelCorpID_11Corel-Layer"/>
  <path class="HatMotorbikeBack-Mediumfil53 HatMotorbikeBack-Mediumstr4" d="M13682 18201c-848,0 -2735,-201 -3372,-490 -184,-83 -656,-498 -592,-625 1353,308 2589,665 3964,665 1375,0 2611,-357 3964,-665 64,127 -408,542 -592,625 -637,289 -2524,490 -3372,490z" style="fill:#a9ebb2"/>
 </g><g id="Head-Lizard5">
 <animateTransform additive="sum" attributeName="transform" dur="10" repeatCount="indefinite" type="translate" values="0;0 200;0;0 200;0;0 200;0;0 200;0"/>
  <metadata id="CorelCorpID_375Corel-Layer"/>
  <path class="Head-Lizard5fil695" d="M13682 17781c-1487,0 -2914,-41 -4017,-516 -1362,-586 -2343,-1831 -2417,-2586 -80,-810 608,-2949 1368,-3679 -653,-856 -102,-1988 66,-1855 102,80 540,389 1455,-205 1009,-673 2198,-1146 3545,-1146 1347,0 2536,473 3545,1146 915,594 1353,285 1455,205 168,-133 719,999 66,1855 760,730 1448,2869 1368,3679 -74,755 -1055,2000 -2417,2586 -1103,475 -2530,516 -4017,516z" style="fill:#c8ba23"/>
  <path class="Head-Lizard5fil688" d="M13654 11822c1933,0 3500,1254 3500,2800 0,1546 -1567,2800 -3500,2800 -1933,0 -3500,-1254 -3500,-2800 0,-1546 1567,-2800 3500,-2800z" style="fill:#eea7b2"/>
  <path class="Head-Lizard5fil14" d="M12214 17786c-2328,-50 -4184,-995 -4921,-2827 -117,-290 -134,-1223 523,-2495 -1012,3268 2148,5078 4398,5322z" style="fill:#8ba431"/>
  <path class="Head-Lizard5fil32" d="M12283 17788c-803,68 -1903,-134 -2648,-454 -648,-279 -1211,-705 -1635,-1158 -483,-517 -786,-1073 -827,-1489 -43,-441 133,-1258 422,-2037 239,-642 576,-1278 914,-1643 -292,-357 -336,-966 -251,-1399 45,-232 237,-722 484,-517 206,171 705,210 1355,-214l0 0c624,-416 1414,-861 2174,-904 -264,74 -531,179 -804,305 -454,209 -911,472 -1288,724l-1 1c-671,435 -1165,471 -1514,221 -77,-55 -194,148 -253,447 -76,383 -57,923 259,1278 29,29 28,77 -2,105 -348,335 -683,977 -933,1648 -282,760 -454,1551 -413,1970 38,385 326,908 788,1402 410,439 956,852 1584,1122 683,294 1773,519 2589,592z" style="fill:#da1151"/>
  <path class="Head-Lizard5fil696" d="M13584 13856c-52,-76 -4,-218 54,-307 38,-58 149,-102 182,-53 56,82 66,229 3,324 -49,75 -195,100 -239,36zm649 -383c-92,-9 -170,-137 -201,-239 -19,-66 18,-180 77,-174 99,10 218,97 250,206 26,86 -48,214 -126,207zm-669 -547c68,123 -61,256 -98,471 -18,104 -196,128 -258,66 -221,-219 -229,-402 -135,-544 74,-111 435,-96 491,7zm234 -924c14,-108 148,-347 259,-374 176,-42 429,-4 531,105 111,118 -74,408 -121,597 -34,137 -183,301 -320,340 -450,126 -374,-485 -349,-668zm-886 -427c-75,132 -47,362 -27,551 12,108 107,431 193,457 136,41 337,-167 415,-276 85,-119 64,-332 27,-520 -27,-137 -142,-307 -249,-339 -120,-35 -298,21 -359,127zm1899 -625c67,112 -62,232 -98,426 -18,95 -197,117 -259,61 -221,-199 -228,-364 -134,-492 74,-101 434,-87 491,5zm-1866 -232c152,-361 160,-655 348,-856 108,-115 345,-147 469,-51 198,154 501,527 500,778 -2,272 -300,463 -508,639 -151,127 -434,164 -589,43 -174,-137 -305,-349 -220,-553zm-683 534c-108,-71 -43,-235 -94,-427 -24,-93 128,-189 208,-165 285,84 362,230 332,387 -23,122 -355,265 -446,205zm1782 -1651c-93,-9 -171,-137 -202,-239 -19,-66 18,-180 77,-174 99,10 218,97 251,206 25,86 -49,214 -126,207zm-903 -80c-51,-29 -57,-116 -41,-173 20,-67 69,-146 138,-158 51,-10 92,62 107,112 17,55 19,131 -20,173 -43,46 -129,77 -184,46zm-1145 354c20,162 204,306 352,425 85,68 397,219 495,162 157,-92 203,-422 202,-570 -1,-162 -167,-298 -332,-402 -119,-76 -344,-98 -466,-26 -137,81 -267,281 -251,411zm-208 -429c68,111 -61,232 -98,426 -18,94 -196,116 -259,60 -221,-198 -228,-363 -134,-492 74,-101 435,-87 491,6zm2971 1090c-162,-24 -301,-211 -416,-363 -66,-87 -140,-350 -80,-447 95,-155 415,-313 563,-308 162,5 236,244 336,411 72,121 89,346 14,467 -85,135 -287,259 -417,240zm795 -531c-108,-71 -44,-235 -94,-427 -24,-92 127,-189 208,-165 284,84 362,230 332,387 -23,122 -355,265 -446,205z" style="fill:#c05ff4"/>
  <path class="Head-Lizard5fil32" d="M15081 17788c802,68 1903,-134 2648,-454 648,-279 1211,-705 1635,-1158 483,-517 785,-1073 826,-1489 44,-441 -132,-1258 -421,-2037 -239,-642 -577,-1278 -914,-1643 292,-357 335,-966 251,-1399 -45,-232 -237,-722 -484,-517 -206,171 -705,210 -1355,-214l0 0c-624,-416 -1414,-861 -2174,-904 264,74 531,179 803,305 455,209 911,472 1289,724l1 1c671,435 1165,471 1514,221 77,-55 194,148 253,447 76,383 57,923 -259,1278 -29,29 -28,77 2,105 348,335 683,977 933,1648 282,760 454,1551 413,1970 -38,385 -327,908 -788,1402 -410,439 -956,852 -1585,1122 -682,294 -1772,519 -2588,592z" style="fill:#3c72e1"/>
 </g><g id="Mouth-Lizard0">
 <animateTransform additive="sum" attributeName="transform" dur="10" repeatCount="indefinite" type="translate" values="0;0 200;0;0 200;0;0 200;0;0 200;0"/>
  <metadata id="CorelCorpID_378Corel-Layer"/>
  <path class="Mouth-Lizard0fil708" d="M13682 17844c-963,0 -1475,-57 -2157,-142 -844,-197 -1780,-993 -1989,-1942 580,802 2764,3 4146,5 1382,-2 3502,822 4146,-5 -209,949 -1146,1745 -1990,1942 -681,85 -1193,142 -2156,142z" style="fill:#ef1021"/>
  <path class="Mouth-Lizard0fil22 Mouth-Lizard0str0" d="M13682 15765c-1207,0 -3628,825 -4146,-5" style="fill:#c16e8e"/>
  <path class="Mouth-Lizard0fil22 Mouth-Lizard0str11" d="M13682 15765c1207,0 3628,825 4146,-5" style="fill:#a9a95b"/>
 </g><g id="WeaponFlySwatter-Medium">
 <animateTransform additive="sum" attributeName="transform" dur="10" repeatCount="indefinite" type="translate" values="0;0 200;0;0 200;0;0 200;0;0 200;0"/>
  <metadata id="CorelCorpID_1Corel-Layer"/>
  <g id="_2367108401984">
   <path class="WeaponFlySwatter-Mediumfil2 WeaponFlySwatter-Mediumstr0" d="M12021 22875c-60,107 -120,214 -181,320 -796,-449 -1593,-899 -2390,-1348 -25,-155 36,-261 180,-320 797,449 1594,899 2391,1348z" style="fill:#baa0a1"/>
   <path class="WeaponFlySwatter-Mediumfil3" d="M11911 23070l-71 125c-796,-449 -1593,-899 -2390,-1348 -13,-83 -2,-151 33,-206l2428 1429z" style="fill:#3f316f"/>
   <path class="WeaponFlySwatter-Mediumfil4" d="M15132 23138c18,9 34,17 47,25 244,135 344,347 329,601 -14,234 -129,505 -322,782 -47,68 -98,134 -152,200 -54,66 -110,129 -168,190 -241,251 -505,440 -763,538 -282,107 -559,110 -802,-25 -14,-8 -29,-17 -45,-28l-1620 -1038c-225,-145 -316,-292 -255,-521 53,-198 230,-454 546,-840 316,-385 540,-615 743,-729 237,-133 437,-118 684,-1l1778 846zm-2015 -717l-36 45 194 108 52 -64 -94 -44c-41,-20 -79,-34 -116,-45zm341 152l-57 70 194 108 67 -81 -204 -97zm335 159l-72 89 194 107 81 -99 -203 -97zm335 160l-88 106 195 108 96 -118 -203 -96zm335 159l-103 124 195 108 111 -135 -203 -97zm334 159l-117 143 194 108 127 -154 -204 -97zm324 173l-121 147 194 108 49 -60c-20,-76 -60,-142 -122,-195zm131 432l-14 -8 -130 158 91 50c25,-69 43,-136 53,-200zm-103 318l-123 -68 -129 158 157 87c36,-60 68,-119 95,-177zm-164 284l-170 -95 -130 158 180 100c37,-47 71,-93 103,-138 6,-8 12,-17 17,-25zm-201 262l-181 -100 -129 158 170 95c8,-8 15,-15 23,-23 39,-41 78,-84 117,-130zm-235 245l-157 -87 -130 158 123 68c55,-42 110,-89 164,-139zm-278 220l-91 -50 -129 158 13 8c69,-31 138,-70 207,-116zm-477 198l49 -60 -194 -108 -121 148c83,27 173,33 266,20zm-397 -84l127 -153 -195 -108 -117 143 185 118zm-305 -195l112 -136 -195 -108 -102 125 185 119zm-305 -196l97 -117 -194 -108 -88 106 185 119zm-305 -195l82 -100 -194 -107 -73 88 185 119zm-305 -196l67 -81 -194 -108 -58 70 185 119zm-304 -195l51 -63 -194 -108 -36 44c25,24 56,48 93,72l86 55zm-248 -374l61 34 130 -158 -109 -61c-40,70 -67,131 -82,185zm149 -293l124 69 129 -158 -136 -76c-45,60 -84,115 -117,165zm194 -266l141 78 130 -158 -143 -80c-46,56 -89,110 -128,160zm209 -259l144 79 130 -158 -141 -78c-42,49 -86,101 -133,157zm218 -254l137 76 130 -158 -124 -69c-45,45 -92,95 -143,151zm240 -242l109 61 130 -158 -61 -34c-55,31 -114,75 -178,131zm1843 1917l-194 -108 -130 158 194 108 130 -158zm-320 -178l-194 -107 -130 158 194 107 130 -158zm-320 -177l-194 -108 -130 158 194 108 130 -158zm-320 -177l-194 -108 -130 158 195 107 129 -157zm-319 -178l-195 -108 -130 158 195 108 130 -158zm-320 -177l-195 -108 -129 158 194 108 130 -158zm-320 -178l-194 -107 -130 157 194 108 130 -158zm-113 -207l195 108 129 -158 -194 -108 -130 158zm320 177l194 108 130 -158 -194 -107 -130 157zm320 178l194 108 130 -158 -194 -108 -130 158zm320 177l194 108 130 -158 -194 -108 -130 158zm320 178l194 107 130 -157 -195 -108 -129 158zm320 177l194 108 130 -158 -195 -108 -129 158zm319 178l195 107 129 -158 -194 -107 -130 158zm-1707 -1322l194 107 130 -158 -194 -107 -130 158zm320 177l194 108 130 -158 -195 -108 -129 158zm320 177l194 108 130 -158 -195 -107 -129 157zm319 178l195 108 129 -158 -194 -108 -130 158zm320 177l194 108 130 -158 -194 -108 -130 158zm320 178l194 107 130 -157 -194 -108 -130 158zm320 177l194 108 130 -158 -194 -108 -130 158zm-1708 -1322l195 108 129 -158 -194 -108 -130 158zm320 178l194 107 130 -158 -194 -107 -130 158zm320 177l194 108 130 -158 -194 -108 -130 158zm320 177l194 108 130 -158 -194 -107 -130 157zm320 178l194 108 130 -158 -195 -108 -129 158zm320 177l194 108 130 -158 -195 -108 -129 158zm319 178l195 107 129 -157 -194 -108 -130 158zm-2635 -193l-130 158 195 108 129 -158 -194 -108zm320 177l-130 158 194 108 130 -158 -194 -108zm320 178l-130 158 194 107 130 -157 -194 -108zm320 177l-130 158 194 108 130 -158 -194 -108zm319 178l-129 158 194 107 130 -158 -195 -107zm320 177l-129 158 194 108 130 -158 -195 -108zm320 177l-130 158 195 108 129 -158 -194 -108zm-2130 -807l-130 158 194 108 130 -158 -194 -108zm319 178l-129 158 194 107 130 -157 -195 -108zm320 177l-130 158 195 108 129 -158 -194 -108zm320 178l-130 158 195 107 129 -158 -194 -107zm320 177l-130 158 194 108 130 -158 -194 -108zm320 177l-130 158 194 108 130 -158 -194 -108zm320 178l-130 158 194 108 130 -158 -194 -108z" style="fill:#ff40e6"/>
   <path class="WeaponFlySwatter-Mediumfil1" d="M14481 25269c-125,88 -252,157 -378,205 -282,107 -559,110 -802,-25 -14,-8 -29,-17 -45,-28l-1620 -1038c-225,-145 -316,-292 -255,-521 53,-198 230,-454 546,-840 316,-385 540,-615 743,-729 237,-133 437,-118 684,-1l44 21c-232,65 -436,163 -608,285l84 -102 -61 -34c-55,31 -114,75 -178,131l92 51c-37,28 -71,57 -105,87l-84 -47c-45,45 -92,95 -143,151l81 45c-29,32 -56,65 -81,100l-85 -48c-42,49 -86,101 -133,157l107 59c-21,37 -40,75 -58,113l-130 -73c-46,56 -89,110 -128,160l141 78 94 -115c-48,113 -81,229 -100,345l-80 97 65 36c-1,13 -2,26 -2,39 -2,36 1,73 9,109l-153 -85 -130 158 194 108 103 -125c15,48 36,97 64,144l-41 51 123 68c114,144 280,282 473,408l-38 -22 -88 106 185 119 92 -111c41,23 83,46 126,69l-98 119 185 119 112 -136 -54 -30c254,122 524,220 774,285l1 1 0 -1c52,14 104,26 154,36l-28 34 13 8c22,-10 43,-20 64,-32 129,25 248,39 353,41zm-687 73l49 -60 -194 -108 -121 148c83,27 173,33 266,20zm-397 -84l127 -153 -195 -108 -117 143 185 118zm-915 -586l82 -100 -194 -107 -73 88 185 119zm-305 -196l67 -81 -194 -108 -58 70 185 119zm-304 -195l51 -63 -194 -108 -36 44c25,24 56,48 93,72l86 55zm-248 -374l61 34 130 -158 -109 -61c-40,70 -67,131 -82,185zm149 -293l124 69 129 -158 -136 -76c-45,60 -84,115 -117,165z" style="fill:#bf019f"/>
   <path class="WeaponFlySwatter-Mediumfil5 WeaponFlySwatter-Mediumstr1" d="M15132 23138c18,9 34,17 47,25 244,135 344,347 329,601 -14,234 -129,505 -322,782 -47,68 -98,134 -152,200 -54,66 -110,129 -168,190 -241,251 -505,440 -763,538 -282,107 -559,110 -802,-25 -14,-8 -29,-17 -45,-28l-1620 -1038c-225,-145 -316,-292 -255,-521 53,-198 230,-454 546,-840 316,-385 540,-615 743,-729 237,-133 437,-118 684,-1l1778 846z" style="fill:#d975bb"/>
  </g>
 </g><g id="Eyes-Lizard5">
 <animateTransform additive="sum" attributeName="transform" dur="10" repeatCount="indefinite" type="translate" values="0;0 200;0;0 200;0;0 200;0;0 200;0"/>
  <metadata id="CorelCorpID_392Corel-Layer"/>
  <path class="Eyes-Lizard5fil14" d="M7970 13978c-146,-775 118,-2127 1014,-3020 -1331,-964 1812,-1105 2599,-217 786,888 1089,2831 276,3970 -989,1387 -3597,811 -3889,-733z"/>
  <g>
        <animateTransform additive="sum" attributeName="transform" dur="10" repeatCount="indefinite" type="translate" values="0;0;0;0;0;0;0;0;0;0;0;0;0;0;0;0;0;0;0;0;0;0;0;0;0;0;0;0;0;0;0;0;0;0;0;0;0;0;0;0;0;0;0;0;0;0;0;0;0;0;0;0;0;0;0;0;0;0;0;0;0;0;0;0;0;0;0;0;0;0;0;0;0;0;0;0;0;0;0;0;0;0;0;0;0;0;0;0;0;0;0 13300;0"/> 
        <g>
            <animateTransform additive="sum" attributeName="transform" dur="10" repeatCount="indefinite" type="scale" values="1;1;1;1;1;1;1;1;1;1;1;1;1;1;1;1;1;1;1;1;1;1;1;1;1;1;1;1;1;1;1;1;1;1;1;1;1;1;1;1;1;1;1;1;1;1;1;1;1;1;1;1;1;1;1;1;1;1;1;1;1;1;1;1;1;1;1;1;1;1;1;1;1;1;1;1;1;1;1;1;1;1;1;1;1;1;1;1;1;1;1 0.01;1"/> 
            <path class="Eyes-Lizard5fil758" d="M8452 14385c557,808 2256,711 2914,44 644,-652 482,-2662 45,-3311 -381,-566 -1248,-614 -1803,-283 -1379,822 -1782,2642 -1156,3550z"/>
            <path class="Eyes-Lizard5fil759" d="M8605 14560c16,15 33,29 50,43 415,-289 906,-584 1472,-830 -440,351 -797,709 -1086,1050 23,9 47,17 70,25 317,-304 678,-601 1090,-864 -237,299 -450,627 -624,963 31,3 62,6 94,8 190,-279 400,-563 635,-817 -110,265 -199,542 -249,813 36,-2 71,-6 106,-10 77,-258 175,-521 298,-765l-3 714c28,-7 57,-14 85,-21l85 -631 177 545c25,-11 50,-21 75,-32l-110 -588 304 489c22,-13 44,-26 65,-40l-257 -554 457 397c9,-8 18,-17 27,-26 10,-10 20,-21 30,-32l-446 -500 589 291c15,-27 29,-55 42,-84l-576 -374 654 170c12,-39 24,-78 34,-119l-675 -292 719 90c5,-30 10,-59 15,-89l-728 -175 750 0c3,-29 5,-59 8,-88l-764 -85 773 -65c1,-35 3,-70 3,-105l-782 -34 783 -110c-1,-39 -1,-78 -3,-118l-718 -1 711 -142c-2,-36 -5,-71 -8,-106l-734 50 717 -223c-5,-40 -10,-80 -16,-119l-739 107 710 -283c-6,-34 -13,-67 -20,-100l-733 179 692 -356c-8,-32 -17,-63 -26,-94l-734 258 673 -445c-11,-29 -23,-58 -34,-85l-695 338 574 -568 -1 -2c-14,-21 -28,-41 -43,-60l-542 432 343 -624c-15,-11 -30,-21 -46,-31l-346 514 82 -643c-19,-7 -39,-14 -59,-19l-166 685c-34,-253 -94,-500 -170,-742 -18,0 -36,-1 -54,-1 64,316 102,632 119,947 -123,-328 -294,-629 -512,-905 -18,5 -36,9 -54,14 211,344 370,702 486,1071 -221,-345 -500,-653 -860,-910 -18,11 -36,22 -54,34 317,299 583,627 802,981 -339,-292 -712,-542 -1118,-747 -15,12 -28,24 -42,36 403,260 762,563 1080,903 -451,-283 -897,-497 -1338,-644 -10,12 -21,24 -31,36 476,209 910,472 1313,775 -479,-225 -1010,-367 -1556,-448 -10,16 -20,32 -31,49 531,152 1043,339 1500,585 -540,-170 -1092,-255 -1682,-243 -10,22 -20,44 -29,66 589,66 1156,206 1699,406 -616,-81 -1221,-98 -1828,-42 -5,18 -10,37 -15,55 639,1 1269,63 1845,208 -625,-30 -1284,4 -1914,135 -4,28 -7,56 -10,83 623,-56 1250,-76 1872,-49 -628,61 -1257,192 -1886,397 1,15 1,30 2,46 621,-147 1250,-239 1891,-264 -644,132 -1261,319 -1850,591 3,13 6,26 9,39 597,-213 1204,-334 1804,-423 -578,185 -1143,429 -1694,754 6,13 12,26 18,39 540,-260 1107,-475 1713,-629 -558,293 -1059,643 -1454,985z"/>
            <path class="Eyes-Lizard5fil740" d="M11750 13501c132,-849 -39,-1937 -339,-2383 -381,-566 -1248,-614 -1803,-283 -830,495 -1306,1350 -1417,2151 444,-1198 1906,-2113 2492,-1923 818,266 1174,1264 1067,2438z"/>
            <path class="Eyes-Lizard5fil760" d="M10247 10989c651,-163 1053,398 1180,1226 128,828 84,2008 -835,2202 -919,194 -1363,-347 -1402,-1302 -39,-955 406,-1963 1057,-2126z"/>
            <path class="Eyes-Lizard5fil22 Eyes-Lizard5str4" d="M8452 14385c557,808 2256,711 2914,44 644,-652 482,-2662 45,-3311 -381,-566 -1248,-614 -1803,-283 -1379,822 -1782,2642 -1156,3550z"/>
            <path class="Eyes-Lizard5fil152" d="M10296 14232c214,-22 240,-95 253,-359 14,264 40,337 254,359 -214,21 -240,94 -254,358 -13,-264 -39,-337 -253,-358z"/>
            <path class="Eyes-Lizard5fil152" d="M10054 14430c94,-9 106,-41 111,-157 6,116 18,148 112,157 -94,10 -106,42 -112,157 -5,-115 -17,-147 -111,-157z"/>
            <path class="Eyes-Lizard5fil152" d="M10689 13703c94,-9 105,-41 111,-157 6,116 18,148 112,157 -94,10 -106,42 -112,157 -6,-115 -17,-147 -111,-157z"/>
            <path class="Eyes-Lizard5fil152" d="M8885 12298c129,-13 145,-57 153,-216 8,159 24,203 153,216 -129,13 -145,57 -153,216 -8,-159 -24,-203 -153,-216z"/>
            <path class="Eyes-Lizard5fil152" d="M11110 13961c94,-9 105,-41 111,-157 6,116 18,148 112,157 -94,10 -106,42 -112,158 -6,-116 -17,-148 -111,-158z"/>
            <path class="Eyes-Lizard5fil152" d="M8431 13602c-8,951 787,1268 1452,1178 -605,-76 -1257,-417 -1452,-1178z"/>
            <circle class="Eyes-Lizard5fil152" r="235" transform="matrix(1.65698 -1.53296 0.903442 0.660992 9546.21 11364.7)"/>
            <circle class="Eyes-Lizard5fil152" r="235" transform="matrix(0.246297 -0.515148 0.344329 0.113736 8921.89 11882.2)"/>
            <circle class="Eyes-Lizard5fil152" r="235" transform="matrix(0.570071 -0.0325374 0.0663361 0.356508 10408.1 10967.5)"/>
            <path class="Eyes-Lizard5fil152" d="M10940 13046c190,-20 213,-84 225,-318 12,234 35,298 225,318 -190,19 -213,84 -225,317 -12,-233 -35,-298 -225,-317z"/>
            <circle class="Eyes-Lizard5fil152" r="235" transform="matrix(0.571973 0.0891005 -0.163247 0.800032 11439.4 13653)"/>
        </g>
    </g>
    <path class="Eyes-Lizard5fil14" d="M19394 13978c146,-775 -118,-2127 -1014,-3020 1331,-964 -1812,-1105 -2599,-217 -786,888 -1089,2831 -276,3970 988,1387 3597,811 3889,-733z"/>
   <g>
        <animateTransform additive="sum" attributeName="transform" dur="10" repeatCount="indefinite" type="translate" values="0;0;0;0;0;0;0;0;0;0;0;0;0;0;0;0;0;0;0;0;0;0;0;0;0;0;0;0;0;0;0;0;0;0;0;0;0;0;0;0;0;0;0;0;0;0;0;0;0;0;0;0;0;0;0;0;0;0;0;0;0;0;0;0;0;0;0;0;0;0;0;0;0;0;0;0;0;0;0;0;0;0;0;0;0;0;0;0;0;0;0 13300;0"/> 
        <g>
            <animateTransform additive="sum" attributeName="transform" dur="10" repeatCount="indefinite" type="scale" values="1;1;1;1;1;1;1;1;1;1;1;1;1;1;1;1;1;1;1;1;1;1;1;1;1;1;1;1;1;1;1;1;1;1;1;1;1;1;1;1;1;1;1;1;1;1;1;1;1;1;1;1;1;1;1;1;1;1;1;1;1;1;1;1;1;1;1;1;1;1;1;1;1;1;1;1;1;1;1;1;1;1;1;1;1;1;1;1;1;1;1 0.01;1"/> 
            <path class="Eyes-Lizard5fil761" d="M18912 14385c-557,808 -2256,711 -2914,44 -644,-652 -482,-2662 -45,-3311 381,-566 1248,-614 1803,-283 1379,822 1782,2642 1156,3550z"/>
            <path class="Eyes-Lizard5fil762" d="M18759 14560c-16,15 -33,29 -50,43 -415,-289 -906,-584 -1472,-830 440,351 797,709 1085,1050 -23,9 -46,17 -69,25 -317,-304 -678,-601 -1090,-864 237,299 450,627 624,963 -31,3 -63,6 -94,8 -190,-279 -400,-563 -635,-817 110,265 199,542 248,813 -35,-2 -70,-6 -105,-10 -77,-258 -176,-521 -298,-765l3 714c-29,-7 -57,-14 -85,-21l-85 -631 -177 545c-25,-11 -50,-21 -75,-32l110 -588 -304 489c-22,-13 -44,-26 -65,-40l257 -554 -457 397c-10,-8 -19,-17 -27,-26 -11,-10 -21,-21 -30,-32l446 -500 -590 291c-14,-27 -28,-55 -41,-84l575 -374 -653 170c-12,-39 -24,-78 -34,-119l675 -292 -719 90c-6,-30 -10,-59 -15,-89l728 -175 -750 0c-3,-29 -6,-59 -8,-88l764 -85 -773 -65c-2,-35 -3,-70 -3,-105l782 -34 -783 -110c0,-39 1,-78 3,-118l718 -1 -711 -142c2,-36 5,-71 7,-106l735 50 -717 -223c5,-40 10,-80 16,-119l738 107 -709 -283c6,-34 13,-67 19,-100l734 179 -692 -356c8,-32 17,-63 26,-94l734 258 -673 -445c11,-29 23,-58 34,-85l694 338 -573 -568 1 -2c14,-21 28,-41 43,-60l542 432 -343 -624c15,-11 30,-21 46,-31l345 514 -81 -643c19,-7 39,-14 59,-19l166 685c34,-253 93,-500 169,-742 19,0 37,-1 55,-1 -64,316 -103,632 -119,947 123,-328 294,-629 512,-905 18,5 36,9 54,14 -211,344 -370,702 -486,1071 220,-345 500,-653 860,-910 18,11 36,22 54,34 -317,299 -584,627 -802,981 339,-292 711,-542 1118,-747 14,12 28,24 42,36 -403,260 -762,563 -1080,903 451,-283 897,-497 1338,-644 10,12 21,24 31,36 -476,209 -910,472 -1313,775 479,-225 1010,-367 1555,-448 11,16 21,32 31,49 -530,152 -1042,339 -1499,585 540,-170 1092,-255 1682,-243 10,22 19,44 29,66 -590,66 -1156,206 -1699,406 616,-81 1221,-98 1828,-42 5,18 10,37 15,55 -639,1 -1269,63 -1846,208 626,-30 1285,4 1915,135 4,28 7,56 10,83 -623,-56 -1250,-76 -1873,-49 629,61 1258,192 1887,397 -1,15 -2,30 -2,46 -621,-147 -1250,-239 -1891,-264 643,132 1261,319 1850,591 -3,13 -6,26 -9,39 -597,-213 -1204,-334 -1804,-423 578,185 1143,429 1694,754 -6,13 -12,26 -19,39 -539,-260 -1106,-475 -1712,-629 557,293 1059,643 1454,985z"/>
            <path class="Eyes-Lizard5fil740" d="M15614 13501c-132,-849 39,-1937 339,-2383 381,-566 1248,-614 1803,-283 830,495 1306,1350 1417,2151 -444,-1198 -1906,-2113 -2492,-1923 -818,266 -1175,1264 -1067,2438z"/>
            <path class="Eyes-Lizard5fil763" d="M17117 10989c-651,-163 -1053,398 -1180,1226 -128,828 -85,2008 835,2202 919,194 1363,-347 1402,-1302 39,-955 -406,-1963 -1057,-2126z"/>
            <path class="Eyes-Lizard5fil22 Eyes-Lizard5str4" d="M18912 14385c-557,808 -2256,711 -2914,44 -644,-652 -482,-2662 -45,-3311 381,-566 1248,-614 1803,-283 1379,822 1782,2642 1156,3550z"/>
            <path class="Eyes-Lizard5fil152" d="M17068 14232c-214,-22 -240,-95 -254,-359 -13,264 -39,337 -253,359 214,21 240,94 253,358 14,-264 40,-337 254,-358z"/>
            <path class="Eyes-Lizard5fil152" d="M17310 14430c-94,-9 -106,-41 -112,-157 -5,116 -17,148 -111,157 94,10 106,42 111,157 6,-115 18,-147 112,-157z"/>
            <path class="Eyes-Lizard5fil152" d="M16675 13703c-94,-9 -106,-41 -111,-157 -6,116 -18,148 -112,157 94,10 106,42 112,157 5,-115 17,-147 111,-157z"/>
            <path class="Eyes-Lizard5fil152" d="M18479 12298c-129,-13 -145,-57 -153,-216 -8,159 -24,203 -153,216 129,13 145,57 153,216 8,-159 24,-203 153,-216z"/>
            <path class="Eyes-Lizard5fil152" d="M16254 13961c-94,-9 -106,-41 -111,-157 -6,116 -18,148 -112,157 94,10 106,42 112,158 5,-116 17,-148 111,-158z"/>
            <path class="Eyes-Lizard5fil152" d="M18933 13602c8,951 -787,1268 -1452,1178 605,-76 1257,-417 1452,-1178z"/>
            <circle class="Eyes-Lizard5fil152" r="235" transform="matrix(-1.65698 -1.53296 -0.903442 0.660992 17817.6 11364.7)"/>
            <circle class="Eyes-Lizard5fil152" r="235" transform="matrix(-0.246297 -0.515148 -0.344329 0.113736 18442 11882.2)"/>
            <circle class="Eyes-Lizard5fil152" r="235" transform="matrix(-0.570071 -0.0325374 -0.0663361 0.356508 16955.7 10967.5)"/>
            <path class="Eyes-Lizard5fil152" d="M16424 13046c-190,-20 -213,-84 -225,-318 -12,234 -35,298 -225,318 190,19 213,84 225,317 12,-233 35,-298 225,-317z"/>
            <circle class="Eyes-Lizard5fil152" r="235" transform="matrix(-0.571973 0.0891005 0.163247 0.800032 15924.5 13653)"/>
        </g>
    </g>
 </g><g id="Moustache-Lizard0">
 <animateTransform additive="sum" attributeName="transform" dur="10" repeatCount="indefinite" type="translate" values="0;0 200;0;0 200;0;0 200;0;0 200;0"/>
  <metadata id="CorelCorpID_398Corel-Layer"/>
  <rect class="Moustache-Lizard0fil22" height="802" width="919" x="13222" y="14329"/>
 </g><g id="Nose-Lizard0">
 <animateTransform additive="sum" attributeName="transform" dur="10" repeatCount="indefinite" type="translate" values="0;0 200;0;0 200;0;0 200;0;0 200;0"/>
  <metadata id="CorelCorpID_400Corel-Layer"/>
  <g>
   <path class="Nose-Lizard0fil100" d="M13012 15166c-94,181 -789,71 -592,-308 197,-378 686,127 592,308z" style="fill:#b46600"/>
   <path class="Nose-Lizard0fil100" d="M14352 15166c94,181 789,71 592,-308 -197,-378 -687,127 -592,308z" style="fill:#188a85"/>
  </g>
 </g><g id="AccessoryDuck">
  <metadata id="CorelCorpID_7Corel-Layer"/>
  <g>
   <path class="AccessoryDuckfil122" d="M6799 23590c567,92 901,386 954,797 53,412 -243,1082 -841,1089 -393,5 -1153,26 -1786,26 -391,0 -696,-285 -829,-563 -183,-382 -87,-1276 203,-1374 170,-58 552,365 851,277 435,-128 967,-330 1448,-252z" style="fill:#db3aeb"/>
   <path class="AccessoryDuckfil48" d="M7758 24535c-23,406 -315,934 -846,941 -393,5 -1153,26 -1786,26 -391,0 -696,-285 -829,-563 -156,-325 -109,-1021 87,-1282 -106,322 -111,821 11,1082 131,278 430,563 813,563 621,0 1366,-21 1751,-26 437,-6 710,-381 799,-741z" style="fill:#0a4ae8"/>
   <path class="AccessoryDuckfil123" d="M6799 23590c56,9 109,20 160,33 -130,90 -255,351 -427,375 -135,19 -523,-198 -655,-168 -209,48 -405,103 -557,148 -275,81 -535,-184 -692,-130 -267,91 -276,730 -108,1082 120,250 435,557 785,572 -61,0 -120,0 -179,0 -391,0 -696,-285 -829,-563 -183,-382 -87,-1276 203,-1374 170,-58 552,365 851,277 435,-128 967,-330 1448,-252z" style="fill:#f21e9e"/>
   <path class="AccessoryDuckfil2 AccessoryDuckstr1" d="M6799 23590c567,92 901,386 954,797 53,412 -243,1082 -841,1089 -393,5 -1153,26 -1786,26 -391,0 -696,-285 -829,-563 -183,-382 -87,-1276 203,-1374 170,-58 552,365 851,277 435,-128 967,-330 1448,-252z" style="fill:#3d3da1"/>
   <path class="AccessoryDuckfil124" d="M6799 22018c651,0 1017,455 1017,1017 0,561 -456,1016 -1017,1016 -561,0 -1016,-455 -1016,-1016 0,-562 365,-1017 1016,-1017z" style="fill:#815dae"/>
   <path class="AccessoryDuckfil123" d="M6799 22018c651,0 1017,455 1017,1017 0,95 -14,186 -38,274 13,-58 21,-117 21,-178 0,-519 -394,-978 -993,-978 -598,0 -854,358 -854,878 0,454 400,909 767,1017 -524,-41 -936,-479 -936,-1013 0,-562 365,-1017 1016,-1017z" style="fill:#51cd9b"/>
   <path class="AccessoryDuckfil3" d="M6185 23844c-28,28 -290,-116 -378,-327 -53,-104 -110,-285 -125,-443 -4,-44 -7,-84 -7,-123 0,-256 79,-492 231,-671 152,-180 376,-303 666,-331 43,-4 85,-6 127,-6 344,0 637,118 846,308 218,199 346,477 346,784 0,197 -53,383 -146,543 -114,198 -486,429 -501,374 -14,-55 186,-125 372,-448 79,-138 125,-298 125,-469 0,-264 -109,-502 -297,-673 -182,-166 -440,-269 -745,-269 -41,0 -79,2 -113,5 -248,24 -438,127 -566,278 -128,152 -195,354 -195,575 0,37 2,74 5,108 14,140 50,256 110,390 60,135 273,366 245,395z" style="fill:#13de70"/>
   <path class="AccessoryDuckfil123" d="M6658 22472c143,0 258,134 258,300 0,166 -115,300 -258,300 -143,0 -259,-134 -259,-300 0,-166 116,-300 259,-300z" style="fill:#71c96c"/>
   <ellipse class="AccessoryDuckfil125" cx="6677" cy="22749" rx="239" ry="278"/>
   <path class="AccessoryDuckfil2 AccessoryDuckstr18" d="M8022 22883c-201,144 -531,341 -779,257" style="fill:#43a1a8"/>
   <path class="AccessoryDuckfil126" d="M6906 23254c-93,-143 260,-242 351,-320 100,-87 101,-231 168,-331 379,92 984,-279 923,-35 -43,175 -342,292 -454,408 135,81 371,182 293,310 -165,270 -1199,93 -1281,-32z" style="fill:#0d5147"/>
   <path class="AccessoryDuckfil127" d="M5595 24102c432,0 782,85 782,426 0,341 -350,504 -782,504 -432,0 -782,-445 -782,-651 0,-207 350,-279 782,-279z" style="fill:#1ae26d"/>
   <path class="AccessoryDuckfil123" d="M5595 24102c112,0 218,6 314,20 -54,-3 -109,-5 -167,-5 -397,0 -719,62 -719,238 0,176 322,556 719,556 224,0 424,-44 556,-135 -127,173 -394,256 -703,256 -432,0 -782,-445 -782,-651 0,-207 350,-279 782,-279z" style="fill:#06781b"/>
   <path class="AccessoryDuckfil2" d="M5595 24102c432,0 782,85 782,426 0,341 -350,504 -782,504 -432,0 -782,-445 -782,-651 0,-207 350,-279 782,-279z" style="fill:#174647"/>
   <path class="AccessoryDuckfil128" d="M7774 23111c-89,-34 -14,-124 -111,-45 -97,79 -363,35 -380,106 -17,71 420,126 587,75 167,-51 -7,-102 -96,-136z" style="fill:#34364c"/>
   <path class="AccessoryDuckfil3" d="M7978 22822c34,-24 80,-16 105,17 24,33 16,80 -17,104 -104,75 -242,164 -388,223 -227,93 -542,12 -506,-50 0,-32 161,63 450,-88 126,-66 259,-136 356,-206z" style="fill:#598204"/>
   <path class="AccessoryDuckfil2 AccessoryDuckstr0" d="M6843 23214c-50,-149 300,-228 411,-311 100,-77 103,-211 171,-300 595,142 902,-305 923,-35 14,173 -342,292 -454,408 135,81 371,182 293,310 -165,270 -1277,131 -1344,-72z" style="fill:#77dba4"/>
   <ellipse class="AccessoryDuckfil14" cx="6745" cy="22636" rx="71" ry="72"/>
   <path class="AccessoryDuckfil14" d="M6953 22225c60,7 105,42 101,77 -4,35 -60,68 -120,61 -60,-7 -102,-52 -98,-87 4,-36 57,-59 117,-51z" style="fill:#37f74a"/>
   <path class="AccessoryDuckfil14" d="M7236 22345c28,16 43,42 34,59 -10,16 -24,5 -52,-11 -28,-16 -60,-31 -50,-47 9,-17 40,-17 68,-1z" style="fill:#c8ecd4"/>
   <path class="AccessoryDuckfil129" d="M7161 25119c-29,-51 140,-147 188,-480 19,-137 -2,-287 -86,-411 -23,-34 -14,-80 20,-104 35,-23 81,-14 104,21 107,157 135,344 110,515 -35,244 -307,509 -336,459z" style="fill:#57a108"/>
   <path class="AccessoryDuckfil130" d="M5478 24311c0,-39 423,-52 488,-36 278,75 233,289 199,309 -34,19 11,-154 -222,-212 -285,-70 -465,-23 -465,-61z" style="fill:#f57bf5"/>
  </g>
 </g><g id="HatMotorbikeRed-Medium">
 <animateTransform additive="sum" attributeName="transform" dur="10" repeatCount="indefinite" type="translate" values="0;0 200;0;0 200;0;0 200;0;0 200;0"/>
  <metadata id="CorelCorpID_12Corel-Layer"/>
  <path class="HatMotorbikeRed-Mediumfil3" d="M18685 10918c329,17 1118,1947 1062,2953 11,503 -785,1555 -2551,1525 -2067,-36 -2536,-1296 -2888,-1935 -117,-213 -372,-313 -626,-317 -254,4 -509,104 -626,317 -352,639 -821,1899 -2888,1935 -1766,30 -2562,-1022 -2552,-1525 -55,-1006 734,-2936 1063,-2953 1634,97 2416,720 5003,791 2587,-71 3369,-694 5003,-791z" style="fill:#7ebb16"/>
  <path class="HatMotorbikeRed-Mediumfil54" d="M18685 10918c329,17 1118,1297 1062,2303 11,503 -785,1855 -2551,1825 -2068,-36 -2536,-946 -2888,-1585 -117,-213 -372,-313 -626,-317 -254,4 -509,104 -626,317 -352,639 -821,1549 -2888,1585 -1766,30 -2562,-1322 -2552,-1825 -55,-1006 734,-2286 1063,-2303 1634,97 2416,720 5003,791 2587,-71 3369,-694 5003,-791z" style="fill:#b7c781"/>
  <path class="HatMotorbikeRed-Mediumfil18" d="M17500 15037l1081 -4112c-225,17 -433,43 -634,77l-1103 4028c112,8 229,13 352,16 105,1 206,-2 304,-9zm-1868 -266l1084 -3491c-432,108 -899,219 -1477,302l-740 2212c219,355 531,731 1133,977zm-4428 163c473,-1175 1073,-2686 1316,-3302 -306,-34 -582,-76 -837,-122l-1476 3535c385,-9 714,-49 997,-111zm-1645 64l1640 -3587c-159,-35 -311,-71 -458,-108l-1627 3575c138,50 286,91 445,120z" style="fill:#afed37"/>
  <path class="HatMotorbikeRed-Mediumfil55" d="M13682 11939c4514,0 5398,-2491 6003,1815 45,322 683,327 716,68 594,-4630 -2766,-7996 -6719,-7996 -3954,0 -7313,3366 -6719,7996 33,259 671,254 716,-68 605,-4306 1489,-1815 6003,-1815z" style="fill:#43c0e6"/>
  <path class="HatMotorbikeRed-Mediumfil6" d="M14435 11824c216,-1382 325,-2765 310,-3964 -10,-784 -72,-1481 -191,-2034 353,44 706,115 1053,216 82,539 126,1149 134,1805 15,1176 -82,2511 -276,3852 -317,55 -659,99 -1030,125z" style="fill:#376dfc"/>
  <path class="HatMotorbikeRed-Mediumfil6" d="M12928 11824c-215,-1382 -324,-2765 -309,-3964 10,-784 72,-1481 191,-2034 -354,44 -706,115 -1053,216 -82,539 -126,1149 -134,1805 -15,1176 82,2511 276,3852 317,55 659,99 1029,125z" style="fill:#69c886"/>
  <path class="HatMotorbikeRed-Mediumfil49" d="M13682 11939c4502,0 5393,-2477 5998,1782 -2,-53 102,53 100,0 -61,-1365 -483,-2594 -920,-2790 -817,-368 -2253,654 -5178,654 -2925,0 -4361,-1022 -5179,-654 -453,204 -776,1350 -819,2790 604,-4259 1496,-1782 5998,-1782z" style="fill:#ac2c05"/>
  <path class="HatMotorbikeRed-Mediumfil5" d="M13682 11939c1555,0 2679,-295 3509,-507 -6139,1588 -9193,-2258 -6880,-4718 -2881,1763 -3676,4552 -3348,7108 33,259 671,254 716,-68 605,-4306 1489,-1815 6003,-1815z" style="fill:#4e0e64"/>
  <path class="HatMotorbikeRed-Mediumfil2 HatMotorbikeRed-Mediumstr0" d="M13682 11939c4514,0 5398,-2491 6003,1815 45,322 683,327 716,68 594,-4630 -2766,-7996 -6719,-7996 -3954,0 -7313,3366 -6719,7996 33,259 671,254 716,-68 605,-4306 1489,-1815 6003,-1815z" style="fill:#59a5de"/>
  <path class="HatMotorbikeRed-Mediumfil56" d="M13682 18396c500,0 978,42 978,-590 0,-281 -254,-206 -978,-206 -724,0 -978,-75 -978,206 0,632 478,590 978,590z" style="fill:#00df7d"/>
  <path class="HatMotorbikeRed-Mediumfil18" d="M14393 18323c162,-74 267,-222 267,-517 0,-281 -254,-206 -978,-206 -637,0 -910,-58 -966,119 133,-49 397,-19 845,-19 708,0 956,-75 956,206 0,198 -46,330 -124,417z" style="fill:#9d1d1a"/>
  <path class="HatMotorbikeRed-Mediumfil2 HatMotorbikeRed-Mediumstr2" d="M13682 18396c500,0 978,42 978,-590 0,-281 -254,-206 -978,-206 -724,0 -978,-75 -978,206 0,632 478,590 978,590z" style="fill:#f891af"/>
  <rect class="HatMotorbikeRed-Mediumfil51 HatMotorbikeRed-Mediumstr5" height="251" rx="50" ry="50" width="844" x="13260" y="17901"/>
  <path class="HatMotorbikeRed-Mediumfil18" d="M13682 7495c1826,0 3306,1025 3306,315 0,-710 -1480,-1535 -3306,-1535 -1826,0 -3306,825 -3306,1535 0,710 1480,-315 3306,-315z" style="fill:#8be776"/>
 </g></svg>