<svg xmlns="http://www.w3.org/2000/svg" xmlns:xlink="http://www.w3.org/1999/xlink" style="shape-rendering:geometricPrecision; text-rendering:geometricPrecision; image-rendering:optimizeQuality; fill-rule:evenodd; clip-rule:evenodd" version="1.1" viewBox="0 0 29000 29000" xml:space="preserve"><defs><style type="text/css">.HatMerlinBack-Mediumfil14new {fill:black;fill-opacity:0.200000}
.HatMerlinBack-Mediumfil13new {fill:url(#HatMerlinBack-Mediumid272new)}
.HatMerlinBack-Mediumstr2new {stroke:#2B2A29;stroke-width:150}
.BraceletLeather-Mediumfil43new {fill:white;fill-opacity:0.200000}
.BraceletLeather-Mediumfil46new {fill:white;fill-rule:nonzero;fill-opacity:0.200000}
.BraceletLeather-Mediumfil42new {fill:url(#BraceletLeather-Mediumid14new)}
.BraceletLeather-Mediumstr3new {stroke:black;stroke-width:100;stroke-linecap:round;stroke-linejoin:round}
.BraceletLeather-Mediumfil33new {fill:none}
.BraceletLeather-Mediumfil44new {fill:url(#BraceletLeather-Mediumid88new)}
.BraceletLeather-Mediumfil45new {fill:url(#BraceletLeather-Mediumid672new);fill-rule:nonzero}
.BraceletLeather-Mediumstr4new {stroke:black;stroke-width:100}
.BraceletLeather-Mediumfil47new {fill:none;fill-rule:nonzero}
.BraceletLeather-Mediumfil48new {fill:url(#BraceletLeather-Mediumid15new)}
.BraceletLeather-Mediumfil49new {fill:url(#BraceletLeather-Mediumid207new)}
.BraceletLeather-Mediumfil50new {fill:url(#BraceletLeather-Mediumid690new);fill-rule:nonzero}
.NecklaceYinYangfil225new {fill:url(#NecklaceYinYangid676new);fill-rule:nonzero}
.NecklaceYinYangfil46new {fill:white;fill-rule:nonzero;fill-opacity:0.200000}
.NecklaceYinYangfil84new {fill:black}
.NecklaceYinYangfil83new {fill:white}
.NecklaceYinYangfil47new {fill:none;fill-rule:nonzero}
.NecklaceYinYangstr4new {stroke:black;stroke-width:100}
.NecklaceYinYangfil226new {fill:url(#NecklaceYinYangid677new);fill-rule:nonzero}
.NecklaceYinYangstr3new {stroke:black;stroke-width:100;stroke-linecap:round;stroke-linejoin:round}
.NecklaceYinYangfil227new {fill:url(#NecklaceYinYangid669new);fill-rule:nonzero}
.NecklaceYinYangfil228new {fill:url(#NecklaceYinYangid705new);fill-rule:nonzero}
.NecklaceYinYangfil229new {fill:url(#NecklaceYinYangid685new);fill-rule:nonzero}
.NecklaceYinYangfil230new {fill:url(#NecklaceYinYangid101new)}
.HatMerlin-Mediumfil62new {fill:black;fill-opacity:0.400000}
.HatMerlin-Mediumfil595new {fill:#7EA6F7}
.HatMerlin-Mediumfil596new {fill:#C4D8FF}
.HatMerlin-Mediumfil597new {fill:#789EEB}
.HatMerlin-Mediumfil598new {fill:#4F7CD6}
.HatMerlin-Mediumfil599new {fill:#76A2FA}
.HatMerlin-Mediumfil600new {fill:#5483E3}
.HatMerlin-Mediumfil14new {fill:black;fill-opacity:0.200000}
.HatMerlin-Mediumfil223new {fill:black;fill-rule:nonzero}
.HatMerlin-Mediumfil603new {fill:#8FB4FC}
.HatMerlin-Mediumfil604new {fill:#B0CAFF}
.HatMerlin-Mediumfil594new {fill:url(#HatMerlin-Mediumid585new)}
.HatMerlin-Mediumstr0new {stroke:black;stroke-width:150;stroke-linecap:round;stroke-linejoin:round}
.HatMerlin-Mediumfil601new {fill:url(#HatMerlin-Mediumid416new)}
.HatMerlin-Mediumfil602new {fill:url(#HatMerlin-Mediumid678new);fill-rule:nonzero}
.HairBack-Pig0fil0 {fill:none}
.Tail-Pig0fil0 {fill:none}
.RightFoot-Pig0fil37 {fill:#ffffff}
.RightFoot-Pig0fil38 {fill:#332822}
.RightFoot-Pig0fil39 {fill:url(#RightFoot-Pig0id227)}
.RightFoot-Pig0fil40 {fill:black}
.RightFoot-Pig0fil10 {fill:black;fill-opacity:0.200000}
.RightFoot-Pig0fil0 {fill:none}
.RightFoot-Pig0str2 {stroke:black;stroke-width:150;stroke-linecap:round;stroke-linejoin:round}
.RightLeg-Pig0fil52 {fill:url(#RightLeg-Pig0id37)}
.RightLeg-Pig0fil10 {fill:black;fill-opacity:0.200000}
.RightLeg-Pig0fil0 {fill:none}
.RightLeg-Pig0str2 {stroke:black;stroke-width:150;stroke-linecap:round;stroke-linejoin:round}
.LeftFoot-Pig0fil37 {fill:#ffffff}
.LeftFoot-Pig0fil38 {fill:#332822}
.LeftFoot-Pig0fil57 {fill:url(#LeftFoot-Pig0id220)}
.LeftFoot-Pig0fil40 {fill:black}
.LeftFoot-Pig0fil10 {fill:black;fill-opacity:0.200000}
.LeftFoot-Pig0fil0 {fill:none}
.LeftFoot-Pig0str2 {stroke:black;stroke-width:150;stroke-linecap:round;stroke-linejoin:round}
.LeftLeg-Pig0fil62 {fill:url(#LeftLeg-Pig0id49)}
.LeftLeg-Pig0fil10 {fill:black;fill-opacity:0.200000}
.LeftLeg-Pig0fil0 {fill:none}
.LeftLeg-Pig0str2 {stroke:black;stroke-width:150;stroke-linecap:round;stroke-linejoin:round}
.RightHand-Pig0fil68 {fill:url(#RightHand-Pig0id57)}
.RightHand-Pig0fil10 {fill:black;fill-opacity:0.200000}
.RightHand-Pig0fil0 {fill:none}
.RightHand-Pig0str0 {stroke:black;stroke-width:150;stroke-linecap:round;stroke-linejoin:round}
.RightPaw-Pig0fil74 {fill:url(#RightPaw-Pig0id25)}
.RightPaw-Pig0fil10 {fill:black;fill-opacity:0.200000}
.RightPaw-Pig0fil75 {fill:url(#RightPaw-Pig0id217)}
.RightPaw-Pig0fil40 {fill:black}
.RightPaw-Pig0fil0 {fill:none}
.RightPaw-Pig0str2 {stroke:black;stroke-width:150;stroke-linecap:round;stroke-linejoin:round}
.LeftHand-Pig0fil79 {fill:url(#LeftHand-Pig0id22)}
.LeftHand-Pig0fil10 {fill:black;fill-opacity:0.200000}
.LeftHand-Pig0fil0 {fill:none}
.LeftHand-Pig0str0 {stroke:black;stroke-width:150;stroke-linecap:round;stroke-linejoin:round}
.Body-Pig0fil83 {fill:url(#Body-Pig0id42)}
.Body-Pig0fil10 {fill:black;fill-opacity:0.200000}
.Body-Pig0fil84 {fill:black;fill-rule:nonzero}
.LeftPaw-Pig0fil91 {fill:url(#LeftPaw-Pig0id70)}
.LeftPaw-Pig0fil10 {fill:black;fill-opacity:0.200000}
.LeftPaw-Pig0fil92 {fill:url(#LeftPaw-Pig0id209)}
.LeftPaw-Pig0fil40 {fill:black}
.LeftPaw-Pig0fil0 {fill:none}
.LeftPaw-Pig0str2 {stroke:black;stroke-width:150;stroke-linecap:round;stroke-linejoin:round}
.Head-Pig5fil165 {fill:url(#Head-Pig5id36)}
.Head-Pig5fil10 {fill:black;fill-opacity:0.200000}
.Head-Pig5fil84 {fill:black;fill-rule:nonzero}
.Mouth-Pig2fil169 {fill:black}
.Mouth-Pig2fil0 {fill:none}
.Mouth-Pig2str0 {stroke:black;stroke-width:150;stroke-linecap:round;stroke-linejoin:round}
.Mouth-Pig2fil171 {fill:#FF9999}
.EyesClosed-Pig0fil38 {fill:#332822}
.EyesClosed-Pig0fil10 {fill:black;fill-opacity:0.200000}
.EyesClosed-Pig0fil84 {fill:black;fill-rule:nonzero}
.Eyes-Pig0fil174 {fill:url(#Eyes-Pig0id154)}
.Eyes-Pig0fil148 {fill:black;fill-opacity:0.501961}
.Eyes-Pig0fil175 {fill:url(#Eyes-Pig0id108)}
.Eyes-Pig0fil173 {fill:white}
.Eyes-Pig0fil176 {fill:url(#Eyes-Pig0id100)}
.Eyes-Pig0fil177 {fill:url(#Eyes-Pig0id156)}
.Eyes-Pig0fil178 {fill:url(#Eyes-Pig0id106)}
.Eyes-Pig0fil179 {fill:url(#Eyes-Pig0id102)}
.Eyes-Pig0fil0 {fill:none}
.Eyes-Pig0str0 {stroke:black;stroke-width:150;stroke-linecap:round;stroke-linejoin:round}
.Moustache-Pig1fil232 {fill:url(#Moustache-Pig1id1)}
.Nose-Pig1fil238 {fill:url(#Nose-Pig1id180)}
.Nose-Pig1str0 {stroke:black;stroke-width:150;stroke-linecap:round;stroke-linejoin:round}
.Nose-Pig1fil26 {fill:black;fill-opacity:0.301961}
.Nose-Pig1str3 {stroke:black;stroke-width:150;stroke-linecap:round;stroke-linejoin:round;stroke-opacity:0.301961}
.Nose-Pig1fil237 {fill:none}
</style><linearGradient gradientUnits="userSpaceOnUse" id="HatMerlinBack-Mediumid272new" x1="13726.3" x2="13726.3" y1="16087.5" y2="11000.6">
   <stop offset="0" style="stop-opacity:1; stop-color:#3E3D9D"/>
   <stop offset="1" style="stop-opacity:1; stop-color:#1B196E"/>
  </linearGradient><linearGradient gradientUnits="userSpaceOnUse" id="BraceletLeather-Mediumid14new" x1="8682.96" x2="8745.92" y1="19682.8" y2="19053.1">
   <stop offset="0" style="stop-opacity:1; stop-color:#683501"/>
   <stop offset="1" style="stop-opacity:1; stop-color:#B08227"/>
  </linearGradient><linearGradient gradientUnits="userSpaceOnUse" id="BraceletLeather-Mediumid88new" x1="8626.8" x2="8294.02" xlink:href="#BraceletLeather-Mediumid14new" y1="19859" y2="19314.4">
  </linearGradient><linearGradient gradientUnits="userSpaceOnUse" id="BraceletLeather-Mediumid672new" x1="8784.44" x2="10049.5" y1="19759" y2="20796.3">
   <stop offset="0" style="stop-opacity:1; stop-color:#643300"/>
   <stop offset="0.321569" style="stop-opacity:1; stop-color:#B5872A"/>
   <stop offset="1" style="stop-opacity:1; stop-color:#643300"/>
  </linearGradient><linearGradient gradientUnits="userSpaceOnUse" id="BraceletLeather-Mediumid15new" x1="18680.9" x2="18617.9" xlink:href="#BraceletLeather-Mediumid14new" y1="19682.8" y2="19053.1">
  </linearGradient><linearGradient gradientUnits="userSpaceOnUse" id="BraceletLeather-Mediumid207new" x1="18737" x2="19069.8" xlink:href="#BraceletLeather-Mediumid14new" y1="19859" y2="19314.4">
  </linearGradient><linearGradient gradientUnits="userSpaceOnUse" id="BraceletLeather-Mediumid690new" x1="18579.4" x2="17314.3" xlink:href="#BraceletLeather-Mediumid672new" y1="19759" y2="20796.3">
  </linearGradient><linearGradient gradientUnits="userSpaceOnUse" id="NecklaceYinYangid676new" x1="13681.9" x2="13681.9" xlink:href="#NecklaceYinYangid669new" y1="17208" y2="20390.5">
  </linearGradient><linearGradient gradientUnits="userSpaceOnUse" id="NecklaceYinYangid677new" x1="11189" x2="11399.5" xlink:href="#NecklaceYinYangid669new" y1="18603.5" y2="18002.2">
  </linearGradient><linearGradient gradientUnits="userSpaceOnUse" id="NecklaceYinYangid705new" x1="16170.9" x2="15961.3" xlink:href="#NecklaceYinYangid669new" y1="18602.8" y2="18004">
  </linearGradient><linearGradient gradientUnits="userSpaceOnUse" id="NecklaceYinYangid685new" x1="15099" x2="14900.7" xlink:href="#NecklaceYinYangid669new" y1="19895.5" y2="19273.3">
  </linearGradient><linearGradient gradientUnits="userSpaceOnUse" id="NecklaceYinYangid101new" x1="13681.9" x2="13681.9" y1="20483.4" y2="19943.6">
   <stop offset="0" style="stop-opacity:1; stop-color:#2B2A29"/>
   <stop offset="1" style="stop-opacity:1; stop-color:#ffefef"/>
  </linearGradient><linearGradient gradientUnits="userSpaceOnUse" id="HatMerlin-Mediumid585new" x1="13278.6" x2="15465.7" xlink:href="#HatMerlin-Mediumid583new" y1="3517.26" y2="11256.8">
  </linearGradient><linearGradient gradientUnits="userSpaceOnUse" id="HatMerlin-Mediumid416new" x1="11647.3" x2="15626.9" xlink:href="#HatMerlin-Mediumid260new" y1="7355.49" y2="12715.8">
  </linearGradient><linearGradient gradientUnits="userSpaceOnUse" id="HatMerlin-Mediumid678new" x1="14541" x2="12919" xlink:href="#HatMerlin-Mediumid675new" y1="15487.1" y2="8909.11">
  </linearGradient><linearGradient gradientUnits="objectBoundingBox" id="RightFoot-Pig0id227" x1="49.9997%" x2="49.9997%" xlink:href="#RightFoot-Pig0id0" y1="100%" y2="0%">
  </linearGradient><linearGradient gradientUnits="objectBoundingBox" id="RightLeg-Pig0id37" x1="50%" x2="50%" xlink:href="#RightLeg-Pig0id2" y1="100%" y2="0%">
  </linearGradient><linearGradient gradientUnits="objectBoundingBox" id="LeftFoot-Pig0id220" x1="50.0003%" x2="50.0003%" xlink:href="#LeftFoot-Pig0id0" y1="100%" y2="0%">
  </linearGradient><linearGradient gradientUnits="objectBoundingBox" id="LeftLeg-Pig0id49" x1="50%" x2="50%" xlink:href="#LeftLeg-Pig0id2" y1="100%" y2="0%">
  </linearGradient><linearGradient gradientUnits="objectBoundingBox" id="RightHand-Pig0id57" x1="30.1244%" x2="69.8756%" xlink:href="#RightHand-Pig0id22" y1="2.32158%" y2="97.6784%">
  </linearGradient><linearGradient gradientUnits="objectBoundingBox" id="RightPaw-Pig0id25" x1="81.8832%" x2="18.1168%" y1="89.1977%" y2="10.8018%">
   <stop offset="0" style="stop-opacity:1; stop-color:#d9b2bd"/>
   <stop offset="0.619608" style="stop-opacity:1; stop-color:#fedee7"/>
   <stop offset="1" style="stop-opacity:1; stop-color:#fedee7"/>
  </linearGradient><linearGradient gradientUnits="objectBoundingBox" id="RightPaw-Pig0id217" x1="50%" x2="50%" xlink:href="#RightPaw-Pig0id0" y1="100%" y2="0%">
  </linearGradient><linearGradient gradientUnits="objectBoundingBox" id="LeftHand-Pig0id22" x1="69.8756%" x2="30.1244%" y1="2.32158%" y2="97.6784%">
   <stop offset="0" style="stop-opacity:1; stop-color:#d9b2bd"/>
   <stop offset="0.0196078" style="stop-opacity:1; stop-color:#d9b2bd"/>
   <stop offset="0.921569" style="stop-opacity:1; stop-color:#fedee7"/>
   <stop offset="1" style="stop-opacity:1; stop-color:#fedee7"/>
  </linearGradient><linearGradient gradientUnits="objectBoundingBox" id="Body-Pig0id42" x1="50%" x2="50%" y1="0.000186021%" y2="100%">
   <stop offset="0" style="stop-opacity:1; stop-color:#d9b2bd"/>
   <stop offset="0.0313725" style="stop-opacity:1; stop-color:#d9b2bd"/>
   <stop offset="0.529412" style="stop-opacity:1; stop-color:#fedee7"/>
   <stop offset="1" style="stop-opacity:1; stop-color:#ffffff"/>
  </linearGradient><linearGradient gradientUnits="objectBoundingBox" id="LeftPaw-Pig0id70" x1="18.1168%" x2="81.8832%" xlink:href="#LeftPaw-Pig0id25" y1="89.1977%" y2="10.8018%">
  </linearGradient><linearGradient gradientUnits="objectBoundingBox" id="LeftPaw-Pig0id209" x1="50%" x2="50%" xlink:href="#LeftPaw-Pig0id0" y1="100%" y2="0%">
  </linearGradient><linearGradient gradientUnits="objectBoundingBox" id="Head-Pig5id36" x1="50%" x2="50%" xlink:href="#Head-Pig5id3" y1="100%" y2="9.57532e-005%">
  </linearGradient><linearGradient gradientUnits="userSpaceOnUse" id="Eyes-Pig0id154" x1="16571.6" x2="17280" xlink:href="#Eyes-Pig0id148" y1="14231.4" y2="11213.2">
  </linearGradient><linearGradient gradientUnits="userSpaceOnUse" id="Eyes-Pig0id108" x1="18190.8" x2="15498.7" xlink:href="#Eyes-Pig0id10" y1="13790.3" y2="13468">
  </linearGradient><linearGradient gradientUnits="userSpaceOnUse" id="Eyes-Pig0id100" x1="16928.3" x2="16431.9" xlink:href="#Eyes-Pig0id45" y1="11523.4" y2="13592.4">
  </linearGradient><linearGradient gradientUnits="userSpaceOnUse" id="Eyes-Pig0id156" x1="10792.3" x2="10083.9" xlink:href="#Eyes-Pig0id148" y1="14231.4" y2="11213.2">
  </linearGradient><linearGradient gradientUnits="userSpaceOnUse" id="Eyes-Pig0id106" x1="9173.07" x2="11865.2" xlink:href="#Eyes-Pig0id10" y1="13790.3" y2="13468">
  </linearGradient><linearGradient gradientUnits="userSpaceOnUse" id="Eyes-Pig0id102" x1="10435.6" x2="10932" xlink:href="#Eyes-Pig0id45" y1="11523.4" y2="13592.4">
  </linearGradient><linearGradient gradientUnits="userSpaceOnUse" id="Moustache-Pig1id1" x1="13681.9" x2="13681.9" y1="14978.9" y2="17918.9">
   <stop offset="0" style="stop-opacity:1; stop-color:#e9934a"/>
   <stop offset="0.290196" style="stop-opacity:1; stop-color:#e9934a"/>
   <stop offset="1" style="stop-opacity:1; stop-color:#cf792d"/>
  </linearGradient><linearGradient gradientUnits="userSpaceOnUse" id="Nose-Pig1id180" x1="13681.9" x2="13681.9" xlink:href="#Nose-Pig1id151" y1="13199.9" y2="15456.7">
  </linearGradient><linearGradient gradientUnits="userSpaceOnUse" id="NecklaceYinYangid669new" x1="12270.9" x2="12467.6" y1="19894.7" y2="19277.5">
   <stop offset="0" style="stop-opacity:1; stop-color:#643300"/>
   <stop offset="1" style="stop-opacity:1; stop-color:#AB7D2D"/>
  </linearGradient><linearGradient gradientUnits="userSpaceOnUse" id="HatMerlin-Mediumid583new" x1="13242.6" x2="15604" y1="3115.32" y2="11471.4">
   <stop offset="0" style="stop-opacity:1; stop-color:#9CA1FF"/>
   <stop offset="0.431373" style="stop-opacity:1; stop-color:#6F6DDB"/>
   <stop offset="1" style="stop-opacity:1; stop-color:#1A1A80"/>
  </linearGradient><linearGradient gradientUnits="userSpaceOnUse" id="HatMerlin-Mediumid260new" x1="11481.4" x2="15778" y1="7259.33" y2="13046.7">
   <stop offset="0" style="stop-opacity:1; stop-color:#D9B6FC"/>
   <stop offset="1" style="stop-opacity:1; stop-color:#8943CF"/>
  </linearGradient><linearGradient gradientUnits="userSpaceOnUse" id="HatMerlin-Mediumid675new" x1="14605.6" x2="12854.4" y1="16038.8" y2="8936.72">
   <stop offset="0" style="stop-opacity:1; stop-color:#22209E"/>
   <stop offset="1" style="stop-opacity:1; stop-color:#909AF5"/>
  </linearGradient><linearGradient gradientUnits="userSpaceOnUse" id="RightFoot-Pig0id0" x1="16257.8" x2="16257.8" y1="21560.3" y2="23683.4">
   <stop offset="0" style="stop-opacity:1; stop-color:#332822"/>
   <stop offset="1" style="stop-opacity:1; stop-color:#594c45"/>
  </linearGradient><linearGradient gradientUnits="userSpaceOnUse" id="RightLeg-Pig0id2" x1="11782.6" x2="11782.6" y1="24212.9" y2="21311.8">
   <stop offset="0" style="stop-opacity:1; stop-color:#ffffff"/>
   <stop offset="0.388235" style="stop-opacity:1; stop-color:#ffffff"/>
   <stop offset="1" style="stop-opacity:1; stop-color:#fedee7"/>
  </linearGradient><linearGradient gradientUnits="userSpaceOnUse" id="LeftFoot-Pig0id0" x1="16257.8" x2="16257.8" y1="21560.3" y2="23683.4">
   <stop offset="0" style="stop-opacity:1; stop-color:#332822"/>
   <stop offset="1" style="stop-opacity:1; stop-color:#594c45"/>
  </linearGradient><linearGradient gradientUnits="userSpaceOnUse" id="LeftLeg-Pig0id2" x1="11782.6" x2="11782.6" y1="24212.9" y2="21311.8">
   <stop offset="0" style="stop-opacity:1; stop-color:#ffffff"/>
   <stop offset="0.388235" style="stop-opacity:1; stop-color:#ffffff"/>
   <stop offset="1" style="stop-opacity:1; stop-color:#fedee7"/>
  </linearGradient><linearGradient gradientUnits="objectBoundingBox" id="RightHand-Pig0id22" x1="69.8756%" x2="30.1244%" y1="2.32158%" y2="97.6784%">
   <stop offset="0" style="stop-opacity:1; stop-color:#d9b2bd"/>
   <stop offset="0.0196078" style="stop-opacity:1; stop-color:#d9b2bd"/>
   <stop offset="0.921569" style="stop-opacity:1; stop-color:#fedee7"/>
   <stop offset="1" style="stop-opacity:1; stop-color:#fedee7"/>
  </linearGradient><linearGradient gradientUnits="userSpaceOnUse" id="RightPaw-Pig0id0" x1="16257.8" x2="16257.8" y1="21560.3" y2="23683.4">
   <stop offset="0" style="stop-opacity:1; stop-color:#332822"/>
   <stop offset="1" style="stop-opacity:1; stop-color:#594c45"/>
  </linearGradient><linearGradient gradientUnits="objectBoundingBox" id="LeftPaw-Pig0id25" x1="81.8832%" x2="18.1168%" y1="89.1977%" y2="10.8018%">
   <stop offset="0" style="stop-opacity:1; stop-color:#d9b2bd"/>
   <stop offset="0.619608" style="stop-opacity:1; stop-color:#fedee7"/>
   <stop offset="1" style="stop-opacity:1; stop-color:#fedee7"/>
  </linearGradient><linearGradient gradientUnits="userSpaceOnUse" id="LeftPaw-Pig0id0" x1="16257.8" x2="16257.8" y1="21560.3" y2="23683.4">
   <stop offset="0" style="stop-opacity:1; stop-color:#332822"/>
   <stop offset="1" style="stop-opacity:1; stop-color:#594c45"/>
  </linearGradient><linearGradient gradientUnits="userSpaceOnUse" id="Head-Pig5id3" x1="18922.8" x2="18922.8" y1="11187.2" y2="5413.87">
   <stop offset="0" style="stop-opacity:1; stop-color:#d9b2bd"/>
   <stop offset="0.388235" style="stop-opacity:1; stop-color:#fedee7"/>
   <stop offset="1" style="stop-opacity:1; stop-color:#ffffff"/>
  </linearGradient><linearGradient gradientUnits="userSpaceOnUse" id="Eyes-Pig0id148" x1="16641" x2="17334.4" y1="14255.9" y2="11076.2">
   <stop offset="0" style="stop-opacity:1; stop-color:#008053"/>
   <stop offset="1" style="stop-opacity:1; stop-color:black"/>
  </linearGradient><linearGradient gradientUnits="userSpaceOnUse" id="Eyes-Pig0id10" x1="15305.7" x2="18262.7" y1="12539.6" y2="12539.6">
   <stop offset="0" style="stop-opacity:1; stop-color:#008053"/>
   <stop offset="0.501961" style="stop-opacity:1; stop-color:#00ffa5"/>
   <stop offset="1" style="stop-opacity:1; stop-color:#008053"/>
  </linearGradient><linearGradient gradientUnits="userSpaceOnUse" id="Eyes-Pig0id45" x1="16680.3" x2="16680.3" y1="11243.5" y2="13543.4">
   <stop offset="0" style="stop-opacity:1; stop-color:black"/>
   <stop offset="0.4" style="stop-opacity:1; stop-color:black"/>
   <stop offset="1" style="stop-opacity:1; stop-color:#006642"/>
  </linearGradient><linearGradient gradientUnits="userSpaceOnUse" id="Nose-Pig1id151" x1="13681.9" x2="13681.9" y1="13554.2" y2="15469.2">
   <stop offset="0" style="stop-opacity:1; stop-color:#FFCCCC"/>
   <stop offset="1" style="stop-opacity:1; stop-color:#DB9092"/>
  </linearGradient></defs><g id="HatMerlinBack-Medium">
 <animateTransform additive="sum" attributeName="transform" dur="10" repeatCount="indefinite" type="translate" values="0;0 200;0;0 200;0;0 200;0;0 200;0"/>
  <metadata id="CorelCorpID_5Corel-Layer"/>
  <path class="HatMerlinBack-Mediumfil13new HatMerlinBack-Mediumstr2new" d="M13745 16088c5194,0 9466,-925 10137,-2162 60,-111 77,-242 77,-358 0,-1405 -4552,-2567 -10214,-2567 -5662,0 -10252,1138 -10252,2543 0,1405 4590,2544 10252,2544z" style="fill:#54089b"/>
  <path class="HatMerlinBack-Mediumfil14new" d="M23888 13915c55,-109 71,-235 71,-347 0,-1405 -4552,-2567 -10214,-2567 -5662,0 -10252,1138 -10252,2543 0,63 10,126 28,188 2909,-2610 4780,1153 4926,1981 3753,522 7563,515 10659,-20 243,-1571 2856,-3978 4782,-1778z" style="fill:#62872f"/>
 </g><g id="HairBack-Pig0">
 <animateTransform additive="sum" attributeName="transform" dur="10" repeatCount="indefinite" type="translate" values="0;0 200;0;0 200;0;0 200;0;0 200;0"/>
  <metadata id="CorelCorpID_0Corel-Layer"/>
  <rect class="HairBack-Pig0fil0" height="890" width="890" x="13237" y="6590"/>
  <rect class="HairBack-Pig0fil0" height="890" width="890" x="13237" y="6590"/>
 </g><g id="Tail-Pig0">
  <metadata id="CorelCorpID_3Corel-Layer"/>
  <rect class="Tail-Pig0fil0" height="900" width="900" x="13232" y="22153"/>
 </g><g id="RightFoot-Pig0">
  <metadata id="CorelCorpID_10Corel-Layer"/>
  <path class="RightFoot-Pig0fil37" d="M16559 24190c54,65 143,233 174,292 62,268 -152,365 -298,365 -143,0 -686,-98 -894,289 -330,-192 -541,-572 -540,-565 -22,-43 -41,-85 -54,-126 -58,-176 -10,-247 31,-317 480,-107 1078,-83 1581,62z" style="fill:#ec7207"/>
  <path class="RightFoot-Pig0fil38" d="M15011 24496c-3,101 -14,73 -14,176 -5,821 346,600 430,523 12,-11 59,-71 57,-73 -109,-146 -274,-300 -473,-626z" style="fill:#4981a5"/>
  <path class="RightFoot-Pig0fil0 RightFoot-Pig0str2" d="M14995 24537c1,45 2,90 2,135 -5,821 346,600 430,523 4,-4 19,-23 37,-48" style="fill:#c05199"/>
  <path class="RightFoot-Pig0fil39" d="M16756 24466c0,0 -225,-105 -294,-5 -54,78 49,353 -47,353 -106,0 -310,-245 -509,-215 -288,43 -418,429 -384,506 35,82 343,409 763,435 419,26 490,-14 487,-39 -3,-24 42,-150 42,-150 0,0 458,-59 491,-95 100,-109 -467,-691 -549,-790z" style="fill:#099aa1"/>
  <polygon class="RightFoot-Pig0fil40" points="16740,25393 16571,24994 16934,25330 "/>
  <path class="RightFoot-Pig0fil0 RightFoot-Pig0str2" d="M16567 24189c147,241 633,739 718,969 84,231 -492,167 -492,167 0,0 5,189 -122,220 -281,70 -831,-103 -1075,-309 -49,-41 -99,-87 -150,-135" style="fill:#3e17d8"/>
  <path class="RightFoot-Pig0fil0 RightFoot-Pig0str2" d="M16567 24189c45,73 121,170 208,277m-1262 697c-341,-311 -707,-789 -548,-1037" style="fill:#83930a"/>
  <path class="RightFoot-Pig0fil10" d="M15252 24171c-250,336 427,769 691,965 282,210 555,378 651,406 -45,23 -445,-31 -727,-123 -179,-96 -710,-617 -803,-752 -94,-163 -147,-331 -119,-480 10,-21 22,-40 33,-59 85,-7 193,-3 274,43z" style="fill:#f594f6"/>
 </g><g id="LeftFoot-Pig0">
  <metadata id="CorelCorpID_27Corel-Layer"/>
  <path class="LeftFoot-Pig0fil37" d="M10805 24190c-54,65 -143,233 -174,292 -62,268 152,365 298,365 143,0 685,-98 894,289 330,-192 541,-572 540,-565 22,-43 40,-85 54,-126 58,-176 10,-247 -31,-317 -480,-107 -1078,-83 -1581,62z" style="fill:#76f5cb"/>
  <path class="LeftFoot-Pig0fil38" d="M12353 24496c3,101 14,73 14,176 5,821 -346,600 -430,523 -12,-11 -59,-71 -57,-73 109,-146 274,-300 473,-626z" style="fill:#fe48e5"/>
  <path class="LeftFoot-Pig0fil0 LeftFoot-Pig0str2" d="M12369 24537c-1,45 -2,90 -2,135 5,821 -346,600 -430,523 -4,-4 -19,-23 -37,-48" style="fill:#b717ee"/>
  <path class="LeftFoot-Pig0fil57" d="M10608 24466c0,0 225,-105 294,-5 54,78 -49,353 47,353 106,0 309,-245 509,-215 288,43 418,429 384,506 -35,82 -343,409 -763,435 -419,26 -490,-14 -487,-39 3,-24 -42,-150 -42,-150 0,0 -458,-59 -491,-95 -101,-109 467,-691 549,-790z" style="fill:#04da1d"/>
  <polygon class="LeftFoot-Pig0fil40" points="10624,25393 10793,24994 10430,25330 "/>
  <path class="LeftFoot-Pig0fil0 LeftFoot-Pig0str2" d="M10797 24189c-147,241 -633,739 -718,969 -85,231 492,167 492,167 0,0 -5,189 122,220 281,70 831,-103 1075,-309 49,-41 99,-87 150,-135" style="fill:#ef8bc2"/>
  <path class="LeftFoot-Pig0fil0 LeftFoot-Pig0str2" d="M10797 24189c-45,73 -121,170 -208,277m1262 697c341,-311 707,-789 548,-1037" style="fill:#2dda7b"/>
  <path class="LeftFoot-Pig0fil10" d="M12112 24171c250,336 -428,769 -691,965 -282,210 -555,378 -651,406 45,23 444,-31 727,-123 179,-96 710,-617 803,-752 94,-163 147,-331 119,-480 -10,-21 -22,-40 -33,-59 -85,-7 -193,-3 -274,43z" style="fill:#54b111"/>
 </g><g id="RightLeg-Pig0">
  <metadata id="CorelCorpID_22Corel-Layer"/>
  <path class="RightLeg-Pig0fil52" d="M16570 21416c0,0 1181,1189 570,2176 -128,221 -511,470 -581,598 -599,44 -1104,27 -1581,-62 45,-78 82,-155 -44,-376 -113,-198 -400,-446 -1252,-493 0,-147 0,-280 0,-522 373,-788 1598,-1745 2888,-1321z" style="fill:#a43ba7"/>
  <path class="RightLeg-Pig0fil10" d="M17192 23421c67,-141 106,-290 107,-439 2,-734 -540,-1374 -869,-1659l-157 688c26,45 52,90 79,136 387,-391 947,832 840,1274z" style="fill:#d3548a"/>
  <path class="RightLeg-Pig0fil0 RightLeg-Pig0str2" d="M16570 21416c303,324 585,778 689,1246 115,521 25,950 -408,1282 -95,72 -194,144 -284,245m-1602 -63c284,-396 -518,-875 -1283,-867" style="fill:#a4495f"/>
  <path class="RightLeg-Pig0fil10" d="M13760 23246c341,-28 1532,124 1607,584 27,166 -52,256 -115,341 -93,-12 -184,-26 -274,-43 40,-70 74,-140 -11,-313 -8,-22 -19,-42 -33,-62l0 -1c-104,-182 -357,-408 -1066,-479 -35,-9 -71,-18 -108,-27z" style="fill:#c883e5"/>
 </g><g id="LeftLeg-Pig0">
  <metadata id="CorelCorpID_39Corel-Layer"/>
  <path class="LeftLeg-Pig0fil62" d="M10794 21416c0,0 -1181,1189 -570,2176 128,221 511,470 581,598 599,44 1104,27 1581,-62 -45,-78 -82,-155 44,-376 113,-198 400,-446 1252,-493 0,-147 0,-280 0,-522 -373,-788 -1598,-1745 -2888,-1321z" style="fill:#321df1"/>
  <path class="LeftLeg-Pig0fil10" d="M10172 23421c-67,-141 -106,-290 -107,-439 -2,-734 540,-1374 869,-1659l157 688c-26,45 -53,90 -79,136 -388,-391 -947,832 -840,1274z" style="fill:#371167"/>
  <path class="LeftLeg-Pig0fil0 LeftLeg-Pig0str2" d="M10794 21416c-303,324 -586,778 -689,1246 -115,521 -25,950 408,1282 95,72 193,144 284,245m1602 -63c-284,-396 517,-875 1283,-867" style="fill:#ed6a8b"/>
  <path class="LeftLeg-Pig0fil10" d="M13604 23246c-341,-28 -1532,124 -1607,584 -27,166 52,256 115,341 93,-12 184,-26 274,-43 -40,-70 -74,-140 11,-313 8,-22 19,-42 33,-62l0 -1c104,-182 357,-408 1066,-479 35,-9 71,-18 108,-27z" style="fill:#9d07c7"/>
 </g><g id="RightHand-Pig0">
 <animateTransform additive="sum" attributeName="transform" dur="10" repeatCount="indefinite" type="translate" values="0;0 200;0;0 200;0;0 200;0;0 200;0"/>
  <metadata id="CorelCorpID_44Corel-Layer"/>
  <path class="RightHand-Pig0fil68" d="M16231 17709c1005,345 1816,1398 2255,2162 -88,184 -847,720 -1129,836 -543,-402 -1045,-430 -1469,-362 -742,120 -1353,-1920 -931,-2545 422,-21 934,-40 1274,-91z" style="fill:#1a671e"/>
  <path class="RightHand-Pig0fil10" d="M17342 20696c-537,-391 -1034,-418 -1454,-351 -171,28 -335,-59 -481,-217 -325,-472 753,-1098 1039,-656 258,399 723,837 1098,1116 3,2 22,18 34,27l-219 113c-8,-18 -14,-30 -17,-32z" style="fill:#bfc4da"/>
  <path class="RightHand-Pig0fil0 RightHand-Pig0str0" d="M16477 20333c179,24 366,81 561,178 100,50 205,104 305,189m1121 -817c-161,-280 -388,-607 -632,-916 -422,-534 -963,-1039 -1601,-1258 -90,-31 -172,-59 -246,-84" style="fill:#260926"/>
 </g><g id="LeftHand-Pig0">
 <animateTransform additive="sum" attributeName="transform" dur="10" repeatCount="indefinite" type="translate" values="0;0 200;0;0 200;0;0 200;0;0 200;0"/>
  <metadata id="CorelCorpID_61Corel-Layer"/>
  <path class="LeftHand-Pig0fil79" d="M11133 17709c-1005,345 -1817,1398 -2255,2162 88,184 847,720 1128,836 544,-402 1046,-430 1470,-362 742,120 1352,-1920 931,-2545 -422,-21 -934,-40 -1274,-91z" style="fill:#a301a6"/>
  <path class="LeftHand-Pig0fil10" d="M10022 20696c537,-391 1034,-418 1454,-351 171,28 335,-59 481,-217 325,-472 -753,-1098 -1039,-656 -258,399 -723,837 -1098,1116 -3,2 -22,18 -34,27l219 113c8,-18 14,-30 17,-32z" style="fill:#8b9f69"/>
  <path class="LeftHand-Pig0fil0 LeftHand-Pig0str0" d="M10887 20333c-179,24 -366,81 -561,178 -100,50 -205,104 -305,189m-1121 -817c161,-280 388,-607 632,-916 422,-534 963,-1039 1601,-1258 90,-31 171,-59 246,-84" style="fill:#87ffe1"/>
 </g><g id="Body-Pig0">
 <animateTransform additive="sum" attributeName="transform" dur="10" repeatCount="indefinite" type="translate" values="0;0 200;0;0 200;0;0 200;0;0 200;0"/>
  <metadata id="CorelCorpID_66Corel-Layer"/>
  <path class="Body-Pig0fil83" d="M13682 23135c-1548,0 -2752,-291 -2993,-1956 -147,-1014 391,-2287 991,-3420 634,80 1289,123 2002,142 713,-19 1367,-62 2002,-142 600,1133 1137,2406 991,3420 -242,1665 -1445,1956 -2993,1956z" style="fill:#f82f22"/>
  <path class="Body-Pig0fil10" d="M12621 23067c-1016,-156 -1749,-629 -1932,-1888 -75,-519 29,-1106 229,-1707 -223,2001 402,3257 1703,3595z" style="fill:#18abcd"/>
  <path class="Body-Pig0fil84" d="M11012 22144c-250,-321 -348,-641 -397,-954 -59,-377 -24,-998 184,-1320 -78,421 -93,905 -36,1298 50,341 104,572 249,976z" style="fill:#38ba61"/>
  <path class="Body-Pig0fil10" d="M14743 23067c1016,-156 1749,-629 1932,-1888 75,-519 -29,-1106 -229,-1707 223,2001 -402,3257 -1703,3595z" style="fill:#b72969"/>
  <path class="Body-Pig0fil84" d="M16352 22144c250,-321 347,-641 397,-954 59,-377 24,-998 -184,-1320 78,421 93,905 36,1298 -50,341 -104,572 -249,976z" style="fill:#237c03"/>
 </g><g id="RightPaw-Pig0">
 <animateTransform additive="sum" attributeName="transform" dur="10" repeatCount="indefinite" type="translate" values="0;0 200;0;0 200;0;0 200;0;0 200;0"/>
  <metadata id="CorelCorpID_49Corel-Layer"/>
  <path class="RightPaw-Pig0fil74" d="M18486 19871c155,269 247,281 434,498 211,244 446,948 341,1067 -34,39 -389,8 -389,8 -15,58 -145,373 -188,392 -161,73 -598,-324 -814,-554 -63,111 -195,178 -216,147 -79,-27 -146,-195 -211,-374 -34,-92 -45,-318 -86,-348 139,-387 621,-775 1129,-836z" style="fill:#7a2c2b"/>
  <path class="RightPaw-Pig0fil10" d="M17452 20518c31,24 62,48 92,70 4,3 39,31 43,34 13,14 26,28 39,43 79,93 97,228 104,283 2,13 3,21 4,24 -2,92 -166,169 -227,208 0,-8 -67,-223 -116,-364 0,-31 3,-54 -7,-90 -9,-6 -18,-13 -27,-19 23,-64 55,-127 95,-189z" style="fill:#dceab3"/>
  <path class="RightPaw-Pig0fil75" d="M18910 20358c-402,-76 -337,407 -242,635 -239,-309 -538,-414 -692,-297 -104,79 -113,131 -203,226 -99,104 -339,-108 -394,-184 -18,147 139,645 275,691 21,31 153,-36 216,-147 216,230 653,627 814,554 43,-19 173,-334 188,-392 0,0 355,31 389,-8 109,-123 -135,-862 -351,-1078z" style="fill:#6d560c"/>
  <path class="RightPaw-Pig0fil10" d="M18804 21498c-67,307 -352,47 -875,-255 4,66 -100,45 -131,-12 -41,-92 -52,-190 -68,-283 -88,22 -225,-79 -303,-156 -5,-5 -11,-11 -16,-16 49,174 144,541 243,653 90,2 173,-72 216,-147 199,212 579,572 803,508 84,-24 78,-133 131,-292z" style="fill:#bb6564"/>
  <path class="RightPaw-Pig0fil0 RightPaw-Pig0str2" d="M17136 20561c121,75 170,94 271,202 1,149 38,330 93,461 54,128 115,197 196,208 55,8 128,-6 194,-123 208,221 642,571 796,501 41,-19 164,-344 179,-400 0,0 356,75 389,38 86,-99 -94,-785 -280,-992 -109,-122 -404,-420 -409,-427 -68,-85 -123,-182 -179,-276" style="fill:#61f0bc"/>
  <polygon class="RightPaw-Pig0fil40" points="18796,21484 18678,21021 18973,21393 "/>
 </g><g id="LeftPaw-Pig0">
 <animateTransform additive="sum" attributeName="transform" dur="10" repeatCount="indefinite" type="translate" values="0;0 200;0;0 200;0;0 200;0;0 200;0"/>
  <metadata id="CorelCorpID_71Corel-Layer"/>
  <path class="LeftPaw-Pig0fil91" d="M8878 19871c-155,269 -247,281 -434,498 -211,244 -446,948 -341,1067 34,39 388,8 388,8 16,58 146,373 189,392 161,73 598,-324 814,-554 63,111 195,178 216,147 79,-27 146,-195 211,-374 34,-92 45,-318 85,-348 -138,-387 -621,-775 -1128,-836z" style="fill:#c87695"/>
  <path class="LeftPaw-Pig0fil10" d="M9912 20518c-31,24 -62,48 -92,70 -4,3 -39,31 -43,34 -14,14 -27,28 -39,43 -79,93 -97,228 -104,283 -2,13 -3,21 -4,24 2,92 166,169 226,208 0,-8 68,-223 117,-364 -1,-31 -3,-54 7,-90 9,-6 18,-13 26,-19 -22,-64 -54,-127 -94,-189z" style="fill:#a06065"/>
  <path class="LeftPaw-Pig0fil92" d="M8454 20358c401,-76 337,407 242,635 239,-309 538,-414 692,-297 104,79 113,131 203,226 99,104 339,-108 394,-184 18,147 -140,645 -275,691 -21,31 -153,-36 -216,-147 -216,230 -653,627 -814,554 -43,-19 -173,-334 -189,-392 0,0 -354,31 -388,-8 -109,-123 135,-862 351,-1078z" style="fill:#22403f"/>
  <path class="LeftPaw-Pig0fil10" d="M8560 21498c67,307 352,47 875,-255 -5,66 100,45 131,-12 40,-92 52,-190 68,-283 88,22 225,-79 303,-156 5,-5 11,-11 16,-16 -49,174 -144,541 -243,653 -90,2 -173,-72 -216,-147 -199,212 -579,572 -803,508 -84,-24 -79,-133 -131,-292z" style="fill:#4f2f40"/>
  <path class="LeftPaw-Pig0fil0 LeftPaw-Pig0str2" d="M10228 20561c-121,75 -170,94 -272,202 0,149 -37,330 -92,461 -55,128 -115,197 -196,208 -55,8 -128,-6 -194,-123 -208,221 -642,571 -797,501 -41,-19 -163,-344 -178,-400 0,0 -356,75 -389,38 -86,-99 94,-785 280,-992 109,-122 404,-420 409,-427 68,-85 123,-182 179,-276" style="fill:#37c3d3"/>
  <polygon class="LeftPaw-Pig0fil40" points="8568,21484 8686,21021 8391,21393 "/>
 </g><g id="NecklaceYinYang">
 <animateTransform additive="sum" attributeName="transform" dur="10" repeatCount="indefinite" type="translate" values="0;0 200;0;0 200;0;0 200;0;0 200;0"/>
  <metadata id="CorelCorpID_40Corel-Layer"/>
  <path class="NecklaceYinYangfil225new" d="M16543 17208c-73,675 -449,1409 -941,2000 -570,684 -1305,1183 -1920,1183 -615,0 -1350,-499 -1920,-1183 -492,-591 -868,-1325 -941,-2000l352 0c73,593 413,1245 856,1777 509,611 1145,1056 1653,1056 508,0 1144,-445 1653,-1056 442,-532 782,-1184 856,-1777l352 0z" style="fill:#8f7d44"/>
  <path class="NecklaceYinYangfil46new" d="M11135 16868c-273,1109 1292,3303 2547,3303 1255,0 2820,-2194 2547,-3303l-25 4c1,34 2,68 2,103 0,650 -370,1407 -871,2010 -509,611 -1145,1056 -1653,1056 -508,0 -1144,-445 -1653,-1056 -501,-603 -871,-1360 -871,-2010 0,-35 1,-69 2,-103l-25 -4z" style="fill:#923f8d"/>
  <path class="NecklaceYinYangfil47new NecklaceYinYangstr4new" d="M16543 17208c-73,675 -449,1409 -941,2000 -570,684 -1305,1183 -1920,1183 -615,0 -1350,-499 -1920,-1183 -492,-591 -868,-1325 -941,-2000l352 0c73,593 413,1245 856,1777 509,611 1145,1056 1653,1056 508,0 1144,-445 1653,-1056 442,-532 782,-1184 856,-1777l352 0z" style="fill:#33c730"/>
  <path class="NecklaceYinYangfil226new NecklaceYinYangstr3new" d="M11302 18631c-392,0 -362,-385 -163,-550 197,-163 493,-157 449,148 -114,-87 -503,248 -286,402z" style="fill:#5b7474"/>
  <path class="NecklaceYinYangfil227new NecklaceYinYangstr3new" d="M12385 19918c-393,11 -359,-370 -179,-545 182,-179 487,-172 453,134 -117,-83 -496,263 -274,411z" style="fill:#317278"/>
  <path class="NecklaceYinYangfil228new NecklaceYinYangstr3new" d="M16062 18631c392,0 345,-403 163,-550 -200,-160 -493,-157 -449,148 114,-87 503,248 286,402z" style="fill:#ad2230"/>
  <path class="NecklaceYinYangfil229new NecklaceYinYangstr3new" d="M14979 19918c393,11 384,-357 179,-545 -202,-187 -487,-172 -453,134 117,-83 496,263 274,411z" style="fill:#289773"/>
  <g>
   <circle class="NecklaceYinYangfil84new" r="1577" transform="matrix(-0.552338 -0.290723 0.290723 -0.552338 13681.9 21396.4)"/>
   <g>
    <path class="NecklaceYinYangfil84new" d="M14075 20650c412,217 570,727 353,1139 -215,409 -719,568 -1129,359l0 0c-3,-2 -7,-4 -10,-5l0 0c-206,-109 -285,-364 -177,-570 109,-206 364,-285 570,-177l0 0c206,109 461,30 570,-176 108,-207 29,-462 -177,-570z" style="fill:#af9953"/>
    <path class="NecklaceYinYangfil83new" d="M13289 22143c-412,-217 -570,-727 -353,-1139 215,-409 718,-568 1129,-359l0 0c3,2 7,3 10,5l0 0c206,108 285,363 177,570 -109,206 -364,285 -570,176l0 0c-206,-108 -461,-29 -570,177 -108,206 -29,461 177,570z" style="fill:#85ceec"/>
    <path class="NecklaceYinYangfil84new" d="M13943 20901c67,35 93,119 58,187 -36,67 -119,93 -187,58 -68,-36 -94,-120 -58,-187 36,-68 119,-94 187,-58z" style="fill:#ad0662"/>
    <path class="NecklaceYinYangfil83new" d="M13421 21892c-68,-36 -94,-119 -58,-187 36,-67 119,-93 187,-58 68,36 93,119 58,187 -36,68 -119,94 -187,58z" style="fill:#6aa66a"/>
   </g>
  </g>
  <path class="NecklaceYinYangfil230new NecklaceYinYangstr4new" d="M13599 19944l166 0c25,0 47,21 46,46l-24 447c-1,26 -20,46 -46,46l-119 0c-25,0 -44,-20 -46,-46l-23 -447c-1,-26 21,-46 46,-46z" style="fill:#f414d3"/>
 </g><g id="BraceletLeather-Medium">
 <animateTransform additive="sum" attributeName="transform" dur="10" repeatCount="indefinite" type="translate" values="0;0 200;0;0 200;0;0 200;0;0 200;0"/>
  <metadata id="CorelCorpID_17Corel-Layer"/>
  <path class="BraceletLeather-Mediumfil42new BraceletLeather-Mediumstr3new" d="M8689 19690c-86,-160 -115,-250 -201,-410 -29,-75 3,-239 44,-232 104,3 219,4 324,-2 3,181 43,415 96,612 -87,11 -175,21 -263,32z" style="fill:#272deb"/>
  <path class="BraceletLeather-Mediumfil43new" d="M8689 19690c-86,-160 -115,-250 -201,-410 -29,-75 3,-239 44,-232l8 0c53,219 164,421 282,626l-133 16z" style="fill:#2543ea"/>
  <path class="BraceletLeather-Mediumfil33new BraceletLeather-Mediumstr3new" d="M8689 19690c-86,-160 -115,-250 -201,-410 -29,-75 3,-239 44,-232 104,3 219,4 324,-2 3,181 43,415 96,612 -87,11 -175,21 -263,32z" style="fill:#2e7893"/>
  <path class="BraceletLeather-Mediumfil44new BraceletLeather-Mediumstr3new" d="M8645 19884c-170,-64 -251,-113 -421,-177 -71,-38 -153,-183 -118,-204 81,-66 168,-141 243,-214 121,135 304,285 474,399 -59,66 -118,131 -178,196z" style="fill:#a59b24"/>
  <path class="BraceletLeather-Mediumfil43new" d="M8645 19884c-170,-64 -251,-113 -421,-177 -71,-38 -153,-183 -118,-204l6 -5c184,130 400,211 623,288l-90 98z" style="fill:#741bb6"/>
  <path class="BraceletLeather-Mediumfil33new BraceletLeather-Mediumstr3new" d="M8645 19884c-170,-64 -251,-113 -421,-177 -71,-38 -153,-183 -118,-204 81,-66 168,-141 243,-214 121,135 304,285 474,399 -59,66 -118,131 -178,196z" style="fill:#dd9496"/>
  <path class="BraceletLeather-Mediumfil45new BraceletLeather-Mediumstr4new" d="M8734 19936c-151,-67 -255,-143 -151,-272 117,-147 267,-135 481,-33 407,194 958,608 1165,923 91,139 91,306 -39,409 -129,103 -210,-20 -308,-153 -243,-331 -765,-704 -1148,-874z" style="fill:#39e1c2"/>
  <path class="BraceletLeather-Mediumfil46new" d="M8734 19936c-79,-35 -145,-73 -176,-119 77,-41 167,-29 240,0 506,201 953,539 1254,974 48,70 58,140 38,210 -76,-6 -138,-95 -208,-191 -243,-331 -765,-704 -1148,-874z" style="fill:#89ab0b"/>
  <path class="BraceletLeather-Mediumfil47new BraceletLeather-Mediumstr4new" d="M8734 19936c-151,-67 -255,-143 -151,-272 117,-147 267,-135 481,-33 407,194 958,608 1165,923 91,139 91,306 -39,409 -129,103 -210,-20 -308,-153 -243,-331 -765,-704 -1148,-874z" style="fill:#5cd355"/>
  <path class="BraceletLeather-Mediumfil48new BraceletLeather-Mediumstr3new" d="M18674 19690c87,-160 116,-250 202,-410 29,-75 -3,-239 -44,-232 -104,3 -219,4 -324,-2 -3,181 -43,415 -97,612 88,11 176,21 263,32z" style="fill:#702e9b"/>
  <path class="BraceletLeather-Mediumfil43new" d="M18674 19690c87,-160 116,-250 202,-410 29,-75 -3,-239 -44,-232l-8 0c-53,219 -164,421 -282,626l132 16z" style="fill:#92fcd0"/>
  <path class="BraceletLeather-Mediumfil33new BraceletLeather-Mediumstr3new" d="M18674 19690c87,-160 116,-250 202,-410 29,-75 -3,-239 -44,-232 -104,3 -219,4 -324,-2 -3,181 -43,415 -97,612 88,11 176,21 263,32z" style="fill:#e457ee"/>
  <path class="BraceletLeather-Mediumfil49new BraceletLeather-Mediumstr3new" d="M18718 19884c170,-64 252,-113 422,-177 71,-38 153,-183 118,-204 -81,-66 -168,-141 -243,-214 -121,135 -305,285 -475,399 60,66 119,131 178,196z" style="fill:#ab245d"/>
  <path class="BraceletLeather-Mediumfil43new" d="M18718 19884c170,-64 252,-113 422,-177 71,-38 153,-183 118,-204l-6 -5c-184,130 -400,211 -623,288l89 98z" style="fill:#f770f1"/>
  <path class="BraceletLeather-Mediumfil33new BraceletLeather-Mediumstr3new" d="M18718 19884c170,-64 252,-113 422,-177 71,-38 153,-183 118,-204 -81,-66 -168,-141 -243,-214 -121,135 -305,285 -475,399 60,66 119,131 178,196z" style="fill:#0b2d43"/>
  <path class="BraceletLeather-Mediumfil50new BraceletLeather-Mediumstr4new" d="M18630 19936c151,-67 255,-143 151,-272 -117,-147 -267,-135 -481,-33 -407,194 -958,608 -1165,923 -91,139 -91,306 39,409 129,103 210,-20 307,-153 244,-331 766,-704 1149,-874z" style="fill:#629607"/>
  <path class="BraceletLeather-Mediumfil46new" d="M18630 19936c79,-35 145,-73 175,-119 -76,-41 -166,-29 -239,0 -507,201 -954,539 -1254,974 -48,70 -58,140 -38,210 76,-6 137,-95 207,-191 244,-331 766,-704 1149,-874z" style="fill:#d55da9"/>
  <path class="BraceletLeather-Mediumfil47new BraceletLeather-Mediumstr4new" d="M18630 19936c151,-67 255,-143 151,-272 -117,-147 -267,-135 -481,-33 -407,194 -958,608 -1165,923 -91,139 -91,306 39,409 129,103 210,-20 307,-153 244,-331 766,-704 1149,-874z" style="fill:#05af26"/>
 </g><g id="Head-Pig5">
 <animateTransform additive="sum" attributeName="transform" dur="10" repeatCount="indefinite" type="translate" values="0;0 200;0;0 200;0;0 200;0;0 200;0"/>
  <metadata id="CorelCorpID_100Corel-Layer"/>
  <path class="Head-Pig5fil165" d="M13682 17937c-481,0 -1034,-24 -1605,-101 -847,-114 -1738,-333 -2509,-708 -371,-180 -500,136 -491,337 -719,-495 -631,-1374 -770,-1556 -53,121 -259,436 -231,759 -578,-501 -343,-1565 -391,-1702 -35,-194 -252,-47 -443,254 -49,-404 -28,-822 41,-1233 85,-513 252,-1119 496,-1583 158,-300 365,-615 604,-1079 102,-182 197,-394 302,-573 27,-47 54,-103 82,-149 358,-597 759,-1164 1323,-1636 1250,-1046 2355,-1447 3591,-1474l1 0 1 0c1236,27 2341,428 3590,1474 565,472 966,1039 1324,1636 28,46 54,102 82,149 104,179 200,391 302,573 239,464 446,779 603,1079 245,464 412,1070 497,1583 69,411 90,829 41,1233 -191,-301 -408,-448 -443,-254 -48,137 187,1201 -391,1702 27,-323 -178,-638 -231,-759 -139,182 -52,1061 -770,1556 9,-201 -120,-517 -491,-337 -771,375 -1662,594 -2509,708 -571,77 -1124,101 -1605,101z" style="fill:#9a4a86"/>
  <path class="Head-Pig5fil10" d="M8595 11042c-90,145 -189,290 -291,434 -206,384 -384,662 -525,928 -244,464 -411,1070 -496,1583 -69,411 -90,829 -41,1233 191,-301 408,-448 443,-254 48,137 -187,1201 391,1702 -28,-323 178,-638 231,-759 139,182 51,1061 770,1556 -9,-201 120,-517 491,-337 771,375 1662,594 2509,708 149,20 297,36 442,50 40,3 80,6 120,9 -2326,-552 -4001,-1593 -4496,-3087 -323,-975 -154,-2267 452,-3766z" style="fill:#b90bf9"/>
  <path class="Head-Pig5fil84" d="M9861 9172c974,-1177 2398,-1757 3821,-1747 1423,-10 2847,570 3821,1747 -1223,-1081 -2522,-1612 -3821,-1603 -1299,-9 -2598,522 -3821,1603z" style="fill:#b65c34"/>
  <path class="Head-Pig5fil84" d="M18558 10538c262,349 484,763 669,1097 87,158 168,282 197,333 83,143 159,273 227,401 116,221 215,473 296,731 92,294 162,598 208,874 36,216 59,433 66,650 7,204 0,406 -25,605 -4,41 -42,70 -83,65 -23,-3 -43,-16 -54,-34 -84,-131 -170,-230 -241,-279 -23,-16 -43,-26 -57,-27 0,0 0,-1 0,-1l0 -1c-3,5 -6,14 -9,27 0,4 -1,8 -3,11 -6,18 -2,94 3,199 20,386 57,1127 -415,1536 -31,27 -79,23 -106,-8 -13,-16 -19,-36 -18,-55l0 0c18,-208 -72,-417 -145,-564 -9,39 -17,84 -27,133 -69,363 -177,927 -712,1296 -34,23 -81,15 -104,-19 -10,-14 -14,-30 -13,-46 3,-60 -9,-131 -39,-192 -16,-34 -38,-64 -66,-86 -27,-20 -59,-33 -99,-35 -48,-2 -107,11 -179,46 -367,179 -762,323 -1165,437 -159,44 -1032,206 -1451,214 611,-128 1199,-299 1410,-359 395,-111 781,-251 1140,-426 96,-47 179,-64 251,-61 73,3 134,28 184,65 48,37 84,86 110,139 18,38 32,79 41,120 395,-334 485,-807 545,-1121 30,-153 52,-273 103,-339 8,-10 18,-18 30,-23 38,-17 82,0 98,38 9,19 23,47 40,79 63,124 162,315 192,528 291,-379 262,-967 246,-1290 -6,-116 -10,-201 3,-248 8,-40 22,-71 42,-94 34,-40 79,-56 131,-49 39,5 81,23 124,53 51,35 107,89 163,157 8,-129 10,-257 6,-386 -7,-209 -30,-420 -65,-630 -45,-270 -113,-566 -203,-854 -79,-250 -174,-494 -286,-706 -66,-125 -141,-254 -223,-396 -41,-70 -116,-197 -199,-377 -133,-288 -307,-697 -538,-1128zm1203 4415c1,-1 3,-4 1,-2l-1 1 0 1z" style="fill:#afb8ec"/>
  <path class="Head-Pig5fil84" d="M8806 10538c-262,349 -484,763 -669,1097 -87,158 -168,282 -197,333 -83,143 -159,273 -227,401 -116,221 -215,473 -296,731 -92,294 -162,598 -208,874 -36,216 -59,433 -66,650 -7,204 0,406 24,605 5,41 43,70 84,65 23,-3 42,-16 54,-34 84,-131 170,-230 241,-279 23,-16 43,-26 57,-27 0,0 0,-1 0,-1l0 -1c3,5 6,14 8,27 1,4 2,8 3,11 7,18 3,94 -2,199 -20,386 -57,1127 415,1536 31,27 79,23 106,-8 13,-16 19,-36 18,-55l0 0c-18,-208 72,-417 145,-564 9,39 17,84 27,133 69,363 176,927 712,1296 34,23 80,15 104,-19 10,-14 14,-30 13,-46 -3,-60 9,-131 39,-192 16,-34 38,-64 66,-86 26,-20 59,-33 99,-35 48,-2 107,11 179,46 367,179 761,323 1165,437 159,44 1032,206 1451,214 -611,-128 -1199,-299 -1410,-359 -395,-111 -781,-251 -1140,-426 -96,-47 -179,-64 -251,-61 -74,3 -134,28 -184,65 -48,37 -84,86 -110,139 -19,38 -32,79 -41,120 -395,-334 -485,-807 -545,-1121 -30,-153 -52,-273 -103,-339 -8,-10 -18,-18 -30,-23 -38,-17 -82,0 -98,38 -9,19 -23,47 -40,79 -64,124 -162,315 -192,528 -291,-379 -262,-967 -246,-1290 6,-116 10,-201 -3,-248 -8,-40 -22,-71 -42,-94 -34,-40 -79,-56 -131,-49 -39,5 -81,23 -124,53 -51,35 -107,89 -163,157 -8,-129 -10,-257 -6,-386 7,-209 30,-420 65,-630 45,-270 113,-566 203,-854 78,-250 174,-494 286,-706 66,-125 141,-254 223,-396 41,-70 116,-197 199,-377 133,-288 307,-697 538,-1128zm-1203 4415c-1,-1 -3,-4 -1,-2l1 1 0 1z" style="fill:#b0e5d8"/>
 </g><g id="Mouth-Pig2">
 <animateTransform additive="sum" attributeName="transform" dur="10" repeatCount="indefinite" type="translate" values="0;0 200;0;0 200;0;0 200;0;0 200;0"/>
  <metadata id="CorelCorpID_105Corel-Layer"/>
  <path class="Mouth-Pig2fil0 Mouth-Pig2str0" d="M11442 14771c422,692 1031,912 1921,686" style="fill:#ee07a3"/>
  <path class="Mouth-Pig2fil0 Mouth-Pig2str0" d="M15922 14771c-422,692 -1031,912 -1921,686" style="fill:#8d491a"/>
  <path class="Mouth-Pig2fil169" d="M13682 16032c-867,-16 -1064,-437 -1597,-588 1043,27 1558,-655 1568,-1016l29 0 0 0 0 0 29 0c10,361 525,1043 1568,1016 -534,151 -730,572 -1597,588z" style="fill:#3af115"/>
  <path class="Mouth-Pig2fil169" d="M15812 14810c-26,42 19,100 -7,175 -3,9 159,-142 169,-140 407,96 174,-441 -104,-122 -22,24 -36,52 -58,87z" style="fill:#eb9c19"/>
  <path class="Mouth-Pig2fil169" d="M11552 14810c26,42 -19,100 7,175 3,9 -159,-142 -169,-140 -407,96 -174,-441 104,-122 21,24 36,52 58,87z" style="fill:#07490f"/>
  <path class="Mouth-Pig2fil171 Mouth-Pig2str0" d="M13683 15676c-104,-138 -453,-47 -619,28 0,501 192,709 619,709 426,0 618,-208 618,-709 -166,-75 -514,-166 -618,-28z" style="fill:#60e1f9"/>
 </g><g id="EyesClosed-Pig0">
  <metadata id="CorelCorpID_116Corel-Layer"/>
  <g id="_2991504376080">
   <path class="EyesClosed-Pig0fil38" d="M9936 10608c98,33 423,-223 837,-336 380,-104 707,-22 812,-183 118,-179 -71,-512 -259,-585 -155,-60 -555,31 -906,314 -414,334 -603,751 -484,790z"/>
   <path class="EyesClosed-Pig0fil10" d="M9936 10608c98,33 423,-223 837,-336 380,-104 707,-22 812,-183 118,-179 -71,-512 -259,-585 -155,-60 -555,31 -906,314 -414,334 -603,751 -484,790z"/>
  </g>
  <g id="_2991504372496">
   <path class="EyesClosed-Pig0fil38" d="M17428 10608c-98,33 -423,-223 -837,-336 -380,-104 -707,-22 -812,-183 -118,-179 71,-512 259,-585 154,-60 555,31 906,314 414,334 602,751 484,790z"/>
   <path class="EyesClosed-Pig0fil10" d="M17428 10608c-98,33 -423,-223 -837,-336 -380,-104 -707,-22 -812,-183 -118,-179 71,-512 259,-585 154,-60 555,31 906,314 414,334 602,751 484,790z"/>
  </g>
  <path class="EyesClosed-Pig0fil84" d="M15370 13572c-66,-26 -53,-97 11,-92 811,59 1538,148 2281,-105 308,-106 583,-256 757,-387 49,-37 84,-70 115,-57 95,42 -8,180 -38,228 -257,411 -800,681 -1486,686 -482,4 -1055,-144 -1640,-273z"/>
  <path class="EyesClosed-Pig0fil84" d="M11994 13572c66,-26 53,-97 -11,-92 -811,59 -1538,148 -2281,-105 -308,-106 -583,-256 -757,-387 -49,-37 -84,-70 -115,-57 -95,42 8,180 38,228 257,411 799,681 1486,686 482,4 1055,-144 1640,-273z"/>
 </g><g id="Eyes-Pig0">
 <animate attributeName="opacity" dur="10" repeatCount="indefinite" values="0;1;1;1;1;1;1;1;1;1;1;1;1;1;1;1;1;1;1;1;1;1;1;1;1;1;1;1;1;1;1;1;1;1;1;1;1;1;1;1;1;1;1;1;1;1;1;1;1;1;1;1;1;1;1;1;1;1;1;1;1;1;1;1;1;1;1;1;1;1;1;1;1;1;1;1;1;1;1;1;1;1;1;1;0;0"/>
 <animateTransform additive="sum" attributeName="transform" dur="10" repeatCount="indefinite" type="translate" values="0;0 200;0;0 200;0;0 200;0;0 200;0"/>
  <metadata id="CorelCorpID_117Corel-Layer"/>
  <g id="_2991504438160">
   <path class="Eyes-Pig0fil174" d="M17282 14381c-563,1 -1296,-400 -1652,-607 -410,-238 -385,-734 -230,-1292 194,-698 672,-1448 1686,-1417 221,6 434,102 606,218 305,205 650,864 794,1463 202,835 15,1633 -1204,1635z"/>
   <path class="Eyes-Pig0fil148" d="M15363 13387c-190,-829 360,-2137 1264,-2265 609,-86 914,-49 1307,418 322,381 572,1119 611,1539 -356,-962 -1323,-1597 -1979,-1534 -835,79 -1188,884 -1203,1842z"/>
   <path class="Eyes-Pig0fil175" d="M17571 14383c-633,57 -1241,-207 -1701,-474 -155,-90 -377,-135 -451,-334 302,-140 397,-428 502,-707 440,8 880,16 1320,25 693,422 926,832 1030,1239 -124,136 -501,232 -700,251z"/>
   <circle class="Eyes-Pig0fil173" r="235" transform="matrix(-1.05455 -0.156917 -0.122712 0.972902 17815.2 13835.5)"/>
   <circle class="Eyes-Pig0fil173" r="235" transform="matrix(-0.528618 -0.0219485 0.0170794 0.468369 18011.9 13287.5)"/>
   <path class="Eyes-Pig0fil176" d="M16916 11510c-549,-164 -1099,173 -1230,751 -130,579 209,1181 758,1345 549,163 1100,-173 1230,-751 130,-579 -209,-1181 -758,-1345z"/>
   <path class="Eyes-Pig0fil173" d="M16338 11820c533,42 786,1263 12,1213 -797,-51 -589,-1258 -12,-1213z"/>
   <path class="Eyes-Pig0fil0 Eyes-Pig0str0" d="M15337 13246c0,0 -1,386 293,528 116,57 322,154 541,254 366,168 697,356 1111,353 339,-2 849,-77 1083,-417 326,-473 185,-845 6,-1515 -359,-1339 -1627,-1973 -2582,-790 -344,426 -487,1020 -452,1587z"/>
  </g>
  <g id="_2991504436752">
   <path class="Eyes-Pig0fil177" d="M10082 14381c563,1 1296,-400 1652,-607 410,-238 385,-734 230,-1292 -194,-698 -672,-1448 -1686,-1417 -221,6 -434,102 -606,218 -305,205 -650,864 -794,1463 -202,835 -15,1633 1204,1635z"/>
   <path class="Eyes-Pig0fil148" d="M12001 13387c190,-829 -360,-2137 -1264,-2265 -609,-86 -914,-49 -1308,418 -321,381 -571,1119 -610,1539 355,-962 1323,-1597 1979,-1534 834,79 1188,884 1203,1842z"/>
   <path class="Eyes-Pig0fil178" d="M9793 14383c633,57 1241,-207 1701,-474 155,-90 377,-135 451,-334 -302,-140 -397,-428 -502,-707 -440,8 -880,16 -1320,25 -693,422 -926,832 -1030,1239 124,136 501,232 700,251z"/>
   <circle class="Eyes-Pig0fil173" r="235" transform="matrix(1.05455 -0.156917 0.122712 0.972902 9548.64 13835.5)"/>
   <circle class="Eyes-Pig0fil173" r="235" transform="matrix(0.528618 -0.0219485 -0.0170794 0.468369 9352 13287.5)"/>
   <path class="Eyes-Pig0fil179" d="M10448 11510c549,-164 1099,173 1230,751 130,579 -210,1181 -758,1345 -549,163 -1100,-173 -1230,-751 -130,-579 209,-1181 758,-1345z"/>
   <path class="Eyes-Pig0fil173" d="M11026 11820c-533,42 -786,1263 -12,1213 797,-51 589,-1258 12,-1213z"/>
   <path class="Eyes-Pig0fil0 Eyes-Pig0str0" d="M12027 13246c0,0 1,386 -293,528 -116,57 -322,154 -541,254 -367,168 -697,356 -1111,353 -339,-2 -849,-77 -1083,-417 -326,-473 -185,-845 -6,-1515 359,-1339 1626,-1973 2582,-790 344,426 487,1020 452,1587z"/>
  </g>
 </g><g id="Moustache-Pig1">
 <animateTransform additive="sum" attributeName="transform" dur="10" repeatCount="indefinite" type="translate" values="0;0 200;0;0 200;0;0 200;0;0 200;0"/>
  <metadata id="CorelCorpID_137Corel-Layer"/>
  <path class="Moustache-Pig1fil232" d="M10077 15078c42,-22 90,-9 110,27 19,37 1,84 -40,106 -84,44 -203,95 -353,100 81,-111 200,-189 283,-233zm-109 971c36,-30 86,-28 113,4 26,32 19,82 -17,111 -73,61 -179,136 -324,171 56,-125 155,-226 228,-286zm-235 -495c38,-26 88,-18 111,17 22,35 9,83 -30,108 -79,52 -193,115 -341,133 70,-117 180,-207 260,-258zm-200 -567c42,-19 90,-3 107,35 17,38 -4,83 -47,102 -86,38 -209,82 -358,76 88,-105 211,-175 298,-213zm790 1509c31,-34 82,-38 112,-10 30,29 29,79 -3,113 -65,69 -160,157 -300,210 40,-131 126,-244 191,-313zm923 597c23,-41 70,-58 106,-38 37,20 48,69 26,110 -46,83 -116,192 -239,278 7,-136 62,-267 107,-350zm821 249c14,-45 57,-70 97,-58 40,12 60,58 46,103 -28,90 -76,211 -179,319 -21,-135 8,-274 36,-364zm-447 -91c14,-44 56,-71 96,-59 40,12 61,58 48,102 -27,91 -73,212 -175,322 -22,-135 4,-274 31,-365zm-466 -564c25,-40 74,-53 109,-31 35,22 43,72 18,111 -51,80 -128,184 -256,262 15,-135 79,-263 129,-342zm-353 -372c27,-37 77,-47 110,-22 33,24 38,74 10,112 -56,76 -141,174 -273,243 24,-134 97,-257 153,-333zm-265 -383c34,-33 84,-35 113,-5 29,29 25,80 -8,112 -67,66 -167,150 -309,197 46,-129 137,-238 204,-304zm-226 -433c40,-23 89,-13 110,22 21,36 6,84 -34,107 -82,48 -199,105 -348,116 76,-113 190,-197 272,-245zm937 650c25,-38 74,-51 108,-28 35,23 42,73 17,111 -52,79 -132,182 -261,258 18,-136 83,-262 136,-341zm344 340c17,-43 62,-65 100,-50 39,15 56,62 40,105 -35,88 -91,205 -201,307 -11,-136 26,-274 61,-362zm381 268c14,-44 57,-70 97,-58 39,13 60,59 46,103 -29,90 -76,211 -179,319 -21,-135 7,-274 36,-364zm399 183c8,-46 48,-77 88,-70 41,7 68,50 60,96 -17,93 -49,219 -137,340 -38,-132 -28,-273 -11,-366zm409 88c7,-46 45,-78 86,-73 41,6 69,48 63,94 -13,93 -40,220 -123,345 -43,-130 -38,-272 -26,-366zm408 56c0,-47 34,-84 75,-84 41,0 75,37 75,84 0,94 -9,224 -75,358 -60,-122 -75,-264 -75,-358zm232 476c0,-46 34,-84 75,-84 42,0 75,38 75,84 0,95 -9,225 -75,359 -60,-123 -75,-264 -75,-359zm-915 -96c8,-45 48,-77 89,-69 40,7 67,50 59,95 -17,93 -48,219 -136,340 -38,-131 -28,-273 -12,-366zm453 36c6,-46 44,-79 85,-73 42,5 70,47 63,93 -12,94 -39,221 -123,345 -43,-129 -38,-271 -25,-365zm-2226 -673c26,-38 75,-50 109,-26 34,23 40,73 14,111 -54,78 -136,179 -266,252 20,-135 89,-260 143,-337zm6554 -1749c-41,-22 -90,-9 -109,27 -19,37 -1,84 40,106 84,44 203,95 352,100 -80,-111 -199,-189 -283,-233zm110 971c-36,-30 -87,-28 -113,4 -26,32 -19,82 17,111 73,61 179,136 324,171 -56,-125 -156,-226 -228,-286zm235 -495c-39,-26 -88,-18 -111,17 -23,35 -9,83 29,108 80,52 193,115 342,133 -70,-117 -180,-207 -260,-258zm200 -567c-43,-19 -90,-3 -107,35 -17,38 4,83 47,102 86,38 208,82 358,76 -88,-105 -212,-175 -298,-213zm-790 1509c-32,-34 -82,-38 -112,-10 -30,29 -29,79 3,113 64,69 160,157 300,210 -40,-131 -126,-244 -191,-313zm-923 597c-23,-41 -70,-58 -106,-38 -37,20 -48,69 -26,110 46,83 116,192 239,278 -7,-136 -62,-267 -107,-350zm-821 249c-14,-45 -58,-70 -97,-58 -40,12 -60,58 -46,103 28,90 76,211 179,319 20,-135 -8,-274 -36,-364zm447 -91c-14,-44 -57,-71 -96,-59 -40,12 -61,58 -48,102 27,91 73,212 175,322 22,-135 -4,-274 -31,-365zm466 -564c-25,-40 -74,-53 -109,-31 -35,22 -43,72 -18,111 51,80 128,184 255,262 -14,-135 -78,-263 -128,-342zm353 -372c-28,-37 -77,-47 -110,-22 -34,24 -38,74 -10,112 56,76 141,174 273,243 -24,-134 -97,-257 -153,-333zm264 -383c-33,-33 -83,-35 -112,-5 -29,29 -26,80 8,112 67,66 167,150 309,197 -46,-129 -137,-238 -205,-304zm227 -433c-40,-23 -90,-13 -110,22 -21,36 -6,84 34,107 82,48 199,105 348,116 -76,-113 -190,-197 -272,-245zm-3372 1526c41,0 75,38 75,84 0,95 -15,236 -75,359l0 0 0 0c-60,-123 -75,-264 -75,-359 0,-46 34,-84 75,-84zm2435 -876c-25,-38 -74,-51 -109,-28 -34,23 -41,73 -16,111 52,79 132,182 261,258 -18,-136 -84,-262 -136,-341zm-344 340c-17,-43 -62,-65 -100,-50 -39,15 -57,62 -40,105 35,88 91,205 201,307 11,-136 -27,-274 -61,-362zm-381 268c-14,-44 -57,-70 -97,-58 -39,13 -60,59 -46,103 28,90 76,211 179,319 21,-135 -7,-274 -36,-364zm-399 183c-8,-46 -48,-77 -89,-70 -40,7 -67,50 -59,96 17,93 48,219 136,340 38,-132 28,-273 12,-366zm-410 88c-6,-46 -44,-78 -85,-73 -41,6 -69,48 -63,94 13,93 40,220 123,345 43,-130 38,-272 25,-366zm-407 56c0,-47 -34,-84 -75,-84 -42,0 -75,37 -75,84 0,94 9,224 75,358 60,-122 75,-264 75,-358zm-232 476c0,-46 -34,-84 -75,-84 -42,0 -75,38 -75,84 0,95 9,225 75,359 60,-123 75,-264 75,-359zm915 -96c-8,-45 -48,-77 -89,-69 -40,7 -67,50 -59,95 17,93 48,219 136,340 38,-131 28,-273 12,-366zm-453 36c-6,-46 -45,-79 -86,-73 -41,5 -69,47 -63,93 13,94 40,221 123,345 43,-129 39,-271 26,-365zm2226 -673c-26,-38 -76,-50 -110,-26 -34,23 -40,73 -13,111 54,78 136,179 266,252 -20,-135 -89,-260 -143,-337z" style="fill:#ff3146"/>
 </g><g id="Nose-Pig1">
 <animateTransform additive="sum" attributeName="transform" dur="10" repeatCount="indefinite" type="translate" values="0;0 200;0;0 200;0;0 200;0;0 200;0"/>
  <metadata id="CorelCorpID_142Corel-Layer"/>
  <g id="_2991533167408">
   <path class="Nose-Pig1fil238 Nose-Pig1str0" d="M13682 15385l0 0 0 0c419,0 1013,172 1375,-16 486,-253 457,-928 172,-1340 -289,-418 -848,-829 -1547,-829l0 0 0 0c-699,0 -1258,411 -1547,829 -285,412 -314,1087 172,1340 362,188 956,16 1375,16z" style="fill:#4bfb75"/>
   <g>
    <path class="Nose-Pig1fil26 Nose-Pig1str3" d="M13051 14343c87,106 44,313 -96,463 -140,151 -324,187 -411,81 -87,-105 -44,-313 96,-463 139,-150 323,-187 411,-81z" style="fill:#866a7f"/>
    <path class="Nose-Pig1fil237 Nose-Pig1str3" d="M13051 14343c87,106 44,313 -96,463 -140,151 -324,187 -411,81 -87,-105 -44,-313 96,-463 139,-150 323,-187 411,-81z" style="fill:#a5bc79"/>
   </g>
   <g>
    <path class="Nose-Pig1fil26 Nose-Pig1str3" d="M14313 14343c-87,106 -44,313 96,463 140,151 324,187 411,81 87,-105 44,-313 -96,-463 -140,-150 -324,-187 -411,-81z" style="fill:#e7c8f5"/>
    <path class="Nose-Pig1fil237 Nose-Pig1str3" d="M14313 14343c-87,106 -44,313 96,463 140,151 324,187 411,81 87,-105 44,-313 -96,-463 -140,-150 -324,-187 -411,-81z" style="fill:#4c73c4"/>
   </g>
  </g>
 </g><g id="HatMerlin-Medium">
 <animateTransform additive="sum" attributeName="transform" dur="10" repeatCount="indefinite" type="translate" values="0;0 200;0;0 200;0;0 200;0;0 200;0"/>
  <metadata id="CorelCorpID_62Corel-Layer"/>
  <g>
   <path class="HatMerlin-Mediumfil62new" d="M7019 11840c3099,-692 4598,633 6739,607 2426,-29 3874,-1255 7177,-536 -3369,-1326 -11389,-1193 -13916,-71z" style="fill:#32a7d8"/>
   <path class="HatMerlin-Mediumfil594new HatMerlin-Mediumstr0new" d="M8067 11575c143,-1583 638,-3839 1358,-5458 892,-2003 5561,-3576 7382,-2641 1646,845 3688,3632 3858,5127 76,664 -172,1074 -2075,647 259,583 708,1635 781,2191 -1256,-263 -2425,-544 -5926,-442 -2901,85 -4193,362 -5378,576z" style="fill:#3aa374"/>
   <path class="HatMerlin-Mediumfil595new" d="M17539 4049c350,278 703,616 1039,988l105 185 -639 -184 -437 393 -91 -610 -592 -323 584 -193 31 -256z" style="fill:#811f09"/>
   <path class="HatMerlin-Mediumfil596new" d="M13785 3469c316,-73 629,-127 932,-161l25 88 607 112 -611 125 -89 276 -457 -197 -662 60 329 -247 -74 -56z" style="fill:#a712e0"/>
   <polygon class="HatMerlin-Mediumfil597new" points="12821,7615 13251,8172 13917,8099 13560,8689 13850,9337 13198,9144 12711,9618 12666,8909 12076,8554 12699,8308 "/>
   <polygon class="HatMerlin-Mediumfil598new" points="18075,9654 17374,9670 17048,10252 16776,9612 16083,9459 16616,9048 16514,8372 17115,8758 17745,8493 17583,9143 "/>
   <polygon class="HatMerlin-Mediumfil599new" points="15423,5303 15392,6002 15931,6459 15295,6580 15101,7233 14740,6609 14081,6555 14493,6048 14280,5363 14896,5673 "/>
   <polygon class="HatMerlin-Mediumfil600new" points="19514,6828 19593,7461 20200,7717 19589,8005 19500,8643 19043,8188 18381,8325 18710,7756 18390,7204 19050,7307 "/>
   <path class="HatMerlin-Mediumfil601new HatMerlin-Mediumstr0new" d="M8027 10648c15,-266 -86,-574 258,-927 461,-471 3136,-1019 4789,-1079 1654,-59 4805,164 5874,1186 308,295 191,528 225,805 31,259 237,263 353,805 -828,-325 -2402,-698 -5904,-624 -2756,58 -4785,323 -5819,530 -199,40 204,-346 224,-696z" style="fill:#040224"/>
   <path class="HatMerlin-Mediumfil14new" d="M19777 6504c485,768 823,1528 888,2099 76,664 -172,1074 -2075,647 57,85 189,270 183,413 -1277,-735 -2882,-947 -3264,-914 1449,-849 1296,-1699 466,-2682 -197,-232 -367,-312 -630,-467 -465,-275 -162,-1264 477,-553 226,251 309,502 344,782 235,-509 -97,-872 276,-1049 277,-131 456,249 420,553 -38,314 -297,668 -457,749 1813,1923 3880,2375 3372,422z" style="fill:#ffa9dd"/>
   <path class="HatMerlin-Mediumfil223new" d="M18674 9266c17,36 2,79 -33,96 -36,18 -79,3 -96,-33 -307,-632 -686,-1210 -1124,-1740 -149,-181 -932,-1103 -1484,-1559 456,259 1454,1297 1595,1468 445,539 831,1126 1142,1768z" style="fill:#43e817"/>
   <path class="HatMerlin-Mediumfil14new" d="M15006 8750c1499,-46 3341,487 3960,1083 335,323 -18,752 456,1181 -1415,-280 -5445,-911 -9959,-228 1966,-847 5942,-489 6504,-1001 353,-322 296,-939 -961,-1035z" style="fill:#aa2d70"/>
   <path class="HatMerlin-Mediumfil602new HatMerlin-Mediumstr0new" d="M3515 13711c-351,-1259 2152,-2199 3856,-2547 4452,-909 8460,-958 13005,54 1424,317 4147,1459 3506,2708 186,-949 -1820,-1619 -3098,-1920 -4345,-1024 -9258,-998 -13621,-100 -1483,306 -3596,942 -3648,1805z" style="fill:#8a1260"/>
   <polygon class="HatMerlin-Mediumfil603new" points="9867,6846 10117,7473 10702,7438 10272,8049 10383,8766 9867,8516 9350,8995 9461,8229 9031,7808 9616,7584 "/>
   <path class="HatMerlin-Mediumfil604new" d="M11669 4486c29,68 59,136 89,204 30,68 60,135 90,203 107,11 215,24 324,38 109,15 218,32 328,49 -96,42 -193,85 -288,130 -94,47 -188,96 -281,146 2,74 4,148 7,221 2,75 5,149 8,223 -87,-34 -174,-68 -260,-101 -86,-33 -172,-64 -257,-95 -102,46 -204,93 -304,143 -100,50 -199,104 -298,158 36,-83 71,-166 107,-249 35,-82 72,-164 108,-246 -66,-45 -131,-89 -196,-133 -64,-44 -128,-86 -193,-128 105,-29 210,-57 316,-80 107,-24 215,-43 323,-61 62,-73 123,-146 186,-216 63,-70 127,-139 191,-206z" style="fill:#301598"/>
  </g>
 </g></svg>