<svg xmlns="http://www.w3.org/2000/svg" xmlns:xlink="http://www.w3.org/1999/xlink" style="shape-rendering:geometricPrecision; text-rendering:geometricPrecision; image-rendering:optimizeQuality; fill-rule:evenodd; clip-rule:evenodd" version="1.1" viewBox="0 0 29000 29000" xml:space="preserve"><defs><style type="text/css">.HairBack-Pig2fil10 {fill:black;fill-opacity:0.200000}
.HairBack-Pig2fil22 {fill:url(#HairBack-Pig2id7)}
.HairBack-Pig2str0 {stroke:black;stroke-width:150;stroke-linecap:round;stroke-linejoin:round}
.HairBack-Pig2fil23 {fill:url(#HairBack-Pig2id157)}
.Tail-Pig6fil10 {fill:black;fill-opacity:0.200000}
.Tail-Pig6fil36 {fill:url(#Tail-Pig6id160)}
.Tail-Pig6str0 {stroke:black;stroke-width:150;stroke-linecap:round;stroke-linejoin:round}
.RightFoot-Pig0fil37 {fill:#d9c9ad}
.RightFoot-Pig0fil38 {fill:#edb5c3}
.RightFoot-Pig0fil39 {fill:url(#RightFoot-Pig0id227)}
.RightFoot-Pig0fil40 {fill:black}
.RightFoot-Pig0fil10 {fill:black;fill-opacity:0.200000}
.RightFoot-Pig0fil0 {fill:none}
.RightFoot-Pig0str2 {stroke:black;stroke-width:150;stroke-linecap:round;stroke-linejoin:round}
.RightLeg-Pig0fil52 {fill:url(#RightLeg-Pig0id37)}
.RightLeg-Pig0fil10 {fill:black;fill-opacity:0.200000}
.RightLeg-Pig0fil0 {fill:none}
.RightLeg-Pig0str2 {stroke:black;stroke-width:150;stroke-linecap:round;stroke-linejoin:round}
.LeftFoot-Pig0fil37 {fill:#d9c9ad}
.LeftFoot-Pig0fil38 {fill:#edb5c3}
.LeftFoot-Pig0fil57 {fill:url(#LeftFoot-Pig0id220)}
.LeftFoot-Pig0fil40 {fill:black}
.LeftFoot-Pig0fil10 {fill:black;fill-opacity:0.200000}
.LeftFoot-Pig0fil0 {fill:none}
.LeftFoot-Pig0str2 {stroke:black;stroke-width:150;stroke-linecap:round;stroke-linejoin:round}
.LeftLeg-Pig0fil62 {fill:url(#LeftLeg-Pig0id49)}
.LeftLeg-Pig0fil10 {fill:black;fill-opacity:0.200000}
.LeftLeg-Pig0fil0 {fill:none}
.LeftLeg-Pig0str2 {stroke:black;stroke-width:150;stroke-linecap:round;stroke-linejoin:round}
.RightHand-Pig0fil68 {fill:url(#RightHand-Pig0id57)}
.RightHand-Pig0fil10 {fill:black;fill-opacity:0.200000}
.RightHand-Pig0fil0 {fill:none}
.RightHand-Pig0str0 {stroke:black;stroke-width:150;stroke-linecap:round;stroke-linejoin:round}
.RightPaw-Pig0fil74 {fill:url(#RightPaw-Pig0id25)}
.RightPaw-Pig0fil10 {fill:black;fill-opacity:0.200000}
.RightPaw-Pig0fil75 {fill:url(#RightPaw-Pig0id217)}
.RightPaw-Pig0fil40 {fill:black}
.RightPaw-Pig0fil0 {fill:none}
.RightPaw-Pig0str2 {stroke:black;stroke-width:150;stroke-linecap:round;stroke-linejoin:round}
.LeftHand-Pig0fil79 {fill:url(#LeftHand-Pig0id22)}
.LeftHand-Pig0fil10 {fill:black;fill-opacity:0.200000}
.LeftHand-Pig0fil0 {fill:none}
.LeftHand-Pig0str0 {stroke:black;stroke-width:150;stroke-linecap:round;stroke-linejoin:round}
.Body-Pig4fil83 {fill:url(#Body-Pig4id42)}
.Body-Pig4fil89 {fill:url(#Body-Pig4id152)}
.Body-Pig4fil10 {fill:black;fill-opacity:0.200000}
.Body-Pig4fil84 {fill:black;fill-rule:nonzero}
.Body-Pig4fil90 {fill:url(#Body-Pig4id34)}
.Body-Pig4fil30 {fill:black;fill-rule:nonzero}
.LeftPaw-Pig0fil91 {fill:url(#LeftPaw-Pig0id70)}
.LeftPaw-Pig0fil10 {fill:black;fill-opacity:0.200000}
.LeftPaw-Pig0fil92 {fill:url(#LeftPaw-Pig0id209)}
.LeftPaw-Pig0fil40 {fill:black}
.LeftPaw-Pig0fil0 {fill:none}
.LeftPaw-Pig0str2 {stroke:black;stroke-width:150;stroke-linecap:round;stroke-linejoin:round}
.Ears-Pig10fil38 {fill:#edb5c3}
.Ears-Pig10fil10 {fill:black;fill-opacity:0.200000}
.Ears-Pig10fil153 {fill:url(#Ears-Pig10id213)}
.Ears-Pig10fil155 {fill:url(#Ears-Pig10id228)}
.Ears-Pig10fil152 {fill:url(#Ears-Pig10id5)}
.Ears-Pig10str0 {stroke:black;stroke-width:150;stroke-linecap:round;stroke-linejoin:round}
.Ears-Pig10fil154 {fill:url(#Ears-Pig10id111)}
.Head-Pig6fil165 {fill:url(#Head-Pig6id36)}
.Head-Pig6fil166 {fill:url(#Head-Pig6id27)}
.Head-Pig6fil10 {fill:black;fill-opacity:0.200000}
.Head-Pig6fil84 {fill:black;fill-rule:nonzero}
.Mouth-Pig8fil26 {fill:black;fill-opacity:0.301961}
.Mouth-Pig8fil172 {fill:black;fill-rule:nonzero;fill-opacity:0.200000}
.Mouth-Pig8fil169 {fill:black}
.Mouth-Pig8fil10 {fill:black;fill-opacity:0.200000}
.Mouth-Pig8fil0 {fill:none}
.Mouth-Pig8str0 {stroke:black;stroke-width:150;stroke-linecap:round;stroke-linejoin:round}
.Mouth-Pig8fil173 {fill:white}
.EyesClosed-Pig1fil38 {fill:#edb5c3}
.EyesClosed-Pig1fil10 {fill:black;fill-opacity:0.200000}
.EyesClosed-Pig1fil84 {fill:black;fill-rule:nonzero}
.Eyes-Pig1fil84 {fill:black;fill-rule:nonzero}
.Eyes-Pig1fil180 {fill:url(#Eyes-Pig1id155)}
.Eyes-Pig1fil148 {fill:black;fill-opacity:0.501961}
.Eyes-Pig1fil181 {fill:url(#Eyes-Pig1id107)}
.Eyes-Pig1fil182 {fill:url(#Eyes-Pig1id101)}
.Eyes-Pig1fil173 {fill:white}
.Eyes-Pig1fil183 {fill:url(#Eyes-Pig1id168)}
.Eyes-Pig1fil184 {fill:url(#Eyes-Pig1id112)}
.Eyes-Pig1fil185 {fill:url(#Eyes-Pig1id91)}
.Eyes-Pig1fil0 {fill:none}
.Eyes-Pig1str0 {stroke:black;stroke-width:150;stroke-linecap:round;stroke-linejoin:round}
.Moustache-Pig0fil0 {fill:none}
.Nose-Pig0fil236 {fill:url(#Nose-Pig0id201)}
.Nose-Pig0str0 {stroke:black;stroke-width:150;stroke-linecap:round;stroke-linejoin:round}
.Nose-Pig0fil26 {fill:black;fill-opacity:0.301961}
.Nose-Pig0str3 {stroke:black;stroke-width:150;stroke-linecap:round;stroke-linejoin:round;stroke-opacity:0.301961}
.Nose-Pig0fil237 {fill:none}
.Hair-Pig6fil254 {fill:url(#Hair-Pig6id14)}
.Hair-Pig6fil30 {fill:black;fill-rule:nonzero}
.Hair-Pig6fil10 {fill:black;fill-opacity:0.200000}
.Hair-Pig6fil255 {fill:#835b5b}
</style><linearGradient gradientUnits="userSpaceOnUse" id="HairBack-Pig2id7" x1="17165.3" x2="17165.3" y1="19960.9" y2="12270.8">
   <stop offset="0" style="stop-opacity:1; stop-color:#693e3e"/>
   <stop offset="1" style="stop-opacity:1; stop-color:#835b5b"/>
  </linearGradient><linearGradient gradientUnits="userSpaceOnUse" id="HairBack-Pig2id157" x1="10198.6" x2="10198.6" xlink:href="#HairBack-Pig2id7" y1="19960.9" y2="12270.8">
  </linearGradient><linearGradient gradientUnits="userSpaceOnUse" id="Tail-Pig6id160" x1="16539.8" x2="15598.6" xlink:href="#Tail-Pig6id5" y1="20846.6" y2="25368.4">
  </linearGradient><linearGradient gradientUnits="objectBoundingBox" id="RightFoot-Pig0id227" x1="49.9997%" x2="49.9997%" xlink:href="#RightFoot-Pig0id0" y1="100%" y2="0%">
  </linearGradient><linearGradient gradientUnits="objectBoundingBox" id="RightLeg-Pig0id37" x1="50%" x2="50%" xlink:href="#RightLeg-Pig0id2" y1="100%" y2="0%">
  </linearGradient><linearGradient gradientUnits="objectBoundingBox" id="LeftFoot-Pig0id220" x1="50.0003%" x2="50.0003%" xlink:href="#LeftFoot-Pig0id0" y1="100%" y2="0%">
  </linearGradient><linearGradient gradientUnits="objectBoundingBox" id="LeftLeg-Pig0id49" x1="50%" x2="50%" xlink:href="#LeftLeg-Pig0id2" y1="100%" y2="0%">
  </linearGradient><linearGradient gradientUnits="objectBoundingBox" id="RightHand-Pig0id57" x1="30.1244%" x2="69.8756%" xlink:href="#RightHand-Pig0id22" y1="2.32158%" y2="97.6784%">
  </linearGradient><linearGradient gradientUnits="objectBoundingBox" id="RightPaw-Pig0id25" x1="81.8832%" x2="18.1168%" y1="89.1977%" y2="10.8018%">
   <stop offset="0" style="stop-opacity:1; stop-color:#99835c"/>
   <stop offset="0.619608" style="stop-opacity:1; stop-color:#bfa67c"/>
   <stop offset="1" style="stop-opacity:1; stop-color:#bfa67c"/>
  </linearGradient><linearGradient gradientUnits="objectBoundingBox" id="RightPaw-Pig0id217" x1="50%" x2="50%" xlink:href="#RightPaw-Pig0id0" y1="100%" y2="0%">
  </linearGradient><linearGradient gradientUnits="objectBoundingBox" id="LeftHand-Pig0id22" x1="69.8756%" x2="30.1244%" y1="2.32158%" y2="97.6784%">
   <stop offset="0" style="stop-opacity:1; stop-color:#99835c"/>
   <stop offset="0.0196078" style="stop-opacity:1; stop-color:#99835c"/>
   <stop offset="0.921569" style="stop-opacity:1; stop-color:#bfa67c"/>
   <stop offset="1" style="stop-opacity:1; stop-color:#bfa67c"/>
  </linearGradient><linearGradient gradientUnits="objectBoundingBox" id="Body-Pig4id42" x1="50%" x2="50%" y1="0.000186021%" y2="100%">
   <stop offset="0" style="stop-opacity:1; stop-color:#99835c"/>
   <stop offset="0.0313725" style="stop-opacity:1; stop-color:#99835c"/>
   <stop offset="0.529412" style="stop-opacity:1; stop-color:#bfa67c"/>
   <stop offset="1" style="stop-opacity:1; stop-color:#d9c9ad"/>
  </linearGradient><linearGradient gradientUnits="userSpaceOnUse" id="Body-Pig4id152" x1="13681.9" x2="13681.9" y1="22723.6" y2="18830">
   <stop offset="0" style="stop-opacity:1; stop-color:#ffe0c6"/>
   <stop offset="0.458824" style="stop-opacity:1; stop-color:#ffe0c6"/>
   <stop offset="1" style="stop-opacity:1; stop-color:#f2ceb1"/>
  </linearGradient><linearGradient gradientUnits="userSpaceOnUse" id="Body-Pig4id34" x1="11590.1" x2="15612" y1="17325.8" y2="20771.3">
   <stop offset="0" style="stop-opacity:1; stop-color:#edb5c3"/>
   <stop offset="0.168627" style="stop-opacity:1; stop-color:#edb5c3"/>
   <stop offset="1" style="stop-opacity:1; stop-color:#bfa67c"/>
  </linearGradient><linearGradient gradientUnits="objectBoundingBox" id="LeftPaw-Pig0id70" x1="18.1168%" x2="81.8832%" xlink:href="#LeftPaw-Pig0id25" y1="89.1977%" y2="10.8018%">
  </linearGradient><linearGradient gradientUnits="objectBoundingBox" id="LeftPaw-Pig0id209" x1="50%" x2="50%" xlink:href="#LeftPaw-Pig0id0" y1="100%" y2="0%">
  </linearGradient><linearGradient gradientUnits="userSpaceOnUse" id="Ears-Pig10id213" x1="17412.7" x2="17412.7" xlink:href="#Ears-Pig10id3" y1="9449.98" y2="7256.74">
  </linearGradient><linearGradient gradientUnits="userSpaceOnUse" id="Ears-Pig10id228" x1="9951.22" x2="9951.22" xlink:href="#Ears-Pig10id3" y1="9449.98" y2="7256.74">
  </linearGradient><linearGradient gradientUnits="userSpaceOnUse" id="Ears-Pig10id5" x1="18537.4" x2="18537.4" y1="11625" y2="5118.17">
   <stop offset="0" style="stop-opacity:1; stop-color:#edb5c3"/>
   <stop offset="1" style="stop-opacity:1; stop-color:#bfa67c"/>
  </linearGradient><linearGradient gradientUnits="userSpaceOnUse" id="Ears-Pig10id111" x1="8826.5" x2="8826.5" xlink:href="#Ears-Pig10id5" y1="11625" y2="5118.07">
  </linearGradient><linearGradient gradientUnits="objectBoundingBox" id="Head-Pig6id36" x1="50%" x2="50%" xlink:href="#Head-Pig6id3" y1="100%" y2="9.57532e-005%">
  </linearGradient><linearGradient gradientUnits="userSpaceOnUse" id="Head-Pig6id27" x1="13681.9" x2="13681.9" xlink:href="#Head-Pig6id5" y1="17101.2" y2="10908.6">
  </linearGradient><linearGradient gradientUnits="userSpaceOnUse" id="Eyes-Pig1id155" x1="16571.6" x2="17280" xlink:href="#Eyes-Pig1id148" y1="14231.4" y2="11213.2">
  </linearGradient><linearGradient gradientUnits="userSpaceOnUse" id="Eyes-Pig1id107" x1="18190.8" x2="15498.7" xlink:href="#Eyes-Pig1id10" y1="13790.3" y2="13468">
  </linearGradient><linearGradient gradientUnits="userSpaceOnUse" id="Eyes-Pig1id101" x1="17022.8" x2="16438.2" xlink:href="#Eyes-Pig1id45" y1="11329.9" y2="13766.4">
  </linearGradient><linearGradient gradientUnits="userSpaceOnUse" id="Eyes-Pig1id168" x1="10792.3" x2="10083.9" xlink:href="#Eyes-Pig1id148" y1="14231.4" y2="11213.2">
  </linearGradient><linearGradient gradientUnits="userSpaceOnUse" id="Eyes-Pig1id112" x1="9173.07" x2="11865.2" xlink:href="#Eyes-Pig1id10" y1="13790.3" y2="13468">
  </linearGradient><linearGradient gradientUnits="userSpaceOnUse" id="Eyes-Pig1id91" x1="10341" x2="10925.6" xlink:href="#Eyes-Pig1id45" y1="11329.9" y2="13766.4">
  </linearGradient><linearGradient gradientUnits="userSpaceOnUse" id="Nose-Pig0id201" x1="13681.9" x2="13681.9" xlink:href="#Nose-Pig0id151" y1="13309.5" y2="15458">
  </linearGradient><linearGradient gradientUnits="userSpaceOnUse" id="Hair-Pig6id14" x1="11906.6" x2="15774.6" xlink:href="#Hair-Pig6id7" y1="9095.76" y2="5227.8">
  </linearGradient><linearGradient gradientUnits="userSpaceOnUse" id="Tail-Pig6id5" x1="18537.4" x2="18537.4" y1="11625" y2="5118.17">
   <stop offset="0" style="stop-opacity:1; stop-color:#edb5c3"/>
   <stop offset="1" style="stop-opacity:1; stop-color:#bfa67c"/>
  </linearGradient><linearGradient gradientUnits="userSpaceOnUse" id="RightFoot-Pig0id0" x1="16257.8" x2="16257.8" y1="21560.3" y2="23683.4">
   <stop offset="0" style="stop-opacity:1; stop-color:#edb5c3"/>
   <stop offset="1" style="stop-opacity:1; stop-color:#ffdbe4"/>
  </linearGradient><linearGradient gradientUnits="userSpaceOnUse" id="RightLeg-Pig0id2" x1="11782.6" x2="11782.6" y1="24212.9" y2="21311.8">
   <stop offset="0" style="stop-opacity:1; stop-color:#d9c9ad"/>
   <stop offset="0.388235" style="stop-opacity:1; stop-color:#d9c9ad"/>
   <stop offset="1" style="stop-opacity:1; stop-color:#bfa67c"/>
  </linearGradient><linearGradient gradientUnits="userSpaceOnUse" id="LeftFoot-Pig0id0" x1="16257.8" x2="16257.8" y1="21560.3" y2="23683.4">
   <stop offset="0" style="stop-opacity:1; stop-color:#edb5c3"/>
   <stop offset="1" style="stop-opacity:1; stop-color:#ffdbe4"/>
  </linearGradient><linearGradient gradientUnits="userSpaceOnUse" id="LeftLeg-Pig0id2" x1="11782.6" x2="11782.6" y1="24212.9" y2="21311.8">
   <stop offset="0" style="stop-opacity:1; stop-color:#d9c9ad"/>
   <stop offset="0.388235" style="stop-opacity:1; stop-color:#d9c9ad"/>
   <stop offset="1" style="stop-opacity:1; stop-color:#bfa67c"/>
  </linearGradient><linearGradient gradientUnits="objectBoundingBox" id="RightHand-Pig0id22" x1="69.8756%" x2="30.1244%" y1="2.32158%" y2="97.6784%">
   <stop offset="0" style="stop-opacity:1; stop-color:#99835c"/>
   <stop offset="0.0196078" style="stop-opacity:1; stop-color:#99835c"/>
   <stop offset="0.921569" style="stop-opacity:1; stop-color:#bfa67c"/>
   <stop offset="1" style="stop-opacity:1; stop-color:#bfa67c"/>
  </linearGradient><linearGradient gradientUnits="userSpaceOnUse" id="RightPaw-Pig0id0" x1="16257.8" x2="16257.8" y1="21560.3" y2="23683.4">
   <stop offset="0" style="stop-opacity:1; stop-color:#edb5c3"/>
   <stop offset="1" style="stop-opacity:1; stop-color:#ffdbe4"/>
  </linearGradient><linearGradient gradientUnits="objectBoundingBox" id="LeftPaw-Pig0id25" x1="81.8832%" x2="18.1168%" y1="89.1977%" y2="10.8018%">
   <stop offset="0" style="stop-opacity:1; stop-color:#99835c"/>
   <stop offset="0.619608" style="stop-opacity:1; stop-color:#bfa67c"/>
   <stop offset="1" style="stop-opacity:1; stop-color:#bfa67c"/>
  </linearGradient><linearGradient gradientUnits="userSpaceOnUse" id="LeftPaw-Pig0id0" x1="16257.8" x2="16257.8" y1="21560.3" y2="23683.4">
   <stop offset="0" style="stop-opacity:1; stop-color:#edb5c3"/>
   <stop offset="1" style="stop-opacity:1; stop-color:#ffdbe4"/>
  </linearGradient><linearGradient gradientUnits="userSpaceOnUse" id="Ears-Pig10id3" x1="18922.8" x2="18922.8" y1="11187.2" y2="5413.87">
   <stop offset="0" style="stop-opacity:1; stop-color:#99835c"/>
   <stop offset="0.388235" style="stop-opacity:1; stop-color:#bfa67c"/>
   <stop offset="1" style="stop-opacity:1; stop-color:#d9c9ad"/>
  </linearGradient><linearGradient gradientUnits="userSpaceOnUse" id="Head-Pig6id3" x1="18922.8" x2="18922.8" y1="11187.2" y2="5413.87">
   <stop offset="0" style="stop-opacity:1; stop-color:#99835c"/>
   <stop offset="0.388235" style="stop-opacity:1; stop-color:#bfa67c"/>
   <stop offset="1" style="stop-opacity:1; stop-color:#d9c9ad"/>
  </linearGradient><linearGradient gradientUnits="userSpaceOnUse" id="Head-Pig6id5" x1="18537.4" x2="18537.4" y1="11625" y2="5118.17">
   <stop offset="0" style="stop-opacity:1; stop-color:#edb5c3"/>
   <stop offset="1" style="stop-opacity:1; stop-color:#bfa67c"/>
  </linearGradient><linearGradient gradientUnits="userSpaceOnUse" id="Eyes-Pig1id148" x1="16641" x2="17334.4" y1="14255.9" y2="11076.2">
   <stop offset="0" style="stop-opacity:1; stop-color:#800a0a"/>
   <stop offset="1" style="stop-opacity:1; stop-color:black"/>
  </linearGradient><linearGradient gradientUnits="userSpaceOnUse" id="Eyes-Pig1id10" x1="15305.7" x2="18262.7" y1="12539.6" y2="12539.6">
   <stop offset="0" style="stop-opacity:1; stop-color:#800a0a"/>
   <stop offset="0.501961" style="stop-opacity:1; stop-color:#ff5454"/>
   <stop offset="1" style="stop-opacity:1; stop-color:#800a0a"/>
  </linearGradient><linearGradient gradientUnits="userSpaceOnUse" id="Eyes-Pig1id45" x1="16680.3" x2="16680.3" y1="11243.5" y2="13543.4">
   <stop offset="0" style="stop-opacity:1; stop-color:black"/>
   <stop offset="0.4" style="stop-opacity:1; stop-color:black"/>
   <stop offset="1" style="stop-opacity:1; stop-color:#660303"/>
  </linearGradient><linearGradient gradientUnits="userSpaceOnUse" id="Nose-Pig0id151" x1="13681.9" x2="13681.9" y1="13554.2" y2="15469.2">
   <stop offset="0" style="stop-opacity:1; stop-color:#FFCCCC"/>
   <stop offset="1" style="stop-opacity:1; stop-color:#DB9092"/>
  </linearGradient><linearGradient gradientUnits="userSpaceOnUse" id="Hair-Pig6id7" x1="17165.3" x2="17165.3" y1="19960.9" y2="12270.8">
   <stop offset="0" style="stop-opacity:1; stop-color:#693e3e"/>
   <stop offset="1" style="stop-opacity:1; stop-color:#835b5b"/>
  </linearGradient></defs><g id="HairBack-Pig2">
 <animateTransform additive="sum" attributeName="transform" dur="10" repeatCount="indefinite" type="translate" values="0;0 200;0;0 200;0;0 200;0;0 200;0"/>
  <metadata id="CorelCorpID_2Corel-Layer"/>
  <g id="_2991486215600">
   <path class="HairBack-Pig2fil22 HairBack-Pig2str0" d="M19794 18137c-364,761 -976,1098 -1662,1277 -177,46 499,-649 277,-2253 -14,1318 -776,2455 -970,2495 -2271,477 -3726,500 -3745,-708 -16,-987 -10,-755 -10,-6503 2879,-406 5213,-71 6125,671 0,0 1126,2928 769,4516 -358,1587 -1607,2293 -1607,2293 0,0 483,-540 756,-1524 25,-89 47,-177 67,-264z" style="fill:#8d756a"/>
   <path class="HairBack-Pig2fil10" d="M19863 18151c0,11 684,-1732 -205,-4105 -564,-1505 -496,-698 -371,94 196,1238 418,2152 228,3456 -143,979 -820,1621 -820,1621 0,0 682,-263 1168,-1066z" style="fill:#ce0974"/>
   <path class="HairBack-Pig2fil10" d="M18914 16208c37,296 51,2469 -726,3190 -67,22 -56,16 -56,16 0,0 438,-1323 277,-2253 -130,673 -120,1506 -853,2411 -733,905 -2187,-2129 -2187,-2129 0,0 2752,-2112 3545,-1235z" style="fill:#290d4d"/>
  </g>
  <g id="_2991486213936">
   <path class="HairBack-Pig2fil23 HairBack-Pig2str0" d="M7364 16960c194,1328 1055,2363 1742,2542 -67,-202 -227,-545 -66,-1505 226,1323 691,1619 885,1659 2271,477 3726,500 3745,-708 16,-987 10,-755 10,-6503 -2880,-406 -5214,-71 -6125,671 0,0 -1126,2928 -769,4516 357,1587 1607,2293 1607,2293 -312,-489 -1221,-1415 -1029,-2965z" style="fill:#d792dc"/>
   <path class="HairBack-Pig2fil10" d="M7692 18111c0,11 -875,-1692 14,-4065 564,-1505 496,-698 370,94 -195,1238 -417,2152 -227,3456 143,979 855,1763 855,1763 0,0 -527,-445 -1012,-1248z" style="fill:#73de1d"/>
   <path class="HairBack-Pig2fil10" d="M8450 16208c-37,296 -194,2508 583,3229 67,22 56,16 56,16 0,0 -217,-484 -56,-1414 129,674 42,628 775,1533 733,905 2187,-2129 2187,-2129 0,0 -2752,-2112 -3545,-1235z" style="fill:#c71067"/>
  </g>
 </g><g id="Tail-Pig6">
  <metadata id="CorelCorpID_9Corel-Layer"/>
  <path class="Tail-Pig6fil36 Tail-Pig6str0" d="M12854 22077c0,0 93,855 635,628 541,-226 613,-272 1259,-590 606,-333 14,-1382 2087,169 1053,1177 2314,-186 2402,-575 71,622 -161,1016 -299,1223 -138,208 412,-88 542,-275 -163,647 -602,1349 -1206,1429 -394,51 -659,-23 -938,-284 0,0 237,447 713,499 477,53 500,33 500,33 0,0 -816,442 -1301,273 -484,-169 -871,-670 -871,-670 0,0 146,601 375,746 228,146 -656,52 -803,-90 -148,-143 -384,-469 -434,-636 -50,-166 -158,-355 -222,-399 -63,-43 296,412 291,699 -4,288 -161,-161 -567,-300 -407,-139 -510,-291 -510,-291 0,0 236,265 184,619 -52,354 -141,419 -141,419 0,0 -149,-649 -868,-1032 -150,-80 115,400 172,493 -797,-197 -1567,-813 -1000,-2088z" style="fill:#d32ccb"/>
  <path class="Tail-Pig6fil10" d="M19250 21974c-10,471 -195,782 -312,958 -138,208 412,-88 542,-275 -163,647 -602,1349 -1206,1429 -394,51 -659,-23 -938,-284 0,0 237,447 713,499 477,53 500,33 500,33 0,0 -816,442 -1301,273 -484,-169 -871,-670 -871,-670 0,0 146,601 375,746 228,146 -656,52 -803,-90 -148,-143 -384,-469 -434,-636 -50,-166 -158,-355 -222,-399 -63,-43 296,412 291,699 -4,288 -161,-161 -567,-300 -407,-139 -510,-291 -510,-291 0,0 236,265 184,619 -52,354 -141,419 -141,419 0,0 -149,-649 -868,-1032 -150,-80 115,400 172,493 -466,-115 -922,-373 -1108,-822 -15,-115 486,-391 842,-556 355,-165 3526,715 3586,746 962,512 1711,-224 1706,-217 -47,60 -576,-59 -576,-59 0,0 0,0 291,-238 290,-238 653,-1041 655,-1045z" style="fill:#430948"/>
 </g><g id="RightFoot-Pig0">
  <metadata id="CorelCorpID_10Corel-Layer"/>
  <path class="RightFoot-Pig0fil37" d="M16559 24190c54,65 143,233 174,292 62,268 -152,365 -298,365 -143,0 -686,-98 -894,289 -330,-192 -541,-572 -540,-565 -22,-43 -41,-85 -54,-126 -58,-176 -10,-247 31,-317 480,-107 1078,-83 1581,62z" style="fill:#c62ca7"/>
  <path class="RightFoot-Pig0fil38" d="M15011 24496c-3,101 -14,73 -14,176 -5,821 346,600 430,523 12,-11 59,-71 57,-73 -109,-146 -274,-300 -473,-626z" style="fill:#c1fe8c"/>
  <path class="RightFoot-Pig0fil0 RightFoot-Pig0str2" d="M14995 24537c1,45 2,90 2,135 -5,821 346,600 430,523 4,-4 19,-23 37,-48" style="fill:#8d210b"/>
  <path class="RightFoot-Pig0fil39" d="M16756 24466c0,0 -225,-105 -294,-5 -54,78 49,353 -47,353 -106,0 -310,-245 -509,-215 -288,43 -418,429 -384,506 35,82 343,409 763,435 419,26 490,-14 487,-39 -3,-24 42,-150 42,-150 0,0 458,-59 491,-95 100,-109 -467,-691 -549,-790z" style="fill:#0265e4"/>
  <polygon class="RightFoot-Pig0fil40" points="16740,25393 16571,24994 16934,25330 "/>
  <path class="RightFoot-Pig0fil0 RightFoot-Pig0str2" d="M16567 24189c147,241 633,739 718,969 84,231 -492,167 -492,167 0,0 5,189 -122,220 -281,70 -831,-103 -1075,-309 -49,-41 -99,-87 -150,-135" style="fill:#625eb5"/>
  <path class="RightFoot-Pig0fil0 RightFoot-Pig0str2" d="M16567 24189c45,73 121,170 208,277m-1262 697c-341,-311 -707,-789 -548,-1037" style="fill:#883592"/>
  <path class="RightFoot-Pig0fil10" d="M15252 24171c-250,336 427,769 691,965 282,210 555,378 651,406 -45,23 -445,-31 -727,-123 -179,-96 -710,-617 -803,-752 -94,-163 -147,-331 -119,-480 10,-21 22,-40 33,-59 85,-7 193,-3 274,43z" style="fill:#402f46"/>
 </g><g id="LeftFoot-Pig0">
  <metadata id="CorelCorpID_27Corel-Layer"/>
  <path class="LeftFoot-Pig0fil37" d="M10805 24190c-54,65 -143,233 -174,292 -62,268 152,365 298,365 143,0 685,-98 894,289 330,-192 541,-572 540,-565 22,-43 40,-85 54,-126 58,-176 10,-247 -31,-317 -480,-107 -1078,-83 -1581,62z" style="fill:#8321bb"/>
  <path class="LeftFoot-Pig0fil38" d="M12353 24496c3,101 14,73 14,176 5,821 -346,600 -430,523 -12,-11 -59,-71 -57,-73 109,-146 274,-300 473,-626z" style="fill:#b4c516"/>
  <path class="LeftFoot-Pig0fil0 LeftFoot-Pig0str2" d="M12369 24537c-1,45 -2,90 -2,135 5,821 -346,600 -430,523 -4,-4 -19,-23 -37,-48" style="fill:#c2b101"/>
  <path class="LeftFoot-Pig0fil57" d="M10608 24466c0,0 225,-105 294,-5 54,78 -49,353 47,353 106,0 309,-245 509,-215 288,43 418,429 384,506 -35,82 -343,409 -763,435 -419,26 -490,-14 -487,-39 3,-24 -42,-150 -42,-150 0,0 -458,-59 -491,-95 -101,-109 467,-691 549,-790z" style="fill:#1a67d7"/>
  <polygon class="LeftFoot-Pig0fil40" points="10624,25393 10793,24994 10430,25330 "/>
  <path class="LeftFoot-Pig0fil0 LeftFoot-Pig0str2" d="M10797 24189c-147,241 -633,739 -718,969 -85,231 492,167 492,167 0,0 -5,189 122,220 281,70 831,-103 1075,-309 49,-41 99,-87 150,-135" style="fill:#8e6c8a"/>
  <path class="LeftFoot-Pig0fil0 LeftFoot-Pig0str2" d="M10797 24189c-45,73 -121,170 -208,277m1262 697c341,-311 707,-789 548,-1037" style="fill:#920d3c"/>
  <path class="LeftFoot-Pig0fil10" d="M12112 24171c250,336 -428,769 -691,965 -282,210 -555,378 -651,406 45,23 444,-31 727,-123 179,-96 710,-617 803,-752 94,-163 147,-331 119,-480 -10,-21 -22,-40 -33,-59 -85,-7 -193,-3 -274,43z" style="fill:#1b6fbc"/>
 </g><g id="RightLeg-Pig0">
  <metadata id="CorelCorpID_22Corel-Layer"/>
  <path class="RightLeg-Pig0fil52" d="M16570 21416c0,0 1181,1189 570,2176 -128,221 -511,470 -581,598 -599,44 -1104,27 -1581,-62 45,-78 82,-155 -44,-376 -113,-198 -400,-446 -1252,-493 0,-147 0,-280 0,-522 373,-788 1598,-1745 2888,-1321z" style="fill:#51f9ba"/>
  <path class="RightLeg-Pig0fil10" d="M17192 23421c67,-141 106,-290 107,-439 2,-734 -540,-1374 -869,-1659l-157 688c26,45 52,90 79,136 387,-391 947,832 840,1274z" style="fill:#458090"/>
  <path class="RightLeg-Pig0fil0 RightLeg-Pig0str2" d="M16570 21416c303,324 585,778 689,1246 115,521 25,950 -408,1282 -95,72 -194,144 -284,245m-1602 -63c284,-396 -518,-875 -1283,-867" style="fill:#68b8a4"/>
  <path class="RightLeg-Pig0fil10" d="M13760 23246c341,-28 1532,124 1607,584 27,166 -52,256 -115,341 -93,-12 -184,-26 -274,-43 40,-70 74,-140 -11,-313 -8,-22 -19,-42 -33,-62l0 -1c-104,-182 -357,-408 -1066,-479 -35,-9 -71,-18 -108,-27z" style="fill:#ddf9a8"/>
 </g><g id="LeftLeg-Pig0">
  <metadata id="CorelCorpID_39Corel-Layer"/>
  <path class="LeftLeg-Pig0fil62" d="M10794 21416c0,0 -1181,1189 -570,2176 128,221 511,470 581,598 599,44 1104,27 1581,-62 -45,-78 -82,-155 44,-376 113,-198 400,-446 1252,-493 0,-147 0,-280 0,-522 -373,-788 -1598,-1745 -2888,-1321z" style="fill:#246c17"/>
  <path class="LeftLeg-Pig0fil10" d="M10172 23421c-67,-141 -106,-290 -107,-439 -2,-734 540,-1374 869,-1659l157 688c-26,45 -53,90 -79,136 -388,-391 -947,832 -840,1274z" style="fill:#45e74c"/>
  <path class="LeftLeg-Pig0fil0 LeftLeg-Pig0str2" d="M10794 21416c-303,324 -586,778 -689,1246 -115,521 -25,950 408,1282 95,72 193,144 284,245m1602 -63c-284,-396 517,-875 1283,-867" style="fill:#fd182c"/>
  <path class="LeftLeg-Pig0fil10" d="M13604 23246c-341,-28 -1532,124 -1607,584 -27,166 52,256 115,341 93,-12 184,-26 274,-43 -40,-70 -74,-140 11,-313 8,-22 19,-42 33,-62l0 -1c104,-182 357,-408 1066,-479 35,-9 71,-18 108,-27z" style="fill:#b63377"/>
 </g><g id="RightHand-Pig0">
 <animateTransform additive="sum" attributeName="transform" dur="10" repeatCount="indefinite" type="translate" values="0;0 200;0;0 200;0;0 200;0;0 200;0"/>
  <metadata id="CorelCorpID_44Corel-Layer"/>
  <path class="RightHand-Pig0fil68" d="M16231 17709c1005,345 1816,1398 2255,2162 -88,184 -847,720 -1129,836 -543,-402 -1045,-430 -1469,-362 -742,120 -1353,-1920 -931,-2545 422,-21 934,-40 1274,-91z" style="fill:#1d7379"/>
  <path class="RightHand-Pig0fil10" d="M17342 20696c-537,-391 -1034,-418 -1454,-351 -171,28 -335,-59 -481,-217 -325,-472 753,-1098 1039,-656 258,399 723,837 1098,1116 3,2 22,18 34,27l-219 113c-8,-18 -14,-30 -17,-32z" style="fill:#b3571d"/>
  <path class="RightHand-Pig0fil0 RightHand-Pig0str0" d="M16477 20333c179,24 366,81 561,178 100,50 205,104 305,189m1121 -817c-161,-280 -388,-607 -632,-916 -422,-534 -963,-1039 -1601,-1258 -90,-31 -172,-59 -246,-84" style="fill:#844a36"/>
 </g><g id="LeftHand-Pig0">
 <animateTransform additive="sum" attributeName="transform" dur="10" repeatCount="indefinite" type="translate" values="0;0 200;0;0 200;0;0 200;0;0 200;0"/>
  <metadata id="CorelCorpID_61Corel-Layer"/>
  <path class="LeftHand-Pig0fil79" d="M11133 17709c-1005,345 -1817,1398 -2255,2162 88,184 847,720 1128,836 544,-402 1046,-430 1470,-362 742,120 1352,-1920 931,-2545 -422,-21 -934,-40 -1274,-91z" style="fill:#7edd81"/>
  <path class="LeftHand-Pig0fil10" d="M10022 20696c537,-391 1034,-418 1454,-351 171,28 335,-59 481,-217 325,-472 -753,-1098 -1039,-656 -258,399 -723,837 -1098,1116 -3,2 -22,18 -34,27l219 113c8,-18 14,-30 17,-32z" style="fill:#8d88db"/>
  <path class="LeftHand-Pig0fil0 LeftHand-Pig0str0" d="M10887 20333c-179,24 -366,81 -561,178 -100,50 -205,104 -305,189m-1121 -817c161,-280 388,-607 632,-916 422,-534 963,-1039 1601,-1258 90,-31 171,-59 246,-84" style="fill:#0caade"/>
 </g><g id="Body-Pig4">
 <animateTransform additive="sum" attributeName="transform" dur="10" repeatCount="indefinite" type="translate" values="0;0 200;0;0 200;0;0 200;0;0 200;0"/>
  <metadata id="CorelCorpID_70Corel-Layer"/>
  <path class="Body-Pig4fil83" d="M13682 23135c-1548,0 -2752,-291 -2993,-1956 -147,-1014 391,-2287 991,-3420 634,80 1289,123 2002,142 713,-19 1367,-62 2002,-142 600,1133 1137,2406 991,3420 -242,1665 -1445,1956 -2993,1956z" style="fill:#a0bc1c"/>
  <path class="Body-Pig4fil89" d="M13682 18977c804,0 1496,-327 1870,-6 247,212 491,751 403,874 -42,-19 -128,-83 -224,-105 -187,-43 455,407 324,869 -145,-100 -451,-221 -271,115 269,502 -520,2000 -2102,2000 -1582,0 -2371,-1498 -2102,-2000 180,-336 -126,-215 -271,-115 -131,-462 511,-912 324,-869 -96,22 -182,86 -224,105 -88,-123 156,-662 403,-874 374,-321 1066,6 1870,6z" style="fill:#3fb56b"/>
  <path class="Body-Pig4fil10" d="M12621 23067c-1016,-156 -1749,-629 -1932,-1888 -75,-519 29,-1106 229,-1707 -223,2001 402,3257 1703,3595z" style="fill:#65224c"/>
  <path class="Body-Pig4fil84" d="M11012 22144c-250,-321 -348,-641 -397,-954 -59,-377 -24,-998 184,-1320 -78,421 -93,905 -36,1298 50,341 104,572 249,976z" style="fill:#08b5b6"/>
  <path class="Body-Pig4fil10" d="M14743 23067c1016,-156 1749,-629 1932,-1888 75,-519 -29,-1106 -229,-1707 223,2001 -402,3257 -1703,3595z" style="fill:#0075d2"/>
  <path class="Body-Pig4fil84" d="M16352 22144c250,-321 347,-641 397,-954 59,-377 24,-998 -184,-1320 78,421 93,905 36,1298 -50,341 -104,572 -249,976z" style="fill:#962a36"/>
  <path class="Body-Pig4fil84" d="M12471 19048c14,90 4,320 274,403 104,32 268,2 338,-92 41,-54 108,-17 116,35 27,176 135,303 267,367 69,33 144,49 218,46 72,-2 143,-23 205,-64 110,-73 193,-211 207,-426 2,-41 34,-72 70,-69 27,2 48,21 57,47 49,115 191,167 298,161 199,-12 328,-149 389,-357 24,291 -131,492 -383,506 -114,7 -234,-31 -324,-111 -43,180 -134,304 -248,378 -81,54 -173,81 -267,85 -93,3 -187,-17 -273,-58 -141,-68 -261,-192 -318,-364 -112,74 -260,99 -386,61 -266,-82 -287,-394 -240,-548z" style="fill:#a4637c"/>
  <path class="Body-Pig4fil90" d="M11076 17739c-186,103 -324,356 -342,625 -20,297 105,612 472,769 -154,-354 10,-517 41,-644 629,1947 1271,471 1581,1982 90,440 185,529 734,850 -93,-123 -214,-520 -134,-867 44,325 409,565 553,558 -180,-292 -45,-549 219,-725 665,-442 1499,-144 1727,-1661 81,149 165,311 26,667 694,-509 592,-1074 261,-1520 -1138,-1530 -3211,-1103 -5138,-34z" style="fill:#cc323b"/>
  <path class="Body-Pig4fil10" d="M13403 19738c104,-58 441,-278 131,-908 186,27 528,522 531,444 24,-543 475,-605 718,-921 190,-246 255,-513 249,-778 -160,163 -701,297 -619,405 83,109 -227,825 -552,757 -232,-49 -114,-432 -1325,-407 1660,188 159,1510 -907,449 -275,-273 -156,-583 -156,-583 0,0 -242,264 -325,25 -83,-238 194,-503 194,-503 93,-252 -60,32 -185,-23l0 0c-108,92 -217,192 -317,298 -59,109 -97,238 -106,371 -20,297 105,612 472,769 -154,-354 10,-517 41,-644 629,1947 1271,471 1581,1982 90,440 185,529 734,850 -93,-123 -214,-520 -134,-867 44,325 409,565 553,558 -180,-292 -45,-549 219,-725 665,-442 1499,-144 1727,-1661 81,149 165,311 26,667 459,-337 570,-697 497,-1032 -60,-141 -119,-271 -158,-374l0 0c0,9 -63,799 -659,251 82,197 51,578 -87,876 -174,375 -511,490 -542,-243 -162,965 -844,1330 -1499,1094 -111,170 -138,441 -364,513 -10,2 -13,-813 -896,-956 417,-114 883,-304 1158,316z" style="fill:#8cd76e"/>
  <path class="Body-Pig4fil30" d="M11109 17817c-80,44 -151,122 -204,219 -54,98 -89,215 -97,335 -9,140 18,284 95,408 41,68 98,131 172,184 -33,-192 25,-321 70,-422 13,-29 25,-55 30,-75 12,-47 53,-73 93,-60 25,8 44,31 51,59 126,387 243,621 364,779 76,97 167,186 255,236 182,104 384,130 634,342 -272,-137 -486,-158 -675,-242 -134,-61 -274,-187 -329,-256 -115,-147 -210,-297 -326,-615 -30,91 -44,210 30,382 10,21 13,47 5,72 -14,45 -58,68 -96,51 -186,-79 -316,-197 -400,-334 -99,-160 -134,-345 -122,-522 10,-149 53,-294 120,-415 67,-123 159,-223 265,-282 1052,-584 2149,-978 3119,-972 832,6 1570,305 2108,1028 47,63 90,129 126,195 106,194 165,405 144,623 -21,217 -121,437 -332,648 -63,63 -134,124 -215,184 -21,15 -47,18 -71,5 -38,-19 -55,-71 -38,-114 59,-152 73,-262 65,-348 -116,323 -295,778 -797,989 494,-300 697,-1007 700,-1288 7,-47 45,-79 86,-71 24,5 42,21 53,44 44,81 89,166 104,285 8,59 9,125 -2,200l17 -17c180,-180 264,-361 281,-536 17,-175 -32,-348 -121,-511 -34,-60 -72,-119 -113,-175 -507,-681 -1206,-962 -1996,-968 -945,-6 -2020,381 -3053,955z" style="fill:#3764d1"/>
 </g><g id="RightPaw-Pig0">
 <animateTransform additive="sum" attributeName="transform" dur="10" repeatCount="indefinite" type="translate" values="0;0 200;0;0 200;0;0 200;0;0 200;0"/>
  <metadata id="CorelCorpID_49Corel-Layer"/>
  <path class="RightPaw-Pig0fil74" d="M18486 19871c155,269 247,281 434,498 211,244 446,948 341,1067 -34,39 -389,8 -389,8 -15,58 -145,373 -188,392 -161,73 -598,-324 -814,-554 -63,111 -195,178 -216,147 -79,-27 -146,-195 -211,-374 -34,-92 -45,-318 -86,-348 139,-387 621,-775 1129,-836z" style="fill:#3800b7"/>
  <path class="RightPaw-Pig0fil10" d="M17452 20518c31,24 62,48 92,70 4,3 39,31 43,34 13,14 26,28 39,43 79,93 97,228 104,283 2,13 3,21 4,24 -2,92 -166,169 -227,208 0,-8 -67,-223 -116,-364 0,-31 3,-54 -7,-90 -9,-6 -18,-13 -27,-19 23,-64 55,-127 95,-189z" style="fill:#ae6160"/>
  <path class="RightPaw-Pig0fil75" d="M18910 20358c-402,-76 -337,407 -242,635 -239,-309 -538,-414 -692,-297 -104,79 -113,131 -203,226 -99,104 -339,-108 -394,-184 -18,147 139,645 275,691 21,31 153,-36 216,-147 216,230 653,627 814,554 43,-19 173,-334 188,-392 0,0 355,31 389,-8 109,-123 -135,-862 -351,-1078z" style="fill:#845f33"/>
  <path class="RightPaw-Pig0fil10" d="M18804 21498c-67,307 -352,47 -875,-255 4,66 -100,45 -131,-12 -41,-92 -52,-190 -68,-283 -88,22 -225,-79 -303,-156 -5,-5 -11,-11 -16,-16 49,174 144,541 243,653 90,2 173,-72 216,-147 199,212 579,572 803,508 84,-24 78,-133 131,-292z" style="fill:#880170"/>
  <path class="RightPaw-Pig0fil0 RightPaw-Pig0str2" d="M17136 20561c121,75 170,94 271,202 1,149 38,330 93,461 54,128 115,197 196,208 55,8 128,-6 194,-123 208,221 642,571 796,501 41,-19 164,-344 179,-400 0,0 356,75 389,38 86,-99 -94,-785 -280,-992 -109,-122 -404,-420 -409,-427 -68,-85 -123,-182 -179,-276" style="fill:#fdeaf0"/>
  <polygon class="RightPaw-Pig0fil40" points="18796,21484 18678,21021 18973,21393 "/>
 </g><g id="LeftPaw-Pig0">
 <animateTransform additive="sum" attributeName="transform" dur="10" repeatCount="indefinite" type="translate" values="0;0 200;0;0 200;0;0 200;0;0 200;0"/>
  <metadata id="CorelCorpID_71Corel-Layer"/>
  <path class="LeftPaw-Pig0fil91" d="M8878 19871c-155,269 -247,281 -434,498 -211,244 -446,948 -341,1067 34,39 388,8 388,8 16,58 146,373 189,392 161,73 598,-324 814,-554 63,111 195,178 216,147 79,-27 146,-195 211,-374 34,-92 45,-318 85,-348 -138,-387 -621,-775 -1128,-836z" style="fill:#131c15"/>
  <path class="LeftPaw-Pig0fil10" d="M9912 20518c-31,24 -62,48 -92,70 -4,3 -39,31 -43,34 -14,14 -27,28 -39,43 -79,93 -97,228 -104,283 -2,13 -3,21 -4,24 2,92 166,169 226,208 0,-8 68,-223 117,-364 -1,-31 -3,-54 7,-90 9,-6 18,-13 26,-19 -22,-64 -54,-127 -94,-189z" style="fill:#85facc"/>
  <path class="LeftPaw-Pig0fil92" d="M8454 20358c401,-76 337,407 242,635 239,-309 538,-414 692,-297 104,79 113,131 203,226 99,104 339,-108 394,-184 18,147 -140,645 -275,691 -21,31 -153,-36 -216,-147 -216,230 -653,627 -814,554 -43,-19 -173,-334 -189,-392 0,0 -354,31 -388,-8 -109,-123 135,-862 351,-1078z" style="fill:#6387fd"/>
  <path class="LeftPaw-Pig0fil10" d="M8560 21498c67,307 352,47 875,-255 -5,66 100,45 131,-12 40,-92 52,-190 68,-283 88,22 225,-79 303,-156 5,-5 11,-11 16,-16 -49,174 -144,541 -243,653 -90,2 -173,-72 -216,-147 -199,212 -579,572 -803,508 -84,-24 -79,-133 -131,-292z" style="fill:#91b5ab"/>
  <path class="LeftPaw-Pig0fil0 LeftPaw-Pig0str2" d="M10228 20561c-121,75 -170,94 -272,202 0,149 -37,330 -92,461 -55,128 -115,197 -196,208 -55,8 -128,-6 -194,-123 -208,221 -642,571 -797,501 -41,-19 -163,-344 -178,-400 0,0 -356,75 -389,38 -86,-99 94,-785 280,-992 109,-122 404,-420 409,-427 68,-85 123,-182 179,-276" style="fill:#a1e1ff"/>
  <polygon class="LeftPaw-Pig0fil40" points="8568,21484 8686,21021 8391,21393 "/>
 </g><g id="Ears-Pig10">
 <animateTransform additive="sum" attributeName="transform" dur="10" repeatCount="indefinite" type="translate" values="0;0 200;0;0 200;0;0 200;0;0 200;0"/>
  <metadata id="CorelCorpID_93Corel-Layer"/>
  <path class="Ears-Pig10fil152 Ears-Pig10str0" d="M18390 11582c0,0 828,-518 1834,-152 -23,-189 -135,-267 -208,-347 370,-209 496,-376 557,-877 -219,11 -342,13 -511,-100 0,0 349,-311 674,-235 4,-126 -364,-519 -864,-432 -5,1 1150,-730 1161,-1950 -141,201 -350,460 -620,674 -270,215 -541,240 -541,240 551,-724 848,-1612 461,-2697 -31,73 128,1028 -683,1775 262,-702 316,-1493 -108,-2363 0,0 -23,616 -667,1121 -214,167 -46,-483 -46,-483 -920,285 -1212,673 -1641,1520 -63,-104 -26,-572 104,-950 -1434,842 -1593,2800 -688,4249 745,1191 782,1084 1786,1007z" style="fill:#4a0cbc"/>
  <path class="Ears-Pig10fil38" d="M18190 10814c-42,1 -508,-534 -510,-579 -2,-46 30,-84 71,-86 555,-28 582,51 887,-244 -74,-43 -189,-289 -375,-384 18,-82 535,-205 675,-528 -95,5 -625,-91 -646,-167 -32,-114 414,-279 602,-841 197,-589 -12,-498 445,-1167 -87,284 -94,549 -101,768 -10,351 10,687 -304,1070 180,-54 385,-64 644,-60 14,0 28,3 40,11 36,22 15,78 -5,118 -109,213 -248,425 -426,606 -125,126 -253,235 -364,312 250,54 600,124 601,125 10,2 19,5 27,11 35,25 45,75 23,114 -176,304 -334,524 -529,675 -198,152 -431,229 -755,246z" style="fill:#f4ecdf"/>
  <path class="Ears-Pig10fil10" d="M20639 9787c0,0 -864,59 -996,297 -132,239 416,471 416,471 -454,350 -1430,653 -1633,314l330 551c0,0 476,-146 771,-120 295,26 697,130 697,130 0,0 -141,-386 -174,-367 -34,20 343,-140 422,-425 79,-286 97,-403 97,-403 0,0 -440,-87 -474,-108 -33,-21 284,-215 544,-340z" style="fill:#e0bf41"/>
  <path class="Ears-Pig10fil153" d="M16601 8388c0,0 -20,-501 330,-989 -42,343 18,627 18,627 0,0 271,-904 1091,-752 -650,281 -951,1958 198,1735 -189,581 -815,286 -815,286 0,0 -962,709 -822,-907z" style="fill:#fbe3c1"/>
  <path class="Ears-Pig10fil10" d="M19339 6818c-332,619 -156,1723 -758,2007 -48,23 448,113 524,186 77,73 -448,561 -506,590 -57,29 373,143 309,317 -65,174 -461,775 -827,584 -366,-192 -176,-152 -276,-355 503,-21 538,43 833,-242 -74,-43 -189,-289 -375,-384 18,-82 535,-205 675,-528 -95,5 -625,-91 -646,-167 -32,-114 414,-279 602,-841 197,-589 -12,-498 445,-1167z" style="fill:#76977b"/>
  <path class="Ears-Pig10fil154 Ears-Pig10str0" d="M8974 11582c0,0 -828,-518 -1835,-152 24,-189 136,-267 209,-347 -370,-209 -496,-376 -557,-877 219,11 342,13 511,-100 0,0 -349,-311 -674,-235 -4,-126 364,-519 863,-432 6,1 -1149,-730 -1160,-1950 141,201 349,460 620,674 270,215 541,240 541,240 -551,-724 -848,-1612 -461,-2697 31,73 -128,1028 683,1775 -262,-702 -316,-1493 108,-2363 5,-9 23,616 667,1121 214,167 45,-483 45,-483 921,285 1213,673 1642,1520 63,-104 26,-572 -104,-950 1434,842 1593,2800 688,4249 -745,1191 -782,1084 -1786,1007z" style="fill:#00abbb"/>
  <path class="Ears-Pig10fil38" d="M9174 10814c41,1 508,-534 510,-579 2,-46 -30,-84 -71,-86 -556,-28 -582,51 -887,-244 74,-43 189,-289 375,-384 -18,-82 -536,-205 -675,-528 95,5 625,-91 646,-167 32,-114 -414,-279 -602,-841 -197,-589 12,-498 -445,-1167 87,284 94,549 100,768 11,351 -9,687 305,1070 -180,-54 -385,-64 -644,-60 -14,0 -28,3 -41,11 -36,22 -14,78 6,118 108,213 248,425 426,606 125,126 253,235 364,312 -250,54 -600,124 -602,125 -9,2 -18,5 -26,11 -35,25 -45,75 -23,114 176,304 334,524 529,675 198,152 431,229 755,246z" style="fill:#9690db"/>
  <path class="Ears-Pig10fil10" d="M6725 9787c0,0 864,59 996,297 132,239 -416,471 -416,471 454,350 1429,653 1633,314l-330 551c0,0 -476,-146 -771,-120 -295,26 -698,130 -698,130 0,0 142,-386 175,-367 34,20 -343,-140 -422,-425 -79,-286 -97,-403 -97,-403 0,0 440,-87 473,-108 34,-21 -283,-215 -543,-340z" style="fill:#55030e"/>
  <path class="Ears-Pig10fil155" d="M10763 8388c0,0 20,-501 -330,-989 42,343 -18,627 -18,627 0,0 -271,-904 -1091,-752 650,281 951,1958 -198,1735 189,581 815,286 815,286 0,0 961,709 822,-907z" style="fill:#3e48d7"/>
  <path class="Ears-Pig10fil10" d="M8025 6818c332,619 156,1723 758,2007 48,23 -448,113 -524,186 -77,73 447,561 505,590 58,29 -373,143 -308,317 65,174 461,775 827,584 365,-192 176,-152 276,-355 -504,-21 -538,43 -833,-242 74,-43 189,-289 375,-384 -18,-82 -536,-205 -675,-528 95,5 625,-91 646,-167 32,-114 -414,-279 -602,-841 -197,-589 12,-498 -445,-1167z" style="fill:#bbe2f2"/>
 </g><g id="Head-Pig6">
 <animateTransform additive="sum" attributeName="transform" dur="10" repeatCount="indefinite" type="translate" values="0;0 200;0;0 200;0;0 200;0;0 200;0"/>
  <metadata id="CorelCorpID_101Corel-Layer"/>
  <path class="Head-Pig6fil165" d="M13682 17937c-481,0 -1034,-24 -1605,-101 -847,-114 -1738,-333 -2509,-708 -371,-180 -500,136 -491,337 -719,-495 -631,-1374 -770,-1556 -53,121 -259,436 -231,759 -578,-501 -343,-1565 -391,-1702 -35,-194 -252,-47 -443,254 -49,-404 -28,-822 41,-1233 85,-513 252,-1119 496,-1583 158,-300 365,-615 604,-1079 102,-182 197,-394 302,-573 27,-47 54,-103 82,-149 358,-597 759,-1164 1323,-1636 1250,-1046 2355,-1447 3591,-1474l1 0 1 0c1236,27 2341,428 3590,1474 565,472 966,1039 1324,1636 28,46 54,102 82,149 104,179 200,391 302,573 239,464 446,779 603,1079 245,464 412,1070 497,1583 69,411 90,829 41,1233 -191,-301 -408,-448 -443,-254 -48,137 187,1201 -391,1702 27,-323 -178,-638 -231,-759 -139,182 -52,1061 -770,1556 9,-201 -120,-517 -491,-337 -771,375 -1662,594 -2509,708 -571,77 -1124,101 -1605,101z" style="fill:#19263f"/>
  <path class="Head-Pig6fil166" d="M13682 17101c-1355,0 -1476,-639 -2527,-866 -271,-59 -493,16 -558,-93 -80,-277 186,-742 95,-724 -209,23 -431,238 -517,144 -94,-103 -27,-625 34,-793 161,-440 788,-1254 2097,-1689 543,-181 347,-2171 1376,-2171 1029,0 833,1990 1376,2171 1308,435 1935,1249 2097,1689 61,168 128,690 34,793 -87,94 -308,-121 -517,-144 -91,-18 175,447 94,724 -64,109 -287,34 -557,93 -1051,227 -1172,866 -2527,866z" style="fill:#922aab"/>
  <path class="Head-Pig6fil10" d="M8595 11042c-90,145 -189,290 -291,434 -206,384 -384,662 -525,928 -244,464 -411,1070 -496,1583 -69,411 -90,829 -41,1233 191,-301 408,-448 443,-254 48,137 -187,1201 391,1702 -28,-323 178,-638 231,-759 139,182 51,1061 770,1556 -9,-201 120,-517 491,-337 771,375 1662,594 2509,708 149,20 297,36 442,50 40,3 80,6 120,9 -2326,-552 -4001,-1593 -4496,-3087 -323,-975 -154,-2267 452,-3766z" style="fill:#242fd2"/>
  <path class="Head-Pig6fil84" d="M9861 9172c974,-1177 2398,-1757 3821,-1747 1423,-10 2847,570 3821,1747 -1223,-1081 -2522,-1612 -3821,-1603 -1299,-9 -2598,522 -3821,1603z" style="fill:#6f2e3b"/>
  <path class="Head-Pig6fil84" d="M18558 10538c262,349 484,763 669,1097 87,158 168,282 197,333 83,143 159,273 227,401 116,221 215,473 296,731 92,294 162,598 208,874 36,216 59,433 66,650 7,204 0,406 -25,605 -4,41 -42,70 -83,65 -23,-3 -43,-16 -54,-34 -84,-131 -170,-230 -241,-279 -23,-16 -43,-26 -57,-27 0,0 0,-1 0,-1l0 -1c-3,5 -6,14 -9,27 0,4 -1,8 -3,11 -6,18 -2,94 3,199 20,386 57,1127 -415,1536 -31,27 -79,23 -106,-8 -13,-16 -19,-36 -18,-55l0 0c18,-208 -72,-417 -145,-564 -9,39 -17,84 -27,133 -69,363 -177,927 -712,1296 -34,23 -81,15 -104,-19 -10,-14 -14,-30 -13,-46 3,-60 -9,-131 -39,-192 -16,-34 -38,-64 -66,-86 -27,-20 -59,-33 -99,-35 -48,-2 -107,11 -179,46 -367,179 -762,323 -1165,437 -159,44 -1032,206 -1451,214 611,-128 1199,-299 1410,-359 395,-111 781,-251 1140,-426 96,-47 179,-64 251,-61 73,3 134,28 184,65 48,37 84,86 110,139 18,38 32,79 41,120 395,-334 485,-807 545,-1121 30,-153 52,-273 103,-339 8,-10 18,-18 30,-23 38,-17 82,0 98,38 9,19 23,47 40,79 63,124 162,315 192,528 291,-379 262,-967 246,-1290 -6,-116 -10,-201 3,-248 8,-40 22,-71 42,-94 34,-40 79,-56 131,-49 39,5 81,23 124,53 51,35 107,89 163,157 8,-129 10,-257 6,-386 -7,-209 -30,-420 -65,-630 -45,-270 -113,-566 -203,-854 -79,-250 -174,-494 -286,-706 -66,-125 -141,-254 -223,-396 -41,-70 -116,-197 -199,-377 -133,-288 -307,-697 -538,-1128zm1203 4415c1,-1 3,-4 1,-2l-1 1 0 1z" style="fill:#afb516"/>
  <path class="Head-Pig6fil84" d="M8806 10538c-262,349 -484,763 -669,1097 -87,158 -168,282 -197,333 -83,143 -159,273 -227,401 -116,221 -215,473 -296,731 -92,294 -162,598 -208,874 -36,216 -59,433 -66,650 -7,204 0,406 24,605 5,41 43,70 84,65 23,-3 42,-16 54,-34 84,-131 170,-230 241,-279 23,-16 43,-26 57,-27 0,0 0,-1 0,-1l0 -1c3,5 6,14 8,27 1,4 2,8 3,11 7,18 3,94 -2,199 -20,386 -57,1127 415,1536 31,27 79,23 106,-8 13,-16 19,-36 18,-55l0 0c-18,-208 72,-417 145,-564 9,39 17,84 27,133 69,363 176,927 712,1296 34,23 80,15 104,-19 10,-14 14,-30 13,-46 -3,-60 9,-131 39,-192 16,-34 38,-64 66,-86 26,-20 59,-33 99,-35 48,-2 107,11 179,46 367,179 761,323 1165,437 159,44 1032,206 1451,214 -611,-128 -1199,-299 -1410,-359 -395,-111 -781,-251 -1140,-426 -96,-47 -179,-64 -251,-61 -74,3 -134,28 -184,65 -48,37 -84,86 -110,139 -19,38 -32,79 -41,120 -395,-334 -485,-807 -545,-1121 -30,-153 -52,-273 -103,-339 -8,-10 -18,-18 -30,-23 -38,-17 -82,0 -98,38 -9,19 -23,47 -40,79 -64,124 -162,315 -192,528 -291,-379 -262,-967 -246,-1290 6,-116 10,-201 -3,-248 -8,-40 -22,-71 -42,-94 -34,-40 -79,-56 -131,-49 -39,5 -81,23 -124,53 -51,35 -107,89 -163,157 -8,-129 -10,-257 -6,-386 7,-209 30,-420 65,-630 45,-270 113,-566 203,-854 78,-250 174,-494 286,-706 66,-125 141,-254 223,-396 41,-70 116,-197 199,-377 133,-288 307,-697 538,-1128zm-1203 4415c-1,-1 -3,-4 -1,-2l1 1 0 1z" style="fill:#9ecddb"/>
 </g><g id="Mouth-Pig8">
 <animateTransform additive="sum" attributeName="transform" dur="10" repeatCount="indefinite" type="translate" values="0;0 200;0;0 200;0;0 200;0;0 200;0"/>
  <metadata id="CorelCorpID_111Corel-Layer"/>
  <g id="_2991504389776">
   <path class="Mouth-Pig8fil26" d="M13682 14770c-424,3 -779,756 -1190,753 421,32 506,120 1190,123 684,-3 769,-91 1189,-123 -410,3 -765,-750 -1189,-753z" style="fill:#bedbe2"/>
   <path class="Mouth-Pig8fil172" d="M12698 16324c387,-49 597,-173 984,-173 387,0 597,124 984,173 -370,-152 -602,-340 -984,-340 -382,0 -614,188 -984,340z" style="fill:#92cb02"/>
   <path class="Mouth-Pig8fil0 Mouth-Pig8str0" d="M16484 15778c-132,-434 -334,-469 -580,-358 -93,42 -148,160 -271,205 -299,109 -504,123 -653,81 -175,-50 -297,-133 -546,-209 -237,-72 -507,-101 -752,-112" style="fill:#2dfb68"/>
   <path class="Mouth-Pig8fil0 Mouth-Pig8str0" d="M10880 15778c132,-434 334,-469 580,-358 92,42 148,160 271,205 298,109 503,123 653,81 175,-50 296,-133 546,-209 236,-72 507,-101 752,-112" style="fill:#c3d000"/>
   <path class="Mouth-Pig8fil169" d="M16353 15752c11,-37 23,-82 -17,-150 -21,-35 -30,-295 115,-91 63,89 178,290 67,358 -80,49 -201,4 -165,-117z" style="fill:#069120"/>
   <path class="Mouth-Pig8fil169" d="M14510 15478l412 172c0,0 -47,-161 40,-241 88,-79 165,-152 165,-152l-516 -15 -262 152 161 84z" style="fill:#0da107"/>
   <path class="Mouth-Pig8fil169" d="M11011 15752c-11,-37 -23,-82 17,-150 21,-35 30,-295 -115,-91 -64,89 -179,290 -67,358 80,49 201,4 165,-117z" style="fill:#e76995"/>
   <path class="Mouth-Pig8fil169" d="M12854 15478l-412 172c0,0 47,-161 -40,-241 -88,-79 -165,-152 -165,-152l516 -15 262 152 -161 84z" style="fill:#ebd282"/>
   <path class="Mouth-Pig8fil173 Mouth-Pig8str0" d="M11484 14521c-31,82 -16,155 28,231 114,197 517,350 703,470 186,119 292,322 199,437 -94,116 -590,3 -657,-22 -215,-83 -671,-623 -659,-904 6,-130 93,-285 360,-460 227,-148 50,185 26,248z" style="fill:#48ae80"/>
   <path class="Mouth-Pig8fil173 Mouth-Pig8str0" d="M15880 14521c31,82 16,155 -28,231 -114,197 -517,350 -703,470 -186,119 -292,322 -199,437 53,66 225,74 385,51 123,-19 243,-62 272,-73 215,-83 671,-623 658,-904 -5,-130 -92,-285 -359,-460 -227,-148 -50,185 -26,248z" style="fill:#0d9b41"/>
   <path class="Mouth-Pig8fil10" d="M15359 15156c0,0 -185,173 -64,292 121,118 459,43 646,-169 188,-212 -231,320 -320,350 -89,30 -586,153 -699,21 -113,-132 3,-245 3,-245 0,0 278,-252 434,-249z" style="fill:#32054a"/>
   <path class="Mouth-Pig8fil10" d="M12005 15156c0,0 185,173 64,292 -122,118 -459,43 -646,-169 -188,-212 231,320 320,350 89,30 586,153 699,21 113,-132 -3,-245 -3,-245 0,0 -278,-252 -434,-249z" style="fill:#b474bc"/>
  </g>
 </g><g id="EyesClosed-Pig1">
 <animateTransform additive="sum" attributeName="transform" dur="10" repeatCount="indefinite" type="translate" values="0;0 200;0;0 200;0;0 200;0;0 200;0"/>
  <metadata id="CorelCorpID_118Corel-Layer"/>
  <g id="_2991504435856">
   <path class="EyesClosed-Pig1fil38" d="M17742 10839c-118,15 -406,-233 -834,-375 -394,-130 -781,-101 -853,-246 -79,-160 228,-411 459,-449 190,-31 611,91 919,364 364,324 453,687 309,706z"/>
   <path class="EyesClosed-Pig1fil10" d="M17742 10839c-118,15 -406,-233 -834,-375 -394,-130 -781,-101 -853,-246 -79,-160 228,-411 459,-449 190,-31 611,91 919,364 364,324 453,687 309,706z"/>
  </g>
  <g id="_2991498751248">
   <path class="EyesClosed-Pig1fil38" d="M9622 10839c118,15 406,-233 834,-375 394,-130 781,-101 852,-246 79,-160 -227,-411 -459,-449 -189,-31 -610,91 -918,364 -364,324 -453,687 -309,706z"/>
   <path class="EyesClosed-Pig1fil10" d="M9622 10839c118,15 406,-233 834,-375 394,-130 781,-101 852,-246 79,-160 -227,-411 -459,-449 -189,-31 -610,91 -918,364 -364,324 -453,687 -309,706z"/>
  </g>
  <g id="_2991498750768">
   <path class="EyesClosed-Pig1fil84" d="M15411 13559c192,-154 1060,238 1927,-125 499,-209 795,-457 1057,-1070 -127,1604 -1499,1705 -2783,1319 -40,-12 -80,-18 -122,-15 -44,3 -178,-30 -79,-109z"/>
   <path class="EyesClosed-Pig1fil84" d="M17798 13498c145,-5 275,-43 392,-111 170,-99 420,-376 327,-668 -35,234 -253,414 -427,515 -83,48 -174,78 -275,88l-17 176z"/>
   <path class="EyesClosed-Pig1fil84" d="M17491 13595c130,78 268,123 408,137 206,21 591,-59 671,-337 -203,203 -609,176 -891,28l-188 172z"/>
  </g>
  <g id="_2991498749520">
   <path class="EyesClosed-Pig1fil84" d="M11953 13559c-192,-154 -1060,238 -1927,-125 -499,-209 -795,-457 -1057,-1070 127,1604 1499,1705 2783,1319 39,-12 80,-18 121,-15 45,3 179,-30 80,-109z"/>
   <path class="EyesClosed-Pig1fil84" d="M9566 13498c-145,-5 -276,-43 -392,-111 -171,-99 -420,-376 -327,-668 34,234 252,414 427,515 83,48 174,78 274,88l18 176z"/>
   <path class="EyesClosed-Pig1fil84" d="M9873 13595c-130,78 -268,123 -409,137 -205,21 -590,-59 -670,-337 202,203 609,176 891,28l188 172z"/>
  </g>
 </g><g id="Eyes-Pig1">
 <animate attributeName="opacity" dur="10" repeatCount="indefinite" values="0;1;1;1;1;1;1;1;1;1;1;1;1;1;1;1;1;1;1;1;1;1;1;1;1;1;1;1;1;1;1;1;1;1;1;1;1;1;1;1;1;1;1;1;1;1;1;1;1;1;1;1;1;1;1;1;1;1;1;1;1;1;1;1;1;1;1;1;1;1;1;1;1;1;1;1;1;1;1;1;1;1;1;1;0;0"/>
 <animateTransform additive="sum" attributeName="transform" dur="10" repeatCount="indefinite" type="translate" values="0;0 200;0;0 200;0;0 200;0;0 200;0"/>
  <metadata id="CorelCorpID_119Corel-Layer"/>
  <path class="Eyes-Pig1fil84" d="M18141 12125c111,90 234,146 365,170 192,36 571,-19 694,-299 -180,155 -472,156 -668,119 -93,-18 -181,-54 -262,-112l-129 122z"/>
  <path class="Eyes-Pig1fil84" d="M18236 12328c64,137 152,249 260,338 157,130 518,274 738,85 -222,47 -483,-101 -644,-234 -77,-62 -141,-140 -191,-233l-163 44z"/>
  <path class="Eyes-Pig1fil180" d="M17282 14381c-563,1 -1296,-400 -1652,-607 -410,-238 -385,-734 -230,-1292 194,-698 672,-1448 1686,-1417 221,6 434,102 606,218 305,205 650,864 794,1463 202,835 15,1633 -1204,1635z"/>
  <path class="Eyes-Pig1fil148" d="M15363 13387c-190,-829 360,-2137 1264,-2265 609,-86 914,-49 1307,418 322,381 572,1119 611,1539 -356,-962 -1323,-1597 -1979,-1534 -835,79 -1188,884 -1203,1842z"/>
  <path class="Eyes-Pig1fil181" d="M17571 14383c-633,57 -1241,-207 -1701,-474 -155,-90 -377,-135 -451,-334 302,-140 397,-428 502,-707 440,8 880,16 1320,25 693,422 926,832 1030,1239 -124,136 -501,232 -700,251z"/>
  <path class="Eyes-Pig1fil182" d="M17008 11314c-646,-192 -1294,203 -1448,885 -153,681 247,1390 893,1583 646,193 1294,-203 1448,-885 153,-681 -247,-1390 -893,-1583z"/>
  <path class="Eyes-Pig1fil0 Eyes-Pig1str0" d="M15337 13246c0,0 -1,386 293,528 116,57 322,154 541,254 366,168 697,356 1111,353 339,-2 849,-77 1083,-417 326,-473 185,-845 6,-1515 -359,-1339 -1627,-1973 -2582,-790 -344,426 -487,1020 -452,1587z"/>
  <path class="Eyes-Pig1fil173" d="M18129 13772c-207,214 -1239,-132 -948,-447 300,-325 1172,215 948,447z"/>
  <circle class="Eyes-Pig1fil173" r="235" transform="matrix(-1.6014 -0.145492 -0.186347 1.59413 16237.4 12199.4)"/>
  <circle class="Eyes-Pig1fil173" r="235" transform="matrix(-0.430226 0.0105715 0.0139004 0.41717 16480.7 12739)"/>
  <polygon class="Eyes-Pig1fil173" points="16569,13395 16561,13520 16620,13495 16571,13537 16689,13584 16563,13575 16588,13634 16546,13586 16499,13703 16508,13577 16449,13603 16497,13560 16380,13514 16506,13522 16480,13463 16523,13512 "/>
  <polygon class="Eyes-Pig1fil173" points="17512,13816 17500,13984 17579,13950 17514,14006 17671,14068 17503,14057 17537,14136 17480,14071 17418,14228 17430,14060 17350,14094 17415,14037 17259,13975 17427,13987 17393,13907 17449,13972 "/>
  <polygon class="Eyes-Pig1fil173" points="18273,13258 18265,13383 18324,13358 18275,13400 18393,13447 18267,13438 18292,13497 18250,13449 18203,13566 18212,13440 18153,13466 18201,13423 18084,13377 18210,13385 18184,13326 18227,13375 "/>
  <g id="_2991498741424">
   <path class="Eyes-Pig1fil84" d="M9223 12125c-111,90 -234,146 -365,170 -192,36 -571,-19 -694,-299 180,155 472,156 668,119 93,-18 181,-54 262,-112l129 122z"/>
   <path class="Eyes-Pig1fil84" d="M9128 12328c-64,137 -152,249 -260,338 -157,130 -518,274 -738,85 222,47 483,-101 644,-234 76,-62 141,-140 191,-233l163 44z"/>
   <path class="Eyes-Pig1fil183" d="M10082 14381c563,1 1296,-400 1652,-607 410,-238 385,-734 230,-1292 -194,-698 -672,-1448 -1686,-1417 -221,6 -434,102 -606,218 -305,205 -650,864 -794,1463 -202,835 -15,1633 1204,1635z"/>
   <path class="Eyes-Pig1fil148" d="M12001 13387c190,-829 -360,-2137 -1264,-2265 -609,-86 -914,-49 -1308,418 -321,381 -571,1119 -610,1539 355,-962 1323,-1597 1979,-1534 834,79 1188,884 1203,1842z"/>
   <path class="Eyes-Pig1fil184" d="M9793 14383c633,57 1241,-207 1701,-474 155,-90 377,-135 451,-334 -302,-140 -397,-428 -502,-707 -440,8 -880,16 -1320,25 -693,422 -926,832 -1030,1239 124,136 501,232 700,251z"/>
   <path class="Eyes-Pig1fil185" d="M10356 11314c646,-192 1294,203 1448,885 153,681 -247,1390 -893,1583 -646,193 -1295,-203 -1448,-885 -153,-681 246,-1390 893,-1583z"/>
   <path class="Eyes-Pig1fil0 Eyes-Pig1str0" d="M12027 13246c0,0 1,386 -293,528 -116,57 -322,154 -541,254 -367,168 -697,356 -1111,353 -339,-2 -849,-77 -1083,-417 -326,-473 -185,-845 -6,-1515 359,-1339 1626,-1973 2582,-790 344,426 487,1020 452,1587z"/>
   <path class="Eyes-Pig1fil173" d="M9235 13772c207,214 1239,-132 948,-447 -300,-325 -1172,215 -948,447z"/>
   <circle class="Eyes-Pig1fil173" r="235" transform="matrix(1.6014 -0.145492 0.186347 1.59413 11126.5 12199.4)"/>
   <circle class="Eyes-Pig1fil173" r="235" transform="matrix(0.430226 0.0105715 -0.0139004 0.41717 10883.2 12739)"/>
   <polygon class="Eyes-Pig1fil173" points="10795,13395 10803,13520 10744,13495 10793,13537 10675,13584 10801,13575 10775,13634 10818,13586 10864,13703 10856,13577 10915,13603 10867,13560 10984,13514 10858,13522 10884,13463 10841,13512 "/>
   <polygon class="Eyes-Pig1fil173" points="9852,13816 9864,13984 9784,13950 9849,14006 9693,14068 9861,14057 9827,14136 9883,14071 9946,14228 9934,14060 10013,14094 9948,14037 10105,13975 9937,13987 9971,13907 9914,13972 "/>
   <polygon class="Eyes-Pig1fil173" points="9091,13258 9099,13383 9040,13358 9089,13400 8971,13447 9097,13438 9072,13497 9114,13449 9161,13566 9152,13440 9211,13466 9163,13423 9280,13377 9154,13385 9180,13326 9137,13375 "/>
  </g>
 </g><g id="Moustache-Pig0">
 <animateTransform additive="sum" attributeName="transform" dur="10" repeatCount="indefinite" type="translate" values="0;0 200;0;0 200;0;0 200;0;0 200;0"/>
  <metadata id="CorelCorpID_136Corel-Layer"/>
  <rect class="Moustache-Pig0fil0" height="1459" width="1352" x="13006" y="12662"/>
 </g><g id="Nose-Pig0">
 <animateTransform additive="sum" attributeName="transform" dur="10" repeatCount="indefinite" type="translate" values="0;0 200;0;0 200;0;0 200;0;0 200;0"/>
  <metadata id="CorelCorpID_141Corel-Layer"/>
  <g id="_2991533171152">
   <path class="Nose-Pig0fil236 Nose-Pig0str0" d="M13682 15431c688,0 1646,200 1573,-487 -68,-630 -928,-1635 -1573,-1635 -645,0 -1505,1005 -1573,1635 -73,687 885,487 1573,487z" style="fill:#e5206e"/>
   <g>
    <path class="Nose-Pig0fil26 Nose-Pig0str3" d="M14332 14239c-113,0 -205,188 -205,418 0,231 92,418 205,418 114,0 206,-187 206,-418 -1,-230 -93,-418 -206,-418z" style="fill:#41ab64"/>
    <path class="Nose-Pig0fil237 Nose-Pig0str3" d="M14332 14239c-113,0 -205,188 -205,418 0,231 92,418 205,418 114,0 206,-187 206,-418 -1,-230 -93,-418 -206,-418z" style="fill:#3c7081"/>
   </g>
   <g>
    <path class="Nose-Pig0fil26 Nose-Pig0str3" d="M13032 14239c113,0 205,188 205,418 0,231 -92,418 -205,418 -114,0 -206,-187 -206,-418 0,-230 93,-418 206,-418z" style="fill:#461d6a"/>
    <path class="Nose-Pig0fil237 Nose-Pig0str3" d="M13032 14239c113,0 205,188 205,418 0,231 -92,418 -205,418 -114,0 -206,-187 -206,-418 0,-230 93,-418 206,-418z" style="fill:#e7a3e5"/>
   </g>
  </g>
 </g><g id="Hair-Pig6">
 <animateTransform additive="sum" attributeName="transform" dur="10" repeatCount="indefinite" type="translate" values="0;0 200;0;0 200;0;0 200;0;0 200;0"/>
  <metadata id="CorelCorpID_154Corel-Layer"/>
  <path class="Hair-Pig6fil254" d="M17022 7893c153,-53 276,-144 299,-230 0,0 -180,-83 -587,-273 172,-186 306,-282 306,-282 -102,-113 -342,-145 -711,-161 209,-256 227,-911 187,-1043 -411,640 -789,485 -1315,433 6,-91 529,-482 652,-494 -155,-195 -567,-196 -1057,-78 -70,17 -213,129 -284,152 319,-236 306,-431 412,-801 -459,359 -1113,262 -1835,799 113,-270 163,-491 375,-560 -442,-294 -1406,565 -1796,984 237,-422 337,-670 337,-670 -425,-22 -927,757 -1127,1138 -15,-284 -217,-464 -287,-500 88,1631 -570,1526 14,2278 531,-298 802,-355 1348,-264 779,129 1041,535 1384,596 -58,-131 -71,-378 35,-319 103,57 275,471 335,610 93,-108 263,-540 408,-609 108,-51 18,335 -18,450 283,-26 468,-391 965,-581 502,-192 1173,-139 1657,90 2,-81 -21,-217 72,-390 45,-82 117,-175 231,-275z" style="fill:#0bf0b2"/>
  <path class="Hair-Pig6fil30" d="M16719 8554c-50,-359 131,-610 376,-780 39,-27 75,-52 103,-74l-487 -227c-36,-17 -54,-68 -41,-113 5,-17 13,-31 24,-41 81,-88 154,-156 209,-204 -36,-15 -79,-27 -129,-37 -115,-23 -265,-35 -447,-43 -38,-1 -68,-42 -67,-90 0,-24 8,-46 21,-61 74,-91 125,-252 157,-419 25,-131 39,-262 44,-367 -323,444 -729,394 -1128,345 -48,-6 -96,-12 -159,-18 -38,-4 -66,-46 -63,-95 1,-24 10,-44 23,-59 47,-76 164,-179 291,-269 80,-56 165,-110 240,-152 -137,-51 -314,-73 -493,-66 -213,9 -424,60 -567,155 -21,18 -43,35 -66,52 -31,25 -72,16 -94,-23 -22,-39 -15,-94 16,-123 22,-20 47,-40 73,-58 109,-92 192,-201 244,-316 38,-85 58,-174 60,-263 -221,196 -480,269 -767,351 -297,85 -626,178 -968,432 -33,25 -76,10 -95,-32 -10,-23 -12,-50 -5,-74 30,-124 81,-233 145,-328 35,-52 74,-100 114,-144 -633,-57 -1088,453 -1427,835 -46,51 -89,100 -144,158 -29,31 -72,26 -97,-11 -20,-32 -21,-76 -3,-108 127,-225 214,-400 267,-512 -118,37 -241,130 -359,250 -247,249 -469,609 -585,831 -21,41 -64,51 -96,24 -18,-16 -29,-41 -30,-67l0 0c-6,-104 -38,-195 -79,-267 -21,-37 -44,-68 -65,-92 4,183 -1,346 -16,502l0 1c-20,199 -57,384 -118,583l0 0 -5 17c-216,630 71,948 79,1028 -101,-68 -379,-476 -207,-1095l5 -14 0 0c57,-185 91,-358 110,-542 18,-184 19,-382 9,-618 -4,-55 32,-103 76,-96 66,10 168,92 243,222 26,46 50,98 68,156 130,-223 319,-503 525,-712 182,-184 380,-313 570,-305 51,-1 86,69 62,128 0,1 -21,52 -65,148 363,-377 833,-742 1472,-590 63,11 83,119 28,163 -79,63 -161,143 -228,242 -7,12 -15,23 -22,35 287,-171 560,-249 811,-320 312,-89 589,-168 804,-410 38,-42 99,-20 112,44 40,182 16,367 -60,537 -14,33 -30,65 -49,96 102,-26 211,-41 319,-46 281,-11 564,48 722,176 59,43 39,158 -29,164 -54,6 -219,103 -368,208 -56,40 -110,79 -152,111l5 1c407,50 822,101 1113,-450 31,-59 102,-51 122,17 27,89 25,391 -29,673 -25,128 -60,254 -108,358 129,8 239,20 331,38 129,27 224,68 286,133 40,38 37,116 -6,148 -1,0 -84,60 -203,176 334,155 472,219 472,219 0,1 53,67 42,111 -26,99 -132,151 -241,227 -431,300 -405,461 -426,636z" style="fill:#ea2ca0"/>
  <path class="Hair-Pig6fil10" d="M13749 9147c357,-929 -2078,-1771 -1230,-2948 -901,141 -1047,1541 -756,2092 60,9 123,19 190,30 108,17 205,40 295,67 -227,-320 -476,-515 -252,-1383 14,530 113,785 315,1043 298,381 724,712 727,740 172,108 299,129 299,129 -58,-131 -71,-378 35,-319 103,57 275,471 335,610 12,-15 27,-36 42,-61zm-2334 -860c-164,-74 -357,-214 -473,-410 -306,-513 -286,-1448 -319,-1460 0,0 -7,652 -81,871l0 0c-69,373 -175,565 -176,762 9,71 22,144 45,219 37,92 94,187 194,316 326,-189 560,-270 810,-298z" style="fill:#64d6f9"/>
  <path class="Hair-Pig6fil255" d="M14948 8517c200,-501 119,-839 -93,-1193 -212,-354 -112,-1199 68,-1316 182,-118 -1078,335 -707,1463 -340,-118 -719,-468 -543,-1104 -704,215 -369,1076 27,1356 196,138 456,506 465,920 4,32 1,77 -6,126 -5,45 -13,91 -25,137 -13,58 -27,111 -37,143 260,-24 437,-334 849,-531l2 -1z" style="fill:#987042"/>
  <path class="Hair-Pig6fil255" d="M15308 8396c0,0 380,-294 404,-740 23,-447 -133,-460 -45,-622 88,-161 419,-385 419,-385 0,0 -165,299 -107,486 59,187 407,444 312,649 -95,205 -368,416 -556,567 -159,0 -304,19 -427,45l0 0z" style="fill:#b4622a"/>
 </g></svg>