<svg xmlns="http://www.w3.org/2000/svg" xmlns:xlink="http://www.w3.org/1999/xlink" style="shape-rendering:geometricPrecision; text-rendering:geometricPrecision; image-rendering:optimizeQuality; fill-rule:evenodd; clip-rule:evenodd" version="1.1" viewBox="0 0 29000 29000" xml:space="preserve"><defs><style type="text/css">.HairBack-Pig0fil0 {fill:none}
.Tail-Pig4fil10 {fill:black;fill-opacity:0.200000}
.Tail-Pig4fil33 {fill:url(#Tail-Pig4id131)}
.Tail-Pig4fil30 {fill:black;fill-rule:nonzero}
.Tail-Pig4fil26 {fill:black;fill-opacity:0.301961}
.Tail-Pig4fil32 {fill:url(#Tail-Pig4id167)}
.Tail-Pig4str0 {stroke:black;stroke-width:150;stroke-linecap:round;stroke-linejoin:round}
.Tail-Pig4fil34 {fill:url(#Tail-Pig4id149)}
.Tail-Pig4str1 {stroke:black;stroke-width:150}
.RightFoot-Pig0fil37 {fill:#d9c9ad}
.RightFoot-Pig0fil38 {fill:#ad8373}
.RightFoot-Pig0fil39 {fill:url(#RightFoot-Pig0id227)}
.RightFoot-Pig0fil40 {fill:black}
.RightFoot-Pig0fil10 {fill:black;fill-opacity:0.200000}
.RightFoot-Pig0fil0 {fill:none}
.RightFoot-Pig0str2 {stroke:black;stroke-width:150;stroke-linecap:round;stroke-linejoin:round}
.RightLeg-Pig0fil52 {fill:url(#RightLeg-Pig0id37)}
.RightLeg-Pig0fil10 {fill:black;fill-opacity:0.200000}
.RightLeg-Pig0fil0 {fill:none}
.RightLeg-Pig0str2 {stroke:black;stroke-width:150;stroke-linecap:round;stroke-linejoin:round}
.LeftFoot-Pig0fil37 {fill:#d9c9ad}
.LeftFoot-Pig0fil38 {fill:#ad8373}
.LeftFoot-Pig0fil57 {fill:url(#LeftFoot-Pig0id220)}
.LeftFoot-Pig0fil40 {fill:black}
.LeftFoot-Pig0fil10 {fill:black;fill-opacity:0.200000}
.LeftFoot-Pig0fil0 {fill:none}
.LeftFoot-Pig0str2 {stroke:black;stroke-width:150;stroke-linecap:round;stroke-linejoin:round}
.LeftLeg-Pig0fil62 {fill:url(#LeftLeg-Pig0id49)}
.LeftLeg-Pig0fil10 {fill:black;fill-opacity:0.200000}
.LeftLeg-Pig0fil0 {fill:none}
.LeftLeg-Pig0str2 {stroke:black;stroke-width:150;stroke-linecap:round;stroke-linejoin:round}
.RightHand-Pig0fil68 {fill:url(#RightHand-Pig0id57)}
.RightHand-Pig0fil10 {fill:black;fill-opacity:0.200000}
.RightHand-Pig0fil0 {fill:none}
.RightHand-Pig0str0 {stroke:black;stroke-width:150;stroke-linecap:round;stroke-linejoin:round}
.RightPaw-Pig10fil74 {fill:url(#RightPaw-Pig10id25)}
.RightPaw-Pig10fil51 {fill:black;fill-opacity:0.400000}
.RightPaw-Pig10fil10 {fill:black;fill-opacity:0.200000}
.RightPaw-Pig10fil77 {fill:url(#RightPaw-Pig10id216)}
.RightPaw-Pig10fil40 {fill:black}
.RightPaw-Pig10fil0 {fill:none}
.RightPaw-Pig10str2 {stroke:black;stroke-width:150;stroke-linecap:round;stroke-linejoin:round}
.LeftHand-Pig0fil79 {fill:url(#LeftHand-Pig0id22)}
.LeftHand-Pig0fil10 {fill:black;fill-opacity:0.200000}
.LeftHand-Pig0fil0 {fill:none}
.LeftHand-Pig0str0 {stroke:black;stroke-width:150;stroke-linecap:round;stroke-linejoin:round}
.Body-Pig1fil83 {fill:url(#Body-Pig1id42)}
.Body-Pig1fil10 {fill:black;fill-opacity:0.200000}
.Body-Pig1fil84 {fill:black;fill-rule:nonzero}
.Body-Pig1fil85 {fill:url(#Body-Pig1id44)}
.LeftPaw-Pig10fil91 {fill:url(#LeftPaw-Pig10id70)}
.LeftPaw-Pig10fil51 {fill:black;fill-opacity:0.400000}
.LeftPaw-Pig10fil10 {fill:black;fill-opacity:0.200000}
.LeftPaw-Pig10fil94 {fill:url(#LeftPaw-Pig10id212)}
.LeftPaw-Pig10fil40 {fill:black}
.LeftPaw-Pig10fil0 {fill:none}
.LeftPaw-Pig10str2 {stroke:black;stroke-width:150;stroke-linecap:round;stroke-linejoin:round}
.Ears-Pig2fil108 {fill:url(#Ears-Pig2id114)}
.Ears-Pig2fil109 {fill:url(#Ears-Pig2id123)}
.Ears-Pig2fil110 {fill:url(#Ears-Pig2id92)}
.Ears-Pig2fil10 {fill:black;fill-opacity:0.200000}
.Ears-Pig2fil111 {fill:url(#Ears-Pig2id67)}
.Ears-Pig2fil112 {fill:url(#Ears-Pig2id122)}
.Ears-Pig2fil113 {fill:url(#Ears-Pig2id95)}
.Ears-Pig2fil0 {fill:none}
.Ears-Pig2str0 {stroke:black;stroke-width:150;stroke-linecap:round;stroke-linejoin:round}
.Head-Pig1fil160 {fill:url(#Head-Pig1id50)}
.Head-Pig1fil161 {fill:url(#Head-Pig1id159)}
.Head-Pig1fil10 {fill:black;fill-opacity:0.200000}
.Head-Pig1fil84 {fill:black;fill-rule:nonzero}
.Mouth-Pig8fil26 {fill:black;fill-opacity:0.301961}
.Mouth-Pig8fil172 {fill:black;fill-rule:nonzero;fill-opacity:0.200000}
.Mouth-Pig8fil169 {fill:black}
.Mouth-Pig8fil10 {fill:black;fill-opacity:0.200000}
.Mouth-Pig8fil0 {fill:none}
.Mouth-Pig8str0 {stroke:black;stroke-width:150;stroke-linecap:round;stroke-linejoin:round}
.Mouth-Pig8fil173 {fill:white}
.EyesClosed-Pig7fil38 {fill:#ad8373}
.EyesClosed-Pig7fil10 {fill:black;fill-opacity:0.200000}
.EyesClosed-Pig7fil84 {fill:black;fill-rule:nonzero}
.Eyes-Pig7fil197 {fill:url(#Eyes-Pig7id164)}
.Eyes-Pig7fil215 {fill:url(#Eyes-Pig7id207)}
.Eyes-Pig7fil216 {fill:url(#Eyes-Pig7id109)}
.Eyes-Pig7fil148 {fill:black;fill-opacity:0.501961}
.Eyes-Pig7fil173 {fill:white}
.Eyes-Pig7fil200 {fill:url(#Eyes-Pig7id179)}
.Eyes-Pig7fil217 {fill:url(#Eyes-Pig7id208)}
.Eyes-Pig7fil218 {fill:url(#Eyes-Pig7id113)}
.Eyes-Pig7fil0 {fill:none}
.Eyes-Pig7str0 {stroke:black;stroke-width:150;stroke-linecap:round;stroke-linejoin:round}
.Moustache-Pig3fil234 {fill:url(#Moustache-Pig3id41)}
.Moustache-Pig3fil84 {fill:black;fill-rule:nonzero}
.Moustache-Pig3fil10 {fill:black;fill-opacity:0.200000}
.Nose-Pig6fil244 {fill:url(#Nose-Pig6id181)}
.Nose-Pig6str0 {stroke:black;stroke-width:150;stroke-linecap:round;stroke-linejoin:round}
.Nose-Pig6fil26 {fill:black;fill-opacity:0.301961}
.Nose-Pig6str3 {stroke:black;stroke-width:150;stroke-linecap:round;stroke-linejoin:round;stroke-opacity:0.301961}
.Nose-Pig6fil237 {fill:none}
.Hair-Pig2fil10 {fill:black;fill-opacity:0.200000}
.Hair-Pig2fil246 {fill:#f2bc6b;fill-opacity:0.701961}
.Hair-Pig2fil247 {fill:url(#Hair-Pig2id39)}
.Hair-Pig2str0 {stroke:black;stroke-width:150;stroke-linecap:round;stroke-linejoin:round}
</style><linearGradient gradientUnits="userSpaceOnUse" id="Tail-Pig4id131" x1="16818.1" x2="18132.1" xlink:href="#Tail-Pig4id94" y1="24163.1" y2="22966.9">
  </linearGradient><linearGradient gradientUnits="userSpaceOnUse" id="Tail-Pig4id167" x1="19588.7" x2="18835.7" xlink:href="#Tail-Pig4id5" y1="20715.4" y2="23880.9">
  </linearGradient><linearGradient gradientUnits="userSpaceOnUse" id="Tail-Pig4id149" x1="13985.9" x2="17433.3" xlink:href="#Tail-Pig4id94" y1="23274.1" y2="22920.4">
  </linearGradient><linearGradient gradientUnits="objectBoundingBox" id="RightFoot-Pig0id227" x1="49.9997%" x2="49.9997%" xlink:href="#RightFoot-Pig0id0" y1="100%" y2="0%">
  </linearGradient><linearGradient gradientUnits="objectBoundingBox" id="RightLeg-Pig0id37" x1="50%" x2="50%" xlink:href="#RightLeg-Pig0id2" y1="100%" y2="0%">
  </linearGradient><linearGradient gradientUnits="objectBoundingBox" id="LeftFoot-Pig0id220" x1="50.0003%" x2="50.0003%" xlink:href="#LeftFoot-Pig0id0" y1="100%" y2="0%">
  </linearGradient><linearGradient gradientUnits="objectBoundingBox" id="LeftLeg-Pig0id49" x1="50%" x2="50%" xlink:href="#LeftLeg-Pig0id2" y1="100%" y2="0%">
  </linearGradient><linearGradient gradientUnits="objectBoundingBox" id="RightHand-Pig0id57" x1="30.1244%" x2="69.8756%" xlink:href="#RightHand-Pig0id22" y1="2.32158%" y2="97.6784%">
  </linearGradient><linearGradient gradientUnits="objectBoundingBox" id="RightPaw-Pig10id25" x1="81.8832%" x2="18.1168%" y1="89.1977%" y2="10.8018%">
   <stop offset="0" style="stop-opacity:1; stop-color:#99835c"/>
   <stop offset="0.619608" style="stop-opacity:1; stop-color:#bfa67c"/>
   <stop offset="1" style="stop-opacity:1; stop-color:#bfa67c"/>
  </linearGradient><linearGradient gradientUnits="objectBoundingBox" id="RightPaw-Pig10id216" x1="28.208%" x2="71.792%" xlink:href="#RightPaw-Pig10id5" y1="1.78354%" y2="98.2165%">
  </linearGradient><linearGradient gradientUnits="objectBoundingBox" id="LeftHand-Pig0id22" x1="69.8756%" x2="30.1244%" y1="2.32158%" y2="97.6784%">
   <stop offset="0" style="stop-opacity:1; stop-color:#99835c"/>
   <stop offset="0.0196078" style="stop-opacity:1; stop-color:#99835c"/>
   <stop offset="0.921569" style="stop-opacity:1; stop-color:#bfa67c"/>
   <stop offset="1" style="stop-opacity:1; stop-color:#bfa67c"/>
  </linearGradient><linearGradient gradientUnits="objectBoundingBox" id="Body-Pig1id42" x1="50%" x2="50%" y1="0.000186021%" y2="100%">
   <stop offset="0" style="stop-opacity:1; stop-color:#99835c"/>
   <stop offset="0.0313725" style="stop-opacity:1; stop-color:#99835c"/>
   <stop offset="0.529412" style="stop-opacity:1; stop-color:#bfa67c"/>
   <stop offset="1" style="stop-opacity:1; stop-color:#d9c9ad"/>
  </linearGradient><linearGradient gradientUnits="userSpaceOnUse" id="Body-Pig1id44" x1="13681.9" x2="13681.9" xlink:href="#Body-Pig1id30" y1="22736.8" y2="18207.8">
  </linearGradient><linearGradient gradientUnits="objectBoundingBox" id="LeftPaw-Pig10id70" x1="18.1168%" x2="81.8832%" xlink:href="#LeftPaw-Pig10id25" y1="89.1977%" y2="10.8018%">
  </linearGradient><linearGradient gradientUnits="objectBoundingBox" id="LeftPaw-Pig10id212" x1="71.792%" x2="28.208%" xlink:href="#LeftPaw-Pig10id5" y1="1.78354%" y2="98.2165%">
  </linearGradient><linearGradient gradientUnits="userSpaceOnUse" id="Ears-Pig2id114" x1="19192.5" x2="19192.5" xlink:href="#Ears-Pig2id3" y1="11012.5" y2="7244.74">
  </linearGradient><linearGradient gradientUnits="userSpaceOnUse" id="Ears-Pig2id123" x1="20554.8" x2="18048.7" xlink:href="#Ears-Pig2id18" y1="9000.37" y2="10332.9">
  </linearGradient><linearGradient gradientUnits="userSpaceOnUse" id="Ears-Pig2id92" x1="19869.6" x2="17990.1" y1="9072.74" y2="9780.99">
   <stop offset="0" style="stop-opacity:1; stop-color:#DEACAB"/>
   <stop offset="1" style="stop-opacity:1; stop-color:#B2777C"/>
  </linearGradient><linearGradient gradientUnits="userSpaceOnUse" id="Ears-Pig2id67" x1="8171.42" x2="8171.42" xlink:href="#Ears-Pig2id3" y1="11212.4" y2="7444.75">
  </linearGradient><linearGradient gradientUnits="userSpaceOnUse" id="Ears-Pig2id122" x1="6791.85" x2="9332.35" xlink:href="#Ears-Pig2id18" y1="9219.42" y2="10513.9">
  </linearGradient><linearGradient gradientUnits="userSpaceOnUse" id="Ears-Pig2id95" x1="7482.7" x2="9385.38" xlink:href="#Ears-Pig2id92" y1="9283.32" y2="9970.4">
  </linearGradient><linearGradient gradientUnits="objectBoundingBox" id="Head-Pig1id50" x1="50%" x2="50%" xlink:href="#Head-Pig1id3" y1="99.9999%" y2="0%">
  </linearGradient><linearGradient gradientUnits="userSpaceOnUse" id="Head-Pig1id159" x1="10433.5" x2="10113" xlink:href="#Head-Pig1id0" y1="14832.1" y2="10239.8">
  </linearGradient><linearGradient gradientUnits="objectBoundingBox" id="Eyes-Pig7id164" x1="38.8114%" x2="61.1889%" xlink:href="#Eyes-Pig7id148" y1="96.6455%" y2="3.35484%">
  </linearGradient><radialGradient cx="16987.8" cy="13055.3" fx="16987.8" fy="13055.3" gradientTransform="matrix(-1.02041 -0 -0 0.932491 34322 881)" gradientUnits="userSpaceOnUse" id="Eyes-Pig7id207" r="1595.63" xlink:href="#Eyes-Pig7id205">
  </radialGradient><linearGradient gradientUnits="userSpaceOnUse" id="Eyes-Pig7id109" x1="17002.3" x2="16419.5" xlink:href="#Eyes-Pig7id45" y1="10915.2" y2="13382.1">
  </linearGradient><linearGradient gradientUnits="objectBoundingBox" id="Eyes-Pig7id179" x1="61.4146%" x2="38.5851%" xlink:href="#Eyes-Pig7id148" y1="96.4338%" y2="3.56653%">
  </linearGradient><radialGradient cx="10441.2" cy="13055.3" fx="10441.2" fy="13055.3" gradientTransform="matrix(1.02041 -0 -0 0.932491 -213 881)" gradientUnits="userSpaceOnUse" id="Eyes-Pig7id208" r="1595.63" xlink:href="#Eyes-Pig7id205">
  </radialGradient><linearGradient gradientUnits="userSpaceOnUse" id="Eyes-Pig7id113" x1="10361.6" x2="10944.4" xlink:href="#Eyes-Pig7id45" y1="10915.2" y2="13382.1">
  </linearGradient><linearGradient gradientUnits="userSpaceOnUse" id="Moustache-Pig3id41" x1="13681.9" x2="13681.9" y1="18279.7" y2="16359.7">
   <stop offset="0" style="stop-opacity:1; stop-color:#d9a04a"/>
   <stop offset="0.6" style="stop-opacity:1; stop-color:#d9a04a"/>
   <stop offset="1" style="stop-opacity:1; stop-color:#f2bc6b"/>
  </linearGradient><linearGradient gradientUnits="userSpaceOnUse" id="Nose-Pig6id181" x1="13681.9" x2="13681.9" xlink:href="#Nose-Pig6id151" y1="13079.6" y2="15426.2">
  </linearGradient><linearGradient gradientUnits="userSpaceOnUse" id="Hair-Pig2id39" x1="7934.84" x2="18257.5" xlink:href="#Hair-Pig2id7" y1="9158.05" y2="9158.05">
  </linearGradient><linearGradient gradientUnits="userSpaceOnUse" id="Tail-Pig4id94" x1="13432.5" x2="17737.9" y1="23392.7" y2="23392.7">
   <stop offset="0" style="stop-opacity:1; stop-color:#99835c"/>
   <stop offset="1" style="stop-opacity:1; stop-color:#d9c9ad"/>
  </linearGradient><linearGradient gradientUnits="userSpaceOnUse" id="Tail-Pig4id5" x1="18537.4" x2="18537.4" y1="11625" y2="5118.17">
   <stop offset="0" style="stop-opacity:1; stop-color:#ad8373"/>
   <stop offset="1" style="stop-opacity:1; stop-color:#bfa67c"/>
  </linearGradient><linearGradient gradientUnits="userSpaceOnUse" id="RightFoot-Pig0id0" x1="16257.8" x2="16257.8" y1="21560.3" y2="23683.4">
   <stop offset="0" style="stop-opacity:1; stop-color:#ad8373"/>
   <stop offset="1" style="stop-opacity:1; stop-color:#d4afa1"/>
  </linearGradient><linearGradient gradientUnits="userSpaceOnUse" id="RightLeg-Pig0id2" x1="11782.6" x2="11782.6" y1="24212.9" y2="21311.8">
   <stop offset="0" style="stop-opacity:1; stop-color:#d9c9ad"/>
   <stop offset="0.388235" style="stop-opacity:1; stop-color:#d9c9ad"/>
   <stop offset="1" style="stop-opacity:1; stop-color:#bfa67c"/>
  </linearGradient><linearGradient gradientUnits="userSpaceOnUse" id="LeftFoot-Pig0id0" x1="16257.8" x2="16257.8" y1="21560.3" y2="23683.4">
   <stop offset="0" style="stop-opacity:1; stop-color:#ad8373"/>
   <stop offset="1" style="stop-opacity:1; stop-color:#d4afa1"/>
  </linearGradient><linearGradient gradientUnits="userSpaceOnUse" id="LeftLeg-Pig0id2" x1="11782.6" x2="11782.6" y1="24212.9" y2="21311.8">
   <stop offset="0" style="stop-opacity:1; stop-color:#d9c9ad"/>
   <stop offset="0.388235" style="stop-opacity:1; stop-color:#d9c9ad"/>
   <stop offset="1" style="stop-opacity:1; stop-color:#bfa67c"/>
  </linearGradient><linearGradient gradientUnits="objectBoundingBox" id="RightHand-Pig0id22" x1="69.8756%" x2="30.1244%" y1="2.32158%" y2="97.6784%">
   <stop offset="0" style="stop-opacity:1; stop-color:#99835c"/>
   <stop offset="0.0196078" style="stop-opacity:1; stop-color:#99835c"/>
   <stop offset="0.921569" style="stop-opacity:1; stop-color:#bfa67c"/>
   <stop offset="1" style="stop-opacity:1; stop-color:#bfa67c"/>
  </linearGradient><linearGradient gradientUnits="userSpaceOnUse" id="RightPaw-Pig10id5" x1="18537.4" x2="18537.4" y1="11625" y2="5118.17">
   <stop offset="0" style="stop-opacity:1; stop-color:#ad8373"/>
   <stop offset="1" style="stop-opacity:1; stop-color:#bfa67c"/>
  </linearGradient><linearGradient gradientUnits="userSpaceOnUse" id="Body-Pig1id30" x1="13681.9" x2="13681.9" y1="9565.57" y2="17278">
   <stop offset="0" style="stop-opacity:1; stop-color:#ddc1b2"/>
   <stop offset="0.658824" style="stop-opacity:1; stop-color:#ddc1b2"/>
   <stop offset="1" style="stop-opacity:1; stop-color:#d1b09f"/>
  </linearGradient><linearGradient gradientUnits="objectBoundingBox" id="LeftPaw-Pig10id25" x1="81.8832%" x2="18.1168%" y1="89.1977%" y2="10.8018%">
   <stop offset="0" style="stop-opacity:1; stop-color:#99835c"/>
   <stop offset="0.619608" style="stop-opacity:1; stop-color:#bfa67c"/>
   <stop offset="1" style="stop-opacity:1; stop-color:#bfa67c"/>
  </linearGradient><linearGradient gradientUnits="userSpaceOnUse" id="LeftPaw-Pig10id5" x1="18537.4" x2="18537.4" y1="11625" y2="5118.17">
   <stop offset="0" style="stop-opacity:1; stop-color:#ad8373"/>
   <stop offset="1" style="stop-opacity:1; stop-color:#bfa67c"/>
  </linearGradient><linearGradient gradientUnits="userSpaceOnUse" id="Ears-Pig2id3" x1="18922.8" x2="18922.8" y1="11187.2" y2="5413.87">
   <stop offset="0" style="stop-opacity:1; stop-color:#99835c"/>
   <stop offset="0.388235" style="stop-opacity:1; stop-color:#bfa67c"/>
   <stop offset="1" style="stop-opacity:1; stop-color:#d9c9ad"/>
  </linearGradient><linearGradient gradientUnits="userSpaceOnUse" id="Ears-Pig2id18" x1="21517.2" x2="17496.7" y1="8655.92" y2="7801.34">
   <stop offset="0" style="stop-opacity:1; stop-color:#F5E2E2"/>
   <stop offset="1" style="stop-opacity:1; stop-color:#C49D9D"/>
  </linearGradient><linearGradient gradientUnits="userSpaceOnUse" id="Head-Pig1id3" x1="18922.8" x2="18922.8" y1="11187.2" y2="5413.87">
   <stop offset="0" style="stop-opacity:1; stop-color:#99835c"/>
   <stop offset="0.388235" style="stop-opacity:1; stop-color:#bfa67c"/>
   <stop offset="1" style="stop-opacity:1; stop-color:#d9c9ad"/>
  </linearGradient><linearGradient gradientUnits="userSpaceOnUse" id="Head-Pig1id0" x1="16257.8" x2="16257.8" y1="21560.3" y2="23683.4">
   <stop offset="0" style="stop-opacity:1; stop-color:#ad8373"/>
   <stop offset="1" style="stop-opacity:1; stop-color:#d4afa1"/>
  </linearGradient><linearGradient gradientUnits="userSpaceOnUse" id="Eyes-Pig7id148" x1="16641" x2="17334.4" y1="14255.9" y2="11076.2">
   <stop offset="0" style="stop-opacity:1; stop-color:#806000"/>
   <stop offset="1" style="stop-opacity:1; stop-color:black"/>
  </linearGradient><radialGradient cx="10603.5" cy="12833.7" fx="10603.5" fy="12833.7" gradientTransform="matrix(-0.879932 -0 -0 0.999997 19934 0)" gradientUnits="userSpaceOnUse" id="Eyes-Pig7id205" r="1364.99">
   <stop offset="0" style="stop-opacity:1; stop-color:#ffc419"/>
   <stop offset="1" style="stop-opacity:1; stop-color:#806000"/>
  </radialGradient><linearGradient gradientUnits="userSpaceOnUse" id="Eyes-Pig7id45" x1="16680.3" x2="16680.3" y1="11243.5" y2="13543.4">
   <stop offset="0" style="stop-opacity:1; stop-color:black"/>
   <stop offset="0.4" style="stop-opacity:1; stop-color:black"/>
   <stop offset="1" style="stop-opacity:1; stop-color:#664c00"/>
  </linearGradient><linearGradient gradientUnits="userSpaceOnUse" id="Nose-Pig6id151" x1="13681.9" x2="13681.9" y1="13554.2" y2="15469.2">
   <stop offset="0" style="stop-opacity:1; stop-color:#FFCCCC"/>
   <stop offset="1" style="stop-opacity:1; stop-color:#DB9092"/>
  </linearGradient><linearGradient gradientUnits="userSpaceOnUse" id="Hair-Pig2id7" x1="17165.3" x2="17165.3" y1="19960.9" y2="12270.8">
   <stop offset="0" style="stop-opacity:1; stop-color:#d9a04a"/>
   <stop offset="1" style="stop-opacity:1; stop-color:#f2bc6b"/>
  </linearGradient></defs><g id="HairBack-Pig0">
 <animateTransform additive="sum" attributeName="transform" dur="10" repeatCount="indefinite" type="translate" values="0;0 200;0;0 200;0;0 200;0;0 200;0"/>
  <metadata id="CorelCorpID_0Corel-Layer"/>
  <rect class="HairBack-Pig0fil0" height="890" width="890" x="13237" y="6590"/>
  <rect class="HairBack-Pig0fil0" height="890" width="890" x="13237" y="6590"/>
 </g><g id="Tail-Pig4">
  <metadata id="CorelCorpID_7Corel-Layer"/>
  <path class="Tail-Pig4fil32 Tail-Pig4str0" d="M18327 23822c-507,-169 -732,-913 -375,-1407 74,-102 173,-187 275,-273 40,-34 81,467 121,432 6,-639 303,-807 355,-1161 28,-384 -43,-549 -91,-632 -48,-83 434,90 461,663 -12,-309 120,-947 1573,-763 -840,167 -999,789 -1025,1614 117,-238 413,-483 609,-410 -243,179 -318,617 -323,920 -3,189 -230,595 -615,728 191,16 336,-45 573,-161 -272,542 -853,723 -1538,450z" style="fill:#2ea914"/>
  <path class="Tail-Pig4fil10" d="M20155 21954c-116,-72 -245,213 -364,477 -74,165 -84,360 -151,482 -274,495 -649,438 -1033,956 0,0 -272,-130 -424,-194 260,-395 -74,-620 17,-966 0,0 86,68 225,235 70,85 138,3 175,-130 125,-450 -138,-660 250,-1358 72,-130 -309,366 -309,366l-193 752 -119 -433c0,0 -375,273 -371,437 4,165 -169,574 57,897 225,322 655,448 834,461 178,12 781,-97 929,-294 148,-197 138,-182 138,-182 0,0 -388,19 -456,46 -68,27 209,-61 427,-381 219,-320 118,-506 154,-661 36,-155 130,-390 214,-510z" style="fill:#b8ad91"/>
  <path class="Tail-Pig4fil33" d="M18822 22851c166,27 42,1340 -1082,1510 -269,40 -540,2 -785,-120 -477,-237 -893,-535 -887,-1078 5,-420 525,-627 608,-74 54,357 247,496 534,638 138,69 292,90 444,67 156,-15 391,-60 535,-186 373,-310 471,-783 633,-757z" style="fill:#40fd67"/>
  <path class="Tail-Pig4fil30" d="M18499 24074c-182,175 -427,312 -748,361 -143,21 -287,22 -428,0 -138,-21 -273,-63 -402,-127 -216,-107 -420,-228 -583,-379l235 0c124,91 266,171 415,245 114,57 234,95 357,113 126,19 255,19 383,0 288,-44 525,-156 687,-311 214,-206 381,-450 432,-670 -21,316 -201,626 -348,768zm-1407 -496c46,28 97,55 152,82 61,31 125,51 192,61 68,10 138,10 207,-1l4 0c85,-8 194,-26 297,-62 341,-119 473,-284 612,-507 -117,319 -218,528 -562,649 -115,40 -235,59 -328,68l0 1c-85,12 -170,13 -252,0 -82,-12 -162,-37 -237,-75 -29,-14 -58,-29 -85,-43l0 -173z" style="fill:#a83ed2"/>
  <path class="Tail-Pig4fil34 Tail-Pig4str1" d="M13590 22980c-74,-146 -60,-518 114,-580 173,-62 626,30 700,176 2,3 367,1151 1782,1081 176,-9 745,6 968,-383 187,-327 61,-627 -118,-753 -194,-137 -451,-83 -443,15 -97,-166 -385,-358 -265,-522 6,16 403,-347 904,-94 720,362 748,1036 493,1582 -233,500 -764,786 -1396,846 -2017,192 -2737,-1364 -2739,-1368z" style="fill:#f8a1d2"/>
  <path class="Tail-Pig4fil10" d="M17707 23822c0,0 112,152 19,294 -93,142 596,-33 666,-89 69,-56 -276,415 -1054,335 -779,-80 -299,-199 -299,-199l506 -360 162 19z" style="fill:#675921"/>
  <path class="Tail-Pig4fil26" d="M17270 23437c0,0 -158,311 -59,337 99,27 374,-139 423,-235 50,-95 137,356 -677,660 -814,303 -523,-15 -523,-15 0,0 340,-59 836,-747z" style="fill:#41ea98"/>
  <path class="Tail-Pig4fil26" d="M13814 23259c0,0 183,264 356,449 173,185 719,440 898,480 178,39 479,-245 446,-427 -32,-182 -703,-330 -803,-503 -101,-172 -328,-397 -361,-403 -33,-7 -776,84 -536,404z" style="fill:#9f6945"/>
  <path class="Tail-Pig4fil10" d="M19850 21266c0,0 -519,437 -589,814 -70,376 -168,643 -226,718 176,-126 295,-319 345,-481 49,-162 218,-452 218,-452 0,0 194,-488 252,-599z" style="fill:#97eddb"/>
 </g><g id="RightFoot-Pig0">
  <metadata id="CorelCorpID_10Corel-Layer"/>
  <path class="RightFoot-Pig0fil37" d="M16559 24190c54,65 143,233 174,292 62,268 -152,365 -298,365 -143,0 -686,-98 -894,289 -330,-192 -541,-572 -540,-565 -22,-43 -41,-85 -54,-126 -58,-176 -10,-247 31,-317 480,-107 1078,-83 1581,62z" style="fill:#c53573"/>
  <path class="RightFoot-Pig0fil38" d="M15011 24496c-3,101 -14,73 -14,176 -5,821 346,600 430,523 12,-11 59,-71 57,-73 -109,-146 -274,-300 -473,-626z" style="fill:#fadf59"/>
  <path class="RightFoot-Pig0fil0 RightFoot-Pig0str2" d="M14995 24537c1,45 2,90 2,135 -5,821 346,600 430,523 4,-4 19,-23 37,-48" style="fill:#2a78ec"/>
  <path class="RightFoot-Pig0fil39" d="M16756 24466c0,0 -225,-105 -294,-5 -54,78 49,353 -47,353 -106,0 -310,-245 -509,-215 -288,43 -418,429 -384,506 35,82 343,409 763,435 419,26 490,-14 487,-39 -3,-24 42,-150 42,-150 0,0 458,-59 491,-95 100,-109 -467,-691 -549,-790z" style="fill:#bb5ce1"/>
  <polygon class="RightFoot-Pig0fil40" points="16740,25393 16571,24994 16934,25330 "/>
  <path class="RightFoot-Pig0fil0 RightFoot-Pig0str2" d="M16567 24189c147,241 633,739 718,969 84,231 -492,167 -492,167 0,0 5,189 -122,220 -281,70 -831,-103 -1075,-309 -49,-41 -99,-87 -150,-135" style="fill:#116a05"/>
  <path class="RightFoot-Pig0fil0 RightFoot-Pig0str2" d="M16567 24189c45,73 121,170 208,277m-1262 697c-341,-311 -707,-789 -548,-1037" style="fill:#6b0eb5"/>
  <path class="RightFoot-Pig0fil10" d="M15252 24171c-250,336 427,769 691,965 282,210 555,378 651,406 -45,23 -445,-31 -727,-123 -179,-96 -710,-617 -803,-752 -94,-163 -147,-331 -119,-480 10,-21 22,-40 33,-59 85,-7 193,-3 274,43z" style="fill:#2a413a"/>
 </g><g id="LeftFoot-Pig0">
  <metadata id="CorelCorpID_27Corel-Layer"/>
  <path class="LeftFoot-Pig0fil37" d="M10805 24190c-54,65 -143,233 -174,292 -62,268 152,365 298,365 143,0 685,-98 894,289 330,-192 541,-572 540,-565 22,-43 40,-85 54,-126 58,-176 10,-247 -31,-317 -480,-107 -1078,-83 -1581,62z" style="fill:#d12814"/>
  <path class="LeftFoot-Pig0fil38" d="M12353 24496c3,101 14,73 14,176 5,821 -346,600 -430,523 -12,-11 -59,-71 -57,-73 109,-146 274,-300 473,-626z" style="fill:#cdc00c"/>
  <path class="LeftFoot-Pig0fil0 LeftFoot-Pig0str2" d="M12369 24537c-1,45 -2,90 -2,135 5,821 -346,600 -430,523 -4,-4 -19,-23 -37,-48" style="fill:#492295"/>
  <path class="LeftFoot-Pig0fil57" d="M10608 24466c0,0 225,-105 294,-5 54,78 -49,353 47,353 106,0 309,-245 509,-215 288,43 418,429 384,506 -35,82 -343,409 -763,435 -419,26 -490,-14 -487,-39 3,-24 -42,-150 -42,-150 0,0 -458,-59 -491,-95 -101,-109 467,-691 549,-790z" style="fill:#caf110"/>
  <polygon class="LeftFoot-Pig0fil40" points="10624,25393 10793,24994 10430,25330 "/>
  <path class="LeftFoot-Pig0fil0 LeftFoot-Pig0str2" d="M10797 24189c-147,241 -633,739 -718,969 -85,231 492,167 492,167 0,0 -5,189 122,220 281,70 831,-103 1075,-309 49,-41 99,-87 150,-135" style="fill:#665016"/>
  <path class="LeftFoot-Pig0fil0 LeftFoot-Pig0str2" d="M10797 24189c-45,73 -121,170 -208,277m1262 697c341,-311 707,-789 548,-1037" style="fill:#26efae"/>
  <path class="LeftFoot-Pig0fil10" d="M12112 24171c250,336 -428,769 -691,965 -282,210 -555,378 -651,406 45,23 444,-31 727,-123 179,-96 710,-617 803,-752 94,-163 147,-331 119,-480 -10,-21 -22,-40 -33,-59 -85,-7 -193,-3 -274,43z" style="fill:#902700"/>
 </g><g id="RightLeg-Pig0">
  <metadata id="CorelCorpID_22Corel-Layer"/>
  <path class="RightLeg-Pig0fil52" d="M16570 21416c0,0 1181,1189 570,2176 -128,221 -511,470 -581,598 -599,44 -1104,27 -1581,-62 45,-78 82,-155 -44,-376 -113,-198 -400,-446 -1252,-493 0,-147 0,-280 0,-522 373,-788 1598,-1745 2888,-1321z" style="fill:#14905f"/>
  <path class="RightLeg-Pig0fil10" d="M17192 23421c67,-141 106,-290 107,-439 2,-734 -540,-1374 -869,-1659l-157 688c26,45 52,90 79,136 387,-391 947,832 840,1274z" style="fill:#bf1d16"/>
  <path class="RightLeg-Pig0fil0 RightLeg-Pig0str2" d="M16570 21416c303,324 585,778 689,1246 115,521 25,950 -408,1282 -95,72 -194,144 -284,245m-1602 -63c284,-396 -518,-875 -1283,-867" style="fill:#01c3ca"/>
  <path class="RightLeg-Pig0fil10" d="M13760 23246c341,-28 1532,124 1607,584 27,166 -52,256 -115,341 -93,-12 -184,-26 -274,-43 40,-70 74,-140 -11,-313 -8,-22 -19,-42 -33,-62l0 -1c-104,-182 -357,-408 -1066,-479 -35,-9 -71,-18 -108,-27z" style="fill:#7e926f"/>
 </g><g id="LeftLeg-Pig0">
  <metadata id="CorelCorpID_39Corel-Layer"/>
  <path class="LeftLeg-Pig0fil62" d="M10794 21416c0,0 -1181,1189 -570,2176 128,221 511,470 581,598 599,44 1104,27 1581,-62 -45,-78 -82,-155 44,-376 113,-198 400,-446 1252,-493 0,-147 0,-280 0,-522 -373,-788 -1598,-1745 -2888,-1321z" style="fill:#5dfb4b"/>
  <path class="LeftLeg-Pig0fil10" d="M10172 23421c-67,-141 -106,-290 -107,-439 -2,-734 540,-1374 869,-1659l157 688c-26,45 -53,90 -79,136 -388,-391 -947,832 -840,1274z" style="fill:#ace24b"/>
  <path class="LeftLeg-Pig0fil0 LeftLeg-Pig0str2" d="M10794 21416c-303,324 -586,778 -689,1246 -115,521 -25,950 408,1282 95,72 193,144 284,245m1602 -63c-284,-396 517,-875 1283,-867" style="fill:#52370f"/>
  <path class="LeftLeg-Pig0fil10" d="M13604 23246c-341,-28 -1532,124 -1607,584 -27,166 52,256 115,341 93,-12 184,-26 274,-43 -40,-70 -74,-140 11,-313 8,-22 19,-42 33,-62l0 -1c104,-182 357,-408 1066,-479 35,-9 71,-18 108,-27z" style="fill:#3ed809"/>
 </g><g id="RightHand-Pig0">
 <animateTransform additive="sum" attributeName="transform" dur="10" repeatCount="indefinite" type="translate" values="0;0 200;0;0 200;0;0 200;0;0 200;0"/>
  <metadata id="CorelCorpID_44Corel-Layer"/>
  <path class="RightHand-Pig0fil68" d="M16231 17709c1005,345 1816,1398 2255,2162 -88,184 -847,720 -1129,836 -543,-402 -1045,-430 -1469,-362 -742,120 -1353,-1920 -931,-2545 422,-21 934,-40 1274,-91z" style="fill:#286800"/>
  <path class="RightHand-Pig0fil10" d="M17342 20696c-537,-391 -1034,-418 -1454,-351 -171,28 -335,-59 -481,-217 -325,-472 753,-1098 1039,-656 258,399 723,837 1098,1116 3,2 22,18 34,27l-219 113c-8,-18 -14,-30 -17,-32z" style="fill:#4e3b01"/>
  <path class="RightHand-Pig0fil0 RightHand-Pig0str0" d="M16477 20333c179,24 366,81 561,178 100,50 205,104 305,189m1121 -817c-161,-280 -388,-607 -632,-916 -422,-534 -963,-1039 -1601,-1258 -90,-31 -172,-59 -246,-84" style="fill:#ad374c"/>
 </g><g id="LeftHand-Pig0">
 <animateTransform additive="sum" attributeName="transform" dur="10" repeatCount="indefinite" type="translate" values="0;0 200;0;0 200;0;0 200;0;0 200;0"/>
  <metadata id="CorelCorpID_61Corel-Layer"/>
  <path class="LeftHand-Pig0fil79" d="M11133 17709c-1005,345 -1817,1398 -2255,2162 88,184 847,720 1128,836 544,-402 1046,-430 1470,-362 742,120 1352,-1920 931,-2545 -422,-21 -934,-40 -1274,-91z" style="fill:#1859c6"/>
  <path class="LeftHand-Pig0fil10" d="M10022 20696c537,-391 1034,-418 1454,-351 171,28 335,-59 481,-217 325,-472 -753,-1098 -1039,-656 -258,399 -723,837 -1098,1116 -3,2 -22,18 -34,27l219 113c8,-18 14,-30 17,-32z" style="fill:#9b2717"/>
  <path class="LeftHand-Pig0fil0 LeftHand-Pig0str0" d="M10887 20333c-179,24 -366,81 -561,178 -100,50 -205,104 -305,189m-1121 -817c161,-280 388,-607 632,-916 422,-534 963,-1039 1601,-1258 90,-31 171,-59 246,-84" style="fill:#1b2a07"/>
 </g><g id="Body-Pig1">
 <animateTransform additive="sum" attributeName="transform" dur="10" repeatCount="indefinite" type="translate" values="0;0 200;0;0 200;0;0 200;0;0 200;0"/>
  <metadata id="CorelCorpID_67Corel-Layer"/>
  <path class="Body-Pig1fil83" d="M13682 23135c-1548,0 -2752,-291 -2993,-1956 -147,-1014 391,-2287 991,-3420 634,80 1289,123 2002,142 713,-19 1367,-62 2002,-142 600,1133 1137,2406 991,3420 -242,1665 -1445,1956 -2993,1956z" style="fill:#0bb5ae"/>
  <path class="Body-Pig1fil10" d="M12621 23067c-1016,-156 -1749,-629 -1932,-1888 -75,-519 29,-1106 229,-1707 -223,2001 402,3257 1703,3595z" style="fill:#544f8f"/>
  <path class="Body-Pig1fil84" d="M11012 22144c-250,-321 -348,-641 -397,-954 -59,-377 -24,-998 184,-1320 -78,421 -93,905 -36,1298 50,341 104,572 249,976z" style="fill:#526360"/>
  <path class="Body-Pig1fil10" d="M14743 23067c1016,-156 1749,-629 1932,-1888 75,-519 -29,-1106 -229,-1707 223,2001 -402,3257 -1703,3595z" style="fill:#b8ef4a"/>
  <path class="Body-Pig1fil84" d="M16352 22144c250,-321 347,-641 397,-954 59,-377 24,-998 -184,-1320 78,421 93,905 36,1298 -50,341 -104,572 -249,976z" style="fill:#68a38b"/>
  <path class="Body-Pig1fil85" d="M13682 18283c-887,0 -1587,-322 -1922,364 -851,1742 -881,4090 1922,4090 2803,0 2773,-2348 1922,-4090 -336,-686 -1035,-364 -1922,-364z" style="fill:#ddd5ee"/>
 </g><g id="RightPaw-Pig10">
 <animateTransform additive="sum" attributeName="transform" dur="10" repeatCount="indefinite" type="translate" values="0;0 200;0;0 200;0;0 200;0;0 200;0"/>
  <metadata id="CorelCorpID_59Corel-Layer"/>
  <path class="RightPaw-Pig10fil74" d="M18486 19871c155,269 247,281 434,498 211,244 446,948 341,1067 -34,39 -389,8 -389,8 -15,58 -145,373 -188,392 -161,73 -598,-324 -814,-554 -63,111 -195,178 -216,147 -79,-27 -146,-195 -211,-374 -34,-92 -45,-318 -86,-348 139,-387 621,-775 1129,-836z" style="fill:#0c5a27"/>
  <path class="RightPaw-Pig10fil51" d="M18063 19685c64,96 204,233 173,396 -121,-193 -339,-214 -585,-235 238,177 108,282 254,484 -200,-157 -432,-58 -531,-118 16,106 146,295 254,363 -96,58 -223,-45 -463,-38 162,64 47,59 219,189 25,86 -26,97 59,329 65,179 132,347 211,374 21,31 153,-36 216,-147 216,230 653,627 814,554 43,-19 173,-334 188,-392 0,0 355,31 389,-8 105,-119 -130,-823 -341,-1067 -248,-288 -190,-203 -432,-495 -83,-100 -255,-190 -425,-189z" style="fill:#f479a4"/>
  <path class="RightPaw-Pig10fil10" d="M17452 20518c31,24 62,48 92,70 4,3 39,31 43,34 13,14 26,28 39,43 79,93 97,228 104,283 2,13 3,21 4,24 -2,92 -166,169 -227,208 0,-8 -67,-223 -116,-364 0,-31 3,-54 -7,-90 -9,-6 -18,-13 -27,-19 23,-64 55,-127 95,-189z" style="fill:#21e12b"/>
  <path class="RightPaw-Pig10fil77" d="M18910 20358c-402,-76 -337,407 -242,635 -239,-309 -538,-414 -692,-297 -104,79 -113,131 -203,226 -99,104 -339,-108 -394,-184 -18,147 139,645 275,691 21,31 153,-36 216,-147 216,230 653,627 814,554 43,-19 173,-334 188,-392 0,0 355,31 389,-8 109,-123 -135,-862 -351,-1078z" style="fill:#103a08"/>
  <path class="RightPaw-Pig10fil10" d="M18804 21498c-67,307 -352,47 -875,-255 4,66 -100,45 -131,-12 -41,-92 -52,-190 -68,-283 -88,22 -225,-79 -303,-156 -5,-5 -11,-11 -16,-16 49,174 144,541 243,653 90,2 173,-73 216,-147 195,208 586,566 808,522 90,-18 70,-138 126,-306z" style="fill:#731b39"/>
  <polygon class="RightPaw-Pig10fil40" points="18796,21484 18678,21021 18973,21393 "/>
  <path class="RightPaw-Pig10fil0 RightPaw-Pig10str2" d="M17136 20561c121,75 170,94 271,202 1,149 38,330 93,461 54,128 115,197 196,208 55,8 128,-6 194,-123 208,221 642,571 796,501 41,-19 164,-344 179,-400 0,0 356,75 389,38 86,-99 -94,-785 -280,-992 -109,-122 -404,-420 -409,-427 -68,-85 -123,-182 -179,-276" style="fill:#fe2472"/>
 </g><g id="LeftPaw-Pig10">
 <animateTransform additive="sum" attributeName="transform" dur="10" repeatCount="indefinite" type="translate" values="0;0 200;0;0 200;0;0 200;0;0 200;0"/>
  <metadata id="CorelCorpID_81Corel-Layer"/>
  <path class="LeftPaw-Pig10fil91" d="M8878 19871c-155,269 -247,281 -434,498 -211,244 -446,948 -341,1067 34,39 388,8 388,8 16,58 146,373 189,392 161,73 598,-324 814,-554 63,111 195,178 216,147 79,-27 146,-195 211,-374 34,-92 45,-318 85,-348 -138,-387 -621,-775 -1128,-836z" style="fill:#870950"/>
  <path class="LeftPaw-Pig10fil51" d="M9301 19685c-64,96 -204,233 -173,396 121,-193 339,-214 585,-235 -238,177 -108,282 -254,484 200,-157 432,-58 531,-118 -16,106 -146,295 -254,363 96,58 222,-45 463,-38 -162,64 -47,59 -219,189 -25,86 26,97 -59,329 -65,179 -132,347 -211,374 -21,31 -153,-36 -216,-147 -216,230 -653,627 -814,554 -43,-19 -173,-334 -189,-392 0,0 -354,31 -388,-8 -105,-119 130,-823 341,-1067 248,-288 190,-203 432,-495 83,-100 255,-190 425,-189z" style="fill:#527400"/>
  <path class="LeftPaw-Pig10fil10" d="M9912 20518c-31,24 -62,48 -92,70 -4,3 -39,31 -43,34 -14,14 -27,28 -39,43 -79,93 -97,228 -104,283 -2,13 -3,21 -4,24 2,92 166,169 226,208 0,-8 68,-223 117,-364 -1,-31 -3,-54 7,-90 9,-6 18,-13 26,-19 -22,-64 -54,-127 -94,-189z" style="fill:#c59d86"/>
  <path class="LeftPaw-Pig10fil94" d="M8454 20358c401,-76 337,407 242,635 239,-309 538,-414 692,-297 104,79 113,131 203,226 99,104 339,-108 394,-184 18,147 -140,645 -275,691 -21,31 -153,-36 -216,-147 -216,230 -653,627 -814,554 -43,-19 -173,-334 -189,-392 0,0 -354,31 -388,-8 -109,-123 135,-862 351,-1078z" style="fill:#d115c4"/>
  <path class="LeftPaw-Pig10fil10" d="M8560 21498c67,307 352,47 875,-255 -5,66 100,45 131,-12 40,-92 52,-190 68,-283 88,22 225,-79 303,-156 5,-5 11,-11 16,-16 -49,174 -144,541 -243,653 -90,2 -173,-73 -216,-147 -196,208 -586,566 -808,522 -90,-18 -70,-138 -126,-306z" style="fill:#6c5fc0"/>
  <polygon class="LeftPaw-Pig10fil40" points="8568,21484 8686,21021 8391,21393 "/>
  <path class="LeftPaw-Pig10fil0 LeftPaw-Pig10str2" d="M10228 20561c-121,75 -170,94 -272,202 0,149 -37,330 -92,461 -55,128 -115,197 -196,208 -55,8 -128,-6 -194,-123 -208,221 -642,571 -797,501 -41,-19 -163,-344 -178,-400 0,0 -356,75 -389,38 -86,-99 94,-785 280,-992 109,-122 404,-420 409,-427 68,-85 123,-182 179,-276" style="fill:#f802ad"/>
 </g><g id="Ears-Pig2">
 <animateTransform additive="sum" attributeName="transform" dur="10" repeatCount="indefinite" type="translate" values="0;0 200;0;0 200;0;0 200;0;0 200;0"/>
  <metadata id="CorelCorpID_85Corel-Layer"/>
  <g id="_2993583577328">
   <path class="Ears-Pig2fil108" d="M16703 9205c0,0 210,-730 525,-1260 315,-529 700,-839 1680,-639 980,201 1120,566 1540,566 420,0 980,-127 1173,-36 192,91 140,676 -455,1004 -595,329 -875,420 -963,767 -87,347 -140,1735 -1662,1333 -1523,-402 -2030,-1059 -1838,-1735z" style="fill:#54cf95"/>
   <path class="Ears-Pig2fil109" d="M17841 9863c0,0 945,-165 647,-968 -376,-1017 859,-440 1413,-455 425,-11 826,-115 846,-22 11,51 42,134 -33,216 -167,183 -569,374 -528,571 188,921 -585,2179 -1577,1752 -283,-122 -554,-546 -768,-1094z" style="fill:#9dca8b"/>
   <path class="Ears-Pig2fil110" d="M19091 8310c496,518 452,1354 -241,1584 416,113 798,-45 1055,-601 -2,1267 -1031,1418 -1587,1122 -192,-102 -206,-387 -363,-583 323,-155 644,-458 589,-698 -56,-240 -160,-757 -160,-757l707 -67z" style="fill:#85390b"/>
   <path class="Ears-Pig2fil0 Ears-Pig2str0" d="M17841 9863c0,0 945,-165 647,-968 -233,-631 2,-613 472,-576 201,16 673,147 941,121 581,-56 856,-87 878,20 14,66 -30,145 -139,258 -125,129 -390,219 -441,358 -25,68 17,360 -14,616" style="fill:#095654"/>
   <path class="Ears-Pig2fil0 Ears-Pig2str0" d="M16703 9205c0,0 210,-730 525,-1260 315,-529 700,-839 1680,-639 980,201 1120,566 1540,566 420,0 980,-127 1173,-36 192,91 140,676 -455,1004 -595,329 -875,420 -963,767 -87,347 -140,1735 -1662,1333 -1523,-402 -2030,-1059 -1838,-1735z" style="fill:#0234a8"/>
   <path class="Ears-Pig2fil10" d="M18429 7971c0,0 -575,58 -536,365 39,307 310,583 118,1000 -192,416 -531,222 -531,222 -329,-345 -522,-299 -592,-530 -58,-189 -22,-559 286,-967 365,-485 870,-265 1255,-90z" style="fill:#7a8115"/>
   <path class="Ears-Pig2fil10" d="M19754 8433c0,0 816,-140 1038,-219 425,-152 1159,-135 716,351 -48,53 -818,520 -944,606 -126,87 -305,262 -333,349 -28,87 -57,-412 -25,-459 31,-47 412,-308 472,-384 59,-75 383,-298 -924,-244z" style="fill:#f75a36"/>
   <path class="Ears-Pig2fil10" d="M20691 8662c41,-149 -533,74 -987,114 -325,28 -642,-61 -742,23 -117,97 246,392 22,868 -253,535 -1014,286 -968,233l-148 -43c0,0 546,-190 611,-397 64,-207 105,-279 32,-497 -73,-218 -284,-738 211,-670 496,67 768,105 900,122 132,18 866,-61 982,-35 116,26 238,67 87,282z" style="fill:#38fa35"/>
   <path class="Ears-Pig2fil10" d="M20168 9889c0,0 -218,825 -605,1002 -388,177 -1319,18 -1393,-19 -74,-37 121,-312 121,-312 932,310 1342,183 1877,-671z" style="fill:#8099be"/>
  </g>
  <g id="_2991525374560">
   <path class="Ears-Pig2fil111" d="M10660 9405c0,0 -210,-730 -525,-1260 -315,-529 -699,-839 -1679,-639 -980,201 -1120,566 -1540,566 -420,0 -980,-127 -1173,-36 -192,91 -140,676 455,1004 595,329 875,420 963,767 87,347 140,1735 1662,1333 1522,-402 2030,-1059 1837,-1735z" style="fill:#1bee2b"/>
   <path class="Ears-Pig2fil112" d="M9523 10063c0,0 -945,-165 -647,-968 376,-1017 -859,-440 -1413,-455 -425,-11 -827,-115 -846,-22 -11,51 -42,134 33,216 167,183 568,374 528,571 -188,921 585,2179 1577,1752 283,-122 554,-546 768,-1094z" style="fill:#f834f2"/>
   <path class="Ears-Pig2fil113" d="M8273 8510c-497,518 -453,1354 241,1584 -416,113 -798,-45 -1055,-601 2,1267 1031,1418 1587,1122 192,-102 206,-387 363,-583 -323,-155 -644,-458 -589,-698 56,-240 160,-757 160,-757l-707 -67z" style="fill:#5a2965"/>
   <path class="Ears-Pig2fil0 Ears-Pig2str0" d="M9523 10063c0,0 -945,-165 -647,-968 233,-631 -2,-613 -472,-576 -201,16 -673,147 -941,121 -581,-56 -856,-87 -879,20 -13,66 31,145 140,258 125,129 390,219 441,358 25,68 -17,360 14,616" style="fill:#a5c11c"/>
   <path class="Ears-Pig2fil0 Ears-Pig2str0" d="M10660 9405c0,0 -210,-730 -525,-1260 -315,-529 -699,-839 -1679,-639 -980,201 -1120,566 -1540,566 -420,0 -980,-127 -1173,-36 -192,91 -140,676 455,1004 595,329 875,420 963,767 87,347 140,1735 1662,1333 1522,-402 2030,-1059 1837,-1735z" style="fill:#8389ca"/>
   <path class="Ears-Pig2fil10" d="M8935 8171c0,0 575,58 536,365 -40,307 -310,583 -118,1000 192,416 531,222 531,222 329,-345 522,-299 592,-530 57,-189 22,-559 -286,-967 -365,-485 -870,-265 -1255,-90z" style="fill:#583ce5"/>
   <path class="Ears-Pig2fil10" d="M7610 8633c0,0 -816,-140 -1038,-219 -425,-152 -1159,-135 -717,351 49,53 819,520 945,606 125,87 304,262 333,349 28,87 57,-412 25,-459 -31,-47 -412,-308 -472,-384 -59,-75 -383,-298 924,-244z" style="fill:#f530db"/>
   <path class="Ears-Pig2fil10" d="M6673 8862c-41,-149 533,74 987,114 325,28 642,-61 742,23 117,97 -246,392 -22,868 253,535 1014,286 968,233l148 -43c0,0 -547,-190 -611,-397 -64,-207 -105,-279 -32,-497 73,-218 284,-738 -211,-670 -496,67 -768,105 -900,122 -132,18 -867,-61 -982,-35 -116,26 -238,67 -87,282z" style="fill:#384aac"/>
   <path class="Ears-Pig2fil10" d="M7196 10089c0,0 218,825 605,1002 388,177 1319,18 1393,-19 74,-37 -122,-312 -122,-312 -931,310 -1341,183 -1876,-671z" style="fill:#14fdd9"/>
  </g>
 </g><g id="Head-Pig1">
 <animateTransform additive="sum" attributeName="transform" dur="10" repeatCount="indefinite" type="translate" values="0;0 200;0;0 200;0;0 200;0;0 200;0"/>
  <metadata id="CorelCorpID_96Corel-Layer"/>
  <path class="Head-Pig1fil160" d="M10090 8967c-564,472 -965,1039 -1323,1636 -28,46 -55,102 -82,149 -105,179 -200,391 -302,573 -611,1185 -1006,1397 -934,2868 118,2421 2509,3357 4628,3643 571,77 1124,101 1605,101 481,0 1034,-24 1605,-101 2119,-286 4510,-1222 4628,-3643 72,-1471 -323,-1683 -934,-2868 -102,-182 -198,-394 -302,-573 -28,-47 -54,-103 -82,-149 -358,-597 -759,-1164 -1324,-1636 -1249,-1046 -2354,-1447 -3590,-1474l-1 0 -1 0c-1236,27 -2341,428 -3591,1474z" style="fill:#41b56e"/>
  <path class="Head-Pig1fil161" d="M11011 10284c-943,-245 -1264,313 -2147,1484 -218,289 -451,622 -550,930 -149,463 -194,939 9,1354 485,957 1684,924 2653,546 659,-257 1269,-724 1365,-1531 130,-1092 -406,-2543 -1330,-2783z" style="fill:#8b9030"/>
  <path class="Head-Pig1fil10" d="M8595 11042c-473,768 -891,1422 -1070,2009 -158,520 -73,1353 39,1856 421,1891 2663,2792 5075,2988 -2326,-552 -4001,-1593 -4496,-3087 -323,-975 -154,-2267 452,-3766z" style="fill:#154cfb"/>
  <path class="Head-Pig1fil84" d="M9861 9172c974,-1177 2398,-1757 3821,-1747 1423,-10 2847,570 3821,1747 -1223,-1081 -2522,-1612 -3821,-1603 -1299,-9 -2598,522 -3821,1603z" style="fill:#bf5403"/>
  <path class="Head-Pig1fil84" d="M8768 10601c-179,508 -382,903 -718,1463 -406,679 -582,1421 -536,2131 131,1999 1755,2951 3508,3372 210,51 827,205 1390,308 -522,-14 -1257,-122 -1418,-161 -1810,-434 -3533,-1443 -3636,-3515 -36,-724 131,-1489 564,-2211 314,-524 479,-741 846,-1387z" style="fill:#989f77"/>
  <path class="Head-Pig1fil84" d="M18596 10601c179,508 382,903 717,1463 407,679 583,1421 537,2131 -131,1999 -1755,2951 -3508,3372 -210,51 -828,205 -1390,308 522,-14 1257,-122 1418,-161 1810,-434 3533,-1443 3636,-3515 36,-724 -131,-1489 -564,-2211 -314,-524 -479,-741 -846,-1387z" style="fill:#7bb3c8"/>
 </g><g id="Mouth-Pig8">
 <animateTransform additive="sum" attributeName="transform" dur="10" repeatCount="indefinite" type="translate" values="0;0 200;0;0 200;0;0 200;0;0 200;0"/>
  <metadata id="CorelCorpID_111Corel-Layer"/>
  <g id="_2991504389776">
   <path class="Mouth-Pig8fil26" d="M13682 14770c-424,3 -779,756 -1190,753 421,32 506,120 1190,123 684,-3 769,-91 1189,-123 -410,3 -765,-750 -1189,-753z" style="fill:#f7a700"/>
   <path class="Mouth-Pig8fil172" d="M12698 16324c387,-49 597,-173 984,-173 387,0 597,124 984,173 -370,-152 -602,-340 -984,-340 -382,0 -614,188 -984,340z" style="fill:#9651e0"/>
   <path class="Mouth-Pig8fil0 Mouth-Pig8str0" d="M16484 15778c-132,-434 -334,-469 -580,-358 -93,42 -148,160 -271,205 -299,109 -504,123 -653,81 -175,-50 -297,-133 -546,-209 -237,-72 -507,-101 -752,-112" style="fill:#b66a8f"/>
   <path class="Mouth-Pig8fil0 Mouth-Pig8str0" d="M10880 15778c132,-434 334,-469 580,-358 92,42 148,160 271,205 298,109 503,123 653,81 175,-50 296,-133 546,-209 236,-72 507,-101 752,-112" style="fill:#9fb0cb"/>
   <path class="Mouth-Pig8fil169" d="M16353 15752c11,-37 23,-82 -17,-150 -21,-35 -30,-295 115,-91 63,89 178,290 67,358 -80,49 -201,4 -165,-117z" style="fill:#fc3c88"/>
   <path class="Mouth-Pig8fil169" d="M14510 15478l412 172c0,0 -47,-161 40,-241 88,-79 165,-152 165,-152l-516 -15 -262 152 161 84z" style="fill:#7759ee"/>
   <path class="Mouth-Pig8fil169" d="M11011 15752c-11,-37 -23,-82 17,-150 21,-35 30,-295 -115,-91 -64,89 -179,290 -67,358 80,49 201,4 165,-117z" style="fill:#372fd9"/>
   <path class="Mouth-Pig8fil169" d="M12854 15478l-412 172c0,0 47,-161 -40,-241 -88,-79 -165,-152 -165,-152l516 -15 262 152 -161 84z" style="fill:#c23f25"/>
   <path class="Mouth-Pig8fil173 Mouth-Pig8str0" d="M11484 14521c-31,82 -16,155 28,231 114,197 517,350 703,470 186,119 292,322 199,437 -94,116 -590,3 -657,-22 -215,-83 -671,-623 -659,-904 6,-130 93,-285 360,-460 227,-148 50,185 26,248z" style="fill:#b70f13"/>
   <path class="Mouth-Pig8fil173 Mouth-Pig8str0" d="M15880 14521c31,82 16,155 -28,231 -114,197 -517,350 -703,470 -186,119 -292,322 -199,437 53,66 225,74 385,51 123,-19 243,-62 272,-73 215,-83 671,-623 658,-904 -5,-130 -92,-285 -359,-460 -227,-148 -50,185 -26,248z" style="fill:#a2ab4a"/>
   <path class="Mouth-Pig8fil10" d="M15359 15156c0,0 -185,173 -64,292 121,118 459,43 646,-169 188,-212 -231,320 -320,350 -89,30 -586,153 -699,21 -113,-132 3,-245 3,-245 0,0 278,-252 434,-249z" style="fill:#05d461"/>
   <path class="Mouth-Pig8fil10" d="M12005 15156c0,0 185,173 64,292 -122,118 -459,43 -646,-169 -188,-212 231,320 320,350 89,30 586,153 699,21 113,-132 -3,-245 -3,-245 0,0 -278,-252 -434,-249z" style="fill:#75ab33"/>
  </g>
 </g><g id="EyesClosed-Pig7">
 <animateTransform additive="sum" attributeName="transform" dur="10" repeatCount="indefinite" type="translate" values="0;0 200;0;0 200;0;0 200;0;0 200;0"/>
  <metadata id="CorelCorpID_130Corel-Layer"/>
  <g id="_2991498753584">
   <path class="EyesClosed-Pig7fil38" d="M17589 10636c-127,21 -195,-160 -675,-295 -440,-123 -713,-35 -805,-187 -103,-168 162,-739 409,-789 753,-152 1450,1208 1071,1271z"/>
   <path class="EyesClosed-Pig7fil10" d="M17589 10636c-127,21 -195,-160 -675,-295 -440,-123 -713,-35 -805,-187 -103,-168 162,-739 409,-789 753,-152 1450,1208 1071,1271z"/>
  </g>
  <g id="_2991498752400">
   <path class="EyesClosed-Pig7fil38" d="M9775 10636c127,21 195,-160 675,-295 440,-123 713,-35 805,-187 103,-168 -162,-739 -409,-789 -753,-152 -1450,1208 -1071,1271z"/>
   <path class="EyesClosed-Pig7fil10" d="M9775 10636c127,21 195,-160 675,-295 440,-123 713,-35 805,-187 103,-168 -162,-739 -409,-789 -753,-152 -1450,1208 -1071,1271z"/>
  </g>
  <path class="EyesClosed-Pig7fil84" d="M15403 13609c78,-67 271,-33 531,7 1042,158 2199,-120 2683,-1209 -144,1319 -1613,1816 -2809,1381 -115,-42 -214,-94 -328,-77 -45,7 -179,-15 -77,-102z"/>
  <path class="EyesClosed-Pig7fil84" d="M11961 13609c-78,-67 -271,-33 -531,7 -1043,158 -2199,-120 -2684,-1209 145,1319 1614,1816 2810,1381 115,-42 214,-94 328,-77 45,7 179,-15 77,-102z"/>
 </g><g id="Eyes-Pig7">
 <animate attributeName="opacity" dur="10" repeatCount="indefinite" values="0;1;1;1;1;1;1;1;1;1;1;1;1;1;1;1;1;1;1;1;1;1;1;1;1;1;1;1;1;1;1;1;1;1;1;1;1;1;1;1;1;1;1;1;1;1;1;1;1;1;1;1;1;1;1;1;1;1;1;1;1;1;1;1;1;1;1;1;1;1;1;1;1;1;1;1;1;1;1;1;1;1;1;1;0;0"/>
 <animateTransform additive="sum" attributeName="transform" dur="10" repeatCount="indefinite" type="translate" values="0;0 200;0;0 200;0;0 200;0;0 200;0"/>
  <metadata id="CorelCorpID_131Corel-Layer"/>
  <g id="_2993573736752">
   <path class="Eyes-Pig7fil197" d="M17019 14281c-583,1 -1009,-212 -1377,-432 -425,-253 -407,-991 -263,-1587 140,-582 450,-1463 1499,-1431 229,8 449,109 627,232 316,218 886,669 1036,1303 208,886 -261,1913 -1522,1915z"/>
   <path class="Eyes-Pig7fil215" d="M15327 13128c4,-77 11,-156 22,-236l1336 -535 -1346 947c-5,-42 -10,-131 -12,-176zm1374 -790l-1306 205c-15,-1385 1038,-259 1312,-223 19,2 23,66 34,56l1205 -1047 141 193 49 55 -1396 817c-44,5 -43,-29 -39,-56zm1657 -457c55,94 175,278 206,372l-1795 137 1589 -509zm223 717c7,100 -4,270 -18,364l-1802 -557 1820 193zm-156 747c-48,115 -108,221 -176,315l-1510 -1249 1686 934zm-516 599c-25,19 -95,56 -120,72 -63,41 -160,96 -225,127l-840 -1726 1185 1527zm-749 312c-113,25 -273,45 -386,49l-69 -1899 455 1850zm-748 -4c-105,-14 -253,-135 -348,-160l626 -1694 -278 1854zm-649 -307c-22,-10 -70,-27 -90,-37 -84,-42 -152,-106 -205,-186l1216 -1345 -921 1568z"/>
   <path class="Eyes-Pig7fil216" d="M16986 10909c-640,-149 -1282,285 -1434,970 -152,684 244,1360 884,1509 640,149 1282,-285 1434,-969 151,-685 -244,-1361 -884,-1510z"/>
   <path class="Eyes-Pig7fil148" d="M15366 13439c-197,-879 180,-2421 1115,-2556 630,-92 1138,102 1545,597 332,404 591,1186 632,1632 -368,-1020 -1369,-1693 -2048,-1627 -863,84 -1229,938 -1244,1954z"/>
   <g>
    <circle class="Eyes-Pig7fil173" r="235" transform="matrix(0.805222 -2.39867 1.88046 0.461536 16282.1 11856.2)"/>
    <circle class="Eyes-Pig7fil173" r="235" transform="matrix(0.511451 -0.0476309 0.0595148 0.521886 17490.7 12785.1)"/>
    <circle class="Eyes-Pig7fil173" r="235" transform="matrix(0.554042 -1.05186 0.853042 0.366906 17645.7 13279.8)"/>
    <path class="Eyes-Pig7fil173" d="M18289 12815c120,779 -748,1349 -1178,1226 441,-98 1005,-604 1178,-1226z"/>
   </g>
   <path class="Eyes-Pig7fil0 Eyes-Pig7str0" d="M15339 13289c0,0 -1,409 303,560 120,60 333,164 559,270 1032,482 2349,-147 2411,-1292 50,-904 -1310,-2574 -2501,-1772 -750,505 -824,1385 -772,2234z"/>
  </g>
  <g id="_2991550381328">
   <path class="Eyes-Pig7fil200" d="M10345 14281c583,1 1009,-212 1377,-432 424,-253 407,-991 263,-1587 -140,-582 -450,-1463 -1500,-1431 -228,8 -448,109 -627,232 -316,218 -885,669 -1035,1303 -208,886 261,1913 1522,1915z"/>
   <path class="Eyes-Pig7fil217" d="M12037 13128c-4,-77 -11,-156 -22,-236l-1337 -535 1347 947c5,-42 9,-131 12,-176zm-1374 -790l1306 205c15,-1385 -1038,-259 -1312,-223 -19,2 -23,66 -34,56l-1206 -1047 -140 193 -50 55 1397 817c43,5 42,-29 39,-56zm-1657 -457c-55,94 -175,278 -206,372l1794 137 -1588 -509zm-224 717c-6,100 5,270 19,364l1801 -557 -1820 193zm157 747c48,115 108,221 176,315l1510 -1249 -1686 934zm516 599c25,19 95,56 120,72 63,41 160,96 225,127l840 -1726 -1185 1527zm748 312c114,25 274,45 387,49l69 -1899 -456 1850zm749 -4c105,-14 252,-135 348,-160l-626 -1694 278 1854zm649 -307c22,-10 69,-27 90,-37 84,-42 152,-106 204,-186l-1215 -1345 921 1568z"/>
   <path class="Eyes-Pig7fil218" d="M10378 10909c640,-149 1282,285 1434,970 151,684 -244,1360 -884,1509 -640,149 -1282,-285 -1434,-969 -151,-685 244,-1361 884,-1510z"/>
   <path class="Eyes-Pig7fil148" d="M11998 13439c196,-879 -180,-2421 -1115,-2556 -630,-92 -1138,102 -1545,597 -333,404 -592,1186 -632,1632 368,-1020 1368,-1693 2048,-1627 863,84 1229,938 1244,1954z"/>
   <g>
    <circle class="Eyes-Pig7fil173" r="235" transform="matrix(0.805222 -2.39867 1.88046 0.461536 9959.72 11856.2)"/>
    <circle class="Eyes-Pig7fil173" r="235" transform="matrix(0.511451 -0.0476309 0.0595148 0.521886 11168.3 12785.1)"/>
    <circle class="Eyes-Pig7fil173" r="235" transform="matrix(0.554042 -1.05186 0.853042 0.366906 11323.2 13279.8)"/>
    <path class="Eyes-Pig7fil173" d="M9075 12815c-120,779 747,1349 1178,1226 -441,-98 -1005,-604 -1178,-1226z"/>
   </g>
   <path class="Eyes-Pig7fil0 Eyes-Pig7str0" d="M12025 13289c0,0 1,409 -303,560 -120,60 -333,164 -560,270 -1031,482 -2348,-147 -2411,-1292 -49,-904 1311,-2574 2502,-1772 750,505 824,1385 772,2234z"/>
  </g>
 </g><g id="Moustache-Pig3">
 <animateTransform additive="sum" attributeName="transform" dur="10" repeatCount="indefinite" type="translate" values="0;0 200;0;0 200;0;0 200;0;0 200;0"/>
  <metadata id="CorelCorpID_139Corel-Layer"/>
  <path class="Moustache-Pig3fil234" d="M10904 16360c18,1 82,389 307,458 92,29 54,-287 160,-188 51,48 159,299 235,358 60,46 84,-101 155,-52 444,308 1055,622 1284,416 233,-209 -273,-240 56,-316 17,-4 119,84 169,76 56,-9 70,-173 129,-148 183,77 245,-10 283,-10 38,0 100,87 283,10 59,-25 73,139 129,148 50,8 152,-80 169,-76 329,76 -177,107 55,316 229,206 841,-108 1285,-416 71,-49 95,98 155,52 76,-59 184,-310 234,-358 107,-99 69,217 161,188 225,-69 289,-457 306,-458 428,508 -378,1121 -737,1290 -307,145 -866,312 -1200,421 -5,-42 1,-166 24,-183 -356,117 -586,377 -694,392 16,-65 -123,-279 -170,-360 -47,81 -166,223 -151,288 -107,-15 -357,-203 -713,-320 23,17 29,141 24,183 -334,-109 -893,-276 -1200,-421 -360,-169 -1165,-782 -738,-1290z" style="fill:#15949f"/>
  <path class="Moustache-Pig3fil84" d="M16389 17131c-259,461 -1484,895 -1627,941 -67,21 -129,41 -217,70 -39,13 -81,-9 -94,-48 -2,-6 -3,-13 -3,-19 -2,-17 -3,-42 -2,-68 -146,67 -267,154 -361,222 -92,66 -161,116 -223,125 -41,5 -69,-23 -74,-64 -9,-67 -75,-173 -109,-229 -44,64 -108,193 -133,220 -9,2 -16,2 -24,1 -61,-9 -140,-50 -243,-105 -98,-52 -220,-117 -362,-174 2,31 1,60 -1,77 -6,41 -43,70 -84,65 -5,-1 -9,-2 -14,-3 -87,-29 -149,-49 -216,-70 -146,-46 -1177,-386 -1578,-883 645,474 1437,681 1623,741l118 37 25 5c-2,-13 -14,-20 -16,-24 -26,-19 -37,-52 -27,-84 13,-39 55,-61 95,-48 207,69 378,159 507,228 50,27 94,50 128,66 22,-50 57,-102 90,-150l2 -4c19,-28 37,-55 48,-73 6,-11 16,-21 28,-28 35,-21 81,-8 102,27 5,9 16,27 28,48 41,68 97,162 129,244 26,-17 58,-40 93,-66 128,-93 302,-218 525,-292l0 1c29,-10 62,-1 82,24 26,33 20,80 -12,105 -20,16 -16,22 7,21l118 -37c190,-61 1329,-427 1672,-799z" style="fill:#0c0bdc"/>
  <path class="Moustache-Pig3fil10" d="M11851 17651c0,0 682,180 719,180 37,0 -109,-185 -109,-185 0,0 467,94 605,125 137,32 15,-244 86,-407 111,316 213,379 321,495 71,-113 157,-385 179,-432 100,692 494,565 892,145 5,85 54,301 113,329 60,29 826,-207 826,-207 0,0 -918,417 -939,397 -22,-20 -35,-179 -35,-179 0,0 -548,265 -619,366 -71,101 -175,-272 -218,-341 -43,-70 -191,256 -191,256l-651 -283 12 161c0,0 -911,-297 -991,-420z" style="fill:#33af49"/>
 </g><g id="Nose-Pig6">
 <animateTransform additive="sum" attributeName="transform" dur="10" repeatCount="indefinite" type="translate" values="0;0 200;0;0 200;0;0 200;0;0 200;0"/>
  <metadata id="CorelCorpID_147Corel-Layer"/>
  <g id="_2991533224368">
   <path class="Nose-Pig6fil244 Nose-Pig6str0" d="M15270 14963c0,-1041 -1142,-1152 -1588,-1883 -446,731 -1588,842 -1588,1883 0,708 795,391 1588,392 795,1 1588,318 1588,-392z" style="fill:#48b04a"/>
   <g>
    <path class="Nose-Pig6fil26 Nose-Pig6str3" d="M14614 14852c-125,28 -305,-100 -404,-285 -98,-185 -77,-357 48,-384 124,-27 305,100 403,285 98,185 77,357 -47,384z" style="fill:#48fba7"/>
    <path class="Nose-Pig6fil237 Nose-Pig6str3" d="M14614 14852c-125,28 -305,-100 -404,-285 -98,-185 -77,-357 48,-384 124,-27 305,100 403,285 98,185 77,357 -47,384z" style="fill:#e803a5"/>
   </g>
   <g>
    <path class="Nose-Pig6fil26 Nose-Pig6str3" d="M12750 14852c125,28 305,-100 403,-285 99,-185 78,-357 -47,-384 -124,-27 -305,100 -403,285 -98,185 -77,357 47,384z" style="fill:#88afa9"/>
    <path class="Nose-Pig6fil237 Nose-Pig6str3" d="M12750 14852c125,28 305,-100 403,-285 99,-185 78,-357 -47,-384 -124,-27 -305,100 -403,285 -98,185 -77,357 47,384z" style="fill:#e00408"/>
   </g>
  </g>
 </g><g id="Hair-Pig2">
 <animateTransform additive="sum" attributeName="transform" dur="10" repeatCount="indefinite" type="translate" values="0;0 200;0;0 200;0;0 200;0;0 200;0"/>
  <metadata id="CorelCorpID_150Corel-Layer"/>
  <path class="Hair-Pig2fil247 Hair-Pig2str0" d="M17186 8170c-78,-1878 -2478,-2687 -4126,-2284 -1258,307 -3415,1282 -4693,437 -35,862 1053,1144 2020,1093 -1718,98 -3117,1539 -2118,5116 67,-1783 1246,-3235 2726,-3590 0,0 -1742,654 -1840,2249 867,-920 2199,-754 4320,-1710 1335,-602 1933,-1807 3190,-1054 58,47 258,168 487,365 1183,769 1553,-1549 432,-1802 182,594 -99,965 -398,1180z" style="fill:#7f1ff7"/>
  <path class="Hair-Pig2fil10" d="M9155 11191c40,-1215 2514,-1528 3324,-1933 1220,-609 2374,-1505 3429,-1580 722,-51 966,425 1201,974 -347,-83 -1118,-978 -2330,5 -1211,982 -2951,1486 -4304,1799 -1352,313 -1320,735 -1320,735z" style="fill:#498f77"/>
  <path class="Hair-Pig2fil10" d="M8269 12532c0,0 -33,-1226 605,-2003 639,-777 840,-1202 2121,-1587 1281,-385 1281,-385 1281,-385 0,0 690,-261 1048,-625 57,-58 -801,291 -2130,546 -942,181 -1864,145 -2450,1343 -357,728 -392,1477 -475,2711z" style="fill:#fe47e6"/>
  <path class="Hair-Pig2fil246" d="M16858 7753c0,0 -867,-937 -2666,-683 -1645,232 -2242,1054 -3662,1299 -855,147 -1643,166 -2222,1071 424,-1593 1251,-1621 1950,-1724 903,-133 1582,-928 2622,-1196 656,-170 2593,-551 3978,1233z" style="fill:#397ca6"/>
  <path class="Hair-Pig2fil246" d="M9834 10253c405,-472 1000,-776 1942,-1147 414,-162 1327,-767 2139,-1285 609,-390 1672,-759 2834,-125 -1241,-253 -2096,264 -2576,617 -647,476 -1490,837 -2028,1081 -916,415 -1874,537 -2311,859z" style="fill:#e34bdc"/>
  <path class="Hair-Pig2fil10" d="M18077 7328c62,571 -338,1477 -968,1324 -336,-81 268,268 365,282 97,13 1236,-58 603,-1606z" style="fill:#a676fa"/>
 </g></svg>