<svg xmlns="http://www.w3.org/2000/svg" xmlns:xlink="http://www.w3.org/1999/xlink" style="shape-rendering:geometricPrecision; text-rendering:geometricPrecision; image-rendering:optimizeQuality; fill-rule:evenodd; clip-rule:evenodd" version="1.1" viewBox="0 0 29000 29000" xml:space="preserve"><defs><style type="text/css">.BraceletLeather-Mediumfil43new {fill:white;fill-opacity:0.200000}
.BraceletLeather-Mediumfil46new {fill:white;fill-rule:nonzero;fill-opacity:0.200000}
.BraceletLeather-Mediumfil42new {fill:url(#BraceletLeather-Mediumid14new)}
.BraceletLeather-Mediumstr3new {stroke:black;stroke-width:100;stroke-linecap:round;stroke-linejoin:round}
.BraceletLeather-Mediumfil33new {fill:none}
.BraceletLeather-Mediumfil44new {fill:url(#BraceletLeather-Mediumid88new)}
.BraceletLeather-Mediumfil45new {fill:url(#BraceletLeather-Mediumid672new);fill-rule:nonzero}
.BraceletLeather-Mediumstr4new {stroke:black;stroke-width:100}
.BraceletLeather-Mediumfil47new {fill:none;fill-rule:nonzero}
.BraceletLeather-Mediumfil48new {fill:url(#BraceletLeather-Mediumid15new)}
.BraceletLeather-Mediumfil49new {fill:url(#BraceletLeather-Mediumid207new)}
.BraceletLeather-Mediumfil50new {fill:url(#BraceletLeather-Mediumid690new);fill-rule:nonzero}
.NecklaceButterflyRedfil80 {fill:url(#NecklaceButterflyRedid33)}
.NecklaceButterflyRedfil33 {fill:white;fill-opacity:0.301961}
.NecklaceButterflyRedfil55 {fill:black;fill-opacity:0.501961}
.NecklaceButterflyRedfil82 {fill:url(#NecklaceButterflyRedid79)}
.NecklaceButterflyRedfil83 {fill:url(#NecklaceButterflyRedid250)}
.NecklaceButterflyRedfil79 {fill:url(#NecklaceButterflyRedid97)}
.NecklaceButterflyRedstr1 {stroke:black;stroke-width:150;stroke-linecap:round;stroke-linejoin:round}
.NecklaceButterflyRedfil11 {fill:none}
.NecklaceButterflyRedfil81 {fill:url(#NecklaceButterflyRedid4)}
.HatBaseballWhite-Mediumfil12 {fill:black;fill-opacity:0.200000}
.HatBaseballWhite-Mediumfil296 {fill:url(#HatBaseballWhite-Mediumid245)}
.HatBaseballWhite-Mediumfil167 {fill:black;fill-opacity:0.301961}
.HatBaseballWhite-Mediumfil298 {fill:white;fill-opacity:0.800000}
.HatBaseballWhite-Mediumfil295 {fill:url(#HatBaseballWhite-Mediumid150)}
.HatBaseballWhite-Mediumstr1 {stroke:black;stroke-width:150;stroke-linecap:round;stroke-linejoin:round}
.HatBaseballWhite-Mediumfil165 {fill:none}
.HatBaseballWhite-Mediumstr8 {stroke:#6E6E6E;stroke-width:75;stroke-linecap:round;stroke-linejoin:round;stroke-dasharray:150.000000 225.000000;stroke-opacity:0.200000}
.HatBaseballWhite-Mediumstr9 {stroke:#6E6E6E;stroke-width:100;stroke-opacity:0.200000}
.HatBaseballWhite-Mediumfil11 {fill:none}
.HatBaseballWhite-Mediumfil297 {fill:url(#HatBaseballWhite-Mediumid230)}
.HairBack-Pig0fil0 {fill:none}
.Tail-Pig0fil0 {fill:none}
.RightFoot-Pig0fil37 {fill:#ffffff}
.RightFoot-Pig0fil38 {fill:#ad8373}
.RightFoot-Pig0fil39 {fill:url(#RightFoot-Pig0id227)}
.RightFoot-Pig0fil40 {fill:black}
.RightFoot-Pig0fil10 {fill:black;fill-opacity:0.200000}
.RightFoot-Pig0fil0 {fill:none}
.RightFoot-Pig0str2 {stroke:black;stroke-width:150;stroke-linecap:round;stroke-linejoin:round}
.RightLeg-Pig0fil52 {fill:url(#RightLeg-Pig0id37)}
.RightLeg-Pig0fil10 {fill:black;fill-opacity:0.200000}
.RightLeg-Pig0fil0 {fill:none}
.RightLeg-Pig0str2 {stroke:black;stroke-width:150;stroke-linecap:round;stroke-linejoin:round}
.LeftFoot-Pig0fil37 {fill:#ffffff}
.LeftFoot-Pig0fil38 {fill:#ad8373}
.LeftFoot-Pig0fil57 {fill:url(#LeftFoot-Pig0id220)}
.LeftFoot-Pig0fil40 {fill:black}
.LeftFoot-Pig0fil10 {fill:black;fill-opacity:0.200000}
.LeftFoot-Pig0fil0 {fill:none}
.LeftFoot-Pig0str2 {stroke:black;stroke-width:150;stroke-linecap:round;stroke-linejoin:round}
.LeftLeg-Pig0fil62 {fill:url(#LeftLeg-Pig0id49)}
.LeftLeg-Pig0fil10 {fill:black;fill-opacity:0.200000}
.LeftLeg-Pig0fil0 {fill:none}
.LeftLeg-Pig0str2 {stroke:black;stroke-width:150;stroke-linecap:round;stroke-linejoin:round}
.RightHand-Pig0fil68 {fill:url(#RightHand-Pig0id57)}
.RightHand-Pig0fil10 {fill:black;fill-opacity:0.200000}
.RightHand-Pig0fil0 {fill:none}
.RightHand-Pig0str0 {stroke:black;stroke-width:150;stroke-linecap:round;stroke-linejoin:round}
.RightPaw-Pig10fil74 {fill:url(#RightPaw-Pig10id25)}
.RightPaw-Pig10fil51 {fill:black;fill-opacity:0.400000}
.RightPaw-Pig10fil10 {fill:black;fill-opacity:0.200000}
.RightPaw-Pig10fil77 {fill:url(#RightPaw-Pig10id216)}
.RightPaw-Pig10fil40 {fill:black}
.RightPaw-Pig10fil0 {fill:none}
.RightPaw-Pig10str2 {stroke:black;stroke-width:150;stroke-linecap:round;stroke-linejoin:round}
.LeftHand-Pig0fil79 {fill:url(#LeftHand-Pig0id22)}
.LeftHand-Pig0fil10 {fill:black;fill-opacity:0.200000}
.LeftHand-Pig0fil0 {fill:none}
.LeftHand-Pig0str0 {stroke:black;stroke-width:150;stroke-linecap:round;stroke-linejoin:round}
.Body-Pig1fil83 {fill:url(#Body-Pig1id42)}
.Body-Pig1fil10 {fill:black;fill-opacity:0.200000}
.Body-Pig1fil84 {fill:black;fill-rule:nonzero}
.Body-Pig1fil85 {fill:url(#Body-Pig1id44)}
.LeftPaw-Pig10fil91 {fill:url(#LeftPaw-Pig10id70)}
.LeftPaw-Pig10fil51 {fill:black;fill-opacity:0.400000}
.LeftPaw-Pig10fil10 {fill:black;fill-opacity:0.200000}
.LeftPaw-Pig10fil94 {fill:url(#LeftPaw-Pig10id212)}
.LeftPaw-Pig10fil40 {fill:black}
.LeftPaw-Pig10fil0 {fill:none}
.LeftPaw-Pig10str2 {stroke:black;stroke-width:150;stroke-linecap:round;stroke-linejoin:round}
.Head-Pig1fil160 {fill:url(#Head-Pig1id50)}
.Head-Pig1fil161 {fill:url(#Head-Pig1id159)}
.Head-Pig1fil10 {fill:black;fill-opacity:0.200000}
.Head-Pig1fil84 {fill:black;fill-rule:nonzero}
.Mouth-Pig10fil172 {fill:black;fill-rule:nonzero;fill-opacity:0.200000}
.Mouth-Pig10fil169 {fill:black}
.Mouth-Pig10fil171 {fill:#FF9999}
.Mouth-Pig10fil10 {fill:black;fill-opacity:0.200000}
.Mouth-Pig10fil0 {fill:none}
.Mouth-Pig10str0 {stroke:black;stroke-width:150;stroke-linecap:round;stroke-linejoin:round}
.Mouth-Pig10fil173 {fill:white}
.EyesClosed-Pig9fil38 {fill:#ad8373}
.EyesClosed-Pig9fil148 {fill:black;fill-opacity:0.501961}
.EyesClosed-Pig9fil84 {fill:black;fill-rule:nonzero}
.Eyes-Pig9fil226 {fill:url(#Eyes-Pig9id148)}
.Eyes-Pig9fil227 {fill:url(#Eyes-Pig9id10)}
.Eyes-Pig9fil228 {fill:url(#Eyes-Pig9id45)}
.Eyes-Pig9fil148 {fill:black;fill-opacity:0.501961}
.Eyes-Pig9fil173 {fill:white}
.Eyes-Pig9fil229 {fill:url(#Eyes-Pig9id161)}
.Eyes-Pig9fil230 {fill:url(#Eyes-Pig9id64)}
.Eyes-Pig9fil231 {fill:url(#Eyes-Pig9id76)}
.Eyes-Pig9fil0 {fill:none}
.Eyes-Pig9str0 {stroke:black;stroke-width:150;stroke-linecap:round;stroke-linejoin:round}
.Moustache-Pig3fil234 {fill:url(#Moustache-Pig3id41)}
.Moustache-Pig3fil84 {fill:black;fill-rule:nonzero}
.Moustache-Pig3fil10 {fill:black;fill-opacity:0.200000}
.Nose-Pig5fil243 {fill:url(#Nose-Pig5id202)}
.Nose-Pig5str0 {stroke:black;stroke-width:150;stroke-linecap:round;stroke-linejoin:round}
.Nose-Pig5fil26 {fill:black;fill-opacity:0.301961}
.Nose-Pig5str3 {stroke:black;stroke-width:150;stroke-linecap:round;stroke-linejoin:round;stroke-opacity:0.301961}
.Nose-Pig5fil237 {fill:none}
</style><linearGradient gradientUnits="userSpaceOnUse" id="BraceletLeather-Mediumid14new" x1="8682.96" x2="8745.92" y1="19682.8" y2="19053.1">
   <stop offset="0" style="stop-opacity:1; stop-color:#683501"/>
   <stop offset="1" style="stop-opacity:1; stop-color:#B08227"/>
  </linearGradient><linearGradient gradientUnits="userSpaceOnUse" id="BraceletLeather-Mediumid88new" x1="8626.8" x2="8294.02" xlink:href="#BraceletLeather-Mediumid14new" y1="19859" y2="19314.4">
  </linearGradient><linearGradient gradientUnits="userSpaceOnUse" id="BraceletLeather-Mediumid672new" x1="8784.44" x2="10049.5" y1="19759" y2="20796.3">
   <stop offset="0" style="stop-opacity:1; stop-color:#643300"/>
   <stop offset="0.321569" style="stop-opacity:1; stop-color:#B5872A"/>
   <stop offset="1" style="stop-opacity:1; stop-color:#643300"/>
  </linearGradient><linearGradient gradientUnits="userSpaceOnUse" id="BraceletLeather-Mediumid15new" x1="18680.9" x2="18617.9" xlink:href="#BraceletLeather-Mediumid14new" y1="19682.8" y2="19053.1">
  </linearGradient><linearGradient gradientUnits="userSpaceOnUse" id="BraceletLeather-Mediumid207new" x1="18737" x2="19069.8" xlink:href="#BraceletLeather-Mediumid14new" y1="19859" y2="19314.4">
  </linearGradient><linearGradient gradientUnits="userSpaceOnUse" id="BraceletLeather-Mediumid690new" x1="18579.4" x2="17314.3" xlink:href="#BraceletLeather-Mediumid672new" y1="19759" y2="20796.3">
  </linearGradient><linearGradient gradientUnits="userSpaceOnUse" id="NecklaceButterflyRedid33" x1="12811.4" x2="12143.9" y1="19517.3" y2="17944.9">
   <stop offset="0" style="stop-opacity:1; stop-color:#380000"/>
   <stop offset="0.6" style="stop-opacity:1; stop-color:#9B1919"/>
   <stop offset="1" style="stop-opacity:1; stop-color:#FF3333"/>
  </linearGradient><linearGradient gradientUnits="userSpaceOnUse" id="NecklaceButterflyRedid79" x1="14552.4" x2="15219.9" xlink:href="#NecklaceButterflyRedid33" y1="19517.3" y2="17944.9">
  </linearGradient><linearGradient gradientUnits="userSpaceOnUse" id="NecklaceButterflyRedid250" x1="13681.9" x2="13681.9" y1="18978.3" y2="18091.1">
   <stop offset="0" style="stop-opacity:1; stop-color:#380000"/>
   <stop offset="1" style="stop-opacity:1; stop-color:#FF3333"/>
  </linearGradient><linearGradient gradientUnits="userSpaceOnUse" id="NecklaceButterflyRedid97" x1="12231.1" x2="12231.1" xlink:href="#NecklaceButterflyRedid4" y1="18513" y2="17222">
  </linearGradient><linearGradient gradientUnits="userSpaceOnUse" id="HatBaseballWhite-Mediumid245" x1="8052.38" x2="19252.9" xlink:href="#HatBaseballWhite-Mediumid223" y1="10493" y2="8054.43">
  </linearGradient><linearGradient gradientUnits="userSpaceOnUse" id="HatBaseballWhite-Mediumid150" x1="12797.5" x2="14175.5" y1="5819.27" y2="5742.69">
   <stop offset="0" style="stop-opacity:1; stop-color:#D6D6D6"/>
   <stop offset="0.588235" style="stop-opacity:1; stop-color:#FCFCFC"/>
   <stop offset="1" style="stop-opacity:1; stop-color:#E1E1E1"/>
  </linearGradient><linearGradient gradientUnits="userSpaceOnUse" id="HatBaseballWhite-Mediumid230" x1="8141.83" x2="19186.9" xlink:href="#HatBaseballWhite-Mediumid223" y1="12496.2" y2="11395.7">
  </linearGradient><linearGradient gradientUnits="objectBoundingBox" id="RightFoot-Pig0id227" x1="49.9997%" x2="49.9997%" xlink:href="#RightFoot-Pig0id0" y1="100%" y2="0%">
  </linearGradient><linearGradient gradientUnits="objectBoundingBox" id="RightLeg-Pig0id37" x1="50%" x2="50%" xlink:href="#RightLeg-Pig0id2" y1="100%" y2="0%">
  </linearGradient><linearGradient gradientUnits="objectBoundingBox" id="LeftFoot-Pig0id220" x1="50.0003%" x2="50.0003%" xlink:href="#LeftFoot-Pig0id0" y1="100%" y2="0%">
  </linearGradient><linearGradient gradientUnits="objectBoundingBox" id="LeftLeg-Pig0id49" x1="50%" x2="50%" xlink:href="#LeftLeg-Pig0id2" y1="100%" y2="0%">
  </linearGradient><linearGradient gradientUnits="objectBoundingBox" id="RightHand-Pig0id57" x1="30.1244%" x2="69.8756%" xlink:href="#RightHand-Pig0id22" y1="2.32158%" y2="97.6784%">
  </linearGradient><linearGradient gradientUnits="objectBoundingBox" id="RightPaw-Pig10id25" x1="81.8832%" x2="18.1168%" y1="89.1977%" y2="10.8018%">
   <stop offset="0" style="stop-opacity:1; stop-color:#d9d2c3"/>
   <stop offset="0.619608" style="stop-opacity:1; stop-color:#fffbf2"/>
   <stop offset="1" style="stop-opacity:1; stop-color:#fffbf2"/>
  </linearGradient><linearGradient gradientUnits="objectBoundingBox" id="RightPaw-Pig10id216" x1="28.208%" x2="71.792%" xlink:href="#RightPaw-Pig10id5" y1="1.78354%" y2="98.2165%">
  </linearGradient><linearGradient gradientUnits="objectBoundingBox" id="LeftHand-Pig0id22" x1="69.8756%" x2="30.1244%" y1="2.32158%" y2="97.6784%">
   <stop offset="0" style="stop-opacity:1; stop-color:#d9d2c3"/>
   <stop offset="0.0196078" style="stop-opacity:1; stop-color:#d9d2c3"/>
   <stop offset="0.921569" style="stop-opacity:1; stop-color:#fffbf2"/>
   <stop offset="1" style="stop-opacity:1; stop-color:#fffbf2"/>
  </linearGradient><linearGradient gradientUnits="objectBoundingBox" id="Body-Pig1id42" x1="50%" x2="50%" y1="0.000186021%" y2="100%">
   <stop offset="0" style="stop-opacity:1; stop-color:#d9d2c3"/>
   <stop offset="0.0313725" style="stop-opacity:1; stop-color:#d9d2c3"/>
   <stop offset="0.529412" style="stop-opacity:1; stop-color:#fffbf2"/>
   <stop offset="1" style="stop-opacity:1; stop-color:#ffffff"/>
  </linearGradient><linearGradient gradientUnits="userSpaceOnUse" id="Body-Pig1id44" x1="13681.9" x2="13681.9" xlink:href="#Body-Pig1id30" y1="22736.8" y2="18207.8">
  </linearGradient><linearGradient gradientUnits="objectBoundingBox" id="LeftPaw-Pig10id70" x1="18.1168%" x2="81.8832%" xlink:href="#LeftPaw-Pig10id25" y1="89.1977%" y2="10.8018%">
  </linearGradient><linearGradient gradientUnits="objectBoundingBox" id="LeftPaw-Pig10id212" x1="71.792%" x2="28.208%" xlink:href="#LeftPaw-Pig10id5" y1="1.78354%" y2="98.2165%">
  </linearGradient><linearGradient gradientUnits="objectBoundingBox" id="Head-Pig1id50" x1="50%" x2="50%" xlink:href="#Head-Pig1id3" y1="99.9999%" y2="0%">
  </linearGradient><linearGradient gradientUnits="userSpaceOnUse" id="Head-Pig1id159" x1="10433.5" x2="10113" xlink:href="#Head-Pig1id0" y1="14832.1" y2="10239.8">
  </linearGradient><linearGradient gradientUnits="userSpaceOnUse" id="Eyes-Pig9id148" x1="16641" x2="17334.4" y1="14255.9" y2="11076.2">
   <stop offset="0" style="stop-opacity:1; stop-color:#800a0a"/>
   <stop offset="1" style="stop-opacity:1; stop-color:black"/>
  </linearGradient><linearGradient gradientUnits="userSpaceOnUse" id="Eyes-Pig9id10" x1="15305.7" x2="18262.7" y1="12539.6" y2="12539.6">
   <stop offset="0" style="stop-opacity:1; stop-color:#800a0a"/>
   <stop offset="0.501961" style="stop-opacity:1; stop-color:#ff5454"/>
   <stop offset="1" style="stop-opacity:1; stop-color:#800a0a"/>
  </linearGradient><linearGradient gradientUnits="userSpaceOnUse" id="Eyes-Pig9id45" x1="16680.3" x2="16680.3" y1="11243.5" y2="13543.4">
   <stop offset="0" style="stop-opacity:1; stop-color:black"/>
   <stop offset="0.4" style="stop-opacity:1; stop-color:black"/>
   <stop offset="1" style="stop-opacity:1; stop-color:#660303"/>
  </linearGradient><linearGradient gradientUnits="userSpaceOnUse" id="Eyes-Pig9id161" x1="10722.8" x2="10029.5" xlink:href="#Eyes-Pig9id148" y1="14255.9" y2="11076.2">
  </linearGradient><linearGradient gradientUnits="userSpaceOnUse" id="Eyes-Pig9id64" x1="9101.23" x2="12058.2" xlink:href="#Eyes-Pig9id10" y1="12539.6" y2="12539.6">
  </linearGradient><linearGradient gradientUnits="userSpaceOnUse" id="Eyes-Pig9id76" x1="10683.6" x2="10683.6" xlink:href="#Eyes-Pig9id45" y1="11243.5" y2="13543.4">
  </linearGradient><linearGradient gradientUnits="userSpaceOnUse" id="Moustache-Pig3id41" x1="13681.9" x2="13681.9" y1="18279.7" y2="16359.7">
   <stop offset="0" style="stop-opacity:1; stop-color:#2b2425"/>
   <stop offset="0.6" style="stop-opacity:1; stop-color:#2b2425"/>
   <stop offset="1" style="stop-opacity:1; stop-color:#454041"/>
  </linearGradient><linearGradient gradientUnits="userSpaceOnUse" id="Nose-Pig5id202" x1="13681.9" x2="13681.9" xlink:href="#Nose-Pig5id151" y1="13554.2" y2="15425.4">
  </linearGradient><linearGradient gradientUnits="userSpaceOnUse" id="NecklaceButterflyRedid4" x1="15132.8" x2="15132.8" y1="18513" y2="17222">
   <stop offset="0" style="stop-opacity:1; stop-color:#450000"/>
   <stop offset="1" style="stop-opacity:1; stop-color:#BF0000"/>
  </linearGradient><linearGradient gradientUnits="userSpaceOnUse" id="HatBaseballWhite-Mediumid223" x1="7866.29" x2="19463.6" y1="12137.3" y2="10981.8">
   <stop offset="0" style="stop-opacity:1; stop-color:#CFCFCF"/>
   <stop offset="0.301961" style="stop-opacity:1; stop-color:#E3E3E3"/>
   <stop offset="0.709804" style="stop-opacity:1; stop-color:white"/>
   <stop offset="1" style="stop-opacity:1; stop-color:#F2F2F2"/>
  </linearGradient><linearGradient gradientUnits="userSpaceOnUse" id="RightFoot-Pig0id0" x1="16257.8" x2="16257.8" y1="21560.3" y2="23683.4">
   <stop offset="0" style="stop-opacity:1; stop-color:#ad8373"/>
   <stop offset="1" style="stop-opacity:1; stop-color:#d4afa1"/>
  </linearGradient><linearGradient gradientUnits="userSpaceOnUse" id="RightLeg-Pig0id2" x1="11782.6" x2="11782.6" y1="24212.9" y2="21311.8">
   <stop offset="0" style="stop-opacity:1; stop-color:#ffffff"/>
   <stop offset="0.388235" style="stop-opacity:1; stop-color:#ffffff"/>
   <stop offset="1" style="stop-opacity:1; stop-color:#fffbf2"/>
  </linearGradient><linearGradient gradientUnits="userSpaceOnUse" id="LeftFoot-Pig0id0" x1="16257.8" x2="16257.8" y1="21560.3" y2="23683.4">
   <stop offset="0" style="stop-opacity:1; stop-color:#ad8373"/>
   <stop offset="1" style="stop-opacity:1; stop-color:#d4afa1"/>
  </linearGradient><linearGradient gradientUnits="userSpaceOnUse" id="LeftLeg-Pig0id2" x1="11782.6" x2="11782.6" y1="24212.9" y2="21311.8">
   <stop offset="0" style="stop-opacity:1; stop-color:#ffffff"/>
   <stop offset="0.388235" style="stop-opacity:1; stop-color:#ffffff"/>
   <stop offset="1" style="stop-opacity:1; stop-color:#fffbf2"/>
  </linearGradient><linearGradient gradientUnits="objectBoundingBox" id="RightHand-Pig0id22" x1="69.8756%" x2="30.1244%" y1="2.32158%" y2="97.6784%">
   <stop offset="0" style="stop-opacity:1; stop-color:#d9d2c3"/>
   <stop offset="0.0196078" style="stop-opacity:1; stop-color:#d9d2c3"/>
   <stop offset="0.921569" style="stop-opacity:1; stop-color:#fffbf2"/>
   <stop offset="1" style="stop-opacity:1; stop-color:#fffbf2"/>
  </linearGradient><linearGradient gradientUnits="userSpaceOnUse" id="RightPaw-Pig10id5" x1="18537.4" x2="18537.4" y1="11625" y2="5118.17">
   <stop offset="0" style="stop-opacity:1; stop-color:#ad8373"/>
   <stop offset="1" style="stop-opacity:1; stop-color:#fffbf2"/>
  </linearGradient><linearGradient gradientUnits="userSpaceOnUse" id="Body-Pig1id30" x1="13681.9" x2="13681.9" y1="9565.57" y2="17278">
   <stop offset="0" style="stop-opacity:1; stop-color:#f6f0e5"/>
   <stop offset="0.658824" style="stop-opacity:1; stop-color:#f6f0e5"/>
   <stop offset="1" style="stop-opacity:1; stop-color:#e8decc"/>
  </linearGradient><linearGradient gradientUnits="objectBoundingBox" id="LeftPaw-Pig10id25" x1="81.8832%" x2="18.1168%" y1="89.1977%" y2="10.8018%">
   <stop offset="0" style="stop-opacity:1; stop-color:#d9d2c3"/>
   <stop offset="0.619608" style="stop-opacity:1; stop-color:#fffbf2"/>
   <stop offset="1" style="stop-opacity:1; stop-color:#fffbf2"/>
  </linearGradient><linearGradient gradientUnits="userSpaceOnUse" id="LeftPaw-Pig10id5" x1="18537.4" x2="18537.4" y1="11625" y2="5118.17">
   <stop offset="0" style="stop-opacity:1; stop-color:#ad8373"/>
   <stop offset="1" style="stop-opacity:1; stop-color:#fffbf2"/>
  </linearGradient><linearGradient gradientUnits="userSpaceOnUse" id="Head-Pig1id3" x1="18922.8" x2="18922.8" y1="11187.2" y2="5413.87">
   <stop offset="0" style="stop-opacity:1; stop-color:#d9d2c3"/>
   <stop offset="0.388235" style="stop-opacity:1; stop-color:#fffbf2"/>
   <stop offset="1" style="stop-opacity:1; stop-color:#ffffff"/>
  </linearGradient><linearGradient gradientUnits="userSpaceOnUse" id="Head-Pig1id0" x1="16257.8" x2="16257.8" y1="21560.3" y2="23683.4">
   <stop offset="0" style="stop-opacity:1; stop-color:#ad8373"/>
   <stop offset="1" style="stop-opacity:1; stop-color:#d4afa1"/>
  </linearGradient><linearGradient gradientUnits="userSpaceOnUse" id="Nose-Pig5id151" x1="13681.9" x2="13681.9" y1="13554.2" y2="15469.2">
   <stop offset="0" style="stop-opacity:1; stop-color:#FFCCCC"/>
   <stop offset="1" style="stop-opacity:1; stop-color:#DB9092"/>
  </linearGradient></defs><g id="HairBack-Pig0">
 <animateTransform additive="sum" attributeName="transform" dur="10" repeatCount="indefinite" type="translate" values="0;0 200;0;0 200;0;0 200;0;0 200;0"/>
  <metadata id="CorelCorpID_0Corel-Layer"/>
  <rect class="HairBack-Pig0fil0" height="890" width="890" x="13237" y="6590"/>
  <rect class="HairBack-Pig0fil0" height="890" width="890" x="13237" y="6590"/>
 </g><g id="Tail-Pig0">
  <metadata id="CorelCorpID_3Corel-Layer"/>
  <rect class="Tail-Pig0fil0" height="900" width="900" x="13232" y="22153"/>
 </g><g id="RightFoot-Pig0">
  <metadata id="CorelCorpID_10Corel-Layer"/>
  <path class="RightFoot-Pig0fil37" d="M16559 24190c54,65 143,233 174,292 62,268 -152,365 -298,365 -143,0 -686,-98 -894,289 -330,-192 -541,-572 -540,-565 -22,-43 -41,-85 -54,-126 -58,-176 -10,-247 31,-317 480,-107 1078,-83 1581,62z" style="fill:#3038ff"/>
  <path class="RightFoot-Pig0fil38" d="M15011 24496c-3,101 -14,73 -14,176 -5,821 346,600 430,523 12,-11 59,-71 57,-73 -109,-146 -274,-300 -473,-626z" style="fill:#d27b1d"/>
  <path class="RightFoot-Pig0fil0 RightFoot-Pig0str2" d="M14995 24537c1,45 2,90 2,135 -5,821 346,600 430,523 4,-4 19,-23 37,-48" style="fill:#b20f1c"/>
  <path class="RightFoot-Pig0fil39" d="M16756 24466c0,0 -225,-105 -294,-5 -54,78 49,353 -47,353 -106,0 -310,-245 -509,-215 -288,43 -418,429 -384,506 35,82 343,409 763,435 419,26 490,-14 487,-39 -3,-24 42,-150 42,-150 0,0 458,-59 491,-95 100,-109 -467,-691 -549,-790z" style="fill:#72d792"/>
  <polygon class="RightFoot-Pig0fil40" points="16740,25393 16571,24994 16934,25330 "/>
  <path class="RightFoot-Pig0fil0 RightFoot-Pig0str2" d="M16567 24189c147,241 633,739 718,969 84,231 -492,167 -492,167 0,0 5,189 -122,220 -281,70 -831,-103 -1075,-309 -49,-41 -99,-87 -150,-135" style="fill:#065c9b"/>
  <path class="RightFoot-Pig0fil0 RightFoot-Pig0str2" d="M16567 24189c45,73 121,170 208,277m-1262 697c-341,-311 -707,-789 -548,-1037" style="fill:#0f3062"/>
  <path class="RightFoot-Pig0fil10" d="M15252 24171c-250,336 427,769 691,965 282,210 555,378 651,406 -45,23 -445,-31 -727,-123 -179,-96 -710,-617 -803,-752 -94,-163 -147,-331 -119,-480 10,-21 22,-40 33,-59 85,-7 193,-3 274,43z" style="fill:#8df1df"/>
 </g><g id="LeftFoot-Pig0">
  <metadata id="CorelCorpID_27Corel-Layer"/>
  <path class="LeftFoot-Pig0fil37" d="M10805 24190c-54,65 -143,233 -174,292 -62,268 152,365 298,365 143,0 685,-98 894,289 330,-192 541,-572 540,-565 22,-43 40,-85 54,-126 58,-176 10,-247 -31,-317 -480,-107 -1078,-83 -1581,62z" style="fill:#55fdfc"/>
  <path class="LeftFoot-Pig0fil38" d="M12353 24496c3,101 14,73 14,176 5,821 -346,600 -430,523 -12,-11 -59,-71 -57,-73 109,-146 274,-300 473,-626z" style="fill:#420f46"/>
  <path class="LeftFoot-Pig0fil0 LeftFoot-Pig0str2" d="M12369 24537c-1,45 -2,90 -2,135 5,821 -346,600 -430,523 -4,-4 -19,-23 -37,-48" style="fill:#952900"/>
  <path class="LeftFoot-Pig0fil57" d="M10608 24466c0,0 225,-105 294,-5 54,78 -49,353 47,353 106,0 309,-245 509,-215 288,43 418,429 384,506 -35,82 -343,409 -763,435 -419,26 -490,-14 -487,-39 3,-24 -42,-150 -42,-150 0,0 -458,-59 -491,-95 -101,-109 467,-691 549,-790z" style="fill:#609b28"/>
  <polygon class="LeftFoot-Pig0fil40" points="10624,25393 10793,24994 10430,25330 "/>
  <path class="LeftFoot-Pig0fil0 LeftFoot-Pig0str2" d="M10797 24189c-147,241 -633,739 -718,969 -85,231 492,167 492,167 0,0 -5,189 122,220 281,70 831,-103 1075,-309 49,-41 99,-87 150,-135" style="fill:#480130"/>
  <path class="LeftFoot-Pig0fil0 LeftFoot-Pig0str2" d="M10797 24189c-45,73 -121,170 -208,277m1262 697c341,-311 707,-789 548,-1037" style="fill:#70d1f9"/>
  <path class="LeftFoot-Pig0fil10" d="M12112 24171c250,336 -428,769 -691,965 -282,210 -555,378 -651,406 45,23 444,-31 727,-123 179,-96 710,-617 803,-752 94,-163 147,-331 119,-480 -10,-21 -22,-40 -33,-59 -85,-7 -193,-3 -274,43z" style="fill:#f2f2bb"/>
 </g><g id="RightLeg-Pig0">
  <metadata id="CorelCorpID_22Corel-Layer"/>
  <path class="RightLeg-Pig0fil52" d="M16570 21416c0,0 1181,1189 570,2176 -128,221 -511,470 -581,598 -599,44 -1104,27 -1581,-62 45,-78 82,-155 -44,-376 -113,-198 -400,-446 -1252,-493 0,-147 0,-280 0,-522 373,-788 1598,-1745 2888,-1321z" style="fill:#68a116"/>
  <path class="RightLeg-Pig0fil10" d="M17192 23421c67,-141 106,-290 107,-439 2,-734 -540,-1374 -869,-1659l-157 688c26,45 52,90 79,136 387,-391 947,832 840,1274z" style="fill:#c4ad22"/>
  <path class="RightLeg-Pig0fil0 RightLeg-Pig0str2" d="M16570 21416c303,324 585,778 689,1246 115,521 25,950 -408,1282 -95,72 -194,144 -284,245m-1602 -63c284,-396 -518,-875 -1283,-867" style="fill:#4f9115"/>
  <path class="RightLeg-Pig0fil10" d="M13760 23246c341,-28 1532,124 1607,584 27,166 -52,256 -115,341 -93,-12 -184,-26 -274,-43 40,-70 74,-140 -11,-313 -8,-22 -19,-42 -33,-62l0 -1c-104,-182 -357,-408 -1066,-479 -35,-9 -71,-18 -108,-27z" style="fill:#72e1b0"/>
 </g><g id="LeftLeg-Pig0">
  <metadata id="CorelCorpID_39Corel-Layer"/>
  <path class="LeftLeg-Pig0fil62" d="M10794 21416c0,0 -1181,1189 -570,2176 128,221 511,470 581,598 599,44 1104,27 1581,-62 -45,-78 -82,-155 44,-376 113,-198 400,-446 1252,-493 0,-147 0,-280 0,-522 -373,-788 -1598,-1745 -2888,-1321z" style="fill:#7d402b"/>
  <path class="LeftLeg-Pig0fil10" d="M10172 23421c-67,-141 -106,-290 -107,-439 -2,-734 540,-1374 869,-1659l157 688c-26,45 -53,90 -79,136 -388,-391 -947,832 -840,1274z" style="fill:#8effec"/>
  <path class="LeftLeg-Pig0fil0 LeftLeg-Pig0str2" d="M10794 21416c-303,324 -586,778 -689,1246 -115,521 -25,950 408,1282 95,72 193,144 284,245m1602 -63c-284,-396 517,-875 1283,-867" style="fill:#fdd8a8"/>
  <path class="LeftLeg-Pig0fil10" d="M13604 23246c-341,-28 -1532,124 -1607,584 -27,166 52,256 115,341 93,-12 184,-26 274,-43 -40,-70 -74,-140 11,-313 8,-22 19,-42 33,-62l0 -1c104,-182 357,-408 1066,-479 35,-9 71,-18 108,-27z" style="fill:#9847c5"/>
 </g><g id="RightHand-Pig0">
 <animateTransform additive="sum" attributeName="transform" dur="10" repeatCount="indefinite" type="translate" values="0;0 200;0;0 200;0;0 200;0;0 200;0"/>
  <metadata id="CorelCorpID_44Corel-Layer"/>
  <path class="RightHand-Pig0fil68" d="M16231 17709c1005,345 1816,1398 2255,2162 -88,184 -847,720 -1129,836 -543,-402 -1045,-430 -1469,-362 -742,120 -1353,-1920 -931,-2545 422,-21 934,-40 1274,-91z" style="fill:#9a5a3c"/>
  <path class="RightHand-Pig0fil10" d="M17342 20696c-537,-391 -1034,-418 -1454,-351 -171,28 -335,-59 -481,-217 -325,-472 753,-1098 1039,-656 258,399 723,837 1098,1116 3,2 22,18 34,27l-219 113c-8,-18 -14,-30 -17,-32z" style="fill:#cbd785"/>
  <path class="RightHand-Pig0fil0 RightHand-Pig0str0" d="M16477 20333c179,24 366,81 561,178 100,50 205,104 305,189m1121 -817c-161,-280 -388,-607 -632,-916 -422,-534 -963,-1039 -1601,-1258 -90,-31 -172,-59 -246,-84" style="fill:#1e8474"/>
 </g><g id="LeftHand-Pig0">
 <animateTransform additive="sum" attributeName="transform" dur="10" repeatCount="indefinite" type="translate" values="0;0 200;0;0 200;0;0 200;0;0 200;0"/>
  <metadata id="CorelCorpID_61Corel-Layer"/>
  <path class="LeftHand-Pig0fil79" d="M11133 17709c-1005,345 -1817,1398 -2255,2162 88,184 847,720 1128,836 544,-402 1046,-430 1470,-362 742,120 1352,-1920 931,-2545 -422,-21 -934,-40 -1274,-91z" style="fill:#a52e26"/>
  <path class="LeftHand-Pig0fil10" d="M10022 20696c537,-391 1034,-418 1454,-351 171,28 335,-59 481,-217 325,-472 -753,-1098 -1039,-656 -258,399 -723,837 -1098,1116 -3,2 -22,18 -34,27l219 113c8,-18 14,-30 17,-32z" style="fill:#c8c777"/>
  <path class="LeftHand-Pig0fil0 LeftHand-Pig0str0" d="M10887 20333c-179,24 -366,81 -561,178 -100,50 -205,104 -305,189m-1121 -817c161,-280 388,-607 632,-916 422,-534 963,-1039 1601,-1258 90,-31 171,-59 246,-84" style="fill:#209c48"/>
 </g><g id="Body-Pig1">
 <animateTransform additive="sum" attributeName="transform" dur="10" repeatCount="indefinite" type="translate" values="0;0 200;0;0 200;0;0 200;0;0 200;0"/>
  <metadata id="CorelCorpID_67Corel-Layer"/>
  <path class="Body-Pig1fil83" d="M13682 23135c-1548,0 -2752,-291 -2993,-1956 -147,-1014 391,-2287 991,-3420 634,80 1289,123 2002,142 713,-19 1367,-62 2002,-142 600,1133 1137,2406 991,3420 -242,1665 -1445,1956 -2993,1956z" style="fill:#7db2c3"/>
  <path class="Body-Pig1fil10" d="M12621 23067c-1016,-156 -1749,-629 -1932,-1888 -75,-519 29,-1106 229,-1707 -223,2001 402,3257 1703,3595z" style="fill:#45b8de"/>
  <path class="Body-Pig1fil84" d="M11012 22144c-250,-321 -348,-641 -397,-954 -59,-377 -24,-998 184,-1320 -78,421 -93,905 -36,1298 50,341 104,572 249,976z" style="fill:#97b6b5"/>
  <path class="Body-Pig1fil10" d="M14743 23067c1016,-156 1749,-629 1932,-1888 75,-519 -29,-1106 -229,-1707 223,2001 -402,3257 -1703,3595z" style="fill:#a48d97"/>
  <path class="Body-Pig1fil84" d="M16352 22144c250,-321 347,-641 397,-954 59,-377 24,-998 -184,-1320 78,421 93,905 36,1298 -50,341 -104,572 -249,976z" style="fill:#e2f0d6"/>
  <path class="Body-Pig1fil85" d="M13682 18283c-887,0 -1587,-322 -1922,364 -851,1742 -881,4090 1922,4090 2803,0 2773,-2348 1922,-4090 -336,-686 -1035,-364 -1922,-364z" style="fill:#2b32be"/>
 </g><g id="RightPaw-Pig10">
 <animateTransform additive="sum" attributeName="transform" dur="10" repeatCount="indefinite" type="translate" values="0;0 200;0;0 200;0;0 200;0;0 200;0"/>
  <metadata id="CorelCorpID_59Corel-Layer"/>
  <path class="RightPaw-Pig10fil74" d="M18486 19871c155,269 247,281 434,498 211,244 446,948 341,1067 -34,39 -389,8 -389,8 -15,58 -145,373 -188,392 -161,73 -598,-324 -814,-554 -63,111 -195,178 -216,147 -79,-27 -146,-195 -211,-374 -34,-92 -45,-318 -86,-348 139,-387 621,-775 1129,-836z" style="fill:#5243a3"/>
  <path class="RightPaw-Pig10fil51" d="M18063 19685c64,96 204,233 173,396 -121,-193 -339,-214 -585,-235 238,177 108,282 254,484 -200,-157 -432,-58 -531,-118 16,106 146,295 254,363 -96,58 -223,-45 -463,-38 162,64 47,59 219,189 25,86 -26,97 59,329 65,179 132,347 211,374 21,31 153,-36 216,-147 216,230 653,627 814,554 43,-19 173,-334 188,-392 0,0 355,31 389,-8 105,-119 -130,-823 -341,-1067 -248,-288 -190,-203 -432,-495 -83,-100 -255,-190 -425,-189z" style="fill:#982383"/>
  <path class="RightPaw-Pig10fil10" d="M17452 20518c31,24 62,48 92,70 4,3 39,31 43,34 13,14 26,28 39,43 79,93 97,228 104,283 2,13 3,21 4,24 -2,92 -166,169 -227,208 0,-8 -67,-223 -116,-364 0,-31 3,-54 -7,-90 -9,-6 -18,-13 -27,-19 23,-64 55,-127 95,-189z" style="fill:#651993"/>
  <path class="RightPaw-Pig10fil77" d="M18910 20358c-402,-76 -337,407 -242,635 -239,-309 -538,-414 -692,-297 -104,79 -113,131 -203,226 -99,104 -339,-108 -394,-184 -18,147 139,645 275,691 21,31 153,-36 216,-147 216,230 653,627 814,554 43,-19 173,-334 188,-392 0,0 355,31 389,-8 109,-123 -135,-862 -351,-1078z" style="fill:#19f3b6"/>
  <path class="RightPaw-Pig10fil10" d="M18804 21498c-67,307 -352,47 -875,-255 4,66 -100,45 -131,-12 -41,-92 -52,-190 -68,-283 -88,22 -225,-79 -303,-156 -5,-5 -11,-11 -16,-16 49,174 144,541 243,653 90,2 173,-73 216,-147 195,208 586,566 808,522 90,-18 70,-138 126,-306z" style="fill:#c2ef4d"/>
  <polygon class="RightPaw-Pig10fil40" points="18796,21484 18678,21021 18973,21393 "/>
  <path class="RightPaw-Pig10fil0 RightPaw-Pig10str2" d="M17136 20561c121,75 170,94 271,202 1,149 38,330 93,461 54,128 115,197 196,208 55,8 128,-6 194,-123 208,221 642,571 796,501 41,-19 164,-344 179,-400 0,0 356,75 389,38 86,-99 -94,-785 -280,-992 -109,-122 -404,-420 -409,-427 -68,-85 -123,-182 -179,-276" style="fill:#2011c1"/>
 </g><g id="LeftPaw-Pig10">
 <animateTransform additive="sum" attributeName="transform" dur="10" repeatCount="indefinite" type="translate" values="0;0 200;0;0 200;0;0 200;0;0 200;0"/>
  <metadata id="CorelCorpID_81Corel-Layer"/>
  <path class="LeftPaw-Pig10fil91" d="M8878 19871c-155,269 -247,281 -434,498 -211,244 -446,948 -341,1067 34,39 388,8 388,8 16,58 146,373 189,392 161,73 598,-324 814,-554 63,111 195,178 216,147 79,-27 146,-195 211,-374 34,-92 45,-318 85,-348 -138,-387 -621,-775 -1128,-836z" style="fill:#e7541e"/>
  <path class="LeftPaw-Pig10fil51" d="M9301 19685c-64,96 -204,233 -173,396 121,-193 339,-214 585,-235 -238,177 -108,282 -254,484 200,-157 432,-58 531,-118 -16,106 -146,295 -254,363 96,58 222,-45 463,-38 -162,64 -47,59 -219,189 -25,86 26,97 -59,329 -65,179 -132,347 -211,374 -21,31 -153,-36 -216,-147 -216,230 -653,627 -814,554 -43,-19 -173,-334 -189,-392 0,0 -354,31 -388,-8 -105,-119 130,-823 341,-1067 248,-288 190,-203 432,-495 83,-100 255,-190 425,-189z" style="fill:#9dbeb2"/>
  <path class="LeftPaw-Pig10fil10" d="M9912 20518c-31,24 -62,48 -92,70 -4,3 -39,31 -43,34 -14,14 -27,28 -39,43 -79,93 -97,228 -104,283 -2,13 -3,21 -4,24 2,92 166,169 226,208 0,-8 68,-223 117,-364 -1,-31 -3,-54 7,-90 9,-6 18,-13 26,-19 -22,-64 -54,-127 -94,-189z" style="fill:#478303"/>
  <path class="LeftPaw-Pig10fil94" d="M8454 20358c401,-76 337,407 242,635 239,-309 538,-414 692,-297 104,79 113,131 203,226 99,104 339,-108 394,-184 18,147 -140,645 -275,691 -21,31 -153,-36 -216,-147 -216,230 -653,627 -814,554 -43,-19 -173,-334 -189,-392 0,0 -354,31 -388,-8 -109,-123 135,-862 351,-1078z" style="fill:#5358b7"/>
  <path class="LeftPaw-Pig10fil10" d="M8560 21498c67,307 352,47 875,-255 -5,66 100,45 131,-12 40,-92 52,-190 68,-283 88,22 225,-79 303,-156 5,-5 11,-11 16,-16 -49,174 -144,541 -243,653 -90,2 -173,-73 -216,-147 -196,208 -586,566 -808,522 -90,-18 -70,-138 -126,-306z" style="fill:#552c83"/>
  <polygon class="LeftPaw-Pig10fil40" points="8568,21484 8686,21021 8391,21393 "/>
  <path class="LeftPaw-Pig10fil0 LeftPaw-Pig10str2" d="M10228 20561c-121,75 -170,94 -272,202 0,149 -37,330 -92,461 -55,128 -115,197 -196,208 -55,8 -128,-6 -194,-123 -208,221 -642,571 -797,501 -41,-19 -163,-344 -178,-400 0,0 -356,75 -389,38 -86,-99 94,-785 280,-992 109,-122 404,-420 409,-427 68,-85 123,-182 179,-276" style="fill:#375c0d"/>
 </g><g id="NecklaceButterflyRed">
 <animateTransform additive="sum" attributeName="transform" dur="10" repeatCount="indefinite" type="translate" values="0;0 200;0;0 200;0;0 200;0;0 200;0"/>
  <metadata id="CorelCorpID_16Corel-Layer"/>
  <path class="NecklaceButterflyRedfil79 NecklaceButterflyRedstr1" d="M13604 18252c-870,-172 -1867,-434 -2367,-1030 -126,0 -253,0 -379,0 423,687 1459,1121 2306,1291 136,-92 303,-169 440,-261z" style="fill:#74f6ad"/>
  <path class="NecklaceButterflyRedfil80" d="M13329 18180c-120,-49 -834,-243 -1314,-292 -480,-49 -458,323 -361,638 90,291 32,576 132,875 181,539 1125,-297 1572,-556 -10,-222 -19,-443 -29,-665z" style="fill:#2ea451"/>
  <path class="NecklaceButterflyRedfil33" d="M12696 18074c-1338,-388 -1057,71 -984,452 -72,-448 499,-539 984,-452z" style="fill:#c9991d"/>
  <path class="NecklaceButterflyRedfil11 NecklaceButterflyRedstr1" d="M13329 18180c-120,-49 -834,-243 -1314,-292 -480,-49 -458,323 -361,638 90,291 32,576 132,875 181,539 1125,-297 1572,-556 -10,-222 -19,-443 -29,-665z" style="fill:#b7b650"/>
  <path class="NecklaceButterflyRedfil55" d="M13649 18427c-661,-83 -1062,-315 -1122,-150 -72,199 381,183 640,237 -181,3 -481,-48 -474,95 8,170 350,64 485,60 -33,37 -819,150 -708,374 109,218 491,-136 1078,-336 2,-100 99,-180 101,-280z" style="fill:#10f762"/>
  <path class="NecklaceButterflyRedfil81 NecklaceButterflyRedstr1" d="M13760 18252c870,-172 1867,-434 2367,-1030 126,0 252,0 379,0 -423,687 -1459,1121 -2306,1291 -136,-92 -304,-169 -440,-261z" style="fill:#bf77f5"/>
  <path class="NecklaceButterflyRedfil82" d="M14035 18180c120,-49 834,-243 1314,-292 480,-49 458,323 361,638 -90,291 -32,576 -132,875 -181,539 -1125,-297 -1572,-556 10,-222 19,-443 29,-665z" style="fill:#d52d2b"/>
  <path class="NecklaceButterflyRedfil33" d="M14682 18074c1338,-388 1057,71 984,452 72,-448 -499,-539 -984,-452z" style="fill:#6a214d"/>
  <path class="NecklaceButterflyRedfil11 NecklaceButterflyRedstr1" d="M14035 18180c120,-49 834,-243 1314,-292 480,-49 458,323 361,638 -90,291 -32,576 -132,875 -181,539 -1125,-297 -1572,-556 10,-222 19,-443 29,-665z" style="fill:#215f04"/>
  <path class="NecklaceButterflyRedfil55" d="M13715 18427c661,-83 1062,-315 1122,-150 72,199 -381,183 -640,237 181,3 481,-48 474,95 -8,170 -350,64 -485,60 33,37 819,150 708,374 -109,218 -491,-136 -1078,-336 -2,-100 -99,-180 -101,-280z" style="fill:#244759"/>
  <path class="NecklaceButterflyRedfil83" d="M13682 18091l-283 0c-85,0 -155,70 -155,154l0 579c0,85 70,154 155,154l283 0 283 0c85,0 155,-69 155,-154l0 -579c0,-84 -70,-154 -155,-154l-283 0z" style="fill:#7633d2"/>
  <path class="NecklaceButterflyRedfil33" d="M13682 18048l-251 0c-75,0 -137,69 -137,154l0 261c0,-237 775,-237 775,0l0 -261c0,-85 -61,-154 -136,-154l-251 0z" style="fill:#5e1f78"/>
  <path class="NecklaceButterflyRedfil11 NecklaceButterflyRedstr1" d="M13682 18091l-283 0c-85,0 -155,70 -155,154l0 579c0,85 70,154 155,154l283 0 283 0c85,0 155,-69 155,-154l0 -579c0,-84 -70,-154 -155,-154l-283 0z" style="fill:#85c1a0"/>
 </g><g id="BraceletLeather-Medium">
 <animateTransform additive="sum" attributeName="transform" dur="10" repeatCount="indefinite" type="translate" values="0;0 200;0;0 200;0;0 200;0;0 200;0"/>
  <metadata id="CorelCorpID_17Corel-Layer"/>
  <path class="BraceletLeather-Mediumfil42new BraceletLeather-Mediumstr3new" d="M8689 19690c-86,-160 -115,-250 -201,-410 -29,-75 3,-239 44,-232 104,3 219,4 324,-2 3,181 43,415 96,612 -87,11 -175,21 -263,32z" style="fill:#41dd89"/>
  <path class="BraceletLeather-Mediumfil43new" d="M8689 19690c-86,-160 -115,-250 -201,-410 -29,-75 3,-239 44,-232l8 0c53,219 164,421 282,626l-133 16z" style="fill:#dd672e"/>
  <path class="BraceletLeather-Mediumfil33new BraceletLeather-Mediumstr3new" d="M8689 19690c-86,-160 -115,-250 -201,-410 -29,-75 3,-239 44,-232 104,3 219,4 324,-2 3,181 43,415 96,612 -87,11 -175,21 -263,32z" style="fill:#345cf2"/>
  <path class="BraceletLeather-Mediumfil44new BraceletLeather-Mediumstr3new" d="M8645 19884c-170,-64 -251,-113 -421,-177 -71,-38 -153,-183 -118,-204 81,-66 168,-141 243,-214 121,135 304,285 474,399 -59,66 -118,131 -178,196z" style="fill:#c6df47"/>
  <path class="BraceletLeather-Mediumfil43new" d="M8645 19884c-170,-64 -251,-113 -421,-177 -71,-38 -153,-183 -118,-204l6 -5c184,130 400,211 623,288l-90 98z" style="fill:#e57754"/>
  <path class="BraceletLeather-Mediumfil33new BraceletLeather-Mediumstr3new" d="M8645 19884c-170,-64 -251,-113 -421,-177 -71,-38 -153,-183 -118,-204 81,-66 168,-141 243,-214 121,135 304,285 474,399 -59,66 -118,131 -178,196z" style="fill:#999063"/>
  <path class="BraceletLeather-Mediumfil45new BraceletLeather-Mediumstr4new" d="M8734 19936c-151,-67 -255,-143 -151,-272 117,-147 267,-135 481,-33 407,194 958,608 1165,923 91,139 91,306 -39,409 -129,103 -210,-20 -308,-153 -243,-331 -765,-704 -1148,-874z" style="fill:#2978ba"/>
  <path class="BraceletLeather-Mediumfil46new" d="M8734 19936c-79,-35 -145,-73 -176,-119 77,-41 167,-29 240,0 506,201 953,539 1254,974 48,70 58,140 38,210 -76,-6 -138,-95 -208,-191 -243,-331 -765,-704 -1148,-874z" style="fill:#6ef8ec"/>
  <path class="BraceletLeather-Mediumfil47new BraceletLeather-Mediumstr4new" d="M8734 19936c-151,-67 -255,-143 -151,-272 117,-147 267,-135 481,-33 407,194 958,608 1165,923 91,139 91,306 -39,409 -129,103 -210,-20 -308,-153 -243,-331 -765,-704 -1148,-874z" style="fill:#5b779a"/>
  <path class="BraceletLeather-Mediumfil48new BraceletLeather-Mediumstr3new" d="M18674 19690c87,-160 116,-250 202,-410 29,-75 -3,-239 -44,-232 -104,3 -219,4 -324,-2 -3,181 -43,415 -97,612 88,11 176,21 263,32z" style="fill:#4c0503"/>
  <path class="BraceletLeather-Mediumfil43new" d="M18674 19690c87,-160 116,-250 202,-410 29,-75 -3,-239 -44,-232l-8 0c-53,219 -164,421 -282,626l132 16z" style="fill:#fac731"/>
  <path class="BraceletLeather-Mediumfil33new BraceletLeather-Mediumstr3new" d="M18674 19690c87,-160 116,-250 202,-410 29,-75 -3,-239 -44,-232 -104,3 -219,4 -324,-2 -3,181 -43,415 -97,612 88,11 176,21 263,32z" style="fill:#f667f1"/>
  <path class="BraceletLeather-Mediumfil49new BraceletLeather-Mediumstr3new" d="M18718 19884c170,-64 252,-113 422,-177 71,-38 153,-183 118,-204 -81,-66 -168,-141 -243,-214 -121,135 -305,285 -475,399 60,66 119,131 178,196z" style="fill:#19174b"/>
  <path class="BraceletLeather-Mediumfil43new" d="M18718 19884c170,-64 252,-113 422,-177 71,-38 153,-183 118,-204l-6 -5c-184,130 -400,211 -623,288l89 98z" style="fill:#f52021"/>
  <path class="BraceletLeather-Mediumfil33new BraceletLeather-Mediumstr3new" d="M18718 19884c170,-64 252,-113 422,-177 71,-38 153,-183 118,-204 -81,-66 -168,-141 -243,-214 -121,135 -305,285 -475,399 60,66 119,131 178,196z" style="fill:#22690f"/>
  <path class="BraceletLeather-Mediumfil50new BraceletLeather-Mediumstr4new" d="M18630 19936c151,-67 255,-143 151,-272 -117,-147 -267,-135 -481,-33 -407,194 -958,608 -1165,923 -91,139 -91,306 39,409 129,103 210,-20 307,-153 244,-331 766,-704 1149,-874z" style="fill:#7ecbc8"/>
  <path class="BraceletLeather-Mediumfil46new" d="M18630 19936c79,-35 145,-73 175,-119 -76,-41 -166,-29 -239,0 -507,201 -954,539 -1254,974 -48,70 -58,140 -38,210 76,-6 137,-95 207,-191 244,-331 766,-704 1149,-874z" style="fill:#dc2b2f"/>
  <path class="BraceletLeather-Mediumfil47new BraceletLeather-Mediumstr4new" d="M18630 19936c151,-67 255,-143 151,-272 -117,-147 -267,-135 -481,-33 -407,194 -958,608 -1165,923 -91,139 -91,306 39,409 129,103 210,-20 307,-153 244,-331 766,-704 1149,-874z" style="fill:#953d0c"/>
 </g><g id="Head-Pig1">
 <animateTransform additive="sum" attributeName="transform" dur="10" repeatCount="indefinite" type="translate" values="0;0 200;0;0 200;0;0 200;0;0 200;0"/>
  <metadata id="CorelCorpID_96Corel-Layer"/>
  <path class="Head-Pig1fil160" d="M10090 8967c-564,472 -965,1039 -1323,1636 -28,46 -55,102 -82,149 -105,179 -200,391 -302,573 -611,1185 -1006,1397 -934,2868 118,2421 2509,3357 4628,3643 571,77 1124,101 1605,101 481,0 1034,-24 1605,-101 2119,-286 4510,-1222 4628,-3643 72,-1471 -323,-1683 -934,-2868 -102,-182 -198,-394 -302,-573 -28,-47 -54,-103 -82,-149 -358,-597 -759,-1164 -1324,-1636 -1249,-1046 -2354,-1447 -3590,-1474l-1 0 -1 0c-1236,27 -2341,428 -3591,1474z" style="fill:#ef1b09"/>
  <path class="Head-Pig1fil161" d="M11011 10284c-943,-245 -1264,313 -2147,1484 -218,289 -451,622 -550,930 -149,463 -194,939 9,1354 485,957 1684,924 2653,546 659,-257 1269,-724 1365,-1531 130,-1092 -406,-2543 -1330,-2783z" style="fill:#aaea7b"/>
  <path class="Head-Pig1fil10" d="M8595 11042c-473,768 -891,1422 -1070,2009 -158,520 -73,1353 39,1856 421,1891 2663,2792 5075,2988 -2326,-552 -4001,-1593 -4496,-3087 -323,-975 -154,-2267 452,-3766z" style="fill:#b7ffd9"/>
  <path class="Head-Pig1fil84" d="M9861 9172c974,-1177 2398,-1757 3821,-1747 1423,-10 2847,570 3821,1747 -1223,-1081 -2522,-1612 -3821,-1603 -1299,-9 -2598,522 -3821,1603z" style="fill:#3c9503"/>
  <path class="Head-Pig1fil84" d="M8768 10601c-179,508 -382,903 -718,1463 -406,679 -582,1421 -536,2131 131,1999 1755,2951 3508,3372 210,51 827,205 1390,308 -522,-14 -1257,-122 -1418,-161 -1810,-434 -3533,-1443 -3636,-3515 -36,-724 131,-1489 564,-2211 314,-524 479,-741 846,-1387z" style="fill:#ee0fac"/>
  <path class="Head-Pig1fil84" d="M18596 10601c179,508 382,903 717,1463 407,679 583,1421 537,2131 -131,1999 -1755,2951 -3508,3372 -210,51 -828,205 -1390,308 522,-14 1257,-122 1418,-161 1810,-434 3533,-1443 3636,-3515 36,-724 -131,-1489 -564,-2211 -314,-524 -479,-741 -846,-1387z" style="fill:#a61918"/>
 </g><g id="Mouth-Pig10">
 <animateTransform additive="sum" attributeName="transform" dur="10" repeatCount="indefinite" type="translate" values="0;0 200;0;0 200;0;0 200;0;0 200;0"/>
  <metadata id="CorelCorpID_113Corel-Layer"/>
  <g id="_2991504383152">
   <path class="Mouth-Pig10fil0 Mouth-Pig10str0" d="M16391 15096c-124,142 -303,119 -445,156 -110,28 -248,142 -358,136 -176,-10 -332,-60 -400,-72 -329,-57 -652,293 -737,388" style="fill:#733040"/>
   <path class="Mouth-Pig10fil0 Mouth-Pig10str0" d="M10973 15096c124,142 303,119 445,156 110,28 248,142 358,136 176,-10 332,-60 399,-72 330,-57 653,293 737,388" style="fill:#b911ae"/>
   <path class="Mouth-Pig10fil172" d="M12761 16255c362,46 559,161 921,161 362,0 559,-115 921,-161 -346,142 -563,318 -921,318 -358,0 -575,-176 -921,-318z" style="fill:#845922"/>
   <path class="Mouth-Pig10fil169" d="M13682 14578c131,-71 2089,406 1605,830 -396,-21 -660,307 -723,384 -169,209 -492,317 -882,317 -390,0 -713,-108 -882,-317 -63,-77 -328,-405 -723,-384 -484,-424 1474,-901 1605,-830z" style="fill:#efeb66"/>
   <path class="Mouth-Pig10fil171" d="M14243 15783c-107,-146 -424,-164 -561,-57 -137,-107 -454,-89 -561,57 45,114 301,191 561,191 260,0 516,-77 561,-191z" style="fill:#49c724"/>
   <path class="Mouth-Pig10fil173 Mouth-Pig10str0" d="M16144 14125c0,0 -278,219 -258,711 9,199 110,465 -151,538 -142,40 -424,6 -432,-188 -9,-195 165,-925 841,-1061z" style="fill:#e21c72"/>
   <path class="Mouth-Pig10fil173 Mouth-Pig10str0" d="M11220 14125c0,0 278,219 257,711 -8,199 -109,465 152,538 142,40 424,6 432,-188 9,-195 -165,-925 -841,-1061z" style="fill:#fab180"/>
   <path class="Mouth-Pig10fil10" d="M15841 14949c-82,350 -517,195 -407,-48 -16,-52 -252,428 152,454 138,9 225,-15 271,-81 73,-102 30,-303 -16,-325z" style="fill:#3d349b"/>
   <path class="Mouth-Pig10fil10" d="M11523 14949c82,350 517,195 407,-48 16,-52 252,428 -152,454 -138,9 -225,-15 -271,-81 -73,-102 -30,-303 16,-325z" style="fill:#c9fb5b"/>
   <path class="Mouth-Pig10fil169" d="M16219 15274c-44,14 -59,-86 -132,-93 -9,-1 138,-35 179,-88 102,-131 238,-94 244,-14 7,102 -203,166 -291,195z" style="fill:#7bf95e"/>
   <path class="Mouth-Pig10fil169" d="M11145 15274c44,14 59,-86 132,-93 9,-1 -138,-35 -179,-88 -102,-131 -238,-94 -244,-14 -7,102 203,166 291,195z" style="fill:#fcb8bc"/>
  </g>
 </g><g id="EyesClosed-Pig9">
 <animateTransform additive="sum" attributeName="transform" dur="10" repeatCount="indefinite" type="translate" values="0;0 200;0;0 200;0;0 200;0;0 200;0"/>
  <metadata id="CorelCorpID_134Corel-Layer"/>
  <g id="_2991533207088">
   <path class="EyesClosed-Pig9fil38" d="M17001 10300c-57,131 -516,301 -943,673 -391,341 -602,759 -809,758 -229,-1 -320,-450 -218,-710 84,-214 483,-587 984,-766 591,-211 1055,-115 986,45z"/>
   <path class="EyesClosed-Pig9fil148" d="M17001 10300c-57,131 -516,301 -943,673 -391,341 -602,759 -809,758 -229,-1 -320,-450 -218,-710 84,-214 483,-587 984,-766 591,-211 1055,-115 986,45z"/>
  </g>
  <g id="_2991533207760">
   <path class="EyesClosed-Pig9fil38" d="M10363 10300c57,131 516,301 943,673 391,341 602,759 808,758 230,-1 321,-450 219,-710 -84,-214 -484,-587 -984,-766 -591,-211 -1055,-115 -986,45z"/>
   <path class="EyesClosed-Pig9fil148" d="M10363 10300c57,131 516,301 943,673 391,341 602,759 808,758 230,-1 321,-450 219,-710 -84,-214 -484,-587 -984,-766 -591,-211 -1055,-115 -986,45z"/>
  </g>
  <path class="EyesClosed-Pig9fil84" d="M15494 13742c-74,-13 -76,-85 -9,-93 423,-50 1995,-305 2780,-832 115,-77 178,-127 267,-221 44,-46 73,-86 108,-79 108,23 30,179 9,231 -308,774 -1612,1018 -3155,994z"/>
  <path class="EyesClosed-Pig9fil84" d="M11870 13742c74,-13 76,-85 9,-93 -423,-50 -1995,-305 -2780,-832 -115,-77 -178,-127 -267,-221 -44,-46 -73,-86 -108,-79 -108,23 -30,179 -10,231 309,774 1613,1018 3156,994z"/>
 </g><g id="Eyes-Pig9">
 <animate attributeName="opacity" dur="10" repeatCount="indefinite" values="0;1;1;1;1;1;1;1;1;1;1;1;1;1;1;1;1;1;1;1;1;1;1;1;1;1;1;1;1;1;1;1;1;1;1;1;1;1;1;1;1;1;1;1;1;1;1;1;1;1;1;1;1;1;1;1;1;1;1;1;1;1;1;1;1;1;1;1;1;1;1;1;1;1;1;1;1;1;1;1;1;1;1;1;0;0"/>
 <animateTransform additive="sum" attributeName="transform" dur="10" repeatCount="indefinite" type="translate" values="0;0 200;0;0 200;0;0 200;0;0 200;0"/>
  <metadata id="CorelCorpID_135Corel-Layer"/>
  <g id="_2991533203472">
   <path class="Eyes-Pig9fil226" d="M15655 13804c-299,-174 -334,-515 -332,-844 3,-301 26,-590 135,-770 292,-480 1316,-1120 2066,-1097 264,8 486,223 707,450 286,292 409,765 421,1184 27,1046 -927,1522 -1788,1512 -481,-5 -834,-217 -1209,-435z"/>
   <path class="Eyes-Pig9fil227" d="M15666 11951c478,-293 1194,-628 1786,-792 177,78 320,206 478,396 614,737 274,1782 -186,2105 -558,391 -1354,295 -1750,20 -228,-159 -516,-447 -620,-799 -66,-224 -203,-626 292,-930z"/>
   <path class="Eyes-Pig9fil228" d="M15587 11982c172,-108 422,-343 644,-453 269,-133 502,-184 783,-285 529,192 905,785 766,1396 -368,1617 -2500,823 -2199,-500 78,-346 -15,-105 6,-158z"/>
   <path class="Eyes-Pig9fil148" d="M15365 13403c-125,-545 -37,-1050 141,-1331 224,-354 726,-586 1223,-774 376,-142 765,-303 1090,-101 239,149 598,539 707,836 93,255 151,667 114,933 -127,-464 -335,-887 -586,-1073 -489,-364 -2028,213 -2396,648 -221,263 -286,407 -293,862z"/>
   <g>
    <circle class="Eyes-Pig9fil173" r="235" transform="matrix(-0.127023 2.18149 1.98577 0.284037 17238.7 11929.4)"/>
    <circle class="Eyes-Pig9fil173" r="235" transform="matrix(-0.686977 0.523683 0.42619 0.668712 18124.5 13261.3)"/>
    <circle class="Eyes-Pig9fil173" r="235" transform="matrix(-0.252399 0.323889 0.276862 0.255805 18358.4 12924)"/>
   </g>
   <path class="Eyes-Pig9fil0 Eyes-Pig9str0" d="M15497 13682c98,115 513,326 647,387 1118,511 2466,-181 2507,-1257 22,-583 -346,-1434 -907,-1655 -364,-143 -1162,140 -1739,505 -402,254 -554,459 -624,718 -83,309 -113,1035 116,1302z"/>
  </g>
  <g id="_2991533200240">
   <path class="Eyes-Pig9fil229" d="M11709 13804c299,-174 334,-515 331,-844 -2,-301 -25,-590 -134,-770 -292,-480 -1316,-1120 -2066,-1097 -264,8 -486,223 -707,450 -286,292 -410,765 -421,1184 -28,1046 927,1522 1788,1512 481,-5 834,-217 1209,-435z"/>
   <path class="Eyes-Pig9fil230" d="M11698 11951c-478,-293 -1194,-628 -1786,-792 -177,78 -320,206 -478,396 -615,737 -274,1782 186,2105 558,391 1354,295 1750,20 228,-159 516,-447 620,-799 66,-224 203,-626 -292,-930z"/>
   <path class="Eyes-Pig9fil231" d="M11777 11982c-172,-108 -423,-343 -644,-453 -269,-133 -502,-184 -783,-285 -529,192 -905,785 -766,1396 367,1617 2500,823 2199,-500 -78,-346 14,-105 -6,-158z"/>
   <path class="Eyes-Pig9fil148" d="M11999 13403c124,-545 37,-1050 -141,-1331 -224,-354 -726,-586 -1223,-774 -376,-142 -766,-303 -1091,-101 -238,149 -597,539 -706,836 -93,255 -151,667 -114,933 126,-464 335,-887 586,-1073 489,-364 2028,213 2395,648 222,263 287,407 294,862z"/>
   <g>
    <circle class="Eyes-Pig9fil173" r="235" transform="matrix(0.127023 2.18149 -1.98577 0.284037 10125.1 11929.4)"/>
    <circle class="Eyes-Pig9fil173" r="235" transform="matrix(0.686977 0.523683 -0.42619 0.668712 9239.4 13261.3)"/>
    <circle class="Eyes-Pig9fil173" r="235" transform="matrix(0.252399 0.323889 -0.276862 0.255805 9005.45 12924)"/>
   </g>
   <path class="Eyes-Pig9fil0 Eyes-Pig9str0" d="M11867 13682c-98,115 -513,326 -647,387 -1118,511 -2467,-181 -2507,-1257 -22,-583 346,-1434 907,-1655 364,-143 1162,140 1739,505 402,254 554,459 624,718 83,309 113,1035 -116,1302z"/>
  </g>
 </g><g id="Moustache-Pig3">
 <animateTransform additive="sum" attributeName="transform" dur="10" repeatCount="indefinite" type="translate" values="0;0 200;0;0 200;0;0 200;0;0 200;0"/>
  <metadata id="CorelCorpID_139Corel-Layer"/>
  <path class="Moustache-Pig3fil234" d="M10904 16360c18,1 82,389 307,458 92,29 54,-287 160,-188 51,48 159,299 235,358 60,46 84,-101 155,-52 444,308 1055,622 1284,416 233,-209 -273,-240 56,-316 17,-4 119,84 169,76 56,-9 70,-173 129,-148 183,77 245,-10 283,-10 38,0 100,87 283,10 59,-25 73,139 129,148 50,8 152,-80 169,-76 329,76 -177,107 55,316 229,206 841,-108 1285,-416 71,-49 95,98 155,52 76,-59 184,-310 234,-358 107,-99 69,217 161,188 225,-69 289,-457 306,-458 428,508 -378,1121 -737,1290 -307,145 -866,312 -1200,421 -5,-42 1,-166 24,-183 -356,117 -586,377 -694,392 16,-65 -123,-279 -170,-360 -47,81 -166,223 -151,288 -107,-15 -357,-203 -713,-320 23,17 29,141 24,183 -334,-109 -893,-276 -1200,-421 -360,-169 -1165,-782 -738,-1290z" style="fill:#02e74a"/>
  <path class="Moustache-Pig3fil84" d="M16389 17131c-259,461 -1484,895 -1627,941 -67,21 -129,41 -217,70 -39,13 -81,-9 -94,-48 -2,-6 -3,-13 -3,-19 -2,-17 -3,-42 -2,-68 -146,67 -267,154 -361,222 -92,66 -161,116 -223,125 -41,5 -69,-23 -74,-64 -9,-67 -75,-173 -109,-229 -44,64 -108,193 -133,220 -9,2 -16,2 -24,1 -61,-9 -140,-50 -243,-105 -98,-52 -220,-117 -362,-174 2,31 1,60 -1,77 -6,41 -43,70 -84,65 -5,-1 -9,-2 -14,-3 -87,-29 -149,-49 -216,-70 -146,-46 -1177,-386 -1578,-883 645,474 1437,681 1623,741l118 37 25 5c-2,-13 -14,-20 -16,-24 -26,-19 -37,-52 -27,-84 13,-39 55,-61 95,-48 207,69 378,159 507,228 50,27 94,50 128,66 22,-50 57,-102 90,-150l2 -4c19,-28 37,-55 48,-73 6,-11 16,-21 28,-28 35,-21 81,-8 102,27 5,9 16,27 28,48 41,68 97,162 129,244 26,-17 58,-40 93,-66 128,-93 302,-218 525,-292l0 1c29,-10 62,-1 82,24 26,33 20,80 -12,105 -20,16 -16,22 7,21l118 -37c190,-61 1329,-427 1672,-799z" style="fill:#0ca48e"/>
  <path class="Moustache-Pig3fil10" d="M11851 17651c0,0 682,180 719,180 37,0 -109,-185 -109,-185 0,0 467,94 605,125 137,32 15,-244 86,-407 111,316 213,379 321,495 71,-113 157,-385 179,-432 100,692 494,565 892,145 5,85 54,301 113,329 60,29 826,-207 826,-207 0,0 -918,417 -939,397 -22,-20 -35,-179 -35,-179 0,0 -548,265 -619,366 -71,101 -175,-272 -218,-341 -43,-70 -191,256 -191,256l-651 -283 12 161c0,0 -911,-297 -991,-420z" style="fill:#c2ab3e"/>
 </g><g id="Nose-Pig5">
 <animateTransform additive="sum" attributeName="transform" dur="10" repeatCount="indefinite" type="translate" values="0;0 200;0;0 200;0;0 200;0;0 200;0"/>
  <metadata id="CorelCorpID_146Corel-Layer"/>
  <g id="_2991533227280">
   <path class="Nose-Pig5fil243 Nose-Pig5str0" d="M12824 13860c-277,264 -737,217 -824,705 -138,774 424,821 745,847 522,43 656,-92 937,-92 287,0 353,143 891,96 309,-27 936,-37 791,-851 -87,-488 -547,-441 -824,-705 -215,-204 -537,-306 -858,-306 -322,0 -643,102 -858,306z" style="fill:#fe5a1b"/>
   <g>
    <path class="Nose-Pig5fil26 Nose-Pig5str3" d="M14166 14716c2,135 174,273 382,309 209,36 375,-45 373,-180 -3,-135 -174,-273 -383,-308 -208,-36 -375,44 -372,179z" style="fill:#75cf2c"/>
    <path class="Nose-Pig5fil237 Nose-Pig5str3" d="M14166 14716c2,135 174,273 382,309 209,36 375,-45 373,-180 -3,-135 -174,-273 -383,-308 -208,-36 -375,44 -372,179z" style="fill:#73cea7"/>
   </g>
   <g>
    <path class="Nose-Pig5fil26 Nose-Pig5str3" d="M13201 14733c-9,135 -186,265 -396,292 -210,26 -373,-62 -364,-197 8,-134 186,-265 396,-291 210,-26 373,62 364,196z" style="fill:#965627"/>
    <path class="Nose-Pig5fil237 Nose-Pig5str3" d="M13201 14733c-9,135 -186,265 -396,292 -210,26 -373,-62 -364,-197 8,-134 186,-265 396,-291 210,-26 373,62 364,196z" style="fill:#56bc82"/>
   </g>
  </g>
 </g><g id="HatBaseballWhite-Medium">
 <animateTransform additive="sum" attributeName="transform" dur="10" repeatCount="indefinite" type="translate" values="0;0 200;0;0 200;0;0 200;0;0 200;0"/>
  <metadata id="CorelCorpID_47Corel-Layer"/>
  <path class="HatBaseballWhite-Mediumfil12" d="M8128 12979c0,0 735,1133 2036,892 1301,-241 2301,-693 3651,-627 2058,101 3012,446 3759,518 572,56 1201,-691 1675,-1060 -1808,-442 -3940,-1257 -5747,-1699 -1615,610 -3760,1366 -5374,1976z" style="fill:#98ce40"/>
  <path class="HatBaseballWhite-Mediumfil295 HatBaseballWhite-Mediumstr1" d="M13478 5443c395,-10 720,133 725,319 5,187 -312,346 -708,356 -395,11 -720,-132 -725,-318 -5,-187 312,-346 708,-357z" style="fill:#9cee22"/>
  <path class="HatBaseballWhite-Mediumfil296" d="M13488 5822c-1432,37 -3230,615 -4505,1987 -1285,1383 -1915,5062 -1357,4914 1218,-1165 3599,-1794 5994,-1857 2395,-63 4805,441 6083,1541 565,118 -257,-3523 -1613,-4837 -1345,-1303 -3170,-1786 -4602,-1748z" style="fill:#0ce0e1"/>
  <path class="HatBaseballWhite-Mediumfil165 HatBaseballWhite-Mediumstr8" d="M12581 5913c-3093,716 -3975,3417 -4148,5902" style="fill:#2c09e8"/>
  <path class="HatBaseballWhite-Mediumfil165 HatBaseballWhite-Mediumstr8" d="M14398 5865c3126,553 4148,3204 4451,5677" style="fill:#19d21e"/>
  <path class="HatBaseballWhite-Mediumfil165 HatBaseballWhite-Mediumstr9" d="M13676 10317c-146,-1834 -78,-3001 -239,-4504" style="fill:#949fce"/>
  <path class="HatBaseballWhite-Mediumfil165 HatBaseballWhite-Mediumstr8" d="M13417 10340c-96,-1369 -115,-2765 -243,-3876 -42,-360 -6,-592 48,-632" style="fill:#c4084a"/>
  <path class="HatBaseballWhite-Mediumfil165 HatBaseballWhite-Mediumstr8" d="M13966 10326c-56,-1371 -193,-2760 -188,-3879 2,-362 -60,-589 -118,-622" style="fill:#7d2159"/>
  <path class="HatBaseballWhite-Mediumfil167" d="M10252 6781c-383,252 -941,675 -1269,1028 -1285,1383 -1915,5062 -1357,4914 353,-337 552,-596 1072,-843 -945,524 -284,-3404 1554,-5099z" style="fill:#4a824f"/>
  <path class="HatBaseballWhite-Mediumfil11 HatBaseballWhite-Mediumstr1" d="M13488 5822c-1432,37 -3230,615 -4505,1987 -1285,1383 -1915,5062 -1357,4914 1218,-1165 3599,-1794 5994,-1857 2395,-63 4805,441 6083,1541 565,118 -257,-3523 -1613,-4837 -1345,-1303 -3170,-1786 -4602,-1748z" style="fill:#54f59c"/>
  <path class="HatBaseballWhite-Mediumfil297 HatBaseballWhite-Mediumstr1" d="M7626 12723c73,263 469,746 750,801 764,150 1817,-1303 5277,-1394 3460,-90 4587,1305 5343,1116 278,-70 648,-573 707,-839 -1791,-2894 -10441,-2667 -12077,316z" style="fill:#fab4d5"/>
  <path class="HatBaseballWhite-Mediumfil12" d="M7626 12723c73,263 469,746 750,801 764,150 1817,-1303 5277,-1394 3460,-90 4587,1305 5343,1116 104,-26 220,-112 329,-224 -606,325 -1967,-1146 -5281,-1222 -2862,-66 -4884,1248 -5655,50 -325,258 -586,550 -763,873z" style="fill:#f94a4c"/>
  <path class="HatBaseballWhite-Mediumfil298" d="M18827 11683c419,1306 -2623,-271 -5321,66 1947,-58 3738,498 5066,1133 542,273 934,-136 1007,-447 -246,-337 -453,-544 -752,-752z" style="fill:#38a292"/>
 </g></svg>