<svg xmlns="http://www.w3.org/2000/svg" xmlns:xlink="http://www.w3.org/1999/xlink" style="shape-rendering:geometricPrecision; text-rendering:geometricPrecision; image-rendering:optimizeQuality; fill-rule:evenodd; clip-rule:evenodd" version="1.1" viewBox="0 0 29000 29000" xml:space="preserve"><defs><style type="text/css">.HairBack-Pig0fil0 {fill:none}
.Tail-Pig3fil10 {fill:black;fill-opacity:0.200000}
.Tail-Pig3fil29 {fill:url(#Tail-Pig3id132)}
.Tail-Pig3fil30 {fill:black;fill-rule:nonzero}
.Tail-Pig3fil26 {fill:black;fill-opacity:0.301961}
.Tail-Pig3fil28 {fill:#d0d6dd}
.Tail-Pig3str0 {stroke:black;stroke-width:150;stroke-linecap:round;stroke-linejoin:round}
.Tail-Pig3fil31 {fill:url(#Tail-Pig3id196)}
.Tail-Pig3str1 {stroke:black;stroke-width:150}
.RightFoot-Pig6fil37 {fill:#ffe8f2}
.RightFoot-Pig6fil47 {fill:url(#RightFoot-Pig6id139)}
.RightFoot-Pig6fil48 {fill:url(#RightFoot-Pig6id226)}
.RightFoot-Pig6fil40 {fill:black}
.RightFoot-Pig6fil10 {fill:black;fill-opacity:0.200000}
.RightFoot-Pig6fil0 {fill:none}
.RightFoot-Pig6str2 {stroke:black;stroke-width:150;stroke-linecap:round;stroke-linejoin:round}
.RightLeg-Pig4fil52 {fill:url(#RightLeg-Pig4id37)}
.RightLeg-Pig4fil10 {fill:black;fill-opacity:0.200000}
.RightLeg-Pig4fil0 {fill:none}
.RightLeg-Pig4str2 {stroke:black;stroke-width:150;stroke-linecap:round;stroke-linejoin:round}
.LeftFoot-Pig6fil37 {fill:#ffe8f2}
.LeftFoot-Pig6fil60 {fill:url(#LeftFoot-Pig6id137)}
.LeftFoot-Pig6fil61 {fill:url(#LeftFoot-Pig6id221)}
.LeftFoot-Pig6fil40 {fill:black}
.LeftFoot-Pig6fil10 {fill:black;fill-opacity:0.200000}
.LeftFoot-Pig6fil0 {fill:none}
.LeftFoot-Pig6str2 {stroke:black;stroke-width:150;stroke-linecap:round;stroke-linejoin:round}
.LeftLeg-Pig4fil67 {fill:url(#LeftLeg-Pig4id2)}
.LeftLeg-Pig4fil10 {fill:black;fill-opacity:0.200000}
.LeftLeg-Pig4fil0 {fill:none}
.LeftLeg-Pig4str2 {stroke:black;stroke-width:150;stroke-linecap:round;stroke-linejoin:round}
.RightHand-Pig0fil68 {fill:url(#RightHand-Pig0id57)}
.RightHand-Pig0fil10 {fill:black;fill-opacity:0.200000}
.RightHand-Pig0fil0 {fill:none}
.RightHand-Pig0str0 {stroke:black;stroke-width:150;stroke-linecap:round;stroke-linejoin:round}
.RightPaw-Pig0fil74 {fill:url(#RightPaw-Pig0id25)}
.RightPaw-Pig0fil10 {fill:black;fill-opacity:0.200000}
.RightPaw-Pig0fil75 {fill:url(#RightPaw-Pig0id217)}
.RightPaw-Pig0fil40 {fill:black}
.RightPaw-Pig0fil0 {fill:none}
.RightPaw-Pig0str2 {stroke:black;stroke-width:150;stroke-linecap:round;stroke-linejoin:round}
.LeftHand-Pig0fil79 {fill:url(#LeftHand-Pig0id22)}
.LeftHand-Pig0fil10 {fill:black;fill-opacity:0.200000}
.LeftHand-Pig0fil0 {fill:none}
.LeftHand-Pig0str0 {stroke:black;stroke-width:150;stroke-linecap:round;stroke-linejoin:round}
.Body-Pig2fil83 {fill:url(#Body-Pig2id42)}
.Body-Pig2fil86 {fill:url(#Body-Pig2id214)}
.Body-Pig2fil87 {fill:url(#Body-Pig2id215)}
.Body-Pig2fil10 {fill:black;fill-opacity:0.200000}
.Body-Pig2fil84 {fill:black;fill-rule:nonzero}
.LeftPaw-Pig0fil91 {fill:url(#LeftPaw-Pig0id70)}
.LeftPaw-Pig0fil10 {fill:black;fill-opacity:0.200000}
.LeftPaw-Pig0fil92 {fill:url(#LeftPaw-Pig0id209)}
.LeftPaw-Pig0fil40 {fill:black}
.LeftPaw-Pig0fil0 {fill:none}
.LeftPaw-Pig0str2 {stroke:black;stroke-width:150;stroke-linecap:round;stroke-linejoin:round}
.Ears-Pig3fil10 {fill:black;fill-opacity:0.200000}
.Ears-Pig3fil84 {fill:black;fill-rule:nonzero}
.Ears-Pig3fil115 {fill:black;fill-opacity:0.101961}
.Ears-Pig3fil114 {fill:url(#Ears-Pig3id188)}
.Ears-Pig3str0 {stroke:black;stroke-width:150;stroke-linecap:round;stroke-linejoin:round}
.Ears-Pig3fil116 {fill:url(#Ears-Pig3id80)}
.Head-Pig1fil160 {fill:url(#Head-Pig1id50)}
.Head-Pig1fil161 {fill:url(#Head-Pig1id159)}
.Head-Pig1fil10 {fill:black;fill-opacity:0.200000}
.Head-Pig1fil84 {fill:black;fill-rule:nonzero}
.Mouth-Pig9fil169 {fill:black}
.Mouth-Pig9fil171 {fill:#FF9999}
.Mouth-Pig9fil170 {fill:black;fill-rule:nonzero;fill-opacity:0.301961}
.Mouth-Pig9fil0 {fill:none}
.Mouth-Pig9str0 {stroke:black;stroke-width:150;stroke-linecap:round;stroke-linejoin:round}
.EyesClosed-Pig6fil38 {fill:#b37676}
.EyesClosed-Pig6fil10 {fill:black;fill-opacity:0.200000}
.EyesClosed-Pig6fil84 {fill:black;fill-rule:nonzero}
.Eyes-Pig6fil209 {fill:url(#Eyes-Pig6id176)}
.Eyes-Pig6fil210 {fill:url(#Eyes-Pig6id184)}
.Eyes-Pig6fil211 {fill:url(#Eyes-Pig6id128)}
.Eyes-Pig6fil148 {fill:black;fill-opacity:0.501961}
.Eyes-Pig6fil173 {fill:white}
.Eyes-Pig6fil212 {fill:url(#Eyes-Pig6id163)}
.Eyes-Pig6fil213 {fill:url(#Eyes-Pig6id185)}
.Eyes-Pig6fil214 {fill:url(#Eyes-Pig6id124)}
.Eyes-Pig6fil0 {fill:none}
.Eyes-Pig6str0 {stroke:black;stroke-width:150;stroke-linecap:round;stroke-linejoin:round}
.Moustache-Pig1fil232 {fill:url(#Moustache-Pig1id1)}
.Nose-Pig6fil244 {fill:url(#Nose-Pig6id181)}
.Nose-Pig6str0 {stroke:black;stroke-width:150;stroke-linecap:round;stroke-linejoin:round}
.Nose-Pig6fil26 {fill:black;fill-opacity:0.301961}
.Nose-Pig6str3 {stroke:black;stroke-width:150;stroke-linecap:round;stroke-linejoin:round;stroke-opacity:0.301961}
.Nose-Pig6fil237 {fill:none}
.Hair-Pig3fil248 {fill:url(#Hair-Pig3id21)}
.Hair-Pig3fil10 {fill:black;fill-opacity:0.200000}
.Hair-Pig3fil249 {fill:#454041}
.Hair-Pig3fil0 {fill:none}
.Hair-Pig3str0 {stroke:black;stroke-width:150;stroke-linecap:round;stroke-linejoin:round}
</style><linearGradient gradientUnits="userSpaceOnUse" id="Tail-Pig3id132" x1="16916.6" x2="18033.5" xlink:href="#Tail-Pig3id94" y1="24216.1" y2="22913.8">
  </linearGradient><linearGradient gradientUnits="userSpaceOnUse" id="Tail-Pig3id196" x1="13899" x2="17520.2" xlink:href="#Tail-Pig3id94" y1="23168.1" y2="23026.4">
  </linearGradient><linearGradient gradientUnits="objectBoundingBox" id="RightFoot-Pig6id139" x1="34.5618%" x2="65.4362%" xlink:href="#RightFoot-Pig6id137" y1="6.63057%" y2="93.3694%">
  </linearGradient><linearGradient gradientUnits="objectBoundingBox" id="RightFoot-Pig6id226" x1="75.2884%" x2="24.711%" xlink:href="#RightFoot-Pig6id221" y1="97.9716%" y2="2.0284%">
  </linearGradient><linearGradient gradientUnits="objectBoundingBox" id="RightLeg-Pig4id37" x1="50%" x2="50%" xlink:href="#RightLeg-Pig4id2" y1="100%" y2="0%">
  </linearGradient><linearGradient gradientUnits="objectBoundingBox" id="LeftFoot-Pig6id137" x1="65.4382%" x2="34.5638%" y1="6.63057%" y2="93.3694%">
   <stop offset="0" style="stop-opacity:1; stop-color:#ffe8f2"/>
   <stop offset="1" style="stop-opacity:1; stop-color:#f3b8d3"/>
  </linearGradient><linearGradient gradientUnits="objectBoundingBox" id="LeftFoot-Pig6id221" x1="24.7116%" x2="75.289%" y1="97.9716%" y2="2.0284%">
   <stop offset="0" style="stop-opacity:1; stop-color:#ffe8f2"/>
   <stop offset="0.231373" style="stop-opacity:1; stop-color:#ffe8f2"/>
   <stop offset="0.85098" style="stop-opacity:1; stop-color:#f3b8d3"/>
   <stop offset="1" style="stop-opacity:1; stop-color:#f3b8d3"/>
  </linearGradient><linearGradient gradientUnits="userSpaceOnUse" id="LeftLeg-Pig4id2" x1="11782.6" x2="11782.6" y1="24212.9" y2="21311.8">
   <stop offset="0" style="stop-opacity:1; stop-color:#ffe8f2"/>
   <stop offset="0.388235" style="stop-opacity:1; stop-color:#ffe8f2"/>
   <stop offset="1" style="stop-opacity:1; stop-color:#f3b8d3"/>
  </linearGradient><linearGradient gradientUnits="objectBoundingBox" id="RightHand-Pig0id57" x1="30.1244%" x2="69.8756%" xlink:href="#RightHand-Pig0id22" y1="2.32158%" y2="97.6784%">
  </linearGradient><linearGradient gradientUnits="objectBoundingBox" id="RightPaw-Pig0id25" x1="81.8832%" x2="18.1168%" y1="89.1977%" y2="10.8018%">
   <stop offset="0" style="stop-opacity:1; stop-color:#cc91ab"/>
   <stop offset="0.619608" style="stop-opacity:1; stop-color:#f3b8d3"/>
   <stop offset="1" style="stop-opacity:1; stop-color:#f3b8d3"/>
  </linearGradient><linearGradient gradientUnits="objectBoundingBox" id="RightPaw-Pig0id217" x1="50%" x2="50%" xlink:href="#RightPaw-Pig0id0" y1="100%" y2="0%">
  </linearGradient><linearGradient gradientUnits="objectBoundingBox" id="LeftHand-Pig0id22" x1="69.8756%" x2="30.1244%" y1="2.32158%" y2="97.6784%">
   <stop offset="0" style="stop-opacity:1; stop-color:#cc91ab"/>
   <stop offset="0.0196078" style="stop-opacity:1; stop-color:#cc91ab"/>
   <stop offset="0.921569" style="stop-opacity:1; stop-color:#f3b8d3"/>
   <stop offset="1" style="stop-opacity:1; stop-color:#f3b8d3"/>
  </linearGradient><linearGradient gradientUnits="objectBoundingBox" id="Body-Pig2id42" x1="50%" x2="50%" y1="0.000186021%" y2="100%">
   <stop offset="0" style="stop-opacity:1; stop-color:#cc91ab"/>
   <stop offset="0.0313725" style="stop-opacity:1; stop-color:#cc91ab"/>
   <stop offset="0.529412" style="stop-opacity:1; stop-color:#f3b8d3"/>
   <stop offset="1" style="stop-opacity:1; stop-color:#ffe8f2"/>
  </linearGradient><linearGradient gradientUnits="userSpaceOnUse" id="Body-Pig2id214" x1="15766.2" x2="15766.2" xlink:href="#Body-Pig2id0" y1="19640.4" y2="22051.2">
  </linearGradient><linearGradient gradientUnits="userSpaceOnUse" id="Body-Pig2id215" x1="11499.5" x2="11499.5" xlink:href="#Body-Pig2id0" y1="19195.6" y2="22068.4">
  </linearGradient><linearGradient gradientUnits="objectBoundingBox" id="LeftPaw-Pig0id70" x1="18.1168%" x2="81.8832%" xlink:href="#LeftPaw-Pig0id25" y1="89.1977%" y2="10.8018%">
  </linearGradient><linearGradient gradientUnits="objectBoundingBox" id="LeftPaw-Pig0id209" x1="50%" x2="50%" xlink:href="#LeftPaw-Pig0id0" y1="100%" y2="0%">
  </linearGradient><linearGradient gradientUnits="userSpaceOnUse" id="Ears-Pig3id188" x1="19906.5" x2="18669.8" xlink:href="#Ears-Pig3id80" y1="11565.8" y2="7565.01">
  </linearGradient><linearGradient gradientUnits="objectBoundingBox" id="Head-Pig1id50" x1="50%" x2="50%" xlink:href="#Head-Pig1id3" y1="99.9999%" y2="0%">
  </linearGradient><linearGradient gradientUnits="userSpaceOnUse" id="Head-Pig1id159" x1="10433.5" x2="10113" xlink:href="#Head-Pig1id0" y1="14832.1" y2="10239.8">
  </linearGradient><linearGradient gradientUnits="userSpaceOnUse" id="Eyes-Pig6id176" x1="16585.3" x2="17288.6" xlink:href="#Eyes-Pig6id148" y1="14089.3" y2="11133">
  </linearGradient><linearGradient gradientUnits="userSpaceOnUse" id="Eyes-Pig6id184" x1="18545" x2="15340.9" y1="13387.5" y2="13387.5">
   <stop offset="0" style="stop-opacity:1; stop-color:#806000"/>
   <stop offset="0.329412" style="stop-opacity:1; stop-color:#ffc419"/>
   <stop offset="1" style="stop-opacity:1; stop-color:#806000"/>
  </linearGradient><linearGradient gradientUnits="userSpaceOnUse" id="Eyes-Pig6id128" x1="17539.7" x2="17056.3" xlink:href="#Eyes-Pig6id45" y1="11960" y2="14006.4">
  </linearGradient><linearGradient gradientUnits="userSpaceOnUse" id="Eyes-Pig6id163" x1="10778.6" x2="10075.3" xlink:href="#Eyes-Pig6id148" y1="14089.3" y2="11133">
  </linearGradient><linearGradient gradientUnits="userSpaceOnUse" id="Eyes-Pig6id185" x1="8818.84" x2="12023" xlink:href="#Eyes-Pig6id184" y1="13387.5" y2="13387.5">
  </linearGradient><linearGradient gradientUnits="userSpaceOnUse" id="Eyes-Pig6id124" x1="9824.16" x2="10307.6" xlink:href="#Eyes-Pig6id45" y1="11960" y2="14006.4">
  </linearGradient><linearGradient gradientUnits="userSpaceOnUse" id="Moustache-Pig1id1" x1="13681.9" x2="13681.9" y1="14978.9" y2="17918.9">
   <stop offset="0" style="stop-opacity:1; stop-color:#454041"/>
   <stop offset="0.290196" style="stop-opacity:1; stop-color:#454041"/>
   <stop offset="1" style="stop-opacity:1; stop-color:#2b2425"/>
  </linearGradient><linearGradient gradientUnits="userSpaceOnUse" id="Nose-Pig6id181" x1="13681.9" x2="13681.9" xlink:href="#Nose-Pig6id151" y1="13079.6" y2="15426.2">
  </linearGradient><linearGradient gradientUnits="userSpaceOnUse" id="Hair-Pig3id21" x1="16474.7" x2="11684.5" xlink:href="#Hair-Pig3id7" y1="8706.11" y2="5940.47">
  </linearGradient><linearGradient gradientUnits="userSpaceOnUse" id="Tail-Pig3id94" x1="13432.5" x2="17737.9" y1="23392.7" y2="23392.7">
   <stop offset="0" style="stop-opacity:1; stop-color:#cc91ab"/>
   <stop offset="1" style="stop-opacity:1; stop-color:#ffe8f2"/>
  </linearGradient><linearGradient gradientUnits="objectBoundingBox" id="RightFoot-Pig6id137" x1="65.4382%" x2="34.5638%" y1="6.63057%" y2="93.3694%">
   <stop offset="0" style="stop-opacity:1; stop-color:#ffe8f2"/>
   <stop offset="1" style="stop-opacity:1; stop-color:#f3b8d3"/>
  </linearGradient><linearGradient gradientUnits="objectBoundingBox" id="RightFoot-Pig6id221" x1="24.7116%" x2="75.289%" y1="97.9716%" y2="2.0284%">
   <stop offset="0" style="stop-opacity:1; stop-color:#ffe8f2"/>
   <stop offset="0.231373" style="stop-opacity:1; stop-color:#ffe8f2"/>
   <stop offset="0.85098" style="stop-opacity:1; stop-color:#f3b8d3"/>
   <stop offset="1" style="stop-opacity:1; stop-color:#f3b8d3"/>
  </linearGradient><linearGradient gradientUnits="userSpaceOnUse" id="RightLeg-Pig4id2" x1="11782.6" x2="11782.6" y1="24212.9" y2="21311.8">
   <stop offset="0" style="stop-opacity:1; stop-color:#ffe8f2"/>
   <stop offset="0.388235" style="stop-opacity:1; stop-color:#ffe8f2"/>
   <stop offset="1" style="stop-opacity:1; stop-color:#f3b8d3"/>
  </linearGradient><linearGradient gradientUnits="objectBoundingBox" id="RightHand-Pig0id22" x1="69.8756%" x2="30.1244%" y1="2.32158%" y2="97.6784%">
   <stop offset="0" style="stop-opacity:1; stop-color:#cc91ab"/>
   <stop offset="0.0196078" style="stop-opacity:1; stop-color:#cc91ab"/>
   <stop offset="0.921569" style="stop-opacity:1; stop-color:#f3b8d3"/>
   <stop offset="1" style="stop-opacity:1; stop-color:#f3b8d3"/>
  </linearGradient><linearGradient gradientUnits="userSpaceOnUse" id="RightPaw-Pig0id0" x1="16257.8" x2="16257.8" y1="21560.3" y2="23683.4">
   <stop offset="0" style="stop-opacity:1; stop-color:#b37676"/>
   <stop offset="1" style="stop-opacity:1; stop-color:#d9a5a5"/>
  </linearGradient><linearGradient gradientUnits="userSpaceOnUse" id="Body-Pig2id0" x1="16257.8" x2="16257.8" y1="21560.3" y2="23683.4">
   <stop offset="0" style="stop-opacity:1; stop-color:#b37676"/>
   <stop offset="1" style="stop-opacity:1; stop-color:#d9a5a5"/>
  </linearGradient><linearGradient gradientUnits="objectBoundingBox" id="LeftPaw-Pig0id25" x1="81.8832%" x2="18.1168%" y1="89.1977%" y2="10.8018%">
   <stop offset="0" style="stop-opacity:1; stop-color:#cc91ab"/>
   <stop offset="0.619608" style="stop-opacity:1; stop-color:#f3b8d3"/>
   <stop offset="1" style="stop-opacity:1; stop-color:#f3b8d3"/>
  </linearGradient><linearGradient gradientUnits="userSpaceOnUse" id="LeftPaw-Pig0id0" x1="16257.8" x2="16257.8" y1="21560.3" y2="23683.4">
   <stop offset="0" style="stop-opacity:1; stop-color:#b37676"/>
   <stop offset="1" style="stop-opacity:1; stop-color:#d9a5a5"/>
  </linearGradient><linearGradient gradientUnits="userSpaceOnUse" id="Ears-Pig3id80" x1="8075.74" x2="8075.74" y1="11506" y2="7624.74">
   <stop offset="0" style="stop-opacity:1; stop-color:#cc91ab"/>
   <stop offset="0.6" style="stop-opacity:1; stop-color:#f3b8d3"/>
   <stop offset="1" style="stop-opacity:1; stop-color:#ffe8f2"/>
  </linearGradient><linearGradient gradientUnits="userSpaceOnUse" id="Head-Pig1id3" x1="18922.8" x2="18922.8" y1="11187.2" y2="5413.87">
   <stop offset="0" style="stop-opacity:1; stop-color:#cc91ab"/>
   <stop offset="0.388235" style="stop-opacity:1; stop-color:#f3b8d3"/>
   <stop offset="1" style="stop-opacity:1; stop-color:#ffe8f2"/>
  </linearGradient><linearGradient gradientUnits="userSpaceOnUse" id="Head-Pig1id0" x1="16257.8" x2="16257.8" y1="21560.3" y2="23683.4">
   <stop offset="0" style="stop-opacity:1; stop-color:#b37676"/>
   <stop offset="1" style="stop-opacity:1; stop-color:#d9a5a5"/>
  </linearGradient><linearGradient gradientUnits="userSpaceOnUse" id="Eyes-Pig6id148" x1="16641" x2="17334.4" y1="14255.9" y2="11076.2">
   <stop offset="0" style="stop-opacity:1; stop-color:#806000"/>
   <stop offset="1" style="stop-opacity:1; stop-color:black"/>
  </linearGradient><linearGradient gradientUnits="userSpaceOnUse" id="Eyes-Pig6id45" x1="16680.3" x2="16680.3" y1="11243.5" y2="13543.4">
   <stop offset="0" style="stop-opacity:1; stop-color:black"/>
   <stop offset="0.4" style="stop-opacity:1; stop-color:black"/>
   <stop offset="1" style="stop-opacity:1; stop-color:#664c00"/>
  </linearGradient><linearGradient gradientUnits="userSpaceOnUse" id="Nose-Pig6id151" x1="13681.9" x2="13681.9" y1="13554.2" y2="15469.2">
   <stop offset="0" style="stop-opacity:1; stop-color:#FFCCCC"/>
   <stop offset="1" style="stop-opacity:1; stop-color:#DB9092"/>
  </linearGradient><linearGradient gradientUnits="userSpaceOnUse" id="Hair-Pig3id7" x1="17165.3" x2="17165.3" y1="19960.9" y2="12270.8">
   <stop offset="0" style="stop-opacity:1; stop-color:#2b2425"/>
   <stop offset="1" style="stop-opacity:1; stop-color:#454041"/>
  </linearGradient></defs><g id="HairBack-Pig0">
 <animateTransform additive="sum" attributeName="transform" dur="10" repeatCount="indefinite" type="translate" values="0;0 200;0;0 200;0;0 200;0;0 200;0"/>
  <metadata id="CorelCorpID_0Corel-Layer"/>
  <rect class="HairBack-Pig0fil0" height="890" width="890" x="13237" y="6590"/>
  <rect class="HairBack-Pig0fil0" height="890" width="890" x="13237" y="6590"/>
 </g><g id="Tail-Pig3">
  <metadata id="CorelCorpID_6Corel-Layer"/>
  <path class="Tail-Pig3fil28 Tail-Pig3str0" d="M18327 23822c-507,-169 -732,-913 -375,-1407 74,-102 173,-187 275,-273 40,-34 81,467 121,432 6,-639 303,-807 355,-1161 28,-384 -43,-549 -91,-632 -48,-83 434,90 461,663 -12,-309 120,-947 1573,-763 -840,167 -999,789 -1025,1614 117,-238 413,-483 609,-410 -243,179 -318,617 -323,920 -3,189 -230,595 -615,728 191,16 336,-45 573,-161 -272,542 -853,723 -1538,450z" style="fill:#f033b0"/>
  <path class="Tail-Pig3fil10" d="M20155 21954c-116,-72 -245,213 -364,477 -74,165 -84,360 -151,482 -274,495 -649,438 -1033,956 0,0 -272,-130 -424,-194 260,-395 -74,-620 17,-966 0,0 86,68 225,235 70,85 138,3 175,-130 125,-450 -138,-660 250,-1358 72,-130 -309,366 -309,366l-193 752 -119 -433c0,0 -375,273 -371,437 4,165 -169,574 57,897 225,322 655,448 834,461 178,12 781,-97 929,-294 148,-197 138,-182 138,-182 0,0 -388,19 -456,46 -68,27 209,-61 427,-381 219,-320 118,-506 154,-661 36,-155 130,-390 214,-510z" style="fill:#e1c103"/>
  <path class="Tail-Pig3fil29" d="M18822 22851c166,27 42,1340 -1082,1510 -269,40 -540,2 -785,-120 -477,-237 -893,-535 -887,-1078 5,-420 525,-627 608,-74 54,357 247,496 534,638 138,69 292,90 444,67 156,-15 391,-60 535,-186 373,-310 471,-783 633,-757z" style="fill:#5ee9f1"/>
  <path class="Tail-Pig3fil30" d="M18499 24074c-182,175 -427,312 -748,361 -143,21 -287,22 -428,0 -138,-21 -273,-63 -402,-127 -216,-107 -420,-228 -583,-379l235 0c124,91 266,171 415,245 114,57 234,95 357,113 126,19 255,19 383,0 288,-44 525,-156 687,-311 214,-206 381,-450 432,-670 -21,316 -201,626 -348,768zm-1407 -496c46,28 97,55 152,82 61,31 125,51 192,61 68,10 138,10 207,-1l4 0c85,-8 194,-26 297,-62 341,-119 473,-284 612,-507 -117,319 -218,528 -562,649 -115,40 -235,59 -328,68l0 1c-85,12 -170,13 -252,0 -82,-12 -162,-37 -237,-75 -29,-14 -58,-29 -85,-43l0 -173z" style="fill:#32c74d"/>
  <path class="Tail-Pig3fil31 Tail-Pig3str1" d="M13590 22980c-74,-146 -60,-518 114,-580 173,-62 626,30 700,176 2,3 367,1151 1782,1081 176,-9 745,6 968,-383 187,-327 61,-627 -118,-753 -194,-137 -451,-83 -443,15 -97,-166 -385,-358 -265,-522 6,16 403,-347 904,-94 720,362 748,1036 493,1582 -233,500 -764,786 -1396,846 -2017,192 -2737,-1364 -2739,-1368z" style="fill:#52af32"/>
  <path class="Tail-Pig3fil10" d="M17707 23822c0,0 112,152 19,294 -93,142 596,-33 666,-89 69,-56 -276,415 -1054,335 -779,-80 -299,-199 -299,-199l506 -360 162 19z" style="fill:#80087f"/>
  <path class="Tail-Pig3fil26" d="M17270 23437c0,0 -158,311 -59,337 99,27 374,-139 423,-235 50,-95 137,356 -677,660 -814,303 -523,-15 -523,-15 0,0 340,-59 836,-747z" style="fill:#d1e90e"/>
  <path class="Tail-Pig3fil26" d="M13814 23259c0,0 183,264 356,449 173,185 719,440 898,480 178,39 479,-245 446,-427 -32,-182 -703,-330 -803,-503 -101,-172 -328,-397 -361,-403 -33,-7 -776,84 -536,404z" style="fill:#b88dee"/>
  <path class="Tail-Pig3fil10" d="M19850 21266c0,0 -519,437 -589,814 -70,376 -168,643 -226,718 176,-126 295,-319 345,-481 49,-162 218,-452 218,-452 0,0 194,-488 252,-599z" style="fill:#00ab87"/>
 </g><g id="RightFoot-Pig6">
  <metadata id="CorelCorpID_16Corel-Layer"/>
  <path class="RightFoot-Pig6fil37" d="M16559 24190c54,65 143,233 174,292 62,268 -152,365 -298,365 -143,0 -686,-98 -894,289 -330,-192 -541,-572 -540,-565 -22,-43 -41,-85 -54,-126 -58,-176 -10,-247 31,-317 480,-107 1078,-83 1581,62z" style="fill:#e9217b"/>
  <path class="RightFoot-Pig6fil47" d="M15011 24496c-3,101 -14,73 -14,176 -5,821 346,600 430,523 12,-11 59,-71 57,-73 -109,-146 -274,-300 -473,-626z" style="fill:#dfff2f"/>
  <path class="RightFoot-Pig6fil0 RightFoot-Pig6str2" d="M14995 24537c1,45 2,90 2,135 -5,821 346,600 430,523 4,-4 19,-23 37,-48" style="fill:#cb0400"/>
  <path class="RightFoot-Pig6fil48" d="M16756 24466c0,0 -225,-105 -294,-5 -54,78 49,353 -47,353 -106,0 -310,-245 -509,-215 -288,43 -418,429 -384,506 35,82 343,409 763,435 419,26 490,-14 487,-39 -3,-24 42,-150 42,-150 0,0 458,-59 491,-95 100,-109 -467,-691 -549,-790z" style="fill:#60fd43"/>
  <polygon class="RightFoot-Pig6fil40" points="16740,25393 16571,24994 16934,25330 "/>
  <path class="RightFoot-Pig6fil0 RightFoot-Pig6str2" d="M16567 24189c147,241 633,739 718,969 84,231 -492,167 -492,167 0,0 5,189 -122,220 -281,70 -831,-103 -1075,-309 -49,-41 -99,-87 -150,-135" style="fill:#10f3c9"/>
  <path class="RightFoot-Pig6fil0 RightFoot-Pig6str2" d="M16567 24189c45,73 121,170 208,277m-1262 697c-341,-311 -707,-789 -548,-1037" style="fill:#f2f31d"/>
  <path class="RightFoot-Pig6fil10" d="M15252 24171c-250,336 427,769 691,965 282,210 555,378 651,406 -45,23 -445,-31 -727,-123 -179,-96 -710,-617 -803,-752 -94,-163 -147,-331 -119,-480 10,-21 22,-40 33,-59 85,-7 193,-3 274,43z" style="fill:#c7d597"/>
 </g><g id="LeftFoot-Pig6">
  <metadata id="CorelCorpID_33Corel-Layer"/>
  <path class="LeftFoot-Pig6fil37" d="M10805 24190c-54,65 -143,233 -174,292 -62,268 152,365 298,365 143,0 685,-98 894,289 330,-192 541,-572 540,-565 22,-43 40,-85 54,-126 58,-176 10,-247 -31,-317 -480,-107 -1078,-83 -1581,62z" style="fill:#58ed06"/>
  <path class="LeftFoot-Pig6fil60" d="M12353 24496c3,101 14,73 14,176 5,821 -346,600 -430,523 -12,-11 -59,-71 -57,-73 109,-146 274,-300 473,-626z" style="fill:#f58619"/>
  <path class="LeftFoot-Pig6fil0 LeftFoot-Pig6str2" d="M12369 24537c-1,45 -2,90 -2,135 5,821 -346,600 -430,523 -4,-4 -19,-23 -37,-48" style="fill:#0aede8"/>
  <path class="LeftFoot-Pig6fil61" d="M10608 24466c0,0 225,-105 294,-5 54,78 -49,353 47,353 106,0 309,-245 509,-215 288,43 418,429 384,506 -35,82 -343,409 -763,435 -419,26 -490,-14 -487,-39 3,-24 -42,-150 -42,-150 0,0 -458,-59 -491,-95 -101,-109 467,-691 549,-790z" style="fill:#db9f5f"/>
  <polygon class="LeftFoot-Pig6fil40" points="10624,25393 10793,24994 10430,25330 "/>
  <path class="LeftFoot-Pig6fil0 LeftFoot-Pig6str2" d="M10797 24189c-147,241 -633,739 -718,969 -85,231 492,167 492,167 0,0 -5,189 122,220 281,70 831,-103 1075,-309 49,-41 99,-87 150,-135" style="fill:#2ae7b9"/>
  <path class="LeftFoot-Pig6fil0 LeftFoot-Pig6str2" d="M10797 24189c-45,73 -121,170 -208,277m1262 697c341,-311 707,-789 548,-1037" style="fill:#60aeaa"/>
  <path class="LeftFoot-Pig6fil10" d="M12112 24171c250,336 -428,769 -691,965 -282,210 -555,378 -651,406 45,23 444,-31 727,-123 179,-96 710,-617 803,-752 94,-163 147,-331 119,-480 -10,-21 -22,-40 -33,-59 -85,-7 -193,-3 -274,43z" style="fill:#577546"/>
 </g><g id="RightLeg-Pig4">
  <metadata id="CorelCorpID_26Corel-Layer"/>
  <path class="RightLeg-Pig4fil52" d="M16570 21416c0,0 961,709 909,1714 -6,111 -77,-66 -123,-23 -40,37 69,421 -56,604 -46,67 -123,-179 -160,-119 -128,221 -511,470 -581,598 -599,44 -1104,27 -1581,-62 45,-78 82,-155 -44,-376 -113,-198 -400,-446 -1252,-493 0,-147 0,-280 0,-522 373,-788 1598,-1745 2888,-1321z" style="fill:#dc09e7"/>
  <path class="RightLeg-Pig4fil10" d="M17102 23575c34,-72 196,234 237,120 39,-110 -19,-533 -19,-606 1,-104 204,136 196,32 -74,-977 -804,-1553 -1086,-1798l-157 688c26,45 52,90 79,136 387,-391 912,861 750,1428z" style="fill:#de5bfc"/>
  <path class="RightLeg-Pig4fil0 RightLeg-Pig4str2" d="M14965 24126c284,-396 -518,-875 -1283,-867" style="fill:#1d5cb5"/>
  <path class="RightLeg-Pig4fil10" d="M13760 23246c341,-28 1532,124 1607,584 27,166 -52,256 -115,341 -93,-12 -184,-26 -274,-43 40,-70 74,-140 -11,-313 -8,-22 -19,-42 -33,-62l0 -1c-104,-182 -357,-408 -1066,-479 -35,-9 -71,-18 -108,-27z" style="fill:#4997fd"/>
  <path class="RightLeg-Pig4fil0 RightLeg-Pig4str2" d="M16570 21416c326,350 1032,989 923,1788 -63,-27 -175,-159 -237,-220 120,259 171,599 18,787 -20,-5 -44,-123 -100,-189 -99,153 -180,244 -323,362 -92,75 -194,144 -284,245" style="fill:#4c9f8a"/>
 </g><g id="LeftLeg-Pig4">
  <metadata id="CorelCorpID_43Corel-Layer"/>
  <path class="LeftLeg-Pig4fil67" d="M10794 21416c0,0 -961,709 -909,1714 6,111 76,-66 123,-23 40,37 -69,421 55,604 47,67 124,-179 161,-119 128,221 511,470 581,598 599,44 1104,27 1581,-62 -45,-78 -82,-155 44,-376 113,-198 400,-446 1252,-493 0,-147 0,-280 0,-522 -373,-788 -1598,-1745 -2888,-1321z" style="fill:#850ca5"/>
  <path class="LeftLeg-Pig4fil10" d="M10262 23575c-34,-72 -196,234 -237,120 -40,-110 19,-533 19,-606 -1,-104 -204,136 -197,32 75,-977 805,-1553 1087,-1798l157 688c-26,45 -53,90 -79,136 -388,-391 -913,861 -750,1428z" style="fill:#68f7c9"/>
  <path class="LeftLeg-Pig4fil0 LeftLeg-Pig4str2" d="M12399 24126c-284,-396 517,-875 1283,-867" style="fill:#12025e"/>
  <path class="LeftLeg-Pig4fil10" d="M13604 23246c-341,-28 -1532,124 -1607,584 -27,166 52,256 115,341 93,-12 184,-26 274,-43 -40,-70 -74,-140 11,-313 8,-22 19,-42 33,-62l0 -1c104,-182 357,-408 1066,-479 35,-9 71,-18 108,-27z" style="fill:#906f68"/>
  <path class="LeftLeg-Pig4fil0 LeftLeg-Pig4str2" d="M10794 21416c-326,350 -1032,989 -923,1788 63,-27 175,-159 237,-220 -120,259 -171,599 -18,787 20,-5 44,-123 100,-189 99,153 180,244 323,362 92,75 193,144 284,245" style="fill:#2fa56f"/>
 </g><g id="RightHand-Pig0">
 <animateTransform additive="sum" attributeName="transform" dur="10" repeatCount="indefinite" type="translate" values="0;0 200;0;0 200;0;0 200;0;0 200;0"/>
  <metadata id="CorelCorpID_44Corel-Layer"/>
  <path class="RightHand-Pig0fil68" d="M16231 17709c1005,345 1816,1398 2255,2162 -88,184 -847,720 -1129,836 -543,-402 -1045,-430 -1469,-362 -742,120 -1353,-1920 -931,-2545 422,-21 934,-40 1274,-91z" style="fill:#588db6"/>
  <path class="RightHand-Pig0fil10" d="M17342 20696c-537,-391 -1034,-418 -1454,-351 -171,28 -335,-59 -481,-217 -325,-472 753,-1098 1039,-656 258,399 723,837 1098,1116 3,2 22,18 34,27l-219 113c-8,-18 -14,-30 -17,-32z" style="fill:#87f14f"/>
  <path class="RightHand-Pig0fil0 RightHand-Pig0str0" d="M16477 20333c179,24 366,81 561,178 100,50 205,104 305,189m1121 -817c-161,-280 -388,-607 -632,-916 -422,-534 -963,-1039 -1601,-1258 -90,-31 -172,-59 -246,-84" style="fill:#68ca23"/>
 </g><g id="LeftHand-Pig0">
 <animateTransform additive="sum" attributeName="transform" dur="10" repeatCount="indefinite" type="translate" values="0;0 200;0;0 200;0;0 200;0;0 200;0"/>
  <metadata id="CorelCorpID_61Corel-Layer"/>
  <path class="LeftHand-Pig0fil79" d="M11133 17709c-1005,345 -1817,1398 -2255,2162 88,184 847,720 1128,836 544,-402 1046,-430 1470,-362 742,120 1352,-1920 931,-2545 -422,-21 -934,-40 -1274,-91z" style="fill:#b31556"/>
  <path class="LeftHand-Pig0fil10" d="M10022 20696c537,-391 1034,-418 1454,-351 171,28 335,-59 481,-217 325,-472 -753,-1098 -1039,-656 -258,399 -723,837 -1098,1116 -3,2 -22,18 -34,27l219 113c8,-18 14,-30 17,-32z" style="fill:#ac2820"/>
  <path class="LeftHand-Pig0fil0 LeftHand-Pig0str0" d="M10887 20333c-179,24 -366,81 -561,178 -100,50 -205,104 -305,189m-1121 -817c161,-280 388,-607 632,-916 422,-534 963,-1039 1601,-1258 90,-31 171,-59 246,-84" style="fill:#0337d9"/>
 </g><g id="Body-Pig2">
 <animateTransform additive="sum" attributeName="transform" dur="10" repeatCount="indefinite" type="translate" values="0;0 200;0;0 200;0;0 200;0;0 200;0"/>
  <metadata id="CorelCorpID_68Corel-Layer"/>
  <path class="Body-Pig2fil83" d="M13682 23135c-1548,0 -2752,-291 -2993,-1956 -147,-1014 391,-2287 991,-3420 634,80 1289,123 2002,142 713,-19 1367,-62 2002,-142 600,1133 1137,2406 991,3420 -242,1665 -1445,1956 -2993,1956z" style="fill:#b16c1a"/>
  <path class="Body-Pig2fil86" d="M16270 19898c134,250 -117,476 -346,598 -228,121 -348,93 -482,-156 -133,-250 32,-520 260,-642 229,-122 435,-49 568,200zm15 633c131,-442 317,-421 362,-394 57,413 135,1166 -176,1646 -166,256 -535,351 -807,187 -378,-227 -310,-544 -105,-779 273,-314 600,-235 726,-660zm-1307 660c-211,-46 -217,-508 150,-427 163,36 212,180 170,298 -41,118 -158,165 -320,129z" style="fill:#ebc720"/>
  <path class="Body-Pig2fil87" d="M11050 21679c-133,-250 117,-476 346,-598 229,-121 502,182 635,432 147,275 -60,547 -369,555 -187,5 -419,-27 -612,-389zm406 -990c-125,-56 -242,-80 -465,177 -269,310 -233,579 -313,504 -32,-235 -42,-674 25,-1094 29,-180 54,-323 111,-440 224,-465 886,-793 1236,-567 612,393 205,1777 -594,1420z" style="fill:#88fc75"/>
  <path class="Body-Pig2fil10" d="M12621 23067c-1016,-156 -1749,-629 -1932,-1888 -75,-519 29,-1106 229,-1707 -223,2001 402,3257 1703,3595z" style="fill:#ed0158"/>
  <path class="Body-Pig2fil84" d="M11012 22144c-250,-321 -348,-641 -397,-954 -59,-377 -24,-998 184,-1320 -78,421 -93,905 -36,1298 50,341 104,572 249,976z" style="fill:#8fe5a4"/>
  <path class="Body-Pig2fil10" d="M14743 23067c1016,-156 1749,-629 1932,-1888 75,-519 -29,-1106 -229,-1707 223,2001 -402,3257 -1703,3595z" style="fill:#0c3356"/>
  <path class="Body-Pig2fil84" d="M16352 22144c250,-321 347,-641 397,-954 59,-377 24,-998 -184,-1320 78,421 93,905 36,1298 -50,341 -104,572 -249,976z" style="fill:#00744c"/>
 </g><g id="RightPaw-Pig0">
 <animateTransform additive="sum" attributeName="transform" dur="10" repeatCount="indefinite" type="translate" values="0;0 200;0;0 200;0;0 200;0;0 200;0"/>
  <metadata id="CorelCorpID_49Corel-Layer"/>
  <path class="RightPaw-Pig0fil74" d="M18486 19871c155,269 247,281 434,498 211,244 446,948 341,1067 -34,39 -389,8 -389,8 -15,58 -145,373 -188,392 -161,73 -598,-324 -814,-554 -63,111 -195,178 -216,147 -79,-27 -146,-195 -211,-374 -34,-92 -45,-318 -86,-348 139,-387 621,-775 1129,-836z" style="fill:#e36c2c"/>
  <path class="RightPaw-Pig0fil10" d="M17452 20518c31,24 62,48 92,70 4,3 39,31 43,34 13,14 26,28 39,43 79,93 97,228 104,283 2,13 3,21 4,24 -2,92 -166,169 -227,208 0,-8 -67,-223 -116,-364 0,-31 3,-54 -7,-90 -9,-6 -18,-13 -27,-19 23,-64 55,-127 95,-189z" style="fill:#c05491"/>
  <path class="RightPaw-Pig0fil75" d="M18910 20358c-402,-76 -337,407 -242,635 -239,-309 -538,-414 -692,-297 -104,79 -113,131 -203,226 -99,104 -339,-108 -394,-184 -18,147 139,645 275,691 21,31 153,-36 216,-147 216,230 653,627 814,554 43,-19 173,-334 188,-392 0,0 355,31 389,-8 109,-123 -135,-862 -351,-1078z" style="fill:#ea0b66"/>
  <path class="RightPaw-Pig0fil10" d="M18804 21498c-67,307 -352,47 -875,-255 4,66 -100,45 -131,-12 -41,-92 -52,-190 -68,-283 -88,22 -225,-79 -303,-156 -5,-5 -11,-11 -16,-16 49,174 144,541 243,653 90,2 173,-72 216,-147 199,212 579,572 803,508 84,-24 78,-133 131,-292z" style="fill:#1a2b8c"/>
  <path class="RightPaw-Pig0fil0 RightPaw-Pig0str2" d="M17136 20561c121,75 170,94 271,202 1,149 38,330 93,461 54,128 115,197 196,208 55,8 128,-6 194,-123 208,221 642,571 796,501 41,-19 164,-344 179,-400 0,0 356,75 389,38 86,-99 -94,-785 -280,-992 -109,-122 -404,-420 -409,-427 -68,-85 -123,-182 -179,-276" style="fill:#147251"/>
  <polygon class="RightPaw-Pig0fil40" points="18796,21484 18678,21021 18973,21393 "/>
 </g><g id="LeftPaw-Pig0">
 <animateTransform additive="sum" attributeName="transform" dur="10" repeatCount="indefinite" type="translate" values="0;0 200;0;0 200;0;0 200;0;0 200;0"/>
  <metadata id="CorelCorpID_71Corel-Layer"/>
  <path class="LeftPaw-Pig0fil91" d="M8878 19871c-155,269 -247,281 -434,498 -211,244 -446,948 -341,1067 34,39 388,8 388,8 16,58 146,373 189,392 161,73 598,-324 814,-554 63,111 195,178 216,147 79,-27 146,-195 211,-374 34,-92 45,-318 85,-348 -138,-387 -621,-775 -1128,-836z" style="fill:#a0ba55"/>
  <path class="LeftPaw-Pig0fil10" d="M9912 20518c-31,24 -62,48 -92,70 -4,3 -39,31 -43,34 -14,14 -27,28 -39,43 -79,93 -97,228 -104,283 -2,13 -3,21 -4,24 2,92 166,169 226,208 0,-8 68,-223 117,-364 -1,-31 -3,-54 7,-90 9,-6 18,-13 26,-19 -22,-64 -54,-127 -94,-189z" style="fill:#b89108"/>
  <path class="LeftPaw-Pig0fil92" d="M8454 20358c401,-76 337,407 242,635 239,-309 538,-414 692,-297 104,79 113,131 203,226 99,104 339,-108 394,-184 18,147 -140,645 -275,691 -21,31 -153,-36 -216,-147 -216,230 -653,627 -814,554 -43,-19 -173,-334 -189,-392 0,0 -354,31 -388,-8 -109,-123 135,-862 351,-1078z" style="fill:#cdbfd0"/>
  <path class="LeftPaw-Pig0fil10" d="M8560 21498c67,307 352,47 875,-255 -5,66 100,45 131,-12 40,-92 52,-190 68,-283 88,22 225,-79 303,-156 5,-5 11,-11 16,-16 -49,174 -144,541 -243,653 -90,2 -173,-72 -216,-147 -199,212 -579,572 -803,508 -84,-24 -79,-133 -131,-292z" style="fill:#2ee5e7"/>
  <path class="LeftPaw-Pig0fil0 LeftPaw-Pig0str2" d="M10228 20561c-121,75 -170,94 -272,202 0,149 -37,330 -92,461 -55,128 -115,197 -196,208 -55,8 -128,-6 -194,-123 -208,221 -642,571 -797,501 -41,-19 -163,-344 -178,-400 0,0 -356,75 -389,38 -86,-99 94,-785 280,-992 109,-122 404,-420 409,-427 68,-85 123,-182 179,-276" style="fill:#d6379d"/>
  <polygon class="LeftPaw-Pig0fil40" points="8568,21484 8686,21021 8391,21393 "/>
 </g><g id="Ears-Pig3">
 <animateTransform additive="sum" attributeName="transform" dur="10" repeatCount="indefinite" type="translate" values="0;0 200;0;0 200;0;0 200;0;0 200;0"/>
  <metadata id="CorelCorpID_86Corel-Layer"/>
  <g id="_2991525376224">
   <path class="Ears-Pig3fil114 Ears-Pig3str0" d="M17474 9282c-626,286 -1144,-270 -959,-817 161,-476 503,-784 772,-827 649,-147 1856,982 2325,1262 689,412 2019,516 2487,1208 0,0 -167,510 -855,828 -905,419 -950,-70 -1578,-94 -209,-8 -552,201 -580,568 -14,180 -77,90 -184,-125 -137,-273 -546,-748 -819,-1124 -336,-463 -700,-843 -609,-879z" style="fill:#1ee923"/>
   <path class="Ears-Pig3fil10" d="M17691 8599c77,161 177,346 295,517 459,665 1127,1367 1311,1603 118,152 -34,222 -132,370 -53,80 -22,234 -79,321 -289,441 -292,-315 -642,-1006 -195,-385 -591,-691 -837,-1035 -78,-108 -604,54 -767,-79 -106,-86 90,-508 158,-489 358,101 251,-470 276,-635 24,-152 107,-165 181,-101 57,49 200,460 236,534z" style="fill:#8f1f3f"/>
   <path class="Ears-Pig3fil84" d="M17394 8105c11,518 183,1064 306,1366 16,39 0,85 -36,102 -36,17 -78,0 -94,-39 -35,-84 -374,-855 -176,-1429z" style="fill:#a3efbf"/>
   <path class="Ears-Pig3fil115" d="M20341 11041c0,0 -853,-1153 -752,-1307 101,-154 2145,914 2094,966 -27,29 -209,173 -495,295 -245,105 -577,219 -847,46z" style="fill:#eb3bb6"/>
  </g>
  <g id="_2991525373536">
   <path class="Ears-Pig3fil116 Ears-Pig3str0" d="M9890 9282c626,286 1144,-270 959,-817 -161,-476 -503,-784 -772,-827 -418,-95 -1068,340 -1603,737 -1076,798 -1934,1293 -3210,1733 0,0 108,333 448,634 115,102 804,-497 979,-416 33,15 -480,728 -448,741 809,334 850,-202 1455,-225 208,-8 551,201 580,568 14,180 77,90 184,-125 136,-273 545,-748 819,-1124 336,-463 700,-843 609,-879z" style="fill:#d6e339"/>
   <path class="Ears-Pig3fil10" d="M9673 8599c-77,161 -177,346 -295,517 -459,665 -1127,1367 -1311,1603 -118,152 34,222 132,370 53,80 22,234 79,321 289,441 292,-315 642,-1006 195,-385 591,-691 837,-1035 129,-180 780,-616 609,-568 -358,101 -251,-470 -276,-635 -24,-152 -107,-165 -182,-101 -56,49 -199,460 -235,534z" style="fill:#8807c5"/>
   <path class="Ears-Pig3fil84" d="M9970 8105c-11,518 -183,1064 -306,1366 -16,39 0,85 36,102 36,17 78,0 94,-39 35,-84 374,-855 176,-1429z" style="fill:#64cd48"/>
   <path class="Ears-Pig3fil115" d="M6990 11086c0,0 916,-1280 815,-1434 -101,-154 -2302,878 -2251,931 15,15 92,95 209,192 76,63 785,-521 888,-457 62,39 -489,729 -421,760 245,113 521,161 760,8z" style="fill:#1ad97d"/>
  </g>
 </g><g id="Head-Pig1">
 <animateTransform additive="sum" attributeName="transform" dur="10" repeatCount="indefinite" type="translate" values="0;0 200;0;0 200;0;0 200;0;0 200;0"/>
  <metadata id="CorelCorpID_96Corel-Layer"/>
  <path class="Head-Pig1fil160" d="M10090 8967c-564,472 -965,1039 -1323,1636 -28,46 -55,102 -82,149 -105,179 -200,391 -302,573 -611,1185 -1006,1397 -934,2868 118,2421 2509,3357 4628,3643 571,77 1124,101 1605,101 481,0 1034,-24 1605,-101 2119,-286 4510,-1222 4628,-3643 72,-1471 -323,-1683 -934,-2868 -102,-182 -198,-394 -302,-573 -28,-47 -54,-103 -82,-149 -358,-597 -759,-1164 -1324,-1636 -1249,-1046 -2354,-1447 -3590,-1474l-1 0 -1 0c-1236,27 -2341,428 -3591,1474z" style="fill:#b38373"/>
  <path class="Head-Pig1fil161" d="M11011 10284c-943,-245 -1264,313 -2147,1484 -218,289 -451,622 -550,930 -149,463 -194,939 9,1354 485,957 1684,924 2653,546 659,-257 1269,-724 1365,-1531 130,-1092 -406,-2543 -1330,-2783z" style="fill:#81a84a"/>
  <path class="Head-Pig1fil10" d="M8595 11042c-473,768 -891,1422 -1070,2009 -158,520 -73,1353 39,1856 421,1891 2663,2792 5075,2988 -2326,-552 -4001,-1593 -4496,-3087 -323,-975 -154,-2267 452,-3766z" style="fill:#6e6385"/>
  <path class="Head-Pig1fil84" d="M9861 9172c974,-1177 2398,-1757 3821,-1747 1423,-10 2847,570 3821,1747 -1223,-1081 -2522,-1612 -3821,-1603 -1299,-9 -2598,522 -3821,1603z" style="fill:#8a37b8"/>
  <path class="Head-Pig1fil84" d="M8768 10601c-179,508 -382,903 -718,1463 -406,679 -582,1421 -536,2131 131,1999 1755,2951 3508,3372 210,51 827,205 1390,308 -522,-14 -1257,-122 -1418,-161 -1810,-434 -3533,-1443 -3636,-3515 -36,-724 131,-1489 564,-2211 314,-524 479,-741 846,-1387z" style="fill:#b76105"/>
  <path class="Head-Pig1fil84" d="M18596 10601c179,508 382,903 717,1463 407,679 583,1421 537,2131 -131,1999 -1755,2951 -3508,3372 -210,51 -828,205 -1390,308 522,-14 1257,-122 1418,-161 1810,-434 3533,-1443 3636,-3515 36,-724 -131,-1489 -564,-2211 -314,-524 -479,-741 -846,-1387z" style="fill:#249772"/>
 </g><g id="Mouth-Pig9">
 <animateTransform additive="sum" attributeName="transform" dur="10" repeatCount="indefinite" type="translate" values="0;0 200;0;0 200;0;0 200;0;0 200;0"/>
  <metadata id="CorelCorpID_112Corel-Layer"/>
  <g id="_2991504387984">
   <path class="Mouth-Pig9fil169" d="M13682 14528l0 0 -19 0 0 0c-49,280 -711,846 -1338,945 94,16 142,65 229,85 236,53 188,104 300,255 159,213 462,323 828,323 366,0 669,-110 827,-323 113,-151 65,-202 301,-255 87,-20 135,-69 229,-85 -627,-99 -1289,-665 -1338,-945l0 0 -19 0 0 0z" style="fill:#e375b7"/>
   <path class="Mouth-Pig9fil171" d="M14288 15803c-116,-149 -458,-167 -606,-58 -148,-109 -490,-91 -606,58 49,116 325,196 606,196 281,0 557,-80 606,-196z" style="fill:#ba4703"/>
   <path class="Mouth-Pig9fil0 Mouth-Pig9str0" d="M15746 14918c-428,702 -1127,637 -2064,447" style="fill:#539a69"/>
   <path class="Mouth-Pig9fil0 Mouth-Pig9str0" d="M11618 14918c428,702 1127,637 2064,447" style="fill:#4d4b99"/>
   <path class="Mouth-Pig9fil170" d="M12869 16351c200,48 492,140 813,140 321,0 613,-92 813,-140 -209,195 -496,315 -813,315 -317,0 -604,-120 -813,-315z" style="fill:#d26f05"/>
   <path class="Mouth-Pig9fil169" d="M15654 14932c-27,44 19,102 -7,178 -3,10 161,-144 171,-141 88,20 351,21 212,-60 -84,-49 -171,-78 -226,-163 -72,-111 -116,131 -150,186z" style="fill:#6c95f7"/>
   <path class="Mouth-Pig9fil169" d="M11710 14932c27,44 -19,102 7,178 3,10 -161,-144 -172,-141 -87,20 -350,21 -212,-60 85,-49 172,-78 227,-163 72,-111 115,131 150,186z" style="fill:#0148e3"/>
  </g>
 </g><g id="EyesClosed-Pig6">
 <animateTransform additive="sum" attributeName="transform" dur="10" repeatCount="indefinite" type="translate" values="0;0 200;0;0 200;0;0 200;0;0 200;0"/>
  <metadata id="CorelCorpID_128Corel-Layer"/>
  <g id="_2991498762544">
   <path class="EyesClosed-Pig6fil38" d="M17970 10889c-102,-6 -422,-418 -735,-632 -532,-363 -710,-292 -716,-465 -15,-435 628,-476 1152,182 268,337 423,923 299,915z"/>
   <path class="EyesClosed-Pig6fil10" d="M17970 10889c-102,-6 -422,-418 -735,-632 -532,-363 -710,-292 -716,-465 -15,-435 628,-476 1152,182 268,337 423,923 299,915z"/>
  </g>
  <g id="_2991498761264">
   <path class="EyesClosed-Pig6fil38" d="M9394 10889c102,-6 421,-418 735,-632 532,-363 710,-292 716,-465 14,-435 -628,-476 -1152,182 -268,337 -423,923 -299,915z"/>
   <path class="EyesClosed-Pig6fil10" d="M9394 10889c102,-6 421,-418 735,-632 532,-363 710,-292 716,-465 14,-435 -628,-476 -1152,182 -268,337 -423,923 -299,915z"/>
  </g>
  <path class="EyesClosed-Pig6fil84" d="M15447 13343c-53,47 -19,104 38,78 361,-167 1735,-736 2615,-704 129,5 204,13 320,44 57,15 100,32 124,9 75,-70 -62,-156 -105,-187 -621,-460 -1776,-14 -2992,760z"/>
  <path class="EyesClosed-Pig6fil84" d="M11917 13343c53,47 19,104 -38,78 -361,-167 -1735,-736 -2615,-704 -129,5 -204,13 -320,44 -57,15 -100,32 -124,9 -75,-70 62,-156 104,-187 622,-460 1777,-14 2993,760z"/>
 </g><g id="Eyes-Pig6">
 <animate attributeName="opacity" dur="10" repeatCount="indefinite" values="0;1;1;1;1;1;1;1;1;1;1;1;1;1;1;1;1;1;1;1;1;1;1;1;1;1;1;1;1;1;1;1;1;1;1;1;1;1;1;1;1;1;1;1;1;1;1;1;1;1;1;1;1;1;1;1;1;1;1;1;1;1;1;1;1;1;1;1;1;1;1;1;1;1;1;1;1;1;1;1;1;1;1;1;0;0"/>
 <animateTransform additive="sum" attributeName="transform" dur="10" repeatCount="indefinite" type="translate" values="0;0 200;0;0 200;0;0 200;0;0 200;0"/>
  <metadata id="CorelCorpID_129Corel-Layer"/>
  <g id="_2991498757232">
   <path class="Eyes-Pig6fil209" d="M17282 14281c-990,2 -1725,-405 -1910,-1204 -99,-423 -82,-1011 219,-1587 180,-343 450,-457 711,-522 667,-168 1892,471 2184,1678 202,835 15,1633 -1204,1635z"/>
   <path class="Eyes-Pig6fil210" d="M15724 13738c-356,-331 -409,-742 -416,-1251 353,487 864,534 1290,226 542,153 1085,307 1628,460 64,202 126,264 352,332 -437,1137 -2167,874 -2854,233z"/>
   <path class="Eyes-Pig6fil211" d="M17536 11965c-554,-123 -1110,234 -1241,796 -132,563 211,1118 765,1241 554,122 1110,-235 1241,-797 132,-562 -211,-1118 -765,-1240z"/>
   <path class="Eyes-Pig6fil0 Eyes-Pig6str0" d="M17282 14281c2611,-17 719,-3777 -980,-3313 -808,220 -967,1010 -981,1629 -26,1133 882,1691 1961,1684z"/>
   <path class="Eyes-Pig6fil148" d="M15363 13287c-190,-829 35,-2191 939,-2319 609,-87 1114,94 1507,561 321,381 697,1030 736,1450 -356,-962 -1270,-1438 -1927,-1376 -834,80 -1240,726 -1255,1684z"/>
   <g>
    <path class="Eyes-Pig6fil173" d="M17487 11729c511,-104 1004,994 265,1155 -761,167 -818,-1043 -265,-1155z"/>
    <circle class="Eyes-Pig6fil173" r="235" transform="matrix(-0.516984 0.0115807 0.0167035 0.456993 17123.3 11579)"/>
    <circle class="Eyes-Pig6fil173" r="235" transform="matrix(-0.530725 -0.888624 -0.848958 0.462238 16063.1 13412.4)"/>
    <circle class="Eyes-Pig6fil173" r="235" transform="matrix(-0.361004 0.00808665 0.0116639 0.319113 16406.5 13719.1)"/>
   </g>
  </g>
  <g id="_2991498756144">
   <path class="Eyes-Pig6fil212" d="M10082 14281c990,2 1724,-405 1910,-1204 98,-423 82,-1011 -219,-1587 -180,-343 -450,-457 -711,-522 -668,-168 -1893,471 -2184,1678 -202,835 -15,1633 1204,1635z"/>
   <path class="Eyes-Pig6fil213" d="M11640 13738c356,-331 409,-742 416,-1251 -353,487 -864,534 -1290,226 -542,153 -1085,307 -1628,460 -65,202 -126,264 -352,332 437,1137 2167,874 2854,233z"/>
   <path class="Eyes-Pig6fil214" d="M9828 11965c554,-123 1110,234 1241,796 131,563 -211,1118 -765,1241 -554,122 -1110,-235 -1241,-797 -132,-562 211,-1118 765,-1240z"/>
   <path class="Eyes-Pig6fil0 Eyes-Pig6str0" d="M10082 14281c-2612,-17 -719,-3777 980,-3313 807,220 967,1010 981,1629 26,1133 -882,1691 -1961,1684z"/>
   <path class="Eyes-Pig6fil148" d="M12001 13287c190,-829 -35,-2191 -939,-2319 -609,-87 -1114,94 -1507,561 -321,381 -697,1030 -736,1450 355,-962 1270,-1438 1926,-1376 835,80 1241,726 1256,1684z"/>
   <g>
    <path class="Eyes-Pig6fil173" d="M9876 11729c-510,-104 -1003,994 -264,1155 761,167 818,-1043 264,-1155z"/>
    <circle class="Eyes-Pig6fil173" r="235" transform="matrix(0.516984 0.0115807 -0.0167035 0.456993 10240.5 11579)"/>
    <circle class="Eyes-Pig6fil173" r="235" transform="matrix(0.530725 -0.888624 0.848958 0.462238 11300.8 13412.4)"/>
    <circle class="Eyes-Pig6fil173" r="235" transform="matrix(0.361004 0.00808665 -0.0116639 0.319113 10957.4 13719.1)"/>
   </g>
  </g>
 </g><g id="Moustache-Pig1">
 <animateTransform additive="sum" attributeName="transform" dur="10" repeatCount="indefinite" type="translate" values="0;0 200;0;0 200;0;0 200;0;0 200;0"/>
  <metadata id="CorelCorpID_137Corel-Layer"/>
  <path class="Moustache-Pig1fil232" d="M10077 15078c42,-22 90,-9 110,27 19,37 1,84 -40,106 -84,44 -203,95 -353,100 81,-111 200,-189 283,-233zm-109 971c36,-30 86,-28 113,4 26,32 19,82 -17,111 -73,61 -179,136 -324,171 56,-125 155,-226 228,-286zm-235 -495c38,-26 88,-18 111,17 22,35 9,83 -30,108 -79,52 -193,115 -341,133 70,-117 180,-207 260,-258zm-200 -567c42,-19 90,-3 107,35 17,38 -4,83 -47,102 -86,38 -209,82 -358,76 88,-105 211,-175 298,-213zm790 1509c31,-34 82,-38 112,-10 30,29 29,79 -3,113 -65,69 -160,157 -300,210 40,-131 126,-244 191,-313zm923 597c23,-41 70,-58 106,-38 37,20 48,69 26,110 -46,83 -116,192 -239,278 7,-136 62,-267 107,-350zm821 249c14,-45 57,-70 97,-58 40,12 60,58 46,103 -28,90 -76,211 -179,319 -21,-135 8,-274 36,-364zm-447 -91c14,-44 56,-71 96,-59 40,12 61,58 48,102 -27,91 -73,212 -175,322 -22,-135 4,-274 31,-365zm-466 -564c25,-40 74,-53 109,-31 35,22 43,72 18,111 -51,80 -128,184 -256,262 15,-135 79,-263 129,-342zm-353 -372c27,-37 77,-47 110,-22 33,24 38,74 10,112 -56,76 -141,174 -273,243 24,-134 97,-257 153,-333zm-265 -383c34,-33 84,-35 113,-5 29,29 25,80 -8,112 -67,66 -167,150 -309,197 46,-129 137,-238 204,-304zm-226 -433c40,-23 89,-13 110,22 21,36 6,84 -34,107 -82,48 -199,105 -348,116 76,-113 190,-197 272,-245zm937 650c25,-38 74,-51 108,-28 35,23 42,73 17,111 -52,79 -132,182 -261,258 18,-136 83,-262 136,-341zm344 340c17,-43 62,-65 100,-50 39,15 56,62 40,105 -35,88 -91,205 -201,307 -11,-136 26,-274 61,-362zm381 268c14,-44 57,-70 97,-58 39,13 60,59 46,103 -29,90 -76,211 -179,319 -21,-135 7,-274 36,-364zm399 183c8,-46 48,-77 88,-70 41,7 68,50 60,96 -17,93 -49,219 -137,340 -38,-132 -28,-273 -11,-366zm409 88c7,-46 45,-78 86,-73 41,6 69,48 63,94 -13,93 -40,220 -123,345 -43,-130 -38,-272 -26,-366zm408 56c0,-47 34,-84 75,-84 41,0 75,37 75,84 0,94 -9,224 -75,358 -60,-122 -75,-264 -75,-358zm232 476c0,-46 34,-84 75,-84 42,0 75,38 75,84 0,95 -9,225 -75,359 -60,-123 -75,-264 -75,-359zm-915 -96c8,-45 48,-77 89,-69 40,7 67,50 59,95 -17,93 -48,219 -136,340 -38,-131 -28,-273 -12,-366zm453 36c6,-46 44,-79 85,-73 42,5 70,47 63,93 -12,94 -39,221 -123,345 -43,-129 -38,-271 -25,-365zm-2226 -673c26,-38 75,-50 109,-26 34,23 40,73 14,111 -54,78 -136,179 -266,252 20,-135 89,-260 143,-337zm6554 -1749c-41,-22 -90,-9 -109,27 -19,37 -1,84 40,106 84,44 203,95 352,100 -80,-111 -199,-189 -283,-233zm110 971c-36,-30 -87,-28 -113,4 -26,32 -19,82 17,111 73,61 179,136 324,171 -56,-125 -156,-226 -228,-286zm235 -495c-39,-26 -88,-18 -111,17 -23,35 -9,83 29,108 80,52 193,115 342,133 -70,-117 -180,-207 -260,-258zm200 -567c-43,-19 -90,-3 -107,35 -17,38 4,83 47,102 86,38 208,82 358,76 -88,-105 -212,-175 -298,-213zm-790 1509c-32,-34 -82,-38 -112,-10 -30,29 -29,79 3,113 64,69 160,157 300,210 -40,-131 -126,-244 -191,-313zm-923 597c-23,-41 -70,-58 -106,-38 -37,20 -48,69 -26,110 46,83 116,192 239,278 -7,-136 -62,-267 -107,-350zm-821 249c-14,-45 -58,-70 -97,-58 -40,12 -60,58 -46,103 28,90 76,211 179,319 20,-135 -8,-274 -36,-364zm447 -91c-14,-44 -57,-71 -96,-59 -40,12 -61,58 -48,102 27,91 73,212 175,322 22,-135 -4,-274 -31,-365zm466 -564c-25,-40 -74,-53 -109,-31 -35,22 -43,72 -18,111 51,80 128,184 255,262 -14,-135 -78,-263 -128,-342zm353 -372c-28,-37 -77,-47 -110,-22 -34,24 -38,74 -10,112 56,76 141,174 273,243 -24,-134 -97,-257 -153,-333zm264 -383c-33,-33 -83,-35 -112,-5 -29,29 -26,80 8,112 67,66 167,150 309,197 -46,-129 -137,-238 -205,-304zm227 -433c-40,-23 -90,-13 -110,22 -21,36 -6,84 34,107 82,48 199,105 348,116 -76,-113 -190,-197 -272,-245zm-3372 1526c41,0 75,38 75,84 0,95 -15,236 -75,359l0 0 0 0c-60,-123 -75,-264 -75,-359 0,-46 34,-84 75,-84zm2435 -876c-25,-38 -74,-51 -109,-28 -34,23 -41,73 -16,111 52,79 132,182 261,258 -18,-136 -84,-262 -136,-341zm-344 340c-17,-43 -62,-65 -100,-50 -39,15 -57,62 -40,105 35,88 91,205 201,307 11,-136 -27,-274 -61,-362zm-381 268c-14,-44 -57,-70 -97,-58 -39,13 -60,59 -46,103 28,90 76,211 179,319 21,-135 -7,-274 -36,-364zm-399 183c-8,-46 -48,-77 -89,-70 -40,7 -67,50 -59,96 17,93 48,219 136,340 38,-132 28,-273 12,-366zm-410 88c-6,-46 -44,-78 -85,-73 -41,6 -69,48 -63,94 13,93 40,220 123,345 43,-130 38,-272 25,-366zm-407 56c0,-47 -34,-84 -75,-84 -42,0 -75,37 -75,84 0,94 9,224 75,358 60,-122 75,-264 75,-358zm-232 476c0,-46 -34,-84 -75,-84 -42,0 -75,38 -75,84 0,95 9,225 75,359 60,-123 75,-264 75,-359zm915 -96c-8,-45 -48,-77 -89,-69 -40,7 -67,50 -59,95 17,93 48,219 136,340 38,-131 28,-273 12,-366zm-453 36c-6,-46 -45,-79 -86,-73 -41,5 -69,47 -63,93 13,94 40,221 123,345 43,-129 39,-271 26,-365zm2226 -673c-26,-38 -76,-50 -110,-26 -34,23 -40,73 -13,111 54,78 136,179 266,252 -20,-135 -89,-260 -143,-337z" style="fill:#d5f93b"/>
 </g><g id="Nose-Pig6">
 <animateTransform additive="sum" attributeName="transform" dur="10" repeatCount="indefinite" type="translate" values="0;0 200;0;0 200;0;0 200;0;0 200;0"/>
  <metadata id="CorelCorpID_147Corel-Layer"/>
  <g id="_2991533224368">
   <path class="Nose-Pig6fil244 Nose-Pig6str0" d="M15270 14963c0,-1041 -1142,-1152 -1588,-1883 -446,731 -1588,842 -1588,1883 0,708 795,391 1588,392 795,1 1588,318 1588,-392z" style="fill:#700649"/>
   <g>
    <path class="Nose-Pig6fil26 Nose-Pig6str3" d="M14614 14852c-125,28 -305,-100 -404,-285 -98,-185 -77,-357 48,-384 124,-27 305,100 403,285 98,185 77,357 -47,384z" style="fill:#cbe9b1"/>
    <path class="Nose-Pig6fil237 Nose-Pig6str3" d="M14614 14852c-125,28 -305,-100 -404,-285 -98,-185 -77,-357 48,-384 124,-27 305,100 403,285 98,185 77,357 -47,384z" style="fill:#99ae3a"/>
   </g>
   <g>
    <path class="Nose-Pig6fil26 Nose-Pig6str3" d="M12750 14852c125,28 305,-100 403,-285 99,-185 78,-357 -47,-384 -124,-27 -305,100 -403,285 -98,185 -77,357 47,384z" style="fill:#cb32f3"/>
    <path class="Nose-Pig6fil237 Nose-Pig6str3" d="M12750 14852c125,28 305,-100 403,-285 99,-185 78,-357 -47,-384 -124,-27 -305,100 -403,285 -98,185 -77,357 47,384z" style="fill:#bb27d3"/>
   </g>
  </g>
 </g><g id="Hair-Pig3">
 <animateTransform additive="sum" attributeName="transform" dur="10" repeatCount="indefinite" type="translate" values="0;0 200;0;0 200;0;0 200;0;0 200;0"/>
  <metadata id="CorelCorpID_151Corel-Layer"/>
  <path class="Hair-Pig3fil248" d="M16453 8749c724,-349 1169,-1161 854,-1728 -94,247 -256,417 -666,580 746,-915 183,-1801 -976,-1516 863,521 114,1008 -417,918 -730,-124 -193,-973 -973,-1277 -1407,-550 -3782,1069 -3503,2656 2500,-1339 3287,1522 5681,367z" style="fill:#a78f46"/>
  <path class="Hair-Pig3fil10" d="M16263 8834c840,-373 1249,-1039 1075,-1750 -137,687 -854,1684 -2003,1654 -756,-19 -1339,-677 -1936,-936 -586,-255 -1231,-324 -2203,386 167,-58 574,-255 1159,-154 721,125 1712,676 1996,788 572,226 1174,339 1912,12z" style="fill:#6b67e0"/>
  <path class="Hair-Pig3fil10" d="M14059 5660c0,0 407,215 456,687 48,473 20,741 271,933 597,457 1453,-41 1327,-847 -122,426 -455,694 -1014,528 -560,-166 115,-973 -1040,-1301z" style="fill:#6ac720"/>
  <path class="Hair-Pig3fil10" d="M10819 8270c0,0 215,-848 943,-1212 729,-364 1151,-181 1151,-181 0,0 -569,-3 -1025,346 -456,350 -602,846 -602,846 0,0 -548,424 -467,201z" style="fill:#782de9"/>
  <path class="Hair-Pig3fil249" d="M15821 6053c0,0 656,127 646,442 -10,315 -108,890 -744,1158 -981,415 -1841,-1615 -3316,-969 1487,-167 1886,1405 2827,1543 670,98 1203,-319 1407,-626 204,-308 943,-1519 -820,-1548z" style="fill:#ac9801"/>
  <path class="Hair-Pig3fil0 Hair-Pig3str0" d="M16453 8749c724,-349 1169,-1161 854,-1728 -94,247 -256,417 -666,580 746,-915 183,-1801 -976,-1516 863,521 114,1008 -417,918 -730,-124 -193,-973 -973,-1277 -1407,-550 -3782,1069 -3503,2656 2500,-1339 3287,1522 5681,367z" style="fill:#470f0e"/>
 </g></svg>