<svg xmlns="http://www.w3.org/2000/svg" xmlns:xlink="http://www.w3.org/1999/xlink" style="shape-rendering:geometricPrecision; text-rendering:geometricPrecision; image-rendering:optimizeQuality; fill-rule:evenodd; clip-rule:evenodd" version="1.1" viewBox="0 0 29000 29000" xml:space="preserve"><defs><style type="text/css">.BraceletLeather-Mediumfil43new {fill:white;fill-opacity:0.200000}
.BraceletLeather-Mediumfil46new {fill:white;fill-rule:nonzero;fill-opacity:0.200000}
.BraceletLeather-Mediumfil42new {fill:url(#BraceletLeather-Mediumid14new)}
.BraceletLeather-Mediumstr3new {stroke:black;stroke-width:100;stroke-linecap:round;stroke-linejoin:round}
.BraceletLeather-Mediumfil33new {fill:none}
.BraceletLeather-Mediumfil44new {fill:url(#BraceletLeather-Mediumid88new)}
.BraceletLeather-Mediumfil45new {fill:url(#BraceletLeather-Mediumid672new);fill-rule:nonzero}
.BraceletLeather-Mediumstr4new {stroke:black;stroke-width:100}
.BraceletLeather-Mediumfil47new {fill:none;fill-rule:nonzero}
.BraceletLeather-Mediumfil48new {fill:url(#BraceletLeather-Mediumid15new)}
.BraceletLeather-Mediumfil49new {fill:url(#BraceletLeather-Mediumid207new)}
.BraceletLeather-Mediumfil50new {fill:url(#BraceletLeather-Mediumid690new);fill-rule:nonzero}
.WeaponFlySwatterBack-Mediumfil1 {fill:black;fill-rule:nonzero;fill-opacity:0.200000}
.WeaponFlySwatterBack-Mediumfil0 {fill:url(#WeaponFlySwatterBack-Mediumid26);fill-rule:nonzero}
.WeaponFlySwatterBack-Mediumstr0 {stroke:black;stroke-width:150;stroke-linecap:round;stroke-linejoin:round}
.WeaponFlySwatter-Mediumfil3 {fill:black;fill-opacity:0.200000}
.WeaponFlySwatter-Mediumfil4 {fill:url(#WeaponFlySwatter-Mediumid24);fill-rule:nonzero}
.WeaponFlySwatter-Mediumfil1 {fill:black;fill-rule:nonzero;fill-opacity:0.200000}
.WeaponFlySwatter-Mediumfil2 {fill:url(#WeaponFlySwatter-Mediumid0)}
.WeaponFlySwatter-Mediumstr0 {stroke:black;stroke-width:150;stroke-linecap:round;stroke-linejoin:round}
.WeaponFlySwatter-Mediumfil5 {fill:none;fill-rule:nonzero}
.WeaponFlySwatter-Mediumstr1 {stroke:black;stroke-width:150}
.HairBack-Pig2fil10 {fill:black;fill-opacity:0.200000}
.HairBack-Pig2fil22 {fill:url(#HairBack-Pig2id7)}
.HairBack-Pig2str0 {stroke:black;stroke-width:150;stroke-linecap:round;stroke-linejoin:round}
.HairBack-Pig2fil23 {fill:url(#HairBack-Pig2id157)}
.Tail-Pig2fil26 {fill:black;fill-opacity:0.301961}
.Tail-Pig2fil25 {fill:url(#Tail-Pig2id197)}
.Tail-Pig2str1 {stroke:black;stroke-width:150}
.Tail-Pig2fil27 {fill:url(#Tail-Pig2id96)}
.RightFoot-Pig0fil37 {fill:#ffffff}
.RightFoot-Pig0fil38 {fill:#77613d}
.RightFoot-Pig0fil39 {fill:url(#RightFoot-Pig0id227)}
.RightFoot-Pig0fil40 {fill:black}
.RightFoot-Pig0fil10 {fill:black;fill-opacity:0.200000}
.RightFoot-Pig0fil0 {fill:none}
.RightFoot-Pig0str2 {stroke:black;stroke-width:150;stroke-linecap:round;stroke-linejoin:round}
.RightLeg-Pig0fil52 {fill:url(#RightLeg-Pig0id37)}
.RightLeg-Pig0fil10 {fill:black;fill-opacity:0.200000}
.RightLeg-Pig0fil0 {fill:none}
.RightLeg-Pig0str2 {stroke:black;stroke-width:150;stroke-linecap:round;stroke-linejoin:round}
.LeftFoot-Pig0fil37 {fill:#ffffff}
.LeftFoot-Pig0fil38 {fill:#77613d}
.LeftFoot-Pig0fil57 {fill:url(#LeftFoot-Pig0id220)}
.LeftFoot-Pig0fil40 {fill:black}
.LeftFoot-Pig0fil10 {fill:black;fill-opacity:0.200000}
.LeftFoot-Pig0fil0 {fill:none}
.LeftFoot-Pig0str2 {stroke:black;stroke-width:150;stroke-linecap:round;stroke-linejoin:round}
.LeftLeg-Pig0fil62 {fill:url(#LeftLeg-Pig0id49)}
.LeftLeg-Pig0fil10 {fill:black;fill-opacity:0.200000}
.LeftLeg-Pig0fil0 {fill:none}
.LeftLeg-Pig0str2 {stroke:black;stroke-width:150;stroke-linecap:round;stroke-linejoin:round}
.RightHand-Pig0fil68 {fill:url(#RightHand-Pig0id57)}
.RightHand-Pig0fil10 {fill:black;fill-opacity:0.200000}
.RightHand-Pig0fil0 {fill:none}
.RightHand-Pig0str0 {stroke:black;stroke-width:150;stroke-linecap:round;stroke-linejoin:round}
.RightPaw-Pig3fil74 {fill:url(#RightPaw-Pig3id25)}
.RightPaw-Pig3fil10 {fill:black;fill-opacity:0.200000}
.RightPaw-Pig3fil77 {fill:url(#RightPaw-Pig3id216)}
.RightPaw-Pig3fil40 {fill:black}
.RightPaw-Pig3fil0 {fill:none}
.RightPaw-Pig3str2 {stroke:black;stroke-width:150;stroke-linecap:round;stroke-linejoin:round}
.LeftHand-Pig0fil79 {fill:url(#LeftHand-Pig0id22)}
.LeftHand-Pig0fil10 {fill:black;fill-opacity:0.200000}
.LeftHand-Pig0fil0 {fill:none}
.LeftHand-Pig0str0 {stroke:black;stroke-width:150;stroke-linecap:round;stroke-linejoin:round}
.Body-Pig2fil83 {fill:url(#Body-Pig2id42)}
.Body-Pig2fil86 {fill:url(#Body-Pig2id214)}
.Body-Pig2fil87 {fill:url(#Body-Pig2id215)}
.Body-Pig2fil10 {fill:black;fill-opacity:0.200000}
.Body-Pig2fil84 {fill:black;fill-rule:nonzero}
.LeftPaw-Pig3fil91 {fill:url(#LeftPaw-Pig3id70)}
.LeftPaw-Pig3fil10 {fill:black;fill-opacity:0.200000}
.LeftPaw-Pig3fil94 {fill:url(#LeftPaw-Pig3id212)}
.LeftPaw-Pig3fil40 {fill:black}
.LeftPaw-Pig3fil0 {fill:none}
.LeftPaw-Pig3str2 {stroke:black;stroke-width:150;stroke-linecap:round;stroke-linejoin:round}
.Ears-Pig4fil118 {fill:url(#Ears-Pig4id77)}
.Ears-Pig4fil84 {fill:black;fill-rule:nonzero}
.Ears-Pig4fil115 {fill:black;fill-opacity:0.101961}
.Ears-Pig4fil10 {fill:black;fill-opacity:0.200000}
.Ears-Pig4fil120 {fill:url(#Ears-Pig4id26)}
.Ears-Pig4fil117 {fill:url(#Ears-Pig4id54)}
.Ears-Pig4str0 {stroke:black;stroke-width:150;stroke-linecap:round;stroke-linejoin:round}
.Ears-Pig4fil119 {fill:url(#Ears-Pig4id62)}
.Head-Pig5fil165 {fill:url(#Head-Pig5id36)}
.Head-Pig5fil10 {fill:black;fill-opacity:0.200000}
.Head-Pig5fil84 {fill:black;fill-rule:nonzero}
.Mouth-Pig1fil26 {fill:black;fill-opacity:0.301961}
.Mouth-Pig1fil169 {fill:black}
.Mouth-Pig1fil170 {fill:black;fill-rule:nonzero;fill-opacity:0.301961}
.Mouth-Pig1fil0 {fill:none}
.Mouth-Pig1str0 {stroke:black;stroke-width:150;stroke-linecap:round;stroke-linejoin:round}
.Eyes-Pig0fil174 {fill:url(#Eyes-Pig0id154)}
.Eyes-Pig0fil148 {fill:black;fill-opacity:0.501961}
.Eyes-Pig0fil175 {fill:url(#Eyes-Pig0id108)}
.Eyes-Pig0fil173 {fill:white}
.Eyes-Pig0fil176 {fill:url(#Eyes-Pig0id100)}
.Eyes-Pig0fil177 {fill:url(#Eyes-Pig0id156)}
.Eyes-Pig0fil178 {fill:url(#Eyes-Pig0id106)}
.Eyes-Pig0fil179 {fill:url(#Eyes-Pig0id102)}
.Eyes-Pig0fil0 {fill:none}
.Eyes-Pig0str0 {stroke:black;stroke-width:150;stroke-linecap:round;stroke-linejoin:round}
.Moustache-Pig0fil0 {fill:none}
.Nose-Pig0fil236 {fill:url(#Nose-Pig0id201)}
.Nose-Pig0str0 {stroke:black;stroke-width:150;stroke-linecap:round;stroke-linejoin:round}
.Nose-Pig0fil26 {fill:black;fill-opacity:0.301961}
.Nose-Pig0str3 {stroke:black;stroke-width:150;stroke-linecap:round;stroke-linejoin:round;stroke-opacity:0.301961}
.Nose-Pig0fil237 {fill:none}
.Hair-Pig4fil250 {fill:url(#Hair-Pig4id8)}
.Hair-Pig4fil10 {fill:black;fill-opacity:0.200000}
.Hair-Pig4fil84 {fill:black;fill-rule:nonzero}
.Hair-Pig4fil246 {fill:#e9934a;fill-opacity:0.701961}
.Hair-Pig4fil251 {fill:url(#Hair-Pig4id24)}
.Hair-Pig4fil0 {fill:none}
.Hair-Pig4str0 {stroke:black;stroke-width:150;stroke-linecap:round;stroke-linejoin:round}
.Hair-Pig4fil252 {fill:url(#Hair-Pig4id85)}
.Hair-Pig4str1 {stroke:black;stroke-width:150}
</style><linearGradient gradientUnits="userSpaceOnUse" id="BraceletLeather-Mediumid14new" x1="8682.96" x2="8745.92" y1="19682.8" y2="19053.1">
   <stop offset="0" style="stop-opacity:1; stop-color:#683501"/>
   <stop offset="1" style="stop-opacity:1; stop-color:#B08227"/>
  </linearGradient><linearGradient gradientUnits="userSpaceOnUse" id="BraceletLeather-Mediumid88new" x1="8626.8" x2="8294.02" xlink:href="#BraceletLeather-Mediumid14new" y1="19859" y2="19314.4">
  </linearGradient><linearGradient gradientUnits="userSpaceOnUse" id="BraceletLeather-Mediumid672new" x1="8784.44" x2="10049.5" y1="19759" y2="20796.3">
   <stop offset="0" style="stop-opacity:1; stop-color:#643300"/>
   <stop offset="0.321569" style="stop-opacity:1; stop-color:#B5872A"/>
   <stop offset="1" style="stop-opacity:1; stop-color:#643300"/>
  </linearGradient><linearGradient gradientUnits="userSpaceOnUse" id="BraceletLeather-Mediumid15new" x1="18680.9" x2="18617.9" xlink:href="#BraceletLeather-Mediumid14new" y1="19682.8" y2="19053.1">
  </linearGradient><linearGradient gradientUnits="userSpaceOnUse" id="BraceletLeather-Mediumid207new" x1="18737" x2="19069.8" xlink:href="#BraceletLeather-Mediumid14new" y1="19859" y2="19314.4">
  </linearGradient><linearGradient gradientUnits="userSpaceOnUse" id="BraceletLeather-Mediumid690new" x1="18579.4" x2="17314.3" xlink:href="#BraceletLeather-Mediumid672new" y1="19759" y2="20796.3">
  </linearGradient><linearGradient gradientUnits="userSpaceOnUse" id="WeaponFlySwatterBack-Mediumid26" x1="7745.86" x2="9181.7" xlink:href="#WeaponFlySwatterBack-Mediumid24" y1="21810.6" y2="20301.7">
  </linearGradient><linearGradient gradientUnits="userSpaceOnUse" id="WeaponFlySwatter-Mediumid24" x1="12160.4" x2="14712.1" y1="25216.2" y2="22534.8">
   <stop offset="0" style="stop-opacity:1; stop-color:#008011"/>
   <stop offset="1" style="stop-opacity:1; stop-color:#00BD55"/>
  </linearGradient><linearGradient gradientUnits="userSpaceOnUse" id="WeaponFlySwatter-Mediumid0" x1="9457.05" x2="12008.3" y1="22428.9" y2="22293.2">
   <stop offset="0" style="stop-opacity:1; stop-color:#787878"/>
   <stop offset="1" style="stop-opacity:1; stop-color:#D6D6D6"/>
  </linearGradient><linearGradient gradientUnits="userSpaceOnUse" id="HairBack-Pig2id7" x1="17165.3" x2="17165.3" y1="19960.9" y2="12270.8">
   <stop offset="0" style="stop-opacity:1; stop-color:#cf792d"/>
   <stop offset="1" style="stop-opacity:1; stop-color:#e9934a"/>
  </linearGradient><linearGradient gradientUnits="userSpaceOnUse" id="HairBack-Pig2id157" x1="10198.6" x2="10198.6" xlink:href="#HairBack-Pig2id7" y1="19960.9" y2="12270.8">
  </linearGradient><linearGradient gradientUnits="userSpaceOnUse" id="Tail-Pig2id197" x1="17344.8" x2="17524.4" xlink:href="#Tail-Pig2id94" y1="23500.4" y2="22540.2">
  </linearGradient><linearGradient gradientUnits="userSpaceOnUse" id="Tail-Pig2id96" x1="16430.9" x2="18027.3" xlink:href="#Tail-Pig2id94" y1="22909.3" y2="21761">
  </linearGradient><linearGradient gradientUnits="objectBoundingBox" id="RightFoot-Pig0id227" x1="49.9997%" x2="49.9997%" xlink:href="#RightFoot-Pig0id0" y1="100%" y2="0%">
  </linearGradient><linearGradient gradientUnits="objectBoundingBox" id="RightLeg-Pig0id37" x1="50%" x2="50%" xlink:href="#RightLeg-Pig0id2" y1="100%" y2="0%">
  </linearGradient><linearGradient gradientUnits="objectBoundingBox" id="LeftFoot-Pig0id220" x1="50.0003%" x2="50.0003%" xlink:href="#LeftFoot-Pig0id0" y1="100%" y2="0%">
  </linearGradient><linearGradient gradientUnits="objectBoundingBox" id="LeftLeg-Pig0id49" x1="50%" x2="50%" xlink:href="#LeftLeg-Pig0id2" y1="100%" y2="0%">
  </linearGradient><linearGradient gradientUnits="objectBoundingBox" id="RightHand-Pig0id57" x1="30.1244%" x2="69.8756%" xlink:href="#RightHand-Pig0id22" y1="2.32158%" y2="97.6784%">
  </linearGradient><linearGradient gradientUnits="objectBoundingBox" id="RightPaw-Pig3id25" x1="81.8832%" x2="18.1168%" y1="89.1977%" y2="10.8018%">
   <stop offset="0" style="stop-opacity:1; stop-color:#d9d2c3"/>
   <stop offset="0.619608" style="stop-opacity:1; stop-color:#fffbf2"/>
   <stop offset="1" style="stop-opacity:1; stop-color:#fffbf2"/>
  </linearGradient><linearGradient gradientUnits="objectBoundingBox" id="RightPaw-Pig3id216" x1="28.208%" x2="71.792%" xlink:href="#RightPaw-Pig3id5" y1="1.78354%" y2="98.2165%">
  </linearGradient><linearGradient gradientUnits="objectBoundingBox" id="LeftHand-Pig0id22" x1="69.8756%" x2="30.1244%" y1="2.32158%" y2="97.6784%">
   <stop offset="0" style="stop-opacity:1; stop-color:#d9d2c3"/>
   <stop offset="0.0196078" style="stop-opacity:1; stop-color:#d9d2c3"/>
   <stop offset="0.921569" style="stop-opacity:1; stop-color:#fffbf2"/>
   <stop offset="1" style="stop-opacity:1; stop-color:#fffbf2"/>
  </linearGradient><linearGradient gradientUnits="objectBoundingBox" id="Body-Pig2id42" x1="50%" x2="50%" y1="0.000186021%" y2="100%">
   <stop offset="0" style="stop-opacity:1; stop-color:#d9d2c3"/>
   <stop offset="0.0313725" style="stop-opacity:1; stop-color:#d9d2c3"/>
   <stop offset="0.529412" style="stop-opacity:1; stop-color:#fffbf2"/>
   <stop offset="1" style="stop-opacity:1; stop-color:#ffffff"/>
  </linearGradient><linearGradient gradientUnits="userSpaceOnUse" id="Body-Pig2id214" x1="15766.2" x2="15766.2" xlink:href="#Body-Pig2id0" y1="19640.4" y2="22051.2">
  </linearGradient><linearGradient gradientUnits="userSpaceOnUse" id="Body-Pig2id215" x1="11499.5" x2="11499.5" xlink:href="#Body-Pig2id0" y1="19195.6" y2="22068.4">
  </linearGradient><linearGradient gradientUnits="objectBoundingBox" id="LeftPaw-Pig3id70" x1="18.1168%" x2="81.8832%" xlink:href="#LeftPaw-Pig3id25" y1="89.1977%" y2="10.8018%">
  </linearGradient><linearGradient gradientUnits="objectBoundingBox" id="LeftPaw-Pig3id212" x1="71.792%" x2="28.208%" xlink:href="#LeftPaw-Pig3id5" y1="1.78354%" y2="98.2165%">
  </linearGradient><linearGradient gradientUnits="userSpaceOnUse" id="Ears-Pig4id77" x1="17742.8" x2="17952.8" xlink:href="#Ears-Pig4id26" y1="10179.2" y2="8219.56">
  </linearGradient><linearGradient gradientUnits="userSpaceOnUse" id="Ears-Pig4id54" x1="18730.3" x2="18730.3" xlink:href="#Ears-Pig4id3" y1="12181.6" y2="7492.58">
  </linearGradient><linearGradient gradientUnits="userSpaceOnUse" id="Ears-Pig4id62" x1="8633.58" x2="8633.58" xlink:href="#Ears-Pig4id3" y1="12181.6" y2="7492.58">
  </linearGradient><linearGradient gradientUnits="objectBoundingBox" id="Head-Pig5id36" x1="50%" x2="50%" xlink:href="#Head-Pig5id3" y1="100%" y2="9.57532e-005%">
  </linearGradient><linearGradient gradientUnits="userSpaceOnUse" id="Eyes-Pig0id154" x1="16571.6" x2="17280" xlink:href="#Eyes-Pig0id148" y1="14231.4" y2="11213.2">
  </linearGradient><linearGradient gradientUnits="userSpaceOnUse" id="Eyes-Pig0id108" x1="18190.8" x2="15498.7" xlink:href="#Eyes-Pig0id10" y1="13790.3" y2="13468">
  </linearGradient><linearGradient gradientUnits="userSpaceOnUse" id="Eyes-Pig0id100" x1="16928.3" x2="16431.9" xlink:href="#Eyes-Pig0id45" y1="11523.4" y2="13592.4">
  </linearGradient><linearGradient gradientUnits="userSpaceOnUse" id="Eyes-Pig0id156" x1="10792.3" x2="10083.9" xlink:href="#Eyes-Pig0id148" y1="14231.4" y2="11213.2">
  </linearGradient><linearGradient gradientUnits="userSpaceOnUse" id="Eyes-Pig0id106" x1="9173.07" x2="11865.2" xlink:href="#Eyes-Pig0id10" y1="13790.3" y2="13468">
  </linearGradient><linearGradient gradientUnits="userSpaceOnUse" id="Eyes-Pig0id102" x1="10435.6" x2="10932" xlink:href="#Eyes-Pig0id45" y1="11523.4" y2="13592.4">
  </linearGradient><linearGradient gradientUnits="userSpaceOnUse" id="Nose-Pig0id201" x1="13681.9" x2="13681.9" xlink:href="#Nose-Pig0id151" y1="13309.5" y2="15458">
  </linearGradient><linearGradient gradientUnits="userSpaceOnUse" id="Hair-Pig4id8" x1="14145" x2="14145" xlink:href="#Hair-Pig4id7" y1="3897.69" y2="8320.53">
  </linearGradient><linearGradient gradientUnits="userSpaceOnUse" id="Hair-Pig4id24" x1="13551.5" x2="13551.5" xlink:href="#Hair-Pig4id7" y1="6803" y2="8984.48">
  </linearGradient><linearGradient gradientUnits="userSpaceOnUse" id="Hair-Pig4id85" x1="12145.8" x2="14996" xlink:href="#Hair-Pig4id10" y1="6795.31" y2="6795.31">
  </linearGradient><linearGradient gradientUnits="userSpaceOnUse" id="WeaponFlySwatterBack-Mediumid24" x1="12160.4" x2="14712.1" y1="25216.2" y2="22534.8">
   <stop offset="0" style="stop-opacity:1; stop-color:#008011"/>
   <stop offset="1" style="stop-opacity:1; stop-color:#00BD55"/>
  </linearGradient><linearGradient gradientUnits="userSpaceOnUse" id="Tail-Pig2id94" x1="13432.5" x2="17737.9" y1="23392.7" y2="23392.7">
   <stop offset="0" style="stop-opacity:1; stop-color:#d9d2c3"/>
   <stop offset="1" style="stop-opacity:1; stop-color:#ffffff"/>
  </linearGradient><linearGradient gradientUnits="userSpaceOnUse" id="RightFoot-Pig0id0" x1="16257.8" x2="16257.8" y1="21560.3" y2="23683.4">
   <stop offset="0" style="stop-opacity:1; stop-color:#77613d"/>
   <stop offset="1" style="stop-opacity:1; stop-color:#9e8660"/>
  </linearGradient><linearGradient gradientUnits="userSpaceOnUse" id="RightLeg-Pig0id2" x1="11782.6" x2="11782.6" y1="24212.9" y2="21311.8">
   <stop offset="0" style="stop-opacity:1; stop-color:#ffffff"/>
   <stop offset="0.388235" style="stop-opacity:1; stop-color:#ffffff"/>
   <stop offset="1" style="stop-opacity:1; stop-color:#fffbf2"/>
  </linearGradient><linearGradient gradientUnits="userSpaceOnUse" id="LeftFoot-Pig0id0" x1="16257.8" x2="16257.8" y1="21560.3" y2="23683.4">
   <stop offset="0" style="stop-opacity:1; stop-color:#77613d"/>
   <stop offset="1" style="stop-opacity:1; stop-color:#9e8660"/>
  </linearGradient><linearGradient gradientUnits="userSpaceOnUse" id="LeftLeg-Pig0id2" x1="11782.6" x2="11782.6" y1="24212.9" y2="21311.8">
   <stop offset="0" style="stop-opacity:1; stop-color:#ffffff"/>
   <stop offset="0.388235" style="stop-opacity:1; stop-color:#ffffff"/>
   <stop offset="1" style="stop-opacity:1; stop-color:#fffbf2"/>
  </linearGradient><linearGradient gradientUnits="objectBoundingBox" id="RightHand-Pig0id22" x1="69.8756%" x2="30.1244%" y1="2.32158%" y2="97.6784%">
   <stop offset="0" style="stop-opacity:1; stop-color:#d9d2c3"/>
   <stop offset="0.0196078" style="stop-opacity:1; stop-color:#d9d2c3"/>
   <stop offset="0.921569" style="stop-opacity:1; stop-color:#fffbf2"/>
   <stop offset="1" style="stop-opacity:1; stop-color:#fffbf2"/>
  </linearGradient><linearGradient gradientUnits="userSpaceOnUse" id="RightPaw-Pig3id5" x1="18537.4" x2="18537.4" y1="11625" y2="5118.17">
   <stop offset="0" style="stop-opacity:1; stop-color:#77613d"/>
   <stop offset="1" style="stop-opacity:1; stop-color:#fffbf2"/>
  </linearGradient><linearGradient gradientUnits="userSpaceOnUse" id="Body-Pig2id0" x1="16257.8" x2="16257.8" y1="21560.3" y2="23683.4">
   <stop offset="0" style="stop-opacity:1; stop-color:#77613d"/>
   <stop offset="1" style="stop-opacity:1; stop-color:#9e8660"/>
  </linearGradient><linearGradient gradientUnits="objectBoundingBox" id="LeftPaw-Pig3id25" x1="81.8832%" x2="18.1168%" y1="89.1977%" y2="10.8018%">
   <stop offset="0" style="stop-opacity:1; stop-color:#d9d2c3"/>
   <stop offset="0.619608" style="stop-opacity:1; stop-color:#fffbf2"/>
   <stop offset="1" style="stop-opacity:1; stop-color:#fffbf2"/>
  </linearGradient><linearGradient gradientUnits="userSpaceOnUse" id="LeftPaw-Pig3id5" x1="18537.4" x2="18537.4" y1="11625" y2="5118.17">
   <stop offset="0" style="stop-opacity:1; stop-color:#77613d"/>
   <stop offset="1" style="stop-opacity:1; stop-color:#fffbf2"/>
  </linearGradient><linearGradient gradientUnits="userSpaceOnUse" id="Ears-Pig4id26" x1="9621.09" x2="9411.13" y1="10179.2" y2="8219.56">
   <stop offset="0" style="stop-opacity:1; stop-color:#E39DA8"/>
   <stop offset="1" style="stop-opacity:1; stop-color:#B26572"/>
  </linearGradient><linearGradient gradientUnits="userSpaceOnUse" id="Ears-Pig4id3" x1="18922.8" x2="18922.8" y1="11187.2" y2="5413.87">
   <stop offset="0" style="stop-opacity:1; stop-color:#d9d2c3"/>
   <stop offset="0.388235" style="stop-opacity:1; stop-color:#fffbf2"/>
   <stop offset="1" style="stop-opacity:1; stop-color:#ffffff"/>
  </linearGradient><linearGradient gradientUnits="userSpaceOnUse" id="Head-Pig5id3" x1="18922.8" x2="18922.8" y1="11187.2" y2="5413.87">
   <stop offset="0" style="stop-opacity:1; stop-color:#d9d2c3"/>
   <stop offset="0.388235" style="stop-opacity:1; stop-color:#fffbf2"/>
   <stop offset="1" style="stop-opacity:1; stop-color:#ffffff"/>
  </linearGradient><linearGradient gradientUnits="userSpaceOnUse" id="Eyes-Pig0id148" x1="16641" x2="17334.4" y1="14255.9" y2="11076.2">
   <stop offset="0" style="stop-opacity:1; stop-color:#365680"/>
   <stop offset="1" style="stop-opacity:1; stop-color:black"/>
  </linearGradient><linearGradient gradientUnits="userSpaceOnUse" id="Eyes-Pig0id10" x1="15305.7" x2="18262.7" y1="12539.6" y2="12539.6">
   <stop offset="0" style="stop-opacity:1; stop-color:#365680"/>
   <stop offset="0.501961" style="stop-opacity:1; stop-color:#acd0ff"/>
   <stop offset="1" style="stop-opacity:1; stop-color:#365680"/>
  </linearGradient><linearGradient gradientUnits="userSpaceOnUse" id="Eyes-Pig0id45" x1="16680.3" x2="16680.3" y1="11243.5" y2="13543.4">
   <stop offset="0" style="stop-opacity:1; stop-color:black"/>
   <stop offset="0.4" style="stop-opacity:1; stop-color:black"/>
   <stop offset="1" style="stop-opacity:1; stop-color:#264266"/>
  </linearGradient><linearGradient gradientUnits="userSpaceOnUse" id="Nose-Pig0id151" x1="13681.9" x2="13681.9" y1="13554.2" y2="15469.2">
   <stop offset="0" style="stop-opacity:1; stop-color:#FFCCCC"/>
   <stop offset="1" style="stop-opacity:1; stop-color:#DB9092"/>
  </linearGradient><linearGradient gradientUnits="userSpaceOnUse" id="Hair-Pig4id7" x1="17165.3" x2="17165.3" y1="19960.9" y2="12270.8">
   <stop offset="0" style="stop-opacity:1; stop-color:#cf792d"/>
   <stop offset="1" style="stop-opacity:1; stop-color:#e9934a"/>
  </linearGradient><linearGradient gradientUnits="userSpaceOnUse" id="Hair-Pig4id10" x1="15305.7" x2="18262.7" y1="12539.6" y2="12539.6">
   <stop offset="0" style="stop-opacity:1; stop-color:#365680"/>
   <stop offset="0.501961" style="stop-opacity:1; stop-color:#acd0ff"/>
   <stop offset="1" style="stop-opacity:1; stop-color:#365680"/>
  </linearGradient></defs><g id="HairBack-Pig2">
 <animateTransform additive="sum" attributeName="transform" dur="10" repeatCount="indefinite" type="translate" values="0;0 200;0;0 200;0;0 200;0;0 200;0"/>
  <metadata id="CorelCorpID_2Corel-Layer"/>
  <g id="_2991486215600">
   <path class="HairBack-Pig2fil22 HairBack-Pig2str0" d="M19794 18137c-364,761 -976,1098 -1662,1277 -177,46 499,-649 277,-2253 -14,1318 -776,2455 -970,2495 -2271,477 -3726,500 -3745,-708 -16,-987 -10,-755 -10,-6503 2879,-406 5213,-71 6125,671 0,0 1126,2928 769,4516 -358,1587 -1607,2293 -1607,2293 0,0 483,-540 756,-1524 25,-89 47,-177 67,-264z" style="fill:#85bd78"/>
   <path class="HairBack-Pig2fil10" d="M19863 18151c0,11 684,-1732 -205,-4105 -564,-1505 -496,-698 -371,94 196,1238 418,2152 228,3456 -143,979 -820,1621 -820,1621 0,0 682,-263 1168,-1066z" style="fill:#7e3990"/>
   <path class="HairBack-Pig2fil10" d="M18914 16208c37,296 51,2469 -726,3190 -67,22 -56,16 -56,16 0,0 438,-1323 277,-2253 -130,673 -120,1506 -853,2411 -733,905 -2187,-2129 -2187,-2129 0,0 2752,-2112 3545,-1235z" style="fill:#60b1ac"/>
  </g>
  <g id="_2991486213936">
   <path class="HairBack-Pig2fil23 HairBack-Pig2str0" d="M7364 16960c194,1328 1055,2363 1742,2542 -67,-202 -227,-545 -66,-1505 226,1323 691,1619 885,1659 2271,477 3726,500 3745,-708 16,-987 10,-755 10,-6503 -2880,-406 -5214,-71 -6125,671 0,0 -1126,2928 -769,4516 357,1587 1607,2293 1607,2293 -312,-489 -1221,-1415 -1029,-2965z" style="fill:#b5e47a"/>
   <path class="HairBack-Pig2fil10" d="M7692 18111c0,11 -875,-1692 14,-4065 564,-1505 496,-698 370,94 -195,1238 -417,2152 -227,3456 143,979 855,1763 855,1763 0,0 -527,-445 -1012,-1248z" style="fill:#70640d"/>
   <path class="HairBack-Pig2fil10" d="M8450 16208c-37,296 -194,2508 583,3229 67,22 56,16 56,16 0,0 -217,-484 -56,-1414 129,674 42,628 775,1533 733,905 2187,-2129 2187,-2129 0,0 -2752,-2112 -3545,-1235z" style="fill:#8dbe02"/>
  </g>
 </g><g id="Tail-Pig2">
  <metadata id="CorelCorpID_5Corel-Layer"/>
  <path class="Tail-Pig2fil25 Tail-Pig2str1" d="M18563 22800c62,50 15,150 -66,250 -238,296 -591,465 -973,464 -339,-1 -743,-145 -1179,-588 -91,-93 -89,-241 3,-332 93,-91 241,-89 332,3 350,356 678,527 927,510 524,-37 824,-352 956,-307z" style="fill:#6f1977"/>
  <path class="Tail-Pig2fil26" d="M17904 23127c180,153 -147,324 -147,324 -203,153 -532,25 -532,25 11,-120 145,-184 291,-260 143,-75 299,-165 388,-89z" style="fill:#8957d4"/>
  <path class="Tail-Pig2fil27 Tail-Pig2str1" d="M16873 22777c154,-20 331,-10 476,-97 556,-338 203,-961 -228,-906 -58,8 -112,33 -155,77 -113,116 -169,220 -188,306 -18,80 -4,135 19,160 88,95 82,244 -14,332 -95,88 -244,81 -332,-14 -111,-121 -188,-329 -133,-577 36,-164 129,-348 311,-534 197,-202 597,-294 858,-197 125,46 245,121 348,222 488,476 418,1234 -173,1594 -203,124 -488,211 -701,238 -569,27 -755,-519 -88,-604z" style="fill:#0f6bdd"/>
  <path class="Tail-Pig2fil26" d="M18079 22100c0,0 -46,679 -406,816 -360,138 -229,-238 -189,-274 40,-36 -266,92 -266,92 0,0 -446,621 -111,569 335,-51 1138,-135 972,-1203z" style="fill:#a34668"/>
  <path class="Tail-Pig2fil26" d="M17028 21372c-197,84 -190,187 39,222 323,48 688,117 623,755 -159,-394 -399,-838 -950,-319 0,0 -354,-187 -275,-364 80,-176 476,-332 563,-294z" style="fill:#092e51"/>
 </g><g id="RightFoot-Pig0">
  <metadata id="CorelCorpID_10Corel-Layer"/>
  <path class="RightFoot-Pig0fil37" d="M16559 24190c54,65 143,233 174,292 62,268 -152,365 -298,365 -143,0 -686,-98 -894,289 -330,-192 -541,-572 -540,-565 -22,-43 -41,-85 -54,-126 -58,-176 -10,-247 31,-317 480,-107 1078,-83 1581,62z" style="fill:#d2e665"/>
  <path class="RightFoot-Pig0fil38" d="M15011 24496c-3,101 -14,73 -14,176 -5,821 346,600 430,523 12,-11 59,-71 57,-73 -109,-146 -274,-300 -473,-626z" style="fill:#fb965d"/>
  <path class="RightFoot-Pig0fil0 RightFoot-Pig0str2" d="M14995 24537c1,45 2,90 2,135 -5,821 346,600 430,523 4,-4 19,-23 37,-48" style="fill:#b9118e"/>
  <path class="RightFoot-Pig0fil39" d="M16756 24466c0,0 -225,-105 -294,-5 -54,78 49,353 -47,353 -106,0 -310,-245 -509,-215 -288,43 -418,429 -384,506 35,82 343,409 763,435 419,26 490,-14 487,-39 -3,-24 42,-150 42,-150 0,0 458,-59 491,-95 100,-109 -467,-691 -549,-790z" style="fill:#375812"/>
  <polygon class="RightFoot-Pig0fil40" points="16740,25393 16571,24994 16934,25330 "/>
  <path class="RightFoot-Pig0fil0 RightFoot-Pig0str2" d="M16567 24189c147,241 633,739 718,969 84,231 -492,167 -492,167 0,0 5,189 -122,220 -281,70 -831,-103 -1075,-309 -49,-41 -99,-87 -150,-135" style="fill:#d64e61"/>
  <path class="RightFoot-Pig0fil0 RightFoot-Pig0str2" d="M16567 24189c45,73 121,170 208,277m-1262 697c-341,-311 -707,-789 -548,-1037" style="fill:#4f82f5"/>
  <path class="RightFoot-Pig0fil10" d="M15252 24171c-250,336 427,769 691,965 282,210 555,378 651,406 -45,23 -445,-31 -727,-123 -179,-96 -710,-617 -803,-752 -94,-163 -147,-331 -119,-480 10,-21 22,-40 33,-59 85,-7 193,-3 274,43z" style="fill:#01ebe0"/>
 </g><g id="LeftFoot-Pig0">
  <metadata id="CorelCorpID_27Corel-Layer"/>
  <path class="LeftFoot-Pig0fil37" d="M10805 24190c-54,65 -143,233 -174,292 -62,268 152,365 298,365 143,0 685,-98 894,289 330,-192 541,-572 540,-565 22,-43 40,-85 54,-126 58,-176 10,-247 -31,-317 -480,-107 -1078,-83 -1581,62z" style="fill:#3f26f1"/>
  <path class="LeftFoot-Pig0fil38" d="M12353 24496c3,101 14,73 14,176 5,821 -346,600 -430,523 -12,-11 -59,-71 -57,-73 109,-146 274,-300 473,-626z" style="fill:#43e6b0"/>
  <path class="LeftFoot-Pig0fil0 LeftFoot-Pig0str2" d="M12369 24537c-1,45 -2,90 -2,135 5,821 -346,600 -430,523 -4,-4 -19,-23 -37,-48" style="fill:#9656db"/>
  <path class="LeftFoot-Pig0fil57" d="M10608 24466c0,0 225,-105 294,-5 54,78 -49,353 47,353 106,0 309,-245 509,-215 288,43 418,429 384,506 -35,82 -343,409 -763,435 -419,26 -490,-14 -487,-39 3,-24 -42,-150 -42,-150 0,0 -458,-59 -491,-95 -101,-109 467,-691 549,-790z" style="fill:#4f8238"/>
  <polygon class="LeftFoot-Pig0fil40" points="10624,25393 10793,24994 10430,25330 "/>
  <path class="LeftFoot-Pig0fil0 LeftFoot-Pig0str2" d="M10797 24189c-147,241 -633,739 -718,969 -85,231 492,167 492,167 0,0 -5,189 122,220 281,70 831,-103 1075,-309 49,-41 99,-87 150,-135" style="fill:#e4d238"/>
  <path class="LeftFoot-Pig0fil0 LeftFoot-Pig0str2" d="M10797 24189c-45,73 -121,170 -208,277m1262 697c341,-311 707,-789 548,-1037" style="fill:#0d184a"/>
  <path class="LeftFoot-Pig0fil10" d="M12112 24171c250,336 -428,769 -691,965 -282,210 -555,378 -651,406 45,23 444,-31 727,-123 179,-96 710,-617 803,-752 94,-163 147,-331 119,-480 -10,-21 -22,-40 -33,-59 -85,-7 -193,-3 -274,43z" style="fill:#043105"/>
 </g><g id="RightLeg-Pig0">
  <metadata id="CorelCorpID_22Corel-Layer"/>
  <path class="RightLeg-Pig0fil52" d="M16570 21416c0,0 1181,1189 570,2176 -128,221 -511,470 -581,598 -599,44 -1104,27 -1581,-62 45,-78 82,-155 -44,-376 -113,-198 -400,-446 -1252,-493 0,-147 0,-280 0,-522 373,-788 1598,-1745 2888,-1321z" style="fill:#b6b65c"/>
  <path class="RightLeg-Pig0fil10" d="M17192 23421c67,-141 106,-290 107,-439 2,-734 -540,-1374 -869,-1659l-157 688c26,45 52,90 79,136 387,-391 947,832 840,1274z" style="fill:#c38f63"/>
  <path class="RightLeg-Pig0fil0 RightLeg-Pig0str2" d="M16570 21416c303,324 585,778 689,1246 115,521 25,950 -408,1282 -95,72 -194,144 -284,245m-1602 -63c284,-396 -518,-875 -1283,-867" style="fill:#fae840"/>
  <path class="RightLeg-Pig0fil10" d="M13760 23246c341,-28 1532,124 1607,584 27,166 -52,256 -115,341 -93,-12 -184,-26 -274,-43 40,-70 74,-140 -11,-313 -8,-22 -19,-42 -33,-62l0 -1c-104,-182 -357,-408 -1066,-479 -35,-9 -71,-18 -108,-27z" style="fill:#e8f1ba"/>
 </g><g id="LeftLeg-Pig0">
  <metadata id="CorelCorpID_39Corel-Layer"/>
  <path class="LeftLeg-Pig0fil62" d="M10794 21416c0,0 -1181,1189 -570,2176 128,221 511,470 581,598 599,44 1104,27 1581,-62 -45,-78 -82,-155 44,-376 113,-198 400,-446 1252,-493 0,-147 0,-280 0,-522 -373,-788 -1598,-1745 -2888,-1321z" style="fill:#f80645"/>
  <path class="LeftLeg-Pig0fil10" d="M10172 23421c-67,-141 -106,-290 -107,-439 -2,-734 540,-1374 869,-1659l157 688c-26,45 -53,90 -79,136 -388,-391 -947,832 -840,1274z" style="fill:#8139bb"/>
  <path class="LeftLeg-Pig0fil0 LeftLeg-Pig0str2" d="M10794 21416c-303,324 -586,778 -689,1246 -115,521 -25,950 408,1282 95,72 193,144 284,245m1602 -63c-284,-396 517,-875 1283,-867" style="fill:#f0db59"/>
  <path class="LeftLeg-Pig0fil10" d="M13604 23246c-341,-28 -1532,124 -1607,584 -27,166 52,256 115,341 93,-12 184,-26 274,-43 -40,-70 -74,-140 11,-313 8,-22 19,-42 33,-62l0 -1c104,-182 357,-408 1066,-479 35,-9 71,-18 108,-27z" style="fill:#839f62"/>
 </g><g id="RightHand-Pig0">
 <animateTransform additive="sum" attributeName="transform" dur="10" repeatCount="indefinite" type="translate" values="0;0 200;0;0 200;0;0 200;0;0 200;0"/>
  <metadata id="CorelCorpID_44Corel-Layer"/>
  <path class="RightHand-Pig0fil68" d="M16231 17709c1005,345 1816,1398 2255,2162 -88,184 -847,720 -1129,836 -543,-402 -1045,-430 -1469,-362 -742,120 -1353,-1920 -931,-2545 422,-21 934,-40 1274,-91z" style="fill:#57fc73"/>
  <path class="RightHand-Pig0fil10" d="M17342 20696c-537,-391 -1034,-418 -1454,-351 -171,28 -335,-59 -481,-217 -325,-472 753,-1098 1039,-656 258,399 723,837 1098,1116 3,2 22,18 34,27l-219 113c-8,-18 -14,-30 -17,-32z" style="fill:#536c61"/>
  <path class="RightHand-Pig0fil0 RightHand-Pig0str0" d="M16477 20333c179,24 366,81 561,178 100,50 205,104 305,189m1121 -817c-161,-280 -388,-607 -632,-916 -422,-534 -963,-1039 -1601,-1258 -90,-31 -172,-59 -246,-84" style="fill:#12ba10"/>
 </g><g id="LeftHand-Pig0">
 <animateTransform additive="sum" attributeName="transform" dur="10" repeatCount="indefinite" type="translate" values="0;0 200;0;0 200;0;0 200;0;0 200;0"/>
  <metadata id="CorelCorpID_61Corel-Layer"/>
  <path class="LeftHand-Pig0fil79" d="M11133 17709c-1005,345 -1817,1398 -2255,2162 88,184 847,720 1128,836 544,-402 1046,-430 1470,-362 742,120 1352,-1920 931,-2545 -422,-21 -934,-40 -1274,-91z" style="fill:#e72146"/>
  <path class="LeftHand-Pig0fil10" d="M10022 20696c537,-391 1034,-418 1454,-351 171,28 335,-59 481,-217 325,-472 -753,-1098 -1039,-656 -258,399 -723,837 -1098,1116 -3,2 -22,18 -34,27l219 113c8,-18 14,-30 17,-32z" style="fill:#69d63d"/>
  <path class="LeftHand-Pig0fil0 LeftHand-Pig0str0" d="M10887 20333c-179,24 -366,81 -561,178 -100,50 -205,104 -305,189m-1121 -817c161,-280 388,-607 632,-916 422,-534 963,-1039 1601,-1258 90,-31 171,-59 246,-84" style="fill:#69d7d4"/>
 </g><g id="Body-Pig2">
 <animateTransform additive="sum" attributeName="transform" dur="10" repeatCount="indefinite" type="translate" values="0;0 200;0;0 200;0;0 200;0;0 200;0"/>
  <metadata id="CorelCorpID_68Corel-Layer"/>
  <path class="Body-Pig2fil83" d="M13682 23135c-1548,0 -2752,-291 -2993,-1956 -147,-1014 391,-2287 991,-3420 634,80 1289,123 2002,142 713,-19 1367,-62 2002,-142 600,1133 1137,2406 991,3420 -242,1665 -1445,1956 -2993,1956z" style="fill:#7e2bc7"/>
  <path class="Body-Pig2fil86" d="M16270 19898c134,250 -117,476 -346,598 -228,121 -348,93 -482,-156 -133,-250 32,-520 260,-642 229,-122 435,-49 568,200zm15 633c131,-442 317,-421 362,-394 57,413 135,1166 -176,1646 -166,256 -535,351 -807,187 -378,-227 -310,-544 -105,-779 273,-314 600,-235 726,-660zm-1307 660c-211,-46 -217,-508 150,-427 163,36 212,180 170,298 -41,118 -158,165 -320,129z" style="fill:#987681"/>
  <path class="Body-Pig2fil87" d="M11050 21679c-133,-250 117,-476 346,-598 229,-121 502,182 635,432 147,275 -60,547 -369,555 -187,5 -419,-27 -612,-389zm406 -990c-125,-56 -242,-80 -465,177 -269,310 -233,579 -313,504 -32,-235 -42,-674 25,-1094 29,-180 54,-323 111,-440 224,-465 886,-793 1236,-567 612,393 205,1777 -594,1420z" style="fill:#16692e"/>
  <path class="Body-Pig2fil10" d="M12621 23067c-1016,-156 -1749,-629 -1932,-1888 -75,-519 29,-1106 229,-1707 -223,2001 402,3257 1703,3595z" style="fill:#218ff5"/>
  <path class="Body-Pig2fil84" d="M11012 22144c-250,-321 -348,-641 -397,-954 -59,-377 -24,-998 184,-1320 -78,421 -93,905 -36,1298 50,341 104,572 249,976z" style="fill:#376b34"/>
  <path class="Body-Pig2fil10" d="M14743 23067c1016,-156 1749,-629 1932,-1888 75,-519 -29,-1106 -229,-1707 223,2001 -402,3257 -1703,3595z" style="fill:#23c765"/>
  <path class="Body-Pig2fil84" d="M16352 22144c250,-321 347,-641 397,-954 59,-377 24,-998 -184,-1320 78,421 93,905 36,1298 -50,341 -104,572 -249,976z" style="fill:#668ce5"/>
 </g><g id="WeaponFlySwatterBack-Medium">
 <animateTransform additive="sum" attributeName="transform" dur="10" repeatCount="indefinite" type="translate" values="0;0 200;0;0 200;0;0 200;0;0 200;0"/>
  <metadata id="CorelCorpID_0Corel-Layer"/>
  <g id="_2367108334752">
   <path class="WeaponFlySwatterBack-Mediumfil0 WeaponFlySwatterBack-Mediumstr0" d="M9496 21664l211 -158 -1804 -1241c-168,-116 -453,-135 -616,153 -163,289 1,523 187,607l1996 902 26 -263z" style="fill:#daf754"/>
   <path class="WeaponFlySwatterBack-Mediumfil1" d="M7463 20235c-66,36 -127,96 -176,183 -163,289 1,523 187,607l1996 902 22 -221c-464,-223 -1683,-816 -1870,-979 -151,-131 -206,-332 -159,-492z" style="fill:#0a7a53"/>
  </g>
 </g><g id="RightPaw-Pig3">
 <animateTransform additive="sum" attributeName="transform" dur="10" repeatCount="indefinite" type="translate" values="0;0 200;0;0 200;0;0 200;0;0 200;0"/>
  <metadata id="CorelCorpID_52Corel-Layer"/>
  <path class="RightPaw-Pig3fil74" d="M18486 19871c155,269 247,281 434,498 211,244 446,948 341,1067 -34,39 -389,8 -389,8 -15,58 -145,373 -188,392 -161,73 -598,-324 -814,-554 -63,111 -195,178 -216,147 -79,-27 -146,-195 -211,-374 -34,-92 -45,-318 -86,-348 139,-387 621,-775 1129,-836z" style="fill:#b4e171"/>
  <path class="RightPaw-Pig3fil10" d="M17452 20518c31,24 62,48 92,70 4,3 39,31 43,34 13,14 26,28 39,43 79,93 97,228 104,283 2,13 3,21 4,24 -2,92 -166,169 -227,208 0,-8 -67,-223 -116,-364 0,-31 3,-54 -7,-90 -9,-6 -18,-13 -27,-19 23,-64 55,-127 95,-189z" style="fill:#073a92"/>
  <path class="RightPaw-Pig3fil77" d="M18910 20358c-402,-76 -337,407 -242,635 -239,-309 -538,-414 -692,-297 -104,79 -113,131 -203,226 -99,104 -339,-108 -394,-184 -18,147 139,645 275,691 21,31 153,-36 216,-147 216,230 653,627 814,554 43,-19 173,-334 188,-392 0,0 355,31 389,-8 109,-123 -135,-862 -351,-1078z" style="fill:#71f3d7"/>
  <path class="RightPaw-Pig3fil10" d="M18804 21498c-67,307 -352,47 -875,-255 4,66 -100,45 -131,-12 -41,-92 -52,-190 -68,-283 -88,22 -225,-79 -303,-156 -5,-5 -11,-11 -16,-16 49,174 144,541 243,653 90,2 173,-73 216,-147 195,208 586,566 808,522 90,-18 70,-138 126,-306z" style="fill:#b4bb3f"/>
  <polygon class="RightPaw-Pig3fil40" points="18796,21484 18678,21021 18973,21393 "/>
  <path class="RightPaw-Pig3fil0 RightPaw-Pig3str2" d="M17136 20561c121,75 170,94 271,202 1,149 38,330 93,461 54,128 115,197 196,208 55,8 128,-6 194,-123 208,221 642,571 796,501 41,-19 164,-344 179,-400 0,0 356,75 389,38 86,-99 -94,-785 -280,-992 -109,-122 -404,-420 -409,-427 -68,-85 -123,-182 -179,-276" style="fill:#c83958"/>
 </g><g id="LeftPaw-Pig3">
 <animateTransform additive="sum" attributeName="transform" dur="10" repeatCount="indefinite" type="translate" values="0;0 200;0;0 200;0;0 200;0;0 200;0"/>
  <metadata id="CorelCorpID_74Corel-Layer"/>
  <path class="LeftPaw-Pig3fil91" d="M8878 19871c-155,269 -247,281 -434,498 -211,244 -446,948 -341,1067 34,39 388,8 388,8 16,58 146,373 189,392 161,73 598,-324 814,-554 63,111 195,178 216,147 79,-27 146,-195 211,-374 34,-92 45,-318 85,-348 -138,-387 -621,-775 -1128,-836z" style="fill:#fb35ff"/>
  <path class="LeftPaw-Pig3fil10" d="M9912 20518c-31,24 -62,48 -92,70 -4,3 -39,31 -43,34 -14,14 -27,28 -39,43 -79,93 -97,228 -104,283 -2,13 -3,21 -4,24 2,92 166,169 226,208 0,-8 68,-223 117,-364 -1,-31 -3,-54 7,-90 9,-6 18,-13 26,-19 -22,-64 -54,-127 -94,-189z" style="fill:#c2f835"/>
  <path class="LeftPaw-Pig3fil94" d="M8454 20358c401,-76 337,407 242,635 239,-309 538,-414 692,-297 104,79 113,131 203,226 99,104 339,-108 394,-184 18,147 -140,645 -275,691 -21,31 -153,-36 -216,-147 -216,230 -653,627 -814,554 -43,-19 -173,-334 -189,-392 0,0 -354,31 -388,-8 -109,-123 135,-862 351,-1078z" style="fill:#2d0722"/>
  <path class="LeftPaw-Pig3fil10" d="M8560 21498c67,307 352,47 875,-255 -5,66 100,45 131,-12 40,-92 52,-190 68,-283 88,22 225,-79 303,-156 5,-5 11,-11 16,-16 -49,174 -144,541 -243,653 -90,2 -173,-73 -216,-147 -196,208 -586,566 -808,522 -90,-18 -70,-138 -126,-306z" style="fill:#e9e776"/>
  <polygon class="LeftPaw-Pig3fil40" points="8568,21484 8686,21021 8391,21393 "/>
  <path class="LeftPaw-Pig3fil0 LeftPaw-Pig3str2" d="M10228 20561c-121,75 -170,94 -272,202 0,149 -37,330 -92,461 -55,128 -115,197 -196,208 -55,8 -128,-6 -194,-123 -208,221 -642,571 -797,501 -41,-19 -163,-344 -178,-400 0,0 -356,75 -389,38 -86,-99 94,-785 280,-992 109,-122 404,-420 409,-427 68,-85 123,-182 179,-276" style="fill:#e2d899"/>
 </g><g id="Ears-Pig4">
 <animateTransform additive="sum" attributeName="transform" dur="10" repeatCount="indefinite" type="translate" values="0;0 200;0;0 200;0;0 200;0;0 200;0"/>
  <metadata id="CorelCorpID_87Corel-Layer"/>
  <g id="_2991525371968">
   <path class="Ears-Pig4fil117 Ears-Pig4str0" d="M18308 7538c446,141 638,777 1378,825 193,12 430,-15 656,-12 342,5 372,253 399,436 66,444 73,1257 -304,1646 -242,248 -556,499 -912,418 -416,-96 -838,-496 -893,-587 279,330 433,1625 643,1918 -1667,-1123 -2968,-2381 -2490,-3480 177,-407 660,-1437 1523,-1164z" style="fill:#3a3a04"/>
   <path class="Ears-Pig4fil118" d="M18041 8196c-312,-206 -792,539 -776,1063 15,523 601,1023 706,976 105,-47 460,-249 460,-249 0,0 -206,-238 -259,-550 -53,-312 28,-678 -131,-1240z" style="fill:#269131"/>
   <path class="Ears-Pig4fil84" d="M17913 7914c232,45 247,629 274,1031 35,505 155,886 504,1275 27,30 25,78 -6,105 -31,28 -78,25 -106,-5 -346,-385 -493,-785 -526,-1290 -26,-405 33,-786 -140,-1116z" style="fill:#004787"/>
   <path class="Ears-Pig4fil115" d="M18832 8005c188,231 312,572 365,778 148,578 477,615 656,541 261,-108 287,-423 163,-676 -122,-249 -184,-281 -226,-282 -42,-1 -329,15 -958,-361z" style="fill:#82d25f"/>
   <path class="Ears-Pig4fil10" d="M20753 9646c-460,770 -934,1199 -1741,606 -213,-157 -438,-453 -525,-714 -182,-549 -84,-1159 -280,-1514 -84,-153 -248,-265 -354,-201 -106,63 -64,339 -48,603 16,265 -9,742 -224,1105 -215,363 2,647 145,800 143,154 1104,1074 1273,974 170,-101 -367,-1041 -367,-1041 272,284 734,709 1172,587 530,-149 941,-652 949,-1205z" style="fill:#583aed"/>
  </g>
  <g id="_2991525368384">
   <path class="Ears-Pig4fil119 Ears-Pig4str0" d="M9056 7538c-446,141 -638,777 -1378,825 -193,12 -430,-15 -656,-12 -343,5 -372,253 -399,436 -66,444 -73,1257 304,1646 242,248 555,499 912,418 416,-96 838,-496 893,-587 -279,330 -433,1625 -643,1918 1667,-1123 2968,-2381 2490,-3480 -177,-407 -660,-1437 -1523,-1164z" style="fill:#38e937"/>
   <path class="Ears-Pig4fil120" d="M9322 8196c313,-206 793,539 777,1063 -16,523 -601,1023 -706,976 -105,-47 -460,-249 -460,-249 0,0 206,-238 259,-550 53,-312 -29,-678 130,-1240z" style="fill:#b4c580"/>
   <path class="Ears-Pig4fil84" d="M9451 7914c-232,45 -247,629 -275,1031 -34,505 -154,886 -503,1275 -27,30 -25,78 6,105 31,28 78,25 106,-5 346,-385 493,-785 526,-1290 25,-405 -33,-786 140,-1116z" style="fill:#f64cec"/>
   <path class="Ears-Pig4fil115" d="M8532 8005c-188,231 -312,572 -365,778 -148,578 -477,615 -656,541 -262,-108 -287,-423 -163,-676 122,-249 184,-281 226,-282 42,-1 328,15 958,-361z" style="fill:#40dc08"/>
   <path class="Ears-Pig4fil10" d="M6611 9646c460,770 934,1199 1741,606 213,-157 437,-453 525,-714 182,-549 84,-1159 280,-1514 84,-153 248,-265 354,-201 106,63 64,339 48,603 -16,265 9,742 224,1105 215,363 -2,647 -145,800 -143,154 -1142,1264 -1312,1164 -169,-101 406,-1231 406,-1231 -272,284 -734,709 -1172,587 -530,-149 -941,-652 -949,-1205z" style="fill:#d93975"/>
  </g>
 </g><g id="BraceletLeather-Medium">
 <animateTransform additive="sum" attributeName="transform" dur="10" repeatCount="indefinite" type="translate" values="0;0 200;0;0 200;0;0 200;0;0 200;0"/>
  <metadata id="CorelCorpID_17Corel-Layer"/>
  <path class="BraceletLeather-Mediumfil42new BraceletLeather-Mediumstr3new" d="M8689 19690c-86,-160 -115,-250 -201,-410 -29,-75 3,-239 44,-232 104,3 219,4 324,-2 3,181 43,415 96,612 -87,11 -175,21 -263,32z" style="fill:#dfad10"/>
  <path class="BraceletLeather-Mediumfil43new" d="M8689 19690c-86,-160 -115,-250 -201,-410 -29,-75 3,-239 44,-232l8 0c53,219 164,421 282,626l-133 16z" style="fill:#269714"/>
  <path class="BraceletLeather-Mediumfil33new BraceletLeather-Mediumstr3new" d="M8689 19690c-86,-160 -115,-250 -201,-410 -29,-75 3,-239 44,-232 104,3 219,4 324,-2 3,181 43,415 96,612 -87,11 -175,21 -263,32z" style="fill:#eb8641"/>
  <path class="BraceletLeather-Mediumfil44new BraceletLeather-Mediumstr3new" d="M8645 19884c-170,-64 -251,-113 -421,-177 -71,-38 -153,-183 -118,-204 81,-66 168,-141 243,-214 121,135 304,285 474,399 -59,66 -118,131 -178,196z" style="fill:#1cd6c7"/>
  <path class="BraceletLeather-Mediumfil43new" d="M8645 19884c-170,-64 -251,-113 -421,-177 -71,-38 -153,-183 -118,-204l6 -5c184,130 400,211 623,288l-90 98z" style="fill:#faf1ed"/>
  <path class="BraceletLeather-Mediumfil33new BraceletLeather-Mediumstr3new" d="M8645 19884c-170,-64 -251,-113 -421,-177 -71,-38 -153,-183 -118,-204 81,-66 168,-141 243,-214 121,135 304,285 474,399 -59,66 -118,131 -178,196z" style="fill:#0f6814"/>
  <path class="BraceletLeather-Mediumfil45new BraceletLeather-Mediumstr4new" d="M8734 19936c-151,-67 -255,-143 -151,-272 117,-147 267,-135 481,-33 407,194 958,608 1165,923 91,139 91,306 -39,409 -129,103 -210,-20 -308,-153 -243,-331 -765,-704 -1148,-874z" style="fill:#554b67"/>
  <path class="BraceletLeather-Mediumfil46new" d="M8734 19936c-79,-35 -145,-73 -176,-119 77,-41 167,-29 240,0 506,201 953,539 1254,974 48,70 58,140 38,210 -76,-6 -138,-95 -208,-191 -243,-331 -765,-704 -1148,-874z" style="fill:#7c7d1f"/>
  <path class="BraceletLeather-Mediumfil47new BraceletLeather-Mediumstr4new" d="M8734 19936c-151,-67 -255,-143 -151,-272 117,-147 267,-135 481,-33 407,194 958,608 1165,923 91,139 91,306 -39,409 -129,103 -210,-20 -308,-153 -243,-331 -765,-704 -1148,-874z" style="fill:#cf4602"/>
  <path class="BraceletLeather-Mediumfil48new BraceletLeather-Mediumstr3new" d="M18674 19690c87,-160 116,-250 202,-410 29,-75 -3,-239 -44,-232 -104,3 -219,4 -324,-2 -3,181 -43,415 -97,612 88,11 176,21 263,32z" style="fill:#114ee7"/>
  <path class="BraceletLeather-Mediumfil43new" d="M18674 19690c87,-160 116,-250 202,-410 29,-75 -3,-239 -44,-232l-8 0c-53,219 -164,421 -282,626l132 16z" style="fill:#bda295"/>
  <path class="BraceletLeather-Mediumfil33new BraceletLeather-Mediumstr3new" d="M18674 19690c87,-160 116,-250 202,-410 29,-75 -3,-239 -44,-232 -104,3 -219,4 -324,-2 -3,181 -43,415 -97,612 88,11 176,21 263,32z" style="fill:#e6d6c6"/>
  <path class="BraceletLeather-Mediumfil49new BraceletLeather-Mediumstr3new" d="M18718 19884c170,-64 252,-113 422,-177 71,-38 153,-183 118,-204 -81,-66 -168,-141 -243,-214 -121,135 -305,285 -475,399 60,66 119,131 178,196z" style="fill:#6f4fde"/>
  <path class="BraceletLeather-Mediumfil43new" d="M18718 19884c170,-64 252,-113 422,-177 71,-38 153,-183 118,-204l-6 -5c-184,130 -400,211 -623,288l89 98z" style="fill:#4a624c"/>
  <path class="BraceletLeather-Mediumfil33new BraceletLeather-Mediumstr3new" d="M18718 19884c170,-64 252,-113 422,-177 71,-38 153,-183 118,-204 -81,-66 -168,-141 -243,-214 -121,135 -305,285 -475,399 60,66 119,131 178,196z" style="fill:#9c0188"/>
  <path class="BraceletLeather-Mediumfil50new BraceletLeather-Mediumstr4new" d="M18630 19936c151,-67 255,-143 151,-272 -117,-147 -267,-135 -481,-33 -407,194 -958,608 -1165,923 -91,139 -91,306 39,409 129,103 210,-20 307,-153 244,-331 766,-704 1149,-874z" style="fill:#91bb90"/>
  <path class="BraceletLeather-Mediumfil46new" d="M18630 19936c79,-35 145,-73 175,-119 -76,-41 -166,-29 -239,0 -507,201 -954,539 -1254,974 -48,70 -58,140 -38,210 76,-6 137,-95 207,-191 244,-331 766,-704 1149,-874z" style="fill:#3db74a"/>
  <path class="BraceletLeather-Mediumfil47new BraceletLeather-Mediumstr4new" d="M18630 19936c151,-67 255,-143 151,-272 -117,-147 -267,-135 -481,-33 -407,194 -958,608 -1165,923 -91,139 -91,306 39,409 129,103 210,-20 307,-153 244,-331 766,-704 1149,-874z" style="fill:#6a8c2a"/>
 </g><g id="Head-Pig5">
 <animateTransform additive="sum" attributeName="transform" dur="10" repeatCount="indefinite" type="translate" values="0;0 200;0;0 200;0;0 200;0;0 200;0"/>
  <metadata id="CorelCorpID_100Corel-Layer"/>
  <path class="Head-Pig5fil165" d="M13682 17937c-481,0 -1034,-24 -1605,-101 -847,-114 -1738,-333 -2509,-708 -371,-180 -500,136 -491,337 -719,-495 -631,-1374 -770,-1556 -53,121 -259,436 -231,759 -578,-501 -343,-1565 -391,-1702 -35,-194 -252,-47 -443,254 -49,-404 -28,-822 41,-1233 85,-513 252,-1119 496,-1583 158,-300 365,-615 604,-1079 102,-182 197,-394 302,-573 27,-47 54,-103 82,-149 358,-597 759,-1164 1323,-1636 1250,-1046 2355,-1447 3591,-1474l1 0 1 0c1236,27 2341,428 3590,1474 565,472 966,1039 1324,1636 28,46 54,102 82,149 104,179 200,391 302,573 239,464 446,779 603,1079 245,464 412,1070 497,1583 69,411 90,829 41,1233 -191,-301 -408,-448 -443,-254 -48,137 187,1201 -391,1702 27,-323 -178,-638 -231,-759 -139,182 -52,1061 -770,1556 9,-201 -120,-517 -491,-337 -771,375 -1662,594 -2509,708 -571,77 -1124,101 -1605,101z" style="fill:#e5d333"/>
  <path class="Head-Pig5fil10" d="M8595 11042c-90,145 -189,290 -291,434 -206,384 -384,662 -525,928 -244,464 -411,1070 -496,1583 -69,411 -90,829 -41,1233 191,-301 408,-448 443,-254 48,137 -187,1201 391,1702 -28,-323 178,-638 231,-759 139,182 51,1061 770,1556 -9,-201 120,-517 491,-337 771,375 1662,594 2509,708 149,20 297,36 442,50 40,3 80,6 120,9 -2326,-552 -4001,-1593 -4496,-3087 -323,-975 -154,-2267 452,-3766z" style="fill:#a4c1a8"/>
  <path class="Head-Pig5fil84" d="M9861 9172c974,-1177 2398,-1757 3821,-1747 1423,-10 2847,570 3821,1747 -1223,-1081 -2522,-1612 -3821,-1603 -1299,-9 -2598,522 -3821,1603z" style="fill:#62e8a3"/>
  <path class="Head-Pig5fil84" d="M18558 10538c262,349 484,763 669,1097 87,158 168,282 197,333 83,143 159,273 227,401 116,221 215,473 296,731 92,294 162,598 208,874 36,216 59,433 66,650 7,204 0,406 -25,605 -4,41 -42,70 -83,65 -23,-3 -43,-16 -54,-34 -84,-131 -170,-230 -241,-279 -23,-16 -43,-26 -57,-27 0,0 0,-1 0,-1l0 -1c-3,5 -6,14 -9,27 0,4 -1,8 -3,11 -6,18 -2,94 3,199 20,386 57,1127 -415,1536 -31,27 -79,23 -106,-8 -13,-16 -19,-36 -18,-55l0 0c18,-208 -72,-417 -145,-564 -9,39 -17,84 -27,133 -69,363 -177,927 -712,1296 -34,23 -81,15 -104,-19 -10,-14 -14,-30 -13,-46 3,-60 -9,-131 -39,-192 -16,-34 -38,-64 -66,-86 -27,-20 -59,-33 -99,-35 -48,-2 -107,11 -179,46 -367,179 -762,323 -1165,437 -159,44 -1032,206 -1451,214 611,-128 1199,-299 1410,-359 395,-111 781,-251 1140,-426 96,-47 179,-64 251,-61 73,3 134,28 184,65 48,37 84,86 110,139 18,38 32,79 41,120 395,-334 485,-807 545,-1121 30,-153 52,-273 103,-339 8,-10 18,-18 30,-23 38,-17 82,0 98,38 9,19 23,47 40,79 63,124 162,315 192,528 291,-379 262,-967 246,-1290 -6,-116 -10,-201 3,-248 8,-40 22,-71 42,-94 34,-40 79,-56 131,-49 39,5 81,23 124,53 51,35 107,89 163,157 8,-129 10,-257 6,-386 -7,-209 -30,-420 -65,-630 -45,-270 -113,-566 -203,-854 -79,-250 -174,-494 -286,-706 -66,-125 -141,-254 -223,-396 -41,-70 -116,-197 -199,-377 -133,-288 -307,-697 -538,-1128zm1203 4415c1,-1 3,-4 1,-2l-1 1 0 1z" style="fill:#0fe5d7"/>
  <path class="Head-Pig5fil84" d="M8806 10538c-262,349 -484,763 -669,1097 -87,158 -168,282 -197,333 -83,143 -159,273 -227,401 -116,221 -215,473 -296,731 -92,294 -162,598 -208,874 -36,216 -59,433 -66,650 -7,204 0,406 24,605 5,41 43,70 84,65 23,-3 42,-16 54,-34 84,-131 170,-230 241,-279 23,-16 43,-26 57,-27 0,0 0,-1 0,-1l0 -1c3,5 6,14 8,27 1,4 2,8 3,11 7,18 3,94 -2,199 -20,386 -57,1127 415,1536 31,27 79,23 106,-8 13,-16 19,-36 18,-55l0 0c-18,-208 72,-417 145,-564 9,39 17,84 27,133 69,363 176,927 712,1296 34,23 80,15 104,-19 10,-14 14,-30 13,-46 -3,-60 9,-131 39,-192 16,-34 38,-64 66,-86 26,-20 59,-33 99,-35 48,-2 107,11 179,46 367,179 761,323 1165,437 159,44 1032,206 1451,214 -611,-128 -1199,-299 -1410,-359 -395,-111 -781,-251 -1140,-426 -96,-47 -179,-64 -251,-61 -74,3 -134,28 -184,65 -48,37 -84,86 -110,139 -19,38 -32,79 -41,120 -395,-334 -485,-807 -545,-1121 -30,-153 -52,-273 -103,-339 -8,-10 -18,-18 -30,-23 -38,-17 -82,0 -98,38 -9,19 -23,47 -40,79 -64,124 -162,315 -192,528 -291,-379 -262,-967 -246,-1290 6,-116 10,-201 -3,-248 -8,-40 -22,-71 -42,-94 -34,-40 -79,-56 -131,-49 -39,5 -81,23 -124,53 -51,35 -107,89 -163,157 -8,-129 -10,-257 -6,-386 7,-209 30,-420 65,-630 45,-270 113,-566 203,-854 78,-250 174,-494 286,-706 66,-125 141,-254 223,-396 41,-70 116,-197 199,-377 133,-288 307,-697 538,-1128zm-1203 4415c-1,-1 -3,-4 -1,-2l1 1 0 1z" style="fill:#df7cd5"/>
 </g><g id="Mouth-Pig1">
 <animateTransform additive="sum" attributeName="transform" dur="10" repeatCount="indefinite" type="translate" values="0;0 200;0;0 200;0;0 200;0;0 200;0"/>
  <metadata id="CorelCorpID_104Corel-Layer"/>
  <path class="Mouth-Pig1fil0 Mouth-Pig1str0" d="M12301 15912c128,-208 380,-414 625,-484 153,-44 495,-140 756,-144" style="fill:#15ce87"/>
  <path class="Mouth-Pig1fil26" d="M13682 15723c-619,-4 -759,-102 -1140,-137 371,3 754,-816 1138,-816 384,0 769,819 1142,816 -381,35 -521,133 -1140,137z" style="fill:#6a58ea"/>
  <path class="Mouth-Pig1fil169" d="M12379 16013c69,-65 -66,-172 36,-353 5,-8 -121,104 -129,100 -83,-36 -156,-51 -225,-113 -118,-105 114,557 318,366z" style="fill:#847f0d"/>
  <path class="Mouth-Pig1fil170" d="M12843 16345c206,-41 508,-75 839,-75 331,0 633,34 839,75 -216,-168 -512,-242 -839,-242 -327,0 -623,74 -839,242z" style="fill:#ba5621"/>
  <path class="Mouth-Pig1fil0 Mouth-Pig1str0" d="M15063 15912c-128,-208 -380,-414 -625,-484 -153,-44 -495,-140 -756,-144" style="fill:#f1b479"/>
  <path class="Mouth-Pig1fil169" d="M14985 16013c-69,-65 65,-172 -36,-353 -5,-8 121,104 129,100 83,-36 156,-51 225,-113 118,-105 -114,557 -318,366z" style="fill:#ca462b"/>
 </g><g id="WeaponFlySwatter-Medium">
 <animateTransform additive="sum" attributeName="transform" dur="10" repeatCount="indefinite" type="translate" values="0;0 200;0;0 200;0;0 200;0;0 200;0"/>
  <metadata id="CorelCorpID_1Corel-Layer"/>
  <g id="_2367108401984">
   <path class="WeaponFlySwatter-Mediumfil2 WeaponFlySwatter-Mediumstr0" d="M12021 22875c-60,107 -120,214 -181,320 -796,-449 -1593,-899 -2390,-1348 -25,-155 36,-261 180,-320 797,449 1594,899 2391,1348z" style="fill:#9c7680"/>
   <path class="WeaponFlySwatter-Mediumfil3" d="M11911 23070l-71 125c-796,-449 -1593,-899 -2390,-1348 -13,-83 -2,-151 33,-206l2428 1429z" style="fill:#032b33"/>
   <path class="WeaponFlySwatter-Mediumfil4" d="M15132 23138c18,9 34,17 47,25 244,135 344,347 329,601 -14,234 -129,505 -322,782 -47,68 -98,134 -152,200 -54,66 -110,129 -168,190 -241,251 -505,440 -763,538 -282,107 -559,110 -802,-25 -14,-8 -29,-17 -45,-28l-1620 -1038c-225,-145 -316,-292 -255,-521 53,-198 230,-454 546,-840 316,-385 540,-615 743,-729 237,-133 437,-118 684,-1l1778 846zm-2015 -717l-36 45 194 108 52 -64 -94 -44c-41,-20 -79,-34 -116,-45zm341 152l-57 70 194 108 67 -81 -204 -97zm335 159l-72 89 194 107 81 -99 -203 -97zm335 160l-88 106 195 108 96 -118 -203 -96zm335 159l-103 124 195 108 111 -135 -203 -97zm334 159l-117 143 194 108 127 -154 -204 -97zm324 173l-121 147 194 108 49 -60c-20,-76 -60,-142 -122,-195zm131 432l-14 -8 -130 158 91 50c25,-69 43,-136 53,-200zm-103 318l-123 -68 -129 158 157 87c36,-60 68,-119 95,-177zm-164 284l-170 -95 -130 158 180 100c37,-47 71,-93 103,-138 6,-8 12,-17 17,-25zm-201 262l-181 -100 -129 158 170 95c8,-8 15,-15 23,-23 39,-41 78,-84 117,-130zm-235 245l-157 -87 -130 158 123 68c55,-42 110,-89 164,-139zm-278 220l-91 -50 -129 158 13 8c69,-31 138,-70 207,-116zm-477 198l49 -60 -194 -108 -121 148c83,27 173,33 266,20zm-397 -84l127 -153 -195 -108 -117 143 185 118zm-305 -195l112 -136 -195 -108 -102 125 185 119zm-305 -196l97 -117 -194 -108 -88 106 185 119zm-305 -195l82 -100 -194 -107 -73 88 185 119zm-305 -196l67 -81 -194 -108 -58 70 185 119zm-304 -195l51 -63 -194 -108 -36 44c25,24 56,48 93,72l86 55zm-248 -374l61 34 130 -158 -109 -61c-40,70 -67,131 -82,185zm149 -293l124 69 129 -158 -136 -76c-45,60 -84,115 -117,165zm194 -266l141 78 130 -158 -143 -80c-46,56 -89,110 -128,160zm209 -259l144 79 130 -158 -141 -78c-42,49 -86,101 -133,157zm218 -254l137 76 130 -158 -124 -69c-45,45 -92,95 -143,151zm240 -242l109 61 130 -158 -61 -34c-55,31 -114,75 -178,131zm1843 1917l-194 -108 -130 158 194 108 130 -158zm-320 -178l-194 -107 -130 158 194 107 130 -158zm-320 -177l-194 -108 -130 158 194 108 130 -158zm-320 -177l-194 -108 -130 158 195 107 129 -157zm-319 -178l-195 -108 -130 158 195 108 130 -158zm-320 -177l-195 -108 -129 158 194 108 130 -158zm-320 -178l-194 -107 -130 157 194 108 130 -158zm-113 -207l195 108 129 -158 -194 -108 -130 158zm320 177l194 108 130 -158 -194 -107 -130 157zm320 178l194 108 130 -158 -194 -108 -130 158zm320 177l194 108 130 -158 -194 -108 -130 158zm320 178l194 107 130 -157 -195 -108 -129 158zm320 177l194 108 130 -158 -195 -108 -129 158zm319 178l195 107 129 -158 -194 -107 -130 158zm-1707 -1322l194 107 130 -158 -194 -107 -130 158zm320 177l194 108 130 -158 -195 -108 -129 158zm320 177l194 108 130 -158 -195 -107 -129 157zm319 178l195 108 129 -158 -194 -108 -130 158zm320 177l194 108 130 -158 -194 -108 -130 158zm320 178l194 107 130 -157 -194 -108 -130 158zm320 177l194 108 130 -158 -194 -108 -130 158zm-1708 -1322l195 108 129 -158 -194 -108 -130 158zm320 178l194 107 130 -158 -194 -107 -130 158zm320 177l194 108 130 -158 -194 -108 -130 158zm320 177l194 108 130 -158 -194 -107 -130 157zm320 178l194 108 130 -158 -195 -108 -129 158zm320 177l194 108 130 -158 -195 -108 -129 158zm319 178l195 107 129 -157 -194 -108 -130 158zm-2635 -193l-130 158 195 108 129 -158 -194 -108zm320 177l-130 158 194 108 130 -158 -194 -108zm320 178l-130 158 194 107 130 -157 -194 -108zm320 177l-130 158 194 108 130 -158 -194 -108zm319 178l-129 158 194 107 130 -158 -195 -107zm320 177l-129 158 194 108 130 -158 -195 -108zm320 177l-130 158 195 108 129 -158 -194 -108zm-2130 -807l-130 158 194 108 130 -158 -194 -108zm319 178l-129 158 194 107 130 -157 -195 -108zm320 177l-130 158 195 108 129 -158 -194 -108zm320 178l-130 158 195 107 129 -158 -194 -107zm320 177l-130 158 194 108 130 -158 -194 -108zm320 177l-130 158 194 108 130 -158 -194 -108zm320 178l-130 158 194 108 130 -158 -194 -108z" style="fill:#6d5f19"/>
   <path class="WeaponFlySwatter-Mediumfil1" d="M14481 25269c-125,88 -252,157 -378,205 -282,107 -559,110 -802,-25 -14,-8 -29,-17 -45,-28l-1620 -1038c-225,-145 -316,-292 -255,-521 53,-198 230,-454 546,-840 316,-385 540,-615 743,-729 237,-133 437,-118 684,-1l44 21c-232,65 -436,163 -608,285l84 -102 -61 -34c-55,31 -114,75 -178,131l92 51c-37,28 -71,57 -105,87l-84 -47c-45,45 -92,95 -143,151l81 45c-29,32 -56,65 -81,100l-85 -48c-42,49 -86,101 -133,157l107 59c-21,37 -40,75 -58,113l-130 -73c-46,56 -89,110 -128,160l141 78 94 -115c-48,113 -81,229 -100,345l-80 97 65 36c-1,13 -2,26 -2,39 -2,36 1,73 9,109l-153 -85 -130 158 194 108 103 -125c15,48 36,97 64,144l-41 51 123 68c114,144 280,282 473,408l-38 -22 -88 106 185 119 92 -111c41,23 83,46 126,69l-98 119 185 119 112 -136 -54 -30c254,122 524,220 774,285l1 1 0 -1c52,14 104,26 154,36l-28 34 13 8c22,-10 43,-20 64,-32 129,25 248,39 353,41zm-687 73l49 -60 -194 -108 -121 148c83,27 173,33 266,20zm-397 -84l127 -153 -195 -108 -117 143 185 118zm-915 -586l82 -100 -194 -107 -73 88 185 119zm-305 -196l67 -81 -194 -108 -58 70 185 119zm-304 -195l51 -63 -194 -108 -36 44c25,24 56,48 93,72l86 55zm-248 -374l61 34 130 -158 -109 -61c-40,70 -67,131 -82,185zm149 -293l124 69 129 -158 -136 -76c-45,60 -84,115 -117,165z" style="fill:#4c226e"/>
   <path class="WeaponFlySwatter-Mediumfil5 WeaponFlySwatter-Mediumstr1" d="M15132 23138c18,9 34,17 47,25 244,135 344,347 329,601 -14,234 -129,505 -322,782 -47,68 -98,134 -152,200 -54,66 -110,129 -168,190 -241,251 -505,440 -763,538 -282,107 -559,110 -802,-25 -14,-8 -29,-17 -45,-28l-1620 -1038c-225,-145 -316,-292 -255,-521 53,-198 230,-454 546,-840 316,-385 540,-615 743,-729 237,-133 437,-118 684,-1l1778 846z" style="fill:#a292a2"/>
  </g>
 </g><g id="Eyes-Pig0">
 <animate attributeName="opacity" dur="10" repeatCount="indefinite" values="0;1;1;1;1;1;1;1;1;1;1;1;1;1;1;1;1;1;1;1;1;1;1;1;1;1;1;1;1;1;1;1;1;1;1;1;1;1;1;1;1;1;1;1;1;1;1;1;1;1;1;1;1;1;1;1;1;1;1;1;1;1;1;1;1;1;1;1;1;1;1;1;1;1;1;1;1;1;1;1;1;1;1;1;0;0"/>
 <animateTransform additive="sum" attributeName="transform" dur="10" repeatCount="indefinite" type="translate" values="0;0 200;0;0 200;0;0 200;0;0 200;0"/>
  <metadata id="CorelCorpID_117Corel-Layer"/>
  <g id="_2991504438160">
   <path class="Eyes-Pig0fil174" d="M17282 14381c-563,1 -1296,-400 -1652,-607 -410,-238 -385,-734 -230,-1292 194,-698 672,-1448 1686,-1417 221,6 434,102 606,218 305,205 650,864 794,1463 202,835 15,1633 -1204,1635z"/>
   <path class="Eyes-Pig0fil148" d="M15363 13387c-190,-829 360,-2137 1264,-2265 609,-86 914,-49 1307,418 322,381 572,1119 611,1539 -356,-962 -1323,-1597 -1979,-1534 -835,79 -1188,884 -1203,1842z"/>
   <path class="Eyes-Pig0fil175" d="M17571 14383c-633,57 -1241,-207 -1701,-474 -155,-90 -377,-135 -451,-334 302,-140 397,-428 502,-707 440,8 880,16 1320,25 693,422 926,832 1030,1239 -124,136 -501,232 -700,251z"/>
   <circle class="Eyes-Pig0fil173" r="235" transform="matrix(-1.05455 -0.156917 -0.122712 0.972902 17815.2 13835.5)"/>
   <circle class="Eyes-Pig0fil173" r="235" transform="matrix(-0.528618 -0.0219485 0.0170794 0.468369 18011.9 13287.5)"/>
   <path class="Eyes-Pig0fil176" d="M16916 11510c-549,-164 -1099,173 -1230,751 -130,579 209,1181 758,1345 549,163 1100,-173 1230,-751 130,-579 -209,-1181 -758,-1345z"/>
   <path class="Eyes-Pig0fil173" d="M16338 11820c533,42 786,1263 12,1213 -797,-51 -589,-1258 -12,-1213z"/>
   <path class="Eyes-Pig0fil0 Eyes-Pig0str0" d="M15337 13246c0,0 -1,386 293,528 116,57 322,154 541,254 366,168 697,356 1111,353 339,-2 849,-77 1083,-417 326,-473 185,-845 6,-1515 -359,-1339 -1627,-1973 -2582,-790 -344,426 -487,1020 -452,1587z"/>
  </g>
  <g id="_2991504436752">
   <path class="Eyes-Pig0fil177" d="M10082 14381c563,1 1296,-400 1652,-607 410,-238 385,-734 230,-1292 -194,-698 -672,-1448 -1686,-1417 -221,6 -434,102 -606,218 -305,205 -650,864 -794,1463 -202,835 -15,1633 1204,1635z"/>
   <path class="Eyes-Pig0fil148" d="M12001 13387c190,-829 -360,-2137 -1264,-2265 -609,-86 -914,-49 -1308,418 -321,381 -571,1119 -610,1539 355,-962 1323,-1597 1979,-1534 834,79 1188,884 1203,1842z"/>
   <path class="Eyes-Pig0fil178" d="M9793 14383c633,57 1241,-207 1701,-474 155,-90 377,-135 451,-334 -302,-140 -397,-428 -502,-707 -440,8 -880,16 -1320,25 -693,422 -926,832 -1030,1239 124,136 501,232 700,251z"/>
   <circle class="Eyes-Pig0fil173" r="235" transform="matrix(1.05455 -0.156917 0.122712 0.972902 9548.64 13835.5)"/>
   <circle class="Eyes-Pig0fil173" r="235" transform="matrix(0.528618 -0.0219485 -0.0170794 0.468369 9352 13287.5)"/>
   <path class="Eyes-Pig0fil179" d="M10448 11510c549,-164 1099,173 1230,751 130,579 -210,1181 -758,1345 -549,163 -1100,-173 -1230,-751 -130,-579 209,-1181 758,-1345z"/>
   <path class="Eyes-Pig0fil173" d="M11026 11820c-533,42 -786,1263 -12,1213 797,-51 589,-1258 12,-1213z"/>
   <path class="Eyes-Pig0fil0 Eyes-Pig0str0" d="M12027 13246c0,0 1,386 -293,528 -116,57 -322,154 -541,254 -367,168 -697,356 -1111,353 -339,-2 -849,-77 -1083,-417 -326,-473 -185,-845 -6,-1515 359,-1339 1626,-1973 2582,-790 344,426 487,1020 452,1587z"/>
  </g>
 </g><g id="Moustache-Pig0">
 <animateTransform additive="sum" attributeName="transform" dur="10" repeatCount="indefinite" type="translate" values="0;0 200;0;0 200;0;0 200;0;0 200;0"/>
  <metadata id="CorelCorpID_136Corel-Layer"/>
  <rect class="Moustache-Pig0fil0" height="1459" width="1352" x="13006" y="12662"/>
 </g><g id="Nose-Pig0">
 <animateTransform additive="sum" attributeName="transform" dur="10" repeatCount="indefinite" type="translate" values="0;0 200;0;0 200;0;0 200;0;0 200;0"/>
  <metadata id="CorelCorpID_141Corel-Layer"/>
  <g id="_2991533171152">
   <path class="Nose-Pig0fil236 Nose-Pig0str0" d="M13682 15431c688,0 1646,200 1573,-487 -68,-630 -928,-1635 -1573,-1635 -645,0 -1505,1005 -1573,1635 -73,687 885,487 1573,487z" style="fill:#775574"/>
   <g>
    <path class="Nose-Pig0fil26 Nose-Pig0str3" d="M14332 14239c-113,0 -205,188 -205,418 0,231 92,418 205,418 114,0 206,-187 206,-418 -1,-230 -93,-418 -206,-418z" style="fill:#9b3611"/>
    <path class="Nose-Pig0fil237 Nose-Pig0str3" d="M14332 14239c-113,0 -205,188 -205,418 0,231 92,418 205,418 114,0 206,-187 206,-418 -1,-230 -93,-418 -206,-418z" style="fill:#9e6d71"/>
   </g>
   <g>
    <path class="Nose-Pig0fil26 Nose-Pig0str3" d="M13032 14239c113,0 205,188 205,418 0,231 -92,418 -205,418 -114,0 -206,-187 -206,-418 0,-230 93,-418 206,-418z" style="fill:#036c95"/>
    <path class="Nose-Pig0fil237 Nose-Pig0str3" d="M13032 14239c113,0 205,188 205,418 0,231 -92,418 -205,418 -114,0 -206,-187 -206,-418 0,-230 93,-418 206,-418z" style="fill:#8ff11e"/>
   </g>
  </g>
 </g><g id="Hair-Pig4">
 <animateTransform additive="sum" attributeName="transform" dur="10" repeatCount="indefinite" type="translate" values="0;0 200;0;0 200;0;0 200;0;0 200;0"/>
  <metadata id="CorelCorpID_152Corel-Layer"/>
  <path class="Hair-Pig4fil250" d="M12591 6647c0,0 -275,-339 -423,-635 -333,-667 -240,-1168 82,-1514 128,-138 354,-95 542,-185 123,-59 193,-263 333,-302 284,-78 596,-116 906,-113 105,1 150,101 214,156 -10,-35 311,-113 415,-92 1723,362 1938,2148 1431,2960 -17,17 37,-940 -565,-1253 852,560 -65,2395 -45,2473 58,227 -580,441 -1052,-728 -473,-1169 -1838,-767 -1838,-767z" style="fill:#475bf9"/>
  <path class="Hair-Pig4fil10" d="M14864 6655c0,0 595,-548 701,-19 106,529 0,1096 0,1096 0,0 -1566,238 -701,-1077z" style="fill:#61a7d1"/>
  <path class="Hair-Pig4fil10" d="M14620 6573c426,-1655 1420,-704 1514,275 192,-480 330,-801 107,-1486 -409,-1254 -1812,-285 -1707,1191 15,210 86,20 86,20z" style="fill:#79be2a"/>
  <path class="Hair-Pig4fil84" d="M14916 6708c-29,29 -77,29 -105,-1 -29,-29 -29,-77 0,-106 669,-588 783,40 761,123 -33,-34 -119,-481 -656,-16z" style="fill:#657a35"/>
  <path class="Hair-Pig4fil84" d="M14975 5824c131,-204 456,-357 663,-169 31,27 33,75 6,105 -28,31 -75,33 -106,6 -203,-184 -458,-14 -563,58z" style="fill:#dee82e"/>
  <path class="Hair-Pig4fil10" d="M13013 6483c0,0 -1160,-972 -699,-1972 -417,361 -392,1048 -189,1412 204,363 406,643 406,643 0,0 315,-63 482,-83z" style="fill:#e93b5f"/>
  <path class="Hair-Pig4fil10" d="M13096 4019c-912,555 -124,1858 -92,1854 -235,-1039 43,-1661 1205,-1857 0,0 -142,-150 -1113,3z" style="fill:#a73f8a"/>
  <path class="Hair-Pig4fil246" d="M13597 6447c-833,-1160 200,-2620 1325,-2404 578,111 1063,860 1063,860 -871,-545 -1689,603 -1733,1153 -112,-1299 733,-1556 643,-1548 -1160,107 -1482,1182 -1128,1954 131,288 -170,-15 -170,-15z" style="fill:#91171f"/>
  <path class="Hair-Pig4fil0 Hair-Pig4str0" d="M12591 6647c0,0 -275,-339 -423,-635 -372,-743 -308,-1116 106,-1464 380,-318 402,-181 518,-235 214,-151 109,-400 1170,-392 127,1 250,9 219,157 412,-173 816,-59 1156,136 1094,625 1185,2018 754,2708 -17,17 37,-940 -565,-1253 852,560 -65,2395 -45,2473 58,227 -580,441 -1052,-728 -473,-1169 -1838,-767 -1838,-767z" style="fill:#085e45"/>
  <path class="Hair-Pig4fil251" d="M16806 8621c409,-681 -1924,-1215 -2056,-1570 -448,-300 -1669,-358 -2340,-7 -111,399 -2420,665 -2137,1788 655,-525 2306,-496 3409,152 503,-208 1996,-778 3124,-363z" style="fill:#9e3914"/>
  <path class="Hair-Pig4fil10" d="M13166 8745c182,66 356,146 516,239 790,-829 -431,-707 -336,-1709 17,-179 26,-185 38,-317 0,0 -95,44 -206,409 -111,365 -645,402 -476,878 81,229 270,387 464,500z" style="fill:#631f94"/>
  <path class="Hair-Pig4fil246" d="M13858 7028c-84,281 175,503 429,757 254,254 203,863 16,947 -190,86 1147,-244 667,-1055 378,84 813,335 665,793 750,-156 327,-775 -122,-975 -356,-159 -660,-329 -683,-349 -24,-20 -681,-218 -972,-118z" style="fill:#27d678"/>
  <path class="Hair-Pig4fil84" d="M16807 8628c15,-136 89,-314 -443,-639 -244,-147 -556,-283 -841,-408 -396,-173 -744,-326 -831,-478 -225,-142 -643,-224 -1083,-225 -408,-2 -831,66 -1140,219 -78,159 -383,280 -746,423 -440,174 -974,384 -1234,701 -257,314 -204,514 -216,611 -157,-205 -60,-515 88,-698 283,-349 843,-570 1307,-753 351,-139 642,-254 670,-357 6,-19 19,-37 38,-47 333,-173 793,-250 1233,-249 479,2 938,97 1183,261 12,9 22,21 28,36 38,102 376,249 762,419 290,126 607,265 859,416 666,449 418,714 366,768z" style="fill:#3e7831"/>
  <path class="Hair-Pig4fil252 Hair-Pig4str1" d="M12511 7102c-120,65 -270,20 -335,-101 -65,-121 -21,-273 99,-339 249,-136 753,-205 1260,-204 500,0 1020,66 1314,197 124,55 181,203 126,329 -55,126 -201,183 -325,128 -232,-104 -676,-156 -1115,-156 -434,-1 -847,48 -1024,146z" style="fill:#08a3ee"/>
  <path class="Hair-Pig4fil10" d="M12834 7033c0,0 -695,479 -803,761 -109,282 149,679 446,751 -601,-117 -1623,-163 -2200,283l-5 2c-279,-1121 2028,-1387 2138,-1786 9,-5 17,-9 25,-13l1 0 1 -1 14 -7 1 0 1 -1c187,-7 378,15 381,11z" style="fill:#018568"/>
 </g></svg>