<svg xmlns="http://www.w3.org/2000/svg" xmlns:xlink="http://www.w3.org/1999/xlink" style="shape-rendering:geometricPrecision; text-rendering:geometricPrecision; image-rendering:optimizeQuality; fill-rule:evenodd; clip-rule:evenodd" version="1.1" viewBox="0 0 29000 29000" xml:space="preserve"><defs><style type="text/css">.BraceletLeather-Mediumfil43new {fill:white;fill-opacity:0.200000}
.BraceletLeather-Mediumfil46new {fill:white;fill-rule:nonzero;fill-opacity:0.200000}
.BraceletLeather-Mediumfil42new {fill:url(#BraceletLeather-Mediumid14new)}
.BraceletLeather-Mediumstr3new {stroke:black;stroke-width:100;stroke-linecap:round;stroke-linejoin:round}
.BraceletLeather-Mediumfil33new {fill:none}
.BraceletLeather-Mediumfil44new {fill:url(#BraceletLeather-Mediumid88new)}
.BraceletLeather-Mediumfil45new {fill:url(#BraceletLeather-Mediumid672new);fill-rule:nonzero}
.BraceletLeather-Mediumstr4new {stroke:black;stroke-width:100}
.BraceletLeather-Mediumfil47new {fill:none;fill-rule:nonzero}
.BraceletLeather-Mediumfil48new {fill:url(#BraceletLeather-Mediumid15new)}
.BraceletLeather-Mediumfil49new {fill:url(#BraceletLeather-Mediumid207new)}
.BraceletLeather-Mediumfil50new {fill:url(#BraceletLeather-Mediumid690new);fill-rule:nonzero}
.HatUshanka-Mediumfil31new {fill:white;fill-opacity:0.501961}
.HatUshanka-Mediumfil14new {fill:black;fill-opacity:0.200000}
.HatUshanka-Mediumfil683new {fill:url(#HatUshanka-Mediumid572new)}
.HatUshanka-Mediumfil685new {fill:url(#HatUshanka-Mediumid440new)}
.HatUshanka-Mediumfil679new {fill:#643200}
.HatUshanka-Mediumstr0new {stroke:black;stroke-width:150;stroke-linecap:round;stroke-linejoin:round}
.HatUshanka-Mediumfil680new {fill:url(#HatUshanka-Mediumid136new)}
.HatUshanka-Mediumstr6new {stroke:black;stroke-width:150}
.HatUshanka-Mediumfil33new {fill:none}
.HatUshanka-Mediumfil681new {fill:url(#HatUshanka-Mediumid553new)}
.HatUshanka-Mediumfil682new {fill:url(#HatUshanka-Mediumid574new)}
.HatUshanka-Mediumfil684new {fill:url(#HatUshanka-Mediumid702new);fill-rule:nonzero}
.WeaponBflyKnifeBack-Mediumfil23 {fill:black}
.WeaponBflyKnifeBack-Mediumfil25 {fill:url(#WeaponBflyKnifeBack-Mediumid10)}
.WeaponBflyKnifeBack-Mediumstr0 {stroke:black;stroke-width:150;stroke-linecap:round;stroke-linejoin:round}
.WeaponBflyKnifeBack-Mediumfil24 {fill:url(#WeaponBflyKnifeBack-Mediumid20)}
.WeaponBflyKnifeBack-Mediumstr1 {stroke:black;stroke-width:150}
.WeaponBflyKnife-Mediumfil26 {fill:url(#WeaponBflyKnife-Mediumid21)}
.WeaponBflyKnife-Mediumfil27 {fill:white;fill-opacity:0.501961}
.WeaponBflyKnife-Mediumfil28 {fill:#820000}
.WeaponBflyKnife-Mediumfil23 {fill:black}
.WeaponBflyKnife-Mediumfil29 {fill:url(#WeaponBflyKnife-Mediumid5)}
.WeaponBflyKnife-Mediumfil30 {fill:url(#WeaponBflyKnife-Mediumid15)}
.WeaponBflyKnife-Mediumfil31 {fill:white;fill-opacity:0.301961}
.WeaponBflyKnife-Mediumfil14 {fill:none}
.WeaponBflyKnife-Mediumstr0 {stroke:black;stroke-width:150;stroke-linecap:round;stroke-linejoin:round}
.AccessoryFlaskWithWaterfil79 {fill:url(#AccessoryFlaskWithWaterid23)}
.AccessoryFlaskWithWaterfil1 {fill:black;fill-opacity:0.200000}
.AccessoryFlaskWithWaterfil80 {fill:url(#AccessoryFlaskWithWaterid4)}
.AccessoryFlaskWithWaterfil48 {fill:white;fill-opacity:0.501961}
.AccessoryFlaskWithWaterfil82 {fill:url(#AccessoryFlaskWithWaterid30)}
.AccessoryFlaskWithWaterfil15 {fill:black}
.AccessoryFlaskWithWaterfil78 {fill:url(#AccessoryFlaskWithWaterid25)}
.AccessoryFlaskWithWaterstr1 {stroke:black;stroke-width:150}
.AccessoryFlaskWithWaterfil2 {fill:none}
.AccessoryFlaskWithWaterstr4 {stroke:black;stroke-width:150}
.AccessoryFlaskWithWaterstr3 {stroke:black;stroke-width:150;stroke-linecap:round;stroke-linejoin:round}
.AccessoryFlaskWithWaterfil81 {fill:url(#AccessoryFlaskWithWaterid81)}
.AccessoryFlaskWithWaterstr0 {stroke:black;stroke-width:150;stroke-linecap:round;stroke-linejoin:round}
.AccessoryFlaskWithWaterfil83 {fill:url(#AccessoryFlaskWithWaterid79)}
.AccessoryFlaskWithWaterfil84 {fill:url(#AccessoryFlaskWithWaterid16)}
.AccessoryFlaskWithWaterfil85 {fill:url(#AccessoryFlaskWithWaterid13)}
.HairBack-Pig0fil0 {fill:none}
.Tail-Pig5fil10 {fill:black;fill-opacity:0.200000}
.Tail-Pig5fil35 {fill:url(#Tail-Pig5id23)}
.Tail-Pig5str2 {stroke:black;stroke-width:150;stroke-linecap:round;stroke-linejoin:round}
.RightFoot-Pig2fil42 {fill:#ad7d8b}
.RightFoot-Pig2fil38 {fill:#875463}
.RightFoot-Pig2fil43 {fill:url(#RightFoot-Pig2id224)}
.RightFoot-Pig2fil40 {fill:black}
.RightFoot-Pig2fil10 {fill:black;fill-opacity:0.200000}
.RightFoot-Pig2fil0 {fill:none}
.RightFoot-Pig2str2 {stroke:black;stroke-width:150;stroke-linecap:round;stroke-linejoin:round}
.RightLeg-Pig3fil52 {fill:url(#RightLeg-Pig3id37)}
.RightLeg-Pig3fil56 {fill:url(#RightLeg-Pig3id61)}
.RightLeg-Pig3fil10 {fill:black;fill-opacity:0.200000}
.RightLeg-Pig3fil0 {fill:none}
.RightLeg-Pig3str2 {stroke:black;stroke-width:150;stroke-linecap:round;stroke-linejoin:round}
.LeftFoot-Pig2fil42 {fill:#ad7d8b}
.LeftFoot-Pig2fil38 {fill:#875463}
.LeftFoot-Pig2fil57 {fill:url(#LeftFoot-Pig2id220)}
.LeftFoot-Pig2fil40 {fill:black}
.LeftFoot-Pig2fil10 {fill:black;fill-opacity:0.200000}
.LeftFoot-Pig2fil0 {fill:none}
.LeftFoot-Pig2str2 {stroke:black;stroke-width:150;stroke-linecap:round;stroke-linejoin:round}
.LeftLeg-Pig3fil62 {fill:url(#LeftLeg-Pig3id49)}
.LeftLeg-Pig3fil66 {fill:url(#LeftLeg-Pig3id68)}
.LeftLeg-Pig3fil10 {fill:black;fill-opacity:0.200000}
.LeftLeg-Pig3fil0 {fill:none}
.LeftLeg-Pig3str2 {stroke:black;stroke-width:150;stroke-linecap:round;stroke-linejoin:round}
.RightHand-Pig0fil68 {fill:url(#RightHand-Pig0id57)}
.RightHand-Pig0fil10 {fill:black;fill-opacity:0.200000}
.RightHand-Pig0fil0 {fill:none}
.RightHand-Pig0str0 {stroke:black;stroke-width:150;stroke-linecap:round;stroke-linejoin:round}
.RightPaw-Pig3fil74 {fill:url(#RightPaw-Pig3id25)}
.RightPaw-Pig3fil10 {fill:black;fill-opacity:0.200000}
.RightPaw-Pig3fil77 {fill:url(#RightPaw-Pig3id216)}
.RightPaw-Pig3fil40 {fill:black}
.RightPaw-Pig3fil0 {fill:none}
.RightPaw-Pig3str2 {stroke:black;stroke-width:150;stroke-linecap:round;stroke-linejoin:round}
.LeftHand-Pig0fil79 {fill:url(#LeftHand-Pig0id22)}
.LeftHand-Pig0fil10 {fill:black;fill-opacity:0.200000}
.LeftHand-Pig0fil0 {fill:none}
.LeftHand-Pig0str0 {stroke:black;stroke-width:150;stroke-linecap:round;stroke-linejoin:round}
.Body-Pig3fil83 {fill:url(#Body-Pig3id42)}
.Body-Pig3fil88 {fill:url(#Body-Pig3id33)}
.Body-Pig3fil10 {fill:black;fill-opacity:0.200000}
.Body-Pig3fil84 {fill:black;fill-rule:nonzero}
.Body-Pig3fil30 {fill:black;fill-rule:nonzero}
.LeftPaw-Pig3fil91 {fill:url(#LeftPaw-Pig3id70)}
.LeftPaw-Pig3fil10 {fill:black;fill-opacity:0.200000}
.LeftPaw-Pig3fil94 {fill:url(#LeftPaw-Pig3id212)}
.LeftPaw-Pig3fil40 {fill:black}
.LeftPaw-Pig3fil0 {fill:none}
.LeftPaw-Pig3str2 {stroke:black;stroke-width:150;stroke-linecap:round;stroke-linejoin:round}
.Head-Pig0fil160 {fill:url(#Head-Pig0id50)}
.Head-Pig0fil10 {fill:black;fill-opacity:0.200000}
.Head-Pig0fil84 {fill:black;fill-rule:nonzero}
.Mouth-Pig9fil169 {fill:black}
.Mouth-Pig9fil171 {fill:#FF9999}
.Mouth-Pig9fil170 {fill:black;fill-rule:nonzero;fill-opacity:0.301961}
.Mouth-Pig9fil0 {fill:none}
.Mouth-Pig9str0 {stroke:black;stroke-width:150;stroke-linecap:round;stroke-linejoin:round}
.EyesClosed-Pig0fil38 {fill:#875463}
.EyesClosed-Pig0fil10 {fill:black;fill-opacity:0.200000}
.EyesClosed-Pig0fil84 {fill:black;fill-rule:nonzero}
.Eyes-Pig0fil174 {fill:url(#Eyes-Pig0id154)}
.Eyes-Pig0fil148 {fill:black;fill-opacity:0.501961}
.Eyes-Pig0fil175 {fill:url(#Eyes-Pig0id108)}
.Eyes-Pig0fil173 {fill:white}
.Eyes-Pig0fil176 {fill:url(#Eyes-Pig0id100)}
.Eyes-Pig0fil177 {fill:url(#Eyes-Pig0id156)}
.Eyes-Pig0fil178 {fill:url(#Eyes-Pig0id106)}
.Eyes-Pig0fil179 {fill:url(#Eyes-Pig0id102)}
.Eyes-Pig0fil0 {fill:none}
.Eyes-Pig0str0 {stroke:black;stroke-width:150;stroke-linecap:round;stroke-linejoin:round}
.Moustache-Pig3fil234 {fill:url(#Moustache-Pig3id41)}
.Moustache-Pig3fil84 {fill:black;fill-rule:nonzero}
.Moustache-Pig3fil10 {fill:black;fill-opacity:0.200000}
.Nose-Pig4fil51 {fill:black;fill-opacity:0.400000}
.Nose-Pig4fil241 {fill:url(#Nose-Pig4id192)}
.Nose-Pig4str0 {stroke:black;stroke-width:150;stroke-linecap:round;stroke-linejoin:round}
.Nose-Pig4fil242 {fill:none}
.Nose-Pig4str4 {stroke:black;stroke-width:200;stroke-linecap:round;stroke-linejoin:round;stroke-opacity:0.400000}
.NecklaceCapeRedBack-Mediumfil3 {fill:black;fill-opacity:0.301961}
.NecklaceCapeRedBack-Mediumfil4 {fill:black;fill-opacity:0.200000}
.NecklaceCapeRedBack-Mediumfil13 {fill:url(#NecklaceCapeRedBack-Mediumid41);fill-rule:nonzero}
.NecklaceCapeRedBack-Mediumfil14 {fill:black;fill-rule:nonzero}
.NecklaceCapeRedBack-Mediumfil0 {fill:#270306}
.NecklaceCapeRedBack-Mediumstr0 {stroke:black;stroke-width:150;stroke-linecap:round;stroke-linejoin:round}
.NecklaceCapeRedBack-Mediumfil12 {fill:url(#NecklaceCapeRedBack-Mediumid2)}
.NecklaceCapeRedBack-Mediumfil2 {fill:black;fill-opacity:0.501961}
.NecklaceCapeRedBack-Mediumstr2 {stroke:black;stroke-width:150;stroke-linecap:round;stroke-linejoin:round;stroke-opacity:0.501961}
.NecklaceCapeRed-Mediumfil16 {fill:url(#NecklaceCapeRed-Mediumid13)}
.NecklaceCapeRed-Mediumfil14 {fill:black;fill-rule:nonzero}
.NecklaceCapeRed-Mediumfil10 {fill:black;fill-opacity:0.400000}
.NecklaceCapeRed-Mediumfil11 {fill:white;fill-opacity:0.800000}
.NecklaceCapeRed-Mediumfil15 {fill:url(#NecklaceCapeRed-Mediumid8)}
.NecklaceCapeRed-Mediumstr0 {stroke:black;stroke-width:150;stroke-linecap:round;stroke-linejoin:round}
.NecklaceCapeRed-Mediumfil17 {fill:url(#NecklaceCapeRed-Mediumid31)}
.NecklaceCapeRed-Mediumstr1 {stroke:black;stroke-width:150}
.NecklaceCapeRed-Mediumfil18 {fill:url(#NecklaceCapeRed-Mediumid37)}
</style><linearGradient gradientUnits="userSpaceOnUse" id="BraceletLeather-Mediumid14new" x1="8682.96" x2="8745.92" y1="19682.8" y2="19053.1">
   <stop offset="0" style="stop-opacity:1; stop-color:#683501"/>
   <stop offset="1" style="stop-opacity:1; stop-color:#B08227"/>
  </linearGradient><linearGradient gradientUnits="userSpaceOnUse" id="BraceletLeather-Mediumid88new" x1="8626.8" x2="8294.02" xlink:href="#BraceletLeather-Mediumid14new" y1="19859" y2="19314.4">
  </linearGradient><linearGradient gradientUnits="userSpaceOnUse" id="BraceletLeather-Mediumid672new" x1="8784.44" x2="10049.5" y1="19759" y2="20796.3">
   <stop offset="0" style="stop-opacity:1; stop-color:#643300"/>
   <stop offset="0.321569" style="stop-opacity:1; stop-color:#B5872A"/>
   <stop offset="1" style="stop-opacity:1; stop-color:#643300"/>
  </linearGradient><linearGradient gradientUnits="userSpaceOnUse" id="BraceletLeather-Mediumid15new" x1="18680.9" x2="18617.9" xlink:href="#BraceletLeather-Mediumid14new" y1="19682.8" y2="19053.1">
  </linearGradient><linearGradient gradientUnits="userSpaceOnUse" id="BraceletLeather-Mediumid207new" x1="18737" x2="19069.8" xlink:href="#BraceletLeather-Mediumid14new" y1="19859" y2="19314.4">
  </linearGradient><linearGradient gradientUnits="userSpaceOnUse" id="BraceletLeather-Mediumid690new" x1="18579.4" x2="17314.3" xlink:href="#BraceletLeather-Mediumid672new" y1="19759" y2="20796.3">
  </linearGradient><linearGradient gradientUnits="userSpaceOnUse" id="HatUshanka-Mediumid572new" x1="13613" x2="13289.9" y1="12530.1" y2="6043.75">
   <stop offset="0" style="stop-opacity:1; stop-color:#C9AD91"/>
   <stop offset="0.509804" style="stop-opacity:1; stop-color:#EBD1B7"/>
   <stop offset="1" style="stop-opacity:1; stop-color:#F2DFCB"/>
  </linearGradient><linearGradient gradientUnits="userSpaceOnUse" id="HatUshanka-Mediumid440new" x1="13217.6" x2="13567.9" y1="8259.32" y2="10477.9">
   <stop offset="0" style="stop-opacity:1; stop-color:red"/>
   <stop offset="1" style="stop-opacity:1; stop-color:#870000"/>
  </linearGradient><linearGradient gradientUnits="userSpaceOnUse" id="HatUshanka-Mediumid136new" x1="18968.1" x2="23659.1" y1="11787.9" y2="12257">
   <stop offset="0" style="stop-opacity:1; stop-color:#C9AD91"/>
   <stop offset="0.560784" style="stop-opacity:1; stop-color:#EBD1B7"/>
   <stop offset="1" style="stop-opacity:1; stop-color:#F2DFCB"/>
  </linearGradient><linearGradient gradientUnits="userSpaceOnUse" id="HatUshanka-Mediumid553new" x1="7438.35" x2="3427.57" xlink:href="#HatUshanka-Mediumid136new" y1="12658.2" y2="11303.2">
  </linearGradient><linearGradient gradientUnits="userSpaceOnUse" id="HatUshanka-Mediumid574new" x1="13447.3" x2="13294.7" y1="12378.6" y2="5601.47">
   <stop offset="0" style="stop-opacity:1; stop-color:#5C3005"/>
   <stop offset="1" style="stop-opacity:1; stop-color:#DBA777"/>
  </linearGradient><linearGradient gradientUnits="userSpaceOnUse" id="HatUshanka-Mediumid702new" x1="12852.6" x2="13935.1" y1="10469.1" y2="8266.76">
   <stop offset="0" style="stop-opacity:1; stop-color:#AB8900"/>
   <stop offset="0.321569" style="stop-opacity:1; stop-color:#FBE773"/>
   <stop offset="0.631373" style="stop-opacity:1; stop-color:white"/>
   <stop offset="0.8" style="stop-opacity:1; stop-color:#FDE976"/>
   <stop offset="1" style="stop-opacity:1; stop-color:#DEA700"/>
  </linearGradient><linearGradient gradientUnits="userSpaceOnUse" id="WeaponBflyKnifeBack-Mediumid10" x1="7610.92" x2="7717.74" xlink:href="#WeaponBflyKnifeBack-Mediumid4" y1="19919.5" y2="19877.8">
  </linearGradient><linearGradient gradientUnits="userSpaceOnUse" id="WeaponBflyKnifeBack-Mediumid20" x1="7155" x2="10206.4" xlink:href="#WeaponBflyKnifeBack-Mediumid18" y1="20686" y2="21753.5">
  </linearGradient><linearGradient gradientUnits="userSpaceOnUse" id="WeaponBflyKnife-Mediumid21" x1="9678.73" x2="12556.5" xlink:href="#WeaponBflyKnife-Mediumid19" y1="23619.9" y2="23321.3">
  </linearGradient><linearGradient gradientUnits="userSpaceOnUse" id="WeaponBflyKnife-Mediumid5" x1="10045" x2="10174.8" xlink:href="#WeaponBflyKnife-Mediumid4" y1="22278.7" y2="22228">
  </linearGradient><linearGradient gradientUnits="userSpaceOnUse" id="WeaponBflyKnife-Mediumid15" x1="9745.2" x2="9875.04" xlink:href="#WeaponBflyKnife-Mediumid4" y1="22603.1" y2="22552.4">
  </linearGradient><linearGradient gradientUnits="userSpaceOnUse" id="AccessoryFlaskWithWaterid23" x1="3205.91" x2="6561.17" y1="23126.1" y2="23126.1">
   <stop offset="0" style="stop-opacity:1; stop-color:#865126"/>
   <stop offset="0.14902" style="stop-opacity:1; stop-color:#734F25"/>
   <stop offset="0.411765" style="stop-opacity:1; stop-color:#4F341B"/>
   <stop offset="0.760784" style="stop-opacity:1; stop-color:#BA833C"/>
   <stop offset="1" style="stop-opacity:1; stop-color:#855819"/>
  </linearGradient><linearGradient gradientUnits="userSpaceOnUse" id="AccessoryFlaskWithWaterid4" x1="4230.39" x2="5536.69" y1="20350.8" y2="20350.8">
   <stop offset="0" style="stop-opacity:1; stop-color:#424D4A"/>
   <stop offset="0.258824" style="stop-opacity:1; stop-color:#707A78"/>
   <stop offset="0.45098" style="stop-opacity:1; stop-color:#4C5654"/>
   <stop offset="0.690196" style="stop-opacity:1; stop-color:#DFE9EB"/>
   <stop offset="1" style="stop-opacity:1; stop-color:#A4ADAB"/>
  </linearGradient><linearGradient gradientUnits="userSpaceOnUse" id="AccessoryFlaskWithWaterid30" x1="4716.11" x2="5050.97" y1="23904.1" y2="23034.9">
   <stop offset="0" style="stop-opacity:1; stop-color:#4D4B42"/>
   <stop offset="0.168627" style="stop-opacity:1; stop-color:#707A78"/>
   <stop offset="0.341176" style="stop-opacity:1; stop-color:#4C5654"/>
   <stop offset="0.568627" style="stop-opacity:1; stop-color:#DFE9EB"/>
   <stop offset="1" style="stop-opacity:1; stop-color:#838577"/>
  </linearGradient><linearGradient gradientUnits="userSpaceOnUse" id="AccessoryFlaskWithWaterid25" x1="5672.23" x2="4247.15" y1="27034.1" y2="21734.6">
   <stop offset="0" style="stop-opacity:1; stop-color:#8A7A6E"/>
   <stop offset="0.258824" style="stop-opacity:1; stop-color:#413836"/>
   <stop offset="0.65098" style="stop-opacity:1; stop-color:#3B3332"/>
   <stop offset="1" style="stop-opacity:1; stop-color:#AB9780"/>
  </linearGradient><linearGradient gradientUnits="userSpaceOnUse" id="AccessoryFlaskWithWaterid81" x1="4549.26" x2="4088.46" y1="23238.9" y2="21722.7">
   <stop offset="0" style="stop-opacity:1; stop-color:#12131C"/>
   <stop offset="0.368627" style="stop-opacity:1; stop-color:#3B3332"/>
   <stop offset="1" style="stop-opacity:1; stop-color:#AB9780"/>
  </linearGradient><linearGradient gradientUnits="userSpaceOnUse" id="AccessoryFlaskWithWaterid79" x1="4867.21" x2="5918.47" xlink:href="#AccessoryFlaskWithWaterid16" y1="23175.3" y2="21958.8">
  </linearGradient><linearGradient gradientUnits="userSpaceOnUse" id="AccessoryFlaskWithWaterid13" x1="4125.86" x2="5646.78" xlink:href="#AccessoryFlaskWithWaterid4" y1="21404.4" y2="21404.4">
  </linearGradient><linearGradient gradientUnits="userSpaceOnUse" id="Tail-Pig5id23" x1="19917.1" x2="13826.1" xlink:href="#Tail-Pig5id5" y1="22314.1" y2="23990.6">
  </linearGradient><linearGradient gradientUnits="objectBoundingBox" id="RightFoot-Pig2id224" x1="49.9997%" x2="49.9997%" xlink:href="#RightFoot-Pig2id0" y1="100%" y2="0%">
  </linearGradient><linearGradient gradientUnits="objectBoundingBox" id="RightLeg-Pig3id37" x1="50%" x2="50%" xlink:href="#RightLeg-Pig3id2" y1="100%" y2="0%">
  </linearGradient><linearGradient gradientUnits="userSpaceOnUse" id="RightLeg-Pig3id61" x1="16110.8" x2="16110.8" y1="21408.3" y2="24212.9">
   <stop offset="0" style="stop-opacity:1; stop-color:#875463"/>
   <stop offset="0.819608" style="stop-opacity:1; stop-color:#ad7d8b"/>
   <stop offset="1" style="stop-opacity:1; stop-color:#ad7d8b"/>
  </linearGradient><linearGradient gradientUnits="objectBoundingBox" id="LeftFoot-Pig2id220" x1="50.0003%" x2="50.0003%" xlink:href="#LeftFoot-Pig2id0" y1="100%" y2="0%">
  </linearGradient><linearGradient gradientUnits="objectBoundingBox" id="LeftLeg-Pig3id49" x1="50%" x2="50%" xlink:href="#LeftLeg-Pig3id2" y1="100%" y2="0%">
  </linearGradient><linearGradient gradientUnits="userSpaceOnUse" id="LeftLeg-Pig3id68" x1="11277.3" x2="11277.3" xlink:href="#LeftLeg-Pig3id61" y1="21408.3" y2="24212.9">
  </linearGradient><linearGradient gradientUnits="objectBoundingBox" id="RightHand-Pig0id57" x1="30.1244%" x2="69.8756%" xlink:href="#RightHand-Pig0id22" y1="2.32158%" y2="97.6784%">
  </linearGradient><linearGradient gradientUnits="objectBoundingBox" id="RightPaw-Pig3id25" x1="81.8832%" x2="18.1168%" y1="89.1977%" y2="10.8018%">
   <stop offset="0" style="stop-opacity:1; stop-color:#d1b0a3"/>
   <stop offset="0.619608" style="stop-opacity:1; stop-color:#f7d8cc"/>
   <stop offset="1" style="stop-opacity:1; stop-color:#f7d8cc"/>
  </linearGradient><linearGradient gradientUnits="objectBoundingBox" id="RightPaw-Pig3id216" x1="28.208%" x2="71.792%" xlink:href="#RightPaw-Pig3id5" y1="1.78354%" y2="98.2165%">
  </linearGradient><linearGradient gradientUnits="objectBoundingBox" id="LeftHand-Pig0id22" x1="69.8756%" x2="30.1244%" y1="2.32158%" y2="97.6784%">
   <stop offset="0" style="stop-opacity:1; stop-color:#d1b0a3"/>
   <stop offset="0.0196078" style="stop-opacity:1; stop-color:#d1b0a3"/>
   <stop offset="0.921569" style="stop-opacity:1; stop-color:#f7d8cc"/>
   <stop offset="1" style="stop-opacity:1; stop-color:#f7d8cc"/>
  </linearGradient><linearGradient gradientUnits="objectBoundingBox" id="Body-Pig3id42" x1="50%" x2="50%" y1="0.000186021%" y2="100%">
   <stop offset="0" style="stop-opacity:1; stop-color:#d1b0a3"/>
   <stop offset="0.0313725" style="stop-opacity:1; stop-color:#d1b0a3"/>
   <stop offset="0.529412" style="stop-opacity:1; stop-color:#f7d8cc"/>
   <stop offset="1" style="stop-opacity:1; stop-color:#fffbfa"/>
  </linearGradient><linearGradient gradientUnits="userSpaceOnUse" id="Body-Pig3id33" x1="13681.9" x2="13681.9" xlink:href="#Body-Pig3id5" y1="18213.7" y2="22723.6">
  </linearGradient><linearGradient gradientUnits="objectBoundingBox" id="LeftPaw-Pig3id70" x1="18.1168%" x2="81.8832%" xlink:href="#LeftPaw-Pig3id25" y1="89.1977%" y2="10.8018%">
  </linearGradient><linearGradient gradientUnits="objectBoundingBox" id="LeftPaw-Pig3id212" x1="71.792%" x2="28.208%" xlink:href="#LeftPaw-Pig3id5" y1="1.78354%" y2="98.2165%">
  </linearGradient><linearGradient gradientUnits="objectBoundingBox" id="Head-Pig0id50" x1="50%" x2="50%" xlink:href="#Head-Pig0id3" y1="99.9999%" y2="0%">
  </linearGradient><linearGradient gradientUnits="userSpaceOnUse" id="Eyes-Pig0id154" x1="16571.6" x2="17280" xlink:href="#Eyes-Pig0id148" y1="14231.4" y2="11213.2">
  </linearGradient><linearGradient gradientUnits="userSpaceOnUse" id="Eyes-Pig0id108" x1="18190.8" x2="15498.7" xlink:href="#Eyes-Pig0id10" y1="13790.3" y2="13468">
  </linearGradient><linearGradient gradientUnits="userSpaceOnUse" id="Eyes-Pig0id100" x1="16928.3" x2="16431.9" xlink:href="#Eyes-Pig0id45" y1="11523.4" y2="13592.4">
  </linearGradient><linearGradient gradientUnits="userSpaceOnUse" id="Eyes-Pig0id156" x1="10792.3" x2="10083.9" xlink:href="#Eyes-Pig0id148" y1="14231.4" y2="11213.2">
  </linearGradient><linearGradient gradientUnits="userSpaceOnUse" id="Eyes-Pig0id106" x1="9173.07" x2="11865.2" xlink:href="#Eyes-Pig0id10" y1="13790.3" y2="13468">
  </linearGradient><linearGradient gradientUnits="userSpaceOnUse" id="Eyes-Pig0id102" x1="10435.6" x2="10932" xlink:href="#Eyes-Pig0id45" y1="11523.4" y2="13592.4">
  </linearGradient><linearGradient gradientUnits="userSpaceOnUse" id="Moustache-Pig3id41" x1="13681.9" x2="13681.9" y1="18279.7" y2="16359.7">
   <stop offset="0" style="stop-opacity:1; stop-color:#d47294"/>
   <stop offset="0.6" style="stop-opacity:1; stop-color:#d47294"/>
   <stop offset="1" style="stop-opacity:1; stop-color:#ec98b5"/>
  </linearGradient><linearGradient gradientUnits="userSpaceOnUse" id="Nose-Pig4id192" x1="13681.9" x2="13681.9" xlink:href="#Nose-Pig4id151" y1="13198.4" y2="15458.3">
  </linearGradient><linearGradient gradientUnits="userSpaceOnUse" id="NecklaceCapeRedBack-Mediumid41" x1="4519.1" x2="6360.56" xlink:href="#NecklaceCapeRedBack-Mediumid5" y1="17697.6" y2="22165.4">
  </linearGradient><linearGradient gradientUnits="userSpaceOnUse" id="NecklaceCapeRedBack-Mediumid2" x1="5802.55" x2="15394.4" y1="24344" y2="17117.2">
   <stop offset="0" style="stop-opacity:1; stop-color:#B02C00"/>
   <stop offset="0.368627" style="stop-opacity:1; stop-color:#B82E00"/>
   <stop offset="0.709804" style="stop-opacity:1; stop-color:#630116"/>
   <stop offset="1" style="stop-opacity:1; stop-color:#1D0029"/>
  </linearGradient><linearGradient gradientUnits="userSpaceOnUse" id="NecklaceCapeRed-Mediumid13" x1="9527.35" x2="11718.7" y1="17325.6" y2="18088.7">
   <stop offset="0" style="stop-opacity:1; stop-color:#CC3300"/>
   <stop offset="0.25098" style="stop-opacity:1; stop-color:#A32C04"/>
   <stop offset="0.568627" style="stop-opacity:1; stop-color:#FF5024"/>
   <stop offset="1" style="stop-opacity:1; stop-color:#490033"/>
  </linearGradient><linearGradient gradientUnits="userSpaceOnUse" id="NecklaceCapeRed-Mediumid8" x1="17530.6" x2="12330.9" y1="17814.8" y2="18031.5">
   <stop offset="0" style="stop-opacity:1; stop-color:#B02C00"/>
   <stop offset="0.270588" style="stop-opacity:1; stop-color:#B82E00"/>
   <stop offset="0.768627" style="stop-opacity:1; stop-color:#630116"/>
   <stop offset="1" style="stop-opacity:1; stop-color:#1D0029"/>
  </linearGradient><linearGradient gradientUnits="objectBoundingBox" id="NecklaceCapeRed-Mediumid31" x1="82.4142%" x2="17.5858%" xlink:href="#NecklaceCapeRed-Mediumid30" y1="12.6218%" y2="87.3782%">
  </linearGradient><linearGradient gradientUnits="objectBoundingBox" id="NecklaceCapeRed-Mediumid37" x1="82.4142%" x2="17.5858%" xlink:href="#NecklaceCapeRed-Mediumid30" y1="12.6218%" y2="87.3782%">
  </linearGradient><linearGradient gradientUnits="userSpaceOnUse" id="WeaponBflyKnifeBack-Mediumid4" x1="7396.97" x2="7498.27" y1="20414.6" y2="20335.1">
   <stop offset="0" style="stop-opacity:1; stop-color:#949494"/>
   <stop offset="1" style="stop-opacity:1; stop-color:#fffefa"/>
  </linearGradient><linearGradient gradientUnits="userSpaceOnUse" id="WeaponBflyKnifeBack-Mediumid18" x1="8182.77" x2="11085" y1="21305.8" y2="22034">
   <stop offset="0" style="stop-opacity:1; stop-color:#993A3A"/>
   <stop offset="0.54902" style="stop-opacity:1; stop-color:#820000"/>
   <stop offset="1" style="stop-opacity:1; stop-color:#820000"/>
  </linearGradient><linearGradient gradientUnits="userSpaceOnUse" id="WeaponBflyKnife-Mediumid19" x1="10875" x2="13461.4" y1="23847.2" y2="23101">
   <stop offset="0" style="stop-opacity:1; stop-color:#6B6B6B"/>
   <stop offset="0.321569" style="stop-opacity:1; stop-color:#EBEBEB"/>
   <stop offset="0.419608" style="stop-opacity:1; stop-color:#B0B0B0"/>
   <stop offset="0.619608" style="stop-opacity:1; stop-color:white"/>
   <stop offset="1" style="stop-opacity:1; stop-color:#878787"/>
  </linearGradient><linearGradient gradientUnits="userSpaceOnUse" id="WeaponBflyKnife-Mediumid4" x1="7396.97" x2="7498.27" y1="20414.6" y2="20335.1">
   <stop offset="0" style="stop-opacity:1; stop-color:#949494"/>
   <stop offset="1" style="stop-opacity:1; stop-color:#fffefa"/>
  </linearGradient><linearGradient gradientUnits="userSpaceOnUse" id="AccessoryFlaskWithWaterid16" x1="4702.91" x2="5106.95" y1="25411.2" y2="23727">
   <stop offset="0" style="stop-opacity:1; stop-color:#5B5C63"/>
   <stop offset="0.509804" style="stop-opacity:1; stop-color:#665E59"/>
   <stop offset="1" style="stop-opacity:1; stop-color:#AB9B89"/>
  </linearGradient><linearGradient gradientUnits="userSpaceOnUse" id="Tail-Pig5id5" x1="18537.4" x2="18537.4" y1="11625" y2="5118.17">
   <stop offset="0" style="stop-opacity:1; stop-color:#875463"/>
   <stop offset="1" style="stop-opacity:1; stop-color:#f7d8cc"/>
  </linearGradient><linearGradient gradientUnits="userSpaceOnUse" id="RightFoot-Pig2id0" x1="16257.8" x2="16257.8" y1="21560.3" y2="23683.4">
   <stop offset="0" style="stop-opacity:1; stop-color:#875463"/>
   <stop offset="1" style="stop-opacity:1; stop-color:#ad7d8b"/>
  </linearGradient><linearGradient gradientUnits="userSpaceOnUse" id="RightLeg-Pig3id2" x1="11782.6" x2="11782.6" y1="24212.9" y2="21311.8">
   <stop offset="0" style="stop-opacity:1; stop-color:#fffbfa"/>
   <stop offset="0.388235" style="stop-opacity:1; stop-color:#fffbfa"/>
   <stop offset="1" style="stop-opacity:1; stop-color:#f7d8cc"/>
  </linearGradient><linearGradient gradientUnits="userSpaceOnUse" id="LeftFoot-Pig2id0" x1="16257.8" x2="16257.8" y1="21560.3" y2="23683.4">
   <stop offset="0" style="stop-opacity:1; stop-color:#875463"/>
   <stop offset="1" style="stop-opacity:1; stop-color:#ad7d8b"/>
  </linearGradient><linearGradient gradientUnits="userSpaceOnUse" id="LeftLeg-Pig3id2" x1="11782.6" x2="11782.6" y1="24212.9" y2="21311.8">
   <stop offset="0" style="stop-opacity:1; stop-color:#fffbfa"/>
   <stop offset="0.388235" style="stop-opacity:1; stop-color:#fffbfa"/>
   <stop offset="1" style="stop-opacity:1; stop-color:#f7d8cc"/>
  </linearGradient><linearGradient gradientUnits="userSpaceOnUse" id="LeftLeg-Pig3id61" x1="16110.8" x2="16110.8" y1="21408.3" y2="24212.9">
   <stop offset="0" style="stop-opacity:1; stop-color:#875463"/>
   <stop offset="0.819608" style="stop-opacity:1; stop-color:#ad7d8b"/>
   <stop offset="1" style="stop-opacity:1; stop-color:#ad7d8b"/>
  </linearGradient><linearGradient gradientUnits="objectBoundingBox" id="RightHand-Pig0id22" x1="69.8756%" x2="30.1244%" y1="2.32158%" y2="97.6784%">
   <stop offset="0" style="stop-opacity:1; stop-color:#d1b0a3"/>
   <stop offset="0.0196078" style="stop-opacity:1; stop-color:#d1b0a3"/>
   <stop offset="0.921569" style="stop-opacity:1; stop-color:#f7d8cc"/>
   <stop offset="1" style="stop-opacity:1; stop-color:#f7d8cc"/>
  </linearGradient><linearGradient gradientUnits="userSpaceOnUse" id="RightPaw-Pig3id5" x1="18537.4" x2="18537.4" y1="11625" y2="5118.17">
   <stop offset="0" style="stop-opacity:1; stop-color:#875463"/>
   <stop offset="1" style="stop-opacity:1; stop-color:#f7d8cc"/>
  </linearGradient><linearGradient gradientUnits="userSpaceOnUse" id="Body-Pig3id5" x1="18537.4" x2="18537.4" y1="11625" y2="5118.17">
   <stop offset="0" style="stop-opacity:1; stop-color:#875463"/>
   <stop offset="1" style="stop-opacity:1; stop-color:#f7d8cc"/>
  </linearGradient><linearGradient gradientUnits="objectBoundingBox" id="LeftPaw-Pig3id25" x1="81.8832%" x2="18.1168%" y1="89.1977%" y2="10.8018%">
   <stop offset="0" style="stop-opacity:1; stop-color:#d1b0a3"/>
   <stop offset="0.619608" style="stop-opacity:1; stop-color:#f7d8cc"/>
   <stop offset="1" style="stop-opacity:1; stop-color:#f7d8cc"/>
  </linearGradient><linearGradient gradientUnits="userSpaceOnUse" id="LeftPaw-Pig3id5" x1="18537.4" x2="18537.4" y1="11625" y2="5118.17">
   <stop offset="0" style="stop-opacity:1; stop-color:#875463"/>
   <stop offset="1" style="stop-opacity:1; stop-color:#f7d8cc"/>
  </linearGradient><linearGradient gradientUnits="userSpaceOnUse" id="Head-Pig0id3" x1="18922.8" x2="18922.8" y1="11187.2" y2="5413.87">
   <stop offset="0" style="stop-opacity:1; stop-color:#d1b0a3"/>
   <stop offset="0.388235" style="stop-opacity:1; stop-color:#f7d8cc"/>
   <stop offset="1" style="stop-opacity:1; stop-color:#fffbfa"/>
  </linearGradient><linearGradient gradientUnits="userSpaceOnUse" id="Eyes-Pig0id148" x1="16641" x2="17334.4" y1="14255.9" y2="11076.2">
   <stop offset="0" style="stop-opacity:1; stop-color:#00437d"/>
   <stop offset="1" style="stop-opacity:1; stop-color:black"/>
  </linearGradient><linearGradient gradientUnits="userSpaceOnUse" id="Eyes-Pig0id10" x1="15305.7" x2="18262.7" y1="12539.6" y2="12539.6">
   <stop offset="0" style="stop-opacity:1; stop-color:#00437d"/>
   <stop offset="0.501961" style="stop-opacity:1; stop-color:#2597fc"/>
   <stop offset="1" style="stop-opacity:1; stop-color:#00437d"/>
  </linearGradient><linearGradient gradientUnits="userSpaceOnUse" id="Eyes-Pig0id45" x1="16680.3" x2="16680.3" y1="11243.5" y2="13543.4">
   <stop offset="0" style="stop-opacity:1; stop-color:black"/>
   <stop offset="0.4" style="stop-opacity:1; stop-color:black"/>
   <stop offset="1" style="stop-opacity:1; stop-color:#003563"/>
  </linearGradient><linearGradient gradientUnits="userSpaceOnUse" id="Nose-Pig4id151" x1="13681.9" x2="13681.9" y1="13554.2" y2="15469.2">
   <stop offset="0" style="stop-opacity:1; stop-color:#FFCCCC"/>
   <stop offset="1" style="stop-opacity:1; stop-color:#DB9092"/>
  </linearGradient><linearGradient gradientUnits="userSpaceOnUse" id="NecklaceCapeRedBack-Mediumid5" x1="928.05" x2="7023.91" y1="19047.7" y2="21436.7">
   <stop offset="0" style="stop-opacity:1; stop-color:#CC3300"/>
   <stop offset="0.270588" style="stop-opacity:1; stop-color:#E6420C"/>
   <stop offset="0.529412" style="stop-opacity:1; stop-color:#A82E02"/>
   <stop offset="1" style="stop-opacity:1; stop-color:#9D1F10"/>
  </linearGradient><linearGradient gradientUnits="objectBoundingBox" id="NecklaceCapeRed-Mediumid30" x1="82.4142%" x2="17.5858%" y1="12.6218%" y2="87.3782%">
   <stop offset="0" style="stop-opacity:1; stop-color:#B3C0CC"/>
   <stop offset="0.270588" style="stop-opacity:1; stop-color:#D8DDE6"/>
   <stop offset="0.541176" style="stop-opacity:1; stop-color:#909DA8"/>
   <stop offset="1" style="stop-opacity:1; stop-color:#DBF5FF"/>
  </linearGradient></defs><g id="HairBack-Pig0">
 <animateTransform additive="sum" attributeName="transform" dur="10" repeatCount="indefinite" type="translate" values="0;0 200;0;0 200;0;0 200;0;0 200;0"/>
  <metadata id="CorelCorpID_0Corel-Layer"/>
  <rect class="HairBack-Pig0fil0" height="890" width="890" x="13237" y="6590"/>
  <rect class="HairBack-Pig0fil0" height="890" width="890" x="13237" y="6590"/>
 </g><g id="NecklaceCapeRedBack-Medium">
  <animateTransform additive="sum" attributeName="transform" dur="10" repeatCount="indefinite" type="translate" values="0;0 200;0;0 200;0;0 200;0;0 200;0"/>
  <metadata id="CorelCorpID_2Corel-Layer"/>
  <g id="_1834097540480">
   <g>
    <polygon class="NecklaceCapeRedBack-Mediumfil0 NecklaceCapeRedBack-Mediumstr0" points="8345,22996 7275,24229 6804,23598 "/>
    <path class="NecklaceCapeRedBack-Mediumfil12 NecklaceCapeRedBack-Mediumstr0" d="M2979 19025c2533,160 2278,2523 4260,1413 771,-431 2189,-2086 2427,-2628 82,-76 1004,-817 1286,-825 97,-3 1408,590 1977,563 2633,-122 2971,-468 3275,-364 256,88 -6,337 449,377 497,44 850,58 939,190 354,529 1283,4208 -137,6383 -1889,-287 -1219,543 -2327,296 -534,-119 -651,-468 -910,-496 -521,-54 -356,348 -1427,83 -884,-219 -2036,-430 -3373,163 -800,356 -1105,-429 -1681,-539 -220,-42 -837,-86 -464,527 140,230 -1017,19 -1387,-216 -788,-503 -112,-731 -551,-1192 -647,-680 -1171,235 -1825,-318 -224,-188 -259,-534 -168,-1004 205,-1056 75,-2081 -363,-2413z" style="fill:#f69b2a"/>
    <path class="NecklaceCapeRedBack-Mediumfil2 NecklaceCapeRedBack-Mediumstr2" d="M2979 19025c2533,160 2278,2523 4260,1413 771,-431 2189,-2086 2427,-2628 82,-76 1004,-817 1286,-825 97,-3 1408,590 1977,563 2633,-122 2971,-468 3275,-364 256,88 -6,337 449,377 497,44 850,58 939,190 354,529 1283,4208 -137,6383 -1889,-287 -1219,543 -2327,296 -534,-119 -651,-468 -910,-496 -521,-54 -356,348 -1427,83 -884,-219 -2036,-430 -3373,163 -800,356 -1105,-429 -1681,-539 -220,-42 -837,-86 -464,527 140,230 -1017,19 -1387,-216 -788,-503 -112,-731 -551,-1192 -647,-680 -1171,235 -1825,-318 -224,-188 -259,-534 -168,-1004 205,-1056 75,-2081 -363,-2413z" style="fill:#adbccc"/>
    <path class="NecklaceCapeRedBack-Mediumfil3" d="M4053 22627c2107,-851 2456,-1340 3031,-1778 575,-439 1017,-916 1425,-1527 -443,478 -922,922 -1270,1116 -1982,1110 -1727,-1253 -4260,-1413 438,332 568,1357 363,2413 -91,470 -56,816 168,1004 190,161 369,197 543,185z" style="fill:#cbbf65"/>
    <path class="NecklaceCapeRedBack-Mediumfil4" d="M16149 24181c1964,-1984 402,-4259 138,-6459 61,-12 123,-25 187,-37 458,-119 1029,-66 1118,66 354,529 1283,4208 -137,6383 -744,-113 -1091,-53 -1306,47zm-6958 -5761c473,-529 357,-342 475,-610 82,-76 112,-255 394,-264 31,-1 230,92 486,218 -138,2315 -3115,5673 -3318,5927 -190,88 130,503 0,563 -317,146 -1201,-217 -1342,-302 -417,-252 -429,-440 -408,-627 3110,-1766 3019,-2877 3713,-4905zm1846 -409c174,88 344,176 486,249 -773,1962 -1726,4431 -2105,5920 -587,261 -908,-92 -1264,-342 1852,-2054 2591,-4240 2883,-5827zm1215 431c704,-20 1246,-95 1762,-199 -303,1984 -733,4378 -1095,5804 -41,-9 -83,-19 -128,-30 -540,-133 -1178,-264 -1898,-211 1305,-2498 1470,-4200 1359,-5364zm2549 -379c239,-58 486,-120 755,-183 232,1841 684,4005 -1057,6208 -95,-79 -177,-143 -281,-154 -204,-21 -303,28 -412,79 1232,-2913 1287,-4779 995,-5950z" style="fill:#181809"/>
   </g>
   <g>
    <path class="NecklaceCapeRedBack-Mediumfil13" d="M9651 18259c-377,741 -1253,1968 -2151,2575 -652,440 -2153,1366 -3020,322 -922,-1109 -1802,-1055 -3252,-368 469,-1234 1903,-2437 3397,-1550 509,301 1442,2076 2891,922 761,-606 1418,-1286 1791,-1931l344 30z" style="fill:#83670b"/>
    <path class="NecklaceCapeRedBack-Mediumfil14" d="M9720 18285c-187,373 -504,875 -881,1350 -383,482 -834,948 -1297,1261 -330,223 -875,569 -1451,728 -591,163 -1211,130 -1669,-420 -446,-538 -880,-793 -1375,-831 -502,-38 -1073,144 -1787,482 -37,18 -82,2 -99,-35 -9,-20 -9,-41 -2,-60 63,-165 143,-330 237,-490 285,-480 705,-912 1204,-1169 503,-259 1086,-338 1690,-109 124,47 249,107 373,181 125,74 266,223 431,397 527,555 1311,1380 2376,531 503,-401 953,-821 1306,-1245 167,-201 319,-414 438,-616l164 15c-130,229 -298,469 -487,696 -361,434 -818,861 -1328,1267 -1172,934 -2012,50 -2577,-545 -157,-166 -292,-307 -399,-371 -117,-70 -234,-126 -350,-170 -560,-213 -1101,-138 -1569,102 -472,243 -871,655 -1143,1112 -57,96 -108,194 -153,293 656,-297 1197,-453 1686,-415 537,41 1004,313 1479,884 410,494 974,520 1514,371 554,-152 1085,-490 1407,-707 449,-304 890,-759 1264,-1230 354,-446 653,-915 837,-1271l161 14z" style="fill:#8cf438"/>
   </g>
  </g>
 </g><g id="Tail-Pig5">
  <metadata id="CorelCorpID_8Corel-Layer"/>
  <path class="Tail-Pig5fil35 Tail-Pig5str2" d="M17413 23565c218,-262 160,-652 393,-912 143,-158 260,-202 344,-213 -39,86 -184,294 -149,469 165,-110 230,-270 488,-549 424,-448 953,-579 1517,-407 -344,39 -532,279 -624,449 433,-156 670,-73 1135,-328 -192,581 -936,1134 -1523,1232 237,68 847,-109 927,-148 -552,804 -1215,808 -1590,748 50,23 349,189 248,220 -100,32 -581,166 -920,-30 -30,-10 -81,-26 -111,-13 -743,323 -1682,444 -2553,244 -749,-171 -1237,-595 -1725,-1309 -78,-114 -49,-269 65,-347 114,-77 369,-74 446,39 410,600 691,985 1325,1131 748,172 1553,73 2199,-196 61,-26 60,-23 108,-80z" style="fill:#2cfc3c"/>
  <path class="Tail-Pig5fil10" d="M20474 22184c-635,486 -1128,1066 -2027,1121 543,185 647,136 896,63 -116,-20 -233,-41 -349,-62 0,0 927,-148 1480,-1122z" style="fill:#c95497"/>
  <path class="Tail-Pig5fil10" d="M19811 23240c-398,259 -693,451 -1037,477 -282,22 -516,-50 -794,-24 -161,15 -300,52 -511,168 -142,78 -314,165 -382,172 -125,13 -147,-164 -147,-164l-352 280 79 181 887 -249c0,0 323,102 397,109 75,8 628,-64 628,-64 0,0 -99,-126 -157,-170 -58,-45 355,-27 472,-56 118,-29 677,-214 917,-660z" style="fill:#0549f5"/>
  <path class="Tail-Pig5fil10" d="M19452 22449c0,0 -456,175 -532,317 -77,142 92,-522 357,-668 264,-145 496,-142 496,-142 0,0 -367,304 -321,493z" style="fill:#57ce6b"/>
  <path class="Tail-Pig5fil10" d="M13490 23319c0,0 395,512 678,654 283,143 752,312 752,312 0,0 186,-4 229,-146 43,-143 -129,-251 -146,-291 -18,-39 -214,-97 -334,-172 -120,-75 -403,-334 -476,-506 -72,-172 -948,-387 -703,149z" style="fill:#50d5cb"/>
 </g><g id="RightFoot-Pig2">
  <metadata id="CorelCorpID_12Corel-Layer"/>
  <path class="RightFoot-Pig2fil42" d="M16559 24190c54,65 143,233 173,292 63,268 -151,365 -297,365 -143,0 -686,-98 -894,289 -330,-192 -541,-572 -540,-565 -22,-43 -41,-85 -54,-126 -58,-176 -10,-247 31,-317 479,-107 1078,-83 1581,62z" style="fill:#9689a3"/>
  <path class="RightFoot-Pig2fil38" d="M15011 24496c-3,101 -14,73 -14,176 -5,821 346,600 430,523 11,-11 59,-71 57,-73 -109,-146 -274,-300 -473,-626z" style="fill:#9326c8"/>
  <path class="RightFoot-Pig2fil0 RightFoot-Pig2str2" d="M14995 24537c1,45 2,90 2,135 -5,821 346,600 430,523 4,-4 19,-23 37,-48" style="fill:#16122d"/>
  <path class="RightFoot-Pig2fil43" d="M16755 24466c0,0 -224,-105 -293,-5 -54,78 49,353 -47,353 -106,0 -310,-245 -509,-215 -288,43 -418,429 -385,506 36,82 344,409 764,435 419,26 490,-14 487,-39 -3,-24 42,-150 42,-150 0,0 458,-59 491,-95 100,-109 -467,-691 -550,-790z" style="fill:#b736cf"/>
  <polygon class="RightFoot-Pig2fil40" points="16740,25393 16571,24994 16934,25330 "/>
  <path class="RightFoot-Pig2fil0 RightFoot-Pig2str2" d="M16567 24189c147,241 633,739 718,969 84,231 -492,167 -492,167 0,0 5,189 -122,220 -281,70 -831,-103 -1075,-309 -49,-41 -100,-87 -150,-135" style="fill:#6448ab"/>
  <path class="RightFoot-Pig2fil0 RightFoot-Pig2str2" d="M16567 24189c45,73 121,170 208,277m-1262 697c-342,-311 -707,-789 -548,-1037" style="fill:#37a9fe"/>
  <path class="RightFoot-Pig2fil10" d="M15252 24171c-250,336 427,769 691,965 282,210 555,378 651,406 -46,23 -445,-31 -727,-123 -179,-96 -710,-617 -803,-752 -94,-163 -147,-331 -119,-480 10,-21 22,-40 33,-59 85,-7 193,-3 274,43z" style="fill:#81a548"/>
 </g><g id="LeftFoot-Pig2">
  <metadata id="CorelCorpID_29Corel-Layer"/>
  <path class="LeftFoot-Pig2fil42" d="M10805 24190c-54,65 -143,233 -174,292 -62,268 152,365 298,365 143,0 685,-98 894,289 330,-192 541,-572 540,-565 22,-43 40,-85 54,-126 58,-176 10,-247 -31,-317 -480,-107 -1078,-83 -1581,62z" style="fill:#ea2348"/>
  <path class="LeftFoot-Pig2fil38" d="M12353 24496c3,101 14,73 14,176 5,821 -346,600 -430,523 -12,-11 -59,-71 -57,-73 109,-146 274,-300 473,-626z" style="fill:#74a98c"/>
  <path class="LeftFoot-Pig2fil0 LeftFoot-Pig2str2" d="M12369 24537c-1,45 -2,90 -2,135 5,821 -346,600 -430,523 -4,-4 -19,-23 -37,-48" style="fill:#89e538"/>
  <path class="LeftFoot-Pig2fil57" d="M10608 24466c0,0 225,-105 294,-5 54,78 -49,353 47,353 106,0 309,-245 509,-215 288,43 418,429 384,506 -35,82 -343,409 -763,435 -419,26 -490,-14 -487,-39 3,-24 -42,-150 -42,-150 0,0 -458,-59 -491,-95 -101,-109 467,-691 549,-790z" style="fill:#ce6755"/>
  <polygon class="LeftFoot-Pig2fil40" points="10624,25393 10793,24994 10430,25330 "/>
  <path class="LeftFoot-Pig2fil0 LeftFoot-Pig2str2" d="M10797 24189c-147,241 -633,739 -718,969 -85,231 492,167 492,167 0,0 -5,189 122,220 281,70 831,-103 1075,-309 49,-41 99,-87 150,-135" style="fill:#3c0b03"/>
  <path class="LeftFoot-Pig2fil0 LeftFoot-Pig2str2" d="M10797 24189c-45,73 -121,170 -208,277m1262 697c341,-311 707,-789 548,-1037" style="fill:#b9354f"/>
  <path class="LeftFoot-Pig2fil10" d="M12112 24171c250,336 -428,769 -691,965 -282,210 -555,378 -651,406 45,23 444,-31 727,-123 179,-96 710,-617 803,-752 94,-163 147,-331 119,-480 -10,-21 -22,-40 -33,-59 -85,-7 -193,-3 -274,43z" style="fill:#372404"/>
 </g><g id="RightLeg-Pig3">
  <metadata id="CorelCorpID_25Corel-Layer"/>
  <path class="RightLeg-Pig3fil52" d="M16570 21416c0,0 1181,1189 570,2176 -128,221 -511,470 -581,598 -599,7 -1114,1 -1581,-62 45,-78 82,-155 -44,-376 -113,-198 -400,-446 -1252,-493 0,-147 0,-280 0,-522 373,-788 1598,-1745 2888,-1321z" style="fill:#a3beb8"/>
  <path class="RightLeg-Pig3fil56" d="M16570 21416c0,0 529,518 669,1188 -158,89 -304,-184 -462,-15 -289,308 198,777 512,489 29,195 -129,481 -149,514 -128,221 -511,470 -581,598 -599,44 -1104,27 -1581,-62 32,-56 60,-112 27,-221 -293,-580 341,-911 647,-604 312,315 621,29 740,-361 90,-295 -119,-500 -31,-824 29,-107 104,-434 185,-710 8,3 16,5 24,8z" style="fill:#0ad905"/>
  <path class="RightLeg-Pig3fil10" d="M17192 23421c67,-141 106,-290 107,-439 2,-734 -540,-1374 -869,-1659l-157 688c26,45 52,90 79,136 387,-391 947,832 840,1274z" style="fill:#10a0c4"/>
  <path class="RightLeg-Pig3fil0 RightLeg-Pig3str2" d="M16570 21416c303,324 585,778 689,1246 115,521 25,950 -408,1282 -95,72 -194,144 -284,245m-1602 -63c284,-396 -518,-875 -1283,-867" style="fill:#66148a"/>
  <path class="RightLeg-Pig3fil10" d="M13760 23246c341,-28 1532,124 1607,584 27,166 -52,256 -115,341 -93,-12 -184,-26 -274,-43 40,-70 74,-140 -11,-313 -8,-22 -19,-42 -33,-62l0 -1c-104,-182 -357,-408 -1066,-479 -35,-9 -71,-18 -108,-27z" style="fill:#3494d7"/>
 </g><g id="LeftLeg-Pig3">
  <metadata id="CorelCorpID_42Corel-Layer"/>
  <path class="LeftLeg-Pig3fil62" d="M10794 21416c0,0 -1181,1189 -570,2176 128,221 511,470 581,598 599,7 1114,1 1581,-62 -45,-78 -82,-155 44,-376 113,-198 400,-446 1252,-493 0,-147 0,-280 0,-522 -373,-788 -1598,-1745 -2888,-1321z" style="fill:#39a6fd"/>
  <path class="LeftLeg-Pig3fil66" d="M10794 21416c0,0 -400,403 -614,935 6,268 76,537 226,670 170,152 384,288 353,564 -17,147 -97,219 -398,3 -74,-53 -139,-85 -193,-97 17,34 35,68 56,101 128,221 511,470 581,598 599,44 1104,27 1581,-62 -32,-56 -60,-112 -27,-221 -110,-154 -226,-29 -393,73 -270,165 -717,-153 -775,-366 -126,-455 563,-203 47,-891 -212,-282 -181,-392 -236,-605 -27,-107 -103,-434 -184,-710 -8,3 -16,5 -24,8z" style="fill:#b1e911"/>
  <path class="LeftLeg-Pig3fil10" d="M10172 23421c-67,-141 -106,-290 -107,-439 -2,-734 540,-1374 869,-1659l157 688c-26,45 -53,90 -79,136 -388,-391 -947,832 -840,1274z" style="fill:#7c37c9"/>
  <path class="LeftLeg-Pig3fil0 LeftLeg-Pig3str2" d="M10794 21416c-303,324 -586,778 -689,1246 -115,521 -25,950 408,1282 95,72 193,144 284,245m1602 -63c-284,-396 517,-875 1283,-867" style="fill:#68cae9"/>
  <path class="LeftLeg-Pig3fil10" d="M13604 23246c-341,-28 -1532,124 -1607,584 -27,166 52,256 115,341 93,-12 184,-26 274,-43 -40,-70 -74,-140 11,-313 8,-22 19,-42 33,-62l0 -1c104,-182 357,-408 1066,-479 35,-9 71,-18 108,-27z" style="fill:#ec9637"/>
 </g><g id="RightHand-Pig0">
 <animateTransform additive="sum" attributeName="transform" dur="10" repeatCount="indefinite" type="translate" values="0;0 200;0;0 200;0;0 200;0;0 200;0"/>
  <metadata id="CorelCorpID_44Corel-Layer"/>
  <path class="RightHand-Pig0fil68" d="M16231 17709c1005,345 1816,1398 2255,2162 -88,184 -847,720 -1129,836 -543,-402 -1045,-430 -1469,-362 -742,120 -1353,-1920 -931,-2545 422,-21 934,-40 1274,-91z" style="fill:#58de51"/>
  <path class="RightHand-Pig0fil10" d="M17342 20696c-537,-391 -1034,-418 -1454,-351 -171,28 -335,-59 -481,-217 -325,-472 753,-1098 1039,-656 258,399 723,837 1098,1116 3,2 22,18 34,27l-219 113c-8,-18 -14,-30 -17,-32z" style="fill:#5d2321"/>
  <path class="RightHand-Pig0fil0 RightHand-Pig0str0" d="M16477 20333c179,24 366,81 561,178 100,50 205,104 305,189m1121 -817c-161,-280 -388,-607 -632,-916 -422,-534 -963,-1039 -1601,-1258 -90,-31 -172,-59 -246,-84" style="fill:#680302"/>
 </g><g id="LeftHand-Pig0">
 <animateTransform additive="sum" attributeName="transform" dur="10" repeatCount="indefinite" type="translate" values="0;0 200;0;0 200;0;0 200;0;0 200;0"/>
  <metadata id="CorelCorpID_61Corel-Layer"/>
  <path class="LeftHand-Pig0fil79" d="M11133 17709c-1005,345 -1817,1398 -2255,2162 88,184 847,720 1128,836 544,-402 1046,-430 1470,-362 742,120 1352,-1920 931,-2545 -422,-21 -934,-40 -1274,-91z" style="fill:#3abfd2"/>
  <path class="LeftHand-Pig0fil10" d="M10022 20696c537,-391 1034,-418 1454,-351 171,28 335,-59 481,-217 325,-472 -753,-1098 -1039,-656 -258,399 -723,837 -1098,1116 -3,2 -22,18 -34,27l219 113c8,-18 14,-30 17,-32z" style="fill:#cec4c4"/>
  <path class="LeftHand-Pig0fil0 LeftHand-Pig0str0" d="M10887 20333c-179,24 -366,81 -561,178 -100,50 -205,104 -305,189m-1121 -817c161,-280 388,-607 632,-916 422,-534 963,-1039 1601,-1258 90,-31 171,-59 246,-84" style="fill:#61a03f"/>
 </g><g id="Body-Pig3">
 <animateTransform additive="sum" attributeName="transform" dur="10" repeatCount="indefinite" type="translate" values="0;0 200;0;0 200;0;0 200;0;0 200;0"/>
  <metadata id="CorelCorpID_69Corel-Layer"/>
  <path class="Body-Pig3fil83" d="M13682 23135c-1548,0 -2752,-291 -2993,-1956 -147,-1014 391,-2287 991,-3420 634,80 1289,123 2002,142 713,-19 1367,-62 2002,-142 600,1133 1137,2406 991,3420 -242,1665 -1445,1956 -2993,1956z" style="fill:#809a2a"/>
  <path class="Body-Pig3fil88" d="M13682 18384c804,0 1496,-379 1870,-6 247,245 491,869 403,1012 -42,-23 -128,-96 -224,-122 -187,-50 455,471 324,1006 -145,-116 -451,-255 -271,134 269,580 -520,2316 -2102,2316 -1582,0 -2371,-1736 -2102,-2316 180,-389 -126,-250 -271,-134 -131,-535 511,-1056 324,-1006 -96,26 -182,99 -224,122 -88,-143 156,-767 403,-1012 374,-373 1066,6 1870,6z" style="fill:#5030a7"/>
  <path class="Body-Pig3fil10" d="M12621 23067c-1016,-156 -1749,-629 -1932,-1888 -75,-519 29,-1106 229,-1707 -223,2001 402,3257 1703,3595z" style="fill:#250565"/>
  <path class="Body-Pig3fil84" d="M11012 22144c-250,-321 -348,-641 -397,-954 -59,-377 -24,-998 184,-1320 -78,421 -93,905 -36,1298 50,341 104,572 249,976z" style="fill:#0bf8cf"/>
  <path class="Body-Pig3fil10" d="M14743 23067c1016,-156 1749,-629 1932,-1888 75,-519 -29,-1106 -229,-1707 223,2001 -402,3257 -1703,3595z" style="fill:#84a748"/>
  <path class="Body-Pig3fil84" d="M16352 22144c250,-321 347,-641 397,-954 59,-377 24,-998 -184,-1320 78,421 93,905 36,1298 -50,341 -104,572 -249,976z" style="fill:#68314c"/>
  <path class="Body-Pig3fil30" d="M11940 18740c378,214 257,470 636,711 32,-125 63,-228 90,-287 11,-25 23,-45 34,-58 36,-42 76,-49 119,-18 14,10 26,25 33,43 183,442 378,729 851,846 -24,-58 -46,-126 -59,-199 -23,-122 -14,-273 22,-406 11,-40 34,-68 74,-57 95,29 169,94 227,175 37,51 63,110 76,174 66,-26 142,-91 214,-174 123,-139 228,-324 265,-463 18,-69 92,-88 139,-22 3,-2 21,40 22,43 14,39 36,106 43,200 245,-109 377,-295 505,-488 -50,409 -327,589 -549,670 -49,19 -103,-18 -102,-71 0,-27 0,-52 -1,-76 -56,107 -129,215 -209,306 -124,142 -268,243 -397,237 -41,-2 -55,-30 -54,-71 1,-64 -38,-130 -73,-179 -19,-26 -40,-48 -64,-65 -11,82 -5,165 9,241 19,163 104,275 130,326 24,50 -35,92 -81,83 -573,-121 -817,-300 -1070,-846 -23,72 -49,169 -75,279 -2,9 -5,18 -11,26 -22,35 -69,44 -103,20 -517,-303 -370,-529 -641,-900z" style="fill:#f634d1"/>
 </g><g id="WeaponBflyKnifeBack-Medium">
 <animateTransform additive="sum" attributeName="transform" dur="10" repeatCount="indefinite" type="translate" values="0;0 200;0;0 200;0;0 200;0;0 200;0"/>
  <metadata id="CorelCorpID_12Corel-Layer"/>
  <g id="_2367108374560">
   <polygon class="WeaponBflyKnifeBack-Mediumfil23 WeaponBflyKnifeBack-Mediumstr0" points="7757,19914 7140,20628 7039,20538 7640,19818 "/>
   <path class="WeaponBflyKnifeBack-Mediumfil24 WeaponBflyKnifeBack-Mediumstr1" d="M10019 22352c-840,-780 -1681,-1559 -2521,-2338 -51,-49 220,-331 265,-285l2440 2424c52,52 58,136 7,192 -50,54 -137,57 -191,7zm-112 130c-840,-779 -1681,-1559 -2521,-2338 -52,-47 -313,244 -264,285l2601 2252c55,48 140,48 191,-8 51,-54 47,-140 -7,-191z" style="fill:#157004"/>
   <circle class="WeaponBflyKnifeBack-Mediumfil23" r="48" transform="matrix(2.80864 0.290914 -0.290914 2.80864 7664.33 19898.6)"/>
   <path class="WeaponBflyKnifeBack-Mediumfil25" d="M7670 19842c31,3 54,31 51,62 -3,32 -31,54 -63,51 -31,-3 -53,-31 -50,-62 3,-31 31,-54 62,-51z" style="fill:#ddbd4f"/>
  </g>
 </g><g id="NecklaceCapeRed-Medium">
  <animateTransform additive="sum" attributeName="transform" dur="10" repeatCount="indefinite" type="translate" values="0;0 200;0;0 200;0;0 200;0;0 200;0"/>
  <metadata id="CorelCorpID_3Corel-Layer"/>
  <g id="_1834097537024">
   <path class="NecklaceCapeRed-Mediumfil15 NecklaceCapeRed-Mediumstr0" d="M12255 18362c975,116 2758,-1179 4054,-1285 300,-24 456,257 674,315 232,63 654,221 624,464 -438,-98 -549,-97 -1111,224 -1286,735 -2757,853 -4231,496 -1,-30 -17,-118 -10,-214z" style="fill:#a7251a"/>
   <path class="NecklaceCapeRed-Mediumfil16" d="M11771 18438c-606,-187 -811,-311 -1134,-548 -125,-91 -689,-385 -858,76 -34,92 -71,180 -132,302l-344 -33c100,-174 169,-325 228,-498 122,-357 425,-349 681,-554 197,-158 585,-234 740,-198 909,209 929,642 991,1400l0 0c-47,17 -108,35 -172,53z" style="fill:#b782c6"/>
   <path class="NecklaceCapeRed-Mediumfil14" d="M11749 18510c-307,-95 -513,-175 -685,-261 -172,-86 -307,-178 -471,-299 -38,-27 -122,-76 -223,-113 -85,-31 -180,-54 -267,-48 -79,6 -152,36 -205,108 -19,26 -35,57 -49,94 -32,88 -78,191 -135,304l-160 -14c66,-129 119,-244 154,-341 19,-51 42,-95 69,-131 83,-113 196,-160 316,-169 111,-8 227,19 328,56 116,43 215,100 260,134 159,116 288,204 450,286 160,80 354,155 641,244 25,-7 50,-14 74,-21l18 -6c-56,-688 -96,-1084 -928,-1275 -73,-17 -209,-4 -350,34 -123,33 -245,83 -327,149 -95,76 -192,123 -284,168 -158,76 -303,147 -373,352 -57,168 -135,336 -230,504l-165 -14c107,-180 192,-360 253,-538 90,-265 263,-348 449,-439 87,-42 176,-85 257,-149 100,-81 242,-141 381,-178 163,-44 328,-57 422,-35 948,218 983,660 1046,1430l3 34c1,8 0,17 -2,26 -3,16 -12,30 -25,41l0 0 0 0c-8,6 -16,11 -26,14 -23,8 -48,16 -75,24 -31,10 -65,20 -99,29 -15,4 -29,4 -42,0z" style="fill:#8d41b2"/>
   <ellipse class="NecklaceCapeRed-Mediumfil17 NecklaceCapeRed-Mediumstr1" cx="11884" cy="18448" rx="437" ry="424"/>
   <ellipse class="NecklaceCapeRed-Mediumfil18 NecklaceCapeRed-Mediumstr1" cx="12643" cy="18527" rx="290" ry="282"/>
   <path class="NecklaceCapeRed-Mediumfil10" d="M11884 18872c178,0 331,-104 399,-252 -72,62 -166,99 -270,99 -226,0 -409,-178 -409,-398 0,-99 37,-189 98,-259 -150,67 -254,215 -254,386 0,234 195,424 436,424z" style="fill:#bd2f28"/>
   <path class="NecklaceCapeRed-Mediumfil10" d="M12672 18785c120,0 224,-70 270,-170 -49,42 -113,67 -183,67 -152,0 -276,-120 -276,-269 0,-67 25,-128 66,-175 -101,46 -172,145 -172,261 0,158 132,286 295,286z" style="fill:#2dc610"/>
   <path class="NecklaceCapeRed-Mediumfil11" d="M12146 18644c43,-55 69,-122 69,-196 0,-177 -148,-321 -331,-321 -81,0 -155,28 -212,75 34,-10 71,-16 109,-16 208,0 377,164 377,367 0,31 -4,62 -12,91z" style="fill:#4863df"/>
   <path class="NecklaceCapeRed-Mediumfil11" d="M12792 18625c24,-29 37,-66 37,-106 0,-96 -80,-173 -178,-173 -44,0 -84,15 -115,40 19,-5 38,-8 59,-8 112,0 204,88 204,198 0,17 -3,33 -7,49z" style="fill:#530454"/>
  </g>
 </g><g id="RightPaw-Pig3">
 <animateTransform additive="sum" attributeName="transform" dur="10" repeatCount="indefinite" type="translate" values="0;0 200;0;0 200;0;0 200;0;0 200;0"/>
  <metadata id="CorelCorpID_52Corel-Layer"/>
  <path class="RightPaw-Pig3fil74" d="M18486 19871c155,269 247,281 434,498 211,244 446,948 341,1067 -34,39 -389,8 -389,8 -15,58 -145,373 -188,392 -161,73 -598,-324 -814,-554 -63,111 -195,178 -216,147 -79,-27 -146,-195 -211,-374 -34,-92 -45,-318 -86,-348 139,-387 621,-775 1129,-836z" style="fill:#92c8f7"/>
  <path class="RightPaw-Pig3fil10" d="M17452 20518c31,24 62,48 92,70 4,3 39,31 43,34 13,14 26,28 39,43 79,93 97,228 104,283 2,13 3,21 4,24 -2,92 -166,169 -227,208 0,-8 -67,-223 -116,-364 0,-31 3,-54 -7,-90 -9,-6 -18,-13 -27,-19 23,-64 55,-127 95,-189z" style="fill:#df6e5c"/>
  <path class="RightPaw-Pig3fil77" d="M18910 20358c-402,-76 -337,407 -242,635 -239,-309 -538,-414 -692,-297 -104,79 -113,131 -203,226 -99,104 -339,-108 -394,-184 -18,147 139,645 275,691 21,31 153,-36 216,-147 216,230 653,627 814,554 43,-19 173,-334 188,-392 0,0 355,31 389,-8 109,-123 -135,-862 -351,-1078z" style="fill:#f98341"/>
  <path class="RightPaw-Pig3fil10" d="M18804 21498c-67,307 -352,47 -875,-255 4,66 -100,45 -131,-12 -41,-92 -52,-190 -68,-283 -88,22 -225,-79 -303,-156 -5,-5 -11,-11 -16,-16 49,174 144,541 243,653 90,2 173,-73 216,-147 195,208 586,566 808,522 90,-18 70,-138 126,-306z" style="fill:#c543fe"/>
  <polygon class="RightPaw-Pig3fil40" points="18796,21484 18678,21021 18973,21393 "/>
  <path class="RightPaw-Pig3fil0 RightPaw-Pig3str2" d="M17136 20561c121,75 170,94 271,202 1,149 38,330 93,461 54,128 115,197 196,208 55,8 128,-6 194,-123 208,221 642,571 796,501 41,-19 164,-344 179,-400 0,0 356,75 389,38 86,-99 -94,-785 -280,-992 -109,-122 -404,-420 -409,-427 -68,-85 -123,-182 -179,-276" style="fill:#9e8a96"/>
 </g><g id="LeftPaw-Pig3">
 <animateTransform additive="sum" attributeName="transform" dur="10" repeatCount="indefinite" type="translate" values="0;0 200;0;0 200;0;0 200;0;0 200;0"/>
  <metadata id="CorelCorpID_74Corel-Layer"/>
  <path class="LeftPaw-Pig3fil91" d="M8878 19871c-155,269 -247,281 -434,498 -211,244 -446,948 -341,1067 34,39 388,8 388,8 16,58 146,373 189,392 161,73 598,-324 814,-554 63,111 195,178 216,147 79,-27 146,-195 211,-374 34,-92 45,-318 85,-348 -138,-387 -621,-775 -1128,-836z" style="fill:#f0f489"/>
  <path class="LeftPaw-Pig3fil10" d="M9912 20518c-31,24 -62,48 -92,70 -4,3 -39,31 -43,34 -14,14 -27,28 -39,43 -79,93 -97,228 -104,283 -2,13 -3,21 -4,24 2,92 166,169 226,208 0,-8 68,-223 117,-364 -1,-31 -3,-54 7,-90 9,-6 18,-13 26,-19 -22,-64 -54,-127 -94,-189z" style="fill:#2ca7c1"/>
  <path class="LeftPaw-Pig3fil94" d="M8454 20358c401,-76 337,407 242,635 239,-309 538,-414 692,-297 104,79 113,131 203,226 99,104 339,-108 394,-184 18,147 -140,645 -275,691 -21,31 -153,-36 -216,-147 -216,230 -653,627 -814,554 -43,-19 -173,-334 -189,-392 0,0 -354,31 -388,-8 -109,-123 135,-862 351,-1078z" style="fill:#0c294c"/>
  <path class="LeftPaw-Pig3fil10" d="M8560 21498c67,307 352,47 875,-255 -5,66 100,45 131,-12 40,-92 52,-190 68,-283 88,22 225,-79 303,-156 5,-5 11,-11 16,-16 -49,174 -144,541 -243,653 -90,2 -173,-73 -216,-147 -196,208 -586,566 -808,522 -90,-18 -70,-138 -126,-306z" style="fill:#028000"/>
  <polygon class="LeftPaw-Pig3fil40" points="8568,21484 8686,21021 8391,21393 "/>
  <path class="LeftPaw-Pig3fil0 LeftPaw-Pig3str2" d="M10228 20561c-121,75 -170,94 -272,202 0,149 -37,330 -92,461 -55,128 -115,197 -196,208 -55,8 -128,-6 -194,-123 -208,221 -642,571 -797,501 -41,-19 -163,-344 -178,-400 0,0 -356,75 -389,38 -86,-99 94,-785 280,-992 109,-122 404,-420 409,-427 68,-85 123,-182 179,-276" style="fill:#a1ef34"/>
 </g><g id="BraceletLeather-Medium">
 <animateTransform additive="sum" attributeName="transform" dur="10" repeatCount="indefinite" type="translate" values="0;0 200;0;0 200;0;0 200;0;0 200;0"/>
  <metadata id="CorelCorpID_17Corel-Layer"/>
  <path class="BraceletLeather-Mediumfil42new BraceletLeather-Mediumstr3new" d="M8689 19690c-86,-160 -115,-250 -201,-410 -29,-75 3,-239 44,-232 104,3 219,4 324,-2 3,181 43,415 96,612 -87,11 -175,21 -263,32z" style="fill:#c2a4be"/>
  <path class="BraceletLeather-Mediumfil43new" d="M8689 19690c-86,-160 -115,-250 -201,-410 -29,-75 3,-239 44,-232l8 0c53,219 164,421 282,626l-133 16z" style="fill:#193b3b"/>
  <path class="BraceletLeather-Mediumfil33new BraceletLeather-Mediumstr3new" d="M8689 19690c-86,-160 -115,-250 -201,-410 -29,-75 3,-239 44,-232 104,3 219,4 324,-2 3,181 43,415 96,612 -87,11 -175,21 -263,32z" style="fill:#18df47"/>
  <path class="BraceletLeather-Mediumfil44new BraceletLeather-Mediumstr3new" d="M8645 19884c-170,-64 -251,-113 -421,-177 -71,-38 -153,-183 -118,-204 81,-66 168,-141 243,-214 121,135 304,285 474,399 -59,66 -118,131 -178,196z" style="fill:#2ea6c7"/>
  <path class="BraceletLeather-Mediumfil43new" d="M8645 19884c-170,-64 -251,-113 -421,-177 -71,-38 -153,-183 -118,-204l6 -5c184,130 400,211 623,288l-90 98z" style="fill:#78e33d"/>
  <path class="BraceletLeather-Mediumfil33new BraceletLeather-Mediumstr3new" d="M8645 19884c-170,-64 -251,-113 -421,-177 -71,-38 -153,-183 -118,-204 81,-66 168,-141 243,-214 121,135 304,285 474,399 -59,66 -118,131 -178,196z" style="fill:#281f0f"/>
  <path class="BraceletLeather-Mediumfil45new BraceletLeather-Mediumstr4new" d="M8734 19936c-151,-67 -255,-143 -151,-272 117,-147 267,-135 481,-33 407,194 958,608 1165,923 91,139 91,306 -39,409 -129,103 -210,-20 -308,-153 -243,-331 -765,-704 -1148,-874z" style="fill:#a4a22c"/>
  <path class="BraceletLeather-Mediumfil46new" d="M8734 19936c-79,-35 -145,-73 -176,-119 77,-41 167,-29 240,0 506,201 953,539 1254,974 48,70 58,140 38,210 -76,-6 -138,-95 -208,-191 -243,-331 -765,-704 -1148,-874z" style="fill:#5a1e74"/>
  <path class="BraceletLeather-Mediumfil47new BraceletLeather-Mediumstr4new" d="M8734 19936c-151,-67 -255,-143 -151,-272 117,-147 267,-135 481,-33 407,194 958,608 1165,923 91,139 91,306 -39,409 -129,103 -210,-20 -308,-153 -243,-331 -765,-704 -1148,-874z" style="fill:#4b9304"/>
  <path class="BraceletLeather-Mediumfil48new BraceletLeather-Mediumstr3new" d="M18674 19690c87,-160 116,-250 202,-410 29,-75 -3,-239 -44,-232 -104,3 -219,4 -324,-2 -3,181 -43,415 -97,612 88,11 176,21 263,32z" style="fill:#984df3"/>
  <path class="BraceletLeather-Mediumfil43new" d="M18674 19690c87,-160 116,-250 202,-410 29,-75 -3,-239 -44,-232l-8 0c-53,219 -164,421 -282,626l132 16z" style="fill:#4a4aa4"/>
  <path class="BraceletLeather-Mediumfil33new BraceletLeather-Mediumstr3new" d="M18674 19690c87,-160 116,-250 202,-410 29,-75 -3,-239 -44,-232 -104,3 -219,4 -324,-2 -3,181 -43,415 -97,612 88,11 176,21 263,32z" style="fill:#fd894e"/>
  <path class="BraceletLeather-Mediumfil49new BraceletLeather-Mediumstr3new" d="M18718 19884c170,-64 252,-113 422,-177 71,-38 153,-183 118,-204 -81,-66 -168,-141 -243,-214 -121,135 -305,285 -475,399 60,66 119,131 178,196z" style="fill:#abf05a"/>
  <path class="BraceletLeather-Mediumfil43new" d="M18718 19884c170,-64 252,-113 422,-177 71,-38 153,-183 118,-204l-6 -5c-184,130 -400,211 -623,288l89 98z" style="fill:#be9f4c"/>
  <path class="BraceletLeather-Mediumfil33new BraceletLeather-Mediumstr3new" d="M18718 19884c170,-64 252,-113 422,-177 71,-38 153,-183 118,-204 -81,-66 -168,-141 -243,-214 -121,135 -305,285 -475,399 60,66 119,131 178,196z" style="fill:#091934"/>
  <path class="BraceletLeather-Mediumfil50new BraceletLeather-Mediumstr4new" d="M18630 19936c151,-67 255,-143 151,-272 -117,-147 -267,-135 -481,-33 -407,194 -958,608 -1165,923 -91,139 -91,306 39,409 129,103 210,-20 307,-153 244,-331 766,-704 1149,-874z" style="fill:#da4155"/>
  <path class="BraceletLeather-Mediumfil46new" d="M18630 19936c79,-35 145,-73 175,-119 -76,-41 -166,-29 -239,0 -507,201 -954,539 -1254,974 -48,70 -58,140 -38,210 76,-6 137,-95 207,-191 244,-331 766,-704 1149,-874z" style="fill:#a8ff93"/>
  <path class="BraceletLeather-Mediumfil47new BraceletLeather-Mediumstr4new" d="M18630 19936c151,-67 255,-143 151,-272 -117,-147 -267,-135 -481,-33 -407,194 -958,608 -1165,923 -91,139 -91,306 39,409 129,103 210,-20 307,-153 244,-331 766,-704 1149,-874z" style="fill:#ee97cb"/>
 </g><g id="Head-Pig0">
 <animateTransform additive="sum" attributeName="transform" dur="10" repeatCount="indefinite" type="translate" values="0;0 200;0;0 200;0;0 200;0;0 200;0"/>
  <metadata id="CorelCorpID_95Corel-Layer"/>
  <path class="Head-Pig0fil160" d="M10090 8967c-564,472 -965,1039 -1323,1636 -28,46 -55,102 -82,149 -105,179 -200,391 -302,573 -611,1185 -1006,1397 -934,2868 118,2421 2509,3357 4628,3643 571,77 1124,101 1605,101 481,0 1034,-24 1605,-101 2119,-286 4510,-1222 4628,-3643 72,-1471 -323,-1683 -934,-2868 -102,-182 -198,-394 -302,-573 -28,-47 -54,-103 -82,-149 -358,-597 -759,-1164 -1324,-1636 -1249,-1046 -2354,-1447 -3590,-1474l-1 0 -1 0c-1236,27 -2341,428 -3591,1474z" style="fill:#b2139a"/>
  <path class="Head-Pig0fil10" d="M8595 11042c-473,768 -891,1422 -1070,2009 -158,520 -73,1353 39,1856 421,1891 2663,2792 5075,2988 -2326,-552 -4001,-1593 -4496,-3087 -323,-975 -154,-2267 452,-3766z" style="fill:#6c6a15"/>
  <path class="Head-Pig0fil84" d="M9861 9172c974,-1177 2398,-1757 3821,-1747 1423,-10 2847,570 3821,1747 -1223,-1081 -2522,-1612 -3821,-1603 -1299,-9 -2598,522 -3821,1603z" style="fill:#7f3fe7"/>
  <path class="Head-Pig0fil84" d="M8768 10601c-179,508 -382,903 -718,1463 -406,679 -582,1421 -536,2131 131,1999 1755,2951 3508,3372 210,51 827,205 1390,308 -522,-14 -1257,-122 -1418,-161 -1810,-434 -3533,-1443 -3636,-3515 -36,-724 131,-1489 564,-2211 314,-524 479,-741 846,-1387z" style="fill:#6aafa3"/>
  <path class="Head-Pig0fil84" d="M18596 10601c179,508 382,903 717,1463 407,679 583,1421 537,2131 -131,1999 -1755,2951 -3508,3372 -210,51 -828,205 -1390,308 522,-14 1257,-122 1418,-161 1810,-434 3533,-1443 3636,-3515 36,-724 -131,-1489 -564,-2211 -314,-524 -479,-741 -846,-1387z" style="fill:#b5090a"/>
 </g><g id="Mouth-Pig9">
 <animateTransform additive="sum" attributeName="transform" dur="10" repeatCount="indefinite" type="translate" values="0;0 200;0;0 200;0;0 200;0;0 200;0"/>
  <metadata id="CorelCorpID_112Corel-Layer"/>
  <g id="_2991504387984">
   <path class="Mouth-Pig9fil169" d="M13682 14528l0 0 -19 0 0 0c-49,280 -711,846 -1338,945 94,16 142,65 229,85 236,53 188,104 300,255 159,213 462,323 828,323 366,0 669,-110 827,-323 113,-151 65,-202 301,-255 87,-20 135,-69 229,-85 -627,-99 -1289,-665 -1338,-945l0 0 -19 0 0 0z" style="fill:#1650fb"/>
   <path class="Mouth-Pig9fil171" d="M14288 15803c-116,-149 -458,-167 -606,-58 -148,-109 -490,-91 -606,58 49,116 325,196 606,196 281,0 557,-80 606,-196z" style="fill:#b106f0"/>
   <path class="Mouth-Pig9fil0 Mouth-Pig9str0" d="M15746 14918c-428,702 -1127,637 -2064,447" style="fill:#550a60"/>
   <path class="Mouth-Pig9fil0 Mouth-Pig9str0" d="M11618 14918c428,702 1127,637 2064,447" style="fill:#043468"/>
   <path class="Mouth-Pig9fil170" d="M12869 16351c200,48 492,140 813,140 321,0 613,-92 813,-140 -209,195 -496,315 -813,315 -317,0 -604,-120 -813,-315z" style="fill:#4ec4b0"/>
   <path class="Mouth-Pig9fil169" d="M15654 14932c-27,44 19,102 -7,178 -3,10 161,-144 171,-141 88,20 351,21 212,-60 -84,-49 -171,-78 -226,-163 -72,-111 -116,131 -150,186z" style="fill:#b32acb"/>
   <path class="Mouth-Pig9fil169" d="M11710 14932c27,44 -19,102 7,178 3,10 -161,-144 -172,-141 -87,20 -350,21 -212,-60 85,-49 172,-78 227,-163 72,-111 115,131 150,186z" style="fill:#4ee9f1"/>
  </g>
 </g><g id="EyesClosed-Pig0">
  <metadata id="CorelCorpID_116Corel-Layer"/>
  <g id="_2991504376080">
   <path class="EyesClosed-Pig0fil38" d="M9936 10608c98,33 423,-223 837,-336 380,-104 707,-22 812,-183 118,-179 -71,-512 -259,-585 -155,-60 -555,31 -906,314 -414,334 -603,751 -484,790z"/>
   <path class="EyesClosed-Pig0fil10" d="M9936 10608c98,33 423,-223 837,-336 380,-104 707,-22 812,-183 118,-179 -71,-512 -259,-585 -155,-60 -555,31 -906,314 -414,334 -603,751 -484,790z"/>
  </g>
  <g id="_2991504372496">
   <path class="EyesClosed-Pig0fil38" d="M17428 10608c-98,33 -423,-223 -837,-336 -380,-104 -707,-22 -812,-183 -118,-179 71,-512 259,-585 154,-60 555,31 906,314 414,334 602,751 484,790z"/>
   <path class="EyesClosed-Pig0fil10" d="M17428 10608c-98,33 -423,-223 -837,-336 -380,-104 -707,-22 -812,-183 -118,-179 71,-512 259,-585 154,-60 555,31 906,314 414,334 602,751 484,790z"/>
  </g>
  <path class="EyesClosed-Pig0fil84" d="M15370 13572c-66,-26 -53,-97 11,-92 811,59 1538,148 2281,-105 308,-106 583,-256 757,-387 49,-37 84,-70 115,-57 95,42 -8,180 -38,228 -257,411 -800,681 -1486,686 -482,4 -1055,-144 -1640,-273z"/>
  <path class="EyesClosed-Pig0fil84" d="M11994 13572c66,-26 53,-97 -11,-92 -811,59 -1538,148 -2281,-105 -308,-106 -583,-256 -757,-387 -49,-37 -84,-70 -115,-57 -95,42 8,180 38,228 257,411 799,681 1486,686 482,4 1055,-144 1640,-273z"/>
 </g><g id="WeaponBflyKnife-Medium">
 <animateTransform additive="sum" attributeName="transform" dur="10" repeatCount="indefinite" type="translate" values="0;0 200;0;0 200;0;0 200;0;0 200;0"/>
  <metadata id="CorelCorpID_13Corel-Layer"/>
  <g id="_2367108372160">
   <path class="WeaponBflyKnife-Mediumfil26" d="M10287 22272c448,417 929,879 1419,1239 163,402 550,947 822,1278 -738,-147 -1774,-1376 -2691,-2032 -252,16 -71,-379 -5,-451 69,-73 494,-286 455,-34z" style="fill:#e3d602"/>
   <path class="WeaponBflyKnife-Mediumfil27" d="M12426 24769c-672,-203 -1550,-1201 -2374,-1850 48,-124 213,-343 273,-285 614,569 1181,1071 2101,2135z" style="fill:#100cf3"/>
   <path class="WeaponBflyKnife-Mediumfil14 WeaponBflyKnife-Mediumstr0" d="M10287 22272c448,417 929,879 1419,1239 163,402 550,947 822,1278 -738,-147 -1774,-1376 -2691,-2032 -252,16 -71,-379 -5,-451 69,-73 494,-286 455,-34z" style="fill:#9989d0"/>
   <path class="WeaponBflyKnife-Mediumfil28" d="M10019 22352l-576 -535 191 -229 569 565c52,52 58,136 7,192 -50,54 -137,57 -191,7zm-686 -403l-191 229 581 503c55,48 140,48 191,-8 51,-54 47,-140 -7,-191l-574 -533z" style="fill:#4ddf36"/>
   <path class="WeaponBflyKnife-Mediumfil14 WeaponBflyKnife-Mediumstr0" d="M10019 22352l-576 -535m191 -229l569 565c52,52 58,136 7,192 -50,54 -137,57 -191,7m-877 -174l581 503c55,48 140,48 191,-8 51,-54 47,-140 -7,-191l-574 -533" style="fill:#7c7d67"/>
   <circle class="WeaponBflyKnife-Mediumfil23" r="48" transform="matrix(3.41378 0.353594 -0.353594 3.41378 10109.9 22253.4)"/>
   <path class="WeaponBflyKnife-Mediumfil29" d="M10117 22185c38,4 65,38 62,75 -4,38 -38,66 -76,62 -38,-4 -66,-38 -62,-76 4,-38 38,-65 76,-61z" style="fill:#586ebc"/>
   <circle class="WeaponBflyKnife-Mediumfil23" r="48" transform="matrix(3.41378 0.353594 -0.353594 3.41378 9810.11 22577.8)"/>
   <path class="WeaponBflyKnife-Mediumfil30" d="M9817 22509c38,4 66,38 62,76 -4,38 -38,65 -76,61 -38,-4 -65,-37 -61,-75 3,-38 37,-66 75,-62z" style="fill:#e0be86"/>
   <path class="WeaponBflyKnife-Mediumfil31" d="M9964 22155c-139,-176 -279,-353 -418,-529 160,158 320,315 480,473 -26,18 -48,37 -62,56z" style="fill:#6f85d1"/>
   <path class="WeaponBflyKnife-Mediumfil31" d="M9652 22477c-145,-172 -291,-344 -436,-515 165,152 331,304 496,456 -25,19 -46,39 -60,59z" style="fill:#e7c173"/>
  </g>
 </g><g id="Eyes-Pig0">
 <animate attributeName="opacity" dur="10" repeatCount="indefinite" values="0;1;1;1;1;1;1;1;1;1;1;1;1;1;1;1;1;1;1;1;1;1;1;1;1;1;1;1;1;1;1;1;1;1;1;1;1;1;1;1;1;1;1;1;1;1;1;1;1;1;1;1;1;1;1;1;1;1;1;1;1;1;1;1;1;1;1;1;1;1;1;1;1;1;1;1;1;1;1;1;1;1;1;1;0;0"/>
 <animateTransform additive="sum" attributeName="transform" dur="10" repeatCount="indefinite" type="translate" values="0;0 200;0;0 200;0;0 200;0;0 200;0"/>
  <metadata id="CorelCorpID_117Corel-Layer"/>
  <g id="_2991504438160">
   <path class="Eyes-Pig0fil174" d="M17282 14381c-563,1 -1296,-400 -1652,-607 -410,-238 -385,-734 -230,-1292 194,-698 672,-1448 1686,-1417 221,6 434,102 606,218 305,205 650,864 794,1463 202,835 15,1633 -1204,1635z"/>
   <path class="Eyes-Pig0fil148" d="M15363 13387c-190,-829 360,-2137 1264,-2265 609,-86 914,-49 1307,418 322,381 572,1119 611,1539 -356,-962 -1323,-1597 -1979,-1534 -835,79 -1188,884 -1203,1842z"/>
   <path class="Eyes-Pig0fil175" d="M17571 14383c-633,57 -1241,-207 -1701,-474 -155,-90 -377,-135 -451,-334 302,-140 397,-428 502,-707 440,8 880,16 1320,25 693,422 926,832 1030,1239 -124,136 -501,232 -700,251z"/>
   <circle class="Eyes-Pig0fil173" r="235" transform="matrix(-1.05455 -0.156917 -0.122712 0.972902 17815.2 13835.5)"/>
   <circle class="Eyes-Pig0fil173" r="235" transform="matrix(-0.528618 -0.0219485 0.0170794 0.468369 18011.9 13287.5)"/>
   <path class="Eyes-Pig0fil176" d="M16916 11510c-549,-164 -1099,173 -1230,751 -130,579 209,1181 758,1345 549,163 1100,-173 1230,-751 130,-579 -209,-1181 -758,-1345z"/>
   <path class="Eyes-Pig0fil173" d="M16338 11820c533,42 786,1263 12,1213 -797,-51 -589,-1258 -12,-1213z"/>
   <path class="Eyes-Pig0fil0 Eyes-Pig0str0" d="M15337 13246c0,0 -1,386 293,528 116,57 322,154 541,254 366,168 697,356 1111,353 339,-2 849,-77 1083,-417 326,-473 185,-845 6,-1515 -359,-1339 -1627,-1973 -2582,-790 -344,426 -487,1020 -452,1587z"/>
  </g>
  <g id="_2991504436752">
   <path class="Eyes-Pig0fil177" d="M10082 14381c563,1 1296,-400 1652,-607 410,-238 385,-734 230,-1292 -194,-698 -672,-1448 -1686,-1417 -221,6 -434,102 -606,218 -305,205 -650,864 -794,1463 -202,835 -15,1633 1204,1635z"/>
   <path class="Eyes-Pig0fil148" d="M12001 13387c190,-829 -360,-2137 -1264,-2265 -609,-86 -914,-49 -1308,418 -321,381 -571,1119 -610,1539 355,-962 1323,-1597 1979,-1534 834,79 1188,884 1203,1842z"/>
   <path class="Eyes-Pig0fil178" d="M9793 14383c633,57 1241,-207 1701,-474 155,-90 377,-135 451,-334 -302,-140 -397,-428 -502,-707 -440,8 -880,16 -1320,25 -693,422 -926,832 -1030,1239 124,136 501,232 700,251z"/>
   <circle class="Eyes-Pig0fil173" r="235" transform="matrix(1.05455 -0.156917 0.122712 0.972902 9548.64 13835.5)"/>
   <circle class="Eyes-Pig0fil173" r="235" transform="matrix(0.528618 -0.0219485 -0.0170794 0.468369 9352 13287.5)"/>
   <path class="Eyes-Pig0fil179" d="M10448 11510c549,-164 1099,173 1230,751 130,579 -210,1181 -758,1345 -549,163 -1100,-173 -1230,-751 -130,-579 209,-1181 758,-1345z"/>
   <path class="Eyes-Pig0fil173" d="M11026 11820c-533,42 -786,1263 -12,1213 797,-51 589,-1258 12,-1213z"/>
   <path class="Eyes-Pig0fil0 Eyes-Pig0str0" d="M12027 13246c0,0 1,386 -293,528 -116,57 -322,154 -541,254 -367,168 -697,356 -1111,353 -339,-2 -849,-77 -1083,-417 -326,-473 -185,-845 -6,-1515 359,-1339 1626,-1973 2582,-790 344,426 487,1020 452,1587z"/>
  </g>
 </g><g id="Moustache-Pig3">
 <animateTransform additive="sum" attributeName="transform" dur="10" repeatCount="indefinite" type="translate" values="0;0 200;0;0 200;0;0 200;0;0 200;0"/>
  <metadata id="CorelCorpID_139Corel-Layer"/>
  <path class="Moustache-Pig3fil234" d="M10904 16360c18,1 82,389 307,458 92,29 54,-287 160,-188 51,48 159,299 235,358 60,46 84,-101 155,-52 444,308 1055,622 1284,416 233,-209 -273,-240 56,-316 17,-4 119,84 169,76 56,-9 70,-173 129,-148 183,77 245,-10 283,-10 38,0 100,87 283,10 59,-25 73,139 129,148 50,8 152,-80 169,-76 329,76 -177,107 55,316 229,206 841,-108 1285,-416 71,-49 95,98 155,52 76,-59 184,-310 234,-358 107,-99 69,217 161,188 225,-69 289,-457 306,-458 428,508 -378,1121 -737,1290 -307,145 -866,312 -1200,421 -5,-42 1,-166 24,-183 -356,117 -586,377 -694,392 16,-65 -123,-279 -170,-360 -47,81 -166,223 -151,288 -107,-15 -357,-203 -713,-320 23,17 29,141 24,183 -334,-109 -893,-276 -1200,-421 -360,-169 -1165,-782 -738,-1290z" style="fill:#5cdbe8"/>
  <path class="Moustache-Pig3fil84" d="M16389 17131c-259,461 -1484,895 -1627,941 -67,21 -129,41 -217,70 -39,13 -81,-9 -94,-48 -2,-6 -3,-13 -3,-19 -2,-17 -3,-42 -2,-68 -146,67 -267,154 -361,222 -92,66 -161,116 -223,125 -41,5 -69,-23 -74,-64 -9,-67 -75,-173 -109,-229 -44,64 -108,193 -133,220 -9,2 -16,2 -24,1 -61,-9 -140,-50 -243,-105 -98,-52 -220,-117 -362,-174 2,31 1,60 -1,77 -6,41 -43,70 -84,65 -5,-1 -9,-2 -14,-3 -87,-29 -149,-49 -216,-70 -146,-46 -1177,-386 -1578,-883 645,474 1437,681 1623,741l118 37 25 5c-2,-13 -14,-20 -16,-24 -26,-19 -37,-52 -27,-84 13,-39 55,-61 95,-48 207,69 378,159 507,228 50,27 94,50 128,66 22,-50 57,-102 90,-150l2 -4c19,-28 37,-55 48,-73 6,-11 16,-21 28,-28 35,-21 81,-8 102,27 5,9 16,27 28,48 41,68 97,162 129,244 26,-17 58,-40 93,-66 128,-93 302,-218 525,-292l0 1c29,-10 62,-1 82,24 26,33 20,80 -12,105 -20,16 -16,22 7,21l118 -37c190,-61 1329,-427 1672,-799z" style="fill:#f97a12"/>
  <path class="Moustache-Pig3fil10" d="M11851 17651c0,0 682,180 719,180 37,0 -109,-185 -109,-185 0,0 467,94 605,125 137,32 15,-244 86,-407 111,316 213,379 321,495 71,-113 157,-385 179,-432 100,692 494,565 892,145 5,85 54,301 113,329 60,29 826,-207 826,-207 0,0 -918,417 -939,397 -22,-20 -35,-179 -35,-179 0,0 -548,265 -619,366 -71,101 -175,-272 -218,-341 -43,-70 -191,256 -191,256l-651 -283 12 161c0,0 -911,-297 -991,-420z" style="fill:#40a77b"/>
 </g><g id="AccessoryFlaskWithWater">
  <metadata id="CorelCorpID_4Corel-Layer"/>
  <g id="_3081300005968">
   <path class="AccessoryFlaskWithWaterfil78 AccessoryFlaskWithWaterstr1" d="M3672 22908c-76,-75 -537,-519 -628,-419 -1100,1197 -535,2014 -228,2459 118,171 208,301 208,435 0,213 -140,319 -524,319 -299,0 -1003,213 -1376,432 -37,21 -69,42 -94,60 213,65 667,95 1476,61 1632,-67 2345,-221 2822,-324 579,-125 831,-180 1821,51 309,72 1091,-57 1555,-249 94,-39 171,-79 221,-118 -24,-12 -59,-27 -107,-46 -91,-36 -329,-37 -601,-39 -512,-4 -1128,-8 -1438,-269 -772,-649 -903,-1805 -958,-2287 -10,-83 -16,-144 -20,-158 -38,-138 -79,165 -240,202 -600,138 -1543,354 -1889,-110zm-922 -690c382,-416 1212,415 1214,418l0 0c8,8 16,17 23,28 182,264 980,81 1485,-35 377,-86 650,-149 713,82 13,49 22,121 33,219 49,436 168,1480 818,2027 199,168 736,171 1183,174 311,3 585,4 743,66 206,80 322,181 369,292 62,152 12,288 -120,407 -83,75 -207,144 -355,205 -522,216 -1426,357 -1797,270 -903,-210 -1129,-161 -1647,-49 -488,105 -1218,263 -2891,332 -966,40 -1487,-16 -1716,-119 -238,-107 -289,-262 -206,-443 49,-107 167,-210 324,-302 421,-248 1228,-488 1577,-488 91,0 124,135 124,81 0,-12 -59,-97 -136,-209 -371,-537 -1053,-1523 262,-2956zm6212 3422c3,9 4,12 0,1l0 -1z" style="fill:#c73a68"/>
   <path class="AccessoryFlaskWithWaterfil79" d="M4884 25502l921 0c594,0 756,-1525 756,-1964 0,-665 -223,-1186 -542,-1505 -407,-407 -751,-724 -751,-1269 -166,-13 -283,-15 -384,-13 -101,-2 -219,0 -384,13 0,545 -345,862 -752,1269 -319,319 -542,840 -542,1505 0,439 162,1964 756,1964l922 0z" style="fill:#499070"/>
   <path class="AccessoryFlaskWithWaterfil1" d="M4590 20758c-29,1 -59,3 -90,6 0,545 -345,862 -752,1269 -319,319 -542,840 -542,1505 0,439 162,1964 756,1964l452 0c-515,-276 -808,-1460 -808,-1883 0,-730 -15,-1290 335,-1640 347,-347 568,-769 649,-1221z" style="fill:#422cff"/>
   <path class="AccessoryFlaskWithWaterfil2 AccessoryFlaskWithWaterstr4" d="M4884 25502l921 0c594,0 756,-1525 756,-1964 0,-665 -223,-1186 -542,-1505 -407,-407 -751,-724 -751,-1269 -166,-13 -283,-15 -384,-13 -101,-2 -219,0 -384,13 0,545 -345,862 -752,1269 -319,319 -542,840 -542,1505 0,439 162,1964 756,1964l922 0z" style="fill:#0d2f01"/>
   <path class="AccessoryFlaskWithWaterfil80" d="M4884 20994c198,0 481,-17 653,-52 0,-82 -125,-251 -125,-338 0,-334 0,-425 0,-739 0,-150 -319,-158 -528,-158 -210,0 -529,8 -529,158 0,314 0,405 0,739 0,87 -125,256 -125,338 172,35 455,52 654,52z" style="fill:#305845"/>
   <path class="AccessoryFlaskWithWaterfil48" d="M4884 20994c198,0 481,-17 653,-52 0,-58 -62,-158 -99,-243 -169,23 -390,35 -554,35 -165,0 -386,-12 -555,-35 -37,85 -99,185 -99,243 172,35 455,52 654,52z" style="fill:#d36125"/>
   <path class="AccessoryFlaskWithWaterfil2 AccessoryFlaskWithWaterstr3" d="M4884 20994c198,0 481,-17 653,-52 0,-82 -125,-251 -125,-338 0,-334 0,-425 0,-739 0,-150 -319,-158 -528,-158 -210,0 -529,8 -529,158 0,314 0,405 0,739 0,87 -125,256 -125,338 172,35 455,52 654,52z" style="fill:#1f537c"/>
   <path class="AccessoryFlaskWithWaterfil81 AccessoryFlaskWithWaterstr0" d="M3723 21999c-32,-117 1,-131 147,-276 187,-186 231,-47 275,25 220,411 561,680 781,1091 -117,164 -234,328 -352,493 -243,-492 -607,-841 -851,-1333z" style="fill:#93ded2"/>
   <g>
    <path class="AccessoryFlaskWithWaterfil82" d="M4486 23679l795 0 0 -419 -795 0 0 419zm895 200l-995 0c-55,0 -100,-45 -100,-100l0 -619c0,-55 45,-100 100,-100l995 0c56,0 100,45 100,100l0 619c0,55 -44,100 -100,100z" style="fill:#bdafb0"/>
    <path class="AccessoryFlaskWithWaterfil15" d="M4636 23529l495 0 0 -119 -495 0 0 119zm-150 150l795 0 0 -419 -795 0 0 419zm895 200l-995 0c-55,0 -100,-45 -100,-100l0 -619c0,-55 45,-100 100,-100l995 0c56,0 100,45 100,100l0 619c0,55 -44,100 -100,100zm0 150l-995 0c-69,0 -132,-28 -177,-73 -45,-45 -73,-108 -73,-177l0 -619c0,-69 28,-132 73,-177l1 0c45,-45 107,-73 176,-73l995 0c69,0 131,28 177,73l0 1c45,45 73,107 73,176l0 619c0,69 -28,131 -73,176l0 1c-45,45 -108,73 -177,73z" id="1" style="fill:#b2d5d4"/>
   </g>
   <path class="AccessoryFlaskWithWaterfil83 AccessoryFlaskWithWaterstr0" d="M5814 21779c-394,521 -845,1032 -1240,1553 183,49 373,65 578,16 329,-417 714,-824 1043,-1241 51,-65 -29,-162 -93,-217 -140,-121 -210,-164 -288,-111z" style="fill:#5fe38e"/>
   <path class="AccessoryFlaskWithWaterfil84 AccessoryFlaskWithWaterstr0" d="M4634 25589c41,-664 87,-1327 0,-2006 162,-45 328,-46 500,0 67,669 45,1338 0,2006 -167,0 -334,0 -500,0z" style="fill:#59d124"/>
   <path class="AccessoryFlaskWithWaterfil85 AccessoryFlaskWithWaterstr1" d="M4238 21501c215,19 377,59 646,59 268,0 433,-40 650,-59 62,-6 113,-8 113,-113 0,-105 -165,-145 -226,-138 -179,19 -268,59 -537,59 -270,0 -367,-40 -550,-59 -62,-7 -208,76 -208,138 0,62 51,107 112,113z" style="fill:#603b92"/>
  </g>
 </g><g id="Nose-Pig4">
 <animateTransform additive="sum" attributeName="transform" dur="10" repeatCount="indefinite" type="translate" values="0;0 200;0;0 200;0;0 200;0;0 200;0"/>
  <metadata id="CorelCorpID_145Corel-Layer"/>
  <g id="_2991533159888">
   <path class="Nose-Pig4fil241 Nose-Pig4str0" d="M13682 15386l0 0 0 0c419,0 1014,173 1377,-16 486,-252 457,-929 172,-1342 -289,-418 -850,-830 -1549,-830l0 0 0 0c-700,0 -1260,412 -1549,830 -286,413 -315,1090 172,1342 363,189 958,16 1377,16z" style="fill:#b9e197"/>
   <path class="Nose-Pig4fil242 Nose-Pig4str4" d="M13682 15259l0 0 0 0c384,0 927,152 1259,-14 445,-222 419,-818 158,-1181 -265,-368 -777,-730 -1417,-730l0 0 0 0c-640,0 -1152,362 -1417,730 -261,363 -287,959 158,1181 332,166 875,14 1259,14z" style="fill:#9e3e53"/>
   <path class="Nose-Pig4fil51" d="M14440 14120l51 346 354 -228 -176 355 350 -13c-511,544 -1158,396 -579,-460z" style="fill:#ab5179"/>
   <path class="Nose-Pig4fil51" d="M12924 14120l-51 346 -354 -228 176 355 -350 -13c511,544 1158,396 579,-460z" style="fill:#1abb19"/>
  </g>
 </g><g id="HatUshanka-Medium">
 <animateTransform additive="sum" attributeName="transform" dur="10" repeatCount="indefinite" type="translate" values="0;0 200;0;0 200;0;0 200;0;0 200;0"/>
  <metadata id="CorelCorpID_72Corel-Layer"/>
  <path class="HatUshanka-Mediumfil679new HatUshanka-Mediumstr0new" d="M22896 14084c732,273 1517,312 2404,81 -41,-245 -146,-449 -299,-689 -717,363 -1269,431 -2009,221 -31,148 -65,240 -96,387z" style="fill:#7e0c9e"/>
  <path class="HatUshanka-Mediumfil680new HatUshanka-Mediumstr6new" d="M19254 9461c24,1213 2131,2656 3492,3078 1483,459 933,2099 -387,2044 -1146,-48 -2563,-886 -3235,-3157 -276,-934 -51,-1607 130,-1965z" style="fill:#ec2c72"/>
  <path class="HatUshanka-Mediumfil31new" d="M20588 11368c684,533 1506,969 2158,1171 675,209 928,662 881,1088 -155,-378 -608,-707 -843,-823 106,227 87,422 19,524 -196,-352 -557,-622 -984,-949 100,196 -5,493 -71,600 -206,-515 -559,-962 -1160,-1611z" style="fill:#202beb"/>
  <path class="HatUshanka-Mediumfil33new HatUshanka-Mediumstr6new" d="M19254 9461c24,1213 2131,2656 3492,3078 1483,459 933,2099 -387,2044 -1146,-48 -2563,-886 -3235,-3157 -276,-934 -51,-1607 130,-1965z" style="fill:#75b0bd"/>
  <path class="HatUshanka-Mediumfil14new" d="M23631 13576c-29,530 -528,1038 -1272,1007 -1146,-48 -2563,-886 -3235,-3157 -96,-326 -132,-620 -129,-880 626,1986 3054,4373 4636,3030z" style="fill:#274531"/>
  <path class="HatUshanka-Mediumfil679new HatUshanka-Mediumstr0new" d="M3594 11128c-510,-593 -818,-1316 -907,-2228 243,-46 471,-18 749,43 -92,798 35,1339 487,1961 -127,80 -202,144 -329,224z" style="fill:#f34aea"/>
  <path class="HatUshanka-Mediumfil681new HatUshanka-Mediumstr6new" d="M7315 11182c-309,1281 -1846,743 -2559,-528 -584,-1041 -2209,-163 -1610,1287 491,1186 2066,1941 3155,1806 983,-121 1325,-584 1516,-1555 191,-970 -502,-1010 -502,-1010z" style="fill:#b91677"/>
  <path class="HatUshanka-Mediumfil31new" d="M6241 11888c-526,-115 -1116,-576 -1485,-1234 -443,-789 -1485,-475 -1701,356 209,-423 757,-616 1191,-403 -441,-10 -766,342 -846,593 380,-131 979,-355 1518,107 -364,-87 -668,39 -789,166 682,-16 1337,570 2112,415z" style="fill:#84ff8e"/>
  <path class="HatUshanka-Mediumfil33new HatUshanka-Mediumstr6new" d="M7315 11182c-309,1281 -1846,743 -2559,-528 -584,-1041 -2209,-163 -1610,1287 491,1186 2066,1941 3155,1806 983,-121 1325,-584 1516,-1555 191,-970 -502,-1010 -502,-1010z" style="fill:#a76c47"/>
  <path class="HatUshanka-Mediumfil14new" d="M3028 11508c18,137 56,282 118,433 491,1186 2066,1941 3155,1806 983,-121 1325,-584 1516,-1555 81,-410 4,-654 -112,-799 -52,867 -597,1858 -1632,1858 -1196,1 -2647,-754 -3045,-1743z" style="fill:#2fba7a"/>
  <path class="HatUshanka-Mediumfil682new HatUshanka-Mediumstr6new" d="M7788 12774c3696,-1000 7493,-1367 11404,-1004 220,21 426,-187 418,-408 -53,-1387 -44,-2184 -334,-3672 -215,-1104 -693,-2073 -1752,-2294 -2278,-478 -6338,-77 -8296,657 -1152,433 -1771,1186 -1951,2583 -200,1545 -192,2300 19,3893 29,219 278,303 492,245z" style="fill:#5772fd"/>
  <path class="HatUshanka-Mediumfil683new" d="M7733 12832c2874,-832 8062,-1209 11263,-994 109,7 216,15 321,24 406,34 540,-667 308,-955 -935,-1160 -1145,-1220 -1188,-2863 -28,-1076 -773,-1926 -1462,-2138 -1637,-503 -6230,165 -7604,819 -646,308 -1180,1059 -1228,2118 -72,1605 -367,2291 -906,3132 -230,357 129,963 496,857z" style="fill:#e6bc43"/>
  <path class="HatUshanka-Mediumfil14new" d="M8369 12664c2991,-723 7767,-1034 10737,-818 -874,-427 -2968,-624 -5387,-451 -2506,178 -4610,699 -5350,1269z" style="fill:#b3334b"/>
  <path class="HatUshanka-Mediumfil31new" d="M18432 7941c-70,-1026 -790,-1830 -1457,-2035 -1637,-503 -6230,165 -7604,819 -637,303 -1165,1037 -1226,2072 301,-756 664,-1439 1850,-1837 -222,204 -518,692 -563,1094 281,-471 1263,-1335 1998,-1561 -128,239 -476,1018 -515,1275 358,-421 1033,-1028 1647,-1299 -157,236 -314,481 -366,797 494,-577 1181,-1040 1878,-1175 -207,287 -405,628 -452,951 277,-407 899,-915 1539,-1025 -59,256 -82,635 45,926 281,-165 596,-543 779,-903 125,367 489,849 764,1083 127,-250 166,-624 -17,-945 764,277 1393,825 1700,1763z" style="fill:#018530"/>
  <path class="HatUshanka-Mediumfil33new HatUshanka-Mediumstr6new" d="M7733 12832c2973,-860 8419,-1234 11584,-970 406,34 540,-667 308,-955 -935,-1160 -1145,-1220 -1188,-2863 -28,-1076 -773,-1926 -1462,-2138 -1637,-503 -6230,165 -7604,819 -646,308 -1180,1059 -1228,2118 -72,1605 -367,2291 -906,3132 -230,357 129,963 496,857z" style="fill:#264f32"/>
  <path class="HatUshanka-Mediumfil684new HatUshanka-Mediumstr0new" d="M12636 10268c-8,-118 43,-275 89,-386 -71,13 -145,1 -211,-25 -91,-37 -168,-94 -229,-171 -53,-66 -94,-139 -115,-220 -31,-114 -39,-256 14,-365 24,-49 60,-90 118,-128 69,-44 142,-57 213,-49 43,5 84,17 123,35 -52,-100 -80,-229 -77,-341 3,-90 25,-178 73,-255 52,-85 154,-154 254,-161 92,-6 161,17 239,64 83,49 154,131 203,226 41,-122 129,-243 239,-309 165,-98 349,-41 458,108 63,85 95,193 102,298 5,71 -1,145 -19,215 62,-34 134,-52 203,-49 159,7 254,116 304,254 37,102 31,243 0,345 -49,159 -151,308 -312,368 -39,15 -79,23 -127,26 -17,1 89,147 105,175 47,84 84,175 90,260 5,69 -10,133 -40,187 -33,57 -82,101 -144,128 -146,64 -261,32 -406,-18 -89,-29 -178,-58 -272,-44 -108,16 -193,66 -289,108 -130,55 -274,89 -405,16 -56,-32 -103,-79 -134,-132 -32,-55 -42,-97 -47,-160z" style="fill:#889605"/>
  <path class="HatUshanka-Mediumfil685new" d="M12756 10260c3,45 7,68 30,108 40,67 115,120 204,114 109,-8 191,-49 277,-88 41,-18 78,-33 121,-49 75,-27 134,-37 213,-31 24,2 43,4 65,8 116,21 267,98 360,92l2 0 11 -1c42,-3 58,-5 102,-25 76,-33 119,-106 113,-197 -9,-129 -124,-296 -204,-399 -45,-58 -108,-131 -163,-181 -23,-21 -43,-42 -65,-57l-70 -55c-31,-23 -88,-54 -126,-66 -97,-31 -125,-29 -222,-22 -134,9 -293,101 -378,199 -35,41 -34,42 -62,78 -90,116 -218,423 -208,572zm660 -1544l4 59c8,114 72,231 163,284 97,56 184,32 265,-37 120,-103 172,-269 161,-425 -6,-97 -37,-179 -78,-236 -30,-40 -81,-82 -129,-95 -27,-7 -48,-11 -66,-11l-25 2c-22,3 -44,12 -77,27 -26,13 -51,28 -70,48 -28,28 -18,14 -45,51 -66,90 -110,219 -103,333zm-356 418c84,-6 141,-50 181,-121 116,-205 10,-535 -175,-644 -53,-32 -100,-52 -170,-48 -64,5 -131,56 -161,105 -76,123 -66,288 -12,430 19,52 65,127 103,165 62,60 141,119 234,113zm881 216c5,85 21,145 73,206 31,37 91,77 156,73 72,-5 119,-23 174,-65 80,-60 129,-150 158,-245 22,-70 22,-135 17,-213 -2,-34 -27,-93 -45,-123 -11,-19 -20,-31 -34,-47 -71,-83 -202,-77 -293,-14 -65,45 -114,102 -150,173 -33,64 -63,158 -56,255zm-1677 -39c4,54 7,73 21,124 8,28 17,53 29,77 30,60 84,133 139,173 64,47 140,88 230,82 129,-9 197,-143 188,-275 -10,-150 -68,-254 -157,-338 -19,-18 -31,-30 -56,-47 -87,-60 -194,-96 -292,-33 -74,48 -91,102 -99,184 -2,19 -4,33 -3,53z" style="fill:#661e82"/>
 </g></svg>