<svg xmlns="http://www.w3.org/2000/svg" xmlns:xlink="http://www.w3.org/1999/xlink" style="shape-rendering:geometricPrecision; text-rendering:geometricPrecision; image-rendering:optimizeQuality; fill-rule:evenodd; clip-rule:evenodd" version="1.1" viewBox="0 0 29000 29000" xml:space="preserve"><defs><style type="text/css">.NecklaceButterflyfil270new {fill:url(#NecklaceButterflyid34new)}
.NecklaceButterflyfil32new {fill:white;fill-opacity:0.301961}
.NecklaceButterflyfil271new {fill:black;fill-opacity:0.501961}
.NecklaceButterflyfil273new {fill:url(#NecklaceButterflyid119new)}
.NecklaceButterflyfil274new {fill:url(#NecklaceButterflyid588new)}
.NecklaceButterflyfil269new {fill:url(#NecklaceButterflyid166new)}
.NecklaceButterflystr0new {stroke:black;stroke-width:150;stroke-linecap:round;stroke-linejoin:round}
.NecklaceButterflyfil33new {fill:none}
.NecklaceButterflyfil272new {fill:url(#NecklaceButterflyid2new)}
.HairBack-Pig0fil0 {fill:none}
.Tail-Pig4fil10 {fill:black;fill-opacity:0.200000}
.Tail-Pig4fil33 {fill:url(#Tail-Pig4id131)}
.Tail-Pig4fil30 {fill:black;fill-rule:nonzero}
.Tail-Pig4fil26 {fill:black;fill-opacity:0.301961}
.Tail-Pig4fil32 {fill:url(#Tail-Pig4id167)}
.Tail-Pig4str0 {stroke:black;stroke-width:150;stroke-linecap:round;stroke-linejoin:round}
.Tail-Pig4fil34 {fill:url(#Tail-Pig4id149)}
.Tail-Pig4str1 {stroke:black;stroke-width:150}
.RightFoot-Pig0fil37 {fill:#fff8ed}
.RightFoot-Pig0fil38 {fill:#77613d}
.RightFoot-Pig0fil39 {fill:url(#RightFoot-Pig0id227)}
.RightFoot-Pig0fil40 {fill:black}
.RightFoot-Pig0fil10 {fill:black;fill-opacity:0.200000}
.RightFoot-Pig0fil0 {fill:none}
.RightFoot-Pig0str2 {stroke:black;stroke-width:150;stroke-linecap:round;stroke-linejoin:round}
.RightLeg-Pig0fil52 {fill:url(#RightLeg-Pig0id37)}
.RightLeg-Pig0fil10 {fill:black;fill-opacity:0.200000}
.RightLeg-Pig0fil0 {fill:none}
.RightLeg-Pig0str2 {stroke:black;stroke-width:150;stroke-linecap:round;stroke-linejoin:round}
.LeftFoot-Pig0fil37 {fill:#fff8ed}
.LeftFoot-Pig0fil38 {fill:#77613d}
.LeftFoot-Pig0fil57 {fill:url(#LeftFoot-Pig0id220)}
.LeftFoot-Pig0fil40 {fill:black}
.LeftFoot-Pig0fil10 {fill:black;fill-opacity:0.200000}
.LeftFoot-Pig0fil0 {fill:none}
.LeftFoot-Pig0str2 {stroke:black;stroke-width:150;stroke-linecap:round;stroke-linejoin:round}
.LeftLeg-Pig0fil62 {fill:url(#LeftLeg-Pig0id49)}
.LeftLeg-Pig0fil10 {fill:black;fill-opacity:0.200000}
.LeftLeg-Pig0fil0 {fill:none}
.LeftLeg-Pig0str2 {stroke:black;stroke-width:150;stroke-linecap:round;stroke-linejoin:round}
.RightHand-Pig0fil68 {fill:url(#RightHand-Pig0id57)}
.RightHand-Pig0fil10 {fill:black;fill-opacity:0.200000}
.RightHand-Pig0fil0 {fill:none}
.RightHand-Pig0str0 {stroke:black;stroke-width:150;stroke-linecap:round;stroke-linejoin:round}
.RightPaw-Pig3fil74 {fill:url(#RightPaw-Pig3id25)}
.RightPaw-Pig3fil10 {fill:black;fill-opacity:0.200000}
.RightPaw-Pig3fil77 {fill:url(#RightPaw-Pig3id216)}
.RightPaw-Pig3fil40 {fill:black}
.RightPaw-Pig3fil0 {fill:none}
.RightPaw-Pig3str2 {stroke:black;stroke-width:150;stroke-linecap:round;stroke-linejoin:round}
.LeftHand-Pig0fil79 {fill:url(#LeftHand-Pig0id22)}
.LeftHand-Pig0fil10 {fill:black;fill-opacity:0.200000}
.LeftHand-Pig0fil0 {fill:none}
.LeftHand-Pig0str0 {stroke:black;stroke-width:150;stroke-linecap:round;stroke-linejoin:round}
.Body-Pig0fil83 {fill:url(#Body-Pig0id42)}
.Body-Pig0fil10 {fill:black;fill-opacity:0.200000}
.Body-Pig0fil84 {fill:black;fill-rule:nonzero}
.LeftPaw-Pig3fil91 {fill:url(#LeftPaw-Pig3id70)}
.LeftPaw-Pig3fil10 {fill:black;fill-opacity:0.200000}
.LeftPaw-Pig3fil94 {fill:url(#LeftPaw-Pig3id212)}
.LeftPaw-Pig3fil40 {fill:black}
.LeftPaw-Pig3fil0 {fill:none}
.LeftPaw-Pig3str2 {stroke:black;stroke-width:150;stroke-linecap:round;stroke-linejoin:round}
.Ears-Pig6fil127 {fill:url(#Ears-Pig6id43)}
.Ears-Pig6fil128 {fill:url(#Ears-Pig6id18)}
.Ears-Pig6fil129 {fill:url(#Ears-Pig6id52)}
.Ears-Pig6fil10 {fill:black;fill-opacity:0.200000}
.Ears-Pig6fil130 {fill:url(#Ears-Pig6id110)}
.Ears-Pig6fil131 {fill:url(#Ears-Pig6id86)}
.Ears-Pig6fil132 {fill:url(#Ears-Pig6id126)}
.Ears-Pig6fil0 {fill:none}
.Ears-Pig6str0 {stroke:black;stroke-width:150;stroke-linecap:round;stroke-linejoin:round}
.Head-Pig7fil167 {fill:url(#Head-Pig7id173)}
.Head-Pig7fil10 {fill:black;fill-opacity:0.200000}
.Head-Pig7fil84 {fill:black;fill-rule:nonzero}
.Head-Pig7fil168 {fill:url(#Head-Pig7id30)}
.Mouth-Pig0fil26 {fill:black;fill-opacity:0.301961}
.Mouth-Pig0fil169 {fill:black}
.Mouth-Pig0fil170 {fill:black;fill-rule:nonzero;fill-opacity:0.301961}
.Mouth-Pig0fil0 {fill:none}
.Mouth-Pig0str0 {stroke:black;stroke-width:150;stroke-linecap:round;stroke-linejoin:round}
.EyesClosed-Pig4fil38 {fill:#77613d}
.EyesClosed-Pig4fil10 {fill:black;fill-opacity:0.200000}
.EyesClosed-Pig4fil84 {fill:black;fill-rule:nonzero}
.Eyes-Pig4fil197 {fill:url(#Eyes-Pig4id164)}
.Eyes-Pig4fil198 {fill:url(#Eyes-Pig4id121)}
.Eyes-Pig4fil199 {fill:url(#Eyes-Pig4id203)}
.Eyes-Pig4fil148 {fill:black;fill-opacity:0.501961}
.Eyes-Pig4fil173 {fill:white}
.Eyes-Pig4fil200 {fill:url(#Eyes-Pig4id179)}
.Eyes-Pig4fil201 {fill:url(#Eyes-Pig4id125)}
.Eyes-Pig4fil202 {fill:url(#Eyes-Pig4id204)}
.Eyes-Pig4fil0 {fill:none}
.Eyes-Pig4str0 {stroke:black;stroke-width:150;stroke-linecap:round;stroke-linejoin:round}
.Moustache-Pig0fil0 {fill:none}
.Nose-Pig0fil236 {fill:url(#Nose-Pig0id201)}
.Nose-Pig0str0 {stroke:black;stroke-width:150;stroke-linecap:round;stroke-linejoin:round}
.Nose-Pig0fil26 {fill:black;fill-opacity:0.301961}
.Nose-Pig0str3 {stroke:black;stroke-width:150;stroke-linecap:round;stroke-linejoin:round;stroke-opacity:0.301961}
.Nose-Pig0fil237 {fill:none}
.Hair-Pig2fil10 {fill:black;fill-opacity:0.200000}
.Hair-Pig2fil246 {fill:#b49868;fill-opacity:0.701961}
.Hair-Pig2fil247 {fill:url(#Hair-Pig2id39)}
.Hair-Pig2str0 {stroke:black;stroke-width:150;stroke-linecap:round;stroke-linejoin:round}
</style><linearGradient gradientUnits="userSpaceOnUse" id="NecklaceButterflyid34new" x1="12811.4" x2="12143.9" y1="19517.3" y2="17944.9">
   <stop offset="0" style="stop-opacity:1; stop-color:black"/>
   <stop offset="0.6" style="stop-opacity:1; stop-color:#424242"/>
   <stop offset="1" style="stop-opacity:1; stop-color:#858585"/>
  </linearGradient><linearGradient gradientUnits="userSpaceOnUse" id="NecklaceButterflyid119new" x1="14552.4" x2="15219.9" xlink:href="#NecklaceButterflyid34new" y1="19517.3" y2="17944.9">
  </linearGradient><linearGradient gradientUnits="userSpaceOnUse" id="NecklaceButterflyid588new" x1="13681.9" x2="13681.9" xlink:href="#NecklaceButterflyid2new" y1="18978.3" y2="18091.1">
  </linearGradient><linearGradient gradientUnits="userSpaceOnUse" id="NecklaceButterflyid166new" x1="12231.1" x2="12231.1" xlink:href="#NecklaceButterflyid2new" y1="18513" y2="17222">
  </linearGradient><linearGradient gradientUnits="userSpaceOnUse" id="Tail-Pig4id131" x1="16818.1" x2="18132.1" xlink:href="#Tail-Pig4id94" y1="24163.1" y2="22966.9">
  </linearGradient><linearGradient gradientUnits="userSpaceOnUse" id="Tail-Pig4id167" x1="19588.7" x2="18835.7" xlink:href="#Tail-Pig4id5" y1="20715.4" y2="23880.9">
  </linearGradient><linearGradient gradientUnits="userSpaceOnUse" id="Tail-Pig4id149" x1="13985.9" x2="17433.3" xlink:href="#Tail-Pig4id94" y1="23274.1" y2="22920.4">
  </linearGradient><linearGradient gradientUnits="objectBoundingBox" id="RightFoot-Pig0id227" x1="49.9997%" x2="49.9997%" xlink:href="#RightFoot-Pig0id0" y1="100%" y2="0%">
  </linearGradient><linearGradient gradientUnits="objectBoundingBox" id="RightLeg-Pig0id37" x1="50%" x2="50%" xlink:href="#RightLeg-Pig0id2" y1="100%" y2="0%">
  </linearGradient><linearGradient gradientUnits="objectBoundingBox" id="LeftFoot-Pig0id220" x1="50.0003%" x2="50.0003%" xlink:href="#LeftFoot-Pig0id0" y1="100%" y2="0%">
  </linearGradient><linearGradient gradientUnits="objectBoundingBox" id="LeftLeg-Pig0id49" x1="50%" x2="50%" xlink:href="#LeftLeg-Pig0id2" y1="100%" y2="0%">
  </linearGradient><linearGradient gradientUnits="objectBoundingBox" id="RightHand-Pig0id57" x1="30.1244%" x2="69.8756%" xlink:href="#RightHand-Pig0id22" y1="2.32158%" y2="97.6784%">
  </linearGradient><linearGradient gradientUnits="objectBoundingBox" id="RightPaw-Pig3id25" x1="81.8832%" x2="18.1168%" y1="89.1977%" y2="10.8018%">
   <stop offset="0" style="stop-opacity:1; stop-color:#c7b391"/>
   <stop offset="0.619608" style="stop-opacity:1; stop-color:#ecd9b8"/>
   <stop offset="1" style="stop-opacity:1; stop-color:#ecd9b8"/>
  </linearGradient><linearGradient gradientUnits="objectBoundingBox" id="RightPaw-Pig3id216" x1="28.208%" x2="71.792%" xlink:href="#RightPaw-Pig3id5" y1="1.78354%" y2="98.2165%">
  </linearGradient><linearGradient gradientUnits="objectBoundingBox" id="LeftHand-Pig0id22" x1="69.8756%" x2="30.1244%" y1="2.32158%" y2="97.6784%">
   <stop offset="0" style="stop-opacity:1; stop-color:#c7b391"/>
   <stop offset="0.0196078" style="stop-opacity:1; stop-color:#c7b391"/>
   <stop offset="0.921569" style="stop-opacity:1; stop-color:#ecd9b8"/>
   <stop offset="1" style="stop-opacity:1; stop-color:#ecd9b8"/>
  </linearGradient><linearGradient gradientUnits="objectBoundingBox" id="Body-Pig0id42" x1="50%" x2="50%" y1="0.000186021%" y2="100%">
   <stop offset="0" style="stop-opacity:1; stop-color:#c7b391"/>
   <stop offset="0.0313725" style="stop-opacity:1; stop-color:#c7b391"/>
   <stop offset="0.529412" style="stop-opacity:1; stop-color:#ecd9b8"/>
   <stop offset="1" style="stop-opacity:1; stop-color:#fff8ed"/>
  </linearGradient><linearGradient gradientUnits="objectBoundingBox" id="LeftPaw-Pig3id70" x1="18.1168%" x2="81.8832%" xlink:href="#LeftPaw-Pig3id25" y1="89.1977%" y2="10.8018%">
  </linearGradient><linearGradient gradientUnits="objectBoundingBox" id="LeftPaw-Pig3id212" x1="71.792%" x2="28.208%" xlink:href="#LeftPaw-Pig3id5" y1="1.78354%" y2="98.2165%">
  </linearGradient><linearGradient gradientUnits="userSpaceOnUse" id="Ears-Pig6id43" x1="18977.4" x2="18977.4" xlink:href="#Ears-Pig6id16" y1="10754.1" y2="6172.15">
  </linearGradient><linearGradient gradientUnits="userSpaceOnUse" id="Ears-Pig6id18" x1="21517.2" x2="17496.7" y1="8655.92" y2="7801.34">
   <stop offset="0" style="stop-opacity:1; stop-color:#F5E2E2"/>
   <stop offset="1" style="stop-opacity:1; stop-color:#C49D9D"/>
  </linearGradient><linearGradient gradientUnits="userSpaceOnUse" id="Ears-Pig6id52" x1="19827.1" x2="17755.5" y1="8390.45" y2="8209.21">
   <stop offset="0" style="stop-opacity:1; stop-color:#E4A7A1"/>
   <stop offset="1" style="stop-opacity:1; stop-color:#B87170"/>
  </linearGradient><linearGradient gradientUnits="userSpaceOnUse" id="Ears-Pig6id110" x1="8386.51" x2="8386.51" xlink:href="#Ears-Pig6id16" y1="10754.1" y2="6172.15">
  </linearGradient><linearGradient gradientUnits="userSpaceOnUse" id="Ears-Pig6id86" x1="5853.92" x2="9859.98" xlink:href="#Ears-Pig6id18" y1="8663.33" y2="7793.93">
  </linearGradient><linearGradient gradientUnits="userSpaceOnUse" id="Ears-Pig6id126" x1="7538.88" x2="9606.33" xlink:href="#Ears-Pig6id52" y1="8392.17" y2="8207.49">
  </linearGradient><linearGradient gradientUnits="userSpaceOnUse" id="Head-Pig7id173" x1="13681.9" x2="13681.9" xlink:href="#Head-Pig7id42" y1="17936.7" y2="7493.22">
  </linearGradient><linearGradient gradientUnits="userSpaceOnUse" id="Head-Pig7id30" x1="13681.9" x2="13681.9" y1="9565.57" y2="17278">
   <stop offset="0" style="stop-opacity:1; stop-color:#fcfeff"/>
   <stop offset="0.658824" style="stop-opacity:1; stop-color:#fcfeff"/>
   <stop offset="1" style="stop-opacity:1; stop-color:#e4edf2"/>
  </linearGradient><linearGradient gradientUnits="objectBoundingBox" id="Eyes-Pig4id164" x1="38.8114%" x2="61.1889%" xlink:href="#Eyes-Pig4id148" y1="96.6455%" y2="3.35484%">
  </linearGradient><linearGradient gradientUnits="userSpaceOnUse" id="Eyes-Pig4id121" x1="15264" x2="18379.7" xlink:href="#Eyes-Pig4id10" y1="12560.7" y2="12560.7">
  </linearGradient><radialGradient cx="16745.5" cy="12310.8" fx="16745.5" fy="12310.8" gradientTransform="matrix(0.962131 -0 -2.22045E-016 1 634 0)" gradientUnits="userSpaceOnUse" id="Eyes-Pig4id203" r="1300.18">
   <stop offset="0" style="stop-opacity:1; stop-color:#3e0059"/>
   <stop offset="0.701961" style="stop-opacity:1; stop-color:black"/>
   <stop offset="1" style="stop-opacity:1; stop-color:black"/>
  </radialGradient><linearGradient gradientUnits="objectBoundingBox" id="Eyes-Pig4id179" x1="61.4146%" x2="38.5851%" xlink:href="#Eyes-Pig4id148" y1="96.4338%" y2="3.56653%">
  </linearGradient><linearGradient gradientUnits="userSpaceOnUse" id="Eyes-Pig4id125" x1="8984.2" x2="12099.9" xlink:href="#Eyes-Pig4id10" y1="12560.7" y2="12560.7">
  </linearGradient><radialGradient cx="10618.4" cy="12310.8" fx="10618.4" fy="12310.8" gradientTransform="matrix(-0.985437 -0 -0 1 21082 0)" gradientUnits="userSpaceOnUse" id="Eyes-Pig4id204" r="1324.39" xlink:href="#Eyes-Pig4id203">
  </radialGradient><linearGradient gradientUnits="userSpaceOnUse" id="Nose-Pig0id201" x1="13681.9" x2="13681.9" xlink:href="#Nose-Pig0id151" y1="13309.5" y2="15458">
  </linearGradient><linearGradient gradientUnits="userSpaceOnUse" id="Hair-Pig2id39" x1="7934.84" x2="18257.5" xlink:href="#Hair-Pig2id7" y1="9158.05" y2="9158.05">
  </linearGradient><linearGradient gradientUnits="userSpaceOnUse" id="NecklaceButterflyid2new" x1="15132.8" x2="15132.8" y1="18513" y2="17222">
   <stop offset="0" style="stop-opacity:1; stop-color:black"/>
   <stop offset="1" style="stop-opacity:1; stop-color:#858585"/>
  </linearGradient><linearGradient gradientUnits="userSpaceOnUse" id="Tail-Pig4id94" x1="13432.5" x2="17737.9" y1="23392.7" y2="23392.7">
   <stop offset="0" style="stop-opacity:1; stop-color:#c7b391"/>
   <stop offset="1" style="stop-opacity:1; stop-color:#fff8ed"/>
  </linearGradient><linearGradient gradientUnits="userSpaceOnUse" id="Tail-Pig4id5" x1="18537.4" x2="18537.4" y1="11625" y2="5118.17">
   <stop offset="0" style="stop-opacity:1; stop-color:#77613d"/>
   <stop offset="1" style="stop-opacity:1; stop-color:#ecd9b8"/>
  </linearGradient><linearGradient gradientUnits="userSpaceOnUse" id="RightFoot-Pig0id0" x1="16257.8" x2="16257.8" y1="21560.3" y2="23683.4">
   <stop offset="0" style="stop-opacity:1; stop-color:#77613d"/>
   <stop offset="1" style="stop-opacity:1; stop-color:#9e8660"/>
  </linearGradient><linearGradient gradientUnits="userSpaceOnUse" id="RightLeg-Pig0id2" x1="11782.6" x2="11782.6" y1="24212.9" y2="21311.8">
   <stop offset="0" style="stop-opacity:1; stop-color:#fff8ed"/>
   <stop offset="0.388235" style="stop-opacity:1; stop-color:#fff8ed"/>
   <stop offset="1" style="stop-opacity:1; stop-color:#ecd9b8"/>
  </linearGradient><linearGradient gradientUnits="userSpaceOnUse" id="LeftFoot-Pig0id0" x1="16257.8" x2="16257.8" y1="21560.3" y2="23683.4">
   <stop offset="0" style="stop-opacity:1; stop-color:#77613d"/>
   <stop offset="1" style="stop-opacity:1; stop-color:#9e8660"/>
  </linearGradient><linearGradient gradientUnits="userSpaceOnUse" id="LeftLeg-Pig0id2" x1="11782.6" x2="11782.6" y1="24212.9" y2="21311.8">
   <stop offset="0" style="stop-opacity:1; stop-color:#fff8ed"/>
   <stop offset="0.388235" style="stop-opacity:1; stop-color:#fff8ed"/>
   <stop offset="1" style="stop-opacity:1; stop-color:#ecd9b8"/>
  </linearGradient><linearGradient gradientUnits="objectBoundingBox" id="RightHand-Pig0id22" x1="69.8756%" x2="30.1244%" y1="2.32158%" y2="97.6784%">
   <stop offset="0" style="stop-opacity:1; stop-color:#c7b391"/>
   <stop offset="0.0196078" style="stop-opacity:1; stop-color:#c7b391"/>
   <stop offset="0.921569" style="stop-opacity:1; stop-color:#ecd9b8"/>
   <stop offset="1" style="stop-opacity:1; stop-color:#ecd9b8"/>
  </linearGradient><linearGradient gradientUnits="userSpaceOnUse" id="RightPaw-Pig3id5" x1="18537.4" x2="18537.4" y1="11625" y2="5118.17">
   <stop offset="0" style="stop-opacity:1; stop-color:#77613d"/>
   <stop offset="1" style="stop-opacity:1; stop-color:#ecd9b8"/>
  </linearGradient><linearGradient gradientUnits="objectBoundingBox" id="LeftPaw-Pig3id25" x1="81.8832%" x2="18.1168%" y1="89.1977%" y2="10.8018%">
   <stop offset="0" style="stop-opacity:1; stop-color:#c7b391"/>
   <stop offset="0.619608" style="stop-opacity:1; stop-color:#ecd9b8"/>
   <stop offset="1" style="stop-opacity:1; stop-color:#ecd9b8"/>
  </linearGradient><linearGradient gradientUnits="userSpaceOnUse" id="LeftPaw-Pig3id5" x1="18537.4" x2="18537.4" y1="11625" y2="5118.17">
   <stop offset="0" style="stop-opacity:1; stop-color:#77613d"/>
   <stop offset="1" style="stop-opacity:1; stop-color:#ecd9b8"/>
  </linearGradient><linearGradient gradientUnits="userSpaceOnUse" id="Ears-Pig6id16" x1="16438.6" x2="20876.9" y1="9204.54" y2="7320.6">
   <stop offset="0" style="stop-opacity:1; stop-color:#77613d"/>
   <stop offset="0.6" style="stop-opacity:1; stop-color:#77613d"/>
   <stop offset="1" style="stop-opacity:1; stop-color:#9e8660"/>
  </linearGradient><linearGradient gradientUnits="objectBoundingBox" id="Head-Pig7id42" x1="50%" x2="50%" y1="0.000186021%" y2="100%">
   <stop offset="0" style="stop-opacity:1; stop-color:#c7b391"/>
   <stop offset="0.0313725" style="stop-opacity:1; stop-color:#c7b391"/>
   <stop offset="0.529412" style="stop-opacity:1; stop-color:#ecd9b8"/>
   <stop offset="1" style="stop-opacity:1; stop-color:#fff8ed"/>
  </linearGradient><linearGradient gradientUnits="userSpaceOnUse" id="Eyes-Pig4id148" x1="16641" x2="17334.4" y1="14255.9" y2="11076.2">
   <stop offset="0" style="stop-opacity:1; stop-color:#500073"/>
   <stop offset="1" style="stop-opacity:1; stop-color:black"/>
  </linearGradient><linearGradient gradientUnits="userSpaceOnUse" id="Eyes-Pig4id10" x1="15305.7" x2="18262.7" y1="12539.6" y2="12539.6">
   <stop offset="0" style="stop-opacity:1; stop-color:#500073"/>
   <stop offset="0.501961" style="stop-opacity:1; stop-color:#a900f2"/>
   <stop offset="1" style="stop-opacity:1; stop-color:#500073"/>
  </linearGradient><linearGradient gradientUnits="userSpaceOnUse" id="Nose-Pig0id151" x1="13681.9" x2="13681.9" y1="13554.2" y2="15469.2">
   <stop offset="0" style="stop-opacity:1; stop-color:#FFCCCC"/>
   <stop offset="1" style="stop-opacity:1; stop-color:#DB9092"/>
  </linearGradient><linearGradient gradientUnits="userSpaceOnUse" id="Hair-Pig2id7" x1="17165.3" x2="17165.3" y1="19960.9" y2="12270.8">
   <stop offset="0" style="stop-opacity:1; stop-color:#9c7e4b"/>
   <stop offset="1" style="stop-opacity:1; stop-color:#b49868"/>
  </linearGradient></defs><g id="HairBack-Pig0">
 <animateTransform additive="sum" attributeName="transform" dur="10" repeatCount="indefinite" type="translate" values="0;0 200;0;0 200;0;0 200;0;0 200;0"/>
  <metadata id="CorelCorpID_0Corel-Layer"/>
  <rect class="HairBack-Pig0fil0" height="890" width="890" x="13237" y="6590"/>
  <rect class="HairBack-Pig0fil0" height="890" width="890" x="13237" y="6590"/>
 </g><g id="Tail-Pig4">
  <metadata id="CorelCorpID_7Corel-Layer"/>
  <path class="Tail-Pig4fil32 Tail-Pig4str0" d="M18327 23822c-507,-169 -732,-913 -375,-1407 74,-102 173,-187 275,-273 40,-34 81,467 121,432 6,-639 303,-807 355,-1161 28,-384 -43,-549 -91,-632 -48,-83 434,90 461,663 -12,-309 120,-947 1573,-763 -840,167 -999,789 -1025,1614 117,-238 413,-483 609,-410 -243,179 -318,617 -323,920 -3,189 -230,595 -615,728 191,16 336,-45 573,-161 -272,542 -853,723 -1538,450z" style="fill:#33aa35"/>
  <path class="Tail-Pig4fil10" d="M20155 21954c-116,-72 -245,213 -364,477 -74,165 -84,360 -151,482 -274,495 -649,438 -1033,956 0,0 -272,-130 -424,-194 260,-395 -74,-620 17,-966 0,0 86,68 225,235 70,85 138,3 175,-130 125,-450 -138,-660 250,-1358 72,-130 -309,366 -309,366l-193 752 -119 -433c0,0 -375,273 -371,437 4,165 -169,574 57,897 225,322 655,448 834,461 178,12 781,-97 929,-294 148,-197 138,-182 138,-182 0,0 -388,19 -456,46 -68,27 209,-61 427,-381 219,-320 118,-506 154,-661 36,-155 130,-390 214,-510z" style="fill:#52d472"/>
  <path class="Tail-Pig4fil33" d="M18822 22851c166,27 42,1340 -1082,1510 -269,40 -540,2 -785,-120 -477,-237 -893,-535 -887,-1078 5,-420 525,-627 608,-74 54,357 247,496 534,638 138,69 292,90 444,67 156,-15 391,-60 535,-186 373,-310 471,-783 633,-757z" style="fill:#49f68e"/>
  <path class="Tail-Pig4fil30" d="M18499 24074c-182,175 -427,312 -748,361 -143,21 -287,22 -428,0 -138,-21 -273,-63 -402,-127 -216,-107 -420,-228 -583,-379l235 0c124,91 266,171 415,245 114,57 234,95 357,113 126,19 255,19 383,0 288,-44 525,-156 687,-311 214,-206 381,-450 432,-670 -21,316 -201,626 -348,768zm-1407 -496c46,28 97,55 152,82 61,31 125,51 192,61 68,10 138,10 207,-1l4 0c85,-8 194,-26 297,-62 341,-119 473,-284 612,-507 -117,319 -218,528 -562,649 -115,40 -235,59 -328,68l0 1c-85,12 -170,13 -252,0 -82,-12 -162,-37 -237,-75 -29,-14 -58,-29 -85,-43l0 -173z" style="fill:#6fd2f4"/>
  <path class="Tail-Pig4fil34 Tail-Pig4str1" d="M13590 22980c-74,-146 -60,-518 114,-580 173,-62 626,30 700,176 2,3 367,1151 1782,1081 176,-9 745,6 968,-383 187,-327 61,-627 -118,-753 -194,-137 -451,-83 -443,15 -97,-166 -385,-358 -265,-522 6,16 403,-347 904,-94 720,362 748,1036 493,1582 -233,500 -764,786 -1396,846 -2017,192 -2737,-1364 -2739,-1368z" style="fill:#d8b9ef"/>
  <path class="Tail-Pig4fil10" d="M17707 23822c0,0 112,152 19,294 -93,142 596,-33 666,-89 69,-56 -276,415 -1054,335 -779,-80 -299,-199 -299,-199l506 -360 162 19z" style="fill:#9004f5"/>
  <path class="Tail-Pig4fil26" d="M17270 23437c0,0 -158,311 -59,337 99,27 374,-139 423,-235 50,-95 137,356 -677,660 -814,303 -523,-15 -523,-15 0,0 340,-59 836,-747z" style="fill:#887643"/>
  <path class="Tail-Pig4fil26" d="M13814 23259c0,0 183,264 356,449 173,185 719,440 898,480 178,39 479,-245 446,-427 -32,-182 -703,-330 -803,-503 -101,-172 -328,-397 -361,-403 -33,-7 -776,84 -536,404z" style="fill:#5a36f2"/>
  <path class="Tail-Pig4fil10" d="M19850 21266c0,0 -519,437 -589,814 -70,376 -168,643 -226,718 176,-126 295,-319 345,-481 49,-162 218,-452 218,-452 0,0 194,-488 252,-599z" style="fill:#90f4fa"/>
 </g><g id="RightFoot-Pig0">
  <metadata id="CorelCorpID_10Corel-Layer"/>
  <path class="RightFoot-Pig0fil37" d="M16559 24190c54,65 143,233 174,292 62,268 -152,365 -298,365 -143,0 -686,-98 -894,289 -330,-192 -541,-572 -540,-565 -22,-43 -41,-85 -54,-126 -58,-176 -10,-247 31,-317 480,-107 1078,-83 1581,62z" style="fill:#e7ea29"/>
  <path class="RightFoot-Pig0fil38" d="M15011 24496c-3,101 -14,73 -14,176 -5,821 346,600 430,523 12,-11 59,-71 57,-73 -109,-146 -274,-300 -473,-626z" style="fill:#70434d"/>
  <path class="RightFoot-Pig0fil0 RightFoot-Pig0str2" d="M14995 24537c1,45 2,90 2,135 -5,821 346,600 430,523 4,-4 19,-23 37,-48" style="fill:#c4c208"/>
  <path class="RightFoot-Pig0fil39" d="M16756 24466c0,0 -225,-105 -294,-5 -54,78 49,353 -47,353 -106,0 -310,-245 -509,-215 -288,43 -418,429 -384,506 35,82 343,409 763,435 419,26 490,-14 487,-39 -3,-24 42,-150 42,-150 0,0 458,-59 491,-95 100,-109 -467,-691 -549,-790z" style="fill:#e6dfac"/>
  <polygon class="RightFoot-Pig0fil40" points="16740,25393 16571,24994 16934,25330 "/>
  <path class="RightFoot-Pig0fil0 RightFoot-Pig0str2" d="M16567 24189c147,241 633,739 718,969 84,231 -492,167 -492,167 0,0 5,189 -122,220 -281,70 -831,-103 -1075,-309 -49,-41 -99,-87 -150,-135" style="fill:#422d46"/>
  <path class="RightFoot-Pig0fil0 RightFoot-Pig0str2" d="M16567 24189c45,73 121,170 208,277m-1262 697c-341,-311 -707,-789 -548,-1037" style="fill:#fe4e1c"/>
  <path class="RightFoot-Pig0fil10" d="M15252 24171c-250,336 427,769 691,965 282,210 555,378 651,406 -45,23 -445,-31 -727,-123 -179,-96 -710,-617 -803,-752 -94,-163 -147,-331 -119,-480 10,-21 22,-40 33,-59 85,-7 193,-3 274,43z" style="fill:#c69018"/>
 </g><g id="LeftFoot-Pig0">
  <metadata id="CorelCorpID_27Corel-Layer"/>
  <path class="LeftFoot-Pig0fil37" d="M10805 24190c-54,65 -143,233 -174,292 -62,268 152,365 298,365 143,0 685,-98 894,289 330,-192 541,-572 540,-565 22,-43 40,-85 54,-126 58,-176 10,-247 -31,-317 -480,-107 -1078,-83 -1581,62z" style="fill:#1f11e8"/>
  <path class="LeftFoot-Pig0fil38" d="M12353 24496c3,101 14,73 14,176 5,821 -346,600 -430,523 -12,-11 -59,-71 -57,-73 109,-146 274,-300 473,-626z" style="fill:#7ecfba"/>
  <path class="LeftFoot-Pig0fil0 LeftFoot-Pig0str2" d="M12369 24537c-1,45 -2,90 -2,135 5,821 -346,600 -430,523 -4,-4 -19,-23 -37,-48" style="fill:#02688e"/>
  <path class="LeftFoot-Pig0fil57" d="M10608 24466c0,0 225,-105 294,-5 54,78 -49,353 47,353 106,0 309,-245 509,-215 288,43 418,429 384,506 -35,82 -343,409 -763,435 -419,26 -490,-14 -487,-39 3,-24 -42,-150 -42,-150 0,0 -458,-59 -491,-95 -101,-109 467,-691 549,-790z" style="fill:#4df3a3"/>
  <polygon class="LeftFoot-Pig0fil40" points="10624,25393 10793,24994 10430,25330 "/>
  <path class="LeftFoot-Pig0fil0 LeftFoot-Pig0str2" d="M10797 24189c-147,241 -633,739 -718,969 -85,231 492,167 492,167 0,0 -5,189 122,220 281,70 831,-103 1075,-309 49,-41 99,-87 150,-135" style="fill:#9cb813"/>
  <path class="LeftFoot-Pig0fil0 LeftFoot-Pig0str2" d="M10797 24189c-45,73 -121,170 -208,277m1262 697c341,-311 707,-789 548,-1037" style="fill:#53c5c7"/>
  <path class="LeftFoot-Pig0fil10" d="M12112 24171c250,336 -428,769 -691,965 -282,210 -555,378 -651,406 45,23 444,-31 727,-123 179,-96 710,-617 803,-752 94,-163 147,-331 119,-480 -10,-21 -22,-40 -33,-59 -85,-7 -193,-3 -274,43z" style="fill:#a96808"/>
 </g><g id="RightLeg-Pig0">
  <metadata id="CorelCorpID_22Corel-Layer"/>
  <path class="RightLeg-Pig0fil52" d="M16570 21416c0,0 1181,1189 570,2176 -128,221 -511,470 -581,598 -599,44 -1104,27 -1581,-62 45,-78 82,-155 -44,-376 -113,-198 -400,-446 -1252,-493 0,-147 0,-280 0,-522 373,-788 1598,-1745 2888,-1321z" style="fill:#2ea25b"/>
  <path class="RightLeg-Pig0fil10" d="M17192 23421c67,-141 106,-290 107,-439 2,-734 -540,-1374 -869,-1659l-157 688c26,45 52,90 79,136 387,-391 947,832 840,1274z" style="fill:#2d05ea"/>
  <path class="RightLeg-Pig0fil0 RightLeg-Pig0str2" d="M16570 21416c303,324 585,778 689,1246 115,521 25,950 -408,1282 -95,72 -194,144 -284,245m-1602 -63c284,-396 -518,-875 -1283,-867" style="fill:#ff5656"/>
  <path class="RightLeg-Pig0fil10" d="M13760 23246c341,-28 1532,124 1607,584 27,166 -52,256 -115,341 -93,-12 -184,-26 -274,-43 40,-70 74,-140 -11,-313 -8,-22 -19,-42 -33,-62l0 -1c-104,-182 -357,-408 -1066,-479 -35,-9 -71,-18 -108,-27z" style="fill:#365482"/>
 </g><g id="LeftLeg-Pig0">
  <metadata id="CorelCorpID_39Corel-Layer"/>
  <path class="LeftLeg-Pig0fil62" d="M10794 21416c0,0 -1181,1189 -570,2176 128,221 511,470 581,598 599,44 1104,27 1581,-62 -45,-78 -82,-155 44,-376 113,-198 400,-446 1252,-493 0,-147 0,-280 0,-522 -373,-788 -1598,-1745 -2888,-1321z" style="fill:#33f080"/>
  <path class="LeftLeg-Pig0fil10" d="M10172 23421c-67,-141 -106,-290 -107,-439 -2,-734 540,-1374 869,-1659l157 688c-26,45 -53,90 -79,136 -388,-391 -947,832 -840,1274z" style="fill:#c7ff4d"/>
  <path class="LeftLeg-Pig0fil0 LeftLeg-Pig0str2" d="M10794 21416c-303,324 -586,778 -689,1246 -115,521 -25,950 408,1282 95,72 193,144 284,245m1602 -63c-284,-396 517,-875 1283,-867" style="fill:#47ed37"/>
  <path class="LeftLeg-Pig0fil10" d="M13604 23246c-341,-28 -1532,124 -1607,584 -27,166 52,256 115,341 93,-12 184,-26 274,-43 -40,-70 -74,-140 11,-313 8,-22 19,-42 33,-62l0 -1c104,-182 357,-408 1066,-479 35,-9 71,-18 108,-27z" style="fill:#41a116"/>
 </g><g id="RightHand-Pig0">
 <animateTransform additive="sum" attributeName="transform" dur="10" repeatCount="indefinite" type="translate" values="0;0 200;0;0 200;0;0 200;0;0 200;0"/>
  <metadata id="CorelCorpID_44Corel-Layer"/>
  <path class="RightHand-Pig0fil68" d="M16231 17709c1005,345 1816,1398 2255,2162 -88,184 -847,720 -1129,836 -543,-402 -1045,-430 -1469,-362 -742,120 -1353,-1920 -931,-2545 422,-21 934,-40 1274,-91z" style="fill:#d52f3b"/>
  <path class="RightHand-Pig0fil10" d="M17342 20696c-537,-391 -1034,-418 -1454,-351 -171,28 -335,-59 -481,-217 -325,-472 753,-1098 1039,-656 258,399 723,837 1098,1116 3,2 22,18 34,27l-219 113c-8,-18 -14,-30 -17,-32z" style="fill:#aca3b5"/>
  <path class="RightHand-Pig0fil0 RightHand-Pig0str0" d="M16477 20333c179,24 366,81 561,178 100,50 205,104 305,189m1121 -817c-161,-280 -388,-607 -632,-916 -422,-534 -963,-1039 -1601,-1258 -90,-31 -172,-59 -246,-84" style="fill:#1432a1"/>
 </g><g id="LeftHand-Pig0">
 <animateTransform additive="sum" attributeName="transform" dur="10" repeatCount="indefinite" type="translate" values="0;0 200;0;0 200;0;0 200;0;0 200;0"/>
  <metadata id="CorelCorpID_61Corel-Layer"/>
  <path class="LeftHand-Pig0fil79" d="M11133 17709c-1005,345 -1817,1398 -2255,2162 88,184 847,720 1128,836 544,-402 1046,-430 1470,-362 742,120 1352,-1920 931,-2545 -422,-21 -934,-40 -1274,-91z" style="fill:#1badae"/>
  <path class="LeftHand-Pig0fil10" d="M10022 20696c537,-391 1034,-418 1454,-351 171,28 335,-59 481,-217 325,-472 -753,-1098 -1039,-656 -258,399 -723,837 -1098,1116 -3,2 -22,18 -34,27l219 113c8,-18 14,-30 17,-32z" style="fill:#0354af"/>
  <path class="LeftHand-Pig0fil0 LeftHand-Pig0str0" d="M10887 20333c-179,24 -366,81 -561,178 -100,50 -205,104 -305,189m-1121 -817c161,-280 388,-607 632,-916 422,-534 963,-1039 1601,-1258 90,-31 171,-59 246,-84" style="fill:#142a06"/>
 </g><g id="Body-Pig0">
 <animateTransform additive="sum" attributeName="transform" dur="10" repeatCount="indefinite" type="translate" values="0;0 200;0;0 200;0;0 200;0;0 200;0"/>
  <metadata id="CorelCorpID_66Corel-Layer"/>
  <path class="Body-Pig0fil83" d="M13682 23135c-1548,0 -2752,-291 -2993,-1956 -147,-1014 391,-2287 991,-3420 634,80 1289,123 2002,142 713,-19 1367,-62 2002,-142 600,1133 1137,2406 991,3420 -242,1665 -1445,1956 -2993,1956z" style="fill:#d6c1ed"/>
  <path class="Body-Pig0fil10" d="M12621 23067c-1016,-156 -1749,-629 -1932,-1888 -75,-519 29,-1106 229,-1707 -223,2001 402,3257 1703,3595z" style="fill:#3f7023"/>
  <path class="Body-Pig0fil84" d="M11012 22144c-250,-321 -348,-641 -397,-954 -59,-377 -24,-998 184,-1320 -78,421 -93,905 -36,1298 50,341 104,572 249,976z" style="fill:#374410"/>
  <path class="Body-Pig0fil10" d="M14743 23067c1016,-156 1749,-629 1932,-1888 75,-519 -29,-1106 -229,-1707 223,2001 -402,3257 -1703,3595z" style="fill:#05663a"/>
  <path class="Body-Pig0fil84" d="M16352 22144c250,-321 347,-641 397,-954 59,-377 24,-998 -184,-1320 78,421 93,905 36,1298 -50,341 -104,572 -249,976z" style="fill:#a38bf3"/>
 </g><g id="RightPaw-Pig3">
 <animateTransform additive="sum" attributeName="transform" dur="10" repeatCount="indefinite" type="translate" values="0;0 200;0;0 200;0;0 200;0;0 200;0"/>
  <metadata id="CorelCorpID_52Corel-Layer"/>
  <path class="RightPaw-Pig3fil74" d="M18486 19871c155,269 247,281 434,498 211,244 446,948 341,1067 -34,39 -389,8 -389,8 -15,58 -145,373 -188,392 -161,73 -598,-324 -814,-554 -63,111 -195,178 -216,147 -79,-27 -146,-195 -211,-374 -34,-92 -45,-318 -86,-348 139,-387 621,-775 1129,-836z" style="fill:#296a18"/>
  <path class="RightPaw-Pig3fil10" d="M17452 20518c31,24 62,48 92,70 4,3 39,31 43,34 13,14 26,28 39,43 79,93 97,228 104,283 2,13 3,21 4,24 -2,92 -166,169 -227,208 0,-8 -67,-223 -116,-364 0,-31 3,-54 -7,-90 -9,-6 -18,-13 -27,-19 23,-64 55,-127 95,-189z" style="fill:#8304e0"/>
  <path class="RightPaw-Pig3fil77" d="M18910 20358c-402,-76 -337,407 -242,635 -239,-309 -538,-414 -692,-297 -104,79 -113,131 -203,226 -99,104 -339,-108 -394,-184 -18,147 139,645 275,691 21,31 153,-36 216,-147 216,230 653,627 814,554 43,-19 173,-334 188,-392 0,0 355,31 389,-8 109,-123 -135,-862 -351,-1078z" style="fill:#55e0f6"/>
  <path class="RightPaw-Pig3fil10" d="M18804 21498c-67,307 -352,47 -875,-255 4,66 -100,45 -131,-12 -41,-92 -52,-190 -68,-283 -88,22 -225,-79 -303,-156 -5,-5 -11,-11 -16,-16 49,174 144,541 243,653 90,2 173,-73 216,-147 195,208 586,566 808,522 90,-18 70,-138 126,-306z" style="fill:#59c935"/>
  <polygon class="RightPaw-Pig3fil40" points="18796,21484 18678,21021 18973,21393 "/>
  <path class="RightPaw-Pig3fil0 RightPaw-Pig3str2" d="M17136 20561c121,75 170,94 271,202 1,149 38,330 93,461 54,128 115,197 196,208 55,8 128,-6 194,-123 208,221 642,571 796,501 41,-19 164,-344 179,-400 0,0 356,75 389,38 86,-99 -94,-785 -280,-992 -109,-122 -404,-420 -409,-427 -68,-85 -123,-182 -179,-276" style="fill:#5fc669"/>
 </g><g id="LeftPaw-Pig3">
 <animateTransform additive="sum" attributeName="transform" dur="10" repeatCount="indefinite" type="translate" values="0;0 200;0;0 200;0;0 200;0;0 200;0"/>
  <metadata id="CorelCorpID_74Corel-Layer"/>
  <path class="LeftPaw-Pig3fil91" d="M8878 19871c-155,269 -247,281 -434,498 -211,244 -446,948 -341,1067 34,39 388,8 388,8 16,58 146,373 189,392 161,73 598,-324 814,-554 63,111 195,178 216,147 79,-27 146,-195 211,-374 34,-92 45,-318 85,-348 -138,-387 -621,-775 -1128,-836z" style="fill:#602900"/>
  <path class="LeftPaw-Pig3fil10" d="M9912 20518c-31,24 -62,48 -92,70 -4,3 -39,31 -43,34 -14,14 -27,28 -39,43 -79,93 -97,228 -104,283 -2,13 -3,21 -4,24 2,92 166,169 226,208 0,-8 68,-223 117,-364 -1,-31 -3,-54 7,-90 9,-6 18,-13 26,-19 -22,-64 -54,-127 -94,-189z" style="fill:#69955c"/>
  <path class="LeftPaw-Pig3fil94" d="M8454 20358c401,-76 337,407 242,635 239,-309 538,-414 692,-297 104,79 113,131 203,226 99,104 339,-108 394,-184 18,147 -140,645 -275,691 -21,31 -153,-36 -216,-147 -216,230 -653,627 -814,554 -43,-19 -173,-334 -189,-392 0,0 -354,31 -388,-8 -109,-123 135,-862 351,-1078z" style="fill:#ff7686"/>
  <path class="LeftPaw-Pig3fil10" d="M8560 21498c67,307 352,47 875,-255 -5,66 100,45 131,-12 40,-92 52,-190 68,-283 88,22 225,-79 303,-156 5,-5 11,-11 16,-16 -49,174 -144,541 -243,653 -90,2 -173,-73 -216,-147 -196,208 -586,566 -808,522 -90,-18 -70,-138 -126,-306z" style="fill:#b4525e"/>
  <polygon class="LeftPaw-Pig3fil40" points="8568,21484 8686,21021 8391,21393 "/>
  <path class="LeftPaw-Pig3fil0 LeftPaw-Pig3str2" d="M10228 20561c-121,75 -170,94 -272,202 0,149 -37,330 -92,461 -55,128 -115,197 -196,208 -55,8 -128,-6 -194,-123 -208,221 -642,571 -797,501 -41,-19 -163,-344 -178,-400 0,0 -356,75 -389,38 -86,-99 94,-785 280,-992 109,-122 404,-420 409,-427 68,-85 123,-182 179,-276" style="fill:#a6880d"/>
 </g><g id="NecklaceButterfly">
 <animateTransform additive="sum" attributeName="transform" dur="10" repeatCount="indefinite" type="translate" values="0;0 200;0;0 200;0;0 200;0;0 200;0"/>
  <metadata id="CorelCorpID_45Corel-Layer"/>
  <path class="NecklaceButterflyfil269new NecklaceButterflystr0new" d="M13604 18252c-870,-172 -1867,-434 -2367,-1030 -126,0 -253,0 -379,0 423,687 1459,1121 2306,1291 136,-92 303,-169 440,-261z" style="fill:#5b3a97"/>
  <path class="NecklaceButterflyfil270new" d="M13329 18180c-120,-49 -834,-243 -1314,-292 -480,-49 -458,323 -361,638 90,291 32,576 132,875 181,539 1125,-297 1572,-556 -10,-222 -19,-443 -29,-665z" style="fill:#0623fc"/>
  <path class="NecklaceButterflyfil32new" d="M12696 18074c-1338,-388 -1057,71 -984,452 -72,-448 499,-539 984,-452z" style="fill:#78f334"/>
  <path class="NecklaceButterflyfil33new NecklaceButterflystr0new" d="M13329 18180c-120,-49 -834,-243 -1314,-292 -480,-49 -458,323 -361,638 90,291 32,576 132,875 181,539 1125,-297 1572,-556 -10,-222 -19,-443 -29,-665z" style="fill:#ee18e6"/>
  <path class="NecklaceButterflyfil271new" d="M13649 18427c-661,-83 -1062,-315 -1122,-150 -72,199 381,183 640,237 -181,3 -481,-48 -474,95 8,170 350,64 485,60 -33,37 -819,150 -708,374 109,218 491,-136 1078,-336 2,-100 99,-180 101,-280z" style="fill:#a9dd77"/>
  <path class="NecklaceButterflyfil272new NecklaceButterflystr0new" d="M13760 18252c870,-172 1867,-434 2367,-1030 126,0 252,0 379,0 -423,687 -1459,1121 -2306,1291 -136,-92 -304,-169 -440,-261z" style="fill:#f0a63f"/>
  <path class="NecklaceButterflyfil273new" d="M14035 18180c120,-49 834,-243 1314,-292 480,-49 458,323 361,638 -90,291 -32,576 -132,875 -181,539 -1125,-297 -1572,-556 10,-222 19,-443 29,-665z" style="fill:#170cb1"/>
  <path class="NecklaceButterflyfil32new" d="M14682 18074c1338,-388 1057,71 984,452 72,-448 -499,-539 -984,-452z" style="fill:#284cec"/>
  <path class="NecklaceButterflyfil33new NecklaceButterflystr0new" d="M14035 18180c120,-49 834,-243 1314,-292 480,-49 458,323 361,638 -90,291 -32,576 -132,875 -181,539 -1125,-297 -1572,-556 10,-222 19,-443 29,-665z" style="fill:#ea1fca"/>
  <path class="NecklaceButterflyfil271new" d="M13715 18427c661,-83 1062,-315 1122,-150 72,199 -381,183 -640,237 181,3 481,-48 474,95 -8,170 -350,64 -485,60 33,37 819,150 708,374 -109,218 -491,-136 -1078,-336 -2,-100 -99,-180 -101,-280z" style="fill:#4bd442"/>
  <path class="NecklaceButterflyfil274new" d="M13682 18091l-283 0c-85,0 -155,70 -155,154l0 579c0,85 70,154 155,154l283 0 283 0c85,0 155,-69 155,-154l0 -579c0,-84 -70,-154 -155,-154l-283 0z" style="fill:#a4684d"/>
  <path class="NecklaceButterflyfil32new" d="M13682 18048l-251 0c-75,0 -137,69 -137,154l0 261c0,-237 775,-237 775,0l0 -261c0,-85 -61,-154 -136,-154l-251 0z" style="fill:#80c7c9"/>
  <path class="NecklaceButterflyfil33new NecklaceButterflystr0new" d="M13682 18091l-283 0c-85,0 -155,70 -155,154l0 579c0,85 70,154 155,154l283 0 283 0c85,0 155,-69 155,-154l0 -579c0,-84 -70,-154 -155,-154l-283 0z" style="fill:#1c1a1f"/>
 </g><g id="Ears-Pig6">
 <animateTransform additive="sum" attributeName="transform" dur="10" repeatCount="indefinite" type="translate" values="0;0 200;0;0 200;0;0 200;0;0 200;0"/>
  <metadata id="CorelCorpID_89Corel-Layer"/>
  <path class="Ears-Pig6fil127" d="M21571 6374c0,0 -3128,-549 -3937,164 -809,712 -940,1273 -970,1424 -30,152 -39,502 -188,825 -545,1176 1480,1979 2153,1967 266,-5 648,-82 860,-144 338,-99 677,-152 866,-350 230,-242 343,-536 325,-832 -40,-691 -251,-632 -376,-1357 -125,-725 -295,-869 1267,-1697z" style="fill:#9a420d"/>
  <path class="Ears-Pig6fil128" d="M18032 6327c-368,333 -80,1309 14,1885 108,654 -9,1055 -480,1224 -471,168 538,-116 857,-25 319,91 678,605 898,744 219,139 473,151 901,108 434,-100 518,-696 438,-1042 -270,-1186 -1265,-1693 911,-2847 0,0 -2399,-421 -3539,-47z" style="fill:#37a335"/>
  <path class="Ears-Pig6fil129" d="M17767 9423c0,0 342,-76 636,-17 84,17 149,119 241,131 376,51 779,46 939,-160 335,-432 -1004,-371 -1224,-342 159,-55 1383,-303 1454,-1135 71,-833 -1640,1035 -1640,1035 0,0 1437,-2273 576,-1846 -376,187 -590,603 -714,1031 -59,204 69,433 44,619 -44,314 -304,608 -312,684z" style="fill:#2e78fc"/>
  <path class="Ears-Pig6fil0 Ears-Pig6str0" d="M18266 6265c-329,107 -386,293 -406,460 -52,441 118,1069 186,1487 108,654 -9,1055 -480,1224 -471,168 538,-116 857,-25 319,91 626,572 898,744 224,142 1013,191 1236,-152" style="fill:#0c7aca"/>
  <path class="Ears-Pig6fil0 Ears-Pig6str0" d="M21571 6374c0,0 -3128,-549 -3937,164 -809,712 -940,1273 -970,1424 -30,152 -39,502 -188,825 -483,1041 1650,2198 2071,2053 680,-233 1614,-276 1916,-685 264,-357 308,-860 22,-1494 -413,-915 -592,-1397 1086,-2287z" style="fill:#9212b5"/>
  <path class="Ears-Pig6fil10" d="M17517 9248c0,0 348,-420 139,-970 -513,-1344 -967,-295 -1005,127 -58,649 566,1012 866,843z" style="fill:#13b9ca"/>
  <path class="Ears-Pig6fil10" d="M17524 9542c0,0 346,-89 612,-112 267,-24 417,-18 669,240 115,116 310,413 597,521 347,132 792,67 911,100 105,29 -331,162 -712,284 -408,131 -869,245 -869,245 -101,9 -804,-434 -907,-404 -104,30 -601,-462 -301,-874z" style="fill:#0e4b78"/>
  <path class="Ears-Pig6fil10" d="M19050 6177c0,0 -931,253 -891,881 36,557 78,2004 -370,2312 466,-34 573,-57 940,41 161,42 1709,1232 1907,89 31,94 72,379 -122,579 -194,201 -609,359 -1112,112 -503,-247 -620,-602 -800,-691 -179,-89 -588,-120 -781,-67 -193,53 -89,-96 -89,-96 0,0 319,-142 343,-576 24,-434 -66,-825 -113,-995 -48,-169 -115,-930 -105,-1009 10,-79 103,-353 196,-408 92,-55 816,-163 997,-172z" style="fill:#6a76a1"/>
  <path class="Ears-Pig6fil130" d="M5793 6374c0,0 3128,-549 3937,164 808,712 940,1273 970,1424 30,152 38,502 188,825 545,1176 -1480,1979 -2153,1967 -267,-5 -648,-82 -861,-144 -337,-99 -676,-152 -865,-350 -230,-242 -343,-536 -325,-832 40,-691 251,-632 376,-1357 125,-725 295,-869 -1267,-1697z" style="fill:#1aeeb9"/>
  <path class="Ears-Pig6fil131" d="M9331 6327c369,333 81,1309 -14,1885 -107,654 10,1055 481,1224 471,168 -538,-116 -857,-25 -319,91 -679,605 -898,744 -219,139 -473,151 -901,108 -434,-100 -518,-696 -439,-1042 271,-1186 1266,-1693 -910,-2847 0,0 2399,-421 3538,-47z" style="fill:#4c551a"/>
  <path class="Ears-Pig6fil132" d="M9596 9423c0,0 -341,-76 -635,-17 -85,17 -150,119 -241,131 -376,51 -779,46 -939,-160 -336,-432 1004,-371 1224,-342 -159,-55 -1383,-303 -1454,-1135 -71,-833 1640,1035 1640,1035 0,0 -1437,-2273 -576,-1846 376,187 590,603 714,1031 59,204 -69,433 -44,619 44,314 304,608 311,684z" style="fill:#403ef3"/>
  <path class="Ears-Pig6fil0 Ears-Pig6str0" d="M9098 6265c329,107 386,293 406,460 52,441 -118,1069 -187,1487 -107,654 10,1055 481,1224 471,168 -538,-116 -857,-25 -319,91 -626,572 -898,744 -224,142 -1013,191 -1236,-152" style="fill:#b82200"/>
  <path class="Ears-Pig6fil0 Ears-Pig6str0" d="M5793 6374c0,0 3128,-549 3937,164 808,712 940,1273 970,1424 30,152 38,502 188,825 483,1041 -1650,2198 -2071,2053 -680,-233 -1614,-276 -1916,-685 -264,-357 -308,-860 -22,-1494 413,-915 592,-1397 -1086,-2287z" style="fill:#70c14f"/>
  <path class="Ears-Pig6fil10" d="M9847 9248c0,0 -348,-420 -139,-970 512,-1344 967,-295 1005,127 58,649 -566,1012 -866,843z" style="fill:#5d21b7"/>
  <path class="Ears-Pig6fil10" d="M9840 9542c0,0 -346,-89 -612,-112 -267,-24 -417,-18 -670,240 -114,116 -309,413 -596,521 -347,132 -793,67 -912,100 -104,29 332,162 713,284 408,131 869,245 869,245 101,9 803,-434 907,-404 104,30 601,-462 301,-874z" style="fill:#5257de"/>
  <path class="Ears-Pig6fil10" d="M8314 6177c0,0 931,253 890,881 -35,557 -78,2004 371,2312 -466,-34 -573,-57 -941,41 -160,42 -1708,1232 -1906,89 -31,94 -73,379 122,579 194,201 609,359 1112,112 503,-247 620,-602 800,-691 179,-89 587,-120 781,-67 193,53 89,-96 89,-96 0,0 -320,-142 -343,-576 -24,-434 66,-825 113,-995 48,-169 115,-930 105,-1009 -10,-79 -103,-353 -196,-408 -92,-55 -817,-163 -997,-172z" style="fill:#c50209"/>
 </g><g id="Head-Pig7">
 <animateTransform additive="sum" attributeName="transform" dur="10" repeatCount="indefinite" type="translate" values="0;0 200;0;0 200;0;0 200;0;0 200;0"/>
  <metadata id="CorelCorpID_102Corel-Layer"/>
  <path class="Head-Pig7fil167" d="M13682 17937c481,0 1034,-24 1605,-101 850,-115 1745,-334 2518,-713 517,-252 891,-642 1496,-281 46,-295 -60,-531 -278,-760 297,43 1046,-179 1293,-503 -349,-69 -742,-317 -739,-506 429,-36 980,-397 1235,-1090 -342,197 -775,217 -929,104 339,-83 701,-286 849,-530 -370,-85 -578,-255 -736,-469 -234,-317 -474,-802 -682,-1160 -101,-175 -213,-370 -333,-603 -102,-182 -198,-394 -302,-573 -28,-47 -54,-103 -82,-149 -358,-597 -759,-1164 -1324,-1636 -1249,-1046 -2354,-1447 -3590,-1474l-1 0 -1 0c-1236,27 -2341,428 -3591,1474 -564,472 -965,1039 -1323,1636 -28,46 -55,102 -82,149 -105,179 -200,391 -302,573 -120,233 -232,428 -333,603 -208,358 -448,843 -682,1160 -159,214 -366,384 -736,469 148,244 510,447 849,530 -154,113 -587,93 -929,-104 255,693 806,1054 1235,1090 3,189 -390,437 -739,506 247,324 996,546 1293,503 -218,229 -324,465 -279,760 606,-361 980,29 1496,281 774,379 1669,598 2519,713 571,77 1124,101 1605,101z" style="fill:#e2d324"/>
  <path class="Head-Pig7fil10" d="M8595 11042c-58,94 -129,186 -208,277l-4 6c-120,233 -232,428 -333,603 -208,358 -448,843 -682,1160 -159,214 -366,384 -736,469 148,244 510,447 849,530 -154,113 -587,93 -929,-104 255,693 806,1054 1235,1090 3,189 -390,437 -739,506 247,324 996,546 1293,503 -218,229 -324,465 -279,760 606,-361 980,29 1496,281 774,379 1669,598 2519,713 127,17 253,31 378,44 62,5 124,10 184,15 -2326,-552 -4001,-1593 -4496,-3087 -323,-975 -154,-2267 452,-3766z" style="fill:#3d180f"/>
  <path class="Head-Pig7fil84" d="M9861 9172c974,-1177 2398,-1757 3821,-1747 1423,-10 2847,570 3821,1747 -1223,-1081 -2522,-1612 -3821,-1603 -1299,-9 -2598,522 -3821,1603z" style="fill:#6bfd42"/>
  <path class="Head-Pig7fil168" d="M11342 16322c-59,-17 -121,-32 -187,-46 -271,-56 -493,16 -558,-89 -80,-266 186,-712 95,-695 -209,21 -431,229 -517,138 -94,-99 -27,-600 34,-762 427,-1118 3218,-1915 2085,-3512 -196,-276 -573,-673 -894,-787 -154,-55 -336,-83 -628,-148 -272,-60 -441,-158 -91,-441 214,-174 502,-317 687,-361 365,-85 591,-64 766,31 652,349 732,1121 1548,1205 816,-84 896,-856 1548,-1205 175,-95 401,-116 766,-31 185,44 473,187 687,361 350,283 181,381 -91,441 -292,65 -474,93 -629,148 -320,114 -697,511 -893,787 -1133,1597 1658,2394 2085,3512 61,162 128,663 34,762 -87,91 -308,-117 -517,-138 -91,-17 175,429 94,695 -64,105 -287,33 -557,89 -66,14 -128,29 -188,46 -553,524 -1400,956 -2339,956 -939,0 -1786,-432 -2340,-956z" style="fill:#698905"/>
  <path class="Head-Pig7fil84" d="M15213 17846c610,-96 1204,-300 1416,-360 397,-113 784,-254 1144,-430 97,-47 194,-103 289,-158 374,-214 707,-405 1175,-176 1,-92 -14,-177 -46,-258 -44,-115 -120,-223 -222,-330 -29,-30 -28,-78 2,-106 18,-17 41,-23 62,-20 151,22 431,-32 695,-135 171,-66 334,-153 446,-253 -149,-44 -296,-115 -414,-195 -154,-106 -260,-234 -258,-353 0,-39 30,-71 68,-74l0 0c217,-18 467,-125 691,-322 155,-137 297,-317 405,-541 -120,47 -242,76 -356,88 -199,23 -376,-5 -471,-75 -34,-25 -41,-72 -16,-105 11,-15 26,-24 42,-28 169,-42 344,-114 493,-208 99,-61 185,-131 249,-205 -144,-43 -263,-101 -364,-169 -126,-86 -223,-188 -307,-301 -167,-225 -333,-529 -490,-815 -304,-554 -490,-1038 -805,-1630 377,501 498,790 738,1204 65,111 131,231 198,354 155,282 319,582 479,798 75,101 161,191 271,266 109,74 245,134 418,175 9,1 18,4 26,9 35,21 47,67 25,103 -77,127 -206,243 -358,339 -91,56 -190,106 -292,146 45,2 95,-1 148,-6 153,-18 324,-67 476,-154 19,-13 44,-17 67,-8 39,14 59,57 45,96 -122,333 -311,592 -522,779 -220,194 -466,310 -689,348 30,52 93,110 174,165 135,93 316,171 485,204l0 0c11,2 22,7 31,14 33,25 40,72 15,105 -122,160 -351,294 -594,389 -206,80 -425,132 -595,145 61,81 110,165 144,252 53,137 69,283 45,444l-1 0c-1,9 -4,18 -9,27 -22,35 -68,47 -103,26 -447,-268 -766,-85 -1126,122 -94,53 -190,109 -299,161 -369,181 -764,326 -1169,440 -159,45 -836,206 -1456,216z" style="fill:#bce65f"/>
  <path class="Head-Pig7fil84" d="M12151 17846c-610,-96 -1204,-300 -1416,-360 -397,-113 -784,-254 -1144,-430 -97,-47 -194,-103 -289,-158 -374,-214 -707,-405 -1175,-176 -1,-92 14,-177 46,-258 44,-115 120,-223 222,-330 29,-30 27,-78 -2,-106 -18,-17 -41,-23 -63,-20 -150,22 -430,-32 -694,-135 -172,-66 -334,-153 -446,-253 148,-44 296,-115 414,-195 154,-106 260,-234 258,-353 0,-39 -31,-71 -69,-74l0 0c-216,-18 -466,-125 -690,-322 -155,-137 -297,-317 -405,-541 119,47 242,76 356,88 198,23 375,-5 471,-75 33,-25 41,-72 16,-105 -11,-15 -26,-24 -42,-28 -169,-42 -344,-114 -494,-208 -98,-61 -184,-131 -248,-205 144,-43 263,-101 364,-169 126,-86 223,-188 307,-301 167,-225 333,-529 490,-815 304,-554 490,-1038 805,-1630 -377,501 -498,790 -738,1204 -65,111 -131,231 -198,354 -155,282 -320,582 -479,798 -75,101 -161,191 -271,266 -109,74 -245,134 -419,175 -8,1 -17,4 -25,9 -35,21 -47,67 -25,103 77,127 206,243 358,339 91,56 190,106 292,146 -46,2 -95,-1 -148,-6 -153,-18 -324,-67 -476,-154 -19,-13 -44,-17 -68,-8 -38,14 -58,57 -44,96 122,333 310,592 522,779 220,194 466,310 689,348 -30,52 -93,110 -174,165 -135,93 -316,171 -486,204l0 0c-10,2 -21,7 -31,14 -32,25 -39,72 -14,105 122,160 351,294 594,389 206,80 424,132 595,145 -62,81 -110,165 -144,252 -53,137 -70,283 -45,444l1 0c1,9 4,18 9,27 21,35 67,47 103,26 447,-268 766,-85 1126,122 94,53 190,109 299,161 369,181 764,326 1168,440 160,45 837,206 1457,216z" style="fill:#9d1d29"/>
 </g><g id="Mouth-Pig0">
 <animateTransform additive="sum" attributeName="transform" dur="10" repeatCount="indefinite" type="translate" values="0;0 200;0;0 200;0;0 200;0;0 200;0"/>
  <metadata id="CorelCorpID_103Corel-Layer"/>
  <g id="_2991504412144">
   <path class="Mouth-Pig0fil0 Mouth-Pig0str0" d="M15833 14725c-305,501 -713,745 -1261,741 -179,-1 -593,-77 -890,-80" style="fill:#139f94"/>
   <path class="Mouth-Pig0fil0 Mouth-Pig0str0" d="M11531 14725c305,501 713,745 1261,741 179,-1 593,-77 890,-80" style="fill:#f9aa62"/>
   <path class="Mouth-Pig0fil26" d="M13682 15622c-619,-3 -759,-85 -1140,-114 371,3 754,-678 1138,-678 385,0 769,681 1142,678 -381,29 -521,111 -1140,114z" style="fill:#3dd9de"/>
   <path class="Mouth-Pig0fil169" d="M11642 14585c58,72 -120,136 -59,317 3,9 -104,-117 -114,-116 -101,13 -186,10 -280,49 -159,66 282,-463 453,-250z" style="fill:#88fc42"/>
   <path class="Mouth-Pig0fil169" d="M15722 14585c-58,72 120,136 59,317 -3,9 104,-117 114,-116 101,13 186,10 280,49 159,66 -282,-463 -453,-250z" style="fill:#defbd0"/>
   <path class="Mouth-Pig0fil170" d="M12922 16035c187,38 460,68 760,68 300,0 573,-30 760,-68 -196,153 -464,219 -760,219 -296,0 -564,-66 -760,-219z" style="fill:#dccb5f"/>
  </g>
 </g><g id="EyesClosed-Pig4">
 <animateTransform additive="sum" attributeName="transform" dur="10" repeatCount="indefinite" type="translate" values="0;0 200;0;0 200;0;0 200;0;0 200;0"/>
  <metadata id="CorelCorpID_124Corel-Layer"/>
  <g id="_2991498783376">
   <path class="EyesClosed-Pig4fil38" d="M15751 9293c119,-23 437,257 888,404 413,136 806,86 893,252 96,186 -192,494 -424,549 -190,45 -631,-80 -972,-388 -404,-365 -530,-789 -385,-817z"/>
   <path class="EyesClosed-Pig4fil10" d="M15751 9293c119,-23 437,257 888,404 413,136 806,86 893,252 96,186 -192,494 -424,549 -190,45 -631,-80 -972,-388 -404,-365 -530,-789 -385,-817z"/>
  </g>
  <g id="_2991498783056">
   <path class="EyesClosed-Pig4fil38" d="M11613 9293c-119,-23 -437,257 -888,404 -414,136 -806,86 -893,252 -96,186 192,494 424,549 190,45 631,-80 972,-388 403,-365 530,-789 385,-817z"/>
   <path class="EyesClosed-Pig4fil10" d="M11613 9293c-119,-23 -437,257 -888,404 -414,136 -806,86 -893,252 -96,186 192,494 424,549 190,45 631,-80 972,-388 403,-365 530,-789 385,-817z"/>
  </g>
  <path class="EyesClosed-Pig4fil84" d="M15454 13665c-51,51 -12,111 46,82 730,-374 1370,-741 2160,-797 327,-23 642,9 854,62 60,15 106,32 129,8 72,-76 -77,-165 -124,-197 -400,-281 -1010,-319 -1649,-55 -450,186 -924,548 -1416,897z"/>
  <path class="EyesClosed-Pig4fil84" d="M11910 13665c51,51 12,111 -46,82 -730,-374 -1370,-741 -2160,-797 -327,-23 -642,9 -854,62 -61,15 -106,32 -130,8 -71,-76 78,-165 124,-197 401,-281 1011,-319 1650,-55 450,186 924,548 1416,897z"/>
 </g><g id="Eyes-Pig4">
 <animate attributeName="opacity" dur="10" repeatCount="indefinite" values="0;1;1;1;1;1;1;1;1;1;1;1;1;1;1;1;1;1;1;1;1;1;1;1;1;1;1;1;1;1;1;1;1;1;1;1;1;1;1;1;1;1;1;1;1;1;1;1;1;1;1;1;1;1;1;1;1;1;1;1;1;1;1;1;1;1;1;1;1;1;1;1;1;1;1;1;1;1;1;1;1;1;1;1;0;0"/>
 <animateTransform additive="sum" attributeName="transform" dur="10" repeatCount="indefinite" type="translate" values="0;0 200;0;0 200;0;0 200;0;0 200;0"/>
  <metadata id="CorelCorpID_125Corel-Layer"/>
  <g id="_2991498774896">
   <path class="Eyes-Pig4fil197" d="M17019 14281c-583,1 -1009,-212 -1377,-432 -425,-253 -407,-991 -263,-1587 140,-582 450,-1463 1499,-1431 229,8 449,109 627,232 316,218 886,669 1036,1303 208,886 -261,1913 -1522,1915z"/>
   <path class="Eyes-Pig4fil198" d="M15264 13123c43,-858 567,-1939 1186,-2042 92,-16 182,-25 271,-28 472,19 893,222 1212,552 852,884 314,1876 -203,2194 -726,446 -1632,254 -2102,28 -235,-112 -346,-378 -364,-704z"/>
   <path class="Eyes-Pig4fil199" d="M17047 11017c-701,-156 -1405,298 -1571,1012 -166,715 267,1420 968,1576 701,155 1405,-298 1571,-1012 166,-715 -267,-1420 -968,-1576z"/>
   <path class="Eyes-Pig4fil0 Eyes-Pig4str0" d="M15339 13289c0,0 -1,409 303,560 120,60 333,164 559,270 1032,482 2349,-147 2411,-1292 50,-904 -1310,-2574 -2501,-1772 -750,505 -824,1385 -772,2234z"/>
   <path class="Eyes-Pig4fil148" d="M15366 13439c-197,-879 180,-2421 1115,-2556 630,-92 1138,102 1545,597 332,404 591,1186 632,1632 -368,-1020 -1369,-1693 -2048,-1627 -863,84 -1229,938 -1244,1954z"/>
   <g>
    <circle class="Eyes-Pig4fil173" r="235" transform="matrix(0.468438 0.204368 -0.10887 0.30538 17545.1 11500.6)"/>
    <circle class="Eyes-Pig4fil173" r="235" transform="matrix(0.507205 0.0764215 -0.175531 0.686187 17853.3 12993.2)"/>
    <circle class="Eyes-Pig4fil173" r="235" transform="matrix(1.575 -1.3481 0.801535 0.581283 16369.3 11577.5)"/>
    <path class="Eyes-Pig4fil173" d="M16509 13520c173,-17 197,-73 217,-278 2,205 21,261 193,278 -174,17 -198,74 -217,279 -2,-205 -21,-262 -193,-279z"/>
    <path class="Eyes-Pig4fil173" d="M17662 12428c114,-11 130,-48 142,-183 2,135 14,172 127,183 -114,11 -130,48 -142,183 -2,-135 -14,-172 -127,-183z"/>
    <path class="Eyes-Pig4fil173" d="M16761 13149c76,-7 86,-32 95,-122 1,90 9,115 85,122 -77,8 -87,32 -96,122 0,-90 -9,-114 -84,-122z"/>
    <circle class="Eyes-Pig4fil173" r="235" transform="matrix(0.24509 -0.453026 0.310771 0.10002 15848.9 12094.7)"/>
    <path class="Eyes-Pig4fil173" d="M15911 12304c119,-11 135,-50 149,-190 1,140 14,179 131,190 -118,12 -134,51 -148,191 -1,-140 -14,-179 -132,-191z"/>
    <path class="Eyes-Pig4fil173" d="M17188 13746c76,-8 86,-32 95,-122 1,90 9,114 84,122 -76,7 -86,32 -95,122 -1,-90 -9,-115 -84,-122z"/>
    <path class="Eyes-Pig4fil173" d="M18263 12372c293,944 -431,1572 -1104,1661 374,-176 1122,-710 1104,-1661z"/>
   </g>
  </g>
  <g id="_2991498771856">
   <path class="Eyes-Pig4fil200" d="M10345 14281c583,1 1009,-212 1377,-432 424,-253 407,-991 263,-1587 -140,-582 -450,-1463 -1500,-1431 -228,8 -448,109 -627,232 -316,218 -885,669 -1035,1303 -208,886 261,1913 1522,1915z"/>
   <path class="Eyes-Pig4fil201" d="M12100 13123c-43,-858 -568,-1939 -1186,-2042 -92,-16 -182,-25 -271,-28 -472,19 -893,222 -1212,552 -852,884 -314,1876 203,2194 726,446 1632,254 2102,28 235,-112 345,-378 364,-704z"/>
   <path class="Eyes-Pig4fil202" d="M10317 11017c701,-156 1405,298 1571,1012 166,715 -267,1420 -968,1576 -702,155 -1405,-298 -1571,-1012 -166,-715 267,-1420 968,-1576z"/>
   <path class="Eyes-Pig4fil0 Eyes-Pig4str0" d="M12025 13289c0,0 1,409 -303,560 -120,60 -333,164 -560,270 -1031,482 -2348,-147 -2411,-1292 -49,-904 1311,-2574 2502,-1772 750,505 824,1385 772,2234z"/>
   <path class="Eyes-Pig4fil148" d="M11998 13439c196,-879 -180,-2421 -1115,-2556 -630,-92 -1138,102 -1545,597 -333,404 -592,1186 -632,1632 368,-1020 1368,-1693 2048,-1627 863,84 1229,938 1244,1954z"/>
   <g>
    <g>
     <circle class="Eyes-Pig4fil173" r="235" transform="matrix(0.468438 0.204368 -0.10887 0.30538 11173.7 11500.6)"/>
     <circle class="Eyes-Pig4fil173" r="235" transform="matrix(1.575 -1.3481 0.801535 0.581283 9997.96 11577.5)"/>
     <circle class="Eyes-Pig4fil173" r="235" transform="matrix(0.24509 -0.453026 0.310771 0.10002 9477.5 12094.7)"/>
     <path class="Eyes-Pig4fil173" d="M9540 12304c119,-11 135,-50 148,-190 2,140 15,179 132,190 -118,12 -135,51 -148,191 -1,-140 -14,-179 -132,-191z"/>
    </g>
    <g>
     <circle class="Eyes-Pig4fil173" r="235" transform="matrix(0.507205 0.0764215 -0.175531 0.686187 11481.9 12993.2)"/>
     <path class="Eyes-Pig4fil173" d="M10137 13520c174,-17 198,-73 218,-278 1,205 20,261 193,278 -174,17 -198,74 -218,279 -1,-205 -20,-262 -193,-279z"/>
     <path class="Eyes-Pig4fil173" d="M11291 12428c114,-11 129,-48 142,-183 1,135 14,172 127,183 -114,11 -130,48 -143,183 -1,-135 -13,-172 -126,-183z"/>
     <path class="Eyes-Pig4fil173" d="M10389 13149c77,-7 87,-32 96,-122 0,90 9,115 84,122 -76,8 -86,32 -95,122 -1,-90 -9,-114 -85,-122z"/>
     <path class="Eyes-Pig4fil173" d="M10816 13746c76,-8 87,-32 95,-122 1,90 9,114 85,122 -76,7 -87,32 -95,122 -1,-90 -9,-115 -85,-122z"/>
    </g>
   </g>
   <path class="Eyes-Pig4fil173" d="M9101 12372c-294,944 431,1572 1104,1661 -374,-176 -1122,-710 -1104,-1661z"/>
  </g>
 </g><g id="Moustache-Pig0">
 <animateTransform additive="sum" attributeName="transform" dur="10" repeatCount="indefinite" type="translate" values="0;0 200;0;0 200;0;0 200;0;0 200;0"/>
  <metadata id="CorelCorpID_136Corel-Layer"/>
  <rect class="Moustache-Pig0fil0" height="1459" width="1352" x="13006" y="12662"/>
 </g><g id="Nose-Pig0">
 <animateTransform additive="sum" attributeName="transform" dur="10" repeatCount="indefinite" type="translate" values="0;0 200;0;0 200;0;0 200;0;0 200;0"/>
  <metadata id="CorelCorpID_141Corel-Layer"/>
  <g id="_2991533171152">
   <path class="Nose-Pig0fil236 Nose-Pig0str0" d="M13682 15431c688,0 1646,200 1573,-487 -68,-630 -928,-1635 -1573,-1635 -645,0 -1505,1005 -1573,1635 -73,687 885,487 1573,487z" style="fill:#cbf150"/>
   <g>
    <path class="Nose-Pig0fil26 Nose-Pig0str3" d="M14332 14239c-113,0 -205,188 -205,418 0,231 92,418 205,418 114,0 206,-187 206,-418 -1,-230 -93,-418 -206,-418z" style="fill:#3edda5"/>
    <path class="Nose-Pig0fil237 Nose-Pig0str3" d="M14332 14239c-113,0 -205,188 -205,418 0,231 92,418 205,418 114,0 206,-187 206,-418 -1,-230 -93,-418 -206,-418z" style="fill:#120d31"/>
   </g>
   <g>
    <path class="Nose-Pig0fil26 Nose-Pig0str3" d="M13032 14239c113,0 205,188 205,418 0,231 -92,418 -205,418 -114,0 -206,-187 -206,-418 0,-230 93,-418 206,-418z" style="fill:#6f9da3"/>
    <path class="Nose-Pig0fil237 Nose-Pig0str3" d="M13032 14239c113,0 205,188 205,418 0,231 -92,418 -205,418 -114,0 -206,-187 -206,-418 0,-230 93,-418 206,-418z" style="fill:#ba4ef7"/>
   </g>
  </g>
 </g><g id="Hair-Pig2">
 <animateTransform additive="sum" attributeName="transform" dur="10" repeatCount="indefinite" type="translate" values="0;0 200;0;0 200;0;0 200;0;0 200;0"/>
  <metadata id="CorelCorpID_150Corel-Layer"/>
  <path class="Hair-Pig2fil247 Hair-Pig2str0" d="M17186 8170c-78,-1878 -2478,-2687 -4126,-2284 -1258,307 -3415,1282 -4693,437 -35,862 1053,1144 2020,1093 -1718,98 -3117,1539 -2118,5116 67,-1783 1246,-3235 2726,-3590 0,0 -1742,654 -1840,2249 867,-920 2199,-754 4320,-1710 1335,-602 1933,-1807 3190,-1054 58,47 258,168 487,365 1183,769 1553,-1549 432,-1802 182,594 -99,965 -398,1180z" style="fill:#f3bbdb"/>
  <path class="Hair-Pig2fil10" d="M9155 11191c40,-1215 2514,-1528 3324,-1933 1220,-609 2374,-1505 3429,-1580 722,-51 966,425 1201,974 -347,-83 -1118,-978 -2330,5 -1211,982 -2951,1486 -4304,1799 -1352,313 -1320,735 -1320,735z" style="fill:#52ad46"/>
  <path class="Hair-Pig2fil10" d="M8269 12532c0,0 -33,-1226 605,-2003 639,-777 840,-1202 2121,-1587 1281,-385 1281,-385 1281,-385 0,0 690,-261 1048,-625 57,-58 -801,291 -2130,546 -942,181 -1864,145 -2450,1343 -357,728 -392,1477 -475,2711z" style="fill:#6f73a5"/>
  <path class="Hair-Pig2fil246" d="M16858 7753c0,0 -867,-937 -2666,-683 -1645,232 -2242,1054 -3662,1299 -855,147 -1643,166 -2222,1071 424,-1593 1251,-1621 1950,-1724 903,-133 1582,-928 2622,-1196 656,-170 2593,-551 3978,1233z" style="fill:#f470c9"/>
  <path class="Hair-Pig2fil246" d="M9834 10253c405,-472 1000,-776 1942,-1147 414,-162 1327,-767 2139,-1285 609,-390 1672,-759 2834,-125 -1241,-253 -2096,264 -2576,617 -647,476 -1490,837 -2028,1081 -916,415 -1874,537 -2311,859z" style="fill:#fb2450"/>
  <path class="Hair-Pig2fil10" d="M18077 7328c62,571 -338,1477 -968,1324 -336,-81 268,268 365,282 97,13 1236,-58 603,-1606z" style="fill:#ebbf41"/>
 </g></svg>