<svg xmlns="http://www.w3.org/2000/svg" xmlns:xlink="http://www.w3.org/1999/xlink" style="shape-rendering:geometricPrecision; text-rendering:geometricPrecision; image-rendering:optimizeQuality; fill-rule:evenodd; clip-rule:evenodd" version="1.1" viewBox="0 0 29000 29000" xml:space="preserve"><defs><style type="text/css">.BraceletSilver-Mediumfil62new {fill:black;fill-opacity:0.400000}
.BraceletSilver-Mediumfil61new {fill:url(#BraceletSilver-Mediumid671new);fill-rule:nonzero}
.BraceletSilver-Mediumstr4new {stroke:black;stroke-width:100}
.BraceletSilver-Mediumfil63new {fill:url(#BraceletSilver-Mediumid689new);fill-rule:nonzero}
.HatGlasses-Mediumfil571new {fill:white;fill-opacity:0.400000}
.HatGlasses-Mediumfil572new {fill:white;fill-opacity:0.701961}
.HatGlasses-Mediumfil707new {fill:url(#HatGlasses-Mediumid680new);fill-rule:nonzero}
.NecklaceTieBlackfil33 {fill:white;fill-opacity:0.301961}
.NecklaceTieBlackfil29 {fill:url(#NecklaceTieBlackid54)}
.NecklaceTieBlackstr1 {stroke:black;stroke-width:150;stroke-linecap:round;stroke-linejoin:round}
.NecklaceTieBlackfil30 {fill:url(#NecklaceTieBlackid85)}
.NecklaceTieBlackfil31 {fill:url(#NecklaceTieBlackid16)}
.NecklaceTieBlackfil32 {fill:url(#NecklaceTieBlackid8)}
.WeaponBflyNetBack-Mediumfil1 {fill:black;fill-rule:nonzero;fill-opacity:0.200000}
.WeaponBflyNetBack-Mediumfil12 {fill:url(#WeaponBflyNetBack-Mediumid25);fill-rule:nonzero}
.WeaponBflyNetBack-Mediumstr0 {stroke:black;stroke-width:150;stroke-linecap:round;stroke-linejoin:round}
.WeaponBflyNet-Mediumfil13 {fill:white;fill-opacity:0.701961}
.WeaponBflyNet-Mediumfil3 {fill:black;fill-opacity:0.200000}
.WeaponBflyNet-Mediumfil14 {fill:none}
.WeaponBflyNet-Mediumstr2 {stroke:#85E7FF;stroke-width:150;stroke-linecap:round;stroke-linejoin:round}
.WeaponBflyNet-Mediumstr3 {stroke:#85E7FF;stroke-width:150}
.WeaponBflyNet-Mediumfil15 {fill:url(#WeaponBflyNet-Mediumid2)}
.WeaponBflyNet-Mediumstr0 {stroke:black;stroke-width:150;stroke-linecap:round;stroke-linejoin:round}
.WeaponBflyNet-Mediumfil16 {fill:url(#WeaponBflyNet-Mediumid1)}
.WeaponBflyNet-Mediumstr1 {stroke:black;stroke-width:150}
.AccessoryDuckfil122 {fill:url(#AccessoryDuckid90)}
.AccessoryDuckfil48 {fill:white;fill-opacity:0.501961}
.AccessoryDuckfil123 {fill:#CC1400;fill-opacity:0.301961}
.AccessoryDuckfil124 {fill:url(#AccessoryDuckid94)}
.AccessoryDuckfil3 {fill:black;fill-rule:nonzero}
.AccessoryDuckfil125 {fill:url(#AccessoryDuckid39)}
.AccessoryDuckfil126 {fill:url(#AccessoryDuckid95)}
.AccessoryDuckfil127 {fill:url(#AccessoryDuckid92)}
.AccessoryDuckfil2 {fill:none}
.AccessoryDuckfil128 {fill:#912323;fill-opacity:0.501961}
.AccessoryDuckfil14 {fill:white}
.AccessoryDuckfil129 {fill:white;fill-rule:nonzero;fill-opacity:0.501961}
.AccessoryDuckfil130 {fill:white;fill-rule:nonzero}
.AccessoryDuckstr1 {stroke:black;stroke-width:150}
.AccessoryDuckstr18 {stroke:#99CC66;stroke-width:150;stroke-linecap:round;stroke-linejoin:round}
.AccessoryDuckstr0 {stroke:black;stroke-width:150;stroke-linecap:round;stroke-linejoin:round}
.HairBack-Pig0fil0 {fill:none}
.Tail-Pig2fil26 {fill:black;fill-opacity:0.301961}
.Tail-Pig2fil25 {fill:url(#Tail-Pig2id197)}
.Tail-Pig2str1 {stroke:black;stroke-width:150}
.Tail-Pig2fil27 {fill:url(#Tail-Pig2id96)}
.RightFoot-Pig0fil37 {fill:#fffafb}
.RightFoot-Pig0fil38 {fill:#edb5c3}
.RightFoot-Pig0fil39 {fill:url(#RightFoot-Pig0id227)}
.RightFoot-Pig0fil40 {fill:black}
.RightFoot-Pig0fil10 {fill:black;fill-opacity:0.200000}
.RightFoot-Pig0fil0 {fill:none}
.RightFoot-Pig0str2 {stroke:black;stroke-width:150;stroke-linecap:round;stroke-linejoin:round}
.RightLeg-Pig0fil52 {fill:url(#RightLeg-Pig0id37)}
.RightLeg-Pig0fil10 {fill:black;fill-opacity:0.200000}
.RightLeg-Pig0fil0 {fill:none}
.RightLeg-Pig0str2 {stroke:black;stroke-width:150;stroke-linecap:round;stroke-linejoin:round}
.LeftFoot-Pig0fil37 {fill:#fffafb}
.LeftFoot-Pig0fil38 {fill:#edb5c3}
.LeftFoot-Pig0fil57 {fill:url(#LeftFoot-Pig0id220)}
.LeftFoot-Pig0fil40 {fill:black}
.LeftFoot-Pig0fil10 {fill:black;fill-opacity:0.200000}
.LeftFoot-Pig0fil0 {fill:none}
.LeftFoot-Pig0str2 {stroke:black;stroke-width:150;stroke-linecap:round;stroke-linejoin:round}
.LeftLeg-Pig0fil62 {fill:url(#LeftLeg-Pig0id49)}
.LeftLeg-Pig0fil10 {fill:black;fill-opacity:0.200000}
.LeftLeg-Pig0fil0 {fill:none}
.LeftLeg-Pig0str2 {stroke:black;stroke-width:150;stroke-linecap:round;stroke-linejoin:round}
.RightHand-Pig0fil68 {fill:url(#RightHand-Pig0id57)}
.RightHand-Pig0fil10 {fill:black;fill-opacity:0.200000}
.RightHand-Pig0fil0 {fill:none}
.RightHand-Pig0str0 {stroke:black;stroke-width:150;stroke-linecap:round;stroke-linejoin:round}
.RightPaw-Pig0fil74 {fill:url(#RightPaw-Pig0id25)}
.RightPaw-Pig0fil10 {fill:black;fill-opacity:0.200000}
.RightPaw-Pig0fil75 {fill:url(#RightPaw-Pig0id217)}
.RightPaw-Pig0fil40 {fill:black}
.RightPaw-Pig0fil0 {fill:none}
.RightPaw-Pig0str2 {stroke:black;stroke-width:150;stroke-linecap:round;stroke-linejoin:round}
.LeftHand-Pig0fil79 {fill:url(#LeftHand-Pig0id22)}
.LeftHand-Pig0fil10 {fill:black;fill-opacity:0.200000}
.LeftHand-Pig0fil0 {fill:none}
.LeftHand-Pig0str0 {stroke:black;stroke-width:150;stroke-linecap:round;stroke-linejoin:round}
.Body-Pig1fil83 {fill:url(#Body-Pig1id42)}
.Body-Pig1fil10 {fill:black;fill-opacity:0.200000}
.Body-Pig1fil84 {fill:black;fill-rule:nonzero}
.Body-Pig1fil85 {fill:url(#Body-Pig1id44)}
.LeftPaw-Pig0fil91 {fill:url(#LeftPaw-Pig0id70)}
.LeftPaw-Pig0fil10 {fill:black;fill-opacity:0.200000}
.LeftPaw-Pig0fil92 {fill:url(#LeftPaw-Pig0id209)}
.LeftPaw-Pig0fil40 {fill:black}
.LeftPaw-Pig0fil0 {fill:none}
.LeftPaw-Pig0str2 {stroke:black;stroke-width:150;stroke-linecap:round;stroke-linejoin:round}
.Ears-Pig5fil122 {fill:url(#Ears-Pig5id38)}
.Ears-Pig5fil123 {fill:url(#Ears-Pig5id69)}
.Ears-Pig5fil10 {fill:black;fill-opacity:0.200000}
.Ears-Pig5fil125 {fill:url(#Ears-Pig5id9)}
.Ears-Pig5fil126 {fill:url(#Ears-Pig5id66)}
.Ears-Pig5fil121 {fill:url(#Ears-Pig5id16)}
.Ears-Pig5str0 {stroke:black;stroke-width:150;stroke-linecap:round;stroke-linejoin:round}
.Ears-Pig5fil124 {fill:url(#Ears-Pig5id65)}
.Head-Pig0fil160 {fill:url(#Head-Pig0id50)}
.Head-Pig0fil10 {fill:black;fill-opacity:0.200000}
.Head-Pig0fil84 {fill:black;fill-rule:nonzero}
.Mouth-Pig0fil26 {fill:black;fill-opacity:0.301961}
.Mouth-Pig0fil169 {fill:black}
.Mouth-Pig0fil170 {fill:black;fill-rule:nonzero;fill-opacity:0.301961}
.Mouth-Pig0fil0 {fill:none}
.Mouth-Pig0str0 {stroke:black;stroke-width:150;stroke-linecap:round;stroke-linejoin:round}
.EyesClosed-Pig0fil38 {fill:#edb5c3}
.EyesClosed-Pig0fil10 {fill:black;fill-opacity:0.200000}
.EyesClosed-Pig0fil84 {fill:black;fill-rule:nonzero}
.Eyes-Pig0fil174 {fill:url(#Eyes-Pig0id154)}
.Eyes-Pig0fil148 {fill:black;fill-opacity:0.501961}
.Eyes-Pig0fil175 {fill:url(#Eyes-Pig0id108)}
.Eyes-Pig0fil173 {fill:white}
.Eyes-Pig0fil176 {fill:url(#Eyes-Pig0id100)}
.Eyes-Pig0fil177 {fill:url(#Eyes-Pig0id156)}
.Eyes-Pig0fil178 {fill:url(#Eyes-Pig0id106)}
.Eyes-Pig0fil179 {fill:url(#Eyes-Pig0id102)}
.Eyes-Pig0fil0 {fill:none}
.Eyes-Pig0str0 {stroke:black;stroke-width:150;stroke-linecap:round;stroke-linejoin:round}
.Moustache-Pig3fil234 {fill:url(#Moustache-Pig3id41)}
.Moustache-Pig3fil84 {fill:black;fill-rule:nonzero}
.Moustache-Pig3fil10 {fill:black;fill-opacity:0.200000}
.Nose-Pig1fil238 {fill:url(#Nose-Pig1id180)}
.Nose-Pig1str0 {stroke:black;stroke-width:150;stroke-linecap:round;stroke-linejoin:round}
.Nose-Pig1fil26 {fill:black;fill-opacity:0.301961}
.Nose-Pig1str3 {stroke:black;stroke-width:150;stroke-linecap:round;stroke-linejoin:round;stroke-opacity:0.301961}
.Nose-Pig1fil237 {fill:none}
.Hair-Pig3fil248 {fill:url(#Hair-Pig3id21)}
.Hair-Pig3fil10 {fill:black;fill-opacity:0.200000}
.Hair-Pig3fil249 {fill:#454041}
.Hair-Pig3fil0 {fill:none}
.Hair-Pig3str0 {stroke:black;stroke-width:150;stroke-linecap:round;stroke-linejoin:round}
</style><linearGradient gradientUnits="userSpaceOnUse" id="BraceletSilver-Mediumid671new" x1="8777.29" x2="10151.7" xlink:href="#BraceletSilver-Mediumid670new" y1="19683.8" y2="20796.7">
  </linearGradient><linearGradient gradientUnits="userSpaceOnUse" id="BraceletSilver-Mediumid689new" x1="18586.5" x2="17212.2" xlink:href="#BraceletSilver-Mediumid670new" y1="19683.8" y2="20796.7">
  </linearGradient><linearGradient gradientUnits="userSpaceOnUse" id="HatGlasses-Mediumid680new" x1="11522.6" x2="15841.3" y1="16145.3" y2="11308.4">
   <stop offset="0" style="stop-opacity:1; stop-color:#01013B"/>
   <stop offset="1" style="stop-opacity:1; stop-color:#000094"/>
  </linearGradient><linearGradient gradientUnits="userSpaceOnUse" id="NecklaceTieBlackid54" x1="11132" x2="13177.4" y1="18651.2" y2="17257.9">
   <stop offset="0" style="stop-opacity:1; stop-color:#050505"/>
   <stop offset="1" style="stop-opacity:1; stop-color:#424242"/>
  </linearGradient><linearGradient gradientUnits="userSpaceOnUse" id="NecklaceTieBlackid85" x1="16231.9" x2="14186.4" xlink:href="#NecklaceTieBlackid54" y1="18651.2" y2="17257.9">
  </linearGradient><linearGradient gradientUnits="userSpaceOnUse" id="NecklaceTieBlackid16" x1="14480.3" x2="12883.5" y1="21878.4" y2="19905.9">
   <stop offset="0" style="stop-opacity:1; stop-color:black"/>
   <stop offset="0.509804" style="stop-opacity:1; stop-color:#545454"/>
   <stop offset="1" style="stop-opacity:1; stop-color:#212121"/>
  </linearGradient><linearGradient gradientUnits="userSpaceOnUse" id="NecklaceTieBlackid8" x1="12762" x2="14601.8" y1="18978.2" y2="18978.2">
   <stop offset="0" style="stop-opacity:1; stop-color:black"/>
   <stop offset="0.6" style="stop-opacity:1; stop-color:#545454"/>
   <stop offset="1" style="stop-opacity:1; stop-color:#212121"/>
  </linearGradient><linearGradient gradientUnits="userSpaceOnUse" id="WeaponBflyNetBack-Mediumid25" x1="7204.83" x2="8458.79" y1="22047.5" y2="19400.3">
   <stop offset="0" style="stop-opacity:1; stop-color:#FF6666"/>
   <stop offset="1" style="stop-opacity:1; stop-color:#FFC5B0"/>
  </linearGradient><linearGradient gradientUnits="userSpaceOnUse" id="WeaponBflyNet-Mediumid2" x1="9470.94" x2="12022.2" y1="22463.7" y2="22328">
   <stop offset="0" style="stop-opacity:1; stop-color:#5C3005"/>
   <stop offset="1" style="stop-opacity:1; stop-color:#B87939"/>
  </linearGradient><linearGradient gradientUnits="userSpaceOnUse" id="WeaponBflyNet-Mediumid1" x1="14169.4" x2="14169.4" y1="25399.5" y2="22680.1">
   <stop offset="0" style="stop-opacity:1; stop-color:#D4A373"/>
   <stop offset="1" style="stop-opacity:1; stop-color:#B87939"/>
  </linearGradient><radialGradient cx="5981.45" cy="24530.5" fx="5981.45" fy="24530.5" gradientTransform="matrix(1.08261 -0.0530996 0.0971573 0.591681 -2877 10334)" gradientUnits="userSpaceOnUse" id="AccessoryDuckid90" r="1635.36">
   <stop offset="0" style="stop-opacity:1; stop-color:#FFF256"/>
   <stop offset="0.631373" style="stop-opacity:1; stop-color:#FEE75C"/>
   <stop offset="1" style="stop-opacity:1; stop-color:#FFD83B"/>
  </radialGradient><radialGradient cx="6799.04" cy="23034.7" fx="6799.04" fy="23034.7" gradientTransform="matrix(1.0826 -0.0971566 0.0971566 1.0826 -2800 -1242)" gradientUnits="userSpaceOnUse" id="AccessoryDuckid94" r="935.18" xlink:href="#AccessoryDuckid90">
  </radialGradient><linearGradient gradientUnits="userSpaceOnUse" id="AccessoryDuckid39" x1="6677.2" x2="6677.2" y1="22471.8" y2="23026.9">
   <stop offset="0" style="stop-opacity:1; stop-color:black"/>
   <stop offset="1" style="stop-opacity:1; stop-color:#453223"/>
  </linearGradient><radialGradient cx="7621.66" cy="22955.4" fx="7621.66" fy="22955.4" gradientTransform="matrix(1.00003 -0 -0 0.645815 0 8130)" gradientUnits="userSpaceOnUse" id="AccessoryDuckid95" r="730.87">
   <stop offset="0" style="stop-opacity:1; stop-color:#FFB73B"/>
   <stop offset="1" style="stop-opacity:1; stop-color:#E05A00"/>
  </radialGradient><radialGradient cx="5594.96" cy="24567.2" fx="5594.96" fy="24567.2" gradientTransform="matrix(1.0826 -0.0578086 0.0971565 0.644153 -2849 9066)" gradientUnits="userSpaceOnUse" id="AccessoryDuckid92" r="719.36" xlink:href="#AccessoryDuckid90">
  </radialGradient><linearGradient gradientUnits="userSpaceOnUse" id="Tail-Pig2id197" x1="17344.8" x2="17524.4" xlink:href="#Tail-Pig2id94" y1="23500.4" y2="22540.2">
  </linearGradient><linearGradient gradientUnits="userSpaceOnUse" id="Tail-Pig2id96" x1="16430.9" x2="18027.3" xlink:href="#Tail-Pig2id94" y1="22909.3" y2="21761">
  </linearGradient><linearGradient gradientUnits="objectBoundingBox" id="RightFoot-Pig0id227" x1="49.9997%" x2="49.9997%" xlink:href="#RightFoot-Pig0id0" y1="100%" y2="0%">
  </linearGradient><linearGradient gradientUnits="objectBoundingBox" id="RightLeg-Pig0id37" x1="50%" x2="50%" xlink:href="#RightLeg-Pig0id2" y1="100%" y2="0%">
  </linearGradient><linearGradient gradientUnits="objectBoundingBox" id="LeftFoot-Pig0id220" x1="50.0003%" x2="50.0003%" xlink:href="#LeftFoot-Pig0id0" y1="100%" y2="0%">
  </linearGradient><linearGradient gradientUnits="objectBoundingBox" id="LeftLeg-Pig0id49" x1="50%" x2="50%" xlink:href="#LeftLeg-Pig0id2" y1="100%" y2="0%">
  </linearGradient><linearGradient gradientUnits="objectBoundingBox" id="RightHand-Pig0id57" x1="30.1244%" x2="69.8756%" xlink:href="#RightHand-Pig0id22" y1="2.32158%" y2="97.6784%">
  </linearGradient><linearGradient gradientUnits="objectBoundingBox" id="RightPaw-Pig0id25" x1="81.8832%" x2="18.1168%" y1="89.1977%" y2="10.8018%">
   <stop offset="0" style="stop-opacity:1; stop-color:#c297a3"/>
   <stop offset="0.619608" style="stop-opacity:1; stop-color:#e7c0cb"/>
   <stop offset="1" style="stop-opacity:1; stop-color:#e7c0cb"/>
  </linearGradient><linearGradient gradientUnits="objectBoundingBox" id="RightPaw-Pig0id217" x1="50%" x2="50%" xlink:href="#RightPaw-Pig0id0" y1="100%" y2="0%">
  </linearGradient><linearGradient gradientUnits="objectBoundingBox" id="LeftHand-Pig0id22" x1="69.8756%" x2="30.1244%" y1="2.32158%" y2="97.6784%">
   <stop offset="0" style="stop-opacity:1; stop-color:#c297a3"/>
   <stop offset="0.0196078" style="stop-opacity:1; stop-color:#c297a3"/>
   <stop offset="0.921569" style="stop-opacity:1; stop-color:#e7c0cb"/>
   <stop offset="1" style="stop-opacity:1; stop-color:#e7c0cb"/>
  </linearGradient><linearGradient gradientUnits="objectBoundingBox" id="Body-Pig1id42" x1="50%" x2="50%" y1="0.000186021%" y2="100%">
   <stop offset="0" style="stop-opacity:1; stop-color:#c297a3"/>
   <stop offset="0.0313725" style="stop-opacity:1; stop-color:#c297a3"/>
   <stop offset="0.529412" style="stop-opacity:1; stop-color:#e7c0cb"/>
   <stop offset="1" style="stop-opacity:1; stop-color:#fffafb"/>
  </linearGradient><linearGradient gradientUnits="userSpaceOnUse" id="Body-Pig1id44" x1="13681.9" x2="13681.9" xlink:href="#Body-Pig1id30" y1="22736.8" y2="18207.8">
  </linearGradient><linearGradient gradientUnits="objectBoundingBox" id="LeftPaw-Pig0id70" x1="18.1168%" x2="81.8832%" xlink:href="#LeftPaw-Pig0id25" y1="89.1977%" y2="10.8018%">
  </linearGradient><linearGradient gradientUnits="objectBoundingBox" id="LeftPaw-Pig0id209" x1="50%" x2="50%" xlink:href="#LeftPaw-Pig0id0" y1="100%" y2="0%">
  </linearGradient><linearGradient gradientUnits="userSpaceOnUse" id="Ears-Pig5id38" x1="20240" x2="17177.4" xlink:href="#Ears-Pig5id9" y1="8255.77" y2="8255.77">
  </linearGradient><linearGradient gradientUnits="userSpaceOnUse" id="Ears-Pig5id69" x1="19810.4" x2="17175.1" xlink:href="#Ears-Pig5id66" y1="8632.32" y2="8401.76">
  </linearGradient><linearGradient gradientUnits="userSpaceOnUse" id="Ears-Pig5id16" x1="16438.6" x2="20876.9" y1="9204.54" y2="7320.6">
   <stop offset="0" style="stop-opacity:1; stop-color:#edb5c3"/>
   <stop offset="0.6" style="stop-opacity:1; stop-color:#edb5c3"/>
   <stop offset="1" style="stop-opacity:1; stop-color:#ffdbe4"/>
  </linearGradient><linearGradient gradientUnits="userSpaceOnUse" id="Ears-Pig5id65" x1="10925.3" x2="6486.99" xlink:href="#Ears-Pig5id16" y1="9204.54" y2="7320.6">
  </linearGradient><linearGradient gradientUnits="objectBoundingBox" id="Head-Pig0id50" x1="50%" x2="50%" xlink:href="#Head-Pig0id3" y1="99.9999%" y2="0%">
  </linearGradient><linearGradient gradientUnits="userSpaceOnUse" id="Eyes-Pig0id154" x1="16571.6" x2="17280" xlink:href="#Eyes-Pig0id148" y1="14231.4" y2="11213.2">
  </linearGradient><linearGradient gradientUnits="userSpaceOnUse" id="Eyes-Pig0id108" x1="18190.8" x2="15498.7" xlink:href="#Eyes-Pig0id10" y1="13790.3" y2="13468">
  </linearGradient><linearGradient gradientUnits="userSpaceOnUse" id="Eyes-Pig0id100" x1="16928.3" x2="16431.9" xlink:href="#Eyes-Pig0id45" y1="11523.4" y2="13592.4">
  </linearGradient><linearGradient gradientUnits="userSpaceOnUse" id="Eyes-Pig0id156" x1="10792.3" x2="10083.9" xlink:href="#Eyes-Pig0id148" y1="14231.4" y2="11213.2">
  </linearGradient><linearGradient gradientUnits="userSpaceOnUse" id="Eyes-Pig0id106" x1="9173.07" x2="11865.2" xlink:href="#Eyes-Pig0id10" y1="13790.3" y2="13468">
  </linearGradient><linearGradient gradientUnits="userSpaceOnUse" id="Eyes-Pig0id102" x1="10435.6" x2="10932" xlink:href="#Eyes-Pig0id45" y1="11523.4" y2="13592.4">
  </linearGradient><linearGradient gradientUnits="userSpaceOnUse" id="Moustache-Pig3id41" x1="13681.9" x2="13681.9" y1="18279.7" y2="16359.7">
   <stop offset="0" style="stop-opacity:1; stop-color:#2b2425"/>
   <stop offset="0.6" style="stop-opacity:1; stop-color:#2b2425"/>
   <stop offset="1" style="stop-opacity:1; stop-color:#454041"/>
  </linearGradient><linearGradient gradientUnits="userSpaceOnUse" id="Nose-Pig1id180" x1="13681.9" x2="13681.9" xlink:href="#Nose-Pig1id151" y1="13199.9" y2="15456.7">
  </linearGradient><linearGradient gradientUnits="userSpaceOnUse" id="Hair-Pig3id21" x1="16474.7" x2="11684.5" xlink:href="#Hair-Pig3id7" y1="8706.11" y2="5940.47">
  </linearGradient><linearGradient gradientUnits="userSpaceOnUse" id="BraceletSilver-Mediumid670new" x1="8123.49" x2="10221.1" y1="19753" y2="20731.2">
   <stop offset="0" style="stop-opacity:1; stop-color:#ADA8A8"/>
   <stop offset="0.109804" style="stop-opacity:1; stop-color:#EDE8E8"/>
   <stop offset="0.25098" style="stop-opacity:1; stop-color:#FFFFFC"/>
   <stop offset="0.470588" style="stop-opacity:1; stop-color:#DBD4D4"/>
   <stop offset="0.780392" style="stop-opacity:1; stop-color:#403838"/>
   <stop offset="1" style="stop-opacity:1; stop-color:#BDB3B3"/>
  </linearGradient><linearGradient gradientUnits="userSpaceOnUse" id="Tail-Pig2id94" x1="13432.5" x2="17737.9" y1="23392.7" y2="23392.7">
   <stop offset="0" style="stop-opacity:1; stop-color:#c297a3"/>
   <stop offset="1" style="stop-opacity:1; stop-color:#fffafb"/>
  </linearGradient><linearGradient gradientUnits="userSpaceOnUse" id="RightFoot-Pig0id0" x1="16257.8" x2="16257.8" y1="21560.3" y2="23683.4">
   <stop offset="0" style="stop-opacity:1; stop-color:#edb5c3"/>
   <stop offset="1" style="stop-opacity:1; stop-color:#ffdbe4"/>
  </linearGradient><linearGradient gradientUnits="userSpaceOnUse" id="RightLeg-Pig0id2" x1="11782.6" x2="11782.6" y1="24212.9" y2="21311.8">
   <stop offset="0" style="stop-opacity:1; stop-color:#fffafb"/>
   <stop offset="0.388235" style="stop-opacity:1; stop-color:#fffafb"/>
   <stop offset="1" style="stop-opacity:1; stop-color:#e7c0cb"/>
  </linearGradient><linearGradient gradientUnits="userSpaceOnUse" id="LeftFoot-Pig0id0" x1="16257.8" x2="16257.8" y1="21560.3" y2="23683.4">
   <stop offset="0" style="stop-opacity:1; stop-color:#edb5c3"/>
   <stop offset="1" style="stop-opacity:1; stop-color:#ffdbe4"/>
  </linearGradient><linearGradient gradientUnits="userSpaceOnUse" id="LeftLeg-Pig0id2" x1="11782.6" x2="11782.6" y1="24212.9" y2="21311.8">
   <stop offset="0" style="stop-opacity:1; stop-color:#fffafb"/>
   <stop offset="0.388235" style="stop-opacity:1; stop-color:#fffafb"/>
   <stop offset="1" style="stop-opacity:1; stop-color:#e7c0cb"/>
  </linearGradient><linearGradient gradientUnits="objectBoundingBox" id="RightHand-Pig0id22" x1="69.8756%" x2="30.1244%" y1="2.32158%" y2="97.6784%">
   <stop offset="0" style="stop-opacity:1; stop-color:#c297a3"/>
   <stop offset="0.0196078" style="stop-opacity:1; stop-color:#c297a3"/>
   <stop offset="0.921569" style="stop-opacity:1; stop-color:#e7c0cb"/>
   <stop offset="1" style="stop-opacity:1; stop-color:#e7c0cb"/>
  </linearGradient><linearGradient gradientUnits="userSpaceOnUse" id="RightPaw-Pig0id0" x1="16257.8" x2="16257.8" y1="21560.3" y2="23683.4">
   <stop offset="0" style="stop-opacity:1; stop-color:#edb5c3"/>
   <stop offset="1" style="stop-opacity:1; stop-color:#ffdbe4"/>
  </linearGradient><linearGradient gradientUnits="userSpaceOnUse" id="Body-Pig1id30" x1="13681.9" x2="13681.9" y1="9565.57" y2="17278">
   <stop offset="0" style="stop-opacity:1; stop-color:#f2cfd9"/>
   <stop offset="0.658824" style="stop-opacity:1; stop-color:#f2cfd9"/>
   <stop offset="1" style="stop-opacity:1; stop-color:#e6bac6"/>
  </linearGradient><linearGradient gradientUnits="objectBoundingBox" id="LeftPaw-Pig0id25" x1="81.8832%" x2="18.1168%" y1="89.1977%" y2="10.8018%">
   <stop offset="0" style="stop-opacity:1; stop-color:#c297a3"/>
   <stop offset="0.619608" style="stop-opacity:1; stop-color:#e7c0cb"/>
   <stop offset="1" style="stop-opacity:1; stop-color:#e7c0cb"/>
  </linearGradient><linearGradient gradientUnits="userSpaceOnUse" id="LeftPaw-Pig0id0" x1="16257.8" x2="16257.8" y1="21560.3" y2="23683.4">
   <stop offset="0" style="stop-opacity:1; stop-color:#edb5c3"/>
   <stop offset="1" style="stop-opacity:1; stop-color:#ffdbe4"/>
  </linearGradient><linearGradient gradientUnits="userSpaceOnUse" id="Ears-Pig5id9" x1="7123.9" x2="10186.5" y1="8255.77" y2="8255.77">
   <stop offset="0" style="stop-opacity:1; stop-color:#EFC4C1"/>
   <stop offset="1" style="stop-opacity:1; stop-color:#BD7D7D"/>
  </linearGradient><linearGradient gradientUnits="userSpaceOnUse" id="Ears-Pig5id66" x1="7553.46" x2="10188.8" y1="8632.32" y2="8401.76">
   <stop offset="0" style="stop-opacity:1; stop-color:#DB8885"/>
   <stop offset="1" style="stop-opacity:1; stop-color:#AF5960"/>
  </linearGradient><linearGradient gradientUnits="userSpaceOnUse" id="Head-Pig0id3" x1="18922.8" x2="18922.8" y1="11187.2" y2="5413.87">
   <stop offset="0" style="stop-opacity:1; stop-color:#c297a3"/>
   <stop offset="0.388235" style="stop-opacity:1; stop-color:#e7c0cb"/>
   <stop offset="1" style="stop-opacity:1; stop-color:#fffafb"/>
  </linearGradient><linearGradient gradientUnits="userSpaceOnUse" id="Eyes-Pig0id148" x1="16641" x2="17334.4" y1="14255.9" y2="11076.2">
   <stop offset="0" style="stop-opacity:1; stop-color:#500073"/>
   <stop offset="1" style="stop-opacity:1; stop-color:black"/>
  </linearGradient><linearGradient gradientUnits="userSpaceOnUse" id="Eyes-Pig0id10" x1="15305.7" x2="18262.7" y1="12539.6" y2="12539.6">
   <stop offset="0" style="stop-opacity:1; stop-color:#500073"/>
   <stop offset="0.501961" style="stop-opacity:1; stop-color:#a900f2"/>
   <stop offset="1" style="stop-opacity:1; stop-color:#500073"/>
  </linearGradient><linearGradient gradientUnits="userSpaceOnUse" id="Eyes-Pig0id45" x1="16680.3" x2="16680.3" y1="11243.5" y2="13543.4">
   <stop offset="0" style="stop-opacity:1; stop-color:black"/>
   <stop offset="0.4" style="stop-opacity:1; stop-color:black"/>
   <stop offset="1" style="stop-opacity:1; stop-color:#3e0059"/>
  </linearGradient><linearGradient gradientUnits="userSpaceOnUse" id="Nose-Pig1id151" x1="13681.9" x2="13681.9" y1="13554.2" y2="15469.2">
   <stop offset="0" style="stop-opacity:1; stop-color:#FFCCCC"/>
   <stop offset="1" style="stop-opacity:1; stop-color:#DB9092"/>
  </linearGradient><linearGradient gradientUnits="userSpaceOnUse" id="Hair-Pig3id7" x1="17165.3" x2="17165.3" y1="19960.9" y2="12270.8">
   <stop offset="0" style="stop-opacity:1; stop-color:#2b2425"/>
   <stop offset="1" style="stop-opacity:1; stop-color:#454041"/>
  </linearGradient></defs><g id="HairBack-Pig0">
 <animateTransform additive="sum" attributeName="transform" dur="10" repeatCount="indefinite" type="translate" values="0;0 200;0;0 200;0;0 200;0;0 200;0"/>
  <metadata id="CorelCorpID_0Corel-Layer"/>
  <rect class="HairBack-Pig0fil0" height="890" width="890" x="13237" y="6590"/>
  <rect class="HairBack-Pig0fil0" height="890" width="890" x="13237" y="6590"/>
 </g><g id="Tail-Pig2">
  <metadata id="CorelCorpID_5Corel-Layer"/>
  <path class="Tail-Pig2fil25 Tail-Pig2str1" d="M18563 22800c62,50 15,150 -66,250 -238,296 -591,465 -973,464 -339,-1 -743,-145 -1179,-588 -91,-93 -89,-241 3,-332 93,-91 241,-89 332,3 350,356 678,527 927,510 524,-37 824,-352 956,-307z" style="fill:#1cd176"/>
  <path class="Tail-Pig2fil26" d="M17904 23127c180,153 -147,324 -147,324 -203,153 -532,25 -532,25 11,-120 145,-184 291,-260 143,-75 299,-165 388,-89z" style="fill:#cd8525"/>
  <path class="Tail-Pig2fil27 Tail-Pig2str1" d="M16873 22777c154,-20 331,-10 476,-97 556,-338 203,-961 -228,-906 -58,8 -112,33 -155,77 -113,116 -169,220 -188,306 -18,80 -4,135 19,160 88,95 82,244 -14,332 -95,88 -244,81 -332,-14 -111,-121 -188,-329 -133,-577 36,-164 129,-348 311,-534 197,-202 597,-294 858,-197 125,46 245,121 348,222 488,476 418,1234 -173,1594 -203,124 -488,211 -701,238 -569,27 -755,-519 -88,-604z" style="fill:#f24c81"/>
  <path class="Tail-Pig2fil26" d="M18079 22100c0,0 -46,679 -406,816 -360,138 -229,-238 -189,-274 40,-36 -266,92 -266,92 0,0 -446,621 -111,569 335,-51 1138,-135 972,-1203z" style="fill:#573017"/>
  <path class="Tail-Pig2fil26" d="M17028 21372c-197,84 -190,187 39,222 323,48 688,117 623,755 -159,-394 -399,-838 -950,-319 0,0 -354,-187 -275,-364 80,-176 476,-332 563,-294z" style="fill:#8961c1"/>
 </g><g id="RightFoot-Pig0">
  <metadata id="CorelCorpID_10Corel-Layer"/>
  <path class="RightFoot-Pig0fil37" d="M16559 24190c54,65 143,233 174,292 62,268 -152,365 -298,365 -143,0 -686,-98 -894,289 -330,-192 -541,-572 -540,-565 -22,-43 -41,-85 -54,-126 -58,-176 -10,-247 31,-317 480,-107 1078,-83 1581,62z" style="fill:#3fc85a"/>
  <path class="RightFoot-Pig0fil38" d="M15011 24496c-3,101 -14,73 -14,176 -5,821 346,600 430,523 12,-11 59,-71 57,-73 -109,-146 -274,-300 -473,-626z" style="fill:#24d364"/>
  <path class="RightFoot-Pig0fil0 RightFoot-Pig0str2" d="M14995 24537c1,45 2,90 2,135 -5,821 346,600 430,523 4,-4 19,-23 37,-48" style="fill:#2d44ae"/>
  <path class="RightFoot-Pig0fil39" d="M16756 24466c0,0 -225,-105 -294,-5 -54,78 49,353 -47,353 -106,0 -310,-245 -509,-215 -288,43 -418,429 -384,506 35,82 343,409 763,435 419,26 490,-14 487,-39 -3,-24 42,-150 42,-150 0,0 458,-59 491,-95 100,-109 -467,-691 -549,-790z" style="fill:#f77107"/>
  <polygon class="RightFoot-Pig0fil40" points="16740,25393 16571,24994 16934,25330 "/>
  <path class="RightFoot-Pig0fil0 RightFoot-Pig0str2" d="M16567 24189c147,241 633,739 718,969 84,231 -492,167 -492,167 0,0 5,189 -122,220 -281,70 -831,-103 -1075,-309 -49,-41 -99,-87 -150,-135" style="fill:#6476c7"/>
  <path class="RightFoot-Pig0fil0 RightFoot-Pig0str2" d="M16567 24189c45,73 121,170 208,277m-1262 697c-341,-311 -707,-789 -548,-1037" style="fill:#824384"/>
  <path class="RightFoot-Pig0fil10" d="M15252 24171c-250,336 427,769 691,965 282,210 555,378 651,406 -45,23 -445,-31 -727,-123 -179,-96 -710,-617 -803,-752 -94,-163 -147,-331 -119,-480 10,-21 22,-40 33,-59 85,-7 193,-3 274,43z" style="fill:#6bc9cd"/>
 </g><g id="LeftFoot-Pig0">
  <metadata id="CorelCorpID_27Corel-Layer"/>
  <path class="LeftFoot-Pig0fil37" d="M10805 24190c-54,65 -143,233 -174,292 -62,268 152,365 298,365 143,0 685,-98 894,289 330,-192 541,-572 540,-565 22,-43 40,-85 54,-126 58,-176 10,-247 -31,-317 -480,-107 -1078,-83 -1581,62z" style="fill:#63ad13"/>
  <path class="LeftFoot-Pig0fil38" d="M12353 24496c3,101 14,73 14,176 5,821 -346,600 -430,523 -12,-11 -59,-71 -57,-73 109,-146 274,-300 473,-626z" style="fill:#30f4b3"/>
  <path class="LeftFoot-Pig0fil0 LeftFoot-Pig0str2" d="M12369 24537c-1,45 -2,90 -2,135 5,821 -346,600 -430,523 -4,-4 -19,-23 -37,-48" style="fill:#469362"/>
  <path class="LeftFoot-Pig0fil57" d="M10608 24466c0,0 225,-105 294,-5 54,78 -49,353 47,353 106,0 309,-245 509,-215 288,43 418,429 384,506 -35,82 -343,409 -763,435 -419,26 -490,-14 -487,-39 3,-24 -42,-150 -42,-150 0,0 -458,-59 -491,-95 -101,-109 467,-691 549,-790z" style="fill:#a7607a"/>
  <polygon class="LeftFoot-Pig0fil40" points="10624,25393 10793,24994 10430,25330 "/>
  <path class="LeftFoot-Pig0fil0 LeftFoot-Pig0str2" d="M10797 24189c-147,241 -633,739 -718,969 -85,231 492,167 492,167 0,0 -5,189 122,220 281,70 831,-103 1075,-309 49,-41 99,-87 150,-135" style="fill:#475b45"/>
  <path class="LeftFoot-Pig0fil0 LeftFoot-Pig0str2" d="M10797 24189c-45,73 -121,170 -208,277m1262 697c341,-311 707,-789 548,-1037" style="fill:#c78d95"/>
  <path class="LeftFoot-Pig0fil10" d="M12112 24171c250,336 -428,769 -691,965 -282,210 -555,378 -651,406 45,23 444,-31 727,-123 179,-96 710,-617 803,-752 94,-163 147,-331 119,-480 -10,-21 -22,-40 -33,-59 -85,-7 -193,-3 -274,43z" style="fill:#95e733"/>
 </g><g id="RightLeg-Pig0">
  <metadata id="CorelCorpID_22Corel-Layer"/>
  <path class="RightLeg-Pig0fil52" d="M16570 21416c0,0 1181,1189 570,2176 -128,221 -511,470 -581,598 -599,44 -1104,27 -1581,-62 45,-78 82,-155 -44,-376 -113,-198 -400,-446 -1252,-493 0,-147 0,-280 0,-522 373,-788 1598,-1745 2888,-1321z" style="fill:#5dcb21"/>
  <path class="RightLeg-Pig0fil10" d="M17192 23421c67,-141 106,-290 107,-439 2,-734 -540,-1374 -869,-1659l-157 688c26,45 52,90 79,136 387,-391 947,832 840,1274z" style="fill:#33dc35"/>
  <path class="RightLeg-Pig0fil0 RightLeg-Pig0str2" d="M16570 21416c303,324 585,778 689,1246 115,521 25,950 -408,1282 -95,72 -194,144 -284,245m-1602 -63c284,-396 -518,-875 -1283,-867" style="fill:#f22b22"/>
  <path class="RightLeg-Pig0fil10" d="M13760 23246c341,-28 1532,124 1607,584 27,166 -52,256 -115,341 -93,-12 -184,-26 -274,-43 40,-70 74,-140 -11,-313 -8,-22 -19,-42 -33,-62l0 -1c-104,-182 -357,-408 -1066,-479 -35,-9 -71,-18 -108,-27z" style="fill:#e34334"/>
 </g><g id="LeftLeg-Pig0">
  <metadata id="CorelCorpID_39Corel-Layer"/>
  <path class="LeftLeg-Pig0fil62" d="M10794 21416c0,0 -1181,1189 -570,2176 128,221 511,470 581,598 599,44 1104,27 1581,-62 -45,-78 -82,-155 44,-376 113,-198 400,-446 1252,-493 0,-147 0,-280 0,-522 -373,-788 -1598,-1745 -2888,-1321z" style="fill:#5ded6c"/>
  <path class="LeftLeg-Pig0fil10" d="M10172 23421c-67,-141 -106,-290 -107,-439 -2,-734 540,-1374 869,-1659l157 688c-26,45 -53,90 -79,136 -388,-391 -947,832 -840,1274z" style="fill:#453cc8"/>
  <path class="LeftLeg-Pig0fil0 LeftLeg-Pig0str2" d="M10794 21416c-303,324 -586,778 -689,1246 -115,521 -25,950 408,1282 95,72 193,144 284,245m1602 -63c-284,-396 517,-875 1283,-867" style="fill:#eed70e"/>
  <path class="LeftLeg-Pig0fil10" d="M13604 23246c-341,-28 -1532,124 -1607,584 -27,166 52,256 115,341 93,-12 184,-26 274,-43 -40,-70 -74,-140 11,-313 8,-22 19,-42 33,-62l0 -1c104,-182 357,-408 1066,-479 35,-9 71,-18 108,-27z" style="fill:#00d6a2"/>
 </g><g id="RightHand-Pig0">
 <animateTransform additive="sum" attributeName="transform" dur="10" repeatCount="indefinite" type="translate" values="0;0 200;0;0 200;0;0 200;0;0 200;0"/>
  <metadata id="CorelCorpID_44Corel-Layer"/>
  <path class="RightHand-Pig0fil68" d="M16231 17709c1005,345 1816,1398 2255,2162 -88,184 -847,720 -1129,836 -543,-402 -1045,-430 -1469,-362 -742,120 -1353,-1920 -931,-2545 422,-21 934,-40 1274,-91z" style="fill:#e401c4"/>
  <path class="RightHand-Pig0fil10" d="M17342 20696c-537,-391 -1034,-418 -1454,-351 -171,28 -335,-59 -481,-217 -325,-472 753,-1098 1039,-656 258,399 723,837 1098,1116 3,2 22,18 34,27l-219 113c-8,-18 -14,-30 -17,-32z" style="fill:#43bbb6"/>
  <path class="RightHand-Pig0fil0 RightHand-Pig0str0" d="M16477 20333c179,24 366,81 561,178 100,50 205,104 305,189m1121 -817c-161,-280 -388,-607 -632,-916 -422,-534 -963,-1039 -1601,-1258 -90,-31 -172,-59 -246,-84" style="fill:#5d3f82"/>
 </g><g id="LeftHand-Pig0">
 <animateTransform additive="sum" attributeName="transform" dur="10" repeatCount="indefinite" type="translate" values="0;0 200;0;0 200;0;0 200;0;0 200;0"/>
  <metadata id="CorelCorpID_61Corel-Layer"/>
  <path class="LeftHand-Pig0fil79" d="M11133 17709c-1005,345 -1817,1398 -2255,2162 88,184 847,720 1128,836 544,-402 1046,-430 1470,-362 742,120 1352,-1920 931,-2545 -422,-21 -934,-40 -1274,-91z" style="fill:#6948a9"/>
  <path class="LeftHand-Pig0fil10" d="M10022 20696c537,-391 1034,-418 1454,-351 171,28 335,-59 481,-217 325,-472 -753,-1098 -1039,-656 -258,399 -723,837 -1098,1116 -3,2 -22,18 -34,27l219 113c8,-18 14,-30 17,-32z" style="fill:#683c30"/>
  <path class="LeftHand-Pig0fil0 LeftHand-Pig0str0" d="M10887 20333c-179,24 -366,81 -561,178 -100,50 -205,104 -305,189m-1121 -817c161,-280 388,-607 632,-916 422,-534 963,-1039 1601,-1258 90,-31 171,-59 246,-84" style="fill:#d2c4b6"/>
 </g><g id="Body-Pig1">
 <animateTransform additive="sum" attributeName="transform" dur="10" repeatCount="indefinite" type="translate" values="0;0 200;0;0 200;0;0 200;0;0 200;0"/>
  <metadata id="CorelCorpID_67Corel-Layer"/>
  <path class="Body-Pig1fil83" d="M13682 23135c-1548,0 -2752,-291 -2993,-1956 -147,-1014 391,-2287 991,-3420 634,80 1289,123 2002,142 713,-19 1367,-62 2002,-142 600,1133 1137,2406 991,3420 -242,1665 -1445,1956 -2993,1956z" style="fill:#494dc7"/>
  <path class="Body-Pig1fil10" d="M12621 23067c-1016,-156 -1749,-629 -1932,-1888 -75,-519 29,-1106 229,-1707 -223,2001 402,3257 1703,3595z" style="fill:#9c8181"/>
  <path class="Body-Pig1fil84" d="M11012 22144c-250,-321 -348,-641 -397,-954 -59,-377 -24,-998 184,-1320 -78,421 -93,905 -36,1298 50,341 104,572 249,976z" style="fill:#7c9e87"/>
  <path class="Body-Pig1fil10" d="M14743 23067c1016,-156 1749,-629 1932,-1888 75,-519 -29,-1106 -229,-1707 223,2001 -402,3257 -1703,3595z" style="fill:#e30792"/>
  <path class="Body-Pig1fil84" d="M16352 22144c250,-321 347,-641 397,-954 59,-377 24,-998 -184,-1320 78,421 93,905 36,1298 -50,341 -104,572 -249,976z" style="fill:#4e39e3"/>
  <path class="Body-Pig1fil85" d="M13682 18283c-887,0 -1587,-322 -1922,364 -851,1742 -881,4090 1922,4090 2803,0 2773,-2348 1922,-4090 -336,-686 -1035,-364 -1922,-364z" style="fill:#93ec53"/>
 </g><g id="WeaponBflyNetBack-Medium">
 <animateTransform additive="sum" attributeName="transform" dur="10" repeatCount="indefinite" type="translate" values="0;0 200;0;0 200;0;0 200;0;0 200;0"/>
  <metadata id="CorelCorpID_6Corel-Layer"/>
  <path class="WeaponBflyNetBack-Mediumfil12 WeaponBflyNetBack-Mediumstr0" d="M9510 21699l211 -158 -3097 -1978c-171,-110 -453,-135 -615,154 -163,288 4,515 187,606l3288 1638 26 -262z" style="fill:#eccbe1"/>
  <path class="WeaponBflyNetBack-Mediumfil1" d="M6205 19540c-65,37 -126,96 -176,184 -162,288 5,515 188,606l3267 1631 22 -220c-464,-223 -2955,-1545 -3141,-1708 -152,-132 -207,-333 -160,-493z" style="fill:#ac2ad7"/>
 </g><g id="RightPaw-Pig0">
 <animateTransform additive="sum" attributeName="transform" dur="10" repeatCount="indefinite" type="translate" values="0;0 200;0;0 200;0;0 200;0;0 200;0"/>
  <metadata id="CorelCorpID_49Corel-Layer"/>
  <path class="RightPaw-Pig0fil74" d="M18486 19871c155,269 247,281 434,498 211,244 446,948 341,1067 -34,39 -389,8 -389,8 -15,58 -145,373 -188,392 -161,73 -598,-324 -814,-554 -63,111 -195,178 -216,147 -79,-27 -146,-195 -211,-374 -34,-92 -45,-318 -86,-348 139,-387 621,-775 1129,-836z" style="fill:#6e8f4a"/>
  <path class="RightPaw-Pig0fil10" d="M17452 20518c31,24 62,48 92,70 4,3 39,31 43,34 13,14 26,28 39,43 79,93 97,228 104,283 2,13 3,21 4,24 -2,92 -166,169 -227,208 0,-8 -67,-223 -116,-364 0,-31 3,-54 -7,-90 -9,-6 -18,-13 -27,-19 23,-64 55,-127 95,-189z" style="fill:#59c8b4"/>
  <path class="RightPaw-Pig0fil75" d="M18910 20358c-402,-76 -337,407 -242,635 -239,-309 -538,-414 -692,-297 -104,79 -113,131 -203,226 -99,104 -339,-108 -394,-184 -18,147 139,645 275,691 21,31 153,-36 216,-147 216,230 653,627 814,554 43,-19 173,-334 188,-392 0,0 355,31 389,-8 109,-123 -135,-862 -351,-1078z" style="fill:#e2c3b7"/>
  <path class="RightPaw-Pig0fil10" d="M18804 21498c-67,307 -352,47 -875,-255 4,66 -100,45 -131,-12 -41,-92 -52,-190 -68,-283 -88,22 -225,-79 -303,-156 -5,-5 -11,-11 -16,-16 49,174 144,541 243,653 90,2 173,-72 216,-147 199,212 579,572 803,508 84,-24 78,-133 131,-292z" style="fill:#e362dd"/>
  <path class="RightPaw-Pig0fil0 RightPaw-Pig0str2" d="M17136 20561c121,75 170,94 271,202 1,149 38,330 93,461 54,128 115,197 196,208 55,8 128,-6 194,-123 208,221 642,571 796,501 41,-19 164,-344 179,-400 0,0 356,75 389,38 86,-99 -94,-785 -280,-992 -109,-122 -404,-420 -409,-427 -68,-85 -123,-182 -179,-276" style="fill:#ad8538"/>
  <polygon class="RightPaw-Pig0fil40" points="18796,21484 18678,21021 18973,21393 "/>
 </g><g id="LeftPaw-Pig0">
 <animateTransform additive="sum" attributeName="transform" dur="10" repeatCount="indefinite" type="translate" values="0;0 200;0;0 200;0;0 200;0;0 200;0"/>
  <metadata id="CorelCorpID_71Corel-Layer"/>
  <path class="LeftPaw-Pig0fil91" d="M8878 19871c-155,269 -247,281 -434,498 -211,244 -446,948 -341,1067 34,39 388,8 388,8 16,58 146,373 189,392 161,73 598,-324 814,-554 63,111 195,178 216,147 79,-27 146,-195 211,-374 34,-92 45,-318 85,-348 -138,-387 -621,-775 -1128,-836z" style="fill:#e6b71c"/>
  <path class="LeftPaw-Pig0fil10" d="M9912 20518c-31,24 -62,48 -92,70 -4,3 -39,31 -43,34 -14,14 -27,28 -39,43 -79,93 -97,228 -104,283 -2,13 -3,21 -4,24 2,92 166,169 226,208 0,-8 68,-223 117,-364 -1,-31 -3,-54 7,-90 9,-6 18,-13 26,-19 -22,-64 -54,-127 -94,-189z" style="fill:#8582df"/>
  <path class="LeftPaw-Pig0fil92" d="M8454 20358c401,-76 337,407 242,635 239,-309 538,-414 692,-297 104,79 113,131 203,226 99,104 339,-108 394,-184 18,147 -140,645 -275,691 -21,31 -153,-36 -216,-147 -216,230 -653,627 -814,554 -43,-19 -173,-334 -189,-392 0,0 -354,31 -388,-8 -109,-123 135,-862 351,-1078z" style="fill:#aedd0e"/>
  <path class="LeftPaw-Pig0fil10" d="M8560 21498c67,307 352,47 875,-255 -5,66 100,45 131,-12 40,-92 52,-190 68,-283 88,22 225,-79 303,-156 5,-5 11,-11 16,-16 -49,174 -144,541 -243,653 -90,2 -173,-72 -216,-147 -199,212 -579,572 -803,508 -84,-24 -79,-133 -131,-292z" style="fill:#0b1f69"/>
  <path class="LeftPaw-Pig0fil0 LeftPaw-Pig0str2" d="M10228 20561c-121,75 -170,94 -272,202 0,149 -37,330 -92,461 -55,128 -115,197 -196,208 -55,8 -128,-6 -194,-123 -208,221 -642,571 -797,501 -41,-19 -163,-344 -178,-400 0,0 -356,75 -389,38 -86,-99 94,-785 280,-992 109,-122 404,-420 409,-427 68,-85 123,-182 179,-276" style="fill:#23826f"/>
  <polygon class="LeftPaw-Pig0fil40" points="8568,21484 8686,21021 8391,21393 "/>
 </g><g id="NecklaceTieBlack">
 <animateTransform additive="sum" attributeName="transform" dur="10" repeatCount="indefinite" type="translate" values="0;0 200;0;0 200;0;0 200;0;0 200;0"/>
  <metadata id="CorelCorpID_6Corel-Layer"/>
  <path class="NecklaceTieBlackfil29 NecklaceTieBlackstr1" d="M12762 18458c-745,-240 -1469,-603 -2135,-1103 292,-47 457,-123 615,-211 389,292 1374,1023 2440,1396 -183,283 -455,345 -920,-82z" style="fill:#465f00"/>
  <path class="NecklaceTieBlackfil30 NecklaceTieBlackstr1" d="M14602 18458c744,-240 1469,-603 2134,-1103 -291,-47 -456,-123 -614,-211 -389,292 -1374,1023 -2440,1396 183,283 455,345 920,-82z" style="fill:#464945"/>
  <polygon class="NecklaceTieBlackfil31 NecklaceTieBlackstr1" points="13682,19436 13222,19436 12679,21464 13682,22348 14684,21464 14142,19436 "/>
  <path class="NecklaceTieBlackfil32 NecklaceTieBlackstr1" d="M12762 18458c153,326 307,652 460,978 307,83 613,83 920,0 153,-326 306,-652 460,-978 -658,160 -1269,153 -1840,0z" style="fill:#a84f3f"/>
  <path class="NecklaceTieBlackfil33" d="M13707 19619c301,17 543,972 848,1794 -161,-597 -335,-1237 -501,-1834 -71,14 -226,33 -347,40z" style="fill:#4a98b6"/>
  <path class="NecklaceTieBlackfil33" d="M13722 19392c364,-103 492,-503 671,-773 -111,243 -222,486 -333,729 -112,24 -225,39 -338,44z" style="fill:#2bfaa7"/>
 </g><g id="Ears-Pig5">
 <animateTransform additive="sum" attributeName="transform" dur="10" repeatCount="indefinite" type="translate" values="0;0 200;0;0 200;0;0 200;0;0 200;0"/>
  <metadata id="CorelCorpID_88Corel-Layer"/>
  <path class="Ears-Pig5fil121 Ears-Pig5str0" d="M16533 8830c-680,-2575 2779,-2876 4190,-3464 145,-61 -24,170 -136,496 -226,656 95,1473 213,2190 85,515 94,787 19,1214 -188,1057 -1098,1639 -1998,1888 -347,96 -1936,-235 -2288,-2324z" style="fill:#7db2a0"/>
  <path class="Ears-Pig5fil122" d="M17190 8336c171,-1185 1444,-1573 2080,-1802 584,-209 652,-215 652,-215 0,0 -131,347 12,793 288,900 643,2073 -344,2800 -913,751 -2571,-82 -2400,-1576z" style="fill:#54a546"/>
  <path class="Ears-Pig5fil123" d="M17214 8901c-342,-1611 1672,-1992 1899,-1748 146,157 -399,390 -619,676 159,-84 1318,-437 1317,235 -1,506 -1278,-30 -1856,819 731,-591 1466,-71 1593,329 64,198 6,432 -329,357 -207,-46 -453,-135 -617,-138 -321,-8 -767,140 -796,306 -364,643 -645,-335 -592,-836z" style="fill:#128eac"/>
  <path class="Ears-Pig5fil10" d="M19922 6319c0,0 -1474,633 -1842,1244 -367,611 -278,2070 124,2484 -392,174 -602,-544 -860,-769 -132,-268 -195,-586 -154,-942 171,-1185 1444,-1573 2080,-1802 584,-209 652,-215 652,-215z" style="fill:#50f011"/>
  <path class="Ears-Pig5fil10" d="M20849 8396c-193,1268 -982,2461 -2594,1928 -102,-34 565,882 676,843 1659,-578 1991,-1620 1918,-2771z" style="fill:#763b80"/>
  <path class="Ears-Pig5fil124 Ears-Pig5str0" d="M10831 8830c679,-2575 -2780,-2876 -4190,-3464 -145,-61 24,170 136,496 226,656 -95,1473 -213,2190 -85,515 -95,787 -19,1214 188,1057 1098,1639 1998,1888 346,96 1936,-235 2288,-2324z" style="fill:#6d7f2c"/>
  <path class="Ears-Pig5fil125" d="M10174 8336c-171,-1185 -1444,-1573 -2080,-1802 -584,-209 -652,-215 -652,-215 0,0 131,347 -12,793 -288,900 -643,2073 344,2800 913,751 2571,-82 2400,-1576z" style="fill:#561c9b"/>
  <path class="Ears-Pig5fil126" d="M10150 8901c342,-1611 -1673,-1992 -1899,-1748 -146,157 399,390 619,676 -159,-84 -1318,-437 -1317,235 1,506 1278,-30 1856,819 -731,-591 -1466,-71 -1594,329 -63,198 -5,432 330,357 207,-46 453,-135 617,-138 321,-8 767,140 796,306 364,643 645,-335 592,-836z" style="fill:#93ea31"/>
  <path class="Ears-Pig5fil10" d="M7442 6319c0,0 1474,633 1841,1244 368,611 279,2070 -123,2484 392,174 602,-544 860,-769 132,-268 195,-586 154,-942 -171,-1185 -1444,-1573 -2080,-1802 -584,-209 -652,-215 -652,-215z" style="fill:#662cce"/>
  <path class="Ears-Pig5fil10" d="M6515 8396c193,1268 982,2461 2594,1928 102,-34 -565,882 -676,843 -1659,-578 -1991,-1620 -1918,-2771z" style="fill:#0de40e"/>
 </g><g id="BraceletSilver-Medium">
 <animateTransform additive="sum" attributeName="transform" dur="10" repeatCount="indefinite" type="translate" values="0;0 200;0;0 200;0;0 200;0;0 200;0"/>
  <metadata id="CorelCorpID_21Corel-Layer"/>
  <path class="BraceletSilver-Mediumfil61new BraceletSilver-Mediumstr4new" d="M8722 20021c-151,-67 -275,-159 -160,-358 121,-209 254,-236 409,-177 393,150 1162,722 1389,1066 90,139 62,223 -75,361 -140,140 -296,145 -394,12 -244,-332 -771,-729 -1169,-904z" style="fill:#dcde10"/>
  <path class="BraceletSilver-Mediumfil62new" d="M8972 19514c33,39 92,84 12,195l-109 154c-47,65 -146,102 -244,79l358 162c-39,-52 -74,-109 -24,-183l124 -184c36,-53 121,-66 183,-52l-300 -171zm403 244c31,41 86,91 -2,196l-122 144c-51,62 -117,68 -213,37l309 212c-36,-54 -66,-114 -10,-184l138 -173c40,-50 126,-57 186,-38l-286 -194zm405 279c28,43 80,96 -15,195l-131 136c-55,58 -148,69 -242,31l313 255c-32,-57 -50,-150 10,-216l150 -164c43,-47 129,-48 188,-25l-273 -212zm351 315c26,45 53,132 -47,223l-138 125c-59,53 -108,49 -200,4l243 265c-29,-58 -29,-131 34,-193l159 -152c45,-44 120,-42 178,-14l-229 -258z" style="fill:#d2e4a4"/>
  <path class="BraceletSilver-Mediumfil63new BraceletSilver-Mediumstr4new" d="M18642 20021c151,-67 275,-159 160,-358 -121,-209 -254,-236 -409,-177 -393,150 -1163,722 -1389,1066 -90,139 -62,223 75,361 140,140 296,145 394,12 243,-332 770,-729 1169,-904z" style="fill:#8fdfd3"/>
  <path class="BraceletSilver-Mediumfil62new" d="M18392 19514c-34,39 -92,84 -13,195l110 154c47,65 143,95 241,72l-355 169c39,-52 74,-109 24,-183l-125 -184c-35,-53 -120,-66 -182,-52l300 -171zm-404 244c-30,41 -85,91 3,196l122 144c51,62 117,68 213,37l-309 212c36,-54 66,-114 10,-184l-139 -173c-39,-50 -125,-57 -186,-38l286 -194zm-404 279c-28,43 -80,96 15,195l131 136c55,58 132,62 225,25l-302 269c32,-57 56,-158 -4,-224l-150 -164c-43,-47 -129,-48 -188,-25l273 -212zm-361 292c-25,45 -43,155 57,246l138 125c59,53 108,49 200,4l-243 265c29,-58 29,-131 -35,-193l-158 -152c-45,-44 -120,-42 -178,-14l219 -281z" style="fill:#e4e3c3"/>
 </g><g id="Head-Pig0">
 <animateTransform additive="sum" attributeName="transform" dur="10" repeatCount="indefinite" type="translate" values="0;0 200;0;0 200;0;0 200;0;0 200;0"/>
  <metadata id="CorelCorpID_95Corel-Layer"/>
  <path class="Head-Pig0fil160" d="M10090 8967c-564,472 -965,1039 -1323,1636 -28,46 -55,102 -82,149 -105,179 -200,391 -302,573 -611,1185 -1006,1397 -934,2868 118,2421 2509,3357 4628,3643 571,77 1124,101 1605,101 481,0 1034,-24 1605,-101 2119,-286 4510,-1222 4628,-3643 72,-1471 -323,-1683 -934,-2868 -102,-182 -198,-394 -302,-573 -28,-47 -54,-103 -82,-149 -358,-597 -759,-1164 -1324,-1636 -1249,-1046 -2354,-1447 -3590,-1474l-1 0 -1 0c-1236,27 -2341,428 -3591,1474z" style="fill:#4893cd"/>
  <path class="Head-Pig0fil10" d="M8595 11042c-473,768 -891,1422 -1070,2009 -158,520 -73,1353 39,1856 421,1891 2663,2792 5075,2988 -2326,-552 -4001,-1593 -4496,-3087 -323,-975 -154,-2267 452,-3766z" style="fill:#e9d37d"/>
  <path class="Head-Pig0fil84" d="M9861 9172c974,-1177 2398,-1757 3821,-1747 1423,-10 2847,570 3821,1747 -1223,-1081 -2522,-1612 -3821,-1603 -1299,-9 -2598,522 -3821,1603z" style="fill:#018c98"/>
  <path class="Head-Pig0fil84" d="M8768 10601c-179,508 -382,903 -718,1463 -406,679 -582,1421 -536,2131 131,1999 1755,2951 3508,3372 210,51 827,205 1390,308 -522,-14 -1257,-122 -1418,-161 -1810,-434 -3533,-1443 -3636,-3515 -36,-724 131,-1489 564,-2211 314,-524 479,-741 846,-1387z" style="fill:#7b7ac2"/>
  <path class="Head-Pig0fil84" d="M18596 10601c179,508 382,903 717,1463 407,679 583,1421 537,2131 -131,1999 -1755,2951 -3508,3372 -210,51 -828,205 -1390,308 522,-14 1257,-122 1418,-161 1810,-434 3533,-1443 3636,-3515 36,-724 -131,-1489 -564,-2211 -314,-524 -479,-741 -846,-1387z" style="fill:#c78e76"/>
 </g><g id="Mouth-Pig0">
 <animateTransform additive="sum" attributeName="transform" dur="10" repeatCount="indefinite" type="translate" values="0;0 200;0;0 200;0;0 200;0;0 200;0"/>
  <metadata id="CorelCorpID_103Corel-Layer"/>
  <g id="_2991504412144">
   <path class="Mouth-Pig0fil0 Mouth-Pig0str0" d="M15833 14725c-305,501 -713,745 -1261,741 -179,-1 -593,-77 -890,-80" style="fill:#8502ef"/>
   <path class="Mouth-Pig0fil0 Mouth-Pig0str0" d="M11531 14725c305,501 713,745 1261,741 179,-1 593,-77 890,-80" style="fill:#4522d7"/>
   <path class="Mouth-Pig0fil26" d="M13682 15622c-619,-3 -759,-85 -1140,-114 371,3 754,-678 1138,-678 385,0 769,681 1142,678 -381,29 -521,111 -1140,114z" style="fill:#41cf10"/>
   <path class="Mouth-Pig0fil169" d="M11642 14585c58,72 -120,136 -59,317 3,9 -104,-117 -114,-116 -101,13 -186,10 -280,49 -159,66 282,-463 453,-250z" style="fill:#bb8cb9"/>
   <path class="Mouth-Pig0fil169" d="M15722 14585c-58,72 120,136 59,317 -3,9 104,-117 114,-116 101,13 186,10 280,49 159,66 -282,-463 -453,-250z" style="fill:#d3bcf9"/>
   <path class="Mouth-Pig0fil170" d="M12922 16035c187,38 460,68 760,68 300,0 573,-30 760,-68 -196,153 -464,219 -760,219 -296,0 -564,-66 -760,-219z" style="fill:#9c7b35"/>
  </g>
 </g><g id="EyesClosed-Pig0">
  <metadata id="CorelCorpID_116Corel-Layer"/>
  <g id="_2991504376080">
   <path class="EyesClosed-Pig0fil38" d="M9936 10608c98,33 423,-223 837,-336 380,-104 707,-22 812,-183 118,-179 -71,-512 -259,-585 -155,-60 -555,31 -906,314 -414,334 -603,751 -484,790z"/>
   <path class="EyesClosed-Pig0fil10" d="M9936 10608c98,33 423,-223 837,-336 380,-104 707,-22 812,-183 118,-179 -71,-512 -259,-585 -155,-60 -555,31 -906,314 -414,334 -603,751 -484,790z"/>
  </g>
  <g id="_2991504372496">
   <path class="EyesClosed-Pig0fil38" d="M17428 10608c-98,33 -423,-223 -837,-336 -380,-104 -707,-22 -812,-183 -118,-179 71,-512 259,-585 154,-60 555,31 906,314 414,334 602,751 484,790z"/>
   <path class="EyesClosed-Pig0fil10" d="M17428 10608c-98,33 -423,-223 -837,-336 -380,-104 -707,-22 -812,-183 -118,-179 71,-512 259,-585 154,-60 555,31 906,314 414,334 602,751 484,790z"/>
  </g>
  <path class="EyesClosed-Pig0fil84" d="M15370 13572c-66,-26 -53,-97 11,-92 811,59 1538,148 2281,-105 308,-106 583,-256 757,-387 49,-37 84,-70 115,-57 95,42 -8,180 -38,228 -257,411 -800,681 -1486,686 -482,4 -1055,-144 -1640,-273z"/>
  <path class="EyesClosed-Pig0fil84" d="M11994 13572c66,-26 53,-97 -11,-92 -811,59 -1538,148 -2281,-105 -308,-106 -583,-256 -757,-387 -49,-37 -84,-70 -115,-57 -95,42 8,180 38,228 257,411 799,681 1486,686 482,4 1055,-144 1640,-273z"/>
 </g><g id="WeaponBflyNet-Medium">
 <animateTransform additive="sum" attributeName="transform" dur="10" repeatCount="indefinite" type="translate" values="0;0 200;0;0 200;0;0 200;0;0 200;0"/>
  <metadata id="CorelCorpID_7Corel-Layer"/>
  <path class="WeaponBflyNet-Mediumfil13" d="M9944 24239c-1031,247 -2610,1424 -2409,1744 202,321 807,-308 2195,-285 1388,24 3318,548 4389,475 1072,-73 2527,-605 2527,-1008 0,-404 -664,-890 -664,-890l-1329 -819 -1589 -545 -1246 35c-312,696 -844,1047 -1874,1293z" style="fill:#610f84"/>
  <path class="WeaponBflyNet-Mediumfil14 WeaponBflyNet-Mediumstr2" d="M12208 23611c1081,-10 2699,732 3400,1560" style="fill:#fadea4"/>
  <path class="WeaponBflyNet-Mediumfil14 WeaponBflyNet-Mediumstr2" d="M15001 25038c361,-118 643,-350 896,-735" style="fill:#78607c"/>
  <path class="WeaponBflyNet-Mediumfil14 WeaponBflyNet-Mediumstr2" d="M14199 24735c361,-118 799,-594 993,-1009" style="fill:#d0808a"/>
  <path class="WeaponBflyNet-Mediumfil14 WeaponBflyNet-Mediumstr2" d="M13338 24354c351,-256 662,-654 857,-1068" style="fill:#b0962f"/>
  <path class="WeaponBflyNet-Mediumfil14 WeaponBflyNet-Mediumstr2" d="M12448 23933c351,-255 662,-653 856,-1068" style="fill:#8d1e26"/>
  <path class="WeaponBflyNet-Mediumfil14 WeaponBflyNet-Mediumstr3" d="M9944 24239c-1031,247 -2610,1424 -2409,1744 202,321 807,-308 2195,-285 1388,24 3289,510 4389,475 1101,-35 2500,-626 2500,-1029 0,-404 -637,-869 -637,-869l-1329 -819 -1589 -545 -1246 35c-312,696 -844,1047 -1874,1293z" style="fill:#733c24"/>
  <path class="WeaponBflyNet-Mediumfil15 WeaponBflyNet-Mediumstr0" d="M12035 22910c-60,107 -121,213 -181,320 -796,-450 -1593,-899 -2390,-1348 -25,-155 36,-261 180,-320 797,449 1594,899 2391,1348z" style="fill:#de003b"/>
  <path class="WeaponBflyNet-Mediumfil14 WeaponBflyNet-Mediumstr2" d="M7552 25924c388,-461 1369,-846 2240,-977 1201,-181 2132,-581 2417,-1260" style="fill:#d10b84"/>
  <path class="WeaponBflyNet-Mediumfil3" d="M11925 23104l-71 126c-796,-450 -1593,-899 -2390,-1348 -14,-83 -2,-151 33,-206l2428 1428z" style="fill:#269a0e"/>
  <path class="WeaponBflyNet-Mediumfil14 WeaponBflyNet-Mediumstr2" d="M13504 26144c892,-24 1786,-100 2461,-823" style="fill:#1658d9"/>
  <path class="WeaponBflyNet-Mediumfil14 WeaponBflyNet-Mediumstr2" d="M11549 25873c1214,-25 2062,57 3174,-816" style="fill:#2afa29"/>
  <path class="WeaponBflyNet-Mediumfil14 WeaponBflyNet-Mediumstr2" d="M7630 26002c382,-247 1117,-495 1934,-589 1497,-171 3030,135 3829,-826" style="fill:#107844"/>
  <path class="WeaponBflyNet-Mediumfil16 WeaponBflyNet-Mediumstr1" d="M14530 23222c1360,601 2301,1453 2101,1904 -199,452 -1463,331 -2822,-269 -1360,-600 -2301,-1452 -2102,-1904 200,-451 1463,-331 2823,269zm-2073 437c425,367 973,670 1485,896 512,226 1105,426 1663,494 853,103 929,-68 277,-629 -426,-366 -973,-670 -1485,-896 -512,-226 -1105,-425 -1663,-493 -854,-103 -929,67 -277,628z" style="fill:#c42dda"/>
  <path class="WeaponBflyNet-Mediumfil3" d="M16555 25232c-345,321 -1506,173 -2746,-375 -1360,-600 -2301,-1452 -2102,-1904 38,-86 115,-151 223,-196 -33,31 -59,66 -76,106 -199,451 742,1303 2101,1903 1101,486 2139,658 2600,466zm-318 -112c15,-47 65,-258 5,-340 -71,-95 -191,-214 -360,-360 -426,-366 -973,-670 -1485,-896 -512,-226 -1105,-425 -1663,-493 -257,-31 -443,-37 -560,-16 33,-108 266,-128 706,-75 558,68 1151,268 1663,494 513,226 1060,529 1486,896 171,147 292,267 362,363 116,159 17,396 -154,427z" style="fill:#d25422"/>
  <path class="WeaponBflyNet-Mediumfil14 WeaponBflyNet-Mediumstr2" d="M11269 23733c142,1272 2907,2208 4031,2233" style="fill:#a538d4"/>
  <path class="WeaponBflyNet-Mediumfil14 WeaponBflyNet-Mediumstr2" d="M10476 24127c-23,1341 1755,1969 3097,2026" style="fill:#51762b"/>
  <path class="WeaponBflyNet-Mediumfil14 WeaponBflyNet-Mediumstr2" d="M9671 24329c-323,500 220,1274 858,1420" style="fill:#fa7387"/>
  <path class="WeaponBflyNet-Mediumfil14 WeaponBflyNet-Mediumstr2" d="M8801 24747c-190,293 -4,865 395,962" style="fill:#189568"/>
  <path class="WeaponBflyNet-Mediumfil14 WeaponBflyNet-Mediumstr2" d="M8109 25223c-267,258 -33,735 247,682" style="fill:#7a4b1e"/>
 </g><g id="Eyes-Pig0">
 <animate attributeName="opacity" dur="10" repeatCount="indefinite" values="0;1;1;1;1;1;1;1;1;1;1;1;1;1;1;1;1;1;1;1;1;1;1;1;1;1;1;1;1;1;1;1;1;1;1;1;1;1;1;1;1;1;1;1;1;1;1;1;1;1;1;1;1;1;1;1;1;1;1;1;1;1;1;1;1;1;1;1;1;1;1;1;1;1;1;1;1;1;1;1;1;1;1;1;0;0"/>
 <animateTransform additive="sum" attributeName="transform" dur="10" repeatCount="indefinite" type="translate" values="0;0 200;0;0 200;0;0 200;0;0 200;0"/>
  <metadata id="CorelCorpID_117Corel-Layer"/>
  <g id="_2991504438160">
   <path class="Eyes-Pig0fil174" d="M17282 14381c-563,1 -1296,-400 -1652,-607 -410,-238 -385,-734 -230,-1292 194,-698 672,-1448 1686,-1417 221,6 434,102 606,218 305,205 650,864 794,1463 202,835 15,1633 -1204,1635z"/>
   <path class="Eyes-Pig0fil148" d="M15363 13387c-190,-829 360,-2137 1264,-2265 609,-86 914,-49 1307,418 322,381 572,1119 611,1539 -356,-962 -1323,-1597 -1979,-1534 -835,79 -1188,884 -1203,1842z"/>
   <path class="Eyes-Pig0fil175" d="M17571 14383c-633,57 -1241,-207 -1701,-474 -155,-90 -377,-135 -451,-334 302,-140 397,-428 502,-707 440,8 880,16 1320,25 693,422 926,832 1030,1239 -124,136 -501,232 -700,251z"/>
   <circle class="Eyes-Pig0fil173" r="235" transform="matrix(-1.05455 -0.156917 -0.122712 0.972902 17815.2 13835.5)"/>
   <circle class="Eyes-Pig0fil173" r="235" transform="matrix(-0.528618 -0.0219485 0.0170794 0.468369 18011.9 13287.5)"/>
   <path class="Eyes-Pig0fil176" d="M16916 11510c-549,-164 -1099,173 -1230,751 -130,579 209,1181 758,1345 549,163 1100,-173 1230,-751 130,-579 -209,-1181 -758,-1345z"/>
   <path class="Eyes-Pig0fil173" d="M16338 11820c533,42 786,1263 12,1213 -797,-51 -589,-1258 -12,-1213z"/>
   <path class="Eyes-Pig0fil0 Eyes-Pig0str0" d="M15337 13246c0,0 -1,386 293,528 116,57 322,154 541,254 366,168 697,356 1111,353 339,-2 849,-77 1083,-417 326,-473 185,-845 6,-1515 -359,-1339 -1627,-1973 -2582,-790 -344,426 -487,1020 -452,1587z"/>
  </g>
  <g id="_2991504436752">
   <path class="Eyes-Pig0fil177" d="M10082 14381c563,1 1296,-400 1652,-607 410,-238 385,-734 230,-1292 -194,-698 -672,-1448 -1686,-1417 -221,6 -434,102 -606,218 -305,205 -650,864 -794,1463 -202,835 -15,1633 1204,1635z"/>
   <path class="Eyes-Pig0fil148" d="M12001 13387c190,-829 -360,-2137 -1264,-2265 -609,-86 -914,-49 -1308,418 -321,381 -571,1119 -610,1539 355,-962 1323,-1597 1979,-1534 834,79 1188,884 1203,1842z"/>
   <path class="Eyes-Pig0fil178" d="M9793 14383c633,57 1241,-207 1701,-474 155,-90 377,-135 451,-334 -302,-140 -397,-428 -502,-707 -440,8 -880,16 -1320,25 -693,422 -926,832 -1030,1239 124,136 501,232 700,251z"/>
   <circle class="Eyes-Pig0fil173" r="235" transform="matrix(1.05455 -0.156917 0.122712 0.972902 9548.64 13835.5)"/>
   <circle class="Eyes-Pig0fil173" r="235" transform="matrix(0.528618 -0.0219485 -0.0170794 0.468369 9352 13287.5)"/>
   <path class="Eyes-Pig0fil179" d="M10448 11510c549,-164 1099,173 1230,751 130,579 -210,1181 -758,1345 -549,163 -1100,-173 -1230,-751 -130,-579 209,-1181 758,-1345z"/>
   <path class="Eyes-Pig0fil173" d="M11026 11820c-533,42 -786,1263 -12,1213 797,-51 589,-1258 12,-1213z"/>
   <path class="Eyes-Pig0fil0 Eyes-Pig0str0" d="M12027 13246c0,0 1,386 -293,528 -116,57 -322,154 -541,254 -367,168 -697,356 -1111,353 -339,-2 -849,-77 -1083,-417 -326,-473 -185,-845 -6,-1515 359,-1339 1626,-1973 2582,-790 344,426 487,1020 452,1587z"/>
  </g>
 </g><g id="Moustache-Pig3">
 <animateTransform additive="sum" attributeName="transform" dur="10" repeatCount="indefinite" type="translate" values="0;0 200;0;0 200;0;0 200;0;0 200;0"/>
  <metadata id="CorelCorpID_139Corel-Layer"/>
  <path class="Moustache-Pig3fil234" d="M10904 16360c18,1 82,389 307,458 92,29 54,-287 160,-188 51,48 159,299 235,358 60,46 84,-101 155,-52 444,308 1055,622 1284,416 233,-209 -273,-240 56,-316 17,-4 119,84 169,76 56,-9 70,-173 129,-148 183,77 245,-10 283,-10 38,0 100,87 283,10 59,-25 73,139 129,148 50,8 152,-80 169,-76 329,76 -177,107 55,316 229,206 841,-108 1285,-416 71,-49 95,98 155,52 76,-59 184,-310 234,-358 107,-99 69,217 161,188 225,-69 289,-457 306,-458 428,508 -378,1121 -737,1290 -307,145 -866,312 -1200,421 -5,-42 1,-166 24,-183 -356,117 -586,377 -694,392 16,-65 -123,-279 -170,-360 -47,81 -166,223 -151,288 -107,-15 -357,-203 -713,-320 23,17 29,141 24,183 -334,-109 -893,-276 -1200,-421 -360,-169 -1165,-782 -738,-1290z" style="fill:#2c6442"/>
  <path class="Moustache-Pig3fil84" d="M16389 17131c-259,461 -1484,895 -1627,941 -67,21 -129,41 -217,70 -39,13 -81,-9 -94,-48 -2,-6 -3,-13 -3,-19 -2,-17 -3,-42 -2,-68 -146,67 -267,154 -361,222 -92,66 -161,116 -223,125 -41,5 -69,-23 -74,-64 -9,-67 -75,-173 -109,-229 -44,64 -108,193 -133,220 -9,2 -16,2 -24,1 -61,-9 -140,-50 -243,-105 -98,-52 -220,-117 -362,-174 2,31 1,60 -1,77 -6,41 -43,70 -84,65 -5,-1 -9,-2 -14,-3 -87,-29 -149,-49 -216,-70 -146,-46 -1177,-386 -1578,-883 645,474 1437,681 1623,741l118 37 25 5c-2,-13 -14,-20 -16,-24 -26,-19 -37,-52 -27,-84 13,-39 55,-61 95,-48 207,69 378,159 507,228 50,27 94,50 128,66 22,-50 57,-102 90,-150l2 -4c19,-28 37,-55 48,-73 6,-11 16,-21 28,-28 35,-21 81,-8 102,27 5,9 16,27 28,48 41,68 97,162 129,244 26,-17 58,-40 93,-66 128,-93 302,-218 525,-292l0 1c29,-10 62,-1 82,24 26,33 20,80 -12,105 -20,16 -16,22 7,21l118 -37c190,-61 1329,-427 1672,-799z" style="fill:#d1f8ad"/>
  <path class="Moustache-Pig3fil10" d="M11851 17651c0,0 682,180 719,180 37,0 -109,-185 -109,-185 0,0 467,94 605,125 137,32 15,-244 86,-407 111,316 213,379 321,495 71,-113 157,-385 179,-432 100,692 494,565 892,145 5,85 54,301 113,329 60,29 826,-207 826,-207 0,0 -918,417 -939,397 -22,-20 -35,-179 -35,-179 0,0 -548,265 -619,366 -71,101 -175,-272 -218,-341 -43,-70 -191,256 -191,256l-651 -283 12 161c0,0 -911,-297 -991,-420z" style="fill:#736ad2"/>
 </g><g id="Nose-Pig1">
 <animateTransform additive="sum" attributeName="transform" dur="10" repeatCount="indefinite" type="translate" values="0;0 200;0;0 200;0;0 200;0;0 200;0"/>
  <metadata id="CorelCorpID_142Corel-Layer"/>
  <g id="_2991533167408">
   <path class="Nose-Pig1fil238 Nose-Pig1str0" d="M13682 15385l0 0 0 0c419,0 1013,172 1375,-16 486,-253 457,-928 172,-1340 -289,-418 -848,-829 -1547,-829l0 0 0 0c-699,0 -1258,411 -1547,829 -285,412 -314,1087 172,1340 362,188 956,16 1375,16z" style="fill:#0b49f1"/>
   <g>
    <path class="Nose-Pig1fil26 Nose-Pig1str3" d="M13051 14343c87,106 44,313 -96,463 -140,151 -324,187 -411,81 -87,-105 -44,-313 96,-463 139,-150 323,-187 411,-81z" style="fill:#34a090"/>
    <path class="Nose-Pig1fil237 Nose-Pig1str3" d="M13051 14343c87,106 44,313 -96,463 -140,151 -324,187 -411,81 -87,-105 -44,-313 96,-463 139,-150 323,-187 411,-81z" style="fill:#6add3b"/>
   </g>
   <g>
    <path class="Nose-Pig1fil26 Nose-Pig1str3" d="M14313 14343c-87,106 -44,313 96,463 140,151 324,187 411,81 87,-105 44,-313 -96,-463 -140,-150 -324,-187 -411,-81z" style="fill:#1566f0"/>
    <path class="Nose-Pig1fil237 Nose-Pig1str3" d="M14313 14343c-87,106 -44,313 96,463 140,151 324,187 411,81 87,-105 44,-313 -96,-463 -140,-150 -324,-187 -411,-81z" style="fill:#8999fe"/>
   </g>
  </g>
 </g><g id="HatGlasses-Medium">
 <animateTransform additive="sum" attributeName="transform" dur="10" repeatCount="indefinite" type="translate" values="0;0 200;0;0 200;0;0 200;0;0 200;0"/>
  <metadata id="CorelCorpID_76Corel-Layer"/>
  <path class="HatGlasses-Mediumfil571new" d="M8680 12704c1150,-166 2288,-123 3366,168 307,83 391,317 416,508 48,358 12,716 -136,1074 -74,178 -212,284 -403,308 -958,123 -1885,116 -2875,-52 -224,-38 -348,-146 -466,-350 -231,-401 -329,-779 -336,-1170 -5,-283 174,-449 434,-486z" style="fill:#2b0e27"/>
  <path class="HatGlasses-Mediumfil572new" d="M8680 12704c1150,-166 2288,-123 3366,168 307,83 391,317 416,508 48,358 12,716 -136,1074 -35,84 -84,152 -146,202 96,-539 55,-993 -433,-1409 -533,-456 -2618,-699 -3446,-306 72,-132 208,-213 379,-237z" style="fill:#8c5cc5"/>
  <path class="HatGlasses-Mediumfil571new" d="M18684 12704c-1150,-166 -2288,-123 -3366,168 -307,83 -391,317 -417,508 -48,358 -11,716 137,1074 74,178 212,284 403,308 958,123 1885,116 2875,-52 224,-38 348,-146 466,-350 231,-401 329,-779 336,-1170 5,-283 -174,-449 -434,-486z" style="fill:#2455b9"/>
  <path class="HatGlasses-Mediumfil572new" d="M18684 12704c-1150,-166 -2288,-123 -3366,168 -196,53 -301,167 -358,293 710,-514 2961,-429 3462,-51 447,338 331,942 100,1527 106,-59 184,-150 260,-281 231,-401 329,-779 336,-1170 5,-283 -174,-449 -434,-486z" style="fill:#187d98"/>
  <path class="HatGlasses-Mediumfil707new" d="M18666 12827c-576,-83 -1149,-113 -1711,-85 -545,28 -1082,110 -1605,251 -120,32 -195,92 -242,162 -50,74 -72,162 -83,241 -23,168 -25,337 -5,506 21,169 64,337 133,505 28,68 68,121 118,160 50,38 112,62 185,72 474,61 939,89 1409,82 468,-8 941,-51 1431,-134 90,-16 159,-44 217,-89 59,-46 110,-112 161,-200 110,-191 188,-376 240,-561 51,-183 76,-365 80,-549 1,-103 -28,-184 -80,-242 -56,-64 -143,-104 -248,-119zm-10004 -247c591,-85 1179,-116 1759,-87 562,28 1115,112 1652,257 470,106 1176,265 1609,265 433,0 1139,-159 1609,-265 537,-145 1090,-229 1652,-257 580,-29 1168,2 1759,87 163,24 302,91 399,200 92,103 145,242 142,412 -4,207 -32,409 -89,613 -57,202 -143,407 -264,617 -67,116 -137,206 -225,274 -90,70 -195,114 -328,137 -501,85 -986,129 -1469,137 -481,7 -958,-22 -1443,-84 -118,-15 -220,-56 -305,-121 -85,-65 -152,-153 -197,-263 -78,-189 -127,-378 -150,-567 -96,-432 -602,-640 -1091,-640 -489,0 -996,208 -1091,640 -23,189 -72,378 -150,567 -45,110 -112,198 -197,263 -85,65 -187,106 -305,121 -485,62 -962,91 -1444,84 -482,-8 -968,-52 -1468,-137 -133,-23 -238,-67 -328,-137 -88,-68 -158,-158 -225,-274 -121,-210 -207,-415 -264,-617 -57,-204 -85,-406 -89,-613 -3,-170 50,-309 142,-412 97,-109 236,-176 399,-200zm1747 162c-563,-28 -1135,2 -1712,85 -104,15 -191,55 -247,119 -52,58 -82,139 -80,242 3,184 28,366 80,549 52,185 130,370 240,561 51,88 102,154 161,200 57,45 127,73 217,89 490,83 963,126 1431,134 469,7 935,-21 1409,-82 72,-10 135,-34 185,-72 50,-39 89,-92 118,-160 69,-168 112,-336 133,-505 20,-169 17,-338 -5,-506 -11,-79 -33,-167 -83,-241 -47,-70 -122,-130 -242,-162 -523,-141 -1060,-223 -1605,-251z" style="fill:#0f26ed"/>
 </g><g id="AccessoryDuck">
  <metadata id="CorelCorpID_7Corel-Layer"/>
  <g>
   <path class="AccessoryDuckfil122" d="M6799 23590c567,92 901,386 954,797 53,412 -243,1082 -841,1089 -393,5 -1153,26 -1786,26 -391,0 -696,-285 -829,-563 -183,-382 -87,-1276 203,-1374 170,-58 552,365 851,277 435,-128 967,-330 1448,-252z" style="fill:#dd754a"/>
   <path class="AccessoryDuckfil48" d="M7758 24535c-23,406 -315,934 -846,941 -393,5 -1153,26 -1786,26 -391,0 -696,-285 -829,-563 -156,-325 -109,-1021 87,-1282 -106,322 -111,821 11,1082 131,278 430,563 813,563 621,0 1366,-21 1751,-26 437,-6 710,-381 799,-741z" style="fill:#1eff25"/>
   <path class="AccessoryDuckfil123" d="M6799 23590c56,9 109,20 160,33 -130,90 -255,351 -427,375 -135,19 -523,-198 -655,-168 -209,48 -405,103 -557,148 -275,81 -535,-184 -692,-130 -267,91 -276,730 -108,1082 120,250 435,557 785,572 -61,0 -120,0 -179,0 -391,0 -696,-285 -829,-563 -183,-382 -87,-1276 203,-1374 170,-58 552,365 851,277 435,-128 967,-330 1448,-252z" style="fill:#317d03"/>
   <path class="AccessoryDuckfil2 AccessoryDuckstr1" d="M6799 23590c567,92 901,386 954,797 53,412 -243,1082 -841,1089 -393,5 -1153,26 -1786,26 -391,0 -696,-285 -829,-563 -183,-382 -87,-1276 203,-1374 170,-58 552,365 851,277 435,-128 967,-330 1448,-252z" style="fill:#67e4e2"/>
   <path class="AccessoryDuckfil124" d="M6799 22018c651,0 1017,455 1017,1017 0,561 -456,1016 -1017,1016 -561,0 -1016,-455 -1016,-1016 0,-562 365,-1017 1016,-1017z" style="fill:#adfefe"/>
   <path class="AccessoryDuckfil123" d="M6799 22018c651,0 1017,455 1017,1017 0,95 -14,186 -38,274 13,-58 21,-117 21,-178 0,-519 -394,-978 -993,-978 -598,0 -854,358 -854,878 0,454 400,909 767,1017 -524,-41 -936,-479 -936,-1013 0,-562 365,-1017 1016,-1017z" style="fill:#75a464"/>
   <path class="AccessoryDuckfil3" d="M6185 23844c-28,28 -290,-116 -378,-327 -53,-104 -110,-285 -125,-443 -4,-44 -7,-84 -7,-123 0,-256 79,-492 231,-671 152,-180 376,-303 666,-331 43,-4 85,-6 127,-6 344,0 637,118 846,308 218,199 346,477 346,784 0,197 -53,383 -146,543 -114,198 -486,429 -501,374 -14,-55 186,-125 372,-448 79,-138 125,-298 125,-469 0,-264 -109,-502 -297,-673 -182,-166 -440,-269 -745,-269 -41,0 -79,2 -113,5 -248,24 -438,127 -566,278 -128,152 -195,354 -195,575 0,37 2,74 5,108 14,140 50,256 110,390 60,135 273,366 245,395z" style="fill:#01e8b7"/>
   <path class="AccessoryDuckfil123" d="M6658 22472c143,0 258,134 258,300 0,166 -115,300 -258,300 -143,0 -259,-134 -259,-300 0,-166 116,-300 259,-300z" style="fill:#53f99d"/>
   <ellipse class="AccessoryDuckfil125" cx="6677" cy="22749" rx="239" ry="278"/>
   <path class="AccessoryDuckfil2 AccessoryDuckstr18" d="M8022 22883c-201,144 -531,341 -779,257" style="fill:#cf31e3"/>
   <path class="AccessoryDuckfil126" d="M6906 23254c-93,-143 260,-242 351,-320 100,-87 101,-231 168,-331 379,92 984,-279 923,-35 -43,175 -342,292 -454,408 135,81 371,182 293,310 -165,270 -1199,93 -1281,-32z" style="fill:#defa59"/>
   <path class="AccessoryDuckfil127" d="M5595 24102c432,0 782,85 782,426 0,341 -350,504 -782,504 -432,0 -782,-445 -782,-651 0,-207 350,-279 782,-279z" style="fill:#551475"/>
   <path class="AccessoryDuckfil123" d="M5595 24102c112,0 218,6 314,20 -54,-3 -109,-5 -167,-5 -397,0 -719,62 -719,238 0,176 322,556 719,556 224,0 424,-44 556,-135 -127,173 -394,256 -703,256 -432,0 -782,-445 -782,-651 0,-207 350,-279 782,-279z" style="fill:#234d46"/>
   <path class="AccessoryDuckfil2" d="M5595 24102c432,0 782,85 782,426 0,341 -350,504 -782,504 -432,0 -782,-445 -782,-651 0,-207 350,-279 782,-279z" style="fill:#0c27cc"/>
   <path class="AccessoryDuckfil128" d="M7774 23111c-89,-34 -14,-124 -111,-45 -97,79 -363,35 -380,106 -17,71 420,126 587,75 167,-51 -7,-102 -96,-136z" style="fill:#621b53"/>
   <path class="AccessoryDuckfil3" d="M7978 22822c34,-24 80,-16 105,17 24,33 16,80 -17,104 -104,75 -242,164 -388,223 -227,93 -542,12 -506,-50 0,-32 161,63 450,-88 126,-66 259,-136 356,-206z" style="fill:#edf893"/>
   <path class="AccessoryDuckfil2 AccessoryDuckstr0" d="M6843 23214c-50,-149 300,-228 411,-311 100,-77 103,-211 171,-300 595,142 902,-305 923,-35 14,173 -342,292 -454,408 135,81 371,182 293,310 -165,270 -1277,131 -1344,-72z" style="fill:#8b9f83"/>
   <ellipse class="AccessoryDuckfil14" cx="6745" cy="22636" rx="71" ry="72"/>
   <path class="AccessoryDuckfil14" d="M6953 22225c60,7 105,42 101,77 -4,35 -60,68 -120,61 -60,-7 -102,-52 -98,-87 4,-36 57,-59 117,-51z" style="fill:#5ddcbb"/>
   <path class="AccessoryDuckfil14" d="M7236 22345c28,16 43,42 34,59 -10,16 -24,5 -52,-11 -28,-16 -60,-31 -50,-47 9,-17 40,-17 68,-1z" style="fill:#84db61"/>
   <path class="AccessoryDuckfil129" d="M7161 25119c-29,-51 140,-147 188,-480 19,-137 -2,-287 -86,-411 -23,-34 -14,-80 20,-104 35,-23 81,-14 104,21 107,157 135,344 110,515 -35,244 -307,509 -336,459z" style="fill:#dbee87"/>
   <path class="AccessoryDuckfil130" d="M5478 24311c0,-39 423,-52 488,-36 278,75 233,289 199,309 -34,19 11,-154 -222,-212 -285,-70 -465,-23 -465,-61z" style="fill:#7b8139"/>
  </g>
 </g><g id="Hair-Pig3">
 <animateTransform additive="sum" attributeName="transform" dur="10" repeatCount="indefinite" type="translate" values="0;0 200;0;0 200;0;0 200;0;0 200;0"/>
  <metadata id="CorelCorpID_151Corel-Layer"/>
  <path class="Hair-Pig3fil248" d="M16453 8749c724,-349 1169,-1161 854,-1728 -94,247 -256,417 -666,580 746,-915 183,-1801 -976,-1516 863,521 114,1008 -417,918 -730,-124 -193,-973 -973,-1277 -1407,-550 -3782,1069 -3503,2656 2500,-1339 3287,1522 5681,367z" style="fill:#8bc40f"/>
  <path class="Hair-Pig3fil10" d="M16263 8834c840,-373 1249,-1039 1075,-1750 -137,687 -854,1684 -2003,1654 -756,-19 -1339,-677 -1936,-936 -586,-255 -1231,-324 -2203,386 167,-58 574,-255 1159,-154 721,125 1712,676 1996,788 572,226 1174,339 1912,12z" style="fill:#b3aeab"/>
  <path class="Hair-Pig3fil10" d="M14059 5660c0,0 407,215 456,687 48,473 20,741 271,933 597,457 1453,-41 1327,-847 -122,426 -455,694 -1014,528 -560,-166 115,-973 -1040,-1301z" style="fill:#8bd982"/>
  <path class="Hair-Pig3fil10" d="M10819 8270c0,0 215,-848 943,-1212 729,-364 1151,-181 1151,-181 0,0 -569,-3 -1025,346 -456,350 -602,846 -602,846 0,0 -548,424 -467,201z" style="fill:#b817f6"/>
  <path class="Hair-Pig3fil249" d="M15821 6053c0,0 656,127 646,442 -10,315 -108,890 -744,1158 -981,415 -1841,-1615 -3316,-969 1487,-167 1886,1405 2827,1543 670,98 1203,-319 1407,-626 204,-308 943,-1519 -820,-1548z" style="fill:#05b442"/>
  <path class="Hair-Pig3fil0 Hair-Pig3str0" d="M16453 8749c724,-349 1169,-1161 854,-1728 -94,247 -256,417 -666,580 746,-915 183,-1801 -976,-1516 863,521 114,1008 -417,918 -730,-124 -193,-973 -973,-1277 -1407,-550 -3782,1069 -3503,2656 2500,-1339 3287,1522 5681,367z" style="fill:#6ab622"/>
 </g></svg>