<svg xmlns="http://www.w3.org/2000/svg" xmlns:xlink="http://www.w3.org/1999/xlink" style="shape-rendering:geometricPrecision; text-rendering:geometricPrecision; image-rendering:optimizeQuality; fill-rule:evenodd; clip-rule:evenodd" version="1.1" viewBox="0 0 29000 29000" xml:space="preserve"><defs><style type="text/css">.HatBanderasBack-Mediumfil3new {fill:black;fill-opacity:0.301961}
.HatBanderasBack-Mediumfil16new {fill:url(#HatBanderasBack-Mediumid415new)}
.HatBanderasBack-Mediumstr2new {stroke:#2B2A29;stroke-width:150}
.BraceletDesert-Mediumfil14new {fill:black;fill-opacity:0.200000}
.BraceletDesert-Mediumfil88new {fill:url(#BraceletDesert-Mediumid389new)}
.BraceletDesert-Mediumstr3new {stroke:black;stroke-width:100;stroke-linecap:round;stroke-linejoin:round}
.BraceletDesert-Mediumfil89new {fill:url(#BraceletDesert-Mediumid480new)}
.NecklaceThug-Mediumfil84new {fill:black}
.NecklaceThug-Mediumfil14new {fill:black;fill-opacity:0.200000}
.NecklaceThug-Mediumfil360new {fill:black;fill-rule:nonzero;fill-opacity:0.200000}
.NecklaceThug-Mediumfil361new {fill:url(#NecklaceThug-Mediumid694new);fill-rule:nonzero}
.NecklaceThug-Mediumfil362new {fill:url(#NecklaceThug-Mediumid64new)}
.NecklaceThug-Mediumfil363new {fill:#FF9999;fill-opacity:0.200000}
.NecklaceThug-Mediumfil3new {fill:black;fill-opacity:0.301961}
.NecklaceThug-Mediumfil364new {fill:url(#NecklaceThug-Mediumid141new)}
.NecklaceThug-Mediumfil365new {fill:#612424}
.NecklaceThug-Mediumfil367new {fill:url(#NecklaceThug-Mediumid668new);fill-rule:nonzero}
.NecklaceThug-Mediumfil368new {fill:#FFFFCC;fill-rule:nonzero;fill-opacity:0.600000}
.NecklaceThug-Mediumfil83new {fill:white}
.NecklaceThug-Mediumfil223new {fill:black;fill-rule:nonzero}
.NecklaceThug-Mediumstr0new {stroke:black;stroke-width:150;stroke-linecap:round;stroke-linejoin:round}
.NecklaceThug-Mediumfil33new {fill:none}
.NecklaceThug-Mediumstr3new {stroke:black;stroke-width:100;stroke-linecap:round;stroke-linejoin:round}
.NecklaceThug-Mediumfil366new {fill:#C9C9C9}
.NecklaceThug-Mediumstr4new {stroke:black;stroke-width:100}
.NecklaceThug-Mediumfil47new {fill:none;fill-rule:nonzero}
.NecklaceThug-Mediumstr9new {stroke:black;stroke-width:200;stroke-linecap:round;stroke-linejoin:round}
.HatBanderas-Mediumfil608new {fill:url(#HatBanderas-Mediumid682new);fill-rule:nonzero}
.HatBanderas-Mediumfil609new {fill:#FFCC99;fill-rule:nonzero;fill-opacity:0.301961}
.HatBanderas-Mediumfil14new {fill:black;fill-opacity:0.200000}
.HatBanderas-Mediumfil246new {fill:#643200;fill-opacity:0.200000}
.HatBanderas-Mediumfil619new {fill:#cf792d;fill-opacity:0.200000}
.HatBanderas-Mediumfil621new {fill:url(#HatBanderas-Mediumid706new);fill-rule:nonzero}
.HatBanderas-Mediumfil360new {fill:black;fill-rule:nonzero;fill-opacity:0.200000}
.HatBanderas-Mediumfil47new {fill:none;fill-rule:nonzero}
.HatBanderas-Mediumstr0new {stroke:black;stroke-width:150;stroke-linecap:round;stroke-linejoin:round}
.HatBanderas-Mediumfil610new {fill:url(#HatBanderas-Mediumid667new);fill-rule:nonzero}
.HatBanderas-Mediumfil611new {fill:#DB9600}
.HatBanderas-Mediumfil612new {fill:url(#HatBanderas-Mediumid156new)}
.HatBanderas-Mediumfil613new {fill:url(#HatBanderas-Mediumid153new)}
.HatBanderas-Mediumfil614new {fill:url(#HatBanderas-Mediumid65new)}
.HatBanderas-Mediumfil615new {fill:url(#HatBanderas-Mediumid190new)}
.HatBanderas-Mediumfil616new {fill:url(#HatBanderas-Mediumid569new)}
.HatBanderas-Mediumfil617new {fill:url(#HatBanderas-Mediumid188new)}
.HatBanderas-Mediumfil618new {fill:url(#HatBanderas-Mediumid192new)}
.HatBanderas-Mediumfil620new {fill:url(#HatBanderas-Mediumid168new)}
.HatBanderas-Mediumfil622new {fill:url(#HatBanderas-Mediumid708new);fill-rule:nonzero}
.HairBack-Pig0fil0 {fill:none}
.Tail-Pig0fil0 {fill:none}
.RightFoot-Pig0fil37 {fill:#fffbfa}
.RightFoot-Pig0fil38 {fill:#ad8373}
.RightFoot-Pig0fil39 {fill:url(#RightFoot-Pig0id227)}
.RightFoot-Pig0fil40 {fill:black}
.RightFoot-Pig0fil10 {fill:black;fill-opacity:0.200000}
.RightFoot-Pig0fil0 {fill:none}
.RightFoot-Pig0str2 {stroke:black;stroke-width:150;stroke-linecap:round;stroke-linejoin:round}
.RightLeg-Pig0fil52 {fill:url(#RightLeg-Pig0id37)}
.RightLeg-Pig0fil10 {fill:black;fill-opacity:0.200000}
.RightLeg-Pig0fil0 {fill:none}
.RightLeg-Pig0str2 {stroke:black;stroke-width:150;stroke-linecap:round;stroke-linejoin:round}
.LeftFoot-Pig0fil37 {fill:#fffbfa}
.LeftFoot-Pig0fil38 {fill:#ad8373}
.LeftFoot-Pig0fil57 {fill:url(#LeftFoot-Pig0id220)}
.LeftFoot-Pig0fil40 {fill:black}
.LeftFoot-Pig0fil10 {fill:black;fill-opacity:0.200000}
.LeftFoot-Pig0fil0 {fill:none}
.LeftFoot-Pig0str2 {stroke:black;stroke-width:150;stroke-linecap:round;stroke-linejoin:round}
.LeftLeg-Pig0fil62 {fill:url(#LeftLeg-Pig0id49)}
.LeftLeg-Pig0fil10 {fill:black;fill-opacity:0.200000}
.LeftLeg-Pig0fil0 {fill:none}
.LeftLeg-Pig0str2 {stroke:black;stroke-width:150;stroke-linecap:round;stroke-linejoin:round}
.RightHand-Pig0fil68 {fill:url(#RightHand-Pig0id57)}
.RightHand-Pig0fil10 {fill:black;fill-opacity:0.200000}
.RightHand-Pig0fil0 {fill:none}
.RightHand-Pig0str0 {stroke:black;stroke-width:150;stroke-linecap:round;stroke-linejoin:round}
.RightPaw-Pig0fil74 {fill:url(#RightPaw-Pig0id25)}
.RightPaw-Pig0fil10 {fill:black;fill-opacity:0.200000}
.RightPaw-Pig0fil75 {fill:url(#RightPaw-Pig0id217)}
.RightPaw-Pig0fil40 {fill:black}
.RightPaw-Pig0fil0 {fill:none}
.RightPaw-Pig0str2 {stroke:black;stroke-width:150;stroke-linecap:round;stroke-linejoin:round}
.LeftHand-Pig0fil79 {fill:url(#LeftHand-Pig0id22)}
.LeftHand-Pig0fil10 {fill:black;fill-opacity:0.200000}
.LeftHand-Pig0fil0 {fill:none}
.LeftHand-Pig0str0 {stroke:black;stroke-width:150;stroke-linecap:round;stroke-linejoin:round}
.Body-Pig0fil83 {fill:url(#Body-Pig0id42)}
.Body-Pig0fil10 {fill:black;fill-opacity:0.200000}
.Body-Pig0fil84 {fill:black;fill-rule:nonzero}
.LeftPaw-Pig0fil91 {fill:url(#LeftPaw-Pig0id70)}
.LeftPaw-Pig0fil10 {fill:black;fill-opacity:0.200000}
.LeftPaw-Pig0fil92 {fill:url(#LeftPaw-Pig0id209)}
.LeftPaw-Pig0fil40 {fill:black}
.LeftPaw-Pig0fil0 {fill:none}
.LeftPaw-Pig0str2 {stroke:black;stroke-width:150;stroke-linecap:round;stroke-linejoin:round}
.Head-Pig5fil165 {fill:url(#Head-Pig5id36)}
.Head-Pig5fil10 {fill:black;fill-opacity:0.200000}
.Head-Pig5fil84 {fill:black;fill-rule:nonzero}
.Mouth-Pig0fil26 {fill:black;fill-opacity:0.301961}
.Mouth-Pig0fil169 {fill:black}
.Mouth-Pig0fil170 {fill:black;fill-rule:nonzero;fill-opacity:0.301961}
.Mouth-Pig0fil0 {fill:none}
.Mouth-Pig0str0 {stroke:black;stroke-width:150;stroke-linecap:round;stroke-linejoin:round}
.EyesClosed-Pig7fil38 {fill:#ad8373}
.EyesClosed-Pig7fil10 {fill:black;fill-opacity:0.200000}
.EyesClosed-Pig7fil84 {fill:black;fill-rule:nonzero}
.Eyes-Pig7fil197 {fill:url(#Eyes-Pig7id164)}
.Eyes-Pig7fil215 {fill:url(#Eyes-Pig7id207)}
.Eyes-Pig7fil216 {fill:url(#Eyes-Pig7id109)}
.Eyes-Pig7fil148 {fill:black;fill-opacity:0.501961}
.Eyes-Pig7fil173 {fill:white}
.Eyes-Pig7fil200 {fill:url(#Eyes-Pig7id179)}
.Eyes-Pig7fil217 {fill:url(#Eyes-Pig7id208)}
.Eyes-Pig7fil218 {fill:url(#Eyes-Pig7id113)}
.Eyes-Pig7fil0 {fill:none}
.Eyes-Pig7str0 {stroke:black;stroke-width:150;stroke-linecap:round;stroke-linejoin:round}
.Moustache-Pig3fil234 {fill:url(#Moustache-Pig3id41)}
.Moustache-Pig3fil84 {fill:black;fill-rule:nonzero}
.Moustache-Pig3fil10 {fill:black;fill-opacity:0.200000}
.Nose-Pig0fil236 {fill:url(#Nose-Pig0id201)}
.Nose-Pig0str0 {stroke:black;stroke-width:150;stroke-linecap:round;stroke-linejoin:round}
.Nose-Pig0fil26 {fill:black;fill-opacity:0.301961}
.Nose-Pig0str3 {stroke:black;stroke-width:150;stroke-linecap:round;stroke-linejoin:round;stroke-opacity:0.301961}
.Nose-Pig0fil237 {fill:none}
</style><linearGradient gradientUnits="userSpaceOnUse" id="HatBanderasBack-Mediumid415new" x1="11406.4" x2="11406.4" xlink:href="#HatBanderasBack-Mediumid273new" y1="14755.2" y2="11000.6">
  </linearGradient><linearGradient gradientUnits="userSpaceOnUse" id="BraceletDesert-Mediumid389new" x1="8773.79" x2="10009.6" xlink:href="#BraceletDesert-Mediumid171new" y1="19887.6" y2="20634.1">
  </linearGradient><linearGradient gradientUnits="userSpaceOnUse" id="BraceletDesert-Mediumid480new" x1="17354.3" x2="18590.1" xlink:href="#BraceletDesert-Mediumid171new" y1="20634.1" y2="19887.6">
  </linearGradient><linearGradient gradientUnits="objectBoundingBox" id="NecklaceThug-Mediumid694new" x1="0%" x2="100%" y1="49.9998%" y2="49.9998%">
   <stop offset="0" style="stop-opacity:1; stop-color:#CC9933"/>
   <stop offset="0.388235" style="stop-opacity:1; stop-color:#BF9900"/>
   <stop offset="0.470588" style="stop-opacity:1; stop-color:#FFEE8C"/>
   <stop offset="0.560784" style="stop-opacity:1; stop-color:#E6B12C"/>
   <stop offset="1" style="stop-opacity:1; stop-color:#FFCC00"/>
  </linearGradient><linearGradient gradientUnits="userSpaceOnUse" id="NecklaceThug-Mediumid64new" x1="10125.1" x2="13626.7" y1="21873.7" y2="18372.1">
   <stop offset="0" style="stop-opacity:1; stop-color:#451C1C"/>
   <stop offset="0.388235" style="stop-opacity:1; stop-color:#562123"/>
   <stop offset="1" style="stop-opacity:1; stop-color:#852E31"/>
  </linearGradient><linearGradient gradientUnits="userSpaceOnUse" id="NecklaceThug-Mediumid141new" x1="13763.9" x2="17251.7" xlink:href="#NecklaceThug-Mediumid64new" y1="21866.8" y2="18379">
  </linearGradient><linearGradient gradientUnits="objectBoundingBox" id="NecklaceThug-Mediumid668new" x1="0%" x2="104.829%" y1="63.6712%" y2="36.3288%">
   <stop offset="0" style="stop-opacity:1; stop-color:#A87000"/>
   <stop offset="0.45098" style="stop-opacity:1; stop-color:#FFDF61"/>
   <stop offset="0.670588" style="stop-opacity:1; stop-color:#FFFBE3"/>
   <stop offset="0.870588" style="stop-opacity:1; stop-color:#FCCE41"/>
   <stop offset="1" style="stop-opacity:1; stop-color:#BF9900"/>
  </linearGradient><linearGradient gradientUnits="userSpaceOnUse" id="HatBanderas-Mediumid682new" x1="13602.1" x2="11925.5" y1="11547.2" y2="4747.37">
   <stop offset="0" style="stop-opacity:1; stop-color:#0F0A00"/>
   <stop offset="1" style="stop-opacity:1; stop-color:#615A3E"/>
  </linearGradient><linearGradient gradientUnits="userSpaceOnUse" id="HatBanderas-Mediumid706new" x1="14196.7" x2="11590.4" xlink:href="#HatBanderas-Mediumid682new" y1="14479.3" y2="3909.34">
  </linearGradient><linearGradient gradientUnits="userSpaceOnUse" id="HatBanderas-Mediumid667new" x1="13059.3" x2="12043.7" y1="11875.2" y2="7756.23">
   <stop offset="0" style="stop-opacity:1; stop-color:#570D00"/>
   <stop offset="1" style="stop-opacity:1; stop-color:#C90000"/>
  </linearGradient><linearGradient gradientUnits="userSpaceOnUse" id="HatBanderas-Mediumid156new" x1="17132.7" x2="15358.6" xlink:href="#HatBanderas-Mediumid29new" y1="6534.95" y2="4566.09">
  </linearGradient><linearGradient gradientUnits="userSpaceOnUse" id="HatBanderas-Mediumid153new" x1="17891.3" x2="18675.4" xlink:href="#HatBanderas-Mediumid29new" y1="6718.18" y2="3050.2">
  </linearGradient><linearGradient gradientUnits="userSpaceOnUse" id="HatBanderas-Mediumid65new" x1="18407.5" x2="23687.9" xlink:href="#HatBanderas-Mediumid29new" y1="5325.25" y2="4441.39">
  </linearGradient><linearGradient gradientUnits="userSpaceOnUse" id="HatBanderas-Mediumid190new" x1="22805.7" x2="23399.6" xlink:href="#HatBanderas-Mediumid29new" y1="9246.61" y2="6663.65">
  </linearGradient><linearGradient gradientUnits="userSpaceOnUse" id="HatBanderas-Mediumid569new" x1="18102.7" x2="19619.8" xlink:href="#HatBanderas-Mediumid29new" y1="6097.02" y2="7516.76">
  </linearGradient><linearGradient gradientUnits="userSpaceOnUse" id="HatBanderas-Mediumid188new" x1="22423.7" x2="22545.4" xlink:href="#HatBanderas-Mediumid29new" y1="9500.13" y2="6706.71">
  </linearGradient><linearGradient gradientUnits="userSpaceOnUse" id="HatBanderas-Mediumid192new" x1="20528.7" x2="20011.2" xlink:href="#HatBanderas-Mediumid29new" y1="7723.46" y2="5385.04">
  </linearGradient><linearGradient gradientUnits="userSpaceOnUse" id="HatBanderas-Mediumid168new" x1="16082.9" x2="23396.2" xlink:href="#HatBanderas-Mediumid29new" y1="7125.45" y2="7308.29">
  </linearGradient><linearGradient gradientUnits="userSpaceOnUse" id="HatBanderas-Mediumid708new" x1="19172.7" x2="18887.4" y1="6164.67" y2="5430.19">
   <stop offset="0" style="stop-opacity:1; stop-color:#38321F"/>
   <stop offset="1" style="stop-opacity:1; stop-color:#615A3E"/>
  </linearGradient><linearGradient gradientUnits="objectBoundingBox" id="RightFoot-Pig0id227" x1="49.9997%" x2="49.9997%" xlink:href="#RightFoot-Pig0id0" y1="100%" y2="0%">
  </linearGradient><linearGradient gradientUnits="objectBoundingBox" id="RightLeg-Pig0id37" x1="50%" x2="50%" xlink:href="#RightLeg-Pig0id2" y1="100%" y2="0%">
  </linearGradient><linearGradient gradientUnits="objectBoundingBox" id="LeftFoot-Pig0id220" x1="50.0003%" x2="50.0003%" xlink:href="#LeftFoot-Pig0id0" y1="100%" y2="0%">
  </linearGradient><linearGradient gradientUnits="objectBoundingBox" id="LeftLeg-Pig0id49" x1="50%" x2="50%" xlink:href="#LeftLeg-Pig0id2" y1="100%" y2="0%">
  </linearGradient><linearGradient gradientUnits="objectBoundingBox" id="RightHand-Pig0id57" x1="30.1244%" x2="69.8756%" xlink:href="#RightHand-Pig0id22" y1="2.32158%" y2="97.6784%">
  </linearGradient><linearGradient gradientUnits="objectBoundingBox" id="RightPaw-Pig0id25" x1="81.8832%" x2="18.1168%" y1="89.1977%" y2="10.8018%">
   <stop offset="0" style="stop-opacity:1; stop-color:#d1b0a3"/>
   <stop offset="0.619608" style="stop-opacity:1; stop-color:#f7d8cc"/>
   <stop offset="1" style="stop-opacity:1; stop-color:#f7d8cc"/>
  </linearGradient><linearGradient gradientUnits="objectBoundingBox" id="RightPaw-Pig0id217" x1="50%" x2="50%" xlink:href="#RightPaw-Pig0id0" y1="100%" y2="0%">
  </linearGradient><linearGradient gradientUnits="objectBoundingBox" id="LeftHand-Pig0id22" x1="69.8756%" x2="30.1244%" y1="2.32158%" y2="97.6784%">
   <stop offset="0" style="stop-opacity:1; stop-color:#d1b0a3"/>
   <stop offset="0.0196078" style="stop-opacity:1; stop-color:#d1b0a3"/>
   <stop offset="0.921569" style="stop-opacity:1; stop-color:#f7d8cc"/>
   <stop offset="1" style="stop-opacity:1; stop-color:#f7d8cc"/>
  </linearGradient><linearGradient gradientUnits="objectBoundingBox" id="Body-Pig0id42" x1="50%" x2="50%" y1="0.000186021%" y2="100%">
   <stop offset="0" style="stop-opacity:1; stop-color:#d1b0a3"/>
   <stop offset="0.0313725" style="stop-opacity:1; stop-color:#d1b0a3"/>
   <stop offset="0.529412" style="stop-opacity:1; stop-color:#f7d8cc"/>
   <stop offset="1" style="stop-opacity:1; stop-color:#fffbfa"/>
  </linearGradient><linearGradient gradientUnits="objectBoundingBox" id="LeftPaw-Pig0id70" x1="18.1168%" x2="81.8832%" xlink:href="#LeftPaw-Pig0id25" y1="89.1977%" y2="10.8018%">
  </linearGradient><linearGradient gradientUnits="objectBoundingBox" id="LeftPaw-Pig0id209" x1="50%" x2="50%" xlink:href="#LeftPaw-Pig0id0" y1="100%" y2="0%">
  </linearGradient><linearGradient gradientUnits="objectBoundingBox" id="Head-Pig5id36" x1="50%" x2="50%" xlink:href="#Head-Pig5id3" y1="100%" y2="9.57532e-005%">
  </linearGradient><linearGradient gradientUnits="objectBoundingBox" id="Eyes-Pig7id164" x1="38.8114%" x2="61.1889%" xlink:href="#Eyes-Pig7id148" y1="96.6455%" y2="3.35484%">
  </linearGradient><radialGradient cx="16987.8" cy="13055.3" fx="16987.8" fy="13055.3" gradientTransform="matrix(-1.02041 -0 -0 0.932491 34322 881)" gradientUnits="userSpaceOnUse" id="Eyes-Pig7id207" r="1595.63" xlink:href="#Eyes-Pig7id205">
  </radialGradient><linearGradient gradientUnits="userSpaceOnUse" id="Eyes-Pig7id109" x1="17002.3" x2="16419.5" xlink:href="#Eyes-Pig7id45" y1="10915.2" y2="13382.1">
  </linearGradient><linearGradient gradientUnits="objectBoundingBox" id="Eyes-Pig7id179" x1="61.4146%" x2="38.5851%" xlink:href="#Eyes-Pig7id148" y1="96.4338%" y2="3.56653%">
  </linearGradient><radialGradient cx="10441.2" cy="13055.3" fx="10441.2" fy="13055.3" gradientTransform="matrix(1.02041 -0 -0 0.932491 -213 881)" gradientUnits="userSpaceOnUse" id="Eyes-Pig7id208" r="1595.63" xlink:href="#Eyes-Pig7id205">
  </radialGradient><linearGradient gradientUnits="userSpaceOnUse" id="Eyes-Pig7id113" x1="10361.6" x2="10944.4" xlink:href="#Eyes-Pig7id45" y1="10915.2" y2="13382.1">
  </linearGradient><linearGradient gradientUnits="userSpaceOnUse" id="Moustache-Pig3id41" x1="13681.9" x2="13681.9" y1="18279.7" y2="16359.7">
   <stop offset="0" style="stop-opacity:1; stop-color:#cf792d"/>
   <stop offset="0.6" style="stop-opacity:1; stop-color:#cf792d"/>
   <stop offset="1" style="stop-opacity:1; stop-color:#e9934a"/>
  </linearGradient><linearGradient gradientUnits="userSpaceOnUse" id="Nose-Pig0id201" x1="13681.9" x2="13681.9" xlink:href="#Nose-Pig0id151" y1="13309.5" y2="15458">
  </linearGradient><linearGradient gradientUnits="userSpaceOnUse" id="HatBanderasBack-Mediumid273new" x1="11276.3" x2="11276.3" y1="15499.7" y2="11357.8">
   <stop offset="0" style="stop-opacity:1; stop-color:#3B3621"/>
   <stop offset="1" style="stop-opacity:1; stop-color:#0D0A05"/>
  </linearGradient><linearGradient gradientUnits="userSpaceOnUse" id="BraceletDesert-Mediumid171new" x1="17130" x2="19384" y1="20670.4" y2="20267.5">
   <stop offset="0" style="stop-opacity:1; stop-color:#73561C"/>
   <stop offset="0.2" style="stop-opacity:1; stop-color:#CC9933"/>
   <stop offset="0.541176" style="stop-opacity:1; stop-color:#FFF878"/>
   <stop offset="0.701961" style="stop-opacity:1; stop-color:#DBC234"/>
   <stop offset="0.780392" style="stop-opacity:1; stop-color:#FFEA7F"/>
   <stop offset="0.831373" style="stop-opacity:1; stop-color:#D5BC39"/>
   <stop offset="1" style="stop-opacity:1; stop-color:#CC9933"/>
  </linearGradient><linearGradient gradientUnits="userSpaceOnUse" id="HatBanderas-Mediumid29new" x1="23027" x2="23148.7" y1="9696.19" y2="6902.77">
   <stop offset="0" style="stop-opacity:1; stop-color:#DB9600"/>
   <stop offset="1" style="stop-opacity:1; stop-color:#FFCC00"/>
  </linearGradient><linearGradient gradientUnits="userSpaceOnUse" id="RightFoot-Pig0id0" x1="16257.8" x2="16257.8" y1="21560.3" y2="23683.4">
   <stop offset="0" style="stop-opacity:1; stop-color:#ad8373"/>
   <stop offset="1" style="stop-opacity:1; stop-color:#d4afa1"/>
  </linearGradient><linearGradient gradientUnits="userSpaceOnUse" id="RightLeg-Pig0id2" x1="11782.6" x2="11782.6" y1="24212.9" y2="21311.8">
   <stop offset="0" style="stop-opacity:1; stop-color:#fffbfa"/>
   <stop offset="0.388235" style="stop-opacity:1; stop-color:#fffbfa"/>
   <stop offset="1" style="stop-opacity:1; stop-color:#f7d8cc"/>
  </linearGradient><linearGradient gradientUnits="userSpaceOnUse" id="LeftFoot-Pig0id0" x1="16257.8" x2="16257.8" y1="21560.3" y2="23683.4">
   <stop offset="0" style="stop-opacity:1; stop-color:#ad8373"/>
   <stop offset="1" style="stop-opacity:1; stop-color:#d4afa1"/>
  </linearGradient><linearGradient gradientUnits="userSpaceOnUse" id="LeftLeg-Pig0id2" x1="11782.6" x2="11782.6" y1="24212.9" y2="21311.8">
   <stop offset="0" style="stop-opacity:1; stop-color:#fffbfa"/>
   <stop offset="0.388235" style="stop-opacity:1; stop-color:#fffbfa"/>
   <stop offset="1" style="stop-opacity:1; stop-color:#f7d8cc"/>
  </linearGradient><linearGradient gradientUnits="objectBoundingBox" id="RightHand-Pig0id22" x1="69.8756%" x2="30.1244%" y1="2.32158%" y2="97.6784%">
   <stop offset="0" style="stop-opacity:1; stop-color:#d1b0a3"/>
   <stop offset="0.0196078" style="stop-opacity:1; stop-color:#d1b0a3"/>
   <stop offset="0.921569" style="stop-opacity:1; stop-color:#f7d8cc"/>
   <stop offset="1" style="stop-opacity:1; stop-color:#f7d8cc"/>
  </linearGradient><linearGradient gradientUnits="userSpaceOnUse" id="RightPaw-Pig0id0" x1="16257.8" x2="16257.8" y1="21560.3" y2="23683.4">
   <stop offset="0" style="stop-opacity:1; stop-color:#ad8373"/>
   <stop offset="1" style="stop-opacity:1; stop-color:#d4afa1"/>
  </linearGradient><linearGradient gradientUnits="objectBoundingBox" id="LeftPaw-Pig0id25" x1="81.8832%" x2="18.1168%" y1="89.1977%" y2="10.8018%">
   <stop offset="0" style="stop-opacity:1; stop-color:#d1b0a3"/>
   <stop offset="0.619608" style="stop-opacity:1; stop-color:#f7d8cc"/>
   <stop offset="1" style="stop-opacity:1; stop-color:#f7d8cc"/>
  </linearGradient><linearGradient gradientUnits="userSpaceOnUse" id="LeftPaw-Pig0id0" x1="16257.8" x2="16257.8" y1="21560.3" y2="23683.4">
   <stop offset="0" style="stop-opacity:1; stop-color:#ad8373"/>
   <stop offset="1" style="stop-opacity:1; stop-color:#d4afa1"/>
  </linearGradient><linearGradient gradientUnits="userSpaceOnUse" id="Head-Pig5id3" x1="18922.8" x2="18922.8" y1="11187.2" y2="5413.87">
   <stop offset="0" style="stop-opacity:1; stop-color:#d1b0a3"/>
   <stop offset="0.388235" style="stop-opacity:1; stop-color:#f7d8cc"/>
   <stop offset="1" style="stop-opacity:1; stop-color:#fffbfa"/>
  </linearGradient><linearGradient gradientUnits="userSpaceOnUse" id="Eyes-Pig7id148" x1="16641" x2="17334.4" y1="14255.9" y2="11076.2">
   <stop offset="0" style="stop-opacity:1; stop-color:#006913"/>
   <stop offset="1" style="stop-opacity:1; stop-color:black"/>
  </linearGradient><radialGradient cx="10603.5" cy="12833.7" fx="10603.5" fy="12833.7" gradientTransform="matrix(-0.879932 -0 -0 0.999997 19934 0)" gradientUnits="userSpaceOnUse" id="Eyes-Pig7id205" r="1364.99">
   <stop offset="0" style="stop-opacity:1; stop-color:#00e82b"/>
   <stop offset="1" style="stop-opacity:1; stop-color:#006913"/>
  </radialGradient><linearGradient gradientUnits="userSpaceOnUse" id="Eyes-Pig7id45" x1="16680.3" x2="16680.3" y1="11243.5" y2="13543.4">
   <stop offset="0" style="stop-opacity:1; stop-color:black"/>
   <stop offset="0.4" style="stop-opacity:1; stop-color:black"/>
   <stop offset="1" style="stop-opacity:1; stop-color:#004f0e"/>
  </linearGradient><linearGradient gradientUnits="userSpaceOnUse" id="Nose-Pig0id151" x1="13681.9" x2="13681.9" y1="13554.2" y2="15469.2">
   <stop offset="0" style="stop-opacity:1; stop-color:#FFCCCC"/>
   <stop offset="1" style="stop-opacity:1; stop-color:#DB9092"/>
  </linearGradient></defs><g id="HatBanderasBack-Medium">
 <animateTransform additive="sum" attributeName="transform" dur="10" repeatCount="indefinite" type="translate" values="0;0 200;0;0 200;0;0 200;0;0 200;0"/>
  <metadata id="CorelCorpID_7Corel-Layer"/>
  <path class="HatBanderasBack-Mediumfil16new HatBanderasBack-Mediumstr2new" d="M19319 11711c-1698,-571 -3233,-710 -5574,-710 -5662,0 -10252,1138 -10252,2543 0,848 1874,1491 4030,1087 3082,-577 4927,-2776 11796,-2920z" style="fill:#b0aab6"/>
  <path class="HatBanderasBack-Mediumfil3new" d="M9431 11236c-3506,404 -5938,1286 -5938,2308 0,107 30,211 87,311 1508,-1228 4279,-771 4327,639 1244,-360 1143,-1811 1524,-3258z" style="fill:#8c5564"/>
 </g><g id="HairBack-Pig0">
 <animateTransform additive="sum" attributeName="transform" dur="10" repeatCount="indefinite" type="translate" values="0;0 200;0;0 200;0;0 200;0;0 200;0"/>
  <metadata id="CorelCorpID_0Corel-Layer"/>
  <rect class="HairBack-Pig0fil0" height="890" width="890" x="13237" y="6590"/>
  <rect class="HairBack-Pig0fil0" height="890" width="890" x="13237" y="6590"/>
 </g><g id="Tail-Pig0">
  <metadata id="CorelCorpID_3Corel-Layer"/>
  <rect class="Tail-Pig0fil0" height="900" width="900" x="13232" y="22153"/>
 </g><g id="RightFoot-Pig0">
  <metadata id="CorelCorpID_10Corel-Layer"/>
  <path class="RightFoot-Pig0fil37" d="M16559 24190c54,65 143,233 174,292 62,268 -152,365 -298,365 -143,0 -686,-98 -894,289 -330,-192 -541,-572 -540,-565 -22,-43 -41,-85 -54,-126 -58,-176 -10,-247 31,-317 480,-107 1078,-83 1581,62z" style="fill:#f8ff5d"/>
  <path class="RightFoot-Pig0fil38" d="M15011 24496c-3,101 -14,73 -14,176 -5,821 346,600 430,523 12,-11 59,-71 57,-73 -109,-146 -274,-300 -473,-626z" style="fill:#8633c2"/>
  <path class="RightFoot-Pig0fil0 RightFoot-Pig0str2" d="M14995 24537c1,45 2,90 2,135 -5,821 346,600 430,523 4,-4 19,-23 37,-48" style="fill:#2dba4f"/>
  <path class="RightFoot-Pig0fil39" d="M16756 24466c0,0 -225,-105 -294,-5 -54,78 49,353 -47,353 -106,0 -310,-245 -509,-215 -288,43 -418,429 -384,506 35,82 343,409 763,435 419,26 490,-14 487,-39 -3,-24 42,-150 42,-150 0,0 458,-59 491,-95 100,-109 -467,-691 -549,-790z" style="fill:#2bd402"/>
  <polygon class="RightFoot-Pig0fil40" points="16740,25393 16571,24994 16934,25330 "/>
  <path class="RightFoot-Pig0fil0 RightFoot-Pig0str2" d="M16567 24189c147,241 633,739 718,969 84,231 -492,167 -492,167 0,0 5,189 -122,220 -281,70 -831,-103 -1075,-309 -49,-41 -99,-87 -150,-135" style="fill:#3521c4"/>
  <path class="RightFoot-Pig0fil0 RightFoot-Pig0str2" d="M16567 24189c45,73 121,170 208,277m-1262 697c-341,-311 -707,-789 -548,-1037" style="fill:#a4f61e"/>
  <path class="RightFoot-Pig0fil10" d="M15252 24171c-250,336 427,769 691,965 282,210 555,378 651,406 -45,23 -445,-31 -727,-123 -179,-96 -710,-617 -803,-752 -94,-163 -147,-331 -119,-480 10,-21 22,-40 33,-59 85,-7 193,-3 274,43z" style="fill:#12eba7"/>
 </g><g id="LeftFoot-Pig0">
  <metadata id="CorelCorpID_27Corel-Layer"/>
  <path class="LeftFoot-Pig0fil37" d="M10805 24190c-54,65 -143,233 -174,292 -62,268 152,365 298,365 143,0 685,-98 894,289 330,-192 541,-572 540,-565 22,-43 40,-85 54,-126 58,-176 10,-247 -31,-317 -480,-107 -1078,-83 -1581,62z" style="fill:#de6cda"/>
  <path class="LeftFoot-Pig0fil38" d="M12353 24496c3,101 14,73 14,176 5,821 -346,600 -430,523 -12,-11 -59,-71 -57,-73 109,-146 274,-300 473,-626z" style="fill:#88d215"/>
  <path class="LeftFoot-Pig0fil0 LeftFoot-Pig0str2" d="M12369 24537c-1,45 -2,90 -2,135 5,821 -346,600 -430,523 -4,-4 -19,-23 -37,-48" style="fill:#8535d9"/>
  <path class="LeftFoot-Pig0fil57" d="M10608 24466c0,0 225,-105 294,-5 54,78 -49,353 47,353 106,0 309,-245 509,-215 288,43 418,429 384,506 -35,82 -343,409 -763,435 -419,26 -490,-14 -487,-39 3,-24 -42,-150 -42,-150 0,0 -458,-59 -491,-95 -101,-109 467,-691 549,-790z" style="fill:#90ec53"/>
  <polygon class="LeftFoot-Pig0fil40" points="10624,25393 10793,24994 10430,25330 "/>
  <path class="LeftFoot-Pig0fil0 LeftFoot-Pig0str2" d="M10797 24189c-147,241 -633,739 -718,969 -85,231 492,167 492,167 0,0 -5,189 122,220 281,70 831,-103 1075,-309 49,-41 99,-87 150,-135" style="fill:#87137f"/>
  <path class="LeftFoot-Pig0fil0 LeftFoot-Pig0str2" d="M10797 24189c-45,73 -121,170 -208,277m1262 697c341,-311 707,-789 548,-1037" style="fill:#c77daa"/>
  <path class="LeftFoot-Pig0fil10" d="M12112 24171c250,336 -428,769 -691,965 -282,210 -555,378 -651,406 45,23 444,-31 727,-123 179,-96 710,-617 803,-752 94,-163 147,-331 119,-480 -10,-21 -22,-40 -33,-59 -85,-7 -193,-3 -274,43z" style="fill:#14741f"/>
 </g><g id="RightLeg-Pig0">
  <metadata id="CorelCorpID_22Corel-Layer"/>
  <path class="RightLeg-Pig0fil52" d="M16570 21416c0,0 1181,1189 570,2176 -128,221 -511,470 -581,598 -599,44 -1104,27 -1581,-62 45,-78 82,-155 -44,-376 -113,-198 -400,-446 -1252,-493 0,-147 0,-280 0,-522 373,-788 1598,-1745 2888,-1321z" style="fill:#d543c1"/>
  <path class="RightLeg-Pig0fil10" d="M17192 23421c67,-141 106,-290 107,-439 2,-734 -540,-1374 -869,-1659l-157 688c26,45 52,90 79,136 387,-391 947,832 840,1274z" style="fill:#1926ce"/>
  <path class="RightLeg-Pig0fil0 RightLeg-Pig0str2" d="M16570 21416c303,324 585,778 689,1246 115,521 25,950 -408,1282 -95,72 -194,144 -284,245m-1602 -63c284,-396 -518,-875 -1283,-867" style="fill:#651cf3"/>
  <path class="RightLeg-Pig0fil10" d="M13760 23246c341,-28 1532,124 1607,584 27,166 -52,256 -115,341 -93,-12 -184,-26 -274,-43 40,-70 74,-140 -11,-313 -8,-22 -19,-42 -33,-62l0 -1c-104,-182 -357,-408 -1066,-479 -35,-9 -71,-18 -108,-27z" style="fill:#0982fa"/>
 </g><g id="LeftLeg-Pig0">
  <metadata id="CorelCorpID_39Corel-Layer"/>
  <path class="LeftLeg-Pig0fil62" d="M10794 21416c0,0 -1181,1189 -570,2176 128,221 511,470 581,598 599,44 1104,27 1581,-62 -45,-78 -82,-155 44,-376 113,-198 400,-446 1252,-493 0,-147 0,-280 0,-522 -373,-788 -1598,-1745 -2888,-1321z" style="fill:#dfd7f4"/>
  <path class="LeftLeg-Pig0fil10" d="M10172 23421c-67,-141 -106,-290 -107,-439 -2,-734 540,-1374 869,-1659l157 688c-26,45 -53,90 -79,136 -388,-391 -947,832 -840,1274z" style="fill:#6789da"/>
  <path class="LeftLeg-Pig0fil0 LeftLeg-Pig0str2" d="M10794 21416c-303,324 -586,778 -689,1246 -115,521 -25,950 408,1282 95,72 193,144 284,245m1602 -63c-284,-396 517,-875 1283,-867" style="fill:#bbb0ce"/>
  <path class="LeftLeg-Pig0fil10" d="M13604 23246c-341,-28 -1532,124 -1607,584 -27,166 52,256 115,341 93,-12 184,-26 274,-43 -40,-70 -74,-140 11,-313 8,-22 19,-42 33,-62l0 -1c104,-182 357,-408 1066,-479 35,-9 71,-18 108,-27z" style="fill:#4c0ef6"/>
 </g><g id="RightHand-Pig0">
 <animateTransform additive="sum" attributeName="transform" dur="10" repeatCount="indefinite" type="translate" values="0;0 200;0;0 200;0;0 200;0;0 200;0"/>
  <metadata id="CorelCorpID_44Corel-Layer"/>
  <path class="RightHand-Pig0fil68" d="M16231 17709c1005,345 1816,1398 2255,2162 -88,184 -847,720 -1129,836 -543,-402 -1045,-430 -1469,-362 -742,120 -1353,-1920 -931,-2545 422,-21 934,-40 1274,-91z" style="fill:#25bb39"/>
  <path class="RightHand-Pig0fil10" d="M17342 20696c-537,-391 -1034,-418 -1454,-351 -171,28 -335,-59 -481,-217 -325,-472 753,-1098 1039,-656 258,399 723,837 1098,1116 3,2 22,18 34,27l-219 113c-8,-18 -14,-30 -17,-32z" style="fill:#cc8a67"/>
  <path class="RightHand-Pig0fil0 RightHand-Pig0str0" d="M16477 20333c179,24 366,81 561,178 100,50 205,104 305,189m1121 -817c-161,-280 -388,-607 -632,-916 -422,-534 -963,-1039 -1601,-1258 -90,-31 -172,-59 -246,-84" style="fill:#3f6981"/>
 </g><g id="LeftHand-Pig0">
 <animateTransform additive="sum" attributeName="transform" dur="10" repeatCount="indefinite" type="translate" values="0;0 200;0;0 200;0;0 200;0;0 200;0"/>
  <metadata id="CorelCorpID_61Corel-Layer"/>
  <path class="LeftHand-Pig0fil79" d="M11133 17709c-1005,345 -1817,1398 -2255,2162 88,184 847,720 1128,836 544,-402 1046,-430 1470,-362 742,120 1352,-1920 931,-2545 -422,-21 -934,-40 -1274,-91z" style="fill:#a817bb"/>
  <path class="LeftHand-Pig0fil10" d="M10022 20696c537,-391 1034,-418 1454,-351 171,28 335,-59 481,-217 325,-472 -753,-1098 -1039,-656 -258,399 -723,837 -1098,1116 -3,2 -22,18 -34,27l219 113c8,-18 14,-30 17,-32z" style="fill:#cd35ef"/>
  <path class="LeftHand-Pig0fil0 LeftHand-Pig0str0" d="M10887 20333c-179,24 -366,81 -561,178 -100,50 -205,104 -305,189m-1121 -817c161,-280 388,-607 632,-916 422,-534 963,-1039 1601,-1258 90,-31 171,-59 246,-84" style="fill:#562915"/>
 </g><g id="Body-Pig0">
 <animateTransform additive="sum" attributeName="transform" dur="10" repeatCount="indefinite" type="translate" values="0;0 200;0;0 200;0;0 200;0;0 200;0"/>
  <metadata id="CorelCorpID_66Corel-Layer"/>
  <path class="Body-Pig0fil83" d="M13682 23135c-1548,0 -2752,-291 -2993,-1956 -147,-1014 391,-2287 991,-3420 634,80 1289,123 2002,142 713,-19 1367,-62 2002,-142 600,1133 1137,2406 991,3420 -242,1665 -1445,1956 -2993,1956z" style="fill:#406965"/>
  <path class="Body-Pig0fil10" d="M12621 23067c-1016,-156 -1749,-629 -1932,-1888 -75,-519 29,-1106 229,-1707 -223,2001 402,3257 1703,3595z" style="fill:#10d7cc"/>
  <path class="Body-Pig0fil84" d="M11012 22144c-250,-321 -348,-641 -397,-954 -59,-377 -24,-998 184,-1320 -78,421 -93,905 -36,1298 50,341 104,572 249,976z" style="fill:#7c2996"/>
  <path class="Body-Pig0fil10" d="M14743 23067c1016,-156 1749,-629 1932,-1888 75,-519 -29,-1106 -229,-1707 223,2001 -402,3257 -1703,3595z" style="fill:#70a4e2"/>
  <path class="Body-Pig0fil84" d="M16352 22144c250,-321 347,-641 397,-954 59,-377 24,-998 -184,-1320 78,421 93,905 36,1298 -50,341 -104,572 -249,976z" style="fill:#366c90"/>
 </g><g id="RightPaw-Pig0">
 <animateTransform additive="sum" attributeName="transform" dur="10" repeatCount="indefinite" type="translate" values="0;0 200;0;0 200;0;0 200;0;0 200;0"/>
  <metadata id="CorelCorpID_49Corel-Layer"/>
  <path class="RightPaw-Pig0fil74" d="M18486 19871c155,269 247,281 434,498 211,244 446,948 341,1067 -34,39 -389,8 -389,8 -15,58 -145,373 -188,392 -161,73 -598,-324 -814,-554 -63,111 -195,178 -216,147 -79,-27 -146,-195 -211,-374 -34,-92 -45,-318 -86,-348 139,-387 621,-775 1129,-836z" style="fill:#1848a0"/>
  <path class="RightPaw-Pig0fil10" d="M17452 20518c31,24 62,48 92,70 4,3 39,31 43,34 13,14 26,28 39,43 79,93 97,228 104,283 2,13 3,21 4,24 -2,92 -166,169 -227,208 0,-8 -67,-223 -116,-364 0,-31 3,-54 -7,-90 -9,-6 -18,-13 -27,-19 23,-64 55,-127 95,-189z" style="fill:#2ae60a"/>
  <path class="RightPaw-Pig0fil75" d="M18910 20358c-402,-76 -337,407 -242,635 -239,-309 -538,-414 -692,-297 -104,79 -113,131 -203,226 -99,104 -339,-108 -394,-184 -18,147 139,645 275,691 21,31 153,-36 216,-147 216,230 653,627 814,554 43,-19 173,-334 188,-392 0,0 355,31 389,-8 109,-123 -135,-862 -351,-1078z" style="fill:#c052c3"/>
  <path class="RightPaw-Pig0fil10" d="M18804 21498c-67,307 -352,47 -875,-255 4,66 -100,45 -131,-12 -41,-92 -52,-190 -68,-283 -88,22 -225,-79 -303,-156 -5,-5 -11,-11 -16,-16 49,174 144,541 243,653 90,2 173,-72 216,-147 199,212 579,572 803,508 84,-24 78,-133 131,-292z" style="fill:#ee2b69"/>
  <path class="RightPaw-Pig0fil0 RightPaw-Pig0str2" d="M17136 20561c121,75 170,94 271,202 1,149 38,330 93,461 54,128 115,197 196,208 55,8 128,-6 194,-123 208,221 642,571 796,501 41,-19 164,-344 179,-400 0,0 356,75 389,38 86,-99 -94,-785 -280,-992 -109,-122 -404,-420 -409,-427 -68,-85 -123,-182 -179,-276" style="fill:#f353f2"/>
  <polygon class="RightPaw-Pig0fil40" points="18796,21484 18678,21021 18973,21393 "/>
 </g><g id="LeftPaw-Pig0">
 <animateTransform additive="sum" attributeName="transform" dur="10" repeatCount="indefinite" type="translate" values="0;0 200;0;0 200;0;0 200;0;0 200;0"/>
  <metadata id="CorelCorpID_71Corel-Layer"/>
  <path class="LeftPaw-Pig0fil91" d="M8878 19871c-155,269 -247,281 -434,498 -211,244 -446,948 -341,1067 34,39 388,8 388,8 16,58 146,373 189,392 161,73 598,-324 814,-554 63,111 195,178 216,147 79,-27 146,-195 211,-374 34,-92 45,-318 85,-348 -138,-387 -621,-775 -1128,-836z" style="fill:#5121ab"/>
  <path class="LeftPaw-Pig0fil10" d="M9912 20518c-31,24 -62,48 -92,70 -4,3 -39,31 -43,34 -14,14 -27,28 -39,43 -79,93 -97,228 -104,283 -2,13 -3,21 -4,24 2,92 166,169 226,208 0,-8 68,-223 117,-364 -1,-31 -3,-54 7,-90 9,-6 18,-13 26,-19 -22,-64 -54,-127 -94,-189z" style="fill:#fb018e"/>
  <path class="LeftPaw-Pig0fil92" d="M8454 20358c401,-76 337,407 242,635 239,-309 538,-414 692,-297 104,79 113,131 203,226 99,104 339,-108 394,-184 18,147 -140,645 -275,691 -21,31 -153,-36 -216,-147 -216,230 -653,627 -814,554 -43,-19 -173,-334 -189,-392 0,0 -354,31 -388,-8 -109,-123 135,-862 351,-1078z" style="fill:#89b3f0"/>
  <path class="LeftPaw-Pig0fil10" d="M8560 21498c67,307 352,47 875,-255 -5,66 100,45 131,-12 40,-92 52,-190 68,-283 88,22 225,-79 303,-156 5,-5 11,-11 16,-16 -49,174 -144,541 -243,653 -90,2 -173,-72 -216,-147 -199,212 -579,572 -803,508 -84,-24 -79,-133 -131,-292z" style="fill:#ace47e"/>
  <path class="LeftPaw-Pig0fil0 LeftPaw-Pig0str2" d="M10228 20561c-121,75 -170,94 -272,202 0,149 -37,330 -92,461 -55,128 -115,197 -196,208 -55,8 -128,-6 -194,-123 -208,221 -642,571 -797,501 -41,-19 -163,-344 -178,-400 0,0 -356,75 -389,38 -86,-99 94,-785 280,-992 109,-122 404,-420 409,-427 68,-85 123,-182 179,-276" style="fill:#2d2264"/>
  <polygon class="LeftPaw-Pig0fil40" points="8568,21484 8686,21021 8391,21393 "/>
 </g><g id="NecklaceThug-Medium">
 <animateTransform additive="sum" attributeName="transform" dur="10" repeatCount="indefinite" type="translate" values="0;0 200;0;0 200;0;0 200;0;0 200;0"/>
  <metadata id="CorelCorpID_55Corel-Layer"/>
  <g>
   <path class="NecklaceThug-Mediumfil84new" d="M16049 18792c-183,-28 -306,-151 -315,-349 48,66 59,153 139,211 216,158 589,-58 795,-141 297,-120 556,-34 682,245 19,44 83,220 60,264 -51,-105 -100,-286 -218,-367 -109,-75 -275,-103 -398,-31l-31 22c-1,1 -3,6 -4,5 -1,-2 -3,2 -4,4 78,33 154,67 225,115 67,45 144,99 184,151 100,127 221,253 257,422 66,2 123,-11 198,-4 60,7 108,24 162,35 -6,-47 -28,-130 -5,-176 15,36 23,72 45,109 99,167 297,192 431,337 44,47 100,114 128,181l-27 -29c-104,-141 -234,-256 -418,-298 -107,-24 -226,-41 -337,-10 -40,11 -110,48 -119,76 -9,26 9,139 21,163 90,6 174,-9 272,3 250,30 486,156 623,345 168,231 216,457 171,750l-42 -239c-64,-213 -214,-344 -465,-346 31,-20 89,-34 134,-35 59,-2 92,23 137,26 -111,-305 -524,-451 -827,-420l3 184c54,19 161,26 230,46 56,16 148,58 178,92 -68,1 -127,-15 -206,-5 -48,5 -134,13 -171,37 50,202 185,264 229,341 -303,-105 -342,-337 -405,-359 -51,-18 -145,-44 -195,-54 22,33 66,54 84,90 -114,-32 -202,-103 -253,-179 -53,-80 -116,-183 -126,-303l16 18c1,1 7,11 9,14 6,9 11,19 17,28 13,20 22,32 38,50 24,28 63,69 97,90 72,45 177,85 280,88 25,-41 23,-121 27,-175 -121,5 -227,1 -304,-64 -233,-195 -45,-408 -110,-576 -25,-68 -114,-162 -161,-191 68,37 128,97 174,163 122,173 -68,368 129,526 71,58 171,62 277,64 2,-297 -53,-508 -207,-670 -72,-76 -133,-141 -242,-197 -64,-34 -271,-102 -348,-53 19,19 24,14 40,33 75,85 89,234 19,326 -8,12 -8,10 -17,21l-16 18c135,4 210,79 217,215 -18,-18 -34,-50 -54,-74 -83,-99 -171,-35 -290,-75 -90,-30 -213,-158 -244,-244 49,27 83,89 148,125 127,70 305,-101 187,-225 -27,-29 -36,-39 -73,-61 -223,-131 -302,64 -492,72 -119,6 -264,-101 -311,-202 30,33 126,86 190,103 90,23 154,2 218,-47l-36 -9z" style="fill:#7c1fcf"/>
   <path class="NecklaceThug-Mediumfil84new" d="M16651 18185c264,-5 443,75 533,249 -128,-57 -189,-120 -384,-133 -400,-26 -718,473 -948,99 -18,-29 -78,-158 -65,-184 47,114 98,196 222,229 138,37 255,-32 339,-96 230,-176 193,-354 11,-373 -80,-8 -124,21 -178,51 48,-83 175,-146 310,-109 64,17 111,41 135,82 32,56 36,116 25,185z" style="fill:#67cf44"/>
  </g>
  <path class="NecklaceThug-Mediumfil14new" d="M13123 19316c373,-34 481,259 571,445 -263,61 -527,122 -790,182 -38,111 19,72 -19,182 65,323 845,475 1180,471 268,590 415,1168 527,2008 38,289 655,-23 1004,-69 -573,-1261 -1266,-2642 -1839,-3903 -251,188 -433,402 -634,684z" style="fill:#18b277"/>
  <path class="NecklaceThug-Mediumfil360new" d="M13706 21013l114 -2 1 0 0 0c71,0 130,18 178,55 25,19 46,45 63,76 14,27 25,58 32,93 2,5 2,11 2,16 2,7 3,14 3,22l0 460c0,9 -2,18 -4,27 -16,63 -49,112 -98,147 -46,33 -105,50 -174,50 -2,0 -5,0 -7,0l-19 0 0 79c0,56 -45,100 -100,100l-332 0c-55,0 -100,-44 -100,-100l0 -73 -154 0c-46,0 -85,-31 -97,-73l-94 -258c-18,-51 8,-109 60,-127 11,-4 23,-6 34,-6l0 -1 332 0c6,-1 13,-2 19,-2l181 0 0 -25 -356 0c-70,0 -128,-16 -175,-49 -50,-36 -83,-86 -98,-152 -2,-8 -3,-15 -3,-23l0 0c0,-5 0,-5 1,-34 0,-13 0,-25 0,-36l0 0c1,-13 1,-24 1,-33 0,-4 0,-4 0,-11 -1,-6 -2,-13 -2,-20l0 -341c0,-11 2,-21 4,-30 8,-31 18,-59 31,-83 17,-32 38,-57 63,-77 25,-19 53,-33 85,-42 28,-8 59,-12 93,-12l75 0 0 -50c0,-56 45,-100 100,-100l334 0c55,0 100,44 100,100l0 50 196 0c55,0 100,44 100,100l0 124c1,6 2,13 2,20l0 0c0,4 0,6 -1,31 0,12 0,23 -1,32 0,11 0,21 0,29 0,6 0,3 0,28 0,55 -45,100 -100,100 -3,0 -6,0 -8,0l-288 2c-6,0 -12,-1 -18,-2l-216 0 0 21 234 0c2,0 5,0 7,0z" style="fill:#aa06c3"/>
  <g>
   <path class="NecklaceThug-Mediumfil223new NecklaceThug-Mediumstr0new" d="M15900 17918c20,17 40,35 42,59 2,33 -21,76 -53,88 4,3 7,6 10,9 21,26 42,71 56,102 58,-54 142,-169 130,-258l-185 0zm-192 149c25,59 48,119 70,179 19,23 57,50 56,82 -1,33 -28,72 -60,81 3,3 6,6 9,9 19,27 36,73 46,104 66,-48 167,-160 150,-250 -16,-49 -53,-142 -86,-179 -35,-35 -152,-84 -185,-26zm-114 323c20,60 37,121 53,182 17,24 53,54 49,86 -4,32 -34,66 -66,71 2,3 5,7 7,10 17,28 29,75 37,106 69,-39 180,-137 171,-227 -12,-49 -41,-143 -69,-183 -32,-36 -144,-97 -182,-45zm-141 301c14,60 26,121 37,182 14,24 47,59 40,89 -7,31 -40,60 -72,61 2,3 4,7 6,11 14,29 22,76 26,108 72,-30 191,-113 191,-201 -7,-50 -27,-144 -52,-186 -28,-39 -133,-111 -176,-64zm-166 274c7,52 13,102 17,154 0,10 0,20 0,30 11,29 38,66 26,98 -13,32 -52,63 -87,62 2,4 3,8 4,12 9,33 8,84 6,118 87,-25 195,-100 232,-185 2,-5 3,-13 3,-19 -2,-49 -13,-143 -33,-187 -25,-42 -123,-122 -168,-83zm-210 269c-3,65 -9,130 -17,195 7,29 29,70 13,99 -16,30 -59,53 -93,47 2,4 3,8 3,12 5,33 -3,83 -9,116 85,-14 229,-71 257,-164 8,-52 16,-154 4,-203 -18,-48 -103,-141 -158,-102zm-248 241c-11,63 -26,125 -42,186 2,30 18,74 -1,100 -20,26 -65,42 -97,30 1,4 1,8 1,13 0,33 -15,80 -27,111 85,1 235,-31 275,-118 16,-49 37,-147 31,-197 -11,-48 -81,-154 -140,-125zm-272 193c-5,13 -9,26 -14,39 -19,48 -38,92 -60,138 -3,31 4,76 -21,99 -25,23 -74,31 -104,13 0,5 0,9 -1,13 -8,33 -33,78 -51,107 87,15 246,8 304,-73 17,-33 31,-66 44,-101 9,-28 19,-60 20,-90 -3,-50 -58,-163 -117,-145zm-308 145c-32,55 -68,108 -106,160 -9,29 -10,75 -39,93 -29,17 -79,15 -105,-8 -1,5 -2,9 -4,13 -14,31 -48,69 -72,93 83,33 241,58 314,-11 33,-41 90,-125 102,-176 7,-51 -27,-171 -90,-164zm-328 82c-43,48 -89,93 -138,135 -15,27 -25,72 -58,83 -12,3 -22,4 -35,3 -27,-2 -50,-11 -68,-32 -2,4 -4,7 -7,11 -20,27 -62,58 -90,77 53,37 102,55 165,67 43,7 111,13 149,-13 42,-34 115,-105 137,-152 17,-49 8,-173 -55,-179zm-342 12c-52,38 -106,72 -162,104 -20,23 -40,65 -74,69 -33,4 -78,-18 -92,-49 -3,3 -6,6 -9,9 -25,23 -72,44 -103,57 62,64 197,150 291,117 48,-24 134,-78 166,-120 28,-45 44,-168 -17,-187zm-333 -58c-58,27 -119,50 -180,69 -24,19 -52,56 -85,53 -34,-3 -74,-33 -81,-66 -4,3 -7,5 -11,7 -29,18 -79,30 -112,36 48,74 163,186 261,172 51,-14 146,-50 185,-84 36,-38 78,-156 23,-187zm-317 -123c-38,9 -76,16 -115,22 -25,4 -49,8 -73,12 -26,14 -61,46 -92,37 -32,-8 -64,-44 -65,-77 -4,2 -7,4 -11,6 -31,12 -81,16 -115,18 33,77 121,205 216,208 9,-1 17,-2 26,-4 53,-7 124,-19 171,-44 43,-30 107,-137 58,-178zm-283 -176c-64,4 -128,5 -191,3 -29,9 -68,35 -98,21 -31,-14 -58,-55 -54,-88 -4,1 -8,3 -13,3 -33,7 -83,3 -117,-1 22,83 91,225 185,244 52,3 152,1 199,-17 44,-22 130,-115 89,-165zm-257 -225c-65,-6 -130,-17 -194,-29 -30,5 -72,24 -101,5 -28,-18 -51,-64 -43,-97 -4,0 -8,1 -13,1 -22,1 -45,-3 -67,-7 -3,0 -41,-6 -47,-7 1,13 2,26 3,39 18,73 70,202 148,230 51,12 151,26 202,16 47,-14 146,-94 112,-151zm-231 -269c-60,-12 -119,-26 -178,-41 -28,2 -73,17 -97,-1 -25,-20 -37,-63 -25,-92 -4,0 -8,1 -13,1 -32,0 -78,-14 -109,-24 -3,77 20,222 100,259 49,14 100,24 150,29 2,1 35,3 40,3 52,-7 155,-70 133,-132 -1,-1 -1,-2 -1,-2zm-175 -264c-59,-19 -117,-41 -174,-65 -29,-1 -75,9 -97,-13 -23,-22 -32,-67 -16,-96 -5,0 -9,0 -13,-1 -33,-4 -77,-23 -107,-36 -10,78 -1,227 75,274 46,20 137,52 185,53 47,-4 165,-56 147,-116zm-150 -292c-57,-26 -113,-56 -168,-86 -29,-5 -76,0 -97,-25 -20,-25 -25,-72 -7,-100 -4,0 -8,-1 -12,-2 -33,-8 -76,-32 -104,-49 -17,79 -22,231 50,288 44,26 131,69 180,75 48,2 170,-37 158,-101zm-124 -315c-54,-34 -108,-70 -160,-108 -29,-8 -76,-8 -94,-35 -18,-28 -19,-77 2,-104 -4,0 -8,-1 -12,-3 -11,-4 -23,-10 -35,-17l-76 0c-16,83 -20,201 35,255 41,31 125,85 173,97 49,7 173,-20 167,-85zm4052 78c-21,-60 -44,-119 -69,-178 -31,-34 -30,-121 -3,-167l-158 0c-16,45 -23,92 -15,130 18,46 76,150 108,185 25,24 134,90 137,30zm-131 323c-16,-60 -34,-120 -53,-180 -32,-41 -17,-146 26,-176 -27,-38 -52,-83 -72,-124 -67,45 -137,162 -125,246 13,47 62,153 91,190 21,25 124,102 133,44zm-159 299c-10,-61 -23,-121 -36,-181 -28,-43 -4,-143 41,-167 -23,-39 -44,-86 -61,-128 -69,36 -150,141 -144,223 9,47 48,155 73,194 18,26 113,114 127,59zm-188 275c0,-18 0,-38 -1,-57 -4,-42 -9,-85 -14,-127 -23,-45 8,-139 55,-158 -19,-40 -35,-87 -48,-130 -71,26 -160,117 -162,197 4,35 15,77 24,110 6,31 13,66 25,95 16,32 96,128 121,70zm-245 277c8,-64 13,-128 17,-193 -16,-51 37,-148 87,-164 -9,-31 -15,-64 -20,-96 -4,-15 -7,-29 -10,-44 -5,1 -33,7 -35,10 -61,33 -151,115 -165,186 -3,55 4,160 16,213 11,32 79,141 110,88zm-274 229c17,-61 31,-123 42,-185 -9,-51 53,-137 104,-145 -7,-45 -9,-96 -10,-142 -78,10 -192,81 -219,158 -9,54 -16,157 -11,210 6,32 57,150 94,104zm-305 180c26,-54 49,-107 70,-163 1,-1 4,-12 5,-14 -1,-50 70,-124 121,-123 -1,-45 3,-95 8,-140 -79,-3 -184,43 -228,111 -1,1 -2,3 -3,5 -18,51 -43,153 -48,205 0,34 28,159 75,119zm-339 123c38,-51 73,-104 106,-158 9,-50 95,-111 145,-101 8,-45 21,-94 34,-138 -75,-15 -202,12 -252,74 -26,47 -69,142 -84,192 -6,33 -3,161 51,131zm-359 52c49,-41 95,-86 138,-133 19,-47 114,-89 161,-70 16,-43 38,-87 58,-128 -69,-30 -196,-28 -257,22 -35,40 -98,125 -122,171 -14,31 -37,157 22,138zm-364 -23c56,-31 110,-65 162,-102 30,-37 85,-49 131,-47 16,1 30,4 44,12 25,-38 55,-77 84,-113 -39,-30 -80,-40 -128,-45 -36,-3 -99,-5 -131,14 -43,31 -122,101 -155,141 -19,27 -68,146 -7,140zm-347 -97c61,-18 120,-41 178,-67 36,-35 141,-35 176,2 32,-33 70,-64 105,-94 -51,-55 -168,-105 -244,-83 -49,22 -140,74 -181,106 -24,24 -95,130 -34,136zm-322 -160c34,-5 66,-10 99,-17 30,-5 58,-11 88,-17 42,-27 146,-6 174,37 38,-25 81,-49 122,-70 -40,-66 -147,-138 -227,-132 -9,1 -60,15 -64,18 -41,15 -94,32 -132,54 -27,18 -117,110 -60,127zm-283 -210c63,3 126,2 190,-2 46,-20 142,17 161,65 41,-19 88,-34 131,-48 -26,-72 -117,-161 -196,-168 -54,3 -157,20 -208,37 -30,14 -133,90 -78,116zm-256 -258c63,13 127,23 191,30 50,-12 143,43 155,93 44,-11 94,-18 139,-23 -16,-79 -97,-184 -176,-206 -56,-6 -162,-7 -215,2 -35,9 -146,69 -94,104zm-212 -280c59,16 118,30 177,41 12,-1 21,0 32,3 48,20 100,62 110,115 47,-4 98,-2 145,0 -5,-85 -59,-160 -119,-216 -10,-8 -20,-16 -32,-19 -53,-10 -152,-18 -205,-14 -31,5 -152,54 -108,90zm-169 -288c57,24 115,45 174,64 49,-1 122,69 119,119 44,0 93,5 137,10 8,-76 -38,-193 -109,-231 -52,-17 -151,-38 -204,-41 -33,2 -157,37 -117,79zm-142 -314c55,31 111,59 168,86 50,5 116,86 108,136 45,6 93,17 137,28 16,-77 -21,-203 -88,-250 -44,-23 -155,-61 -202,-67 -33,-2 -159,20 -123,67zm-114 -337c52,37 106,73 160,107 50,11 108,101 96,152 44,10 92,28 135,45 22,-79 -3,-212 -66,-268 -41,-28 -149,-80 -196,-91 -34,-6 -160,3 -129,55zm143 -136c9,26 12,52 6,71 44,16 90,40 131,62 13,-36 18,-84 13,-133l-150 0z" style="fill:#7c2861"/>
   <path class="NecklaceThug-Mediumfil361new" d="M15900 17918c20,17 40,35 42,59 2,33 -21,76 -53,88 4,3 7,6 10,9 21,26 42,71 56,102 58,-54 142,-169 130,-258l-185 0zm-192 149c25,59 48,119 70,179 19,23 57,50 56,82 -1,33 -28,72 -60,81 3,3 6,6 9,9 19,27 36,73 46,104 66,-48 167,-160 150,-250 -16,-49 -53,-142 -86,-179 -35,-35 -152,-84 -185,-26zm-114 323c20,60 37,121 53,182 17,24 53,54 49,86 -4,32 -34,66 -66,71 2,3 5,7 7,10 17,28 29,75 37,106 69,-39 180,-137 171,-227 -12,-49 -41,-143 -69,-183 -32,-36 -144,-97 -182,-45zm-141 301c14,60 26,121 37,182 14,24 47,59 40,89 -7,31 -40,60 -72,61 2,3 4,7 6,11 14,29 22,76 26,108 72,-30 191,-113 191,-201 -7,-50 -27,-144 -52,-186 -28,-39 -133,-111 -176,-64zm-166 274c7,52 13,102 17,154 0,10 0,20 0,30 11,29 38,66 26,98 -13,32 -52,63 -87,62 2,4 3,8 4,12 9,33 8,84 6,118 87,-25 195,-100 232,-185 2,-5 3,-13 3,-19 -2,-49 -13,-143 -33,-187 -25,-42 -123,-122 -168,-83zm-210 269c-3,65 -9,130 -17,195 7,29 29,70 13,99 -16,30 -59,53 -93,47 2,4 3,8 3,12 5,33 -3,83 -9,116 85,-14 229,-71 257,-164 8,-52 16,-154 4,-203 -18,-48 -103,-141 -158,-102zm-248 241c-11,63 -26,125 -42,186 2,30 18,74 -1,100 -20,26 -65,42 -97,30 1,4 1,8 1,13 0,33 -15,80 -27,111 85,1 235,-31 275,-118 16,-49 37,-147 31,-197 -11,-48 -81,-154 -140,-125zm-272 193c-5,13 -9,26 -14,39 -19,48 -38,92 -60,138 -3,31 4,76 -21,99 -25,23 -74,31 -104,13 0,5 0,9 -1,13 -8,33 -33,78 -51,107 87,15 246,8 304,-73 17,-33 31,-66 44,-101 9,-28 19,-60 20,-90 -3,-50 -58,-163 -117,-145zm-308 145c-32,55 -68,108 -106,160 -9,29 -10,75 -39,93 -29,17 -79,15 -105,-8 -1,5 -2,9 -4,13 -14,31 -48,69 -72,93 83,33 241,58 314,-11 33,-41 90,-125 102,-176 7,-51 -27,-171 -90,-164zm-328 82c-43,48 -89,93 -138,135 -15,27 -25,72 -58,83 -12,3 -22,4 -35,3 -27,-2 -50,-11 -68,-32 -2,4 -4,7 -7,11 -20,27 -62,58 -90,77 53,37 102,55 165,67 43,7 111,13 149,-13 42,-34 115,-105 137,-152 17,-49 8,-173 -55,-179zm-342 12c-52,38 -106,72 -162,104 -20,23 -40,65 -74,69 -33,4 -78,-18 -92,-49 -3,3 -6,6 -9,9 -25,23 -72,44 -103,57 62,64 197,150 291,117 48,-24 134,-78 166,-120 28,-45 44,-168 -17,-187zm-333 -58c-58,27 -119,50 -180,69 -24,19 -52,56 -85,53 -34,-3 -74,-33 -81,-66 -4,3 -7,5 -11,7 -29,18 -79,30 -112,36 48,74 163,186 261,172 51,-14 146,-50 185,-84 36,-38 78,-156 23,-187zm-317 -123c-38,9 -76,16 -115,22 -25,4 -49,8 -73,12 -26,14 -61,46 -92,37 -32,-8 -64,-44 -65,-77 -4,2 -7,4 -11,6 -31,12 -81,16 -115,18 33,77 121,205 216,208 9,-1 17,-2 26,-4 53,-7 124,-19 171,-44 43,-30 107,-137 58,-178zm-283 -176c-64,4 -128,5 -191,3 -29,9 -68,35 -98,21 -31,-14 -58,-55 -54,-88 -4,1 -8,3 -13,3 -33,7 -83,3 -117,-1 22,83 91,225 185,244 52,3 152,1 199,-17 44,-22 130,-115 89,-165zm-257 -225c-65,-6 -130,-17 -194,-29 -30,5 -72,24 -101,5 -28,-18 -51,-64 -43,-97 -4,0 -8,1 -13,1 -22,1 -45,-3 -67,-7 -3,0 -41,-6 -47,-7 1,13 2,26 3,39 18,73 70,202 148,230 51,12 151,26 202,16 47,-14 146,-94 112,-151zm-231 -269c-60,-12 -119,-26 -178,-41 -28,2 -73,17 -97,-1 -25,-20 -37,-63 -25,-92 -4,0 -8,1 -13,1 -32,0 -78,-14 -109,-24 -3,77 20,222 100,259 49,14 100,24 150,29 2,1 35,3 40,3 52,-7 155,-70 133,-132 -1,-1 -1,-2 -1,-2zm-175 -264c-59,-19 -117,-41 -174,-65 -29,-1 -75,9 -97,-13 -23,-22 -32,-67 -16,-96 -5,0 -9,0 -13,-1 -33,-4 -77,-23 -107,-36 -10,78 -1,227 75,274 46,20 137,52 185,53 47,-4 165,-56 147,-116zm-150 -292c-57,-26 -113,-56 -168,-86 -29,-5 -76,0 -97,-25 -20,-25 -25,-72 -7,-100 -4,0 -8,-1 -12,-2 -33,-8 -76,-32 -104,-49 -17,79 -22,231 50,288 44,26 131,69 180,75 48,2 170,-37 158,-101zm-124 -315c-54,-34 -108,-70 -160,-108 -29,-8 -76,-8 -94,-35 -18,-28 -19,-77 2,-104 -4,0 -8,-1 -12,-3 -11,-4 -23,-10 -35,-17l-76 0c-16,83 -20,201 35,255 41,31 125,85 173,97 49,7 173,-20 167,-85zm4052 78c-21,-60 -44,-119 -69,-178 -31,-34 -30,-121 -3,-167l-158 0c-16,45 -23,92 -15,130 18,46 76,150 108,185 25,24 134,90 137,30zm-131 323c-16,-60 -34,-120 -53,-180 -32,-41 -17,-146 26,-176 -27,-38 -52,-83 -72,-124 -67,45 -137,162 -125,246 13,47 62,153 91,190 21,25 124,102 133,44zm-159 299c-10,-61 -23,-121 -36,-181 -28,-43 -4,-143 41,-167 -23,-39 -44,-86 -61,-128 -69,36 -150,141 -144,223 9,47 48,155 73,194 18,26 113,114 127,59zm-188 275c0,-18 0,-38 -1,-57 -4,-42 -9,-85 -14,-127 -23,-45 8,-139 55,-158 -19,-40 -35,-87 -48,-130 -71,26 -160,117 -162,197 4,35 15,77 24,110 6,31 13,66 25,95 16,32 96,128 121,70zm-245 277c8,-64 13,-128 17,-193 -16,-51 37,-148 87,-164 -9,-31 -15,-64 -20,-96 -4,-15 -7,-29 -10,-44 -5,1 -33,7 -35,10 -61,33 -151,115 -165,186 -3,55 4,160 16,213 11,32 79,141 110,88zm-274 229c17,-61 31,-123 42,-185 -9,-51 53,-137 104,-145 -7,-45 -9,-96 -10,-142 -78,10 -192,81 -219,158 -9,54 -16,157 -11,210 6,32 57,150 94,104zm-305 180c26,-54 49,-107 70,-163 1,-1 4,-12 5,-14 -1,-50 70,-124 121,-123 -1,-45 3,-95 8,-140 -79,-3 -184,43 -228,111 -1,1 -2,3 -3,5 -18,51 -43,153 -48,205 0,34 28,159 75,119zm-339 123c38,-51 73,-104 106,-158 9,-50 95,-111 145,-101 8,-45 21,-94 34,-138 -75,-15 -202,12 -252,74 -26,47 -69,142 -84,192 -6,33 -3,161 51,131zm-359 52c49,-41 95,-86 138,-133 19,-47 114,-89 161,-70 16,-43 38,-87 58,-128 -69,-30 -196,-28 -257,22 -35,40 -98,125 -122,171 -14,31 -37,157 22,138zm-364 -23c56,-31 110,-65 162,-102 30,-37 85,-49 131,-47 16,1 30,4 44,12 25,-38 55,-77 84,-113 -39,-30 -80,-40 -128,-45 -36,-3 -99,-5 -131,14 -43,31 -122,101 -155,141 -19,27 -68,146 -7,140zm-347 -97c61,-18 120,-41 178,-67 36,-35 141,-35 176,2 32,-33 70,-64 105,-94 -51,-55 -168,-105 -244,-83 -49,22 -140,74 -181,106 -24,24 -95,130 -34,136zm-322 -160c34,-5 66,-10 99,-17 30,-5 58,-11 88,-17 42,-27 146,-6 174,37 38,-25 81,-49 122,-70 -40,-66 -147,-138 -227,-132 -9,1 -60,15 -64,18 -41,15 -94,32 -132,54 -27,18 -117,110 -60,127zm-283 -210c63,3 126,2 190,-2 46,-20 142,17 161,65 41,-19 88,-34 131,-48 -26,-72 -117,-161 -196,-168 -54,3 -157,20 -208,37 -30,14 -133,90 -78,116zm-256 -258c63,13 127,23 191,30 50,-12 143,43 155,93 44,-11 94,-18 139,-23 -16,-79 -97,-184 -176,-206 -56,-6 -162,-7 -215,2 -35,9 -146,69 -94,104zm-212 -280c59,16 118,30 177,41 12,-1 21,0 32,3 48,20 100,62 110,115 47,-4 98,-2 145,0 -5,-85 -59,-160 -119,-216 -10,-8 -20,-16 -32,-19 -53,-10 -152,-18 -205,-14 -31,5 -152,54 -108,90zm-169 -288c57,24 115,45 174,64 49,-1 122,69 119,119 44,0 93,5 137,10 8,-76 -38,-193 -109,-231 -52,-17 -151,-38 -204,-41 -33,2 -157,37 -117,79zm-142 -314c55,31 111,59 168,86 50,5 116,86 108,136 45,6 93,17 137,28 16,-77 -21,-203 -88,-250 -44,-23 -155,-61 -202,-67 -33,-2 -159,20 -123,67zm-114 -337c52,37 106,73 160,107 50,11 108,101 96,152 44,10 92,28 135,45 22,-79 -3,-212 -66,-268 -41,-28 -149,-80 -196,-91 -34,-6 -160,3 -129,55zm143 -136c9,26 12,52 6,71 44,16 90,40 131,62 13,-36 18,-84 13,-133l-150 0z" style="fill:#1c771f"/>
  </g>
  <path class="NecklaceThug-Mediumfil362new" d="M13682 18370c122,1 364,-24 463,-40 -890,830 -1628,3079 -1811,4526 -801,0 -1950,-615 -2232,-1312 321,-720 369,-1294 816,-2072 -543,-273 -1115,-868 -1311,-1228 424,-434 932,-710 1655,-854 95,429 1528,980 2420,980z" style="fill:#1e9da1"/>
  <path class="NecklaceThug-Mediumfil363new" d="M13567 19090c-619,1051 -1091,2648 -1233,3766 -61,0 -124,-3 -188,-10 148,-1154 585,-2996 1435,-3816l-14 60z" style="fill:#d4cfb6"/>
  <path class="NecklaceThug-Mediumfil363new" d="M11397 19498c195,292 862,391 801,789 37,-124 98,-272 134,-395 -299,-114 -659,-241 -935,-394z" style="fill:#4a1eaf"/>
  <path class="NecklaceThug-Mediumfil33new NecklaceThug-Mediumstr0new" d="M13682 18370c122,1 364,-24 463,-40 -890,830 -1628,3079 -1811,4526 -801,0 -1950,-615 -2232,-1312 321,-720 369,-1294 816,-2072 -543,-273 -1115,-868 -1311,-1228 424,-434 932,-710 1655,-854 95,429 1528,980 2420,980z" style="fill:#fc8e6c"/>
  <path class="NecklaceThug-Mediumfil3new" d="M11348 22624c-556,-242 -1070,-645 -1246,-1080 318,-713 368,-1282 803,-2048 -97,513 -327,1273 -303,1858 22,530 267,882 809,1278l-63 -8zm-438 -3156l-9 -5 10 -2 -1 7z" style="fill:#d88160"/>
  <path class="NecklaceThug-Mediumfil84new" d="M10885 19400c182,-275 499,-552 715,-637 -225,173 -469,481 -649,801 -35,-37 -32,-127 -66,-164z" style="fill:#8acc2e"/>
  <path class="NecklaceThug-Mediumfil364new" d="M13682 18370c-111,-1 -326,-24 -423,-35 741,905 1599,3165 1771,4521 801,0 1950,-615 2232,-1312 -321,-720 -370,-1294 -816,-2072 543,-273 1115,-868 1311,-1228 -424,-434 -932,-710 -1655,-854 -95,429 -1528,980 -2420,980z" style="fill:#859436"/>
  <path class="NecklaceThug-Mediumfil363new" d="M17271 18807c194,-200 401,-407 486,-563 -288,-295 -748,-519 -1154,-676 589,330 939,735 668,1239z" style="fill:#5df5c4"/>
  <path class="NecklaceThug-Mediumfil33new NecklaceThug-Mediumstr0new" d="M13682 18370c-111,-1 -326,-24 -423,-35 741,905 1599,3165 1771,4521 801,0 1950,-615 2232,-1312 -321,-720 -370,-1294 -816,-2072 543,-273 1115,-868 1311,-1228 -424,-434 -932,-710 -1655,-854 -95,429 -1528,980 -2420,980z" style="fill:#c8d01a"/>
  <path class="NecklaceThug-Mediumfil33new NecklaceThug-Mediumstr3new" d="M11942 21175c58,-381 231,-842 413,-1290 -391,-121 -694,-256 -976,-432 -263,298 -440,854 -520,1264 233,177 642,414 1083,458z" style="fill:#8141ed"/>
  <path class="NecklaceThug-Mediumfil33new NecklaceThug-Mediumstr3new" d="M11194 19750c71,176 189,412 323,588 234,-64 446,-96 704,-131" style="fill:#23660b"/>
  <path class="NecklaceThug-Mediumfil363new" d="M15060 19878c349,43 881,-390 1143,-84 -70,-109 -140,-217 -210,-326 -281,153 -637,301 -933,410z" style="fill:#1afe10"/>
  <path class="NecklaceThug-Mediumfil33new NecklaceThug-Mediumstr3new" d="M15422 21175c-58,-381 -231,-842 -413,-1290 391,-121 693,-256 976,-432 263,298 440,854 520,1264 -234,177 -642,414 -1083,458z" style="fill:#3e8e8f"/>
  <path class="NecklaceThug-Mediumfil3new" d="M13457 18693c-388,99 -719,285 -1003,710 -93,138 -645,-496 -891,-998 -225,-462 -828,-678 -1473,-491 141,-172 419,-324 620,-372 310,91 626,188 936,278 577,249 1174,424 1728,657 38,85 63,133 83,216z" style="fill:#47d5ee"/>
  <path class="NecklaceThug-Mediumfil33new NecklaceThug-Mediumstr3new" d="M16170 19750c-71,176 -189,412 -323,588 -235,-64 -446,-96 -704,-131" style="fill:#0dce94"/>
  <path class="NecklaceThug-Mediumfil365new NecklaceThug-Mediumstr3new" d="M11311 17496c270,402 1511,859 2331,873 -477,138 -764,588 -975,973 -512,-388 -1184,-1176 -1356,-1846z" style="fill:#67f41c"/>
  <path class="NecklaceThug-Mediumfil363new" d="M12044 18734c702,536 856,-111 1268,-228 -196,150 -417,431 -654,811 -201,-148 -458,-378 -614,-583z" style="fill:#303623"/>
  <path class="NecklaceThug-Mediumfil33new NecklaceThug-Mediumstr3new" d="M11311 17496c270,402 1511,859 2331,873 -477,138 -764,588 -975,973 -512,-388 -1184,-1176 -1356,-1846z" style="fill:#702caf"/>
  <path class="NecklaceThug-Mediumfil3new" d="M13574 18664c373,-23 741,365 862,589 115,214 1036,-792 1285,-1432 -474,220 -1366,490 -1930,537 -26,117 -81,244 -217,306z" style="fill:#68e123"/>
  <path class="NecklaceThug-Mediumfil3new" d="M12361 18105c-334,-14 -680,-18 -568,331 -136,-196 -316,-491 -398,-690 84,25 168,50 251,74 221,46 584,220 715,285z" style="fill:#77bc25"/>
  <path class="NecklaceThug-Mediumfil365new" d="M16053 17496c-270,402 -1511,859 -2331,873 477,138 764,588 975,973 512,-388 1184,-1176 1356,-1846z" style="fill:#0d0400"/>
  <path class="NecklaceThug-Mediumfil363new" d="M14264 18721c171,162 353,476 433,621 383,-290 906,-877 1191,-1398 -40,54 -81,43 -120,94 -487,660 -939,1177 -1504,683z" style="fill:#fba522"/>
  <path class="NecklaceThug-Mediumfil33new NecklaceThug-Mediumstr3new" d="M16053 17496c-270,402 -1511,859 -2331,873 477,138 764,588 975,973 512,-388 1184,-1176 1356,-1846z" style="fill:#3ba0cc"/>
  <circle class="NecklaceThug-Mediumfil366new NecklaceThug-Mediumstr4new" cx="13643" cy="18592" r="147"/>
  <circle class="NecklaceThug-Mediumfil366new NecklaceThug-Mediumstr4new" cx="12871" cy="19663" r="147"/>
  <circle class="NecklaceThug-Mediumfil366new NecklaceThug-Mediumstr4new" cx="12409" cy="20971" r="147"/>
  <circle class="NecklaceThug-Mediumfil366new NecklaceThug-Mediumstr4new" cx="12056" cy="22436" r="147"/>
  <circle class="NecklaceThug-Mediumfil366new NecklaceThug-Mediumstr4new" cx="11636" cy="20022" r="147"/>
  <circle class="NecklaceThug-Mediumfil366new NecklaceThug-Mediumstr4new" cx="15725" cy="20025" r="147"/>
  <path class="NecklaceThug-Mediumfil84new" d="M16480 19400c-182,-275 -622,-663 -838,-747 225,172 592,591 772,911 35,-37 32,-127 66,-164z" style="fill:#f8b32c"/>
  <path class="NecklaceThug-Mediumfil3new" d="M11500 18827c-677,169 -639,387 -1385,51 181,137 610,481 791,617 209,-263 230,-409 594,-668z" style="fill:#dc8c5e"/>
  <path class="NecklaceThug-Mediumfil3new" d="M15807 18770c615,386 1119,244 1542,-65 -289,321 -650,645 -907,760 -184,-251 -397,-485 -635,-695z" style="fill:#5685f9"/>
  <path class="NecklaceThug-Mediumfil33new NecklaceThug-Mediumstr0new" d="M14278 19500c48,83 88,165 113,248" style="fill:#3b3c63"/>
  <path class="NecklaceThug-Mediumfil33new NecklaceThug-Mediumstr0new" d="M14811 20844c41,86 75,171 94,255" style="fill:#fcba70"/>
  <path class="NecklaceThug-Mediumfil33new NecklaceThug-Mediumstr0new" d="M15228 22278c25,92 44,182 48,268" style="fill:#7c4fdc"/>
  <path class="NecklaceThug-Mediumfil363new" d="M14515 19391c401,377 1074,2577 1034,3202 -102,-766 -821,-2838 -1034,-3202z" style="fill:#f91ec0"/>
  <path class="NecklaceThug-Mediumfil3new" d="M15742 20440c47,-23 70,-50 114,-78 -244,-49 -488,-98 -733,-147 21,48 28,85 49,133 440,89 510,122 570,92z" style="fill:#5e0764"/>
  <path class="NecklaceThug-Mediumfil3new" d="M11345 20317c47,23 100,34 141,39 -109,-225 -193,-365 -302,-590 -25,46 -55,80 -81,125 157,350 181,396 242,426z" style="fill:#8374ae"/>
  <g>
   <path class="NecklaceThug-Mediumfil47new NecklaceThug-Mediumstr9new" d="M13848 20974l122 -2c49,0 88,11 117,34 28,22 48,59 59,110 0,3 -1,6 -1,9 -1,3 -1,6 -1,9l4 0 0 460c-20,82 -79,124 -176,124l-126 2 0 177 -332 0 0 -173 -254 0 -97 -265 351 0 0 -2 280 0 0 -225 -455 0c-98,0 -156,-41 -176,-124 0,-21 0,-43 1,-67 1,-24 1,-46 1,-67l-2 0 0 -341c11,-52 30,-89 59,-111 29,-22 68,-33 117,-33l175 0 0 -150 334 0 0 150 296 0 0 134c0,5 0,8 2,10 0,19 -1,39 -1,60 -1,20 -1,40 -1,60l-296 2 0 -2 -334 0 0 221 334 0z" style="fill:#d4a1ca"/>
   <path class="NecklaceThug-Mediumfil367new" d="M13848 20974l122 -2c49,0 88,11 117,34 28,22 48,59 59,110 0,3 -1,6 -1,9 -1,3 -1,6 -1,9l4 0 0 460c-20,82 -79,124 -176,124l-126 2 0 177 -332 0 0 -173 -254 0 -97 -265 351 0 0 -2 280 0 0 -225 -455 0c-98,0 -156,-41 -176,-124 0,-21 0,-43 1,-67 1,-24 1,-46 1,-67l-2 0 0 -341c11,-52 30,-89 59,-111 29,-22 68,-33 117,-33l175 0 0 -150 334 0 0 150 296 0 0 134c0,5 0,8 2,10 0,19 -1,39 -1,60 -1,20 -1,40 -1,60l-296 2 0 -2 -334 0 0 221 334 0z" style="fill:#d70dbf"/>
  </g>
  <path class="NecklaceThug-Mediumfil368new" d="M13848 20974l122 -2c49,0 88,11 117,34 28,22 48,59 59,110 0,3 -1,6 -1,9 -1,3 -1,6 -1,9l4 0 0 460c-12,48 -37,83 -75,103 8,-15 19,-94 19,-142l0 -368 -4 0c0,-3 1,-6 1,-9 1,-3 1,-6 1,-9 -10,-51 -30,-88 -59,-111 -29,-22 -68,-33 -116,-33l-123 2 -269 0c-46,0 -64,-26 -64,-57l0 -164c0,-24 19,-53 55,-53l0 221 334 0zm-2 746l0 177 -56 0 0 -124c0,-25 22,-53 56,-53zm-664 -208l-19 -53 351 0 0 -2 281 0c0,29 -27,53 -56,53l-280 0 0 2 -277 0zm7 -951c9,-16 20,-29 33,-39 29,-22 68,-33 117,-33l175 0c0,19 -27,52 -55,52l-176 0c-37,0 -69,7 -94,20zm325 -170l0 -52 334 0 0 150 296 0 0 134c0,5 0,8 2,10 0,19 -1,39 -1,60 -1,20 -1,40 -1,60l-55 0 0 -170c0,-30 -19,-42 -47,-42l-208 0c-20,0 -39,-20 -39,-46 0,-24 0,-45 0,-66 0,-25 -20,-38 -42,-38l-239 0z" style="fill:#dfc657"/>
  <polygon class="NecklaceThug-Mediumfil83new" points="13811,20355 13890,20477 14035,20480 13913,20559 13910,20703 13831,20582 13686,20579 13808,20500 "/>
  <polygon class="NecklaceThug-Mediumfil83new" points="13477,21400 13546,21507 13673,21509 13567,21579 13564,21706 13495,21599 13368,21596 13474,21527 "/>
  <polygon class="NecklaceThug-Mediumfil83new" points="13530,19750 13599,19857 13726,19860 13619,19929 13617,20056 13547,19949 13420,19947 13527,19877 "/>
 </g><g id="BraceletDesert-Medium">
 <animateTransform additive="sum" attributeName="transform" dur="10" repeatCount="indefinite" type="translate" values="0;0 200;0;0 200;0;0 200;0;0 200;0"/>
  <metadata id="CorelCorpID_31Corel-Layer"/>
  <g>
   <path class="BraceletDesert-Mediumfil88new BraceletDesert-Mediumstr3new" d="M8720 20012c-107,-41 -163,-136 -118,-243 47,-114 192,-133 302,-98 450,166 896,445 1228,859 72,91 97,206 10,283 -86,78 -195,69 -274,-16 -307,-331 -748,-629 -1148,-785z" style="fill:#98da87"/>
   <path class="BraceletDesert-Mediumfil14new" d="M9069 20176c-370,-337 -193,-450 161,-344 -592,-384 -744,-39 -568,142l407 202z" style="fill:#818db2"/>
   <path class="BraceletDesert-Mediumfil14new" d="M9591 20535c453,214 490,6 256,-280 582,400 321,672 87,579l-343 -299z" style="fill:#d053b2"/>
  </g>
  <path class="BraceletDesert-Mediumfil89new BraceletDesert-Mediumstr3new" d="M18644 20012c107,-41 163,-136 118,-243 -47,-114 -192,-133 -302,-98 -450,166 -896,445 -1228,859 -72,91 -97,206 -11,283 86,78 196,69 274,-16 308,-331 749,-629 1149,-785z" style="fill:#12408c"/>
  <path class="BraceletDesert-Mediumfil14new" d="M18403 20122c309,-213 144,-462 -185,-341 468,-299 660,12 484,193l-299 148z" style="fill:#6061db"/>
  <path class="BraceletDesert-Mediumfil14new" d="M17772 20535c-452,214 -489,6 -256,-280 -581,400 -320,672 -86,579l342 -299z" style="fill:#6bd4d6"/>
 </g><g id="Head-Pig5">
 <animateTransform additive="sum" attributeName="transform" dur="10" repeatCount="indefinite" type="translate" values="0;0 200;0;0 200;0;0 200;0;0 200;0"/>
  <metadata id="CorelCorpID_100Corel-Layer"/>
  <path class="Head-Pig5fil165" d="M13682 17937c-481,0 -1034,-24 -1605,-101 -847,-114 -1738,-333 -2509,-708 -371,-180 -500,136 -491,337 -719,-495 -631,-1374 -770,-1556 -53,121 -259,436 -231,759 -578,-501 -343,-1565 -391,-1702 -35,-194 -252,-47 -443,254 -49,-404 -28,-822 41,-1233 85,-513 252,-1119 496,-1583 158,-300 365,-615 604,-1079 102,-182 197,-394 302,-573 27,-47 54,-103 82,-149 358,-597 759,-1164 1323,-1636 1250,-1046 2355,-1447 3591,-1474l1 0 1 0c1236,27 2341,428 3590,1474 565,472 966,1039 1324,1636 28,46 54,102 82,149 104,179 200,391 302,573 239,464 446,779 603,1079 245,464 412,1070 497,1583 69,411 90,829 41,1233 -191,-301 -408,-448 -443,-254 -48,137 187,1201 -391,1702 27,-323 -178,-638 -231,-759 -139,182 -52,1061 -770,1556 9,-201 -120,-517 -491,-337 -771,375 -1662,594 -2509,708 -571,77 -1124,101 -1605,101z" style="fill:#b8a8d5"/>
  <path class="Head-Pig5fil10" d="M8595 11042c-90,145 -189,290 -291,434 -206,384 -384,662 -525,928 -244,464 -411,1070 -496,1583 -69,411 -90,829 -41,1233 191,-301 408,-448 443,-254 48,137 -187,1201 391,1702 -28,-323 178,-638 231,-759 139,182 51,1061 770,1556 -9,-201 120,-517 491,-337 771,375 1662,594 2509,708 149,20 297,36 442,50 40,3 80,6 120,9 -2326,-552 -4001,-1593 -4496,-3087 -323,-975 -154,-2267 452,-3766z" style="fill:#e25d7c"/>
  <path class="Head-Pig5fil84" d="M9861 9172c974,-1177 2398,-1757 3821,-1747 1423,-10 2847,570 3821,1747 -1223,-1081 -2522,-1612 -3821,-1603 -1299,-9 -2598,522 -3821,1603z" style="fill:#7580e3"/>
  <path class="Head-Pig5fil84" d="M18558 10538c262,349 484,763 669,1097 87,158 168,282 197,333 83,143 159,273 227,401 116,221 215,473 296,731 92,294 162,598 208,874 36,216 59,433 66,650 7,204 0,406 -25,605 -4,41 -42,70 -83,65 -23,-3 -43,-16 -54,-34 -84,-131 -170,-230 -241,-279 -23,-16 -43,-26 -57,-27 0,0 0,-1 0,-1l0 -1c-3,5 -6,14 -9,27 0,4 -1,8 -3,11 -6,18 -2,94 3,199 20,386 57,1127 -415,1536 -31,27 -79,23 -106,-8 -13,-16 -19,-36 -18,-55l0 0c18,-208 -72,-417 -145,-564 -9,39 -17,84 -27,133 -69,363 -177,927 -712,1296 -34,23 -81,15 -104,-19 -10,-14 -14,-30 -13,-46 3,-60 -9,-131 -39,-192 -16,-34 -38,-64 -66,-86 -27,-20 -59,-33 -99,-35 -48,-2 -107,11 -179,46 -367,179 -762,323 -1165,437 -159,44 -1032,206 -1451,214 611,-128 1199,-299 1410,-359 395,-111 781,-251 1140,-426 96,-47 179,-64 251,-61 73,3 134,28 184,65 48,37 84,86 110,139 18,38 32,79 41,120 395,-334 485,-807 545,-1121 30,-153 52,-273 103,-339 8,-10 18,-18 30,-23 38,-17 82,0 98,38 9,19 23,47 40,79 63,124 162,315 192,528 291,-379 262,-967 246,-1290 -6,-116 -10,-201 3,-248 8,-40 22,-71 42,-94 34,-40 79,-56 131,-49 39,5 81,23 124,53 51,35 107,89 163,157 8,-129 10,-257 6,-386 -7,-209 -30,-420 -65,-630 -45,-270 -113,-566 -203,-854 -79,-250 -174,-494 -286,-706 -66,-125 -141,-254 -223,-396 -41,-70 -116,-197 -199,-377 -133,-288 -307,-697 -538,-1128zm1203 4415c1,-1 3,-4 1,-2l-1 1 0 1z" style="fill:#539bc4"/>
  <path class="Head-Pig5fil84" d="M8806 10538c-262,349 -484,763 -669,1097 -87,158 -168,282 -197,333 -83,143 -159,273 -227,401 -116,221 -215,473 -296,731 -92,294 -162,598 -208,874 -36,216 -59,433 -66,650 -7,204 0,406 24,605 5,41 43,70 84,65 23,-3 42,-16 54,-34 84,-131 170,-230 241,-279 23,-16 43,-26 57,-27 0,0 0,-1 0,-1l0 -1c3,5 6,14 8,27 1,4 2,8 3,11 7,18 3,94 -2,199 -20,386 -57,1127 415,1536 31,27 79,23 106,-8 13,-16 19,-36 18,-55l0 0c-18,-208 72,-417 145,-564 9,39 17,84 27,133 69,363 176,927 712,1296 34,23 80,15 104,-19 10,-14 14,-30 13,-46 -3,-60 9,-131 39,-192 16,-34 38,-64 66,-86 26,-20 59,-33 99,-35 48,-2 107,11 179,46 367,179 761,323 1165,437 159,44 1032,206 1451,214 -611,-128 -1199,-299 -1410,-359 -395,-111 -781,-251 -1140,-426 -96,-47 -179,-64 -251,-61 -74,3 -134,28 -184,65 -48,37 -84,86 -110,139 -19,38 -32,79 -41,120 -395,-334 -485,-807 -545,-1121 -30,-153 -52,-273 -103,-339 -8,-10 -18,-18 -30,-23 -38,-17 -82,0 -98,38 -9,19 -23,47 -40,79 -64,124 -162,315 -192,528 -291,-379 -262,-967 -246,-1290 6,-116 10,-201 -3,-248 -8,-40 -22,-71 -42,-94 -34,-40 -79,-56 -131,-49 -39,5 -81,23 -124,53 -51,35 -107,89 -163,157 -8,-129 -10,-257 -6,-386 7,-209 30,-420 65,-630 45,-270 113,-566 203,-854 78,-250 174,-494 286,-706 66,-125 141,-254 223,-396 41,-70 116,-197 199,-377 133,-288 307,-697 538,-1128zm-1203 4415c-1,-1 -3,-4 -1,-2l1 1 0 1z" style="fill:#42aa34"/>
 </g><g id="Mouth-Pig0">
 <animateTransform additive="sum" attributeName="transform" dur="10" repeatCount="indefinite" type="translate" values="0;0 200;0;0 200;0;0 200;0;0 200;0"/>
  <metadata id="CorelCorpID_103Corel-Layer"/>
  <g id="_2991504412144">
   <path class="Mouth-Pig0fil0 Mouth-Pig0str0" d="M15833 14725c-305,501 -713,745 -1261,741 -179,-1 -593,-77 -890,-80" style="fill:#622bb5"/>
   <path class="Mouth-Pig0fil0 Mouth-Pig0str0" d="M11531 14725c305,501 713,745 1261,741 179,-1 593,-77 890,-80" style="fill:#6b86c1"/>
   <path class="Mouth-Pig0fil26" d="M13682 15622c-619,-3 -759,-85 -1140,-114 371,3 754,-678 1138,-678 385,0 769,681 1142,678 -381,29 -521,111 -1140,114z" style="fill:#d86f88"/>
   <path class="Mouth-Pig0fil169" d="M11642 14585c58,72 -120,136 -59,317 3,9 -104,-117 -114,-116 -101,13 -186,10 -280,49 -159,66 282,-463 453,-250z" style="fill:#5e4f38"/>
   <path class="Mouth-Pig0fil169" d="M15722 14585c-58,72 120,136 59,317 -3,9 104,-117 114,-116 101,13 186,10 280,49 159,66 -282,-463 -453,-250z" style="fill:#ae3241"/>
   <path class="Mouth-Pig0fil170" d="M12922 16035c187,38 460,68 760,68 300,0 573,-30 760,-68 -196,153 -464,219 -760,219 -296,0 -564,-66 -760,-219z" style="fill:#5f8e39"/>
  </g>
 </g><g id="EyesClosed-Pig7">
 <animateTransform additive="sum" attributeName="transform" dur="10" repeatCount="indefinite" type="translate" values="0;0 200;0;0 200;0;0 200;0;0 200;0"/>
  <metadata id="CorelCorpID_130Corel-Layer"/>
  <g id="_2991498753584">
   <path class="EyesClosed-Pig7fil38" d="M17589 10636c-127,21 -195,-160 -675,-295 -440,-123 -713,-35 -805,-187 -103,-168 162,-739 409,-789 753,-152 1450,1208 1071,1271z"/>
   <path class="EyesClosed-Pig7fil10" d="M17589 10636c-127,21 -195,-160 -675,-295 -440,-123 -713,-35 -805,-187 -103,-168 162,-739 409,-789 753,-152 1450,1208 1071,1271z"/>
  </g>
  <g id="_2991498752400">
   <path class="EyesClosed-Pig7fil38" d="M9775 10636c127,21 195,-160 675,-295 440,-123 713,-35 805,-187 103,-168 -162,-739 -409,-789 -753,-152 -1450,1208 -1071,1271z"/>
   <path class="EyesClosed-Pig7fil10" d="M9775 10636c127,21 195,-160 675,-295 440,-123 713,-35 805,-187 103,-168 -162,-739 -409,-789 -753,-152 -1450,1208 -1071,1271z"/>
  </g>
  <path class="EyesClosed-Pig7fil84" d="M15403 13609c78,-67 271,-33 531,7 1042,158 2199,-120 2683,-1209 -144,1319 -1613,1816 -2809,1381 -115,-42 -214,-94 -328,-77 -45,7 -179,-15 -77,-102z"/>
  <path class="EyesClosed-Pig7fil84" d="M11961 13609c-78,-67 -271,-33 -531,7 -1043,158 -2199,-120 -2684,-1209 145,1319 1614,1816 2810,1381 115,-42 214,-94 328,-77 45,7 179,-15 77,-102z"/>
 </g><g id="Eyes-Pig7">
 <animate attributeName="opacity" dur="10" repeatCount="indefinite" values="0;1;1;1;1;1;1;1;1;1;1;1;1;1;1;1;1;1;1;1;1;1;1;1;1;1;1;1;1;1;1;1;1;1;1;1;1;1;1;1;1;1;1;1;1;1;1;1;1;1;1;1;1;1;1;1;1;1;1;1;1;1;1;1;1;1;1;1;1;1;1;1;1;1;1;1;1;1;1;1;1;1;1;1;0;0"/>
 <animateTransform additive="sum" attributeName="transform" dur="10" repeatCount="indefinite" type="translate" values="0;0 200;0;0 200;0;0 200;0;0 200;0"/>
  <metadata id="CorelCorpID_131Corel-Layer"/>
  <g id="_2993573736752">
   <path class="Eyes-Pig7fil197" d="M17019 14281c-583,1 -1009,-212 -1377,-432 -425,-253 -407,-991 -263,-1587 140,-582 450,-1463 1499,-1431 229,8 449,109 627,232 316,218 886,669 1036,1303 208,886 -261,1913 -1522,1915z"/>
   <path class="Eyes-Pig7fil215" d="M15327 13128c4,-77 11,-156 22,-236l1336 -535 -1346 947c-5,-42 -10,-131 -12,-176zm1374 -790l-1306 205c-15,-1385 1038,-259 1312,-223 19,2 23,66 34,56l1205 -1047 141 193 49 55 -1396 817c-44,5 -43,-29 -39,-56zm1657 -457c55,94 175,278 206,372l-1795 137 1589 -509zm223 717c7,100 -4,270 -18,364l-1802 -557 1820 193zm-156 747c-48,115 -108,221 -176,315l-1510 -1249 1686 934zm-516 599c-25,19 -95,56 -120,72 -63,41 -160,96 -225,127l-840 -1726 1185 1527zm-749 312c-113,25 -273,45 -386,49l-69 -1899 455 1850zm-748 -4c-105,-14 -253,-135 -348,-160l626 -1694 -278 1854zm-649 -307c-22,-10 -70,-27 -90,-37 -84,-42 -152,-106 -205,-186l1216 -1345 -921 1568z"/>
   <path class="Eyes-Pig7fil216" d="M16986 10909c-640,-149 -1282,285 -1434,970 -152,684 244,1360 884,1509 640,149 1282,-285 1434,-969 151,-685 -244,-1361 -884,-1510z"/>
   <path class="Eyes-Pig7fil148" d="M15366 13439c-197,-879 180,-2421 1115,-2556 630,-92 1138,102 1545,597 332,404 591,1186 632,1632 -368,-1020 -1369,-1693 -2048,-1627 -863,84 -1229,938 -1244,1954z"/>
   <g>
    <circle class="Eyes-Pig7fil173" r="235" transform="matrix(0.805222 -2.39867 1.88046 0.461536 16282.1 11856.2)"/>
    <circle class="Eyes-Pig7fil173" r="235" transform="matrix(0.511451 -0.0476309 0.0595148 0.521886 17490.7 12785.1)"/>
    <circle class="Eyes-Pig7fil173" r="235" transform="matrix(0.554042 -1.05186 0.853042 0.366906 17645.7 13279.8)"/>
    <path class="Eyes-Pig7fil173" d="M18289 12815c120,779 -748,1349 -1178,1226 441,-98 1005,-604 1178,-1226z"/>
   </g>
   <path class="Eyes-Pig7fil0 Eyes-Pig7str0" d="M15339 13289c0,0 -1,409 303,560 120,60 333,164 559,270 1032,482 2349,-147 2411,-1292 50,-904 -1310,-2574 -2501,-1772 -750,505 -824,1385 -772,2234z"/>
  </g>
  <g id="_2991550381328">
   <path class="Eyes-Pig7fil200" d="M10345 14281c583,1 1009,-212 1377,-432 424,-253 407,-991 263,-1587 -140,-582 -450,-1463 -1500,-1431 -228,8 -448,109 -627,232 -316,218 -885,669 -1035,1303 -208,886 261,1913 1522,1915z"/>
   <path class="Eyes-Pig7fil217" d="M12037 13128c-4,-77 -11,-156 -22,-236l-1337 -535 1347 947c5,-42 9,-131 12,-176zm-1374 -790l1306 205c15,-1385 -1038,-259 -1312,-223 -19,2 -23,66 -34,56l-1206 -1047 -140 193 -50 55 1397 817c43,5 42,-29 39,-56zm-1657 -457c-55,94 -175,278 -206,372l1794 137 -1588 -509zm-224 717c-6,100 5,270 19,364l1801 -557 -1820 193zm157 747c48,115 108,221 176,315l1510 -1249 -1686 934zm516 599c25,19 95,56 120,72 63,41 160,96 225,127l840 -1726 -1185 1527zm748 312c114,25 274,45 387,49l69 -1899 -456 1850zm749 -4c105,-14 252,-135 348,-160l-626 -1694 278 1854zm649 -307c22,-10 69,-27 90,-37 84,-42 152,-106 204,-186l-1215 -1345 921 1568z"/>
   <path class="Eyes-Pig7fil218" d="M10378 10909c640,-149 1282,285 1434,970 151,684 -244,1360 -884,1509 -640,149 -1282,-285 -1434,-969 -151,-685 244,-1361 884,-1510z"/>
   <path class="Eyes-Pig7fil148" d="M11998 13439c196,-879 -180,-2421 -1115,-2556 -630,-92 -1138,102 -1545,597 -333,404 -592,1186 -632,1632 368,-1020 1368,-1693 2048,-1627 863,84 1229,938 1244,1954z"/>
   <g>
    <circle class="Eyes-Pig7fil173" r="235" transform="matrix(0.805222 -2.39867 1.88046 0.461536 9959.72 11856.2)"/>
    <circle class="Eyes-Pig7fil173" r="235" transform="matrix(0.511451 -0.0476309 0.0595148 0.521886 11168.3 12785.1)"/>
    <circle class="Eyes-Pig7fil173" r="235" transform="matrix(0.554042 -1.05186 0.853042 0.366906 11323.2 13279.8)"/>
    <path class="Eyes-Pig7fil173" d="M9075 12815c-120,779 747,1349 1178,1226 -441,-98 -1005,-604 -1178,-1226z"/>
   </g>
   <path class="Eyes-Pig7fil0 Eyes-Pig7str0" d="M12025 13289c0,0 1,409 -303,560 -120,60 -333,164 -560,270 -1031,482 -2348,-147 -2411,-1292 -49,-904 1311,-2574 2502,-1772 750,505 824,1385 772,2234z"/>
  </g>
 </g><g id="Moustache-Pig3">
 <animateTransform additive="sum" attributeName="transform" dur="10" repeatCount="indefinite" type="translate" values="0;0 200;0;0 200;0;0 200;0;0 200;0"/>
  <metadata id="CorelCorpID_139Corel-Layer"/>
  <path class="Moustache-Pig3fil234" d="M10904 16360c18,1 82,389 307,458 92,29 54,-287 160,-188 51,48 159,299 235,358 60,46 84,-101 155,-52 444,308 1055,622 1284,416 233,-209 -273,-240 56,-316 17,-4 119,84 169,76 56,-9 70,-173 129,-148 183,77 245,-10 283,-10 38,0 100,87 283,10 59,-25 73,139 129,148 50,8 152,-80 169,-76 329,76 -177,107 55,316 229,206 841,-108 1285,-416 71,-49 95,98 155,52 76,-59 184,-310 234,-358 107,-99 69,217 161,188 225,-69 289,-457 306,-458 428,508 -378,1121 -737,1290 -307,145 -866,312 -1200,421 -5,-42 1,-166 24,-183 -356,117 -586,377 -694,392 16,-65 -123,-279 -170,-360 -47,81 -166,223 -151,288 -107,-15 -357,-203 -713,-320 23,17 29,141 24,183 -334,-109 -893,-276 -1200,-421 -360,-169 -1165,-782 -738,-1290z" style="fill:#ca929b"/>
  <path class="Moustache-Pig3fil84" d="M16389 17131c-259,461 -1484,895 -1627,941 -67,21 -129,41 -217,70 -39,13 -81,-9 -94,-48 -2,-6 -3,-13 -3,-19 -2,-17 -3,-42 -2,-68 -146,67 -267,154 -361,222 -92,66 -161,116 -223,125 -41,5 -69,-23 -74,-64 -9,-67 -75,-173 -109,-229 -44,64 -108,193 -133,220 -9,2 -16,2 -24,1 -61,-9 -140,-50 -243,-105 -98,-52 -220,-117 -362,-174 2,31 1,60 -1,77 -6,41 -43,70 -84,65 -5,-1 -9,-2 -14,-3 -87,-29 -149,-49 -216,-70 -146,-46 -1177,-386 -1578,-883 645,474 1437,681 1623,741l118 37 25 5c-2,-13 -14,-20 -16,-24 -26,-19 -37,-52 -27,-84 13,-39 55,-61 95,-48 207,69 378,159 507,228 50,27 94,50 128,66 22,-50 57,-102 90,-150l2 -4c19,-28 37,-55 48,-73 6,-11 16,-21 28,-28 35,-21 81,-8 102,27 5,9 16,27 28,48 41,68 97,162 129,244 26,-17 58,-40 93,-66 128,-93 302,-218 525,-292l0 1c29,-10 62,-1 82,24 26,33 20,80 -12,105 -20,16 -16,22 7,21l118 -37c190,-61 1329,-427 1672,-799z" style="fill:#73729a"/>
  <path class="Moustache-Pig3fil10" d="M11851 17651c0,0 682,180 719,180 37,0 -109,-185 -109,-185 0,0 467,94 605,125 137,32 15,-244 86,-407 111,316 213,379 321,495 71,-113 157,-385 179,-432 100,692 494,565 892,145 5,85 54,301 113,329 60,29 826,-207 826,-207 0,0 -918,417 -939,397 -22,-20 -35,-179 -35,-179 0,0 -548,265 -619,366 -71,101 -175,-272 -218,-341 -43,-70 -191,256 -191,256l-651 -283 12 161c0,0 -911,-297 -991,-420z" style="fill:#6996c7"/>
 </g><g id="Nose-Pig0">
 <animateTransform additive="sum" attributeName="transform" dur="10" repeatCount="indefinite" type="translate" values="0;0 200;0;0 200;0;0 200;0;0 200;0"/>
  <metadata id="CorelCorpID_141Corel-Layer"/>
  <g id="_2991533171152">
   <path class="Nose-Pig0fil236 Nose-Pig0str0" d="M13682 15431c688,0 1646,200 1573,-487 -68,-630 -928,-1635 -1573,-1635 -645,0 -1505,1005 -1573,1635 -73,687 885,487 1573,487z" style="fill:#546bff"/>
   <g>
    <path class="Nose-Pig0fil26 Nose-Pig0str3" d="M14332 14239c-113,0 -205,188 -205,418 0,231 92,418 205,418 114,0 206,-187 206,-418 -1,-230 -93,-418 -206,-418z" style="fill:#ec301e"/>
    <path class="Nose-Pig0fil237 Nose-Pig0str3" d="M14332 14239c-113,0 -205,188 -205,418 0,231 92,418 205,418 114,0 206,-187 206,-418 -1,-230 -93,-418 -206,-418z" style="fill:#774eee"/>
   </g>
   <g>
    <path class="Nose-Pig0fil26 Nose-Pig0str3" d="M13032 14239c113,0 205,188 205,418 0,231 -92,418 -205,418 -114,0 -206,-187 -206,-418 0,-230 93,-418 206,-418z" style="fill:#e0c6f9"/>
    <path class="Nose-Pig0fil237 Nose-Pig0str3" d="M13032 14239c113,0 205,188 205,418 0,231 -92,418 -205,418 -114,0 -206,-187 -206,-418 0,-230 93,-418 206,-418z" style="fill:#83755c"/>
   </g>
  </g>
 </g><g id="HatBanderas-Medium">
 <animateTransform additive="sum" attributeName="transform" dur="10" repeatCount="indefinite" type="translate" values="0;0 200;0;0 200;0;0 200;0;0 200;0"/>
  <metadata id="CorelCorpID_64Corel-Layer"/>
  <path class="HatBanderas-Mediumfil608new" d="M7959 11361c315,-948 283,-1863 443,-2630 211,-1023 1742,-2185 2423,-2801 1794,-1622 3961,-935 5564,-236 1027,447 574,1635 1180,2577 -133,664 -267,1328 -401,1992 -2244,242 -4489,484 -6734,726 -910,112 -1566,260 -2475,372z" style="fill:#7a641c"/>
  <path class="HatBanderas-Mediumfil609new" d="M8355 8991c14,-88 29,-175 47,-260 211,-1023 1742,-2185 2423,-2801 1140,-1031 2431,-1129 3632,-884 -565,31 -1203,113 -1827,292 -1559,448 -3623,2678 -4275,3653z" style="fill:#6c3cbc"/>
  <path class="HatBanderas-Mediumfil47new HatBanderas-Mediumstr0new" d="M7959 11361c315,-948 283,-1863 443,-2630 211,-1023 1742,-2185 2423,-2801 1794,-1622 3961,-935 5564,-236 1027,447 574,1635 1180,2577 -133,664 -267,1328 -401,1992 -2244,242 -4489,484 -6734,726 -910,112 -1566,260 -2475,372z" style="fill:#ac2c52"/>
  <path class="HatBanderas-Mediumfil610new HatBanderas-Mediumstr0new" d="M7703 11284c3111,-218 6430,-406 9541,-625 55,-704 101,-1607 156,-2312 -3850,1458 -7221,-213 -9270,1000 -425,252 -28,1097 -427,1937z" style="fill:#215b87"/>
  <path class="HatBanderas-Mediumfil14new" d="M10333 10721c1580,-377 4142,-1201 4608,-1784 -773,106 -2311,65 -3294,-14 3814,-261 4857,-1209 5077,-3192 166,1416 836,2760 1002,4177 -2057,266 -5336,546 -7393,813z" style="fill:#d3e984"/>
  <g>
   <polygon class="HatBanderas-Mediumfil611new HatBanderas-Mediumstr0new" points="15759,7871 16169,8162 15309,9146 "/>
   <path class="HatBanderas-Mediumfil611new HatBanderas-Mediumstr0new" d="M16088 7402c2554,-1831 1647,465 4000,498 -2380,946 -1930,-996 -4000,-498z" style="fill:#67a1a8"/>
   <path class="HatBanderas-Mediumfil612new HatBanderas-Mediumstr0new" d="M16152 7377c2159,-2138 -249,-1752 -385,-3653 -1072,1962 917,1960 385,3653z" style="fill:#9a54dd"/>
   <path class="HatBanderas-Mediumfil613new HatBanderas-Mediumstr0new" d="M16663 6821c492,-575 1176,-976 2062,-1244 739,-627 -458,-1720 1179,-2419 -167,-296 -2155,-371 -2872,394 -1014,1082 818,1798 -369,3269z" style="fill:#3d309e"/>
   <path class="HatBanderas-Mediumfil614new HatBanderas-Mediumstr0new" d="M18152 5802c817,-228 2487,-446 3438,539 1232,380 1176,-573 2354,95 -156,-1266 -2439,-3355 -3577,-3081 -1609,387 -182,1829 -2215,2447z" style="fill:#28dccf"/>
   <path class="HatBanderas-Mediumfil615new HatBanderas-Mediumstr0new" d="M21993 6592c1113,336 1233,-253 1971,217 333,758 447,2209 -408,2510 -346,-975 -702,-1911 -1563,-2727z" style="fill:#f19b01"/>
   <path class="HatBanderas-Mediumfil616new HatBanderas-Mediumstr0new" d="M17040 6579c549,-298 1226,-768 1606,-750 1325,65 1240,1738 2036,1939 -1614,185 -1629,-1231 -3642,-1189z" style="fill:#269c70"/>
   <path class="HatBanderas-Mediumfil617new HatBanderas-Mediumstr0new" d="M21441 7862c-109,-496 787,-438 478,-1170 806,692 1426,1701 1619,2645 -569,675 -2052,-733 -2097,-1475z" style="fill:#d93c9b"/>
   <path class="HatBanderas-Mediumfil618new HatBanderas-Mediumstr0new" d="M18753 5690c1289,238 1055,1539 2323,1989 -54,-683 991,-349 637,-1233 -1083,-891 -2006,-1334 -2960,-756z" style="fill:#423c13"/>
   <path class="HatBanderas-Mediumfil246new" d="M16931 6426c1130,-963 -654,-2092 670,-3066 -964,973 641,1996 -370,2897 -75,48 -225,121 -300,169z" style="fill:#5e68cd"/>
   <path class="HatBanderas-Mediumfil246new" d="M18732 5659c1553,-429 554,-1695 2286,-2060 -1412,500 -511,1604 -1923,2023 -94,14 -270,22 -363,37z" style="fill:#0626ea"/>
   <path class="HatBanderas-Mediumfil246new" d="M19310 5581c1619,-214 677,-1410 2459,-1538 -1495,304 -615,1328 -2094,1551 -95,1 -270,-14 -365,-13z" style="fill:#aa7b10"/>
   <path class="HatBanderas-Mediumfil246new" d="M19655 5599c1638,-80 851,-1213 2641,-1194 -1526,179 -780,1136 -2279,1236 -95,-6 -267,-35 -362,-42z" style="fill:#e17ce9"/>
   <path class="HatBanderas-Mediumfil246new" d="M16333 7138c778,-1169 -734,-1822 -632,-2822 217,1119 1551,1511 867,2595 -57,62 -178,165 -235,227z" style="fill:#9d8634"/>
   <path class="HatBanderas-Mediumfil246new" d="M20508 5747c1520,501 1285,-613 2889,31 -1472,-372 -1179,568 -2585,134 -82,-39 -222,-126 -304,-165z" style="fill:#aed3e9"/>
   <path class="HatBanderas-Mediumfil619new" d="M17290 6521c1597,-307 1756,674 2726,1056 -820,-482 -923,-1436 -2394,-1181 -89,29 -243,97 -332,125z" style="fill:#81fd76"/>
   <path class="HatBanderas-Mediumfil619new" d="M17585 6087c1636,-99 1601,889 2484,1390 -715,-580 -630,-1536 -2133,-1472 -93,17 -258,65 -351,82z" style="fill:#1742e6"/>
   <path class="HatBanderas-Mediumfil246new" d="M21904 6659c892,636 1060,-171 1967,578 -897,-538 -974,161 -1808,-407 -45,-42 -114,-129 -159,-171z" style="fill:#9a1226"/>
   <path class="HatBanderas-Mediumfil619new" d="M18698 5714c1637,101 1418,1074 2197,1677 -599,-661 -337,-1595 -1834,-1715 -95,5 -268,32 -363,38z" style="fill:#0f9073"/>
   <path class="HatBanderas-Mediumfil619new" d="M20468 5773c336,489 132,1062 453,1607 -180,-529 54,-1062 -177,-1519l-276 -88z" style="fill:#7f67fd"/>
   <path class="HatBanderas-Mediumfil620new HatBanderas-Mediumstr0new" d="M16051 7462c1882,-3196 6384,-2609 7377,1551 -1789,-4138 -5362,-4068 -7049,-1302 -109,-83 -219,-166 -328,-249z" style="fill:#6f4f9b"/>
   <path class="HatBanderas-Mediumfil246new" d="M22630 7098c445,181 795,-100 1310,587 -558,-533 -847,-256 -1251,-429l-59 -158z" style="fill:#5febfe"/>
   <path class="HatBanderas-Mediumfil246new" d="M17251 6099c1275,-836 -311,-2144 1159,-2969 -1112,863 314,2046 -834,2833 -82,39 -243,96 -325,136z" style="fill:#853236"/>
   <path class="HatBanderas-Mediumfil246new" d="M17566 5900c1448,-624 198,-2152 1835,-2736 -1295,676 -173,2057 -1484,2653 -90,26 -262,57 -351,83z" style="fill:#889a51"/>
   <path class="HatBanderas-Mediumfil246new" d="M22198 7007c-29,403 -745,703 -269,1408 -290,-658 391,-918 409,-1287l-140 -121z" style="fill:#07fbe4"/>
   <path class="HatBanderas-Mediumfil246new" d="M23012 7790c310,317 773,180 883,978 -229,-673 -635,-520 -911,-814l28 -164z" style="fill:#625f40"/>
   <path class="HatBanderas-Mediumfil246new" d="M22363 7297c61,401 -667,959 -41,1583 -432,-605 270,-1119 206,-1484l-165 -99z" style="fill:#35d6a5"/>
   <path class="HatBanderas-Mediumfil246new" d="M22648 7689c62,400 -489,950 137,1574 -432,-605 93,-1110 28,-1475l-165 -99z" style="fill:#5d6bed"/>
  </g>
  <path class="HatBanderas-Mediumfil621new" d="M3515 13711c-351,-1259 2163,-2149 3856,-2547 3094,-728 7063,-902 8457,-1880 2518,-1769 -877,-4108 1209,-4537 4244,-871 8098,6761 2402,6978 -3995,-729 -8357,-625 -12276,181 -1483,306 -3596,942 -3648,1805z" style="fill:#aac7e9"/>
  <path class="HatBanderas-Mediumfil609new" d="M7624 11106c3054,-679 6848,-870 8204,-1822 2518,-1769 -877,-4108 1209,-4537 637,-131 1266,-68 1855,131 -1567,-193 -2453,137 -2249,846 210,728 582,1431 354,2393 -228,963 -937,1558 -2634,2014 -1697,456 -5395,747 -6750,1013l11 -38z" style="fill:#62d4ef"/>
  <path class="HatBanderas-Mediumfil360new" d="M21086 6423c1736,2042 1968,5164 -1647,5302 -1750,-319 -3571,-479 -5394,-489 2647,-526 5098,0 6257,-641 1182,-654 1765,-2164 784,-4172z" style="fill:#b1ede1"/>
  <path class="HatBanderas-Mediumfil360new" d="M18486 5304c132,-205 474,-203 762,5 288,208 414,543 282,748 -133,206 -475,203 -763,-5 -288,-208 -414,-543 -281,-748z" style="fill:#30ce13"/>
  <path class="HatBanderas-Mediumfil622new HatBanderas-Mediumstr0new" d="M18654 5526c96,-148 342,-146 549,4 208,150 299,391 203,539 -96,148 -342,146 -549,-4 -208,-150 -299,-391 -203,-539z" style="fill:#d5e3b4"/>
  <path class="HatBanderas-Mediumfil47new HatBanderas-Mediumstr0new" d="M3515 13711c-351,-1259 2163,-2149 3856,-2547 3094,-728 7063,-902 8457,-1880 2518,-1769 -877,-4108 1209,-4537 4244,-871 8098,6761 2402,6978 -3995,-729 -8357,-625 -12276,181 -1483,306 -3596,942 -3648,1805z" style="fill:#fa8f24"/>
  <path class="HatBanderas-Mediumfil609new" d="M18797 5526c49,-17 98,-5 109,25 11,31 -20,70 -69,86 -50,17 -98,5 -109,-25 -11,-31 20,-70 69,-86z" style="fill:#a99c6d"/>
 </g></svg>