<svg xmlns="http://www.w3.org/2000/svg" xmlns:xlink="http://www.w3.org/1999/xlink" style="shape-rendering:geometricPrecision; text-rendering:geometricPrecision; image-rendering:optimizeQuality; fill-rule:evenodd; clip-rule:evenodd" version="1.1" viewBox="0 0 29000 29000" xml:space="preserve"><defs><style type="text/css">.HairBack-Pig0fil0 {fill:none}
.Tail-Pig4fil10 {fill:black;fill-opacity:0.200000}
.Tail-Pig4fil33 {fill:url(#Tail-Pig4id131)}
.Tail-Pig4fil30 {fill:black;fill-rule:nonzero}
.Tail-Pig4fil26 {fill:black;fill-opacity:0.301961}
.Tail-Pig4fil32 {fill:url(#Tail-Pig4id167)}
.Tail-Pig4str0 {stroke:black;stroke-width:150;stroke-linecap:round;stroke-linejoin:round}
.Tail-Pig4fil34 {fill:url(#Tail-Pig4id149)}
.Tail-Pig4str1 {stroke:black;stroke-width:150}
.RightFoot-Pig1fil41 {fill:#e8decc}
.RightFoot-Pig1fil38 {fill:#77613d}
.RightFoot-Pig1fil39 {fill:url(#RightFoot-Pig1id227)}
.RightFoot-Pig1fil40 {fill:black}
.RightFoot-Pig1fil10 {fill:black;fill-opacity:0.200000}
.RightFoot-Pig1fil0 {fill:none}
.RightFoot-Pig1str2 {stroke:black;stroke-width:150;stroke-linecap:round;stroke-linejoin:round}
.RightLeg-Pig1fil53 {fill:url(#RightLeg-Pig1id11)}
.RightLeg-Pig1fil54 {fill:url(#RightLeg-Pig1id58)}
.RightLeg-Pig1fil10 {fill:black;fill-opacity:0.200000}
.RightLeg-Pig1fil0 {fill:none}
.RightLeg-Pig1str2 {stroke:black;stroke-width:150;stroke-linecap:round;stroke-linejoin:round}
.LeftFoot-Pig1fil41 {fill:#e8decc}
.LeftFoot-Pig1fil38 {fill:#77613d}
.LeftFoot-Pig1fil57 {fill:url(#LeftFoot-Pig1id220)}
.LeftFoot-Pig1fil40 {fill:black}
.LeftFoot-Pig1fil10 {fill:black;fill-opacity:0.200000}
.LeftFoot-Pig1fil0 {fill:none}
.LeftFoot-Pig1str2 {stroke:black;stroke-width:150;stroke-linecap:round;stroke-linejoin:round}
.LeftLeg-Pig1fil63 {fill:url(#LeftLeg-Pig1id60)}
.LeftLeg-Pig1fil64 {fill:url(#LeftLeg-Pig1id32)}
.LeftLeg-Pig1fil10 {fill:black;fill-opacity:0.200000}
.LeftLeg-Pig1fil0 {fill:none}
.LeftLeg-Pig1str2 {stroke:black;stroke-width:150;stroke-linecap:round;stroke-linejoin:round}
.RightHand-Pig0fil68 {fill:url(#RightHand-Pig0id57)}
.RightHand-Pig0fil10 {fill:black;fill-opacity:0.200000}
.RightHand-Pig0fil0 {fill:none}
.RightHand-Pig0str0 {stroke:black;stroke-width:150;stroke-linecap:round;stroke-linejoin:round}
.RightPaw-Pig11fil74 {fill:url(#RightPaw-Pig11id25)}
.RightPaw-Pig11fil51 {fill:black;fill-opacity:0.400000}
.RightPaw-Pig11fil10 {fill:black;fill-opacity:0.200000}
.RightPaw-Pig11fil78 {fill:url(#RightPaw-Pig11id218)}
.RightPaw-Pig11fil40 {fill:black}
.RightPaw-Pig11fil0 {fill:none}
.RightPaw-Pig11str2 {stroke:black;stroke-width:150;stroke-linecap:round;stroke-linejoin:round}
.LeftHand-Pig0fil79 {fill:url(#LeftHand-Pig0id22)}
.LeftHand-Pig0fil10 {fill:black;fill-opacity:0.200000}
.LeftHand-Pig0fil0 {fill:none}
.LeftHand-Pig0str0 {stroke:black;stroke-width:150;stroke-linecap:round;stroke-linejoin:round}
.Body-Pig2fil83 {fill:url(#Body-Pig2id42)}
.Body-Pig2fil86 {fill:url(#Body-Pig2id214)}
.Body-Pig2fil87 {fill:url(#Body-Pig2id215)}
.Body-Pig2fil10 {fill:black;fill-opacity:0.200000}
.Body-Pig2fil84 {fill:black;fill-rule:nonzero}
.LeftPaw-Pig11fil91 {fill:url(#LeftPaw-Pig11id70)}
.LeftPaw-Pig11fil51 {fill:black;fill-opacity:0.400000}
.LeftPaw-Pig11fil10 {fill:black;fill-opacity:0.200000}
.LeftPaw-Pig11fil95 {fill:url(#LeftPaw-Pig11id210)}
.LeftPaw-Pig11fil40 {fill:black}
.LeftPaw-Pig11fil0 {fill:none}
.LeftPaw-Pig11str2 {stroke:black;stroke-width:150;stroke-linecap:round;stroke-linejoin:round}
.Ears-Pig7fil133 {fill:url(#Ears-Pig7id51)}
.Ears-Pig7fil134 {fill:url(#Ears-Pig7id158)}
.Ears-Pig7fil135 {fill:url(#Ears-Pig7id47)}
.Ears-Pig7fil84 {fill:black;fill-rule:nonzero}
.Ears-Pig7fil10 {fill:black;fill-opacity:0.200000}
.Ears-Pig7fil136 {fill:url(#Ears-Pig7id6)}
.Ears-Pig7fil137 {fill:url(#Ears-Pig7id170)}
.Ears-Pig7fil138 {fill:url(#Ears-Pig7id20)}
.Ears-Pig7fil0 {fill:none}
.Ears-Pig7str0 {stroke:black;stroke-width:150;stroke-linecap:round;stroke-linejoin:round}
.Head-Pig7fil167 {fill:url(#Head-Pig7id173)}
.Head-Pig7fil10 {fill:black;fill-opacity:0.200000}
.Head-Pig7fil84 {fill:black;fill-rule:nonzero}
.Head-Pig7fil168 {fill:url(#Head-Pig7id30)}
.Mouth-Pig7fil26 {fill:black;fill-opacity:0.301961}
.Mouth-Pig7fil172 {fill:black;fill-rule:nonzero;fill-opacity:0.200000}
.Mouth-Pig7fil169 {fill:black}
.Mouth-Pig7fil10 {fill:black;fill-opacity:0.200000}
.Mouth-Pig7fil0 {fill:none}
.Mouth-Pig7str0 {stroke:black;stroke-width:150;stroke-linecap:round;stroke-linejoin:round}
.Mouth-Pig7fil173 {fill:white}
.EyesClosed-Pig9fil38 {fill:#77613d}
.EyesClosed-Pig9fil148 {fill:black;fill-opacity:0.501961}
.EyesClosed-Pig9fil84 {fill:black;fill-rule:nonzero}
.Eyes-Pig9fil226 {fill:url(#Eyes-Pig9id148)}
.Eyes-Pig9fil227 {fill:url(#Eyes-Pig9id10)}
.Eyes-Pig9fil228 {fill:url(#Eyes-Pig9id45)}
.Eyes-Pig9fil148 {fill:black;fill-opacity:0.501961}
.Eyes-Pig9fil173 {fill:white}
.Eyes-Pig9fil229 {fill:url(#Eyes-Pig9id161)}
.Eyes-Pig9fil230 {fill:url(#Eyes-Pig9id64)}
.Eyes-Pig9fil231 {fill:url(#Eyes-Pig9id76)}
.Eyes-Pig9fil0 {fill:none}
.Eyes-Pig9str0 {stroke:black;stroke-width:150;stroke-linecap:round;stroke-linejoin:round}
.Moustache-Pig1fil232 {fill:url(#Moustache-Pig1id1)}
.Nose-Pig6fil244 {fill:url(#Nose-Pig6id181)}
.Nose-Pig6str0 {stroke:black;stroke-width:150;stroke-linecap:round;stroke-linejoin:round}
.Nose-Pig6fil26 {fill:black;fill-opacity:0.301961}
.Nose-Pig6str3 {stroke:black;stroke-width:150;stroke-linecap:round;stroke-linejoin:round;stroke-opacity:0.301961}
.Nose-Pig6fil237 {fill:none}
.Hair-Pig1fil245 {fill:url(#Hair-Pig1id28)}
.Hair-Pig1fil10 {fill:black;fill-opacity:0.200000}
.Hair-Pig1fil246 {fill:#e9dcb3;fill-opacity:0.701961}
.Hair-Pig1fil0 {fill:none}
.Hair-Pig1str0 {stroke:black;stroke-width:150;stroke-linecap:round;stroke-linejoin:round}
</style><linearGradient gradientUnits="userSpaceOnUse" id="Tail-Pig4id131" x1="16818.1" x2="18132.1" xlink:href="#Tail-Pig4id94" y1="24163.1" y2="22966.9">
  </linearGradient><linearGradient gradientUnits="userSpaceOnUse" id="Tail-Pig4id167" x1="19588.7" x2="18835.7" xlink:href="#Tail-Pig4id5" y1="20715.4" y2="23880.9">
  </linearGradient><linearGradient gradientUnits="userSpaceOnUse" id="Tail-Pig4id149" x1="13985.9" x2="17433.3" xlink:href="#Tail-Pig4id94" y1="23274.1" y2="22920.4">
  </linearGradient><linearGradient gradientUnits="objectBoundingBox" id="RightFoot-Pig1id227" x1="49.9997%" x2="49.9997%" xlink:href="#RightFoot-Pig1id0" y1="100%" y2="0%">
  </linearGradient><linearGradient gradientUnits="userSpaceOnUse" id="RightLeg-Pig1id11" x1="14608.7" x2="16388.7" y1="21433.3" y2="24072.3">
   <stop offset="0" style="stop-opacity:1; stop-color:#fff8ed"/>
   <stop offset="0.501961" style="stop-opacity:1; stop-color:#fff8ed"/>
   <stop offset="1" style="stop-opacity:1; stop-color:#ecd9b8"/>
  </linearGradient><linearGradient gradientUnits="userSpaceOnUse" id="RightLeg-Pig1id58" x1="16232.4" x2="16052.8" xlink:href="#RightLeg-Pig1id32" y1="22888.7" y2="24274.5">
  </linearGradient><linearGradient gradientUnits="objectBoundingBox" id="LeftFoot-Pig1id220" x1="50.0003%" x2="50.0003%" xlink:href="#LeftFoot-Pig1id0" y1="100%" y2="0%">
  </linearGradient><linearGradient gradientUnits="userSpaceOnUse" id="LeftLeg-Pig1id60" x1="12755.2" x2="10975.2" xlink:href="#LeftLeg-Pig1id11" y1="21433.3" y2="24072.3">
  </linearGradient><linearGradient gradientUnits="userSpaceOnUse" id="LeftLeg-Pig1id32" x1="11131.5" x2="11311.1" y1="22888.7" y2="24274.5">
   <stop offset="0" style="stop-opacity:1; stop-color:#f6f0e5"/>
   <stop offset="0.6" style="stop-opacity:1; stop-color:#f6f0e5"/>
   <stop offset="1" style="stop-opacity:1; stop-color:#e8decc"/>
  </linearGradient><linearGradient gradientUnits="objectBoundingBox" id="RightHand-Pig0id57" x1="30.1244%" x2="69.8756%" xlink:href="#RightHand-Pig0id22" y1="2.32158%" y2="97.6784%">
  </linearGradient><linearGradient gradientUnits="objectBoundingBox" id="RightPaw-Pig11id25" x1="81.8832%" x2="18.1168%" y1="89.1977%" y2="10.8018%">
   <stop offset="0" style="stop-opacity:1; stop-color:#c7b391"/>
   <stop offset="0.619608" style="stop-opacity:1; stop-color:#ecd9b8"/>
   <stop offset="1" style="stop-opacity:1; stop-color:#ecd9b8"/>
  </linearGradient><linearGradient gradientUnits="objectBoundingBox" id="RightPaw-Pig11id218" x1="50%" x2="50%" xlink:href="#RightPaw-Pig11id210" y1="100%" y2="0%">
  </linearGradient><linearGradient gradientUnits="objectBoundingBox" id="LeftHand-Pig0id22" x1="69.8756%" x2="30.1244%" y1="2.32158%" y2="97.6784%">
   <stop offset="0" style="stop-opacity:1; stop-color:#c7b391"/>
   <stop offset="0.0196078" style="stop-opacity:1; stop-color:#c7b391"/>
   <stop offset="0.921569" style="stop-opacity:1; stop-color:#ecd9b8"/>
   <stop offset="1" style="stop-opacity:1; stop-color:#ecd9b8"/>
  </linearGradient><linearGradient gradientUnits="objectBoundingBox" id="Body-Pig2id42" x1="50%" x2="50%" y1="0.000186021%" y2="100%">
   <stop offset="0" style="stop-opacity:1; stop-color:#c7b391"/>
   <stop offset="0.0313725" style="stop-opacity:1; stop-color:#c7b391"/>
   <stop offset="0.529412" style="stop-opacity:1; stop-color:#ecd9b8"/>
   <stop offset="1" style="stop-opacity:1; stop-color:#fff8ed"/>
  </linearGradient><linearGradient gradientUnits="userSpaceOnUse" id="Body-Pig2id214" x1="15766.2" x2="15766.2" xlink:href="#Body-Pig2id0" y1="19640.4" y2="22051.2">
  </linearGradient><linearGradient gradientUnits="userSpaceOnUse" id="Body-Pig2id215" x1="11499.5" x2="11499.5" xlink:href="#Body-Pig2id0" y1="19195.6" y2="22068.4">
  </linearGradient><linearGradient gradientUnits="objectBoundingBox" id="LeftPaw-Pig11id70" x1="18.1168%" x2="81.8832%" xlink:href="#LeftPaw-Pig11id25" y1="89.1977%" y2="10.8018%">
  </linearGradient><linearGradient gradientUnits="objectBoundingBox" id="LeftPaw-Pig11id210" x1="50%" x2="50%" y1="100%" y2="0%">
   <stop offset="0" style="stop-opacity:1; stop-color:#ecd9b8"/>
   <stop offset="1" style="stop-opacity:1; stop-color:#fff8ed"/>
  </linearGradient><linearGradient gradientUnits="userSpaceOnUse" id="Ears-Pig7id51" x1="19233.2" x2="19233.2" xlink:href="#Ears-Pig7id3" y1="11073.2" y2="5805.29">
  </linearGradient><linearGradient gradientUnits="userSpaceOnUse" id="Ears-Pig7id158" x1="21786.2" x2="18232.6" xlink:href="#Ears-Pig7id18" y1="7178.24" y2="9948.8">
  </linearGradient><linearGradient gradientUnits="userSpaceOnUse" id="Ears-Pig7id47" x1="20990.1" x2="17956" xlink:href="#Ears-Pig7id20" y1="8637.51" y2="9507.53">
  </linearGradient><linearGradient gradientUnits="userSpaceOnUse" id="Ears-Pig7id6" x1="8130.65" x2="8130.65" xlink:href="#Ears-Pig7id3" y1="11073.2" y2="5805.29">
  </linearGradient><linearGradient gradientUnits="userSpaceOnUse" id="Ears-Pig7id170" x1="5577.66" x2="9131.3" xlink:href="#Ears-Pig7id18" y1="7178.24" y2="9948.8">
  </linearGradient><linearGradient gradientUnits="userSpaceOnUse" id="Head-Pig7id173" x1="13681.9" x2="13681.9" xlink:href="#Head-Pig7id42" y1="17936.7" y2="7493.22">
  </linearGradient><linearGradient gradientUnits="userSpaceOnUse" id="Head-Pig7id30" x1="13681.9" x2="13681.9" y1="9565.57" y2="17278">
   <stop offset="0" style="stop-opacity:1; stop-color:#f6f0e5"/>
   <stop offset="0.658824" style="stop-opacity:1; stop-color:#f6f0e5"/>
   <stop offset="1" style="stop-opacity:1; stop-color:#e8decc"/>
  </linearGradient><linearGradient gradientUnits="userSpaceOnUse" id="Eyes-Pig9id148" x1="16641" x2="17334.4" y1="14255.9" y2="11076.2">
   <stop offset="0" style="stop-opacity:1; stop-color:#008053"/>
   <stop offset="1" style="stop-opacity:1; stop-color:black"/>
  </linearGradient><linearGradient gradientUnits="userSpaceOnUse" id="Eyes-Pig9id10" x1="15305.7" x2="18262.7" y1="12539.6" y2="12539.6">
   <stop offset="0" style="stop-opacity:1; stop-color:#008053"/>
   <stop offset="0.501961" style="stop-opacity:1; stop-color:#00ffa5"/>
   <stop offset="1" style="stop-opacity:1; stop-color:#008053"/>
  </linearGradient><linearGradient gradientUnits="userSpaceOnUse" id="Eyes-Pig9id45" x1="16680.3" x2="16680.3" y1="11243.5" y2="13543.4">
   <stop offset="0" style="stop-opacity:1; stop-color:black"/>
   <stop offset="0.4" style="stop-opacity:1; stop-color:black"/>
   <stop offset="1" style="stop-opacity:1; stop-color:#006642"/>
  </linearGradient><linearGradient gradientUnits="userSpaceOnUse" id="Eyes-Pig9id161" x1="10722.8" x2="10029.5" xlink:href="#Eyes-Pig9id148" y1="14255.9" y2="11076.2">
  </linearGradient><linearGradient gradientUnits="userSpaceOnUse" id="Eyes-Pig9id64" x1="9101.23" x2="12058.2" xlink:href="#Eyes-Pig9id10" y1="12539.6" y2="12539.6">
  </linearGradient><linearGradient gradientUnits="userSpaceOnUse" id="Eyes-Pig9id76" x1="10683.6" x2="10683.6" xlink:href="#Eyes-Pig9id45" y1="11243.5" y2="13543.4">
  </linearGradient><linearGradient gradientUnits="userSpaceOnUse" id="Moustache-Pig1id1" x1="13681.9" x2="13681.9" y1="14978.9" y2="17918.9">
   <stop offset="0" style="stop-opacity:1; stop-color:#e9dcb3"/>
   <stop offset="0.290196" style="stop-opacity:1; stop-color:#e9dcb3"/>
   <stop offset="1" style="stop-opacity:1; stop-color:#cfbf8a"/>
  </linearGradient><linearGradient gradientUnits="userSpaceOnUse" id="Nose-Pig6id181" x1="13681.9" x2="13681.9" xlink:href="#Nose-Pig6id151" y1="13079.6" y2="15426.2">
  </linearGradient><linearGradient gradientUnits="userSpaceOnUse" id="Hair-Pig1id28" x1="13613.6" x2="13613.6" xlink:href="#Hair-Pig1id7" y1="9606.62" y2="4975.82">
  </linearGradient><linearGradient gradientUnits="userSpaceOnUse" id="Tail-Pig4id94" x1="13432.5" x2="17737.9" y1="23392.7" y2="23392.7">
   <stop offset="0" style="stop-opacity:1; stop-color:#c7b391"/>
   <stop offset="1" style="stop-opacity:1; stop-color:#fff8ed"/>
  </linearGradient><linearGradient gradientUnits="userSpaceOnUse" id="Tail-Pig4id5" x1="18537.4" x2="18537.4" y1="11625" y2="5118.17">
   <stop offset="0" style="stop-opacity:1; stop-color:#77613d"/>
   <stop offset="1" style="stop-opacity:1; stop-color:#ecd9b8"/>
  </linearGradient><linearGradient gradientUnits="userSpaceOnUse" id="RightFoot-Pig1id0" x1="16257.8" x2="16257.8" y1="21560.3" y2="23683.4">
   <stop offset="0" style="stop-opacity:1; stop-color:#77613d"/>
   <stop offset="1" style="stop-opacity:1; stop-color:#9e8660"/>
  </linearGradient><linearGradient gradientUnits="userSpaceOnUse" id="RightLeg-Pig1id32" x1="11131.5" x2="11311.1" y1="22888.7" y2="24274.5">
   <stop offset="0" style="stop-opacity:1; stop-color:#f6f0e5"/>
   <stop offset="0.6" style="stop-opacity:1; stop-color:#f6f0e5"/>
   <stop offset="1" style="stop-opacity:1; stop-color:#e8decc"/>
  </linearGradient><linearGradient gradientUnits="userSpaceOnUse" id="LeftFoot-Pig1id0" x1="16257.8" x2="16257.8" y1="21560.3" y2="23683.4">
   <stop offset="0" style="stop-opacity:1; stop-color:#77613d"/>
   <stop offset="1" style="stop-opacity:1; stop-color:#9e8660"/>
  </linearGradient><linearGradient gradientUnits="userSpaceOnUse" id="LeftLeg-Pig1id11" x1="14608.7" x2="16388.7" y1="21433.3" y2="24072.3">
   <stop offset="0" style="stop-opacity:1; stop-color:#fff8ed"/>
   <stop offset="0.501961" style="stop-opacity:1; stop-color:#fff8ed"/>
   <stop offset="1" style="stop-opacity:1; stop-color:#ecd9b8"/>
  </linearGradient><linearGradient gradientUnits="objectBoundingBox" id="RightHand-Pig0id22" x1="69.8756%" x2="30.1244%" y1="2.32158%" y2="97.6784%">
   <stop offset="0" style="stop-opacity:1; stop-color:#c7b391"/>
   <stop offset="0.0196078" style="stop-opacity:1; stop-color:#c7b391"/>
   <stop offset="0.921569" style="stop-opacity:1; stop-color:#ecd9b8"/>
   <stop offset="1" style="stop-opacity:1; stop-color:#ecd9b8"/>
  </linearGradient><linearGradient gradientUnits="objectBoundingBox" id="RightPaw-Pig11id210" x1="50%" x2="50%" y1="100%" y2="0%">
   <stop offset="0" style="stop-opacity:1; stop-color:#ecd9b8"/>
   <stop offset="1" style="stop-opacity:1; stop-color:#fff8ed"/>
  </linearGradient><linearGradient gradientUnits="userSpaceOnUse" id="Body-Pig2id0" x1="16257.8" x2="16257.8" y1="21560.3" y2="23683.4">
   <stop offset="0" style="stop-opacity:1; stop-color:#77613d"/>
   <stop offset="1" style="stop-opacity:1; stop-color:#9e8660"/>
  </linearGradient><linearGradient gradientUnits="objectBoundingBox" id="LeftPaw-Pig11id25" x1="81.8832%" x2="18.1168%" y1="89.1977%" y2="10.8018%">
   <stop offset="0" style="stop-opacity:1; stop-color:#c7b391"/>
   <stop offset="0.619608" style="stop-opacity:1; stop-color:#ecd9b8"/>
   <stop offset="1" style="stop-opacity:1; stop-color:#ecd9b8"/>
  </linearGradient><linearGradient gradientUnits="userSpaceOnUse" id="Ears-Pig7id3" x1="18922.8" x2="18922.8" y1="11187.2" y2="5413.87">
   <stop offset="0" style="stop-opacity:1; stop-color:#c7b391"/>
   <stop offset="0.388235" style="stop-opacity:1; stop-color:#ecd9b8"/>
   <stop offset="1" style="stop-opacity:1; stop-color:#fff8ed"/>
  </linearGradient><linearGradient gradientUnits="userSpaceOnUse" id="Ears-Pig7id18" x1="21517.2" x2="17496.7" y1="8655.92" y2="7801.34">
   <stop offset="0" style="stop-opacity:1; stop-color:#F5E2E2"/>
   <stop offset="1" style="stop-opacity:1; stop-color:#C49D9D"/>
  </linearGradient><linearGradient gradientUnits="userSpaceOnUse" id="Ears-Pig7id20" x1="6373.79" x2="9407.93" y1="8637.51" y2="9507.53">
   <stop offset="0" style="stop-opacity:1; stop-color:#E4ADAD"/>
   <stop offset="1" style="stop-opacity:1; stop-color:#B87984"/>
  </linearGradient><linearGradient gradientUnits="objectBoundingBox" id="Head-Pig7id42" x1="50%" x2="50%" y1="0.000186021%" y2="100%">
   <stop offset="0" style="stop-opacity:1; stop-color:#c7b391"/>
   <stop offset="0.0313725" style="stop-opacity:1; stop-color:#c7b391"/>
   <stop offset="0.529412" style="stop-opacity:1; stop-color:#ecd9b8"/>
   <stop offset="1" style="stop-opacity:1; stop-color:#fff8ed"/>
  </linearGradient><linearGradient gradientUnits="userSpaceOnUse" id="Nose-Pig6id151" x1="13681.9" x2="13681.9" y1="13554.2" y2="15469.2">
   <stop offset="0" style="stop-opacity:1; stop-color:#FFCCCC"/>
   <stop offset="1" style="stop-opacity:1; stop-color:#DB9092"/>
  </linearGradient><linearGradient gradientUnits="userSpaceOnUse" id="Hair-Pig1id7" x1="17165.3" x2="17165.3" y1="19960.9" y2="12270.8">
   <stop offset="0" style="stop-opacity:1; stop-color:#cfbf8a"/>
   <stop offset="1" style="stop-opacity:1; stop-color:#e9dcb3"/>
  </linearGradient></defs><g id="HairBack-Pig0">
 <animateTransform additive="sum" attributeName="transform" dur="10" repeatCount="indefinite" type="translate" values="0;0 200;0;0 200;0;0 200;0;0 200;0"/>
  <metadata id="CorelCorpID_0Corel-Layer"/>
  <rect class="HairBack-Pig0fil0" height="890" width="890" x="13237" y="6590"/>
  <rect class="HairBack-Pig0fil0" height="890" width="890" x="13237" y="6590"/>
 </g><g id="Tail-Pig4">
  <metadata id="CorelCorpID_7Corel-Layer"/>
  <path class="Tail-Pig4fil32 Tail-Pig4str0" d="M18327 23822c-507,-169 -732,-913 -375,-1407 74,-102 173,-187 275,-273 40,-34 81,467 121,432 6,-639 303,-807 355,-1161 28,-384 -43,-549 -91,-632 -48,-83 434,90 461,663 -12,-309 120,-947 1573,-763 -840,167 -999,789 -1025,1614 117,-238 413,-483 609,-410 -243,179 -318,617 -323,920 -3,189 -230,595 -615,728 191,16 336,-45 573,-161 -272,542 -853,723 -1538,450z" style="fill:#d0728a"/>
  <path class="Tail-Pig4fil10" d="M20155 21954c-116,-72 -245,213 -364,477 -74,165 -84,360 -151,482 -274,495 -649,438 -1033,956 0,0 -272,-130 -424,-194 260,-395 -74,-620 17,-966 0,0 86,68 225,235 70,85 138,3 175,-130 125,-450 -138,-660 250,-1358 72,-130 -309,366 -309,366l-193 752 -119 -433c0,0 -375,273 -371,437 4,165 -169,574 57,897 225,322 655,448 834,461 178,12 781,-97 929,-294 148,-197 138,-182 138,-182 0,0 -388,19 -456,46 -68,27 209,-61 427,-381 219,-320 118,-506 154,-661 36,-155 130,-390 214,-510z" style="fill:#a244fd"/>
  <path class="Tail-Pig4fil33" d="M18822 22851c166,27 42,1340 -1082,1510 -269,40 -540,2 -785,-120 -477,-237 -893,-535 -887,-1078 5,-420 525,-627 608,-74 54,357 247,496 534,638 138,69 292,90 444,67 156,-15 391,-60 535,-186 373,-310 471,-783 633,-757z" style="fill:#938ea8"/>
  <path class="Tail-Pig4fil30" d="M18499 24074c-182,175 -427,312 -748,361 -143,21 -287,22 -428,0 -138,-21 -273,-63 -402,-127 -216,-107 -420,-228 -583,-379l235 0c124,91 266,171 415,245 114,57 234,95 357,113 126,19 255,19 383,0 288,-44 525,-156 687,-311 214,-206 381,-450 432,-670 -21,316 -201,626 -348,768zm-1407 -496c46,28 97,55 152,82 61,31 125,51 192,61 68,10 138,10 207,-1l4 0c85,-8 194,-26 297,-62 341,-119 473,-284 612,-507 -117,319 -218,528 -562,649 -115,40 -235,59 -328,68l0 1c-85,12 -170,13 -252,0 -82,-12 -162,-37 -237,-75 -29,-14 -58,-29 -85,-43l0 -173z" style="fill:#884b04"/>
  <path class="Tail-Pig4fil34 Tail-Pig4str1" d="M13590 22980c-74,-146 -60,-518 114,-580 173,-62 626,30 700,176 2,3 367,1151 1782,1081 176,-9 745,6 968,-383 187,-327 61,-627 -118,-753 -194,-137 -451,-83 -443,15 -97,-166 -385,-358 -265,-522 6,16 403,-347 904,-94 720,362 748,1036 493,1582 -233,500 -764,786 -1396,846 -2017,192 -2737,-1364 -2739,-1368z" style="fill:#6fff5e"/>
  <path class="Tail-Pig4fil10" d="M17707 23822c0,0 112,152 19,294 -93,142 596,-33 666,-89 69,-56 -276,415 -1054,335 -779,-80 -299,-199 -299,-199l506 -360 162 19z" style="fill:#290a01"/>
  <path class="Tail-Pig4fil26" d="M17270 23437c0,0 -158,311 -59,337 99,27 374,-139 423,-235 50,-95 137,356 -677,660 -814,303 -523,-15 -523,-15 0,0 340,-59 836,-747z" style="fill:#875e35"/>
  <path class="Tail-Pig4fil26" d="M13814 23259c0,0 183,264 356,449 173,185 719,440 898,480 178,39 479,-245 446,-427 -32,-182 -703,-330 -803,-503 -101,-172 -328,-397 -361,-403 -33,-7 -776,84 -536,404z" style="fill:#127482"/>
  <path class="Tail-Pig4fil10" d="M19850 21266c0,0 -519,437 -589,814 -70,376 -168,643 -226,718 176,-126 295,-319 345,-481 49,-162 218,-452 218,-452 0,0 194,-488 252,-599z" style="fill:#75f3aa"/>
 </g><g id="RightFoot-Pig1">
  <metadata id="CorelCorpID_11Corel-Layer"/>
  <path class="RightFoot-Pig1fil41" d="M16559 24190c54,65 143,233 174,292 62,268 -152,365 -298,365 -143,0 -686,-98 -894,289 -330,-192 -541,-572 -540,-565 -22,-43 -41,-85 -54,-126 -58,-176 -10,-247 31,-317 480,-107 1078,-83 1581,62z" style="fill:#ef6964"/>
  <path class="RightFoot-Pig1fil38" d="M15011 24496c-3,101 -14,73 -14,176 -5,821 346,600 430,523 12,-11 59,-71 57,-73 -109,-146 -274,-300 -473,-626z" style="fill:#d60a2c"/>
  <path class="RightFoot-Pig1fil0 RightFoot-Pig1str2" d="M14995 24537c1,45 2,90 2,135 -5,821 346,600 430,523 4,-4 19,-23 37,-48" style="fill:#82618d"/>
  <path class="RightFoot-Pig1fil39" d="M16756 24466c0,0 -225,-105 -294,-5 -54,78 49,353 -47,353 -106,0 -310,-245 -509,-215 -288,43 -418,429 -384,506 35,82 343,409 763,435 419,26 490,-14 487,-39 -3,-24 42,-150 42,-150 0,0 458,-59 491,-95 100,-109 -467,-691 -549,-790z" style="fill:#a81a29"/>
  <polygon class="RightFoot-Pig1fil40" points="16740,25393 16571,24994 16934,25330 "/>
  <path class="RightFoot-Pig1fil0 RightFoot-Pig1str2" d="M16567 24189c147,241 633,739 718,969 84,231 -492,167 -492,167 0,0 5,189 -122,220 -281,70 -831,-103 -1075,-309 -49,-41 -99,-87 -150,-135" style="fill:#65eba1"/>
  <path class="RightFoot-Pig1fil0 RightFoot-Pig1str2" d="M16567 24189c45,73 121,170 208,277m-1262 697c-341,-311 -707,-789 -548,-1037" style="fill:#6d72ab"/>
  <path class="RightFoot-Pig1fil10" d="M15252 24171c-250,336 427,769 691,965 282,210 555,378 651,406 -45,23 -445,-31 -727,-123 -179,-96 -710,-617 -803,-752 -94,-163 -147,-331 -119,-480 10,-21 22,-40 33,-59 85,-7 193,-3 274,43z" style="fill:#2d14c3"/>
 </g><g id="LeftFoot-Pig1">
  <metadata id="CorelCorpID_28Corel-Layer"/>
  <path class="LeftFoot-Pig1fil41" d="M10805 24190c-54,65 -143,233 -174,292 -62,268 152,365 298,365 143,0 685,-98 894,289 330,-192 541,-572 540,-565 22,-43 40,-85 54,-126 58,-176 10,-247 -31,-317 -480,-107 -1078,-83 -1581,62z" style="fill:#752189"/>
  <path class="LeftFoot-Pig1fil38" d="M12353 24496c3,101 14,73 14,176 5,821 -346,600 -430,523 -12,-11 -59,-71 -57,-73 109,-146 274,-300 473,-626z" style="fill:#2b0a06"/>
  <path class="LeftFoot-Pig1fil0 LeftFoot-Pig1str2" d="M12369 24537c-1,45 -2,90 -2,135 5,821 -346,600 -430,523 -4,-4 -19,-23 -37,-48" style="fill:#4b0981"/>
  <path class="LeftFoot-Pig1fil57" d="M10608 24466c0,0 225,-105 294,-5 54,78 -49,353 47,353 106,0 309,-245 509,-215 288,43 418,429 384,506 -35,82 -343,409 -763,435 -419,26 -490,-14 -487,-39 3,-24 -42,-150 -42,-150 0,0 -458,-59 -491,-95 -101,-109 467,-691 549,-790z" style="fill:#38335a"/>
  <polygon class="LeftFoot-Pig1fil40" points="10624,25393 10793,24994 10430,25330 "/>
  <path class="LeftFoot-Pig1fil0 LeftFoot-Pig1str2" d="M10797 24189c-147,241 -633,739 -718,969 -85,231 492,167 492,167 0,0 -5,189 122,220 281,70 831,-103 1075,-309 49,-41 99,-87 150,-135" style="fill:#22ea34"/>
  <path class="LeftFoot-Pig1fil0 LeftFoot-Pig1str2" d="M10797 24189c-45,73 -121,170 -208,277m1262 697c341,-311 707,-789 548,-1037" style="fill:#e6e586"/>
  <path class="LeftFoot-Pig1fil10" d="M12112 24171c250,336 -428,769 -691,965 -282,210 -555,378 -651,406 45,23 444,-31 727,-123 179,-96 710,-617 803,-752 94,-163 147,-331 119,-480 -10,-21 -22,-40 -33,-59 -85,-7 -193,-3 -274,43z" style="fill:#7999b8"/>
 </g><g id="RightLeg-Pig1">
  <metadata id="CorelCorpID_23Corel-Layer"/>
  <path class="RightLeg-Pig1fil53" d="M16570 21416c0,0 1181,1189 570,2176 -128,221 -511,470 -581,598 -594,14 -1057,-8 -1581,-62 45,-78 82,-155 -44,-376 -113,-198 -400,-446 -1252,-493 0,-147 0,-280 0,-522 373,-788 1598,-1745 2888,-1321z" style="fill:#b9b0c8"/>
  <path class="RightLeg-Pig1fil54" d="M17311 23069l0 0 0 7c-1,14 -3,27 -4,41l-1 6c-2,14 -4,28 -6,42l-1 6c-2,14 -5,28 -8,42l-1 4c-3,15 -6,30 -10,44l-1 4c-3,14 -7,29 -12,44l-1 3c-4,15 -9,30 -14,45l-1 2c-5,15 -11,30 -16,45l-1 2c-6,15 -13,30 -19,45l-1 2c-7,15 -14,31 -22,46l0 1c-8,15 -16,30 -25,46l0 0c-9,16 -18,31 -27,46 -2,4 -5,8 -7,11l-2 3c-1,3 -3,5 -5,8l-2 4 -5 7 -3 4 -4 7 -4 4 -4 7 -4 4 -5 7 -3 4 -6 7 -3 5 -5 6 -4 5 -6 7 -3 3 -6 8 -4 4c-6,7 -12,13 -18,20l-1 2 -1 0 -10 11 0 0 -11 11 -1 2 -9 9 -4 4 -7 7 -3 3 -9 9 -2 2 -9 9 -3 3 -9 9 -2 1 -10 10 -2 2 -10 9 -2 2 -9 9 -2 2c-12,11 -24,22 -36,33l0 0c-37,33 -74,65 -110,96l-3 3 -9 7 -2 2 -9 9 -1 1c-15,12 -29,24 -42,36l-2 2 -8 7c-46,41 -85,79 -112,111l-1 1c-4,4 -7,9 -10,13l-1 1c-1,2 -3,4 -4,5l-1 1c-1,2 -2,4 -4,6l0 1c-1,2 -2,3 -3,5l-1 1c-1,2 -2,4 -3,6l0 0c-599,44 -1104,27 -1581,-62 39,-68 72,-136 -4,-300 1,-1 2,-3 4,-4 0,0 190,-214 444,-140 73,21 131,45 181,66 417,180 591,-75 789,-342 105,-141 207,-262 344,-341 173,-100 533,-204 575,2z" style="fill:#c6cd2c"/>
  <path class="RightLeg-Pig1fil10" d="M17192 23421c67,-141 106,-290 107,-439 2,-734 -540,-1374 -869,-1659l-157 688c26,45 52,90 79,136 387,-391 947,832 840,1274z" style="fill:#43da51"/>
  <path class="RightLeg-Pig1fil0 RightLeg-Pig1str2" d="M16570 21416c303,324 585,778 689,1246 115,521 25,950 -408,1282 -95,72 -194,144 -284,245m-1602 -63c284,-396 -518,-875 -1283,-867" style="fill:#fc277a"/>
  <path class="RightLeg-Pig1fil10" d="M13760 23246c341,-28 1532,124 1607,584 27,166 -52,256 -115,341 -93,-12 -184,-26 -274,-43 40,-70 74,-140 -11,-313 -8,-22 -19,-42 -33,-62l0 -1c-104,-182 -357,-408 -1066,-479 -35,-9 -71,-18 -108,-27z" style="fill:#d6be7b"/>
 </g><g id="LeftLeg-Pig1">
  <metadata id="CorelCorpID_40Corel-Layer"/>
  <path class="LeftLeg-Pig1fil63" d="M10794 21416c0,0 -1181,1189 -570,2176 128,221 511,470 581,598 594,14 1057,-8 1581,-62 -45,-78 -82,-155 44,-376 113,-198 400,-446 1252,-493 0,-147 0,-280 0,-522 -373,-788 -1598,-1745 -2888,-1321z" style="fill:#bc50be"/>
  <path class="LeftLeg-Pig1fil64" d="M10052 23069l0 0 1 7c1,14 3,27 4,41l1 6c2,14 4,28 6,42l1 6c2,14 5,28 8,42l0 4c4,15 7,30 11,44l0 4c4,14 8,29 13,44l1 3c4,15 9,30 14,45l1 2c5,15 10,30 16,45l1 2c6,15 13,30 19,45l1 2c7,15 14,31 22,46l0 1c8,15 16,30 25,46l0 0c9,16 18,31 27,46 2,4 4,8 7,11l1 3c2,3 4,5 6,8l2 4 5 7 3 4 4 7 4 4 4 7 3 4 6 7 3 4 5 7 4 5 5 6 4 5 6 7 3 3 6 8 4 4c6,7 12,13 18,20l1 2 1 0 10 11 0 0 11 11 1 2 9 9 4 4 7 7 3 3 9 9 2 2 9 9 3 3 9 9 2 1 10 10 2 2 10 9 1 2 10 9 2 2c12,11 24,22 36,33l0 0c37,33 74,65 110,96l3 3 9 7 2 2 9 9 1 1c15,12 28,24 42,36l2 2 8 7c46,41 85,79 112,111l1 1c3,4 7,9 10,13l1 1c1,2 3,4 4,5l1 1c1,2 2,4 3,6l1 1c1,2 2,3 3,5l1 1c1,2 2,4 3,6l0 0c599,44 1104,27 1581,-62 -39,-68 -73,-136 4,-300 -1,-1 -3,-3 -4,-4 0,0 -190,-214 -444,-140 -73,21 -131,45 -181,66 -417,180 -592,-75 -789,-342 -105,-141 -207,-262 -345,-341 -172,-100 -532,-204 -575,2z" style="fill:#41ae5d"/>
  <path class="LeftLeg-Pig1fil10" d="M10172 23421c-67,-141 -106,-290 -107,-439 -2,-734 540,-1374 869,-1659l157 688c-26,45 -53,90 -79,136 -388,-391 -947,832 -840,1274z" style="fill:#5ee874"/>
  <path class="LeftLeg-Pig1fil0 LeftLeg-Pig1str2" d="M10794 21416c-303,324 -586,778 -689,1246 -115,521 -25,950 408,1282 95,72 193,144 284,245m1602 -63c-284,-396 517,-875 1283,-867" style="fill:#cd8a96"/>
  <path class="LeftLeg-Pig1fil10" d="M13604 23246c-341,-28 -1532,124 -1607,584 -27,166 52,256 115,341 93,-12 184,-26 274,-43 -40,-70 -74,-140 11,-313 8,-22 19,-42 33,-62l0 -1c104,-182 357,-408 1066,-479 35,-9 71,-18 108,-27z" style="fill:#4f0200"/>
 </g><g id="RightHand-Pig0">
 <animateTransform additive="sum" attributeName="transform" dur="10" repeatCount="indefinite" type="translate" values="0;0 200;0;0 200;0;0 200;0;0 200;0"/>
  <metadata id="CorelCorpID_44Corel-Layer"/>
  <path class="RightHand-Pig0fil68" d="M16231 17709c1005,345 1816,1398 2255,2162 -88,184 -847,720 -1129,836 -543,-402 -1045,-430 -1469,-362 -742,120 -1353,-1920 -931,-2545 422,-21 934,-40 1274,-91z" style="fill:#2833cc"/>
  <path class="RightHand-Pig0fil10" d="M17342 20696c-537,-391 -1034,-418 -1454,-351 -171,28 -335,-59 -481,-217 -325,-472 753,-1098 1039,-656 258,399 723,837 1098,1116 3,2 22,18 34,27l-219 113c-8,-18 -14,-30 -17,-32z" style="fill:#3d1373"/>
  <path class="RightHand-Pig0fil0 RightHand-Pig0str0" d="M16477 20333c179,24 366,81 561,178 100,50 205,104 305,189m1121 -817c-161,-280 -388,-607 -632,-916 -422,-534 -963,-1039 -1601,-1258 -90,-31 -172,-59 -246,-84" style="fill:#f76eb5"/>
 </g><g id="LeftHand-Pig0">
 <animateTransform additive="sum" attributeName="transform" dur="10" repeatCount="indefinite" type="translate" values="0;0 200;0;0 200;0;0 200;0;0 200;0"/>
  <metadata id="CorelCorpID_61Corel-Layer"/>
  <path class="LeftHand-Pig0fil79" d="M11133 17709c-1005,345 -1817,1398 -2255,2162 88,184 847,720 1128,836 544,-402 1046,-430 1470,-362 742,120 1352,-1920 931,-2545 -422,-21 -934,-40 -1274,-91z" style="fill:#3d2aa5"/>
  <path class="LeftHand-Pig0fil10" d="M10022 20696c537,-391 1034,-418 1454,-351 171,28 335,-59 481,-217 325,-472 -753,-1098 -1039,-656 -258,399 -723,837 -1098,1116 -3,2 -22,18 -34,27l219 113c8,-18 14,-30 17,-32z" style="fill:#1fca61"/>
  <path class="LeftHand-Pig0fil0 LeftHand-Pig0str0" d="M10887 20333c-179,24 -366,81 -561,178 -100,50 -205,104 -305,189m-1121 -817c161,-280 388,-607 632,-916 422,-534 963,-1039 1601,-1258 90,-31 171,-59 246,-84" style="fill:#47c8ac"/>
 </g><g id="Body-Pig2">
 <animateTransform additive="sum" attributeName="transform" dur="10" repeatCount="indefinite" type="translate" values="0;0 200;0;0 200;0;0 200;0;0 200;0"/>
  <metadata id="CorelCorpID_68Corel-Layer"/>
  <path class="Body-Pig2fil83" d="M13682 23135c-1548,0 -2752,-291 -2993,-1956 -147,-1014 391,-2287 991,-3420 634,80 1289,123 2002,142 713,-19 1367,-62 2002,-142 600,1133 1137,2406 991,3420 -242,1665 -1445,1956 -2993,1956z" style="fill:#c3f44d"/>
  <path class="Body-Pig2fil86" d="M16270 19898c134,250 -117,476 -346,598 -228,121 -348,93 -482,-156 -133,-250 32,-520 260,-642 229,-122 435,-49 568,200zm15 633c131,-442 317,-421 362,-394 57,413 135,1166 -176,1646 -166,256 -535,351 -807,187 -378,-227 -310,-544 -105,-779 273,-314 600,-235 726,-660zm-1307 660c-211,-46 -217,-508 150,-427 163,36 212,180 170,298 -41,118 -158,165 -320,129z" style="fill:#80fbca"/>
  <path class="Body-Pig2fil87" d="M11050 21679c-133,-250 117,-476 346,-598 229,-121 502,182 635,432 147,275 -60,547 -369,555 -187,5 -419,-27 -612,-389zm406 -990c-125,-56 -242,-80 -465,177 -269,310 -233,579 -313,504 -32,-235 -42,-674 25,-1094 29,-180 54,-323 111,-440 224,-465 886,-793 1236,-567 612,393 205,1777 -594,1420z" style="fill:#c6da31"/>
  <path class="Body-Pig2fil10" d="M12621 23067c-1016,-156 -1749,-629 -1932,-1888 -75,-519 29,-1106 229,-1707 -223,2001 402,3257 1703,3595z" style="fill:#b0b329"/>
  <path class="Body-Pig2fil84" d="M11012 22144c-250,-321 -348,-641 -397,-954 -59,-377 -24,-998 184,-1320 -78,421 -93,905 -36,1298 50,341 104,572 249,976z" style="fill:#6afe92"/>
  <path class="Body-Pig2fil10" d="M14743 23067c1016,-156 1749,-629 1932,-1888 75,-519 -29,-1106 -229,-1707 223,2001 -402,3257 -1703,3595z" style="fill:#80c6a6"/>
  <path class="Body-Pig2fil84" d="M16352 22144c250,-321 347,-641 397,-954 59,-377 24,-998 -184,-1320 78,421 93,905 36,1298 -50,341 -104,572 -249,976z" style="fill:#a399b1"/>
 </g><g id="RightPaw-Pig11">
 <animateTransform additive="sum" attributeName="transform" dur="10" repeatCount="indefinite" type="translate" values="0;0 200;0;0 200;0;0 200;0;0 200;0"/>
  <metadata id="CorelCorpID_60Corel-Layer"/>
  <path class="RightPaw-Pig11fil74" d="M18486 19871c155,269 247,281 434,498 211,244 446,948 341,1067 -34,39 -389,8 -389,8 -15,58 -145,373 -188,392 -161,73 -598,-324 -814,-554 -63,111 -195,178 -216,147 -79,-27 -146,-195 -211,-374 -34,-92 -45,-318 -86,-348 139,-387 621,-775 1129,-836z" style="fill:#234620"/>
  <path class="RightPaw-Pig11fil51" d="M18063 19685c64,96 204,233 173,396 -121,-193 -339,-214 -585,-235 238,177 108,282 254,484 -200,-157 -432,-58 -531,-118 16,106 146,295 254,363 -96,58 -223,-45 -463,-38 162,64 47,59 219,189 25,86 -26,97 59,329 65,179 132,347 211,374 21,31 153,-36 216,-147 216,230 653,627 814,554 43,-19 173,-334 188,-392 0,0 355,31 389,-8 105,-119 -130,-823 -341,-1067 -248,-288 -190,-203 -432,-495 -83,-100 -255,-190 -425,-189z" style="fill:#2b27d3"/>
  <path class="RightPaw-Pig11fil10" d="M17452 20518c31,24 62,48 92,70 4,3 39,31 43,34 13,14 26,28 39,43 79,93 97,228 104,283 2,13 3,21 4,24 -2,92 -166,169 -227,208 0,-8 -67,-223 -116,-364 0,-31 3,-54 -7,-90 -9,-6 -18,-13 -27,-19 23,-64 55,-127 95,-189z" style="fill:#dbeadd"/>
  <path class="RightPaw-Pig11fil78" d="M18910 20358c-402,-76 -337,407 -242,635 -239,-309 -538,-414 -692,-297 -104,79 -113,131 -203,226 -99,104 -339,-108 -394,-184 -18,147 139,645 275,691 21,31 153,-36 216,-147 216,230 653,627 814,554 43,-19 173,-334 188,-392 0,0 355,31 389,-8 109,-123 -135,-862 -351,-1078z" style="fill:#5889f1"/>
  <path class="RightPaw-Pig11fil10" d="M18804 21498c-67,307 -352,47 -875,-255 4,66 -100,45 -131,-12 -41,-92 -52,-190 -68,-283 -88,22 -225,-79 -303,-156 -5,-5 -11,-11 -16,-16 49,174 144,541 243,653 90,2 173,-72 216,-147 193,206 571,552 793,511 91,-17 84,-124 141,-295z" style="fill:#48c5df"/>
  <polygon class="RightPaw-Pig11fil40" points="18796,21484 18678,21021 18973,21393 "/>
  <path class="RightPaw-Pig11fil0 RightPaw-Pig11str2" d="M17136 20561c121,75 170,94 271,202 1,149 38,330 93,461 54,128 115,197 196,208 55,8 128,-6 194,-123 208,221 642,571 796,501 41,-19 164,-344 179,-400 0,0 356,75 389,38 86,-99 -94,-785 -280,-992 -109,-122 -404,-420 -409,-427 -68,-85 -123,-182 -179,-276" style="fill:#9ac9ce"/>
 </g><g id="LeftPaw-Pig11">
 <animateTransform additive="sum" attributeName="transform" dur="10" repeatCount="indefinite" type="translate" values="0;0 200;0;0 200;0;0 200;0;0 200;0"/>
  <metadata id="CorelCorpID_82Corel-Layer"/>
  <path class="LeftPaw-Pig11fil91" d="M8878 19871c-155,269 -247,281 -434,498 -211,244 -446,948 -341,1067 34,39 388,8 388,8 16,58 146,373 189,392 161,73 598,-324 814,-554 63,111 195,178 216,147 79,-27 146,-195 211,-374 34,-92 45,-318 85,-348 -138,-387 -621,-775 -1128,-836z" style="fill:#2755e0"/>
  <path class="LeftPaw-Pig11fil51" d="M9301 19685c-64,96 -204,233 -173,396 121,-193 339,-214 585,-235 -238,177 -108,282 -254,484 200,-157 432,-58 531,-118 -16,106 -146,295 -254,363 96,58 222,-45 463,-38 -162,64 -47,59 -219,189 -25,86 26,97 -59,329 -65,179 -132,347 -211,374 -21,31 -153,-36 -216,-147 -216,230 -653,627 -814,554 -43,-19 -173,-334 -189,-392 0,0 -354,31 -388,-8 -105,-119 130,-823 341,-1067 248,-288 190,-203 432,-495 83,-100 255,-190 425,-189z" style="fill:#8bc59b"/>
  <path class="LeftPaw-Pig11fil10" d="M9912 20518c-31,24 -62,48 -92,70 -4,3 -39,31 -43,34 -14,14 -27,28 -39,43 -79,93 -97,228 -104,283 -2,13 -3,21 -4,24 2,92 166,169 226,208 0,-8 68,-223 117,-364 -1,-31 -3,-54 7,-90 9,-6 18,-13 26,-19 -22,-64 -54,-127 -94,-189z" style="fill:#8d4d4a"/>
  <path class="LeftPaw-Pig11fil95" d="M8454 20358c401,-76 337,407 242,635 239,-309 538,-414 692,-297 104,79 113,131 203,226 99,104 339,-108 394,-184 18,147 -140,645 -275,691 -21,31 -153,-36 -216,-147 -216,230 -653,627 -814,554 -43,-19 -173,-334 -189,-392 0,0 -354,31 -388,-8 -109,-123 135,-862 351,-1078z" style="fill:#ca5678"/>
  <path class="LeftPaw-Pig11fil10" d="M8560 21498c67,307 352,47 875,-255 -5,66 100,45 131,-12 40,-92 52,-190 68,-283 88,22 225,-79 303,-156 5,-5 11,-11 16,-16 -49,174 -144,541 -243,653 -90,2 -173,-72 -216,-147 -193,206 -571,552 -793,511 -92,-17 -84,-124 -141,-295z" style="fill:#612358"/>
  <polygon class="LeftPaw-Pig11fil40" points="8568,21484 8686,21021 8391,21393 "/>
  <path class="LeftPaw-Pig11fil0 LeftPaw-Pig11str2" d="M10228 20561c-121,75 -170,94 -272,202 0,149 -37,330 -92,461 -55,128 -115,197 -196,208 -55,8 -128,-6 -194,-123 -208,221 -642,571 -797,501 -41,-19 -163,-344 -178,-400 0,0 -356,75 -389,38 -86,-99 94,-785 280,-992 109,-122 404,-420 409,-427 68,-85 123,-182 179,-276" style="fill:#7ba81d"/>
 </g><g id="Ears-Pig7">
 <animateTransform additive="sum" attributeName="transform" dur="10" repeatCount="indefinite" type="translate" values="0;0 200;0;0 200;0;0 200;0;0 200;0"/>
  <metadata id="CorelCorpID_90Corel-Layer"/>
  <path class="Ears-Pig7fil133" d="M16420 8369c646,170 1046,-568 1482,-1167 1044,-1435 1113,-1168 2439,-958 435,69 907,-62 1089,-139 344,-144 488,-363 625,-282 137,80 -625,1431 -769,1997 -144,565 -537,1847 -867,2321 -330,474 -1225,626 -1541,862 -315,236 -593,-177 -771,-442 -178,-266 -1942,-482 -1687,-2192z" style="fill:#d3d9e6"/>
  <path class="Ears-Pig7fil134" d="M18378 8092c785,-1342 969,-1480 1297,-1449 654,62 1220,77 1789,-302 301,-201 526,-557 591,-518 98,57 -265,766 -532,1372 -433,982 -76,1394 -342,2261 -258,841 -1251,2501 -2350,1582 -995,-1080 -1155,-1744 -453,-2946z" style="fill:#dbdf23"/>
  <path class="Ears-Pig7fil135" d="M19040 7284c206,-99 1821,-63 1849,291 6,82 -829,-227 -1976,449 -419,248 -875,814 -881,818 59,-128 264,-609 346,-750 266,-454 303,-636 662,-808zm-1008 1558c2,0 351,-267 794,-369 870,-201 2144,-300 2151,-216 11,127 -307,275 -550,424 -244,148 -265,201 -265,201 0,0 728,42 826,211 110,193 -644,-68 -1143,350 -156,130 95,587 -350,1148 -444,561 -826,209 -826,209 0,0 -63,-44 -153,-126 -441,-549 -627,-1006 -553,-1531 34,-141 10,-172 69,-301z" style="fill:#eeb4b8"/>
  <path class="Ears-Pig7fil0 Ears-Pig7str0" d="M17902 7202c1044,-1435 1113,-1168 2439,-958 435,69 907,-62 1089,-139 344,-144 488,-363 625,-282 98,57 -265,766 -532,1372 -1,4 -3,8 -5,12 -425,973 -72,1385 -337,2249 -258,841 -1306,2522 -2405,1602 -1,-1 -2,-1 -3,-2 -294,160 -492,-237 -666,-495 -174,-259 -1942,-482 -1687,-2192 646,170 1046,-568 1482,-1167z" style="fill:#3fa30c"/>
  <path class="Ears-Pig7fil84" d="M18132 9914c17,38 0,82 -37,99 -38,17 -82,0 -99,-37 -1,-2 -184,-398 -90,-944 69,-411 563,-1353 1125,-1980 -284,429 -872,1397 -977,2005 -87,500 78,856 78,857z" style="fill:#c0dd95"/>
  <path class="Ears-Pig7fil10" d="M21484 7285c0,0 -12,-335 -208,-361 -953,-129 -2068,264 -2713,1517 -80,155 921,1070 227,1962 -180,231 -443,403 -637,116 -300,-443 -200,-1250 -42,-1897 68,-165 157,-341 267,-530 785,-1342 969,-1480 1297,-1449 654,62 1220,77 1789,-302 301,-201 526,-557 591,-518 98,57 -265,766 -532,1372 -13,31 -26,61 -38,90l-1 0z" style="fill:#3db6cd"/>
  <path class="Ears-Pig7fil10" d="M17397 9048c125,-657 1126,-2504 1819,-2613 270,-42 635,58 963,64 328,5 1074,-59 1349,-387 276,-328 -141,121 -634,131 -493,9 -1246,-116 -1512,-160 -267,-45 -639,-28 -1208,755 -569,783 -803,1107 -911,1211 -107,104 -500,270 -635,303 -134,33 -460,1459 769,696z" style="fill:#74eef2"/>
  <path class="Ears-Pig7fil136" d="M10944 8369c-646,170 -1046,-568 -1482,-1167 -1044,-1435 -1113,-1168 -2439,-958 -435,69 -907,-62 -1089,-139 -344,-144 -488,-363 -625,-282 -138,80 625,1431 769,1997 144,565 537,1847 867,2321 330,474 1225,626 1541,862 315,236 592,-177 771,-442 178,-266 1942,-482 1687,-2192z" style="fill:#01ec52"/>
  <path class="Ears-Pig7fil137" d="M8986 8092c-785,-1342 -969,-1480 -1297,-1449 -654,62 -1220,77 -1789,-302 -302,-201 -526,-557 -591,-518 -99,57 265,766 532,1372 433,982 76,1394 342,2261 258,841 1251,2501 2350,1582 995,-1080 1155,-1744 453,-2946z" style="fill:#e0877d"/>
  <path class="Ears-Pig7fil138" d="M8324 7284c-206,-99 -1821,-63 -1849,291 -6,82 829,-227 1976,449 418,248 875,814 881,818 -59,-128 -264,-609 -346,-750 -266,-454 -303,-636 -662,-808zm1008 1558c-2,0 -351,-267 -794,-369 -870,-201 -2144,-300 -2151,-216 -11,127 307,275 550,424 243,148 265,201 265,201 0,0 -729,42 -826,211 -111,193 644,-68 1143,350 156,130 -95,587 349,1148 445,561 826,209 826,209 0,0 64,-44 154,-126 441,-549 627,-1006 553,-1531 -34,-141 -10,-172 -69,-301z" style="fill:#ef7c78"/>
  <path class="Ears-Pig7fil0 Ears-Pig7str0" d="M9462 7202c-1044,-1435 -1113,-1168 -2439,-958 -435,69 -907,-62 -1089,-139 -344,-144 -488,-363 -625,-282 -99,57 265,766 532,1372 1,4 3,8 5,12 425,973 72,1385 337,2249 258,841 1306,2522 2405,1602 1,-1 2,-1 2,-2 295,160 493,-237 667,-495 174,-259 1942,-482 1687,-2192 -646,170 -1046,-568 -1482,-1167z" style="fill:#c97ec0"/>
  <path class="Ears-Pig7fil84" d="M9232 9914c-17,38 0,82 37,99 38,17 82,0 99,-37 1,-2 184,-398 90,-944 -69,-411 -563,-1353 -1125,-1980 284,429 872,1397 977,2005 87,500 -78,856 -78,857z" style="fill:#6c166b"/>
  <path class="Ears-Pig7fil10" d="M5880 7285c0,0 12,-335 208,-361 953,-129 2068,264 2713,1517 80,155 -921,1070 -227,1962 180,231 443,403 637,116 300,-443 200,-1250 42,-1897 -68,-165 -157,-341 -267,-530 -785,-1342 -969,-1480 -1297,-1449 -654,62 -1220,77 -1789,-302 -302,-201 -526,-557 -591,-518 -99,57 265,766 532,1372 13,31 26,61 38,90l1 0z" style="fill:#ff3511"/>
  <path class="Ears-Pig7fil10" d="M9967 9048c-125,-657 -1126,-2504 -1819,-2613 -270,-42 -635,58 -963,64 -328,5 -1074,-59 -1350,-387 -275,-328 142,121 635,131 493,9 1246,-116 1512,-160 266,-45 639,-28 1208,755 569,783 803,1107 911,1211 107,104 500,270 634,303 135,33 461,1459 -768,696z" style="fill:#1e9e90"/>
 </g><g id="Head-Pig7">
 <animateTransform additive="sum" attributeName="transform" dur="10" repeatCount="indefinite" type="translate" values="0;0 200;0;0 200;0;0 200;0;0 200;0"/>
  <metadata id="CorelCorpID_102Corel-Layer"/>
  <path class="Head-Pig7fil167" d="M13682 17937c481,0 1034,-24 1605,-101 850,-115 1745,-334 2518,-713 517,-252 891,-642 1496,-281 46,-295 -60,-531 -278,-760 297,43 1046,-179 1293,-503 -349,-69 -742,-317 -739,-506 429,-36 980,-397 1235,-1090 -342,197 -775,217 -929,104 339,-83 701,-286 849,-530 -370,-85 -578,-255 -736,-469 -234,-317 -474,-802 -682,-1160 -101,-175 -213,-370 -333,-603 -102,-182 -198,-394 -302,-573 -28,-47 -54,-103 -82,-149 -358,-597 -759,-1164 -1324,-1636 -1249,-1046 -2354,-1447 -3590,-1474l-1 0 -1 0c-1236,27 -2341,428 -3591,1474 -564,472 -965,1039 -1323,1636 -28,46 -55,102 -82,149 -105,179 -200,391 -302,573 -120,233 -232,428 -333,603 -208,358 -448,843 -682,1160 -159,214 -366,384 -736,469 148,244 510,447 849,530 -154,113 -587,93 -929,-104 255,693 806,1054 1235,1090 3,189 -390,437 -739,506 247,324 996,546 1293,503 -218,229 -324,465 -279,760 606,-361 980,29 1496,281 774,379 1669,598 2519,713 571,77 1124,101 1605,101z" style="fill:#67fd30"/>
  <path class="Head-Pig7fil10" d="M8595 11042c-58,94 -129,186 -208,277l-4 6c-120,233 -232,428 -333,603 -208,358 -448,843 -682,1160 -159,214 -366,384 -736,469 148,244 510,447 849,530 -154,113 -587,93 -929,-104 255,693 806,1054 1235,1090 3,189 -390,437 -739,506 247,324 996,546 1293,503 -218,229 -324,465 -279,760 606,-361 980,29 1496,281 774,379 1669,598 2519,713 127,17 253,31 378,44 62,5 124,10 184,15 -2326,-552 -4001,-1593 -4496,-3087 -323,-975 -154,-2267 452,-3766z" style="fill:#e21676"/>
  <path class="Head-Pig7fil84" d="M9861 9172c974,-1177 2398,-1757 3821,-1747 1423,-10 2847,570 3821,1747 -1223,-1081 -2522,-1612 -3821,-1603 -1299,-9 -2598,522 -3821,1603z" style="fill:#24bba6"/>
  <path class="Head-Pig7fil168" d="M11342 16322c-59,-17 -121,-32 -187,-46 -271,-56 -493,16 -558,-89 -80,-266 186,-712 95,-695 -209,21 -431,229 -517,138 -94,-99 -27,-600 34,-762 427,-1118 3218,-1915 2085,-3512 -196,-276 -573,-673 -894,-787 -154,-55 -336,-83 -628,-148 -272,-60 -441,-158 -91,-441 214,-174 502,-317 687,-361 365,-85 591,-64 766,31 652,349 732,1121 1548,1205 816,-84 896,-856 1548,-1205 175,-95 401,-116 766,-31 185,44 473,187 687,361 350,283 181,381 -91,441 -292,65 -474,93 -629,148 -320,114 -697,511 -893,787 -1133,1597 1658,2394 2085,3512 61,162 128,663 34,762 -87,91 -308,-117 -517,-138 -91,-17 175,429 94,695 -64,105 -287,33 -557,89 -66,14 -128,29 -188,46 -553,524 -1400,956 -2339,956 -939,0 -1786,-432 -2340,-956z" style="fill:#195185"/>
  <path class="Head-Pig7fil84" d="M15213 17846c610,-96 1204,-300 1416,-360 397,-113 784,-254 1144,-430 97,-47 194,-103 289,-158 374,-214 707,-405 1175,-176 1,-92 -14,-177 -46,-258 -44,-115 -120,-223 -222,-330 -29,-30 -28,-78 2,-106 18,-17 41,-23 62,-20 151,22 431,-32 695,-135 171,-66 334,-153 446,-253 -149,-44 -296,-115 -414,-195 -154,-106 -260,-234 -258,-353 0,-39 30,-71 68,-74l0 0c217,-18 467,-125 691,-322 155,-137 297,-317 405,-541 -120,47 -242,76 -356,88 -199,23 -376,-5 -471,-75 -34,-25 -41,-72 -16,-105 11,-15 26,-24 42,-28 169,-42 344,-114 493,-208 99,-61 185,-131 249,-205 -144,-43 -263,-101 -364,-169 -126,-86 -223,-188 -307,-301 -167,-225 -333,-529 -490,-815 -304,-554 -490,-1038 -805,-1630 377,501 498,790 738,1204 65,111 131,231 198,354 155,282 319,582 479,798 75,101 161,191 271,266 109,74 245,134 418,175 9,1 18,4 26,9 35,21 47,67 25,103 -77,127 -206,243 -358,339 -91,56 -190,106 -292,146 45,2 95,-1 148,-6 153,-18 324,-67 476,-154 19,-13 44,-17 67,-8 39,14 59,57 45,96 -122,333 -311,592 -522,779 -220,194 -466,310 -689,348 30,52 93,110 174,165 135,93 316,171 485,204l0 0c11,2 22,7 31,14 33,25 40,72 15,105 -122,160 -351,294 -594,389 -206,80 -425,132 -595,145 61,81 110,165 144,252 53,137 69,283 45,444l-1 0c-1,9 -4,18 -9,27 -22,35 -68,47 -103,26 -447,-268 -766,-85 -1126,122 -94,53 -190,109 -299,161 -369,181 -764,326 -1169,440 -159,45 -836,206 -1456,216z" style="fill:#ba35f2"/>
  <path class="Head-Pig7fil84" d="M12151 17846c-610,-96 -1204,-300 -1416,-360 -397,-113 -784,-254 -1144,-430 -97,-47 -194,-103 -289,-158 -374,-214 -707,-405 -1175,-176 -1,-92 14,-177 46,-258 44,-115 120,-223 222,-330 29,-30 27,-78 -2,-106 -18,-17 -41,-23 -63,-20 -150,22 -430,-32 -694,-135 -172,-66 -334,-153 -446,-253 148,-44 296,-115 414,-195 154,-106 260,-234 258,-353 0,-39 -31,-71 -69,-74l0 0c-216,-18 -466,-125 -690,-322 -155,-137 -297,-317 -405,-541 119,47 242,76 356,88 198,23 375,-5 471,-75 33,-25 41,-72 16,-105 -11,-15 -26,-24 -42,-28 -169,-42 -344,-114 -494,-208 -98,-61 -184,-131 -248,-205 144,-43 263,-101 364,-169 126,-86 223,-188 307,-301 167,-225 333,-529 490,-815 304,-554 490,-1038 805,-1630 -377,501 -498,790 -738,1204 -65,111 -131,231 -198,354 -155,282 -320,582 -479,798 -75,101 -161,191 -271,266 -109,74 -245,134 -419,175 -8,1 -17,4 -25,9 -35,21 -47,67 -25,103 77,127 206,243 358,339 91,56 190,106 292,146 -46,2 -95,-1 -148,-6 -153,-18 -324,-67 -476,-154 -19,-13 -44,-17 -68,-8 -38,14 -58,57 -44,96 122,333 310,592 522,779 220,194 466,310 689,348 -30,52 -93,110 -174,165 -135,93 -316,171 -486,204l0 0c-10,2 -21,7 -31,14 -32,25 -39,72 -14,105 122,160 351,294 594,389 206,80 424,132 595,145 -62,81 -110,165 -144,252 -53,137 -70,283 -45,444l1 0c1,9 4,18 9,27 21,35 67,47 103,26 447,-268 766,-85 1126,122 94,53 190,109 299,161 369,181 764,326 1168,440 160,45 837,206 1457,216z" style="fill:#45468d"/>
 </g><g id="Mouth-Pig7">
 <animateTransform additive="sum" attributeName="transform" dur="10" repeatCount="indefinite" type="translate" values="0;0 200;0;0 200;0;0 200;0;0 200;0"/>
  <metadata id="CorelCorpID_110Corel-Layer"/>
  <g id="_2991504392880">
   <path class="Mouth-Pig7fil26" d="M13682 14791c-410,3 -752,730 -1149,727 407,31 489,116 1149,119 660,-3 742,-88 1148,-119 -396,3 -739,-724 -1148,-727z" style="fill:#568235"/>
   <path class="Mouth-Pig7fil172" d="M12732 15983c373,47 576,167 950,167 373,0 577,-120 950,-167 -357,147 -581,328 -950,328 -369,0 -593,-181 -950,-328z" style="fill:#8ec064"/>
   <path class="Mouth-Pig7fil0 Mouth-Pig7str0" d="M16358 14938c-178,292 -645,610 -998,568 -192,-23 -109,-74 -332,-68 -262,7 -505,34 -806,-12 -68,-10 -423,-49 -540,-41" style="fill:#b581de"/>
   <path class="Mouth-Pig7fil0 Mouth-Pig7str0" d="M11006 14938c177,292 645,610 997,568 193,-23 110,-74 333,-68 262,7 505,34 806,-12 68,-10 423,-49 540,-41" style="fill:#d8ed2a"/>
   <path class="Mouth-Pig7fil169" d="M16202 14828c-62,77 128,145 63,338 -4,10 111,-125 122,-124 108,14 198,11 298,53 169,70 -301,-494 -483,-267z" style="fill:#d29661"/>
   <path class="Mouth-Pig7fil169" d="M11162 14828c62,77 -128,145 -63,338 3,10 -111,-125 -122,-124 -108,14 -198,11 -298,53 -170,70 300,-494 483,-267z" style="fill:#0231e0"/>
   <g>
    <g>
     <path class="Mouth-Pig7fil173 Mouth-Pig7str0" d="M11628 15246c-50,-130 -103,-321 -73,-520 56,-372 195,-333 266,-155 101,253 125,341 270,557 255,378 -303,527 -463,118z" style="fill:#de10b0"/>
     <path class="Mouth-Pig7fil10" d="M11642 15100c146,215 359,242 391,53 15,-91 140,262 53,296 -87,35 -397,58 -444,-349z" style="fill:#f9381f"/>
    </g>
    <g>
     <path class="Mouth-Pig7fil173 Mouth-Pig7str0" d="M15736 15246c50,-130 103,-321 73,-520 -56,-372 -195,-333 -266,-155 -101,253 -125,341 -270,557 -255,378 303,527 463,118z" style="fill:#b1aaed"/>
     <path class="Mouth-Pig7fil10" d="M15722 15100c-146,215 -359,242 -391,53 -15,-91 -141,262 -53,296 87,35 397,58 444,-349z" style="fill:#ef70bb"/>
    </g>
   </g>
   <path class="Mouth-Pig7fil169" d="M15270 15091c0,0 -101,234 -57,313 43,80 -1030,-10 -1030,-10 0,0 692,-337 1087,-303z" style="fill:#26bbc3"/>
   <path class="Mouth-Pig7fil169" d="M12094 15091c0,0 101,234 57,313 -43,80 1030,-10 1030,-10 0,0 -693,-337 -1087,-303z" style="fill:#057aca"/>
  </g>
 </g><g id="EyesClosed-Pig9">
 <animateTransform additive="sum" attributeName="transform" dur="10" repeatCount="indefinite" type="translate" values="0;0 200;0;0 200;0;0 200;0;0 200;0"/>
  <metadata id="CorelCorpID_134Corel-Layer"/>
  <g id="_2991533207088">
   <path class="EyesClosed-Pig9fil38" d="M17001 10300c-57,131 -516,301 -943,673 -391,341 -602,759 -809,758 -229,-1 -320,-450 -218,-710 84,-214 483,-587 984,-766 591,-211 1055,-115 986,45z"/>
   <path class="EyesClosed-Pig9fil148" d="M17001 10300c-57,131 -516,301 -943,673 -391,341 -602,759 -809,758 -229,-1 -320,-450 -218,-710 84,-214 483,-587 984,-766 591,-211 1055,-115 986,45z"/>
  </g>
  <g id="_2991533207760">
   <path class="EyesClosed-Pig9fil38" d="M10363 10300c57,131 516,301 943,673 391,341 602,759 808,758 230,-1 321,-450 219,-710 -84,-214 -484,-587 -984,-766 -591,-211 -1055,-115 -986,45z"/>
   <path class="EyesClosed-Pig9fil148" d="M10363 10300c57,131 516,301 943,673 391,341 602,759 808,758 230,-1 321,-450 219,-710 -84,-214 -484,-587 -984,-766 -591,-211 -1055,-115 -986,45z"/>
  </g>
  <path class="EyesClosed-Pig9fil84" d="M15494 13742c-74,-13 -76,-85 -9,-93 423,-50 1995,-305 2780,-832 115,-77 178,-127 267,-221 44,-46 73,-86 108,-79 108,23 30,179 9,231 -308,774 -1612,1018 -3155,994z"/>
  <path class="EyesClosed-Pig9fil84" d="M11870 13742c74,-13 76,-85 9,-93 -423,-50 -1995,-305 -2780,-832 -115,-77 -178,-127 -267,-221 -44,-46 -73,-86 -108,-79 -108,23 -30,179 -10,231 309,774 1613,1018 3156,994z"/>
 </g><g id="Eyes-Pig9">
 <animate attributeName="opacity" dur="10" repeatCount="indefinite" values="0;1;1;1;1;1;1;1;1;1;1;1;1;1;1;1;1;1;1;1;1;1;1;1;1;1;1;1;1;1;1;1;1;1;1;1;1;1;1;1;1;1;1;1;1;1;1;1;1;1;1;1;1;1;1;1;1;1;1;1;1;1;1;1;1;1;1;1;1;1;1;1;1;1;1;1;1;1;1;1;1;1;1;1;0;0"/>
 <animateTransform additive="sum" attributeName="transform" dur="10" repeatCount="indefinite" type="translate" values="0;0 200;0;0 200;0;0 200;0;0 200;0"/>
  <metadata id="CorelCorpID_135Corel-Layer"/>
  <g id="_2991533203472">
   <path class="Eyes-Pig9fil226" d="M15655 13804c-299,-174 -334,-515 -332,-844 3,-301 26,-590 135,-770 292,-480 1316,-1120 2066,-1097 264,8 486,223 707,450 286,292 409,765 421,1184 27,1046 -927,1522 -1788,1512 -481,-5 -834,-217 -1209,-435z"/>
   <path class="Eyes-Pig9fil227" d="M15666 11951c478,-293 1194,-628 1786,-792 177,78 320,206 478,396 614,737 274,1782 -186,2105 -558,391 -1354,295 -1750,20 -228,-159 -516,-447 -620,-799 -66,-224 -203,-626 292,-930z"/>
   <path class="Eyes-Pig9fil228" d="M15587 11982c172,-108 422,-343 644,-453 269,-133 502,-184 783,-285 529,192 905,785 766,1396 -368,1617 -2500,823 -2199,-500 78,-346 -15,-105 6,-158z"/>
   <path class="Eyes-Pig9fil148" d="M15365 13403c-125,-545 -37,-1050 141,-1331 224,-354 726,-586 1223,-774 376,-142 765,-303 1090,-101 239,149 598,539 707,836 93,255 151,667 114,933 -127,-464 -335,-887 -586,-1073 -489,-364 -2028,213 -2396,648 -221,263 -286,407 -293,862z"/>
   <g>
    <circle class="Eyes-Pig9fil173" r="235" transform="matrix(-0.127023 2.18149 1.98577 0.284037 17238.7 11929.4)"/>
    <circle class="Eyes-Pig9fil173" r="235" transform="matrix(-0.686977 0.523683 0.42619 0.668712 18124.5 13261.3)"/>
    <circle class="Eyes-Pig9fil173" r="235" transform="matrix(-0.252399 0.323889 0.276862 0.255805 18358.4 12924)"/>
   </g>
   <path class="Eyes-Pig9fil0 Eyes-Pig9str0" d="M15497 13682c98,115 513,326 647,387 1118,511 2466,-181 2507,-1257 22,-583 -346,-1434 -907,-1655 -364,-143 -1162,140 -1739,505 -402,254 -554,459 -624,718 -83,309 -113,1035 116,1302z"/>
  </g>
  <g id="_2991533200240">
   <path class="Eyes-Pig9fil229" d="M11709 13804c299,-174 334,-515 331,-844 -2,-301 -25,-590 -134,-770 -292,-480 -1316,-1120 -2066,-1097 -264,8 -486,223 -707,450 -286,292 -410,765 -421,1184 -28,1046 927,1522 1788,1512 481,-5 834,-217 1209,-435z"/>
   <path class="Eyes-Pig9fil230" d="M11698 11951c-478,-293 -1194,-628 -1786,-792 -177,78 -320,206 -478,396 -615,737 -274,1782 186,2105 558,391 1354,295 1750,20 228,-159 516,-447 620,-799 66,-224 203,-626 -292,-930z"/>
   <path class="Eyes-Pig9fil231" d="M11777 11982c-172,-108 -423,-343 -644,-453 -269,-133 -502,-184 -783,-285 -529,192 -905,785 -766,1396 367,1617 2500,823 2199,-500 -78,-346 14,-105 -6,-158z"/>
   <path class="Eyes-Pig9fil148" d="M11999 13403c124,-545 37,-1050 -141,-1331 -224,-354 -726,-586 -1223,-774 -376,-142 -766,-303 -1091,-101 -238,149 -597,539 -706,836 -93,255 -151,667 -114,933 126,-464 335,-887 586,-1073 489,-364 2028,213 2395,648 222,263 287,407 294,862z"/>
   <g>
    <circle class="Eyes-Pig9fil173" r="235" transform="matrix(0.127023 2.18149 -1.98577 0.284037 10125.1 11929.4)"/>
    <circle class="Eyes-Pig9fil173" r="235" transform="matrix(0.686977 0.523683 -0.42619 0.668712 9239.4 13261.3)"/>
    <circle class="Eyes-Pig9fil173" r="235" transform="matrix(0.252399 0.323889 -0.276862 0.255805 9005.45 12924)"/>
   </g>
   <path class="Eyes-Pig9fil0 Eyes-Pig9str0" d="M11867 13682c-98,115 -513,326 -647,387 -1118,511 -2467,-181 -2507,-1257 -22,-583 346,-1434 907,-1655 364,-143 1162,140 1739,505 402,254 554,459 624,718 83,309 113,1035 -116,1302z"/>
  </g>
 </g><g id="Moustache-Pig1">
 <animateTransform additive="sum" attributeName="transform" dur="10" repeatCount="indefinite" type="translate" values="0;0 200;0;0 200;0;0 200;0;0 200;0"/>
  <metadata id="CorelCorpID_137Corel-Layer"/>
  <path class="Moustache-Pig1fil232" d="M10077 15078c42,-22 90,-9 110,27 19,37 1,84 -40,106 -84,44 -203,95 -353,100 81,-111 200,-189 283,-233zm-109 971c36,-30 86,-28 113,4 26,32 19,82 -17,111 -73,61 -179,136 -324,171 56,-125 155,-226 228,-286zm-235 -495c38,-26 88,-18 111,17 22,35 9,83 -30,108 -79,52 -193,115 -341,133 70,-117 180,-207 260,-258zm-200 -567c42,-19 90,-3 107,35 17,38 -4,83 -47,102 -86,38 -209,82 -358,76 88,-105 211,-175 298,-213zm790 1509c31,-34 82,-38 112,-10 30,29 29,79 -3,113 -65,69 -160,157 -300,210 40,-131 126,-244 191,-313zm923 597c23,-41 70,-58 106,-38 37,20 48,69 26,110 -46,83 -116,192 -239,278 7,-136 62,-267 107,-350zm821 249c14,-45 57,-70 97,-58 40,12 60,58 46,103 -28,90 -76,211 -179,319 -21,-135 8,-274 36,-364zm-447 -91c14,-44 56,-71 96,-59 40,12 61,58 48,102 -27,91 -73,212 -175,322 -22,-135 4,-274 31,-365zm-466 -564c25,-40 74,-53 109,-31 35,22 43,72 18,111 -51,80 -128,184 -256,262 15,-135 79,-263 129,-342zm-353 -372c27,-37 77,-47 110,-22 33,24 38,74 10,112 -56,76 -141,174 -273,243 24,-134 97,-257 153,-333zm-265 -383c34,-33 84,-35 113,-5 29,29 25,80 -8,112 -67,66 -167,150 -309,197 46,-129 137,-238 204,-304zm-226 -433c40,-23 89,-13 110,22 21,36 6,84 -34,107 -82,48 -199,105 -348,116 76,-113 190,-197 272,-245zm937 650c25,-38 74,-51 108,-28 35,23 42,73 17,111 -52,79 -132,182 -261,258 18,-136 83,-262 136,-341zm344 340c17,-43 62,-65 100,-50 39,15 56,62 40,105 -35,88 -91,205 -201,307 -11,-136 26,-274 61,-362zm381 268c14,-44 57,-70 97,-58 39,13 60,59 46,103 -29,90 -76,211 -179,319 -21,-135 7,-274 36,-364zm399 183c8,-46 48,-77 88,-70 41,7 68,50 60,96 -17,93 -49,219 -137,340 -38,-132 -28,-273 -11,-366zm409 88c7,-46 45,-78 86,-73 41,6 69,48 63,94 -13,93 -40,220 -123,345 -43,-130 -38,-272 -26,-366zm408 56c0,-47 34,-84 75,-84 41,0 75,37 75,84 0,94 -9,224 -75,358 -60,-122 -75,-264 -75,-358zm232 476c0,-46 34,-84 75,-84 42,0 75,38 75,84 0,95 -9,225 -75,359 -60,-123 -75,-264 -75,-359zm-915 -96c8,-45 48,-77 89,-69 40,7 67,50 59,95 -17,93 -48,219 -136,340 -38,-131 -28,-273 -12,-366zm453 36c6,-46 44,-79 85,-73 42,5 70,47 63,93 -12,94 -39,221 -123,345 -43,-129 -38,-271 -25,-365zm-2226 -673c26,-38 75,-50 109,-26 34,23 40,73 14,111 -54,78 -136,179 -266,252 20,-135 89,-260 143,-337zm6554 -1749c-41,-22 -90,-9 -109,27 -19,37 -1,84 40,106 84,44 203,95 352,100 -80,-111 -199,-189 -283,-233zm110 971c-36,-30 -87,-28 -113,4 -26,32 -19,82 17,111 73,61 179,136 324,171 -56,-125 -156,-226 -228,-286zm235 -495c-39,-26 -88,-18 -111,17 -23,35 -9,83 29,108 80,52 193,115 342,133 -70,-117 -180,-207 -260,-258zm200 -567c-43,-19 -90,-3 -107,35 -17,38 4,83 47,102 86,38 208,82 358,76 -88,-105 -212,-175 -298,-213zm-790 1509c-32,-34 -82,-38 -112,-10 -30,29 -29,79 3,113 64,69 160,157 300,210 -40,-131 -126,-244 -191,-313zm-923 597c-23,-41 -70,-58 -106,-38 -37,20 -48,69 -26,110 46,83 116,192 239,278 -7,-136 -62,-267 -107,-350zm-821 249c-14,-45 -58,-70 -97,-58 -40,12 -60,58 -46,103 28,90 76,211 179,319 20,-135 -8,-274 -36,-364zm447 -91c-14,-44 -57,-71 -96,-59 -40,12 -61,58 -48,102 27,91 73,212 175,322 22,-135 -4,-274 -31,-365zm466 -564c-25,-40 -74,-53 -109,-31 -35,22 -43,72 -18,111 51,80 128,184 255,262 -14,-135 -78,-263 -128,-342zm353 -372c-28,-37 -77,-47 -110,-22 -34,24 -38,74 -10,112 56,76 141,174 273,243 -24,-134 -97,-257 -153,-333zm264 -383c-33,-33 -83,-35 -112,-5 -29,29 -26,80 8,112 67,66 167,150 309,197 -46,-129 -137,-238 -205,-304zm227 -433c-40,-23 -90,-13 -110,22 -21,36 -6,84 34,107 82,48 199,105 348,116 -76,-113 -190,-197 -272,-245zm-3372 1526c41,0 75,38 75,84 0,95 -15,236 -75,359l0 0 0 0c-60,-123 -75,-264 -75,-359 0,-46 34,-84 75,-84zm2435 -876c-25,-38 -74,-51 -109,-28 -34,23 -41,73 -16,111 52,79 132,182 261,258 -18,-136 -84,-262 -136,-341zm-344 340c-17,-43 -62,-65 -100,-50 -39,15 -57,62 -40,105 35,88 91,205 201,307 11,-136 -27,-274 -61,-362zm-381 268c-14,-44 -57,-70 -97,-58 -39,13 -60,59 -46,103 28,90 76,211 179,319 21,-135 -7,-274 -36,-364zm-399 183c-8,-46 -48,-77 -89,-70 -40,7 -67,50 -59,96 17,93 48,219 136,340 38,-132 28,-273 12,-366zm-410 88c-6,-46 -44,-78 -85,-73 -41,6 -69,48 -63,94 13,93 40,220 123,345 43,-130 38,-272 25,-366zm-407 56c0,-47 -34,-84 -75,-84 -42,0 -75,37 -75,84 0,94 9,224 75,358 60,-122 75,-264 75,-358zm-232 476c0,-46 -34,-84 -75,-84 -42,0 -75,38 -75,84 0,95 9,225 75,359 60,-123 75,-264 75,-359zm915 -96c-8,-45 -48,-77 -89,-69 -40,7 -67,50 -59,95 17,93 48,219 136,340 38,-131 28,-273 12,-366zm-453 36c-6,-46 -45,-79 -86,-73 -41,5 -69,47 -63,93 13,94 40,221 123,345 43,-129 39,-271 26,-365zm2226 -673c-26,-38 -76,-50 -110,-26 -34,23 -40,73 -13,111 54,78 136,179 266,252 -20,-135 -89,-260 -143,-337z" style="fill:#034b67"/>
 </g><g id="Nose-Pig6">
 <animateTransform additive="sum" attributeName="transform" dur="10" repeatCount="indefinite" type="translate" values="0;0 200;0;0 200;0;0 200;0;0 200;0"/>
  <metadata id="CorelCorpID_147Corel-Layer"/>
  <g id="_2991533224368">
   <path class="Nose-Pig6fil244 Nose-Pig6str0" d="M15270 14963c0,-1041 -1142,-1152 -1588,-1883 -446,731 -1588,842 -1588,1883 0,708 795,391 1588,392 795,1 1588,318 1588,-392z" style="fill:#931d92"/>
   <g>
    <path class="Nose-Pig6fil26 Nose-Pig6str3" d="M14614 14852c-125,28 -305,-100 -404,-285 -98,-185 -77,-357 48,-384 124,-27 305,100 403,285 98,185 77,357 -47,384z" style="fill:#ab47be"/>
    <path class="Nose-Pig6fil237 Nose-Pig6str3" d="M14614 14852c-125,28 -305,-100 -404,-285 -98,-185 -77,-357 48,-384 124,-27 305,100 403,285 98,185 77,357 -47,384z" style="fill:#215565"/>
   </g>
   <g>
    <path class="Nose-Pig6fil26 Nose-Pig6str3" d="M12750 14852c125,28 305,-100 403,-285 99,-185 78,-357 -47,-384 -124,-27 -305,100 -403,285 -98,185 -77,357 47,384z" style="fill:#4522ee"/>
    <path class="Nose-Pig6fil237 Nose-Pig6str3" d="M12750 14852c125,28 305,-100 403,-285 99,-185 78,-357 -47,-384 -124,-27 -305,100 -403,285 -98,185 -77,357 47,384z" style="fill:#cf1dd7"/>
   </g>
  </g>
 </g><g id="Hair-Pig1">
 <animateTransform additive="sum" attributeName="transform" dur="10" repeatCount="indefinite" type="translate" values="0;0 200;0;0 200;0;0 200;0;0 200;0"/>
  <metadata id="CorelCorpID_149Corel-Layer"/>
  <path class="Hair-Pig1fil245" d="M12287 5991c0,0 -179,589 15,822 -16,-449 384,-1644 1646,-1837 -213,188 -329,348 -395,502 -241,564 -43,914 149,912 291,-4 681,-650 392,-1234 563,346 766,952 647,1530 357,-279 372,-735 190,-1165 766,703 1480,1965 1102,2746 -177,366 -853,627 -1404,673 0,0 311,-381 311,-550 -433,157 -975,437 -1012,1217 -1027,-431 -743,-845 -1368,-1244 0,0 -5,254 205,677 -612,-49 -1420,-456 -1599,-914 -297,-763 313,-1711 1121,-2135z" style="fill:#f5afbb"/>
  <path class="Hair-Pig1fil10" d="M12237 6071c-746,411 -1402,1527 -935,2276 304,362 952,652 1463,693 -210,-423 -205,-677 -205,-677 619,396 347,805 1339,1231 -553,-531 -1080,-1478 -1218,-2181 -170,-862 152,-1874 1161,-2384 42,-21 -66,-18 -232,28 -372,125 -650,344 -853,592 -198,341 -341,631 -431,910 -19,98 -26,185 -24,254 -12,-15 -23,-32 -33,-50 -99,429 -73,854 71,1424 -943,-507 -570,-1495 -103,-2116z" style="fill:#90bd41"/>
  <path class="Hair-Pig1fil246" d="M14209 5233c121,282 330,917 22,1727 -506,1332 -615,1591 -304,2646l1 1c37,-780 579,-1060 1012,-1217 0,169 -311,550 -311,550 -4,5 1554,-726 1368,-1801 -8,-45 -17,-90 -27,-135 -211,-532 -597,-1067 -1003,-1448 415,739 706,2100 -588,2747 195,-379 409,-1311 388,-1639 -4,4 12,-482 -89,-819 -95,-314 -347,-514 -469,-612z" style="fill:#082fba"/>
  <path class="Hair-Pig1fil0 Hair-Pig1str0" d="M11172 8153c-297,-763 307,-1738 1115,-2162 0,0 -179,589 15,822 -16,-449 384,-1644 1646,-1837 -213,188 -329,348 -395,502 -241,564 -43,914 149,912 291,-4 681,-650 392,-1234 563,346 766,952 647,1530 357,-279 372,-735 190,-1165 720,660 1413,1803 1180,2588" style="fill:#31588d"/>
 </g></svg>