<svg xmlns="http://www.w3.org/2000/svg" xmlns:xlink="http://www.w3.org/1999/xlink" style="shape-rendering:geometricPrecision; text-rendering:geometricPrecision; image-rendering:optimizeQuality; fill-rule:evenodd; clip-rule:evenodd" version="1.1" viewBox="0 0 29000 29000" xml:space="preserve"><defs><style type="text/css">.BraceletSteel-Mediumfil57new {fill:url(#BraceletSteel-Mediumid666new);fill-rule:nonzero}
.BraceletSteel-Mediumstr4new {stroke:black;stroke-width:100}
.BraceletSteel-Mediumfil58new {fill:url(#BraceletSteel-Mediumid686new);fill-rule:nonzero}
.NecklaceYinYangfil225new {fill:url(#NecklaceYinYangid676new);fill-rule:nonzero}
.NecklaceYinYangfil46new {fill:white;fill-rule:nonzero;fill-opacity:0.200000}
.NecklaceYinYangfil84new {fill:black}
.NecklaceYinYangfil83new {fill:white}
.NecklaceYinYangfil47new {fill:none;fill-rule:nonzero}
.NecklaceYinYangstr4new {stroke:black;stroke-width:100}
.NecklaceYinYangfil226new {fill:url(#NecklaceYinYangid677new);fill-rule:nonzero}
.NecklaceYinYangstr3new {stroke:black;stroke-width:100;stroke-linecap:round;stroke-linejoin:round}
.NecklaceYinYangfil227new {fill:url(#NecklaceYinYangid669new);fill-rule:nonzero}
.NecklaceYinYangfil228new {fill:url(#NecklaceYinYangid705new);fill-rule:nonzero}
.NecklaceYinYangfil229new {fill:url(#NecklaceYinYangid685new);fill-rule:nonzero}
.NecklaceYinYangfil230new {fill:url(#NecklaceYinYangid101new)}
.HatG-Mediumfil14new {fill:black;fill-opacity:0.200000}
.HatG-Mediumfil635new {fill:url(#HatG-Mediumid47new)}
.HatG-Mediumfil636new {fill:url(#HatG-Mediumid218new)}
.HatG-Mediumfil637new {fill:url(#HatG-Mediumid49new)}
.HatG-Mediumfil638new {fill:url(#HatG-Mediumid170new)}
.HatG-Mediumfil640new {fill:url(#HatG-Mediumid3new)}
.HatG-Mediumfil641new {fill:url(#HatG-Mediumid56new)}
.HatG-Mediumfil33new {fill:none}
.HatG-Mediumstr0new {stroke:black;stroke-width:150;stroke-linecap:round;stroke-linejoin:round}
.HatG-Mediumfil639new {fill:none}
.HatG-Mediumstr19new {stroke:black;stroke-width:100;stroke-opacity:0.101961}
.HatG-Mediumstr20new {stroke:black;stroke-width:75;stroke-linecap:round;stroke-linejoin:round;stroke-dasharray:150.000000 225.000000;stroke-opacity:0.101961}
.HatG-Mediumstr6new {stroke:black;stroke-width:150}
.AccessoryWaterHydrantfil32 {fill:#FF9E9E;fill-opacity:0.501961}
.AccessoryWaterHydrantfil35 {fill:black;fill-opacity:0.400000}
.AccessoryWaterHydrantfil25 {fill:url(#AccessoryWaterHydrantid35)}
.AccessoryWaterHydrantstr2 {stroke:black;stroke-width:150;stroke-linecap:round}
.AccessoryWaterHydrantfil26 {fill:url(#AccessoryWaterHydrantid50)}
.AccessoryWaterHydrantfil27 {fill:url(#AccessoryWaterHydrantid32)}
.AccessoryWaterHydrantfil28 {fill:url(#AccessoryWaterHydrantid74)}
.AccessoryWaterHydrantfil29 {fill:url(#AccessoryWaterHydrantid66)}
.AccessoryWaterHydrantfil30 {fill:url(#AccessoryWaterHydrantid34)}
.AccessoryWaterHydrantfil31 {fill:url(#AccessoryWaterHydrantid70)}
.AccessoryWaterHydrantstr3 {stroke:black;stroke-width:150;stroke-linecap:round;stroke-linejoin:round}
.AccessoryWaterHydrantfil2 {fill:none}
.AccessoryWaterHydrantstr4 {stroke:black;stroke-width:150}
.AccessoryWaterHydrantfil33 {fill:url(#AccessoryWaterHydrantid38)}
.AccessoryWaterHydrantfil34 {fill:url(#AccessoryWaterHydrantid57)}
.AccessoryWaterHydrantfil36 {fill:url(#AccessoryWaterHydrantid60)}
.AccessoryWaterHydrantfil37 {fill:url(#AccessoryWaterHydrantid54)}
.AccessoryWaterHydrantfil38 {fill:url(#AccessoryWaterHydrantid58)}
.AccessoryWaterHydrantfil39 {fill:none}
.AccessoryWaterHydrantstr5 {stroke:black;stroke-width:150;stroke-opacity:0.400000}
.AccessoryWaterHydrantfil40 {fill:url(#AccessoryWaterHydrantid68)}
.AccessoryWaterHydrantstr1 {stroke:black;stroke-width:150}
.AccessoryWaterHydrantstr6 {stroke:black;stroke-width:400;stroke-linecap:round;stroke-linejoin:round;stroke-opacity:0.400000}
.HairBack-Pig0fil0 {fill:none}
.Tail-Pig4fil10 {fill:black;fill-opacity:0.200000}
.Tail-Pig4fil33 {fill:url(#Tail-Pig4id131)}
.Tail-Pig4fil30 {fill:black;fill-rule:nonzero}
.Tail-Pig4fil26 {fill:black;fill-opacity:0.301961}
.Tail-Pig4fil32 {fill:url(#Tail-Pig4id167)}
.Tail-Pig4str0 {stroke:black;stroke-width:150;stroke-linecap:round;stroke-linejoin:round}
.Tail-Pig4fil34 {fill:url(#Tail-Pig4id149)}
.Tail-Pig4str1 {stroke:black;stroke-width:150}
.RightFoot-Pig0fil37 {fill:#ffc89c}
.RightFoot-Pig0fil38 {fill:#332822}
.RightFoot-Pig0fil39 {fill:url(#RightFoot-Pig0id227)}
.RightFoot-Pig0fil40 {fill:black}
.RightFoot-Pig0fil10 {fill:black;fill-opacity:0.200000}
.RightFoot-Pig0fil0 {fill:none}
.RightFoot-Pig0str2 {stroke:black;stroke-width:150;stroke-linecap:round;stroke-linejoin:round}
.RightLeg-Pig0fil52 {fill:url(#RightLeg-Pig0id37)}
.RightLeg-Pig0fil10 {fill:black;fill-opacity:0.200000}
.RightLeg-Pig0fil0 {fill:none}
.RightLeg-Pig0str2 {stroke:black;stroke-width:150;stroke-linecap:round;stroke-linejoin:round}
.LeftFoot-Pig0fil37 {fill:#ffc89c}
.LeftFoot-Pig0fil38 {fill:#332822}
.LeftFoot-Pig0fil57 {fill:url(#LeftFoot-Pig0id220)}
.LeftFoot-Pig0fil40 {fill:black}
.LeftFoot-Pig0fil10 {fill:black;fill-opacity:0.200000}
.LeftFoot-Pig0fil0 {fill:none}
.LeftFoot-Pig0str2 {stroke:black;stroke-width:150;stroke-linecap:round;stroke-linejoin:round}
.LeftLeg-Pig0fil62 {fill:url(#LeftLeg-Pig0id49)}
.LeftLeg-Pig0fil10 {fill:black;fill-opacity:0.200000}
.LeftLeg-Pig0fil0 {fill:none}
.LeftLeg-Pig0str2 {stroke:black;stroke-width:150;stroke-linecap:round;stroke-linejoin:round}
.RightHand-Pig0fil68 {fill:url(#RightHand-Pig0id57)}
.RightHand-Pig0fil10 {fill:black;fill-opacity:0.200000}
.RightHand-Pig0fil0 {fill:none}
.RightHand-Pig0str0 {stroke:black;stroke-width:150;stroke-linecap:round;stroke-linejoin:round}
.RightPaw-Pig0fil74 {fill:url(#RightPaw-Pig0id25)}
.RightPaw-Pig0fil10 {fill:black;fill-opacity:0.200000}
.RightPaw-Pig0fil75 {fill:url(#RightPaw-Pig0id217)}
.RightPaw-Pig0fil40 {fill:black}
.RightPaw-Pig0fil0 {fill:none}
.RightPaw-Pig0str2 {stroke:black;stroke-width:150;stroke-linecap:round;stroke-linejoin:round}
.LeftHand-Pig0fil79 {fill:url(#LeftHand-Pig0id22)}
.LeftHand-Pig0fil10 {fill:black;fill-opacity:0.200000}
.LeftHand-Pig0fil0 {fill:none}
.LeftHand-Pig0str0 {stroke:black;stroke-width:150;stroke-linecap:round;stroke-linejoin:round}
.Body-Pig3fil83 {fill:url(#Body-Pig3id42)}
.Body-Pig3fil88 {fill:url(#Body-Pig3id33)}
.Body-Pig3fil10 {fill:black;fill-opacity:0.200000}
.Body-Pig3fil84 {fill:black;fill-rule:nonzero}
.Body-Pig3fil30 {fill:black;fill-rule:nonzero}
.LeftPaw-Pig0fil91 {fill:url(#LeftPaw-Pig0id70)}
.LeftPaw-Pig0fil10 {fill:black;fill-opacity:0.200000}
.LeftPaw-Pig0fil92 {fill:url(#LeftPaw-Pig0id209)}
.LeftPaw-Pig0fil40 {fill:black}
.LeftPaw-Pig0fil0 {fill:none}
.LeftPaw-Pig0str2 {stroke:black;stroke-width:150;stroke-linecap:round;stroke-linejoin:round}
.Head-Pig7fil167 {fill:url(#Head-Pig7id173)}
.Head-Pig7fil10 {fill:black;fill-opacity:0.200000}
.Head-Pig7fil84 {fill:black;fill-rule:nonzero}
.Head-Pig7fil168 {fill:url(#Head-Pig7id30)}
.Mouth-Pig7fil26 {fill:black;fill-opacity:0.301961}
.Mouth-Pig7fil172 {fill:black;fill-rule:nonzero;fill-opacity:0.200000}
.Mouth-Pig7fil169 {fill:black}
.Mouth-Pig7fil10 {fill:black;fill-opacity:0.200000}
.Mouth-Pig7fil0 {fill:none}
.Mouth-Pig7str0 {stroke:black;stroke-width:150;stroke-linecap:round;stroke-linejoin:round}
.Mouth-Pig7fil173 {fill:white}
.EyesClosed-Pig7fil38 {fill:#332822}
.EyesClosed-Pig7fil10 {fill:black;fill-opacity:0.200000}
.EyesClosed-Pig7fil84 {fill:black;fill-rule:nonzero}
.Eyes-Pig7fil197 {fill:url(#Eyes-Pig7id164)}
.Eyes-Pig7fil215 {fill:url(#Eyes-Pig7id207)}
.Eyes-Pig7fil216 {fill:url(#Eyes-Pig7id109)}
.Eyes-Pig7fil148 {fill:black;fill-opacity:0.501961}
.Eyes-Pig7fil173 {fill:white}
.Eyes-Pig7fil200 {fill:url(#Eyes-Pig7id179)}
.Eyes-Pig7fil217 {fill:url(#Eyes-Pig7id208)}
.Eyes-Pig7fil218 {fill:url(#Eyes-Pig7id113)}
.Eyes-Pig7fil0 {fill:none}
.Eyes-Pig7str0 {stroke:black;stroke-width:150;stroke-linecap:round;stroke-linejoin:round}
.Moustache-Pig0fil0 {fill:none}
.Nose-Pig0fil236 {fill:url(#Nose-Pig0id201)}
.Nose-Pig0str0 {stroke:black;stroke-width:150;stroke-linecap:round;stroke-linejoin:round}
.Nose-Pig0fil26 {fill:black;fill-opacity:0.301961}
.Nose-Pig0str3 {stroke:black;stroke-width:150;stroke-linecap:round;stroke-linejoin:round;stroke-opacity:0.301961}
.Nose-Pig0fil237 {fill:none}
</style><linearGradient gradientUnits="userSpaceOnUse" id="BraceletSteel-Mediumid666new" x1="8808.47" x2="10149.2" xlink:href="#BraceletSteel-Mediumid663new" y1="19708.3" y2="20807.9">
  </linearGradient><linearGradient gradientUnits="userSpaceOnUse" id="BraceletSteel-Mediumid686new" x1="18555.4" x2="17214.7" xlink:href="#BraceletSteel-Mediumid663new" y1="19708.3" y2="20807.9">
  </linearGradient><linearGradient gradientUnits="userSpaceOnUse" id="NecklaceYinYangid676new" x1="13681.9" x2="13681.9" xlink:href="#NecklaceYinYangid669new" y1="17208" y2="20390.5">
  </linearGradient><linearGradient gradientUnits="userSpaceOnUse" id="NecklaceYinYangid677new" x1="11189" x2="11399.5" xlink:href="#NecklaceYinYangid669new" y1="18603.5" y2="18002.2">
  </linearGradient><linearGradient gradientUnits="userSpaceOnUse" id="NecklaceYinYangid705new" x1="16170.9" x2="15961.3" xlink:href="#NecklaceYinYangid669new" y1="18602.8" y2="18004">
  </linearGradient><linearGradient gradientUnits="userSpaceOnUse" id="NecklaceYinYangid685new" x1="15099" x2="14900.7" xlink:href="#NecklaceYinYangid669new" y1="19895.5" y2="19273.3">
  </linearGradient><linearGradient gradientUnits="userSpaceOnUse" id="NecklaceYinYangid101new" x1="13681.9" x2="13681.9" y1="20483.4" y2="19943.6">
   <stop offset="0" style="stop-opacity:1; stop-color:#2B2A29"/>
   <stop offset="1" style="stop-opacity:1; stop-color:#fff5f1"/>
  </linearGradient><linearGradient gradientUnits="userSpaceOnUse" id="HatG-Mediumid47new" x1="8773.38" x2="12925.9" y1="10563.5" y2="5372.75">
   <stop offset="0" style="stop-opacity:1; stop-color:#CCCCD0"/>
   <stop offset="1" style="stop-opacity:1; stop-color:#F2F2F6"/>
  </linearGradient><linearGradient gradientUnits="userSpaceOnUse" id="HatG-Mediumid218new" x1="7703.58" x2="9238.2" xlink:href="#HatG-Mediumid170new" y1="10639.8" y2="6826.5">
  </linearGradient><linearGradient gradientUnits="userSpaceOnUse" id="HatG-Mediumid49new" x1="14578.6" x2="18656.5" y1="10035.4" y2="5357.8">
   <stop offset="0" style="stop-opacity:1; stop-color:#DBDBE0"/>
   <stop offset="0.74902" style="stop-opacity:1; stop-color:white"/>
   <stop offset="1" style="stop-opacity:1; stop-color:white"/>
  </linearGradient><linearGradient gradientUnits="userSpaceOnUse" id="HatG-Mediumid3new" x1="13755" x2="13755" y1="9815.97" y2="13088.5">
   <stop offset="0" style="stop-opacity:1; stop-color:#15153B"/>
   <stop offset="1" style="stop-opacity:1; stop-color:#080814"/>
  </linearGradient><linearGradient gradientUnits="userSpaceOnUse" id="HatG-Mediumid56new" x1="20387.5" x2="7122.61" y1="10226.4" y2="11933.8">
   <stop offset="0" style="stop-opacity:1; stop-color:#6666CC"/>
   <stop offset="1" style="stop-opacity:1; stop-color:#3D3B78"/>
  </linearGradient><linearGradient gradientUnits="userSpaceOnUse" id="AccessoryWaterHydrantid35" x1="1412.61" x2="1346.62" y1="21900.7" y2="21420.5">
   <stop offset="0" style="stop-opacity:1; stop-color:#C79191"/>
   <stop offset="0.490196" style="stop-opacity:1; stop-color:#8C7777"/>
   <stop offset="1" style="stop-opacity:1; stop-color:#EDCFCE"/>
  </linearGradient><linearGradient gradientUnits="userSpaceOnUse" id="AccessoryWaterHydrantid50" x1="1822.86" x2="1822.86" xlink:href="#AccessoryWaterHydrantid32" y1="22158.9" y2="21162.2">
  </linearGradient><linearGradient gradientUnits="userSpaceOnUse" id="AccessoryWaterHydrantid74" x1="5820.44" x2="5754.45" xlink:href="#AccessoryWaterHydrantid35" y1="21900.7" y2="21420.5">
  </linearGradient><linearGradient gradientUnits="userSpaceOnUse" id="AccessoryWaterHydrantid66" x1="5344.2" x2="5344.2" xlink:href="#AccessoryWaterHydrantid32" y1="22158.9" y2="21162.2">
  </linearGradient><linearGradient gradientUnits="userSpaceOnUse" id="AccessoryWaterHydrantid34" x1="5014.59" x2="5014.59" xlink:href="#AccessoryWaterHydrantid32" y1="22521" y2="20800.2">
  </linearGradient><linearGradient gradientUnits="userSpaceOnUse" id="AccessoryWaterHydrantid70" x1="1577.12" x2="5765.73" xlink:href="#AccessoryWaterHydrantid57" y1="25128.7" y2="25128.7">
  </linearGradient><linearGradient gradientUnits="userSpaceOnUse" id="AccessoryWaterHydrantid38" x1="3236.42" x2="4106.43" y1="17865.7" y2="17865.7">
   <stop offset="0" style="stop-opacity:1; stop-color:#DF302F"/>
   <stop offset="0.278431" style="stop-opacity:1; stop-color:#860203"/>
   <stop offset="0.560784" style="stop-opacity:1; stop-color:#A61514"/>
   <stop offset="0.780392" style="stop-opacity:1; stop-color:#FF8C96"/>
   <stop offset="1" style="stop-opacity:1; stop-color:#D9342E"/>
  </linearGradient><linearGradient gradientUnits="userSpaceOnUse" id="AccessoryWaterHydrantid60" x1="1709.43" x2="5633.42" xlink:href="#AccessoryWaterHydrantid57" y1="19824.4" y2="19824.4">
  </linearGradient><linearGradient gradientUnits="userSpaceOnUse" id="AccessoryWaterHydrantid54" x1="2866.92" x2="4475.93" xlink:href="#AccessoryWaterHydrantid32" y1="22066.7" y2="21218.5">
  </linearGradient><linearGradient gradientUnits="userSpaceOnUse" id="AccessoryWaterHydrantid58" x1="3278.19" x2="4064.66" xlink:href="#AccessoryWaterHydrantid32" y1="21849.9" y2="21435.3">
  </linearGradient><linearGradient gradientUnits="userSpaceOnUse" id="AccessoryWaterHydrantid68" x1="3485.88" x2="3856.97" y1="21740.4" y2="21544.8">
   <stop offset="0" style="stop-opacity:1; stop-color:#C79191"/>
   <stop offset="0.670588" style="stop-opacity:1; stop-color:#8C7777"/>
   <stop offset="1" style="stop-opacity:1; stop-color:#EDCFCE"/>
  </linearGradient><linearGradient gradientUnits="userSpaceOnUse" id="Tail-Pig4id131" x1="16818.1" x2="18132.1" xlink:href="#Tail-Pig4id94" y1="24163.1" y2="22966.9">
  </linearGradient><linearGradient gradientUnits="userSpaceOnUse" id="Tail-Pig4id167" x1="19588.7" x2="18835.7" xlink:href="#Tail-Pig4id5" y1="20715.4" y2="23880.9">
  </linearGradient><linearGradient gradientUnits="userSpaceOnUse" id="Tail-Pig4id149" x1="13985.9" x2="17433.3" xlink:href="#Tail-Pig4id94" y1="23274.1" y2="22920.4">
  </linearGradient><linearGradient gradientUnits="objectBoundingBox" id="RightFoot-Pig0id227" x1="49.9997%" x2="49.9997%" xlink:href="#RightFoot-Pig0id0" y1="100%" y2="0%">
  </linearGradient><linearGradient gradientUnits="objectBoundingBox" id="RightLeg-Pig0id37" x1="50%" x2="50%" xlink:href="#RightLeg-Pig0id2" y1="100%" y2="0%">
  </linearGradient><linearGradient gradientUnits="objectBoundingBox" id="LeftFoot-Pig0id220" x1="50.0003%" x2="50.0003%" xlink:href="#LeftFoot-Pig0id0" y1="100%" y2="0%">
  </linearGradient><linearGradient gradientUnits="objectBoundingBox" id="LeftLeg-Pig0id49" x1="50%" x2="50%" xlink:href="#LeftLeg-Pig0id2" y1="100%" y2="0%">
  </linearGradient><linearGradient gradientUnits="objectBoundingBox" id="RightHand-Pig0id57" x1="30.1244%" x2="69.8756%" xlink:href="#RightHand-Pig0id22" y1="2.32158%" y2="97.6784%">
  </linearGradient><linearGradient gradientUnits="objectBoundingBox" id="RightPaw-Pig0id25" x1="81.8832%" x2="18.1168%" y1="89.1977%" y2="10.8018%">
   <stop offset="0" style="stop-opacity:1; stop-color:#cc8a54"/>
   <stop offset="0.619608" style="stop-opacity:1; stop-color:#f3ac70"/>
   <stop offset="1" style="stop-opacity:1; stop-color:#f3ac70"/>
  </linearGradient><linearGradient gradientUnits="objectBoundingBox" id="RightPaw-Pig0id217" x1="50%" x2="50%" xlink:href="#RightPaw-Pig0id0" y1="100%" y2="0%">
  </linearGradient><linearGradient gradientUnits="objectBoundingBox" id="LeftHand-Pig0id22" x1="69.8756%" x2="30.1244%" y1="2.32158%" y2="97.6784%">
   <stop offset="0" style="stop-opacity:1; stop-color:#cc8a54"/>
   <stop offset="0.0196078" style="stop-opacity:1; stop-color:#cc8a54"/>
   <stop offset="0.921569" style="stop-opacity:1; stop-color:#f3ac70"/>
   <stop offset="1" style="stop-opacity:1; stop-color:#f3ac70"/>
  </linearGradient><linearGradient gradientUnits="objectBoundingBox" id="Body-Pig3id42" x1="50%" x2="50%" y1="0.000186021%" y2="100%">
   <stop offset="0" style="stop-opacity:1; stop-color:#cc8a54"/>
   <stop offset="0.0313725" style="stop-opacity:1; stop-color:#cc8a54"/>
   <stop offset="0.529412" style="stop-opacity:1; stop-color:#f3ac70"/>
   <stop offset="1" style="stop-opacity:1; stop-color:#ffc89c"/>
  </linearGradient><linearGradient gradientUnits="userSpaceOnUse" id="Body-Pig3id33" x1="13681.9" x2="13681.9" xlink:href="#Body-Pig3id5" y1="18213.7" y2="22723.6">
  </linearGradient><linearGradient gradientUnits="objectBoundingBox" id="LeftPaw-Pig0id70" x1="18.1168%" x2="81.8832%" xlink:href="#LeftPaw-Pig0id25" y1="89.1977%" y2="10.8018%">
  </linearGradient><linearGradient gradientUnits="objectBoundingBox" id="LeftPaw-Pig0id209" x1="50%" x2="50%" xlink:href="#LeftPaw-Pig0id0" y1="100%" y2="0%">
  </linearGradient><linearGradient gradientUnits="userSpaceOnUse" id="Head-Pig7id173" x1="13681.9" x2="13681.9" xlink:href="#Head-Pig7id42" y1="17936.7" y2="7493.22">
  </linearGradient><linearGradient gradientUnits="userSpaceOnUse" id="Head-Pig7id30" x1="13681.9" x2="13681.9" y1="9565.57" y2="17278">
   <stop offset="0" style="stop-opacity:1; stop-color:#fff5f1"/>
   <stop offset="0.658824" style="stop-opacity:1; stop-color:#fff5f1"/>
   <stop offset="1" style="stop-opacity:1; stop-color:#f2e1da"/>
  </linearGradient><linearGradient gradientUnits="objectBoundingBox" id="Eyes-Pig7id164" x1="38.8114%" x2="61.1889%" xlink:href="#Eyes-Pig7id148" y1="96.6455%" y2="3.35484%">
  </linearGradient><radialGradient cx="16987.8" cy="13055.3" fx="16987.8" fy="13055.3" gradientTransform="matrix(-1.02041 -0 -0 0.932491 34322 881)" gradientUnits="userSpaceOnUse" id="Eyes-Pig7id207" r="1595.63" xlink:href="#Eyes-Pig7id205">
  </radialGradient><linearGradient gradientUnits="userSpaceOnUse" id="Eyes-Pig7id109" x1="17002.3" x2="16419.5" xlink:href="#Eyes-Pig7id45" y1="10915.2" y2="13382.1">
  </linearGradient><linearGradient gradientUnits="objectBoundingBox" id="Eyes-Pig7id179" x1="61.4146%" x2="38.5851%" xlink:href="#Eyes-Pig7id148" y1="96.4338%" y2="3.56653%">
  </linearGradient><radialGradient cx="10441.2" cy="13055.3" fx="10441.2" fy="13055.3" gradientTransform="matrix(1.02041 -0 -0 0.932491 -213 881)" gradientUnits="userSpaceOnUse" id="Eyes-Pig7id208" r="1595.63" xlink:href="#Eyes-Pig7id205">
  </radialGradient><linearGradient gradientUnits="userSpaceOnUse" id="Eyes-Pig7id113" x1="10361.6" x2="10944.4" xlink:href="#Eyes-Pig7id45" y1="10915.2" y2="13382.1">
  </linearGradient><linearGradient gradientUnits="userSpaceOnUse" id="Nose-Pig0id201" x1="13681.9" x2="13681.9" xlink:href="#Nose-Pig0id151" y1="13309.5" y2="15458">
  </linearGradient><linearGradient gradientUnits="userSpaceOnUse" id="BraceletSteel-Mediumid663new" x1="19208.4" x2="16994.4" y1="19855.6" y2="20661.5">
   <stop offset="0" style="stop-opacity:1; stop-color:#424352"/>
   <stop offset="0.109804" style="stop-opacity:1; stop-color:#848690"/>
   <stop offset="0.25098" style="stop-opacity:1; stop-color:#FFFFFC"/>
   <stop offset="0.470588" style="stop-opacity:1; stop-color:#8D8F99"/>
   <stop offset="0.780392" style="stop-opacity:1; stop-color:#16171A"/>
   <stop offset="1" style="stop-opacity:1; stop-color:#42444D"/>
  </linearGradient><linearGradient gradientUnits="userSpaceOnUse" id="NecklaceYinYangid669new" x1="12270.9" x2="12467.6" y1="19894.7" y2="19277.5">
   <stop offset="0" style="stop-opacity:1; stop-color:#643300"/>
   <stop offset="1" style="stop-opacity:1; stop-color:#AB7D2D"/>
  </linearGradient><linearGradient gradientUnits="userSpaceOnUse" id="HatG-Mediumid170new" x1="18179.1" x2="19599.3" y1="10226.2" y2="6697.29">
   <stop offset="0" style="stop-opacity:1; stop-color:#15153B"/>
   <stop offset="1" style="stop-opacity:1; stop-color:#4A47A1"/>
  </linearGradient><linearGradient gradientUnits="userSpaceOnUse" id="AccessoryWaterHydrantid32" x1="2152.47" x2="2152.47" y1="22521" y2="20800.2">
   <stop offset="0" style="stop-opacity:1; stop-color:#DF302F"/>
   <stop offset="0.25098" style="stop-opacity:1; stop-color:#A61514"/>
   <stop offset="0.670588" style="stop-opacity:1; stop-color:#E34242"/>
   <stop offset="1" style="stop-opacity:1; stop-color:#D9342E"/>
  </linearGradient><linearGradient gradientUnits="userSpaceOnUse" id="AccessoryWaterHydrantid57" x1="2239.15" x2="5103.7" y1="21426.4" y2="21426.4">
   <stop offset="0" style="stop-opacity:1; stop-color:#DF302F"/>
   <stop offset="0.278431" style="stop-opacity:1; stop-color:#860203"/>
   <stop offset="0.560784" style="stop-opacity:1; stop-color:#A61514"/>
   <stop offset="0.780392" style="stop-opacity:1; stop-color:#FC606D"/>
   <stop offset="1" style="stop-opacity:1; stop-color:#D9342E"/>
  </linearGradient><linearGradient gradientUnits="userSpaceOnUse" id="Tail-Pig4id94" x1="13432.5" x2="17737.9" y1="23392.7" y2="23392.7">
   <stop offset="0" style="stop-opacity:1; stop-color:#cc8a54"/>
   <stop offset="1" style="stop-opacity:1; stop-color:#ffc89c"/>
  </linearGradient><linearGradient gradientUnits="userSpaceOnUse" id="Tail-Pig4id5" x1="18537.4" x2="18537.4" y1="11625" y2="5118.17">
   <stop offset="0" style="stop-opacity:1; stop-color:#332822"/>
   <stop offset="1" style="stop-opacity:1; stop-color:#f3ac70"/>
  </linearGradient><linearGradient gradientUnits="userSpaceOnUse" id="RightFoot-Pig0id0" x1="16257.8" x2="16257.8" y1="21560.3" y2="23683.4">
   <stop offset="0" style="stop-opacity:1; stop-color:#332822"/>
   <stop offset="1" style="stop-opacity:1; stop-color:#594c45"/>
  </linearGradient><linearGradient gradientUnits="userSpaceOnUse" id="RightLeg-Pig0id2" x1="11782.6" x2="11782.6" y1="24212.9" y2="21311.8">
   <stop offset="0" style="stop-opacity:1; stop-color:#ffc89c"/>
   <stop offset="0.388235" style="stop-opacity:1; stop-color:#ffc89c"/>
   <stop offset="1" style="stop-opacity:1; stop-color:#f3ac70"/>
  </linearGradient><linearGradient gradientUnits="userSpaceOnUse" id="LeftFoot-Pig0id0" x1="16257.8" x2="16257.8" y1="21560.3" y2="23683.4">
   <stop offset="0" style="stop-opacity:1; stop-color:#332822"/>
   <stop offset="1" style="stop-opacity:1; stop-color:#594c45"/>
  </linearGradient><linearGradient gradientUnits="userSpaceOnUse" id="LeftLeg-Pig0id2" x1="11782.6" x2="11782.6" y1="24212.9" y2="21311.8">
   <stop offset="0" style="stop-opacity:1; stop-color:#ffc89c"/>
   <stop offset="0.388235" style="stop-opacity:1; stop-color:#ffc89c"/>
   <stop offset="1" style="stop-opacity:1; stop-color:#f3ac70"/>
  </linearGradient><linearGradient gradientUnits="objectBoundingBox" id="RightHand-Pig0id22" x1="69.8756%" x2="30.1244%" y1="2.32158%" y2="97.6784%">
   <stop offset="0" style="stop-opacity:1; stop-color:#cc8a54"/>
   <stop offset="0.0196078" style="stop-opacity:1; stop-color:#cc8a54"/>
   <stop offset="0.921569" style="stop-opacity:1; stop-color:#f3ac70"/>
   <stop offset="1" style="stop-opacity:1; stop-color:#f3ac70"/>
  </linearGradient><linearGradient gradientUnits="userSpaceOnUse" id="RightPaw-Pig0id0" x1="16257.8" x2="16257.8" y1="21560.3" y2="23683.4">
   <stop offset="0" style="stop-opacity:1; stop-color:#332822"/>
   <stop offset="1" style="stop-opacity:1; stop-color:#594c45"/>
  </linearGradient><linearGradient gradientUnits="userSpaceOnUse" id="Body-Pig3id5" x1="18537.4" x2="18537.4" y1="11625" y2="5118.17">
   <stop offset="0" style="stop-opacity:1; stop-color:#332822"/>
   <stop offset="1" style="stop-opacity:1; stop-color:#f3ac70"/>
  </linearGradient><linearGradient gradientUnits="objectBoundingBox" id="LeftPaw-Pig0id25" x1="81.8832%" x2="18.1168%" y1="89.1977%" y2="10.8018%">
   <stop offset="0" style="stop-opacity:1; stop-color:#cc8a54"/>
   <stop offset="0.619608" style="stop-opacity:1; stop-color:#f3ac70"/>
   <stop offset="1" style="stop-opacity:1; stop-color:#f3ac70"/>
  </linearGradient><linearGradient gradientUnits="userSpaceOnUse" id="LeftPaw-Pig0id0" x1="16257.8" x2="16257.8" y1="21560.3" y2="23683.4">
   <stop offset="0" style="stop-opacity:1; stop-color:#332822"/>
   <stop offset="1" style="stop-opacity:1; stop-color:#594c45"/>
  </linearGradient><linearGradient gradientUnits="objectBoundingBox" id="Head-Pig7id42" x1="50%" x2="50%" y1="0.000186021%" y2="100%">
   <stop offset="0" style="stop-opacity:1; stop-color:#cc8a54"/>
   <stop offset="0.0313725" style="stop-opacity:1; stop-color:#cc8a54"/>
   <stop offset="0.529412" style="stop-opacity:1; stop-color:#f3ac70"/>
   <stop offset="1" style="stop-opacity:1; stop-color:#ffc89c"/>
  </linearGradient><linearGradient gradientUnits="userSpaceOnUse" id="Eyes-Pig7id148" x1="16641" x2="17334.4" y1="14255.9" y2="11076.2">
   <stop offset="0" style="stop-opacity:1; stop-color:#5e6f80"/>
   <stop offset="1" style="stop-opacity:1; stop-color:black"/>
  </linearGradient><radialGradient cx="10603.5" cy="12833.7" fx="10603.5" fy="12833.7" gradientTransform="matrix(-0.879932 -0 -0 0.999997 19934 0)" gradientUnits="userSpaceOnUse" id="Eyes-Pig7id205" r="1364.99">
   <stop offset="0" style="stop-opacity:1; stop-color:#fdfeff"/>
   <stop offset="1" style="stop-opacity:1; stop-color:#5e6f80"/>
  </radialGradient><linearGradient gradientUnits="userSpaceOnUse" id="Eyes-Pig7id45" x1="16680.3" x2="16680.3" y1="11243.5" y2="13543.4">
   <stop offset="0" style="stop-opacity:1; stop-color:black"/>
   <stop offset="0.4" style="stop-opacity:1; stop-color:black"/>
   <stop offset="1" style="stop-opacity:1; stop-color:#465666"/>
  </linearGradient><linearGradient gradientUnits="userSpaceOnUse" id="Nose-Pig0id151" x1="13681.9" x2="13681.9" y1="13554.2" y2="15469.2">
   <stop offset="0" style="stop-opacity:1; stop-color:#FFCCCC"/>
   <stop offset="1" style="stop-opacity:1; stop-color:#DB9092"/>
  </linearGradient></defs><g id="AccessoryWaterHydrant">
  <metadata id="CorelCorpID_1Corel-Layer"/>
  <g id="_3081483343424">
   <path class="AccessoryWaterHydrantfil25 AccessoryWaterHydrantstr2" d="M1534 21913c-74,-37 -235,-75 -308,-113 0,-470 0,192 0,-279 73,-38 234,-75 308,-113 0,546 0,-41 0,505z" style="fill:#9ff8b1"/>
   <rect class="AccessoryWaterHydrantfil26 AccessoryWaterHydrantstr2" height="997" rx="179" ry="51" width="654" x="1496" y="21162"/>
   <rect class="AccessoryWaterHydrantfil27 AccessoryWaterHydrantstr2" height="1721" rx="169" ry="75" width="731" x="1787" y="20800"/>
   <path class="AccessoryWaterHydrantfil28 AccessoryWaterHydrantstr2" d="M5633 21913c74,-37 235,-75 309,-113 0,-470 0,192 0,-279 -74,-38 -235,-75 -309,-113 0,546 0,-41 0,505z" style="fill:#af371d"/>
   <rect class="AccessoryWaterHydrantfil29 AccessoryWaterHydrantstr2" height="997" rx="179" ry="51" width="654" x="5017" y="21162"/>
   <rect class="AccessoryWaterHydrantfil30 AccessoryWaterHydrantstr2" height="1721" rx="169" ry="75" width="731" x="4649" y="20800"/>
   <path class="AccessoryWaterHydrantfil31 AccessoryWaterHydrantstr3" d="M5766 25404l0 -550c0,-147 -938,-265 -2095,-265 -1156,0 -2094,118 -2094,265l0 550c0,146 938,265 2094,265 1157,0 2095,-119 2095,-265z" style="fill:#fde5d1"/>
   <path class="AccessoryWaterHydrantfil32" d="M3671 24589c1157,0 2095,118 2095,265 0,146 -938,352 -2095,352 -1156,0 -2094,-206 -2094,-352 0,-147 938,-265 2094,-265z" style="fill:#97294d"/>
   <path class="AccessoryWaterHydrantfil2 AccessoryWaterHydrantstr4" d="M3671 24589c1157,0 2095,118 2095,265 0,146 -938,352 -2095,352 -1156,0 -2094,-206 -2094,-352 0,-147 938,-265 2094,-265z" style="fill:#4b2e23"/>
   <path class="AccessoryWaterHydrantfil33 AccessoryWaterHydrantstr3" d="M3671 17525c-415,0 -435,312 -435,457 0,145 0,114 0,222 0,15 83,-54 435,-54 353,0 435,69 435,54 0,-108 0,-77 0,-222 0,-145 -19,-457 -435,-457z" style="fill:#77003a"/>
   <path class="AccessoryWaterHydrantfil34 AccessoryWaterHydrantstr3" d="M3671 17910c-1161,0 -1432,1058 -1432,1550l0 480 0 273 0 4523c0,115 924,207 1432,207 509,0 1433,-92 1433,-207l0 -4523 0 -273 0 -480c0,-492 -271,-1550 -1433,-1550z" style="fill:#3e9586"/>
   <path class="AccessoryWaterHydrantfil35" d="M3583 24701l177 0c109,0 198,-88 198,-197l0 -4049c0,-108 -89,-197 -198,-197l-177 0c-109,0 -198,89 -198,197l0 4049c0,109 89,197 198,197z" style="fill:#3c483f"/>
   <path class="AccessoryWaterHydrantfil35" d="M4394 24701l156 0c95,0 173,-77 173,-172l0 -4098c0,-96 -78,-173 -173,-173l-156 0c-95,0 -173,77 -173,173l0 4098c0,95 78,172 173,172z" style="fill:#4eb216"/>
   <path class="AccessoryWaterHydrantfil35" d="M2793 24701l155 0c96,0 173,-77 173,-172l0 -4098c0,-96 -77,-173 -173,-173l-155 0c-95,0 -173,77 -173,173l0 4098c0,95 78,172 173,172z" style="fill:#30272a"/>
   <path class="AccessoryWaterHydrantfil36 AccessoryWaterHydrantstr3" d="M1996 20117c559,-29 654,-87 1675,-87 1021,0 1117,58 1676,87 157,8 286,-112 286,-249 0,0 0,0 0,0 0,-137 -85,-230 -286,-249 -556,-55 -791,-87 -1676,-87 -885,0 -1116,58 -1675,87 -157,8 -287,112 -287,249 0,0 0,0 0,0 0,137 130,257 287,249z" style="fill:#2e5a25"/>
   <ellipse class="AccessoryWaterHydrantfil37 AccessoryWaterHydrantstr4" cx="3671" cy="21643" rx="911" ry="900"/>
   <ellipse class="AccessoryWaterHydrantfil38 AccessoryWaterHydrantstr4" cx="3671" cy="21643" rx="445" ry="440"/>
   <path class="AccessoryWaterHydrantfil39 AccessoryWaterHydrantstr5" d="M3671 22304c370,0 670,-296 670,-661 0,-366 -300,-662 -670,-662 -369,0 -669,296 -669,662 0,365 300,661 669,661z" style="fill:#ca61f5"/>
   <polygon class="AccessoryWaterHydrantfil40 AccessoryWaterHydrantstr1" points="3892,21643 3837,21737 3782,21831 3671,21831 3561,21831 3506,21737 3451,21643 3506,21548 3561,21454 3671,21454 3782,21454 3837,21548 "/>
   <path class="AccessoryWaterHydrantfil39 AccessoryWaterHydrantstr6" d="M2852 19132c23,-315 94,-510 124,-608" style="fill:#28e540"/>
   <path class="AccessoryWaterHydrantfil39 AccessoryWaterHydrantstr6" d="M4491 19132c-23,-315 -94,-510 -124,-608" style="fill:#74e32a"/>
   <line class="AccessoryWaterHydrantfil39 AccessoryWaterHydrantstr6" x1="3671" x2="3673" y1="19132" y2="18510"/>
  </g>
 </g><g id="HairBack-Pig0">
 <animateTransform additive="sum" attributeName="transform" dur="10" repeatCount="indefinite" type="translate" values="0;0 200;0;0 200;0;0 200;0;0 200;0"/>
  <metadata id="CorelCorpID_0Corel-Layer"/>
  <rect class="HairBack-Pig0fil0" height="890" width="890" x="13237" y="6590"/>
  <rect class="HairBack-Pig0fil0" height="890" width="890" x="13237" y="6590"/>
 </g><g id="Tail-Pig4">
  <metadata id="CorelCorpID_7Corel-Layer"/>
  <path class="Tail-Pig4fil32 Tail-Pig4str0" d="M18327 23822c-507,-169 -732,-913 -375,-1407 74,-102 173,-187 275,-273 40,-34 81,467 121,432 6,-639 303,-807 355,-1161 28,-384 -43,-549 -91,-632 -48,-83 434,90 461,663 -12,-309 120,-947 1573,-763 -840,167 -999,789 -1025,1614 117,-238 413,-483 609,-410 -243,179 -318,617 -323,920 -3,189 -230,595 -615,728 191,16 336,-45 573,-161 -272,542 -853,723 -1538,450z" style="fill:#125c98"/>
  <path class="Tail-Pig4fil10" d="M20155 21954c-116,-72 -245,213 -364,477 -74,165 -84,360 -151,482 -274,495 -649,438 -1033,956 0,0 -272,-130 -424,-194 260,-395 -74,-620 17,-966 0,0 86,68 225,235 70,85 138,3 175,-130 125,-450 -138,-660 250,-1358 72,-130 -309,366 -309,366l-193 752 -119 -433c0,0 -375,273 -371,437 4,165 -169,574 57,897 225,322 655,448 834,461 178,12 781,-97 929,-294 148,-197 138,-182 138,-182 0,0 -388,19 -456,46 -68,27 209,-61 427,-381 219,-320 118,-506 154,-661 36,-155 130,-390 214,-510z" style="fill:#f7832b"/>
  <path class="Tail-Pig4fil33" d="M18822 22851c166,27 42,1340 -1082,1510 -269,40 -540,2 -785,-120 -477,-237 -893,-535 -887,-1078 5,-420 525,-627 608,-74 54,357 247,496 534,638 138,69 292,90 444,67 156,-15 391,-60 535,-186 373,-310 471,-783 633,-757z" style="fill:#41619d"/>
  <path class="Tail-Pig4fil30" d="M18499 24074c-182,175 -427,312 -748,361 -143,21 -287,22 -428,0 -138,-21 -273,-63 -402,-127 -216,-107 -420,-228 -583,-379l235 0c124,91 266,171 415,245 114,57 234,95 357,113 126,19 255,19 383,0 288,-44 525,-156 687,-311 214,-206 381,-450 432,-670 -21,316 -201,626 -348,768zm-1407 -496c46,28 97,55 152,82 61,31 125,51 192,61 68,10 138,10 207,-1l4 0c85,-8 194,-26 297,-62 341,-119 473,-284 612,-507 -117,319 -218,528 -562,649 -115,40 -235,59 -328,68l0 1c-85,12 -170,13 -252,0 -82,-12 -162,-37 -237,-75 -29,-14 -58,-29 -85,-43l0 -173z" style="fill:#7629e5"/>
  <path class="Tail-Pig4fil34 Tail-Pig4str1" d="M13590 22980c-74,-146 -60,-518 114,-580 173,-62 626,30 700,176 2,3 367,1151 1782,1081 176,-9 745,6 968,-383 187,-327 61,-627 -118,-753 -194,-137 -451,-83 -443,15 -97,-166 -385,-358 -265,-522 6,16 403,-347 904,-94 720,362 748,1036 493,1582 -233,500 -764,786 -1396,846 -2017,192 -2737,-1364 -2739,-1368z" style="fill:#6cf360"/>
  <path class="Tail-Pig4fil10" d="M17707 23822c0,0 112,152 19,294 -93,142 596,-33 666,-89 69,-56 -276,415 -1054,335 -779,-80 -299,-199 -299,-199l506 -360 162 19z" style="fill:#821b5a"/>
  <path class="Tail-Pig4fil26" d="M17270 23437c0,0 -158,311 -59,337 99,27 374,-139 423,-235 50,-95 137,356 -677,660 -814,303 -523,-15 -523,-15 0,0 340,-59 836,-747z" style="fill:#2b7bb4"/>
  <path class="Tail-Pig4fil26" d="M13814 23259c0,0 183,264 356,449 173,185 719,440 898,480 178,39 479,-245 446,-427 -32,-182 -703,-330 -803,-503 -101,-172 -328,-397 -361,-403 -33,-7 -776,84 -536,404z" style="fill:#cafde8"/>
  <path class="Tail-Pig4fil10" d="M19850 21266c0,0 -519,437 -589,814 -70,376 -168,643 -226,718 176,-126 295,-319 345,-481 49,-162 218,-452 218,-452 0,0 194,-488 252,-599z" style="fill:#397e0d"/>
 </g><g id="RightFoot-Pig0">
  <metadata id="CorelCorpID_10Corel-Layer"/>
  <path class="RightFoot-Pig0fil37" d="M16559 24190c54,65 143,233 174,292 62,268 -152,365 -298,365 -143,0 -686,-98 -894,289 -330,-192 -541,-572 -540,-565 -22,-43 -41,-85 -54,-126 -58,-176 -10,-247 31,-317 480,-107 1078,-83 1581,62z" style="fill:#03595b"/>
  <path class="RightFoot-Pig0fil38" d="M15011 24496c-3,101 -14,73 -14,176 -5,821 346,600 430,523 12,-11 59,-71 57,-73 -109,-146 -274,-300 -473,-626z" style="fill:#9934f0"/>
  <path class="RightFoot-Pig0fil0 RightFoot-Pig0str2" d="M14995 24537c1,45 2,90 2,135 -5,821 346,600 430,523 4,-4 19,-23 37,-48" style="fill:#d9e18b"/>
  <path class="RightFoot-Pig0fil39" d="M16756 24466c0,0 -225,-105 -294,-5 -54,78 49,353 -47,353 -106,0 -310,-245 -509,-215 -288,43 -418,429 -384,506 35,82 343,409 763,435 419,26 490,-14 487,-39 -3,-24 42,-150 42,-150 0,0 458,-59 491,-95 100,-109 -467,-691 -549,-790z" style="fill:#817a99"/>
  <polygon class="RightFoot-Pig0fil40" points="16740,25393 16571,24994 16934,25330 "/>
  <path class="RightFoot-Pig0fil0 RightFoot-Pig0str2" d="M16567 24189c147,241 633,739 718,969 84,231 -492,167 -492,167 0,0 5,189 -122,220 -281,70 -831,-103 -1075,-309 -49,-41 -99,-87 -150,-135" style="fill:#441f4a"/>
  <path class="RightFoot-Pig0fil0 RightFoot-Pig0str2" d="M16567 24189c45,73 121,170 208,277m-1262 697c-341,-311 -707,-789 -548,-1037" style="fill:#977ec3"/>
  <path class="RightFoot-Pig0fil10" d="M15252 24171c-250,336 427,769 691,965 282,210 555,378 651,406 -45,23 -445,-31 -727,-123 -179,-96 -710,-617 -803,-752 -94,-163 -147,-331 -119,-480 10,-21 22,-40 33,-59 85,-7 193,-3 274,43z" style="fill:#c4bbe1"/>
 </g><g id="LeftFoot-Pig0">
  <metadata id="CorelCorpID_27Corel-Layer"/>
  <path class="LeftFoot-Pig0fil37" d="M10805 24190c-54,65 -143,233 -174,292 -62,268 152,365 298,365 143,0 685,-98 894,289 330,-192 541,-572 540,-565 22,-43 40,-85 54,-126 58,-176 10,-247 -31,-317 -480,-107 -1078,-83 -1581,62z" style="fill:#d0b3b2"/>
  <path class="LeftFoot-Pig0fil38" d="M12353 24496c3,101 14,73 14,176 5,821 -346,600 -430,523 -12,-11 -59,-71 -57,-73 109,-146 274,-300 473,-626z" style="fill:#e17d41"/>
  <path class="LeftFoot-Pig0fil0 LeftFoot-Pig0str2" d="M12369 24537c-1,45 -2,90 -2,135 5,821 -346,600 -430,523 -4,-4 -19,-23 -37,-48" style="fill:#475f33"/>
  <path class="LeftFoot-Pig0fil57" d="M10608 24466c0,0 225,-105 294,-5 54,78 -49,353 47,353 106,0 309,-245 509,-215 288,43 418,429 384,506 -35,82 -343,409 -763,435 -419,26 -490,-14 -487,-39 3,-24 -42,-150 -42,-150 0,0 -458,-59 -491,-95 -101,-109 467,-691 549,-790z" style="fill:#bf0b72"/>
  <polygon class="LeftFoot-Pig0fil40" points="10624,25393 10793,24994 10430,25330 "/>
  <path class="LeftFoot-Pig0fil0 LeftFoot-Pig0str2" d="M10797 24189c-147,241 -633,739 -718,969 -85,231 492,167 492,167 0,0 -5,189 122,220 281,70 831,-103 1075,-309 49,-41 99,-87 150,-135" style="fill:#32e600"/>
  <path class="LeftFoot-Pig0fil0 LeftFoot-Pig0str2" d="M10797 24189c-45,73 -121,170 -208,277m1262 697c341,-311 707,-789 548,-1037" style="fill:#713eb9"/>
  <path class="LeftFoot-Pig0fil10" d="M12112 24171c250,336 -428,769 -691,965 -282,210 -555,378 -651,406 45,23 444,-31 727,-123 179,-96 710,-617 803,-752 94,-163 147,-331 119,-480 -10,-21 -22,-40 -33,-59 -85,-7 -193,-3 -274,43z" style="fill:#91bcd1"/>
 </g><g id="RightLeg-Pig0">
  <metadata id="CorelCorpID_22Corel-Layer"/>
  <path class="RightLeg-Pig0fil52" d="M16570 21416c0,0 1181,1189 570,2176 -128,221 -511,470 -581,598 -599,44 -1104,27 -1581,-62 45,-78 82,-155 -44,-376 -113,-198 -400,-446 -1252,-493 0,-147 0,-280 0,-522 373,-788 1598,-1745 2888,-1321z" style="fill:#2ec0f9"/>
  <path class="RightLeg-Pig0fil10" d="M17192 23421c67,-141 106,-290 107,-439 2,-734 -540,-1374 -869,-1659l-157 688c26,45 52,90 79,136 387,-391 947,832 840,1274z" style="fill:#8cb002"/>
  <path class="RightLeg-Pig0fil0 RightLeg-Pig0str2" d="M16570 21416c303,324 585,778 689,1246 115,521 25,950 -408,1282 -95,72 -194,144 -284,245m-1602 -63c284,-396 -518,-875 -1283,-867" style="fill:#173a56"/>
  <path class="RightLeg-Pig0fil10" d="M13760 23246c341,-28 1532,124 1607,584 27,166 -52,256 -115,341 -93,-12 -184,-26 -274,-43 40,-70 74,-140 -11,-313 -8,-22 -19,-42 -33,-62l0 -1c-104,-182 -357,-408 -1066,-479 -35,-9 -71,-18 -108,-27z" style="fill:#b3071e"/>
 </g><g id="LeftLeg-Pig0">
  <metadata id="CorelCorpID_39Corel-Layer"/>
  <path class="LeftLeg-Pig0fil62" d="M10794 21416c0,0 -1181,1189 -570,2176 128,221 511,470 581,598 599,44 1104,27 1581,-62 -45,-78 -82,-155 44,-376 113,-198 400,-446 1252,-493 0,-147 0,-280 0,-522 -373,-788 -1598,-1745 -2888,-1321z" style="fill:#6eafae"/>
  <path class="LeftLeg-Pig0fil10" d="M10172 23421c-67,-141 -106,-290 -107,-439 -2,-734 540,-1374 869,-1659l157 688c-26,45 -53,90 -79,136 -388,-391 -947,832 -840,1274z" style="fill:#54df44"/>
  <path class="LeftLeg-Pig0fil0 LeftLeg-Pig0str2" d="M10794 21416c-303,324 -586,778 -689,1246 -115,521 -25,950 408,1282 95,72 193,144 284,245m1602 -63c-284,-396 517,-875 1283,-867" style="fill:#a8cc7d"/>
  <path class="LeftLeg-Pig0fil10" d="M13604 23246c-341,-28 -1532,124 -1607,584 -27,166 52,256 115,341 93,-12 184,-26 274,-43 -40,-70 -74,-140 11,-313 8,-22 19,-42 33,-62l0 -1c104,-182 357,-408 1066,-479 35,-9 71,-18 108,-27z" style="fill:#6e0c05"/>
 </g><g id="RightHand-Pig0">
 <animateTransform additive="sum" attributeName="transform" dur="10" repeatCount="indefinite" type="translate" values="0;0 200;0;0 200;0;0 200;0;0 200;0"/>
  <metadata id="CorelCorpID_44Corel-Layer"/>
  <path class="RightHand-Pig0fil68" d="M16231 17709c1005,345 1816,1398 2255,2162 -88,184 -847,720 -1129,836 -543,-402 -1045,-430 -1469,-362 -742,120 -1353,-1920 -931,-2545 422,-21 934,-40 1274,-91z" style="fill:#922e28"/>
  <path class="RightHand-Pig0fil10" d="M17342 20696c-537,-391 -1034,-418 -1454,-351 -171,28 -335,-59 -481,-217 -325,-472 753,-1098 1039,-656 258,399 723,837 1098,1116 3,2 22,18 34,27l-219 113c-8,-18 -14,-30 -17,-32z" style="fill:#69de82"/>
  <path class="RightHand-Pig0fil0 RightHand-Pig0str0" d="M16477 20333c179,24 366,81 561,178 100,50 205,104 305,189m1121 -817c-161,-280 -388,-607 -632,-916 -422,-534 -963,-1039 -1601,-1258 -90,-31 -172,-59 -246,-84" style="fill:#8393fb"/>
 </g><g id="LeftHand-Pig0">
 <animateTransform additive="sum" attributeName="transform" dur="10" repeatCount="indefinite" type="translate" values="0;0 200;0;0 200;0;0 200;0;0 200;0"/>
  <metadata id="CorelCorpID_61Corel-Layer"/>
  <path class="LeftHand-Pig0fil79" d="M11133 17709c-1005,345 -1817,1398 -2255,2162 88,184 847,720 1128,836 544,-402 1046,-430 1470,-362 742,120 1352,-1920 931,-2545 -422,-21 -934,-40 -1274,-91z" style="fill:#29b82c"/>
  <path class="LeftHand-Pig0fil10" d="M10022 20696c537,-391 1034,-418 1454,-351 171,28 335,-59 481,-217 325,-472 -753,-1098 -1039,-656 -258,399 -723,837 -1098,1116 -3,2 -22,18 -34,27l219 113c8,-18 14,-30 17,-32z" style="fill:#c82633"/>
  <path class="LeftHand-Pig0fil0 LeftHand-Pig0str0" d="M10887 20333c-179,24 -366,81 -561,178 -100,50 -205,104 -305,189m-1121 -817c161,-280 388,-607 632,-916 422,-534 963,-1039 1601,-1258 90,-31 171,-59 246,-84" style="fill:#112a9f"/>
 </g><g id="Body-Pig3">
 <animateTransform additive="sum" attributeName="transform" dur="10" repeatCount="indefinite" type="translate" values="0;0 200;0;0 200;0;0 200;0;0 200;0"/>
  <metadata id="CorelCorpID_69Corel-Layer"/>
  <path class="Body-Pig3fil83" d="M13682 23135c-1548,0 -2752,-291 -2993,-1956 -147,-1014 391,-2287 991,-3420 634,80 1289,123 2002,142 713,-19 1367,-62 2002,-142 600,1133 1137,2406 991,3420 -242,1665 -1445,1956 -2993,1956z" style="fill:#d3507a"/>
  <path class="Body-Pig3fil88" d="M13682 18384c804,0 1496,-379 1870,-6 247,245 491,869 403,1012 -42,-23 -128,-96 -224,-122 -187,-50 455,471 324,1006 -145,-116 -451,-255 -271,134 269,580 -520,2316 -2102,2316 -1582,0 -2371,-1736 -2102,-2316 180,-389 -126,-250 -271,-134 -131,-535 511,-1056 324,-1006 -96,26 -182,99 -224,122 -88,-143 156,-767 403,-1012 374,-373 1066,6 1870,6z" style="fill:#f2e87d"/>
  <path class="Body-Pig3fil10" d="M12621 23067c-1016,-156 -1749,-629 -1932,-1888 -75,-519 29,-1106 229,-1707 -223,2001 402,3257 1703,3595z" style="fill:#a77821"/>
  <path class="Body-Pig3fil84" d="M11012 22144c-250,-321 -348,-641 -397,-954 -59,-377 -24,-998 184,-1320 -78,421 -93,905 -36,1298 50,341 104,572 249,976z" style="fill:#49ab8e"/>
  <path class="Body-Pig3fil10" d="M14743 23067c1016,-156 1749,-629 1932,-1888 75,-519 -29,-1106 -229,-1707 223,2001 -402,3257 -1703,3595z" style="fill:#0e4338"/>
  <path class="Body-Pig3fil84" d="M16352 22144c250,-321 347,-641 397,-954 59,-377 24,-998 -184,-1320 78,421 93,905 36,1298 -50,341 -104,572 -249,976z" style="fill:#7f5794"/>
  <path class="Body-Pig3fil30" d="M11940 18740c378,214 257,470 636,711 32,-125 63,-228 90,-287 11,-25 23,-45 34,-58 36,-42 76,-49 119,-18 14,10 26,25 33,43 183,442 378,729 851,846 -24,-58 -46,-126 -59,-199 -23,-122 -14,-273 22,-406 11,-40 34,-68 74,-57 95,29 169,94 227,175 37,51 63,110 76,174 66,-26 142,-91 214,-174 123,-139 228,-324 265,-463 18,-69 92,-88 139,-22 3,-2 21,40 22,43 14,39 36,106 43,200 245,-109 377,-295 505,-488 -50,409 -327,589 -549,670 -49,19 -103,-18 -102,-71 0,-27 0,-52 -1,-76 -56,107 -129,215 -209,306 -124,142 -268,243 -397,237 -41,-2 -55,-30 -54,-71 1,-64 -38,-130 -73,-179 -19,-26 -40,-48 -64,-65 -11,82 -5,165 9,241 19,163 104,275 130,326 24,50 -35,92 -81,83 -573,-121 -817,-300 -1070,-846 -23,72 -49,169 -75,279 -2,9 -5,18 -11,26 -22,35 -69,44 -103,20 -517,-303 -370,-529 -641,-900z" style="fill:#0714b7"/>
 </g><g id="RightPaw-Pig0">
 <animateTransform additive="sum" attributeName="transform" dur="10" repeatCount="indefinite" type="translate" values="0;0 200;0;0 200;0;0 200;0;0 200;0"/>
  <metadata id="CorelCorpID_49Corel-Layer"/>
  <path class="RightPaw-Pig0fil74" d="M18486 19871c155,269 247,281 434,498 211,244 446,948 341,1067 -34,39 -389,8 -389,8 -15,58 -145,373 -188,392 -161,73 -598,-324 -814,-554 -63,111 -195,178 -216,147 -79,-27 -146,-195 -211,-374 -34,-92 -45,-318 -86,-348 139,-387 621,-775 1129,-836z" style="fill:#bedc08"/>
  <path class="RightPaw-Pig0fil10" d="M17452 20518c31,24 62,48 92,70 4,3 39,31 43,34 13,14 26,28 39,43 79,93 97,228 104,283 2,13 3,21 4,24 -2,92 -166,169 -227,208 0,-8 -67,-223 -116,-364 0,-31 3,-54 -7,-90 -9,-6 -18,-13 -27,-19 23,-64 55,-127 95,-189z" style="fill:#d6e079"/>
  <path class="RightPaw-Pig0fil75" d="M18910 20358c-402,-76 -337,407 -242,635 -239,-309 -538,-414 -692,-297 -104,79 -113,131 -203,226 -99,104 -339,-108 -394,-184 -18,147 139,645 275,691 21,31 153,-36 216,-147 216,230 653,627 814,554 43,-19 173,-334 188,-392 0,0 355,31 389,-8 109,-123 -135,-862 -351,-1078z" style="fill:#cde389"/>
  <path class="RightPaw-Pig0fil10" d="M18804 21498c-67,307 -352,47 -875,-255 4,66 -100,45 -131,-12 -41,-92 -52,-190 -68,-283 -88,22 -225,-79 -303,-156 -5,-5 -11,-11 -16,-16 49,174 144,541 243,653 90,2 173,-72 216,-147 199,212 579,572 803,508 84,-24 78,-133 131,-292z" style="fill:#67d558"/>
  <path class="RightPaw-Pig0fil0 RightPaw-Pig0str2" d="M17136 20561c121,75 170,94 271,202 1,149 38,330 93,461 54,128 115,197 196,208 55,8 128,-6 194,-123 208,221 642,571 796,501 41,-19 164,-344 179,-400 0,0 356,75 389,38 86,-99 -94,-785 -280,-992 -109,-122 -404,-420 -409,-427 -68,-85 -123,-182 -179,-276" style="fill:#03ba8d"/>
  <polygon class="RightPaw-Pig0fil40" points="18796,21484 18678,21021 18973,21393 "/>
 </g><g id="LeftPaw-Pig0">
 <animateTransform additive="sum" attributeName="transform" dur="10" repeatCount="indefinite" type="translate" values="0;0 200;0;0 200;0;0 200;0;0 200;0"/>
  <metadata id="CorelCorpID_71Corel-Layer"/>
  <path class="LeftPaw-Pig0fil91" d="M8878 19871c-155,269 -247,281 -434,498 -211,244 -446,948 -341,1067 34,39 388,8 388,8 16,58 146,373 189,392 161,73 598,-324 814,-554 63,111 195,178 216,147 79,-27 146,-195 211,-374 34,-92 45,-318 85,-348 -138,-387 -621,-775 -1128,-836z" style="fill:#b6680f"/>
  <path class="LeftPaw-Pig0fil10" d="M9912 20518c-31,24 -62,48 -92,70 -4,3 -39,31 -43,34 -14,14 -27,28 -39,43 -79,93 -97,228 -104,283 -2,13 -3,21 -4,24 2,92 166,169 226,208 0,-8 68,-223 117,-364 -1,-31 -3,-54 7,-90 9,-6 18,-13 26,-19 -22,-64 -54,-127 -94,-189z" style="fill:#f3f34b"/>
  <path class="LeftPaw-Pig0fil92" d="M8454 20358c401,-76 337,407 242,635 239,-309 538,-414 692,-297 104,79 113,131 203,226 99,104 339,-108 394,-184 18,147 -140,645 -275,691 -21,31 -153,-36 -216,-147 -216,230 -653,627 -814,554 -43,-19 -173,-334 -189,-392 0,0 -354,31 -388,-8 -109,-123 135,-862 351,-1078z" style="fill:#f7c0ef"/>
  <path class="LeftPaw-Pig0fil10" d="M8560 21498c67,307 352,47 875,-255 -5,66 100,45 131,-12 40,-92 52,-190 68,-283 88,22 225,-79 303,-156 5,-5 11,-11 16,-16 -49,174 -144,541 -243,653 -90,2 -173,-72 -216,-147 -199,212 -579,572 -803,508 -84,-24 -79,-133 -131,-292z" style="fill:#3dfeb5"/>
  <path class="LeftPaw-Pig0fil0 LeftPaw-Pig0str2" d="M10228 20561c-121,75 -170,94 -272,202 0,149 -37,330 -92,461 -55,128 -115,197 -196,208 -55,8 -128,-6 -194,-123 -208,221 -642,571 -797,501 -41,-19 -163,-344 -178,-400 0,0 -356,75 -389,38 -86,-99 94,-785 280,-992 109,-122 404,-420 409,-427 68,-85 123,-182 179,-276" style="fill:#798418"/>
  <polygon class="LeftPaw-Pig0fil40" points="8568,21484 8686,21021 8391,21393 "/>
 </g><g id="NecklaceYinYang">
 <animateTransform additive="sum" attributeName="transform" dur="10" repeatCount="indefinite" type="translate" values="0;0 200;0;0 200;0;0 200;0;0 200;0"/>
  <metadata id="CorelCorpID_40Corel-Layer"/>
  <path class="NecklaceYinYangfil225new" d="M16543 17208c-73,675 -449,1409 -941,2000 -570,684 -1305,1183 -1920,1183 -615,0 -1350,-499 -1920,-1183 -492,-591 -868,-1325 -941,-2000l352 0c73,593 413,1245 856,1777 509,611 1145,1056 1653,1056 508,0 1144,-445 1653,-1056 442,-532 782,-1184 856,-1777l352 0z" style="fill:#3ae21a"/>
  <path class="NecklaceYinYangfil46new" d="M11135 16868c-273,1109 1292,3303 2547,3303 1255,0 2820,-2194 2547,-3303l-25 4c1,34 2,68 2,103 0,650 -370,1407 -871,2010 -509,611 -1145,1056 -1653,1056 -508,0 -1144,-445 -1653,-1056 -501,-603 -871,-1360 -871,-2010 0,-35 1,-69 2,-103l-25 -4z" style="fill:#00d025"/>
  <path class="NecklaceYinYangfil47new NecklaceYinYangstr4new" d="M16543 17208c-73,675 -449,1409 -941,2000 -570,684 -1305,1183 -1920,1183 -615,0 -1350,-499 -1920,-1183 -492,-591 -868,-1325 -941,-2000l352 0c73,593 413,1245 856,1777 509,611 1145,1056 1653,1056 508,0 1144,-445 1653,-1056 442,-532 782,-1184 856,-1777l352 0z" style="fill:#5046b0"/>
  <path class="NecklaceYinYangfil226new NecklaceYinYangstr3new" d="M11302 18631c-392,0 -362,-385 -163,-550 197,-163 493,-157 449,148 -114,-87 -503,248 -286,402z" style="fill:#bea276"/>
  <path class="NecklaceYinYangfil227new NecklaceYinYangstr3new" d="M12385 19918c-393,11 -359,-370 -179,-545 182,-179 487,-172 453,134 -117,-83 -496,263 -274,411z" style="fill:#7d6b35"/>
  <path class="NecklaceYinYangfil228new NecklaceYinYangstr3new" d="M16062 18631c392,0 345,-403 163,-550 -200,-160 -493,-157 -449,148 114,-87 503,248 286,402z" style="fill:#cd128c"/>
  <path class="NecklaceYinYangfil229new NecklaceYinYangstr3new" d="M14979 19918c393,11 384,-357 179,-545 -202,-187 -487,-172 -453,134 117,-83 496,263 274,411z" style="fill:#439e56"/>
  <g>
   <circle class="NecklaceYinYangfil84new" r="1577" transform="matrix(-0.552338 -0.290723 0.290723 -0.552338 13681.9 21396.4)"/>
   <g>
    <path class="NecklaceYinYangfil84new" d="M14075 20650c412,217 570,727 353,1139 -215,409 -719,568 -1129,359l0 0c-3,-2 -7,-4 -10,-5l0 0c-206,-109 -285,-364 -177,-570 109,-206 364,-285 570,-177l0 0c206,109 461,30 570,-176 108,-207 29,-462 -177,-570z" style="fill:#1301bc"/>
    <path class="NecklaceYinYangfil83new" d="M13289 22143c-412,-217 -570,-727 -353,-1139 215,-409 718,-568 1129,-359l0 0c3,2 7,3 10,5l0 0c206,108 285,363 177,570 -109,206 -364,285 -570,176l0 0c-206,-108 -461,-29 -570,177 -108,206 -29,461 177,570z" style="fill:#db74ef"/>
    <path class="NecklaceYinYangfil84new" d="M13943 20901c67,35 93,119 58,187 -36,67 -119,93 -187,58 -68,-36 -94,-120 -58,-187 36,-68 119,-94 187,-58z" style="fill:#b6b742"/>
    <path class="NecklaceYinYangfil83new" d="M13421 21892c-68,-36 -94,-119 -58,-187 36,-67 119,-93 187,-58 68,36 93,119 58,187 -36,68 -119,94 -187,58z" style="fill:#54a2fe"/>
   </g>
  </g>
  <path class="NecklaceYinYangfil230new NecklaceYinYangstr4new" d="M13599 19944l166 0c25,0 47,21 46,46l-24 447c-1,26 -20,46 -46,46l-119 0c-25,0 -44,-20 -46,-46l-23 -447c-1,-26 21,-46 46,-46z" style="fill:#2b391f"/>
 </g><g id="BraceletSteel-Medium">
 <animateTransform additive="sum" attributeName="transform" dur="10" repeatCount="indefinite" type="translate" values="0;0 200;0;0 200;0;0 200;0;0 200;0"/>
  <metadata id="CorelCorpID_19Corel-Layer"/>
  <path class="BraceletSteel-Mediumfil57new BraceletSteel-Mediumstr4new" d="M8743 19983c-151,-67 -236,-210 -167,-360 70,-150 216,-158 370,-99 394,150 1163,722 1389,1066 91,139 106,280 -23,383 -130,103 -302,47 -400,-86 -244,-332 -771,-729 -1169,-904z" style="fill:#77c1cc"/>
  <path class="BraceletSteel-Mediumfil58new BraceletSteel-Mediumstr4new" d="M18621 19983c151,-67 236,-210 167,-360 -70,-150 -216,-158 -371,-99 -393,150 -1162,722 -1389,1066 -90,139 -105,280 24,383 130,103 302,47 400,-86 244,-332 771,-729 1169,-904z" style="fill:#8e84fb"/>
 </g><g id="Head-Pig7">
 <animateTransform additive="sum" attributeName="transform" dur="10" repeatCount="indefinite" type="translate" values="0;0 200;0;0 200;0;0 200;0;0 200;0"/>
  <metadata id="CorelCorpID_102Corel-Layer"/>
  <path class="Head-Pig7fil167" d="M13682 17937c481,0 1034,-24 1605,-101 850,-115 1745,-334 2518,-713 517,-252 891,-642 1496,-281 46,-295 -60,-531 -278,-760 297,43 1046,-179 1293,-503 -349,-69 -742,-317 -739,-506 429,-36 980,-397 1235,-1090 -342,197 -775,217 -929,104 339,-83 701,-286 849,-530 -370,-85 -578,-255 -736,-469 -234,-317 -474,-802 -682,-1160 -101,-175 -213,-370 -333,-603 -102,-182 -198,-394 -302,-573 -28,-47 -54,-103 -82,-149 -358,-597 -759,-1164 -1324,-1636 -1249,-1046 -2354,-1447 -3590,-1474l-1 0 -1 0c-1236,27 -2341,428 -3591,1474 -564,472 -965,1039 -1323,1636 -28,46 -55,102 -82,149 -105,179 -200,391 -302,573 -120,233 -232,428 -333,603 -208,358 -448,843 -682,1160 -159,214 -366,384 -736,469 148,244 510,447 849,530 -154,113 -587,93 -929,-104 255,693 806,1054 1235,1090 3,189 -390,437 -739,506 247,324 996,546 1293,503 -218,229 -324,465 -279,760 606,-361 980,29 1496,281 774,379 1669,598 2519,713 571,77 1124,101 1605,101z" style="fill:#76b130"/>
  <path class="Head-Pig7fil10" d="M8595 11042c-58,94 -129,186 -208,277l-4 6c-120,233 -232,428 -333,603 -208,358 -448,843 -682,1160 -159,214 -366,384 -736,469 148,244 510,447 849,530 -154,113 -587,93 -929,-104 255,693 806,1054 1235,1090 3,189 -390,437 -739,506 247,324 996,546 1293,503 -218,229 -324,465 -279,760 606,-361 980,29 1496,281 774,379 1669,598 2519,713 127,17 253,31 378,44 62,5 124,10 184,15 -2326,-552 -4001,-1593 -4496,-3087 -323,-975 -154,-2267 452,-3766z" style="fill:#5d26c3"/>
  <path class="Head-Pig7fil84" d="M9861 9172c974,-1177 2398,-1757 3821,-1747 1423,-10 2847,570 3821,1747 -1223,-1081 -2522,-1612 -3821,-1603 -1299,-9 -2598,522 -3821,1603z" style="fill:#733b45"/>
  <path class="Head-Pig7fil168" d="M11342 16322c-59,-17 -121,-32 -187,-46 -271,-56 -493,16 -558,-89 -80,-266 186,-712 95,-695 -209,21 -431,229 -517,138 -94,-99 -27,-600 34,-762 427,-1118 3218,-1915 2085,-3512 -196,-276 -573,-673 -894,-787 -154,-55 -336,-83 -628,-148 -272,-60 -441,-158 -91,-441 214,-174 502,-317 687,-361 365,-85 591,-64 766,31 652,349 732,1121 1548,1205 816,-84 896,-856 1548,-1205 175,-95 401,-116 766,-31 185,44 473,187 687,361 350,283 181,381 -91,441 -292,65 -474,93 -629,148 -320,114 -697,511 -893,787 -1133,1597 1658,2394 2085,3512 61,162 128,663 34,762 -87,91 -308,-117 -517,-138 -91,-17 175,429 94,695 -64,105 -287,33 -557,89 -66,14 -128,29 -188,46 -553,524 -1400,956 -2339,956 -939,0 -1786,-432 -2340,-956z" style="fill:#a04302"/>
  <path class="Head-Pig7fil84" d="M15213 17846c610,-96 1204,-300 1416,-360 397,-113 784,-254 1144,-430 97,-47 194,-103 289,-158 374,-214 707,-405 1175,-176 1,-92 -14,-177 -46,-258 -44,-115 -120,-223 -222,-330 -29,-30 -28,-78 2,-106 18,-17 41,-23 62,-20 151,22 431,-32 695,-135 171,-66 334,-153 446,-253 -149,-44 -296,-115 -414,-195 -154,-106 -260,-234 -258,-353 0,-39 30,-71 68,-74l0 0c217,-18 467,-125 691,-322 155,-137 297,-317 405,-541 -120,47 -242,76 -356,88 -199,23 -376,-5 -471,-75 -34,-25 -41,-72 -16,-105 11,-15 26,-24 42,-28 169,-42 344,-114 493,-208 99,-61 185,-131 249,-205 -144,-43 -263,-101 -364,-169 -126,-86 -223,-188 -307,-301 -167,-225 -333,-529 -490,-815 -304,-554 -490,-1038 -805,-1630 377,501 498,790 738,1204 65,111 131,231 198,354 155,282 319,582 479,798 75,101 161,191 271,266 109,74 245,134 418,175 9,1 18,4 26,9 35,21 47,67 25,103 -77,127 -206,243 -358,339 -91,56 -190,106 -292,146 45,2 95,-1 148,-6 153,-18 324,-67 476,-154 19,-13 44,-17 67,-8 39,14 59,57 45,96 -122,333 -311,592 -522,779 -220,194 -466,310 -689,348 30,52 93,110 174,165 135,93 316,171 485,204l0 0c11,2 22,7 31,14 33,25 40,72 15,105 -122,160 -351,294 -594,389 -206,80 -425,132 -595,145 61,81 110,165 144,252 53,137 69,283 45,444l-1 0c-1,9 -4,18 -9,27 -22,35 -68,47 -103,26 -447,-268 -766,-85 -1126,122 -94,53 -190,109 -299,161 -369,181 -764,326 -1169,440 -159,45 -836,206 -1456,216z" style="fill:#7918b6"/>
  <path class="Head-Pig7fil84" d="M12151 17846c-610,-96 -1204,-300 -1416,-360 -397,-113 -784,-254 -1144,-430 -97,-47 -194,-103 -289,-158 -374,-214 -707,-405 -1175,-176 -1,-92 14,-177 46,-258 44,-115 120,-223 222,-330 29,-30 27,-78 -2,-106 -18,-17 -41,-23 -63,-20 -150,22 -430,-32 -694,-135 -172,-66 -334,-153 -446,-253 148,-44 296,-115 414,-195 154,-106 260,-234 258,-353 0,-39 -31,-71 -69,-74l0 0c-216,-18 -466,-125 -690,-322 -155,-137 -297,-317 -405,-541 119,47 242,76 356,88 198,23 375,-5 471,-75 33,-25 41,-72 16,-105 -11,-15 -26,-24 -42,-28 -169,-42 -344,-114 -494,-208 -98,-61 -184,-131 -248,-205 144,-43 263,-101 364,-169 126,-86 223,-188 307,-301 167,-225 333,-529 490,-815 304,-554 490,-1038 805,-1630 -377,501 -498,790 -738,1204 -65,111 -131,231 -198,354 -155,282 -320,582 -479,798 -75,101 -161,191 -271,266 -109,74 -245,134 -419,175 -8,1 -17,4 -25,9 -35,21 -47,67 -25,103 77,127 206,243 358,339 91,56 190,106 292,146 -46,2 -95,-1 -148,-6 -153,-18 -324,-67 -476,-154 -19,-13 -44,-17 -68,-8 -38,14 -58,57 -44,96 122,333 310,592 522,779 220,194 466,310 689,348 -30,52 -93,110 -174,165 -135,93 -316,171 -486,204l0 0c-10,2 -21,7 -31,14 -32,25 -39,72 -14,105 122,160 351,294 594,389 206,80 424,132 595,145 -62,81 -110,165 -144,252 -53,137 -70,283 -45,444l1 0c1,9 4,18 9,27 21,35 67,47 103,26 447,-268 766,-85 1126,122 94,53 190,109 299,161 369,181 764,326 1168,440 160,45 837,206 1457,216z" style="fill:#006b7c"/>
 </g><g id="Mouth-Pig7">
 <animateTransform additive="sum" attributeName="transform" dur="10" repeatCount="indefinite" type="translate" values="0;0 200;0;0 200;0;0 200;0;0 200;0"/>
  <metadata id="CorelCorpID_110Corel-Layer"/>
  <g id="_2991504392880">
   <path class="Mouth-Pig7fil26" d="M13682 14791c-410,3 -752,730 -1149,727 407,31 489,116 1149,119 660,-3 742,-88 1148,-119 -396,3 -739,-724 -1148,-727z" style="fill:#b41881"/>
   <path class="Mouth-Pig7fil172" d="M12732 15983c373,47 576,167 950,167 373,0 577,-120 950,-167 -357,147 -581,328 -950,328 -369,0 -593,-181 -950,-328z" style="fill:#64ae45"/>
   <path class="Mouth-Pig7fil0 Mouth-Pig7str0" d="M16358 14938c-178,292 -645,610 -998,568 -192,-23 -109,-74 -332,-68 -262,7 -505,34 -806,-12 -68,-10 -423,-49 -540,-41" style="fill:#d32e05"/>
   <path class="Mouth-Pig7fil0 Mouth-Pig7str0" d="M11006 14938c177,292 645,610 997,568 193,-23 110,-74 333,-68 262,7 505,34 806,-12 68,-10 423,-49 540,-41" style="fill:#e29fa5"/>
   <path class="Mouth-Pig7fil169" d="M16202 14828c-62,77 128,145 63,338 -4,10 111,-125 122,-124 108,14 198,11 298,53 169,70 -301,-494 -483,-267z" style="fill:#464fd1"/>
   <path class="Mouth-Pig7fil169" d="M11162 14828c62,77 -128,145 -63,338 3,10 -111,-125 -122,-124 -108,14 -198,11 -298,53 -170,70 300,-494 483,-267z" style="fill:#361bc9"/>
   <g>
    <g>
     <path class="Mouth-Pig7fil173 Mouth-Pig7str0" d="M11628 15246c-50,-130 -103,-321 -73,-520 56,-372 195,-333 266,-155 101,253 125,341 270,557 255,378 -303,527 -463,118z" style="fill:#ed6706"/>
     <path class="Mouth-Pig7fil10" d="M11642 15100c146,215 359,242 391,53 15,-91 140,262 53,296 -87,35 -397,58 -444,-349z" style="fill:#3209c1"/>
    </g>
    <g>
     <path class="Mouth-Pig7fil173 Mouth-Pig7str0" d="M15736 15246c50,-130 103,-321 73,-520 -56,-372 -195,-333 -266,-155 -101,253 -125,341 -270,557 -255,378 303,527 463,118z" style="fill:#3837b3"/>
     <path class="Mouth-Pig7fil10" d="M15722 15100c-146,215 -359,242 -391,53 -15,-91 -141,262 -53,296 87,35 397,58 444,-349z" style="fill:#f675fa"/>
    </g>
   </g>
   <path class="Mouth-Pig7fil169" d="M15270 15091c0,0 -101,234 -57,313 43,80 -1030,-10 -1030,-10 0,0 692,-337 1087,-303z" style="fill:#1970f6"/>
   <path class="Mouth-Pig7fil169" d="M12094 15091c0,0 101,234 57,313 -43,80 1030,-10 1030,-10 0,0 -693,-337 -1087,-303z" style="fill:#f52894"/>
  </g>
 </g><g id="EyesClosed-Pig7">
 <animateTransform additive="sum" attributeName="transform" dur="10" repeatCount="indefinite" type="translate" values="0;0 200;0;0 200;0;0 200;0;0 200;0"/>
  <metadata id="CorelCorpID_130Corel-Layer"/>
  <g id="_2991498753584">
   <path class="EyesClosed-Pig7fil38" d="M17589 10636c-127,21 -195,-160 -675,-295 -440,-123 -713,-35 -805,-187 -103,-168 162,-739 409,-789 753,-152 1450,1208 1071,1271z"/>
   <path class="EyesClosed-Pig7fil10" d="M17589 10636c-127,21 -195,-160 -675,-295 -440,-123 -713,-35 -805,-187 -103,-168 162,-739 409,-789 753,-152 1450,1208 1071,1271z"/>
  </g>
  <g id="_2991498752400">
   <path class="EyesClosed-Pig7fil38" d="M9775 10636c127,21 195,-160 675,-295 440,-123 713,-35 805,-187 103,-168 -162,-739 -409,-789 -753,-152 -1450,1208 -1071,1271z"/>
   <path class="EyesClosed-Pig7fil10" d="M9775 10636c127,21 195,-160 675,-295 440,-123 713,-35 805,-187 103,-168 -162,-739 -409,-789 -753,-152 -1450,1208 -1071,1271z"/>
  </g>
  <path class="EyesClosed-Pig7fil84" d="M15403 13609c78,-67 271,-33 531,7 1042,158 2199,-120 2683,-1209 -144,1319 -1613,1816 -2809,1381 -115,-42 -214,-94 -328,-77 -45,7 -179,-15 -77,-102z"/>
  <path class="EyesClosed-Pig7fil84" d="M11961 13609c-78,-67 -271,-33 -531,7 -1043,158 -2199,-120 -2684,-1209 145,1319 1614,1816 2810,1381 115,-42 214,-94 328,-77 45,7 179,-15 77,-102z"/>
 </g><g id="Eyes-Pig7">
 <animate attributeName="opacity" dur="10" repeatCount="indefinite" values="0;1;1;1;1;1;1;1;1;1;1;1;1;1;1;1;1;1;1;1;1;1;1;1;1;1;1;1;1;1;1;1;1;1;1;1;1;1;1;1;1;1;1;1;1;1;1;1;1;1;1;1;1;1;1;1;1;1;1;1;1;1;1;1;1;1;1;1;1;1;1;1;1;1;1;1;1;1;1;1;1;1;1;1;0;0"/>
 <animateTransform additive="sum" attributeName="transform" dur="10" repeatCount="indefinite" type="translate" values="0;0 200;0;0 200;0;0 200;0;0 200;0"/>
  <metadata id="CorelCorpID_131Corel-Layer"/>
  <g id="_2993573736752">
   <path class="Eyes-Pig7fil197" d="M17019 14281c-583,1 -1009,-212 -1377,-432 -425,-253 -407,-991 -263,-1587 140,-582 450,-1463 1499,-1431 229,8 449,109 627,232 316,218 886,669 1036,1303 208,886 -261,1913 -1522,1915z"/>
   <path class="Eyes-Pig7fil215" d="M15327 13128c4,-77 11,-156 22,-236l1336 -535 -1346 947c-5,-42 -10,-131 -12,-176zm1374 -790l-1306 205c-15,-1385 1038,-259 1312,-223 19,2 23,66 34,56l1205 -1047 141 193 49 55 -1396 817c-44,5 -43,-29 -39,-56zm1657 -457c55,94 175,278 206,372l-1795 137 1589 -509zm223 717c7,100 -4,270 -18,364l-1802 -557 1820 193zm-156 747c-48,115 -108,221 -176,315l-1510 -1249 1686 934zm-516 599c-25,19 -95,56 -120,72 -63,41 -160,96 -225,127l-840 -1726 1185 1527zm-749 312c-113,25 -273,45 -386,49l-69 -1899 455 1850zm-748 -4c-105,-14 -253,-135 -348,-160l626 -1694 -278 1854zm-649 -307c-22,-10 -70,-27 -90,-37 -84,-42 -152,-106 -205,-186l1216 -1345 -921 1568z"/>
   <path class="Eyes-Pig7fil216" d="M16986 10909c-640,-149 -1282,285 -1434,970 -152,684 244,1360 884,1509 640,149 1282,-285 1434,-969 151,-685 -244,-1361 -884,-1510z"/>
   <path class="Eyes-Pig7fil148" d="M15366 13439c-197,-879 180,-2421 1115,-2556 630,-92 1138,102 1545,597 332,404 591,1186 632,1632 -368,-1020 -1369,-1693 -2048,-1627 -863,84 -1229,938 -1244,1954z"/>
   <g>
    <circle class="Eyes-Pig7fil173" r="235" transform="matrix(0.805222 -2.39867 1.88046 0.461536 16282.1 11856.2)"/>
    <circle class="Eyes-Pig7fil173" r="235" transform="matrix(0.511451 -0.0476309 0.0595148 0.521886 17490.7 12785.1)"/>
    <circle class="Eyes-Pig7fil173" r="235" transform="matrix(0.554042 -1.05186 0.853042 0.366906 17645.7 13279.8)"/>
    <path class="Eyes-Pig7fil173" d="M18289 12815c120,779 -748,1349 -1178,1226 441,-98 1005,-604 1178,-1226z"/>
   </g>
   <path class="Eyes-Pig7fil0 Eyes-Pig7str0" d="M15339 13289c0,0 -1,409 303,560 120,60 333,164 559,270 1032,482 2349,-147 2411,-1292 50,-904 -1310,-2574 -2501,-1772 -750,505 -824,1385 -772,2234z"/>
  </g>
  <g id="_2991550381328">
   <path class="Eyes-Pig7fil200" d="M10345 14281c583,1 1009,-212 1377,-432 424,-253 407,-991 263,-1587 -140,-582 -450,-1463 -1500,-1431 -228,8 -448,109 -627,232 -316,218 -885,669 -1035,1303 -208,886 261,1913 1522,1915z"/>
   <path class="Eyes-Pig7fil217" d="M12037 13128c-4,-77 -11,-156 -22,-236l-1337 -535 1347 947c5,-42 9,-131 12,-176zm-1374 -790l1306 205c15,-1385 -1038,-259 -1312,-223 -19,2 -23,66 -34,56l-1206 -1047 -140 193 -50 55 1397 817c43,5 42,-29 39,-56zm-1657 -457c-55,94 -175,278 -206,372l1794 137 -1588 -509zm-224 717c-6,100 5,270 19,364l1801 -557 -1820 193zm157 747c48,115 108,221 176,315l1510 -1249 -1686 934zm516 599c25,19 95,56 120,72 63,41 160,96 225,127l840 -1726 -1185 1527zm748 312c114,25 274,45 387,49l69 -1899 -456 1850zm749 -4c105,-14 252,-135 348,-160l-626 -1694 278 1854zm649 -307c22,-10 69,-27 90,-37 84,-42 152,-106 204,-186l-1215 -1345 921 1568z"/>
   <path class="Eyes-Pig7fil218" d="M10378 10909c640,-149 1282,285 1434,970 151,684 -244,1360 -884,1509 -640,149 -1282,-285 -1434,-969 -151,-685 244,-1361 884,-1510z"/>
   <path class="Eyes-Pig7fil148" d="M11998 13439c196,-879 -180,-2421 -1115,-2556 -630,-92 -1138,102 -1545,597 -333,404 -592,1186 -632,1632 368,-1020 1368,-1693 2048,-1627 863,84 1229,938 1244,1954z"/>
   <g>
    <circle class="Eyes-Pig7fil173" r="235" transform="matrix(0.805222 -2.39867 1.88046 0.461536 9959.72 11856.2)"/>
    <circle class="Eyes-Pig7fil173" r="235" transform="matrix(0.511451 -0.0476309 0.0595148 0.521886 11168.3 12785.1)"/>
    <circle class="Eyes-Pig7fil173" r="235" transform="matrix(0.554042 -1.05186 0.853042 0.366906 11323.2 13279.8)"/>
    <path class="Eyes-Pig7fil173" d="M9075 12815c-120,779 747,1349 1178,1226 -441,-98 -1005,-604 -1178,-1226z"/>
   </g>
   <path class="Eyes-Pig7fil0 Eyes-Pig7str0" d="M12025 13289c0,0 1,409 -303,560 -120,60 -333,164 -560,270 -1031,482 -2348,-147 -2411,-1292 -49,-904 1311,-2574 2502,-1772 750,505 824,1385 772,2234z"/>
  </g>
 </g><g id="Moustache-Pig0">
 <animateTransform additive="sum" attributeName="transform" dur="10" repeatCount="indefinite" type="translate" values="0;0 200;0;0 200;0;0 200;0;0 200;0"/>
  <metadata id="CorelCorpID_136Corel-Layer"/>
  <rect class="Moustache-Pig0fil0" height="1459" width="1352" x="13006" y="12662"/>
 </g><g id="Nose-Pig0">
 <animateTransform additive="sum" attributeName="transform" dur="10" repeatCount="indefinite" type="translate" values="0;0 200;0;0 200;0;0 200;0;0 200;0"/>
  <metadata id="CorelCorpID_141Corel-Layer"/>
  <g id="_2991533171152">
   <path class="Nose-Pig0fil236 Nose-Pig0str0" d="M13682 15431c688,0 1646,200 1573,-487 -68,-630 -928,-1635 -1573,-1635 -645,0 -1505,1005 -1573,1635 -73,687 885,487 1573,487z" style="fill:#81ee30"/>
   <g>
    <path class="Nose-Pig0fil26 Nose-Pig0str3" d="M14332 14239c-113,0 -205,188 -205,418 0,231 92,418 205,418 114,0 206,-187 206,-418 -1,-230 -93,-418 -206,-418z" style="fill:#3882a9"/>
    <path class="Nose-Pig0fil237 Nose-Pig0str3" d="M14332 14239c-113,0 -205,188 -205,418 0,231 92,418 205,418 114,0 206,-187 206,-418 -1,-230 -93,-418 -206,-418z" style="fill:#6c4d23"/>
   </g>
   <g>
    <path class="Nose-Pig0fil26 Nose-Pig0str3" d="M13032 14239c113,0 205,188 205,418 0,231 -92,418 -205,418 -114,0 -206,-187 -206,-418 0,-230 93,-418 206,-418z" style="fill:#8ff811"/>
    <path class="Nose-Pig0fil237 Nose-Pig0str3" d="M13032 14239c113,0 205,188 205,418 0,231 -92,418 -205,418 -114,0 -206,-187 -206,-418 0,-230 93,-418 206,-418z" style="fill:#b534ee"/>
   </g>
  </g>
 </g><g id="HatG-Medium">
 <animateTransform additive="sum" attributeName="transform" dur="10" repeatCount="indefinite" type="translate" values="0;0 200;0;0 200;0;0 200;0;0 200;0"/>
  <metadata id="CorelCorpID_66Corel-Layer"/>
  <path class="HatG-Mediumfil14new" d="M7531 13089c2101,487 3675,-1155 5913,-1187 2169,-31 4070,1356 6337,650 -719,-580 -1088,-1273 -1807,-1853 -1486,-133 -2972,-266 -4457,-399 -1613,345 -3225,689 -4838,1033 -465,483 -683,1272 -1148,1756z" style="fill:#ff11b8"/>
  <path class="HatG-Mediumfil635new" d="M7709 11316c-106,-2279 -184,-3213 638,-4380 673,-956 4533,-2691 5040,-2243 561,603 1046,3598 246,5547 -1977,83 -3951,427 -5924,1076z" style="fill:#7811bb"/>
  <path class="HatG-Mediumfil636new" d="M7709 11316c-106,-2279 -184,-3213 638,-4380 162,-230 509,-506 950,-785 -1513,1132 -1360,3016 -1030,4988 -95,29 -463,146 -558,177z" style="fill:#dddb2a"/>
  <path class="HatG-Mediumfil637new" d="M13414 4670c126,1861 93,3713 219,5570 2058,-86 4120,111 6188,544 -12,-2183 -460,-3199 -1240,-4202 -324,-418 -1289,-824 -2212,-1251 -1264,-584 -2675,-852 -2955,-661z" style="fill:#d296f4"/>
  <path class="HatG-Mediumfil638new" d="M18334 6346c102,79 186,157 247,236 780,1003 1228,2019 1240,4202 -73,-15 -421,-108 -494,-123 197,-1798 -506,-3916 -1369,-4522 -13,-8 386,219 376,207z" style="fill:#7cb6fd"/>
  <path class="HatG-Mediumfil33new HatG-Mediumstr0new" d="M7709 11316c-106,-2279 -184,-3213 638,-4380 673,-956 4533,-2691 5040,-2243 200,-234 1671,32 2982,638 923,427 1888,833 2212,1251 780,1003 1228,2019 1240,4202 -4056,-849 -8087,-791 -12112,532z" style="fill:#f64456"/>
  <path class="HatG-Mediumfil639new HatG-Mediumstr19new" d="M13621 10126c-98,-1837 -80,-3667 -231,-5459" style="fill:#b94eac"/>
  <path class="HatG-Mediumfil640new" d="M7531 13089c-370,0 -1426,-339 -1009,-1291 518,-1181 5239,-1804 7140,-1941 2666,-192 7392,272 7422,1763 10,530 -464,966 -1303,932 -1065,-1618 -3963,-1937 -6182,-1916 -2113,20 -5501,1171 -6068,2453z" style="fill:#7b151b"/>
  <path class="HatG-Mediumfil639new HatG-Mediumstr20new" d="M13209 10079c13,-1387 -159,-3697 -178,-4811 -6,-362 10,-592 65,-630" style="fill:#207176"/>
  <path class="HatG-Mediumfil639new HatG-Mediumstr20new" d="M14076 10045c-134,-1380 -165,-3696 -243,-4807 -26,-362 -62,-590 -120,-623" style="fill:#c723d6"/>
  <path class="HatG-Mediumfil639new HatG-Mediumstr20new" d="M19199 10436c-4,-2389 -724,-4035 -1871,-4670" style="fill:#794ea0"/>
  <path class="HatG-Mediumfil639new HatG-Mediumstr20new" d="M8439 10844c-402,-2263 -278,-3874 1357,-5006" style="fill:#e7bb7a"/>
  <path class="HatG-Mediumfil641new" d="M6439 12344c-29,-154 -9,-334 83,-546 518,-1181 5239,-1804 7140,-1941 2666,-192 7392,272 7422,1763 1,55 -3,108 -13,161 -260,-1401 -4812,-1836 -7409,-1650 -1901,137 -6622,760 -7140,1942 -42,97 -69,187 -83,271z" style="fill:#69e329"/>
  <path class="HatG-Mediumfil33new HatG-Mediumstr6new" d="M7531 13089c-370,0 -1426,-339 -1009,-1291 518,-1181 5239,-1804 7140,-1941 2666,-192 7392,272 7422,1763 10,530 -464,966 -1303,932 -1065,-1618 -3963,-1937 -6182,-1916 -2113,20 -5501,1171 -6068,2453z" style="fill:#b7bcce"/>
 </g></svg>