<svg xmlns="http://www.w3.org/2000/svg" xmlns:xlink="http://www.w3.org/1999/xlink" style="shape-rendering:geometricPrecision; text-rendering:geometricPrecision; image-rendering:optimizeQuality; fill-rule:evenodd; clip-rule:evenodd" version="1.1" viewBox="0 0 29000 29000" xml:space="preserve"><defs><style type="text/css">.HairBack-Bear0fil22 {fill:none}
.Tail-Bear0fil22 {fill:none}
.RightFoot-Bear3fil432 {fill:url(#RightFoot-Bear3id650)}
.RightFoot-Bear3fil14 {fill:black;fill-opacity:0.200000}
.RightFoot-Bear3fil32 {fill:black;fill-rule:nonzero}
.RightLeg-Bear0fil437 {fill:url(#RightLeg-Bear0id151)}
.RightLeg-Bear0fil14 {fill:black;fill-opacity:0.200000}
.RightLeg-Bear0fil32 {fill:black;fill-rule:nonzero}
.LeftFoot-Bear3fil442 {fill:url(#LeftFoot-Bear3id651)}
.LeftFoot-Bear3fil14 {fill:black;fill-opacity:0.200000}
.LeftFoot-Bear3fil32 {fill:black;fill-rule:nonzero}
.LeftLeg-Bear0fil447 {fill:url(#LeftLeg-Bear0id520)}
.LeftLeg-Bear0fil14 {fill:black;fill-opacity:0.200000}
.LeftLeg-Bear0fil32 {fill:black;fill-rule:nonzero}
.RightHand-Bear0fil452 {fill:url(#RightHand-Bear0id388)}
.RightHand-Bear0fil14 {fill:black;fill-opacity:0.200000}
.RightHand-Bear0fil22 {fill:none}
.RightHand-Bear0str0 {stroke:black;stroke-width:150;stroke-linecap:round;stroke-linejoin:round}
.RightPaw-Bear0fil457 {fill:#cc9b53}
.RightPaw-Bear0fil32 {fill:black;fill-rule:nonzero}
.RightPaw-Bear0fil458 {fill:#A16A6A}
.LeftHand-Bear0fil465 {fill:url(#LeftHand-Bear0id386)}
.LeftHand-Bear0fil14 {fill:black;fill-opacity:0.200000}
.LeftHand-Bear0fil22 {fill:none}
.LeftHand-Bear0str0 {stroke:black;stroke-width:150;stroke-linecap:round;stroke-linejoin:round}
.Body-Bear5fil476 {fill:url(#Body-Bear5id267)}
.Body-Bear5fil14 {fill:black;fill-opacity:0.200000}
.Body-Bear5fil32 {fill:black;fill-rule:nonzero}
.Body-Bear5fil22 {fill:none}
.Body-Bear5fil482 {fill:url(#Body-Bear5id211)}
.Head-Bear1fil513 {fill:url(#Head-Bear1id272)}
.Head-Bear1fil14 {fill:black;fill-opacity:0.200000}
.Head-Bear1fil32 {fill:black;fill-rule:nonzero}
.Head-Bear1fil514 {fill:url(#Head-Bear1id269)}
.Mouth-Bear3fil100 {fill:black}
.Mouth-Bear3fil22 {fill:none}
.Mouth-Bear3str0 {stroke:black;stroke-width:150;stroke-linecap:round;stroke-linejoin:round}
.Mouth-Bear3fil151 {fill:#FF9999}
.Eyes-Bear8fil570 {fill:url(#Eyes-Bear8id836)}
.Eyes-Bear8fil387 {fill:url(#Eyes-Bear8id1039)}
.Eyes-Bear8fil571 {fill:url(#Eyes-Bear8id748)}
.Eyes-Bear8fil152 {fill:white}
.Eyes-Bear8fil157 {fill:black;fill-opacity:0.501961}
.Eyes-Bear8fil155 {fill:#ccc8a4}
.Eyes-Bear8fil14 {fill:black;fill-opacity:0.200000}
.Eyes-Bear8fil572 {fill:url(#Eyes-Bear8id956)}
.Eyes-Bear8fil573 {fill:url(#Eyes-Bear8id1045)}
.Eyes-Bear8fil574 {fill:url(#Eyes-Bear8id777)}
.Eyes-Bear8fil22 {fill:none}
.Eyes-Bear8str4 {stroke:black;stroke-width:150}
.Moustache-Bear2fil587 {fill:url(#Moustache-Bear2id113)}
.Moustache-Bear2fil32 {fill:black;fill-rule:nonzero}
.Moustache-Bear2fil14 {fill:black;fill-opacity:0.200000}
.Moustache-Bear2fil588 {fill:url(#Moustache-Bear2id111)}
.Nose-Bear0fil598 {fill:url(#Nose-Bear0id451)}
.Nose-Bear0str0 {stroke:black;stroke-width:150;stroke-linecap:round;stroke-linejoin:round}
.HatBanderasBack-Bigfil3new {fill:black;fill-opacity:0.301961}
.HatBanderasBack-Bigfil17new {fill:url(#HatBanderasBack-Bigid273new)}
.HatBanderasBack-Bigstr2new {stroke:#2B2A29;stroke-width:150}
.BraceletLeather-Bigfil43new {fill:white;fill-opacity:0.200000}
.BraceletLeather-Bigfil46new {fill:white;fill-rule:nonzero;fill-opacity:0.200000}
.BraceletLeather-Bigfil51new {fill:url(#BraceletLeather-Bigid222new)}
.BraceletLeather-Bigstr3new {stroke:black;stroke-width:100;stroke-linecap:round;stroke-linejoin:round}
.BraceletLeather-Bigfil33new {fill:none}
.BraceletLeather-Bigfil52new {fill:url(#BraceletLeather-Bigid38new)}
.BraceletLeather-Bigfil53new {fill:url(#BraceletLeather-Bigid698new);fill-rule:nonzero}
.BraceletLeather-Bigstr4new {stroke:black;stroke-width:100}
.BraceletLeather-Bigfil47new {fill:none;fill-rule:nonzero}
.BraceletLeather-Bigfil54new {fill:url(#BraceletLeather-Bigid16new)}
.BraceletLeather-Bigfil55new {fill:url(#BraceletLeather-Bigid206new)}
.BraceletLeather-Bigfil56new {fill:url(#BraceletLeather-Bigid691new);fill-rule:nonzero}
.NecklaceTiefil268new {fill:#CCCCFF;fill-opacity:0.301961}
.NecklaceTiefil264new {fill:url(#NecklaceTieid58new)}
.NecklaceTiestr0new {stroke:black;stroke-width:150;stroke-linecap:round;stroke-linejoin:round}
.NecklaceTiefil265new {fill:url(#NecklaceTieid73new)}
.NecklaceTiefil266new {fill:url(#NecklaceTieid18new)}
.NecklaceTiefil267new {fill:url(#NecklaceTieid9new)}
.HatBanderas-Bigfil623new {fill:url(#HatBanderas-Bigid707new);fill-rule:nonzero}
.HatBanderas-Bigfil609new {fill:#FFCC99;fill-rule:nonzero;fill-opacity:0.301961}
.HatBanderas-Bigfil246new {fill:#643200;fill-opacity:0.200000}
.HatBanderas-Bigfil619new {fill:#e3b464;fill-opacity:0.200000}
.HatBanderas-Bigfil14new {fill:black;fill-opacity:0.200000}
.HatBanderas-Bigfil633new {fill:url(#HatBanderas-Bigid713new);fill-rule:nonzero}
.HatBanderas-Bigfil360new {fill:black;fill-rule:nonzero;fill-opacity:0.200000}
.HatBanderas-Bigfil47new {fill:none;fill-rule:nonzero}
.HatBanderas-Bigstr0new {stroke:black;stroke-width:150;stroke-linecap:round;stroke-linejoin:round}
.HatBanderas-Bigfil624new {fill:url(#HatBanderas-Bigid704new);fill-rule:nonzero}
.HatBanderas-Bigfil611new {fill:#DB9600}
.HatBanderas-Bigfil625new {fill:url(#HatBanderas-Bigid140new)}
.HatBanderas-Bigfil626new {fill:url(#HatBanderas-Bigid152new)}
.HatBanderas-Bigfil627new {fill:url(#HatBanderas-Bigid71new)}
.HatBanderas-Bigfil628new {fill:url(#HatBanderas-Bigid205new)}
.HatBanderas-Bigfil629new {fill:url(#HatBanderas-Bigid568new)}
.HatBanderas-Bigfil630new {fill:url(#HatBanderas-Bigid29new)}
.HatBanderas-Bigfil631new {fill:url(#HatBanderas-Bigid158new)}
.HatBanderas-Bigfil632new {fill:url(#HatBanderas-Bigid74new)}
.HatBanderas-Bigfil634new {fill:url(#HatBanderas-Bigid719new);fill-rule:nonzero}
.WeaponFlySwatterBack-Bigfil1 {fill:black;fill-rule:nonzero;fill-opacity:0.200000}
.WeaponFlySwatterBack-Bigfil6 {fill:url(#WeaponFlySwatterBack-Bigid29);fill-rule:nonzero}
.WeaponFlySwatterBack-Bigstr0 {stroke:black;stroke-width:150;stroke-linecap:round;stroke-linejoin:round}
.WeaponFlySwatter-Bigfil3 {fill:black;fill-opacity:0.200000}
.WeaponFlySwatter-Bigfil8 {fill:url(#WeaponFlySwatter-Bigid27);fill-rule:nonzero}
.WeaponFlySwatter-Bigfil1 {fill:black;fill-rule:nonzero;fill-opacity:0.200000}
.WeaponFlySwatter-Bigfil7 {fill:url(#WeaponFlySwatter-Bigid12)}
.WeaponFlySwatter-Bigstr0 {stroke:black;stroke-width:150;stroke-linecap:round;stroke-linejoin:round}
.WeaponFlySwatter-Bigfil5 {fill:none;fill-rule:nonzero}
.WeaponFlySwatter-Bigstr1 {stroke:black;stroke-width:150}
.LeftPawWeapon-Bear0fil0 {fill:#cc9b53}
.LeftPawWeapon-Bear0fil1 {fill:black;fill-rule:nonzero}
.AccessoryDuckfil122 {fill:url(#AccessoryDuckid90)}
.AccessoryDuckfil48 {fill:white;fill-opacity:0.501961}
.AccessoryDuckfil123 {fill:#CC1400;fill-opacity:0.301961}
.AccessoryDuckfil124 {fill:url(#AccessoryDuckid94)}
.AccessoryDuckfil3 {fill:black;fill-rule:nonzero}
.AccessoryDuckfil125 {fill:url(#AccessoryDuckid39)}
.AccessoryDuckfil126 {fill:url(#AccessoryDuckid95)}
.AccessoryDuckfil127 {fill:url(#AccessoryDuckid92)}
.AccessoryDuckfil2 {fill:none}
.AccessoryDuckfil128 {fill:#912323;fill-opacity:0.501961}
.AccessoryDuckfil14 {fill:white}
.AccessoryDuckfil129 {fill:white;fill-rule:nonzero;fill-opacity:0.501961}
.AccessoryDuckfil130 {fill:white;fill-rule:nonzero}
.AccessoryDuckstr1 {stroke:black;stroke-width:150}
.AccessoryDuckstr18 {stroke:#99CC66;stroke-width:150;stroke-linecap:round;stroke-linejoin:round}
.AccessoryDuckstr0 {stroke:black;stroke-width:150;stroke-linecap:round;stroke-linejoin:round}
</style><linearGradient gradientUnits="userSpaceOnUse" id="RightFoot-Bear3id650" x1="16088.3" x2="16088.3" y1="25409.6" y2="23879.2">
   <stop offset="0" style="stop-opacity:1; stop-color:#ccc8a4"/>
   <stop offset="0.729412" style="stop-opacity:1; stop-color:#f2f0da"/>
   <stop offset="1" style="stop-opacity:1; stop-color:#f2f0da"/>
  </linearGradient><linearGradient gradientUnits="objectBoundingBox" id="RightLeg-Bear0id151" x1="50%" x2="50%" xlink:href="#RightLeg-Bear0id150" y1="100%" y2="0%">
  </linearGradient><linearGradient gradientUnits="userSpaceOnUse" id="LeftFoot-Bear3id651" x1="11219.3" x2="11219.3" xlink:href="#LeftFoot-Bear3id650" y1="25409.6" y2="23879.2">
  </linearGradient><linearGradient gradientUnits="objectBoundingBox" id="LeftLeg-Bear0id520" x1="50%" x2="50%" xlink:href="#LeftLeg-Bear0id150" y1="100%" y2="0%">
  </linearGradient><linearGradient gradientUnits="objectBoundingBox" id="RightHand-Bear0id388" x1="36.9963%" x2="63.0034%" xlink:href="#RightHand-Bear0id75" y1="2.66464%" y2="97.3354%">
  </linearGradient><linearGradient gradientUnits="objectBoundingBox" id="LeftHand-Bear0id386" x1="63.0037%" x2="36.9966%" xlink:href="#LeftHand-Bear0id75" y1="2.66464%" y2="97.3354%">
  </linearGradient><linearGradient gradientUnits="objectBoundingBox" id="Body-Bear5id267" x1="50%" x2="50%" xlink:href="#Body-Bear5id266" y1="0%" y2="100%">
  </linearGradient><linearGradient gradientUnits="userSpaceOnUse" id="Body-Bear5id211" x1="13653.8" x2="13653.8" y1="17305.4" y2="21758.8">
   <stop offset="0" style="stop-opacity:1; stop-color:#f2efdf"/>
   <stop offset="0.721569" style="stop-opacity:1; stop-color:#fefdf7"/>
   <stop offset="1" style="stop-opacity:1; stop-color:#fefdf7"/>
  </linearGradient><linearGradient gradientUnits="userSpaceOnUse" id="Head-Bear1id272" x1="13653.8" x2="13653.8" y1="17643.8" y2="7273.2">
   <stop offset="0" style="stop-opacity:1; stop-color:#f2efdf"/>
   <stop offset="0.580392" style="stop-opacity:1; stop-color:#fefdf7"/>
   <stop offset="1" style="stop-opacity:1; stop-color:#fefdf7"/>
  </linearGradient><linearGradient gradientUnits="userSpaceOnUse" id="Head-Bear1id269" x1="13653.8" x2="13653.8" xlink:href="#Head-Bear1id74" y1="15431.8" y2="10188.8">
  </linearGradient><linearGradient gradientUnits="userSpaceOnUse" id="Eyes-Bear8id836" x1="10362.1" x2="9654.95" xlink:href="#Eyes-Bear8id27" y1="14676.2" y2="11515">
  </linearGradient><radialGradient cx="49.9999%" cy="50.0002%" fx="49.9999%" fy="50.0002%" gradientUnits="objectBoundingBox" id="Eyes-Bear8id1039" r="50.0001%">
   <stop offset="0" style="stop-opacity:1; stop-color:#f9cfee"/>
   <stop offset="1" style="stop-opacity:1; stop-color:#7a476d"/>
  </radialGradient><linearGradient gradientUnits="userSpaceOnUse" id="Eyes-Bear8id748" x1="9941.09" x2="10431.8" xlink:href="#Eyes-Bear8id384" y1="11484.9" y2="14049.7">
  </linearGradient><linearGradient gradientUnits="userSpaceOnUse" id="Eyes-Bear8id956" x1="16945.5" x2="17652.7" xlink:href="#Eyes-Bear8id27" y1="14676.2" y2="11515">
  </linearGradient><radialGradient cx="17298.2" cy="13284.5" fx="17298.2" fy="13284.5" gradientTransform="matrix(-1 -0 -0 0.895532 34596 1388)" gradientUnits="userSpaceOnUse" id="Eyes-Bear8id1045" r="1677.74" xlink:href="#Eyes-Bear8id1039">
  </radialGradient><linearGradient gradientUnits="userSpaceOnUse" id="Eyes-Bear8id777" x1="17366.6" x2="16875.8" xlink:href="#Eyes-Bear8id384" y1="11484.9" y2="14049.7">
  </linearGradient><linearGradient gradientUnits="userSpaceOnUse" id="Moustache-Bear2id113" x1="13587" x2="9835.75" xlink:href="#Moustache-Bear2id49" y1="14857.8" y2="14600.9">
  </linearGradient><linearGradient gradientUnits="userSpaceOnUse" id="Moustache-Bear2id111" x1="13720.7" x2="17471.9" xlink:href="#Moustache-Bear2id49" y1="14857.8" y2="14600.9">
  </linearGradient><linearGradient gradientUnits="userSpaceOnUse" id="Nose-Bear0id451" x1="13653.8" x2="13653.8" y1="14108.6" y2="14926.9">
   <stop offset="0" style="stop-opacity:1; stop-color:#FFCCCC"/>
   <stop offset="1" style="stop-opacity:1; stop-color:#453F2C"/>
  </linearGradient><linearGradient gradientUnits="userSpaceOnUse" id="HatBanderasBack-Bigid273new" x1="11276.3" x2="11276.3" y1="15499.7" y2="11357.8">
   <stop offset="0" style="stop-opacity:1; stop-color:#3B3621"/>
   <stop offset="1" style="stop-opacity:1; stop-color:#0D0A05"/>
  </linearGradient><linearGradient gradientUnits="userSpaceOnUse" id="BraceletLeather-Bigid222new" x1="8086.3" x2="7982.38" xlink:href="#BraceletLeather-Bigid14new" y1="19659.1" y2="18801.5">
  </linearGradient><linearGradient gradientUnits="userSpaceOnUse" id="BraceletLeather-Bigid38new" x1="7999.57" x2="7492.63" xlink:href="#BraceletLeather-Bigid14new" y1="19911.5" y2="19246.5">
  </linearGradient><linearGradient gradientUnits="userSpaceOnUse" id="BraceletLeather-Bigid698new" x1="8077.58" x2="10215.1" xlink:href="#BraceletLeather-Bigid691new" y1="19870.6" y2="20648.6">
  </linearGradient><linearGradient gradientUnits="userSpaceOnUse" id="BraceletLeather-Bigid16new" x1="19221.4" x2="19325.3" xlink:href="#BraceletLeather-Bigid14new" y1="19659.1" y2="18801.5">
  </linearGradient><linearGradient gradientUnits="userSpaceOnUse" id="BraceletLeather-Bigid206new" x1="19308.1" x2="19815" xlink:href="#BraceletLeather-Bigid14new" y1="19911.5" y2="19246.5">
  </linearGradient><linearGradient gradientUnits="userSpaceOnUse" id="NecklaceTieid58new" x1="13176.9" x2="11132.5" y1="18651.8" y2="17257.3">
   <stop offset="0" style="stop-opacity:1; stop-color:#101044"/>
   <stop offset="1" style="stop-opacity:1; stop-color:#28258B"/>
  </linearGradient><linearGradient gradientUnits="userSpaceOnUse" id="NecklaceTieid73new" x1="14186.4" x2="16231.9" xlink:href="#NecklaceTieid58new" y1="18651.2" y2="17257.9">
  </linearGradient><linearGradient gradientUnits="userSpaceOnUse" id="NecklaceTieid18new" x1="14480.3" x2="12883.5" y1="21878.4" y2="19905.9">
   <stop offset="0" style="stop-opacity:1; stop-color:#000024"/>
   <stop offset="0.509804" style="stop-opacity:1; stop-color:#4946B4"/>
   <stop offset="1" style="stop-opacity:1; stop-color:#0D0A69"/>
  </linearGradient><linearGradient gradientUnits="userSpaceOnUse" id="NecklaceTieid9new" x1="12762" x2="14601.8" y1="18978.2" y2="18978.2">
   <stop offset="0" style="stop-opacity:1; stop-color:#000024"/>
   <stop offset="0.631373" style="stop-opacity:1; stop-color:#4946B4"/>
   <stop offset="1" style="stop-opacity:1; stop-color:#0D0A69"/>
  </linearGradient><linearGradient gradientUnits="userSpaceOnUse" id="HatBanderas-Bigid707new" x1="13670.8" x2="11831.7" xlink:href="#HatBanderas-Bigid682new" y1="11979.1" y2="4520.85">
  </linearGradient><linearGradient gradientUnits="userSpaceOnUse" id="HatBanderas-Bigid713new" x1="14322.9" x2="11464.2" xlink:href="#HatBanderas-Bigid682new" y1="15195.2" y2="3601.67">
  </linearGradient><linearGradient gradientUnits="userSpaceOnUse" id="HatBanderas-Bigid704new" x1="13075.4" x2="11961.4" xlink:href="#HatBanderas-Bigid667new" y1="12338.9" y2="7821.09">
  </linearGradient><linearGradient gradientUnits="userSpaceOnUse" id="HatBanderas-Bigid140new" x1="17736" x2="15961.8" xlink:href="#HatBanderas-Bigid29new" y1="6731.01" y2="4762.15">
  </linearGradient><linearGradient gradientUnits="userSpaceOnUse" id="HatBanderas-Bigid152new" x1="18494.5" x2="19278.7" xlink:href="#HatBanderas-Bigid29new" y1="6914.24" y2="3246.26">
  </linearGradient><linearGradient gradientUnits="userSpaceOnUse" id="HatBanderas-Bigid71new" x1="19010.8" x2="24291.2" xlink:href="#HatBanderas-Bigid29new" y1="5521.31" y2="4637.45">
  </linearGradient><linearGradient gradientUnits="userSpaceOnUse" id="HatBanderas-Bigid205new" x1="23408.9" x2="24002.8" xlink:href="#HatBanderas-Bigid29new" y1="9442.67" y2="6859.71">
  </linearGradient><linearGradient gradientUnits="userSpaceOnUse" id="HatBanderas-Bigid568new" x1="18705.9" x2="20223" xlink:href="#HatBanderas-Bigid29new" y1="6293.08" y2="7712.82">
  </linearGradient><linearGradient gradientUnits="userSpaceOnUse" id="HatBanderas-Bigid158new" x1="21132" x2="20614.5" xlink:href="#HatBanderas-Bigid29new" y1="7919.52" y2="5581.1">
  </linearGradient><linearGradient gradientUnits="userSpaceOnUse" id="HatBanderas-Bigid74new" x1="16686.2" x2="23999.5" xlink:href="#HatBanderas-Bigid29new" y1="7321.51" y2="7504.35">
  </linearGradient><linearGradient gradientUnits="userSpaceOnUse" id="HatBanderas-Bigid719new" x1="19780.7" x2="19467.9" xlink:href="#HatBanderas-Bigid708new" y1="6075.42" y2="5269.78">
  </linearGradient><linearGradient gradientUnits="userSpaceOnUse" id="WeaponFlySwatterBack-Bigid29" x1="8060.45" x2="9546.52" xlink:href="#WeaponFlySwatterBack-Bigid24" y1="21972" y2="20410.3">
  </linearGradient><linearGradient gradientUnits="userSpaceOnUse" id="WeaponFlySwatter-Bigid27" x1="12629.4" x2="15270.4" xlink:href="#WeaponFlySwatter-Bigid24" y1="25496.8" y2="22721.5">
  </linearGradient><linearGradient gradientUnits="userSpaceOnUse" id="WeaponFlySwatter-Bigid12" x1="9831.51" x2="12472" xlink:href="#WeaponFlySwatter-Bigid0" y1="22611.9" y2="22471.5">
  </linearGradient><radialGradient cx="5981.45" cy="24530.5" fx="5981.45" fy="24530.5" gradientTransform="matrix(1.08261 -0.0530996 0.0971573 0.591681 -2877 10334)" gradientUnits="userSpaceOnUse" id="AccessoryDuckid90" r="1635.36">
   <stop offset="0" style="stop-opacity:1; stop-color:#FFF256"/>
   <stop offset="0.631373" style="stop-opacity:1; stop-color:#FEE75C"/>
   <stop offset="1" style="stop-opacity:1; stop-color:#FFD83B"/>
  </radialGradient><radialGradient cx="6799.04" cy="23034.7" fx="6799.04" fy="23034.7" gradientTransform="matrix(1.0826 -0.0971566 0.0971566 1.0826 -2800 -1242)" gradientUnits="userSpaceOnUse" id="AccessoryDuckid94" r="935.18" xlink:href="#AccessoryDuckid90">
  </radialGradient><linearGradient gradientUnits="userSpaceOnUse" id="AccessoryDuckid39" x1="6677.2" x2="6677.2" y1="22471.8" y2="23026.9">
   <stop offset="0" style="stop-opacity:1; stop-color:black"/>
   <stop offset="1" style="stop-opacity:1; stop-color:#453223"/>
  </linearGradient><radialGradient cx="7621.66" cy="22955.4" fx="7621.66" fy="22955.4" gradientTransform="matrix(1.00003 -0 -0 0.645815 0 8130)" gradientUnits="userSpaceOnUse" id="AccessoryDuckid95" r="730.87">
   <stop offset="0" style="stop-opacity:1; stop-color:#FFB73B"/>
   <stop offset="1" style="stop-opacity:1; stop-color:#E05A00"/>
  </radialGradient><radialGradient cx="5594.96" cy="24567.2" fx="5594.96" fy="24567.2" gradientTransform="matrix(1.0826 -0.0578086 0.0971565 0.644153 -2849 9066)" gradientUnits="userSpaceOnUse" id="AccessoryDuckid92" r="719.36" xlink:href="#AccessoryDuckid90">
  </radialGradient><linearGradient gradientUnits="userSpaceOnUse" id="RightLeg-Bear0id150" x1="15526.7" x2="15526.7" y1="24311.8" y2="20742.8">
   <stop offset="0" style="stop-opacity:1; stop-color:#e6bd81"/>
   <stop offset="0.278431" style="stop-opacity:1; stop-color:#e6bd81"/>
   <stop offset="1" style="stop-opacity:1; stop-color:#cc9b53"/>
  </linearGradient><linearGradient gradientUnits="userSpaceOnUse" id="LeftFoot-Bear3id650" x1="16088.3" x2="16088.3" y1="25409.6" y2="23879.2">
   <stop offset="0" style="stop-opacity:1; stop-color:#ccc8a4"/>
   <stop offset="0.729412" style="stop-opacity:1; stop-color:#f2f0da"/>
   <stop offset="1" style="stop-opacity:1; stop-color:#f2f0da"/>
  </linearGradient><linearGradient gradientUnits="userSpaceOnUse" id="LeftLeg-Bear0id150" x1="15526.7" x2="15526.7" y1="24311.8" y2="20742.8">
   <stop offset="0" style="stop-opacity:1; stop-color:#e6bd81"/>
   <stop offset="0.278431" style="stop-opacity:1; stop-color:#e6bd81"/>
   <stop offset="1" style="stop-opacity:1; stop-color:#cc9b53"/>
  </linearGradient><linearGradient gradientUnits="userSpaceOnUse" id="RightHand-Bear0id75" x1="17042.3" x2="17994.1" y1="17293.3" y2="21110.7">
   <stop offset="0" style="stop-opacity:1; stop-color:#a67b3c"/>
   <stop offset="0.0784314" style="stop-opacity:1; stop-color:#a67b3c"/>
   <stop offset="0.768627" style="stop-opacity:1; stop-color:#cc9b53"/>
   <stop offset="1" style="stop-opacity:1; stop-color:#cc9b53"/>
  </linearGradient><linearGradient gradientUnits="userSpaceOnUse" id="LeftHand-Bear0id75" x1="17042.3" x2="17994.1" y1="17293.3" y2="21110.7">
   <stop offset="0" style="stop-opacity:1; stop-color:#a67b3c"/>
   <stop offset="0.0784314" style="stop-opacity:1; stop-color:#a67b3c"/>
   <stop offset="0.768627" style="stop-opacity:1; stop-color:#cc9b53"/>
   <stop offset="1" style="stop-opacity:1; stop-color:#cc9b53"/>
  </linearGradient><linearGradient gradientUnits="userSpaceOnUse" id="Body-Bear5id266" x1="13653.8" x2="13653.8" y1="17442" y2="23250.9">
   <stop offset="0" style="stop-opacity:1; stop-color:#a67b3c"/>
   <stop offset="0.0588235" style="stop-opacity:1; stop-color:#a67b3c"/>
   <stop offset="0.529412" style="stop-opacity:1; stop-color:#cc9b53"/>
   <stop offset="1" style="stop-opacity:1; stop-color:#e6bd81"/>
  </linearGradient><linearGradient gradientUnits="userSpaceOnUse" id="Head-Bear1id74" x1="15961" x2="18418.2" y1="23174.1" y2="17871.9">
   <stop offset="0" style="stop-opacity:1; stop-color:#a67b3c"/>
   <stop offset="1" style="stop-opacity:1; stop-color:#cc9b53"/>
  </linearGradient><linearGradient gradientUnits="userSpaceOnUse" id="Eyes-Bear8id27" x1="16937.6" x2="16937.6" y1="14961.3" y2="11448.6">
   <stop offset="0" style="stop-opacity:1; stop-color:#7a476d"/>
   <stop offset="1" style="stop-opacity:1; stop-color:black"/>
  </linearGradient><linearGradient gradientUnits="userSpaceOnUse" id="Eyes-Bear8id384" x1="16417.8" x2="16417.8" y1="11784.3" y2="14068.5">
   <stop offset="0" style="stop-opacity:1; stop-color:black"/>
   <stop offset="0.45" style="stop-opacity:1; stop-color:black"/>
   <stop offset="1" style="stop-opacity:1; stop-color:#613355"/>
  </linearGradient><linearGradient gradientUnits="userSpaceOnUse" id="Moustache-Bear2id49" x1="13715.8" x2="13715.8" y1="6802.99" y2="8218.57">
   <stop offset="0" style="stop-opacity:1; stop-color:#e3b464"/>
   <stop offset="1" style="stop-opacity:1; stop-color:#fcd287"/>
  </linearGradient><linearGradient gradientUnits="userSpaceOnUse" id="BraceletLeather-Bigid14new" x1="8682.96" x2="8745.92" y1="19682.8" y2="19053.1">
   <stop offset="0" style="stop-opacity:1; stop-color:#683501"/>
   <stop offset="1" style="stop-opacity:1; stop-color:#B08227"/>
  </linearGradient><linearGradient gradientUnits="userSpaceOnUse" id="BraceletLeather-Bigid691new" x1="19230.1" x2="17092.5" y1="19870.6" y2="20648.6">
   <stop offset="0" style="stop-opacity:1; stop-color:#643300"/>
   <stop offset="0.321569" style="stop-opacity:1; stop-color:#B5872A"/>
   <stop offset="1" style="stop-opacity:1; stop-color:#643200"/>
  </linearGradient><linearGradient gradientUnits="userSpaceOnUse" id="HatBanderas-Bigid682new" x1="13602.1" x2="11925.5" y1="11547.2" y2="4747.37">
   <stop offset="0" style="stop-opacity:1; stop-color:#0F0A00"/>
   <stop offset="1" style="stop-opacity:1; stop-color:#615A3E"/>
  </linearGradient><linearGradient gradientUnits="userSpaceOnUse" id="HatBanderas-Bigid667new" x1="13059.3" x2="12043.7" y1="11875.2" y2="7756.23">
   <stop offset="0" style="stop-opacity:1; stop-color:#570D00"/>
   <stop offset="1" style="stop-opacity:1; stop-color:#C90000"/>
  </linearGradient><linearGradient gradientUnits="userSpaceOnUse" id="HatBanderas-Bigid29new" x1="23027" x2="23148.7" y1="9696.19" y2="6902.77">
   <stop offset="0" style="stop-opacity:1; stop-color:#DB9600"/>
   <stop offset="1" style="stop-opacity:1; stop-color:#FFCC00"/>
  </linearGradient><linearGradient gradientUnits="userSpaceOnUse" id="HatBanderas-Bigid708new" x1="19172.7" x2="18887.4" y1="6164.67" y2="5430.19">
   <stop offset="0" style="stop-opacity:1; stop-color:#38321F"/>
   <stop offset="1" style="stop-opacity:1; stop-color:#615A3E"/>
  </linearGradient><linearGradient gradientUnits="userSpaceOnUse" id="WeaponFlySwatterBack-Bigid24" x1="12160.4" x2="14712.1" y1="25216.2" y2="22534.8">
   <stop offset="0" style="stop-opacity:1; stop-color:#008011"/>
   <stop offset="1" style="stop-opacity:1; stop-color:#00BD55"/>
  </linearGradient><linearGradient gradientUnits="userSpaceOnUse" id="WeaponFlySwatter-Bigid24" x1="12160.4" x2="14712.1" y1="25216.2" y2="22534.8">
   <stop offset="0" style="stop-opacity:1; stop-color:#008011"/>
   <stop offset="1" style="stop-opacity:1; stop-color:#00BD55"/>
  </linearGradient><linearGradient gradientUnits="userSpaceOnUse" id="WeaponFlySwatter-Bigid0" x1="9457.05" x2="12008.3" y1="22428.9" y2="22293.2">
   <stop offset="0" style="stop-opacity:1; stop-color:#787878"/>
   <stop offset="1" style="stop-opacity:1; stop-color:#D6D6D6"/>
  </linearGradient></defs><g id="HatBanderasBack-Big">
 <animateTransform additive="sum" attributeName="transform" dur="10" repeatCount="indefinite" type="translate" values="0;0 200;0;0 200;0;0 200;0;0 200;0"/>
  <metadata id="CorelCorpID_8Corel-Layer"/>
  <g id="_2196583884528">
   <path class="HatBanderasBack-Bigfil17new HatBanderasBack-Bigstr2new" d="M20006 12141c-1874,-630 -3567,-783 -6150,-783 -6246,0 -11309,1256 -11309,2806 0,936 2067,1645 4445,1199 3401,-637 5436,-3063 13014,-3222z" style="fill:#4948d0"/>
   <path class="HatBanderasBack-Bigfil3new" d="M9098 11618c-3868,446 -6551,1418 -6551,2546 0,118 33,233 96,342 1664,-1354 4720,-849 4773,705 1372,-397 1261,-1997 1682,-3593z" style="fill:#782279"/>
  </g>
 </g><g id="HairBack-Bear0">
 <animateTransform additive="sum" attributeName="transform" dur="10" repeatCount="indefinite" type="translate" values="0;0 200;0;0 200;0;0 200;0;0 200;0"/>
  <metadata id="CorelCorpID_216Corel-Layer"/>
  <rect class="HairBack-Bear0fil22" height="998" width="1061" x="13124" y="20899"/>
 </g><g id="Tail-Bear0">
  <metadata id="CorelCorpID_219Corel-Layer"/>
  <rect class="Tail-Bear0fil22" height="1129" width="1129" x="13089" y="21055"/>
 </g><g id="RightFoot-Bear3">
  <metadata id="CorelCorpID_222Corel-Layer"/>
  <path class="RightFoot-Bear3fil432" d="M17045 25080c-66,213 -260,328 -578,232 -82,82 -466,170 -720,2 -241,-159 -607,-457 -720,-564 -96,-91 -335,-220 -291,-565 777,87 1299,173 1927,-306 18,146 320,205 479,267 233,89 426,392 211,604 42,135 -122,330 -308,330z" style="fill:#8473be"/>
  <path class="RightFoot-Bear3fil14" d="M16490 25327c320,133 480,-45 565,-254 204,-15 307,-138 301,-308 28,-45 52,-79 86,-174 31,-139 -54,-325 -125,-351 31,144 -137,125 -191,129 232,292 -30,451 -178,321 -4,299 -321,400 -555,107 -111,282 -514,451 -1612,-364 1095,1261 1346,941 1709,894z" style="fill:#dbe310"/>
  <path class="RightFoot-Bear3fil32" d="M16963 25089c-68,167 -221,202 -384,173 53,-171 15,-486 -309,-550 160,131 191,345 122,563 -153,91 -454,76 -604,-23 -105,-69 -235,-166 -357,-262 -142,-112 -270,-229 -408,-342 -98,-80 -205,-212 -213,-454 5,-41 -24,-78 -65,-83 -41,-5 -84,23 -83,65 7,344 143,486 266,587 138,114 267,232 411,345 124,97 257,197 366,269 205,135 567,145 776,17 252,66 509,18 618,-243 169,-27 352,-197 334,-378 149,-177 94,-405 -60,-562 -136,-138 -294,-154 -454,-250 -66,-40 -120,-83 -125,-121l-137 73c20,64 119,137 185,176 138,83 316,117 424,227 53,54 98,127 105,203 -87,-137 -253,-261 -447,-225 213,57 340,284 356,532 -17,67 -81,130 -143,158 -9,-180 -141,-449 -459,-414 197,78 290,282 285,519z" style="fill:#3a91ba"/>
 </g><g id="LeftFoot-Bear3">
  <metadata id="CorelCorpID_231Corel-Layer"/>
  <path class="LeftFoot-Bear3fil442" d="M10263 25080c66,213 260,328 578,232 82,82 466,170 720,2 241,-159 607,-457 719,-564 96,-91 336,-220 292,-565 -777,87 -1299,173 -1927,-306 -19,146 -321,205 -479,267 -233,89 -427,392 -211,604 -42,135 121,330 308,330z" style="fill:#171102"/>
  <path class="LeftFoot-Bear3fil14" d="M10817 25327c-320,133 -479,-45 -565,-254 -203,-15 -307,-138 -301,-308 -27,-45 -52,-79 -85,-174 -32,-139 54,-325 124,-351 -30,144 137,125 192,129 -233,292 29,451 178,321 4,299 321,400 554,107 112,282 515,451 1613,-364 -1095,1261 -1346,941 -1710,894z" style="fill:#ad37ba"/>
  <path class="LeftFoot-Bear3fil32" d="M10345 25089c68,167 220,202 384,173 -54,-171 -16,-486 309,-550 -160,131 -191,345 -122,563 153,91 454,76 604,-23 104,-69 234,-166 356,-262 143,-112 271,-229 409,-342 97,-80 205,-212 213,-454 -5,-41 24,-78 65,-83 41,-5 84,23 83,65 -7,344 -143,486 -266,587 -139,114 -268,232 -411,345 -124,97 -258,197 -367,269 -205,135 -567,145 -776,17 -251,66 -509,18 -617,-243 -169,-27 -352,-197 -335,-378 -149,-177 -93,-405 61,-562 136,-138 294,-154 454,-250 66,-40 120,-83 125,-121l137 73c-20,64 -120,137 -185,176 -139,83 -316,117 -425,227 -53,54 -97,127 -104,203 86,-137 252,-261 447,-225 -213,57 -341,284 -357,532 18,67 82,130 144,158 8,-180 141,-449 459,-414 -197,78 -291,282 -285,519z" style="fill:#3002b3"/>
 </g><g id="RightLeg-Bear0">
  <metadata id="CorelCorpID_224Corel-Layer"/>
  <path class="RightLeg-Bear0fil437" d="M13654 20747c651,0 2263,-52 2620,230 303,239 971,977 969,1838 -2,444 -257,819 -524,1020 -578,425 -1151,626 -1983,350 7,-583 -643,-742 -1082,-749l0 -2689z" style="fill:#ac7ea2"/>
  <path class="RightLeg-Bear0fil14" d="M16988 23561c110,-131 245,-442 245,-600 2,-776 -323,-1481 -652,-1782 -248,370 -56,940 55,979 367,105 445,994 352,1403z" style="fill:#a65972"/>
  <path class="RightLeg-Bear0fil32" d="M16690 23782c-238,187 -417,303 -711,449 260,-35 573,-178 785,-337 332,-249 552,-662 553,-1079 1,-360 -110,-698 -263,-990 -227,-429 -547,-760 -734,-907 -32,-26 -79,-20 -105,12 -25,33 -20,80 13,105 175,139 478,451 693,860 144,273 248,587 247,920 -1,358 -198,746 -478,967zm-1745 794c71,68 -33,176 -104,108 -135,-130 -182,-317 -180,-500 3,-218 -99,-369 -246,-471 -213,-147 -519,-198 -761,-203l0 -149 1 0c265,5 604,62 845,229 186,129 314,320 310,596 -1,139 31,290 135,390z" style="fill:#4dcf6f"/>
 </g><g id="LeftLeg-Bear0">
  <metadata id="CorelCorpID_233Corel-Layer"/>
  <path class="LeftLeg-Bear0fil447" d="M13654 20747c-651,0 -2264,-52 -2620,230 -303,239 -971,977 -969,1838 1,444 256,819 524,1020 578,425 1150,626 1983,350 -7,-583 642,-742 1082,-749l0 -2689z" style="fill:#01ed2b"/>
  <path class="LeftLeg-Bear0fil14" d="M10320 23561c-110,-131 -245,-442 -245,-600 -3,-776 323,-1481 652,-1782 248,370 56,940 -56,979 -366,105 -444,994 -351,1403z" style="fill:#d485d0"/>
  <path class="LeftLeg-Bear0fil32" d="M10618 23782c238,187 417,303 711,449 -260,-35 -573,-178 -785,-337 -332,-249 -552,-662 -554,-1079 -1,-360 110,-698 264,-990 226,-429 547,-760 734,-907 32,-26 79,-20 104,12 26,33 20,80 -12,105 -175,139 -478,451 -694,860 -143,273 -247,587 -246,920 1,358 198,746 478,967zm1745 794c-71,68 32,176 103,108 135,-130 183,-317 181,-500 -3,-218 98,-369 246,-471 212,-147 519,-198 761,-203l0 -149 -1 0c-265,5 -604,62 -845,229 -186,129 -314,320 -311,596 2,139 -31,290 -134,390z" style="fill:#6fc27b"/>
 </g><g id="RightHand-Bear0">
 <animateTransform additive="sum" attributeName="transform" dur="10" repeatCount="indefinite" type="translate" values="0;0 200;0;0 200;0;0 200;0;0 200;0"/>
  <metadata id="CorelCorpID_238Corel-Layer"/>
  <path class="RightHand-Bear0fil452" d="M16111 17210c1487,-179 2823,1880 3151,3021 160,558 -1806,1220 -1964,882 -68,-147 -295,-477 -571,-705 -149,-820 -321,-1468 -1092,-3106 169,-47 290,-69 476,-92z" style="fill:#b10b61"/>
  <path class="RightHand-Bear0fil22 RightHand-Bear0str0" d="M16111 17205c1487,-179 2823,1880 3151,3021 160,558 -1806,1220 -1964,882 -68,-147 -295,-477 -571,-705 -149,-820 -321,-1468 -1092,-3106 169,-47 290,-69 476,-92z" style="fill:#9578e2"/>
  <path class="RightHand-Bear0fil14" d="M17217 20971c-131,-206 -302,-406 -490,-563 -50,-606 -203,-1164 -276,-1762 236,212 930,1618 766,2325z" style="fill:#c6cf5a"/>
 </g><g id="LeftHand-Bear0">
 <animateTransform additive="sum" attributeName="transform" dur="10" repeatCount="indefinite" type="translate" values="0;0 200;0;0 200;0;0 200;0;0 200;0"/>
  <metadata id="CorelCorpID_247Corel-Layer"/>
  <path class="LeftHand-Bear0fil465" d="M11197 17210c-1488,-179 -2824,1880 -3151,3021 -160,558 1806,1220 1963,882 69,-147 296,-477 571,-705 149,-820 322,-1468 1092,-3106 -168,-47 -290,-69 -475,-92z" style="fill:#c118c4"/>
  <path class="LeftHand-Bear0fil22 LeftHand-Bear0str0" d="M11197 17205c-1488,-179 -2824,1880 -3151,3021 -160,558 1806,1220 1963,882 69,-147 296,-477 571,-705 149,-820 322,-1468 1092,-3106 -168,-47 -290,-69 -475,-92z" style="fill:#737e29"/>
  <path class="LeftHand-Bear0fil14" d="M10090 20971c132,-206 303,-406 490,-563 51,-606 203,-1164 276,-1762 -235,212 -929,1618 -766,2325z" style="fill:#b0e05f"/>
 </g><g id="Body-Bear5">
 <animateTransform additive="sum" attributeName="transform" dur="10" repeatCount="indefinite" type="translate" values="0;0 200;0;0 200;0;0 200;0;0 200;0"/>
  <metadata id="CorelCorpID_260Corel-Layer"/>
  <path class="Body-Bear5fil476" d="M13654 23351c1692,-3 2768,-307 3233,-1926 302,-1052 -330,-2764 -1019,-3983 -551,110 -1409,139 -2214,150 -806,-11 -1663,-40 -2215,-150 -688,1219 -1321,2931 -1018,3983 465,1619 1541,1923 3233,1926z" style="fill:#e7e22d"/>
  <path class="Body-Bear5fil14" d="M11416 22901c-455,-288 -787,-750 -995,-1476 -211,-735 34,-1792 435,-2779 -591,2230 70,3628 560,4255z" style="fill:#3566c6"/>
  <path class="Body-Bear5fil32" d="M11416 22901c-539,-241 -960,-968 -1067,-1455 -108,-487 -59,-1102 131,-1659 -71,577 -87,1191 13,1618 104,444 495,1184 923,1496z" style="fill:#ee92ab"/>
  <path class="Body-Bear5fil22" d="M12621 22856c-1016,-156 -1749,-629 -1932,-1889 -2,-17 -5,-34 -7,-51l0 -4c-2,-16 -4,-32 -5,-48l-1 -7c-1,-15 -3,-31 -4,-46l0 -8c-2,-15 -3,-30 -3,-46l-1 -8c-1,-16 -1,-31 -2,-47l0 -6c-1,-17 -1,-34 -1,-51l0 -5c0,-17 0,-34 0,-50l0 -8c0,-15 0,-31 1,-47l0 -9c1,-15 1,-30 2,-46l0 -11c1,-14 2,-29 3,-44l1 -12c1,-15 2,-29 3,-44l1 -13c1,-15 3,-31 4,-46l2 -14c1,-15 3,-30 5,-44l1 -15c2,-14 4,-27 5,-41l3 -18c2,-13 3,-26 5,-39l3 -18c2,-12 4,-25 6,-38 1,-7 2,-14 4,-22 2,-12 4,-25 6,-37l4 -23c2,-11 4,-23 6,-34 2,-9 4,-18 6,-28 2,-10 4,-21 6,-32 2,-9 4,-18 6,-27 2,-11 4,-21 7,-32l6 -27c2,-11 4,-21 7,-31 3,-13 6,-25 9,-37l5 -21c3,-14 6,-27 9,-40l5 -18c4,-14 7,-28 11,-42l4 -15c4,-15 8,-30 12,-46l3 -8c4,-16 9,-33 14,-49l1 -7m15 -50l9 -28c5,-17 10,-34 15,-52l2 -5c6,-17 11,-34 17,-51l1 -6c6,-18 12,-36 18,-54l0 -1c-142,1971 409,3124 1703,3596" style="fill:#d39471"/>
  <path class="Body-Bear5fil22" d="M12621 22856c-1016,-156 -1749,-629 -1932,-1889 -2,-17 -5,-34 -7,-51l0 -4c-2,-16 -4,-32 -5,-48l-1 -7c-1,-15 -3,-31 -4,-46l0 -8c-2,-15 -3,-30 -3,-46l-1 -8c-1,-16 -1,-31 -2,-47l0 -6c-1,-17 -1,-34 -1,-51l0 -5c0,-17 0,-34 0,-50l0 -8c0,-15 0,-31 1,-47l0 -9c1,-15 1,-30 2,-46l0 -11c1,-14 2,-29 3,-44l1 -12c1,-15 2,-29 3,-44l1 -13c1,-15 3,-31 4,-46l2 -14c1,-15 3,-30 5,-44l1 -15c2,-14 4,-27 5,-41l3 -18c2,-13 3,-26 5,-39l3 -18c2,-12 4,-25 6,-38 1,-7 2,-14 4,-22 2,-12 4,-25 6,-37l4 -23c2,-11 4,-23 6,-34 2,-9 4,-18 6,-28 2,-10 4,-21 6,-32 2,-9 4,-18 6,-27 2,-11 4,-21 7,-32l6 -27c2,-11 4,-21 7,-31 3,-13 6,-25 9,-37l5 -21c3,-14 6,-27 9,-40l5 -18c4,-14 7,-28 11,-42l4 -15c4,-15 8,-30 12,-46l3 -8c4,-16 9,-33 14,-49l1 -7m15 -50l9 -28c5,-17 10,-34 15,-52l2 -5c6,-17 11,-34 17,-51l1 -6c6,-18 12,-36 18,-54l0 -1c-142,1971 409,3124 1703,3596" style="fill:#56244f"/>
  <path class="Body-Bear5fil14" d="M15892 22901c455,-288 786,-750 995,-1476 211,-735 -34,-1792 -436,-2779 592,2230 -69,3628 -559,4255z" style="fill:#be72fc"/>
  <path class="Body-Bear5fil32" d="M15892 22901c539,-241 960,-968 1067,-1455 107,-487 59,-1102 -132,-1659 72,577 87,1191 -12,1618 -104,444 -496,1184 -923,1496z" style="fill:#e8b1c9"/>
  <path class="Body-Bear5fil482" d="M12395 17319c-415,-117 -1437,533 -1326,1387 71,545 464,353 559,775 99,440 -305,508 -282,1089 32,765 484,1129 1019,1185 834,86 410,-1185 1289,-1185 879,0 455,1271 1289,1185 535,-56 987,-420 1018,-1185 24,-581 -380,-649 -281,-1089 95,-422 488,-230 559,-775 111,-854 -912,-1504 -1326,-1387 -407,115 -932,140 -1259,140 -327,0 -853,-25 -1259,-140z" style="fill:#368887"/>
 </g><g id="WeaponFlySwatterBack-Big">
 <animateTransform additive="sum" attributeName="transform" dur="10" repeatCount="indefinite" type="translate" values="0;0 200;0;0 200;0;0 200;0;0 200;0"/>
  <metadata id="CorelCorpID_2Corel-Layer"/>
  <g id="_2367108399968">
   <path class="WeaponFlySwatterBack-Bigfil6 WeaponFlySwatterBack-Bigstr0" d="M9872 21821l218 -164 -1867 -1285c-174,-119 -469,-140 -637,159 -169,299 1,541 193,628l2066 933 27 -271z" style="fill:#e923e6"/>
   <path class="WeaponFlySwatterBack-Bigfil1" d="M7767 20341c-67,38 -130,99 -181,190 -169,299 1,541 193,628l2066 933 23 -228c-481,-231 -1742,-844 -1936,-1013 -156,-136 -213,-345 -165,-510z" style="fill:#713170"/>
  </g>
 </g><g id="RightPaw-Bear0">
 <animateTransform additive="sum" attributeName="transform" dur="10" repeatCount="indefinite" type="translate" values="0;0 200;0;0 200;0;0 200;0;0 200;0"/>
  <metadata id="CorelCorpID_243Corel-Layer"/>
  <path class="RightPaw-Bear0fil457" d="M19212 20074c101,319 446,1074 -76,1413 -8,341 -321,891 -722,638 -151,80 -387,68 -509,-83 -446,-4 -409,-537 -607,-929 295,-982 1641,-506 1914,-1039z" style="fill:#27c442"/>
  <path class="RightPaw-Bear0fil32" d="M19190 20003c89,-30 112,105 135,170 130,372 354,1015 -116,1354 -11,143 -66,311 -153,448 -99,155 -252,294 -446,289 -65,-1 -132,-19 -200,-55 -176,73 -404,47 -540,-94 -338,-20 -419,-297 -509,-605 -35,-123 -73,-250 -129,-363 -19,-37 -94,-221 -57,-240 16,-8 67,4 101,36 47,44 78,115 89,136 63,125 102,260 140,389 60,206 115,395 261,468 -29,-101 -22,-219 84,-284 -76,237 182,489 434,440 -65,-93 -101,-219 -10,-319 -6,164 172,338 339,342 137,3 248,-112 316,-220 55,-87 95,-188 116,-282 -169,50 -397,13 -448,-183 104,74 378,78 488,1 414,-287 232,-827 98,-1209 -22,-63 -77,-193 7,-219z" style="fill:#5e9907"/>
  <path class="RightPaw-Bear0fil458" d="M18721 21392c-70,15 -168,-109 -207,-290 -38,-180 -13,-339 57,-354 70,-15 188,120 226,300 39,181 -7,329 -76,344z" style="fill:#48db83"/>
  <path class="RightPaw-Bear0fil458" d="M18493 21944c-70,15 -168,-109 -207,-289 -38,-181 -13,-340 57,-355 70,-14 188,120 226,301 39,180 -7,328 -76,343z" style="fill:#24ef08"/>
  <path class="RightPaw-Bear0fil458" d="M18061 21880c-58,7 -128,-100 -147,-248 -19,-148 13,-275 70,-282 57,-7 143,110 162,258 19,148 -28,265 -85,272z" style="fill:#92aae0"/>
  <path class="RightPaw-Bear0fil458" d="M17668 21710c-41,0 -83,-82 -84,-190 -2,-107 31,-195 72,-195 42,-1 94,90 95,197 2,108 -41,187 -83,188z" style="fill:#061665"/>
  <path class="RightPaw-Bear0fil458" d="M18328 20905c28,402 -757,372 -764,113 -13,-411 729,-626 764,-113z" style="fill:#de8917"/>
 </g><g id="LeftPawWeapon-Bear0">
 <animateTransform additive="sum" attributeName="transform" dur="10" repeatCount="indefinite" type="translate" values="0;0 200;0;0 200;0;0 200;0;0 200;0"/>
  <metadata id="CorelCorpID_0Corel-Layer"/>
  <path class="LeftPawWeapon-Bear0fil0" d="M8064 20167c-174,495 -396,1082 -60,1254 -63,251 76,575 425,576 127,228 534,319 775,91 176,20 369,-1 539,-240 138,-193 112,-466 371,-913 -594,-215 -1455,-553 -2050,-768z" style="fill:#fd767a"/>
  <path class="LeftPawWeapon-Bear0fil1" d="M7994 20142c14,-39 56,-59 95,-45 39,13 60,56 46,95l-20 56c-143,405 -301,846 -145,1036 15,-73 101,-165 188,-199 -121,132 -139,518 -27,687 44,65 128,121 216,143 -61,-167 -60,-383 89,-514 -69,241 -15,680 345,738 98,16 202,3 292,-46 -183,-92 -260,-325 -144,-530 -19,280 242,531 522,432 78,-28 156,-85 231,-190 53,-75 81,-170 114,-288 46,-161 104,-362 254,-620 20,-35 66,-48 102,-27 36,21 48,67 27,102 -140,242 -195,432 -239,586 -37,131 -68,238 -136,333 -95,134 -198,208 -303,245 -93,33 -184,37 -272,30 -27,22 -55,41 -84,57 -120,67 -259,85 -387,64 -129,-21 -249,-80 -331,-167 -14,-15 -28,-32 -40,-49 -34,-3 -65,-8 -95,-15 -127,-32 -223,-107 -286,-201 -76,-115 -102,-257 -85,-397 -314,-220 -119,-772 53,-1260l20 -56z" style="fill:#56db33"/>
 </g><g id="NecklaceTie">
 <animateTransform additive="sum" attributeName="transform" dur="10" repeatCount="indefinite" type="translate" values="0;0 200;0;0 200;0;0 200;0;0 200;0"/>
  <metadata id="CorelCorpID_44Corel-Layer"/>
  <path class="NecklaceTiefil264new NecklaceTiestr0new" d="M12762 18458c-745,-240 -1469,-603 -2135,-1103 292,-47 457,-123 615,-211 389,292 1374,1023 2440,1396 -183,283 -455,345 -920,-82z" style="fill:#b86995"/>
  <path class="NecklaceTiefil265new NecklaceTiestr0new" d="M14602 18458c744,-240 1469,-603 2134,-1103 -291,-47 -456,-123 -614,-211 -389,292 -1374,1023 -2440,1396 183,283 455,345 920,-82z" style="fill:#971dfe"/>
  <polygon class="NecklaceTiefil266new NecklaceTiestr0new" points="13682,19436 13222,19436 12679,21464 13682,22348 14684,21464 14142,19436 "/>
  <path class="NecklaceTiefil267new NecklaceTiestr0new" d="M12762 18458c153,326 307,652 460,978 307,83 613,83 920,0 153,-326 306,-652 460,-978 -658,160 -1269,153 -1840,0z" style="fill:#316388"/>
  <path class="NecklaceTiefil268new" d="M13707 19619c301,17 543,972 848,1794 -161,-597 -335,-1237 -501,-1834 -71,14 -226,33 -347,40z" style="fill:#6c1bbb"/>
  <path class="NecklaceTiefil268new" d="M13722 19392c364,-103 492,-503 671,-773 -111,243 -222,486 -333,729 -112,24 -225,39 -338,44z" style="fill:#dc0e55"/>
 </g><g id="BraceletLeather-Big">
 <animateTransform additive="sum" attributeName="transform" dur="10" repeatCount="indefinite" type="translate" values="0;0 200;0;0 200;0;0 200;0;0 200;0"/>
  <metadata id="CorelCorpID_18Corel-Layer"/>
  <path class="BraceletLeather-Bigfil51new BraceletLeather-Bigstr3new" d="M8065 19669c-150,-188 -209,-300 -358,-488 -55,-92 -50,-312 4,-312 137,-21 288,-46 423,-78 45,235 151,531 267,777 -112,34 -224,68 -336,101z" style="fill:#a68f72"/>
  <path class="BraceletLeather-Bigfil43new" d="M8065 19669c-150,-188 -209,-300 -358,-488 -55,-92 -50,-312 4,-312l11 -2c120,274 311,512 512,751l-169 51z" style="fill:#5a35a3"/>
  <path class="BraceletLeather-Bigfil33new BraceletLeather-Bigstr3new" d="M8065 19669c-150,-188 -209,-300 -358,-488 -55,-92 -50,-312 4,-312 137,-21 288,-46 423,-78 45,235 151,531 267,777 -112,34 -224,68 -336,101z" style="fill:#952154"/>
  <path class="BraceletLeather-Bigfil52new BraceletLeather-Bigstr3new" d="M8052 19933c-236,-45 -354,-90 -591,-135 -101,-33 -242,-202 -201,-238 90,-105 187,-223 269,-335 188,148 462,302 710,411 -62,99 -125,198 -187,297z" style="fill:#223928"/>
  <path class="BraceletLeather-Bigfil43new" d="M8052 19933c-236,-45 -354,-90 -591,-135 -101,-33 -242,-202 -201,-238l7 -8c270,128 570,183 879,232l-94 149z" style="fill:#db389c"/>
  <path class="BraceletLeather-Bigfil33new BraceletLeather-Bigstr3new" d="M8052 19933c-236,-45 -354,-90 -591,-135 -101,-33 -242,-202 -201,-238 90,-105 187,-223 269,-335 188,148 462,302 710,411 -62,99 -125,198 -187,297z" style="fill:#939337"/>
  <path class="BraceletLeather-Bigfil53new BraceletLeather-Bigstr4new" d="M8180 19981c-213,-53 -366,-129 -260,-321 119,-218 317,-237 619,-153 577,159 1391,572 1734,936 150,160 188,378 43,542 -145,164 -278,23 -437,-128 -394,-377 -1161,-742 -1699,-876z" style="fill:#5350f9"/>
  <path class="BraceletLeather-Bigfil46new" d="M8180 19981c-112,-28 -207,-62 -257,-116 91,-71 211,-75 313,-55 707,146 1368,484 1861,983 78,79 107,169 97,265 -101,10 -201,-93 -315,-201 -394,-377 -1161,-742 -1699,-876z" style="fill:#075450"/>
  <path class="BraceletLeather-Bigfil47new BraceletLeather-Bigstr4new" d="M8180 19981c-213,-53 -366,-129 -260,-321 119,-218 317,-237 619,-153 577,159 1391,572 1734,936 150,160 188,378 43,542 -145,164 -278,23 -437,-128 -394,-377 -1161,-742 -1699,-876z" style="fill:#e5be8d"/>
  <path class="BraceletLeather-Bigfil54new BraceletLeather-Bigstr3new" d="M19243 19669c149,-188 208,-300 358,-488 55,-92 50,-312 -5,-312 -137,-21 -287,-46 -422,-78 -46,235 -152,531 -267,777 112,34 224,68 336,101z" style="fill:#8b1a3c"/>
  <path class="BraceletLeather-Bigfil43new" d="M19243 19669c149,-188 208,-300 358,-488 55,-92 50,-312 -5,-312l-10 -2c-120,274 -311,512 -512,751l169 51z" style="fill:#18b7f5"/>
  <path class="BraceletLeather-Bigfil33new BraceletLeather-Bigstr3new" d="M19243 19669c149,-188 208,-300 358,-488 55,-92 50,-312 -5,-312 -137,-21 -287,-46 -422,-78 -46,235 -152,531 -267,777 112,34 224,68 336,101z" style="fill:#545094"/>
  <path class="BraceletLeather-Bigfil55new BraceletLeather-Bigstr3new" d="M19256 19933c236,-45 354,-90 590,-135 101,-33 243,-202 201,-238 -90,-105 -187,-223 -268,-335 -189,148 -463,302 -711,411 63,99 125,198 188,297z" style="fill:#cbf5fe"/>
  <path class="BraceletLeather-Bigfil43new" d="M19256 19933c236,-45 354,-90 590,-135 101,-33 243,-202 201,-238l-7 -8c-269,128 -570,183 -878,232l94 149z" style="fill:#82e5e2"/>
  <path class="BraceletLeather-Bigfil33new BraceletLeather-Bigstr3new" d="M19256 19933c236,-45 354,-90 590,-135 101,-33 243,-202 201,-238 -90,-105 -187,-223 -268,-335 -189,148 -463,302 -711,411 63,99 125,198 188,297z" style="fill:#038c9a"/>
  <path class="BraceletLeather-Bigfil56new BraceletLeather-Bigstr4new" d="M19128 19981c212,-53 365,-129 260,-321 -120,-218 -318,-237 -620,-153 -576,159 -1390,572 -1733,936 -151,160 -188,378 -43,542 145,164 278,23 436,-128 395,-377 1161,-742 1700,-876z" style="fill:#17ba70"/>
  <path class="BraceletLeather-Bigfil46new" d="M19128 19981c111,-28 206,-62 257,-116 -91,-71 -211,-75 -313,-55 -707,146 -1368,484 -1861,983 -78,79 -107,169 -98,265 102,10 202,-93 315,-201 395,-377 1161,-742 1700,-876z" style="fill:#042c31"/>
  <path class="BraceletLeather-Bigfil47new BraceletLeather-Bigstr4new" d="M19128 19981c212,-53 365,-129 260,-321 -120,-218 -318,-237 -620,-153 -576,159 -1390,572 -1733,936 -151,160 -188,378 -43,542 145,164 278,23 436,-128 395,-377 1161,-742 1700,-876z" style="fill:#8e0097"/>
 </g><g id="Head-Bear1">
 <animateTransform additive="sum" attributeName="transform" dur="10" repeatCount="indefinite" type="translate" values="0;0 200;0;0 200;0;0 200;0;0 200;0"/>
  <metadata id="CorelCorpID_269Corel-Layer"/>
  <path class="Head-Bear1fil513" d="M13654 7273c-3309,0 -6045,2676 -6842,5956 -225,925 -94,2287 599,1795 14,821 658,1783 935,1228 1306,1144 3346,1392 5308,1392 1962,0 4002,-248 5308,-1392 276,555 920,-407 934,-1228 693,492 824,-870 600,-1795 -797,-3280 -3533,-5956 -6842,-5956z" style="fill:#16fa13"/>
  <path class="Head-Bear1fil14" d="M7936 10616c-511,790 -897,1677 -1124,2613 -225,925 -94,2287 599,1795 14,821 658,1783 935,1228 1049,919 2573,1260 4149,1358 -4263,-881 -6070,-3424 -4559,-6994z" style="fill:#c09741"/>
  <path class="Head-Bear1fil32" d="M12848 7326c-615,115 -1491,466 -1775,598 -285,132 -1125,569 -1666,994 495,-570 1417,-1044 1603,-1130 181,-84 992,-436 1838,-462zm-4763 3069c-325,447 -615,1200 -714,1421 -203,458 -367,937 -486,1431 -106,436 -132,970 -54,1352 30,146 75,268 135,350 51,70 115,109 192,104 59,-4 129,-32 210,-90 34,-23 80,-16 104,18 10,14 15,29 14,45 8,398 169,830 361,1092 63,86 128,153 191,190 51,31 99,42 138,26 36,-15 71,-52 103,-115 18,-37 63,-52 100,-34 8,4 14,9 20,14 469,410 1035,703 1660,910 310,102 1767,462 2436,501 -1158,20 -2267,-288 -2483,-359 -615,-204 -1175,-489 -1648,-885 -39,52 -84,87 -132,107 -87,35 -180,19 -271,-36 -80,-48 -160,-128 -235,-230 -187,-256 -348,-662 -382,-1055 -63,31 -122,47 -177,51 -133,8 -240,-53 -322,-165 -73,-100 -126,-242 -160,-409 -82,-402 -56,-962 54,-1417 122,-502 289,-989 496,-1456 71,-160 424,-962 850,-1361z" style="fill:#61d8df"/>
  <path class="Head-Bear1fil32" d="M14460 7326c615,115 1491,466 1774,598 286,132 1126,569 1667,994 -495,-570 -1417,-1044 -1604,-1130 -181,-84 -992,-436 -1837,-462zm4763 3069c325,447 615,1200 713,1421 203,458 367,937 487,1431 106,436 131,970 53,1352 -29,146 -74,268 -134,350 -52,70 -116,109 -192,104 -60,-4 -130,-32 -210,-90 -34,-23 -81,-16 -105,18 -9,14 -14,29 -14,45 -7,398 -168,830 -360,1092 -63,86 -129,153 -191,190 -52,31 -99,42 -138,26 -37,-15 -71,-52 -103,-115 -18,-37 -63,-52 -101,-34 -7,4 -14,9 -19,14 -469,410 -1036,703 -1660,910 -311,102 -1768,462 -2436,501 1157,20 2267,-288 2483,-359 614,-204 1175,-489 1648,-885 39,52 83,87 132,107 87,35 179,19 271,-36 80,-48 160,-128 235,-230 187,-256 347,-662 382,-1055 63,31 121,47 176,51 134,8 240,-53 323,-165 73,-100 126,-242 160,-409 82,-402 56,-962 -55,-1417 -121,-502 -288,-989 -495,-1456 -71,-160 -424,-962 -850,-1361z" style="fill:#ef0faa"/>
  <path class="Head-Bear1fil514" d="M8588 15190c-1795,-839 -401,-4619 2531,-4993 1565,-200 1865,3361 977,4328 -924,1006 -2601,1090 -3508,665zm10132 0c1795,-839 401,-4619 -2532,-4993 -1564,-200 -1864,3361 -976,4328 924,1006 2600,1090 3508,665z" style="fill:#b0152a"/>
 </g><g id="Mouth-Bear3">
 <animateTransform additive="sum" attributeName="transform" dur="10" repeatCount="indefinite" type="translate" values="0;0 200;0;0 200;0;0 200;0;0 200;0"/>
  <metadata id="CorelCorpID_278Corel-Layer"/>
  <path class="Mouth-Bear3fil22 Mouth-Bear3str0" d="M12420 15398c354,380 1208,220 1234,-572" style="fill:#27bd5c"/>
  <path class="Mouth-Bear3fil22 Mouth-Bear3str0" d="M14887 15398c-353,380 -1208,220 -1233,-572" style="fill:#9d5fba"/>
  <path class="Mouth-Bear3fil100" d="M13666 14959c37,245 252,535 399,641 -123,-61 -307,-119 -411,-119 -104,0 -289,58 -411,119 146,-106 362,-396 399,-641l12 0 12 0z" style="fill:#8ecdfa"/>
  <path class="Mouth-Bear3fil151 Mouth-Bear3str0" d="M13654 15511c-225,-104 -488,14 -600,144 0,415 171,771 600,771 429,0 599,-356 599,-771 -111,-130 -374,-248 -599,-144z" style="fill:#445b81"/>
 </g><g id="WeaponFlySwatter-Big">
 <animateTransform additive="sum" attributeName="transform" dur="10" repeatCount="indefinite" type="translate" values="0;0 200;0;0 200;0;0 200;0;0 200;0"/>
  <metadata id="CorelCorpID_3Corel-Layer"/>
  <g id="_2367108399264">
   <path class="WeaponFlySwatter-Bigfil7 WeaponFlySwatter-Bigstr0" d="M12485 23074c-62,110 -125,221 -187,331 -824,-465 -1649,-930 -2474,-1395 -26,-161 38,-270 187,-332 825,466 1649,931 2474,1396z" style="fill:#6524fe"/>
   <path class="WeaponFlySwatter-Bigfil3" d="M12372 23275l-74 130c-824,-465 -1649,-930 -2474,-1395 -14,-86 -2,-157 34,-214l2514 1479z" style="fill:#fc6210"/>
   <path class="WeaponFlySwatter-Bigfil8" d="M15705 23346c18,9 35,17 49,25 252,140 356,359 340,623 -14,242 -134,522 -333,809 -49,70 -101,139 -157,207 -56,68 -114,134 -175,197 -249,259 -521,455 -789,557 -291,110 -578,113 -830,-27 -14,-8 -30,-17 -47,-28l-1676 -1075c-233,-149 -327,-301 -264,-539 55,-205 237,-470 565,-869 327,-398 559,-637 769,-755 245,-137 452,-122 708,0l1840 875zm-2085 -742l-38 46 201 112 54 -66 -98 -46c-41,-20 -81,-35 -119,-46zm353 157l-60 73 201 111 69 -84 -210 -100zm346 165l-75 91 201 112 85 -103 -211 -100zm347 165l-91 110 201 111 100 -121 -210 -100zm346 165l-106 129 201 111 116 -140 -211 -100zm347 164l-122 148 201 112 131 -159 -210 -101zm335 179l-126 153 201 111 51 -62c-21,-78 -62,-147 -126,-202zm135 447l-14 -8 -135 164 94 52c26,-72 45,-142 55,-208zm-106 329l-127 -70 -134 163 162 91c38,-63 71,-124 99,-184zm-170 294l-176 -98 -134 164 186 103c38,-48 73,-96 106,-142 6,-9 12,-18 18,-27zm-209 272l-186 -103 -134 163 176 98c8,-8 16,-16 23,-24 41,-42 81,-87 121,-134zm-242 253l-163 -90 -134 164 127 70c57,-44 114,-92 170,-144zm-288 228l-94 -51 -134 163 14 8c71,-32 142,-73 214,-120zm-494 205l51 -62 -201 -112 -125 153c86,28 178,34 275,21zm-410 -87l130 -159 -201 -111 -121 147 192 123zm-316 -202l115 -140 -201 -112 -106 129 192 123zm-316 -202l100 -122 -201 -112 -90 111 191 123zm-315 -203l84 -103 -201 -111 -75 91 192 123zm-316 -202l69 -84 -201 -112 -60 73 192 123zm-316 -203l54 -65 -201 -111 -38 45c26,26 59,50 97,75l88 56zm-255 -386l63 35 134 -164 -113 -62c-41,72 -69,135 -84,191zm153 -303l129 71 134 -163 -142 -79c-46,62 -86,118 -121,171zm202 -276l145 81 135 -164 -149 -82c-47,58 -91,113 -131,165zm216 -268l148 82 135 -163 -146 -81c-44,50 -89,104 -137,162zm226 -263l141 79 135 -164 -129 -71c-46,46 -95,98 -147,156zm248 -250l112 62 135 -163 -63 -35c-58,33 -118,77 -184,136zm1907 1984l-201 -112 -134 164 201 111 134 -163zm-331 -184l-201 -112 -134 164 201 111 134 -163zm-331 -184l-201 -111 -134 163 201 112 134 -164zm-331 -183l-201 -112 -134 164 201 111 134 -163zm-331 -184l-201 -111 -134 163 201 112 134 -164zm-331 -184l-201 -111 -135 163 202 112 134 -164zm-331 -183l-201 -112 -135 164 202 111 134 -163zm-117 -215l201 112 135 -164 -201 -111 -135 163zm331 184l201 112 135 -164 -201 -111 -135 163zm331 184l201 111 135 -163 -201 -112 -135 164zm331 183l202 112 134 -164 -201 -111 -135 163zm331 184l202 111 134 -163 -201 -112 -135 164zm332 183l201 112 134 -163 -201 -112 -134 163zm331 184l201 112 134 -164 -201 -111 -134 163zm-1768 -1368l201 111 135 -163 -201 -112 -135 164zm331 184l201 111 135 -163 -201 -112 -135 164zm331 183l201 112 135 -164 -201 -111 -135 163zm331 184l201 111 135 -163 -201 -112 -135 164zm331 183l201 112 135 -163 -201 -112 -135 163zm331 184l202 112 134 -164 -201 -111 -135 163zm331 184l202 111 134 -163 -201 -112 -135 164zm-1767 -1369l201 112 135 -163 -202 -112 -134 163zm331 184l201 112 135 -164 -201 -111 -135 163zm331 184l201 111 135 -163 -201 -112 -135 164zm331 183l201 112 135 -164 -201 -111 -135 163zm331 184l201 112 135 -164 -201 -111 -135 163zm331 184l201 111 135 -163 -201 -112 -135 164zm331 183l201 112 135 -164 -201 -111 -135 163zm-2727 -199l-134 163 201 112 134 -164 -201 -111zm331 183l-134 164 201 111 134 -163 -201 -112zm331 184l-134 163 201 112 134 -163 -201 -112zm331 184l-134 163 201 112 134 -164 -201 -111zm331 183l-134 164 201 111 134 -163 -201 -112zm331 184l-134 163 201 112 134 -164 -201 -111zm331 184l-134 163 201 112 134 -164 -201 -111zm-2205 -836l-134 164 201 111 134 -163 -201 -112zm331 184l-134 163 201 112 134 -164 -201 -111zm331 183l-134 164 201 111 134 -163 -201 -112zm331 184l-134 164 201 111 134 -163 -201 -112zm331 184l-134 163 201 112 134 -164 -201 -111zm331 183l-134 164 201 111 134 -163 -201 -112zm331 184l-134 163 201 112 134 -163 -201 -112z" style="fill:#95236f"/>
   <path class="WeaponFlySwatter-Bigfil1" d="M15031 25552c-129,90 -261,162 -391,212 -291,110 -578,113 -830,-27 -14,-8 -30,-17 -47,-28l-1676 -1075c-233,-149 -327,-301 -264,-539 55,-205 237,-470 565,-869 327,-398 559,-637 769,-755 245,-137 452,-122 708,0l45 21c-240,67 -450,169 -629,294l87 -105 -63 -35c-58,33 -118,77 -184,136l94 53c-37,28 -73,58 -108,89l-87 -48c-46,46 -95,98 -147,156l83 46c-30,34 -58,69 -84,104l-88 -49c-44,50 -89,104 -137,162l111 61c-22,39 -42,77 -61,117l-135 -75c-47,58 -91,113 -131,165l145 81 98 -119c-50,117 -85,237 -104,357l-82 100 66 37c-1,14 -1,27 -2,41 -1,38 2,75 9,113l-158 -88 -134 164 201 111 106 -129c15,50 38,100 66,149l-42 52 127 71c119,149 290,292 490,422l-40 -23 -90 111 191 123 95 -116c43,24 86,48 131,72l-102 123 192 123 115 -140 -55 -31c262,125 542,227 800,294l2 1 0 0c54,14 107,26 159,37l-29 35 14 8c22,-10 44,-21 66,-33 133,26 257,41 365,43zm-711 75l51 -62 -201 -112 -125 153c86,28 178,34 275,21zm-410 -87l130 -159 -201 -111 -121 147 192 123zm-947 -607l84 -103 -201 -111 -75 91 192 123zm-316 -202l69 -84 -201 -112 -60 73 192 123zm-316 -203l54 -65 -201 -111 -38 45c26,26 59,50 97,75l88 56zm-255 -386l63 35 134 -164 -113 -62c-41,72 -69,135 -84,191zm153 -303l129 71 134 -163 -142 -79c-46,62 -86,118 -121,171z" style="fill:#915f9c"/>
   <path class="WeaponFlySwatter-Bigfil5 WeaponFlySwatter-Bigstr1" d="M15705 23346c18,9 35,17 49,25 252,140 356,359 340,623 -14,242 -134,522 -333,809 -49,70 -101,139 -157,207 -56,68 -114,134 -175,197 -249,259 -521,455 -789,557 -291,110 -578,113 -830,-27 -14,-8 -30,-17 -47,-28l-1676 -1075c-233,-149 -327,-301 -264,-539 55,-205 237,-470 565,-869 327,-398 559,-637 769,-755 245,-137 452,-122 708,0l1840 875z" style="fill:#a4bdb2"/>
  </g>
 </g><g id="Eyes-Bear8">
 <animateTransform additive="sum" attributeName="transform" dur="10" repeatCount="indefinite" type="translate" values="0;0 200;0;0 200;0;0 200;0;0 200;0"/>
  <metadata id="CorelCorpID_293Corel-Layer"/>
  <path class="Eyes-Bear8fil570" d="M8890 14662c539,286 1787,71 2287,-312 872,-668 586,-2584 -477,-2893 -652,-190 -1376,96 -1806,590 -907,1044 -592,2303 -4,2615z"/>
  <g>
        <animateTransform additive="sum" attributeName="transform" dur="3" repeatCount="indefinite" type="translate" values="0;-2150 1925;0"/>
        <g>
            <animateTransform additive="sum" attributeName="transform" dur="3" repeatCount="indefinite" type="rotate" values="0;-10;0"/>
            <path class="Eyes-Bear8fil387" d="M8890 14662c113,60 256,98 418,117l957 -2028 -1440 1872c21,14 43,27 65,39zm881 125c146,-10 294,-30 440,-58l74 -1988 -514 2046zm802 -149c138,-43 267,-94 380,-151l-654 -1754 274 1905zm675 -348c89,-82 164,-177 226,-283l-1168 -1295 942 1578zm378 -655c33,-121 53,-248 61,-377l-1383 -566 1322 943zm53 -752c-33,-310 -131,-615 -287,-866l-1110 638c-18,2 -23,66 -34,56l-1069 -929c-78,59 -152,124 -219,193l1290 754c43,5 42,-29 39,-56l1390 210zm-2944 -634c-80,114 -148,230 -203,346l1688 130 -1485 -476zm-328 670c-40,138 -65,274 -75,406l1896 -585 -1821 179zm-54 877c28,160 77,308 142,435l1755 -1485 -1897 1050z"/>
        </g>
    </g>
  <path class="Eyes-Bear8fil571" d="M9951 11457c683,-158 1342,301 1472,1025 130,724 -318,1438 -1001,1596 -683,158 -1343,-301 -1473,-1025 -130,-724 319,-1439 1002,-1596z"/>
  <circle class="Eyes-Bear8fil152" r="235" transform="matrix(0.50221 0.111622 -0.139337 0.596091 11272.1 13494.8)"/>
  <circle class="Eyes-Bear8fil152" r="235" transform="matrix(0.554042 -1.05186 0.853042 0.366906 10973.8 13986.5)"/>
  <path class="Eyes-Bear8fil152" d="M8600 13318c-120,881 473,1392 1181,1246 -444,-60 -1082,-539 -1181,-1246z"/>
  <path class="Eyes-Bear8fil157" d="M10248 12036c1015,126 1355,654 1381,1668 214,-863 -179,-2018 -994,-2255 -652,-190 -1301,59 -1730,553 -408,469 -593,902 -581,1344 184,-722 1084,-1414 1924,-1310z"/>
  <circle class="Eyes-Bear8fil152" r="235" transform="matrix(1.22514 -2.21383 1.7662 0.793529 9424.7 12400.7)"/>
  <path class="Eyes-Bear8fil155" d="M10116 10061c121,40 186,-151 643,-236 419,-78 679,53 767,-102 98,-172 -155,-835 -390,-922 -717,-265 -1382,1142 -1020,1260z"/>
  <path class="Eyes-Bear8fil14" d="M10116 10061c121,40 186,-151 643,-236 419,-78 679,53 767,-102 98,-172 -155,-835 -390,-922 -717,-265 -1382,1142 -1020,1260z"/>
  <path class="Eyes-Bear8fil22 Eyes-Bear8str4" d="M8890 14662c539,286 1787,71 2287,-312 872,-668 586,-2584 -477,-2893 -652,-190 -1376,96 -1806,590 -907,1044 -592,2303 -4,2615z"/>
  <path class="Eyes-Bear8fil572" d="M18418 14662c-539,286 -1787,71 -2287,-312 -872,-668 -587,-2584 477,-2893 652,-190 1376,96 1805,590 908,1044 593,2303 5,2615z"/>
  <g>
        <animateTransform additive="sum" attributeName="transform" dur="3" repeatCount="indefinite" type="translate" values="0;2550 -2800;0"/>
        <g>
            <animateTransform additive="sum" attributeName="transform" dur="3" repeatCount="indefinite" type="rotate" values="0;10;0"/>
            <path class="Eyes-Bear8fil573" d="M18418 14662c-113,60 -257,98 -418,117l-958 -2028 1441 1872c-21,14 -43,27 -65,39zm-882 125c-145,-10 -294,-30 -440,-58l-73 -1988 513 2046zm-801 -149c-138,-43 -267,-94 -380,-151l653 -1754 -273 1905zm-676 -348c-89,-82 -164,-177 -225,-283l1168 -1295 -943 1578zm-377 -655c-33,-121 -53,-248 -61,-377l1383 -566 -1322 943zm-53 -752c33,-310 131,-615 286,-866l1110 638c19,2 23,66 34,56l1070 -929c78,59 151,124 218,193l-1289 754c-43,5 -42,-29 -39,-56l-1390 210zm2943 -634c81,114 149,230 204,346l-1688 130 1484 -476zm328 670c41,138 65,274 76,406l-1896 -585 1820 179zm55 877c-28,160 -77,308 -143,435l-1755 -1485 1898 1050z"/>
        </g>
    </g>
  <path class="Eyes-Bear8fil574" d="M17357 11457c-684,-158 -1343,301 -1473,1025 -130,724 319,1438 1002,1596 683,158 1342,-301 1472,-1025 130,-724 -318,-1439 -1001,-1596z"/>
  <circle class="Eyes-Bear8fil152" r="235" transform="matrix(0.50221 0.111622 -0.139337 0.596091 18674.4 13562.1)"/>
  <circle class="Eyes-Bear8fil152" r="235" transform="matrix(0.554042 -1.05186 0.853042 0.366906 18465.4 14093.8)"/>
  <path class="Eyes-Bear8fil152" d="M15892 13222c-120,881 682,1404 1390,1258 -444,-60 -1291,-551 -1390,-1258z"/>
  <path class="Eyes-Bear8fil157" d="M17060 12036c-1015,126 -1355,654 -1381,1668 -214,-863 179,-2018 994,-2255 652,-190 1301,59 1730,553 408,469 593,902 580,1344 -183,-722 -1083,-1414 -1923,-1310z"/>
  <circle class="Eyes-Bear8fil152" r="235" transform="matrix(0.911758 -2.36023 1.85793 0.545226 16456.1 12417.3)"/>
  <path class="Eyes-Bear8fil155" d="M17192 10061c-121,40 -186,-151 -643,-236 -420,-78 -679,53 -767,-102 -98,-172 154,-835 390,-922 717,-265 1381,1142 1020,1260z"/>
  <path class="Eyes-Bear8fil14" d="M17192 10061c-121,40 -186,-151 -643,-236 -420,-78 -679,53 -767,-102 -98,-172 154,-835 390,-922 717,-265 1381,1142 1020,1260z"/>
  <path class="Eyes-Bear8fil22 Eyes-Bear8str4" d="M18418 14662c-539,286 -1787,71 -2287,-312 -872,-668 -587,-2584 477,-2893 652,-190 1376,96 1805,590 908,1044 593,2303 5,2615z"/>
 </g><g id="Moustache-Bear2">
 <animateTransform additive="sum" attributeName="transform" dur="10" repeatCount="indefinite" type="translate" values="0;0 200;0;0 200;0;0 200;0;0 200;0"/>
  <metadata id="CorelCorpID_298Corel-Layer"/>
  <path class="Moustache-Bear2fil587" d="M13179 14223c-461,-573 -1478,-511 -2039,38 -473,464 -430,1075 -1371,1102 1020,705 1613,-136 2073,-384 1027,-556 1656,152 1812,-496 -258,20 -344,-53 -475,-260z" style="fill:#eed5d4"/>
  <path class="Moustache-Bear2fil32" d="M12608 13865c-443,-23 -742,66 -926,138 -404,158 -596,393 -815,751 -189,309 -360,587 -864,664 660,343 1122,-8 1486,-286 70,-54 435,-290 773,-323 -391,130 -598,378 -682,442 -437,333 -1001,762 -1854,173 -24,-14 -32,-37 -32,-59 -1,-41 32,-76 73,-77 607,-17 779,-297 972,-612 238,-387 452,-642 889,-813 91,-35 506,-162 980,2z" style="fill:#72d1e4"/>
  <path class="Moustache-Bear2fil14" d="M9777 15368c1015,695 1606,-142 2065,-389 957,-518 1568,61 1773,-381 -517,-45 -863,-169 -1385,-84 -819,133 -1111,1234 -2453,854z" style="fill:#4fda77"/>
  <path class="Moustache-Bear2fil588" d="M14129 14223c460,-573 1478,-511 2039,38 472,464 430,1075 1371,1102 -1021,705 -1613,-136 -2073,-384 -1028,-556 -1657,152 -1812,-496 258,20 344,-53 475,-260z" style="fill:#b06f11"/>
  <path class="Moustache-Bear2fil32" d="M14700 13865c443,-23 741,66 926,138 404,158 595,393 814,751 190,309 361,587 864,664 -659,343 -1121,-8 -1486,-286 -70,-54 -434,-290 -773,-323 392,130 599,378 682,442 437,333 1001,762 1854,173 24,-14 32,-37 32,-59 2,-41 -31,-76 -72,-77 -608,-17 -779,-297 -973,-612 -237,-387 -451,-642 -889,-813 -90,-35 -506,-162 -979,2z" style="fill:#5474a3"/>
  <path class="Moustache-Bear2fil14" d="M17530 15368c-1015,695 -1605,-142 -2064,-389 -957,-518 -1569,61 -1773,-381 516,-45 862,-169 1385,-84 819,133 1111,1234 2452,854z" style="fill:#c9e415"/>
 </g><g id="Nose-Bear0">
 <animateTransform additive="sum" attributeName="transform" dur="10" repeatCount="indefinite" type="translate" values="0;0 200;0;0 200;0;0 200;0;0 200;0"/>
  <metadata id="CorelCorpID_304Corel-Layer"/>
  <path class="Nose-Bear0fil598 Nose-Bear0str0" d="M13654 14109c-356,0 -852,135 -813,337 34,185 361,481 813,481 452,0 778,-296 813,-481 38,-202 -457,-337 -813,-337z" style="fill:#b62297"/>
 </g><g id="AccessoryDuck">
  <metadata id="CorelCorpID_7Corel-Layer"/>
  <g>
   <path class="AccessoryDuckfil122" d="M6799 23590c567,92 901,386 954,797 53,412 -243,1082 -841,1089 -393,5 -1153,26 -1786,26 -391,0 -696,-285 -829,-563 -183,-382 -87,-1276 203,-1374 170,-58 552,365 851,277 435,-128 967,-330 1448,-252z" style="fill:#dd9d09"/>
   <path class="AccessoryDuckfil48" d="M7758 24535c-23,406 -315,934 -846,941 -393,5 -1153,26 -1786,26 -391,0 -696,-285 -829,-563 -156,-325 -109,-1021 87,-1282 -106,322 -111,821 11,1082 131,278 430,563 813,563 621,0 1366,-21 1751,-26 437,-6 710,-381 799,-741z" style="fill:#2e42de"/>
   <path class="AccessoryDuckfil123" d="M6799 23590c56,9 109,20 160,33 -130,90 -255,351 -427,375 -135,19 -523,-198 -655,-168 -209,48 -405,103 -557,148 -275,81 -535,-184 -692,-130 -267,91 -276,730 -108,1082 120,250 435,557 785,572 -61,0 -120,0 -179,0 -391,0 -696,-285 -829,-563 -183,-382 -87,-1276 203,-1374 170,-58 552,365 851,277 435,-128 967,-330 1448,-252z" style="fill:#40c173"/>
   <path class="AccessoryDuckfil2 AccessoryDuckstr1" d="M6799 23590c567,92 901,386 954,797 53,412 -243,1082 -841,1089 -393,5 -1153,26 -1786,26 -391,0 -696,-285 -829,-563 -183,-382 -87,-1276 203,-1374 170,-58 552,365 851,277 435,-128 967,-330 1448,-252z" style="fill:#18d977"/>
   <path class="AccessoryDuckfil124" d="M6799 22018c651,0 1017,455 1017,1017 0,561 -456,1016 -1017,1016 -561,0 -1016,-455 -1016,-1016 0,-562 365,-1017 1016,-1017z" style="fill:#920829"/>
   <path class="AccessoryDuckfil123" d="M6799 22018c651,0 1017,455 1017,1017 0,95 -14,186 -38,274 13,-58 21,-117 21,-178 0,-519 -394,-978 -993,-978 -598,0 -854,358 -854,878 0,454 400,909 767,1017 -524,-41 -936,-479 -936,-1013 0,-562 365,-1017 1016,-1017z" style="fill:#f0088a"/>
   <path class="AccessoryDuckfil3" d="M6185 23844c-28,28 -290,-116 -378,-327 -53,-104 -110,-285 -125,-443 -4,-44 -7,-84 -7,-123 0,-256 79,-492 231,-671 152,-180 376,-303 666,-331 43,-4 85,-6 127,-6 344,0 637,118 846,308 218,199 346,477 346,784 0,197 -53,383 -146,543 -114,198 -486,429 -501,374 -14,-55 186,-125 372,-448 79,-138 125,-298 125,-469 0,-264 -109,-502 -297,-673 -182,-166 -440,-269 -745,-269 -41,0 -79,2 -113,5 -248,24 -438,127 -566,278 -128,152 -195,354 -195,575 0,37 2,74 5,108 14,140 50,256 110,390 60,135 273,366 245,395z" style="fill:#48c76a"/>
   <path class="AccessoryDuckfil123" d="M6658 22472c143,0 258,134 258,300 0,166 -115,300 -258,300 -143,0 -259,-134 -259,-300 0,-166 116,-300 259,-300z" style="fill:#403faa"/>
   <ellipse class="AccessoryDuckfil125" cx="6677" cy="22749" rx="239" ry="278"/>
   <path class="AccessoryDuckfil2 AccessoryDuckstr18" d="M8022 22883c-201,144 -531,341 -779,257" style="fill:#cb61ef"/>
   <path class="AccessoryDuckfil126" d="M6906 23254c-93,-143 260,-242 351,-320 100,-87 101,-231 168,-331 379,92 984,-279 923,-35 -43,175 -342,292 -454,408 135,81 371,182 293,310 -165,270 -1199,93 -1281,-32z" style="fill:#1f19ec"/>
   <path class="AccessoryDuckfil127" d="M5595 24102c432,0 782,85 782,426 0,341 -350,504 -782,504 -432,0 -782,-445 -782,-651 0,-207 350,-279 782,-279z" style="fill:#bcf4b3"/>
   <path class="AccessoryDuckfil123" d="M5595 24102c112,0 218,6 314,20 -54,-3 -109,-5 -167,-5 -397,0 -719,62 -719,238 0,176 322,556 719,556 224,0 424,-44 556,-135 -127,173 -394,256 -703,256 -432,0 -782,-445 -782,-651 0,-207 350,-279 782,-279z" style="fill:#d2e44d"/>
   <path class="AccessoryDuckfil2" d="M5595 24102c432,0 782,85 782,426 0,341 -350,504 -782,504 -432,0 -782,-445 -782,-651 0,-207 350,-279 782,-279z" style="fill:#650e87"/>
   <path class="AccessoryDuckfil128" d="M7774 23111c-89,-34 -14,-124 -111,-45 -97,79 -363,35 -380,106 -17,71 420,126 587,75 167,-51 -7,-102 -96,-136z" style="fill:#0fc45b"/>
   <path class="AccessoryDuckfil3" d="M7978 22822c34,-24 80,-16 105,17 24,33 16,80 -17,104 -104,75 -242,164 -388,223 -227,93 -542,12 -506,-50 0,-32 161,63 450,-88 126,-66 259,-136 356,-206z" style="fill:#db88e2"/>
   <path class="AccessoryDuckfil2 AccessoryDuckstr0" d="M6843 23214c-50,-149 300,-228 411,-311 100,-77 103,-211 171,-300 595,142 902,-305 923,-35 14,173 -342,292 -454,408 135,81 371,182 293,310 -165,270 -1277,131 -1344,-72z" style="fill:#5b5747"/>
   <ellipse class="AccessoryDuckfil14" cx="6745" cy="22636" rx="71" ry="72"/>
   <path class="AccessoryDuckfil14" d="M6953 22225c60,7 105,42 101,77 -4,35 -60,68 -120,61 -60,-7 -102,-52 -98,-87 4,-36 57,-59 117,-51z" style="fill:#7e1b33"/>
   <path class="AccessoryDuckfil14" d="M7236 22345c28,16 43,42 34,59 -10,16 -24,5 -52,-11 -28,-16 -60,-31 -50,-47 9,-17 40,-17 68,-1z" style="fill:#538370"/>
   <path class="AccessoryDuckfil129" d="M7161 25119c-29,-51 140,-147 188,-480 19,-137 -2,-287 -86,-411 -23,-34 -14,-80 20,-104 35,-23 81,-14 104,21 107,157 135,344 110,515 -35,244 -307,509 -336,459z" style="fill:#3c8d07"/>
   <path class="AccessoryDuckfil130" d="M5478 24311c0,-39 423,-52 488,-36 278,75 233,289 199,309 -34,19 11,-154 -222,-212 -285,-70 -465,-23 -465,-61z" style="fill:#cad361"/>
  </g>
 </g><g id="HatBanderas-Big">
 <animateTransform additive="sum" attributeName="transform" dur="10" repeatCount="indefinite" type="translate" values="0;0 200;0;0 200;0;0 200;0;0 200;0"/>
  <metadata id="CorelCorpID_65Corel-Layer"/>
  <path class="HatBanderas-Bigfil623new" d="M7481 11775c345,-1040 311,-2043 486,-2885 232,-1121 1911,-2396 2658,-3072 1967,-1779 4344,-1025 6103,-259 1126,490 629,1794 1294,2827 -147,728 -293,1457 -440,2185 -2462,265 -4924,531 -7386,796 -998,123 -1718,285 -2715,408z" style="fill:#84db2e"/>
  <path class="HatBanderas-Bigfil609new" d="M7915 9176c15,-97 32,-193 52,-286 232,-1121 1911,-2396 2658,-3072 1250,-1131 2666,-1238 3984,-970 -620,35 -1320,124 -2005,321 -1709,491 -3974,2937 -4689,4007z" style="fill:#74733e"/>
  <path class="HatBanderas-Bigfil47new HatBanderas-Bigstr0new" d="M7481 11775c345,-1040 311,-2043 486,-2885 232,-1121 1911,-2396 2658,-3072 1967,-1779 4344,-1025 6103,-259 1126,490 629,1794 1294,2827 -147,728 -293,1457 -440,2185 -2462,265 -4924,531 -7386,796 -998,123 -1718,285 -2715,408z" style="fill:#19fd18"/>
  <path class="HatBanderas-Bigfil624new HatBanderas-Bigstr0new" d="M7200 11691c3412,-240 7053,-446 10465,-686 61,-773 111,-1763 171,-2536 -4223,1600 -7920,-233 -10167,1097 -466,276 -31,1203 -469,2125z" style="fill:#9d55eb"/>
  <g>
   <polygon class="HatBanderas-Bigfil611new HatBanderas-Bigstr0new" points="16362,8067 16772,8358 15912,9342 "/>
   <path class="HatBanderas-Bigfil611new HatBanderas-Bigstr0new" d="M16692 7598c2553,-1831 1646,465 3999,498 -2380,946 -1930,-996 -3999,-498z" style="fill:#5ce887"/>
   <path class="HatBanderas-Bigfil625new HatBanderas-Bigstr0new" d="M16755 7573c2159,-2138 -249,-1752 -385,-3652 -1072,1961 917,1959 385,3652z" style="fill:#98fc59"/>
   <path class="HatBanderas-Bigfil626new HatBanderas-Bigstr0new" d="M17266 7017c492,-575 1176,-975 2062,-1244 739,-627 -458,-1720 1179,-2419 -166,-296 -2154,-371 -2872,394 -1014,1082 818,1798 -369,3269z" style="fill:#ad2ed3"/>
   <path class="HatBanderas-Bigfil627new HatBanderas-Bigstr0new" d="M18755 5998c817,-228 2488,-446 3438,539 1232,380 1176,-573 2354,95 -156,-1265 -2439,-3355 -3577,-3081 -1609,387 -182,1829 -2215,2447z" style="fill:#22ea2c"/>
   <path class="HatBanderas-Bigfil628new HatBanderas-Bigstr0new" d="M22596 6788c1114,336 1233,-253 1971,217 333,758 447,2209 -408,2510 -346,-975 -702,-1911 -1563,-2727z" style="fill:#60a382"/>
   <path class="HatBanderas-Bigfil629new HatBanderas-Bigstr0new" d="M17643 6775c549,-298 1226,-768 1607,-750 1325,65 1239,1738 2036,1939 -1614,185 -1630,-1231 -3643,-1189z" style="fill:#ec5f02"/>
   <path class="HatBanderas-Bigfil630new HatBanderas-Bigstr0new" d="M22044 8058c-109,-496 787,-438 479,-1170 805,692 1425,1701 1618,2645 -568,675 -2052,-733 -2097,-1475z" style="fill:#d88937"/>
   <path class="HatBanderas-Bigfil631new HatBanderas-Bigstr0new" d="M19357 5886c1288,238 1054,1539 2322,1989 -54,-683 991,-348 638,-1233 -1084,-890 -2007,-1334 -2960,-756z" style="fill:#c725ad"/>
   <path class="HatBanderas-Bigfil246new" d="M17534 6622c1130,-963 -654,-2092 671,-3066 -964,973 641,1996 -371,2897 -74,48 -225,122 -300,169z" style="fill:#e46cb6"/>
   <path class="HatBanderas-Bigfil246new" d="M19335 5855c1553,-429 554,-1695 2286,-2060 -1412,500 -510,1604 -1923,2023 -94,14 -269,22 -363,37z" style="fill:#ed41f5"/>
   <path class="HatBanderas-Bigfil246new" d="M19913 5777c1619,-214 677,-1410 2459,-1537 -1495,303 -615,1327 -2094,1550 -95,1 -270,-14 -365,-13z" style="fill:#6c233f"/>
   <path class="HatBanderas-Bigfil246new" d="M20258 5795c1638,-80 852,-1213 2641,-1194 -1525,179 -780,1136 -2279,1236 -95,-6 -267,-35 -362,-42z" style="fill:#8aebc9"/>
   <path class="HatBanderas-Bigfil246new" d="M16936 7334c779,-1169 -734,-1822 -632,-2822 218,1119 1552,1511 867,2595 -57,62 -178,165 -235,227z" style="fill:#4a23c4"/>
   <path class="HatBanderas-Bigfil246new" d="M21111 5943c1520,501 1286,-612 2889,31 -1471,-372 -1179,568 -2585,134 -82,-39 -221,-126 -304,-165z" style="fill:#540a4a"/>
   <path class="HatBanderas-Bigfil619new" d="M17894 6717c1596,-307 1755,674 2725,1056 -820,-482 -923,-1436 -2394,-1181 -89,29 -243,97 -331,125z" style="fill:#acc176"/>
   <path class="HatBanderas-Bigfil619new" d="M18188 6283c1636,-99 1602,889 2484,1390 -715,-580 -630,-1536 -2132,-1471 -94,16 -259,64 -352,81z" style="fill:#8065fb"/>
   <path class="HatBanderas-Bigfil246new" d="M22507 6855c892,636 1060,-171 1967,579 -897,-539 -974,160 -1808,-408 -44,-42 -114,-129 -159,-171z" style="fill:#76cc59"/>
   <path class="HatBanderas-Bigfil619new" d="M19302 5910c1636,101 1417,1074 2196,1678 -598,-662 -336,-1596 -1834,-1716 -95,6 -267,33 -362,38z" style="fill:#3af8e9"/>
   <path class="HatBanderas-Bigfil619new" d="M21071 5969c336,489 133,1062 453,1607 -180,-529 54,-1062 -177,-1519l-276 -88z" style="fill:#2169af"/>
   <path class="HatBanderas-Bigfil632new HatBanderas-Bigstr0new" d="M16654 7658c1882,-3196 6385,-2609 7378,1551 -1790,-4138 -5363,-4068 -7050,-1302 -109,-83 -218,-166 -328,-249z" style="fill:#4ca934"/>
   <path class="HatBanderas-Bigfil246new" d="M23233 7294c445,182 795,-100 1310,587 -558,-533 -847,-256 -1251,-429l-59 -158z" style="fill:#3e2548"/>
   <path class="HatBanderas-Bigfil246new" d="M17854 6295c1275,-836 -311,-2144 1159,-2969 -1112,863 314,2046 -834,2833 -82,39 -243,96 -325,136z" style="fill:#0b4cd7"/>
   <path class="HatBanderas-Bigfil246new" d="M18169 6096c1448,-624 198,-2152 1836,-2736 -1296,676 -173,2057 -1485,2653 -90,26 -261,57 -351,83z" style="fill:#e4b79f"/>
   <path class="HatBanderas-Bigfil246new" d="M22801 7203c-29,403 -745,703 -269,1408 -290,-658 391,-918 409,-1287l-140 -121z" style="fill:#22019c"/>
   <path class="HatBanderas-Bigfil246new" d="M23616 7986c309,317 773,180 882,978 -229,-673 -635,-520 -911,-814l29 -164z" style="fill:#3d80b8"/>
   <path class="HatBanderas-Bigfil246new" d="M22966 7493c62,401 -666,959 -41,1583 -432,-605 271,-1119 206,-1484l-165 -99z" style="fill:#ec256a"/>
   <path class="HatBanderas-Bigfil246new" d="M23252 7885c61,400 -489,950 136,1574 -432,-605 93,-1110 28,-1475l-164 -99z" style="fill:#86ac49"/>
  </g>
  <path class="HatBanderas-Bigfil14new" d="M10085 11073c1733,-414 4543,-1318 5054,-1957 -848,117 -2535,71 -3613,-15 4183,-286 5328,-1326 5569,-3502 183,1554 917,3028 1099,4582 -2256,292 -5853,599 -8109,892z" style="fill:#87eb95"/>
  <path class="HatBanderas-Bigfil633new" d="M2607 14352c-385,-1381 2372,-2357 4229,-2793 3394,-798 7748,-989 9276,-2062 2762,-1940 -962,-4506 1326,-4976 4655,-956 8883,7415 2635,7654 -4382,-800 -9167,-686 -13465,198 -1626,335 -3945,1033 -4001,1979z" style="fill:#072fa5"/>
  <path class="HatBanderas-Bigfil609new" d="M7113 11495c3350,-745 7512,-954 8999,-1998 2762,-1940 -962,-4506 1326,-4976 699,-144 1389,-76 2035,143 -1719,-211 -2691,150 -2467,928 230,798 639,1569 389,2625 -250,1056 -1028,1709 -2889,2209 -1862,500 -5918,819 -7404,1111l11 -42z" style="fill:#122006"/>
  <path class="HatBanderas-Bigfil360new" d="M21879 6358c1904,2240 2159,5665 -1806,5817 -1920,-351 -3917,-526 -5916,-537 2903,-577 5591,0 6862,-703 1297,-718 1937,-2374 860,-4577z" style="fill:#d19a17"/>
  <path class="HatBanderas-Bigfil360new" d="M19027 5131c146,-225 520,-222 837,6 316,229 454,596 308,821 -146,225 -520,222 -836,-6 -316,-228 -455,-596 -309,-821z" style="fill:#cdb5f6"/>
  <path class="HatBanderas-Bigfil634new HatBanderas-Bigstr0new" d="M19212 5375c105,-162 375,-160 602,4 228,165 328,429 223,591 -105,162 -375,160 -603,-4 -228,-164 -327,-429 -222,-591z" style="fill:#5b6cee"/>
  <path class="HatBanderas-Bigfil47new HatBanderas-Bigstr0new" d="M2607 14352c-385,-1381 2372,-2357 4229,-2793 3394,-798 7748,-989 9276,-2062 2762,-1940 -962,-4506 1326,-4976 4655,-956 8883,7415 2635,7654 -4382,-800 -9167,-686 -13465,198 -1626,335 -3945,1033 -4001,1979z" style="fill:#0dcbbb"/>
  <path class="HatBanderas-Bigfil609new" d="M19369 5375c54,-19 107,-6 119,28 12,34 -22,76 -76,94 -54,18 -107,6 -119,-28 -12,-34 22,-76 76,-94z" style="fill:#56370f"/>
 </g></svg>