<svg xmlns="http://www.w3.org/2000/svg" xmlns:xlink="http://www.w3.org/1999/xlink" style="shape-rendering:geometricPrecision; text-rendering:geometricPrecision; image-rendering:optimizeQuality; fill-rule:evenodd; clip-rule:evenodd" version="1.1" viewBox="0 0 29000 29000" xml:space="preserve"><defs><style type="text/css">.HairBack-Bear0fil22 {fill:none}
.Tail-Bear0fil22 {fill:none}
.RightFoot-Bear0fil35 {fill:#a8a499}
.RightFoot-Bear0fil14 {fill:black;fill-opacity:0.200000}
.RightFoot-Bear0fil32 {fill:black;fill-rule:nonzero}
.RightLeg-Bear0fil437 {fill:url(#RightLeg-Bear0id151)}
.RightLeg-Bear0fil14 {fill:black;fill-opacity:0.200000}
.RightLeg-Bear0fil32 {fill:black;fill-rule:nonzero}
.LeftFoot-Bear0fil35 {fill:#a8a499}
.LeftFoot-Bear0fil14 {fill:black;fill-opacity:0.200000}
.LeftFoot-Bear0fil32 {fill:black;fill-rule:nonzero}
.LeftLeg-Bear0fil447 {fill:url(#LeftLeg-Bear0id520)}
.LeftLeg-Bear0fil14 {fill:black;fill-opacity:0.200000}
.LeftLeg-Bear0fil32 {fill:black;fill-rule:nonzero}
.RightHand-Bear0fil452 {fill:url(#RightHand-Bear0id388)}
.RightHand-Bear0fil14 {fill:black;fill-opacity:0.200000}
.RightHand-Bear0fil22 {fill:none}
.RightHand-Bear0str0 {stroke:black;stroke-width:150;stroke-linecap:round;stroke-linejoin:round}
.RightPaw-Bear0fil457 {fill:#90856e}
.RightPaw-Bear0fil32 {fill:black;fill-rule:nonzero}
.RightPaw-Bear0fil458 {fill:#A16A6A}
.LeftHand-Bear0fil465 {fill:url(#LeftHand-Bear0id386)}
.LeftHand-Bear0fil14 {fill:black;fill-opacity:0.200000}
.LeftHand-Bear0fil22 {fill:none}
.LeftHand-Bear0str0 {stroke:black;stroke-width:150;stroke-linecap:round;stroke-linejoin:round}
.LeftPaw-Bear0fil457 {fill:#90856e}
.LeftPaw-Bear0fil32 {fill:black;fill-rule:nonzero}
.LeftPaw-Bear0fil458 {fill:#A16A6A}
.Body-Bear2fil478 {fill:url(#Body-Bear2id266)}
.Body-Bear2fil479 {fill:url(#Body-Bear2id516)}
.Body-Bear2fil14 {fill:black;fill-opacity:0.200000}
.Body-Bear2fil32 {fill:black;fill-rule:nonzero}
.Body-Bear2fil22 {fill:none}
.Ears-Bear6fil504 {fill:url(#Ears-Bear6id487)}
.Ears-Bear6fil14 {fill:black;fill-opacity:0.200000}
.Ears-Bear6fil506 {fill:url(#Ears-Bear6id144)}
.Ears-Bear6fil503 {fill:url(#Ears-Bear6id522)}
.Ears-Bear6str4 {stroke:black;stroke-width:150}
.Ears-Bear6fil505 {fill:url(#Ears-Bear6id533)}
.Head-Bear6fil522 {fill:url(#Head-Bear6id528)}
.Head-Bear6fil32 {fill:black;fill-rule:nonzero}
.Head-Bear6fil14 {fill:black;fill-opacity:0.200000}
.Head-Bear6fil523 {fill:url(#Head-Bear6id824)}
.Head-Bear6fil524 {fill:url(#Head-Bear6id450)}
.Mouth-Bear4fil100 {fill:black}
.Mouth-Bear4fil152 {fill:white}
.Mouth-Bear4fil22 {fill:none}
.Mouth-Bear4str0 {stroke:black;stroke-width:150;stroke-linecap:round;stroke-linejoin:round}
.Eyes-Bear8fil570 {fill:url(#Eyes-Bear8id836)}
.Eyes-Bear8fil387 {fill:url(#Eyes-Bear8id1039)}
.Eyes-Bear8fil571 {fill:url(#Eyes-Bear8id748)}
.Eyes-Bear8fil152 {fill:white}
.Eyes-Bear8fil157 {fill:black;fill-opacity:0.501961}
.Eyes-Bear8fil155 {fill:#3b3527}
.Eyes-Bear8fil14 {fill:black;fill-opacity:0.200000}
.Eyes-Bear8fil572 {fill:url(#Eyes-Bear8id956)}
.Eyes-Bear8fil573 {fill:url(#Eyes-Bear8id1045)}
.Eyes-Bear8fil574 {fill:url(#Eyes-Bear8id777)}
.Eyes-Bear8fil22 {fill:none}
.Eyes-Bear8str4 {stroke:black;stroke-width:150}
.Moustache-Bear0fil22 {fill:none}
.Nose-Bear0fil598 {fill:url(#Nose-Bear0id451)}
.Nose-Bear0str0 {stroke:black;stroke-width:150;stroke-linecap:round;stroke-linejoin:round}
.Hair-Bear0fil32 {fill:black;fill-rule:nonzero}
.BraceletSteel-Bigfil59new {fill:url(#BraceletSteel-Bigid697new);fill-rule:nonzero}
.BraceletSteel-Bigstr4new {stroke:black;stroke-width:100}
.BraceletSteel-Bigfil60new {fill:url(#BraceletSteel-Bigid663new);fill-rule:nonzero}
.NecklaceYinYangfil225new {fill:url(#NecklaceYinYangid676new);fill-rule:nonzero}
.NecklaceYinYangfil46new {fill:white;fill-rule:nonzero;fill-opacity:0.200000}
.NecklaceYinYangfil84new {fill:black}
.NecklaceYinYangfil83new {fill:white}
.NecklaceYinYangfil47new {fill:none;fill-rule:nonzero}
.NecklaceYinYangstr4new {stroke:black;stroke-width:100}
.NecklaceYinYangfil226new {fill:url(#NecklaceYinYangid677new);fill-rule:nonzero}
.NecklaceYinYangstr3new {stroke:black;stroke-width:100;stroke-linecap:round;stroke-linejoin:round}
.NecklaceYinYangfil227new {fill:url(#NecklaceYinYangid669new);fill-rule:nonzero}
.NecklaceYinYangfil228new {fill:url(#NecklaceYinYangid705new);fill-rule:nonzero}
.NecklaceYinYangfil229new {fill:url(#NecklaceYinYangid685new);fill-rule:nonzero}
.NecklaceYinYangfil230new {fill:url(#NecklaceYinYangid101new)}
.HatGlasses-Bigfil571new {fill:white;fill-opacity:0.400000}
.HatGlasses-Bigfil572new {fill:white;fill-opacity:0.701961}
.HatGlasses-Bigfil708new {fill:url(#HatGlasses-Bigid683new);fill-rule:nonzero}
.AccessoryTeddyfil111 {fill:url(#AccessoryTeddyid56)}
.AccessoryTeddyfil3 {fill:black;fill-rule:nonzero}
.AccessoryTeddyfil112 {fill:url(#AccessoryTeddyid75)}
.AccessoryTeddyfil19 {fill:black;fill-opacity:0.501961}
.AccessoryTeddyfil115 {fill:url(#AccessoryTeddyid69)}
.AccessoryTeddyfil117 {fill:url(#AccessoryTeddyid31)}
.AccessoryTeddyfil119 {fill:url(#AccessoryTeddyid5)}
.AccessoryTeddyfil120 {fill:url(#AccessoryTeddyid36)}
.AccessoryTeddyfil121 {fill:url(#AccessoryTeddyid41)}
.AccessoryTeddyfil15 {fill:black}
.AccessoryTeddyfil14 {fill:white}
.AccessoryTeddyfil109 {fill:url(#AccessoryTeddyid76)}
.AccessoryTeddystr1 {stroke:black;stroke-width:150}
.AccessoryTeddyfil110 {fill:url(#AccessoryTeddyid88)}
.AccessoryTeddyfil113 {fill:#B88531}
.AccessoryTeddyfil114 {fill:url(#AccessoryTeddyid10)}
.AccessoryTeddyfil116 {fill:url(#AccessoryTeddyid29)}
.AccessoryTeddyfil118 {fill:url(#AccessoryTeddyid27)}
.AccessoryTeddyfil2 {fill:none}
.AccessoryTeddystr8 {stroke:black;stroke-width:100;stroke-linecap:round;stroke-linejoin:round}
</style><linearGradient gradientUnits="objectBoundingBox" id="RightLeg-Bear0id151" x1="50%" x2="50%" xlink:href="#RightLeg-Bear0id150" y1="100%" y2="0%">
  </linearGradient><linearGradient gradientUnits="objectBoundingBox" id="LeftLeg-Bear0id520" x1="50%" x2="50%" xlink:href="#LeftLeg-Bear0id150" y1="100%" y2="0%">
  </linearGradient><linearGradient gradientUnits="objectBoundingBox" id="RightHand-Bear0id388" x1="36.9963%" x2="63.0034%" xlink:href="#RightHand-Bear0id75" y1="2.66464%" y2="97.3354%">
  </linearGradient><linearGradient gradientUnits="objectBoundingBox" id="LeftHand-Bear0id386" x1="63.0037%" x2="36.9966%" xlink:href="#LeftHand-Bear0id75" y1="2.66464%" y2="97.3354%">
  </linearGradient><linearGradient gradientUnits="userSpaceOnUse" id="Body-Bear2id266" x1="13653.8" x2="13653.8" y1="17442" y2="23250.9">
   <stop offset="0" style="stop-opacity:1; stop-color:#695f4a"/>
   <stop offset="0.0588235" style="stop-opacity:1; stop-color:#695f4a"/>
   <stop offset="0.529412" style="stop-opacity:1; stop-color:#90856e"/>
   <stop offset="1" style="stop-opacity:1; stop-color:#a8a499"/>
  </linearGradient><linearGradient gradientUnits="userSpaceOnUse" id="Body-Bear2id516" x1="13653.8" x2="13653.8" xlink:href="#Body-Bear2id310" y1="18611" y2="23350.9">
  </linearGradient><linearGradient gradientUnits="userSpaceOnUse" id="Ears-Bear6id487" x1="7405.67" x2="9471.35" xlink:href="#Ears-Bear6id67" y1="8671.22" y2="11272.4">
  </linearGradient><linearGradient gradientUnits="userSpaceOnUse" id="Ears-Bear6id144" x1="19902" x2="17836.3" xlink:href="#Ears-Bear6id67" y1="8671.22" y2="11272.4">
  </linearGradient><linearGradient gradientUnits="userSpaceOnUse" id="Ears-Bear6id522" x1="6765.99" x2="9729.21" xlink:href="#Ears-Bear6id18" y1="8273.95" y2="11805.4">
  </linearGradient><linearGradient gradientUnits="userSpaceOnUse" id="Ears-Bear6id533" x1="20541.7" x2="17578.5" xlink:href="#Ears-Bear6id18" y1="8273.95" y2="11805.4">
  </linearGradient><linearGradient gradientUnits="objectBoundingBox" id="Head-Bear6id528" x1="50%" x2="50%" y1="0%" y2="99.9999%">
   <stop offset="0" style="stop-opacity:1; stop-color:#a8a499"/>
   <stop offset="0.74902" style="stop-opacity:1; stop-color:#90856e"/>
   <stop offset="1" style="stop-opacity:1; stop-color:#695f4a"/>
  </linearGradient><linearGradient gradientUnits="userSpaceOnUse" id="Head-Bear6id824" x1="13653.8" x2="13653.8" xlink:href="#Head-Bear6id453" y1="17375.7" y2="8362.04">
  </linearGradient><linearGradient gradientUnits="userSpaceOnUse" id="Head-Bear6id450" x1="13653.8" x2="13653.8" xlink:href="#Head-Bear6id310" y1="16931" y2="11471.2">
  </linearGradient><linearGradient gradientUnits="userSpaceOnUse" id="Eyes-Bear8id836" x1="10362.1" x2="9654.95" xlink:href="#Eyes-Bear8id27" y1="14676.2" y2="11515">
  </linearGradient><radialGradient cx="49.9999%" cy="50.0002%" fx="49.9999%" fy="50.0002%" gradientUnits="objectBoundingBox" id="Eyes-Bear8id1039" r="50.0001%">
   <stop offset="0" style="stop-opacity:1; stop-color:#00ffa5"/>
   <stop offset="1" style="stop-opacity:1; stop-color:#008053"/>
  </radialGradient><linearGradient gradientUnits="userSpaceOnUse" id="Eyes-Bear8id748" x1="9941.09" x2="10431.8" xlink:href="#Eyes-Bear8id384" y1="11484.9" y2="14049.7">
  </linearGradient><linearGradient gradientUnits="userSpaceOnUse" id="Eyes-Bear8id956" x1="16945.5" x2="17652.7" xlink:href="#Eyes-Bear8id27" y1="14676.2" y2="11515">
  </linearGradient><radialGradient cx="17298.2" cy="13284.5" fx="17298.2" fy="13284.5" gradientTransform="matrix(-1 -0 -0 0.895532 34596 1388)" gradientUnits="userSpaceOnUse" id="Eyes-Bear8id1045" r="1677.74" xlink:href="#Eyes-Bear8id1039">
  </radialGradient><linearGradient gradientUnits="userSpaceOnUse" id="Eyes-Bear8id777" x1="17366.6" x2="16875.8" xlink:href="#Eyes-Bear8id384" y1="11484.9" y2="14049.7">
  </linearGradient><linearGradient gradientUnits="userSpaceOnUse" id="Nose-Bear0id451" x1="13653.8" x2="13653.8" y1="14108.6" y2="14926.9">
   <stop offset="0" style="stop-opacity:1; stop-color:#FFCCCC"/>
   <stop offset="1" style="stop-opacity:1; stop-color:#453F2C"/>
  </linearGradient><linearGradient gradientUnits="userSpaceOnUse" id="BraceletSteel-Bigid697new" x1="8099.26" x2="10313.3" xlink:href="#BraceletSteel-Bigid663new" y1="19855.6" y2="20661.5">
  </linearGradient><linearGradient gradientUnits="userSpaceOnUse" id="NecklaceYinYangid676new" x1="13681.9" x2="13681.9" xlink:href="#NecklaceYinYangid669new" y1="17208" y2="20390.5">
  </linearGradient><linearGradient gradientUnits="userSpaceOnUse" id="NecklaceYinYangid677new" x1="11189" x2="11399.5" xlink:href="#NecklaceYinYangid669new" y1="18603.5" y2="18002.2">
  </linearGradient><linearGradient gradientUnits="userSpaceOnUse" id="NecklaceYinYangid705new" x1="16170.9" x2="15961.3" xlink:href="#NecklaceYinYangid669new" y1="18602.8" y2="18004">
  </linearGradient><linearGradient gradientUnits="userSpaceOnUse" id="NecklaceYinYangid685new" x1="15099" x2="14900.7" xlink:href="#NecklaceYinYangid669new" y1="19895.5" y2="19273.3">
  </linearGradient><linearGradient gradientUnits="userSpaceOnUse" id="NecklaceYinYangid101new" x1="13681.9" x2="13681.9" y1="20483.4" y2="19943.6">
   <stop offset="0" style="stop-opacity:1; stop-color:#2B2A29"/>
   <stop offset="1" style="stop-opacity:1; stop-color:#f5e6df"/>
  </linearGradient><linearGradient gradientUnits="userSpaceOnUse" id="HatGlasses-Bigid683new" x1="11456.4" x2="15907.5" xlink:href="#HatGlasses-Bigid680new" y1="16219.5" y2="11234.2">
  </linearGradient><linearGradient gradientUnits="userSpaceOnUse" id="AccessoryTeddyid56" x1="5274.88" x2="5544.57" y1="25442.4" y2="22421.3">
   <stop offset="0" style="stop-opacity:1; stop-color:#B88531"/>
   <stop offset="0.14902" style="stop-opacity:1; stop-color:#99672C"/>
   <stop offset="0.639216" style="stop-opacity:1; stop-color:#9C6E24"/>
   <stop offset="1" style="stop-opacity:1; stop-color:#523100"/>
  </linearGradient><linearGradient gradientUnits="userSpaceOnUse" id="AccessoryTeddyid75" x1="5571.12" x2="5255.06" xlink:href="#AccessoryTeddyid5" y1="22926.7" y2="24922">
  </linearGradient><linearGradient gradientUnits="userSpaceOnUse" id="AccessoryTeddyid69" x1="5447.62" x2="5256.22" xlink:href="#AccessoryTeddyid5" y1="21348.3" y2="22556.4">
  </linearGradient><linearGradient gradientUnits="userSpaceOnUse" id="AccessoryTeddyid31" x1="4032.54" x2="3912.76" xlink:href="#AccessoryTeddyid5" y1="24354.6" y2="25110.8">
  </linearGradient><linearGradient gradientUnits="userSpaceOnUse" id="AccessoryTeddyid36" x1="4875.13" x2="5044.37" y1="21255" y2="20829.7">
   <stop offset="0" style="stop-opacity:1; stop-color:#5C3600"/>
   <stop offset="0.509804" style="stop-opacity:1; stop-color:#2C160A"/>
   <stop offset="1" style="stop-opacity:1; stop-color:#3F261A"/>
  </linearGradient><linearGradient gradientUnits="userSpaceOnUse" id="AccessoryTeddyid41" x1="5933.75" x2="5890.77" xlink:href="#AccessoryTeddyid36" y1="21325.3" y2="20867.1">
  </linearGradient><linearGradient gradientUnits="userSpaceOnUse" id="AccessoryTeddyid76" x1="7386.63" x2="5965.55" xlink:href="#AccessoryTeddyid56" y1="24047.7" y2="22751.4">
  </linearGradient><linearGradient gradientUnits="userSpaceOnUse" id="AccessoryTeddyid88" x1="3357.21" x2="4839.21" xlink:href="#AccessoryTeddyid56" y1="24050.5" y2="22671">
  </linearGradient><linearGradient gradientUnits="userSpaceOnUse" id="AccessoryTeddyid10" x1="4764.52" x2="6162.34" y1="22575.4" y2="20450.7">
   <stop offset="0" style="stop-opacity:1; stop-color:#B88531"/>
   <stop offset="0.14902" style="stop-opacity:1; stop-color:#99672C"/>
   <stop offset="0.501961" style="stop-opacity:1; stop-color:#9C6E24"/>
   <stop offset="1" style="stop-opacity:1; stop-color:#FFC44F"/>
  </linearGradient><linearGradient gradientUnits="userSpaceOnUse" id="AccessoryTeddyid29" x1="3813.38" x2="4245.66" xlink:href="#AccessoryTeddyid27" y1="24177.4" y2="25442.6">
  </linearGradient><linearGradient gradientUnits="userSpaceOnUse" id="RightLeg-Bear0id150" x1="15526.7" x2="15526.7" y1="24311.8" y2="20742.8">
   <stop offset="0" style="stop-opacity:1; stop-color:#a8a499"/>
   <stop offset="0.278431" style="stop-opacity:1; stop-color:#a8a499"/>
   <stop offset="1" style="stop-opacity:1; stop-color:#90856e"/>
  </linearGradient><linearGradient gradientUnits="userSpaceOnUse" id="LeftLeg-Bear0id150" x1="15526.7" x2="15526.7" y1="24311.8" y2="20742.8">
   <stop offset="0" style="stop-opacity:1; stop-color:#a8a499"/>
   <stop offset="0.278431" style="stop-opacity:1; stop-color:#a8a499"/>
   <stop offset="1" style="stop-opacity:1; stop-color:#90856e"/>
  </linearGradient><linearGradient gradientUnits="userSpaceOnUse" id="RightHand-Bear0id75" x1="17042.3" x2="17994.1" y1="17293.3" y2="21110.7">
   <stop offset="0" style="stop-opacity:1; stop-color:#695f4a"/>
   <stop offset="0.0784314" style="stop-opacity:1; stop-color:#695f4a"/>
   <stop offset="0.768627" style="stop-opacity:1; stop-color:#90856e"/>
   <stop offset="1" style="stop-opacity:1; stop-color:#90856e"/>
  </linearGradient><linearGradient gradientUnits="userSpaceOnUse" id="LeftHand-Bear0id75" x1="17042.3" x2="17994.1" y1="17293.3" y2="21110.7">
   <stop offset="0" style="stop-opacity:1; stop-color:#695f4a"/>
   <stop offset="0.0784314" style="stop-opacity:1; stop-color:#695f4a"/>
   <stop offset="0.768627" style="stop-opacity:1; stop-color:#90856e"/>
   <stop offset="1" style="stop-opacity:1; stop-color:#90856e"/>
  </linearGradient><linearGradient gradientUnits="userSpaceOnUse" id="Body-Bear2id310" x1="13653.8" x2="13653.8" y1="17946" y2="23169.7">
   <stop offset="0" style="stop-opacity:1; stop-color:#e8d2c8"/>
   <stop offset="0.478431" style="stop-opacity:1; stop-color:#f5e6df"/>
   <stop offset="1" style="stop-opacity:1; stop-color:#f5e6df"/>
  </linearGradient><linearGradient gradientUnits="userSpaceOnUse" id="Ears-Bear6id67" x1="19243.1" x2="17345.7" y1="8365.42" y2="10750.8">
   <stop offset="0" style="stop-opacity:1; stop-color:#F2E6E6"/>
   <stop offset="1" style="stop-opacity:1; stop-color:#B58383"/>
  </linearGradient><linearGradient gradientUnits="userSpaceOnUse" id="Ears-Bear6id18" x1="10235.1" x2="10235.1" y1="19681.2" y2="17649.5">
   <stop offset="0" style="stop-opacity:1; stop-color:#615a4a"/>
   <stop offset="1" style="stop-opacity:1; stop-color:#3b3527"/>
  </linearGradient><linearGradient gradientUnits="userSpaceOnUse" id="Head-Bear6id453" x1="13653.8" x2="13653.8" y1="16305.8" y2="9413.82">
   <stop offset="0" style="stop-opacity:1; stop-color:#90856e"/>
   <stop offset="0.678431" style="stop-opacity:1; stop-color:#a8a499"/>
   <stop offset="1" style="stop-opacity:1; stop-color:#a8a499"/>
  </linearGradient><linearGradient gradientUnits="userSpaceOnUse" id="Head-Bear6id310" x1="13653.8" x2="13653.8" y1="17946" y2="23169.7">
   <stop offset="0" style="stop-opacity:1; stop-color:#e8d2c8"/>
   <stop offset="0.478431" style="stop-opacity:1; stop-color:#f5e6df"/>
   <stop offset="1" style="stop-opacity:1; stop-color:#f5e6df"/>
  </linearGradient><linearGradient gradientUnits="userSpaceOnUse" id="Eyes-Bear8id27" x1="16937.6" x2="16937.6" y1="14961.3" y2="11448.6">
   <stop offset="0" style="stop-opacity:1; stop-color:#008053"/>
   <stop offset="1" style="stop-opacity:1; stop-color:black"/>
  </linearGradient><linearGradient gradientUnits="userSpaceOnUse" id="Eyes-Bear8id384" x1="16417.8" x2="16417.8" y1="11784.3" y2="14068.5">
   <stop offset="0" style="stop-opacity:1; stop-color:black"/>
   <stop offset="0.45" style="stop-opacity:1; stop-color:black"/>
   <stop offset="1" style="stop-opacity:1; stop-color:#006642"/>
  </linearGradient><linearGradient gradientUnits="userSpaceOnUse" id="BraceletSteel-Bigid663new" x1="19208.4" x2="16994.4" y1="19855.6" y2="20661.5">
   <stop offset="0" style="stop-opacity:1; stop-color:#424352"/>
   <stop offset="0.109804" style="stop-opacity:1; stop-color:#848690"/>
   <stop offset="0.25098" style="stop-opacity:1; stop-color:#FFFFFC"/>
   <stop offset="0.470588" style="stop-opacity:1; stop-color:#8D8F99"/>
   <stop offset="0.780392" style="stop-opacity:1; stop-color:#16171A"/>
   <stop offset="1" style="stop-opacity:1; stop-color:#42444D"/>
  </linearGradient><linearGradient gradientUnits="userSpaceOnUse" id="NecklaceYinYangid669new" x1="12270.9" x2="12467.6" y1="19894.7" y2="19277.5">
   <stop offset="0" style="stop-opacity:1; stop-color:#643300"/>
   <stop offset="1" style="stop-opacity:1; stop-color:#AB7D2D"/>
  </linearGradient><linearGradient gradientUnits="userSpaceOnUse" id="HatGlasses-Bigid680new" x1="11522.6" x2="15841.3" y1="16145.3" y2="11308.4">
   <stop offset="0" style="stop-opacity:1; stop-color:#01013B"/>
   <stop offset="1" style="stop-opacity:1; stop-color:#000094"/>
  </linearGradient><linearGradient gradientUnits="userSpaceOnUse" id="AccessoryTeddyid5" x1="6771.67" x2="6651.69" y1="24347.4" y2="25104.8">
   <stop offset="0" style="stop-opacity:1; stop-color:#F2D996"/>
   <stop offset="1" style="stop-opacity:1; stop-color:#C79A45"/>
  </linearGradient><linearGradient gradientUnits="userSpaceOnUse" id="AccessoryTeddyid27" x1="7031.19" x2="6244.99" y1="24298.4" y2="25352.6">
   <stop offset="0" style="stop-opacity:1; stop-color:#B88531"/>
   <stop offset="0.329412" style="stop-opacity:1; stop-color:#99672C"/>
   <stop offset="0.541176" style="stop-opacity:1; stop-color:#9C6E24"/>
   <stop offset="1" style="stop-opacity:1; stop-color:#523100"/>
  </linearGradient></defs><g id="HairBack-Bear0">
 <animateTransform additive="sum" attributeName="transform" dur="10" repeatCount="indefinite" type="translate" values="0;0 200;0;0 200;0;0 200;0;0 200;0"/>
  <metadata id="CorelCorpID_216Corel-Layer"/>
  <rect class="HairBack-Bear0fil22" height="998" width="1061" x="13124" y="20899"/>
 </g><g id="Tail-Bear0">
  <metadata id="CorelCorpID_219Corel-Layer"/>
  <rect class="Tail-Bear0fil22" height="1129" width="1129" x="13089" y="21055"/>
 </g><g id="RightFoot-Bear0">
  <metadata id="CorelCorpID_220Corel-Layer"/>
  <path class="RightFoot-Bear0fil35" d="M17045 25080c-66,213 -260,328 -578,232 -82,82 -466,170 -720,2 -241,-159 -607,-457 -720,-564 -96,-91 -335,-220 -291,-565 777,87 1299,173 1927,-306 18,146 320,205 479,267 233,89 426,392 211,604 42,135 -122,330 -308,330z" style="fill:#e6def0"/>
  <path class="RightFoot-Bear0fil14" d="M16490 25327c320,133 480,-45 565,-254 204,-15 307,-138 301,-308 28,-45 52,-79 86,-174 31,-139 -54,-325 -125,-351 31,144 -137,125 -191,129 232,292 -30,451 -178,321 -4,299 -321,400 -555,107 -111,282 -514,451 -1612,-364 1095,1261 1346,941 1709,894z" style="fill:#6211db"/>
  <path class="RightFoot-Bear0fil32" d="M16963 25089c-68,167 -221,202 -384,173 53,-171 15,-486 -309,-550 160,131 191,345 122,563 -153,91 -454,76 -604,-23 -105,-69 -235,-166 -357,-262 -142,-112 -270,-229 -408,-342 -98,-80 -205,-212 -213,-454 5,-41 -24,-78 -65,-83 -41,-5 -84,23 -83,65 7,344 143,486 266,587 138,114 267,232 411,345 124,97 257,197 366,269 205,135 567,145 776,17 252,66 509,18 618,-243 169,-27 352,-197 334,-378 149,-177 94,-405 -60,-562 -136,-138 -294,-154 -454,-250 -66,-40 -120,-83 -125,-121l-137 73c20,64 119,137 185,176 138,83 316,117 424,227 53,54 98,127 105,203 -87,-137 -253,-261 -447,-225 213,57 340,284 356,532 -17,67 -81,130 -143,158 -9,-180 -141,-449 -459,-414 197,78 290,282 285,519z" style="fill:#1c8fa5"/>
 </g><g id="LeftFoot-Bear0">
  <metadata id="CorelCorpID_229Corel-Layer"/>
  <path class="LeftFoot-Bear0fil35" d="M10263 25080c66,213 260,328 578,232 82,82 466,170 720,2 241,-159 607,-457 719,-564 96,-91 336,-220 292,-565 -777,87 -1299,173 -1927,-306 -19,146 -321,205 -479,267 -233,89 -427,392 -211,604 -42,135 121,330 308,330z" style="fill:#da4a57"/>
  <path class="LeftFoot-Bear0fil14" d="M10817 25327c-320,133 -479,-45 -565,-254 -203,-15 -307,-138 -301,-308 -27,-45 -52,-79 -85,-174 -32,-139 54,-325 124,-351 -30,144 137,125 192,129 -233,292 29,451 178,321 4,299 321,400 554,107 112,282 515,451 1613,-364 -1095,1261 -1346,941 -1710,894z" style="fill:#beec3e"/>
  <path class="LeftFoot-Bear0fil32" d="M10345 25089c68,167 220,202 384,173 -54,-171 -16,-486 309,-550 -160,131 -191,345 -122,563 153,91 454,76 604,-23 104,-69 234,-166 356,-262 143,-112 271,-229 409,-342 97,-80 205,-212 213,-454 -5,-41 24,-78 65,-83 41,-5 84,23 83,65 -7,344 -143,486 -266,587 -139,114 -268,232 -411,345 -124,97 -258,197 -367,269 -205,135 -567,145 -776,17 -251,66 -509,18 -617,-243 -169,-27 -352,-197 -335,-378 -149,-177 -93,-405 61,-562 136,-138 294,-154 454,-250 66,-40 120,-83 125,-121l137 73c-20,64 -120,137 -185,176 -139,83 -316,117 -425,227 -53,54 -97,127 -104,203 86,-137 252,-261 447,-225 -213,57 -341,284 -357,532 18,67 82,130 144,158 8,-180 141,-449 459,-414 -197,78 -291,282 -285,519z" style="fill:#f164db"/>
 </g><g id="RightLeg-Bear0">
  <metadata id="CorelCorpID_224Corel-Layer"/>
  <path class="RightLeg-Bear0fil437" d="M13654 20747c651,0 2263,-52 2620,230 303,239 971,977 969,1838 -2,444 -257,819 -524,1020 -578,425 -1151,626 -1983,350 7,-583 -643,-742 -1082,-749l0 -2689z" style="fill:#ef414d"/>
  <path class="RightLeg-Bear0fil14" d="M16988 23561c110,-131 245,-442 245,-600 2,-776 -323,-1481 -652,-1782 -248,370 -56,940 55,979 367,105 445,994 352,1403z" style="fill:#c461bb"/>
  <path class="RightLeg-Bear0fil32" d="M16690 23782c-238,187 -417,303 -711,449 260,-35 573,-178 785,-337 332,-249 552,-662 553,-1079 1,-360 -110,-698 -263,-990 -227,-429 -547,-760 -734,-907 -32,-26 -79,-20 -105,12 -25,33 -20,80 13,105 175,139 478,451 693,860 144,273 248,587 247,920 -1,358 -198,746 -478,967zm-1745 794c71,68 -33,176 -104,108 -135,-130 -182,-317 -180,-500 3,-218 -99,-369 -246,-471 -213,-147 -519,-198 -761,-203l0 -149 1 0c265,5 604,62 845,229 186,129 314,320 310,596 -1,139 31,290 135,390z" style="fill:#b1904a"/>
 </g><g id="LeftLeg-Bear0">
  <metadata id="CorelCorpID_233Corel-Layer"/>
  <path class="LeftLeg-Bear0fil447" d="M13654 20747c-651,0 -2264,-52 -2620,230 -303,239 -971,977 -969,1838 1,444 256,819 524,1020 578,425 1150,626 1983,350 -7,-583 642,-742 1082,-749l0 -2689z" style="fill:#b2e81a"/>
  <path class="LeftLeg-Bear0fil14" d="M10320 23561c-110,-131 -245,-442 -245,-600 -3,-776 323,-1481 652,-1782 248,370 56,940 -56,979 -366,105 -444,994 -351,1403z" style="fill:#c77a5c"/>
  <path class="LeftLeg-Bear0fil32" d="M10618 23782c238,187 417,303 711,449 -260,-35 -573,-178 -785,-337 -332,-249 -552,-662 -554,-1079 -1,-360 110,-698 264,-990 226,-429 547,-760 734,-907 32,-26 79,-20 104,12 26,33 20,80 -12,105 -175,139 -478,451 -694,860 -143,273 -247,587 -246,920 1,358 198,746 478,967zm1745 794c-71,68 32,176 103,108 135,-130 183,-317 181,-500 -3,-218 98,-369 246,-471 212,-147 519,-198 761,-203l0 -149 -1 0c-265,5 -604,62 -845,229 -186,129 -314,320 -311,596 2,139 -31,290 -134,390z" style="fill:#bcc2bd"/>
 </g><g id="RightHand-Bear0">
 <animateTransform additive="sum" attributeName="transform" dur="10" repeatCount="indefinite" type="translate" values="0;0 200;0;0 200;0;0 200;0;0 200;0"/>
  <metadata id="CorelCorpID_238Corel-Layer"/>
  <path class="RightHand-Bear0fil452" d="M16111 17210c1487,-179 2823,1880 3151,3021 160,558 -1806,1220 -1964,882 -68,-147 -295,-477 -571,-705 -149,-820 -321,-1468 -1092,-3106 169,-47 290,-69 476,-92z" style="fill:#18ef8b"/>
  <path class="RightHand-Bear0fil22 RightHand-Bear0str0" d="M16111 17205c1487,-179 2823,1880 3151,3021 160,558 -1806,1220 -1964,882 -68,-147 -295,-477 -571,-705 -149,-820 -321,-1468 -1092,-3106 169,-47 290,-69 476,-92z" style="fill:#a1494e"/>
  <path class="RightHand-Bear0fil14" d="M17217 20971c-131,-206 -302,-406 -490,-563 -50,-606 -203,-1164 -276,-1762 236,212 930,1618 766,2325z" style="fill:#b1e31b"/>
 </g><g id="LeftHand-Bear0">
 <animateTransform additive="sum" attributeName="transform" dur="10" repeatCount="indefinite" type="translate" values="0;0 200;0;0 200;0;0 200;0;0 200;0"/>
  <metadata id="CorelCorpID_247Corel-Layer"/>
  <path class="LeftHand-Bear0fil465" d="M11197 17210c-1488,-179 -2824,1880 -3151,3021 -160,558 1806,1220 1963,882 69,-147 296,-477 571,-705 149,-820 322,-1468 1092,-3106 -168,-47 -290,-69 -475,-92z" style="fill:#d7ba11"/>
  <path class="LeftHand-Bear0fil22 LeftHand-Bear0str0" d="M11197 17205c-1488,-179 -2824,1880 -3151,3021 -160,558 1806,1220 1963,882 69,-147 296,-477 571,-705 149,-820 322,-1468 1092,-3106 -168,-47 -290,-69 -475,-92z" style="fill:#d5bb26"/>
  <path class="LeftHand-Bear0fil14" d="M10090 20971c132,-206 303,-406 490,-563 51,-606 203,-1164 276,-1762 -235,212 -929,1618 -766,2325z" style="fill:#f93851"/>
 </g><g id="Body-Bear2">
 <animateTransform additive="sum" attributeName="transform" dur="10" repeatCount="indefinite" type="translate" values="0;0 200;0;0 200;0;0 200;0;0 200;0"/>
  <metadata id="CorelCorpID_257Corel-Layer"/>
  <path class="Body-Bear2fil478" d="M13654 23251c1692,-3 2768,-207 3233,-1826 302,-1052 -330,-2764 -1019,-3983 -551,110 -1409,139 -2214,150 -806,-11 -1663,-40 -2215,-150 -688,1219 -1321,2931 -1018,3983 465,1619 1541,1823 3233,1826z" style="fill:#1609f6"/>
  <path class="Body-Bear2fil479" d="M10345 20913c6,183 31,355 76,512 465,1619 1541,1923 3233,1926 1692,-3 2768,-307 3233,-1926 45,-157 69,-329 76,-512 -25,-106 -51,-212 -78,-316 -634,1002 -759,-1957 -3231,-1986 -2472,29 -2598,2988 -3231,1986 -27,104 -54,210 -78,316z" style="fill:#c4780b"/>
  <path class="Body-Bear2fil14" d="M11416 22901c-455,-288 -787,-750 -995,-1476 -211,-735 34,-1792 435,-2779 -591,2230 70,3628 560,4255z" style="fill:#e12a72"/>
  <path class="Body-Bear2fil32" d="M11416 22901c-539,-241 -960,-968 -1067,-1455 -108,-487 -59,-1102 131,-1659 -71,577 -87,1191 13,1618 104,444 495,1184 923,1496z" style="fill:#446320"/>
  <path class="Body-Bear2fil22" d="M12621 22856c-1016,-156 -1749,-629 -1932,-1889 -2,-17 -5,-34 -7,-51l0 -4c-2,-16 -4,-32 -5,-48l-1 -7c-1,-15 -3,-31 -4,-46l0 -8c-2,-15 -3,-30 -3,-46l-1 -8c-1,-16 -1,-31 -2,-47l0 -6c-1,-17 -1,-34 -1,-51l0 -5c0,-17 0,-34 0,-50l0 -8c0,-15 0,-31 1,-47l0 -9c1,-15 1,-30 2,-46l0 -11c1,-14 2,-29 3,-44l1 -12c1,-15 2,-29 3,-44l1 -13c1,-15 3,-31 4,-46l2 -14c1,-15 3,-30 5,-44l1 -15c2,-14 4,-27 5,-41l3 -18c2,-13 3,-26 5,-39l3 -18c2,-12 4,-25 6,-38 1,-7 2,-14 4,-22 2,-12 4,-25 6,-37l4 -23c2,-11 4,-23 6,-34 2,-9 4,-18 6,-28 2,-10 4,-21 6,-32 2,-9 4,-18 6,-27 2,-11 4,-21 7,-32l6 -27c2,-11 4,-21 7,-31 3,-13 6,-25 9,-37l5 -21c3,-14 6,-27 9,-40l5 -18c4,-14 7,-28 11,-42l4 -15c4,-15 8,-30 12,-46l3 -8c4,-16 9,-33 14,-49l1 -7m15 -50l9 -28c5,-17 10,-34 15,-52l2 -5c6,-17 11,-34 17,-51l1 -6c6,-18 12,-36 18,-54l0 -1c-142,1971 409,3124 1703,3596" style="fill:#d28bfa"/>
  <path class="Body-Bear2fil22" d="M12621 22856c-1016,-156 -1749,-629 -1932,-1889 -2,-17 -5,-34 -7,-51l0 -4c-2,-16 -4,-32 -5,-48l-1 -7c-1,-15 -3,-31 -4,-46l0 -8c-2,-15 -3,-30 -3,-46l-1 -8c-1,-16 -1,-31 -2,-47l0 -6c-1,-17 -1,-34 -1,-51l0 -5c0,-17 0,-34 0,-50l0 -8c0,-15 0,-31 1,-47l0 -9c1,-15 1,-30 2,-46l0 -11c1,-14 2,-29 3,-44l1 -12c1,-15 2,-29 3,-44l1 -13c1,-15 3,-31 4,-46l2 -14c1,-15 3,-30 5,-44l1 -15c2,-14 4,-27 5,-41l3 -18c2,-13 3,-26 5,-39l3 -18c2,-12 4,-25 6,-38 1,-7 2,-14 4,-22 2,-12 4,-25 6,-37l4 -23c2,-11 4,-23 6,-34 2,-9 4,-18 6,-28 2,-10 4,-21 6,-32 2,-9 4,-18 6,-27 2,-11 4,-21 7,-32l6 -27c2,-11 4,-21 7,-31 3,-13 6,-25 9,-37l5 -21c3,-14 6,-27 9,-40l5 -18c4,-14 7,-28 11,-42l4 -15c4,-15 8,-30 12,-46l3 -8c4,-16 9,-33 14,-49l1 -7m15 -50l9 -28c5,-17 10,-34 15,-52l2 -5c6,-17 11,-34 17,-51l1 -6c6,-18 12,-36 18,-54l0 -1c-142,1971 409,3124 1703,3596" style="fill:#a3e32c"/>
  <path class="Body-Bear2fil14" d="M15892 22901c455,-288 786,-750 995,-1476 211,-735 -34,-1792 -436,-2779 592,2230 -69,3628 -559,4255z" style="fill:#358c5d"/>
  <path class="Body-Bear2fil32" d="M15892 22901c539,-241 960,-968 1067,-1455 107,-487 59,-1102 -132,-1659 72,577 87,1191 -12,1618 -104,444 -496,1184 -923,1496z" style="fill:#d44ba8"/>
 </g><g id="RightPaw-Bear0">
 <animateTransform additive="sum" attributeName="transform" dur="10" repeatCount="indefinite" type="translate" values="0;0 200;0;0 200;0;0 200;0;0 200;0"/>
  <metadata id="CorelCorpID_243Corel-Layer"/>
  <path class="RightPaw-Bear0fil457" d="M19212 20074c101,319 446,1074 -76,1413 -8,341 -321,891 -722,638 -151,80 -387,68 -509,-83 -446,-4 -409,-537 -607,-929 295,-982 1641,-506 1914,-1039z" style="fill:#f3cd15"/>
  <path class="RightPaw-Bear0fil32" d="M19190 20003c89,-30 112,105 135,170 130,372 354,1015 -116,1354 -11,143 -66,311 -153,448 -99,155 -252,294 -446,289 -65,-1 -132,-19 -200,-55 -176,73 -404,47 -540,-94 -338,-20 -419,-297 -509,-605 -35,-123 -73,-250 -129,-363 -19,-37 -94,-221 -57,-240 16,-8 67,4 101,36 47,44 78,115 89,136 63,125 102,260 140,389 60,206 115,395 261,468 -29,-101 -22,-219 84,-284 -76,237 182,489 434,440 -65,-93 -101,-219 -10,-319 -6,164 172,338 339,342 137,3 248,-112 316,-220 55,-87 95,-188 116,-282 -169,50 -397,13 -448,-183 104,74 378,78 488,1 414,-287 232,-827 98,-1209 -22,-63 -77,-193 7,-219z" style="fill:#f1c46a"/>
  <path class="RightPaw-Bear0fil458" d="M18721 21392c-70,15 -168,-109 -207,-290 -38,-180 -13,-339 57,-354 70,-15 188,120 226,300 39,181 -7,329 -76,344z" style="fill:#52bd59"/>
  <path class="RightPaw-Bear0fil458" d="M18493 21944c-70,15 -168,-109 -207,-289 -38,-181 -13,-340 57,-355 70,-14 188,120 226,301 39,180 -7,328 -76,343z" style="fill:#76ca06"/>
  <path class="RightPaw-Bear0fil458" d="M18061 21880c-58,7 -128,-100 -147,-248 -19,-148 13,-275 70,-282 57,-7 143,110 162,258 19,148 -28,265 -85,272z" style="fill:#b28ff8"/>
  <path class="RightPaw-Bear0fil458" d="M17668 21710c-41,0 -83,-82 -84,-190 -2,-107 31,-195 72,-195 42,-1 94,90 95,197 2,108 -41,187 -83,188z" style="fill:#570739"/>
  <path class="RightPaw-Bear0fil458" d="M18328 20905c28,402 -757,372 -764,113 -13,-411 729,-626 764,-113z" style="fill:#a36267"/>
 </g><g id="LeftPaw-Bear0">
 <animateTransform additive="sum" attributeName="transform" dur="10" repeatCount="indefinite" type="translate" values="0;0 200;0;0 200;0;0 200;0;0 200;0"/>
  <metadata id="CorelCorpID_252Corel-Layer"/>
  <path class="LeftPaw-Bear0fil457" d="M8095 20074c-101,319 -445,1074 76,1413 8,341 322,891 722,638 152,80 388,68 510,-83 446,-4 408,-537 606,-929 -294,-982 -1641,-506 -1914,-1039z" style="fill:#422d7b"/>
  <path class="LeftPaw-Bear0fil32" d="M8118 20003c-89,-30 -112,105 -135,170 -130,372 -355,1015 116,1354 11,143 66,311 153,448 98,155 252,294 446,289 65,-1 131,-19 199,-55 176,73 405,47 540,-94 339,-20 419,-297 509,-605 36,-123 73,-250 130,-363 19,-37 93,-221 56,-240 -15,-8 -66,4 -100,36 -47,44 -79,115 -89,136 -63,125 -103,260 -140,389 -60,206 -116,395 -261,468 29,-101 22,-219 -84,-284 76,237 -182,489 -434,440 64,-93 101,-219 9,-319 6,164 -171,338 -338,342 -138,3 -248,-112 -316,-220 -56,-87 -96,-188 -117,-282 170,50 397,13 449,-183 -104,74 -378,78 -489,1 -414,-287 -231,-827 -98,-1209 22,-63 78,-193 -6,-219z" style="fill:#7748f3"/>
  <path class="LeftPaw-Bear0fil458" d="M8587 21392c70,15 168,-109 206,-290 39,-180 14,-339 -56,-354 -70,-15 -188,120 -227,300 -38,181 7,329 77,344z" style="fill:#29a9d6"/>
  <path class="LeftPaw-Bear0fil458" d="M8815 21944c70,15 168,-109 206,-289 39,-181 14,-340 -56,-355 -70,-14 -188,120 -227,301 -38,180 7,328 77,343z" style="fill:#58013d"/>
  <path class="LeftPaw-Bear0fil458" d="M9247 21880c57,7 128,-100 147,-248 18,-148 -13,-275 -70,-282 -58,-7 -144,110 -163,258 -18,148 29,265 86,272z" style="fill:#e5b7c8"/>
  <path class="LeftPaw-Bear0fil458" d="M9640 21710c41,0 83,-82 84,-190 1,-107 -31,-195 -73,-195 -41,-1 -94,90 -95,197 -1,108 42,187 84,188z" style="fill:#9ea1d8"/>
  <path class="LeftPaw-Bear0fil458" d="M8979 20905c-27,402 757,372 765,113 12,-411 -729,-626 -765,-113z" style="fill:#40e0bb"/>
 </g><g id="NecklaceYinYang">
 <animateTransform additive="sum" attributeName="transform" dur="10" repeatCount="indefinite" type="translate" values="0;0 200;0;0 200;0;0 200;0;0 200;0"/>
  <metadata id="CorelCorpID_40Corel-Layer"/>
  <path class="NecklaceYinYangfil225new" d="M16543 17208c-73,675 -449,1409 -941,2000 -570,684 -1305,1183 -1920,1183 -615,0 -1350,-499 -1920,-1183 -492,-591 -868,-1325 -941,-2000l352 0c73,593 413,1245 856,1777 509,611 1145,1056 1653,1056 508,0 1144,-445 1653,-1056 442,-532 782,-1184 856,-1777l352 0z" style="fill:#8ec3d9"/>
  <path class="NecklaceYinYangfil46new" d="M11135 16868c-273,1109 1292,3303 2547,3303 1255,0 2820,-2194 2547,-3303l-25 4c1,34 2,68 2,103 0,650 -370,1407 -871,2010 -509,611 -1145,1056 -1653,1056 -508,0 -1144,-445 -1653,-1056 -501,-603 -871,-1360 -871,-2010 0,-35 1,-69 2,-103l-25 -4z" style="fill:#fc5b4f"/>
  <path class="NecklaceYinYangfil47new NecklaceYinYangstr4new" d="M16543 17208c-73,675 -449,1409 -941,2000 -570,684 -1305,1183 -1920,1183 -615,0 -1350,-499 -1920,-1183 -492,-591 -868,-1325 -941,-2000l352 0c73,593 413,1245 856,1777 509,611 1145,1056 1653,1056 508,0 1144,-445 1653,-1056 442,-532 782,-1184 856,-1777l352 0z" style="fill:#cc5142"/>
  <path class="NecklaceYinYangfil226new NecklaceYinYangstr3new" d="M11302 18631c-392,0 -362,-385 -163,-550 197,-163 493,-157 449,148 -114,-87 -503,248 -286,402z" style="fill:#f2b9fc"/>
  <path class="NecklaceYinYangfil227new NecklaceYinYangstr3new" d="M12385 19918c-393,11 -359,-370 -179,-545 182,-179 487,-172 453,134 -117,-83 -496,263 -274,411z" style="fill:#50073d"/>
  <path class="NecklaceYinYangfil228new NecklaceYinYangstr3new" d="M16062 18631c392,0 345,-403 163,-550 -200,-160 -493,-157 -449,148 114,-87 503,248 286,402z" style="fill:#cd9348"/>
  <path class="NecklaceYinYangfil229new NecklaceYinYangstr3new" d="M14979 19918c393,11 384,-357 179,-545 -202,-187 -487,-172 -453,134 117,-83 496,263 274,411z" style="fill:#4afea3"/>
  <g>
   <circle class="NecklaceYinYangfil84new" r="1577" transform="matrix(-0.552338 -0.290723 0.290723 -0.552338 13681.9 21396.4)"/>
   <g>
    <path class="NecklaceYinYangfil84new" d="M14075 20650c412,217 570,727 353,1139 -215,409 -719,568 -1129,359l0 0c-3,-2 -7,-4 -10,-5l0 0c-206,-109 -285,-364 -177,-570 109,-206 364,-285 570,-177l0 0c206,109 461,30 570,-176 108,-207 29,-462 -177,-570z" style="fill:#aa2aa3"/>
    <path class="NecklaceYinYangfil83new" d="M13289 22143c-412,-217 -570,-727 -353,-1139 215,-409 718,-568 1129,-359l0 0c3,2 7,3 10,5l0 0c206,108 285,363 177,570 -109,206 -364,285 -570,176l0 0c-206,-108 -461,-29 -570,177 -108,206 -29,461 177,570z" style="fill:#09a7b7"/>
    <path class="NecklaceYinYangfil84new" d="M13943 20901c67,35 93,119 58,187 -36,67 -119,93 -187,58 -68,-36 -94,-120 -58,-187 36,-68 119,-94 187,-58z" style="fill:#235253"/>
    <path class="NecklaceYinYangfil83new" d="M13421 21892c-68,-36 -94,-119 -58,-187 36,-67 119,-93 187,-58 68,36 93,119 58,187 -36,68 -119,94 -187,58z" style="fill:#6e1398"/>
   </g>
  </g>
  <path class="NecklaceYinYangfil230new NecklaceYinYangstr4new" d="M13599 19944l166 0c25,0 47,21 46,46l-24 447c-1,26 -20,46 -46,46l-119 0c-25,0 -44,-20 -46,-46l-23 -447c-1,-26 21,-46 46,-46z" style="fill:#7290ce"/>
 </g><g id="Ears-Bear6">
 <animateTransform additive="sum" attributeName="transform" dur="10" repeatCount="indefinite" type="translate" values="0;0 200;0;0 200;0;0 200;0;0 200;0"/>
  <metadata id="CorelCorpID_266Corel-Layer"/>
  <g>
        <animateTransform additive="sum" attributeName="transform" dur="10" repeatCount="indefinite" type="rotate" values="0;0;0;0;0;0;10;0;0;0;0;0;0;0;0;0;0;0;0;0;0;0;0;0;0;0;0;0;0;0;0;0;0;0;0;0;0;0;0;0;0;0;0;0;0;0;0;0;0;0;0;0;0;0;0;0;0;0;0;0;0;0;0;0;0;0;0;0;0;0;0;0;0;0;0;0;0;0;0;0;0;0"/>
        <g>
          <animateTransform additive="sum" attributeName="transform" dur="10" repeatCount="indefinite" type="translate" values="0;0;0;0;0;0;2000 -2000;0;0;0;0;0;0;0;0;0;0;0;0;0;0;0;0;0;0;0;0;0;0;0;0;0;0;0;0;0;0;0;0;0;0;0;0;0;0;0;0;0;0;0;0;0;0;0;0;0;0;0;0;0;0;0;0;0;0;0;0;0;0;0;0;0;0;0;0;0;0;0;0;0;0;0"/>
          <path class="Ears-Bear6fil503 Ears-Bear6str4" d="M7795 12467c24,-1800 -2089,-3188 -1737,-4018 569,-1344 3635,-988 4419,487 -1272,1036 -2374,2288 -2682,3531z" style="fill:#3b8948"/>
          <path class="Ears-Bear6fil504" d="M8217 11684c36,-1247 -989,-2051 -1259,-2693 -127,-304 -107,-527 225,-637 873,-289 1969,109 2808,825 -1107,434 -1202,1577 -1774,2505z" style="fill:#6c1f5d"/>
          <path class="Ears-Bear6fil14" d="M6891 8767c-27,-190 48,-332 292,-413 873,-289 1969,109 2808,825 -173,68 -322,153 -451,252 -654,-730 -2436,-1326 -2649,-664z" style="fill:#76562a"/>
        </g>
    </g>
    <g>
        <animateTransform additive="sum" attributeName="transform" dur="10" repeatCount="indefinite" type="rotate" values="0;0;0;0;0;0;-10;0;0;0;0;0;0;0;0;0;0;0;0;0;0;0;0;0;0;0;0;0;0;0;0;0;0;0;0;0;0;0;0;0;0;0;0;0;0;0;0;0;0;0;0;0;0;0;0;0;0;0;0;0;0;0;0;0;0;0;0;0;0;0;0;0;0;0;0;0;0;0;0;0;0;0"/>
        <g>
            <animateTransform additive="sum" attributeName="transform" dur="10" repeatCount="indefinite" type="translate" values="0;0;0;0;0;0;-2500 2500;0;0;0;0;0;0;0;0;0;0;0;0;0;0;0;0;0;0;0;0;0;0;0;0;0;0;0;0;0;0;0;0;0;0;0;0;0;0;0;0;0;0;0;0;0;0;0;0;0;0;0;0;0;0;0;0;0;0;0;0;0;0;0;0;0;0;0;0;0;0;0;0;0;0;0"/>
            <path class="Ears-Bear6fil505 Ears-Bear6str4" d="M19513 12467c-24,-1800 2088,-3188 1737,-4018 -569,-1344 -3636,-988 -4419,487 1271,1036 2374,2288 2682,3531z" style="fill:#8d848a"/>
            <path class="Ears-Bear6fil506" d="M19091 11684c-36,-1247 988,-2051 1258,-2693 128,-304 107,-527 -224,-637 -874,-289 -1969,109 -2809,825 1108,434 1203,1577 1775,2505z" style="fill:#45b9c9"/>
            <path class="Ears-Bear6fil14" d="M20416 8767c28,-190 -48,-332 -291,-413 -874,-289 -1969,109 -2809,825 174,68 322,153 452,252 654,-730 2435,-1326 2648,-664z" style="fill:#937b99"/>
        </g>
    </g>
 </g><g id="BraceletSteel-Big">
 <animateTransform additive="sum" attributeName="transform" dur="10" repeatCount="indefinite" type="translate" values="0;0 200;0;0 200;0;0 200;0;0 200;0"/>
  <metadata id="CorelCorpID_20Corel-Layer"/>
  <path class="BraceletSteel-Bigfil59new BraceletSteel-Bigstr4new" d="M8206 20072c-208,-50 -348,-214 -293,-420 55,-207 240,-250 450,-210 534,103 1643,659 2009,1047 146,156 197,333 56,493 -142,160 -375,128 -529,-20 -385,-368 -1146,-756 -1693,-890z" style="fill:#a65b35"/>
  <path class="BraceletSteel-Bigfil60new BraceletSteel-Bigstr4new" d="M19101 20072c208,-50 348,-214 294,-420 -55,-207 -240,-250 -450,-210 -535,103 -1644,659 -2009,1047 -147,156 -198,333 -56,493 142,160 374,128 529,-20 385,-368 1146,-756 1692,-890z" style="fill:#f70679"/>
 </g><g id="Head-Bear6">
 <animateTransform additive="sum" attributeName="transform" dur="10" repeatCount="indefinite" type="translate" values="0;0 200;0;0 200;0;0 200;0;0 200;0"/>
  <metadata id="CorelCorpID_273Corel-Layer"/>
  <path class="Head-Bear6fil522" d="M13654 7273c-2754,0 -5109,1855 -6284,4367 -716,1530 -311,3996 1490,5129 1372,864 3321,875 4794,875 1472,0 3421,-11 4794,-875 1801,-1133 2206,-3599 1490,-5129 -1175,-2512 -3530,-4367 -6284,-4367z" style="fill:#ae30af"/>
  <path class="Head-Bear6fil32" d="M7915 10650c-334,518 -658,1401 -765,2018 -105,753 -5,1590 322,2344 291,671 762,1275 1427,1694 471,296 1012,491 1579,619 204,46 1085,209 1813,296 -741,29 -1654,-107 -1846,-150 -582,-132 -1139,-332 -1625,-638 -693,-436 -1183,-1065 -1485,-1762 -338,-779 -442,-1645 -333,-2423 110,-713 534,-1597 913,-1998z" style="fill:#fe6f7f"/>
  <path class="Head-Bear6fil14" d="M7587 11195c-326,495 -495,1551 -516,1727 -157,1332 499,3030 1805,3868 674,432 2229,772 3200,833 -2983,-342 -5480,-2661 -4489,-6428z" style="fill:#e5acfd"/>
  <path class="Head-Bear6fil32" d="M12848 7326c-615,115 -1491,466 -1775,598 -285,132 -1125,569 -1666,994 495,-570 1417,-1044 1603,-1130 181,-84 992,-436 1838,-462z" style="fill:#beb293"/>
  <path class="Head-Bear6fil32" d="M19392 10650c335,518 658,1401 765,2018 106,753 5,1590 -321,2344 -291,671 -762,1275 -1428,1694 -471,296 -1012,491 -1578,619 -204,46 -1085,209 -1813,296 740,29 1653,-107 1846,-150 581,-132 1138,-332 1625,-638 692,-436 1182,-1065 1485,-1762 338,-779 442,-1645 333,-2423 -111,-713 -535,-1597 -914,-1998z" style="fill:#fb7f1f"/>
  <path class="Head-Bear6fil32" d="M14460 7326c615,115 1491,466 1774,598 286,132 1126,569 1667,994 -495,-570 -1417,-1044 -1604,-1130 -181,-84 -992,-436 -1837,-462z" style="fill:#32df13"/>
  <path class="Head-Bear6fil523" d="M13654 9453c-197,-935 -2169,-2487 -5116,1536 -1208,1650 -882,4378 967,5450 1270,737 2666,937 4149,937 1482,0 2879,-200 4149,-937 1848,-1072 2175,-3800 966,-5450 -2946,-4023 -4918,-2471 -5115,-1536z" style="fill:#d72777"/>
  <path class="Head-Bear6fil524" d="M13654 11471c-615,0 -1139,344 -1672,2097 -618,2035 -708,3363 1672,3363 2379,0 2290,-1328 1671,-3363 -533,-1753 -1056,-2097 -1671,-2097z" style="fill:#3bc385"/>
 </g><g id="Mouth-Bear4">
 <animateTransform additive="sum" attributeName="transform" dur="10" repeatCount="indefinite" type="translate" values="0;0 200;0;0 200;0;0 200;0;0 200;0"/>
  <metadata id="CorelCorpID_279Corel-Layer"/>
  <path class="Mouth-Bear4fil22 Mouth-Bear4str0" d="M12420 15298c354,380 1208,220 1234,-572" style="fill:#87cd4b"/>
  <path class="Mouth-Bear4fil22 Mouth-Bear4str0" d="M14887 15298c-353,380 -1208,220 -1233,-572" style="fill:#abc4ce"/>
  <path class="Mouth-Bear4fil100" d="M13666 14859c37,245 252,535 399,641 -123,-61 -307,-119 -411,-119 -104,0 -289,58 -411,119 146,-106 362,-396 399,-641l12 0 12 0z" style="fill:#063284"/>
  <path class="Mouth-Bear4fil100" d="M13654 15320c-325,157 -777,194 -947,204 65,421 518,698 947,698 429,0 882,-277 946,-698 -169,-10 -621,-47 -946,-204z" style="fill:#0f31ee"/>
  <path class="Mouth-Bear4fil152" d="M12922 15550c37,107 134,186 233,222 66,-57 111,-161 122,-293 -101,53 -232,88 -355,71z" style="fill:#1d52cc"/>
  <path class="Mouth-Bear4fil152" d="M13227 15974c25,-56 66,-110 135,-139 67,33 115,157 112,225 -84,-5 -172,-36 -247,-86z" style="fill:#3f0481"/>
  <path class="Mouth-Bear4fil152" d="M14386 15550c-37,107 -135,186 -233,222 -67,-57 -111,-161 -122,-293 101,53 232,88 355,71z" style="fill:#872803"/>
  <path class="Mouth-Bear4fil152" d="M14081 15974c-26,-56 -66,-110 -136,-139 -67,33 -114,157 -112,225 85,-5 173,-36 248,-86z" style="fill:#7ae372"/>
 </g><g id="Eyes-Bear8">
 <animateTransform additive="sum" attributeName="transform" dur="10" repeatCount="indefinite" type="translate" values="0;0 200;0;0 200;0;0 200;0;0 200;0"/>
  <metadata id="CorelCorpID_293Corel-Layer"/>
  <path class="Eyes-Bear8fil570" d="M8890 14662c539,286 1787,71 2287,-312 872,-668 586,-2584 -477,-2893 -652,-190 -1376,96 -1806,590 -907,1044 -592,2303 -4,2615z"/>
  <g>
        <animateTransform additive="sum" attributeName="transform" dur="3" repeatCount="indefinite" type="translate" values="0;-2150 1925;0"/>
        <g>
            <animateTransform additive="sum" attributeName="transform" dur="3" repeatCount="indefinite" type="rotate" values="0;-10;0"/>
            <path class="Eyes-Bear8fil387" d="M8890 14662c113,60 256,98 418,117l957 -2028 -1440 1872c21,14 43,27 65,39zm881 125c146,-10 294,-30 440,-58l74 -1988 -514 2046zm802 -149c138,-43 267,-94 380,-151l-654 -1754 274 1905zm675 -348c89,-82 164,-177 226,-283l-1168 -1295 942 1578zm378 -655c33,-121 53,-248 61,-377l-1383 -566 1322 943zm53 -752c-33,-310 -131,-615 -287,-866l-1110 638c-18,2 -23,66 -34,56l-1069 -929c-78,59 -152,124 -219,193l1290 754c43,5 42,-29 39,-56l1390 210zm-2944 -634c-80,114 -148,230 -203,346l1688 130 -1485 -476zm-328 670c-40,138 -65,274 -75,406l1896 -585 -1821 179zm-54 877c28,160 77,308 142,435l1755 -1485 -1897 1050z"/>
        </g>
    </g>
  <path class="Eyes-Bear8fil571" d="M9951 11457c683,-158 1342,301 1472,1025 130,724 -318,1438 -1001,1596 -683,158 -1343,-301 -1473,-1025 -130,-724 319,-1439 1002,-1596z"/>
  <circle class="Eyes-Bear8fil152" r="235" transform="matrix(0.50221 0.111622 -0.139337 0.596091 11272.1 13494.8)"/>
  <circle class="Eyes-Bear8fil152" r="235" transform="matrix(0.554042 -1.05186 0.853042 0.366906 10973.8 13986.5)"/>
  <path class="Eyes-Bear8fil152" d="M8600 13318c-120,881 473,1392 1181,1246 -444,-60 -1082,-539 -1181,-1246z"/>
  <path class="Eyes-Bear8fil157" d="M10248 12036c1015,126 1355,654 1381,1668 214,-863 -179,-2018 -994,-2255 -652,-190 -1301,59 -1730,553 -408,469 -593,902 -581,1344 184,-722 1084,-1414 1924,-1310z"/>
  <circle class="Eyes-Bear8fil152" r="235" transform="matrix(1.22514 -2.21383 1.7662 0.793529 9424.7 12400.7)"/>
  <path class="Eyes-Bear8fil155" d="M10116 10061c121,40 186,-151 643,-236 419,-78 679,53 767,-102 98,-172 -155,-835 -390,-922 -717,-265 -1382,1142 -1020,1260z"/>
  <path class="Eyes-Bear8fil14" d="M10116 10061c121,40 186,-151 643,-236 419,-78 679,53 767,-102 98,-172 -155,-835 -390,-922 -717,-265 -1382,1142 -1020,1260z"/>
  <path class="Eyes-Bear8fil22 Eyes-Bear8str4" d="M8890 14662c539,286 1787,71 2287,-312 872,-668 586,-2584 -477,-2893 -652,-190 -1376,96 -1806,590 -907,1044 -592,2303 -4,2615z"/>
  <path class="Eyes-Bear8fil572" d="M18418 14662c-539,286 -1787,71 -2287,-312 -872,-668 -587,-2584 477,-2893 652,-190 1376,96 1805,590 908,1044 593,2303 5,2615z"/>
  <g>
        <animateTransform additive="sum" attributeName="transform" dur="3" repeatCount="indefinite" type="translate" values="0;2550 -2800;0"/>
        <g>
            <animateTransform additive="sum" attributeName="transform" dur="3" repeatCount="indefinite" type="rotate" values="0;10;0"/>
            <path class="Eyes-Bear8fil573" d="M18418 14662c-113,60 -257,98 -418,117l-958 -2028 1441 1872c-21,14 -43,27 -65,39zm-882 125c-145,-10 -294,-30 -440,-58l-73 -1988 513 2046zm-801 -149c-138,-43 -267,-94 -380,-151l653 -1754 -273 1905zm-676 -348c-89,-82 -164,-177 -225,-283l1168 -1295 -943 1578zm-377 -655c-33,-121 -53,-248 -61,-377l1383 -566 -1322 943zm-53 -752c33,-310 131,-615 286,-866l1110 638c19,2 23,66 34,56l1070 -929c78,59 151,124 218,193l-1289 754c-43,5 -42,-29 -39,-56l-1390 210zm2943 -634c81,114 149,230 204,346l-1688 130 1484 -476zm328 670c41,138 65,274 76,406l-1896 -585 1820 179zm55 877c-28,160 -77,308 -143,435l-1755 -1485 1898 1050z"/>
        </g>
    </g>
  <path class="Eyes-Bear8fil574" d="M17357 11457c-684,-158 -1343,301 -1473,1025 -130,724 319,1438 1002,1596 683,158 1342,-301 1472,-1025 130,-724 -318,-1439 -1001,-1596z"/>
  <circle class="Eyes-Bear8fil152" r="235" transform="matrix(0.50221 0.111622 -0.139337 0.596091 18674.4 13562.1)"/>
  <circle class="Eyes-Bear8fil152" r="235" transform="matrix(0.554042 -1.05186 0.853042 0.366906 18465.4 14093.8)"/>
  <path class="Eyes-Bear8fil152" d="M15892 13222c-120,881 682,1404 1390,1258 -444,-60 -1291,-551 -1390,-1258z"/>
  <path class="Eyes-Bear8fil157" d="M17060 12036c-1015,126 -1355,654 -1381,1668 -214,-863 179,-2018 994,-2255 652,-190 1301,59 1730,553 408,469 593,902 580,1344 -183,-722 -1083,-1414 -1923,-1310z"/>
  <circle class="Eyes-Bear8fil152" r="235" transform="matrix(0.911758 -2.36023 1.85793 0.545226 16456.1 12417.3)"/>
  <path class="Eyes-Bear8fil155" d="M17192 10061c-121,40 -186,-151 -643,-236 -420,-78 -679,53 -767,-102 -98,-172 154,-835 390,-922 717,-265 1381,1142 1020,1260z"/>
  <path class="Eyes-Bear8fil14" d="M17192 10061c-121,40 -186,-151 -643,-236 -420,-78 -679,53 -767,-102 -98,-172 154,-835 390,-922 717,-265 1381,1142 1020,1260z"/>
  <path class="Eyes-Bear8fil22 Eyes-Bear8str4" d="M18418 14662c-539,286 -1787,71 -2287,-312 -872,-668 -587,-2584 477,-2893 652,-190 1376,96 1805,590 908,1044 593,2303 5,2615z"/>
 </g><g id="Moustache-Bear0">
 <animateTransform additive="sum" attributeName="transform" dur="10" repeatCount="indefinite" type="translate" values="0;0 200;0;0 200;0;0 200;0;0 200;0"/>
  <metadata id="CorelCorpID_296Corel-Layer"/>
  <rect class="Moustache-Bear0fil22" height="832" width="832" x="13238" y="12735"/>
 </g><g id="Nose-Bear0">
 <animateTransform additive="sum" attributeName="transform" dur="10" repeatCount="indefinite" type="translate" values="0;0 200;0;0 200;0;0 200;0;0 200;0"/>
  <metadata id="CorelCorpID_304Corel-Layer"/>
  <path class="Nose-Bear0fil598 Nose-Bear0str0" d="M13654 14109c-356,0 -852,135 -813,337 34,185 361,481 813,481 452,0 778,-296 813,-481 38,-202 -457,-337 -813,-337z" style="fill:#c4a80d"/>
 </g><g id="HatGlasses-Big">
 <animateTransform additive="sum" attributeName="transform" dur="10" repeatCount="indefinite" type="translate" values="0;0 200;0;0 200;0;0 200;0;0 200;0"/>
  <metadata id="CorelCorpID_77Corel-Layer"/>
  <path class="HatGlasses-Bigfil571new" d="M8526 12672c1186,-170 2359,-126 3470,174 316,85 403,326 429,523 49,369 12,738 -141,1108 -76,183 -218,292 -415,317 -988,127 -1943,119 -2963,-54 -231,-39 -359,-150 -480,-361 -238,-413 -340,-803 -347,-1205 -5,-292 179,-463 447,-502z" style="fill:#61f474"/>
  <path class="HatGlasses-Bigfil572new" d="M8526 12672c1186,-170 2359,-126 3470,174 316,85 403,326 429,523 49,369 12,738 -141,1108 -36,86 -86,156 -150,208 99,-556 56,-1023 -447,-1453 -549,-469 -2698,-720 -3551,-315 74,-137 214,-219 390,-245z" style="fill:#72d1f0"/>
  <path class="HatGlasses-Bigfil571new" d="M18838 12672c-1186,-170 -2359,-126 -3470,174 -316,85 -403,326 -429,523 -50,369 -12,738 141,1108 76,183 218,292 415,317 988,127 1943,119 2963,-54 231,-39 359,-150 480,-361 238,-413 340,-803 347,-1205 5,-292 -180,-463 -447,-502z" style="fill:#ffc0f0"/>
  <path class="HatGlasses-Bigfil572new" d="M18838 12672c-1186,-170 -2359,-126 -3470,174 -202,54 -310,172 -369,302 732,-530 3052,-443 3568,-53 462,349 342,971 104,1574 109,-61 189,-155 267,-290 238,-413 340,-803 347,-1205 5,-292 -180,-463 -447,-502z" style="fill:#ae0eb9"/>
  <path class="HatGlasses-Bigfil708new" d="M18819 12800c-593,-86 -1184,-117 -1764,-88 -561,28 -1115,113 -1654,258 -123,33 -201,95 -250,168 -51,76 -74,166 -85,248 -23,173 -26,347 -5,522 21,173 66,347 138,520 28,70 69,125 121,164 52,40 116,65 191,75 488,62 968,92 1451,84 483,-7 970,-52 1475,-138 94,-16 165,-45 224,-91 61,-48 114,-116 166,-207 113,-196 194,-387 247,-577 54,-189 79,-376 83,-566 2,-107 -29,-190 -82,-250 -58,-66 -147,-107 -256,-122zm-10311 -255c609,-88 1215,-119 1813,-89 579,28 1149,115 1703,264 484,109 1212,273 1658,273 446,0 1174,-164 1658,-273 554,-149 1124,-236 1703,-264 597,-30 1204,1 1813,89 168,24 311,93 411,206 96,107 149,249 146,425 -3,213 -32,422 -91,631 -59,209 -148,419 -273,636 -68,120 -141,212 -231,282 -93,73 -201,118 -339,142 -515,87 -1015,133 -1513,141 -496,8 -988,-22 -1487,-87 -122,-15 -228,-57 -315,-124 -88,-67 -156,-158 -203,-271 -81,-195 -131,-390 -155,-584 -98,-446 -620,-660 -1124,-660 -504,0 -1026,214 -1124,660 -24,194 -74,389 -155,584 -47,113 -115,204 -203,271 -88,67 -193,109 -315,124 -499,65 -991,95 -1487,87 -498,-8 -998,-54 -1514,-141 -137,-24 -245,-69 -338,-142 -90,-70 -163,-162 -232,-282 -124,-217 -213,-427 -272,-636 -59,-209 -88,-418 -91,-631 -4,-176 50,-318 146,-425 100,-113 243,-182 411,-206zm1801 167c-580,-29 -1171,2 -1765,88 -108,15 -197,56 -255,122 -54,60 -84,143 -82,250 4,190 29,377 82,566 54,190 135,381 248,577 52,91 104,159 166,207 59,46 130,75 224,91 505,86 992,131 1475,138 483,8 963,-22 1451,-84 75,-10 139,-35 191,-75 52,-39 92,-94 121,-164 72,-173 117,-347 138,-520 21,-175 18,-349 -5,-522 -11,-82 -34,-172 -86,-248 -48,-73 -126,-135 -249,-168 -540,-145 -1093,-230 -1654,-258z" style="fill:#e6b822"/>
 </g><g id="AccessoryTeddy">
  <metadata id="CorelCorpID_6Corel-Layer"/>
  <g>
   <path class="AccessoryTeddyfil109 AccessoryTeddystr1" d="M7342 24083c-376,367 -734,92 -1120,-302 -385,-395 -508,-899 -275,-1126 233,-228 734,-93 1119,302 385,394 651,759 276,1126z" style="fill:#4cbb97"/>
   <path class="AccessoryTeddyfil110 AccessoryTeddystr1" d="M3383 24083c376,367 734,92 1119,-302 386,-395 636,-998 402,-1225 -233,-228 -860,6 -1245,401 -386,394 -652,759 -276,1126z" style="fill:#be0fc6"/>
   <path class="AccessoryTeddyfil111" d="M5474 22410c640,0 1105,587 1322,1161 112,294 175,1129 -17,1563 -161,363 -464,317 -1305,317 -880,0 -1336,51 -1486,-333 -165,-422 -4,-1305 110,-1600 225,-583 735,-1108 1376,-1108z" style="fill:#c07118"/>
   <path class="AccessoryTeddyfil3" d="M6432 22924c9,-17 270,267 434,621 76,162 114,514 110,860 -3,276 -40,557 -129,759 -163,369 -434,367 -1121,363 -56,0 -117,-1 -252,-1 -140,0 -209,1 -275,1 -735,5 -1129,8 -1281,-382 -73,-189 -86,-458 -68,-730 26,-369 103,-750 178,-924 183,-426 425,-605 441,-589 17,17 -179,238 -301,643 -52,170 -144,525 -168,880 -18,253 -7,500 58,666 115,294 473,291 1141,287 107,-1 221,-2 275,-2 44,0 152,1 252,2 617,3 860,5 984,-275 81,-182 114,-441 117,-699 4,-328 -39,-648 -101,-807 -118,-305 -304,-656 -294,-673z" style="fill:#a40ab5"/>
   <path class="AccessoryTeddyfil112" d="M5441 22923c422,0 729,302 872,681 358,949 -178,1322 -872,1322 -694,0 -1329,-264 -906,-1357 149,-384 484,-646 906,-646z" style="fill:#273025"/>
   <path class="AccessoryTeddyfil113 AccessoryTeddystr1" d="M4534 21091c-308,0 -557,-222 -557,-496 0,-274 272,-592 580,-592 308,0 535,318 535,592 0,274 -250,496 -558,496z" style="fill:#bdcfc7"/>
   <path class="AccessoryTeddyfil19" d="M4573 20888c-153,0 -277,-111 -277,-247 0,-136 124,-246 277,-246 153,0 277,110 277,246 0,136 -124,247 -277,247z" style="fill:#5d64dd"/>
   <path class="AccessoryTeddyfil113 AccessoryTeddystr1" d="M6909 21352c-308,0 -557,-222 -557,-496 0,-274 269,-582 577,-582 308,0 538,308 538,582 0,274 -250,496 -558,496z" style="fill:#2a35ce"/>
   <path class="AccessoryTeddyfil19" d="M6845 21167c-158,0 -286,-114 -286,-254 0,-140 128,-253 286,-253 157,0 285,113 285,253 0,140 -128,254 -285,254z" style="fill:#74ea35"/>
   <path class="AccessoryTeddyfil114 AccessoryTeddystr1" d="M5493 20331c787,13 1234,692 1367,1304 132,611 -412,1168 -1605,1043 -1192,-126 -1303,-654 -1157,-1101 145,-446 609,-1260 1395,-1246z" style="fill:#cfe881"/>
   <path class="AccessoryTeddyfil115" d="M5439 21393c431,45 822,371 786,717 -36,347 -738,429 -971,403 -234,-26 -812,-239 -776,-586 37,-347 530,-579 961,-534z" style="fill:#0f269a"/>
   <path class="AccessoryTeddyfil116 AccessoryTeddystr1" d="M3763 24181c419,-194 673,49 808,408 135,359 70,749 -211,880 -281,130 -610,-82 -808,-408 -197,-326 -207,-686 211,-880z" style="fill:#d85451"/>
   <path class="AccessoryTeddyfil117" d="M3693 24534c42,-20 64,21 89,74 24,53 42,98 0,118 -42,19 -96,-8 -120,-61 -25,-53 -11,-112 31,-131zm316 152c119,-55 176,-94 246,56 69,151 53,307 -66,362 -119,55 -272,-22 -342,-172 -69,-151 43,-191 162,-246zm68 -337c42,-20 77,19 102,72 24,53 28,100 -13,119 -42,20 -96,-7 -121,-60 -24,-53 -10,-112 32,-131zm-236 27c46,-21 84,16 112,74 27,59 33,118 -14,139 -46,22 -106,-8 -133,-67 -28,-59 -12,-124 35,-146z" style="fill:#ee7ed1"/>
   <path class="AccessoryTeddyfil118 AccessoryTeddystr1" d="M6934 24204c363,182 359,535 184,885 -176,351 -543,522 -820,383 -277,-138 -313,-489 -184,-885 130,-397 457,-565 820,-383z" style="fill:#4ad9ba"/>
   <path class="AccessoryTeddyfil119" d="M7009 24559c-41,-22 -66,16 -95,67 -28,51 -49,95 -9,118 40,22 96,-1 125,-52 28,-50 19,-110 -21,-133zm-328 127c-114,-64 -167,-107 -249,38 -81,144 -76,301 38,366 114,64 273,-1 354,-146 81,-144 -28,-193 -143,-258zm-40 -341c-41,-23 -79,13 -108,64 -28,51 -36,98 4,120 40,23 96,0 125,-51 28,-51 19,-111 -21,-133zm233 46c-45,-25 -86,9 -118,65 -31,57 -42,114 3,140 45,25 106,-1 138,-57 32,-57 21,-123 -23,-148z" style="fill:#3e9774"/>
   <path class="AccessoryTeddyfil120" d="M5033 20819c97,34 143,162 102,285 -40,124 -151,196 -248,162 -97,-34 -143,-162 -103,-286 40,-123 152,-196 249,-161z" style="fill:#e71a9e"/>
   <path class="AccessoryTeddyfil121" d="M5895 20863c103,-9 195,89 205,218 9,128 -67,240 -170,248 -104,9 -195,-88 -205,-217 -10,-129 66,-240 170,-249z" style="fill:#018d82"/>
   <ellipse class="AccessoryTeddyfil15" rx="135" ry="181" transform="matrix(0.829594 -0.069368 0.0580151 0.767535 5912.39 21095.8)"/>
   <ellipse class="AccessoryTeddyfil15" rx="135" ry="181" transform="matrix(0.786889 0.277973 -0.240129 0.736754 4959.74 21042.4)"/>
   <path class="AccessoryTeddyfil14" d="M5960 20949c18,-10 42,-1 53,20 11,22 6,48 -12,58 -18,11 -34,-2 -45,-24 -12,-21 -14,-43 4,-54z" style="fill:#a59c17"/>
   <path class="AccessoryTeddyfil14" d="M5059 20926c21,-2 39,16 41,41 3,24 -12,46 -33,48 -21,3 -27,-16 -29,-41 -2,-25 1,-46 21,-48z" style="fill:#544fba"/>
   <path class="AccessoryTeddyfil15" d="M5329 21486c408,22 178,349 -19,330 -197,-19 -388,-353 19,-330z" style="fill:#e8f9da"/>
   <path class="AccessoryTeddyfil2 AccessoryTeddystr8" d="M4818 21716c-84,107 -82,346 90,433 173,88 282,-23 385,-209 84,253 255,330 428,286 173,-44 301,-229 176,-443" style="fill:#3991ed"/>
   <line class="AccessoryTeddyfil2 AccessoryTeddystr8" x1="5333" x2="5293" y1="21651" y2="21940"/>
  </g>
 </g><g id="Hair-Bear0">
 <animateTransform additive="sum" attributeName="transform" dur="10" repeatCount="indefinite" type="translate" values="0;0 200;0;0 200;0;0 200;0;0 200;0"/>
  <metadata id="CorelCorpID_305Corel-Layer"/>
  <path class="Hair-Bear0fil32" d="M11456 7761c-39,14 -75,-6 -89,-45 -14,-39 4,-74 42,-88 728,-266 1468,-408 2214,-409 747,-1 1501,134 2265,403 39,14 61,54 47,93 -13,39 -54,59 -93,45 -748,-263 -1489,-392 -2219,-392 -728,1 -1455,132 -2167,393z" style="fill:#76df18"/>
 </g></svg>