<svg xmlns="http://www.w3.org/2000/svg" xmlns:xlink="http://www.w3.org/1999/xlink" style="shape-rendering:geometricPrecision; text-rendering:geometricPrecision; image-rendering:optimizeQuality; fill-rule:evenodd; clip-rule:evenodd" version="1.1" viewBox="0 0 29000 29000" xml:space="preserve"><defs><style type="text/css">.HairBack-Bear0fil22 {fill:none}
.Tail-Bear0fil22 {fill:none}
.RightFoot-Bear3fil432 {fill:url(#RightFoot-Bear3id650)}
.RightFoot-Bear3fil14 {fill:black;fill-opacity:0.200000}
.RightFoot-Bear3fil32 {fill:black;fill-rule:nonzero}
.RightLeg-Bear4fil439 {fill:url(#RightLeg-Bear4id995)}
.RightLeg-Bear4fil440 {fill:url(#RightLeg-Bear4id40)}
.RightLeg-Bear4fil14 {fill:black;fill-opacity:0.200000}
.RightLeg-Bear4fil32 {fill:black;fill-rule:nonzero}
.LeftFoot-Bear3fil442 {fill:url(#LeftFoot-Bear3id651)}
.LeftFoot-Bear3fil14 {fill:black;fill-opacity:0.200000}
.LeftFoot-Bear3fil32 {fill:black;fill-rule:nonzero}
.LeftLeg-Bear4fil449 {fill:url(#LeftLeg-Bear4id996)}
.LeftLeg-Bear4fil450 {fill:url(#LeftLeg-Bear4id8)}
.LeftLeg-Bear4fil14 {fill:black;fill-opacity:0.200000}
.LeftLeg-Bear4fil32 {fill:black;fill-rule:nonzero}
.RightHand-Bear0fil452 {fill:url(#RightHand-Bear0id388)}
.RightHand-Bear0fil14 {fill:black;fill-opacity:0.200000}
.RightHand-Bear0fil22 {fill:none}
.RightHand-Bear0str0 {stroke:black;stroke-width:150;stroke-linecap:round;stroke-linejoin:round}
.RightPaw-Bear3fil460 {fill:url(#RightPaw-Bear3id436)}
.RightPaw-Bear3fil32 {fill:black;fill-rule:nonzero}
.RightPaw-Bear3fil458 {fill:#A16A6A}
.LeftHand-Bear0fil465 {fill:url(#LeftHand-Bear0id386)}
.LeftHand-Bear0fil14 {fill:black;fill-opacity:0.200000}
.LeftHand-Bear0fil22 {fill:none}
.LeftHand-Bear0str0 {stroke:black;stroke-width:150;stroke-linecap:round;stroke-linejoin:round}
.LeftPaw-Bear3fil471 {fill:url(#LeftPaw-Bear3id497)}
.LeftPaw-Bear3fil32 {fill:black;fill-rule:nonzero}
.LeftPaw-Bear3fil458 {fill:#A16A6A}
.Body-Bear4fil481 {fill:url(#Body-Bear4id268)}
.Body-Bear4fil14 {fill:black;fill-opacity:0.200000}
.Body-Bear4fil32 {fill:black;fill-rule:nonzero}
.Body-Bear4fil22 {fill:none}
.Ears-Bear7fil507 {fill:url(#Ears-Bear7id967)}
.Ears-Bear7fil32 {fill:black;fill-rule:nonzero}
.Ears-Bear7fil508 {fill:url(#Ears-Bear7id1015)}
.Ears-Bear7fil14 {fill:black;fill-opacity:0.200000}
.Ears-Bear7fil509 {fill:url(#Ears-Bear7id125)}
.Ears-Bear7fil510 {fill:url(#Ears-Bear7id176)}
.Head-Bear1fil513 {fill:url(#Head-Bear1id272)}
.Head-Bear1fil14 {fill:black;fill-opacity:0.200000}
.Head-Bear1fil32 {fill:black;fill-rule:nonzero}
.Head-Bear1fil514 {fill:url(#Head-Bear1id269)}
.Mouth-Bear4fil100 {fill:black}
.Mouth-Bear4fil152 {fill:white}
.Mouth-Bear4fil22 {fill:none}
.Mouth-Bear4str0 {stroke:black;stroke-width:150;stroke-linecap:round;stroke-linejoin:round}
.Eyes-Bear10fil581 {fill:url(#Eyes-Bear10id835)}
.Eyes-Bear10fil582 {fill:url(#Eyes-Bear10id839)}
.Eyes-Bear10fil583 {fill:url(#Eyes-Bear10id864)}
.Eyes-Bear10fil152 {fill:white}
.Eyes-Bear10fil155 {fill:#624d4d}
.Eyes-Bear10fil14 {fill:black;fill-opacity:0.200000}
.Eyes-Bear10fil157 {fill:black;fill-opacity:0.501961}
.Eyes-Bear10fil584 {fill:url(#Eyes-Bear10id832)}
.Eyes-Bear10fil585 {fill:url(#Eyes-Bear10id841)}
.Eyes-Bear10fil586 {fill:url(#Eyes-Bear10id870)}
.Eyes-Bear10fil22 {fill:none}
.Eyes-Bear10str4 {stroke:black;stroke-width:150}
.Moustache-Bear4fil590 {fill:url(#Moustache-Bear4id562)}
.Moustache-Bear4fil14 {fill:black;fill-opacity:0.200000}
.Moustache-Bear4fil32 {fill:black;fill-rule:nonzero}
.Moustache-Bear4fil591 {fill:url(#Moustache-Bear4id348)}
.Moustache-Bear4fil592 {fill:url(#Moustache-Bear4id115)}
.Nose-Bear0fil598 {fill:url(#Nose-Bear0id451)}
.Nose-Bear0str0 {stroke:black;stroke-width:150;stroke-linecap:round;stroke-linejoin:round}
.Hair-Bear4fil602 {fill:url(#Hair-Bear4id957)}
.Hair-Bear4fil32 {fill:black;fill-rule:nonzero}
</style><linearGradient gradientUnits="userSpaceOnUse" id="RightFoot-Bear3id650" x1="16088.3" x2="16088.3" y1="25409.6" y2="23879.2">
   <stop offset="0" style="stop-opacity:1; stop-color:#624d4d"/>
   <stop offset="0.729412" style="stop-opacity:1; stop-color:#877878"/>
   <stop offset="1" style="stop-opacity:1; stop-color:#877878"/>
  </linearGradient><linearGradient gradientUnits="userSpaceOnUse" id="RightLeg-Bear4id995" x1="15448.2" x2="15448.2" y1="24220.2" y2="20742.8">
   <stop offset="0" style="stop-opacity:1; stop-color:#707070"/>
   <stop offset="0.34902" style="stop-opacity:1; stop-color:#707070"/>
   <stop offset="1" style="stop-opacity:1; stop-color:#565656"/>
  </linearGradient><linearGradient gradientUnits="userSpaceOnUse" id="RightLeg-Bear4id40" x1="15724.4" x2="15724.4" xlink:href="#RightLeg-Bear4id8" y1="24311.8" y2="22931.3">
  </linearGradient><linearGradient gradientUnits="userSpaceOnUse" id="LeftFoot-Bear3id651" x1="11219.3" x2="11219.3" xlink:href="#LeftFoot-Bear3id650" y1="25409.6" y2="23879.2">
  </linearGradient><linearGradient gradientUnits="userSpaceOnUse" id="LeftLeg-Bear4id996" x1="11859.5" x2="11859.5" xlink:href="#LeftLeg-Bear4id995" y1="24220.2" y2="20742.8">
  </linearGradient><linearGradient gradientUnits="userSpaceOnUse" id="LeftLeg-Bear4id8" x1="11583.3" x2="11583.3" y1="24311.8" y2="22931.3">
   <stop offset="0" style="stop-opacity:1; stop-color:#877878"/>
   <stop offset="0.0509804" style="stop-opacity:1; stop-color:#877878"/>
   <stop offset="1" style="stop-opacity:1; stop-color:#565656"/>
  </linearGradient><linearGradient gradientUnits="objectBoundingBox" id="RightHand-Bear0id388" x1="36.9963%" x2="63.0034%" xlink:href="#RightHand-Bear0id75" y1="2.66464%" y2="97.3354%">
  </linearGradient><linearGradient gradientUnits="userSpaceOnUse" id="RightPaw-Bear3id436" x1="18612.4" x2="18103.5" y1="20111.3" y2="22152.3">
   <stop offset="0" style="stop-opacity:1; stop-color:#877878"/>
   <stop offset="0.211765" style="stop-opacity:1; stop-color:#877878"/>
   <stop offset="1" style="stop-opacity:1; stop-color:#624d4d"/>
  </linearGradient><linearGradient gradientUnits="objectBoundingBox" id="LeftHand-Bear0id386" x1="63.0037%" x2="36.9966%" xlink:href="#LeftHand-Bear0id75" y1="2.66464%" y2="97.3354%">
  </linearGradient><linearGradient gradientUnits="userSpaceOnUse" id="LeftPaw-Bear3id497" x1="9204.11" x2="8695.25" xlink:href="#LeftPaw-Bear3id436" y1="20111.3" y2="22152.3">
  </linearGradient><linearGradient gradientUnits="userSpaceOnUse" id="Body-Bear4id268" x1="13653.8" x2="13653.8" y1="17442" y2="23350.9">
   <stop offset="0" style="stop-opacity:1; stop-color:#302e2e"/>
   <stop offset="0.0784314" style="stop-opacity:1; stop-color:#302e2e"/>
   <stop offset="0.529412" style="stop-opacity:1; stop-color:#565656"/>
   <stop offset="1" style="stop-opacity:1; stop-color:#707070"/>
  </linearGradient><linearGradient gradientUnits="userSpaceOnUse" id="Ears-Bear7id967" x1="6057.31" x2="9771.49" xlink:href="#Ears-Bear7id18" y1="8147.24" y2="11520.9">
  </linearGradient><linearGradient gradientUnits="userSpaceOnUse" id="Ears-Bear7id1015" x1="6992.88" x2="9313.72" xlink:href="#Ears-Bear7id67" y1="8654.53" y2="10917">
  </linearGradient><linearGradient gradientUnits="userSpaceOnUse" id="Ears-Bear7id125" x1="20994.5" x2="17792" xlink:href="#Ears-Bear7id18" y1="7925.71" y2="11742.4">
  </linearGradient><linearGradient gradientUnits="userSpaceOnUse" id="Ears-Bear7id176" x1="20194.5" x2="18114.2" xlink:href="#Ears-Bear7id67" y1="8478.07" y2="11093.5">
  </linearGradient><linearGradient gradientUnits="userSpaceOnUse" id="Head-Bear1id272" x1="13653.8" x2="13653.8" y1="17643.8" y2="7273.2">
   <stop offset="0" style="stop-opacity:1; stop-color:#e8d2c8"/>
   <stop offset="0.580392" style="stop-opacity:1; stop-color:#f5e6df"/>
   <stop offset="1" style="stop-opacity:1; stop-color:#f5e6df"/>
  </linearGradient><linearGradient gradientUnits="userSpaceOnUse" id="Head-Bear1id269" x1="13653.8" x2="13653.8" xlink:href="#Head-Bear1id74" y1="15431.8" y2="10188.8">
  </linearGradient><linearGradient gradientUnits="userSpaceOnUse" id="Eyes-Bear10id835" x1="10347" x2="9983.65" xlink:href="#Eyes-Bear10id27" y1="15034" y2="11838.2">
  </linearGradient><linearGradient gradientUnits="userSpaceOnUse" id="Eyes-Bear10id839" x1="8947.59" x2="11869.4" xlink:href="#Eyes-Bear10id57" y1="13161.7" y2="13465.9">
  </linearGradient><linearGradient gradientUnits="userSpaceOnUse" id="Eyes-Bear10id864" x1="10672.3" x2="10481.9" xlink:href="#Eyes-Bear10id384" y1="12120.7" y2="14214.8">
  </linearGradient><linearGradient gradientUnits="userSpaceOnUse" id="Eyes-Bear10id832" x1="16960.7" x2="17324" xlink:href="#Eyes-Bear10id27" y1="15034" y2="11838.2">
  </linearGradient><linearGradient gradientUnits="userSpaceOnUse" id="Eyes-Bear10id841" x1="18360.1" x2="15438.3" xlink:href="#Eyes-Bear10id57" y1="13161.7" y2="13465.9">
  </linearGradient><linearGradient gradientUnits="userSpaceOnUse" id="Eyes-Bear10id870" x1="16635.4" x2="16825.7" xlink:href="#Eyes-Bear10id384" y1="12120.6" y2="14214.8">
  </linearGradient><linearGradient gradientUnits="userSpaceOnUse" id="Moustache-Bear4id562" x1="13653.8" x2="13653.8" xlink:href="#Moustache-Bear4id49" y1="15258.6" y2="19352.1">
  </linearGradient><linearGradient gradientUnits="userSpaceOnUse" id="Moustache-Bear4id348" x1="13359.7" x2="8166.7" xlink:href="#Moustache-Bear4id49" y1="15181.2" y2="14825.5">
  </linearGradient><linearGradient gradientUnits="userSpaceOnUse" id="Moustache-Bear4id115" x1="13948" x2="19141" xlink:href="#Moustache-Bear4id49" y1="15181.2" y2="14825.5">
  </linearGradient><linearGradient gradientUnits="userSpaceOnUse" id="Nose-Bear0id451" x1="13653.8" x2="13653.8" y1="14108.6" y2="14926.9">
   <stop offset="0" style="stop-opacity:1; stop-color:#FFCCCC"/>
   <stop offset="1" style="stop-opacity:1; stop-color:#453F2C"/>
  </linearGradient><linearGradient gradientUnits="userSpaceOnUse" id="Hair-Bear4id957" x1="13557.1" x2="13668.1" xlink:href="#Hair-Bear4id49" y1="5817.31" y2="8382.55">
  </linearGradient><linearGradient gradientUnits="userSpaceOnUse" id="RightLeg-Bear4id8" x1="11583.3" x2="11583.3" y1="24311.8" y2="22931.3">
   <stop offset="0" style="stop-opacity:1; stop-color:#877878"/>
   <stop offset="0.0509804" style="stop-opacity:1; stop-color:#877878"/>
   <stop offset="1" style="stop-opacity:1; stop-color:#565656"/>
  </linearGradient><linearGradient gradientUnits="userSpaceOnUse" id="LeftFoot-Bear3id650" x1="16088.3" x2="16088.3" y1="25409.6" y2="23879.2">
   <stop offset="0" style="stop-opacity:1; stop-color:#624d4d"/>
   <stop offset="0.729412" style="stop-opacity:1; stop-color:#877878"/>
   <stop offset="1" style="stop-opacity:1; stop-color:#877878"/>
  </linearGradient><linearGradient gradientUnits="userSpaceOnUse" id="LeftLeg-Bear4id995" x1="15448.2" x2="15448.2" y1="24220.2" y2="20742.8">
   <stop offset="0" style="stop-opacity:1; stop-color:#707070"/>
   <stop offset="0.34902" style="stop-opacity:1; stop-color:#707070"/>
   <stop offset="1" style="stop-opacity:1; stop-color:#565656"/>
  </linearGradient><linearGradient gradientUnits="userSpaceOnUse" id="RightHand-Bear0id75" x1="17042.3" x2="17994.1" y1="17293.3" y2="21110.7">
   <stop offset="0" style="stop-opacity:1; stop-color:#302e2e"/>
   <stop offset="0.0784314" style="stop-opacity:1; stop-color:#302e2e"/>
   <stop offset="0.768627" style="stop-opacity:1; stop-color:#565656"/>
   <stop offset="1" style="stop-opacity:1; stop-color:#565656"/>
  </linearGradient><linearGradient gradientUnits="userSpaceOnUse" id="LeftHand-Bear0id75" x1="17042.3" x2="17994.1" y1="17293.3" y2="21110.7">
   <stop offset="0" style="stop-opacity:1; stop-color:#302e2e"/>
   <stop offset="0.0784314" style="stop-opacity:1; stop-color:#302e2e"/>
   <stop offset="0.768627" style="stop-opacity:1; stop-color:#565656"/>
   <stop offset="1" style="stop-opacity:1; stop-color:#565656"/>
  </linearGradient><linearGradient gradientUnits="userSpaceOnUse" id="LeftPaw-Bear3id436" x1="18612.4" x2="18103.5" y1="20111.3" y2="22152.3">
   <stop offset="0" style="stop-opacity:1; stop-color:#877878"/>
   <stop offset="0.211765" style="stop-opacity:1; stop-color:#877878"/>
   <stop offset="1" style="stop-opacity:1; stop-color:#624d4d"/>
  </linearGradient><linearGradient gradientUnits="userSpaceOnUse" id="Ears-Bear7id18" x1="10235.1" x2="10235.1" y1="19681.2" y2="17649.5">
   <stop offset="0" style="stop-opacity:1; stop-color:#877878"/>
   <stop offset="1" style="stop-opacity:1; stop-color:#624d4d"/>
  </linearGradient><linearGradient gradientUnits="userSpaceOnUse" id="Ears-Bear7id67" x1="19243.1" x2="17345.7" y1="8365.42" y2="10750.8">
   <stop offset="0" style="stop-opacity:1; stop-color:#F2E6E6"/>
   <stop offset="1" style="stop-opacity:1; stop-color:#B58383"/>
  </linearGradient><linearGradient gradientUnits="userSpaceOnUse" id="Head-Bear1id74" x1="15961" x2="18418.2" y1="23174.1" y2="17871.9">
   <stop offset="0" style="stop-opacity:1; stop-color:#302e2e"/>
   <stop offset="1" style="stop-opacity:1; stop-color:#565656"/>
  </linearGradient><linearGradient gradientUnits="userSpaceOnUse" id="Eyes-Bear10id27" x1="16937.6" x2="16937.6" y1="14961.3" y2="11448.6">
   <stop offset="0" style="stop-opacity:1; stop-color:#803500"/>
   <stop offset="1" style="stop-opacity:1; stop-color:black"/>
  </linearGradient><linearGradient gradientUnits="objectBoundingBox" id="Eyes-Bear10id57" x1="100%" x2="0%" y1="50.0003%" y2="50.0003%">
   <stop offset="0" style="stop-opacity:1; stop-color:#803500"/>
   <stop offset="0.501961" style="stop-opacity:1; stop-color:#ff8d39"/>
   <stop offset="1" style="stop-opacity:1; stop-color:#803500"/>
  </linearGradient><linearGradient gradientUnits="userSpaceOnUse" id="Eyes-Bear10id384" x1="16417.8" x2="16417.8" y1="11784.3" y2="14068.5">
   <stop offset="0" style="stop-opacity:1; stop-color:black"/>
   <stop offset="0.45" style="stop-opacity:1; stop-color:black"/>
   <stop offset="1" style="stop-opacity:1; stop-color:#662b00"/>
  </linearGradient><linearGradient gradientUnits="userSpaceOnUse" id="Moustache-Bear4id49" x1="13715.8" x2="13715.8" y1="6802.99" y2="8218.57">
   <stop offset="0" style="stop-opacity:1; stop-color:#40381b"/>
   <stop offset="1" style="stop-opacity:1; stop-color:#5a5130"/>
  </linearGradient><linearGradient gradientUnits="userSpaceOnUse" id="Hair-Bear4id49" x1="13715.8" x2="13715.8" y1="6802.99" y2="8218.57">
   <stop offset="0" style="stop-opacity:1; stop-color:#40381b"/>
   <stop offset="1" style="stop-opacity:1; stop-color:#5a5130"/>
  </linearGradient></defs><g id="HairBack-Bear0">
 <animateTransform additive="sum" attributeName="transform" dur="10" repeatCount="indefinite" type="translate" values="0;0 200;0;0 200;0;0 200;0;0 200;0"/>
  <metadata id="CorelCorpID_216Corel-Layer"/>
  <rect class="HairBack-Bear0fil22" height="998" width="1061" x="13124" y="20899"/>
 </g><g id="Tail-Bear0">
  <metadata id="CorelCorpID_219Corel-Layer"/>
  <rect class="Tail-Bear0fil22" height="1129" width="1129" x="13089" y="21055"/>
 </g><g id="RightFoot-Bear3">
  <metadata id="CorelCorpID_222Corel-Layer"/>
  <path class="RightFoot-Bear3fil432" d="M17045 25080c-66,213 -260,328 -578,232 -82,82 -466,170 -720,2 -241,-159 -607,-457 -720,-564 -96,-91 -335,-220 -291,-565 777,87 1299,173 1927,-306 18,146 320,205 479,267 233,89 426,392 211,604 42,135 -122,330 -308,330z" style="fill:#390676"/>
  <path class="RightFoot-Bear3fil14" d="M16490 25327c320,133 480,-45 565,-254 204,-15 307,-138 301,-308 28,-45 52,-79 86,-174 31,-139 -54,-325 -125,-351 31,144 -137,125 -191,129 232,292 -30,451 -178,321 -4,299 -321,400 -555,107 -111,282 -514,451 -1612,-364 1095,1261 1346,941 1709,894z" style="fill:#419ed2"/>
  <path class="RightFoot-Bear3fil32" d="M16963 25089c-68,167 -221,202 -384,173 53,-171 15,-486 -309,-550 160,131 191,345 122,563 -153,91 -454,76 -604,-23 -105,-69 -235,-166 -357,-262 -142,-112 -270,-229 -408,-342 -98,-80 -205,-212 -213,-454 5,-41 -24,-78 -65,-83 -41,-5 -84,23 -83,65 7,344 143,486 266,587 138,114 267,232 411,345 124,97 257,197 366,269 205,135 567,145 776,17 252,66 509,18 618,-243 169,-27 352,-197 334,-378 149,-177 94,-405 -60,-562 -136,-138 -294,-154 -454,-250 -66,-40 -120,-83 -125,-121l-137 73c20,64 119,137 185,176 138,83 316,117 424,227 53,54 98,127 105,203 -87,-137 -253,-261 -447,-225 213,57 340,284 356,532 -17,67 -81,130 -143,158 -9,-180 -141,-449 -459,-414 197,78 290,282 285,519z" style="fill:#faad8e"/>
 </g><g id="LeftFoot-Bear3">
  <metadata id="CorelCorpID_231Corel-Layer"/>
  <path class="LeftFoot-Bear3fil442" d="M10263 25080c66,213 260,328 578,232 82,82 466,170 720,2 241,-159 607,-457 719,-564 96,-91 336,-220 292,-565 -777,87 -1299,173 -1927,-306 -19,146 -321,205 -479,267 -233,89 -427,392 -211,604 -42,135 121,330 308,330z" style="fill:#f3e721"/>
  <path class="LeftFoot-Bear3fil14" d="M10817 25327c-320,133 -479,-45 -565,-254 -203,-15 -307,-138 -301,-308 -27,-45 -52,-79 -85,-174 -32,-139 54,-325 124,-351 -30,144 137,125 192,129 -233,292 29,451 178,321 4,299 321,400 554,107 112,282 515,451 1613,-364 -1095,1261 -1346,941 -1710,894z" style="fill:#6163f3"/>
  <path class="LeftFoot-Bear3fil32" d="M10345 25089c68,167 220,202 384,173 -54,-171 -16,-486 309,-550 -160,131 -191,345 -122,563 153,91 454,76 604,-23 104,-69 234,-166 356,-262 143,-112 271,-229 409,-342 97,-80 205,-212 213,-454 -5,-41 24,-78 65,-83 41,-5 84,23 83,65 -7,344 -143,486 -266,587 -139,114 -268,232 -411,345 -124,97 -258,197 -367,269 -205,135 -567,145 -776,17 -251,66 -509,18 -617,-243 -169,-27 -352,-197 -335,-378 -149,-177 -93,-405 61,-562 136,-138 294,-154 454,-250 66,-40 120,-83 125,-121l137 73c-20,64 -120,137 -185,176 -139,83 -316,117 -425,227 -53,54 -97,127 -104,203 86,-137 252,-261 447,-225 -213,57 -341,284 -357,532 18,67 82,130 144,158 8,-180 141,-449 459,-414 -197,78 -291,282 -285,519z" style="fill:#0c6135"/>
 </g><g id="RightLeg-Bear4">
  <metadata id="CorelCorpID_227Corel-Layer"/>
  <path class="RightLeg-Bear4fil439" d="M13654 20747c651,0 2263,-52 2620,230 303,239 971,977 969,1838 -2,444 -257,819 -524,1020 -221,162 -440,291 -673,374 -391,24 -841,5 -1310,-24 7,-583 -643,-742 -1082,-749l0 -2689z" style="fill:#545bc5"/>
  <path class="RightLeg-Bear4fil440" d="M16906 23643c-38,56 -97,124 -187,192 -578,425 -1151,626 -1983,350 3,-262 -126,-438 -309,-553 1133,28 1412,-703 2238,-701 288,1 497,345 241,712z" style="fill:#7c00c5"/>
  <path class="RightLeg-Bear4fil14" d="M16961 23553c110,-131 272,-434 272,-592 2,-776 -323,-1481 -652,-1782 -248,370 -56,940 55,979 367,105 509,1009 325,1395z" style="fill:#85b43c"/>
  <path class="RightLeg-Bear4fil32" d="M16690 23782c-238,187 -417,303 -711,449 260,-35 573,-178 785,-337 332,-249 552,-662 553,-1079 1,-360 -110,-698 -263,-990 -227,-429 -547,-760 -734,-907 -32,-26 -79,-20 -105,12 -25,33 -20,80 13,105 175,139 478,451 693,860 144,273 248,587 247,920 -1,358 -198,746 -478,967zm-1745 794c71,68 -33,176 -104,108 -135,-130 -182,-317 -180,-500 3,-218 -99,-369 -246,-471 -213,-147 -519,-198 -761,-203l0 -149 1 0c265,5 604,62 845,229 186,129 314,320 310,596 -1,139 31,290 135,390z" style="fill:#95c863"/>
 </g><g id="LeftLeg-Bear4">
  <metadata id="CorelCorpID_236Corel-Layer"/>
  <path class="LeftLeg-Bear4fil449" d="M13654 20747c-651,0 -2264,-52 -2620,230 -303,239 -971,977 -969,1838 1,444 256,819 524,1020 220,162 440,291 673,374 391,24 841,5 1310,-24 -7,-583 642,-742 1082,-749l0 -2689z" style="fill:#a25535"/>
  <path class="LeftLeg-Bear4fil450" d="M10401 23643c39,56 98,124 188,192 578,425 1150,626 1983,350 -3,-262 126,-438 309,-553 -1133,28 -1412,-703 -2238,-701 -289,1 -497,345 -242,712z" style="fill:#d29651"/>
  <path class="LeftLeg-Bear4fil14" d="M10346 23553c-110,-131 -271,-434 -271,-592 -3,-776 323,-1481 652,-1782 248,370 56,940 -56,979 -366,105 -508,1009 -325,1395z" style="fill:#d68b96"/>
  <path class="LeftLeg-Bear4fil32" d="M10618 23782c238,187 417,303 711,449 -260,-35 -573,-178 -785,-337 -332,-249 -552,-662 -554,-1079 -1,-360 110,-698 264,-990 226,-429 547,-760 734,-907 32,-26 79,-20 104,12 26,33 20,80 -12,105 -175,139 -478,451 -694,860 -143,273 -247,587 -246,920 1,358 198,746 478,967zm1745 794c-71,68 32,176 103,108 135,-130 183,-317 181,-500 -3,-218 98,-369 246,-471 212,-147 519,-198 761,-203l0 -149 -1 0c-265,5 -604,62 -845,229 -186,129 -314,320 -311,596 2,139 -31,290 -134,390z" style="fill:#c8bc8a"/>
 </g><g id="RightHand-Bear0">
 <animateTransform additive="sum" attributeName="transform" dur="10" repeatCount="indefinite" type="translate" values="0;0 200;0;0 200;0;0 200;0;0 200;0"/>
  <metadata id="CorelCorpID_238Corel-Layer"/>
  <path class="RightHand-Bear0fil452" d="M16111 17210c1487,-179 2823,1880 3151,3021 160,558 -1806,1220 -1964,882 -68,-147 -295,-477 -571,-705 -149,-820 -321,-1468 -1092,-3106 169,-47 290,-69 476,-92z" style="fill:#6b11c1"/>
  <path class="RightHand-Bear0fil22 RightHand-Bear0str0" d="M16111 17205c1487,-179 2823,1880 3151,3021 160,558 -1806,1220 -1964,882 -68,-147 -295,-477 -571,-705 -149,-820 -321,-1468 -1092,-3106 169,-47 290,-69 476,-92z" style="fill:#25d3a7"/>
  <path class="RightHand-Bear0fil14" d="M17217 20971c-131,-206 -302,-406 -490,-563 -50,-606 -203,-1164 -276,-1762 236,212 930,1618 766,2325z" style="fill:#f98b26"/>
 </g><g id="LeftHand-Bear0">
 <animateTransform additive="sum" attributeName="transform" dur="10" repeatCount="indefinite" type="translate" values="0;0 200;0;0 200;0;0 200;0;0 200;0"/>
  <metadata id="CorelCorpID_247Corel-Layer"/>
  <path class="LeftHand-Bear0fil465" d="M11197 17210c-1488,-179 -2824,1880 -3151,3021 -160,558 1806,1220 1963,882 69,-147 296,-477 571,-705 149,-820 322,-1468 1092,-3106 -168,-47 -290,-69 -475,-92z" style="fill:#a7f7fb"/>
  <path class="LeftHand-Bear0fil22 LeftHand-Bear0str0" d="M11197 17205c-1488,-179 -2824,1880 -3151,3021 -160,558 1806,1220 1963,882 69,-147 296,-477 571,-705 149,-820 322,-1468 1092,-3106 -168,-47 -290,-69 -475,-92z" style="fill:#f85cd4"/>
  <path class="LeftHand-Bear0fil14" d="M10090 20971c132,-206 303,-406 490,-563 51,-606 203,-1164 276,-1762 -235,212 -929,1618 -766,2325z" style="fill:#022ba1"/>
 </g><g id="Body-Bear4">
 <animateTransform additive="sum" attributeName="transform" dur="10" repeatCount="indefinite" type="translate" values="0;0 200;0;0 200;0;0 200;0;0 200;0"/>
  <metadata id="CorelCorpID_259Corel-Layer"/>
  <path class="Body-Bear4fil481" d="M13654 23351c1692,-3 2768,-307 3233,-1926 302,-1052 -330,-2764 -1019,-3983 -551,110 -1409,139 -2214,150 -806,-11 -1663,-40 -2215,-150 -688,1219 -1321,2931 -1018,3983 465,1619 1541,1923 3233,1926z" style="fill:#b30c6b"/>
  <path class="Body-Bear4fil14" d="M11416 22901c-455,-288 -787,-750 -995,-1476 -211,-735 34,-1792 435,-2779 -591,2230 70,3628 560,4255z" style="fill:#7ceed9"/>
  <path class="Body-Bear4fil32" d="M11416 22901c-539,-241 -960,-968 -1067,-1455 -108,-487 -59,-1102 131,-1659 -71,577 -87,1191 13,1618 104,444 495,1184 923,1496z" style="fill:#e62906"/>
  <path class="Body-Bear4fil22" d="M12621 22856c-1016,-156 -1749,-629 -1932,-1889 -2,-17 -5,-34 -7,-51l0 -4c-2,-16 -4,-32 -5,-48l-1 -7c-1,-15 -3,-31 -4,-46l0 -8c-2,-15 -3,-30 -3,-46l-1 -8c-1,-16 -1,-31 -2,-47l0 -6c-1,-17 -1,-34 -1,-51l0 -5c0,-17 0,-34 0,-50l0 -8c0,-15 0,-31 1,-47l0 -9c1,-15 1,-30 2,-46l0 -11c1,-14 2,-29 3,-44l1 -12c1,-15 2,-29 3,-44l1 -13c1,-15 3,-31 4,-46l2 -14c1,-15 3,-30 5,-44l1 -15c2,-14 4,-27 5,-41l3 -18c2,-13 3,-26 5,-39l3 -18c2,-12 4,-25 6,-38 1,-7 2,-14 4,-22 2,-12 4,-25 6,-37l4 -23c2,-11 4,-23 6,-34 2,-9 4,-18 6,-28 2,-10 4,-21 6,-32 2,-9 4,-18 6,-27 2,-11 4,-21 7,-32l6 -27c2,-11 4,-21 7,-31 3,-13 6,-25 9,-37l5 -21c3,-14 6,-27 9,-40l5 -18c4,-14 7,-28 11,-42l4 -15c4,-15 8,-30 12,-46l3 -8c4,-16 9,-33 14,-49l1 -7m15 -50l9 -28c5,-17 10,-34 15,-52l2 -5c6,-17 11,-34 17,-51l1 -6c6,-18 12,-36 18,-54l0 -1c-142,1971 409,3124 1703,3596" style="fill:#b128dd"/>
  <path class="Body-Bear4fil22" d="M12621 22856c-1016,-156 -1749,-629 -1932,-1889 -2,-17 -5,-34 -7,-51l0 -4c-2,-16 -4,-32 -5,-48l-1 -7c-1,-15 -3,-31 -4,-46l0 -8c-2,-15 -3,-30 -3,-46l-1 -8c-1,-16 -1,-31 -2,-47l0 -6c-1,-17 -1,-34 -1,-51l0 -5c0,-17 0,-34 0,-50l0 -8c0,-15 0,-31 1,-47l0 -9c1,-15 1,-30 2,-46l0 -11c1,-14 2,-29 3,-44l1 -12c1,-15 2,-29 3,-44l1 -13c1,-15 3,-31 4,-46l2 -14c1,-15 3,-30 5,-44l1 -15c2,-14 4,-27 5,-41l3 -18c2,-13 3,-26 5,-39l3 -18c2,-12 4,-25 6,-38 1,-7 2,-14 4,-22 2,-12 4,-25 6,-37l4 -23c2,-11 4,-23 6,-34 2,-9 4,-18 6,-28 2,-10 4,-21 6,-32 2,-9 4,-18 6,-27 2,-11 4,-21 7,-32l6 -27c2,-11 4,-21 7,-31 3,-13 6,-25 9,-37l5 -21c3,-14 6,-27 9,-40l5 -18c4,-14 7,-28 11,-42l4 -15c4,-15 8,-30 12,-46l3 -8c4,-16 9,-33 14,-49l1 -7m15 -50l9 -28c5,-17 10,-34 15,-52l2 -5c6,-17 11,-34 17,-51l1 -6c6,-18 12,-36 18,-54l0 -1c-142,1971 409,3124 1703,3596" style="fill:#679c16"/>
  <path class="Body-Bear4fil14" d="M15892 22901c455,-288 786,-750 995,-1476 211,-735 -34,-1792 -436,-2779 592,2230 -69,3628 -559,4255z" style="fill:#188830"/>
  <path class="Body-Bear4fil32" d="M15892 22901c539,-241 960,-968 1067,-1455 107,-487 59,-1102 -132,-1659 72,577 87,1191 -12,1618 -104,444 -496,1184 -923,1496z" style="fill:#19d39f"/>
  <path class="Body-Bear4fil32" d="M12443 19595c14,90 3,320 274,403 104,32 268,2 338,-92 40,-54 108,-17 116,35 27,177 135,303 267,367 69,33 144,49 218,46 72,-2 143,-23 205,-64 110,-73 193,-211 207,-426 2,-41 34,-72 70,-69 26,2 48,21 57,47 49,115 191,167 297,161 200,-11 329,-149 390,-357 24,291 -132,492 -383,506 -114,7 -234,-31 -324,-111 -43,180 -134,304 -248,378 -81,54 -173,81 -267,85 -93,3 -187,-17 -273,-58 -141,-68 -261,-192 -318,-364 -112,74 -260,99 -386,61 -266,-82 -287,-394 -240,-548z" style="fill:#29a34d"/>
 </g><g id="RightPaw-Bear3">
 <animateTransform additive="sum" attributeName="transform" dur="10" repeatCount="indefinite" type="translate" values="0;0 200;0;0 200;0;0 200;0;0 200;0"/>
  <metadata id="CorelCorpID_245Corel-Layer"/>
  <path class="RightPaw-Bear3fil460" d="M19212 20074c101,319 446,1074 -76,1413 -8,341 -321,891 -722,638 -151,80 -387,68 -509,-83 -446,-4 -409,-537 -607,-929 295,-982 1641,-506 1914,-1039z" style="fill:#810421"/>
  <path class="RightPaw-Bear3fil32" d="M19190 20003c89,-30 112,105 135,170 130,372 354,1015 -116,1354 -11,143 -66,311 -153,448 -99,155 -252,294 -446,289 -65,-1 -132,-19 -200,-55 -176,73 -404,47 -540,-94 -338,-20 -419,-297 -509,-605 -35,-123 -73,-250 -129,-363 -19,-37 -94,-221 -57,-240 16,-8 67,4 101,36 47,44 78,115 89,136 63,125 102,260 140,389 60,206 115,395 261,468 -29,-101 -22,-219 84,-284 -76,237 182,489 434,440 -65,-93 -101,-219 -10,-319 -6,164 172,338 339,342 137,3 248,-112 316,-220 55,-87 95,-188 116,-282 -169,50 -397,13 -448,-183 104,74 378,78 488,1 414,-287 232,-827 98,-1209 -22,-63 -77,-193 7,-219z" style="fill:#0a2a07"/>
  <path class="RightPaw-Bear3fil458" d="M18721 21392c-70,15 -168,-109 -207,-290 -38,-180 -13,-339 57,-354 70,-15 188,120 226,300 39,181 -7,329 -76,344z" style="fill:#2ee61e"/>
  <path class="RightPaw-Bear3fil458" d="M18493 21944c-70,15 -168,-109 -207,-289 -38,-181 -13,-340 57,-355 70,-14 188,120 226,301 39,180 -7,328 -76,343z" style="fill:#c8833a"/>
  <path class="RightPaw-Bear3fil458" d="M18061 21880c-58,7 -128,-100 -147,-248 -19,-148 13,-275 70,-282 57,-7 143,110 162,258 19,148 -28,265 -85,272z" style="fill:#e5c7ed"/>
  <path class="RightPaw-Bear3fil458" d="M17668 21710c-41,0 -83,-82 -84,-190 -2,-107 31,-195 72,-195 42,-1 94,90 95,197 2,108 -41,187 -83,188z" style="fill:#968d1f"/>
  <path class="RightPaw-Bear3fil458" d="M18328 20905c28,402 -757,372 -764,113 -13,-411 729,-626 764,-113z" style="fill:#ff2c41"/>
 </g><g id="LeftPaw-Bear3">
 <animateTransform additive="sum" attributeName="transform" dur="10" repeatCount="indefinite" type="translate" values="0;0 200;0;0 200;0;0 200;0;0 200;0"/>
  <metadata id="CorelCorpID_254Corel-Layer"/>
  <path class="LeftPaw-Bear3fil471" d="M8095 20074c-101,319 -445,1074 76,1413 8,341 322,891 722,638 152,80 388,68 510,-83 446,-4 408,-537 606,-929 -294,-982 -1641,-506 -1914,-1039z" style="fill:#dfea84"/>
  <path class="LeftPaw-Bear3fil32" d="M8118 20003c-89,-30 -112,105 -135,170 -130,372 -355,1015 116,1354 11,143 66,311 153,448 98,155 252,294 446,289 65,-1 131,-19 199,-55 176,73 405,47 540,-94 339,-20 419,-297 509,-605 36,-123 73,-250 130,-363 19,-37 93,-221 56,-240 -15,-8 -66,4 -100,36 -47,44 -79,115 -89,136 -63,125 -103,260 -140,389 -60,206 -116,395 -261,468 29,-101 22,-219 -84,-284 76,237 -182,489 -434,440 64,-93 101,-219 9,-319 6,164 -171,338 -338,342 -138,3 -248,-112 -316,-220 -56,-87 -96,-188 -117,-282 170,50 397,13 449,-183 -104,74 -378,78 -489,1 -414,-287 -231,-827 -98,-1209 22,-63 78,-193 -6,-219z" style="fill:#49f10b"/>
  <path class="LeftPaw-Bear3fil458" d="M8587 21392c70,15 168,-109 206,-290 39,-180 14,-339 -56,-354 -70,-15 -188,120 -227,300 -38,181 7,329 77,344z" style="fill:#23efb7"/>
  <path class="LeftPaw-Bear3fil458" d="M8815 21944c70,15 168,-109 206,-289 39,-181 14,-340 -56,-355 -70,-14 -188,120 -227,301 -38,180 7,328 77,343z" style="fill:#e96614"/>
  <path class="LeftPaw-Bear3fil458" d="M9247 21880c57,7 128,-100 147,-248 18,-148 -13,-275 -70,-282 -58,-7 -144,110 -163,258 -18,148 29,265 86,272z" style="fill:#24ef6c"/>
  <path class="LeftPaw-Bear3fil458" d="M9640 21710c41,0 83,-82 84,-190 1,-107 -31,-195 -73,-195 -41,-1 -94,90 -95,197 -1,108 42,187 84,188z" style="fill:#f79d50"/>
  <path class="LeftPaw-Bear3fil458" d="M8979 20905c-27,402 757,372 765,113 12,-411 -729,-626 -765,-113z" style="fill:#f1a56f"/>
 </g><g id="Ears-Bear7">
 <animateTransform additive="sum" attributeName="transform" dur="10" repeatCount="indefinite" type="translate" values="0;0 200;0;0 200;0;0 200;0;0 200;0"/>
  <metadata id="CorelCorpID_267Corel-Layer"/>
  <g>
        <animateTransform additive="sum" attributeName="transform" dur="10" repeatCount="indefinite" type="rotate" values="0;0;0;0;0;0;10;0;0;0;0;0;0;0;0;0;0;0;0;0;0;0;0;0;0;0;0;0;0;0;0;0;0;0;0;0;0;0;0;0;0;0;0;0;0;0;0;0;0;0;0;0;0;0;0;0;0;0;0;0;0;0;0;0;0;0;0;0;0;0;0;0;0;0;0;0;0;0;0;0;0;0"/>
        <g>
          <animateTransform additive="sum" attributeName="transform" dur="10" repeatCount="indefinite" type="translate" values="0;0;0;0;0;0;2000 -2000;0;0;0;0;0;0;0;0;0;0;0;0;0;0;0;0;0;0;0;0;0;0;0;0;0;0;0;0;0;0;0;0;0;0;0;0;0;0;0;0;0;0;0;0;0;0;0;0;0;0;0;0;0;0;0;0;0;0;0;0;0;0;0;0;0;0;0;0;0;0;0;0;0;0;0"/>
          <path class="Ears-Bear7fil507" d="M7712 12016c-311,559 -960,266 -577,-1051 83,-288 -363,837 -736,671 -518,-231 -244,-1299 -213,-1502 -288,585 -349,727 -607,581 -441,-249 -371,-1379 281,-2255 1110,-1489 3456,-1429 4670,147 -1147,1174 -2653,2139 -2818,3409z" style="fill:#27e6eb"/>
          <path class="Ears-Bear7fil32" d="M7776 12054c-95,171 -223,272 -349,298 -80,18 -159,6 -231,-36 -67,-39 -127,-105 -171,-197 -78,-165 -110,-424 -52,-782 -161,233 -382,466 -604,367 -376,-167 -385,-697 -336,-1107 -157,270 -262,312 -490,183 -18,-9 -34,-20 -49,-31 -195,-146 -287,-452 -267,-826 18,-359 138,-785 365,-1187 62,-110 131,-217 208,-320 152,-205 327,-381 519,-528 514,-396 1149,-589 1793,-579 643,9 1295,219 1845,629 232,173 445,381 632,624 23,29 20,71 -6,97l0 0c-301,309 -624,600 -941,887 -891,804 -1738,1568 -1856,2480 -2,10 -5,19 -10,28zm-380 152c84,-18 172,-90 244,-215 132,-960 994,-1738 1901,-2557 301,-271 607,-546 889,-832 -168,-210 -358,-391 -562,-543 -524,-391 -1146,-592 -1758,-601 -611,-9 -1213,173 -1699,548 -182,140 -347,306 -491,499 -74,99 -140,201 -198,304 -215,381 -328,784 -346,1122 -17,324 54,584 207,698 11,8 22,15 33,21 130,74 193,40 299,-149 48,-85 106,-203 180,-352l22 -44c12,-31 45,-51 80,-45 41,6 69,44 63,85 -3,21 -10,55 -18,97 -60,314 -220,1144 188,1326 202,90 478,-397 592,-597 50,-88 81,-143 143,-125 52,15 65,58 42,140 -153,525 -138,876 -46,1069 30,64 68,107 110,132 39,22 81,28 125,19z" style="fill:#881b8c"/>
          <path class="Ears-Bear7fil508" d="M8067 11539c-87,-1026 -982,-901 -1316,-1600 -668,-1397 1558,-2877 2927,-1070 -868,459 -1228,1855 -1611,2670z" style="fill:#cfe0ff"/>
          <path class="Ears-Bear7fil14" d="M6888 8668c545,-733 1840,-1013 2762,166 -145,94 -295,201 -364,267 -293,-644 -1478,-1109 -2398,-433z" style="fill:#bda7db"/>
        </g>
    </g>
    <g>
        <animateTransform additive="sum" attributeName="transform" dur="10" repeatCount="indefinite" type="rotate" values="0;0;0;0;0;0;-10;0;0;0;0;0;0;0;0;0;0;0;0;0;0;0;0;0;0;0;0;0;0;0;0;0;0;0;0;0;0;0;0;0;0;0;0;0;0;0;0;0;0;0;0;0;0;0;0;0;0;0;0;0;0;0;0;0;0;0;0;0;0;0;0;0;0;0;0;0;0;0;0;0;0;0"/>
        <g>
            <animateTransform additive="sum" attributeName="transform" dur="10" repeatCount="indefinite" type="translate" values="0;0;0;0;0;0;-2500 2500;0;0;0;0;0;0;0;0;0;0;0;0;0;0;0;0;0;0;0;0;0;0;0;0;0;0;0;0;0;0;0;0;0;0;0;0;0;0;0;0;0;0;0;0;0;0;0;0;0;0;0;0;0;0;0;0;0;0;0;0;0;0;0;0;0;0;0;0;0;0;0;0;0;0;0"/>
            <path class="Ears-Bear7fil509" d="M19596 12016c311,559 959,266 577,-1051 -84,-288 362,837 735,671 519,-231 245,-1299 214,-1502 288,585 348,727 607,581 441,-249 371,-1379 -282,-2255 -1109,-1489 -3455,-1429 -4669,147 1146,1174 2653,2139 2818,3409z" style="fill:#e1b81e"/>
            <path class="Ears-Bear7fil32" d="M19532 12054c95,171 222,272 349,298 80,18 159,6 230,-36 68,-39 127,-105 171,-197 79,-165 111,-424 53,-782 161,233 382,466 604,367 376,-167 385,-697 336,-1107 157,270 262,312 490,183 18,-9 34,-20 49,-31 195,-146 286,-452 267,-826 -19,-359 -138,-785 -365,-1187 -62,-110 -132,-217 -208,-320 -153,-205 -328,-381 -519,-528 -515,-396 -1149,-589 -1793,-579 -643,9 -1295,219 -1846,629 -231,173 -444,381 -631,624 -23,29 -20,71 5,97l0 0c301,309 625,600 942,887 891,804 1737,1568 1856,2480 1,10 5,19 10,28zm380 152c-84,-18 -172,-90 -244,-215 -133,-960 -994,-1738 -1902,-2557 -300,-271 -606,-546 -889,-832 169,-210 358,-391 563,-543 524,-391 1146,-592 1758,-601 611,-9 1213,173 1699,548 181,140 347,306 490,499 74,99 140,201 198,304 216,381 329,784 347,1122 16,324 -54,584 -207,698 -11,8 -22,15 -33,21 -131,74 -193,40 -300,-149 -48,-85 -106,-203 -179,-352l-22 -44c-13,-31 -45,-51 -80,-45 -41,6 -69,44 -63,85 3,21 10,55 18,97 60,314 220,1144 -188,1326 -202,90 -479,-397 -592,-597 -50,-88 -81,-143 -143,-125 -52,15 -66,58 -42,140 153,525 137,876 46,1069 -31,64 -69,107 -111,132 -38,22 -81,28 -124,19z" style="fill:#4f9558"/>
            <path class="Ears-Bear7fil510" d="M19241 11539c86,-1026 981,-901 1315,-1600 669,-1397 -1558,-2877 -2926,-1070 868,459 1228,1855 1611,2670z" style="fill:#769644"/>
            <path class="Ears-Bear7fil14" d="M20420 8668c-545,-733 -1840,-1013 -2763,166 146,94 295,201 364,267 294,-644 1478,-1109 2399,-433z" style="fill:#04a89e"/>
        </g>
    </g>
 </g><g id="Head-Bear1">
 <animateTransform additive="sum" attributeName="transform" dur="10" repeatCount="indefinite" type="translate" values="0;0 200;0;0 200;0;0 200;0;0 200;0"/>
  <metadata id="CorelCorpID_269Corel-Layer"/>
  <path class="Head-Bear1fil513" d="M13654 7273c-3309,0 -6045,2676 -6842,5956 -225,925 -94,2287 599,1795 14,821 658,1783 935,1228 1306,1144 3346,1392 5308,1392 1962,0 4002,-248 5308,-1392 276,555 920,-407 934,-1228 693,492 824,-870 600,-1795 -797,-3280 -3533,-5956 -6842,-5956z" style="fill:#f234ae"/>
  <path class="Head-Bear1fil14" d="M7936 10616c-511,790 -897,1677 -1124,2613 -225,925 -94,2287 599,1795 14,821 658,1783 935,1228 1049,919 2573,1260 4149,1358 -4263,-881 -6070,-3424 -4559,-6994z" style="fill:#bf211b"/>
  <path class="Head-Bear1fil32" d="M12848 7326c-615,115 -1491,466 -1775,598 -285,132 -1125,569 -1666,994 495,-570 1417,-1044 1603,-1130 181,-84 992,-436 1838,-462zm-4763 3069c-325,447 -615,1200 -714,1421 -203,458 -367,937 -486,1431 -106,436 -132,970 -54,1352 30,146 75,268 135,350 51,70 115,109 192,104 59,-4 129,-32 210,-90 34,-23 80,-16 104,18 10,14 15,29 14,45 8,398 169,830 361,1092 63,86 128,153 191,190 51,31 99,42 138,26 36,-15 71,-52 103,-115 18,-37 63,-52 100,-34 8,4 14,9 20,14 469,410 1035,703 1660,910 310,102 1767,462 2436,501 -1158,20 -2267,-288 -2483,-359 -615,-204 -1175,-489 -1648,-885 -39,52 -84,87 -132,107 -87,35 -180,19 -271,-36 -80,-48 -160,-128 -235,-230 -187,-256 -348,-662 -382,-1055 -63,31 -122,47 -177,51 -133,8 -240,-53 -322,-165 -73,-100 -126,-242 -160,-409 -82,-402 -56,-962 54,-1417 122,-502 289,-989 496,-1456 71,-160 424,-962 850,-1361z" style="fill:#b49ad0"/>
  <path class="Head-Bear1fil32" d="M14460 7326c615,115 1491,466 1774,598 286,132 1126,569 1667,994 -495,-570 -1417,-1044 -1604,-1130 -181,-84 -992,-436 -1837,-462zm4763 3069c325,447 615,1200 713,1421 203,458 367,937 487,1431 106,436 131,970 53,1352 -29,146 -74,268 -134,350 -52,70 -116,109 -192,104 -60,-4 -130,-32 -210,-90 -34,-23 -81,-16 -105,18 -9,14 -14,29 -14,45 -7,398 -168,830 -360,1092 -63,86 -129,153 -191,190 -52,31 -99,42 -138,26 -37,-15 -71,-52 -103,-115 -18,-37 -63,-52 -101,-34 -7,4 -14,9 -19,14 -469,410 -1036,703 -1660,910 -311,102 -1768,462 -2436,501 1157,20 2267,-288 2483,-359 614,-204 1175,-489 1648,-885 39,52 83,87 132,107 87,35 179,19 271,-36 80,-48 160,-128 235,-230 187,-256 347,-662 382,-1055 63,31 121,47 176,51 134,8 240,-53 323,-165 73,-100 126,-242 160,-409 82,-402 56,-962 -55,-1417 -121,-502 -288,-989 -495,-1456 -71,-160 -424,-962 -850,-1361z" style="fill:#f9491d"/>
  <path class="Head-Bear1fil514" d="M8588 15190c-1795,-839 -401,-4619 2531,-4993 1565,-200 1865,3361 977,4328 -924,1006 -2601,1090 -3508,665zm10132 0c1795,-839 401,-4619 -2532,-4993 -1564,-200 -1864,3361 -976,4328 924,1006 2600,1090 3508,665z" style="fill:#34911d"/>
 </g><g id="Mouth-Bear4">
 <animateTransform additive="sum" attributeName="transform" dur="10" repeatCount="indefinite" type="translate" values="0;0 200;0;0 200;0;0 200;0;0 200;0"/>
  <metadata id="CorelCorpID_279Corel-Layer"/>
  <path class="Mouth-Bear4fil22 Mouth-Bear4str0" d="M12420 15298c354,380 1208,220 1234,-572" style="fill:#e69e6a"/>
  <path class="Mouth-Bear4fil22 Mouth-Bear4str0" d="M14887 15298c-353,380 -1208,220 -1233,-572" style="fill:#af9dea"/>
  <path class="Mouth-Bear4fil100" d="M13666 14859c37,245 252,535 399,641 -123,-61 -307,-119 -411,-119 -104,0 -289,58 -411,119 146,-106 362,-396 399,-641l12 0 12 0z" style="fill:#56aa0e"/>
  <path class="Mouth-Bear4fil100" d="M13654 15320c-325,157 -777,194 -947,204 65,421 518,698 947,698 429,0 882,-277 946,-698 -169,-10 -621,-47 -946,-204z" style="fill:#d98bb1"/>
  <path class="Mouth-Bear4fil152" d="M12922 15550c37,107 134,186 233,222 66,-57 111,-161 122,-293 -101,53 -232,88 -355,71z" style="fill:#b58605"/>
  <path class="Mouth-Bear4fil152" d="M13227 15974c25,-56 66,-110 135,-139 67,33 115,157 112,225 -84,-5 -172,-36 -247,-86z" style="fill:#9a5577"/>
  <path class="Mouth-Bear4fil152" d="M14386 15550c-37,107 -135,186 -233,222 -67,-57 -111,-161 -122,-293 101,53 232,88 355,71z" style="fill:#3c0378"/>
  <path class="Mouth-Bear4fil152" d="M14081 15974c-26,-56 -66,-110 -136,-139 -67,33 -114,157 -112,225 85,-5 173,-36 248,-86z" style="fill:#c9fc44"/>
 </g><g id="Eyes-Bear10">
 <animateTransform additive="sum" attributeName="transform" dur="10" repeatCount="indefinite" type="translate" values="0;0 200;0;0 200;0;0 200;0;0 200;0"/>
  <metadata id="CorelCorpID_295Corel-Layer"/>
  <path class="Eyes-Bear10fil581" d="M8969 14635c836,620 2190,537 2791,-429 327,-525 224,-1194 -148,-1494 -696,-562 -1946,-1128 -2500,-745 -995,687 -924,2088 -143,2668z"/>
  <path class="Eyes-Bear10fil582" d="M11617 12716c-399,-321 -981,-646 -1510,-793 -269,25 -624,241 -783,411 -574,616 -522,1598 -3,2026 615,507 1442,366 1847,140 374,-209 760,-802 735,-1338 -55,-180 -153,-337 -286,-446z"/>
  <path class="Eyes-Bear10fil583" d="M10505 12121c-590,78 -1098,548 -1037,1219 61,671 674,941 1324,860 639,-80 986,-773 881,-1329 -238,-333 -963,-669 -1168,-750z"/>
  <circle class="Eyes-Bear10fil152" r="235" transform="matrix(0.718776 0.414712 -0.324061 0.689417 9357.01 14479.7)"/>
  <circle class="Eyes-Bear10fil152" r="235" transform="matrix(0.280208 0.277646 -0.232421 0.277685 9092.75 14187.1)"/>
  <path class="Eyes-Bear10fil155" d="M10512 11042c53,131 308,167 711,539 370,341 383,569 579,568 217,-2 315,-528 219,-788 -79,-213 -169,-371 -641,-550 -559,-210 -934,71 -868,231z"/>
  <path class="Eyes-Bear10fil14" d="M10512 11042c53,131 308,167 711,539 370,341 383,569 579,568 217,-2 315,-528 219,-788 -79,-213 -169,-371 -641,-550 -559,-210 -934,71 -868,231z"/>
  <path class="Eyes-Bear10fil155" d="M16796 11042c-54,131 -308,167 -711,539 -370,341 -384,569 -579,568 -217,-2 -315,-528 -219,-788 79,-213 169,-371 641,-550 559,-210 933,71 868,231z"/>
  <path class="Eyes-Bear10fil14" d="M16796 11042c-54,131 -308,167 -711,539 -370,341 -384,569 -579,568 -217,-2 -315,-528 -219,-788 79,-213 169,-371 641,-550 559,-210 933,71 868,231z"/>
  <path class="Eyes-Bear10fil157" d="M11640 14375c43,-53 83,-110 120,-169 327,-525 224,-1194 -148,-1494 -696,-562 -1946,-1128 -2500,-745 -395,272 -622,658 -703,1059 454,-555 1434,-681 1906,-559 845,220 1574,1073 1325,1908z"/>
  <path class="Eyes-Bear10fil22 Eyes-Bear10str4" d="M8969 14635c836,620 2190,537 2791,-429 327,-525 224,-1194 -148,-1494 -696,-562 -1946,-1128 -2500,-745 -995,687 -924,2088 -143,2668z"/>
  <circle class="Eyes-Bear10fil152" r="235" transform="matrix(-0.557102 2.02394 -1.89429 -0.353896 9456.02 12768.6)"/>
  <path class="Eyes-Bear10fil584" d="M18338 14635c-835,620 -2189,537 -2790,-429 -327,-525 -224,-1194 148,-1494 696,-562 1946,-1128 2500,-745 994,687 923,2088 142,2668z"/>
  <path class="Eyes-Bear10fil585" d="M15690 12716c400,-321 982,-646 1511,-793 268,25 624,241 783,411 573,616 522,1598 3,2026 -616,507 -1443,366 -1847,140 -374,-209 -760,-802 -736,-1338 56,-180 154,-337 286,-446z"/>
  <path class="Eyes-Bear10fil586" d="M16802 12121c591,78 1099,548 1038,1219 -61,671 -674,941 -1324,860 -639,-80 -986,-773 -881,-1329 238,-333 963,-669 1167,-750z"/>
  <circle class="Eyes-Bear10fil152" r="235" transform="matrix(-0.718776 0.414712 0.324061 0.689417 17950.6 14479.7)"/>
  <circle class="Eyes-Bear10fil152" r="235" transform="matrix(-0.280208 0.277646 0.232421 0.277685 18214.9 14187.1)"/>
  <path class="Eyes-Bear10fil157" d="M15668 14375c-43,-53 -83,-110 -120,-169 -327,-525 -224,-1194 148,-1494 696,-562 1946,-1128 2500,-745 395,272 621,658 703,1059 -454,-555 -1434,-681 -1906,-559 -846,220 -1574,1073 -1325,1908z"/>
  <path class="Eyes-Bear10fil22 Eyes-Bear10str4" d="M18338 14635c-835,620 -2189,537 -2790,-429 -327,-525 -224,-1194 148,-1494 696,-562 1946,-1128 2500,-745 994,687 923,2088 142,2668z"/>
  <circle class="Eyes-Bear10fil152" r="235" transform="matrix(0.557102 2.02394 1.89429 -0.353896 17851.6 12768.6)"/>
 </g><g id="Moustache-Bear4">
 <animateTransform additive="sum" attributeName="transform" dur="10" repeatCount="indefinite" type="translate" values="0;0 200;0;0 200;0;0 200;0;0 200;0"/>
  <metadata id="CorelCorpID_300Corel-Layer"/>
  <path class="Moustache-Bear4fil590" d="M13654 16618c-528,0 -907,142 -1413,160 -758,28 -1075,-940 -1060,-1519 -316,25 -1442,216 -1495,476 -121,602 86,998 590,1240 -81,449 415,1046 974,1076 94,563 536,863 1173,832 206,376 584,469 1231,469 647,0 1025,-93 1230,-469 637,31 1079,-269 1174,-832 559,-30 1054,-627 973,-1076 504,-242 711,-638 590,-1240 -52,-260 -1178,-451 -1494,-476 15,579 -302,1547 -1061,1519 -505,-18 -884,-160 -1412,-160z" style="fill:#a463ad"/>
  <path class="Moustache-Bear4fil14" d="M11588 16485c-291,-326 -417,-856 -407,-1226 -316,25 -1442,216 -1495,476 -121,602 86,998 590,1240 -81,449 415,1046 974,1076 94,563 536,863 1173,832 206,376 584,469 1231,469 647,0 1025,-93 1230,-469 637,31 1079,-269 1174,-832 559,-30 1054,-627 973,-1076 504,-242 711,-638 590,-1240 -52,-260 -1178,-451 -1494,-476 9,370 -117,900 -407,1226 365,-248 606,-45 746,174 248,385 -21,949 -596,1101 -225,515 -611,784 -1151,779 -173,188 -548,417 -1065,417 -517,0 -892,-229 -1065,-417 -541,5 -927,-264 -1151,-779 -576,-152 -844,-716 -597,-1101 141,-219 381,-422 747,-174z" style="fill:#4cf396"/>
  <path class="Moustache-Bear4fil32" d="M12316 16775c-424,57 -680,-63 -923,-479 -170,-293 -276,-639 -286,-934 -1,-7 -1,-14 -1,-21 -225,26 -643,98 -962,199 -209,67 -371,141 -385,210 -57,284 -37,518 55,707 92,189 258,337 495,450 31,15 47,48 41,81l0 0c-3,19 -6,38 -7,58 -10,186 80,394 229,567 151,175 360,312 586,352 31,6 63,10 96,12 35,1 64,28 70,62l0 0c43,259 165,457 348,587 189,133 444,197 748,183 30,-2 57,15 70,41 93,169 225,274 408,338 191,67 440,89 756,89 316,0 565,-22 756,-89 182,-64 314,-169 407,-338 13,-26 40,-43 71,-41 304,14 559,-50 747,-183 184,-130 306,-328 349,-587l0 0c6,-34 34,-61 70,-62 33,-2 64,-6 96,-12 225,-40 435,-177 585,-352 149,-173 240,-381 229,-567 -1,-20 -3,-39 -6,-58l0 0c-6,-33 10,-66 41,-81 236,-113 402,-261 494,-450 93,-189 112,-423 55,-707 -14,-69 -175,-143 -385,-210 -319,-101 -736,-173 -961,-199 0,7 -1,14 -1,21 -11,295 -116,641 -286,934 -243,416 -499,536 -923,479 204,-2 504,25 825,-525 158,-270 225,-619 235,-893 1,-34 1,-66 0,-97 -1,-41 32,-75 73,-76 3,0 5,0 8,0l0 0c196,16 700,95 1075,214 258,82 460,190 487,323 63,317 40,582 -67,802 -101,206 -293,355 -536,480 1,7 2,14 2,22 12,224 -92,473 -265,674 -172,199 -403,352 -664,399 -19,4 -37,6 -56,9 -58,272 -193,480 -395,624 -207,146 -478,214 -796,206 -111,182 -254,321 -459,392 -210,74 -474,98 -805,98 -331,0 -595,-24 -806,-98 -204,-71 -348,-210 -458,-392 -318,8 -590,-60 -796,-206 -202,-144 -337,-352 -396,-624 -18,-3 -37,-5 -55,-9 -261,-47 -493,-200 -664,-399 -173,-201 -278,-450 -265,-674 0,-8 1,-15 1,-22 -242,-125 -435,-274 -535,-480 -107,-220 -131,-485 -67,-802 27,-133 229,-241 486,-323 375,-119 880,-198 1076,-214l0 0c2,0 5,0 7,0 42,1 74,35 73,76 0,31 0,63 1,97 10,274 77,623 235,893 320,550 621,523 825,525z" style="fill:#44f022"/>
  <path class="Moustache-Bear4fil591" d="M12994 14243c-412,-373 -1311,-306 -1980,103 -757,463 -1679,736 -2797,768 -625,19 708,1334 1780,703 529,456 1405,-2 1668,-328 476,403 1725,-241 1804,-986 -258,20 -344,-54 -475,-260z" style="fill:#7bc09f"/>
  <path class="Moustache-Bear4fil14" d="M8059 15204c-60,289 1032,1146 1938,613 529,456 1405,-2 1668,-328 476,403 1725,-241 1804,-986 -92,7 -162,2 -221,-17 -327,604 -1078,1004 -1647,697 -262,327 -992,711 -1589,355 -685,403 -1633,6 -1953,-334z" style="fill:#0c4e27"/>
  <path class="Moustache-Bear4fil32" d="M12101 14001c-364,42 -842,249 -1067,387 -384,235 -792,423 -1263,555 -471,132 -987,230 -1552,246 -51,2 -77,11 -85,25 -13,26 8,77 55,143 58,82 154,173 276,258 368,257 966,448 1494,138 28,-17 63,-13 87,8l0 0c5,4 12,10 19,15 237,191 551,211 838,123 295,-90 556,-250 687,-402 4,-5 9,-11 14,-17 26,-32 73,-37 105,-11l2 1 0 0c308,246 866,17 971,-26 -132,150 -713,313 -1006,127 -154,161 -433,329 -734,421 -322,99 -668,96 -948,-117 -578,311 -1221,137 -1615,-138 -136,-95 -244,-199 -312,-294 -79,-111 -106,-217 -66,-296 32,-64 102,-104 214,-107 552,-16 1056,-83 1516,-212 457,-128 874,-292 1246,-520 129,-79 631,-322 1124,-307z" style="fill:#11f287"/>
  <path class="Moustache-Bear4fil592" d="M14313 14243c413,-373 1311,-306 1981,103 757,463 1679,736 2797,768 624,19 -708,1334 -1780,703 -529,456 -1406,-2 -1668,-328 -476,403 -1725,-241 -1805,-986 258,20 344,-54 475,-260z" style="fill:#150121"/>
  <path class="Moustache-Bear4fil14" d="M19248 15204c61,289 -1031,1146 -1937,613 -529,456 -1406,-2 -1668,-328 -476,403 -1725,-241 -1805,-986 93,7 163,2 221,-17 328,604 1078,1004 1648,697 262,327 992,711 1589,355 685,403 1633,6 1952,-334z" style="fill:#958e81"/>
  <path class="Moustache-Bear4fil32" d="M15206 14001c365,42 843,249 1068,387 384,235 791,423 1263,555 471,132 986,230 1552,246 50,2 77,11 84,25 13,26 -8,77 -54,143 -59,82 -154,173 -276,258 -368,257 -966,448 -1494,138 -29,-17 -64,-13 -87,8l0 0c-6,4 -12,10 -19,15 -237,191 -551,211 -839,123 -294,-90 -556,-250 -686,-402 -5,-5 -9,-11 -14,-17 -26,-32 -73,-37 -106,-11l-1 1 0 0c-309,246 -866,17 -972,-26 133,150 714,313 1007,127 153,161 432,329 733,421 323,99 669,96 949,-117 578,311 1220,137 1615,-138 136,-95 244,-199 312,-294 79,-111 106,-217 66,-296 -32,-64 -102,-104 -214,-107 -553,-16 -1057,-83 -1516,-212 -458,-128 -874,-292 -1247,-520 -128,-79 -630,-322 -1124,-307z" style="fill:#b7deb9"/>
 </g><g id="Nose-Bear0">
 <animateTransform additive="sum" attributeName="transform" dur="10" repeatCount="indefinite" type="translate" values="0;0 200;0;0 200;0;0 200;0;0 200;0"/>
  <metadata id="CorelCorpID_304Corel-Layer"/>
  <path class="Nose-Bear0fil598 Nose-Bear0str0" d="M13654 14109c-356,0 -852,135 -813,337 34,185 361,481 813,481 452,0 778,-296 813,-481 38,-202 -457,-337 -813,-337z" style="fill:#3cd270"/>
 </g><g id="Hair-Bear4">
 <animateTransform additive="sum" attributeName="transform" dur="10" repeatCount="indefinite" type="translate" values="0;0 200;0;0 200;0;0 200;0;0 200;0"/>
  <metadata id="CorelCorpID_309Corel-Layer"/>
  <path class="Hair-Bear4fil602" d="M10447 8248c356,-1787 1918,-2412 1680,-1356 1121,-1219 2340,-1162 1930,-347 1312,-747 2610,-348 1629,474 1519,-28 1208,1208 538,912 -1420,-593 -2893,-593 -4156,-287 -595,145 -1191,379 -1621,604z" style="fill:#25002c"/>
  <path class="Hair-Bear4fil32" d="M10538 8180c-2,8 -4,15 -5,24 -28,15 -60,31 -86,44 -40,-9 -64,-60 -55,-101 202,-898 705,-1497 1119,-1731 120,-67 234,-106 335,-113 111,-8 206,21 274,89 65,64 104,160 106,290 500,-491 1008,-741 1377,-794 142,-21 266,-12 364,24 108,38 185,108 222,207 28,74 32,164 7,267 563,-279 1109,-356 1463,-287 136,26 247,75 323,142 85,74 129,169 122,282 -7,124 -79,267 -231,424 405,23 665,143 814,294 80,80 129,170 151,259 23,91 18,181 -9,262 -42,126 -137,227 -268,269 -40,12 -189,-41 -242,-67 160,5 307,-65 368,-249 19,-54 21,-116 6,-179 -17,-65 -53,-130 -112,-191 -146,-147 -425,-259 -889,-251 -24,1 -47,-8 -64,-27 -26,-32 -22,-79 10,-106 213,-178 310,-330 317,-447 3,-63 -22,-117 -71,-160 -57,-50 -143,-86 -253,-108 -362,-71 -946,27 -1536,363 -21,13 -48,14 -72,2 -37,-18 -52,-63 -33,-100 73,-146 89,-260 59,-339 -21,-56 -67,-96 -132,-120 -75,-27 -175,-33 -293,-16 -378,54 -919,338 -1442,906l0 0c-18,19 -44,29 -71,22 -41,-9 -66,-49 -57,-89 43,-192 23,-316 -38,-376 -37,-36 -92,-51 -160,-46 -78,5 -171,37 -272,94 -385,217 -854,782 -1046,1633z" style="fill:#3f124e"/>
 </g></svg>