<svg xmlns="http://www.w3.org/2000/svg" xmlns:xlink="http://www.w3.org/1999/xlink" style="shape-rendering:geometricPrecision; text-rendering:geometricPrecision; image-rendering:optimizeQuality; fill-rule:evenodd; clip-rule:evenodd" version="1.1" viewBox="0 0 29000 29000" xml:space="preserve"><defs><style type="text/css">.HairBack-Bear2fil14 {fill:black;fill-opacity:0.200000}
.HairBack-Bear2fil431 {fill:url(#HairBack-Bear2id274)}
.HairBack-Bear2str0 {stroke:black;stroke-width:150;stroke-linecap:round;stroke-linejoin:round}
.Tail-Bear0fil22 {fill:none}
.RightFoot-Bear0fil35 {fill:#d8d9bd}
.RightFoot-Bear0fil14 {fill:black;fill-opacity:0.200000}
.RightFoot-Bear0fil32 {fill:black;fill-rule:nonzero}
.RightLeg-Bear0fil437 {fill:url(#RightLeg-Bear0id151)}
.RightLeg-Bear0fil14 {fill:black;fill-opacity:0.200000}
.RightLeg-Bear0fil32 {fill:black;fill-rule:nonzero}
.LeftFoot-Bear0fil35 {fill:#d8d9bd}
.LeftFoot-Bear0fil14 {fill:black;fill-opacity:0.200000}
.LeftFoot-Bear0fil32 {fill:black;fill-rule:nonzero}
.LeftLeg-Bear0fil447 {fill:url(#LeftLeg-Bear0id520)}
.LeftLeg-Bear0fil14 {fill:black;fill-opacity:0.200000}
.LeftLeg-Bear0fil32 {fill:black;fill-rule:nonzero}
.RightHand-Bear0fil452 {fill:url(#RightHand-Bear0id388)}
.RightHand-Bear0fil14 {fill:black;fill-opacity:0.200000}
.RightHand-Bear0fil22 {fill:none}
.RightHand-Bear0str0 {stroke:black;stroke-width:150;stroke-linecap:round;stroke-linejoin:round}
.RightPaw-Bear0fil457 {fill:#bdbf8a}
.RightPaw-Bear0fil32 {fill:black;fill-rule:nonzero}
.RightPaw-Bear0fil458 {fill:#A16A6A}
.LeftHand-Bear0fil465 {fill:url(#LeftHand-Bear0id386)}
.LeftHand-Bear0fil14 {fill:black;fill-opacity:0.200000}
.LeftHand-Bear0fil22 {fill:none}
.LeftHand-Bear0str0 {stroke:black;stroke-width:150;stroke-linecap:round;stroke-linejoin:round}
.Body-Bear0fil476 {fill:url(#Body-Bear0id267)}
.Body-Bear0fil14 {fill:black;fill-opacity:0.200000}
.Body-Bear0fil32 {fill:black;fill-rule:nonzero}
.Body-Bear0fil22 {fill:none}
.Body-Bear0fil477 {fill:url(#Body-Bear0id310)}
.Head-Bear1fil513 {fill:url(#Head-Bear1id272)}
.Head-Bear1fil14 {fill:black;fill-opacity:0.200000}
.Head-Bear1fil32 {fill:black;fill-rule:nonzero}
.Head-Bear1fil514 {fill:url(#Head-Bear1id269)}
.Mouth-Bear0fil22 {fill:none}
.Mouth-Bear0str0 {stroke:black;stroke-width:150;stroke-linecap:round;stroke-linejoin:round}
.Mouth-Bear0fil100 {fill:black}
.Eyes-Bear4fil546 {fill:url(#Eyes-Bear4id878)}
.Eyes-Bear4fil547 {fill:url(#Eyes-Bear4id941)}
.Eyes-Bear4fil548 {fill:url(#Eyes-Bear4id819)}
.Eyes-Bear4fil152 {fill:white}
.Eyes-Bear4fil157 {fill:black;fill-opacity:0.501961}
.Eyes-Bear4fil549 {fill:url(#Eyes-Bear4id1012)}
.Eyes-Bear4fil550 {fill:url(#Eyes-Bear4id942)}
.Eyes-Bear4fil551 {fill:url(#Eyes-Bear4id820)}
.Eyes-Bear4fil14 {fill:black;fill-opacity:0.200000}
.Eyes-Bear4fil155 {fill:#c5cedd}
.Eyes-Bear4fil22 {fill:none}
.Eyes-Bear4str4 {stroke:black;stroke-width:150}
.Moustache-Bear0fil22 {fill:none}
.Nose-Bear0fil598 {fill:url(#Nose-Bear0id451)}
.Nose-Bear0str0 {stroke:black;stroke-width:150;stroke-linecap:round;stroke-linejoin:round}
.BraceletLeather-Bigfil43new {fill:white;fill-opacity:0.200000}
.BraceletLeather-Bigfil46new {fill:white;fill-rule:nonzero;fill-opacity:0.200000}
.BraceletLeather-Bigfil51new {fill:url(#BraceletLeather-Bigid222new)}
.BraceletLeather-Bigstr3new {stroke:black;stroke-width:100;stroke-linecap:round;stroke-linejoin:round}
.BraceletLeather-Bigfil33new {fill:none}
.BraceletLeather-Bigfil52new {fill:url(#BraceletLeather-Bigid38new)}
.BraceletLeather-Bigfil53new {fill:url(#BraceletLeather-Bigid698new);fill-rule:nonzero}
.BraceletLeather-Bigstr4new {stroke:black;stroke-width:100}
.BraceletLeather-Bigfil47new {fill:none;fill-rule:nonzero}
.BraceletLeather-Bigfil54new {fill:url(#BraceletLeather-Bigid16new)}
.BraceletLeather-Bigfil55new {fill:url(#BraceletLeather-Bigid206new)}
.BraceletLeather-Bigfil56new {fill:url(#BraceletLeather-Bigid691new);fill-rule:nonzero}
.NecklaceChainfil224new {fill:url(#NecklaceChainid673new);fill-rule:nonzero}
.NecklaceChainfil223new {fill:black;fill-rule:nonzero}
.NecklaceChainstr0new {stroke:black;stroke-width:150;stroke-linecap:round;stroke-linejoin:round}
.HatBaseballOrange-Bigfil12 {fill:black;fill-opacity:0.200000}
.HatBaseballOrange-Bigfil325 {fill:url(#HatBaseballOrange-Bigid259)}
.HatBaseballOrange-Bigfil167 {fill:black;fill-opacity:0.301961}
.HatBaseballOrange-Bigfil260 {fill:white;fill-opacity:0.101961}
.HatBaseballOrange-Bigfil324 {fill:url(#HatBaseballOrange-Bigid205)}
.HatBaseballOrange-Bigstr1 {stroke:black;stroke-width:150;stroke-linecap:round;stroke-linejoin:round}
.HatBaseballOrange-Bigfil165 {fill:none}
.HatBaseballOrange-Bigstr6 {stroke:white;stroke-width:75;stroke-linecap:round;stroke-linejoin:round;stroke-dasharray:150.000000 225.000000;stroke-opacity:0.200000}
.HatBaseballOrange-Bigstr7 {stroke:white;stroke-width:100;stroke-opacity:0.200000}
.HatBaseballOrange-Bigfil11 {fill:none}
.HatBaseballOrange-Bigfil326 {fill:url(#HatBaseballOrange-Bigid222)}
.WeaponFlySwatterBack-Bigfil1 {fill:black;fill-rule:nonzero;fill-opacity:0.200000}
.WeaponFlySwatterBack-Bigfil6 {fill:url(#WeaponFlySwatterBack-Bigid29);fill-rule:nonzero}
.WeaponFlySwatterBack-Bigstr0 {stroke:black;stroke-width:150;stroke-linecap:round;stroke-linejoin:round}
.WeaponFlySwatter-Bigfil3 {fill:black;fill-opacity:0.200000}
.WeaponFlySwatter-Bigfil8 {fill:url(#WeaponFlySwatter-Bigid27);fill-rule:nonzero}
.WeaponFlySwatter-Bigfil1 {fill:black;fill-rule:nonzero;fill-opacity:0.200000}
.WeaponFlySwatter-Bigfil7 {fill:url(#WeaponFlySwatter-Bigid12)}
.WeaponFlySwatter-Bigstr0 {stroke:black;stroke-width:150;stroke-linecap:round;stroke-linejoin:round}
.WeaponFlySwatter-Bigfil5 {fill:none;fill-rule:nonzero}
.WeaponFlySwatter-Bigstr1 {stroke:black;stroke-width:150}
.LeftPawWeapon-Bear4fil0 {fill:#bdbf8a}
.LeftPawWeapon-Bear4fil1 {fill:black;fill-rule:nonzero}
.LeftPawWeapon-Bear4fil4 {fill:url(#LeftPawWeapon-Bear4id4)}
.LeftPawWeapon-Bear4str0 {stroke:black;stroke-width:120;stroke-linecap:round;stroke-linejoin:round}
.LeftPawWeapon-Bear4fil5 {fill:url(#LeftPawWeapon-Bear4id3)}
.LeftPawWeapon-Bear4fil6 {fill:url(#LeftPawWeapon-Bear4id2)}
</style><linearGradient gradientUnits="userSpaceOnUse" id="HairBack-Bear2id274" x1="15066" x2="15066" xlink:href="#HairBack-Bear2id1" y1="24545.6" y2="14683">
  </linearGradient><linearGradient gradientUnits="objectBoundingBox" id="RightLeg-Bear0id151" x1="50%" x2="50%" xlink:href="#RightLeg-Bear0id150" y1="100%" y2="0%">
  </linearGradient><linearGradient gradientUnits="objectBoundingBox" id="LeftLeg-Bear0id520" x1="50%" x2="50%" xlink:href="#LeftLeg-Bear0id150" y1="100%" y2="0%">
  </linearGradient><linearGradient gradientUnits="objectBoundingBox" id="RightHand-Bear0id388" x1="36.9963%" x2="63.0034%" xlink:href="#RightHand-Bear0id75" y1="2.66464%" y2="97.3354%">
  </linearGradient><linearGradient gradientUnits="objectBoundingBox" id="LeftHand-Bear0id386" x1="63.0037%" x2="36.9966%" xlink:href="#LeftHand-Bear0id75" y1="2.66464%" y2="97.3354%">
  </linearGradient><linearGradient gradientUnits="objectBoundingBox" id="Body-Bear0id267" x1="50%" x2="50%" xlink:href="#Body-Bear0id266" y1="0%" y2="100%">
  </linearGradient><linearGradient gradientUnits="userSpaceOnUse" id="Body-Bear0id310" x1="13653.8" x2="13653.8" y1="17946" y2="23169.7">
   <stop offset="0" style="stop-opacity:1; stop-color:#e0d9af"/>
   <stop offset="0.478431" style="stop-opacity:1; stop-color:#ede7c5"/>
   <stop offset="1" style="stop-opacity:1; stop-color:#ede7c5"/>
  </linearGradient><linearGradient gradientUnits="userSpaceOnUse" id="Head-Bear1id272" x1="13653.8" x2="13653.8" y1="17643.8" y2="7273.2">
   <stop offset="0" style="stop-opacity:1; stop-color:#e0d9af"/>
   <stop offset="0.580392" style="stop-opacity:1; stop-color:#ede7c5"/>
   <stop offset="1" style="stop-opacity:1; stop-color:#ede7c5"/>
  </linearGradient><linearGradient gradientUnits="userSpaceOnUse" id="Head-Bear1id269" x1="13653.8" x2="13653.8" xlink:href="#Head-Bear1id74" y1="15431.8" y2="10188.8">
  </linearGradient><linearGradient gradientUnits="userSpaceOnUse" id="Eyes-Bear4id878" x1="10420.7" x2="9701.8" xlink:href="#Eyes-Bear4id27" y1="14655.4" y2="11537.7">
  </linearGradient><linearGradient gradientUnits="userSpaceOnUse" id="Eyes-Bear4id941" x1="8807.8" x2="11648" xlink:href="#Eyes-Bear4id57" y1="12994.7" y2="12994.7">
  </linearGradient><linearGradient gradientUnits="userSpaceOnUse" id="Eyes-Bear4id819" x1="10223.5" x2="10438.8" xlink:href="#Eyes-Bear4id384" y1="11487" y2="14202">
  </linearGradient><linearGradient gradientUnits="userSpaceOnUse" id="Eyes-Bear4id1012" x1="16886.9" x2="17605.9" xlink:href="#Eyes-Bear4id27" y1="14655.4" y2="11537.7">
  </linearGradient><linearGradient gradientUnits="userSpaceOnUse" id="Eyes-Bear4id942" x1="18499.9" x2="15659.6" xlink:href="#Eyes-Bear4id57" y1="12994.7" y2="12994.7">
  </linearGradient><linearGradient gradientUnits="userSpaceOnUse" id="Eyes-Bear4id820" x1="17084.2" x2="16868.9" xlink:href="#Eyes-Bear4id384" y1="11487" y2="14202">
  </linearGradient><linearGradient gradientUnits="userSpaceOnUse" id="Nose-Bear0id451" x1="13653.8" x2="13653.8" y1="14108.6" y2="14926.9">
   <stop offset="0" style="stop-opacity:1; stop-color:#FFCCCC"/>
   <stop offset="1" style="stop-opacity:1; stop-color:#453F2C"/>
  </linearGradient><linearGradient gradientUnits="userSpaceOnUse" id="BraceletLeather-Bigid222new" x1="8086.3" x2="7982.38" xlink:href="#BraceletLeather-Bigid14new" y1="19659.1" y2="18801.5">
  </linearGradient><linearGradient gradientUnits="userSpaceOnUse" id="BraceletLeather-Bigid38new" x1="7999.57" x2="7492.63" xlink:href="#BraceletLeather-Bigid14new" y1="19911.5" y2="19246.5">
  </linearGradient><linearGradient gradientUnits="userSpaceOnUse" id="BraceletLeather-Bigid698new" x1="8077.58" x2="10215.1" xlink:href="#BraceletLeather-Bigid691new" y1="19870.6" y2="20648.6">
  </linearGradient><linearGradient gradientUnits="userSpaceOnUse" id="BraceletLeather-Bigid16new" x1="19221.4" x2="19325.3" xlink:href="#BraceletLeather-Bigid14new" y1="19659.1" y2="18801.5">
  </linearGradient><linearGradient gradientUnits="userSpaceOnUse" id="BraceletLeather-Bigid206new" x1="19308.1" x2="19815" xlink:href="#BraceletLeather-Bigid14new" y1="19911.5" y2="19246.5">
  </linearGradient><linearGradient gradientUnits="userSpaceOnUse" id="NecklaceChainid673new" x1="13044.2" x2="14365.2" y1="20556.7" y2="16663.2">
   <stop offset="0" style="stop-opacity:1; stop-color:#CC9933"/>
   <stop offset="0.109804" style="stop-opacity:1; stop-color:#FFF98F"/>
   <stop offset="0.25098" style="stop-opacity:1; stop-color:#FFFFFC"/>
   <stop offset="0.478431" style="stop-opacity:1; stop-color:#FFF982"/>
   <stop offset="0.811765" style="stop-opacity:1; stop-color:#643200"/>
   <stop offset="1" style="stop-opacity:1; stop-color:#CC9933"/>
  </linearGradient><linearGradient gradientUnits="userSpaceOnUse" id="HatBaseballOrange-Bigid259" x1="7772.37" x2="19532.9" xlink:href="#HatBaseballOrange-Bigid222" y1="10033.9" y2="7473.47">
  </linearGradient><linearGradient gradientUnits="userSpaceOnUse" id="HatBaseballOrange-Bigid205" x1="12754.7" x2="14201.6" xlink:href="#HatBaseballOrange-Bigid147" y1="5126.55" y2="5046.13">
  </linearGradient><linearGradient gradientUnits="userSpaceOnUse" id="WeaponFlySwatterBack-Bigid29" x1="8060.45" x2="9546.52" xlink:href="#WeaponFlySwatterBack-Bigid24" y1="21972" y2="20410.3">
  </linearGradient><linearGradient gradientUnits="userSpaceOnUse" id="WeaponFlySwatter-Bigid27" x1="12629.4" x2="15270.4" xlink:href="#WeaponFlySwatter-Bigid24" y1="25496.8" y2="22721.5">
  </linearGradient><linearGradient gradientUnits="userSpaceOnUse" id="WeaponFlySwatter-Bigid12" x1="9831.51" x2="12472" xlink:href="#WeaponFlySwatter-Bigid0" y1="22611.9" y2="22471.5">
  </linearGradient><linearGradient gradientUnits="userSpaceOnUse" id="LeftPawWeapon-Bear4id4" x1="9291.61" x2="9745.29" xlink:href="#LeftPawWeapon-Bear4id2" y1="21737.2" y2="22291.2">
  </linearGradient><linearGradient gradientUnits="userSpaceOnUse" id="LeftPawWeapon-Bear4id3" x1="8756.72" x2="9051.56" xlink:href="#LeftPawWeapon-Bear4id2" y1="21885.6" y2="22429.5">
  </linearGradient><linearGradient gradientUnits="userSpaceOnUse" id="HairBack-Bear2id1" x1="19686.9" x2="19686.9" y1="18541.7" y2="13821.1">
   <stop offset="0" style="stop-opacity:1; stop-color:#fffffd"/>
   <stop offset="0.180392" style="stop-opacity:1; stop-color:#fffffd"/>
   <stop offset="1" style="stop-opacity:1; stop-color:#e6e6cc"/>
  </linearGradient><linearGradient gradientUnits="userSpaceOnUse" id="RightLeg-Bear0id150" x1="15526.7" x2="15526.7" y1="24311.8" y2="20742.8">
   <stop offset="0" style="stop-opacity:1; stop-color:#d8d9bd"/>
   <stop offset="0.278431" style="stop-opacity:1; stop-color:#d8d9bd"/>
   <stop offset="1" style="stop-opacity:1; stop-color:#bdbf8a"/>
  </linearGradient><linearGradient gradientUnits="userSpaceOnUse" id="LeftLeg-Bear0id150" x1="15526.7" x2="15526.7" y1="24311.8" y2="20742.8">
   <stop offset="0" style="stop-opacity:1; stop-color:#d8d9bd"/>
   <stop offset="0.278431" style="stop-opacity:1; stop-color:#d8d9bd"/>
   <stop offset="1" style="stop-opacity:1; stop-color:#bdbf8a"/>
  </linearGradient><linearGradient gradientUnits="userSpaceOnUse" id="RightHand-Bear0id75" x1="17042.3" x2="17994.1" y1="17293.3" y2="21110.7">
   <stop offset="0" style="stop-opacity:1; stop-color:#979967"/>
   <stop offset="0.0784314" style="stop-opacity:1; stop-color:#979967"/>
   <stop offset="0.768627" style="stop-opacity:1; stop-color:#bdbf8a"/>
   <stop offset="1" style="stop-opacity:1; stop-color:#bdbf8a"/>
  </linearGradient><linearGradient gradientUnits="userSpaceOnUse" id="LeftHand-Bear0id75" x1="17042.3" x2="17994.1" y1="17293.3" y2="21110.7">
   <stop offset="0" style="stop-opacity:1; stop-color:#979967"/>
   <stop offset="0.0784314" style="stop-opacity:1; stop-color:#979967"/>
   <stop offset="0.768627" style="stop-opacity:1; stop-color:#bdbf8a"/>
   <stop offset="1" style="stop-opacity:1; stop-color:#bdbf8a"/>
  </linearGradient><linearGradient gradientUnits="userSpaceOnUse" id="Body-Bear0id266" x1="13653.8" x2="13653.8" y1="17442" y2="23250.9">
   <stop offset="0" style="stop-opacity:1; stop-color:#979967"/>
   <stop offset="0.0588235" style="stop-opacity:1; stop-color:#979967"/>
   <stop offset="0.529412" style="stop-opacity:1; stop-color:#bdbf8a"/>
   <stop offset="1" style="stop-opacity:1; stop-color:#d8d9bd"/>
  </linearGradient><linearGradient gradientUnits="userSpaceOnUse" id="Head-Bear1id74" x1="15961" x2="18418.2" y1="23174.1" y2="17871.9">
   <stop offset="0" style="stop-opacity:1; stop-color:#979967"/>
   <stop offset="1" style="stop-opacity:1; stop-color:#bdbf8a"/>
  </linearGradient><linearGradient gradientUnits="userSpaceOnUse" id="Eyes-Bear4id27" x1="16937.6" x2="16937.6" y1="14961.3" y2="11448.6">
   <stop offset="0" style="stop-opacity:1; stop-color:#006913"/>
   <stop offset="1" style="stop-opacity:1; stop-color:black"/>
  </linearGradient><linearGradient gradientUnits="objectBoundingBox" id="Eyes-Bear4id57" x1="100%" x2="0%" y1="50.0003%" y2="50.0003%">
   <stop offset="0" style="stop-opacity:1; stop-color:#006913"/>
   <stop offset="0.501961" style="stop-opacity:1; stop-color:#00e82b"/>
   <stop offset="1" style="stop-opacity:1; stop-color:#006913"/>
  </linearGradient><linearGradient gradientUnits="userSpaceOnUse" id="Eyes-Bear4id384" x1="16417.8" x2="16417.8" y1="11784.3" y2="14068.5">
   <stop offset="0" style="stop-opacity:1; stop-color:black"/>
   <stop offset="0.45" style="stop-opacity:1; stop-color:black"/>
   <stop offset="1" style="stop-opacity:1; stop-color:#004f0e"/>
  </linearGradient><linearGradient gradientUnits="userSpaceOnUse" id="BraceletLeather-Bigid14new" x1="8682.96" x2="8745.92" y1="19682.8" y2="19053.1">
   <stop offset="0" style="stop-opacity:1; stop-color:#683501"/>
   <stop offset="1" style="stop-opacity:1; stop-color:#B08227"/>
  </linearGradient><linearGradient gradientUnits="userSpaceOnUse" id="BraceletLeather-Bigid691new" x1="19230.1" x2="17092.5" y1="19870.6" y2="20648.6">
   <stop offset="0" style="stop-opacity:1; stop-color:#643300"/>
   <stop offset="0.321569" style="stop-opacity:1; stop-color:#B5872A"/>
   <stop offset="1" style="stop-opacity:1; stop-color:#643200"/>
  </linearGradient><linearGradient gradientUnits="userSpaceOnUse" id="HatBaseballOrange-Bigid222" x1="7866.29" x2="19463.6" y1="12137.3" y2="10981.8">
   <stop offset="0" style="stop-opacity:1; stop-color:#704811"/>
   <stop offset="0.301961" style="stop-opacity:1; stop-color:#A16410"/>
   <stop offset="0.709804" style="stop-opacity:1; stop-color:#E08E31"/>
   <stop offset="1" style="stop-opacity:1; stop-color:#AB7120"/>
  </linearGradient><linearGradient gradientUnits="userSpaceOnUse" id="HatBaseballOrange-Bigid147" x1="12797.5" x2="14175.5" y1="5819.27" y2="5742.69">
   <stop offset="0" style="stop-opacity:1; stop-color:#815211"/>
   <stop offset="0.588235" style="stop-opacity:1; stop-color:#DF8E31"/>
   <stop offset="1" style="stop-opacity:1; stop-color:#BB7A25"/>
  </linearGradient><linearGradient gradientUnits="userSpaceOnUse" id="WeaponFlySwatterBack-Bigid24" x1="12160.4" x2="14712.1" y1="25216.2" y2="22534.8">
   <stop offset="0" style="stop-opacity:1; stop-color:#008011"/>
   <stop offset="1" style="stop-opacity:1; stop-color:#00BD55"/>
  </linearGradient><linearGradient gradientUnits="userSpaceOnUse" id="WeaponFlySwatter-Bigid24" x1="12160.4" x2="14712.1" y1="25216.2" y2="22534.8">
   <stop offset="0" style="stop-opacity:1; stop-color:#008011"/>
   <stop offset="1" style="stop-opacity:1; stop-color:#00BD55"/>
  </linearGradient><linearGradient gradientUnits="userSpaceOnUse" id="WeaponFlySwatter-Bigid0" x1="9457.05" x2="12008.3" y1="22428.9" y2="22293.2">
   <stop offset="0" style="stop-opacity:1; stop-color:#787878"/>
   <stop offset="1" style="stop-opacity:1; stop-color:#D6D6D6"/>
  </linearGradient><linearGradient gradientUnits="userSpaceOnUse" id="LeftPawWeapon-Bear4id2" x1="8252.48" x2="8396.62" y1="21721.4" y2="22238">
   <stop offset="0" style="stop-opacity:1; stop-color:#F2C977"/>
   <stop offset="1" style="stop-opacity:1; stop-color:white"/>
  </linearGradient></defs><g id="HairBack-Bear2">
 <animateTransform additive="sum" attributeName="transform" dur="10" repeatCount="indefinite" type="translate" values="0;0 200;0;0 200;0;0 200;0;0 200;0"/>
  <metadata id="CorelCorpID_218Corel-Layer"/>
  <path class="HairBack-Bear2fil431 HairBack-Bear2str0" d="M8677 15254c345,1454 -849,1645 -113,3059 889,1708 -359,3310 1061,4611 1109,1017 2319,505 3198,984 1391,757 1726,-695 2937,371 763,673 1643,-207 2668,139 1296,437 1974,-348 2606,-840 977,-759 1077,-2360 56,-2890 359,638 -157,1459 -1295,1271 -707,-118 -1279,-1038 -1263,-1612 31,-1125 793,-1056 207,-2449 -390,-925 240,-2359 1050,-3214 -362,-19 -13775,301 -11112,570z" style="fill:#9f465d"/>
  <path class="HairBack-Bear2fil14" d="M11864 23667c346,33 670,84 959,241 1391,757 1726,-695 2937,371 763,673 1643,-207 2668,139 1296,437 1974,-348 2606,-840 429,-333 689,-829 759,-1325 -1214,2816 -5198,950 -4191,-931 1694,-3163 -742,-3425 278,-5658 -2831,145 -5662,289 -8493,433 937,1617 -946,2560 703,5428 464,807 1130,1465 1774,2142z" style="fill:#7c7309"/>
 </g><g id="Tail-Bear0">
  <metadata id="CorelCorpID_219Corel-Layer"/>
  <rect class="Tail-Bear0fil22" height="1129" width="1129" x="13089" y="21055"/>
 </g><g id="RightFoot-Bear0">
  <metadata id="CorelCorpID_220Corel-Layer"/>
  <path class="RightFoot-Bear0fil35" d="M17045 25080c-66,213 -260,328 -578,232 -82,82 -466,170 -720,2 -241,-159 -607,-457 -720,-564 -96,-91 -335,-220 -291,-565 777,87 1299,173 1927,-306 18,146 320,205 479,267 233,89 426,392 211,604 42,135 -122,330 -308,330z" style="fill:#c918f4"/>
  <path class="RightFoot-Bear0fil14" d="M16490 25327c320,133 480,-45 565,-254 204,-15 307,-138 301,-308 28,-45 52,-79 86,-174 31,-139 -54,-325 -125,-351 31,144 -137,125 -191,129 232,292 -30,451 -178,321 -4,299 -321,400 -555,107 -111,282 -514,451 -1612,-364 1095,1261 1346,941 1709,894z" style="fill:#cec4b0"/>
  <path class="RightFoot-Bear0fil32" d="M16963 25089c-68,167 -221,202 -384,173 53,-171 15,-486 -309,-550 160,131 191,345 122,563 -153,91 -454,76 -604,-23 -105,-69 -235,-166 -357,-262 -142,-112 -270,-229 -408,-342 -98,-80 -205,-212 -213,-454 5,-41 -24,-78 -65,-83 -41,-5 -84,23 -83,65 7,344 143,486 266,587 138,114 267,232 411,345 124,97 257,197 366,269 205,135 567,145 776,17 252,66 509,18 618,-243 169,-27 352,-197 334,-378 149,-177 94,-405 -60,-562 -136,-138 -294,-154 -454,-250 -66,-40 -120,-83 -125,-121l-137 73c20,64 119,137 185,176 138,83 316,117 424,227 53,54 98,127 105,203 -87,-137 -253,-261 -447,-225 213,57 340,284 356,532 -17,67 -81,130 -143,158 -9,-180 -141,-449 -459,-414 197,78 290,282 285,519z" style="fill:#f166d7"/>
 </g><g id="LeftFoot-Bear0">
  <metadata id="CorelCorpID_229Corel-Layer"/>
  <path class="LeftFoot-Bear0fil35" d="M10263 25080c66,213 260,328 578,232 82,82 466,170 720,2 241,-159 607,-457 719,-564 96,-91 336,-220 292,-565 -777,87 -1299,173 -1927,-306 -19,146 -321,205 -479,267 -233,89 -427,392 -211,604 -42,135 121,330 308,330z" style="fill:#8cf769"/>
  <path class="LeftFoot-Bear0fil14" d="M10817 25327c-320,133 -479,-45 -565,-254 -203,-15 -307,-138 -301,-308 -27,-45 -52,-79 -85,-174 -32,-139 54,-325 124,-351 -30,144 137,125 192,129 -233,292 29,451 178,321 4,299 321,400 554,107 112,282 515,451 1613,-364 -1095,1261 -1346,941 -1710,894z" style="fill:#ad2d64"/>
  <path class="LeftFoot-Bear0fil32" d="M10345 25089c68,167 220,202 384,173 -54,-171 -16,-486 309,-550 -160,131 -191,345 -122,563 153,91 454,76 604,-23 104,-69 234,-166 356,-262 143,-112 271,-229 409,-342 97,-80 205,-212 213,-454 -5,-41 24,-78 65,-83 41,-5 84,23 83,65 -7,344 -143,486 -266,587 -139,114 -268,232 -411,345 -124,97 -258,197 -367,269 -205,135 -567,145 -776,17 -251,66 -509,18 -617,-243 -169,-27 -352,-197 -335,-378 -149,-177 -93,-405 61,-562 136,-138 294,-154 454,-250 66,-40 120,-83 125,-121l137 73c-20,64 -120,137 -185,176 -139,83 -316,117 -425,227 -53,54 -97,127 -104,203 86,-137 252,-261 447,-225 -213,57 -341,284 -357,532 18,67 82,130 144,158 8,-180 141,-449 459,-414 -197,78 -291,282 -285,519z" style="fill:#6bd84d"/>
 </g><g id="RightLeg-Bear0">
  <metadata id="CorelCorpID_224Corel-Layer"/>
  <path class="RightLeg-Bear0fil437" d="M13654 20747c651,0 2263,-52 2620,230 303,239 971,977 969,1838 -2,444 -257,819 -524,1020 -578,425 -1151,626 -1983,350 7,-583 -643,-742 -1082,-749l0 -2689z" style="fill:#4f091c"/>
  <path class="RightLeg-Bear0fil14" d="M16988 23561c110,-131 245,-442 245,-600 2,-776 -323,-1481 -652,-1782 -248,370 -56,940 55,979 367,105 445,994 352,1403z" style="fill:#bf78d6"/>
  <path class="RightLeg-Bear0fil32" d="M16690 23782c-238,187 -417,303 -711,449 260,-35 573,-178 785,-337 332,-249 552,-662 553,-1079 1,-360 -110,-698 -263,-990 -227,-429 -547,-760 -734,-907 -32,-26 -79,-20 -105,12 -25,33 -20,80 13,105 175,139 478,451 693,860 144,273 248,587 247,920 -1,358 -198,746 -478,967zm-1745 794c71,68 -33,176 -104,108 -135,-130 -182,-317 -180,-500 3,-218 -99,-369 -246,-471 -213,-147 -519,-198 -761,-203l0 -149 1 0c265,5 604,62 845,229 186,129 314,320 310,596 -1,139 31,290 135,390z" style="fill:#b25a71"/>
 </g><g id="LeftLeg-Bear0">
  <metadata id="CorelCorpID_233Corel-Layer"/>
  <path class="LeftLeg-Bear0fil447" d="M13654 20747c-651,0 -2264,-52 -2620,230 -303,239 -971,977 -969,1838 1,444 256,819 524,1020 578,425 1150,626 1983,350 -7,-583 642,-742 1082,-749l0 -2689z" style="fill:#a7ea93"/>
  <path class="LeftLeg-Bear0fil14" d="M10320 23561c-110,-131 -245,-442 -245,-600 -3,-776 323,-1481 652,-1782 248,370 56,940 -56,979 -366,105 -444,994 -351,1403z" style="fill:#559a21"/>
  <path class="LeftLeg-Bear0fil32" d="M10618 23782c238,187 417,303 711,449 -260,-35 -573,-178 -785,-337 -332,-249 -552,-662 -554,-1079 -1,-360 110,-698 264,-990 226,-429 547,-760 734,-907 32,-26 79,-20 104,12 26,33 20,80 -12,105 -175,139 -478,451 -694,860 -143,273 -247,587 -246,920 1,358 198,746 478,967zm1745 794c-71,68 32,176 103,108 135,-130 183,-317 181,-500 -3,-218 98,-369 246,-471 212,-147 519,-198 761,-203l0 -149 -1 0c-265,5 -604,62 -845,229 -186,129 -314,320 -311,596 2,139 -31,290 -134,390z" style="fill:#1cd94d"/>
 </g><g id="RightHand-Bear0">
 <animateTransform additive="sum" attributeName="transform" dur="10" repeatCount="indefinite" type="translate" values="0;0 200;0;0 200;0;0 200;0;0 200;0"/>
  <metadata id="CorelCorpID_238Corel-Layer"/>
  <path class="RightHand-Bear0fil452" d="M16111 17210c1487,-179 2823,1880 3151,3021 160,558 -1806,1220 -1964,882 -68,-147 -295,-477 -571,-705 -149,-820 -321,-1468 -1092,-3106 169,-47 290,-69 476,-92z" style="fill:#d641fa"/>
  <path class="RightHand-Bear0fil22 RightHand-Bear0str0" d="M16111 17205c1487,-179 2823,1880 3151,3021 160,558 -1806,1220 -1964,882 -68,-147 -295,-477 -571,-705 -149,-820 -321,-1468 -1092,-3106 169,-47 290,-69 476,-92z" style="fill:#8f213c"/>
  <path class="RightHand-Bear0fil14" d="M17217 20971c-131,-206 -302,-406 -490,-563 -50,-606 -203,-1164 -276,-1762 236,212 930,1618 766,2325z" style="fill:#82b7b8"/>
 </g><g id="LeftHand-Bear0">
 <animateTransform additive="sum" attributeName="transform" dur="10" repeatCount="indefinite" type="translate" values="0;0 200;0;0 200;0;0 200;0;0 200;0"/>
  <metadata id="CorelCorpID_247Corel-Layer"/>
  <path class="LeftHand-Bear0fil465" d="M11197 17210c-1488,-179 -2824,1880 -3151,3021 -160,558 1806,1220 1963,882 69,-147 296,-477 571,-705 149,-820 322,-1468 1092,-3106 -168,-47 -290,-69 -475,-92z" style="fill:#37ea45"/>
  <path class="LeftHand-Bear0fil22 LeftHand-Bear0str0" d="M11197 17205c-1488,-179 -2824,1880 -3151,3021 -160,558 1806,1220 1963,882 69,-147 296,-477 571,-705 149,-820 322,-1468 1092,-3106 -168,-47 -290,-69 -475,-92z" style="fill:#395a18"/>
  <path class="LeftHand-Bear0fil14" d="M10090 20971c132,-206 303,-406 490,-563 51,-606 203,-1164 276,-1762 -235,212 -929,1618 -766,2325z" style="fill:#63a4b1"/>
 </g><g id="Body-Bear0">
 <animateTransform additive="sum" attributeName="transform" dur="10" repeatCount="indefinite" type="translate" values="0;0 200;0;0 200;0;0 200;0;0 200;0"/>
  <metadata id="CorelCorpID_256Corel-Layer"/>
  <path class="Body-Bear0fil476" d="M13654 23351c1692,-3 2768,-307 3233,-1926 302,-1052 -330,-2764 -1019,-3983 -551,110 -1409,139 -2214,150 -806,-11 -1663,-40 -2215,-150 -688,1219 -1321,2931 -1018,3983 465,1619 1541,1923 3233,1926z" style="fill:#b3e864"/>
  <path class="Body-Bear0fil14" d="M11416 22901c-455,-288 -787,-750 -995,-1476 -211,-735 34,-1792 435,-2779 -591,2230 70,3628 560,4255z" style="fill:#b394d7"/>
  <path class="Body-Bear0fil32" d="M11416 22901c-539,-241 -960,-968 -1067,-1455 -108,-487 -59,-1102 131,-1659 -71,577 -87,1191 13,1618 104,444 495,1184 923,1496z" style="fill:#6c2d73"/>
  <path class="Body-Bear0fil22" d="M12621 22856c-1016,-156 -1749,-629 -1932,-1889 -2,-17 -5,-34 -7,-51l0 -4c-2,-16 -4,-32 -5,-48l-1 -7c-1,-15 -3,-31 -4,-46l0 -8c-2,-15 -3,-30 -3,-46l-1 -8c-1,-16 -1,-31 -2,-47l0 -6c-1,-17 -1,-34 -1,-51l0 -5c0,-17 0,-34 0,-50l0 -8c0,-15 0,-31 1,-47l0 -9c1,-15 1,-30 2,-46l0 -11c1,-14 2,-29 3,-44l1 -12c1,-15 2,-29 3,-44l1 -13c1,-15 3,-31 4,-46l2 -14c1,-15 3,-30 5,-44l1 -15c2,-14 4,-27 5,-41l3 -18c2,-13 3,-26 5,-39l3 -18c2,-12 4,-25 6,-38 1,-7 2,-14 4,-22 2,-12 4,-25 6,-37l4 -23c2,-11 4,-23 6,-34 2,-9 4,-18 6,-28 2,-10 4,-21 6,-32 2,-9 4,-18 6,-27 2,-11 4,-21 7,-32l6 -27c2,-11 4,-21 7,-31 3,-13 6,-25 9,-37l5 -21c3,-14 6,-27 9,-40l5 -18c4,-14 7,-28 11,-42l4 -15c4,-15 8,-30 12,-46l3 -8c4,-16 9,-33 14,-49l1 -7m15 -50l9 -28c5,-17 10,-34 15,-52l2 -5c6,-17 11,-34 17,-51l1 -6c6,-18 12,-36 18,-54l0 -1c-142,1971 409,3124 1703,3596" style="fill:#57dda5"/>
  <path class="Body-Bear0fil22" d="M12621 22856c-1016,-156 -1749,-629 -1932,-1889 -2,-17 -5,-34 -7,-51l0 -4c-2,-16 -4,-32 -5,-48l-1 -7c-1,-15 -3,-31 -4,-46l0 -8c-2,-15 -3,-30 -3,-46l-1 -8c-1,-16 -1,-31 -2,-47l0 -6c-1,-17 -1,-34 -1,-51l0 -5c0,-17 0,-34 0,-50l0 -8c0,-15 0,-31 1,-47l0 -9c1,-15 1,-30 2,-46l0 -11c1,-14 2,-29 3,-44l1 -12c1,-15 2,-29 3,-44l1 -13c1,-15 3,-31 4,-46l2 -14c1,-15 3,-30 5,-44l1 -15c2,-14 4,-27 5,-41l3 -18c2,-13 3,-26 5,-39l3 -18c2,-12 4,-25 6,-38 1,-7 2,-14 4,-22 2,-12 4,-25 6,-37l4 -23c2,-11 4,-23 6,-34 2,-9 4,-18 6,-28 2,-10 4,-21 6,-32 2,-9 4,-18 6,-27 2,-11 4,-21 7,-32l6 -27c2,-11 4,-21 7,-31 3,-13 6,-25 9,-37l5 -21c3,-14 6,-27 9,-40l5 -18c4,-14 7,-28 11,-42l4 -15c4,-15 8,-30 12,-46l3 -8c4,-16 9,-33 14,-49l1 -7m15 -50l9 -28c5,-17 10,-34 15,-52l2 -5c6,-17 11,-34 17,-51l1 -6c6,-18 12,-36 18,-54l0 -1c-142,1971 409,3124 1703,3596" style="fill:#65e789"/>
  <path class="Body-Bear0fil14" d="M15892 22901c455,-288 786,-750 995,-1476 211,-735 -34,-1792 -436,-2779 592,2230 -69,3628 -559,4255z" style="fill:#580554"/>
  <path class="Body-Bear0fil32" d="M15892 22901c539,-241 960,-968 1067,-1455 107,-487 59,-1102 -132,-1659 72,577 87,1191 -12,1618 -104,444 -496,1184 -923,1496z" style="fill:#2bb1ce"/>
  <path class="Body-Bear0fil477" d="M13654 17946c1091,13 2253,769 2652,2305 383,1476 -497,2906 -2652,2919 -2155,-13 -3035,-1443 -2652,-2919 398,-1536 1561,-2292 2652,-2305z" style="fill:#7658a9"/>
 </g><g id="WeaponFlySwatterBack-Big">
 <animateTransform additive="sum" attributeName="transform" dur="10" repeatCount="indefinite" type="translate" values="0;0 200;0;0 200;0;0 200;0;0 200;0"/>
  <metadata id="CorelCorpID_2Corel-Layer"/>
  <g id="_2367108399968">
   <path class="WeaponFlySwatterBack-Bigfil6 WeaponFlySwatterBack-Bigstr0" d="M9872 21821l218 -164 -1867 -1285c-174,-119 -469,-140 -637,159 -169,299 1,541 193,628l2066 933 27 -271z" style="fill:#89cc56"/>
   <path class="WeaponFlySwatterBack-Bigfil1" d="M7767 20341c-67,38 -130,99 -181,190 -169,299 1,541 193,628l2066 933 23 -228c-481,-231 -1742,-844 -1936,-1013 -156,-136 -213,-345 -165,-510z" style="fill:#64df25"/>
  </g>
 </g><g id="RightPaw-Bear0">
 <animateTransform additive="sum" attributeName="transform" dur="10" repeatCount="indefinite" type="translate" values="0;0 200;0;0 200;0;0 200;0;0 200;0"/>
  <metadata id="CorelCorpID_243Corel-Layer"/>
  <path class="RightPaw-Bear0fil457" d="M19212 20074c101,319 446,1074 -76,1413 -8,341 -321,891 -722,638 -151,80 -387,68 -509,-83 -446,-4 -409,-537 -607,-929 295,-982 1641,-506 1914,-1039z" style="fill:#a31f20"/>
  <path class="RightPaw-Bear0fil32" d="M19190 20003c89,-30 112,105 135,170 130,372 354,1015 -116,1354 -11,143 -66,311 -153,448 -99,155 -252,294 -446,289 -65,-1 -132,-19 -200,-55 -176,73 -404,47 -540,-94 -338,-20 -419,-297 -509,-605 -35,-123 -73,-250 -129,-363 -19,-37 -94,-221 -57,-240 16,-8 67,4 101,36 47,44 78,115 89,136 63,125 102,260 140,389 60,206 115,395 261,468 -29,-101 -22,-219 84,-284 -76,237 182,489 434,440 -65,-93 -101,-219 -10,-319 -6,164 172,338 339,342 137,3 248,-112 316,-220 55,-87 95,-188 116,-282 -169,50 -397,13 -448,-183 104,74 378,78 488,1 414,-287 232,-827 98,-1209 -22,-63 -77,-193 7,-219z" style="fill:#b63370"/>
  <path class="RightPaw-Bear0fil458" d="M18721 21392c-70,15 -168,-109 -207,-290 -38,-180 -13,-339 57,-354 70,-15 188,120 226,300 39,181 -7,329 -76,344z" style="fill:#683736"/>
  <path class="RightPaw-Bear0fil458" d="M18493 21944c-70,15 -168,-109 -207,-289 -38,-181 -13,-340 57,-355 70,-14 188,120 226,301 39,180 -7,328 -76,343z" style="fill:#3099d4"/>
  <path class="RightPaw-Bear0fil458" d="M18061 21880c-58,7 -128,-100 -147,-248 -19,-148 13,-275 70,-282 57,-7 143,110 162,258 19,148 -28,265 -85,272z" style="fill:#fafdac"/>
  <path class="RightPaw-Bear0fil458" d="M17668 21710c-41,0 -83,-82 -84,-190 -2,-107 31,-195 72,-195 42,-1 94,90 95,197 2,108 -41,187 -83,188z" style="fill:#8eef99"/>
  <path class="RightPaw-Bear0fil458" d="M18328 20905c28,402 -757,372 -764,113 -13,-411 729,-626 764,-113z" style="fill:#fa0047"/>
 </g><g id="LeftPawWeapon-Bear4">
 <animateTransform additive="sum" attributeName="transform" dur="10" repeatCount="indefinite" type="translate" values="0;0 200;0;0 200;0;0 200;0;0 200;0"/>
  <metadata id="CorelCorpID_3Corel-Layer"/>
  <path class="LeftPawWeapon-Bear4fil4 LeftPawWeapon-Bear4str0" d="M9184 21857c111,311 407,488 669,458 -172,-146 -283,-401 -254,-605 -107,110 -285,199 -415,147z" style="fill:#bf4c4a"/>
  <path class="LeftPawWeapon-Bear4fil5 LeftPawWeapon-Bear4str0" d="M8604 21988c106,362 424,462 600,445 -118,-148 -180,-345 -111,-553 -111,145 -334,201 -489,108z" style="fill:#045dfb"/>
  <path class="LeftPawWeapon-Bear4fil6 LeftPawWeapon-Bear4str0" d="M8105 21741c2,238 123,413 346,525 -75,-215 -7,-388 93,-573 -134,128 -313,130 -439,48z" style="fill:#cd0ac9"/>
  <path class="LeftPawWeapon-Bear4fil0" d="M8064 20167c-174,495 -396,1082 -60,1254 -63,251 76,575 425,576 127,228 534,319 775,91 176,20 369,-1 539,-240 138,-193 112,-466 371,-913 -594,-215 -1455,-553 -2050,-768z" style="fill:#fa9899"/>
  <path class="LeftPawWeapon-Bear4fil1" d="M7994 20142c14,-39 56,-59 95,-45 39,13 60,56 46,95l-20 56c-143,405 -301,846 -145,1036 15,-73 101,-165 188,-199 -121,132 -139,518 -27,687 44,65 128,121 216,143 -61,-167 -60,-383 89,-514 -69,241 -15,680 345,738 98,16 202,3 292,-46 -183,-92 -260,-325 -144,-530 -19,280 242,531 522,432 78,-28 156,-85 231,-190 53,-75 81,-170 114,-288 46,-161 104,-362 254,-620 20,-35 66,-48 102,-27 36,21 48,67 27,102 -140,242 -195,432 -239,586 -37,131 -68,238 -136,333 -95,134 -198,208 -303,245 -93,33 -184,37 -272,30 -27,22 -55,41 -84,57 -120,67 -259,85 -387,64 -129,-21 -249,-80 -331,-167 -14,-15 -28,-32 -40,-49 -34,-3 -65,-8 -95,-15 -127,-32 -223,-107 -286,-201 -76,-115 -102,-257 -85,-397 -314,-220 -119,-772 53,-1260l20 -56z" style="fill:#acf550"/>
 </g><g id="NecklaceChain">
 <animateTransform additive="sum" attributeName="transform" dur="10" repeatCount="indefinite" type="translate" values="0;0 200;0;0 200;0;0 200;0;0 200;0"/>
  <metadata id="CorelCorpID_39Corel-Layer"/>
  <path class="NecklaceChainfil223new NecklaceChainstr0new" d="M16804 16967c28,24 57,50 60,83 2,47 -30,107 -75,125 5,4 9,8 13,13 31,35 61,100 80,143 82,-76 201,-238 183,-364l-261 0zm-271 210c35,83 68,168 99,254 26,32 81,70 79,115 -1,47 -39,101 -84,114 4,4 8,9 12,14 27,37 50,102 65,146 94,-68 236,-226 212,-353 -22,-69 -75,-200 -121,-253 -50,-50 -215,-119 -262,-37zm-161 457c28,85 53,170 76,256 23,34 74,77 69,121 -6,45 -49,94 -95,101 4,4 8,9 11,15 24,39 41,105 52,150 98,-56 254,-194 242,-321 -17,-70 -58,-202 -98,-258 -45,-52 -203,-138 -257,-64zm-199 424c20,85 37,171 52,257 20,35 66,83 57,126 -10,43 -57,85 -102,86 3,5 6,10 9,16 19,41 30,107 37,152 101,-42 269,-159 269,-284 -10,-70 -39,-203 -74,-262 -39,-55 -187,-157 -248,-91zm-234 387c10,73 18,145 24,218 0,14 0,28 0,42 15,41 54,94 36,139 -17,45 -73,88 -123,87 3,5 5,11 7,17 12,46 10,119 8,166 123,-35 275,-140 327,-260 3,-7 5,-20 5,-27 -3,-70 -19,-202 -48,-264 -34,-59 -172,-173 -236,-118zm-297 381c-4,91 -13,183 -24,274 10,42 41,99 18,141 -22,41 -83,74 -130,65 2,6 3,12 4,18 6,47 -5,117 -14,163 120,-19 325,-100 364,-231 11,-73 23,-217 5,-287 -25,-67 -145,-198 -223,-143zm-350 340c-16,88 -36,176 -59,263 3,41 26,104 -2,140 -28,37 -92,59 -136,42 1,6 1,12 1,19 -1,46 -22,113 -38,157 120,1 332,-44 388,-166 22,-71 53,-209 44,-280 -15,-67 -115,-216 -198,-175zm-384 271c-6,19 -13,38 -20,57 -26,66 -54,130 -85,194 -4,43 7,108 -29,140 -35,31 -104,43 -146,19 -1,6 -1,12 -3,18 -10,47 -46,109 -71,150 123,22 348,12 429,-102 24,-47 44,-94 62,-143 13,-40 27,-85 29,-127 -5,-71 -83,-230 -166,-206zm-435 205c-45,79 -96,154 -150,226 -12,42 -14,107 -55,131 -41,25 -111,22 -147,-10 -2,6 -4,12 -6,18 -20,43 -68,97 -101,132 116,46 340,81 442,-16 47,-58 127,-177 144,-248 10,-73 -38,-242 -127,-233zm-463 116c-60,68 -126,131 -194,191 -21,38 -37,101 -83,117 -17,5 -31,6 -49,5 -38,-4 -71,-16 -96,-46 -2,5 -6,11 -9,16 -29,38 -88,81 -128,108 75,52 144,79 233,95 61,10 157,18 210,-18 59,-48 162,-148 194,-215 24,-69 11,-245 -78,-253zm-482 18c-73,53 -151,102 -230,146 -28,33 -56,92 -104,97 -47,6 -110,-24 -130,-69 -4,5 -8,10 -13,14 -35,32 -101,62 -145,80 88,90 278,212 411,165 67,-34 189,-111 234,-169 39,-63 63,-237 -23,-264zm-471 -82c-82,38 -167,70 -254,97 -34,27 -73,79 -121,75 -47,-4 -103,-46 -114,-94 -5,4 -10,8 -15,11 -41,24 -112,41 -159,51 69,104 231,261 370,242 72,-20 206,-71 261,-119 50,-53 109,-219 32,-263zm-447 -174c-55,12 -108,22 -163,31 -35,6 -69,11 -103,17 -37,19 -85,64 -130,53 -45,-12 -90,-62 -91,-110 -6,4 -11,6 -17,9 -44,17 -114,23 -161,25 46,110 170,290 304,293 13,-1 25,-3 37,-4 75,-10 175,-28 242,-63 60,-42 151,-193 82,-251zm-401 -249c-89,6 -179,7 -269,4 -41,13 -96,49 -138,30 -44,-19 -82,-77 -77,-125 -5,3 -11,5 -17,6 -47,10 -118,4 -166,-2 31,117 129,317 262,344 73,5 214,2 281,-24 61,-30 183,-163 124,-233zm-363 -317c-91,-9 -182,-24 -272,-42 -43,7 -103,34 -143,8 -41,-26 -72,-90 -61,-138 -6,2 -12,3 -18,3 -32,1 -65,-5 -96,-11 -3,1 -58,-9 -65,-10 0,19 2,37 4,55 25,104 98,286 208,325 73,17 215,37 285,23 68,-21 207,-132 158,-213zm-326 -381c-84,-15 -168,-35 -250,-58 -40,4 -104,25 -138,-1 -35,-27 -52,-88 -34,-130 -6,1 -12,2 -18,2 -46,0 -111,-20 -155,-33 -4,108 29,313 142,364 68,20 140,35 211,41 3,3 49,5 57,5 72,-10 218,-99 187,-187 -1,-1 -1,-2 -2,-3zm-246 -372c-83,-27 -165,-58 -246,-91 -40,-2 -106,12 -137,-19 -33,-31 -45,-95 -23,-136 -6,1 -12,0 -18,0 -46,-6 -109,-33 -151,-52 -14,110 -1,321 107,387 64,29 192,74 261,74 66,-5 232,-78 207,-163zm-212 -412c-81,-37 -160,-79 -238,-122 -41,-6 -107,1 -136,-34 -29,-36 -35,-103 -9,-142 -7,0 -13,-1 -19,-3 -45,-11 -106,-45 -146,-70 -24,112 -31,328 71,407 62,37 185,98 254,107 68,2 240,-53 223,-143zm-175 -446c-77,-47 -152,-98 -226,-151 -41,-11 -107,-11 -133,-50 -25,-40 -26,-108 3,-146 -6,-1 -12,-3 -18,-5 -15,-5 -31,-14 -48,-24l-107 0c-24,118 -28,284 49,360 58,44 177,120 245,137 69,10 244,-28 235,-121zm5722 111c-31,-85 -64,-168 -98,-251 -44,-48 -43,-171 -5,-236l-223 0c-23,64 -33,130 -20,184 24,65 107,211 152,261 35,34 188,127 194,42zm-186 457c-23,-86 -48,-170 -75,-254 -45,-59 -23,-207 37,-250 -38,-52 -73,-117 -102,-175 -95,64 -194,230 -176,348 19,66 87,215 128,269 30,34 175,144 188,62zm-224 421c-15,-85 -32,-170 -52,-255 -39,-61 -5,-201 58,-236 -32,-55 -61,-121 -85,-181 -99,51 -212,199 -204,315 13,67 68,219 103,275 25,36 159,161 180,82zm-266 389c0,-26 0,-54 -1,-80 -5,-61 -12,-120 -21,-181 -32,-62 13,-195 79,-221 -27,-57 -50,-124 -69,-184 -100,36 -225,165 -228,278 6,48 22,108 34,155 9,43 18,92 35,133 22,46 137,182 171,100zm-346 390c11,-90 19,-181 24,-271 -22,-72 53,-209 123,-233 -12,-43 -21,-90 -28,-135 -5,-21 -10,-41 -15,-62 -6,1 -46,10 -49,14 -85,46 -213,163 -233,263 -4,78 5,225 23,301 16,45 111,198 155,123zm-386 324c23,-86 43,-173 58,-261 -11,-72 76,-193 148,-204 -10,-64 -13,-137 -15,-202 -109,15 -270,115 -308,224 -14,76 -23,221 -16,296 9,45 80,213 133,147zm-431 254c37,-76 69,-150 99,-230 1,-1 6,-16 7,-19 -1,-71 98,-175 170,-174 -1,-64 5,-134 12,-198 -112,-5 -259,61 -322,156 -1,2 -3,5 -4,8 -26,72 -62,215 -68,290 0,48 40,224 106,167zm-479 174c54,-72 104,-147 149,-224 14,-70 135,-155 206,-142 11,-64 29,-132 47,-194 -105,-22 -284,16 -355,104 -37,66 -98,200 -119,271 -8,46 -4,227 72,185zm-506 73c68,-58 133,-121 193,-188 28,-65 162,-125 229,-98 22,-60 53,-123 82,-181 -98,-42 -277,-40 -363,32 -50,56 -139,176 -174,240 -18,44 -51,222 33,195zm-514 -33c78,-43 154,-91 228,-143 42,-53 120,-69 185,-67 23,2 42,6 62,18 35,-54 78,-109 118,-160 -55,-43 -112,-56 -180,-64 -51,-4 -140,-7 -186,20 -60,45 -171,143 -218,199 -27,39 -96,206 -9,197zm-491 -135c86,-27 170,-59 252,-95 51,-50 198,-50 248,2 45,-46 99,-91 148,-132 -72,-78 -237,-149 -345,-118 -68,32 -196,105 -254,151 -34,33 -135,183 -49,192zm-454 -227c47,-7 93,-15 140,-24 41,-7 82,-15 123,-24 61,-38 207,-8 246,53 53,-36 115,-69 172,-100 -56,-93 -207,-194 -320,-186 -12,2 -84,22 -90,25 -58,21 -133,46 -187,76 -38,26 -165,157 -84,180zm-400 -296c89,3 179,2 268,-3 65,-28 201,24 228,91 58,-26 124,-48 184,-68 -36,-102 -164,-226 -276,-237 -77,5 -222,29 -293,53 -44,19 -189,127 -111,164zm-362 -365c89,18 180,32 270,42 71,-16 202,61 219,132 62,-15 132,-25 197,-33 -23,-110 -137,-259 -250,-290 -78,-9 -228,-10 -303,2 -49,13 -206,97 -133,147zm-298 -395c82,22 165,42 249,58 17,-2 30,0 46,4 67,28 141,87 155,162 65,-5 138,-3 204,0 -7,-120 -82,-225 -168,-305 -13,-10 -28,-22 -45,-26 -75,-15 -215,-26 -290,-20 -43,8 -213,75 -151,127zm-239 -407c81,33 162,63 245,91 70,-2 173,96 168,168 63,-1 132,6 194,14 12,-108 -53,-273 -154,-326 -73,-25 -213,-54 -289,-58 -45,3 -221,52 -164,111zm-201 -443c78,43 157,84 237,121 71,8 164,121 153,193 63,7 132,23 194,39 21,-109 -30,-287 -125,-354 -61,-31 -218,-85 -285,-93 -47,-3 -225,27 -174,94zm-160 -476c73,53 148,103 225,151 71,15 153,143 135,215 63,15 131,39 191,63 32,-111 -4,-299 -93,-378 -58,-39 -210,-113 -276,-128 -49,-9 -227,3 -182,77zm202 -192c12,37 17,74 8,101 61,22 126,55 184,86 19,-50 26,-118 19,-187l-211 0z" style="fill:#aa3af0"/>
  <path class="NecklaceChainfil224new" d="M16804 16967c28,24 57,50 60,83 2,47 -30,107 -75,125 5,4 9,8 13,13 31,35 61,100 80,143 82,-76 201,-238 183,-364l-261 0zm-271 210c35,83 68,168 99,254 26,32 81,70 79,115 -1,47 -39,101 -84,114 4,4 8,9 12,14 27,37 50,102 65,146 94,-68 236,-226 212,-353 -22,-69 -75,-200 -121,-253 -50,-50 -215,-119 -262,-37zm-161 457c28,85 53,170 76,256 23,34 74,77 69,121 -6,45 -49,94 -95,101 4,4 8,9 11,15 24,39 41,105 52,150 98,-56 254,-194 242,-321 -17,-70 -58,-202 -98,-258 -45,-52 -203,-138 -257,-64zm-199 424c20,85 37,171 52,257 20,35 66,83 57,126 -10,43 -57,85 -102,86 3,5 6,10 9,16 19,41 30,107 37,152 101,-42 269,-159 269,-284 -10,-70 -39,-203 -74,-262 -39,-55 -187,-157 -248,-91zm-234 387c10,73 18,145 24,218 0,14 0,28 0,42 15,41 54,94 36,139 -17,45 -73,88 -123,87 3,5 5,11 7,17 12,46 10,119 8,166 123,-35 275,-140 327,-260 3,-7 5,-20 5,-27 -3,-70 -19,-202 -48,-264 -34,-59 -172,-173 -236,-118zm-297 381c-4,91 -13,183 -24,274 10,42 41,99 18,141 -22,41 -83,74 -130,65 2,6 3,12 4,18 6,47 -5,117 -14,163 120,-19 325,-100 364,-231 11,-73 23,-217 5,-287 -25,-67 -145,-198 -223,-143zm-350 340c-16,88 -36,176 -59,263 3,41 26,104 -2,140 -28,37 -92,59 -136,42 1,6 1,12 1,19 -1,46 -22,113 -38,157 120,1 332,-44 388,-166 22,-71 53,-209 44,-280 -15,-67 -115,-216 -198,-175zm-384 271c-6,19 -13,38 -20,57 -26,66 -54,130 -85,194 -4,43 7,108 -29,140 -35,31 -104,43 -146,19 -1,6 -1,12 -3,18 -10,47 -46,109 -71,150 123,22 348,12 429,-102 24,-47 44,-94 62,-143 13,-40 27,-85 29,-127 -5,-71 -83,-230 -166,-206zm-435 205c-45,79 -96,154 -150,226 -12,42 -14,107 -55,131 -41,25 -111,22 -147,-10 -2,6 -4,12 -6,18 -20,43 -68,97 -101,132 116,46 340,81 442,-16 47,-58 127,-177 144,-248 10,-73 -38,-242 -127,-233zm-463 116c-60,68 -126,131 -194,191 -21,38 -37,101 -83,117 -17,5 -31,6 -49,5 -38,-4 -71,-16 -96,-46 -2,5 -6,11 -9,16 -29,38 -88,81 -128,108 75,52 144,79 233,95 61,10 157,18 210,-18 59,-48 162,-148 194,-215 24,-69 11,-245 -78,-253zm-482 18c-73,53 -151,102 -230,146 -28,33 -56,92 -104,97 -47,6 -110,-24 -130,-69 -4,5 -8,10 -13,14 -35,32 -101,62 -145,80 88,90 278,212 411,165 67,-34 189,-111 234,-169 39,-63 63,-237 -23,-264zm-471 -82c-82,38 -167,70 -254,97 -34,27 -73,79 -121,75 -47,-4 -103,-46 -114,-94 -5,4 -10,8 -15,11 -41,24 -112,41 -159,51 69,104 231,261 370,242 72,-20 206,-71 261,-119 50,-53 109,-219 32,-263zm-447 -174c-55,12 -108,22 -163,31 -35,6 -69,11 -103,17 -37,19 -85,64 -130,53 -45,-12 -90,-62 -91,-110 -6,4 -11,6 -17,9 -44,17 -114,23 -161,25 46,110 170,290 304,293 13,-1 25,-3 37,-4 75,-10 175,-28 242,-63 60,-42 151,-193 82,-251zm-401 -249c-89,6 -179,7 -269,4 -41,13 -96,49 -138,30 -44,-19 -82,-77 -77,-125 -5,3 -11,5 -17,6 -47,10 -118,4 -166,-2 31,117 129,317 262,344 73,5 214,2 281,-24 61,-30 183,-163 124,-233zm-363 -317c-91,-9 -182,-24 -272,-42 -43,7 -103,34 -143,8 -41,-26 -72,-90 -61,-138 -6,2 -12,3 -18,3 -32,1 -65,-5 -96,-11 -3,1 -58,-9 -65,-10 0,19 2,37 4,55 25,104 98,286 208,325 73,17 215,37 285,23 68,-21 207,-132 158,-213zm-326 -381c-84,-15 -168,-35 -250,-58 -40,4 -104,25 -138,-1 -35,-27 -52,-88 -34,-130 -6,1 -12,2 -18,2 -46,0 -111,-20 -155,-33 -4,108 29,313 142,364 68,20 140,35 211,41 3,3 49,5 57,5 72,-10 218,-99 187,-187 -1,-1 -1,-2 -2,-3zm-246 -372c-83,-27 -165,-58 -246,-91 -40,-2 -106,12 -137,-19 -33,-31 -45,-95 -23,-136 -6,1 -12,0 -18,0 -46,-6 -109,-33 -151,-52 -14,110 -1,321 107,387 64,29 192,74 261,74 66,-5 232,-78 207,-163zm-212 -412c-81,-37 -160,-79 -238,-122 -41,-6 -107,1 -136,-34 -29,-36 -35,-103 -9,-142 -7,0 -13,-1 -19,-3 -45,-11 -106,-45 -146,-70 -24,112 -31,328 71,407 62,37 185,98 254,107 68,2 240,-53 223,-143zm-175 -446c-77,-47 -152,-98 -226,-151 -41,-11 -107,-11 -133,-50 -25,-40 -26,-108 3,-146 -6,-1 -12,-3 -18,-5 -15,-5 -31,-14 -48,-24l-107 0c-24,118 -28,284 49,360 58,44 177,120 245,137 69,10 244,-28 235,-121zm5722 111c-31,-85 -64,-168 -98,-251 -44,-48 -43,-171 -5,-236l-223 0c-23,64 -33,130 -20,184 24,65 107,211 152,261 35,34 188,127 194,42zm-186 457c-23,-86 -48,-170 -75,-254 -45,-59 -23,-207 37,-250 -38,-52 -73,-117 -102,-175 -95,64 -194,230 -176,348 19,66 87,215 128,269 30,34 175,144 188,62zm-224 421c-15,-85 -32,-170 -52,-255 -39,-61 -5,-201 58,-236 -32,-55 -61,-121 -85,-181 -99,51 -212,199 -204,315 13,67 68,219 103,275 25,36 159,161 180,82zm-266 389c0,-26 0,-54 -1,-80 -5,-61 -12,-120 -21,-181 -32,-62 13,-195 79,-221 -27,-57 -50,-124 -69,-184 -100,36 -225,165 -228,278 6,48 22,108 34,155 9,43 18,92 35,133 22,46 137,182 171,100zm-346 390c11,-90 19,-181 24,-271 -22,-72 53,-209 123,-233 -12,-43 -21,-90 -28,-135 -5,-21 -10,-41 -15,-62 -6,1 -46,10 -49,14 -85,46 -213,163 -233,263 -4,78 5,225 23,301 16,45 111,198 155,123zm-386 324c23,-86 43,-173 58,-261 -11,-72 76,-193 148,-204 -10,-64 -13,-137 -15,-202 -109,15 -270,115 -308,224 -14,76 -23,221 -16,296 9,45 80,213 133,147zm-431 254c37,-76 69,-150 99,-230 1,-1 6,-16 7,-19 -1,-71 98,-175 170,-174 -1,-64 5,-134 12,-198 -112,-5 -259,61 -322,156 -1,2 -3,5 -4,8 -26,72 -62,215 -68,290 0,48 40,224 106,167zm-479 174c54,-72 104,-147 149,-224 14,-70 135,-155 206,-142 11,-64 29,-132 47,-194 -105,-22 -284,16 -355,104 -37,66 -98,200 -119,271 -8,46 -4,227 72,185zm-506 73c68,-58 133,-121 193,-188 28,-65 162,-125 229,-98 22,-60 53,-123 82,-181 -98,-42 -277,-40 -363,32 -50,56 -139,176 -174,240 -18,44 -51,222 33,195zm-514 -33c78,-43 154,-91 228,-143 42,-53 120,-69 185,-67 23,2 42,6 62,18 35,-54 78,-109 118,-160 -55,-43 -112,-56 -180,-64 -51,-4 -140,-7 -186,20 -60,45 -171,143 -218,199 -27,39 -96,206 -9,197zm-491 -135c86,-27 170,-59 252,-95 51,-50 198,-50 248,2 45,-46 99,-91 148,-132 -72,-78 -237,-149 -345,-118 -68,32 -196,105 -254,151 -34,33 -135,183 -49,192zm-454 -227c47,-7 93,-15 140,-24 41,-7 82,-15 123,-24 61,-38 207,-8 246,53 53,-36 115,-69 172,-100 -56,-93 -207,-194 -320,-186 -12,2 -84,22 -90,25 -58,21 -133,46 -187,76 -38,26 -165,157 -84,180zm-400 -296c89,3 179,2 268,-3 65,-28 201,24 228,91 58,-26 124,-48 184,-68 -36,-102 -164,-226 -276,-237 -77,5 -222,29 -293,53 -44,19 -189,127 -111,164zm-362 -365c89,18 180,32 270,42 71,-16 202,61 219,132 62,-15 132,-25 197,-33 -23,-110 -137,-259 -250,-290 -78,-9 -228,-10 -303,2 -49,13 -206,97 -133,147zm-298 -395c82,22 165,42 249,58 17,-2 30,0 46,4 67,28 141,87 155,162 65,-5 138,-3 204,0 -7,-120 -82,-225 -168,-305 -13,-10 -28,-22 -45,-26 -75,-15 -215,-26 -290,-20 -43,8 -213,75 -151,127zm-239 -407c81,33 162,63 245,91 70,-2 173,96 168,168 63,-1 132,6 194,14 12,-108 -53,-273 -154,-326 -73,-25 -213,-54 -289,-58 -45,3 -221,52 -164,111zm-201 -443c78,43 157,84 237,121 71,8 164,121 153,193 63,7 132,23 194,39 21,-109 -30,-287 -125,-354 -61,-31 -218,-85 -285,-93 -47,-3 -225,27 -174,94zm-160 -476c73,53 148,103 225,151 71,15 153,143 135,215 63,15 131,39 191,63 32,-111 -4,-299 -93,-378 -58,-39 -210,-113 -276,-128 -49,-9 -227,3 -182,77zm202 -192c12,37 17,74 8,101 61,22 126,55 184,86 19,-50 26,-118 19,-187l-211 0z" style="fill:#b7e221"/>
 </g><g id="BraceletLeather-Big">
 <animateTransform additive="sum" attributeName="transform" dur="10" repeatCount="indefinite" type="translate" values="0;0 200;0;0 200;0;0 200;0;0 200;0"/>
  <metadata id="CorelCorpID_18Corel-Layer"/>
  <path class="BraceletLeather-Bigfil51new BraceletLeather-Bigstr3new" d="M8065 19669c-150,-188 -209,-300 -358,-488 -55,-92 -50,-312 4,-312 137,-21 288,-46 423,-78 45,235 151,531 267,777 -112,34 -224,68 -336,101z" style="fill:#c498dc"/>
  <path class="BraceletLeather-Bigfil43new" d="M8065 19669c-150,-188 -209,-300 -358,-488 -55,-92 -50,-312 4,-312l11 -2c120,274 311,512 512,751l-169 51z" style="fill:#0c8051"/>
  <path class="BraceletLeather-Bigfil33new BraceletLeather-Bigstr3new" d="M8065 19669c-150,-188 -209,-300 -358,-488 -55,-92 -50,-312 4,-312 137,-21 288,-46 423,-78 45,235 151,531 267,777 -112,34 -224,68 -336,101z" style="fill:#75ff7b"/>
  <path class="BraceletLeather-Bigfil52new BraceletLeather-Bigstr3new" d="M8052 19933c-236,-45 -354,-90 -591,-135 -101,-33 -242,-202 -201,-238 90,-105 187,-223 269,-335 188,148 462,302 710,411 -62,99 -125,198 -187,297z" style="fill:#e91df1"/>
  <path class="BraceletLeather-Bigfil43new" d="M8052 19933c-236,-45 -354,-90 -591,-135 -101,-33 -242,-202 -201,-238l7 -8c270,128 570,183 879,232l-94 149z" style="fill:#2a1750"/>
  <path class="BraceletLeather-Bigfil33new BraceletLeather-Bigstr3new" d="M8052 19933c-236,-45 -354,-90 -591,-135 -101,-33 -242,-202 -201,-238 90,-105 187,-223 269,-335 188,148 462,302 710,411 -62,99 -125,198 -187,297z" style="fill:#14d409"/>
  <path class="BraceletLeather-Bigfil53new BraceletLeather-Bigstr4new" d="M8180 19981c-213,-53 -366,-129 -260,-321 119,-218 317,-237 619,-153 577,159 1391,572 1734,936 150,160 188,378 43,542 -145,164 -278,23 -437,-128 -394,-377 -1161,-742 -1699,-876z" style="fill:#61f54b"/>
  <path class="BraceletLeather-Bigfil46new" d="M8180 19981c-112,-28 -207,-62 -257,-116 91,-71 211,-75 313,-55 707,146 1368,484 1861,983 78,79 107,169 97,265 -101,10 -201,-93 -315,-201 -394,-377 -1161,-742 -1699,-876z" style="fill:#e1d918"/>
  <path class="BraceletLeather-Bigfil47new BraceletLeather-Bigstr4new" d="M8180 19981c-213,-53 -366,-129 -260,-321 119,-218 317,-237 619,-153 577,159 1391,572 1734,936 150,160 188,378 43,542 -145,164 -278,23 -437,-128 -394,-377 -1161,-742 -1699,-876z" style="fill:#d1e374"/>
  <path class="BraceletLeather-Bigfil54new BraceletLeather-Bigstr3new" d="M19243 19669c149,-188 208,-300 358,-488 55,-92 50,-312 -5,-312 -137,-21 -287,-46 -422,-78 -46,235 -152,531 -267,777 112,34 224,68 336,101z" style="fill:#a2bcbb"/>
  <path class="BraceletLeather-Bigfil43new" d="M19243 19669c149,-188 208,-300 358,-488 55,-92 50,-312 -5,-312l-10 -2c-120,274 -311,512 -512,751l169 51z" style="fill:#289f13"/>
  <path class="BraceletLeather-Bigfil33new BraceletLeather-Bigstr3new" d="M19243 19669c149,-188 208,-300 358,-488 55,-92 50,-312 -5,-312 -137,-21 -287,-46 -422,-78 -46,235 -152,531 -267,777 112,34 224,68 336,101z" style="fill:#09b604"/>
  <path class="BraceletLeather-Bigfil55new BraceletLeather-Bigstr3new" d="M19256 19933c236,-45 354,-90 590,-135 101,-33 243,-202 201,-238 -90,-105 -187,-223 -268,-335 -189,148 -463,302 -711,411 63,99 125,198 188,297z" style="fill:#1550fb"/>
  <path class="BraceletLeather-Bigfil43new" d="M19256 19933c236,-45 354,-90 590,-135 101,-33 243,-202 201,-238l-7 -8c-269,128 -570,183 -878,232l94 149z" style="fill:#e7a955"/>
  <path class="BraceletLeather-Bigfil33new BraceletLeather-Bigstr3new" d="M19256 19933c236,-45 354,-90 590,-135 101,-33 243,-202 201,-238 -90,-105 -187,-223 -268,-335 -189,148 -463,302 -711,411 63,99 125,198 188,297z" style="fill:#c1e1ce"/>
  <path class="BraceletLeather-Bigfil56new BraceletLeather-Bigstr4new" d="M19128 19981c212,-53 365,-129 260,-321 -120,-218 -318,-237 -620,-153 -576,159 -1390,572 -1733,936 -151,160 -188,378 -43,542 145,164 278,23 436,-128 395,-377 1161,-742 1700,-876z" style="fill:#0d9144"/>
  <path class="BraceletLeather-Bigfil46new" d="M19128 19981c111,-28 206,-62 257,-116 -91,-71 -211,-75 -313,-55 -707,146 -1368,484 -1861,983 -78,79 -107,169 -98,265 102,10 202,-93 315,-201 395,-377 1161,-742 1700,-876z" style="fill:#fa64f0"/>
  <path class="BraceletLeather-Bigfil47new BraceletLeather-Bigstr4new" d="M19128 19981c212,-53 365,-129 260,-321 -120,-218 -318,-237 -620,-153 -576,159 -1390,572 -1733,936 -151,160 -188,378 -43,542 145,164 278,23 436,-128 395,-377 1161,-742 1700,-876z" style="fill:#1909d3"/>
 </g><g id="Head-Bear1">
 <animateTransform additive="sum" attributeName="transform" dur="10" repeatCount="indefinite" type="translate" values="0;0 200;0;0 200;0;0 200;0;0 200;0"/>
  <metadata id="CorelCorpID_269Corel-Layer"/>
  <path class="Head-Bear1fil513" d="M13654 7273c-3309,0 -6045,2676 -6842,5956 -225,925 -94,2287 599,1795 14,821 658,1783 935,1228 1306,1144 3346,1392 5308,1392 1962,0 4002,-248 5308,-1392 276,555 920,-407 934,-1228 693,492 824,-870 600,-1795 -797,-3280 -3533,-5956 -6842,-5956z" style="fill:#e64c44"/>
  <path class="Head-Bear1fil14" d="M7936 10616c-511,790 -897,1677 -1124,2613 -225,925 -94,2287 599,1795 14,821 658,1783 935,1228 1049,919 2573,1260 4149,1358 -4263,-881 -6070,-3424 -4559,-6994z" style="fill:#b3cf0c"/>
  <path class="Head-Bear1fil32" d="M12848 7326c-615,115 -1491,466 -1775,598 -285,132 -1125,569 -1666,994 495,-570 1417,-1044 1603,-1130 181,-84 992,-436 1838,-462zm-4763 3069c-325,447 -615,1200 -714,1421 -203,458 -367,937 -486,1431 -106,436 -132,970 -54,1352 30,146 75,268 135,350 51,70 115,109 192,104 59,-4 129,-32 210,-90 34,-23 80,-16 104,18 10,14 15,29 14,45 8,398 169,830 361,1092 63,86 128,153 191,190 51,31 99,42 138,26 36,-15 71,-52 103,-115 18,-37 63,-52 100,-34 8,4 14,9 20,14 469,410 1035,703 1660,910 310,102 1767,462 2436,501 -1158,20 -2267,-288 -2483,-359 -615,-204 -1175,-489 -1648,-885 -39,52 -84,87 -132,107 -87,35 -180,19 -271,-36 -80,-48 -160,-128 -235,-230 -187,-256 -348,-662 -382,-1055 -63,31 -122,47 -177,51 -133,8 -240,-53 -322,-165 -73,-100 -126,-242 -160,-409 -82,-402 -56,-962 54,-1417 122,-502 289,-989 496,-1456 71,-160 424,-962 850,-1361z" style="fill:#7168e2"/>
  <path class="Head-Bear1fil32" d="M14460 7326c615,115 1491,466 1774,598 286,132 1126,569 1667,994 -495,-570 -1417,-1044 -1604,-1130 -181,-84 -992,-436 -1837,-462zm4763 3069c325,447 615,1200 713,1421 203,458 367,937 487,1431 106,436 131,970 53,1352 -29,146 -74,268 -134,350 -52,70 -116,109 -192,104 -60,-4 -130,-32 -210,-90 -34,-23 -81,-16 -105,18 -9,14 -14,29 -14,45 -7,398 -168,830 -360,1092 -63,86 -129,153 -191,190 -52,31 -99,42 -138,26 -37,-15 -71,-52 -103,-115 -18,-37 -63,-52 -101,-34 -7,4 -14,9 -19,14 -469,410 -1036,703 -1660,910 -311,102 -1768,462 -2436,501 1157,20 2267,-288 2483,-359 614,-204 1175,-489 1648,-885 39,52 83,87 132,107 87,35 179,19 271,-36 80,-48 160,-128 235,-230 187,-256 347,-662 382,-1055 63,31 121,47 176,51 134,8 240,-53 323,-165 73,-100 126,-242 160,-409 82,-402 56,-962 -55,-1417 -121,-502 -288,-989 -495,-1456 -71,-160 -424,-962 -850,-1361z" style="fill:#069fe1"/>
  <path class="Head-Bear1fil514" d="M8588 15190c-1795,-839 -401,-4619 2531,-4993 1565,-200 1865,3361 977,4328 -924,1006 -2601,1090 -3508,665zm10132 0c1795,-839 401,-4619 -2532,-4993 -1564,-200 -1864,3361 -976,4328 924,1006 2600,1090 3508,665z" style="fill:#bb5bb4"/>
 </g><g id="Mouth-Bear0">
 <animateTransform additive="sum" attributeName="transform" dur="10" repeatCount="indefinite" type="translate" values="0;0 200;0;0 200;0;0 200;0;0 200;0"/>
  <metadata id="CorelCorpID_276Corel-Layer"/>
  <g>
   <path class="Mouth-Bear0fil22 Mouth-Bear0str0" d="M12543 15318c298,519 1085,300 1111,-492" style="fill:#5d1b99"/>
   <path class="Mouth-Bear0fil100 Mouth-Bear0str0" d="M13642 14959c-37,245 -153,423 -299,528 122,-60 207,-137 311,-137l0 -391 -12 0z" style="fill:#4ece66"/>
   <path class="Mouth-Bear0fil22 Mouth-Bear0str0" d="M14765 15318c-298,519 -1086,300 -1111,-492" style="fill:#d8434a"/>
   <path class="Mouth-Bear0fil100 Mouth-Bear0str0" d="M13666 14959c37,245 153,423 299,528 -122,-60 -207,-137 -311,-137l0 -391 12 0z" style="fill:#64bc94"/>
  </g>
 </g><g id="WeaponFlySwatter-Big">
 <animateTransform additive="sum" attributeName="transform" dur="10" repeatCount="indefinite" type="translate" values="0;0 200;0;0 200;0;0 200;0;0 200;0"/>
  <metadata id="CorelCorpID_3Corel-Layer"/>
  <g id="_2367108399264">
   <path class="WeaponFlySwatter-Bigfil7 WeaponFlySwatter-Bigstr0" d="M12485 23074c-62,110 -125,221 -187,331 -824,-465 -1649,-930 -2474,-1395 -26,-161 38,-270 187,-332 825,466 1649,931 2474,1396z" style="fill:#195d1b"/>
   <path class="WeaponFlySwatter-Bigfil3" d="M12372 23275l-74 130c-824,-465 -1649,-930 -2474,-1395 -14,-86 -2,-157 34,-214l2514 1479z" style="fill:#124685"/>
   <path class="WeaponFlySwatter-Bigfil8" d="M15705 23346c18,9 35,17 49,25 252,140 356,359 340,623 -14,242 -134,522 -333,809 -49,70 -101,139 -157,207 -56,68 -114,134 -175,197 -249,259 -521,455 -789,557 -291,110 -578,113 -830,-27 -14,-8 -30,-17 -47,-28l-1676 -1075c-233,-149 -327,-301 -264,-539 55,-205 237,-470 565,-869 327,-398 559,-637 769,-755 245,-137 452,-122 708,0l1840 875zm-2085 -742l-38 46 201 112 54 -66 -98 -46c-41,-20 -81,-35 -119,-46zm353 157l-60 73 201 111 69 -84 -210 -100zm346 165l-75 91 201 112 85 -103 -211 -100zm347 165l-91 110 201 111 100 -121 -210 -100zm346 165l-106 129 201 111 116 -140 -211 -100zm347 164l-122 148 201 112 131 -159 -210 -101zm335 179l-126 153 201 111 51 -62c-21,-78 -62,-147 -126,-202zm135 447l-14 -8 -135 164 94 52c26,-72 45,-142 55,-208zm-106 329l-127 -70 -134 163 162 91c38,-63 71,-124 99,-184zm-170 294l-176 -98 -134 164 186 103c38,-48 73,-96 106,-142 6,-9 12,-18 18,-27zm-209 272l-186 -103 -134 163 176 98c8,-8 16,-16 23,-24 41,-42 81,-87 121,-134zm-242 253l-163 -90 -134 164 127 70c57,-44 114,-92 170,-144zm-288 228l-94 -51 -134 163 14 8c71,-32 142,-73 214,-120zm-494 205l51 -62 -201 -112 -125 153c86,28 178,34 275,21zm-410 -87l130 -159 -201 -111 -121 147 192 123zm-316 -202l115 -140 -201 -112 -106 129 192 123zm-316 -202l100 -122 -201 -112 -90 111 191 123zm-315 -203l84 -103 -201 -111 -75 91 192 123zm-316 -202l69 -84 -201 -112 -60 73 192 123zm-316 -203l54 -65 -201 -111 -38 45c26,26 59,50 97,75l88 56zm-255 -386l63 35 134 -164 -113 -62c-41,72 -69,135 -84,191zm153 -303l129 71 134 -163 -142 -79c-46,62 -86,118 -121,171zm202 -276l145 81 135 -164 -149 -82c-47,58 -91,113 -131,165zm216 -268l148 82 135 -163 -146 -81c-44,50 -89,104 -137,162zm226 -263l141 79 135 -164 -129 -71c-46,46 -95,98 -147,156zm248 -250l112 62 135 -163 -63 -35c-58,33 -118,77 -184,136zm1907 1984l-201 -112 -134 164 201 111 134 -163zm-331 -184l-201 -112 -134 164 201 111 134 -163zm-331 -184l-201 -111 -134 163 201 112 134 -164zm-331 -183l-201 -112 -134 164 201 111 134 -163zm-331 -184l-201 -111 -134 163 201 112 134 -164zm-331 -184l-201 -111 -135 163 202 112 134 -164zm-331 -183l-201 -112 -135 164 202 111 134 -163zm-117 -215l201 112 135 -164 -201 -111 -135 163zm331 184l201 112 135 -164 -201 -111 -135 163zm331 184l201 111 135 -163 -201 -112 -135 164zm331 183l202 112 134 -164 -201 -111 -135 163zm331 184l202 111 134 -163 -201 -112 -135 164zm332 183l201 112 134 -163 -201 -112 -134 163zm331 184l201 112 134 -164 -201 -111 -134 163zm-1768 -1368l201 111 135 -163 -201 -112 -135 164zm331 184l201 111 135 -163 -201 -112 -135 164zm331 183l201 112 135 -164 -201 -111 -135 163zm331 184l201 111 135 -163 -201 -112 -135 164zm331 183l201 112 135 -163 -201 -112 -135 163zm331 184l202 112 134 -164 -201 -111 -135 163zm331 184l202 111 134 -163 -201 -112 -135 164zm-1767 -1369l201 112 135 -163 -202 -112 -134 163zm331 184l201 112 135 -164 -201 -111 -135 163zm331 184l201 111 135 -163 -201 -112 -135 164zm331 183l201 112 135 -164 -201 -111 -135 163zm331 184l201 112 135 -164 -201 -111 -135 163zm331 184l201 111 135 -163 -201 -112 -135 164zm331 183l201 112 135 -164 -201 -111 -135 163zm-2727 -199l-134 163 201 112 134 -164 -201 -111zm331 183l-134 164 201 111 134 -163 -201 -112zm331 184l-134 163 201 112 134 -163 -201 -112zm331 184l-134 163 201 112 134 -164 -201 -111zm331 183l-134 164 201 111 134 -163 -201 -112zm331 184l-134 163 201 112 134 -164 -201 -111zm331 184l-134 163 201 112 134 -164 -201 -111zm-2205 -836l-134 164 201 111 134 -163 -201 -112zm331 184l-134 163 201 112 134 -164 -201 -111zm331 183l-134 164 201 111 134 -163 -201 -112zm331 184l-134 164 201 111 134 -163 -201 -112zm331 184l-134 163 201 112 134 -164 -201 -111zm331 183l-134 164 201 111 134 -163 -201 -112zm331 184l-134 163 201 112 134 -163 -201 -112z" style="fill:#59e405"/>
   <path class="WeaponFlySwatter-Bigfil1" d="M15031 25552c-129,90 -261,162 -391,212 -291,110 -578,113 -830,-27 -14,-8 -30,-17 -47,-28l-1676 -1075c-233,-149 -327,-301 -264,-539 55,-205 237,-470 565,-869 327,-398 559,-637 769,-755 245,-137 452,-122 708,0l45 21c-240,67 -450,169 -629,294l87 -105 -63 -35c-58,33 -118,77 -184,136l94 53c-37,28 -73,58 -108,89l-87 -48c-46,46 -95,98 -147,156l83 46c-30,34 -58,69 -84,104l-88 -49c-44,50 -89,104 -137,162l111 61c-22,39 -42,77 -61,117l-135 -75c-47,58 -91,113 -131,165l145 81 98 -119c-50,117 -85,237 -104,357l-82 100 66 37c-1,14 -1,27 -2,41 -1,38 2,75 9,113l-158 -88 -134 164 201 111 106 -129c15,50 38,100 66,149l-42 52 127 71c119,149 290,292 490,422l-40 -23 -90 111 191 123 95 -116c43,24 86,48 131,72l-102 123 192 123 115 -140 -55 -31c262,125 542,227 800,294l2 1 0 0c54,14 107,26 159,37l-29 35 14 8c22,-10 44,-21 66,-33 133,26 257,41 365,43zm-711 75l51 -62 -201 -112 -125 153c86,28 178,34 275,21zm-410 -87l130 -159 -201 -111 -121 147 192 123zm-947 -607l84 -103 -201 -111 -75 91 192 123zm-316 -202l69 -84 -201 -112 -60 73 192 123zm-316 -203l54 -65 -201 -111 -38 45c26,26 59,50 97,75l88 56zm-255 -386l63 35 134 -164 -113 -62c-41,72 -69,135 -84,191zm153 -303l129 71 134 -163 -142 -79c-46,62 -86,118 -121,171z" style="fill:#9b5c11"/>
   <path class="WeaponFlySwatter-Bigfil5 WeaponFlySwatter-Bigstr1" d="M15705 23346c18,9 35,17 49,25 252,140 356,359 340,623 -14,242 -134,522 -333,809 -49,70 -101,139 -157,207 -56,68 -114,134 -175,197 -249,259 -521,455 -789,557 -291,110 -578,113 -830,-27 -14,-8 -30,-17 -47,-28l-1676 -1075c-233,-149 -327,-301 -264,-539 55,-205 237,-470 565,-869 327,-398 559,-637 769,-755 245,-137 452,-122 708,0l1840 875z" style="fill:#94935c"/>
  </g>
 </g><g id="Eyes-Bear4">
 <animateTransform additive="sum" attributeName="transform" dur="10" repeatCount="indefinite" type="translate" values="0;0 200;0;0 200;0;0 200;0;0 200;0"/>
  <metadata id="CorelCorpID_289Corel-Layer"/>
 <g>
        <animateTransform additive="sum" attributeName="transform" dur="10" repeatCount="indefinite" type="translate" values="0;0;0;0;0;0;0;0;0;0;0;0;0;0;0;0;0;0;0;0;0;0;0;0;0;0;0;0;0;0;0;0;0;0;0;0;0;0;0;0;0;0;0;0;0;0;0;0;0;0;0;0;0;0;0;0;0;0;0;0;0;0;0;0;0;0;0;0;0;0;0;0;0;0;0;0;0;0;0;0;0;0;0;0;0;0;0;0;0;0;0 14300;0"/> 
        <g>
            <g>
                <animateTransform additive="sum" attributeName="transform" dur="10" repeatCount="indefinite" type="scale" values="1;1;1;1;1;1;1;1;1;1;1;1;1;1;1;1;1;1;1;1;1;1;1;1;1;1;1;1;1;1;1;1;1;1;1;1;1;1;1;1;1;1;1;1;1;1;1;1;1;1;1;1;1;1;1;1;1;1;1;1;1;1;1;1;1;1;1;1;1;1;1;1;1;1;1;1;1;1;1;1;1;1;1;1;1;1;1;1;1;1;1 0.01;1"/> 
                <path class="Eyes-Bear4fil546" d="M8933 14628c866,342 1956,41 2398,-392 639,-627 310,-2388 -326,-2678 -626,-286 -1345,-121 -1808,342 -952,949 -952,2457 -264,2728z"/>
            </g>
            <g>
                <animateTransform additive="sum" attributeName="transform" dur="10" repeatCount="indefinite" type="scale" values="1;1;1;1;1;1;1;1;1;1;1;1;1;1;1;1;1;1;1;1;1;1;1;1;1;1;1;1;1;1;1;1;1;1;1;1;1;1;1;1;1;1;1;1;1;1;1;1;1;1;1;1;1;1;1;1;1;1;1;1;1;1;1;1;1;1;1;1;1;1;1;1;1;1;1;1;1;1;1;1;1;1;1;1;1;1;1;1;1;1;1 0.01;1"/> 
                <path class="Eyes-Bear4fil547" d="M11674 13201c37,-885 -311,-1648 -909,-1755 -537,-96 -1101,115 -1483,535 -750,822 -747,2447 593,2577 796,78 1683,-423 1799,-1357z"/>
            </g>
            <g>
                <animateTransform additive="sum" attributeName="transform" dur="10" repeatCount="indefinite" type="translate" values="0;0;0;0;0;0;0;0;0;0;0;0;0;0;0;0;0;0;0;0;0;0;0;0;0;0;0;0;0;0;0;0;0;0;0;0;0;0;0;0;0;0;0;0;0;0;0;0;0;0;0;0;0;0;0;0;0;0;0;0;0;0;0;0;0;0;0;0;0;0;0;0;0;0;0;0;0;0;0;0;0;0;0;0;0;0;0;0;0;0;0 -14590;0"/>    
                <g>
                    <animateTransform additive="sum" attributeName="transform" dur="10" repeatCount="indefinite" type="translate" values="0;0;0;0;0;0;0;0;0;0;0;0;0;0;0;0;0;0;0;0;0;0;0;0;0;0;0;0;0;0;0;0;0;0;0;0;0;0;0;0;0;0;0;0;0;0;0;0;0;0;0;0;0;0;0;0;0;0;0;0;0;0;0;0;0;0;0;0;0;0;0;0;0;0;0;0;0;0;0;0;0;0;0;0;0;0;0;0;0;0;0;0 14000;0"/>
                    <g>
                        <animateTransform additive="sum" attributeName="transform" dur="10" repeatCount="indefinite" type="scale" values="1;1;1;1;1;1;1;1;1;1;1;1;1;1;1;1;1;1;1;1;1;1;1;1;1;1;1;1;1;1;1;1;1;1;1;1;1;1;1;1;1;1;1;1;1;1;1;1;1;1;1;1;1;1;1;1;1;1;1;1;1;1;1;1;1;1;1;1;1;1;1;1;1;1;1;1;1;1;1;1;1;1;1;1;1;1;1;1;1;1;1;1 0.05;1"/> 
                        <path class="Eyes-Bear4fil548" d="M10195 11453c720,-162 1326,430 1388,1176 62,746 -368,1439 -1088,1602 -720,162 -1354,-311 -1416,-1057 -62,-746 396,-1558 1116,-1721z"/>
                    </g>
                </g>
            </g>
            <g>
                <animateTransform additive="sum" attributeName="transform" dur="10" repeatCount="indefinite" type="translate" values="0;0;0;0;0;0;0;0;0;0;0;0;0;0;0;0;0;0;0;0;0;0;0;0;0;0;0;0;0;0;0;0;0;0;0;0;0;0;0;0;0;0;0;0;0;0;0;0;0;0;0;0;0;0;0;0;0;0;0;0;0;0;0;0;0;0;0;0;0;0;0;0;0;0;0;0;0;0;0;0;0;0;0;0;0;0;0;0;0;0;0 -14350;0"/>    
                <g>
                    <animateTransform additive="sum" attributeName="transform" dur="10" repeatCount="indefinite" type="translate" values="0;0;0;0;0;0;0;0;0;0;0;0;0;0;0;0;0;0;0;0;0;0;0;0;0;0;0;0;0;0;0;0;0;0;0;0;0;0;0;0;0;0;0;0;0;0;0;0;0;0;0;0;0;0;0;0;0;0;0;0;0;0;0;0;0;0;0;0;0;0;0;0;0;0;0;0;0;0;0;0;0;0;0;0;0;0;0;0;0;0;0;0;0 12970;0"/>
                    <g>
                        <animateTransform additive="sum" attributeName="transform" dur="10" repeatCount="indefinite" type="scale" values="1;1;1;1;1;1;1;1;1;1;1;1;1;1;1;1;1;1;1;1;1;1;1;1;1;1;1;1;1;1;1;1;1;1;1;1;1;1;1;1;1;1;1;1;1;1;1;1;1;1;1;1;1;1;1;1;1;1;1;1;1;1;1;1;1;1;1;1;1;1;1;1;1;1;1;1;1;1;1;1;1;1;1;1;1;1;1;1;1;1;1;1;1 0.1;1"/>
                        <path class="Eyes-Bear4fil152" d="M8760 13711c343,-35 386,-152 407,-575 21,423 64,540 407,575 -343,35 -386,152 -407,575 -21,-423 -64,-540 -407,-575z"/>
                        <path class="Eyes-Bear4fil152" d="M8686 14182c142,-14 159,-62 168,-237 9,175 26,223 168,237 -142,15 -159,63 -168,237 -9,-174 -26,-222 -168,-237z"/>
                        <path class="Eyes-Bear4fil152" d="M9474 14143c62,-6 70,-27 74,-104 3,77 11,98 73,104 -62,7 -70,28 -73,104 -4,-76 -12,-97 -74,-104z"/>
                    </g>
                </g>
            </g>
            <g>
                <animateTransform additive="sum" attributeName="transform" dur="10" repeatCount="indefinite" type="translate" values="0;0;0;0;0;0;0;0;0;0;0;0;0;0;0;0;0;0;0;0;0;0;0;0;0;0;0;0;0;0;0;0;0;0;0;0;0;0;0;0;0;0;0;0;0;0;0;0;0;0;0;0;0;0;0;0;0;0;0;0;0;0;0;0;0;0;0;0;0;0;0;0;0;0;0;0;0;0;0;0;0;0;0;0;0;0;0;0;0;0;0 -14300;0"/>    
                <g>
                    <animateTransform additive="sum" attributeName="transform" dur="10" repeatCount="indefinite" type="translate" values="0;0;0;0;0;0;0;0;0;0;0;0;0;0;0;0;0;0;0;0;0;0;0;0;0;0;0;0;0;0;0;0;0;0;0;0;0;0;0;0;0;0;0;0;0;0;0;0;0;0;0;0;0;0;0;0;0;0;0;0;0;0;0;0;0;0;0;0;0;0;0;0;0;0;0;0;0;0;0;0;0;0;0;0;0;0;0;0;0;0;0;0;0 12970;0"/>
                    <g>
                        <animateTransform additive="sum" attributeName="transform" dur="10" repeatCount="indefinite" type="scale" values="1;1;1;1;1;1;1;1;1;1;1;1;1;1;1;1;1;1;1;1;1;1;1;1;1;1;1;1;1;1;1;1;1;1;1;1;1;1;1;1;1;1;1;1;1;1;1;1;1;1;1;1;1;1;1;1;1;1;1;1;1;1;1;1;1;1;1;1;1;1;1;1;1;1;1;1;1;1;1;1;1;1;1;1;1;1;1;1;1;1;1;1;1 0.1;1"/>
                        <path class="Eyes-Bear4fil152" d="M10839 14187c62,-7 70,-28 74,-104 3,76 11,97 73,104 -62,6 -70,27 -73,103 -4,-76 -12,-97 -74,-103z"/>
                        <path class="Eyes-Bear4fil152" d="M10624 13964c62,-6 70,-27 74,-104 4,77 11,98 73,104 -62,6 -69,28 -73,104 -4,-76 -12,-98 -74,-104z"/>
                    </g>
                </g>
            </g>
            <g>
                <animateTransform additive="sum" attributeName="transform" dur="10" repeatCount="indefinite" type="translate" values="0;0;0;0;0;0;0;0;0;0;0;0;0;0;0;0;0;0;0;0;0;0;0;0;0;0;0;0;0;0;0;0;0;0;0;0;0;0;0;0;0;0;0;0;0;0;0;0;0;0;0;0;0;0;0;0;0;0;0;0;0;0;0;0;0;0;0;0;0;0;0;0;0;0;0;0;0;0;0;0;0;0;0;0;0;0;0;0;0;0;0 -13500;0"/>  
                <g>
                    <animateTransform additive="sum" attributeName="transform" dur="10" repeatCount="indefinite" type="translate" values="0;0;0;0;0;0;0;0;0;0;0;0;0;0;0;0;0;0;0;0;0;0;0;0;0;0;0;0;0;0;0;0;0;0;0;0;0;0;0;0;0;0;0;0;0;0;0;0;0;0;0;0;0;0;0;0;0;0;0;0;0;0;0;0;0;0;0;0;0;0;0;0;0;0;0;0;0;0;0;0;0;0;0;0;0;0;0;0;0;0;0;0 13000;0"/>
                    <g>
                        <animateTransform additive="sum" attributeName="transform" dur="10" repeatCount="indefinite" type="scale" values="1;1;1;1;1;1;1;1;1;1;1;1;1;1;1;1;1;1;1;1;1;1;1;1;1;1;1;1;1;1;1;1;1;1;1;1;1;1;1;1;1;1;1;1;1;1;1;1;1;1;1;1;1;1;1;1;1;1;1;1;1;1;1;1;1;1;1;1;1;1;1;1;1;1;1;1;1;1;1;1;1;1;1;1;1;1;1;1;1;1;1;1 0.05;1"/>
                        <path class="Eyes-Bear4fil157" d="M11515 13942c377,-942 108,-2228 -690,-2488 -646,-209 -1290,10 -1719,504 -292,336 -500,683 -570,1052 437,-844 1281,-1255 1921,-1150 910,149 1141,1024 1058,2082z"/>
                    </g>
                </g>
                <g>
                    <animateTransform additive="sum" attributeName="transform" dur="10" repeatCount="indefinite" type="translate" values="0;0;0;0;0;0;0;0;0;0;0;0;0;0;0;0;0;0;0;0;0;0;0;0;0;0;0;0;0;0;0;0;0;0;0;0;0;0;0;0;0;0;0;0;0;0;0;0;0;0;0;0;0;0;0;0;0;0;0;0;0;0;0;0;0;0;0;0;0;0;0;0;0;0;0;0;0;0;0;0;0;0;0;0;0;0;0;0;0;0;0;0 13150;0"/>
                    <g>
                        <animateTransform additive="sum" attributeName="transform" dur="10" repeatCount="indefinite" type="scale" values="1;1;1;1;1;1;1;1;1;1;1;1;1;1;1;1;1;1;1;1;1;1;1;1;1;1;1;1;1;1;1;1;1;1;1;1;1;1;1;1;1;1;1;1;1;1;1;1;1;1;1;1;1;1;1;1;1;1;1;1;1;1;1;1;1;1;1;1;1;1;1;1;1;1;1;1;1;1;1;1;1;1;1;1;1;1;1;1;1;1;1;1 0.05;1"/>
                        <circle class="Eyes-Bear4fil152" r="235" transform="matrix(1.1003 -1.76245 1.41404 0.727025 9693.02 12199.1)"/>
                        <circle class="Eyes-Bear4fil152" r="235" transform="matrix(0.420342 -0.0567818 0.0603783 0.520696 11346.7 13228.7)"/>
                        <circle class="Eyes-Bear4fil152" r="235" transform="matrix(0.267592 -1.15835 0.918392 0.137323 11190.5 13753.5)"/>
                    </g>
                </g>    
            </g>
            <g>
                <animateTransform additive="sum" attributeName="transform" dur="10" repeatCount="indefinite" type="scale" values="1;1;1;1;1;1;1;1;1;1;1;1;1;1;1;1;1;1;1;1;1;1;1;1;1;1;1;1;1;1;1;1;1;1;1;1;1;1;1;1;1;1;1;1;1;1;1;1;1;1;1;1;1;1;1;1;1;1;1;1;1;1;1;1;1;1;1;1;1;1;1;1;1;1;1;1;1;1;1;1;1;1;1;1;1;1;1;1;1;1;1 0.01;1"/> 
                <path class="Eyes-Bear4fil22 Eyes-Bear4str4" d="M8933 14628c872,342 1956,41 2398,-392 639,-627 310,-2388 -326,-2678 -626,-286 -1345,-121 -1808,342 -952,949 -952,2458 -264,2728z"/>
            </g>
        </g>
    </g>
  <g>
        <animateTransform additive="sum" attributeName="transform" dur="10" repeatCount="indefinite" type="translate" values="0;0;0;0;0;0;0;0;0;0;0;0;0;0;0;0;0;0;0;0;0;0;0;0;0;0;0;0;0;0;0;0;0;0;0;0;0;0;0;0;0;0;0;0;0;0;0;0;0;0;0;0;0;0;0;0;0;0;0;0;0;0;0;0;0;0;0;0;0;0;0;0;0;0;0;0;0;0;0;0;0;0;0;0;0;0;0;0;0;0;0 14300;0"/>
        <g>
            <g>
                <animateTransform additive="sum" attributeName="transform" dur="10" repeatCount="indefinite" type="scale" values="1;1;1;1;1;1;1;1;1;1;1;1;1;1;1;1;1;1;1;1;1;1;1;1;1;1;1;1;1;1;1;1;1;1;1;1;1;1;1;1;1;1;1;1;1;1;1;1;1;1;1;1;1;1;1;1;1;1;1;1;1;1;1;1;1;1;1;1;1;1;1;1;1;1;1;1;1;1;1;1;1;1;1;1;1;1;1;1;1;1;1 0.01;1"/> 
                <path class="Eyes-Bear4fil549" d="M18374 14628c-865,342 -1956,41 -2398,-392 -638,-627 -309,-2388 327,-2678 626,-286 1345,-121 1808,342 952,949 951,2457 263,2728z"/>
            </g>
            <g>
                <animateTransform additive="sum" attributeName="transform" dur="10" repeatCount="indefinite" type="scale" values="1;1;1;1;1;1;1;1;1;1;1;1;1;1;1;1;1;1;1;1;1;1;1;1;1;1;1;1;1;1;1;1;1;1;1;1;1;1;1;1;1;1;1;1;1;1;1;1;1;1;1;1;1;1;1;1;1;1;1;1;1;1;1;1;1;1;1;1;1;1;1;1;1;1;1;1;1;1;1;1;1;1;1;1;1;1;1;1;1;1;1 0.01;1"/> 
                <path class="Eyes-Bear4fil550" d="M15633 13201c-36,-885 311,-1648 909,-1755 537,-96 1101,115 1484,535 749,822 746,2447 -594,2577 -795,78 -1682,-423 -1799,-1357z"/>
            </g>
            <g>
                <animateTransform additive="sum" attributeName="transform" dur="10" repeatCount="indefinite" type="translate" values="0;0;0;0;0;0;0;0;0;0;0;0;0;0;0;0;0;0;0;0;0;0;0;0;0;0;0;0;0;0;0;0;0;0;0;0;0;0;0;0;0;0;0;0;0;0;0;0;0;0;0;0;0;0;0;0;0;0;0;0;0;0;0;0;0;0;0;0;0;0;0;0;0;0;0;0;0;0;0;0;0;0;0;0;0;0;0;0;0;0;0 -14590;0"/>    
                <g>
                    <animateTransform additive="sum" attributeName="transform" dur="10" repeatCount="indefinite" type="translate" values="0;0;0;0;0;0;0;0;0;0;0;0;0;0;0;0;0;0;0;0;0;0;0;0;0;0;0;0;0;0;0;0;0;0;0;0;0;0;0;0;0;0;0;0;0;0;0;0;0;0;0;0;0;0;0;0;0;0;0;0;0;0;0;0;0;0;0;0;0;0;0;0;0;0;0;0;0;0;0;0;0;0;0;0;0;0;0;0;0;0;0;0 14000;0"/>
                    <g>
                        <animateTransform additive="sum" attributeName="transform" dur="10" repeatCount="indefinite" type="scale" values="1;1;1;1;1;1;1;1;1;1;1;1;1;1;1;1;1;1;1;1;1;1;1;1;1;1;1;1;1;1;1;1;1;1;1;1;1;1;1;1;1;1;1;1;1;1;1;1;1;1;1;1;1;1;1;1;1;1;1;1;1;1;1;1;1;1;1;1;1;1;1;1;1;1;1;1;1;1;1;1;1;1;1;1;1;1;1;1;1;1;1;1 0.05;1"/> 
                        <path class="Eyes-Bear4fil551" d="M17113 11453c-720,-162 -1326,430 -1388,1176 -62,746 368,1439 1088,1602 720,162 1353,-311 1415,-1057 62,-746 -396,-1558 -1115,-1721z"/>
                    </g>
                </g>
            </g>
            <g>
                <animateTransform additive="sum" attributeName="transform" dur="10" repeatCount="indefinite" type="translate" values="0;0;0;0;0;0;0;0;0;0;0;0;0;0;0;0;0;0;0;0;0;0;0;0;0;0;0;0;0;0;0;0;0;0;0;0;0;0;0;0;0;0;0;0;0;0;0;0;0;0;0;0;0;0;0;0;0;0;0;0;0;0;0;0;0;0;0;0;0;0;0;0;0;0;0;0;0;0;0;0;0;0;0;0;0;0;0;0;0;0;0 -14350;0"/>    
                <g>
                    <animateTransform additive="sum" attributeName="transform" dur="10" repeatCount="indefinite" type="translate" values="0;0;0;0;0;0;0;0;0;0;0;0;0;0;0;0;0;0;0;0;0;0;0;0;0;0;0;0;0;0;0;0;0;0;0;0;0;0;0;0;0;0;0;0;0;0;0;0;0;0;0;0;0;0;0;0;0;0;0;0;0;0;0;0;0;0;0;0;0;0;0;0;0;0;0;0;0;0;0;0;0;0;0;0;0;0;0;0;0;0;0;0;0 12970;0"/>
                    <g>
                        <animateTransform additive="sum" attributeName="transform" dur="10" repeatCount="indefinite" type="scale" values="1;1;1;1;1;1;1;1;1;1;1;1;1;1;1;1;1;1;1;1;1;1;1;1;1;1;1;1;1;1;1;1;1;1;1;1;1;1;1;1;1;1;1;1;1;1;1;1;1;1;1;1;1;1;1;1;1;1;1;1;1;1;1;1;1;1;1;1;1;1;1;1;1;1;1;1;1;1;1;1;1;1;1;1;1;1;1;1;1;1;1;1;1 0.1;1"/>
                        <path class="Eyes-Bear4fil152" d="M16882 13603c-343,-35 -385,-152 -407,-575 -21,423 -64,540 -407,575 343,35 386,152 407,576 22,-424 64,-541 407,-576z"/>
                        <path class="Eyes-Bear4fil152" d="M16354 14038c-141,-14 -158,-62 -167,-237 -9,175 -27,223 -168,237 141,15 159,63 168,237 9,-174 26,-222 167,-237z"/>
                        <path class="Eyes-Bear4fil152" d="M16867 14215c-62,-6 -69,-27 -73,-103 -4,76 -12,97 -74,103 62,7 70,28 74,104 4,-76 11,-97 73,-104z"/>
                    </g>
                </g>
            </g>
            <g>
                <animateTransform additive="sum" attributeName="transform" dur="10" repeatCount="indefinite" type="translate" values="0;0;0;0;0;0;0;0;0;0;0;0;0;0;0;0;0;0;0;0;0;0;0;0;0;0;0;0;0;0;0;0;0;0;0;0;0;0;0;0;0;0;0;0;0;0;0;0;0;0;0;0;0;0;0;0;0;0;0;0;0;0;0;0;0;0;0;0;0;0;0;0;0;0;0;0;0;0;0;0;0;0;0;0;0;0;0;0;0;0;0 -14300;0"/>    
                <g>
                    <animateTransform additive="sum" attributeName="transform" dur="10" repeatCount="indefinite" type="translate" values="0;0;0;0;0;0;0;0;0;0;0;0;0;0;0;0;0;0;0;0;0;0;0;0;0;0;0;0;0;0;0;0;0;0;0;0;0;0;0;0;0;0;0;0;0;0;0;0;0;0;0;0;0;0;0;0;0;0;0;0;0;0;0;0;0;0;0;0;0;0;0;0;0;0;0;0;0;0;0;0;0;0;0;0;0;0;0;0;0;0;0;0;0 12970;0"/>
                    <g>
                        <animateTransform additive="sum" attributeName="transform" dur="10" repeatCount="indefinite" type="scale" values="1;1;1;1;1;1;1;1;1;1;1;1;1;1;1;1;1;1;1;1;1;1;1;1;1;1;1;1;1;1;1;1;1;1;1;1;1;1;1;1;1;1;1;1;1;1;1;1;1;1;1;1;1;1;1;1;1;1;1;1;1;1;1;1;1;1;1;1;1;1;1;1;1;1;1;1;1;1;1;1;1;1;1;1;1;1;1;1;1;1;1;1;1 0.1;1"/>
                        <path class="Eyes-Bear4fil152" d="M18342 14346c-62,-7 -69,-28 -73,-104 -4,76 -12,97 -74,104 62,6 70,27 74,104 4,-77 11,-98 73,-104z"/>
                        <path class="Eyes-Bear4fil152" d="M18093 14094c-62,-6 -70,-27 -74,-103 -4,76 -11,97 -73,103 62,7 69,28 73,104 4,-76 12,-97 74,-104z"/>
                    </g>
                </g>
            </g>
            <g>
                <animateTransform additive="sum" attributeName="transform" dur="10" repeatCount="indefinite" type="translate" values="0;0;0;0;0;0;0;0;0;0;0;0;0;0;0;0;0;0;0;0;0;0;0;0;0;0;0;0;0;0;0;0;0;0;0;0;0;0;0;0;0;0;0;0;0;0;0;0;0;0;0;0;0;0;0;0;0;0;0;0;0;0;0;0;0;0;0;0;0;0;0;0;0;0;0;0;0;0;0;0;0;0;0;0;0;0;0;0;0;0;0 -13500;0"/>  
                <g>
                    <animateTransform additive="sum" attributeName="transform" dur="10" repeatCount="indefinite" type="translate" values="0;0;0;0;0;0;0;0;0;0;0;0;0;0;0;0;0;0;0;0;0;0;0;0;0;0;0;0;0;0;0;0;0;0;0;0;0;0;0;0;0;0;0;0;0;0;0;0;0;0;0;0;0;0;0;0;0;0;0;0;0;0;0;0;0;0;0;0;0;0;0;0;0;0;0;0;0;0;0;0;0;0;0;0;0;0;0;0;0;0;0;0 13000;0"/>
                    <g>
						<animateTransform additive="sum" attributeName="transform" dur="10" repeatCount="indefinite" type="scale" values="1;1;1;1;1;1;1;1;1;1;1;1;1;1;1;1;1;1;1;1;1;1;1;1;1;1;1;1;1;1;1;1;1;1;1;1;1;1;1;1;1;1;1;1;1;1;1;1;1;1;1;1;1;1;1;1;1;1;1;1;1;1;1;1;1;1;1;1;1;1;1;1;1;1;1;1;1;1;1;1;1;1;1;1;1;1;1;1;1;1;1;1 0.05;1"/>
                        <path class="Eyes-Bear4fil157" d="M15793 13942c-378,-942 -108,-2228 690,-2488 645,-209 1289,10 1719,504 292,336 500,683 569,1052 -437,-844 -1280,-1255 -1920,-1150 -911,149 -1142,1024 -1058,2082z"/>
                    </g>
                </g>
                <g>
                    <animateTransform additive="sum" attributeName="transform" dur="10" repeatCount="indefinite" type="translate" values="0;0;0;0;0;0;0;0;0;0;0;0;0;0;0;0;0;0;0;0;0;0;0;0;0;0;0;0;0;0;0;0;0;0;0;0;0;0;0;0;0;0;0;0;0;0;0;0;0;0;0;0;0;0;0;0;0;0;0;0;0;0;0;0;0;0;0;0;0;0;0;0;0;0;0;0;0;0;0;0;0;0;0;0;0;0;0;0;0;0;0;0 13150;0"/>
                    <g>
                        <animateTransform additive="sum" attributeName="transform" dur="10" repeatCount="indefinite" type="scale" values="1;1;1;1;1;1;1;1;1;1;1;1;1;1;1;1;1;1;1;1;1;1;1;1;1;1;1;1;1;1;1;1;1;1;1;1;1;1;1;1;1;1;1;1;1;1;1;1;1;1;1;1;1;1;1;1;1;1;1;1;1;1;1;1;1;1;1;1;1;1;1;1;1;1;1;1;1;1;1;1;1;1;1;1;1;1;1;1;1;1;1;1 0.05;1"/>
                        <circle class="Eyes-Bear4fil152" r="235" transform="matrix(1.00604 -1.81791 1.45034 0.651615 16535 12116.9)"/>
                        <circle class="Eyes-Bear4fil152" r="235" transform="matrix(-0.423778 -0.0179919 -0.0123696 0.524039 18542.8 13364.8)"/>
                        <circle class="Eyes-Bear4fil152" r="235" transform="matrix(0.508785 -1.07448 -0.805469 -0.462082 18462.4 13902.7)"/>
                    </g>
                </g> 
            </g>
			<g>
                <animateTransform additive="sum" attributeName="transform" dur="10" repeatCount="indefinite" type="scale" values="1;1;1;1;1;1;1;1;1;1;1;1;1;1;1;1;1;1;1;1;1;1;1;1;1;1;1;1;1;1;1;1;1;1;1;1;1;1;1;1;1;1;1;1;1;1;1;1;1;1;1;1;1;1;1;1;1;1;1;1;1;1;1;1;1;1;1;1;1;1;1;1;1;1;1;1;1;1;1;1;1;1;1;1;1;1;1;1;1;1;1 0.01;1"/> 
                <path class="Eyes-Bear4fil22 Eyes-Bear4str4" d="M18374 14628c-871,342 -1956,41 -2398,-392 -638,-627 -309,-2388 327,-2678 626,-286 1345,-121 1808,342 952,949 952,2458 263,2728z"/>
            </g>
        </g>
    </g>  
  <g>
        <animateTransform additive="sum" attributeName="transform" dur="10" repeatCount="indefinite" type="translate" values="0;0;0;0;0;0;0;0;0;0;0;0;0;0;0;0;0;0;0;0;0;0;0;0;0;0;0;0;0;0;0;0;0;0;0;0;0;0;0;0;0;0;0;0;0;0;0;0;0;0;0;0;0;0;0;0;0;0;0;0;0;0;0;0;0;0;0;0;0;0;0;0;0;0;0;0;0;0;0;0;0;0;0;0;0;0;0;0;0;0;3000 -2100;0"/>
        <g>
            <animateTransform additive="sum" attributeName="transform" dur="10" repeatCount="indefinite" type="rotate" values="0;0;0;0;0;0;0;0;0;0;0;0;0;0;0;0;0;0;0;0;0;0;0;0;0;0;0;0;0;0;0;0;0;0;0;0;0;0;0;0;0;0;0;0;0;0;0;0;0;0;0;0;0;0;0;0;0;0;0;0;0;0;0;0;0;0;0;0;0;0;0;0;0;0;0;0;0;0;0;0;0;0;0;0;0;0;0;0;0;0;10;0"/>
            <g>
                <animateTransform additive="sum" attributeName="transform" dur="10" repeatCount="indefinite" type="translate" values="0;0;0;0;0;0;0;0;0;0;0;0;0;0;0;0;0;0;0;0;0;0;0;0;0;0;0;0;0;0;0;0;0;0;0;0;0;0;0;0;0;0;0;0;0;0;0;0;0;0;0;0;0;0;0;0;0;0;0;0;0;0;0;0;0;0;0;0;0;0;0;0;0;0;0;0;0;0;0;0;0;0;0;0;0;0;0;0;0;0;0 1500;0"/> 
                <path class="Eyes-Bear4fil14" d="M10401 9875c-63,108 -462,201 -859,474 -364,250 -590,589 -759,563 -189,-28 -207,-429 -90,-643 95,-176 470,-454 904,-549 512,-114 881,25 804,155z"/>
            </g>
            <g>
                <animateTransform additive="sum" attributeName="transform" dur="10" repeatCount="indefinite" type="translate" values="0;0;0;0;0;0;0;0;0;0;0;0;0;0;0;0;0;0;0;0;0;0;0;0;0;0;0;0;0;0;0;0;0;0;0;0;0;0;0;0;0;0;0;0;0;0;0;0;0;0;0;0;0;0;0;0;0;0;0;0;0;0;0;0;0;0;0;0;0;0;0;0;0;0;0;0;0;0;0;0;0;0;0;0;0;0;0;0;0;0;0 1500;0"/> 
                <path class="Eyes-Bear4fil155" d="M10401 9875c-63,108 -462,201 -859,474 -364,250 -590,589 -759,563 -189,-28 -207,-429 -90,-643 95,-176 470,-454 904,-549 512,-114 881,25 804,155z"/>
            </g>
        </g>
    </g>  
	<g>
        <animateTransform additive="sum" attributeName="transform" dur="10" repeatCount="indefinite" type="translate" values="0;0;0;0;0;0;0;0;0;0;0;0;0;0;0;0;0;0;0;0;0;0;0;0;0;0;0;0;0;0;0;0;0;0;0;0;0;0;0;0;0;0;0;0;0;0;0;0;0;0;0;0;0;0;0;0;0;0;0;0;0;0;0;0;0;0;0;0;0;0;0;0;0;0;0;0;0;0;0;0;0;0;0;0;0;0;0;0;0;0;-2100 3000;0"/>
        <g>
            <animateTransform additive="sum" attributeName="transform" dur="10" repeatCount="indefinite" type="rotate" values="0;0;0;0;0;0;0;0;0;0;0;0;0;0;0;0;0;0;0;0;0;0;0;0;0;0;0;0;0;0;0;0;0;0;0;0;0;0;0;0;0;0;0;0;0;0;0;0;0;0;0;0;0;0;0;0;0;0;0;0;0;0;0;0;0;0;0;0;0;0;0;0;0;0;0;0;0;0;0;0;0;0;0;0;0;0;0;0;0;0;-10;0"/>
            <g>
                <animateTransform additive="sum" attributeName="transform" dur="10" repeatCount="indefinite" type="translate" values="0;0;0;0;0;0;0;0;0;0;0;0;0;0;0;0;0;0;0;0;0;0;0;0;0;0;0;0;0;0;0;0;0;0;0;0;0;0;0;0;0;0;0;0;0;0;0;0;0;0;0;0;0;0;0;0;0;0;0;0;0;0;0;0;0;0;0;0;0;0;0;0;0;0;0;0;0;0;0;0;0;0;0;0;0;0;0;0;0;0;0 1500;0"/> 
                <path class="Eyes-Bear4fil14" d="M16906 9875c64,108 462,201 859,474 365,250 590,589 760,563 189,-28 206,-429 90,-643 -96,-176 -471,-454 -904,-549 -512,-114 -881,25 -805,155z"/>
            </g>
            <g>
                <animateTransform additive="sum" attributeName="transform" dur="10" repeatCount="indefinite" type="translate" values="0;0;0;0;0;0;0;0;0;0;0;0;0;0;0;0;0;0;0;0;0;0;0;0;0;0;0;0;0;0;0;0;0;0;0;0;0;0;0;0;0;0;0;0;0;0;0;0;0;0;0;0;0;0;0;0;0;0;0;0;0;0;0;0;0;0;0;0;0;0;0;0;0;0;0;0;0;0;0;0;0;0;0;0;0;0;0;0;0;0;0 1500;0"/> 
                <path class="Eyes-Bear4fil155" d="M16906 9875c64,108 462,201 859,474 365,250 590,589 760,563 189,-28 206,-429 90,-643 -96,-176 -471,-454 -904,-549 -512,-114 -881,25 -805,155z"/>
            </g>
        </g>
    </g>
 </g><g id="Moustache-Bear0">
 <animateTransform additive="sum" attributeName="transform" dur="10" repeatCount="indefinite" type="translate" values="0;0 200;0;0 200;0;0 200;0;0 200;0"/>
  <metadata id="CorelCorpID_296Corel-Layer"/>
  <rect class="Moustache-Bear0fil22" height="832" width="832" x="13238" y="12735"/>
 </g><g id="Nose-Bear0">
 <animateTransform additive="sum" attributeName="transform" dur="10" repeatCount="indefinite" type="translate" values="0;0 200;0;0 200;0;0 200;0;0 200;0"/>
  <metadata id="CorelCorpID_304Corel-Layer"/>
  <path class="Nose-Bear0fil598 Nose-Bear0str0" d="M13654 14109c-356,0 -852,135 -813,337 34,185 361,481 813,481 452,0 778,-296 813,-481 38,-202 -457,-337 -813,-337z" style="fill:#d94152"/>
 </g><g id="HatBaseballOrange-Big">
 <animateTransform additive="sum" attributeName="transform" dur="10" repeatCount="indefinite" type="translate" values="0;0 200;0;0 200;0;0 200;0;0 200;0"/>
  <metadata id="CorelCorpID_56Corel-Layer"/>
  <g id="_3198515354512">
   <path class="HatBaseballOrange-Bigfil12" d="M7851 12644c0,0 772,1190 2139,937 1366,-254 2416,-728 3833,-658 2161,106 3163,468 3947,544 600,58 1261,-726 1759,-1114 -1898,-464 -4137,-1320 -6035,-1784 -1695,641 -3947,1434 -5643,2075z" style="fill:#da9141"/>
   <path class="HatBaseballOrange-Bigfil324 HatBaseballOrange-Bigstr1" d="M13469 4732c415,-11 756,139 761,335 6,195 -327,363 -743,374 -415,11 -756,-139 -761,-335 -5,-196 327,-363 743,-374z" style="fill:#966468"/>
   <path class="HatBaseballOrange-Bigfil325" d="M13479 5129c-1503,39 -3390,646 -4730,2087 -1349,1452 -2010,5315 -1425,5160 1280,-1224 3779,-1885 6294,-1951 2515,-66 5046,463 6388,1618 593,125 -270,-3698 -1694,-5078 -1413,-1369 -3329,-1875 -4833,-1836z" style="fill:#898915"/>
   <path class="HatBaseballOrange-Bigfil165 HatBaseballOrange-Bigstr6" d="M12527 5225c-3247,751 -4173,3587 -4355,6197" style="fill:#70d5f9"/>
   <path class="HatBaseballOrange-Bigfil165 HatBaseballOrange-Bigstr6" d="M14435 5175c3282,580 4355,3364 4674,5961" style="fill:#089258"/>
   <path class="HatBaseballOrange-Bigfil165 HatBaseballOrange-Bigstr7" d="M13677 9849c-153,-1926 -82,-3150 -251,-4729" style="fill:#a6eb36"/>
   <path class="HatBaseballOrange-Bigfil165 HatBaseballOrange-Bigstr6" d="M13405 9873c-101,-1438 -120,-2903 -255,-4069 -44,-378 -6,-622 51,-664" style="fill:#64ae29"/>
   <path class="HatBaseballOrange-Bigfil165 HatBaseballOrange-Bigstr6" d="M13981 9859c-58,-1440 -202,-2899 -197,-4073 2,-381 -63,-619 -123,-654" style="fill:#fe9135"/>
   <path class="HatBaseballOrange-Bigfil167" d="M10082 6136c-402,265 -988,709 -1333,1080 -1349,1452 -2010,5315 -1425,5160 371,-355 580,-627 1126,-886 -992,550 -298,-3574 1632,-5354z" style="fill:#348b38"/>
   <path class="HatBaseballOrange-Bigfil11 HatBaseballOrange-Bigstr1" d="M13479 5129c-1503,39 -3390,646 -4730,2087 -1349,1452 -2010,5315 -1425,5160 1280,-1224 3779,-1885 6294,-1951 2515,-66 5046,463 6388,1618 593,125 -270,-3698 -1694,-5078 -1413,-1369 -3329,-1875 -4833,-1836z" style="fill:#a7b78c"/>
   <path class="HatBaseballOrange-Bigfil326 HatBaseballOrange-Bigstr1" d="M7324 12376c77,276 493,783 788,841 803,157 1908,-1369 5541,-1464 3633,-95 4817,1370 5610,1172 292,-74 681,-602 743,-882 -1881,-3038 -10963,-2799 -12682,333z" style="fill:#8ddd40"/>
   <path class="HatBaseballOrange-Bigfil12" d="M7324 12376c77,276 493,783 788,841 803,157 1908,-1369 5541,-1464 3633,-95 4817,1370 5610,1172 109,-28 231,-118 345,-236 -635,341 -2065,-1202 -5544,-1282 -3006,-70 -5129,1309 -5938,52 -342,271 -615,577 -802,917z" style="fill:#0b0b21"/>
   <path class="HatBaseballOrange-Bigfil260" d="M19086 11283c440,1372 -2755,-284 -5587,70 2044,-61 3925,523 5319,1189 569,287 981,-142 1057,-469 -258,-354 -475,-571 -789,-790z" style="fill:#cb0d4a"/>
  </g>
 </g></svg>