<svg xmlns="http://www.w3.org/2000/svg" xmlns:xlink="http://www.w3.org/1999/xlink" style="shape-rendering:geometricPrecision; text-rendering:geometricPrecision; image-rendering:optimizeQuality; fill-rule:evenodd; clip-rule:evenodd" version="1.1" viewBox="0 0 29000 29000" xml:space="preserve"><defs><style type="text/css">.HairBack-Bear0fil22 {fill:none}
.Tail-Bear0fil22 {fill:none}
.RightFoot-Bear3fil432 {fill:url(#RightFoot-Bear3id650)}
.RightFoot-Bear3fil14 {fill:black;fill-opacity:0.200000}
.RightFoot-Bear3fil32 {fill:black;fill-rule:nonzero}
.RightLeg-Bear4fil439 {fill:url(#RightLeg-Bear4id995)}
.RightLeg-Bear4fil440 {fill:url(#RightLeg-Bear4id40)}
.RightLeg-Bear4fil14 {fill:black;fill-opacity:0.200000}
.RightLeg-Bear4fil32 {fill:black;fill-rule:nonzero}
.LeftFoot-Bear3fil442 {fill:url(#LeftFoot-Bear3id651)}
.LeftFoot-Bear3fil14 {fill:black;fill-opacity:0.200000}
.LeftFoot-Bear3fil32 {fill:black;fill-rule:nonzero}
.LeftLeg-Bear4fil449 {fill:url(#LeftLeg-Bear4id996)}
.LeftLeg-Bear4fil450 {fill:url(#LeftLeg-Bear4id8)}
.LeftLeg-Bear4fil14 {fill:black;fill-opacity:0.200000}
.LeftLeg-Bear4fil32 {fill:black;fill-rule:nonzero}
.RightHand-Bear0fil452 {fill:url(#RightHand-Bear0id388)}
.RightHand-Bear0fil14 {fill:black;fill-opacity:0.200000}
.RightHand-Bear0fil22 {fill:none}
.RightHand-Bear0str0 {stroke:black;stroke-width:150;stroke-linecap:round;stroke-linejoin:round}
.RightPaw-Bear0fil457 {fill:#f5f8d5}
.RightPaw-Bear0fil32 {fill:black;fill-rule:nonzero}
.RightPaw-Bear0fil458 {fill:#A16A6A}
.LeftHand-Bear0fil465 {fill:url(#LeftHand-Bear0id386)}
.LeftHand-Bear0fil14 {fill:black;fill-opacity:0.200000}
.LeftHand-Bear0fil22 {fill:none}
.LeftHand-Bear0str0 {stroke:black;stroke-width:150;stroke-linecap:round;stroke-linejoin:round}
.LeftPaw-Bear0fil457 {fill:#f5f8d5}
.LeftPaw-Bear0fil32 {fill:black;fill-rule:nonzero}
.LeftPaw-Bear0fil458 {fill:#A16A6A}
.Body-Bear5fil476 {fill:url(#Body-Bear5id267)}
.Body-Bear5fil14 {fill:black;fill-opacity:0.200000}
.Body-Bear5fil32 {fill:black;fill-rule:nonzero}
.Body-Bear5fil22 {fill:none}
.Body-Bear5fil482 {fill:url(#Body-Bear5id211)}
.Head-Bear2fil515 {fill:url(#Head-Bear2id233)}
.Head-Bear2fil32 {fill:black;fill-rule:nonzero}
.Head-Bear2fil14 {fill:black;fill-opacity:0.200000}
.Head-Bear2fil516 {fill:url(#Head-Bear2id1046)}
.Mouth-Bear0fil22 {fill:none}
.Mouth-Bear0str0 {stroke:black;stroke-width:150;stroke-linecap:round;stroke-linejoin:round}
.Mouth-Bear0fil100 {fill:black}
.Eyes-Bear3fil540 {fill:url(#Eyes-Bear3id940)}
.Eyes-Bear3fil541 {fill:url(#Eyes-Bear3id712)}
.Eyes-Bear3fil542 {fill:url(#Eyes-Bear3id670)}
.Eyes-Bear3fil152 {fill:white}
.Eyes-Bear3fil157 {fill:black;fill-opacity:0.501961}
.Eyes-Bear3fil32 {fill:black;fill-rule:nonzero}
.Eyes-Bear3fil155 {fill:#8c6821}
.Eyes-Bear3fil14 {fill:black;fill-opacity:0.200000}
.Eyes-Bear3fil543 {fill:url(#Eyes-Bear3id939)}
.Eyes-Bear3fil544 {fill:url(#Eyes-Bear3id725)}
.Eyes-Bear3fil545 {fill:url(#Eyes-Bear3id695)}
.Moustache-Bear1fil100 {fill:black}
.Nose-Bear0fil598 {fill:url(#Nose-Bear0id451)}
.Nose-Bear0str0 {stroke:black;stroke-width:150;stroke-linecap:round;stroke-linejoin:round}
.BraceletLeather-Bigfil43new {fill:white;fill-opacity:0.200000}
.BraceletLeather-Bigfil46new {fill:white;fill-rule:nonzero;fill-opacity:0.200000}
.BraceletLeather-Bigfil51new {fill:url(#BraceletLeather-Bigid222new)}
.BraceletLeather-Bigstr3new {stroke:black;stroke-width:100;stroke-linecap:round;stroke-linejoin:round}
.BraceletLeather-Bigfil33new {fill:none}
.BraceletLeather-Bigfil52new {fill:url(#BraceletLeather-Bigid38new)}
.BraceletLeather-Bigfil53new {fill:url(#BraceletLeather-Bigid698new);fill-rule:nonzero}
.BraceletLeather-Bigstr4new {stroke:black;stroke-width:100}
.BraceletLeather-Bigfil47new {fill:none;fill-rule:nonzero}
.BraceletLeather-Bigfil54new {fill:url(#BraceletLeather-Bigid16new)}
.BraceletLeather-Bigfil55new {fill:url(#BraceletLeather-Bigid206new)}
.BraceletLeather-Bigfil56new {fill:url(#BraceletLeather-Bigid691new);fill-rule:nonzero}
.NecklaceYinYangfil225new {fill:url(#NecklaceYinYangid676new);fill-rule:nonzero}
.NecklaceYinYangfil46new {fill:white;fill-rule:nonzero;fill-opacity:0.200000}
.NecklaceYinYangfil84new {fill:black}
.NecklaceYinYangfil83new {fill:white}
.NecklaceYinYangfil47new {fill:none;fill-rule:nonzero}
.NecklaceYinYangstr4new {stroke:black;stroke-width:100}
.NecklaceYinYangfil226new {fill:url(#NecklaceYinYangid677new);fill-rule:nonzero}
.NecklaceYinYangstr3new {stroke:black;stroke-width:100;stroke-linecap:round;stroke-linejoin:round}
.NecklaceYinYangfil227new {fill:url(#NecklaceYinYangid669new);fill-rule:nonzero}
.NecklaceYinYangfil228new {fill:url(#NecklaceYinYangid705new);fill-rule:nonzero}
.NecklaceYinYangfil229new {fill:url(#NecklaceYinYangid685new);fill-rule:nonzero}
.NecklaceYinYangfil230new {fill:url(#NecklaceYinYangid101new)}
.HatFreddyBack-Bigfil50 {fill:url(#HatFreddyBack-Bigid35)}
.HatFreddyBack-Bigstr0 {stroke:black;stroke-width:150;stroke-linecap:round;stroke-linejoin:round}
.HatFreddyBack-Bigfil51 {fill:url(#HatFreddyBack-Bigid38)}
.HatFreddy-Bigfil1 {fill:black;fill-opacity:0.200000}
.HatFreddy-Bigfil7 {fill:black;fill-opacity:0.200000}
.HatFreddy-Bigfil54 {fill:#FFFFEB;fill-opacity:0.200000}
.HatFreddy-Bigfil57 {fill:url(#HatFreddy-Bigid34)}
.HatFreddy-Bigstr0 {stroke:black;stroke-width:150;stroke-linecap:round;stroke-linejoin:round}
.HatFreddy-Bigfil58 {fill:url(#HatFreddy-Bigid33)}
</style><linearGradient gradientUnits="userSpaceOnUse" id="RightFoot-Bear3id650" x1="16088.3" x2="16088.3" y1="25409.6" y2="23879.2">
   <stop offset="0" style="stop-opacity:1; stop-color:#8c6821"/>
   <stop offset="0.729412" style="stop-opacity:1; stop-color:#b38b3d"/>
   <stop offset="1" style="stop-opacity:1; stop-color:#b38b3d"/>
  </linearGradient><linearGradient gradientUnits="userSpaceOnUse" id="RightLeg-Bear4id995" x1="15448.2" x2="15448.2" y1="24220.2" y2="20742.8">
   <stop offset="0" style="stop-opacity:1; stop-color:#ffffff"/>
   <stop offset="0.34902" style="stop-opacity:1; stop-color:#ffffff"/>
   <stop offset="1" style="stop-opacity:1; stop-color:#f5f8d5"/>
  </linearGradient><linearGradient gradientUnits="userSpaceOnUse" id="RightLeg-Bear4id40" x1="15724.4" x2="15724.4" xlink:href="#RightLeg-Bear4id8" y1="24311.8" y2="22931.3">
  </linearGradient><linearGradient gradientUnits="userSpaceOnUse" id="LeftFoot-Bear3id651" x1="11219.3" x2="11219.3" xlink:href="#LeftFoot-Bear3id650" y1="25409.6" y2="23879.2">
  </linearGradient><linearGradient gradientUnits="userSpaceOnUse" id="LeftLeg-Bear4id996" x1="11859.5" x2="11859.5" xlink:href="#LeftLeg-Bear4id995" y1="24220.2" y2="20742.8">
  </linearGradient><linearGradient gradientUnits="userSpaceOnUse" id="LeftLeg-Bear4id8" x1="11583.3" x2="11583.3" y1="24311.8" y2="22931.3">
   <stop offset="0" style="stop-opacity:1; stop-color:#b38b3d"/>
   <stop offset="0.0509804" style="stop-opacity:1; stop-color:#b38b3d"/>
   <stop offset="1" style="stop-opacity:1; stop-color:#f5f8d5"/>
  </linearGradient><linearGradient gradientUnits="objectBoundingBox" id="RightHand-Bear0id388" x1="36.9963%" x2="63.0034%" xlink:href="#RightHand-Bear0id75" y1="2.66464%" y2="97.3354%">
  </linearGradient><linearGradient gradientUnits="objectBoundingBox" id="LeftHand-Bear0id386" x1="63.0037%" x2="36.9966%" xlink:href="#LeftHand-Bear0id75" y1="2.66464%" y2="97.3354%">
  </linearGradient><linearGradient gradientUnits="objectBoundingBox" id="Body-Bear5id267" x1="50%" x2="50%" xlink:href="#Body-Bear5id266" y1="0%" y2="100%">
  </linearGradient><linearGradient gradientUnits="userSpaceOnUse" id="Body-Bear5id211" x1="13653.8" x2="13653.8" y1="17305.4" y2="21758.8">
   <stop offset="0" style="stop-opacity:1; stop-color:#f2f2dc"/>
   <stop offset="0.721569" style="stop-opacity:1; stop-color:#fffff5"/>
   <stop offset="1" style="stop-opacity:1; stop-color:#fffff5"/>
  </linearGradient><linearGradient gradientUnits="userSpaceOnUse" id="Head-Bear2id233" x1="13653.8" x2="13653.8" y1="7273.2" y2="17643.8">
   <stop offset="0" style="stop-opacity:1; stop-color:#ffffff"/>
   <stop offset="0.419608" style="stop-opacity:1; stop-color:#f5f8d5"/>
   <stop offset="0.831373" style="stop-opacity:1; stop-color:#f5f8d5"/>
   <stop offset="1" style="stop-opacity:1; stop-color:#ced1a9"/>
  </linearGradient><radialGradient cx="13653.8" cy="13901.2" fx="13653.8" fy="13901.2" gradientTransform="matrix(0.999998 -0 -0 0.972026 0 389)" gradientUnits="userSpaceOnUse" id="Head-Bear2id1046" r="1996.08">
   <stop offset="0" style="stop-opacity:1; stop-color:#ffffff"/>
   <stop offset="1" style="stop-opacity:1; stop-color:#f5f8d5"/>
  </radialGradient><linearGradient gradientUnits="userSpaceOnUse" id="Eyes-Bear3id940" x1="10355.6" x2="9626.89" xlink:href="#Eyes-Bear3id27" y1="14602.1" y2="11532.8">
  </linearGradient><linearGradient gradientUnits="userSpaceOnUse" id="Eyes-Bear3id712" x1="8763.73" x2="11515.6" xlink:href="#Eyes-Bear3id57" y1="13015.7" y2="13015.7">
  </linearGradient><linearGradient gradientUnits="userSpaceOnUse" id="Eyes-Bear3id670" x1="10438.8" x2="10293.1" xlink:href="#Eyes-Bear3id384" y1="11586.1" y2="14117.6">
  </linearGradient><linearGradient gradientUnits="userSpaceOnUse" id="Eyes-Bear3id939" x1="16952.1" x2="17680.8" xlink:href="#Eyes-Bear3id27" y1="14602.1" y2="11532.8">
  </linearGradient><linearGradient gradientUnits="userSpaceOnUse" id="Eyes-Bear3id725" x1="18543.9" x2="15792.1" xlink:href="#Eyes-Bear3id57" y1="13015.7" y2="13015.7">
  </linearGradient><linearGradient gradientUnits="userSpaceOnUse" id="Eyes-Bear3id695" x1="16868.8" x2="17014.5" xlink:href="#Eyes-Bear3id384" y1="11586.1" y2="14117.6">
  </linearGradient><linearGradient gradientUnits="userSpaceOnUse" id="Nose-Bear0id451" x1="13653.8" x2="13653.8" y1="14108.6" y2="14926.9">
   <stop offset="0" style="stop-opacity:1; stop-color:#FFCCCC"/>
   <stop offset="1" style="stop-opacity:1; stop-color:#453F2C"/>
  </linearGradient><linearGradient gradientUnits="userSpaceOnUse" id="BraceletLeather-Bigid222new" x1="8086.3" x2="7982.38" xlink:href="#BraceletLeather-Bigid14new" y1="19659.1" y2="18801.5">
  </linearGradient><linearGradient gradientUnits="userSpaceOnUse" id="BraceletLeather-Bigid38new" x1="7999.57" x2="7492.63" xlink:href="#BraceletLeather-Bigid14new" y1="19911.5" y2="19246.5">
  </linearGradient><linearGradient gradientUnits="userSpaceOnUse" id="BraceletLeather-Bigid698new" x1="8077.58" x2="10215.1" xlink:href="#BraceletLeather-Bigid691new" y1="19870.6" y2="20648.6">
  </linearGradient><linearGradient gradientUnits="userSpaceOnUse" id="BraceletLeather-Bigid16new" x1="19221.4" x2="19325.3" xlink:href="#BraceletLeather-Bigid14new" y1="19659.1" y2="18801.5">
  </linearGradient><linearGradient gradientUnits="userSpaceOnUse" id="BraceletLeather-Bigid206new" x1="19308.1" x2="19815" xlink:href="#BraceletLeather-Bigid14new" y1="19911.5" y2="19246.5">
  </linearGradient><linearGradient gradientUnits="userSpaceOnUse" id="NecklaceYinYangid676new" x1="13681.9" x2="13681.9" xlink:href="#NecklaceYinYangid669new" y1="17208" y2="20390.5">
  </linearGradient><linearGradient gradientUnits="userSpaceOnUse" id="NecklaceYinYangid677new" x1="11189" x2="11399.5" xlink:href="#NecklaceYinYangid669new" y1="18603.5" y2="18002.2">
  </linearGradient><linearGradient gradientUnits="userSpaceOnUse" id="NecklaceYinYangid705new" x1="16170.9" x2="15961.3" xlink:href="#NecklaceYinYangid669new" y1="18602.8" y2="18004">
  </linearGradient><linearGradient gradientUnits="userSpaceOnUse" id="NecklaceYinYangid685new" x1="15099" x2="14900.7" xlink:href="#NecklaceYinYangid669new" y1="19895.5" y2="19273.3">
  </linearGradient><linearGradient gradientUnits="userSpaceOnUse" id="NecklaceYinYangid101new" x1="13681.9" x2="13681.9" y1="20483.4" y2="19943.6">
   <stop offset="0" style="stop-opacity:1; stop-color:#2B2A29"/>
   <stop offset="1" style="stop-opacity:1; stop-color:#fffff5"/>
  </linearGradient><linearGradient gradientUnits="userSpaceOnUse" id="HatFreddyBack-Bigid35" x1="18338.7" x2="21900.2" xlink:href="#HatFreddyBack-Bigid31" y1="10836.9" y2="11742.5">
  </linearGradient><linearGradient gradientUnits="userSpaceOnUse" id="HatFreddyBack-Bigid38" x1="5658.59" x2="8827.9" xlink:href="#HatFreddyBack-Bigid30" y1="10618.2" y2="11961.2">
  </linearGradient><linearGradient gradientUnits="userSpaceOnUse" id="HatFreddy-Bigid34" x1="7241.71" x2="20121" xlink:href="#HatFreddy-Bigid27" y1="12978.8" y2="9237.25">
  </linearGradient><linearGradient gradientUnits="userSpaceOnUse" id="HatFreddy-Bigid33" x1="8386.33" x2="18976.4" xlink:href="#HatFreddy-Bigid28" y1="8120.35" y2="7062.71">
  </linearGradient><linearGradient gradientUnits="userSpaceOnUse" id="RightLeg-Bear4id8" x1="11583.3" x2="11583.3" y1="24311.8" y2="22931.3">
   <stop offset="0" style="stop-opacity:1; stop-color:#b38b3d"/>
   <stop offset="0.0509804" style="stop-opacity:1; stop-color:#b38b3d"/>
   <stop offset="1" style="stop-opacity:1; stop-color:#f5f8d5"/>
  </linearGradient><linearGradient gradientUnits="userSpaceOnUse" id="LeftFoot-Bear3id650" x1="16088.3" x2="16088.3" y1="25409.6" y2="23879.2">
   <stop offset="0" style="stop-opacity:1; stop-color:#8c6821"/>
   <stop offset="0.729412" style="stop-opacity:1; stop-color:#b38b3d"/>
   <stop offset="1" style="stop-opacity:1; stop-color:#b38b3d"/>
  </linearGradient><linearGradient gradientUnits="userSpaceOnUse" id="LeftLeg-Bear4id995" x1="15448.2" x2="15448.2" y1="24220.2" y2="20742.8">
   <stop offset="0" style="stop-opacity:1; stop-color:#ffffff"/>
   <stop offset="0.34902" style="stop-opacity:1; stop-color:#ffffff"/>
   <stop offset="1" style="stop-opacity:1; stop-color:#f5f8d5"/>
  </linearGradient><linearGradient gradientUnits="userSpaceOnUse" id="RightHand-Bear0id75" x1="17042.3" x2="17994.1" y1="17293.3" y2="21110.7">
   <stop offset="0" style="stop-opacity:1; stop-color:#ced1a9"/>
   <stop offset="0.0784314" style="stop-opacity:1; stop-color:#ced1a9"/>
   <stop offset="0.768627" style="stop-opacity:1; stop-color:#f5f8d5"/>
   <stop offset="1" style="stop-opacity:1; stop-color:#f5f8d5"/>
  </linearGradient><linearGradient gradientUnits="userSpaceOnUse" id="LeftHand-Bear0id75" x1="17042.3" x2="17994.1" y1="17293.3" y2="21110.7">
   <stop offset="0" style="stop-opacity:1; stop-color:#ced1a9"/>
   <stop offset="0.0784314" style="stop-opacity:1; stop-color:#ced1a9"/>
   <stop offset="0.768627" style="stop-opacity:1; stop-color:#f5f8d5"/>
   <stop offset="1" style="stop-opacity:1; stop-color:#f5f8d5"/>
  </linearGradient><linearGradient gradientUnits="userSpaceOnUse" id="Body-Bear5id266" x1="13653.8" x2="13653.8" y1="17442" y2="23250.9">
   <stop offset="0" style="stop-opacity:1; stop-color:#ced1a9"/>
   <stop offset="0.0588235" style="stop-opacity:1; stop-color:#ced1a9"/>
   <stop offset="0.529412" style="stop-opacity:1; stop-color:#f5f8d5"/>
   <stop offset="1" style="stop-opacity:1; stop-color:#ffffff"/>
  </linearGradient><linearGradient gradientUnits="userSpaceOnUse" id="Eyes-Bear3id27" x1="16937.6" x2="16937.6" y1="14961.3" y2="11448.6">
   <stop offset="0" style="stop-opacity:1; stop-color:#008053"/>
   <stop offset="1" style="stop-opacity:1; stop-color:black"/>
  </linearGradient><linearGradient gradientUnits="objectBoundingBox" id="Eyes-Bear3id57" x1="100%" x2="0%" y1="50.0003%" y2="50.0003%">
   <stop offset="0" style="stop-opacity:1; stop-color:#008053"/>
   <stop offset="0.501961" style="stop-opacity:1; stop-color:#00ffa5"/>
   <stop offset="1" style="stop-opacity:1; stop-color:#008053"/>
  </linearGradient><linearGradient gradientUnits="userSpaceOnUse" id="Eyes-Bear3id384" x1="16417.8" x2="16417.8" y1="11784.3" y2="14068.5">
   <stop offset="0" style="stop-opacity:1; stop-color:black"/>
   <stop offset="0.45" style="stop-opacity:1; stop-color:black"/>
   <stop offset="1" style="stop-opacity:1; stop-color:#006642"/>
  </linearGradient><linearGradient gradientUnits="userSpaceOnUse" id="BraceletLeather-Bigid14new" x1="8682.96" x2="8745.92" y1="19682.8" y2="19053.1">
   <stop offset="0" style="stop-opacity:1; stop-color:#683501"/>
   <stop offset="1" style="stop-opacity:1; stop-color:#B08227"/>
  </linearGradient><linearGradient gradientUnits="userSpaceOnUse" id="BraceletLeather-Bigid691new" x1="19230.1" x2="17092.5" y1="19870.6" y2="20648.6">
   <stop offset="0" style="stop-opacity:1; stop-color:#643300"/>
   <stop offset="0.321569" style="stop-opacity:1; stop-color:#B5872A"/>
   <stop offset="1" style="stop-opacity:1; stop-color:#643200"/>
  </linearGradient><linearGradient gradientUnits="userSpaceOnUse" id="NecklaceYinYangid669new" x1="12270.9" x2="12467.6" y1="19894.7" y2="19277.5">
   <stop offset="0" style="stop-opacity:1; stop-color:#643300"/>
   <stop offset="1" style="stop-opacity:1; stop-color:#AB7D2D"/>
  </linearGradient><linearGradient gradientUnits="userSpaceOnUse" id="HatFreddyBack-Bigid31" x1="18106.8" x2="21491" y1="10836.9" y2="11742.5">
   <stop offset="0" style="stop-opacity:1; stop-color:black"/>
   <stop offset="0.270588" style="stop-opacity:1; stop-color:#060504"/>
   <stop offset="1" style="stop-opacity:1; stop-color:#63503B"/>
  </linearGradient><linearGradient gradientUnits="userSpaceOnUse" id="HatFreddyBack-Bigid30" x1="6058.02" x2="9069.54" y1="10618.2" y2="11961.2">
   <stop offset="0" style="stop-opacity:1; stop-color:black"/>
   <stop offset="0.270588" style="stop-opacity:1; stop-color:#020101"/>
   <stop offset="1" style="stop-opacity:1; stop-color:#2B2015"/>
  </linearGradient><linearGradient gradientUnits="userSpaceOnUse" id="HatFreddy-Bigid27" x1="7562.32" x2="19800.4" y1="12978.8" y2="9237.24">
   <stop offset="0" style="stop-opacity:1; stop-color:#302821"/>
   <stop offset="0.439216" style="stop-opacity:1; stop-color:#695949"/>
   <stop offset="0.760784" style="stop-opacity:1; stop-color:#968772"/>
   <stop offset="1" style="stop-opacity:1; stop-color:#877059"/>
  </linearGradient><linearGradient gradientUnits="userSpaceOnUse" id="HatFreddy-Bigid28" x1="8649.96" x2="18712.7" y1="8120.35" y2="7062.71">
   <stop offset="0" style="stop-opacity:1; stop-color:#302821"/>
   <stop offset="0.439216" style="stop-opacity:1; stop-color:#695949"/>
   <stop offset="0.768627" style="stop-opacity:1; stop-color:#968772"/>
   <stop offset="1" style="stop-opacity:1; stop-color:#877059"/>
  </linearGradient></defs><g id="HatFreddyBack-Big">
  <animateTransform additive="sum" attributeName="transform" dur="10" repeatCount="indefinite" type="translate" values="0;0 200;0;0 200;0;0 200;0;0 200;0"/>
  <metadata id="CorelCorpID_8Corel-Layer"/>
  <path class="HatFreddyBack-Bigfil50 HatFreddyBack-Bigstr0" d="M22009 10448c745,203 -963,1706 -2841,1759 -2760,78 138,-2289 2841,-1759z" style="fill:#54363d"/>
  <path class="HatFreddyBack-Bigfil51 HatFreddyBack-Bigstr0" d="M5354 10448c-745,203 962,1706 2841,1759 2760,78 -138,-2289 -2841,-1759z" style="fill:#d544b0"/>
 </g><g id="HairBack-Bear0">
 <animateTransform additive="sum" attributeName="transform" dur="10" repeatCount="indefinite" type="translate" values="0;0 200;0;0 200;0;0 200;0;0 200;0"/>
  <metadata id="CorelCorpID_216Corel-Layer"/>
  <rect class="HairBack-Bear0fil22" height="998" width="1061" x="13124" y="20899"/>
 </g><g id="Tail-Bear0">
  <metadata id="CorelCorpID_219Corel-Layer"/>
  <rect class="Tail-Bear0fil22" height="1129" width="1129" x="13089" y="21055"/>
 </g><g id="RightFoot-Bear3">
  <metadata id="CorelCorpID_222Corel-Layer"/>
  <path class="RightFoot-Bear3fil432" d="M17045 25080c-66,213 -260,328 -578,232 -82,82 -466,170 -720,2 -241,-159 -607,-457 -720,-564 -96,-91 -335,-220 -291,-565 777,87 1299,173 1927,-306 18,146 320,205 479,267 233,89 426,392 211,604 42,135 -122,330 -308,330z" style="fill:#ae9944"/>
  <path class="RightFoot-Bear3fil14" d="M16490 25327c320,133 480,-45 565,-254 204,-15 307,-138 301,-308 28,-45 52,-79 86,-174 31,-139 -54,-325 -125,-351 31,144 -137,125 -191,129 232,292 -30,451 -178,321 -4,299 -321,400 -555,107 -111,282 -514,451 -1612,-364 1095,1261 1346,941 1709,894z" style="fill:#92d109"/>
  <path class="RightFoot-Bear3fil32" d="M16963 25089c-68,167 -221,202 -384,173 53,-171 15,-486 -309,-550 160,131 191,345 122,563 -153,91 -454,76 -604,-23 -105,-69 -235,-166 -357,-262 -142,-112 -270,-229 -408,-342 -98,-80 -205,-212 -213,-454 5,-41 -24,-78 -65,-83 -41,-5 -84,23 -83,65 7,344 143,486 266,587 138,114 267,232 411,345 124,97 257,197 366,269 205,135 567,145 776,17 252,66 509,18 618,-243 169,-27 352,-197 334,-378 149,-177 94,-405 -60,-562 -136,-138 -294,-154 -454,-250 -66,-40 -120,-83 -125,-121l-137 73c20,64 119,137 185,176 138,83 316,117 424,227 53,54 98,127 105,203 -87,-137 -253,-261 -447,-225 213,57 340,284 356,532 -17,67 -81,130 -143,158 -9,-180 -141,-449 -459,-414 197,78 290,282 285,519z" style="fill:#4c384b"/>
 </g><g id="LeftFoot-Bear3">
  <metadata id="CorelCorpID_231Corel-Layer"/>
  <path class="LeftFoot-Bear3fil442" d="M10263 25080c66,213 260,328 578,232 82,82 466,170 720,2 241,-159 607,-457 719,-564 96,-91 336,-220 292,-565 -777,87 -1299,173 -1927,-306 -19,146 -321,205 -479,267 -233,89 -427,392 -211,604 -42,135 121,330 308,330z" style="fill:#aeb15f"/>
  <path class="LeftFoot-Bear3fil14" d="M10817 25327c-320,133 -479,-45 -565,-254 -203,-15 -307,-138 -301,-308 -27,-45 -52,-79 -85,-174 -32,-139 54,-325 124,-351 -30,144 137,125 192,129 -233,292 29,451 178,321 4,299 321,400 554,107 112,282 515,451 1613,-364 -1095,1261 -1346,941 -1710,894z" style="fill:#8913cd"/>
  <path class="LeftFoot-Bear3fil32" d="M10345 25089c68,167 220,202 384,173 -54,-171 -16,-486 309,-550 -160,131 -191,345 -122,563 153,91 454,76 604,-23 104,-69 234,-166 356,-262 143,-112 271,-229 409,-342 97,-80 205,-212 213,-454 -5,-41 24,-78 65,-83 41,-5 84,23 83,65 -7,344 -143,486 -266,587 -139,114 -268,232 -411,345 -124,97 -258,197 -367,269 -205,135 -567,145 -776,17 -251,66 -509,18 -617,-243 -169,-27 -352,-197 -335,-378 -149,-177 -93,-405 61,-562 136,-138 294,-154 454,-250 66,-40 120,-83 125,-121l137 73c-20,64 -120,137 -185,176 -139,83 -316,117 -425,227 -53,54 -97,127 -104,203 86,-137 252,-261 447,-225 -213,57 -341,284 -357,532 18,67 82,130 144,158 8,-180 141,-449 459,-414 -197,78 -291,282 -285,519z" style="fill:#9b098b"/>
 </g><g id="RightLeg-Bear4">
  <metadata id="CorelCorpID_227Corel-Layer"/>
  <path class="RightLeg-Bear4fil439" d="M13654 20747c651,0 2263,-52 2620,230 303,239 971,977 969,1838 -2,444 -257,819 -524,1020 -221,162 -440,291 -673,374 -391,24 -841,5 -1310,-24 7,-583 -643,-742 -1082,-749l0 -2689z" style="fill:#02d1d6"/>
  <path class="RightLeg-Bear4fil440" d="M16906 23643c-38,56 -97,124 -187,192 -578,425 -1151,626 -1983,350 3,-262 -126,-438 -309,-553 1133,28 1412,-703 2238,-701 288,1 497,345 241,712z" style="fill:#f9876c"/>
  <path class="RightLeg-Bear4fil14" d="M16961 23553c110,-131 272,-434 272,-592 2,-776 -323,-1481 -652,-1782 -248,370 -56,940 55,979 367,105 509,1009 325,1395z" style="fill:#c1d69b"/>
  <path class="RightLeg-Bear4fil32" d="M16690 23782c-238,187 -417,303 -711,449 260,-35 573,-178 785,-337 332,-249 552,-662 553,-1079 1,-360 -110,-698 -263,-990 -227,-429 -547,-760 -734,-907 -32,-26 -79,-20 -105,12 -25,33 -20,80 13,105 175,139 478,451 693,860 144,273 248,587 247,920 -1,358 -198,746 -478,967zm-1745 794c71,68 -33,176 -104,108 -135,-130 -182,-317 -180,-500 3,-218 -99,-369 -246,-471 -213,-147 -519,-198 -761,-203l0 -149 1 0c265,5 604,62 845,229 186,129 314,320 310,596 -1,139 31,290 135,390z" style="fill:#3f5bc3"/>
 </g><g id="LeftLeg-Bear4">
  <metadata id="CorelCorpID_236Corel-Layer"/>
  <path class="LeftLeg-Bear4fil449" d="M13654 20747c-651,0 -2264,-52 -2620,230 -303,239 -971,977 -969,1838 1,444 256,819 524,1020 220,162 440,291 673,374 391,24 841,5 1310,-24 -7,-583 642,-742 1082,-749l0 -2689z" style="fill:#940cc4"/>
  <path class="LeftLeg-Bear4fil450" d="M10401 23643c39,56 98,124 188,192 578,425 1150,626 1983,350 -3,-262 126,-438 309,-553 -1133,28 -1412,-703 -2238,-701 -289,1 -497,345 -242,712z" style="fill:#b497b7"/>
  <path class="LeftLeg-Bear4fil14" d="M10346 23553c-110,-131 -271,-434 -271,-592 -3,-776 323,-1481 652,-1782 248,370 56,940 -56,979 -366,105 -508,1009 -325,1395z" style="fill:#a06da1"/>
  <path class="LeftLeg-Bear4fil32" d="M10618 23782c238,187 417,303 711,449 -260,-35 -573,-178 -785,-337 -332,-249 -552,-662 -554,-1079 -1,-360 110,-698 264,-990 226,-429 547,-760 734,-907 32,-26 79,-20 104,12 26,33 20,80 -12,105 -175,139 -478,451 -694,860 -143,273 -247,587 -246,920 1,358 198,746 478,967zm1745 794c-71,68 32,176 103,108 135,-130 183,-317 181,-500 -3,-218 98,-369 246,-471 212,-147 519,-198 761,-203l0 -149 -1 0c-265,5 -604,62 -845,229 -186,129 -314,320 -311,596 2,139 -31,290 -134,390z" style="fill:#bc1158"/>
 </g><g id="RightHand-Bear0">
 <animateTransform additive="sum" attributeName="transform" dur="10" repeatCount="indefinite" type="translate" values="0;0 200;0;0 200;0;0 200;0;0 200;0"/>
  <metadata id="CorelCorpID_238Corel-Layer"/>
  <path class="RightHand-Bear0fil452" d="M16111 17210c1487,-179 2823,1880 3151,3021 160,558 -1806,1220 -1964,882 -68,-147 -295,-477 -571,-705 -149,-820 -321,-1468 -1092,-3106 169,-47 290,-69 476,-92z" style="fill:#8f0aed"/>
  <path class="RightHand-Bear0fil22 RightHand-Bear0str0" d="M16111 17205c1487,-179 2823,1880 3151,3021 160,558 -1806,1220 -1964,882 -68,-147 -295,-477 -571,-705 -149,-820 -321,-1468 -1092,-3106 169,-47 290,-69 476,-92z" style="fill:#719af5"/>
  <path class="RightHand-Bear0fil14" d="M17217 20971c-131,-206 -302,-406 -490,-563 -50,-606 -203,-1164 -276,-1762 236,212 930,1618 766,2325z" style="fill:#231977"/>
 </g><g id="LeftHand-Bear0">
 <animateTransform additive="sum" attributeName="transform" dur="10" repeatCount="indefinite" type="translate" values="0;0 200;0;0 200;0;0 200;0;0 200;0"/>
  <metadata id="CorelCorpID_247Corel-Layer"/>
  <path class="LeftHand-Bear0fil465" d="M11197 17210c-1488,-179 -2824,1880 -3151,3021 -160,558 1806,1220 1963,882 69,-147 296,-477 571,-705 149,-820 322,-1468 1092,-3106 -168,-47 -290,-69 -475,-92z" style="fill:#623b4e"/>
  <path class="LeftHand-Bear0fil22 LeftHand-Bear0str0" d="M11197 17205c-1488,-179 -2824,1880 -3151,3021 -160,558 1806,1220 1963,882 69,-147 296,-477 571,-705 149,-820 322,-1468 1092,-3106 -168,-47 -290,-69 -475,-92z" style="fill:#06da3d"/>
  <path class="LeftHand-Bear0fil14" d="M10090 20971c132,-206 303,-406 490,-563 51,-606 203,-1164 276,-1762 -235,212 -929,1618 -766,2325z" style="fill:#545ab3"/>
 </g><g id="Body-Bear5">
 <animateTransform additive="sum" attributeName="transform" dur="10" repeatCount="indefinite" type="translate" values="0;0 200;0;0 200;0;0 200;0;0 200;0"/>
  <metadata id="CorelCorpID_260Corel-Layer"/>
  <path class="Body-Bear5fil476" d="M13654 23351c1692,-3 2768,-307 3233,-1926 302,-1052 -330,-2764 -1019,-3983 -551,110 -1409,139 -2214,150 -806,-11 -1663,-40 -2215,-150 -688,1219 -1321,2931 -1018,3983 465,1619 1541,1923 3233,1926z" style="fill:#848f8f"/>
  <path class="Body-Bear5fil14" d="M11416 22901c-455,-288 -787,-750 -995,-1476 -211,-735 34,-1792 435,-2779 -591,2230 70,3628 560,4255z" style="fill:#24222a"/>
  <path class="Body-Bear5fil32" d="M11416 22901c-539,-241 -960,-968 -1067,-1455 -108,-487 -59,-1102 131,-1659 -71,577 -87,1191 13,1618 104,444 495,1184 923,1496z" style="fill:#4acbc5"/>
  <path class="Body-Bear5fil22" d="M12621 22856c-1016,-156 -1749,-629 -1932,-1889 -2,-17 -5,-34 -7,-51l0 -4c-2,-16 -4,-32 -5,-48l-1 -7c-1,-15 -3,-31 -4,-46l0 -8c-2,-15 -3,-30 -3,-46l-1 -8c-1,-16 -1,-31 -2,-47l0 -6c-1,-17 -1,-34 -1,-51l0 -5c0,-17 0,-34 0,-50l0 -8c0,-15 0,-31 1,-47l0 -9c1,-15 1,-30 2,-46l0 -11c1,-14 2,-29 3,-44l1 -12c1,-15 2,-29 3,-44l1 -13c1,-15 3,-31 4,-46l2 -14c1,-15 3,-30 5,-44l1 -15c2,-14 4,-27 5,-41l3 -18c2,-13 3,-26 5,-39l3 -18c2,-12 4,-25 6,-38 1,-7 2,-14 4,-22 2,-12 4,-25 6,-37l4 -23c2,-11 4,-23 6,-34 2,-9 4,-18 6,-28 2,-10 4,-21 6,-32 2,-9 4,-18 6,-27 2,-11 4,-21 7,-32l6 -27c2,-11 4,-21 7,-31 3,-13 6,-25 9,-37l5 -21c3,-14 6,-27 9,-40l5 -18c4,-14 7,-28 11,-42l4 -15c4,-15 8,-30 12,-46l3 -8c4,-16 9,-33 14,-49l1 -7m15 -50l9 -28c5,-17 10,-34 15,-52l2 -5c6,-17 11,-34 17,-51l1 -6c6,-18 12,-36 18,-54l0 -1c-142,1971 409,3124 1703,3596" style="fill:#af301e"/>
  <path class="Body-Bear5fil22" d="M12621 22856c-1016,-156 -1749,-629 -1932,-1889 -2,-17 -5,-34 -7,-51l0 -4c-2,-16 -4,-32 -5,-48l-1 -7c-1,-15 -3,-31 -4,-46l0 -8c-2,-15 -3,-30 -3,-46l-1 -8c-1,-16 -1,-31 -2,-47l0 -6c-1,-17 -1,-34 -1,-51l0 -5c0,-17 0,-34 0,-50l0 -8c0,-15 0,-31 1,-47l0 -9c1,-15 1,-30 2,-46l0 -11c1,-14 2,-29 3,-44l1 -12c1,-15 2,-29 3,-44l1 -13c1,-15 3,-31 4,-46l2 -14c1,-15 3,-30 5,-44l1 -15c2,-14 4,-27 5,-41l3 -18c2,-13 3,-26 5,-39l3 -18c2,-12 4,-25 6,-38 1,-7 2,-14 4,-22 2,-12 4,-25 6,-37l4 -23c2,-11 4,-23 6,-34 2,-9 4,-18 6,-28 2,-10 4,-21 6,-32 2,-9 4,-18 6,-27 2,-11 4,-21 7,-32l6 -27c2,-11 4,-21 7,-31 3,-13 6,-25 9,-37l5 -21c3,-14 6,-27 9,-40l5 -18c4,-14 7,-28 11,-42l4 -15c4,-15 8,-30 12,-46l3 -8c4,-16 9,-33 14,-49l1 -7m15 -50l9 -28c5,-17 10,-34 15,-52l2 -5c6,-17 11,-34 17,-51l1 -6c6,-18 12,-36 18,-54l0 -1c-142,1971 409,3124 1703,3596" style="fill:#ef7667"/>
  <path class="Body-Bear5fil14" d="M15892 22901c455,-288 786,-750 995,-1476 211,-735 -34,-1792 -436,-2779 592,2230 -69,3628 -559,4255z" style="fill:#71ed78"/>
  <path class="Body-Bear5fil32" d="M15892 22901c539,-241 960,-968 1067,-1455 107,-487 59,-1102 -132,-1659 72,577 87,1191 -12,1618 -104,444 -496,1184 -923,1496z" style="fill:#3cf0c8"/>
  <path class="Body-Bear5fil482" d="M12395 17319c-415,-117 -1437,533 -1326,1387 71,545 464,353 559,775 99,440 -305,508 -282,1089 32,765 484,1129 1019,1185 834,86 410,-1185 1289,-1185 879,0 455,1271 1289,1185 535,-56 987,-420 1018,-1185 24,-581 -380,-649 -281,-1089 95,-422 488,-230 559,-775 111,-854 -912,-1504 -1326,-1387 -407,115 -932,140 -1259,140 -327,0 -853,-25 -1259,-140z" style="fill:#30e7ef"/>
 </g><g id="RightPaw-Bear0">
 <animateTransform additive="sum" attributeName="transform" dur="10" repeatCount="indefinite" type="translate" values="0;0 200;0;0 200;0;0 200;0;0 200;0"/>
  <metadata id="CorelCorpID_243Corel-Layer"/>
  <path class="RightPaw-Bear0fil457" d="M19212 20074c101,319 446,1074 -76,1413 -8,341 -321,891 -722,638 -151,80 -387,68 -509,-83 -446,-4 -409,-537 -607,-929 295,-982 1641,-506 1914,-1039z" style="fill:#69f20f"/>
  <path class="RightPaw-Bear0fil32" d="M19190 20003c89,-30 112,105 135,170 130,372 354,1015 -116,1354 -11,143 -66,311 -153,448 -99,155 -252,294 -446,289 -65,-1 -132,-19 -200,-55 -176,73 -404,47 -540,-94 -338,-20 -419,-297 -509,-605 -35,-123 -73,-250 -129,-363 -19,-37 -94,-221 -57,-240 16,-8 67,4 101,36 47,44 78,115 89,136 63,125 102,260 140,389 60,206 115,395 261,468 -29,-101 -22,-219 84,-284 -76,237 182,489 434,440 -65,-93 -101,-219 -10,-319 -6,164 172,338 339,342 137,3 248,-112 316,-220 55,-87 95,-188 116,-282 -169,50 -397,13 -448,-183 104,74 378,78 488,1 414,-287 232,-827 98,-1209 -22,-63 -77,-193 7,-219z" style="fill:#ad1d3e"/>
  <path class="RightPaw-Bear0fil458" d="M18721 21392c-70,15 -168,-109 -207,-290 -38,-180 -13,-339 57,-354 70,-15 188,120 226,300 39,181 -7,329 -76,344z" style="fill:#4cff39"/>
  <path class="RightPaw-Bear0fil458" d="M18493 21944c-70,15 -168,-109 -207,-289 -38,-181 -13,-340 57,-355 70,-14 188,120 226,301 39,180 -7,328 -76,343z" style="fill:#da244c"/>
  <path class="RightPaw-Bear0fil458" d="M18061 21880c-58,7 -128,-100 -147,-248 -19,-148 13,-275 70,-282 57,-7 143,110 162,258 19,148 -28,265 -85,272z" style="fill:#915e07"/>
  <path class="RightPaw-Bear0fil458" d="M17668 21710c-41,0 -83,-82 -84,-190 -2,-107 31,-195 72,-195 42,-1 94,90 95,197 2,108 -41,187 -83,188z" style="fill:#07ee43"/>
  <path class="RightPaw-Bear0fil458" d="M18328 20905c28,402 -757,372 -764,113 -13,-411 729,-626 764,-113z" style="fill:#a74c6d"/>
 </g><g id="LeftPaw-Bear0">
 <animateTransform additive="sum" attributeName="transform" dur="10" repeatCount="indefinite" type="translate" values="0;0 200;0;0 200;0;0 200;0;0 200;0"/>
  <metadata id="CorelCorpID_252Corel-Layer"/>
  <path class="LeftPaw-Bear0fil457" d="M8095 20074c-101,319 -445,1074 76,1413 8,341 322,891 722,638 152,80 388,68 510,-83 446,-4 408,-537 606,-929 -294,-982 -1641,-506 -1914,-1039z" style="fill:#ca1c9c"/>
  <path class="LeftPaw-Bear0fil32" d="M8118 20003c-89,-30 -112,105 -135,170 -130,372 -355,1015 116,1354 11,143 66,311 153,448 98,155 252,294 446,289 65,-1 131,-19 199,-55 176,73 405,47 540,-94 339,-20 419,-297 509,-605 36,-123 73,-250 130,-363 19,-37 93,-221 56,-240 -15,-8 -66,4 -100,36 -47,44 -79,115 -89,136 -63,125 -103,260 -140,389 -60,206 -116,395 -261,468 29,-101 22,-219 -84,-284 76,237 -182,489 -434,440 64,-93 101,-219 9,-319 6,164 -171,338 -338,342 -138,3 -248,-112 -316,-220 -56,-87 -96,-188 -117,-282 170,50 397,13 449,-183 -104,74 -378,78 -489,1 -414,-287 -231,-827 -98,-1209 22,-63 78,-193 -6,-219z" style="fill:#46f5b4"/>
  <path class="LeftPaw-Bear0fil458" d="M8587 21392c70,15 168,-109 206,-290 39,-180 14,-339 -56,-354 -70,-15 -188,120 -227,300 -38,181 7,329 77,344z" style="fill:#28b9bc"/>
  <path class="LeftPaw-Bear0fil458" d="M8815 21944c70,15 168,-109 206,-289 39,-181 14,-340 -56,-355 -70,-14 -188,120 -227,301 -38,180 7,328 77,343z" style="fill:#e394e8"/>
  <path class="LeftPaw-Bear0fil458" d="M9247 21880c57,7 128,-100 147,-248 18,-148 -13,-275 -70,-282 -58,-7 -144,110 -163,258 -18,148 29,265 86,272z" style="fill:#200ff7"/>
  <path class="LeftPaw-Bear0fil458" d="M9640 21710c41,0 83,-82 84,-190 1,-107 -31,-195 -73,-195 -41,-1 -94,90 -95,197 -1,108 42,187 84,188z" style="fill:#60c4f2"/>
  <path class="LeftPaw-Bear0fil458" d="M8979 20905c-27,402 757,372 765,113 12,-411 -729,-626 -765,-113z" style="fill:#64591c"/>
 </g><g id="NecklaceYinYang">
 <animateTransform additive="sum" attributeName="transform" dur="10" repeatCount="indefinite" type="translate" values="0;0 200;0;0 200;0;0 200;0;0 200;0"/>
  <metadata id="CorelCorpID_40Corel-Layer"/>
  <path class="NecklaceYinYangfil225new" d="M16543 17208c-73,675 -449,1409 -941,2000 -570,684 -1305,1183 -1920,1183 -615,0 -1350,-499 -1920,-1183 -492,-591 -868,-1325 -941,-2000l352 0c73,593 413,1245 856,1777 509,611 1145,1056 1653,1056 508,0 1144,-445 1653,-1056 442,-532 782,-1184 856,-1777l352 0z" style="fill:#981ed8"/>
  <path class="NecklaceYinYangfil46new" d="M11135 16868c-273,1109 1292,3303 2547,3303 1255,0 2820,-2194 2547,-3303l-25 4c1,34 2,68 2,103 0,650 -370,1407 -871,2010 -509,611 -1145,1056 -1653,1056 -508,0 -1144,-445 -1653,-1056 -501,-603 -871,-1360 -871,-2010 0,-35 1,-69 2,-103l-25 -4z" style="fill:#7afd97"/>
  <path class="NecklaceYinYangfil47new NecklaceYinYangstr4new" d="M16543 17208c-73,675 -449,1409 -941,2000 -570,684 -1305,1183 -1920,1183 -615,0 -1350,-499 -1920,-1183 -492,-591 -868,-1325 -941,-2000l352 0c73,593 413,1245 856,1777 509,611 1145,1056 1653,1056 508,0 1144,-445 1653,-1056 442,-532 782,-1184 856,-1777l352 0z" style="fill:#82e603"/>
  <path class="NecklaceYinYangfil226new NecklaceYinYangstr3new" d="M11302 18631c-392,0 -362,-385 -163,-550 197,-163 493,-157 449,148 -114,-87 -503,248 -286,402z" style="fill:#dfc490"/>
  <path class="NecklaceYinYangfil227new NecklaceYinYangstr3new" d="M12385 19918c-393,11 -359,-370 -179,-545 182,-179 487,-172 453,134 -117,-83 -496,263 -274,411z" style="fill:#c7da55"/>
  <path class="NecklaceYinYangfil228new NecklaceYinYangstr3new" d="M16062 18631c392,0 345,-403 163,-550 -200,-160 -493,-157 -449,148 114,-87 503,248 286,402z" style="fill:#ceaf46"/>
  <path class="NecklaceYinYangfil229new NecklaceYinYangstr3new" d="M14979 19918c393,11 384,-357 179,-545 -202,-187 -487,-172 -453,134 117,-83 496,263 274,411z" style="fill:#10de8a"/>
  <g>
   <circle class="NecklaceYinYangfil84new" r="1577" transform="matrix(-0.552338 -0.290723 0.290723 -0.552338 13681.9 21396.4)"/>
   <g>
    <path class="NecklaceYinYangfil84new" d="M14075 20650c412,217 570,727 353,1139 -215,409 -719,568 -1129,359l0 0c-3,-2 -7,-4 -10,-5l0 0c-206,-109 -285,-364 -177,-570 109,-206 364,-285 570,-177l0 0c206,109 461,30 570,-176 108,-207 29,-462 -177,-570z" style="fill:#d4812b"/>
    <path class="NecklaceYinYangfil83new" d="M13289 22143c-412,-217 -570,-727 -353,-1139 215,-409 718,-568 1129,-359l0 0c3,2 7,3 10,5l0 0c206,108 285,363 177,570 -109,206 -364,285 -570,176l0 0c-206,-108 -461,-29 -570,177 -108,206 -29,461 177,570z" style="fill:#743864"/>
    <path class="NecklaceYinYangfil84new" d="M13943 20901c67,35 93,119 58,187 -36,67 -119,93 -187,58 -68,-36 -94,-120 -58,-187 36,-68 119,-94 187,-58z" style="fill:#be8140"/>
    <path class="NecklaceYinYangfil83new" d="M13421 21892c-68,-36 -94,-119 -58,-187 36,-67 119,-93 187,-58 68,36 93,119 58,187 -36,68 -119,94 -187,58z" style="fill:#c684c3"/>
   </g>
  </g>
  <path class="NecklaceYinYangfil230new NecklaceYinYangstr4new" d="M13599 19944l166 0c25,0 47,21 46,46l-24 447c-1,26 -20,46 -46,46l-119 0c-25,0 -44,-20 -46,-46l-23 -447c-1,-26 21,-46 46,-46z" style="fill:#3b1113"/>
 </g><g id="BraceletLeather-Big">
 <animateTransform additive="sum" attributeName="transform" dur="10" repeatCount="indefinite" type="translate" values="0;0 200;0;0 200;0;0 200;0;0 200;0"/>
  <metadata id="CorelCorpID_18Corel-Layer"/>
  <path class="BraceletLeather-Bigfil51new BraceletLeather-Bigstr3new" d="M8065 19669c-150,-188 -209,-300 -358,-488 -55,-92 -50,-312 4,-312 137,-21 288,-46 423,-78 45,235 151,531 267,777 -112,34 -224,68 -336,101z" style="fill:#8ef760"/>
  <path class="BraceletLeather-Bigfil43new" d="M8065 19669c-150,-188 -209,-300 -358,-488 -55,-92 -50,-312 4,-312l11 -2c120,274 311,512 512,751l-169 51z" style="fill:#b5ae4f"/>
  <path class="BraceletLeather-Bigfil33new BraceletLeather-Bigstr3new" d="M8065 19669c-150,-188 -209,-300 -358,-488 -55,-92 -50,-312 4,-312 137,-21 288,-46 423,-78 45,235 151,531 267,777 -112,34 -224,68 -336,101z" style="fill:#8e1f69"/>
  <path class="BraceletLeather-Bigfil52new BraceletLeather-Bigstr3new" d="M8052 19933c-236,-45 -354,-90 -591,-135 -101,-33 -242,-202 -201,-238 90,-105 187,-223 269,-335 188,148 462,302 710,411 -62,99 -125,198 -187,297z" style="fill:#569253"/>
  <path class="BraceletLeather-Bigfil43new" d="M8052 19933c-236,-45 -354,-90 -591,-135 -101,-33 -242,-202 -201,-238l7 -8c270,128 570,183 879,232l-94 149z" style="fill:#ea116c"/>
  <path class="BraceletLeather-Bigfil33new BraceletLeather-Bigstr3new" d="M8052 19933c-236,-45 -354,-90 -591,-135 -101,-33 -242,-202 -201,-238 90,-105 187,-223 269,-335 188,148 462,302 710,411 -62,99 -125,198 -187,297z" style="fill:#c91f51"/>
  <path class="BraceletLeather-Bigfil53new BraceletLeather-Bigstr4new" d="M8180 19981c-213,-53 -366,-129 -260,-321 119,-218 317,-237 619,-153 577,159 1391,572 1734,936 150,160 188,378 43,542 -145,164 -278,23 -437,-128 -394,-377 -1161,-742 -1699,-876z" style="fill:#3d6fb2"/>
  <path class="BraceletLeather-Bigfil46new" d="M8180 19981c-112,-28 -207,-62 -257,-116 91,-71 211,-75 313,-55 707,146 1368,484 1861,983 78,79 107,169 97,265 -101,10 -201,-93 -315,-201 -394,-377 -1161,-742 -1699,-876z" style="fill:#b797a3"/>
  <path class="BraceletLeather-Bigfil47new BraceletLeather-Bigstr4new" d="M8180 19981c-213,-53 -366,-129 -260,-321 119,-218 317,-237 619,-153 577,159 1391,572 1734,936 150,160 188,378 43,542 -145,164 -278,23 -437,-128 -394,-377 -1161,-742 -1699,-876z" style="fill:#9e20ba"/>
  <path class="BraceletLeather-Bigfil54new BraceletLeather-Bigstr3new" d="M19243 19669c149,-188 208,-300 358,-488 55,-92 50,-312 -5,-312 -137,-21 -287,-46 -422,-78 -46,235 -152,531 -267,777 112,34 224,68 336,101z" style="fill:#8d96d9"/>
  <path class="BraceletLeather-Bigfil43new" d="M19243 19669c149,-188 208,-300 358,-488 55,-92 50,-312 -5,-312l-10 -2c-120,274 -311,512 -512,751l169 51z" style="fill:#fed869"/>
  <path class="BraceletLeather-Bigfil33new BraceletLeather-Bigstr3new" d="M19243 19669c149,-188 208,-300 358,-488 55,-92 50,-312 -5,-312 -137,-21 -287,-46 -422,-78 -46,235 -152,531 -267,777 112,34 224,68 336,101z" style="fill:#9bf47a"/>
  <path class="BraceletLeather-Bigfil55new BraceletLeather-Bigstr3new" d="M19256 19933c236,-45 354,-90 590,-135 101,-33 243,-202 201,-238 -90,-105 -187,-223 -268,-335 -189,148 -463,302 -711,411 63,99 125,198 188,297z" style="fill:#bf41f3"/>
  <path class="BraceletLeather-Bigfil43new" d="M19256 19933c236,-45 354,-90 590,-135 101,-33 243,-202 201,-238l-7 -8c-269,128 -570,183 -878,232l94 149z" style="fill:#7cde33"/>
  <path class="BraceletLeather-Bigfil33new BraceletLeather-Bigstr3new" d="M19256 19933c236,-45 354,-90 590,-135 101,-33 243,-202 201,-238 -90,-105 -187,-223 -268,-335 -189,148 -463,302 -711,411 63,99 125,198 188,297z" style="fill:#663e49"/>
  <path class="BraceletLeather-Bigfil56new BraceletLeather-Bigstr4new" d="M19128 19981c212,-53 365,-129 260,-321 -120,-218 -318,-237 -620,-153 -576,159 -1390,572 -1733,936 -151,160 -188,378 -43,542 145,164 278,23 436,-128 395,-377 1161,-742 1700,-876z" style="fill:#4c2812"/>
  <path class="BraceletLeather-Bigfil46new" d="M19128 19981c111,-28 206,-62 257,-116 -91,-71 -211,-75 -313,-55 -707,146 -1368,484 -1861,983 -78,79 -107,169 -98,265 102,10 202,-93 315,-201 395,-377 1161,-742 1700,-876z" style="fill:#f4f4c9"/>
  <path class="BraceletLeather-Bigfil47new BraceletLeather-Bigstr4new" d="M19128 19981c212,-53 365,-129 260,-321 -120,-218 -318,-237 -620,-153 -576,159 -1390,572 -1733,936 -151,160 -188,378 -43,542 145,164 278,23 436,-128 395,-377 1161,-742 1700,-876z" style="fill:#571ed8"/>
 </g><g id="Head-Bear2">
 <animateTransform additive="sum" attributeName="transform" dur="10" repeatCount="indefinite" type="translate" values="0;0 200;0;0 200;0;0 200;0;0 200;0"/>
  <metadata id="CorelCorpID_270Corel-Layer"/>
  <path class="Head-Bear2fil515" d="M13654 7273c-2710,0 -5026,1855 -6183,4367 -704,1530 -306,3996 1466,5129 1351,864 3268,875 4717,875 1448,0 3366,-11 4717,-875 1772,-1133 2170,-3599 1465,-5129 -1156,-2512 -3472,-4367 -6182,-4367z" style="fill:#21d343"/>
  <path class="Head-Bear2fil32" d="M8008 10650c-329,518 -647,1401 -753,2018 -104,753 -5,1590 317,2344 286,671 750,1275 1404,1694 464,296 996,491 1553,619 201,46 1067,209 1784,296 -729,29 -1627,-107 -1816,-150 -573,-132 -1120,-332 -1599,-638 -681,-436 -1163,-1065 -1461,-1762 -333,-779 -435,-1645 -328,-2423 109,-713 526,-1597 899,-1998z" style="fill:#9cd95f"/>
  <path class="Head-Bear2fil14" d="M7685 11195c-321,495 -487,1551 -508,1727 -154,1332 491,3030 1776,3868 663,432 2193,772 3148,833 -2935,-342 -5391,-2661 -4416,-6428z" style="fill:#6e8876"/>
  <path class="Head-Bear2fil32" d="M12861 7326c-605,115 -1467,466 -1746,598 -281,132 -1107,569 -1640,994 488,-570 1395,-1044 1578,-1130 178,-84 976,-436 1808,-462z" style="fill:#60663e"/>
  <path class="Head-Bear2fil32" d="M19300 10650c329,518 647,1401 752,2018 104,753 5,1590 -316,2344 -287,671 -750,1275 -1405,1694 -463,296 -995,491 -1553,619 -200,46 -1067,209 -1783,296 728,29 1627,-107 1816,-150 572,-132 1120,-332 1599,-638 681,-436 1163,-1065 1461,-1762 332,-779 435,-1645 327,-2423 -108,-713 -525,-1597 -898,-1998z" style="fill:#9e7dc0"/>
  <path class="Head-Bear2fil32" d="M14447 7326c605,115 1467,466 1746,598 280,132 1107,569 1639,994 -487,-570 -1394,-1044 -1578,-1130 -177,-84 -975,-436 -1807,-462z" style="fill:#7e3983"/>
  <ellipse class="Head-Bear2fil516" cx="13654" cy="13901" rx="2519" ry="2063"/>
 </g><g id="Mouth-Bear0">
 <animateTransform additive="sum" attributeName="transform" dur="10" repeatCount="indefinite" type="translate" values="0;0 200;0;0 200;0;0 200;0;0 200;0"/>
  <metadata id="CorelCorpID_276Corel-Layer"/>
  <g>
   <path class="Mouth-Bear0fil22 Mouth-Bear0str0" d="M12543 15318c298,519 1085,300 1111,-492" style="fill:#feed8c"/>
   <path class="Mouth-Bear0fil100 Mouth-Bear0str0" d="M13642 14959c-37,245 -153,423 -299,528 122,-60 207,-137 311,-137l0 -391 -12 0z" style="fill:#f05818"/>
   <path class="Mouth-Bear0fil22 Mouth-Bear0str0" d="M14765 15318c-298,519 -1086,300 -1111,-492" style="fill:#a2ed67"/>
   <path class="Mouth-Bear0fil100 Mouth-Bear0str0" d="M13666 14959c37,245 153,423 299,528 -122,-60 -207,-137 -311,-137l0 -391 12 0z" style="fill:#e0f7c0"/>
  </g>
 </g><g id="Eyes-Bear3">
 <animateTransform additive="sum" attributeName="transform" dur="10" repeatCount="indefinite" type="translate" values="0;0 200;0;0 200;0;0 200;0;0 200;0"/>
  <metadata id="CorelCorpID_288Corel-Layer"/>
  <path class="Eyes-Bear3fil540" d="M8787 14454c716,555 1823,273 2338,-179 861,-756 482,-2725 -364,-2878 -619,-112 -1415,199 -1813,645 -841,944 -646,2037 -161,2412z"/>
  <path class="Eyes-Bear3fil541" d="M11516 13190c-40,-809 -348,-1491 -918,-1589 -84,-14 -167,-23 -248,-26 -435,18 -828,197 -1122,509 -784,833 -438,1809 33,2144 731,519 2178,143 2255,-1038z"/>
  <path class="Eyes-Bear3fil542" d="M10458 11572c786,25 1160,663 1122,1368 -39,705 -649,1228 -1325,1191 -675,-37 -1142,-620 -1103,-1326 39,-705 519,-1258 1306,-1233z"/>
  <circle class="Eyes-Bear3fil152" r="235" transform="matrix(0.422656 -0.24244 0.410415 0.68102 8897.06 13816.7)"/>
  <path class="Eyes-Bear3fil157" d="M11374 13902c463,-1052 123,-2342 -636,-2479 -668,-121 -1328,104 -1758,586 -278,311 -444,654 -525,990 437,-823 1220,-1258 1860,-1156 911,145 1126,998 1059,2059z"/>
  <path class="Eyes-Bear3fil32" d="M8695 14475c-170,-121 -741,-431 -1047,-1288 229,273 587,223 663,15l146 90c-317,692 307,1191 748,1305l-510 -122z"/>
  <path class="Eyes-Bear3fil155" d="M10830 9546c51,106 427,155 784,394 328,220 512,552 678,503 186,-54 243,-483 152,-696 -75,-174 -410,-422 -820,-469 -484,-56 -855,139 -794,268z"/>
  <path class="Eyes-Bear3fil14" d="M10830 9546c51,106 427,155 784,394 328,220 512,552 678,503 186,-54 243,-483 152,-696 -75,-174 -410,-422 -820,-469 -484,-56 -855,139 -794,268z"/>
  <path class="Eyes-Bear3fil32" d="M8832 14395c309,239 695,314 1072,285 459,-35 901,-224 1172,-461 231,-204 368,-502 427,-828 56,-306 43,-636 -25,-937 -68,-297 -189,-564 -349,-747 -111,-126 -239,-211 -382,-236 -289,-53 -621,-8 -930,102 -323,115 -618,300 -813,519 -41,46 -79,92 -114,136 -330,426 -454,873 -445,1258 10,380 149,699 350,877 13,12 26,23 37,32zm1083 435c-410,31 -833,-53 -1174,-317 -17,-13 -32,-25 -46,-38 -229,-204 -389,-563 -399,-985 -11,-417 123,-897 476,-1353 38,-49 78,-98 120,-145 211,-237 530,-437 875,-560 332,-118 691,-166 1007,-109 177,33 335,135 467,286 178,201 310,492 383,813 72,318 85,669 26,995 -64,358 -217,687 -476,914 -292,257 -767,461 -1259,499z"/>
  <circle class="Eyes-Bear3fil152" r="235" transform="matrix(2.29542 -0.208545 0.267105 2.285 10679.6 12264.4)"/>
  <circle class="Eyes-Bear3fil152" r="235" transform="matrix(0.819853 0.0201454 -0.0264891 0.794972 9824.83 12432.4)"/>
  <path class="Eyes-Bear3fil543" d="M18521 14454c-717,555 -1824,273 -2339,-179 -860,-756 -481,-2725 365,-2878 619,-112 1415,199 1813,645 841,944 646,2037 161,2412z"/>
  <path class="Eyes-Bear3fil544" d="M15792 13190c39,-809 348,-1491 917,-1589 84,-14 167,-23 249,-26 434,18 828,197 1121,509 784,833 439,1809 -32,2144 -732,519 -2178,143 -2255,-1038z"/>
  <path class="Eyes-Bear3fil545" d="M16850 11572c-787,25 -1161,663 -1122,1368 39,705 649,1228 1324,1191 676,-37 1143,-620 1104,-1326 -39,-705 -520,-1258 -1306,-1233z"/>
  <circle class="Eyes-Bear3fil152" r="235" transform="matrix(-0.422656 -0.24244 -0.410415 0.68102 18410.6 13816.7)"/>
  <path class="Eyes-Bear3fil157" d="M15934 13902c-464,-1052 -124,-2342 636,-2479 668,-121 1328,104 1758,586 277,311 444,654 525,990 -437,-823 -1220,-1258 -1860,-1156 -911,145 -1126,998 -1059,2059z"/>
  <path class="Eyes-Bear3fil32" d="M18612 14475c171,-121 741,-431 1048,-1288 -229,273 -588,223 -663,15l-147 90c318,692 -307,1191 -747,1305l509 -122z"/>
  <path class="Eyes-Bear3fil155" d="M16477 9546c-50,106 -426,155 -783,394 -328,220 -512,552 -679,503 -185,-54 -242,-483 -151,-696 75,-174 410,-422 819,-469 484,-56 856,139 794,268z"/>
  <path class="Eyes-Bear3fil14" d="M16477 9546c-50,106 -426,155 -783,394 -328,220 -512,552 -679,503 -185,-54 -242,-483 -151,-696 75,-174 410,-422 819,-469 484,-56 856,139 794,268z"/>
  <path class="Eyes-Bear3fil32" d="M18475 14395c-308,239 -695,314 -1072,285 -459,-35 -901,-224 -1171,-461 -232,-204 -369,-502 -428,-828 -55,-306 -42,-636 26,-937 67,-297 188,-564 349,-747 110,-126 239,-211 381,-236 290,-53 621,-8 930,102 323,115 619,300 814,519 41,46 79,92 114,136 329,426 454,873 444,1258 -9,380 -148,699 -349,877 -13,12 -26,23 -38,32zm-1083 435c411,31 834,-53 1175,-317 16,-13 32,-25 45,-38 230,-204 389,-563 400,-985 10,-417 -123,-897 -476,-1353 -38,-49 -78,-98 -120,-145 -212,-237 -530,-437 -876,-560 -331,-118 -690,-166 -1006,-109 -178,33 -335,135 -468,286 -177,201 -309,492 -382,813 -72,318 -86,669 -27,995 65,358 217,687 476,914 293,257 768,461 1259,499z"/>
  <circle class="Eyes-Bear3fil152" r="235" transform="matrix(-2.29542 -0.208545 -0.267105 2.285 16628.1 12264.4)"/>
  <circle class="Eyes-Bear3fil152" r="235" transform="matrix(-0.819853 0.0201454 0.0264891 0.794972 17482.8 12432.4)"/>
 </g><g id="HatFreddy-Big">
  <animateTransform additive="sum" attributeName="transform" dur="10" repeatCount="indefinite" type="translate" values="0;0 200;0;0 200;0;0 200;0;0 200;0"/>
  <metadata id="CorelCorpID_11Corel-Layer"/>
  <g id="_1379562776944">
   <path class="HatFreddy-Bigfil57 HatFreddy-Bigstr0" d="M13681 12582c5707,0 6059,-2135 8328,-2134 -696,-279 -1557,-301 -2730,-660 -1531,-469 -3810,282 -5598,282 -1787,0 -4066,-751 -5597,-282 -1173,359 -2035,381 -2730,660 2268,-1 2621,2134 8327,2134z" style="fill:#c79d49"/>
   <path class="HatFreddy-Bigfil1" d="M12323 9967c-1483,-188 -3076,-535 -4239,-179 -1173,359 -2035,381 -2730,660 1513,-1 2174,949 4139,1581 -797,-1270 3360,-58 6014,-1104 -578,-220 -2607,-738 -3184,-958z" style="fill:#95f737"/>
   <path class="HatFreddy-Bigfil58 HatFreddy-Bigstr0" d="M16171 4194c1208,338 1680,1810 2099,2145 545,437 747,2632 981,3492 -393,677 -3179,1179 -5542,1187l0 0 -28 0 -28 0 0 0c-2362,-8 -5148,-510 -5541,-1187 233,-860 436,-3055 981,-3492 419,-335 891,-1807 2099,-2145 601,-169 1737,456 2489,468 753,-12 1889,-637 2490,-468z" style="fill:#ea6478"/>
   <path class="HatFreddy-Bigfil7" d="M16253 10809c-4430,-518 -2303,-4228 -2482,-5129 -111,-556 -434,-707 -472,-273 -215,2472 -3470,1900 -3699,1643 -415,-466 571,-2026 895,-2377 -334,232 -706,657 -916,1035 -295,530 -628,746 -652,786 -439,746 -694,2682 -808,3227 289,1090 5532,1606 8134,1088z" style="fill:#4a9018"/>
   <path class="HatFreddy-Bigfil1" d="M14546 5210c760,848 1092,1288 3490,1507 395,36 -1235,713 -2451,492 -1064,-194 -1630,-2657 -1039,-1999z" style="fill:#e5849e"/>
   <path class="HatFreddy-Bigfil54" d="M11417 12307c7371,191 7731,-2039 9971,-1919 -1870,178 -2942,2571 -9971,1919z" style="fill:#f3363e"/>
   <path class="HatFreddy-Bigfil54" d="M16366 10649c1286,-166 2537,-533 2639,-858 51,-164 -344,-2199 -578,-2988 255,2570 -266,3175 -2061,3846z" style="fill:#43a04e"/>
   <path class="HatFreddy-Bigfil54" d="M11525 4291c979,120 1551,758 2806,394 -570,640 -1321,418 -2806,-394z" style="fill:#9f8281"/>
   <path class="HatFreddy-Bigfil54" d="M15298 4439c808,-164 1789,681 2304,1189 -604,-836 -1338,-1632 -2304,-1189z" style="fill:#00b821"/>
  </g>
 </g><g id="Moustache-Bear1">
 <animateTransform additive="sum" attributeName="transform" dur="10" repeatCount="indefinite" type="translate" values="0;0 200;0;0 200;0;0 200;0;0 200;0"/>
  <metadata id="CorelCorpID_297Corel-Layer"/>
  <g>
   <ellipse class="Moustache-Bear1fil100" cx="12633" cy="14870" rx="101" ry="97"/>
   <ellipse class="Moustache-Bear1fil100" cx="12927" cy="15109" rx="101" ry="97"/>
   <ellipse class="Moustache-Bear1fil100" cx="14674" cy="14870" rx="101" ry="97"/>
   <ellipse class="Moustache-Bear1fil100" cx="14381" cy="15109" rx="101" ry="97"/>
  </g>
 </g><g id="Nose-Bear0">
 <animateTransform additive="sum" attributeName="transform" dur="10" repeatCount="indefinite" type="translate" values="0;0 200;0;0 200;0;0 200;0;0 200;0"/>
  <metadata id="CorelCorpID_304Corel-Layer"/>
  <path class="Nose-Bear0fil598 Nose-Bear0str0" d="M13654 14109c-356,0 -852,135 -813,337 34,185 361,481 813,481 452,0 778,-296 813,-481 38,-202 -457,-337 -813,-337z" style="fill:#782114"/>
 </g></svg>