<svg xmlns="http://www.w3.org/2000/svg" xmlns:xlink="http://www.w3.org/1999/xlink" style="shape-rendering:geometricPrecision; text-rendering:geometricPrecision; image-rendering:optimizeQuality; fill-rule:evenodd; clip-rule:evenodd" version="1.1" viewBox="0 0 29000 29000" xml:space="preserve"><defs><style type="text/css">.Tail-Bear0fil22 {fill:none}
.RightFoot-Bear0fil35 {fill:#ffffff}
.RightFoot-Bear0fil14 {fill:black;fill-opacity:0.200000}
.RightFoot-Bear0fil32 {fill:black;fill-rule:nonzero}
.RightLeg-Bear5fil441 {fill:url(#RightLeg-Bear5id150)}
.RightLeg-Bear5fil14 {fill:black;fill-opacity:0.200000}
.RightLeg-Bear5fil32 {fill:black;fill-rule:nonzero}
.LeftFoot-Bear0fil35 {fill:#ffffff}
.LeftFoot-Bear0fil14 {fill:black;fill-opacity:0.200000}
.LeftFoot-Bear0fil32 {fill:black;fill-rule:nonzero}
.LeftLeg-Bear5fil451 {fill:url(#LeftLeg-Bear5id315)}
.LeftLeg-Bear5fil14 {fill:black;fill-opacity:0.200000}
.LeftLeg-Bear5fil32 {fill:black;fill-rule:nonzero}
.RightPaw-Bear0fil457 {fill:#f5f1db}
.RightPaw-Bear0fil32 {fill:black;fill-rule:nonzero}
.RightPaw-Bear0fil458 {fill:#A16A6A}
.LeftPaw-Bear0fil457 {fill:#f5f1db}
.LeftPaw-Bear0fil32 {fill:black;fill-rule:nonzero}
.LeftPaw-Bear0fil458 {fill:#A16A6A}
.Body-Bear5fil476 {fill:url(#Body-Bear5id267)}
.Body-Bear5fil14 {fill:black;fill-opacity:0.200000}
.Body-Bear5fil32 {fill:black;fill-rule:nonzero}
.Body-Bear5fil22 {fill:none}
.Body-Bear5fil482 {fill:url(#Body-Bear5id211)}
.Mouth-Bear5fil100 {fill:black}
.Mouth-Bear5fil22 {fill:none}
.Mouth-Bear5str0 {stroke:black;stroke-width:150;stroke-linecap:round;stroke-linejoin:round}
.Mouth-Bear5fil152 {fill:white}
.Mouth-Bear5str9 {stroke:black;stroke-width:120;stroke-linecap:round;stroke-linejoin:round}
.Eyes-Bear0fil155 {fill:#5e726e}
.Eyes-Bear0fil529 {fill:url(#Eyes-Bear0id983)}
.Eyes-Bear0fil530 {fill:url(#Eyes-Bear0id917)}
.Eyes-Bear0fil157 {fill:black;fill-opacity:0.501961}
.Eyes-Bear0fil152 {fill:white}
.Eyes-Bear0fil531 {fill:url(#Eyes-Bear0id697)}
.Eyes-Bear0fil532 {fill:url(#Eyes-Bear0id982)}
.Eyes-Bear0fil533 {fill:url(#Eyes-Bear0id985)}
.Eyes-Bear0fil534 {fill:url(#Eyes-Bear0id671)}
.Eyes-Bear0fil22 {fill:none}
.Eyes-Bear0str4 {stroke:black;stroke-width:150}
.Nose-Bear0fil598 {fill:url(#Nose-Bear0id451)}
.Nose-Bear0str0 {stroke:black;stroke-width:150;stroke-linecap:round;stroke-linejoin:round}
.BraceletGold-Bigfil3new {fill:black;fill-opacity:0.301961}
.BraceletGold-Bigfil68new {fill:url(#BraceletGold-Bigid692new);fill-rule:nonzero}
.BraceletGold-Bigstr3new {stroke:black;stroke-width:100;stroke-linecap:round;stroke-linejoin:round}
.BraceletGold-Bigfil69new {fill:url(#BraceletGold-Bigid688new);fill-rule:nonzero}
.NecklaceShipWheelfil14new {fill:black;fill-opacity:0.200000}
.NecklaceShipWheelfil372new {fill:url(#NecklaceShipWheelid598new)}
.NecklaceShipWheelfil373new {fill:#EDC26D;fill-opacity:0.301961}
.NecklaceShipWheelfil375new {fill:url(#NecklaceShipWheelid339new)}
.NecklaceShipWheelfil377new {fill:url(#NecklaceShipWheelid552new)}
.NecklaceShipWheelfil379new {fill:url(#NecklaceShipWheelid476new)}
.NecklaceShipWheelfil381new {fill:url(#NecklaceShipWheelid592new)}
.NecklaceShipWheelfil383new {fill:url(#NecklaceShipWheelid392new)}
.NecklaceShipWheelfil385new {fill:url(#NecklaceShipWheelid560new)}
.NecklaceShipWheelfil387new {fill:url(#NecklaceShipWheelid388new)}
.NecklaceShipWheelfil389new {fill:url(#NecklaceShipWheelid577new)}
.NecklaceShipWheelfil391new {fill:url(#NecklaceShipWheelid522new)}
.NecklaceShipWheelfil393new {fill:url(#NecklaceShipWheelid605new)}
.NecklaceShipWheelfil395new {fill:url(#NecklaceShipWheelid384new)}
.NecklaceShipWheelfil399new {fill:#EDC26D;fill-opacity:0.200000}
.NecklaceShipWheelfil371new {fill:url(#NecklaceShipWheelid0new)}
.NecklaceShipWheelstr0new {stroke:black;stroke-width:150;stroke-linecap:round;stroke-linejoin:round}
.NecklaceShipWheelfil33new {fill:none}
.NecklaceShipWheelfil374 {fill:url(#NecklaceShipWheelid1004)}
.NecklaceShipWheelfil376new {fill:url(#NecklaceShipWheelid291new)}
.NecklaceShipWheelfil378new {fill:url(#NecklaceShipWheelid520new)}
.NecklaceShipWheelfil380new {fill:url(#NecklaceShipWheelid266new)}
.NecklaceShipWheelfil382new {fill:url(#NecklaceShipWheelid341new)}
.NecklaceShipWheelfil384new {fill:url(#NecklaceShipWheelid334new)}
.NecklaceShipWheelfil386new {fill:url(#NecklaceShipWheelid309new)}
.NecklaceShipWheelfil388new {fill:url(#NecklaceShipWheelid524new)}
.NecklaceShipWheelfil390new {fill:url(#NecklaceShipWheelid468new)}
.NecklaceShipWheelfil392new {fill:url(#NecklaceShipWheelid431new)}
.NecklaceShipWheelfil394new {fill:url(#NecklaceShipWheelid526new)}
.NecklaceShipWheelfil396new {fill:url(#NecklaceShipWheelid443new)}
.NecklaceShipWheelfil397new {fill:url(#NecklaceShipWheelid198new)}
.NecklaceShipWheelfil398new {fill:url(#NecklaceShipWheelid505new)}
.NecklaceShipWheelstr6new {stroke:black;stroke-width:150}
.HatGasmask-Bigfil163 {fill:url(#HatGasmask-Bigid31)}
.HatGasmask-Bigfil136 {fill:#2B2A29;fill-opacity:0.101961}
.HatGasmask-Bigfil138 {fill:#2B2A29;fill-opacity:0.301961}
.HatGasmask-Bigfil165 {fill:url(#HatGasmask-Bigid102)}
.HatGasmask-Bigfil140 {fill:white;fill-opacity:0.701961}
.HatGasmask-Bigfil167 {fill:url(#HatGasmask-Bigid103)}
.HatGasmask-Bigfil77 {fill:black;fill-opacity:0.200000}
.HatGasmask-Bigfil150 {fill:#FFE47F;fill-opacity:0.101961}
.HatGasmask-Bigfil98 {fill:black;fill-opacity:0.301961}
.HatGasmask-Bigfil73 {fill:#2B2A29;fill-opacity:0.200000}
.HatGasmask-Bigfil76 {fill:white;fill-rule:nonzero;fill-opacity:0.501961}
.HatGasmask-Bigfil97 {fill:white;fill-opacity:0.501961}
.HatGasmask-Bigfil135 {fill:none}
.HatGasmask-Bigstr8 {stroke:black;stroke-width:150;stroke-linecap:round;stroke-linejoin:round;stroke-opacity:0.200000}
.HatGasmask-Bigstr9 {stroke:#2B2A29;stroke-width:100;stroke-opacity:0.200000}
.HatGasmask-Bigfil12 {fill:none}
.HatGasmask-Bigstr0 {stroke:black;stroke-width:150}
.HatGasmask-Bigfil164 {fill:url(#HatGasmask-Bigid100)}
.HatGasmask-Bigfil166 {fill:url(#HatGasmask-Bigid99)}
.HatGasmask-Bigfil168 {fill:url(#HatGasmask-Bigid29)}
.HatGasmask-Bigfil169 {fill:url(#HatGasmask-Bigid62)}
.HatGasmask-Bigstr1 {stroke:black;stroke-width:150;stroke-linecap:round;stroke-linejoin:round}
.HatGasmask-Bigfil170 {fill:url(#HatGasmask-Bigid12)}
.HatGasmask-Bigfil171 {fill:url(#HatGasmask-Bigid15)}
.HatGasmask-Bigfil172 {fill:url(#HatGasmask-Bigid87)}
.HatGasmask-Bigfil148 {fill:none}
.HatGasmask-Bigstr10 {stroke:#FFFFB8;stroke-width:150;stroke-opacity:0.301961}
.HatGasmask-Bigfil173 {fill:url(#HatGasmask-Bigid22)}
.HatGasmask-Bigstr11 {stroke:black;stroke-width:100;stroke-opacity:0.301961}
.HatGasmask-Bigfil151 {fill:none}
.HatGasmask-Bigstr12 {stroke:black;stroke-width:100;stroke-opacity:0.501961}
.NecklaceFullCoatBack-Bigfil33 {fill:url(#NecklaceFullCoatBack-Bigid27)}
.NecklaceFullCoatBack-Bigstr3 {stroke:black;stroke-width:150}
.NecklaceFullCoatBack-Bigfil34 {fill:url(#NecklaceFullCoatBack-Bigid28)}
.NecklaceFullCoat-Bigfil35 {fill:url(#NecklaceFullCoat-Bigid26)}
.NecklaceFullCoat-Bigfil15 {fill:white;fill-opacity:0.301961}
.NecklaceFullCoat-Bigfil2 {fill:black;fill-opacity:0.301961}
.NecklaceFullCoat-Bigfil5 {fill:black;fill-rule:nonzero}
.NecklaceFullCoat-Bigfil6 {fill:black;fill-opacity:0.400000}
.NecklaceFullCoat-Bigfil36 {fill:url(#NecklaceFullCoat-Bigid20)}
.NecklaceFullCoat-Bigfil17 {fill:white;fill-opacity:0.200000}
.NecklaceFullCoat-Bigfil18 {fill:black;fill-rule:nonzero;fill-opacity:0.200000}
.NecklaceFullCoat-Bigfil19 {fill:white;fill-rule:nonzero;fill-opacity:0.200000}
.NecklaceFullCoat-Bigfil4 {fill:black;fill-opacity:0.501961}
.NecklaceFullCoat-Bigfil37 {fill:url(#NecklaceFullCoat-Bigid18)}
.NecklaceFullCoat-Bigfil21 {fill:white;fill-opacity:0.400000}
.NecklaceFullCoat-Bigfil39 {fill:url(#NecklaceFullCoat-Bigid13)}
.NecklaceFullCoat-Bigfil40 {fill:url(#NecklaceFullCoat-Bigid16)}
.NecklaceFullCoat-Bigfil1 {fill:none}
.NecklaceFullCoat-Bigstr1 {stroke:black;stroke-width:150;stroke-linecap:round;stroke-linejoin:round}
.NecklaceFullCoat-Bigfil38 {fill:url(#NecklaceFullCoat-Bigid29)}
</style><linearGradient gradientUnits="userSpaceOnUse" id="RightLeg-Bear5id150" x1="15526.7" x2="15526.7" y1="24311.8" y2="20742.8">
   <stop offset="0" style="stop-opacity:1; stop-color:#ffffff"/>
   <stop offset="0.278431" style="stop-opacity:1; stop-color:#ffffff"/>
   <stop offset="1" style="stop-opacity:1; stop-color:#f5f1db"/>
  </linearGradient><linearGradient gradientUnits="userSpaceOnUse" id="LeftLeg-Bear5id315" x1="11781" x2="11781" xlink:href="#LeftLeg-Bear5id150" y1="24311.8" y2="20742.8">
  </linearGradient><linearGradient gradientUnits="objectBoundingBox" id="Body-Bear5id267" x1="50%" x2="50%" xlink:href="#Body-Bear5id266" y1="0%" y2="100%">
  </linearGradient><linearGradient gradientUnits="userSpaceOnUse" id="Body-Bear5id211" x1="13653.8" x2="13653.8" y1="17305.4" y2="21758.8">
   <stop offset="0" style="stop-opacity:1; stop-color:#f2e6e6"/>
   <stop offset="0.721569" style="stop-opacity:1; stop-color:#ffffff"/>
   <stop offset="1" style="stop-opacity:1; stop-color:#ffffff"/>
  </linearGradient><linearGradient gradientUnits="userSpaceOnUse" id="Eyes-Bear0id983" x1="10404.6" x2="9688.57" xlink:href="#Eyes-Bear0id27" y1="14613.2" y2="11514.3">
  </linearGradient><linearGradient gradientUnits="userSpaceOnUse" id="Eyes-Bear0id917" x1="8622.87" x2="11521.7" xlink:href="#Eyes-Bear0id57" y1="13926.2" y2="13926.2">
  </linearGradient><linearGradient gradientUnits="userSpaceOnUse" id="Eyes-Bear0id697" x1="10071.8" x2="10548.5" xlink:href="#Eyes-Bear0id384" y1="11919.6" y2="13937.8">
  </linearGradient><linearGradient gradientUnits="userSpaceOnUse" id="Eyes-Bear0id982" x1="16903.1" x2="17619.1" xlink:href="#Eyes-Bear0id27" y1="14613.2" y2="11514.3">
  </linearGradient><linearGradient gradientUnits="userSpaceOnUse" id="Eyes-Bear0id985" x1="15786" x2="18684.8" xlink:href="#Eyes-Bear0id57" y1="13926.2" y2="13926.2">
  </linearGradient><linearGradient gradientUnits="userSpaceOnUse" id="Eyes-Bear0id671" x1="17235.9" x2="16759.1" xlink:href="#Eyes-Bear0id384" y1="11919.6" y2="13937.8">
  </linearGradient><linearGradient gradientUnits="userSpaceOnUse" id="Nose-Bear0id451" x1="13653.8" x2="13653.8" y1="14108.6" y2="14926.9">
   <stop offset="0" style="stop-opacity:1; stop-color:#FFCCCC"/>
   <stop offset="1" style="stop-opacity:1; stop-color:#453F2C"/>
  </linearGradient><linearGradient gradientUnits="userSpaceOnUse" id="BraceletGold-Bigid692new" x1="8225.17" x2="10179.3" xlink:href="#BraceletGold-Bigid673new" y1="19737.3" y2="20648.5">
  </linearGradient><linearGradient gradientUnits="userSpaceOnUse" id="BraceletGold-Bigid688new" x1="19082.5" x2="17128.4" xlink:href="#BraceletGold-Bigid673new" y1="19737.3" y2="20648.5">
  </linearGradient><linearGradient gradientUnits="userSpaceOnUse" id="NecklaceShipWheelid598new" x1="10946.7" x2="11398.3" xlink:href="#NecklaceShipWheelid198new" y1="16600" y2="17725.9">
  </linearGradient><linearGradient gradientUnits="userSpaceOnUse" id="NecklaceShipWheelid339new" x1="12518.8" x2="12947" xlink:href="#NecklaceShipWheelid198new" y1="18755.5" y2="19611.7">
  </linearGradient><linearGradient gradientUnits="userSpaceOnUse" id="NecklaceShipWheelid552new" x1="9023.86" x2="10212.5" xlink:href="#NecklaceShipWheelid198new" y1="20827.6" y2="21151.5">
  </linearGradient><linearGradient gradientUnits="userSpaceOnUse" id="NecklaceShipWheelid476new" x1="11591.8" x2="12634.8" xlink:href="#NecklaceShipWheelid198new" y1="20530.1" y2="20746.4">
  </linearGradient><linearGradient gradientUnits="userSpaceOnUse" id="NecklaceShipWheelid592new" x1="11552" x2="12513.5" xlink:href="#NecklaceShipWheelid198new" y1="24648.7" y2="23806.9">
  </linearGradient><linearGradient gradientUnits="userSpaceOnUse" id="NecklaceShipWheelid392new" x1="12660.1" x2="13464.5" xlink:href="#NecklaceShipWheelid198new" y1="22282.5" y2="21518.6">
  </linearGradient><linearGradient gradientUnits="userSpaceOnUse" id="NecklaceShipWheelid560new" x1="16417.2" x2="15965.5" xlink:href="#NecklaceShipWheelid198new" y1="24294" y2="23168.1">
  </linearGradient><linearGradient gradientUnits="userSpaceOnUse" id="NecklaceShipWheelid388new" x1="14845" x2="14416.8" xlink:href="#NecklaceShipWheelid198new" y1="22138.5" y2="21282.3">
  </linearGradient><linearGradient gradientUnits="userSpaceOnUse" id="NecklaceShipWheelid577new" x1="18340" x2="17151.4" xlink:href="#NecklaceShipWheelid198new" y1="20066.3" y2="19742.5">
  </linearGradient><linearGradient gradientUnits="userSpaceOnUse" id="NecklaceShipWheelid522new" x1="15772" x2="14729.1" xlink:href="#NecklaceShipWheelid198new" y1="20363.9" y2="20147.6">
  </linearGradient><linearGradient gradientUnits="userSpaceOnUse" id="NecklaceShipWheelid605new" x1="15811.8" x2="14850.3" xlink:href="#NecklaceShipWheelid198new" y1="16245.3" y2="17087.1">
  </linearGradient><linearGradient gradientUnits="userSpaceOnUse" id="NecklaceShipWheelid384new" x1="14703.8" x2="13899.3" xlink:href="#NecklaceShipWheelid198new" y1="18611.5" y2="19375.4">
  </linearGradient><linearGradient gradientUnits="userSpaceOnUse" id="NecklaceShipWheelid0new" x1="13681.9" x2="13681.9" y1="25815.8" y2="19053.8">
   <stop offset="0" style="stop-opacity:1; stop-color:#96612C"/>
   <stop offset="1" style="stop-opacity:1; stop-color:#472809"/>
  </linearGradient><linearGradient gradientUnits="userSpaceOnUse" id="NecklaceShipWheelid1004" x1="10847.2" x2="10197.9" xlink:href="#NecklaceShipWheelid27" y1="14638.9" y2="11698.6">
  </linearGradient><linearGradient gradientUnits="userSpaceOnUse" id="NecklaceShipWheelid291new" x1="12300.1" x2="12310.4" xlink:href="#NecklaceShipWheelid198new" y1="18376.7" y2="18866.9">
  </linearGradient><linearGradient gradientUnits="userSpaceOnUse" id="NecklaceShipWheelid520new" x1="10722.1" x2="10282.8" xlink:href="#NecklaceShipWheelid198new" y1="20695" y2="20990.7">
  </linearGradient><linearGradient gradientUnits="userSpaceOnUse" id="NecklaceShipWheelid266new" x1="11162.9" x2="11662.9" xlink:href="#NecklaceShipWheelid198new" y1="20628.7" y2="20824.5">
  </linearGradient><linearGradient gradientUnits="userSpaceOnUse" id="NecklaceShipWheelid341new" x1="12385.5" x2="12484.5" xlink:href="#NecklaceShipWheelid198new" y1="23148.3" y2="23648.7">
  </linearGradient><linearGradient gradientUnits="userSpaceOnUse" id="NecklaceShipWheelid334new" x1="12586.8" x2="12992.4" xlink:href="#NecklaceShipWheelid198new" y1="22698.8" y2="22404.8">
  </linearGradient><linearGradient gradientUnits="userSpaceOnUse" id="NecklaceShipWheelid309new" x1="15384.4" x2="15844.6" xlink:href="#NecklaceShipWheelid198new" y1="22929.3" y2="23075.9">
  </linearGradient><linearGradient gradientUnits="userSpaceOnUse" id="NecklaceShipWheelid524new" x1="15063.8" x2="15053.4" xlink:href="#NecklaceShipWheelid198new" y1="22517.3" y2="22027.1">
  </linearGradient><linearGradient gradientUnits="userSpaceOnUse" id="NecklaceShipWheelid468new" x1="16641.7" x2="17081.1" xlink:href="#NecklaceShipWheelid198new" y1="20199" y2="19903.3">
  </linearGradient><linearGradient gradientUnits="userSpaceOnUse" id="NecklaceShipWheelid431new" x1="16201" x2="15700.9" xlink:href="#NecklaceShipWheelid198new" y1="20265.3" y2="20069.4">
  </linearGradient><linearGradient gradientUnits="userSpaceOnUse" id="NecklaceShipWheelid526new" x1="14978.3" x2="14879.4" xlink:href="#NecklaceShipWheelid198new" y1="17745.7" y2="17245.3">
  </linearGradient><linearGradient gradientUnits="userSpaceOnUse" id="NecklaceShipWheelid443new" x1="14777" x2="14371.5" xlink:href="#NecklaceShipWheelid198new" y1="18195.2" y2="18489.2">
  </linearGradient><linearGradient gradientUnits="userSpaceOnUse" id="NecklaceShipWheelid505new" x1="14288.3" x2="13075.5" xlink:href="#NecklaceShipWheelid198new" y1="19443.4" y2="21417.5">
  </linearGradient><linearGradient gradientUnits="userSpaceOnUse" id="HatGasmask-Bigid31" x1="10266.8" x2="17097" xlink:href="#HatGasmask-Bigid24" y1="17724.7" y2="7163.67">
  </linearGradient><linearGradient gradientUnits="userSpaceOnUse" id="HatGasmask-Bigid102" x1="12111.7" x2="8005.86" xlink:href="#HatGasmask-Bigid95" y1="14256.9" y2="11655.2">
  </linearGradient><linearGradient gradientUnits="userSpaceOnUse" id="HatGasmask-Bigid103" x1="15252.2" x2="19358" xlink:href="#HatGasmask-Bigid95" y1="14256.9" y2="11655.2">
  </linearGradient><linearGradient gradientUnits="userSpaceOnUse" id="HatGasmask-Bigid100" x1="12139.6" x2="7770.69" xlink:href="#HatGasmask-Bigid62" y1="11226.7" y2="14385">
  </linearGradient><linearGradient gradientUnits="userSpaceOnUse" id="HatGasmask-Bigid99" x1="15453.9" x2="19363.5" xlink:href="#HatGasmask-Bigid62" y1="10930" y2="14681.7">
  </linearGradient><linearGradient gradientUnits="userSpaceOnUse" id="HatGasmask-Bigid29" x1="12337" x2="15026.9" xlink:href="#HatGasmask-Bigid15" y1="16267.3" y2="16267.3">
  </linearGradient><linearGradient gradientUnits="userSpaceOnUse" id="HatGasmask-Bigid12" x1="12066.5" x2="15297.3" y1="15707.9" y2="15707.9">
   <stop offset="0" style="stop-opacity:1; stop-color:#4D5533"/>
   <stop offset="0.541176" style="stop-opacity:1; stop-color:#373E1C"/>
   <stop offset="0.741176" style="stop-opacity:1; stop-color:#656E4D"/>
   <stop offset="0.878431" style="stop-opacity:1; stop-color:#3D4326"/>
   <stop offset="1" style="stop-opacity:1; stop-color:#7C854E"/>
  </linearGradient><linearGradient gradientUnits="userSpaceOnUse" id="HatGasmask-Bigid87" x1="11573.6" x2="15790.3" xlink:href="#HatGasmask-Bigid6" y1="18398.5" y2="18398.5">
  </linearGradient><linearGradient gradientUnits="userSpaceOnUse" id="HatGasmask-Bigid22" x1="11573.6" x2="15790.3" xlink:href="#HatGasmask-Bigid18" y1="19552.3" y2="19552.3">
  </linearGradient><linearGradient gradientUnits="userSpaceOnUse" id="NecklaceFullCoatBack-Bigid27" x1="9781.24" x2="7883.96" xlink:href="#NecklaceFullCoatBack-Bigid6" y1="20982.8" y2="21357">
  </linearGradient><linearGradient gradientUnits="userSpaceOnUse" id="NecklaceFullCoatBack-Bigid28" x1="17526.4" x2="19423.7" xlink:href="#NecklaceFullCoatBack-Bigid6" y1="20982.8" y2="21357">
  </linearGradient><linearGradient gradientUnits="userSpaceOnUse" id="NecklaceFullCoat-Bigid26" x1="18052.7" x2="17651" xlink:href="#NecklaceFullCoat-Bigid7" y1="21906.5" y2="17640.8">
  </linearGradient><linearGradient gradientUnits="userSpaceOnUse" id="NecklaceFullCoat-Bigid20" x1="16108.8" x2="16421.2" xlink:href="#NecklaceFullCoat-Bigid2" y1="24872.1" y2="17999.7">
  </linearGradient><linearGradient gradientUnits="userSpaceOnUse" id="NecklaceFullCoat-Bigid18" x1="15428.3" x2="17918.2" xlink:href="#NecklaceFullCoat-Bigid16" y1="20808.7" y2="16927.3">
  </linearGradient><linearGradient gradientUnits="userSpaceOnUse" id="NecklaceFullCoat-Bigid13" x1="10892.7" x2="11205" xlink:href="#NecklaceFullCoat-Bigid2" y1="24872.1" y2="17999.7">
  </linearGradient><linearGradient gradientUnits="userSpaceOnUse" id="NecklaceFullCoat-Bigid29" x1="9254.96" x2="9656.68" xlink:href="#NecklaceFullCoat-Bigid7" y1="21906.5" y2="17640.8">
  </linearGradient><linearGradient gradientUnits="userSpaceOnUse" id="LeftLeg-Bear5id150" x1="15526.7" x2="15526.7" y1="24311.8" y2="20742.8">
   <stop offset="0" style="stop-opacity:1; stop-color:#ffffff"/>
   <stop offset="0.278431" style="stop-opacity:1; stop-color:#ffffff"/>
   <stop offset="1" style="stop-opacity:1; stop-color:#f5f1db"/>
  </linearGradient><linearGradient gradientUnits="userSpaceOnUse" id="Body-Bear5id266" x1="13653.8" x2="13653.8" y1="17442" y2="23250.9">
   <stop offset="0" style="stop-opacity:1; stop-color:#cfcaae"/>
   <stop offset="0.0588235" style="stop-opacity:1; stop-color:#cfcaae"/>
   <stop offset="0.529412" style="stop-opacity:1; stop-color:#f5f1db"/>
   <stop offset="1" style="stop-opacity:1; stop-color:#ffffff"/>
  </linearGradient><linearGradient gradientUnits="userSpaceOnUse" id="Eyes-Bear0id27" x1="16937.6" x2="16937.6" y1="14961.3" y2="11448.6">
   <stop offset="0" style="stop-opacity:1; stop-color:#500073"/>
   <stop offset="1" style="stop-opacity:1; stop-color:black"/>
  </linearGradient><linearGradient gradientUnits="objectBoundingBox" id="Eyes-Bear0id57" x1="100%" x2="0%" y1="50.0003%" y2="50.0003%">
   <stop offset="0" style="stop-opacity:1; stop-color:#500073"/>
   <stop offset="0.501961" style="stop-opacity:1; stop-color:#a900f2"/>
   <stop offset="1" style="stop-opacity:1; stop-color:#500073"/>
  </linearGradient><linearGradient gradientUnits="userSpaceOnUse" id="Eyes-Bear0id384" x1="16417.8" x2="16417.8" y1="11784.3" y2="14068.5">
   <stop offset="0" style="stop-opacity:1; stop-color:black"/>
   <stop offset="0.45" style="stop-opacity:1; stop-color:black"/>
   <stop offset="1" style="stop-opacity:1; stop-color:#3e0059"/>
  </linearGradient><linearGradient gradientUnits="userSpaceOnUse" id="BraceletGold-Bigid673new" x1="13044.2" x2="14365.2" y1="20556.7" y2="16663.2">
   <stop offset="0" style="stop-opacity:1; stop-color:#CC9933"/>
   <stop offset="0.109804" style="stop-opacity:1; stop-color:#FFF98F"/>
   <stop offset="0.25098" style="stop-opacity:1; stop-color:#FFFFFC"/>
   <stop offset="0.478431" style="stop-opacity:1; stop-color:#FFF982"/>
   <stop offset="0.811765" style="stop-opacity:1; stop-color:#643200"/>
   <stop offset="1" style="stop-opacity:1; stop-color:#CC9933"/>
  </linearGradient><linearGradient gradientUnits="userSpaceOnUse" id="NecklaceShipWheelid198new" x1="15325.7" x2="12038.2" y1="17755" y2="23105.9">
   <stop offset="0" style="stop-opacity:1; stop-color:#96612C"/>
   <stop offset="1" style="stop-opacity:1; stop-color:#754515"/>
  </linearGradient><linearGradient gradientUnits="userSpaceOnUse" id="NecklaceShipWheelid27" x1="16937.6" x2="16937.6" y1="14961.3" y2="11448.6">
   <stop offset="0" style="stop-opacity:1; stop-color:#500073"/>
   <stop offset="1" style="stop-opacity:1; stop-color:black"/>
  </linearGradient><linearGradient gradientUnits="userSpaceOnUse" id="HatGasmask-Bigid24" x1="10583.2" x2="16780.7" y1="17541" y2="7429.18">
   <stop offset="0" style="stop-opacity:1; stop-color:#AB9B76"/>
   <stop offset="0.45098" style="stop-opacity:1; stop-color:#D5CDB3"/>
   <stop offset="1" style="stop-opacity:1; stop-color:#F7EBD4"/>
  </linearGradient><linearGradient gradientUnits="userSpaceOnUse" id="HatGasmask-Bigid95" x1="14829.5" x2="18247.5" y1="15670.2" y2="13504.3">
   <stop offset="0" style="stop-opacity:1; stop-color:#525252"/>
   <stop offset="0.470588" style="stop-opacity:1; stop-color:#919291"/>
   <stop offset="1" style="stop-opacity:1; stop-color:#8E9D8A"/>
  </linearGradient><linearGradient gradientUnits="userSpaceOnUse" id="HatGasmask-Bigid62" x1="15322" x2="12096.9" y1="15806.1" y2="15257.2">
   <stop offset="0" style="stop-opacity:1; stop-color:#BDB395"/>
   <stop offset="0.501961" style="stop-opacity:1; stop-color:#FFE9C4"/>
   <stop offset="1" style="stop-opacity:1; stop-color:#99877F"/>
  </linearGradient><linearGradient gradientUnits="userSpaceOnUse" id="HatGasmask-Bigid15" x1="12066.5" x2="15297.3" y1="17255.6" y2="17255.6">
   <stop offset="0" style="stop-opacity:1; stop-color:#654C39"/>
   <stop offset="0.341176" style="stop-opacity:1; stop-color:#4B352D"/>
   <stop offset="0.619608" style="stop-opacity:1; stop-color:#765948"/>
   <stop offset="0.831373" style="stop-opacity:1; stop-color:#543C31"/>
   <stop offset="1" style="stop-opacity:1; stop-color:#5B4235"/>
  </linearGradient><linearGradient gradientUnits="userSpaceOnUse" id="HatGasmask-Bigid6" x1="11768.9" x2="15595" y1="18186.1" y2="18186.1">
   <stop offset="0" style="stop-opacity:1; stop-color:#4D5533"/>
   <stop offset="0.341176" style="stop-opacity:1; stop-color:#373E1C"/>
   <stop offset="0.54902" style="stop-opacity:1; stop-color:#6D7555"/>
   <stop offset="0.74902" style="stop-opacity:1; stop-color:#3D4326"/>
   <stop offset="1" style="stop-opacity:1; stop-color:#7C854E"/>
  </linearGradient><linearGradient gradientUnits="userSpaceOnUse" id="HatGasmask-Bigid18" x1="11768.9" x2="15595" y1="19290.8" y2="19290.8">
   <stop offset="0" style="stop-opacity:1; stop-color:#373D1B"/>
   <stop offset="1" style="stop-opacity:1; stop-color:#524E34"/>
  </linearGradient><linearGradient gradientUnits="userSpaceOnUse" id="NecklaceFullCoatBack-Bigid6" x1="10204.6" x2="8309.5" y1="20452.4" y2="20452.4">
   <stop offset="0" style="stop-opacity:1; stop-color:#0D0D0D"/>
   <stop offset="0.509804" style="stop-opacity:1; stop-color:#191817"/>
   <stop offset="1" style="stop-opacity:1; stop-color:#3A3531"/>
  </linearGradient><linearGradient gradientUnits="userSpaceOnUse" id="NecklaceFullCoat-Bigid7" x1="17780.8" x2="16668.4" y1="21193.8" y2="17328.1">
   <stop offset="0" style="stop-opacity:1; stop-color:#20252B"/>
   <stop offset="0.34902" style="stop-opacity:1; stop-color:#242424"/>
   <stop offset="0.690196" style="stop-opacity:1; stop-color:#38332C"/>
   <stop offset="1" style="stop-opacity:1; stop-color:#413E39"/>
  </linearGradient><linearGradient gradientUnits="userSpaceOnUse" id="NecklaceFullCoat-Bigid2" x1="15858.8" x2="16171.2" y1="24722.1" y2="17849.7">
   <stop offset="0" style="stop-opacity:1; stop-color:#2E241D"/>
   <stop offset="0.431373" style="stop-opacity:1; stop-color:#1F211D"/>
   <stop offset="0.690196" style="stop-opacity:1; stop-color:#292725"/>
   <stop offset="1" style="stop-opacity:1; stop-color:#423F39"/>
  </linearGradient><linearGradient gradientUnits="userSpaceOnUse" id="NecklaceFullCoat-Bigid16" x1="11885.6" x2="9395.71" y1="20808.7" y2="16927.4">
   <stop offset="0" style="stop-opacity:1; stop-color:#241E1E"/>
   <stop offset="0.458824" style="stop-opacity:1; stop-color:#393B35"/>
   <stop offset="0.658824" style="stop-opacity:1; stop-color:#5E564E"/>
   <stop offset="0.831373" style="stop-opacity:1; stop-color:#424242"/>
   <stop offset="1" style="stop-opacity:1; stop-color:#322F2C"/>
  </linearGradient></defs><g id="NecklaceFullCoatBack-Big">
 <animateTransform additive="sum" attributeName="transform" dur="10" repeatCount="indefinite" type="translate" values="0;0 200;0;0 200;0;0 200;0;0 200;0"/>
  <metadata id="CorelCorpID_10Corel-Layer"/>
  <path class="NecklaceFullCoatBack-Bigfil33 NecklaceFullCoatBack-Bigstr3" d="M8662 21555c-538,-283 -967,-665 -957,-855 9,-190 627,-660 1364,-166 736,493 948,1202 880,1420 -69,219 -749,-117 -1287,-399z" style="fill:#e9137e"/>
  <path class="NecklaceFullCoatBack-Bigfil34 NecklaceFullCoatBack-Bigstr3" d="M18646 21555c538,-283 967,-665 957,-855 -9,-190 -628,-660 -1364,-166 -736,493 -949,1202 -880,1420 69,219 748,-117 1287,-399z" style="fill:#904e89"/>
 </g><g id="Tail-Bear0">
  <metadata id="CorelCorpID_219Corel-Layer"/>
  <rect class="Tail-Bear0fil22" height="1129" width="1129" x="13089" y="21055"/>
 </g><g id="RightFoot-Bear0">
  <metadata id="CorelCorpID_220Corel-Layer"/>
  <path class="RightFoot-Bear0fil35" d="M17045 25080c-66,213 -260,328 -578,232 -82,82 -466,170 -720,2 -241,-159 -607,-457 -720,-564 -96,-91 -335,-220 -291,-565 777,87 1299,173 1927,-306 18,146 320,205 479,267 233,89 426,392 211,604 42,135 -122,330 -308,330z" style="fill:#d22744"/>
  <path class="RightFoot-Bear0fil14" d="M16490 25327c320,133 480,-45 565,-254 204,-15 307,-138 301,-308 28,-45 52,-79 86,-174 31,-139 -54,-325 -125,-351 31,144 -137,125 -191,129 232,292 -30,451 -178,321 -4,299 -321,400 -555,107 -111,282 -514,451 -1612,-364 1095,1261 1346,941 1709,894z" style="fill:#2f1beb"/>
  <path class="RightFoot-Bear0fil32" d="M16963 25089c-68,167 -221,202 -384,173 53,-171 15,-486 -309,-550 160,131 191,345 122,563 -153,91 -454,76 -604,-23 -105,-69 -235,-166 -357,-262 -142,-112 -270,-229 -408,-342 -98,-80 -205,-212 -213,-454 5,-41 -24,-78 -65,-83 -41,-5 -84,23 -83,65 7,344 143,486 266,587 138,114 267,232 411,345 124,97 257,197 366,269 205,135 567,145 776,17 252,66 509,18 618,-243 169,-27 352,-197 334,-378 149,-177 94,-405 -60,-562 -136,-138 -294,-154 -454,-250 -66,-40 -120,-83 -125,-121l-137 73c20,64 119,137 185,176 138,83 316,117 424,227 53,54 98,127 105,203 -87,-137 -253,-261 -447,-225 213,57 340,284 356,532 -17,67 -81,130 -143,158 -9,-180 -141,-449 -459,-414 197,78 290,282 285,519z" style="fill:#f1a681"/>
 </g><g id="LeftFoot-Bear0">
  <metadata id="CorelCorpID_229Corel-Layer"/>
  <path class="LeftFoot-Bear0fil35" d="M10263 25080c66,213 260,328 578,232 82,82 466,170 720,2 241,-159 607,-457 719,-564 96,-91 336,-220 292,-565 -777,87 -1299,173 -1927,-306 -19,146 -321,205 -479,267 -233,89 -427,392 -211,604 -42,135 121,330 308,330z" style="fill:#47b4ef"/>
  <path class="LeftFoot-Bear0fil14" d="M10817 25327c-320,133 -479,-45 -565,-254 -203,-15 -307,-138 -301,-308 -27,-45 -52,-79 -85,-174 -32,-139 54,-325 124,-351 -30,144 137,125 192,129 -233,292 29,451 178,321 4,299 321,400 554,107 112,282 515,451 1613,-364 -1095,1261 -1346,941 -1710,894z" style="fill:#b28c3a"/>
  <path class="LeftFoot-Bear0fil32" d="M10345 25089c68,167 220,202 384,173 -54,-171 -16,-486 309,-550 -160,131 -191,345 -122,563 153,91 454,76 604,-23 104,-69 234,-166 356,-262 143,-112 271,-229 409,-342 97,-80 205,-212 213,-454 -5,-41 24,-78 65,-83 41,-5 84,23 83,65 -7,344 -143,486 -266,587 -139,114 -268,232 -411,345 -124,97 -258,197 -367,269 -205,135 -567,145 -776,17 -251,66 -509,18 -617,-243 -169,-27 -352,-197 -335,-378 -149,-177 -93,-405 61,-562 136,-138 294,-154 454,-250 66,-40 120,-83 125,-121l137 73c-20,64 -120,137 -185,176 -139,83 -316,117 -425,227 -53,54 -97,127 -104,203 86,-137 252,-261 447,-225 -213,57 -341,284 -357,532 18,67 82,130 144,158 8,-180 141,-449 459,-414 -197,78 -291,282 -285,519z" style="fill:#31d604"/>
 </g><g id="RightLeg-Bear5">
  <metadata id="CorelCorpID_228Corel-Layer"/>
  <path class="RightLeg-Bear5fil441" d="M13654 20747c651,0 2263,-52 2620,230 176,139 317,359 537,761 616,307 787,1332 328,1088 233,604 3,1128 -272,877 -48,50 -98,94 -148,132 -578,425 -1151,626 -1983,350 7,-583 -643,-742 -1082,-749l0 -2689z" style="fill:#3c899b"/>
  <path class="RightLeg-Bear5fil14" d="M16624 21411c57,94 118,202 187,327 616,307 787,1332 328,1088 233,604 3,1128 -272,877 -35,37 -71,70 -108,100 373,-493 383,-1493 -205,-1608 -112,-39 -358,-534 -110,-904 60,38 120,79 180,120z" style="fill:#2af908"/>
  <path class="RightLeg-Bear5fil32" d="M16798 21645c-37,-18 -82,-3 -100,34 -18,37 -3,82 34,100 2,1 25,14 43,24 10,6 18,11 24,14 296,159 477,496 517,744 10,61 11,115 3,157 -6,32 -16,54 -31,64 -20,13 -57,8 -114,-22 -36,-20 -82,-6 -101,31 -11,19 -11,42 -4,62l0 0c103,265 111,511 65,674l0 0c-17,57 -39,102 -65,131 -20,22 -41,35 -63,35 -25,0 -55,-14 -88,-45 -31,-28 -78,-26 -106,5 -28,31 -62,80 -95,106 -32,27 -43,60 -16,92 26,32 73,37 105,10 19,-15 38,-32 59,-51l9 -8c44,28 89,40 133,40 66,0 125,-30 173,-84 42,-47 75,-111 98,-190l0 0 0 0c45,-160 47,-385 -23,-630 45,2 84,-10 116,-32 50,-33 82,-89 95,-160 12,-59 11,-131 -2,-209 -47,-283 -254,-670 -594,-852l-22 -13c-18,-10 -41,-23 -50,-27z" style="fill:#6b5644"/>
  <path class="RightLeg-Bear5fil32" d="M16690 23782c-238,187 -417,303 -711,449 260,-35 573,-178 785,-337 42,-32 83,-66 122,-104l-141 0 0 -55c-18,17 -37,32 -55,47zm-1745 794c71,68 -33,176 -104,108 -135,-130 -182,-317 -180,-500 3,-218 -99,-369 -246,-471 -213,-147 -519,-198 -761,-203l0 -149 1 0c265,5 604,62 845,229 186,129 314,320 310,596 -1,139 31,290 135,390z" style="fill:#553d94"/>
 </g><g id="LeftLeg-Bear5">
  <metadata id="CorelCorpID_237Corel-Layer"/>
  <path class="LeftLeg-Bear5fil451" d="M13654 20747c-651,0 -2264,-52 -2620,230 -176,139 -318,359 -537,761 -616,307 -787,1332 -328,1088 -234,604 -4,1128 272,877 47,50 97,94 148,132 578,425 1150,626 1983,350 -7,-583 642,-742 1082,-749l0 -2689z" style="fill:#ef3f3c"/>
  <path class="LeftLeg-Bear5fil14" d="M10683 21411c-56,94 -117,202 -186,327 -616,307 -787,1332 -328,1088 -234,604 -4,1128 272,877 35,37 71,70 108,100 -374,-493 -383,-1493 205,-1608 111,-39 358,-534 109,-904 -59,38 -119,79 -180,120z" style="fill:#4046ec"/>
  <path class="LeftLeg-Bear5fil32" d="M10509 21645c37,-18 82,-3 101,34 18,37 3,82 -34,100 -2,1 -25,14 -43,24 -10,6 -19,11 -25,14 -295,159 -476,496 -517,744 -10,61 -11,115 -3,157 7,32 17,54 31,64 20,13 57,8 115,-22 36,-20 81,-6 101,31 10,19 11,42 3,62l0 0c-102,265 -110,511 -64,674l0 0c16,57 39,102 65,131 19,22 41,35 62,35 25,0 55,-14 89,-45 31,-28 78,-26 106,5 28,31 62,80 95,106 32,27 42,60 16,92 -26,32 -73,37 -106,10 -18,-15 -38,-32 -58,-51l-9 -8c-45,28 -90,40 -133,40 -66,0 -125,-30 -174,-84 -41,-47 -75,-111 -97,-190l0 0 0 0c-45,-160 -47,-385 22,-630 -44,2 -83,-10 -116,-32 -50,-33 -81,-89 -95,-160 -11,-59 -10,-131 3,-209 46,-283 254,-670 593,-852l23 -13c18,-10 41,-23 49,-27z" style="fill:#661bb5"/>
  <path class="LeftLeg-Bear5fil32" d="M10618 23782c238,187 417,303 711,449 -260,-35 -573,-178 -785,-337 -43,-32 -84,-66 -122,-104l141 0 0 -55c18,17 36,32 55,47zm1745 794c-71,68 32,176 103,108 135,-130 183,-317 181,-500 -3,-218 98,-369 246,-471 212,-147 519,-198 761,-203l0 -149 -1 0c-265,5 -604,62 -845,229 -186,129 -314,320 -311,596 2,139 -31,290 -134,390z" style="fill:#0e2d78"/>
 </g><g id="Body-Bear5">
 <animateTransform additive="sum" attributeName="transform" dur="10" repeatCount="indefinite" type="translate" values="0;0 200;0;0 200;0;0 200;0;0 200;0"/>
  <metadata id="CorelCorpID_260Corel-Layer"/>
  <path class="Body-Bear5fil476" d="M13654 23351c1692,-3 2768,-307 3233,-1926 302,-1052 -330,-2764 -1019,-3983 -551,110 -1409,139 -2214,150 -806,-11 -1663,-40 -2215,-150 -688,1219 -1321,2931 -1018,3983 465,1619 1541,1923 3233,1926z" style="fill:#acbe14"/>
  <path class="Body-Bear5fil14" d="M11416 22901c-455,-288 -787,-750 -995,-1476 -211,-735 34,-1792 435,-2779 -591,2230 70,3628 560,4255z" style="fill:#4e411b"/>
  <path class="Body-Bear5fil32" d="M11416 22901c-539,-241 -960,-968 -1067,-1455 -108,-487 -59,-1102 131,-1659 -71,577 -87,1191 13,1618 104,444 495,1184 923,1496z" style="fill:#62adff"/>
  <path class="Body-Bear5fil22" d="M12621 22856c-1016,-156 -1749,-629 -1932,-1889 -2,-17 -5,-34 -7,-51l0 -4c-2,-16 -4,-32 -5,-48l-1 -7c-1,-15 -3,-31 -4,-46l0 -8c-2,-15 -3,-30 -3,-46l-1 -8c-1,-16 -1,-31 -2,-47l0 -6c-1,-17 -1,-34 -1,-51l0 -5c0,-17 0,-34 0,-50l0 -8c0,-15 0,-31 1,-47l0 -9c1,-15 1,-30 2,-46l0 -11c1,-14 2,-29 3,-44l1 -12c1,-15 2,-29 3,-44l1 -13c1,-15 3,-31 4,-46l2 -14c1,-15 3,-30 5,-44l1 -15c2,-14 4,-27 5,-41l3 -18c2,-13 3,-26 5,-39l3 -18c2,-12 4,-25 6,-38 1,-7 2,-14 4,-22 2,-12 4,-25 6,-37l4 -23c2,-11 4,-23 6,-34 2,-9 4,-18 6,-28 2,-10 4,-21 6,-32 2,-9 4,-18 6,-27 2,-11 4,-21 7,-32l6 -27c2,-11 4,-21 7,-31 3,-13 6,-25 9,-37l5 -21c3,-14 6,-27 9,-40l5 -18c4,-14 7,-28 11,-42l4 -15c4,-15 8,-30 12,-46l3 -8c4,-16 9,-33 14,-49l1 -7m15 -50l9 -28c5,-17 10,-34 15,-52l2 -5c6,-17 11,-34 17,-51l1 -6c6,-18 12,-36 18,-54l0 -1c-142,1971 409,3124 1703,3596" style="fill:#6b8f78"/>
  <path class="Body-Bear5fil22" d="M12621 22856c-1016,-156 -1749,-629 -1932,-1889 -2,-17 -5,-34 -7,-51l0 -4c-2,-16 -4,-32 -5,-48l-1 -7c-1,-15 -3,-31 -4,-46l0 -8c-2,-15 -3,-30 -3,-46l-1 -8c-1,-16 -1,-31 -2,-47l0 -6c-1,-17 -1,-34 -1,-51l0 -5c0,-17 0,-34 0,-50l0 -8c0,-15 0,-31 1,-47l0 -9c1,-15 1,-30 2,-46l0 -11c1,-14 2,-29 3,-44l1 -12c1,-15 2,-29 3,-44l1 -13c1,-15 3,-31 4,-46l2 -14c1,-15 3,-30 5,-44l1 -15c2,-14 4,-27 5,-41l3 -18c2,-13 3,-26 5,-39l3 -18c2,-12 4,-25 6,-38 1,-7 2,-14 4,-22 2,-12 4,-25 6,-37l4 -23c2,-11 4,-23 6,-34 2,-9 4,-18 6,-28 2,-10 4,-21 6,-32 2,-9 4,-18 6,-27 2,-11 4,-21 7,-32l6 -27c2,-11 4,-21 7,-31 3,-13 6,-25 9,-37l5 -21c3,-14 6,-27 9,-40l5 -18c4,-14 7,-28 11,-42l4 -15c4,-15 8,-30 12,-46l3 -8c4,-16 9,-33 14,-49l1 -7m15 -50l9 -28c5,-17 10,-34 15,-52l2 -5c6,-17 11,-34 17,-51l1 -6c6,-18 12,-36 18,-54l0 -1c-142,1971 409,3124 1703,3596" style="fill:#2f9363"/>
  <path class="Body-Bear5fil14" d="M15892 22901c455,-288 786,-750 995,-1476 211,-735 -34,-1792 -436,-2779 592,2230 -69,3628 -559,4255z" style="fill:#11d067"/>
  <path class="Body-Bear5fil32" d="M15892 22901c539,-241 960,-968 1067,-1455 107,-487 59,-1102 -132,-1659 72,577 87,1191 -12,1618 -104,444 -496,1184 -923,1496z" style="fill:#1224ff"/>
  <path class="Body-Bear5fil482" d="M12395 17319c-415,-117 -1437,533 -1326,1387 71,545 464,353 559,775 99,440 -305,508 -282,1089 32,765 484,1129 1019,1185 834,86 410,-1185 1289,-1185 879,0 455,1271 1289,1185 535,-56 987,-420 1018,-1185 24,-581 -380,-649 -281,-1089 95,-422 488,-230 559,-775 111,-854 -912,-1504 -1326,-1387 -407,115 -932,140 -1259,140 -327,0 -853,-25 -1259,-140z" style="fill:#326264"/>
 </g><g id="RightPaw-Bear0">
 <animateTransform additive="sum" attributeName="transform" dur="10" repeatCount="indefinite" type="translate" values="0;0 200;0;0 200;0;0 200;0;0 200;0"/>
  <metadata id="CorelCorpID_243Corel-Layer"/>
  <path class="RightPaw-Bear0fil457" d="M19212 20074c101,319 446,1074 -76,1413 -8,341 -321,891 -722,638 -151,80 -387,68 -509,-83 -446,-4 -409,-537 -607,-929 295,-982 1641,-506 1914,-1039z" style="fill:#e1811d"/>
  <path class="RightPaw-Bear0fil32" d="M19190 20003c89,-30 112,105 135,170 130,372 354,1015 -116,1354 -11,143 -66,311 -153,448 -99,155 -252,294 -446,289 -65,-1 -132,-19 -200,-55 -176,73 -404,47 -540,-94 -338,-20 -419,-297 -509,-605 -35,-123 -73,-250 -129,-363 -19,-37 -94,-221 -57,-240 16,-8 67,4 101,36 47,44 78,115 89,136 63,125 102,260 140,389 60,206 115,395 261,468 -29,-101 -22,-219 84,-284 -76,237 182,489 434,440 -65,-93 -101,-219 -10,-319 -6,164 172,338 339,342 137,3 248,-112 316,-220 55,-87 95,-188 116,-282 -169,50 -397,13 -448,-183 104,74 378,78 488,1 414,-287 232,-827 98,-1209 -22,-63 -77,-193 7,-219z" style="fill:#814b42"/>
  <path class="RightPaw-Bear0fil458" d="M18721 21392c-70,15 -168,-109 -207,-290 -38,-180 -13,-339 57,-354 70,-15 188,120 226,300 39,181 -7,329 -76,344z" style="fill:#904761"/>
  <path class="RightPaw-Bear0fil458" d="M18493 21944c-70,15 -168,-109 -207,-289 -38,-181 -13,-340 57,-355 70,-14 188,120 226,301 39,180 -7,328 -76,343z" style="fill:#a9a4cb"/>
  <path class="RightPaw-Bear0fil458" d="M18061 21880c-58,7 -128,-100 -147,-248 -19,-148 13,-275 70,-282 57,-7 143,110 162,258 19,148 -28,265 -85,272z" style="fill:#6f06d8"/>
  <path class="RightPaw-Bear0fil458" d="M17668 21710c-41,0 -83,-82 -84,-190 -2,-107 31,-195 72,-195 42,-1 94,90 95,197 2,108 -41,187 -83,188z" style="fill:#65cd2c"/>
  <path class="RightPaw-Bear0fil458" d="M18328 20905c28,402 -757,372 -764,113 -13,-411 729,-626 764,-113z" style="fill:#06162e"/>
 </g><g id="LeftPaw-Bear0">
 <animateTransform additive="sum" attributeName="transform" dur="10" repeatCount="indefinite" type="translate" values="0;0 200;0;0 200;0;0 200;0;0 200;0"/>
  <metadata id="CorelCorpID_252Corel-Layer"/>
  <path class="LeftPaw-Bear0fil457" d="M8095 20074c-101,319 -445,1074 76,1413 8,341 322,891 722,638 152,80 388,68 510,-83 446,-4 408,-537 606,-929 -294,-982 -1641,-506 -1914,-1039z" style="fill:#8e3555"/>
  <path class="LeftPaw-Bear0fil32" d="M8118 20003c-89,-30 -112,105 -135,170 -130,372 -355,1015 116,1354 11,143 66,311 153,448 98,155 252,294 446,289 65,-1 131,-19 199,-55 176,73 405,47 540,-94 339,-20 419,-297 509,-605 36,-123 73,-250 130,-363 19,-37 93,-221 56,-240 -15,-8 -66,4 -100,36 -47,44 -79,115 -89,136 -63,125 -103,260 -140,389 -60,206 -116,395 -261,468 29,-101 22,-219 -84,-284 76,237 -182,489 -434,440 64,-93 101,-219 9,-319 6,164 -171,338 -338,342 -138,3 -248,-112 -316,-220 -56,-87 -96,-188 -117,-282 170,50 397,13 449,-183 -104,74 -378,78 -489,1 -414,-287 -231,-827 -98,-1209 22,-63 78,-193 -6,-219z" style="fill:#b35f38"/>
  <path class="LeftPaw-Bear0fil458" d="M8587 21392c70,15 168,-109 206,-290 39,-180 14,-339 -56,-354 -70,-15 -188,120 -227,300 -38,181 7,329 77,344z" style="fill:#e45bc7"/>
  <path class="LeftPaw-Bear0fil458" d="M8815 21944c70,15 168,-109 206,-289 39,-181 14,-340 -56,-355 -70,-14 -188,120 -227,301 -38,180 7,328 77,343z" style="fill:#293244"/>
  <path class="LeftPaw-Bear0fil458" d="M9247 21880c57,7 128,-100 147,-248 18,-148 -13,-275 -70,-282 -58,-7 -144,110 -163,258 -18,148 29,265 86,272z" style="fill:#2c76f4"/>
  <path class="LeftPaw-Bear0fil458" d="M9640 21710c41,0 83,-82 84,-190 1,-107 -31,-195 -73,-195 -41,-1 -94,90 -95,197 -1,108 42,187 84,188z" style="fill:#1d4422"/>
  <path class="LeftPaw-Bear0fil458" d="M8979 20905c-27,402 757,372 765,113 12,-411 -729,-626 -765,-113z" style="fill:#84715e"/>
 </g><g id="BraceletGold-Big">
 <animateTransform additive="sum" attributeName="transform" dur="10" repeatCount="indefinite" type="translate" values="0;0 200;0;0 200;0;0 200;0;0 200;0"/>
  <metadata id="CorelCorpID_24Corel-Layer"/>
  <path class="BraceletGold-Bigfil68new BraceletGold-Bigstr3new" d="M10315 20407c112,88 107,280 -11,429 -117,149 -303,199 -414,111 -74,-59 -96,-163 -68,-271 -93,50 -200,53 -284,0 -101,-65 -141,-192 -112,-319 -99,89 -239,115 -355,55 -108,-56 -167,-173 -161,-297 -106,98 -252,124 -361,54 -72,-46 -113,-124 -120,-212 -88,87 -203,121 -296,76 -127,-62 -162,-251 -79,-421 83,-171 254,-258 381,-196 79,38 123,125 125,227 105,-96 250,-122 358,-53 86,55 128,156 121,263 98,-85 235,-109 348,-51 125,65 184,210 154,353 107,-101 256,-129 366,-59 100,64 140,191 112,318 102,-62 218,-68 296,-7z" style="fill:#80a958"/>
  <path class="BraceletGold-Bigfil3new" d="M8343 19954c96,-71 165,-264 149,-362 47,16 101,47 148,63 -79,43 -162,231 -142,356 -53,-15 -101,-42 -155,-57z" style="fill:#8e4373"/>
  <path class="BraceletGold-Bigfil3new" d="M8799 20124c104,-58 189,-243 185,-342 44,22 109,51 153,73 -83,33 -186,222 -167,358 -51,-21 -120,-68 -171,-89z" style="fill:#c613f6"/>
  <path class="BraceletGold-Bigfil3new" d="M9316 20364c123,-58 182,-229 178,-327 45,21 119,83 163,105 -83,33 -190,184 -185,310 -51,-21 -105,-67 -156,-88z" style="fill:#64b69b"/>
  <path class="BraceletGold-Bigfil3new" d="M9745 20648c131,-36 214,-205 227,-302 40,28 93,62 134,91 -88,18 -222,186 -239,312 -47,-30 -76,-72 -122,-101z" style="fill:#d11223"/>
  <path class="BraceletGold-Bigfil69new BraceletGold-Bigstr3new" d="M16992 20407c-111,88 -106,280 11,429 118,149 303,199 414,111 75,-59 97,-163 69,-271 93,50 200,53 284,0 101,-65 141,-192 112,-319 99,89 238,115 354,55 109,-56 168,-173 162,-297 105,98 252,124 360,54 73,-46 114,-124 120,-212 88,87 204,121 296,76 127,-62 163,-251 80,-421 -83,-171 -254,-258 -381,-196 -79,38 -123,125 -125,227 -106,-96 -251,-122 -359,-53 -85,55 -127,156 -120,263 -99,-85 -235,-109 -349,-51 -125,65 -183,210 -154,353 -106,-101 -255,-129 -365,-59 -100,64 -141,191 -112,318 -103,-62 -218,-68 -297,-7z" style="fill:#2d5736"/>
  <path class="BraceletGold-Bigfil3new" d="M18964 19954c-95,-71 -164,-264 -148,-362 -47,16 -101,47 -148,63 78,43 162,231 142,356 53,-15 101,-42 154,-57z" style="fill:#bebc5d"/>
  <path class="BraceletGold-Bigfil3new" d="M18508 20124c-103,-58 -188,-243 -184,-342 -45,22 -109,51 -154,73 84,33 187,222 167,358 51,-21 120,-68 171,-89z" style="fill:#c09cf0"/>
  <path class="BraceletGold-Bigfil3new" d="M17992 20364c-123,-58 -182,-229 -178,-327 -45,21 -119,83 -163,105 83,33 190,184 185,310 51,-21 105,-67 156,-88z" style="fill:#039c20"/>
  <path class="BraceletGold-Bigfil3new" d="M17563 20648c-132,-36 -214,-205 -227,-302 -41,28 -94,62 -134,91 88,18 221,186 239,312 47,-30 75,-72 122,-101z" style="fill:#18a636"/>
 </g><g id="NecklaceFullCoat-Big">
 <animateTransform additive="sum" attributeName="transform" dur="10" repeatCount="indefinite" type="translate" values="0;0 200;0;0 200;0;0 200;0;0 200;0"/>
  <metadata id="CorelCorpID_11Corel-Layer"/>
  <g>
   <g>
    <path class="NecklaceFullCoat-Bigfil35" d="M19593 20689c-27,-505 -629,-782 -726,-1051 96,-597 171,-462 -331,-785 20,-226 -267,-1227 -608,-1301 -221,-53 -1817,314 -1817,314 0,0 441,1557 479,1790 39,232 278,1099 278,1099 84,139 245,394 285,598 27,140 -18,295 193,648 98,-754 1521,-2363 2247,-1312z" style="fill:#701a13"/>
    <path class="NecklaceFullCoat-Bigfil15" d="M18096 18756c171,131 431,245 561,400 172,205 11,396 189,489 64,33 29,-492 32,-525 -392,-238 -227,-321 -782,-364z" style="fill:#9e65d3"/>
    <path class="NecklaceFullCoat-Bigfil2" d="M16895 17772c-441,49 -839,101 -839,101 0,0 546,1550 584,1783 39,232 327,1149 327,1149 84,138 146,344 186,548 27,140 -18,295 193,648 38,-294 277,-717 598,-1063 -450,635 -570,77 -529,-421 -338,668 -1085,-1383 -821,-2373 34,-125 265,-251 301,-372z" style="fill:#125fe9"/>
    <path class="NecklaceFullCoat-Bigfil5" d="M18137 18744c10,13 269,133 370,190 39,22 88,9 110,-30 22,-38 8,-87 -30,-109 -267,-152 -471,-78 -450,-51z" style="fill:#6da03a"/>
    <path class="NecklaceFullCoat-Bigfil5" d="M17308 20695c22,10 -8,281 -34,413 -29,145 -29,183 -33,307 -2,45 -39,79 -83,78 -45,-2 -79,-39 -78,-83 5,-132 6,-179 37,-334 21,-105 169,-391 191,-381z" style="fill:#26e614"/>
    <path class="NecklaceFullCoat-Bigfil6" d="M17576 20514c284,-209 836,-510 1078,-469 243,41 -155,-184 -498,-128 -344,56 -864,807 -580,597z" style="fill:#d4af3d"/>
    <path class="NecklaceFullCoat-Bigfil1 NecklaceFullCoat-Bigstr1" d="M19593 20689c-27,-505 -629,-782 -726,-1051 96,-597 171,-462 -331,-785 20,-226 -267,-1227 -608,-1301 -221,-53 -1817,314 -1817,314 0,0 441,1557 479,1790 39,232 278,1099 278,1099 84,139 245,394 285,598 27,140 -18,295 193,648 98,-754 1521,-2363 2247,-1312z" style="fill:#f49ebd"/>
   </g>
   <g>
    <path class="NecklaceFullCoat-Bigfil36" d="M14564 20750c-76,1599 1046,2540 105,4195 705,19 1715,-841 1789,-983 43,-83 66,-231 137,-263 482,-216 1039,-94 1375,-590 -282,-864 -462,-851 -673,-1176 -52,-82 -2,-277 -51,-380 -65,-137 -223,-196 -305,-375 83,-265 -76,-989 -124,-1148 -220,-716 -443,-1382 -642,-2103 -330,48 -310,-91 -563,130 -224,195 -1011,1921 -1048,2693z" style="fill:#ac9ae7"/>
    <path class="NecklaceFullCoat-Bigfil17" d="M16770 21058c65,-393 -10,-1228 -10,-1228 87,330 317,1079 173,1430 -48,119 -405,782 -432,757 -41,-38 204,-566 269,-959z" style="fill:#36d7aa"/>
    <path class="NecklaceFullCoat-Bigfil15" d="M17731 22967c-17,-403 -296,-854 -296,-854l0 0c158,183 316,324 535,996 -242,358 -599,394 -961,467 -161,5 -280,3 -288,-5 -41,-37 1027,-202 1010,-604z" style="fill:#7e30a3"/>
    <path class="NecklaceFullCoat-Bigfil5" d="M16164 17852c41,-6 79,23 85,64 6,41 -22,79 -63,85 -129,19 -208,11 -270,5 -78,-8 -118,-12 -255,108 -119,104 -418,692 -663,1324 -189,484 -343,990 -359,1316 -28,594 113,1100 250,1586 221,790 428,1530 -91,2524 220,-25 465,-125 696,-252 460,-253 855,-602 898,-684 11,-22 22,-54 34,-87 30,-86 61,-176 139,-211 176,-78 357,-113 534,-148 299,-57 587,-113 788,-385 -191,-575 -332,-735 -470,-891 -60,-68 -119,-135 -182,-232 -39,-61 -39,-143 -39,-227 0,-62 0,-126 -17,-162 -24,-50 -69,-92 -117,-137 -67,-63 -139,-130 -189,-239 -8,-19 -9,-39 -2,-57 27,-91 35,-372 17,-540 -15,-143 -223,-1046 -214,-1054 9,-9 353,945 363,1038 19,172 10,461 -16,574 38,70 92,121 143,168 58,55 114,107 150,184 31,65 31,146 31,225 0,62 0,122 15,145 57,89 113,152 169,215 151,171 305,346 511,976 8,22 6,47 -8,68 -236,349 -564,413 -905,478 -169,33 -342,66 -501,138 -19,8 -39,67 -59,124 -13,37 -26,73 -43,106 -49,94 -474,480 -958,746 -295,162 -616,283 -896,277 -13,0 -26,-3 -38,-10 -36,-20 -49,-66 -28,-102 569,-1000 362,-1738 141,-2528 -140,-497 -285,-1015 -255,-1633 16,-344 175,-866 368,-1363 253,-651 571,-1266 705,-1383 185,-162 246,-156 367,-144 54,5 122,12 234,-5z" style="fill:#0f52db"/>
    <path class="NecklaceFullCoat-Bigfil18" d="M15143 24855c144,-421 364,-1145 344,-1572 -12,-242 -114,-592 -227,-975 -179,-613 -384,-1311 -292,-1822 47,-258 54,-588 62,-933 3,-139 6,-281 11,-421 38,-90 76,-177 114,-261 -16,225 -21,458 -26,684 -7,349 -14,683 -63,949 -88,488 113,1173 290,1776 114,389 218,744 230,998 20,415 -177,1094 -322,1529 -40,18 -81,34 -121,48z" style="fill:#7c721a"/>
    <path class="NecklaceFullCoat-Bigfil18" d="M15155 18871c-16,225 -21,458 -26,684 -7,349 -14,683 -63,949 -88,488 113,1173 290,1776 114,389 218,744 230,998 20,415 -177,1094 -322,1529 -7,3 -14,6 -21,9l-15 6c-7,3 -15,6 -22,9l-14 6c-8,3 -16,6 -24,9l-10 4c-10,3 -19,7 -28,10l-8 3c-9,3 -19,6 -28,9l-8 3c-10,3 -19,6 -29,9l-7 2c-10,3 -20,6 -29,9l-7 1c-10,3 -20,6 -30,8l-6 2c-10,3 -20,5 -30,7l-5 2c-11,2 -21,4 -32,6l-3 1c-11,2 -22,4 -33,6l-2 1c-11,2 -22,3 -33,5l-2 0c-11,2 -22,3 -33,4l-1 1c-11,1 -22,2 -33,3l-2 0c-11,1 -22,2 -33,2l-1 0c-11,1 -22,1 -33,1l0 0c-11,0 -22,0 -33,0 941,-1655 -45,-2595 -105,-4195 22,-463 313,-1267 591,-1879z" style="fill:#82e347"/>
    <path class="NecklaceFullCoat-Bigfil19" d="M15053 18871c-14,225 -18,458 -22,684 -6,349 -12,683 -52,949 -72,488 94,1173 240,1776 94,389 180,744 190,998 17,415 -146,1094 -266,1529l-3 2c107,-442 230,-1046 216,-1430 -9,-260 -90,-623 -178,-1021 -137,-617 -293,-1318 -225,-1817 38,-272 43,-613 49,-971 3,-199 7,-404 16,-604 11,-32 23,-64 35,-95zm-488 1901c0,-7 0,-14 -1,-22 7,-171 44,-388 100,-626 -54,245 -90,470 -99,648z" style="fill:#f32f8d"/>
    <path class="NecklaceFullCoat-Bigfil4" d="M18742 18169c-116,-646 -358,-400 -478,-838 -128,-468 -1131,-832 -1611,-941 1028,861 -579,1152 -856,1414 -1170,1106 -1376,2748 -1250,3770 784,-1168 1565,-1966 2477,-2304 365,-136 552,-101 410,-333 -200,-330 -577,-793 -767,-890 897,151 1569,128 2075,122z" style="fill:#ebc723"/>
    <path class="NecklaceFullCoat-Bigfil37" d="M18742 18169c-106,-590 -391,-506 -500,-906 -117,-428 -1157,-774 -1594,-873 938,787 -530,1053 -783,1292 -1068,1010 -1352,2730 -1236,3664 640,-1333 1381,-2110 2977,-2631 -108,-279 -728,-560 -939,-668 819,138 1612,128 2075,122z" style="fill:#351c81"/>
    <path class="NecklaceFullCoat-Bigfil21" d="M18742 18169c-76,-421 -242,-499 -371,-654l-90 -8c0,0 169,184 273,388 104,203 -1763,159 -1756,113 70,31 158,35 286,97 664,76 1274,69 1658,64zm-3128 1697c487,-496 1109,-863 1992,-1151 -98,-252 -613,-506 -868,-632l-402 -86c0,0 1100,552 614,732 -486,181 -1383,959 -1336,1137l0 0z" style="fill:#478a22"/>
    <path class="NecklaceFullCoat-Bigfil1 NecklaceFullCoat-Bigstr1" d="M18742 18169c-106,-590 -391,-506 -500,-906 -117,-428 -1157,-774 -1594,-873 938,787 -530,1053 -783,1292 -1068,1010 -1352,2730 -1236,3664 640,-1333 1381,-2110 2977,-2631 -108,-279 -728,-560 -939,-668 819,138 1612,128 2075,122z" style="fill:#b28393"/>
    <path class="NecklaceFullCoat-Bigfil5" d="M16709 21710c-22,-19 120,-399 144,-485 8,-30 17,-65 24,-100 8,-41 48,-67 88,-59 40,8 67,48 59,88 -9,41 -18,79 -27,111 -31,111 -262,467 -288,445z" style="fill:#5dda7c"/>
    <path class="NecklaceFullCoat-Bigfil5" d="M16578 23130c60,-25 101,493 25,673 -16,37 -31,73 -44,109 -13,40 -55,61 -94,48 -40,-13 -61,-56 -48,-95 15,-44 32,-82 48,-121 31,-72 100,-608 113,-614z" style="fill:#f3aff1"/>
   </g>
  </g>
  <g>
   <g>
    <path class="NecklaceFullCoat-Bigfil38 NecklaceFullCoat-Bigstr1" d="M7715 20689c27,-505 629,-782 726,-1051 -96,-597 -172,-462 331,-785 -20,-226 267,-1227 608,-1301 221,-53 1817,314 1817,314 0,0 -441,1557 -480,1790 -38,233 -277,1099 -277,1099 -84,139 -245,394 -285,598 -27,140 17,295 -194,648 -97,-754 -1520,-2363 -2246,-1312z" style="fill:#a8684a"/>
    <path class="NecklaceFullCoat-Bigfil2" d="M10413 17772c440,49 839,101 839,101 0,0 -496,1550 -535,1783 -38,233 -377,1149 -377,1149 -83,138 -145,344 -185,548 -27,140 17,295 -194,648 -38,-294 -277,-717 -597,-1063 450,635 569,77 528,-421 339,668 1086,-1383 821,-2372 -33,-126 -264,-252 -300,-373z" style="fill:#04af67"/>
    <path class="NecklaceFullCoat-Bigfil5" d="M9171 18744c-10,13 -269,133 -370,190 -39,22 -88,9 -110,-30 -22,-38 -8,-87 30,-109 267,-152 470,-78 450,-51z" style="fill:#39d2f7"/>
    <path class="NecklaceFullCoat-Bigfil5" d="M9999 20695c-21,10 9,281 35,413 29,145 29,183 33,307 2,45 39,79 83,78 44,-2 79,-39 77,-83 -4,-132 -5,-179 -36,-334 -21,-105 -170,-391 -192,-381z" style="fill:#a123e7"/>
    <path class="NecklaceFullCoat-Bigfil6" d="M9731 20514c-283,-209 -835,-510 -1078,-469 -242,41 156,-184 499,-128 343,56 863,807 579,597z" style="fill:#9c656f"/>
   </g>
   <g>
    <path class="NecklaceFullCoat-Bigfil39" d="M12750 20750c76,1599 -1046,2540 -105,4195 -705,19 -1715,-841 -1789,-983 -43,-83 -66,-231 -137,-263 -483,-216 -1039,-94 -1375,-590 282,-864 462,-851 672,-1176 53,-82 3,-277 51,-380 66,-137 224,-196 305,-375 -82,-265 77,-989 125,-1148 220,-716 443,-1382 642,-2103 330,48 310,-91 563,130 224,195 1011,1921 1048,2693z" style="fill:#5dd956"/>
    <path class="NecklaceFullCoat-Bigfil5" d="M11150 17852c-41,-6 -79,23 -85,64 -6,41 22,79 63,85 129,19 208,11 269,5 79,-8 119,-12 256,108 119,104 417,692 663,1324 189,484 343,990 359,1316 28,594 -114,1100 -250,1586 -221,790 -428,1530 91,2524 -220,-25 -465,-125 -696,-252 -461,-253 -855,-602 -898,-684 -11,-22 -22,-54 -34,-87 -30,-86 -61,-176 -139,-211 -176,-78 -357,-113 -534,-148 -299,-57 -587,-113 -788,-385 191,-575 332,-735 470,-891 60,-68 119,-135 182,-232 39,-61 39,-143 39,-227 0,-62 0,-126 17,-162 24,-50 69,-92 117,-137 67,-63 139,-130 189,-239 8,-19 8,-39 2,-57 -27,-91 -35,-372 -17,-540 15,-143 223,-1046 214,-1054 -9,-9 -353,945 -363,1038 -19,172 -10,461 16,574 -38,70 -92,121 -143,168 -58,55 -114,107 -150,184 -31,65 -31,146 -31,225 0,62 0,122 -15,145 -58,89 -113,152 -169,215 -151,171 -305,346 -511,976 -8,22 -6,47 8,68 236,349 564,413 905,478 169,33 342,66 501,138 19,8 39,67 59,124 13,37 26,73 43,106 49,94 474,480 958,746 295,162 615,283 896,277 13,0 26,-3 38,-10 36,-20 48,-66 28,-102 -569,-1000 -362,-1738 -141,-2528 140,-497 285,-1015 255,-1633 -16,-344 -175,-866 -368,-1363 -254,-651 -571,-1266 -705,-1383 -185,-162 -246,-156 -368,-144 -53,5 -121,12 -233,-5z" style="fill:#4091e1"/>
    <path class="NecklaceFullCoat-Bigfil18" d="M12171 24855c-144,-421 -365,-1145 -344,-1572 12,-242 114,-592 227,-975 179,-613 384,-1311 291,-1822 -46,-258 -53,-588 -61,-933 -3,-139 -6,-281 -11,-421 -38,-90 -77,-177 -115,-261 17,225 22,458 27,684 7,349 14,683 62,949 88,488 -112,1173 -289,1776 -114,389 -218,744 -230,998 -21,415 177,1094 322,1529 40,18 80,34 121,48z" style="fill:#d4cdd5"/>
    <path class="NecklaceFullCoat-Bigfil18" d="M12158 18871c17,225 22,458 27,684 7,349 14,683 62,949 88,488 -112,1173 -289,1776 -114,389 -218,744 -230,998 -21,415 177,1094 322,1529 7,3 14,6 21,9l14 6c8,3 16,6 23,9l14 6c8,3 16,6 24,9l10 4c9,3 19,7 28,10l8 3c9,3 19,6 28,9l8 3c10,3 19,6 28,9l8 2c10,3 19,6 29,9l7 1c10,3 20,6 30,8l6 2c10,3 20,5 30,7l5 2c11,2 21,4 32,6l3 1c11,2 22,4 33,6l2 1c11,2 22,3 32,5l3 0c11,2 22,3 33,4l1 1c11,1 22,2 33,3l2 0c11,1 22,2 33,2l0 0c12,1 22,1 33,1l1 0c11,0 22,0 33,0 -941,-1655 44,-2595 105,-4195 -23,-463 -314,-1267 -592,-1879z" style="fill:#143d2f"/>
    <path class="NecklaceFullCoat-Bigfil6" d="M8572 18169c106,-590 391,-506 500,-906 117,-428 1156,-774 1594,-873 -939,787 530,1053 783,1292 1068,1010 1369,3210 1192,4248 -37,-708 -542,-1290 -1126,-1726 -224,229 -117,1611 -396,1766 -346,192 -406,-183 -514,-260 -108,-77 -37,-162 -157,-322 -120,-160 -77,-599 -41,-924 22,-197 126,-557 205,-812 -197,-99 -380,-180 -533,-241 -328,-132 -438,-65 -196,-383 182,-239 688,-620 842,-698 -481,80 -1059,82 -1381,-2 -72,-19 77,-139 -13,-161 -189,-48 -629,4 -759,2z" style="fill:#8cf615"/>
    <path class="NecklaceFullCoat-Bigfil40" d="M8572 18169c106,-590 391,-506 500,-906 117,-428 1156,-774 1594,-873 -939,787 530,1053 783,1292 1068,1010 1352,2730 1236,3664 -640,-1333 -1381,-2110 -2977,-2631 108,-279 728,-560 939,-668 -819,138 -1612,128 -2075,122z" style="fill:#06055f"/>
    <path class="NecklaceFullCoat-Bigfil17" d="M11559 19730l0 0 1 1 -1 -1zm-1050 -1614c164,-45 233,-135 303,-199 -506,47 -2034,181 -2074,95 -40,-85 40,-319 40,-321 -83,97 -161,226 -206,478 463,6 1256,16 2075,-122 -36,18 -84,42 -138,69zm1193 1752c246,237 691,768 800,544 109,-224 -453,-1977 -615,-2219 708,1009 896,2363 798,3153 -285,-594 -591,-1078 -983,-1478z" style="fill:#635e6b"/>
    <path class="NecklaceFullCoat-Bigfil1 NecklaceFullCoat-Bigstr1" d="M8572 18169c106,-590 391,-506 500,-906 117,-428 1156,-774 1594,-873 -939,787 530,1053 783,1292 1068,1010 1352,2730 1236,3664 -640,-1333 -1381,-2110 -2977,-2631 108,-279 728,-560 939,-668 -819,138 -1612,128 -2075,122z" style="fill:#9fbce1"/>
    <path class="NecklaceFullCoat-Bigfil5" d="M10605 21710c22,-19 -120,-399 -144,-485 -8,-30 -17,-65 -24,-100 -8,-41 -48,-67 -88,-59 -40,8 -67,48 -59,88 9,41 18,79 27,111 31,111 262,467 288,445z" style="fill:#579a71"/>
    <path class="NecklaceFullCoat-Bigfil5" d="M10736 23130c-60,-25 -101,493 -25,673 16,37 31,73 44,109 13,40 55,61 94,48 39,-13 61,-56 47,-95 -14,-44 -24,-71 -40,-109 -31,-72 -107,-620 -120,-626z" style="fill:#194641"/>
    <path class="NecklaceFullCoat-Bigfil6" d="M10067 21553l60 -86c61,-68 141,-125 203,-215l195 300c0,0 -172,166 -66,523 106,358 299,288 277,1055 -11,362 -6,518 3,582 -6,-6 -13,-10 -20,-13 -483,-216 -1039,-94 -1375,-590 282,-864 462,-851 672,-1176 53,-82 3,-277 51,-380zm695 2186l0 0 0 0 0 0z" style="fill:#3ae000"/>
   </g>
  </g>
 </g><g id="Mouth-Bear5">
 <animateTransform additive="sum" attributeName="transform" dur="10" repeatCount="indefinite" type="translate" values="0;0 200;0;0 200;0;0 200;0;0 200;0"/>
  <metadata id="CorelCorpID_280Corel-Layer"/>
  <path class="Mouth-Bear5fil22 Mouth-Bear5str0" d="M12420 15398c354,380 1208,220 1234,-572" style="fill:#fdfe51"/>
  <path class="Mouth-Bear5fil22 Mouth-Bear5str0" d="M14887 15398c-353,380 -1208,220 -1233,-572" style="fill:#9f975f"/>
  <path class="Mouth-Bear5fil100" d="M13666 14959c37,245 252,535 399,641 -123,-61 -307,-119 -411,-119 -104,0 -289,58 -411,119 146,-106 362,-396 399,-641l12 0 12 0z" style="fill:#928fb0"/>
  <path class="Mouth-Bear5fil152 Mouth-Bear5str9" d="M12810 15585c52,152 192,265 332,317 95,-82 159,-230 175,-419 -145,76 -331,126 -507,102z" style="fill:#7fb599"/>
  <path class="Mouth-Bear5fil152 Mouth-Bear5str9" d="M14498 15585c-53,152 -192,265 -332,317 -96,-82 -159,-230 -175,-419 144,76 331,126 507,102z" style="fill:#9491c3"/>
 </g><g id="Eyes-Bear0">
 <animateTransform additive="sum" attributeName="transform" dur="10" repeatCount="indefinite" type="translate" values="0;0 200;0;0 200;0;0 200;0;0 200;0"/>
  <metadata id="CorelCorpID_286Corel-Layer"/>
  <g>
        <animateTransform additive="sum" attributeName="transform" dur="10" repeatCount="indefinite" type="translate" values="0;0;0;0;0;0;0;0;0;0;0;0;0;0;0;0;0;0;0;0;0;0;0;0;0;0;0;0;0;0;0;0;0;0;0;0;0;0;0;0;0;0;0;0;0;0;0;0;0;0;0;0;0;0;0;0;0;0;0;0;0;0;0;0;0;0;0;0;0;0;0;0;0;0;0;0;0;0;0;0;0;0;0;0;0;0;0;0;0;0;3000 -2100;0"/>
        <g>
            <animateTransform additive="sum" attributeName="transform" dur="10" repeatCount="indefinite" type="rotate" values="0;0;0;0;0;0;0;0;0;0;0;0;0;0;0;0;0;0;0;0;0;0;0;0;0;0;0;0;0;0;0;0;0;0;0;0;0;0;0;0;0;0;0;0;0;0;0;0;0;0;0;0;0;0;0;0;0;0;0;0;0;0;0;0;0;0;0;0;0;0;0;0;0;0;0;0;0;0;0;0;0;0;0;0;0;0;0;0;0;0;10;0"/>
            <g>
                <animateTransform additive="sum" attributeName="transform" dur="10" repeatCount="indefinite" type="translate" values="0;0;0;0;0;0;0;0;0;0;0;0;0;0;0;0;0;0;0;0;0;0;0;0;0;0;0;0;0;0;0;0;0;0;0;0;0;0;0;0;0;0;0;0;0;0;0;0;0;0;0;0;0;0;0;0;0;0;0;0;0;0;0;0;0;0;0;0;0;0;0;0;0;0;0;0;0;0;0;0;0;0;0;0;0;0;0;0;0;0;0 1500;0"/> 
                <path class="Eyes-Bear0fil155" d="M16261 9213c61,101 435,186 809,439 344,232 558,548 717,523 177,-28 191,-405 80,-605 -91,-164 -445,-422 -852,-508 -481,-103 -827,30 -754,151z"/>
            </g>
        </g>
    </g>  
	<g>
        <animateTransform additive="sum" attributeName="transform" dur="10" repeatCount="indefinite" type="translate" values="0;0;0;0;0;0;0;0;0;0;0;0;0;0;0;0;0;0;0;0;0;0;0;0;0;0;0;0;0;0;0;0;0;0;0;0;0;0;0;0;0;0;0;0;0;0;0;0;0;0;0;0;0;0;0;0;0;0;0;0;0;0;0;0;0;0;0;0;0;0;0;0;0;0;0;0;0;0;0;0;0;0;0;0;0;0;0;0;0;0;-2100 3000;0"/>
        <g>
            <animateTransform additive="sum" attributeName="transform" dur="10" repeatCount="indefinite" type="rotate" values="0;0;0;0;0;0;0;0;0;0;0;0;0;0;0;0;0;0;0;0;0;0;0;0;0;0;0;0;0;0;0;0;0;0;0;0;0;0;0;0;0;0;0;0;0;0;0;0;0;0;0;0;0;0;0;0;0;0;0;0;0;0;0;0;0;0;0;0;0;0;0;0;0;0;0;0;0;0;0;0;0;0;0;0;0;0;0;0;0;0;-10;0"/>
            <g>
                <animateTransform additive="sum" attributeName="transform" dur="10" repeatCount="indefinite" type="translate" values="0;0;0;0;0;0;0;0;0;0;0;0;0;0;0;0;0;0;0;0;0;0;0;0;0;0;0;0;0;0;0;0;0;0;0;0;0;0;0;0;0;0;0;0;0;0;0;0;0;0;0;0;0;0;0;0;0;0;0;0;0;0;0;0;0;0;0;0;0;0;0;0;0;0;0;0;0;0;0;0;0;0;0;0;0;0;0;0;0;0;0 1500;0"/> 
                <path class="Eyes-Bear0fil155" d="M11046 9213c-60,101 -434,186 -809,439 -344,232 -557,548 -716,523 -177,-28 -191,-405 -80,-605 90,-164 444,-422 851,-508 482,-103 827,30 754,151z"/>
            </g>
        </g>
    </g>
   <g>
        <animateTransform additive="sum" attributeName="transform" dur="10" repeatCount="indefinite" type="translate" values="0;0;0;0;0;0;0;0;0;0;0;0;0;0;0;0;0;0;0;0;0;0;0;0;0;0;0;0;0;0;0;0;0;0;0;0;0;0;0;0;0;0;0;0;0;0;0;0;0;0;0;0;0;0;0;0;0;0;0;0;0;0;0;0;0;0;0;0;0;0;0;0;0;0;0;0;0;0;0;0;0;0;0;0;0;0;0;0;0;0;0 14300;0"/> 
        <g>
            <g>
                <animateTransform additive="sum" attributeName="transform" dur="10" repeatCount="indefinite" type="scale" values="1;1;1;1;1;1;1;1;1;1;1;1;1;1;1;1;1;1;1;1;1;1;1;1;1;1;1;1;1;1;1;1;1;1;1;1;1;1;1;1;1;1;1;1;1;1;1;1;1;1;1;1;1;1;1;1;1;1;1;1;1;1;1;1;1;1;1;1;1;1;1;1;1;1;1;1;1;1;1;1;1;1;1;1;1;1;1;1;1;1;1 0.01;1"/> 
                <path class="Eyes-Bear0fil529" d="M9183 14712c711,73 1641,-147 2072,-427 751,-487 511,-2598 -716,-2850 -615,-127 -1177,116 -1573,562 -840,941 -693,2622 217,2715z"/>
            </g>
            <g>
                <animateTransform additive="sum" attributeName="transform" dur="10" repeatCount="indefinite" type="scale" values="1;1;1;1;1;1;1;1;1;1;1;1;1;1;1;1;1;1;1;1;1;1;1;1;1;1;1;1;1;1;1;1;1;1;1;1;1;1;1;1;1;1;1;1;1;1;1;1;1;1;1;1;1;1;1;1;1;1;1;1;1;1;1;1;1;1;1;1;1;1;1;1;1;1;1;1;1;1;1;1;1;1;1;1;1;1;1;1;1;1;1 0.01;1"/> 
                <path class="Eyes-Bear0fil530" d="M9183 14712c711,73 1641,-147 2072,-427 127,-82 226,-211 296,-370 -279,-165 -372,-450 -475,-729 -444,-20 -888,-40 -1332,-60 -620,338 -1000,789 -1151,1169 130,233 329,390 590,417z"/>
            </g>
            <g>
                <animateTransform additive="sum" attributeName="transform" dur="10" repeatCount="indefinite" type="translate" values="0;0;0;0;0;0;0;0;0;0;0;0;0;0;0;0;0;0;0;0;0;0;0;0;0;0;0;0;0;0;0;0;0;0;0;0;0;0;0;0;0;0;0;0;0;0;0;0;0;0;0;0;0;0;0;0;0;0;0;0;0;0;0;0;0;0;0;0;0;0;0;0;0;0;0;0;0;0;0;0;0;0;0;0;0;0;0;0;0;0;0 -14590;0"/>    
                <g>
                    <animateTransform additive="sum" attributeName="transform" dur="10" repeatCount="indefinite" type="translate" values="0;0;0;0;0;0;0;0;0;0;0;0;0;0;0;0;0;0;0;0;0;0;0;0;0;0;0;0;0;0;0;0;0;0;0;0;0;0;0;0;0;0;0;0;0;0;0;0;0;0;0;0;0;0;0;0;0;0;0;0;0;0;0;0;0;0;0;0;0;0;0;0;0;0;0;0;0;0;0;0;0;0;0;0;0;0;0;0;0;0;0;0 14000;0"/>
                    <g>
                        <animateTransform additive="sum" attributeName="transform" dur="10" repeatCount="indefinite" type="scale" values="1;1;1;1;1;1;1;1;1;1;1;1;1;1;1;1;1;1;1;1;1;1;1;1;1;1;1;1;1;1;1;1;1;1;1;1;1;1;1;1;1;1;1;1;1;1;1;1;1;1;1;1;1;1;1;1;1;1;1;1;1;1;1;1;1;1;1;1;1;1;1;1;1;1;1;1;1;1;1;1;1;1;1;1;1;1;1;1;1;1;1;1 0.05;1"/> 
                        <path class="Eyes-Bear0fil157" d="M11637 13650c181,-811 -185,-2027 -1098,-2215 -615,-127 -1177,116 -1573,562 -310,347 -486,796 -538,1228l0 5c359,-947 1335,-1526 1998,-1421 814,130 1174,914 1211,1841z"/>
                    </g>
                </g>
            </g>
            <g>
                <animateTransform additive="sum" attributeName="transform" dur="10" repeatCount="indefinite" type="translate" values="0;0;0;0;0;0;0;0;0;0;0;0;0;0;0;0;0;0;0;0;0;0;0;0;0;0;0;0;0;0;0;0;0;0;0;0;0;0;0;0;0;0;0;0;0;0;0;0;0;0;0;0;0;0;0;0;0;0;0;0;0;0;0;0;0;0;0;0;0;0;0;0;0;0;0;0;0;0;0;0;0;0;0;0;0;0;0;0;0;0;0 -14350;0"/>    
                <g>
                    <animateTransform additive="sum" attributeName="transform" dur="10" repeatCount="indefinite" type="translate" values="0;0;0;0;0;0;0;0;0;0;0;0;0;0;0;0;0;0;0;0;0;0;0;0;0;0;0;0;0;0;0;0;0;0;0;0;0;0;0;0;0;0;0;0;0;0;0;0;0;0;0;0;0;0;0;0;0;0;0;0;0;0;0;0;0;0;0;0;0;0;0;0;0;0;0;0;0;0;0;0;0;0;0;0;0;0;0;0;0;0;0;0;0 12970;0"/>
                    <g>
                        <animateTransform additive="sum" attributeName="transform" dur="10" repeatCount="indefinite" type="scale" values="1;1;1;1;1;1;1;1;1;1;1;1;1;1;1;1;1;1;1;1;1;1;1;1;1;1;1;1;1;1;1;1;1;1;1;1;1;1;1;1;1;1;1;1;1;1;1;1;1;1;1;1;1;1;1;1;1;1;1;1;1;1;1;1;1;1;1;1;1;1;1;1;1;1;1;1;1;1;1;1;1;1;1;1;1;1;1;1;1;1;1;1;1 0.1;1"/>
                       <circle class="Eyes-Bear0fil152" r="235" transform="matrix(1.06437 -0.0903436 0.123855 0.989884 9121.38 14356.3)"/>
                    </g>
                </g>
            </g>
            <g>
                <animateTransform additive="sum" attributeName="transform" dur="10" repeatCount="indefinite" type="translate" values="0;0;0;0;0;0;0;0;0;0;0;0;0;0;0;0;0;0;0;0;0;0;0;0;0;0;0;0;0;0;0;0;0;0;0;0;0;0;0;0;0;0;0;0;0;0;0;0;0;0;0;0;0;0;0;0;0;0;0;0;0;0;0;0;0;0;0;0;0;0;0;0;0;0;0;0;0;0;0;0;0;0;0;0;0;0;0;0;0;0;0 -14300;0"/>    
                <g>
                    <animateTransform additive="sum" attributeName="transform" dur="10" repeatCount="indefinite" type="translate" values="0;0;0;0;0;0;0;0;0;0;0;0;0;0;0;0;0;0;0;0;0;0;0;0;0;0;0;0;0;0;0;0;0;0;0;0;0;0;0;0;0;0;0;0;0;0;0;0;0;0;0;0;0;0;0;0;0;0;0;0;0;0;0;0;0;0;0;0;0;0;0;0;0;0;0;0;0;0;0;0;0;0;0;0;0;0;0;0;0;0;0;0;0 12970;0"/>
                    <g>
                        <animateTransform additive="sum" attributeName="transform" dur="10" repeatCount="indefinite" type="scale" values="1;1;1;1;1;1;1;1;1;1;1;1;1;1;1;1;1;1;1;1;1;1;1;1;1;1;1;1;1;1;1;1;1;1;1;1;1;1;1;1;1;1;1;1;1;1;1;1;1;1;1;1;1;1;1;1;1;1;1;1;1;1;1;1;1;1;1;1;1;1;1;1;1;1;1;1;1;1;1;1;1;1;1;1;1;1;1;1;1;1;1;1;1 0.1;1"/>
                       <circle class="Eyes-Bear0fil152" r="235" transform="matrix(0.533543 0.0119516 -0.0172386 0.471631 8901.23 13784.3)"/>
                    </g>
                </g>
            </g>
            <g>
                <animateTransform additive="sum" attributeName="transform" dur="10" repeatCount="indefinite" type="translate" values="0;0;0;0;0;0;0;0;0;0;0;0;0;0;0;0;0;0;0;0;0;0;0;0;0;0;0;0;0;0;0;0;0;0;0;0;0;0;0;0;0;0;0;0;0;0;0;0;0;0;0;0;0;0;0;0;0;0;0;0;0;0;0;0;0;0;0;0;0;0;0;0;0;0;0;0;0;0;0;0;0;0;0;0;0;0;0;0;0;0;0 -13500;0"/>  
                <g>
                    <animateTransform additive="sum" attributeName="transform" dur="10" repeatCount="indefinite" type="translate" values="0;0;0;0;0;0;0;0;0;0;0;0;0;0;0;0;0;0;0;0;0;0;0;0;0;0;0;0;0;0;0;0;0;0;0;0;0;0;0;0;0;0;0;0;0;0;0;0;0;0;0;0;0;0;0;0;0;0;0;0;0;0;0;0;0;0;0;0;0;0;0;0;0;0;0;0;0;0;0;0;0;0;0;0;0;0;0;0;0;0;0;0 13000;0"/>
                    <g>
                        <animateTransform additive="sum" attributeName="transform" dur="10" repeatCount="indefinite" type="scale" values="1;1;1;1;1;1;1;1;1;1;1;1;1;1;1;1;1;1;1;1;1;1;1;1;1;1;1;1;1;1;1;1;1;1;1;1;1;1;1;1;1;1;1;1;1;1;1;1;1;1;1;1;1;1;1;1;1;1;1;1;1;1;1;1;1;1;1;1;1;1;1;1;1;1;1;1;1;1;1;1;1;1;1;1;1;1;1;1;1;1;1;1 0.05;1"/>
                        <path class="Eyes-Bear0fil531" d="M10081 11919c534,-121 1070,232 1196,790 127,557 -203,1108 -737,1229 -535,122 -1070,-232 -1197,-789 -127,-558 204,-1108 738,-1230z"/>
                    </g>
                </g>
                <g>
                    <animateTransform additive="sum" attributeName="transform" dur="10" repeatCount="indefinite" type="translate" values="0;0;0;0;0;0;0;0;0;0;0;0;0;0;0;0;0;0;0;0;0;0;0;0;0;0;0;0;0;0;0;0;0;0;0;0;0;0;0;0;0;0;0;0;0;0;0;0;0;0;0;0;0;0;0;0;0;0;0;0;0;0;0;0;0;0;0;0;0;0;0;0;0;0;0;0;0;0;0;0;0;0;0;0;0;0;0;0;0;0;0;0 13150;0"/>
                    <g>
                        <animateTransform additive="sum" attributeName="transform" dur="10" repeatCount="indefinite" type="scale" values="1;1;1;1;1;1;1;1;1;1;1;1;1;1;1;1;1;1;1;1;1;1;1;1;1;1;1;1;1;1;1;1;1;1;1;1;1;1;1;1;1;1;1;1;1;1;1;1;1;1;1;1;1;1;1;1;1;1;1;1;1;1;1;1;1;1;1;1;1;1;1;1;1;1;1;1;1;1;1;1;1;1;1;1;1;1;1;1;1;1;1;1 0.05;1"/>
                        <path class="Eyes-Bear0fil152" d="M10655 12102c-538,8 -792,1224 -11,1224 804,-1 594,-1233 11,-1224z"/>
                    </g>
                </g>    
            </g>
            <g>
                <animateTransform additive="sum" attributeName="transform" dur="10" repeatCount="indefinite" type="scale" values="1;1;1;1;1;1;1;1;1;1;1;1;1;1;1;1;1;1;1;1;1;1;1;1;1;1;1;1;1;1;1;1;1;1;1;1;1;1;1;1;1;1;1;1;1;1;1;1;1;1;1;1;1;1;1;1;1;1;1;1;1;1;1;1;1;1;1;1;1;1;1;1;1;1;1;1;1;1;1;1;1;1;1;1;1;1;1;1;1;1;1 0.01;1"/> 
                <path class="Eyes-Bear0fil22 Eyes-Bear0str4" d="M9183 14712c711,73 1641,-147 2072,-427 751,-487 511,-2598 -716,-2850 -615,-127 -1177,116 -1573,562 -840,941 -693,2622 217,2715z"/>
            </g>
        </g>
    </g>
  <g>
        <animateTransform additive="sum" attributeName="transform" dur="10" repeatCount="indefinite" type="translate" values="0;0;0;0;0;0;0;0;0;0;0;0;0;0;0;0;0;0;0;0;0;0;0;0;0;0;0;0;0;0;0;0;0;0;0;0;0;0;0;0;0;0;0;0;0;0;0;0;0;0;0;0;0;0;0;0;0;0;0;0;0;0;0;0;0;0;0;0;0;0;0;0;0;0;0;0;0;0;0;0;0;0;0;0;0;0;0;0;0;0;0 14300;0"/>
        <g>
            <g>
                <animateTransform additive="sum" attributeName="transform" dur="10" repeatCount="indefinite" type="scale" values="1;1;1;1;1;1;1;1;1;1;1;1;1;1;1;1;1;1;1;1;1;1;1;1;1;1;1;1;1;1;1;1;1;1;1;1;1;1;1;1;1;1;1;1;1;1;1;1;1;1;1;1;1;1;1;1;1;1;1;1;1;1;1;1;1;1;1;1;1;1;1;1;1;1;1;1;1;1;1;1;1;1;1;1;1;1;1;1;1;1;1 0.01;1"/> 
                <path class="Eyes-Bear0fil532" d="M18125 14712c-711,73 -1642,-147 -2072,-427 -751,-487 -511,-2598 716,-2850 614,-127 1176,116 1573,562 839,941 693,2622 -217,2715z"/>
            </g>
            <g>
                <animateTransform additive="sum" attributeName="transform" dur="10" repeatCount="indefinite" type="scale" values="1;1;1;1;1;1;1;1;1;1;1;1;1;1;1;1;1;1;1;1;1;1;1;1;1;1;1;1;1;1;1;1;1;1;1;1;1;1;1;1;1;1;1;1;1;1;1;1;1;1;1;1;1;1;1;1;1;1;1;1;1;1;1;1;1;1;1;1;1;1;1;1;1;1;1;1;1;1;1;1;1;1;1;1;1;1;1;1;1;1;1 0.01;1"/> 
                <path class="Eyes-Bear0fil533" d="M18125 14712c-711,73 -1642,-147 -2072,-427 -128,-82 -226,-211 -297,-370 280,-165 373,-450 476,-729 444,-20 888,-40 1332,-60 620,338 1000,789 1150,1169 -130,233 -328,390 -589,417z"/>
            </g>
            <g>
                <animateTransform additive="sum" attributeName="transform" dur="10" repeatCount="indefinite" type="translate" values="0;0;0;0;0;0;0;0;0;0;0;0;0;0;0;0;0;0;0;0;0;0;0;0;0;0;0;0;0;0;0;0;0;0;0;0;0;0;0;0;0;0;0;0;0;0;0;0;0;0;0;0;0;0;0;0;0;0;0;0;0;0;0;0;0;0;0;0;0;0;0;0;0;0;0;0;0;0;0;0;0;0;0;0;0;0;0;0;0;0;0 -14590;0"/>    
                <g>
                    <animateTransform additive="sum" attributeName="transform" dur="10" repeatCount="indefinite" type="translate" values="0;0;0;0;0;0;0;0;0;0;0;0;0;0;0;0;0;0;0;0;0;0;0;0;0;0;0;0;0;0;0;0;0;0;0;0;0;0;0;0;0;0;0;0;0;0;0;0;0;0;0;0;0;0;0;0;0;0;0;0;0;0;0;0;0;0;0;0;0;0;0;0;0;0;0;0;0;0;0;0;0;0;0;0;0;0;0;0;0;0;0;0 14000;0"/>
                    <g>
                        <animateTransform additive="sum" attributeName="transform" dur="10" repeatCount="indefinite" type="scale" values="1;1;1;1;1;1;1;1;1;1;1;1;1;1;1;1;1;1;1;1;1;1;1;1;1;1;1;1;1;1;1;1;1;1;1;1;1;1;1;1;1;1;1;1;1;1;1;1;1;1;1;1;1;1;1;1;1;1;1;1;1;1;1;1;1;1;1;1;1;1;1;1;1;1;1;1;1;1;1;1;1;1;1;1;1;1;1;1;1;1;1;1 0.05;1"/> 
                        <path class="Eyes-Bear0fil157" d="M15671 13650c-181,-811 185,-2027 1098,-2215 614,-127 1176,116 1573,562 310,347 485,796 538,1228l0 5c-359,-947 -1335,-1526 -1998,-1421 -814,130 -1175,914 -1211,1841z"/>
                    </g>
                </g>
            </g>
            <g>
                <animateTransform additive="sum" attributeName="transform" dur="10" repeatCount="indefinite" type="translate" values="0;0;0;0;0;0;0;0;0;0;0;0;0;0;0;0;0;0;0;0;0;0;0;0;0;0;0;0;0;0;0;0;0;0;0;0;0;0;0;0;0;0;0;0;0;0;0;0;0;0;0;0;0;0;0;0;0;0;0;0;0;0;0;0;0;0;0;0;0;0;0;0;0;0;0;0;0;0;0;0;0;0;0;0;0;0;0;0;0;0;0 -14350;0"/>    
                <g>
                    <animateTransform additive="sum" attributeName="transform" dur="10" repeatCount="indefinite" type="translate" values="0;0;0;0;0;0;0;0;0;0;0;0;0;0;0;0;0;0;0;0;0;0;0;0;0;0;0;0;0;0;0;0;0;0;0;0;0;0;0;0;0;0;0;0;0;0;0;0;0;0;0;0;0;0;0;0;0;0;0;0;0;0;0;0;0;0;0;0;0;0;0;0;0;0;0;0;0;0;0;0;0;0;0;0;0;0;0;0;0;0;0;0;0 12970;0"/>
                    <g>
                        <animateTransform additive="sum" attributeName="transform" dur="10" repeatCount="indefinite" type="scale" values="1;1;1;1;1;1;1;1;1;1;1;1;1;1;1;1;1;1;1;1;1;1;1;1;1;1;1;1;1;1;1;1;1;1;1;1;1;1;1;1;1;1;1;1;1;1;1;1;1;1;1;1;1;1;1;1;1;1;1;1;1;1;1;1;1;1;1;1;1;1;1;1;1;1;1;1;1;1;1;1;1;1;1;1;1;1;1;1;1;1;1;1;1 0.1;1"/>
                        <circle class="Eyes-Bear0fil152" r="235" transform="matrix(-1.06437 -0.0903436 -0.123855 0.989884 18186.3 14356.3)"/>
                    </g>
                </g>
            </g>
            <g>
                <animateTransform additive="sum" attributeName="transform" dur="10" repeatCount="indefinite" type="translate" values="0;0;0;0;0;0;0;0;0;0;0;0;0;0;0;0;0;0;0;0;0;0;0;0;0;0;0;0;0;0;0;0;0;0;0;0;0;0;0;0;0;0;0;0;0;0;0;0;0;0;0;0;0;0;0;0;0;0;0;0;0;0;0;0;0;0;0;0;0;0;0;0;0;0;0;0;0;0;0;0;0;0;0;0;0;0;0;0;0;0;0 -14300;0"/>    
                <g>
                    <animateTransform additive="sum" attributeName="transform" dur="10" repeatCount="indefinite" type="translate" values="0;0;0;0;0;0;0;0;0;0;0;0;0;0;0;0;0;0;0;0;0;0;0;0;0;0;0;0;0;0;0;0;0;0;0;0;0;0;0;0;0;0;0;0;0;0;0;0;0;0;0;0;0;0;0;0;0;0;0;0;0;0;0;0;0;0;0;0;0;0;0;0;0;0;0;0;0;0;0;0;0;0;0;0;0;0;0;0;0;0;0;0;0 12970;0"/>
                    <g>
                        <animateTransform additive="sum" attributeName="transform" dur="10" repeatCount="indefinite" type="scale" values="1;1;1;1;1;1;1;1;1;1;1;1;1;1;1;1;1;1;1;1;1;1;1;1;1;1;1;1;1;1;1;1;1;1;1;1;1;1;1;1;1;1;1;1;1;1;1;1;1;1;1;1;1;1;1;1;1;1;1;1;1;1;1;1;1;1;1;1;1;1;1;1;1;1;1;1;1;1;1;1;1;1;1;1;1;1;1;1;1;1;1;1;1 0.1;1"/>
                        <circle class="Eyes-Bear0fil152" r="235" transform="matrix(-0.533543 0.0119516 0.0172386 0.471631 18406.4 13784.3)"/>
                    </g>
                </g>
            </g>
            <g>
                <animateTransform additive="sum" attributeName="transform" dur="10" repeatCount="indefinite" type="translate" values="0;0;0;0;0;0;0;0;0;0;0;0;0;0;0;0;0;0;0;0;0;0;0;0;0;0;0;0;0;0;0;0;0;0;0;0;0;0;0;0;0;0;0;0;0;0;0;0;0;0;0;0;0;0;0;0;0;0;0;0;0;0;0;0;0;0;0;0;0;0;0;0;0;0;0;0;0;0;0;0;0;0;0;0;0;0;0;0;0;0;0 -13500;0"/>  
                <g>
                    <animateTransform additive="sum" attributeName="transform" dur="10" repeatCount="indefinite" type="translate" values="0;0;0;0;0;0;0;0;0;0;0;0;0;0;0;0;0;0;0;0;0;0;0;0;0;0;0;0;0;0;0;0;0;0;0;0;0;0;0;0;0;0;0;0;0;0;0;0;0;0;0;0;0;0;0;0;0;0;0;0;0;0;0;0;0;0;0;0;0;0;0;0;0;0;0;0;0;0;0;0;0;0;0;0;0;0;0;0;0;0;0;0 13000;0"/>
                    <g>
						<animateTransform additive="sum" attributeName="transform" dur="10" repeatCount="indefinite" type="scale" values="1;1;1;1;1;1;1;1;1;1;1;1;1;1;1;1;1;1;1;1;1;1;1;1;1;1;1;1;1;1;1;1;1;1;1;1;1;1;1;1;1;1;1;1;1;1;1;1;1;1;1;1;1;1;1;1;1;1;1;1;1;1;1;1;1;1;1;1;1;1;1;1;1;1;1;1;1;1;1;1;1;1;1;1;1;1;1;1;1;1;1;1 0.05;1"/>
                        <path class="Eyes-Bear0fil534" d="M17227 11919c-534,-121 -1070,232 -1197,790 -126,557 204,1108 738,1229 534,122 1070,-232 1197,-789 126,-558 -204,-1108 -738,-1230z"/>
                    </g>
                </g>
                <g>
                    <animateTransform additive="sum" attributeName="transform" dur="10" repeatCount="indefinite" type="translate" values="0;0;0;0;0;0;0;0;0;0;0;0;0;0;0;0;0;0;0;0;0;0;0;0;0;0;0;0;0;0;0;0;0;0;0;0;0;0;0;0;0;0;0;0;0;0;0;0;0;0;0;0;0;0;0;0;0;0;0;0;0;0;0;0;0;0;0;0;0;0;0;0;0;0;0;0;0;0;0;0;0;0;0;0;0;0;0;0;0;0;0;0 13150;0"/>
                    <g>
                        <animateTransform additive="sum" attributeName="transform" dur="10" repeatCount="indefinite" type="scale" values="1;1;1;1;1;1;1;1;1;1;1;1;1;1;1;1;1;1;1;1;1;1;1;1;1;1;1;1;1;1;1;1;1;1;1;1;1;1;1;1;1;1;1;1;1;1;1;1;1;1;1;1;1;1;1;1;1;1;1;1;1;1;1;1;1;1;1;1;1;1;1;1;1;1;1;1;1;1;1;1;1;1;1;1;1;1;1;1;1;1;1;1 0.05;1"/>
                        <path class="Eyes-Bear0fil152" d="M16652 12102c538,8 793,1224 12,1224 -804,-1 -594,-1233 -12,-1224z"/>
                    </g>
                </g> 
            </g>
			<g>
                <animateTransform additive="sum" attributeName="transform" dur="10" repeatCount="indefinite" type="scale" values="1;1;1;1;1;1;1;1;1;1;1;1;1;1;1;1;1;1;1;1;1;1;1;1;1;1;1;1;1;1;1;1;1;1;1;1;1;1;1;1;1;1;1;1;1;1;1;1;1;1;1;1;1;1;1;1;1;1;1;1;1;1;1;1;1;1;1;1;1;1;1;1;1;1;1;1;1;1;1;1;1;1;1;1;1;1;1;1;1;1;1 0.01;1"/> 
                <path class="Eyes-Bear0fil22 Eyes-Bear0str4" d="M18125 14712c-711,73 -1642,-147 -2072,-427 -751,-487 -511,-2598 716,-2850 614,-127 1176,116 1573,562 839,941 693,2622 -217,2715z"/>
            </g>
        </g>
    </g>  
 </g><g id="Nose-Bear0">
 <animateTransform additive="sum" attributeName="transform" dur="10" repeatCount="indefinite" type="translate" values="0;0 200;0;0 200;0;0 200;0;0 200;0"/>
  <metadata id="CorelCorpID_304Corel-Layer"/>
  <path class="Nose-Bear0fil598 Nose-Bear0str0" d="M13654 14109c-356,0 -852,135 -813,337 34,185 361,481 813,481 452,0 778,-296 813,-481 38,-202 -457,-337 -813,-337z" style="fill:#ca8d12"/>
 </g><g id="HatGasmask-Big">
 <animateTransform additive="sum" attributeName="transform" dur="10" repeatCount="indefinite" type="translate" values="0;0 200;0;0 200;0;0 200;0;0 200;0"/>
  <metadata id="CorelCorpID_29Corel-Layer"/>
  <g>
   <path class="HatGasmask-Bigfil163" d="M13682 18194c4126,0 7470,-1354 7470,-4183 0,-2830 -2059,-7317 -7470,-7317 -5412,0 -7470,4487 -7470,7317 0,2829 3344,4183 7470,4183zm3639 -2734c1470,0 2701,-1142 2749,-2550 49,-1408 -990,-2758 -2460,-2758 -1470,0 -2815,1350 -2863,2758 -49,1408 1104,2550 2574,2550zm-7278 0c-1470,0 -2701,-1142 -2750,-2550 -48,-1408 1101,-2653 2571,-2653 1470,0 2705,1245 2753,2653 48,1408 -1104,2550 -2574,2550z" style="fill:#c6024a"/>
   <path class="HatGasmask-Bigfil135 HatGasmask-Bigstr8" d="M13682 16965c1672,0 1026,-705 3679,-705 1789,0 3239,-1500 3239,-3350 0,-1850 -1450,-3349 -3239,-3349 -3747,0 -2430,1907 -3679,1907 -1249,0 68,-1907 -3679,-1907 -1789,0 -3239,1499 -3239,3349 0,1850 1450,3350 3239,3350 2652,0 2007,705 3679,705z" style="fill:#008cca"/>
   <path class="HatGasmask-Bigfil136" d="M13682 18194c3961,0 7201,-1248 7454,-3852 -744,2139 -3687,3169 -7206,3169 -4080,0 -7388,-1384 -7388,-4277 0,-709 123,-1519 386,-2339 -493,1072 -716,2184 -716,3116 0,2829 3344,4183 7470,4183z" style="fill:#611d8d"/>
   <path class="HatGasmask-Bigfil135 HatGasmask-Bigstr9" d="M13511 6696c423,3861 171,7821 -44,11497" style="fill:#45ab86"/>
   <path class="HatGasmask-Bigfil12 HatGasmask-Bigstr0" d="M13682 18194c4126,0 7470,-1354 7470,-4183 0,-2830 -2059,-7317 -7470,-7317 -5412,0 -7470,4487 -7470,7317 0,2829 3344,4183 7470,4183z" style="fill:#c6a70b"/>
   <path class="HatGasmask-Bigfil164 HatGasmask-Bigstr0" d="M10043 15460c-1470,0 -2701,-1142 -2750,-2550 -48,-1408 991,-2758 2461,-2758 1470,0 2815,1350 2863,2758 48,1408 -1104,2550 -2574,2550zm82 -531c-1115,0 -2048,-866 -2085,-1933 -36,-1068 615,-2013 1729,-2013 1115,0 2272,945 2308,2013 37,1067 -837,1933 -1952,1933z" style="fill:#1b8c4e"/>
   <path class="HatGasmask-Bigfil138" d="M9983 15156c-1281,0 -2320,-994 -2320,-2221 0,-1226 1039,-2221 2320,-2221 1281,0 2319,995 2319,2221 0,1227 -1038,2221 -2319,2221z" style="fill:#824e2a"/>
   <path class="HatGasmask-Bigfil165" d="M10125 14929c-1115,0 -2048,-866 -2085,-1933 -36,-1068 835,-2013 1950,-2013 1114,0 2051,945 2087,2013 37,1067 -837,1933 -1952,1933z" style="fill:#8326ec"/>
   <path class="HatGasmask-Bigfil140" d="M10643 11167c23,1168 190,2346 436,3529 -281,148 -606,233 -954,233 -4,0 -9,0 -13,0 75,-1315 15,-2630 -314,-3945 286,4 574,70 845,183zm-1583 3477c-73,-43 -144,-89 -211,-139 -33,-1022 -108,-2045 -235,-3070 79,-77 167,-146 262,-205 -51,1013 7,2215 184,3414z" style="fill:#ac27c0"/>
   <path class="HatGasmask-Bigfil12 HatGasmask-Bigstr0" d="M10125 14929c-1115,0 -2048,-866 -2085,-1933 -36,-1068 615,-2013 1729,-2013 1115,0 2272,945 2308,2013 37,1067 -837,1933 -1952,1933z" style="fill:#b65f49"/>
   <path class="HatGasmask-Bigfil166 HatGasmask-Bigstr0" d="M17321 15460c1470,0 2701,-1142 2749,-2550 49,-1408 -990,-2758 -2460,-2758 -1470,0 -2815,1350 -2863,2758 -49,1408 1104,2550 2574,2550zm-82 -531c1114,0 2048,-866 2085,-1933 36,-1068 -615,-2013 -1729,-2013 -1115,0 -2272,945 -2308,2013 -37,1067 837,1933 1952,1933z" style="fill:#dfd124"/>
   <path class="HatGasmask-Bigfil138" d="M17381 15156c1281,0 2319,-994 2319,-2221 0,-1226 -1038,-2221 -2319,-2221 -1281,0 -2320,995 -2320,2221 0,1227 1039,2221 2320,2221z" style="fill:#2691db"/>
   <path class="HatGasmask-Bigfil167" d="M17239 14929c1114,0 2048,-866 2085,-1933 36,-1068 -835,-2013 -1950,-2013 -1115,0 -2051,945 -2087,2013 -37,1067 837,1933 1952,1933z" style="fill:#853c77"/>
   <path class="HatGasmask-Bigfil140" d="M18232 11190c180,1311 240,1716 672,3045 -243,137 -863,545 -896,545 -90,-1477 -207,-2319 -750,-3796 322,4 655,78 974,206zm-1285 3719c-88,-48 -181,-16 -263,-73 -172,-1147 -352,-2077 -630,-3227 79,-87 168,-164 267,-231 77,1138 268,2185 626,3531z" style="fill:#170e29"/>
   <path class="HatGasmask-Bigfil12 HatGasmask-Bigstr0" d="M17239 14929c1114,0 2048,-866 2085,-1933 36,-1068 -615,-2013 -1729,-2013 -1115,0 -2272,945 -2308,2013 -37,1067 837,1933 1952,1933z" style="fill:#906851"/>
   <path class="HatGasmask-Bigfil77" d="M8247 10711c-287,267 -266,1430 448,651 -442,373 -677,980 -655,1634 37,1067 970,1933 2085,1933 484,0 923,-164 1261,-435 -121,293 373,291 874,-234 -443,531 -1112,1200 -2217,1200 -1106,0 -2709,-1353 -2750,-2550 -41,-1196 452,-1773 954,-2199z" style="fill:#f4363a"/>
   <g>
    <path class="HatGasmask-Bigfil168 HatGasmask-Bigstr0" d="M15027 17237l0 -1291c-213,-380 -735,-649 -1345,-649 -610,0 -1132,269 -1345,649l0 1291c355,-167 827,-269 1345,-269 518,0 990,102 1345,269z" style="fill:#cb9d90"/>
    <path class="HatGasmask-Bigfil169 HatGasmask-Bigstr1" d="M15027 16651c171,-218 381,-241 381,-761 0,-520 -345,-1478 -1726,-1478 -1381,0 -1695,957 -1669,1401 25,443 185,565 324,733 -75,-1029 1154,-1113 1345,-1113 191,0 1420,188 1345,1218z" style="fill:#17ff2e"/>
    <path class="HatGasmask-Bigfil170 HatGasmask-Bigstr1" d="M15027 16651c171,-193 270,-424 270,-672 0,-671 -723,-1214 -1615,-1214 -892,0 -1615,543 -1615,1214 0,248 99,479 270,672 -2,-21 -3,-42 -3,-64 0,-559 604,-1012 1348,-1012 744,0 1348,453 1348,1012 0,22 -1,43 -3,64z" style="fill:#ff05e8"/>
    <path class="HatGasmask-Bigfil171 HatGasmask-Bigstr1" d="M15027 17633c171,-80 270,-177 270,-281 0,-280 -723,-507 -1615,-507 -892,0 -1615,227 -1615,507 0,104 99,201 270,281 -2,-9 -3,95 -3,-26 0,-122 604,-169 1348,-169 744,0 1348,47 1348,169 0,121 -1,17 -3,26z" style="fill:#522f0c"/>
    <path class="HatGasmask-Bigfil172 HatGasmask-Bigstr1" d="M15790 18101c0,-473 -944,-856 -2108,-856 -1164,0 -2108,383 -2108,856l0 1 0 1450 4216 0 0 -1451z" style="fill:#e2dd05"/>
    <path class="HatGasmask-Bigfil148 HatGasmask-Bigstr10" d="M15790 18926c0,-292 -944,-738 -2108,-738 -1164,0 -2108,446 -2108,738" style="fill:#94de4d"/>
    <path class="HatGasmask-Bigfil12 HatGasmask-Bigstr0" d="M15790 18926c0,-292 -944,-634 -2108,-634 -1164,0 -2108,342 -2108,634" style="fill:#bb2604"/>
    <path class="HatGasmask-Bigfil148 HatGasmask-Bigstr10" d="M15790 18403c0,-292 -944,-842 -2108,-842 -1164,0 -2108,550 -2108,842" style="fill:#05be0b"/>
    <path class="HatGasmask-Bigfil12 HatGasmask-Bigstr0" d="M15790 18403c0,-286 -910,-721 -2046,-737 -21,0 -41,0 -62,0 -1164,0 -2108,445 -2108,737" style="fill:#5c635a"/>
    <path class="HatGasmask-Bigfil12 HatGasmask-Bigstr1" d="M15790 18101c0,-473 -944,-856 -2108,-856 -1164,0 -2108,383 -2108,856l0 1 0 1450 4216 0 0 -1451z" style="fill:#2235f4"/>
    <ellipse class="HatGasmask-Bigfil173 HatGasmask-Bigstr0" cx="13682" cy="19552" rx="2108" ry="529"/>
    <path class="HatGasmask-Bigfil150" d="M13682 19906c798,0 1446,-114 1446,-255 0,-142 -648,-256 -1446,-256 -799,0 -1446,114 -1446,256 0,141 647,255 1446,255z" style="fill:#f0f3f9"/>
    <path class="HatGasmask-Bigfil148 HatGasmask-Bigstr11" d="M13682 19906c798,0 1446,-114 1446,-255 0,-142 -648,-256 -1446,-256 -799,0 -1446,114 -1446,256 0,141 647,255 1446,255z" style="fill:#b0ce66"/>
    <path class="HatGasmask-Bigfil77" d="M13682 19781c352,0 637,-43 637,-95 0,-53 -285,-96 -637,-96 -352,0 -637,43 -637,96 0,52 285,95 637,95z" style="fill:#35b763"/>
    <path class="HatGasmask-Bigfil98" d="M15204 16387c-225,-639 -822,-1096 -1522,-1096 -701,0 -1297,457 -1522,1096 45,94 105,182 177,264 -2,-21 -3,-42 -3,-64 0,-559 604,-1012 1348,-1012 744,0 1348,453 1348,1012 0,22 -1,43 -3,64 72,-82 132,-170 177,-264z" style="fill:#353274"/>
    <path class="HatGasmask-Bigfil151 HatGasmask-Bigstr12" d="M13682 19781c352,0 637,-43 637,-95 0,-53 -285,-96 -637,-96 -352,0 -637,43 -637,96 0,52 285,95 637,95z" style="fill:#a4d8a8"/>
   </g>
   <path class="HatGasmask-Bigfil73" d="M14292 13849c-375,-109 -862,30 -844,95 15,54 278,-81 821,113 544,193 631,427 659,375 45,-86 -260,-474 -636,-583z" style="fill:#ed708b"/>
   <path class="HatGasmask-Bigfil73" d="M12214 7476c316,3 958,-128 1704,-118 529,7 1128,168 1620,132 76,-6 -1226,-462 -1700,-441 -474,21 -1946,423 -1624,427z" style="fill:#27f4a1"/>
   <path class="HatGasmask-Bigfil73" d="M11866 8256c404,4 1229,-238 2178,-228 674,7 1431,279 2057,242 97,-5 -1554,-572 -2158,-551 -604,21 -2486,534 -2077,537z" style="fill:#927437"/>
   <path class="HatGasmask-Bigfil76" d="M12886 14341c-23,-29 215,-150 651,-235 437,-85 921,194 893,233 -28,39 -520,-140 -805,-139 -286,1 -716,171 -739,141z" style="fill:#5ad6ae"/>
   <path class="HatGasmask-Bigfil97" d="M18449 9128c321,24 -1347,-1557 -1975,-1471 -627,87 -407,385 233,560 639,174 1422,887 1742,911z" style="fill:#3520c7"/>
   <path class="HatGasmask-Bigfil98" d="M9980 7569c-1040,971 -1429,1975 -1415,2913 -807,486 -1305,1443 -1272,2428 49,1408 1280,2550 2750,2550 741,0 1401,-291 1868,-759 441,127 798,92 962,-148 -159,259 -46,311 170,310 -787,438 -217,783 88,800 10,322 -245,832 -1,1213 -282,129 -330,315 51,393 -89,59 -265,27 -326,96 -840,949 -103,1716 664,1660 -1476,721 -1203,1065 839,1028 -419,166 -2336,3 -2748,-402 -36,-520 -36,-1077 -36,-1550 -835,-206 -4574,-848 -5103,-2814 -996,-3704 1548,-6588 3509,-7718z" style="fill:#560fe7"/>
  </g>
 </g><g id="NecklaceShipWheel">
  <metadata id="CorelCorpID_57Corel-Layer"/>
  <path class="NecklaceShipWheelfil371new NecklaceShipWheelstr0new" d="M13682 19054c-550,0 -1250,379 -1347,1130l-729 5632 2076 0 2076 0 -729 -5632c-97,-751 -798,-1130 -1347,-1130z" style="fill:#31ccc7"/>
  <path class="NecklaceShipWheelfil14new" d="M14042 19617c639,268 940,1002 672,1640 -267,639 -1001,940 -1640,672 -638,-267 -939,-1001 -672,-1640 268,-638 1002,-939 1640,-672z" style="fill:#b363f3"/>
  <path class="NecklaceShipWheelfil14new" d="M12132 21754l-526 4062 2076 0 2076 0 -66 -509c-1400,227 -3532,285 -3560,-3553z" style="fill:#2d4b3c"/>
  <g>
   <path class="NecklaceShipWheelfil372new" d="M11448 17890c63,-48 127,-97 190,-145 63,-48 127,-96 190,-145 -93,-477 -544,-1362 -856,-1124l-380 289c-312,238 421,908 856,1125z" style="fill:#38a490"/>
   <path class="NecklaceShipWheelfil14new" d="M11448 17890c63,-48 127,-97 190,-145 59,-45 118,-90 177,-134 -429,68 -910,-176 -1277,-585 107,298 589,704 910,864z" style="fill:#1835f4"/>
   <path class="NecklaceShipWheelfil373new" d="M11755 17656l73 -56c-93,-477 -544,-1362 -856,-1124l-380 289c-84,64 -92,160 -51,269 8,-8 16,-16 26,-23l381 -290c274,-209 655,449 807,935z" style="fill:#6b0584"/>
   <path class="NecklaceShipWheelfil33new NecklaceShipWheelstr0new" d="M11448 17890c63,-48 127,-97 190,-145 63,-48 127,-96 190,-145 -93,-477 -544,-1362 -856,-1124l-380 289c-312,238 421,908 856,1125z" style="fill:#0bd5fa"/>
   <polygon class="NecklaceShipWheelfil374 NecklaceShipWheelstr0new" points="11326,17924 11894,17492 12173,17859 11605,18291 "/>
   <path class="NecklaceShipWheelfil375new" d="M12166 18834c64,-48 127,-96 191,-145 63,-48 127,-96 190,-145 334,267 579,601 753,989 -64,48 -127,97 -191,145 -63,48 -127,97 -190,145 -328,-271 -585,-596 -753,-989z" style="fill:#4242c4"/>
   <path class="NecklaceShipWheelfil14new" d="M13147 19410l-163 124 -153 117 -58 10c-219,-184 -368,-500 -517,-738 302,363 496,575 891,487z" style="fill:#0231bc"/>
   <path class="NecklaceShipWheelfil373new" d="M12415 18645l132 -101c334,267 579,601 753,989l-155 82c-170,-379 -408,-707 -730,-970z" style="fill:#dbeb40"/>
   <path class="NecklaceShipWheelfil33new NecklaceShipWheelstr0new" d="M12166 18834c64,-48 127,-96 191,-145 63,-48 127,-96 190,-145 334,267 579,601 753,989 -64,48 -127,97 -191,145 -63,48 -127,97 -190,145 -328,-271 -585,-596 -753,-989z" style="fill:#f9380d"/>
   <polygon class="NecklaceShipWheelfil376new NecklaceShipWheelstr0new" points="12161,19022 12729,18589 12450,18222 11882,18654 "/>
  </g>
  <g>
   <path class="NecklaceShipWheelfil377new" d="M10350 21103c-10,-79 -20,-158 -30,-237 -10,-79 -20,-158 -30,-237 -460,-158 -1452,-210 -1402,179l60 475c50,388 997,89 1402,-180z" style="fill:#b6d1f2"/>
   <path class="NecklaceShipWheelfil14new" d="M10350 21103c-10,-79 -20,-158 -30,-237 -9,-73 -19,-147 -28,-220 -156,405 -607,700 -1144,813 311,57 904,-158 1202,-356z" style="fill:#e3d844"/>
   <path class="NecklaceShipWheelfil373new" d="M10301 20720l-11 -91c-460,-158 -1452,-210 -1402,179l60 475c14,104 92,159 208,178 -4,-11 -6,-23 -8,-35l-60 -474c-44,-342 716,-343 1213,-232z" style="fill:#8a06a1"/>
   <path class="NecklaceShipWheelfil33new NecklaceShipWheelstr0new" d="M10350 21103c-10,-79 -20,-158 -30,-237 -10,-79 -20,-158 -30,-237 -460,-158 -1452,-210 -1402,179l60 475c50,388 997,89 1402,-180z" style="fill:#160a9f"/>
   <polygon class="NecklaceShipWheelfil378new NecklaceShipWheelstr0new" points="10319,21226 10228,20518 10686,20460 10776,21168 "/>
   <path class="NecklaceShipWheelfil379new" d="M11527 20953c-10,-79 -20,-158 -30,-237 -10,-79 -20,-158 -30,-237 397,-156 809,-201 1232,-158 10,79 21,158 31,237 10,80 20,159 30,238 -399,148 -809,208 -1233,157z" style="fill:#123a9f"/>
   <path class="NecklaceShipWheelfil14new" d="M12516 20392l26 203 25 191 -20 55c-269,98 -617,69 -898,79 466,-80 746,-142 867,-528z" style="fill:#e29c7e"/>
   <path class="NecklaceShipWheelfil373new" d="M11488 20643l-21 -164c397,-156 809,-201 1232,-158l-6 175c-413,-42 -816,0 -1205,147z" style="fill:#6b2e5a"/>
   <path class="NecklaceShipWheelfil33new NecklaceShipWheelstr0new" d="M11527 20953c-10,-79 -20,-158 -30,-237 -10,-79 -20,-158 -30,-237 397,-156 809,-201 1232,-158 10,79 21,158 31,237 10,80 20,159 30,238 -399,148 -809,208 -1233,157z" style="fill:#15ee66"/>
   <polygon class="NecklaceShipWheelfil380new NecklaceShipWheelstr0new" points="11687,21051 11596,20343 11139,20402 11229,21110 "/>
  </g>
  <g>
   <path class="NecklaceShipWheelfil381new" d="M12585 23660c-74,-30 -147,-61 -221,-92 -74,-31 -147,-62 -221,-92 -366,319 -907,1152 -546,1303l442 185c361,151 575,-818 546,-1304z" style="fill:#f95979"/>
   <path class="NecklaceShipWheelfil14new" d="M12585 23660c-74,-30 -147,-61 -221,-92 -68,-29 -137,-57 -205,-86 273,338 303,876 133,1398 204,-241 315,-862 293,-1220z" style="fill:#bcb4f1"/>
   <path class="NecklaceShipWheelfil373new" d="M12228 23511l-85 -35c-366,319 -907,1152 -546,1303l442 185c97,41 184,0 258,-90 -11,-3 -22,-6 -34,-11l-441 -185c-317,-133 61,-792 406,-1167z" style="fill:#19c0ec"/>
   <path class="NecklaceShipWheelfil33new NecklaceShipWheelstr0new" d="M12585 23660c-74,-30 -147,-61 -221,-92 -74,-31 -147,-62 -221,-92 -366,319 -907,1152 -546,1303l442 185c361,151 575,-818 546,-1304z" style="fill:#8643d2"/>
   <polygon class="NecklaceShipWheelfil382new NecklaceShipWheelstr0new" points="12675,23749 12017,23473 12195,23048 12853,23324 "/>
   <path class="NecklaceShipWheelfil383new" d="M13043 22566c-74,-31 -147,-62 -221,-92 -73,-31 -147,-62 -220,-93 63,-422 231,-801 480,-1146 73,31 147,62 220,92 74,31 147,62 221,93 -71,419 -224,804 -480,1146z" style="fill:#4b2ce7"/>
   <path class="NecklaceShipWheelfil14new" d="M13052 21429l188 79 178 74 38 45c-50,282 -249,569 -381,817 163,-444 250,-717 -23,-1015z" style="fill:#d6713e"/>
   <path class="NecklaceShipWheelfil373new" d="M12755 22445l-153 -64c64,-422 231,-801 480,-1146l148 93c-243,337 -408,707 -475,1117z" style="fill:#92c200"/>
   <path class="NecklaceShipWheelfil33new NecklaceShipWheelstr0new" d="M13043 22566c-74,-31 -147,-62 -221,-92 -73,-31 -147,-62 -220,-93 63,-422 231,-801 480,-1146 73,31 147,62 220,92 74,31 147,62 221,93 -71,419 -224,804 -480,1146z" style="fill:#ed208d"/>
   <polygon class="NecklaceShipWheelfil384new NecklaceShipWheelstr0new" points="13208,22477 12549,22201 12371,22627 13030,22902 "/>
  </g>
  <g>
   <path class="NecklaceShipWheelfil385new" d="M15916 23004c-63,48 -127,97 -190,145 -64,48 -127,96 -191,145 94,477 545,1362 857,1124l380 -289c312,-238 -421,-908 -856,-1125z" style="fill:#0fa114"/>
   <path class="NecklaceShipWheelfil14new" d="M15916 23004c-63,48 -127,97 -190,145 -59,45 -118,90 -177,134 429,-68 910,176 1277,585 -107,-298 -589,-704 -910,-864z" style="fill:#a385c4"/>
   <path class="NecklaceShipWheelfil373new" d="M15609 23238l-74 56c94,477 545,1362 857,1124l380 -289c84,-64 92,-160 51,-269 -8,8 -16,16 -26,23l-381 290c-274,209 -655,-449 -807,-935z" style="fill:#38e930"/>
   <path class="NecklaceShipWheelfil33new NecklaceShipWheelstr0new" d="M15916 23004c-63,48 -127,97 -190,145 -64,48 -127,96 -191,145 94,477 545,1362 857,1124l380 -289c312,-238 -421,-908 -856,-1125z" style="fill:#af6646"/>
   <polygon class="NecklaceShipWheelfil386new NecklaceShipWheelstr0new" points="16038,22970 15470,23402 15191,23035 15759,22603 "/>
   <path class="NecklaceShipWheelfil387new" d="M15198 22060c-64,48 -127,97 -191,145 -63,48 -127,96 -190,145 -334,-267 -579,-601 -753,-989 64,-48 127,-97 191,-145 63,-48 127,-97 190,-145 328,271 585,596 753,989z" style="fill:#c1d3e7"/>
   <path class="NecklaceShipWheelfil14new" d="M14217 21484l163 -124 153 -117 58 -10c219,184 368,500 517,738 -303,-363 -496,-575 -891,-487z" style="fill:#051e65"/>
   <path class="NecklaceShipWheelfil373new" d="M14949 22249l-132 101c-334,-267 -579,-601 -753,-989l155 -82c170,379 408,707 730,970z" style="fill:#16da35"/>
   <path class="NecklaceShipWheelfil33new NecklaceShipWheelstr0new" d="M15198 22060c-64,48 -127,97 -191,145 -63,48 -127,96 -190,145 -334,-267 -579,-601 -753,-989 64,-48 127,-97 191,-145 63,-48 127,-97 190,-145 328,271 585,596 753,989z" style="fill:#8db418"/>
   <polygon class="NecklaceShipWheelfil388new NecklaceShipWheelstr0new" points="15203,21873 14635,22305 14914,22672 15482,22240 "/>
  </g>
  <g>
   <path class="NecklaceShipWheelfil389new" d="M17013 19791c11,79 21,158 31,237 10,79 20,158 30,237 460,158 1452,210 1402,-179l-60 -475c-50,-388 -997,-89 -1403,180z" style="fill:#40f41e"/>
   <path class="NecklaceShipWheelfil14new" d="M17013 19791c11,79 21,158 31,237 9,73 19,147 28,220 155,-405 607,-700 1144,-813 -311,-57 -904,158 -1203,356z" style="fill:#6b2743"/>
   <path class="NecklaceShipWheelfil373new" d="M17062 20174l12 91c460,158 1452,210 1402,-179l-60 -475c-14,-104 -92,-159 -208,-178 3,11 6,23 7,35l61 474c44,342 -717,343 -1214,232z" style="fill:#6278be"/>
   <path class="NecklaceShipWheelfil33new NecklaceShipWheelstr0new" d="M17013 19791c11,79 21,158 31,237 10,79 20,158 30,237 460,158 1452,210 1402,-179l-60 -475c-50,-388 -997,-89 -1403,180z" style="fill:#a3ec42"/>
   <polygon class="NecklaceShipWheelfil390new NecklaceShipWheelstr0new" points="17045,19668 17135,20376 16678,20434 16587,19726 "/>
   <path class="NecklaceShipWheelfil391new" d="M15837 19941c10,79 20,158 30,237 10,79 20,158 30,237 -397,156 -809,201 -1232,158 -11,-79 -21,-158 -31,-237 -10,-80 -20,-159 -30,-238 399,-148 808,-208 1233,-157z" style="fill:#3adbeb"/>
   <path class="NecklaceShipWheelfil14new" d="M14847 20502l-25 -203 -25 -191 20 -55c269,-98 617,-69 898,-79 -466,81 -746,142 -868,528z" style="fill:#a6ec7d"/>
   <path class="NecklaceShipWheelfil373new" d="M15876 20251l21 164c-398,156 -809,201 -1232,158l6 -175c413,42 816,0 1205,-147z" style="fill:#ff790f"/>
   <path class="NecklaceShipWheelfil33new NecklaceShipWheelstr0new" d="M15837 19941c10,79 20,158 30,237 10,79 20,158 30,237 -397,156 -809,201 -1232,158 -11,-79 -21,-158 -31,-237 -10,-80 -20,-159 -30,-238 399,-148 808,-208 1233,-157z" style="fill:#3680c2"/>
   <polygon class="NecklaceShipWheelfil392new NecklaceShipWheelstr0new" points="15677,19843 15767,20551 16225,20492 16135,19784 "/>
  </g>
  <g>
   <path class="NecklaceShipWheelfil393new" d="M14779 17234c74,30 147,61 221,92 73,31 147,62 221,92 366,-319 907,-1152 546,-1303l-442 -185c-361,-151 -576,818 -546,1304z" style="fill:#88bdcb"/>
   <path class="NecklaceShipWheelfil14new" d="M14779 17234c74,30 147,61 221,92 68,29 136,57 205,86 -274,-338 -303,-876 -133,-1398 -204,241 -315,862 -293,1220z" style="fill:#cd7abf"/>
   <path class="NecklaceShipWheelfil373new" d="M15135 17383l86 35c366,-319 907,-1152 546,-1303l-442 -185c-97,-41 -184,0 -258,90 11,3 22,6 34,11l441 185c317,133 -61,792 -407,1167z" style="fill:#e53d9d"/>
   <path class="NecklaceShipWheelfil33new NecklaceShipWheelstr0new" d="M14779 17234c74,30 147,61 221,92 73,31 147,62 221,92 366,-319 907,-1152 546,-1303l-442 -185c-361,-151 -576,818 -546,1304z" style="fill:#890487"/>
   <polygon class="NecklaceShipWheelfil394new NecklaceShipWheelstr0new" points="14689,17145 15347,17421 15169,17846 14511,17570 "/>
   <path class="NecklaceShipWheelfil395new" d="M14321 18328c73,31 147,62 221,92 73,31 147,62 220,93 -64,422 -231,801 -480,1146 -73,-31 -147,-62 -220,-92 -74,-31 -148,-62 -221,-93 71,-419 224,-804 480,-1146z" style="fill:#066f32"/>
   <path class="NecklaceShipWheelfil14new" d="M14312 19465l-188 -79 -178 -74 -38 -45c50,-282 249,-569 381,-817 -163,444 -250,717 23,1015z" style="fill:#cf7c69"/>
   <path class="NecklaceShipWheelfil373new" d="M14609 18449l153 64c-64,422 -231,801 -480,1146l-148 -93c243,-337 408,-707 475,-1117z" style="fill:#31440c"/>
   <path class="NecklaceShipWheelfil33new NecklaceShipWheelstr0new" d="M14321 18328c73,31 147,62 221,92 73,31 147,62 220,93 -64,422 -231,801 -480,1146 -73,-31 -147,-62 -220,-92 -74,-31 -148,-62 -221,-93 71,-419 224,-804 480,-1146z" style="fill:#9000cc"/>
   <polygon class="NecklaceShipWheelfil396new NecklaceShipWheelstr0new" points="14156,18417 14814,18693 14993,18267 14334,17992 "/>
  </g>
  <path class="NecklaceShipWheelfil397new NecklaceShipWheelstr0new" d="M14906 17507c1615,676 2376,2533 1700,4148 -677,1615 -2534,2375 -4148,1699 -1615,-676 -2376,-2533 -1700,-4148 676,-1615 2534,-2376 4148,-1699zm-329 787c1179,494 1735,1851 1241,3031 -494,1180 -1851,1736 -3031,1242 -1180,-494 -1735,-1851 -1241,-3031 494,-1180 1851,-1736 3031,-1242z" style="fill:#f8d721"/>
  <path class="NecklaceShipWheelfil398new NecklaceShipWheelstr0new" d="M14134 19352c595,249 876,934 627,1530 -250,596 -935,877 -1531,627 -595,-249 -876,-935 -627,-1530 250,-596 935,-877 1531,-627z" style="fill:#5c855c"/>
  <path class="NecklaceShipWheelfil399new" d="M14134 19352c595,249 876,934 627,1530 -38,91 -86,174 -142,249 4,-10 8,-19 12,-29 250,-595 -31,-1281 -627,-1530 -505,-212 -1075,-42 -1388,378 259,-576 932,-844 1518,-598z" style="fill:#faeb0f"/>
  <circle class="NecklaceShipWheelfil33new NecklaceShipWheelstr6new" r="1167" transform="matrix(0.924318 0.38709 -0.38709 0.924318 13681.9 20430.5)"/>
  <path class="NecklaceShipWheelfil373new" d="M14816 17722c747,313 1298,900 1583,1595 284,696 304,1500 -9,2247 -313,748 -900,1298 -1595,1583 -696,285 -1499,305 -2247,-8 -748,-313 -1298,-900 -1583,-1595 -285,-696 -304,-1500 9,-2247 313,-748 899,-1298 1595,-1583 695,-285 1499,-305 2247,8zm1214 1747c-246,-601 -722,-1108 -1368,-1378 -646,-271 -1341,-254 -1942,-8 -600,246 -1107,721 -1378,1367 -271,647 -254,1342 -8,1942 246,601 721,1108 1367,1378 647,271 1342,254 1943,8 600,-246 1107,-721 1378,-1367 270,-647 254,-1342 8,-1942z" style="fill:#08bc3a"/>
  <path class="NecklaceShipWheelfil373new" d="M14816 17722c747,313 1298,900 1583,1595 284,696 304,1500 -9,2247 -103,248 -237,474 -395,676 112,-164 210,-341 290,-532 313,-747 293,-1551 8,-2246 -285,-696 -835,-1283 -1583,-1596 -747,-313 -1551,-293 -2247,-8 -465,191 -881,500 -1200,907 330,-479 788,-839 1306,-1051 695,-285 1499,-305 2247,8zm-3231 1279c-94,139 -176,289 -243,449 -271,647 -254,1342 -8,1942 246,601 721,1108 1367,1378 647,271 1342,254 1943,8 398,-163 755,-427 1029,-774 -285,419 -684,733 -1135,918 -601,246 -1295,263 -1942,-8 -646,-270 -1122,-777 -1368,-1378 -246,-600 -262,-1295 9,-1942 91,-218 209,-416 348,-593z" style="fill:#a97b7f"/>
 </g></svg>