<svg xmlns="http://www.w3.org/2000/svg" xmlns:xlink="http://www.w3.org/1999/xlink" style="shape-rendering:geometricPrecision; text-rendering:geometricPrecision; image-rendering:optimizeQuality; fill-rule:evenodd; clip-rule:evenodd" version="1.1" viewBox="0 0 29000 29000" xml:space="preserve"><defs><style type="text/css">.HairBack-Bear0fil22 {fill:none}
.Tail-Bear0fil22 {fill:none}
.RightFoot-Bear0fil35 {fill:#ffffff}
.RightFoot-Bear0fil14 {fill:black;fill-opacity:0.200000}
.RightFoot-Bear0fil32 {fill:black;fill-rule:nonzero}
.RightLeg-Bear3fil437 {fill:url(#RightLeg-Bear3id151)}
.RightLeg-Bear3fil26 {fill:#fffffd}
.RightLeg-Bear3fil14 {fill:black;fill-opacity:0.200000}
.RightLeg-Bear3fil32 {fill:black;fill-rule:nonzero}
.LeftFoot-Bear0fil35 {fill:#ffffff}
.LeftFoot-Bear0fil14 {fill:black;fill-opacity:0.200000}
.LeftFoot-Bear0fil32 {fill:black;fill-rule:nonzero}
.LeftLeg-Bear3fil447 {fill:url(#LeftLeg-Bear3id520)}
.LeftLeg-Bear3fil26 {fill:#fffffd}
.LeftLeg-Bear3fil14 {fill:black;fill-opacity:0.200000}
.LeftLeg-Bear3fil32 {fill:black;fill-rule:nonzero}
.RightHand-Bear0fil452 {fill:url(#RightHand-Bear0id388)}
.RightHand-Bear0fil14 {fill:black;fill-opacity:0.200000}
.RightHand-Bear0fil22 {fill:none}
.RightHand-Bear0str0 {stroke:black;stroke-width:150;stroke-linecap:round;stroke-linejoin:round}
.RightPaw-Bear3fil460 {fill:url(#RightPaw-Bear3id436)}
.RightPaw-Bear3fil32 {fill:black;fill-rule:nonzero}
.RightPaw-Bear3fil458 {fill:#A16A6A}
.LeftHand-Bear0fil465 {fill:url(#LeftHand-Bear0id386)}
.LeftHand-Bear0fil14 {fill:black;fill-opacity:0.200000}
.LeftHand-Bear0fil22 {fill:none}
.LeftHand-Bear0str0 {stroke:black;stroke-width:150;stroke-linecap:round;stroke-linejoin:round}
.LeftPaw-Bear3fil471 {fill:url(#LeftPaw-Bear3id497)}
.LeftPaw-Bear3fil32 {fill:black;fill-rule:nonzero}
.LeftPaw-Bear3fil458 {fill:#A16A6A}
.Body-Bear2fil478 {fill:url(#Body-Bear2id266)}
.Body-Bear2fil479 {fill:url(#Body-Bear2id516)}
.Body-Bear2fil14 {fill:black;fill-opacity:0.200000}
.Body-Bear2fil32 {fill:black;fill-rule:nonzero}
.Body-Bear2fil22 {fill:none}
.Head-Bear4fil517 {fill:url(#Head-Bear4id321)}
.Head-Bear4fil32 {fill:black;fill-rule:nonzero}
.Head-Bear4fil14 {fill:black;fill-opacity:0.200000}
.Head-Bear4fil518 {fill:url(#Head-Bear4id818)}
.Head-Bear4fil519 {fill:url(#Head-Bear4id410)}
.Mouth-Bear0fil22 {fill:none}
.Mouth-Bear0str0 {stroke:black;stroke-width:150;stroke-linecap:round;stroke-linejoin:round}
.Mouth-Bear0fil100 {fill:black}
.Eyes-Bear6fil558 {fill:url(#Eyes-Bear6id908)}
.Eyes-Bear6fil559 {fill:url(#Eyes-Bear6id1060)}
.Eyes-Bear6fil560 {fill:url(#Eyes-Bear6id574)}
.Eyes-Bear6fil152 {fill:white}
.Eyes-Bear6fil157 {fill:black;fill-opacity:0.501961}
.Eyes-Bear6fil561 {fill:url(#Eyes-Bear6id909)}
.Eyes-Bear6fil562 {fill:url(#Eyes-Bear6id1063)}
.Eyes-Bear6fil563 {fill:url(#Eyes-Bear6id801)}
.Eyes-Bear6fil155 {fill:#95634c}
.Eyes-Bear6fil14 {fill:black;fill-opacity:0.200000}
.Eyes-Bear6fil22 {fill:none}
.Eyes-Bear6str4 {stroke:black;stroke-width:150}
.Moustache-Bear0fil22 {fill:none}
.Nose-Bear0fil598 {fill:url(#Nose-Bear0id451)}
.Nose-Bear0str0 {stroke:black;stroke-width:150;stroke-linecap:round;stroke-linejoin:round}
.BraceletSilver-Bigfil62new {fill:black;fill-opacity:0.400000}
.BraceletSilver-Bigfil64new {fill:url(#BraceletSilver-Bigid670new);fill-rule:nonzero}
.BraceletSilver-Bigstr4new {stroke:black;stroke-width:100}
.BraceletSilver-Bigfil65new {fill:url(#BraceletSilver-Bigid696new);fill-rule:nonzero}
.NecklaceChainfil224new {fill:url(#NecklaceChainid673new);fill-rule:nonzero}
.NecklaceChainfil223new {fill:black;fill-rule:nonzero}
.NecklaceChainstr0new {stroke:black;stroke-width:150;stroke-linecap:round;stroke-linejoin:round}
.HatBaseballWhite-Bigfil12 {fill:black;fill-opacity:0.200000}
.HatBaseballWhite-Bigfil322 {fill:url(#HatBaseballWhite-Bigid238)}
.HatBaseballWhite-Bigfil167 {fill:black;fill-opacity:0.301961}
.HatBaseballWhite-Bigfil298 {fill:white;fill-opacity:0.800000}
.HatBaseballWhite-Bigfil321 {fill:url(#HatBaseballWhite-Bigid207)}
.HatBaseballWhite-Bigstr1 {stroke:black;stroke-width:150;stroke-linecap:round;stroke-linejoin:round}
.HatBaseballWhite-Bigfil165 {fill:none}
.HatBaseballWhite-Bigstr8 {stroke:#6E6E6E;stroke-width:75;stroke-linecap:round;stroke-linejoin:round;stroke-dasharray:150.000000 225.000000;stroke-opacity:0.200000}
.HatBaseballWhite-Bigstr9 {stroke:#6E6E6E;stroke-width:100;stroke-opacity:0.200000}
.HatBaseballWhite-Bigfil11 {fill:none}
.HatBaseballWhite-Bigfil323 {fill:url(#HatBaseballWhite-Bigid223)}
</style><linearGradient gradientUnits="objectBoundingBox" id="RightLeg-Bear3id151" x1="50%" x2="50%" xlink:href="#RightLeg-Bear3id150" y1="100%" y2="0%">
  </linearGradient><linearGradient gradientUnits="objectBoundingBox" id="LeftLeg-Bear3id520" x1="50%" x2="50%" xlink:href="#LeftLeg-Bear3id150" y1="100%" y2="0%">
  </linearGradient><linearGradient gradientUnits="objectBoundingBox" id="RightHand-Bear0id388" x1="36.9963%" x2="63.0034%" xlink:href="#RightHand-Bear0id75" y1="2.66464%" y2="97.3354%">
  </linearGradient><linearGradient gradientUnits="userSpaceOnUse" id="RightPaw-Bear3id436" x1="18612.4" x2="18103.5" y1="20111.3" y2="22152.3">
   <stop offset="0" style="stop-opacity:1; stop-color:#ba8972"/>
   <stop offset="0.211765" style="stop-opacity:1; stop-color:#ba8972"/>
   <stop offset="1" style="stop-opacity:1; stop-color:#95634c"/>
  </linearGradient><linearGradient gradientUnits="objectBoundingBox" id="LeftHand-Bear0id386" x1="63.0037%" x2="36.9966%" xlink:href="#LeftHand-Bear0id75" y1="2.66464%" y2="97.3354%">
  </linearGradient><linearGradient gradientUnits="userSpaceOnUse" id="LeftPaw-Bear3id497" x1="9204.11" x2="8695.25" xlink:href="#LeftPaw-Bear3id436" y1="20111.3" y2="22152.3">
  </linearGradient><linearGradient gradientUnits="userSpaceOnUse" id="Body-Bear2id266" x1="13653.8" x2="13653.8" y1="17442" y2="23250.9">
   <stop offset="0" style="stop-opacity:1; stop-color:#d9d9c5"/>
   <stop offset="0.0588235" style="stop-opacity:1; stop-color:#d9d9c5"/>
   <stop offset="0.529412" style="stop-opacity:1; stop-color:#fefef4"/>
   <stop offset="1" style="stop-opacity:1; stop-color:#ffffff"/>
  </linearGradient><linearGradient gradientUnits="userSpaceOnUse" id="Body-Bear2id516" x1="13653.8" x2="13653.8" xlink:href="#Body-Bear2id310" y1="18611" y2="23350.9">
  </linearGradient><linearGradient gradientUnits="objectBoundingBox" id="Head-Bear4id321" x1="50%" x2="50%" y1="0%" y2="99.9999%">
   <stop offset="0" style="stop-opacity:1; stop-color:#ffffff"/>
   <stop offset="0.580392" style="stop-opacity:1; stop-color:#fefef4"/>
   <stop offset="1" style="stop-opacity:1; stop-color:#d9d9c5"/>
  </linearGradient><linearGradient gradientUnits="userSpaceOnUse" id="Head-Bear4id818" x1="13653.8" x2="13653.8" xlink:href="#Head-Bear4id567" y1="17229.8" y2="8781.44">
  </linearGradient><linearGradient gradientUnits="userSpaceOnUse" id="Head-Bear4id410" x1="13653.8" x2="13653.8" xlink:href="#Head-Bear4id133" y1="14566.8" y2="11645">
  </linearGradient><linearGradient gradientUnits="userSpaceOnUse" id="Eyes-Bear6id908" x1="10531.3" x2="9931.56" xlink:href="#Eyes-Bear6id27" y1="14554.5" y2="11688.7">
  </linearGradient><radialGradient cx="10318" cy="13226.9" fx="10318" fy="13226.9" gradientTransform="matrix(0.86885 -0 -0 0.999997 1353 0)" gradientUnits="userSpaceOnUse" id="Eyes-Bear6id1060" r="1488.87" xlink:href="#Eyes-Bear6id1039">
  </radialGradient><linearGradient gradientUnits="userSpaceOnUse" id="Eyes-Bear6id574" x1="10068.2" x2="10800" xlink:href="#Eyes-Bear6id384" y1="11770.4" y2="13796.7">
  </linearGradient><linearGradient gradientUnits="userSpaceOnUse" id="Eyes-Bear6id909" x1="16776.4" x2="17376.1" xlink:href="#Eyes-Bear6id27" y1="14554.5" y2="11688.7">
  </linearGradient><radialGradient cx="16989.7" cy="13226.9" fx="16989.7" fy="13226.9" gradientTransform="matrix(-0.937073 -0 -0 0.999997 32910 0)" gradientUnits="userSpaceOnUse" id="Eyes-Bear6id1063" r="1298.39" xlink:href="#Eyes-Bear6id1039">
  </radialGradient><linearGradient gradientUnits="userSpaceOnUse" id="Eyes-Bear6id801" x1="17342.6" x2="16826.6" xlink:href="#Eyes-Bear6id384" y1="11702.5" y2="13886.9">
  </linearGradient><linearGradient gradientUnits="userSpaceOnUse" id="Nose-Bear0id451" x1="13653.8" x2="13653.8" y1="14108.6" y2="14926.9">
   <stop offset="0" style="stop-opacity:1; stop-color:#FFCCCC"/>
   <stop offset="1" style="stop-opacity:1; stop-color:#453F2C"/>
  </linearGradient><linearGradient gradientUnits="userSpaceOnUse" id="BraceletSilver-Bigid670new" x1="8123.49" x2="10221.1" y1="19753" y2="20731.2">
   <stop offset="0" style="stop-opacity:1; stop-color:#ADA8A8"/>
   <stop offset="0.109804" style="stop-opacity:1; stop-color:#EDE8E8"/>
   <stop offset="0.25098" style="stop-opacity:1; stop-color:#FFFFFC"/>
   <stop offset="0.470588" style="stop-opacity:1; stop-color:#DBD4D4"/>
   <stop offset="0.780392" style="stop-opacity:1; stop-color:#403838"/>
   <stop offset="1" style="stop-opacity:1; stop-color:#BDB3B3"/>
  </linearGradient><linearGradient gradientUnits="userSpaceOnUse" id="BraceletSilver-Bigid696new" x1="19184.2" x2="17086.5" xlink:href="#BraceletSilver-Bigid670new" y1="19753" y2="20731.1">
  </linearGradient><linearGradient gradientUnits="userSpaceOnUse" id="NecklaceChainid673new" x1="13044.2" x2="14365.2" y1="20556.7" y2="16663.2">
   <stop offset="0" style="stop-opacity:1; stop-color:#CC9933"/>
   <stop offset="0.109804" style="stop-opacity:1; stop-color:#FFF98F"/>
   <stop offset="0.25098" style="stop-opacity:1; stop-color:#FFFFFC"/>
   <stop offset="0.478431" style="stop-opacity:1; stop-color:#FFF982"/>
   <stop offset="0.811765" style="stop-opacity:1; stop-color:#643200"/>
   <stop offset="1" style="stop-opacity:1; stop-color:#CC9933"/>
  </linearGradient><linearGradient gradientUnits="userSpaceOnUse" id="HatBaseballWhite-Bigid238" x1="7772.37" x2="19532.9" xlink:href="#HatBaseballWhite-Bigid223" y1="10033.9" y2="7473.47">
  </linearGradient><linearGradient gradientUnits="userSpaceOnUse" id="HatBaseballWhite-Bigid207" x1="12754.7" x2="14201.6" xlink:href="#HatBaseballWhite-Bigid150" y1="5126.55" y2="5046.13">
  </linearGradient><linearGradient gradientUnits="userSpaceOnUse" id="RightLeg-Bear3id150" x1="15526.7" x2="15526.7" y1="24311.8" y2="20742.8">
   <stop offset="0" style="stop-opacity:1; stop-color:#ffffff"/>
   <stop offset="0.278431" style="stop-opacity:1; stop-color:#ffffff"/>
   <stop offset="1" style="stop-opacity:1; stop-color:#fefef4"/>
  </linearGradient><linearGradient gradientUnits="userSpaceOnUse" id="LeftLeg-Bear3id150" x1="15526.7" x2="15526.7" y1="24311.8" y2="20742.8">
   <stop offset="0" style="stop-opacity:1; stop-color:#ffffff"/>
   <stop offset="0.278431" style="stop-opacity:1; stop-color:#ffffff"/>
   <stop offset="1" style="stop-opacity:1; stop-color:#fefef4"/>
  </linearGradient><linearGradient gradientUnits="userSpaceOnUse" id="RightHand-Bear0id75" x1="17042.3" x2="17994.1" y1="17293.3" y2="21110.7">
   <stop offset="0" style="stop-opacity:1; stop-color:#d9d9c5"/>
   <stop offset="0.0784314" style="stop-opacity:1; stop-color:#d9d9c5"/>
   <stop offset="0.768627" style="stop-opacity:1; stop-color:#fefef4"/>
   <stop offset="1" style="stop-opacity:1; stop-color:#fefef4"/>
  </linearGradient><linearGradient gradientUnits="userSpaceOnUse" id="LeftHand-Bear0id75" x1="17042.3" x2="17994.1" y1="17293.3" y2="21110.7">
   <stop offset="0" style="stop-opacity:1; stop-color:#d9d9c5"/>
   <stop offset="0.0784314" style="stop-opacity:1; stop-color:#d9d9c5"/>
   <stop offset="0.768627" style="stop-opacity:1; stop-color:#fefef4"/>
   <stop offset="1" style="stop-opacity:1; stop-color:#fefef4"/>
  </linearGradient><linearGradient gradientUnits="userSpaceOnUse" id="LeftPaw-Bear3id436" x1="18612.4" x2="18103.5" y1="20111.3" y2="22152.3">
   <stop offset="0" style="stop-opacity:1; stop-color:#ba8972"/>
   <stop offset="0.211765" style="stop-opacity:1; stop-color:#ba8972"/>
   <stop offset="1" style="stop-opacity:1; stop-color:#95634c"/>
  </linearGradient><linearGradient gradientUnits="userSpaceOnUse" id="Body-Bear2id310" x1="13653.8" x2="13653.8" y1="17946" y2="23169.7">
   <stop offset="0" style="stop-opacity:1; stop-color:#f2f2e4"/>
   <stop offset="0.478431" style="stop-opacity:1; stop-color:#fffffd"/>
   <stop offset="1" style="stop-opacity:1; stop-color:#fffffd"/>
  </linearGradient><linearGradient gradientUnits="userSpaceOnUse" id="Head-Bear4id567" x1="12448.6" x2="14915.2" y1="11514.7" y2="11514.7">
   <stop offset="0" style="stop-opacity:1; stop-color:#fefef4"/>
   <stop offset="1" style="stop-opacity:1; stop-color:#ffffff"/>
  </linearGradient><linearGradient gradientUnits="userSpaceOnUse" id="Head-Bear4id133" x1="13681.9" x2="13681.9" y1="17844" y2="15520.7">
   <stop offset="0" style="stop-opacity:1; stop-color:#f2f2e4"/>
   <stop offset="1" style="stop-opacity:1; stop-color:#fffffd"/>
  </linearGradient><linearGradient gradientUnits="userSpaceOnUse" id="Eyes-Bear6id27" x1="16937.6" x2="16937.6" y1="14961.3" y2="11448.6">
   <stop offset="0" style="stop-opacity:1; stop-color:#804d00"/>
   <stop offset="1" style="stop-opacity:1; stop-color:black"/>
  </linearGradient><radialGradient cx="49.9999%" cy="50.0002%" fx="49.9999%" fy="50.0002%" gradientUnits="objectBoundingBox" id="Eyes-Bear6id1039" r="50.0001%">
   <stop offset="0" style="stop-opacity:1; stop-color:#ffad31"/>
   <stop offset="1" style="stop-opacity:1; stop-color:#804d00"/>
  </radialGradient><linearGradient gradientUnits="userSpaceOnUse" id="Eyes-Bear6id384" x1="16417.8" x2="16417.8" y1="11784.3" y2="14068.5">
   <stop offset="0" style="stop-opacity:1; stop-color:black"/>
   <stop offset="0.45" style="stop-opacity:1; stop-color:black"/>
   <stop offset="1" style="stop-opacity:1; stop-color:#663d00"/>
  </linearGradient><linearGradient gradientUnits="userSpaceOnUse" id="HatBaseballWhite-Bigid223" x1="7866.29" x2="19463.6" y1="12137.3" y2="10981.8">
   <stop offset="0" style="stop-opacity:1; stop-color:#CFCFCF"/>
   <stop offset="0.301961" style="stop-opacity:1; stop-color:#E3E3E3"/>
   <stop offset="0.709804" style="stop-opacity:1; stop-color:white"/>
   <stop offset="1" style="stop-opacity:1; stop-color:#F2F2F2"/>
  </linearGradient><linearGradient gradientUnits="userSpaceOnUse" id="HatBaseballWhite-Bigid150" x1="12797.5" x2="14175.5" y1="5819.27" y2="5742.69">
   <stop offset="0" style="stop-opacity:1; stop-color:#D6D6D6"/>
   <stop offset="0.588235" style="stop-opacity:1; stop-color:#FCFCFC"/>
   <stop offset="1" style="stop-opacity:1; stop-color:#E1E1E1"/>
  </linearGradient></defs><g id="HairBack-Bear0">
 <animateTransform additive="sum" attributeName="transform" dur="10" repeatCount="indefinite" type="translate" values="0;0 200;0;0 200;0;0 200;0;0 200;0"/>
  <metadata id="CorelCorpID_216Corel-Layer"/>
  <rect class="HairBack-Bear0fil22" height="998" width="1061" x="13124" y="20899"/>
 </g><g id="Tail-Bear0">
  <metadata id="CorelCorpID_219Corel-Layer"/>
  <rect class="Tail-Bear0fil22" height="1129" width="1129" x="13089" y="21055"/>
 </g><g id="RightFoot-Bear0">
  <metadata id="CorelCorpID_220Corel-Layer"/>
  <path class="RightFoot-Bear0fil35" d="M17045 25080c-66,213 -260,328 -578,232 -82,82 -466,170 -720,2 -241,-159 -607,-457 -720,-564 -96,-91 -335,-220 -291,-565 777,87 1299,173 1927,-306 18,146 320,205 479,267 233,89 426,392 211,604 42,135 -122,330 -308,330z" style="fill:#c5e51d"/>
  <path class="RightFoot-Bear0fil14" d="M16490 25327c320,133 480,-45 565,-254 204,-15 307,-138 301,-308 28,-45 52,-79 86,-174 31,-139 -54,-325 -125,-351 31,144 -137,125 -191,129 232,292 -30,451 -178,321 -4,299 -321,400 -555,107 -111,282 -514,451 -1612,-364 1095,1261 1346,941 1709,894z" style="fill:#14dbd5"/>
  <path class="RightFoot-Bear0fil32" d="M16963 25089c-68,167 -221,202 -384,173 53,-171 15,-486 -309,-550 160,131 191,345 122,563 -153,91 -454,76 -604,-23 -105,-69 -235,-166 -357,-262 -142,-112 -270,-229 -408,-342 -98,-80 -205,-212 -213,-454 5,-41 -24,-78 -65,-83 -41,-5 -84,23 -83,65 7,344 143,486 266,587 138,114 267,232 411,345 124,97 257,197 366,269 205,135 567,145 776,17 252,66 509,18 618,-243 169,-27 352,-197 334,-378 149,-177 94,-405 -60,-562 -136,-138 -294,-154 -454,-250 -66,-40 -120,-83 -125,-121l-137 73c20,64 119,137 185,176 138,83 316,117 424,227 53,54 98,127 105,203 -87,-137 -253,-261 -447,-225 213,57 340,284 356,532 -17,67 -81,130 -143,158 -9,-180 -141,-449 -459,-414 197,78 290,282 285,519z" style="fill:#276722"/>
 </g><g id="LeftFoot-Bear0">
  <metadata id="CorelCorpID_229Corel-Layer"/>
  <path class="LeftFoot-Bear0fil35" d="M10263 25080c66,213 260,328 578,232 82,82 466,170 720,2 241,-159 607,-457 719,-564 96,-91 336,-220 292,-565 -777,87 -1299,173 -1927,-306 -19,146 -321,205 -479,267 -233,89 -427,392 -211,604 -42,135 121,330 308,330z" style="fill:#28ca71"/>
  <path class="LeftFoot-Bear0fil14" d="M10817 25327c-320,133 -479,-45 -565,-254 -203,-15 -307,-138 -301,-308 -27,-45 -52,-79 -85,-174 -32,-139 54,-325 124,-351 -30,144 137,125 192,129 -233,292 29,451 178,321 4,299 321,400 554,107 112,282 515,451 1613,-364 -1095,1261 -1346,941 -1710,894z" style="fill:#622edd"/>
  <path class="LeftFoot-Bear0fil32" d="M10345 25089c68,167 220,202 384,173 -54,-171 -16,-486 309,-550 -160,131 -191,345 -122,563 153,91 454,76 604,-23 104,-69 234,-166 356,-262 143,-112 271,-229 409,-342 97,-80 205,-212 213,-454 -5,-41 24,-78 65,-83 41,-5 84,23 83,65 -7,344 -143,486 -266,587 -139,114 -268,232 -411,345 -124,97 -258,197 -367,269 -205,135 -567,145 -776,17 -251,66 -509,18 -617,-243 -169,-27 -352,-197 -335,-378 -149,-177 -93,-405 61,-562 136,-138 294,-154 454,-250 66,-40 120,-83 125,-121l137 73c-20,64 -120,137 -185,176 -139,83 -316,117 -425,227 -53,54 -97,127 -104,203 86,-137 252,-261 447,-225 -213,57 -341,284 -357,532 18,67 82,130 144,158 8,-180 141,-449 459,-414 -197,78 -291,282 -285,519z" style="fill:#ba8b15"/>
 </g><g id="RightLeg-Bear3">
  <metadata id="CorelCorpID_226Corel-Layer"/>
  <path class="RightLeg-Bear3fil437" d="M13654 20747c651,0 2263,-52 2620,230 303,239 971,977 969,1838 -2,444 -257,819 -524,1020 -578,425 -1151,626 -1983,350 7,-583 -643,-742 -1082,-749l0 -2689z" style="fill:#8608f3"/>
  <path class="RightLeg-Bear3fil26" d="M15314 24306c-152,-11 -311,-41 -482,-91 -33,-21 -66,-45 -97,-73 -17,-385 -332,-574 -667,-655 -23,-24 -45,-51 -66,-81 749,105 1513,-521 1978,-35 323,338 41,849 -608,929 -20,3 -40,5 -58,6z" style="fill:#96869d"/>
  <path class="RightLeg-Bear3fil14" d="M16988 23561c110,-131 245,-442 245,-600 2,-776 -323,-1481 -652,-1782 -248,370 -56,940 55,979 367,105 445,994 352,1403z" style="fill:#baa786"/>
  <path class="RightLeg-Bear3fil32" d="M16690 23782c-238,187 -417,303 -711,449 260,-35 573,-178 785,-337 332,-249 552,-662 553,-1079 1,-360 -110,-698 -263,-990 -227,-429 -547,-760 -734,-907 -32,-26 -79,-20 -105,12 -25,33 -20,80 13,105 175,139 478,451 693,860 144,273 248,587 247,920 -1,358 -198,746 -478,967zm-1745 794c71,68 -33,176 -104,108 -135,-130 -182,-317 -180,-500 3,-218 -99,-369 -246,-471 -213,-147 -519,-198 -761,-203l0 -149 1 0c265,5 604,62 845,229 186,129 314,320 310,596 -1,139 31,290 135,390z" style="fill:#eaaa39"/>
 </g><g id="LeftLeg-Bear3">
  <metadata id="CorelCorpID_235Corel-Layer"/>
  <path class="LeftLeg-Bear3fil447" d="M13654 20747c-651,0 -2264,-52 -2620,230 -303,239 -971,977 -969,1838 1,444 256,819 524,1020 578,425 1150,626 1983,350 -7,-583 642,-742 1082,-749l0 -2689z" style="fill:#2e5fc0"/>
  <path class="LeftLeg-Bear3fil26" d="M11994 24306c151,-11 311,-41 481,-91 34,-21 66,-45 98,-73 17,-385 332,-574 667,-655 23,-24 45,-51 66,-81 -749,105 -1513,-521 -1978,-35 -323,338 -41,849 608,929 20,3 39,5 58,6z" style="fill:#66b19d"/>
  <path class="LeftLeg-Bear3fil14" d="M10320 23561c-110,-131 -245,-442 -245,-600 -3,-776 323,-1481 652,-1782 248,370 56,940 -56,979 -366,105 -444,994 -351,1403z" style="fill:#980b40"/>
  <path class="LeftLeg-Bear3fil32" d="M10618 23782c238,187 417,303 711,449 -260,-35 -573,-178 -785,-337 -332,-249 -552,-662 -554,-1079 -1,-360 110,-698 264,-990 226,-429 547,-760 734,-907 32,-26 79,-20 104,12 26,33 20,80 -12,105 -175,139 -478,451 -694,860 -143,273 -247,587 -246,920 1,358 198,746 478,967zm1745 794c-71,68 32,176 103,108 135,-130 183,-317 181,-500 -3,-218 98,-369 246,-471 212,-147 519,-198 761,-203l0 -149 -1 0c-265,5 -604,62 -845,229 -186,129 -314,320 -311,596 2,139 -31,290 -134,390z" style="fill:#04373f"/>
 </g><g id="RightHand-Bear0">
 <animateTransform additive="sum" attributeName="transform" dur="10" repeatCount="indefinite" type="translate" values="0;0 200;0;0 200;0;0 200;0;0 200;0"/>
  <metadata id="CorelCorpID_238Corel-Layer"/>
  <path class="RightHand-Bear0fil452" d="M16111 17210c1487,-179 2823,1880 3151,3021 160,558 -1806,1220 -1964,882 -68,-147 -295,-477 -571,-705 -149,-820 -321,-1468 -1092,-3106 169,-47 290,-69 476,-92z" style="fill:#d1cdfb"/>
  <path class="RightHand-Bear0fil22 RightHand-Bear0str0" d="M16111 17205c1487,-179 2823,1880 3151,3021 160,558 -1806,1220 -1964,882 -68,-147 -295,-477 -571,-705 -149,-820 -321,-1468 -1092,-3106 169,-47 290,-69 476,-92z" style="fill:#ad7543"/>
  <path class="RightHand-Bear0fil14" d="M17217 20971c-131,-206 -302,-406 -490,-563 -50,-606 -203,-1164 -276,-1762 236,212 930,1618 766,2325z" style="fill:#aa6cc0"/>
 </g><g id="LeftHand-Bear0">
 <animateTransform additive="sum" attributeName="transform" dur="10" repeatCount="indefinite" type="translate" values="0;0 200;0;0 200;0;0 200;0;0 200;0"/>
  <metadata id="CorelCorpID_247Corel-Layer"/>
  <path class="LeftHand-Bear0fil465" d="M11197 17210c-1488,-179 -2824,1880 -3151,3021 -160,558 1806,1220 1963,882 69,-147 296,-477 571,-705 149,-820 322,-1468 1092,-3106 -168,-47 -290,-69 -475,-92z" style="fill:#f0ace6"/>
  <path class="LeftHand-Bear0fil22 LeftHand-Bear0str0" d="M11197 17205c-1488,-179 -2824,1880 -3151,3021 -160,558 1806,1220 1963,882 69,-147 296,-477 571,-705 149,-820 322,-1468 1092,-3106 -168,-47 -290,-69 -475,-92z" style="fill:#0dbe39"/>
  <path class="LeftHand-Bear0fil14" d="M10090 20971c132,-206 303,-406 490,-563 51,-606 203,-1164 276,-1762 -235,212 -929,1618 -766,2325z" style="fill:#a5ac24"/>
 </g><g id="Body-Bear2">
 <animateTransform additive="sum" attributeName="transform" dur="10" repeatCount="indefinite" type="translate" values="0;0 200;0;0 200;0;0 200;0;0 200;0"/>
  <metadata id="CorelCorpID_257Corel-Layer"/>
  <path class="Body-Bear2fil478" d="M13654 23251c1692,-3 2768,-207 3233,-1826 302,-1052 -330,-2764 -1019,-3983 -551,110 -1409,139 -2214,150 -806,-11 -1663,-40 -2215,-150 -688,1219 -1321,2931 -1018,3983 465,1619 1541,1823 3233,1826z" style="fill:#af9d89"/>
  <path class="Body-Bear2fil479" d="M10345 20913c6,183 31,355 76,512 465,1619 1541,1923 3233,1926 1692,-3 2768,-307 3233,-1926 45,-157 69,-329 76,-512 -25,-106 -51,-212 -78,-316 -634,1002 -759,-1957 -3231,-1986 -2472,29 -2598,2988 -3231,1986 -27,104 -54,210 -78,316z" style="fill:#5aca2a"/>
  <path class="Body-Bear2fil14" d="M11416 22901c-455,-288 -787,-750 -995,-1476 -211,-735 34,-1792 435,-2779 -591,2230 70,3628 560,4255z" style="fill:#82b24c"/>
  <path class="Body-Bear2fil32" d="M11416 22901c-539,-241 -960,-968 -1067,-1455 -108,-487 -59,-1102 131,-1659 -71,577 -87,1191 13,1618 104,444 495,1184 923,1496z" style="fill:#63ad56"/>
  <path class="Body-Bear2fil22" d="M12621 22856c-1016,-156 -1749,-629 -1932,-1889 -2,-17 -5,-34 -7,-51l0 -4c-2,-16 -4,-32 -5,-48l-1 -7c-1,-15 -3,-31 -4,-46l0 -8c-2,-15 -3,-30 -3,-46l-1 -8c-1,-16 -1,-31 -2,-47l0 -6c-1,-17 -1,-34 -1,-51l0 -5c0,-17 0,-34 0,-50l0 -8c0,-15 0,-31 1,-47l0 -9c1,-15 1,-30 2,-46l0 -11c1,-14 2,-29 3,-44l1 -12c1,-15 2,-29 3,-44l1 -13c1,-15 3,-31 4,-46l2 -14c1,-15 3,-30 5,-44l1 -15c2,-14 4,-27 5,-41l3 -18c2,-13 3,-26 5,-39l3 -18c2,-12 4,-25 6,-38 1,-7 2,-14 4,-22 2,-12 4,-25 6,-37l4 -23c2,-11 4,-23 6,-34 2,-9 4,-18 6,-28 2,-10 4,-21 6,-32 2,-9 4,-18 6,-27 2,-11 4,-21 7,-32l6 -27c2,-11 4,-21 7,-31 3,-13 6,-25 9,-37l5 -21c3,-14 6,-27 9,-40l5 -18c4,-14 7,-28 11,-42l4 -15c4,-15 8,-30 12,-46l3 -8c4,-16 9,-33 14,-49l1 -7m15 -50l9 -28c5,-17 10,-34 15,-52l2 -5c6,-17 11,-34 17,-51l1 -6c6,-18 12,-36 18,-54l0 -1c-142,1971 409,3124 1703,3596" style="fill:#86ce02"/>
  <path class="Body-Bear2fil22" d="M12621 22856c-1016,-156 -1749,-629 -1932,-1889 -2,-17 -5,-34 -7,-51l0 -4c-2,-16 -4,-32 -5,-48l-1 -7c-1,-15 -3,-31 -4,-46l0 -8c-2,-15 -3,-30 -3,-46l-1 -8c-1,-16 -1,-31 -2,-47l0 -6c-1,-17 -1,-34 -1,-51l0 -5c0,-17 0,-34 0,-50l0 -8c0,-15 0,-31 1,-47l0 -9c1,-15 1,-30 2,-46l0 -11c1,-14 2,-29 3,-44l1 -12c1,-15 2,-29 3,-44l1 -13c1,-15 3,-31 4,-46l2 -14c1,-15 3,-30 5,-44l1 -15c2,-14 4,-27 5,-41l3 -18c2,-13 3,-26 5,-39l3 -18c2,-12 4,-25 6,-38 1,-7 2,-14 4,-22 2,-12 4,-25 6,-37l4 -23c2,-11 4,-23 6,-34 2,-9 4,-18 6,-28 2,-10 4,-21 6,-32 2,-9 4,-18 6,-27 2,-11 4,-21 7,-32l6 -27c2,-11 4,-21 7,-31 3,-13 6,-25 9,-37l5 -21c3,-14 6,-27 9,-40l5 -18c4,-14 7,-28 11,-42l4 -15c4,-15 8,-30 12,-46l3 -8c4,-16 9,-33 14,-49l1 -7m15 -50l9 -28c5,-17 10,-34 15,-52l2 -5c6,-17 11,-34 17,-51l1 -6c6,-18 12,-36 18,-54l0 -1c-142,1971 409,3124 1703,3596" style="fill:#5c052d"/>
  <path class="Body-Bear2fil14" d="M15892 22901c455,-288 786,-750 995,-1476 211,-735 -34,-1792 -436,-2779 592,2230 -69,3628 -559,4255z" style="fill:#5af8a1"/>
  <path class="Body-Bear2fil32" d="M15892 22901c539,-241 960,-968 1067,-1455 107,-487 59,-1102 -132,-1659 72,577 87,1191 -12,1618 -104,444 -496,1184 -923,1496z" style="fill:#c25658"/>
 </g><g id="RightPaw-Bear3">
 <animateTransform additive="sum" attributeName="transform" dur="10" repeatCount="indefinite" type="translate" values="0;0 200;0;0 200;0;0 200;0;0 200;0"/>
  <metadata id="CorelCorpID_245Corel-Layer"/>
  <path class="RightPaw-Bear3fil460" d="M19212 20074c101,319 446,1074 -76,1413 -8,341 -321,891 -722,638 -151,80 -387,68 -509,-83 -446,-4 -409,-537 -607,-929 295,-982 1641,-506 1914,-1039z" style="fill:#1e6dbe"/>
  <path class="RightPaw-Bear3fil32" d="M19190 20003c89,-30 112,105 135,170 130,372 354,1015 -116,1354 -11,143 -66,311 -153,448 -99,155 -252,294 -446,289 -65,-1 -132,-19 -200,-55 -176,73 -404,47 -540,-94 -338,-20 -419,-297 -509,-605 -35,-123 -73,-250 -129,-363 -19,-37 -94,-221 -57,-240 16,-8 67,4 101,36 47,44 78,115 89,136 63,125 102,260 140,389 60,206 115,395 261,468 -29,-101 -22,-219 84,-284 -76,237 182,489 434,440 -65,-93 -101,-219 -10,-319 -6,164 172,338 339,342 137,3 248,-112 316,-220 55,-87 95,-188 116,-282 -169,50 -397,13 -448,-183 104,74 378,78 488,1 414,-287 232,-827 98,-1209 -22,-63 -77,-193 7,-219z" style="fill:#41f6a9"/>
  <path class="RightPaw-Bear3fil458" d="M18721 21392c-70,15 -168,-109 -207,-290 -38,-180 -13,-339 57,-354 70,-15 188,120 226,300 39,181 -7,329 -76,344z" style="fill:#66a994"/>
  <path class="RightPaw-Bear3fil458" d="M18493 21944c-70,15 -168,-109 -207,-289 -38,-181 -13,-340 57,-355 70,-14 188,120 226,301 39,180 -7,328 -76,343z" style="fill:#7f194e"/>
  <path class="RightPaw-Bear3fil458" d="M18061 21880c-58,7 -128,-100 -147,-248 -19,-148 13,-275 70,-282 57,-7 143,110 162,258 19,148 -28,265 -85,272z" style="fill:#c039ae"/>
  <path class="RightPaw-Bear3fil458" d="M17668 21710c-41,0 -83,-82 -84,-190 -2,-107 31,-195 72,-195 42,-1 94,90 95,197 2,108 -41,187 -83,188z" style="fill:#d532b9"/>
  <path class="RightPaw-Bear3fil458" d="M18328 20905c28,402 -757,372 -764,113 -13,-411 729,-626 764,-113z" style="fill:#ce1701"/>
 </g><g id="LeftPaw-Bear3">
 <animateTransform additive="sum" attributeName="transform" dur="10" repeatCount="indefinite" type="translate" values="0;0 200;0;0 200;0;0 200;0;0 200;0"/>
  <metadata id="CorelCorpID_254Corel-Layer"/>
  <path class="LeftPaw-Bear3fil471" d="M8095 20074c-101,319 -445,1074 76,1413 8,341 322,891 722,638 152,80 388,68 510,-83 446,-4 408,-537 606,-929 -294,-982 -1641,-506 -1914,-1039z" style="fill:#932007"/>
  <path class="LeftPaw-Bear3fil32" d="M8118 20003c-89,-30 -112,105 -135,170 -130,372 -355,1015 116,1354 11,143 66,311 153,448 98,155 252,294 446,289 65,-1 131,-19 199,-55 176,73 405,47 540,-94 339,-20 419,-297 509,-605 36,-123 73,-250 130,-363 19,-37 93,-221 56,-240 -15,-8 -66,4 -100,36 -47,44 -79,115 -89,136 -63,125 -103,260 -140,389 -60,206 -116,395 -261,468 29,-101 22,-219 -84,-284 76,237 -182,489 -434,440 64,-93 101,-219 9,-319 6,164 -171,338 -338,342 -138,3 -248,-112 -316,-220 -56,-87 -96,-188 -117,-282 170,50 397,13 449,-183 -104,74 -378,78 -489,1 -414,-287 -231,-827 -98,-1209 22,-63 78,-193 -6,-219z" style="fill:#1a644a"/>
  <path class="LeftPaw-Bear3fil458" d="M8587 21392c70,15 168,-109 206,-290 39,-180 14,-339 -56,-354 -70,-15 -188,120 -227,300 -38,181 7,329 77,344z" style="fill:#d00672"/>
  <path class="LeftPaw-Bear3fil458" d="M8815 21944c70,15 168,-109 206,-289 39,-181 14,-340 -56,-355 -70,-14 -188,120 -227,301 -38,180 7,328 77,343z" style="fill:#28967d"/>
  <path class="LeftPaw-Bear3fil458" d="M9247 21880c57,7 128,-100 147,-248 18,-148 -13,-275 -70,-282 -58,-7 -144,110 -163,258 -18,148 29,265 86,272z" style="fill:#1bbdfe"/>
  <path class="LeftPaw-Bear3fil458" d="M9640 21710c41,0 83,-82 84,-190 1,-107 -31,-195 -73,-195 -41,-1 -94,90 -95,197 -1,108 42,187 84,188z" style="fill:#56ed48"/>
  <path class="LeftPaw-Bear3fil458" d="M8979 20905c-27,402 757,372 765,113 12,-411 -729,-626 -765,-113z" style="fill:#05a438"/>
 </g><g id="NecklaceChain">
 <animateTransform additive="sum" attributeName="transform" dur="10" repeatCount="indefinite" type="translate" values="0;0 200;0;0 200;0;0 200;0;0 200;0"/>
  <metadata id="CorelCorpID_39Corel-Layer"/>
  <path class="NecklaceChainfil223new NecklaceChainstr0new" d="M16804 16967c28,24 57,50 60,83 2,47 -30,107 -75,125 5,4 9,8 13,13 31,35 61,100 80,143 82,-76 201,-238 183,-364l-261 0zm-271 210c35,83 68,168 99,254 26,32 81,70 79,115 -1,47 -39,101 -84,114 4,4 8,9 12,14 27,37 50,102 65,146 94,-68 236,-226 212,-353 -22,-69 -75,-200 -121,-253 -50,-50 -215,-119 -262,-37zm-161 457c28,85 53,170 76,256 23,34 74,77 69,121 -6,45 -49,94 -95,101 4,4 8,9 11,15 24,39 41,105 52,150 98,-56 254,-194 242,-321 -17,-70 -58,-202 -98,-258 -45,-52 -203,-138 -257,-64zm-199 424c20,85 37,171 52,257 20,35 66,83 57,126 -10,43 -57,85 -102,86 3,5 6,10 9,16 19,41 30,107 37,152 101,-42 269,-159 269,-284 -10,-70 -39,-203 -74,-262 -39,-55 -187,-157 -248,-91zm-234 387c10,73 18,145 24,218 0,14 0,28 0,42 15,41 54,94 36,139 -17,45 -73,88 -123,87 3,5 5,11 7,17 12,46 10,119 8,166 123,-35 275,-140 327,-260 3,-7 5,-20 5,-27 -3,-70 -19,-202 -48,-264 -34,-59 -172,-173 -236,-118zm-297 381c-4,91 -13,183 -24,274 10,42 41,99 18,141 -22,41 -83,74 -130,65 2,6 3,12 4,18 6,47 -5,117 -14,163 120,-19 325,-100 364,-231 11,-73 23,-217 5,-287 -25,-67 -145,-198 -223,-143zm-350 340c-16,88 -36,176 -59,263 3,41 26,104 -2,140 -28,37 -92,59 -136,42 1,6 1,12 1,19 -1,46 -22,113 -38,157 120,1 332,-44 388,-166 22,-71 53,-209 44,-280 -15,-67 -115,-216 -198,-175zm-384 271c-6,19 -13,38 -20,57 -26,66 -54,130 -85,194 -4,43 7,108 -29,140 -35,31 -104,43 -146,19 -1,6 -1,12 -3,18 -10,47 -46,109 -71,150 123,22 348,12 429,-102 24,-47 44,-94 62,-143 13,-40 27,-85 29,-127 -5,-71 -83,-230 -166,-206zm-435 205c-45,79 -96,154 -150,226 -12,42 -14,107 -55,131 -41,25 -111,22 -147,-10 -2,6 -4,12 -6,18 -20,43 -68,97 -101,132 116,46 340,81 442,-16 47,-58 127,-177 144,-248 10,-73 -38,-242 -127,-233zm-463 116c-60,68 -126,131 -194,191 -21,38 -37,101 -83,117 -17,5 -31,6 -49,5 -38,-4 -71,-16 -96,-46 -2,5 -6,11 -9,16 -29,38 -88,81 -128,108 75,52 144,79 233,95 61,10 157,18 210,-18 59,-48 162,-148 194,-215 24,-69 11,-245 -78,-253zm-482 18c-73,53 -151,102 -230,146 -28,33 -56,92 -104,97 -47,6 -110,-24 -130,-69 -4,5 -8,10 -13,14 -35,32 -101,62 -145,80 88,90 278,212 411,165 67,-34 189,-111 234,-169 39,-63 63,-237 -23,-264zm-471 -82c-82,38 -167,70 -254,97 -34,27 -73,79 -121,75 -47,-4 -103,-46 -114,-94 -5,4 -10,8 -15,11 -41,24 -112,41 -159,51 69,104 231,261 370,242 72,-20 206,-71 261,-119 50,-53 109,-219 32,-263zm-447 -174c-55,12 -108,22 -163,31 -35,6 -69,11 -103,17 -37,19 -85,64 -130,53 -45,-12 -90,-62 -91,-110 -6,4 -11,6 -17,9 -44,17 -114,23 -161,25 46,110 170,290 304,293 13,-1 25,-3 37,-4 75,-10 175,-28 242,-63 60,-42 151,-193 82,-251zm-401 -249c-89,6 -179,7 -269,4 -41,13 -96,49 -138,30 -44,-19 -82,-77 -77,-125 -5,3 -11,5 -17,6 -47,10 -118,4 -166,-2 31,117 129,317 262,344 73,5 214,2 281,-24 61,-30 183,-163 124,-233zm-363 -317c-91,-9 -182,-24 -272,-42 -43,7 -103,34 -143,8 -41,-26 -72,-90 -61,-138 -6,2 -12,3 -18,3 -32,1 -65,-5 -96,-11 -3,1 -58,-9 -65,-10 0,19 2,37 4,55 25,104 98,286 208,325 73,17 215,37 285,23 68,-21 207,-132 158,-213zm-326 -381c-84,-15 -168,-35 -250,-58 -40,4 -104,25 -138,-1 -35,-27 -52,-88 -34,-130 -6,1 -12,2 -18,2 -46,0 -111,-20 -155,-33 -4,108 29,313 142,364 68,20 140,35 211,41 3,3 49,5 57,5 72,-10 218,-99 187,-187 -1,-1 -1,-2 -2,-3zm-246 -372c-83,-27 -165,-58 -246,-91 -40,-2 -106,12 -137,-19 -33,-31 -45,-95 -23,-136 -6,1 -12,0 -18,0 -46,-6 -109,-33 -151,-52 -14,110 -1,321 107,387 64,29 192,74 261,74 66,-5 232,-78 207,-163zm-212 -412c-81,-37 -160,-79 -238,-122 -41,-6 -107,1 -136,-34 -29,-36 -35,-103 -9,-142 -7,0 -13,-1 -19,-3 -45,-11 -106,-45 -146,-70 -24,112 -31,328 71,407 62,37 185,98 254,107 68,2 240,-53 223,-143zm-175 -446c-77,-47 -152,-98 -226,-151 -41,-11 -107,-11 -133,-50 -25,-40 -26,-108 3,-146 -6,-1 -12,-3 -18,-5 -15,-5 -31,-14 -48,-24l-107 0c-24,118 -28,284 49,360 58,44 177,120 245,137 69,10 244,-28 235,-121zm5722 111c-31,-85 -64,-168 -98,-251 -44,-48 -43,-171 -5,-236l-223 0c-23,64 -33,130 -20,184 24,65 107,211 152,261 35,34 188,127 194,42zm-186 457c-23,-86 -48,-170 -75,-254 -45,-59 -23,-207 37,-250 -38,-52 -73,-117 -102,-175 -95,64 -194,230 -176,348 19,66 87,215 128,269 30,34 175,144 188,62zm-224 421c-15,-85 -32,-170 -52,-255 -39,-61 -5,-201 58,-236 -32,-55 -61,-121 -85,-181 -99,51 -212,199 -204,315 13,67 68,219 103,275 25,36 159,161 180,82zm-266 389c0,-26 0,-54 -1,-80 -5,-61 -12,-120 -21,-181 -32,-62 13,-195 79,-221 -27,-57 -50,-124 -69,-184 -100,36 -225,165 -228,278 6,48 22,108 34,155 9,43 18,92 35,133 22,46 137,182 171,100zm-346 390c11,-90 19,-181 24,-271 -22,-72 53,-209 123,-233 -12,-43 -21,-90 -28,-135 -5,-21 -10,-41 -15,-62 -6,1 -46,10 -49,14 -85,46 -213,163 -233,263 -4,78 5,225 23,301 16,45 111,198 155,123zm-386 324c23,-86 43,-173 58,-261 -11,-72 76,-193 148,-204 -10,-64 -13,-137 -15,-202 -109,15 -270,115 -308,224 -14,76 -23,221 -16,296 9,45 80,213 133,147zm-431 254c37,-76 69,-150 99,-230 1,-1 6,-16 7,-19 -1,-71 98,-175 170,-174 -1,-64 5,-134 12,-198 -112,-5 -259,61 -322,156 -1,2 -3,5 -4,8 -26,72 -62,215 -68,290 0,48 40,224 106,167zm-479 174c54,-72 104,-147 149,-224 14,-70 135,-155 206,-142 11,-64 29,-132 47,-194 -105,-22 -284,16 -355,104 -37,66 -98,200 -119,271 -8,46 -4,227 72,185zm-506 73c68,-58 133,-121 193,-188 28,-65 162,-125 229,-98 22,-60 53,-123 82,-181 -98,-42 -277,-40 -363,32 -50,56 -139,176 -174,240 -18,44 -51,222 33,195zm-514 -33c78,-43 154,-91 228,-143 42,-53 120,-69 185,-67 23,2 42,6 62,18 35,-54 78,-109 118,-160 -55,-43 -112,-56 -180,-64 -51,-4 -140,-7 -186,20 -60,45 -171,143 -218,199 -27,39 -96,206 -9,197zm-491 -135c86,-27 170,-59 252,-95 51,-50 198,-50 248,2 45,-46 99,-91 148,-132 -72,-78 -237,-149 -345,-118 -68,32 -196,105 -254,151 -34,33 -135,183 -49,192zm-454 -227c47,-7 93,-15 140,-24 41,-7 82,-15 123,-24 61,-38 207,-8 246,53 53,-36 115,-69 172,-100 -56,-93 -207,-194 -320,-186 -12,2 -84,22 -90,25 -58,21 -133,46 -187,76 -38,26 -165,157 -84,180zm-400 -296c89,3 179,2 268,-3 65,-28 201,24 228,91 58,-26 124,-48 184,-68 -36,-102 -164,-226 -276,-237 -77,5 -222,29 -293,53 -44,19 -189,127 -111,164zm-362 -365c89,18 180,32 270,42 71,-16 202,61 219,132 62,-15 132,-25 197,-33 -23,-110 -137,-259 -250,-290 -78,-9 -228,-10 -303,2 -49,13 -206,97 -133,147zm-298 -395c82,22 165,42 249,58 17,-2 30,0 46,4 67,28 141,87 155,162 65,-5 138,-3 204,0 -7,-120 -82,-225 -168,-305 -13,-10 -28,-22 -45,-26 -75,-15 -215,-26 -290,-20 -43,8 -213,75 -151,127zm-239 -407c81,33 162,63 245,91 70,-2 173,96 168,168 63,-1 132,6 194,14 12,-108 -53,-273 -154,-326 -73,-25 -213,-54 -289,-58 -45,3 -221,52 -164,111zm-201 -443c78,43 157,84 237,121 71,8 164,121 153,193 63,7 132,23 194,39 21,-109 -30,-287 -125,-354 -61,-31 -218,-85 -285,-93 -47,-3 -225,27 -174,94zm-160 -476c73,53 148,103 225,151 71,15 153,143 135,215 63,15 131,39 191,63 32,-111 -4,-299 -93,-378 -58,-39 -210,-113 -276,-128 -49,-9 -227,3 -182,77zm202 -192c12,37 17,74 8,101 61,22 126,55 184,86 19,-50 26,-118 19,-187l-211 0z" style="fill:#29f66f"/>
  <path class="NecklaceChainfil224new" d="M16804 16967c28,24 57,50 60,83 2,47 -30,107 -75,125 5,4 9,8 13,13 31,35 61,100 80,143 82,-76 201,-238 183,-364l-261 0zm-271 210c35,83 68,168 99,254 26,32 81,70 79,115 -1,47 -39,101 -84,114 4,4 8,9 12,14 27,37 50,102 65,146 94,-68 236,-226 212,-353 -22,-69 -75,-200 -121,-253 -50,-50 -215,-119 -262,-37zm-161 457c28,85 53,170 76,256 23,34 74,77 69,121 -6,45 -49,94 -95,101 4,4 8,9 11,15 24,39 41,105 52,150 98,-56 254,-194 242,-321 -17,-70 -58,-202 -98,-258 -45,-52 -203,-138 -257,-64zm-199 424c20,85 37,171 52,257 20,35 66,83 57,126 -10,43 -57,85 -102,86 3,5 6,10 9,16 19,41 30,107 37,152 101,-42 269,-159 269,-284 -10,-70 -39,-203 -74,-262 -39,-55 -187,-157 -248,-91zm-234 387c10,73 18,145 24,218 0,14 0,28 0,42 15,41 54,94 36,139 -17,45 -73,88 -123,87 3,5 5,11 7,17 12,46 10,119 8,166 123,-35 275,-140 327,-260 3,-7 5,-20 5,-27 -3,-70 -19,-202 -48,-264 -34,-59 -172,-173 -236,-118zm-297 381c-4,91 -13,183 -24,274 10,42 41,99 18,141 -22,41 -83,74 -130,65 2,6 3,12 4,18 6,47 -5,117 -14,163 120,-19 325,-100 364,-231 11,-73 23,-217 5,-287 -25,-67 -145,-198 -223,-143zm-350 340c-16,88 -36,176 -59,263 3,41 26,104 -2,140 -28,37 -92,59 -136,42 1,6 1,12 1,19 -1,46 -22,113 -38,157 120,1 332,-44 388,-166 22,-71 53,-209 44,-280 -15,-67 -115,-216 -198,-175zm-384 271c-6,19 -13,38 -20,57 -26,66 -54,130 -85,194 -4,43 7,108 -29,140 -35,31 -104,43 -146,19 -1,6 -1,12 -3,18 -10,47 -46,109 -71,150 123,22 348,12 429,-102 24,-47 44,-94 62,-143 13,-40 27,-85 29,-127 -5,-71 -83,-230 -166,-206zm-435 205c-45,79 -96,154 -150,226 -12,42 -14,107 -55,131 -41,25 -111,22 -147,-10 -2,6 -4,12 -6,18 -20,43 -68,97 -101,132 116,46 340,81 442,-16 47,-58 127,-177 144,-248 10,-73 -38,-242 -127,-233zm-463 116c-60,68 -126,131 -194,191 -21,38 -37,101 -83,117 -17,5 -31,6 -49,5 -38,-4 -71,-16 -96,-46 -2,5 -6,11 -9,16 -29,38 -88,81 -128,108 75,52 144,79 233,95 61,10 157,18 210,-18 59,-48 162,-148 194,-215 24,-69 11,-245 -78,-253zm-482 18c-73,53 -151,102 -230,146 -28,33 -56,92 -104,97 -47,6 -110,-24 -130,-69 -4,5 -8,10 -13,14 -35,32 -101,62 -145,80 88,90 278,212 411,165 67,-34 189,-111 234,-169 39,-63 63,-237 -23,-264zm-471 -82c-82,38 -167,70 -254,97 -34,27 -73,79 -121,75 -47,-4 -103,-46 -114,-94 -5,4 -10,8 -15,11 -41,24 -112,41 -159,51 69,104 231,261 370,242 72,-20 206,-71 261,-119 50,-53 109,-219 32,-263zm-447 -174c-55,12 -108,22 -163,31 -35,6 -69,11 -103,17 -37,19 -85,64 -130,53 -45,-12 -90,-62 -91,-110 -6,4 -11,6 -17,9 -44,17 -114,23 -161,25 46,110 170,290 304,293 13,-1 25,-3 37,-4 75,-10 175,-28 242,-63 60,-42 151,-193 82,-251zm-401 -249c-89,6 -179,7 -269,4 -41,13 -96,49 -138,30 -44,-19 -82,-77 -77,-125 -5,3 -11,5 -17,6 -47,10 -118,4 -166,-2 31,117 129,317 262,344 73,5 214,2 281,-24 61,-30 183,-163 124,-233zm-363 -317c-91,-9 -182,-24 -272,-42 -43,7 -103,34 -143,8 -41,-26 -72,-90 -61,-138 -6,2 -12,3 -18,3 -32,1 -65,-5 -96,-11 -3,1 -58,-9 -65,-10 0,19 2,37 4,55 25,104 98,286 208,325 73,17 215,37 285,23 68,-21 207,-132 158,-213zm-326 -381c-84,-15 -168,-35 -250,-58 -40,4 -104,25 -138,-1 -35,-27 -52,-88 -34,-130 -6,1 -12,2 -18,2 -46,0 -111,-20 -155,-33 -4,108 29,313 142,364 68,20 140,35 211,41 3,3 49,5 57,5 72,-10 218,-99 187,-187 -1,-1 -1,-2 -2,-3zm-246 -372c-83,-27 -165,-58 -246,-91 -40,-2 -106,12 -137,-19 -33,-31 -45,-95 -23,-136 -6,1 -12,0 -18,0 -46,-6 -109,-33 -151,-52 -14,110 -1,321 107,387 64,29 192,74 261,74 66,-5 232,-78 207,-163zm-212 -412c-81,-37 -160,-79 -238,-122 -41,-6 -107,1 -136,-34 -29,-36 -35,-103 -9,-142 -7,0 -13,-1 -19,-3 -45,-11 -106,-45 -146,-70 -24,112 -31,328 71,407 62,37 185,98 254,107 68,2 240,-53 223,-143zm-175 -446c-77,-47 -152,-98 -226,-151 -41,-11 -107,-11 -133,-50 -25,-40 -26,-108 3,-146 -6,-1 -12,-3 -18,-5 -15,-5 -31,-14 -48,-24l-107 0c-24,118 -28,284 49,360 58,44 177,120 245,137 69,10 244,-28 235,-121zm5722 111c-31,-85 -64,-168 -98,-251 -44,-48 -43,-171 -5,-236l-223 0c-23,64 -33,130 -20,184 24,65 107,211 152,261 35,34 188,127 194,42zm-186 457c-23,-86 -48,-170 -75,-254 -45,-59 -23,-207 37,-250 -38,-52 -73,-117 -102,-175 -95,64 -194,230 -176,348 19,66 87,215 128,269 30,34 175,144 188,62zm-224 421c-15,-85 -32,-170 -52,-255 -39,-61 -5,-201 58,-236 -32,-55 -61,-121 -85,-181 -99,51 -212,199 -204,315 13,67 68,219 103,275 25,36 159,161 180,82zm-266 389c0,-26 0,-54 -1,-80 -5,-61 -12,-120 -21,-181 -32,-62 13,-195 79,-221 -27,-57 -50,-124 -69,-184 -100,36 -225,165 -228,278 6,48 22,108 34,155 9,43 18,92 35,133 22,46 137,182 171,100zm-346 390c11,-90 19,-181 24,-271 -22,-72 53,-209 123,-233 -12,-43 -21,-90 -28,-135 -5,-21 -10,-41 -15,-62 -6,1 -46,10 -49,14 -85,46 -213,163 -233,263 -4,78 5,225 23,301 16,45 111,198 155,123zm-386 324c23,-86 43,-173 58,-261 -11,-72 76,-193 148,-204 -10,-64 -13,-137 -15,-202 -109,15 -270,115 -308,224 -14,76 -23,221 -16,296 9,45 80,213 133,147zm-431 254c37,-76 69,-150 99,-230 1,-1 6,-16 7,-19 -1,-71 98,-175 170,-174 -1,-64 5,-134 12,-198 -112,-5 -259,61 -322,156 -1,2 -3,5 -4,8 -26,72 -62,215 -68,290 0,48 40,224 106,167zm-479 174c54,-72 104,-147 149,-224 14,-70 135,-155 206,-142 11,-64 29,-132 47,-194 -105,-22 -284,16 -355,104 -37,66 -98,200 -119,271 -8,46 -4,227 72,185zm-506 73c68,-58 133,-121 193,-188 28,-65 162,-125 229,-98 22,-60 53,-123 82,-181 -98,-42 -277,-40 -363,32 -50,56 -139,176 -174,240 -18,44 -51,222 33,195zm-514 -33c78,-43 154,-91 228,-143 42,-53 120,-69 185,-67 23,2 42,6 62,18 35,-54 78,-109 118,-160 -55,-43 -112,-56 -180,-64 -51,-4 -140,-7 -186,20 -60,45 -171,143 -218,199 -27,39 -96,206 -9,197zm-491 -135c86,-27 170,-59 252,-95 51,-50 198,-50 248,2 45,-46 99,-91 148,-132 -72,-78 -237,-149 -345,-118 -68,32 -196,105 -254,151 -34,33 -135,183 -49,192zm-454 -227c47,-7 93,-15 140,-24 41,-7 82,-15 123,-24 61,-38 207,-8 246,53 53,-36 115,-69 172,-100 -56,-93 -207,-194 -320,-186 -12,2 -84,22 -90,25 -58,21 -133,46 -187,76 -38,26 -165,157 -84,180zm-400 -296c89,3 179,2 268,-3 65,-28 201,24 228,91 58,-26 124,-48 184,-68 -36,-102 -164,-226 -276,-237 -77,5 -222,29 -293,53 -44,19 -189,127 -111,164zm-362 -365c89,18 180,32 270,42 71,-16 202,61 219,132 62,-15 132,-25 197,-33 -23,-110 -137,-259 -250,-290 -78,-9 -228,-10 -303,2 -49,13 -206,97 -133,147zm-298 -395c82,22 165,42 249,58 17,-2 30,0 46,4 67,28 141,87 155,162 65,-5 138,-3 204,0 -7,-120 -82,-225 -168,-305 -13,-10 -28,-22 -45,-26 -75,-15 -215,-26 -290,-20 -43,8 -213,75 -151,127zm-239 -407c81,33 162,63 245,91 70,-2 173,96 168,168 63,-1 132,6 194,14 12,-108 -53,-273 -154,-326 -73,-25 -213,-54 -289,-58 -45,3 -221,52 -164,111zm-201 -443c78,43 157,84 237,121 71,8 164,121 153,193 63,7 132,23 194,39 21,-109 -30,-287 -125,-354 -61,-31 -218,-85 -285,-93 -47,-3 -225,27 -174,94zm-160 -476c73,53 148,103 225,151 71,15 153,143 135,215 63,15 131,39 191,63 32,-111 -4,-299 -93,-378 -58,-39 -210,-113 -276,-128 -49,-9 -227,3 -182,77zm202 -192c12,37 17,74 8,101 61,22 126,55 184,86 19,-50 26,-118 19,-187l-211 0z" style="fill:#91149a"/>
 </g><g id="BraceletSilver-Big">
 <animateTransform additive="sum" attributeName="transform" dur="10" repeatCount="indefinite" type="translate" values="0;0 200;0;0 200;0;0 200;0;0 200;0"/>
  <metadata id="CorelCorpID_22Corel-Layer"/>
  <path class="BraceletSilver-Bigfil64new BraceletSilver-Bigstr4new" d="M8195 20129c-204,-50 -379,-138 -279,-411 104,-287 265,-351 471,-311 525,100 1612,645 1971,1026 143,153 127,265 -14,467 -144,206 -338,247 -490,102 -377,-361 -1123,-742 -1659,-873z" style="fill:#c1487f"/>
  <path class="BraceletSilver-Bigfil62new" d="M8395 19441c51,41 134,85 59,242l-104 216c-44,91 -219,153 -347,145l532 154c-61,-56 -105,-143 -59,-247l115 -257c33,-74 177,-118 258,-114l-454 -139zm581 190c48,45 131,97 40,245l-143 234c-51,88 -144,134 -271,116l436 194c-56,-59 -98,-148 -44,-248l135 -247c39,-72 167,-125 248,-114l-401 -180zm544 285c45,48 121,103 24,248l-133 198c-57,85 -148,123 -273,97l457 269c-52,-63 -128,-200 -67,-295l150 -239c44,-68 151,-88 230,-72l-388 -206zm488 257c42,50 115,213 10,349l-145 187c-61,79 -124,85 -249,49l342 292c-49,-67 -45,-172 21,-263l164 -225c48,-65 141,-79 220,-57l-363 -332z" style="fill:#a71e56"/>
  <path class="BraceletSilver-Bigfil65new BraceletSilver-Bigstr4new" d="M19113 20129c204,-50 379,-138 279,-411 -105,-287 -266,-351 -472,-311 -524,100 -1611,645 -1970,1026 -144,153 -127,265 14,467 144,206 338,247 489,102 378,-361 1124,-742 1660,-873z" style="fill:#28a8c5"/>
  <path class="BraceletSilver-Bigfil62new" d="M18913 19441c-51,41 -134,85 -59,242l103 216c44,91 176,155 304,147l-480 145c61,-55 97,-136 50,-240l-114 -257c-33,-74 -180,-123 -260,-118l456 -135zm-532 175c-48,45 -154,136 -66,287l120 207c51,88 152,127 279,109l-470 224c56,-59 124,-171 70,-271l-135 -247c-39,-72 -198,-99 -278,-88l480 -221zm-594 300c-44,48 -120,103 -23,248l133 198c57,85 168,107 293,81l-456 283c52,-63 106,-198 46,-293l-151 -239c-43,-68 -150,-88 -229,-72l387 -206zm-483 252c-42,51 -120,218 -14,354l144 187c62,79 124,85 249,49l-361 304c49,-67 65,-185 -1,-275l-165 -225c-47,-65 -140,-79 -219,-57l367 -337z" style="fill:#8af4fb"/>
 </g><g id="Head-Bear4">
 <animateTransform additive="sum" attributeName="transform" dur="10" repeatCount="indefinite" type="translate" values="0;0 200;0;0 200;0;0 200;0;0 200;0"/>
  <metadata id="CorelCorpID_271Corel-Layer"/>
  <path class="Head-Bear4fil517" d="M13654 7273c-2617,0 -4867,1752 -6043,4159 -278,567 -495,1171 -644,1797 -523,2205 1261,3491 3236,4070 1146,336 2280,345 3451,345 1171,0 2305,-9 3451,-345 1974,-579 3759,-1865 3235,-4070 -148,-626 -366,-1230 -643,-1797 -1176,-2407 -3426,-4159 -6043,-4159z" style="fill:#89b7a8"/>
  <path class="Head-Bear4fil32" d="M8207 10400c-323,432 -873,1854 -955,2101 -83,246 -154,494 -214,746 -230,969 -3,1755 493,2378 608,765 1621,1288 2692,1602 233,68 1645,361 2255,401 -690,66 -2074,-192 -2295,-257 -1096,-321 -2136,-860 -2766,-1652 -523,-657 -763,-1487 -521,-2507 61,-256 133,-510 217,-759 78,-234 501,-1357 1094,-2053z" style="fill:#0894a1"/>
  <path class="Head-Bear4fil14" d="M8054 10635c-161,256 -309,522 -443,797 -278,567 -495,1171 -644,1797 -523,2205 1261,3491 3236,4070 620,182 1236,268 1857,308 140,6 280,13 418,21l0 0c-4165,-880 -6084,-2665 -4424,-6993z" style="fill:#fe1ae6"/>
  <path class="Head-Bear4fil32" d="M12866 7326c-601,115 -1457,466 -1734,598 -279,132 -1100,569 -1629,994 484,-570 1385,-1044 1568,-1130 176,-84 969,-436 1795,-462z" style="fill:#3493ff"/>
  <path class="Head-Bear4fil32" d="M19100 10400c324,432 873,1854 956,2101 82,246 154,494 213,746 230,969 3,1755 -492,2378 -608,765 -1621,1288 -2693,1602 -232,68 -1644,361 -2255,401 690,66 2074,-192 2296,-257 1096,-321 2136,-860 2766,-1652 522,-657 763,-1487 520,-2507 -60,-256 -133,-510 -216,-759 -79,-234 -501,-1357 -1095,-2053z" style="fill:#8ce79a"/>
  <path class="Head-Bear4fil32" d="M14442 7326c600,115 1457,466 1734,598 279,132 1099,569 1629,994 -485,-570 -1385,-1044 -1568,-1130 -177,-84 -969,-436 -1795,-462z" style="fill:#25a144"/>
  <path class="Head-Bear4fil518" d="M13654 9359c-684,-1645 -4586,572 -5426,2315 -539,1121 -404,3066 626,3537 1485,680 2708,-206 2723,535 13,665 782,1475 2077,1484 1294,-9 2064,-819 2077,-1484 14,-741 1238,145 2723,-535 1029,-471 1165,-2416 625,-3537 -839,-1743 -4741,-3960 -5425,-2315z" style="fill:#3f6e9c"/>
  <path class="Head-Bear4fil519" d="M13654 14309c-261,86 -522,172 -783,258 -598,-824 -1051,-2922 783,-2922 1834,0 1381,2098 782,2922 -261,-86 -521,-172 -782,-258z" style="fill:#316ec3"/>
 </g><g id="Mouth-Bear0">
 <animateTransform additive="sum" attributeName="transform" dur="10" repeatCount="indefinite" type="translate" values="0;0 200;0;0 200;0;0 200;0;0 200;0"/>
  <metadata id="CorelCorpID_276Corel-Layer"/>
  <g>
   <path class="Mouth-Bear0fil22 Mouth-Bear0str0" d="M12543 15318c298,519 1085,300 1111,-492" style="fill:#f02e85"/>
   <path class="Mouth-Bear0fil100 Mouth-Bear0str0" d="M13642 14959c-37,245 -153,423 -299,528 122,-60 207,-137 311,-137l0 -391 -12 0z" style="fill:#6324e4"/>
   <path class="Mouth-Bear0fil22 Mouth-Bear0str0" d="M14765 15318c-298,519 -1086,300 -1111,-492" style="fill:#4dfdc7"/>
   <path class="Mouth-Bear0fil100 Mouth-Bear0str0" d="M13666 14959c37,245 153,423 299,528 -122,-60 -207,-137 -311,-137l0 -391 12 0z" style="fill:#246a19"/>
  </g>
 </g><g id="Eyes-Bear6">
 <animateTransform additive="sum" attributeName="transform" dur="10" repeatCount="indefinite" type="translate" values="0;0 200;0;0 200;0;0 200;0;0 200;0"/>
  <metadata id="CorelCorpID_291Corel-Layer"/>
  <path class="Eyes-Bear6fil558" d="M11990 12291c-4,-1119 -3302,-703 -3482,261 -233,1249 715,2310 1812,2024 1144,-298 1675,-994 1670,-2285z"/>
  <path class="Eyes-Bear6fil559" d="M11400 11728c-498,-151 -1742,9 -2226,228 -231,592 76,2296 1144,2309 1145,15 1419,-1876 1082,-2537z"/>
  <path class="Eyes-Bear6fil560" d="M11229 11685c-409,-84 -1147,-17 -1576,118 -54,149 -107,272 -111,856 -4,583 397,1273 927,1260 530,-13 816,-662 849,-1223 34,-561 -46,-860 -89,-1011z"/>
  <circle class="Eyes-Bear6fil152" r="235" transform="matrix(0.386601 -0.693281 1.39025 0.889533 9740.65 14130)"/>
  <circle class="Eyes-Bear6fil152" r="235" transform="matrix(0.437299 -0.127093 0.239024 0.657032 9256.84 13578.3)"/>
  <path class="Eyes-Bear6fil157" d="M11995 12319c-4,-1119 -3302,-772 -3482,192 -49,265 -51,530 -12,780 123,-997 1544,-1205 2148,-1122 876,120 1163,402 1123,1382 99,-317 225,-796 223,-1232z"/>
  <path class="Eyes-Bear6fil152" d="M11085 11874c410,10 593,927 8,927 -534,0 -402,-936 -8,-927z"/>
  <path class="Eyes-Bear6fil22 Eyes-Bear6str4" d="M11990 12291c-4,-1119 -3302,-703 -3482,261 -233,1249 715,2310 1812,2024 1144,-298 1675,-994 1670,-2285z"/>
  <path class="Eyes-Bear6fil561" d="M15317 12291c5,-1119 3302,-703 3482,261 234,1249 -714,2310 -1812,2024 -1144,-298 -1675,-994 -1670,-2285z"/>
  <path class="Eyes-Bear6fil562" d="M15907 11728c499,-151 1742,9 2227,228 231,592 -77,2296 -1145,2309 -1144,15 -1419,-1876 -1082,-2537z"/>
  <path class="Eyes-Bear6fil563" d="M16297 11662c409,-84 1199,21 1568,178 54,149 107,273 111,856 4,584 -397,1273 -927,1261 -529,-13 -815,-662 -849,-1223 -33,-561 54,-921 97,-1072z"/>
  <circle class="Eyes-Bear6fil152" r="235" transform="matrix(0.386601 -0.693281 1.39025 0.889533 16550.8 14062.7)"/>
  <circle class="Eyes-Bear6fil152" r="235" transform="matrix(0.437299 -0.127093 0.239024 0.657032 15986.2 13578.4)"/>
  <path class="Eyes-Bear6fil157" d="M15312 12319c5,-1119 3302,-772 3483,192 49,265 51,530 11,780 -122,-997 -1543,-1205 -2147,-1122 -876,120 -1163,402 -1124,1382 -98,-317 -224,-796 -223,-1232z"/>
  <path class="Eyes-Bear6fil152" d="M17878 11915c-410,9 -594,926 -9,926 535,0 402,-935 9,-926z"/>
  <path class="Eyes-Bear6fil22 Eyes-Bear6str4" d="M15317 12291c5,-1119 3302,-703 3482,261 234,1249 -714,2310 -1812,2024 -1144,-298 -1675,-994 -1670,-2285z"/>
  <g>
        <animateTransform additive="sum" attributeName="transform" dur="10" repeatCount="indefinite" type="translate" values="0;0;0;0;0;0;0;0;0;0;0;0;0;0;0;0;0;0;0;0;0;0;0;0;0;0;0;0;0;0;0;0;0;0;0;0;0;0;0;0;0;0;0;0;0;0;0;0;0;0;0;0;0;0;0;0;0;0;0;0;0;0;0;0;0;0;0;0;0;0;0;0;0;0;0;0;0;0;0;0;0;0;0;0;0;0;-1200 1500;0;-1200 1500;0"/>
        <g>
            <animateTransform additive="sum" attributeName="transform" dur="10" repeatCount="indefinite" type="rotate" values="0;0;0;0;0;0;0;0;0;0;0;0;0;0;0;0;0;0;0;0;0;0;0;0;0;0;0;0;0;0;0;0;0;0;0;0;0;0;0;0;0;0;0;0;0;0;0;0;0;0;0;0;0;0;0;0;0;0;0;0;0;0;0;0;0;0;0;0;0;0;0;0;0;0;0;0;0;0;0;0;0;0;0;0;0;0;-10;0;-10;0"/>
            <g>
                <animateTransform additive="sum" attributeName="transform" dur="10" repeatCount="indefinite" type="translate" values="0;0;0;0;0;0;0;0;0;0;0;0;0;0;0;0;0;0;0;0;0;0;0;0;0;0;0;0;0;0;0;0;0;0;0;0;0;0;0;0;0;0;0;0;0;0;0;0;0;0;0;0;0;0;0;0;0;0;0;0;0;0;0;0;0;0;0;0;0;0;0;0;0;0;0;0;0;0;0;0;0;0;0;0;0;0;-500 -100;0;-500 -100;0"/> 
                <path class="Eyes-Bear6fil155" d="M9450 11417c148,44 610,-176 1215,-242 555,-60 1047,60 1191,-90 159,-166 -149,-523 -435,-619 -235,-78 -823,-33 -1319,212 -587,288 -832,686 -652,739z"/>
            </g>
            <g>
                <animateTransform additive="sum" attributeName="transform" dur="10" repeatCount="indefinite" type="translate" values="0;0;0;0;0;0;0;0;0;0;0;0;0;0;0;0;0;0;0;0;0;0;0;0;0;0;0;0;0;0;0;0;0;0;0;0;0;0;0;0;0;0;0;0;0;0;0;0;0;0;0;0;0;0;0;0;0;0;0;0;0;0;0;0;0;0;0;0;0;0;0;0;0;0;0;0;0;0;0;0;0;0;0;0;0;0;-500 -100;0;-500 -100;0"/> 
                <path class="Eyes-Bear6fil14" d="M9450 11417c148,44 610,-176 1215,-242 555,-60 1047,60 1191,-90 159,-166 -149,-523 -435,-619 -235,-78 -823,-33 -1319,212 -587,288 -832,686 -652,739z"/>
            </g>
        </g>
    </g>  
	<g>
        <animateTransform additive="sum" attributeName="transform" dur="10" repeatCount="indefinite" type="translate" values="0;0;0;0;0;0;0;0;0;0;0;0;0;0;0;0;0;0;0;0;0;0;0;0;0;0;0;0;0;0;0;0;0;0;0;0;0;0;0;0;0;0;0;0;0;0;0;0;0;0;0;0;0;0;0;0;0;0;0;0;0;0;0;0;0;0;0;0;0;0;0;0;0;0;0;0;0;0;0;0;0;0;0;0;0;0;-800 1400;0;-800 1400;0"/>
        <g>
            <animateTransform additive="sum" attributeName="transform" dur="10" repeatCount="indefinite" type="rotate" values="0;0;0;0;0;0;0;0;0;0;0;0;0;0;0;0;0;0;0;0;0;0;0;0;0;0;0;0;0;0;0;0;0;0;0;0;0;0;0;0;0;0;0;0;0;0;0;0;0;0;0;0;0;0;0;0;0;0;0;0;0;0;0;0;0;0;0;0;0;0;0;0;0;0;0;0;0;0;0;0;0;0;0;0;0;0;10;0;10;0"/>
            <g>
                <animateTransform additive="sum" attributeName="transform" dur="10" repeatCount="indefinite" type="translate" values="0;0;0;0;0;0;0;0;0;0;0;0;0;0;0;0;0;0;0;0;0;0;0;0;0;0;0;0;0;0;0;0;0;0;0;0;0;0;0;0;0;0;0;0;0;0;0;0;0;0;0;0;0;0;0;0;0;0;0;0;0;0;0;0;0;0;0;0;0;0;0;0;0;0;0;0;0;0;0;0;0;0;0;0;0;0;2000 -5000;0;2000 -5000;0"/> 
                <path class="Eyes-Bear6fil155" d="M17857 11417c-148,44 -609,-176 -1214,-242 -555,-60 -1048,60 -1191,-90 -159,-166 149,-523 435,-619 234,-78 822,-33 1319,212 587,288 831,686 651,739z"/>
            </g>
            <g>
                <animateTransform additive="sum" attributeName="transform" dur="10" repeatCount="indefinite" type="translate" values="0;0;0;0;0;0;0;0;0;0;0;0;0;0;0;0;0;0;0;0;0;0;0;0;0;0;0;0;0;0;0;0;0;0;0;0;0;0;0;0;0;0;0;0;0;0;0;0;0;0;0;0;0;0;0;0;0;0;0;0;0;0;0;0;0;0;0;0;0;0;0;0;0;0;0;0;0;0;0;0;0;0;0;0;0;0;2000 -5000;0;2000 -5000;0"/> 
                <path class="Eyes-Bear6fil14" d="M17857 11417c-148,44 -609,-176 -1214,-242 -555,-60 -1048,60 -1191,-90 -159,-166 149,-523 435,-619 234,-78 822,-33 1319,212 587,288 831,686 651,739z"/>
            </g>
        </g>
    </g>
 </g><g id="Moustache-Bear0">
 <animateTransform additive="sum" attributeName="transform" dur="10" repeatCount="indefinite" type="translate" values="0;0 200;0;0 200;0;0 200;0;0 200;0"/>
  <metadata id="CorelCorpID_296Corel-Layer"/>
  <rect class="Moustache-Bear0fil22" height="832" width="832" x="13238" y="12735"/>
 </g><g id="Nose-Bear0">
 <animateTransform additive="sum" attributeName="transform" dur="10" repeatCount="indefinite" type="translate" values="0;0 200;0;0 200;0;0 200;0;0 200;0"/>
  <metadata id="CorelCorpID_304Corel-Layer"/>
  <path class="Nose-Bear0fil598 Nose-Bear0str0" d="M13654 14109c-356,0 -852,135 -813,337 34,185 361,481 813,481 452,0 778,-296 813,-481 38,-202 -457,-337 -813,-337z" style="fill:#cb9e5b"/>
 </g><g id="HatBaseballWhite-Big">
 <animateTransform additive="sum" attributeName="transform" dur="10" repeatCount="indefinite" type="translate" values="0;0 200;0;0 200;0;0 200;0;0 200;0"/>
  <metadata id="CorelCorpID_55Corel-Layer"/>
  <g id="_3198515359824">
   <path class="HatBaseballWhite-Bigfil12" d="M7851 12644c0,0 772,1190 2139,937 1366,-254 2416,-728 3833,-658 2161,106 3163,468 3947,544 600,58 1261,-726 1759,-1114 -1898,-464 -4137,-1320 -6035,-1784 -1695,641 -3947,1434 -5643,2075z" style="fill:#a841b7"/>
   <path class="HatBaseballWhite-Bigfil321 HatBaseballWhite-Bigstr1" d="M13469 4732c415,-11 756,139 761,335 6,195 -327,363 -743,374 -415,11 -756,-139 -761,-335 -5,-196 327,-363 743,-374z" style="fill:#a1e7dd"/>
   <path class="HatBaseballWhite-Bigfil322" d="M13479 5129c-1503,39 -3390,646 -4730,2087 -1349,1452 -2010,5315 -1425,5160 1280,-1224 3779,-1885 6294,-1951 2515,-66 5046,463 6388,1618 593,125 -270,-3698 -1694,-5078 -1413,-1369 -3329,-1875 -4833,-1836z" style="fill:#762cb5"/>
   <path class="HatBaseballWhite-Bigfil165 HatBaseballWhite-Bigstr8" d="M12527 5225c-3247,751 -4173,3587 -4355,6197" style="fill:#94e8e2"/>
   <path class="HatBaseballWhite-Bigfil165 HatBaseballWhite-Bigstr8" d="M14435 5175c3282,580 4355,3364 4674,5961" style="fill:#580ec3"/>
   <path class="HatBaseballWhite-Bigfil165 HatBaseballWhite-Bigstr9" d="M13677 9849c-153,-1926 -82,-3150 -251,-4729" style="fill:#1342a4"/>
   <path class="HatBaseballWhite-Bigfil165 HatBaseballWhite-Bigstr8" d="M13405 9873c-101,-1438 -120,-2903 -255,-4069 -44,-378 -6,-622 51,-664" style="fill:#f685a3"/>
   <path class="HatBaseballWhite-Bigfil165 HatBaseballWhite-Bigstr8" d="M13981 9859c-58,-1440 -202,-2899 -197,-4073 2,-381 -63,-619 -123,-654" style="fill:#95dc64"/>
   <path class="HatBaseballWhite-Bigfil167" d="M10082 6136c-402,265 -988,709 -1333,1080 -1349,1452 -2010,5315 -1425,5160 371,-355 580,-627 1126,-886 -992,550 -298,-3574 1632,-5354z" style="fill:#621918"/>
   <path class="HatBaseballWhite-Bigfil11 HatBaseballWhite-Bigstr1" d="M13479 5129c-1503,39 -3390,646 -4730,2087 -1349,1452 -2010,5315 -1425,5160 1280,-1224 3779,-1885 6294,-1951 2515,-66 5046,463 6388,1618 593,125 -270,-3698 -1694,-5078 -1413,-1369 -3329,-1875 -4833,-1836z" style="fill:#3eac5e"/>
   <path class="HatBaseballWhite-Bigfil323 HatBaseballWhite-Bigstr1" d="M7324 12376c77,276 493,783 788,841 803,157 1908,-1369 5541,-1464 3633,-95 4817,1370 5610,1172 292,-74 681,-602 743,-882 -1881,-3038 -10963,-2799 -12682,333z" style="fill:#f9fdd9"/>
   <path class="HatBaseballWhite-Bigfil12" d="M7324 12376c77,276 493,783 788,841 803,157 1908,-1369 5541,-1464 3633,-95 4817,1370 5610,1172 109,-28 231,-118 345,-236 -635,341 -2065,-1202 -5544,-1282 -3006,-70 -5129,1309 -5938,52 -342,271 -615,577 -802,917z" style="fill:#329914"/>
   <path class="HatBaseballWhite-Bigfil298" d="M19086 11283c440,1372 -2755,-284 -5587,70 2044,-61 3925,523 5319,1189 569,287 981,-142 1057,-469 -258,-354 -475,-571 -789,-790z" style="fill:#18152d"/>
  </g>
 </g></svg>