<svg xmlns="http://www.w3.org/2000/svg" xmlns:xlink="http://www.w3.org/1999/xlink" style="shape-rendering:geometricPrecision; text-rendering:geometricPrecision; image-rendering:optimizeQuality; fill-rule:evenodd; clip-rule:evenodd" version="1.1" viewBox="0 0 29000 29000" xml:space="preserve"><defs><style type="text/css">.HairBack-Cat0fil22 {fill:none}
.Tail-Cat5fil31 {fill:url(#Tail-Cat5id927)}
.Tail-Cat5fil14 {fill:black;fill-opacity:0.200000}
.Tail-Cat5fil32 {fill:black;fill-rule:nonzero}
.Tail-Cat5fil22 {fill:none}
.Tail-Cat5str0 {stroke:black;stroke-width:150;stroke-linecap:round;stroke-linejoin:round}
.RightFoot-Cat2fil34 {fill:url(#RightFoot-Cat2id448)}
.RightFoot-Cat2fil14 {fill:black;fill-opacity:0.200000}
.RightFoot-Cat2fil22 {fill:none}
.RightFoot-Cat2fil32 {fill:black;fill-rule:nonzero}
.RightLeg-Cat3fil41 {fill:url(#RightLeg-Cat3id204)}
.RightLeg-Cat3fil32 {fill:black;fill-rule:nonzero}
.RightLeg-Cat3fil14 {fill:black;fill-opacity:0.200000}
.LeftFoot-Cat2fil43 {fill:url(#LeftFoot-Cat2id634)}
.LeftFoot-Cat2fil14 {fill:black;fill-opacity:0.200000}
.LeftFoot-Cat2fil22 {fill:none}
.LeftFoot-Cat2fil32 {fill:black;fill-rule:nonzero}
.LeftLeg-Cat3fil46 {fill:url(#LeftLeg-Cat3id203)}
.LeftLeg-Cat3fil32 {fill:black;fill-rule:nonzero}
.LeftLeg-Cat3fil14 {fill:black;fill-opacity:0.200000}
.RightHand-Cat0fil48 {fill:url(#RightHand-Cat0id246)}
.RightHand-Cat0fil14 {fill:black;fill-opacity:0.200000}
.RightHand-Cat0fil22 {fill:none}
.RightHand-Cat0str0 {stroke:black;stroke-width:150;stroke-linecap:round;stroke-linejoin:round}
.RightPaw-Cat0fil26 {fill:#fffdfc}
.RightPaw-Cat0fil14 {fill:black;fill-opacity:0.200000}
.RightPaw-Cat0fil32 {fill:black;fill-rule:nonzero}
.LeftHand-Cat0fil55 {fill:url(#LeftHand-Cat0id849)}
.LeftHand-Cat0fil14 {fill:black;fill-opacity:0.200000}
.LeftHand-Cat0fil22 {fill:none}
.LeftHand-Cat0str0 {stroke:black;stroke-width:150;stroke-linecap:round;stroke-linejoin:round}
.LeftPaw-Cat0fil26 {fill:#fffdfc}
.LeftPaw-Cat0fil14 {fill:black;fill-opacity:0.200000}
.LeftPaw-Cat0fil32 {fill:black;fill-rule:nonzero}
.Body-Cat0fil62 {fill:url(#Body-Cat0id318)}
.Body-Cat0fil14 {fill:black;fill-opacity:0.200000}
.Body-Cat0fil32 {fill:black;fill-rule:nonzero}
.Body-Cat0fil63 {fill:url(#Body-Cat0id247)}
.Head-Cat6fil146 {fill:url(#Head-Cat6id32)}
.Head-Cat6fil147 {fill:url(#Head-Cat6id44)}
.Head-Cat6fil32 {fill:black;fill-rule:nonzero}
.Head-Cat6fil14 {fill:black;fill-opacity:0.200000}
.Mouth-Cat5fil14 {fill:black;fill-opacity:0.200000}
.Mouth-Cat5fil100 {fill:black}
.Mouth-Cat5fil22 {fill:none}
.Mouth-Cat5str0 {stroke:black;stroke-width:150;stroke-linecap:round;stroke-linejoin:round}
.Mouth-Cat5fil152 {fill:white}
.Mouth-Cat5str4 {stroke:black;stroke-width:150}
.Eyes-Cat8fil196 {fill:url(#Eyes-Cat8id945)}
.Eyes-Cat8fil197 {fill:url(#Eyes-Cat8id1085)}
.Eyes-Cat8fil157 {fill:black;fill-opacity:0.501961}
.Eyes-Cat8fil152 {fill:white}
.Eyes-Cat8fil175 {fill:url(#Eyes-Cat8id943)}
.Eyes-Cat8fil199 {fill:url(#Eyes-Cat8id1101)}
.Eyes-Cat8fil155 {fill:#3a4454}
.Eyes-Cat8fil14 {fill:black;fill-opacity:0.200000}
.Eyes-Cat8fil200 {fill:url(#Eyes-Cat8id732)}
.Eyes-Cat8fil198 {fill:url(#Eyes-Cat8id734)}
.Eyes-Cat8fil22 {fill:none}
.Eyes-Cat8str4 {stroke:black;stroke-width:150}
.Moustache-Cat0fil22 {fill:none}
.Nose-Cat0fil221 {fill:url(#Nose-Cat0id921)}
.Nose-Cat0str0 {stroke:black;stroke-width:150;stroke-linecap:round;stroke-linejoin:round}
.BraceletSteel-Mediumfil57new {fill:url(#BraceletSteel-Mediumid666new);fill-rule:nonzero}
.BraceletSteel-Mediumstr4new {stroke:black;stroke-width:100}
.BraceletSteel-Mediumfil58new {fill:url(#BraceletSteel-Mediumid686new);fill-rule:nonzero}
.NecklacePofil231new {fill:url(#NecklacePoid614new)}
.NecklacePofil232new {fill:#FF6633;fill-opacity:0.200000}
.NecklacePofil83new {fill:white}
.NecklacePofil233new {fill:url(#NecklacePoid644new)}
.NecklacePofil234new {fill:url(#NecklacePoid646new)}
.NecklacePofil235new {fill:url(#NecklacePoid639new)}
.NecklacePofil236new {fill:url(#NecklacePoid643new)}
.NecklacePofil237new {fill:url(#NecklacePoid647new)}
.NecklacePofil238new {fill:url(#NecklacePoid656new)}
.NecklacePofil239new {fill:url(#NecklacePoid642new)}
.NecklacePofil240new {fill:url(#NecklacePoid645new)}
.NecklacePofil241new {fill:url(#NecklacePoid660new)}
.NecklacePofil242new {fill:url(#NecklacePoid641new)}
.NecklacePofil243new {fill:url(#NecklacePoid649new)}
.NecklacePofil244new {fill:url(#NecklacePoid655new)}
.NecklacePofil246new {fill:#643200;fill-opacity:0.200000}
.NecklacePofil247new {fill:#966432;fill-opacity:0.501961}
.NecklacePofil31new {fill:white;fill-opacity:0.501961}
.NecklacePofil248new {fill:#f2e9e4;fill-opacity:0.501961}
.NecklacePofil84new {fill:black}
.NecklacePofil33new {fill:none}
.NecklacePostr4new {stroke:black;stroke-width:100}
.NecklacePofil245new {fill:url(#NecklacePoid654new)}
.NecklacePostr3new {stroke:black;stroke-width:100;stroke-linecap:round;stroke-linejoin:round}
.HatUshanka-Mediumfil31new {fill:white;fill-opacity:0.501961}
.HatUshanka-Mediumfil14new {fill:black;fill-opacity:0.200000}
.HatUshanka-Mediumfil683new {fill:url(#HatUshanka-Mediumid572new)}
.HatUshanka-Mediumfil685new {fill:url(#HatUshanka-Mediumid440new)}
.HatUshanka-Mediumfil679new {fill:#643200}
.HatUshanka-Mediumstr0new {stroke:black;stroke-width:150;stroke-linecap:round;stroke-linejoin:round}
.HatUshanka-Mediumfil680new {fill:url(#HatUshanka-Mediumid136new)}
.HatUshanka-Mediumstr6new {stroke:black;stroke-width:150}
.HatUshanka-Mediumfil33new {fill:none}
.HatUshanka-Mediumfil681new {fill:url(#HatUshanka-Mediumid553new)}
.HatUshanka-Mediumfil682new {fill:url(#HatUshanka-Mediumid574new)}
.HatUshanka-Mediumfil684new {fill:url(#HatUshanka-Mediumid702new);fill-rule:nonzero}
.WeaponBflyNetBack-Mediumfil1 {fill:black;fill-rule:nonzero;fill-opacity:0.200000}
.WeaponBflyNetBack-Mediumfil12 {fill:url(#WeaponBflyNetBack-Mediumid25);fill-rule:nonzero}
.WeaponBflyNetBack-Mediumstr0 {stroke:black;stroke-width:150;stroke-linecap:round;stroke-linejoin:round}
.WeaponBflyNet-Mediumfil13 {fill:white;fill-opacity:0.701961}
.WeaponBflyNet-Mediumfil3 {fill:black;fill-opacity:0.200000}
.WeaponBflyNet-Mediumfil14 {fill:none}
.WeaponBflyNet-Mediumstr2 {stroke:#85E7FF;stroke-width:150;stroke-linecap:round;stroke-linejoin:round}
.WeaponBflyNet-Mediumstr3 {stroke:#85E7FF;stroke-width:150}
.WeaponBflyNet-Mediumfil15 {fill:url(#WeaponBflyNet-Mediumid2)}
.WeaponBflyNet-Mediumstr0 {stroke:black;stroke-width:150;stroke-linecap:round;stroke-linejoin:round}
.WeaponBflyNet-Mediumfil16 {fill:url(#WeaponBflyNet-Mediumid1)}
.WeaponBflyNet-Mediumstr1 {stroke:black;stroke-width:150}
.AccessoryFlaskWithWaterfil79 {fill:url(#AccessoryFlaskWithWaterid23)}
.AccessoryFlaskWithWaterfil1 {fill:black;fill-opacity:0.200000}
.AccessoryFlaskWithWaterfil80 {fill:url(#AccessoryFlaskWithWaterid4)}
.AccessoryFlaskWithWaterfil48 {fill:white;fill-opacity:0.501961}
.AccessoryFlaskWithWaterfil82 {fill:url(#AccessoryFlaskWithWaterid30)}
.AccessoryFlaskWithWaterfil15 {fill:black}
.AccessoryFlaskWithWaterfil78 {fill:url(#AccessoryFlaskWithWaterid25)}
.AccessoryFlaskWithWaterstr1 {stroke:black;stroke-width:150}
.AccessoryFlaskWithWaterfil2 {fill:none}
.AccessoryFlaskWithWaterstr4 {stroke:black;stroke-width:150}
.AccessoryFlaskWithWaterstr3 {stroke:black;stroke-width:150;stroke-linecap:round;stroke-linejoin:round}
.AccessoryFlaskWithWaterfil81 {fill:url(#AccessoryFlaskWithWaterid81)}
.AccessoryFlaskWithWaterstr0 {stroke:black;stroke-width:150;stroke-linecap:round;stroke-linejoin:round}
.AccessoryFlaskWithWaterfil83 {fill:url(#AccessoryFlaskWithWaterid79)}
.AccessoryFlaskWithWaterfil84 {fill:url(#AccessoryFlaskWithWaterid16)}
.AccessoryFlaskWithWaterfil85 {fill:url(#AccessoryFlaskWithWaterid13)}
</style><linearGradient gradientUnits="objectBoundingBox" id="Tail-Cat5id927" x1="26.3028%" x2="73.6972%" xlink:href="#Tail-Cat5id925" y1="80.6558%" y2="19.3442%">
  </linearGradient><linearGradient gradientUnits="userSpaceOnUse" id="RightFoot-Cat2id448" x1="16353.3" x2="16006.4" y1="25487.2" y2="23702.7">
   <stop offset="0" style="stop-opacity:1; stop-color:#3a4454"/>
   <stop offset="0.368627" style="stop-opacity:1; stop-color:#ccd2d9"/>
   <stop offset="0.690196" style="stop-opacity:1; stop-color:#fdfeff"/>
   <stop offset="1" style="stop-opacity:1; stop-color:#fdfeff"/>
  </linearGradient><linearGradient gradientUnits="userSpaceOnUse" id="RightLeg-Cat3id204" x1="16044.8" x2="14935.9" xlink:href="#RightLeg-Cat3id203" y1="24265.3" y2="21218.4">
  </linearGradient><linearGradient gradientUnits="userSpaceOnUse" id="LeftFoot-Cat2id634" x1="10992.4" x2="11375.5" xlink:href="#LeftFoot-Cat2id448" y1="25464.3" y2="23725.6">
  </linearGradient><linearGradient gradientUnits="userSpaceOnUse" id="LeftLeg-Cat3id203" x1="11319" x2="12428" y1="24265.3" y2="21218.4">
   <stop offset="0" style="stop-opacity:1; stop-color:#fdfeff"/>
   <stop offset="0.0588235" style="stop-opacity:1; stop-color:#fdfeff"/>
   <stop offset="0.521569" style="stop-opacity:1; stop-color:#ffffff"/>
   <stop offset="1" style="stop-opacity:1; stop-color:#ffffff"/>
  </linearGradient><linearGradient gradientUnits="objectBoundingBox" id="RightHand-Cat0id246" x1="31.4718%" x2="68.5282%" y1="2.00058%" y2="97.9991%">
   <stop offset="0" style="stop-opacity:1; stop-color:#ccd2d9"/>
   <stop offset="0.878431" style="stop-opacity:1; stop-color:#fdfeff"/>
   <stop offset="1" style="stop-opacity:1; stop-color:#fdfeff"/>
  </linearGradient><linearGradient gradientUnits="objectBoundingBox" id="LeftHand-Cat0id849" x1="71.9477%" x2="28.0523%" xlink:href="#LeftHand-Cat0id246" y1="2.1954%" y2="97.8043%">
  </linearGradient><linearGradient gradientUnits="objectBoundingBox" id="Body-Cat0id318" x1="50%" x2="50%" xlink:href="#Body-Cat0id36" y1="0.000186021%" y2="100%">
  </linearGradient><linearGradient gradientUnits="userSpaceOnUse" id="Body-Cat0id247" x1="13681.9" x2="13681.9" xlink:href="#Body-Cat0id230" y1="22974.9" y2="18061.8">
  </linearGradient><linearGradient gradientUnits="userSpaceOnUse" id="Head-Cat6id32" x1="13681.9" x2="13681.9" y1="17986.7" y2="7484.8">
   <stop offset="0" style="stop-opacity:1; stop-color:#ccd2d9"/>
   <stop offset="0.0313725" style="stop-opacity:1; stop-color:#ccd2d9"/>
   <stop offset="0.329412" style="stop-opacity:1; stop-color:#fdfeff"/>
   <stop offset="1" style="stop-opacity:1; stop-color:#ffffff"/>
  </linearGradient><linearGradient gradientUnits="userSpaceOnUse" id="Head-Cat6id44" x1="13681.9" x2="13681.9" y1="13069.4" y2="17334.3">
   <stop offset="0" style="stop-opacity:1; stop-color:#fffdfc"/>
   <stop offset="0.541176" style="stop-opacity:1; stop-color:#fffdfc"/>
   <stop offset="1" style="stop-opacity:1; stop-color:#f2e9e4"/>
  </linearGradient><linearGradient gradientUnits="userSpaceOnUse" id="Eyes-Cat8id945" x1="10821.5" x2="10019.4" xlink:href="#Eyes-Cat8id27" y1="14683.6" y2="11312.6">
  </linearGradient><radialGradient cx="10465.8" cy="13526" fx="10465.8" fy="13526" gradientTransform="matrix(1.02041 -0 -0 0.918894 -214 1097)" gradientUnits="userSpaceOnUse" id="Eyes-Cat8id1085" r="1619.24" xlink:href="#Eyes-Cat8id1039">
  </radialGradient><linearGradient gradientUnits="objectBoundingBox" id="Eyes-Cat8id943" x1="37.8942%" x2="62.1058%" xlink:href="#Eyes-Cat8id27" y1="97.4073%" y2="2.59301%">
  </linearGradient><radialGradient cx="16964.2" cy="13526" fx="16964.2" fy="13526" gradientTransform="matrix(-1.02041 -0 -0 0.918894 34275 1097)" gradientUnits="userSpaceOnUse" id="Eyes-Cat8id1101" r="1619.24" xlink:href="#Eyes-Cat8id1039">
  </radialGradient><linearGradient gradientUnits="userSpaceOnUse" id="Eyes-Cat8id732" x1="16993" x2="16413.8" xlink:href="#Eyes-Cat8id384" y1="11460.6" y2="13912">
  </linearGradient><linearGradient gradientUnits="userSpaceOnUse" id="Eyes-Cat8id734" x1="10370.9" x2="10950" xlink:href="#Eyes-Cat8id384" y1="11460.6" y2="13912">
  </linearGradient><linearGradient gradientUnits="userSpaceOnUse" id="Nose-Cat0id921" x1="13681.9" x2="13681.9" y1="13407.9" y2="13968.6">
   <stop offset="0" style="stop-opacity:1; stop-color:#FFCCCC"/>
   <stop offset="1" style="stop-opacity:1; stop-color:#DB9092"/>
  </linearGradient><linearGradient gradientUnits="userSpaceOnUse" id="BraceletSteel-Mediumid666new" x1="8808.47" x2="10149.2" xlink:href="#BraceletSteel-Mediumid663new" y1="19708.3" y2="20807.9">
  </linearGradient><linearGradient gradientUnits="userSpaceOnUse" id="BraceletSteel-Mediumid686new" x1="18555.4" x2="17214.7" xlink:href="#BraceletSteel-Mediumid663new" y1="19708.3" y2="20807.9">
  </linearGradient><radialGradient cx="13664.7" cy="19961.1" fx="13664.7" fy="19961.1" gradientTransform="matrix(0.990098 -0 -0 1.30002 135 -5989)" gradientUnits="userSpaceOnUse" id="NecklacePoid614new" r="309.54">
   <stop offset="0" style="stop-opacity:1; stop-color:white"/>
   <stop offset="1" style="stop-opacity:1; stop-color:#B8B79A"/>
  </radialGradient><radialGradient cx="13089" cy="19904.3" fx="13089" fy="19904.3" gradientTransform="matrix(1.24762 0.3343 -0.376429 1.40485 4251 -12434)" gradientUnits="userSpaceOnUse" id="NecklacePoid644new" r="296.81" xlink:href="#NecklacePoid614new">
  </radialGradient><radialGradient cx="12546.8" cy="19659.5" fx="12546.8" fy="19659.5" gradientTransform="matrix(1.35144 0.780254 -0.878584 1.52175 12863 -20047)" gradientUnits="userSpaceOnUse" id="NecklacePoid646new" r="245.67" xlink:href="#NecklacePoid614new">
  </radialGradient><radialGradient cx="12096.5" cy="19268.6" fx="12096.5" fy="19268.6" gradientTransform="matrix(1.07878 1.28564 -1.44766 1.21473 26941 -19689)" gradientUnits="userSpaceOnUse" id="NecklacePoid639new" r="228.43" xlink:href="#NecklacePoid614new">
  </radialGradient><radialGradient cx="11774.8" cy="18733.4" fx="11774.8" fy="18733.4" gradientTransform="matrix(0.780254 1.35144 -1.52175 0.878584 31095 -13638)" gradientUnits="userSpaceOnUse" id="NecklacePoid643new" r="245.67" xlink:href="#NecklacePoid614new">
  </radialGradient><radialGradient cx="11655.6" cy="18154.9" fx="11655.6" fy="18154.9" gradientTransform="matrix(0.201086 1.14041 -1.28413 0.226427 32625 752)" gradientUnits="userSpaceOnUse" id="NecklacePoid647new" r="331.06" xlink:href="#NecklacePoid614new">
  </radialGradient><radialGradient cx="11721.5" cy="17578.6" fx="11721.5" fy="17578.6" gradientTransform="matrix(-0.201086 1.14041 -1.28413 -0.226427 36652 8192)" gradientUnits="userSpaceOnUse" id="NecklacePoid656new" r="331.06" xlink:href="#NecklacePoid614new">
  </radialGradient><radialGradient cx="14240.5" cy="19904.3" fx="14240.5" fy="19904.3" gradientTransform="matrix(-1.24762 0.3343 0.376429 1.40485 24515 -12819)" gradientUnits="userSpaceOnUse" id="NecklacePoid642new" r="296.81" xlink:href="#NecklacePoid614new">
  </radialGradient><radialGradient cx="14782.6" cy="19659.5" fx="14782.6" fy="19659.5" gradientTransform="matrix(-1.35144 0.780254 0.878584 1.52175 17488 -21792)" gradientUnits="userSpaceOnUse" id="NecklacePoid645new" r="245.67" xlink:href="#NecklacePoid614new">
  </radialGradient><radialGradient cx="15233" cy="19268.6" fx="15233" fy="19268.6" gradientTransform="matrix(-1.07878 1.28564 1.44766 1.21473 3772 -23722)" gradientUnits="userSpaceOnUse" id="NecklacePoid660new" r="228.43" xlink:href="#NecklacePoid614new">
  </radialGradient><radialGradient cx="15554.7" cy="18733.4" fx="15554.7" fy="18733.4" gradientTransform="matrix(-0.780254 1.35144 1.52175 0.878584 -816 -18747)" gradientUnits="userSpaceOnUse" id="NecklacePoid641new" r="245.67" xlink:href="#NecklacePoid614new">
  </radialGradient><radialGradient cx="15673.8" cy="18154.9" fx="15673.8" fy="18154.9" gradientTransform="matrix(-0.201086 1.14041 1.28413 0.226427 -4488 -3831)" gradientUnits="userSpaceOnUse" id="NecklacePoid649new" r="331.06" xlink:href="#NecklacePoid614new">
  </radialGradient><radialGradient cx="15608" cy="17578.6" fx="15608" fy="17578.6" gradientTransform="matrix(0.201086 1.14041 1.28413 -0.226427 -10104 3759)" gradientUnits="userSpaceOnUse" id="NecklacePoid655new" r="331.06" xlink:href="#NecklacePoid614new">
  </radialGradient><radialGradient cx="13854.7" cy="20982.5" fx="13854.7" fy="20982.5" gradientTransform="matrix(1.2 -0 -0 1.06122 -2771 -1285)" gradientUnits="userSpaceOnUse" id="NecklacePoid654new" r="949.94" xlink:href="#NecklacePoid614new">
  </radialGradient><linearGradient gradientUnits="userSpaceOnUse" id="HatUshanka-Mediumid572new" x1="13613" x2="13289.9" y1="12530.1" y2="6043.75">
   <stop offset="0" style="stop-opacity:1; stop-color:#C9AD91"/>
   <stop offset="0.509804" style="stop-opacity:1; stop-color:#EBD1B7"/>
   <stop offset="1" style="stop-opacity:1; stop-color:#F2DFCB"/>
  </linearGradient><linearGradient gradientUnits="userSpaceOnUse" id="HatUshanka-Mediumid440new" x1="13217.6" x2="13567.9" y1="8259.32" y2="10477.9">
   <stop offset="0" style="stop-opacity:1; stop-color:red"/>
   <stop offset="1" style="stop-opacity:1; stop-color:#870000"/>
  </linearGradient><linearGradient gradientUnits="userSpaceOnUse" id="HatUshanka-Mediumid136new" x1="18968.1" x2="23659.1" y1="11787.9" y2="12257">
   <stop offset="0" style="stop-opacity:1; stop-color:#C9AD91"/>
   <stop offset="0.560784" style="stop-opacity:1; stop-color:#EBD1B7"/>
   <stop offset="1" style="stop-opacity:1; stop-color:#F2DFCB"/>
  </linearGradient><linearGradient gradientUnits="userSpaceOnUse" id="HatUshanka-Mediumid553new" x1="7438.35" x2="3427.57" xlink:href="#HatUshanka-Mediumid136new" y1="12658.2" y2="11303.2">
  </linearGradient><linearGradient gradientUnits="userSpaceOnUse" id="HatUshanka-Mediumid574new" x1="13447.3" x2="13294.7" y1="12378.6" y2="5601.47">
   <stop offset="0" style="stop-opacity:1; stop-color:#5C3005"/>
   <stop offset="1" style="stop-opacity:1; stop-color:#DBA777"/>
  </linearGradient><linearGradient gradientUnits="userSpaceOnUse" id="HatUshanka-Mediumid702new" x1="12852.6" x2="13935.1" y1="10469.1" y2="8266.76">
   <stop offset="0" style="stop-opacity:1; stop-color:#AB8900"/>
   <stop offset="0.321569" style="stop-opacity:1; stop-color:#FBE773"/>
   <stop offset="0.631373" style="stop-opacity:1; stop-color:white"/>
   <stop offset="0.8" style="stop-opacity:1; stop-color:#FDE976"/>
   <stop offset="1" style="stop-opacity:1; stop-color:#DEA700"/>
  </linearGradient><linearGradient gradientUnits="userSpaceOnUse" id="WeaponBflyNetBack-Mediumid25" x1="7204.83" x2="8458.79" y1="22047.5" y2="19400.3">
   <stop offset="0" style="stop-opacity:1; stop-color:#FF6666"/>
   <stop offset="1" style="stop-opacity:1; stop-color:#FFC5B0"/>
  </linearGradient><linearGradient gradientUnits="userSpaceOnUse" id="WeaponBflyNet-Mediumid2" x1="9470.94" x2="12022.2" y1="22463.7" y2="22328">
   <stop offset="0" style="stop-opacity:1; stop-color:#5C3005"/>
   <stop offset="1" style="stop-opacity:1; stop-color:#B87939"/>
  </linearGradient><linearGradient gradientUnits="userSpaceOnUse" id="WeaponBflyNet-Mediumid1" x1="14169.4" x2="14169.4" y1="25399.5" y2="22680.1">
   <stop offset="0" style="stop-opacity:1; stop-color:#D4A373"/>
   <stop offset="1" style="stop-opacity:1; stop-color:#B87939"/>
  </linearGradient><linearGradient gradientUnits="userSpaceOnUse" id="AccessoryFlaskWithWaterid23" x1="3205.91" x2="6561.17" y1="23126.1" y2="23126.1">
   <stop offset="0" style="stop-opacity:1; stop-color:#865126"/>
   <stop offset="0.14902" style="stop-opacity:1; stop-color:#734F25"/>
   <stop offset="0.411765" style="stop-opacity:1; stop-color:#4F341B"/>
   <stop offset="0.760784" style="stop-opacity:1; stop-color:#BA833C"/>
   <stop offset="1" style="stop-opacity:1; stop-color:#855819"/>
  </linearGradient><linearGradient gradientUnits="userSpaceOnUse" id="AccessoryFlaskWithWaterid4" x1="4230.39" x2="5536.69" y1="20350.8" y2="20350.8">
   <stop offset="0" style="stop-opacity:1; stop-color:#424D4A"/>
   <stop offset="0.258824" style="stop-opacity:1; stop-color:#707A78"/>
   <stop offset="0.45098" style="stop-opacity:1; stop-color:#4C5654"/>
   <stop offset="0.690196" style="stop-opacity:1; stop-color:#DFE9EB"/>
   <stop offset="1" style="stop-opacity:1; stop-color:#A4ADAB"/>
  </linearGradient><linearGradient gradientUnits="userSpaceOnUse" id="AccessoryFlaskWithWaterid30" x1="4716.11" x2="5050.97" y1="23904.1" y2="23034.9">
   <stop offset="0" style="stop-opacity:1; stop-color:#4D4B42"/>
   <stop offset="0.168627" style="stop-opacity:1; stop-color:#707A78"/>
   <stop offset="0.341176" style="stop-opacity:1; stop-color:#4C5654"/>
   <stop offset="0.568627" style="stop-opacity:1; stop-color:#DFE9EB"/>
   <stop offset="1" style="stop-opacity:1; stop-color:#838577"/>
  </linearGradient><linearGradient gradientUnits="userSpaceOnUse" id="AccessoryFlaskWithWaterid25" x1="5672.23" x2="4247.15" y1="27034.1" y2="21734.6">
   <stop offset="0" style="stop-opacity:1; stop-color:#8A7A6E"/>
   <stop offset="0.258824" style="stop-opacity:1; stop-color:#413836"/>
   <stop offset="0.65098" style="stop-opacity:1; stop-color:#3B3332"/>
   <stop offset="1" style="stop-opacity:1; stop-color:#AB9780"/>
  </linearGradient><linearGradient gradientUnits="userSpaceOnUse" id="AccessoryFlaskWithWaterid81" x1="4549.26" x2="4088.46" y1="23238.9" y2="21722.7">
   <stop offset="0" style="stop-opacity:1; stop-color:#12131C"/>
   <stop offset="0.368627" style="stop-opacity:1; stop-color:#3B3332"/>
   <stop offset="1" style="stop-opacity:1; stop-color:#AB9780"/>
  </linearGradient><linearGradient gradientUnits="userSpaceOnUse" id="AccessoryFlaskWithWaterid79" x1="4867.21" x2="5918.47" xlink:href="#AccessoryFlaskWithWaterid16" y1="23175.3" y2="21958.8">
  </linearGradient><linearGradient gradientUnits="userSpaceOnUse" id="AccessoryFlaskWithWaterid13" x1="4125.86" x2="5646.78" xlink:href="#AccessoryFlaskWithWaterid4" y1="21404.4" y2="21404.4">
  </linearGradient><linearGradient gradientUnits="objectBoundingBox" id="Tail-Cat5id925" x1="56.9199%" x2="43.0801%" y1="93.4294%" y2="6.57062%">
   <stop offset="0" style="stop-opacity:1; stop-color:#ccd2d9"/>
   <stop offset="1" style="stop-opacity:1; stop-color:#ffffff"/>
  </linearGradient><linearGradient gradientUnits="userSpaceOnUse" id="RightLeg-Cat3id203" x1="11319" x2="12428" y1="24265.3" y2="21218.4">
   <stop offset="0" style="stop-opacity:1; stop-color:#fdfeff"/>
   <stop offset="0.0588235" style="stop-opacity:1; stop-color:#fdfeff"/>
   <stop offset="0.521569" style="stop-opacity:1; stop-color:#ffffff"/>
   <stop offset="1" style="stop-opacity:1; stop-color:#ffffff"/>
  </linearGradient><linearGradient gradientUnits="userSpaceOnUse" id="LeftFoot-Cat2id448" x1="16353.3" x2="16006.4" y1="25487.2" y2="23702.7">
   <stop offset="0" style="stop-opacity:1; stop-color:#3a4454"/>
   <stop offset="0.368627" style="stop-opacity:1; stop-color:#ccd2d9"/>
   <stop offset="0.690196" style="stop-opacity:1; stop-color:#fdfeff"/>
   <stop offset="1" style="stop-opacity:1; stop-color:#fdfeff"/>
  </linearGradient><linearGradient gradientUnits="objectBoundingBox" id="LeftHand-Cat0id246" x1="31.4718%" x2="68.5282%" y1="2.00058%" y2="97.9991%">
   <stop offset="0" style="stop-opacity:1; stop-color:#ccd2d9"/>
   <stop offset="0.878431" style="stop-opacity:1; stop-color:#fdfeff"/>
   <stop offset="1" style="stop-opacity:1; stop-color:#fdfeff"/>
  </linearGradient><linearGradient gradientUnits="userSpaceOnUse" id="Body-Cat0id36" x1="13681.9" x2="13681.9" y1="17936.7" y2="7484.8">
   <stop offset="0" style="stop-opacity:1; stop-color:#ccd2d9"/>
   <stop offset="0.0313725" style="stop-opacity:1; stop-color:#ccd2d9"/>
   <stop offset="0.529412" style="stop-opacity:1; stop-color:#fdfeff"/>
   <stop offset="1" style="stop-opacity:1; stop-color:#ffffff"/>
  </linearGradient><linearGradient gradientUnits="userSpaceOnUse" id="Body-Cat0id230" x1="13681.9" x2="13681.9" y1="13028.8" y2="17278">
   <stop offset="0" style="stop-opacity:1; stop-color:#fffdfc"/>
   <stop offset="0.658824" style="stop-opacity:1; stop-color:#fffdfc"/>
   <stop offset="1" style="stop-opacity:1; stop-color:#f2e9e4"/>
  </linearGradient><linearGradient gradientUnits="userSpaceOnUse" id="Eyes-Cat8id27" x1="16937.6" x2="16937.6" y1="14961.3" y2="11448.6">
   <stop offset="0" style="stop-opacity:1; stop-color:#800000"/>
   <stop offset="1" style="stop-opacity:1; stop-color:black"/>
  </linearGradient><radialGradient cx="49.9999%" cy="50.0002%" fx="49.9999%" fy="50.0002%" gradientUnits="objectBoundingBox" id="Eyes-Cat8id1039" r="50.0001%">
   <stop offset="0" style="stop-opacity:1; stop-color:#ff3b3b"/>
   <stop offset="1" style="stop-opacity:1; stop-color:#800000"/>
  </radialGradient><linearGradient gradientUnits="userSpaceOnUse" id="Eyes-Cat8id384" x1="16417.8" x2="16417.8" y1="11784.3" y2="14068.5">
   <stop offset="0" style="stop-opacity:1; stop-color:black"/>
   <stop offset="0.45" style="stop-opacity:1; stop-color:black"/>
   <stop offset="1" style="stop-opacity:1; stop-color:#660000"/>
  </linearGradient><linearGradient gradientUnits="userSpaceOnUse" id="BraceletSteel-Mediumid663new" x1="19208.4" x2="16994.4" y1="19855.6" y2="20661.5">
   <stop offset="0" style="stop-opacity:1; stop-color:#424352"/>
   <stop offset="0.109804" style="stop-opacity:1; stop-color:#848690"/>
   <stop offset="0.25098" style="stop-opacity:1; stop-color:#FFFFFC"/>
   <stop offset="0.470588" style="stop-opacity:1; stop-color:#8D8F99"/>
   <stop offset="0.780392" style="stop-opacity:1; stop-color:#16171A"/>
   <stop offset="1" style="stop-opacity:1; stop-color:#42444D"/>
  </linearGradient><linearGradient gradientUnits="userSpaceOnUse" id="AccessoryFlaskWithWaterid16" x1="4702.91" x2="5106.95" y1="25411.2" y2="23727">
   <stop offset="0" style="stop-opacity:1; stop-color:#5B5C63"/>
   <stop offset="0.509804" style="stop-opacity:1; stop-color:#665E59"/>
   <stop offset="1" style="stop-opacity:1; stop-color:#AB9B89"/>
  </linearGradient></defs><g id="HairBack-Cat0">
 <animateTransform additive="sum" attributeName="transform" dur="10" repeatCount="indefinite" type="translate" values="0;0 200;0;0 200;0;0 200;0;0 200;0"/>
  <rect class="HairBack-Cat0fil22" height="890" width="890" x="13237" y="6590"/>
 </g><g id="Tail-Cat5">
  <path class="Tail-Cat5fil31" d="M12493 21526c-108,-680 356,-1318 1035,-1426 680,-108 1318,356 1426,1035 72,449 608,789 1013,871 739,150 1483,-534 1408,-1680 -158,-2421 1027,-5777 4064,-5078 111,31 166,90 145,159 -33,107 -311,154 -146,195 2925,724 2687,3276 1452,5366 -27,45 -121,128 -214,120 -167,-15 -170,-375 -233,-240 -388,832 -900,1361 -1351,1361 -340,-1 -479,-524 -569,-313 -571,1351 -2022,2423 -3323,2632 -1260,201 -2607,-168 -3570,-1011 -591,-519 -1010,-1199 -1137,-1991z" style="fill:#0b4031"/>
  <path class="Tail-Cat5fil14" d="M12493 21526c-26,-167 -18,-332 19,-487 213,-178 462,-344 585,-418 304,-15 814,942 1117,926 875,2545 4568,3180 6172,593 -8,32 -18,63 -27,94 -653,1189 -1969,2103 -3159,2294 -1260,201 -2607,-168 -3570,-1011 -591,-519 -1010,-1199 -1137,-1991z" style="fill:#7f8071"/>
  <path class="Tail-Cat5fil22 Tail-Cat5str0" d="M12493 21526c-108,-680 356,-1318 1035,-1426 680,-108 1318,356 1426,1035 72,449 608,789 1013,871 739,150 1483,-534 1408,-1680 -158,-2421 1027,-5777 4064,-5078 111,31 166,90 145,159 -33,107 -311,154 -146,195 2925,724 2530,3652 1546,5232 -66,105 -215,262 -308,254 -167,-15 -170,-375 -233,-240 -388,832 -900,1361 -1351,1361 -340,-1 -479,-524 -569,-313 -571,1351 -2022,2423 -3323,2632 -1260,201 -2607,-168 -3570,-1011 -591,-519 -1010,-1199 -1137,-1991z" style="fill:#7700b7"/>
  <path class="Tail-Cat5fil14" d="M22029 21494c-153,311 -399,598 -760,695 -667,178 -1177,-1232 -1355,-1898 -68,-160 -245,81 -398,75 -284,-206 -410,-617 -481,-903 -14,-55 -63,-427 -73,-471 79,276 473,1128 815,914 670,-419 881,2197 2252,1588z" style="fill:#f5734e"/>
  <path class="Tail-Cat5fil32" d="M20750 21900c25,33 19,80 -14,105 -33,25 -80,19 -105,-14 -170,-223 -337,-492 -482,-803 -123,-262 -229,-555 -309,-878 -15,9 -32,20 -50,32 -116,74 -262,168 -396,42 -103,-97 -205,-253 -290,-447 -56,-127 -267,-730 -144,-1113 27,388 227,930 281,1054 77,174 167,314 256,397 48,46 139,-13 212,-59 45,-30 85,-56 126,-65 70,-17 121,3 142,90 77,324 184,619 308,884 140,301 302,561 465,775z" style="fill:#882d49"/>
 </g><g id="RightFoot-Cat2">
  <path class="RightFoot-Cat2fil34" d="M17107 25230c-124,214 -404,285 -611,106 -71,70 -277,145 -526,65 -410,-131 -508,-461 -851,-710 -221,-159 -124,-477 -114,-668 364,340 783,-165 1076,-248 374,-102 737,158 534,413 199,95 520,237 673,411 169,192 121,631 -181,631z" style="fill:#605817"/>
  <path class="RightFoot-Cat2fil14" d="M17107 25230c-124,214 -404,285 -611,106 -71,70 -277,145 -526,65 -410,-131 -518,-492 -872,-726 -156,-103 -135,-387 -103,-573 18,-14 37,-27 56,-38 -60,533 1445,1528 1433,860 214,342 596,186 545,-150 127,134 271,-14 143,-274 182,62 215,288 209,441 -17,153 -106,289 -274,289z" style="fill:#74b162"/>
  <path class="RightFoot-Cat2fil22" d="M16655 24186c278,231 480,239 633,413 169,192 121,631 -181,631 -124,214 -404,285 -611,106 -71,70 -277,145 -526,65 -410,-131 -520,-489 -872,-726 -156,-105 -138,-331 -109,-524" style="fill:#d47c60"/>
  <path class="RightFoot-Cat2fil32" d="M16703 24128c-31,-26 -78,-22 -105,10 -27,31 -22,79 9,105 144,120 266,182 373,236 100,50 184,92 252,169 81,92 97,256 55,370 -18,49 -49,94 -96,118 7,-269 -115,-534 -402,-526 186,95 268,253 247,592 -49,79 -127,137 -220,155 -79,15 -160,-2 -228,-45 38,-218 10,-484 -289,-538 139,98 163,330 142,511 -32,29 -98,60 -189,72 -75,9 -164,4 -260,-27 -221,-71 -352,-219 -489,-375 -104,-118 -211,-239 -363,-342 -57,-38 -82,-102 -91,-176 -11,-85 -1,-183 13,-274 15,-98 -130,-119 -144,-22 -16,102 -31,212 -18,314 14,114 57,216 157,282 136,92 236,206 333,317 151,171 295,335 557,419 119,38 230,44 323,32 93,-11 171,-41 226,-75 103,70 225,98 348,74 125,-24 233,-98 305,-202 136,-15 232,-107 279,-232 61,-166 34,-387 -84,-521 -86,-98 -183,-147 -296,-204 -100,-50 -214,-108 -345,-217z" style="fill:#bd2f40"/>
 </g><g id="LeftFoot-Cat2">
  <path class="LeftFoot-Cat2fil43" d="M10257 25230c124,214 404,285 611,106 71,70 277,145 526,65 410,-131 508,-461 851,-710 221,-159 124,-477 114,-668 -364,340 -783,-165 -1076,-248 -374,-102 -737,158 -535,413 -198,95 -519,237 -672,411 -169,192 -121,631 181,631z" style="fill:#63d16b"/>
  <path class="LeftFoot-Cat2fil14" d="M10257 25230c124,214 404,285 611,106 71,70 277,145 526,65 410,-131 518,-492 871,-726 157,-103 136,-387 103,-573 -17,-14 -36,-27 -55,-38 60,533 -1445,1528 -1434,860 -213,342 -595,186 -544,-150 -127,134 -271,-14 -143,-274 -182,62 -215,288 -209,441 17,153 106,289 274,289z" style="fill:#24c231"/>
  <path class="LeftFoot-Cat2fil22" d="M10708 24186c-277,231 -480,239 -632,413 -169,192 -121,631 181,631 124,214 404,285 611,106 71,70 277,145 526,65 410,-131 520,-489 871,-726 156,-105 139,-331 110,-524" style="fill:#16cea8"/>
  <path class="LeftFoot-Cat2fil32" d="M10660 24128c32,-26 79,-22 106,10 26,31 22,79 -10,105 -143,120 -266,182 -373,236 -99,50 -183,92 -251,169 -81,92 -97,256 -55,370 18,49 49,94 96,118 -7,-269 115,-534 402,-526 -186,95 -268,253 -247,592 49,79 127,137 220,155 79,15 160,-2 228,-45 -39,-218 -11,-484 289,-538 -139,98 -163,330 -142,511 31,29 98,60 189,72 75,9 163,4 259,-27 222,-71 353,-219 490,-375 104,-118 210,-239 363,-342 56,-38 82,-102 91,-176 11,-85 0,-183 -14,-274 -14,-98 131,-119 145,-22 16,102 31,212 18,314 -14,114 -58,216 -157,282 -136,92 -236,206 -333,317 -151,171 -296,335 -557,419 -119,38 -230,44 -323,32 -93,-11 -171,-41 -226,-75 -103,70 -226,98 -349,74 -124,-24 -233,-98 -304,-202 -136,-15 -232,-107 -279,-232 -61,-166 -34,-387 84,-521 86,-98 183,-147 296,-204 100,-50 214,-108 344,-217z" style="fill:#f41c72"/>
 </g><g id="RightLeg-Cat3">
  <path class="RightLeg-Cat3fil41" d="M13682 23259c428,0 1377,183 1321,776 252,336 1343,307 1616,137 370,-265 678,-701 680,-1146 2,-860 -666,-1598 -969,-1838 -621,860 -1470,1269 -2648,1328l0 743z" style="fill:#ea66b4"/>
  <path class="RightLeg-Cat3fil32" d="M14990 24254c62,5 73,-66 79,-154 8,-118 -4,-261 -94,-417 0,-1 -1,-3 -2,-4 -100,-171 -247,-296 -460,-378 -208,-80 -478,-119 -831,-119l0 150c335,0 588,36 777,108 180,69 302,173 385,314 0,2 1,3 2,4 67,116 86,244 75,332 -9,68 -10,89 -11,105 -4,48 44,56 80,59zm1296 -3006c175,140 477,451 691,859 144,272 248,587 247,919 -1,245 -87,464 -218,653 -154,223 -454,481 -660,663 306,-60 713,-477 783,-578 147,-211 244,-458 244,-738 2,-360 -110,-698 -263,-989 -227,-430 -547,-760 -734,-907l-46 58 -44 60 0 0z" style="fill:#e4344c"/>
  <path class="RightLeg-Cat3fil14" d="M17192 23490c67,-148 106,-305 107,-464 2,-775 -541,-1451 -869,-1752l-157 727c26,48 52,95 79,143 387,-413 947,879 840,1346z" style="fill:#52de67"/>
 </g><g id="LeftLeg-Cat3">
  <path class="LeftLeg-Cat3fil46" d="M13682 23259c-428,0 -1377,183 -1321,776 -252,336 -1343,307 -1616,137 -370,-265 -679,-701 -680,-1146 -2,-860 666,-1598 969,-1838 621,860 1470,1269 2648,1328l0 743z" style="fill:#de27a9"/>
  <path class="LeftLeg-Cat3fil32" d="M12374 24254c-62,5 -74,-66 -80,-154 -7,-118 4,-261 94,-417 1,-1 2,-3 3,-4 100,-171 247,-296 460,-378 208,-80 478,-119 831,-119l0 150c-335,0 -588,36 -777,108 -180,69 -303,173 -385,314 -1,2 -1,3 -2,4 -67,116 -86,244 -75,332 9,68 10,89 11,105 4,48 -44,56 -80,59zm-1296 -3006c-176,140 -477,451 -692,859 -143,272 -247,587 -246,919 1,245 87,464 218,653 154,223 454,481 660,663 -306,-60 -713,-477 -784,-578 -146,-211 -243,-458 -244,-738 -1,-360 110,-698 264,-989 226,-430 547,-760 734,-907l46 58 44 60 0 0z" style="fill:#0e2b7f"/>
  <path class="LeftLeg-Cat3fil14" d="M10172 23490c-67,-148 -106,-305 -107,-464 -2,-775 540,-1451 869,-1752l157 727c-26,48 -53,95 -79,143 -388,-413 -947,879 -840,1346z" style="fill:#a3dbc0"/>
 </g><g id="RightHand-Cat0">
 <animateTransform additive="sum" attributeName="transform" dur="10" repeatCount="indefinite" type="translate" values="0;0 200;0;0 200;0;0 200;0;0 200;0"/>
  <path class="RightHand-Cat0fil48" d="M16231 17709c1007,345 1819,1401 2257,2165 289,504 -636,1265 -911,1014 -627,-574 -1209,-620 -1689,-543 -742,120 -1353,-1920 -931,-2545 422,-21 934,-40 1274,-91z" style="fill:#724af6"/>
  <path class="RightHand-Cat0fil14" d="M17512 20830c-602,-518 -1160,-559 -1624,-485 -171,28 -335,-59 -481,-217 -325,-472 753,-1098 1039,-656 261,403 734,847 1111,1126 -2,93 16,193 -45,232l0 0 0 0z" style="fill:#f490f1"/>
  <path class="RightHand-Cat0fil22 RightHand-Cat0str0" d="M16477 20333c340,47 711,200 1100,555 275,251 1152,-509 864,-1013 -438,-763 -1203,-1821 -2210,-2166 -90,-31 -172,-59 -246,-84" style="fill:#9d02e7"/>
 </g><g id="LeftHand-Cat0">
 <animateTransform additive="sum" attributeName="transform" dur="10" repeatCount="indefinite" type="translate" values="0;0 200;0;0 200;0;0 200;0;0 200;0"/>
  <path class="LeftHand-Cat0fil55" d="M11133 17709c-1007,345 -1819,1401 -2257,2165 -289,504 636,1265 911,1014 627,-574 1209,-620 1689,-543 742,120 1352,-1920 931,-2545 -422,-21 -934,-40 -1274,-91z" style="fill:#6bc513"/>
  <path class="LeftHand-Cat0fil14" d="M9852 20830c602,-518 1160,-559 1624,-485 171,28 335,-59 481,-217 325,-472 -753,-1098 -1039,-656 -261,403 -734,847 -1111,1126 2,93 -16,193 45,232l0 0 0 0z" style="fill:#6ea2cc"/>
  <path class="LeftHand-Cat0fil22 LeftHand-Cat0str0" d="M10887 20333c-340,47 -711,200 -1100,555 -275,251 -1153,-509 -864,-1013 438,-763 1203,-1821 2210,-2166 90,-31 171,-59 246,-84" style="fill:#d4136d"/>
 </g><g id="Body-Cat0">
 <animateTransform additive="sum" attributeName="transform" dur="10" repeatCount="indefinite" type="translate" values="0;0 200;0;0 200;0;0 200;0;0 200;0"/>
  <path class="Body-Cat0fil62" d="M13682 23135c-1548,0 -2752,-291 -2993,-1956 -147,-1014 391,-2287 991,-3420 634,80 1289,123 2002,142 713,-19 1367,-62 2002,-142 600,1133 1137,2406 991,3420 -242,1665 -1445,1956 -2993,1956z" style="fill:#42007d"/>
  <path class="Body-Cat0fil14" d="M12621 23067c-1016,-156 -1749,-629 -1932,-1888 -75,-519 29,-1106 229,-1707 -223,2001 402,3257 1703,3595z" style="fill:#1a6cba"/>
  <path class="Body-Cat0fil32" d="M11012 22144c-250,-321 -348,-641 -397,-954 -59,-377 -24,-998 184,-1320 -78,421 -93,905 -36,1298 50,341 104,572 249,976z" style="fill:#a10cba"/>
  <path class="Body-Cat0fil63" d="M13682 18144c-911,0 -1630,-350 -1974,394 -875,1890 -906,4437 1974,4437 2879,0 2849,-2547 1974,-4437 -344,-744 -1063,-394 -1974,-394z" style="fill:#484b8b"/>
  <path class="Body-Cat0fil14" d="M14743 23067c1016,-156 1749,-629 1932,-1888 75,-519 -29,-1106 -229,-1707 223,2001 -402,3257 -1703,3595z" style="fill:#ee5a44"/>
  <path class="Body-Cat0fil32" d="M16352 22144c250,-321 347,-641 397,-954 59,-377 24,-998 -184,-1320 78,421 93,905 36,1298 -50,341 -104,572 -249,976z" style="fill:#79b106"/>
 </g><g id="WeaponBflyNetBack-Medium">
 <animateTransform additive="sum" attributeName="transform" dur="10" repeatCount="indefinite" type="translate" values="0;0 200;0;0 200;0;0 200;0;0 200;0"/>
  <metadata id="CorelCorpID_6Corel-Layer"/>
  <path class="WeaponBflyNetBack-Mediumfil12 WeaponBflyNetBack-Mediumstr0" d="M9510 21699l211 -158 -3097 -1978c-171,-110 -453,-135 -615,154 -163,288 4,515 187,606l3288 1638 26 -262z" style="fill:#89aae1"/>
  <path class="WeaponBflyNetBack-Mediumfil1" d="M6205 19540c-65,37 -126,96 -176,184 -162,288 5,515 188,606l3267 1631 22 -220c-464,-223 -2955,-1545 -3141,-1708 -152,-132 -207,-333 -160,-493z" style="fill:#7dd422"/>
 </g><g id="RightPaw-Cat0">
 <animateTransform additive="sum" attributeName="transform" dur="10" repeatCount="indefinite" type="translate" values="0;0 200;0;0 200;0;0 200;0;0 200;0"/>
  <g id="_2842391375968">
   <path class="RightPaw-Cat0fil26" d="M17501 20836c-31,672 506,1059 828,766 253,397 884,103 809,-293 203,-535 -266,-1036 -634,-1325 -198,-64 -364,-248 -462,44 -114,341 -157,279 -402,398 -164,79 -11,352 -139,410z" style="fill:#0291d2"/>
   <path class="RightPaw-Cat0fil14" d="M17501 20836c-31,672 506,1059 828,766 341,429 911,24 753,-293 -65,297 -520,408 -657,-118 -113,412 -522,237 -614,26 -96,-216 -45,-462 -254,-619 -2,93 16,193 -45,232l0 0 0 1c-2,0 -3,1 -5,2l0 0 0 0 0 0 0 0 -1 1 0 0 0 0c-2,1 -3,2 -5,2z" style="fill:#76358b"/>
   <path class="RightPaw-Cat0fil32" d="M17437 20673c-79,-58 -168,63 -89,121 29,21 57,43 84,65 -4,302 99,551 246,712 55,61 118,109 183,144 146,76 312,82 454,-8 209,238 583,191 784,-34 86,-97 135,-221 116,-357 83,-234 46,-463 -52,-673 -133,-282 -403,-498 -588,-704 -34,-37 -181,-286 -215,-345 -58,-79 -178,10 -120,89 36,48 75,120 112,186 6,12 81,153 124,188 201,164 431,392 551,649 38,81 65,165 77,251 -53,-69 -156,-152 -275,-139 81,67 126,143 171,252 66,158 113,363 -12,503 -142,159 -412,205 -563,33 116,-164 118,-464 -80,-548 55,102 48,374 -55,477 -86,86 -222,119 -360,47 -49,-26 -97,-63 -141,-112 -129,-140 -218,-365 -207,-639 2,-22 -6,-44 -23,-60 -37,-34 -82,-68 -122,-98z" style="fill:#b36d23"/>
  </g>
 </g><g id="LeftPaw-Cat0">
 <animateTransform additive="sum" attributeName="transform" dur="10" repeatCount="indefinite" type="translate" values="0;0 200;0;0 200;0;0 200;0;0 200;0"/>
  <path class="LeftPaw-Cat0fil26" d="M9863 20836c31,672 -506,1059 -828,766 -253,397 -884,103 -809,-293 -203,-535 266,-1036 634,-1325 198,-64 364,-248 462,44 114,341 157,279 402,398 164,79 11,352 139,410z" style="fill:#4f8212"/>
  <path class="LeftPaw-Cat0fil14" d="M9863 20836c31,672 -506,1059 -828,766 -341,429 -911,24 -754,-293 66,297 521,408 658,-118 113,412 522,237 614,26 95,-216 45,-462 254,-619 2,93 -16,193 45,232l0 0 0 1c2,0 3,1 5,2l0 0 0 0 0 0 0 0 0 1 1 0 0 0c1,1 3,2 5,2z" style="fill:#09bcec"/>
  <path class="LeftPaw-Cat0fil32" d="M9927 20673c79,-58 168,63 88,121 -28,21 -56,43 -83,65 4,302 -100,551 -246,712 -56,61 -118,109 -183,144 -146,76 -312,82 -454,-8 -209,238 -583,191 -784,-34 -86,-97 -135,-221 -116,-357 -83,-234 -46,-463 52,-673 133,-282 403,-498 588,-704 34,-37 180,-286 214,-345 59,-79 179,10 121,89 -36,48 -76,120 -112,186 -6,12 -81,153 -124,188 -201,164 -431,392 -551,649 -38,81 -66,165 -77,251 53,-69 156,-152 275,-139 -81,67 -126,143 -172,252 -65,158 -113,363 13,503 142,159 412,205 562,33 -115,-164 -117,-464 81,-548 -55,102 -48,374 55,477 86,86 222,119 359,47 50,-26 98,-63 142,-112 128,-140 218,-365 207,-639 -2,-22 6,-44 23,-60 37,-34 81,-68 122,-98z" style="fill:#7cb3fb"/>
 </g><g id="NecklacePo">
 <animateTransform additive="sum" attributeName="transform" dur="10" repeatCount="indefinite" type="translate" values="0;0 200;0;0 200;0;0 200;0;0 200;0"/>
  <metadata id="CorelCorpID_41Corel-Layer"/>
  <g>
   <ellipse class="NecklacePofil231new" cx="13665" cy="20127" rx="295" ry="332"/>
   <path class="NecklacePofil232new" d="M13952 20051c5,25 8,50 8,76 0,184 -132,332 -295,332 -163,0 -295,-148 -295,-332 0,-26 3,-51 8,-76 30,147 147,256 287,256 139,0 256,-109 287,-256z" style="fill:#fbb13d"/>
   <ellipse class="NecklacePofil33new NecklacePostr4new" cx="13665" cy="20127" rx="295" ry="332"/>
   <ellipse class="NecklacePofil83new" rx="99" ry="35" transform="matrix(0.927129 0.374742 -0.374742 0.927129 13726.9 19916.8)"/>
  </g>
  <g>
   <path class="NecklacePofil233new" d="M13133 19742c158,42 247,220 199,397 -47,177 -213,287 -371,244 -157,-42 -246,-220 -199,-397 48,-177 214,-286 371,-244z" style="fill:#8b8d50"/>
   <path class="NecklacePofil232new" d="M13344 20063c-1,25 -5,51 -12,76 -47,177 -213,287 -371,244 -157,-42 -246,-220 -199,-397 7,-25 16,-49 28,-71 -9,149 76,285 211,321 135,37 276,-39 343,-173z" style="fill:#7a0bc0"/>
   <ellipse class="NecklacePofil33new NecklacePostr4new" rx="236" ry="310" transform="matrix(1.20828 0.323757 -0.277653 1.03621 13047.3 20062.6)"/>
   <ellipse class="NecklacePofil83new" rx="99" ry="35" transform="matrix(0.798548 0.601932 -0.601932 0.798548 13161.8 19875.5)"/>
  </g>
  <g>
   <path class="NecklacePofil234new" d="M12628 19514c141,82 181,276 89,435 -92,159 -280,222 -421,140 -142,-81 -182,-276 -90,-435 92,-159 281,-221 422,-140z" style="fill:#73e411"/>
   <path class="NecklacePofil232new" d="M12748 19879c-8,24 -18,48 -31,70 -92,159 -280,222 -421,140 -142,-81 -182,-276 -90,-435 13,-22 28,-43 45,-62 -47,143 0,296 121,366 120,69 276,33 376,-79z" style="fill:#a7ed49"/>
   <ellipse class="NecklacePofil33new NecklacePostr4new" rx="236" ry="310" transform="matrix(1.08331 0.625451 -0.536383 0.929043 12461.5 19801.8)"/>
   <ellipse class="NecklacePofil83new" rx="99" ry="35" transform="matrix(0.615546 0.788101 -0.788101 0.615546 12620.5 19650.7)"/>
  </g>
  <g>
   <path class="NecklacePofil235new" d="M12224 19161c105,125 76,321 -65,439 -140,118 -339,112 -444,-12 -105,-125 -75,-322 65,-440 140,-118 339,-112 444,13z" style="fill:#df4ed7"/>
   <path class="NecklacePofil232new" d="M12212 19545c-15,20 -33,38 -53,55 -140,118 -339,112 -444,-12 -104,-125 -75,-322 65,-440 20,-16 41,-31 63,-43 -93,118 -101,278 -11,385 89,107 248,126 380,55z" style="fill:#a757db"/>
   <ellipse class="NecklacePofil33new NecklacePostr4new" rx="236" ry="310" transform="matrix(0.804064 0.958246 -0.821787 0.689561 11969.6 19374.3)"/>
   <ellipse class="NecklacePofil83new" rx="99" ry="35" transform="matrix(0.308878 0.951102 -0.951102 0.308878 12170.6 19286.7)"/>
  </g>
  <g>
   <path class="NecklacePofil236new" d="M11920 18653c82,141 19,329 -140,421 -159,92 -354,52 -435,-89 -81,-141 -19,-330 140,-422 159,-91 354,-51 435,90z" style="fill:#3a8dad"/>
   <path class="NecklacePofil232new" d="M11842 19029c-19,17 -39,32 -62,45 -159,92 -354,52 -435,-89 -81,-141 -19,-330 140,-422 23,-13 46,-23 70,-31 -112,100 -148,256 -78,377 70,121 223,167 365,120z" style="fill:#f4b547"/>
   <ellipse class="NecklacePofil33new NecklacePostr4new" rx="236" ry="310" transform="matrix(0.625451 1.08331 -0.929043 0.536383 11632.6 18818.7)"/>
   <ellipse class="NecklacePofil83new" rx="99" ry="35" transform="matrix(0.139029 0.990288 -0.990288 0.139029 11845.8 18767.3)"/>
  </g>
  <g>
   <path class="NecklacePofil237new" d="M11817 18127c28,160 -95,316 -276,348 -180,32 -350,-72 -378,-233 -28,-160 95,-316 276,-348 181,-32 350,72 378,233z" style="fill:#6318a2"/>
   <path class="NecklacePofil232new" d="M11615 18454c-23,9 -48,16 -74,21 -180,32 -350,-72 -378,-233 -28,-160 95,-316 276,-348 26,-4 51,-6 76,-5 -139,55 -226,189 -202,327 24,137 152,233 302,238z" style="fill:#98b9d9"/>
   <ellipse class="NecklacePofil33new NecklacePostr4new" rx="236" ry="310" transform="matrix(0.217217 1.2319 -1.05647 0.186284 11490.1 18184.5)"/>
   <ellipse class="NecklacePofil83new" rx="99" ry="35" transform="matrix(-0.208054 0.978117 -0.978117 -0.208054 11708.1 18209.2)"/>
  </g>
  <g>
   <path class="NecklacePofil238new" d="M11883 17607c-28,160 -198,264 -378,232 -181,-31 -304,-187 -276,-348 28,-160 198,-264 378,-232 181,31 304,187 276,348z" style="fill:#788cf5"/>
   <path class="NecklacePofil232new" d="M11581 17845c-25,1 -50,-1 -76,-6 -181,-31 -304,-187 -276,-348 28,-160 198,-264 378,-232 26,4 51,11 74,20 -150,5 -278,101 -302,239 -24,137 63,271 202,327z" style="fill:#d21c64"/>
   <ellipse class="NecklacePofil33new NecklacePostr4new" rx="236" ry="310" transform="matrix(-0.217217 1.2319 -1.05647 -0.186284 11556 17549)"/>
   <ellipse class="NecklacePofil83new" rx="99" ry="35" transform="matrix(-0.530043 0.847971 -0.847971 -0.530043 11752.3 17646.7)"/>
  </g>
  <path class="NecklacePofil239new" d="M14196 19742c-157,42 -246,220 -199,397 48,177 214,287 371,244 157,-42 247,-220 199,-397 -47,-177 -213,-286 -371,-244z" style="fill:#6b77f5"/>
  <path class="NecklacePofil232new" d="M13991 19991c-5,24 -8,50 -8,76 -1,183 130,333 293,334 163,1 296,-147 297,-331 0,-26 -3,-51 -8,-76 -31,147 -149,255 -288,255 -140,-1 -256,-111 -286,-258z" style="fill:#6857b2"/>
  <ellipse class="NecklacePofil33new NecklacePostr4new" rx="236" ry="310" transform="matrix(-1.20828 0.323757 0.277653 1.03621 14282.2 20062.6)"/>
  <ellipse class="NecklacePofil83new" rx="99" ry="35" transform="matrix(0.90822 0.418492 -0.418492 0.90822 14328.7 19856.1)"/>
  <path class="NecklacePofil240new" d="M14702 19514c-141,82 -181,276 -89,435 91,159 280,222 421,140 141,-81 181,-276 89,-435 -91,-159 -280,-221 -421,-140z" style="fill:#c596a8"/>
  <path class="NecklacePofil232new" d="M14624 19662c-11,23 -19,47 -26,72 -44,178 48,354 206,394 158,40 322,-73 366,-250 7,-26 10,-51 11,-76 -65,135 -205,212 -340,178 -136,-34 -223,-168 -217,-318z" style="fill:#cdc90f"/>
  <ellipse class="NecklacePofil33new NecklacePostr4new" rx="236" ry="310" transform="matrix(-1.08331 0.625451 0.536383 0.929043 14867.9 19801.8)"/>
  <ellipse class="NecklacePofil83new" rx="99" ry="35" transform="matrix(0.942645 0.333796 -0.333796 0.942645 14906 19595.2)"/>
  <path class="NecklacePofil241new" d="M15106 19161c-105,125 -76,321 64,439 141,118 340,112 444,-12 105,-125 76,-322 -65,-440 -140,-118 -339,-112 -443,13z" style="fill:#ea4f18"/>
  <path class="NecklacePofil232new" d="M15175 19130c-17,18 -33,38 -46,61 -95,157 -60,352 79,437 140,84 330,26 425,-131 13,-22 24,-46 33,-69 -103,109 -259,142 -379,70 -119,-73 -162,-227 -112,-368z" style="fill:#d9c9a5"/>
  <ellipse class="NecklacePofil33new NecklacePostr4new" rx="236" ry="310" transform="matrix(-0.804064 0.958246 0.821787 0.689561 15359.9 19374.3)"/>
  <ellipse class="NecklacePofil83new" rx="99" ry="35" transform="matrix(0.976554 0.215272 0.215272 -0.976554 15372.5 19170.1)"/>
  <path class="NecklacePofil242new" d="M15409 18653c-81,141 -18,329 140,421 159,92 354,52 435,-89 82,-141 19,-330 -140,-422 -158,-91 -353,-51 -435,90z" style="fill:#dbc30f"/>
  <path class="NecklacePofil232new" d="M15564 18537c-21,13 -42,28 -61,46 -134,125 -152,323 -41,442 111,119 310,114 444,-11 19,-18 36,-37 50,-57 -128,77 -288,67 -383,-35 -95,-102 -95,-263 -9,-385z" style="fill:#ab6a41"/>
  <ellipse class="NecklacePofil33new NecklacePostr4new" rx="236" ry="310" transform="matrix(-0.625451 1.08331 0.929043 0.536383 15696.9 18818.7)"/>
  <ellipse class="NecklacePofil83new" rx="99" ry="35" transform="matrix(0.959499 0.28171 0.28171 -0.959499 15741.8 18623)"/>
  <path class="NecklacePofil243new" d="M15512 18127c-28,160 96,316 276,348 181,32 350,-72 378,-233 29,-160 -95,-316 -275,-348 -181,-32 -350,72 -379,233z" style="fill:#00bee9"/>
  <path class="NecklacePofil232new" d="M15772 17880c-24,8 -47,19 -70,33 -157,94 -216,284 -132,424 84,139 279,176 436,81 23,-13 43,-29 62,-46 -142,50 -296,6 -368,-114 -72,-119 -38,-276 72,-378z" style="fill:#101e31"/>
  <ellipse class="NecklacePofil33new NecklacePostr4new" rx="236" ry="310" transform="matrix(-0.217217 1.2319 1.05647 0.186284 15839.4 18184.5)"/>
  <ellipse class="NecklacePofil83new" rx="99" ry="35" transform="matrix(0.864464 0.502695 0.502695 -0.864464 15954.5 18020.5)"/>
  <path class="NecklacePofil244new" d="M15447 17607c28,160 197,264 378,232 180,-31 304,-187 276,-348 -29,-160 -198,-264 -379,-232 -180,31 -304,187 -275,348z" style="fill:#1c36b6"/>
  <path class="NecklacePofil232new" d="M15810 17262c-25,-1 -50,1 -76,5 -180,32 -304,188 -276,348 29,161 198,265 379,233 25,-5 50,-12 73,-21 -150,-4 -278,-101 -302,-238 -24,-138 63,-272 202,-327z" style="fill:#1f1fd6"/>
  <ellipse class="NecklacePofil33new NecklacePostr4new" rx="236" ry="310" transform="matrix(0.217217 1.2319 1.05647 -0.186284 15773.5 17549)"/>
  <ellipse class="NecklacePofil83new" rx="99" ry="35" transform="matrix(0.530043 0.847971 0.847971 -0.530043 15968.5 17452.5)"/>
  <path class="NecklacePofil245new NecklacePostr3new" d="M13665 22242c101,0 191,4 286,-17 103,-23 190,-66 265,-125 20,-16 43,-38 62,-55l31 -28c30,-26 64,-58 93,-83l61 -55c14,-13 28,-25 42,-37 48,-47 92,-115 106,-207 14,-97 -13,-181 -53,-252 -18,-34 -37,-67 -55,-100 -19,-36 -38,-68 -55,-101 -18,-35 -37,-69 -55,-101 -10,-18 -18,-34 -27,-50l-28 -52c53,-23 110,-72 128,-131 10,-37 4,-78 -10,-109 -21,-47 -49,-78 -84,-110 -11,-10 -24,-20 -37,-29 -81,-53 -165,-52 -234,17 -7,7 -25,26 -29,36 -11,-1 -45,-16 -88,-21 -34,-3 -70,-2 -105,-2l-214 0 -214 0c-35,0 -72,-1 -106,2 -42,5 -77,20 -87,21 -5,-10 -22,-29 -29,-36 -69,-69 -153,-70 -235,-17 -13,9 -26,19 -36,29 -35,32 -64,63 -84,110 -14,31 -21,72 -10,109 17,59 74,108 127,131l-27 52c-9,16 -18,32 -27,50 -19,32 -38,66 -56,101 -17,33 -36,65 -55,101 -18,33 -36,66 -55,100 -39,71 -67,155 -52,252 13,92 58,160 106,207 13,12 27,24 41,37l62 55c29,25 63,57 92,83l31 28c20,17 42,39 63,55 74,59 162,102 264,125 96,21 186,17 287,17z" style="fill:#2f036e"/>
  <path class="NecklacePofil246new" d="M13665 22242c101,0 191,4 286,-17 103,-23 190,-66 265,-125 20,-16 43,-38 62,-55l31 -28c30,-26 64,-58 93,-83l61 -55c14,-13 28,-25 42,-37 12,-12 24,-25 35,-40l-30 27c-29,25 -62,57 -92,83l-31 28c-20,17 -42,39 -62,55 -75,59 -163,102 -265,124 -96,22 -185,18 -286,18 -101,0 -191,4 -287,-18 -102,-22 -190,-65 -265,-124 -20,-16 -42,-38 -62,-55l-31 -28c-30,-26 -63,-58 -92,-83l-62 -56c-14,-12 -28,-24 -41,-37 -48,-46 -93,-114 -106,-206 -15,-97 13,-181 52,-252 19,-34 37,-67 55,-101 19,-35 38,-68 55,-101 18,-34 37,-68 55,-100 10,-18 18,-34 28,-50l27 -52c-53,-23 -110,-72 -127,-131 -11,-37 -4,-78 9,-109 7,-15 14,-28 22,-39 -3,1 -7,3 -10,5 -13,9 -26,19 -36,29 -35,32 -64,63 -84,110 -14,31 -21,72 -10,109 17,59 74,108 127,131l-27 52c-9,16 -18,32 -27,50 -19,32 -38,66 -56,101 -17,33 -36,65 -55,101 -18,33 -36,66 -55,100 -39,71 -67,155 -52,252 13,92 58,160 106,207 13,12 27,24 41,37l62 55c29,25 63,57 92,83l31 28c20,17 42,39 63,55 74,59 162,102 264,125 96,21 186,17 287,17zm786 -1360c2,-4 5,-9 7,-13 -4,2 -8,4 -11,5l4 8z" style="fill:#10c172"/>
  <g>
   <path class="NecklacePofil247new" d="M14032 21221c80,-10 148,55 156,125 10,80 -54,148 -125,157 -82,11 -147,-55 -157,-125 -11,-81 56,-149 126,-157z" style="fill:#390c68"/>
   <path class="NecklacePofil247new" d="M13298 21221c-81,-10 -148,55 -157,125 -10,80 55,148 125,157 83,11 148,-55 158,-125 11,-81 -56,-149 -126,-157z" style="fill:#b3f8b4"/>
  </g>
  <path class="NecklacePofil247new" d="M13665 21539c34,0 128,-2 156,3 64,10 111,48 141,98l90 149c23,37 13,94 -9,125 -11,16 -23,26 -41,38 -44,30 -99,75 -145,95 -29,14 -92,31 -130,29 -2,-10 0,-124 0,-144 0,-28 2,-18 17,-36l44 -48c10,-12 25,-21 29,-42 5,-24 -5,-43 -17,-54 -16,-14 -36,-11 -61,-11l-74 0 -74 0c-25,0 -45,-3 -61,11 -13,11 -23,30 -18,54 5,21 19,30 29,42l44 48c16,18 18,8 18,36 0,20 1,134 -1,144 -38,2 -100,-15 -130,-29 -45,-20 -101,-65 -144,-95 -18,-12 -30,-22 -42,-38 -21,-31 -32,-88 -9,-125l91 -149c30,-50 77,-88 141,-98 28,-5 121,-3 156,-3z" style="fill:#4da4e8"/>
  <g>
   <path class="NecklacePofil31new" d="M14158 21448c-20,48 -66,82 -115,89 -82,10 -148,-56 -157,-125 -6,-39 7,-75 29,-102 -9,21 -13,44 -9,68 10,70 75,136 157,125 37,-5 71,-25 95,-55z" style="fill:#cb93bf"/>
   <path class="NecklacePofil31new" d="M13152 21309c-17,21 -28,45 -31,71 -10,80 55,148 125,157 67,8 123,-34 147,-88 -29,37 -74,61 -127,54 -70,-9 -135,-77 -125,-157 2,-13 5,-25 11,-37z" style="fill:#9efc56"/>
  </g>
  <ellipse class="NecklacePofil83new" cx="13665" cy="20754" rx="435" ry="33"/>
  <path class="NecklacePofil248new" d="M14022 21937c-2,2 -3,4 -4,6 -12,17 -24,26 -42,38 -43,30 -99,75 -144,96 -30,13 -92,31 -130,28 -2,-10 -1,-123 -1,-144 0,-27 2,-17 18,-36l9 -9c-1,3 -1,8 -1,16 0,20 -2,134 0,144 38,2 101,-15 130,-29 46,-20 101,-65 145,-95 7,-5 14,-10 20,-15zm-236 -87c3,-4 5,-9 6,-15 5,-23 -5,-43 -18,-53 -16,-15 -36,-12 -61,-12l-74 0 -74 0c-20,0 -37,-2 -51,5 4,-9 9,-17 16,-23 16,-14 36,-11 61,-11l74 0 74 0c25,0 45,-3 61,11 12,11 22,30 17,54 -4,21 -19,30 -29,42l-2 2zm-208 225c0,16 -1,27 -1,30 -38,3 -101,-15 -130,-28 -46,-21 -101,-66 -145,-96 -18,-12 -30,-21 -41,-38 -22,-31 -32,-88 -9,-125l91 -149c10,-17 22,-32 36,-46 -4,5 -8,11 -11,17l-91 149c-23,37 -12,94 9,125 12,16 24,26 42,38 43,30 99,75 144,95 24,11 69,24 106,28z" style="fill:#d15f17"/>
  <ellipse class="NecklacePofil84new" cx="13665" cy="20544" rx="140" ry="128"/>
 </g><g id="BraceletSteel-Medium">
 <animateTransform additive="sum" attributeName="transform" dur="10" repeatCount="indefinite" type="translate" values="0;0 200;0;0 200;0;0 200;0;0 200;0"/>
  <metadata id="CorelCorpID_19Corel-Layer"/>
  <path class="BraceletSteel-Mediumfil57new BraceletSteel-Mediumstr4new" d="M8743 19983c-151,-67 -236,-210 -167,-360 70,-150 216,-158 370,-99 394,150 1163,722 1389,1066 91,139 106,280 -23,383 -130,103 -302,47 -400,-86 -244,-332 -771,-729 -1169,-904z" style="fill:#a74f35"/>
  <path class="BraceletSteel-Mediumfil58new BraceletSteel-Mediumstr4new" d="M18621 19983c151,-67 236,-210 167,-360 -70,-150 -216,-158 -371,-99 -393,150 -1162,722 -1389,1066 -90,139 -105,280 24,383 130,103 302,47 400,-86 244,-332 771,-729 1169,-904z" style="fill:#bd6789"/>
 </g><g id="Head-Cat6">
 <animateTransform additive="sum" attributeName="transform" dur="10" repeatCount="indefinite" type="translate" values="0;0 200;0;0 200;0;0 200;0;0 200;0"/>
  <path class="Head-Cat6fil146" d="M13682 7485c-2521,3 -5132,2484 -5949,5018 -118,367 -230,774 -326,1125 -129,478 -261,1233 -57,1376 171,119 359,-38 620,-29 -308,228 -793,634 -552,962 191,261 484,-94 850,6 -260,75 -554,406 -478,616 56,156 245,231 536,249 1052,64 2116,663 2883,887 772,225 1635,292 2473,292 838,0 1701,-67 2473,-292 767,-224 1831,-823 2883,-887 291,-18 480,-93 536,-249 76,-210 -218,-541 -479,-616 367,-100 660,255 851,-6 241,-328 -244,-734 -552,-962 261,-9 449,148 619,29 205,-143 73,-898 -57,-1376 -95,-351 -207,-758 -325,-1125 -817,-2534 -3428,-5015 -5949,-5018z" style="fill:#03ccf6"/>
  <path class="Head-Cat6fil147" d="M13682 17334c-1261,0 -1373,-595 -2351,-806 -838,-181 -309,-784 -431,-759 -349,37 -532,-37 -487,-454 36,-339 599,-1260 1989,-1722 505,-169 805,-524 1280,-524 475,0 775,355 1280,524 1390,462 1953,1383 1989,1722 44,417 -138,491 -487,454 -122,-25 407,578 -431,759 -978,211 -1090,806 -2351,806z" style="fill:#351d32"/>
  <path class="Head-Cat6fil32" d="M8220 11366c-215,492 -436,1198 -587,1726 -55,193 -106,381 -153,555 -73,270 -147,630 -159,912 -8,190 10,340 72,384 74,51 166,28 274,1 90,-23 189,-48 305,-43 42,1 74,36 72,77 0,24 -12,44 -30,57l0 0c-150,111 -342,265 -466,429 -111,146 -165,299 -70,429 74,100 186,65 321,22 142,-44 303,-95 489,-44 40,11 64,52 53,92 -8,28 -31,48 -57,54 -7,2 -14,4 -21,6 -110,40 -226,129 -307,231 -75,95 -120,197 -98,272 1,3 2,6 2,8 21,57 69,101 141,133 82,37 193,58 329,66 722,44 1443,333 2074,586 169,68 932,401 1536,530 -578,0 -1433,-328 -1591,-391 -621,-249 -1330,-533 -2027,-575 -154,-10 -283,-35 -382,-79 -110,-49 -185,-121 -220,-220 -2,-6 -4,-11 -6,-16 -36,-127 21,-277 125,-407 40,-51 88,-99 140,-142 -47,11 -92,26 -136,39 -189,60 -349,110 -486,-77 -145,-198 -77,-411 71,-608 77,-101 177,-198 278,-284l-2 0c-144,36 -267,67 -396,-24 -112,-78 -146,-274 -136,-512 12,-296 88,-667 163,-945 48,-176 100,-367 154,-557 137,-480 453,-1301 731,-1685z" style="fill:#72fb34"/>
  <path class="Head-Cat6fil14" d="M8151 11499c-168,330 -309,667 -418,1004 -118,367 -230,774 -326,1125 -129,478 -261,1233 -57,1376 171,119 359,-38 620,-29 -308,228 -793,634 -552,962 191,261 484,-94 850,6 -260,75 -554,406 -478,616 56,156 245,231 536,249 1052,64 2116,663 2883,887 92,27 186,50 281,72 116,21 224,41 320,62l0 0c-1756,-505 -2871,-1266 -3394,-2304 -572,-1138 -535,-2592 -265,-4026z" style="fill:#865c96"/>
  <path class="Head-Cat6fil32" d="M19144 11366c215,492 436,1198 586,1726 56,193 107,381 154,555 73,270 147,630 159,912 8,190 -10,340 -72,384 -74,51 -166,28 -274,1 -90,-23 -189,-48 -305,-43 -42,1 -74,36 -73,77 1,24 13,44 31,57l0 0c149,111 342,265 466,429 111,146 165,299 70,429 -74,100 -187,65 -321,22 -142,-44 -303,-95 -489,-44 -40,11 -64,52 -53,92 8,28 30,48 57,54 7,2 14,4 21,6 110,40 226,129 307,231 75,95 120,197 98,272 -1,3 -2,6 -2,8 -21,57 -69,101 -141,133 -82,37 -193,58 -330,66 -721,44 -1442,333 -2073,586 -170,68 -932,401 -1536,530 578,0 1433,-328 1591,-391 621,-249 1330,-533 2027,-575 154,-10 283,-35 382,-79 110,-49 185,-121 220,-220 2,-6 4,-11 6,-16 36,-127 -22,-277 -125,-407 -40,-51 -88,-99 -140,-142 47,11 92,26 136,39 189,60 348,110 485,-77 146,-198 78,-411 -70,-608 -77,-101 -177,-198 -278,-284l2 0c144,36 266,67 396,-24 112,-78 146,-274 136,-512 -12,-296 -88,-667 -163,-945 -48,-176 -100,-367 -154,-557 -138,-480 -453,-1301 -731,-1685z" style="fill:#1e52ef"/>
  <path class="Head-Cat6fil32" d="M13682 7560c-408,0 -767,56 -1102,149 -949,262 -2036,899 -2715,1499 604,-730 1714,-1378 2675,-1644 348,-96 720,-154 1142,-154 421,0 794,58 1141,154 962,266 2072,914 2676,1644 -679,-600 -1766,-1237 -2715,-1499 -335,-93 -694,-149 -1102,-149z" style="fill:#8e3107"/>
 </g><g id="Mouth-Cat5">
 <animateTransform additive="sum" attributeName="transform" dur="10" repeatCount="indefinite" type="translate" values="0;0 200;0;0 200;0;0 200;0;0 200;0"/>
  <path class="Mouth-Cat5fil22 Mouth-Cat5str0" d="M11908 14966c780,535 1743,2 1774,-947" style="fill:#e2e508"/>
  <path class="Mouth-Cat5fil22 Mouth-Cat5str0" d="M15456 14966c-780,535 -1744,2 -1774,-947" style="fill:#47bd7b"/>
  <path class="Mouth-Cat5fil14" d="M12069 15119c541,462 1040,93 1613,93 573,0 1072,369 1613,-93 -656,240 -1225,-225 -1613,-139 -388,-86 -957,379 -1613,139z" style="fill:#ddae54"/>
  <path class="Mouth-Cat5fil100" d="M13682 14980c205,0 478,94 587,143 -218,-227 -450,-555 -587,-776 -137,221 -369,549 -588,776 110,-49 383,-143 588,-143z" style="fill:#e79121"/>
  <path class="Mouth-Cat5fil152 Mouth-Cat5str4" d="M12627 15193c36,130 310,431 404,401 91,-23 231,-419 214,-630 -168,118 -400,199 -618,229z" style="fill:#6b0d48"/>
  <path class="Mouth-Cat5fil152 Mouth-Cat5str4" d="M14737 15193c-36,130 -310,431 -404,401 -91,-23 -231,-419 -215,-630 169,118 400,199 619,229z" style="fill:#2d5213"/>
 </g><g id="WeaponBflyNet-Medium">
 <animateTransform additive="sum" attributeName="transform" dur="10" repeatCount="indefinite" type="translate" values="0;0 200;0;0 200;0;0 200;0;0 200;0"/>
  <metadata id="CorelCorpID_7Corel-Layer"/>
  <path class="WeaponBflyNet-Mediumfil13" d="M9944 24239c-1031,247 -2610,1424 -2409,1744 202,321 807,-308 2195,-285 1388,24 3318,548 4389,475 1072,-73 2527,-605 2527,-1008 0,-404 -664,-890 -664,-890l-1329 -819 -1589 -545 -1246 35c-312,696 -844,1047 -1874,1293z" style="fill:#76aaac"/>
  <path class="WeaponBflyNet-Mediumfil14 WeaponBflyNet-Mediumstr2" d="M12208 23611c1081,-10 2699,732 3400,1560" style="fill:#015073"/>
  <path class="WeaponBflyNet-Mediumfil14 WeaponBflyNet-Mediumstr2" d="M15001 25038c361,-118 643,-350 896,-735" style="fill:#f460be"/>
  <path class="WeaponBflyNet-Mediumfil14 WeaponBflyNet-Mediumstr2" d="M14199 24735c361,-118 799,-594 993,-1009" style="fill:#6d94fe"/>
  <path class="WeaponBflyNet-Mediumfil14 WeaponBflyNet-Mediumstr2" d="M13338 24354c351,-256 662,-654 857,-1068" style="fill:#0545bb"/>
  <path class="WeaponBflyNet-Mediumfil14 WeaponBflyNet-Mediumstr2" d="M12448 23933c351,-255 662,-653 856,-1068" style="fill:#c64223"/>
  <path class="WeaponBflyNet-Mediumfil14 WeaponBflyNet-Mediumstr3" d="M9944 24239c-1031,247 -2610,1424 -2409,1744 202,321 807,-308 2195,-285 1388,24 3289,510 4389,475 1101,-35 2500,-626 2500,-1029 0,-404 -637,-869 -637,-869l-1329 -819 -1589 -545 -1246 35c-312,696 -844,1047 -1874,1293z" style="fill:#1bca56"/>
  <path class="WeaponBflyNet-Mediumfil15 WeaponBflyNet-Mediumstr0" d="M12035 22910c-60,107 -121,213 -181,320 -796,-450 -1593,-899 -2390,-1348 -25,-155 36,-261 180,-320 797,449 1594,899 2391,1348z" style="fill:#bf9fc6"/>
  <path class="WeaponBflyNet-Mediumfil14 WeaponBflyNet-Mediumstr2" d="M7552 25924c388,-461 1369,-846 2240,-977 1201,-181 2132,-581 2417,-1260" style="fill:#afed91"/>
  <path class="WeaponBflyNet-Mediumfil3" d="M11925 23104l-71 126c-796,-450 -1593,-899 -2390,-1348 -14,-83 -2,-151 33,-206l2428 1428z" style="fill:#1b7d9e"/>
  <path class="WeaponBflyNet-Mediumfil14 WeaponBflyNet-Mediumstr2" d="M13504 26144c892,-24 1786,-100 2461,-823" style="fill:#ca0d04"/>
  <path class="WeaponBflyNet-Mediumfil14 WeaponBflyNet-Mediumstr2" d="M11549 25873c1214,-25 2062,57 3174,-816" style="fill:#33cf96"/>
  <path class="WeaponBflyNet-Mediumfil14 WeaponBflyNet-Mediumstr2" d="M7630 26002c382,-247 1117,-495 1934,-589 1497,-171 3030,135 3829,-826" style="fill:#3aad0e"/>
  <path class="WeaponBflyNet-Mediumfil16 WeaponBflyNet-Mediumstr1" d="M14530 23222c1360,601 2301,1453 2101,1904 -199,452 -1463,331 -2822,-269 -1360,-600 -2301,-1452 -2102,-1904 200,-451 1463,-331 2823,269zm-2073 437c425,367 973,670 1485,896 512,226 1105,426 1663,494 853,103 929,-68 277,-629 -426,-366 -973,-670 -1485,-896 -512,-226 -1105,-425 -1663,-493 -854,-103 -929,67 -277,628z" style="fill:#46a2bc"/>
  <path class="WeaponBflyNet-Mediumfil3" d="M16555 25232c-345,321 -1506,173 -2746,-375 -1360,-600 -2301,-1452 -2102,-1904 38,-86 115,-151 223,-196 -33,31 -59,66 -76,106 -199,451 742,1303 2101,1903 1101,486 2139,658 2600,466zm-318 -112c15,-47 65,-258 5,-340 -71,-95 -191,-214 -360,-360 -426,-366 -973,-670 -1485,-896 -512,-226 -1105,-425 -1663,-493 -257,-31 -443,-37 -560,-16 33,-108 266,-128 706,-75 558,68 1151,268 1663,494 513,226 1060,529 1486,896 171,147 292,267 362,363 116,159 17,396 -154,427z" style="fill:#6063bb"/>
  <path class="WeaponBflyNet-Mediumfil14 WeaponBflyNet-Mediumstr2" d="M11269 23733c142,1272 2907,2208 4031,2233" style="fill:#32542c"/>
  <path class="WeaponBflyNet-Mediumfil14 WeaponBflyNet-Mediumstr2" d="M10476 24127c-23,1341 1755,1969 3097,2026" style="fill:#9b5031"/>
  <path class="WeaponBflyNet-Mediumfil14 WeaponBflyNet-Mediumstr2" d="M9671 24329c-323,500 220,1274 858,1420" style="fill:#7f0f84"/>
  <path class="WeaponBflyNet-Mediumfil14 WeaponBflyNet-Mediumstr2" d="M8801 24747c-190,293 -4,865 395,962" style="fill:#50a7d5"/>
  <path class="WeaponBflyNet-Mediumfil14 WeaponBflyNet-Mediumstr2" d="M8109 25223c-267,258 -33,735 247,682" style="fill:#73513f"/>
 </g><g id="Eyes-Cat8">
 <animateTransform additive="sum" attributeName="transform" dur="10" repeatCount="indefinite" type="translate" values="0;0 200;0;0 200;0;0 200;0;0 200;0"/>
  <path class="Eyes-Cat8fil196" d="M9474 14450c774,527 1711,317 2213,51 860,-457 159,-3080 -754,-3249 -668,-124 -1272,129 -1702,623 -908,1044 -307,2200 243,2575z"/>
  <g>
        <animateTransform additive="sum" attributeName="transform" dur="3" repeatCount="indefinite" type="translate" values="0;-2150 1925;0"/>
        <g>
            <animateTransform additive="sum" attributeName="transform" dur="3" repeatCount="indefinite" type="rotate" values="0;-10;0"/>
            <path class="Eyes-Cat8fil197" d="M12085 13633c-4,-78 -11,-157 -22,-237l-1385 -569 1395 982c6,-42 10,-131 12,-176zm-1422 -824l1306 204c15,-1385 -1038,-258 -1312,-223 -19,3 -23,66 -34,57l-1206 -1047 -226 142 -50 56 1483 867c43,5 42,-30 39,-56zm-1722 -478c-55,94 -110,299 -141,392l1794 138 -1653 -530zm-159 737c-6,101 5,270 19,365l1801 -557 -1820 192zm157 748c48,115 108,221 176,315l1510 -1249 -1686 934zm516 599c25,19 95,56 120,72 63,41 160,96 225,126l840 -1726 -1185 1528zm748 312c114,24 274,44 387,49l69 -1899 -456 1850zm749 -4c105,-14 278,-67 373,-92l-651 -1762 278 1854zm719 -229c22,-10 70,-27 90,-37 84,-43 152,-106 205,-186l-1286 -1423 991 1646z"/>
        </g>
    </g>
    <path class="Eyes-Cat8fil157" d="M12064 13787c104,-940 -455,-2410 -1131,-2535 -668,-124 -1272,129 -1702,623 -280,321 -448,805 -473,1309 437,-844 1304,-1386 1945,-1281 910,148 1203,837 1349,1941 5,-19 9,-38 12,-57z"/>
  
  
  <path class="Eyes-Cat8fil22 Eyes-Cat8str4" d="M9474 14450c774,527 1711,317 2213,51 860,-457 159,-3080 -754,-3249 -668,-124 -1272,129 -1702,623 -908,1044 -307,2200 243,2575z"/>
  <path class="Eyes-Cat8fil152" d="M9075 13282c-120,779 747,1349 1178,1226 -441,-98 -1005,-605 -1178,-1226z"/>
  <path class="Eyes-Cat8fil175" d="M17889 14450c-773,527 -1710,317 -2212,51 -860,-457 -159,-3080 754,-3249 667,-124 1272,129 1702,623 908,1044 307,2200 -244,2575z"/>
  <g>
        <animateTransform additive="sum" attributeName="transform" dur="3" repeatCount="indefinite" type="translate" values="0;2550 -2800;0"/>
        <g>
            <animateTransform additive="sum" attributeName="transform" dur="3" repeatCount="indefinite" type="rotate" values="0;10;0"/>
            <path class="Eyes-Cat8fil199" d="M15279 13633c4,-78 11,-157 22,-237l1384 -569 -1394 982c-6,-42 -10,-131 -12,-176zm1422 -824l-1306 204c-15,-1385 1038,-258 1312,-223 19,3 23,66 34,57l1205 -1047 227 142 49 56 -1482 867c-44,5 -43,-30 -39,-56zm1722 -478c54,94 110,299 141,392l-1795 138 1654 -530zm158 737c7,101 -4,270 -18,365l-1802 -557 1820 192zm-156 748c-48,115 -108,221 -176,315l-1510 -1249 1686 934zm-516 599c-25,19 -95,56 -120,72 -63,41 -160,96 -225,126l-840 -1726 1185 1528zm-749 312c-113,24 -273,44 -386,49l-69 -1899 455 1850zm-748 -4c-105,-14 -278,-67 -373,-92l651 -1762 -278 1854zm-719 -229c-23,-10 -70,-27 -90,-37 -84,-43 -152,-106 -205,-186l1286 -1423 -991 1646z"/>
        </g>
    </g>
    <path class="Eyes-Cat8fil157" d="M15300 13787c-104,-940 455,-2410 1131,-2535 667,-124 1272,129 1702,623 279,321 448,805 473,1309 -437,-844 -1305,-1386 -1945,-1281 -910,148 -1203,837 -1350,1941 -4,-19 -8,-38 -11,-57z"/>
  
  
  <path class="Eyes-Cat8fil22 Eyes-Cat8str4" d="M17889 14450c-773,527 -1710,317 -2212,51 -860,-457 -159,-3080 754,-3249 667,-124 1272,129 1702,623 908,1044 307,2200 -244,2575z"/>
  <path class="Eyes-Cat8fil152" d="M18289 13282c120,779 -748,1349 -1178,1226 441,-98 1005,-605 1178,-1226z"/>
  <path class="Eyes-Cat8fil155" d="M9990 10495c140,23 215,-177 743,-324 485,-136 785,-40 887,-207 113,-185 -179,-814 -451,-869 -829,-167 -1597,1331 -1179,1400z"/>
  <path class="Eyes-Cat8fil14" d="M9990 10495c140,23 215,-177 743,-324 485,-136 785,-40 887,-207 113,-185 -179,-814 -451,-869 -829,-167 -1597,1331 -1179,1400z"/>
  <path class="Eyes-Cat8fil155" d="M17374 10495c-140,23 -215,-177 -743,-324 -485,-136 -785,-40 -887,-207 -113,-185 179,-814 451,-869 829,-167 1597,1331 1179,1400z"/>
  <path class="Eyes-Cat8fil14" d="M17374 10495c-140,23 -215,-177 -743,-324 -485,-136 -785,-40 -887,-207 -113,-185 179,-814 451,-869 829,-167 1597,1331 1179,1400z"/>
 <g>
    <animateTransform additive="sum" attributeName="transform" dur="0.01" repeatCount="indefinite" type="translate" values="0;35;0"/>
    <path class="Eyes-Cat8fil200" d="M16977 11454c-636,-148 -1274,284 -1425,964 -151,680 242,1352 878,1500 636,148 1274,-283 1425,-963 151,-681 -243,-1352 -878,-1501z"/>
    <path class="Eyes-Cat8fil198" d="M10387 11454c636,-148 1274,284 1425,964 151,680 -242,1352 -878,1500 -636,148 -1274,-283 -1425,-963 -151,-681 242,-1352 878,-1501z"/>
    <circle class="Eyes-Cat8fil152" r="235" transform="matrix(1.22514 -2.21383 1.7662 0.793529 9921.7 12323)"/>
    <circle class="Eyes-Cat8fil152" r="235" transform="matrix(0.511451 -0.0476309 0.0595148 0.521886 11438.1 13408.2)"/>
    <circle class="Eyes-Cat8fil152" r="235" transform="matrix(0.554042 -1.05186 0.853042 0.366906 11593.1 13902.9)"/>
    <circle class="Eyes-Cat8fil152" r="235" transform="matrix(0.805222 -2.39867 1.88046 0.461536 16282.1 12323)"/>
    <circle class="Eyes-Cat8fil152" r="235" transform="matrix(0.511451 -0.0476309 0.0595148 0.521886 17490.7 13251.8)"/>
    <circle class="Eyes-Cat8fil152" r="235" transform="matrix(0.554042 -1.05186 0.853042 0.366906 17645.7 13746.5)"/>
  </g>
 </g><g id="Moustache-Cat0">
 <animateTransform additive="sum" attributeName="transform" dur="10" repeatCount="indefinite" type="translate" values="0;0 200;0;0 200;0;0 200;0;0 200;0"/>
  <rect class="Moustache-Cat0fil22" height="1459" width="1352" x="13006" y="11962"/>
 </g><g id="AccessoryFlaskWithWater">
  <metadata id="CorelCorpID_4Corel-Layer"/>
  <g id="_3081300005968">
   <path class="AccessoryFlaskWithWaterfil78 AccessoryFlaskWithWaterstr1" d="M3672 22908c-76,-75 -537,-519 -628,-419 -1100,1197 -535,2014 -228,2459 118,171 208,301 208,435 0,213 -140,319 -524,319 -299,0 -1003,213 -1376,432 -37,21 -69,42 -94,60 213,65 667,95 1476,61 1632,-67 2345,-221 2822,-324 579,-125 831,-180 1821,51 309,72 1091,-57 1555,-249 94,-39 171,-79 221,-118 -24,-12 -59,-27 -107,-46 -91,-36 -329,-37 -601,-39 -512,-4 -1128,-8 -1438,-269 -772,-649 -903,-1805 -958,-2287 -10,-83 -16,-144 -20,-158 -38,-138 -79,165 -240,202 -600,138 -1543,354 -1889,-110zm-922 -690c382,-416 1212,415 1214,418l0 0c8,8 16,17 23,28 182,264 980,81 1485,-35 377,-86 650,-149 713,82 13,49 22,121 33,219 49,436 168,1480 818,2027 199,168 736,171 1183,174 311,3 585,4 743,66 206,80 322,181 369,292 62,152 12,288 -120,407 -83,75 -207,144 -355,205 -522,216 -1426,357 -1797,270 -903,-210 -1129,-161 -1647,-49 -488,105 -1218,263 -2891,332 -966,40 -1487,-16 -1716,-119 -238,-107 -289,-262 -206,-443 49,-107 167,-210 324,-302 421,-248 1228,-488 1577,-488 91,0 124,135 124,81 0,-12 -59,-97 -136,-209 -371,-537 -1053,-1523 262,-2956zm6212 3422c3,9 4,12 0,1l0 -1z" style="fill:#700ae3"/>
   <path class="AccessoryFlaskWithWaterfil79" d="M4884 25502l921 0c594,0 756,-1525 756,-1964 0,-665 -223,-1186 -542,-1505 -407,-407 -751,-724 -751,-1269 -166,-13 -283,-15 -384,-13 -101,-2 -219,0 -384,13 0,545 -345,862 -752,1269 -319,319 -542,840 -542,1505 0,439 162,1964 756,1964l922 0z" style="fill:#d5a8ca"/>
   <path class="AccessoryFlaskWithWaterfil1" d="M4590 20758c-29,1 -59,3 -90,6 0,545 -345,862 -752,1269 -319,319 -542,840 -542,1505 0,439 162,1964 756,1964l452 0c-515,-276 -808,-1460 -808,-1883 0,-730 -15,-1290 335,-1640 347,-347 568,-769 649,-1221z" style="fill:#c6c5a1"/>
   <path class="AccessoryFlaskWithWaterfil2 AccessoryFlaskWithWaterstr4" d="M4884 25502l921 0c594,0 756,-1525 756,-1964 0,-665 -223,-1186 -542,-1505 -407,-407 -751,-724 -751,-1269 -166,-13 -283,-15 -384,-13 -101,-2 -219,0 -384,13 0,545 -345,862 -752,1269 -319,319 -542,840 -542,1505 0,439 162,1964 756,1964l922 0z" style="fill:#f763c3"/>
   <path class="AccessoryFlaskWithWaterfil80" d="M4884 20994c198,0 481,-17 653,-52 0,-82 -125,-251 -125,-338 0,-334 0,-425 0,-739 0,-150 -319,-158 -528,-158 -210,0 -529,8 -529,158 0,314 0,405 0,739 0,87 -125,256 -125,338 172,35 455,52 654,52z" style="fill:#67a9d0"/>
   <path class="AccessoryFlaskWithWaterfil48" d="M4884 20994c198,0 481,-17 653,-52 0,-58 -62,-158 -99,-243 -169,23 -390,35 -554,35 -165,0 -386,-12 -555,-35 -37,85 -99,185 -99,243 172,35 455,52 654,52z" style="fill:#8bc266"/>
   <path class="AccessoryFlaskWithWaterfil2 AccessoryFlaskWithWaterstr3" d="M4884 20994c198,0 481,-17 653,-52 0,-82 -125,-251 -125,-338 0,-334 0,-425 0,-739 0,-150 -319,-158 -528,-158 -210,0 -529,8 -529,158 0,314 0,405 0,739 0,87 -125,256 -125,338 172,35 455,52 654,52z" style="fill:#80309d"/>
   <path class="AccessoryFlaskWithWaterfil81 AccessoryFlaskWithWaterstr0" d="M3723 21999c-32,-117 1,-131 147,-276 187,-186 231,-47 275,25 220,411 561,680 781,1091 -117,164 -234,328 -352,493 -243,-492 -607,-841 -851,-1333z" style="fill:#9cea99"/>
   <g>
    <path class="AccessoryFlaskWithWaterfil82" d="M4486 23679l795 0 0 -419 -795 0 0 419zm895 200l-995 0c-55,0 -100,-45 -100,-100l0 -619c0,-55 45,-100 100,-100l995 0c56,0 100,45 100,100l0 619c0,55 -44,100 -100,100z" style="fill:#35ef42"/>
    <path class="AccessoryFlaskWithWaterfil15" d="M4636 23529l495 0 0 -119 -495 0 0 119zm-150 150l795 0 0 -419 -795 0 0 419zm895 200l-995 0c-55,0 -100,-45 -100,-100l0 -619c0,-55 45,-100 100,-100l995 0c56,0 100,45 100,100l0 619c0,55 -44,100 -100,100zm0 150l-995 0c-69,0 -132,-28 -177,-73 -45,-45 -73,-108 -73,-177l0 -619c0,-69 28,-132 73,-177l1 0c45,-45 107,-73 176,-73l995 0c69,0 131,28 177,73l0 1c45,45 73,107 73,176l0 619c0,69 -28,131 -73,176l0 1c-45,45 -108,73 -177,73z" id="1" style="fill:#88901e"/>
   </g>
   <path class="AccessoryFlaskWithWaterfil83 AccessoryFlaskWithWaterstr0" d="M5814 21779c-394,521 -845,1032 -1240,1553 183,49 373,65 578,16 329,-417 714,-824 1043,-1241 51,-65 -29,-162 -93,-217 -140,-121 -210,-164 -288,-111z" style="fill:#1de34d"/>
   <path class="AccessoryFlaskWithWaterfil84 AccessoryFlaskWithWaterstr0" d="M4634 25589c41,-664 87,-1327 0,-2006 162,-45 328,-46 500,0 67,669 45,1338 0,2006 -167,0 -334,0 -500,0z" style="fill:#f298a7"/>
   <path class="AccessoryFlaskWithWaterfil85 AccessoryFlaskWithWaterstr1" d="M4238 21501c215,19 377,59 646,59 268,0 433,-40 650,-59 62,-6 113,-8 113,-113 0,-105 -165,-145 -226,-138 -179,19 -268,59 -537,59 -270,0 -367,-40 -550,-59 -62,-7 -208,76 -208,138 0,62 51,107 112,113z" style="fill:#e64bf8"/>
  </g>
 </g><g id="Nose-Cat0">
 <animateTransform additive="sum" attributeName="transform" dur="10" repeatCount="indefinite" type="translate" values="0;0 200;0;0 200;0;0 200;0;0 200;0"/>
  <metadata id="CorelCorpID_107Corel-Layer"/>
  <path class="Nose-Cat0fil221 Nose-Cat0str0" d="M13682 13408c-194,0 -465,93 -444,231 19,127 197,330 444,330 247,0 425,-203 444,-330 21,-138 -250,-231 -444,-231z" style="fill:#d859c0"/>
 </g><g id="HatUshanka-Medium">
 <animateTransform additive="sum" attributeName="transform" dur="10" repeatCount="indefinite" type="translate" values="0;0 200;0;0 200;0;0 200;0;0 200;0"/>
  <metadata id="CorelCorpID_72Corel-Layer"/>
  <path class="HatUshanka-Mediumfil679new HatUshanka-Mediumstr0new" d="M22896 14084c732,273 1517,312 2404,81 -41,-245 -146,-449 -299,-689 -717,363 -1269,431 -2009,221 -31,148 -65,240 -96,387z" style="fill:#f989cd"/>
  <path class="HatUshanka-Mediumfil680new HatUshanka-Mediumstr6new" d="M19254 9461c24,1213 2131,2656 3492,3078 1483,459 933,2099 -387,2044 -1146,-48 -2563,-886 -3235,-3157 -276,-934 -51,-1607 130,-1965z" style="fill:#e3a50c"/>
  <path class="HatUshanka-Mediumfil31new" d="M20588 11368c684,533 1506,969 2158,1171 675,209 928,662 881,1088 -155,-378 -608,-707 -843,-823 106,227 87,422 19,524 -196,-352 -557,-622 -984,-949 100,196 -5,493 -71,600 -206,-515 -559,-962 -1160,-1611z" style="fill:#89f98c"/>
  <path class="HatUshanka-Mediumfil33new HatUshanka-Mediumstr6new" d="M19254 9461c24,1213 2131,2656 3492,3078 1483,459 933,2099 -387,2044 -1146,-48 -2563,-886 -3235,-3157 -276,-934 -51,-1607 130,-1965z" style="fill:#fb94e7"/>
  <path class="HatUshanka-Mediumfil14new" d="M23631 13576c-29,530 -528,1038 -1272,1007 -1146,-48 -2563,-886 -3235,-3157 -96,-326 -132,-620 -129,-880 626,1986 3054,4373 4636,3030z" style="fill:#bfc6ac"/>
  <path class="HatUshanka-Mediumfil679new HatUshanka-Mediumstr0new" d="M3594 11128c-510,-593 -818,-1316 -907,-2228 243,-46 471,-18 749,43 -92,798 35,1339 487,1961 -127,80 -202,144 -329,224z" style="fill:#ae061f"/>
  <path class="HatUshanka-Mediumfil681new HatUshanka-Mediumstr6new" d="M7315 11182c-309,1281 -1846,743 -2559,-528 -584,-1041 -2209,-163 -1610,1287 491,1186 2066,1941 3155,1806 983,-121 1325,-584 1516,-1555 191,-970 -502,-1010 -502,-1010z" style="fill:#bf60fc"/>
  <path class="HatUshanka-Mediumfil31new" d="M6241 11888c-526,-115 -1116,-576 -1485,-1234 -443,-789 -1485,-475 -1701,356 209,-423 757,-616 1191,-403 -441,-10 -766,342 -846,593 380,-131 979,-355 1518,107 -364,-87 -668,39 -789,166 682,-16 1337,570 2112,415z" style="fill:#d29f3b"/>
  <path class="HatUshanka-Mediumfil33new HatUshanka-Mediumstr6new" d="M7315 11182c-309,1281 -1846,743 -2559,-528 -584,-1041 -2209,-163 -1610,1287 491,1186 2066,1941 3155,1806 983,-121 1325,-584 1516,-1555 191,-970 -502,-1010 -502,-1010z" style="fill:#b2dd85"/>
  <path class="HatUshanka-Mediumfil14new" d="M3028 11508c18,137 56,282 118,433 491,1186 2066,1941 3155,1806 983,-121 1325,-584 1516,-1555 81,-410 4,-654 -112,-799 -52,867 -597,1858 -1632,1858 -1196,1 -2647,-754 -3045,-1743z" style="fill:#454f81"/>
  <path class="HatUshanka-Mediumfil682new HatUshanka-Mediumstr6new" d="M7788 12774c3696,-1000 7493,-1367 11404,-1004 220,21 426,-187 418,-408 -53,-1387 -44,-2184 -334,-3672 -215,-1104 -693,-2073 -1752,-2294 -2278,-478 -6338,-77 -8296,657 -1152,433 -1771,1186 -1951,2583 -200,1545 -192,2300 19,3893 29,219 278,303 492,245z" style="fill:#9c357a"/>
  <path class="HatUshanka-Mediumfil683new" d="M7733 12832c2874,-832 8062,-1209 11263,-994 109,7 216,15 321,24 406,34 540,-667 308,-955 -935,-1160 -1145,-1220 -1188,-2863 -28,-1076 -773,-1926 -1462,-2138 -1637,-503 -6230,165 -7604,819 -646,308 -1180,1059 -1228,2118 -72,1605 -367,2291 -906,3132 -230,357 129,963 496,857z" style="fill:#88cc1d"/>
  <path class="HatUshanka-Mediumfil14new" d="M8369 12664c2991,-723 7767,-1034 10737,-818 -874,-427 -2968,-624 -5387,-451 -2506,178 -4610,699 -5350,1269z" style="fill:#c31f83"/>
  <path class="HatUshanka-Mediumfil31new" d="M18432 7941c-70,-1026 -790,-1830 -1457,-2035 -1637,-503 -6230,165 -7604,819 -637,303 -1165,1037 -1226,2072 301,-756 664,-1439 1850,-1837 -222,204 -518,692 -563,1094 281,-471 1263,-1335 1998,-1561 -128,239 -476,1018 -515,1275 358,-421 1033,-1028 1647,-1299 -157,236 -314,481 -366,797 494,-577 1181,-1040 1878,-1175 -207,287 -405,628 -452,951 277,-407 899,-915 1539,-1025 -59,256 -82,635 45,926 281,-165 596,-543 779,-903 125,367 489,849 764,1083 127,-250 166,-624 -17,-945 764,277 1393,825 1700,1763z" style="fill:#1e3288"/>
  <path class="HatUshanka-Mediumfil33new HatUshanka-Mediumstr6new" d="M7733 12832c2973,-860 8419,-1234 11584,-970 406,34 540,-667 308,-955 -935,-1160 -1145,-1220 -1188,-2863 -28,-1076 -773,-1926 -1462,-2138 -1637,-503 -6230,165 -7604,819 -646,308 -1180,1059 -1228,2118 -72,1605 -367,2291 -906,3132 -230,357 129,963 496,857z" style="fill:#810a02"/>
  <path class="HatUshanka-Mediumfil684new HatUshanka-Mediumstr0new" d="M12636 10268c-8,-118 43,-275 89,-386 -71,13 -145,1 -211,-25 -91,-37 -168,-94 -229,-171 -53,-66 -94,-139 -115,-220 -31,-114 -39,-256 14,-365 24,-49 60,-90 118,-128 69,-44 142,-57 213,-49 43,5 84,17 123,35 -52,-100 -80,-229 -77,-341 3,-90 25,-178 73,-255 52,-85 154,-154 254,-161 92,-6 161,17 239,64 83,49 154,131 203,226 41,-122 129,-243 239,-309 165,-98 349,-41 458,108 63,85 95,193 102,298 5,71 -1,145 -19,215 62,-34 134,-52 203,-49 159,7 254,116 304,254 37,102 31,243 0,345 -49,159 -151,308 -312,368 -39,15 -79,23 -127,26 -17,1 89,147 105,175 47,84 84,175 90,260 5,69 -10,133 -40,187 -33,57 -82,101 -144,128 -146,64 -261,32 -406,-18 -89,-29 -178,-58 -272,-44 -108,16 -193,66 -289,108 -130,55 -274,89 -405,16 -56,-32 -103,-79 -134,-132 -32,-55 -42,-97 -47,-160z" style="fill:#28659f"/>
  <path class="HatUshanka-Mediumfil685new" d="M12756 10260c3,45 7,68 30,108 40,67 115,120 204,114 109,-8 191,-49 277,-88 41,-18 78,-33 121,-49 75,-27 134,-37 213,-31 24,2 43,4 65,8 116,21 267,98 360,92l2 0 11 -1c42,-3 58,-5 102,-25 76,-33 119,-106 113,-197 -9,-129 -124,-296 -204,-399 -45,-58 -108,-131 -163,-181 -23,-21 -43,-42 -65,-57l-70 -55c-31,-23 -88,-54 -126,-66 -97,-31 -125,-29 -222,-22 -134,9 -293,101 -378,199 -35,41 -34,42 -62,78 -90,116 -218,423 -208,572zm660 -1544l4 59c8,114 72,231 163,284 97,56 184,32 265,-37 120,-103 172,-269 161,-425 -6,-97 -37,-179 -78,-236 -30,-40 -81,-82 -129,-95 -27,-7 -48,-11 -66,-11l-25 2c-22,3 -44,12 -77,27 -26,13 -51,28 -70,48 -28,28 -18,14 -45,51 -66,90 -110,219 -103,333zm-356 418c84,-6 141,-50 181,-121 116,-205 10,-535 -175,-644 -53,-32 -100,-52 -170,-48 -64,5 -131,56 -161,105 -76,123 -66,288 -12,430 19,52 65,127 103,165 62,60 141,119 234,113zm881 216c5,85 21,145 73,206 31,37 91,77 156,73 72,-5 119,-23 174,-65 80,-60 129,-150 158,-245 22,-70 22,-135 17,-213 -2,-34 -27,-93 -45,-123 -11,-19 -20,-31 -34,-47 -71,-83 -202,-77 -293,-14 -65,45 -114,102 -150,173 -33,64 -63,158 -56,255zm-1677 -39c4,54 7,73 21,124 8,28 17,53 29,77 30,60 84,133 139,173 64,47 140,88 230,82 129,-9 197,-143 188,-275 -10,-150 -68,-254 -157,-338 -19,-18 -31,-30 -56,-47 -87,-60 -194,-96 -292,-33 -74,48 -91,102 -99,184 -2,19 -4,33 -3,53z" style="fill:#0085c4"/>
 </g></svg>