<svg xmlns="http://www.w3.org/2000/svg" xmlns:xlink="http://www.w3.org/1999/xlink" style="shape-rendering:geometricPrecision; text-rendering:geometricPrecision; image-rendering:optimizeQuality; fill-rule:evenodd; clip-rule:evenodd" version="1.1" viewBox="0 0 29000 29000" xml:space="preserve"><defs><style type="text/css">.RightFoot-Cat0fil26 {fill:#f5f5f5}
.RightFoot-Cat0fil14 {fill:black;fill-opacity:0.200000}
.RightFoot-Cat0fil22 {fill:none}
.RightFoot-Cat0fil32 {fill:black;fill-rule:nonzero}
.RightLeg-Cat3fil41 {fill:url(#RightLeg-Cat3id204)}
.RightLeg-Cat3fil32 {fill:black;fill-rule:nonzero}
.RightLeg-Cat3fil14 {fill:black;fill-opacity:0.200000}
.LeftFoot-Cat0fil26 {fill:#f5f5f5}
.LeftFoot-Cat0fil14 {fill:black;fill-opacity:0.200000}
.LeftFoot-Cat0fil22 {fill:none}
.LeftFoot-Cat0fil32 {fill:black;fill-rule:nonzero}
.LeftLeg-Cat3fil46 {fill:url(#LeftLeg-Cat3id203)}
.LeftLeg-Cat3fil32 {fill:black;fill-rule:nonzero}
.LeftLeg-Cat3fil14 {fill:black;fill-opacity:0.200000}
.RightPaw-Cat0fil26 {fill:#f5f5f5}
.RightPaw-Cat0fil14 {fill:black;fill-opacity:0.200000}
.RightPaw-Cat0fil32 {fill:black;fill-rule:nonzero}
.LeftPaw-Cat0fil26 {fill:#f5f5f5}
.LeftPaw-Cat0fil14 {fill:black;fill-opacity:0.200000}
.LeftPaw-Cat0fil32 {fill:black;fill-rule:nonzero}
.Body-Cat4fil62 {fill:url(#Body-Cat4id318)}
.Body-Cat4fil14 {fill:black;fill-opacity:0.200000}
.Body-Cat4fil32 {fill:black;fill-rule:nonzero}
.Body-Cat4fil65 {fill:url(#Body-Cat4id1020)}
.Head-Cat5fil145 {fill:url(#Head-Cat5id31)}
.Head-Cat5fil32 {fill:black;fill-rule:nonzero}
.Head-Cat5fil14 {fill:black;fill-opacity:0.200000}
.Mouth-Cat3fil100 {fill:black}
.Mouth-Cat3fil22 {fill:none}
.Mouth-Cat3str0 {stroke:black;stroke-width:150;stroke-linecap:round;stroke-linejoin:round}
.Eyes-Cat0fil155 {fill:#7d9e93}
.Eyes-Cat0fil14 {fill:black;fill-opacity:0.200000}
.Eyes-Cat0fil156 {fill:url(#Eyes-Cat0id955)}
.Eyes-Cat0fil157 {fill:black;fill-opacity:0.501961}
.Eyes-Cat0fil158 {fill:url(#Eyes-Cat0id659)}
.Eyes-Cat0fil152 {fill:white}
.Eyes-Cat0fil159 {fill:url(#Eyes-Cat0id637)}
.Eyes-Cat0fil160 {fill:url(#Eyes-Cat0id954)}
.Eyes-Cat0fil161 {fill:url(#Eyes-Cat0id779)}
.Eyes-Cat0fil162 {fill:url(#Eyes-Cat0id628)}
.Eyes-Cat0fil22 {fill:none}
.Eyes-Cat0str4 {stroke:black;stroke-width:150}
.BraceletGold-Mediumfil3new {fill:black;fill-opacity:0.301961}
.BraceletGold-Mediumfil66new {fill:url(#BraceletGold-Mediumid695new);fill-rule:nonzero}
.BraceletGold-Mediumstr3new {stroke:black;stroke-width:100;stroke-linecap:round;stroke-linejoin:round}
.BraceletGold-Mediumfil67new {fill:url(#BraceletGold-Mediumid700new);fill-rule:nonzero}
.WeaponBflyNetBack-Mediumfil1 {fill:black;fill-rule:nonzero;fill-opacity:0.200000}
.WeaponBflyNetBack-Mediumfil12 {fill:url(#WeaponBflyNetBack-Mediumid25);fill-rule:nonzero}
.WeaponBflyNetBack-Mediumstr0 {stroke:black;stroke-width:150;stroke-linecap:round;stroke-linejoin:round}
.WeaponBflyNet-Mediumfil13 {fill:white;fill-opacity:0.701961}
.WeaponBflyNet-Mediumfil3 {fill:black;fill-opacity:0.200000}
.WeaponBflyNet-Mediumfil14 {fill:none}
.WeaponBflyNet-Mediumstr2 {stroke:#85E7FF;stroke-width:150;stroke-linecap:round;stroke-linejoin:round}
.WeaponBflyNet-Mediumstr3 {stroke:#85E7FF;stroke-width:150}
.WeaponBflyNet-Mediumfil15 {fill:url(#WeaponBflyNet-Mediumid2)}
.WeaponBflyNet-Mediumstr0 {stroke:black;stroke-width:150;stroke-linecap:round;stroke-linejoin:round}
.WeaponBflyNet-Mediumfil16 {fill:url(#WeaponBflyNet-Mediumid1)}
.WeaponBflyNet-Mediumstr1 {stroke:black;stroke-width:150}
.AccessoryDuckfil122 {fill:url(#AccessoryDuckid90)}
.AccessoryDuckfil48 {fill:white;fill-opacity:0.501961}
.AccessoryDuckfil123 {fill:#CC1400;fill-opacity:0.301961}
.AccessoryDuckfil124 {fill:url(#AccessoryDuckid94)}
.AccessoryDuckfil3 {fill:black;fill-rule:nonzero}
.AccessoryDuckfil125 {fill:url(#AccessoryDuckid39)}
.AccessoryDuckfil126 {fill:url(#AccessoryDuckid95)}
.AccessoryDuckfil127 {fill:url(#AccessoryDuckid92)}
.AccessoryDuckfil2 {fill:none}
.AccessoryDuckfil128 {fill:#912323;fill-opacity:0.501961}
.AccessoryDuckfil14 {fill:white}
.AccessoryDuckfil129 {fill:white;fill-rule:nonzero;fill-opacity:0.501961}
.AccessoryDuckfil130 {fill:white;fill-rule:nonzero}
.AccessoryDuckstr1 {stroke:black;stroke-width:150}
.AccessoryDuckstr18 {stroke:#99CC66;stroke-width:150;stroke-linecap:round;stroke-linejoin:round}
.AccessoryDuckstr0 {stroke:black;stroke-width:150;stroke-linecap:round;stroke-linejoin:round}
.NecklaceScream-Mediumfil1 {fill:black;fill-opacity:0.301961}
.NecklaceScream-Mediumfil2 {fill:black;fill-opacity:0.400000}
.NecklaceScream-Mediumfil3 {fill:white;fill-rule:nonzero;fill-opacity:0.200000}
.NecklaceScream-Mediumfil0 {fill:url(#NecklaceScream-Mediumid0)}
.NecklaceScream-Mediumfil4 {fill:white;fill-opacity:0.501961}
.NecklaceScream-Mediumfil6 {fill:url(#NecklaceScream-Mediumid6)}
.NecklaceScream-Mediumfil7 {fill:black;fill-rule:nonzero}
.NecklaceScream-Mediumfil8 {fill:url(#NecklaceScream-Mediumid3)}
.NecklaceScream-Mediumfil9 {fill:white;fill-opacity:0.400000}
.NecklaceScream-Mediumfil10 {fill:url(#NecklaceScream-Mediumid32)}
.NecklaceScream-Mediumfil11 {fill:white;fill-opacity:0.200000}
.NecklaceScream-Mediumfil12 {fill:black;fill-opacity:0.501961}
.NecklaceScream-Mediumfil13 {fill:black;fill-rule:nonzero;fill-opacity:0.501961}
.NecklaceScream-Mediumstr0 {stroke:black;stroke-width:150;stroke-linecap:round;stroke-linejoin:round;stroke-miterlimit:22.9256}
.NecklaceScream-Mediumfil5 {fill:none}
.NecklaceScream-Mediumstr1 {stroke:black;stroke-width:150;stroke-linecap:round;stroke-linejoin:round;stroke-miterlimit:22.9256}
.HeadScream-Mediumfil12 {fill:black;fill-opacity:0.501961}
.HeadScream-Mediumfil15 {fill:url(#HeadScream-Mediumid13)}
.HeadScream-Mediumfil2 {fill:black;fill-opacity:0.400000}
.HeadScream-Mediumfil16 {fill:black;fill-opacity:0.200000}
.HeadScream-Mediumfil17 {fill:black;fill-opacity:0.701961}
.HeadScream-Mediumfil7 {fill:black;fill-rule:nonzero}
.HeadScream-Mediumfil20 {fill:url(#HeadScream-Mediumid1)}
.HeadScream-Mediumfil21 {fill:#706758;fill-opacity:0.301961}
.HeadScream-Mediumfil22 {fill:#FAF3EB;fill-opacity:0.200000}
.HeadScream-Mediumfil14 {fill:url(#HeadScream-Mediumid2)}
.HeadScream-Mediumstr0 {stroke:black;stroke-width:150;stroke-linecap:round;stroke-linejoin:round;stroke-miterlimit:22.9256}
.HeadScream-Mediumfil18 {fill:url(#HeadScream-Mediumid8)}
.HeadScream-Mediumfil19 {fill:url(#HeadScream-Mediumid12)}
.HeadScream-Mediumfil5 {fill:none}
.HeadScream-Mediumstr2 {stroke:#646463;stroke-width:7.62;stroke-miterlimit:22.9256;stroke-opacity:0.200000}
.HeadScream-Mediumstr1 {stroke:black;stroke-width:150;stroke-linecap:round;stroke-linejoin:round;stroke-miterlimit:22.9256}
</style><linearGradient gradientUnits="userSpaceOnUse" id="RightLeg-Cat3id204" x1="16044.8" x2="14935.9" xlink:href="#RightLeg-Cat3id203" y1="24265.3" y2="21218.4">
  </linearGradient><linearGradient gradientUnits="userSpaceOnUse" id="LeftLeg-Cat3id203" x1="11319" x2="12428" y1="24265.3" y2="21218.4">
   <stop offset="0" style="stop-opacity:1; stop-color:#e6d3d3"/>
   <stop offset="0.0588235" style="stop-opacity:1; stop-color:#e6d3d3"/>
   <stop offset="0.521569" style="stop-opacity:1; stop-color:#ffffff"/>
   <stop offset="1" style="stop-opacity:1; stop-color:#ffffff"/>
  </linearGradient><linearGradient gradientUnits="objectBoundingBox" id="Body-Cat4id318" x1="50%" x2="50%" xlink:href="#Body-Cat4id36" y1="0.000186021%" y2="100%">
  </linearGradient><linearGradient gradientUnits="userSpaceOnUse" id="Body-Cat4id1020" x1="13681.9" x2="13681.9" xlink:href="#Body-Cat4id230" y1="22974.9" y2="17669.3">
  </linearGradient><linearGradient gradientUnits="userSpaceOnUse" id="Head-Cat5id31" x1="13681.9" x2="13681.9" y1="17986.7" y2="7484.8">
   <stop offset="0" style="stop-opacity:1; stop-color:#bfa6a6"/>
   <stop offset="0.0313725" style="stop-opacity:1; stop-color:#bfa6a6"/>
   <stop offset="0.321569" style="stop-opacity:1; stop-color:#e6d3d3"/>
   <stop offset="1" style="stop-opacity:1; stop-color:#ffffff"/>
  </linearGradient><linearGradient gradientUnits="objectBoundingBox" id="Eyes-Cat0id955" x1="60.3496%" x2="39.6506%" xlink:href="#Eyes-Cat0id27" y1="96.7392%" y2="3.2608%">
  </linearGradient><linearGradient gradientUnits="objectBoundingBox" id="Eyes-Cat0id659" x1="0%" x2="100%" xlink:href="#Eyes-Cat0id57" y1="50%" y2="50%">
  </linearGradient><linearGradient gradientUnits="objectBoundingBox" id="Eyes-Cat0id637" x1="38.0126%" x2="61.9878%" xlink:href="#Eyes-Cat0id384" y1="1.17841%" y2="98.822%">
  </linearGradient><linearGradient gradientUnits="objectBoundingBox" id="Eyes-Cat0id954" x1="39.6504%" x2="60.3494%" xlink:href="#Eyes-Cat0id27" y1="96.7392%" y2="3.2608%">
  </linearGradient><linearGradient gradientUnits="userSpaceOnUse" id="Eyes-Cat0id779" x1="15300.9" x2="18414.9" xlink:href="#Eyes-Cat0id57" y1="13980.1" y2="13980.1">
  </linearGradient><linearGradient gradientUnits="userSpaceOnUse" id="Eyes-Cat0id628" x1="16936" x2="16420.2" xlink:href="#Eyes-Cat0id384" y1="11862.3" y2="14045.7">
  </linearGradient><linearGradient gradientUnits="userSpaceOnUse" id="BraceletGold-Mediumid695new" x1="8795.03" x2="10201.4" y1="19661" y2="20720.4">
   <stop offset="0" style="stop-opacity:1; stop-color:#CC9933"/>
   <stop offset="0.109804" style="stop-opacity:1; stop-color:#FFF98F"/>
   <stop offset="0.25098" style="stop-opacity:1; stop-color:#FFFFFC"/>
   <stop offset="0.478431" style="stop-opacity:1; stop-color:#FFF982"/>
   <stop offset="0.811765" style="stop-opacity:1; stop-color:#643300"/>
   <stop offset="1" style="stop-opacity:1; stop-color:#CC9933"/>
  </linearGradient><linearGradient gradientUnits="userSpaceOnUse" id="BraceletGold-Mediumid700new" x1="18568.8" x2="17162.5" xlink:href="#BraceletGold-Mediumid695new" y1="19661" y2="20720.4">
  </linearGradient><linearGradient gradientUnits="userSpaceOnUse" id="WeaponBflyNetBack-Mediumid25" x1="7204.83" x2="8458.79" y1="22047.5" y2="19400.3">
   <stop offset="0" style="stop-opacity:1; stop-color:#FF6666"/>
   <stop offset="1" style="stop-opacity:1; stop-color:#FFC5B0"/>
  </linearGradient><linearGradient gradientUnits="userSpaceOnUse" id="WeaponBflyNet-Mediumid2" x1="9470.94" x2="12022.2" y1="22463.7" y2="22328">
   <stop offset="0" style="stop-opacity:1; stop-color:#5C3005"/>
   <stop offset="1" style="stop-opacity:1; stop-color:#B87939"/>
  </linearGradient><linearGradient gradientUnits="userSpaceOnUse" id="WeaponBflyNet-Mediumid1" x1="14169.4" x2="14169.4" y1="25399.5" y2="22680.1">
   <stop offset="0" style="stop-opacity:1; stop-color:#D4A373"/>
   <stop offset="1" style="stop-opacity:1; stop-color:#B87939"/>
  </linearGradient><radialGradient cx="5981.45" cy="24530.5" fx="5981.45" fy="24530.5" gradientTransform="matrix(1.08261 -0.0530996 0.0971573 0.591681 -2877 10334)" gradientUnits="userSpaceOnUse" id="AccessoryDuckid90" r="1635.36">
   <stop offset="0" style="stop-opacity:1; stop-color:#FFF256"/>
   <stop offset="0.631373" style="stop-opacity:1; stop-color:#FEE75C"/>
   <stop offset="1" style="stop-opacity:1; stop-color:#FFD83B"/>
  </radialGradient><radialGradient cx="6799.04" cy="23034.7" fx="6799.04" fy="23034.7" gradientTransform="matrix(1.0826 -0.0971566 0.0971566 1.0826 -2800 -1242)" gradientUnits="userSpaceOnUse" id="AccessoryDuckid94" r="935.18" xlink:href="#AccessoryDuckid90">
  </radialGradient><linearGradient gradientUnits="userSpaceOnUse" id="AccessoryDuckid39" x1="6677.2" x2="6677.2" y1="22471.8" y2="23026.9">
   <stop offset="0" style="stop-opacity:1; stop-color:black"/>
   <stop offset="1" style="stop-opacity:1; stop-color:#453223"/>
  </linearGradient><radialGradient cx="7621.66" cy="22955.4" fx="7621.66" fy="22955.4" gradientTransform="matrix(1.00003 -0 -0 0.645815 0 8130)" gradientUnits="userSpaceOnUse" id="AccessoryDuckid95" r="730.87">
   <stop offset="0" style="stop-opacity:1; stop-color:#FFB73B"/>
   <stop offset="1" style="stop-opacity:1; stop-color:#E05A00"/>
  </radialGradient><radialGradient cx="5594.96" cy="24567.2" fx="5594.96" fy="24567.2" gradientTransform="matrix(1.0826 -0.0578086 0.0971565 0.644153 -2849 9066)" gradientUnits="userSpaceOnUse" id="AccessoryDuckid92" r="719.36" xlink:href="#AccessoryDuckid90">
  </radialGradient><linearGradient gradientUnits="objectBoundingBox" id="NecklaceScream-Mediumid0" x1="50%" x2="50%" y1="100%" y2="0%">
   <stop offset="0" style="stop-opacity:1; stop-color:#08090A"/>
   <stop offset="0.239216" style="stop-opacity:1; stop-color:#18181A"/>
   <stop offset="0.45098" style="stop-opacity:1; stop-color:#383635"/>
   <stop offset="0.678431" style="stop-opacity:1; stop-color:#292827"/>
   <stop offset="1" style="stop-opacity:1; stop-color:#08090A"/>
  </linearGradient><linearGradient gradientUnits="userSpaceOnUse" id="NecklaceScream-Mediumid6" x1="13681.94" x2="13681.94" xlink:href="#NecklaceScream-Mediumid0" y1="21404.36" y2="17236.07">
  </linearGradient><linearGradient gradientUnits="userSpaceOnUse" id="NecklaceScream-Mediumid3" x1="13639.46" x2="13639.46" y1="24831.84" y2="21099.6">
   <stop offset="0" style="stop-opacity:1; stop-color:#706758"/>
   <stop offset="0.431373" style="stop-opacity:1; stop-color:#292827"/>
   <stop offset="0.678431" style="stop-opacity:1; stop-color:#18181A"/>
   <stop offset="1" style="stop-opacity:1; stop-color:#08090A"/>
  </linearGradient><linearGradient gradientUnits="userSpaceOnUse" id="NecklaceScream-Mediumid32" x1="10557.49" x2="16806.39" y1="21154.23" y2="21154.23">
   <stop offset="0" style="stop-opacity:1; stop-color:#191B1F"/>
   <stop offset="0.168627" style="stop-opacity:1; stop-color:#0C0C0D"/>
   <stop offset="0.619608" style="stop-opacity:1; stop-color:#241E18"/>
   <stop offset="1" style="stop-opacity:1; stop-color:#09090A"/>
  </linearGradient><linearGradient gradientUnits="userSpaceOnUse" id="HeadScream-Mediumid13" x1="16915.49" x2="16915.5" y1="20908.15" y2="7973.33">
   <stop offset="0" style="stop-opacity:1; stop-color:aliceblue"/>
   <stop offset="0.231373" style="stop-opacity:1; stop-color:#F5F9FF"/>
   <stop offset="0.501961" style="stop-opacity:1; stop-color:#FAFCFF"/>
   <stop offset="0.588235" style="stop-opacity:1; stop-color:#AAABAD"/>
   <stop offset="1" style="stop-opacity:1; stop-color:#08090A"/>
  </linearGradient><linearGradient gradientUnits="userSpaceOnUse" id="HeadScream-Mediumid1" x1="19103.32" x2="8260.56" y1="7855.35" y2="14914.14">
   <stop offset="0" style="stop-opacity:1; stop-color:#5C5B58"/>
   <stop offset="0.301961" style="stop-opacity:1; stop-color:#292827"/>
   <stop offset="0.529412" style="stop-opacity:1; stop-color:#18181A"/>
   <stop offset="0.780392" style="stop-opacity:1; stop-color:#383635"/>
   <stop offset="1" style="stop-opacity:1; stop-color:#141417"/>
  </linearGradient><linearGradient gradientUnits="userSpaceOnUse" id="HeadScream-Mediumid2" x1="13660.23" x2="13660.23" y1="18373.96" y2="9671.4">
   <stop offset="0" style="stop-opacity:1; stop-color:#383330"/>
   <stop offset="0.360784" style="stop-opacity:1; stop-color:black"/>
   <stop offset="1" style="stop-opacity:1; stop-color:black"/>
  </linearGradient><linearGradient gradientUnits="userSpaceOnUse" id="HeadScream-Mediumid8" x1="13681.94" x2="13681.94" y1="19769.52" y2="16055.71">
   <stop offset="0" style="stop-opacity:1; stop-color:#383635"/>
   <stop offset="0.690196" style="stop-opacity:1; stop-color:#08090A"/>
   <stop offset="1" style="stop-opacity:1; stop-color:#141417"/>
  </linearGradient><linearGradient gradientUnits="userSpaceOnUse" id="HeadScream-Mediumid12" x1="13681.94" x2="13681.94" xlink:href="#HeadScream-Mediumid8" y1="15463.01" y2="14448.87">
  </linearGradient><linearGradient gradientUnits="userSpaceOnUse" id="RightLeg-Cat3id203" x1="11319" x2="12428" y1="24265.3" y2="21218.4">
   <stop offset="0" style="stop-opacity:1; stop-color:#e6d3d3"/>
   <stop offset="0.0588235" style="stop-opacity:1; stop-color:#e6d3d3"/>
   <stop offset="0.521569" style="stop-opacity:1; stop-color:#ffffff"/>
   <stop offset="1" style="stop-opacity:1; stop-color:#ffffff"/>
  </linearGradient><linearGradient gradientUnits="userSpaceOnUse" id="Body-Cat4id36" x1="13681.9" x2="13681.9" y1="17936.7" y2="7484.8">
   <stop offset="0" style="stop-opacity:1; stop-color:#bfa6a6"/>
   <stop offset="0.0313725" style="stop-opacity:1; stop-color:#bfa6a6"/>
   <stop offset="0.529412" style="stop-opacity:1; stop-color:#e6d3d3"/>
   <stop offset="1" style="stop-opacity:1; stop-color:#ffffff"/>
  </linearGradient><linearGradient gradientUnits="userSpaceOnUse" id="Body-Cat4id230" x1="13681.9" x2="13681.9" y1="13028.8" y2="17278">
   <stop offset="0" style="stop-opacity:1; stop-color:#f5f5f5"/>
   <stop offset="0.658824" style="stop-opacity:1; stop-color:#f5f5f5"/>
   <stop offset="1" style="stop-opacity:1; stop-color:#e8dcdc"/>
  </linearGradient><linearGradient gradientUnits="userSpaceOnUse" id="Eyes-Cat0id27" x1="16937.6" x2="16937.6" y1="14961.3" y2="11448.6">
   <stop offset="0" style="stop-opacity:1; stop-color:#008053"/>
   <stop offset="1" style="stop-opacity:1; stop-color:black"/>
  </linearGradient><linearGradient gradientUnits="objectBoundingBox" id="Eyes-Cat0id57" x1="100%" x2="0%" y1="50.0003%" y2="50.0003%">
   <stop offset="0" style="stop-opacity:1; stop-color:#008053"/>
   <stop offset="0.501961" style="stop-opacity:1; stop-color:#00ffa5"/>
   <stop offset="1" style="stop-opacity:1; stop-color:#008053"/>
  </linearGradient><linearGradient gradientUnits="userSpaceOnUse" id="Eyes-Cat0id384" x1="16417.8" x2="16417.8" y1="11784.3" y2="14068.5">
   <stop offset="0" style="stop-opacity:1; stop-color:black"/>
   <stop offset="0.45" style="stop-opacity:1; stop-color:black"/>
   <stop offset="1" style="stop-opacity:1; stop-color:#006642"/>
  </linearGradient></defs><g id="RightFoot-Cat0">
  <path class="RightFoot-Cat0fil26" d="M17107 25230c-124,214 -404,285 -611,106 -71,70 -277,145 -526,65 -410,-131 -508,-461 -851,-710 -221,-159 -124,-477 -114,-668 364,340 783,-165 1076,-248 374,-102 737,158 534,413 199,95 520,237 673,411 169,192 121,631 -181,631z" style="fill:#b89203"/>
  <path class="RightFoot-Cat0fil14" d="M17107 25230c-124,214 -404,285 -611,106 -71,70 -277,145 -526,65 -410,-131 -518,-492 -872,-726 -156,-103 -135,-387 -103,-573 18,-14 37,-27 56,-38 -60,533 1445,1528 1433,860 214,342 596,186 545,-150 127,134 271,-14 143,-274 182,62 215,288 209,441 -17,153 -106,289 -274,289z" style="fill:#8e17f1"/>
  <path class="RightFoot-Cat0fil22" d="M16655 24186c278,231 480,239 633,413 169,192 121,631 -181,631 -124,214 -404,285 -611,106 -71,70 -277,145 -526,65 -410,-131 -520,-489 -872,-726 -156,-105 -138,-331 -109,-524" style="fill:#824cba"/>
  <path class="RightFoot-Cat0fil32" d="M16703 24128c-31,-26 -78,-22 -105,10 -27,31 -22,79 9,105 144,120 266,182 373,236 100,50 184,92 252,169 81,92 97,256 55,370 -18,49 -49,94 -96,118 7,-269 -115,-534 -402,-526 186,95 268,253 247,592 -49,79 -127,137 -220,155 -79,15 -160,-2 -228,-45 38,-218 10,-484 -289,-538 139,98 163,330 142,511 -32,29 -98,60 -189,72 -75,9 -164,4 -260,-27 -221,-71 -352,-219 -489,-375 -104,-118 -211,-239 -363,-342 -57,-38 -82,-102 -91,-176 -11,-85 -1,-183 13,-274 15,-98 -130,-119 -144,-22 -16,102 -31,212 -18,314 14,114 57,216 157,282 136,92 236,206 333,317 151,171 295,335 557,419 119,38 230,44 323,32 93,-11 171,-41 226,-75 103,70 225,98 348,74 125,-24 233,-98 305,-202 136,-15 232,-107 279,-232 61,-166 34,-387 -84,-521 -86,-98 -183,-147 -296,-204 -100,-50 -214,-108 -345,-217z" style="fill:#039b8a"/>
 </g><g id="LeftFoot-Cat0">
 <path class="LeftFoot-Cat0fil26" d="M10257 25230c124,214 404,285 611,106 71,70 277,145 526,65 410,-131 508,-461 851,-710 221,-159 124,-477 114,-668 -364,340 -783,-165 -1076,-248 -374,-102 -737,158 -535,413 -198,95 -519,237 -672,411 -169,192 -121,631 181,631z" style="fill:#43d0b8"/>
  <path class="LeftFoot-Cat0fil14" d="M10257 25230c124,214 404,285 611,106 71,70 277,145 526,65 410,-131 518,-492 871,-726 157,-103 136,-387 103,-573 -17,-14 -36,-27 -55,-38 60,533 -1445,1528 -1434,860 -213,342 -595,186 -544,-150 -127,134 -271,-14 -143,-274 -182,62 -215,288 -209,441 17,153 106,289 274,289z" style="fill:#c707a9"/>
  <path class="LeftFoot-Cat0fil22" d="M10708 24186c-277,231 -480,239 -632,413 -169,192 -121,631 181,631 124,214 404,285 611,106 71,70 277,145 526,65 410,-131 520,-489 871,-726 156,-105 139,-331 110,-524" style="fill:#f04ce7"/>
  <path class="LeftFoot-Cat0fil32" d="M10660 24128c32,-26 79,-22 106,10 26,31 22,79 -10,105 -143,120 -266,182 -373,236 -99,50 -183,92 -251,169 -81,92 -97,256 -55,370 18,49 49,94 96,118 -7,-269 115,-534 402,-526 -186,95 -268,253 -247,592 49,79 127,137 220,155 79,15 160,-2 228,-45 -39,-218 -11,-484 289,-538 -139,98 -163,330 -142,511 31,29 98,60 189,72 75,9 163,4 259,-27 222,-71 353,-219 490,-375 104,-118 210,-239 363,-342 56,-38 82,-102 91,-176 11,-85 0,-183 -14,-274 -14,-98 131,-119 145,-22 16,102 31,212 18,314 -14,114 -58,216 -157,282 -136,92 -236,206 -333,317 -151,171 -296,335 -557,419 -119,38 -230,44 -323,32 -93,-11 -171,-41 -226,-75 -103,70 -226,98 -349,74 -124,-24 -233,-98 -304,-202 -136,-15 -232,-107 -279,-232 -61,-166 -34,-387 84,-521 86,-98 183,-147 296,-204 100,-50 214,-108 344,-217z" style="fill:#886e19"/>
 </g><g id="RightLeg-Cat3">
  <path class="RightLeg-Cat3fil41" d="M13682 23259c428,0 1377,183 1321,776 252,336 1343,307 1616,137 370,-265 678,-701 680,-1146 2,-860 -666,-1598 -969,-1838 -621,860 -1470,1269 -2648,1328l0 743z" style="fill:#f34326"/>
  <path class="RightLeg-Cat3fil32" d="M14990 24254c62,5 73,-66 79,-154 8,-118 -4,-261 -94,-417 0,-1 -1,-3 -2,-4 -100,-171 -247,-296 -460,-378 -208,-80 -478,-119 -831,-119l0 150c335,0 588,36 777,108 180,69 302,173 385,314 0,2 1,3 2,4 67,116 86,244 75,332 -9,68 -10,89 -11,105 -4,48 44,56 80,59zm1296 -3006c175,140 477,451 691,859 144,272 248,587 247,919 -1,245 -87,464 -218,653 -154,223 -454,481 -660,663 306,-60 713,-477 783,-578 147,-211 244,-458 244,-738 2,-360 -110,-698 -263,-989 -227,-430 -547,-760 -734,-907l-46 58 -44 60 0 0z" style="fill:#827946"/>
  <path class="RightLeg-Cat3fil14" d="M17192 23490c67,-148 106,-305 107,-464 2,-775 -541,-1451 -869,-1752l-157 727c26,48 52,95 79,143 387,-413 947,879 840,1346z" style="fill:#01d0b6"/>
 </g><g id="LeftLeg-Cat3">
  <path class="LeftLeg-Cat3fil46" d="M13682 23259c-428,0 -1377,183 -1321,776 -252,336 -1343,307 -1616,137 -370,-265 -679,-701 -680,-1146 -2,-860 666,-1598 969,-1838 621,860 1470,1269 2648,1328l0 743z" style="fill:#2ffbcd"/>
  <path class="LeftLeg-Cat3fil32" d="M12374 24254c-62,5 -74,-66 -80,-154 -7,-118 4,-261 94,-417 1,-1 2,-3 3,-4 100,-171 247,-296 460,-378 208,-80 478,-119 831,-119l0 150c-335,0 -588,36 -777,108 -180,69 -303,173 -385,314 -1,2 -1,3 -2,4 -67,116 -86,244 -75,332 9,68 10,89 11,105 4,48 -44,56 -80,59zm-1296 -3006c-176,140 -477,451 -692,859 -143,272 -247,587 -246,919 1,245 87,464 218,653 154,223 454,481 660,663 -306,-60 -713,-477 -784,-578 -146,-211 -243,-458 -244,-738 -1,-360 110,-698 264,-989 226,-430 547,-760 734,-907l46 58 44 60 0 0z" style="fill:#7c996e"/>
  <path class="LeftLeg-Cat3fil14" d="M10172 23490c-67,-148 -106,-305 -107,-464 -2,-775 540,-1451 869,-1752l157 727c-26,48 -53,95 -79,143 -388,-413 -947,879 -840,1346z" style="fill:#4d426a"/>
 </g><g id="Body-Cat4">
 <animateTransform additive="sum" attributeName="transform" dur="10" repeatCount="indefinite" type="translate" values="0;0 200;0;0 200;0;0 200;0;0 200;0"/>
  <path class="Body-Cat4fil62" d="M13682 23135c-1548,0 -2752,-291 -2993,-1956 -147,-1014 391,-2287 991,-3420 634,80 1289,123 2002,142 713,-19 1367,-62 2002,-142 600,1133 1137,2406 991,3420 -242,1665 -1445,1956 -2993,1956z" style="fill:#0575a9"/>
  <path class="Body-Cat4fil14" d="M12621 23067c-1016,-156 -1749,-629 -1932,-1888 -75,-519 29,-1106 229,-1707 -223,2001 402,3257 1703,3595z" style="fill:#660508"/>
  <path class="Body-Cat4fil32" d="M11012 22144c-250,-321 -348,-641 -397,-954 -59,-377 -24,-998 184,-1320 -78,421 -93,905 -36,1298 50,341 104,572 249,976z" style="fill:#b7ff55"/>
  <path class="Body-Cat4fil65" d="M13682 17774c-761,-4 -1421,18 -2105,-105 1393,801 -167,2034 -273,3412 -93,1223 742,1894 2378,1894 1636,0 2471,-671 2378,-1894 -106,-1378 -1666,-2611 -273,-3412 -685,123 -1344,101 -2105,105z" style="fill:#74bc3b"/>
  <path class="Body-Cat4fil14" d="M14743 23067c1016,-156 1749,-629 1932,-1888 75,-519 -29,-1106 -229,-1707 223,2001 -402,3257 -1703,3595z" style="fill:#fd37d9"/>
  <path class="Body-Cat4fil32" d="M16352 22144c250,-321 347,-641 397,-954 59,-377 24,-998 -184,-1320 78,421 93,905 36,1298 -50,341 -104,572 -249,976z" style="fill:#58f138"/>
 </g><g id="WeaponBflyNetBack-Medium">
 <animateTransform additive="sum" attributeName="transform" dur="10" repeatCount="indefinite" type="translate" values="0;0 200;0;0 200;0;0 200;0;0 200;0"/>
  <metadata id="CorelCorpID_6Corel-Layer"/>
  <path class="WeaponBflyNetBack-Mediumfil12 WeaponBflyNetBack-Mediumstr0" d="M9510 21699l211 -158 -3097 -1978c-171,-110 -453,-135 -615,154 -163,288 4,515 187,606l3288 1638 26 -262z" style="fill:#d9a3ae"/>
  <path class="WeaponBflyNetBack-Mediumfil1" d="M6205 19540c-65,37 -126,96 -176,184 -162,288 5,515 188,606l3267 1631 22 -220c-464,-223 -2955,-1545 -3141,-1708 -152,-132 -207,-333 -160,-493z" style="fill:#2a70ee"/>
 </g><g id="RightPaw-Cat0">
 <animateTransform additive="sum" attributeName="transform" dur="10" repeatCount="indefinite" type="translate" values="0;0 200;0;0 200;0;0 200;0;0 200;0"/>
  <g id="_2842391375968">
   <path class="RightPaw-Cat0fil26" d="M17501 20836c-31,672 506,1059 828,766 253,397 884,103 809,-293 203,-535 -266,-1036 -634,-1325 -198,-64 -364,-248 -462,44 -114,341 -157,279 -402,398 -164,79 -11,352 -139,410z" style="fill:#57dc28"/>
   <path class="RightPaw-Cat0fil14" d="M17501 20836c-31,672 506,1059 828,766 341,429 911,24 753,-293 -65,297 -520,408 -657,-118 -113,412 -522,237 -614,26 -96,-216 -45,-462 -254,-619 -2,93 16,193 -45,232l0 0 0 1c-2,0 -3,1 -5,2l0 0 0 0 0 0 0 0 -1 1 0 0 0 0c-2,1 -3,2 -5,2z" style="fill:#8c61c0"/>
   <path class="RightPaw-Cat0fil32" d="M17437 20673c-79,-58 -168,63 -89,121 29,21 57,43 84,65 -4,302 99,551 246,712 55,61 118,109 183,144 146,76 312,82 454,-8 209,238 583,191 784,-34 86,-97 135,-221 116,-357 83,-234 46,-463 -52,-673 -133,-282 -403,-498 -588,-704 -34,-37 -181,-286 -215,-345 -58,-79 -178,10 -120,89 36,48 75,120 112,186 6,12 81,153 124,188 201,164 431,392 551,649 38,81 65,165 77,251 -53,-69 -156,-152 -275,-139 81,67 126,143 171,252 66,158 113,363 -12,503 -142,159 -412,205 -563,33 116,-164 118,-464 -80,-548 55,102 48,374 -55,477 -86,86 -222,119 -360,47 -49,-26 -97,-63 -141,-112 -129,-140 -218,-365 -207,-639 2,-22 -6,-44 -23,-60 -37,-34 -82,-68 -122,-98z" style="fill:#180590"/>
  </g>
 </g><g id="LeftPaw-Cat0">
 <animateTransform additive="sum" attributeName="transform" dur="10" repeatCount="indefinite" type="translate" values="0;0 200;0;0 200;0;0 200;0;0 200;0"/>
  <path class="LeftPaw-Cat0fil26" d="M9863 20836c31,672 -506,1059 -828,766 -253,397 -884,103 -809,-293 -203,-535 266,-1036 634,-1325 198,-64 364,-248 462,44 114,341 157,279 402,398 164,79 11,352 139,410z" style="fill:#c16b02"/>
  <path class="LeftPaw-Cat0fil14" d="M9863 20836c31,672 -506,1059 -828,766 -341,429 -911,24 -754,-293 66,297 521,408 658,-118 113,412 522,237 614,26 95,-216 45,-462 254,-619 2,93 -16,193 45,232l0 0 0 1c2,0 3,1 5,2l0 0 0 0 0 0 0 0 0 1 1 0 0 0c1,1 3,2 5,2z" style="fill:#94ec08"/>
  <path class="LeftPaw-Cat0fil32" d="M9927 20673c79,-58 168,63 88,121 -28,21 -56,43 -83,65 4,302 -100,551 -246,712 -56,61 -118,109 -183,144 -146,76 -312,82 -454,-8 -209,238 -583,191 -784,-34 -86,-97 -135,-221 -116,-357 -83,-234 -46,-463 52,-673 133,-282 403,-498 588,-704 34,-37 180,-286 214,-345 59,-79 179,10 121,89 -36,48 -76,120 -112,186 -6,12 -81,153 -124,188 -201,164 -431,392 -551,649 -38,81 -66,165 -77,251 53,-69 156,-152 275,-139 -81,67 -126,143 -172,252 -65,158 -113,363 13,503 142,159 412,205 562,33 -115,-164 -117,-464 81,-548 -55,102 -48,374 55,477 86,86 222,119 359,47 50,-26 98,-63 142,-112 128,-140 218,-365 207,-639 -2,-22 6,-44 23,-60 37,-34 81,-68 122,-98z" style="fill:#7df08b"/>
 </g><g id="NecklaceScream-Medium">
     <animateTransform additive="sum" attributeName="transform" dur="10" repeatCount="indefinite" type="translate" values="0;0 200;0;0 200;0;0 200;0;0 200;0"/>
     <metadata id="CorelCorpID_0Corel-Layer"/>
  <g id="_1732992840544">
   <g>
    <path class="NecklaceScream-Mediumfil0 NecklaceScream-Mediumstr0" d="M11660.71 17487.43c-282.22,-114.65 -1217.08,194.02 -1561.04,590.9 -238.84,275.59 -760.69,994.69 -1109.99,1528 -153.73,234.7 -401.93,243.81 -322.12,542.53 628.78,-427.65 845.86,-87.4 867.66,257.82 26.46,418.93 184.44,698.61 378.47,680.99 194.03,-17.62 278.76,-633.18 380.18,-470.02 101.42,163.16 72.17,841.3 191.64,814.29 238.4,-53.91 394.77,-626.36 496.09,-793.75 101.42,-167.56 679.11,-3150.76 679.11,-3150.76z" style="fill:#f30136"/>
    <path class="NecklaceScream-Mediumfil1" d="M11660.71 17487.43c-282.22,-114.65 -1217.08,194.02 -1561.04,590.9 -238.84,275.59 -760.69,994.69 -1109.99,1528 -153.73,234.7 -401.93,243.81 -322.12,542.53 628.78,-427.65 618.37,-543.53 900.34,-392.34 154.35,-247.22 -253.93,-441.58 -59.9,-459.2 194.03,-17.62 -40.58,-194.18 230.24,-536.17 270.82,-341.99 285.29,88.3 336.3,-23.02 447.73,-977.17 1497.19,-791.22 1586.17,-1250.7z" style="fill:#1820b8"/>
    <path class="NecklaceScream-Mediumfil2" d="M11660.71 17487.43c-282.22,-114.65 -689.14,1829.93 -1225.9,1799.17 -213.73,-12.24 322.32,395.13 -16.15,391.41 -238.1,-2.61 -296.52,-397.08 -628.62,-420.24 -332.16,-23.16 246.51,126.06 259.55,859.74 8.44,475.31 -447.98,512.81 -514.37,289.17 26.46,418.93 184.44,698.61 378.47,680.99 194.03,-17.62 278.76,-633.18 380.18,-470.02 101.42,163.16 72.17,841.3 191.64,814.29 238.4,-53.91 394.77,-626.36 496.09,-793.75 101.42,-167.56 679.11,-3150.76 679.11,-3150.76z" style="fill:#fab534"/>
    <path class="NecklaceScream-Mediumfil3" d="M9823.36 20483.4c-235.47,-41.3 -116.71,-467.25 -373.61,-623.73 -198.39,-120.83 -406.8,-40.12 -523.94,-15.43 261.28,-250.25 477.87,-212.43 612.64,-113.69 194.02,142.16 138.25,617.39 284.91,752.85z" style="fill:#a5493f"/>
   </g>
   <g>
    <path class="NecklaceScream-Mediumfil0" d="M15703.17 17487.43c282.22,-114.65 1217.08,194.02 1561.04,590.9 238.84,275.59 760.69,994.69 1109.99,1528 153.73,234.7 401.93,243.81 322.12,542.53 -628.78,-427.65 -845.86,-87.4 -867.66,257.82 -26.46,418.93 -184.44,698.61 -378.47,680.99 -194.03,-17.62 -278.76,-633.18 -380.18,-470.02 -101.42,163.16 -72.17,841.3 -191.64,814.29 -238.4,-53.91 -394.77,-626.36 -496.09,-793.75 -101.42,-167.56 -679.11,-3150.76 -679.11,-3150.76z" style="fill:#21fbc0"/>
    <path class="NecklaceScream-Mediumfil4" d="M15761.42 17471.21c335.12,-60.68 1179.67,234.28 1502.79,607.12 238.84,275.59 760.69,994.69 1109.99,1528 12.09,18.46 24.77,35.52 37.83,51.44 -100.4,-45.3 -198.17,-92.12 -249.5,-170.5 -166.83,-254.71 -384.42,-513.84 -592.21,-745.05 -73.54,-81.82 -141.4,142.22 -156.97,43.11 -57.37,-365.07 -326.32,-562.15 -410.68,-659.5 -322.11,-371.67 -933.18,-707.68 -1241.25,-654.62z" style="fill:#0e5b50"/>
    <path class="NecklaceScream-Mediumfil5 NecklaceScream-Mediumstr1" d="M15703.17 17487.43c282.22,-114.65 1217.08,194.02 1561.04,590.9 238.84,275.59 760.69,994.69 1109.99,1528 153.73,234.7 401.93,243.81 322.12,542.53 -628.78,-427.65 -845.86,-87.4 -867.66,257.82 -26.46,418.93 -184.44,698.61 -378.47,680.99 -194.03,-17.62 -278.76,-633.18 -380.18,-470.02 -101.42,163.16 -72.17,841.3 -191.64,814.29 -238.4,-53.91 -394.77,-626.36 -496.09,-793.75 -101.42,-167.56 -679.11,-3150.76 -679.11,-3150.76z" style="fill:#faae5d"/>
    <path class="NecklaceScream-Mediumfil2" d="M15703.17 17487.43c282.22,-114.65 689.14,1829.93 1225.9,1799.17 213.73,-12.24 -322.32,395.13 16.15,391.41 238.1,-2.61 296.52,-397.08 628.62,-420.24 332.16,-23.16 -246.51,126.06 -259.55,859.74 -8.44,475.31 447.98,512.81 514.37,289.17 -26.46,418.93 -184.44,698.61 -378.47,680.99 -194.03,-17.62 -278.76,-633.18 -380.18,-470.02 -101.42,163.16 -72.17,841.3 -191.64,814.29 -238.4,-53.91 -394.77,-626.36 -496.09,-793.75 -101.42,-167.56 -679.11,-3150.76 -679.11,-3150.76z" style="fill:#8a185e"/>
    <path class="NecklaceScream-Mediumfil3" d="M17540.52 20483.4c235.47,-41.3 116.71,-467.25 373.61,-623.73 198.39,-120.83 406.8,-40.12 523.94,-15.43 -261.28,-250.25 -477.87,-212.43 -612.64,-113.69 -194.02,142.16 -138.25,617.39 -284.91,752.85z" style="fill:#39a70f"/>
   </g>
   <path class="NecklaceScream-Mediumfil6" d="M16095.65 17236.07c481.61,348.66 486.66,1547.32 352.78,1834.45 -133.88,287.13 501.9,1182.52 243.79,1554.23 -258.11,371.71 -1879.18,822.62 -3010.28,776.31 -1131.1,-46.31 -2752.17,-404.6 -3010.28,-776.31 -258.11,-371.71 377.67,-1267.1 243.79,-1554.23 -133.88,-287.13 -128.83,-1485.79 352.78,-1834.45l2413.71 485.07 2413.71 -485.07z" style="fill:#b21bac"/>
   <path class="NecklaceScream-Mediumfil2" d="M15407.73 20490.45c285.39,54.72 339.07,191.88 502.19,158.3 170.6,-35.12 446.49,-245.05 556.13,-371.04 65.96,-75.79 133.36,-348.04 34.24,-786.37 127.69,381.74 368.15,879.64 191.93,1133.41 -258.1,371.71 -1879.18,822.62 -3010.28,776.31 -1131.1,-46.31 -2752.17,-404.6 -3010.28,-776.31 -258.11,-371.71 377.67,-1267.11 243.79,-1554.23 -38.91,-83.47 -85.95,-307.95 -93.08,-502.19 53.53,372.62 195.58,192.98 360.76,647.55 143.31,394.36 -153.53,924.29 539.29,908.56 -233.79,316.19 -676.79,194.09 -526.46,309.93 934.18,719.92 2382.58,830.38 3471.68,807.18 1471.34,-487.42 460.12,-804.77 740.09,-751.1z" style="fill:#39fe64"/>
   <path class="NecklaceScream-Mediumfil7" d="M10733.18 20581.98c23.62,33.97 15.22,80.67 -18.75,104.29 -33.97,23.62 -80.67,15.22 -104.29,-18.75 -167.31,-240.94 -22.85,-634.66 107.87,-990.89 91.22,-248.6 174.97,-476.88 129.47,-574.47 -50.73,-108.84 -112.85,-396.25 -6.79,-665.19 -11.73,339.47 70.74,447.48 142.73,601.91 71.69,153.79 -22.35,410.14 -124.79,689.31 -117.97,321.49 -248.34,676.81 -125.45,853.79z" style="fill:#5ced94"/>
   <path class="NecklaceScream-Mediumfil7" d="M16630.7 20581.98c-23.62,33.97 -15.22,80.67 18.75,104.29 33.97,23.62 80.67,15.22 104.29,-18.75 167.31,-240.94 22.85,-634.66 -107.87,-990.89 -91.22,-248.6 -174.97,-476.88 -129.47,-574.47 50.73,-108.84 112.85,-396.25 6.79,-665.19 11.73,339.47 -70.74,447.48 -142.73,601.91 -71.69,153.79 22.35,410.14 124.79,689.31 117.97,321.49 248.34,676.81 125.45,853.79z" style="fill:#82ddfc"/>
   <path class="NecklaceScream-Mediumfil8" d="M10687.48 21166.76c-9.34,376.17 -1348.05,1274.92 -1023.3,2632.1 128.3,-227.87 450.93,-769.46 711.51,-866.28 58.43,207.25 340.19,890.14 528.73,926.9 62.86,-148.45 207.51,-930.66 561.74,-1222.34 -11.57,593.3 405.38,1079.95 453.57,1369.84 169.36,-141.2 346.88,-416.2 474.99,-769.27 182.42,171.57 294.64,1113.82 308.86,1177.42 295.3,-184.59 526.82,-675.86 679.66,-753.5 241.92,180.8 353.71,1048.34 419.49,1170.21 237.03,-234.82 224.35,-1063.31 703.32,-1315.19 80.99,126.93 155.36,518.88 247.06,626.41 252.07,-120.12 486.26,-649.96 527.41,-847.6 262.43,-36.62 242.99,764.77 246.41,850.67 556.03,-463.34 402.67,-981.08 632.2,-1304.13 181.69,275.32 320.93,643.08 395.74,736.77 109.41,-85.31 277.53,-321.33 278.18,-583.47 373.12,138.08 431.19,989.61 445.64,1170.67 1080.11,-1408.57 -426.76,-2652.01 -595.23,-3055.48 -670.47,64.75 -2150.39,376.54 -3001.52,366.67 -851.13,-9.87 -2554.47,-566.11 -2994.46,-310.4z" style="fill:#77e269"/>
   <path class="NecklaceScream-Mediumfil9" d="M10135.06 21993.11c-328.12,457.6 -648.6,1063.03 -470.88,1805.75 128.3,-227.87 450.93,-769.46 711.51,-866.28 -260.58,96.82 -364.65,249.89 -552.76,297.42 -90.21,-512.13 92.06,-914.84 312.13,-1236.89zm1331.53 707.13c17.36,564.68 406.67,1027.2 453.14,1306.74 169.27,-141.12 346.68,-415.9 474.78,-768.69 -51.32,-145.46 -102.88,-258.66 -149.31,-302.33 21.82,216.37 -54.68,502.07 -250.5,709.42 -127.18,-177.38 -510.79,-398.3 -528.11,-945.14zm1916.65 961.39c241.92,180.8 353.71,1048.34 419.49,1170.21 237.03,-234.82 224.35,-1063.31 703.32,-1315.19 80.99,126.93 155.36,518.88 247.06,626.41 252.07,-120.12 486.26,-649.96 527.41,-847.6 58.64,-8.18 97,16.07 121.31,59.53 -31.63,-43.04 -71.35,-66.5 -121.31,-59.53 -41.15,197.64 -244.47,449.67 -496.54,569.79 -91.7,-107.53 -258.68,-371.6 -339.67,-498.53 -478.97,251.88 -419.01,694.29 -656.04,929.11 -65.78,-121.87 -163.11,-453.4 -405.03,-634.2zm2134.72 186.77c9.47,143.56 7.74,266.86 8.97,297.73 540.21,-450.16 410.85,-951.65 613.55,-1276.07l-0.02 -0.04c-326.21,-11.17 -204.12,530.45 -622.5,978.38z" style="fill:#a01179"/>
   <path class="NecklaceScream-Mediumfil5 NecklaceScream-Mediumstr0" d="M10687.48 21166.76c-9.34,376.17 -1348.05,1274.92 -1023.3,2632.1 128.3,-227.87 450.93,-769.46 711.51,-866.28 58.43,207.25 340.19,890.14 528.73,926.9 62.86,-148.45 207.51,-930.66 561.74,-1222.34 -11.57,593.3 405.38,1079.95 453.57,1369.84 169.36,-141.2 346.88,-416.2 474.99,-769.27 182.42,171.57 294.64,1113.82 308.86,1177.42 295.3,-184.59 526.82,-675.86 679.66,-753.5 241.92,180.8 353.71,1048.34 419.49,1170.21 237.03,-234.82 224.35,-1063.31 703.32,-1315.19 80.99,126.93 155.36,518.88 247.06,626.41 252.07,-120.12 486.26,-649.96 527.41,-847.6 262.43,-36.62 242.99,764.77 246.41,850.67 556.03,-463.34 402.67,-981.08 632.2,-1304.13 181.69,275.32 320.93,643.08 395.74,736.77 109.41,-85.31 277.53,-321.33 278.18,-583.47 373.12,138.08 431.19,989.61 445.64,1170.67 1080.11,-1408.57 -426.76,-2652.01 -595.23,-3055.48 -670.47,64.75 -2150.39,376.54 -3001.52,366.67 -851.13,-9.87 -2554.47,-566.11 -2994.46,-310.4z" style="fill:#48ffcb"/>
   <path class="NecklaceScream-Mediumfil2" d="M10687.48 21166.76c-9.34,376.17 -1348.05,1274.92 -1023.3,2632.1 128.3,-227.87 450.93,-769.46 711.51,-866.28 58.43,207.25 340.19,890.14 528.73,926.9 -246.24,-274.59 -434.85,-1817.09 8.65,-2008.85 189.28,-81.83 608.01,-55.34 1225.14,-22.99 -14.94,212.83 429.66,719 750.32,836.73 121.24,44.52 -153.4,-515.1 -113.41,-806.31 681.22,25.16 1355.66,13.34 1670.37,-178.81 21.62,-13.2 44.17,-25.72 67.55,-37.57 380.89,33.45 -24.82,837.63 117.34,819.88 283.08,-35.35 716.23,-660.8 746.9,-985.2 158.62,2.04 318.47,17.95 470.07,46.55 407.16,279.7 149.75,886.88 313.19,828.41 157.1,-56.2 193.07,-390.8 188.43,-668.73 235.65,116.46 390.81,278.51 388.06,476.63 -8.82,635 32.98,992.79 -182.16,1419.55 109.41,-85.31 277.53,-321.33 278.18,-583.47 373.12,138.08 431.19,989.61 445.64,1170.67 1080.11,-1408.57 -426.76,-2652.01 -595.23,-3055.48 -925.79,89.38 -5992.92,54.49 -5995.98,56.27z" style="fill:#047641"/>
   <path class="NecklaceScream-Mediumfil10" d="M13681.94 21727.37c-1049.04,0 -1992.55,-285.14 -2994.46,-560.61 -107.36,-187.33 -180.2,-398.34 -87.67,-585.67 1027.38,286.25 2054.58,584.28 3082.13,584.28 1027.55,0 2054.75,-298.03 3082.13,-584.28 92.53,187.33 19.69,398.34 -87.67,585.67 -1001.91,275.47 -1945.42,560.61 -2994.46,560.61z" style="fill:#03d554"/>
   <path class="NecklaceScream-Mediumfil11" d="M11689.5 20875.42c664.09,165.39 1328.2,289.95 1992.44,289.95 1027.55,0 2054.75,-298.03 3082.13,-584.28 22.11,44.77 64.48,336.83 -31.94,478.46 26.41,-212.76 -89.39,-257.01 -144.53,-240.7 -928.96,274.84 -1807.17,461.11 -2736.32,446.17 -720.7,-11.58 -1441.24,-174.77 -2161.78,-389.6z" style="fill:#8253e3"/>
   <path class="NecklaceScream-Mediumfil5 NecklaceScream-Mediumstr0" d="M13681.94 21727.37c-1049.04,0 -1992.55,-285.14 -2994.46,-560.61 -107.36,-187.33 -180.2,-398.34 -87.67,-585.67 1027.38,286.25 2054.58,584.28 3082.13,584.28 1027.55,0 2054.75,-298.03 3082.13,-584.28 92.53,187.33 19.69,398.34 -87.67,585.67 -1001.91,275.47 -1945.42,560.61 -2994.46,560.61z" style="fill:#5c0e23"/>
   <path class="NecklaceScream-Mediumfil12" d="M13483.19 21723.98c-970.44,-32.82 -1857.47,-299.26 -2795.71,-557.22 -107.36,-187.33 -180.2,-398.34 -87.67,-585.67 513.87,143.17 1027.69,289.29 1541.53,399.59 -1142.58,-58.64 176.98,601.01 1341.85,743.3zm2411.83 -904.88c289.68,-75.64 579.36,-157.3 869.05,-238.01 92.53,187.33 19.69,398.34 -87.67,585.67 -188.09,51.71 -1352.36,345.42 -1537.42,395.87 630.23,-211.79 1301.22,-815.87 756.04,-743.53z" style="fill:#0cef49"/>
   <path class="NecklaceScream-Mediumfil13" d="M13173.17 22391.95c517.07,97.73 770.67,739.87 1495.52,508.9 338.69,-107.92 1056.06,-589.22 1328.41,-491.06 -343.14,68.87 -750.53,540.67 -1290.34,687.96 -777.7,212.2 -1189.96,-490.24 -1533.59,-705.8z" style="fill:#ea0c94"/>
  </g>
 </g><g id="BraceletGold-Medium">
 <animateTransform additive="sum" attributeName="transform" dur="10" repeatCount="indefinite" type="translate" values="0;0 200;0;0 200;0;0 200;0;0 200;0"/>
  <metadata id="CorelCorpID_23Corel-Layer"/>
  <path class="BraceletGold-Mediumfil66new BraceletGold-Mediumstr3new" d="M10392 20534c79,89 47,248 -72,354 -119,107 -281,121 -360,32 -53,-59 -57,-150 -18,-235 -84,28 -173,15 -235,-42 -74,-68 -89,-180 -46,-281 -96,59 -216,61 -303,-6 -82,-63 -113,-168 -90,-270 -103,65 -228,65 -308,-8 -53,-49 -76,-120 -68,-194 -86,59 -187,71 -257,20 -97,-71 -99,-233 -5,-362 94,-129 249,-177 346,-107 59,44 83,123 70,207 102,-64 226,-64 305,9 64,58 84,148 62,236 94,-57 211,-57 297,9 94,72 121,201 76,315 103,-68 231,-70 312,5 74,68 89,179 47,280 94,-36 191,-25 247,38z" style="fill:#0d80ba"/>
  <path class="BraceletGold-Mediumfil3new" d="M8821 19869c89,-45 175,-196 176,-279 36,20 77,54 114,74 -72,24 -169,168 -170,275 -42,-20 -78,-50 -120,-70z" style="fill:#0a0f95"/>
  <path class="BraceletGold-Mediumfil3new" d="M9174 20077c95,-34 192,-174 204,-257 33,24 83,58 117,83 -75,15 -188,157 -192,273 -39,-25 -89,-74 -129,-99z" style="fill:#b019a6"/>
  <path class="BraceletGold-Mediumfil3new" d="M9568 20352c111,-30 185,-163 196,-246 34,24 86,87 120,111 -74,16 -185,125 -199,231 -40,-25 -78,-71 -117,-96z" style="fill:#b4e1f4"/>
  <path class="BraceletGold-Mediumfil3new" d="M9883 20650c114,-10 208,-138 233,-217 29,29 68,65 97,95 -75,2 -211,122 -244,224 -34,-32 -52,-70 -86,-102z" style="fill:#260da2"/>
  <path class="BraceletGold-Mediumfil67new BraceletGold-Mediumstr3new" d="M16972 20534c-80,89 -47,248 72,354 119,107 280,121 360,32 53,-59 56,-150 17,-235 85,28 174,15 236,-42 74,-68 89,-180 46,-281 95,59 215,61 303,-6 82,-63 113,-168 90,-270 102,65 228,65 308,-8 53,-49 76,-120 68,-194 86,59 187,71 257,20 97,-71 99,-233 5,-362 -95,-129 -249,-177 -346,-107 -60,44 -83,123 -70,207 -102,-64 -226,-64 -306,9 -63,58 -83,148 -61,236 -94,-57 -211,-57 -297,9 -94,72 -122,201 -76,315 -103,-68 -231,-70 -312,5 -74,68 -89,179 -47,280 -94,-36 -191,-25 -247,38z" style="fill:#b02974"/>
  <path class="BraceletGold-Mediumfil3new" d="M18543 19869c-89,-45 -175,-196 -176,-279 -37,20 -77,54 -114,74 72,24 169,168 170,275 42,-20 78,-50 120,-70z" style="fill:#4142a5"/>
  <path class="BraceletGold-Mediumfil3new" d="M18189 20077c-94,-34 -192,-174 -203,-257 -34,24 -83,58 -117,83 74,15 188,157 191,273 40,-25 90,-74 129,-99z" style="fill:#27380a"/>
  <path class="BraceletGold-Mediumfil3new" d="M17796 20352c-111,-30 -185,-163 -196,-246 -34,24 -86,87 -120,111 74,16 184,125 199,231 40,-25 77,-71 117,-96z" style="fill:#9e7bea"/>
  <path class="BraceletGold-Mediumfil3new" d="M17481 20650c-114,-10 -208,-138 -233,-217 -29,29 -68,65 -98,95 76,2 212,122 244,224 35,-32 53,-70 87,-102z" style="fill:#206bd3"/>
 </g><g id="Head-Cat5">
 <animateTransform additive="sum" attributeName="transform" dur="10" repeatCount="indefinite" type="translate" values="0;0 200;0;0 200;0;0 200;0;0 200;0"/>
  <path class="Head-Cat5fil145" d="M13682 7485c-2521,3 -5132,2484 -5949,5018 -118,367 -230,774 -326,1125 -129,478 -261,1233 -57,1376 171,119 359,-38 620,-29 -308,228 -793,634 -552,962 191,261 484,-94 850,6 -260,75 -554,406 -478,616 56,156 245,231 536,249 1052,64 2116,663 2883,887 772,225 1635,292 2473,292 838,0 1701,-67 2473,-292 767,-224 1831,-823 2883,-887 291,-18 480,-93 536,-249 76,-210 -218,-541 -479,-616 367,-100 660,255 851,-6 241,-328 -244,-734 -552,-962 261,-9 449,148 619,29 205,-143 73,-898 -57,-1376 -95,-351 -207,-758 -325,-1125 -817,-2534 -3428,-5015 -5949,-5018z" style="fill:#8119b3"/>
  <path class="Head-Cat5fil32" d="M8220 11366c-215,492 -436,1198 -587,1726 -55,193 -106,381 -153,555 -73,270 -147,630 -159,912 -8,190 10,340 72,384 74,51 166,28 274,1 90,-23 189,-48 305,-43 42,1 74,36 72,77 0,24 -12,44 -30,57l0 0c-150,111 -342,265 -466,429 -111,146 -165,299 -70,429 74,100 186,65 321,22 142,-44 303,-95 489,-44 40,11 64,52 53,92 -8,28 -31,48 -57,54 -7,2 -14,4 -21,6 -110,40 -226,129 -307,231 -75,95 -120,197 -98,272 1,3 2,6 2,8 21,57 69,101 141,133 82,37 193,58 329,66 722,44 1443,333 2074,586 169,68 932,401 1536,530 -578,0 -1433,-328 -1591,-391 -621,-249 -1330,-533 -2027,-575 -154,-10 -283,-35 -382,-79 -110,-49 -185,-121 -220,-220 -2,-6 -4,-11 -6,-16 -36,-127 21,-277 125,-407 40,-51 88,-99 140,-142 -47,11 -92,26 -136,39 -189,60 -349,110 -486,-77 -145,-198 -77,-411 71,-608 77,-101 177,-198 278,-284l-2 0c-144,36 -267,67 -396,-24 -112,-78 -146,-274 -136,-512 12,-296 88,-667 163,-945 48,-176 100,-367 154,-557 137,-480 453,-1301 731,-1685z" style="fill:#517054"/>
  <path class="Head-Cat5fil14" d="M8151 11499c-168,330 -309,667 -418,1004 -118,367 -230,774 -326,1125 -129,478 -261,1233 -57,1376 171,119 359,-38 620,-29 -308,228 -793,634 -552,962 191,261 484,-94 850,6 -260,75 -554,406 -478,616 56,156 245,231 536,249 1052,64 2116,663 2883,887 92,27 186,50 281,72 116,21 224,41 320,62l0 0c-1756,-505 -2871,-1266 -3394,-2304 -572,-1138 -535,-2592 -265,-4026z" style="fill:#eed974"/>
  <path class="Head-Cat5fil32" d="M19144 11366c215,492 436,1198 586,1726 56,193 107,381 154,555 73,270 147,630 159,912 8,190 -10,340 -72,384 -74,51 -166,28 -274,1 -90,-23 -189,-48 -305,-43 -42,1 -74,36 -73,77 1,24 13,44 31,57l0 0c149,111 342,265 466,429 111,146 165,299 70,429 -74,100 -187,65 -321,22 -142,-44 -303,-95 -489,-44 -40,11 -64,52 -53,92 8,28 30,48 57,54 7,2 14,4 21,6 110,40 226,129 307,231 75,95 120,197 98,272 -1,3 -2,6 -2,8 -21,57 -69,101 -141,133 -82,37 -193,58 -330,66 -721,44 -1442,333 -2073,586 -170,68 -932,401 -1536,530 578,0 1433,-328 1591,-391 621,-249 1330,-533 2027,-575 154,-10 283,-35 382,-79 110,-49 185,-121 220,-220 2,-6 4,-11 6,-16 36,-127 -22,-277 -125,-407 -40,-51 -88,-99 -140,-142 47,11 92,26 136,39 189,60 348,110 485,-77 146,-198 78,-411 -70,-608 -77,-101 -177,-198 -278,-284l2 0c144,36 266,67 396,-24 112,-78 146,-274 136,-512 -12,-296 -88,-667 -163,-945 -48,-176 -100,-367 -154,-557 -138,-480 -453,-1301 -731,-1685z" style="fill:#8770a1"/>
  <path class="Head-Cat5fil32" d="M13682 7560c-408,0 -767,56 -1102,149 -949,262 -2036,899 -2715,1499 604,-730 1714,-1378 2675,-1644 348,-96 720,-154 1142,-154 421,0 794,58 1141,154 962,266 2072,914 2676,1644 -679,-600 -1766,-1237 -2715,-1499 -335,-93 -694,-149 -1102,-149z" style="fill:#835e3a"/>
 </g><g id="Mouth-Cat3">
 <animateTransform additive="sum" attributeName="transform" dur="10" repeatCount="indefinite" type="translate" values="0;0 200;0;0 200;0;0 200;0;0 200;0"/>
  <path class="Mouth-Cat3fil22 Mouth-Cat3str0" d="M13055 15227c287,-436 627,-647 627,-1011l0 -347" style="fill:#842b46"/>
  <path class="Mouth-Cat3fil22 Mouth-Cat3str0" d="M14309 15227c-287,-436 -627,-647 -627,-1011l0 -347" style="fill:#f5686f"/>
  <path class="Mouth-Cat3fil100" d="M13694 14470c83,187 241,349 361,538 -99,-126 -237,-252 -373,-252l0 -286 12 0zm-24 0c-83,187 -241,349 -361,538 99,-126 237,-252 373,-252l0 -286 -12 0z" style="fill:#06672b"/>
 </g><g id="WeaponBflyNet-Medium">
 <animateTransform additive="sum" attributeName="transform" dur="10" repeatCount="indefinite" type="translate" values="0;0 200;0;0 200;0;0 200;0;0 200;0"/>
  <metadata id="CorelCorpID_7Corel-Layer"/>
  <path class="WeaponBflyNet-Mediumfil13" d="M9944 24239c-1031,247 -2610,1424 -2409,1744 202,321 807,-308 2195,-285 1388,24 3318,548 4389,475 1072,-73 2527,-605 2527,-1008 0,-404 -664,-890 -664,-890l-1329 -819 -1589 -545 -1246 35c-312,696 -844,1047 -1874,1293z" style="fill:#13c70c"/>
  <path class="WeaponBflyNet-Mediumfil14 WeaponBflyNet-Mediumstr2" d="M12208 23611c1081,-10 2699,732 3400,1560" style="fill:#2c87ee"/>
  <path class="WeaponBflyNet-Mediumfil14 WeaponBflyNet-Mediumstr2" d="M15001 25038c361,-118 643,-350 896,-735" style="fill:#a83d43"/>
  <path class="WeaponBflyNet-Mediumfil14 WeaponBflyNet-Mediumstr2" d="M14199 24735c361,-118 799,-594 993,-1009" style="fill:#8baf05"/>
  <path class="WeaponBflyNet-Mediumfil14 WeaponBflyNet-Mediumstr2" d="M13338 24354c351,-256 662,-654 857,-1068" style="fill:#e53ec5"/>
  <path class="WeaponBflyNet-Mediumfil14 WeaponBflyNet-Mediumstr2" d="M12448 23933c351,-255 662,-653 856,-1068" style="fill:#d56edd"/>
  <path class="WeaponBflyNet-Mediumfil14 WeaponBflyNet-Mediumstr3" d="M9944 24239c-1031,247 -2610,1424 -2409,1744 202,321 807,-308 2195,-285 1388,24 3289,510 4389,475 1101,-35 2500,-626 2500,-1029 0,-404 -637,-869 -637,-869l-1329 -819 -1589 -545 -1246 35c-312,696 -844,1047 -1874,1293z" style="fill:#a18a80"/>
  <path class="WeaponBflyNet-Mediumfil15 WeaponBflyNet-Mediumstr0" d="M12035 22910c-60,107 -121,213 -181,320 -796,-450 -1593,-899 -2390,-1348 -25,-155 36,-261 180,-320 797,449 1594,899 2391,1348z" style="fill:#b9349f"/>
  <path class="WeaponBflyNet-Mediumfil14 WeaponBflyNet-Mediumstr2" d="M7552 25924c388,-461 1369,-846 2240,-977 1201,-181 2132,-581 2417,-1260" style="fill:#16ea27"/>
  <path class="WeaponBflyNet-Mediumfil3" d="M11925 23104l-71 126c-796,-450 -1593,-899 -2390,-1348 -14,-83 -2,-151 33,-206l2428 1428z" style="fill:#b961d1"/>
  <path class="WeaponBflyNet-Mediumfil14 WeaponBflyNet-Mediumstr2" d="M13504 26144c892,-24 1786,-100 2461,-823" style="fill:#ea2d24"/>
  <path class="WeaponBflyNet-Mediumfil14 WeaponBflyNet-Mediumstr2" d="M11549 25873c1214,-25 2062,57 3174,-816" style="fill:#92a4eb"/>
  <path class="WeaponBflyNet-Mediumfil14 WeaponBflyNet-Mediumstr2" d="M7630 26002c382,-247 1117,-495 1934,-589 1497,-171 3030,135 3829,-826" style="fill:#4d0801"/>
  <path class="WeaponBflyNet-Mediumfil16 WeaponBflyNet-Mediumstr1" d="M14530 23222c1360,601 2301,1453 2101,1904 -199,452 -1463,331 -2822,-269 -1360,-600 -2301,-1452 -2102,-1904 200,-451 1463,-331 2823,269zm-2073 437c425,367 973,670 1485,896 512,226 1105,426 1663,494 853,103 929,-68 277,-629 -426,-366 -973,-670 -1485,-896 -512,-226 -1105,-425 -1663,-493 -854,-103 -929,67 -277,628z" style="fill:#b458e3"/>
  <path class="WeaponBflyNet-Mediumfil3" d="M16555 25232c-345,321 -1506,173 -2746,-375 -1360,-600 -2301,-1452 -2102,-1904 38,-86 115,-151 223,-196 -33,31 -59,66 -76,106 -199,451 742,1303 2101,1903 1101,486 2139,658 2600,466zm-318 -112c15,-47 65,-258 5,-340 -71,-95 -191,-214 -360,-360 -426,-366 -973,-670 -1485,-896 -512,-226 -1105,-425 -1663,-493 -257,-31 -443,-37 -560,-16 33,-108 266,-128 706,-75 558,68 1151,268 1663,494 513,226 1060,529 1486,896 171,147 292,267 362,363 116,159 17,396 -154,427z" style="fill:#8f0988"/>
  <path class="WeaponBflyNet-Mediumfil14 WeaponBflyNet-Mediumstr2" d="M11269 23733c142,1272 2907,2208 4031,2233" style="fill:#c16ed6"/>
  <path class="WeaponBflyNet-Mediumfil14 WeaponBflyNet-Mediumstr2" d="M10476 24127c-23,1341 1755,1969 3097,2026" style="fill:#dc3f33"/>
  <path class="WeaponBflyNet-Mediumfil14 WeaponBflyNet-Mediumstr2" d="M9671 24329c-323,500 220,1274 858,1420" style="fill:#04a927"/>
  <path class="WeaponBflyNet-Mediumfil14 WeaponBflyNet-Mediumstr2" d="M8801 24747c-190,293 -4,865 395,962" style="fill:#1d1601"/>
  <path class="WeaponBflyNet-Mediumfil14 WeaponBflyNet-Mediumstr2" d="M8109 25223c-267,258 -33,735 247,682" style="fill:#c0479b"/>
 </g><g id="Eyes-Cat0">
 <animateTransform additive="sum" attributeName="transform" dur="10" repeatCount="indefinite" type="translate" values="0;0 200;0;0 200;0;0 200;0;0 200;0"/>
  <g>
        <animateTransform additive="sum" attributeName="transform" dur="10" repeatCount="indefinite" type="translate" values="0;0;0;0;0;0;0;0;0;0;0;0;0;0;0;0;0;0;0;0;0;0;0;0;0;0;0;0;0;0;0;0;0;0;0;0;0;0;0;0;0;0;0;0;0;0;0;0;0;0;0;0;0;0;0;0;0;0;0;0;0;0;0;0;0;0;0;0;0;0;0;0;0;0;0;0;0;0;0;0;0;0;0;0;0;0;0;0;0;0;3000 -2100;0"/>
        <g>
            <animateTransform additive="sum" attributeName="transform" dur="10" repeatCount="indefinite" type="rotate" values="0;0;0;0;0;0;0;0;0;0;0;0;0;0;0;0;0;0;0;0;0;0;0;0;0;0;0;0;0;0;0;0;0;0;0;0;0;0;0;0;0;0;0;0;0;0;0;0;0;0;0;0;0;0;0;0;0;0;0;0;0;0;0;0;0;0;0;0;0;0;0;0;0;0;0;0;0;0;0;0;0;0;0;0;0;0;0;0;0;0;10;0"/>
            <g>
                <animateTransform additive="sum" attributeName="transform" dur="10" repeatCount="indefinite" type="translate" values="0;0;0;0;0;0;0;0;0;0;0;0;0;0;0;0;0;0;0;0;0;0;0;0;0;0;0;0;0;0;0;0;0;0;0;0;0;0;0;0;0;0;0;0;0;0;0;0;0;0;0;0;0;0;0;0;0;0;0;0;0;0;0;0;0;0;0;0;0;0;0;0;0;0;0;0;0;0;0;0;0;0;0;0;0;0;0;0;0;0;0 1500;0"/> 
                <path class="Eyes-Cat0fil155" d="M9235 11010c140,23 512,-257 1041,-405 484,-135 944,-85 1046,-252 113,-185 -224,-494 -496,-548 -223,-45 -740,80 -1140,388 -473,365 -621,789 -451,817z"/>
            </g>
            <g>
                <animateTransform additive="sum" attributeName="transform" dur="10" repeatCount="indefinite" type="translate" values="0;0;0;0;0;0;0;0;0;0;0;0;0;0;0;0;0;0;0;0;0;0;0;0;0;0;0;0;0;0;0;0;0;0;0;0;0;0;0;0;0;0;0;0;0;0;0;0;0;0;0;0;0;0;0;0;0;0;0;0;0;0;0;0;0;0;0;0;0;0;0;0;0;0;0;0;0;0;0;0;0;0;0;0;0;0;0;0;0;0;0 1500;0"/> 
                <path class="Eyes-Cat0fil14" d="M9235 11010c140,23 512,-257 1041,-405 484,-135 944,-85 1046,-252 113,-185 -224,-494 -496,-548 -223,-45 -740,80 -1140,388 -473,365 -621,789 -451,817z"/>
            </g>
        </g>
    </g>  
	<g>
        <animateTransform additive="sum" attributeName="transform" dur="10" repeatCount="indefinite" type="translate" values="0;0;0;0;0;0;0;0;0;0;0;0;0;0;0;0;0;0;0;0;0;0;0;0;0;0;0;0;0;0;0;0;0;0;0;0;0;0;0;0;0;0;0;0;0;0;0;0;0;0;0;0;0;0;0;0;0;0;0;0;0;0;0;0;0;0;0;0;0;0;0;0;0;0;0;0;0;0;0;0;0;0;0;0;0;0;0;0;0;0;-2100 3000;0"/>
        <g>
            <animateTransform additive="sum" attributeName="transform" dur="10" repeatCount="indefinite" type="rotate" values="0;0;0;0;0;0;0;0;0;0;0;0;0;0;0;0;0;0;0;0;0;0;0;0;0;0;0;0;0;0;0;0;0;0;0;0;0;0;0;0;0;0;0;0;0;0;0;0;0;0;0;0;0;0;0;0;0;0;0;0;0;0;0;0;0;0;0;0;0;0;0;0;0;0;0;0;0;0;0;0;0;0;0;0;0;0;0;0;0;0;-10;0"/>
            <g>
                <animateTransform additive="sum" attributeName="transform" dur="10" repeatCount="indefinite" type="translate" values="0;0;0;0;0;0;0;0;0;0;0;0;0;0;0;0;0;0;0;0;0;0;0;0;0;0;0;0;0;0;0;0;0;0;0;0;0;0;0;0;0;0;0;0;0;0;0;0;0;0;0;0;0;0;0;0;0;0;0;0;0;0;0;0;0;0;0;0;0;0;0;0;0;0;0;0;0;0;0;0;0;0;0;0;0;0;0;0;0;0;0 1500;0"/> 
                <path class="Eyes-Cat0fil155" d="M18129 11010c-140,23 -512,-257 -1041,-405 -485,-135 -944,-85 -1046,-252 -113,-185 224,-494 496,-548 223,-45 740,80 1140,388 473,365 621,789 451,817z"/>
            </g>
            <g>
                <animateTransform additive="sum" attributeName="transform" dur="10" repeatCount="indefinite" type="translate" values="0;0;0;0;0;0;0;0;0;0;0;0;0;0;0;0;0;0;0;0;0;0;0;0;0;0;0;0;0;0;0;0;0;0;0;0;0;0;0;0;0;0;0;0;0;0;0;0;0;0;0;0;0;0;0;0;0;0;0;0;0;0;0;0;0;0;0;0;0;0;0;0;0;0;0;0;0;0;0;0;0;0;0;0;0;0;0;0;0;0;0 1500;0"/> 
                <path class="Eyes-Cat0fil14" d="M18129 11010c-140,23 -512,-257 -1041,-405 -485,-135 -944,-85 -1046,-252 -113,-185 224,-494 496,-548 223,-45 740,80 1140,388 473,365 621,789 451,817z"/>
            </g>
        </g>
    </g>
  <g>
        <animateTransform additive="sum" attributeName="transform" dur="10" repeatCount="indefinite" type="translate" values="0;0;0;0;0;0;0;0;0;0;0;0;0;0;0;0;0;0;0;0;0;0;0;0;0;0;0;0;0;0;0;0;0;0;0;0;0;0;0;0;0;0;0;0;0;0;0;0;0;0;0;0;0;0;0;0;0;0;0;0;0;0;0;0;0;0;0;0;0;0;0;0;0;0;0;0;0;0;0;0;0;0;0;0;0;0;0;0;0;0;0 14300;0"/> 
        <g>
            <g>
                <animateTransform additive="sum" attributeName="transform" dur="10" repeatCount="indefinite" type="scale" values="1;1;1;1;1;1;1;1;1;1;1;1;1;1;1;1;1;1;1;1;1;1;1;1;1;1;1;1;1;1;1;1;1;1;1;1;1;1;1;1;1;1;1;1;1;1;1;1;1;1;1;1;1;1;1;1;1;1;1;1;1;1;1;1;1;1;1;1;1;1;1;1;1;1;1;1;1;1;1;1;1;1;1;1;1;1;1;1;1;1;1 0.01;1"/> 
                <path class="Eyes-Cat0fil156" d="M9480 14748c691,107 1705,19 2207,-241 860,-445 574,-2896 -754,-3169 -664,-137 -1272,126 -1702,608 -908,1019 -728,2651 249,2802z"/>
            </g>
            <g>
                <animateTransform additive="sum" attributeName="transform" dur="10" repeatCount="indefinite" type="scale" values="1;1;1;1;1;1;1;1;1;1;1;1;1;1;1;1;1;1;1;1;1;1;1;1;1;1;1;1;1;1;1;1;1;1;1;1;1;1;1;1;1;1;1;1;1;1;1;1;1;1;1;1;1;1;1;1;1;1;1;1;1;1;1;1;1;1;1;1;1;1;1;1;1;1;1;1;1;1;1;1;1;1;1;1;1;1;1;1;1;1;1 0.01;1"/> 
                <path class="Eyes-Cat0fil157" d="M12124 13839c207,-892 -204,-2298 -1191,-2501 -664,-137 -1272,126 -1702,608 -351,393 -539,878 -582,1334 389,-1025 1445,-1651 2162,-1537 911,145 1297,1048 1313,2096z"/>
            </g>
            <g>
                <animateTransform additive="sum" attributeName="transform" dur="10" repeatCount="indefinite" type="translate" values="0;0;0;0;0;0;0;0;0;0;0;0;0;0;0;0;0;0;0;0;0;0;0;0;0;0;0;0;0;0;0;0;0;0;0;0;0;0;0;0;0;0;0;0;0;0;0;0;0;0;0;0;0;0;0;0;0;0;0;0;0;0;0;0;0;0;0;0;0;0;0;0;0;0;0;0;0;0;0;0;0;0;0;0;0;0;0;0;0;0;0 -14590;0"/>    
                <g>
                    <animateTransform additive="sum" attributeName="transform" dur="10" repeatCount="indefinite" type="translate" values="0;0;0;0;0;0;0;0;0;0;0;0;0;0;0;0;0;0;0;0;0;0;0;0;0;0;0;0;0;0;0;0;0;0;0;0;0;0;0;0;0;0;0;0;0;0;0;0;0;0;0;0;0;0;0;0;0;0;0;0;0;0;0;0;0;0;0;0;0;0;0;0;0;0;0;0;0;0;0;0;0;0;0;0;0;0;0;0;0;0;0;0 14000;0"/>
                    <g>
                        <animateTransform additive="sum" attributeName="transform" dur="10" repeatCount="indefinite" type="scale" values="1;1;1;1;1;1;1;1;1;1;1;1;1;1;1;1;1;1;1;1;1;1;1;1;1;1;1;1;1;1;1;1;1;1;1;1;1;1;1;1;1;1;1;1;1;1;1;1;1;1;1;1;1;1;1;1;1;1;1;1;1;1;1;1;1;1;1;1;1;1;1;1;1;1;1;1;1;1;1;1;1;1;1;1;1;1;1;1;1;1;1;1 0.05;1"/> 
                        <path class="Eyes-Cat0fil158" d="M9480 14748c691,107 1705,19 2207,-241 170,-88 295,-254 376,-467 -329,-174 -433,-495 -549,-807 -480,-22 -961,-44 -1441,-65 -756,412 -1011,844 -1124,1281 135,158 313,265 531,299z"/>
                    </g>
                </g>
            </g>
            <g>
                <animateTransform additive="sum" attributeName="transform" dur="10" repeatCount="indefinite" type="translate" values="0;0;0;0;0;0;0;0;0;0;0;0;0;0;0;0;0;0;0;0;0;0;0;0;0;0;0;0;0;0;0;0;0;0;0;0;0;0;0;0;0;0;0;0;0;0;0;0;0;0;0;0;0;0;0;0;0;0;0;0;0;0;0;0;0;0;0;0;0;0;0;0;0;0;0;0;0;0;0;0;0;0;0;0;0;0;0;0;0;0;0 -14350;0"/>    
                <g>
                    <animateTransform additive="sum" attributeName="transform" dur="10" repeatCount="indefinite" type="translate" values="0;0;0;0;0;0;0;0;0;0;0;0;0;0;0;0;0;0;0;0;0;0;0;0;0;0;0;0;0;0;0;0;0;0;0;0;0;0;0;0;0;0;0;0;0;0;0;0;0;0;0;0;0;0;0;0;0;0;0;0;0;0;0;0;0;0;0;0;0;0;0;0;0;0;0;0;0;0;0;0;0;0;0;0;0;0;0;0;0;0;0;0;0 12970;0"/>
                    <g>
                        <animateTransform additive="sum" attributeName="transform" dur="10" repeatCount="indefinite" type="scale" values="1;1;1;1;1;1;1;1;1;1;1;1;1;1;1;1;1;1;1;1;1;1;1;1;1;1;1;1;1;1;1;1;1;1;1;1;1;1;1;1;1;1;1;1;1;1;1;1;1;1;1;1;1;1;1;1;1;1;1;1;1;1;1;1;1;1;1;1;1;1;1;1;1;1;1;1;1;1;1;1;1;1;1;1;1;1;1;1;1;1;1;1;1 0.1;1"/>
                       <circle class="Eyes-Cat0fil152" r="235" transform="matrix(1.15149 -0.097738 0.133993 1.0709 9446.29 14404.2)"/>
                    </g>
                </g>
            </g>
            <g>
                <animateTransform additive="sum" attributeName="transform" dur="10" repeatCount="indefinite" type="translate" values="0;0;0;0;0;0;0;0;0;0;0;0;0;0;0;0;0;0;0;0;0;0;0;0;0;0;0;0;0;0;0;0;0;0;0;0;0;0;0;0;0;0;0;0;0;0;0;0;0;0;0;0;0;0;0;0;0;0;0;0;0;0;0;0;0;0;0;0;0;0;0;0;0;0;0;0;0;0;0;0;0;0;0;0;0;0;0;0;0;0;0 -14300;0"/>    
                <g>
                    <animateTransform additive="sum" attributeName="transform" dur="10" repeatCount="indefinite" type="translate" values="0;0;0;0;0;0;0;0;0;0;0;0;0;0;0;0;0;0;0;0;0;0;0;0;0;0;0;0;0;0;0;0;0;0;0;0;0;0;0;0;0;0;0;0;0;0;0;0;0;0;0;0;0;0;0;0;0;0;0;0;0;0;0;0;0;0;0;0;0;0;0;0;0;0;0;0;0;0;0;0;0;0;0;0;0;0;0;0;0;0;0;0;0 12970;0"/>
                    <g>
                        <animateTransform additive="sum" attributeName="transform" dur="10" repeatCount="indefinite" type="scale" values="1;1;1;1;1;1;1;1;1;1;1;1;1;1;1;1;1;1;1;1;1;1;1;1;1;1;1;1;1;1;1;1;1;1;1;1;1;1;1;1;1;1;1;1;1;1;1;1;1;1;1;1;1;1;1;1;1;1;1;1;1;1;1;1;1;1;1;1;1;1;1;1;1;1;1;1;1;1;1;1;1;1;1;1;1;1;1;1;1;1;1;1;1 0.1;1"/>
                       <circle class="Eyes-Cat0fil152" r="235" transform="matrix(0.577212 0.0129298 -0.0186495 0.510232 9231.57 13792)"/>
                    </g>
                </g>
            </g>
            <g>
                <animateTransform additive="sum" attributeName="transform" dur="10" repeatCount="indefinite" type="translate" values="0;0;0;0;0;0;0;0;0;0;0;0;0;0;0;0;0;0;0;0;0;0;0;0;0;0;0;0;0;0;0;0;0;0;0;0;0;0;0;0;0;0;0;0;0;0;0;0;0;0;0;0;0;0;0;0;0;0;0;0;0;0;0;0;0;0;0;0;0;0;0;0;0;0;0;0;0;0;0;0;0;0;0;0;0;0;0;0;0;0;0 -13500;0"/>  
                <g>
                    <animateTransform additive="sum" attributeName="transform" dur="10" repeatCount="indefinite" type="translate" values="0;0;0;0;0;0;0;0;0;0;0;0;0;0;0;0;0;0;0;0;0;0;0;0;0;0;0;0;0;0;0;0;0;0;0;0;0;0;0;0;0;0;0;0;0;0;0;0;0;0;0;0;0;0;0;0;0;0;0;0;0;0;0;0;0;0;0;0;0;0;0;0;0;0;0;0;0;0;0;0;0;0;0;0;0;0;0;0;0;0;0;0 13000;0"/>
                    <g>
                        <animateTransform additive="sum" attributeName="transform" dur="10" repeatCount="indefinite" type="scale" values="1;1;1;1;1;1;1;1;1;1;1;1;1;1;1;1;1;1;1;1;1;1;1;1;1;1;1;1;1;1;1;1;1;1;1;1;1;1;1;1;1;1;1;1;1;1;1;1;1;1;1;1;1;1;1;1;1;1;1;1;1;1;1;1;1;1;1;1;1;1;1;1;1;1;1;1;1;1;1;1;1;1;1;1;1;1;1;1;1;1;1;1 0.05;1"/>
                        <path class="Eyes-Cat0fil159" d="M10438 11862c577,-132 1157,251 1294,854 137,603 -220,1199 -798,1330 -578,132 -1157,-251 -1295,-854 -137,-603 221,-1199 799,-1330z"/>
                    </g>
                </g>
                <g>
                    <animateTransform additive="sum" attributeName="transform" dur="10" repeatCount="indefinite" type="translate" values="0;0;0;0;0;0;0;0;0;0;0;0;0;0;0;0;0;0;0;0;0;0;0;0;0;0;0;0;0;0;0;0;0;0;0;0;0;0;0;0;0;0;0;0;0;0;0;0;0;0;0;0;0;0;0;0;0;0;0;0;0;0;0;0;0;0;0;0;0;0;0;0;0;0;0;0;0;0;0;0;0;0;0;0;0;0;0;0;0;0;0;0 13150;0"/>
                    <g>
                        <animateTransform additive="sum" attributeName="transform" dur="10" repeatCount="indefinite" type="scale" values="1;1;1;1;1;1;1;1;1;1;1;1;1;1;1;1;1;1;1;1;1;1;1;1;1;1;1;1;1;1;1;1;1;1;1;1;1;1;1;1;1;1;1;1;1;1;1;1;1;1;1;1;1;1;1;1;1;1;1;1;1;1;1;1;1;1;1;1;1;1;1;1;1;1;1;1;1;1;1;1;1;1;1;1;1;1;1;1;1;1;1;1 0.05;1"/>
                        <path class="Eyes-Cat0fil152" d="M11059 12060c-582,8 -857,1323 -13,1323 871,0 644,-1333 13,-1323z"/>
                    </g>
                </g>    
            </g>
            <g>
                <animateTransform additive="sum" attributeName="transform" dur="10" repeatCount="indefinite" type="scale" values="1;1;1;1;1;1;1;1;1;1;1;1;1;1;1;1;1;1;1;1;1;1;1;1;1;1;1;1;1;1;1;1;1;1;1;1;1;1;1;1;1;1;1;1;1;1;1;1;1;1;1;1;1;1;1;1;1;1;1;1;1;1;1;1;1;1;1;1;1;1;1;1;1;1;1;1;1;1;1;1;1;1;1;1;1;1;1;1;1;1;1 0.01;1"/> 
                <path class="Eyes-Cat0fil22 Eyes-Cat0str4" d="M9480 14748c691,107 1705,19 2207,-241 860,-445 574,-2896 -754,-3169 -664,-137 -1272,126 -1702,608 -908,1019 -728,2651 249,2802z"/>
            </g>
        </g>
    </g>
    <g>
        <animateTransform additive="sum" attributeName="transform" dur="10" repeatCount="indefinite" type="translate" values="0;0;0;0;0;0;0;0;0;0;0;0;0;0;0;0;0;0;0;0;0;0;0;0;0;0;0;0;0;0;0;0;0;0;0;0;0;0;0;0;0;0;0;0;0;0;0;0;0;0;0;0;0;0;0;0;0;0;0;0;0;0;0;0;0;0;0;0;0;0;0;0;0;0;0;0;0;0;0;0;0;0;0;0;0;0;0;0;0;0;0 14300;0"/>
        <g>
            <g>
                <animateTransform additive="sum" attributeName="transform" dur="10" repeatCount="indefinite" type="scale" values="1;1;1;1;1;1;1;1;1;1;1;1;1;1;1;1;1;1;1;1;1;1;1;1;1;1;1;1;1;1;1;1;1;1;1;1;1;1;1;1;1;1;1;1;1;1;1;1;1;1;1;1;1;1;1;1;1;1;1;1;1;1;1;1;1;1;1;1;1;1;1;1;1;1;1;1;1;1;1;1;1;1;1;1;1;1;1;1;1;1;1 0.01;1"/> 
                <path class="Eyes-Cat0fil160" d="M17884 14748c-691,107 -1705,19 -2207,-241 -860,-445 -574,-2896 754,-3169 664,-137 1272,126 1702,608 908,1019 728,2651 -249,2802z"/>
            </g>
            <g>
                <animateTransform additive="sum" attributeName="transform" dur="10" repeatCount="indefinite" type="scale" values="1;1;1;1;1;1;1;1;1;1;1;1;1;1;1;1;1;1;1;1;1;1;1;1;1;1;1;1;1;1;1;1;1;1;1;1;1;1;1;1;1;1;1;1;1;1;1;1;1;1;1;1;1;1;1;1;1;1;1;1;1;1;1;1;1;1;1;1;1;1;1;1;1;1;1;1;1;1;1;1;1;1;1;1;1;1;1;1;1;1;1 0.01;1"/> 
                <path class="Eyes-Cat0fil157" d="M15240 13839c-207,-892 204,-2298 1191,-2501 664,-137 1272,126 1702,608 350,393 539,878 582,1334 -389,-1025 -1445,-1651 -2162,-1537 -911,145 -1297,1048 -1313,2096z"/>
            </g>
            <g>
                <animateTransform additive="sum" attributeName="transform" dur="10" repeatCount="indefinite" type="translate" values="0;0;0;0;0;0;0;0;0;0;0;0;0;0;0;0;0;0;0;0;0;0;0;0;0;0;0;0;0;0;0;0;0;0;0;0;0;0;0;0;0;0;0;0;0;0;0;0;0;0;0;0;0;0;0;0;0;0;0;0;0;0;0;0;0;0;0;0;0;0;0;0;0;0;0;0;0;0;0;0;0;0;0;0;0;0;0;0;0;0;0 -14590;0"/>    
                <g>
                    <animateTransform additive="sum" attributeName="transform" dur="10" repeatCount="indefinite" type="translate" values="0;0;0;0;0;0;0;0;0;0;0;0;0;0;0;0;0;0;0;0;0;0;0;0;0;0;0;0;0;0;0;0;0;0;0;0;0;0;0;0;0;0;0;0;0;0;0;0;0;0;0;0;0;0;0;0;0;0;0;0;0;0;0;0;0;0;0;0;0;0;0;0;0;0;0;0;0;0;0;0;0;0;0;0;0;0;0;0;0;0;0;0 14000;0"/>
                    <g>
                        <animateTransform additive="sum" attributeName="transform" dur="10" repeatCount="indefinite" type="scale" values="1;1;1;1;1;1;1;1;1;1;1;1;1;1;1;1;1;1;1;1;1;1;1;1;1;1;1;1;1;1;1;1;1;1;1;1;1;1;1;1;1;1;1;1;1;1;1;1;1;1;1;1;1;1;1;1;1;1;1;1;1;1;1;1;1;1;1;1;1;1;1;1;1;1;1;1;1;1;1;1;1;1;1;1;1;1;1;1;1;1;1;1 0.05;1"/> 
                        <path class="Eyes-Cat0fil161" d="M17884 14748c-691,107 -1705,19 -2207,-241 -170,-88 -295,-254 -376,-467 329,-174 433,-495 548,-807 481,-22 961,-44 1442,-65 756,412 1011,844 1124,1281 -135,158 -314,265 -531,299z"/>
                    </g>
                </g>
            </g>
            <g>
                <animateTransform additive="sum" attributeName="transform" dur="10" repeatCount="indefinite" type="translate" values="0;0;0;0;0;0;0;0;0;0;0;0;0;0;0;0;0;0;0;0;0;0;0;0;0;0;0;0;0;0;0;0;0;0;0;0;0;0;0;0;0;0;0;0;0;0;0;0;0;0;0;0;0;0;0;0;0;0;0;0;0;0;0;0;0;0;0;0;0;0;0;0;0;0;0;0;0;0;0;0;0;0;0;0;0;0;0;0;0;0;0 -14350;0"/>    
                <g>
                    <animateTransform additive="sum" attributeName="transform" dur="10" repeatCount="indefinite" type="translate" values="0;0;0;0;0;0;0;0;0;0;0;0;0;0;0;0;0;0;0;0;0;0;0;0;0;0;0;0;0;0;0;0;0;0;0;0;0;0;0;0;0;0;0;0;0;0;0;0;0;0;0;0;0;0;0;0;0;0;0;0;0;0;0;0;0;0;0;0;0;0;0;0;0;0;0;0;0;0;0;0;0;0;0;0;0;0;0;0;0;0;0;0;0 12970;0"/>
                    <g>
                        <animateTransform additive="sum" attributeName="transform" dur="10" repeatCount="indefinite" type="scale" values="1;1;1;1;1;1;1;1;1;1;1;1;1;1;1;1;1;1;1;1;1;1;1;1;1;1;1;1;1;1;1;1;1;1;1;1;1;1;1;1;1;1;1;1;1;1;1;1;1;1;1;1;1;1;1;1;1;1;1;1;1;1;1;1;1;1;1;1;1;1;1;1;1;1;1;1;1;1;1;1;1;1;1;1;1;1;1;1;1;1;1;1;1 0.1;1"/>
                        <circle class="Eyes-Cat0fil152" r="235" transform="matrix(-1.15149 -0.097738 -0.133993 1.0709 17917.6 14404.2)"/>
                    </g>
                </g>
            </g>
            <g>
                <animateTransform additive="sum" attributeName="transform" dur="10" repeatCount="indefinite" type="translate" values="0;0;0;0;0;0;0;0;0;0;0;0;0;0;0;0;0;0;0;0;0;0;0;0;0;0;0;0;0;0;0;0;0;0;0;0;0;0;0;0;0;0;0;0;0;0;0;0;0;0;0;0;0;0;0;0;0;0;0;0;0;0;0;0;0;0;0;0;0;0;0;0;0;0;0;0;0;0;0;0;0;0;0;0;0;0;0;0;0;0;0 -14300;0"/>    
                <g>
                    <animateTransform additive="sum" attributeName="transform" dur="10" repeatCount="indefinite" type="translate" values="0;0;0;0;0;0;0;0;0;0;0;0;0;0;0;0;0;0;0;0;0;0;0;0;0;0;0;0;0;0;0;0;0;0;0;0;0;0;0;0;0;0;0;0;0;0;0;0;0;0;0;0;0;0;0;0;0;0;0;0;0;0;0;0;0;0;0;0;0;0;0;0;0;0;0;0;0;0;0;0;0;0;0;0;0;0;0;0;0;0;0;0;0 12970;0"/>
                    <g>
                        <animateTransform additive="sum" attributeName="transform" dur="10" repeatCount="indefinite" type="scale" values="1;1;1;1;1;1;1;1;1;1;1;1;1;1;1;1;1;1;1;1;1;1;1;1;1;1;1;1;1;1;1;1;1;1;1;1;1;1;1;1;1;1;1;1;1;1;1;1;1;1;1;1;1;1;1;1;1;1;1;1;1;1;1;1;1;1;1;1;1;1;1;1;1;1;1;1;1;1;1;1;1;1;1;1;1;1;1;1;1;1;1;1;1 0.1;1"/>
                        <circle class="Eyes-Cat0fil152" r="235" transform="matrix(-0.577212 0.0129298 0.0186495 0.510232 18132.3 13792)"/>
                    </g>
                </g>
            </g>
            <g>
                <animateTransform additive="sum" attributeName="transform" dur="10" repeatCount="indefinite" type="translate" values="0;0;0;0;0;0;0;0;0;0;0;0;0;0;0;0;0;0;0;0;0;0;0;0;0;0;0;0;0;0;0;0;0;0;0;0;0;0;0;0;0;0;0;0;0;0;0;0;0;0;0;0;0;0;0;0;0;0;0;0;0;0;0;0;0;0;0;0;0;0;0;0;0;0;0;0;0;0;0;0;0;0;0;0;0;0;0;0;0;0;0 -13500;0"/>  
                <g>
                    <animateTransform additive="sum" attributeName="transform" dur="10" repeatCount="indefinite" type="translate" values="0;0;0;0;0;0;0;0;0;0;0;0;0;0;0;0;0;0;0;0;0;0;0;0;0;0;0;0;0;0;0;0;0;0;0;0;0;0;0;0;0;0;0;0;0;0;0;0;0;0;0;0;0;0;0;0;0;0;0;0;0;0;0;0;0;0;0;0;0;0;0;0;0;0;0;0;0;0;0;0;0;0;0;0;0;0;0;0;0;0;0;0 13000;0"/>
                    <g>
						<animateTransform additive="sum" attributeName="transform" dur="10" repeatCount="indefinite" type="scale" values="1;1;1;1;1;1;1;1;1;1;1;1;1;1;1;1;1;1;1;1;1;1;1;1;1;1;1;1;1;1;1;1;1;1;1;1;1;1;1;1;1;1;1;1;1;1;1;1;1;1;1;1;1;1;1;1;1;1;1;1;1;1;1;1;1;1;1;1;1;1;1;1;1;1;1;1;1;1;1;1;1;1;1;1;1;1;1;1;1;1;1;1 0.05;1"/>
                        <path class="Eyes-Cat0fil162" d="M16926 11862c-578,-132 -1157,251 -1294,854 -137,603 220,1199 798,1330 578,132 1157,-251 1294,-854 138,-603 -220,-1199 -798,-1330z"/>
                    </g>
                </g>
                <g>
                    <animateTransform additive="sum" attributeName="transform" dur="10" repeatCount="indefinite" type="translate" values="0;0;0;0;0;0;0;0;0;0;0;0;0;0;0;0;0;0;0;0;0;0;0;0;0;0;0;0;0;0;0;0;0;0;0;0;0;0;0;0;0;0;0;0;0;0;0;0;0;0;0;0;0;0;0;0;0;0;0;0;0;0;0;0;0;0;0;0;0;0;0;0;0;0;0;0;0;0;0;0;0;0;0;0;0;0;0;0;0;0;0;0 13150;0"/>
                    <g>
                        <animateTransform additive="sum" attributeName="transform" dur="10" repeatCount="indefinite" type="scale" values="1;1;1;1;1;1;1;1;1;1;1;1;1;1;1;1;1;1;1;1;1;1;1;1;1;1;1;1;1;1;1;1;1;1;1;1;1;1;1;1;1;1;1;1;1;1;1;1;1;1;1;1;1;1;1;1;1;1;1;1;1;1;1;1;1;1;1;1;1;1;1;1;1;1;1;1;1;1;1;1;1;1;1;1;1;1;1;1;1;1;1;1 0.05;1"/>
                        <path class="Eyes-Cat0fil152" d="M16305 12060c582,8 857,1323 12,1323 -870,0 -643,-1333 -12,-1323z"/>
                    </g>
                </g> 
            </g>
			<g>
                <animateTransform additive="sum" attributeName="transform" dur="10" repeatCount="indefinite" type="scale" values="1;1;1;1;1;1;1;1;1;1;1;1;1;1;1;1;1;1;1;1;1;1;1;1;1;1;1;1;1;1;1;1;1;1;1;1;1;1;1;1;1;1;1;1;1;1;1;1;1;1;1;1;1;1;1;1;1;1;1;1;1;1;1;1;1;1;1;1;1;1;1;1;1;1;1;1;1;1;1;1;1;1;1;1;1;1;1;1;1;1;1 0.01;1"/> 
                <path class="Eyes-Cat0fil22 Eyes-Cat0str4" d="M17884 14748c-691,107 -1705,19 -2207,-241 -860,-445 -574,-2896 754,-3169 664,-137 1272,126 1702,608 908,1019 728,2651 -249,2802z"/>
            </g>
        </g>
    </g>
 </g><g id="AccessoryDuck">
  <metadata id="CorelCorpID_7Corel-Layer"/>
  <g>
   <path class="AccessoryDuckfil122" d="M6799 23590c567,92 901,386 954,797 53,412 -243,1082 -841,1089 -393,5 -1153,26 -1786,26 -391,0 -696,-285 -829,-563 -183,-382 -87,-1276 203,-1374 170,-58 552,365 851,277 435,-128 967,-330 1448,-252z" style="fill:#c941b3"/>
   <path class="AccessoryDuckfil48" d="M7758 24535c-23,406 -315,934 -846,941 -393,5 -1153,26 -1786,26 -391,0 -696,-285 -829,-563 -156,-325 -109,-1021 87,-1282 -106,322 -111,821 11,1082 131,278 430,563 813,563 621,0 1366,-21 1751,-26 437,-6 710,-381 799,-741z" style="fill:#c2b109"/>
   <path class="AccessoryDuckfil123" d="M6799 23590c56,9 109,20 160,33 -130,90 -255,351 -427,375 -135,19 -523,-198 -655,-168 -209,48 -405,103 -557,148 -275,81 -535,-184 -692,-130 -267,91 -276,730 -108,1082 120,250 435,557 785,572 -61,0 -120,0 -179,0 -391,0 -696,-285 -829,-563 -183,-382 -87,-1276 203,-1374 170,-58 552,365 851,277 435,-128 967,-330 1448,-252z" style="fill:#f616a8"/>
   <path class="AccessoryDuckfil2 AccessoryDuckstr1" d="M6799 23590c567,92 901,386 954,797 53,412 -243,1082 -841,1089 -393,5 -1153,26 -1786,26 -391,0 -696,-285 -829,-563 -183,-382 -87,-1276 203,-1374 170,-58 552,365 851,277 435,-128 967,-330 1448,-252z" style="fill:#657b04"/>
   <path class="AccessoryDuckfil124" d="M6799 22018c651,0 1017,455 1017,1017 0,561 -456,1016 -1017,1016 -561,0 -1016,-455 -1016,-1016 0,-562 365,-1017 1016,-1017z" style="fill:#f8e198"/>
   <path class="AccessoryDuckfil123" d="M6799 22018c651,0 1017,455 1017,1017 0,95 -14,186 -38,274 13,-58 21,-117 21,-178 0,-519 -394,-978 -993,-978 -598,0 -854,358 -854,878 0,454 400,909 767,1017 -524,-41 -936,-479 -936,-1013 0,-562 365,-1017 1016,-1017z" style="fill:#218637"/>
   <path class="AccessoryDuckfil3" d="M6185 23844c-28,28 -290,-116 -378,-327 -53,-104 -110,-285 -125,-443 -4,-44 -7,-84 -7,-123 0,-256 79,-492 231,-671 152,-180 376,-303 666,-331 43,-4 85,-6 127,-6 344,0 637,118 846,308 218,199 346,477 346,784 0,197 -53,383 -146,543 -114,198 -486,429 -501,374 -14,-55 186,-125 372,-448 79,-138 125,-298 125,-469 0,-264 -109,-502 -297,-673 -182,-166 -440,-269 -745,-269 -41,0 -79,2 -113,5 -248,24 -438,127 -566,278 -128,152 -195,354 -195,575 0,37 2,74 5,108 14,140 50,256 110,390 60,135 273,366 245,395z" style="fill:#1555a1"/>
   <path class="AccessoryDuckfil123" d="M6658 22472c143,0 258,134 258,300 0,166 -115,300 -258,300 -143,0 -259,-134 -259,-300 0,-166 116,-300 259,-300z" style="fill:#aeb860"/>
   <ellipse class="AccessoryDuckfil125" cx="6677" cy="22749" rx="239" ry="278"/>
   <path class="AccessoryDuckfil2 AccessoryDuckstr18" d="M8022 22883c-201,144 -531,341 -779,257" style="fill:#5d0a55"/>
   <path class="AccessoryDuckfil126" d="M6906 23254c-93,-143 260,-242 351,-320 100,-87 101,-231 168,-331 379,92 984,-279 923,-35 -43,175 -342,292 -454,408 135,81 371,182 293,310 -165,270 -1199,93 -1281,-32z" style="fill:#865877"/>
   <path class="AccessoryDuckfil127" d="M5595 24102c432,0 782,85 782,426 0,341 -350,504 -782,504 -432,0 -782,-445 -782,-651 0,-207 350,-279 782,-279z" style="fill:#03b41e"/>
   <path class="AccessoryDuckfil123" d="M5595 24102c112,0 218,6 314,20 -54,-3 -109,-5 -167,-5 -397,0 -719,62 -719,238 0,176 322,556 719,556 224,0 424,-44 556,-135 -127,173 -394,256 -703,256 -432,0 -782,-445 -782,-651 0,-207 350,-279 782,-279z" style="fill:#d785d3"/>
   <path class="AccessoryDuckfil2" d="M5595 24102c432,0 782,85 782,426 0,341 -350,504 -782,504 -432,0 -782,-445 -782,-651 0,-207 350,-279 782,-279z" style="fill:#7d2d77"/>
   <path class="AccessoryDuckfil128" d="M7774 23111c-89,-34 -14,-124 -111,-45 -97,79 -363,35 -380,106 -17,71 420,126 587,75 167,-51 -7,-102 -96,-136z" style="fill:#0fb026"/>
   <path class="AccessoryDuckfil3" d="M7978 22822c34,-24 80,-16 105,17 24,33 16,80 -17,104 -104,75 -242,164 -388,223 -227,93 -542,12 -506,-50 0,-32 161,63 450,-88 126,-66 259,-136 356,-206z" style="fill:#a516e2"/>
   <path class="AccessoryDuckfil2 AccessoryDuckstr0" d="M6843 23214c-50,-149 300,-228 411,-311 100,-77 103,-211 171,-300 595,142 902,-305 923,-35 14,173 -342,292 -454,408 135,81 371,182 293,310 -165,270 -1277,131 -1344,-72z" style="fill:#06f9fa"/>
   <ellipse class="AccessoryDuckfil14" cx="6745" cy="22636" rx="71" ry="72"/>
   <path class="AccessoryDuckfil14" d="M6953 22225c60,7 105,42 101,77 -4,35 -60,68 -120,61 -60,-7 -102,-52 -98,-87 4,-36 57,-59 117,-51z" style="fill:#9d3f06"/>
   <path class="AccessoryDuckfil14" d="M7236 22345c28,16 43,42 34,59 -10,16 -24,5 -52,-11 -28,-16 -60,-31 -50,-47 9,-17 40,-17 68,-1z" style="fill:#e09b93"/>
   <path class="AccessoryDuckfil129" d="M7161 25119c-29,-51 140,-147 188,-480 19,-137 -2,-287 -86,-411 -23,-34 -14,-80 20,-104 35,-23 81,-14 104,21 107,157 135,344 110,515 -35,244 -307,509 -336,459z" style="fill:#4f89c0"/>
   <path class="AccessoryDuckfil130" d="M5478 24311c0,-39 423,-52 488,-36 278,75 233,289 199,309 -34,19 11,-154 -222,-212 -285,-70 -465,-23 -465,-61z" style="fill:#b8871a"/>
  </g>
 </g><g id="HeadScream-Medium">
     <animateTransform additive="sum" attributeName="transform" dur="10" repeatCount="indefinite" type="translate" values="0;0 200;0;0 200;0;0 200;0;0 200;0"/>
     <metadata id="CorelCorpID_1Corel-Layer"/>
  <g id="_1732992825984">
   <path class="HeadScream-Mediumfil12" d="M13245.37 20994.14c1090.65,29.77 1519.01,-794.3 2059.36,-1858.86 540.35,-1064.56 1892.78,-1187.4 2274.29,-658.81 6.77,0 -267.25,-343.25 -314.81,-398.14 -194.6,-224.54 -578.31,-420.81 -925.99,-528.19 -62.11,-131.08 -141.89,-241.19 -242.57,-314.07l-2413.71 485.07 -2413.71 -485.07c-100.68,72.88 -180.46,182.99 -242.57,314.07 -347.68,107.38 -731.39,303.65 -925.99,528.19 -74.04,85.43 -175.29,213.51 -290.15,365.43 930.52,-455.82 1662.62,-76.17 1879.21,823.82 216.59,899.99 465.99,1696.79 1556.64,1726.56z" style="fill:#65acac"/>
   <g>
    <path class="HeadScream-Mediumfil14 HeadScream-Mediumstr0" d="M7383.34 16830.55c448.32,615.13 1158.2,864 1534.2,981.15 971.55,302.7 1290.54,-389.2 2102.64,157.21 747.45,502.92 1417.12,626.79 1882.56,-149.16 259.73,-196.88 332.14,-207.41 779.19,-207.41 447.05,0 519.47,10.55 779.19,207.41 721.07,546.58 1135.11,652.07 1882.56,149.16 790.38,-531.8 1113.67,109.38 2026.08,-135.02 387.88,-103.9 1133.62,-411.96 1564.27,-950.06 1771.7,-3048.18 -2969.79,-7212.43 -6252.09,-7212.43 -3282.3,0 -8069.4,4112.51 -6298.6,7159.15zm1757.44 -1870.9c155.05,344.58 1687.75,1330.14 3252.01,-659.77 1564.26,-1989.91 -244.74,-3511.62 -830.02,-2617.75 -585.28,893.88 -437.32,1558.71 -1159.9,1872.87 -722.58,314.16 -1637.81,569.71 -1262.09,1404.65zm9082.32 0c-155.05,344.58 -1687.75,1330.14 -3252.01,-659.77 -1564.26,-1989.91 244.74,-3511.62 830.02,-2617.75 585.28,893.88 437.32,1558.71 1159.9,1872.87 722.58,314.16 1637.81,569.71 1262.09,1404.65z" style="fill:#b6ab58"/>
    <path class="HeadScream-Mediumfil15" d="M13681.94 20908.15c898.55,0 1318.21,-708.74 1622.79,-1772.87 304.58,-1064.13 1365.3,-2261.98 2295.82,-1806.15 930.52,455.83 2548.5,-730.71 2548.5,-2369.47 0,-1638.76 -702.34,-1798.37 -712.98,-1936.71 -10.64,-138.34 -618.58,-5049.62 -5741.58,-5049.62 -4.24,0 -8.32,0.18 -12.55,0.19 -4.23,-0.01 -8.31,-0.19 -12.55,-0.19 -5123,0 -5730.94,4911.28 -5741.58,5049.62 -10.64,138.34 -712.98,297.95 -712.98,1936.71 0,1638.76 1617.98,2825.3 2548.5,2369.47 930.52,-455.83 1991.24,742.02 2295.82,1806.15 304.58,1064.13 724.24,1772.87 1622.79,1772.87zm-4541.16 -5948.5c155.05,344.58 1687.75,1330.14 3252.01,-659.77 1564.26,-1989.91 -244.74,-3511.62 -830.02,-2617.75 -585.28,893.88 -437.32,1558.71 -1159.9,1872.87 -722.58,314.16 -1637.81,569.71 -1262.09,1404.65zm9082.32 0c-155.05,344.58 -1687.75,1330.14 -3252.01,-659.77 -1564.26,-1989.91 244.74,-3511.62 830.02,-2617.75 585.28,893.88 437.32,1558.71 1159.9,1872.87 722.58,314.16 1637.81,569.71 1262.09,1404.65z" style="fill:#5bc6da"/>
    <path class="HeadScream-Mediumfil2" d="M13681.94 20908.15c-590.9,0 -974.7,-306.53 -1254.85,-819.02 -26.65,-48.76 -367.62,-982.43 -392.49,-1034.84 574.44,1317.62 1205.62,1377.27 1647.34,1392.71 441.72,-15.44 1072.9,-75.09 1647.34,-1392.71 -24.87,52.41 -365.84,986.08 -392.49,1034.84 -280.15,512.49 -663.95,819.02 -1254.85,819.02zm1913.47 -2456.6c461.84,-817.17 1273.68,-1480.74 2005.14,-1122.42 861.48,422.01 2312,-563.76 2522.52,-2012.75 -269.33,1216.27 -2456.75,2121.54 -3104.82,1535.59 -648.07,-585.95 -1308.63,567.4 -1422.84,1599.58zm-3826.94 0c-461.84,-817.17 -1273.68,-1480.74 -2005.14,-1122.42 -861.48,422.01 -2312,-563.76 -2522.52,-2012.75 1026.51,1714.82 3018.07,1913.04 3548.83,1141.76 530.76,-771.28 864.62,961.23 978.83,1993.41z" style="fill:#71b186"/>
    <path class="HeadScream-Mediumfil16" d="M8672.82 15421.04c160.1,372.42 1651.71,1393.17 3256.99,-362.33 -1547.63,1347.85 -3106.54,425.36 -3256.99,75.35 -41.03,-95.46 -67.9,-184.27 -82.6,-267.32 -31.36,156.86 -10.03,338.83 82.6,554.3zm10018.24 0c-160.1,372.41 -1651.62,1393.11 -3256.85,-362.18 1547.58,1347.63 3106.4,425.2 3256.85,75.2 41.03,-95.46 67.9,-184.27 82.6,-267.32 31.36,156.86 10.03,338.83 -82.6,554.3z" style="fill:#9dda34"/>
    <path class="HeadScream-Mediumfil16" d="M14968.79 11526.68c241.86,-338.84 653.04,-316.96 903.47,-215.3 873.96,354.81 566.17,1729.46 1288.75,2043.62 722.58,314.16 1514.41,581.19 1167.92,1525.27 -32.74,89.21 -162.55,222.72 -363.34,340.93 135.97,-93.35 225.73,-190.91 257.51,-261.55 375.72,-834.94 -539.51,-1090.49 -1262.09,-1404.65 -722.58,-314.16 -574.62,-978.99 -1159.9,-1872.87 -197.15,-301.11 -533.17,-328.1 -832.32,-155.45z" style="fill:#1c90db"/>
    <path class="HeadScream-Mediumfil16" d="M12395.09 11526.68c-241.86,-338.84 -653.04,-316.96 -903.47,-215.3 -873.96,354.81 -566.17,1729.46 -1288.75,2043.62 -722.58,314.16 -1514.41,581.19 -1167.92,1525.27 32.74,89.21 162.55,222.72 363.34,340.93 -135.97,-93.35 -225.73,-190.91 -257.51,-261.55 -375.72,-834.94 539.51,-1090.49 1262.09,-1404.65 722.58,-314.16 574.62,-978.99 1159.9,-1872.87 197.15,-301.11 533.17,-328.1 832.32,-155.45z" style="fill:#04d57a"/>
    <path class="HeadScream-Mediumfil17" d="M9140.78 14959.65c155.05,344.58 1687.75,1330.14 3252.01,-659.77 1564.26,-1989.91 -244.74,-3511.62 -830.02,-2617.75 -585.28,893.88 -437.32,1558.71 -1159.9,1872.87 -722.58,314.16 -1637.81,569.71 -1262.09,1404.65zm9082.32 0c-155.05,344.58 -1687.75,1330.14 -3252.01,-659.77 -1564.26,-1989.91 244.74,-3511.62 830.02,-2617.75 585.28,893.88 437.32,1558.71 1159.9,1872.87 722.58,314.16 1637.81,569.71 1262.09,1404.65z" style="fill:#3078d2"/>
    <path class="HeadScream-Mediumfil17" d="M9140.78 14959.65c36.99,82.21 152.55,200.88 328.1,306.94 -240.18,-674.16 559.9,-894.79 1197.21,-1163.4 664.58,-280.1 528.5,-872.84 1066.79,-1669.8 322.45,-477.39 1048.53,-181.81 1269.91,513.19 138.66,-1238.55 -998.59,-1938.63 -1440.02,-1264.45 -585.28,893.88 -437.32,1558.71 -1159.9,1872.87 -722.58,314.16 -1637.81,569.71 -1262.09,1404.65zm9082.32 0c-36.99,82.21 -152.55,200.88 -328.1,306.94 240.18,-674.16 -559.9,-894.79 -1197.21,-1163.4 -664.58,-280.1 -528.5,-872.84 -1066.79,-1669.8 -322.45,-477.39 -1048.53,-181.81 -1269.91,513.19 -138.66,-1238.55 998.59,-1938.63 1440.02,-1264.45 585.28,893.88 437.32,1558.71 1159.9,1872.87 722.58,314.16 1637.81,569.71 1262.09,1404.65z" style="fill:#309129"/>
    <path class="HeadScream-Mediumfil18 HeadScream-Mediumstr0" d="M13681.94 19769.52c781.39,0 1012.47,-2819.95 1012.47,-3043.42 0,-223.46 -297.95,-670.39 -1012.47,-670.39 -714.52,0 -1012.47,446.93 -1012.47,670.39 0,223.47 231.08,3043.42 1012.47,3043.42z" style="fill:#dbf8b0"/>
    <path class="HeadScream-Mediumfil19 HeadScream-Mediumstr0" d="M13681.94 15246.97c-147.43,0 -544.26,361.8 -725.16,148.98 -180.9,-212.83 352.98,-847.35 725.16,-947.08 372.18,99.73 906.05,734.25 725.16,947.08 -180.89,212.82 -577.73,-148.98 -725.16,-148.98z" style="fill:#d6d039"/>
    <path class="HeadScream-Mediumfil7" d="M10881.86 16340.03c-228.04,492.58 -916.9,976.92 -1086.6,1056.78 -37.37,17.63 -81.98,1.62 -99.61,-35.75 -17.63,-37.37 -1.62,-81.98 35.75,-99.61 273.56,-128.73 445.56,-214.06 1150.46,-921.42z" style="fill:#08aa56"/>
    <path class="HeadScream-Mediumfil7" d="M16482.02 16340.03c228.04,492.58 916.9,976.92 1086.6,1056.78 37.37,17.63 81.98,1.62 99.61,-35.75 17.63,-37.37 1.62,-81.98 -35.75,-99.61 -273.56,-128.73 -445.56,-214.06 -1150.46,-921.42z" style="fill:#2e95ef"/>
    <path class="HeadScream-Mediumfil5 HeadScream-Mediumstr0" d="M13681.94 20908.15c898.55,0 1318.21,-708.74 1622.79,-1772.87 304.58,-1064.13 1365.3,-2261.98 2295.82,-1806.15 930.52,455.83 2548.5,-730.71 2548.5,-2369.47 0,-1638.76 -702.34,-1798.37 -712.98,-1936.71 -10.64,-138.34 -618.58,-5049.62 -5741.58,-5049.62 -4.24,0 -8.32,0.18 -12.55,0.19 -4.23,-0.01 -8.31,-0.19 -12.55,-0.19 -5123,0 -5730.94,4911.28 -5741.58,5049.62 -10.64,138.34 -712.98,297.95 -712.98,1936.71 0,1638.76 1617.98,2825.3 2548.5,2369.47 930.52,-455.83 1991.24,742.02 2295.82,1806.15 304.58,1064.13 724.24,1772.87 1622.79,1772.87zm-4541.16 -5948.5c155.05,344.58 1687.75,1330.14 3252.01,-659.77 1564.26,-1989.91 -244.74,-3511.62 -830.02,-2617.75 -585.28,893.88 -437.32,1558.71 -1159.9,1872.87 -722.58,314.16 -1637.81,569.71 -1262.09,1404.65zm9082.32 0c-155.05,344.58 -1687.75,1330.14 -3252.01,-659.77 -1564.26,-1989.91 244.74,-3511.62 830.02,-2617.75 585.28,893.88 437.32,1558.71 1159.9,1872.87 722.58,314.16 1637.81,569.71 1262.09,1404.65z" style="fill:#721393"/>
   </g>
   <g>
    <path class="HeadScream-Mediumfil16 HeadScream-Mediumstr2" d="M13681.94 8558.24c-2811.73,589.43 -8134.87,5261.51 -6278.04,8288 146.21,-2399.51 2238.11,-4032.56 3985.74,-4924.85 214.09,-454.21 513.56,-616.1 941.99,-428.08 635.88,-252.5 1150.75,-383.76 1350.31,-383.76 200.49,0 710.2,128.89 1350.3,383.76 422.25,-166.52 750.18,-41.03 944.04,428.52 1746.99,891.34 3837.39,2523.3 3983.7,4924.41 1856.83,-3026.49 -3466.31,-7698.57 -6278.04,-8288z" style="fill:#2532f9"/>
    <path class="HeadScream-Mediumfil20" d="M14546.24 5885.66c-2219.97,0 -4029.15,1972.46 -5353.89,3252.42 -1239.3,1197.39 -1873.82,2600.82 -2132.56,4261.74 -207.83,1334.15 -491.15,2525.33 370.04,3484.01 -9.27,-20.43 -17.89,-40.81 -26.65,-61.19 -59.63,-167.89 -115.12,-321.42 -161.27,-469.69 -154.19,-599.36 -108.09,-1174.96 67.94,-1707.66 358.29,-972.79 2532.05,-2985.54 3601.57,-3144.3 1069.52,-158.76 1508.12,-1225.9 2770.52,-1225.9 1262.4,0 1701,1067.14 2770.52,1225.9 1069.52,158.76 3243.28,2171.51 3601.57,3144.3 175.96,532.7 222.22,1108.28 67.94,1707.66 -46.15,148.27 -101.64,301.8 -161.27,469.69 -8.78,20.39 -17.38,40.76 -26.65,61.19 861.19,-958.68 577.87,-2149.86 370.04,-3484.01 -258.74,-1660.92 -893.25,-3064.33 -2132.56,-4261.74 -908.27,-877.56 -1686.63,-1790.46 -2768.34,-2277.69 -496.01,-223.41 1363.02,-974.73 -856.95,-974.73z" style="fill:#8101b5"/>
    <path class="HeadScream-Mediumfil21" d="M9425.12 12287.26c547.98,-417.29 1092.13,-727.76 1486.3,-786.27 1069.52,-158.76 1508.12,-1225.9 2770.52,-1225.9 1262.4,0 1701,1067.14 2770.52,1225.9 1069.52,158.76 3243.28,2171.51 3601.57,3144.3 -358.29,-972.79 -2392.63,-3648.79 -3427.02,-3523.31 -1034.39,125.48 -1325.01,-1313.73 -2795.14,-1164.39 -1470.13,149.34 -1859.75,1164.15 -2929.27,1322.91 -412.96,61.3 -951.39,471 -1477.48,1006.76z" style="fill:#53b656"/>
    <path class="HeadScream-Mediumfil5 HeadScream-Mediumstr1" d="M14546.24 5885.66c-2219.97,0 -4029.15,1972.46 -5353.89,3252.42 -1239.3,1197.39 -1873.82,2600.82 -2132.56,4261.74 -207.83,1334.15 -491.15,2525.33 370.04,3484.01 -9.27,-20.43 -17.89,-40.81 -26.65,-61.19 -59.63,-167.89 -115.12,-321.42 -161.27,-469.69 -154.19,-599.36 -108.09,-1174.96 67.94,-1707.66 358.29,-972.79 2532.05,-2985.54 3601.57,-3144.3 1069.52,-158.76 1508.12,-1225.9 2770.52,-1225.9 1262.4,0 1701,1067.14 2770.52,1225.9 1069.52,158.76 3243.28,2171.51 3601.57,3144.3 175.96,532.7 222.22,1108.28 67.94,1707.66 -46.15,148.27 -101.64,301.8 -161.27,469.69 -8.78,20.39 -17.38,40.76 -26.65,61.19 861.19,-958.68 577.87,-2149.86 370.04,-3484.01 -258.74,-1660.92 -893.25,-3064.33 -2132.56,-4261.74 -908.27,-877.56 -1686.63,-1790.46 -2768.34,-2277.69 -496.01,-223.41 1363.02,-974.73 -856.95,-974.73z" style="fill:#41603b"/>
    <path class="HeadScream-Mediumfil16" d="M8809.63 9535.65c-989.98,1107.78 -1519.21,2383.66 -1749.84,3864.17 -145.09,931.4 -523.66,2646.44 315.3,3355.67 -650,-1603.65 171.91,-2864.03 1392.54,-3918.54 -1142.63,-250.17 -920.96,-1620.12 42,-3301.3z" style="fill:#37aa0c"/>
    <path class="HeadScream-Mediumfil22" d="M11559.06 7353.31c1033.14,-629.09 2721.09,-1380.56 3588.66,-1189.86 192.68,42.35 -317.44,760.04 -137.85,827.26 1242.99,465.28 2151.02,1458.42 2427.24,2041.13 349.82,737.94 -1188.27,-996.22 -2705.48,-1692.73 -265.63,-121.95 76.94,-524.69 -203.36,-616.37 -537.86,-175.93 -2273.37,259.02 -2969.21,630.57z" style="fill:#8a92bc"/>
    <path class="HeadScream-Mediumfil16" d="M18554.25 9535.65c989.98,1107.78 1519.21,2383.66 1749.84,3864.17 145.09,931.4 523.66,2646.44 -315.3,3355.67 650,-1603.65 -99.57,-2848.77 -1472.04,-3990.2 1142.63,-250.17 1000.46,-1548.46 37.5,-3229.64z" style="fill:#6c0f86"/>
   </g>
  </g>
 </g></svg>