<svg xmlns="http://www.w3.org/2000/svg" xmlns:xlink="http://www.w3.org/1999/xlink" style="shape-rendering:geometricPrecision; text-rendering:geometricPrecision; image-rendering:optimizeQuality; fill-rule:evenodd; clip-rule:evenodd" version="1.1" viewBox="0 0 29000 29000" xml:space="preserve"><defs><style type="text/css">.HairBack-Cat2fil14 {fill:black;fill-opacity:0.200000}
.HairBack-Cat2fil24 {fill:url(#HairBack-Cat2id175)}
.HairBack-Cat2str0 {stroke:black;stroke-width:150;stroke-linecap:round;stroke-linejoin:round}
.Tail-Cat6fil31 {fill:url(#Tail-Cat6id927)}
.Tail-Cat6fil26 {fill:#f5e9d9}
.Tail-Cat6fil14 {fill:black;fill-opacity:0.200000}
.Tail-Cat6fil32 {fill:black;fill-rule:nonzero}
.Tail-Cat6fil22 {fill:none}
.Tail-Cat6str0 {stroke:black;stroke-width:150;stroke-linecap:round;stroke-linejoin:round}
.RightFoot-Cat3fil35 {fill:#b3b0a6}
.RightFoot-Cat3fil14 {fill:black;fill-opacity:0.200000}
.RightFoot-Cat3fil22 {fill:none}
.RightFoot-Cat3fil32 {fill:black;fill-rule:nonzero}
.RightLeg-Cat0fil36 {fill:url(#RightLeg-Cat0id383)}
.RightLeg-Cat0fil26 {fill:#f5e9d9}
.RightLeg-Cat0fil32 {fill:black;fill-rule:nonzero}
.RightLeg-Cat0fil14 {fill:black;fill-opacity:0.200000}
.LeftFoot-Cat3fil35 {fill:#b3b0a6}
.LeftFoot-Cat3fil14 {fill:black;fill-opacity:0.200000}
.LeftFoot-Cat3fil22 {fill:none}
.LeftFoot-Cat3fil32 {fill:black;fill-rule:nonzero}
.LeftLeg-Cat0fil44 {fill:url(#LeftLeg-Cat0id193)}
.LeftLeg-Cat0fil26 {fill:#f5e9d9}
.LeftLeg-Cat0fil32 {fill:black;fill-rule:nonzero}
.LeftLeg-Cat0fil14 {fill:black;fill-opacity:0.200000}
.RightHand-Cat5fil52 {fill:url(#RightHand-Cat5id171)}
.RightHand-Cat5fil14 {fill:black;fill-opacity:0.200000}
.RightHand-Cat5fil22 {fill:none}
.RightHand-Cat5str0 {stroke:black;stroke-width:150;stroke-linecap:round;stroke-linejoin:round}
.RightPaw-Cat0fil26 {fill:#f5e9d9}
.RightPaw-Cat0fil14 {fill:black;fill-opacity:0.200000}
.RightPaw-Cat0fil32 {fill:black;fill-rule:nonzero}
.LeftHand-Cat5fil59 {fill:url(#LeftHand-Cat5id490)}
.LeftHand-Cat5fil14 {fill:black;fill-opacity:0.200000}
.LeftHand-Cat5fil22 {fill:none}
.LeftHand-Cat5str0 {stroke:black;stroke-width:150;stroke-linecap:round;stroke-linejoin:round}
.LeftPaw-Cat0fil26 {fill:#f5e9d9}
.LeftPaw-Cat0fil14 {fill:black;fill-opacity:0.200000}
.LeftPaw-Cat0fil32 {fill:black;fill-rule:nonzero}
.Body-Cat2fil62 {fill:url(#Body-Cat2id318)}
.Body-Cat2fil14 {fill:black;fill-opacity:0.200000}
.Body-Cat2fil32 {fill:black;fill-rule:nonzero}
.Body-Cat2fil64 {fill:url(#Body-Cat2id245)}
.Head-Cat5fil145 {fill:url(#Head-Cat5id31)}
.Head-Cat5fil32 {fill:black;fill-rule:nonzero}
.Head-Cat5fil14 {fill:black;fill-opacity:0.200000}
.Mouth-Cat3fil100 {fill:black}
.Mouth-Cat3fil22 {fill:none}
.Mouth-Cat3str0 {stroke:black;stroke-width:150;stroke-linecap:round;stroke-linejoin:round}
.Eyes-Cat6fil184 {fill:url(#Eyes-Cat6id861)}
.Eyes-Cat6fil185 {fill:url(#Eyes-Cat6id1071)}
.Eyes-Cat6fil186 {fill:url(#Eyes-Cat6id612)}
.Eyes-Cat6fil152 {fill:white}
.Eyes-Cat6fil157 {fill:black;fill-opacity:0.501961}
.Eyes-Cat6fil187 {fill:url(#Eyes-Cat6id901)}
.Eyes-Cat6fil188 {fill:url(#Eyes-Cat6id1067)}
.Eyes-Cat6fil189 {fill:url(#Eyes-Cat6id624)}
.Eyes-Cat6fil155 {fill:#7d9e93}
.Eyes-Cat6fil14 {fill:black;fill-opacity:0.200000}
.Eyes-Cat6fil22 {fill:none}
.Eyes-Cat6str4 {stroke:black;stroke-width:150}
.Moustache-Cat3fil100 {fill:black}
.Nose-Cat0fil221 {fill:url(#Nose-Cat0id921)}
.Nose-Cat0str0 {stroke:black;stroke-width:150;stroke-linecap:round;stroke-linejoin:round}
.HatBanderasBack-Mediumfil3new {fill:black;fill-opacity:0.301961}
.HatBanderasBack-Mediumfil16new {fill:url(#HatBanderasBack-Mediumid415new)}
.HatBanderasBack-Mediumstr2new {stroke:#2B2A29;stroke-width:150}
.BraceletGold-Mediumfil3new {fill:black;fill-opacity:0.301961}
.BraceletGold-Mediumfil66new {fill:url(#BraceletGold-Mediumid695new);fill-rule:nonzero}
.BraceletGold-Mediumstr3new {stroke:black;stroke-width:100;stroke-linecap:round;stroke-linejoin:round}
.BraceletGold-Mediumfil67new {fill:url(#BraceletGold-Mediumid700new);fill-rule:nonzero}
.HatBanderas-Mediumfil608new {fill:url(#HatBanderas-Mediumid682new);fill-rule:nonzero}
.HatBanderas-Mediumfil609new {fill:#FFCC99;fill-rule:nonzero;fill-opacity:0.301961}
.HatBanderas-Mediumfil14new {fill:black;fill-opacity:0.200000}
.HatBanderas-Mediumfil246new {fill:#643200;fill-opacity:0.200000}
.HatBanderas-Mediumfil619new {fill:#e6e6cc;fill-opacity:0.200000}
.HatBanderas-Mediumfil621new {fill:url(#HatBanderas-Mediumid706new);fill-rule:nonzero}
.HatBanderas-Mediumfil360new {fill:black;fill-rule:nonzero;fill-opacity:0.200000}
.HatBanderas-Mediumfil47new {fill:none;fill-rule:nonzero}
.HatBanderas-Mediumstr0new {stroke:black;stroke-width:150;stroke-linecap:round;stroke-linejoin:round}
.HatBanderas-Mediumfil610new {fill:url(#HatBanderas-Mediumid667new);fill-rule:nonzero}
.HatBanderas-Mediumfil611new {fill:#DB9600}
.HatBanderas-Mediumfil612new {fill:url(#HatBanderas-Mediumid156new)}
.HatBanderas-Mediumfil613new {fill:url(#HatBanderas-Mediumid153new)}
.HatBanderas-Mediumfil614new {fill:url(#HatBanderas-Mediumid65new)}
.HatBanderas-Mediumfil615new {fill:url(#HatBanderas-Mediumid190new)}
.HatBanderas-Mediumfil616new {fill:url(#HatBanderas-Mediumid569new)}
.HatBanderas-Mediumfil617new {fill:url(#HatBanderas-Mediumid188new)}
.HatBanderas-Mediumfil618new {fill:url(#HatBanderas-Mediumid192new)}
.HatBanderas-Mediumfil620new {fill:url(#HatBanderas-Mediumid168new)}
.HatBanderas-Mediumfil622new {fill:url(#HatBanderas-Mediumid708new);fill-rule:nonzero}
.WeaponBflyNetBack-Mediumfil1 {fill:black;fill-rule:nonzero;fill-opacity:0.200000}
.WeaponBflyNetBack-Mediumfil12 {fill:url(#WeaponBflyNetBack-Mediumid25);fill-rule:nonzero}
.WeaponBflyNetBack-Mediumstr0 {stroke:black;stroke-width:150;stroke-linecap:round;stroke-linejoin:round}
.WeaponBflyNet-Mediumfil13 {fill:white;fill-opacity:0.701961}
.WeaponBflyNet-Mediumfil3 {fill:black;fill-opacity:0.200000}
.WeaponBflyNet-Mediumfil14 {fill:none}
.WeaponBflyNet-Mediumstr2 {stroke:#85E7FF;stroke-width:150;stroke-linecap:round;stroke-linejoin:round}
.WeaponBflyNet-Mediumstr3 {stroke:#85E7FF;stroke-width:150}
.WeaponBflyNet-Mediumfil15 {fill:url(#WeaponBflyNet-Mediumid2)}
.WeaponBflyNet-Mediumstr0 {stroke:black;stroke-width:150;stroke-linecap:round;stroke-linejoin:round}
.WeaponBflyNet-Mediumfil16 {fill:url(#WeaponBflyNet-Mediumid1)}
.WeaponBflyNet-Mediumstr1 {stroke:black;stroke-width:150}
.AccessoryDuckfil122 {fill:url(#AccessoryDuckid90)}
.AccessoryDuckfil48 {fill:white;fill-opacity:0.501961}
.AccessoryDuckfil123 {fill:#CC1400;fill-opacity:0.301961}
.AccessoryDuckfil124 {fill:url(#AccessoryDuckid94)}
.AccessoryDuckfil3 {fill:black;fill-rule:nonzero}
.AccessoryDuckfil125 {fill:url(#AccessoryDuckid39)}
.AccessoryDuckfil126 {fill:url(#AccessoryDuckid95)}
.AccessoryDuckfil127 {fill:url(#AccessoryDuckid92)}
.AccessoryDuckfil2 {fill:none}
.AccessoryDuckfil128 {fill:#912323;fill-opacity:0.501961}
.AccessoryDuckfil14 {fill:white}
.AccessoryDuckfil129 {fill:white;fill-rule:nonzero;fill-opacity:0.501961}
.AccessoryDuckfil130 {fill:white;fill-rule:nonzero}
.AccessoryDuckstr1 {stroke:black;stroke-width:150}
.AccessoryDuckstr18 {stroke:#99CC66;stroke-width:150;stroke-linecap:round;stroke-linejoin:round}
.AccessoryDuckstr0 {stroke:black;stroke-width:150;stroke-linecap:round;stroke-linejoin:round}
.NecklaceCapeRedBack-Mediumfil3 {fill:black;fill-opacity:0.301961}
.NecklaceCapeRedBack-Mediumfil4 {fill:black;fill-opacity:0.200000}
.NecklaceCapeRedBack-Mediumfil13 {fill:url(#NecklaceCapeRedBack-Mediumid41);fill-rule:nonzero}
.NecklaceCapeRedBack-Mediumfil14 {fill:black;fill-rule:nonzero}
.NecklaceCapeRedBack-Mediumfil0 {fill:#270306}
.NecklaceCapeRedBack-Mediumstr0 {stroke:black;stroke-width:150;stroke-linecap:round;stroke-linejoin:round}
.NecklaceCapeRedBack-Mediumfil12 {fill:url(#NecklaceCapeRedBack-Mediumid2)}
.NecklaceCapeRedBack-Mediumfil2 {fill:black;fill-opacity:0.501961}
.NecklaceCapeRedBack-Mediumstr2 {stroke:black;stroke-width:150;stroke-linecap:round;stroke-linejoin:round;stroke-opacity:0.501961}
.NecklaceCapeRed-Mediumfil16 {fill:url(#NecklaceCapeRed-Mediumid13)}
.NecklaceCapeRed-Mediumfil14 {fill:black;fill-rule:nonzero}
.NecklaceCapeRed-Mediumfil10 {fill:black;fill-opacity:0.400000}
.NecklaceCapeRed-Mediumfil11 {fill:white;fill-opacity:0.800000}
.NecklaceCapeRed-Mediumfil15 {fill:url(#NecklaceCapeRed-Mediumid8)}
.NecklaceCapeRed-Mediumstr0 {stroke:black;stroke-width:150;stroke-linecap:round;stroke-linejoin:round}
.NecklaceCapeRed-Mediumfil17 {fill:url(#NecklaceCapeRed-Mediumid31)}
.NecklaceCapeRed-Mediumstr1 {stroke:black;stroke-width:150}
.NecklaceCapeRed-Mediumfil18 {fill:url(#NecklaceCapeRed-Mediumid37)}
</style><linearGradient gradientUnits="userSpaceOnUse" id="HairBack-Cat2id175" x1="13068" x2="13068" xlink:href="#HairBack-Cat2id49" y1="24388.8" y2="14997.3">
  </linearGradient><linearGradient gradientUnits="objectBoundingBox" id="Tail-Cat6id927" x1="26.3028%" x2="73.6972%" xlink:href="#Tail-Cat6id925" y1="80.6558%" y2="19.3442%">
  </linearGradient><linearGradient gradientUnits="userSpaceOnUse" id="RightLeg-Cat0id383" x1="15490.3" x2="15490.3" xlink:href="#RightLeg-Cat0id19" y1="24284.1" y2="21188.2">
  </linearGradient><linearGradient gradientUnits="userSpaceOnUse" id="LeftLeg-Cat0id193" x1="11873.5" x2="11873.5" xlink:href="#LeftLeg-Cat0id19" y1="24284.1" y2="21188.2">
  </linearGradient><linearGradient gradientUnits="userSpaceOnUse" id="RightHand-Cat5id171" x1="15998.8" x2="17409.8" y1="17683.5" y2="20852.5">
   <stop offset="0" style="stop-opacity:1; stop-color:#736c54"/>
   <stop offset="0.0313725" style="stop-opacity:1; stop-color:#736c54"/>
   <stop offset="0.878431" style="stop-opacity:1; stop-color:#999177"/>
   <stop offset="1" style="stop-opacity:1; stop-color:#999177"/>
  </linearGradient><linearGradient gradientUnits="userSpaceOnUse" id="LeftHand-Cat5id490" x1="11365" x2="9954.09" xlink:href="#LeftHand-Cat5id171" y1="17683.5" y2="20852.5">
  </linearGradient><linearGradient gradientUnits="objectBoundingBox" id="Body-Cat2id318" x1="50%" x2="50%" xlink:href="#Body-Cat2id36" y1="0.000186021%" y2="100%">
  </linearGradient><linearGradient gradientUnits="userSpaceOnUse" id="Body-Cat2id245" x1="13681.9" x2="13681.9" y1="22974.9" y2="18175.1">
   <stop offset="0" style="stop-opacity:1; stop-color:#f5e9d9"/>
   <stop offset="0.65098" style="stop-opacity:1; stop-color:#f5e9d9"/>
   <stop offset="1" style="stop-opacity:1; stop-color:#e8d8c3"/>
  </linearGradient><linearGradient gradientUnits="userSpaceOnUse" id="Head-Cat5id31" x1="13681.9" x2="13681.9" y1="17986.7" y2="7484.8">
   <stop offset="0" style="stop-opacity:1; stop-color:#736c54"/>
   <stop offset="0.0313725" style="stop-opacity:1; stop-color:#736c54"/>
   <stop offset="0.321569" style="stop-opacity:1; stop-color:#999177"/>
   <stop offset="1" style="stop-opacity:1; stop-color:#b3b0a6"/>
  </linearGradient><linearGradient gradientUnits="userSpaceOnUse" id="Eyes-Cat6id861" x1="10767.7" x2="10191.5" xlink:href="#Eyes-Cat6id27" y1="14582.6" y2="11695.8">
  </linearGradient><radialGradient cx="10752" cy="13305.3" fx="10752" fy="13305.3" gradientTransform="matrix(0.810963 -0 -0 1 2033 0)" gradientUnits="userSpaceOnUse" id="Eyes-Cat6id1071" r="1458.03" xlink:href="#Eyes-Cat6id1039">
  </radialGradient><linearGradient gradientUnits="userSpaceOnUse" id="Eyes-Cat6id612" x1="10562.8" x2="10941.3" xlink:href="#Eyes-Cat6id384" y1="11901.5" y2="13839.3">
  </linearGradient><linearGradient gradientUnits="userSpaceOnUse" id="Eyes-Cat6id901" x1="16596.1" x2="17172.3" xlink:href="#Eyes-Cat6id27" y1="14582.6" y2="11695.8">
  </linearGradient><radialGradient cx="16611.8" cy="13305.3" fx="16611.8" fy="13305.3" gradientTransform="matrix(-0.810963 -0 -0 1 30083 0)" gradientUnits="userSpaceOnUse" id="Eyes-Cat6id1067" r="1458.03" xlink:href="#Eyes-Cat6id1039">
  </radialGradient><linearGradient gradientUnits="userSpaceOnUse" id="Eyes-Cat6id624" x1="16422.5" x2="16801.1" xlink:href="#Eyes-Cat6id384" y1="11901.5" y2="13839.3">
  </linearGradient><linearGradient gradientUnits="userSpaceOnUse" id="Nose-Cat0id921" x1="13681.9" x2="13681.9" y1="13407.9" y2="13968.6">
   <stop offset="0" style="stop-opacity:1; stop-color:#FFCCCC"/>
   <stop offset="1" style="stop-opacity:1; stop-color:#DB9092"/>
  </linearGradient><linearGradient gradientUnits="userSpaceOnUse" id="HatBanderasBack-Mediumid415new" x1="11406.4" x2="11406.4" xlink:href="#HatBanderasBack-Mediumid273new" y1="14755.2" y2="11000.6">
  </linearGradient><linearGradient gradientUnits="userSpaceOnUse" id="BraceletGold-Mediumid695new" x1="8795.03" x2="10201.4" y1="19661" y2="20720.4">
   <stop offset="0" style="stop-opacity:1; stop-color:#CC9933"/>
   <stop offset="0.109804" style="stop-opacity:1; stop-color:#FFF98F"/>
   <stop offset="0.25098" style="stop-opacity:1; stop-color:#FFFFFC"/>
   <stop offset="0.478431" style="stop-opacity:1; stop-color:#FFF982"/>
   <stop offset="0.811765" style="stop-opacity:1; stop-color:#643300"/>
   <stop offset="1" style="stop-opacity:1; stop-color:#CC9933"/>
  </linearGradient><linearGradient gradientUnits="userSpaceOnUse" id="BraceletGold-Mediumid700new" x1="18568.8" x2="17162.5" xlink:href="#BraceletGold-Mediumid695new" y1="19661" y2="20720.4">
  </linearGradient><linearGradient gradientUnits="userSpaceOnUse" id="HatBanderas-Mediumid682new" x1="13602.1" x2="11925.5" y1="11547.2" y2="4747.37">
   <stop offset="0" style="stop-opacity:1; stop-color:#0F0A00"/>
   <stop offset="1" style="stop-opacity:1; stop-color:#615A3E"/>
  </linearGradient><linearGradient gradientUnits="userSpaceOnUse" id="HatBanderas-Mediumid706new" x1="14196.7" x2="11590.4" xlink:href="#HatBanderas-Mediumid682new" y1="14479.3" y2="3909.34">
  </linearGradient><linearGradient gradientUnits="userSpaceOnUse" id="HatBanderas-Mediumid667new" x1="13059.3" x2="12043.7" y1="11875.2" y2="7756.23">
   <stop offset="0" style="stop-opacity:1; stop-color:#570D00"/>
   <stop offset="1" style="stop-opacity:1; stop-color:#C90000"/>
  </linearGradient><linearGradient gradientUnits="userSpaceOnUse" id="HatBanderas-Mediumid156new" x1="17132.7" x2="15358.6" xlink:href="#HatBanderas-Mediumid29new" y1="6534.95" y2="4566.09">
  </linearGradient><linearGradient gradientUnits="userSpaceOnUse" id="HatBanderas-Mediumid153new" x1="17891.3" x2="18675.4" xlink:href="#HatBanderas-Mediumid29new" y1="6718.18" y2="3050.2">
  </linearGradient><linearGradient gradientUnits="userSpaceOnUse" id="HatBanderas-Mediumid65new" x1="18407.5" x2="23687.9" xlink:href="#HatBanderas-Mediumid29new" y1="5325.25" y2="4441.39">
  </linearGradient><linearGradient gradientUnits="userSpaceOnUse" id="HatBanderas-Mediumid190new" x1="22805.7" x2="23399.6" xlink:href="#HatBanderas-Mediumid29new" y1="9246.61" y2="6663.65">
  </linearGradient><linearGradient gradientUnits="userSpaceOnUse" id="HatBanderas-Mediumid569new" x1="18102.7" x2="19619.8" xlink:href="#HatBanderas-Mediumid29new" y1="6097.02" y2="7516.76">
  </linearGradient><linearGradient gradientUnits="userSpaceOnUse" id="HatBanderas-Mediumid188new" x1="22423.7" x2="22545.4" xlink:href="#HatBanderas-Mediumid29new" y1="9500.13" y2="6706.71">
  </linearGradient><linearGradient gradientUnits="userSpaceOnUse" id="HatBanderas-Mediumid192new" x1="20528.7" x2="20011.2" xlink:href="#HatBanderas-Mediumid29new" y1="7723.46" y2="5385.04">
  </linearGradient><linearGradient gradientUnits="userSpaceOnUse" id="HatBanderas-Mediumid168new" x1="16082.9" x2="23396.2" xlink:href="#HatBanderas-Mediumid29new" y1="7125.45" y2="7308.29">
  </linearGradient><linearGradient gradientUnits="userSpaceOnUse" id="HatBanderas-Mediumid708new" x1="19172.7" x2="18887.4" y1="6164.67" y2="5430.19">
   <stop offset="0" style="stop-opacity:1; stop-color:#38321F"/>
   <stop offset="1" style="stop-opacity:1; stop-color:#615A3E"/>
  </linearGradient><linearGradient gradientUnits="userSpaceOnUse" id="WeaponBflyNetBack-Mediumid25" x1="7204.83" x2="8458.79" y1="22047.5" y2="19400.3">
   <stop offset="0" style="stop-opacity:1; stop-color:#FF6666"/>
   <stop offset="1" style="stop-opacity:1; stop-color:#FFC5B0"/>
  </linearGradient><linearGradient gradientUnits="userSpaceOnUse" id="WeaponBflyNet-Mediumid2" x1="9470.94" x2="12022.2" y1="22463.7" y2="22328">
   <stop offset="0" style="stop-opacity:1; stop-color:#5C3005"/>
   <stop offset="1" style="stop-opacity:1; stop-color:#B87939"/>
  </linearGradient><linearGradient gradientUnits="userSpaceOnUse" id="WeaponBflyNet-Mediumid1" x1="14169.4" x2="14169.4" y1="25399.5" y2="22680.1">
   <stop offset="0" style="stop-opacity:1; stop-color:#D4A373"/>
   <stop offset="1" style="stop-opacity:1; stop-color:#B87939"/>
  </linearGradient><radialGradient cx="5981.45" cy="24530.5" fx="5981.45" fy="24530.5" gradientTransform="matrix(1.08261 -0.0530996 0.0971573 0.591681 -2877 10334)" gradientUnits="userSpaceOnUse" id="AccessoryDuckid90" r="1635.36">
   <stop offset="0" style="stop-opacity:1; stop-color:#FFF256"/>
   <stop offset="0.631373" style="stop-opacity:1; stop-color:#FEE75C"/>
   <stop offset="1" style="stop-opacity:1; stop-color:#FFD83B"/>
  </radialGradient><radialGradient cx="6799.04" cy="23034.7" fx="6799.04" fy="23034.7" gradientTransform="matrix(1.0826 -0.0971566 0.0971566 1.0826 -2800 -1242)" gradientUnits="userSpaceOnUse" id="AccessoryDuckid94" r="935.18" xlink:href="#AccessoryDuckid90">
  </radialGradient><linearGradient gradientUnits="userSpaceOnUse" id="AccessoryDuckid39" x1="6677.2" x2="6677.2" y1="22471.8" y2="23026.9">
   <stop offset="0" style="stop-opacity:1; stop-color:black"/>
   <stop offset="1" style="stop-opacity:1; stop-color:#453223"/>
  </linearGradient><radialGradient cx="7621.66" cy="22955.4" fx="7621.66" fy="22955.4" gradientTransform="matrix(1.00003 -0 -0 0.645815 0 8130)" gradientUnits="userSpaceOnUse" id="AccessoryDuckid95" r="730.87">
   <stop offset="0" style="stop-opacity:1; stop-color:#FFB73B"/>
   <stop offset="1" style="stop-opacity:1; stop-color:#E05A00"/>
  </radialGradient><radialGradient cx="5594.96" cy="24567.2" fx="5594.96" fy="24567.2" gradientTransform="matrix(1.0826 -0.0578086 0.0971565 0.644153 -2849 9066)" gradientUnits="userSpaceOnUse" id="AccessoryDuckid92" r="719.36" xlink:href="#AccessoryDuckid90">
  </radialGradient><linearGradient gradientUnits="userSpaceOnUse" id="NecklaceCapeRedBack-Mediumid41" x1="4519.1" x2="6360.56" xlink:href="#NecklaceCapeRedBack-Mediumid5" y1="17697.6" y2="22165.4">
  </linearGradient><linearGradient gradientUnits="userSpaceOnUse" id="NecklaceCapeRedBack-Mediumid2" x1="5802.55" x2="15394.4" y1="24344" y2="17117.2">
   <stop offset="0" style="stop-opacity:1; stop-color:#B02C00"/>
   <stop offset="0.368627" style="stop-opacity:1; stop-color:#B82E00"/>
   <stop offset="0.709804" style="stop-opacity:1; stop-color:#630116"/>
   <stop offset="1" style="stop-opacity:1; stop-color:#1D0029"/>
  </linearGradient><linearGradient gradientUnits="userSpaceOnUse" id="NecklaceCapeRed-Mediumid13" x1="9527.35" x2="11718.7" y1="17325.6" y2="18088.7">
   <stop offset="0" style="stop-opacity:1; stop-color:#CC3300"/>
   <stop offset="0.25098" style="stop-opacity:1; stop-color:#A32C04"/>
   <stop offset="0.568627" style="stop-opacity:1; stop-color:#FF5024"/>
   <stop offset="1" style="stop-opacity:1; stop-color:#490033"/>
  </linearGradient><linearGradient gradientUnits="userSpaceOnUse" id="NecklaceCapeRed-Mediumid8" x1="17530.6" x2="12330.9" y1="17814.8" y2="18031.5">
   <stop offset="0" style="stop-opacity:1; stop-color:#B02C00"/>
   <stop offset="0.270588" style="stop-opacity:1; stop-color:#B82E00"/>
   <stop offset="0.768627" style="stop-opacity:1; stop-color:#630116"/>
   <stop offset="1" style="stop-opacity:1; stop-color:#1D0029"/>
  </linearGradient><linearGradient gradientUnits="objectBoundingBox" id="NecklaceCapeRed-Mediumid31" x1="82.4142%" x2="17.5858%" xlink:href="#NecklaceCapeRed-Mediumid30" y1="12.6218%" y2="87.3782%">
  </linearGradient><linearGradient gradientUnits="objectBoundingBox" id="NecklaceCapeRed-Mediumid37" x1="82.4142%" x2="17.5858%" xlink:href="#NecklaceCapeRed-Mediumid30" y1="12.6218%" y2="87.3782%">
  </linearGradient><linearGradient gradientUnits="userSpaceOnUse" id="HairBack-Cat2id49" x1="13715.8" x2="13715.8" y1="6802.99" y2="8218.57">
   <stop offset="0" style="stop-opacity:1; stop-color:#e6e6cc"/>
   <stop offset="1" style="stop-opacity:1; stop-color:#fffffd"/>
  </linearGradient><linearGradient gradientUnits="objectBoundingBox" id="Tail-Cat6id925" x1="56.9199%" x2="43.0801%" y1="93.4294%" y2="6.57062%">
   <stop offset="0" style="stop-opacity:1; stop-color:#736c54"/>
   <stop offset="1" style="stop-opacity:1; stop-color:#b3b0a6"/>
  </linearGradient><linearGradient gradientUnits="userSpaceOnUse" id="RightLeg-Cat0id19" x1="15490.3" x2="15490.3" y1="24284.1" y2="21188.2">
   <stop offset="0" style="stop-opacity:1; stop-color:#b3b0a6"/>
   <stop offset="0.439216" style="stop-opacity:1; stop-color:#b3b0a6"/>
   <stop offset="1" style="stop-opacity:1; stop-color:#999177"/>
  </linearGradient><linearGradient gradientUnits="userSpaceOnUse" id="LeftLeg-Cat0id19" x1="15490.3" x2="15490.3" y1="24284.1" y2="21188.2">
   <stop offset="0" style="stop-opacity:1; stop-color:#b3b0a6"/>
   <stop offset="0.439216" style="stop-opacity:1; stop-color:#b3b0a6"/>
   <stop offset="1" style="stop-opacity:1; stop-color:#999177"/>
  </linearGradient><linearGradient gradientUnits="userSpaceOnUse" id="LeftHand-Cat5id171" x1="15998.8" x2="17409.8" y1="17683.5" y2="20852.5">
   <stop offset="0" style="stop-opacity:1; stop-color:#736c54"/>
   <stop offset="0.0313725" style="stop-opacity:1; stop-color:#736c54"/>
   <stop offset="0.878431" style="stop-opacity:1; stop-color:#999177"/>
   <stop offset="1" style="stop-opacity:1; stop-color:#999177"/>
  </linearGradient><linearGradient gradientUnits="userSpaceOnUse" id="Body-Cat2id36" x1="13681.9" x2="13681.9" y1="17936.7" y2="7484.8">
   <stop offset="0" style="stop-opacity:1; stop-color:#736c54"/>
   <stop offset="0.0313725" style="stop-opacity:1; stop-color:#736c54"/>
   <stop offset="0.529412" style="stop-opacity:1; stop-color:#999177"/>
   <stop offset="1" style="stop-opacity:1; stop-color:#b3b0a6"/>
  </linearGradient><linearGradient gradientUnits="userSpaceOnUse" id="Eyes-Cat6id27" x1="16937.6" x2="16937.6" y1="14961.3" y2="11448.6">
   <stop offset="0" style="stop-opacity:1; stop-color:#805900"/>
   <stop offset="1" style="stop-opacity:1; stop-color:black"/>
  </linearGradient><radialGradient cx="49.9999%" cy="50.0002%" fx="49.9999%" fy="50.0002%" gradientUnits="objectBoundingBox" id="Eyes-Cat6id1039" r="50.0001%">
   <stop offset="0" style="stop-opacity:1; stop-color:#ffc029"/>
   <stop offset="1" style="stop-opacity:1; stop-color:#805900"/>
  </radialGradient><linearGradient gradientUnits="userSpaceOnUse" id="Eyes-Cat6id384" x1="16417.8" x2="16417.8" y1="11784.3" y2="14068.5">
   <stop offset="0" style="stop-opacity:1; stop-color:black"/>
   <stop offset="0.45" style="stop-opacity:1; stop-color:black"/>
   <stop offset="1" style="stop-opacity:1; stop-color:#664700"/>
  </linearGradient><linearGradient gradientUnits="userSpaceOnUse" id="HatBanderasBack-Mediumid273new" x1="11276.3" x2="11276.3" y1="15499.7" y2="11357.8">
   <stop offset="0" style="stop-opacity:1; stop-color:#3B3621"/>
   <stop offset="1" style="stop-opacity:1; stop-color:#0D0A05"/>
  </linearGradient><linearGradient gradientUnits="userSpaceOnUse" id="HatBanderas-Mediumid29new" x1="23027" x2="23148.7" y1="9696.19" y2="6902.77">
   <stop offset="0" style="stop-opacity:1; stop-color:#DB9600"/>
   <stop offset="1" style="stop-opacity:1; stop-color:#FFCC00"/>
  </linearGradient><linearGradient gradientUnits="userSpaceOnUse" id="NecklaceCapeRedBack-Mediumid5" x1="928.05" x2="7023.91" y1="19047.7" y2="21436.7">
   <stop offset="0" style="stop-opacity:1; stop-color:#CC3300"/>
   <stop offset="0.270588" style="stop-opacity:1; stop-color:#E6420C"/>
   <stop offset="0.529412" style="stop-opacity:1; stop-color:#A82E02"/>
   <stop offset="1" style="stop-opacity:1; stop-color:#9D1F10"/>
  </linearGradient><linearGradient gradientUnits="objectBoundingBox" id="NecklaceCapeRed-Mediumid30" x1="82.4142%" x2="17.5858%" y1="12.6218%" y2="87.3782%">
   <stop offset="0" style="stop-opacity:1; stop-color:#B3C0CC"/>
   <stop offset="0.270588" style="stop-opacity:1; stop-color:#D8DDE6"/>
   <stop offset="0.541176" style="stop-opacity:1; stop-color:#909DA8"/>
   <stop offset="1" style="stop-opacity:1; stop-color:#DBF5FF"/>
  </linearGradient></defs><g id="HatBanderasBack-Medium">
 <animateTransform additive="sum" attributeName="transform" dur="10" repeatCount="indefinite" type="translate" values="0;0 200;0;0 200;0;0 200;0;0 200;0"/>
  <metadata id="CorelCorpID_7Corel-Layer"/>
  <path class="HatBanderasBack-Mediumfil16new HatBanderasBack-Mediumstr2new" d="M19319 11711c-1698,-571 -3233,-710 -5574,-710 -5662,0 -10252,1138 -10252,2543 0,848 1874,1491 4030,1087 3082,-577 4927,-2776 11796,-2920z" style="fill:#f6c56b"/>
  <path class="HatBanderasBack-Mediumfil3new" d="M9431 11236c-3506,404 -5938,1286 -5938,2308 0,107 30,211 87,311 1508,-1228 4279,-771 4327,639 1244,-360 1143,-1811 1524,-3258z" style="fill:#9d5d14"/>
 </g><g id="HairBack-Cat2">
 <animateTransform additive="sum" attributeName="transform" dur="10" repeatCount="indefinite" type="translate" values="0;0 200;0;0 200;0;0 200;0;0 200;0"/>
  <path class="HairBack-Cat2fil24 HairBack-Cat2str0" d="M8269 14997c210,1630 -132,2950 -1660,2596 -34,834 1052,1514 1858,1066 -827,1134 -190,2365 -2025,2362 367,1436 2274,1898 3387,1021 -678,582 -162,1476 -1565,1434 1297,1755 3865,424 5592,510 1541,14 4176,599 4922,-471 2178,-3120 -164,-5251 -535,-8454 -3253,-64 -6720,0 -9974,-64z" style="fill:#17a562"/>
  <path class="HairBack-Cat2fil14" d="M8612 15943c324,357 -36,3023 -1695,2419 361,274 814,630 1506,317 15,-6 66,64 81,57 231,-263 696,-682 1280,-1011 -1127,1808 113,4506 -2624,4341 892,652 1958,461 2506,113 69,-43 143,-16 193,-63 226,-168 785,-731 959,-1124 270,118 176,2220 -1038,3361 916,203 2564,-333 3816,-355 1621,-28 4672,-1241 4272,-2656 -207,-732 -474,-1370 -611,-2182 -388,-2293 1076,-3387 1076,-3387l-9721 170z" style="fill:#d95b3b"/>
 </g><g id="NecklaceCapeRedBack-Medium">
  <animateTransform additive="sum" attributeName="transform" dur="10" repeatCount="indefinite" type="translate" values="0;0 200;0;0 200;0;0 200;0;0 200;0"/>
  <metadata id="CorelCorpID_2Corel-Layer"/>
  <g id="_1834097540480">
   <g>
    <polygon class="NecklaceCapeRedBack-Mediumfil0 NecklaceCapeRedBack-Mediumstr0" points="8345,22996 7275,24229 6804,23598 "/>
    <path class="NecklaceCapeRedBack-Mediumfil12 NecklaceCapeRedBack-Mediumstr0" d="M2979 19025c2533,160 2278,2523 4260,1413 771,-431 2189,-2086 2427,-2628 82,-76 1004,-817 1286,-825 97,-3 1408,590 1977,563 2633,-122 2971,-468 3275,-364 256,88 -6,337 449,377 497,44 850,58 939,190 354,529 1283,4208 -137,6383 -1889,-287 -1219,543 -2327,296 -534,-119 -651,-468 -910,-496 -521,-54 -356,348 -1427,83 -884,-219 -2036,-430 -3373,163 -800,356 -1105,-429 -1681,-539 -220,-42 -837,-86 -464,527 140,230 -1017,19 -1387,-216 -788,-503 -112,-731 -551,-1192 -647,-680 -1171,235 -1825,-318 -224,-188 -259,-534 -168,-1004 205,-1056 75,-2081 -363,-2413z" style="fill:#80f422"/>
    <path class="NecklaceCapeRedBack-Mediumfil2 NecklaceCapeRedBack-Mediumstr2" d="M2979 19025c2533,160 2278,2523 4260,1413 771,-431 2189,-2086 2427,-2628 82,-76 1004,-817 1286,-825 97,-3 1408,590 1977,563 2633,-122 2971,-468 3275,-364 256,88 -6,337 449,377 497,44 850,58 939,190 354,529 1283,4208 -137,6383 -1889,-287 -1219,543 -2327,296 -534,-119 -651,-468 -910,-496 -521,-54 -356,348 -1427,83 -884,-219 -2036,-430 -3373,163 -800,356 -1105,-429 -1681,-539 -220,-42 -837,-86 -464,527 140,230 -1017,19 -1387,-216 -788,-503 -112,-731 -551,-1192 -647,-680 -1171,235 -1825,-318 -224,-188 -259,-534 -168,-1004 205,-1056 75,-2081 -363,-2413z" style="fill:#e00357"/>
    <path class="NecklaceCapeRedBack-Mediumfil3" d="M4053 22627c2107,-851 2456,-1340 3031,-1778 575,-439 1017,-916 1425,-1527 -443,478 -922,922 -1270,1116 -1982,1110 -1727,-1253 -4260,-1413 438,332 568,1357 363,2413 -91,470 -56,816 168,1004 190,161 369,197 543,185z" style="fill:#8cb56c"/>
    <path class="NecklaceCapeRedBack-Mediumfil4" d="M16149 24181c1964,-1984 402,-4259 138,-6459 61,-12 123,-25 187,-37 458,-119 1029,-66 1118,66 354,529 1283,4208 -137,6383 -744,-113 -1091,-53 -1306,47zm-6958 -5761c473,-529 357,-342 475,-610 82,-76 112,-255 394,-264 31,-1 230,92 486,218 -138,2315 -3115,5673 -3318,5927 -190,88 130,503 0,563 -317,146 -1201,-217 -1342,-302 -417,-252 -429,-440 -408,-627 3110,-1766 3019,-2877 3713,-4905zm1846 -409c174,88 344,176 486,249 -773,1962 -1726,4431 -2105,5920 -587,261 -908,-92 -1264,-342 1852,-2054 2591,-4240 2883,-5827zm1215 431c704,-20 1246,-95 1762,-199 -303,1984 -733,4378 -1095,5804 -41,-9 -83,-19 -128,-30 -540,-133 -1178,-264 -1898,-211 1305,-2498 1470,-4200 1359,-5364zm2549 -379c239,-58 486,-120 755,-183 232,1841 684,4005 -1057,6208 -95,-79 -177,-143 -281,-154 -204,-21 -303,28 -412,79 1232,-2913 1287,-4779 995,-5950z" style="fill:#67395b"/>
   </g>
   <g>
    <path class="NecklaceCapeRedBack-Mediumfil13" d="M9651 18259c-377,741 -1253,1968 -2151,2575 -652,440 -2153,1366 -3020,322 -922,-1109 -1802,-1055 -3252,-368 469,-1234 1903,-2437 3397,-1550 509,301 1442,2076 2891,922 761,-606 1418,-1286 1791,-1931l344 30z" style="fill:#0c5890"/>
    <path class="NecklaceCapeRedBack-Mediumfil14" d="M9720 18285c-187,373 -504,875 -881,1350 -383,482 -834,948 -1297,1261 -330,223 -875,569 -1451,728 -591,163 -1211,130 -1669,-420 -446,-538 -880,-793 -1375,-831 -502,-38 -1073,144 -1787,482 -37,18 -82,2 -99,-35 -9,-20 -9,-41 -2,-60 63,-165 143,-330 237,-490 285,-480 705,-912 1204,-1169 503,-259 1086,-338 1690,-109 124,47 249,107 373,181 125,74 266,223 431,397 527,555 1311,1380 2376,531 503,-401 953,-821 1306,-1245 167,-201 319,-414 438,-616l164 15c-130,229 -298,469 -487,696 -361,434 -818,861 -1328,1267 -1172,934 -2012,50 -2577,-545 -157,-166 -292,-307 -399,-371 -117,-70 -234,-126 -350,-170 -560,-213 -1101,-138 -1569,102 -472,243 -871,655 -1143,1112 -57,96 -108,194 -153,293 656,-297 1197,-453 1686,-415 537,41 1004,313 1479,884 410,494 974,520 1514,371 554,-152 1085,-490 1407,-707 449,-304 890,-759 1264,-1230 354,-446 653,-915 837,-1271l161 14z" style="fill:#b1f3a3"/>
   </g>
  </g>
 </g><g id="Tail-Cat6">
  <path class="Tail-Cat6fil31" d="M12493 21526c-108,-680 356,-1318 1035,-1426 680,-108 1318,356 1426,1035 72,449 608,789 1013,871 739,150 1483,-534 1408,-1680 -158,-2421 1027,-5777 4064,-5078 111,31 166,90 145,159 -33,107 -311,154 -146,195 2925,724 2687,3276 1452,5366 -27,45 -121,128 -214,120 -167,-15 -170,-375 -233,-240 -388,832 -900,1361 -1351,1361 -340,-1 -479,-524 -569,-313 -571,1351 -2022,2423 -3323,2632 -1260,201 -2607,-168 -3570,-1011 -591,-519 -1010,-1199 -1137,-1991z" style="fill:#a32be3"/>
  <path class="Tail-Cat6fil26" d="M23454 19790c-146,399 -338,796 -564,1178 -27,45 -121,128 -214,120 -167,-15 -170,-375 -233,-240 -388,832 -900,1361 -1351,1361 -262,-1 -405,-312 -498,-358l-3 -8c-336,-494 -535,-1000 -668,-1511 -264,-1011 230,-1403 99,-2233 -101,-639 469,-1155 810,-657 675,987 1062,451 1598,580 641,154 1007,639 1024,1768z" style="fill:#906d47"/>
  <path class="Tail-Cat6fil14" d="M12493 21526c-26,-167 -18,-332 19,-487 213,-178 462,-344 585,-418 304,-15 814,942 1117,926 875,2545 4568,3180 6172,593 -8,32 -18,63 -27,94 -653,1189 -1969,2103 -3159,2294 -1260,201 -2607,-168 -3570,-1011 -591,-519 -1010,-1199 -1137,-1991z" style="fill:#7c938c"/>
  <path class="Tail-Cat6fil22 Tail-Cat6str0" d="M12493 21526c-108,-680 356,-1318 1035,-1426 680,-108 1318,356 1426,1035 72,449 608,789 1013,871 739,150 1483,-534 1408,-1680 -158,-2421 1027,-5777 4064,-5078 111,31 166,90 145,159 -33,107 -311,154 -146,195 2925,724 2530,3652 1546,5232 -66,105 -215,262 -308,254 -167,-15 -170,-375 -233,-240 -388,832 -900,1361 -1351,1361 -340,-1 -479,-524 -569,-313 -571,1351 -2022,2423 -3323,2632 -1260,201 -2607,-168 -3570,-1011 -591,-519 -1010,-1199 -1137,-1991z" style="fill:#df70d7"/>
  <path class="Tail-Cat6fil14" d="M22029 21494c-153,311 -399,598 -760,695 -667,178 -1177,-1232 -1355,-1898 -68,-160 -245,81 -398,75 -284,-206 -410,-617 -481,-903 -14,-55 -63,-427 -73,-471 79,276 473,1128 815,914 670,-419 881,2197 2252,1588z" style="fill:#0d69c7"/>
  <path class="Tail-Cat6fil32" d="M20750 21900c25,33 19,80 -14,105 -33,25 -80,19 -105,-14 -170,-223 -337,-492 -482,-803 -123,-262 -229,-555 -309,-878 -15,9 -32,20 -50,32 -116,74 -262,168 -396,42 -103,-97 -205,-253 -290,-447 -56,-127 -267,-730 -144,-1113 27,388 227,930 281,1054 77,174 167,314 256,397 48,46 139,-13 212,-59 45,-30 85,-56 126,-65 70,-17 121,3 142,90 77,324 184,619 308,884 140,301 302,561 465,775z" style="fill:#5c2e23"/>
 </g><g id="RightFoot-Cat3">
  <path class="RightFoot-Cat3fil35" d="M17107 25230c-124,214 -404,285 -611,106 -71,70 -277,145 -526,65 -410,-131 -508,-461 -851,-710 -221,-159 -124,-477 -114,-668 364,340 783,-165 1076,-248 374,-102 737,158 534,413 199,95 520,237 673,411 169,192 121,631 -181,631z" style="fill:#775bf4"/>
  <path class="RightFoot-Cat3fil14" d="M17107 25230c-124,214 -404,285 -611,106 -71,70 -277,145 -526,65 -410,-131 -518,-492 -872,-726 -156,-103 -135,-387 -103,-573 18,-14 37,-27 56,-38 -60,533 1445,1528 1433,860 214,342 596,186 545,-150 127,134 271,-14 143,-274 182,62 215,288 209,441 -17,153 -106,289 -274,289z" style="fill:#c39743"/>
  <path class="RightFoot-Cat3fil22" d="M16655 24186c278,231 480,239 633,413 169,192 121,631 -181,631 -124,214 -404,285 -611,106 -71,70 -277,145 -526,65 -410,-131 -520,-489 -872,-726 -156,-105 -138,-331 -109,-524" style="fill:#fd90e6"/>
  <path class="RightFoot-Cat3fil32" d="M16703 24128c-31,-26 -78,-22 -105,10 -27,31 -22,79 9,105 144,120 266,182 373,236 100,50 184,92 252,169 81,92 97,256 55,370 -18,49 -49,94 -96,118 7,-269 -115,-534 -402,-526 186,95 268,253 247,592 -49,79 -127,137 -220,155 -79,15 -160,-2 -228,-45 38,-218 10,-484 -289,-538 139,98 163,330 142,511 -32,29 -98,60 -189,72 -75,9 -164,4 -260,-27 -221,-71 -352,-219 -489,-375 -104,-118 -211,-239 -363,-342 -57,-38 -82,-102 -91,-176 -11,-85 -1,-183 13,-274 15,-98 -130,-119 -144,-22 -16,102 -31,212 -18,314 14,114 57,216 157,282 136,92 236,206 333,317 151,171 295,335 557,419 119,38 230,44 323,32 93,-11 171,-41 226,-75 103,70 225,98 348,74 125,-24 233,-98 305,-202 136,-15 232,-107 279,-232 61,-166 34,-387 -84,-521 -86,-98 -183,-147 -296,-204 -100,-50 -214,-108 -345,-217z" style="fill:#aa7b94"/>
 </g><g id="LeftFoot-Cat3">
  <path class="LeftFoot-Cat3fil35" d="M10257 25230c124,214 404,285 611,106 71,70 277,145 526,65 410,-131 508,-461 851,-710 221,-159 124,-477 114,-668 -364,340 -783,-165 -1076,-248 -374,-102 -737,158 -535,413 -198,95 -519,237 -672,411 -169,192 -121,631 181,631z" style="fill:#53ac90"/>
  <path class="LeftFoot-Cat3fil14" d="M10257 25230c124,214 404,285 611,106 71,70 277,145 526,65 410,-131 518,-492 871,-726 157,-103 136,-387 103,-573 -17,-14 -36,-27 -55,-38 60,533 -1445,1528 -1434,860 -213,342 -595,186 -544,-150 -127,134 -271,-14 -143,-274 -182,62 -215,288 -209,441 17,153 106,289 274,289z" style="fill:#a78e09"/>
  <path class="LeftFoot-Cat3fil22" d="M10708 24186c-277,231 -480,239 -632,413 -169,192 -121,631 181,631 124,214 404,285 611,106 71,70 277,145 526,65 410,-131 520,-489 871,-726 156,-105 139,-331 110,-524" style="fill:#c4e964"/>
  <path class="LeftFoot-Cat3fil32" d="M10660 24128c32,-26 79,-22 106,10 26,31 22,79 -10,105 -143,120 -266,182 -373,236 -99,50 -183,92 -251,169 -81,92 -97,256 -55,370 18,49 49,94 96,118 -7,-269 115,-534 402,-526 -186,95 -268,253 -247,592 49,79 127,137 220,155 79,15 160,-2 228,-45 -39,-218 -11,-484 289,-538 -139,98 -163,330 -142,511 31,29 98,60 189,72 75,9 163,4 259,-27 222,-71 353,-219 490,-375 104,-118 210,-239 363,-342 56,-38 82,-102 91,-176 11,-85 0,-183 -14,-274 -14,-98 131,-119 145,-22 16,102 31,212 18,314 -14,114 -58,216 -157,282 -136,92 -236,206 -333,317 -151,171 -296,335 -557,419 -119,38 -230,44 -323,32 -93,-11 -171,-41 -226,-75 -103,70 -226,98 -349,74 -124,-24 -233,-98 -304,-202 -136,-15 -232,-107 -279,-232 -61,-166 -34,-387 84,-521 86,-98 183,-147 296,-204 100,-50 214,-108 344,-217z" style="fill:#271ffd"/>
 </g><g id="RightLeg-Cat0">
  <path class="RightLeg-Cat0fil36" d="M13682 23259c428,0 1377,183 1321,776 215,222 637,350 896,149 312,-243 712,-232 720,-12 370,-265 678,-701 680,-1146 2,-860 -666,-1598 -969,-1838 -621,860 -1470,1269 -2648,1328l0 743z" style="fill:#2eeb84"/>
  <path class="RightLeg-Cat0fil26" d="M14726 23532c179,119 298,292 277,513 215,222 637,350 896,149 312,-243 712,-232 720,-12 370,-265 678,-711 680,-1156 1,-384 -132,-743 -305,-1045 295,935 -992,1876 -2268,1551z" style="fill:#ca7575"/>
  <path class="RightLeg-Cat0fil32" d="M14990 24254c62,5 73,-66 79,-154 8,-118 -4,-261 -94,-417 0,-1 -1,-3 -2,-4 -100,-171 -247,-296 -460,-378 -208,-80 -478,-119 -831,-119l0 150c335,0 588,36 777,108 180,69 302,173 385,314 0,2 1,3 2,4 67,116 86,244 75,332 -9,68 -10,89 -11,105 -4,48 44,56 80,59zm1296 -3006c175,140 477,451 691,859 144,272 248,587 247,919 -1,245 -87,464 -218,653 -154,223 -454,481 -660,663 306,-60 713,-477 783,-578 147,-211 244,-458 244,-738 2,-360 -110,-698 -263,-989 -227,-430 -547,-760 -734,-907l-46 58 -44 60 0 0z" style="fill:#476cfd"/>
  <path class="RightLeg-Cat0fil14" d="M17192 23490c67,-148 106,-305 107,-464 2,-775 -541,-1451 -869,-1752l-157 727c26,48 52,95 79,143 387,-413 947,879 840,1346z" style="fill:#3be361"/>
 </g><g id="LeftLeg-Cat0">
  <path class="LeftLeg-Cat0fil44" d="M13682 23259c-428,0 -1377,183 -1321,776 -215,222 -637,350 -896,149 -312,-243 -712,-232 -720,-12 -370,-265 -679,-701 -680,-1146 -2,-860 666,-1598 969,-1838 621,860 1470,1269 2648,1328l0 743z" style="fill:#eee366"/>
  <path class="LeftLeg-Cat0fil26" d="M12496 23650c-96,103 -150,240 -135,395 -215,222 -637,350 -896,149 -312,-243 -712,-232 -720,-12 -500,-358 -806,-1009 -607,-1618 386,1194 2040,1329 2358,1086z" style="fill:#4c01b3"/>
  <path class="LeftLeg-Cat0fil32" d="M12374 24254c-62,5 -74,-66 -80,-154 -7,-118 4,-261 94,-417 1,-1 2,-3 3,-4 100,-171 247,-296 460,-378 208,-80 478,-119 831,-119l0 150c-335,0 -588,36 -777,108 -180,69 -303,173 -385,314 -1,2 -1,3 -2,4 -67,116 -86,244 -75,332 9,68 10,89 11,105 4,48 -44,56 -80,59zm-1296 -3006c-176,140 -477,451 -692,859 -143,272 -247,587 -246,919 1,245 87,464 218,653 154,223 454,481 660,663 -306,-60 -713,-477 -784,-578 -146,-211 -243,-458 -244,-738 -1,-360 110,-698 264,-989 226,-430 547,-760 734,-907l46 58 44 60 0 0z" style="fill:#4764a6"/>
  <path class="LeftLeg-Cat0fil14" d="M10172 23490c-67,-148 -106,-305 -107,-464 -2,-775 540,-1451 869,-1752l157 727c-26,48 -53,95 -79,143 -388,-413 -947,879 -840,1346z" style="fill:#5f967e"/>
 </g><g id="RightHand-Cat5">
 <animateTransform additive="sum" attributeName="transform" dur="10" repeatCount="indefinite" type="translate" values="0;0 200;0;0 200;0;0 200;0;0 200;0"/>
  <path class="RightHand-Cat5fil52" d="M16457 17599c135,46 219,181 396,256 302,128 528,213 489,362 -27,105 -240,47 -131,130 144,109 483,167 469,386 -9,139 -266,11 -2,210 286,216 675,655 833,931 288,504 -636,1265 -911,1014 -627,-574 -1208,-620 -1688,-543 -742,120 -1353,-1920 -931,-2545 422,-21 1136,-150 1476,-201z" style="fill:#5319c7"/>
  <path class="RightHand-Cat5fil22 RightHand-Cat5str0" d="M16457 17599c135,46 219,181 396,256 302,128 528,213 489,362 -27,105 -240,47 -131,130 144,109 483,167 469,386 -9,139 -266,11 -2,210 285,216 572,583 728,875m-814 1083c-387,-354 -749,-520 -1088,-567 -1419,-198 -2222,-1500 -1523,-2534" style="fill:#7f5216"/>
  <path class="RightHand-Cat5fil14" d="M17512 20830c-602,-518 -1160,-559 -1624,-485 -171,28 -335,-59 -481,-217 -325,-472 753,-1098 1039,-656 261,403 734,847 1111,1126 -2,93 16,193 -45,232l0 0 0 0z" style="fill:#c15ba4"/>
 </g><g id="LeftHand-Cat5">
 <animateTransform additive="sum" attributeName="transform" dur="10" repeatCount="indefinite" type="translate" values="0;0 200;0;0 200;0;0 200;0;0 200;0"/>
  <path class="LeftHand-Cat5fil59" d="M10906 17599c-135,46 -218,181 -395,256 -302,128 -529,213 -489,362 27,105 240,47 131,130 -144,109 -483,167 -469,386 9,139 266,11 2,210 -286,216 -675,655 -833,931 -288,504 636,1265 911,1014 627,-574 1208,-620 1688,-543 742,120 1353,-1920 931,-2545 -422,-21 -1136,-150 -1477,-201z" style="fill:#87bb8e"/>
  <path class="LeftHand-Cat5fil22 LeftHand-Cat5str0" d="M10906 17599c-135,46 -218,181 -395,256 -302,128 -529,213 -489,362 27,105 240,47 131,130 -144,109 -483,167 -469,386 9,139 266,11 2,210 -286,216 -573,583 -728,875m814 1083c387,-354 748,-520 1088,-567 1419,-198 2221,-1500 1523,-2534" style="fill:#d30b0f"/>
  <path class="LeftHand-Cat5fil14" d="M9852 20830c602,-518 1160,-559 1624,-485 171,28 335,-59 481,-217 325,-472 -753,-1098 -1039,-656 -261,403 -734,847 -1111,1126 2,93 -16,193 45,232l0 0 0 0z" style="fill:#e80f52"/>
 </g><g id="Body-Cat2">
 <animateTransform additive="sum" attributeName="transform" dur="10" repeatCount="indefinite" type="translate" values="0;0 200;0;0 200;0;0 200;0;0 200;0"/>
  <path class="Body-Cat2fil62" d="M13682 23135c-1548,0 -2752,-291 -2993,-1956 -147,-1014 391,-2287 991,-3420 634,80 1289,123 2002,142 713,-19 1367,-62 2002,-142 600,1133 1137,2406 991,3420 -242,1665 -1445,1956 -2993,1956z" style="fill:#dadffe"/>
  <path class="Body-Cat2fil14" d="M12621 23067c-1016,-156 -1749,-629 -1932,-1888 -75,-519 29,-1106 229,-1707 -223,2001 402,3257 1703,3595z" style="fill:#46bf9b"/>
  <path class="Body-Cat2fil32" d="M11012 22144c-250,-321 -348,-641 -397,-954 -59,-377 -24,-998 184,-1320 -78,421 -93,905 -36,1298 50,341 104,572 249,976z" style="fill:#b706fc"/>
  <path class="Body-Cat2fil64" d="M13682 18774c-280,-805 -1716,-780 -2057,-36 -868,1890 -798,4237 2057,4237 2855,0 2925,-2347 2057,-4237 -341,-744 -1777,-769 -2057,36z" style="fill:#839647"/>
  <path class="Body-Cat2fil14" d="M14743 23067c1016,-156 1749,-629 1932,-1888 75,-519 -29,-1106 -229,-1707 223,2001 -402,3257 -1703,3595z" style="fill:#c6845c"/>
  <path class="Body-Cat2fil32" d="M16352 22144c250,-321 347,-641 397,-954 59,-377 24,-998 -184,-1320 78,421 93,905 36,1298 -50,341 -104,572 -249,976z" style="fill:#5f20a7"/>
 </g><g id="WeaponBflyNetBack-Medium">
 <animateTransform additive="sum" attributeName="transform" dur="10" repeatCount="indefinite" type="translate" values="0;0 200;0;0 200;0;0 200;0;0 200;0"/>
  <metadata id="CorelCorpID_6Corel-Layer"/>
  <path class="WeaponBflyNetBack-Mediumfil12 WeaponBflyNetBack-Mediumstr0" d="M9510 21699l211 -158 -3097 -1978c-171,-110 -453,-135 -615,154 -163,288 4,515 187,606l3288 1638 26 -262z" style="fill:#2c7c3b"/>
  <path class="WeaponBflyNetBack-Mediumfil1" d="M6205 19540c-65,37 -126,96 -176,184 -162,288 5,515 188,606l3267 1631 22 -220c-464,-223 -2955,-1545 -3141,-1708 -152,-132 -207,-333 -160,-493z" style="fill:#5b0d13"/>
 </g><g id="NecklaceCapeRed-Medium">
  <animateTransform additive="sum" attributeName="transform" dur="10" repeatCount="indefinite" type="translate" values="0;0 200;0;0 200;0;0 200;0;0 200;0"/>
  <metadata id="CorelCorpID_3Corel-Layer"/>
  <g id="_1834097537024">
   <path class="NecklaceCapeRed-Mediumfil15 NecklaceCapeRed-Mediumstr0" d="M12255 18362c975,116 2758,-1179 4054,-1285 300,-24 456,257 674,315 232,63 654,221 624,464 -438,-98 -549,-97 -1111,224 -1286,735 -2757,853 -4231,496 -1,-30 -17,-118 -10,-214z" style="fill:#879374"/>
   <path class="NecklaceCapeRed-Mediumfil16" d="M11771 18438c-606,-187 -811,-311 -1134,-548 -125,-91 -689,-385 -858,76 -34,92 -71,180 -132,302l-344 -33c100,-174 169,-325 228,-498 122,-357 425,-349 681,-554 197,-158 585,-234 740,-198 909,209 929,642 991,1400l0 0c-47,17 -108,35 -172,53z" style="fill:#b26231"/>
   <path class="NecklaceCapeRed-Mediumfil14" d="M11749 18510c-307,-95 -513,-175 -685,-261 -172,-86 -307,-178 -471,-299 -38,-27 -122,-76 -223,-113 -85,-31 -180,-54 -267,-48 -79,6 -152,36 -205,108 -19,26 -35,57 -49,94 -32,88 -78,191 -135,304l-160 -14c66,-129 119,-244 154,-341 19,-51 42,-95 69,-131 83,-113 196,-160 316,-169 111,-8 227,19 328,56 116,43 215,100 260,134 159,116 288,204 450,286 160,80 354,155 641,244 25,-7 50,-14 74,-21l18 -6c-56,-688 -96,-1084 -928,-1275 -73,-17 -209,-4 -350,34 -123,33 -245,83 -327,149 -95,76 -192,123 -284,168 -158,76 -303,147 -373,352 -57,168 -135,336 -230,504l-165 -14c107,-180 192,-360 253,-538 90,-265 263,-348 449,-439 87,-42 176,-85 257,-149 100,-81 242,-141 381,-178 163,-44 328,-57 422,-35 948,218 983,660 1046,1430l3 34c1,8 0,17 -2,26 -3,16 -12,30 -25,41l0 0 0 0c-8,6 -16,11 -26,14 -23,8 -48,16 -75,24 -31,10 -65,20 -99,29 -15,4 -29,4 -42,0z" style="fill:#7cc90a"/>
   <ellipse class="NecklaceCapeRed-Mediumfil17 NecklaceCapeRed-Mediumstr1" cx="11884" cy="18448" rx="437" ry="424"/>
   <ellipse class="NecklaceCapeRed-Mediumfil18 NecklaceCapeRed-Mediumstr1" cx="12643" cy="18527" rx="290" ry="282"/>
   <path class="NecklaceCapeRed-Mediumfil10" d="M11884 18872c178,0 331,-104 399,-252 -72,62 -166,99 -270,99 -226,0 -409,-178 -409,-398 0,-99 37,-189 98,-259 -150,67 -254,215 -254,386 0,234 195,424 436,424z" style="fill:#ea70e7"/>
   <path class="NecklaceCapeRed-Mediumfil10" d="M12672 18785c120,0 224,-70 270,-170 -49,42 -113,67 -183,67 -152,0 -276,-120 -276,-269 0,-67 25,-128 66,-175 -101,46 -172,145 -172,261 0,158 132,286 295,286z" style="fill:#e60585"/>
   <path class="NecklaceCapeRed-Mediumfil11" d="M12146 18644c43,-55 69,-122 69,-196 0,-177 -148,-321 -331,-321 -81,0 -155,28 -212,75 34,-10 71,-16 109,-16 208,0 377,164 377,367 0,31 -4,62 -12,91z" style="fill:#0585c6"/>
   <path class="NecklaceCapeRed-Mediumfil11" d="M12792 18625c24,-29 37,-66 37,-106 0,-96 -80,-173 -178,-173 -44,0 -84,15 -115,40 19,-5 38,-8 59,-8 112,0 204,88 204,198 0,17 -3,33 -7,49z" style="fill:#367339"/>
  </g>
 </g><g id="RightPaw-Cat0">
 <animateTransform additive="sum" attributeName="transform" dur="10" repeatCount="indefinite" type="translate" values="0;0 200;0;0 200;0;0 200;0;0 200;0"/>
  <g id="_2842391375968">
   <path class="RightPaw-Cat0fil26" d="M17501 20836c-31,672 506,1059 828,766 253,397 884,103 809,-293 203,-535 -266,-1036 -634,-1325 -198,-64 -364,-248 -462,44 -114,341 -157,279 -402,398 -164,79 -11,352 -139,410z" style="fill:#4636e2"/>
   <path class="RightPaw-Cat0fil14" d="M17501 20836c-31,672 506,1059 828,766 341,429 911,24 753,-293 -65,297 -520,408 -657,-118 -113,412 -522,237 -614,26 -96,-216 -45,-462 -254,-619 -2,93 16,193 -45,232l0 0 0 1c-2,0 -3,1 -5,2l0 0 0 0 0 0 0 0 -1 1 0 0 0 0c-2,1 -3,2 -5,2z" style="fill:#caa5a8"/>
   <path class="RightPaw-Cat0fil32" d="M17437 20673c-79,-58 -168,63 -89,121 29,21 57,43 84,65 -4,302 99,551 246,712 55,61 118,109 183,144 146,76 312,82 454,-8 209,238 583,191 784,-34 86,-97 135,-221 116,-357 83,-234 46,-463 -52,-673 -133,-282 -403,-498 -588,-704 -34,-37 -181,-286 -215,-345 -58,-79 -178,10 -120,89 36,48 75,120 112,186 6,12 81,153 124,188 201,164 431,392 551,649 38,81 65,165 77,251 -53,-69 -156,-152 -275,-139 81,67 126,143 171,252 66,158 113,363 -12,503 -142,159 -412,205 -563,33 116,-164 118,-464 -80,-548 55,102 48,374 -55,477 -86,86 -222,119 -360,47 -49,-26 -97,-63 -141,-112 -129,-140 -218,-365 -207,-639 2,-22 -6,-44 -23,-60 -37,-34 -82,-68 -122,-98z" style="fill:#cf7dd6"/>
  </g>
 </g><g id="LeftPaw-Cat0">
 <animateTransform additive="sum" attributeName="transform" dur="10" repeatCount="indefinite" type="translate" values="0;0 200;0;0 200;0;0 200;0;0 200;0"/>
  <path class="LeftPaw-Cat0fil26" d="M9863 20836c31,672 -506,1059 -828,766 -253,397 -884,103 -809,-293 -203,-535 266,-1036 634,-1325 198,-64 364,-248 462,44 114,341 157,279 402,398 164,79 11,352 139,410z" style="fill:#12db98"/>
  <path class="LeftPaw-Cat0fil14" d="M9863 20836c31,672 -506,1059 -828,766 -341,429 -911,24 -754,-293 66,297 521,408 658,-118 113,412 522,237 614,26 95,-216 45,-462 254,-619 2,93 -16,193 45,232l0 0 0 1c2,0 3,1 5,2l0 0 0 0 0 0 0 0 0 1 1 0 0 0c1,1 3,2 5,2z" style="fill:#236dc8"/>
  <path class="LeftPaw-Cat0fil32" d="M9927 20673c79,-58 168,63 88,121 -28,21 -56,43 -83,65 4,302 -100,551 -246,712 -56,61 -118,109 -183,144 -146,76 -312,82 -454,-8 -209,238 -583,191 -784,-34 -86,-97 -135,-221 -116,-357 -83,-234 -46,-463 52,-673 133,-282 403,-498 588,-704 34,-37 180,-286 214,-345 59,-79 179,10 121,89 -36,48 -76,120 -112,186 -6,12 -81,153 -124,188 -201,164 -431,392 -551,649 -38,81 -66,165 -77,251 53,-69 156,-152 275,-139 -81,67 -126,143 -172,252 -65,158 -113,363 13,503 142,159 412,205 562,33 -115,-164 -117,-464 81,-548 -55,102 -48,374 55,477 86,86 222,119 359,47 50,-26 98,-63 142,-112 128,-140 218,-365 207,-639 -2,-22 6,-44 23,-60 37,-34 81,-68 122,-98z" style="fill:#e7d91d"/>
 </g><g id="BraceletGold-Medium">
 <animateTransform additive="sum" attributeName="transform" dur="10" repeatCount="indefinite" type="translate" values="0;0 200;0;0 200;0;0 200;0;0 200;0"/>
  <metadata id="CorelCorpID_23Corel-Layer"/>
  <path class="BraceletGold-Mediumfil66new BraceletGold-Mediumstr3new" d="M10392 20534c79,89 47,248 -72,354 -119,107 -281,121 -360,32 -53,-59 -57,-150 -18,-235 -84,28 -173,15 -235,-42 -74,-68 -89,-180 -46,-281 -96,59 -216,61 -303,-6 -82,-63 -113,-168 -90,-270 -103,65 -228,65 -308,-8 -53,-49 -76,-120 -68,-194 -86,59 -187,71 -257,20 -97,-71 -99,-233 -5,-362 94,-129 249,-177 346,-107 59,44 83,123 70,207 102,-64 226,-64 305,9 64,58 84,148 62,236 94,-57 211,-57 297,9 94,72 121,201 76,315 103,-68 231,-70 312,5 74,68 89,179 47,280 94,-36 191,-25 247,38z" style="fill:#a71978"/>
  <path class="BraceletGold-Mediumfil3new" d="M8821 19869c89,-45 175,-196 176,-279 36,20 77,54 114,74 -72,24 -169,168 -170,275 -42,-20 -78,-50 -120,-70z" style="fill:#2e7cef"/>
  <path class="BraceletGold-Mediumfil3new" d="M9174 20077c95,-34 192,-174 204,-257 33,24 83,58 117,83 -75,15 -188,157 -192,273 -39,-25 -89,-74 -129,-99z" style="fill:#2575d1"/>
  <path class="BraceletGold-Mediumfil3new" d="M9568 20352c111,-30 185,-163 196,-246 34,24 86,87 120,111 -74,16 -185,125 -199,231 -40,-25 -78,-71 -117,-96z" style="fill:#46d2f6"/>
  <path class="BraceletGold-Mediumfil3new" d="M9883 20650c114,-10 208,-138 233,-217 29,29 68,65 97,95 -75,2 -211,122 -244,224 -34,-32 -52,-70 -86,-102z" style="fill:#4d02b0"/>
  <path class="BraceletGold-Mediumfil67new BraceletGold-Mediumstr3new" d="M16972 20534c-80,89 -47,248 72,354 119,107 280,121 360,32 53,-59 56,-150 17,-235 85,28 174,15 236,-42 74,-68 89,-180 46,-281 95,59 215,61 303,-6 82,-63 113,-168 90,-270 102,65 228,65 308,-8 53,-49 76,-120 68,-194 86,59 187,71 257,20 97,-71 99,-233 5,-362 -95,-129 -249,-177 -346,-107 -60,44 -83,123 -70,207 -102,-64 -226,-64 -306,9 -63,58 -83,148 -61,236 -94,-57 -211,-57 -297,9 -94,72 -122,201 -76,315 -103,-68 -231,-70 -312,5 -74,68 -89,179 -47,280 -94,-36 -191,-25 -247,38z" style="fill:#95d376"/>
  <path class="BraceletGold-Mediumfil3new" d="M18543 19869c-89,-45 -175,-196 -176,-279 -37,20 -77,54 -114,74 72,24 169,168 170,275 42,-20 78,-50 120,-70z" style="fill:#1a5ce9"/>
  <path class="BraceletGold-Mediumfil3new" d="M18189 20077c-94,-34 -192,-174 -203,-257 -34,24 -83,58 -117,83 74,15 188,157 191,273 40,-25 90,-74 129,-99z" style="fill:#e11ef2"/>
  <path class="BraceletGold-Mediumfil3new" d="M17796 20352c-111,-30 -185,-163 -196,-246 -34,24 -86,87 -120,111 74,16 184,125 199,231 40,-25 77,-71 117,-96z" style="fill:#daf487"/>
  <path class="BraceletGold-Mediumfil3new" d="M17481 20650c-114,-10 -208,-138 -233,-217 -29,29 -68,65 -98,95 76,2 212,122 244,224 35,-32 53,-70 87,-102z" style="fill:#f2f81c"/>
 </g><g id="Head-Cat5">
 <animateTransform additive="sum" attributeName="transform" dur="10" repeatCount="indefinite" type="translate" values="0;0 200;0;0 200;0;0 200;0;0 200;0"/>
  <path class="Head-Cat5fil145" d="M13682 7485c-2521,3 -5132,2484 -5949,5018 -118,367 -230,774 -326,1125 -129,478 -261,1233 -57,1376 171,119 359,-38 620,-29 -308,228 -793,634 -552,962 191,261 484,-94 850,6 -260,75 -554,406 -478,616 56,156 245,231 536,249 1052,64 2116,663 2883,887 772,225 1635,292 2473,292 838,0 1701,-67 2473,-292 767,-224 1831,-823 2883,-887 291,-18 480,-93 536,-249 76,-210 -218,-541 -479,-616 367,-100 660,255 851,-6 241,-328 -244,-734 -552,-962 261,-9 449,148 619,29 205,-143 73,-898 -57,-1376 -95,-351 -207,-758 -325,-1125 -817,-2534 -3428,-5015 -5949,-5018z" style="fill:#4ee74a"/>
  <path class="Head-Cat5fil32" d="M8220 11366c-215,492 -436,1198 -587,1726 -55,193 -106,381 -153,555 -73,270 -147,630 -159,912 -8,190 10,340 72,384 74,51 166,28 274,1 90,-23 189,-48 305,-43 42,1 74,36 72,77 0,24 -12,44 -30,57l0 0c-150,111 -342,265 -466,429 -111,146 -165,299 -70,429 74,100 186,65 321,22 142,-44 303,-95 489,-44 40,11 64,52 53,92 -8,28 -31,48 -57,54 -7,2 -14,4 -21,6 -110,40 -226,129 -307,231 -75,95 -120,197 -98,272 1,3 2,6 2,8 21,57 69,101 141,133 82,37 193,58 329,66 722,44 1443,333 2074,586 169,68 932,401 1536,530 -578,0 -1433,-328 -1591,-391 -621,-249 -1330,-533 -2027,-575 -154,-10 -283,-35 -382,-79 -110,-49 -185,-121 -220,-220 -2,-6 -4,-11 -6,-16 -36,-127 21,-277 125,-407 40,-51 88,-99 140,-142 -47,11 -92,26 -136,39 -189,60 -349,110 -486,-77 -145,-198 -77,-411 71,-608 77,-101 177,-198 278,-284l-2 0c-144,36 -267,67 -396,-24 -112,-78 -146,-274 -136,-512 12,-296 88,-667 163,-945 48,-176 100,-367 154,-557 137,-480 453,-1301 731,-1685z" style="fill:#48e6df"/>
  <path class="Head-Cat5fil14" d="M8151 11499c-168,330 -309,667 -418,1004 -118,367 -230,774 -326,1125 -129,478 -261,1233 -57,1376 171,119 359,-38 620,-29 -308,228 -793,634 -552,962 191,261 484,-94 850,6 -260,75 -554,406 -478,616 56,156 245,231 536,249 1052,64 2116,663 2883,887 92,27 186,50 281,72 116,21 224,41 320,62l0 0c-1756,-505 -2871,-1266 -3394,-2304 -572,-1138 -535,-2592 -265,-4026z" style="fill:#bdafb7"/>
  <path class="Head-Cat5fil32" d="M19144 11366c215,492 436,1198 586,1726 56,193 107,381 154,555 73,270 147,630 159,912 8,190 -10,340 -72,384 -74,51 -166,28 -274,1 -90,-23 -189,-48 -305,-43 -42,1 -74,36 -73,77 1,24 13,44 31,57l0 0c149,111 342,265 466,429 111,146 165,299 70,429 -74,100 -187,65 -321,22 -142,-44 -303,-95 -489,-44 -40,11 -64,52 -53,92 8,28 30,48 57,54 7,2 14,4 21,6 110,40 226,129 307,231 75,95 120,197 98,272 -1,3 -2,6 -2,8 -21,57 -69,101 -141,133 -82,37 -193,58 -330,66 -721,44 -1442,333 -2073,586 -170,68 -932,401 -1536,530 578,0 1433,-328 1591,-391 621,-249 1330,-533 2027,-575 154,-10 283,-35 382,-79 110,-49 185,-121 220,-220 2,-6 4,-11 6,-16 36,-127 -22,-277 -125,-407 -40,-51 -88,-99 -140,-142 47,11 92,26 136,39 189,60 348,110 485,-77 146,-198 78,-411 -70,-608 -77,-101 -177,-198 -278,-284l2 0c144,36 266,67 396,-24 112,-78 146,-274 136,-512 -12,-296 -88,-667 -163,-945 -48,-176 -100,-367 -154,-557 -138,-480 -453,-1301 -731,-1685z" style="fill:#7e62ba"/>
  <path class="Head-Cat5fil32" d="M13682 7560c-408,0 -767,56 -1102,149 -949,262 -2036,899 -2715,1499 604,-730 1714,-1378 2675,-1644 348,-96 720,-154 1142,-154 421,0 794,58 1141,154 962,266 2072,914 2676,1644 -679,-600 -1766,-1237 -2715,-1499 -335,-93 -694,-149 -1102,-149z" style="fill:#6d55bc"/>
 </g><g id="Mouth-Cat3">
 <animateTransform additive="sum" attributeName="transform" dur="10" repeatCount="indefinite" type="translate" values="0;0 200;0;0 200;0;0 200;0;0 200;0"/>
  <path class="Mouth-Cat3fil22 Mouth-Cat3str0" d="M13055 15227c287,-436 627,-647 627,-1011l0 -347" style="fill:#f6acfb"/>
  <path class="Mouth-Cat3fil22 Mouth-Cat3str0" d="M14309 15227c-287,-436 -627,-647 -627,-1011l0 -347" style="fill:#f8fcd9"/>
  <path class="Mouth-Cat3fil100" d="M13694 14470c83,187 241,349 361,538 -99,-126 -237,-252 -373,-252l0 -286 12 0zm-24 0c-83,187 -241,349 -361,538 99,-126 237,-252 373,-252l0 -286 -12 0z" style="fill:#db67f7"/>
 </g><g id="WeaponBflyNet-Medium">
 <animateTransform additive="sum" attributeName="transform" dur="10" repeatCount="indefinite" type="translate" values="0;0 200;0;0 200;0;0 200;0;0 200;0"/>
  <metadata id="CorelCorpID_7Corel-Layer"/>
  <path class="WeaponBflyNet-Mediumfil13" d="M9944 24239c-1031,247 -2610,1424 -2409,1744 202,321 807,-308 2195,-285 1388,24 3318,548 4389,475 1072,-73 2527,-605 2527,-1008 0,-404 -664,-890 -664,-890l-1329 -819 -1589 -545 -1246 35c-312,696 -844,1047 -1874,1293z" style="fill:#bacf56"/>
  <path class="WeaponBflyNet-Mediumfil14 WeaponBflyNet-Mediumstr2" d="M12208 23611c1081,-10 2699,732 3400,1560" style="fill:#420076"/>
  <path class="WeaponBflyNet-Mediumfil14 WeaponBflyNet-Mediumstr2" d="M15001 25038c361,-118 643,-350 896,-735" style="fill:#2ce880"/>
  <path class="WeaponBflyNet-Mediumfil14 WeaponBflyNet-Mediumstr2" d="M14199 24735c361,-118 799,-594 993,-1009" style="fill:#73eb19"/>
  <path class="WeaponBflyNet-Mediumfil14 WeaponBflyNet-Mediumstr2" d="M13338 24354c351,-256 662,-654 857,-1068" style="fill:#516e15"/>
  <path class="WeaponBflyNet-Mediumfil14 WeaponBflyNet-Mediumstr2" d="M12448 23933c351,-255 662,-653 856,-1068" style="fill:#6dcdfd"/>
  <path class="WeaponBflyNet-Mediumfil14 WeaponBflyNet-Mediumstr3" d="M9944 24239c-1031,247 -2610,1424 -2409,1744 202,321 807,-308 2195,-285 1388,24 3289,510 4389,475 1101,-35 2500,-626 2500,-1029 0,-404 -637,-869 -637,-869l-1329 -819 -1589 -545 -1246 35c-312,696 -844,1047 -1874,1293z" style="fill:#7ce478"/>
  <path class="WeaponBflyNet-Mediumfil15 WeaponBflyNet-Mediumstr0" d="M12035 22910c-60,107 -121,213 -181,320 -796,-450 -1593,-899 -2390,-1348 -25,-155 36,-261 180,-320 797,449 1594,899 2391,1348z" style="fill:#601ccb"/>
  <path class="WeaponBflyNet-Mediumfil14 WeaponBflyNet-Mediumstr2" d="M7552 25924c388,-461 1369,-846 2240,-977 1201,-181 2132,-581 2417,-1260" style="fill:#c8f663"/>
  <path class="WeaponBflyNet-Mediumfil3" d="M11925 23104l-71 126c-796,-450 -1593,-899 -2390,-1348 -14,-83 -2,-151 33,-206l2428 1428z" style="fill:#8b7e15"/>
  <path class="WeaponBflyNet-Mediumfil14 WeaponBflyNet-Mediumstr2" d="M13504 26144c892,-24 1786,-100 2461,-823" style="fill:#f28174"/>
  <path class="WeaponBflyNet-Mediumfil14 WeaponBflyNet-Mediumstr2" d="M11549 25873c1214,-25 2062,57 3174,-816" style="fill:#e8e7cc"/>
  <path class="WeaponBflyNet-Mediumfil14 WeaponBflyNet-Mediumstr2" d="M7630 26002c382,-247 1117,-495 1934,-589 1497,-171 3030,135 3829,-826" style="fill:#cd8ec3"/>
  <path class="WeaponBflyNet-Mediumfil16 WeaponBflyNet-Mediumstr1" d="M14530 23222c1360,601 2301,1453 2101,1904 -199,452 -1463,331 -2822,-269 -1360,-600 -2301,-1452 -2102,-1904 200,-451 1463,-331 2823,269zm-2073 437c425,367 973,670 1485,896 512,226 1105,426 1663,494 853,103 929,-68 277,-629 -426,-366 -973,-670 -1485,-896 -512,-226 -1105,-425 -1663,-493 -854,-103 -929,67 -277,628z" style="fill:#735d38"/>
  <path class="WeaponBflyNet-Mediumfil3" d="M16555 25232c-345,321 -1506,173 -2746,-375 -1360,-600 -2301,-1452 -2102,-1904 38,-86 115,-151 223,-196 -33,31 -59,66 -76,106 -199,451 742,1303 2101,1903 1101,486 2139,658 2600,466zm-318 -112c15,-47 65,-258 5,-340 -71,-95 -191,-214 -360,-360 -426,-366 -973,-670 -1485,-896 -512,-226 -1105,-425 -1663,-493 -257,-31 -443,-37 -560,-16 33,-108 266,-128 706,-75 558,68 1151,268 1663,494 513,226 1060,529 1486,896 171,147 292,267 362,363 116,159 17,396 -154,427z" style="fill:#894bfd"/>
  <path class="WeaponBflyNet-Mediumfil14 WeaponBflyNet-Mediumstr2" d="M11269 23733c142,1272 2907,2208 4031,2233" style="fill:#915389"/>
  <path class="WeaponBflyNet-Mediumfil14 WeaponBflyNet-Mediumstr2" d="M10476 24127c-23,1341 1755,1969 3097,2026" style="fill:#bd369d"/>
  <path class="WeaponBflyNet-Mediumfil14 WeaponBflyNet-Mediumstr2" d="M9671 24329c-323,500 220,1274 858,1420" style="fill:#4ed8b5"/>
  <path class="WeaponBflyNet-Mediumfil14 WeaponBflyNet-Mediumstr2" d="M8801 24747c-190,293 -4,865 395,962" style="fill:#059856"/>
  <path class="WeaponBflyNet-Mediumfil14 WeaponBflyNet-Mediumstr2" d="M8109 25223c-267,258 -33,735 247,682" style="fill:#22a52b"/>
 </g><g id="Eyes-Cat6">
 <animateTransform additive="sum" attributeName="transform" dur="10" repeatCount="indefinite" type="translate" values="0;0 200;0;0 200;0;0 200;0;0 200;0"/>
  <g>
        <animateTransform additive="sum" attributeName="transform" dur="10" repeatCount="indefinite" type="translate" values="0;0;0;-950 1300;0"/>
        <animateTransform additive="sum" attributeName="transform" dur="10" repeatCount="indefinite" type="rotate" values="0;0;0;-5;0"/>
        <g>
            <animateTransform additive="sum" attributeName="transform" dur="10" repeatCount="indefinite" type="translate" values="0;0;0;-200 3000;0"/>
            <g>
                <animateTransform additive="sum" attributeName="transform" dur="10" repeatCount="indefinite" type="scale" values="1;1;1;1 0.8;1"/>
                <path class="Eyes-Cat6fil184" d="M12241 12362c-19,-833 -3390,-859 -3489,-168 -205,1421 515,2369 1837,2380 1066,9 1686,-625 1652,-2212z"/>
                <path class="Eyes-Cat6fil185" d="M11714 11914c-498,-151 -1262,-170 -1890,-80 -116,253 -184,558 -184,885 0,885 390,1594 1112,1603 722,10 1112,-718 1112,-1603 0,-294 -54,-568 -150,-805z"/>
                <path class="Eyes-Cat6fil186" d="M11131 11820c-233,-42 -498,-51 -752,-29 -45,220 -72,482 -72,764 0,777 268,1406 445,1406 177,0 445,-629 445,-1406 0,-270 -24,-521 -66,-735z"/>
                <circle class="Eyes-Cat6fil152" r="235" transform="matrix(0.386601 -0.693281 1.39025 0.889533 9887.58 14107.9)"/>
                <circle class="Eyes-Cat6fil152" r="235" transform="matrix(0.437299 -0.127093 0.239024 0.657032 9359.82 13570.6)"/>
                <path class="Eyes-Cat6fil157" d="M12241 12362c-19,-833 -3390,-859 -3489,-168 -56,387 -43,739 32,1047 122,-998 1466,-1249 2069,-1166 877,120 1138,594 1204,1587 132,-331 195,-761 184,-1300z"/>
                <path class="Eyes-Cat6fil152" d="M11407 12094c410,9 586,810 1,810 -535,0 -394,-819 -1,-810z"/>
                <path class="Eyes-Cat6fil22 Eyes-Cat6str4" d="M12241 12362c-19,-833 -3390,-859 -3489,-168 -205,1421 515,2369 1837,2380 1066,9 1686,-625 1652,-2212z"/>
            </g>      
        </g>  
    </g>
    <g>
        <animateTransform additive="sum" attributeName="transform" dur="10" repeatCount="indefinite" type="translate" values="0;0;0;1300 -950;0"/>
        <animateTransform additive="sum" attributeName="transform" dur="10" repeatCount="indefinite" type="rotate" values="0;0;0;5;0"/>
        <g>
            <animateTransform additive="sum" attributeName="transform" dur="10" repeatCount="indefinite" type="translate" values="0;0;0;0 3000;0"/>
            <g>
                <animateTransform additive="sum" attributeName="transform" dur="10" repeatCount="indefinite" type="scale" values="1;1;1;1 0.8;1"/>
                <path class="Eyes-Cat6fil187" d="M15123 12362c18,-833 3390,-859 3489,-168 205,1421 -515,2369 -1837,2380 -1066,9 -1687,-625 -1652,-2212z"/>
                <path class="Eyes-Cat6fil188" d="M15650 11914c498,-151 1262,-170 1889,-80 117,253 185,558 185,885 0,885 -390,1594 -1112,1603 -722,10 -1112,-718 -1112,-1603 0,-294 54,-568 150,-805z"/>
                <path class="Eyes-Cat6fil189" d="M16233 11820c232,-42 498,-51 752,-29 45,220 71,482 71,764 0,777 -267,1406 -444,1406 -177,0 -445,-629 -445,-1406 0,-270 24,-521 66,-735z"/>
                <circle class="Eyes-Cat6fil152" r="235" transform="matrix(-0.386601 -0.693281 -1.39025 0.889533 17476.3 14107.9)"/>
                <circle class="Eyes-Cat6fil152" r="235" transform="matrix(-0.437299 -0.127093 -0.239024 0.657032 18004 13570.6)"/>
                <path class="Eyes-Cat6fil157" d="M15123 12362c18,-833 3390,-859 3489,-168 56,387 43,739 -32,1047 -122,-998 -1466,-1249 -2069,-1166 -877,120 -1138,594 -1204,1587 -132,-331 -196,-761 -184,-1300z"/>
                <path class="Eyes-Cat6fil152" d="M17034 12094c-411,9 -586,810 -1,810 534,0 394,-819 1,-810z"/>
                <path class="Eyes-Cat6fil22 Eyes-Cat6str4" d="M15123 12362c18,-833 3390,-859 3489,-168 205,1421 -515,2369 -1837,2380 -1066,9 -1687,-625 -1652,-2212z"/>
            </g>      
        </g>  
    </g>  
    <g>
        <animateTransform additive="sum" attributeName="transform" dur="10" repeatCount="indefinite" type="translate" values="0;0;0;1200 -800;0"/>
        <g>
            <animateTransform additive="sum" attributeName="transform" dur="10" repeatCount="indefinite" type="rotate" values="0;0;0;5;0"/>
            <g>
                <animateTransform additive="sum" attributeName="transform" dur="10" repeatCount="indefinite" type="translate" values="0;0;0;0;0"/> 
                <path class="Eyes-Cat6fil155" d="M9619 11353c142,61 626,-104 1234,-100 559,4 1034,180 1194,47 177,-146 -88,-536 -361,-664 -224,-105 -813,-128 -1335,58 -616,219 -905,586 -732,659z"/>
            </g>
            <g>
                <animateTransform additive="sum" attributeName="transform" dur="10" repeatCount="indefinite" type="translate" values="0;0;0;0;0"/> 
                <path class="Eyes-Cat6fil14" d="M9619 11353c142,61 626,-104 1234,-100 559,4 1034,180 1194,47 177,-146 -88,-536 -361,-664 -224,-105 -813,-128 -1335,58 -616,219 -905,586 -732,659z"/>
            </g>
        </g>
    </g>  
    <g>
        <animateTransform additive="sum" attributeName="transform" dur="10" repeatCount="indefinite" type="translate" values="0;0;0;-800 1200;0"/>
        <g>
            <animateTransform additive="sum" attributeName="transform" dur="10" repeatCount="indefinite" type="rotate" values="0;0;0;-5;0"/>
            <g>
                <animateTransform additive="sum" attributeName="transform" dur="10" repeatCount="indefinite" type="translate" values="0;0;0;-250 350;0"/> 
                <path class="Eyes-Cat6fil155" d="M17745 11353c-142,61 -626,-104 -1234,-100 -559,4 -1034,180 -1194,47 -177,-146 88,-536 361,-664 224,-105 813,-128 1335,58 616,219 904,586 732,659z"/>
            </g>
            <g>
                <animateTransform additive="sum" attributeName="transform" dur="10" repeatCount="indefinite" type="translate" values="0;0;0;-250 350;0"/> 
                <path class="Eyes-Cat6fil14" d="M17745 11353c-142,61 -626,-104 -1234,-100 -559,4 -1034,180 -1194,47 -177,-146 88,-536 361,-664 224,-105 813,-128 1335,58 616,219 904,586 732,659z"/>
            </g>
        </g>
    </g>
 </g><g id="Moustache-Cat3">
 <animateTransform additive="sum" attributeName="transform" dur="10" repeatCount="indefinite" type="translate" values="0;0 200;0;0 200;0;0 200;0;0 200;0"/>
  <circle class="Moustache-Cat3fil100" cx="13066" cy="14169" r="116"/>
  <circle class="Moustache-Cat3fil100" cx="12808" cy="13653" r="116"/>
  <circle class="Moustache-Cat3fil100" cx="12480" cy="14064" r="116"/>
  <circle class="Moustache-Cat3fil100" cx="14298" cy="14169" r="116"/>
  <circle class="Moustache-Cat3fil100" cx="14556" cy="13653" r="116"/>
  <circle class="Moustache-Cat3fil100" cx="14884" cy="14064" r="116"/>
 </g><g id="Nose-Cat0">
 <animateTransform additive="sum" attributeName="transform" dur="10" repeatCount="indefinite" type="translate" values="0;0 200;0;0 200;0;0 200;0;0 200;0"/>
  <metadata id="CorelCorpID_107Corel-Layer"/>
  <path class="Nose-Cat0fil221 Nose-Cat0str0" d="M13682 13408c-194,0 -465,93 -444,231 19,127 197,330 444,330 247,0 425,-203 444,-330 21,-138 -250,-231 -444,-231z" style="fill:#7a6555"/>
 </g><g id="AccessoryDuck">
  <metadata id="CorelCorpID_7Corel-Layer"/>
  <g>
   <path class="AccessoryDuckfil122" d="M6799 23590c567,92 901,386 954,797 53,412 -243,1082 -841,1089 -393,5 -1153,26 -1786,26 -391,0 -696,-285 -829,-563 -183,-382 -87,-1276 203,-1374 170,-58 552,365 851,277 435,-128 967,-330 1448,-252z" style="fill:#6073cd"/>
   <path class="AccessoryDuckfil48" d="M7758 24535c-23,406 -315,934 -846,941 -393,5 -1153,26 -1786,26 -391,0 -696,-285 -829,-563 -156,-325 -109,-1021 87,-1282 -106,322 -111,821 11,1082 131,278 430,563 813,563 621,0 1366,-21 1751,-26 437,-6 710,-381 799,-741z" style="fill:#175867"/>
   <path class="AccessoryDuckfil123" d="M6799 23590c56,9 109,20 160,33 -130,90 -255,351 -427,375 -135,19 -523,-198 -655,-168 -209,48 -405,103 -557,148 -275,81 -535,-184 -692,-130 -267,91 -276,730 -108,1082 120,250 435,557 785,572 -61,0 -120,0 -179,0 -391,0 -696,-285 -829,-563 -183,-382 -87,-1276 203,-1374 170,-58 552,365 851,277 435,-128 967,-330 1448,-252z" style="fill:#a59aa9"/>
   <path class="AccessoryDuckfil2 AccessoryDuckstr1" d="M6799 23590c567,92 901,386 954,797 53,412 -243,1082 -841,1089 -393,5 -1153,26 -1786,26 -391,0 -696,-285 -829,-563 -183,-382 -87,-1276 203,-1374 170,-58 552,365 851,277 435,-128 967,-330 1448,-252z" style="fill:#153402"/>
   <path class="AccessoryDuckfil124" d="M6799 22018c651,0 1017,455 1017,1017 0,561 -456,1016 -1017,1016 -561,0 -1016,-455 -1016,-1016 0,-562 365,-1017 1016,-1017z" style="fill:#88c732"/>
   <path class="AccessoryDuckfil123" d="M6799 22018c651,0 1017,455 1017,1017 0,95 -14,186 -38,274 13,-58 21,-117 21,-178 0,-519 -394,-978 -993,-978 -598,0 -854,358 -854,878 0,454 400,909 767,1017 -524,-41 -936,-479 -936,-1013 0,-562 365,-1017 1016,-1017z" style="fill:#f2a4fd"/>
   <path class="AccessoryDuckfil3" d="M6185 23844c-28,28 -290,-116 -378,-327 -53,-104 -110,-285 -125,-443 -4,-44 -7,-84 -7,-123 0,-256 79,-492 231,-671 152,-180 376,-303 666,-331 43,-4 85,-6 127,-6 344,0 637,118 846,308 218,199 346,477 346,784 0,197 -53,383 -146,543 -114,198 -486,429 -501,374 -14,-55 186,-125 372,-448 79,-138 125,-298 125,-469 0,-264 -109,-502 -297,-673 -182,-166 -440,-269 -745,-269 -41,0 -79,2 -113,5 -248,24 -438,127 -566,278 -128,152 -195,354 -195,575 0,37 2,74 5,108 14,140 50,256 110,390 60,135 273,366 245,395z" style="fill:#6fabdf"/>
   <path class="AccessoryDuckfil123" d="M6658 22472c143,0 258,134 258,300 0,166 -115,300 -258,300 -143,0 -259,-134 -259,-300 0,-166 116,-300 259,-300z" style="fill:#6dc4e8"/>
   <ellipse class="AccessoryDuckfil125" cx="6677" cy="22749" rx="239" ry="278"/>
   <path class="AccessoryDuckfil2 AccessoryDuckstr18" d="M8022 22883c-201,144 -531,341 -779,257" style="fill:#c8448f"/>
   <path class="AccessoryDuckfil126" d="M6906 23254c-93,-143 260,-242 351,-320 100,-87 101,-231 168,-331 379,92 984,-279 923,-35 -43,175 -342,292 -454,408 135,81 371,182 293,310 -165,270 -1199,93 -1281,-32z" style="fill:#e02859"/>
   <path class="AccessoryDuckfil127" d="M5595 24102c432,0 782,85 782,426 0,341 -350,504 -782,504 -432,0 -782,-445 -782,-651 0,-207 350,-279 782,-279z" style="fill:#898dca"/>
   <path class="AccessoryDuckfil123" d="M5595 24102c112,0 218,6 314,20 -54,-3 -109,-5 -167,-5 -397,0 -719,62 -719,238 0,176 322,556 719,556 224,0 424,-44 556,-135 -127,173 -394,256 -703,256 -432,0 -782,-445 -782,-651 0,-207 350,-279 782,-279z" style="fill:#1a1bdb"/>
   <path class="AccessoryDuckfil2" d="M5595 24102c432,0 782,85 782,426 0,341 -350,504 -782,504 -432,0 -782,-445 -782,-651 0,-207 350,-279 782,-279z" style="fill:#ae7e27"/>
   <path class="AccessoryDuckfil128" d="M7774 23111c-89,-34 -14,-124 -111,-45 -97,79 -363,35 -380,106 -17,71 420,126 587,75 167,-51 -7,-102 -96,-136z" style="fill:#92eec5"/>
   <path class="AccessoryDuckfil3" d="M7978 22822c34,-24 80,-16 105,17 24,33 16,80 -17,104 -104,75 -242,164 -388,223 -227,93 -542,12 -506,-50 0,-32 161,63 450,-88 126,-66 259,-136 356,-206z" style="fill:#75ccf8"/>
   <path class="AccessoryDuckfil2 AccessoryDuckstr0" d="M6843 23214c-50,-149 300,-228 411,-311 100,-77 103,-211 171,-300 595,142 902,-305 923,-35 14,173 -342,292 -454,408 135,81 371,182 293,310 -165,270 -1277,131 -1344,-72z" style="fill:#da7c0b"/>
   <ellipse class="AccessoryDuckfil14" cx="6745" cy="22636" rx="71" ry="72"/>
   <path class="AccessoryDuckfil14" d="M6953 22225c60,7 105,42 101,77 -4,35 -60,68 -120,61 -60,-7 -102,-52 -98,-87 4,-36 57,-59 117,-51z" style="fill:#291769"/>
   <path class="AccessoryDuckfil14" d="M7236 22345c28,16 43,42 34,59 -10,16 -24,5 -52,-11 -28,-16 -60,-31 -50,-47 9,-17 40,-17 68,-1z" style="fill:#8103dd"/>
   <path class="AccessoryDuckfil129" d="M7161 25119c-29,-51 140,-147 188,-480 19,-137 -2,-287 -86,-411 -23,-34 -14,-80 20,-104 35,-23 81,-14 104,21 107,157 135,344 110,515 -35,244 -307,509 -336,459z" style="fill:#5c2c12"/>
   <path class="AccessoryDuckfil130" d="M5478 24311c0,-39 423,-52 488,-36 278,75 233,289 199,309 -34,19 11,-154 -222,-212 -285,-70 -465,-23 -465,-61z" style="fill:#561eef"/>
  </g>
 </g><g id="HatBanderas-Medium">
 <animateTransform additive="sum" attributeName="transform" dur="10" repeatCount="indefinite" type="translate" values="0;0 200;0;0 200;0;0 200;0;0 200;0"/>
  <metadata id="CorelCorpID_64Corel-Layer"/>
  <path class="HatBanderas-Mediumfil608new" d="M7959 11361c315,-948 283,-1863 443,-2630 211,-1023 1742,-2185 2423,-2801 1794,-1622 3961,-935 5564,-236 1027,447 574,1635 1180,2577 -133,664 -267,1328 -401,1992 -2244,242 -4489,484 -6734,726 -910,112 -1566,260 -2475,372z" style="fill:#ae268f"/>
  <path class="HatBanderas-Mediumfil609new" d="M8355 8991c14,-88 29,-175 47,-260 211,-1023 1742,-2185 2423,-2801 1140,-1031 2431,-1129 3632,-884 -565,31 -1203,113 -1827,292 -1559,448 -3623,2678 -4275,3653z" style="fill:#74a35d"/>
  <path class="HatBanderas-Mediumfil47new HatBanderas-Mediumstr0new" d="M7959 11361c315,-948 283,-1863 443,-2630 211,-1023 1742,-2185 2423,-2801 1794,-1622 3961,-935 5564,-236 1027,447 574,1635 1180,2577 -133,664 -267,1328 -401,1992 -2244,242 -4489,484 -6734,726 -910,112 -1566,260 -2475,372z" style="fill:#327464"/>
  <path class="HatBanderas-Mediumfil610new HatBanderas-Mediumstr0new" d="M7703 11284c3111,-218 6430,-406 9541,-625 55,-704 101,-1607 156,-2312 -3850,1458 -7221,-213 -9270,1000 -425,252 -28,1097 -427,1937z" style="fill:#ffc4e9"/>
  <path class="HatBanderas-Mediumfil14new" d="M10333 10721c1580,-377 4142,-1201 4608,-1784 -773,106 -2311,65 -3294,-14 3814,-261 4857,-1209 5077,-3192 166,1416 836,2760 1002,4177 -2057,266 -5336,546 -7393,813z" style="fill:#dbed1d"/>
  <g>
   <polygon class="HatBanderas-Mediumfil611new HatBanderas-Mediumstr0new" points="15759,7871 16169,8162 15309,9146 "/>
   <path class="HatBanderas-Mediumfil611new HatBanderas-Mediumstr0new" d="M16088 7402c2554,-1831 1647,465 4000,498 -2380,946 -1930,-996 -4000,-498z" style="fill:#a7ffa0"/>
   <path class="HatBanderas-Mediumfil612new HatBanderas-Mediumstr0new" d="M16152 7377c2159,-2138 -249,-1752 -385,-3653 -1072,1962 917,1960 385,3653z" style="fill:#7a8e37"/>
   <path class="HatBanderas-Mediumfil613new HatBanderas-Mediumstr0new" d="M16663 6821c492,-575 1176,-976 2062,-1244 739,-627 -458,-1720 1179,-2419 -167,-296 -2155,-371 -2872,394 -1014,1082 818,1798 -369,3269z" style="fill:#e01639"/>
   <path class="HatBanderas-Mediumfil614new HatBanderas-Mediumstr0new" d="M18152 5802c817,-228 2487,-446 3438,539 1232,380 1176,-573 2354,95 -156,-1266 -2439,-3355 -3577,-3081 -1609,387 -182,1829 -2215,2447z" style="fill:#b6879f"/>
   <path class="HatBanderas-Mediumfil615new HatBanderas-Mediumstr0new" d="M21993 6592c1113,336 1233,-253 1971,217 333,758 447,2209 -408,2510 -346,-975 -702,-1911 -1563,-2727z" style="fill:#00b48a"/>
   <path class="HatBanderas-Mediumfil616new HatBanderas-Mediumstr0new" d="M17040 6579c549,-298 1226,-768 1606,-750 1325,65 1240,1738 2036,1939 -1614,185 -1629,-1231 -3642,-1189z" style="fill:#76296d"/>
   <path class="HatBanderas-Mediumfil617new HatBanderas-Mediumstr0new" d="M21441 7862c-109,-496 787,-438 478,-1170 806,692 1426,1701 1619,2645 -569,675 -2052,-733 -2097,-1475z" style="fill:#c01924"/>
   <path class="HatBanderas-Mediumfil618new HatBanderas-Mediumstr0new" d="M18753 5690c1289,238 1055,1539 2323,1989 -54,-683 991,-349 637,-1233 -1083,-891 -2006,-1334 -2960,-756z" style="fill:#d163e5"/>
   <path class="HatBanderas-Mediumfil246new" d="M16931 6426c1130,-963 -654,-2092 670,-3066 -964,973 641,1996 -370,2897 -75,48 -225,121 -300,169z" style="fill:#83e660"/>
   <path class="HatBanderas-Mediumfil246new" d="M18732 5659c1553,-429 554,-1695 2286,-2060 -1412,500 -511,1604 -1923,2023 -94,14 -270,22 -363,37z" style="fill:#7ee7ce"/>
   <path class="HatBanderas-Mediumfil246new" d="M19310 5581c1619,-214 677,-1410 2459,-1538 -1495,304 -615,1328 -2094,1551 -95,1 -270,-14 -365,-13z" style="fill:#fe62fe"/>
   <path class="HatBanderas-Mediumfil246new" d="M19655 5599c1638,-80 851,-1213 2641,-1194 -1526,179 -780,1136 -2279,1236 -95,-6 -267,-35 -362,-42z" style="fill:#e3bc92"/>
   <path class="HatBanderas-Mediumfil246new" d="M16333 7138c778,-1169 -734,-1822 -632,-2822 217,1119 1551,1511 867,2595 -57,62 -178,165 -235,227z" style="fill:#6efbfb"/>
   <path class="HatBanderas-Mediumfil246new" d="M20508 5747c1520,501 1285,-613 2889,31 -1472,-372 -1179,568 -2585,134 -82,-39 -222,-126 -304,-165z" style="fill:#d1a740"/>
   <path class="HatBanderas-Mediumfil619new" d="M17290 6521c1597,-307 1756,674 2726,1056 -820,-482 -923,-1436 -2394,-1181 -89,29 -243,97 -332,125z" style="fill:#0a4c43"/>
   <path class="HatBanderas-Mediumfil619new" d="M17585 6087c1636,-99 1601,889 2484,1390 -715,-580 -630,-1536 -2133,-1472 -93,17 -258,65 -351,82z" style="fill:#c930dd"/>
   <path class="HatBanderas-Mediumfil246new" d="M21904 6659c892,636 1060,-171 1967,578 -897,-538 -974,161 -1808,-407 -45,-42 -114,-129 -159,-171z" style="fill:#88712c"/>
   <path class="HatBanderas-Mediumfil619new" d="M18698 5714c1637,101 1418,1074 2197,1677 -599,-661 -337,-1595 -1834,-1715 -95,5 -268,32 -363,38z" style="fill:#24dcff"/>
   <path class="HatBanderas-Mediumfil619new" d="M20468 5773c336,489 132,1062 453,1607 -180,-529 54,-1062 -177,-1519l-276 -88z" style="fill:#3a7e0e"/>
   <path class="HatBanderas-Mediumfil620new HatBanderas-Mediumstr0new" d="M16051 7462c1882,-3196 6384,-2609 7377,1551 -1789,-4138 -5362,-4068 -7049,-1302 -109,-83 -219,-166 -328,-249z" style="fill:#d11b5b"/>
   <path class="HatBanderas-Mediumfil246new" d="M22630 7098c445,181 795,-100 1310,587 -558,-533 -847,-256 -1251,-429l-59 -158z" style="fill:#0917f2"/>
   <path class="HatBanderas-Mediumfil246new" d="M17251 6099c1275,-836 -311,-2144 1159,-2969 -1112,863 314,2046 -834,2833 -82,39 -243,96 -325,136z" style="fill:#0a680c"/>
   <path class="HatBanderas-Mediumfil246new" d="M17566 5900c1448,-624 198,-2152 1835,-2736 -1295,676 -173,2057 -1484,2653 -90,26 -262,57 -351,83z" style="fill:#a31b36"/>
   <path class="HatBanderas-Mediumfil246new" d="M22198 7007c-29,403 -745,703 -269,1408 -290,-658 391,-918 409,-1287l-140 -121z" style="fill:#ab6c57"/>
   <path class="HatBanderas-Mediumfil246new" d="M23012 7790c310,317 773,180 883,978 -229,-673 -635,-520 -911,-814l28 -164z" style="fill:#05c7cb"/>
   <path class="HatBanderas-Mediumfil246new" d="M22363 7297c61,401 -667,959 -41,1583 -432,-605 270,-1119 206,-1484l-165 -99z" style="fill:#2d23fe"/>
   <path class="HatBanderas-Mediumfil246new" d="M22648 7689c62,400 -489,950 137,1574 -432,-605 93,-1110 28,-1475l-165 -99z" style="fill:#d350ec"/>
  </g>
  <path class="HatBanderas-Mediumfil621new" d="M3515 13711c-351,-1259 2163,-2149 3856,-2547 3094,-728 7063,-902 8457,-1880 2518,-1769 -877,-4108 1209,-4537 4244,-871 8098,6761 2402,6978 -3995,-729 -8357,-625 -12276,181 -1483,306 -3596,942 -3648,1805z" style="fill:#bdfe1e"/>
  <path class="HatBanderas-Mediumfil609new" d="M7624 11106c3054,-679 6848,-870 8204,-1822 2518,-1769 -877,-4108 1209,-4537 637,-131 1266,-68 1855,131 -1567,-193 -2453,137 -2249,846 210,728 582,1431 354,2393 -228,963 -937,1558 -2634,2014 -1697,456 -5395,747 -6750,1013l11 -38z" style="fill:#c556d2"/>
  <path class="HatBanderas-Mediumfil360new" d="M21086 6423c1736,2042 1968,5164 -1647,5302 -1750,-319 -3571,-479 -5394,-489 2647,-526 5098,0 6257,-641 1182,-654 1765,-2164 784,-4172z" style="fill:#1a8612"/>
  <path class="HatBanderas-Mediumfil360new" d="M18486 5304c132,-205 474,-203 762,5 288,208 414,543 282,748 -133,206 -475,203 -763,-5 -288,-208 -414,-543 -281,-748z" style="fill:#7cde1a"/>
  <path class="HatBanderas-Mediumfil622new HatBanderas-Mediumstr0new" d="M18654 5526c96,-148 342,-146 549,4 208,150 299,391 203,539 -96,148 -342,146 -549,-4 -208,-150 -299,-391 -203,-539z" style="fill:#d10f5e"/>
  <path class="HatBanderas-Mediumfil47new HatBanderas-Mediumstr0new" d="M3515 13711c-351,-1259 2163,-2149 3856,-2547 3094,-728 7063,-902 8457,-1880 2518,-1769 -877,-4108 1209,-4537 4244,-871 8098,6761 2402,6978 -3995,-729 -8357,-625 -12276,181 -1483,306 -3596,942 -3648,1805z" style="fill:#03c943"/>
  <path class="HatBanderas-Mediumfil609new" d="M18797 5526c49,-17 98,-5 109,25 11,31 -20,70 -69,86 -50,17 -98,5 -109,-25 -11,-31 20,-70 69,-86z" style="fill:#918e69"/>
 </g></svg>