<svg xmlns="http://www.w3.org/2000/svg" xmlns:xlink="http://www.w3.org/1999/xlink" style="shape-rendering:geometricPrecision; text-rendering:geometricPrecision; image-rendering:optimizeQuality; fill-rule:evenodd; clip-rule:evenodd" version="1.1" viewBox="0 0 29000 29000" xml:space="preserve"><defs><style type="text/css">.RightFoot-Cat2fil34 {fill:url(#RightFoot-Cat2id448)}
.RightFoot-Cat2fil14 {fill:black;fill-opacity:0.200000}
.RightFoot-Cat2fil22 {fill:none}
.RightFoot-Cat2fil32 {fill:black;fill-rule:nonzero}
.RightLeg-Cat0fil36 {fill:url(#RightLeg-Cat0id383)}
.RightLeg-Cat0fil26 {fill:#e5f5f9}
.RightLeg-Cat0fil32 {fill:black;fill-rule:nonzero}
.RightLeg-Cat0fil14 {fill:black;fill-opacity:0.200000}
.LeftFoot-Cat2fil43 {fill:url(#LeftFoot-Cat2id634)}
.LeftFoot-Cat2fil14 {fill:black;fill-opacity:0.200000}
.LeftFoot-Cat2fil22 {fill:none}
.LeftFoot-Cat2fil32 {fill:black;fill-rule:nonzero}
.LeftLeg-Cat0fil44 {fill:url(#LeftLeg-Cat0id193)}
.LeftLeg-Cat0fil26 {fill:#e5f5f9}
.LeftLeg-Cat0fil32 {fill:black;fill-rule:nonzero}
.LeftLeg-Cat0fil14 {fill:black;fill-opacity:0.200000}
.RightPaw-Cat0fil26 {fill:#e5f5f9}
.RightPaw-Cat0fil14 {fill:black;fill-opacity:0.200000}
.RightPaw-Cat0fil32 {fill:black;fill-rule:nonzero}
.LeftPaw-Cat0fil26 {fill:#e5f5f9}
.LeftPaw-Cat0fil14 {fill:black;fill-opacity:0.200000}
.LeftPaw-Cat0fil32 {fill:black;fill-rule:nonzero}
.Body-Cat2fil62 {fill:url(#Body-Cat2id318)}
.Body-Cat2fil14 {fill:black;fill-opacity:0.200000}
.Body-Cat2fil32 {fill:black;fill-rule:nonzero}
.Body-Cat2fil64 {fill:url(#Body-Cat2id245)}
.Head-Cat5fil145 {fill:url(#Head-Cat5id31)}
.Head-Cat5fil32 {fill:black;fill-rule:nonzero}
.Head-Cat5fil14 {fill:black;fill-opacity:0.200000}
.Mouth-Cat4fil100 {fill:black}
.Mouth-Cat4fil22 {fill:none}
.Mouth-Cat4str0 {stroke:black;stroke-width:150;stroke-linecap:round;stroke-linejoin:round}
.Eyes-Cat4fil172 {fill:url(#Eyes-Cat4id947)}
.Eyes-Cat4fil157 {fill:black;fill-opacity:0.501961}
.Eyes-Cat4fil173 {fill:url(#Eyes-Cat4id595)}
.Eyes-Cat4fil174 {fill:url(#Eyes-Cat4id786)}
.Eyes-Cat4fil152 {fill:white}
.Eyes-Cat4fil175 {fill:url(#Eyes-Cat4id943)}
.Eyes-Cat4fil176 {fill:url(#Eyes-Cat4id591)}
.Eyes-Cat4fil177 {fill:url(#Eyes-Cat4id752)}
.Eyes-Cat4fil155 {fill:#b9c2cf}
.Eyes-Cat4fil14 {fill:black;fill-opacity:0.200000}
.Eyes-Cat4fil22 {fill:none}
.Eyes-Cat4str4 {stroke:black;stroke-width:150}
.BraceletSteel-Mediumfil57new {fill:url(#BraceletSteel-Mediumid666new);fill-rule:nonzero}
.BraceletSteel-Mediumstr4new {stroke:black;stroke-width:100}
.BraceletSteel-Mediumfil58new {fill:url(#BraceletSteel-Mediumid686new);fill-rule:nonzero}
.WeaponBflyKnifeBack-Mediumfil23 {fill:black}
.WeaponBflyKnifeBack-Mediumfil25 {fill:url(#WeaponBflyKnifeBack-Mediumid10)}
.WeaponBflyKnifeBack-Mediumstr0 {stroke:black;stroke-width:150;stroke-linecap:round;stroke-linejoin:round}
.WeaponBflyKnifeBack-Mediumfil24 {fill:url(#WeaponBflyKnifeBack-Mediumid20)}
.WeaponBflyKnifeBack-Mediumstr1 {stroke:black;stroke-width:150}
.WeaponBflyKnife-Mediumfil26 {fill:url(#WeaponBflyKnife-Mediumid21)}
.WeaponBflyKnife-Mediumfil27 {fill:white;fill-opacity:0.501961}
.WeaponBflyKnife-Mediumfil28 {fill:#820000}
.WeaponBflyKnife-Mediumfil23 {fill:black}
.WeaponBflyKnife-Mediumfil29 {fill:url(#WeaponBflyKnife-Mediumid5)}
.WeaponBflyKnife-Mediumfil30 {fill:url(#WeaponBflyKnife-Mediumid15)}
.WeaponBflyKnife-Mediumfil31 {fill:white;fill-opacity:0.301961}
.WeaponBflyKnife-Mediumfil14 {fill:none}
.WeaponBflyKnife-Mediumstr0 {stroke:black;stroke-width:150;stroke-linecap:round;stroke-linejoin:round}
.AccessoryBannerDefencefil28 {fill:#000066;fill-opacity:0.501961}
.AccessoryBannerDefencefil29 {fill:#000066;fill-opacity:0.301961}
.AccessoryBannerDefencefil17 {fill:black;fill-opacity:0.200000}
.AccessoryBannerDefencefil18 {fill:url(#AccessoryBannerDefenceid48)}
.AccessoryBannerDefencestr0 {stroke:black;stroke-width:150;stroke-linecap:round;stroke-linejoin:round}
.AccessoryBannerDefencefil19 {fill:url(#AccessoryBannerDefenceid17)}
.AccessoryBannerDefencefil20 {fill:url(#AccessoryBannerDefenceid9)}
.AccessoryBannerDefencefil21 {fill:url(#AccessoryBannerDefenceid1)}
.AccessoryBannerDefencefil22 {fill:url(#AccessoryBannerDefenceid6)}
.AccessoryBannerDefencefil23 {fill:url(#AccessoryBannerDefenceid42)}
.AccessoryBannerDefencefil24 {fill:url(#AccessoryBannerDefenceid45)}
.AccessoryBannerDefencefil25 {fill:url(#AccessoryBannerDefenceid24)}
.AccessoryBannerDefencestr1 {stroke:black;stroke-width:150}
.AccessoryBannerDefencefil26 {fill:url(#AccessoryBannerDefenceid20)}
.AccessoryBannerDefencefil27 {fill:url(#AccessoryBannerDefenceid21)}
.AccessoryBannerDefencefil30 {fill:none}
.AccessoryBannerDefencestr3 {stroke:#000066;stroke-width:250;stroke-linecap:round;stroke-linejoin:round;stroke-opacity:0.501961}
.AccessoryBannerDefencefil11 {fill:none}
.NecklaceScream-Mediumfil1 {fill:black;fill-opacity:0.301961}
.NecklaceScream-Mediumfil2 {fill:black;fill-opacity:0.400000}
.NecklaceScream-Mediumfil3 {fill:white;fill-rule:nonzero;fill-opacity:0.200000}
.NecklaceScream-Mediumfil0 {fill:url(#NecklaceScream-Mediumid0)}
.NecklaceScream-Mediumfil4 {fill:white;fill-opacity:0.501961}
.NecklaceScream-Mediumfil6 {fill:url(#NecklaceScream-Mediumid6)}
.NecklaceScream-Mediumfil7 {fill:black;fill-rule:nonzero}
.NecklaceScream-Mediumfil8 {fill:url(#NecklaceScream-Mediumid3)}
.NecklaceScream-Mediumfil9 {fill:white;fill-opacity:0.400000}
.NecklaceScream-Mediumfil10 {fill:url(#NecklaceScream-Mediumid32)}
.NecklaceScream-Mediumfil11 {fill:white;fill-opacity:0.200000}
.NecklaceScream-Mediumfil12 {fill:black;fill-opacity:0.501961}
.NecklaceScream-Mediumfil13 {fill:black;fill-rule:nonzero;fill-opacity:0.501961}
.NecklaceScream-Mediumstr0 {stroke:black;stroke-width:150;stroke-linecap:round;stroke-linejoin:round;stroke-miterlimit:22.9256}
.NecklaceScream-Mediumfil5 {fill:none}
.NecklaceScream-Mediumstr1 {stroke:black;stroke-width:150;stroke-linecap:round;stroke-linejoin:round;stroke-miterlimit:22.9256}
.HeadScream-Mediumfil12 {fill:black;fill-opacity:0.501961}
.HeadScream-Mediumfil15 {fill:url(#HeadScream-Mediumid13)}
.HeadScream-Mediumfil2 {fill:black;fill-opacity:0.400000}
.HeadScream-Mediumfil16 {fill:black;fill-opacity:0.200000}
.HeadScream-Mediumfil17 {fill:black;fill-opacity:0.701961}
.HeadScream-Mediumfil7 {fill:black;fill-rule:nonzero}
.HeadScream-Mediumfil20 {fill:url(#HeadScream-Mediumid1)}
.HeadScream-Mediumfil21 {fill:#706758;fill-opacity:0.301961}
.HeadScream-Mediumfil22 {fill:#FAF3EB;fill-opacity:0.200000}
.HeadScream-Mediumfil14 {fill:url(#HeadScream-Mediumid2)}
.HeadScream-Mediumstr0 {stroke:black;stroke-width:150;stroke-linecap:round;stroke-linejoin:round;stroke-miterlimit:22.9256}
.HeadScream-Mediumfil18 {fill:url(#HeadScream-Mediumid8)}
.HeadScream-Mediumfil19 {fill:url(#HeadScream-Mediumid12)}
.HeadScream-Mediumfil5 {fill:none}
.HeadScream-Mediumstr2 {stroke:#646463;stroke-width:7.62;stroke-miterlimit:22.9256;stroke-opacity:0.200000}
.HeadScream-Mediumstr1 {stroke:black;stroke-width:150;stroke-linecap:round;stroke-linejoin:round;stroke-miterlimit:22.9256}
</style><linearGradient gradientUnits="userSpaceOnUse" id="RightFoot-Cat2id448" x1="16353.3" x2="16006.4" y1="25487.2" y2="23702.7">
   <stop offset="0" style="stop-opacity:1; stop-color:#b9c2cf"/>
   <stop offset="0.368627" style="stop-opacity:1; stop-color:#736c54"/>
   <stop offset="0.690196" style="stop-opacity:1; stop-color:#999177"/>
   <stop offset="1" style="stop-opacity:1; stop-color:#999177"/>
  </linearGradient><linearGradient gradientUnits="userSpaceOnUse" id="RightLeg-Cat0id383" x1="15490.3" x2="15490.3" xlink:href="#RightLeg-Cat0id19" y1="24284.1" y2="21188.2">
  </linearGradient><linearGradient gradientUnits="userSpaceOnUse" id="LeftFoot-Cat2id634" x1="10992.4" x2="11375.5" xlink:href="#LeftFoot-Cat2id448" y1="25464.3" y2="23725.6">
  </linearGradient><linearGradient gradientUnits="userSpaceOnUse" id="LeftLeg-Cat0id193" x1="11873.5" x2="11873.5" xlink:href="#LeftLeg-Cat0id19" y1="24284.1" y2="21188.2">
  </linearGradient><linearGradient gradientUnits="objectBoundingBox" id="Body-Cat2id318" x1="50%" x2="50%" xlink:href="#Body-Cat2id36" y1="0.000186021%" y2="100%">
  </linearGradient><linearGradient gradientUnits="userSpaceOnUse" id="Body-Cat2id245" x1="13681.9" x2="13681.9" y1="22974.9" y2="18175.1">
   <stop offset="0" style="stop-opacity:1; stop-color:#e5f5f9"/>
   <stop offset="0.65098" style="stop-opacity:1; stop-color:#e5f5f9"/>
   <stop offset="1" style="stop-opacity:1; stop-color:#cee7ed"/>
  </linearGradient><linearGradient gradientUnits="userSpaceOnUse" id="Head-Cat5id31" x1="13681.9" x2="13681.9" y1="17986.7" y2="7484.8">
   <stop offset="0" style="stop-opacity:1; stop-color:#736c54"/>
   <stop offset="0.0313725" style="stop-opacity:1; stop-color:#736c54"/>
   <stop offset="0.321569" style="stop-opacity:1; stop-color:#999177"/>
   <stop offset="1" style="stop-opacity:1; stop-color:#b3b0a6"/>
  </linearGradient><linearGradient gradientUnits="userSpaceOnUse" id="Eyes-Cat4id947" x1="10821.5" x2="10019.4" xlink:href="#Eyes-Cat4id27" y1="14683.6" y2="11312.6">
  </linearGradient><linearGradient gradientUnits="userSpaceOnUse" id="Eyes-Cat4id595" x1="9055.3" x2="12085" xlink:href="#Eyes-Cat4id57" y1="13058.1" y2="13058.1">
  </linearGradient><linearGradient gradientUnits="userSpaceOnUse" id="Eyes-Cat4id786" x1="10316" x2="10951.1" xlink:href="#Eyes-Cat4id384" y1="11494.4" y2="14182.5">
  </linearGradient><linearGradient gradientUnits="objectBoundingBox" id="Eyes-Cat4id943" x1="37.8942%" x2="62.1058%" xlink:href="#Eyes-Cat4id27" y1="97.4073%" y2="2.59301%">
  </linearGradient><linearGradient gradientUnits="userSpaceOnUse" id="Eyes-Cat4id591" x1="15278.9" x2="18308.6" xlink:href="#Eyes-Cat4id57" y1="13058.1" y2="13058.1">
  </linearGradient><linearGradient gradientUnits="userSpaceOnUse" id="Eyes-Cat4id752" x1="17047.8" x2="16412.8" xlink:href="#Eyes-Cat4id384" y1="11494.4" y2="14182.5">
  </linearGradient><linearGradient gradientUnits="userSpaceOnUse" id="BraceletSteel-Mediumid666new" x1="8808.47" x2="10149.2" xlink:href="#BraceletSteel-Mediumid663new" y1="19708.3" y2="20807.9">
  </linearGradient><linearGradient gradientUnits="userSpaceOnUse" id="BraceletSteel-Mediumid686new" x1="18555.4" x2="17214.7" xlink:href="#BraceletSteel-Mediumid663new" y1="19708.3" y2="20807.9">
  </linearGradient><linearGradient gradientUnits="userSpaceOnUse" id="WeaponBflyKnifeBack-Mediumid10" x1="7610.92" x2="7717.74" xlink:href="#WeaponBflyKnifeBack-Mediumid4" y1="19919.5" y2="19877.8">
  </linearGradient><linearGradient gradientUnits="userSpaceOnUse" id="WeaponBflyKnifeBack-Mediumid20" x1="7155" x2="10206.4" xlink:href="#WeaponBflyKnifeBack-Mediumid18" y1="20686" y2="21753.5">
  </linearGradient><linearGradient gradientUnits="userSpaceOnUse" id="WeaponBflyKnife-Mediumid21" x1="9678.73" x2="12556.5" xlink:href="#WeaponBflyKnife-Mediumid19" y1="23619.9" y2="23321.3">
  </linearGradient><linearGradient gradientUnits="userSpaceOnUse" id="WeaponBflyKnife-Mediumid5" x1="10045" x2="10174.8" xlink:href="#WeaponBflyKnife-Mediumid4" y1="22278.7" y2="22228">
  </linearGradient><linearGradient gradientUnits="userSpaceOnUse" id="WeaponBflyKnife-Mediumid15" x1="9745.2" x2="9875.04" xlink:href="#WeaponBflyKnife-Mediumid4" y1="22603.1" y2="22552.4">
  </linearGradient><linearGradient gradientUnits="userSpaceOnUse" id="AccessoryBannerDefenceid48" x1="5973.37" x2="5973.37" xlink:href="#AccessoryBannerDefenceid0" y1="24280.6" y2="5852.25">
  </linearGradient><linearGradient gradientUnits="objectBoundingBox" id="AccessoryBannerDefenceid17" x1="0%" x2="100%" xlink:href="#AccessoryBannerDefenceid0" y1="49.9991%" y2="49.9991%">
  </linearGradient><linearGradient gradientUnits="objectBoundingBox" id="AccessoryBannerDefenceid9" x1="50%" x2="50%" xlink:href="#AccessoryBannerDefenceid0" y1="100%" y2="0%">
  </linearGradient><linearGradient gradientUnits="objectBoundingBox" id="AccessoryBannerDefenceid1" x1="50%" x2="50%" xlink:href="#AccessoryBannerDefenceid0" y1="0%" y2="100%">
  </linearGradient><linearGradient gradientUnits="objectBoundingBox" id="AccessoryBannerDefenceid6" x1="50%" x2="50%" xlink:href="#AccessoryBannerDefenceid0" y1="100%" y2="0%">
  </linearGradient><linearGradient gradientUnits="userSpaceOnUse" id="AccessoryBannerDefenceid42" x1="1023.1" x2="1023.1" xlink:href="#AccessoryBannerDefenceid0" y1="8803.36" y2="5469.72">
  </linearGradient><linearGradient gradientUnits="objectBoundingBox" id="AccessoryBannerDefenceid45" x1="50.0003%" x2="50.0003%" xlink:href="#AccessoryBannerDefenceid0" y1="100%" y2="0%">
  </linearGradient><linearGradient gradientUnits="objectBoundingBox" id="AccessoryBannerDefenceid24" x1="0%" x2="100%" xlink:href="#AccessoryBannerDefenceid0" y1="50%" y2="50%">
  </linearGradient><linearGradient gradientUnits="objectBoundingBox" id="AccessoryBannerDefenceid20" x1="0%" x2="100%" xlink:href="#AccessoryBannerDefenceid0" y1="50%" y2="50%">
  </linearGradient><linearGradient gradientUnits="userSpaceOnUse" id="AccessoryBannerDefenceid21" x1="5974.86" x2="5974.86" y1="21875.8" y2="6472.39">
   <stop offset="0" style="stop-opacity:1; stop-color:#85F343"/>
   <stop offset="0.54902" style="stop-opacity:1; stop-color:#45854C"/>
   <stop offset="1" style="stop-opacity:1; stop-color:#2B616B"/>
  </linearGradient><linearGradient gradientUnits="objectBoundingBox" id="NecklaceScream-Mediumid0" x1="50%" x2="50%" y1="100%" y2="0%">
   <stop offset="0" style="stop-opacity:1; stop-color:#08090A"/>
   <stop offset="0.239216" style="stop-opacity:1; stop-color:#18181A"/>
   <stop offset="0.45098" style="stop-opacity:1; stop-color:#383635"/>
   <stop offset="0.678431" style="stop-opacity:1; stop-color:#292827"/>
   <stop offset="1" style="stop-opacity:1; stop-color:#08090A"/>
  </linearGradient><linearGradient gradientUnits="userSpaceOnUse" id="NecklaceScream-Mediumid6" x1="13681.94" x2="13681.94" xlink:href="#NecklaceScream-Mediumid0" y1="21404.36" y2="17236.07">
  </linearGradient><linearGradient gradientUnits="userSpaceOnUse" id="NecklaceScream-Mediumid3" x1="13639.46" x2="13639.46" y1="24831.84" y2="21099.6">
   <stop offset="0" style="stop-opacity:1; stop-color:#706758"/>
   <stop offset="0.431373" style="stop-opacity:1; stop-color:#292827"/>
   <stop offset="0.678431" style="stop-opacity:1; stop-color:#18181A"/>
   <stop offset="1" style="stop-opacity:1; stop-color:#08090A"/>
  </linearGradient><linearGradient gradientUnits="userSpaceOnUse" id="NecklaceScream-Mediumid32" x1="10557.49" x2="16806.39" y1="21154.23" y2="21154.23">
   <stop offset="0" style="stop-opacity:1; stop-color:#191B1F"/>
   <stop offset="0.168627" style="stop-opacity:1; stop-color:#0C0C0D"/>
   <stop offset="0.619608" style="stop-opacity:1; stop-color:#241E18"/>
   <stop offset="1" style="stop-opacity:1; stop-color:#09090A"/>
  </linearGradient><linearGradient gradientUnits="userSpaceOnUse" id="HeadScream-Mediumid13" x1="16915.49" x2="16915.5" y1="20908.15" y2="7973.33">
   <stop offset="0" style="stop-opacity:1; stop-color:aliceblue"/>
   <stop offset="0.231373" style="stop-opacity:1; stop-color:#F5F9FF"/>
   <stop offset="0.501961" style="stop-opacity:1; stop-color:#FAFCFF"/>
   <stop offset="0.588235" style="stop-opacity:1; stop-color:#AAABAD"/>
   <stop offset="1" style="stop-opacity:1; stop-color:#08090A"/>
  </linearGradient><linearGradient gradientUnits="userSpaceOnUse" id="HeadScream-Mediumid1" x1="19103.32" x2="8260.56" y1="7855.35" y2="14914.14">
   <stop offset="0" style="stop-opacity:1; stop-color:#5C5B58"/>
   <stop offset="0.301961" style="stop-opacity:1; stop-color:#292827"/>
   <stop offset="0.529412" style="stop-opacity:1; stop-color:#18181A"/>
   <stop offset="0.780392" style="stop-opacity:1; stop-color:#383635"/>
   <stop offset="1" style="stop-opacity:1; stop-color:#141417"/>
  </linearGradient><linearGradient gradientUnits="userSpaceOnUse" id="HeadScream-Mediumid2" x1="13660.23" x2="13660.23" y1="18373.96" y2="9671.4">
   <stop offset="0" style="stop-opacity:1; stop-color:#383330"/>
   <stop offset="0.360784" style="stop-opacity:1; stop-color:black"/>
   <stop offset="1" style="stop-opacity:1; stop-color:black"/>
  </linearGradient><linearGradient gradientUnits="userSpaceOnUse" id="HeadScream-Mediumid8" x1="13681.94" x2="13681.94" y1="19769.52" y2="16055.71">
   <stop offset="0" style="stop-opacity:1; stop-color:#383635"/>
   <stop offset="0.690196" style="stop-opacity:1; stop-color:#08090A"/>
   <stop offset="1" style="stop-opacity:1; stop-color:#141417"/>
  </linearGradient><linearGradient gradientUnits="userSpaceOnUse" id="HeadScream-Mediumid12" x1="13681.94" x2="13681.94" xlink:href="#HeadScream-Mediumid8" y1="15463.01" y2="14448.87">
  </linearGradient><linearGradient gradientUnits="userSpaceOnUse" id="RightLeg-Cat0id19" x1="15490.3" x2="15490.3" y1="24284.1" y2="21188.2">
   <stop offset="0" style="stop-opacity:1; stop-color:#b3b0a6"/>
   <stop offset="0.439216" style="stop-opacity:1; stop-color:#b3b0a6"/>
   <stop offset="1" style="stop-opacity:1; stop-color:#999177"/>
  </linearGradient><linearGradient gradientUnits="userSpaceOnUse" id="LeftFoot-Cat2id448" x1="16353.3" x2="16006.4" y1="25487.2" y2="23702.7">
   <stop offset="0" style="stop-opacity:1; stop-color:#b9c2cf"/>
   <stop offset="0.368627" style="stop-opacity:1; stop-color:#736c54"/>
   <stop offset="0.690196" style="stop-opacity:1; stop-color:#999177"/>
   <stop offset="1" style="stop-opacity:1; stop-color:#999177"/>
  </linearGradient><linearGradient gradientUnits="userSpaceOnUse" id="LeftLeg-Cat0id19" x1="15490.3" x2="15490.3" y1="24284.1" y2="21188.2">
   <stop offset="0" style="stop-opacity:1; stop-color:#b3b0a6"/>
   <stop offset="0.439216" style="stop-opacity:1; stop-color:#b3b0a6"/>
   <stop offset="1" style="stop-opacity:1; stop-color:#999177"/>
  </linearGradient><linearGradient gradientUnits="userSpaceOnUse" id="Body-Cat2id36" x1="13681.9" x2="13681.9" y1="17936.7" y2="7484.8">
   <stop offset="0" style="stop-opacity:1; stop-color:#736c54"/>
   <stop offset="0.0313725" style="stop-opacity:1; stop-color:#736c54"/>
   <stop offset="0.529412" style="stop-opacity:1; stop-color:#999177"/>
   <stop offset="1" style="stop-opacity:1; stop-color:#b3b0a6"/>
  </linearGradient><linearGradient gradientUnits="userSpaceOnUse" id="Eyes-Cat4id27" x1="16937.6" x2="16937.6" y1="14961.3" y2="11448.6">
   <stop offset="0" style="stop-opacity:1; stop-color:#805900"/>
   <stop offset="1" style="stop-opacity:1; stop-color:black"/>
  </linearGradient><linearGradient gradientUnits="objectBoundingBox" id="Eyes-Cat4id57" x1="100%" x2="0%" y1="50.0003%" y2="50.0003%">
   <stop offset="0" style="stop-opacity:1; stop-color:#805900"/>
   <stop offset="0.501961" style="stop-opacity:1; stop-color:#ffc029"/>
   <stop offset="1" style="stop-opacity:1; stop-color:#805900"/>
  </linearGradient><linearGradient gradientUnits="userSpaceOnUse" id="Eyes-Cat4id384" x1="16417.8" x2="16417.8" y1="11784.3" y2="14068.5">
   <stop offset="0" style="stop-opacity:1; stop-color:black"/>
   <stop offset="0.45" style="stop-opacity:1; stop-color:black"/>
   <stop offset="1" style="stop-opacity:1; stop-color:#664700"/>
  </linearGradient><linearGradient gradientUnits="userSpaceOnUse" id="BraceletSteel-Mediumid663new" x1="19208.4" x2="16994.4" y1="19855.6" y2="20661.5">
   <stop offset="0" style="stop-opacity:1; stop-color:#424352"/>
   <stop offset="0.109804" style="stop-opacity:1; stop-color:#848690"/>
   <stop offset="0.25098" style="stop-opacity:1; stop-color:#FFFFFC"/>
   <stop offset="0.470588" style="stop-opacity:1; stop-color:#8D8F99"/>
   <stop offset="0.780392" style="stop-opacity:1; stop-color:#16171A"/>
   <stop offset="1" style="stop-opacity:1; stop-color:#42444D"/>
  </linearGradient><linearGradient gradientUnits="userSpaceOnUse" id="WeaponBflyKnifeBack-Mediumid4" x1="7396.97" x2="7498.27" y1="20414.6" y2="20335.1">
   <stop offset="0" style="stop-opacity:1; stop-color:#949494"/>
   <stop offset="1" style="stop-opacity:1; stop-color:#e5f5f9"/>
  </linearGradient><linearGradient gradientUnits="userSpaceOnUse" id="WeaponBflyKnifeBack-Mediumid18" x1="8182.77" x2="11085" y1="21305.8" y2="22034">
   <stop offset="0" style="stop-opacity:1; stop-color:#993A3A"/>
   <stop offset="0.54902" style="stop-opacity:1; stop-color:#820000"/>
   <stop offset="1" style="stop-opacity:1; stop-color:#820000"/>
  </linearGradient><linearGradient gradientUnits="userSpaceOnUse" id="WeaponBflyKnife-Mediumid19" x1="10875" x2="13461.4" y1="23847.2" y2="23101">
   <stop offset="0" style="stop-opacity:1; stop-color:#6B6B6B"/>
   <stop offset="0.321569" style="stop-opacity:1; stop-color:#EBEBEB"/>
   <stop offset="0.419608" style="stop-opacity:1; stop-color:#B0B0B0"/>
   <stop offset="0.619608" style="stop-opacity:1; stop-color:white"/>
   <stop offset="1" style="stop-opacity:1; stop-color:#878787"/>
  </linearGradient><linearGradient gradientUnits="userSpaceOnUse" id="WeaponBflyKnife-Mediumid4" x1="7396.97" x2="7498.27" y1="20414.6" y2="20335.1">
   <stop offset="0" style="stop-opacity:1; stop-color:#949494"/>
   <stop offset="1" style="stop-opacity:1; stop-color:#e5f5f9"/>
  </linearGradient><linearGradient gradientUnits="userSpaceOnUse" id="AccessoryBannerDefenceid0" x1="5973.37" x2="5973.37" y1="5158.24" y2="6316.01">
   <stop offset="0" style="stop-opacity:1; stop-color:#1C1717"/>
   <stop offset="0.501961" style="stop-opacity:1; stop-color:#463A3B"/>
   <stop offset="1" style="stop-opacity:1; stop-color:#1A1616"/>
  </linearGradient></defs><g id="AccessoryBannerDefence">
  <metadata id="CorelCorpID_1Corel-Layer"/>
  <g id="_3081446889904">
   <g>
    <rect class="AccessoryBannerDefencefil18 AccessoryBannerDefencestr0" height="18428" rx="326" ry="1811" width="651" x="5648" y="5852"/>
    <path class="AccessoryBannerDefencefil19 AccessoryBannerDefencestr0" d="M782 7137l0 0c0,152 125,277 277,277l10129 0c152,0 277,-125 277,-277l0 0c0,-153 -125,-277 -277,-277l-10129 0c-152,0 -277,124 -277,277z" style="fill:#3b10f9"/>
    <polygon class="AccessoryBannerDefencefil20 AccessoryBannerDefencestr0" points="5973,5515 5405,4811 5973,2842 6542,4811 "/>
    <polygon class="AccessoryBannerDefencefil21 AccessoryBannerDefencestr0" points="5973,5157 6496,5920 5973,6314 5451,5920 "/>
    <polygon class="AccessoryBannerDefencefil22 AccessoryBannerDefencestr0" points="5973,6439 7705,5182 5973,5796 4242,5182 "/>
    <path class="AccessoryBannerDefencefil23 AccessoryBannerDefencestr0" d="M1458 6715c79,0 156,10 230,29l0 786c-74,18 -151,28 -230,28 -30,0 -60,-1 -90,-4 -446,78 -772,369 -779,1249 -145,-219 -231,-494 -231,-793 0,-337 109,-643 288,-873 -179,-231 -288,-537 -288,-874 0,-299 86,-574 231,-793 7,880 333,1171 779,1249 30,-3 60,-4 90,-4z" style="fill:#26bff1"/>
    <path class="AccessoryBannerDefencefil24 AccessoryBannerDefencestr0" d="M11368 6715c-88,0 -173,10 -256,29l0 786c83,18 168,28 256,28 34,0 67,-1 100,-4 494,78 856,369 865,1249 160,-219 256,-494 256,-793 0,-337 -121,-643 -319,-873 198,-231 319,-537 319,-874 0,-299 -96,-574 -256,-793 -9,880 -371,1171 -865,1249 -33,-3 -66,-4 -100,-4z" style="fill:#a8c16f"/>
    <path class="AccessoryBannerDefencefil25 AccessoryBannerDefencestr1" d="M5235 24039l1477 0c197,0 197,-546 0,-546l-1477 0c-197,0 -197,546 0,546z" style="fill:#b25926"/>
    <path class="AccessoryBannerDefencefil26 AccessoryBannerDefencestr1" d="M4857 24702l2232 0c298,0 33,-843 -264,-843l-1703 0c-298,0 -562,843 -265,843z" style="fill:#be4fc8"/>
   </g>
   <g>
   <animateTransform additive="sum" attributeName="transform" dur="5" repeatCount="indefinite" type="rotate" values="0;0.5;0;-0.5;0"/>
    <path class="AccessoryBannerDefencefil27 AccessoryBannerDefencestr0" d="M6302 9069c-1781,0 -2312,-446 -2419,-2491 -615,-92 -1230,-95 -1844,0 67,1344 -286,1792 -718,2075 325,3155 463,5720 0,7710 1087,771 1153,2209 879,3183 492,722 2551,1993 3773,2330 1223,-337 3281,-1608 3773,-2330 -240,-1256 -208,-2412 880,-3183 50,-2201 -574,-3479 0,-7710 -432,-283 -785,-731 -718,-2075 -946,-151 -1517,-131 -1844,0 225,2045 20,2491 -1762,2491z" style="fill:#ac09f2"/>
    <path class="AccessoryBannerDefencefil28" d="M6208 9069c-1782,0 -2264,-446 -2325,-2491 -615,0 -1230,0 -1844,0 67,1344 -286,1792 -718,2075 325,3155 397,5544 0,7710 1087,771 1120,1927 879,3183 492,722 2551,1993 3773,2330 1223,-337 3281,-1608 3773,-2330 -240,-1256 -208,-2412 880,-3183 -215,-2184 -325,-4555 0,-7710 -432,-283 -785,-731 -718,-2075 -615,-103 -1229,-122 -1844,0 176,2045 -73,2491 -1856,2491zm-235 9562c-209,443 -905,1545 -1175,1491 -999,-198 -1762,-992 -2018,-1501 220,-1067 -74,-2048 -1071,-2703 376,-1568 413,-4180 78,-6918 396,-240 906,-1000 845,-2140 685,-72 428,-99 821,0 113,2456 2194,2584 2849,2584 656,0 2457,-128 2191,-2584 564,-114 259,-141 822,0 -61,1140 449,1900 845,2140 -298,2679 -119,5064 77,6918 -996,655 -1290,1636 -1070,2703 -306,417 -1155,1050 -2019,1501 -246,129 -965,-1048 -1175,-1491z" style="fill:#8759ed"/>
    <path class="AccessoryBannerDefencefil29" d="M5973 16991c-1594,-1215 -2066,-1767 -2066,-4199 761,-44 1430,-508 2066,-1125l0 5324z" style="fill:#c63d96"/>
    <g>
     <path class="AccessoryBannerDefencefil17" d="M5973 16991c-1594,-1215 -2066,-1767 -2066,-4199 761,-44 1430,-508 2066,-1125 637,617 1306,1081 2066,1125 0,2432 -471,2984 -2066,4199zm-1367 -1784c266,498 705,894 1367,1407 663,-513 1101,-909 1367,-1407 268,-502 381,-1141 397,-2150 -324,-59 -632,-182 -927,-354 -290,-168 -567,-382 -837,-626 -269,244 -546,458 -836,626 -295,172 -603,295 -927,354 16,1009 128,1648 396,2150z" style="fill:#2bba42"/>
    </g>
    <path class="AccessoryBannerDefencefil28" d="M5973 11667c636,617 1306,1081 2066,1125 0,2432 -471,2984 -2066,4199l0 -5324z" style="fill:#1d6f28"/>
    <path class="AccessoryBannerDefencefil30 AccessoryBannerDefencestr3" d="M6548 18462c-4,347 252,838 714,669 463,-169 197,-682 288,-901 179,-431 603,-154 726,-22 325,350 -247,829 -353,402" style="fill:#242f1c"/>
    <path class="AccessoryBannerDefencefil30 AccessoryBannerDefencestr3" d="M5399 18462c4,347 -252,838 -715,669 -462,-169 -196,-682 -287,-901 -179,-431 -603,-154 -726,-22 -326,350 246,829 353,402" style="fill:#3feefd"/>
    <path class="AccessoryBannerDefencefil30 AccessoryBannerDefencestr3" d="M7522 11282c-206,450 -840,269 -792,-248 39,-430 581,-1063 1825,-1522 598,-221 682,-605 459,-958" style="fill:#392a81"/>
    <path class="AccessoryBannerDefencefil30 AccessoryBannerDefencestr3" d="M4425 11282c206,450 840,269 792,-248 -40,-430 -581,-1063 -1825,-1522 -598,-221 -682,-605 -459,-958" style="fill:#a63f17"/>
    <path class="AccessoryBannerDefencefil30 AccessoryBannerDefencestr3" d="M8315 16986c-474,116 -249,872 214,703 462,-170 233,-673 415,-1066 253,-547 482,-567 591,-927 241,-801 -161,-3716 -23,-4747 50,-372 339,-1238 -268,-1282 -274,-20 -565,376 -276,786" style="fill:#af275f"/>
    <path class="AccessoryBannerDefencefil30 AccessoryBannerDefencestr3" d="M3632 16986c474,116 248,872 -214,703 -462,-170 -233,-673 -416,-1066 -252,-547 -481,-567 -590,-927 -242,-801 161,-3716 23,-4747 -50,-372 -339,-1238 268,-1282 274,-20 564,376 276,786" style="fill:#cc3a8a"/>
    <path class="AccessoryBannerDefencefil17" d="M1434 16373c26,52 54,100 82,145 -27,-25 -56,-48 -85,-72l3 -73zm383 470c1720,1199 6263,-4221 8084,-9819 26,1003 345,1380 725,1629 -574,4231 50,5509 0,7710 -1088,771 -1120,1927 -880,3183 -492,722 -2550,1993 -3773,2330 -1222,-337 -3281,-1608 -3773,-2330 224,-797 221,-1904 -383,-2703z" style="fill:#a5ff80"/>
    <path class="AccessoryBannerDefencefil17" d="M1569 14676c972,-343 1889,-708 2029,-627 138,80 -1027,1109 -2194,1915 77,-407 130,-836 165,-1288z" style="fill:#1b8175"/>
    <path class="AccessoryBannerDefencefil17" d="M2338 8648c117,-180 3303,2299 4503,1387 1200,-913 1939,-1231 2047,-1231 108,0 -1647,2698 -2700,2542 -1054,-155 -3966,-2518 -3850,-2698z" style="fill:#e3bf07"/>
    <path class="AccessoryBannerDefencefil11 AccessoryBannerDefencestr0" d="M6302 9069c-1781,0 -2312,-446 -2419,-2491 -615,-92 -1230,-95 -1844,0 67,1344 -286,1792 -718,2075 325,3155 463,5720 0,7710 1087,771 1153,2209 879,3183 492,722 2551,1993 3773,2330 1223,-337 3281,-1608 3773,-2330 -240,-1256 -208,-2412 880,-3183 50,-2201 -574,-3479 0,-7710 -432,-283 -785,-731 -718,-2075 -946,-151 -1517,-131 -1844,0 225,2045 20,2491 -1762,2491z" style="fill:#84370f"/>
   </g>
  </g>
 </g><g id="RightFoot-Cat2">
  <path class="RightFoot-Cat2fil34" d="M17107 25230c-124,214 -404,285 -611,106 -71,70 -277,145 -526,65 -410,-131 -508,-461 -851,-710 -221,-159 -124,-477 -114,-668 364,340 783,-165 1076,-248 374,-102 737,158 534,413 199,95 520,237 673,411 169,192 121,631 -181,631z" style="fill:#5d18da"/>
  <path class="RightFoot-Cat2fil14" d="M17107 25230c-124,214 -404,285 -611,106 -71,70 -277,145 -526,65 -410,-131 -518,-492 -872,-726 -156,-103 -135,-387 -103,-573 18,-14 37,-27 56,-38 -60,533 1445,1528 1433,860 214,342 596,186 545,-150 127,134 271,-14 143,-274 182,62 215,288 209,441 -17,153 -106,289 -274,289z" style="fill:#0497be"/>
  <path class="RightFoot-Cat2fil22" d="M16655 24186c278,231 480,239 633,413 169,192 121,631 -181,631 -124,214 -404,285 -611,106 -71,70 -277,145 -526,65 -410,-131 -520,-489 -872,-726 -156,-105 -138,-331 -109,-524" style="fill:#4a734c"/>
  <path class="RightFoot-Cat2fil32" d="M16703 24128c-31,-26 -78,-22 -105,10 -27,31 -22,79 9,105 144,120 266,182 373,236 100,50 184,92 252,169 81,92 97,256 55,370 -18,49 -49,94 -96,118 7,-269 -115,-534 -402,-526 186,95 268,253 247,592 -49,79 -127,137 -220,155 -79,15 -160,-2 -228,-45 38,-218 10,-484 -289,-538 139,98 163,330 142,511 -32,29 -98,60 -189,72 -75,9 -164,4 -260,-27 -221,-71 -352,-219 -489,-375 -104,-118 -211,-239 -363,-342 -57,-38 -82,-102 -91,-176 -11,-85 -1,-183 13,-274 15,-98 -130,-119 -144,-22 -16,102 -31,212 -18,314 14,114 57,216 157,282 136,92 236,206 333,317 151,171 295,335 557,419 119,38 230,44 323,32 93,-11 171,-41 226,-75 103,70 225,98 348,74 125,-24 233,-98 305,-202 136,-15 232,-107 279,-232 61,-166 34,-387 -84,-521 -86,-98 -183,-147 -296,-204 -100,-50 -214,-108 -345,-217z" style="fill:#0b0c1b"/>
 </g><g id="LeftFoot-Cat2">
  <path class="LeftFoot-Cat2fil43" d="M10257 25230c124,214 404,285 611,106 71,70 277,145 526,65 410,-131 508,-461 851,-710 221,-159 124,-477 114,-668 -364,340 -783,-165 -1076,-248 -374,-102 -737,158 -535,413 -198,95 -519,237 -672,411 -169,192 -121,631 181,631z" style="fill:#91d5b4"/>
  <path class="LeftFoot-Cat2fil14" d="M10257 25230c124,214 404,285 611,106 71,70 277,145 526,65 410,-131 518,-492 871,-726 157,-103 136,-387 103,-573 -17,-14 -36,-27 -55,-38 60,533 -1445,1528 -1434,860 -213,342 -595,186 -544,-150 -127,134 -271,-14 -143,-274 -182,62 -215,288 -209,441 17,153 106,289 274,289z" style="fill:#434613"/>
  <path class="LeftFoot-Cat2fil22" d="M10708 24186c-277,231 -480,239 -632,413 -169,192 -121,631 181,631 124,214 404,285 611,106 71,70 277,145 526,65 410,-131 520,-489 871,-726 156,-105 139,-331 110,-524" style="fill:#b65bad"/>
  <path class="LeftFoot-Cat2fil32" d="M10660 24128c32,-26 79,-22 106,10 26,31 22,79 -10,105 -143,120 -266,182 -373,236 -99,50 -183,92 -251,169 -81,92 -97,256 -55,370 18,49 49,94 96,118 -7,-269 115,-534 402,-526 -186,95 -268,253 -247,592 49,79 127,137 220,155 79,15 160,-2 228,-45 -39,-218 -11,-484 289,-538 -139,98 -163,330 -142,511 31,29 98,60 189,72 75,9 163,4 259,-27 222,-71 353,-219 490,-375 104,-118 210,-239 363,-342 56,-38 82,-102 91,-176 11,-85 0,-183 -14,-274 -14,-98 131,-119 145,-22 16,102 31,212 18,314 -14,114 -58,216 -157,282 -136,92 -236,206 -333,317 -151,171 -296,335 -557,419 -119,38 -230,44 -323,32 -93,-11 -171,-41 -226,-75 -103,70 -226,98 -349,74 -124,-24 -233,-98 -304,-202 -136,-15 -232,-107 -279,-232 -61,-166 -34,-387 84,-521 86,-98 183,-147 296,-204 100,-50 214,-108 344,-217z" style="fill:#9ab41d"/>
 </g><g id="RightLeg-Cat0">
  <path class="RightLeg-Cat0fil36" d="M13682 23259c428,0 1377,183 1321,776 215,222 637,350 896,149 312,-243 712,-232 720,-12 370,-265 678,-701 680,-1146 2,-860 -666,-1598 -969,-1838 -621,860 -1470,1269 -2648,1328l0 743z" style="fill:#b90b87"/>
  <path class="RightLeg-Cat0fil26" d="M14726 23532c179,119 298,292 277,513 215,222 637,350 896,149 312,-243 712,-232 720,-12 370,-265 678,-711 680,-1156 1,-384 -132,-743 -305,-1045 295,935 -992,1876 -2268,1551z" style="fill:#e82ef7"/>
  <path class="RightLeg-Cat0fil32" d="M14990 24254c62,5 73,-66 79,-154 8,-118 -4,-261 -94,-417 0,-1 -1,-3 -2,-4 -100,-171 -247,-296 -460,-378 -208,-80 -478,-119 -831,-119l0 150c335,0 588,36 777,108 180,69 302,173 385,314 0,2 1,3 2,4 67,116 86,244 75,332 -9,68 -10,89 -11,105 -4,48 44,56 80,59zm1296 -3006c175,140 477,451 691,859 144,272 248,587 247,919 -1,245 -87,464 -218,653 -154,223 -454,481 -660,663 306,-60 713,-477 783,-578 147,-211 244,-458 244,-738 2,-360 -110,-698 -263,-989 -227,-430 -547,-760 -734,-907l-46 58 -44 60 0 0z" style="fill:#d00be5"/>
  <path class="RightLeg-Cat0fil14" d="M17192 23490c67,-148 106,-305 107,-464 2,-775 -541,-1451 -869,-1752l-157 727c26,48 52,95 79,143 387,-413 947,879 840,1346z" style="fill:#4573da"/>
 </g><g id="LeftLeg-Cat0">
  <path class="LeftLeg-Cat0fil44" d="M13682 23259c-428,0 -1377,183 -1321,776 -215,222 -637,350 -896,149 -312,-243 -712,-232 -720,-12 -370,-265 -679,-701 -680,-1146 -2,-860 666,-1598 969,-1838 621,860 1470,1269 2648,1328l0 743z" style="fill:#d2df70"/>
  <path class="LeftLeg-Cat0fil26" d="M12496 23650c-96,103 -150,240 -135,395 -215,222 -637,350 -896,149 -312,-243 -712,-232 -720,-12 -500,-358 -806,-1009 -607,-1618 386,1194 2040,1329 2358,1086z" style="fill:#6c8027"/>
  <path class="LeftLeg-Cat0fil32" d="M12374 24254c-62,5 -74,-66 -80,-154 -7,-118 4,-261 94,-417 1,-1 2,-3 3,-4 100,-171 247,-296 460,-378 208,-80 478,-119 831,-119l0 150c-335,0 -588,36 -777,108 -180,69 -303,173 -385,314 -1,2 -1,3 -2,4 -67,116 -86,244 -75,332 9,68 10,89 11,105 4,48 -44,56 -80,59zm-1296 -3006c-176,140 -477,451 -692,859 -143,272 -247,587 -246,919 1,245 87,464 218,653 154,223 454,481 660,663 -306,-60 -713,-477 -784,-578 -146,-211 -243,-458 -244,-738 -1,-360 110,-698 264,-989 226,-430 547,-760 734,-907l46 58 44 60 0 0z" style="fill:#979a1f"/>
  <path class="LeftLeg-Cat0fil14" d="M10172 23490c-67,-148 -106,-305 -107,-464 -2,-775 540,-1451 869,-1752l157 727c-26,48 -53,95 -79,143 -388,-413 -947,879 -840,1346z" style="fill:#63c2f4"/>
 </g><g id="Body-Cat2">
 <animateTransform additive="sum" attributeName="transform" dur="10" repeatCount="indefinite" type="translate" values="0;0 200;0;0 200;0;0 200;0;0 200;0"/>
  <path class="Body-Cat2fil62" d="M13682 23135c-1548,0 -2752,-291 -2993,-1956 -147,-1014 391,-2287 991,-3420 634,80 1289,123 2002,142 713,-19 1367,-62 2002,-142 600,1133 1137,2406 991,3420 -242,1665 -1445,1956 -2993,1956z" style="fill:#67f52e"/>
  <path class="Body-Cat2fil14" d="M12621 23067c-1016,-156 -1749,-629 -1932,-1888 -75,-519 29,-1106 229,-1707 -223,2001 402,3257 1703,3595z" style="fill:#27d71c"/>
  <path class="Body-Cat2fil32" d="M11012 22144c-250,-321 -348,-641 -397,-954 -59,-377 -24,-998 184,-1320 -78,421 -93,905 -36,1298 50,341 104,572 249,976z" style="fill:#5e8ecf"/>
  <path class="Body-Cat2fil64" d="M13682 18774c-280,-805 -1716,-780 -2057,-36 -868,1890 -798,4237 2057,4237 2855,0 2925,-2347 2057,-4237 -341,-744 -1777,-769 -2057,36z" style="fill:#f62f39"/>
  <path class="Body-Cat2fil14" d="M14743 23067c1016,-156 1749,-629 1932,-1888 75,-519 -29,-1106 -229,-1707 223,2001 -402,3257 -1703,3595z" style="fill:#3a522e"/>
  <path class="Body-Cat2fil32" d="M16352 22144c250,-321 347,-641 397,-954 59,-377 24,-998 -184,-1320 78,421 93,905 36,1298 -50,341 -104,572 -249,976z" style="fill:#c5983a"/>
 </g><g id="WeaponBflyKnifeBack-Medium">
 <animateTransform additive="sum" attributeName="transform" dur="10" repeatCount="indefinite" type="translate" values="0;0 200;0;0 200;0;0 200;0;0 200;0"/>
  <metadata id="CorelCorpID_12Corel-Layer"/>
  <g id="_2367108374560">
   <polygon class="WeaponBflyKnifeBack-Mediumfil23 WeaponBflyKnifeBack-Mediumstr0" points="7757,19914 7140,20628 7039,20538 7640,19818 "/>
   <path class="WeaponBflyKnifeBack-Mediumfil24 WeaponBflyKnifeBack-Mediumstr1" d="M10019 22352c-840,-780 -1681,-1559 -2521,-2338 -51,-49 220,-331 265,-285l2440 2424c52,52 58,136 7,192 -50,54 -137,57 -191,7zm-112 130c-840,-779 -1681,-1559 -2521,-2338 -52,-47 -313,244 -264,285l2601 2252c55,48 140,48 191,-8 51,-54 47,-140 -7,-191z" style="fill:#859c67"/>
   <circle class="WeaponBflyKnifeBack-Mediumfil23" r="48" transform="matrix(2.80864 0.290914 -0.290914 2.80864 7664.33 19898.6)"/>
   <path class="WeaponBflyKnifeBack-Mediumfil25" d="M7670 19842c31,3 54,31 51,62 -3,32 -31,54 -63,51 -31,-3 -53,-31 -50,-62 3,-31 31,-54 62,-51z" style="fill:#46bfea"/>
  </g>
 </g><g id="RightPaw-Cat0">
 <animateTransform additive="sum" attributeName="transform" dur="10" repeatCount="indefinite" type="translate" values="0;0 200;0;0 200;0;0 200;0;0 200;0"/>
  <g id="_2842391375968">
   <path class="RightPaw-Cat0fil26" d="M17501 20836c-31,672 506,1059 828,766 253,397 884,103 809,-293 203,-535 -266,-1036 -634,-1325 -198,-64 -364,-248 -462,44 -114,341 -157,279 -402,398 -164,79 -11,352 -139,410z" style="fill:#2bc551"/>
   <path class="RightPaw-Cat0fil14" d="M17501 20836c-31,672 506,1059 828,766 341,429 911,24 753,-293 -65,297 -520,408 -657,-118 -113,412 -522,237 -614,26 -96,-216 -45,-462 -254,-619 -2,93 16,193 -45,232l0 0 0 1c-2,0 -3,1 -5,2l0 0 0 0 0 0 0 0 -1 1 0 0 0 0c-2,1 -3,2 -5,2z" style="fill:#b09e06"/>
   <path class="RightPaw-Cat0fil32" d="M17437 20673c-79,-58 -168,63 -89,121 29,21 57,43 84,65 -4,302 99,551 246,712 55,61 118,109 183,144 146,76 312,82 454,-8 209,238 583,191 784,-34 86,-97 135,-221 116,-357 83,-234 46,-463 -52,-673 -133,-282 -403,-498 -588,-704 -34,-37 -181,-286 -215,-345 -58,-79 -178,10 -120,89 36,48 75,120 112,186 6,12 81,153 124,188 201,164 431,392 551,649 38,81 65,165 77,251 -53,-69 -156,-152 -275,-139 81,67 126,143 171,252 66,158 113,363 -12,503 -142,159 -412,205 -563,33 116,-164 118,-464 -80,-548 55,102 48,374 -55,477 -86,86 -222,119 -360,47 -49,-26 -97,-63 -141,-112 -129,-140 -218,-365 -207,-639 2,-22 -6,-44 -23,-60 -37,-34 -82,-68 -122,-98z" style="fill:#8ce09b"/>
  </g>
 </g><g id="LeftPaw-Cat0">
 <animateTransform additive="sum" attributeName="transform" dur="10" repeatCount="indefinite" type="translate" values="0;0 200;0;0 200;0;0 200;0;0 200;0"/>
  <path class="LeftPaw-Cat0fil26" d="M9863 20836c31,672 -506,1059 -828,766 -253,397 -884,103 -809,-293 -203,-535 266,-1036 634,-1325 198,-64 364,-248 462,44 114,341 157,279 402,398 164,79 11,352 139,410z" style="fill:#95c66c"/>
  <path class="LeftPaw-Cat0fil14" d="M9863 20836c31,672 -506,1059 -828,766 -341,429 -911,24 -754,-293 66,297 521,408 658,-118 113,412 522,237 614,26 95,-216 45,-462 254,-619 2,93 -16,193 45,232l0 0 0 1c2,0 3,1 5,2l0 0 0 0 0 0 0 0 0 1 1 0 0 0c1,1 3,2 5,2z" style="fill:#1f9bf8"/>
  <path class="LeftPaw-Cat0fil32" d="M9927 20673c79,-58 168,63 88,121 -28,21 -56,43 -83,65 4,302 -100,551 -246,712 -56,61 -118,109 -183,144 -146,76 -312,82 -454,-8 -209,238 -583,191 -784,-34 -86,-97 -135,-221 -116,-357 -83,-234 -46,-463 52,-673 133,-282 403,-498 588,-704 34,-37 180,-286 214,-345 59,-79 179,10 121,89 -36,48 -76,120 -112,186 -6,12 -81,153 -124,188 -201,164 -431,392 -551,649 -38,81 -66,165 -77,251 53,-69 156,-152 275,-139 -81,67 -126,143 -172,252 -65,158 -113,363 13,503 142,159 412,205 562,33 -115,-164 -117,-464 81,-548 -55,102 -48,374 55,477 86,86 222,119 359,47 50,-26 98,-63 142,-112 128,-140 218,-365 207,-639 -2,-22 6,-44 23,-60 37,-34 81,-68 122,-98z" style="fill:#e2a856"/>
 </g><g id="NecklaceScream-Medium">
     <animateTransform additive="sum" attributeName="transform" dur="10" repeatCount="indefinite" type="translate" values="0;0 200;0;0 200;0;0 200;0;0 200;0"/>
     <metadata id="CorelCorpID_0Corel-Layer"/>
  <g id="_1732992840544">
   <g>
    <path class="NecklaceScream-Mediumfil0 NecklaceScream-Mediumstr0" d="M11660.71 17487.43c-282.22,-114.65 -1217.08,194.02 -1561.04,590.9 -238.84,275.59 -760.69,994.69 -1109.99,1528 -153.73,234.7 -401.93,243.81 -322.12,542.53 628.78,-427.65 845.86,-87.4 867.66,257.82 26.46,418.93 184.44,698.61 378.47,680.99 194.03,-17.62 278.76,-633.18 380.18,-470.02 101.42,163.16 72.17,841.3 191.64,814.29 238.4,-53.91 394.77,-626.36 496.09,-793.75 101.42,-167.56 679.11,-3150.76 679.11,-3150.76z" style="fill:#7135d1"/>
    <path class="NecklaceScream-Mediumfil1" d="M11660.71 17487.43c-282.22,-114.65 -1217.08,194.02 -1561.04,590.9 -238.84,275.59 -760.69,994.69 -1109.99,1528 -153.73,234.7 -401.93,243.81 -322.12,542.53 628.78,-427.65 618.37,-543.53 900.34,-392.34 154.35,-247.22 -253.93,-441.58 -59.9,-459.2 194.03,-17.62 -40.58,-194.18 230.24,-536.17 270.82,-341.99 285.29,88.3 336.3,-23.02 447.73,-977.17 1497.19,-791.22 1586.17,-1250.7z" style="fill:#0d9f51"/>
    <path class="NecklaceScream-Mediumfil2" d="M11660.71 17487.43c-282.22,-114.65 -689.14,1829.93 -1225.9,1799.17 -213.73,-12.24 322.32,395.13 -16.15,391.41 -238.1,-2.61 -296.52,-397.08 -628.62,-420.24 -332.16,-23.16 246.51,126.06 259.55,859.74 8.44,475.31 -447.98,512.81 -514.37,289.17 26.46,418.93 184.44,698.61 378.47,680.99 194.03,-17.62 278.76,-633.18 380.18,-470.02 101.42,163.16 72.17,841.3 191.64,814.29 238.4,-53.91 394.77,-626.36 496.09,-793.75 101.42,-167.56 679.11,-3150.76 679.11,-3150.76z" style="fill:#27681f"/>
    <path class="NecklaceScream-Mediumfil3" d="M9823.36 20483.4c-235.47,-41.3 -116.71,-467.25 -373.61,-623.73 -198.39,-120.83 -406.8,-40.12 -523.94,-15.43 261.28,-250.25 477.87,-212.43 612.64,-113.69 194.02,142.16 138.25,617.39 284.91,752.85z" style="fill:#1cd0d9"/>
   </g>
   <g>
    <path class="NecklaceScream-Mediumfil0" d="M15703.17 17487.43c282.22,-114.65 1217.08,194.02 1561.04,590.9 238.84,275.59 760.69,994.69 1109.99,1528 153.73,234.7 401.93,243.81 322.12,542.53 -628.78,-427.65 -845.86,-87.4 -867.66,257.82 -26.46,418.93 -184.44,698.61 -378.47,680.99 -194.03,-17.62 -278.76,-633.18 -380.18,-470.02 -101.42,163.16 -72.17,841.3 -191.64,814.29 -238.4,-53.91 -394.77,-626.36 -496.09,-793.75 -101.42,-167.56 -679.11,-3150.76 -679.11,-3150.76z" style="fill:#44c0f4"/>
    <path class="NecklaceScream-Mediumfil4" d="M15761.42 17471.21c335.12,-60.68 1179.67,234.28 1502.79,607.12 238.84,275.59 760.69,994.69 1109.99,1528 12.09,18.46 24.77,35.52 37.83,51.44 -100.4,-45.3 -198.17,-92.12 -249.5,-170.5 -166.83,-254.71 -384.42,-513.84 -592.21,-745.05 -73.54,-81.82 -141.4,142.22 -156.97,43.11 -57.37,-365.07 -326.32,-562.15 -410.68,-659.5 -322.11,-371.67 -933.18,-707.68 -1241.25,-654.62z" style="fill:#bc8b7a"/>
    <path class="NecklaceScream-Mediumfil5 NecklaceScream-Mediumstr1" d="M15703.17 17487.43c282.22,-114.65 1217.08,194.02 1561.04,590.9 238.84,275.59 760.69,994.69 1109.99,1528 153.73,234.7 401.93,243.81 322.12,542.53 -628.78,-427.65 -845.86,-87.4 -867.66,257.82 -26.46,418.93 -184.44,698.61 -378.47,680.99 -194.03,-17.62 -278.76,-633.18 -380.18,-470.02 -101.42,163.16 -72.17,841.3 -191.64,814.29 -238.4,-53.91 -394.77,-626.36 -496.09,-793.75 -101.42,-167.56 -679.11,-3150.76 -679.11,-3150.76z" style="fill:#f5e438"/>
    <path class="NecklaceScream-Mediumfil2" d="M15703.17 17487.43c282.22,-114.65 689.14,1829.93 1225.9,1799.17 213.73,-12.24 -322.32,395.13 16.15,391.41 238.1,-2.61 296.52,-397.08 628.62,-420.24 332.16,-23.16 -246.51,126.06 -259.55,859.74 -8.44,475.31 447.98,512.81 514.37,289.17 -26.46,418.93 -184.44,698.61 -378.47,680.99 -194.03,-17.62 -278.76,-633.18 -380.18,-470.02 -101.42,163.16 -72.17,841.3 -191.64,814.29 -238.4,-53.91 -394.77,-626.36 -496.09,-793.75 -101.42,-167.56 -679.11,-3150.76 -679.11,-3150.76z" style="fill:#04e473"/>
    <path class="NecklaceScream-Mediumfil3" d="M17540.52 20483.4c235.47,-41.3 116.71,-467.25 373.61,-623.73 198.39,-120.83 406.8,-40.12 523.94,-15.43 -261.28,-250.25 -477.87,-212.43 -612.64,-113.69 -194.02,142.16 -138.25,617.39 -284.91,752.85z" style="fill:#27227e"/>
   </g>
   <path class="NecklaceScream-Mediumfil6" d="M16095.65 17236.07c481.61,348.66 486.66,1547.32 352.78,1834.45 -133.88,287.13 501.9,1182.52 243.79,1554.23 -258.11,371.71 -1879.18,822.62 -3010.28,776.31 -1131.1,-46.31 -2752.17,-404.6 -3010.28,-776.31 -258.11,-371.71 377.67,-1267.1 243.79,-1554.23 -133.88,-287.13 -128.83,-1485.79 352.78,-1834.45l2413.71 485.07 2413.71 -485.07z" style="fill:#4a5d7f"/>
   <path class="NecklaceScream-Mediumfil2" d="M15407.73 20490.45c285.39,54.72 339.07,191.88 502.19,158.3 170.6,-35.12 446.49,-245.05 556.13,-371.04 65.96,-75.79 133.36,-348.04 34.24,-786.37 127.69,381.74 368.15,879.64 191.93,1133.41 -258.1,371.71 -1879.18,822.62 -3010.28,776.31 -1131.1,-46.31 -2752.17,-404.6 -3010.28,-776.31 -258.11,-371.71 377.67,-1267.11 243.79,-1554.23 -38.91,-83.47 -85.95,-307.95 -93.08,-502.19 53.53,372.62 195.58,192.98 360.76,647.55 143.31,394.36 -153.53,924.29 539.29,908.56 -233.79,316.19 -676.79,194.09 -526.46,309.93 934.18,719.92 2382.58,830.38 3471.68,807.18 1471.34,-487.42 460.12,-804.77 740.09,-751.1z" style="fill:#17e904"/>
   <path class="NecklaceScream-Mediumfil7" d="M10733.18 20581.98c23.62,33.97 15.22,80.67 -18.75,104.29 -33.97,23.62 -80.67,15.22 -104.29,-18.75 -167.31,-240.94 -22.85,-634.66 107.87,-990.89 91.22,-248.6 174.97,-476.88 129.47,-574.47 -50.73,-108.84 -112.85,-396.25 -6.79,-665.19 -11.73,339.47 70.74,447.48 142.73,601.91 71.69,153.79 -22.35,410.14 -124.79,689.31 -117.97,321.49 -248.34,676.81 -125.45,853.79z" style="fill:#8e8727"/>
   <path class="NecklaceScream-Mediumfil7" d="M16630.7 20581.98c-23.62,33.97 -15.22,80.67 18.75,104.29 33.97,23.62 80.67,15.22 104.29,-18.75 167.31,-240.94 22.85,-634.66 -107.87,-990.89 -91.22,-248.6 -174.97,-476.88 -129.47,-574.47 50.73,-108.84 112.85,-396.25 6.79,-665.19 11.73,339.47 -70.74,447.48 -142.73,601.91 -71.69,153.79 22.35,410.14 124.79,689.31 117.97,321.49 248.34,676.81 125.45,853.79z" style="fill:#6bccf6"/>
   <path class="NecklaceScream-Mediumfil8" d="M10687.48 21166.76c-9.34,376.17 -1348.05,1274.92 -1023.3,2632.1 128.3,-227.87 450.93,-769.46 711.51,-866.28 58.43,207.25 340.19,890.14 528.73,926.9 62.86,-148.45 207.51,-930.66 561.74,-1222.34 -11.57,593.3 405.38,1079.95 453.57,1369.84 169.36,-141.2 346.88,-416.2 474.99,-769.27 182.42,171.57 294.64,1113.82 308.86,1177.42 295.3,-184.59 526.82,-675.86 679.66,-753.5 241.92,180.8 353.71,1048.34 419.49,1170.21 237.03,-234.82 224.35,-1063.31 703.32,-1315.19 80.99,126.93 155.36,518.88 247.06,626.41 252.07,-120.12 486.26,-649.96 527.41,-847.6 262.43,-36.62 242.99,764.77 246.41,850.67 556.03,-463.34 402.67,-981.08 632.2,-1304.13 181.69,275.32 320.93,643.08 395.74,736.77 109.41,-85.31 277.53,-321.33 278.18,-583.47 373.12,138.08 431.19,989.61 445.64,1170.67 1080.11,-1408.57 -426.76,-2652.01 -595.23,-3055.48 -670.47,64.75 -2150.39,376.54 -3001.52,366.67 -851.13,-9.87 -2554.47,-566.11 -2994.46,-310.4z" style="fill:#d0ab99"/>
   <path class="NecklaceScream-Mediumfil9" d="M10135.06 21993.11c-328.12,457.6 -648.6,1063.03 -470.88,1805.75 128.3,-227.87 450.93,-769.46 711.51,-866.28 -260.58,96.82 -364.65,249.89 -552.76,297.42 -90.21,-512.13 92.06,-914.84 312.13,-1236.89zm1331.53 707.13c17.36,564.68 406.67,1027.2 453.14,1306.74 169.27,-141.12 346.68,-415.9 474.78,-768.69 -51.32,-145.46 -102.88,-258.66 -149.31,-302.33 21.82,216.37 -54.68,502.07 -250.5,709.42 -127.18,-177.38 -510.79,-398.3 -528.11,-945.14zm1916.65 961.39c241.92,180.8 353.71,1048.34 419.49,1170.21 237.03,-234.82 224.35,-1063.31 703.32,-1315.19 80.99,126.93 155.36,518.88 247.06,626.41 252.07,-120.12 486.26,-649.96 527.41,-847.6 58.64,-8.18 97,16.07 121.31,59.53 -31.63,-43.04 -71.35,-66.5 -121.31,-59.53 -41.15,197.64 -244.47,449.67 -496.54,569.79 -91.7,-107.53 -258.68,-371.6 -339.67,-498.53 -478.97,251.88 -419.01,694.29 -656.04,929.11 -65.78,-121.87 -163.11,-453.4 -405.03,-634.2zm2134.72 186.77c9.47,143.56 7.74,266.86 8.97,297.73 540.21,-450.16 410.85,-951.65 613.55,-1276.07l-0.02 -0.04c-326.21,-11.17 -204.12,530.45 -622.5,978.38z" style="fill:#3c2324"/>
   <path class="NecklaceScream-Mediumfil5 NecklaceScream-Mediumstr0" d="M10687.48 21166.76c-9.34,376.17 -1348.05,1274.92 -1023.3,2632.1 128.3,-227.87 450.93,-769.46 711.51,-866.28 58.43,207.25 340.19,890.14 528.73,926.9 62.86,-148.45 207.51,-930.66 561.74,-1222.34 -11.57,593.3 405.38,1079.95 453.57,1369.84 169.36,-141.2 346.88,-416.2 474.99,-769.27 182.42,171.57 294.64,1113.82 308.86,1177.42 295.3,-184.59 526.82,-675.86 679.66,-753.5 241.92,180.8 353.71,1048.34 419.49,1170.21 237.03,-234.82 224.35,-1063.31 703.32,-1315.19 80.99,126.93 155.36,518.88 247.06,626.41 252.07,-120.12 486.26,-649.96 527.41,-847.6 262.43,-36.62 242.99,764.77 246.41,850.67 556.03,-463.34 402.67,-981.08 632.2,-1304.13 181.69,275.32 320.93,643.08 395.74,736.77 109.41,-85.31 277.53,-321.33 278.18,-583.47 373.12,138.08 431.19,989.61 445.64,1170.67 1080.11,-1408.57 -426.76,-2652.01 -595.23,-3055.48 -670.47,64.75 -2150.39,376.54 -3001.52,366.67 -851.13,-9.87 -2554.47,-566.11 -2994.46,-310.4z" style="fill:#ad1c8d"/>
   <path class="NecklaceScream-Mediumfil2" d="M10687.48 21166.76c-9.34,376.17 -1348.05,1274.92 -1023.3,2632.1 128.3,-227.87 450.93,-769.46 711.51,-866.28 58.43,207.25 340.19,890.14 528.73,926.9 -246.24,-274.59 -434.85,-1817.09 8.65,-2008.85 189.28,-81.83 608.01,-55.34 1225.14,-22.99 -14.94,212.83 429.66,719 750.32,836.73 121.24,44.52 -153.4,-515.1 -113.41,-806.31 681.22,25.16 1355.66,13.34 1670.37,-178.81 21.62,-13.2 44.17,-25.72 67.55,-37.57 380.89,33.45 -24.82,837.63 117.34,819.88 283.08,-35.35 716.23,-660.8 746.9,-985.2 158.62,2.04 318.47,17.95 470.07,46.55 407.16,279.7 149.75,886.88 313.19,828.41 157.1,-56.2 193.07,-390.8 188.43,-668.73 235.65,116.46 390.81,278.51 388.06,476.63 -8.82,635 32.98,992.79 -182.16,1419.55 109.41,-85.31 277.53,-321.33 278.18,-583.47 373.12,138.08 431.19,989.61 445.64,1170.67 1080.11,-1408.57 -426.76,-2652.01 -595.23,-3055.48 -925.79,89.38 -5992.92,54.49 -5995.98,56.27z" style="fill:#cb9351"/>
   <path class="NecklaceScream-Mediumfil10" d="M13681.94 21727.37c-1049.04,0 -1992.55,-285.14 -2994.46,-560.61 -107.36,-187.33 -180.2,-398.34 -87.67,-585.67 1027.38,286.25 2054.58,584.28 3082.13,584.28 1027.55,0 2054.75,-298.03 3082.13,-584.28 92.53,187.33 19.69,398.34 -87.67,585.67 -1001.91,275.47 -1945.42,560.61 -2994.46,560.61z" style="fill:#d3ac7d"/>
   <path class="NecklaceScream-Mediumfil11" d="M11689.5 20875.42c664.09,165.39 1328.2,289.95 1992.44,289.95 1027.55,0 2054.75,-298.03 3082.13,-584.28 22.11,44.77 64.48,336.83 -31.94,478.46 26.41,-212.76 -89.39,-257.01 -144.53,-240.7 -928.96,274.84 -1807.17,461.11 -2736.32,446.17 -720.7,-11.58 -1441.24,-174.77 -2161.78,-389.6z" style="fill:#a680cc"/>
   <path class="NecklaceScream-Mediumfil5 NecklaceScream-Mediumstr0" d="M13681.94 21727.37c-1049.04,0 -1992.55,-285.14 -2994.46,-560.61 -107.36,-187.33 -180.2,-398.34 -87.67,-585.67 1027.38,286.25 2054.58,584.28 3082.13,584.28 1027.55,0 2054.75,-298.03 3082.13,-584.28 92.53,187.33 19.69,398.34 -87.67,585.67 -1001.91,275.47 -1945.42,560.61 -2994.46,560.61z" style="fill:#cfc9d1"/>
   <path class="NecklaceScream-Mediumfil12" d="M13483.19 21723.98c-970.44,-32.82 -1857.47,-299.26 -2795.71,-557.22 -107.36,-187.33 -180.2,-398.34 -87.67,-585.67 513.87,143.17 1027.69,289.29 1541.53,399.59 -1142.58,-58.64 176.98,601.01 1341.85,743.3zm2411.83 -904.88c289.68,-75.64 579.36,-157.3 869.05,-238.01 92.53,187.33 19.69,398.34 -87.67,585.67 -188.09,51.71 -1352.36,345.42 -1537.42,395.87 630.23,-211.79 1301.22,-815.87 756.04,-743.53z" style="fill:#0b8767"/>
   <path class="NecklaceScream-Mediumfil13" d="M13173.17 22391.95c517.07,97.73 770.67,739.87 1495.52,508.9 338.69,-107.92 1056.06,-589.22 1328.41,-491.06 -343.14,68.87 -750.53,540.67 -1290.34,687.96 -777.7,212.2 -1189.96,-490.24 -1533.59,-705.8z" style="fill:#55dda5"/>
  </g>
 </g><g id="BraceletSteel-Medium">
 <animateTransform additive="sum" attributeName="transform" dur="10" repeatCount="indefinite" type="translate" values="0;0 200;0;0 200;0;0 200;0;0 200;0"/>
  <metadata id="CorelCorpID_19Corel-Layer"/>
  <path class="BraceletSteel-Mediumfil57new BraceletSteel-Mediumstr4new" d="M8743 19983c-151,-67 -236,-210 -167,-360 70,-150 216,-158 370,-99 394,150 1163,722 1389,1066 91,139 106,280 -23,383 -130,103 -302,47 -400,-86 -244,-332 -771,-729 -1169,-904z" style="fill:#393809"/>
  <path class="BraceletSteel-Mediumfil58new BraceletSteel-Mediumstr4new" d="M18621 19983c151,-67 236,-210 167,-360 -70,-150 -216,-158 -371,-99 -393,150 -1162,722 -1389,1066 -90,139 -105,280 24,383 130,103 302,47 400,-86 244,-332 771,-729 1169,-904z" style="fill:#5a27e7"/>
 </g><g id="Head-Cat5">
 <animateTransform additive="sum" attributeName="transform" dur="10" repeatCount="indefinite" type="translate" values="0;0 200;0;0 200;0;0 200;0;0 200;0"/>
  <path class="Head-Cat5fil145" d="M13682 7485c-2521,3 -5132,2484 -5949,5018 -118,367 -230,774 -326,1125 -129,478 -261,1233 -57,1376 171,119 359,-38 620,-29 -308,228 -793,634 -552,962 191,261 484,-94 850,6 -260,75 -554,406 -478,616 56,156 245,231 536,249 1052,64 2116,663 2883,887 772,225 1635,292 2473,292 838,0 1701,-67 2473,-292 767,-224 1831,-823 2883,-887 291,-18 480,-93 536,-249 76,-210 -218,-541 -479,-616 367,-100 660,255 851,-6 241,-328 -244,-734 -552,-962 261,-9 449,148 619,29 205,-143 73,-898 -57,-1376 -95,-351 -207,-758 -325,-1125 -817,-2534 -3428,-5015 -5949,-5018z" style="fill:#dbb92e"/>
  <path class="Head-Cat5fil32" d="M8220 11366c-215,492 -436,1198 -587,1726 -55,193 -106,381 -153,555 -73,270 -147,630 -159,912 -8,190 10,340 72,384 74,51 166,28 274,1 90,-23 189,-48 305,-43 42,1 74,36 72,77 0,24 -12,44 -30,57l0 0c-150,111 -342,265 -466,429 -111,146 -165,299 -70,429 74,100 186,65 321,22 142,-44 303,-95 489,-44 40,11 64,52 53,92 -8,28 -31,48 -57,54 -7,2 -14,4 -21,6 -110,40 -226,129 -307,231 -75,95 -120,197 -98,272 1,3 2,6 2,8 21,57 69,101 141,133 82,37 193,58 329,66 722,44 1443,333 2074,586 169,68 932,401 1536,530 -578,0 -1433,-328 -1591,-391 -621,-249 -1330,-533 -2027,-575 -154,-10 -283,-35 -382,-79 -110,-49 -185,-121 -220,-220 -2,-6 -4,-11 -6,-16 -36,-127 21,-277 125,-407 40,-51 88,-99 140,-142 -47,11 -92,26 -136,39 -189,60 -349,110 -486,-77 -145,-198 -77,-411 71,-608 77,-101 177,-198 278,-284l-2 0c-144,36 -267,67 -396,-24 -112,-78 -146,-274 -136,-512 12,-296 88,-667 163,-945 48,-176 100,-367 154,-557 137,-480 453,-1301 731,-1685z" style="fill:#ddf96f"/>
  <path class="Head-Cat5fil14" d="M8151 11499c-168,330 -309,667 -418,1004 -118,367 -230,774 -326,1125 -129,478 -261,1233 -57,1376 171,119 359,-38 620,-29 -308,228 -793,634 -552,962 191,261 484,-94 850,6 -260,75 -554,406 -478,616 56,156 245,231 536,249 1052,64 2116,663 2883,887 92,27 186,50 281,72 116,21 224,41 320,62l0 0c-1756,-505 -2871,-1266 -3394,-2304 -572,-1138 -535,-2592 -265,-4026z" style="fill:#272e26"/>
  <path class="Head-Cat5fil32" d="M19144 11366c215,492 436,1198 586,1726 56,193 107,381 154,555 73,270 147,630 159,912 8,190 -10,340 -72,384 -74,51 -166,28 -274,1 -90,-23 -189,-48 -305,-43 -42,1 -74,36 -73,77 1,24 13,44 31,57l0 0c149,111 342,265 466,429 111,146 165,299 70,429 -74,100 -187,65 -321,22 -142,-44 -303,-95 -489,-44 -40,11 -64,52 -53,92 8,28 30,48 57,54 7,2 14,4 21,6 110,40 226,129 307,231 75,95 120,197 98,272 -1,3 -2,6 -2,8 -21,57 -69,101 -141,133 -82,37 -193,58 -330,66 -721,44 -1442,333 -2073,586 -170,68 -932,401 -1536,530 578,0 1433,-328 1591,-391 621,-249 1330,-533 2027,-575 154,-10 283,-35 382,-79 110,-49 185,-121 220,-220 2,-6 4,-11 6,-16 36,-127 -22,-277 -125,-407 -40,-51 -88,-99 -140,-142 47,11 92,26 136,39 189,60 348,110 485,-77 146,-198 78,-411 -70,-608 -77,-101 -177,-198 -278,-284l2 0c144,36 266,67 396,-24 112,-78 146,-274 136,-512 -12,-296 -88,-667 -163,-945 -48,-176 -100,-367 -154,-557 -138,-480 -453,-1301 -731,-1685z" style="fill:#fa2ab9"/>
  <path class="Head-Cat5fil32" d="M13682 7560c-408,0 -767,56 -1102,149 -949,262 -2036,899 -2715,1499 604,-730 1714,-1378 2675,-1644 348,-96 720,-154 1142,-154 421,0 794,58 1141,154 962,266 2072,914 2676,1644 -679,-600 -1766,-1237 -2715,-1499 -335,-93 -694,-149 -1102,-149z" style="fill:#93df38"/>
 </g><g id="Mouth-Cat4">
 <animateTransform additive="sum" attributeName="transform" dur="10" repeatCount="indefinite" type="translate" values="0;0 200;0;0 200;0;0 200;0;0 200;0"/>
  <path class="Mouth-Cat4fil22 Mouth-Cat4str0" d="M12299 15251c0,-893 1371,-673 1371,-1225l0 -255" style="fill:#983dbe"/>
  <path class="Mouth-Cat4fil22 Mouth-Cat4str0" d="M15065 15251c0,-893 -1371,-673 -1371,-1225l0 -255" style="fill:#cb2a79"/>
  <path class="Mouth-Cat4fil100" d="M13694 14050c37,220 173,305 319,399 -63,-20 -192,-47 -331,-47 -139,0 -268,27 -331,47 146,-94 282,-179 319,-399l12 0 12 0z" style="fill:#3aa335"/>
 </g><g id="WeaponBflyKnife-Medium">
 <animateTransform additive="sum" attributeName="transform" dur="10" repeatCount="indefinite" type="translate" values="0;0 200;0;0 200;0;0 200;0;0 200;0"/>
  <metadata id="CorelCorpID_13Corel-Layer"/>
  <g id="_2367108372160">
   <path class="WeaponBflyKnife-Mediumfil26" d="M10287 22272c448,417 929,879 1419,1239 163,402 550,947 822,1278 -738,-147 -1774,-1376 -2691,-2032 -252,16 -71,-379 -5,-451 69,-73 494,-286 455,-34z" style="fill:#fda635"/>
   <path class="WeaponBflyKnife-Mediumfil27" d="M12426 24769c-672,-203 -1550,-1201 -2374,-1850 48,-124 213,-343 273,-285 614,569 1181,1071 2101,2135z" style="fill:#c46659"/>
   <path class="WeaponBflyKnife-Mediumfil14 WeaponBflyKnife-Mediumstr0" d="M10287 22272c448,417 929,879 1419,1239 163,402 550,947 822,1278 -738,-147 -1774,-1376 -2691,-2032 -252,16 -71,-379 -5,-451 69,-73 494,-286 455,-34z" style="fill:#6f668b"/>
   <path class="WeaponBflyKnife-Mediumfil28" d="M10019 22352l-576 -535 191 -229 569 565c52,52 58,136 7,192 -50,54 -137,57 -191,7zm-686 -403l-191 229 581 503c55,48 140,48 191,-8 51,-54 47,-140 -7,-191l-574 -533z" style="fill:#925e16"/>
   <path class="WeaponBflyKnife-Mediumfil14 WeaponBflyKnife-Mediumstr0" d="M10019 22352l-576 -535m191 -229l569 565c52,52 58,136 7,192 -50,54 -137,57 -191,7m-877 -174l581 503c55,48 140,48 191,-8 51,-54 47,-140 -7,-191l-574 -533" style="fill:#da3f38"/>
   <circle class="WeaponBflyKnife-Mediumfil23" r="48" transform="matrix(3.41378 0.353594 -0.353594 3.41378 10109.9 22253.4)"/>
   <path class="WeaponBflyKnife-Mediumfil29" d="M10117 22185c38,4 65,38 62,75 -4,38 -38,66 -76,62 -38,-4 -66,-38 -62,-76 4,-38 38,-65 76,-61z" style="fill:#3ea5f0"/>
   <circle class="WeaponBflyKnife-Mediumfil23" r="48" transform="matrix(3.41378 0.353594 -0.353594 3.41378 9810.11 22577.8)"/>
   <path class="WeaponBflyKnife-Mediumfil30" d="M9817 22509c38,4 66,38 62,76 -4,38 -38,65 -76,61 -38,-4 -65,-37 -61,-75 3,-38 37,-66 75,-62z" style="fill:#85cd8b"/>
   <path class="WeaponBflyKnife-Mediumfil31" d="M9964 22155c-139,-176 -279,-353 -418,-529 160,158 320,315 480,473 -26,18 -48,37 -62,56z" style="fill:#fae5ec"/>
   <path class="WeaponBflyKnife-Mediumfil31" d="M9652 22477c-145,-172 -291,-344 -436,-515 165,152 331,304 496,456 -25,19 -46,39 -60,59z" style="fill:#986829"/>
  </g>
 </g><g id="Eyes-Cat4">
 <animateTransform additive="sum" attributeName="transform" dur="10" repeatCount="indefinite" type="translate" values="0;0 200;0;0 200;0;0 200;0;0 200;0"/>
  <g>
        <animateTransform additive="sum" attributeName="transform" dur="10" repeatCount="indefinite" type="translate" values="0;0;0;0;0;0;0;0;0;0;0;0;0;0;0;0;0;0;0;0;0;0;0;0;0;0;0;0;0;0;0;0;0;0;0;0;0;0;0;0;0;0;0;0;0;0;0;0;0;0;0;0;0;0;0;0;0;0;0;0;0;0;0;0;0;0;0;0;0;0;0;0;0;0;0;0;0;0;0;0;0;0;0;0;0;0;0;0;0;0;0 14300;0"/>
        <g>
            <g>
                <animateTransform additive="sum" attributeName="transform" dur="10" repeatCount="indefinite" type="scale" values="1;1;1;1;1;1;1;1;1;1;1;1;1;1;1;1;1;1;1;1;1;1;1;1;1;1;1;1;1;1;1;1;1;1;1;1;1;1;1;1;1;1;1;1;1;1;1;1;1;1;1;1;1;1;1;1;1;1;1;1;1;1;1;1;1;1;1;1;1;1;1;1;1;1;1;1;1;1;1;1;1;1;1;1;1;1;1;1;1;1;1 0.01;1"/> 
				        <path class="Eyes-Cat4fil172" d="M9474 14450c774,527 1711,317 2213,51 860,-457 159,-3080 -754,-3249 -668,-124 -1272,129 -1702,623 -908,1044 -307,2200 243,2575z"/>
            </g>
            <g>
                <animateTransform additive="sum" attributeName="transform" dur="10" repeatCount="indefinite" type="scale" values="1;1;1;1;1;1;1;1;1;1;1;1;1;1;1;1;1;1;1;1;1;1;1;1;1;1;1;1;1;1;1;1;1;1;1;1;1;1;1;1;1;1;1;1;1;1;1;1;1;1;1;1;1;1;1;1;1;1;1;1;1;1;1;1;1;1;1;1;1;1;1;1;1;1;1;1;1;1;1;1;1;1;1;1;1;1;1;1;1;1;1 0.01;1"/> 
                <path class="Eyes-Cat4fil157" d="M12064 13787c104,-940 -455,-2410 -1131,-2535 -668,-124 -1272,129 -1702,623 -280,321 -418,655 -461,974 437,-844 1221,-1290 1861,-1185 911,148 1275,1076 1421,2180 5,-19 9,-38 12,-57z"/>
                <path class="Eyes-Cat4fil173" d="M12085 13633c-42,-877 -552,-1981 -1154,-2087 -88,-16 -176,-25 -262,-28 -460,19 -869,226 -1179,564 -829,903 -306,1916 197,2241 706,456 1587,259 2044,29 228,-114 336,-387 354,-719z"/>
            </g>
            <g>
                <animateTransform additive="sum" attributeName="transform" dur="10" repeatCount="indefinite" type="translate" values="0;0;0;0;0;0;0;0;0;0;0;0;0;0;0;0;0;0;0;0;0;0;0;0;0;0;0;0;0;0;0;0;0;0;0;0;0;0;0;0;0;0;0;0;0;0;0;0;0;0;0;0;0;0;0;0;0;0;0;0;0;0;0;0;0;0;0;0;0;0;0;0;0;0;0;0;0;0;0;0;0;0;0;0;0;0;0;0;0;0;0 -14590;0"/>    
                <g>
                    <animateTransform additive="sum" attributeName="transform" dur="10" repeatCount="indefinite" type="translate" values="0;0;0;0;0;0;0;0;0;0;0;0;0;0;0;0;0;0;0;0;0;0;0;0;0;0;0;0;0;0;0;0;0;0;0;0;0;0;0;0;0;0;0;0;0;0;0;0;0;0;0;0;0;0;0;0;0;0;0;0;0;0;0;0;0;0;0;0;0;0;0;0;0;0;0;0;0;0;0;0;0;0;0;0;0;0;0;0;0;0;0;0 14000;0"/>
                    <g>
                        <animateTransform additive="sum" attributeName="transform" dur="10" repeatCount="indefinite" type="scale" values="1;1;1;1;1;1;1;1;1;1;1;1;1;1;1;1;1;1;1;1;1;1;1;1;1;1;1;1;1;1;1;1;1;1;1;1;1;1;1;1;1;1;1;1;1;1;1;1;1;1;1;1;1;1;1;1;1;1;1;1;1;1;1;1;1;1;1;1;1;1;1;1;1;1;1;1;1;1;1;1;1;1;1;1;1;1;1;1;1;1;1;1 0.05;1"/> 
                        <path class="Eyes-Cat4fil174" d="M10334 11488c697,-163 1397,310 1562,1056 166,746 -266,1483 -963,1645 -697,163 -1397,-310 -1562,-1056 -165,-746 266,-1483 963,-1645z"/>
                    </g>
                </g>
            </g>
            <g>
                <animateTransform additive="sum" attributeName="transform" dur="10" repeatCount="indefinite" type="translate" values="0;0;0;0;0;0;0;0;0;0;0;0;0;0;0;0;0;0;0;0;0;0;0;0;0;0;0;0;0;0;0;0;0;0;0;0;0;0;0;0;0;0;0;0;0;0;0;0;0;0;0;0;0;0;0;0;0;0;0;0;0;0;0;0;0;0;0;0;0;0;0;0;0;0;0;0;0;0;0;0;0;0;0;0;0;0;0;0;0;0;0 -14350;0"/>    
                <g>
                    <animateTransform additive="sum" attributeName="transform" dur="10" repeatCount="indefinite" type="translate" values="0;0;0;0;0;0;0;0;0;0;0;0;0;0;0;0;0;0;0;0;0;0;0;0;0;0;0;0;0;0;0;0;0;0;0;0;0;0;0;0;0;0;0;0;0;0;0;0;0;0;0;0;0;0;0;0;0;0;0;0;0;0;0;0;0;0;0;0;0;0;0;0;0;0;0;0;0;0;0;0;0;0;0;0;0;0;0;0;0;0;0;0;0 12970;0"/>
                    <g>
                        <animateTransform additive="sum" attributeName="transform" dur="10" repeatCount="indefinite" type="scale" values="1;1;1;1;1;1;1;1;1;1;1;1;1;1;1;1;1;1;1;1;1;1;1;1;1;1;1;1;1;1;1;1;1;1;1;1;1;1;1;1;1;1;1;1;1;1;1;1;1;1;1;1;1;1;1;1;1;1;1;1;1;1;1;1;1;1;1;1;1;1;1;1;1;1;1;1;1;1;1;1;1;1;1;1;1;1;1;1;1;1;1;1;1 0.1;1"/>
                        <circle class="Eyes-Cat4fil152" r="235" transform="matrix(1.00604 -1.81791 1.45034 0.651615 9957.27 12134.3)"/>
                        <circle class="Eyes-Cat4fil152" r="235" transform="matrix(0.511451 -0.0476309 0.0595148 0.521886 11438.1 13408.2)"/>
                    </g>
                </g>
            </g>
            <g>
                <animateTransform additive="sum" attributeName="transform" dur="10" repeatCount="indefinite" type="translate" values="0;0;0;0;0;0;0;0;0;0;0;0;0;0;0;0;0;0;0;0;0;0;0;0;0;0;0;0;0;0;0;0;0;0;0;0;0;0;0;0;0;0;0;0;0;0;0;0;0;0;0;0;0;0;0;0;0;0;0;0;0;0;0;0;0;0;0;0;0;0;0;0;0;0;0;0;0;0;0;0;0;0;0;0;0;0;0;0;0;0;0 -14300;0"/>    
                <g>
                    <animateTransform additive="sum" attributeName="transform" dur="10" repeatCount="indefinite" type="translate" values="0;0;0;0;0;0;0;0;0;0;0;0;0;0;0;0;0;0;0;0;0;0;0;0;0;0;0;0;0;0;0;0;0;0;0;0;0;0;0;0;0;0;0;0;0;0;0;0;0;0;0;0;0;0;0;0;0;0;0;0;0;0;0;0;0;0;0;0;0;0;0;0;0;0;0;0;0;0;0;0;0;0;0;0;0;0;0;0;0;0;0;0;0 12970;0"/>
                    <g>
                        <animateTransform additive="sum" attributeName="transform" dur="10" repeatCount="indefinite" type="scale" values="1;1;1;1;1;1;1;1;1;1;1;1;1;1;1;1;1;1;1;1;1;1;1;1;1;1;1;1;1;1;1;1;1;1;1;1;1;1;1;1;1;1;1;1;1;1;1;1;1;1;1;1;1;1;1;1;1;1;1;1;1;1;1;1;1;1;1;1;1;1;1;1;1;1;1;1;1;1;1;1;1;1;1;1;1;1;1;1;1;1;1;1;1 0.1;1"/>
                        <circle class="Eyes-Cat4fil152" r="235" transform="matrix(0.554042 -1.05186 0.853042 0.366906 11593.1 13902.9)"/>
                    </g>
                </g>
            </g>
            <g>
                <animateTransform additive="sum" attributeName="transform" dur="10" repeatCount="indefinite" type="translate" values="0;0;0;0;0;0;0;0;0;0;0;0;0;0;0;0;0;0;0;0;0;0;0;0;0;0;0;0;0;0;0;0;0;0;0;0;0;0;0;0;0;0;0;0;0;0;0;0;0;0;0;0;0;0;0;0;0;0;0;0;0;0;0;0;0;0;0;0;0;0;0;0;0;0;0;0;0;0;0;0;0;0;0;0;0;0;0;0;0;0;0 -13500;0"/>  
                <g>
                    <animateTransform additive="sum" attributeName="transform" dur="10" repeatCount="indefinite" type="translate" values="0;0;0;0;0;0;0;0;0;0;0;0;0;0;0;0;0;0;0;0;0;0;0;0;0;0;0;0;0;0;0;0;0;0;0;0;0;0;0;0;0;0;0;0;0;0;0;0;0;0;0;0;0;0;0;0;0;0;0;0;0;0;0;0;0;0;0;0;0;0;0;0;0;0;0;0;0;0;0;0;0;0;0;0;0;0;0;0;0;0;0;0 13000;0"/>
                    <g>
						            <animateTransform additive="sum" attributeName="transform" dur="10" repeatCount="indefinite" type="scale" values="1;1;1;1;1;1;1;1;1;1;1;1;1;1;1;1;1;1;1;1;1;1;1;1;1;1;1;1;1;1;1;1;1;1;1;1;1;1;1;1;1;1;1;1;1;1;1;1;1;1;1;1;1;1;1;1;1;1;1;1;1;1;1;1;1;1;1;1;1;1;1;1;1;1;1;1;1;1;1;1;1;1;1;1;1;1;1;1;1;1;1;1 0.05;1"/>
                        <path class="Eyes-Cat4fil152" d="M9383 13711c343,-35 385,-152 407,-576 21,424 64,541 407,576 -343,35 -386,152 -407,575 -22,-423 -64,-540 -407,-575z"/>
                        <path class="Eyes-Cat4fil152" d="M9308 14020c141,-14 158,-63 167,-237 9,174 26,223 168,237 -142,14 -159,63 -168,237 -9,-174 -26,-223 -167,-237z"/>
                    </g>
                </g>
                <g>
                    <animateTransform additive="sum" attributeName="transform" dur="10" repeatCount="indefinite" type="translate" values="0;0;0;0;0;0;0;0;0;0;0;0;0;0;0;0;0;0;0;0;0;0;0;0;0;0;0;0;0;0;0;0;0;0;0;0;0;0;0;0;0;0;0;0;0;0;0;0;0;0;0;0;0;0;0;0;0;0;0;0;0;0;0;0;0;0;0;0;0;0;0;0;0;0;0;0;0;0;0;0;0;0;0;0;0;0;0;0;0;0;0;0 13150;0"/>
                    <g>
                        <animateTransform additive="sum" attributeName="transform" dur="10" repeatCount="indefinite" type="scale" values="1;1;1;1;1;1;1;1;1;1;1;1;1;1;1;1;1;1;1;1;1;1;1;1;1;1;1;1;1;1;1;1;1;1;1;1;1;1;1;1;1;1;1;1;1;1;1;1;1;1;1;1;1;1;1;1;1;1;1;1;1;1;1;1;1;1;1;1;1;1;1;1;1;1;1;1;1;1;1;1;1;1;1;1;1;1;1;1;1;1;1;1 0.05;1"/>
                        <path class="Eyes-Cat4fil152" d="M10176 14029c62,-6 70,-27 74,-104 3,77 11,98 73,104 -62,7 -70,28 -73,104 -4,-76 -12,-97 -74,-104z"/>
                        <path class="Eyes-Cat4fil152" d="M11340 14356c62,-7 70,-28 73,-104 4,76 12,97 74,104 -62,6 -70,27 -74,104 -3,-77 -11,-98 -73,-104z"/>
                        <path class="Eyes-Cat4fil152" d="M11144 14106c62,-6 70,-27 73,-103 4,76 12,97 74,103 -62,7 -70,28 -74,104 -3,-76 -11,-97 -73,-104z"/>
                    </g>
                </g> 
            </g>
			<g>
                <animateTransform additive="sum" attributeName="transform" dur="10" repeatCount="indefinite" type="scale" values="1;1;1;1;1;1;1;1;1;1;1;1;1;1;1;1;1;1;1;1;1;1;1;1;1;1;1;1;1;1;1;1;1;1;1;1;1;1;1;1;1;1;1;1;1;1;1;1;1;1;1;1;1;1;1;1;1;1;1;1;1;1;1;1;1;1;1;1;1;1;1;1;1;1;1;1;1;1;1;1;1;1;1;1;1;1;1;1;1;1;1 0.01;1"/> 
                <path class="Eyes-Cat4fil22 Eyes-Cat4str4" d="M9474 14450c774,527 1711,317 2213,51 860,-457 159,-3080 -754,-3249 -668,-124 -1272,129 -1702,623 -908,1044 -307,2200 243,2575z"/>
            </g>
        </g>
    </g>
  <g>
            <animateTransform additive="sum" attributeName="transform" dur="10" repeatCount="indefinite" type="translate" values="0;0;0;0;0;0;0;0;0;0;0;0;0;0;0;0;0;0;0;0;0;0;0;0;0;0;0;0;0;0;0;0;0;0;0;0;0;0;0;0;0;0;0;0;0;0;0;0;0;0;0;0;0;0;0;0;0;0;0;0;0;0;0;0;0;0;0;0;0;0;0;0;0;0;0;0;0;0;0;0;0;0;0;0;0;0;0;0;0;0;0 14300;0"/>
            <g>
                <g>
                    <animateTransform additive="sum" attributeName="transform" dur="10" repeatCount="indefinite" type="scale" values="1;1;1;1;1;1;1;1;1;1;1;1;1;1;1;1;1;1;1;1;1;1;1;1;1;1;1;1;1;1;1;1;1;1;1;1;1;1;1;1;1;1;1;1;1;1;1;1;1;1;1;1;1;1;1;1;1;1;1;1;1;1;1;1;1;1;1;1;1;1;1;1;1;1;1;1;1;1;1;1;1;1;1;1;1;1;1;1;1;1;1 0.01;1"/> 
                    <path class="Eyes-Cat4fil175" d="M17889 14450c-773,527 -1710,317 -2212,51 -860,-457 -159,-3080 754,-3249 667,-124 1272,129 1702,623 908,1044 307,2200 -244,2575z"/>
                </g>
                <g>
                    <animateTransform additive="sum" attributeName="transform" dur="10" repeatCount="indefinite" type="scale" values="1;1;1;1;1;1;1;1;1;1;1;1;1;1;1;1;1;1;1;1;1;1;1;1;1;1;1;1;1;1;1;1;1;1;1;1;1;1;1;1;1;1;1;1;1;1;1;1;1;1;1;1;1;1;1;1;1;1;1;1;1;1;1;1;1;1;1;1;1;1;1;1;1;1;1;1;1;1;1;1;1;1;1;1;1;1;1;1;1;1;1 0.01;1"/> 
                    <path class="Eyes-Cat4fil157" d="M15300 13787c-104,-940 455,-2410 1131,-2535 667,-124 1272,129 1702,623 279,321 418,655 461,974 -437,-844 -1221,-1290 -1861,-1185 -911,148 -1275,1076 -1422,2180 -4,-19 -8,-38 -11,-57z"/>
                    <path class="Eyes-Cat4fil176" d="M15279 13633c42,-877 552,-1981 1154,-2087 88,-16 176,-25 262,-28 459,19 869,226 1179,564 829,903 306,1916 -197,2241 -706,456 -1587,259 -2045,29 -227,-114 -335,-387 -353,-719z"/>
                </g>
                <g>
                    <animateTransform additive="sum" attributeName="transform" dur="10" repeatCount="indefinite" type="translate" values="0;0;0;0;0;0;0;0;0;0;0;0;0;0;0;0;0;0;0;0;0;0;0;0;0;0;0;0;0;0;0;0;0;0;0;0;0;0;0;0;0;0;0;0;0;0;0;0;0;0;0;0;0;0;0;0;0;0;0;0;0;0;0;0;0;0;0;0;0;0;0;0;0;0;0;0;0;0;0;0;0;0;0;0;0;0;0;0;0;0;0 -14590;0"/>    
                    <g>
                        <animateTransform additive="sum" attributeName="transform" dur="10" repeatCount="indefinite" type="translate" values="0;0;0;0;0;0;0;0;0;0;0;0;0;0;0;0;0;0;0;0;0;0;0;0;0;0;0;0;0;0;0;0;0;0;0;0;0;0;0;0;0;0;0;0;0;0;0;0;0;0;0;0;0;0;0;0;0;0;0;0;0;0;0;0;0;0;0;0;0;0;0;0;0;0;0;0;0;0;0;0;0;0;0;0;0;0;0;0;0;0;0;0 14000;0"/>
                        <g>
                            <animateTransform additive="sum" attributeName="transform" dur="10" repeatCount="indefinite" type="scale" values="1;1;1;1;1;1;1;1;1;1;1;1;1;1;1;1;1;1;1;1;1;1;1;1;1;1;1;1;1;1;1;1;1;1;1;1;1;1;1;1;1;1;1;1;1;1;1;1;1;1;1;1;1;1;1;1;1;1;1;1;1;1;1;1;1;1;1;1;1;1;1;1;1;1;1;1;1;1;1;1;1;1;1;1;1;1;1;1;1;1;1;1 0.05;1"/> 
                            <path class="Eyes-Cat4fil177" d="M17030 11488c-697,-163 -1397,310 -1562,1056 -166,746 266,1483 963,1645 697,163 1396,-310 1562,-1056 165,-746 -266,-1483 -963,-1645z"/>
                        </g>
                    </g>
                </g>
                <g>
                    <animateTransform additive="sum" attributeName="transform" dur="10" repeatCount="indefinite" type="translate" values="0;0;0;0;0;0;0;0;0;0;0;0;0;0;0;0;0;0;0;0;0;0;0;0;0;0;0;0;0;0;0;0;0;0;0;0;0;0;0;0;0;0;0;0;0;0;0;0;0;0;0;0;0;0;0;0;0;0;0;0;0;0;0;0;0;0;0;0;0;0;0;0;0;0;0;0;0;0;0;0;0;0;0;0;0;0;0;0;0;0;0 -14350;0"/>    
                    <g>
                        <animateTransform additive="sum" attributeName="transform" dur="10" repeatCount="indefinite" type="translate" values="0;0;0;0;0;0;0;0;0;0;0;0;0;0;0;0;0;0;0;0;0;0;0;0;0;0;0;0;0;0;0;0;0;0;0;0;0;0;0;0;0;0;0;0;0;0;0;0;0;0;0;0;0;0;0;0;0;0;0;0;0;0;0;0;0;0;0;0;0;0;0;0;0;0;0;0;0;0;0;0;0;0;0;0;0;0;0;0;0;0;0;0;0 12970;0"/>
                        <g>
                            <animateTransform additive="sum" attributeName="transform" dur="10" repeatCount="indefinite" type="scale" values="1;1;1;1;1;1;1;1;1;1;1;1;1;1;1;1;1;1;1;1;1;1;1;1;1;1;1;1;1;1;1;1;1;1;1;1;1;1;1;1;1;1;1;1;1;1;1;1;1;1;1;1;1;1;1;1;1;1;1;1;1;1;1;1;1;1;1;1;1;1;1;1;1;1;1;1;1;1;1;1;1;1;1;1;1;1;1;1;1;1;1;1;1 0.1;1"/>
                            <circle class="Eyes-Cat4fil152" r="235" transform="matrix(0.511451 -0.0476309 0.0595148 0.521886 17611.1 13408.2)"/>
                            <path class="Eyes-Cat4fil152" d="M15680 13700c343,-35 386,-151 407,-575 22,424 64,540 407,575 -343,35 -385,152 -407,576 -21,-424 -64,-541 -407,-576z"/>
                        </g>
                    </g>
                </g>
                <g>
                    <animateTransform additive="sum" attributeName="transform" dur="10" repeatCount="indefinite" type="translate" values="0;0;0;0;0;0;0;0;0;0;0;0;0;0;0;0;0;0;0;0;0;0;0;0;0;0;0;0;0;0;0;0;0;0;0;0;0;0;0;0;0;0;0;0;0;0;0;0;0;0;0;0;0;0;0;0;0;0;0;0;0;0;0;0;0;0;0;0;0;0;0;0;0;0;0;0;0;0;0;0;0;0;0;0;0;0;0;0;0;0;0 -14300;0"/>    
                    <g>
                        <animateTransform additive="sum" attributeName="transform" dur="10" repeatCount="indefinite" type="translate" values="0;0;0;0;0;0;0;0;0;0;0;0;0;0;0;0;0;0;0;0;0;0;0;0;0;0;0;0;0;0;0;0;0;0;0;0;0;0;0;0;0;0;0;0;0;0;0;0;0;0;0;0;0;0;0;0;0;0;0;0;0;0;0;0;0;0;0;0;0;0;0;0;0;0;0;0;0;0;0;0;0;0;0;0;0;0;0;0;0;0;0;0;0 12970;0"/>
                        <g>
                            <animateTransform additive="sum" attributeName="transform" dur="10" repeatCount="indefinite" type="scale" values="1;1;1;1;1;1;1;1;1;1;1;1;1;1;1;1;1;1;1;1;1;1;1;1;1;1;1;1;1;1;1;1;1;1;1;1;1;1;1;1;1;1;1;1;1;1;1;1;1;1;1;1;1;1;1;1;1;1;1;1;1;1;1;1;1;1;1;1;1;1;1;1;1;1;1;1;1;1;1;1;1;1;1;1;1;1;1;1;1;1;1;1;1 0.1;1"/>
                            <path class="Eyes-Cat4fil152" d="M15570 14025c141,-14 159,-62 167,-237 9,175 27,223 168,237 -141,15 -159,63 -168,237 -8,-174 -26,-222 -167,-237z"/>
                        </g>
                    </g>
                </g>
                <g>
                    <animateTransform additive="sum" attributeName="transform" dur="10" repeatCount="indefinite" type="translate" values="0;0;0;0;0;0;0;0;0;0;0;0;0;0;0;0;0;0;0;0;0;0;0;0;0;0;0;0;0;0;0;0;0;0;0;0;0;0;0;0;0;0;0;0;0;0;0;0;0;0;0;0;0;0;0;0;0;0;0;0;0;0;0;0;0;0;0;0;0;0;0;0;0;0;0;0;0;0;0;0;0;0;0;0;0;0;0;0;0;0;0 -13500;0"/>  
                    <g>
                        <animateTransform additive="sum" attributeName="transform" dur="10" repeatCount="indefinite" type="translate" values="0;0;0;0;0;0;0;0;0;0;0;0;0;0;0;0;0;0;0;0;0;0;0;0;0;0;0;0;0;0;0;0;0;0;0;0;0;0;0;0;0;0;0;0;0;0;0;0;0;0;0;0;0;0;0;0;0;0;0;0;0;0;0;0;0;0;0;0;0;0;0;0;0;0;0;0;0;0;0;0;0;0;0;0;0;0;0;0;0;0;0;0 13000;0"/>
                        <g>
                            <animateTransform additive="sum" attributeName="transform" dur="10" repeatCount="indefinite" type="scale" values="1;1;1;1;1;1;1;1;1;1;1;1;1;1;1;1;1;1;1;1;1;1;1;1;1;1;1;1;1;1;1;1;1;1;1;1;1;1;1;1;1;1;1;1;1;1;1;1;1;1;1;1;1;1;1;1;1;1;1;1;1;1;1;1;1;1;1;1;1;1;1;1;1;1;1;1;1;1;1;1;1;1;1;1;1;1;1;1;1;1;1;1 0.05;1"/>
                            <path class="Eyes-Cat4fil152" d="M16349 14029c62,-6 70,-27 74,-104 3,77 11,98 73,104 -62,7 -70,28 -73,104 -4,-76 -12,-97 -74,-104z"/>
                            <path class="Eyes-Cat4fil152" d="M17513 14356c62,-7 70,-28 73,-104 4,76 12,97 74,104 -62,6 -70,27 -74,104 -3,-77 -11,-98 -73,-104z"/>
                        </g>
                    </g>
                    <g>
                        <animateTransform additive="sum" attributeName="transform" dur="10" repeatCount="indefinite" type="translate" values="0;0;0;0;0;0;0;0;0;0;0;0;0;0;0;0;0;0;0;0;0;0;0;0;0;0;0;0;0;0;0;0;0;0;0;0;0;0;0;0;0;0;0;0;0;0;0;0;0;0;0;0;0;0;0;0;0;0;0;0;0;0;0;0;0;0;0;0;0;0;0;0;0;0;0;0;0;0;0;0;0;0;0;0;0;0;0;0;0;0;0;0 13150;0"/>
                        <g>
                            <animateTransform additive="sum" attributeName="transform" dur="10" repeatCount="indefinite" type="scale" values="1;1;1;1;1;1;1;1;1;1;1;1;1;1;1;1;1;1;1;1;1;1;1;1;1;1;1;1;1;1;1;1;1;1;1;1;1;1;1;1;1;1;1;1;1;1;1;1;1;1;1;1;1;1;1;1;1;1;1;1;1;1;1;1;1;1;1;1;1;1;1;1;1;1;1;1;1;1;1;1;1;1;1;1;1;1;1;1;1;1;1;1 0.05;1"/>
                            <path class="Eyes-Cat4fil152" d="M17317 14106c62,-6 70,-27 73,-103 4,76 12,97 74,103 -62,7 -70,28 -74,104 -3,-76 -11,-97 -73,-104z"/>
                            <circle class="Eyes-Cat4fil152" r="235" transform="matrix(1.29734 -1.6229 1.32015 0.886165 16350.1 12159.4)"/>
                            <circle class="Eyes-Cat4fil152" r="235" transform="matrix(0.561093 -1.04812 0.850559 0.372626 17943.8 13902.9)"/>
                        </g>
                    </g> 
                </g>
                <g>
                    <animateTransform additive="sum" attributeName="transform" dur="10" repeatCount="indefinite" type="scale" values="1;1;1;1;1;1;1;1;1;1;1;1;1;1;1;1;1;1;1;1;1;1;1;1;1;1;1;1;1;1;1;1;1;1;1;1;1;1;1;1;1;1;1;1;1;1;1;1;1;1;1;1;1;1;1;1;1;1;1;1;1;1;1;1;1;1;1;1;1;1;1;1;1;1;1;1;1;1;1;1;1;1;1;1;1;1;1;1;1;1;1 0.01;1"/> 
                    <path class="Eyes-Cat4fil22 Eyes-Cat4str4" d="M17889 14450c-773,527 -1710,317 -2212,51 -860,-457 -159,-3080 754,-3249 667,-124 1272,129 1702,623 908,1044 307,2200 -244,2575z"/>
                </g>
            </g>
        </g>
        <g>
        <animateTransform additive="sum" attributeName="transform" dur="10" repeatCount="indefinite" type="translate" values="0;0;0;0;0;0;0;0;0;0;0;0;0;0;0;0;0;0;0;0;0;0;0;0;0;0;0;0;0;0;0;0;0;0;0;0;0;0;0;0;0;0;0;0;0;0;0;0;0;0;0;0;0;0;0;0;0;0;0;0;0;0;0;0;0;0;0;0;0;0;0;0;0;0;0;0;0;0;0;0;0;0;0;0;0;0;0;0;0;0;3000 -2100;0"/>
        <g>
            <animateTransform additive="sum" attributeName="transform" dur="10" repeatCount="indefinite" type="rotate" values="0;0;0;0;0;0;0;0;0;0;0;0;0;0;0;0;0;0;0;0;0;0;0;0;0;0;0;0;0;0;0;0;0;0;0;0;0;0;0;0;0;0;0;0;0;0;0;0;0;0;0;0;0;0;0;0;0;0;0;0;0;0;0;0;0;0;0;0;0;0;0;0;0;0;0;0;0;0;0;0;0;0;0;0;0;0;0;0;0;0;10;0"/>
            <g>
                <animateTransform additive="sum" attributeName="transform" dur="10" repeatCount="indefinite" type="translate" values="0;0;0;0;0;0;0;0;0;0;0;0;0;0;0;0;0;0;0;0;0;0;0;0;0;0;0;0;0;0;0;0;0;0;0;0;0;0;0;0;0;0;0;0;0;0;0;0;0;0;0;0;0;0;0;0;0;0;0;0;0;0;0;0;0;0;0;0;0;0;0;0;0;0;0;0;0;0;0;0;0;0;0;0;0;0;0;0;0;0;0 1500;0"/> 
                <path class="Eyes-Cat4fil155" d="M10921 10404c-86,90 -496,89 -945,262 -413,158 -711,435 -870,371 -177,-71 -101,-466 62,-647 134,-148 563,-331 1007,-324 524,9 851,230 746,338z"/>
            </g>
            <g>
                <animateTransform additive="sum" attributeName="transform" dur="10" repeatCount="indefinite" type="translate" values="0;0;0;0;0;0;0;0;0;0;0;0;0;0;0;0;0;0;0;0;0;0;0;0;0;0;0;0;0;0;0;0;0;0;0;0;0;0;0;0;0;0;0;0;0;0;0;0;0;0;0;0;0;0;0;0;0;0;0;0;0;0;0;0;0;0;0;0;0;0;0;0;0;0;0;0;0;0;0;0;0;0;0;0;0;0;0;0;0;0;0 1500;0"/> 
                <path class="Eyes-Cat4fil14" d="M10921 10404c-86,90 -496,89 -945,262 -413,158 -711,435 -870,371 -177,-71 -101,-466 62,-647 134,-148 563,-331 1007,-324 524,9 851,230 746,338z"/>
            </g>
        </g>
    </g>  
    <g>
        <animateTransform additive="sum" attributeName="transform" dur="10" repeatCount="indefinite" type="translate" values="0;0;0;0;0;0;0;0;0;0;0;0;0;0;0;0;0;0;0;0;0;0;0;0;0;0;0;0;0;0;0;0;0;0;0;0;0;0;0;0;0;0;0;0;0;0;0;0;0;0;0;0;0;0;0;0;0;0;0;0;0;0;0;0;0;0;0;0;0;0;0;0;0;0;0;0;0;0;0;0;0;0;0;0;0;0;0;0;0;0;-2100 3000;0"/>
        <g>
            <animateTransform additive="sum" attributeName="transform" dur="10" repeatCount="indefinite" type="rotate" values="0;0;0;0;0;0;0;0;0;0;0;0;0;0;0;0;0;0;0;0;0;0;0;0;0;0;0;0;0;0;0;0;0;0;0;0;0;0;0;0;0;0;0;0;0;0;0;0;0;0;0;0;0;0;0;0;0;0;0;0;0;0;0;0;0;0;0;0;0;0;0;0;0;0;0;0;0;0;0;0;0;0;0;0;0;0;0;0;0;0;-10;0"/>
            <g>
                <animateTransform additive="sum" attributeName="transform" dur="10" repeatCount="indefinite" type="translate" values="0;0;0;0;0;0;0;0;0;0;0;0;0;0;0;0;0;0;0;0;0;0;0;0;0;0;0;0;0;0;0;0;0;0;0;0;0;0;0;0;0;0;0;0;0;0;0;0;0;0;0;0;0;0;0;0;0;0;0;0;0;0;0;0;0;0;0;0;0;0;0;0;0;0;0;0;0;0;0;0;0;0;0;0;0;0;0;0;0;0;0 1500;0"/> 
                <path class="Eyes-Cat4fil155" d="M16443 10404c86,90 496,89 945,262 413,158 711,435 870,371 177,-71 101,-466 -62,-647 -134,-148 -563,-331 -1007,-324 -524,9 -851,230 -746,338z"/>
            </g>
            <g>
                <animateTransform additive="sum" attributeName="transform" dur="10" repeatCount="indefinite" type="translate" values="0;0;0;0;0;0;0;0;0;0;0;0;0;0;0;0;0;0;0;0;0;0;0;0;0;0;0;0;0;0;0;0;0;0;0;0;0;0;0;0;0;0;0;0;0;0;0;0;0;0;0;0;0;0;0;0;0;0;0;0;0;0;0;0;0;0;0;0;0;0;0;0;0;0;0;0;0;0;0;0;0;0;0;0;0;0;0;0;0;0;0 1500;0"/> 
                <path class="Eyes-Cat4fil14" d="M16443 10404c86,90 496,89 945,262 413,158 711,435 870,371 177,-71 101,-466 -62,-647 -134,-148 -563,-331 -1007,-324 -524,9 -851,230 -746,338z"/>
            </g>
        </g>
    </g>
 </g><g id="HeadScream-Medium">
     <animateTransform additive="sum" attributeName="transform" dur="10" repeatCount="indefinite" type="translate" values="0;0 200;0;0 200;0;0 200;0;0 200;0"/>
     <metadata id="CorelCorpID_1Corel-Layer"/>
  <g id="_1732992825984">
   <path class="HeadScream-Mediumfil12" d="M13245.37 20994.14c1090.65,29.77 1519.01,-794.3 2059.36,-1858.86 540.35,-1064.56 1892.78,-1187.4 2274.29,-658.81 6.77,0 -267.25,-343.25 -314.81,-398.14 -194.6,-224.54 -578.31,-420.81 -925.99,-528.19 -62.11,-131.08 -141.89,-241.19 -242.57,-314.07l-2413.71 485.07 -2413.71 -485.07c-100.68,72.88 -180.46,182.99 -242.57,314.07 -347.68,107.38 -731.39,303.65 -925.99,528.19 -74.04,85.43 -175.29,213.51 -290.15,365.43 930.52,-455.82 1662.62,-76.17 1879.21,823.82 216.59,899.99 465.99,1696.79 1556.64,1726.56z" style="fill:#38d601"/>
   <g>
    <path class="HeadScream-Mediumfil14 HeadScream-Mediumstr0" d="M7383.34 16830.55c448.32,615.13 1158.2,864 1534.2,981.15 971.55,302.7 1290.54,-389.2 2102.64,157.21 747.45,502.92 1417.12,626.79 1882.56,-149.16 259.73,-196.88 332.14,-207.41 779.19,-207.41 447.05,0 519.47,10.55 779.19,207.41 721.07,546.58 1135.11,652.07 1882.56,149.16 790.38,-531.8 1113.67,109.38 2026.08,-135.02 387.88,-103.9 1133.62,-411.96 1564.27,-950.06 1771.7,-3048.18 -2969.79,-7212.43 -6252.09,-7212.43 -3282.3,0 -8069.4,4112.51 -6298.6,7159.15zm1757.44 -1870.9c155.05,344.58 1687.75,1330.14 3252.01,-659.77 1564.26,-1989.91 -244.74,-3511.62 -830.02,-2617.75 -585.28,893.88 -437.32,1558.71 -1159.9,1872.87 -722.58,314.16 -1637.81,569.71 -1262.09,1404.65zm9082.32 0c-155.05,344.58 -1687.75,1330.14 -3252.01,-659.77 -1564.26,-1989.91 244.74,-3511.62 830.02,-2617.75 585.28,893.88 437.32,1558.71 1159.9,1872.87 722.58,314.16 1637.81,569.71 1262.09,1404.65z" style="fill:#419928"/>
    <path class="HeadScream-Mediumfil15" d="M13681.94 20908.15c898.55,0 1318.21,-708.74 1622.79,-1772.87 304.58,-1064.13 1365.3,-2261.98 2295.82,-1806.15 930.52,455.83 2548.5,-730.71 2548.5,-2369.47 0,-1638.76 -702.34,-1798.37 -712.98,-1936.71 -10.64,-138.34 -618.58,-5049.62 -5741.58,-5049.62 -4.24,0 -8.32,0.18 -12.55,0.19 -4.23,-0.01 -8.31,-0.19 -12.55,-0.19 -5123,0 -5730.94,4911.28 -5741.58,5049.62 -10.64,138.34 -712.98,297.95 -712.98,1936.71 0,1638.76 1617.98,2825.3 2548.5,2369.47 930.52,-455.83 1991.24,742.02 2295.82,1806.15 304.58,1064.13 724.24,1772.87 1622.79,1772.87zm-4541.16 -5948.5c155.05,344.58 1687.75,1330.14 3252.01,-659.77 1564.26,-1989.91 -244.74,-3511.62 -830.02,-2617.75 -585.28,893.88 -437.32,1558.71 -1159.9,1872.87 -722.58,314.16 -1637.81,569.71 -1262.09,1404.65zm9082.32 0c-155.05,344.58 -1687.75,1330.14 -3252.01,-659.77 -1564.26,-1989.91 244.74,-3511.62 830.02,-2617.75 585.28,893.88 437.32,1558.71 1159.9,1872.87 722.58,314.16 1637.81,569.71 1262.09,1404.65z" style="fill:#eee952"/>
    <path class="HeadScream-Mediumfil2" d="M13681.94 20908.15c-590.9,0 -974.7,-306.53 -1254.85,-819.02 -26.65,-48.76 -367.62,-982.43 -392.49,-1034.84 574.44,1317.62 1205.62,1377.27 1647.34,1392.71 441.72,-15.44 1072.9,-75.09 1647.34,-1392.71 -24.87,52.41 -365.84,986.08 -392.49,1034.84 -280.15,512.49 -663.95,819.02 -1254.85,819.02zm1913.47 -2456.6c461.84,-817.17 1273.68,-1480.74 2005.14,-1122.42 861.48,422.01 2312,-563.76 2522.52,-2012.75 -269.33,1216.27 -2456.75,2121.54 -3104.82,1535.59 -648.07,-585.95 -1308.63,567.4 -1422.84,1599.58zm-3826.94 0c-461.84,-817.17 -1273.68,-1480.74 -2005.14,-1122.42 -861.48,422.01 -2312,-563.76 -2522.52,-2012.75 1026.51,1714.82 3018.07,1913.04 3548.83,1141.76 530.76,-771.28 864.62,961.23 978.83,1993.41z" style="fill:#8e63fa"/>
    <path class="HeadScream-Mediumfil16" d="M8672.82 15421.04c160.1,372.42 1651.71,1393.17 3256.99,-362.33 -1547.63,1347.85 -3106.54,425.36 -3256.99,75.35 -41.03,-95.46 -67.9,-184.27 -82.6,-267.32 -31.36,156.86 -10.03,338.83 82.6,554.3zm10018.24 0c-160.1,372.41 -1651.62,1393.11 -3256.85,-362.18 1547.58,1347.63 3106.4,425.2 3256.85,75.2 41.03,-95.46 67.9,-184.27 82.6,-267.32 31.36,156.86 10.03,338.83 -82.6,554.3z" style="fill:#a06859"/>
    <path class="HeadScream-Mediumfil16" d="M14968.79 11526.68c241.86,-338.84 653.04,-316.96 903.47,-215.3 873.96,354.81 566.17,1729.46 1288.75,2043.62 722.58,314.16 1514.41,581.19 1167.92,1525.27 -32.74,89.21 -162.55,222.72 -363.34,340.93 135.97,-93.35 225.73,-190.91 257.51,-261.55 375.72,-834.94 -539.51,-1090.49 -1262.09,-1404.65 -722.58,-314.16 -574.62,-978.99 -1159.9,-1872.87 -197.15,-301.11 -533.17,-328.1 -832.32,-155.45z" style="fill:#95169e"/>
    <path class="HeadScream-Mediumfil16" d="M12395.09 11526.68c-241.86,-338.84 -653.04,-316.96 -903.47,-215.3 -873.96,354.81 -566.17,1729.46 -1288.75,2043.62 -722.58,314.16 -1514.41,581.19 -1167.92,1525.27 32.74,89.21 162.55,222.72 363.34,340.93 -135.97,-93.35 -225.73,-190.91 -257.51,-261.55 -375.72,-834.94 539.51,-1090.49 1262.09,-1404.65 722.58,-314.16 574.62,-978.99 1159.9,-1872.87 197.15,-301.11 533.17,-328.1 832.32,-155.45z" style="fill:#37bbf7"/>
    <path class="HeadScream-Mediumfil17" d="M9140.78 14959.65c155.05,344.58 1687.75,1330.14 3252.01,-659.77 1564.26,-1989.91 -244.74,-3511.62 -830.02,-2617.75 -585.28,893.88 -437.32,1558.71 -1159.9,1872.87 -722.58,314.16 -1637.81,569.71 -1262.09,1404.65zm9082.32 0c-155.05,344.58 -1687.75,1330.14 -3252.01,-659.77 -1564.26,-1989.91 244.74,-3511.62 830.02,-2617.75 585.28,893.88 437.32,1558.71 1159.9,1872.87 722.58,314.16 1637.81,569.71 1262.09,1404.65z" style="fill:#3fe7b0"/>
    <path class="HeadScream-Mediumfil17" d="M9140.78 14959.65c36.99,82.21 152.55,200.88 328.1,306.94 -240.18,-674.16 559.9,-894.79 1197.21,-1163.4 664.58,-280.1 528.5,-872.84 1066.79,-1669.8 322.45,-477.39 1048.53,-181.81 1269.91,513.19 138.66,-1238.55 -998.59,-1938.63 -1440.02,-1264.45 -585.28,893.88 -437.32,1558.71 -1159.9,1872.87 -722.58,314.16 -1637.81,569.71 -1262.09,1404.65zm9082.32 0c-36.99,82.21 -152.55,200.88 -328.1,306.94 240.18,-674.16 -559.9,-894.79 -1197.21,-1163.4 -664.58,-280.1 -528.5,-872.84 -1066.79,-1669.8 -322.45,-477.39 -1048.53,-181.81 -1269.91,513.19 -138.66,-1238.55 998.59,-1938.63 1440.02,-1264.45 585.28,893.88 437.32,1558.71 1159.9,1872.87 722.58,314.16 1637.81,569.71 1262.09,1404.65z" style="fill:#1e05ba"/>
    <path class="HeadScream-Mediumfil18 HeadScream-Mediumstr0" d="M13681.94 19769.52c781.39,0 1012.47,-2819.95 1012.47,-3043.42 0,-223.46 -297.95,-670.39 -1012.47,-670.39 -714.52,0 -1012.47,446.93 -1012.47,670.39 0,223.47 231.08,3043.42 1012.47,3043.42z" style="fill:#9ca6ed"/>
    <path class="HeadScream-Mediumfil19 HeadScream-Mediumstr0" d="M13681.94 15246.97c-147.43,0 -544.26,361.8 -725.16,148.98 -180.9,-212.83 352.98,-847.35 725.16,-947.08 372.18,99.73 906.05,734.25 725.16,947.08 -180.89,212.82 -577.73,-148.98 -725.16,-148.98z" style="fill:#658cd0"/>
    <path class="HeadScream-Mediumfil7" d="M10881.86 16340.03c-228.04,492.58 -916.9,976.92 -1086.6,1056.78 -37.37,17.63 -81.98,1.62 -99.61,-35.75 -17.63,-37.37 -1.62,-81.98 35.75,-99.61 273.56,-128.73 445.56,-214.06 1150.46,-921.42z" style="fill:#e32c02"/>
    <path class="HeadScream-Mediumfil7" d="M16482.02 16340.03c228.04,492.58 916.9,976.92 1086.6,1056.78 37.37,17.63 81.98,1.62 99.61,-35.75 17.63,-37.37 1.62,-81.98 -35.75,-99.61 -273.56,-128.73 -445.56,-214.06 -1150.46,-921.42z" style="fill:#7fcb87"/>
    <path class="HeadScream-Mediumfil5 HeadScream-Mediumstr0" d="M13681.94 20908.15c898.55,0 1318.21,-708.74 1622.79,-1772.87 304.58,-1064.13 1365.3,-2261.98 2295.82,-1806.15 930.52,455.83 2548.5,-730.71 2548.5,-2369.47 0,-1638.76 -702.34,-1798.37 -712.98,-1936.71 -10.64,-138.34 -618.58,-5049.62 -5741.58,-5049.62 -4.24,0 -8.32,0.18 -12.55,0.19 -4.23,-0.01 -8.31,-0.19 -12.55,-0.19 -5123,0 -5730.94,4911.28 -5741.58,5049.62 -10.64,138.34 -712.98,297.95 -712.98,1936.71 0,1638.76 1617.98,2825.3 2548.5,2369.47 930.52,-455.83 1991.24,742.02 2295.82,1806.15 304.58,1064.13 724.24,1772.87 1622.79,1772.87zm-4541.16 -5948.5c155.05,344.58 1687.75,1330.14 3252.01,-659.77 1564.26,-1989.91 -244.74,-3511.62 -830.02,-2617.75 -585.28,893.88 -437.32,1558.71 -1159.9,1872.87 -722.58,314.16 -1637.81,569.71 -1262.09,1404.65zm9082.32 0c-155.05,344.58 -1687.75,1330.14 -3252.01,-659.77 -1564.26,-1989.91 244.74,-3511.62 830.02,-2617.75 585.28,893.88 437.32,1558.71 1159.9,1872.87 722.58,314.16 1637.81,569.71 1262.09,1404.65z" style="fill:#575d11"/>
   </g>
   <g>
    <path class="HeadScream-Mediumfil16 HeadScream-Mediumstr2" d="M13681.94 8558.24c-2811.73,589.43 -8134.87,5261.51 -6278.04,8288 146.21,-2399.51 2238.11,-4032.56 3985.74,-4924.85 214.09,-454.21 513.56,-616.1 941.99,-428.08 635.88,-252.5 1150.75,-383.76 1350.31,-383.76 200.49,0 710.2,128.89 1350.3,383.76 422.25,-166.52 750.18,-41.03 944.04,428.52 1746.99,891.34 3837.39,2523.3 3983.7,4924.41 1856.83,-3026.49 -3466.31,-7698.57 -6278.04,-8288z" style="fill:#3e3647"/>
    <path class="HeadScream-Mediumfil20" d="M14546.24 5885.66c-2219.97,0 -4029.15,1972.46 -5353.89,3252.42 -1239.3,1197.39 -1873.82,2600.82 -2132.56,4261.74 -207.83,1334.15 -491.15,2525.33 370.04,3484.01 -9.27,-20.43 -17.89,-40.81 -26.65,-61.19 -59.63,-167.89 -115.12,-321.42 -161.27,-469.69 -154.19,-599.36 -108.09,-1174.96 67.94,-1707.66 358.29,-972.79 2532.05,-2985.54 3601.57,-3144.3 1069.52,-158.76 1508.12,-1225.9 2770.52,-1225.9 1262.4,0 1701,1067.14 2770.52,1225.9 1069.52,158.76 3243.28,2171.51 3601.57,3144.3 175.96,532.7 222.22,1108.28 67.94,1707.66 -46.15,148.27 -101.64,301.8 -161.27,469.69 -8.78,20.39 -17.38,40.76 -26.65,61.19 861.19,-958.68 577.87,-2149.86 370.04,-3484.01 -258.74,-1660.92 -893.25,-3064.33 -2132.56,-4261.74 -908.27,-877.56 -1686.63,-1790.46 -2768.34,-2277.69 -496.01,-223.41 1363.02,-974.73 -856.95,-974.73z" style="fill:#b87147"/>
    <path class="HeadScream-Mediumfil21" d="M9425.12 12287.26c547.98,-417.29 1092.13,-727.76 1486.3,-786.27 1069.52,-158.76 1508.12,-1225.9 2770.52,-1225.9 1262.4,0 1701,1067.14 2770.52,1225.9 1069.52,158.76 3243.28,2171.51 3601.57,3144.3 -358.29,-972.79 -2392.63,-3648.79 -3427.02,-3523.31 -1034.39,125.48 -1325.01,-1313.73 -2795.14,-1164.39 -1470.13,149.34 -1859.75,1164.15 -2929.27,1322.91 -412.96,61.3 -951.39,471 -1477.48,1006.76z" style="fill:#621484"/>
    <path class="HeadScream-Mediumfil5 HeadScream-Mediumstr1" d="M14546.24 5885.66c-2219.97,0 -4029.15,1972.46 -5353.89,3252.42 -1239.3,1197.39 -1873.82,2600.82 -2132.56,4261.74 -207.83,1334.15 -491.15,2525.33 370.04,3484.01 -9.27,-20.43 -17.89,-40.81 -26.65,-61.19 -59.63,-167.89 -115.12,-321.42 -161.27,-469.69 -154.19,-599.36 -108.09,-1174.96 67.94,-1707.66 358.29,-972.79 2532.05,-2985.54 3601.57,-3144.3 1069.52,-158.76 1508.12,-1225.9 2770.52,-1225.9 1262.4,0 1701,1067.14 2770.52,1225.9 1069.52,158.76 3243.28,2171.51 3601.57,3144.3 175.96,532.7 222.22,1108.28 67.94,1707.66 -46.15,148.27 -101.64,301.8 -161.27,469.69 -8.78,20.39 -17.38,40.76 -26.65,61.19 861.19,-958.68 577.87,-2149.86 370.04,-3484.01 -258.74,-1660.92 -893.25,-3064.33 -2132.56,-4261.74 -908.27,-877.56 -1686.63,-1790.46 -2768.34,-2277.69 -496.01,-223.41 1363.02,-974.73 -856.95,-974.73z" style="fill:#8ffaf3"/>
    <path class="HeadScream-Mediumfil16" d="M8809.63 9535.65c-989.98,1107.78 -1519.21,2383.66 -1749.84,3864.17 -145.09,931.4 -523.66,2646.44 315.3,3355.67 -650,-1603.65 171.91,-2864.03 1392.54,-3918.54 -1142.63,-250.17 -920.96,-1620.12 42,-3301.3z" style="fill:#6a98b0"/>
    <path class="HeadScream-Mediumfil22" d="M11559.06 7353.31c1033.14,-629.09 2721.09,-1380.56 3588.66,-1189.86 192.68,42.35 -317.44,760.04 -137.85,827.26 1242.99,465.28 2151.02,1458.42 2427.24,2041.13 349.82,737.94 -1188.27,-996.22 -2705.48,-1692.73 -265.63,-121.95 76.94,-524.69 -203.36,-616.37 -537.86,-175.93 -2273.37,259.02 -2969.21,630.57z" style="fill:#e1e44e"/>
    <path class="HeadScream-Mediumfil16" d="M18554.25 9535.65c989.98,1107.78 1519.21,2383.66 1749.84,3864.17 145.09,931.4 523.66,2646.44 -315.3,3355.67 650,-1603.65 -99.57,-2848.77 -1472.04,-3990.2 1142.63,-250.17 1000.46,-1548.46 37.5,-3229.64z" style="fill:#63a300"/>
   </g>
  </g>
 </g></svg>