<svg xmlns="http://www.w3.org/2000/svg" xmlns:xlink="http://www.w3.org/1999/xlink" style="shape-rendering:geometricPrecision; text-rendering:geometricPrecision; image-rendering:optimizeQuality; fill-rule:evenodd; clip-rule:evenodd" version="1.1" viewBox="0 0 29000 29000" xml:space="preserve"><defs><style type="text/css">.HairBack-Cat0fil22 {fill:none}
.Tail-Cat6fil31 {fill:url(#Tail-Cat6id927)}
.Tail-Cat6fil26 {fill:#edfff9}
.Tail-Cat6fil14 {fill:black;fill-opacity:0.200000}
.Tail-Cat6fil32 {fill:black;fill-rule:nonzero}
.Tail-Cat6fil22 {fill:none}
.Tail-Cat6str0 {stroke:black;stroke-width:150;stroke-linecap:round;stroke-linejoin:round}
.RightFoot-Cat2fil34 {fill:url(#RightFoot-Cat2id448)}
.RightFoot-Cat2fil14 {fill:black;fill-opacity:0.200000}
.RightFoot-Cat2fil22 {fill:none}
.RightFoot-Cat2fil32 {fill:black;fill-rule:nonzero}
.RightLeg-Cat5fil42 {fill:url(#RightLeg-Cat5id200)}
.RightLeg-Cat5fil32 {fill:black;fill-rule:nonzero}
.RightLeg-Cat5fil14 {fill:black;fill-opacity:0.200000}
.LeftFoot-Cat2fil43 {fill:url(#LeftFoot-Cat2id634)}
.LeftFoot-Cat2fil14 {fill:black;fill-opacity:0.200000}
.LeftFoot-Cat2fil22 {fill:none}
.LeftFoot-Cat2fil32 {fill:black;fill-rule:nonzero}
.LeftLeg-Cat5fil47 {fill:url(#LeftLeg-Cat5id199)}
.LeftLeg-Cat5fil32 {fill:black;fill-rule:nonzero}
.LeftLeg-Cat5fil14 {fill:black;fill-opacity:0.200000}
.RightHand-Cat2fil48 {fill:url(#RightHand-Cat2id246)}
.RightHand-Cat2fil50 {fill:url(#RightHand-Cat2id439)}
.RightHand-Cat2fil14 {fill:black;fill-opacity:0.200000}
.RightHand-Cat2fil22 {fill:none}
.RightHand-Cat2str0 {stroke:black;stroke-width:150;stroke-linecap:round;stroke-linejoin:round}
.RightPaw-Cat2fil53 {fill:url(#RightPaw-Cat2id81)}
.RightPaw-Cat2fil14 {fill:black;fill-opacity:0.200000}
.RightPaw-Cat2fil32 {fill:black;fill-rule:nonzero}
.LeftHand-Cat2fil55 {fill:url(#LeftHand-Cat2id849)}
.LeftHand-Cat2fil58 {fill:url(#LeftHand-Cat2id207)}
.LeftHand-Cat2fil14 {fill:black;fill-opacity:0.200000}
.LeftHand-Cat2fil22 {fill:none}
.LeftHand-Cat2str0 {stroke:black;stroke-width:150;stroke-linecap:round;stroke-linejoin:round}
.LeftPaw-Cat2fil60 {fill:url(#LeftPaw-Cat2id79)}
.LeftPaw-Cat2fil14 {fill:black;fill-opacity:0.200000}
.LeftPaw-Cat2fil32 {fill:black;fill-rule:nonzero}
.Body-Cat2fil62 {fill:url(#Body-Cat2id318)}
.Body-Cat2fil14 {fill:black;fill-opacity:0.200000}
.Body-Cat2fil32 {fill:black;fill-rule:nonzero}
.Body-Cat2fil64 {fill:url(#Body-Cat2id245)}
.Ears-Cat0fil68 {fill:url(#Ears-Cat0id64)}
.Ears-Cat0fil69 {fill:url(#Ears-Cat0id515)}
.Ears-Cat0fil14 {fill:black;fill-opacity:0.200000}
.Ears-Cat0fil71 {fill:url(#Ears-Cat0id104)}
.Ears-Cat0fil72 {fill:url(#Ears-Cat0id361)}
.Ears-Cat0fil67 {fill:url(#Ears-Cat0id308)}
.Ears-Cat0str0 {stroke:black;stroke-width:150;stroke-linecap:round;stroke-linejoin:round}
.Ears-Cat0fil70 {fill:url(#Ears-Cat0id399)}
.Head-Cat3fil141 {fill:url(#Head-Cat3id37)}
.Head-Cat3fil14 {fill:black;fill-opacity:0.200000}
.Head-Cat3fil32 {fill:black;fill-rule:nonzero}
.Head-Cat3fil142 {fill:url(#Head-Cat3id753)}
.Mouth-Cat0fil22 {fill:none}
.Mouth-Cat0str0 {stroke:black;stroke-width:150;stroke-linecap:round;stroke-linejoin:round}
.Mouth-Cat0fil100 {fill:black}
.Eyes-Cat9fil201 {fill:url(#Eyes-Cat9id866)}
.Eyes-Cat9fil202 {fill:url(#Eyes-Cat9id607)}
.Eyes-Cat9fil157 {fill:black;fill-opacity:0.501961}
.Eyes-Cat9fil203 {fill:url(#Eyes-Cat9id616)}
.Eyes-Cat9fil152 {fill:white}
.Eyes-Cat9fil204 {fill:white;fill-rule:nonzero}
.Eyes-Cat9fil205 {fill:url(#Eyes-Cat9id965)}
.Eyes-Cat9fil206 {fill:url(#Eyes-Cat9id606)}
.Eyes-Cat9fil207 {fill:url(#Eyes-Cat9id802)}
.Eyes-Cat9fil155 {fill:#646568}
.Eyes-Cat9fil14 {fill:black;fill-opacity:0.200000}
.Eyes-Cat9fil22 {fill:none}
.Eyes-Cat9str4 {stroke:black;stroke-width:150}
.Moustache-Cat1fil22 {fill:none}
.Moustache-Cat1str5 {stroke:black;stroke-width:100;stroke-linecap:round;stroke-linejoin:round}
.Nose-Cat0fil221 {fill:url(#Nose-Cat0id921)}
.Nose-Cat0str0 {stroke:black;stroke-width:150;stroke-linecap:round;stroke-linejoin:round}
.Hair-Cat6fil14 {fill:black;fill-opacity:0.200000}
.Hair-Cat6fil228 {fill:url(#Hair-Cat6id139)}
.Hair-Cat6str0 {stroke:black;stroke-width:150;stroke-linecap:round;stroke-linejoin:round}
</style><linearGradient gradientUnits="objectBoundingBox" id="Tail-Cat6id927" x1="26.3028%" x2="73.6972%" xlink:href="#Tail-Cat6id925" y1="80.6558%" y2="19.3442%">
  </linearGradient><linearGradient gradientUnits="userSpaceOnUse" id="RightFoot-Cat2id448" x1="16353.3" x2="16006.4" y1="25487.2" y2="23702.7">
   <stop offset="0" style="stop-opacity:1; stop-color:#646568"/>
   <stop offset="0.368627" style="stop-opacity:1; stop-color:#d6c89a"/>
   <stop offset="0.690196" style="stop-opacity:1; stop-color:#fdf0c4"/>
   <stop offset="1" style="stop-opacity:1; stop-color:#fdf0c4"/>
  </linearGradient><linearGradient gradientUnits="userSpaceOnUse" id="RightLeg-Cat5id200" x1="15892.3" x2="15336.7" xlink:href="#RightLeg-Cat5id17" y1="24311.5" y2="21160.9">
  </linearGradient><linearGradient gradientUnits="userSpaceOnUse" id="LeftFoot-Cat2id634" x1="10992.4" x2="11375.5" xlink:href="#LeftFoot-Cat2id448" y1="25464.3" y2="23725.6">
  </linearGradient><linearGradient gradientUnits="userSpaceOnUse" id="LeftLeg-Cat5id199" x1="11471.6" x2="12027.1" xlink:href="#LeftLeg-Cat5id17" y1="24311.5" y2="21160.8">
  </linearGradient><linearGradient gradientUnits="objectBoundingBox" id="RightHand-Cat2id246" x1="31.4718%" x2="68.5282%" y1="2.00058%" y2="97.9991%">
   <stop offset="0" style="stop-opacity:1; stop-color:#d6c89a"/>
   <stop offset="0.878431" style="stop-opacity:1; stop-color:#fdf0c4"/>
   <stop offset="1" style="stop-opacity:1; stop-color:#fdf0c4"/>
  </linearGradient><linearGradient gradientUnits="userSpaceOnUse" id="RightHand-Cat2id439" x1="16555.8" x2="16979.3" xlink:href="#RightHand-Cat2id5" y1="17720.6" y2="19301.2">
  </linearGradient><linearGradient gradientUnits="userSpaceOnUse" id="RightPaw-Cat2id81" x1="18740" x2="17946.9" xlink:href="#RightPaw-Cat2id79" y1="21672.1" y2="19971.3">
  </linearGradient><linearGradient gradientUnits="objectBoundingBox" id="LeftHand-Cat2id849" x1="71.9477%" x2="28.0523%" xlink:href="#LeftHand-Cat2id246" y1="2.1954%" y2="97.8043%">
  </linearGradient><linearGradient gradientUnits="userSpaceOnUse" id="LeftHand-Cat2id207" x1="9964.1" x2="9964.1" xlink:href="#LeftHand-Cat2id5" y1="18017.8" y2="20836.4">
  </linearGradient><linearGradient gradientUnits="userSpaceOnUse" id="LeftPaw-Cat2id79" x1="8623.93" x2="9417.01" y1="21672.1" y2="19971.3">
   <stop offset="0" style="stop-opacity:1; stop-color:#646568"/>
   <stop offset="0.780392" style="stop-opacity:1; stop-color:#fdf0c4"/>
   <stop offset="1" style="stop-opacity:1; stop-color:#fdf0c4"/>
  </linearGradient><linearGradient gradientUnits="objectBoundingBox" id="Body-Cat2id318" x1="50%" x2="50%" xlink:href="#Body-Cat2id36" y1="0.000186021%" y2="100%">
  </linearGradient><linearGradient gradientUnits="userSpaceOnUse" id="Body-Cat2id245" x1="13681.9" x2="13681.9" y1="22974.9" y2="18175.1">
   <stop offset="0" style="stop-opacity:1; stop-color:#edfff9"/>
   <stop offset="0.65098" style="stop-opacity:1; stop-color:#edfff9"/>
   <stop offset="1" style="stop-opacity:1; stop-color:#d5f2e9"/>
  </linearGradient><linearGradient gradientUnits="userSpaceOnUse" id="Ears-Cat0id64" x1="7879.4" x2="11484.3" xlink:href="#Ears-Cat0id61" y1="9322.43" y2="11319">
  </linearGradient><linearGradient gradientUnits="userSpaceOnUse" id="Ears-Cat0id515" x1="8552.14" x2="10215.3" xlink:href="#Ears-Cat0id114" y1="9019.26" y2="9752.2">
  </linearGradient><linearGradient gradientUnits="userSpaceOnUse" id="Ears-Cat0id104" x1="19484.5" x2="15879.6" xlink:href="#Ears-Cat0id61" y1="9321.61" y2="11319.8">
  </linearGradient><linearGradient gradientUnits="userSpaceOnUse" id="Ears-Cat0id361" x1="18811.7" x2="17148.6" xlink:href="#Ears-Cat0id114" y1="9018.96" y2="9752.5">
  </linearGradient><linearGradient gradientUnits="userSpaceOnUse" id="Ears-Cat0id308" x1="7144.48" x2="11346" xlink:href="#Ears-Cat0id70" y1="9230.74" y2="11165.7">
  </linearGradient><linearGradient gradientUnits="userSpaceOnUse" id="Ears-Cat0id399" x1="20219.2" x2="16018" xlink:href="#Ears-Cat0id70" y1="9232.04" y2="11164.4">
  </linearGradient><linearGradient gradientUnits="userSpaceOnUse" id="Head-Cat3id37" x1="13681.9" x2="13681.9" xlink:href="#Head-Cat3id36" y1="17936.7" y2="7484.8">
  </linearGradient><linearGradient gradientUnits="userSpaceOnUse" id="Head-Cat3id753" x1="13681.9" x2="13681.9" xlink:href="#Head-Cat3id5" y1="16839.3" y2="8923.68">
  </linearGradient><linearGradient gradientUnits="userSpaceOnUse" id="Eyes-Cat9id866" x1="10826.7" x2="10069.3" xlink:href="#Eyes-Cat9id27" y1="14686.2" y2="11306.9">
  </linearGradient><linearGradient gradientUnits="userSpaceOnUse" id="Eyes-Cat9id607" x1="9055.31" x2="12092" xlink:href="#Eyes-Cat9id57" y1="13051.1" y2="13051.1">
  </linearGradient><linearGradient gradientUnits="userSpaceOnUse" id="Eyes-Cat9id616" x1="10425.3" x2="11023" xlink:href="#Eyes-Cat9id384" y1="11521.2" y2="14050.8">
  </linearGradient><linearGradient gradientUnits="userSpaceOnUse" id="Eyes-Cat9id965" x1="16537.2" x2="17294.6" xlink:href="#Eyes-Cat9id27" y1="14686.2" y2="11306.9">
  </linearGradient><linearGradient gradientUnits="userSpaceOnUse" id="Eyes-Cat9id606" x1="15271.9" x2="18308.6" xlink:href="#Eyes-Cat9id57" y1="13051.1" y2="13051.1">
  </linearGradient><linearGradient gradientUnits="userSpaceOnUse" id="Eyes-Cat9id802" x1="16938.5" x2="16340.9" xlink:href="#Eyes-Cat9id384" y1="11521.2" y2="14050.8">
  </linearGradient><linearGradient gradientUnits="userSpaceOnUse" id="Nose-Cat0id921" x1="13681.9" x2="13681.9" y1="13407.9" y2="13968.6">
   <stop offset="0" style="stop-opacity:1; stop-color:#FFCCCC"/>
   <stop offset="1" style="stop-opacity:1; stop-color:#DB9092"/>
  </linearGradient><linearGradient gradientUnits="userSpaceOnUse" id="Hair-Cat6id139" x1="13266.7" x2="18923.3" xlink:href="#Hair-Cat6id25" y1="6095.38" y2="13797.9">
  </linearGradient><linearGradient gradientUnits="objectBoundingBox" id="Tail-Cat6id925" x1="56.9199%" x2="43.0801%" y1="93.4294%" y2="6.57062%">
   <stop offset="0" style="stop-opacity:1; stop-color:#d6c89a"/>
   <stop offset="1" style="stop-opacity:1; stop-color:#fffaeb"/>
  </linearGradient><linearGradient gradientUnits="userSpaceOnUse" id="RightLeg-Cat5id17" x1="11873.5" x2="11873.5" y1="24310" y2="21166.6">
   <stop offset="0" style="stop-opacity:1; stop-color:#fffaeb"/>
   <stop offset="0.431373" style="stop-opacity:1; stop-color:#fffaeb"/>
   <stop offset="1" style="stop-opacity:1; stop-color:#fdf0c4"/>
  </linearGradient><linearGradient gradientUnits="userSpaceOnUse" id="LeftFoot-Cat2id448" x1="16353.3" x2="16006.4" y1="25487.2" y2="23702.7">
   <stop offset="0" style="stop-opacity:1; stop-color:#646568"/>
   <stop offset="0.368627" style="stop-opacity:1; stop-color:#d6c89a"/>
   <stop offset="0.690196" style="stop-opacity:1; stop-color:#fdf0c4"/>
   <stop offset="1" style="stop-opacity:1; stop-color:#fdf0c4"/>
  </linearGradient><linearGradient gradientUnits="userSpaceOnUse" id="LeftLeg-Cat5id17" x1="11873.5" x2="11873.5" y1="24310" y2="21166.6">
   <stop offset="0" style="stop-opacity:1; stop-color:#fffaeb"/>
   <stop offset="0.431373" style="stop-opacity:1; stop-color:#fffaeb"/>
   <stop offset="1" style="stop-opacity:1; stop-color:#fdf0c4"/>
  </linearGradient><linearGradient gradientUnits="objectBoundingBox" id="RightHand-Cat2id5" x1="50%" x2="50%" y1="0%" y2="100%">
   <stop offset="0" style="stop-opacity:1; stop-color:#646568"/>
   <stop offset="1" style="stop-opacity:1; stop-color:#8f8f8f"/>
  </linearGradient><linearGradient gradientUnits="userSpaceOnUse" id="RightPaw-Cat2id79" x1="8623.93" x2="9417.01" y1="21672.1" y2="19971.3">
   <stop offset="0" style="stop-opacity:1; stop-color:#646568"/>
   <stop offset="0.780392" style="stop-opacity:1; stop-color:#fdf0c4"/>
   <stop offset="1" style="stop-opacity:1; stop-color:#fdf0c4"/>
  </linearGradient><linearGradient gradientUnits="objectBoundingBox" id="LeftHand-Cat2id246" x1="31.4718%" x2="68.5282%" y1="2.00058%" y2="97.9991%">
   <stop offset="0" style="stop-opacity:1; stop-color:#d6c89a"/>
   <stop offset="0.878431" style="stop-opacity:1; stop-color:#fdf0c4"/>
   <stop offset="1" style="stop-opacity:1; stop-color:#fdf0c4"/>
  </linearGradient><linearGradient gradientUnits="objectBoundingBox" id="LeftHand-Cat2id5" x1="50%" x2="50%" y1="0%" y2="100%">
   <stop offset="0" style="stop-opacity:1; stop-color:#646568"/>
   <stop offset="1" style="stop-opacity:1; stop-color:#8f8f8f"/>
  </linearGradient><linearGradient gradientUnits="userSpaceOnUse" id="Body-Cat2id36" x1="13681.9" x2="13681.9" y1="17936.7" y2="7484.8">
   <stop offset="0" style="stop-opacity:1; stop-color:#d6c89a"/>
   <stop offset="0.0313725" style="stop-opacity:1; stop-color:#d6c89a"/>
   <stop offset="0.529412" style="stop-opacity:1; stop-color:#fdf0c4"/>
   <stop offset="1" style="stop-opacity:1; stop-color:#fffaeb"/>
  </linearGradient><linearGradient gradientUnits="userSpaceOnUse" id="Ears-Cat0id61" x1="6344" x2="10713.3" y1="10122.8" y2="11711.6">
   <stop offset="0" style="stop-opacity:1; stop-color:#F5E2E2"/>
   <stop offset="1" style="stop-opacity:1; stop-color:#C49D9D"/>
  </linearGradient><linearGradient gradientUnits="userSpaceOnUse" id="Ears-Cat0id114" x1="7986.1" x2="9822.34" y1="9926.47" y2="10545.7">
   <stop offset="0" style="stop-opacity:1; stop-color:#E4BBB9"/>
   <stop offset="1" style="stop-opacity:1; stop-color:#B88383"/>
  </linearGradient><linearGradient gradientUnits="userSpaceOnUse" id="Ears-Cat0id70" x1="20208.3" x2="17218.2" y1="8096.38" y2="11659.9">
   <stop offset="0" style="stop-opacity:1; stop-color:#edfff9"/>
   <stop offset="1" style="stop-opacity:1; stop-color:#d5f2e9"/>
  </linearGradient><linearGradient gradientUnits="userSpaceOnUse" id="Head-Cat3id36" x1="13681.9" x2="13681.9" y1="17936.7" y2="7484.8">
   <stop offset="0" style="stop-opacity:1; stop-color:#d6c89a"/>
   <stop offset="0.0313725" style="stop-opacity:1; stop-color:#d6c89a"/>
   <stop offset="0.529412" style="stop-opacity:1; stop-color:#fdf0c4"/>
   <stop offset="1" style="stop-opacity:1; stop-color:#fffaeb"/>
  </linearGradient><linearGradient gradientUnits="objectBoundingBox" id="Head-Cat3id5" x1="50%" x2="50%" y1="0%" y2="100%">
   <stop offset="0" style="stop-opacity:1; stop-color:#646568"/>
   <stop offset="1" style="stop-opacity:1; stop-color:#8f8f8f"/>
  </linearGradient><linearGradient gradientUnits="userSpaceOnUse" id="Eyes-Cat9id27" x1="16937.6" x2="16937.6" y1="14961.3" y2="11448.6">
   <stop offset="0" style="stop-opacity:1; stop-color:#805900"/>
   <stop offset="1" style="stop-opacity:1; stop-color:black"/>
  </linearGradient><linearGradient gradientUnits="objectBoundingBox" id="Eyes-Cat9id57" x1="100%" x2="0%" y1="50.0003%" y2="50.0003%">
   <stop offset="0" style="stop-opacity:1; stop-color:#805900"/>
   <stop offset="0.501961" style="stop-opacity:1; stop-color:#ffc029"/>
   <stop offset="1" style="stop-opacity:1; stop-color:#805900"/>
  </linearGradient><linearGradient gradientUnits="userSpaceOnUse" id="Eyes-Cat9id384" x1="16417.8" x2="16417.8" y1="11784.3" y2="14068.5">
   <stop offset="0" style="stop-opacity:1; stop-color:black"/>
   <stop offset="0.45" style="stop-opacity:1; stop-color:black"/>
   <stop offset="1" style="stop-opacity:1; stop-color:#664700"/>
  </linearGradient><linearGradient gradientUnits="userSpaceOnUse" id="Hair-Cat6id25" x1="13681.9" x2="13681.9" y1="13428.9" y2="17918.9">
   <stop offset="0" style="stop-opacity:1; stop-color:#c1714f"/>
   <stop offset="0.290196" style="stop-opacity:1; stop-color:#c1714f"/>
   <stop offset="1" style="stop-opacity:1; stop-color:#a85734"/>
  </linearGradient></defs><g id="HairBack-Cat0">
 <animateTransform additive="sum" attributeName="transform" dur="10" repeatCount="indefinite" type="translate" values="0;0 200;0;0 200;0;0 200;0;0 200;0"/>
  <rect class="HairBack-Cat0fil22" height="890" width="890" x="13237" y="6590"/>
 </g><g id="Tail-Cat6">
  <path class="Tail-Cat6fil31" d="M12493 21526c-108,-680 356,-1318 1035,-1426 680,-108 1318,356 1426,1035 72,449 608,789 1013,871 739,150 1483,-534 1408,-1680 -158,-2421 1027,-5777 4064,-5078 111,31 166,90 145,159 -33,107 -311,154 -146,195 2925,724 2687,3276 1452,5366 -27,45 -121,128 -214,120 -167,-15 -170,-375 -233,-240 -388,832 -900,1361 -1351,1361 -340,-1 -479,-524 -569,-313 -571,1351 -2022,2423 -3323,2632 -1260,201 -2607,-168 -3570,-1011 -591,-519 -1010,-1199 -1137,-1991z" style="fill:#b49eef"/>
  <path class="Tail-Cat6fil26" d="M23454 19790c-146,399 -338,796 -564,1178 -27,45 -121,128 -214,120 -167,-15 -170,-375 -233,-240 -388,832 -900,1361 -1351,1361 -262,-1 -405,-312 -498,-358l-3 -8c-336,-494 -535,-1000 -668,-1511 -264,-1011 230,-1403 99,-2233 -101,-639 469,-1155 810,-657 675,987 1062,451 1598,580 641,154 1007,639 1024,1768z" style="fill:#01cfdb"/>
  <path class="Tail-Cat6fil14" d="M12493 21526c-26,-167 -18,-332 19,-487 213,-178 462,-344 585,-418 304,-15 814,942 1117,926 875,2545 4568,3180 6172,593 -8,32 -18,63 -27,94 -653,1189 -1969,2103 -3159,2294 -1260,201 -2607,-168 -3570,-1011 -591,-519 -1010,-1199 -1137,-1991z" style="fill:#ce81d2"/>
  <path class="Tail-Cat6fil22 Tail-Cat6str0" d="M12493 21526c-108,-680 356,-1318 1035,-1426 680,-108 1318,356 1426,1035 72,449 608,789 1013,871 739,150 1483,-534 1408,-1680 -158,-2421 1027,-5777 4064,-5078 111,31 166,90 145,159 -33,107 -311,154 -146,195 2925,724 2530,3652 1546,5232 -66,105 -215,262 -308,254 -167,-15 -170,-375 -233,-240 -388,832 -900,1361 -1351,1361 -340,-1 -479,-524 -569,-313 -571,1351 -2022,2423 -3323,2632 -1260,201 -2607,-168 -3570,-1011 -591,-519 -1010,-1199 -1137,-1991z" style="fill:#dcd471"/>
  <path class="Tail-Cat6fil14" d="M22029 21494c-153,311 -399,598 -760,695 -667,178 -1177,-1232 -1355,-1898 -68,-160 -245,81 -398,75 -284,-206 -410,-617 -481,-903 -14,-55 -63,-427 -73,-471 79,276 473,1128 815,914 670,-419 881,2197 2252,1588z" style="fill:#f9f2c2"/>
  <path class="Tail-Cat6fil32" d="M20750 21900c25,33 19,80 -14,105 -33,25 -80,19 -105,-14 -170,-223 -337,-492 -482,-803 -123,-262 -229,-555 -309,-878 -15,9 -32,20 -50,32 -116,74 -262,168 -396,42 -103,-97 -205,-253 -290,-447 -56,-127 -267,-730 -144,-1113 27,388 227,930 281,1054 77,174 167,314 256,397 48,46 139,-13 212,-59 45,-30 85,-56 126,-65 70,-17 121,3 142,90 77,324 184,619 308,884 140,301 302,561 465,775z" style="fill:#9e44a9"/>
 </g><g id="RightFoot-Cat2">
  <path class="RightFoot-Cat2fil34" d="M17107 25230c-124,214 -404,285 -611,106 -71,70 -277,145 -526,65 -410,-131 -508,-461 -851,-710 -221,-159 -124,-477 -114,-668 364,340 783,-165 1076,-248 374,-102 737,158 534,413 199,95 520,237 673,411 169,192 121,631 -181,631z" style="fill:#05282e"/>
  <path class="RightFoot-Cat2fil14" d="M17107 25230c-124,214 -404,285 -611,106 -71,70 -277,145 -526,65 -410,-131 -518,-492 -872,-726 -156,-103 -135,-387 -103,-573 18,-14 37,-27 56,-38 -60,533 1445,1528 1433,860 214,342 596,186 545,-150 127,134 271,-14 143,-274 182,62 215,288 209,441 -17,153 -106,289 -274,289z" style="fill:#de168a"/>
  <path class="RightFoot-Cat2fil22" d="M16655 24186c278,231 480,239 633,413 169,192 121,631 -181,631 -124,214 -404,285 -611,106 -71,70 -277,145 -526,65 -410,-131 -520,-489 -872,-726 -156,-105 -138,-331 -109,-524" style="fill:#f6c818"/>
  <path class="RightFoot-Cat2fil32" d="M16703 24128c-31,-26 -78,-22 -105,10 -27,31 -22,79 9,105 144,120 266,182 373,236 100,50 184,92 252,169 81,92 97,256 55,370 -18,49 -49,94 -96,118 7,-269 -115,-534 -402,-526 186,95 268,253 247,592 -49,79 -127,137 -220,155 -79,15 -160,-2 -228,-45 38,-218 10,-484 -289,-538 139,98 163,330 142,511 -32,29 -98,60 -189,72 -75,9 -164,4 -260,-27 -221,-71 -352,-219 -489,-375 -104,-118 -211,-239 -363,-342 -57,-38 -82,-102 -91,-176 -11,-85 -1,-183 13,-274 15,-98 -130,-119 -144,-22 -16,102 -31,212 -18,314 14,114 57,216 157,282 136,92 236,206 333,317 151,171 295,335 557,419 119,38 230,44 323,32 93,-11 171,-41 226,-75 103,70 225,98 348,74 125,-24 233,-98 305,-202 136,-15 232,-107 279,-232 61,-166 34,-387 -84,-521 -86,-98 -183,-147 -296,-204 -100,-50 -214,-108 -345,-217z" style="fill:#abba58"/>
 </g><g id="LeftFoot-Cat2">
  <path class="LeftFoot-Cat2fil43" d="M10257 25230c124,214 404,285 611,106 71,70 277,145 526,65 410,-131 508,-461 851,-710 221,-159 124,-477 114,-668 -364,340 -783,-165 -1076,-248 -374,-102 -737,158 -535,413 -198,95 -519,237 -672,411 -169,192 -121,631 181,631z" style="fill:#50434b"/>
  <path class="LeftFoot-Cat2fil14" d="M10257 25230c124,214 404,285 611,106 71,70 277,145 526,65 410,-131 518,-492 871,-726 157,-103 136,-387 103,-573 -17,-14 -36,-27 -55,-38 60,533 -1445,1528 -1434,860 -213,342 -595,186 -544,-150 -127,134 -271,-14 -143,-274 -182,62 -215,288 -209,441 17,153 106,289 274,289z" style="fill:#f5d791"/>
  <path class="LeftFoot-Cat2fil22" d="M10708 24186c-277,231 -480,239 -632,413 -169,192 -121,631 181,631 124,214 404,285 611,106 71,70 277,145 526,65 410,-131 520,-489 871,-726 156,-105 139,-331 110,-524" style="fill:#3fb183"/>
  <path class="LeftFoot-Cat2fil32" d="M10660 24128c32,-26 79,-22 106,10 26,31 22,79 -10,105 -143,120 -266,182 -373,236 -99,50 -183,92 -251,169 -81,92 -97,256 -55,370 18,49 49,94 96,118 -7,-269 115,-534 402,-526 -186,95 -268,253 -247,592 49,79 127,137 220,155 79,15 160,-2 228,-45 -39,-218 -11,-484 289,-538 -139,98 -163,330 -142,511 31,29 98,60 189,72 75,9 163,4 259,-27 222,-71 353,-219 490,-375 104,-118 210,-239 363,-342 56,-38 82,-102 91,-176 11,-85 0,-183 -14,-274 -14,-98 131,-119 145,-22 16,102 31,212 18,314 -14,114 -58,216 -157,282 -136,92 -236,206 -333,317 -151,171 -296,335 -557,419 -119,38 -230,44 -323,32 -93,-11 -171,-41 -226,-75 -103,70 -226,98 -349,74 -124,-24 -233,-98 -304,-202 -136,-15 -232,-107 -279,-232 -61,-166 -34,-387 84,-521 86,-98 183,-147 296,-204 100,-50 214,-108 344,-217z" style="fill:#a7736e"/>
 </g><g id="RightLeg-Cat5">
  <path class="RightLeg-Cat5fil42" d="M13682 23259c428,0 1377,183 1321,776 215,222 637,350 896,149 312,-243 712,-232 720,-12 204,-146 385,-347 515,-567 86,-145 69,65 171,-5 125,-83 18,-354 56,-477 45,-145 38,60 141,-19 124,-94 -29,-502 -214,-750 -134,-179 -272,-348 -381,-514 -200,-305 -431,-536 -577,-652 -621,860 -1470,1269 -2648,1328l0 743z" style="fill:#e54372"/>
  <path class="RightLeg-Cat5fil32" d="M16153 24335c378,39 750,-306 805,-367 86,-95 164,-198 230,-306 33,35 79,55 159,1 114,-77 100,-224 87,-362 -3,-35 -6,-70 -7,-100 30,9 69,2 121,-37 2,-2 3,-3 5,-5 81,-68 84,-206 39,-364 -46,-159 -140,-346 -244,-486 -44,-58 -84,-110 -124,-162 -91,-118 -179,-233 -255,-348 -90,-138 -187,-262 -281,-368 -117,-132 -228,-235 -312,-301 -32,-26 -79,-20 -105,12 -25,32 -20,79 13,105 78,61 181,158 292,283 88,100 181,218 268,351 76,116 168,235 262,358 42,54 84,110 122,160 94,125 179,294 220,437 27,94 36,171 16,201 -12,-17 -24,-31 -50,-39 -55,-16 -94,4 -124,103 -19,60 -12,136 -4,214 8,87 16,179 -13,215 -11,-15 -21,-28 -40,-39 -53,-31 -104,-25 -163,76 -63,106 -138,208 -222,300 -82,90 -337,338 -695,468z" style="fill:#3c2d54"/>
  <path class="RightLeg-Cat5fil14" d="M17134 23605c86,-145 69,65 171,-5 125,-83 18,-354 56,-477 45,-145 38,60 141,-19 124,-94 -29,-502 -214,-750 -134,-179 -272,-348 -381,-514 -159,-242 -337,-437 -476,-565l-1 -1 -157 727c26,48 52,95 79,143 387,-413 1000,815 782,1461z" style="fill:#f36f0d"/>
  <path class="RightLeg-Cat5fil32" d="M14990 24256c62,5 73,-66 79,-154 8,-118 -4,-261 -94,-417 0,-1 -1,-3 -2,-4 -100,-171 -247,-296 -460,-378 -208,-80 -478,-119 -831,-119l0 150c335,0 588,35 777,108 180,69 302,173 385,314 0,1 1,3 2,4 67,116 86,244 75,331 -9,69 -8,92 -9,108 -4,48 42,54 78,57z" style="fill:#512059"/>
 </g><g id="LeftLeg-Cat5">
  <path class="LeftLeg-Cat5fil47" d="M13682 23259c-428,0 -1377,183 -1321,776 -215,222 -637,350 -896,149 -312,-243 -712,-232 -720,-12 -204,-146 -385,-347 -515,-567 -86,-145 -69,65 -171,-5 -125,-83 -19,-354 -56,-477 -45,-145 -38,60 -141,-19 -124,-94 29,-502 214,-750 134,-179 272,-348 381,-514 200,-305 431,-536 577,-652 621,860 1470,1269 2648,1328l0 743z" style="fill:#8e403b"/>
  <path class="LeftLeg-Cat5fil32" d="M11210 24335c-377,39 -749,-306 -804,-367 -87,-95 -164,-198 -230,-306 -33,35 -79,55 -159,1 -114,-77 -100,-224 -88,-362 4,-35 7,-70 8,-100 -31,9 -69,2 -121,-37 -2,-2 -4,-3 -5,-5 -81,-68 -84,-206 -39,-364 46,-159 140,-346 244,-486 44,-58 84,-110 124,-162 91,-118 179,-233 255,-348 90,-138 187,-262 281,-368 117,-132 227,-235 312,-301 32,-26 79,-20 104,12 26,32 20,79 -12,105 -78,61 -182,158 -292,283 -88,100 -181,218 -268,351 -76,116 -168,235 -262,358 -42,54 -84,110 -122,160 -94,125 -179,294 -220,437 -27,94 -36,171 -16,201 12,-17 24,-31 50,-39 55,-16 94,4 124,103 19,60 12,136 4,214 -8,87 -17,179 13,215 10,-15 21,-28 40,-39 53,-31 104,-25 163,76 63,106 138,208 222,300 82,90 336,338 694,468z" style="fill:#a4c584"/>
  <path class="LeftLeg-Cat5fil14" d="M10230 23605c-86,-145 -69,65 -171,-5 -125,-83 -19,-354 -56,-477 -45,-145 -38,60 -141,-19 -124,-94 29,-502 214,-750 134,-179 272,-348 381,-514 159,-242 336,-437 476,-565l1 -1 157 727c-26,48 -53,95 -79,143 -388,-413 -1000,815 -782,1461z" style="fill:#cee2a9"/>
  <path class="LeftLeg-Cat5fil32" d="M12374 24256c-62,5 -74,-66 -80,-154 -7,-118 4,-261 94,-417 1,-1 2,-3 3,-4 100,-171 247,-296 460,-378 208,-80 478,-119 831,-119l0 150c-335,0 -588,35 -777,108 -180,69 -303,173 -385,314 -1,1 -1,3 -2,4 -67,116 -86,244 -75,331 9,69 8,92 9,108 4,48 -42,54 -78,57z" style="fill:#df14f1"/>
 </g><g id="RightHand-Cat2">
 <animateTransform additive="sum" attributeName="transform" dur="10" repeatCount="indefinite" type="translate" values="0;0 200;0;0 200;0;0 200;0;0 200;0"/>
  <path class="RightHand-Cat2fil48" d="M16231 17709c1007,345 1819,1401 2257,2165 289,504 -636,1265 -911,1014 -627,-574 -1209,-620 -1689,-543 -742,120 -1353,-1920 -931,-2545 422,-21 934,-40 1274,-91z" style="fill:#3bb122"/>
  <path class="RightHand-Cat2fil50" d="M16231 17709c520,178 988,546 1380,966 157,763 -773,729 -1017,478 -363,-372 -144,-1106 -687,-1408 118,-10 228,-22 324,-36z" style="fill:#95a32f"/>
  <path class="RightHand-Cat2fil14" d="M17512 20830c-602,-518 -1160,-559 -1624,-485 -171,28 -335,-59 -481,-217 -325,-472 753,-1098 1039,-656 261,403 734,847 1111,1126 -2,93 16,193 -45,232l0 0 0 0z" style="fill:#fc8c8b"/>
  <path class="RightHand-Cat2fil22 RightHand-Cat2str0" d="M16477 20333c340,47 711,200 1100,555 275,251 1152,-509 864,-1013 -438,-763 -1203,-1821 -2210,-2166 -90,-31 -172,-59 -246,-84" style="fill:#d70dce"/>
 </g><g id="LeftHand-Cat2">
 <animateTransform additive="sum" attributeName="transform" dur="10" repeatCount="indefinite" type="translate" values="0;0 200;0;0 200;0;0 200;0;0 200;0"/>
  <path class="LeftHand-Cat2fil55" d="M11133 17709c-1007,345 -1819,1401 -2257,2165 -289,504 636,1265 911,1014 627,-574 1209,-620 1689,-543 742,120 1352,-1920 931,-2545 -422,-21 -934,-40 -1274,-91z" style="fill:#a373c7"/>
  <path class="LeftHand-Cat2fil58" d="M10516 18018c-720,474 -1296,1256 -1640,1856 -46,80 -61,167 -53,255 56,61 669,593 1040,707 191,-163 494,-342 602,-390 -365,-206 -297,-903 93,-1071 760,-329 718,-1370 -42,-1357z" style="fill:#56082e"/>
  <path class="LeftHand-Cat2fil14" d="M9852 20830c602,-518 1160,-559 1624,-485 171,28 335,-59 481,-217 325,-472 -753,-1098 -1039,-656 -261,403 -734,847 -1111,1126 2,93 -16,193 45,232l0 0 0 0z" style="fill:#58bf38"/>
  <path class="LeftHand-Cat2fil22 LeftHand-Cat2str0" d="M10887 20333c-340,47 -711,200 -1100,555 -275,251 -1153,-509 -864,-1013 438,-763 1203,-1821 2210,-2166 90,-31 171,-59 246,-84" style="fill:#e40152"/>
 </g><g id="Body-Cat2">
 <animateTransform additive="sum" attributeName="transform" dur="10" repeatCount="indefinite" type="translate" values="0;0 200;0;0 200;0;0 200;0;0 200;0"/>
  <path class="Body-Cat2fil62" d="M13682 23135c-1548,0 -2752,-291 -2993,-1956 -147,-1014 391,-2287 991,-3420 634,80 1289,123 2002,142 713,-19 1367,-62 2002,-142 600,1133 1137,2406 991,3420 -242,1665 -1445,1956 -2993,1956z" style="fill:#ed2426"/>
  <path class="Body-Cat2fil14" d="M12621 23067c-1016,-156 -1749,-629 -1932,-1888 -75,-519 29,-1106 229,-1707 -223,2001 402,3257 1703,3595z" style="fill:#e67178"/>
  <path class="Body-Cat2fil32" d="M11012 22144c-250,-321 -348,-641 -397,-954 -59,-377 -24,-998 184,-1320 -78,421 -93,905 -36,1298 50,341 104,572 249,976z" style="fill:#d7f17e"/>
  <path class="Body-Cat2fil64" d="M13682 18774c-280,-805 -1716,-780 -2057,-36 -868,1890 -798,4237 2057,4237 2855,0 2925,-2347 2057,-4237 -341,-744 -1777,-769 -2057,36z" style="fill:#b7a6de"/>
  <path class="Body-Cat2fil14" d="M14743 23067c1016,-156 1749,-629 1932,-1888 75,-519 -29,-1106 -229,-1707 223,2001 -402,3257 -1703,3595z" style="fill:#f6ed76"/>
  <path class="Body-Cat2fil32" d="M16352 22144c250,-321 347,-641 397,-954 59,-377 24,-998 -184,-1320 78,421 93,905 36,1298 -50,341 -104,572 -249,976z" style="fill:#ea578a"/>
 </g><g id="RightPaw-Cat2">
 <animateTransform additive="sum" attributeName="transform" dur="10" repeatCount="indefinite" type="translate" values="0;0 200;0;0 200;0;0 200;0;0 200;0"/>
  <path class="RightPaw-Cat2fil53" d="M17501 20836c-31,672 506,1059 828,766 253,397 884,103 809,-293 203,-535 -266,-1036 -634,-1325 -19,-39 -57,-100 -86,-131 -353,616 -634,503 -778,573 -164,79 -11,352 -139,410z" style="fill:#6caf86"/>
  <path class="RightPaw-Cat2fil14" d="M17501 20836c-31,672 506,1059 828,766 341,429 911,24 754,-293 -66,297 -521,408 -658,-118 -113,412 -522,237 -614,26 -95,-216 -45,-462 -254,-619 -2,93 16,193 -45,232l0 0 0 1c-2,0 -3,1 -5,2l0 0 0 0 0 0 0 0 -1 1 0 0 0 0c-2,1 -3,2 -5,2z" style="fill:#415a61"/>
  <path class="RightPaw-Cat2fil32" d="M17437 20673c-79,-58 -168,63 -89,121 29,21 57,43 84,65 -4,302 99,551 246,712 55,61 118,109 183,144 146,76 312,82 454,-8 209,238 583,191 784,-34 86,-97 135,-221 116,-357 83,-234 46,-463 -52,-673 -133,-282 -403,-498 -588,-704 -34,-37 -181,-286 -215,-345 -58,-79 -178,10 -120,89 36,48 75,120 112,186 6,12 81,153 124,188 201,164 431,392 551,649 38,81 66,165 77,251 -53,-69 -156,-152 -275,-139 81,67 126,143 171,252 66,158 114,363 -12,503 -142,159 -412,205 -563,33 116,-164 118,-464 -80,-548 55,102 48,374 -55,477 -86,86 -222,119 -360,47 -49,-26 -97,-63 -141,-112 -128,-140 -218,-365 -207,-639 2,-22 -6,-44 -23,-60 -37,-34 -82,-68 -122,-98z" style="fill:#7e3805"/>
 </g><g id="LeftPaw-Cat2">
 <animateTransform additive="sum" attributeName="transform" dur="10" repeatCount="indefinite" type="translate" values="0;0 200;0;0 200;0;0 200;0;0 200;0"/>
  <path class="LeftPaw-Cat2fil60" d="M9863 20836c31,672 -506,1059 -828,766 -253,397 -884,103 -809,-293 -203,-535 266,-1036 634,-1325 19,-39 56,-100 86,-131 353,616 634,503 778,573 164,79 11,352 139,410z" style="fill:#dbbf20"/>
  <path class="LeftPaw-Cat2fil14" d="M9863 20836c31,672 -506,1059 -828,766 -341,429 -911,24 -754,-293 66,297 521,408 658,-118 113,412 522,237 614,26 95,-216 45,-462 254,-619 2,93 -16,193 45,232l0 0 0 1c2,0 3,1 5,2l0 0 0 0 0 0 0 0 0 1 1 0 0 0c1,1 3,2 5,2z" style="fill:#1166c3"/>
  <path class="LeftPaw-Cat2fil32" d="M9927 20673c79,-58 168,63 88,121 -28,21 -56,43 -83,65 4,302 -100,551 -246,712 -56,61 -118,109 -183,144 -146,76 -312,82 -454,-8 -209,238 -583,191 -784,-34 -86,-97 -135,-221 -116,-357 -83,-234 -46,-463 52,-673 133,-282 403,-498 588,-704 34,-37 180,-286 214,-345 59,-79 179,10 121,89 -36,48 -76,120 -112,186 -6,12 -81,153 -124,188 -201,164 -431,392 -551,649 -38,81 -66,165 -77,251 53,-69 156,-152 275,-139 -81,67 -126,143 -172,252 -65,158 -113,363 13,503 142,159 412,205 562,33 -115,-164 -117,-464 81,-548 -55,102 -48,374 55,477 86,86 222,119 359,47 50,-26 98,-63 142,-112 128,-140 218,-365 207,-639 -2,-22 6,-44 23,-60 37,-34 81,-68 122,-98z" style="fill:#d7ddcb"/>
 </g><g id="Ears-Cat0">
 <animateTransform additive="sum" attributeName="transform" dur="10" repeatCount="indefinite" type="translate" values="0;0 200;0;0 200;0;0 200;0;0 200;0"/>
  <g>
        <animateTransform additive="sum" attributeName="transform" dur="10" repeatCount="indefinite" type="rotate" values="0;0;0;0;0;0;0;0;0;0;0;0;0;0;0;0;0;0;0;0;0;0;0;0;0;0;0;0;0;0;0;0;0;0;0;0;0;0;0;0;0;0;0;0;0;0;0;0;0;0;0;0;0;0;0;0;0;0;0;0;0;0;0;0;0;0;0;0;0;0;0;0;0;0;0;0;0;0;0;0;10;0"/>
        <g>
            <animateTransform additive="sum" attributeName="transform" dur="10" repeatCount="indefinite" type="translate" values="0;0;0;0;0;0;0;0;0;0;0;0;0;0;0;0;0;0;0;0;0;0;0;0;0;0;0;0;0;0;0;0;0;0;0;0;0;0;0;0;0;0;0;0;0;0;0;0;0;0;0;0;0;0;0;0;0;0;0;0;0;0;0;0;0;0;0;0;0;0;0;0;0;0;0;0;0;0;0;0;2000 -2000;0"/>
            <path class="Ears-Cat0fil67 Ears-Cat0str0" d="M7795 13241c-878,-2399 -560,-5257 664,-6060 762,-166 2489,479 2735,1467 -981,1269 -2418,3325 -3399,4593z" style="fill:#d96e7f"/>
            <path class="Ears-Cat0fil68" d="M11439 10107c-514,-1394 -1686,-2244 -2770,-2361 -1193,1080 -691,4184 -280,5149 336,-892 1271,-2217 3050,-2788z" style="fill:#6ca31e"/>
            <path class="Ears-Cat0fil69" d="M10307 9475c-403,-919 -1635,-1210 -1816,-735 -184,482 525,613 873,740 -252,-37 -827,-6 -797,402 32,431 476,384 938,360 145,-203 636,-645 802,-767z" style="fill:#434e26"/>
            <path class="Ears-Cat0fil14" d="M11203 9585c-586,-1083 -1593,-1737 -2534,-1839 1247,674 1468,1690 411,2932 272,-366 1345,-778 2123,-1093z" style="fill:#0f1408"/>
        </g>
  </g>
  <g>
        <animateTransform additive="sum" attributeName="transform" dur="10" repeatCount="indefinite" type="rotate" values="0;0;0;0;0;0;0;0;0;0;0;0;0;0;0;0;0;0;0;0;0;0;0;0;0;0;0;0;0;0;0;0;0;0;0;0;0;0;0;0;0;0;0;0;0;0;0;0;0;0;0;0;0;0;0;0;0;0;0;0;0;0;0;0;0;0;0;0;0;0;0;0;0;0;0;0;0;0;0;0;-10;0"/>
        <g>
            <animateTransform additive="sum" attributeName="transform" dur="10" repeatCount="indefinite" type="translate" values="0;0;0;0;0;0;0;0;0;0;0;0;0;0;0;0;0;0;0;0;0;0;0;0;0;0;0;0;0;0;0;0;0;0;0;0;0;0;0;0;0;0;0;0;0;0;0;0;0;0;0;0;0;0;0;0;0;0;0;0;0;0;0;0;0;0;0;0;0;0;0;0;0;0;0;0;0;0;0;0;-2500 2500;0"/>
            <path class="Ears-Cat0fil70 Ears-Cat0str0" d="M19569 13241c878,-2399 560,-5257 -664,-6060 -762,-166 -2489,479 -2735,1467 981,1269 2418,3325 3399,4593z" style="fill:#3eca97"/>
            <path class="Ears-Cat0fil71" d="M15925 10107c514,-1394 1686,-2244 2770,-2361 1193,1080 691,4184 280,5149 -336,-892 -1271,-2217 -3050,-2788z" style="fill:#615e24"/>
            <path class="Ears-Cat0fil72" d="M17057 9475c403,-919 1635,-1210 1816,-735 184,482 -525,613 -873,740 252,-37 827,-6 797,402 -32,431 -476,384 -938,360 -145,-203 -636,-645 -802,-767z" style="fill:#729b68"/>
            <path class="Ears-Cat0fil14" d="M16161 9585c586,-1083 1593,-1737 2534,-1839 -1247,674 -1468,1690 -411,2932 -272,-366 -1345,-778 -2123,-1093z" style="fill:#73cce3"/>
		    </g>
  </g>
 </g><g id="Head-Cat3">
 <animateTransform additive="sum" attributeName="transform" dur="10" repeatCount="indefinite" type="translate" values="0;0 200;0;0 200;0;0 200;0;0 200;0"/>
  <path class="Head-Cat3fil141" d="M13682 7485c-3332,0 -6822,4262 -6118,7422 481,2162 3344,3030 6118,3030 2774,0 5637,-868 6118,-3030 704,-3160 -2786,-7422 -6118,-7422z" style="fill:#32ff80"/>
  <path class="Head-Cat3fil14" d="M8458 10922c-785,1275 -1176,2719 -894,3985 421,1891 2663,2792 5075,2988 -4046,-960 -5424,-2961 -4181,-6973z" style="fill:#459cba"/>
  <path class="Head-Cat3fil32" d="M7917 11963c-177,545 -289,1096 -343,1569 -53,462 -37,918 60,1351 178,802 697,1428 1417,1903 661,435 2110,926 3201,1064 -1561,-30 -2776,-598 -3283,-930 -754,-491 -1330,-1151 -1518,-1995 -100,-451 -117,-932 -62,-1410 44,-384 295,-1267 528,-1552z" style="fill:#90849e"/>
  <path class="Head-Cat3fil32" d="M19447 11963c177,545 289,1096 343,1569 53,462 37,918 -60,1351 -178,802 -697,1428 -1417,1903 -661,435 -2111,926 -3201,1064 1561,-30 2775,-598 3283,-930 753,-491 1330,-1151 1518,-1995 100,-451 117,-932 62,-1410 -44,-384 -295,-1267 -528,-1552z" style="fill:#1ff01e"/>
  <path class="Head-Cat3fil142" d="M10902 11471c2056,-534 1349,-2547 2780,-2547 1431,0 724,2013 2780,2547 1983,514 2167,1967 1886,2974 -279,1000 -2110,2394 -4666,2394 -2556,0 -4387,-1394 -4666,-2394 -281,-1007 -97,-2460 1886,-2974z" style="fill:#c98776"/>
  <path class="Head-Cat3fil32" d="M13682 7560c-408,0 -767,56 -1102,149 -949,262 -2036,899 -2715,1499 604,-730 1714,-1378 2675,-1644 348,-96 720,-154 1142,-154 421,0 794,58 1141,154 962,266 2072,914 2676,1644 -679,-600 -1766,-1237 -2715,-1499 -335,-93 -694,-149 -1102,-149z" style="fill:#c0b513"/>
 </g><g id="Mouth-Cat0">
 <animateTransform additive="sum" attributeName="transform" dur="10" repeatCount="indefinite" type="translate" values="0;0 200;0;0 200;0;0 200;0;0 200;0"/>
  <path class="Mouth-Cat0fil22 Mouth-Cat0str0" d="M12571 14784c298,518 1085,300 1111,-492m1111 492c-298,518 -1086,300 -1111,-492" style="fill:#02b885"/>
  <path class="Mouth-Cat0fil100 Mouth-Cat0str0" d="M13694 14424c37,245 153,423 299,529 -122,-61 -207,-138 -311,-138l0 -391 12 0zm-24 0c-37,245 -153,423 -299,529 122,-61 207,-138 311,-138l0 -391 -12 0z" style="fill:#bd8eff"/>
 </g><g id="Eyes-Cat9">
 <animateTransform additive="sum" attributeName="transform" dur="10" repeatCount="indefinite" type="translate" values="0;0 200;0;0 200;0;0 200;0;0 200;0"/>
  <path class="Eyes-Cat9fil201" d="M9279 14436c774,527 1906,331 2408,65 860,-457 661,-3017 -754,-3249 -670,-110 -1272,129 -1702,623 -908,1044 -502,2186 48,2561z"/>
  <path class="Eyes-Cat9fil202" d="M12092 13291c-42,-877 -559,-1639 -1161,-1745 -88,-16 -176,-25 -262,-28 -460,19 -869,226 -1179,564 -829,903 -306,1916 197,2241 706,456 1632,226 1989,-13 337,-225 398,-686 416,-1019z"/>
  <path class="Eyes-Cat9fil157" d="M12174 13621c138,-923 -258,-2208 -1241,-2369 -670,-110 -1272,129 -1702,623 -381,438 -531,894 -535,1303 252,-905 1295,-1622 1935,-1514 1134,190 1429,1333 1543,1957z"/>
  <path class="Eyes-Cat9fil203" d="M10424 11533c699,-151 1399,288 1565,980 165,692 -266,1375 -965,1526 -698,151 -1399,-288 -1564,-980 -166,-692 266,-1375 964,-1526z"/>
  <path class="Eyes-Cat9fil152" d="M11213 11455c211,114 316,344 236,482 -80,137 -276,125 -516,75 -240,-49 -328,-256 -254,-458 75,-202 323,-213 534,-99z"/>
  <circle class="Eyes-Cat9fil152" cx="11694" cy="12205" r="158"/>
  <path class="Eyes-Cat9fil152" d="M9657 13827c179,14 373,155 402,351 25,173 -72,414 -356,395 -283,-18 -404,-181 -404,-379 0,-197 161,-382 358,-367z"/>
  <path class="Eyes-Cat9fil204" d="M9591 13059c3,193 -190,313 -383,315 -192,2 -341,-124 -343,-316 -5,-346 139,-716 365,-1015 225,-297 504,-473 842,-558 187,-47 420,15 452,168 42,148 -57,313 -244,375 -173,58 -352,238 -487,416 -140,185 -204,429 -202,615z"/>
  <path class="Eyes-Cat9fil22 Eyes-Cat9str4" d="M9279 14436c774,527 1906,331 2408,65 860,-457 661,-3017 -754,-3249 -670,-110 -1272,129 -1702,623 -908,1044 -502,2186 48,2561z"/>
  <path class="Eyes-Cat9fil205" d="M18085 14436c-774,527 -1906,331 -2408,65 -860,-457 -661,-3017 754,-3249 670,-110 1272,129 1702,623 908,1044 502,2186 -48,2561z"/>
  <path class="Eyes-Cat9fil206" d="M15272 13291c42,-877 559,-1639 1161,-1745 88,-16 176,-25 262,-28 459,19 869,226 1179,564 829,903 306,1916 -197,2241 -706,456 -1632,226 -1989,-13 -337,-225 -398,-686 -416,-1019z"/>
  <path class="Eyes-Cat9fil157" d="M15190 13621c-138,-923 258,-2208 1241,-2369 670,-110 1272,129 1702,623 381,438 531,894 535,1303 -252,-905 -1295,-1622 -1935,-1514 -1134,190 -1429,1333 -1543,1957z"/>
  <path class="Eyes-Cat9fil207" d="M16940 11533c-699,-151 -1399,288 -1565,980 -165,692 266,1375 965,1526 698,151 1399,-288 1564,-980 166,-692 -266,-1375 -964,-1526z"/>
  <path class="Eyes-Cat9fil152" d="M16151 11455c-211,114 -317,344 -236,482 80,137 275,125 516,75 240,-49 328,-256 254,-458 -75,-202 -323,-213 -534,-99z"/>
  <circle class="Eyes-Cat9fil152" cx="18216" cy="13677" r="158"/>
  <path class="Eyes-Cat9fil152" d="M16301 13926c-135,-118 -373,-156 -532,-40 -141,103 -244,342 -32,531 212,189 413,161 554,22 141,-139 160,-383 10,-513z"/>
  <path class="Eyes-Cat9fil204" d="M17773 13059c-3,193 190,313 382,315 193,2 342,-124 344,-316 5,-346 -139,-716 -365,-1015 -225,-297 -504,-473 -842,-558 -187,-47 -420,15 -452,168 -42,148 56,313 244,375 172,58 352,238 487,416 140,185 204,429 202,615z"/>
  <path class="Eyes-Cat9fil22 Eyes-Cat9str4" d="M18085 14436c-774,527 -1906,331 -2408,65 -860,-457 -661,-3017 754,-3249 670,-110 1272,129 1702,623 908,1044 502,2186 -48,2561z"/>
  <path class="Eyes-Cat9fil155" d="M10011 9854c93,-106 559,-127 1060,-348 461,-203 784,-534 969,-470 205,72 140,524 -35,739 -144,176 -622,408 -1127,424 -597,18 -981,-215 -867,-345z"/>
  <path class="Eyes-Cat9fil14" d="M10011 9854c93,-106 559,-127 1060,-348 461,-203 784,-534 969,-470 205,72 140,524 -35,739 -144,176 -622,408 -1127,424 -597,18 -981,-215 -867,-345z"/>
  <path class="Eyes-Cat9fil155" d="M17353 9854c-93,-106 -559,-127 -1060,-348 -461,-203 -785,-534 -969,-470 -205,72 -140,524 35,739 144,176 622,408 1127,424 597,18 981,-215 867,-345z"/>
  <path class="Eyes-Cat9fil14" d="M17353 9854c-93,-106 -559,-127 -1060,-348 -461,-203 -785,-534 -969,-470 -205,72 -140,524 35,739 144,176 622,408 1127,424 597,18 981,-215 867,-345z"/>
 </g><g id="Moustache-Cat1">
 <animateTransform additive="sum" attributeName="transform" dur="10" repeatCount="indefinite" type="translate" values="0;0 200;0;0 200;0;0 200;0;0 200;0"/>
  <path class="Moustache-Cat1fil22 Moustache-Cat1str5" d="M9477 15379c-1096,569 -2045,1334 -2773,2398" style="fill:#50bd58"/>
  <path class="Moustache-Cat1fil22 Moustache-Cat1str5" d="M18245 15136c1060,124 2121,568 2901,1218" style="fill:#466cbe"/>
  <path class="Moustache-Cat1fil22 Moustache-Cat1str5" d="M17887 15379c1096,569 2045,1334 2773,2398" style="fill:#897ec8"/>
  <path class="Moustache-Cat1fil22 Moustache-Cat1str5" d="M9119 15136c-1060,124 -2121,568 -2901,1218" style="fill:#9cb08d"/>
 </g><g id="Nose-Cat0">
 <animateTransform additive="sum" attributeName="transform" dur="10" repeatCount="indefinite" type="translate" values="0;0 200;0;0 200;0;0 200;0;0 200;0"/>
  <metadata id="CorelCorpID_107Corel-Layer"/>
  <path class="Nose-Cat0fil221 Nose-Cat0str0" d="M13682 13408c-194,0 -465,93 -444,231 19,127 197,330 444,330 247,0 425,-203 444,-330 21,-138 -250,-231 -444,-231z" style="fill:#3e9df6"/>
 </g><g id="Hair-Cat6">
 <animateTransform additive="sum" attributeName="transform" dur="10" repeatCount="indefinite" type="translate" values="0;0 200;0;0 200;0;0 200;0;0 200;0"/>
  <metadata id="CorelCorpID_114Corel-Layer"/>
  <path class="Hair-Cat6fil228 Hair-Cat6str0" d="M10821 8448c503,-2057 4468,-3613 7521,-2480 -1073,279 -1564,555 -1937,1121 2398,-361 4536,1729 4964,3449 -839,-718 -1979,-1184 -3219,-1125 1075,1691 861,3426 506,4894 -875,-3669 -5830,-6915 -7835,-5859z" style="fill:#f616d1"/>
  <path class="Hair-Cat6fil14" d="M21369 10538c-839,-718 -2029,-1128 -3269,-1068 -153,-244 -480,-612 -722,-793 1825,-132 3191,616 3991,1861z" style="fill:#dbca79"/>
  <path class="Hair-Cat6fil14" d="M18656 14307c-875,-3669 -5830,-6915 -7835,-5859 2897,-1740 8150,1308 7835,5859z" style="fill:#4a3cb4"/>
 </g></svg>