<svg xmlns="http://www.w3.org/2000/svg" xmlns:xlink="http://www.w3.org/1999/xlink" style="shape-rendering:geometricPrecision; text-rendering:geometricPrecision; image-rendering:optimizeQuality; fill-rule:evenodd; clip-rule:evenodd" version="1.1" viewBox="0 0 29000 29000" xml:space="preserve"><defs><style type="text/css">.HairBack-Cat0fil22 {fill:none}
.Tail-Cat5fil31 {fill:url(#Tail-Cat5id927)}
.Tail-Cat5fil14 {fill:black;fill-opacity:0.200000}
.Tail-Cat5fil32 {fill:black;fill-rule:nonzero}
.Tail-Cat5fil22 {fill:none}
.Tail-Cat5str0 {stroke:black;stroke-width:150;stroke-linecap:round;stroke-linejoin:round}
.RightFoot-Cat3fil35 {fill:#fafafa}
.RightFoot-Cat3fil14 {fill:black;fill-opacity:0.200000}
.RightFoot-Cat3fil22 {fill:none}
.RightFoot-Cat3fil32 {fill:black;fill-rule:nonzero}
.RightLeg-Cat1fil37 {fill:url(#RightLeg-Cat1id51)}
.RightLeg-Cat1fil38 {fill:url(#RightLeg-Cat1id223)}
.RightLeg-Cat1fil14 {fill:black;fill-opacity:0.200000}
.RightLeg-Cat1fil32 {fill:black;fill-rule:nonzero}
.LeftFoot-Cat3fil35 {fill:#fafafa}
.LeftFoot-Cat3fil14 {fill:black;fill-opacity:0.200000}
.LeftFoot-Cat3fil22 {fill:none}
.LeftFoot-Cat3fil32 {fill:black;fill-rule:nonzero}
.LeftLeg-Cat1fil45 {fill:url(#LeftLeg-Cat1id54)}
.LeftLeg-Cat1fil38 {fill:url(#LeftLeg-Cat1id223)}
.LeftLeg-Cat1fil32 {fill:black;fill-rule:nonzero}
.LeftLeg-Cat1fil14 {fill:black;fill-opacity:0.200000}
.RightHand-Cat2fil48 {fill:url(#RightHand-Cat2id246)}
.RightHand-Cat2fil50 {fill:url(#RightHand-Cat2id439)}
.RightHand-Cat2fil14 {fill:black;fill-opacity:0.200000}
.RightHand-Cat2fil22 {fill:none}
.RightHand-Cat2str0 {stroke:black;stroke-width:150;stroke-linecap:round;stroke-linejoin:round}
.RightPaw-Cat2fil53 {fill:url(#RightPaw-Cat2id81)}
.RightPaw-Cat2fil14 {fill:black;fill-opacity:0.200000}
.RightPaw-Cat2fil32 {fill:black;fill-rule:nonzero}
.LeftHand-Cat2fil55 {fill:url(#LeftHand-Cat2id849)}
.LeftHand-Cat2fil58 {fill:url(#LeftHand-Cat2id207)}
.LeftHand-Cat2fil14 {fill:black;fill-opacity:0.200000}
.LeftHand-Cat2fil22 {fill:none}
.LeftHand-Cat2str0 {stroke:black;stroke-width:150;stroke-linecap:round;stroke-linejoin:round}
.LeftPaw-Cat2fil60 {fill:url(#LeftPaw-Cat2id79)}
.LeftPaw-Cat2fil14 {fill:black;fill-opacity:0.200000}
.LeftPaw-Cat2fil32 {fill:black;fill-rule:nonzero}
.Body-Cat5fil62 {fill:url(#Body-Cat5id318)}
.Body-Cat5fil66 {fill:url(#Body-Cat5id563)}
.Body-Cat5fil14 {fill:black;fill-opacity:0.200000}
.Body-Cat5fil32 {fill:black;fill-rule:nonzero}
.Head-Cat7fil148 {fill:url(#Head-Cat7id36)}
.Head-Cat7fil149 {fill:url(#Head-Cat7id1106);fill-rule:nonzero}
.Head-Cat7fil150 {fill:url(#Head-Cat7id249)}
.Head-Cat7fil14 {fill:black;fill-opacity:0.200000}
.Head-Cat7fil32 {fill:black;fill-rule:nonzero}
.Mouth-Cat0fil22 {fill:none}
.Mouth-Cat0str0 {stroke:black;stroke-width:150;stroke-linecap:round;stroke-linejoin:round}
.Mouth-Cat0fil100 {fill:black}
.Eyes-Cat9fil201 {fill:url(#Eyes-Cat9id866)}
.Eyes-Cat9fil202 {fill:url(#Eyes-Cat9id607)}
.Eyes-Cat9fil157 {fill:black;fill-opacity:0.501961}
.Eyes-Cat9fil203 {fill:url(#Eyes-Cat9id616)}
.Eyes-Cat9fil152 {fill:white}
.Eyes-Cat9fil204 {fill:white;fill-rule:nonzero}
.Eyes-Cat9fil205 {fill:url(#Eyes-Cat9id965)}
.Eyes-Cat9fil206 {fill:url(#Eyes-Cat9id606)}
.Eyes-Cat9fil207 {fill:url(#Eyes-Cat9id802)}
.Eyes-Cat9fil155 {fill:#ffffff}
.Eyes-Cat9fil14 {fill:black;fill-opacity:0.200000}
.Eyes-Cat9fil22 {fill:none}
.Eyes-Cat9str4 {stroke:black;stroke-width:150}
.Moustache-Cat1fil22 {fill:none}
.Moustache-Cat1str5 {stroke:black;stroke-width:100;stroke-linecap:round;stroke-linejoin:round}
.Nose-Cat0fil221 {fill:url(#Nose-Cat0id921)}
.Nose-Cat0str0 {stroke:black;stroke-width:150;stroke-linecap:round;stroke-linejoin:round}
.HatBanderasBack-Mediumfil3new {fill:black;fill-opacity:0.301961}
.HatBanderasBack-Mediumfil16new {fill:url(#HatBanderasBack-Mediumid415new)}
.HatBanderasBack-Mediumstr2new {stroke:#2B2A29;stroke-width:150}
.BraceletLeather-Mediumfil43new {fill:white;fill-opacity:0.200000}
.BraceletLeather-Mediumfil46new {fill:white;fill-rule:nonzero;fill-opacity:0.200000}
.BraceletLeather-Mediumfil42new {fill:url(#BraceletLeather-Mediumid14new)}
.BraceletLeather-Mediumstr3new {stroke:black;stroke-width:100;stroke-linecap:round;stroke-linejoin:round}
.BraceletLeather-Mediumfil33new {fill:none}
.BraceletLeather-Mediumfil44new {fill:url(#BraceletLeather-Mediumid88new)}
.BraceletLeather-Mediumfil45new {fill:url(#BraceletLeather-Mediumid672new);fill-rule:nonzero}
.BraceletLeather-Mediumstr4new {stroke:black;stroke-width:100}
.BraceletLeather-Mediumfil47new {fill:none;fill-rule:nonzero}
.BraceletLeather-Mediumfil48new {fill:url(#BraceletLeather-Mediumid15new)}
.BraceletLeather-Mediumfil49new {fill:url(#BraceletLeather-Mediumid207new)}
.BraceletLeather-Mediumfil50new {fill:url(#BraceletLeather-Mediumid690new);fill-rule:nonzero}
.HatBanderas-Mediumfil608new {fill:url(#HatBanderas-Mediumid682new);fill-rule:nonzero}
.HatBanderas-Mediumfil609new {fill:#FFCC99;fill-rule:nonzero;fill-opacity:0.301961}
.HatBanderas-Mediumfil14new {fill:black;fill-opacity:0.200000}
.HatBanderas-Mediumfil246new {fill:#643200;fill-opacity:0.200000}
.HatBanderas-Mediumfil619new {fill:#c5d5e6;fill-opacity:0.200000}
.HatBanderas-Mediumfil621new {fill:url(#HatBanderas-Mediumid706new);fill-rule:nonzero}
.HatBanderas-Mediumfil360new {fill:black;fill-rule:nonzero;fill-opacity:0.200000}
.HatBanderas-Mediumfil47new {fill:none;fill-rule:nonzero}
.HatBanderas-Mediumstr0new {stroke:black;stroke-width:150;stroke-linecap:round;stroke-linejoin:round}
.HatBanderas-Mediumfil610new {fill:url(#HatBanderas-Mediumid667new);fill-rule:nonzero}
.HatBanderas-Mediumfil611new {fill:#DB9600}
.HatBanderas-Mediumfil612new {fill:url(#HatBanderas-Mediumid156new)}
.HatBanderas-Mediumfil613new {fill:url(#HatBanderas-Mediumid153new)}
.HatBanderas-Mediumfil614new {fill:url(#HatBanderas-Mediumid65new)}
.HatBanderas-Mediumfil615new {fill:url(#HatBanderas-Mediumid190new)}
.HatBanderas-Mediumfil616new {fill:url(#HatBanderas-Mediumid569new)}
.HatBanderas-Mediumfil617new {fill:url(#HatBanderas-Mediumid188new)}
.HatBanderas-Mediumfil618new {fill:url(#HatBanderas-Mediumid192new)}
.HatBanderas-Mediumfil620new {fill:url(#HatBanderas-Mediumid168new)}
.HatBanderas-Mediumfil622new {fill:url(#HatBanderas-Mediumid708new);fill-rule:nonzero}
.WeaponBflyNetBack-Mediumfil1 {fill:black;fill-rule:nonzero;fill-opacity:0.200000}
.WeaponBflyNetBack-Mediumfil12 {fill:url(#WeaponBflyNetBack-Mediumid25);fill-rule:nonzero}
.WeaponBflyNetBack-Mediumstr0 {stroke:black;stroke-width:150;stroke-linecap:round;stroke-linejoin:round}
.WeaponBflyNet-Mediumfil13 {fill:white;fill-opacity:0.701961}
.WeaponBflyNet-Mediumfil3 {fill:black;fill-opacity:0.200000}
.WeaponBflyNet-Mediumfil14 {fill:none}
.WeaponBflyNet-Mediumstr2 {stroke:#85E7FF;stroke-width:150;stroke-linecap:round;stroke-linejoin:round}
.WeaponBflyNet-Mediumstr3 {stroke:#85E7FF;stroke-width:150}
.WeaponBflyNet-Mediumfil15 {fill:url(#WeaponBflyNet-Mediumid2)}
.WeaponBflyNet-Mediumstr0 {stroke:black;stroke-width:150;stroke-linecap:round;stroke-linejoin:round}
.WeaponBflyNet-Mediumfil16 {fill:url(#WeaponBflyNet-Mediumid1)}
.WeaponBflyNet-Mediumstr1 {stroke:black;stroke-width:150}
.AccessoryDuckfil122 {fill:url(#AccessoryDuckid90)}
.AccessoryDuckfil48 {fill:white;fill-opacity:0.501961}
.AccessoryDuckfil123 {fill:#CC1400;fill-opacity:0.301961}
.AccessoryDuckfil124 {fill:url(#AccessoryDuckid94)}
.AccessoryDuckfil3 {fill:black;fill-rule:nonzero}
.AccessoryDuckfil125 {fill:url(#AccessoryDuckid39)}
.AccessoryDuckfil126 {fill:url(#AccessoryDuckid95)}
.AccessoryDuckfil127 {fill:url(#AccessoryDuckid92)}
.AccessoryDuckfil2 {fill:none}
.AccessoryDuckfil128 {fill:#912323;fill-opacity:0.501961}
.AccessoryDuckfil14 {fill:white}
.AccessoryDuckfil129 {fill:white;fill-rule:nonzero;fill-opacity:0.501961}
.AccessoryDuckfil130 {fill:white;fill-rule:nonzero}
.AccessoryDuckstr1 {stroke:black;stroke-width:150}
.AccessoryDuckstr18 {stroke:#99CC66;stroke-width:150;stroke-linecap:round;stroke-linejoin:round}
.AccessoryDuckstr0 {stroke:black;stroke-width:150;stroke-linecap:round;stroke-linejoin:round}
</style><linearGradient gradientUnits="objectBoundingBox" id="Tail-Cat5id927" x1="26.3028%" x2="73.6972%" xlink:href="#Tail-Cat5id925" y1="80.6558%" y2="19.3442%">
  </linearGradient><linearGradient gradientUnits="userSpaceOnUse" id="RightLeg-Cat1id51" x1="15490.3" x2="15490.3" xlink:href="#RightLeg-Cat1id19" y1="24284.1" y2="21188.2">
  </linearGradient><linearGradient gradientUnits="objectBoundingBox" id="RightLeg-Cat1id223" x1="50%" x2="50%" xlink:href="#RightLeg-Cat1id5" y1="100%" y2="0%">
  </linearGradient><linearGradient gradientUnits="objectBoundingBox" id="LeftLeg-Cat1id54" x1="50.0001%" x2="50.0001%" xlink:href="#LeftLeg-Cat1id19" y1="99.9997%" y2="0%">
  </linearGradient><linearGradient gradientUnits="objectBoundingBox" id="LeftLeg-Cat1id223" x1="50%" x2="50%" xlink:href="#LeftLeg-Cat1id5" y1="100%" y2="0%">
  </linearGradient><linearGradient gradientUnits="objectBoundingBox" id="RightHand-Cat2id246" x1="31.4718%" x2="68.5282%" y1="2.00058%" y2="97.9991%">
   <stop offset="0" style="stop-opacity:1; stop-color:#97a6ba"/>
   <stop offset="0.878431" style="stop-opacity:1; stop-color:#c2cfe1"/>
   <stop offset="1" style="stop-opacity:1; stop-color:#c2cfe1"/>
  </linearGradient><linearGradient gradientUnits="userSpaceOnUse" id="RightHand-Cat2id439" x1="16555.8" x2="16979.3" xlink:href="#RightHand-Cat2id5" y1="17720.6" y2="19301.2">
  </linearGradient><linearGradient gradientUnits="userSpaceOnUse" id="RightPaw-Cat2id81" x1="18740" x2="17946.9" xlink:href="#RightPaw-Cat2id79" y1="21672.1" y2="19971.3">
  </linearGradient><linearGradient gradientUnits="objectBoundingBox" id="LeftHand-Cat2id849" x1="71.9477%" x2="28.0523%" xlink:href="#LeftHand-Cat2id246" y1="2.1954%" y2="97.8043%">
  </linearGradient><linearGradient gradientUnits="userSpaceOnUse" id="LeftHand-Cat2id207" x1="9964.1" x2="9964.1" xlink:href="#LeftHand-Cat2id5" y1="18017.8" y2="20836.4">
  </linearGradient><linearGradient gradientUnits="userSpaceOnUse" id="LeftPaw-Cat2id79" x1="8623.93" x2="9417.01" y1="21672.1" y2="19971.3">
   <stop offset="0" style="stop-opacity:1; stop-color:#ffffff"/>
   <stop offset="0.780392" style="stop-opacity:1; stop-color:#c2cfe1"/>
   <stop offset="1" style="stop-opacity:1; stop-color:#c2cfe1"/>
  </linearGradient><linearGradient gradientUnits="objectBoundingBox" id="Body-Cat5id318" x1="50%" x2="50%" xlink:href="#Body-Cat5id36" y1="0.000186021%" y2="100%">
  </linearGradient><linearGradient gradientUnits="userSpaceOnUse" id="Body-Cat5id563" x1="13681.9" x2="13681.9" y1="22723.6" y2="18198.8">
   <stop offset="0" style="stop-opacity:1; stop-color:#f5f5f5"/>
   <stop offset="0.458824" style="stop-opacity:1; stop-color:#f5f5f5"/>
   <stop offset="1" style="stop-opacity:1; stop-color:#e8dcdc"/>
  </linearGradient><linearGradient gradientUnits="userSpaceOnUse" id="Head-Cat7id36" x1="13681.9" x2="13681.9" y1="17936.7" y2="7484.8">
   <stop offset="0" style="stop-opacity:1; stop-color:#97a6ba"/>
   <stop offset="0.0313725" style="stop-opacity:1; stop-color:#97a6ba"/>
   <stop offset="0.529412" style="stop-opacity:1; stop-color:#c2cfe1"/>
   <stop offset="1" style="stop-opacity:1; stop-color:#fafafa"/>
  </linearGradient><linearGradient gradientUnits="userSpaceOnUse" id="Head-Cat7id1106" x1="13681.9" x2="13681.9" xlink:href="#Head-Cat7id5" y1="17271.4" y2="7484.8">
  </linearGradient><linearGradient gradientUnits="userSpaceOnUse" id="Head-Cat7id249" x1="13681.9" x2="13681.9" xlink:href="#Head-Cat7id230" y1="9364.32" y2="17278">
  </linearGradient><linearGradient gradientUnits="userSpaceOnUse" id="Eyes-Cat9id866" x1="10826.7" x2="10069.3" xlink:href="#Eyes-Cat9id27" y1="14686.2" y2="11306.9">
  </linearGradient><linearGradient gradientUnits="userSpaceOnUse" id="Eyes-Cat9id607" x1="9055.31" x2="12092" xlink:href="#Eyes-Cat9id57" y1="13051.1" y2="13051.1">
  </linearGradient><linearGradient gradientUnits="userSpaceOnUse" id="Eyes-Cat9id616" x1="10425.3" x2="11023" xlink:href="#Eyes-Cat9id384" y1="11521.2" y2="14050.8">
  </linearGradient><linearGradient gradientUnits="userSpaceOnUse" id="Eyes-Cat9id965" x1="16537.2" x2="17294.6" xlink:href="#Eyes-Cat9id27" y1="14686.2" y2="11306.9">
  </linearGradient><linearGradient gradientUnits="userSpaceOnUse" id="Eyes-Cat9id606" x1="15271.9" x2="18308.6" xlink:href="#Eyes-Cat9id57" y1="13051.1" y2="13051.1">
  </linearGradient><linearGradient gradientUnits="userSpaceOnUse" id="Eyes-Cat9id802" x1="16938.5" x2="16340.9" xlink:href="#Eyes-Cat9id384" y1="11521.2" y2="14050.8">
  </linearGradient><linearGradient gradientUnits="userSpaceOnUse" id="Nose-Cat0id921" x1="13681.9" x2="13681.9" y1="13407.9" y2="13968.6">
   <stop offset="0" style="stop-opacity:1; stop-color:#FFCCCC"/>
   <stop offset="1" style="stop-opacity:1; stop-color:#DB9092"/>
  </linearGradient><linearGradient gradientUnits="userSpaceOnUse" id="HatBanderasBack-Mediumid415new" x1="11406.4" x2="11406.4" xlink:href="#HatBanderasBack-Mediumid273new" y1="14755.2" y2="11000.6">
  </linearGradient><linearGradient gradientUnits="userSpaceOnUse" id="BraceletLeather-Mediumid14new" x1="8682.96" x2="8745.92" y1="19682.8" y2="19053.1">
   <stop offset="0" style="stop-opacity:1; stop-color:#683501"/>
   <stop offset="1" style="stop-opacity:1; stop-color:#B08227"/>
  </linearGradient><linearGradient gradientUnits="userSpaceOnUse" id="BraceletLeather-Mediumid88new" x1="8626.8" x2="8294.02" xlink:href="#BraceletLeather-Mediumid14new" y1="19859" y2="19314.4">
  </linearGradient><linearGradient gradientUnits="userSpaceOnUse" id="BraceletLeather-Mediumid672new" x1="8784.44" x2="10049.5" y1="19759" y2="20796.3">
   <stop offset="0" style="stop-opacity:1; stop-color:#643300"/>
   <stop offset="0.321569" style="stop-opacity:1; stop-color:#B5872A"/>
   <stop offset="1" style="stop-opacity:1; stop-color:#643300"/>
  </linearGradient><linearGradient gradientUnits="userSpaceOnUse" id="BraceletLeather-Mediumid15new" x1="18680.9" x2="18617.9" xlink:href="#BraceletLeather-Mediumid14new" y1="19682.8" y2="19053.1">
  </linearGradient><linearGradient gradientUnits="userSpaceOnUse" id="BraceletLeather-Mediumid207new" x1="18737" x2="19069.8" xlink:href="#BraceletLeather-Mediumid14new" y1="19859" y2="19314.4">
  </linearGradient><linearGradient gradientUnits="userSpaceOnUse" id="BraceletLeather-Mediumid690new" x1="18579.4" x2="17314.3" xlink:href="#BraceletLeather-Mediumid672new" y1="19759" y2="20796.3">
  </linearGradient><linearGradient gradientUnits="userSpaceOnUse" id="HatBanderas-Mediumid682new" x1="13602.1" x2="11925.5" y1="11547.2" y2="4747.37">
   <stop offset="0" style="stop-opacity:1; stop-color:#0F0A00"/>
   <stop offset="1" style="stop-opacity:1; stop-color:#615A3E"/>
  </linearGradient><linearGradient gradientUnits="userSpaceOnUse" id="HatBanderas-Mediumid706new" x1="14196.7" x2="11590.4" xlink:href="#HatBanderas-Mediumid682new" y1="14479.3" y2="3909.34">
  </linearGradient><linearGradient gradientUnits="userSpaceOnUse" id="HatBanderas-Mediumid667new" x1="13059.3" x2="12043.7" y1="11875.2" y2="7756.23">
   <stop offset="0" style="stop-opacity:1; stop-color:#570D00"/>
   <stop offset="1" style="stop-opacity:1; stop-color:#C90000"/>
  </linearGradient><linearGradient gradientUnits="userSpaceOnUse" id="HatBanderas-Mediumid156new" x1="17132.7" x2="15358.6" xlink:href="#HatBanderas-Mediumid29new" y1="6534.95" y2="4566.09">
  </linearGradient><linearGradient gradientUnits="userSpaceOnUse" id="HatBanderas-Mediumid153new" x1="17891.3" x2="18675.4" xlink:href="#HatBanderas-Mediumid29new" y1="6718.18" y2="3050.2">
  </linearGradient><linearGradient gradientUnits="userSpaceOnUse" id="HatBanderas-Mediumid65new" x1="18407.5" x2="23687.9" xlink:href="#HatBanderas-Mediumid29new" y1="5325.25" y2="4441.39">
  </linearGradient><linearGradient gradientUnits="userSpaceOnUse" id="HatBanderas-Mediumid190new" x1="22805.7" x2="23399.6" xlink:href="#HatBanderas-Mediumid29new" y1="9246.61" y2="6663.65">
  </linearGradient><linearGradient gradientUnits="userSpaceOnUse" id="HatBanderas-Mediumid569new" x1="18102.7" x2="19619.8" xlink:href="#HatBanderas-Mediumid29new" y1="6097.02" y2="7516.76">
  </linearGradient><linearGradient gradientUnits="userSpaceOnUse" id="HatBanderas-Mediumid188new" x1="22423.7" x2="22545.4" xlink:href="#HatBanderas-Mediumid29new" y1="9500.13" y2="6706.71">
  </linearGradient><linearGradient gradientUnits="userSpaceOnUse" id="HatBanderas-Mediumid192new" x1="20528.7" x2="20011.2" xlink:href="#HatBanderas-Mediumid29new" y1="7723.46" y2="5385.04">
  </linearGradient><linearGradient gradientUnits="userSpaceOnUse" id="HatBanderas-Mediumid168new" x1="16082.9" x2="23396.2" xlink:href="#HatBanderas-Mediumid29new" y1="7125.45" y2="7308.29">
  </linearGradient><linearGradient gradientUnits="userSpaceOnUse" id="HatBanderas-Mediumid708new" x1="19172.7" x2="18887.4" y1="6164.67" y2="5430.19">
   <stop offset="0" style="stop-opacity:1; stop-color:#38321F"/>
   <stop offset="1" style="stop-opacity:1; stop-color:#615A3E"/>
  </linearGradient><linearGradient gradientUnits="userSpaceOnUse" id="WeaponBflyNetBack-Mediumid25" x1="7204.83" x2="8458.79" y1="22047.5" y2="19400.3">
   <stop offset="0" style="stop-opacity:1; stop-color:#FF6666"/>
   <stop offset="1" style="stop-opacity:1; stop-color:#FFC5B0"/>
  </linearGradient><linearGradient gradientUnits="userSpaceOnUse" id="WeaponBflyNet-Mediumid2" x1="9470.94" x2="12022.2" y1="22463.7" y2="22328">
   <stop offset="0" style="stop-opacity:1; stop-color:#5C3005"/>
   <stop offset="1" style="stop-opacity:1; stop-color:#B87939"/>
  </linearGradient><linearGradient gradientUnits="userSpaceOnUse" id="WeaponBflyNet-Mediumid1" x1="14169.4" x2="14169.4" y1="25399.5" y2="22680.1">
   <stop offset="0" style="stop-opacity:1; stop-color:#D4A373"/>
   <stop offset="1" style="stop-opacity:1; stop-color:#B87939"/>
  </linearGradient><radialGradient cx="5981.45" cy="24530.5" fx="5981.45" fy="24530.5" gradientTransform="matrix(1.08261 -0.0530996 0.0971573 0.591681 -2877 10334)" gradientUnits="userSpaceOnUse" id="AccessoryDuckid90" r="1635.36">
   <stop offset="0" style="stop-opacity:1; stop-color:#FFF256"/>
   <stop offset="0.631373" style="stop-opacity:1; stop-color:#FEE75C"/>
   <stop offset="1" style="stop-opacity:1; stop-color:#FFD83B"/>
  </radialGradient><radialGradient cx="6799.04" cy="23034.7" fx="6799.04" fy="23034.7" gradientTransform="matrix(1.0826 -0.0971566 0.0971566 1.0826 -2800 -1242)" gradientUnits="userSpaceOnUse" id="AccessoryDuckid94" r="935.18" xlink:href="#AccessoryDuckid90">
  </radialGradient><linearGradient gradientUnits="userSpaceOnUse" id="AccessoryDuckid39" x1="6677.2" x2="6677.2" y1="22471.8" y2="23026.9">
   <stop offset="0" style="stop-opacity:1; stop-color:black"/>
   <stop offset="1" style="stop-opacity:1; stop-color:#453223"/>
  </linearGradient><radialGradient cx="7621.66" cy="22955.4" fx="7621.66" fy="22955.4" gradientTransform="matrix(1.00003 -0 -0 0.645815 0 8130)" gradientUnits="userSpaceOnUse" id="AccessoryDuckid95" r="730.87">
   <stop offset="0" style="stop-opacity:1; stop-color:#FFB73B"/>
   <stop offset="1" style="stop-opacity:1; stop-color:#E05A00"/>
  </radialGradient><radialGradient cx="5594.96" cy="24567.2" fx="5594.96" fy="24567.2" gradientTransform="matrix(1.0826 -0.0578086 0.0971565 0.644153 -2849 9066)" gradientUnits="userSpaceOnUse" id="AccessoryDuckid92" r="719.36" xlink:href="#AccessoryDuckid90">
  </radialGradient><linearGradient gradientUnits="objectBoundingBox" id="Tail-Cat5id925" x1="56.9199%" x2="43.0801%" y1="93.4294%" y2="6.57062%">
   <stop offset="0" style="stop-opacity:1; stop-color:#97a6ba"/>
   <stop offset="1" style="stop-opacity:1; stop-color:#fafafa"/>
  </linearGradient><linearGradient gradientUnits="userSpaceOnUse" id="RightLeg-Cat1id19" x1="15490.3" x2="15490.3" y1="24284.1" y2="21188.2">
   <stop offset="0" style="stop-opacity:1; stop-color:#fafafa"/>
   <stop offset="0.439216" style="stop-opacity:1; stop-color:#fafafa"/>
   <stop offset="1" style="stop-opacity:1; stop-color:#c2cfe1"/>
  </linearGradient><linearGradient gradientUnits="objectBoundingBox" id="RightLeg-Cat1id5" x1="50%" x2="50%" y1="0%" y2="100%">
   <stop offset="0" style="stop-opacity:1; stop-color:#ffffff"/>
   <stop offset="1" style="stop-opacity:1; stop-color:#ffffff"/>
  </linearGradient><linearGradient gradientUnits="userSpaceOnUse" id="LeftLeg-Cat1id19" x1="15490.3" x2="15490.3" y1="24284.1" y2="21188.2">
   <stop offset="0" style="stop-opacity:1; stop-color:#fafafa"/>
   <stop offset="0.439216" style="stop-opacity:1; stop-color:#fafafa"/>
   <stop offset="1" style="stop-opacity:1; stop-color:#c2cfe1"/>
  </linearGradient><linearGradient gradientUnits="objectBoundingBox" id="LeftLeg-Cat1id5" x1="50%" x2="50%" y1="0%" y2="100%">
   <stop offset="0" style="stop-opacity:1; stop-color:#ffffff"/>
   <stop offset="1" style="stop-opacity:1; stop-color:#ffffff"/>
  </linearGradient><linearGradient gradientUnits="objectBoundingBox" id="RightHand-Cat2id5" x1="50%" x2="50%" y1="0%" y2="100%">
   <stop offset="0" style="stop-opacity:1; stop-color:#ffffff"/>
   <stop offset="1" style="stop-opacity:1; stop-color:#ffffff"/>
  </linearGradient><linearGradient gradientUnits="userSpaceOnUse" id="RightPaw-Cat2id79" x1="8623.93" x2="9417.01" y1="21672.1" y2="19971.3">
   <stop offset="0" style="stop-opacity:1; stop-color:#ffffff"/>
   <stop offset="0.780392" style="stop-opacity:1; stop-color:#c2cfe1"/>
   <stop offset="1" style="stop-opacity:1; stop-color:#c2cfe1"/>
  </linearGradient><linearGradient gradientUnits="objectBoundingBox" id="LeftHand-Cat2id246" x1="31.4718%" x2="68.5282%" y1="2.00058%" y2="97.9991%">
   <stop offset="0" style="stop-opacity:1; stop-color:#97a6ba"/>
   <stop offset="0.878431" style="stop-opacity:1; stop-color:#c2cfe1"/>
   <stop offset="1" style="stop-opacity:1; stop-color:#c2cfe1"/>
  </linearGradient><linearGradient gradientUnits="objectBoundingBox" id="LeftHand-Cat2id5" x1="50%" x2="50%" y1="0%" y2="100%">
   <stop offset="0" style="stop-opacity:1; stop-color:#ffffff"/>
   <stop offset="1" style="stop-opacity:1; stop-color:#ffffff"/>
  </linearGradient><linearGradient gradientUnits="userSpaceOnUse" id="Body-Cat5id36" x1="13681.9" x2="13681.9" y1="17936.7" y2="7484.8">
   <stop offset="0" style="stop-opacity:1; stop-color:#97a6ba"/>
   <stop offset="0.0313725" style="stop-opacity:1; stop-color:#97a6ba"/>
   <stop offset="0.529412" style="stop-opacity:1; stop-color:#c2cfe1"/>
   <stop offset="1" style="stop-opacity:1; stop-color:#fafafa"/>
  </linearGradient><linearGradient gradientUnits="objectBoundingBox" id="Head-Cat7id5" x1="50%" x2="50%" y1="0%" y2="100%">
   <stop offset="0" style="stop-opacity:1; stop-color:#ffffff"/>
   <stop offset="1" style="stop-opacity:1; stop-color:#ffffff"/>
  </linearGradient><linearGradient gradientUnits="userSpaceOnUse" id="Head-Cat7id230" x1="13681.9" x2="13681.9" y1="13028.8" y2="17278">
   <stop offset="0" style="stop-opacity:1; stop-color:#f5f5f5"/>
   <stop offset="0.658824" style="stop-opacity:1; stop-color:#f5f5f5"/>
   <stop offset="1" style="stop-opacity:1; stop-color:#e8dcdc"/>
  </linearGradient><linearGradient gradientUnits="userSpaceOnUse" id="Eyes-Cat9id27" x1="16937.6" x2="16937.6" y1="14961.3" y2="11448.6">
   <stop offset="0" style="stop-opacity:1; stop-color:#80804f"/>
   <stop offset="1" style="stop-opacity:1; stop-color:black"/>
  </linearGradient><linearGradient gradientUnits="objectBoundingBox" id="Eyes-Cat9id57" x1="100%" x2="0%" y1="50.0003%" y2="50.0003%">
   <stop offset="0" style="stop-opacity:1; stop-color:#80804f"/>
   <stop offset="0.501961" style="stop-opacity:1; stop-color:#ffffde"/>
   <stop offset="1" style="stop-opacity:1; stop-color:#80804f"/>
  </linearGradient><linearGradient gradientUnits="userSpaceOnUse" id="Eyes-Cat9id384" x1="16417.8" x2="16417.8" y1="11784.3" y2="14068.5">
   <stop offset="0" style="stop-opacity:1; stop-color:black"/>
   <stop offset="0.45" style="stop-opacity:1; stop-color:black"/>
   <stop offset="1" style="stop-opacity:1; stop-color:#66663a"/>
  </linearGradient><linearGradient gradientUnits="userSpaceOnUse" id="HatBanderasBack-Mediumid273new" x1="11276.3" x2="11276.3" y1="15499.7" y2="11357.8">
   <stop offset="0" style="stop-opacity:1; stop-color:#3B3621"/>
   <stop offset="1" style="stop-opacity:1; stop-color:#0D0A05"/>
  </linearGradient><linearGradient gradientUnits="userSpaceOnUse" id="HatBanderas-Mediumid29new" x1="23027" x2="23148.7" y1="9696.19" y2="6902.77">
   <stop offset="0" style="stop-opacity:1; stop-color:#DB9600"/>
   <stop offset="1" style="stop-opacity:1; stop-color:#FFCC00"/>
  </linearGradient></defs><g id="HatBanderasBack-Medium">
 <animateTransform additive="sum" attributeName="transform" dur="10" repeatCount="indefinite" type="translate" values="0;0 200;0;0 200;0;0 200;0;0 200;0"/>
  <metadata id="CorelCorpID_7Corel-Layer"/>
  <path class="HatBanderasBack-Mediumfil16new HatBanderasBack-Mediumstr2new" d="M19319 11711c-1698,-571 -3233,-710 -5574,-710 -5662,0 -10252,1138 -10252,2543 0,848 1874,1491 4030,1087 3082,-577 4927,-2776 11796,-2920z" style="fill:#07cd97"/>
  <path class="HatBanderasBack-Mediumfil3new" d="M9431 11236c-3506,404 -5938,1286 -5938,2308 0,107 30,211 87,311 1508,-1228 4279,-771 4327,639 1244,-360 1143,-1811 1524,-3258z" style="fill:#66db5d"/>
 </g><g id="HairBack-Cat0">
 <animateTransform additive="sum" attributeName="transform" dur="10" repeatCount="indefinite" type="translate" values="0;0 200;0;0 200;0;0 200;0;0 200;0"/>
  <rect class="HairBack-Cat0fil22" height="890" width="890" x="13237" y="6590"/>
 </g><g id="Tail-Cat5">
  <path class="Tail-Cat5fil31" d="M12493 21526c-108,-680 356,-1318 1035,-1426 680,-108 1318,356 1426,1035 72,449 608,789 1013,871 739,150 1483,-534 1408,-1680 -158,-2421 1027,-5777 4064,-5078 111,31 166,90 145,159 -33,107 -311,154 -146,195 2925,724 2687,3276 1452,5366 -27,45 -121,128 -214,120 -167,-15 -170,-375 -233,-240 -388,832 -900,1361 -1351,1361 -340,-1 -479,-524 -569,-313 -571,1351 -2022,2423 -3323,2632 -1260,201 -2607,-168 -3570,-1011 -591,-519 -1010,-1199 -1137,-1991z" style="fill:#94b36c"/>
  <path class="Tail-Cat5fil14" d="M12493 21526c-26,-167 -18,-332 19,-487 213,-178 462,-344 585,-418 304,-15 814,942 1117,926 875,2545 4568,3180 6172,593 -8,32 -18,63 -27,94 -653,1189 -1969,2103 -3159,2294 -1260,201 -2607,-168 -3570,-1011 -591,-519 -1010,-1199 -1137,-1991z" style="fill:#e39261"/>
  <path class="Tail-Cat5fil22 Tail-Cat5str0" d="M12493 21526c-108,-680 356,-1318 1035,-1426 680,-108 1318,356 1426,1035 72,449 608,789 1013,871 739,150 1483,-534 1408,-1680 -158,-2421 1027,-5777 4064,-5078 111,31 166,90 145,159 -33,107 -311,154 -146,195 2925,724 2530,3652 1546,5232 -66,105 -215,262 -308,254 -167,-15 -170,-375 -233,-240 -388,832 -900,1361 -1351,1361 -340,-1 -479,-524 -569,-313 -571,1351 -2022,2423 -3323,2632 -1260,201 -2607,-168 -3570,-1011 -591,-519 -1010,-1199 -1137,-1991z" style="fill:#8d39e6"/>
  <path class="Tail-Cat5fil14" d="M22029 21494c-153,311 -399,598 -760,695 -667,178 -1177,-1232 -1355,-1898 -68,-160 -245,81 -398,75 -284,-206 -410,-617 -481,-903 -14,-55 -63,-427 -73,-471 79,276 473,1128 815,914 670,-419 881,2197 2252,1588z" style="fill:#8a896c"/>
  <path class="Tail-Cat5fil32" d="M20750 21900c25,33 19,80 -14,105 -33,25 -80,19 -105,-14 -170,-223 -337,-492 -482,-803 -123,-262 -229,-555 -309,-878 -15,9 -32,20 -50,32 -116,74 -262,168 -396,42 -103,-97 -205,-253 -290,-447 -56,-127 -267,-730 -144,-1113 27,388 227,930 281,1054 77,174 167,314 256,397 48,46 139,-13 212,-59 45,-30 85,-56 126,-65 70,-17 121,3 142,90 77,324 184,619 308,884 140,301 302,561 465,775z" style="fill:#8a1b6a"/>
 </g><g id="RightFoot-Cat3">
  <path class="RightFoot-Cat3fil35" d="M17107 25230c-124,214 -404,285 -611,106 -71,70 -277,145 -526,65 -410,-131 -508,-461 -851,-710 -221,-159 -124,-477 -114,-668 364,340 783,-165 1076,-248 374,-102 737,158 534,413 199,95 520,237 673,411 169,192 121,631 -181,631z" style="fill:#7d9454"/>
  <path class="RightFoot-Cat3fil14" d="M17107 25230c-124,214 -404,285 -611,106 -71,70 -277,145 -526,65 -410,-131 -518,-492 -872,-726 -156,-103 -135,-387 -103,-573 18,-14 37,-27 56,-38 -60,533 1445,1528 1433,860 214,342 596,186 545,-150 127,134 271,-14 143,-274 182,62 215,288 209,441 -17,153 -106,289 -274,289z" style="fill:#0b93dd"/>
  <path class="RightFoot-Cat3fil22" d="M16655 24186c278,231 480,239 633,413 169,192 121,631 -181,631 -124,214 -404,285 -611,106 -71,70 -277,145 -526,65 -410,-131 -520,-489 -872,-726 -156,-105 -138,-331 -109,-524" style="fill:#87cb78"/>
  <path class="RightFoot-Cat3fil32" d="M16703 24128c-31,-26 -78,-22 -105,10 -27,31 -22,79 9,105 144,120 266,182 373,236 100,50 184,92 252,169 81,92 97,256 55,370 -18,49 -49,94 -96,118 7,-269 -115,-534 -402,-526 186,95 268,253 247,592 -49,79 -127,137 -220,155 -79,15 -160,-2 -228,-45 38,-218 10,-484 -289,-538 139,98 163,330 142,511 -32,29 -98,60 -189,72 -75,9 -164,4 -260,-27 -221,-71 -352,-219 -489,-375 -104,-118 -211,-239 -363,-342 -57,-38 -82,-102 -91,-176 -11,-85 -1,-183 13,-274 15,-98 -130,-119 -144,-22 -16,102 -31,212 -18,314 14,114 57,216 157,282 136,92 236,206 333,317 151,171 295,335 557,419 119,38 230,44 323,32 93,-11 171,-41 226,-75 103,70 225,98 348,74 125,-24 233,-98 305,-202 136,-15 232,-107 279,-232 61,-166 34,-387 -84,-521 -86,-98 -183,-147 -296,-204 -100,-50 -214,-108 -345,-217z" style="fill:#cfe2ae"/>
 </g><g id="LeftFoot-Cat3">
  <path class="LeftFoot-Cat3fil35" d="M10257 25230c124,214 404,285 611,106 71,70 277,145 526,65 410,-131 508,-461 851,-710 221,-159 124,-477 114,-668 -364,340 -783,-165 -1076,-248 -374,-102 -737,158 -535,413 -198,95 -519,237 -672,411 -169,192 -121,631 181,631z" style="fill:#8c767b"/>
  <path class="LeftFoot-Cat3fil14" d="M10257 25230c124,214 404,285 611,106 71,70 277,145 526,65 410,-131 518,-492 871,-726 157,-103 136,-387 103,-573 -17,-14 -36,-27 -55,-38 60,533 -1445,1528 -1434,860 -213,342 -595,186 -544,-150 -127,134 -271,-14 -143,-274 -182,62 -215,288 -209,441 17,153 106,289 274,289z" style="fill:#a9d7cf"/>
  <path class="LeftFoot-Cat3fil22" d="M10708 24186c-277,231 -480,239 -632,413 -169,192 -121,631 181,631 124,214 404,285 611,106 71,70 277,145 526,65 410,-131 520,-489 871,-726 156,-105 139,-331 110,-524" style="fill:#1496f8"/>
  <path class="LeftFoot-Cat3fil32" d="M10660 24128c32,-26 79,-22 106,10 26,31 22,79 -10,105 -143,120 -266,182 -373,236 -99,50 -183,92 -251,169 -81,92 -97,256 -55,370 18,49 49,94 96,118 -7,-269 115,-534 402,-526 -186,95 -268,253 -247,592 49,79 127,137 220,155 79,15 160,-2 228,-45 -39,-218 -11,-484 289,-538 -139,98 -163,330 -142,511 31,29 98,60 189,72 75,9 163,4 259,-27 222,-71 353,-219 490,-375 104,-118 210,-239 363,-342 56,-38 82,-102 91,-176 11,-85 0,-183 -14,-274 -14,-98 131,-119 145,-22 16,102 31,212 18,314 -14,114 -58,216 -157,282 -136,92 -236,206 -333,317 -151,171 -296,335 -557,419 -119,38 -230,44 -323,32 -93,-11 -171,-41 -226,-75 -103,70 -226,98 -349,74 -124,-24 -233,-98 -304,-202 -136,-15 -232,-107 -279,-232 -61,-166 -34,-387 84,-521 86,-98 183,-147 296,-204 100,-50 214,-108 344,-217z" style="fill:#5ce5ab"/>
 </g><g id="RightLeg-Cat1">
  <path class="RightLeg-Cat1fil37" d="M13682 23259c428,0 1377,183 1321,776 215,222 637,350 896,149 312,-243 712,-232 720,-12 370,-265 678,-701 680,-1146 2,-860 -666,-1598 -969,-1838 -621,860 -1470,1269 -2648,1328l0 743z" style="fill:#9a28e1"/>
  <path class="RightLeg-Cat1fil38" d="M17274 22734c-58,-349 -215,-669 -392,-931 -283,218 -475,535 -335,781 127,222 427,249 727,150zm-244 1031c162,-222 268,-479 269,-739 0,-32 -1,-65 -3,-97 -262,48 -477,178 -506,396 -24,176 76,328 240,440z" style="fill:#6751cf"/>
  <path class="RightLeg-Cat1fil14" d="M17192 23490c67,-148 106,-305 107,-464 2,-775 -541,-1451 -869,-1752l-157 727c26,48 52,95 79,143 387,-413 947,879 840,1346z" style="fill:#438b11"/>
  <path class="RightLeg-Cat1fil32" d="M14990 24254c62,5 73,-66 79,-154 8,-118 -4,-261 -94,-417 0,-1 -1,-3 -2,-4 -100,-171 -247,-296 -460,-378 -208,-80 -478,-119 -831,-119l0 150c335,0 588,36 777,108 180,69 302,173 385,314 0,2 1,3 2,4 67,116 86,244 75,332 -9,68 -10,89 -11,105 -4,48 44,56 80,59zm1296 -3006c175,140 477,451 691,859 144,272 248,587 247,919 -1,245 -87,464 -218,653 -154,223 -454,481 -660,663 306,-60 713,-477 783,-578 147,-211 244,-458 244,-738 2,-360 -110,-698 -263,-989 -227,-430 -547,-760 -734,-907l-46 58 -44 60 0 0z" style="fill:#697082"/>
 </g><g id="LeftLeg-Cat1">
  <path class="LeftLeg-Cat1fil45" d="M13682 23259c-428,0 -1377,183 -1321,776 -215,222 -637,350 -896,149 -312,-243 -712,-232 -720,-12 -370,-265 -679,-701 -680,-1146 -2,-860 666,-1598 969,-1838 621,860 1470,1269 2648,1328l0 743z" style="fill:#502cec"/>
  <path class="LeftLeg-Cat1fil38" d="M10334 23765c-162,-222 -268,-479 -269,-739 0,-32 1,-65 3,-97 261,48 477,178 506,396 24,176 -77,328 -240,440zm-245 -1031c59,-349 216,-669 393,-931 282,218 475,535 335,781 -127,222 -427,249 -728,150z" style="fill:#08260c"/>
  <path class="LeftLeg-Cat1fil32" d="M12374 24254c-62,5 -74,-66 -80,-154 -7,-118 4,-261 94,-417 1,-1 2,-3 3,-4 100,-171 247,-296 460,-378 208,-80 478,-119 831,-119l0 150c-335,0 -588,36 -777,108 -180,69 -303,173 -385,314 -1,2 -1,3 -2,4 -67,116 -86,244 -75,332 9,68 10,89 11,105 4,48 -44,56 -80,59zm-1296 -3006c-176,140 -477,451 -692,859 -143,272 -247,587 -246,919 1,245 87,464 218,653 154,223 454,481 660,663 -306,-60 -713,-477 -784,-578 -146,-211 -243,-458 -244,-738 -1,-360 110,-698 264,-989 226,-430 547,-760 734,-907l46 58 44 60 0 0z" style="fill:#fdeb55"/>
  <path class="LeftLeg-Cat1fil14" d="M10172 23490c-67,-148 -106,-305 -107,-464 -2,-775 540,-1451 869,-1752l157 727c-26,48 -53,95 -79,143 -388,-413 -947,879 -840,1346z" style="fill:#da7295"/>
 </g><g id="RightHand-Cat2">
 <animateTransform additive="sum" attributeName="transform" dur="10" repeatCount="indefinite" type="translate" values="0;0 200;0;0 200;0;0 200;0;0 200;0"/>
  <path class="RightHand-Cat2fil48" d="M16231 17709c1007,345 1819,1401 2257,2165 289,504 -636,1265 -911,1014 -627,-574 -1209,-620 -1689,-543 -742,120 -1353,-1920 -931,-2545 422,-21 934,-40 1274,-91z" style="fill:#f3d368"/>
  <path class="RightHand-Cat2fil50" d="M16231 17709c520,178 988,546 1380,966 157,763 -773,729 -1017,478 -363,-372 -144,-1106 -687,-1408 118,-10 228,-22 324,-36z" style="fill:#9a719f"/>
  <path class="RightHand-Cat2fil14" d="M17512 20830c-602,-518 -1160,-559 -1624,-485 -171,28 -335,-59 -481,-217 -325,-472 753,-1098 1039,-656 261,403 734,847 1111,1126 -2,93 16,193 -45,232l0 0 0 0z" style="fill:#24bc55"/>
  <path class="RightHand-Cat2fil22 RightHand-Cat2str0" d="M16477 20333c340,47 711,200 1100,555 275,251 1152,-509 864,-1013 -438,-763 -1203,-1821 -2210,-2166 -90,-31 -172,-59 -246,-84" style="fill:#7bd65e"/>
 </g><g id="LeftHand-Cat2">
 <animateTransform additive="sum" attributeName="transform" dur="10" repeatCount="indefinite" type="translate" values="0;0 200;0;0 200;0;0 200;0;0 200;0"/>
  <path class="LeftHand-Cat2fil55" d="M11133 17709c-1007,345 -1819,1401 -2257,2165 -289,504 636,1265 911,1014 627,-574 1209,-620 1689,-543 742,120 1352,-1920 931,-2545 -422,-21 -934,-40 -1274,-91z" style="fill:#3c92e4"/>
  <path class="LeftHand-Cat2fil58" d="M10516 18018c-720,474 -1296,1256 -1640,1856 -46,80 -61,167 -53,255 56,61 669,593 1040,707 191,-163 494,-342 602,-390 -365,-206 -297,-903 93,-1071 760,-329 718,-1370 -42,-1357z" style="fill:#d6df2b"/>
  <path class="LeftHand-Cat2fil14" d="M9852 20830c602,-518 1160,-559 1624,-485 171,28 335,-59 481,-217 325,-472 -753,-1098 -1039,-656 -261,403 -734,847 -1111,1126 2,93 -16,193 45,232l0 0 0 0z" style="fill:#738ba0"/>
  <path class="LeftHand-Cat2fil22 LeftHand-Cat2str0" d="M10887 20333c-340,47 -711,200 -1100,555 -275,251 -1153,-509 -864,-1013 438,-763 1203,-1821 2210,-2166 90,-31 171,-59 246,-84" style="fill:#2b0dea"/>
 </g><g id="Body-Cat5">
 <animateTransform additive="sum" attributeName="transform" dur="10" repeatCount="indefinite" type="translate" values="0;0 200;0;0 200;0;0 200;0;0 200;0"/>
  <path class="Body-Cat5fil62" d="M13682 23135c-1548,0 -2752,-291 -2993,-1956 -147,-1014 391,-2287 991,-3420 634,80 1289,123 2002,142 713,-19 1367,-62 2002,-142 600,1133 1137,2406 991,3420 -242,1665 -1445,1956 -2993,1956z" style="fill:#ad5220"/>
  <path class="Body-Cat5fil66" d="M13682 22724c-1582,0 -2371,-1741 -2102,-2324 180,-390 11,-191 -152,-208 -181,-20 -163,-248 -40,-495 135,-271 400,-483 245,-440 -406,109 -144,-572 179,-894 374,-373 1066,7 1870,7 804,0 1496,-380 1870,-7 323,322 585,1003 179,894 -155,-43 110,169 245,440 123,247 141,475 -40,495 -163,17 -332,-182 -152,208 269,583 -520,2324 -2102,2324z" style="fill:#c11204"/>
  <path class="Body-Cat5fil14" d="M12621 23067c-1016,-156 -1749,-629 -1932,-1888 -75,-519 29,-1106 229,-1707 -223,2001 402,3257 1703,3595z" style="fill:#2a76a0"/>
  <path class="Body-Cat5fil32" d="M11012 22144c-250,-321 -348,-641 -397,-954 -59,-377 -24,-998 184,-1320 -78,421 -93,905 -36,1298 50,341 104,572 249,976z" style="fill:#1e6261"/>
  <path class="Body-Cat5fil14" d="M14743 23067c1016,-156 1749,-629 1932,-1888 75,-519 -29,-1106 -229,-1707 223,2001 -402,3257 -1703,3595z" style="fill:#bf86d0"/>
  <path class="Body-Cat5fil32" d="M16352 22144c250,-321 347,-641 397,-954 59,-377 24,-998 -184,-1320 78,421 93,905 36,1298 -50,341 -104,572 -249,976z" style="fill:#843737"/>
  <path class="Body-Cat5fil32" d="M12471 19048c14,90 4,320 274,403 104,32 268,2 338,-92 41,-54 108,-17 116,35 27,176 135,303 267,367 69,33 144,49 218,46 72,-2 143,-23 205,-64 110,-73 193,-211 207,-426 2,-41 34,-72 70,-69 27,2 48,21 57,47 49,115 191,167 298,161 199,-12 328,-149 389,-357 24,291 -131,492 -383,506 -114,7 -234,-31 -324,-111 -43,180 -134,304 -248,378 -81,54 -173,81 -267,85 -93,3 -187,-17 -273,-58 -141,-68 -261,-192 -318,-364 -112,74 -260,99 -386,61 -266,-82 -287,-394 -240,-548z" style="fill:#ba77d2"/>
 </g><g id="WeaponBflyNetBack-Medium">
 <animateTransform additive="sum" attributeName="transform" dur="10" repeatCount="indefinite" type="translate" values="0;0 200;0;0 200;0;0 200;0;0 200;0"/>
  <metadata id="CorelCorpID_6Corel-Layer"/>
  <path class="WeaponBflyNetBack-Mediumfil12 WeaponBflyNetBack-Mediumstr0" d="M9510 21699l211 -158 -3097 -1978c-171,-110 -453,-135 -615,154 -163,288 4,515 187,606l3288 1638 26 -262z" style="fill:#80b0ed"/>
  <path class="WeaponBflyNetBack-Mediumfil1" d="M6205 19540c-65,37 -126,96 -176,184 -162,288 5,515 188,606l3267 1631 22 -220c-464,-223 -2955,-1545 -3141,-1708 -152,-132 -207,-333 -160,-493z" style="fill:#b6afd2"/>
 </g><g id="RightPaw-Cat2">
 <animateTransform additive="sum" attributeName="transform" dur="10" repeatCount="indefinite" type="translate" values="0;0 200;0;0 200;0;0 200;0;0 200;0"/>
  <path class="RightPaw-Cat2fil53" d="M17501 20836c-31,672 506,1059 828,766 253,397 884,103 809,-293 203,-535 -266,-1036 -634,-1325 -19,-39 -57,-100 -86,-131 -353,616 -634,503 -778,573 -164,79 -11,352 -139,410z" style="fill:#b98456"/>
  <path class="RightPaw-Cat2fil14" d="M17501 20836c-31,672 506,1059 828,766 341,429 911,24 754,-293 -66,297 -521,408 -658,-118 -113,412 -522,237 -614,26 -95,-216 -45,-462 -254,-619 -2,93 16,193 -45,232l0 0 0 1c-2,0 -3,1 -5,2l0 0 0 0 0 0 0 0 -1 1 0 0 0 0c-2,1 -3,2 -5,2z" style="fill:#b8b8f6"/>
  <path class="RightPaw-Cat2fil32" d="M17437 20673c-79,-58 -168,63 -89,121 29,21 57,43 84,65 -4,302 99,551 246,712 55,61 118,109 183,144 146,76 312,82 454,-8 209,238 583,191 784,-34 86,-97 135,-221 116,-357 83,-234 46,-463 -52,-673 -133,-282 -403,-498 -588,-704 -34,-37 -181,-286 -215,-345 -58,-79 -178,10 -120,89 36,48 75,120 112,186 6,12 81,153 124,188 201,164 431,392 551,649 38,81 66,165 77,251 -53,-69 -156,-152 -275,-139 81,67 126,143 171,252 66,158 114,363 -12,503 -142,159 -412,205 -563,33 116,-164 118,-464 -80,-548 55,102 48,374 -55,477 -86,86 -222,119 -360,47 -49,-26 -97,-63 -141,-112 -128,-140 -218,-365 -207,-639 2,-22 -6,-44 -23,-60 -37,-34 -82,-68 -122,-98z" style="fill:#0bfeaa"/>
 </g><g id="LeftPaw-Cat2">
 <animateTransform additive="sum" attributeName="transform" dur="10" repeatCount="indefinite" type="translate" values="0;0 200;0;0 200;0;0 200;0;0 200;0"/>
  <path class="LeftPaw-Cat2fil60" d="M9863 20836c31,672 -506,1059 -828,766 -253,397 -884,103 -809,-293 -203,-535 266,-1036 634,-1325 19,-39 56,-100 86,-131 353,616 634,503 778,573 164,79 11,352 139,410z" style="fill:#b96333"/>
  <path class="LeftPaw-Cat2fil14" d="M9863 20836c31,672 -506,1059 -828,766 -341,429 -911,24 -754,-293 66,297 521,408 658,-118 113,412 522,237 614,26 95,-216 45,-462 254,-619 2,93 -16,193 45,232l0 0 0 1c2,0 3,1 5,2l0 0 0 0 0 0 0 0 0 1 1 0 0 0c1,1 3,2 5,2z" style="fill:#3b6fd9"/>
  <path class="LeftPaw-Cat2fil32" d="M9927 20673c79,-58 168,63 88,121 -28,21 -56,43 -83,65 4,302 -100,551 -246,712 -56,61 -118,109 -183,144 -146,76 -312,82 -454,-8 -209,238 -583,191 -784,-34 -86,-97 -135,-221 -116,-357 -83,-234 -46,-463 52,-673 133,-282 403,-498 588,-704 34,-37 180,-286 214,-345 59,-79 179,10 121,89 -36,48 -76,120 -112,186 -6,12 -81,153 -124,188 -201,164 -431,392 -551,649 -38,81 -66,165 -77,251 53,-69 156,-152 275,-139 -81,67 -126,143 -172,252 -65,158 -113,363 13,503 142,159 412,205 562,33 -115,-164 -117,-464 81,-548 -55,102 -48,374 55,477 86,86 222,119 359,47 50,-26 98,-63 142,-112 128,-140 218,-365 207,-639 -2,-22 6,-44 23,-60 37,-34 81,-68 122,-98z" style="fill:#73b68c"/>
 </g><g id="BraceletLeather-Medium">
 <animateTransform additive="sum" attributeName="transform" dur="10" repeatCount="indefinite" type="translate" values="0;0 200;0;0 200;0;0 200;0;0 200;0"/>
  <metadata id="CorelCorpID_17Corel-Layer"/>
  <path class="BraceletLeather-Mediumfil42new BraceletLeather-Mediumstr3new" d="M8689 19690c-86,-160 -115,-250 -201,-410 -29,-75 3,-239 44,-232 104,3 219,4 324,-2 3,181 43,415 96,612 -87,11 -175,21 -263,32z" style="fill:#650937"/>
  <path class="BraceletLeather-Mediumfil43new" d="M8689 19690c-86,-160 -115,-250 -201,-410 -29,-75 3,-239 44,-232l8 0c53,219 164,421 282,626l-133 16z" style="fill:#22c61c"/>
  <path class="BraceletLeather-Mediumfil33new BraceletLeather-Mediumstr3new" d="M8689 19690c-86,-160 -115,-250 -201,-410 -29,-75 3,-239 44,-232 104,3 219,4 324,-2 3,181 43,415 96,612 -87,11 -175,21 -263,32z" style="fill:#47c630"/>
  <path class="BraceletLeather-Mediumfil44new BraceletLeather-Mediumstr3new" d="M8645 19884c-170,-64 -251,-113 -421,-177 -71,-38 -153,-183 -118,-204 81,-66 168,-141 243,-214 121,135 304,285 474,399 -59,66 -118,131 -178,196z" style="fill:#d52bfd"/>
  <path class="BraceletLeather-Mediumfil43new" d="M8645 19884c-170,-64 -251,-113 -421,-177 -71,-38 -153,-183 -118,-204l6 -5c184,130 400,211 623,288l-90 98z" style="fill:#5ec254"/>
  <path class="BraceletLeather-Mediumfil33new BraceletLeather-Mediumstr3new" d="M8645 19884c-170,-64 -251,-113 -421,-177 -71,-38 -153,-183 -118,-204 81,-66 168,-141 243,-214 121,135 304,285 474,399 -59,66 -118,131 -178,196z" style="fill:#7f0c90"/>
  <path class="BraceletLeather-Mediumfil45new BraceletLeather-Mediumstr4new" d="M8734 19936c-151,-67 -255,-143 -151,-272 117,-147 267,-135 481,-33 407,194 958,608 1165,923 91,139 91,306 -39,409 -129,103 -210,-20 -308,-153 -243,-331 -765,-704 -1148,-874z" style="fill:#19358e"/>
  <path class="BraceletLeather-Mediumfil46new" d="M8734 19936c-79,-35 -145,-73 -176,-119 77,-41 167,-29 240,0 506,201 953,539 1254,974 48,70 58,140 38,210 -76,-6 -138,-95 -208,-191 -243,-331 -765,-704 -1148,-874z" style="fill:#66625d"/>
  <path class="BraceletLeather-Mediumfil47new BraceletLeather-Mediumstr4new" d="M8734 19936c-151,-67 -255,-143 -151,-272 117,-147 267,-135 481,-33 407,194 958,608 1165,923 91,139 91,306 -39,409 -129,103 -210,-20 -308,-153 -243,-331 -765,-704 -1148,-874z" style="fill:#b43302"/>
  <path class="BraceletLeather-Mediumfil48new BraceletLeather-Mediumstr3new" d="M18674 19690c87,-160 116,-250 202,-410 29,-75 -3,-239 -44,-232 -104,3 -219,4 -324,-2 -3,181 -43,415 -97,612 88,11 176,21 263,32z" style="fill:#14fc1b"/>
  <path class="BraceletLeather-Mediumfil43new" d="M18674 19690c87,-160 116,-250 202,-410 29,-75 -3,-239 -44,-232l-8 0c-53,219 -164,421 -282,626l132 16z" style="fill:#caea4d"/>
  <path class="BraceletLeather-Mediumfil33new BraceletLeather-Mediumstr3new" d="M18674 19690c87,-160 116,-250 202,-410 29,-75 -3,-239 -44,-232 -104,3 -219,4 -324,-2 -3,181 -43,415 -97,612 88,11 176,21 263,32z" style="fill:#86bc56"/>
  <path class="BraceletLeather-Mediumfil49new BraceletLeather-Mediumstr3new" d="M18718 19884c170,-64 252,-113 422,-177 71,-38 153,-183 118,-204 -81,-66 -168,-141 -243,-214 -121,135 -305,285 -475,399 60,66 119,131 178,196z" style="fill:#bfef93"/>
  <path class="BraceletLeather-Mediumfil43new" d="M18718 19884c170,-64 252,-113 422,-177 71,-38 153,-183 118,-204l-6 -5c-184,130 -400,211 -623,288l89 98z" style="fill:#6f59e7"/>
  <path class="BraceletLeather-Mediumfil33new BraceletLeather-Mediumstr3new" d="M18718 19884c170,-64 252,-113 422,-177 71,-38 153,-183 118,-204 -81,-66 -168,-141 -243,-214 -121,135 -305,285 -475,399 60,66 119,131 178,196z" style="fill:#efdced"/>
  <path class="BraceletLeather-Mediumfil50new BraceletLeather-Mediumstr4new" d="M18630 19936c151,-67 255,-143 151,-272 -117,-147 -267,-135 -481,-33 -407,194 -958,608 -1165,923 -91,139 -91,306 39,409 129,103 210,-20 307,-153 244,-331 766,-704 1149,-874z" style="fill:#497133"/>
  <path class="BraceletLeather-Mediumfil46new" d="M18630 19936c79,-35 145,-73 175,-119 -76,-41 -166,-29 -239,0 -507,201 -954,539 -1254,974 -48,70 -58,140 -38,210 76,-6 137,-95 207,-191 244,-331 766,-704 1149,-874z" style="fill:#7a3b3a"/>
  <path class="BraceletLeather-Mediumfil47new BraceletLeather-Mediumstr4new" d="M18630 19936c151,-67 255,-143 151,-272 -117,-147 -267,-135 -481,-33 -407,194 -958,608 -1165,923 -91,139 -91,306 39,409 129,103 210,-20 307,-153 244,-331 766,-704 1149,-874z" style="fill:#1574d8"/>
 </g><g id="Head-Cat7">
 <animateTransform additive="sum" attributeName="transform" dur="10" repeatCount="indefinite" type="translate" values="0;0 200;0;0 200;0;0 200;0;0 200;0"/>
  <path class="Head-Cat7fil148" d="M13682 7485c-3332,0 -6822,4262 -6118,7422 481,2162 3344,3030 6118,3030 2774,0 5637,-868 6118,-3030 704,-3160 -2786,-7422 -6118,-7422z" style="fill:#b02ddd"/>
  <path class="Head-Cat7fil149" d="M12565 7637c-315,85 -628,202 -934,349 42,113 76,226 101,335 62,268 330,435 598,373 268,-62 435,-329 373,-598 -35,-151 -82,-306 -138,-459zm1117 -152c-167,0 -333,11 -500,32l0 1054c0,276 224,500 500,500 276,0 500,-224 500,-500l0 -1054c-167,-21 -334,-32 -500,-32zm1117 152c315,85 628,202 934,349 -42,113 -76,226 -101,335 -63,268 -330,435 -598,373 -268,-62 -436,-329 -373,-598 35,-151 81,-306 138,-459zm5080 6737c-15,181 -40,358 -79,533 -34,154 -81,302 -139,443 -302,-87 -599,-207 -860,-352 -241,-134 -327,-437 -194,-678 134,-240 438,-327 678,-193 177,98 381,182 594,247zm-430 1390c-177,286 -407,541 -677,766 -168,-99 -328,-208 -472,-324 -215,-172 -249,-486 -77,-700 173,-215 486,-249 701,-77 153,123 334,237 525,335zm-1046 1039c-271,179 -571,334 -894,468 -14,-20 -28,-40 -41,-60 -154,-228 -94,-538 135,-692 228,-153 538,-93 691,136 34,49 70,99 109,148zm-9442 0c271,179 571,334 894,468 14,-20 28,-40 41,-60 154,-228 94,-538 -135,-692 -228,-153 -538,-93 -692,136 -33,49 -69,99 -108,148zm-1047 -1039c178,286 407,541 678,766 168,-99 328,-208 472,-324 215,-172 249,-486 77,-700 -173,-215 -486,-249 -701,-77 -153,123 -334,237 -526,335zm-429 -1390c14,181 40,358 79,533 34,154 81,302 139,443 302,-87 599,-207 860,-352 241,-134 327,-437 194,-678 -134,-240 -438,-327 -678,-193 -177,98 -381,182 -594,247z" style="fill:#f25637"/>
  <path class="Head-Cat7fil150" d="M13682 9364c-1787,0 -612,4205 -2619,5099 -1161,517 497,2815 2619,2815 2122,0 3780,-2298 2619,-2815 -2007,-894 -832,-5099 -2619,-5099z" style="fill:#223a06"/>
  <path class="Head-Cat7fil14" d="M8458 10922c-785,1275 -1176,2719 -894,3985 421,1891 2663,2792 5075,2988 -4046,-960 -5424,-2961 -4181,-6973z" style="fill:#5dc47b"/>
  <path class="Head-Cat7fil32" d="M7917 11963c-177,545 -289,1096 -343,1569 -53,462 -37,918 60,1351 178,802 697,1428 1417,1903 661,435 2110,926 3201,1064 -1561,-30 -2776,-598 -3283,-930 -754,-491 -1330,-1151 -1518,-1995 -100,-451 -117,-932 -62,-1410 44,-384 295,-1267 528,-1552z" style="fill:#217c69"/>
  <path class="Head-Cat7fil32" d="M19447 11963c177,545 289,1096 343,1569 53,462 37,918 -60,1351 -178,802 -697,1428 -1417,1903 -661,435 -2111,926 -3201,1064 1561,-30 2775,-598 3283,-930 753,-491 1330,-1151 1518,-1995 100,-451 117,-932 62,-1410 -44,-384 -295,-1267 -528,-1552z" style="fill:#5e0da7"/>
  <path class="Head-Cat7fil32" d="M13682 7560c-408,0 -767,56 -1102,149 -949,262 -2036,899 -2715,1499 604,-730 1714,-1378 2675,-1644 348,-96 720,-154 1142,-154 421,0 794,58 1141,154 962,266 2072,914 2676,1644 -679,-600 -1766,-1237 -2715,-1499 -335,-93 -694,-149 -1102,-149z" style="fill:#f4153e"/>
 </g><g id="Mouth-Cat0">
 <animateTransform additive="sum" attributeName="transform" dur="10" repeatCount="indefinite" type="translate" values="0;0 200;0;0 200;0;0 200;0;0 200;0"/>
  <path class="Mouth-Cat0fil22 Mouth-Cat0str0" d="M12571 14784c298,518 1085,300 1111,-492m1111 492c-298,518 -1086,300 -1111,-492" style="fill:#750e85"/>
  <path class="Mouth-Cat0fil100 Mouth-Cat0str0" d="M13694 14424c37,245 153,423 299,529 -122,-61 -207,-138 -311,-138l0 -391 12 0zm-24 0c-37,245 -153,423 -299,529 122,-61 207,-138 311,-138l0 -391 -12 0z" style="fill:#290be1"/>
 </g><g id="WeaponBflyNet-Medium">
 <animateTransform additive="sum" attributeName="transform" dur="10" repeatCount="indefinite" type="translate" values="0;0 200;0;0 200;0;0 200;0;0 200;0"/>
  <metadata id="CorelCorpID_7Corel-Layer"/>
  <path class="WeaponBflyNet-Mediumfil13" d="M9944 24239c-1031,247 -2610,1424 -2409,1744 202,321 807,-308 2195,-285 1388,24 3318,548 4389,475 1072,-73 2527,-605 2527,-1008 0,-404 -664,-890 -664,-890l-1329 -819 -1589 -545 -1246 35c-312,696 -844,1047 -1874,1293z" style="fill:#ef8683"/>
  <path class="WeaponBflyNet-Mediumfil14 WeaponBflyNet-Mediumstr2" d="M12208 23611c1081,-10 2699,732 3400,1560" style="fill:#84435f"/>
  <path class="WeaponBflyNet-Mediumfil14 WeaponBflyNet-Mediumstr2" d="M15001 25038c361,-118 643,-350 896,-735" style="fill:#d2cfd3"/>
  <path class="WeaponBflyNet-Mediumfil14 WeaponBflyNet-Mediumstr2" d="M14199 24735c361,-118 799,-594 993,-1009" style="fill:#dd3699"/>
  <path class="WeaponBflyNet-Mediumfil14 WeaponBflyNet-Mediumstr2" d="M13338 24354c351,-256 662,-654 857,-1068" style="fill:#da5e9d"/>
  <path class="WeaponBflyNet-Mediumfil14 WeaponBflyNet-Mediumstr2" d="M12448 23933c351,-255 662,-653 856,-1068" style="fill:#f4b199"/>
  <path class="WeaponBflyNet-Mediumfil14 WeaponBflyNet-Mediumstr3" d="M9944 24239c-1031,247 -2610,1424 -2409,1744 202,321 807,-308 2195,-285 1388,24 3289,510 4389,475 1101,-35 2500,-626 2500,-1029 0,-404 -637,-869 -637,-869l-1329 -819 -1589 -545 -1246 35c-312,696 -844,1047 -1874,1293z" style="fill:#576d32"/>
  <path class="WeaponBflyNet-Mediumfil15 WeaponBflyNet-Mediumstr0" d="M12035 22910c-60,107 -121,213 -181,320 -796,-450 -1593,-899 -2390,-1348 -25,-155 36,-261 180,-320 797,449 1594,899 2391,1348z" style="fill:#ad9071"/>
  <path class="WeaponBflyNet-Mediumfil14 WeaponBflyNet-Mediumstr2" d="M7552 25924c388,-461 1369,-846 2240,-977 1201,-181 2132,-581 2417,-1260" style="fill:#5e2b1d"/>
  <path class="WeaponBflyNet-Mediumfil3" d="M11925 23104l-71 126c-796,-450 -1593,-899 -2390,-1348 -14,-83 -2,-151 33,-206l2428 1428z" style="fill:#8296d1"/>
  <path class="WeaponBflyNet-Mediumfil14 WeaponBflyNet-Mediumstr2" d="M13504 26144c892,-24 1786,-100 2461,-823" style="fill:#153883"/>
  <path class="WeaponBflyNet-Mediumfil14 WeaponBflyNet-Mediumstr2" d="M11549 25873c1214,-25 2062,57 3174,-816" style="fill:#635f46"/>
  <path class="WeaponBflyNet-Mediumfil14 WeaponBflyNet-Mediumstr2" d="M7630 26002c382,-247 1117,-495 1934,-589 1497,-171 3030,135 3829,-826" style="fill:#fea501"/>
  <path class="WeaponBflyNet-Mediumfil16 WeaponBflyNet-Mediumstr1" d="M14530 23222c1360,601 2301,1453 2101,1904 -199,452 -1463,331 -2822,-269 -1360,-600 -2301,-1452 -2102,-1904 200,-451 1463,-331 2823,269zm-2073 437c425,367 973,670 1485,896 512,226 1105,426 1663,494 853,103 929,-68 277,-629 -426,-366 -973,-670 -1485,-896 -512,-226 -1105,-425 -1663,-493 -854,-103 -929,67 -277,628z" style="fill:#f69f89"/>
  <path class="WeaponBflyNet-Mediumfil3" d="M16555 25232c-345,321 -1506,173 -2746,-375 -1360,-600 -2301,-1452 -2102,-1904 38,-86 115,-151 223,-196 -33,31 -59,66 -76,106 -199,451 742,1303 2101,1903 1101,486 2139,658 2600,466zm-318 -112c15,-47 65,-258 5,-340 -71,-95 -191,-214 -360,-360 -426,-366 -973,-670 -1485,-896 -512,-226 -1105,-425 -1663,-493 -257,-31 -443,-37 -560,-16 33,-108 266,-128 706,-75 558,68 1151,268 1663,494 513,226 1060,529 1486,896 171,147 292,267 362,363 116,159 17,396 -154,427z" style="fill:#ae9f21"/>
  <path class="WeaponBflyNet-Mediumfil14 WeaponBflyNet-Mediumstr2" d="M11269 23733c142,1272 2907,2208 4031,2233" style="fill:#30d6c7"/>
  <path class="WeaponBflyNet-Mediumfil14 WeaponBflyNet-Mediumstr2" d="M10476 24127c-23,1341 1755,1969 3097,2026" style="fill:#9691cc"/>
  <path class="WeaponBflyNet-Mediumfil14 WeaponBflyNet-Mediumstr2" d="M9671 24329c-323,500 220,1274 858,1420" style="fill:#3d926a"/>
  <path class="WeaponBflyNet-Mediumfil14 WeaponBflyNet-Mediumstr2" d="M8801 24747c-190,293 -4,865 395,962" style="fill:#1eca93"/>
  <path class="WeaponBflyNet-Mediumfil14 WeaponBflyNet-Mediumstr2" d="M8109 25223c-267,258 -33,735 247,682" style="fill:#164b76"/>
 </g><g id="Eyes-Cat9">
 <animateTransform additive="sum" attributeName="transform" dur="10" repeatCount="indefinite" type="translate" values="0;0 200;0;0 200;0;0 200;0;0 200;0"/>
  <path class="Eyes-Cat9fil201" d="M9279 14436c774,527 1906,331 2408,65 860,-457 661,-3017 -754,-3249 -670,-110 -1272,129 -1702,623 -908,1044 -502,2186 48,2561z"/>
  <path class="Eyes-Cat9fil202" d="M12092 13291c-42,-877 -559,-1639 -1161,-1745 -88,-16 -176,-25 -262,-28 -460,19 -869,226 -1179,564 -829,903 -306,1916 197,2241 706,456 1632,226 1989,-13 337,-225 398,-686 416,-1019z"/>
  <path class="Eyes-Cat9fil157" d="M12174 13621c138,-923 -258,-2208 -1241,-2369 -670,-110 -1272,129 -1702,623 -381,438 -531,894 -535,1303 252,-905 1295,-1622 1935,-1514 1134,190 1429,1333 1543,1957z"/>
  <path class="Eyes-Cat9fil203" d="M10424 11533c699,-151 1399,288 1565,980 165,692 -266,1375 -965,1526 -698,151 -1399,-288 -1564,-980 -166,-692 266,-1375 964,-1526z"/>
  <path class="Eyes-Cat9fil152" d="M11213 11455c211,114 316,344 236,482 -80,137 -276,125 -516,75 -240,-49 -328,-256 -254,-458 75,-202 323,-213 534,-99z"/>
  <circle class="Eyes-Cat9fil152" cx="11694" cy="12205" r="158"/>
  <path class="Eyes-Cat9fil152" d="M9657 13827c179,14 373,155 402,351 25,173 -72,414 -356,395 -283,-18 -404,-181 -404,-379 0,-197 161,-382 358,-367z"/>
  <path class="Eyes-Cat9fil204" d="M9591 13059c3,193 -190,313 -383,315 -192,2 -341,-124 -343,-316 -5,-346 139,-716 365,-1015 225,-297 504,-473 842,-558 187,-47 420,15 452,168 42,148 -57,313 -244,375 -173,58 -352,238 -487,416 -140,185 -204,429 -202,615z"/>
  <path class="Eyes-Cat9fil22 Eyes-Cat9str4" d="M9279 14436c774,527 1906,331 2408,65 860,-457 661,-3017 -754,-3249 -670,-110 -1272,129 -1702,623 -908,1044 -502,2186 48,2561z"/>
  <path class="Eyes-Cat9fil205" d="M18085 14436c-774,527 -1906,331 -2408,65 -860,-457 -661,-3017 754,-3249 670,-110 1272,129 1702,623 908,1044 502,2186 -48,2561z"/>
  <path class="Eyes-Cat9fil206" d="M15272 13291c42,-877 559,-1639 1161,-1745 88,-16 176,-25 262,-28 459,19 869,226 1179,564 829,903 306,1916 -197,2241 -706,456 -1632,226 -1989,-13 -337,-225 -398,-686 -416,-1019z"/>
  <path class="Eyes-Cat9fil157" d="M15190 13621c-138,-923 258,-2208 1241,-2369 670,-110 1272,129 1702,623 381,438 531,894 535,1303 -252,-905 -1295,-1622 -1935,-1514 -1134,190 -1429,1333 -1543,1957z"/>
  <path class="Eyes-Cat9fil207" d="M16940 11533c-699,-151 -1399,288 -1565,980 -165,692 266,1375 965,1526 698,151 1399,-288 1564,-980 166,-692 -266,-1375 -964,-1526z"/>
  <path class="Eyes-Cat9fil152" d="M16151 11455c-211,114 -317,344 -236,482 80,137 275,125 516,75 240,-49 328,-256 254,-458 -75,-202 -323,-213 -534,-99z"/>
  <circle class="Eyes-Cat9fil152" cx="18216" cy="13677" r="158"/>
  <path class="Eyes-Cat9fil152" d="M16301 13926c-135,-118 -373,-156 -532,-40 -141,103 -244,342 -32,531 212,189 413,161 554,22 141,-139 160,-383 10,-513z"/>
  <path class="Eyes-Cat9fil204" d="M17773 13059c-3,193 190,313 382,315 193,2 342,-124 344,-316 5,-346 -139,-716 -365,-1015 -225,-297 -504,-473 -842,-558 -187,-47 -420,15 -452,168 -42,148 56,313 244,375 172,58 352,238 487,416 140,185 204,429 202,615z"/>
  <path class="Eyes-Cat9fil22 Eyes-Cat9str4" d="M18085 14436c-774,527 -1906,331 -2408,65 -860,-457 -661,-3017 754,-3249 670,-110 1272,129 1702,623 908,1044 502,2186 -48,2561z"/>
  <path class="Eyes-Cat9fil155" d="M10011 9854c93,-106 559,-127 1060,-348 461,-203 784,-534 969,-470 205,72 140,524 -35,739 -144,176 -622,408 -1127,424 -597,18 -981,-215 -867,-345z"/>
  <path class="Eyes-Cat9fil14" d="M10011 9854c93,-106 559,-127 1060,-348 461,-203 784,-534 969,-470 205,72 140,524 -35,739 -144,176 -622,408 -1127,424 -597,18 -981,-215 -867,-345z"/>
  <path class="Eyes-Cat9fil155" d="M17353 9854c-93,-106 -559,-127 -1060,-348 -461,-203 -785,-534 -969,-470 -205,72 -140,524 35,739 144,176 622,408 1127,424 597,18 981,-215 867,-345z"/>
  <path class="Eyes-Cat9fil14" d="M17353 9854c-93,-106 -559,-127 -1060,-348 -461,-203 -785,-534 -969,-470 -205,72 -140,524 35,739 144,176 622,408 1127,424 597,18 981,-215 867,-345z"/>
 </g><g id="Moustache-Cat1">
 <animateTransform additive="sum" attributeName="transform" dur="10" repeatCount="indefinite" type="translate" values="0;0 200;0;0 200;0;0 200;0;0 200;0"/>
  <path class="Moustache-Cat1fil22 Moustache-Cat1str5" d="M9477 15379c-1096,569 -2045,1334 -2773,2398" style="fill:#2c60ef"/>
  <path class="Moustache-Cat1fil22 Moustache-Cat1str5" d="M18245 15136c1060,124 2121,568 2901,1218" style="fill:#ac489e"/>
  <path class="Moustache-Cat1fil22 Moustache-Cat1str5" d="M17887 15379c1096,569 2045,1334 2773,2398" style="fill:#fa424e"/>
  <path class="Moustache-Cat1fil22 Moustache-Cat1str5" d="M9119 15136c-1060,124 -2121,568 -2901,1218" style="fill:#1655f8"/>
 </g><g id="Nose-Cat0">
 <animateTransform additive="sum" attributeName="transform" dur="10" repeatCount="indefinite" type="translate" values="0;0 200;0;0 200;0;0 200;0;0 200;0"/>
  <metadata id="CorelCorpID_107Corel-Layer"/>
  <path class="Nose-Cat0fil221 Nose-Cat0str0" d="M13682 13408c-194,0 -465,93 -444,231 19,127 197,330 444,330 247,0 425,-203 444,-330 21,-138 -250,-231 -444,-231z" style="fill:#1ef6c4"/>
 </g><g id="AccessoryDuck">
  <metadata id="CorelCorpID_7Corel-Layer"/>
  <g>
   <path class="AccessoryDuckfil122" d="M6799 23590c567,92 901,386 954,797 53,412 -243,1082 -841,1089 -393,5 -1153,26 -1786,26 -391,0 -696,-285 -829,-563 -183,-382 -87,-1276 203,-1374 170,-58 552,365 851,277 435,-128 967,-330 1448,-252z" style="fill:#b5ec46"/>
   <path class="AccessoryDuckfil48" d="M7758 24535c-23,406 -315,934 -846,941 -393,5 -1153,26 -1786,26 -391,0 -696,-285 -829,-563 -156,-325 -109,-1021 87,-1282 -106,322 -111,821 11,1082 131,278 430,563 813,563 621,0 1366,-21 1751,-26 437,-6 710,-381 799,-741z" style="fill:#0c3f89"/>
   <path class="AccessoryDuckfil123" d="M6799 23590c56,9 109,20 160,33 -130,90 -255,351 -427,375 -135,19 -523,-198 -655,-168 -209,48 -405,103 -557,148 -275,81 -535,-184 -692,-130 -267,91 -276,730 -108,1082 120,250 435,557 785,572 -61,0 -120,0 -179,0 -391,0 -696,-285 -829,-563 -183,-382 -87,-1276 203,-1374 170,-58 552,365 851,277 435,-128 967,-330 1448,-252z" style="fill:#85bd0e"/>
   <path class="AccessoryDuckfil2 AccessoryDuckstr1" d="M6799 23590c567,92 901,386 954,797 53,412 -243,1082 -841,1089 -393,5 -1153,26 -1786,26 -391,0 -696,-285 -829,-563 -183,-382 -87,-1276 203,-1374 170,-58 552,365 851,277 435,-128 967,-330 1448,-252z" style="fill:#132a42"/>
   <path class="AccessoryDuckfil124" d="M6799 22018c651,0 1017,455 1017,1017 0,561 -456,1016 -1017,1016 -561,0 -1016,-455 -1016,-1016 0,-562 365,-1017 1016,-1017z" style="fill:#b6434d"/>
   <path class="AccessoryDuckfil123" d="M6799 22018c651,0 1017,455 1017,1017 0,95 -14,186 -38,274 13,-58 21,-117 21,-178 0,-519 -394,-978 -993,-978 -598,0 -854,358 -854,878 0,454 400,909 767,1017 -524,-41 -936,-479 -936,-1013 0,-562 365,-1017 1016,-1017z" style="fill:#d042dc"/>
   <path class="AccessoryDuckfil3" d="M6185 23844c-28,28 -290,-116 -378,-327 -53,-104 -110,-285 -125,-443 -4,-44 -7,-84 -7,-123 0,-256 79,-492 231,-671 152,-180 376,-303 666,-331 43,-4 85,-6 127,-6 344,0 637,118 846,308 218,199 346,477 346,784 0,197 -53,383 -146,543 -114,198 -486,429 -501,374 -14,-55 186,-125 372,-448 79,-138 125,-298 125,-469 0,-264 -109,-502 -297,-673 -182,-166 -440,-269 -745,-269 -41,0 -79,2 -113,5 -248,24 -438,127 -566,278 -128,152 -195,354 -195,575 0,37 2,74 5,108 14,140 50,256 110,390 60,135 273,366 245,395z" style="fill:#05a098"/>
   <path class="AccessoryDuckfil123" d="M6658 22472c143,0 258,134 258,300 0,166 -115,300 -258,300 -143,0 -259,-134 -259,-300 0,-166 116,-300 259,-300z" style="fill:#3f6e65"/>
   <ellipse class="AccessoryDuckfil125" cx="6677" cy="22749" rx="239" ry="278"/>
   <path class="AccessoryDuckfil2 AccessoryDuckstr18" d="M8022 22883c-201,144 -531,341 -779,257" style="fill:#8b17b8"/>
   <path class="AccessoryDuckfil126" d="M6906 23254c-93,-143 260,-242 351,-320 100,-87 101,-231 168,-331 379,92 984,-279 923,-35 -43,175 -342,292 -454,408 135,81 371,182 293,310 -165,270 -1199,93 -1281,-32z" style="fill:#cd1074"/>
   <path class="AccessoryDuckfil127" d="M5595 24102c432,0 782,85 782,426 0,341 -350,504 -782,504 -432,0 -782,-445 -782,-651 0,-207 350,-279 782,-279z" style="fill:#9d7ead"/>
   <path class="AccessoryDuckfil123" d="M5595 24102c112,0 218,6 314,20 -54,-3 -109,-5 -167,-5 -397,0 -719,62 -719,238 0,176 322,556 719,556 224,0 424,-44 556,-135 -127,173 -394,256 -703,256 -432,0 -782,-445 -782,-651 0,-207 350,-279 782,-279z" style="fill:#556c86"/>
   <path class="AccessoryDuckfil2" d="M5595 24102c432,0 782,85 782,426 0,341 -350,504 -782,504 -432,0 -782,-445 -782,-651 0,-207 350,-279 782,-279z" style="fill:#ddb589"/>
   <path class="AccessoryDuckfil128" d="M7774 23111c-89,-34 -14,-124 -111,-45 -97,79 -363,35 -380,106 -17,71 420,126 587,75 167,-51 -7,-102 -96,-136z" style="fill:#8ceab5"/>
   <path class="AccessoryDuckfil3" d="M7978 22822c34,-24 80,-16 105,17 24,33 16,80 -17,104 -104,75 -242,164 -388,223 -227,93 -542,12 -506,-50 0,-32 161,63 450,-88 126,-66 259,-136 356,-206z" style="fill:#f208db"/>
   <path class="AccessoryDuckfil2 AccessoryDuckstr0" d="M6843 23214c-50,-149 300,-228 411,-311 100,-77 103,-211 171,-300 595,142 902,-305 923,-35 14,173 -342,292 -454,408 135,81 371,182 293,310 -165,270 -1277,131 -1344,-72z" style="fill:#4fae69"/>
   <ellipse class="AccessoryDuckfil14" cx="6745" cy="22636" rx="71" ry="72"/>
   <path class="AccessoryDuckfil14" d="M6953 22225c60,7 105,42 101,77 -4,35 -60,68 -120,61 -60,-7 -102,-52 -98,-87 4,-36 57,-59 117,-51z" style="fill:#43257f"/>
   <path class="AccessoryDuckfil14" d="M7236 22345c28,16 43,42 34,59 -10,16 -24,5 -52,-11 -28,-16 -60,-31 -50,-47 9,-17 40,-17 68,-1z" style="fill:#2e8fe1"/>
   <path class="AccessoryDuckfil129" d="M7161 25119c-29,-51 140,-147 188,-480 19,-137 -2,-287 -86,-411 -23,-34 -14,-80 20,-104 35,-23 81,-14 104,21 107,157 135,344 110,515 -35,244 -307,509 -336,459z" style="fill:#fd095c"/>
   <path class="AccessoryDuckfil130" d="M5478 24311c0,-39 423,-52 488,-36 278,75 233,289 199,309 -34,19 11,-154 -222,-212 -285,-70 -465,-23 -465,-61z" style="fill:#e09987"/>
  </g>
 </g><g id="HatBanderas-Medium">
 <animateTransform additive="sum" attributeName="transform" dur="10" repeatCount="indefinite" type="translate" values="0;0 200;0;0 200;0;0 200;0;0 200;0"/>
  <metadata id="CorelCorpID_64Corel-Layer"/>
  <path class="HatBanderas-Mediumfil608new" d="M7959 11361c315,-948 283,-1863 443,-2630 211,-1023 1742,-2185 2423,-2801 1794,-1622 3961,-935 5564,-236 1027,447 574,1635 1180,2577 -133,664 -267,1328 -401,1992 -2244,242 -4489,484 -6734,726 -910,112 -1566,260 -2475,372z" style="fill:#32b351"/>
  <path class="HatBanderas-Mediumfil609new" d="M8355 8991c14,-88 29,-175 47,-260 211,-1023 1742,-2185 2423,-2801 1140,-1031 2431,-1129 3632,-884 -565,31 -1203,113 -1827,292 -1559,448 -3623,2678 -4275,3653z" style="fill:#2f8e86"/>
  <path class="HatBanderas-Mediumfil47new HatBanderas-Mediumstr0new" d="M7959 11361c315,-948 283,-1863 443,-2630 211,-1023 1742,-2185 2423,-2801 1794,-1622 3961,-935 5564,-236 1027,447 574,1635 1180,2577 -133,664 -267,1328 -401,1992 -2244,242 -4489,484 -6734,726 -910,112 -1566,260 -2475,372z" style="fill:#39e358"/>
  <path class="HatBanderas-Mediumfil610new HatBanderas-Mediumstr0new" d="M7703 11284c3111,-218 6430,-406 9541,-625 55,-704 101,-1607 156,-2312 -3850,1458 -7221,-213 -9270,1000 -425,252 -28,1097 -427,1937z" style="fill:#8d4976"/>
  <path class="HatBanderas-Mediumfil14new" d="M10333 10721c1580,-377 4142,-1201 4608,-1784 -773,106 -2311,65 -3294,-14 3814,-261 4857,-1209 5077,-3192 166,1416 836,2760 1002,4177 -2057,266 -5336,546 -7393,813z" style="fill:#5ae656"/>
  <g>
   <polygon class="HatBanderas-Mediumfil611new HatBanderas-Mediumstr0new" points="15759,7871 16169,8162 15309,9146 "/>
   <path class="HatBanderas-Mediumfil611new HatBanderas-Mediumstr0new" d="M16088 7402c2554,-1831 1647,465 4000,498 -2380,946 -1930,-996 -4000,-498z" style="fill:#cbfe1c"/>
   <path class="HatBanderas-Mediumfil612new HatBanderas-Mediumstr0new" d="M16152 7377c2159,-2138 -249,-1752 -385,-3653 -1072,1962 917,1960 385,3653z" style="fill:#e3b428"/>
   <path class="HatBanderas-Mediumfil613new HatBanderas-Mediumstr0new" d="M16663 6821c492,-575 1176,-976 2062,-1244 739,-627 -458,-1720 1179,-2419 -167,-296 -2155,-371 -2872,394 -1014,1082 818,1798 -369,3269z" style="fill:#1aa3d4"/>
   <path class="HatBanderas-Mediumfil614new HatBanderas-Mediumstr0new" d="M18152 5802c817,-228 2487,-446 3438,539 1232,380 1176,-573 2354,95 -156,-1266 -2439,-3355 -3577,-3081 -1609,387 -182,1829 -2215,2447z" style="fill:#a20696"/>
   <path class="HatBanderas-Mediumfil615new HatBanderas-Mediumstr0new" d="M21993 6592c1113,336 1233,-253 1971,217 333,758 447,2209 -408,2510 -346,-975 -702,-1911 -1563,-2727z" style="fill:#468e45"/>
   <path class="HatBanderas-Mediumfil616new HatBanderas-Mediumstr0new" d="M17040 6579c549,-298 1226,-768 1606,-750 1325,65 1240,1738 2036,1939 -1614,185 -1629,-1231 -3642,-1189z" style="fill:#181278"/>
   <path class="HatBanderas-Mediumfil617new HatBanderas-Mediumstr0new" d="M21441 7862c-109,-496 787,-438 478,-1170 806,692 1426,1701 1619,2645 -569,675 -2052,-733 -2097,-1475z" style="fill:#a79226"/>
   <path class="HatBanderas-Mediumfil618new HatBanderas-Mediumstr0new" d="M18753 5690c1289,238 1055,1539 2323,1989 -54,-683 991,-349 637,-1233 -1083,-891 -2006,-1334 -2960,-756z" style="fill:#9d8221"/>
   <path class="HatBanderas-Mediumfil246new" d="M16931 6426c1130,-963 -654,-2092 670,-3066 -964,973 641,1996 -370,2897 -75,48 -225,121 -300,169z" style="fill:#1daaa6"/>
   <path class="HatBanderas-Mediumfil246new" d="M18732 5659c1553,-429 554,-1695 2286,-2060 -1412,500 -511,1604 -1923,2023 -94,14 -270,22 -363,37z" style="fill:#bfdca8"/>
   <path class="HatBanderas-Mediumfil246new" d="M19310 5581c1619,-214 677,-1410 2459,-1538 -1495,304 -615,1328 -2094,1551 -95,1 -270,-14 -365,-13z" style="fill:#0f2253"/>
   <path class="HatBanderas-Mediumfil246new" d="M19655 5599c1638,-80 851,-1213 2641,-1194 -1526,179 -780,1136 -2279,1236 -95,-6 -267,-35 -362,-42z" style="fill:#963415"/>
   <path class="HatBanderas-Mediumfil246new" d="M16333 7138c778,-1169 -734,-1822 -632,-2822 217,1119 1551,1511 867,2595 -57,62 -178,165 -235,227z" style="fill:#c1e7ea"/>
   <path class="HatBanderas-Mediumfil246new" d="M20508 5747c1520,501 1285,-613 2889,31 -1472,-372 -1179,568 -2585,134 -82,-39 -222,-126 -304,-165z" style="fill:#08192b"/>
   <path class="HatBanderas-Mediumfil619new" d="M17290 6521c1597,-307 1756,674 2726,1056 -820,-482 -923,-1436 -2394,-1181 -89,29 -243,97 -332,125z" style="fill:#298e1a"/>
   <path class="HatBanderas-Mediumfil619new" d="M17585 6087c1636,-99 1601,889 2484,1390 -715,-580 -630,-1536 -2133,-1472 -93,17 -258,65 -351,82z" style="fill:#0278b9"/>
   <path class="HatBanderas-Mediumfil246new" d="M21904 6659c892,636 1060,-171 1967,578 -897,-538 -974,161 -1808,-407 -45,-42 -114,-129 -159,-171z" style="fill:#304afd"/>
   <path class="HatBanderas-Mediumfil619new" d="M18698 5714c1637,101 1418,1074 2197,1677 -599,-661 -337,-1595 -1834,-1715 -95,5 -268,32 -363,38z" style="fill:#838e6b"/>
   <path class="HatBanderas-Mediumfil619new" d="M20468 5773c336,489 132,1062 453,1607 -180,-529 54,-1062 -177,-1519l-276 -88z" style="fill:#c879cc"/>
   <path class="HatBanderas-Mediumfil620new HatBanderas-Mediumstr0new" d="M16051 7462c1882,-3196 6384,-2609 7377,1551 -1789,-4138 -5362,-4068 -7049,-1302 -109,-83 -219,-166 -328,-249z" style="fill:#fa9c0d"/>
   <path class="HatBanderas-Mediumfil246new" d="M22630 7098c445,181 795,-100 1310,587 -558,-533 -847,-256 -1251,-429l-59 -158z" style="fill:#421eef"/>
   <path class="HatBanderas-Mediumfil246new" d="M17251 6099c1275,-836 -311,-2144 1159,-2969 -1112,863 314,2046 -834,2833 -82,39 -243,96 -325,136z" style="fill:#865c5b"/>
   <path class="HatBanderas-Mediumfil246new" d="M17566 5900c1448,-624 198,-2152 1835,-2736 -1295,676 -173,2057 -1484,2653 -90,26 -262,57 -351,83z" style="fill:#2a8ed0"/>
   <path class="HatBanderas-Mediumfil246new" d="M22198 7007c-29,403 -745,703 -269,1408 -290,-658 391,-918 409,-1287l-140 -121z" style="fill:#c23b10"/>
   <path class="HatBanderas-Mediumfil246new" d="M23012 7790c310,317 773,180 883,978 -229,-673 -635,-520 -911,-814l28 -164z" style="fill:#6e4a40"/>
   <path class="HatBanderas-Mediumfil246new" d="M22363 7297c61,401 -667,959 -41,1583 -432,-605 270,-1119 206,-1484l-165 -99z" style="fill:#2ce5f1"/>
   <path class="HatBanderas-Mediumfil246new" d="M22648 7689c62,400 -489,950 137,1574 -432,-605 93,-1110 28,-1475l-165 -99z" style="fill:#f87a91"/>
  </g>
  <path class="HatBanderas-Mediumfil621new" d="M3515 13711c-351,-1259 2163,-2149 3856,-2547 3094,-728 7063,-902 8457,-1880 2518,-1769 -877,-4108 1209,-4537 4244,-871 8098,6761 2402,6978 -3995,-729 -8357,-625 -12276,181 -1483,306 -3596,942 -3648,1805z" style="fill:#d0527b"/>
  <path class="HatBanderas-Mediumfil609new" d="M7624 11106c3054,-679 6848,-870 8204,-1822 2518,-1769 -877,-4108 1209,-4537 637,-131 1266,-68 1855,131 -1567,-193 -2453,137 -2249,846 210,728 582,1431 354,2393 -228,963 -937,1558 -2634,2014 -1697,456 -5395,747 -6750,1013l11 -38z" style="fill:#2a9bb1"/>
  <path class="HatBanderas-Mediumfil360new" d="M21086 6423c1736,2042 1968,5164 -1647,5302 -1750,-319 -3571,-479 -5394,-489 2647,-526 5098,0 6257,-641 1182,-654 1765,-2164 784,-4172z" style="fill:#883419"/>
  <path class="HatBanderas-Mediumfil360new" d="M18486 5304c132,-205 474,-203 762,5 288,208 414,543 282,748 -133,206 -475,203 -763,-5 -288,-208 -414,-543 -281,-748z" style="fill:#e1fd02"/>
  <path class="HatBanderas-Mediumfil622new HatBanderas-Mediumstr0new" d="M18654 5526c96,-148 342,-146 549,4 208,150 299,391 203,539 -96,148 -342,146 -549,-4 -208,-150 -299,-391 -203,-539z" style="fill:#24cb3d"/>
  <path class="HatBanderas-Mediumfil47new HatBanderas-Mediumstr0new" d="M3515 13711c-351,-1259 2163,-2149 3856,-2547 3094,-728 7063,-902 8457,-1880 2518,-1769 -877,-4108 1209,-4537 4244,-871 8098,6761 2402,6978 -3995,-729 -8357,-625 -12276,181 -1483,306 -3596,942 -3648,1805z" style="fill:#3aa7aa"/>
  <path class="HatBanderas-Mediumfil609new" d="M18797 5526c49,-17 98,-5 109,25 11,31 -20,70 -69,86 -50,17 -98,5 -109,-25 -11,-31 20,-70 69,-86z" style="fill:#3d35ad"/>
 </g></svg>