<svg xmlns="http://www.w3.org/2000/svg" xmlns:xlink="http://www.w3.org/1999/xlink" style="shape-rendering:geometricPrecision; text-rendering:geometricPrecision; image-rendering:optimizeQuality; fill-rule:evenodd; clip-rule:evenodd" version="1.1" viewBox="0 0 29000 29000" xml:space="preserve"><defs><style type="text/css">.WeaponFlySwatterBack-Smallfil1 {fill:black;fill-rule:nonzero;fill-opacity:0.200000}
.WeaponFlySwatterBack-Smallfil9 {fill:url(#WeaponFlySwatterBack-Smallid30);fill-rule:nonzero}
.WeaponFlySwatterBack-Smallstr0 {stroke:black;stroke-width:150;stroke-linecap:round;stroke-linejoin:round}
.WeaponFlySwatter-Smallfil3 {fill:black;fill-opacity:0.200000}
.WeaponFlySwatter-Smallfil11 {fill:url(#WeaponFlySwatter-Smallid31);fill-rule:nonzero}
.WeaponFlySwatter-Smallfil1 {fill:black;fill-rule:nonzero;fill-opacity:0.200000}
.WeaponFlySwatter-Smallfil10 {fill:url(#WeaponFlySwatter-Smallid11)}
.WeaponFlySwatter-Smallstr0 {stroke:black;stroke-width:150;stroke-linecap:round;stroke-linejoin:round}
.WeaponFlySwatter-Smallfil5 {fill:none;fill-rule:nonzero}
.WeaponFlySwatter-Smallstr1 {stroke:black;stroke-width:150}
.AccessoryTeddyfil111 {fill:url(#AccessoryTeddyid56)}
.AccessoryTeddyfil3 {fill:black;fill-rule:nonzero}
.AccessoryTeddyfil112 {fill:url(#AccessoryTeddyid75)}
.AccessoryTeddyfil19 {fill:black;fill-opacity:0.501961}
.AccessoryTeddyfil115 {fill:url(#AccessoryTeddyid69)}
.AccessoryTeddyfil117 {fill:url(#AccessoryTeddyid31)}
.AccessoryTeddyfil119 {fill:url(#AccessoryTeddyid5)}
.AccessoryTeddyfil120 {fill:url(#AccessoryTeddyid36)}
.AccessoryTeddyfil121 {fill:url(#AccessoryTeddyid41)}
.AccessoryTeddyfil15 {fill:black}
.AccessoryTeddyfil14 {fill:white}
.AccessoryTeddyfil109 {fill:url(#AccessoryTeddyid76)}
.AccessoryTeddystr1 {stroke:black;stroke-width:150}
.AccessoryTeddyfil110 {fill:url(#AccessoryTeddyid88)}
.AccessoryTeddyfil113 {fill:#B88531}
.AccessoryTeddyfil114 {fill:url(#AccessoryTeddyid10)}
.AccessoryTeddyfil116 {fill:url(#AccessoryTeddyid29)}
.AccessoryTeddyfil118 {fill:url(#AccessoryTeddyid27)}
.AccessoryTeddyfil2 {fill:none}
.AccessoryTeddystr8 {stroke:black;stroke-width:100;stroke-linecap:round;stroke-linejoin:round}
.HairBack-Hedgehog0fil2 {fill:black;fill-opacity:0.301961}
.HairBack-Hedgehog0fil0 {fill:url(#HairBack-Hedgehog0id162)}
.HairBack-Hedgehog0str0 {stroke:black;stroke-width:150;stroke-linecap:round;stroke-linejoin:round}
.HairBack-Hedgehog0fil1 {fill:url(#HairBack-Hedgehog0id161)}
.Tail-Hedgehog0fil2 {fill:black;fill-opacity:0.301961}
.Tail-Hedgehog0fil29 {fill:url(#Tail-Hedgehog0id156)}
.Tail-Hedgehog0str0 {stroke:black;stroke-width:150;stroke-linecap:round;stroke-linejoin:round}
.RightFoot-Hedgehog0fil43 {fill:black}
.RightFoot-Hedgehog0fil11 {fill:black;fill-opacity:0.200000}
.RightFoot-Hedgehog0fil42 {fill:#fff2f2}
.RightFoot-Hedgehog0str0 {stroke:black;stroke-width:150;stroke-linecap:round;stroke-linejoin:round}
.RightLeg-Hedgehog0fil48 {fill:url(#RightLeg-Hedgehog0id47)}
.RightLeg-Hedgehog0fil10 {fill:black;fill-rule:nonzero}
.RightLeg-Hedgehog0fil11 {fill:black;fill-opacity:0.200000}
.LeftFoot-Hedgehog0fil11 {fill:black;fill-opacity:0.200000}
.LeftFoot-Hedgehog0fil43 {fill:black}
.LeftFoot-Hedgehog0fil42 {fill:#fff2f2}
.LeftFoot-Hedgehog0str0 {stroke:black;stroke-width:150;stroke-linecap:round;stroke-linejoin:round}
.LeftLeg-Hedgehog0fil53 {fill:url(#LeftLeg-Hedgehog0id5)}
.LeftLeg-Hedgehog0fil10 {fill:black;fill-rule:nonzero}
.LeftLeg-Hedgehog0fil11 {fill:black;fill-opacity:0.200000}
.RightPaw-Hedgehog0fil61 {fill:#f0bfbf}
.RightPaw-Hedgehog0fil43 {fill:black}
.RightPaw-Hedgehog0fil11 {fill:black;fill-opacity:0.200000}
.RightPaw-Hedgehog0fil4 {fill:none}
.RightPaw-Hedgehog0str0 {stroke:black;stroke-width:150;stroke-linecap:round;stroke-linejoin:round}
.Body-Hedgehog4fil67 {fill:url(#Body-Hedgehog4id9)}
.Body-Hedgehog4fil11 {fill:black;fill-opacity:0.200000}
.Body-Hedgehog4fil71 {fill:url(#Body-Hedgehog4id48)}
.Body-Hedgehog4fil10 {fill:black;fill-rule:nonzero}
.LeftPaw-Hedgehog0fil72 {fill:#f0bfbf}
.LeftPaw-Hedgehog0fil11 {fill:black;fill-opacity:0.200000}
.LeftPaw-Hedgehog0fil43 {fill:black}
.LeftPaw-Hedgehog0fil4 {fill:none}
.LeftPaw-Hedgehog0str0 {stroke:black;stroke-width:150;stroke-linecap:round;stroke-linejoin:round}
.Head-Hedgehog7fil111 {fill:url(#Head-Hedgehog7id4)}
.Head-Hedgehog7fil118 {fill:#aac2cf;fill-opacity:0.600000}
.Head-Hedgehog7fil11 {fill:black;fill-opacity:0.200000}
.Head-Hedgehog7fil10 {fill:black;fill-rule:nonzero}
.Head-Hedgehog7fil119 {fill:url(#Head-Hedgehog7id70)}
.Mouth-Hedgehog7fil43 {fill:black}
.Mouth-Hedgehog7fil4 {fill:none}
.Mouth-Hedgehog7str0 {stroke:black;stroke-width:150;stroke-linecap:round;stroke-linejoin:round}
.Mouth-Hedgehog7fil122 {fill:url(#Mouth-Hedgehog7id159)}
.Eyes-Hedgehog4fil141 {fill:url(#Eyes-Hedgehog4id163)}
.Eyes-Hedgehog4fil146 {fill:url(#Eyes-Hedgehog4id43)}
.Eyes-Hedgehog4fil147 {fill:url(#Eyes-Hedgehog4id176)}
.Eyes-Hedgehog4fil128 {fill:black;fill-opacity:0.501961}
.Eyes-Hedgehog4fil124 {fill:#3e3a33}
.Eyes-Hedgehog4fil11 {fill:black;fill-opacity:0.200000}
.Eyes-Hedgehog4fil121 {fill:white}
.Eyes-Hedgehog4fil148 {fill:url(#Eyes-Hedgehog4id152)}
.Eyes-Hedgehog4fil149 {fill:url(#Eyes-Hedgehog4id44)}
.Eyes-Hedgehog4fil150 {fill:url(#Eyes-Hedgehog4id177)}
.Eyes-Hedgehog4fil4 {fill:none}
.Eyes-Hedgehog4str1 {stroke:black;stroke-width:150}
.Moustache-Hedgehog4fil178 {fill:url(#Moustache-Hedgehog4id2)}
.Nose-Hedgehog0fil186 {fill:url(#Nose-Hedgehog0id133)}
.Nose-Hedgehog0str0 {stroke:black;stroke-width:150;stroke-linecap:round;stroke-linejoin:round}
.BraceletSteel-Smallfil10 {fill:url(#BraceletSteel-Smallid311);fill-rule:nonzero}
.BraceletSteel-Smallstr1 {stroke:black;stroke-width:100}
.BraceletSteel-Smallfil11 {fill:url(#BraceletSteel-Smallid310);fill-rule:nonzero}
.NecklaceFreddy-Smallfil1 {fill:black;fill-opacity:0.200000}
.NecklaceFreddy-Smallfil4 {fill:url(#NecklaceFreddy-Smallid14)}
.NecklaceFreddy-Smallfil5 {fill:url(#NecklaceFreddy-Smallid11)}
.NecklaceFreddy-Smallfil6 {fill:url(#NecklaceFreddy-Smallid15)}
.NecklaceFreddy-Smallfil7 {fill:black;fill-opacity:0.200000}
.NecklaceFreddy-Smallfil8 {fill:black}
.NecklaceFreddy-Smallfil9 {fill:white;fill-opacity:0.101961}
.NecklaceFreddy-Smallfil0 {fill:#3C544D}
.NecklaceFreddy-Smallstr0 {stroke:black;stroke-width:150;stroke-linecap:round;stroke-linejoin:round}
.NecklaceFreddy-Smallfil2 {fill:url(#NecklaceFreddy-Smallid13)}
.NecklaceFreddy-Smallfil3 {fill:url(#NecklaceFreddy-Smallid16)}
.NecklaceFreddy-Smallfil10 {fill:none}
.HatFreddyBack-Smallfil46 {fill:url(#HatFreddyBack-Smallid36)}
.HatFreddyBack-Smallstr0 {stroke:black;stroke-width:150;stroke-linecap:round;stroke-linejoin:round}
.HatFreddyBack-Smallfil47 {fill:url(#HatFreddyBack-Smallid37)}
.HatFreddy-Smallfil1 {fill:black;fill-opacity:0.200000}
.HatFreddy-Smallfil7 {fill:black;fill-opacity:0.200000}
.HatFreddy-Smallfil54 {fill:#FFFFEB;fill-opacity:0.200000}
.HatFreddy-Smallfil52 {fill:url(#HatFreddy-Smallid29)}
.HatFreddy-Smallstr0 {stroke:black;stroke-width:150;stroke-linecap:round;stroke-linejoin:round}
.HatFreddy-Smallfil53 {fill:url(#HatFreddy-Smallid32)}
</style><linearGradient gradientUnits="userSpaceOnUse" id="WeaponFlySwatterBack-Smallid30" x1="8680.77" x2="10042.5" xlink:href="#WeaponFlySwatterBack-Smallid24" y1="22285.7" y2="20854.8">
  </linearGradient><linearGradient gradientUnits="userSpaceOnUse" id="WeaponFlySwatter-Smallid31" x1="12867.3" x2="15287.2" xlink:href="#WeaponFlySwatter-Smallid24" y1="25515.5" y2="22972.5">
  </linearGradient><linearGradient gradientUnits="userSpaceOnUse" id="WeaponFlySwatter-Smallid11" x1="10303.6" x2="12723" xlink:href="#WeaponFlySwatter-Smallid0" y1="22872.1" y2="22743.4">
  </linearGradient><linearGradient gradientUnits="userSpaceOnUse" id="AccessoryTeddyid56" x1="5274.88" x2="5544.57" y1="25442.4" y2="22421.3">
   <stop offset="0" style="stop-opacity:1; stop-color:#B88531"/>
   <stop offset="0.14902" style="stop-opacity:1; stop-color:#99672C"/>
   <stop offset="0.639216" style="stop-opacity:1; stop-color:#9C6E24"/>
   <stop offset="1" style="stop-opacity:1; stop-color:#523100"/>
  </linearGradient><linearGradient gradientUnits="userSpaceOnUse" id="AccessoryTeddyid75" x1="5571.12" x2="5255.06" xlink:href="#AccessoryTeddyid5" y1="22926.7" y2="24922">
  </linearGradient><linearGradient gradientUnits="userSpaceOnUse" id="AccessoryTeddyid69" x1="5447.62" x2="5256.22" xlink:href="#AccessoryTeddyid5" y1="21348.3" y2="22556.4">
  </linearGradient><linearGradient gradientUnits="userSpaceOnUse" id="AccessoryTeddyid31" x1="4032.54" x2="3912.76" xlink:href="#AccessoryTeddyid5" y1="24354.6" y2="25110.8">
  </linearGradient><linearGradient gradientUnits="userSpaceOnUse" id="AccessoryTeddyid36" x1="4875.13" x2="5044.37" y1="21255" y2="20829.7">
   <stop offset="0" style="stop-opacity:1; stop-color:#5C3600"/>
   <stop offset="0.509804" style="stop-opacity:1; stop-color:#2C160A"/>
   <stop offset="1" style="stop-opacity:1; stop-color:#3F261A"/>
  </linearGradient><linearGradient gradientUnits="userSpaceOnUse" id="AccessoryTeddyid41" x1="5933.75" x2="5890.77" xlink:href="#AccessoryTeddyid36" y1="21325.3" y2="20867.1">
  </linearGradient><linearGradient gradientUnits="userSpaceOnUse" id="AccessoryTeddyid76" x1="7386.63" x2="5965.55" xlink:href="#AccessoryTeddyid56" y1="24047.7" y2="22751.4">
  </linearGradient><linearGradient gradientUnits="userSpaceOnUse" id="AccessoryTeddyid88" x1="3357.21" x2="4839.21" xlink:href="#AccessoryTeddyid56" y1="24050.5" y2="22671">
  </linearGradient><linearGradient gradientUnits="userSpaceOnUse" id="AccessoryTeddyid10" x1="4764.52" x2="6162.34" y1="22575.4" y2="20450.7">
   <stop offset="0" style="stop-opacity:1; stop-color:#B88531"/>
   <stop offset="0.14902" style="stop-opacity:1; stop-color:#99672C"/>
   <stop offset="0.501961" style="stop-opacity:1; stop-color:#9C6E24"/>
   <stop offset="1" style="stop-opacity:1; stop-color:#FFC44F"/>
  </linearGradient><linearGradient gradientUnits="userSpaceOnUse" id="AccessoryTeddyid29" x1="3813.38" x2="4245.66" xlink:href="#AccessoryTeddyid27" y1="24177.4" y2="25442.6">
  </linearGradient><linearGradient gradientUnits="userSpaceOnUse" id="HairBack-Hedgehog0id162" x1="8824.32" x2="8824.32" xlink:href="#HairBack-Hedgehog0id6" y1="20216.8" y2="11906.6">
  </linearGradient><linearGradient gradientUnits="userSpaceOnUse" id="HairBack-Hedgehog0id161" x1="18539.6" x2="18539.6" xlink:href="#HairBack-Hedgehog0id6" y1="20216.8" y2="11906.6">
  </linearGradient><linearGradient gradientUnits="userSpaceOnUse" id="Tail-Hedgehog0id156" x1="13681.9" x2="13681.9" xlink:href="#Tail-Hedgehog0id6" y1="18011.3" y2="24488.9">
  </linearGradient><linearGradient gradientUnits="objectBoundingBox" id="RightLeg-Hedgehog0id47" x1="50%" x2="50%" xlink:href="#RightLeg-Hedgehog0id5" y1="100%" y2="0.000329714%">
  </linearGradient><linearGradient gradientUnits="objectBoundingBox" id="LeftLeg-Hedgehog0id5" x1="50%" x2="50%" y1="100%" y2="0.000329714%">
   <stop offset="0" style="stop-opacity:1; stop-color:#fff2f2"/>
   <stop offset="0.211765" style="stop-opacity:1; stop-color:#fff2f2"/>
   <stop offset="1" style="stop-opacity:1; stop-color:#f0bfbf"/>
  </linearGradient><linearGradient gradientUnits="objectBoundingBox" id="Body-Hedgehog4id9" x1="50%" x2="50%" y1="0%" y2="100%">
   <stop offset="0" style="stop-opacity:1; stop-color:#c99797"/>
   <stop offset="0.101961" style="stop-opacity:1; stop-color:#c99797"/>
   <stop offset="0.34902" style="stop-opacity:1; stop-color:#f0bfbf"/>
   <stop offset="1" style="stop-opacity:1; stop-color:#fff2f2"/>
  </linearGradient><linearGradient gradientUnits="userSpaceOnUse" id="Body-Hedgehog4id48" x1="13681.9" x2="13681.9" xlink:href="#Body-Hedgehog4id12" y1="23357" y2="19763.9">
  </linearGradient><linearGradient gradientUnits="objectBoundingBox" id="Head-Hedgehog7id4" x1="50%" x2="50%" y1="99.9999%" y2="0%">
   <stop offset="0" style="stop-opacity:1; stop-color:#c99797"/>
   <stop offset="0.25098" style="stop-opacity:1; stop-color:#f0bfbf"/>
   <stop offset="0.760784" style="stop-opacity:1; stop-color:#fff2f2"/>
   <stop offset="1" style="stop-opacity:1; stop-color:#fff2f2"/>
  </linearGradient><linearGradient gradientUnits="userSpaceOnUse" id="Head-Hedgehog7id70" x1="13681.9" x2="13681.9" xlink:href="#Head-Hedgehog7id50" y1="16772.7" y2="12620.2">
  </linearGradient><linearGradient gradientUnits="userSpaceOnUse" id="Mouth-Hedgehog7id159" x1="14345.9" x2="14284.2" xlink:href="#Mouth-Hedgehog7id1" y1="18230.4" y2="17471">
  </linearGradient><linearGradient gradientUnits="objectBoundingBox" id="Eyes-Hedgehog4id163" x1="62.1819%" x2="37.8184%" xlink:href="#Eyes-Hedgehog4id0" y1="96.6194%" y2="3.38059%">
  </linearGradient><linearGradient gradientUnits="userSpaceOnUse" id="Eyes-Hedgehog4id43" x1="9336.13" x2="12327.3" y1="15064.6" y2="15064.6">
   <stop offset="0" style="stop-opacity:1; stop-color:#806000"/>
   <stop offset="0.501961" style="stop-opacity:1; stop-color:#ffc419"/>
   <stop offset="1" style="stop-opacity:1; stop-color:#806000"/>
  </linearGradient><radialGradient cx="10952" cy="14804.2" fx="10952" fy="14804.2" gradientTransform="matrix(0.933694 -0 -0 0.999999 726 0)" gradientUnits="userSpaceOnUse" id="Eyes-Hedgehog4id176" r="1393.38">
   <stop offset="0" style="stop-opacity:1; stop-color:#664c00"/>
   <stop offset="0.701961" style="stop-opacity:1; stop-color:black"/>
   <stop offset="1" style="stop-opacity:1; stop-color:black"/>
  </radialGradient><linearGradient gradientUnits="userSpaceOnUse" id="Eyes-Hedgehog4id152" x1="16289.9" x2="17097.3" xlink:href="#Eyes-Hedgehog4id0" y1="16507.8" y2="13269.6">
  </linearGradient><linearGradient gradientUnits="userSpaceOnUse" id="Eyes-Hedgehog4id44" x1="15036.5" x2="18027.7" xlink:href="#Eyes-Hedgehog4id43" y1="15064.6" y2="15064.6">
  </linearGradient><radialGradient cx="16411.8" cy="14804.2" fx="16411.8" fy="14804.2" gradientTransform="matrix(-0.933694 -0 2.22044E-016 0.999999 31735 0)" gradientUnits="userSpaceOnUse" id="Eyes-Hedgehog4id177" r="1393.38" xlink:href="#Eyes-Hedgehog4id176">
  </radialGradient><linearGradient gradientUnits="userSpaceOnUse" id="Moustache-Hedgehog4id2" x1="13682" x2="13682" y1="16187.6" y2="19250.2">
   <stop offset="0" style="stop-opacity:1; stop-color:#907b6d"/>
   <stop offset="0.368627" style="stop-opacity:1; stop-color:#907b6d"/>
   <stop offset="1" style="stop-opacity:1; stop-color:#755d4d"/>
  </linearGradient><linearGradient gradientUnits="userSpaceOnUse" id="Nose-Hedgehog0id133" x1="13681.9" x2="13681.9" y1="16404" y2="17128.6">
   <stop offset="0" style="stop-opacity:1; stop-color:#FFCCCC"/>
   <stop offset="1" style="stop-opacity:1; stop-color:#B37173"/>
  </linearGradient><linearGradient gradientUnits="userSpaceOnUse" id="BraceletSteel-Smallid311" x1="9277.62" x2="10345.2" xlink:href="#BraceletSteel-Smallid310" y1="20629.7" y2="21505.2">
  </linearGradient><linearGradient gradientUnits="userSpaceOnUse" id="NecklaceFreddy-Smallid14" x1="17865.3" x2="9494.55" xlink:href="#NecklaceFreddy-Smallid0" y1="20749.6" y2="20749.6">
  </linearGradient><linearGradient gradientUnits="userSpaceOnUse" id="NecklaceFreddy-Smallid11" x1="16538.9" x2="10796.4" xlink:href="#NecklaceFreddy-Smallid2" y1="21703.5" y2="22055.1">
  </linearGradient><linearGradient gradientUnits="userSpaceOnUse" id="NecklaceFreddy-Smallid15" x1="16223.1" x2="11136.7" xlink:href="#NecklaceFreddy-Smallid2" y1="19716.8" y2="20028.3">
  </linearGradient><linearGradient gradientUnits="userSpaceOnUse" id="NecklaceFreddy-Smallid13" x1="16948.9" x2="10455.2" xlink:href="#NecklaceFreddy-Smallid0" y1="22482.5" y2="22482.5">
  </linearGradient><linearGradient gradientUnits="userSpaceOnUse" id="NecklaceFreddy-Smallid16" x1="15890.5" x2="11469.4" xlink:href="#NecklaceFreddy-Smallid0" y1="19306.2" y2="19306.2">
  </linearGradient><linearGradient gradientUnits="userSpaceOnUse" id="HatFreddyBack-Smallid36" x1="17955.3" x2="21223.6" xlink:href="#HatFreddyBack-Smallid31" y1="12612.2" y2="13486.8">
  </linearGradient><linearGradient gradientUnits="userSpaceOnUse" id="HatFreddyBack-Smallid37" x1="6319.09" x2="9227.48" xlink:href="#HatFreddyBack-Smallid30" y1="12401.1" y2="13698">
  </linearGradient><linearGradient gradientUnits="userSpaceOnUse" id="HatFreddy-Smallid29" x1="7771.88" x2="19590.8" xlink:href="#HatFreddy-Smallid27" y1="14680.8" y2="11067.4">
  </linearGradient><linearGradient gradientUnits="userSpaceOnUse" id="HatFreddy-Smallid32" x1="8822.27" x2="18540.4" xlink:href="#HatFreddy-Smallid28" y1="9988.7" y2="8967.28">
  </linearGradient><linearGradient gradientUnits="userSpaceOnUse" id="WeaponFlySwatterBack-Smallid24" x1="12160.4" x2="14712.1" y1="25216.2" y2="22534.8">
   <stop offset="0" style="stop-opacity:1; stop-color:#008011"/>
   <stop offset="1" style="stop-opacity:1; stop-color:#00BD55"/>
  </linearGradient><linearGradient gradientUnits="userSpaceOnUse" id="WeaponFlySwatter-Smallid24" x1="12160.4" x2="14712.1" y1="25216.2" y2="22534.8">
   <stop offset="0" style="stop-opacity:1; stop-color:#008011"/>
   <stop offset="1" style="stop-opacity:1; stop-color:#00BD55"/>
  </linearGradient><linearGradient gradientUnits="userSpaceOnUse" id="WeaponFlySwatter-Smallid0" x1="9457.05" x2="12008.3" y1="22428.9" y2="22293.2">
   <stop offset="0" style="stop-opacity:1; stop-color:#787878"/>
   <stop offset="1" style="stop-opacity:1; stop-color:#D6D6D6"/>
  </linearGradient><linearGradient gradientUnits="userSpaceOnUse" id="AccessoryTeddyid5" x1="6771.67" x2="6651.69" y1="24347.4" y2="25104.8">
   <stop offset="0" style="stop-opacity:1; stop-color:#F2D996"/>
   <stop offset="1" style="stop-opacity:1; stop-color:#C79A45"/>
  </linearGradient><linearGradient gradientUnits="userSpaceOnUse" id="AccessoryTeddyid27" x1="7031.19" x2="6244.99" y1="24298.4" y2="25352.6">
   <stop offset="0" style="stop-opacity:1; stop-color:#B88531"/>
   <stop offset="0.329412" style="stop-opacity:1; stop-color:#99672C"/>
   <stop offset="0.541176" style="stop-opacity:1; stop-color:#9C6E24"/>
   <stop offset="1" style="stop-opacity:1; stop-color:#523100"/>
  </linearGradient><linearGradient gradientUnits="userSpaceOnUse" id="HairBack-Hedgehog0id6" x1="13681.9" x2="13681.9" y1="6728.09" y2="11806.7">
   <stop offset="0" style="stop-opacity:1; stop-color:#755d4d"/>
   <stop offset="1" style="stop-opacity:1; stop-color:#907b6d"/>
  </linearGradient><linearGradient gradientUnits="userSpaceOnUse" id="Tail-Hedgehog0id6" x1="13681.9" x2="13681.9" y1="6728.09" y2="11806.7">
   <stop offset="0" style="stop-opacity:1; stop-color:#755d4d"/>
   <stop offset="1" style="stop-opacity:1; stop-color:#907b6d"/>
  </linearGradient><linearGradient gradientUnits="objectBoundingBox" id="RightLeg-Hedgehog0id5" x1="50%" x2="50%" y1="100%" y2="0.000329714%">
   <stop offset="0" style="stop-opacity:1; stop-color:#fff2f2"/>
   <stop offset="0.211765" style="stop-opacity:1; stop-color:#fff2f2"/>
   <stop offset="1" style="stop-opacity:1; stop-color:#f0bfbf"/>
  </linearGradient><linearGradient gradientUnits="userSpaceOnUse" id="Body-Hedgehog4id12" x1="19935.6" x2="17128.6" y1="10601.2" y2="13024">
   <stop offset="0" style="stop-opacity:1; stop-color:#aac2cf"/>
   <stop offset="1" style="stop-opacity:1; stop-color:#95b2c2"/>
  </linearGradient><linearGradient gradientUnits="userSpaceOnUse" id="Head-Hedgehog7id50" x1="13681.9" x2="13681.9" y1="18718" y2="12620.2">
   <stop offset="0" style="stop-opacity:1; stop-color:#3e3a33"/>
   <stop offset="1" style="stop-opacity:1; stop-color:#63615b"/>
  </linearGradient><linearGradient gradientUnits="userSpaceOnUse" id="Mouth-Hedgehog7id1" x1="13682.6" x2="13682.6" y1="18074.1" y2="17483.4">
   <stop offset="0" style="stop-opacity:1; stop-color:#FF9999"/>
   <stop offset="0.380392" style="stop-opacity:1; stop-color:#FC8F91"/>
   <stop offset="1" style="stop-opacity:1; stop-color:#C46668"/>
  </linearGradient><linearGradient gradientUnits="userSpaceOnUse" id="Eyes-Hedgehog4id0" x1="10654.3" x2="10654.3" y1="16581.4" y2="13705.6">
   <stop offset="0" style="stop-opacity:1; stop-color:#806000"/>
   <stop offset="1" style="stop-opacity:1; stop-color:black"/>
  </linearGradient><linearGradient gradientUnits="userSpaceOnUse" id="BraceletSteel-Smallid310" x1="18086.3" x2="17018.7" y1="20629.7" y2="21505.2">
   <stop offset="0" style="stop-opacity:1; stop-color:#424352"/>
   <stop offset="0.109804" style="stop-opacity:1; stop-color:#848690"/>
   <stop offset="0.25098" style="stop-opacity:1; stop-color:#FFFFFC"/>
   <stop offset="0.470588" style="stop-opacity:1; stop-color:#8D8F99"/>
   <stop offset="0.780392" style="stop-opacity:1; stop-color:#16171A"/>
   <stop offset="1" style="stop-opacity:1; stop-color:#42444D"/>
  </linearGradient><linearGradient gradientUnits="userSpaceOnUse" id="NecklaceFreddy-Smallid0" x1="17371.7" x2="10006.9" y1="22083.7" y2="22083.7">
   <stop offset="0" style="stop-opacity:1; stop-color:#3C544D"/>
   <stop offset="0.729412" style="stop-opacity:1; stop-color:#1E2725"/>
   <stop offset="0.921569" style="stop-opacity:1; stop-color:#344943"/>
   <stop offset="1" style="stop-opacity:1; stop-color:#1D2322"/>
  </linearGradient><linearGradient gradientUnits="userSpaceOnUse" id="NecklaceFreddy-Smallid2" x1="16556.4" x2="10807.5" y1="18927.7" y2="19279.7">
   <stop offset="0" style="stop-opacity:1; stop-color:#BF1C1C"/>
   <stop offset="0.2" style="stop-opacity:1; stop-color:#DE333F"/>
   <stop offset="0.509804" style="stop-opacity:1; stop-color:#B0181F"/>
   <stop offset="1" style="stop-opacity:1; stop-color:#750000"/>
  </linearGradient><linearGradient gradientUnits="userSpaceOnUse" id="HatFreddyBack-Smallid31" x1="18106.8" x2="21491" y1="10836.9" y2="11742.5">
   <stop offset="0" style="stop-opacity:1; stop-color:black"/>
   <stop offset="0.270588" style="stop-opacity:1; stop-color:#060504"/>
   <stop offset="1" style="stop-opacity:1; stop-color:#63503B"/>
  </linearGradient><linearGradient gradientUnits="userSpaceOnUse" id="HatFreddyBack-Smallid30" x1="6058.02" x2="9069.54" y1="10618.2" y2="11961.2">
   <stop offset="0" style="stop-opacity:1; stop-color:black"/>
   <stop offset="0.270588" style="stop-opacity:1; stop-color:#020101"/>
   <stop offset="1" style="stop-opacity:1; stop-color:#2B2015"/>
  </linearGradient><linearGradient gradientUnits="userSpaceOnUse" id="HatFreddy-Smallid27" x1="7562.32" x2="19800.4" y1="12978.8" y2="9237.24">
   <stop offset="0" style="stop-opacity:1; stop-color:#302821"/>
   <stop offset="0.439216" style="stop-opacity:1; stop-color:#695949"/>
   <stop offset="0.760784" style="stop-opacity:1; stop-color:#968772"/>
   <stop offset="1" style="stop-opacity:1; stop-color:#877059"/>
  </linearGradient><linearGradient gradientUnits="userSpaceOnUse" id="HatFreddy-Smallid28" x1="8649.96" x2="18712.7" y1="8120.35" y2="7062.71">
   <stop offset="0" style="stop-opacity:1; stop-color:#302821"/>
   <stop offset="0.439216" style="stop-opacity:1; stop-color:#695949"/>
   <stop offset="0.768627" style="stop-opacity:1; stop-color:#968772"/>
   <stop offset="1" style="stop-opacity:1; stop-color:#877059"/>
  </linearGradient></defs><g id="HatFreddyBack-Small">
  <animateTransform additive="sum" attributeName="transform" dur="10" repeatCount="indefinite" type="translate" values="0;0 200;0;0 200;0;0 200;0;0 200;0"/>
  <metadata id="CorelCorpID_6Corel-Layer"/>
  <path class="HatFreddyBack-Smallfil46 HatFreddyBack-Smallstr0" d="M21323 12236c684,196 -883,1649 -2607,1700 -2533,75 127,-2211 2607,-1700z" style="fill:#6a072d"/>
  <path class="HatFreddyBack-Smallfil47 HatFreddyBack-Smallstr0" d="M6039 12236c-683,196 884,1649 2607,1700 2533,75 -126,-2211 -2607,-1700z" style="fill:#a72024"/>
 </g><g id="HairBack-Hedgehog0">
  <animateTransform additive="sum" attributeName="transform" dur="10" repeatCount="indefinite" type="translate" values="0;0 200;0;0 200;0;0 200;0;0 200;0"/>
  <metadata id="CorelCorpID_0Corel-Layer"/>
  <g id="_1891249983072">
   <path class="HairBack-Hedgehog0fil0 HairBack-Hedgehog0str0" d="M9544 11951c-1108,-270 -3152,751 -3378,1696 513,-174 1138,-200 1592,-81 -597,230 -1586,973 -1754,1766 460,-285 1053,-363 1505,-318 -745,702 -1165,1266 -1269,2097 349,-288 1008,-560 1592,-568 -408,499 -913,1377 -887,2085 291,-346 873,-769 1559,-952 -274,581 -410,1366 -336,1978 291,-511 1133,-1083 1790,-1363 -82,563 -134,1400 26,1926 553,-772 1107,-1543 1660,-2314 -2186,-867 -3008,-2237 -2100,-5952z" style="fill:#3da16a"/>
   <path class="HairBack-Hedgehog0fil1 HairBack-Hedgehog0str0" d="M17820 11951c1108,-270 3152,751 3378,1696 -513,-174 -1138,-200 -1592,-81 597,230 1586,973 1754,1766 -460,-285 -1053,-363 -1505,-318 745,702 1165,1266 1269,2097 -349,-288 -1008,-560 -1592,-568 408,499 913,1377 887,2085 -292,-346 -873,-769 -1559,-952 274,581 410,1366 336,1978 -291,-511 -1133,-1083 -1790,-1363 82,563 134,1400 -26,1926 -553,-772 -1107,-1543 -1661,-2314 2186,-867 3009,-2237 2101,-5952z" style="fill:#46bfe1"/>
  </g>
  <path class="HairBack-Hedgehog0fil2" d="M21360 15332c-460,-285 -1053,-363 -1505,-318 -196,-68 -391,-137 -586,-205 -22,291 -44,582 -66,874 859,224 1515,681 1921,1428 -349,-288 -1008,-560 -1592,-568 93,114 -191,-50 -257,-78 -154,135 -309,270 -463,405 866,482 1402,1067 1607,1758 -292,-346 -873,-769 -1559,-952 40,84 -364,-202 -413,-232 -218,26 -435,52 -653,78 662,526 1259,1235 1399,2127 -265,-459 -969,-965 -1584,-1265 -273,-248 -546,-496 -819,-745 78,-150 156,-300 234,-450 651,-512 1038,-1193 1136,-2185 226,-434 517,-517 743,-952 904,61 1809,523 2457,1280z" style="fill:#9974de"/>
  <path class="HairBack-Hedgehog0fil2" d="M9544 11951c-15,-4 -30,-7 -45,-10 -335,15 -669,31 -1003,47 -500,116 -1024,347 -1450,633 590,17 171,608 -243,889 339,-35 679,-17 955,56 -189,73 -417,197 -646,357 1193,476 -780,854 -967,1351 456,-276 917,-304 1364,-260 -157,148 -300,290 -428,429 994,397 -382,823 -664,1540 368,-235 918,-434 1415,-440 -98,120 -202,262 -302,417 662,624 -398,914 -523,1598 308,-332 857,-711 1497,-882 713,638 -283,1276 -268,1871 340,-482 1111,-996 1722,-1256 -82,563 -134,1400 26,1926 553,-772 1107,-1543 1660,-2314 -2186,-867 -3008,-2237 -2100,-5952z" style="fill:#ebfed7"/>
 </g><g id="Tail-Hedgehog0">
 <animateTransform additive="sum" attributeName="transform" dur="10" repeatCount="indefinite" type="translate" values="0;0 200;0;0 200;0;0 200;0;0 200;0"/>
  <metadata id="CorelCorpID_11Corel-Layer"/>
  <g id="_1891249960224">
   <path class="Tail-Hedgehog0fil29 Tail-Hedgehog0str0" d="M10243 18011c-510,276 -1099,1258 -1176,2143 337,-271 804,-279 1126,-224 -586,264 -943,844 -960,1362 288,-215 636,-398 1044,-381 -498,400 -927,989 -963,1764 190,-172 506,-235 747,-244 -218,450 -249,900 -152,1350 188,-263 466,-491 841,-600 384,-112 1462,128 1523,454 62,326 324,707 625,829 1,-287 30,-617 271,-889 96,379 296,699 513,914 217,-215 416,-535 513,-914 241,272 270,602 271,889 301,-122 563,-503 625,-829 61,-326 1138,-566 1523,-454 375,109 652,337 841,600 97,-450 66,-900 -152,-1350 241,9 557,72 747,244 -36,-775 -465,-1364 -963,-1764 408,-17 756,166 1043,381 -16,-518 -373,-1098 -959,-1362 322,-55 789,-47 1125,224 -76,-885 -665,-1867 -1175,-2143 -670,147 -2745,630 -3415,776l-24 -5 -24 5c-670,-146 -2745,-629 -3415,-776z" style="fill:#3d086a"/>
   <path class="Tail-Hedgehog0fil2" d="M10194 18040c-189,117 -385,325 -560,585 941,205 -259,1028 -480,1467 327,-210 744,-213 1039,-162 438,198 -561,567 -594,1134 204,-100 430,-163 678,-153 552,663 -651,1099 -963,1764 190,-172 506,-235 747,-244 -218,450 -249,900 -152,1350 188,-263 466,-491 841,-600 384,-112 1462,128 1523,454 62,326 324,707 625,829 1,-287 30,-617 271,-889 96,379 296,699 513,914 217,-215 416,-535 513,-914 241,272 270,602 271,889 301,-122 563,-503 625,-829 61,-326 1138,-566 1523,-454 375,109 652,337 841,600 86,-400 71,-800 -86,-1200 -136,-245 -526,-445 -473,-927 72,-653 339,-1711 295,-2114 -244,-477 -122,-923 282,-1242 -117,-125 -236,-224 -352,-287 -670,147 -2745,630 -3415,776 -8,-2 -16,-3 -24,-5 -8,2 -16,3 -24,5 -648,-142 -2611,-598 -3345,-760 -40,4 -79,9 -119,13z" style="fill:#7329e2"/>
  </g>
 </g><g id="RightFoot-Hedgehog0">
  <metadata id="CorelCorpID_22Corel-Layer"/>
  <path class="RightFoot-Hedgehog0fil42 RightFoot-Hedgehog0str0" d="M17616 25049c58,229 -133,641 -602,281 -416,252 -643,30 -786,-117 -427,-437 -1001,-608 -1224,-792 -174,-144 96,-471 85,-641 326,80 773,48 1052,-20 166,306 1110,284 1425,840 100,176 108,360 50,449z" style="fill:#c5bc42"/>
  <path class="RightFoot-Hedgehog0fil43" d="M17075 25357c18,-210 -100,-383 -289,-485 131,162 175,299 151,492 36,28 93,34 138,-7z" style="fill:#72305a"/>
  <path class="RightFoot-Hedgehog0fil43" d="M17627 24985c-28,-165 -141,-261 -310,-338 177,173 216,307 240,534 21,-62 50,-133 70,-196z" style="fill:#5a6e51"/>
  <path class="RightFoot-Hedgehog0fil11" d="M17616 25049c58,229 -133,641 -602,281 -416,252 -643,30 -786,-117 -427,-437 -1001,-608 -1224,-792 -111,-92 -42,-257 20,-409 59,405 671,455 1222,959 269,246 667,277 693,61 92,226 704,254 554,-143 42,29 93,66 147,105 -6,21 -14,40 -24,55z" style="fill:#847540"/>
 </g><g id="LeftFoot-Hedgehog0">
  <metadata id="CorelCorpID_32Corel-Layer"/>
  <path class="LeftFoot-Hedgehog0fil42 LeftFoot-Hedgehog0str0" d="M9796 25049c-58,229 132,641 602,281 416,252 642,30 786,-117 427,-437 1000,-608 1223,-792 175,-144 -96,-471 -84,-641 -326,80 -774,48 -1053,-20 -166,306 -1110,284 -1425,840 -100,176 -108,360 -49,449z" style="fill:#5d855c"/>
  <path class="LeftFoot-Hedgehog0fil11" d="M9796 25049c-58,229 132,641 602,281 416,252 642,30 786,-117 427,-437 1000,-608 1223,-792 111,-92 42,-257 -20,-409 -59,405 -671,455 -1222,959 -268,246 -666,277 -692,61 -93,226 -705,254 -554,-143 -43,29 -94,66 -148,105 6,21 14,40 25,55z" style="fill:#4cc282"/>
  <path class="LeftFoot-Hedgehog0fil43" d="M10337 25357c-19,-210 99,-383 288,-485 -131,162 -175,299 -151,492 -35,28 -93,34 -137,-7z" style="fill:#07dc5c"/>
  <path class="LeftFoot-Hedgehog0fil43" d="M9784 24985c29,-165 142,-261 311,-338 -178,173 -217,307 -241,534 -20,-62 -49,-133 -70,-196z" style="fill:#eeb9b7"/>
 </g><g id="RightLeg-Hedgehog0">
  <metadata id="CorelCorpID_27Corel-Layer"/>
  <path class="RightLeg-Hedgehog0fil48" d="M13668 23779c967,1 1275,748 2492,357 1135,-365 1011,-1425 437,-2346l-1468 -574c-289,401 -798,1265 -1461,1300l0 1263z" style="fill:#687de4"/>
  <path class="RightLeg-Hedgehog0fil10" d="M13678 23853c373,1 647,119 917,236 100,43 536,225 802,158 -304,-37 -584,-227 -743,-296 -283,-122 -571,-246 -976,-247l0 149zm2756 -2176c149,216 274,444 364,670 100,250 156,499 152,728 -14,725 -589,997 -739,1045 276,14 875,-379 888,-1043 5,-249 -55,-517 -162,-785 -99,-250 -240,-501 -408,-739l-95 124z" style="fill:#135c19"/>
  <path class="RightLeg-Hedgehog0fil11" d="M16859 23678c291,-452 265,-1206 -216,-1646 -364,384 -390,545 -378,566 409,-250 803,197 594,1080z" style="fill:#910f5f"/>
 </g><g id="LeftLeg-Hedgehog0">
  <metadata id="CorelCorpID_37Corel-Layer"/>
  <path class="LeftLeg-Hedgehog0fil53" d="M13678 23779c-968,1 -1266,748 -2483,357 -1135,-365 -1010,-1425 -437,-2346l1468 -574c289,401 788,1265 1452,1300l0 1263z" style="fill:#8b3e30"/>
  <path class="LeftLeg-Hedgehog0fil10" d="M13678 23853c-374,1 -648,119 -918,236 -100,43 -536,225 -802,158 304,-37 584,-227 743,-296 283,-122 571,-246 977,-247l0 149zm-2756 -2176c-150,216 -275,444 -365,670 -100,250 -156,499 -151,728 13,725 588,997 738,1045 -276,14 -875,-379 -888,-1043 -5,-249 55,-517 162,-785 99,-250 240,-501 408,-739l96 124z" style="fill:#b7d44e"/>
  <path class="LeftLeg-Hedgehog0fil11" d="M10497 23678c-292,-452 -266,-1206 215,-1646 364,384 390,545 378,566 -409,-250 -803,197 -593,1080z" style="fill:#05d609"/>
 </g><g id="Body-Hedgehog4">
 <animateTransform additive="sum" attributeName="transform" dur="10" repeatCount="indefinite" type="translate" values="0;0 200;0;0 200;0;0 200;0;0 200;0"/>
  <metadata id="CorelCorpID_61Corel-Layer"/>
  <path class="Body-Hedgehog4fil67" d="M13682 23636c-1477,0 -2736,-317 -2979,-1737 -144,-843 286,-2153 892,-3046 556,109 1286,175 2087,175 801,0 1531,-66 2087,-175 606,893 1036,2203 892,3046 -243,1420 -1502,1737 -2979,1737z" style="fill:#b54977"/>
  <path class="Body-Hedgehog4fil11" d="M11882 23368c-610,-246 -1046,-692 -1179,-1469 -57,-332 -24,-737 73,-1161 44,1407 281,2075 1106,2630z" style="fill:#3c9f67"/>
  <path class="Body-Hedgehog4fil71" d="M11697 22818c649,547 1135,530 1985,539 850,-9 1336,8 1985,-539 901,-759 599,-2432 -515,-3054 147,399 194,772 75,1183 -181,-431 -480,-779 -749,-1031 11,349 -24,881 -264,1217 -117,-485 -280,-789 -532,-1114 -252,325 -415,629 -532,1114 -240,-336 -275,-868 -264,-1217 -269,252 -568,600 -749,1031 -119,-411 -72,-784 74,-1183 -1113,622 -1415,2295 -514,3054z" style="fill:#f0ac25"/>
  <path class="Body-Hedgehog4fil10" d="M10914 22537c-141,-186 -224,-430 -261,-694 -28,-202 -29,-416 -9,-626 35,-378 197,-1016 416,-1358 -130,315 -277,999 -296,1371 -23,438 13,904 150,1307z" style="fill:#2a0f61"/>
  <path class="Body-Hedgehog4fil11" d="M15481 23368c611,-246 1047,-692 1180,-1469 57,-332 24,-737 -73,-1161 -44,1407 -281,2075 -1107,2630z" style="fill:#6e75c4"/>
  <path class="Body-Hedgehog4fil10" d="M16450 22537c249,-328 316,-836 270,-1320 -35,-378 -197,-1016 -416,-1358 130,315 277,999 296,1371 23,438 -13,904 -150,1307z" style="fill:#d15121"/>
 </g><g id="WeaponFlySwatterBack-Small">
 <animateTransform additive="sum" attributeName="transform" dur="10" repeatCount="indefinite" type="translate" values="0;0 200;0;0 200;0;0 200;0;0 200;0"/>
  <metadata id="CorelCorpID_4Corel-Layer"/>
  <g id="_2367108398624">
   <path class="WeaponFlySwatterBack-Smallfil9 WeaponFlySwatterBack-Smallstr0" d="M10341 22147l200 -150 -1712 -1177c-159,-110 -429,-128 -583,145 -155,274 1,496 177,575l1893 856 25 -249z" style="fill:#17b59b"/>
   <path class="WeaponFlySwatterBack-Smallfil1" d="M8412 20791c-62,35 -119,91 -166,174 -155,274 1,496 177,575l1893 856 21 -209c-441,-212 -1596,-774 -1774,-928 -143,-125 -196,-316 -151,-468z" style="fill:#a330ad"/>
  </g>
 </g><g id="RightPaw-Hedgehog0">
 <animateTransform additive="sum" attributeName="transform" dur="10" repeatCount="indefinite" type="translate" values="0;0 200;0;0 200;0;0 200;0;0 200;0"/>
  <metadata id="CorelCorpID_47Corel-Layer"/>
  <path class="RightPaw-Hedgehog0fil61" d="M17864 20421c184,453 629,783 699,998 77,240 -18,466 -126,513 38,206 -104,428 -245,428 -293,0 -324,-205 -437,-341 -104,194 -282,219 -407,135 -156,-104 -201,-398 -167,-539 -32,-115 -136,-329 -216,-410 -165,-601 1086,134 899,-784z" style="fill:#9737bf"/>
  <path class="RightPaw-Hedgehog0fil4 RightPaw-Hedgehog0str0" d="M17930 20445c178,390 563,759 633,974 77,240 -11,453 -119,500 27,201 -81,425 -252,441 -291,28 -324,-205 -437,-341 -99,188 -283,219 -407,135 -129,-86 -185,-306 -169,-538 -54,-150 -178,-313 -300,-425" style="fill:#3886ba"/>
  <path class="RightPaw-Hedgehog0fil43" d="M17658 22038c71,-116 109,-352 54,-541 122,143 164,426 98,556 -33,-15 -109,-28 -152,-15z" style="fill:#00c8ed"/>
  <path class="RightPaw-Hedgehog0fil43" d="M18383 22035c-21,-280 -114,-523 -262,-696 185,99 351,283 368,545 -35,48 -71,103 -106,151z" style="fill:#564e10"/>
  <path class="RightPaw-Hedgehog0fil11" d="M17726 22066c-105,150 -264,165 -378,88 -68,-45 -114,-125 -143,-214 212,167 465,72 544,-351 10,106 19,211 29,317 -17,53 -35,106 -52,160z" style="fill:#c5eb04"/>
  <path class="RightPaw-Hedgehog0fil11" d="M18473 21910c-12,10 -24,17 -36,22 38,206 -104,428 -245,428 -120,0 -240,-124 -296,-175 326,81 529,-299 303,-766 56,64 111,127 167,191 35,100 71,200 107,300z" style="fill:#1d0a7e"/>
 </g><g id="LeftPaw-Hedgehog0">
 <animateTransform additive="sum" attributeName="transform" dur="10" repeatCount="indefinite" type="translate" values="0;0 200;0;0 200;0;0 200;0;0 200;0"/>
  <metadata id="CorelCorpID_62Corel-Layer"/>
  <path class="LeftPaw-Hedgehog0fil72" d="M9500 20421c-184,453 -629,783 -699,998 -78,240 18,466 125,513 -37,206 105,428 246,428 293,0 324,-205 437,-341 104,194 282,219 407,135 156,-104 201,-398 167,-539 32,-115 136,-329 216,-410 165,-601 -1086,134 -899,-784z" style="fill:#64b537"/>
  <path class="LeftPaw-Hedgehog0fil11" d="M9638 22066c105,150 264,165 378,88 67,-45 114,-125 143,-214 -212,167 -465,72 -544,-351 -10,106 -19,211 -29,317 17,53 34,106 52,160z" style="fill:#f4acd2"/>
  <path class="LeftPaw-Hedgehog0fil11" d="M8891 21910c12,10 23,17 35,22 -37,206 105,428 246,428 120,0 240,-124 296,-175 -326,81 -529,-299 -304,-766 -55,64 -110,127 -166,191 -35,100 -71,200 -107,300z" style="fill:#b925ed"/>
  <path class="LeftPaw-Hedgehog0fil4 LeftPaw-Hedgehog0str0" d="M9434 20445c-179,390 -563,759 -633,974 -78,240 11,453 119,500 -27,201 81,425 252,441 291,28 324,-205 437,-341 99,188 282,219 407,135 128,-86 184,-306 169,-538 54,-150 178,-313 300,-425" style="fill:#7bad07"/>
  <path class="LeftPaw-Hedgehog0fil43" d="M8981 22035c21,-280 114,-523 262,-696 -185,99 -351,283 -368,545 35,48 71,103 106,151z" style="fill:#748557"/>
  <path class="LeftPaw-Hedgehog0fil43" d="M9706 22038c-71,-116 -109,-352 -54,-541 -122,143 -164,426 -98,556 33,-15 108,-28 152,-15z" style="fill:#b05245"/>
 </g><g id="NecklaceFreddy-Small">
  <animateTransform additive="sum" attributeName="transform" dur="10" repeatCount="indefinite" type="translate" values="0;0 200;0;0 200;0;0 200;0;0 200;0"/>
  <metadata id="CorelCorpID_0Corel-Layer"/>
  <g id="_1379562830928">
   <path class="NecklaceFreddy-Smallfil0 NecklaceFreddy-Smallstr0" d="M9191 20755c211,-35 532,13 624,135 67,-22 157,14 172,75 191,-38 376,169 255,337 47,58 86,136 99,199 35,-118 221,-355 326,-444 63,-565 -372,-812 -1103,-808 -95,96 -278,409 -373,506z" style="fill:#c5ac36"/>
   <path class="NecklaceFreddy-Smallfil0 NecklaceFreddy-Smallstr0" d="M18137 20735c-71,10 -142,25 -212,45 -77,-62 -186,-50 -240,49 -200,-88 -341,98 -305,219 -158,122 -286,274 -361,453 -35,-118 -221,-355 -326,-444 -63,-565 372,-812 1103,-808 95,96 246,390 341,486z" style="fill:#e80b32"/>
   <path class="NecklaceFreddy-Smallfil1" d="M17328 21023c-140,121 -238,310 -309,478 -35,-118 -175,-292 -279,-381 54,-268 198,-467 478,-623 -156,204 -47,542 110,526z" style="fill:#3b6f42"/>
   <path class="NecklaceFreddy-Smallfil2 NecklaceFreddy-Smallstr0" d="M13680 23288c173,0 368,-6 574,-19l0 -4c-4,-184 98,-334 230,-334 91,0 173,73 215,179 44,-29 100,-47 162,-47 103,0 191,50 229,121 204,-30 404,-66 592,-110 1,-149 79,-260 193,-260 81,0 161,57 217,144 76,-26 289,-105 373,-157 -27,-36 -47,-99 -59,-183 -13,-83 35,-209 118,-209 82,0 163,93 181,208 111,-81 220,-207 244,-309 -132,-169 -241,-387 -317,-605 -932,134 -2020,619 -2952,754 -932,-135 -1976,-646 -2908,-780 -100,213 -203,419 -317,575 33,267 610,636 813,706 56,-87 136,-144 217,-144 88,0 155,67 181,167 89,-63 422,-15 440,177 54,9 109,18 164,26 54,-83 302,-60 339,40 394,36 926,64 1071,64z" style="fill:#f88776"/>
   <path class="NecklaceFreddy-Smallfil1" d="M11888 22582l-1242 -602c-57,131 -112,260 -160,370 63,270 738,601 779,615 152,-227 370,-139 405,15 189,-65 377,-10 438,171 15,43 93,4 141,36 84,-89 257,-100 380,14 208,-335 1019,-282 1356,-433 -613,14 -1541,-38 -2097,-186z" style="fill:#7beb06"/>
   <path class="NecklaceFreddy-Smallfil1" d="M16092 22958c76,-26 307,-167 373,-197 -27,-36 -43,-52 -56,-135 -13,-84 36,-210 118,-210 83,0 163,93 181,208 112,-81 186,-172 210,-274 -75,-169 -164,-382 -254,-578l-545 112c-127,26 -254,54 -380,85 0,242 -701,451 -701,694 355,-68 611,81 687,243 34,-57 86,-92 150,-92 81,0 161,57 217,144z" style="fill:#739362"/>
   <path class="NecklaceFreddy-Smallfil3 NecklaceFreddy-Smallstr0" d="M13680 19335c65,0 131,-2 198,-6 20,87 96,154 182,154 81,0 146,-60 162,-140 8,1 17,1 25,1 84,0 152,-53 156,-121 302,-109 587,-313 808,-679 118,140 409,278 679,418 -429,977 -1607,1107 -2210,1107 -603,0 -1782,-130 -2211,-1107 270,-140 562,-278 680,-418 189,313 425,508 679,626 -7,16 -11,33 -11,51 0,100 116,182 259,182 96,0 179,-37 224,-91 118,17 254,23 380,23z" style="fill:#458324"/>
   <path class="NecklaceFreddy-Smallfil1" d="M12005 19045c-461,-610 -269,-648 144,-701 196,324 414,520 662,635 -7,77 21,120 45,162 -362,45 -651,-1 -851,-96z" style="fill:#8c580e"/>
   <path class="NecklaceFreddy-Smallfil1" d="M9250 20724c122,17 293,46 407,92 -103,-157 164,-465 357,-387 -170,-95 -349,-115 -520,-86 -95,97 -149,284 -244,381z" style="fill:#fb90b1"/>
   <path class="NecklaceFreddy-Smallfil1" d="M10177 21034c53,57 148,155 83,249 -42,60 77,137 100,190 35,-118 138,-272 242,-361 -37,-166 -79,-367 -336,-486 136,161 52,479 -89,408z" style="fill:#970b52"/>
   <path class="NecklaceFreddy-Smallfil4" d="M13680 22740c1198,0 2432,-175 2883,-663 234,-422 75,-734 92,-937 31,10 62,17 93,20 -81,-346 618,-949 1115,-828 50,-419 -850,-982 -1241,-1432 -187,-215 -569,-70 -963,-141 -89,182 -543,1121 -1979,1122 -1437,-1 -1890,-940 -1979,-1122 -395,71 -776,-74 -963,141 -391,450 -1292,1013 -1241,1432 497,-121 1196,482 1115,828 31,-3 63,-10 93,-20 28,146 -165,510 92,937 451,488 1685,663 2883,663z" style="fill:#dbb017"/>
   <path class="NecklaceFreddy-Smallfil5" d="M13680 22737c1394,0 2767,-309 2954,-758 14,-316 175,-868 -192,-957 -7,14 -113,154 -123,167 -295,424 -1604,588 -2639,588 -1014,0 -2289,-158 -2620,-562 -18,-21 -152,-146 -164,-170 -290,34 -281,715 -170,934 187,449 1560,758 2954,758z" style="fill:#28d012"/>
   <path class="NecklaceFreddy-Smallfil6" d="M13680 20705c1394,0 2170,-162 2358,-610 14,-317 -7,-676 307,-1055 -171,327 -922,569 -1728,680 -314,43 -605,176 -905,176 -305,0 -667,-134 -988,-179 -799,-111 -1540,-352 -1709,-677 314,379 293,738 307,1055 187,448 964,610 2358,610z" style="fill:#2a4e12"/>
   <path class="NecklaceFreddy-Smallfil1" d="M12168 19358c-242,-151 -323,-494 -451,-771 -418,86 -668,54 -910,247 242,116 376,257 693,286 223,20 350,238 617,238 17,0 34,0 51,0z" style="fill:#67561b"/>
   <path class="NecklaceFreddy-Smallfil7" d="M10293 20609c213,143 345,442 327,549 9,21 34,24 68,15 29,251 -147,532 43,802 312,707 2242,776 2945,789 -1298,-249 -2060,-559 -2272,-876 -169,-252 -109,-383 37,-285 636,428 -131,-446 -119,-1508 4,-311 -72,-729 -271,-959 126,468 -282,538 -336,1152 -26,289 -279,405 -422,321z" style="fill:#c855cb"/>
   <path class="NecklaceFreddy-Smallfil8" d="M10762 18867c347,181 543,790 560,1228 109,-583 -150,-1117 -436,-1316 -42,29 -83,59 -124,88z" style="fill:#b6367a"/>
   <path class="NecklaceFreddy-Smallfil8" d="M10669 21064c384,-132 548,-489 579,-703 40,258 -153,751 -520,832 -51,34 -34,-77 -59,-129z" style="fill:#9251db"/>
   <path class="NecklaceFreddy-Smallfil8" d="M16685 21086c-366,-163 -510,-518 -579,-709 -20,277 187,712 514,831 111,-38 40,-69 65,-122z" style="fill:#19f522"/>
   <path class="NecklaceFreddy-Smallfil1" d="M17159 20499c-93,35 -441,109 -445,-132 -9,-622 -539,-201 -507,-1020 -159,168 -174,481 -169,748 14,815 -452,1302 -130,1676 172,200 109,597 -500,832 -35,13 960,-133 1222,-557 194,-507 -53,-751 46,-892 35,6 72,9 110,8 -135,-159 110,-489 373,-663z" style="fill:#9218f8"/>
   <path class="NecklaceFreddy-Smallfil1" d="M9480 20310c-29,-520 1059,-1149 1210,-1284 -660,583 -940,1184 -657,1389 -207,-110 -412,-130 -553,-105z" style="fill:#e1e8cf"/>
   <path class="NecklaceFreddy-Smallfil9" d="M17723 20201c-214,-8 -500,109 -631,222 465,-729 -379,-789 -537,-1461 206,339 1032,789 1168,1239z" style="fill:#351e88"/>
   <path class="NecklaceFreddy-Smallfil9" d="M14484 19900c379,-58 691,-299 957,-33 620,623 346,-562 909,-1035 -127,-60 -326,-68 -531,-93 -230,394 -597,968 -1335,1161z" style="fill:#eb9177"/>
   <path class="NecklaceFreddy-Smallfil9" d="M13577 22629c1130,-213 1215,-618 1639,-838 423,-220 707,56 636,294 -71,239 -251,527 -2275,544z" style="fill:#eeb9ee"/>
   <path class="NecklaceFreddy-Smallfil9" d="M10769 19644c-217,289 -9,880 -363,927 -54,-101 -256,-224 -369,-264 514,-41 391,-516 732,-663z" style="fill:#391147"/>
   <path class="NecklaceFreddy-Smallfil1" d="M12035 19763c589,-554 213,2255 2887,2143 -2225,605 -3705,-1373 -2887,-2143z" style="fill:#cfad6a"/>
   <path class="NecklaceFreddy-Smallfil10 NecklaceFreddy-Smallstr0" d="M13680 22740c1198,0 2501,-236 2952,-725 157,-341 17,-617 22,-875 31,10 62,17 94,20 -81,-346 618,-949 1115,-828 50,-419 -850,-982 -1241,-1432 -187,-215 -569,-70 -963,-141 -89,182 -543,1121 -1979,1122 -1437,-1 -1890,-940 -1979,-1122 -395,71 -776,-74 -963,141 -391,450 -1292,1013 -1241,1432 497,-121 1196,482 1115,828 29,-3 58,-9 86,-18 15,359 -174,506 44,906 451,488 1740,692 2938,692z" style="fill:#1370e5"/>
   <path class="NecklaceFreddy-Smallfil8" d="M16598 18867c-347,181 -544,790 -560,1228 -109,-583 149,-1117 436,-1316 42,29 83,59 124,88z" style="fill:#eb31b9"/>
  </g>
 </g><g id="BraceletSteel-Small">
 <animateTransform additive="sum" attributeName="transform" dur="10" repeatCount="indefinite" type="translate" values="0;0 200;0;0 200;0;0 200;0;0 200;0"/>
  <metadata id="CorelCorpID_1Corel-Layer"/>
  <g id="_2658459775744">
   <path class="BraceletSteel-Smallfil10 BraceletSteel-Smallstr1" d="M9225 20848c-120,-53 -188,-167 -132,-286 55,-120 171,-126 295,-79 313,119 925,575 1105,849 73,110 85,223 -18,305 -104,82 -241,37 -319,-69 -194,-264 -613,-580 -931,-720z" style="fill:#28d45b"/>
   <path class="BraceletSteel-Smallfil11 BraceletSteel-Smallstr1" d="M18138 20848c121,-53 189,-167 133,-286 -55,-120 -172,-126 -295,-79 -313,119 -925,575 -1106,849 -72,110 -84,223 19,305 103,82 241,37 319,-69 194,-264 613,-580 930,-720z" style="fill:#6540a9"/>
  </g>
 </g><g id="Head-Hedgehog7">
 <animateTransform additive="sum" attributeName="transform" dur="10" repeatCount="indefinite" type="translate" values="0;0 200;0;0 200;0;0 200;0;0 200;0"/>
  <metadata id="CorelCorpID_83Corel-Layer"/>
  <path class="Head-Hedgehog7fil111" d="M13682 9615c-2469,0 -5181,2446 -5797,4997 -451,1869 744,3404 3083,4213 955,331 1878,320 2714,320 835,0 1759,11 2714,-320 2339,-809 3534,-2344 3083,-4213 -616,-2551 -3328,-4997 -5797,-4997z" style="fill:#d7de3a"/>
  <path class="Head-Hedgehog7fil118" d="M8497 17264c542,651 1383,1185 2471,1561 863,299 1700,319 2470,320 81,0 163,0 244,0 81,0 163,0 244,0 770,-1 1607,-21 2470,-320 1088,-376 1929,-910 2471,-1561 954,-1749 -2913,-1977 -4622,-522 -188,0 -375,0 -563,0 -188,0 -375,0 -563,0 -1709,-1455 -5576,-1227 -4622,522z" style="fill:#dd8167"/>
  <path class="Head-Hedgehog7fil11" d="M8999 12331c-527,703 -922,1487 -1114,2281 -451,1869 744,3404 3083,4213 576,186 922,234 1286,273 -3444,-1069 -4914,-3710 -3255,-6767z" style="fill:#b59407"/>
  <path class="Head-Hedgehog7fil10" d="M8591 12934c-489,892 -792,1791 -690,2884 71,443 248,856 524,1232 378,518 941,966 1664,1328 138,69 902,452 1624,644 -569,-34 -1505,-419 -1666,-498 -757,-375 -1346,-843 -1743,-1385 -289,-395 -476,-828 -551,-1293 -151,-959 215,-2204 838,-2912z" style="fill:#f05709"/>
  <path class="Head-Hedgehog7fil10" d="M18773 12934c489,892 792,1791 690,2884 -71,443 -248,856 -524,1232 -378,518 -941,966 -1664,1328 -138,69 -902,452 -1625,644 570,-34 1506,-419 1667,-498 757,-375 1346,-843 1743,-1385 289,-395 476,-828 550,-1293 151,-959 -215,-2204 -837,-2912z" style="fill:#a7ea51"/>
  <path class="Head-Hedgehog7fil119" d="M13682 16404c-184,68 -431,301 -614,369 -160,-561 -490,-995 -1030,-1292 -61,-357 -19,-1028 -81,-1385 89,-296 -28,-738 -123,-944 273,67 536,177 747,347 91,-246 87,-484 50,-729 227,98 474,271 660,493 71,-226 217,-437 391,-643 174,206 319,417 390,643 187,-222 433,-395 661,-493 -37,245 -42,483 50,729 211,-170 474,-280 747,-347 -95,206 -212,648 -124,944 -61,357 -19,1028 -80,1385 -540,297 -870,731 -1030,1292 -183,-68 -430,-301 -614,-369z" style="fill:#f266c9"/>
 </g><g id="Mouth-Hedgehog7">
 <animateTransform additive="sum" attributeName="transform" dur="10" repeatCount="indefinite" type="translate" values="0;0 200;0;0 200;0;0 200;0;0 200;0"/>
  <metadata id="CorelCorpID_91Corel-Layer"/>
  <path class="Mouth-Hedgehog7fil4 Mouth-Hedgehog7str0" d="M12295 17440c293,509 1362,356 1387,-421" style="fill:#606d7a"/>
  <path class="Mouth-Hedgehog7fil4 Mouth-Hedgehog7str0" d="M15069 17440c-293,509 -1362,356 -1387,-421" style="fill:#18a797"/>
  <path class="Mouth-Hedgehog7fil43" d="M13096 17788c427,-126 566,-161 742,-147 -44,-121 -87,-242 -131,-363 -194,171 -417,339 -611,510z" style="fill:#db7f8a"/>
  <path class="Mouth-Hedgehog7fil122 Mouth-Hedgehog7str0" d="M13726 17559c517,37 499,644 921,659 232,8 371,-351 135,-552 -226,-192 -735,-241 -1056,-107z" style="fill:#51b246"/>
 </g><g id="WeaponFlySwatter-Small">
 <animateTransform additive="sum" attributeName="transform" dur="10" repeatCount="indefinite" type="translate" values="0;0 200;0;0 200;0;0 200;0;0 200;0"/>
  <metadata id="CorelCorpID_5Corel-Layer"/>
  <g id="_2367108395808">
   <path class="WeaponFlySwatter-Smallfil10 WeaponFlySwatter-Smallstr0" d="M12735 23295c-57,102 -114,203 -171,304 -756,-426 -1511,-853 -2267,-1279 -24,-147 34,-247 171,-303 756,426 1511,852 2267,1278z" style="fill:#13fd2a"/>
   <path class="WeaponFlySwatter-Smallfil3" d="M12631 23480l-67 119c-756,-426 -1511,-853 -2267,-1279 -13,-78 -2,-143 31,-195l2303 1355z" style="fill:#2607f2"/>
   <path class="WeaponFlySwatter-Smallfil11" d="M15685 23545c17,8 32,16 45,23 231,128 327,329 312,570 -13,222 -122,479 -306,742 -44,64 -92,127 -143,190 -51,62 -105,122 -160,180 -229,238 -478,417 -723,510 -267,101 -530,104 -761,-24 -13,-7 -27,-16 -43,-26l-1536 -985c-213,-137 -299,-276 -241,-494 49,-187 217,-431 517,-796 300,-365 512,-584 705,-692 224,-126 414,-112 648,0l1686 802zm-1910 -680l-35 42 184 102 50 -60 -90 -42c-38,-18 -74,-32 -109,-42zm323 144l-54 66 184 103 63 -77 -193 -92zm318 151l-69 84 184 102 78 -94 -193 -92zm317 151l-83 101 184 102 92 -111 -193 -92zm318 151l-97 118 184 102 105 -128 -192 -92zm317 151l-111 135 184 103 120 -146 -193 -92zm307 164l-115 140 184 102 47 -57c-19,-72 -57,-135 -116,-185zm124 409l-13 -7 -123 150 86 47c24,-65 41,-129 50,-190zm-97 302l-117 -65 -123 150 149 83c35,-57 65,-113 91,-168zm-156 269l-161 -89 -123 149 171 95c34,-44 67,-88 97,-130 5,-9 11,-17 16,-25zm-191 249l-171 -94 -123 149 162 90c7,-7 14,-15 21,-22 37,-39 74,-80 111,-123zm-222 232l-149 -82 -123 150 116 64c52,-40 104,-84 156,-132zm-264 209l-86 -47 -123 150 13 7c65,-30 130,-67 196,-110zm-452 188l46 -57 -184 -102 -115 140c79,25 164,31 253,19zm-377 -80l120 -145 -184 -103 -111 136 175 112zm-289 -185l106 -129 -185 -102 -97 118 176 113zm-289 -185l91 -112 -184 -102 -83 101 176 113zm-289 -186l77 -94 -184 -102 -69 83 176 113zm-290 -185l64 -77 -185 -103 -54 67 175 113zm-289 -186l49 -60 -184 -102 -34 42c24,23 53,46 88,68l81 52zm-234 -354l58 32 123 -150 -104 -57c-37,66 -63,124 -77,175zm141 -278l117 66 123 -150 -129 -72c-43,56 -79,108 -111,156zm184 -253l134 75 123 -150 -136 -76c-44,54 -84,104 -121,151zm198 -245l136 75 123 -149 -133 -74c-40,46 -82,95 -126,148zm207 -241l130 72 123 -150 -117 -65c-43,43 -88,90 -136,143zm227 -229l104 57 123 -150 -58 -32c-52,30 -108,71 -169,125zm1748 1818l-184 -103 -123 150 184 102 123 -149zm-303 -169l-184 -102 -124 150 185 102 123 -150zm-304 -168l-184 -102 -123 150 184 102 123 -150zm-303 -168l-184 -102 -123 149 184 103 123 -150zm-303 -168l-184 -103 -123 150 184 102 123 -149zm-304 -169l-184 -102 -123 150 184 102 123 -150zm-303 -168l-184 -102 -123 150 184 102 123 -150zm-107 -197l185 103 123 -150 -184 -102 -124 149zm304 169l184 102 123 -150 -184 -102 -123 150zm303 168l184 102 123 -150 -184 -102 -123 150zm303 168l185 102 123 -149 -185 -103 -123 150zm304 168l184 103 123 -150 -184 -102 -123 149zm303 169l184 102 123 -150 -184 -102 -123 150zm303 168l185 102 123 -150 -185 -102 -123 150zm-1619 -1254l184 103 123 -150 -184 -102 -123 149zm303 169l185 102 123 -150 -185 -102 -123 150zm304 168l184 102 123 -150 -184 -102 -123 150zm303 168l184 102 123 -149 -184 -103 -123 150zm303 168l185 103 123 -150 -185 -102 -123 149zm304 169l184 102 123 -150 -184 -102 -123 150zm303 168l184 102 123 -150 -184 -102 -123 150zm-1619 -1254l184 102 123 -149 -184 -103 -123 150zm303 168l184 103 123 -150 -184 -102 -123 149zm303 169l185 102 123 -150 -185 -102 -123 150zm304 168l184 102 123 -150 -184 -102 -123 150zm303 168l184 102 123 -149 -184 -103 -123 150zm303 168l185 103 123 -150 -185 -102 -123 149zm304 169l184 102 123 -150 -184 -102 -123 150zm-2500 -183l-123 150 185 102 123 -150 -185 -102zm304 168l-123 150 184 102 123 -150 -184 -102zm303 168l-123 150 184 102 123 -149 -184 -103zm303 169l-123 149 185 103 123 -150 -185 -102zm304 168l-123 150 184 102 123 -150 -184 -102zm303 168l-123 150 184 102 123 -150 -184 -102zm303 168l-123 150 184 102 124 -149 -185 -103zm-2020 -765l-123 150 184 102 123 -150 -184 -102zm303 168l-123 150 184 102 123 -149 -184 -103zm303 169l-123 149 185 103 123 -150 -185 -102zm304 168l-123 150 184 102 123 -150 -184 -102zm303 168l-123 150 184 102 123 -150 -184 -102zm303 168l-123 150 185 102 123 -149 -185 -103zm304 169l-123 149 184 103 123 -150 -184 -102z" style="fill:#181459"/>
   <path class="WeaponFlySwatter-Smallfil1" d="M15068 25566c-118,83 -239,149 -358,194 -267,101 -530,104 -761,-24 -13,-7 -27,-16 -43,-26l-1536 -985c-213,-137 -299,-276 -241,-494 49,-187 217,-431 517,-796 300,-365 512,-584 705,-692 224,-126 414,-112 648,0l42 20c-220,61 -413,154 -577,269l80 -97 -58 -32c-52,30 -108,71 -169,125l87 48c-34,27 -67,54 -99,83l-79 -45c-43,43 -88,90 -136,143l76 42c-27,31 -52,63 -76,95l-81 -44c-40,46 -82,95 -126,148l102 56c-20,35 -39,71 -55,107l-124 -69c-44,54 -84,104 -121,151l134 75 89 -109c-46,107 -77,217 -95,327l-76 92 61 34c0,12 -1,25 -2,37 -1,35 2,69 9,104l-145 -81 -123 150 184 102 97 -119c14,46 35,92 61,137l-39 48 117 65c108,137 266,268 449,386l-37 -20 -83 101 176 113 87 -106c39,22 79,44 119,65l-93 113 176 113 106 -129 -51 -28c240,115 496,208 734,270l1 1 0 -1c49,13 98,25 145,34l-26 33 13 7c20,-9 40,-19 61,-30 121,24 235,37 334,39zm-651 69l46 -57 -184 -102 -115 140c79,25 164,31 253,19zm-377 -80l120 -145 -184 -103 -111 136 175 112zm-867 -556l77 -94 -184 -102 -69 83 176 113zm-290 -185l64 -77 -185 -103 -54 67 175 113zm-289 -186l49 -60 -184 -102 -34 42c24,23 53,46 88,68l81 52zm-234 -354l58 32 123 -150 -104 -57c-37,66 -63,124 -77,175zm141 -278l117 66 123 -150 -129 -72c-43,56 -79,108 -111,156z" style="fill:#5841d1"/>
   <path class="WeaponFlySwatter-Smallfil5 WeaponFlySwatter-Smallstr1" d="M15685 23545c17,8 32,16 45,23 231,128 327,329 312,570 -13,222 -122,479 -306,742 -44,64 -92,127 -143,190 -51,62 -105,122 -160,180 -229,238 -478,417 -723,510 -267,101 -530,104 -761,-24 -13,-7 -27,-16 -43,-26l-1536 -985c-213,-137 -299,-276 -241,-494 49,-187 217,-431 517,-796 300,-365 512,-584 705,-692 224,-126 414,-112 648,0l1686 802z" style="fill:#a4ebbb"/>
  </g>
 </g><g id="Eyes-Hedgehog4">
 <animateTransform additive="sum" attributeName="transform" dur="10" repeatCount="indefinite" type="translate" values="0;0 200;0;0 200;0;0 200;0;0 200;0"/>
  <metadata id="CorelCorpID_98Corel-Layer"/>
  <g id="_1891456045648">
   <path class="Eyes-Hedgehog4fil141" d="M9730 16395c618,339 1878,365 2380,-347 590,-836 -108,-2783 -1068,-2887 -640,-69 -1276,283 -1633,759 -728,972 -352,2105 321,2475z"/>
   <path class="Eyes-Hedgehog4fil146" d="M12227 15830c180,-457 105,-1100 -125,-1640 -369,-390 -838,-608 -1557,-477 -915,166 -1362,899 -1162,1645 200,747 952,1242 1885,1057 627,-124 747,-297 959,-585z"/>
   <path class="Eyes-Hedgehog4fil147" d="M10655 13503c697,-153 1397,293 1563,994 165,702 -266,1453 -964,1606 -697,153 -1402,-250 -1568,-952 -165,-702 271,-1495 969,-1648z"/>
   <path class="Eyes-Hedgehog4fil128" d="M12309 14952c-103,-833 -627,-1722 -1267,-1791 -640,-69 -1276,283 -1633,759 -152,204 -257,415 -320,625 480,-625 1229,-967 1801,-880 689,104 1204,619 1419,1287z"/>
   <path class="Eyes-Hedgehog4fil124" d="M12100 11588c-119,-23 -437,256 -888,404 -413,136 -806,85 -893,252 -96,186 192,494 424,549 190,45 631,-80 972,-389 404,-364 530,-788 385,-816z"/>
   <path class="Eyes-Hedgehog4fil11" d="M12100 11588c-119,-23 -437,256 -888,404 -413,136 -806,85 -893,252 -96,186 192,494 424,549 190,45 631,-80 972,-389 404,-364 530,-788 385,-816z"/>
   <circle class="Eyes-Hedgehog4fil121" r="235" transform="matrix(0.535512 -0.0305649 0.0623147 0.334896 10873.2 13637.2)"/>
   <circle class="Eyes-Hedgehog4fil121" r="235" transform="matrix(1.55653 -1.44003 0.848674 0.620922 10050.1 14009)"/>
   <circle class="Eyes-Hedgehog4fil121" r="235" transform="matrix(0.231366 -0.483919 0.323456 0.106841 9450.14 14524)"/>
   <path class="Eyes-Hedgehog4fil121" d="M9750 14647c121,-13 136,-54 144,-204 7,150 22,191 143,204 -121,12 -136,53 -143,203 -8,-150 -23,-191 -144,-203z"/>
   <circle class="Eyes-Hedgehog4fil121" r="235" transform="matrix(0.524035 0.0816328 -0.149565 0.73298 12022.2 15414.1)"/>
   <path class="Eyes-Hedgehog4fil121" d="M10783 15577c177,-18 199,-78 210,-297 11,219 33,279 211,297 -178,18 -200,79 -211,298 -11,-219 -33,-280 -210,-298z"/>
   <path class="Eyes-Hedgehog4fil121" d="M10542 15735c78,-8 88,-35 92,-131 5,96 15,123 93,131 -78,8 -88,34 -93,130 -4,-96 -14,-122 -92,-130z"/>
   <path class="Eyes-Hedgehog4fil121" d="M11845 14918c116,-12 130,-51 138,-195 7,144 21,183 138,195 -117,12 -131,52 -138,195 -8,-143 -22,-183 -138,-195z"/>
   <path class="Eyes-Hedgehog4fil121" d="M11025 15181c78,-8 88,-35 92,-130 5,95 15,122 93,130 -78,8 -88,34 -93,130 -4,-96 -14,-122 -92,-130z"/>
   <path class="Eyes-Hedgehog4fil121" d="M11287 15756c78,-8 87,-35 92,-131 5,96 14,123 92,131 -78,8 -87,34 -92,130 -5,-96 -14,-122 -92,-130z"/>
   <path class="Eyes-Hedgehog4fil121" d="M9370 14717c-364,887 264,1650 1035,1671 -476,-198 -1095,-656 -1035,-1671z"/>
   <path class="Eyes-Hedgehog4fil4 Eyes-Hedgehog4str1" d="M9730 16395c618,339 1878,365 2380,-347 590,-836 -108,-2783 -1068,-2887 -640,-69 -1276,283 -1633,759 -728,972 -352,2105 321,2475z"/>
  </g>
  <path class="Eyes-Hedgehog4fil148" d="M17634 16395c-618,339 -1878,365 -2380,-347 -591,-836 108,-2783 1067,-2887 641,-69 1277,283 1633,759 729,972 353,2105 -320,2475z"/>
  <path class="Eyes-Hedgehog4fil149" d="M15137 15830c-180,-457 -105,-1100 125,-1640 369,-390 838,-608 1556,-477 916,166 1362,899 1163,1645 -200,747 -952,1242 -1886,1057 -626,-124 -747,-297 -958,-585z"/>
  <path class="Eyes-Hedgehog4fil150" d="M16709 13503c-698,-153 -1397,293 -1563,994 -165,702 266,1453 964,1606 697,153 1402,-250 1568,-952 165,-702 -271,-1495 -969,-1648z"/>
  <path class="Eyes-Hedgehog4fil128" d="M15055 14952c103,-833 626,-1722 1266,-1791 641,-69 1277,283 1633,759 153,204 257,415 320,625 -479,-625 -1228,-967 -1800,-880 -690,104 -1204,619 -1419,1287z"/>
  <path class="Eyes-Hedgehog4fil124" d="M15264 11588c119,-23 437,256 888,404 413,136 806,85 892,252 97,186 -191,494 -423,549 -190,45 -631,-80 -972,-389 -404,-364 -530,-788 -385,-816z"/>
  <path class="Eyes-Hedgehog4fil11" d="M15264 11588c119,-23 437,256 888,404 413,136 806,85 892,252 97,186 -191,494 -423,549 -190,45 -631,-80 -972,-389 -404,-364 -530,-788 -385,-816z"/>
  <circle class="Eyes-Hedgehog4fil121" r="235" transform="matrix(0.535512 -0.0305649 0.0623147 0.334896 16764.7 13576.7)"/>
  <circle class="Eyes-Hedgehog4fil121" r="235" transform="matrix(1.55653 -1.44003 0.848674 0.620922 15993.4 13922.6)"/>
  <circle class="Eyes-Hedgehog4fil121" r="235" transform="matrix(0.231366 -0.483919 0.323456 0.106841 15445.3 14545.6)"/>
  <path class="Eyes-Hedgehog4fil121" d="M15762 14668c122,-12 136,-53 144,-203 8,150 23,191 144,203 -121,13 -136,54 -144,203 -8,-149 -22,-190 -144,-203z"/>
  <circle class="Eyes-Hedgehog4fil121" r="235" transform="matrix(0.524035 0.0816328 -0.149565 0.73298 17523.4 15544)"/>
  <path class="Eyes-Hedgehog4fil121" d="M16155 15672c178,-18 200,-78 211,-297 11,219 33,279 210,297 -177,18 -199,79 -210,298 -11,-219 -33,-280 -211,-298z"/>
  <path class="Eyes-Hedgehog4fil121" d="M15914 15830c78,-8 88,-35 93,-131 4,96 14,123 92,131 -78,8 -88,34 -92,130 -5,-96 -15,-122 -93,-130z"/>
  <path class="Eyes-Hedgehog4fil121" d="M17384 15038c117,-11 131,-51 139,-195 7,144 21,184 138,195 -117,12 -131,52 -138,196 -8,-144 -22,-184 -139,-196z"/>
  <path class="Eyes-Hedgehog4fil121" d="M16397 15276c78,-8 88,-35 93,-131 4,96 14,123 92,131 -78,8 -88,34 -92,130 -5,-96 -15,-122 -93,-130z"/>
  <path class="Eyes-Hedgehog4fil121" d="M16659 15851c78,-8 87,-35 92,-131 5,96 15,123 92,131 -77,8 -87,34 -92,130 -5,-96 -14,-122 -92,-130z"/>
  <path class="Eyes-Hedgehog4fil121" d="M17994 14717c364,887 -264,1650 -1035,1671 476,-198 1095,-656 1035,-1671z"/>
  <path class="Eyes-Hedgehog4fil4 Eyes-Hedgehog4str1" d="M17634 16395c-618,339 -1878,365 -2380,-347 -591,-836 108,-2783 1067,-2887 641,-69 1277,283 1633,759 729,972 353,2105 -320,2475z"/>
 </g><g id="HatFreddy-Small">
  <animateTransform additive="sum" attributeName="transform" dur="10" repeatCount="indefinite" type="translate" values="0;0 200;0;0 200;0;0 200;0;0 200;0"/>
  <metadata id="CorelCorpID_9Corel-Layer"/>
  <g id="_1379562786416">
   <path class="HatFreddy-Smallfil52 HatFreddy-Smallstr0" d="M13681 14298c5237,0 5560,-2063 7642,-2062 -638,-269 -1428,-290 -2505,-637 -1405,-453 -3496,272 -5137,272 -1640,0 -3731,-725 -5136,-272 -1077,347 -1867,368 -2506,637 2082,-1 2406,2062 7642,2062z" style="fill:#8fc258"/>
   <path class="HatFreddy-Smallfil1" d="M12434 11772c-1360,-182 -2822,-517 -3889,-173 -1077,347 -1867,368 -2506,637 1389,0 1996,917 3799,1528 -731,-1227 3083,-57 5519,-1066 -530,-214 -2393,-713 -2923,-926z" style="fill:#332787"/>
   <path class="HatFreddy-Smallfil53 HatFreddy-Smallstr0" d="M15966 6197c1108,327 1542,1747 1926,2072 500,421 686,2541 900,3372 -360,654 -2917,1139 -5085,1146l0 0 -26 0 -25 0 0 0c-2168,-7 -4725,-492 -5085,-1146 214,-831 400,-2951 900,-3372 384,-325 817,-1745 1926,-2072 551,-163 1594,440 2284,452 691,-12 1734,-615 2285,-452z" style="fill:#d697a6"/>
   <path class="HatFreddy-Smallfil7" d="M16041 12585c-4065,-500 -2113,-4083 -2278,-4953 -101,-537 -398,-682 -432,-264 -198,2388 -3185,1835 -3395,1587 -381,-450 524,-1956 821,-2295 -307,224 -648,634 -841,999 -270,512 -576,720 -598,759 -402,720 -637,2590 -741,3117 265,1052 5077,1551 7464,1050z" style="fill:#702034"/>
   <path class="HatFreddy-Smallfil1" d="M14475 7178c698,819 1002,1244 3202,1455 363,35 -1133,689 -2249,475 -976,-186 -1495,-2566 -953,-1930z" style="fill:#7d6489"/>
   <path class="HatFreddy-Smallfil54" d="M11603 14032c6764,184 7095,-1969 9150,-1854 -1716,173 -2699,2484 -9150,1854z" style="fill:#9c6009"/>
   <path class="HatFreddy-Smallfil54" d="M16145 12431c1181,-161 2328,-515 2421,-829 47,-158 -315,-2124 -530,-2885 235,2481 -244,3066 -1891,3714z" style="fill:#b3e92b"/>
   <path class="HatFreddy-Smallfil54" d="M11703 6291c898,116 1423,731 2574,380 -522,618 -1212,404 -2574,-380z" style="fill:#cad704"/>
   <path class="HatFreddy-Smallfil54" d="M15164 6433c742,-158 1643,658 2115,1149 -554,-808 -1227,-1576 -2115,-1149z" style="fill:#569bbf"/>
  </g>
 </g><g id="Moustache-Hedgehog4">
 <animateTransform additive="sum" attributeName="transform" dur="10" repeatCount="indefinite" type="translate" values="0;0 200;0;0 200;0;0 200;0;0 200;0"/>
  <metadata id="CorelCorpID_108Corel-Layer"/>
  <path class="Moustache-Hedgehog4fil178" d="M17631 16885c-39,-25 -88,-18 -111,17 -23,35 -9,84 30,109 79,51 193,114 341,133 -70,-118 -180,-207 -260,-259zm-7898 0c38,-25 88,-18 111,17 22,35 9,84 -30,109 -79,51 -193,114 -341,133 70,-118 180,-207 260,-259zm688 -18c40,-23 90,-13 111,23 21,36 5,84 -35,107 -82,48 -198,105 -348,116 76,-114 191,-198 272,-246zm-453 513c36,-30 86,-28 113,4 26,32 19,82 -17,112 -73,60 -179,135 -324,170 56,-124 155,-226 228,-286zm500 -117c33,-32 83,-35 112,-5 29,30 25,80 -8,112 -67,66 -167,150 -309,197 46,-128 137,-238 205,-304zm545 -198c27,-38 76,-49 110,-26 34,24 39,75 13,112 -55,78 -138,178 -269,249 22,-134 91,-258 146,-335zm-690 763c31,-34 82,-39 112,-10 30,28 29,78 -3,112 -65,69 -160,157 -300,210 40,-130 126,-243 191,-312zm478 -181c27,-38 77,-48 110,-23 33,25 38,75 10,112 -56,76 -141,175 -273,243 24,-134 97,-256 153,-332zm446 -166c25,-39 74,-52 108,-29 35,23 42,73 17,112 -52,78 -132,181 -261,257 18,-135 83,-261 136,-340zm-515 677c26,-38 75,-50 109,-26 34,24 40,74 14,112 -54,77 -136,178 -266,251 20,-135 89,-259 143,-337zm422 -140c25,-39 74,-53 109,-31 35,22 43,72 18,111 -51,80 -128,184 -256,263 15,-136 79,-263 129,-343zm437 -197c17,-43 62,-66 100,-51 39,15 56,62 40,105 -35,89 -91,206 -201,307 -11,-136 26,-273 61,-361zm-345 603c23,-40 70,-57 106,-37 37,20 48,69 26,109 -46,83 -116,192 -239,279 7,-137 62,-268 107,-351zm726 -336c14,-44 57,-70 97,-57 39,12 60,58 46,102 -29,90 -76,211 -179,320 -21,-135 7,-275 36,-365zm-352 494c14,-44 56,-70 96,-58 40,11 61,57 48,101 -27,91 -73,212 -175,322 -22,-134 4,-274 31,-365zm751 -311c8,-46 48,-77 88,-70 41,7 68,50 60,96 -17,93 -49,219 -137,340 -38,-131 -28,-273 -11,-366zm-304 402c14,-44 57,-70 97,-58 40,13 60,59 46,103 -28,90 -76,211 -179,319 -21,-135 8,-274 36,-364zm713 -313c7,-46 45,-79 86,-73 41,5 69,47 63,93 -13,94 -40,221 -123,345 -43,-130 -38,-272 -26,-365zm-275 436c8,-46 48,-77 89,-70 40,7 67,50 59,96 -17,93 -48,219 -136,340 -38,-131 -28,-273 -12,-366zm683 -381c0,-46 34,-84 75,-84 41,0 75,38 75,84 0,94 -9,224 -75,358 -60,-122 -75,-264 -75,-358zm-230 416c6,-46 44,-78 85,-73 42,6 70,48 63,93 -12,94 -39,221 -123,346 -43,-130 -38,-272 -25,-366zm462 61c0,-47 34,-84 75,-84 42,0 75,37 75,84 0,94 -9,224 -75,358 -60,-122 -75,-264 -75,-358zm-1057 -2192c19,-42 65,-63 103,-46 38,16 53,64 35,107 -39,86 -100,201 -215,297 -5,-136 39,-272 77,-358zm365 -209c15,-44 58,-70 98,-57 39,13 59,59 45,103 -30,90 -79,210 -183,318 -19,-135 11,-274 40,-364zm954 2308l0 0 0 0 0 0c60,-123 75,-264 75,-359 0,-46 -34,-84 -75,-84l0 0 0 0c-41,0 -75,38 -75,84 0,95 15,236 75,359l0 0zm-836 -1874c12,-45 54,-72 94,-62 40,11 63,56 51,101 -25,91 -67,214 -165,327 -27,-134 -5,-274 20,-366zm-561 -707c30,-35 81,-41 112,-13 31,27 31,78 0,112 -62,71 -155,162 -293,220 36,-132 118,-248 181,-319zm2794 0c-31,-35 -81,-41 -112,-13 -31,27 -31,78 -1,112 63,71 156,162 294,220 -36,-132 -118,-248 -181,-319zm-561 707c-12,-45 -54,-72 -94,-62 -40,11 -63,56 -51,101 25,91 67,214 165,327 27,-134 5,-274 -20,-366zm118 -434c-15,-44 -58,-70 -98,-57 -39,13 -59,59 -45,103 29,90 79,210 183,318 19,-135 -11,-274 -40,-364zm364 209c-18,-42 -64,-63 -102,-46 -38,16 -53,64 -35,107 39,86 100,201 214,297 6,-136 -38,-272 -77,-358zm-1056 2192c0,-47 -34,-84 -75,-84 -42,0 -75,37 -75,84 0,94 9,224 75,358 60,-122 75,-264 75,-358zm462 -61c-6,-46 -45,-78 -86,-73 -41,6 -69,48 -62,93 12,94 39,221 122,346 43,-130 39,-272 26,-366zm-230 -416c0,-46 -34,-84 -75,-84 -42,0 -75,38 -75,84 0,94 9,224 75,358 60,-122 75,-264 75,-358zm683 381c-8,-46 -48,-77 -89,-70 -40,7 -67,50 -59,96 17,93 48,219 136,340 38,-131 28,-273 12,-366zm-276 -436c-6,-46 -44,-79 -85,-73 -41,5 -69,47 -63,93 13,94 40,221 123,345 43,-130 38,-272 25,-365zm714 313c-14,-44 -58,-70 -97,-58 -40,13 -60,59 -46,103 28,90 76,211 179,319 20,-135 -8,-274 -36,-364zm-304 -402c-8,-46 -48,-77 -88,-70 -41,7 -68,50 -60,96 17,93 49,219 136,340 38,-131 28,-273 12,-366zm751 311c-14,-44 -57,-70 -96,-58 -40,11 -61,57 -48,101 27,91 73,212 175,322 22,-134 -4,-274 -31,-365zm-352 -494c-14,-44 -57,-70 -97,-57 -39,12 -60,58 -46,102 28,90 76,211 179,320 21,-135 -7,-275 -36,-365zm726 336c-23,-40 -70,-57 -106,-37 -37,20 -48,69 -26,109 46,83 116,192 239,279 -7,-137 -62,-268 -107,-351zm-345 -603c-17,-43 -62,-66 -100,-51 -39,15 -57,62 -40,105 35,89 91,206 201,307 11,-136 -26,-273 -61,-361zm437 197c-25,-39 -74,-53 -109,-31 -35,22 -43,72 -18,111 51,80 128,184 256,263 -15,-136 -79,-263 -129,-343zm422 140c-26,-38 -75,-50 -109,-26 -34,24 -41,74 -14,112 54,77 136,178 266,251 -20,-135 -89,-259 -143,-337zm-515 -677c-25,-39 -74,-52 -109,-29 -34,23 -41,73 -16,112 52,78 132,181 261,257 -18,-135 -84,-261 -136,-340zm446 166c-28,-38 -77,-48 -110,-23 -33,25 -38,75 -10,112 56,76 141,175 273,243 -24,-134 -97,-256 -153,-332zm478 181c-31,-34 -82,-39 -112,-10 -30,28 -29,78 3,112 65,69 160,157 300,210 -40,-130 -126,-243 -191,-312zm-690 -763c-27,-38 -76,-49 -110,-26 -34,24 -39,75 -13,112 55,78 138,178 269,249 -22,-134 -92,-258 -146,-335zm545 198c-33,-32 -83,-35 -112,-5 -29,30 -26,80 8,112 67,66 167,150 309,197 -46,-128 -137,-238 -205,-304zm500 117c-36,-30 -87,-28 -113,4 -26,32 -19,82 17,112 73,60 179,135 324,170 -56,-124 -156,-226 -228,-286zm-453 -513c-40,-23 -90,-13 -111,23 -21,36 -5,84 35,107 82,48 198,105 348,116 -76,-114 -191,-198 -272,-246z" style="fill:#222617"/>
 </g><g id="Nose-Hedgehog0">
 <animateTransform additive="sum" attributeName="transform" dur="10" repeatCount="indefinite" type="translate" values="0;0 200;0;0 200;0;0 200;0;0 200;0"/>
  <metadata id="CorelCorpID_112Corel-Layer"/>
  <path class="Nose-Hedgehog0fil186 Nose-Hedgehog0str0" d="M13682 16404c-251,0 -601,120 -574,299 3,16 8,34 14,52 59,162 274,374 560,374 319,0 549,-262 573,-426 27,-179 -322,-299 -573,-299z" style="fill:#58a43b"/>
 </g><g id="AccessoryTeddy">
  <metadata id="CorelCorpID_6Corel-Layer"/>
  <g>
   <path class="AccessoryTeddyfil109 AccessoryTeddystr1" d="M7342 24083c-376,367 -734,92 -1120,-302 -385,-395 -508,-899 -275,-1126 233,-228 734,-93 1119,302 385,394 651,759 276,1126z" style="fill:#52b448"/>
   <path class="AccessoryTeddyfil110 AccessoryTeddystr1" d="M3383 24083c376,367 734,92 1119,-302 386,-395 636,-998 402,-1225 -233,-228 -860,6 -1245,401 -386,394 -652,759 -276,1126z" style="fill:#60bfb8"/>
   <path class="AccessoryTeddyfil111" d="M5474 22410c640,0 1105,587 1322,1161 112,294 175,1129 -17,1563 -161,363 -464,317 -1305,317 -880,0 -1336,51 -1486,-333 -165,-422 -4,-1305 110,-1600 225,-583 735,-1108 1376,-1108z" style="fill:#5fed58"/>
   <path class="AccessoryTeddyfil3" d="M6432 22924c9,-17 270,267 434,621 76,162 114,514 110,860 -3,276 -40,557 -129,759 -163,369 -434,367 -1121,363 -56,0 -117,-1 -252,-1 -140,0 -209,1 -275,1 -735,5 -1129,8 -1281,-382 -73,-189 -86,-458 -68,-730 26,-369 103,-750 178,-924 183,-426 425,-605 441,-589 17,17 -179,238 -301,643 -52,170 -144,525 -168,880 -18,253 -7,500 58,666 115,294 473,291 1141,287 107,-1 221,-2 275,-2 44,0 152,1 252,2 617,3 860,5 984,-275 81,-182 114,-441 117,-699 4,-328 -39,-648 -101,-807 -118,-305 -304,-656 -294,-673z" style="fill:#76ce92"/>
   <path class="AccessoryTeddyfil112" d="M5441 22923c422,0 729,302 872,681 358,949 -178,1322 -872,1322 -694,0 -1329,-264 -906,-1357 149,-384 484,-646 906,-646z" style="fill:#56c499"/>
   <path class="AccessoryTeddyfil113 AccessoryTeddystr1" d="M4534 21091c-308,0 -557,-222 -557,-496 0,-274 272,-592 580,-592 308,0 535,318 535,592 0,274 -250,496 -558,496z" style="fill:#57e205"/>
   <path class="AccessoryTeddyfil19" d="M4573 20888c-153,0 -277,-111 -277,-247 0,-136 124,-246 277,-246 153,0 277,110 277,246 0,136 -124,247 -277,247z" style="fill:#a192d4"/>
   <path class="AccessoryTeddyfil113 AccessoryTeddystr1" d="M6909 21352c-308,0 -557,-222 -557,-496 0,-274 269,-582 577,-582 308,0 538,308 538,582 0,274 -250,496 -558,496z" style="fill:#2d2f5e"/>
   <path class="AccessoryTeddyfil19" d="M6845 21167c-158,0 -286,-114 -286,-254 0,-140 128,-253 286,-253 157,0 285,113 285,253 0,140 -128,254 -285,254z" style="fill:#884108"/>
   <path class="AccessoryTeddyfil114 AccessoryTeddystr1" d="M5493 20331c787,13 1234,692 1367,1304 132,611 -412,1168 -1605,1043 -1192,-126 -1303,-654 -1157,-1101 145,-446 609,-1260 1395,-1246z" style="fill:#055dc3"/>
   <path class="AccessoryTeddyfil115" d="M5439 21393c431,45 822,371 786,717 -36,347 -738,429 -971,403 -234,-26 -812,-239 -776,-586 37,-347 530,-579 961,-534z" style="fill:#dea4c4"/>
   <path class="AccessoryTeddyfil116 AccessoryTeddystr1" d="M3763 24181c419,-194 673,49 808,408 135,359 70,749 -211,880 -281,130 -610,-82 -808,-408 -197,-326 -207,-686 211,-880z" style="fill:#54f6b7"/>
   <path class="AccessoryTeddyfil117" d="M3693 24534c42,-20 64,21 89,74 24,53 42,98 0,118 -42,19 -96,-8 -120,-61 -25,-53 -11,-112 31,-131zm316 152c119,-55 176,-94 246,56 69,151 53,307 -66,362 -119,55 -272,-22 -342,-172 -69,-151 43,-191 162,-246zm68 -337c42,-20 77,19 102,72 24,53 28,100 -13,119 -42,20 -96,-7 -121,-60 -24,-53 -10,-112 32,-131zm-236 27c46,-21 84,16 112,74 27,59 33,118 -14,139 -46,22 -106,-8 -133,-67 -28,-59 -12,-124 35,-146z" style="fill:#6b0b47"/>
   <path class="AccessoryTeddyfil118 AccessoryTeddystr1" d="M6934 24204c363,182 359,535 184,885 -176,351 -543,522 -820,383 -277,-138 -313,-489 -184,-885 130,-397 457,-565 820,-383z" style="fill:#713830"/>
   <path class="AccessoryTeddyfil119" d="M7009 24559c-41,-22 -66,16 -95,67 -28,51 -49,95 -9,118 40,22 96,-1 125,-52 28,-50 19,-110 -21,-133zm-328 127c-114,-64 -167,-107 -249,38 -81,144 -76,301 38,366 114,64 273,-1 354,-146 81,-144 -28,-193 -143,-258zm-40 -341c-41,-23 -79,13 -108,64 -28,51 -36,98 4,120 40,23 96,0 125,-51 28,-51 19,-111 -21,-133zm233 46c-45,-25 -86,9 -118,65 -31,57 -42,114 3,140 45,25 106,-1 138,-57 32,-57 21,-123 -23,-148z" style="fill:#25fcb8"/>
   <path class="AccessoryTeddyfil120" d="M5033 20819c97,34 143,162 102,285 -40,124 -151,196 -248,162 -97,-34 -143,-162 -103,-286 40,-123 152,-196 249,-161z" style="fill:#a84780"/>
   <path class="AccessoryTeddyfil121" d="M5895 20863c103,-9 195,89 205,218 9,128 -67,240 -170,248 -104,9 -195,-88 -205,-217 -10,-129 66,-240 170,-249z" style="fill:#24b18e"/>
   <ellipse class="AccessoryTeddyfil15" rx="135" ry="181" transform="matrix(0.829594 -0.069368 0.0580151 0.767535 5912.39 21095.8)"/>
   <ellipse class="AccessoryTeddyfil15" rx="135" ry="181" transform="matrix(0.786889 0.277973 -0.240129 0.736754 4959.74 21042.4)"/>
   <path class="AccessoryTeddyfil14" d="M5960 20949c18,-10 42,-1 53,20 11,22 6,48 -12,58 -18,11 -34,-2 -45,-24 -12,-21 -14,-43 4,-54z" style="fill:#47299f"/>
   <path class="AccessoryTeddyfil14" d="M5059 20926c21,-2 39,16 41,41 3,24 -12,46 -33,48 -21,3 -27,-16 -29,-41 -2,-25 1,-46 21,-48z" style="fill:#4927b4"/>
   <path class="AccessoryTeddyfil15" d="M5329 21486c408,22 178,349 -19,330 -197,-19 -388,-353 19,-330z" style="fill:#acfab1"/>
   <path class="AccessoryTeddyfil2 AccessoryTeddystr8" d="M4818 21716c-84,107 -82,346 90,433 173,88 282,-23 385,-209 84,253 255,330 428,286 173,-44 301,-229 176,-443" style="fill:#483e03"/>
   <line class="AccessoryTeddyfil2 AccessoryTeddystr8" x1="5333" x2="5293" y1="21651" y2="21940"/>
  </g>
 </g></svg>