<svg xmlns="http://www.w3.org/2000/svg" xmlns:xlink="http://www.w3.org/1999/xlink" style="shape-rendering:geometricPrecision; text-rendering:geometricPrecision; image-rendering:optimizeQuality; fill-rule:evenodd; clip-rule:evenodd" version="1.1" viewBox="0 0 29000 29000" xml:space="preserve"><defs><style type="text/css">.NecklacePofil231new {fill:url(#NecklacePoid614new)}
.NecklacePofil232new {fill:#FF6633;fill-opacity:0.200000}
.NecklacePofil83new {fill:white}
.NecklacePofil233new {fill:url(#NecklacePoid644new)}
.NecklacePofil234new {fill:url(#NecklacePoid646new)}
.NecklacePofil235new {fill:url(#NecklacePoid639new)}
.NecklacePofil236new {fill:url(#NecklacePoid643new)}
.NecklacePofil237new {fill:url(#NecklacePoid647new)}
.NecklacePofil238new {fill:url(#NecklacePoid656new)}
.NecklacePofil239new {fill:url(#NecklacePoid642new)}
.NecklacePofil240new {fill:url(#NecklacePoid645new)}
.NecklacePofil241new {fill:url(#NecklacePoid660new)}
.NecklacePofil242new {fill:url(#NecklacePoid641new)}
.NecklacePofil243new {fill:url(#NecklacePoid649new)}
.NecklacePofil244new {fill:url(#NecklacePoid655new)}
.NecklacePofil246new {fill:#643200;fill-opacity:0.200000}
.NecklacePofil247new {fill:#966432;fill-opacity:0.501961}
.NecklacePofil31new {fill:white;fill-opacity:0.501961}
.NecklacePofil248new {fill:#ebebd8;fill-opacity:0.501961}
.NecklacePofil84new {fill:black}
.NecklacePofil33new {fill:none}
.NecklacePostr4new {stroke:black;stroke-width:100}
.NecklacePofil245new {fill:url(#NecklacePoid654new)}
.NecklacePostr3new {stroke:black;stroke-width:100;stroke-linecap:round;stroke-linejoin:round}
.AccessoryWaterHydrantfil32 {fill:#FF9E9E;fill-opacity:0.501961}
.AccessoryWaterHydrantfil35 {fill:black;fill-opacity:0.400000}
.AccessoryWaterHydrantfil25 {fill:url(#AccessoryWaterHydrantid35)}
.AccessoryWaterHydrantstr2 {stroke:black;stroke-width:150;stroke-linecap:round}
.AccessoryWaterHydrantfil26 {fill:url(#AccessoryWaterHydrantid50)}
.AccessoryWaterHydrantfil27 {fill:url(#AccessoryWaterHydrantid32)}
.AccessoryWaterHydrantfil28 {fill:url(#AccessoryWaterHydrantid74)}
.AccessoryWaterHydrantfil29 {fill:url(#AccessoryWaterHydrantid66)}
.AccessoryWaterHydrantfil30 {fill:url(#AccessoryWaterHydrantid34)}
.AccessoryWaterHydrantfil31 {fill:url(#AccessoryWaterHydrantid70)}
.AccessoryWaterHydrantstr3 {stroke:black;stroke-width:150;stroke-linecap:round;stroke-linejoin:round}
.AccessoryWaterHydrantfil2 {fill:none}
.AccessoryWaterHydrantstr4 {stroke:black;stroke-width:150}
.AccessoryWaterHydrantfil33 {fill:url(#AccessoryWaterHydrantid38)}
.AccessoryWaterHydrantfil34 {fill:url(#AccessoryWaterHydrantid57)}
.AccessoryWaterHydrantfil36 {fill:url(#AccessoryWaterHydrantid60)}
.AccessoryWaterHydrantfil37 {fill:url(#AccessoryWaterHydrantid54)}
.AccessoryWaterHydrantfil38 {fill:url(#AccessoryWaterHydrantid58)}
.AccessoryWaterHydrantfil39 {fill:none}
.AccessoryWaterHydrantstr5 {stroke:black;stroke-width:150;stroke-opacity:0.400000}
.AccessoryWaterHydrantfil40 {fill:url(#AccessoryWaterHydrantid68)}
.AccessoryWaterHydrantstr1 {stroke:black;stroke-width:150}
.AccessoryWaterHydrantstr6 {stroke:black;stroke-width:400;stroke-linecap:round;stroke-linejoin:round;stroke-opacity:0.400000}
.HairBack-Hedgehog0fil2 {fill:black;fill-opacity:0.301961}
.HairBack-Hedgehog0fil0 {fill:url(#HairBack-Hedgehog0id162)}
.HairBack-Hedgehog0str0 {stroke:black;stroke-width:150;stroke-linecap:round;stroke-linejoin:round}
.HairBack-Hedgehog0fil1 {fill:url(#HairBack-Hedgehog0id161)}
.Tail-Hedgehog0fil2 {fill:black;fill-opacity:0.301961}
.Tail-Hedgehog0fil29 {fill:url(#Tail-Hedgehog0id156)}
.Tail-Hedgehog0str0 {stroke:black;stroke-width:150;stroke-linecap:round;stroke-linejoin:round}
.RightFoot-Hedgehog0fil43 {fill:black}
.RightFoot-Hedgehog0fil11 {fill:black;fill-opacity:0.200000}
.RightFoot-Hedgehog0fil42 {fill:#ffffff}
.RightFoot-Hedgehog0str0 {stroke:black;stroke-width:150;stroke-linecap:round;stroke-linejoin:round}
.RightLeg-Hedgehog0fil48 {fill:url(#RightLeg-Hedgehog0id47)}
.RightLeg-Hedgehog0fil10 {fill:black;fill-rule:nonzero}
.RightLeg-Hedgehog0fil11 {fill:black;fill-opacity:0.200000}
.LeftFoot-Hedgehog0fil11 {fill:black;fill-opacity:0.200000}
.LeftFoot-Hedgehog0fil43 {fill:black}
.LeftFoot-Hedgehog0fil42 {fill:#ffffff}
.LeftFoot-Hedgehog0str0 {stroke:black;stroke-width:150;stroke-linecap:round;stroke-linejoin:round}
.LeftLeg-Hedgehog0fil53 {fill:url(#LeftLeg-Hedgehog0id5)}
.LeftLeg-Hedgehog0fil10 {fill:black;fill-rule:nonzero}
.LeftLeg-Hedgehog0fil11 {fill:black;fill-opacity:0.200000}
.RightHand-Hedgehog0fil11 {fill:black;fill-opacity:0.200000}
.RightHand-Hedgehog0fil56 {fill:url(#RightHand-Hedgehog0id68)}
.RightHand-Hedgehog0str0 {stroke:black;stroke-width:150;stroke-linecap:round;stroke-linejoin:round}
.RightPaw-Hedgehog0fil61 {fill:#f6eddf}
.RightPaw-Hedgehog0fil43 {fill:black}
.RightPaw-Hedgehog0fil11 {fill:black;fill-opacity:0.200000}
.RightPaw-Hedgehog0fil4 {fill:none}
.RightPaw-Hedgehog0str0 {stroke:black;stroke-width:150;stroke-linecap:round;stroke-linejoin:round}
.LeftHand-Hedgehog0fil11 {fill:black;fill-opacity:0.200000}
.LeftHand-Hedgehog0fil64 {fill:url(#LeftHand-Hedgehog0id78)}
.LeftHand-Hedgehog0str0 {stroke:black;stroke-width:150;stroke-linecap:round;stroke-linejoin:round}
.Body-Hedgehog4fil67 {fill:url(#Body-Hedgehog4id9)}
.Body-Hedgehog4fil11 {fill:black;fill-opacity:0.200000}
.Body-Hedgehog4fil71 {fill:url(#Body-Hedgehog4id48)}
.Body-Hedgehog4fil10 {fill:black;fill-rule:nonzero}
.LeftPaw-Hedgehog0fil72 {fill:#f6eddf}
.LeftPaw-Hedgehog0fil11 {fill:black;fill-opacity:0.200000}
.LeftPaw-Hedgehog0fil43 {fill:black}
.LeftPaw-Hedgehog0fil4 {fill:none}
.LeftPaw-Hedgehog0str0 {stroke:black;stroke-width:150;stroke-linecap:round;stroke-linejoin:round}
.Head-Hedgehog5fil111 {fill:url(#Head-Hedgehog5id4)}
.Head-Hedgehog5fil11 {fill:black;fill-opacity:0.200000}
.Head-Hedgehog5fil10 {fill:black;fill-rule:nonzero}
.Head-Hedgehog5fil116 {fill:url(#Head-Hedgehog5id39)}
.Mouth-Hedgehog7fil43 {fill:black}
.Mouth-Hedgehog7fil4 {fill:none}
.Mouth-Hedgehog7str0 {stroke:black;stroke-width:150;stroke-linecap:round;stroke-linejoin:round}
.Mouth-Hedgehog7fil122 {fill:url(#Mouth-Hedgehog7id159)}
.Eyes-Hedgehog7fil157 {fill:url(#Eyes-Hedgehog7id93)}
.Eyes-Hedgehog7fil162 {fill:url(#Eyes-Hedgehog7id172)}
.Eyes-Hedgehog7fil163 {fill:url(#Eyes-Hedgehog7id129)}
.Eyes-Hedgehog7fil128 {fill:black;fill-opacity:0.501961}
.Eyes-Hedgehog7fil124 {fill:#a29685}
.Eyes-Hedgehog7fil11 {fill:black;fill-opacity:0.200000}
.Eyes-Hedgehog7fil121 {fill:white}
.Eyes-Hedgehog7fil144 {fill:url(#Eyes-Hedgehog7id51)}
.Eyes-Hedgehog7fil164 {fill:url(#Eyes-Hedgehog7id171)}
.Eyes-Hedgehog7fil165 {fill:url(#Eyes-Hedgehog7id138)}
.Eyes-Hedgehog7fil4 {fill:none}
.Eyes-Hedgehog7str1 {stroke:black;stroke-width:150}
.Moustache-Hedgehog0fil4 {fill:none}
.Nose-Hedgehog0fil186 {fill:url(#Nose-Hedgehog0id133)}
.Nose-Hedgehog0str0 {stroke:black;stroke-width:150;stroke-linecap:round;stroke-linejoin:round}
.BraceletSteel-Smallfil10 {fill:url(#BraceletSteel-Smallid311);fill-rule:nonzero}
.BraceletSteel-Smallstr1 {stroke:black;stroke-width:100}
.BraceletSteel-Smallfil11 {fill:url(#BraceletSteel-Smallid310);fill-rule:nonzero}
.HatMerlinBack-Smallfil24 {fill:black;fill-opacity:0.200000}
.HatMerlinBack-Smallfil315 {fill:url(#HatMerlinBack-Smallid88)}
.HatMerlinBack-Smallstr24 {stroke:#2B2A29;stroke-width:150}
.HatMerlin-Smallfil13 {fill:black;fill-opacity:0.400000}
.HatMerlin-Smallfil317 {fill:#7EA6F7}
.HatMerlin-Smallfil318 {fill:#C4D8FF}
.HatMerlin-Smallfil319 {fill:#789EEB}
.HatMerlin-Smallfil320 {fill:#4F7CD6}
.HatMerlin-Smallfil321 {fill:#76A2FA}
.HatMerlin-Smallfil322 {fill:#5483E3}
.HatMerlin-Smallfil24 {fill:black;fill-opacity:0.200000}
.HatMerlin-Smallfil33 {fill:black;fill-rule:nonzero}
.HatMerlin-Smallfil325 {fill:#8FB4FC}
.HatMerlin-Smallfil326 {fill:#B0CAFF}
.HatMerlin-Smallfil316 {fill:url(#HatMerlin-Smallid220)}
.HatMerlin-Smallstr2 {stroke:black;stroke-width:150;stroke-linecap:round;stroke-linejoin:round}
.HatMerlin-Smallfil323 {fill:url(#HatMerlin-Smallid123)}
.HatMerlin-Smallfil324 {fill:url(#HatMerlin-Smallid285);fill-rule:nonzero}
.WeaponIcicleBack-Smallfil81 {fill:#A6EDFF;fill-opacity:0.149020}
.WeaponIcicleBack-Smallfil82 {fill:#B7EEFF;fill-opacity:0.149020}
.WeaponIcicleBack-Smallfil83 {fill:#C8F1FF;fill-opacity:0.149020}
.WeaponIcicleBack-Smallfil84 {fill:#D9F4FF}
.WeaponIcicleBack-Smallfil85 {fill:url(#WeaponIcicleBack-Smallid111)}
.WeaponIcicleBack-Smallfil86 {fill:url(#WeaponIcicleBack-Smallid194)}
.WeaponIcicleBack-Smallfil87 {fill:#0070CC;fill-opacity:0.450980}
.WeaponIcicleBack-Smallfil88 {fill:#0050BF;fill-opacity:0.450980}
.WeaponIcicleBack-Smallfil89 {fill:url(#WeaponIcicleBack-Smallid187);fill-opacity:0.800000}
.WeaponIcicleBack-Smallfil90 {fill:url(#WeaponIcicleBack-Smallid189);fill-opacity:0.800000}
.WeaponIcicleBack-Smallfil91 {fill:#D9F4FF;fill-opacity:0.800000}
.WeaponIcicleBack-Smallfil92 {fill:#D4F6FF}
.WeaponIcicleBack-Smallfil93 {fill:#D4F6FF;fill-opacity:0.501961}
.WeaponIcicleBack-Smallfil94 {fill:#D4F6FF;fill-opacity:0.701961}
.WeaponIcicleBack-Smallfil95 {fill:#0088C2;fill-opacity:0.301961}
.WeaponIcicleBack-Smallfil96 {fill:#D9F4FF;fill-opacity:0.701961}
.WeaponIcicleBack-Smallfil97 {fill:#267BBD;fill-opacity:0.450980}
.WeaponIcicleBack-Smallfil98 {fill:#F0FDFF;fill-opacity:0.701961}
.WeaponIcicleBack-Smallfil99 {fill:#005AA3;fill-opacity:0.450980}
.WeaponIcicleBack-Smallfil80 {fill:none}
.WeaponIcicleBack-Smallstr0 {stroke:black;stroke-width:150;stroke-linecap:round;stroke-linejoin:round;stroke-miterlimit:22.9256}
.WeaponIcicleFront-Smallfil81 {fill:#A6EDFF;fill-opacity:0.149020}
.WeaponIcicleFront-Smallfil82 {fill:#B7EEFF;fill-opacity:0.149020}
.WeaponIcicleFront-Smallfil83 {fill:#C8F1FF;fill-opacity:0.149020}
.WeaponIcicleFront-Smallfil84 {fill:#D9F4FF}
.WeaponIcicleFront-Smallfil188 {fill:url(#WeaponIcicleFront-Smallid151)}
.WeaponIcicleFront-Smallfil189 {fill:url(#WeaponIcicleFront-Smallid192)}
.WeaponIcicleFront-Smallfil87 {fill:#0070CC;fill-opacity:0.450980}
.WeaponIcicleFront-Smallfil91 {fill:#D9F4FF;fill-opacity:0.800000}
.WeaponIcicleFront-Smallfil190 {fill:#D4F6FF;fill-opacity:0.568627}
.WeaponIcicleFront-Smallfil94 {fill:#D4F6FF;fill-opacity:0.701961}
.WeaponIcicleFront-Smallfil191 {fill:#D4F6FF;fill-opacity:0.850980}
.WeaponIcicleFront-Smallfil95 {fill:#0088C2;fill-opacity:0.301961}
.WeaponIcicleFront-Smallfil92 {fill:#D4F6FF}
.WeaponIcicleFront-Smallfil80 {fill:none}
.WeaponIcicleFront-Smallstr0 {stroke:black;stroke-width:150;stroke-linecap:round;stroke-linejoin:round;stroke-miterlimit:22.9256}
</style><radialGradient cx="13664.7" cy="19961.1" fx="13664.7" fy="19961.1" gradientTransform="matrix(0.990098 -0 -0 1.30002 135 -5989)" gradientUnits="userSpaceOnUse" id="NecklacePoid614new" r="309.54">
   <stop offset="0" style="stop-opacity:1; stop-color:white"/>
   <stop offset="1" style="stop-opacity:1; stop-color:#B8B79A"/>
  </radialGradient><radialGradient cx="13089" cy="19904.3" fx="13089" fy="19904.3" gradientTransform="matrix(1.24762 0.3343 -0.376429 1.40485 4251 -12434)" gradientUnits="userSpaceOnUse" id="NecklacePoid644new" r="296.81" xlink:href="#NecklacePoid614new">
  </radialGradient><radialGradient cx="12546.8" cy="19659.5" fx="12546.8" fy="19659.5" gradientTransform="matrix(1.35144 0.780254 -0.878584 1.52175 12863 -20047)" gradientUnits="userSpaceOnUse" id="NecklacePoid646new" r="245.67" xlink:href="#NecklacePoid614new">
  </radialGradient><radialGradient cx="12096.5" cy="19268.6" fx="12096.5" fy="19268.6" gradientTransform="matrix(1.07878 1.28564 -1.44766 1.21473 26941 -19689)" gradientUnits="userSpaceOnUse" id="NecklacePoid639new" r="228.43" xlink:href="#NecklacePoid614new">
  </radialGradient><radialGradient cx="11774.8" cy="18733.4" fx="11774.8" fy="18733.4" gradientTransform="matrix(0.780254 1.35144 -1.52175 0.878584 31095 -13638)" gradientUnits="userSpaceOnUse" id="NecklacePoid643new" r="245.67" xlink:href="#NecklacePoid614new">
  </radialGradient><radialGradient cx="11655.6" cy="18154.9" fx="11655.6" fy="18154.9" gradientTransform="matrix(0.201086 1.14041 -1.28413 0.226427 32625 752)" gradientUnits="userSpaceOnUse" id="NecklacePoid647new" r="331.06" xlink:href="#NecklacePoid614new">
  </radialGradient><radialGradient cx="11721.5" cy="17578.6" fx="11721.5" fy="17578.6" gradientTransform="matrix(-0.201086 1.14041 -1.28413 -0.226427 36652 8192)" gradientUnits="userSpaceOnUse" id="NecklacePoid656new" r="331.06" xlink:href="#NecklacePoid614new">
  </radialGradient><radialGradient cx="14240.5" cy="19904.3" fx="14240.5" fy="19904.3" gradientTransform="matrix(-1.24762 0.3343 0.376429 1.40485 24515 -12819)" gradientUnits="userSpaceOnUse" id="NecklacePoid642new" r="296.81" xlink:href="#NecklacePoid614new">
  </radialGradient><radialGradient cx="14782.6" cy="19659.5" fx="14782.6" fy="19659.5" gradientTransform="matrix(-1.35144 0.780254 0.878584 1.52175 17488 -21792)" gradientUnits="userSpaceOnUse" id="NecklacePoid645new" r="245.67" xlink:href="#NecklacePoid614new">
  </radialGradient><radialGradient cx="15233" cy="19268.6" fx="15233" fy="19268.6" gradientTransform="matrix(-1.07878 1.28564 1.44766 1.21473 3772 -23722)" gradientUnits="userSpaceOnUse" id="NecklacePoid660new" r="228.43" xlink:href="#NecklacePoid614new">
  </radialGradient><radialGradient cx="15554.7" cy="18733.4" fx="15554.7" fy="18733.4" gradientTransform="matrix(-0.780254 1.35144 1.52175 0.878584 -816 -18747)" gradientUnits="userSpaceOnUse" id="NecklacePoid641new" r="245.67" xlink:href="#NecklacePoid614new">
  </radialGradient><radialGradient cx="15673.8" cy="18154.9" fx="15673.8" fy="18154.9" gradientTransform="matrix(-0.201086 1.14041 1.28413 0.226427 -4488 -3831)" gradientUnits="userSpaceOnUse" id="NecklacePoid649new" r="331.06" xlink:href="#NecklacePoid614new">
  </radialGradient><radialGradient cx="15608" cy="17578.6" fx="15608" fy="17578.6" gradientTransform="matrix(0.201086 1.14041 1.28413 -0.226427 -10104 3759)" gradientUnits="userSpaceOnUse" id="NecklacePoid655new" r="331.06" xlink:href="#NecklacePoid614new">
  </radialGradient><radialGradient cx="13854.7" cy="20982.5" fx="13854.7" fy="20982.5" gradientTransform="matrix(1.2 -0 -0 1.06122 -2771 -1285)" gradientUnits="userSpaceOnUse" id="NecklacePoid654new" r="949.94" xlink:href="#NecklacePoid614new">
  </radialGradient><linearGradient gradientUnits="userSpaceOnUse" id="AccessoryWaterHydrantid35" x1="1412.61" x2="1346.62" y1="21900.7" y2="21420.5">
   <stop offset="0" style="stop-opacity:1; stop-color:#C79191"/>
   <stop offset="0.490196" style="stop-opacity:1; stop-color:#8C7777"/>
   <stop offset="1" style="stop-opacity:1; stop-color:#EDCFCE"/>
  </linearGradient><linearGradient gradientUnits="userSpaceOnUse" id="AccessoryWaterHydrantid50" x1="1822.86" x2="1822.86" xlink:href="#AccessoryWaterHydrantid32" y1="22158.9" y2="21162.2">
  </linearGradient><linearGradient gradientUnits="userSpaceOnUse" id="AccessoryWaterHydrantid74" x1="5820.44" x2="5754.45" xlink:href="#AccessoryWaterHydrantid35" y1="21900.7" y2="21420.5">
  </linearGradient><linearGradient gradientUnits="userSpaceOnUse" id="AccessoryWaterHydrantid66" x1="5344.2" x2="5344.2" xlink:href="#AccessoryWaterHydrantid32" y1="22158.9" y2="21162.2">
  </linearGradient><linearGradient gradientUnits="userSpaceOnUse" id="AccessoryWaterHydrantid34" x1="5014.59" x2="5014.59" xlink:href="#AccessoryWaterHydrantid32" y1="22521" y2="20800.2">
  </linearGradient><linearGradient gradientUnits="userSpaceOnUse" id="AccessoryWaterHydrantid70" x1="1577.12" x2="5765.73" xlink:href="#AccessoryWaterHydrantid57" y1="25128.7" y2="25128.7">
  </linearGradient><linearGradient gradientUnits="userSpaceOnUse" id="AccessoryWaterHydrantid38" x1="3236.42" x2="4106.43" y1="17865.7" y2="17865.7">
   <stop offset="0" style="stop-opacity:1; stop-color:#DF302F"/>
   <stop offset="0.278431" style="stop-opacity:1; stop-color:#860203"/>
   <stop offset="0.560784" style="stop-opacity:1; stop-color:#A61514"/>
   <stop offset="0.780392" style="stop-opacity:1; stop-color:#FF8C96"/>
   <stop offset="1" style="stop-opacity:1; stop-color:#D9342E"/>
  </linearGradient><linearGradient gradientUnits="userSpaceOnUse" id="AccessoryWaterHydrantid60" x1="1709.43" x2="5633.42" xlink:href="#AccessoryWaterHydrantid57" y1="19824.4" y2="19824.4">
  </linearGradient><linearGradient gradientUnits="userSpaceOnUse" id="AccessoryWaterHydrantid54" x1="2866.92" x2="4475.93" xlink:href="#AccessoryWaterHydrantid32" y1="22066.7" y2="21218.5">
  </linearGradient><linearGradient gradientUnits="userSpaceOnUse" id="AccessoryWaterHydrantid58" x1="3278.19" x2="4064.66" xlink:href="#AccessoryWaterHydrantid32" y1="21849.9" y2="21435.3">
  </linearGradient><linearGradient gradientUnits="userSpaceOnUse" id="AccessoryWaterHydrantid68" x1="3485.88" x2="3856.97" y1="21740.4" y2="21544.8">
   <stop offset="0" style="stop-opacity:1; stop-color:#C79191"/>
   <stop offset="0.670588" style="stop-opacity:1; stop-color:#8C7777"/>
   <stop offset="1" style="stop-opacity:1; stop-color:#EDCFCE"/>
  </linearGradient><linearGradient gradientUnits="userSpaceOnUse" id="HairBack-Hedgehog0id162" x1="8824.32" x2="8824.32" xlink:href="#HairBack-Hedgehog0id6" y1="20216.8" y2="11906.6">
  </linearGradient><linearGradient gradientUnits="userSpaceOnUse" id="HairBack-Hedgehog0id161" x1="18539.6" x2="18539.6" xlink:href="#HairBack-Hedgehog0id6" y1="20216.8" y2="11906.6">
  </linearGradient><linearGradient gradientUnits="userSpaceOnUse" id="Tail-Hedgehog0id156" x1="13681.9" x2="13681.9" xlink:href="#Tail-Hedgehog0id6" y1="18011.3" y2="24488.9">
  </linearGradient><linearGradient gradientUnits="objectBoundingBox" id="RightLeg-Hedgehog0id47" x1="50%" x2="50%" xlink:href="#RightLeg-Hedgehog0id5" y1="100%" y2="0.000329714%">
  </linearGradient><linearGradient gradientUnits="objectBoundingBox" id="LeftLeg-Hedgehog0id5" x1="50%" x2="50%" y1="100%" y2="0.000329714%">
   <stop offset="0" style="stop-opacity:1; stop-color:#ffffff"/>
   <stop offset="0.211765" style="stop-opacity:1; stop-color:#ffffff"/>
   <stop offset="1" style="stop-opacity:1; stop-color:#f6eddf"/>
  </linearGradient><linearGradient gradientUnits="objectBoundingBox" id="RightHand-Hedgehog0id68" x1="30.2084%" x2="69.7916%" y1="5.01922%" y2="94.9804%">
   <stop offset="0" style="stop-opacity:1; stop-color:#cfc3b2"/>
   <stop offset="0.141176" style="stop-opacity:1; stop-color:#cfc3b2"/>
   <stop offset="0.709804" style="stop-opacity:1; stop-color:#f6eddf"/>
   <stop offset="1" style="stop-opacity:1; stop-color:#f6eddf"/>
  </linearGradient><linearGradient gradientUnits="objectBoundingBox" id="LeftHand-Hedgehog0id78" x1="69.7916%" x2="30.2084%" xlink:href="#LeftHand-Hedgehog0id68" y1="5.01922%" y2="94.9804%">
  </linearGradient><linearGradient gradientUnits="objectBoundingBox" id="Body-Hedgehog4id9" x1="50%" x2="50%" y1="0%" y2="100%">
   <stop offset="0" style="stop-opacity:1; stop-color:#cfc3b2"/>
   <stop offset="0.101961" style="stop-opacity:1; stop-color:#cfc3b2"/>
   <stop offset="0.34902" style="stop-opacity:1; stop-color:#f6eddf"/>
   <stop offset="1" style="stop-opacity:1; stop-color:#ffffff"/>
  </linearGradient><linearGradient gradientUnits="userSpaceOnUse" id="Body-Hedgehog4id48" x1="13681.9" x2="13681.9" xlink:href="#Body-Hedgehog4id12" y1="23357" y2="19763.9">
  </linearGradient><linearGradient gradientUnits="objectBoundingBox" id="Head-Hedgehog5id4" x1="50%" x2="50%" y1="99.9999%" y2="0%">
   <stop offset="0" style="stop-opacity:1; stop-color:#cfc3b2"/>
   <stop offset="0.25098" style="stop-opacity:1; stop-color:#f6eddf"/>
   <stop offset="0.760784" style="stop-opacity:1; stop-color:#ffffff"/>
   <stop offset="1" style="stop-opacity:1; stop-color:#ffffff"/>
  </linearGradient><linearGradient gradientUnits="userSpaceOnUse" id="Head-Hedgehog5id39" x1="13681.9" x2="13681.9" y1="13066.6" y2="18770.3">
   <stop offset="0" style="stop-opacity:1; stop-color:#f8f8f1"/>
   <stop offset="0.658824" style="stop-opacity:1; stop-color:#f8f8f1"/>
   <stop offset="1" style="stop-opacity:1; stop-color:#ebebd8"/>
  </linearGradient><linearGradient gradientUnits="userSpaceOnUse" id="Mouth-Hedgehog7id159" x1="14345.9" x2="14284.2" xlink:href="#Mouth-Hedgehog7id1" y1="18230.4" y2="17471">
  </linearGradient><linearGradient gradientUnits="objectBoundingBox" id="Eyes-Hedgehog7id93" x1="49.9999%" x2="49.9999%" xlink:href="#Eyes-Hedgehog7id0" y1="100%" y2="0.000292328%">
  </linearGradient><radialGradient cx="10673.9" cy="15476.4" fx="10673.9" fy="15476.4" gradientTransform="matrix(1 -0 -0 0.871844 0 1983)" gradientUnits="userSpaceOnUse" id="Eyes-Hedgehog7id172" r="1648.07" xlink:href="#Eyes-Hedgehog7id171">
  </radialGradient><linearGradient gradientUnits="userSpaceOnUse" id="Eyes-Hedgehog7id129" x1="10905.9" x2="10905.9" xlink:href="#Eyes-Hedgehog7id75" y1="13365.9" y2="15887.9">
  </linearGradient><linearGradient gradientUnits="objectBoundingBox" id="Eyes-Hedgehog7id51" x1="50.0002%" x2="50.0002%" xlink:href="#Eyes-Hedgehog7id0" y1="100%" y2="0%">
  </linearGradient><linearGradient gradientUnits="userSpaceOnUse" id="Eyes-Hedgehog7id138" x1="16458" x2="16458" xlink:href="#Eyes-Hedgehog7id75" y1="13365.9" y2="15887.9">
  </linearGradient><linearGradient gradientUnits="userSpaceOnUse" id="Nose-Hedgehog0id133" x1="13681.9" x2="13681.9" y1="16404" y2="17128.6">
   <stop offset="0" style="stop-opacity:1; stop-color:#FFCCCC"/>
   <stop offset="1" style="stop-opacity:1; stop-color:#B37173"/>
  </linearGradient><linearGradient gradientUnits="userSpaceOnUse" id="BraceletSteel-Smallid311" x1="9277.62" x2="10345.2" xlink:href="#BraceletSteel-Smallid310" y1="20629.7" y2="21505.2">
  </linearGradient><linearGradient gradientUnits="userSpaceOnUse" id="HatMerlinBack-Smallid88" x1="13726.5" x2="13726.5" y1="17298.2" y2="12518.9">
   <stop offset="0" style="stop-opacity:1; stop-color:#3E3D9D"/>
   <stop offset="1" style="stop-opacity:1; stop-color:#1B196E"/>
  </linearGradient><linearGradient gradientUnits="userSpaceOnUse" id="HatMerlin-Smallid220" x1="13305.9" x2="15360.8" y1="5488.05" y2="12759.6">
   <stop offset="0" style="stop-opacity:1; stop-color:#9CA1FF"/>
   <stop offset="0.431373" style="stop-opacity:1; stop-color:#6F6DDB"/>
   <stop offset="1" style="stop-opacity:1; stop-color:#1A1A80"/>
  </linearGradient><linearGradient gradientUnits="userSpaceOnUse" id="HatMerlin-Smallid123" x1="11773.2" x2="15512.2" y1="9094.18" y2="14130.4">
   <stop offset="0" style="stop-opacity:1; stop-color:#D9B6FC"/>
   <stop offset="1" style="stop-opacity:1; stop-color:#8943CF"/>
  </linearGradient><linearGradient gradientUnits="userSpaceOnUse" id="HatMerlin-Smallid285" x1="14491.9" x2="12968" y1="16734.1" y2="10553.9">
   <stop offset="0" style="stop-opacity:1; stop-color:#22209E"/>
   <stop offset="1" style="stop-opacity:1; stop-color:#909AF5"/>
  </linearGradient><linearGradient gradientUnits="userSpaceOnUse" id="WeaponIcicleBack-Smallid111" x1="6389.12" x2="13211.93" y1="22242.95" y2="22229.92">
   <stop offset="0" style="stop-opacity:1; stop-color:#3FB5FA"/>
   <stop offset="1" style="stop-opacity:1; stop-color:white"/>
  </linearGradient><linearGradient gradientUnits="userSpaceOnUse" id="WeaponIcicleBack-Smallid194" x1="6385.25" x2="13161.93" xlink:href="#WeaponIcicleBack-Smallid191" y1="22242.17" y2="22229.22">
  </linearGradient><linearGradient gradientUnits="userSpaceOnUse" id="WeaponIcicleBack-Smallid187" x1="7057.07" x2="7650.36" xlink:href="#WeaponIcicleBack-Smallid186" y1="21173.69" y2="21172.56">
  </linearGradient><linearGradient gradientUnits="userSpaceOnUse" id="WeaponIcicleBack-Smallid189" x1="9241.23" x2="9698" xlink:href="#WeaponIcicleBack-Smallid186" y1="22220.72" y2="22469.22">
  </linearGradient><linearGradient gradientUnits="userSpaceOnUse" id="WeaponIcicleFront-Smallid151" x1="6393.33" x2="13211.94" xlink:href="#WeaponIcicleFront-Smallid111" y1="22242.94" y2="22229.93">
  </linearGradient><linearGradient gradientUnits="userSpaceOnUse" id="WeaponIcicleFront-Smallid192" x1="6385.25" x2="13161.93" xlink:href="#WeaponIcicleFront-Smallid191" y1="22242.17" y2="22229.22">
  </linearGradient><linearGradient gradientUnits="userSpaceOnUse" id="AccessoryWaterHydrantid32" x1="2152.47" x2="2152.47" y1="22521" y2="20800.2">
   <stop offset="0" style="stop-opacity:1; stop-color:#DF302F"/>
   <stop offset="0.25098" style="stop-opacity:1; stop-color:#A61514"/>
   <stop offset="0.670588" style="stop-opacity:1; stop-color:#E34242"/>
   <stop offset="1" style="stop-opacity:1; stop-color:#D9342E"/>
  </linearGradient><linearGradient gradientUnits="userSpaceOnUse" id="AccessoryWaterHydrantid57" x1="2239.15" x2="5103.7" y1="21426.4" y2="21426.4">
   <stop offset="0" style="stop-opacity:1; stop-color:#DF302F"/>
   <stop offset="0.278431" style="stop-opacity:1; stop-color:#860203"/>
   <stop offset="0.560784" style="stop-opacity:1; stop-color:#A61514"/>
   <stop offset="0.780392" style="stop-opacity:1; stop-color:#FC606D"/>
   <stop offset="1" style="stop-opacity:1; stop-color:#D9342E"/>
  </linearGradient><linearGradient gradientUnits="userSpaceOnUse" id="HairBack-Hedgehog0id6" x1="13681.9" x2="13681.9" y1="6728.09" y2="11806.7">
   <stop offset="0" style="stop-opacity:1; stop-color:#403b30"/>
   <stop offset="1" style="stop-opacity:1; stop-color:#59554c"/>
  </linearGradient><linearGradient gradientUnits="userSpaceOnUse" id="Tail-Hedgehog0id6" x1="13681.9" x2="13681.9" y1="6728.09" y2="11806.7">
   <stop offset="0" style="stop-opacity:1; stop-color:#403b30"/>
   <stop offset="1" style="stop-opacity:1; stop-color:#59554c"/>
  </linearGradient><linearGradient gradientUnits="objectBoundingBox" id="RightLeg-Hedgehog0id5" x1="50%" x2="50%" y1="100%" y2="0.000329714%">
   <stop offset="0" style="stop-opacity:1; stop-color:#ffffff"/>
   <stop offset="0.211765" style="stop-opacity:1; stop-color:#ffffff"/>
   <stop offset="1" style="stop-opacity:1; stop-color:#f6eddf"/>
  </linearGradient><linearGradient gradientUnits="objectBoundingBox" id="LeftHand-Hedgehog0id68" x1="30.2084%" x2="69.7916%" y1="5.01922%" y2="94.9804%">
   <stop offset="0" style="stop-opacity:1; stop-color:#cfc3b2"/>
   <stop offset="0.141176" style="stop-opacity:1; stop-color:#cfc3b2"/>
   <stop offset="0.709804" style="stop-opacity:1; stop-color:#f6eddf"/>
   <stop offset="1" style="stop-opacity:1; stop-color:#f6eddf"/>
  </linearGradient><linearGradient gradientUnits="userSpaceOnUse" id="Body-Hedgehog4id12" x1="19935.6" x2="17128.6" y1="10601.2" y2="13024">
   <stop offset="0" style="stop-opacity:1; stop-color:#f8f8f1"/>
   <stop offset="1" style="stop-opacity:1; stop-color:#ebebd8"/>
  </linearGradient><linearGradient gradientUnits="userSpaceOnUse" id="Mouth-Hedgehog7id1" x1="13682.6" x2="13682.6" y1="18074.1" y2="17483.4">
   <stop offset="0" style="stop-opacity:1; stop-color:#FF9999"/>
   <stop offset="0.380392" style="stop-opacity:1; stop-color:#FC8F91"/>
   <stop offset="1" style="stop-opacity:1; stop-color:#C46668"/>
  </linearGradient><linearGradient gradientUnits="userSpaceOnUse" id="Eyes-Hedgehog7id0" x1="10654.3" x2="10654.3" y1="16581.4" y2="13705.6">
   <stop offset="0" style="stop-opacity:1; stop-color:#800375"/>
   <stop offset="1" style="stop-opacity:1; stop-color:black"/>
  </linearGradient><radialGradient cx="16690" cy="15476.4" fx="16690" fy="15476.4" gradientTransform="matrix(1 -0 -0 0.871844 0 1983)" gradientUnits="userSpaceOnUse" id="Eyes-Hedgehog7id171" r="1648.07">
   <stop offset="0" style="stop-opacity:1; stop-color:#ff45f0"/>
   <stop offset="1" style="stop-opacity:1; stop-color:#800375"/>
  </radialGradient><linearGradient gradientUnits="userSpaceOnUse" id="Eyes-Hedgehog7id75" x1="16987" x2="16987" y1="13705.8" y2="15976.6">
   <stop offset="0" style="stop-opacity:1; stop-color:black"/>
   <stop offset="0.4" style="stop-opacity:1; stop-color:black"/>
   <stop offset="1" style="stop-opacity:1; stop-color:#66005e"/>
  </linearGradient><linearGradient gradientUnits="userSpaceOnUse" id="BraceletSteel-Smallid310" x1="18086.3" x2="17018.7" y1="20629.7" y2="21505.2">
   <stop offset="0" style="stop-opacity:1; stop-color:#424352"/>
   <stop offset="0.109804" style="stop-opacity:1; stop-color:#848690"/>
   <stop offset="0.25098" style="stop-opacity:1; stop-color:#FFFFFC"/>
   <stop offset="0.470588" style="stop-opacity:1; stop-color:#8D8F99"/>
   <stop offset="0.780392" style="stop-opacity:1; stop-color:#16171A"/>
   <stop offset="1" style="stop-opacity:1; stop-color:#42444D"/>
  </linearGradient><linearGradient gradientUnits="userSpaceOnUse" id="WeaponIcicleBack-Smallid191" x1="5700.05" x2="12476.73" y1="21775.11" y2="21762.16">
   <stop offset="0" style="stop-opacity:1; stop-color:#2197FF"/>
   <stop offset="0.509804" style="stop-opacity:1; stop-color:#78D4FF"/>
   <stop offset="1" style="stop-opacity:1; stop-color:#80DDFF"/>
  </linearGradient><linearGradient gradientUnits="objectBoundingBox" id="WeaponIcicleBack-Smallid186" x1="0%" x2="100.128%" y1="50.1229%" y2="49.9802%">
   <stop offset="0" style="stop-opacity:1; stop-color:#BAF1FF"/>
   <stop offset="1" style="stop-opacity:1; stop-color:#A8F6FF"/>
  </linearGradient><linearGradient gradientUnits="userSpaceOnUse" id="WeaponIcicleFront-Smallid111" x1="6389.12" x2="13211.93" y1="22242.95" y2="22229.92">
   <stop offset="0" style="stop-opacity:1; stop-color:#3FB5FA"/>
   <stop offset="1" style="stop-opacity:1; stop-color:white"/>
  </linearGradient><linearGradient gradientUnits="userSpaceOnUse" id="WeaponIcicleFront-Smallid191" x1="5700.05" x2="12476.73" y1="21775.11" y2="21762.16">
   <stop offset="0" style="stop-opacity:1; stop-color:#2197FF"/>
   <stop offset="0.509804" style="stop-opacity:1; stop-color:#78D4FF"/>
   <stop offset="1" style="stop-opacity:1; stop-color:#80DDFF"/>
  </linearGradient></defs><g id="AccessoryWaterHydrant">
  <metadata id="CorelCorpID_1Corel-Layer"/>
  <g id="_3081483343424">
   <path class="AccessoryWaterHydrantfil25 AccessoryWaterHydrantstr2" d="M1534 21913c-74,-37 -235,-75 -308,-113 0,-470 0,192 0,-279 73,-38 234,-75 308,-113 0,546 0,-41 0,505z" style="fill:#864f67"/>
   <rect class="AccessoryWaterHydrantfil26 AccessoryWaterHydrantstr2" height="997" rx="179" ry="51" width="654" x="1496" y="21162"/>
   <rect class="AccessoryWaterHydrantfil27 AccessoryWaterHydrantstr2" height="1721" rx="169" ry="75" width="731" x="1787" y="20800"/>
   <path class="AccessoryWaterHydrantfil28 AccessoryWaterHydrantstr2" d="M5633 21913c74,-37 235,-75 309,-113 0,-470 0,192 0,-279 -74,-38 -235,-75 -309,-113 0,546 0,-41 0,505z" style="fill:#85b902"/>
   <rect class="AccessoryWaterHydrantfil29 AccessoryWaterHydrantstr2" height="997" rx="179" ry="51" width="654" x="5017" y="21162"/>
   <rect class="AccessoryWaterHydrantfil30 AccessoryWaterHydrantstr2" height="1721" rx="169" ry="75" width="731" x="4649" y="20800"/>
   <path class="AccessoryWaterHydrantfil31 AccessoryWaterHydrantstr3" d="M5766 25404l0 -550c0,-147 -938,-265 -2095,-265 -1156,0 -2094,118 -2094,265l0 550c0,146 938,265 2094,265 1157,0 2095,-119 2095,-265z" style="fill:#a4ea7a"/>
   <path class="AccessoryWaterHydrantfil32" d="M3671 24589c1157,0 2095,118 2095,265 0,146 -938,352 -2095,352 -1156,0 -2094,-206 -2094,-352 0,-147 938,-265 2094,-265z" style="fill:#f164d5"/>
   <path class="AccessoryWaterHydrantfil2 AccessoryWaterHydrantstr4" d="M3671 24589c1157,0 2095,118 2095,265 0,146 -938,352 -2095,352 -1156,0 -2094,-206 -2094,-352 0,-147 938,-265 2094,-265z" style="fill:#e13c3a"/>
   <path class="AccessoryWaterHydrantfil33 AccessoryWaterHydrantstr3" d="M3671 17525c-415,0 -435,312 -435,457 0,145 0,114 0,222 0,15 83,-54 435,-54 353,0 435,69 435,54 0,-108 0,-77 0,-222 0,-145 -19,-457 -435,-457z" style="fill:#aa71e5"/>
   <path class="AccessoryWaterHydrantfil34 AccessoryWaterHydrantstr3" d="M3671 17910c-1161,0 -1432,1058 -1432,1550l0 480 0 273 0 4523c0,115 924,207 1432,207 509,0 1433,-92 1433,-207l0 -4523 0 -273 0 -480c0,-492 -271,-1550 -1433,-1550z" style="fill:#f304ce"/>
   <path class="AccessoryWaterHydrantfil35" d="M3583 24701l177 0c109,0 198,-88 198,-197l0 -4049c0,-108 -89,-197 -198,-197l-177 0c-109,0 -198,89 -198,197l0 4049c0,109 89,197 198,197z" style="fill:#838967"/>
   <path class="AccessoryWaterHydrantfil35" d="M4394 24701l156 0c95,0 173,-77 173,-172l0 -4098c0,-96 -78,-173 -173,-173l-156 0c-95,0 -173,77 -173,173l0 4098c0,95 78,172 173,172z" style="fill:#5385cf"/>
   <path class="AccessoryWaterHydrantfil35" d="M2793 24701l155 0c96,0 173,-77 173,-172l0 -4098c0,-96 -77,-173 -173,-173l-155 0c-95,0 -173,77 -173,173l0 4098c0,95 78,172 173,172z" style="fill:#5c5fc2"/>
   <path class="AccessoryWaterHydrantfil36 AccessoryWaterHydrantstr3" d="M1996 20117c559,-29 654,-87 1675,-87 1021,0 1117,58 1676,87 157,8 286,-112 286,-249 0,0 0,0 0,0 0,-137 -85,-230 -286,-249 -556,-55 -791,-87 -1676,-87 -885,0 -1116,58 -1675,87 -157,8 -287,112 -287,249 0,0 0,0 0,0 0,137 130,257 287,249z" style="fill:#8eb30e"/>
   <ellipse class="AccessoryWaterHydrantfil37 AccessoryWaterHydrantstr4" cx="3671" cy="21643" rx="911" ry="900"/>
   <ellipse class="AccessoryWaterHydrantfil38 AccessoryWaterHydrantstr4" cx="3671" cy="21643" rx="445" ry="440"/>
   <path class="AccessoryWaterHydrantfil39 AccessoryWaterHydrantstr5" d="M3671 22304c370,0 670,-296 670,-661 0,-366 -300,-662 -670,-662 -369,0 -669,296 -669,662 0,365 300,661 669,661z" style="fill:#f89cf3"/>
   <polygon class="AccessoryWaterHydrantfil40 AccessoryWaterHydrantstr1" points="3892,21643 3837,21737 3782,21831 3671,21831 3561,21831 3506,21737 3451,21643 3506,21548 3561,21454 3671,21454 3782,21454 3837,21548 "/>
   <path class="AccessoryWaterHydrantfil39 AccessoryWaterHydrantstr6" d="M2852 19132c23,-315 94,-510 124,-608" style="fill:#5f46c5"/>
   <path class="AccessoryWaterHydrantfil39 AccessoryWaterHydrantstr6" d="M4491 19132c-23,-315 -94,-510 -124,-608" style="fill:#6a292b"/>
   <line class="AccessoryWaterHydrantfil39 AccessoryWaterHydrantstr6" x1="3671" x2="3673" y1="19132" y2="18510"/>
  </g>
 </g><g id="HatMerlinBack-Small">
 <animateTransform additive="sum" attributeName="transform" dur="10" repeatCount="indefinite" type="translate" values="0;0 200;0;0 200;0;0 200;0;0 200;0"/>
  <metadata id="CorelCorpID_54Corel-Layer"/>
  <g>
   <path class="HatMerlinBack-Smallfil315 HatMerlinBack-Smallstr24" d="M13744 17298c4880,0 8894,-868 9524,-2031 57,-104 73,-227 73,-336 0,-1320 -4277,-2412 -9597,-2412 -5319,0 -9632,1070 -9632,2390 0,1319 4313,2389 9632,2389z" style="fill:#e52b26"/>
   <path class="HatMerlinBack-Smallfil24" d="M23273 15257c53,-102 68,-221 68,-326 0,-1320 -4277,-2412 -9597,-2412 -5319,0 -9632,1070 -9632,2390 0,59 9,118 27,176 2732,-2452 4490,1083 4628,1861 3526,491 7105,485 10014,-18 228,-1476 2683,-3738 4492,-1671z" style="fill:#b55d65"/>
  </g>
 </g><g id="HairBack-Hedgehog0">
  <animateTransform additive="sum" attributeName="transform" dur="10" repeatCount="indefinite" type="translate" values="0;0 200;0;0 200;0;0 200;0;0 200;0"/>
  <metadata id="CorelCorpID_0Corel-Layer"/>
  <g id="_1891249983072">
   <path class="HairBack-Hedgehog0fil0 HairBack-Hedgehog0str0" d="M9544 11951c-1108,-270 -3152,751 -3378,1696 513,-174 1138,-200 1592,-81 -597,230 -1586,973 -1754,1766 460,-285 1053,-363 1505,-318 -745,702 -1165,1266 -1269,2097 349,-288 1008,-560 1592,-568 -408,499 -913,1377 -887,2085 291,-346 873,-769 1559,-952 -274,581 -410,1366 -336,1978 291,-511 1133,-1083 1790,-1363 -82,563 -134,1400 26,1926 553,-772 1107,-1543 1660,-2314 -2186,-867 -3008,-2237 -2100,-5952z" style="fill:#cc8813"/>
   <path class="HairBack-Hedgehog0fil1 HairBack-Hedgehog0str0" d="M17820 11951c1108,-270 3152,751 3378,1696 -513,-174 -1138,-200 -1592,-81 597,230 1586,973 1754,1766 -460,-285 -1053,-363 -1505,-318 745,702 1165,1266 1269,2097 -349,-288 -1008,-560 -1592,-568 408,499 913,1377 887,2085 -292,-346 -873,-769 -1559,-952 274,581 410,1366 336,1978 -291,-511 -1133,-1083 -1790,-1363 82,563 134,1400 -26,1926 -553,-772 -1107,-1543 -1661,-2314 2186,-867 3009,-2237 2101,-5952z" style="fill:#d4a31b"/>
  </g>
  <path class="HairBack-Hedgehog0fil2" d="M21360 15332c-460,-285 -1053,-363 -1505,-318 -196,-68 -391,-137 -586,-205 -22,291 -44,582 -66,874 859,224 1515,681 1921,1428 -349,-288 -1008,-560 -1592,-568 93,114 -191,-50 -257,-78 -154,135 -309,270 -463,405 866,482 1402,1067 1607,1758 -292,-346 -873,-769 -1559,-952 40,84 -364,-202 -413,-232 -218,26 -435,52 -653,78 662,526 1259,1235 1399,2127 -265,-459 -969,-965 -1584,-1265 -273,-248 -546,-496 -819,-745 78,-150 156,-300 234,-450 651,-512 1038,-1193 1136,-2185 226,-434 517,-517 743,-952 904,61 1809,523 2457,1280z" style="fill:#b2acf7"/>
  <path class="HairBack-Hedgehog0fil2" d="M9544 11951c-15,-4 -30,-7 -45,-10 -335,15 -669,31 -1003,47 -500,116 -1024,347 -1450,633 590,17 171,608 -243,889 339,-35 679,-17 955,56 -189,73 -417,197 -646,357 1193,476 -780,854 -967,1351 456,-276 917,-304 1364,-260 -157,148 -300,290 -428,429 994,397 -382,823 -664,1540 368,-235 918,-434 1415,-440 -98,120 -202,262 -302,417 662,624 -398,914 -523,1598 308,-332 857,-711 1497,-882 713,638 -283,1276 -268,1871 340,-482 1111,-996 1722,-1256 -82,563 -134,1400 26,1926 553,-772 1107,-1543 1660,-2314 -2186,-867 -3008,-2237 -2100,-5952z" style="fill:#e5171c"/>
 </g><g id="Tail-Hedgehog0">
 <animateTransform additive="sum" attributeName="transform" dur="10" repeatCount="indefinite" type="translate" values="0;0 200;0;0 200;0;0 200;0;0 200;0"/>
  <metadata id="CorelCorpID_11Corel-Layer"/>
  <g id="_1891249960224">
   <path class="Tail-Hedgehog0fil29 Tail-Hedgehog0str0" d="M10243 18011c-510,276 -1099,1258 -1176,2143 337,-271 804,-279 1126,-224 -586,264 -943,844 -960,1362 288,-215 636,-398 1044,-381 -498,400 -927,989 -963,1764 190,-172 506,-235 747,-244 -218,450 -249,900 -152,1350 188,-263 466,-491 841,-600 384,-112 1462,128 1523,454 62,326 324,707 625,829 1,-287 30,-617 271,-889 96,379 296,699 513,914 217,-215 416,-535 513,-914 241,272 270,602 271,889 301,-122 563,-503 625,-829 61,-326 1138,-566 1523,-454 375,109 652,337 841,600 97,-450 66,-900 -152,-1350 241,9 557,72 747,244 -36,-775 -465,-1364 -963,-1764 408,-17 756,166 1043,381 -16,-518 -373,-1098 -959,-1362 322,-55 789,-47 1125,224 -76,-885 -665,-1867 -1175,-2143 -670,147 -2745,630 -3415,776l-24 -5 -24 5c-670,-146 -2745,-629 -3415,-776z" style="fill:#18540f"/>
   <path class="Tail-Hedgehog0fil2" d="M10194 18040c-189,117 -385,325 -560,585 941,205 -259,1028 -480,1467 327,-210 744,-213 1039,-162 438,198 -561,567 -594,1134 204,-100 430,-163 678,-153 552,663 -651,1099 -963,1764 190,-172 506,-235 747,-244 -218,450 -249,900 -152,1350 188,-263 466,-491 841,-600 384,-112 1462,128 1523,454 62,326 324,707 625,829 1,-287 30,-617 271,-889 96,379 296,699 513,914 217,-215 416,-535 513,-914 241,272 270,602 271,889 301,-122 563,-503 625,-829 61,-326 1138,-566 1523,-454 375,109 652,337 841,600 86,-400 71,-800 -86,-1200 -136,-245 -526,-445 -473,-927 72,-653 339,-1711 295,-2114 -244,-477 -122,-923 282,-1242 -117,-125 -236,-224 -352,-287 -670,147 -2745,630 -3415,776 -8,-2 -16,-3 -24,-5 -8,2 -16,3 -24,5 -648,-142 -2611,-598 -3345,-760 -40,4 -79,9 -119,13z" style="fill:#aab20b"/>
  </g>
 </g><g id="RightFoot-Hedgehog0">
  <metadata id="CorelCorpID_22Corel-Layer"/>
  <path class="RightFoot-Hedgehog0fil42 RightFoot-Hedgehog0str0" d="M17616 25049c58,229 -133,641 -602,281 -416,252 -643,30 -786,-117 -427,-437 -1001,-608 -1224,-792 -174,-144 96,-471 85,-641 326,80 773,48 1052,-20 166,306 1110,284 1425,840 100,176 108,360 50,449z" style="fill:#23df46"/>
  <path class="RightFoot-Hedgehog0fil43" d="M17075 25357c18,-210 -100,-383 -289,-485 131,162 175,299 151,492 36,28 93,34 138,-7z" style="fill:#87fa32"/>
  <path class="RightFoot-Hedgehog0fil43" d="M17627 24985c-28,-165 -141,-261 -310,-338 177,173 216,307 240,534 21,-62 50,-133 70,-196z" style="fill:#db93a3"/>
  <path class="RightFoot-Hedgehog0fil11" d="M17616 25049c58,229 -133,641 -602,281 -416,252 -643,30 -786,-117 -427,-437 -1001,-608 -1224,-792 -111,-92 -42,-257 20,-409 59,405 671,455 1222,959 269,246 667,277 693,61 92,226 704,254 554,-143 42,29 93,66 147,105 -6,21 -14,40 -24,55z" style="fill:#8453e4"/>
 </g><g id="LeftFoot-Hedgehog0">
  <metadata id="CorelCorpID_32Corel-Layer"/>
  <path class="LeftFoot-Hedgehog0fil42 LeftFoot-Hedgehog0str0" d="M9796 25049c-58,229 132,641 602,281 416,252 642,30 786,-117 427,-437 1000,-608 1223,-792 175,-144 -96,-471 -84,-641 -326,80 -774,48 -1053,-20 -166,306 -1110,284 -1425,840 -100,176 -108,360 -49,449z" style="fill:#22b085"/>
  <path class="LeftFoot-Hedgehog0fil11" d="M9796 25049c-58,229 132,641 602,281 416,252 642,30 786,-117 427,-437 1000,-608 1223,-792 111,-92 42,-257 -20,-409 -59,405 -671,455 -1222,959 -268,246 -666,277 -692,61 -93,226 -705,254 -554,-143 -43,29 -94,66 -148,105 6,21 14,40 25,55z" style="fill:#d2ccd0"/>
  <path class="LeftFoot-Hedgehog0fil43" d="M10337 25357c-19,-210 99,-383 288,-485 -131,162 -175,299 -151,492 -35,28 -93,34 -137,-7z" style="fill:#1cb4b8"/>
  <path class="LeftFoot-Hedgehog0fil43" d="M9784 24985c29,-165 142,-261 311,-338 -178,173 -217,307 -241,534 -20,-62 -49,-133 -70,-196z" style="fill:#159a1e"/>
 </g><g id="RightLeg-Hedgehog0">
  <metadata id="CorelCorpID_27Corel-Layer"/>
  <path class="RightLeg-Hedgehog0fil48" d="M13668 23779c967,1 1275,748 2492,357 1135,-365 1011,-1425 437,-2346l-1468 -574c-289,401 -798,1265 -1461,1300l0 1263z" style="fill:#e9fb28"/>
  <path class="RightLeg-Hedgehog0fil10" d="M13678 23853c373,1 647,119 917,236 100,43 536,225 802,158 -304,-37 -584,-227 -743,-296 -283,-122 -571,-246 -976,-247l0 149zm2756 -2176c149,216 274,444 364,670 100,250 156,499 152,728 -14,725 -589,997 -739,1045 276,14 875,-379 888,-1043 5,-249 -55,-517 -162,-785 -99,-250 -240,-501 -408,-739l-95 124z" style="fill:#910275"/>
  <path class="RightLeg-Hedgehog0fil11" d="M16859 23678c291,-452 265,-1206 -216,-1646 -364,384 -390,545 -378,566 409,-250 803,197 594,1080z" style="fill:#b2ae47"/>
 </g><g id="LeftLeg-Hedgehog0">
  <metadata id="CorelCorpID_37Corel-Layer"/>
  <path class="LeftLeg-Hedgehog0fil53" d="M13678 23779c-968,1 -1266,748 -2483,357 -1135,-365 -1010,-1425 -437,-2346l1468 -574c289,401 788,1265 1452,1300l0 1263z" style="fill:#a43bf4"/>
  <path class="LeftLeg-Hedgehog0fil10" d="M13678 23853c-374,1 -648,119 -918,236 -100,43 -536,225 -802,158 304,-37 584,-227 743,-296 283,-122 571,-246 977,-247l0 149zm-2756 -2176c-150,216 -275,444 -365,670 -100,250 -156,499 -151,728 13,725 588,997 738,1045 -276,14 -875,-379 -888,-1043 -5,-249 55,-517 162,-785 99,-250 240,-501 408,-739l96 124z" style="fill:#3b8974"/>
  <path class="LeftLeg-Hedgehog0fil11" d="M10497 23678c-292,-452 -266,-1206 215,-1646 364,384 390,545 378,566 -409,-250 -803,197 -593,1080z" style="fill:#988695"/>
 </g><g id="RightHand-Hedgehog0">
 <animateTransform additive="sum" attributeName="transform" dur="10" repeatCount="indefinite" type="translate" values="0;0 200;0;0 200;0;0 200;0;0 200;0"/>
  <metadata id="CorelCorpID_42Corel-Layer"/>
  <path class="RightHand-Hedgehog0fil56 RightHand-Hedgehog0str0" d="M16378 18692c699,369 1263,1150 1599,1845 252,523 -745,991 -1014,732 -193,-186 -386,-294 -613,-339 -83,-786 -377,-1485 -807,-1998 351,-62 639,-144 835,-240z" style="fill:#07a7f6"/>
  <path class="RightHand-Hedgehog0fil11" d="M16936 21243c-185,-170 -370,-270 -586,-313 -47,-446 -162,-864 -332,-1237 615,434 879,1022 918,1550z" style="fill:#8803d1"/>
 </g><g id="LeftHand-Hedgehog0">
 <animateTransform additive="sum" attributeName="transform" dur="10" repeatCount="indefinite" type="translate" values="0;0 200;0;0 200;0;0 200;0;0 200;0"/>
  <metadata id="CorelCorpID_52Corel-Layer"/>
  <path class="LeftHand-Hedgehog0fil64 LeftHand-Hedgehog0str0" d="M10986 18692c-699,369 -1263,1150 -1599,1845 -252,523 745,991 1013,732 194,-186 387,-294 614,-339 83,-786 377,-1485 807,-1998 -351,-62 -639,-144 -835,-240z" style="fill:#d9cbe6"/>
  <path class="LeftHand-Hedgehog0fil11" d="M10428 21243c184,-170 370,-270 586,-313 47,-446 162,-864 332,-1237 -615,434 -879,1022 -918,1550z" style="fill:#a9227d"/>
 </g><g id="Body-Hedgehog4">
 <animateTransform additive="sum" attributeName="transform" dur="10" repeatCount="indefinite" type="translate" values="0;0 200;0;0 200;0;0 200;0;0 200;0"/>
  <metadata id="CorelCorpID_61Corel-Layer"/>
  <path class="Body-Hedgehog4fil67" d="M13682 23636c-1477,0 -2736,-317 -2979,-1737 -144,-843 286,-2153 892,-3046 556,109 1286,175 2087,175 801,0 1531,-66 2087,-175 606,893 1036,2203 892,3046 -243,1420 -1502,1737 -2979,1737z" style="fill:#ff9d23"/>
  <path class="Body-Hedgehog4fil11" d="M11882 23368c-610,-246 -1046,-692 -1179,-1469 -57,-332 -24,-737 73,-1161 44,1407 281,2075 1106,2630z" style="fill:#ee6b49"/>
  <path class="Body-Hedgehog4fil71" d="M11697 22818c649,547 1135,530 1985,539 850,-9 1336,8 1985,-539 901,-759 599,-2432 -515,-3054 147,399 194,772 75,1183 -181,-431 -480,-779 -749,-1031 11,349 -24,881 -264,1217 -117,-485 -280,-789 -532,-1114 -252,325 -415,629 -532,1114 -240,-336 -275,-868 -264,-1217 -269,252 -568,600 -749,1031 -119,-411 -72,-784 74,-1183 -1113,622 -1415,2295 -514,3054z" style="fill:#86ae92"/>
  <path class="Body-Hedgehog4fil10" d="M10914 22537c-141,-186 -224,-430 -261,-694 -28,-202 -29,-416 -9,-626 35,-378 197,-1016 416,-1358 -130,315 -277,999 -296,1371 -23,438 13,904 150,1307z" style="fill:#c9be80"/>
  <path class="Body-Hedgehog4fil11" d="M15481 23368c611,-246 1047,-692 1180,-1469 57,-332 24,-737 -73,-1161 -44,1407 -281,2075 -1107,2630z" style="fill:#623e68"/>
  <path class="Body-Hedgehog4fil10" d="M16450 22537c249,-328 316,-836 270,-1320 -35,-378 -197,-1016 -416,-1358 130,315 277,999 296,1371 23,438 -13,904 -150,1307z" style="fill:#c315b3"/>
 </g><g id="WeaponIcicleBack-Small">
      <animateTransform additive="sum" attributeName="transform" dur="10" repeatCount="indefinite" type="translate" values="0;0 200;0;0 200;0;0 200;0;0 200;0"/>
     <metadata id="CorelCorpID_1Corel-Layer"/>
  <g id="_2134942652928">
   <g>
    <path class="WeaponIcicleBack-Smallfil81" d="M8326.94 19869.71c76.63,23.02 144.55,59.56 205.48,115.34 9.42,3.05 18.55,6.34 27.5,9.92 180.39,18.85 288.39,9.85 470.75,119.48 253.06,152.1 366.78,412.51 413.21,687.82 231.72,193.46 463.44,386.93 695.16,580.39 310.01,29.48 519.33,232.53 632.05,527.7l93.44 78.02c-279.57,245.71 -690.71,678.03 -1112.23,1371.86l-282.18 -160.86c-351.25,-1.34 -641.22,-162.08 -811.61,-466.23 -329.22,-192.54 -658.44,-385.08 -987.66,-577.61 -458.8,15.86 -848.59,-193.11 -1056.36,-606.88 -213.03,-122.08 -426.06,-244.17 -639.1,-366.27 -112.61,-64.54 -185.31,-162.36 -214.62,-288.82 -113.09,-487.89 -149.35,-1084.11 257.31,-1453.54 422.8,-384.1 1069.05,-283.59 1568.39,-139.05 62.74,18.16 113.15,44.98 163.28,86.83 192.4,160.63 384.79,321.27 577.19,481.9z" style="fill:#91dfe4"/>
    <path class="WeaponIcicleBack-Smallfil82" d="M8255.63 20005.58c76.67,18.19 140.53,51.51 198.36,113.07 4.73,1.34 9.39,2.55 13.53,3.64 19.56,5.16 37.08,11.51 53.97,19.71 35.68,4.09 80.68,3.34 114.98,6.23 103.53,8.67 200.7,31.18 292.81,81.01 244.61,132.33 340.07,391.43 374.9,651.79 258.87,216.13 517.72,432.27 776.59,648.38 291.07,9.15 470.01,196.12 563.3,470.32l108.64 90.7c-252.14,238.44 -580.75,605.92 -921.21,1142.3l-322.57 -183.89c-327.62,11.05 -590.96,-132.56 -738.04,-423.73 -354.3,-207.21 -708.6,-414.42 -1062.9,-621.63 -433.16,29.35 -796.05,-160.83 -978.37,-561.72 -226.55,-129.84 -453.1,-259.67 -679.65,-389.51 -75.07,-43.03 -123.53,-108.25 -143.07,-192.55 -99.38,-428.76 -148.38,-981.22 212.05,-1308.65 376.48,-342.01 984.28,-233.79 1425.81,-105.98 41.82,12.11 75.43,29.98 108.86,57.88 200.67,167.55 401.34,335.09 602.01,502.63z" style="fill:#8f782e"/>
    <path class="WeaponIcicleBack-Smallfil83" d="M8188.75 20145.15c63.39,10.21 120.13,31.62 164.79,85.41 3.94,4.74 7.54,9.78 11.34,14.58 15.2,8.94 49.5,18.27 64.4,22.19 15.7,4.14 28.76,9.82 42.1,18.37 22.2,7.17 86.53,7.88 109.18,9.09 83.33,4.49 161.84,14.61 239.33,47.98 242.99,104.64 318.38,371.62 342.27,615.1 288.29,240.69 576.57,481.39 864.86,722.08 272.44,-13.3 413.9,157.02 487.52,407.03l130.33 108.82c-212.76,214.85 -466.96,512.19 -731.57,910.89l-368.46 -210.03c-302.69,23.67 -535.59,-99.71 -658.24,-377.66 -381.34,-223.01 -762.66,-446.03 -1144,-669.05 -406.08,43.01 -739.15,-125.4 -894.86,-513.38 -241.06,-138.15 -482.12,-276.31 -723.17,-414.46 -37.55,-21.52 -61.78,-54.13 -71.55,-96.28 -85.18,-367.52 -145.52,-880.03 166.79,-1163.75 328.66,-298.58 901.32,-183.48 1283.24,-72.93 20.91,6.06 37.72,15 54.43,28.95 210.42,175.69 420.85,351.36 631.27,527.05z" style="fill:#ab821f"/>
   </g>
   <path class="WeaponIcicleBack-Smallfil84" d="M6233.46 20787.1c-253.93,-1095.55 256.39,-1349.86 1262.2,-1058.72 221.74,185.13 443.5,370.28 665.24,555.42 179.72,16.01 47.75,66.58 264.45,123.71 144.67,98.15 576.69,-144.81 626.72,620.34 320.46,267.55 640.93,535.12 961.39,802.67 264.11,-39.75 350.74,128.34 403.09,336.55l141.82 118.41c-166.37,176.64 -353.43,400.37 -548.42,679.23l-398.32 -227.07c-300.88,38.95 -481.14,-83.53 -570.9,-327.19 -410.71,-240.2 -821.42,-480.4 -1232.13,-720.6 -273.5,40.82 -649.47,-5.82 -804.86,-461.29 -256.76,-147.15 -513.52,-294.31 -770.28,-441.46z" style="fill:#4ab350"/>
   <path class="WeaponIcicleBack-Smallfil85" d="M6492.97 20711.49c-457.83,-832.83 673.5,-1119.75 1026.1,-731.73 155.28,129.65 327.18,302.27 482.46,431.91 125.85,11.21 33.45,46.62 185.19,86.63 101.31,68.73 403.82,-101.41 438.87,434.4 224.4,187.35 1148.04,911.44 1372.45,1098.79 184.95,-27.83 222.1,94.27 258.76,240.06 50.51,42.05 92.73,111.14 145.48,187.1 -93.64,108.46 -191.97,230.8 -293.09,367.92 -163.35,-84.43 -324.61,-163.37 -482.34,-234.72 -210.69,27.28 -284.14,-124.72 -346.98,-295.36 -287.61,-168.2 -1197.61,-665.94 -1485.22,-834.14 -191.53,28.59 -567.36,-63.41 -676.17,-382.35 -179.81,-103.05 -445.71,-265.46 -625.51,-368.51z" style="fill:#8d3b51"/>
   <path class="WeaponIcicleBack-Smallfil86" d="M6492.97 20711.49c-303.85,-529.67 76.44,-834.12 396.61,-879.41 -219.48,671.62 -20.52,918.76 623.83,826.73 82.84,326.66 450.06,448.54 643.27,435.44 273.16,190.76 1140.23,760 1413.41,950.77 48.93,175.13 169.48,339.05 381.68,328.78 108.52,74.01 197.48,178.68 291.74,276.88 -43.86,55.36 -88.48,113.75 -133.63,174.96 -162.97,-83.79 -324.43,-162.38 -483.03,-233.79 -210.69,27.28 -284.14,-124.73 -346.98,-295.36 -287.62,-168.2 -1197.62,-665.94 -1485.22,-834.14 -191.53,28.58 -567.36,-63.41 -676.17,-382.35 -179.81,-103.05 -445.71,-265.46 -625.51,-368.51z" style="fill:#e2fa24"/>
   <path class="WeaponIcicleBack-Smallfil87" d="M10169.09 22746.51c-84.64,-54.62 -170.64,-101.71 -240.88,-125.48 -40,-13.52 -219.21,-65.95 -261.83,-67.25 -191.89,-7.12 -352.98,-280 -4.53,-237.43 179.24,66.66 387.25,222.05 552.74,371.18 -15.09,19.35 -30.25,38.95 -45.5,58.98z" style="fill:#5c0ab7"/>
   <path class="WeaponIcicleBack-Smallfil88" d="M7726.47 20707.79c-54.07,83.33 -296.19,142.33 -470.75,241.83 -66.23,37.75 -110.87,80.54 -144.09,126.45 -76.54,-43.97 -167.94,-98.19 -261.37,-153.81 140.81,-92.9 520.98,-169.35 737.79,-245.59 152.12,-53.48 70.47,-201.59 223.94,-213.77 -41.87,11.1 -43.65,233.79 -85.52,244.89z" style="fill:#0520a6"/>
   <path class="WeaponIcicleBack-Smallfil89" d="M7649.6 20775.68c-484.37,394.49 -436.5,344.8 -498.16,549.97 73.65,165.22 333.28,244.1 333.28,244.1 0,0 -1064.04,-378.31 164.88,-794.07z" style="fill:#54d1a1"/>
   <path class="WeaponIcicleBack-Smallfil90" d="M9848.51 22192.56c0,0 -531.35,92.4 -544.36,215.3 -13.02,122.89 15.07,178.45 -44.46,178.56 -59.53,0.12 -402.75,-428.97 588.82,-393.86z" style="fill:#f5a5d6"/>
   <path class="WeaponIcicleBack-Smallfil91" d="M10410.69 22210.3c-173.02,110.59 -320.17,208.75 -93.36,349.07l-8.84 10.79c-154.29,-65.38 -410.4,-221.26 102.14,-395.03l0.06 35.17z" style="fill:#fc78ad"/>
   <path class="WeaponIcicleBack-Smallfil92" d="M7328.41 19791.86c116.96,32.84 384.19,286.53 384.4,396.12 0.21,109.59 -273.76,-211.15 -390.66,-210.92 -116.9,0.22 -502.71,-1.9 -542.71,-164.34 -40,-162.43 432.01,-53.71 548.97,-20.86z" style="fill:#b37bae"/>
   <path class="WeaponIcicleBack-Smallfil93" d="M7131.26 19617.21c115.04,-23.13 643.07,414.49 664.75,522.34 21.69,107.84 -54,214.01 -169.02,237.13 -115.02,23.13 -597.92,-121.67 -619.61,-229.52 -21.68,-107.85 8.86,-506.82 123.88,-529.95z" style="fill:#2c39ce"/>
   <path class="WeaponIcicleBack-Smallfil84" d="M10108.9 21914.8c93.25,-47.71 272.39,289.97 157.83,236.53 -114.56,-53.44 -316.42,-93.95 -276.36,38.94 40.05,132.88 -84.7,-37.07 -84.8,-91.16 -0.1,-54.09 110.08,-136.6 203.33,-184.31z" style="fill:#722ca1"/>
   <path class="WeaponIcicleBack-Smallfil94" d="M7910.09 20444.37c31.22,-0.06 17.23,41.59 17.29,70.86 0.06,29.27 -103.85,110.48 -135.07,110.54 -31.22,0.06 0.57,-88.17 0.52,-117.44 -0.06,-29.27 86.04,-63.9 117.26,-63.96z" style="fill:#7fbd86"/>
   <path class="WeaponIcicleBack-Smallfil95" d="M6261.67 20081.73c96.31,-19.36 550.8,359.34 556.62,437.37 1.83,24.62 381.35,103.81 552.18,471.1 124.02,266.63 331.97,440.56 605.5,478.34 422.53,58.34 733.89,275.83 915.08,518.9 195.14,30.73 356.76,269.17 357.25,275.83 0.59,7.9 122.54,33.36 177.43,151.37 39.85,85.68 106.69,141.57 194.56,153.7 46.13,6.36 230.82,99.14 498.24,245.56 -27.44,37.03 -55.08,75.18 -82.91,114.43 -193.22,-116.24 -314.52,-187 -327.67,-188.53 -160.43,-18.8 -418.6,8.84 -466.59,-85.81 -75.91,-55.65 -139.32,-222.83 -172.48,-282.12 3,10.57 2.73,15.91 -1.06,14.72 -1063.46,-335.82 -916.96,-621.79 -1169.48,-651.43 -499.36,-58.61 -747.41,-199.98 -896.77,-494.54 -275.3,-201.81 -640.85,-380.71 -723.1,-444.61 -120.24,-93.42 -90.3,-248.73 -120.53,-270.53 -97.5,-70.29 7.41,-424.38 103.73,-443.75z" style="fill:#a015bf"/>
   <path class="WeaponIcicleBack-Smallfil96" d="M10223.53 22045.59c57.06,148.39 10.59,161.78 -120.81,98.16 -131.4,-63.62 -111.37,-44.06 -104.65,-97.73 18.71,-149.51 169.68,-145.48 225.46,-0.43z" style="fill:#55a3be"/>
   <path class="WeaponIcicleBack-Smallfil97" d="M6120.87 20619.9c-32.15,-93.2 59.02,-322.46 82.13,-521.85 8.75,-75.65 1.69,-137.02 -14.1,-191.12 75.69,-34.99 198.07,-161.81 291.92,-203.35 -9.18,168.4 -226.35,465.93 -172.76,843.74 22.61,159.4 241.28,209.95 164.61,340.18 67.69,95.78 -303.58,-63.72 -351.8,-267.6z" style="fill:#32d09f"/>
   <path class="WeaponIcicleBack-Smallfil80 WeaponIcicleBack-Smallstr0" d="M6207 20787.15c-253.93,-1095.55 256.39,-1349.86 1262.2,-1058.72 221.74,185.13 443.5,370.28 665.24,555.42 179.72,16.01 47.75,66.58 264.45,123.71 144.67,98.15 576.69,-144.81 626.72,620.34 320.46,267.55 640.93,535.12 961.39,802.67 264.11,-39.75 350.74,128.34 403.09,336.55l156.61 130.75c-165.57,176.97 -351.15,400.31 -544.3,677.67l-417.23 -237.85c-300.88,38.96 -481.14,-83.53 -570.9,-327.19 -410.71,-240.2 -821.42,-480.4 -1232.13,-720.6 -273.5,40.82 -649.47,-5.82 -804.86,-461.29 -256.76,-147.15 -513.52,-294.31 -770.28,-441.46z" style="fill:#c63683"/>
   <path class="WeaponIcicleBack-Smallfil98" d="M9522.99 21890.13c46.45,30.83 57.13,17.61 68.93,11.57 11.17,-5.72 -0.75,-24.82 0.03,-46.92 -205.26,-87.06 -353.66,-311.44 -408.56,-292.13 -151.07,-157.51 -348.49,-357.6 -537.2,-478.52 -310.99,-199.27 -731.19,-80.71 377.58,419.05 10.75,85.52 66.36,127.37 202.27,147.34 98.99,79.87 197.97,159.74 296.95,239.61z" style="fill:#847d11"/>
   <path class="WeaponIcicleBack-Smallfil87" d="M8394.73 21747.63c-133.98,-97.27 -447.07,-267.23 -582.63,-331.54 -38.16,-18.09 -272.07,-63.46 -314.69,-64.75 -191.88,-7.13 -300.12,-282.5 48.33,-239.94 241.13,50.16 523.6,247.36 722.02,396.76 110.26,83.01 714.01,465.19 849.85,583.32 -26.45,-32.24 -696.4,-311.61 -722.88,-343.85z" style="fill:#17b7f9"/>
   <path class="WeaponIcicleBack-Smallfil99" d="M6633.7 20246.06c0,0 118.41,-96.59 -21.7,-186.66 -160.97,69.07 -215.98,140 -187.07,360.07 25.32,192.95 171.81,379.83 424.46,399.76 -130.69,-72.69 -472.7,-377.89 -215.69,-573.17z" style="fill:#baeb57"/>
  </g>
 </g><g id="RightPaw-Hedgehog0">
 <animateTransform additive="sum" attributeName="transform" dur="10" repeatCount="indefinite" type="translate" values="0;0 200;0;0 200;0;0 200;0;0 200;0"/>
  <metadata id="CorelCorpID_47Corel-Layer"/>
  <path class="RightPaw-Hedgehog0fil61" d="M17864 20421c184,453 629,783 699,998 77,240 -18,466 -126,513 38,206 -104,428 -245,428 -293,0 -324,-205 -437,-341 -104,194 -282,219 -407,135 -156,-104 -201,-398 -167,-539 -32,-115 -136,-329 -216,-410 -165,-601 1086,134 899,-784z" style="fill:#079a6f"/>
  <path class="RightPaw-Hedgehog0fil4 RightPaw-Hedgehog0str0" d="M17930 20445c178,390 563,759 633,974 77,240 -11,453 -119,500 27,201 -81,425 -252,441 -291,28 -324,-205 -437,-341 -99,188 -283,219 -407,135 -129,-86 -185,-306 -169,-538 -54,-150 -178,-313 -300,-425" style="fill:#22142a"/>
  <path class="RightPaw-Hedgehog0fil43" d="M17658 22038c71,-116 109,-352 54,-541 122,143 164,426 98,556 -33,-15 -109,-28 -152,-15z" style="fill:#195562"/>
  <path class="RightPaw-Hedgehog0fil43" d="M18383 22035c-21,-280 -114,-523 -262,-696 185,99 351,283 368,545 -35,48 -71,103 -106,151z" style="fill:#1792c8"/>
  <path class="RightPaw-Hedgehog0fil11" d="M17726 22066c-105,150 -264,165 -378,88 -68,-45 -114,-125 -143,-214 212,167 465,72 544,-351 10,106 19,211 29,317 -17,53 -35,106 -52,160z" style="fill:#96f0ed"/>
  <path class="RightPaw-Hedgehog0fil11" d="M18473 21910c-12,10 -24,17 -36,22 38,206 -104,428 -245,428 -120,0 -240,-124 -296,-175 326,81 529,-299 303,-766 56,64 111,127 167,191 35,100 71,200 107,300z" style="fill:#07162f"/>
 </g><g id="LeftPaw-Hedgehog0">
 <animateTransform additive="sum" attributeName="transform" dur="10" repeatCount="indefinite" type="translate" values="0;0 200;0;0 200;0;0 200;0;0 200;0"/>
  <metadata id="CorelCorpID_62Corel-Layer"/>
  <path class="LeftPaw-Hedgehog0fil72" d="M9500 20421c-184,453 -629,783 -699,998 -78,240 18,466 125,513 -37,206 105,428 246,428 293,0 324,-205 437,-341 104,194 282,219 407,135 156,-104 201,-398 167,-539 32,-115 136,-329 216,-410 165,-601 -1086,134 -899,-784z" style="fill:#67ec17"/>
  <path class="LeftPaw-Hedgehog0fil11" d="M9638 22066c105,150 264,165 378,88 67,-45 114,-125 143,-214 -212,167 -465,72 -544,-351 -10,106 -19,211 -29,317 17,53 34,106 52,160z" style="fill:#858550"/>
  <path class="LeftPaw-Hedgehog0fil11" d="M8891 21910c12,10 23,17 35,22 -37,206 105,428 246,428 120,0 240,-124 296,-175 -326,81 -529,-299 -304,-766 -55,64 -110,127 -166,191 -35,100 -71,200 -107,300z" style="fill:#31356c"/>
  <path class="LeftPaw-Hedgehog0fil4 LeftPaw-Hedgehog0str0" d="M9434 20445c-179,390 -563,759 -633,974 -78,240 11,453 119,500 -27,201 81,425 252,441 291,28 324,-205 437,-341 99,188 282,219 407,135 128,-86 184,-306 169,-538 54,-150 178,-313 300,-425" style="fill:#b2f29c"/>
  <path class="LeftPaw-Hedgehog0fil43" d="M8981 22035c21,-280 114,-523 262,-696 -185,99 -351,283 -368,545 35,48 71,103 106,151z" style="fill:#d53d18"/>
  <path class="LeftPaw-Hedgehog0fil43" d="M9706 22038c-71,-116 -109,-352 -54,-541 -122,143 -164,426 -98,556 33,-15 108,-28 152,-15z" style="fill:#955acd"/>
 </g><g id="NecklacePo">
 <animateTransform additive="sum" attributeName="transform" dur="10" repeatCount="indefinite" type="translate" values="0;0 200;0;0 200;0;0 200;0;0 200;0"/>
  <metadata id="CorelCorpID_41Corel-Layer"/>
  <g>
   <ellipse class="NecklacePofil231new" cx="13665" cy="20127" rx="295" ry="332"/>
   <path class="NecklacePofil232new" d="M13952 20051c5,25 8,50 8,76 0,184 -132,332 -295,332 -163,0 -295,-148 -295,-332 0,-26 3,-51 8,-76 30,147 147,256 287,256 139,0 256,-109 287,-256z" style="fill:#425986"/>
   <ellipse class="NecklacePofil33new NecklacePostr4new" cx="13665" cy="20127" rx="295" ry="332"/>
   <ellipse class="NecklacePofil83new" rx="99" ry="35" transform="matrix(0.927129 0.374742 -0.374742 0.927129 13726.9 19916.8)"/>
  </g>
  <g>
   <path class="NecklacePofil233new" d="M13133 19742c158,42 247,220 199,397 -47,177 -213,287 -371,244 -157,-42 -246,-220 -199,-397 48,-177 214,-286 371,-244z" style="fill:#2c0a13"/>
   <path class="NecklacePofil232new" d="M13344 20063c-1,25 -5,51 -12,76 -47,177 -213,287 -371,244 -157,-42 -246,-220 -199,-397 7,-25 16,-49 28,-71 -9,149 76,285 211,321 135,37 276,-39 343,-173z" style="fill:#61b137"/>
   <ellipse class="NecklacePofil33new NecklacePostr4new" rx="236" ry="310" transform="matrix(1.20828 0.323757 -0.277653 1.03621 13047.3 20062.6)"/>
   <ellipse class="NecklacePofil83new" rx="99" ry="35" transform="matrix(0.798548 0.601932 -0.601932 0.798548 13161.8 19875.5)"/>
  </g>
  <g>
   <path class="NecklacePofil234new" d="M12628 19514c141,82 181,276 89,435 -92,159 -280,222 -421,140 -142,-81 -182,-276 -90,-435 92,-159 281,-221 422,-140z" style="fill:#774e53"/>
   <path class="NecklacePofil232new" d="M12748 19879c-8,24 -18,48 -31,70 -92,159 -280,222 -421,140 -142,-81 -182,-276 -90,-435 13,-22 28,-43 45,-62 -47,143 0,296 121,366 120,69 276,33 376,-79z" style="fill:#0b0511"/>
   <ellipse class="NecklacePofil33new NecklacePostr4new" rx="236" ry="310" transform="matrix(1.08331 0.625451 -0.536383 0.929043 12461.5 19801.8)"/>
   <ellipse class="NecklacePofil83new" rx="99" ry="35" transform="matrix(0.615546 0.788101 -0.788101 0.615546 12620.5 19650.7)"/>
  </g>
  <g>
   <path class="NecklacePofil235new" d="M12224 19161c105,125 76,321 -65,439 -140,118 -339,112 -444,-12 -105,-125 -75,-322 65,-440 140,-118 339,-112 444,13z" style="fill:#444af9"/>
   <path class="NecklacePofil232new" d="M12212 19545c-15,20 -33,38 -53,55 -140,118 -339,112 -444,-12 -104,-125 -75,-322 65,-440 20,-16 41,-31 63,-43 -93,118 -101,278 -11,385 89,107 248,126 380,55z" style="fill:#692af1"/>
   <ellipse class="NecklacePofil33new NecklacePostr4new" rx="236" ry="310" transform="matrix(0.804064 0.958246 -0.821787 0.689561 11969.6 19374.3)"/>
   <ellipse class="NecklacePofil83new" rx="99" ry="35" transform="matrix(0.308878 0.951102 -0.951102 0.308878 12170.6 19286.7)"/>
  </g>
  <g>
   <path class="NecklacePofil236new" d="M11920 18653c82,141 19,329 -140,421 -159,92 -354,52 -435,-89 -81,-141 -19,-330 140,-422 159,-91 354,-51 435,90z" style="fill:#39b5da"/>
   <path class="NecklacePofil232new" d="M11842 19029c-19,17 -39,32 -62,45 -159,92 -354,52 -435,-89 -81,-141 -19,-330 140,-422 23,-13 46,-23 70,-31 -112,100 -148,256 -78,377 70,121 223,167 365,120z" style="fill:#607f56"/>
   <ellipse class="NecklacePofil33new NecklacePostr4new" rx="236" ry="310" transform="matrix(0.625451 1.08331 -0.929043 0.536383 11632.6 18818.7)"/>
   <ellipse class="NecklacePofil83new" rx="99" ry="35" transform="matrix(0.139029 0.990288 -0.990288 0.139029 11845.8 18767.3)"/>
  </g>
  <g>
   <path class="NecklacePofil237new" d="M11817 18127c28,160 -95,316 -276,348 -180,32 -350,-72 -378,-233 -28,-160 95,-316 276,-348 181,-32 350,72 378,233z" style="fill:#4f74e4"/>
   <path class="NecklacePofil232new" d="M11615 18454c-23,9 -48,16 -74,21 -180,32 -350,-72 -378,-233 -28,-160 95,-316 276,-348 26,-4 51,-6 76,-5 -139,55 -226,189 -202,327 24,137 152,233 302,238z" style="fill:#ee6ccf"/>
   <ellipse class="NecklacePofil33new NecklacePostr4new" rx="236" ry="310" transform="matrix(0.217217 1.2319 -1.05647 0.186284 11490.1 18184.5)"/>
   <ellipse class="NecklacePofil83new" rx="99" ry="35" transform="matrix(-0.208054 0.978117 -0.978117 -0.208054 11708.1 18209.2)"/>
  </g>
  <g>
   <path class="NecklacePofil238new" d="M11883 17607c-28,160 -198,264 -378,232 -181,-31 -304,-187 -276,-348 28,-160 198,-264 378,-232 181,31 304,187 276,348z" style="fill:#085364"/>
   <path class="NecklacePofil232new" d="M11581 17845c-25,1 -50,-1 -76,-6 -181,-31 -304,-187 -276,-348 28,-160 198,-264 378,-232 26,4 51,11 74,20 -150,5 -278,101 -302,239 -24,137 63,271 202,327z" style="fill:#6e94fa"/>
   <ellipse class="NecklacePofil33new NecklacePostr4new" rx="236" ry="310" transform="matrix(-0.217217 1.2319 -1.05647 -0.186284 11556 17549)"/>
   <ellipse class="NecklacePofil83new" rx="99" ry="35" transform="matrix(-0.530043 0.847971 -0.847971 -0.530043 11752.3 17646.7)"/>
  </g>
  <path class="NecklacePofil239new" d="M14196 19742c-157,42 -246,220 -199,397 48,177 214,287 371,244 157,-42 247,-220 199,-397 -47,-177 -213,-286 -371,-244z" style="fill:#c35fba"/>
  <path class="NecklacePofil232new" d="M13991 19991c-5,24 -8,50 -8,76 -1,183 130,333 293,334 163,1 296,-147 297,-331 0,-26 -3,-51 -8,-76 -31,147 -149,255 -288,255 -140,-1 -256,-111 -286,-258z" style="fill:#1aabba"/>
  <ellipse class="NecklacePofil33new NecklacePostr4new" rx="236" ry="310" transform="matrix(-1.20828 0.323757 0.277653 1.03621 14282.2 20062.6)"/>
  <ellipse class="NecklacePofil83new" rx="99" ry="35" transform="matrix(0.90822 0.418492 -0.418492 0.90822 14328.7 19856.1)"/>
  <path class="NecklacePofil240new" d="M14702 19514c-141,82 -181,276 -89,435 91,159 280,222 421,140 141,-81 181,-276 89,-435 -91,-159 -280,-221 -421,-140z" style="fill:#3e32bd"/>
  <path class="NecklacePofil232new" d="M14624 19662c-11,23 -19,47 -26,72 -44,178 48,354 206,394 158,40 322,-73 366,-250 7,-26 10,-51 11,-76 -65,135 -205,212 -340,178 -136,-34 -223,-168 -217,-318z" style="fill:#0f37dd"/>
  <ellipse class="NecklacePofil33new NecklacePostr4new" rx="236" ry="310" transform="matrix(-1.08331 0.625451 0.536383 0.929043 14867.9 19801.8)"/>
  <ellipse class="NecklacePofil83new" rx="99" ry="35" transform="matrix(0.942645 0.333796 -0.333796 0.942645 14906 19595.2)"/>
  <path class="NecklacePofil241new" d="M15106 19161c-105,125 -76,321 64,439 141,118 340,112 444,-12 105,-125 76,-322 -65,-440 -140,-118 -339,-112 -443,13z" style="fill:#912cfb"/>
  <path class="NecklacePofil232new" d="M15175 19130c-17,18 -33,38 -46,61 -95,157 -60,352 79,437 140,84 330,26 425,-131 13,-22 24,-46 33,-69 -103,109 -259,142 -379,70 -119,-73 -162,-227 -112,-368z" style="fill:#964bb4"/>
  <ellipse class="NecklacePofil33new NecklacePostr4new" rx="236" ry="310" transform="matrix(-0.804064 0.958246 0.821787 0.689561 15359.9 19374.3)"/>
  <ellipse class="NecklacePofil83new" rx="99" ry="35" transform="matrix(0.976554 0.215272 0.215272 -0.976554 15372.5 19170.1)"/>
  <path class="NecklacePofil242new" d="M15409 18653c-81,141 -18,329 140,421 159,92 354,52 435,-89 82,-141 19,-330 -140,-422 -158,-91 -353,-51 -435,90z" style="fill:#cc83a1"/>
  <path class="NecklacePofil232new" d="M15564 18537c-21,13 -42,28 -61,46 -134,125 -152,323 -41,442 111,119 310,114 444,-11 19,-18 36,-37 50,-57 -128,77 -288,67 -383,-35 -95,-102 -95,-263 -9,-385z" style="fill:#15aa5f"/>
  <ellipse class="NecklacePofil33new NecklacePostr4new" rx="236" ry="310" transform="matrix(-0.625451 1.08331 0.929043 0.536383 15696.9 18818.7)"/>
  <ellipse class="NecklacePofil83new" rx="99" ry="35" transform="matrix(0.959499 0.28171 0.28171 -0.959499 15741.8 18623)"/>
  <path class="NecklacePofil243new" d="M15512 18127c-28,160 96,316 276,348 181,32 350,-72 378,-233 29,-160 -95,-316 -275,-348 -181,-32 -350,72 -379,233z" style="fill:#57146f"/>
  <path class="NecklacePofil232new" d="M15772 17880c-24,8 -47,19 -70,33 -157,94 -216,284 -132,424 84,139 279,176 436,81 23,-13 43,-29 62,-46 -142,50 -296,6 -368,-114 -72,-119 -38,-276 72,-378z" style="fill:#fe5a11"/>
  <ellipse class="NecklacePofil33new NecklacePostr4new" rx="236" ry="310" transform="matrix(-0.217217 1.2319 1.05647 0.186284 15839.4 18184.5)"/>
  <ellipse class="NecklacePofil83new" rx="99" ry="35" transform="matrix(0.864464 0.502695 0.502695 -0.864464 15954.5 18020.5)"/>
  <path class="NecklacePofil244new" d="M15447 17607c28,160 197,264 378,232 180,-31 304,-187 276,-348 -29,-160 -198,-264 -379,-232 -180,31 -304,187 -275,348z" style="fill:#b13a7e"/>
  <path class="NecklacePofil232new" d="M15810 17262c-25,-1 -50,1 -76,5 -180,32 -304,188 -276,348 29,161 198,265 379,233 25,-5 50,-12 73,-21 -150,-4 -278,-101 -302,-238 -24,-138 63,-272 202,-327z" style="fill:#9e4960"/>
  <ellipse class="NecklacePofil33new NecklacePostr4new" rx="236" ry="310" transform="matrix(0.217217 1.2319 1.05647 -0.186284 15773.5 17549)"/>
  <ellipse class="NecklacePofil83new" rx="99" ry="35" transform="matrix(0.530043 0.847971 0.847971 -0.530043 15968.5 17452.5)"/>
  <path class="NecklacePofil245new NecklacePostr3new" d="M13665 22242c101,0 191,4 286,-17 103,-23 190,-66 265,-125 20,-16 43,-38 62,-55l31 -28c30,-26 64,-58 93,-83l61 -55c14,-13 28,-25 42,-37 48,-47 92,-115 106,-207 14,-97 -13,-181 -53,-252 -18,-34 -37,-67 -55,-100 -19,-36 -38,-68 -55,-101 -18,-35 -37,-69 -55,-101 -10,-18 -18,-34 -27,-50l-28 -52c53,-23 110,-72 128,-131 10,-37 4,-78 -10,-109 -21,-47 -49,-78 -84,-110 -11,-10 -24,-20 -37,-29 -81,-53 -165,-52 -234,17 -7,7 -25,26 -29,36 -11,-1 -45,-16 -88,-21 -34,-3 -70,-2 -105,-2l-214 0 -214 0c-35,0 -72,-1 -106,2 -42,5 -77,20 -87,21 -5,-10 -22,-29 -29,-36 -69,-69 -153,-70 -235,-17 -13,9 -26,19 -36,29 -35,32 -64,63 -84,110 -14,31 -21,72 -10,109 17,59 74,108 127,131l-27 52c-9,16 -18,32 -27,50 -19,32 -38,66 -56,101 -17,33 -36,65 -55,101 -18,33 -36,66 -55,100 -39,71 -67,155 -52,252 13,92 58,160 106,207 13,12 27,24 41,37l62 55c29,25 63,57 92,83l31 28c20,17 42,39 63,55 74,59 162,102 264,125 96,21 186,17 287,17z" style="fill:#0610b4"/>
  <path class="NecklacePofil246new" d="M13665 22242c101,0 191,4 286,-17 103,-23 190,-66 265,-125 20,-16 43,-38 62,-55l31 -28c30,-26 64,-58 93,-83l61 -55c14,-13 28,-25 42,-37 12,-12 24,-25 35,-40l-30 27c-29,25 -62,57 -92,83l-31 28c-20,17 -42,39 -62,55 -75,59 -163,102 -265,124 -96,22 -185,18 -286,18 -101,0 -191,4 -287,-18 -102,-22 -190,-65 -265,-124 -20,-16 -42,-38 -62,-55l-31 -28c-30,-26 -63,-58 -92,-83l-62 -56c-14,-12 -28,-24 -41,-37 -48,-46 -93,-114 -106,-206 -15,-97 13,-181 52,-252 19,-34 37,-67 55,-101 19,-35 38,-68 55,-101 18,-34 37,-68 55,-100 10,-18 18,-34 28,-50l27 -52c-53,-23 -110,-72 -127,-131 -11,-37 -4,-78 9,-109 7,-15 14,-28 22,-39 -3,1 -7,3 -10,5 -13,9 -26,19 -36,29 -35,32 -64,63 -84,110 -14,31 -21,72 -10,109 17,59 74,108 127,131l-27 52c-9,16 -18,32 -27,50 -19,32 -38,66 -56,101 -17,33 -36,65 -55,101 -18,33 -36,66 -55,100 -39,71 -67,155 -52,252 13,92 58,160 106,207 13,12 27,24 41,37l62 55c29,25 63,57 92,83l31 28c20,17 42,39 63,55 74,59 162,102 264,125 96,21 186,17 287,17zm786 -1360c2,-4 5,-9 7,-13 -4,2 -8,4 -11,5l4 8z" style="fill:#832e45"/>
  <g>
   <path class="NecklacePofil247new" d="M14032 21221c80,-10 148,55 156,125 10,80 -54,148 -125,157 -82,11 -147,-55 -157,-125 -11,-81 56,-149 126,-157z" style="fill:#7f7011"/>
   <path class="NecklacePofil247new" d="M13298 21221c-81,-10 -148,55 -157,125 -10,80 55,148 125,157 83,11 148,-55 158,-125 11,-81 -56,-149 -126,-157z" style="fill:#6f1508"/>
  </g>
  <path class="NecklacePofil247new" d="M13665 21539c34,0 128,-2 156,3 64,10 111,48 141,98l90 149c23,37 13,94 -9,125 -11,16 -23,26 -41,38 -44,30 -99,75 -145,95 -29,14 -92,31 -130,29 -2,-10 0,-124 0,-144 0,-28 2,-18 17,-36l44 -48c10,-12 25,-21 29,-42 5,-24 -5,-43 -17,-54 -16,-14 -36,-11 -61,-11l-74 0 -74 0c-25,0 -45,-3 -61,11 -13,11 -23,30 -18,54 5,21 19,30 29,42l44 48c16,18 18,8 18,36 0,20 1,134 -1,144 -38,2 -100,-15 -130,-29 -45,-20 -101,-65 -144,-95 -18,-12 -30,-22 -42,-38 -21,-31 -32,-88 -9,-125l91 -149c30,-50 77,-88 141,-98 28,-5 121,-3 156,-3z" style="fill:#6cef02"/>
  <g>
   <path class="NecklacePofil31new" d="M14158 21448c-20,48 -66,82 -115,89 -82,10 -148,-56 -157,-125 -6,-39 7,-75 29,-102 -9,21 -13,44 -9,68 10,70 75,136 157,125 37,-5 71,-25 95,-55z" style="fill:#916933"/>
   <path class="NecklacePofil31new" d="M13152 21309c-17,21 -28,45 -31,71 -10,80 55,148 125,157 67,8 123,-34 147,-88 -29,37 -74,61 -127,54 -70,-9 -135,-77 -125,-157 2,-13 5,-25 11,-37z" style="fill:#f926e0"/>
  </g>
  <ellipse class="NecklacePofil83new" cx="13665" cy="20754" rx="435" ry="33"/>
  <path class="NecklacePofil248new" d="M14022 21937c-2,2 -3,4 -4,6 -12,17 -24,26 -42,38 -43,30 -99,75 -144,96 -30,13 -92,31 -130,28 -2,-10 -1,-123 -1,-144 0,-27 2,-17 18,-36l9 -9c-1,3 -1,8 -1,16 0,20 -2,134 0,144 38,2 101,-15 130,-29 46,-20 101,-65 145,-95 7,-5 14,-10 20,-15zm-236 -87c3,-4 5,-9 6,-15 5,-23 -5,-43 -18,-53 -16,-15 -36,-12 -61,-12l-74 0 -74 0c-20,0 -37,-2 -51,5 4,-9 9,-17 16,-23 16,-14 36,-11 61,-11l74 0 74 0c25,0 45,-3 61,11 12,11 22,30 17,54 -4,21 -19,30 -29,42l-2 2zm-208 225c0,16 -1,27 -1,30 -38,3 -101,-15 -130,-28 -46,-21 -101,-66 -145,-96 -18,-12 -30,-21 -41,-38 -22,-31 -32,-88 -9,-125l91 -149c10,-17 22,-32 36,-46 -4,5 -8,11 -11,17l-91 149c-23,37 -12,94 9,125 12,16 24,26 42,38 43,30 99,75 144,95 24,11 69,24 106,28z" style="fill:#8f812d"/>
  <ellipse class="NecklacePofil84new" cx="13665" cy="20544" rx="140" ry="128"/>
 </g><g id="BraceletSteel-Small">
 <animateTransform additive="sum" attributeName="transform" dur="10" repeatCount="indefinite" type="translate" values="0;0 200;0;0 200;0;0 200;0;0 200;0"/>
  <metadata id="CorelCorpID_1Corel-Layer"/>
  <g id="_2658459775744">
   <path class="BraceletSteel-Smallfil10 BraceletSteel-Smallstr1" d="M9225 20848c-120,-53 -188,-167 -132,-286 55,-120 171,-126 295,-79 313,119 925,575 1105,849 73,110 85,223 -18,305 -104,82 -241,37 -319,-69 -194,-264 -613,-580 -931,-720z" style="fill:#ef7010"/>
   <path class="BraceletSteel-Smallfil11 BraceletSteel-Smallstr1" d="M18138 20848c121,-53 189,-167 133,-286 -55,-120 -172,-126 -295,-79 -313,119 -925,575 -1106,849 -72,110 -84,223 19,305 103,82 241,37 319,-69 194,-264 613,-580 930,-720z" style="fill:#6101ef"/>
  </g>
 </g><g id="Head-Hedgehog5">
 <animateTransform additive="sum" attributeName="transform" dur="10" repeatCount="indefinite" type="translate" values="0;0 200;0;0 200;0;0 200;0;0 200;0"/>
  <metadata id="CorelCorpID_81Corel-Layer"/>
  <path class="Head-Hedgehog5fil111" d="M13682 9615c-2469,0 -5181,2446 -5797,4997 -451,1869 744,3404 3083,4213 955,331 1878,320 2714,320 835,0 1759,11 2714,-320 2339,-809 3534,-2344 3083,-4213 -616,-2551 -3328,-4997 -5797,-4997z" style="fill:#57357a"/>
  <path class="Head-Hedgehog5fil11" d="M8999 12331c-527,703 -922,1487 -1114,2281 -451,1869 744,3404 3083,4213 576,186 922,234 1286,273 -3444,-1069 -4914,-3710 -3255,-6767z" style="fill:#6b5e08"/>
  <path class="Head-Hedgehog5fil10" d="M8591 12934c-489,892 -792,1791 -690,2884 71,443 248,856 524,1232 378,518 941,966 1664,1328 138,69 902,452 1624,644 -569,-34 -1505,-419 -1666,-498 -757,-375 -1346,-843 -1743,-1385 -289,-395 -476,-828 -551,-1293 -151,-959 215,-2204 838,-2912z" style="fill:#513397"/>
  <path class="Head-Hedgehog5fil10" d="M18773 12934c489,892 792,1791 690,2884 -71,443 -248,856 -524,1232 -378,518 -941,966 -1664,1328 -138,69 -902,452 -1625,644 570,-34 1506,-419 1667,-498 757,-375 1346,-843 1743,-1385 289,-395 476,-828 550,-1293 151,-959 -215,-2204 -837,-2912z" style="fill:#be4ef0"/>
  <path class="Head-Hedgehog5fil116" d="M13682 13067c-1647,0 -800,1995 -3425,2888 -1518,517 649,2815 3425,2815 2776,0 4943,-2298 3425,-2815 -2625,-893 -1778,-2888 -3425,-2888z" style="fill:#026d07"/>
 </g><g id="Mouth-Hedgehog7">
 <animateTransform additive="sum" attributeName="transform" dur="10" repeatCount="indefinite" type="translate" values="0;0 200;0;0 200;0;0 200;0;0 200;0"/>
  <metadata id="CorelCorpID_91Corel-Layer"/>
  <path class="Mouth-Hedgehog7fil4 Mouth-Hedgehog7str0" d="M12295 17440c293,509 1362,356 1387,-421" style="fill:#4a2c9e"/>
  <path class="Mouth-Hedgehog7fil4 Mouth-Hedgehog7str0" d="M15069 17440c-293,509 -1362,356 -1387,-421" style="fill:#f40c03"/>
  <path class="Mouth-Hedgehog7fil43" d="M13096 17788c427,-126 566,-161 742,-147 -44,-121 -87,-242 -131,-363 -194,171 -417,339 -611,510z" style="fill:#44ae9d"/>
  <path class="Mouth-Hedgehog7fil122 Mouth-Hedgehog7str0" d="M13726 17559c517,37 499,644 921,659 232,8 371,-351 135,-552 -226,-192 -735,-241 -1056,-107z" style="fill:#131fcd"/>
 </g><g id="Eyes-Hedgehog7">
 <animateTransform additive="sum" attributeName="transform" dur="10" repeatCount="indefinite" type="translate" values="0;0 200;0;0 200;0;0 200;0;0 200;0"/>
  <metadata id="CorelCorpID_101Corel-Layer"/>
  <path class="Eyes-Hedgehog7fil157" d="M9730 16395c618,339 1878,365 2380,-347 590,-836 -108,-2783 -1068,-2887 -640,-69 -1276,283 -1633,759 -728,972 -352,2105 321,2475z"/>
  <path class="Eyes-Hedgehog7fil162" d="M12309 15348l-1385 -568 1349 943c24,-173 73,-99 36,-375zm-1401 -587l1306 204c15,-1384 -1037,-258 -1312,-223 -19,3 -23,66 -34,57l-1205 -1047 -227 142 -49 56 1483 867c43,5 42,-30 38,-56zm-1721 -478c-55,94 -110,299 -142,392l1795 138 -1653 -530zm-159 737c-7,101 4,270 18,365l1802 -557 -1820 192zm156 748c48,115 108,221 176,315l1510 -1249 -1686 934zm517 599c24,19 95,56 119,72 63,41 160,96 225,126l840 -1726 -1184 1528zm1139 235l65 -1773c-145,588 -290,1175 -435,1763 122,33 283,52 370,10zm690 -128l-611 -1653c88,585 176,1170 264,1756 120,-6 244,-27 347,-103zm554 -392l-1158 -1282c306,508 612,1017 918,1525 59,-28 194,-133 240,-243z"/>
  <path class="Eyes-Hedgehog7fil163" d="M10633 13395c636,-148 1273,283 1424,964 151,680 -242,1352 -878,1500 -636,148 -1274,-284 -1425,-964 -150,-680 243,-1352 879,-1500z"/>
  <path class="Eyes-Hedgehog7fil4 Eyes-Hedgehog7str1" d="M9730 16395c618,339 1878,365 2380,-347 590,-836 -108,-2783 -1068,-2887 -640,-69 -1276,283 -1633,759 -728,972 -352,2105 321,2475z"/>
  <path class="Eyes-Hedgehog7fil128" d="M12302 15119c14,-955 -620,-1889 -1260,-1958 -640,-69 -1276,283 -1633,759 -152,204 -366,628 -403,966 408,-650 1375,-1191 1947,-1104 689,104 1154,624 1349,1337z"/>
  <path class="Eyes-Hedgehog7fil124" d="M10050 12902c140,23 216,-177 744,-324 485,-136 784,-40 886,-206 113,-186 -179,-815 -450,-869 -829,-167 -1597,1330 -1180,1399z"/>
  <path class="Eyes-Hedgehog7fil11" d="M10050 12902c140,23 216,-177 744,-324 485,-136 784,-40 886,-206 113,-186 -179,-815 -450,-869 -829,-167 -1597,1330 -1180,1399z"/>
  <circle class="Eyes-Hedgehog7fil121" r="235" transform="matrix(1.22514 -2.21383 1.7662 0.793529 10096 14218.1)"/>
  <circle class="Eyes-Hedgehog7fil121" r="235" transform="matrix(0.511451 -0.0476309 0.0595148 0.521886 11653.1 15340)"/>
  <circle class="Eyes-Hedgehog7fil121" r="235" transform="matrix(0.554042 -1.05186 0.853042 0.366906 11751 15924.3)"/>
  <path class="Eyes-Hedgehog7fil121" d="M9249 15177c-120,779 748,1349 1178,1226 -441,-98 -1004,-604 -1178,-1226z"/>
  <path class="Eyes-Hedgehog7fil144" d="M17634 16395c-618,339 -1878,365 -2380,-347 -591,-836 108,-2783 1067,-2887 641,-69 1277,283 1633,759 729,972 353,2105 -320,2475z"/>
  <path class="Eyes-Hedgehog7fil164" d="M15055 15348l1385 -568 -1349 943c-24,-173 -73,-99 -36,-375zm1401 -587l-1306 204c-16,-1384 1037,-258 1312,-223 18,3 23,66 34,57l1205 -1047 227 142 49 56 -1483 867c-43,5 -42,-30 -38,-56zm1721 -478c55,94 110,299 141,392l-1794 138 1653 -530zm159 737c7,101 -4,270 -18,365l-1802 -557 1820 192zm-156 748c-48,115 -109,221 -176,315l-1510 -1249 1686 934zm-517 599c-24,19 -95,56 -120,72 -62,41 -159,96 -224,126l-840 -1726 1184 1528zm-1139 235l-65 -1773c145,588 290,1175 435,1763 -123,33 -283,52 -370,10zm-690 -128l611 -1653c-88,585 -176,1170 -264,1756 -121,-6 -245,-27 -347,-103zm-554 -392l1158 -1282c-306,508 -612,1017 -918,1525 -59,-28 -194,-133 -240,-243z"/>
  <path class="Eyes-Hedgehog7fil165" d="M16731 13395c-636,-148 -1273,283 -1424,964 -151,680 242,1352 878,1500 636,148 1274,-284 1424,-964 151,-680 -242,-1352 -878,-1500z"/>
  <path class="Eyes-Hedgehog7fil4 Eyes-Hedgehog7str1" d="M17634 16395c-618,339 -1878,365 -2380,-347 -591,-836 108,-2783 1067,-2887 641,-69 1277,283 1633,759 729,972 353,2105 -320,2475z"/>
  <path class="Eyes-Hedgehog7fil128" d="M15061 15119c-13,-955 620,-1889 1260,-1958 641,-69 1277,283 1633,759 153,204 367,628 404,966 -409,-650 -1375,-1191 -1947,-1104 -690,104 -1154,624 -1350,1337z"/>
  <path class="Eyes-Hedgehog7fil124" d="M17313 12902c-139,23 -215,-177 -743,-324 -485,-136 -784,-40 -886,-206 -113,-186 178,-815 450,-869 829,-167 1597,1330 1179,1399z"/>
  <path class="Eyes-Hedgehog7fil11" d="M17313 12902c-139,23 -215,-177 -743,-324 -485,-136 -784,-40 -886,-206 -113,-186 178,-815 450,-869 829,-167 1597,1330 1179,1399z"/>
  <circle class="Eyes-Hedgehog7fil121" r="235" transform="matrix(1.22514 -2.21383 1.7662 0.793529 15878.6 14218.1)"/>
  <circle class="Eyes-Hedgehog7fil121" r="235" transform="matrix(0.511451 -0.0476309 0.0595148 0.521886 17303.5 15075.5)"/>
  <circle class="Eyes-Hedgehog7fil121" r="235" transform="matrix(0.554042 -1.05186 0.853042 0.366906 17374.1 15665.3)"/>
  <path class="Eyes-Hedgehog7fil121" d="M18115 15177c120,779 -748,1349 -1178,1226 441,-98 1004,-604 1178,-1226z"/>
 </g><g id="Moustache-Hedgehog0">
 <animateTransform additive="sum" attributeName="transform" dur="10" repeatCount="indefinite" type="translate" values="0;0 200;0;0 200;0;0 200;0;0 200;0"/>
  <metadata id="CorelCorpID_104Corel-Layer"/>
  <path class="Moustache-Hedgehog0fil4" d="M12932 15292l1500 0 0 1420 -1500 0 0 -1420zm676 -960l301 0 0 924 -301 0 0 -924z" style="fill:#985dec"/>
 </g><g id="Nose-Hedgehog0">
 <animateTransform additive="sum" attributeName="transform" dur="10" repeatCount="indefinite" type="translate" values="0;0 200;0;0 200;0;0 200;0;0 200;0"/>
  <metadata id="CorelCorpID_112Corel-Layer"/>
  <path class="Nose-Hedgehog0fil186 Nose-Hedgehog0str0" d="M13682 16404c-251,0 -601,120 -574,299 3,16 8,34 14,52 59,162 274,374 560,374 319,0 549,-262 573,-426 27,-179 -322,-299 -573,-299z" style="fill:#9edd44"/>
 </g><g id="HatMerlin-Small">
 <animateTransform additive="sum" attributeName="transform" dur="10" repeatCount="indefinite" type="translate" values="0;0 200;0;0 200;0;0 200;0;0 200;0"/>
  <metadata id="CorelCorpID_55Corel-Layer"/>
  <g>
   <path class="HatMerlin-Smallfil13" d="M7425 13308c2911,-651 4319,594 6331,570 2279,-27 3640,-1180 6743,-504 -3165,-1245 -10700,-1121 -13074,-66z" style="fill:#99af15"/>
   <path class="HatMerlin-Smallfil316 HatMerlin-Smallstr2" d="M8410 13059c134,-1488 599,-3607 1276,-5129 837,-1882 5224,-3359 6935,-2481 1546,794 3465,3413 3625,4817 71,625 -162,1009 -1950,608 244,548 665,1536 734,2059 -1180,-247 -2278,-512 -5568,-415 -2725,79 -3939,340 -5052,541z" style="fill:#1a4ace"/>
   <path class="HatMerlin-Smallfil317" d="M17308 5987c330,262 661,580 977,929l98 174 -600 -173 -411 369 -85 -573 -556 -303 548 -182 29 -241z" style="fill:#de0497"/>
   <path class="HatMerlin-Smallfil318" d="M13781 5442c297,-68 592,-119 876,-150l24 83 570 104 -574 118 -84 260 -429 -186 -622 56 309 -232 -70 -53z" style="fill:#0b0279"/>
   <polygon class="HatMerlin-Smallfil319" points="12876,9338 13280,9861 13906,9793 13570,10347 13842,10956 13230,10775 12773,11220 12730,10554 12176,10220 12761,9989 "/>
   <polygon class="HatMerlin-Smallfil320" points="17812,11254 17154,11269 16847,11815 16592,11214 15941,11071 16442,10684 16346,10049 16910,10412 17502,10163 17350,10773 "/>
   <polygon class="HatMerlin-Smallfil321" points="15321,7166 15291,7822 15798,8252 15200,8366 15018,8979 14679,8393 14059,8342 14447,7866 14247,7222 14826,7513 "/>
   <polygon class="HatMerlin-Smallfil322" points="19164,8599 19239,9193 19809,9434 19234,9705 19151,10304 18722,9876 18100,10005 18409,9471 18108,8952 18728,9049 "/>
   <path class="HatMerlin-Smallfil323 HatMerlin-Smallstr2" d="M8372 12188c14,-250 -81,-539 243,-871 432,-443 2945,-958 4499,-1014 1554,-55 4515,154 5518,1114 290,278 180,496 212,756 29,244 223,247 332,757 -779,-306 -2257,-656 -5547,-587 -2590,55 -4496,304 -5467,498 -188,38 191,-324 210,-653z" style="fill:#b3a4cc"/>
   <path class="HatMerlin-Smallfil24" d="M19411 8294c456,722 774,1436 835,1972 71,625 -162,1009 -1950,608 53,80 178,254 172,388 -1199,-691 -2708,-890 -3067,-859 1362,-797 1218,-1596 438,-2519 -185,-218 -345,-294 -591,-439 -438,-258 -153,-1188 448,-520 212,236 289,472 322,735 221,-478 -90,-819 260,-986 260,-123 429,235 394,520 -35,295 -279,627 -429,704 1703,1806 3646,2231 3168,396z" style="fill:#562e44"/>
   <path class="HatMerlin-Smallfil33" d="M18375 10889c16,34 2,74 -31,91 -34,16 -74,2 -90,-32 -288,-593 -645,-1136 -1056,-1634 -140,-170 -876,-1037 -1395,-1465 429,243 1366,1218 1499,1379 418,507 780,1058 1073,1661z" style="fill:#f70db9"/>
   <path class="HatMerlin-Smallfil24" d="M14929 10404c1408,-43 3139,458 3720,1018 315,303 -16,706 429,1110 -1330,-263 -5116,-856 -9357,-215 1847,-796 5583,-459 6111,-940 331,-302 278,-882 -903,-973z" style="fill:#00ce0b"/>
   <path class="HatMerlin-Smallfil324 HatMerlin-Smallstr2" d="M4133 15065c-330,-1183 2021,-2066 3622,-2393 4183,-854 7949,-900 12219,51 1338,298 3897,1371 3294,2544 175,-891 -1709,-1521 -2911,-1804 -4082,-962 -8697,-937 -12797,-93 -1393,287 -3379,884 -3427,1695z" style="fill:#098573"/>
   <polygon class="HatMerlin-Smallfil325" points="10100,8615 10336,9205 10885,9171 10481,9746 10585,10419 10100,10185 9615,10634 9719,9915 9315,9519 9865,9309 "/>
   <path class="HatMerlin-Smallfil326" d="M11793 6398c28,64 56,128 84,192 28,63 57,127 85,191 101,10 202,22 304,35 103,14 205,30 308,47 -90,39 -181,79 -270,122 -89,43 -177,90 -264,137 2,69 4,139 6,208 2,69 5,139 7,209 -81,-32 -162,-64 -243,-95 -81,-31 -162,-60 -242,-90 -96,44 -191,88 -285,135 -95,47 -188,98 -280,149 33,-78 66,-156 100,-234 33,-78 67,-155 101,-232 -61,-42 -122,-84 -183,-125 -60,-41 -121,-81 -181,-120 98,-27 196,-53 296,-75 100,-22 202,-40 303,-57 58,-69 116,-137 175,-203 59,-66 119,-131 179,-194z" style="fill:#e921cc"/>
  </g>
 </g><g id="WeaponIcicleFront-Small">
     <animateTransform additive="sum" attributeName="transform" dur="10" repeatCount="indefinite" type="translate" values="0;0 200;0;0 200;0;0 200;0;0 200;0"/>
     <metadata id="CorelCorpID_7Corel-Layer"/>
  <g>
   <g>
    <path class="WeaponIcicleFront-Smallfil81" d="M10701.48 21761.63c26.29,46.34 49.5,96.06 69.61,148.73 85.48,71.37 170.95,142.73 256.42,214.11 234.65,90.87 441.99,233.37 546.63,456.39 117.56,98.17 235.13,196.32 352.71,294.48 254.51,78.4 429.58,220.4 545.66,455.58 103.75,86.62 207.51,173.24 311.26,259.87 241.22,100.72 388.8,233.84 535.47,447.07 412.57,344.45 825.14,688.93 1237.71,1033.39 179.31,149.72 214.56,409.41 81.63,601.51 -132.93,192.08 -388.39,250.61 -591.68,135.55 -345.89,-195.76 -702.88,-370.54 -1048.46,-567.12 -137.28,-78.09 -264.98,-172.42 -399.46,-253.63 -248.59,-74.71 -460.8,-165.27 -627.55,-363.09 -158.57,-91.46 -318.17,-181.12 -477.36,-271.47 -233.38,-39.66 -431.97,-149.48 -583.7,-332.63 -166.55,-94.94 -333.11,-189.89 -499.67,-284.83 -257.48,-47.3 -470.54,-158.39 -635.07,-362l-253.43 -144.48c449.93,-769.54 890.53,-1223.19 1179.28,-1467.43z" style="fill:#662d56"/>
    <path class="WeaponIcicleFront-Smallfil82" d="M10586.48 21863.16c21.96,42.48 41.12,88.15 57.59,136.57 102.21,85.33 204.43,170.67 306.64,256.01 215.44,79.26 413.77,205.51 499.87,417.36 134.64,112.43 269.3,224.86 403.95,337.28 240.44,67.22 394.84,190.96 496.62,414.62 118.12,98.6 236.22,197.22 354.34,295.84 233.31,93.27 363.63,213.74 501.58,418.79 417.92,348.91 835.83,697.84 1253.74,1046.76 119.55,99.82 143.05,272.94 54.43,401 -88.63,128.06 -258.93,167.09 -394.46,90.37 -345.81,-195.71 -702.71,-370.43 -1048.17,-566.95 -141.64,-80.57 -273.21,-178.59 -412.73,-261.6 -233.77,-68.8 -436.26,-148.2 -589.5,-340.82 -174.64,-100.99 -350.61,-199.66 -526,-299.33 -217.61,-31.16 -398.78,-130.21 -534.98,-304.9 -182.37,-103.96 -364.74,-207.92 -547.12,-311.87 -241.89,-39.67 -437.38,-138.32 -586.78,-334.48l-276.37 -157.56c366.82,-600.28 721.92,-993.15 987.35,-1237.09z" style="fill:#026e89"/>
    <path class="WeaponIcicleFront-Smallfil83" d="M10472.86 21971.59c15.87,36.05 29.68,74.65 41.68,115.39 120.15,100.33 240.31,200.64 360.45,300.96 191.79,66.61 384.51,174.72 448.24,374.24 153.59,128.26 307.2,256.51 460.8,384.74 118.04,29.77 231.36,79.18 318.07,167.27 60.09,61.02 95.81,127.65 126.03,203.5 133.38,111.36 266.74,222.71 400.11,334.06 114.53,43.96 219.97,103.25 309.2,189.06 63.94,61.49 109.79,127.6 157.02,200.19 423.4,353.5 846.81,707.03 1270.22,1060.54 59.77,49.9 71.51,136.47 27.21,200.5 -44.31,64.03 -129.46,83.53 -197.23,45.18 -345.73,-195.67 -702.54,-370.35 -1047.89,-566.8 -146.23,-83.18 -281.9,-185.17 -426.84,-269.92 -216.56,-62.66 -410.81,-130.17 -548.5,-316.93 -192.01,-111.38 -385.72,-219.76 -578.64,-329.53 -200.83,-22.32 -362.35,-108.87 -482.12,-274.81 -199.4,-113.66 -398.78,-227.33 -598.18,-340.99 -225.33,-32.03 -401.42,-116.14 -534.98,-304.95l-298.81 -170.33c290.63,-450.36 568.23,-774.56 794.16,-1001.37z" style="fill:#e3844d"/>
   </g>
   <path class="WeaponIcicleFront-Smallfil84" d="M10384.78 22061.37c12.18,33.37 22.52,68.9 31.77,105.7 139.39,116.39 278.8,232.76 418.18,349.14 269.14,88.19 367.19,201.16 389.4,325.13 175.1,146.21 350.22,292.42 525.33,438.61 279.67,60.93 338.26,190.37 386.78,322.92 149.97,125.2 299.93,250.42 449.89,375.62 263.67,95.06 344.37,227.05 429.08,358.24 429.21,358.35 858.43,716.73 1287.64,1075.09 -364.85,-206.5 -684.61,-360.16 -1047.6,-566.64 -132.27,-75.24 -310.55,-203.34 -441.78,-278.59 -192.84,-55.32 -384.73,-110.45 -503.78,-290.96 -211.04,-122.88 -424.34,-241.89 -636.51,-362.83 -164.09,-11.95 -312.61,-70.91 -424.09,-241.75 -217.86,-124.19 -435.74,-248.39 -653.61,-372.58 -180.36,-21.52 -351.33,-74.66 -478.98,-273.03l-343.62 -195.88c35.19,-51.24 71.59,-104.35 106.79,-152.53 57.2,-78.31 112.88,-150.11 166.62,-219.51 25.15,-28.71 48.23,-58.88 67.83,-88.79 91.61,-109.72 179.16,-211.46 270.66,-307.36z" style="fill:#4ddd23"/>
   <path class="WeaponIcicleFront-Smallfil188" d="M10242.37 22216.94c5.03,17.64 9.73,35.93 14.43,54.61 126.32,105.17 200.67,379.42 518.04,507.29 300.89,121.25 592.25,315.56 820.02,625.18 500.39,457.99 1035.83,790.78 1621.72,1258.3 -907.67,-503.58 -2201.89,-1399.68 -3353.47,-1959.98 133.68,-186.85 260.23,-347.88 379.26,-485.4z" style="fill:#62486a"/>
   <path class="WeaponIcicleFront-Smallfil189" d="M10048.24 22450.78c191.99,174.05 339.32,420.29 624.88,465.7 282.25,44.9 499.78,216.95 665.93,479.22 636.53,457.65 1281.91,914.64 1827.49,1242.63 -891.1,-506.19 -2154.37,-1380.02 -3305.19,-1936.83 63.4,-89.53 125.85,-173.06 186.89,-250.72z" style="fill:#197294"/>
   <path class="WeaponIcicleFront-Smallfil87" d="M10496.24 23003.29c-93.76,-99.16 -384.6,-320.19 -568.03,-382.26l-7.29 -2.4c26.8,-36.61 53.4,-72.15 79.76,-106.6 121.41,89.72 236.95,192.63 327.45,283.18 111.28,111.33 239.46,90.18 375.3,208.32 -26.45,-32.25 -180.72,32 -207.19,-0.24z" style="fill:#90e069"/>
   <path class="WeaponIcicleFront-Smallfil91" d="M10410.69 22210.3c-190.31,121.64 -349.39,228.25 -13.85,392.46 0,0 -312.31,-93.43 -289.27,-226.21 28.99,-35.65 57.64,-70.11 85.85,-103.16 47.92,-31.74 118.11,-64.66 217.21,-98.26l0.06 35.17z" style="fill:#46a7ce"/>
   <path class="WeaponIcicleFront-Smallfil190" d="M11325.57 23033.79c310.98,248.5 543.42,474.51 519.19,504.83 -24.22,30.31 -266.23,-159.84 -577.18,-408.32 -191.33,-152.87 -468.7,-280.5 -628.41,-316.38 -80.16,-18 70.15,-163.51 79.46,-175.16 24.22,-30.31 295.95,146.53 606.94,395.03z" style="fill:#b34def"/>
   <path class="WeaponIcicleFront-Smallfil94" d="M11946.16 23530.58c57.06,148.4 10.58,161.78 -120.82,98.16 -131.4,-63.62 -111.36,-44.06 -104.64,-97.73 18.71,-149.51 169.68,-145.48 225.46,-0.43z" style="fill:#89e1a7"/>
   <path class="WeaponIcicleFront-Smallfil191" d="M12624.63 24089.33c57.7,-0.11 263.63,216.96 263.73,271.06 0.11,54.09 -189.13,-73.69 -246.82,-73.58 -57.69,0.11 -134.39,-88.24 -134.5,-142.33 -0.1,-54.09 59.91,-55.04 117.59,-55.15z" style="fill:#cb810d"/>
   <path class="WeaponIcicleFront-Smallfil95" d="M9874.29 22683.24c895.52,463.85 3762.53,2183.32 3917.71,2415.15 106.48,159.06 -1043.02,-522.13 -2149.42,-1192.7 -139.01,14.28 -260.2,-58.82 -361.52,-219.59 -241.81,-147.15 -474.33,-289.1 -683.02,-416.32 -228.51,3.88 -400.29,-86.49 -492.51,-299.3 -131.3,-79.3 -235.97,-141.79 -305.07,-181.62 24.75,-36.16 49.35,-71.3 73.83,-105.62z" style="fill:#970de8"/>
   <path class="WeaponIcicleFront-Smallfil92" d="M10891.24 22657.45c48.79,-0.09 204.37,142.51 204.46,188.26 0.09,45.74 -69.39,-39.42 -118.18,-39.33 -48.79,0.1 -147.96,-46.72 -148.05,-92.46 -0.08,-45.74 12.98,-56.38 61.77,-56.47z" style="fill:#3bbee2"/>
   <path class="WeaponIcicleFront-Smallfil92" d="M12158.73 23783.11c95.07,75.96 166.13,145.06 158.72,154.33 -7.4,9.26 -90.47,-44.8 -185.54,-120.77 -95.06,-75.96 -166.12,-145.06 -158.72,-154.32 7.41,-9.27 90.48,44.79 185.54,120.76z" style="fill:#8102fa"/>
   <path class="WeaponIcicleFront-Smallfil80 WeaponIcicleFront-Smallstr0" d="M10365.42 22081.7c9.17,27.36 17.27,55.98 24.67,85.42 139.39,116.39 278.8,232.76 418.18,349.14 269.14,88.19 367.19,201.16 389.4,325.13 175.1,146.21 350.22,292.42 525.33,438.61 279.67,60.94 338.26,190.37 386.78,322.92 149.97,125.2 299.93,250.42 449.89,375.62 263.67,95.06 344.37,227.06 429.08,358.24 429.21,358.35 858.43,716.73 1287.64,1075.09 -364.85,-206.5 -684.61,-360.16 -1047.6,-566.64 -132.27,-75.24 -310.55,-203.34 -441.78,-278.59 -192.84,-55.32 -384.73,-110.45 -503.78,-290.96 -211.04,-122.88 -424.34,-241.89 -636.51,-362.83 -164.09,-11.95 -312.61,-70.91 -424.09,-241.74 -217.86,-124.2 -435.74,-248.4 -653.61,-372.59 -180.36,-21.52 -351.33,-74.66 -478.98,-273.03l-324.56 -185.01" style="fill:#0525e1"/>
  </g>
 </g></svg>