<svg xmlns="http://www.w3.org/2000/svg" xmlns:xlink="http://www.w3.org/1999/xlink" style="shape-rendering:geometricPrecision; text-rendering:geometricPrecision; image-rendering:optimizeQuality; fill-rule:evenodd; clip-rule:evenodd" version="1.1" viewBox="0 0 29000 29000" xml:space="preserve"><defs><style type="text/css">.HairBack-Dog0fil22 {fill:none}
.Tail-Dog1fil233 {fill:url(#Tail-Dog1id902)}
.Tail-Dog1fil26 {fill:#fffefd}
.Tail-Dog1fil14 {fill:black;fill-opacity:0.200000}
.Tail-Dog1fil22 {fill:none}
.Tail-Dog1str0 {stroke:black;stroke-width:150;stroke-linecap:round;stroke-linejoin:round}
.RightFoot-Dog3fil242 {fill:url(#RightFoot-Dog3id627)}
.RightFoot-Dog3fil14 {fill:black;fill-opacity:0.200000}
.RightFoot-Dog3fil22 {fill:none}
.RightFoot-Dog3fil32 {fill:black;fill-rule:nonzero}
.RightLeg-Dog0fil243 {fill:url(#RightLeg-Dog0id281)}
.RightLeg-Dog0fil32 {fill:black;fill-rule:nonzero}
.RightLeg-Dog0fil14 {fill:black;fill-opacity:0.200000}
.LeftFoot-Dog3fil248 {fill:url(#LeftFoot-Dog3id636)}
.LeftFoot-Dog3fil14 {fill:black;fill-opacity:0.200000}
.LeftFoot-Dog3fil22 {fill:none}
.LeftFoot-Dog3fil32 {fill:black;fill-rule:nonzero}
.LeftLeg-Dog0fil249 {fill:url(#LeftLeg-Dog0id285)}
.LeftLeg-Dog0fil32 {fill:black;fill-rule:nonzero}
.LeftLeg-Dog0fil14 {fill:black;fill-opacity:0.200000}
.RightHand-Dog5fil256 {fill:url(#RightHand-Dog5id168)}
.RightHand-Dog5fil258 {fill:url(#RightHand-Dog5id375)}
.RightHand-Dog5fil14 {fill:black;fill-opacity:0.200000}
.RightHand-Dog5fil22 {fill:none}
.RightHand-Dog5str0 {stroke:black;stroke-width:150;stroke-linecap:round;stroke-linejoin:round}
.RightPaw-Dog0fil259 {fill:url(#RightPaw-Dog0id406)}
.RightPaw-Dog0fil14 {fill:black;fill-opacity:0.200000}
.RightPaw-Dog0fil32 {fill:black;fill-rule:nonzero}
.LeftHand-Dog5fil262 {fill:url(#LeftHand-Dog5id426)}
.LeftHand-Dog5fil264 {fill:url(#LeftHand-Dog5id18)}
.LeftHand-Dog5fil14 {fill:black;fill-opacity:0.200000}
.LeftHand-Dog5fil22 {fill:none}
.LeftHand-Dog5str0 {stroke:black;stroke-width:150;stroke-linecap:round;stroke-linejoin:round}
.LeftPaw-Dog0fil265 {fill:url(#LeftPaw-Dog0id974)}
.LeftPaw-Dog0fil14 {fill:black;fill-opacity:0.200000}
.LeftPaw-Dog0fil32 {fill:black;fill-rule:nonzero}
.Body-Dog5fil267 {fill:url(#Body-Dog5id28)}
.Body-Dog5fil14 {fill:black;fill-opacity:0.200000}
.Body-Dog5fil32 {fill:black;fill-rule:nonzero}
.Head-Dog0fil330 {fill:url(#Head-Dog0id327)}
.Head-Dog0fil14 {fill:black;fill-opacity:0.200000}
.Head-Dog0fil331 {fill:url(#Head-Dog0id277)}
.Head-Dog0fil32 {fill:black;fill-rule:nonzero}
.Mouth-Dog0fil100 {fill:black}
.Mouth-Dog0fil22 {fill:none}
.Mouth-Dog0str0 {stroke:black;stroke-width:150;stroke-linecap:round;stroke-linejoin:round}
.Eyes-Dog5fil368 {fill:url(#Eyes-Dog5id916)}
.Eyes-Dog5fil369 {fill:url(#Eyes-Dog5id631)}
.Eyes-Dog5fil370 {fill:url(#Eyes-Dog5id1078)}
.Eyes-Dog5fil152 {fill:white}
.Eyes-Dog5fil157 {fill:black;fill-opacity:0.501961}
.Eyes-Dog5fil371 {fill:url(#Eyes-Dog5id915)}
.Eyes-Dog5fil372 {fill:url(#Eyes-Dog5id622)}
.Eyes-Dog5fil373 {fill:url(#Eyes-Dog5id1076)}
.Eyes-Dog5fil155 {fill:#7b5e45}
.Eyes-Dog5fil14 {fill:black;fill-opacity:0.200000}
.Eyes-Dog5fil22 {fill:none}
.Eyes-Dog5str4 {stroke:black;stroke-width:150}
.Moustache-Dog4fil409 {fill:url(#Moustache-Dog4id408)}
.Nose-Dog0fil416 {fill:url(#Nose-Dog0id907)}
.Nose-Dog0str0 {stroke:black;stroke-width:150;stroke-linecap:round;stroke-linejoin:round}
.BraceletLeather-Mediumfil43new {fill:white;fill-opacity:0.200000}
.BraceletLeather-Mediumfil46new {fill:white;fill-rule:nonzero;fill-opacity:0.200000}
.BraceletLeather-Mediumfil42new {fill:url(#BraceletLeather-Mediumid14new)}
.BraceletLeather-Mediumstr3new {stroke:black;stroke-width:100;stroke-linecap:round;stroke-linejoin:round}
.BraceletLeather-Mediumfil33new {fill:none}
.BraceletLeather-Mediumfil44new {fill:url(#BraceletLeather-Mediumid88new)}
.BraceletLeather-Mediumfil45new {fill:url(#BraceletLeather-Mediumid672new);fill-rule:nonzero}
.BraceletLeather-Mediumstr4new {stroke:black;stroke-width:100}
.BraceletLeather-Mediumfil47new {fill:none;fill-rule:nonzero}
.BraceletLeather-Mediumfil48new {fill:url(#BraceletLeather-Mediumid15new)}
.BraceletLeather-Mediumfil49new {fill:url(#BraceletLeather-Mediumid207new)}
.BraceletLeather-Mediumfil50new {fill:url(#BraceletLeather-Mediumid690new);fill-rule:nonzero}
.NecklaceYinYangfil225new {fill:url(#NecklaceYinYangid676new);fill-rule:nonzero}
.NecklaceYinYangfil46new {fill:white;fill-rule:nonzero;fill-opacity:0.200000}
.NecklaceYinYangfil84new {fill:black}
.NecklaceYinYangfil83new {fill:white}
.NecklaceYinYangfil47new {fill:none;fill-rule:nonzero}
.NecklaceYinYangstr4new {stroke:black;stroke-width:100}
.NecklaceYinYangfil226new {fill:url(#NecklaceYinYangid677new);fill-rule:nonzero}
.NecklaceYinYangstr3new {stroke:black;stroke-width:100;stroke-linecap:round;stroke-linejoin:round}
.NecklaceYinYangfil227new {fill:url(#NecklaceYinYangid669new);fill-rule:nonzero}
.NecklaceYinYangfil228new {fill:url(#NecklaceYinYangid705new);fill-rule:nonzero}
.NecklaceYinYangfil229new {fill:url(#NecklaceYinYangid685new);fill-rule:nonzero}
.NecklaceYinYangfil230new {fill:url(#NecklaceYinYangid101new)}
.HatColanderBack-Mediumfil11 {fill:url(#HatColanderBack-Mediumid13)}
.HatColanderBack-Mediumstr2 {stroke:black;stroke-width:150;stroke-linecap:round;stroke-linejoin:round;stroke-miterlimit:22.9256}
.HatColanderBack-Mediumfil12 {fill:url(#HatColanderBack-Mediumid9)}
.HatColanderBack-Mediumfil13 {fill:url(#HatColanderBack-Mediumid1)}
.HatColanderBack-Mediumstr1 {stroke:black;stroke-width:150;stroke-miterlimit:22.9256}
.HatColander-Mediumfil14 {fill:black;fill-opacity:0.301961}
.HatColander-Mediumfil1 {fill:#25252D;fill-opacity:0.501961}
.HatColander-Mediumfil3 {fill:#25252D;fill-opacity:0.400000}
.HatColander-Mediumfil17 {fill:black;fill-opacity:0.400000}
.HatColander-Mediumfil5 {fill:#25252D;fill-opacity:0.301961}
.HatColander-Mediumfil6 {fill:#FEF7F5;fill-rule:nonzero}
.HatColander-Mediumfil7 {fill:#25252D;fill-rule:nonzero;fill-opacity:0.901961}
.HatColander-Mediumfil8 {fill:#FEF7F5;fill-opacity:0.501961}
.HatColander-Mediumfil15 {fill:url(#HatColander-Mediumid16)}
.HatColander-Mediumstr3 {stroke:black;stroke-width:7.62;stroke-miterlimit:22.9256}
.HatColander-Mediumfil2 {fill:none}
.HatColander-Mediumstr0 {stroke:black;stroke-width:150;stroke-linejoin:round;stroke-miterlimit:22.9256}
.HatColander-Mediumfil16 {fill:url(#HatColander-Mediumid17)}
.HatColander-Mediumstr2 {stroke:black;stroke-width:150;stroke-linecap:round;stroke-linejoin:round;stroke-miterlimit:22.9256}
.HatColander-Mediumfil18 {fill:url(#HatColander-Mediumid11)}
.HatColander-Mediumfil19 {fill:url(#HatColander-Mediumid6)}
</style><linearGradient gradientUnits="userSpaceOnUse" id="Tail-Dog1id902" x1="14705.4" x2="18334" xlink:href="#Tail-Dog1id74" y1="22521" y2="17924.8">
  </linearGradient><linearGradient gradientUnits="userSpaceOnUse" id="RightFoot-Dog3id627" x1="16691.1" x2="16037.9" y1="25524" y2="23422.2">
   <stop offset="0" style="stop-opacity:1; stop-color:#a1846a"/>
   <stop offset="0.329412" style="stop-opacity:1; stop-color:#d9d9cc"/>
   <stop offset="0.619608" style="stop-opacity:1; stop-color:#fffffc"/>
   <stop offset="1" style="stop-opacity:1; stop-color:#fffffc"/>
  </linearGradient><linearGradient gradientUnits="userSpaceOnUse" id="RightLeg-Dog0id281" x1="15476.3" x2="15476.3" xlink:href="#RightLeg-Dog0id19" y1="24199" y2="20934.6">
  </linearGradient><linearGradient gradientUnits="userSpaceOnUse" id="LeftFoot-Dog3id636" x1="10586.2" x2="11300.1" xlink:href="#LeftFoot-Dog3id627" y1="25486.1" y2="23460.1">
  </linearGradient><linearGradient gradientUnits="objectBoundingBox" id="LeftLeg-Dog0id285" x1="50%" x2="50%" xlink:href="#LeftLeg-Dog0id19" y1="100%" y2="0%">
  </linearGradient><linearGradient gradientUnits="objectBoundingBox" id="RightHand-Dog5id168" x1="19.8228%" x2="80.1772%" y1="10.3299%" y2="89.6698%">
   <stop offset="0" style="stop-opacity:1; stop-color:#d9d9cc"/>
   <stop offset="0.0196078" style="stop-opacity:1; stop-color:#d9d9cc"/>
   <stop offset="0.721569" style="stop-opacity:1; stop-color:#fffffc"/>
   <stop offset="1" style="stop-opacity:1; stop-color:#fffffc"/>
  </linearGradient><linearGradient gradientUnits="userSpaceOnUse" id="RightHand-Dog5id375" x1="17082.7" x2="17082.7" xlink:href="#RightHand-Dog5id133" y1="17625.4" y2="19431.3">
  </linearGradient><linearGradient gradientUnits="userSpaceOnUse" id="RightPaw-Dog0id406" x1="18770.8" x2="18008.4" y1="21729.1" y2="19634.5">
   <stop offset="0" style="stop-opacity:1; stop-color:#ffffff"/>
   <stop offset="0.701961" style="stop-opacity:1; stop-color:#fffffc"/>
   <stop offset="1" style="stop-opacity:1; stop-color:#fffffc"/>
  </linearGradient><linearGradient gradientUnits="objectBoundingBox" id="LeftHand-Dog5id426" x1="80.1772%" x2="19.8228%" xlink:href="#LeftHand-Dog5id168" y1="10.3299%" y2="89.6698%">
  </linearGradient><linearGradient gradientUnits="userSpaceOnUse" id="LeftHand-Dog5id18" x1="10235.1" x2="10235.1" y1="19681.2" y2="17649.5">
   <stop offset="0" style="stop-opacity:1; stop-color:#a1846a"/>
   <stop offset="1" style="stop-opacity:1; stop-color:#7b5e45"/>
  </linearGradient><linearGradient gradientUnits="userSpaceOnUse" id="LeftPaw-Dog0id974" x1="8449.46" x2="9499.06" xlink:href="#LeftPaw-Dog0id406" y1="21712.6" y2="19651">
  </linearGradient><linearGradient gradientUnits="objectBoundingBox" id="Body-Dog5id28" x1="50%" x2="50%" y1="0%" y2="100%">
   <stop offset="0" style="stop-opacity:1; stop-color:#d9d9cc"/>
   <stop offset="0.101961" style="stop-opacity:1; stop-color:#d9d9cc"/>
   <stop offset="0.521569" style="stop-opacity:1; stop-color:#fffffc"/>
   <stop offset="1" style="stop-opacity:1; stop-color:#ffffff"/>
  </linearGradient><linearGradient gradientUnits="objectBoundingBox" id="Head-Dog0id327" x1="50%" x2="50%" xlink:href="#Head-Dog0id35" y1="99.9999%" y2="0%">
  </linearGradient><linearGradient gradientUnits="userSpaceOnUse" id="Head-Dog0id277" x1="13681.9" x2="13681.9" xlink:href="#Head-Dog0id132" y1="16985.2" y2="9774.7">
  </linearGradient><linearGradient gradientUnits="userSpaceOnUse" id="Eyes-Dog5id916" x1="10862.9" x2="10060.5" xlink:href="#Eyes-Dog5id27" y1="14930.3" y2="11447.3">
  </linearGradient><linearGradient gradientUnits="userSpaceOnUse" id="Eyes-Dog5id631" x1="8950.06" x2="12138.2" xlink:href="#Eyes-Dog5id57" y1="13083.2" y2="13083.2">
  </linearGradient><radialGradient cx="10734.8" cy="12890.7" fx="10734.8" fy="12890.7" gradientTransform="matrix(0.251286 1.15858 -1.06367 0.273709 21749 -3075)" gradientUnits="userSpaceOnUse" id="Eyes-Dog5id1078" r="1231.67" xlink:href="#Eyes-Dog5id1055">
  </radialGradient><linearGradient gradientUnits="userSpaceOnUse" id="Eyes-Dog5id915" x1="16500.9" x2="17303.4" xlink:href="#Eyes-Dog5id27" y1="14930.3" y2="11447.3">
  </linearGradient><linearGradient gradientUnits="userSpaceOnUse" id="Eyes-Dog5id622" x1="18413.8" x2="15225.6" xlink:href="#Eyes-Dog5id57" y1="13083.2" y2="13083.2">
  </linearGradient><radialGradient cx="16629.1" cy="12890.7" fx="16629.1" fy="12890.7" gradientTransform="matrix(-0.251286 1.15858 1.06367 0.273709 7096 -9904)" gradientUnits="userSpaceOnUse" id="Eyes-Dog5id1076" r="1231.67" xlink:href="#Eyes-Dog5id1055">
  </radialGradient><linearGradient gradientUnits="userSpaceOnUse" id="Moustache-Dog4id408" x1="13682" x2="13682" xlink:href="#Moustache-Dog4id25" y1="14213" y2="17918.9">
  </linearGradient><linearGradient gradientUnits="userSpaceOnUse" id="Nose-Dog0id907" x1="13681.9" x2="13681.9" xlink:href="#Nose-Dog0id451" y1="14020.2" y2="14838.5">
  </linearGradient><linearGradient gradientUnits="userSpaceOnUse" id="BraceletLeather-Mediumid14new" x1="8682.96" x2="8745.92" y1="19682.8" y2="19053.1">
   <stop offset="0" style="stop-opacity:1; stop-color:#683501"/>
   <stop offset="1" style="stop-opacity:1; stop-color:#B08227"/>
  </linearGradient><linearGradient gradientUnits="userSpaceOnUse" id="BraceletLeather-Mediumid88new" x1="8626.8" x2="8294.02" xlink:href="#BraceletLeather-Mediumid14new" y1="19859" y2="19314.4">
  </linearGradient><linearGradient gradientUnits="userSpaceOnUse" id="BraceletLeather-Mediumid672new" x1="8784.44" x2="10049.5" y1="19759" y2="20796.3">
   <stop offset="0" style="stop-opacity:1; stop-color:#643300"/>
   <stop offset="0.321569" style="stop-opacity:1; stop-color:#B5872A"/>
   <stop offset="1" style="stop-opacity:1; stop-color:#643300"/>
  </linearGradient><linearGradient gradientUnits="userSpaceOnUse" id="BraceletLeather-Mediumid15new" x1="18680.9" x2="18617.9" xlink:href="#BraceletLeather-Mediumid14new" y1="19682.8" y2="19053.1">
  </linearGradient><linearGradient gradientUnits="userSpaceOnUse" id="BraceletLeather-Mediumid207new" x1="18737" x2="19069.8" xlink:href="#BraceletLeather-Mediumid14new" y1="19859" y2="19314.4">
  </linearGradient><linearGradient gradientUnits="userSpaceOnUse" id="BraceletLeather-Mediumid690new" x1="18579.4" x2="17314.3" xlink:href="#BraceletLeather-Mediumid672new" y1="19759" y2="20796.3">
  </linearGradient><linearGradient gradientUnits="userSpaceOnUse" id="NecklaceYinYangid676new" x1="13681.9" x2="13681.9" xlink:href="#NecklaceYinYangid669new" y1="17208" y2="20390.5">
  </linearGradient><linearGradient gradientUnits="userSpaceOnUse" id="NecklaceYinYangid677new" x1="11189" x2="11399.5" xlink:href="#NecklaceYinYangid669new" y1="18603.5" y2="18002.2">
  </linearGradient><linearGradient gradientUnits="userSpaceOnUse" id="NecklaceYinYangid705new" x1="16170.9" x2="15961.3" xlink:href="#NecklaceYinYangid669new" y1="18602.8" y2="18004">
  </linearGradient><linearGradient gradientUnits="userSpaceOnUse" id="NecklaceYinYangid685new" x1="15099" x2="14900.7" xlink:href="#NecklaceYinYangid669new" y1="19895.5" y2="19273.3">
  </linearGradient><linearGradient gradientUnits="userSpaceOnUse" id="NecklaceYinYangid101new" x1="13681.9" x2="13681.9" y1="20483.4" y2="19943.6">
   <stop offset="0" style="stop-opacity:1; stop-color:#2B2A29"/>
   <stop offset="1" style="stop-opacity:1; stop-color:#fffefd"/>
  </linearGradient><linearGradient gradientUnits="userSpaceOnUse" id="HatColanderBack-Mediumid13" x1="7292.52" x2="5655.95" y1="11943.29" y2="11483.79">
   <stop offset="0" style="stop-opacity:1; stop-color:#1A1919"/>
   <stop offset="0.509804" style="stop-opacity:1; stop-color:#141313"/>
   <stop offset="1" style="stop-opacity:1; stop-color:#292828"/>
  </linearGradient><linearGradient gradientUnits="userSpaceOnUse" id="HatColanderBack-Mediumid9" x1="20038.65" x2="21738.47" y1="13734.64" y2="13744.05">
   <stop offset="0" style="stop-opacity:1; stop-color:#1A1919"/>
   <stop offset="0.509804" style="stop-opacity:1; stop-color:#141313"/>
   <stop offset="1" style="stop-opacity:1; stop-color:#424040"/>
  </linearGradient><linearGradient gradientUnits="userSpaceOnUse" id="HatColanderBack-Mediumid1" x1="6517.59" x2="20608.33" y1="12589.39" y2="14569.72">
   <stop offset="0" style="stop-opacity:1; stop-color:#1A1919"/>
   <stop offset="0.509804" style="stop-opacity:1; stop-color:#141313"/>
   <stop offset="1" style="stop-opacity:1; stop-color:#3B3939"/>
  </linearGradient><linearGradient gradientUnits="userSpaceOnUse" id="HatColander-Mediumid16" x1="12217.28" x2="16968.06" xlink:href="#HatColander-Mediumid0" y1="6781.97" y2="5902.27">
  </linearGradient><linearGradient gradientUnits="userSpaceOnUse" id="HatColander-Mediumid17" x1="7113.37" x2="20979.01" xlink:href="#HatColander-Mediumid3" y1="10880.56" y2="9580.49">
  </linearGradient><linearGradient gradientUnits="userSpaceOnUse" id="HatColander-Mediumid11" x1="20105.12" x2="21791.49" xlink:href="#HatColander-Mediumid3" y1="13447.66" y2="13380.46">
  </linearGradient><linearGradient gradientUnits="userSpaceOnUse" id="HatColander-Mediumid6" x1="7335.21" x2="5732.7" xlink:href="#HatColander-Mediumid5" y1="11652.97" y2="11123.55">
  </linearGradient><linearGradient gradientUnits="userSpaceOnUse" id="Tail-Dog1id74" x1="15961" x2="18418.2" y1="23174.1" y2="17871.9">
   <stop offset="0" style="stop-opacity:1; stop-color:#d9d9cc"/>
   <stop offset="1" style="stop-opacity:1; stop-color:#fffffc"/>
  </linearGradient><linearGradient gradientUnits="userSpaceOnUse" id="RightLeg-Dog0id19" x1="15490.3" x2="15490.3" y1="24284.1" y2="21188.2">
   <stop offset="0" style="stop-opacity:1; stop-color:#ffffff"/>
   <stop offset="0.439216" style="stop-opacity:1; stop-color:#ffffff"/>
   <stop offset="1" style="stop-opacity:1; stop-color:#fffffc"/>
  </linearGradient><linearGradient gradientUnits="userSpaceOnUse" id="LeftFoot-Dog3id627" x1="16691.1" x2="16037.9" y1="25524" y2="23422.2">
   <stop offset="0" style="stop-opacity:1; stop-color:#a1846a"/>
   <stop offset="0.329412" style="stop-opacity:1; stop-color:#d9d9cc"/>
   <stop offset="0.619608" style="stop-opacity:1; stop-color:#fffffc"/>
   <stop offset="1" style="stop-opacity:1; stop-color:#fffffc"/>
  </linearGradient><linearGradient gradientUnits="userSpaceOnUse" id="LeftLeg-Dog0id19" x1="15490.3" x2="15490.3" y1="24284.1" y2="21188.2">
   <stop offset="0" style="stop-opacity:1; stop-color:#ffffff"/>
   <stop offset="0.439216" style="stop-opacity:1; stop-color:#ffffff"/>
   <stop offset="1" style="stop-opacity:1; stop-color:#fffffc"/>
  </linearGradient><linearGradient gradientUnits="userSpaceOnUse" id="RightHand-Dog5id133" x1="13681.9" x2="13681.9" y1="17844" y2="15520.7">
   <stop offset="0" style="stop-opacity:1; stop-color:#f2ebe4"/>
   <stop offset="1" style="stop-opacity:1; stop-color:#fffefd"/>
  </linearGradient><linearGradient gradientUnits="objectBoundingBox" id="LeftHand-Dog5id168" x1="19.8228%" x2="80.1772%" y1="10.3299%" y2="89.6698%">
   <stop offset="0" style="stop-opacity:1; stop-color:#d9d9cc"/>
   <stop offset="0.0196078" style="stop-opacity:1; stop-color:#d9d9cc"/>
   <stop offset="0.721569" style="stop-opacity:1; stop-color:#fffffc"/>
   <stop offset="1" style="stop-opacity:1; stop-color:#fffffc"/>
  </linearGradient><linearGradient gradientUnits="userSpaceOnUse" id="LeftPaw-Dog0id406" x1="18770.8" x2="18008.4" y1="21729.1" y2="19634.5">
   <stop offset="0" style="stop-opacity:1; stop-color:#ffffff"/>
   <stop offset="0.701961" style="stop-opacity:1; stop-color:#fffffc"/>
   <stop offset="1" style="stop-opacity:1; stop-color:#fffffc"/>
  </linearGradient><linearGradient gradientUnits="userSpaceOnUse" id="Head-Dog0id35" x1="13681.9" x2="13681.9" y1="17936.7" y2="7484.8">
   <stop offset="0" style="stop-opacity:1; stop-color:#d9d9cc"/>
   <stop offset="0.4" style="stop-opacity:1; stop-color:#fffffc"/>
   <stop offset="1" style="stop-opacity:1; stop-color:#ffffff"/>
  </linearGradient><linearGradient gradientUnits="userSpaceOnUse" id="Head-Dog0id132" x1="13664.7" x2="13664.7" y1="17953.2" y2="22866.3">
   <stop offset="0" style="stop-opacity:1; stop-color:#f2ebe4"/>
   <stop offset="0.341176" style="stop-opacity:1; stop-color:#fffefd"/>
   <stop offset="1" style="stop-opacity:1; stop-color:#fffefd"/>
  </linearGradient><linearGradient gradientUnits="userSpaceOnUse" id="Eyes-Dog5id27" x1="16937.6" x2="16937.6" y1="14961.3" y2="11448.6">
   <stop offset="0" style="stop-opacity:1; stop-color:#008053"/>
   <stop offset="1" style="stop-opacity:1; stop-color:black"/>
  </linearGradient><linearGradient gradientUnits="objectBoundingBox" id="Eyes-Dog5id57" x1="100%" x2="0%" y1="50.0003%" y2="50.0003%">
   <stop offset="0" style="stop-opacity:1; stop-color:#008053"/>
   <stop offset="0.501961" style="stop-opacity:1; stop-color:#00ffa5"/>
   <stop offset="1" style="stop-opacity:1; stop-color:#008053"/>
  </linearGradient><radialGradient cx="16677.2" cy="12783.5" fx="16677.2" fy="12783.5" gradientTransform="matrix(-0.257879 1.16297 1.08696 0.253253 7083 -9849)" gradientUnits="userSpaceOnUse" id="Eyes-Dog5id1055" r="1194.51">
   <stop offset="0" style="stop-opacity:1; stop-color:#006642"/>
   <stop offset="0.75" style="stop-opacity:1; stop-color:black"/>
   <stop offset="1" style="stop-opacity:1; stop-color:black"/>
  </radialGradient><linearGradient gradientUnits="userSpaceOnUse" id="Moustache-Dog4id25" x1="13681.9" x2="13681.9" y1="13428.9" y2="17918.9">
   <stop offset="0" style="stop-opacity:1; stop-color:#e5f5f5"/>
   <stop offset="0.290196" style="stop-opacity:1; stop-color:#e5f5f5"/>
   <stop offset="1" style="stop-opacity:1; stop-color:#b6dbdb"/>
  </linearGradient><linearGradient gradientUnits="userSpaceOnUse" id="Nose-Dog0id451" x1="13653.8" x2="13653.8" y1="14108.6" y2="14926.9">
   <stop offset="0" style="stop-opacity:1; stop-color:#FFCCCC"/>
   <stop offset="1" style="stop-opacity:1; stop-color:#453F2C"/>
  </linearGradient><linearGradient gradientUnits="userSpaceOnUse" id="NecklaceYinYangid669new" x1="12270.9" x2="12467.6" y1="19894.7" y2="19277.5">
   <stop offset="0" style="stop-opacity:1; stop-color:#643300"/>
   <stop offset="1" style="stop-opacity:1; stop-color:#AB7D2D"/>
  </linearGradient><linearGradient gradientUnits="userSpaceOnUse" id="HatColander-Mediumid0" x1="11508.75" x2="15855.11" y1="6863.87" y2="5526.35">
   <stop offset="0" style="stop-opacity:1; stop-color:#979AA0"/>
   <stop offset="0.14902" style="stop-opacity:1; stop-color:#84878C"/>
   <stop offset="0.658824" style="stop-opacity:1; stop-color:#CCD1D5"/>
   <stop offset="0.788235" style="stop-opacity:1; stop-color:#FEF7F5"/>
   <stop offset="1" style="stop-opacity:1; stop-color:#E9E2E1"/>
  </linearGradient><linearGradient gradientUnits="userSpaceOnUse" id="HatColander-Mediumid3" x1="7445.4" x2="19918.48" y1="11616.9" y2="9102.07">
   <stop offset="0" style="stop-opacity:1; stop-color:#979AA0"/>
   <stop offset="0.14902" style="stop-opacity:1; stop-color:#707178"/>
   <stop offset="0.658824" style="stop-opacity:1; stop-color:#A8ACB2"/>
   <stop offset="0.788235" style="stop-opacity:1; stop-color:#D1D6DA"/>
   <stop offset="1" style="stop-opacity:1; stop-color:#ADA8A7"/>
  </linearGradient><linearGradient gradientUnits="userSpaceOnUse" id="HatColander-Mediumid5" x1="7664.02" x2="6105.53" y1="12121.58" y2="11861.41">
   <stop offset="0" style="stop-opacity:1; stop-color:#696C71"/>
   <stop offset="0.14902" style="stop-opacity:1; stop-color:#42464A"/>
   <stop offset="0.658824" style="stop-opacity:1; stop-color:#787A7F"/>
   <stop offset="0.788235" style="stop-opacity:1; stop-color:#9DA1A7"/>
   <stop offset="1" style="stop-opacity:1; stop-color:#424040"/>
  </linearGradient></defs><g id="HatColanderBack-Medium">
 <animateTransform additive="sum" attributeName="transform" dur="10" repeatCount="indefinite" type="translate" values="0;0 200;0;0 200;0;0 200;0;0 200;0"/>
  <metadata id="CorelCorpID_1Corel-Layer"/>
  <g id="_2332280073424">
   <path class="HatColanderBack-Mediumfil11 HatColanderBack-Mediumstr2" d="M7218.89 12538.44c-398.93,-188.22 -765.73,-388.61 -1160.97,-583.28 -220.43,-108.59 -390.64,-641.72 -344.31,-952.57 52.21,-350.31 126.98,233.83 423.4,368.21 406.61,184.33 759.75,419.1 1157.55,619.4 -25.21,182.73 -50.45,365.48 -75.67,548.24z" style="fill:#0c54b1"/>
   <path class="HatColanderBack-Mediumfil12 HatColanderBack-Mediumstr2" d="M19945.38 14327.03c435.36,-70.97 843.18,-162.5 1276.77,-240.68 241.83,-43.62 552.39,-509.19 593.54,-820.76 46.37,-351.13 -186.52,189.77 -508.49,237.24 -441.67,65.11 -845.84,193.45 -1283.44,276.34 -26.13,182.6 -52.24,365.23 -78.38,547.86z" style="fill:#e5cc9e"/>
   <path class="HatColanderBack-Mediumfil13 HatColanderBack-Mediumstr1" d="M13699.76 12606.17c3891.05,546.85 6984.12,1425.96 6908.57,1963.55 -75.55,537.58 -3291.12,530.07 -7182.17,-16.78 -3891.04,-546.85 -6984.12,-1425.96 -6908.57,-1963.55 75.55,-537.58 3291.13,-530.07 7182.17,16.78z" style="fill:#664919"/>
  </g>
 </g><g id="HairBack-Dog0">
 <animateTransform additive="sum" attributeName="transform" dur="10" repeatCount="indefinite" type="translate" values="0;0 200;0;0 200;0;0 200;0;0 200;0"/>
  <metadata id="CorelCorpID_115Corel-Layer"/>
  <rect class="HairBack-Dog0fil22" height="890" width="890" x="13237" y="6590"/>
 </g><g id="Tail-Dog1">
  <metadata id="CorelCorpID_119Corel-Layer"/>
  <path class="Tail-Dog1fil233" d="M13823 21789c4494,1217 6008,-1476 5166,-4408 1760,3307 158,6668 -5405,5416 -351,-52 -271,-1098 239,-1008z" style="fill:#e32046"/>
  <path class="Tail-Dog1fil26" d="M19104 19815c176,-728 133,-1571 -115,-2434 438,823 668,1650 680,2409 -116,176 -435,130 -565,25z" style="fill:#a2d26b"/>
  <path class="Tail-Dog1fil14" d="M19669 19803c28,2229 -1831,3859 -5811,3053 -15,-311 135,-692 452,-636 3431,929 5125,-421 5359,-2417z" style="fill:#2c3556"/>
  <path class="Tail-Dog1fil22 Tail-Dog1str0" d="M13823 21789c4494,1217 6008,-1476 5166,-4408 1760,3307 158,6668 -5405,5416 -351,-52 -271,-1098 239,-1008z" style="fill:#2e4a01"/>
 </g><g id="RightFoot-Dog3">
  <metadata id="CorelCorpID_127Corel-Layer"/>
  <path class="RightFoot-Dog3fil242" d="M17461 25232c-144,249 -469,331 -709,123 -82,82 -321,169 -611,76 -475,-152 -678,-627 -1088,-897 -209,-138 -43,-480 -31,-702 216,88 639,20 960,-216 332,-245 1043,-199 820,325 153,50 376,135 488,193 178,92 308,217 397,350 166,246 124,748 -226,748z" style="fill:#cf9783"/>
  <path class="RightFoot-Dog3fil14" d="M17461 25232c-144,249 -469,331 -709,123 -82,82 -321,169 -611,76 -475,-152 -678,-627 -1088,-897 -182,-120 -106,-408 -68,-624 13,30 66,32 88,19 2,85 -1,160 50,261 317,621 1468,1311 1612,663 247,396 693,243 634,-148 151,250 332,57 232,-294 150,96 185,309 179,486 -21,178 -124,335 -319,335z" style="fill:#c8c696"/>
  <path class="RightFoot-Dog3fil22" d="M16741 23949c560,135 807,327 949,532 170,244 121,751 -229,751 -144,249 -469,331 -709,123 -82,82 -321,169 -611,76 -475,-152 -614,-562 -1018,-844 -201,-140 -166,-401 -134,-554" style="fill:#84876a"/>
  <path class="RightFoot-Dog3fil32" d="M17378 25213c0,3 0,7 0,10 -59,86 -148,149 -252,169 -84,16 -174,3 -257,-45l-12 -8c47,-255 19,-572 -334,-636 167,118 191,399 163,611 -41,33 -116,65 -215,77 -89,11 -194,6 -307,-31 -265,-85 -423,-261 -589,-447 -277,-311 -611,-400 -512,-864 8,-41 -28,-86 -58,-89 -24,-2 -80,17 -89,58 -119,558 222,630 548,995 180,201 350,392 654,490 137,43 264,50 371,37 108,-13 199,-49 262,-89l3 0c116,81 258,115 400,88 143,-28 268,-114 349,-234 151,-15 258,-113 313,-251 29,-74 44,-157 44,-240 0,-135 -38,-275 -108,-376 -77,-110 -181,-216 -341,-313 -143,-86 -331,-165 -584,-231 -71,-19 -105,8 -131,48 -23,34 -14,70 26,80 271,65 468,144 612,231 139,84 229,176 295,271 53,76 81,183 81,290 0,66 -11,130 -33,185 -25,64 -65,112 -119,138 13,-317 -128,-634 -466,-624 219,111 313,298 286,700z" style="fill:#fd4de8"/>
 </g><g id="LeftFoot-Dog3">
  <metadata id="CorelCorpID_135Corel-Layer"/>
  <path class="LeftFoot-Dog3fil248" d="M9847 25232c143,249 468,331 709,123 82,82 321,169 611,76 475,-152 678,-627 1088,-897 208,-138 43,-480 31,-702 -216,88 -640,20 -960,-216 -332,-245 -1043,-199 -821,325 -152,50 -375,135 -487,193 -178,92 -308,217 -398,350 -165,246 -124,748 227,748z" style="fill:#91902e"/>
  <path class="LeftFoot-Dog3fil14" d="M9847 25232c143,249 468,331 709,123 82,82 321,169 611,76 475,-152 678,-627 1088,-897 181,-120 105,-408 68,-624 -13,30 -66,32 -88,19 -2,85 1,160 -50,261 -318,621 -1468,1311 -1612,663 -248,396 -693,243 -634,-148 -151,250 -333,57 -232,-294 -150,96 -186,309 -179,486 20,178 124,335 319,335z" style="fill:#a7a4a2"/>
  <path class="LeftFoot-Dog3fil22" d="M10566 23949c-559,135 -807,327 -949,532 -169,244 -121,751 230,751 143,249 468,331 709,123 82,82 321,169 611,76 475,-152 614,-562 1017,-844 201,-140 167,-401 134,-554" style="fill:#ab2a56"/>
  <path class="LeftFoot-Dog3fil32" d="M9929 25213c1,3 1,7 0,10 59,86 149,149 253,169 84,16 174,3 257,-45l12 -8c-48,-255 -19,-572 333,-636 -166,118 -190,399 -162,611 41,33 116,65 215,77 89,11 193,6 307,-31 265,-85 423,-261 588,-447 278,-311 612,-400 513,-864 -9,-41 27,-86 58,-89 23,-2 80,17 88,58 119,558 -222,630 -547,995 -180,201 -351,392 -655,490 -137,43 -263,50 -370,37 -109,-13 -200,-49 -262,-89l-3 0c-116,81 -259,115 -401,88 -143,-28 -267,-114 -348,-234 -151,-15 -258,-113 -313,-251 -30,-74 -44,-157 -44,-240 0,-135 38,-275 108,-376 76,-110 181,-216 341,-313 142,-86 330,-165 584,-231 71,-19 105,8 131,48 22,34 14,70 -26,80 -271,65 -468,144 -612,231 -139,84 -230,176 -295,271 -53,76 -81,183 -81,290 0,66 11,130 32,185 26,64 65,112 120,138 -13,-317 128,-634 466,-624 -219,111 -313,298 -287,700z" style="fill:#92af4a"/>
 </g><g id="RightLeg-Dog0">
  <metadata id="CorelCorpID_128Corel-Layer"/>
  <path class="RightLeg-Dog0fil243" d="M13654 20939c701,0 2353,-56 2710,226 302,239 937,901 935,1761 -2,445 -277,1009 -1000,1266 -472,76 -697,-507 -1295,-235 60,-709 -911,-790 -1350,-797l0 -2221z" style="fill:#123918"/>
  <path class="RightLeg-Dog0fil32" d="M15057 24610c33,25 62,27 88,-6 25,-32 18,-79 -15,-104 -85,-66 -111,-236 -89,-338 34,-163 71,-342 -66,-579 0,-1 -1,-3 -2,-4 -100,-171 -247,-296 -460,-378 -208,-80 -506,-119 -859,-119l0 150c335,0 616,36 805,108 180,69 302,173 385,314 0,2 1,3 2,4 108,188 77,337 48,473 -32,154 43,385 163,479zm1227 -3463c175,139 478,451 693,860 144,272 248,587 247,919 -1,245 -87,464 -218,653 -154,223 -427,476 -707,613 326,-17 760,-427 830,-528 147,-211 244,-458 244,-738 2,-360 -110,-698 -263,-989 -227,-430 -547,-760 -734,-907l-92 117z" style="fill:#9b9876"/>
  <path class="RightLeg-Dog0fil14" d="M17192 23390c67,-148 106,-305 107,-464 2,-775 -541,-1451 -869,-1752 -191,187 -220,614 -78,870 275,-293 637,273 785,794 61,212 86,417 55,552z" style="fill:#c0824d"/>
 </g><g id="LeftLeg-Dog0">
  <metadata id="CorelCorpID_136Corel-Layer"/>
  <path class="LeftLeg-Dog0fil249" d="M13654 20939c-701,0 -2353,-56 -2710,226 -303,239 -938,901 -935,1761 1,445 276,1009 1000,1266 472,76 697,-507 1294,-235 -59,-709 911,-790 1351,-797l0 -2221z" style="fill:#d81d94"/>
  <path class="LeftLeg-Dog0fil32" d="M12251 24610c-33,25 -63,27 -88,-6 -25,-32 -19,-79 14,-104 85,-66 111,-236 90,-338 -34,-163 -72,-342 65,-579 1,-1 2,-3 3,-4 100,-171 246,-296 460,-378 208,-80 506,-119 859,-119l0 150c-335,0 -616,36 -806,108 -179,69 -302,173 -384,314 -1,2 -2,3 -2,4 -109,188 -77,337 -49,473 33,154 -42,385 -162,479zm-1227 -3463c-176,139 -478,451 -694,860 -143,272 -247,587 -246,919 0,245 86,464 217,653 155,223 428,476 708,613 -326,-17 -761,-427 -831,-528 -146,-211 -243,-458 -244,-738 -1,-360 110,-698 264,-989 226,-430 547,-760 733,-907l93 117z" style="fill:#1975dc"/>
  <path class="LeftLeg-Dog0fil14" d="M10116 23390c-67,-148 -107,-305 -107,-464 -2,-775 540,-1451 869,-1752 190,187 275,614 134,870 -388,-413 -1003,879 -896,1346z" style="fill:#fc485e"/>
 </g><g id="RightHand-Dog5">
 <animateTransform additive="sum" attributeName="transform" dur="10" repeatCount="indefinite" type="translate" values="0;0 200;0;0 200;0;0 200;0;0 200;0"/>
  <metadata id="CorelCorpID_145Corel-Layer"/>
  <path class="RightHand-Dog5fil256" d="M15619 17715c247,-7 498,-52 659,-90 985,362 1779,1397 2210,2149 289,504 -636,1265 -911,1014 -400,-366 -786,-483 -1129,-559 -358,-79 -514,-1818 -829,-2514z" style="fill:#43cdfb"/>
  <path class="RightHand-Dog5fil258" d="M16055 17670c84,-14 161,-30 223,-45 745,274 1380,933 1832,1562 -198,211 -529,306 -890,201 -806,-234 -339,-1155 -1119,-1686 -16,-11 -31,-21 -46,-32z" style="fill:#9ee646"/>
  <path class="RightHand-Dog5fil22 RightHand-Dog5str0" d="M16041 17553c1079,269 1932,1403 2397,2213m-861 1022c-394,-360 -769,-512 -1113,-557" style="fill:#d61041"/>
  <path class="RightHand-Dog5fil14" d="M17401 20669c-249,-249 -500,-372 -822,-396 -156,-175 -225,-650 -133,-901 308,435 716,808 1104,1031 -30,84 -75,162 -148,228 0,12 -1,25 -1,38z" style="fill:#65c150"/>
 </g><g id="LeftHand-Dog5">
 <animateTransform additive="sum" attributeName="transform" dur="10" repeatCount="indefinite" type="translate" values="0;0 200;0;0 200;0;0 200;0;0 200;0"/>
  <metadata id="CorelCorpID_153Corel-Layer"/>
  <path class="LeftHand-Dog5fil262" d="M11744 17715c-246,-7 -497,-52 -658,-90 -985,362 -1779,1397 -2210,2149 -289,504 636,1265 911,1014 400,-366 786,-483 1129,-559 358,-79 514,-1818 828,-2514z" style="fill:#39e558"/>
  <path class="LeftHand-Dog5fil264" d="M11023 17649c-618,247 -1157,755 -1576,1282 573,88 202,544 630,722 318,133 928,-221 664,-708 -265,-486 -105,-896 282,-1296z" style="fill:#a27d69"/>
  <path class="LeftHand-Dog5fil22 LeftHand-Dog5str0" d="M11323 17553c-1079,269 -1933,1403 -2397,2213m861 1022c394,-360 769,-512 1113,-557" style="fill:#209bea"/>
  <path class="LeftHand-Dog5fil14" d="M9963 20669c249,-249 500,-372 821,-396 157,-175 226,-650 134,-901 -308,435 -717,808 -1104,1031 30,84 75,162 148,228 0,12 1,25 1,38z" style="fill:#7028d9"/>
 </g><g id="Body-Dog5">
 <animateTransform additive="sum" attributeName="transform" dur="10" repeatCount="indefinite" type="translate" values="0;0 200;0;0 200;0;0 200;0;0 200;0"/>
  <metadata id="CorelCorpID_161Corel-Layer"/>
  <path class="Body-Dog5fil267" d="M13682 23035c-1548,0 -2752,-291 -2993,-1956 -146,-1010 387,-2357 984,-3487 334,54 1089,70 2009,70 920,0 1675,-16 2008,-70 598,1130 1131,2477 985,3487 -242,1665 -1445,1956 -2993,1956z" style="fill:#832a97"/>
  <path class="Body-Dog5fil14" d="M12620 22967c-1015,-156 -1748,-629 -1931,-1888 -72,-498 21,-1078 206,-1674 -224,2001 425,3224 1725,3562z" style="fill:#d2d91a"/>
  <path class="Body-Dog5fil14" d="M14743 22967c1016,-156 1749,-629 1932,-1888 72,-498 -21,-1078 -206,-1674 224,2001 -425,3224 -1726,3562z" style="fill:#f7ffed"/>
  <path class="Body-Dog5fil32" d="M11012 22044c-250,-321 -348,-641 -397,-954 -59,-377 -28,-1005 180,-1327 -79,420 -89,912 -32,1305 50,341 104,572 249,976z" style="fill:#97c419"/>
  <path class="Body-Dog5fil32" d="M16352 22044c250,-321 347,-641 397,-954 59,-377 24,-998 -184,-1320 78,421 93,905 36,1298 -50,341 -104,572 -249,976z" style="fill:#670f6b"/>
  <path class="Body-Dog5fil14" d="M11368 21026c280,417 694,319 860,137 327,-356 -225,-896 231,-1499 -625,341 -343,915 -510,1234 -94,182 -374,226 -581,128z" style="fill:#e8bc8d"/>
  <path class="Body-Dog5fil14" d="M11977 21414c323,606 846,408 984,186 259,-416 -175,-784 141,-1547 -604,438 -218,890 -470,1328 -79,138 -324,276 -655,33z" style="fill:#9f2955"/>
  <path class="Body-Dog5fil14" d="M12741 21936c355,311 917,148 969,-144 84,264 644,418 954,16 -462,117 -774,-230 -883,-526 -120,-325 -88,-485 -5,-1007 -379,382 -295,876 -383,1280 -34,159 -309,414 -652,381z" style="fill:#3130d3"/>
  <path class="Body-Dog5fil14" d="M15462 21532c-210,397 -736,297 -871,73 -318,-530 131,-835 -322,-1527 720,367 388,975 637,1326 127,179 333,205 556,128z" style="fill:#fc9de8"/>
  <path class="Body-Dog5fil14" d="M16383 20562c-142,377 -577,276 -678,61 -204,-434 328,-700 -44,-1336 596,396 246,778 329,1073 53,192 209,320 393,202z" style="fill:#09c62e"/>
  <path class="Body-Dog5fil14" d="M15955 21022c-68,466 -610,385 -738,172 -284,-475 166,-845 -288,-1457 648,363 426,852 587,1174 91,182 264,240 439,111z" style="fill:#5e48dd"/>
  <path class="Body-Dog5fil14" d="M10968 20658c141,328 616,346 733,78 212,-485 -332,-813 43,-1465 -599,421 -244,917 -364,1252 -67,190 -192,229 -412,135z" style="fill:#a11183"/>
 </g><g id="RightPaw-Dog0">
 <animateTransform additive="sum" attributeName="transform" dur="10" repeatCount="indefinite" type="translate" values="0;0 200;0;0 200;0;0 200;0;0 200;0"/>
  <metadata id="CorelCorpID_146Corel-Layer"/>
  <path class="RightPaw-Dog0fil259" d="M17402 20631c-38,818 551,1339 943,981 309,484 1078,126 986,-356 248,-652 -532,-1279 -980,-1632 -241,-78 -377,-149 -564,-64 -316,143 -32,749 -385,1071z" style="fill:#c10788"/>
  <path class="RightPaw-Dog0fil14" d="M17402 20631c-17,192 32,393 33,395 44,201 137,399 285,544 194,184 433,219 637,33 492,772 1351,-293 810,-632 144,452 -486,750 -723,253 -324,480 -778,69 -787,-350 -5,-223 56,-314 -107,-471 -30,84 -75,162 -148,228z" style="fill:#e97afa"/>
  <path class="RightPaw-Dog0fil32" d="M18446 21611c107,-163 129,-451 -88,-537 74,121 26,386 -69,476 -138,130 -263,138 -430,31 -93,-59 -178,-155 -245,-278 -93,-172 -149,-397 -138,-656 1,-21 -7,-43 -24,-59 -52,-50 -128,-78 -180,-116 -33,-25 -76,-27 -100,6 -24,33 -10,74 23,99 44,31 87,68 130,100 -5,272 57,511 157,696 79,147 183,261 296,334 178,114 384,128 560,8 101,121 232,181 368,195 211,22 433,-69 573,-226 103,-115 160,-263 137,-425 229,-648 -410,-1166 -864,-1533 -104,-84 -134,-147 -206,-255 -23,-34 -69,-44 -104,-21 -34,23 -43,70 -20,104 80,121 120,196 236,290 356,288 865,714 854,1122 -52,-71 -158,-158 -280,-146 191,160 321,562 136,764 -110,120 -284,194 -446,177 -102,-10 -201,-57 -276,-150z" style="fill:#a0b07f"/>
 </g><g id="LeftPaw-Dog0">
 <animateTransform additive="sum" attributeName="transform" dur="10" repeatCount="indefinite" type="translate" values="0;0 200;0;0 200;0;0 200;0;0 200;0"/>
  <metadata id="CorelCorpID_154Corel-Layer"/>
  <path class="LeftPaw-Dog0fil265" d="M9962 20631c38,818 -552,1339 -944,981 -308,484 -1077,126 -986,-356 -247,-652 533,-1279 981,-1632 241,-78 377,-149 564,-64 316,143 31,749 385,1071z" style="fill:#775338"/>
  <path class="LeftPaw-Dog0fil14" d="M9962 20631c16,192 -32,393 -33,395 -44,201 -137,399 -285,544 -194,184 -433,219 -637,33 -493,772 -1351,-293 -810,-632 -144,452 485,750 723,253 324,480 778,69 787,-350 4,-223 -56,-314 107,-471 30,84 75,162 148,228z" style="fill:#797380"/>
  <path class="LeftPaw-Dog0fil32" d="M8918 21611c-107,-163 -129,-451 88,-537 -74,121 -26,386 69,476 138,130 263,138 430,31 92,-59 178,-155 245,-278 93,-172 149,-397 138,-656 -1,-21 7,-43 24,-59 52,-50 128,-78 180,-116 33,-25 75,-27 100,6 24,33 10,74 -24,99 -43,31 -86,68 -129,100 5,272 -57,511 -157,696 -80,147 -183,261 -296,334 -178,114 -384,128 -560,8 -101,121 -232,181 -369,195 -210,22 -432,-69 -572,-226 -103,-115 -161,-263 -137,-425 -229,-648 410,-1166 863,-1533 105,-84 134,-147 207,-255 23,-34 69,-44 103,-21 35,23 44,70 21,104 -81,121 -120,196 -236,290 -356,288 -865,714 -854,1122 52,-71 157,-158 280,-146 -191,160 -321,562 -136,764 110,120 284,194 446,177 102,-10 201,-57 276,-150z" style="fill:#c20ea1"/>
 </g><g id="NecklaceYinYang">
 <animateTransform additive="sum" attributeName="transform" dur="10" repeatCount="indefinite" type="translate" values="0;0 200;0;0 200;0;0 200;0;0 200;0"/>
  <metadata id="CorelCorpID_40Corel-Layer"/>
  <path class="NecklaceYinYangfil225new" d="M16543 17208c-73,675 -449,1409 -941,2000 -570,684 -1305,1183 -1920,1183 -615,0 -1350,-499 -1920,-1183 -492,-591 -868,-1325 -941,-2000l352 0c73,593 413,1245 856,1777 509,611 1145,1056 1653,1056 508,0 1144,-445 1653,-1056 442,-532 782,-1184 856,-1777l352 0z" style="fill:#a85147"/>
  <path class="NecklaceYinYangfil46new" d="M11135 16868c-273,1109 1292,3303 2547,3303 1255,0 2820,-2194 2547,-3303l-25 4c1,34 2,68 2,103 0,650 -370,1407 -871,2010 -509,611 -1145,1056 -1653,1056 -508,0 -1144,-445 -1653,-1056 -501,-603 -871,-1360 -871,-2010 0,-35 1,-69 2,-103l-25 -4z" style="fill:#b46fbe"/>
  <path class="NecklaceYinYangfil47new NecklaceYinYangstr4new" d="M16543 17208c-73,675 -449,1409 -941,2000 -570,684 -1305,1183 -1920,1183 -615,0 -1350,-499 -1920,-1183 -492,-591 -868,-1325 -941,-2000l352 0c73,593 413,1245 856,1777 509,611 1145,1056 1653,1056 508,0 1144,-445 1653,-1056 442,-532 782,-1184 856,-1777l352 0z" style="fill:#51317a"/>
  <path class="NecklaceYinYangfil226new NecklaceYinYangstr3new" d="M11302 18631c-392,0 -362,-385 -163,-550 197,-163 493,-157 449,148 -114,-87 -503,248 -286,402z" style="fill:#02a92c"/>
  <path class="NecklaceYinYangfil227new NecklaceYinYangstr3new" d="M12385 19918c-393,11 -359,-370 -179,-545 182,-179 487,-172 453,134 -117,-83 -496,263 -274,411z" style="fill:#015468"/>
  <path class="NecklaceYinYangfil228new NecklaceYinYangstr3new" d="M16062 18631c392,0 345,-403 163,-550 -200,-160 -493,-157 -449,148 114,-87 503,248 286,402z" style="fill:#b8095a"/>
  <path class="NecklaceYinYangfil229new NecklaceYinYangstr3new" d="M14979 19918c393,11 384,-357 179,-545 -202,-187 -487,-172 -453,134 117,-83 496,263 274,411z" style="fill:#99114e"/>
  <g>
   <circle class="NecklaceYinYangfil84new" r="1577" transform="matrix(-0.552338 -0.290723 0.290723 -0.552338 13681.9 21396.4)"/>
   <g>
    <path class="NecklaceYinYangfil84new" d="M14075 20650c412,217 570,727 353,1139 -215,409 -719,568 -1129,359l0 0c-3,-2 -7,-4 -10,-5l0 0c-206,-109 -285,-364 -177,-570 109,-206 364,-285 570,-177l0 0c206,109 461,30 570,-176 108,-207 29,-462 -177,-570z" style="fill:#1efb6d"/>
    <path class="NecklaceYinYangfil83new" d="M13289 22143c-412,-217 -570,-727 -353,-1139 215,-409 718,-568 1129,-359l0 0c3,2 7,3 10,5l0 0c206,108 285,363 177,570 -109,206 -364,285 -570,176l0 0c-206,-108 -461,-29 -570,177 -108,206 -29,461 177,570z" style="fill:#c27586"/>
    <path class="NecklaceYinYangfil84new" d="M13943 20901c67,35 93,119 58,187 -36,67 -119,93 -187,58 -68,-36 -94,-120 -58,-187 36,-68 119,-94 187,-58z" style="fill:#65fab2"/>
    <path class="NecklaceYinYangfil83new" d="M13421 21892c-68,-36 -94,-119 -58,-187 36,-67 119,-93 187,-58 68,36 93,119 58,187 -36,68 -119,94 -187,58z" style="fill:#105a10"/>
   </g>
  </g>
  <path class="NecklaceYinYangfil230new NecklaceYinYangstr4new" d="M13599 19944l166 0c25,0 47,21 46,46l-24 447c-1,26 -20,46 -46,46l-119 0c-25,0 -44,-20 -46,-46l-23 -447c-1,-26 21,-46 46,-46z" style="fill:#09b5d7"/>
 </g><g id="BraceletLeather-Medium">
 <animateTransform additive="sum" attributeName="transform" dur="10" repeatCount="indefinite" type="translate" values="0;0 200;0;0 200;0;0 200;0;0 200;0"/>
  <metadata id="CorelCorpID_17Corel-Layer"/>
  <path class="BraceletLeather-Mediumfil42new BraceletLeather-Mediumstr3new" d="M8689 19690c-86,-160 -115,-250 -201,-410 -29,-75 3,-239 44,-232 104,3 219,4 324,-2 3,181 43,415 96,612 -87,11 -175,21 -263,32z" style="fill:#489ba6"/>
  <path class="BraceletLeather-Mediumfil43new" d="M8689 19690c-86,-160 -115,-250 -201,-410 -29,-75 3,-239 44,-232l8 0c53,219 164,421 282,626l-133 16z" style="fill:#89d25f"/>
  <path class="BraceletLeather-Mediumfil33new BraceletLeather-Mediumstr3new" d="M8689 19690c-86,-160 -115,-250 -201,-410 -29,-75 3,-239 44,-232 104,3 219,4 324,-2 3,181 43,415 96,612 -87,11 -175,21 -263,32z" style="fill:#9ba403"/>
  <path class="BraceletLeather-Mediumfil44new BraceletLeather-Mediumstr3new" d="M8645 19884c-170,-64 -251,-113 -421,-177 -71,-38 -153,-183 -118,-204 81,-66 168,-141 243,-214 121,135 304,285 474,399 -59,66 -118,131 -178,196z" style="fill:#ee7a96"/>
  <path class="BraceletLeather-Mediumfil43new" d="M8645 19884c-170,-64 -251,-113 -421,-177 -71,-38 -153,-183 -118,-204l6 -5c184,130 400,211 623,288l-90 98z" style="fill:#fe9d89"/>
  <path class="BraceletLeather-Mediumfil33new BraceletLeather-Mediumstr3new" d="M8645 19884c-170,-64 -251,-113 -421,-177 -71,-38 -153,-183 -118,-204 81,-66 168,-141 243,-214 121,135 304,285 474,399 -59,66 -118,131 -178,196z" style="fill:#dfeb96"/>
  <path class="BraceletLeather-Mediumfil45new BraceletLeather-Mediumstr4new" d="M8734 19936c-151,-67 -255,-143 -151,-272 117,-147 267,-135 481,-33 407,194 958,608 1165,923 91,139 91,306 -39,409 -129,103 -210,-20 -308,-153 -243,-331 -765,-704 -1148,-874z" style="fill:#59b734"/>
  <path class="BraceletLeather-Mediumfil46new" d="M8734 19936c-79,-35 -145,-73 -176,-119 77,-41 167,-29 240,0 506,201 953,539 1254,974 48,70 58,140 38,210 -76,-6 -138,-95 -208,-191 -243,-331 -765,-704 -1148,-874z" style="fill:#178d65"/>
  <path class="BraceletLeather-Mediumfil47new BraceletLeather-Mediumstr4new" d="M8734 19936c-151,-67 -255,-143 -151,-272 117,-147 267,-135 481,-33 407,194 958,608 1165,923 91,139 91,306 -39,409 -129,103 -210,-20 -308,-153 -243,-331 -765,-704 -1148,-874z" style="fill:#305bdb"/>
  <path class="BraceletLeather-Mediumfil48new BraceletLeather-Mediumstr3new" d="M18674 19690c87,-160 116,-250 202,-410 29,-75 -3,-239 -44,-232 -104,3 -219,4 -324,-2 -3,181 -43,415 -97,612 88,11 176,21 263,32z" style="fill:#70c4c5"/>
  <path class="BraceletLeather-Mediumfil43new" d="M18674 19690c87,-160 116,-250 202,-410 29,-75 -3,-239 -44,-232l-8 0c-53,219 -164,421 -282,626l132 16z" style="fill:#335c0b"/>
  <path class="BraceletLeather-Mediumfil33new BraceletLeather-Mediumstr3new" d="M18674 19690c87,-160 116,-250 202,-410 29,-75 -3,-239 -44,-232 -104,3 -219,4 -324,-2 -3,181 -43,415 -97,612 88,11 176,21 263,32z" style="fill:#66edb4"/>
  <path class="BraceletLeather-Mediumfil49new BraceletLeather-Mediumstr3new" d="M18718 19884c170,-64 252,-113 422,-177 71,-38 153,-183 118,-204 -81,-66 -168,-141 -243,-214 -121,135 -305,285 -475,399 60,66 119,131 178,196z" style="fill:#55dabc"/>
  <path class="BraceletLeather-Mediumfil43new" d="M18718 19884c170,-64 252,-113 422,-177 71,-38 153,-183 118,-204l-6 -5c-184,130 -400,211 -623,288l89 98z" style="fill:#cd8655"/>
  <path class="BraceletLeather-Mediumfil33new BraceletLeather-Mediumstr3new" d="M18718 19884c170,-64 252,-113 422,-177 71,-38 153,-183 118,-204 -81,-66 -168,-141 -243,-214 -121,135 -305,285 -475,399 60,66 119,131 178,196z" style="fill:#259e63"/>
  <path class="BraceletLeather-Mediumfil50new BraceletLeather-Mediumstr4new" d="M18630 19936c151,-67 255,-143 151,-272 -117,-147 -267,-135 -481,-33 -407,194 -958,608 -1165,923 -91,139 -91,306 39,409 129,103 210,-20 307,-153 244,-331 766,-704 1149,-874z" style="fill:#f5fb5c"/>
  <path class="BraceletLeather-Mediumfil46new" d="M18630 19936c79,-35 145,-73 175,-119 -76,-41 -166,-29 -239,0 -507,201 -954,539 -1254,974 -48,70 -58,140 -38,210 76,-6 137,-95 207,-191 244,-331 766,-704 1149,-874z" style="fill:#fda2b7"/>
  <path class="BraceletLeather-Mediumfil47new BraceletLeather-Mediumstr4new" d="M18630 19936c151,-67 255,-143 151,-272 -117,-147 -267,-135 -481,-33 -407,194 -958,608 -1165,923 -91,139 -91,306 39,409 129,103 210,-20 307,-153 244,-331 766,-704 1149,-874z" style="fill:#b1f47c"/>
 </g><g id="Head-Dog0">
 <animateTransform additive="sum" attributeName="transform" dur="10" repeatCount="indefinite" type="translate" values="0;0 200;0;0 200;0;0 200;0;0 200;0"/>
  <metadata id="CorelCorpID_173Corel-Layer"/>
  <path class="Head-Dog0fil330" d="M13682 7385c-3568,0 -6948,4165 -6021,7554 736,2692 3247,2816 6021,2816 2774,0 5285,-124 6021,-2816 927,-3389 -2453,-7554 -6021,-7554z" style="fill:#ac0201"/>
  <path class="Head-Dog0fil14" d="M8141 11211c-590,1190 -813,2509 -480,3728 585,2138 2290,2657 4356,2779 -3483,-543 -4783,-2989 -3876,-6507z" style="fill:#0d0dd3"/>
  <path class="Head-Dog0fil331" d="M14951 14299c-246,-317 -656,-862 -520,-1983 119,-974 291,-2562 -842,-2541 -959,18 -1083,1214 -890,2270 207,1132 36,1821 -259,2225l1 0c-41,40 -80,84 -115,131 -805,1059 -387,2584 1356,2584 1742,0 2161,-1525 1356,-2584 -27,-36 -56,-70 -87,-102l0 0z" style="fill:#bdfd31"/>
  <path class="Head-Dog0fil32" d="M13682 7459c552,0 1099,101 1626,285 302,105 959,411 1688,816 -411,-435 -1448,-891 -1639,-957 -543,-189 -1107,-294 -1675,-294 -568,0 -1132,105 -1675,294 -191,66 -1229,522 -1639,957 728,-405 1386,-711 1688,-816 527,-184 1074,-285 1626,-285z" style="fill:#f7088f"/>
  <path class="Head-Dog0fil32" d="M8070 11356c-237,514 -424,1536 -461,1878 -61,568 -26,1137 124,1685 291,1064 865,1718 1623,2120 512,270 1759,641 2840,689 -1197,57 -2559,-372 -2910,-557 -794,-420 -1394,-1103 -1697,-2213 -155,-566 -192,-1154 -129,-1740 23,-210 212,-1304 610,-1862z" style="fill:#7be98e"/>
  <path class="Head-Dog0fil32" d="M19293 11356c238,514 425,1536 462,1878 61,568 26,1137 -124,1685 -291,1064 -865,1718 -1623,2120 -513,270 -1760,641 -2841,689 1198,57 2560,-372 2910,-557 795,-420 1394,-1103 1698,-2213 155,-566 192,-1154 128,-1740 -22,-210 -211,-1304 -610,-1862z" style="fill:#6ddec2"/>
 </g><g id="Mouth-Dog0">
 <animateTransform additive="sum" attributeName="transform" dur="10" repeatCount="indefinite" type="translate" values="0;0 200;0;0 200;0;0 200;0;0 200;0"/>
  <metadata id="CorelCorpID_180Corel-Layer"/>
  <path class="Mouth-Dog0fil22 Mouth-Dog0str0" d="M12339 15237c50,401 340,551 588,511 295,-48 775,-420 755,-1216" style="fill:#964d0b"/>
  <path class="Mouth-Dog0fil22 Mouth-Dog0str0" d="M15026 15237c-50,401 -340,551 -588,511 -295,-48 -775,-420 -755,-1216" style="fill:#c8f000"/>
  <path class="Mouth-Dog0fil100" d="M13682 14485c-79,674 -150,965 -624,1303 274,-87 346,-223 624,-223 277,0 350,136 624,223 -475,-338 -545,-629 -624,-1303z" style="fill:#9ed52c"/>
 </g><g id="Eyes-Dog5">
 <animateTransform additive="sum" attributeName="transform" dur="10" repeatCount="indefinite" type="translate" values="0;0 200;0;0 200;0;0 200;0;0 200;0"/>
  <metadata id="CorelCorpID_194Corel-Layer"/>
  <path class="Eyes-Dog5fil368" d="M9316 14709c795,542 2024,313 2507,-216 859,-940 218,-2810 -801,-3082 -675,-181 -1506,115 -1894,721 -767,1199 -378,2191 188,2577z"/>
  <path class="Eyes-Dog5fil369" d="M10951 11455c-95,-18 -189,-26 -281,-30 -489,21 -926,242 -1257,602 -883,963 -325,2044 211,2390 753,486 1701,380 2078,-16 948,-994 191,-2764 -751,-2946z"/>
  <path class="Eyes-Dog5fil370" d="M10432 11457c717,-167 1436,328 1607,1095 170,768 -175,1605 -1000,1773 -824,167 -1445,-329 -1615,-1096 -170,-767 291,-1605 1008,-1772z"/>
  <circle class="Eyes-Dog5fil152" r="235" transform="matrix(0.524035 0.0816328 -0.149565 0.73298 11837.7 13342.5)"/>
  <path class="Eyes-Dog5fil152" d="M10628 13873c196,-20 220,-86 233,-328 12,242 36,308 232,328 -196,20 -220,87 -232,329 -13,-242 -37,-309 -233,-329z"/>
  <path class="Eyes-Dog5fil152" d="M10407 14003c86,-9 96,-38 102,-144 5,106 16,135 102,144 -86,9 -97,38 -102,144 -6,-106 -16,-135 -102,-144z"/>
  <path class="Eyes-Dog5fil152" d="M10913 13516c86,-9 97,-38 102,-144 6,106 16,135 102,144 -86,9 -96,38 -102,144 -5,-106 -16,-135 -102,-144z"/>
  <path class="Eyes-Dog5fil152" d="M9445 12696c121,-13 136,-54 144,-204 7,150 22,191 144,204 -122,12 -137,53 -144,203 -8,-150 -23,-191 -144,-203z"/>
  <path class="Eyes-Dog5fil152" d="M11330 13936c86,-8 97,-38 102,-144 5,106 16,136 102,144 -86,9 -97,38 -102,144 -5,-106 -16,-135 -102,-144z"/>
  <path class="Eyes-Dog5fil152" d="M8983 12791c-355,1046 387,1741 1099,1839 -390,-194 -1161,-786 -1099,-1839z"/>
  <path class="Eyes-Dog5fil157" d="M12030 14198c525,-990 -87,-2541 -1008,-2787 -675,-181 -1506,115 -1894,721 -253,396 -381,770 -417,1107l0 5 -2 12c450,-868 1361,-1493 2019,-1386 937,153 1352,1005 1302,2328z"/>
  <circle class="Eyes-Dog5fil152" r="235" transform="matrix(1.55653 -1.44003 0.848674 0.620922 9762.09 11963.6)"/>
  <circle class="Eyes-Dog5fil152" r="235" transform="matrix(0.231366 -0.483919 0.323456 0.106841 9250.92 12439.8)"/>
  <circle class="Eyes-Dog5fil152" r="235" transform="matrix(0.535512 -0.0305649 0.0623147 0.334896 10707.3 11630.7)"/>
  <path class="Eyes-Dog5fil152" d="M11542 12789c174,-18 195,-77 206,-291 11,214 32,273 206,291 -174,18 -195,77 -206,291 -11,-214 -32,-273 -206,-291z"/>
  <path class="Eyes-Dog5fil22 Eyes-Dog5str4" d="M9316 14709c795,542 2024,313 2507,-216 859,-940 218,-2810 -801,-3082 -675,-181 -1506,115 -1894,721 -767,1199 -378,2191 188,2577z"/>
  <path class="Eyes-Dog5fil371" d="M18048 14709c-795,542 -2024,313 -2507,-216 -859,-940 -218,-2810 801,-3082 675,-181 1506,115 1894,721 767,1199 378,2191 -188,2577z"/>
  <path class="Eyes-Dog5fil372" d="M16413 11455c95,-18 188,-26 281,-30 489,21 926,242 1257,602 883,963 325,2044 -211,2390 -753,486 -1701,380 -2078,-16 -948,-994 -191,-2764 751,-2946z"/>
  <path class="Eyes-Dog5fil373" d="M16932 11457c-717,-167 -1437,328 -1607,1095 -170,768 175,1605 1000,1773 824,167 1445,-329 1615,-1096 170,-767 -291,-1605 -1008,-1772z"/>
  <circle class="Eyes-Dog5fil152" r="235" transform="matrix(0.524035 0.0816328 -0.149565 0.73298 17932.8 13501)"/>
  <path class="Eyes-Dog5fil152" d="M16642 13865c196,-20 220,-86 233,-328 12,242 36,308 232,328 -196,20 -220,87 -232,329 -13,-242 -37,-309 -233,-329z"/>
  <path class="Eyes-Dog5fil152" d="M16421 13995c86,-9 96,-38 102,-144 5,106 16,135 102,144 -86,8 -97,38 -102,144 -6,-106 -16,-136 -102,-144z"/>
  <path class="Eyes-Dog5fil152" d="M16927 13508c86,-9 97,-38 102,-144 6,106 16,135 102,144 -86,9 -96,38 -102,144 -5,-106 -16,-135 -102,-144z"/>
  <path class="Eyes-Dog5fil152" d="M16021 12657c-121,-12 -136,-53 -143,-203 -8,150 -23,191 -144,203 121,13 136,54 144,203 7,-149 22,-190 143,-203z"/>
  <path class="Eyes-Dog5fil152" d="M17344 13928c86,-9 97,-38 102,-144 5,106 16,135 102,144 -86,9 -97,38 -102,144 -5,-106 -16,-135 -102,-144z"/>
  <path class="Eyes-Dog5fil152" d="M18380 12791c356,1046 -386,1741 -1098,1839 389,-194 1161,-786 1098,-1839z"/>
  <path class="Eyes-Dog5fil157" d="M15334 14198c-525,-990 87,-2541 1008,-2787 675,-181 1506,115 1894,721 253,396 381,770 417,1107l0 5 2 12c-450,-868 -1361,-1493 -2020,-1386 -936,153 -1351,1005 -1301,2328z"/>
  <circle class="Eyes-Dog5fil152" r="235" transform="matrix(1.55653 -1.44003 0.848674 0.620922 16238 11930.7)"/>
  <circle class="Eyes-Dog5fil152" r="235" transform="matrix(0.231366 -0.483919 0.323456 0.106841 15638.9 12478.2)"/>
  <circle class="Eyes-Dog5fil152" r="235" transform="matrix(0.534136 0.0490489 0.0120501 0.340431 17216.2 11630.7)"/>
  <path class="Eyes-Dog5fil152" d="M17732 12772c174,-18 195,-77 206,-291 11,214 32,273 206,291 -174,18 -195,77 -206,291 -11,-214 -32,-273 -206,-291z"/>
  <path class="Eyes-Dog5fil22 Eyes-Dog5str4" d="M18048 14709c-795,542 -2024,313 -2507,-216 -859,-940 -218,-2810 801,-3082 675,-181 1506,115 1894,721 767,1199 378,2191 -188,2577z"/>
 <g>
        <animateTransform additive="sum" attributeName="transform" dur="10" repeatCount="indefinite" type="translate" values="0;0;0;0;0;0;0;0;0;0;0;0;0;0;0;0;0;0;0;0;0;0;0;0;0;0;0;0;0;0;0;0;0;0;0;0;0;0;0;0;0;0;0;0;0;0;0;0;0;0;0;0;0;0;0;0;0;0;0;0;0;0;0;0;0;0;0;0;0;0;0;0;0;0;0;0;0;0;0;0;0;0;0;0;0;0;-1200 1500;0;-1200 1500;0"/>
        <g>
            <animateTransform additive="sum" attributeName="transform" dur="10" repeatCount="indefinite" type="rotate" values="0;0;0;0;0;0;0;0;0;0;0;0;0;0;0;0;0;0;0;0;0;0;0;0;0;0;0;0;0;0;0;0;0;0;0;0;0;0;0;0;0;0;0;0;0;0;0;0;0;0;0;0;0;0;0;0;0;0;0;0;0;0;0;0;0;0;0;0;0;0;0;0;0;0;0;0;0;0;0;0;0;0;0;0;0;0;-10;0;-10;0"/>
            <g>
                <animateTransform additive="sum" attributeName="transform" dur="10" repeatCount="indefinite" type="translate" values="0;0;0;0;0;0;0;0;0;0;0;0;0;0;0;0;0;0;0;0;0;0;0;0;0;0;0;0;0;0;0;0;0;0;0;0;0;0;0;0;0;0;0;0;0;0;0;0;0;0;0;0;0;0;0;0;0;0;0;0;0;0;0;0;0;0;0;0;0;0;0;0;0;0;0;0;0;0;0;0;0;0;0;0;0;0;-500 -100;0;-500 -100;0"/> 
                <path class="Eyes-Dog5fil155" d="M12425 8700c-113,-24 -414,256 -841,404 -391,135 -763,85 -845,252 -91,185 269,613 489,667 180,45 597,-80 920,-388 382,-364 414,-907 277,-935z"/>
            </g>
            <g>
                <animateTransform additive="sum" attributeName="transform" dur="10" repeatCount="indefinite" type="translate" values="0;0;0;0;0;0;0;0;0;0;0;0;0;0;0;0;0;0;0;0;0;0;0;0;0;0;0;0;0;0;0;0;0;0;0;0;0;0;0;0;0;0;0;0;0;0;0;0;0;0;0;0;0;0;0;0;0;0;0;0;0;0;0;0;0;0;0;0;0;0;0;0;0;0;0;0;0;0;0;0;0;0;0;0;0;0;-500 -100;0;-500 -100;0"/> 
                <path class="Eyes-Dog5fil14" d="M12425 8700c-113,-24 -414,256 -841,404 -391,135 -763,85 -845,252 -91,185 269,613 489,667 180,45 597,-80 920,-388 382,-364 414,-907 277,-935z"/>
            </g>
        </g>
    </g>  
	<g>
        <animateTransform additive="sum" attributeName="transform" dur="10" repeatCount="indefinite" type="translate" values="0;0;0;0;0;0;0;0;0;0;0;0;0;0;0;0;0;0;0;0;0;0;0;0;0;0;0;0;0;0;0;0;0;0;0;0;0;0;0;0;0;0;0;0;0;0;0;0;0;0;0;0;0;0;0;0;0;0;0;0;0;0;0;0;0;0;0;0;0;0;0;0;0;0;0;0;0;0;0;0;0;0;0;0;0;0;-800 1400;0;-800 1400;0"/>
        <g>
            <animateTransform additive="sum" attributeName="transform" dur="10" repeatCount="indefinite" type="rotate" values="0;0;0;0;0;0;0;0;0;0;0;0;0;0;0;0;0;0;0;0;0;0;0;0;0;0;0;0;0;0;0;0;0;0;0;0;0;0;0;0;0;0;0;0;0;0;0;0;0;0;0;0;0;0;0;0;0;0;0;0;0;0;0;0;0;0;0;0;0;0;0;0;0;0;0;0;0;0;0;0;0;0;0;0;0;0;10;0;10;0"/>
            <g>
                <animateTransform additive="sum" attributeName="transform" dur="10" repeatCount="indefinite" type="translate" values="0;0;0;0;0;0;0;0;0;0;0;0;0;0;0;0;0;0;0;0;0;0;0;0;0;0;0;0;0;0;0;0;0;0;0;0;0;0;0;0;0;0;0;0;0;0;0;0;0;0;0;0;0;0;0;0;0;0;0;0;0;0;0;0;0;0;0;0;0;0;0;0;0;0;0;0;0;0;0;0;0;0;0;0;0;0;2000 -5000;0;2000 -5000;0"/> 
                <path class="Eyes-Dog5fil155" d="M14939 8700c113,-24 414,256 840,404 392,135 763,85 846,252 91,185 -269,613 -489,667 -180,45 -597,-80 -920,-388 -382,-364 -414,-907 -277,-935z"/>
            </g>
            <g>
                <animateTransform additive="sum" attributeName="transform" dur="10" repeatCount="indefinite" type="translate" values="0;0;0;0;0;0;0;0;0;0;0;0;0;0;0;0;0;0;0;0;0;0;0;0;0;0;0;0;0;0;0;0;0;0;0;0;0;0;0;0;0;0;0;0;0;0;0;0;0;0;0;0;0;0;0;0;0;0;0;0;0;0;0;0;0;0;0;0;0;0;0;0;0;0;0;0;0;0;0;0;0;0;0;0;0;0;2000 -5000;0;2000 -5000;0"/> 
                <path class="Eyes-Dog5fil14" d="M14939 8700c113,-24 414,256 840,404 392,135 763,85 846,252 91,185 -269,613 -489,667 -180,45 -597,-80 -920,-388 -382,-364 -414,-907 -277,-935z"/>
            </g>
        </g>
    </g>
 </g><g id="Moustache-Dog4">
 <animateTransform additive="sum" attributeName="transform" dur="10" repeatCount="indefinite" type="translate" values="0;0 200;0;0 200;0;0 200;0;0 200;0"/>
  <metadata id="CorelCorpID_204Corel-Layer"/>
  <path class="Moustache-Dog4fil409" d="M12607 14277c12,-45 54,-72 94,-62 40,11 63,56 51,101 -24,91 -67,214 -165,327 -27,-134 -4,-275 20,-366zm2150 0c-12,-45 -54,-72 -94,-62 -40,11 -63,56 -51,101 24,91 67,214 165,327 26,-134 4,-275 -20,-366zm-1075 2748l0 0 0 0c-41,0 -75,38 -75,84 0,95 15,236 75,359l0 0 0 0 0 0 0 0c60,-123 75,-264 75,-359 0,-46 -34,-84 -75,-84zm2950 -198c-26,-38 -75,-50 -109,-26 -34,23 -41,73 -14,111 54,78 136,179 266,252 -20,-135 -89,-260 -143,-337zm-2226 673c-6,-46 -45,-79 -86,-73 -41,5 -69,47 -62,93 12,94 39,221 122,345 43,-129 39,-271 26,-365zm453 -36c-8,-45 -48,-77 -89,-69 -40,7 -67,50 -59,95 17,93 48,219 136,340 38,-131 28,-273 12,-366zm-915 96c0,-46 -34,-84 -75,-84 -42,0 -75,38 -75,84 0,95 9,225 75,359 60,-123 75,-264 75,-359zm232 -476c0,-47 -34,-84 -75,-84 -42,0 -75,37 -75,84 0,94 9,224 75,358 60,-122 75,-264 75,-358zm407 -56c-6,-46 -44,-78 -85,-73 -41,6 -69,48 -63,94 13,93 40,220 123,345 43,-130 38,-272 25,-366zm410 -88c-8,-46 -48,-77 -88,-70 -41,7 -68,50 -60,96 17,93 49,219 136,340 38,-132 28,-273 12,-366zm399 -183c-14,-44 -57,-70 -97,-58 -39,13 -60,59 -46,103 28,90 76,211 179,319 21,-135 -7,-274 -36,-364zm381 -268c-17,-43 -62,-65 -100,-50 -39,15 -57,62 -40,105 35,88 91,205 201,307 11,-136 -26,-274 -61,-362zm344 -340c-25,-38 -74,-51 -109,-28 -34,23 -41,73 -16,111 52,79 132,182 261,258 -18,-136 -84,-262 -136,-341zm228 -395c-26,-37 -75,-49 -109,-25 -34,24 -40,74 -13,112 55,77 137,178 269,249 -22,-134 -92,-258 -147,-336zm463 -245c-40,-24 -90,-14 -110,22 -21,36 -6,84 34,107 82,48 199,105 348,116 -76,-113 -190,-198 -272,-245zm29 393c-33,-32 -83,-34 -112,-5 -29,30 -26,80 8,113 67,66 166,149 308,196 -45,-128 -136,-238 -204,-304zm-274 413c-28,-37 -77,-47 -110,-22 -33,24 -38,74 -10,112 56,76 141,174 273,243 -24,-134 -97,-257 -153,-333zm-353 372c-25,-40 -74,-53 -109,-31 -35,22 -43,72 -18,111 51,80 128,184 256,262 -15,-135 -79,-263 -129,-342zm-466 564c-14,-44 -57,-71 -96,-59 -40,12 -61,58 -48,102 27,91 73,212 175,322 22,-135 -4,-274 -31,-365zm-447 91c-14,-45 -58,-70 -97,-58 -40,12 -60,58 -46,103 28,90 76,211 179,319 20,-135 -8,-274 -36,-364zm821 -249c-23,-41 -70,-58 -106,-38 -37,20 -48,69 -26,110 46,83 116,192 239,278 -7,-136 -62,-267 -107,-350zm923 -597c-31,-34 -82,-38 -112,-10 -30,29 -29,79 3,113 65,69 160,157 300,210 -40,-131 -126,-244 -191,-313zm131 -1352c-43,-18 -91,-3 -107,35 -17,38 4,84 46,103 87,38 209,81 359,75 -88,-104 -212,-175 -298,-213zm312 420c-39,-26 -89,-18 -112,17 -22,34 -9,83 30,108 79,52 193,115 341,133 -70,-117 -180,-207 -259,-258zm-88 485c-36,-30 -87,-28 -113,4 -26,32 -19,82 17,111 73,61 179,136 324,171 -56,-125 -156,-226 -228,-286zm-2865 -1414c-6,-46 -44,-78 -85,-72 -41,5 -70,47 -63,93 13,94 40,221 124,345 43,-130 38,-272 24,-366zm554 -38c-19,-42 -65,-63 -103,-46 -37,17 -53,65 -34,107 38,87 100,201 214,297 5,-136 -39,-271 -77,-358zm-4353 2230c26,-38 75,-50 109,-26 34,23 40,73 14,111 -54,78 -136,179 -266,252 20,-135 89,-260 143,-337zm2226 673c6,-46 44,-79 85,-73 42,5 70,47 63,93 -12,94 -39,221 -123,345 -43,-129 -38,-271 -25,-365zm-453 -36c8,-45 48,-77 89,-69 40,7 67,50 59,95 -17,93 -48,219 -136,340 -38,-131 -28,-273 -12,-366zm915 96c0,-46 34,-84 75,-84 42,0 75,38 75,84 0,95 -9,225 -75,359 -60,-123 -75,-264 -75,-359zm-232 -476c0,-47 34,-84 75,-84 41,0 75,37 75,84 0,94 -9,224 -75,358 -60,-122 -75,-264 -75,-358zm-408 -56c7,-46 45,-78 86,-73 41,6 69,48 63,94 -13,93 -40,220 -123,345 -43,-130 -38,-272 -26,-366zm-409 -88c8,-46 48,-77 88,-70 41,7 68,50 60,96 -17,93 -49,219 -137,340 -38,-132 -28,-273 -11,-366zm-399 -183c14,-44 57,-70 97,-58 39,13 60,59 46,103 -29,90 -76,211 -179,319 -21,-135 7,-274 36,-364zm-381 -268c17,-43 62,-65 100,-50 39,15 56,62 40,105 -35,88 -91,205 -201,307 -11,-136 26,-274 61,-362zm-344 -340c25,-38 74,-51 108,-28 35,23 42,73 17,111 -52,79 -132,182 -261,258 18,-136 83,-262 136,-341zm-229 -395c27,-37 76,-49 110,-25 34,24 40,74 13,112 -55,77 -138,178 -269,249 22,-134 92,-258 146,-336zm-462 -245c40,-24 89,-14 110,22 21,36 6,84 -34,107 -82,48 -199,105 -348,116 76,-113 190,-198 272,-245zm-29 393c33,-32 83,-34 112,-5 29,30 26,80 -8,113 -67,66 -167,149 -309,196 46,-128 137,-238 205,-304zm274 413c27,-37 77,-47 110,-22 33,24 38,74 10,112 -56,76 -141,174 -273,243 24,-134 97,-257 153,-333zm353 372c25,-40 74,-53 109,-31 35,22 43,72 18,111 -51,80 -128,184 -256,262 15,-135 79,-263 129,-342zm466 564c14,-44 56,-71 96,-59 40,12 61,58 48,102 -27,91 -73,212 -175,322 -22,-135 4,-274 31,-365zm447 91c14,-45 57,-70 97,-58 40,12 60,58 46,103 -28,90 -76,211 -179,319 -21,-135 8,-274 36,-364zm-821 -249c23,-41 70,-58 106,-38 37,20 48,69 26,110 -46,83 -116,192 -239,278 7,-136 62,-267 107,-350zm-923 -597c31,-34 82,-38 112,-10 30,29 29,79 -3,113 -65,69 -160,157 -300,210 40,-131 126,-244 191,-313zm-131 -1352c43,-18 91,-3 107,35 17,38 -4,84 -46,103 -87,38 -209,81 -359,75 88,-104 212,-175 298,-213zm-312 420c39,-26 89,-18 111,17 23,34 10,83 -29,108 -79,52 -193,115 -341,133 69,-117 180,-207 259,-258zm88 485c36,-30 86,-28 113,4 26,32 19,82 -17,111 -73,61 -179,136 -324,171 56,-125 155,-226 228,-286zm2864 -1414c7,-46 45,-78 86,-72 41,5 69,47 63,93 -13,94 -41,221 -124,345 -43,-130 -38,-272 -25,-366zm-553 -38c19,-42 65,-63 103,-46 37,17 53,65 34,107 -38,87 -100,201 -214,297 -5,-136 39,-271 77,-358z" style="fill:#95f4e5"/>
 </g><g id="Nose-Dog0">
 <animateTransform additive="sum" attributeName="transform" dur="10" repeatCount="indefinite" type="translate" values="0;0 200;0;0 200;0;0 200;0;0 200;0"/>
  <metadata id="CorelCorpID_208Corel-Layer"/>
  <path class="Nose-Dog0fil416 Nose-Dog0str0" d="M13682 14020c-283,0 -678,136 -648,338 28,185 288,481 648,481 360,0 620,-296 648,-481 30,-202 -365,-338 -648,-338z" style="fill:#fb274d"/>
 </g><g id="HatColander-Medium">
 <animateTransform additive="sum" attributeName="transform" dur="10" repeatCount="indefinite" type="translate" values="0;0 200;0;0 200;0;0 200;0;0 200;0"/>
  <metadata id="CorelCorpID_2Corel-Layer"/>
  <path class="HatColander-Mediumfil14" d="M7310.03 13145.81c-1885.26,-1081.12 6164.33,209.03 11721.28,638.48 -1748.83,-316.25 -4722.25,-929.92 -7140.62,-1230.91 -2418.37,-300.99 -4549.71,-617.09 -5232.24,-118.47 -329.39,240.63 113.3,523.54 651.58,710.9z" style="fill:#49d07c"/>
  <g id="_2331602351408">
   <path class="HatColander-Mediumfil15 HatColander-Mediumstr3" d="M16427.96 7463.02c0,0 827.79,-1325.19 754.02,-1414.33 -73.78,-89.13 -1403,-402.81 -2470.38,-552.82 -1067.37,-150.01 -2431.56,-214.86 -2527.05,-149.52 -95.49,65.35 334.97,1567.38 334.97,1567.38 651.4,91.54 657.46,15.28 1964.84,199.02 1307.37,183.74 1292.19,258.72 1943.6,350.27z" style="fill:#96097d"/>
   <path class="HatColander-Mediumfil1" d="M16996.08 6498.14c124.17,-229.39 212.15,-417.72 185.9,-449.44 -73.78,-89.14 -1403,-402.83 -2470.38,-552.84 -1067.37,-150.01 -2431.56,-214.86 -2527.05,-149.5 -33.98,23.25 -1.32,228.54 54.81,483.27 376.91,-22.82 1495.88,43.13 2401.39,170.39 905.51,127.26 1999.31,372.29 2355.33,498.12z" style="fill:#6dea04"/>
   <path class="HatColander-Mediumfil2 HatColander-Mediumstr0" d="M16427.96 7463.02c0,0 827.79,-1325.19 754.02,-1414.33 -73.78,-89.13 -1403,-402.81 -2470.38,-552.82 -1067.37,-150.01 -2431.56,-214.86 -2527.05,-149.52 -95.49,65.35 334.97,1567.38 334.97,1567.38 651.4,91.54 657.46,15.28 1964.84,199.02 1307.37,183.74 1292.19,258.72 1943.6,350.27z" style="fill:#9c1ae0"/>
   <path class="HatColander-Mediumfil3" d="M16626.92 7137.65c-322.85,-124.58 -1275.77,-340.68 -2082.25,-454.02 -806.47,-113.34 -1941.32,-279.99 -2373.44,-1295.31 63.5,238.13 348.29,1525.41 348.29,1525.41 651.4,91.54 657.46,15.28 1964.84,199.02 1307.37,183.74 1292.19,258.72 1943.6,350.27 0,0 72.28,-113.97 198.96,-325.37z" style="fill:#1d68d6"/>
   <path class="HatColander-Mediumfil16 HatColander-Mediumstr2" d="M13683.25 12813.01c-1476.82,-214.52 -6594.99,-1024.09 -7150.12,-223.43 256.42,-1072.63 1198.48,-4726.63 4855.45,-5737.68 887.98,-245.51 1901.3,-142.61 3126.85,29.63l1.4 0.21 1.41 0.18c1225.55,172.24 2227.97,352.64 3013.89,833.4 3236.62,1979.88 3135.01,5751.99 3085.83,6853.75 -312.93,-922.65 -5455.98,-1555.2 -6934.71,-1756.06z" style="fill:#a47767"/>
   <path class="HatColander-Mediumfil17" d="M13683.25 12813.01c-1477.78,-207.69 -6594.99,-1024.09 -7150.12,-223.43 54.77,-229.1 148.08,-626.63 285.18,-1040.34 1029,-567.96 5600.85,212.11 6985.39,406.7 1384.54,194.58 5994.3,704.9 6826.89,1534.49 17.75,435.48 -2.13,843.32 -12.63,1078.64 -312.93,-922.65 -5456.93,-1548.37 -6934.71,-1756.06z" style="fill:#ad4585"/>
   <path class="HatColander-Mediumfil5" d="M15812.67 13112.44l-0.81 -0.08 0.25 0.04 0.56 0.04zm-4965.82 -6084.24c177.08,-64.27 357.58,-123.43 541.73,-176.3 -3734.13,2138.86 -769.99,5209.06 2984.18,6053.66 -274.01,-37.1 -509.15,-68.06 -689.51,-92.55 -1476.82,-214.52 -6594.99,-1024.09 -7150.12,-223.43 243.26,-1017.56 1103.94,-4357.84 4313.72,-5561.38z" style="fill:#2b6016"/>
   <path class="HatColander-Mediumfil6" d="M13666.1 11756.88c48.8,62.1 122.02,106.56 208.07,118.66l1.41 0.18 1.41 0.21c86.06,12.1 168.69,-10.46 232.72,-56.7 64.03,-46.24 109.44,-116.16 121.05,-198.79 11.62,-82.63 -12.76,-162.36 -61.57,-224.45 -48.8,-62.1 -122.01,-106.56 -208.07,-118.66l-1.41 -0.18 -1.41 -0.21c-86.06,-12.1 -168.69,10.46 -232.72,56.7 -64.03,46.24 -109.44,116.16 -121.05,198.79 -11.62,82.63 12.77,162.35 61.57,224.45zm731.26 -1984.37c-64.03,46.24 -146.66,68.79 -232.72,56.7l-1.41 -0.21 -1.41 -0.19c-86.06,-12.09 -159.27,-56.55 -208.07,-118.65 -48.81,-62.1 -73.19,-141.83 -61.57,-224.45 11.61,-82.63 57.02,-152.55 121.05,-198.79 64.03,-46.24 146.66,-68.8 232.72,-56.71l1.41 0.21 1.41 0.19c86.05,12.09 159.27,56.55 208.07,118.65 48.8,62.1 73.19,141.83 61.57,224.46 -11.61,82.63 -57.02,152.54 -121.05,198.79zm235.82 -1997.79c-51.22,37 -117.34,55.04 -186.17,45.37l-1.41 -0.21 -1.42 -0.19c-68.84,-9.67 -127.41,-45.24 -166.45,-94.92 -39.05,-49.68 -58.55,-113.46 -49.26,-179.56 9.29,-66.1 45.62,-122.04 96.84,-159.03 51.22,-37 117.33,-55.04 186.17,-45.36l1.41 0.2 1.42 0.19c68.84,9.68 127.41,45.24 166.45,94.93 39.05,49.67 58.55,113.46 49.26,179.56 -9.29,66.1 -45.62,122.03 -96.84,159.02zm1522.55 213.98c-51.22,37 -117.33,55.04 -186.17,45.37 -68.84,-9.68 -127.42,-45.24 -166.45,-94.92 -39.05,-49.68 -58.55,-113.47 -49.26,-179.56 9.29,-66.1 45.61,-122.04 96.84,-159.03 51.22,-37 117.33,-55.04 186.17,-45.37 68.84,9.68 127.42,45.24 166.46,94.93 39.05,49.67 58.55,113.46 49.26,179.56 -9.29,66.1 -45.62,122.04 -96.85,159.02zm1297.76 160.82c-44.84,32.36 -102.68,48.15 -162.91,39.68 -60.24,-8.46 -111.49,-39.58 -145.67,-83.04 -34.15,-43.49 -51.21,-99.29 -43.08,-157.13 8.13,-57.83 39.91,-106.78 84.72,-139.16 44.84,-32.36 102.68,-48.15 162.91,-39.68 60.24,8.46 111.49,39.58 145.67,83.05 34.15,43.48 51.21,99.29 43.08,157.12 -8.13,57.84 -39.91,106.78 -84.72,139.16zm-2126.19 738.22c-57.63,41.62 -132,61.92 -209.45,51.03 -77.44,-10.88 -143.34,-50.89 -187.27,-106.78 -43.92,-55.9 -65.86,-127.65 -55.41,-202.01 10.46,-74.37 51.32,-137.29 108.95,-178.92 57.63,-41.61 132,-61.91 209.45,-51.03 77.44,10.89 143.34,50.9 187.27,106.79 43.92,55.89 65.86,127.65 55.41,202.01 -10.45,74.36 -51.32,137.29 -108.95,178.91zm1827.07 256.78c-57.64,41.61 -132,61.91 -209.45,51.03 -77.45,-10.89 -143.34,-50.9 -187.27,-106.78 -43.92,-55.9 -65.86,-127.65 -55.41,-202.02 10.45,-74.36 51.32,-137.28 108.95,-178.91 57.63,-41.61 132,-61.91 209.44,-51.03 77.45,10.89 143.34,50.9 187.27,106.79 43.92,55.89 65.86,127.64 55.41,202.01 -10.45,74.36 -51.32,137.29 -108.94,178.91zm1522.55 213.98c-57.63,41.62 -132,61.91 -209.44,51.03 -77.45,-10.88 -143.34,-50.9 -187.27,-106.78 -43.92,-55.9 -65.86,-127.65 -55.41,-202.01 10.45,-74.37 51.32,-137.29 108.94,-178.92 57.64,-41.61 132,-61.91 209.45,-51.03 77.45,10.89 143.34,50.9 187.27,106.79 43.92,55.89 65.86,127.64 55.41,202.01 -10.45,74.36 -51.32,137.29 -108.95,178.91zm-2466.19 768.25c-64.03,46.24 -146.66,68.79 -232.72,56.7 -86.05,-12.09 -159.27,-56.55 -208.07,-118.65 -48.8,-62.1 -73.19,-141.83 -61.57,-224.46 11.61,-82.63 57.02,-152.54 121.05,-198.79 64.03,-46.24 146.66,-68.79 232.72,-56.7 86.05,12.1 159.27,56.55 208.07,118.65 48.8,62.1 73.19,141.83 61.57,224.46 -11.61,82.63 -57.02,152.55 -121.05,198.79zm1942.27 173.58c-64.03,46.24 -146.67,68.79 -232.72,56.7 -86.06,-12.09 -159.27,-56.55 -208.07,-118.65 -48.81,-62.1 -73.19,-141.83 -61.57,-224.46 11.61,-82.63 57.02,-152.54 121.05,-198.79 64.03,-46.24 146.66,-68.79 232.72,-56.7 86.05,12.1 159.27,56.55 208.07,118.65 48.8,62.1 73.18,141.83 61.57,224.46 -11.61,82.63 -57.02,152.54 -121.05,198.79zm1889.96 294.85c-57.1,29.78 -124.49,42.68 -194.11,32.89 -86.05,-12.09 -159.27,-56.55 -208.07,-118.65 -48.81,-62.1 -73.19,-141.83 -61.57,-224.45 11.61,-82.63 57.02,-152.55 121.05,-198.79 23.29,-16.83 49.04,-30.51 76.53,-40.53 99.86,184.43 188.18,368.34 266.17,549.53zm-4984.24 363.54c-64.03,46.24 -146.67,68.8 -232.72,56.71 -86.06,-12.1 -159.27,-56.56 -208.07,-118.66 -48.81,-62.1 -73.19,-141.82 -61.58,-224.45 11.62,-82.63 57.03,-152.55 121.06,-198.79 64.03,-46.24 146.66,-68.8 232.72,-56.7 86.05,12.09 159.27,56.55 208.07,118.65 48.8,62.1 73.18,141.82 61.57,224.45 -11.61,82.63 -57.03,152.55 -121.05,198.79zm878.06 1117.29c-64.03,46.24 -146.66,68.79 -232.72,56.7 -86.05,-12.09 -159.27,-56.55 -208.07,-118.65 -48.8,-62.1 -73.19,-141.83 -61.57,-224.46 11.61,-82.63 57.02,-152.54 121.05,-198.79 64.03,-46.24 146.66,-68.79 232.72,-56.7 86.05,12.1 159.27,56.55 208.07,118.65 48.8,62.1 73.18,141.83 61.57,224.46 -11.61,82.63 -57.02,152.54 -121.05,198.79zm1165.71 -929.44c-64.03,46.24 -146.66,68.79 -232.72,56.7 -86.05,-12.09 -159.27,-56.55 -208.07,-118.65 -48.8,-62.1 -73.19,-141.83 -61.57,-224.46 11.61,-82.63 57.02,-152.54 121.05,-198.78 64.03,-46.25 146.66,-68.8 232.72,-56.71 86.05,12.1 159.27,56.56 208.07,118.65 48.8,62.1 73.18,141.83 61.57,224.46 -11.61,82.63 -57.02,152.55 -121.05,198.79zm878.06 1117.28c-64.03,46.24 -146.66,68.8 -232.72,56.7 -86.05,-12.09 -159.27,-56.55 -208.07,-118.65 -48.8,-62.1 -73.18,-141.82 -61.57,-224.45 11.61,-82.63 57.02,-152.55 121.05,-198.79 64.03,-46.24 146.67,-68.8 232.72,-56.7 86.05,12.09 159.27,56.55 208.07,118.65 48.81,62.1 73.19,141.82 61.57,224.45 -11.61,82.63 -57.02,152.55 -121.05,198.79zm1179.41 -1026.9c-64.03,46.24 -146.66,68.8 -232.72,56.7 -86.05,-12.09 -159.27,-56.55 -208.07,-118.65 -48.81,-62.1 -73.19,-141.82 -61.57,-224.45 11.61,-82.63 57.02,-152.55 121.05,-198.79 64.03,-46.24 146.66,-68.8 232.72,-56.71 86.05,12.1 159.27,56.56 208.07,118.66 48.8,62.1 73.18,141.82 61.57,224.45 -11.61,82.63 -57.02,152.55 -121.05,198.79zm-6404.79 -3726.16c39.04,49.68 97.62,85.24 166.46,94.92 68.84,9.67 134.95,-8.37 186.17,-45.37 51.23,-36.98 87.55,-92.92 96.84,-159.02 9.29,-66.1 -10.21,-129.89 -49.26,-179.56 -39.03,-49.69 -97.61,-85.25 -166.45,-94.93 -68.84,-9.67 -134.95,8.37 -186.17,45.37 -51.23,36.99 -87.56,92.93 -96.85,159.03 -9.29,66.1 10.21,129.88 49.26,179.56zm-1291.79 -203.13c34.15,43.47 85.4,74.59 145.65,83.05 60.24,8.47 118.08,-7.31 162.9,-39.69 44.82,-32.36 76.6,-81.3 84.73,-139.15 8.13,-57.84 -8.93,-113.65 -43.1,-157.12 -34.15,-43.47 -85.4,-74.58 -145.65,-83.05 -60.24,-8.47 -118.08,7.32 -162.9,39.69 -44.82,32.36 -76.6,81.31 -84.73,139.15 -8.13,57.85 8.93,113.65 43.1,157.12zm1840.32 1295.68c43.93,55.89 109.82,95.9 187.27,106.79 77.45,10.88 151.82,-9.42 209.45,-51.03 57.62,-41.63 98.49,-104.55 108.94,-178.91 10.46,-74.37 -11.49,-146.12 -55.4,-202.01 -43.94,-55.89 -109.83,-95.9 -187.27,-106.79 -77.45,-10.88 -151.82,9.42 -209.45,51.03 -57.63,41.63 -98.5,104.55 -108.95,178.91 -10.45,74.37 11.49,146.12 55.41,202.01zm-1827.06 -256.77c43.93,55.89 109.82,95.9 187.26,106.78 77.45,10.89 151.82,-9.41 209.45,-51.03 57.63,-41.62 98.5,-104.55 108.95,-178.91 10.45,-74.37 -11.49,-146.12 -55.41,-202.01 -43.93,-55.89 -109.82,-95.9 -187.27,-106.79 -77.45,-10.88 -151.82,9.42 -209.45,51.03 -57.62,41.63 -98.49,104.55 -108.94,178.92 -10.46,74.36 11.49,146.11 55.41,202.01zm-1522.56 -213.98c43.93,55.88 109.82,95.89 187.27,106.78 77.45,10.88 151.81,-9.42 209.45,-51.03 57.62,-41.62 98.49,-104.55 108.94,-178.91 10.45,-74.37 -11.49,-146.12 -55.41,-202.01 -43.93,-55.89 -109.82,-95.9 -187.27,-106.79 -77.44,-10.88 -151.81,9.42 -209.44,51.03 -57.63,41.63 -98.5,104.55 -108.95,178.91 -10.45,74.37 11.49,146.12 55.41,202.02zm2158.9 1418.26c48.8,62.09 122.02,106.55 208.08,118.65 86.05,12.09 168.68,-10.46 232.71,-56.71 64.03,-46.24 109.44,-116.15 121.06,-198.78 11.61,-82.63 -12.77,-162.36 -61.57,-224.46 -48.81,-62.1 -122.02,-106.56 -208.08,-118.65 -86.05,-12.09 -168.69,10.46 -232.71,56.7 -64.03,46.24 -109.45,116.16 -121.06,198.79 -11.61,82.63 12.77,162.36 61.57,224.46zm-1914.87 -368.51c48.8,62.1 122.02,106.56 208.07,118.65 86.06,12.1 168.69,-10.46 232.72,-56.7 64.03,-46.24 109.44,-116.16 121.05,-198.79 11.62,-82.63 -12.77,-162.36 -61.57,-224.45 -48.8,-62.1 -122.02,-106.56 -208.07,-118.66 -86.06,-12.09 -168.69,10.47 -232.72,56.71 -64.03,46.24 -109.44,116.16 -121.05,198.79 -11.62,82.62 12.77,162.35 61.57,224.45zm-1898.02 -237.51c46.68,44.36 107.9,75.33 177.52,85.12 86.06,12.09 168.69,-10.46 232.72,-56.7 64.03,-46.25 109.44,-116.16 121.05,-198.79 11.62,-82.63 -12.77,-162.36 -61.57,-224.46 -17.75,-22.59 -38.73,-42.84 -62.39,-60.05 -146.83,149.77 -282.43,302.2 -407.33,454.88zm4690.95 1723.3c48.81,62.1 122.02,106.56 208.08,118.65 86.05,12.1 168.69,-10.46 232.71,-56.7 64.03,-46.24 109.45,-116.16 121.06,-198.79 11.61,-82.63 -12.77,-162.36 -61.57,-224.45 -48.81,-62.1 -122.02,-106.56 -208.08,-118.66 -86.05,-12.09 -168.68,10.47 -232.71,56.71 -64.03,46.24 -109.44,116.16 -121.06,198.79 -11.61,82.62 12.77,162.35 61.57,224.45zm-1152.01 831.98c48.8,62.09 122.02,106.55 208.07,118.65 86.06,12.09 168.69,-10.46 232.72,-56.71 64.03,-46.24 109.44,-116.15 121.06,-198.78 11.61,-82.63 -12.77,-162.36 -61.58,-224.46 -48.8,-62.1 -122.01,-106.56 -208.07,-118.65 -86.05,-12.09 -168.69,10.46 -232.72,56.7 -64.02,46.24 -109.44,116.16 -121.05,198.79 -11.61,82.63 12.77,162.36 61.57,224.46zm-864.36 -1214.75c48.8,62.1 122.02,106.56 208.07,118.65 86.05,12.09 168.69,-10.46 232.72,-56.7 64.03,-46.24 109.44,-116.16 121.05,-198.79 11.61,-82.63 -12.77,-162.36 -61.57,-224.46 -48.8,-62.09 -122.02,-106.55 -208.07,-118.65 -86.06,-12.09 -168.69,10.46 -232.72,56.71 -64.03,46.24 -109.44,116.15 -121.05,198.78 -11.62,82.63 12.76,162.36 61.57,224.46zm-1152.02 831.97c48.81,62.1 122.02,106.56 208.08,118.66 86.05,12.09 168.69,-10.47 232.71,-56.71 64.03,-46.24 109.45,-116.16 121.06,-198.79 11.61,-82.62 -12.77,-162.35 -61.57,-224.45 -48.81,-62.1 -122.02,-106.56 -208.08,-118.65 -86.05,-12.1 -168.68,10.46 -232.71,56.7 -64.03,46.24 -109.44,116.16 -121.06,198.79 -11.61,82.63 12.77,162.36 61.57,224.45zm-850.66 -1312.21c48.8,62.1 122.02,106.56 208.07,118.66 86.06,12.09 168.69,-10.47 232.72,-56.71 64.03,-46.24 109.44,-116.16 121.05,-198.79 11.61,-82.62 -12.77,-162.35 -61.57,-224.45 -48.8,-62.1 -122.02,-106.56 -208.07,-118.65 -86.06,-12.1 -168.69,10.46 -232.72,56.7 -64.03,46.24 -109.44,116.16 -121.05,198.79 -11.62,82.63 12.77,162.36 61.57,224.45zm-1152.01 831.98c48.8,62.1 122.01,106.56 208.07,118.65 86.05,12.1 168.69,-10.46 232.72,-56.7 64.02,-46.24 109.44,-116.16 121.05,-198.79 11.61,-82.63 -12.77,-162.36 -61.57,-224.45 -48.8,-62.1 -122.02,-106.56 -208.07,-118.66 -86.06,-12.09 -168.69,10.47 -232.72,56.71 -64.03,46.24 -109.44,116.16 -121.06,198.79 -11.61,82.62 12.77,162.35 61.58,224.45zm12218.04 1717.13c-64.03,46.25 -146.66,68.8 -232.72,56.71 -86.05,-12.1 -159.27,-56.56 -208.07,-118.66 -48.8,-62.09 -73.18,-141.82 -61.57,-224.45 11.61,-82.63 57.02,-152.55 121.05,-198.79 64.03,-46.24 146.66,-68.8 232.72,-56.7 86.05,12.09 159.27,56.55 208.07,118.65 48.81,62.1 73.19,141.83 61.57,224.46 -11.61,82.62 -57.02,152.54 -121.05,198.78z" style="fill:#b41f94"/>
   <path class="HatColander-Mediumfil7" d="M13615.63 11707.04c48.34,61.51 120.87,105.55 206.11,117.53l1.4 0.19 1.4 0.2c85.24,11.98 167.09,-10.36 230.52,-56.16 63.42,-45.81 108.41,-115.07 119.91,-196.92 11.51,-81.85 -12.65,-160.82 -60.99,-222.34 -48.34,-61.51 -120.87,-105.55 -206.11,-117.53l-1.4 -0.19 -1.4 -0.2c-85.24,-11.98 -167.09,10.36 -230.52,56.17 -63.42,45.8 -108.41,115.06 -119.91,196.91 -11.51,81.85 12.65,160.82 60.99,222.34zm724.37 -1965.67c-63.43,45.8 -145.28,68.15 -230.53,56.17l-1.39 -0.21 -1.4 -0.19c-85.25,-11.98 -157.77,-56.02 -206.11,-117.53 -48.35,-61.51 -72.5,-140.49 -61,-222.34 11.51,-81.85 56.49,-151.11 119.92,-196.91 63.42,-45.81 145.28,-68.15 230.52,-56.17l1.4 0.2 1.4 0.19c85.24,11.98 157.76,56.02 206.11,117.54 48.34,61.51 72.49,140.48 60.99,222.33 -11.51,81.85 -56.49,151.11 -119.91,196.92zm233.59 -1978.95c-50.74,36.65 -116.23,54.52 -184.42,44.94l-1.39 -0.21 -1.4 -0.19c-68.19,-9.58 -126.22,-44.81 -164.89,-94.03 -38.68,-49.2 -57.99,-112.39 -48.79,-177.86 9.2,-65.48 45.18,-120.89 95.93,-157.53 50.74,-36.65 116.22,-54.52 184.42,-44.94l1.39 0.21 1.4 0.19c68.19,9.58 126.22,44.81 164.89,94.02 38.68,49.21 57.99,112.39 48.79,177.87 -9.2,65.48 -45.19,120.89 -95.93,157.53zm1508.2 211.96c-50.74,36.65 -116.22,54.52 -184.41,44.94 -68.2,-9.58 -126.22,-44.81 -164.89,-94.03 -38.68,-49.21 -58,-112.39 -48.79,-177.87 9.2,-65.47 45.18,-120.88 95.93,-157.52 50.73,-36.65 116.22,-54.52 184.41,-44.94 68.19,9.58 126.22,44.81 164.89,94.03 38.68,49.21 57.99,112.39 48.79,177.87 -9.2,65.47 -45.18,120.88 -95.93,157.52zm1285.52 159.31c-44.41,32.05 -101.71,47.69 -161.37,39.3 -59.67,-8.38 -110.44,-39.21 -144.29,-82.26 -33.83,-43.07 -50.73,-98.36 -42.68,-155.65 8.05,-57.28 39.53,-105.77 83.93,-137.85 44.41,-32.05 101.71,-47.69 161.37,-39.3 59.66,8.38 110.43,39.21 144.29,82.26 33.83,43.07 50.73,98.36 42.68,155.65 -8.05,57.29 -39.54,105.77 -83.93,137.85zm-2106.14 731.26c-57.09,41.22 -130.76,61.33 -207.47,50.54 -76.72,-10.78 -141.99,-50.41 -185.51,-105.77 -43.5,-55.37 -65.24,-126.45 -54.88,-200.11 10.35,-73.66 50.83,-135.99 107.91,-177.23 57.09,-41.22 130.76,-61.33 207.48,-50.54 76.72,10.78 141.98,50.41 185.5,105.77 43.51,55.37 65.24,126.45 54.89,200.11 -10.35,73.66 -50.84,135.99 -107.92,177.23zm1809.84 254.35c-57.09,41.22 -130.75,61.33 -207.47,50.55 -76.72,-10.78 -141.99,-50.42 -185.5,-105.78 -43.51,-55.37 -65.24,-126.44 -54.89,-200.1 10.35,-73.67 50.84,-136 107.92,-177.23 57.09,-41.22 130.75,-61.33 207.47,-50.55 76.72,10.78 141.99,50.42 185.5,105.78 43.51,55.37 65.24,126.44 54.89,200.11 -10.35,73.66 -50.83,135.99 -107.92,177.22zm1508.21 211.97c-57.09,41.22 -130.76,61.33 -207.48,50.54 -76.72,-10.78 -141.98,-50.41 -185.5,-105.77 -43.51,-55.37 -65.24,-126.45 -54.89,-200.11 10.35,-73.66 50.84,-135.99 107.92,-177.23 57.09,-41.22 130.76,-61.32 207.47,-50.54 76.72,10.78 141.99,50.41 185.51,105.77 43.5,55.37 65.24,126.45 54.88,200.11 -10.35,73.66 -50.83,135.99 -107.91,177.23zm-2442.95 761c-63.43,45.8 -145.28,68.15 -230.52,56.17 -85.25,-11.98 -157.77,-56.02 -206.12,-117.54 -48.34,-61.51 -72.49,-140.48 -60.99,-222.33 11.51,-81.85 56.49,-151.11 119.92,-196.92 63.42,-45.8 145.28,-68.15 230.52,-56.17 85.24,11.98 157.77,56.02 206.11,117.54 48.34,61.51 72.5,140.48 60.99,222.33 -11.5,81.86 -56.49,151.11 -119.91,196.92zm1923.96 171.94c-63.43,45.81 -145.28,68.15 -230.53,56.17 -85.24,-11.98 -157.76,-56.02 -206.11,-117.53 -48.34,-61.52 -72.49,-140.49 -60.99,-222.34 11.51,-81.85 56.49,-151.11 119.92,-196.92 63.42,-45.8 145.27,-68.14 230.52,-56.16 85.24,11.98 157.77,56.02 206.11,117.53 48.34,61.51 72.49,140.49 60.99,222.34 -11.5,81.85 -56.49,151.11 -119.91,196.91zm1872.14 292.08c-56.56,29.49 -123.31,42.27 -192.28,32.58 -85.24,-11.98 -157.76,-56.02 -206.11,-117.53 -48.34,-61.52 -72.49,-140.49 -60.99,-222.34 11.5,-81.85 56.49,-151.11 119.91,-196.92 23.08,-16.66 48.59,-30.22 75.81,-40.14 98.92,182.69 186.41,364.87 263.66,544.35zm-4937.25 360.11c-63.43,45.81 -145.28,68.15 -230.53,56.17 -85.24,-11.98 -157.76,-56.02 -206.11,-117.53 -48.34,-61.52 -72.49,-140.49 -60.99,-222.34 11.51,-81.85 56.49,-151.11 119.91,-196.92 63.43,-45.8 145.28,-68.14 230.53,-56.16 85.24,11.98 157.77,56.02 206.11,117.53 48.34,61.51 72.49,140.49 60.99,222.34 -11.5,81.85 -56.49,151.11 -119.91,196.91zm869.78 1106.75c-63.42,45.81 -145.28,68.15 -230.52,56.17 -85.25,-11.98 -157.77,-56.02 -206.11,-117.53 -48.35,-61.52 -72.5,-140.49 -60.99,-222.34 11.5,-81.85 56.48,-151.11 119.91,-196.91 63.42,-45.81 145.28,-68.15 230.52,-56.17 85.25,11.98 157.77,56.02 206.11,117.53 48.35,61.51 72.5,140.49 60.99,222.34 -11.5,81.85 -56.48,151.11 -119.91,196.91zm1154.72 -920.67c-63.42,45.8 -145.28,68.14 -230.52,56.16 -85.24,-11.98 -157.77,-56.02 -206.11,-117.53 -48.35,-61.51 -72.5,-140.49 -60.99,-222.34 11.5,-81.85 56.48,-151.11 119.91,-196.91 63.42,-45.81 145.28,-68.15 230.52,-56.17 85.25,11.98 157.77,56.02 206.11,117.53 48.35,61.52 72.5,140.49 61,222.34 -11.51,81.85 -56.49,151.11 -119.92,196.92zm869.79 1106.75c-63.43,45.8 -145.28,68.15 -230.53,56.17 -85.24,-11.98 -157.77,-56.02 -206.11,-117.54 -48.34,-61.51 -72.49,-140.49 -60.99,-222.34 11.5,-81.85 56.49,-151.11 119.91,-196.91 63.43,-45.81 145.28,-68.15 230.53,-56.17 85.24,11.98 157.77,56.02 206.11,117.53 48.34,61.52 72.49,140.49 60.99,222.34 -11.5,81.85 -56.49,151.11 -119.91,196.92zm1168.29 -1017.22c-63.43,45.8 -145.28,68.15 -230.53,56.17 -85.24,-11.99 -157.77,-56.03 -206.11,-117.54 -48.34,-61.51 -72.49,-140.49 -60.99,-222.34 11.5,-81.85 56.49,-151.11 119.91,-196.91 63.43,-45.81 145.28,-68.15 230.53,-56.17 85.24,11.98 157.76,56.02 206.11,117.53 48.34,61.52 72.49,140.49 60.99,222.34 -11.51,81.85 -56.49,151.11 -119.91,196.92zm-6344.41 -3691.04c38.67,49.22 96.7,84.45 164.89,94.03 68.19,9.58 133.67,-8.29 184.41,-44.94 50.75,-36.64 86.73,-92.05 95.93,-157.53 9.21,-65.47 -10.11,-128.66 -48.79,-177.86 -38.67,-49.22 -96.7,-84.45 -164.89,-94.03 -68.19,-9.58 -133.67,8.29 -184.41,44.94 -50.75,36.64 -86.73,92.05 -95.93,157.52 -9.21,65.48 10.11,128.66 48.79,177.87zm-1279.62 -201.21c33.84,43.06 84.6,73.88 144.28,82.27 59.67,8.39 116.97,-7.25 161.36,-39.32 44.41,-32.05 75.89,-80.54 83.94,-137.84 8.05,-57.29 -8.85,-112.58 -42.69,-155.63 -33.83,-43.06 -84.6,-73.89 -144.28,-82.27 -59.67,-8.39 -116.97,7.24 -161.36,39.31 -44.4,32.06 -75.89,80.54 -83.94,137.84 -8.05,57.3 8.85,112.58 42.69,155.64zm1822.98 1283.47c43.52,55.36 108.79,94.99 185.5,105.78 76.72,10.78 150.39,-9.33 207.48,-50.55 57.08,-41.23 97.56,-103.56 107.91,-177.23 10.36,-73.66 -11.38,-144.74 -54.88,-200.1 -43.52,-55.37 -108.79,-95 -185.51,-105.78 -76.71,-10.78 -150.38,9.32 -207.47,50.55 -57.08,41.23 -97.57,103.56 -107.92,177.22 -10.35,73.67 11.38,144.74 54.89,200.11zm-1809.84 -254.36c43.51,55.36 108.78,95 185.5,105.78 76.72,10.78 150.38,-9.33 207.47,-50.55 57.09,-41.23 97.57,-103.56 107.92,-177.22 10.35,-73.67 -11.38,-144.74 -54.89,-200.11 -43.51,-55.36 -108.78,-95 -185.5,-105.78 -76.72,-10.78 -150.38,9.33 -207.47,50.55 -57.08,41.23 -97.57,103.56 -107.92,177.23 -10.35,73.66 11.38,144.73 54.89,200.1zm-1508.21 -211.96c43.52,55.36 108.79,94.99 185.51,105.78 76.72,10.78 150.38,-9.33 207.47,-50.55 57.08,-41.24 97.57,-103.57 107.92,-177.23 10.35,-73.66 -11.38,-144.74 -54.89,-200.11 -43.51,-55.36 -108.78,-94.99 -185.5,-105.77 -76.72,-10.78 -150.38,9.32 -207.47,50.55 -57.09,41.23 -97.57,103.56 -107.92,177.22 -10.36,73.66 11.38,144.74 54.88,200.11zm2138.55 1404.89c48.35,61.51 120.87,105.55 206.12,117.53 85.24,11.98 167.09,-10.36 230.52,-56.17 63.42,-45.8 108.41,-115.06 119.91,-196.91 11.51,-81.85 -12.65,-160.83 -60.99,-222.34 -48.34,-61.51 -120.87,-105.55 -206.11,-117.53 -85.24,-11.98 -167.1,10.36 -230.52,56.16 -63.43,45.81 -108.41,115.07 -119.92,196.92 -11.5,81.85 12.65,160.82 60.99,222.34zm-1896.82 -365.03c48.35,61.51 120.87,105.55 206.11,117.53 85.25,11.98 167.1,-10.36 230.53,-56.17 63.42,-45.8 108.41,-115.06 119.91,-196.91 11.5,-81.85 -12.65,-160.83 -60.99,-222.34 -48.34,-61.52 -120.87,-105.56 -206.11,-117.54 -85.24,-11.98 -167.1,10.37 -230.52,56.17 -63.43,45.81 -108.41,115.07 -119.92,196.92 -11.5,81.85 12.65,160.82 60.99,222.34zm-1880.12 -235.27c46.24,43.94 106.88,74.62 175.84,84.31 85.25,11.98 167.1,-10.36 230.53,-56.17 63.42,-45.8 108.41,-115.06 119.91,-196.91 11.5,-81.85 -12.65,-160.83 -60.99,-222.34 -17.59,-22.38 -38.37,-42.44 -61.8,-59.49 -145.45,148.36 -279.77,299.36 -403.49,450.6zm4646.73 1707.05c48.34,61.51 120.87,105.55 206.11,117.53 85.24,11.98 167.1,-10.36 230.52,-56.17 63.43,-45.8 108.41,-115.06 119.92,-196.91 11.5,-81.85 -12.65,-160.83 -60.99,-222.34 -48.35,-61.51 -120.87,-105.55 -206.12,-117.53 -85.24,-11.98 -167.09,10.36 -230.52,56.17 -63.42,45.8 -108.41,115.06 -119.91,196.91 -11.51,81.85 12.65,160.83 60.99,222.34zm-1141.15 824.13c48.34,61.51 120.86,105.55 206.11,117.53 85.24,11.99 167.1,-10.36 230.52,-56.16 63.43,-45.81 108.41,-115.07 119.91,-196.92 11.51,-81.85 -12.64,-160.82 -60.99,-222.34 -48.34,-61.51 -120.86,-105.55 -206.11,-117.53 -85.24,-11.98 -167.1,10.36 -230.52,56.17 -63.43,45.8 -108.41,115.06 -119.91,196.91 -11.51,81.85 12.64,160.83 60.99,222.34zm-856.22 -1203.29c48.34,61.51 120.87,105.55 206.11,117.53 85.25,11.98 167.1,-10.36 230.53,-56.17 63.42,-45.8 108.4,-115.06 119.91,-196.91 11.5,-81.85 -12.65,-160.83 -60.99,-222.34 -48.35,-61.51 -120.87,-105.56 -206.11,-117.54 -85.25,-11.98 -167.1,10.37 -230.53,56.17 -63.42,45.81 -108.41,115.07 -119.91,196.92 -11.5,81.85 12.65,160.82 60.99,222.34zm-1141.15 824.13c48.34,61.51 120.87,105.55 206.11,117.53 85.24,11.98 167.1,-10.36 230.52,-56.17 63.43,-45.8 108.41,-115.06 119.92,-196.91 11.5,-81.85 -12.65,-160.83 -60.99,-222.34 -48.35,-61.51 -120.87,-105.55 -206.12,-117.53 -85.24,-11.98 -167.09,10.36 -230.52,56.17 -63.42,45.8 -108.41,115.06 -119.91,196.91 -11.51,81.85 12.65,160.83 60.99,222.34zm-842.65 -1299.84c48.34,61.51 120.87,105.55 206.11,117.53 85.25,11.98 167.1,-10.36 230.53,-56.17 63.42,-45.8 108.41,-115.06 119.91,-196.91 11.5,-81.85 -12.65,-160.83 -60.99,-222.34 -48.34,-61.51 -120.87,-105.55 -206.11,-117.53 -85.25,-11.98 -167.1,10.36 -230.53,56.17 -63.42,45.8 -108.41,115.06 -119.91,196.91 -11.5,81.85 12.65,160.83 60.99,222.34zm-1141.15 824.13c48.34,61.51 120.87,105.55 206.11,117.54 85.24,11.98 167.1,-10.37 230.52,-56.17 63.43,-45.81 108.41,-115.07 119.92,-196.92 11.5,-81.85 -12.65,-160.82 -60.99,-222.34 -48.35,-61.51 -120.87,-105.55 -206.12,-117.53 -85.24,-11.98 -167.09,10.36 -230.52,56.17 -63.42,45.8 -108.41,115.06 -119.91,196.91 -11.51,81.85 12.65,160.83 60.99,222.34zm12102.86 1700.95c-63.43,45.8 -145.28,68.15 -230.52,56.17 -85.25,-11.98 -157.77,-56.02 -206.12,-117.54 -48.34,-61.51 -72.49,-140.49 -60.99,-222.34 11.51,-81.85 56.49,-151.1 119.92,-196.91 63.42,-45.81 145.28,-68.15 230.52,-56.17 85.24,11.98 157.77,56.02 206.11,117.53 48.34,61.52 72.5,140.49 60.99,222.34 -11.5,81.85 -56.49,151.11 -119.91,196.92z" style="fill:#3db802"/>
   <path class="HatColander-Mediumfil8" d="M19824.21 14013.19c-276.42,-3034.82 -1621.88,-5153.72 -3521.36,-6797.9 -42.5,-11.61 -85.4,-22.93 -128.67,-33.97 1121.22,1014.72 2602.16,4590.74 2767.89,6548.7 330.26,89.11 629.87,183.61 882.14,283.17z" style="fill:#7137cc"/>
   <path class="HatColander-Mediumfil2 HatColander-Mediumstr2" d="M13683.25 12813.01c-1476.82,-214.52 -6594.99,-1024.09 -7150.12,-223.43 256.42,-1072.63 1198.48,-4726.63 4855.45,-5737.68 887.98,-245.51 1901.3,-142.61 3126.85,29.63l1.4 0.21 1.41 0.18c1225.55,172.24 2227.97,352.64 3013.89,833.4 3236.62,1979.88 3135.01,5751.99 3085.83,6853.75 -312.93,-922.65 -5455.98,-1555.2 -6934.71,-1756.06z" style="fill:#a5c25f"/>
   <path class="HatColander-Mediumfil18 HatColander-Mediumstr2" d="M20030.57 13820.69c435.35,-70.98 872.45,-134.75 1306.07,-212.96 241.89,-43.63 451.99,-30.58 493.08,-342.16 46.31,-351.16 -86.03,-288.89 -408.03,-241.4 -441.69,65.15 -875.15,165.78 -1312.74,248.66 -26.14,182.62 -52.25,365.24 -78.38,547.86z" style="fill:#3094b7"/>
   <path class="HatColander-Mediumfil19 HatColander-Mediumstr2" d="M7304.06 12032.09c-398.93,-188.22 -801.52,-370 -1196.78,-564.71 -220.49,-108.61 -426.05,-153.98 -379.67,-464.81 52.28,-350.33 162.33,-253.99 458.76,-119.58 406.63,184.37 795.56,400.58 1193.36,600.86 -25.22,182.75 -50.46,365.5 -75.67,548.24z" style="fill:#67891f"/>
  </g>
 </g></svg>