<svg xmlns="http://www.w3.org/2000/svg" xmlns:xlink="http://www.w3.org/1999/xlink" style="shape-rendering:geometricPrecision; text-rendering:geometricPrecision; image-rendering:optimizeQuality; fill-rule:evenodd; clip-rule:evenodd" version="1.1" viewBox="0 0 29000 29000" xml:space="preserve"><defs><style type="text/css">.HairBack-Dog0fil22 {fill:none}
.Tail-Dog5fil238 {fill:url(#Tail-Dog5id1013)}
.Tail-Dog5fil14 {fill:black;fill-opacity:0.200000}
.Tail-Dog5fil26 {fill:#f8f3f3}
.Tail-Dog5fil22 {fill:none}
.Tail-Dog5str0 {stroke:black;stroke-width:150;stroke-linecap:round;stroke-linejoin:round}
.RightFoot-Dog3fil242 {fill:url(#RightFoot-Dog3id627)}
.RightFoot-Dog3fil14 {fill:black;fill-opacity:0.200000}
.RightFoot-Dog3fil22 {fill:none}
.RightFoot-Dog3fil32 {fill:black;fill-rule:nonzero}
.RightLeg-Dog0fil243 {fill:url(#RightLeg-Dog0id281)}
.RightLeg-Dog0fil32 {fill:black;fill-rule:nonzero}
.RightLeg-Dog0fil14 {fill:black;fill-opacity:0.200000}
.LeftFoot-Dog3fil248 {fill:url(#LeftFoot-Dog3id636)}
.LeftFoot-Dog3fil14 {fill:black;fill-opacity:0.200000}
.LeftFoot-Dog3fil22 {fill:none}
.LeftFoot-Dog3fil32 {fill:black;fill-rule:nonzero}
.LeftLeg-Dog0fil249 {fill:url(#LeftLeg-Dog0id285)}
.LeftLeg-Dog0fil32 {fill:black;fill-rule:nonzero}
.LeftLeg-Dog0fil14 {fill:black;fill-opacity:0.200000}
.RightHand-Dog0fil253 {fill:url(#RightHand-Dog0id397)}
.RightHand-Dog0fil14 {fill:black;fill-opacity:0.200000}
.RightHand-Dog0fil22 {fill:none}
.RightHand-Dog0str0 {stroke:black;stroke-width:150;stroke-linecap:round;stroke-linejoin:round}
.RightPaw-Dog0fil259 {fill:url(#RightPaw-Dog0id406)}
.RightPaw-Dog0fil14 {fill:black;fill-opacity:0.200000}
.RightPaw-Dog0fil32 {fill:black;fill-rule:nonzero}
.LeftHand-Dog0fil261 {fill:url(#LeftHand-Dog0id524)}
.LeftHand-Dog0fil14 {fill:black;fill-opacity:0.200000}
.LeftHand-Dog0fil22 {fill:none}
.LeftHand-Dog0str0 {stroke:black;stroke-width:150;stroke-linecap:round;stroke-linejoin:round}
.LeftPaw-Dog0fil265 {fill:url(#LeftPaw-Dog0id974)}
.LeftPaw-Dog0fil14 {fill:black;fill-opacity:0.200000}
.LeftPaw-Dog0fil32 {fill:black;fill-rule:nonzero}
.Body-Dog4fil267 {fill:url(#Body-Dog4id28)}
.Body-Dog4fil271 {fill:url(#Body-Dog4id666)}
.Body-Dog4fil14 {fill:black;fill-opacity:0.200000}
.Body-Dog4fil32 {fill:black;fill-rule:nonzero}
.Head-Dog2fil332 {fill:url(#Head-Dog2id325)}
.Head-Dog2fil333 {fill:url(#Head-Dog2id454)}
.Head-Dog2fil14 {fill:black;fill-opacity:0.200000}
.Head-Dog2fil32 {fill:black;fill-rule:nonzero}
.Mouth-Dog5fil22 {fill:none}
.Mouth-Dog5str0 {stroke:black;stroke-width:150;stroke-linecap:round;stroke-linejoin:round}
.Mouth-Dog5fil152 {fill:white}
.Eyes-Dog9fil392 {fill:url(#Eyes-Dog9id807)}
.Eyes-Dog9fil393 {fill:url(#Eyes-Dog9id913)}
.Eyes-Dog9fil394 {fill:url(#Eyes-Dog9id621)}
.Eyes-Dog9fil152 {fill:white}
.Eyes-Dog9fil14 {fill:black;fill-opacity:0.200000}
.Eyes-Dog9fil204 {fill:white;fill-rule:nonzero}
.Eyes-Dog9fil395 {fill:url(#Eyes-Dog9id809)}
.Eyes-Dog9fil396 {fill:url(#Eyes-Dog9id900)}
.Eyes-Dog9fil397 {fill:url(#Eyes-Dog9id620)}
.Eyes-Dog9fil155 {fill:#3b414e}
.Eyes-Dog9fil22 {fill:none}
.Eyes-Dog9str4 {stroke:black;stroke-width:150}
.Moustache-Dog0fil22 {fill:none}
.Nose-Dog0fil416 {fill:url(#Nose-Dog0id907)}
.Nose-Dog0str0 {stroke:black;stroke-width:150;stroke-linecap:round;stroke-linejoin:round}
.BraceletSilver-Mediumfil62new {fill:black;fill-opacity:0.400000}
.BraceletSilver-Mediumfil61new {fill:url(#BraceletSilver-Mediumid671new);fill-rule:nonzero}
.BraceletSilver-Mediumstr4new {stroke:black;stroke-width:100}
.BraceletSilver-Mediumfil63new {fill:url(#BraceletSilver-Mediumid689new);fill-rule:nonzero}
.NecklaceTShirtWinter-Mediumfil222 {fill:url(#NecklaceTShirtWinter-Mediumid173)}
.NecklaceTShirtWinter-Mediumfil223 {fill:#B3B3B3}
.NecklaceTShirtWinter-Mediumfil224 {fill:#787878}
.NecklaceTShirtWinter-Mediumfil225 {fill:whitesmoke}
.NecklaceTShirtWinter-Mediumfil156 {fill:black}
.NecklaceTShirtWinter-Mediumfil12 {fill:black;fill-opacity:0.200000}
.NecklaceTShirtWinter-Mediumfil11 {fill:none}
.NecklaceTShirtWinter-Mediumstr1 {stroke:black;stroke-width:150;stroke-linecap:round;stroke-linejoin:round}
.HatBaseballWhite-Mediumfil12 {fill:black;fill-opacity:0.200000}
.HatBaseballWhite-Mediumfil296 {fill:url(#HatBaseballWhite-Mediumid245)}
.HatBaseballWhite-Mediumfil167 {fill:black;fill-opacity:0.301961}
.HatBaseballWhite-Mediumfil298 {fill:white;fill-opacity:0.800000}
.HatBaseballWhite-Mediumfil295 {fill:url(#HatBaseballWhite-Mediumid150)}
.HatBaseballWhite-Mediumstr1 {stroke:black;stroke-width:150;stroke-linecap:round;stroke-linejoin:round}
.HatBaseballWhite-Mediumfil165 {fill:none}
.HatBaseballWhite-Mediumstr8 {stroke:#6E6E6E;stroke-width:75;stroke-linecap:round;stroke-linejoin:round;stroke-dasharray:150.000000 225.000000;stroke-opacity:0.200000}
.HatBaseballWhite-Mediumstr9 {stroke:#6E6E6E;stroke-width:100;stroke-opacity:0.200000}
.HatBaseballWhite-Mediumfil11 {fill:none}
.HatBaseballWhite-Mediumfil297 {fill:url(#HatBaseballWhite-Mediumid230)}
.WeaponBflyNetBack-Mediumfil1 {fill:black;fill-rule:nonzero;fill-opacity:0.200000}
.WeaponBflyNetBack-Mediumfil12 {fill:url(#WeaponBflyNetBack-Mediumid25);fill-rule:nonzero}
.WeaponBflyNetBack-Mediumstr0 {stroke:black;stroke-width:150;stroke-linecap:round;stroke-linejoin:round}
.WeaponBflyNet-Mediumfil13 {fill:white;fill-opacity:0.701961}
.WeaponBflyNet-Mediumfil3 {fill:black;fill-opacity:0.200000}
.WeaponBflyNet-Mediumfil14 {fill:none}
.WeaponBflyNet-Mediumstr2 {stroke:#85E7FF;stroke-width:150;stroke-linecap:round;stroke-linejoin:round}
.WeaponBflyNet-Mediumstr3 {stroke:#85E7FF;stroke-width:150}
.WeaponBflyNet-Mediumfil15 {fill:url(#WeaponBflyNet-Mediumid2)}
.WeaponBflyNet-Mediumstr0 {stroke:black;stroke-width:150;stroke-linecap:round;stroke-linejoin:round}
.WeaponBflyNet-Mediumfil16 {fill:url(#WeaponBflyNet-Mediumid1)}
.WeaponBflyNet-Mediumstr1 {stroke:black;stroke-width:150}
.AccessoryDuckfil122 {fill:url(#AccessoryDuckid90)}
.AccessoryDuckfil48 {fill:white;fill-opacity:0.501961}
.AccessoryDuckfil123 {fill:#CC1400;fill-opacity:0.301961}
.AccessoryDuckfil124 {fill:url(#AccessoryDuckid94)}
.AccessoryDuckfil3 {fill:black;fill-rule:nonzero}
.AccessoryDuckfil125 {fill:url(#AccessoryDuckid39)}
.AccessoryDuckfil126 {fill:url(#AccessoryDuckid95)}
.AccessoryDuckfil127 {fill:url(#AccessoryDuckid92)}
.AccessoryDuckfil2 {fill:none}
.AccessoryDuckfil128 {fill:#912323;fill-opacity:0.501961}
.AccessoryDuckfil14 {fill:white}
.AccessoryDuckfil129 {fill:white;fill-rule:nonzero;fill-opacity:0.501961}
.AccessoryDuckfil130 {fill:white;fill-rule:nonzero}
.AccessoryDuckstr1 {stroke:black;stroke-width:150}
.AccessoryDuckstr18 {stroke:#99CC66;stroke-width:150;stroke-linecap:round;stroke-linejoin:round}
.AccessoryDuckstr0 {stroke:black;stroke-width:150;stroke-linecap:round;stroke-linejoin:round}
</style><linearGradient gradientUnits="userSpaceOnUse" id="Tail-Dog5id1013" x1="15375.6" x2="19587.5" xlink:href="#Tail-Dog5id74" y1="23953.7" y2="19621.3">
  </linearGradient><linearGradient gradientUnits="userSpaceOnUse" id="RightFoot-Dog3id627" x1="16691.1" x2="16037.9" y1="25524" y2="23422.2">
   <stop offset="0" style="stop-opacity:1; stop-color:#656a75"/>
   <stop offset="0.329412" style="stop-opacity:1; stop-color:#bdaeae"/>
   <stop offset="0.619608" style="stop-opacity:1; stop-color:#e4dddd"/>
   <stop offset="1" style="stop-opacity:1; stop-color:#e4dddd"/>
  </linearGradient><linearGradient gradientUnits="userSpaceOnUse" id="RightLeg-Dog0id281" x1="15476.3" x2="15476.3" xlink:href="#RightLeg-Dog0id19" y1="24199" y2="20934.6">
  </linearGradient><linearGradient gradientUnits="userSpaceOnUse" id="LeftFoot-Dog3id636" x1="10586.2" x2="11300.1" xlink:href="#LeftFoot-Dog3id627" y1="25486.1" y2="23460.1">
  </linearGradient><linearGradient gradientUnits="objectBoundingBox" id="LeftLeg-Dog0id285" x1="50%" x2="50%" xlink:href="#LeftLeg-Dog0id19" y1="100%" y2="0%">
  </linearGradient><linearGradient gradientUnits="userSpaceOnUse" id="RightHand-Dog0id397" x1="16199" x2="17963.5" xlink:href="#RightHand-Dog0id168" y1="17957.2" y2="20505.4">
  </linearGradient><linearGradient gradientUnits="userSpaceOnUse" id="RightPaw-Dog0id406" x1="18770.8" x2="18008.4" y1="21729.1" y2="19634.5">
   <stop offset="0" style="stop-opacity:1; stop-color:#fcfcfc"/>
   <stop offset="0.701961" style="stop-opacity:1; stop-color:#e4dddd"/>
   <stop offset="1" style="stop-opacity:1; stop-color:#e4dddd"/>
  </linearGradient><linearGradient gradientUnits="userSpaceOnUse" id="LeftHand-Dog0id524" x1="11164.9" x2="9400.35" xlink:href="#LeftHand-Dog0id168" y1="17957.2" y2="20505.4">
  </linearGradient><linearGradient gradientUnits="userSpaceOnUse" id="LeftPaw-Dog0id974" x1="8449.46" x2="9499.06" xlink:href="#LeftPaw-Dog0id406" y1="21712.6" y2="19651">
  </linearGradient><linearGradient gradientUnits="objectBoundingBox" id="Body-Dog4id28" x1="50%" x2="50%" y1="0%" y2="100%">
   <stop offset="0" style="stop-opacity:1; stop-color:#bdaeae"/>
   <stop offset="0.101961" style="stop-opacity:1; stop-color:#bdaeae"/>
   <stop offset="0.521569" style="stop-opacity:1; stop-color:#e4dddd"/>
   <stop offset="1" style="stop-opacity:1; stop-color:#fcfcfc"/>
  </linearGradient><linearGradient gradientUnits="userSpaceOnUse" id="Body-Dog4id666" x1="13681.9" x2="13681.9" y1="18190.7" y2="21597.6">
   <stop offset="0" style="stop-opacity:1; stop-color:#ebdada"/>
   <stop offset="0.419608" style="stop-opacity:1; stop-color:#f8f3f3"/>
   <stop offset="1" style="stop-opacity:1; stop-color:#f8f3f3"/>
  </linearGradient><linearGradient gradientUnits="objectBoundingBox" id="Head-Dog2id325" x1="50%" x2="50%" xlink:href="#Head-Dog2id35" y1="99.9999%" y2="0%">
  </linearGradient><linearGradient gradientUnits="userSpaceOnUse" id="Head-Dog2id454" x1="13681.9" x2="13681.9" y1="17765.4" y2="8838.96">
   <stop offset="0" style="stop-opacity:1; stop-color:#ebdada"/>
   <stop offset="0.188235" style="stop-opacity:1; stop-color:#f8f3f3"/>
   <stop offset="1" style="stop-opacity:1; stop-color:#f8f3f3"/>
  </linearGradient><linearGradient gradientUnits="userSpaceOnUse" id="Eyes-Dog9id807" x1="10812.7" x2="10027.5" xlink:href="#Eyes-Dog9id27" y1="14750.4" y2="11404">
  </linearGradient><linearGradient gradientUnits="userSpaceOnUse" id="Eyes-Dog9id913" x1="9173.57" x2="12014.5" xlink:href="#Eyes-Dog9id57" y1="12775" y2="13167.3">
  </linearGradient><linearGradient gradientUnits="userSpaceOnUse" id="Eyes-Dog9id621" x1="10444.3" x2="11041.9" xlink:href="#Eyes-Dog9id384" y1="11470.6" y2="14000.3">
  </linearGradient><linearGradient gradientUnits="userSpaceOnUse" id="Eyes-Dog9id809" x1="16551.1" x2="17336.3" xlink:href="#Eyes-Dog9id27" y1="14750.4" y2="11404">
  </linearGradient><linearGradient gradientUnits="userSpaceOnUse" id="Eyes-Dog9id900" x1="18190.3" x2="15349.4" xlink:href="#Eyes-Dog9id57" y1="12775" y2="13167.3">
  </linearGradient><linearGradient gradientUnits="userSpaceOnUse" id="Eyes-Dog9id620" x1="16919.5" x2="16321.9" xlink:href="#Eyes-Dog9id384" y1="11470.6" y2="14000.3">
  </linearGradient><linearGradient gradientUnits="userSpaceOnUse" id="Nose-Dog0id907" x1="13681.9" x2="13681.9" xlink:href="#Nose-Dog0id451" y1="14020.2" y2="14838.5">
  </linearGradient><linearGradient gradientUnits="userSpaceOnUse" id="BraceletSilver-Mediumid671new" x1="8777.29" x2="10151.7" xlink:href="#BraceletSilver-Mediumid670new" y1="19683.8" y2="20796.7">
  </linearGradient><linearGradient gradientUnits="userSpaceOnUse" id="BraceletSilver-Mediumid689new" x1="18586.5" x2="17212.2" xlink:href="#BraceletSilver-Mediumid670new" y1="19683.8" y2="20796.7">
  </linearGradient><linearGradient gradientUnits="userSpaceOnUse" id="NecklaceTShirtWinter-Mediumid173" x1="11119.6" x2="16244.8" xlink:href="#NecklaceTShirtWinter-Mediumid46" y1="22253.9" y2="17835.6">
  </linearGradient><linearGradient gradientUnits="userSpaceOnUse" id="HatBaseballWhite-Mediumid245" x1="8052.38" x2="19252.9" xlink:href="#HatBaseballWhite-Mediumid223" y1="10493" y2="8054.43">
  </linearGradient><linearGradient gradientUnits="userSpaceOnUse" id="HatBaseballWhite-Mediumid150" x1="12797.5" x2="14175.5" y1="5819.27" y2="5742.69">
   <stop offset="0" style="stop-opacity:1; stop-color:#D6D6D6"/>
   <stop offset="0.588235" style="stop-opacity:1; stop-color:#FCFCFC"/>
   <stop offset="1" style="stop-opacity:1; stop-color:#E1E1E1"/>
  </linearGradient><linearGradient gradientUnits="userSpaceOnUse" id="HatBaseballWhite-Mediumid230" x1="8141.83" x2="19186.9" xlink:href="#HatBaseballWhite-Mediumid223" y1="12496.2" y2="11395.7">
  </linearGradient><linearGradient gradientUnits="userSpaceOnUse" id="WeaponBflyNetBack-Mediumid25" x1="7204.83" x2="8458.79" y1="22047.5" y2="19400.3">
   <stop offset="0" style="stop-opacity:1; stop-color:#FF6666"/>
   <stop offset="1" style="stop-opacity:1; stop-color:#FFC5B0"/>
  </linearGradient><linearGradient gradientUnits="userSpaceOnUse" id="WeaponBflyNet-Mediumid2" x1="9470.94" x2="12022.2" y1="22463.7" y2="22328">
   <stop offset="0" style="stop-opacity:1; stop-color:#5C3005"/>
   <stop offset="1" style="stop-opacity:1; stop-color:#B87939"/>
  </linearGradient><linearGradient gradientUnits="userSpaceOnUse" id="WeaponBflyNet-Mediumid1" x1="14169.4" x2="14169.4" y1="25399.5" y2="22680.1">
   <stop offset="0" style="stop-opacity:1; stop-color:#D4A373"/>
   <stop offset="1" style="stop-opacity:1; stop-color:#B87939"/>
  </linearGradient><radialGradient cx="5981.45" cy="24530.5" fx="5981.45" fy="24530.5" gradientTransform="matrix(1.08261 -0.0530996 0.0971573 0.591681 -2877 10334)" gradientUnits="userSpaceOnUse" id="AccessoryDuckid90" r="1635.36">
   <stop offset="0" style="stop-opacity:1; stop-color:#FFF256"/>
   <stop offset="0.631373" style="stop-opacity:1; stop-color:#FEE75C"/>
   <stop offset="1" style="stop-opacity:1; stop-color:#FFD83B"/>
  </radialGradient><radialGradient cx="6799.04" cy="23034.7" fx="6799.04" fy="23034.7" gradientTransform="matrix(1.0826 -0.0971566 0.0971566 1.0826 -2800 -1242)" gradientUnits="userSpaceOnUse" id="AccessoryDuckid94" r="935.18" xlink:href="#AccessoryDuckid90">
  </radialGradient><linearGradient gradientUnits="userSpaceOnUse" id="AccessoryDuckid39" x1="6677.2" x2="6677.2" y1="22471.8" y2="23026.9">
   <stop offset="0" style="stop-opacity:1; stop-color:black"/>
   <stop offset="1" style="stop-opacity:1; stop-color:#453223"/>
  </linearGradient><radialGradient cx="7621.66" cy="22955.4" fx="7621.66" fy="22955.4" gradientTransform="matrix(1.00003 -0 -0 0.645815 0 8130)" gradientUnits="userSpaceOnUse" id="AccessoryDuckid95" r="730.87">
   <stop offset="0" style="stop-opacity:1; stop-color:#FFB73B"/>
   <stop offset="1" style="stop-opacity:1; stop-color:#E05A00"/>
  </radialGradient><radialGradient cx="5594.96" cy="24567.2" fx="5594.96" fy="24567.2" gradientTransform="matrix(1.0826 -0.0578086 0.0971565 0.644153 -2849 9066)" gradientUnits="userSpaceOnUse" id="AccessoryDuckid92" r="719.36" xlink:href="#AccessoryDuckid90">
  </radialGradient><linearGradient gradientUnits="userSpaceOnUse" id="Tail-Dog5id74" x1="15961" x2="18418.2" y1="23174.1" y2="17871.9">
   <stop offset="0" style="stop-opacity:1; stop-color:#bdaeae"/>
   <stop offset="1" style="stop-opacity:1; stop-color:#e4dddd"/>
  </linearGradient><linearGradient gradientUnits="userSpaceOnUse" id="RightLeg-Dog0id19" x1="15490.3" x2="15490.3" y1="24284.1" y2="21188.2">
   <stop offset="0" style="stop-opacity:1; stop-color:#fcfcfc"/>
   <stop offset="0.439216" style="stop-opacity:1; stop-color:#fcfcfc"/>
   <stop offset="1" style="stop-opacity:1; stop-color:#e4dddd"/>
  </linearGradient><linearGradient gradientUnits="userSpaceOnUse" id="LeftFoot-Dog3id627" x1="16691.1" x2="16037.9" y1="25524" y2="23422.2">
   <stop offset="0" style="stop-opacity:1; stop-color:#656a75"/>
   <stop offset="0.329412" style="stop-opacity:1; stop-color:#bdaeae"/>
   <stop offset="0.619608" style="stop-opacity:1; stop-color:#e4dddd"/>
   <stop offset="1" style="stop-opacity:1; stop-color:#e4dddd"/>
  </linearGradient><linearGradient gradientUnits="userSpaceOnUse" id="LeftLeg-Dog0id19" x1="15490.3" x2="15490.3" y1="24284.1" y2="21188.2">
   <stop offset="0" style="stop-opacity:1; stop-color:#fcfcfc"/>
   <stop offset="0.439216" style="stop-opacity:1; stop-color:#fcfcfc"/>
   <stop offset="1" style="stop-opacity:1; stop-color:#e4dddd"/>
  </linearGradient><linearGradient gradientUnits="objectBoundingBox" id="RightHand-Dog0id168" x1="19.8228%" x2="80.1772%" y1="10.3299%" y2="89.6698%">
   <stop offset="0" style="stop-opacity:1; stop-color:#bdaeae"/>
   <stop offset="0.0196078" style="stop-opacity:1; stop-color:#bdaeae"/>
   <stop offset="0.721569" style="stop-opacity:1; stop-color:#e4dddd"/>
   <stop offset="1" style="stop-opacity:1; stop-color:#e4dddd"/>
  </linearGradient><linearGradient gradientUnits="objectBoundingBox" id="LeftHand-Dog0id168" x1="19.8228%" x2="80.1772%" y1="10.3299%" y2="89.6698%">
   <stop offset="0" style="stop-opacity:1; stop-color:#bdaeae"/>
   <stop offset="0.0196078" style="stop-opacity:1; stop-color:#bdaeae"/>
   <stop offset="0.721569" style="stop-opacity:1; stop-color:#e4dddd"/>
   <stop offset="1" style="stop-opacity:1; stop-color:#e4dddd"/>
  </linearGradient><linearGradient gradientUnits="userSpaceOnUse" id="LeftPaw-Dog0id406" x1="18770.8" x2="18008.4" y1="21729.1" y2="19634.5">
   <stop offset="0" style="stop-opacity:1; stop-color:#fcfcfc"/>
   <stop offset="0.701961" style="stop-opacity:1; stop-color:#e4dddd"/>
   <stop offset="1" style="stop-opacity:1; stop-color:#e4dddd"/>
  </linearGradient><linearGradient gradientUnits="userSpaceOnUse" id="Head-Dog2id35" x1="13681.9" x2="13681.9" y1="17936.7" y2="7484.8">
   <stop offset="0" style="stop-opacity:1; stop-color:#bdaeae"/>
   <stop offset="0.4" style="stop-opacity:1; stop-color:#e4dddd"/>
   <stop offset="1" style="stop-opacity:1; stop-color:#fcfcfc"/>
  </linearGradient><linearGradient gradientUnits="userSpaceOnUse" id="Eyes-Dog9id27" x1="16937.6" x2="16937.6" y1="14961.3" y2="11448.6">
   <stop offset="0" style="stop-opacity:1; stop-color:#800375"/>
   <stop offset="1" style="stop-opacity:1; stop-color:black"/>
  </linearGradient><linearGradient gradientUnits="objectBoundingBox" id="Eyes-Dog9id57" x1="100%" x2="0%" y1="50.0003%" y2="50.0003%">
   <stop offset="0" style="stop-opacity:1; stop-color:#800375"/>
   <stop offset="0.501961" style="stop-opacity:1; stop-color:#ff45f0"/>
   <stop offset="1" style="stop-opacity:1; stop-color:#800375"/>
  </linearGradient><linearGradient gradientUnits="userSpaceOnUse" id="Eyes-Dog9id384" x1="16417.8" x2="16417.8" y1="11784.3" y2="14068.5">
   <stop offset="0" style="stop-opacity:1; stop-color:black"/>
   <stop offset="0.45" style="stop-opacity:1; stop-color:black"/>
   <stop offset="1" style="stop-opacity:1; stop-color:#66005e"/>
  </linearGradient><linearGradient gradientUnits="userSpaceOnUse" id="Nose-Dog0id451" x1="13653.8" x2="13653.8" y1="14108.6" y2="14926.9">
   <stop offset="0" style="stop-opacity:1; stop-color:#FFCCCC"/>
   <stop offset="1" style="stop-opacity:1; stop-color:#453F2C"/>
  </linearGradient><linearGradient gradientUnits="userSpaceOnUse" id="BraceletSilver-Mediumid670new" x1="8123.49" x2="10221.1" y1="19753" y2="20731.2">
   <stop offset="0" style="stop-opacity:1; stop-color:#ADA8A8"/>
   <stop offset="0.109804" style="stop-opacity:1; stop-color:#EDE8E8"/>
   <stop offset="0.25098" style="stop-opacity:1; stop-color:#FFFFFC"/>
   <stop offset="0.470588" style="stop-opacity:1; stop-color:#DBD4D4"/>
   <stop offset="0.780392" style="stop-opacity:1; stop-color:#403838"/>
   <stop offset="1" style="stop-opacity:1; stop-color:#BDB3B3"/>
  </linearGradient><linearGradient gradientUnits="userSpaceOnUse" id="NecklaceTShirtWinter-Mediumid46" x1="10744.2" x2="16620.4" y1="22520.7" y2="17455">
   <stop offset="0" style="stop-opacity:1; stop-color:#C4C4C4"/>
   <stop offset="1" style="stop-opacity:1; stop-color:#EDEDED"/>
  </linearGradient><linearGradient gradientUnits="userSpaceOnUse" id="HatBaseballWhite-Mediumid223" x1="7866.29" x2="19463.6" y1="12137.3" y2="10981.8">
   <stop offset="0" style="stop-opacity:1; stop-color:#CFCFCF"/>
   <stop offset="0.301961" style="stop-opacity:1; stop-color:#E3E3E3"/>
   <stop offset="0.709804" style="stop-opacity:1; stop-color:white"/>
   <stop offset="1" style="stop-opacity:1; stop-color:#F2F2F2"/>
  </linearGradient></defs><g id="HairBack-Dog0">
 <animateTransform additive="sum" attributeName="transform" dur="10" repeatCount="indefinite" type="translate" values="0;0 200;0;0 200;0;0 200;0;0 200;0"/>
  <metadata id="CorelCorpID_115Corel-Layer"/>
  <rect class="HairBack-Dog0fil22" height="890" width="890" x="13237" y="6590"/>
 </g><g id="Tail-Dog5">
  <metadata id="CorelCorpID_122Corel-Layer"/>
  <path class="Tail-Dog5fil238" d="M13724 21721c1720,1554 3028,1087 3640,-286 576,-1294 2167,-3016 5034,-2164 -1013,241 -695,2249 -1754,3591 -1340,1700 -4862,2670 -8024,64 -297,-194 678,-1500 1104,-1205z" style="fill:#23ea0a"/>
  <path class="Tail-Dog5fil14" d="M20992 22313c-97,191 -211,376 -348,549 -1331,1689 -4815,2656 -7960,116l1080 -897c1836,2003 5794,2346 7228,232z" style="fill:#a08d9c"/>
  <path class="Tail-Dog5fil26" d="M19109 19499c819,-451 1905,-639 3289,-228 -673,160 -759,1101 -1051,2108 -269,64 -664,27 -893,-190 -332,-317 -196,-957 -495,-1397 -177,-260 -564,-302 -850,-293z" style="fill:#5b8d9e"/>
  <path class="Tail-Dog5fil22 Tail-Dog5str0" d="M13724 21721c1720,1554 3028,1087 3640,-286 576,-1294 2167,-3016 5034,-2164 -950,319 -695,2249 -1754,3591 -1340,1700 -4862,2670 -8024,64 -297,-194 678,-1500 1104,-1205z" style="fill:#8850f0"/>
 </g><g id="RightFoot-Dog3">
  <metadata id="CorelCorpID_127Corel-Layer"/>
  <path class="RightFoot-Dog3fil242" d="M17461 25232c-144,249 -469,331 -709,123 -82,82 -321,169 -611,76 -475,-152 -678,-627 -1088,-897 -209,-138 -43,-480 -31,-702 216,88 639,20 960,-216 332,-245 1043,-199 820,325 153,50 376,135 488,193 178,92 308,217 397,350 166,246 124,748 -226,748z" style="fill:#279be6"/>
  <path class="RightFoot-Dog3fil14" d="M17461 25232c-144,249 -469,331 -709,123 -82,82 -321,169 -611,76 -475,-152 -678,-627 -1088,-897 -182,-120 -106,-408 -68,-624 13,30 66,32 88,19 2,85 -1,160 50,261 317,621 1468,1311 1612,663 247,396 693,243 634,-148 151,250 332,57 232,-294 150,96 185,309 179,486 -21,178 -124,335 -319,335z" style="fill:#03d991"/>
  <path class="RightFoot-Dog3fil22" d="M16741 23949c560,135 807,327 949,532 170,244 121,751 -229,751 -144,249 -469,331 -709,123 -82,82 -321,169 -611,76 -475,-152 -614,-562 -1018,-844 -201,-140 -166,-401 -134,-554" style="fill:#1ba316"/>
  <path class="RightFoot-Dog3fil32" d="M17378 25213c0,3 0,7 0,10 -59,86 -148,149 -252,169 -84,16 -174,3 -257,-45l-12 -8c47,-255 19,-572 -334,-636 167,118 191,399 163,611 -41,33 -116,65 -215,77 -89,11 -194,6 -307,-31 -265,-85 -423,-261 -589,-447 -277,-311 -611,-400 -512,-864 8,-41 -28,-86 -58,-89 -24,-2 -80,17 -89,58 -119,558 222,630 548,995 180,201 350,392 654,490 137,43 264,50 371,37 108,-13 199,-49 262,-89l3 0c116,81 258,115 400,88 143,-28 268,-114 349,-234 151,-15 258,-113 313,-251 29,-74 44,-157 44,-240 0,-135 -38,-275 -108,-376 -77,-110 -181,-216 -341,-313 -143,-86 -331,-165 -584,-231 -71,-19 -105,8 -131,48 -23,34 -14,70 26,80 271,65 468,144 612,231 139,84 229,176 295,271 53,76 81,183 81,290 0,66 -11,130 -33,185 -25,64 -65,112 -119,138 13,-317 -128,-634 -466,-624 219,111 313,298 286,700z" style="fill:#6b4aee"/>
 </g><g id="LeftFoot-Dog3">
  <metadata id="CorelCorpID_135Corel-Layer"/>
  <path class="LeftFoot-Dog3fil248" d="M9847 25232c143,249 468,331 709,123 82,82 321,169 611,76 475,-152 678,-627 1088,-897 208,-138 43,-480 31,-702 -216,88 -640,20 -960,-216 -332,-245 -1043,-199 -821,325 -152,50 -375,135 -487,193 -178,92 -308,217 -398,350 -165,246 -124,748 227,748z" style="fill:#5f5212"/>
  <path class="LeftFoot-Dog3fil14" d="M9847 25232c143,249 468,331 709,123 82,82 321,169 611,76 475,-152 678,-627 1088,-897 181,-120 105,-408 68,-624 -13,30 -66,32 -88,19 -2,85 1,160 -50,261 -318,621 -1468,1311 -1612,663 -248,396 -693,243 -634,-148 -151,250 -333,57 -232,-294 -150,96 -186,309 -179,486 20,178 124,335 319,335z" style="fill:#ba0af6"/>
  <path class="LeftFoot-Dog3fil22" d="M10566 23949c-559,135 -807,327 -949,532 -169,244 -121,751 230,751 143,249 468,331 709,123 82,82 321,169 611,76 475,-152 614,-562 1017,-844 201,-140 167,-401 134,-554" style="fill:#c99555"/>
  <path class="LeftFoot-Dog3fil32" d="M9929 25213c1,3 1,7 0,10 59,86 149,149 253,169 84,16 174,3 257,-45l12 -8c-48,-255 -19,-572 333,-636 -166,118 -190,399 -162,611 41,33 116,65 215,77 89,11 193,6 307,-31 265,-85 423,-261 588,-447 278,-311 612,-400 513,-864 -9,-41 27,-86 58,-89 23,-2 80,17 88,58 119,558 -222,630 -547,995 -180,201 -351,392 -655,490 -137,43 -263,50 -370,37 -109,-13 -200,-49 -262,-89l-3 0c-116,81 -259,115 -401,88 -143,-28 -267,-114 -348,-234 -151,-15 -258,-113 -313,-251 -30,-74 -44,-157 -44,-240 0,-135 38,-275 108,-376 76,-110 181,-216 341,-313 142,-86 330,-165 584,-231 71,-19 105,8 131,48 22,34 14,70 -26,80 -271,65 -468,144 -612,231 -139,84 -230,176 -295,271 -53,76 -81,183 -81,290 0,66 11,130 32,185 26,64 65,112 120,138 -13,-317 128,-634 466,-624 -219,111 -313,298 -287,700z" style="fill:#d649b1"/>
 </g><g id="RightLeg-Dog0">
  <metadata id="CorelCorpID_128Corel-Layer"/>
  <path class="RightLeg-Dog0fil243" d="M13654 20939c701,0 2353,-56 2710,226 302,239 937,901 935,1761 -2,445 -277,1009 -1000,1266 -472,76 -697,-507 -1295,-235 60,-709 -911,-790 -1350,-797l0 -2221z" style="fill:#d1c298"/>
  <path class="RightLeg-Dog0fil32" d="M15057 24610c33,25 62,27 88,-6 25,-32 18,-79 -15,-104 -85,-66 -111,-236 -89,-338 34,-163 71,-342 -66,-579 0,-1 -1,-3 -2,-4 -100,-171 -247,-296 -460,-378 -208,-80 -506,-119 -859,-119l0 150c335,0 616,36 805,108 180,69 302,173 385,314 0,2 1,3 2,4 108,188 77,337 48,473 -32,154 43,385 163,479zm1227 -3463c175,139 478,451 693,860 144,272 248,587 247,919 -1,245 -87,464 -218,653 -154,223 -427,476 -707,613 326,-17 760,-427 830,-528 147,-211 244,-458 244,-738 2,-360 -110,-698 -263,-989 -227,-430 -547,-760 -734,-907l-92 117z" style="fill:#652110"/>
  <path class="RightLeg-Dog0fil14" d="M17192 23390c67,-148 106,-305 107,-464 2,-775 -541,-1451 -869,-1752 -191,187 -220,614 -78,870 275,-293 637,273 785,794 61,212 86,417 55,552z" style="fill:#94858a"/>
 </g><g id="LeftLeg-Dog0">
  <metadata id="CorelCorpID_136Corel-Layer"/>
  <path class="LeftLeg-Dog0fil249" d="M13654 20939c-701,0 -2353,-56 -2710,226 -303,239 -938,901 -935,1761 1,445 276,1009 1000,1266 472,76 697,-507 1294,-235 -59,-709 911,-790 1351,-797l0 -2221z" style="fill:#00c068"/>
  <path class="LeftLeg-Dog0fil32" d="M12251 24610c-33,25 -63,27 -88,-6 -25,-32 -19,-79 14,-104 85,-66 111,-236 90,-338 -34,-163 -72,-342 65,-579 1,-1 2,-3 3,-4 100,-171 246,-296 460,-378 208,-80 506,-119 859,-119l0 150c-335,0 -616,36 -806,108 -179,69 -302,173 -384,314 -1,2 -2,3 -2,4 -109,188 -77,337 -49,473 33,154 -42,385 -162,479zm-1227 -3463c-176,139 -478,451 -694,860 -143,272 -247,587 -246,919 0,245 86,464 217,653 155,223 428,476 708,613 -326,-17 -761,-427 -831,-528 -146,-211 -243,-458 -244,-738 -1,-360 110,-698 264,-989 226,-430 547,-760 733,-907l93 117z" style="fill:#5fc399"/>
  <path class="LeftLeg-Dog0fil14" d="M10116 23390c-67,-148 -107,-305 -107,-464 -2,-775 540,-1451 869,-1752 190,187 275,614 134,870 -388,-413 -1003,879 -896,1346z" style="fill:#4d1ee6"/>
 </g><g id="RightHand-Dog0">
 <animateTransform additive="sum" attributeName="transform" dur="10" repeatCount="indefinite" type="translate" values="0;0 200;0;0 200;0;0 200;0;0 200;0"/>
  <metadata id="CorelCorpID_141Corel-Layer"/>
  <path class="RightHand-Dog0fil253" d="M15619 17715c247,-7 498,-52 659,-90 985,362 1779,1397 2210,2149 289,504 -636,1265 -911,1014 -400,-366 -786,-483 -1129,-559 -358,-79 -514,-1818 -829,-2514z" style="fill:#db13cb"/>
  <path class="RightHand-Dog0fil22 RightHand-Dog0str0" d="M16041 17553c1079,269 1932,1403 2397,2213m-861 1022c-394,-360 -769,-512 -1113,-557" style="fill:#f955c8"/>
  <path class="RightHand-Dog0fil14" d="M17401 20669c-249,-249 -500,-372 -822,-396 -156,-175 -225,-650 -133,-901 308,435 716,808 1104,1031 -30,84 -75,162 -148,228 0,12 -1,25 -1,38z" style="fill:#aad722"/>
 </g><g id="LeftHand-Dog0">
 <animateTransform additive="sum" attributeName="transform" dur="10" repeatCount="indefinite" type="translate" values="0;0 200;0;0 200;0;0 200;0;0 200;0"/>
  <metadata id="CorelCorpID_149Corel-Layer"/>
  <path class="LeftHand-Dog0fil261" d="M11744 17715c-246,-7 -497,-52 -658,-90 -985,362 -1779,1397 -2210,2149 -289,504 636,1265 911,1014 400,-366 786,-483 1129,-559 358,-79 514,-1818 828,-2514z" style="fill:#67ae34"/>
  <path class="LeftHand-Dog0fil22 LeftHand-Dog0str0" d="M11323 17553c-1079,269 -1933,1403 -2397,2213m861 1022c394,-360 769,-512 1113,-557" style="fill:#ebc738"/>
  <path class="LeftHand-Dog0fil14" d="M9963 20669c249,-249 500,-372 821,-396 157,-175 226,-650 134,-901 -308,435 -717,808 -1104,1031 30,84 75,162 148,228 0,12 1,25 1,38z" style="fill:#de7324"/>
 </g><g id="Body-Dog4">
 <animateTransform additive="sum" attributeName="transform" dur="10" repeatCount="indefinite" type="translate" values="0;0 200;0;0 200;0;0 200;0;0 200;0"/>
  <metadata id="CorelCorpID_160Corel-Layer"/>
  <path class="Body-Dog4fil267" d="M13682 23035c-1548,0 -2752,-291 -2993,-1956 -146,-1010 387,-2357 984,-3487 334,54 1089,70 2009,70 920,0 1675,-16 2008,-70 598,1130 1131,2477 985,3487 -242,1665 -1445,1956 -2993,1956z" style="fill:#0b9547"/>
  <path class="Body-Dog4fil271" d="M11883 18257c-421,-402 -1032,1123 -600,1914 333,609 781,869 1154,752 447,-140 567,675 1245,675 678,0 798,-815 1245,-675 373,117 821,-143 1154,-752 432,-791 -179,-2316 -600,-1914 -682,654 -1019,735 -1799,735 -780,0 -1117,-81 -1799,-735z" style="fill:#0c1c26"/>
  <path class="Body-Dog4fil14" d="M12620 22967c-1015,-156 -1748,-629 -1931,-1888 -72,-498 21,-1078 206,-1674 -224,2001 425,3224 1725,3562z" style="fill:#a2d15f"/>
  <path class="Body-Dog4fil14" d="M14743 22967c1016,-156 1749,-629 1932,-1888 72,-498 -21,-1078 -206,-1674 224,2001 -425,3224 -1726,3562z" style="fill:#c4bf1a"/>
  <path class="Body-Dog4fil32" d="M11012 22044c-250,-321 -348,-641 -397,-954 -59,-377 -28,-1005 180,-1327 -79,420 -89,912 -32,1305 50,341 104,572 249,976z" style="fill:#843699"/>
  <path class="Body-Dog4fil32" d="M16352 22044c250,-321 347,-641 397,-954 59,-377 24,-998 -184,-1320 78,421 93,905 36,1298 -50,341 -104,572 -249,976z" style="fill:#b013d5"/>
 </g><g id="WeaponBflyNetBack-Medium">
 <animateTransform additive="sum" attributeName="transform" dur="10" repeatCount="indefinite" type="translate" values="0;0 200;0;0 200;0;0 200;0;0 200;0"/>
  <metadata id="CorelCorpID_6Corel-Layer"/>
  <path class="WeaponBflyNetBack-Mediumfil12 WeaponBflyNetBack-Mediumstr0" d="M9510 21699l211 -158 -3097 -1978c-171,-110 -453,-135 -615,154 -163,288 4,515 187,606l3288 1638 26 -262z" style="fill:#6d7ddd"/>
  <path class="WeaponBflyNetBack-Mediumfil1" d="M6205 19540c-65,37 -126,96 -176,184 -162,288 5,515 188,606l3267 1631 22 -220c-464,-223 -2955,-1545 -3141,-1708 -152,-132 -207,-333 -160,-493z" style="fill:#59f5c2"/>
 </g><g id="RightPaw-Dog0">
 <animateTransform additive="sum" attributeName="transform" dur="10" repeatCount="indefinite" type="translate" values="0;0 200;0;0 200;0;0 200;0;0 200;0"/>
  <metadata id="CorelCorpID_146Corel-Layer"/>
  <path class="RightPaw-Dog0fil259" d="M17402 20631c-38,818 551,1339 943,981 309,484 1078,126 986,-356 248,-652 -532,-1279 -980,-1632 -241,-78 -377,-149 -564,-64 -316,143 -32,749 -385,1071z" style="fill:#e51c3a"/>
  <path class="RightPaw-Dog0fil14" d="M17402 20631c-17,192 32,393 33,395 44,201 137,399 285,544 194,184 433,219 637,33 492,772 1351,-293 810,-632 144,452 -486,750 -723,253 -324,480 -778,69 -787,-350 -5,-223 56,-314 -107,-471 -30,84 -75,162 -148,228z" style="fill:#d6ca4d"/>
  <path class="RightPaw-Dog0fil32" d="M18446 21611c107,-163 129,-451 -88,-537 74,121 26,386 -69,476 -138,130 -263,138 -430,31 -93,-59 -178,-155 -245,-278 -93,-172 -149,-397 -138,-656 1,-21 -7,-43 -24,-59 -52,-50 -128,-78 -180,-116 -33,-25 -76,-27 -100,6 -24,33 -10,74 23,99 44,31 87,68 130,100 -5,272 57,511 157,696 79,147 183,261 296,334 178,114 384,128 560,8 101,121 232,181 368,195 211,22 433,-69 573,-226 103,-115 160,-263 137,-425 229,-648 -410,-1166 -864,-1533 -104,-84 -134,-147 -206,-255 -23,-34 -69,-44 -104,-21 -34,23 -43,70 -20,104 80,121 120,196 236,290 356,288 865,714 854,1122 -52,-71 -158,-158 -280,-146 191,160 321,562 136,764 -110,120 -284,194 -446,177 -102,-10 -201,-57 -276,-150z" style="fill:#2f013f"/>
 </g><g id="LeftPaw-Dog0">
 <animateTransform additive="sum" attributeName="transform" dur="10" repeatCount="indefinite" type="translate" values="0;0 200;0;0 200;0;0 200;0;0 200;0"/>
  <metadata id="CorelCorpID_154Corel-Layer"/>
  <path class="LeftPaw-Dog0fil265" d="M9962 20631c38,818 -552,1339 -944,981 -308,484 -1077,126 -986,-356 -247,-652 533,-1279 981,-1632 241,-78 377,-149 564,-64 316,143 31,749 385,1071z" style="fill:#552ba9"/>
  <path class="LeftPaw-Dog0fil14" d="M9962 20631c16,192 -32,393 -33,395 -44,201 -137,399 -285,544 -194,184 -433,219 -637,33 -493,772 -1351,-293 -810,-632 -144,452 485,750 723,253 324,480 778,69 787,-350 4,-223 -56,-314 107,-471 30,84 75,162 148,228z" style="fill:#b247f5"/>
  <path class="LeftPaw-Dog0fil32" d="M8918 21611c-107,-163 -129,-451 88,-537 -74,121 -26,386 69,476 138,130 263,138 430,31 92,-59 178,-155 245,-278 93,-172 149,-397 138,-656 -1,-21 7,-43 24,-59 52,-50 128,-78 180,-116 33,-25 75,-27 100,6 24,33 10,74 -24,99 -43,31 -86,68 -129,100 5,272 -57,511 -157,696 -80,147 -183,261 -296,334 -178,114 -384,128 -560,8 -101,121 -232,181 -369,195 -210,22 -432,-69 -572,-226 -103,-115 -161,-263 -137,-425 -229,-648 410,-1166 863,-1533 105,-84 134,-147 207,-255 23,-34 69,-44 103,-21 35,23 44,70 21,104 -81,121 -120,196 -236,290 -356,288 -865,714 -854,1122 52,-71 157,-158 280,-146 -191,160 -321,562 -136,764 110,120 284,194 446,177 102,-10 201,-57 276,-150z" style="fill:#a710ae"/>
 </g><g id="NecklaceTShirtWinter-Medium">
 <animateTransform additive="sum" attributeName="transform" dur="10" repeatCount="indefinite" type="translate" values="0;0 200;0;0 200;0;0 200;0;0 200;0"/>
  <metadata id="CorelCorpID_22Corel-Layer"/>
  <g id="_3198595412208">
   <path class="NecklaceTShirtWinter-Mediumfil222" d="M13682 18602c-964,0 -1888,-539 -1991,-1137 -307,15 -875,10 -1254,207 -284,147 -625,405 -909,665 -69,576 849,1662 1185,1528 -137,354 -355,1275 -351,1615 351,734 1703,1145 3320,1145 1618,0 2969,-411 3320,-1145 4,-340 -213,-1261 -351,-1615 336,134 1254,-952 1185,-1528 -284,-260 -624,-518 -908,-665 -380,-197 -947,-192 -1254,-207 -103,598 -1028,1137 -1992,1137z" style="fill:#173a89"/>
   <path class="NecklaceTShirtWinter-Mediumfil223" d="M11399 17477c-303,15 -683,50 -962,195 -285,147 -627,407 -911,667 17,124 25,301 85,439l691 251 261 -792 836 -760z" style="fill:#785984"/>
   <path class="NecklaceTShirtWinter-Mediumfil223" d="M14713 22565c1138,-139 2016,-514 2289,-1085 3,-199 -18,-369 -52,-526l-769 -293 19 -604 -1042 169 -609 791 164 1548z" style="fill:#2a544f"/>
   <path class="NecklaceTShirtWinter-Mediumfil223" d="M13682 18602c-268,0 -534,-42 -780,-116l-757 869 -1221 92 -346 957 0 0c-109,332 -221,632 -216,1076 29,60 64,117 105,172l52 22 1580 116 -236 -1235 1500 -720 582 -1247c-87,9 -175,14 -263,14z" style="fill:#b2c1d7"/>
   <path class="NecklaceTShirtWinter-Mediumfil224" d="M17849 18390c-238,-246 -558,-522 -858,-723l-399 559 897 250 -838 779c199,102 398,204 597,306 344,-403 540,-791 601,-1171z" style="fill:#76ac1f"/>
   <path class="NecklaceTShirtWinter-Mediumfil224" d="M10481 21671c478,614 1730,954 3201,954 141,0 279,11 415,5l-1046 -1484 -1188 -591 236 1235 -1618 -119z" style="fill:#616de8"/>
   <polygon class="NecklaceTShirtWinter-Mediumfil225" points="13363,19835 13945,18588 14623,18433 15283,18062 16512,18573 16227,19114 16200,20057 15158,20226 14549,21017 13896,20690 "/>
   <polygon class="NecklaceTShirtWinter-Mediumfil225" points="10302,19029 10563,18237 11201,17657 11783,17716 12246,18227 12193,18865 11215,18505 "/>
   <path class="NecklaceTShirtWinter-Mediumfil11 NecklaceTShirtWinter-Mediumstr1" d="M13682 18602c-964,0 -1888,-539 -1991,-1137 -307,15 -875,10 -1254,207 -284,147 -625,405 -909,665 -69,576 849,1662 1185,1528 -137,354 -355,1275 -351,1615 351,734 1703,1145 3320,1145 1618,0 2969,-411 3320,-1145 4,-340 -213,-1261 -351,-1615 336,134 1254,-952 1185,-1528 -284,-260 -624,-518 -908,-665 -380,-197 -947,-192 -1254,-207 -103,598 -1028,1137 -1992,1137z" style="fill:#b387c6"/>
   <path class="NecklaceTShirtWinter-Mediumfil156" d="M10628 19903c108,-240 250,-489 409,-634 -87,172 -189,445 -275,684l-134 -50z" style="fill:#bf46b2"/>
   <path class="NecklaceTShirtWinter-Mediumfil12" d="M10982 17509c-1300,629 -884,2159 -6,1833 -107,173 -169,304 -231,499 -343,209 -1291,-971 -1246,-1454 314,-343 898,-822 1483,-878z" style="fill:#af20e6"/>
   <path class="NecklaceTShirtWinter-Mediumfil12" d="M10981 19388c-693,2594 3061,3627 5633,2539 -1417,1033 -5492,978 -6262,-438 60,-614 336,-1735 629,-2101z" style="fill:#c77cf1"/>
   <path class="NecklaceTShirtWinter-Mediumfil12" d="M16107 18984c750,493 1483,72 1677,-591 80,504 -493,1433 -1145,1466 -144,-352 -340,-665 -532,-875z" style="fill:#eac07e"/>
   <path class="NecklaceTShirtWinter-Mediumfil156" d="M16736 19903c-107,-240 -249,-489 -408,-634 87,172 188,445 274,684l134 -50z" style="fill:#fd725b"/>
  </g>
 </g><g id="BraceletSilver-Medium">
 <animateTransform additive="sum" attributeName="transform" dur="10" repeatCount="indefinite" type="translate" values="0;0 200;0;0 200;0;0 200;0;0 200;0"/>
  <metadata id="CorelCorpID_21Corel-Layer"/>
  <path class="BraceletSilver-Mediumfil61new BraceletSilver-Mediumstr4new" d="M8722 20021c-151,-67 -275,-159 -160,-358 121,-209 254,-236 409,-177 393,150 1162,722 1389,1066 90,139 62,223 -75,361 -140,140 -296,145 -394,12 -244,-332 -771,-729 -1169,-904z" style="fill:#ca3e46"/>
  <path class="BraceletSilver-Mediumfil62new" d="M8972 19514c33,39 92,84 12,195l-109 154c-47,65 -146,102 -244,79l358 162c-39,-52 -74,-109 -24,-183l124 -184c36,-53 121,-66 183,-52l-300 -171zm403 244c31,41 86,91 -2,196l-122 144c-51,62 -117,68 -213,37l309 212c-36,-54 -66,-114 -10,-184l138 -173c40,-50 126,-57 186,-38l-286 -194zm405 279c28,43 80,96 -15,195l-131 136c-55,58 -148,69 -242,31l313 255c-32,-57 -50,-150 10,-216l150 -164c43,-47 129,-48 188,-25l-273 -212zm351 315c26,45 53,132 -47,223l-138 125c-59,53 -108,49 -200,4l243 265c-29,-58 -29,-131 34,-193l159 -152c45,-44 120,-42 178,-14l-229 -258z" style="fill:#552d97"/>
  <path class="BraceletSilver-Mediumfil63new BraceletSilver-Mediumstr4new" d="M18642 20021c151,-67 275,-159 160,-358 -121,-209 -254,-236 -409,-177 -393,150 -1163,722 -1389,1066 -90,139 -62,223 75,361 140,140 296,145 394,12 243,-332 770,-729 1169,-904z" style="fill:#0cfa7b"/>
  <path class="BraceletSilver-Mediumfil62new" d="M18392 19514c-34,39 -92,84 -13,195l110 154c47,65 143,95 241,72l-355 169c39,-52 74,-109 24,-183l-125 -184c-35,-53 -120,-66 -182,-52l300 -171zm-404 244c-30,41 -85,91 3,196l122 144c51,62 117,68 213,37l-309 212c36,-54 66,-114 10,-184l-139 -173c-39,-50 -125,-57 -186,-38l286 -194zm-404 279c-28,43 -80,96 15,195l131 136c55,58 132,62 225,25l-302 269c32,-57 56,-158 -4,-224l-150 -164c-43,-47 -129,-48 -188,-25l273 -212zm-361 292c-25,45 -43,155 57,246l138 125c59,53 108,49 200,4l-243 265c29,-58 29,-131 -35,-193l-158 -152c-45,-44 -120,-42 -178,-14l219 -281z" style="fill:#49b086"/>
 </g><g id="Head-Dog2">
 <animateTransform additive="sum" attributeName="transform" dur="10" repeatCount="indefinite" type="translate" values="0;0 200;0;0 200;0;0 200;0;0 200;0"/>
  <metadata id="CorelCorpID_174Corel-Layer"/>
  <path class="Head-Dog2fil332" d="M13682 7385c-3568,0 -6948,4165 -6021,7554 736,2692 3247,2816 6021,2816 2774,0 5285,-124 6021,-2816 927,-3389 -2453,-7554 -6021,-7554z" style="fill:#de2234"/>
  <path class="Head-Dog2fil333" d="M7661 14939c736,2692 3247,2826 6021,2826 2774,0 5285,-134 6021,-2826 31,-512 -119,-770 -417,-719 -249,43 -523,858 -1163,1062 -1127,359 -2641,-221 -3076,-914 -533,-847 -273,-2466 986,-3075 1093,-528 269,-1938 -1341,-2438 -1007,-312 70,3899 -457,4640 -157,221 -355,332 -553,332 -198,0 -396,-111 -553,-332 -528,-741 549,-4952 -457,-4640 -1610,500 -2435,1910 -1341,2438 1259,609 1519,2228 986,3075 -436,693 -1949,1273 -3077,914 -639,-204 -913,-1019 -1162,-1062 -298,-51 -449,207 -417,719z" style="fill:#e010b6"/>
  <path class="Head-Dog2fil14" d="M8141 11211c-590,1190 -813,2509 -480,3728 585,2138 2290,2657 4356,2779 -3483,-543 -4783,-2989 -3876,-6507z" style="fill:#b7e7a5"/>
  <path class="Head-Dog2fil32" d="M8228 11040c-264,535 -582,1851 -619,2193 -61,569 -26,1138 124,1686 291,1064 865,1718 1623,2119 512,271 1886,683 2839,689 -1054,122 -2558,-371 -2909,-557 -794,-420 -1394,-1102 -1697,-2212 -155,-567 -192,-1154 -129,-1740 23,-211 250,-1467 768,-2178z" style="fill:#2a6476"/>
  <path class="Head-Dog2fil32" d="M19136 11040c264,535 582,1851 619,2193 61,569 26,1138 -124,1686 -291,1064 -865,1718 -1623,2119 -513,271 -1887,683 -2840,689 1055,122 2559,-371 2909,-557 795,-420 1394,-1102 1698,-2212 155,-567 192,-1154 128,-1740 -22,-211 -249,-1467 -767,-2178z" style="fill:#20e20d"/>
  <path class="Head-Dog2fil32" d="M13682 7459c552,0 1099,101 1626,285 302,105 959,411 1688,816 -411,-435 -1448,-891 -1639,-957 -543,-189 -1107,-294 -1675,-294 -568,0 -1132,105 -1675,294 -191,66 -1229,522 -1639,957 728,-405 1386,-711 1688,-816 527,-184 1074,-285 1626,-285z" style="fill:#62a399"/>
 </g><g id="Mouth-Dog5">
 <animateTransform additive="sum" attributeName="transform" dur="10" repeatCount="indefinite" type="translate" values="0;0 200;0;0 200;0;0 200;0;0 200;0"/>
  <metadata id="CorelCorpID_185Corel-Layer"/>
  <path class="Mouth-Dog5fil22 Mouth-Dog5str0" d="M12525 16248c-132,-312 122,-686 386,-720 372,-47 781,-239 771,-642" style="fill:#022aa9"/>
  <path class="Mouth-Dog5fil152 Mouth-Dog5str0" d="M12545 15777c-31,-145 -9,-581 53,-694 130,38 405,278 442,420 -154,12 -368,65 -495,274z" style="fill:#7dd951"/>
  <path class="Mouth-Dog5fil22 Mouth-Dog5str0" d="M14839 16248c132,-312 -121,-686 -386,-720 -372,-47 -781,-239 -771,-642" style="fill:#265131"/>
  <path class="Mouth-Dog5fil152 Mouth-Dog5str0" d="M14819 15777c31,-145 9,-581 -52,-694 -131,38 -406,278 -443,420 154,12 369,65 495,274z" style="fill:#e629f4"/>
 </g><g id="WeaponBflyNet-Medium">
 <animateTransform additive="sum" attributeName="transform" dur="10" repeatCount="indefinite" type="translate" values="0;0 200;0;0 200;0;0 200;0;0 200;0"/>
  <metadata id="CorelCorpID_7Corel-Layer"/>
  <path class="WeaponBflyNet-Mediumfil13" d="M9944 24239c-1031,247 -2610,1424 -2409,1744 202,321 807,-308 2195,-285 1388,24 3318,548 4389,475 1072,-73 2527,-605 2527,-1008 0,-404 -664,-890 -664,-890l-1329 -819 -1589 -545 -1246 35c-312,696 -844,1047 -1874,1293z" style="fill:#f33372"/>
  <path class="WeaponBflyNet-Mediumfil14 WeaponBflyNet-Mediumstr2" d="M12208 23611c1081,-10 2699,732 3400,1560" style="fill:#1c62ff"/>
  <path class="WeaponBflyNet-Mediumfil14 WeaponBflyNet-Mediumstr2" d="M15001 25038c361,-118 643,-350 896,-735" style="fill:#83ea25"/>
  <path class="WeaponBflyNet-Mediumfil14 WeaponBflyNet-Mediumstr2" d="M14199 24735c361,-118 799,-594 993,-1009" style="fill:#927b3f"/>
  <path class="WeaponBflyNet-Mediumfil14 WeaponBflyNet-Mediumstr2" d="M13338 24354c351,-256 662,-654 857,-1068" style="fill:#437d61"/>
  <path class="WeaponBflyNet-Mediumfil14 WeaponBflyNet-Mediumstr2" d="M12448 23933c351,-255 662,-653 856,-1068" style="fill:#72c7ba"/>
  <path class="WeaponBflyNet-Mediumfil14 WeaponBflyNet-Mediumstr3" d="M9944 24239c-1031,247 -2610,1424 -2409,1744 202,321 807,-308 2195,-285 1388,24 3289,510 4389,475 1101,-35 2500,-626 2500,-1029 0,-404 -637,-869 -637,-869l-1329 -819 -1589 -545 -1246 35c-312,696 -844,1047 -1874,1293z" style="fill:#d90d51"/>
  <path class="WeaponBflyNet-Mediumfil15 WeaponBflyNet-Mediumstr0" d="M12035 22910c-60,107 -121,213 -181,320 -796,-450 -1593,-899 -2390,-1348 -25,-155 36,-261 180,-320 797,449 1594,899 2391,1348z" style="fill:#9a3cac"/>
  <path class="WeaponBflyNet-Mediumfil14 WeaponBflyNet-Mediumstr2" d="M7552 25924c388,-461 1369,-846 2240,-977 1201,-181 2132,-581 2417,-1260" style="fill:#a19696"/>
  <path class="WeaponBflyNet-Mediumfil3" d="M11925 23104l-71 126c-796,-450 -1593,-899 -2390,-1348 -14,-83 -2,-151 33,-206l2428 1428z" style="fill:#7f8d0a"/>
  <path class="WeaponBflyNet-Mediumfil14 WeaponBflyNet-Mediumstr2" d="M13504 26144c892,-24 1786,-100 2461,-823" style="fill:#079bca"/>
  <path class="WeaponBflyNet-Mediumfil14 WeaponBflyNet-Mediumstr2" d="M11549 25873c1214,-25 2062,57 3174,-816" style="fill:#4b0aac"/>
  <path class="WeaponBflyNet-Mediumfil14 WeaponBflyNet-Mediumstr2" d="M7630 26002c382,-247 1117,-495 1934,-589 1497,-171 3030,135 3829,-826" style="fill:#6369f4"/>
  <path class="WeaponBflyNet-Mediumfil16 WeaponBflyNet-Mediumstr1" d="M14530 23222c1360,601 2301,1453 2101,1904 -199,452 -1463,331 -2822,-269 -1360,-600 -2301,-1452 -2102,-1904 200,-451 1463,-331 2823,269zm-2073 437c425,367 973,670 1485,896 512,226 1105,426 1663,494 853,103 929,-68 277,-629 -426,-366 -973,-670 -1485,-896 -512,-226 -1105,-425 -1663,-493 -854,-103 -929,67 -277,628z" style="fill:#6754b0"/>
  <path class="WeaponBflyNet-Mediumfil3" d="M16555 25232c-345,321 -1506,173 -2746,-375 -1360,-600 -2301,-1452 -2102,-1904 38,-86 115,-151 223,-196 -33,31 -59,66 -76,106 -199,451 742,1303 2101,1903 1101,486 2139,658 2600,466zm-318 -112c15,-47 65,-258 5,-340 -71,-95 -191,-214 -360,-360 -426,-366 -973,-670 -1485,-896 -512,-226 -1105,-425 -1663,-493 -257,-31 -443,-37 -560,-16 33,-108 266,-128 706,-75 558,68 1151,268 1663,494 513,226 1060,529 1486,896 171,147 292,267 362,363 116,159 17,396 -154,427z" style="fill:#c3cbcc"/>
  <path class="WeaponBflyNet-Mediumfil14 WeaponBflyNet-Mediumstr2" d="M11269 23733c142,1272 2907,2208 4031,2233" style="fill:#8123dc"/>
  <path class="WeaponBflyNet-Mediumfil14 WeaponBflyNet-Mediumstr2" d="M10476 24127c-23,1341 1755,1969 3097,2026" style="fill:#4126f8"/>
  <path class="WeaponBflyNet-Mediumfil14 WeaponBflyNet-Mediumstr2" d="M9671 24329c-323,500 220,1274 858,1420" style="fill:#1ecce6"/>
  <path class="WeaponBflyNet-Mediumfil14 WeaponBflyNet-Mediumstr2" d="M8801 24747c-190,293 -4,865 395,962" style="fill:#f3fcc6"/>
  <path class="WeaponBflyNet-Mediumfil14 WeaponBflyNet-Mediumstr2" d="M8109 25223c-267,258 -33,735 247,682" style="fill:#d9c079"/>
 </g><g id="Eyes-Dog9">
 <animateTransform additive="sum" attributeName="transform" dur="10" repeatCount="indefinite" type="translate" values="0;0 200;0;0 200;0;0 200;0;0 200;0"/>
  <metadata id="CorelCorpID_198Corel-Layer"/>
  <path class="Eyes-Dog9fil392" d="M9195 14498c568,585 2046,487 2561,-180 647,-838 453,-2826 -623,-3023 -667,-122 -1486,237 -1919,728 -777,879 -543,1937 -19,2475z"/>
  <path class="Eyes-Dog9fil393" d="M12025 13424c80,-859 -318,-1673 -890,-1859 -84,-27 -168,-48 -252,-63 -449,-45 -890,85 -1225,386 -782,703 -515,1743 -136,2130 608,620 2249,690 2503,-594z"/>
  <path class="Eyes-Dog9fil394" d="M10443 11482c698,-150 1399,289 1565,981 165,692 -267,1375 -965,1525 -698,151 -1399,-288 -1564,-980 -166,-692 266,-1375 964,-1526z"/>
  <path class="Eyes-Dog9fil152" d="M9588 13876c180,14 374,155 403,351 25,173 -73,414 -356,395 -284,-18 -405,-181 -405,-379 0,-197 161,-382 358,-367z"/>
  <path class="Eyes-Dog9fil14" d="M12026 13761c276,-948 -14,-2305 -893,-2466 -667,-122 -1486,237 -1919,728 -273,308 -421,638 -475,960 429,-933 1484,-1181 2078,-1081 972,163 1206,1080 1209,1859z"/>
  <path class="Eyes-Dog9fil22 Eyes-Dog9str4" d="M9195 14498c568,585 2046,487 2561,-180 647,-838 453,-2826 -623,-3023 -667,-122 -1486,237 -1919,728 -777,879 -543,1937 -19,2475z"/>
  <path class="Eyes-Dog9fil204" d="M9608 13128c2,193 -191,313 -383,315 -193,2 -342,-124 -344,-316 -5,-346 139,-716 365,-1015 225,-297 504,-473 842,-558 187,-47 420,15 452,168 42,148 -56,313 -244,376 -172,57 -352,237 -487,415 -139,185 -204,429 -201,615z"/>
  <path class="Eyes-Dog9fil152" d="M11230 11533c211,114 317,344 237,482 -81,137 -276,125 -516,75 -240,-49 -329,-256 -254,-458 74,-202 322,-213 533,-99z"/>
  <circle class="Eyes-Dog9fil152" cx="11650" cy="12228" r="158"/>
  <path class="Eyes-Dog9fil395" d="M18169 14498c-569,585 -2046,487 -2561,-180 -647,-838 -453,-2826 622,-3023 668,-122 1487,237 1920,728 777,879 542,1937 19,2475z"/>
  <path class="Eyes-Dog9fil396" d="M15339 13424c-80,-859 318,-1673 890,-1859 84,-27 168,-48 252,-63 449,-45 890,85 1225,386 782,703 515,1743 136,2130 -608,620 -2250,690 -2503,-594z"/>
  <path class="Eyes-Dog9fil397" d="M16921 11482c-699,-150 -1399,289 -1565,981 -165,692 266,1375 965,1525 698,151 1399,-288 1564,-980 166,-692 -266,-1375 -964,-1526z"/>
  <path class="Eyes-Dog9fil152" d="M16612 13980c-148,-102 -388,-114 -534,20 -128,118 -203,368 29,532 232,163 428,113 553,-41 124,-154 115,-399 -48,-511z"/>
  <path class="Eyes-Dog9fil14" d="M15337 13761c-275,-948 15,-2305 893,-2466 668,-122 1487,237 1920,728 273,308 420,638 475,960 -429,-933 -1484,-1181 -2078,-1081 -972,163 -1207,1080 -1210,1859z"/>
  <path class="Eyes-Dog9fil22 Eyes-Dog9str4" d="M18169 14498c-569,585 -2046,487 -2561,-180 -647,-838 -453,-2826 622,-3023 668,-122 1487,237 1920,728 777,879 542,1937 19,2475z"/>
  <path class="Eyes-Dog9fil204" d="M16514 12220c-185,44 -350,-119 -401,-307 -52,-188 32,-360 217,-403 333,-79 728,-18 1075,139 345,156 586,392 754,704 94,173 93,414 -46,478 -133,73 -317,12 -426,-158 -100,-156 -319,-294 -526,-387 -214,-97 -467,-108 -647,-66z"/>
  <path class="Eyes-Dog9fil152" d="M15461 12368c-80,227 -3,468 149,516 151,48 288,-93 432,-291 145,-198 71,-411 -120,-510 -191,-99 -382,59 -461,285z"/>
  <circle class="Eyes-Dog9fil152" cx="18206" cy="13125" r="158"/>
  <path class="Eyes-Dog9fil155" d="M9511 9726c93,-107 559,-127 1060,-349 461,-203 784,-534 969,-469 205,71 140,524 -35,739 -144,176 -622,407 -1127,423 -597,19 -981,-215 -867,-344z"/>
  <path class="Eyes-Dog9fil14" d="M9511 9726c93,-107 559,-127 1060,-349 461,-203 784,-534 969,-469 205,71 140,524 -35,739 -144,176 -622,407 -1127,423 -597,19 -981,-215 -867,-344z"/>
  <path class="Eyes-Dog9fil155" d="M17853 9726c-93,-107 -559,-127 -1060,-349 -461,-203 -785,-534 -969,-469 -205,71 -140,524 35,739 144,176 622,407 1127,423 597,19 981,-215 867,-344z"/>
  <path class="Eyes-Dog9fil14" d="M17853 9726c-93,-107 -559,-127 -1060,-349 -461,-203 -785,-534 -969,-469 -205,71 -140,524 35,739 144,176 622,407 1127,423 597,19 981,-215 867,-344z"/>
 </g><g id="Moustache-Dog0">
 <animateTransform additive="sum" attributeName="transform" dur="10" repeatCount="indefinite" type="translate" values="0;0 200;0;0 200;0;0 200;0;0 200;0"/>
  <metadata id="CorelCorpID_200Corel-Layer"/>
  <rect class="Moustache-Dog0fil22" height="487" width="487" x="13438" y="12949"/>
 </g><g id="Nose-Dog0">
 <animateTransform additive="sum" attributeName="transform" dur="10" repeatCount="indefinite" type="translate" values="0;0 200;0;0 200;0;0 200;0;0 200;0"/>
  <metadata id="CorelCorpID_208Corel-Layer"/>
  <path class="Nose-Dog0fil416 Nose-Dog0str0" d="M13682 14020c-283,0 -678,136 -648,338 28,185 288,481 648,481 360,0 620,-296 648,-481 30,-202 -365,-338 -648,-338z" style="fill:#acec33"/>
 </g><g id="AccessoryDuck">
  <metadata id="CorelCorpID_7Corel-Layer"/>
  <g>
   <path class="AccessoryDuckfil122" d="M6799 23590c567,92 901,386 954,797 53,412 -243,1082 -841,1089 -393,5 -1153,26 -1786,26 -391,0 -696,-285 -829,-563 -183,-382 -87,-1276 203,-1374 170,-58 552,365 851,277 435,-128 967,-330 1448,-252z" style="fill:#d5b228"/>
   <path class="AccessoryDuckfil48" d="M7758 24535c-23,406 -315,934 -846,941 -393,5 -1153,26 -1786,26 -391,0 -696,-285 -829,-563 -156,-325 -109,-1021 87,-1282 -106,322 -111,821 11,1082 131,278 430,563 813,563 621,0 1366,-21 1751,-26 437,-6 710,-381 799,-741z" style="fill:#a4b5aa"/>
   <path class="AccessoryDuckfil123" d="M6799 23590c56,9 109,20 160,33 -130,90 -255,351 -427,375 -135,19 -523,-198 -655,-168 -209,48 -405,103 -557,148 -275,81 -535,-184 -692,-130 -267,91 -276,730 -108,1082 120,250 435,557 785,572 -61,0 -120,0 -179,0 -391,0 -696,-285 -829,-563 -183,-382 -87,-1276 203,-1374 170,-58 552,365 851,277 435,-128 967,-330 1448,-252z" style="fill:#8c050f"/>
   <path class="AccessoryDuckfil2 AccessoryDuckstr1" d="M6799 23590c567,92 901,386 954,797 53,412 -243,1082 -841,1089 -393,5 -1153,26 -1786,26 -391,0 -696,-285 -829,-563 -183,-382 -87,-1276 203,-1374 170,-58 552,365 851,277 435,-128 967,-330 1448,-252z" style="fill:#5d1807"/>
   <path class="AccessoryDuckfil124" d="M6799 22018c651,0 1017,455 1017,1017 0,561 -456,1016 -1017,1016 -561,0 -1016,-455 -1016,-1016 0,-562 365,-1017 1016,-1017z" style="fill:#624ed2"/>
   <path class="AccessoryDuckfil123" d="M6799 22018c651,0 1017,455 1017,1017 0,95 -14,186 -38,274 13,-58 21,-117 21,-178 0,-519 -394,-978 -993,-978 -598,0 -854,358 -854,878 0,454 400,909 767,1017 -524,-41 -936,-479 -936,-1013 0,-562 365,-1017 1016,-1017z" style="fill:#485a03"/>
   <path class="AccessoryDuckfil3" d="M6185 23844c-28,28 -290,-116 -378,-327 -53,-104 -110,-285 -125,-443 -4,-44 -7,-84 -7,-123 0,-256 79,-492 231,-671 152,-180 376,-303 666,-331 43,-4 85,-6 127,-6 344,0 637,118 846,308 218,199 346,477 346,784 0,197 -53,383 -146,543 -114,198 -486,429 -501,374 -14,-55 186,-125 372,-448 79,-138 125,-298 125,-469 0,-264 -109,-502 -297,-673 -182,-166 -440,-269 -745,-269 -41,0 -79,2 -113,5 -248,24 -438,127 -566,278 -128,152 -195,354 -195,575 0,37 2,74 5,108 14,140 50,256 110,390 60,135 273,366 245,395z" style="fill:#6e51f0"/>
   <path class="AccessoryDuckfil123" d="M6658 22472c143,0 258,134 258,300 0,166 -115,300 -258,300 -143,0 -259,-134 -259,-300 0,-166 116,-300 259,-300z" style="fill:#33161a"/>
   <ellipse class="AccessoryDuckfil125" cx="6677" cy="22749" rx="239" ry="278"/>
   <path class="AccessoryDuckfil2 AccessoryDuckstr18" d="M8022 22883c-201,144 -531,341 -779,257" style="fill:#7f2a2e"/>
   <path class="AccessoryDuckfil126" d="M6906 23254c-93,-143 260,-242 351,-320 100,-87 101,-231 168,-331 379,92 984,-279 923,-35 -43,175 -342,292 -454,408 135,81 371,182 293,310 -165,270 -1199,93 -1281,-32z" style="fill:#691817"/>
   <path class="AccessoryDuckfil127" d="M5595 24102c432,0 782,85 782,426 0,341 -350,504 -782,504 -432,0 -782,-445 -782,-651 0,-207 350,-279 782,-279z" style="fill:#819f72"/>
   <path class="AccessoryDuckfil123" d="M5595 24102c112,0 218,6 314,20 -54,-3 -109,-5 -167,-5 -397,0 -719,62 -719,238 0,176 322,556 719,556 224,0 424,-44 556,-135 -127,173 -394,256 -703,256 -432,0 -782,-445 -782,-651 0,-207 350,-279 782,-279z" style="fill:#bfe60e"/>
   <path class="AccessoryDuckfil2" d="M5595 24102c432,0 782,85 782,426 0,341 -350,504 -782,504 -432,0 -782,-445 -782,-651 0,-207 350,-279 782,-279z" style="fill:#8fd6da"/>
   <path class="AccessoryDuckfil128" d="M7774 23111c-89,-34 -14,-124 -111,-45 -97,79 -363,35 -380,106 -17,71 420,126 587,75 167,-51 -7,-102 -96,-136z" style="fill:#899d8a"/>
   <path class="AccessoryDuckfil3" d="M7978 22822c34,-24 80,-16 105,17 24,33 16,80 -17,104 -104,75 -242,164 -388,223 -227,93 -542,12 -506,-50 0,-32 161,63 450,-88 126,-66 259,-136 356,-206z" style="fill:#9daac1"/>
   <path class="AccessoryDuckfil2 AccessoryDuckstr0" d="M6843 23214c-50,-149 300,-228 411,-311 100,-77 103,-211 171,-300 595,142 902,-305 923,-35 14,173 -342,292 -454,408 135,81 371,182 293,310 -165,270 -1277,131 -1344,-72z" style="fill:#a057e8"/>
   <ellipse class="AccessoryDuckfil14" cx="6745" cy="22636" rx="71" ry="72"/>
   <path class="AccessoryDuckfil14" d="M6953 22225c60,7 105,42 101,77 -4,35 -60,68 -120,61 -60,-7 -102,-52 -98,-87 4,-36 57,-59 117,-51z" style="fill:#b52e31"/>
   <path class="AccessoryDuckfil14" d="M7236 22345c28,16 43,42 34,59 -10,16 -24,5 -52,-11 -28,-16 -60,-31 -50,-47 9,-17 40,-17 68,-1z" style="fill:#648c26"/>
   <path class="AccessoryDuckfil129" d="M7161 25119c-29,-51 140,-147 188,-480 19,-137 -2,-287 -86,-411 -23,-34 -14,-80 20,-104 35,-23 81,-14 104,21 107,157 135,344 110,515 -35,244 -307,509 -336,459z" style="fill:#b3fb30"/>
   <path class="AccessoryDuckfil130" d="M5478 24311c0,-39 423,-52 488,-36 278,75 233,289 199,309 -34,19 11,-154 -222,-212 -285,-70 -465,-23 -465,-61z" style="fill:#2d8b5b"/>
  </g>
 </g><g id="HatBaseballWhite-Medium">
 <animateTransform additive="sum" attributeName="transform" dur="10" repeatCount="indefinite" type="translate" values="0;0 200;0;0 200;0;0 200;0;0 200;0"/>
  <metadata id="CorelCorpID_47Corel-Layer"/>
  <path class="HatBaseballWhite-Mediumfil12" d="M8128 12979c0,0 735,1133 2036,892 1301,-241 2301,-693 3651,-627 2058,101 3012,446 3759,518 572,56 1201,-691 1675,-1060 -1808,-442 -3940,-1257 -5747,-1699 -1615,610 -3760,1366 -5374,1976z" style="fill:#dd0815"/>
  <path class="HatBaseballWhite-Mediumfil295 HatBaseballWhite-Mediumstr1" d="M13478 5443c395,-10 720,133 725,319 5,187 -312,346 -708,356 -395,11 -720,-132 -725,-318 -5,-187 312,-346 708,-357z" style="fill:#5e2720"/>
  <path class="HatBaseballWhite-Mediumfil296" d="M13488 5822c-1432,37 -3230,615 -4505,1987 -1285,1383 -1915,5062 -1357,4914 1218,-1165 3599,-1794 5994,-1857 2395,-63 4805,441 6083,1541 565,118 -257,-3523 -1613,-4837 -1345,-1303 -3170,-1786 -4602,-1748z" style="fill:#1f082b"/>
  <path class="HatBaseballWhite-Mediumfil165 HatBaseballWhite-Mediumstr8" d="M12581 5913c-3093,716 -3975,3417 -4148,5902" style="fill:#c13e50"/>
  <path class="HatBaseballWhite-Mediumfil165 HatBaseballWhite-Mediumstr8" d="M14398 5865c3126,553 4148,3204 4451,5677" style="fill:#f92115"/>
  <path class="HatBaseballWhite-Mediumfil165 HatBaseballWhite-Mediumstr9" d="M13676 10317c-146,-1834 -78,-3001 -239,-4504" style="fill:#4ffba1"/>
  <path class="HatBaseballWhite-Mediumfil165 HatBaseballWhite-Mediumstr8" d="M13417 10340c-96,-1369 -115,-2765 -243,-3876 -42,-360 -6,-592 48,-632" style="fill:#80bf27"/>
  <path class="HatBaseballWhite-Mediumfil165 HatBaseballWhite-Mediumstr8" d="M13966 10326c-56,-1371 -193,-2760 -188,-3879 2,-362 -60,-589 -118,-622" style="fill:#0909c8"/>
  <path class="HatBaseballWhite-Mediumfil167" d="M10252 6781c-383,252 -941,675 -1269,1028 -1285,1383 -1915,5062 -1357,4914 353,-337 552,-596 1072,-843 -945,524 -284,-3404 1554,-5099z" style="fill:#f6d206"/>
  <path class="HatBaseballWhite-Mediumfil11 HatBaseballWhite-Mediumstr1" d="M13488 5822c-1432,37 -3230,615 -4505,1987 -1285,1383 -1915,5062 -1357,4914 1218,-1165 3599,-1794 5994,-1857 2395,-63 4805,441 6083,1541 565,118 -257,-3523 -1613,-4837 -1345,-1303 -3170,-1786 -4602,-1748z" style="fill:#f8d7f5"/>
  <path class="HatBaseballWhite-Mediumfil297 HatBaseballWhite-Mediumstr1" d="M7626 12723c73,263 469,746 750,801 764,150 1817,-1303 5277,-1394 3460,-90 4587,1305 5343,1116 278,-70 648,-573 707,-839 -1791,-2894 -10441,-2667 -12077,316z" style="fill:#3356f1"/>
  <path class="HatBaseballWhite-Mediumfil12" d="M7626 12723c73,263 469,746 750,801 764,150 1817,-1303 5277,-1394 3460,-90 4587,1305 5343,1116 104,-26 220,-112 329,-224 -606,325 -1967,-1146 -5281,-1222 -2862,-66 -4884,1248 -5655,50 -325,258 -586,550 -763,873z" style="fill:#f45bd6"/>
  <path class="HatBaseballWhite-Mediumfil298" d="M18827 11683c419,1306 -2623,-271 -5321,66 1947,-58 3738,498 5066,1133 542,273 934,-136 1007,-447 -246,-337 -453,-544 -752,-752z" style="fill:#31deca"/>
 </g></svg>