<svg xmlns="http://www.w3.org/2000/svg" xmlns:xlink="http://www.w3.org/1999/xlink" style="shape-rendering:geometricPrecision; text-rendering:geometricPrecision; image-rendering:optimizeQuality; fill-rule:evenodd; clip-rule:evenodd" version="1.1" viewBox="0 0 29000 29000" xml:space="preserve"><defs><style type="text/css">.HairBack-Dog0fil22 {fill:none}
.Tail-Dog1fil233 {fill:url(#Tail-Dog1id902)}
.Tail-Dog1fil26 {fill:#f6f8fc}
.Tail-Dog1fil14 {fill:black;fill-opacity:0.200000}
.Tail-Dog1fil22 {fill:none}
.Tail-Dog1str0 {stroke:black;stroke-width:150;stroke-linecap:round;stroke-linejoin:round}
.RightFoot-Dog3fil242 {fill:url(#RightFoot-Dog3id627)}
.RightFoot-Dog3fil14 {fill:black;fill-opacity:0.200000}
.RightFoot-Dog3fil22 {fill:none}
.RightFoot-Dog3fil32 {fill:black;fill-rule:nonzero}
.RightLeg-Dog0fil243 {fill:url(#RightLeg-Dog0id281)}
.RightLeg-Dog0fil32 {fill:black;fill-rule:nonzero}
.RightLeg-Dog0fil14 {fill:black;fill-opacity:0.200000}
.LeftFoot-Dog3fil248 {fill:url(#LeftFoot-Dog3id636)}
.LeftFoot-Dog3fil14 {fill:black;fill-opacity:0.200000}
.LeftFoot-Dog3fil22 {fill:none}
.LeftFoot-Dog3fil32 {fill:black;fill-rule:nonzero}
.LeftLeg-Dog0fil249 {fill:url(#LeftLeg-Dog0id285)}
.LeftLeg-Dog0fil32 {fill:black;fill-rule:nonzero}
.LeftLeg-Dog0fil14 {fill:black;fill-opacity:0.200000}
.RightHand-Dog3fil255 {fill:url(#RightHand-Dog3id169)}
.RightHand-Dog3fil32 {fill:black;fill-rule:nonzero}
.RightHand-Dog3fil14 {fill:black;fill-opacity:0.200000}
.RightPaw-Dog0fil259 {fill:url(#RightPaw-Dog0id406)}
.RightPaw-Dog0fil14 {fill:black;fill-opacity:0.200000}
.RightPaw-Dog0fil32 {fill:black;fill-rule:nonzero}
.LeftHand-Dog3fil263 {fill:url(#LeftHand-Dog3id359)}
.LeftHand-Dog3fil32 {fill:black;fill-rule:nonzero}
.LeftHand-Dog3fil14 {fill:black;fill-opacity:0.200000}
.LeftPaw-Dog0fil265 {fill:url(#LeftPaw-Dog0id974)}
.LeftPaw-Dog0fil14 {fill:black;fill-opacity:0.200000}
.LeftPaw-Dog0fil32 {fill:black;fill-rule:nonzero}
.Body-Dog0fil267 {fill:url(#Body-Dog0id28)}
.Body-Dog0fil268 {fill:url(#Body-Dog0id251)}
.Body-Dog0fil14 {fill:black;fill-opacity:0.200000}
.Body-Dog0fil32 {fill:black;fill-rule:nonzero}
.Head-Dog7fil330 {fill:url(#Head-Dog7id327)}
.Head-Dog7fil341 {fill:url(#Head-Dog7id403)}
.Head-Dog7fil14 {fill:black;fill-opacity:0.200000}
.Head-Dog7fil32 {fill:black;fill-rule:nonzero}
.Head-Dog7fil342 {fill:url(#Head-Dog7id377)}
.Mouth-Dog10fil100 {fill:black}
.Mouth-Dog10fil22 {fill:none}
.Mouth-Dog10str0 {stroke:black;stroke-width:150;stroke-linecap:round;stroke-linejoin:round}
.Mouth-Dog10fil152 {fill:white}
.Mouth-Dog10str7 {stroke:black;stroke-width:129.99;stroke-linecap:round;stroke-linejoin:round}
.Eyes-Dog10fil398 {fill:url(#Eyes-Dog10id811)}
.Eyes-Dog10fil399 {fill:url(#Eyes-Dog10id877)}
.Eyes-Dog10fil400 {fill:url(#Eyes-Dog10id885)}
.Eyes-Dog10fil152 {fill:white}
.Eyes-Dog10fil157 {fill:black;fill-opacity:0.501961}
.Eyes-Dog10fil401 {fill:url(#Eyes-Dog10id810)}
.Eyes-Dog10fil402 {fill:url(#Eyes-Dog10id876)}
.Eyes-Dog10fil403 {fill:url(#Eyes-Dog10id884)}
.Eyes-Dog10fil155 {fill:#544627}
.Eyes-Dog10fil14 {fill:black;fill-opacity:0.200000}
.Eyes-Dog10fil22 {fill:none}
.Eyes-Dog10str4 {stroke:black;stroke-width:150}
.Moustache-Dog0fil22 {fill:none}
.Nose-Dog0fil416 {fill:url(#Nose-Dog0id907)}
.Nose-Dog0str0 {stroke:black;stroke-width:150;stroke-linecap:round;stroke-linejoin:round}
.HatBanderasBack-Mediumfil3new {fill:black;fill-opacity:0.301961}
.HatBanderasBack-Mediumfil16new {fill:url(#HatBanderasBack-Mediumid415new)}
.HatBanderasBack-Mediumstr2new {stroke:#2B2A29;stroke-width:150}
.BraceletGold-Mediumfil3new {fill:black;fill-opacity:0.301961}
.BraceletGold-Mediumfil66new {fill:url(#BraceletGold-Mediumid695new);fill-rule:nonzero}
.BraceletGold-Mediumstr3new {stroke:black;stroke-width:100;stroke-linecap:round;stroke-linejoin:round}
.BraceletGold-Mediumfil67new {fill:url(#BraceletGold-Mediumid700new);fill-rule:nonzero}
.HatBanderas-Mediumfil608new {fill:url(#HatBanderas-Mediumid682new);fill-rule:nonzero}
.HatBanderas-Mediumfil609new {fill:#FFCC99;fill-rule:nonzero;fill-opacity:0.301961}
.HatBanderas-Mediumfil14new {fill:black;fill-opacity:0.200000}
.HatBanderas-Mediumfil246new {fill:#643200;fill-opacity:0.200000}
.HatBanderas-Mediumfil619new {fill:#c78b5d;fill-opacity:0.200000}
.HatBanderas-Mediumfil621new {fill:url(#HatBanderas-Mediumid706new);fill-rule:nonzero}
.HatBanderas-Mediumfil360new {fill:black;fill-rule:nonzero;fill-opacity:0.200000}
.HatBanderas-Mediumfil47new {fill:none;fill-rule:nonzero}
.HatBanderas-Mediumstr0new {stroke:black;stroke-width:150;stroke-linecap:round;stroke-linejoin:round}
.HatBanderas-Mediumfil610new {fill:url(#HatBanderas-Mediumid667new);fill-rule:nonzero}
.HatBanderas-Mediumfil611new {fill:#DB9600}
.HatBanderas-Mediumfil612new {fill:url(#HatBanderas-Mediumid156new)}
.HatBanderas-Mediumfil613new {fill:url(#HatBanderas-Mediumid153new)}
.HatBanderas-Mediumfil614new {fill:url(#HatBanderas-Mediumid65new)}
.HatBanderas-Mediumfil615new {fill:url(#HatBanderas-Mediumid190new)}
.HatBanderas-Mediumfil616new {fill:url(#HatBanderas-Mediumid569new)}
.HatBanderas-Mediumfil617new {fill:url(#HatBanderas-Mediumid188new)}
.HatBanderas-Mediumfil618new {fill:url(#HatBanderas-Mediumid192new)}
.HatBanderas-Mediumfil620new {fill:url(#HatBanderas-Mediumid168new)}
.HatBanderas-Mediumfil622new {fill:url(#HatBanderas-Mediumid708new);fill-rule:nonzero}
.WeaponFlySwatterBack-Mediumfil1 {fill:black;fill-rule:nonzero;fill-opacity:0.200000}
.WeaponFlySwatterBack-Mediumfil0 {fill:url(#WeaponFlySwatterBack-Mediumid26);fill-rule:nonzero}
.WeaponFlySwatterBack-Mediumstr0 {stroke:black;stroke-width:150;stroke-linecap:round;stroke-linejoin:round}
.WeaponFlySwatter-Mediumfil3 {fill:black;fill-opacity:0.200000}
.WeaponFlySwatter-Mediumfil4 {fill:url(#WeaponFlySwatter-Mediumid24);fill-rule:nonzero}
.WeaponFlySwatter-Mediumfil1 {fill:black;fill-rule:nonzero;fill-opacity:0.200000}
.WeaponFlySwatter-Mediumfil2 {fill:url(#WeaponFlySwatter-Mediumid0)}
.WeaponFlySwatter-Mediumstr0 {stroke:black;stroke-width:150;stroke-linecap:round;stroke-linejoin:round}
.WeaponFlySwatter-Mediumfil5 {fill:none;fill-rule:nonzero}
.WeaponFlySwatter-Mediumstr1 {stroke:black;stroke-width:150}
.NecklaceTornShirtBlue-Mediumfil10 {fill:url(#NecklaceTornShirtBlue-Mediumid1)}
.NecklaceTornShirtBlue-Mediumfil2 {fill:black;fill-opacity:0.301961}
.NecklaceTornShirtBlue-Mediumfil3 {fill:black}
.NecklaceTornShirtBlue-Mediumfil4 {fill:black;fill-opacity:0.501961}
.NecklaceTornShirtBlue-Mediumfil1 {fill:none}
.NecklaceTornShirtBlue-Mediumfil5 {fill:black;fill-rule:nonzero}
.NecklaceTornShirtBlue-Mediumfil6 {fill:black;fill-opacity:0.400000}
.NecklaceTornShirtBlue-Mediumstr1 {stroke:black;stroke-width:150;stroke-linecap:round;stroke-linejoin:round}
.AccessoryTeddyfil111 {fill:url(#AccessoryTeddyid56)}
.AccessoryTeddyfil3 {fill:black;fill-rule:nonzero}
.AccessoryTeddyfil112 {fill:url(#AccessoryTeddyid75)}
.AccessoryTeddyfil19 {fill:black;fill-opacity:0.501961}
.AccessoryTeddyfil115 {fill:url(#AccessoryTeddyid69)}
.AccessoryTeddyfil117 {fill:url(#AccessoryTeddyid31)}
.AccessoryTeddyfil119 {fill:url(#AccessoryTeddyid5)}
.AccessoryTeddyfil120 {fill:url(#AccessoryTeddyid36)}
.AccessoryTeddyfil121 {fill:url(#AccessoryTeddyid41)}
.AccessoryTeddyfil15 {fill:black}
.AccessoryTeddyfil14 {fill:white}
.AccessoryTeddyfil109 {fill:url(#AccessoryTeddyid76)}
.AccessoryTeddystr1 {stroke:black;stroke-width:150}
.AccessoryTeddyfil110 {fill:url(#AccessoryTeddyid88)}
.AccessoryTeddyfil113 {fill:#B88531}
.AccessoryTeddyfil114 {fill:url(#AccessoryTeddyid10)}
.AccessoryTeddyfil116 {fill:url(#AccessoryTeddyid29)}
.AccessoryTeddyfil118 {fill:url(#AccessoryTeddyid27)}
.AccessoryTeddyfil2 {fill:none}
.AccessoryTeddystr8 {stroke:black;stroke-width:100;stroke-linecap:round;stroke-linejoin:round}
</style><linearGradient gradientUnits="userSpaceOnUse" id="Tail-Dog1id902" x1="14705.4" x2="18334" xlink:href="#Tail-Dog1id74" y1="22521" y2="17924.8">
  </linearGradient><linearGradient gradientUnits="userSpaceOnUse" id="RightFoot-Dog3id627" x1="16691.1" x2="16037.9" y1="25524" y2="23422.2">
   <stop offset="0" style="stop-opacity:1; stop-color:#7a6945"/>
   <stop offset="0.329412" style="stop-opacity:1; stop-color:#bdaeae"/>
   <stop offset="0.619608" style="stop-opacity:1; stop-color:#e4dddd"/>
   <stop offset="1" style="stop-opacity:1; stop-color:#e4dddd"/>
  </linearGradient><linearGradient gradientUnits="userSpaceOnUse" id="RightLeg-Dog0id281" x1="15476.3" x2="15476.3" xlink:href="#RightLeg-Dog0id19" y1="24199" y2="20934.6">
  </linearGradient><linearGradient gradientUnits="userSpaceOnUse" id="LeftFoot-Dog3id636" x1="10586.2" x2="11300.1" xlink:href="#LeftFoot-Dog3id627" y1="25486.1" y2="23460.1">
  </linearGradient><linearGradient gradientUnits="objectBoundingBox" id="LeftLeg-Dog0id285" x1="50%" x2="50%" xlink:href="#LeftLeg-Dog0id19" y1="100%" y2="0%">
  </linearGradient><linearGradient gradientUnits="userSpaceOnUse" id="RightHand-Dog3id169" x1="16241.5" x2="18031.9" xlink:href="#RightHand-Dog3id168" y1="17938.5" y2="20524.1">
  </linearGradient><linearGradient gradientUnits="userSpaceOnUse" id="RightPaw-Dog0id406" x1="18770.8" x2="18008.4" y1="21729.1" y2="19634.5">
   <stop offset="0" style="stop-opacity:1; stop-color:#fcfcfc"/>
   <stop offset="0.701961" style="stop-opacity:1; stop-color:#e4dddd"/>
   <stop offset="1" style="stop-opacity:1; stop-color:#e4dddd"/>
  </linearGradient><linearGradient gradientUnits="userSpaceOnUse" id="LeftHand-Dog3id359" x1="11122.3" x2="9331.95" xlink:href="#LeftHand-Dog3id168" y1="17938.5" y2="20524.1">
  </linearGradient><linearGradient gradientUnits="userSpaceOnUse" id="LeftPaw-Dog0id974" x1="8449.46" x2="9499.06" xlink:href="#LeftPaw-Dog0id406" y1="21712.6" y2="19651">
  </linearGradient><linearGradient gradientUnits="objectBoundingBox" id="Body-Dog0id28" x1="50%" x2="50%" y1="0%" y2="100%">
   <stop offset="0" style="stop-opacity:1; stop-color:#bdaeae"/>
   <stop offset="0.101961" style="stop-opacity:1; stop-color:#bdaeae"/>
   <stop offset="0.521569" style="stop-opacity:1; stop-color:#e4dddd"/>
   <stop offset="1" style="stop-opacity:1; stop-color:#fcfcfc"/>
  </linearGradient><linearGradient gradientUnits="userSpaceOnUse" id="Body-Dog0id251" x1="13681.9" x2="13681.9" y1="17494.1" y2="22874.9">
   <stop offset="0" style="stop-opacity:1; stop-color:#bdaeae"/>
   <stop offset="0.278431" style="stop-opacity:1; stop-color:#e4dddd"/>
   <stop offset="0.721569" style="stop-opacity:1; stop-color:#fcfcfc"/>
   <stop offset="1" style="stop-opacity:1; stop-color:#fcfcfc"/>
  </linearGradient><linearGradient gradientUnits="objectBoundingBox" id="Head-Dog7id327" x1="50%" x2="50%" xlink:href="#Head-Dog7id35" y1="99.9999%" y2="0%">
  </linearGradient><linearGradient gradientUnits="userSpaceOnUse" id="Head-Dog7id403" x1="14977.5" x2="19153.5" xlink:href="#Head-Dog7id18" y1="10345.9" y2="14381.5">
  </linearGradient><linearGradient gradientUnits="userSpaceOnUse" id="Head-Dog7id377" x1="11727.3" x2="11727.3" xlink:href="#Head-Dog7id132" y1="16891.4" y2="10356.4">
  </linearGradient><linearGradient gradientUnits="userSpaceOnUse" id="Eyes-Dog10id811" x1="10548.9" x2="10170.7" xlink:href="#Eyes-Dog10id27" y1="14845.3" y2="11518.7">
  </linearGradient><linearGradient gradientUnits="userSpaceOnUse" id="Eyes-Dog10id877" x1="9092.22" x2="12133.7" xlink:href="#Eyes-Dog10id57" y1="12896.4" y2="13213">
  </linearGradient><linearGradient gradientUnits="userSpaceOnUse" id="Eyes-Dog10id885" x1="10842.9" x2="10616.8" xlink:href="#Eyes-Dog10id384" y1="11722.2" y2="14210.2">
  </linearGradient><linearGradient gradientUnits="userSpaceOnUse" id="Eyes-Dog10id810" x1="16814.9" x2="17193.1" xlink:href="#Eyes-Dog10id27" y1="14845.3" y2="11518.7">
  </linearGradient><linearGradient gradientUnits="userSpaceOnUse" id="Eyes-Dog10id876" x1="18271.6" x2="15230.2" xlink:href="#Eyes-Dog10id57" y1="12896.4" y2="13213">
  </linearGradient><linearGradient gradientUnits="userSpaceOnUse" id="Eyes-Dog10id884" x1="16520.9" x2="16747.1" xlink:href="#Eyes-Dog10id384" y1="11722.2" y2="14210.2">
  </linearGradient><linearGradient gradientUnits="userSpaceOnUse" id="Nose-Dog0id907" x1="13681.9" x2="13681.9" xlink:href="#Nose-Dog0id451" y1="14020.2" y2="14838.5">
  </linearGradient><linearGradient gradientUnits="userSpaceOnUse" id="HatBanderasBack-Mediumid415new" x1="11406.4" x2="11406.4" xlink:href="#HatBanderasBack-Mediumid273new" y1="14755.2" y2="11000.6">
  </linearGradient><linearGradient gradientUnits="userSpaceOnUse" id="BraceletGold-Mediumid695new" x1="8795.03" x2="10201.4" y1="19661" y2="20720.4">
   <stop offset="0" style="stop-opacity:1; stop-color:#CC9933"/>
   <stop offset="0.109804" style="stop-opacity:1; stop-color:#FFF98F"/>
   <stop offset="0.25098" style="stop-opacity:1; stop-color:#FFFFFC"/>
   <stop offset="0.478431" style="stop-opacity:1; stop-color:#FFF982"/>
   <stop offset="0.811765" style="stop-opacity:1; stop-color:#643300"/>
   <stop offset="1" style="stop-opacity:1; stop-color:#CC9933"/>
  </linearGradient><linearGradient gradientUnits="userSpaceOnUse" id="BraceletGold-Mediumid700new" x1="18568.8" x2="17162.5" xlink:href="#BraceletGold-Mediumid695new" y1="19661" y2="20720.4">
  </linearGradient><linearGradient gradientUnits="userSpaceOnUse" id="HatBanderas-Mediumid682new" x1="13602.1" x2="11925.5" y1="11547.2" y2="4747.37">
   <stop offset="0" style="stop-opacity:1; stop-color:#0F0A00"/>
   <stop offset="1" style="stop-opacity:1; stop-color:#615A3E"/>
  </linearGradient><linearGradient gradientUnits="userSpaceOnUse" id="HatBanderas-Mediumid706new" x1="14196.7" x2="11590.4" xlink:href="#HatBanderas-Mediumid682new" y1="14479.3" y2="3909.34">
  </linearGradient><linearGradient gradientUnits="userSpaceOnUse" id="HatBanderas-Mediumid667new" x1="13059.3" x2="12043.7" y1="11875.2" y2="7756.23">
   <stop offset="0" style="stop-opacity:1; stop-color:#570D00"/>
   <stop offset="1" style="stop-opacity:1; stop-color:#C90000"/>
  </linearGradient><linearGradient gradientUnits="userSpaceOnUse" id="HatBanderas-Mediumid156new" x1="17132.7" x2="15358.6" xlink:href="#HatBanderas-Mediumid29new" y1="6534.95" y2="4566.09">
  </linearGradient><linearGradient gradientUnits="userSpaceOnUse" id="HatBanderas-Mediumid153new" x1="17891.3" x2="18675.4" xlink:href="#HatBanderas-Mediumid29new" y1="6718.18" y2="3050.2">
  </linearGradient><linearGradient gradientUnits="userSpaceOnUse" id="HatBanderas-Mediumid65new" x1="18407.5" x2="23687.9" xlink:href="#HatBanderas-Mediumid29new" y1="5325.25" y2="4441.39">
  </linearGradient><linearGradient gradientUnits="userSpaceOnUse" id="HatBanderas-Mediumid190new" x1="22805.7" x2="23399.6" xlink:href="#HatBanderas-Mediumid29new" y1="9246.61" y2="6663.65">
  </linearGradient><linearGradient gradientUnits="userSpaceOnUse" id="HatBanderas-Mediumid569new" x1="18102.7" x2="19619.8" xlink:href="#HatBanderas-Mediumid29new" y1="6097.02" y2="7516.76">
  </linearGradient><linearGradient gradientUnits="userSpaceOnUse" id="HatBanderas-Mediumid188new" x1="22423.7" x2="22545.4" xlink:href="#HatBanderas-Mediumid29new" y1="9500.13" y2="6706.71">
  </linearGradient><linearGradient gradientUnits="userSpaceOnUse" id="HatBanderas-Mediumid192new" x1="20528.7" x2="20011.2" xlink:href="#HatBanderas-Mediumid29new" y1="7723.46" y2="5385.04">
  </linearGradient><linearGradient gradientUnits="userSpaceOnUse" id="HatBanderas-Mediumid168new" x1="16082.9" x2="23396.2" xlink:href="#HatBanderas-Mediumid29new" y1="7125.45" y2="7308.29">
  </linearGradient><linearGradient gradientUnits="userSpaceOnUse" id="HatBanderas-Mediumid708new" x1="19172.7" x2="18887.4" y1="6164.67" y2="5430.19">
   <stop offset="0" style="stop-opacity:1; stop-color:#38321F"/>
   <stop offset="1" style="stop-opacity:1; stop-color:#615A3E"/>
  </linearGradient><linearGradient gradientUnits="userSpaceOnUse" id="WeaponFlySwatterBack-Mediumid26" x1="7745.86" x2="9181.7" xlink:href="#WeaponFlySwatterBack-Mediumid24" y1="21810.6" y2="20301.7">
  </linearGradient><linearGradient gradientUnits="userSpaceOnUse" id="WeaponFlySwatter-Mediumid24" x1="12160.4" x2="14712.1" y1="25216.2" y2="22534.8">
   <stop offset="0" style="stop-opacity:1; stop-color:#008011"/>
   <stop offset="1" style="stop-opacity:1; stop-color:#00BD55"/>
  </linearGradient><linearGradient gradientUnits="userSpaceOnUse" id="WeaponFlySwatter-Mediumid0" x1="9457.05" x2="12008.3" y1="22428.9" y2="22293.2">
   <stop offset="0" style="stop-opacity:1; stop-color:#787878"/>
   <stop offset="1" style="stop-opacity:1; stop-color:#D6D6D6"/>
  </linearGradient><linearGradient gradientUnits="userSpaceOnUse" id="NecklaceTornShirtBlue-Mediumid1" x1="13681.9" x2="13681.9" y1="22800.8" y2="17350.8">
   <stop offset="0" style="stop-opacity:1; stop-color:#4B5761"/>
   <stop offset="1" style="stop-opacity:1; stop-color:#859FB8"/>
  </linearGradient><linearGradient gradientUnits="userSpaceOnUse" id="AccessoryTeddyid56" x1="5274.88" x2="5544.57" y1="25442.4" y2="22421.3">
   <stop offset="0" style="stop-opacity:1; stop-color:#B88531"/>
   <stop offset="0.14902" style="stop-opacity:1; stop-color:#99672C"/>
   <stop offset="0.639216" style="stop-opacity:1; stop-color:#9C6E24"/>
   <stop offset="1" style="stop-opacity:1; stop-color:#523100"/>
  </linearGradient><linearGradient gradientUnits="userSpaceOnUse" id="AccessoryTeddyid75" x1="5571.12" x2="5255.06" xlink:href="#AccessoryTeddyid5" y1="22926.7" y2="24922">
  </linearGradient><linearGradient gradientUnits="userSpaceOnUse" id="AccessoryTeddyid69" x1="5447.62" x2="5256.22" xlink:href="#AccessoryTeddyid5" y1="21348.3" y2="22556.4">
  </linearGradient><linearGradient gradientUnits="userSpaceOnUse" id="AccessoryTeddyid31" x1="4032.54" x2="3912.76" xlink:href="#AccessoryTeddyid5" y1="24354.6" y2="25110.8">
  </linearGradient><linearGradient gradientUnits="userSpaceOnUse" id="AccessoryTeddyid36" x1="4875.13" x2="5044.37" y1="21255" y2="20829.7">
   <stop offset="0" style="stop-opacity:1; stop-color:#5C3600"/>
   <stop offset="0.509804" style="stop-opacity:1; stop-color:#2C160A"/>
   <stop offset="1" style="stop-opacity:1; stop-color:#3F261A"/>
  </linearGradient><linearGradient gradientUnits="userSpaceOnUse" id="AccessoryTeddyid41" x1="5933.75" x2="5890.77" xlink:href="#AccessoryTeddyid36" y1="21325.3" y2="20867.1">
  </linearGradient><linearGradient gradientUnits="userSpaceOnUse" id="AccessoryTeddyid76" x1="7386.63" x2="5965.55" xlink:href="#AccessoryTeddyid56" y1="24047.7" y2="22751.4">
  </linearGradient><linearGradient gradientUnits="userSpaceOnUse" id="AccessoryTeddyid88" x1="3357.21" x2="4839.21" xlink:href="#AccessoryTeddyid56" y1="24050.5" y2="22671">
  </linearGradient><linearGradient gradientUnits="userSpaceOnUse" id="AccessoryTeddyid10" x1="4764.52" x2="6162.34" y1="22575.4" y2="20450.7">
   <stop offset="0" style="stop-opacity:1; stop-color:#B88531"/>
   <stop offset="0.14902" style="stop-opacity:1; stop-color:#99672C"/>
   <stop offset="0.501961" style="stop-opacity:1; stop-color:#9C6E24"/>
   <stop offset="1" style="stop-opacity:1; stop-color:#FFC44F"/>
  </linearGradient><linearGradient gradientUnits="userSpaceOnUse" id="AccessoryTeddyid29" x1="3813.38" x2="4245.66" xlink:href="#AccessoryTeddyid27" y1="24177.4" y2="25442.6">
  </linearGradient><linearGradient gradientUnits="userSpaceOnUse" id="Tail-Dog1id74" x1="15961" x2="18418.2" y1="23174.1" y2="17871.9">
   <stop offset="0" style="stop-opacity:1; stop-color:#bdaeae"/>
   <stop offset="1" style="stop-opacity:1; stop-color:#e4dddd"/>
  </linearGradient><linearGradient gradientUnits="userSpaceOnUse" id="RightLeg-Dog0id19" x1="15490.3" x2="15490.3" y1="24284.1" y2="21188.2">
   <stop offset="0" style="stop-opacity:1; stop-color:#fcfcfc"/>
   <stop offset="0.439216" style="stop-opacity:1; stop-color:#fcfcfc"/>
   <stop offset="1" style="stop-opacity:1; stop-color:#e4dddd"/>
  </linearGradient><linearGradient gradientUnits="userSpaceOnUse" id="LeftFoot-Dog3id627" x1="16691.1" x2="16037.9" y1="25524" y2="23422.2">
   <stop offset="0" style="stop-opacity:1; stop-color:#7a6945"/>
   <stop offset="0.329412" style="stop-opacity:1; stop-color:#bdaeae"/>
   <stop offset="0.619608" style="stop-opacity:1; stop-color:#e4dddd"/>
   <stop offset="1" style="stop-opacity:1; stop-color:#e4dddd"/>
  </linearGradient><linearGradient gradientUnits="userSpaceOnUse" id="LeftLeg-Dog0id19" x1="15490.3" x2="15490.3" y1="24284.1" y2="21188.2">
   <stop offset="0" style="stop-opacity:1; stop-color:#fcfcfc"/>
   <stop offset="0.439216" style="stop-opacity:1; stop-color:#fcfcfc"/>
   <stop offset="1" style="stop-opacity:1; stop-color:#e4dddd"/>
  </linearGradient><linearGradient gradientUnits="objectBoundingBox" id="RightHand-Dog3id168" x1="19.8228%" x2="80.1772%" y1="10.3299%" y2="89.6698%">
   <stop offset="0" style="stop-opacity:1; stop-color:#bdaeae"/>
   <stop offset="0.0196078" style="stop-opacity:1; stop-color:#bdaeae"/>
   <stop offset="0.721569" style="stop-opacity:1; stop-color:#e4dddd"/>
   <stop offset="1" style="stop-opacity:1; stop-color:#e4dddd"/>
  </linearGradient><linearGradient gradientUnits="objectBoundingBox" id="LeftHand-Dog3id168" x1="19.8228%" x2="80.1772%" y1="10.3299%" y2="89.6698%">
   <stop offset="0" style="stop-opacity:1; stop-color:#bdaeae"/>
   <stop offset="0.0196078" style="stop-opacity:1; stop-color:#bdaeae"/>
   <stop offset="0.721569" style="stop-opacity:1; stop-color:#e4dddd"/>
   <stop offset="1" style="stop-opacity:1; stop-color:#e4dddd"/>
  </linearGradient><linearGradient gradientUnits="userSpaceOnUse" id="LeftPaw-Dog0id406" x1="18770.8" x2="18008.4" y1="21729.1" y2="19634.5">
   <stop offset="0" style="stop-opacity:1; stop-color:#fcfcfc"/>
   <stop offset="0.701961" style="stop-opacity:1; stop-color:#e4dddd"/>
   <stop offset="1" style="stop-opacity:1; stop-color:#e4dddd"/>
  </linearGradient><linearGradient gradientUnits="userSpaceOnUse" id="Head-Dog7id35" x1="13681.9" x2="13681.9" y1="17936.7" y2="7484.8">
   <stop offset="0" style="stop-opacity:1; stop-color:#bdaeae"/>
   <stop offset="0.4" style="stop-opacity:1; stop-color:#e4dddd"/>
   <stop offset="1" style="stop-opacity:1; stop-color:#fcfcfc"/>
  </linearGradient><linearGradient gradientUnits="userSpaceOnUse" id="Head-Dog7id18" x1="10235.1" x2="10235.1" y1="19681.2" y2="17649.5">
   <stop offset="0" style="stop-opacity:1; stop-color:#7a6945"/>
   <stop offset="1" style="stop-opacity:1; stop-color:#544627"/>
  </linearGradient><linearGradient gradientUnits="userSpaceOnUse" id="Head-Dog7id132" x1="13664.7" x2="13664.7" y1="17953.2" y2="22866.3">
   <stop offset="0" style="stop-opacity:1; stop-color:#dfe5f0"/>
   <stop offset="0.341176" style="stop-opacity:1; stop-color:#f6f8fc"/>
   <stop offset="1" style="stop-opacity:1; stop-color:#f6f8fc"/>
  </linearGradient><linearGradient gradientUnits="userSpaceOnUse" id="Eyes-Dog10id27" x1="16937.6" x2="16937.6" y1="14961.3" y2="11448.6">
   <stop offset="0" style="stop-opacity:1; stop-color:#500073"/>
   <stop offset="1" style="stop-opacity:1; stop-color:black"/>
  </linearGradient><linearGradient gradientUnits="objectBoundingBox" id="Eyes-Dog10id57" x1="100%" x2="0%" y1="50.0003%" y2="50.0003%">
   <stop offset="0" style="stop-opacity:1; stop-color:#500073"/>
   <stop offset="0.501961" style="stop-opacity:1; stop-color:#a900f2"/>
   <stop offset="1" style="stop-opacity:1; stop-color:#500073"/>
  </linearGradient><linearGradient gradientUnits="userSpaceOnUse" id="Eyes-Dog10id384" x1="16417.8" x2="16417.8" y1="11784.3" y2="14068.5">
   <stop offset="0" style="stop-opacity:1; stop-color:black"/>
   <stop offset="0.45" style="stop-opacity:1; stop-color:black"/>
   <stop offset="1" style="stop-opacity:1; stop-color:#3e0059"/>
  </linearGradient><linearGradient gradientUnits="userSpaceOnUse" id="Nose-Dog0id451" x1="13653.8" x2="13653.8" y1="14108.6" y2="14926.9">
   <stop offset="0" style="stop-opacity:1; stop-color:#FFCCCC"/>
   <stop offset="1" style="stop-opacity:1; stop-color:#453F2C"/>
  </linearGradient><linearGradient gradientUnits="userSpaceOnUse" id="HatBanderasBack-Mediumid273new" x1="11276.3" x2="11276.3" y1="15499.7" y2="11357.8">
   <stop offset="0" style="stop-opacity:1; stop-color:#3B3621"/>
   <stop offset="1" style="stop-opacity:1; stop-color:#0D0A05"/>
  </linearGradient><linearGradient gradientUnits="userSpaceOnUse" id="HatBanderas-Mediumid29new" x1="23027" x2="23148.7" y1="9696.19" y2="6902.77">
   <stop offset="0" style="stop-opacity:1; stop-color:#DB9600"/>
   <stop offset="1" style="stop-opacity:1; stop-color:#FFCC00"/>
  </linearGradient><linearGradient gradientUnits="userSpaceOnUse" id="WeaponFlySwatterBack-Mediumid24" x1="12160.4" x2="14712.1" y1="25216.2" y2="22534.8">
   <stop offset="0" style="stop-opacity:1; stop-color:#008011"/>
   <stop offset="1" style="stop-opacity:1; stop-color:#00BD55"/>
  </linearGradient><linearGradient gradientUnits="userSpaceOnUse" id="AccessoryTeddyid5" x1="6771.67" x2="6651.69" y1="24347.4" y2="25104.8">
   <stop offset="0" style="stop-opacity:1; stop-color:#F2D996"/>
   <stop offset="1" style="stop-opacity:1; stop-color:#C79A45"/>
  </linearGradient><linearGradient gradientUnits="userSpaceOnUse" id="AccessoryTeddyid27" x1="7031.19" x2="6244.99" y1="24298.4" y2="25352.6">
   <stop offset="0" style="stop-opacity:1; stop-color:#B88531"/>
   <stop offset="0.329412" style="stop-opacity:1; stop-color:#99672C"/>
   <stop offset="0.541176" style="stop-opacity:1; stop-color:#9C6E24"/>
   <stop offset="1" style="stop-opacity:1; stop-color:#523100"/>
  </linearGradient></defs><g id="HatBanderasBack-Medium">
 <animateTransform additive="sum" attributeName="transform" dur="10" repeatCount="indefinite" type="translate" values="0;0 200;0;0 200;0;0 200;0;0 200;0"/>
  <metadata id="CorelCorpID_7Corel-Layer"/>
  <path class="HatBanderasBack-Mediumfil16new HatBanderasBack-Mediumstr2new" d="M19319 11711c-1698,-571 -3233,-710 -5574,-710 -5662,0 -10252,1138 -10252,2543 0,848 1874,1491 4030,1087 3082,-577 4927,-2776 11796,-2920z" style="fill:#52ebbd"/>
  <path class="HatBanderasBack-Mediumfil3new" d="M9431 11236c-3506,404 -5938,1286 -5938,2308 0,107 30,211 87,311 1508,-1228 4279,-771 4327,639 1244,-360 1143,-1811 1524,-3258z" style="fill:#90309e"/>
 </g><g id="HairBack-Dog0">
 <animateTransform additive="sum" attributeName="transform" dur="10" repeatCount="indefinite" type="translate" values="0;0 200;0;0 200;0;0 200;0;0 200;0"/>
  <metadata id="CorelCorpID_115Corel-Layer"/>
  <rect class="HairBack-Dog0fil22" height="890" width="890" x="13237" y="6590"/>
 </g><g id="Tail-Dog1">
  <metadata id="CorelCorpID_119Corel-Layer"/>
  <path class="Tail-Dog1fil233" d="M13823 21789c4494,1217 6008,-1476 5166,-4408 1760,3307 158,6668 -5405,5416 -351,-52 -271,-1098 239,-1008z" style="fill:#f6b097"/>
  <path class="Tail-Dog1fil26" d="M19104 19815c176,-728 133,-1571 -115,-2434 438,823 668,1650 680,2409 -116,176 -435,130 -565,25z" style="fill:#41c7e2"/>
  <path class="Tail-Dog1fil14" d="M19669 19803c28,2229 -1831,3859 -5811,3053 -15,-311 135,-692 452,-636 3431,929 5125,-421 5359,-2417z" style="fill:#b6f018"/>
  <path class="Tail-Dog1fil22 Tail-Dog1str0" d="M13823 21789c4494,1217 6008,-1476 5166,-4408 1760,3307 158,6668 -5405,5416 -351,-52 -271,-1098 239,-1008z" style="fill:#cfa40c"/>
 </g><g id="RightFoot-Dog3">
  <metadata id="CorelCorpID_127Corel-Layer"/>
  <path class="RightFoot-Dog3fil242" d="M17461 25232c-144,249 -469,331 -709,123 -82,82 -321,169 -611,76 -475,-152 -678,-627 -1088,-897 -209,-138 -43,-480 -31,-702 216,88 639,20 960,-216 332,-245 1043,-199 820,325 153,50 376,135 488,193 178,92 308,217 397,350 166,246 124,748 -226,748z" style="fill:#bfc582"/>
  <path class="RightFoot-Dog3fil14" d="M17461 25232c-144,249 -469,331 -709,123 -82,82 -321,169 -611,76 -475,-152 -678,-627 -1088,-897 -182,-120 -106,-408 -68,-624 13,30 66,32 88,19 2,85 -1,160 50,261 317,621 1468,1311 1612,663 247,396 693,243 634,-148 151,250 332,57 232,-294 150,96 185,309 179,486 -21,178 -124,335 -319,335z" style="fill:#46b0db"/>
  <path class="RightFoot-Dog3fil22" d="M16741 23949c560,135 807,327 949,532 170,244 121,751 -229,751 -144,249 -469,331 -709,123 -82,82 -321,169 -611,76 -475,-152 -614,-562 -1018,-844 -201,-140 -166,-401 -134,-554" style="fill:#487837"/>
  <path class="RightFoot-Dog3fil32" d="M17378 25213c0,3 0,7 0,10 -59,86 -148,149 -252,169 -84,16 -174,3 -257,-45l-12 -8c47,-255 19,-572 -334,-636 167,118 191,399 163,611 -41,33 -116,65 -215,77 -89,11 -194,6 -307,-31 -265,-85 -423,-261 -589,-447 -277,-311 -611,-400 -512,-864 8,-41 -28,-86 -58,-89 -24,-2 -80,17 -89,58 -119,558 222,630 548,995 180,201 350,392 654,490 137,43 264,50 371,37 108,-13 199,-49 262,-89l3 0c116,81 258,115 400,88 143,-28 268,-114 349,-234 151,-15 258,-113 313,-251 29,-74 44,-157 44,-240 0,-135 -38,-275 -108,-376 -77,-110 -181,-216 -341,-313 -143,-86 -331,-165 -584,-231 -71,-19 -105,8 -131,48 -23,34 -14,70 26,80 271,65 468,144 612,231 139,84 229,176 295,271 53,76 81,183 81,290 0,66 -11,130 -33,185 -25,64 -65,112 -119,138 13,-317 -128,-634 -466,-624 219,111 313,298 286,700z" style="fill:#012143"/>
 </g><g id="LeftFoot-Dog3">
  <metadata id="CorelCorpID_135Corel-Layer"/>
  <path class="LeftFoot-Dog3fil248" d="M9847 25232c143,249 468,331 709,123 82,82 321,169 611,76 475,-152 678,-627 1088,-897 208,-138 43,-480 31,-702 -216,88 -640,20 -960,-216 -332,-245 -1043,-199 -821,325 -152,50 -375,135 -487,193 -178,92 -308,217 -398,350 -165,246 -124,748 227,748z" style="fill:#3c6853"/>
  <path class="LeftFoot-Dog3fil14" d="M9847 25232c143,249 468,331 709,123 82,82 321,169 611,76 475,-152 678,-627 1088,-897 181,-120 105,-408 68,-624 -13,30 -66,32 -88,19 -2,85 1,160 -50,261 -318,621 -1468,1311 -1612,663 -248,396 -693,243 -634,-148 -151,250 -333,57 -232,-294 -150,96 -186,309 -179,486 20,178 124,335 319,335z" style="fill:#73b27a"/>
  <path class="LeftFoot-Dog3fil22" d="M10566 23949c-559,135 -807,327 -949,532 -169,244 -121,751 230,751 143,249 468,331 709,123 82,82 321,169 611,76 475,-152 614,-562 1017,-844 201,-140 167,-401 134,-554" style="fill:#f04c6d"/>
  <path class="LeftFoot-Dog3fil32" d="M9929 25213c1,3 1,7 0,10 59,86 149,149 253,169 84,16 174,3 257,-45l12 -8c-48,-255 -19,-572 333,-636 -166,118 -190,399 -162,611 41,33 116,65 215,77 89,11 193,6 307,-31 265,-85 423,-261 588,-447 278,-311 612,-400 513,-864 -9,-41 27,-86 58,-89 23,-2 80,17 88,58 119,558 -222,630 -547,995 -180,201 -351,392 -655,490 -137,43 -263,50 -370,37 -109,-13 -200,-49 -262,-89l-3 0c-116,81 -259,115 -401,88 -143,-28 -267,-114 -348,-234 -151,-15 -258,-113 -313,-251 -30,-74 -44,-157 -44,-240 0,-135 38,-275 108,-376 76,-110 181,-216 341,-313 142,-86 330,-165 584,-231 71,-19 105,8 131,48 22,34 14,70 -26,80 -271,65 -468,144 -612,231 -139,84 -230,176 -295,271 -53,76 -81,183 -81,290 0,66 11,130 32,185 26,64 65,112 120,138 -13,-317 128,-634 466,-624 -219,111 -313,298 -287,700z" style="fill:#2902fa"/>
 </g><g id="RightLeg-Dog0">
  <metadata id="CorelCorpID_128Corel-Layer"/>
  <path class="RightLeg-Dog0fil243" d="M13654 20939c701,0 2353,-56 2710,226 302,239 937,901 935,1761 -2,445 -277,1009 -1000,1266 -472,76 -697,-507 -1295,-235 60,-709 -911,-790 -1350,-797l0 -2221z" style="fill:#fb6054"/>
  <path class="RightLeg-Dog0fil32" d="M15057 24610c33,25 62,27 88,-6 25,-32 18,-79 -15,-104 -85,-66 -111,-236 -89,-338 34,-163 71,-342 -66,-579 0,-1 -1,-3 -2,-4 -100,-171 -247,-296 -460,-378 -208,-80 -506,-119 -859,-119l0 150c335,0 616,36 805,108 180,69 302,173 385,314 0,2 1,3 2,4 108,188 77,337 48,473 -32,154 43,385 163,479zm1227 -3463c175,139 478,451 693,860 144,272 248,587 247,919 -1,245 -87,464 -218,653 -154,223 -427,476 -707,613 326,-17 760,-427 830,-528 147,-211 244,-458 244,-738 2,-360 -110,-698 -263,-989 -227,-430 -547,-760 -734,-907l-92 117z" style="fill:#2251e0"/>
  <path class="RightLeg-Dog0fil14" d="M17192 23390c67,-148 106,-305 107,-464 2,-775 -541,-1451 -869,-1752 -191,187 -220,614 -78,870 275,-293 637,273 785,794 61,212 86,417 55,552z" style="fill:#d0ee28"/>
 </g><g id="LeftLeg-Dog0">
  <metadata id="CorelCorpID_136Corel-Layer"/>
  <path class="LeftLeg-Dog0fil249" d="M13654 20939c-701,0 -2353,-56 -2710,226 -303,239 -938,901 -935,1761 1,445 276,1009 1000,1266 472,76 697,-507 1294,-235 -59,-709 911,-790 1351,-797l0 -2221z" style="fill:#3e32e6"/>
  <path class="LeftLeg-Dog0fil32" d="M12251 24610c-33,25 -63,27 -88,-6 -25,-32 -19,-79 14,-104 85,-66 111,-236 90,-338 -34,-163 -72,-342 65,-579 1,-1 2,-3 3,-4 100,-171 246,-296 460,-378 208,-80 506,-119 859,-119l0 150c-335,0 -616,36 -806,108 -179,69 -302,173 -384,314 -1,2 -2,3 -2,4 -109,188 -77,337 -49,473 33,154 -42,385 -162,479zm-1227 -3463c-176,139 -478,451 -694,860 -143,272 -247,587 -246,919 0,245 86,464 217,653 155,223 428,476 708,613 -326,-17 -761,-427 -831,-528 -146,-211 -243,-458 -244,-738 -1,-360 110,-698 264,-989 226,-430 547,-760 733,-907l93 117z" style="fill:#c480e0"/>
  <path class="LeftLeg-Dog0fil14" d="M10116 23390c-67,-148 -107,-305 -107,-464 -2,-775 540,-1451 869,-1752 190,187 275,614 134,870 -388,-413 -1003,879 -896,1346z" style="fill:#7f6cfc"/>
 </g><g id="RightHand-Dog3">
 <animateTransform additive="sum" attributeName="transform" dur="10" repeatCount="indefinite" type="translate" values="0;0 200;0;0 200;0;0 200;0;0 200;0"/>
  <metadata id="CorelCorpID_143Corel-Layer"/>
  <path class="RightHand-Dog3fil255" d="M15619 17715c247,-7 498,-52 659,-90 707,128 970,528 1348,796 130,92 425,224 606,21 133,145 14,423 -156,435 147,181 487,132 553,9 110,293 -168,564 -360,532 81,123 154,243 219,356 289,504 -636,1265 -911,1014 -142,-130 -282,-228 -420,-305 42,90 -40,256 -204,278 129,-199 -332,-494 -505,-532 -358,-79 -514,-1818 -829,-2514z" style="fill:#8bff03"/>
  <path class="RightHand-Dog3fil32" d="M16291 17552c-40,-7 -79,20 -86,60 -7,41 25,64 66,71 473,22 768,342 1024,564 192,167 406,367 675,376 83,3 166,-14 241,-63 0,109 -50,205 -110,263 -35,34 -94,44 -92,65 6,53 80,106 122,129 131,70 314,72 448,7 -1,130 -94,264 -215,309 -66,25 -273,10 -150,206 28,5 53,-19 95,-33 40,-12 83,-23 108,-33 157,-59 279,-214 306,-378 9,-58 6,-242 -53,-268 -55,-33 -194,176 -447,68 159,-167 129,-400 79,-483 -35,-58 -164,68 -327,62 -222,-8 -423,-201 -583,-340 -270,-235 -558,-485 -1101,-582zm972 2914c-39,-29 -99,-68 -137,-51 -40,15 11,131 -81,222 -29,-135 -201,-283 -310,-354 -22,-14 -44,-27 -66,-40l-12 149c234,152 283,300 290,366 11,93 54,70 109,41 75,-39 202,-166 185,-292 -3,-19 -8,-38 22,-41z" style="fill:#0d393a"/>
  <path class="RightHand-Dog3fil14" d="M17401 20669c-114,-114 -122,-122 -244,-186 43,144 -99,268 -204,278 116,-171 -258,-433 -374,-488 -156,-175 -225,-650 -133,-901 308,435 716,808 1104,1031 -30,84 -75,162 -148,228 0,12 -1,25 -1,38z" style="fill:#39a1d9"/>
  <path class="RightHand-Dog3fil14" d="M18185 19427c-553,-42 -914,-391 -1132,-715 239,293 1327,799 1551,253 61,375 -267,474 -419,462z" style="fill:#8129c9"/>
  <path class="RightHand-Dog3fil14" d="M18016 18897c-558,74 -969,-550 -1102,-714 145,162 1013,956 1337,305 53,248 -126,395 -235,409z" style="fill:#404e58"/>
 </g><g id="LeftHand-Dog3">
 <animateTransform additive="sum" attributeName="transform" dur="10" repeatCount="indefinite" type="translate" values="0;0 200;0;0 200;0;0 200;0;0 200;0"/>
  <metadata id="CorelCorpID_151Corel-Layer"/>
  <path class="LeftHand-Dog3fil263" d="M11744 17715c-246,-7 -497,-52 -658,-90 -707,128 -970,528 -1348,796 -131,92 -425,224 -606,21 -133,145 -15,423 156,435 -147,181 -487,132 -553,9 -110,293 168,564 360,532 -81,123 -154,243 -219,356 -289,504 636,1265 911,1014 142,-130 282,-228 419,-305 -41,90 41,256 205,278 -129,-199 332,-494 505,-532 358,-79 514,-1818 828,-2514z" style="fill:#bf5198"/>
  <path class="LeftHand-Dog3fil32" d="M11072 17552c41,-7 80,20 87,60 7,41 -25,64 -66,71 -473,22 -768,342 -1024,564 -192,167 -406,367 -675,376 -83,3 -166,-14 -241,-63 0,109 50,205 109,263 36,34 95,44 92,65 -5,53 -79,106 -122,129 -130,70 -314,72 -447,7 1,130 94,264 215,309 66,25 272,10 150,206 -28,5 -53,-19 -95,-33 -40,-12 -83,-23 -108,-33 -157,-59 -279,-214 -306,-378 -9,-58 -6,-242 53,-268 54,-33 194,176 447,68 -159,-167 -129,-400 -79,-483 34,-58 164,68 326,62 222,-8 424,-201 583,-340 271,-235 559,-485 1101,-582zm-971 2914c38,-29 99,-68 137,-51 40,15 -11,131 81,222 29,-135 201,-283 310,-354 22,-14 44,-27 66,-40l12 149c-234,152 -283,300 -291,366 -11,93 -53,70 -108,41 -75,-39 -202,-166 -185,-292 3,-19 8,-38 -22,-41z" style="fill:#cfe4f7"/>
  <path class="LeftHand-Dog3fil14" d="M9963 20669c114,-114 122,-122 243,-186 -42,144 99,268 205,278 -116,-171 258,-433 373,-488 157,-175 226,-650 134,-901 -308,435 -717,808 -1104,1031 30,84 75,162 148,228 0,12 1,25 1,38z" style="fill:#c51cf7"/>
  <path class="LeftHand-Dog3fil14" d="M9179 19427c553,-42 914,-391 1132,-715 -239,293 -1327,799 -1552,253 -60,375 268,474 420,462z" style="fill:#87dde9"/>
  <path class="LeftHand-Dog3fil14" d="M9348 18897c558,74 968,-550 1102,-714 -145,162 -1013,956 -1337,305 -53,248 126,395 235,409z" style="fill:#9214b6"/>
 </g><g id="Body-Dog0">
 <animateTransform additive="sum" attributeName="transform" dur="10" repeatCount="indefinite" type="translate" values="0;0 200;0;0 200;0;0 200;0;0 200;0"/>
  <metadata id="CorelCorpID_157Corel-Layer"/>
  <path class="Body-Dog0fil267" d="M13682 23035c-1548,0 -2752,-291 -2993,-1956 -146,-1010 387,-2357 984,-3487 334,54 1089,70 2009,70 920,0 1675,-16 2008,-70 598,1130 1131,2477 985,3487 -242,1665 -1445,1956 -2993,1956z" style="fill:#fd4edd"/>
  <path class="Body-Dog0fil268" d="M13682 17605c-1173,0 -1911,-440 -2137,431 -273,1050 -1533,4839 2137,4839 3670,0 2410,-3789 2137,-4839 -226,-871 -964,-431 -2137,-431z" style="fill:#e05970"/>
  <path class="Body-Dog0fil14" d="M12620 22967c-1015,-156 -1748,-629 -1931,-1888 -72,-498 21,-1078 206,-1674 -224,2001 425,3224 1725,3562z" style="fill:#199ca9"/>
  <path class="Body-Dog0fil14" d="M14743 22967c1016,-156 1749,-629 1932,-1888 72,-498 -21,-1078 -206,-1674 224,2001 -425,3224 -1726,3562z" style="fill:#805e6e"/>
  <path class="Body-Dog0fil32" d="M11012 22044c-250,-321 -348,-641 -397,-954 -59,-377 -28,-1005 180,-1327 -79,420 -89,912 -32,1305 50,341 104,572 249,976z" style="fill:#343e11"/>
  <path class="Body-Dog0fil32" d="M16352 22044c250,-321 347,-641 397,-954 59,-377 24,-998 -184,-1320 78,421 93,905 36,1298 -50,341 -104,572 -249,976z" style="fill:#ed2ebc"/>
 </g><g id="WeaponFlySwatterBack-Medium">
 <animateTransform additive="sum" attributeName="transform" dur="10" repeatCount="indefinite" type="translate" values="0;0 200;0;0 200;0;0 200;0;0 200;0"/>
  <metadata id="CorelCorpID_0Corel-Layer"/>
  <g id="_2367108334752">
   <path class="WeaponFlySwatterBack-Mediumfil0 WeaponFlySwatterBack-Mediumstr0" d="M9496 21664l211 -158 -1804 -1241c-168,-116 -453,-135 -616,153 -163,289 1,523 187,607l1996 902 26 -263z" style="fill:#dd4680"/>
   <path class="WeaponFlySwatterBack-Mediumfil1" d="M7463 20235c-66,36 -127,96 -176,183 -163,289 1,523 187,607l1996 902 22 -221c-464,-223 -1683,-816 -1870,-979 -151,-131 -206,-332 -159,-492z" style="fill:#ee18e2"/>
  </g>
 </g><g id="RightPaw-Dog0">
 <animateTransform additive="sum" attributeName="transform" dur="10" repeatCount="indefinite" type="translate" values="0;0 200;0;0 200;0;0 200;0;0 200;0"/>
  <metadata id="CorelCorpID_146Corel-Layer"/>
  <path class="RightPaw-Dog0fil259" d="M17402 20631c-38,818 551,1339 943,981 309,484 1078,126 986,-356 248,-652 -532,-1279 -980,-1632 -241,-78 -377,-149 -564,-64 -316,143 -32,749 -385,1071z" style="fill:#f7c93c"/>
  <path class="RightPaw-Dog0fil14" d="M17402 20631c-17,192 32,393 33,395 44,201 137,399 285,544 194,184 433,219 637,33 492,772 1351,-293 810,-632 144,452 -486,750 -723,253 -324,480 -778,69 -787,-350 -5,-223 56,-314 -107,-471 -30,84 -75,162 -148,228z" style="fill:#35f050"/>
  <path class="RightPaw-Dog0fil32" d="M18446 21611c107,-163 129,-451 -88,-537 74,121 26,386 -69,476 -138,130 -263,138 -430,31 -93,-59 -178,-155 -245,-278 -93,-172 -149,-397 -138,-656 1,-21 -7,-43 -24,-59 -52,-50 -128,-78 -180,-116 -33,-25 -76,-27 -100,6 -24,33 -10,74 23,99 44,31 87,68 130,100 -5,272 57,511 157,696 79,147 183,261 296,334 178,114 384,128 560,8 101,121 232,181 368,195 211,22 433,-69 573,-226 103,-115 160,-263 137,-425 229,-648 -410,-1166 -864,-1533 -104,-84 -134,-147 -206,-255 -23,-34 -69,-44 -104,-21 -34,23 -43,70 -20,104 80,121 120,196 236,290 356,288 865,714 854,1122 -52,-71 -158,-158 -280,-146 191,160 321,562 136,764 -110,120 -284,194 -446,177 -102,-10 -201,-57 -276,-150z" style="fill:#fdcb59"/>
 </g><g id="LeftPaw-Dog0">
 <animateTransform additive="sum" attributeName="transform" dur="10" repeatCount="indefinite" type="translate" values="0;0 200;0;0 200;0;0 200;0;0 200;0"/>
  <metadata id="CorelCorpID_154Corel-Layer"/>
  <path class="LeftPaw-Dog0fil265" d="M9962 20631c38,818 -552,1339 -944,981 -308,484 -1077,126 -986,-356 -247,-652 533,-1279 981,-1632 241,-78 377,-149 564,-64 316,143 31,749 385,1071z" style="fill:#b77b97"/>
  <path class="LeftPaw-Dog0fil14" d="M9962 20631c16,192 -32,393 -33,395 -44,201 -137,399 -285,544 -194,184 -433,219 -637,33 -493,772 -1351,-293 -810,-632 -144,452 485,750 723,253 324,480 778,69 787,-350 4,-223 -56,-314 107,-471 30,84 75,162 148,228z" style="fill:#656a27"/>
  <path class="LeftPaw-Dog0fil32" d="M8918 21611c-107,-163 -129,-451 88,-537 -74,121 -26,386 69,476 138,130 263,138 430,31 92,-59 178,-155 245,-278 93,-172 149,-397 138,-656 -1,-21 7,-43 24,-59 52,-50 128,-78 180,-116 33,-25 75,-27 100,6 24,33 10,74 -24,99 -43,31 -86,68 -129,100 5,272 -57,511 -157,696 -80,147 -183,261 -296,334 -178,114 -384,128 -560,8 -101,121 -232,181 -369,195 -210,22 -432,-69 -572,-226 -103,-115 -161,-263 -137,-425 -229,-648 410,-1166 863,-1533 105,-84 134,-147 207,-255 23,-34 69,-44 103,-21 35,23 44,70 21,104 -81,121 -120,196 -236,290 -356,288 -865,714 -854,1122 52,-71 157,-158 280,-146 -191,160 -321,562 -136,764 110,120 284,194 446,177 102,-10 201,-57 276,-150z" style="fill:#8e155c"/>
 </g><g id="NecklaceTornShirtBlue-Medium">
 <animateTransform additive="sum" attributeName="transform" dur="10" repeatCount="indefinite" type="translate" values="0;0 200;0;0 200;0;0 200;0;0 200;0"/>
  <metadata id="CorelCorpID_4Corel-Layer"/>
  <path class="NecklaceTornShirtBlue-Mediumfil10" d="M13682 18647c658,0 2106,-245 1878,-1292 1232,-64 1965,547 2452,984 40,498 -620,1484 -1420,1443 419,783 542,2091 542,2091 -868,673 -2173,928 -3452,928 -1280,0 -2584,-255 -3452,-928 0,0 123,-1308 542,-2091 -800,41 -1460,-945 -1420,-1443 487,-437 1220,-1048 2452,-984 -228,1047 1220,1292 1878,1292zm-333 224c-277,229 -967,753 -1160,652 -247,60 -410,138 -477,171 22,-127 203,-274 387,-425 175,-49 406,-58 634,-218 203,-142 461,-160 616,-180zm1178 3258c209,-147 658,-582 898,-748 7,75 -49,109 -19,182 147,-99 287,-237 421,-317 -42,89 -123,265 -164,356 163,46 282,69 284,184 -130,-13 -477,85 -607,71 -56,106 -113,211 -169,317 -27,-24 -28,-108 -56,-131 -187,8 -401,77 -588,86zm512 -1313c17,-50 351,-288 480,-272 97,46 328,-90 367,-119 -3,47 -86,288 -90,335 -114,-24 -560,-16 -757,56zm70 208c-205,101 -486,172 -744,289 -199,91 -379,234 -526,292 -125,49 -193,20 -243,47 -88,48 -558,215 -643,437 350,-88 701,-176 1051,-265 93,5 185,9 278,14 57,-80 115,-159 172,-239 95,3 190,5 284,7 124,-194 247,-388 371,-582zm-979 -582c-170,79 -233,90 -347,144 -120,56 -110,-23 -231,32 -460,210 -1469,842 -1922,1067 377,-66 754,-132 1131,-198 128,26 255,53 383,79 -6,-57 -74,-152 -80,-210 144,-43 276,-73 424,-48 194,-328 428,-577 642,-866zm1445 -873c-234,152 -444,178 -678,330 73,58 -65,175 -82,282 141,-80 318,-165 393,-215 52,1 190,2 243,3 9,-103 115,-298 124,-400zm-640 -474c-373,78 -645,308 -1185,321 -161,4 -263,-135 -481,15 -131,90 -324,228 -436,353 -75,84 -63,148 -160,243 -327,318 -757,679 -984,957 280,-106 467,-184 747,-290 119,7 374,-50 493,-44 62,-101 81,-166 143,-268 319,-114 639,-229 959,-344 301,-314 602,-629 904,-943z" style="fill:#a63d3b"/>
  <path class="NecklaceTornShirtBlue-Mediumfil1 NecklaceTornShirtBlue-Mediumstr1" d="M13682 18647c658,0 2106,-245 1878,-1292 1232,-64 1965,547 2452,984 40,498 -620,1484 -1420,1443 419,783 542,2091 542,2091 -868,673 -2173,928 -3452,928 -1280,0 -2584,-255 -3452,-928 0,0 123,-1308 542,-2091 -800,41 -1460,-945 -1420,-1443 487,-437 1220,-1048 2452,-984 -228,1047 1220,1292 1878,1292z" style="fill:#1cfd48"/>
  <path class="NecklaceTornShirtBlue-Mediumfil2" d="M13995 22796c-104,3 -209,5 -313,5 -1280,0 -2584,-255 -3452,-928 0,0 123,-1308 542,-2091l351 -665c0,0 -905,2070 83,2793 985,721 2779,885 2789,886z" style="fill:#60696f"/>
  <g>
   <path class="NecklaceTornShirtBlue-Mediumfil3" d="M13413 18948c-171,141 -496,392 -769,545 -180,102 -347,162 -460,134 -106,27 -194,57 -265,84 -74,29 -129,56 -161,72 -50,26 -110,6 -135,-43 -11,-22 -13,-46 -8,-68 31,-160 218,-314 412,-472l9 -8c11,-9 23,-15 36,-19l0 0c47,-13 97,-23 149,-34 140,-29 302,-62 455,-169 204,-143 446,-172 612,-192 34,-4 29,-3 49,-6 54,-7 104,32 111,86 5,36 -10,69 -35,90zm-64 -77c-277,229 -967,753 -1160,652 -247,60 -410,138 -477,171 22,-127 203,-274 387,-425 175,-49 406,-58 634,-218 203,-142 461,-160 616,-180zm2478 2375c-42,89 -123,265 -164,356 163,46 282,69 284,184 -130,-13 -477,85 -607,71 -56,106 -113,211 -169,317 -27,-24 -28,-108 -56,-131 -187,8 -401,77 -588,86 209,-147 658,-582 898,-748 7,75 -49,109 -19,182 147,-99 287,-237 421,-317zm-308 -702c97,46 328,-90 367,-119 -3,47 -86,288 -90,335 -114,-24 -560,-16 -757,56 17,-50 351,-288 480,-272zm-410 480c-205,101 -486,172 -744,289 -199,91 -379,234 -526,292 -125,49 -193,20 -243,47 -88,48 -558,215 -643,437 350,-88 701,-176 1051,-265 93,5 185,9 278,14 57,-80 115,-159 172,-239 95,3 190,5 284,7 124,-194 247,-388 371,-582zm-1965 542c-6,-57 -74,-152 -80,-210 144,-43 276,-73 424,-48 194,-328 428,-577 642,-866 -170,79 -233,90 -347,144 -120,56 -110,-23 -231,32 -460,210 -1469,842 -1922,1067 377,-66 754,-132 1131,-198 128,26 255,53 383,79zm1753 -1667c73,58 -65,175 -82,282 141,-80 318,-165 393,-215 52,1 190,2 243,3 9,-103 115,-298 124,-400 -234,152 -444,178 -678,330zm-866 139c301,-314 602,-629 904,-943 -373,78 -645,308 -1185,321 -161,4 -263,-135 -481,15 -131,90 -324,228 -436,353 -75,84 -63,148 -160,243 -327,318 -757,679 -984,957 280,-106 467,-184 747,-290 119,7 374,-50 493,-44 62,-101 81,-166 143,-268 319,-114 639,-229 959,-344zm443 2006c95,-67 245,-199 400,-335 178,-157 364,-320 495,-410 45,-31 107,-20 138,26 6,8 10,17 13,26l22 -17c78,-65 155,-127 233,-174 48,-28 109,-13 137,34 18,30 18,64 5,93l0 0c-42,91 -63,136 -82,178 -10,22 -21,46 -33,73 145,43 241,91 245,246 1,55 -42,101 -97,102 -4,0 -9,0 -12,-1l0 1c-51,-6 -164,14 -277,34 -93,17 -187,33 -261,37l-141 264c-26,48 -86,67 -135,41 -7,-4 -13,-8 -19,-13l0 0c-32,-28 -44,-64 -54,-101 -67,8 -139,22 -211,36 -104,20 -207,39 -309,44 -55,3 -101,-40 -104,-95 -2,-37 17,-70 47,-89zm504 -1307c52,-57 158,-141 263,-200 103,-58 213,-101 290,-91 11,1 21,4 30,8l0 0c9,4 38,-2 73,-14 84,-27 172,-80 194,-96 45,-32 107,-22 139,23 14,20 20,43 18,66l1 0c-3,34 -26,111 -49,188 -20,67 -40,134 -41,146 -4,55 -52,97 -107,92 -6,0 -12,-1 -18,-2 -60,-11 -215,-13 -375,-2 -124,10 -247,27 -323,54 -51,19 -109,-8 -127,-59 -15,-42 -1,-87 32,-113zm-261 334c127,-45 248,-87 348,-136l0 0c30,-15 67,-14 97,5 47,30 60,91 31,137l-369 580c-17,30 -50,49 -87,49l-233 -6 -139 192c-18,29 -51,47 -88,45l-262 -12 -1038 261 0 0c-20,4 -40,4 -60,-4 -52,-20 -77,-78 -57,-129 85,-221 440,-378 617,-456 34,-15 61,-27 72,-33 41,-22 76,-24 120,-26 33,-2 77,-4 134,-26 64,-26 143,-74 229,-127 89,-55 185,-114 291,-162 132,-60 266,-107 394,-152zm-829 -636c52,-20 110,-42 200,-84l0 0c32,-14 71,-12 101,11 45,33 54,95 21,139 -69,94 -145,188 -221,283 -143,179 -286,358 -411,569 -19,38 -62,61 -107,54 -63,-11 -123,-10 -183,-2 -30,4 -60,11 -92,18 22,44 43,88 48,132l-1 0c2,10 1,21 -1,31 -11,54 -64,89 -118,78l-364 -75 -1113 195 0 0c-43,7 -87,-14 -107,-54 -24,-50 -4,-110 45,-134 200,-99 514,-281 839,-470 404,-235 827,-480 1087,-599 91,-41 134,-32 178,-22 11,2 23,5 52,-9 57,-27 100,-43 147,-61zm1311 -793c107,-43 213,-86 322,-157l0 0c18,-12 40,-18 63,-15 55,4 95,53 90,108 -6,65 -37,146 -68,227 -26,68 -53,136 -56,173 -5,51 -49,92 -101,90 -27,0 -74,0 -120,-1 -34,0 -67,0 -93,-1 -46,28 -110,61 -180,98 -61,32 -127,66 -191,102 -19,12 -43,17 -66,13 -55,-9 -92,-60 -83,-114 10,-61 40,-113 69,-162 14,-23 75,-6 50,-25l1 0c-9,-7 -16,-15 -22,-24 -30,-46 -17,-108 29,-138 125,-82 241,-128 356,-174zm-694 -508c133,-54 262,-106 409,-137l0 0c31,-6 65,2 90,26 39,38 41,101 2,141l-903 944 -1 -1c-10,11 -23,20 -38,25l-925 332c-19,34 -34,65 -49,96 -21,43 -42,86 -74,140 -18,32 -53,52 -92,50 -50,-3 -139,9 -228,21 -88,12 -176,24 -243,23 -121,46 -237,92 -354,138 -111,44 -221,88 -375,146l0 0c-32,12 -69,7 -98,-16 -42,-35 -49,-98 -14,-141 156,-192 401,-417 644,-641 121,-111 242,-222 347,-325 41,-39 57,-74 74,-108 19,-41 38,-81 82,-130 61,-68 142,-138 224,-202 77,-60 161,-119 230,-166 185,-128 302,-92 419,-55 39,12 78,24 115,23 321,-8 546,-98 758,-183z" style="fill:#02d79e"/>
  </g>
  <path class="NecklaceTornShirtBlue-Mediumfil4" d="M13349 18871c-51,43 -117,95 -192,153 -83,30 -171,74 -263,139 -222,156 -446,165 -617,212 -91,75 -200,142 -288,205 -137,46 -230,91 -277,114 22,-127 203,-274 387,-425 175,-49 406,-58 634,-218 203,-142 461,-160 616,-180zm1178 3258c209,-147 658,-582 898,-748 7,75 -49,109 -19,182 147,-99 287,-237 421,-317l-19 40c-117,89 -193,296 -328,387 -494,129 -191,291 -594,400 -121,23 -245,50 -359,56zm512 -1313c17,-50 351,-288 480,-272 97,46 328,-90 367,-119 -1,11 -6,32 -13,58 -63,40 -257,146 -342,106 -95,-12 -306,118 -409,203 -30,7 -58,15 -83,24zm70 208c-205,101 -486,172 -744,289 -199,91 -379,234 -526,292 -125,49 -193,20 -243,47 -88,48 -558,215 -643,437l94 -24c118,-197 657,-288 739,-333 49,-26 114,3 236,-45 143,-57 319,-196 512,-284 223,-102 364,-220 533,-314l42 -65zm-979 -582c-170,79 -233,90 -347,144 -120,56 -110,-23 -231,32 -460,210 -1469,842 -1922,1067l222 -39c480,-242 1377,-710 1792,-900 118,-53 108,24 225,-31 48,-22 82,-54 118,-88 48,-61 96,-122 143,-185zm1445 -873c-234,152 -444,178 -678,330 73,58 -65,175 -82,282 45,-26 93,-52 141,-77 38,-31 63,-57 29,-83 182,-118 349,-158 525,-245 30,-77 60,-154 65,-207zm-640 -474c-373,78 -645,308 -1185,321 -161,4 -263,-135 -481,15 -131,90 -324,228 -436,353 -75,84 -63,148 -160,243 -327,318 -757,679 -984,957 82,-31 157,-60 227,-87 244,-238 628,-494 899,-759 95,-92 83,-154 156,-236 109,-122 303,-156 431,-244 211,-146 258,-63 414,-67 448,-11 702,-248 992,-364l127 -132z" style="fill:#aeef68"/>
  <path class="NecklaceTornShirtBlue-Mediumfil1" d="M13349 18871c-277,229 -967,753 -1160,652 -247,60 -410,138 -477,171 22,-127 203,-274 387,-425 175,-49 406,-58 634,-218 203,-142 461,-160 616,-180zm1178 3258c209,-147 658,-582 898,-748 7,75 -49,109 -19,182 147,-99 287,-237 421,-317 -42,89 -123,265 -164,356 163,46 282,69 284,184 -130,-13 -477,85 -607,71 -56,106 -113,211 -169,317 -27,-24 -28,-108 -56,-131 -187,8 -401,77 -588,86zm512 -1313c17,-50 351,-288 480,-272 97,46 328,-90 367,-119 -3,47 -86,288 -90,335 -114,-24 -560,-16 -757,56zm70 208c-205,101 -486,172 -744,289 -199,91 -379,234 -526,292 -125,49 -193,20 -243,47 -88,48 -558,215 -643,437 350,-88 701,-176 1051,-265 93,5 185,9 278,14 57,-80 115,-159 172,-239 95,3 190,5 284,7 124,-194 247,-388 371,-582zm-979 -582c-170,79 -233,90 -347,144 -120,56 -110,-23 -231,32 -460,210 -1469,842 -1922,1067 377,-66 754,-132 1131,-198 128,26 255,53 383,79 -6,-57 -74,-152 -80,-210 144,-43 276,-73 424,-48 194,-328 428,-577 642,-866zm1445 -873c-234,152 -444,178 -678,330 73,58 -65,175 -82,282 141,-80 318,-165 393,-215 52,1 190,2 243,3 9,-103 115,-298 124,-400zm-640 -474c-373,78 -645,308 -1185,321 -161,4 -263,-135 -481,15 -131,90 -324,228 -436,353 -75,84 -63,148 -160,243 -327,318 -757,679 -984,957 280,-106 467,-184 747,-290 119,7 374,-50 493,-44 62,-101 81,-166 143,-268 319,-114 639,-229 959,-344 301,-314 602,-629 904,-943z" style="fill:#602529"/>
  <path class="NecklaceTornShirtBlue-Mediumfil5" d="M16220 19111c23,-20 175,164 294,352 72,116 129,253 145,286 18,37 3,82 -34,100 -37,18 -82,3 -100,-34 -19,-38 -69,-180 -129,-303 -92,-191 -198,-380 -176,-401z" style="fill:#c1ca0d"/>
  <path class="NecklaceTornShirtBlue-Mediumfil6" d="M17857 18910c-387,494 -1164,789 -1616,207 -137,-105 262,486 398,758 -15,-31 -31,-63 -47,-93 547,28 1028,-424 1265,-872z" style="fill:#7be22c"/>
  <path class="NecklaceTornShirtBlue-Mediumfil5" d="M11144 19111c-23,-20 -175,164 -294,352 -72,116 -129,253 -146,286 -18,37 -2,82 35,100 37,18 82,3 100,-34 18,-38 69,-180 128,-303 93,-191 199,-380 177,-401z" style="fill:#d96358"/>
  <path class="NecklaceTornShirtBlue-Mediumfil6" d="M9506 18910c388,494 1164,789 1617,207 136,-105 -262,486 -399,758 16,-31 32,-63 48,-93 -547,28 -1028,-424 -1266,-872z" style="fill:#531f85"/>
 </g><g id="BraceletGold-Medium">
 <animateTransform additive="sum" attributeName="transform" dur="10" repeatCount="indefinite" type="translate" values="0;0 200;0;0 200;0;0 200;0;0 200;0"/>
  <metadata id="CorelCorpID_23Corel-Layer"/>
  <path class="BraceletGold-Mediumfil66new BraceletGold-Mediumstr3new" d="M10392 20534c79,89 47,248 -72,354 -119,107 -281,121 -360,32 -53,-59 -57,-150 -18,-235 -84,28 -173,15 -235,-42 -74,-68 -89,-180 -46,-281 -96,59 -216,61 -303,-6 -82,-63 -113,-168 -90,-270 -103,65 -228,65 -308,-8 -53,-49 -76,-120 -68,-194 -86,59 -187,71 -257,20 -97,-71 -99,-233 -5,-362 94,-129 249,-177 346,-107 59,44 83,123 70,207 102,-64 226,-64 305,9 64,58 84,148 62,236 94,-57 211,-57 297,9 94,72 121,201 76,315 103,-68 231,-70 312,5 74,68 89,179 47,280 94,-36 191,-25 247,38z" style="fill:#6e4cd3"/>
  <path class="BraceletGold-Mediumfil3new" d="M8821 19869c89,-45 175,-196 176,-279 36,20 77,54 114,74 -72,24 -169,168 -170,275 -42,-20 -78,-50 -120,-70z" style="fill:#85eb21"/>
  <path class="BraceletGold-Mediumfil3new" d="M9174 20077c95,-34 192,-174 204,-257 33,24 83,58 117,83 -75,15 -188,157 -192,273 -39,-25 -89,-74 -129,-99z" style="fill:#1ee111"/>
  <path class="BraceletGold-Mediumfil3new" d="M9568 20352c111,-30 185,-163 196,-246 34,24 86,87 120,111 -74,16 -185,125 -199,231 -40,-25 -78,-71 -117,-96z" style="fill:#2523fc"/>
  <path class="BraceletGold-Mediumfil3new" d="M9883 20650c114,-10 208,-138 233,-217 29,29 68,65 97,95 -75,2 -211,122 -244,224 -34,-32 -52,-70 -86,-102z" style="fill:#f9e2d1"/>
  <path class="BraceletGold-Mediumfil67new BraceletGold-Mediumstr3new" d="M16972 20534c-80,89 -47,248 72,354 119,107 280,121 360,32 53,-59 56,-150 17,-235 85,28 174,15 236,-42 74,-68 89,-180 46,-281 95,59 215,61 303,-6 82,-63 113,-168 90,-270 102,65 228,65 308,-8 53,-49 76,-120 68,-194 86,59 187,71 257,20 97,-71 99,-233 5,-362 -95,-129 -249,-177 -346,-107 -60,44 -83,123 -70,207 -102,-64 -226,-64 -306,9 -63,58 -83,148 -61,236 -94,-57 -211,-57 -297,9 -94,72 -122,201 -76,315 -103,-68 -231,-70 -312,5 -74,68 -89,179 -47,280 -94,-36 -191,-25 -247,38z" style="fill:#3699a1"/>
  <path class="BraceletGold-Mediumfil3new" d="M18543 19869c-89,-45 -175,-196 -176,-279 -37,20 -77,54 -114,74 72,24 169,168 170,275 42,-20 78,-50 120,-70z" style="fill:#976c43"/>
  <path class="BraceletGold-Mediumfil3new" d="M18189 20077c-94,-34 -192,-174 -203,-257 -34,24 -83,58 -117,83 74,15 188,157 191,273 40,-25 90,-74 129,-99z" style="fill:#81309c"/>
  <path class="BraceletGold-Mediumfil3new" d="M17796 20352c-111,-30 -185,-163 -196,-246 -34,24 -86,87 -120,111 74,16 184,125 199,231 40,-25 77,-71 117,-96z" style="fill:#19c15a"/>
  <path class="BraceletGold-Mediumfil3new" d="M17481 20650c-114,-10 -208,-138 -233,-217 -29,29 -68,65 -98,95 76,2 212,122 244,224 35,-32 53,-70 87,-102z" style="fill:#c602af"/>
 </g><g id="Head-Dog7">
 <animateTransform additive="sum" attributeName="transform" dur="10" repeatCount="indefinite" type="translate" values="0;0 200;0;0 200;0;0 200;0;0 200;0"/>
  <metadata id="CorelCorpID_179Corel-Layer"/>
  <path class="Head-Dog7fil330" d="M13682 7385c-3568,0 -6948,4165 -6021,7554 736,2692 3247,2816 6021,2816 2774,0 5285,-124 6021,-2816 927,-3389 -2453,-7554 -6021,-7554z" style="fill:#e5ad0d"/>
  <path class="Head-Dog7fil341" d="M19830 13237c-124,-1172 -653,-2341 -1434,-3323 -632,-582 -1373,-788 -2296,-580 -1509,339 -2296,3283 -1456,4764 840,1482 2804,1680 3867,1002 653,-417 1195,-1044 1319,-1863z" style="fill:#6a68fb"/>
  <path class="Head-Dog7fil14" d="M8141 11211c-590,1190 -813,2509 -480,3728 585,2138 2290,2657 4356,2779 -3483,-543 -4783,-2989 -3876,-6507z" style="fill:#83fed7"/>
  <path class="Head-Dog7fil32" d="M13682 7459c552,0 1099,101 1626,285 302,105 959,411 1688,816 -411,-435 -1448,-891 -1639,-957 -543,-189 -1107,-294 -1675,-294 -568,0 -1132,105 -1675,294 -191,66 -1229,522 -1639,957 728,-405 1386,-711 1688,-816 527,-184 1074,-285 1626,-285z" style="fill:#8d1ee1"/>
  <path class="Head-Dog7fil32" d="M8070 11356c-237,514 -424,1536 -461,1878 -61,568 -26,1137 124,1685 291,1064 865,1718 1623,2120 512,270 1759,641 2840,689 -1197,57 -2559,-372 -2910,-557 -794,-420 -1394,-1103 -1697,-2213 -155,-566 -192,-1154 -129,-1740 23,-210 212,-1304 610,-1862z" style="fill:#814ac9"/>
  <path class="Head-Dog7fil32" d="M19293 11356c238,514 425,1536 462,1878 61,568 26,1137 -124,1685 -291,1064 -865,1718 -1623,2120 -513,270 -1760,641 -2841,689 1198,57 2560,-372 2910,-557 795,-420 1394,-1103 1698,-2213 155,-566 192,-1154 128,-1740 -22,-210 -211,-1304 -610,-1862z" style="fill:#69e606"/>
  <path class="Head-Dog7fil342" d="M11105 10398c1609,362 1925,1770 1631,2983 -107,369 -13,643 379,562 180,-39 370,-61 567,-61 1187,0 1796,851 1796,1682 0,831 -685,1327 -1796,1327 -946,0 -1739,-488 -1954,-1146 -147,-407 -437,-437 -738,-359 -786,258 -1660,176 -2162,-222 -2159,-1714 228,-5227 2277,-4766z" style="fill:#1072dc"/>
  <path class="Head-Dog7fil14" d="M13682 14264c-1272,0 -1544,682 -1734,863 101,-448 565,-1247 1734,-1247l0 384z" style="fill:#1fde2b"/>
  <path class="Head-Dog7fil14" d="M13682 14264c1271,0 1543,682 1734,863 -101,-448 -565,-1247 -1734,-1247l0 384z" style="fill:#86a3da"/>
 </g><g id="Mouth-Dog10">
 <animateTransform additive="sum" attributeName="transform" dur="10" repeatCount="indefinite" type="translate" values="0;0 200;0;0 200;0;0 200;0;0 200;0"/>
  <metadata id="CorelCorpID_189Corel-Layer"/>
  <path class="Mouth-Dog10fil22 Mouth-Dog10str0" d="M12998 15999c350,-285 596,-745 684,-1198" style="fill:#3f576d"/>
  <path class="Mouth-Dog10fil22 Mouth-Dog10str0" d="M14366 15999c-350,-285 -596,-745 -684,-1198" style="fill:#b79ad8"/>
  <path class="Mouth-Dog10fil100" d="M13682 14937c228,354 409,759 637,1113 -211,-140 -412,-262 -637,-262 0,-319 0,-532 0,-851zm0 0c-228,354 -409,759 -637,1113 211,-140 412,-262 637,-262 0,-319 0,-532 0,-851z" style="fill:#f8443d"/>
  <path class="Mouth-Dog10fil152 Mouth-Dog10str7" d="M13542 15733c-91,-119 -185,-174 -299,-202 -60,71 -115,212 -102,375 116,-97 252,-137 401,-173z" style="fill:#08b503"/>
  <path class="Mouth-Dog10fil152 Mouth-Dog10str7" d="M13822 15733c91,-119 185,-174 299,-202 60,71 115,212 102,375 -116,-97 -252,-137 -401,-173z" style="fill:#21d755"/>
 </g><g id="WeaponFlySwatter-Medium">
 <animateTransform additive="sum" attributeName="transform" dur="10" repeatCount="indefinite" type="translate" values="0;0 200;0;0 200;0;0 200;0;0 200;0"/>
  <metadata id="CorelCorpID_1Corel-Layer"/>
  <g id="_2367108401984">
   <path class="WeaponFlySwatter-Mediumfil2 WeaponFlySwatter-Mediumstr0" d="M12021 22875c-60,107 -120,214 -181,320 -796,-449 -1593,-899 -2390,-1348 -25,-155 36,-261 180,-320 797,449 1594,899 2391,1348z" style="fill:#830b6e"/>
   <path class="WeaponFlySwatter-Mediumfil3" d="M11911 23070l-71 125c-796,-449 -1593,-899 -2390,-1348 -13,-83 -2,-151 33,-206l2428 1429z" style="fill:#c628da"/>
   <path class="WeaponFlySwatter-Mediumfil4" d="M15132 23138c18,9 34,17 47,25 244,135 344,347 329,601 -14,234 -129,505 -322,782 -47,68 -98,134 -152,200 -54,66 -110,129 -168,190 -241,251 -505,440 -763,538 -282,107 -559,110 -802,-25 -14,-8 -29,-17 -45,-28l-1620 -1038c-225,-145 -316,-292 -255,-521 53,-198 230,-454 546,-840 316,-385 540,-615 743,-729 237,-133 437,-118 684,-1l1778 846zm-2015 -717l-36 45 194 108 52 -64 -94 -44c-41,-20 -79,-34 -116,-45zm341 152l-57 70 194 108 67 -81 -204 -97zm335 159l-72 89 194 107 81 -99 -203 -97zm335 160l-88 106 195 108 96 -118 -203 -96zm335 159l-103 124 195 108 111 -135 -203 -97zm334 159l-117 143 194 108 127 -154 -204 -97zm324 173l-121 147 194 108 49 -60c-20,-76 -60,-142 -122,-195zm131 432l-14 -8 -130 158 91 50c25,-69 43,-136 53,-200zm-103 318l-123 -68 -129 158 157 87c36,-60 68,-119 95,-177zm-164 284l-170 -95 -130 158 180 100c37,-47 71,-93 103,-138 6,-8 12,-17 17,-25zm-201 262l-181 -100 -129 158 170 95c8,-8 15,-15 23,-23 39,-41 78,-84 117,-130zm-235 245l-157 -87 -130 158 123 68c55,-42 110,-89 164,-139zm-278 220l-91 -50 -129 158 13 8c69,-31 138,-70 207,-116zm-477 198l49 -60 -194 -108 -121 148c83,27 173,33 266,20zm-397 -84l127 -153 -195 -108 -117 143 185 118zm-305 -195l112 -136 -195 -108 -102 125 185 119zm-305 -196l97 -117 -194 -108 -88 106 185 119zm-305 -195l82 -100 -194 -107 -73 88 185 119zm-305 -196l67 -81 -194 -108 -58 70 185 119zm-304 -195l51 -63 -194 -108 -36 44c25,24 56,48 93,72l86 55zm-248 -374l61 34 130 -158 -109 -61c-40,70 -67,131 -82,185zm149 -293l124 69 129 -158 -136 -76c-45,60 -84,115 -117,165zm194 -266l141 78 130 -158 -143 -80c-46,56 -89,110 -128,160zm209 -259l144 79 130 -158 -141 -78c-42,49 -86,101 -133,157zm218 -254l137 76 130 -158 -124 -69c-45,45 -92,95 -143,151zm240 -242l109 61 130 -158 -61 -34c-55,31 -114,75 -178,131zm1843 1917l-194 -108 -130 158 194 108 130 -158zm-320 -178l-194 -107 -130 158 194 107 130 -158zm-320 -177l-194 -108 -130 158 194 108 130 -158zm-320 -177l-194 -108 -130 158 195 107 129 -157zm-319 -178l-195 -108 -130 158 195 108 130 -158zm-320 -177l-195 -108 -129 158 194 108 130 -158zm-320 -178l-194 -107 -130 157 194 108 130 -158zm-113 -207l195 108 129 -158 -194 -108 -130 158zm320 177l194 108 130 -158 -194 -107 -130 157zm320 178l194 108 130 -158 -194 -108 -130 158zm320 177l194 108 130 -158 -194 -108 -130 158zm320 178l194 107 130 -157 -195 -108 -129 158zm320 177l194 108 130 -158 -195 -108 -129 158zm319 178l195 107 129 -158 -194 -107 -130 158zm-1707 -1322l194 107 130 -158 -194 -107 -130 158zm320 177l194 108 130 -158 -195 -108 -129 158zm320 177l194 108 130 -158 -195 -107 -129 157zm319 178l195 108 129 -158 -194 -108 -130 158zm320 177l194 108 130 -158 -194 -108 -130 158zm320 178l194 107 130 -157 -194 -108 -130 158zm320 177l194 108 130 -158 -194 -108 -130 158zm-1708 -1322l195 108 129 -158 -194 -108 -130 158zm320 178l194 107 130 -158 -194 -107 -130 158zm320 177l194 108 130 -158 -194 -108 -130 158zm320 177l194 108 130 -158 -194 -107 -130 157zm320 178l194 108 130 -158 -195 -108 -129 158zm320 177l194 108 130 -158 -195 -108 -129 158zm319 178l195 107 129 -157 -194 -108 -130 158zm-2635 -193l-130 158 195 108 129 -158 -194 -108zm320 177l-130 158 194 108 130 -158 -194 -108zm320 178l-130 158 194 107 130 -157 -194 -108zm320 177l-130 158 194 108 130 -158 -194 -108zm319 178l-129 158 194 107 130 -158 -195 -107zm320 177l-129 158 194 108 130 -158 -195 -108zm320 177l-130 158 195 108 129 -158 -194 -108zm-2130 -807l-130 158 194 108 130 -158 -194 -108zm319 178l-129 158 194 107 130 -157 -195 -108zm320 177l-130 158 195 108 129 -158 -194 -108zm320 178l-130 158 195 107 129 -158 -194 -107zm320 177l-130 158 194 108 130 -158 -194 -108zm320 177l-130 158 194 108 130 -158 -194 -108zm320 178l-130 158 194 108 130 -158 -194 -108z" style="fill:#63d476"/>
   <path class="WeaponFlySwatter-Mediumfil1" d="M14481 25269c-125,88 -252,157 -378,205 -282,107 -559,110 -802,-25 -14,-8 -29,-17 -45,-28l-1620 -1038c-225,-145 -316,-292 -255,-521 53,-198 230,-454 546,-840 316,-385 540,-615 743,-729 237,-133 437,-118 684,-1l44 21c-232,65 -436,163 -608,285l84 -102 -61 -34c-55,31 -114,75 -178,131l92 51c-37,28 -71,57 -105,87l-84 -47c-45,45 -92,95 -143,151l81 45c-29,32 -56,65 -81,100l-85 -48c-42,49 -86,101 -133,157l107 59c-21,37 -40,75 -58,113l-130 -73c-46,56 -89,110 -128,160l141 78 94 -115c-48,113 -81,229 -100,345l-80 97 65 36c-1,13 -2,26 -2,39 -2,36 1,73 9,109l-153 -85 -130 158 194 108 103 -125c15,48 36,97 64,144l-41 51 123 68c114,144 280,282 473,408l-38 -22 -88 106 185 119 92 -111c41,23 83,46 126,69l-98 119 185 119 112 -136 -54 -30c254,122 524,220 774,285l1 1 0 -1c52,14 104,26 154,36l-28 34 13 8c22,-10 43,-20 64,-32 129,25 248,39 353,41zm-687 73l49 -60 -194 -108 -121 148c83,27 173,33 266,20zm-397 -84l127 -153 -195 -108 -117 143 185 118zm-915 -586l82 -100 -194 -107 -73 88 185 119zm-305 -196l67 -81 -194 -108 -58 70 185 119zm-304 -195l51 -63 -194 -108 -36 44c25,24 56,48 93,72l86 55zm-248 -374l61 34 130 -158 -109 -61c-40,70 -67,131 -82,185zm149 -293l124 69 129 -158 -136 -76c-45,60 -84,115 -117,165z" style="fill:#97225f"/>
   <path class="WeaponFlySwatter-Mediumfil5 WeaponFlySwatter-Mediumstr1" d="M15132 23138c18,9 34,17 47,25 244,135 344,347 329,601 -14,234 -129,505 -322,782 -47,68 -98,134 -152,200 -54,66 -110,129 -168,190 -241,251 -505,440 -763,538 -282,107 -559,110 -802,-25 -14,-8 -29,-17 -45,-28l-1620 -1038c-225,-145 -316,-292 -255,-521 53,-198 230,-454 546,-840 316,-385 540,-615 743,-729 237,-133 437,-118 684,-1l1778 846z" style="fill:#98a58f"/>
  </g>
 </g><g id="Eyes-Dog10">
 <animateTransform additive="sum" attributeName="transform" dur="10" repeatCount="indefinite" type="translate" values="0;0 200;0;0 200;0;0 200;0;0 200;0"/>
  <metadata id="CorelCorpID_199Corel-Layer"/>
  <path class="Eyes-Dog10fil398" d="M9115 14430c869,646 2279,559 2905,-447 340,-547 233,-1243 -154,-1555 -725,-585 -2026,-1174 -2603,-776 -1035,715 -961,2175 -148,2778z"/>
  <path class="Eyes-Dog10fil399" d="M11871 12433c-415,-335 -1021,-674 -1572,-826 -279,26 -650,250 -815,428 -597,641 -543,1663 -3,2108 640,529 1501,382 1922,146 389,-217 791,-835 766,-1393 -58,-187 -160,-350 -298,-463z"/>
  <path class="Eyes-Dog10fil400" d="M10645 11723c-702,92 -1306,650 -1233,1448 72,797 801,1118 1573,1021 759,-95 1171,-918 1047,-1579 -283,-395 -1145,-794 -1387,-890z"/>
  <circle class="Eyes-Dog10fil152" r="235" transform="matrix(0.633314 0.587448 -0.488648 0.624529 9054.98 13801.1)"/>
  <circle class="Eyes-Dog10fil152" r="235" transform="matrix(0.220012 0.346704 -0.300224 0.227934 8854.62 13442.9)"/>
  <path class="Eyes-Dog10fil157" d="M11895 14159c44,-55 86,-114 125,-176 340,-547 233,-1243 -154,-1555 -725,-585 -2026,-1174 -2603,-776 -411,284 -647,685 -731,1103 472,-577 1492,-709 1983,-581 881,229 1639,1117 1380,1985z"/>
  <circle class="Eyes-Dog10fil152" r="235" transform="matrix(-0.0837922 2.18357 -2.0039 0.091352 10064.9 12560.8)"/>
  <path class="Eyes-Dog10fil22 Eyes-Dog10str4" d="M9115 14430c869,646 2279,559 2905,-447 340,-547 233,-1243 -154,-1555 -725,-585 -2026,-1174 -2603,-776 -1035,715 -961,2175 -148,2778z"/>
  <path class="Eyes-Dog10fil401" d="M18249 14430c-870,646 -2279,559 -2905,-447 -340,-547 -233,-1243 154,-1555 725,-585 2026,-1174 2603,-776 1035,715 961,2175 148,2778z"/>
  <path class="Eyes-Dog10fil402" d="M15493 12433c415,-335 1021,-674 1572,-826 279,26 650,250 815,428 597,641 543,1663 3,2108 -641,529 -1502,382 -1923,146 -389,-217 -791,-835 -765,-1393 58,-187 160,-350 298,-463z"/>
  <path class="Eyes-Dog10fil403" d="M16719 11723c702,92 1306,650 1233,1448 -73,797 -801,1118 -1574,1021 -758,-95 -1170,-918 -1046,-1579 283,-395 1144,-794 1387,-890z"/>
  <circle class="Eyes-Dog10fil152" r="235" transform="matrix(-0.633314 0.587448 0.488648 0.624529 18308.9 13801.1)"/>
  <circle class="Eyes-Dog10fil152" r="235" transform="matrix(-0.220012 0.346704 0.300224 0.227934 18509.2 13442.9)"/>
  <path class="Eyes-Dog10fil157" d="M15469 14159c-45,-55 -86,-114 -125,-176 -340,-547 -233,-1243 154,-1555 725,-585 2026,-1174 2603,-776 411,284 647,685 731,1103 -472,-577 -1492,-709 -1984,-581 -880,229 -1638,1117 -1379,1985z"/>
  <circle class="Eyes-Dog10fil152" r="235" transform="matrix(0.0837922 2.18357 2.0039 0.091352 17298.9 12560.8)"/>
  <path class="Eyes-Dog10fil22 Eyes-Dog10str4" d="M18249 14430c-870,646 -2279,559 -2905,-447 -340,-547 -233,-1243 154,-1555 725,-585 2026,-1174 2603,-776 1035,715 961,2175 148,2778z"/>
  <path class="Eyes-Dog10fil155" d="M11273 10797c54,132 308,168 711,539 370,342 384,569 579,568 217,-1 315,-527 219,-787 -79,-213 -169,-371 -641,-550 -559,-211 -934,71 -868,230z"/>
  <path class="Eyes-Dog10fil14" d="M11273 10797c54,132 308,168 711,539 370,342 384,569 579,568 217,-1 315,-527 219,-787 -79,-213 -169,-371 -641,-550 -559,-211 -934,71 -868,230z"/>
  <path class="Eyes-Dog10fil155" d="M16091 10797c-54,132 -308,168 -711,539 -371,342 -384,569 -579,568 -217,-1 -315,-527 -219,-787 79,-213 169,-371 641,-550 559,-211 933,71 868,230z"/>
  <path class="Eyes-Dog10fil14" d="M16091 10797c-54,132 -308,168 -711,539 -371,342 -384,569 -579,568 -217,-1 -315,-527 -219,-787 79,-213 169,-371 641,-550 559,-211 933,71 868,230z"/>
 </g><g id="Moustache-Dog0">
 <animateTransform additive="sum" attributeName="transform" dur="10" repeatCount="indefinite" type="translate" values="0;0 200;0;0 200;0;0 200;0;0 200;0"/>
  <metadata id="CorelCorpID_200Corel-Layer"/>
  <rect class="Moustache-Dog0fil22" height="487" width="487" x="13438" y="12949"/>
 </g><g id="Nose-Dog0">
 <animateTransform additive="sum" attributeName="transform" dur="10" repeatCount="indefinite" type="translate" values="0;0 200;0;0 200;0;0 200;0;0 200;0"/>
  <metadata id="CorelCorpID_208Corel-Layer"/>
  <path class="Nose-Dog0fil416 Nose-Dog0str0" d="M13682 14020c-283,0 -678,136 -648,338 28,185 288,481 648,481 360,0 620,-296 648,-481 30,-202 -365,-338 -648,-338z" style="fill:#39f35a"/>
 </g><g id="AccessoryTeddy">
  <metadata id="CorelCorpID_6Corel-Layer"/>
  <g>
   <path class="AccessoryTeddyfil109 AccessoryTeddystr1" d="M7342 24083c-376,367 -734,92 -1120,-302 -385,-395 -508,-899 -275,-1126 233,-228 734,-93 1119,302 385,394 651,759 276,1126z" style="fill:#11d7ca"/>
   <path class="AccessoryTeddyfil110 AccessoryTeddystr1" d="M3383 24083c376,367 734,92 1119,-302 386,-395 636,-998 402,-1225 -233,-228 -860,6 -1245,401 -386,394 -652,759 -276,1126z" style="fill:#9186a3"/>
   <path class="AccessoryTeddyfil111" d="M5474 22410c640,0 1105,587 1322,1161 112,294 175,1129 -17,1563 -161,363 -464,317 -1305,317 -880,0 -1336,51 -1486,-333 -165,-422 -4,-1305 110,-1600 225,-583 735,-1108 1376,-1108z" style="fill:#ce6296"/>
   <path class="AccessoryTeddyfil3" d="M6432 22924c9,-17 270,267 434,621 76,162 114,514 110,860 -3,276 -40,557 -129,759 -163,369 -434,367 -1121,363 -56,0 -117,-1 -252,-1 -140,0 -209,1 -275,1 -735,5 -1129,8 -1281,-382 -73,-189 -86,-458 -68,-730 26,-369 103,-750 178,-924 183,-426 425,-605 441,-589 17,17 -179,238 -301,643 -52,170 -144,525 -168,880 -18,253 -7,500 58,666 115,294 473,291 1141,287 107,-1 221,-2 275,-2 44,0 152,1 252,2 617,3 860,5 984,-275 81,-182 114,-441 117,-699 4,-328 -39,-648 -101,-807 -118,-305 -304,-656 -294,-673z" style="fill:#7fb881"/>
   <path class="AccessoryTeddyfil112" d="M5441 22923c422,0 729,302 872,681 358,949 -178,1322 -872,1322 -694,0 -1329,-264 -906,-1357 149,-384 484,-646 906,-646z" style="fill:#2b826d"/>
   <path class="AccessoryTeddyfil113 AccessoryTeddystr1" d="M4534 21091c-308,0 -557,-222 -557,-496 0,-274 272,-592 580,-592 308,0 535,318 535,592 0,274 -250,496 -558,496z" style="fill:#144fb8"/>
   <path class="AccessoryTeddyfil19" d="M4573 20888c-153,0 -277,-111 -277,-247 0,-136 124,-246 277,-246 153,0 277,110 277,246 0,136 -124,247 -277,247z" style="fill:#934cc4"/>
   <path class="AccessoryTeddyfil113 AccessoryTeddystr1" d="M6909 21352c-308,0 -557,-222 -557,-496 0,-274 269,-582 577,-582 308,0 538,308 538,582 0,274 -250,496 -558,496z" style="fill:#200c5b"/>
   <path class="AccessoryTeddyfil19" d="M6845 21167c-158,0 -286,-114 -286,-254 0,-140 128,-253 286,-253 157,0 285,113 285,253 0,140 -128,254 -285,254z" style="fill:#94b52f"/>
   <path class="AccessoryTeddyfil114 AccessoryTeddystr1" d="M5493 20331c787,13 1234,692 1367,1304 132,611 -412,1168 -1605,1043 -1192,-126 -1303,-654 -1157,-1101 145,-446 609,-1260 1395,-1246z" style="fill:#b75800"/>
   <path class="AccessoryTeddyfil115" d="M5439 21393c431,45 822,371 786,717 -36,347 -738,429 -971,403 -234,-26 -812,-239 -776,-586 37,-347 530,-579 961,-534z" style="fill:#3b09a7"/>
   <path class="AccessoryTeddyfil116 AccessoryTeddystr1" d="M3763 24181c419,-194 673,49 808,408 135,359 70,749 -211,880 -281,130 -610,-82 -808,-408 -197,-326 -207,-686 211,-880z" style="fill:#d21e1a"/>
   <path class="AccessoryTeddyfil117" d="M3693 24534c42,-20 64,21 89,74 24,53 42,98 0,118 -42,19 -96,-8 -120,-61 -25,-53 -11,-112 31,-131zm316 152c119,-55 176,-94 246,56 69,151 53,307 -66,362 -119,55 -272,-22 -342,-172 -69,-151 43,-191 162,-246zm68 -337c42,-20 77,19 102,72 24,53 28,100 -13,119 -42,20 -96,-7 -121,-60 -24,-53 -10,-112 32,-131zm-236 27c46,-21 84,16 112,74 27,59 33,118 -14,139 -46,22 -106,-8 -133,-67 -28,-59 -12,-124 35,-146z" style="fill:#d0cea4"/>
   <path class="AccessoryTeddyfil118 AccessoryTeddystr1" d="M6934 24204c363,182 359,535 184,885 -176,351 -543,522 -820,383 -277,-138 -313,-489 -184,-885 130,-397 457,-565 820,-383z" style="fill:#280b4b"/>
   <path class="AccessoryTeddyfil119" d="M7009 24559c-41,-22 -66,16 -95,67 -28,51 -49,95 -9,118 40,22 96,-1 125,-52 28,-50 19,-110 -21,-133zm-328 127c-114,-64 -167,-107 -249,38 -81,144 -76,301 38,366 114,64 273,-1 354,-146 81,-144 -28,-193 -143,-258zm-40 -341c-41,-23 -79,13 -108,64 -28,51 -36,98 4,120 40,23 96,0 125,-51 28,-51 19,-111 -21,-133zm233 46c-45,-25 -86,9 -118,65 -31,57 -42,114 3,140 45,25 106,-1 138,-57 32,-57 21,-123 -23,-148z" style="fill:#c576c5"/>
   <path class="AccessoryTeddyfil120" d="M5033 20819c97,34 143,162 102,285 -40,124 -151,196 -248,162 -97,-34 -143,-162 -103,-286 40,-123 152,-196 249,-161z" style="fill:#584c66"/>
   <path class="AccessoryTeddyfil121" d="M5895 20863c103,-9 195,89 205,218 9,128 -67,240 -170,248 -104,9 -195,-88 -205,-217 -10,-129 66,-240 170,-249z" style="fill:#84a311"/>
   <ellipse class="AccessoryTeddyfil15" rx="135" ry="181" transform="matrix(0.829594 -0.069368 0.0580151 0.767535 5912.39 21095.8)"/>
   <ellipse class="AccessoryTeddyfil15" rx="135" ry="181" transform="matrix(0.786889 0.277973 -0.240129 0.736754 4959.74 21042.4)"/>
   <path class="AccessoryTeddyfil14" d="M5960 20949c18,-10 42,-1 53,20 11,22 6,48 -12,58 -18,11 -34,-2 -45,-24 -12,-21 -14,-43 4,-54z" style="fill:#5fc6e2"/>
   <path class="AccessoryTeddyfil14" d="M5059 20926c21,-2 39,16 41,41 3,24 -12,46 -33,48 -21,3 -27,-16 -29,-41 -2,-25 1,-46 21,-48z" style="fill:#1322cc"/>
   <path class="AccessoryTeddyfil15" d="M5329 21486c408,22 178,349 -19,330 -197,-19 -388,-353 19,-330z" style="fill:#f817e1"/>
   <path class="AccessoryTeddyfil2 AccessoryTeddystr8" d="M4818 21716c-84,107 -82,346 90,433 173,88 282,-23 385,-209 84,253 255,330 428,286 173,-44 301,-229 176,-443" style="fill:#855c62"/>
   <line class="AccessoryTeddyfil2 AccessoryTeddystr8" x1="5333" x2="5293" y1="21651" y2="21940"/>
  </g>
 </g><g id="HatBanderas-Medium">
 <animateTransform additive="sum" attributeName="transform" dur="10" repeatCount="indefinite" type="translate" values="0;0 200;0;0 200;0;0 200;0;0 200;0"/>
  <metadata id="CorelCorpID_64Corel-Layer"/>
  <path class="HatBanderas-Mediumfil608new" d="M7959 11361c315,-948 283,-1863 443,-2630 211,-1023 1742,-2185 2423,-2801 1794,-1622 3961,-935 5564,-236 1027,447 574,1635 1180,2577 -133,664 -267,1328 -401,1992 -2244,242 -4489,484 -6734,726 -910,112 -1566,260 -2475,372z" style="fill:#fc08cf"/>
  <path class="HatBanderas-Mediumfil609new" d="M8355 8991c14,-88 29,-175 47,-260 211,-1023 1742,-2185 2423,-2801 1140,-1031 2431,-1129 3632,-884 -565,31 -1203,113 -1827,292 -1559,448 -3623,2678 -4275,3653z" style="fill:#f75596"/>
  <path class="HatBanderas-Mediumfil47new HatBanderas-Mediumstr0new" d="M7959 11361c315,-948 283,-1863 443,-2630 211,-1023 1742,-2185 2423,-2801 1794,-1622 3961,-935 5564,-236 1027,447 574,1635 1180,2577 -133,664 -267,1328 -401,1992 -2244,242 -4489,484 -6734,726 -910,112 -1566,260 -2475,372z" style="fill:#3a68db"/>
  <path class="HatBanderas-Mediumfil610new HatBanderas-Mediumstr0new" d="M7703 11284c3111,-218 6430,-406 9541,-625 55,-704 101,-1607 156,-2312 -3850,1458 -7221,-213 -9270,1000 -425,252 -28,1097 -427,1937z" style="fill:#1df85f"/>
  <path class="HatBanderas-Mediumfil14new" d="M10333 10721c1580,-377 4142,-1201 4608,-1784 -773,106 -2311,65 -3294,-14 3814,-261 4857,-1209 5077,-3192 166,1416 836,2760 1002,4177 -2057,266 -5336,546 -7393,813z" style="fill:#b60cd2"/>
  <g>
   <polygon class="HatBanderas-Mediumfil611new HatBanderas-Mediumstr0new" points="15759,7871 16169,8162 15309,9146 "/>
   <path class="HatBanderas-Mediumfil611new HatBanderas-Mediumstr0new" d="M16088 7402c2554,-1831 1647,465 4000,498 -2380,946 -1930,-996 -4000,-498z" style="fill:#bf23ab"/>
   <path class="HatBanderas-Mediumfil612new HatBanderas-Mediumstr0new" d="M16152 7377c2159,-2138 -249,-1752 -385,-3653 -1072,1962 917,1960 385,3653z" style="fill:#7848db"/>
   <path class="HatBanderas-Mediumfil613new HatBanderas-Mediumstr0new" d="M16663 6821c492,-575 1176,-976 2062,-1244 739,-627 -458,-1720 1179,-2419 -167,-296 -2155,-371 -2872,394 -1014,1082 818,1798 -369,3269z" style="fill:#6ad46b"/>
   <path class="HatBanderas-Mediumfil614new HatBanderas-Mediumstr0new" d="M18152 5802c817,-228 2487,-446 3438,539 1232,380 1176,-573 2354,95 -156,-1266 -2439,-3355 -3577,-3081 -1609,387 -182,1829 -2215,2447z" style="fill:#ad2890"/>
   <path class="HatBanderas-Mediumfil615new HatBanderas-Mediumstr0new" d="M21993 6592c1113,336 1233,-253 1971,217 333,758 447,2209 -408,2510 -346,-975 -702,-1911 -1563,-2727z" style="fill:#417c66"/>
   <path class="HatBanderas-Mediumfil616new HatBanderas-Mediumstr0new" d="M17040 6579c549,-298 1226,-768 1606,-750 1325,65 1240,1738 2036,1939 -1614,185 -1629,-1231 -3642,-1189z" style="fill:#e567c2"/>
   <path class="HatBanderas-Mediumfil617new HatBanderas-Mediumstr0new" d="M21441 7862c-109,-496 787,-438 478,-1170 806,692 1426,1701 1619,2645 -569,675 -2052,-733 -2097,-1475z" style="fill:#7bcdd7"/>
   <path class="HatBanderas-Mediumfil618new HatBanderas-Mediumstr0new" d="M18753 5690c1289,238 1055,1539 2323,1989 -54,-683 991,-349 637,-1233 -1083,-891 -2006,-1334 -2960,-756z" style="fill:#f42ea7"/>
   <path class="HatBanderas-Mediumfil246new" d="M16931 6426c1130,-963 -654,-2092 670,-3066 -964,973 641,1996 -370,2897 -75,48 -225,121 -300,169z" style="fill:#0d35b8"/>
   <path class="HatBanderas-Mediumfil246new" d="M18732 5659c1553,-429 554,-1695 2286,-2060 -1412,500 -511,1604 -1923,2023 -94,14 -270,22 -363,37z" style="fill:#3858f5"/>
   <path class="HatBanderas-Mediumfil246new" d="M19310 5581c1619,-214 677,-1410 2459,-1538 -1495,304 -615,1328 -2094,1551 -95,1 -270,-14 -365,-13z" style="fill:#b3aa86"/>
   <path class="HatBanderas-Mediumfil246new" d="M19655 5599c1638,-80 851,-1213 2641,-1194 -1526,179 -780,1136 -2279,1236 -95,-6 -267,-35 -362,-42z" style="fill:#ccc804"/>
   <path class="HatBanderas-Mediumfil246new" d="M16333 7138c778,-1169 -734,-1822 -632,-2822 217,1119 1551,1511 867,2595 -57,62 -178,165 -235,227z" style="fill:#4fb81e"/>
   <path class="HatBanderas-Mediumfil246new" d="M20508 5747c1520,501 1285,-613 2889,31 -1472,-372 -1179,568 -2585,134 -82,-39 -222,-126 -304,-165z" style="fill:#a95ed7"/>
   <path class="HatBanderas-Mediumfil619new" d="M17290 6521c1597,-307 1756,674 2726,1056 -820,-482 -923,-1436 -2394,-1181 -89,29 -243,97 -332,125z" style="fill:#65d829"/>
   <path class="HatBanderas-Mediumfil619new" d="M17585 6087c1636,-99 1601,889 2484,1390 -715,-580 -630,-1536 -2133,-1472 -93,17 -258,65 -351,82z" style="fill:#d3faed"/>
   <path class="HatBanderas-Mediumfil246new" d="M21904 6659c892,636 1060,-171 1967,578 -897,-538 -974,161 -1808,-407 -45,-42 -114,-129 -159,-171z" style="fill:#131b02"/>
   <path class="HatBanderas-Mediumfil619new" d="M18698 5714c1637,101 1418,1074 2197,1677 -599,-661 -337,-1595 -1834,-1715 -95,5 -268,32 -363,38z" style="fill:#8a9fa2"/>
   <path class="HatBanderas-Mediumfil619new" d="M20468 5773c336,489 132,1062 453,1607 -180,-529 54,-1062 -177,-1519l-276 -88z" style="fill:#d35e97"/>
   <path class="HatBanderas-Mediumfil620new HatBanderas-Mediumstr0new" d="M16051 7462c1882,-3196 6384,-2609 7377,1551 -1789,-4138 -5362,-4068 -7049,-1302 -109,-83 -219,-166 -328,-249z" style="fill:#7511ca"/>
   <path class="HatBanderas-Mediumfil246new" d="M22630 7098c445,181 795,-100 1310,587 -558,-533 -847,-256 -1251,-429l-59 -158z" style="fill:#660d29"/>
   <path class="HatBanderas-Mediumfil246new" d="M17251 6099c1275,-836 -311,-2144 1159,-2969 -1112,863 314,2046 -834,2833 -82,39 -243,96 -325,136z" style="fill:#ec341e"/>
   <path class="HatBanderas-Mediumfil246new" d="M17566 5900c1448,-624 198,-2152 1835,-2736 -1295,676 -173,2057 -1484,2653 -90,26 -262,57 -351,83z" style="fill:#b9d869"/>
   <path class="HatBanderas-Mediumfil246new" d="M22198 7007c-29,403 -745,703 -269,1408 -290,-658 391,-918 409,-1287l-140 -121z" style="fill:#f99e84"/>
   <path class="HatBanderas-Mediumfil246new" d="M23012 7790c310,317 773,180 883,978 -229,-673 -635,-520 -911,-814l28 -164z" style="fill:#fcffc1"/>
   <path class="HatBanderas-Mediumfil246new" d="M22363 7297c61,401 -667,959 -41,1583 -432,-605 270,-1119 206,-1484l-165 -99z" style="fill:#337bc4"/>
   <path class="HatBanderas-Mediumfil246new" d="M22648 7689c62,400 -489,950 137,1574 -432,-605 93,-1110 28,-1475l-165 -99z" style="fill:#b9a5b9"/>
  </g>
  <path class="HatBanderas-Mediumfil621new" d="M3515 13711c-351,-1259 2163,-2149 3856,-2547 3094,-728 7063,-902 8457,-1880 2518,-1769 -877,-4108 1209,-4537 4244,-871 8098,6761 2402,6978 -3995,-729 -8357,-625 -12276,181 -1483,306 -3596,942 -3648,1805z" style="fill:#af1611"/>
  <path class="HatBanderas-Mediumfil609new" d="M7624 11106c3054,-679 6848,-870 8204,-1822 2518,-1769 -877,-4108 1209,-4537 637,-131 1266,-68 1855,131 -1567,-193 -2453,137 -2249,846 210,728 582,1431 354,2393 -228,963 -937,1558 -2634,2014 -1697,456 -5395,747 -6750,1013l11 -38z" style="fill:#6aee0a"/>
  <path class="HatBanderas-Mediumfil360new" d="M21086 6423c1736,2042 1968,5164 -1647,5302 -1750,-319 -3571,-479 -5394,-489 2647,-526 5098,0 6257,-641 1182,-654 1765,-2164 784,-4172z" style="fill:#300069"/>
  <path class="HatBanderas-Mediumfil360new" d="M18486 5304c132,-205 474,-203 762,5 288,208 414,543 282,748 -133,206 -475,203 -763,-5 -288,-208 -414,-543 -281,-748z" style="fill:#b19cb2"/>
  <path class="HatBanderas-Mediumfil622new HatBanderas-Mediumstr0new" d="M18654 5526c96,-148 342,-146 549,4 208,150 299,391 203,539 -96,148 -342,146 -549,-4 -208,-150 -299,-391 -203,-539z" style="fill:#8bf01c"/>
  <path class="HatBanderas-Mediumfil47new HatBanderas-Mediumstr0new" d="M3515 13711c-351,-1259 2163,-2149 3856,-2547 3094,-728 7063,-902 8457,-1880 2518,-1769 -877,-4108 1209,-4537 4244,-871 8098,6761 2402,6978 -3995,-729 -8357,-625 -12276,181 -1483,306 -3596,942 -3648,1805z" style="fill:#ad8e6e"/>
  <path class="HatBanderas-Mediumfil609new" d="M18797 5526c49,-17 98,-5 109,25 11,31 -20,70 -69,86 -50,17 -98,5 -109,-25 -11,-31 20,-70 69,-86z" style="fill:#94d3b3"/>
 </g></svg>