<svg xmlns="http://www.w3.org/2000/svg" xmlns:xlink="http://www.w3.org/1999/xlink" style="shape-rendering:geometricPrecision; text-rendering:geometricPrecision; image-rendering:optimizeQuality; fill-rule:evenodd; clip-rule:evenodd" version="1.1" viewBox="0 0 29000 29000" xml:space="preserve"><defs><style type="text/css">.HairBack-Dog2fil14 {fill:black;fill-opacity:0.200000}
.HairBack-Dog2fil32 {fill:black;fill-rule:nonzero}
.HairBack-Dog2fil231 {fill:url(#HairBack-Dog2id304)}
.HairBack-Dog2str0 {stroke:black;stroke-width:150;stroke-linecap:round;stroke-linejoin:round}
.Tail-Dog7fil240 {fill:url(#Tail-Dog7id825)}
.Tail-Dog7fil14 {fill:black;fill-opacity:0.200000}
.Tail-Dog7fil22 {fill:none}
.Tail-Dog7str0 {stroke:black;stroke-width:150;stroke-linecap:round;stroke-linejoin:round}
.RightFoot-Dog0fil26 {fill:#fcfdff}
.RightFoot-Dog0fil14 {fill:black;fill-opacity:0.200000}
.RightFoot-Dog0fil22 {fill:none}
.RightFoot-Dog0fil32 {fill:black;fill-rule:nonzero}
.RightLeg-Dog5fil246 {fill:url(#RightLeg-Dog5id106)}
.RightLeg-Dog5fil32 {fill:black;fill-rule:nonzero}
.RightLeg-Dog5fil14 {fill:black;fill-opacity:0.200000}
.LeftFoot-Dog0fil26 {fill:#fcfdff}
.LeftFoot-Dog0fil14 {fill:black;fill-opacity:0.200000}
.LeftFoot-Dog0fil22 {fill:none}
.LeftFoot-Dog0fil32 {fill:black;fill-rule:nonzero}
.LeftLeg-Dog5fil252 {fill:url(#LeftLeg-Dog5id105)}
.LeftLeg-Dog5fil32 {fill:black;fill-rule:nonzero}
.LeftLeg-Dog5fil14 {fill:black;fill-opacity:0.200000}
.RightHand-Dog4fil256 {fill:url(#RightHand-Dog4id168)}
.RightHand-Dog4fil257 {fill:url(#RightHand-Dog4id22)}
.RightHand-Dog4fil14 {fill:black;fill-opacity:0.200000}
.RightHand-Dog4fil22 {fill:none}
.RightHand-Dog4str0 {stroke:black;stroke-width:150;stroke-linecap:round;stroke-linejoin:round}
.RightPaw-Dog0fil259 {fill:url(#RightPaw-Dog0id406)}
.RightPaw-Dog0fil14 {fill:black;fill-opacity:0.200000}
.RightPaw-Dog0fil32 {fill:black;fill-rule:nonzero}
.LeftHand-Dog4fil262 {fill:url(#LeftHand-Dog4id426)}
.LeftHand-Dog4fil57 {fill:url(#LeftHand-Dog4id5)}
.LeftHand-Dog4fil14 {fill:black;fill-opacity:0.200000}
.LeftHand-Dog4fil22 {fill:none}
.LeftHand-Dog4str0 {stroke:black;stroke-width:150;stroke-linecap:round;stroke-linejoin:round}
.LeftPaw-Dog0fil265 {fill:url(#LeftPaw-Dog0id974)}
.LeftPaw-Dog0fil14 {fill:black;fill-opacity:0.200000}
.LeftPaw-Dog0fil32 {fill:black;fill-rule:nonzero}
.Body-Dog0fil267 {fill:url(#Body-Dog0id28)}
.Body-Dog0fil268 {fill:url(#Body-Dog0id251)}
.Body-Dog0fil14 {fill:black;fill-opacity:0.200000}
.Body-Dog0fil32 {fill:black;fill-rule:nonzero}
.Head-Dog2fil332 {fill:url(#Head-Dog2id325)}
.Head-Dog2fil333 {fill:url(#Head-Dog2id454)}
.Head-Dog2fil14 {fill:black;fill-opacity:0.200000}
.Head-Dog2fil32 {fill:black;fill-rule:nonzero}
.Mouth-Dog0fil100 {fill:black}
.Mouth-Dog0fil22 {fill:none}
.Mouth-Dog0str0 {stroke:black;stroke-width:150;stroke-linecap:round;stroke-linejoin:round}
.Eyes-Dog10fil398 {fill:url(#Eyes-Dog10id811)}
.Eyes-Dog10fil399 {fill:url(#Eyes-Dog10id877)}
.Eyes-Dog10fil400 {fill:url(#Eyes-Dog10id885)}
.Eyes-Dog10fil152 {fill:white}
.Eyes-Dog10fil157 {fill:black;fill-opacity:0.501961}
.Eyes-Dog10fil401 {fill:url(#Eyes-Dog10id810)}
.Eyes-Dog10fil402 {fill:url(#Eyes-Dog10id876)}
.Eyes-Dog10fil403 {fill:url(#Eyes-Dog10id884)}
.Eyes-Dog10fil155 {fill:#a87468}
.Eyes-Dog10fil14 {fill:black;fill-opacity:0.200000}
.Eyes-Dog10fil22 {fill:none}
.Eyes-Dog10str4 {stroke:black;stroke-width:150}
.Moustache-Dog0fil22 {fill:none}
.Nose-Dog0fil416 {fill:url(#Nose-Dog0id907)}
.Nose-Dog0str0 {stroke:black;stroke-width:150;stroke-linecap:round;stroke-linejoin:round}
.HatMerlinBack-Mediumfil14new {fill:black;fill-opacity:0.200000}
.HatMerlinBack-Mediumfil13new {fill:url(#HatMerlinBack-Mediumid272new)}
.HatMerlinBack-Mediumstr2new {stroke:#2B2A29;stroke-width:150}
.NecklaceYinYangfil225new {fill:url(#NecklaceYinYangid676new);fill-rule:nonzero}
.NecklaceYinYangfil46new {fill:white;fill-rule:nonzero;fill-opacity:0.200000}
.NecklaceYinYangfil84new {fill:black}
.NecklaceYinYangfil83new {fill:white}
.NecklaceYinYangfil47new {fill:none;fill-rule:nonzero}
.NecklaceYinYangstr4new {stroke:black;stroke-width:100}
.NecklaceYinYangfil226new {fill:url(#NecklaceYinYangid677new);fill-rule:nonzero}
.NecklaceYinYangstr3new {stroke:black;stroke-width:100;stroke-linecap:round;stroke-linejoin:round}
.NecklaceYinYangfil227new {fill:url(#NecklaceYinYangid669new);fill-rule:nonzero}
.NecklaceYinYangfil228new {fill:url(#NecklaceYinYangid705new);fill-rule:nonzero}
.NecklaceYinYangfil229new {fill:url(#NecklaceYinYangid685new);fill-rule:nonzero}
.NecklaceYinYangfil230new {fill:url(#NecklaceYinYangid101new)}
.HatMerlin-Mediumfil62new {fill:black;fill-opacity:0.400000}
.HatMerlin-Mediumfil595new {fill:#7EA6F7}
.HatMerlin-Mediumfil596new {fill:#C4D8FF}
.HatMerlin-Mediumfil597new {fill:#789EEB}
.HatMerlin-Mediumfil598new {fill:#4F7CD6}
.HatMerlin-Mediumfil599new {fill:#76A2FA}
.HatMerlin-Mediumfil600new {fill:#5483E3}
.HatMerlin-Mediumfil14new {fill:black;fill-opacity:0.200000}
.HatMerlin-Mediumfil223new {fill:black;fill-rule:nonzero}
.HatMerlin-Mediumfil603new {fill:#8FB4FC}
.HatMerlin-Mediumfil604new {fill:#B0CAFF}
.HatMerlin-Mediumfil594new {fill:url(#HatMerlin-Mediumid585new)}
.HatMerlin-Mediumstr0new {stroke:black;stroke-width:150;stroke-linecap:round;stroke-linejoin:round}
.HatMerlin-Mediumfil601new {fill:url(#HatMerlin-Mediumid416new)}
.HatMerlin-Mediumfil602new {fill:url(#HatMerlin-Mediumid678new);fill-rule:nonzero}
.BraceletBoxer-Mediumfil1 {fill:black;fill-opacity:0.200000}
.BraceletBoxer-Mediumfil3 {fill:black}
.BraceletBoxer-Mediumfil5 {fill:#FFCC99;fill-opacity:0.301961}
.BraceletBoxer-Mediumfil6 {fill:white;fill-rule:nonzero}
.BraceletBoxer-Mediumfil7 {fill:url(#BraceletBoxer-Mediumid13)}
.BraceletBoxer-Mediumfil0 {fill:url(#BraceletBoxer-Mediumid11)}
.BraceletBoxer-Mediumstr0 {stroke:black;stroke-width:150;stroke-linecap:round;stroke-linejoin:round}
.BraceletBoxer-Mediumfil2 {fill:url(#BraceletBoxer-Mediumid4)}
.BraceletBoxer-Mediumstr1 {stroke:black;stroke-width:100;stroke-linecap:round;stroke-linejoin:round}
.BraceletBoxer-Mediumfil4 {fill:none}
.BraceletBoxer-Mediumfil8 {fill:url(#BraceletBoxer-Mediumid12)}
.AccessoryCutepoolKatanas-Mediumfil0 {fill:url(#AccessoryCutepoolKatanas-Mediumid183)}
.AccessoryCutepoolKatanas-Mediumfil1 {fill:url(#AccessoryCutepoolKatanas-Mediumid202)}
.AccessoryCutepoolKatanas-Mediumfil2 {fill:white;fill-opacity:0.501961}
.AccessoryCutepoolKatanas-Mediumfil5 {fill:black;fill-opacity:0.501961}
.AccessoryCutepoolKatanas-Mediumfil6 {fill:url(#AccessoryCutepoolKatanas-Mediumid142)}
.AccessoryCutepoolKatanas-Mediumfil7 {fill:url(#AccessoryCutepoolKatanas-Mediumid203)}
.AccessoryCutepoolKatanas-Mediumfil3 {fill:none}
.AccessoryCutepoolKatanas-Mediumstr0 {stroke:black;stroke-width:150;stroke-linecap:round;stroke-linejoin:round;stroke-miterlimit:22.9256}
.AccessoryCutepoolKatanas-Mediumfil4 {fill:url(#AccessoryCutepoolKatanas-Mediumid86)}
.AccessoryCutepoolKatanas-Mediumstr1 {stroke:black;stroke-width:100;stroke-miterlimit:22.9256}
.AccessoryCutepoolKatanas-Mediumstr2 {stroke:#333232;stroke-width:100;stroke-miterlimit:22.9256}
.AccessoryCutepoolKatanas-Mediumfil8 {fill:url(#AccessoryCutepoolKatanas-Mediumid159)}
</style><linearGradient gradientUnits="userSpaceOnUse" id="HairBack-Dog2id304" x1="13655" x2="13655" xlink:href="#HairBack-Dog2id87" y1="23289.4" y2="13071.6">
  </linearGradient><linearGradient gradientUnits="userSpaceOnUse" id="Tail-Dog7id825" x1="14585.6" x2="19774.9" xlink:href="#Tail-Dog7id74" y1="24034.2" y2="19900.1">
  </linearGradient><linearGradient gradientUnits="userSpaceOnUse" id="RightLeg-Dog5id106" x1="15678.4" x2="15274.3" xlink:href="#RightLeg-Dog5id105" y1="24212.3" y2="20921.3">
  </linearGradient><linearGradient gradientUnits="userSpaceOnUse" id="LeftLeg-Dog5id105" x1="11629.3" x2="12033.4" y1="24212.3" y2="20921.3">
   <stop offset="0" style="stop-opacity:1; stop-color:#f0f4f9"/>
   <stop offset="0.0901961" style="stop-opacity:1; stop-color:#f0f4f9"/>
   <stop offset="0.419608" style="stop-opacity:1; stop-color:#ffffff"/>
   <stop offset="1" style="stop-opacity:1; stop-color:#ffffff"/>
  </linearGradient><linearGradient gradientUnits="objectBoundingBox" id="RightHand-Dog4id168" x1="19.8228%" x2="80.1772%" y1="10.3299%" y2="89.6698%">
   <stop offset="0" style="stop-opacity:1; stop-color:#c1c9d4"/>
   <stop offset="0.0196078" style="stop-opacity:1; stop-color:#c1c9d4"/>
   <stop offset="0.721569" style="stop-opacity:1; stop-color:#f0f4f9"/>
   <stop offset="1" style="stop-opacity:1; stop-color:#f0f4f9"/>
  </linearGradient><linearGradient gradientUnits="userSpaceOnUse" id="RightHand-Dog4id22" x1="16885.8" x2="16885.8" xlink:href="#RightHand-Dog4id5" y1="17625.4" y2="19553.4">
  </linearGradient><linearGradient gradientUnits="userSpaceOnUse" id="RightPaw-Dog0id406" x1="18770.8" x2="18008.4" y1="21729.1" y2="19634.5">
   <stop offset="0" style="stop-opacity:1; stop-color:#ffffff"/>
   <stop offset="0.701961" style="stop-opacity:1; stop-color:#f0f4f9"/>
   <stop offset="1" style="stop-opacity:1; stop-color:#f0f4f9"/>
  </linearGradient><linearGradient gradientUnits="objectBoundingBox" id="LeftHand-Dog4id426" x1="80.1772%" x2="19.8228%" xlink:href="#LeftHand-Dog4id168" y1="10.3299%" y2="89.6698%">
  </linearGradient><linearGradient gradientUnits="objectBoundingBox" id="LeftHand-Dog4id5" x1="50%" x2="50%" y1="0%" y2="100%">
   <stop offset="0" style="stop-opacity:1; stop-color:#a87468"/>
   <stop offset="1" style="stop-opacity:1; stop-color:#cf9f95"/>
  </linearGradient><linearGradient gradientUnits="userSpaceOnUse" id="LeftPaw-Dog0id974" x1="8449.46" x2="9499.06" xlink:href="#LeftPaw-Dog0id406" y1="21712.6" y2="19651">
  </linearGradient><linearGradient gradientUnits="objectBoundingBox" id="Body-Dog0id28" x1="50%" x2="50%" y1="0%" y2="100%">
   <stop offset="0" style="stop-opacity:1; stop-color:#c1c9d4"/>
   <stop offset="0.101961" style="stop-opacity:1; stop-color:#c1c9d4"/>
   <stop offset="0.521569" style="stop-opacity:1; stop-color:#f0f4f9"/>
   <stop offset="1" style="stop-opacity:1; stop-color:#ffffff"/>
  </linearGradient><linearGradient gradientUnits="userSpaceOnUse" id="Body-Dog0id251" x1="13681.9" x2="13681.9" y1="17494.1" y2="22874.9">
   <stop offset="0" style="stop-opacity:1; stop-color:#c1c9d4"/>
   <stop offset="0.278431" style="stop-opacity:1; stop-color:#f0f4f9"/>
   <stop offset="0.721569" style="stop-opacity:1; stop-color:#ffffff"/>
   <stop offset="1" style="stop-opacity:1; stop-color:#ffffff"/>
  </linearGradient><linearGradient gradientUnits="objectBoundingBox" id="Head-Dog2id325" x1="50%" x2="50%" xlink:href="#Head-Dog2id35" y1="99.9999%" y2="0%">
  </linearGradient><linearGradient gradientUnits="userSpaceOnUse" id="Head-Dog2id454" x1="13681.9" x2="13681.9" y1="17765.4" y2="8838.96">
   <stop offset="0" style="stop-opacity:1; stop-color:#e4e9f2"/>
   <stop offset="0.188235" style="stop-opacity:1; stop-color:#fcfdff"/>
   <stop offset="1" style="stop-opacity:1; stop-color:#fcfdff"/>
  </linearGradient><linearGradient gradientUnits="userSpaceOnUse" id="Eyes-Dog10id811" x1="10548.9" x2="10170.7" xlink:href="#Eyes-Dog10id27" y1="14845.3" y2="11518.7">
  </linearGradient><linearGradient gradientUnits="userSpaceOnUse" id="Eyes-Dog10id877" x1="9092.22" x2="12133.7" xlink:href="#Eyes-Dog10id57" y1="12896.4" y2="13213">
  </linearGradient><linearGradient gradientUnits="userSpaceOnUse" id="Eyes-Dog10id885" x1="10842.9" x2="10616.8" xlink:href="#Eyes-Dog10id384" y1="11722.2" y2="14210.2">
  </linearGradient><linearGradient gradientUnits="userSpaceOnUse" id="Eyes-Dog10id810" x1="16814.9" x2="17193.1" xlink:href="#Eyes-Dog10id27" y1="14845.3" y2="11518.7">
  </linearGradient><linearGradient gradientUnits="userSpaceOnUse" id="Eyes-Dog10id876" x1="18271.6" x2="15230.2" xlink:href="#Eyes-Dog10id57" y1="12896.4" y2="13213">
  </linearGradient><linearGradient gradientUnits="userSpaceOnUse" id="Eyes-Dog10id884" x1="16520.9" x2="16747.1" xlink:href="#Eyes-Dog10id384" y1="11722.2" y2="14210.2">
  </linearGradient><linearGradient gradientUnits="userSpaceOnUse" id="Nose-Dog0id907" x1="13681.9" x2="13681.9" xlink:href="#Nose-Dog0id451" y1="14020.2" y2="14838.5">
  </linearGradient><linearGradient gradientUnits="userSpaceOnUse" id="HatMerlinBack-Mediumid272new" x1="13726.3" x2="13726.3" y1="16087.5" y2="11000.6">
   <stop offset="0" style="stop-opacity:1; stop-color:#3E3D9D"/>
   <stop offset="1" style="stop-opacity:1; stop-color:#1B196E"/>
  </linearGradient><linearGradient gradientUnits="userSpaceOnUse" id="NecklaceYinYangid676new" x1="13681.9" x2="13681.9" xlink:href="#NecklaceYinYangid669new" y1="17208" y2="20390.5">
  </linearGradient><linearGradient gradientUnits="userSpaceOnUse" id="NecklaceYinYangid677new" x1="11189" x2="11399.5" xlink:href="#NecklaceYinYangid669new" y1="18603.5" y2="18002.2">
  </linearGradient><linearGradient gradientUnits="userSpaceOnUse" id="NecklaceYinYangid705new" x1="16170.9" x2="15961.3" xlink:href="#NecklaceYinYangid669new" y1="18602.8" y2="18004">
  </linearGradient><linearGradient gradientUnits="userSpaceOnUse" id="NecklaceYinYangid685new" x1="15099" x2="14900.7" xlink:href="#NecklaceYinYangid669new" y1="19895.5" y2="19273.3">
  </linearGradient><linearGradient gradientUnits="userSpaceOnUse" id="NecklaceYinYangid101new" x1="13681.9" x2="13681.9" y1="20483.4" y2="19943.6">
   <stop offset="0" style="stop-opacity:1; stop-color:#2B2A29"/>
   <stop offset="1" style="stop-opacity:1; stop-color:#fcfdff"/>
  </linearGradient><linearGradient gradientUnits="userSpaceOnUse" id="HatMerlin-Mediumid585new" x1="13278.6" x2="15465.7" xlink:href="#HatMerlin-Mediumid583new" y1="3517.26" y2="11256.8">
  </linearGradient><linearGradient gradientUnits="userSpaceOnUse" id="HatMerlin-Mediumid416new" x1="11647.3" x2="15626.9" xlink:href="#HatMerlin-Mediumid260new" y1="7355.49" y2="12715.8">
  </linearGradient><linearGradient gradientUnits="userSpaceOnUse" id="HatMerlin-Mediumid678new" x1="14541" x2="12919" xlink:href="#HatMerlin-Mediumid675new" y1="15487.1" y2="8909.11">
  </linearGradient><linearGradient gradientUnits="userSpaceOnUse" id="BraceletBoxer-Mediumid13" x1="10659.8" x2="7242.5" xlink:href="#BraceletBoxer-Mediumid2" y1="19968.7" y2="21545.9">
  </linearGradient><linearGradient gradientUnits="userSpaceOnUse" id="BraceletBoxer-Mediumid11" x1="19283.5" x2="17541.8" xlink:href="#BraceletBoxer-Mediumid2" y1="19104.9" y2="22409.6">
  </linearGradient><linearGradient gradientUnits="userSpaceOnUse" id="BraceletBoxer-Mediumid4" x1="16783.3" x2="18659.4" y1="20597.1" y2="19307.3">
   <stop offset="0" style="stop-opacity:1; stop-color:#C4C4C4"/>
   <stop offset="0.341176" style="stop-opacity:1; stop-color:white"/>
   <stop offset="0.819608" style="stop-opacity:1; stop-color:white"/>
   <stop offset="1" style="stop-opacity:1; stop-color:#DBDBDB"/>
  </linearGradient><linearGradient gradientUnits="userSpaceOnUse" id="BraceletBoxer-Mediumid12" x1="8704.42" x2="10580.5" xlink:href="#BraceletBoxer-Mediumid4" y1="19307.3" y2="20597.1">
  </linearGradient><linearGradient gradientUnits="userSpaceOnUse" id="AccessoryCutepoolKatanas-Mediumid183" x1="15242.32" x2="14868.97" xlink:href="#AccessoryCutepoolKatanas-Mediumid75" y1="20290.65" y2="20978.33">
  </linearGradient><linearGradient gradientUnits="userSpaceOnUse" id="AccessoryCutepoolKatanas-Mediumid202" x1="8777.7" x2="8510.04" xlink:href="#AccessoryCutepoolKatanas-Mediumid69" y1="16906.97" y2="17399.98">
  </linearGradient><linearGradient gradientUnits="userSpaceOnUse" id="AccessoryCutepoolKatanas-Mediumid142" x1="12121.49" x2="12494.84" xlink:href="#AccessoryCutepoolKatanas-Mediumid75" y1="20290.64" y2="20978.32">
  </linearGradient><linearGradient gradientUnits="userSpaceOnUse" id="AccessoryCutepoolKatanas-Mediumid203" x1="18586.11" x2="18853.77" xlink:href="#AccessoryCutepoolKatanas-Mediumid69" y1="16906.96" y2="17399.97">
  </linearGradient><linearGradient gradientUnits="userSpaceOnUse" id="AccessoryCutepoolKatanas-Mediumid86" x1="11162.06" x2="10505.61" xlink:href="#AccessoryCutepoolKatanas-Mediumid69" y1="17737.86" y2="18947">
  </linearGradient><linearGradient gradientUnits="userSpaceOnUse" id="AccessoryCutepoolKatanas-Mediumid159" x1="16201.75" x2="16858.2" xlink:href="#AccessoryCutepoolKatanas-Mediumid69" y1="17737.85" y2="18946.99">
  </linearGradient><linearGradient gradientUnits="userSpaceOnUse" id="HairBack-Dog2id87" x1="16230.4" x2="13904.5" y1="16152.6" y2="14931.5">
   <stop offset="0" style="stop-opacity:1; stop-color:#dbb872"/>
   <stop offset="1" style="stop-opacity:1; stop-color:#c29c51"/>
  </linearGradient><linearGradient gradientUnits="userSpaceOnUse" id="Tail-Dog7id74" x1="15961" x2="18418.2" y1="23174.1" y2="17871.9">
   <stop offset="0" style="stop-opacity:1; stop-color:#c1c9d4"/>
   <stop offset="1" style="stop-opacity:1; stop-color:#f0f4f9"/>
  </linearGradient><linearGradient gradientUnits="userSpaceOnUse" id="RightLeg-Dog5id105" x1="11629.3" x2="12033.4" y1="24212.3" y2="20921.3">
   <stop offset="0" style="stop-opacity:1; stop-color:#f0f4f9"/>
   <stop offset="0.0901961" style="stop-opacity:1; stop-color:#f0f4f9"/>
   <stop offset="0.419608" style="stop-opacity:1; stop-color:#ffffff"/>
   <stop offset="1" style="stop-opacity:1; stop-color:#ffffff"/>
  </linearGradient><linearGradient gradientUnits="objectBoundingBox" id="RightHand-Dog4id5" x1="50%" x2="50%" y1="0%" y2="100%">
   <stop offset="0" style="stop-opacity:1; stop-color:#a87468"/>
   <stop offset="1" style="stop-opacity:1; stop-color:#cf9f95"/>
  </linearGradient><linearGradient gradientUnits="objectBoundingBox" id="LeftHand-Dog4id168" x1="19.8228%" x2="80.1772%" y1="10.3299%" y2="89.6698%">
   <stop offset="0" style="stop-opacity:1; stop-color:#c1c9d4"/>
   <stop offset="0.0196078" style="stop-opacity:1; stop-color:#c1c9d4"/>
   <stop offset="0.721569" style="stop-opacity:1; stop-color:#f0f4f9"/>
   <stop offset="1" style="stop-opacity:1; stop-color:#f0f4f9"/>
  </linearGradient><linearGradient gradientUnits="userSpaceOnUse" id="LeftPaw-Dog0id406" x1="18770.8" x2="18008.4" y1="21729.1" y2="19634.5">
   <stop offset="0" style="stop-opacity:1; stop-color:#ffffff"/>
   <stop offset="0.701961" style="stop-opacity:1; stop-color:#f0f4f9"/>
   <stop offset="1" style="stop-opacity:1; stop-color:#f0f4f9"/>
  </linearGradient><linearGradient gradientUnits="userSpaceOnUse" id="Head-Dog2id35" x1="13681.9" x2="13681.9" y1="17936.7" y2="7484.8">
   <stop offset="0" style="stop-opacity:1; stop-color:#c1c9d4"/>
   <stop offset="0.4" style="stop-opacity:1; stop-color:#f0f4f9"/>
   <stop offset="1" style="stop-opacity:1; stop-color:#ffffff"/>
  </linearGradient><linearGradient gradientUnits="userSpaceOnUse" id="Eyes-Dog10id27" x1="16937.6" x2="16937.6" y1="14961.3" y2="11448.6">
   <stop offset="0" style="stop-opacity:1; stop-color:#800375"/>
   <stop offset="1" style="stop-opacity:1; stop-color:black"/>
  </linearGradient><linearGradient gradientUnits="objectBoundingBox" id="Eyes-Dog10id57" x1="100%" x2="0%" y1="50.0003%" y2="50.0003%">
   <stop offset="0" style="stop-opacity:1; stop-color:#800375"/>
   <stop offset="0.501961" style="stop-opacity:1; stop-color:#ff45f0"/>
   <stop offset="1" style="stop-opacity:1; stop-color:#800375"/>
  </linearGradient><linearGradient gradientUnits="userSpaceOnUse" id="Eyes-Dog10id384" x1="16417.8" x2="16417.8" y1="11784.3" y2="14068.5">
   <stop offset="0" style="stop-opacity:1; stop-color:black"/>
   <stop offset="0.45" style="stop-opacity:1; stop-color:black"/>
   <stop offset="1" style="stop-opacity:1; stop-color:#66005e"/>
  </linearGradient><linearGradient gradientUnits="userSpaceOnUse" id="Nose-Dog0id451" x1="13653.8" x2="13653.8" y1="14108.6" y2="14926.9">
   <stop offset="0" style="stop-opacity:1; stop-color:#FFCCCC"/>
   <stop offset="1" style="stop-opacity:1; stop-color:#453F2C"/>
  </linearGradient><linearGradient gradientUnits="userSpaceOnUse" id="NecklaceYinYangid669new" x1="12270.9" x2="12467.6" y1="19894.7" y2="19277.5">
   <stop offset="0" style="stop-opacity:1; stop-color:#643300"/>
   <stop offset="1" style="stop-opacity:1; stop-color:#AB7D2D"/>
  </linearGradient><linearGradient gradientUnits="userSpaceOnUse" id="HatMerlin-Mediumid583new" x1="13242.6" x2="15604" y1="3115.32" y2="11471.4">
   <stop offset="0" style="stop-opacity:1; stop-color:#9CA1FF"/>
   <stop offset="0.431373" style="stop-opacity:1; stop-color:#6F6DDB"/>
   <stop offset="1" style="stop-opacity:1; stop-color:#1A1A80"/>
  </linearGradient><linearGradient gradientUnits="userSpaceOnUse" id="HatMerlin-Mediumid260new" x1="11481.4" x2="15778" y1="7259.33" y2="13046.7">
   <stop offset="0" style="stop-opacity:1; stop-color:#D9B6FC"/>
   <stop offset="1" style="stop-opacity:1; stop-color:#8943CF"/>
  </linearGradient><linearGradient gradientUnits="userSpaceOnUse" id="HatMerlin-Mediumid675new" x1="14605.6" x2="12854.4" y1="16038.8" y2="8936.72">
   <stop offset="0" style="stop-opacity:1; stop-color:#22209E"/>
   <stop offset="1" style="stop-opacity:1; stop-color:#909AF5"/>
  </linearGradient><linearGradient gradientUnits="userSpaceOnUse" id="BraceletBoxer-Mediumid2" x1="20053.3" x2="17995" y1="19164.5" y2="23070.1">
   <stop offset="0" style="stop-opacity:1; stop-color:red"/>
   <stop offset="1" style="stop-opacity:1; stop-color:#990000"/>
  </linearGradient><linearGradient gradientUnits="userSpaceOnUse" id="AccessoryCutepoolKatanas-Mediumid75" x1="15117.03" x2="14773.66" y1="21302.02" y2="21934.49">
   <stop offset="0" style="stop-opacity:1; stop-color:#2D2D2D"/>
   <stop offset="0.168627" style="stop-opacity:1; stop-color:#514F4C"/>
   <stop offset="0.270588" style="stop-opacity:1; stop-color:#C4C4C4"/>
   <stop offset="0.490196" style="stop-opacity:1; stop-color:#444342"/>
   <stop offset="0.670588" style="stop-opacity:1; stop-color:#28241E"/>
   <stop offset="0.819608" style="stop-opacity:1; stop-color:#4A4A4A"/>
   <stop offset="1" style="stop-opacity:1; stop-color:#4A4A4A"/>
  </linearGradient><linearGradient gradientUnits="userSpaceOnUse" id="AccessoryCutepoolKatanas-Mediumid69" x1="18192.35" x2="18438.51" y1="18190.02" y2="18643.44">
   <stop offset="0" style="stop-opacity:1; stop-color:#2D2D2D"/>
   <stop offset="0.2" style="stop-opacity:1; stop-color:#514F4C"/>
   <stop offset="0.34902" style="stop-opacity:1; stop-color:#C4C4C4"/>
   <stop offset="0.670588" style="stop-opacity:1; stop-color:#28241E"/>
   <stop offset="0.819608" style="stop-opacity:1; stop-color:#4A4A4A"/>
   <stop offset="1" style="stop-opacity:1; stop-color:#4A4A4A"/>
  </linearGradient></defs><g id="HatMerlinBack-Medium">
 <animateTransform additive="sum" attributeName="transform" dur="10" repeatCount="indefinite" type="translate" values="0;0 200;0;0 200;0;0 200;0;0 200;0"/>
  <metadata id="CorelCorpID_5Corel-Layer"/>
  <path class="HatMerlinBack-Mediumfil13new HatMerlinBack-Mediumstr2new" d="M13745 16088c5194,0 9466,-925 10137,-2162 60,-111 77,-242 77,-358 0,-1405 -4552,-2567 -10214,-2567 -5662,0 -10252,1138 -10252,2543 0,1405 4590,2544 10252,2544z" style="fill:#5f4bf6"/>
  <path class="HatMerlinBack-Mediumfil14new" d="M23888 13915c55,-109 71,-235 71,-347 0,-1405 -4552,-2567 -10214,-2567 -5662,0 -10252,1138 -10252,2543 0,63 10,126 28,188 2909,-2610 4780,1153 4926,1981 3753,522 7563,515 10659,-20 243,-1571 2856,-3978 4782,-1778z" style="fill:#129db1"/>
 </g><g id="HairBack-Dog2">
 <animateTransform additive="sum" attributeName="transform" dur="10" repeatCount="indefinite" type="translate" values="0;0 200;0;0 200;0;0 200;0;0 200;0"/>
  <metadata id="CorelCorpID_117Corel-Layer"/>
  <path class="HairBack-Dog2fil231 HairBack-Dog2str0" d="M8591 13829c1513,-175 3512,-571 5037,-751l0 -6 27 3 27 -3 0 6c1525,180 3524,576 5037,751 -171,447 -58,1095 45,2689 92,1406 -436,2407 -27,3386 297,711 970,1116 1747,845 -52,1178 -722,1584 -1360,1592 -352,397 -855,624 -1509,477 -1409,665 -3228,483 -3960,311 -732,172 -2551,354 -3960,-311 -654,147 -1157,-80 -1509,-477 -638,-8 -1308,-414 -1360,-1592 777,271 1450,-134 1747,-845 409,-979 -119,-1980 -27,-3386 103,-1594 216,-2242 45,-2689z" style="fill:#02ab33"/>
  <path class="HairBack-Dog2fil14" d="M10025 15801c-570,-53 -443,4359 -483,5144 -64,1227 1177,1892 1699,1879 1205,-30 1591,-50 2387,-39l0 1 27 -1 27 1 0 -1c796,-11 1182,9 2387,39 522,13 1763,-652 1699,-1879 -40,-785 87,-5197 -483,-5144 -651,61 -3335,-410 -3630,1022 -295,-1432 -2979,-961 -3630,-1022z" style="fill:#b9b5a7"/>
  <path class="HairBack-Dog2fil32" d="M8074 22261c520,30 1104,-248 1401,-599 -131,369 -695,775 -1233,738 -18,-46 -151,-93 -168,-139z" style="fill:#c6bfc6"/>
  <path class="HairBack-Dog2fil32" d="M9546 22771c518,-73 1045,-462 1277,-865 -65,388 -551,898 -1087,968 -25,-42 -164,-62 -190,-103z" style="fill:#1b954d"/>
  <path class="HairBack-Dog2fil32" d="M19236 22261c-520,30 -1104,-248 -1401,-599 131,369 695,775 1233,738 18,-46 151,-93 168,-139z" style="fill:#e39894"/>
  <path class="HairBack-Dog2fil32" d="M17764 22771c-518,-73 -1045,-462 -1277,-865 65,388 551,898 1087,968 25,-42 164,-62 190,-103z" style="fill:#89dad9"/>
 </g><g id="Tail-Dog7">
  <metadata id="CorelCorpID_124Corel-Layer"/>
  <path class="Tail-Dog7fil240" d="M13724 21721c1720,1554 1686,579 2358,-766 565,-1132 1859,-1900 2789,-1766 -354,105 -472,310 -295,255 435,-134 1585,-266 2467,723 -184,-111 -479,-21 -355,49 885,497 1663,2277 577,4030 -287,-801 -1329,-1700 -2333,-684 -59,59 112,63 301,47 -1043,1324 -2518,1462 -4976,641 -266,-89 -95,244 93,333 -1056,-86 -1700,-842 -1730,-1657 -297,-194 678,-1500 1104,-1205z" style="fill:#b8ac5b"/>
  <path class="Tail-Dog7fil14" d="M21265 24246c-287,-801 -1329,-1700 -2333,-684 -59,59 112,63 301,47 -1043,1324 -2518,1462 -4976,641 -266,-89 -95,244 93,333 -1056,-86 -1700,-842 -1730,-1657 -247,-161 921,-1445 1386,-1585 -54,740 456,1298 1487,1710 1032,411 1861,-314 3208,-649 1348,-336 2778,434 2564,1844z" style="fill:#ec6513"/>
  <path class="Tail-Dog7fil22 Tail-Dog7str0" d="M13724 21721c1720,1554 1686,579 2358,-766 565,-1132 1842,-1956 2772,-1822 -354,106 -455,366 -278,311 435,-134 1585,-266 2467,723 -187,-72 -479,-21 -355,49 885,497 1663,2277 577,4030 -287,-801 -1329,-1700 -2333,-684 -59,59 112,63 301,47 -1043,1324 -2518,1462 -4976,641 -266,-89 -45,242 93,333 -1173,-220 -1844,-1007 -1730,-1657 -297,-194 678,-1500 1104,-1205z" style="fill:#5a6a11"/>
 </g><g id="AccessoryCutepoolKatanas-Medium">
  <animateTransform additive="sum" attributeName="transform" dur="10" repeatCount="indefinite" type="translate" values="0;0 200;0;0 200;0;0 200;0;0 200;0"/>
  <metadata id="CorelCorpID_0Corel-Layer"/>
  <g id="_2386306507984">
   <g>
    <polygon class="AccessoryCutepoolKatanas-Mediumfil0" points="18932.67,23184.55 10805.28,18772.12 11178.63,18084.43 19306.02,22496.86 "/>
    <polygon class="AccessoryCutepoolKatanas-Mediumfil1" points="10541.89,18503.09 6478.19,16296.87 6745.85,15803.87 10809.54,18010.08 "/>
    <polygon class="AccessoryCutepoolKatanas-Mediumfil2" points="19189.63,22711.24 11066.04,18292.24 11182.43,18077.85 19306.02,22496.86 "/>
    <polygon class="AccessoryCutepoolKatanas-Mediumfil3 AccessoryCutepoolKatanas-Mediumstr0" points="18932.67,23184.55 10805.28,18772.12 11178.63,18084.43 19306.02,22496.86 "/>
    <polygon class="AccessoryCutepoolKatanas-Mediumfil4 AccessoryCutepoolKatanas-Mediumstr0" points="10347.49,18861.15 11003.94,17652.02 11320.18,17823.71 10663.73,19032.84 "/>
    <line class="AccessoryCutepoolKatanas-Mediumfil3 AccessoryCutepoolKatanas-Mediumstr1" x1="10541.89" x2="10809.54" y1="18503.09" y2="18010.08"/>
    <polygon class="AccessoryCutepoolKatanas-Mediumfil5" points="18937.58,23175.51 10810.18,18763.08 10663.73,19032.84 10343.78,18855.1 10545.88,18493.89 6492.1,16271.25 6557.12,16151.49 10620.82,18357.7 10581.25,18434.07 10896.03,18604.96 10931.75,18509.52 11198.91,18655 19071.39,22929.03 "/>
    <polygon class="AccessoryCutepoolKatanas-Mediumfil2" points="11060.83,18142.79 10878.31,18043.69 11035.16,17754.78 11217.68,17853.88 "/>
    <polygon class="AccessoryCutepoolKatanas-Mediumfil2" points="10639.08,18168.19 6706.47,16033.15 6775.9,15905.26 10708.51,18040.31 "/>
    <path class="AccessoryCutepoolKatanas-Mediumfil3 AccessoryCutepoolKatanas-Mediumstr2" d="M10269.81 18355.38l267.66 -493.01m-539.74 345.29l267.66 -493.01m-539.74 345.3l267.66 -493.01m-539.74 345.29l267.66 -493m-539.74 345.29l267.66 -493.01m-539.74 345.3l267.66 -493.01m-539.73 345.29l267.65 -493.01m-539.73 345.3l267.66 -493.01m-1083.9 49.87l267.66 -493.01m-539.74 345.3l267.66 -493.01m-539.73 345.29l267.65 -493.01m-539.73 345.3l267.66 -493.01m1092.73 1231.58l267.66 -493.01m-539.74 345.29l267.66 -493.01" style="fill:#7c876a"/>
    <polygon class="AccessoryCutepoolKatanas-Mediumfil3 AccessoryCutepoolKatanas-Mediumstr0" points="10541.89,18503.09 6478.19,16296.87 6745.85,15803.87 10809.54,18010.08 "/>
   </g>
   <g>
    <polygon class="AccessoryCutepoolKatanas-Mediumfil6" points="8431.14,23184.54 16558.53,18772.11 16185.18,18084.42 8057.79,22496.85 "/>
    <polygon class="AccessoryCutepoolKatanas-Mediumfil7" points="16821.92,18503.08 20885.62,16296.86 20617.96,15803.86 16554.27,18010.07 "/>
    <polygon class="AccessoryCutepoolKatanas-Mediumfil2" points="8174.18,22711.23 16046.7,18437.18 15930.31,18222.79 8057.79,22496.85 "/>
    <polygon class="AccessoryCutepoolKatanas-Mediumfil3 AccessoryCutepoolKatanas-Mediumstr0" points="8431.14,23184.54 16558.53,18772.11 16185.18,18084.42 8057.79,22496.85 "/>
    <polygon class="AccessoryCutepoolKatanas-Mediumfil8 AccessoryCutepoolKatanas-Mediumstr0" points="17016.32,18861.14 16359.87,17652.01 16043.63,17823.7 16700.08,19032.83 "/>
    <line class="AccessoryCutepoolKatanas-Mediumfil3 AccessoryCutepoolKatanas-Mediumstr1" x1="16821.92" x2="16554.27" y1="18503.08" y2="18010.07"/>
    <polygon class="AccessoryCutepoolKatanas-Mediumfil5" points="8426.23,23175.5 16553.63,18763.07 16700.08,19032.83 17020.03,18855.09 16817.93,18493.88 20871.71,16271.24 20806.69,16151.48 16742.99,18357.69 16782.56,18434.06 16467.78,18604.95 16162.28,18042.24 15907.37,18180.64 16164.9,18654.99 8292.42,22929.02 "/>
    <polygon class="AccessoryCutepoolKatanas-Mediumfil2" points="16302.98,18142.78 16485.5,18043.68 16328.65,17754.77 16146.13,17853.87 "/>
    <polygon class="AccessoryCutepoolKatanas-Mediumfil2" points="16724.73,18168.18 20657.34,16033.14 20587.91,15905.25 16655.3,18040.3 "/>
    <path class="AccessoryCutepoolKatanas-Mediumfil3 AccessoryCutepoolKatanas-Mediumstr2" d="M17094 18355.37l-267.66 -493.01m539.74 345.29l-267.66 -493.01m539.74 345.3l-267.66 -493.01m539.74 345.29l-267.66 -493m539.74 345.29l-267.66 -493.01m539.74 345.3l-267.66 -493.01m539.73 345.29l-267.65 -493.01m539.73 345.3l-267.66 -493.01m1083.9 49.87l-267.66 -493.01m539.74 345.3l-267.66 -493.01m539.73 345.29l-267.65 -493.01m539.73 345.3l-267.66 -493.01m-1092.73 1231.58l-267.66 -493.01m539.74 345.29l-267.66 -493.01" style="fill:#74e142"/>
    <polygon class="AccessoryCutepoolKatanas-Mediumfil3 AccessoryCutepoolKatanas-Mediumstr0" points="16821.92,18503.08 20885.62,16296.86 20617.96,15803.86 16554.27,18010.07 "/>
   </g>
  </g>
 </g><g id="RightFoot-Dog0">
  <metadata id="CorelCorpID_125Corel-Layer"/>
  <path class="RightFoot-Dog0fil26" d="M17461 25232c-144,249 -469,331 -709,123 -82,82 -321,169 -611,76 -475,-152 -678,-627 -1088,-897 -209,-138 -43,-480 -31,-702 205,68 639,20 960,-216 332,-245 1043,-199 820,325 153,50 376,135 488,193 178,92 308,217 397,350 166,246 124,748 -226,748z" style="fill:#504021"/>
  <path class="RightFoot-Dog0fil14" d="M17461 25232c-144,249 -469,331 -709,123 -82,82 -321,169 -611,76 -475,-152 -678,-627 -1088,-897 -182,-120 -106,-408 -68,-624 13,30 66,32 88,19 2,85 -1,160 50,261 317,621 1468,1311 1612,663 247,396 693,243 634,-148 151,250 332,57 232,-294 150,96 185,309 179,486 -21,178 -124,335 -319,335z" style="fill:#cf4a40"/>
  <path class="RightFoot-Dog0fil22" d="M16741 23949c560,135 807,327 949,532 170,244 121,751 -229,751 -144,249 -469,331 -709,123 -82,82 -321,169 -611,76 -475,-152 -614,-562 -1018,-844 -201,-140 -166,-401 -134,-554" style="fill:#3dfb94"/>
  <path class="RightFoot-Dog0fil32" d="M17378 25213c0,3 0,7 0,10 -59,86 -148,149 -252,169 -84,16 -174,3 -257,-45l-12 -8c47,-255 19,-572 -334,-636 167,118 191,399 163,611 -41,33 -116,65 -215,77 -89,11 -194,6 -307,-31 -265,-85 -423,-261 -589,-447 -277,-311 -611,-400 -512,-864 8,-41 -28,-86 -58,-89 -24,-2 -80,17 -89,58 -91,430 90,572 327,781 71,62 146,130 221,214 180,201 350,392 654,490 137,43 264,50 371,37 108,-13 199,-49 262,-89l3 0c116,81 258,115 400,88 143,-28 268,-114 349,-234 151,-15 258,-113 313,-251 29,-74 44,-157 44,-240 0,-135 -38,-275 -108,-376 -77,-110 -181,-216 -341,-313 -143,-86 -331,-165 -584,-231 -71,-19 -105,8 -131,48 -23,34 -14,70 26,80 271,65 468,144 612,231 139,84 229,176 295,271 53,76 81,183 81,290 0,66 -11,130 -33,185 -25,64 -65,112 -119,138 13,-317 -128,-634 -466,-624 219,111 313,298 286,700z" style="fill:#470a89"/>
 </g><g id="LeftFoot-Dog0">
  <metadata id="CorelCorpID_133Corel-Layer"/>
  <path class="LeftFoot-Dog0fil26" d="M9847 25232c143,249 468,331 709,123 82,82 321,169 611,76 475,-152 678,-627 1088,-897 208,-138 43,-480 31,-702 -240,73 -640,20 -960,-216 -332,-245 -1043,-199 -821,325 -152,50 -375,135 -487,193 -178,92 -308,217 -398,350 -165,246 -124,748 227,748z" style="fill:#113867"/>
  <path class="LeftFoot-Dog0fil14" d="M9847 25232c143,249 468,331 709,123 82,82 321,169 611,76 475,-152 678,-627 1088,-897 181,-120 105,-408 68,-624 -13,30 -66,32 -88,19 -2,85 1,160 -50,261 -318,621 -1468,1311 -1612,663 -248,396 -693,243 -634,-148 -151,250 -333,57 -232,-294 -150,96 -186,309 -179,486 20,178 124,335 319,335z" style="fill:#4a8ff2"/>
  <path class="LeftFoot-Dog0fil22" d="M10566 23949c-559,135 -807,327 -949,532 -169,244 -121,751 230,751 143,249 468,331 709,123 82,82 321,169 611,76 475,-152 614,-562 1017,-844 201,-140 167,-401 134,-554" style="fill:#fcc596"/>
  <path class="LeftFoot-Dog0fil32" d="M9929 25213c1,3 1,7 0,10 59,86 149,149 253,169 84,16 174,3 257,-45l12 -8c-48,-255 -19,-572 333,-636 -166,118 -190,399 -162,611 41,33 116,65 215,77 89,11 193,6 307,-31 265,-85 423,-261 588,-447 278,-311 612,-400 513,-864 -9,-41 27,-86 58,-89 23,-2 80,17 88,58 119,558 -222,630 -547,995 -180,201 -351,392 -655,490 -137,43 -263,50 -370,37 -109,-13 -200,-49 -262,-89l-3 0c-116,81 -259,115 -401,88 -143,-28 -267,-114 -348,-234 -151,-15 -258,-113 -313,-251 -30,-74 -44,-157 -44,-240 0,-135 38,-275 108,-376 76,-110 181,-216 341,-313 142,-86 330,-165 584,-231 71,-19 105,8 131,48 22,34 14,70 -26,80 -271,65 -468,144 -612,231 -139,84 -230,176 -295,271 -53,76 -81,183 -81,290 0,66 11,130 32,185 26,64 65,112 120,138 -13,-317 128,-634 466,-624 -219,111 -313,298 -287,700z" style="fill:#5c056d"/>
 </g><g id="RightLeg-Dog5">
  <metadata id="CorelCorpID_132Corel-Layer"/>
  <path class="RightLeg-Dog5fil246" d="M13654 20939c701,0 2353,-56 2710,226 302,239 937,901 935,1761 -2,445 -277,1009 -1000,1266 -472,76 -697,-507 -1295,-235 60,-709 -911,-790 -1350,-797l0 -2221z" style="fill:#ca7cb5"/>
  <path class="RightLeg-Dog5fil32" d="M15057 24610c33,25 62,27 88,-6 25,-32 18,-79 -15,-104 -85,-66 -111,-236 -89,-338 34,-163 71,-342 -66,-579 0,-1 -1,-3 -2,-4 -100,-171 -247,-296 -460,-378 -208,-80 -506,-119 -859,-119l0 150c335,0 616,36 805,108 180,69 302,173 385,314 0,2 1,3 2,4 108,188 77,337 48,473 -32,154 43,385 163,479zm1227 -3463c175,139 478,451 693,860 144,272 248,587 247,919 -1,245 -87,464 -218,653 -154,223 -427,476 -707,613 326,-17 760,-427 830,-528 147,-211 244,-458 244,-738 2,-360 -110,-698 -263,-989 -227,-430 -547,-760 -734,-907l-92 117z" style="fill:#99dab7"/>
  <path class="RightLeg-Dog5fil14" d="M17192 23390c67,-148 106,-305 107,-464 2,-775 -541,-1451 -869,-1752 -191,187 -276,614 -134,870 387,-413 1003,879 896,1346z" style="fill:#1c58b0"/>
 </g><g id="LeftLeg-Dog5">
  <metadata id="CorelCorpID_140Corel-Layer"/>
  <path class="LeftLeg-Dog5fil252" d="M13654 20939c-701,0 -2353,-56 -2710,226 -303,239 -938,901 -935,1761 1,445 276,1009 1000,1266 472,76 697,-507 1294,-235 -59,-709 911,-790 1351,-797l0 -2221z" style="fill:#cb8672"/>
  <path class="LeftLeg-Dog5fil32" d="M12251 24610c-33,25 -63,27 -88,-6 -25,-32 -19,-79 14,-104 85,-66 111,-236 90,-338 -34,-163 -72,-342 65,-579 1,-1 2,-3 3,-4 100,-171 246,-296 460,-378 208,-80 506,-119 859,-119l0 150c-335,0 -616,36 -806,108 -179,69 -302,173 -384,314 -1,2 -2,3 -2,4 -109,188 -77,337 -49,473 33,154 -42,385 -162,479zm-1227 -3463c-176,139 -478,451 -694,860 -143,272 -247,587 -246,919 0,245 86,464 217,653 155,223 428,476 708,613 -326,-17 -761,-427 -831,-528 -146,-211 -243,-458 -244,-738 -1,-360 110,-698 264,-989 226,-430 547,-760 733,-907l93 117z" style="fill:#2434ba"/>
  <path class="LeftLeg-Dog5fil14" d="M10116 23390c-67,-148 -107,-305 -107,-464 -2,-775 540,-1451 869,-1752 190,187 275,614 134,870 -388,-413 -1003,879 -896,1346z" style="fill:#552ce3"/>
 </g><g id="RightHand-Dog4">
 <animateTransform additive="sum" attributeName="transform" dur="10" repeatCount="indefinite" type="translate" values="0;0 200;0;0 200;0;0 200;0;0 200;0"/>
  <metadata id="CorelCorpID_144Corel-Layer"/>
  <path class="RightHand-Dog4fil256" d="M15619 17715c247,-7 498,-52 659,-90 985,362 1779,1397 2210,2149 289,504 -636,1265 -911,1014 -400,-366 -786,-483 -1129,-559 -358,-79 -514,-1818 -829,-2514z" style="fill:#e7f0df"/>
  <path class="RightHand-Dog4fil257" d="M15846 17699c166,-18 321,-47 432,-74 649,238 1214,768 1648,1317 -22,483 -677,797 -1040,490 -461,-391 -268,-1164 -1040,-1733z" style="fill:#f5641f"/>
  <path class="RightHand-Dog4fil22 RightHand-Dog4str0" d="M16041 17553c1079,269 1932,1403 2397,2213m-861 1022c-394,-360 -769,-512 -1113,-557" style="fill:#55abc2"/>
  <path class="RightHand-Dog4fil14" d="M17401 20669c-249,-249 -500,-372 -822,-396 -156,-175 -225,-650 -133,-901 308,435 716,808 1104,1031 -30,84 -75,162 -148,228 0,12 -1,25 -1,38z" style="fill:#1bd397"/>
 </g><g id="LeftHand-Dog4">
 <animateTransform additive="sum" attributeName="transform" dur="10" repeatCount="indefinite" type="translate" values="0;0 200;0;0 200;0;0 200;0;0 200;0"/>
  <metadata id="CorelCorpID_152Corel-Layer"/>
  <path class="LeftHand-Dog4fil262" d="M11744 17715c-246,-7 -497,-52 -658,-90 -985,362 -1779,1397 -2210,2149 -289,504 636,1265 911,1014 400,-366 786,-483 1129,-559 358,-79 514,-1818 828,-2514z" style="fill:#bb8c48"/>
  <path class="LeftHand-Dog4fil57" d="M11518 17699c-166,-18 -321,-47 -432,-74 -649,238 -1214,768 -1648,1317 22,483 677,797 1040,490 461,-391 268,-1164 1040,-1733z" style="fill:#756dd0"/>
  <path class="LeftHand-Dog4fil22 LeftHand-Dog4str0" d="M11323 17553c-1079,269 -1933,1403 -2397,2213m861 1022c394,-360 769,-512 1113,-557" style="fill:#9bce7b"/>
  <path class="LeftHand-Dog4fil14" d="M9963 20669c249,-249 500,-372 821,-396 157,-175 226,-650 134,-901 -308,435 -717,808 -1104,1031 30,84 75,162 148,228 0,12 1,25 1,38z" style="fill:#974b72"/>
 </g><g id="Body-Dog0">
 <animateTransform additive="sum" attributeName="transform" dur="10" repeatCount="indefinite" type="translate" values="0;0 200;0;0 200;0;0 200;0;0 200;0"/>
  <metadata id="CorelCorpID_157Corel-Layer"/>
  <path class="Body-Dog0fil267" d="M13682 23035c-1548,0 -2752,-291 -2993,-1956 -146,-1010 387,-2357 984,-3487 334,54 1089,70 2009,70 920,0 1675,-16 2008,-70 598,1130 1131,2477 985,3487 -242,1665 -1445,1956 -2993,1956z" style="fill:#2ad3b8"/>
  <path class="Body-Dog0fil268" d="M13682 17605c-1173,0 -1911,-440 -2137,431 -273,1050 -1533,4839 2137,4839 3670,0 2410,-3789 2137,-4839 -226,-871 -964,-431 -2137,-431z" style="fill:#e1b1e8"/>
  <path class="Body-Dog0fil14" d="M12620 22967c-1015,-156 -1748,-629 -1931,-1888 -72,-498 21,-1078 206,-1674 -224,2001 425,3224 1725,3562z" style="fill:#81a393"/>
  <path class="Body-Dog0fil14" d="M14743 22967c1016,-156 1749,-629 1932,-1888 72,-498 -21,-1078 -206,-1674 224,2001 -425,3224 -1726,3562z" style="fill:#46eb23"/>
  <path class="Body-Dog0fil32" d="M11012 22044c-250,-321 -348,-641 -397,-954 -59,-377 -28,-1005 180,-1327 -79,420 -89,912 -32,1305 50,341 104,572 249,976z" style="fill:#e16792"/>
  <path class="Body-Dog0fil32" d="M16352 22044c250,-321 347,-641 397,-954 59,-377 24,-998 -184,-1320 78,421 93,905 36,1298 -50,341 -104,572 -249,976z" style="fill:#300062"/>
 </g><g id="RightPaw-Dog0">
 <animateTransform additive="sum" attributeName="transform" dur="10" repeatCount="indefinite" type="translate" values="0;0 200;0;0 200;0;0 200;0;0 200;0"/>
  <metadata id="CorelCorpID_146Corel-Layer"/>
  <path class="RightPaw-Dog0fil259" d="M17402 20631c-38,818 551,1339 943,981 309,484 1078,126 986,-356 248,-652 -532,-1279 -980,-1632 -241,-78 -377,-149 -564,-64 -316,143 -32,749 -385,1071z" style="fill:#a1e416"/>
  <path class="RightPaw-Dog0fil14" d="M17402 20631c-17,192 32,393 33,395 44,201 137,399 285,544 194,184 433,219 637,33 492,772 1351,-293 810,-632 144,452 -486,750 -723,253 -324,480 -778,69 -787,-350 -5,-223 56,-314 -107,-471 -30,84 -75,162 -148,228z" style="fill:#e74b04"/>
  <path class="RightPaw-Dog0fil32" d="M18446 21611c107,-163 129,-451 -88,-537 74,121 26,386 -69,476 -138,130 -263,138 -430,31 -93,-59 -178,-155 -245,-278 -93,-172 -149,-397 -138,-656 1,-21 -7,-43 -24,-59 -52,-50 -128,-78 -180,-116 -33,-25 -76,-27 -100,6 -24,33 -10,74 23,99 44,31 87,68 130,100 -5,272 57,511 157,696 79,147 183,261 296,334 178,114 384,128 560,8 101,121 232,181 368,195 211,22 433,-69 573,-226 103,-115 160,-263 137,-425 229,-648 -410,-1166 -864,-1533 -104,-84 -134,-147 -206,-255 -23,-34 -69,-44 -104,-21 -34,23 -43,70 -20,104 80,121 120,196 236,290 356,288 865,714 854,1122 -52,-71 -158,-158 -280,-146 191,160 321,562 136,764 -110,120 -284,194 -446,177 -102,-10 -201,-57 -276,-150z" style="fill:#797e70"/>
 </g><g id="LeftPaw-Dog0">
 <animateTransform additive="sum" attributeName="transform" dur="10" repeatCount="indefinite" type="translate" values="0;0 200;0;0 200;0;0 200;0;0 200;0"/>
  <metadata id="CorelCorpID_154Corel-Layer"/>
  <path class="LeftPaw-Dog0fil265" d="M9962 20631c38,818 -552,1339 -944,981 -308,484 -1077,126 -986,-356 -247,-652 533,-1279 981,-1632 241,-78 377,-149 564,-64 316,143 31,749 385,1071z" style="fill:#509c9b"/>
  <path class="LeftPaw-Dog0fil14" d="M9962 20631c16,192 -32,393 -33,395 -44,201 -137,399 -285,544 -194,184 -433,219 -637,33 -493,772 -1351,-293 -810,-632 -144,452 485,750 723,253 324,480 778,69 787,-350 4,-223 -56,-314 107,-471 30,84 75,162 148,228z" style="fill:#ea0c3b"/>
  <path class="LeftPaw-Dog0fil32" d="M8918 21611c-107,-163 -129,-451 88,-537 -74,121 -26,386 69,476 138,130 263,138 430,31 92,-59 178,-155 245,-278 93,-172 149,-397 138,-656 -1,-21 7,-43 24,-59 52,-50 128,-78 180,-116 33,-25 75,-27 100,6 24,33 10,74 -24,99 -43,31 -86,68 -129,100 5,272 -57,511 -157,696 -80,147 -183,261 -296,334 -178,114 -384,128 -560,8 -101,121 -232,181 -369,195 -210,22 -432,-69 -572,-226 -103,-115 -161,-263 -137,-425 -229,-648 410,-1166 863,-1533 105,-84 134,-147 207,-255 23,-34 69,-44 103,-21 35,23 44,70 21,104 -81,121 -120,196 -236,290 -356,288 -865,714 -854,1122 52,-71 157,-158 280,-146 -191,160 -321,562 -136,764 110,120 284,194 446,177 102,-10 201,-57 276,-150z" style="fill:#46e624"/>
 </g><g id="NecklaceYinYang">
 <animateTransform additive="sum" attributeName="transform" dur="10" repeatCount="indefinite" type="translate" values="0;0 200;0;0 200;0;0 200;0;0 200;0"/>
  <metadata id="CorelCorpID_40Corel-Layer"/>
  <path class="NecklaceYinYangfil225new" d="M16543 17208c-73,675 -449,1409 -941,2000 -570,684 -1305,1183 -1920,1183 -615,0 -1350,-499 -1920,-1183 -492,-591 -868,-1325 -941,-2000l352 0c73,593 413,1245 856,1777 509,611 1145,1056 1653,1056 508,0 1144,-445 1653,-1056 442,-532 782,-1184 856,-1777l352 0z" style="fill:#512484"/>
  <path class="NecklaceYinYangfil46new" d="M11135 16868c-273,1109 1292,3303 2547,3303 1255,0 2820,-2194 2547,-3303l-25 4c1,34 2,68 2,103 0,650 -370,1407 -871,2010 -509,611 -1145,1056 -1653,1056 -508,0 -1144,-445 -1653,-1056 -501,-603 -871,-1360 -871,-2010 0,-35 1,-69 2,-103l-25 -4z" style="fill:#80c2e7"/>
  <path class="NecklaceYinYangfil47new NecklaceYinYangstr4new" d="M16543 17208c-73,675 -449,1409 -941,2000 -570,684 -1305,1183 -1920,1183 -615,0 -1350,-499 -1920,-1183 -492,-591 -868,-1325 -941,-2000l352 0c73,593 413,1245 856,1777 509,611 1145,1056 1653,1056 508,0 1144,-445 1653,-1056 442,-532 782,-1184 856,-1777l352 0z" style="fill:#ad5b06"/>
  <path class="NecklaceYinYangfil226new NecklaceYinYangstr3new" d="M11302 18631c-392,0 -362,-385 -163,-550 197,-163 493,-157 449,148 -114,-87 -503,248 -286,402z" style="fill:#825346"/>
  <path class="NecklaceYinYangfil227new NecklaceYinYangstr3new" d="M12385 19918c-393,11 -359,-370 -179,-545 182,-179 487,-172 453,134 -117,-83 -496,263 -274,411z" style="fill:#ceea93"/>
  <path class="NecklaceYinYangfil228new NecklaceYinYangstr3new" d="M16062 18631c392,0 345,-403 163,-550 -200,-160 -493,-157 -449,148 114,-87 503,248 286,402z" style="fill:#0d2cc8"/>
  <path class="NecklaceYinYangfil229new NecklaceYinYangstr3new" d="M14979 19918c393,11 384,-357 179,-545 -202,-187 -487,-172 -453,134 117,-83 496,263 274,411z" style="fill:#18eb7e"/>
  <g>
   <circle class="NecklaceYinYangfil84new" r="1577" transform="matrix(-0.552338 -0.290723 0.290723 -0.552338 13681.9 21396.4)"/>
   <g>
    <path class="NecklaceYinYangfil84new" d="M14075 20650c412,217 570,727 353,1139 -215,409 -719,568 -1129,359l0 0c-3,-2 -7,-4 -10,-5l0 0c-206,-109 -285,-364 -177,-570 109,-206 364,-285 570,-177l0 0c206,109 461,30 570,-176 108,-207 29,-462 -177,-570z" style="fill:#0f3ad9"/>
    <path class="NecklaceYinYangfil83new" d="M13289 22143c-412,-217 -570,-727 -353,-1139 215,-409 718,-568 1129,-359l0 0c3,2 7,3 10,5l0 0c206,108 285,363 177,570 -109,206 -364,285 -570,176l0 0c-206,-108 -461,-29 -570,177 -108,206 -29,461 177,570z" style="fill:#07dcce"/>
    <path class="NecklaceYinYangfil84new" d="M13943 20901c67,35 93,119 58,187 -36,67 -119,93 -187,58 -68,-36 -94,-120 -58,-187 36,-68 119,-94 187,-58z" style="fill:#f86c59"/>
    <path class="NecklaceYinYangfil83new" d="M13421 21892c-68,-36 -94,-119 -58,-187 36,-67 119,-93 187,-58 68,36 93,119 58,187 -36,68 -119,94 -187,58z" style="fill:#92306b"/>
   </g>
  </g>
  <path class="NecklaceYinYangfil230new NecklaceYinYangstr4new" d="M13599 19944l166 0c25,0 47,21 46,46l-24 447c-1,26 -20,46 -46,46l-119 0c-25,0 -44,-20 -46,-46l-23 -447c-1,-26 21,-46 46,-46z" style="fill:#9d2b36"/>
 </g><g id="BraceletBoxer-Medium">
  <animateTransform additive="sum" attributeName="transform" dur="10" repeatCount="indefinite" type="translate" values="0;0 200;0;0 200;0;0 200;0;0 200;0"/>
  <metadata id="CorelCorpID_0Corel-Layer"/>
  <g id="_1890968492880">
   <path class="BraceletBoxer-Mediumfil0 BraceletBoxer-Mediumstr0" d="M18174 18907c-578,-193 -1924,1008 -1565,1711 84,165 212,311 371,404 126,459 117,1635 1091,1071 93,269 274,526 577,535 761,22 1775,-844 1611,-1674 -104,-523 -758,-1373 -1425,-1457 -96,-242 -357,-488 -660,-590z" style="fill:#cef34c"/>
   <path class="BraceletBoxer-Mediumfil1" d="M17980 21538c120,1030 629,1089 668,1090 761,22 1817,-905 1514,-1728 -113,757 -1495,1384 -2182,638z" style="fill:#21dd4d"/>
   <path class="BraceletBoxer-Mediumfil2 BraceletBoxer-Mediumstr1" d="M18179 18887c-578,-194 -1929,1028 -1570,1731 84,165 244,327 403,420 11,-651 1211,-1653 1881,-1505 -96,-242 -411,-545 -714,-646z" style="fill:#01675d"/>
   <path class="BraceletBoxer-Mediumfil3" d="M18166 22114c-33,-123 -140,-483 -210,-668 4,191 71,620 -179,702 84,4 304,-39 389,-34z" style="fill:#76aafe"/>
   <path class="BraceletBoxer-Mediumfil4 BraceletBoxer-Mediumstr0" d="M18174 18907c-578,-193 -1924,1008 -1565,1711 84,165 212,311 371,404 126,459 117,1635 1091,1071 93,269 274,526 577,535 761,22 1775,-844 1611,-1674 -104,-523 -758,-1373 -1425,-1457 -96,-242 -357,-488 -660,-590z" style="fill:#1d2209"/>
   <path class="BraceletBoxer-Mediumfil1" d="M17961 21473c-474,629 -938,-482 -706,-964 -85,82 -260,383 -225,587 50,305 10,1498 1004,1006 -23,-210 -50,-420 -73,-629z" style="fill:#b13a5a"/>
   <path class="BraceletBoxer-Mediumfil4 BraceletBoxer-Mediumstr1" d="M18177 19672c80,-175 86,-270 27,-358 -114,-170 -300,-319 -457,-332" style="fill:#923e96"/>
   <path class="BraceletBoxer-Mediumfil5" d="M17352 20663c442,-882 1694,-1281 1842,-803 108,351 -1056,-27 -1842,803z" style="fill:#1c005c"/>
   <path class="BraceletBoxer-Mediumfil1" d="M16754 19792c-54,301 140,636 443,723 -79,162 -158,324 -237,486 -385,-213 -563,-621 -206,-1209z" style="fill:#bae33e"/>
   <path class="BraceletBoxer-Mediumfil6" d="M19364 20042c-26,-20 -52,-40 -78,-60 -25,-19 -51,-38 -77,-57 -12,4 -24,7 -37,10 26,19 52,38 77,56 25,19 51,39 77,58 -57,14 -112,29 -167,45 -72,-52 -145,-104 -218,-155 -72,-51 -144,-103 -216,-155 53,-20 107,-39 161,-57 25,18 50,37 75,55 25,18 50,37 75,55 12,-4 24,-7 37,-11 -26,-18 -51,-37 -76,-55 -25,-18 -50,-37 -75,-55 58,-18 116,-34 175,-49 74,55 149,111 223,167 77,58 153,117 229,178 -62,8 -124,17 -185,30zm-338 100c-87,36 -174,76 -258,120 -70,-49 -141,-97 -212,-147 -71,-49 -143,-100 -214,-151 48,-26 97,-51 146,-76 42,31 85,62 127,92 43,30 86,60 129,89 -20,-24 -40,-48 -59,-73 -20,-24 -40,-49 -59,-74 -28,-20 -56,-40 -84,-60 50,-22 100,-44 150,-65 22,16 43,31 64,47 22,15 43,30 65,45 34,42 69,85 103,127 34,42 69,83 102,126zm-613 348c-32,-22 -64,-44 -96,-66 -33,-22 -65,-44 -97,-67 0,-15 -1,-30 -2,-46 -21,0 -43,0 -64,0 -28,-19 -55,-38 -82,-57 -27,-20 -55,-39 -82,-58 46,-35 93,-68 140,-101 25,18 50,36 76,54 25,18 50,35 75,53 14,-9 27,-18 41,-27 -25,-18 -50,-35 -75,-53 -25,-18 -50,-36 -75,-54 46,-30 92,-58 140,-86 71,50 142,101 213,151 71,49 142,98 212,146 -110,66 -219,136 -324,211zm23 -236c-17,11 -34,22 -51,33 11,8 23,16 34,23 16,-11 33,-22 50,-33 -11,-8 -22,-15 -33,-23zm-510 187c5,4 10,7 15,10 26,9 53,17 79,25 26,9 53,17 79,26 -34,-24 -68,-48 -102,-71 42,-34 84,-67 126,-100 43,31 87,61 131,91 43,30 86,60 129,90 -71,54 -142,110 -212,168 -50,-16 -100,-31 -150,-47 -50,-15 -100,-30 -150,-44 -32,-22 -63,-43 -95,-64 -31,-21 -63,-42 -94,-63 90,-84 182,-165 275,-241 22,15 43,31 65,46 22,15 43,30 65,45 -54,42 -107,85 -161,129z" style="fill:#862dfd"/>
  </g>
  <g id="_1890968489072">
   <path class="BraceletBoxer-Mediumfil7" d="M9190 18907c578,-193 1924,1008 1565,1711 -84,165 -212,311 -372,404 -125,459 -116,1635 -1090,1071 -93,269 -274,526 -577,535 -761,22 -1775,-844 -1611,-1674 104,-523 758,-1373 1425,-1457 96,-242 357,-488 660,-590z" style="fill:#dcd1da"/>
   <path class="BraceletBoxer-Mediumfil5" d="M8716 19775c980,109 1789,1145 1391,1449 -291,223 -341,-1000 -1391,-1449z" style="fill:#38006a"/>
   <path class="BraceletBoxer-Mediumfil8 BraceletBoxer-Mediumstr1" d="M9185 18887c578,-194 1929,1028 1570,1731 -84,165 -244,327 -403,420 -11,-651 -1211,-1653 -1882,-1505 97,-242 412,-545 715,-646z" style="fill:#fedfc3"/>
   <path class="BraceletBoxer-Mediumfil6" d="M9336 20656c-95,-64 -191,-125 -289,-183 19,-15 38,-30 57,-45 19,-14 39,-28 58,-43 52,31 103,62 155,94 7,-5 14,-11 22,-16 -52,-32 -103,-63 -154,-94 19,-14 38,-28 58,-41 19,-14 39,-28 58,-42 51,30 101,61 151,93 23,-18 46,-35 68,-53 22,-18 43,-36 65,-55 42,28 83,56 125,84 -59,52 -121,103 -185,152 -64,50 -128,98 -189,149zm-396 -244c-90,-48 -181,-94 -274,-138 65,-49 133,-97 203,-144 71,-46 142,-92 211,-140 50,25 99,50 148,75 -39,29 -79,58 -120,86 -41,28 -83,56 -124,84 37,-14 74,-28 111,-42 37,-14 74,-28 111,-42 26,-19 52,-38 77,-57 49,27 97,54 145,81 -19,15 -38,30 -57,45 -19,15 -39,29 -58,43 -63,25 -126,50 -189,74 -62,24 -124,49 -184,75zm-195 -446c-14,9 -29,18 -43,27 64,27 128,55 191,84 -45,29 -91,59 -135,89 -43,29 -86,60 -127,91 -120,-52 -243,-100 -370,-145 20,-15 40,-30 60,-44 20,-14 42,-28 63,-42 65,24 130,49 195,74 11,-7 21,-14 33,-21 -64,-26 -128,-51 -194,-74 48,-30 96,-59 145,-88 48,-29 97,-58 145,-87 115,46 228,94 339,145 -18,12 -37,25 -55,38 -19,12 -38,24 -57,37 -63,-29 -126,-57 -190,-84zm-389 41c-23,15 -46,30 -68,45 -22,16 -44,31 -65,47 -83,-26 -167,-52 -254,-75 -89,-23 -180,-42 -272,-61 51,-10 103,-19 156,-29 52,-9 104,-18 157,-27 26,6 51,13 76,19 54,-32 110,-65 167,-96 56,-32 113,-63 170,-94 62,17 121,37 181,56 -54,32 -109,63 -164,95 -54,31 -107,63 -160,95 26,9 51,17 76,25z" style="fill:#8c4cc9"/>
   <path class="BraceletBoxer-Mediumfil3" d="M9198 22114c32,-123 139,-483 210,-668 -4,191 -71,620 179,702 -84,4 -304,-39 -389,-34z" style="fill:#f62c32"/>
   <path class="BraceletBoxer-Mediumfil4 BraceletBoxer-Mediumstr0" d="M9190 18907c578,-193 1924,1008 1565,1711 -84,165 -212,311 -372,404 -125,459 -116,1635 -1090,1071 -93,269 -274,526 -577,535 -761,22 -1775,-844 -1611,-1674 104,-523 758,-1373 1425,-1457 96,-242 357,-488 660,-590z" style="fill:#fb497e"/>
   <path class="BraceletBoxer-Mediumfil1" d="M9403 21473c-41,435 453,676 651,502 2,298 -473,337 -724,127 23,-210 50,-420 73,-629z" style="fill:#b0745f"/>
   <path class="BraceletBoxer-Mediumfil4 BraceletBoxer-Mediumstr1" d="M9187 19672c-80,-175 -86,-270 -27,-358 114,-170 300,-319 457,-332" style="fill:#9a460b"/>
   <path class="BraceletBoxer-Mediumfil1" d="M9564 18968c-367,-138 -760,114 -1064,534 207,-6 486,66 664,138 -90,-243 55,-443 400,-672z" style="fill:#6a5d6e"/>
   <path class="BraceletBoxer-Mediumfil1" d="M9299 22096c-162,490 -544,531 -583,532 -761,22 -1775,-844 -1611,-1674 65,-326 364,-912 777,-1095 -695,964 395,2723 1417,2237z" style="fill:#aadee9"/>
  </g>
 </g><g id="Head-Dog2">
 <animateTransform additive="sum" attributeName="transform" dur="10" repeatCount="indefinite" type="translate" values="0;0 200;0;0 200;0;0 200;0;0 200;0"/>
  <metadata id="CorelCorpID_174Corel-Layer"/>
  <path class="Head-Dog2fil332" d="M13682 7385c-3568,0 -6948,4165 -6021,7554 736,2692 3247,2816 6021,2816 2774,0 5285,-124 6021,-2816 927,-3389 -2453,-7554 -6021,-7554z" style="fill:#65e173"/>
  <path class="Head-Dog2fil333" d="M7661 14939c736,2692 3247,2826 6021,2826 2774,0 5285,-134 6021,-2826 31,-512 -119,-770 -417,-719 -249,43 -523,858 -1163,1062 -1127,359 -2641,-221 -3076,-914 -533,-847 -273,-2466 986,-3075 1093,-528 269,-1938 -1341,-2438 -1007,-312 70,3899 -457,4640 -157,221 -355,332 -553,332 -198,0 -396,-111 -553,-332 -528,-741 549,-4952 -457,-4640 -1610,500 -2435,1910 -1341,2438 1259,609 1519,2228 986,3075 -436,693 -1949,1273 -3077,914 -639,-204 -913,-1019 -1162,-1062 -298,-51 -449,207 -417,719z" style="fill:#d5e1ce"/>
  <path class="Head-Dog2fil14" d="M8141 11211c-590,1190 -813,2509 -480,3728 585,2138 2290,2657 4356,2779 -3483,-543 -4783,-2989 -3876,-6507z" style="fill:#38ca64"/>
  <path class="Head-Dog2fil32" d="M8228 11040c-264,535 -582,1851 -619,2193 -61,569 -26,1138 124,1686 291,1064 865,1718 1623,2119 512,271 1886,683 2839,689 -1054,122 -2558,-371 -2909,-557 -794,-420 -1394,-1102 -1697,-2212 -155,-567 -192,-1154 -129,-1740 23,-211 250,-1467 768,-2178z" style="fill:#96c7d4"/>
  <path class="Head-Dog2fil32" d="M19136 11040c264,535 582,1851 619,2193 61,569 26,1138 -124,1686 -291,1064 -865,1718 -1623,2119 -513,271 -1887,683 -2840,689 1055,122 2559,-371 2909,-557 795,-420 1394,-1102 1698,-2212 155,-567 192,-1154 128,-1740 -22,-211 -249,-1467 -767,-2178z" style="fill:#9ff909"/>
  <path class="Head-Dog2fil32" d="M13682 7459c552,0 1099,101 1626,285 302,105 959,411 1688,816 -411,-435 -1448,-891 -1639,-957 -543,-189 -1107,-294 -1675,-294 -568,0 -1132,105 -1675,294 -191,66 -1229,522 -1639,957 728,-405 1386,-711 1688,-816 527,-184 1074,-285 1626,-285z" style="fill:#59e8dc"/>
 </g><g id="Mouth-Dog0">
 <animateTransform additive="sum" attributeName="transform" dur="10" repeatCount="indefinite" type="translate" values="0;0 200;0;0 200;0;0 200;0;0 200;0"/>
  <metadata id="CorelCorpID_180Corel-Layer"/>
  <path class="Mouth-Dog0fil22 Mouth-Dog0str0" d="M12339 15237c50,401 340,551 588,511 295,-48 775,-420 755,-1216" style="fill:#b08a26"/>
  <path class="Mouth-Dog0fil22 Mouth-Dog0str0" d="M15026 15237c-50,401 -340,551 -588,511 -295,-48 -775,-420 -755,-1216" style="fill:#f7ddf2"/>
  <path class="Mouth-Dog0fil100" d="M13682 14485c-79,674 -150,965 -624,1303 274,-87 346,-223 624,-223 277,0 350,136 624,223 -475,-338 -545,-629 -624,-1303z" style="fill:#7f5835"/>
 </g><g id="Eyes-Dog10">
 <animateTransform additive="sum" attributeName="transform" dur="10" repeatCount="indefinite" type="translate" values="0;0 200;0;0 200;0;0 200;0;0 200;0"/>
  <metadata id="CorelCorpID_199Corel-Layer"/>
  <path class="Eyes-Dog10fil398" d="M9115 14430c869,646 2279,559 2905,-447 340,-547 233,-1243 -154,-1555 -725,-585 -2026,-1174 -2603,-776 -1035,715 -961,2175 -148,2778z"/>
  <path class="Eyes-Dog10fil399" d="M11871 12433c-415,-335 -1021,-674 -1572,-826 -279,26 -650,250 -815,428 -597,641 -543,1663 -3,2108 640,529 1501,382 1922,146 389,-217 791,-835 766,-1393 -58,-187 -160,-350 -298,-463z"/>
  <path class="Eyes-Dog10fil400" d="M10645 11723c-702,92 -1306,650 -1233,1448 72,797 801,1118 1573,1021 759,-95 1171,-918 1047,-1579 -283,-395 -1145,-794 -1387,-890z"/>
  <circle class="Eyes-Dog10fil152" r="235" transform="matrix(0.633314 0.587448 -0.488648 0.624529 9054.98 13801.1)"/>
  <circle class="Eyes-Dog10fil152" r="235" transform="matrix(0.220012 0.346704 -0.300224 0.227934 8854.62 13442.9)"/>
  <path class="Eyes-Dog10fil157" d="M11895 14159c44,-55 86,-114 125,-176 340,-547 233,-1243 -154,-1555 -725,-585 -2026,-1174 -2603,-776 -411,284 -647,685 -731,1103 472,-577 1492,-709 1983,-581 881,229 1639,1117 1380,1985z"/>
  <circle class="Eyes-Dog10fil152" r="235" transform="matrix(-0.0837922 2.18357 -2.0039 0.091352 10064.9 12560.8)"/>
  <path class="Eyes-Dog10fil22 Eyes-Dog10str4" d="M9115 14430c869,646 2279,559 2905,-447 340,-547 233,-1243 -154,-1555 -725,-585 -2026,-1174 -2603,-776 -1035,715 -961,2175 -148,2778z"/>
  <path class="Eyes-Dog10fil401" d="M18249 14430c-870,646 -2279,559 -2905,-447 -340,-547 -233,-1243 154,-1555 725,-585 2026,-1174 2603,-776 1035,715 961,2175 148,2778z"/>
  <path class="Eyes-Dog10fil402" d="M15493 12433c415,-335 1021,-674 1572,-826 279,26 650,250 815,428 597,641 543,1663 3,2108 -641,529 -1502,382 -1923,146 -389,-217 -791,-835 -765,-1393 58,-187 160,-350 298,-463z"/>
  <path class="Eyes-Dog10fil403" d="M16719 11723c702,92 1306,650 1233,1448 -73,797 -801,1118 -1574,1021 -758,-95 -1170,-918 -1046,-1579 283,-395 1144,-794 1387,-890z"/>
  <circle class="Eyes-Dog10fil152" r="235" transform="matrix(-0.633314 0.587448 0.488648 0.624529 18308.9 13801.1)"/>
  <circle class="Eyes-Dog10fil152" r="235" transform="matrix(-0.220012 0.346704 0.300224 0.227934 18509.2 13442.9)"/>
  <path class="Eyes-Dog10fil157" d="M15469 14159c-45,-55 -86,-114 -125,-176 -340,-547 -233,-1243 154,-1555 725,-585 2026,-1174 2603,-776 411,284 647,685 731,1103 -472,-577 -1492,-709 -1984,-581 -880,229 -1638,1117 -1379,1985z"/>
  <circle class="Eyes-Dog10fil152" r="235" transform="matrix(0.0837922 2.18357 2.0039 0.091352 17298.9 12560.8)"/>
  <path class="Eyes-Dog10fil22 Eyes-Dog10str4" d="M18249 14430c-870,646 -2279,559 -2905,-447 -340,-547 -233,-1243 154,-1555 725,-585 2026,-1174 2603,-776 1035,715 961,2175 148,2778z"/>
  <path class="Eyes-Dog10fil155" d="M11273 10797c54,132 308,168 711,539 370,342 384,569 579,568 217,-1 315,-527 219,-787 -79,-213 -169,-371 -641,-550 -559,-211 -934,71 -868,230z"/>
  <path class="Eyes-Dog10fil14" d="M11273 10797c54,132 308,168 711,539 370,342 384,569 579,568 217,-1 315,-527 219,-787 -79,-213 -169,-371 -641,-550 -559,-211 -934,71 -868,230z"/>
  <path class="Eyes-Dog10fil155" d="M16091 10797c-54,132 -308,168 -711,539 -371,342 -384,569 -579,568 -217,-1 -315,-527 -219,-787 79,-213 169,-371 641,-550 559,-211 933,71 868,230z"/>
  <path class="Eyes-Dog10fil14" d="M16091 10797c-54,132 -308,168 -711,539 -371,342 -384,569 -579,568 -217,-1 -315,-527 -219,-787 79,-213 169,-371 641,-550 559,-211 933,71 868,230z"/>
 </g><g id="Moustache-Dog0">
 <animateTransform additive="sum" attributeName="transform" dur="10" repeatCount="indefinite" type="translate" values="0;0 200;0;0 200;0;0 200;0;0 200;0"/>
  <metadata id="CorelCorpID_200Corel-Layer"/>
  <rect class="Moustache-Dog0fil22" height="487" width="487" x="13438" y="12949"/>
 </g><g id="Nose-Dog0">
 <animateTransform additive="sum" attributeName="transform" dur="10" repeatCount="indefinite" type="translate" values="0;0 200;0;0 200;0;0 200;0;0 200;0"/>
  <metadata id="CorelCorpID_208Corel-Layer"/>
  <path class="Nose-Dog0fil416 Nose-Dog0str0" d="M13682 14020c-283,0 -678,136 -648,338 28,185 288,481 648,481 360,0 620,-296 648,-481 30,-202 -365,-338 -648,-338z" style="fill:#b6d597"/>
 </g><g id="HatMerlin-Medium">
 <animateTransform additive="sum" attributeName="transform" dur="10" repeatCount="indefinite" type="translate" values="0;0 200;0;0 200;0;0 200;0;0 200;0"/>
  <metadata id="CorelCorpID_62Corel-Layer"/>
  <g>
   <path class="HatMerlin-Mediumfil62new" d="M7019 11840c3099,-692 4598,633 6739,607 2426,-29 3874,-1255 7177,-536 -3369,-1326 -11389,-1193 -13916,-71z" style="fill:#7c27b1"/>
   <path class="HatMerlin-Mediumfil594new HatMerlin-Mediumstr0new" d="M8067 11575c143,-1583 638,-3839 1358,-5458 892,-2003 5561,-3576 7382,-2641 1646,845 3688,3632 3858,5127 76,664 -172,1074 -2075,647 259,583 708,1635 781,2191 -1256,-263 -2425,-544 -5926,-442 -2901,85 -4193,362 -5378,576z" style="fill:#02d33b"/>
   <path class="HatMerlin-Mediumfil595new" d="M17539 4049c350,278 703,616 1039,988l105 185 -639 -184 -437 393 -91 -610 -592 -323 584 -193 31 -256z" style="fill:#bcb2bd"/>
   <path class="HatMerlin-Mediumfil596new" d="M13785 3469c316,-73 629,-127 932,-161l25 88 607 112 -611 125 -89 276 -457 -197 -662 60 329 -247 -74 -56z" style="fill:#67f40f"/>
   <polygon class="HatMerlin-Mediumfil597new" points="12821,7615 13251,8172 13917,8099 13560,8689 13850,9337 13198,9144 12711,9618 12666,8909 12076,8554 12699,8308 "/>
   <polygon class="HatMerlin-Mediumfil598new" points="18075,9654 17374,9670 17048,10252 16776,9612 16083,9459 16616,9048 16514,8372 17115,8758 17745,8493 17583,9143 "/>
   <polygon class="HatMerlin-Mediumfil599new" points="15423,5303 15392,6002 15931,6459 15295,6580 15101,7233 14740,6609 14081,6555 14493,6048 14280,5363 14896,5673 "/>
   <polygon class="HatMerlin-Mediumfil600new" points="19514,6828 19593,7461 20200,7717 19589,8005 19500,8643 19043,8188 18381,8325 18710,7756 18390,7204 19050,7307 "/>
   <path class="HatMerlin-Mediumfil601new HatMerlin-Mediumstr0new" d="M8027 10648c15,-266 -86,-574 258,-927 461,-471 3136,-1019 4789,-1079 1654,-59 4805,164 5874,1186 308,295 191,528 225,805 31,259 237,263 353,805 -828,-325 -2402,-698 -5904,-624 -2756,58 -4785,323 -5819,530 -199,40 204,-346 224,-696z" style="fill:#79d897"/>
   <path class="HatMerlin-Mediumfil14new" d="M19777 6504c485,768 823,1528 888,2099 76,664 -172,1074 -2075,647 57,85 189,270 183,413 -1277,-735 -2882,-947 -3264,-914 1449,-849 1296,-1699 466,-2682 -197,-232 -367,-312 -630,-467 -465,-275 -162,-1264 477,-553 226,251 309,502 344,782 235,-509 -97,-872 276,-1049 277,-131 456,249 420,553 -38,314 -297,668 -457,749 1813,1923 3880,2375 3372,422z" style="fill:#134caf"/>
   <path class="HatMerlin-Mediumfil223new" d="M18674 9266c17,36 2,79 -33,96 -36,18 -79,3 -96,-33 -307,-632 -686,-1210 -1124,-1740 -149,-181 -932,-1103 -1484,-1559 456,259 1454,1297 1595,1468 445,539 831,1126 1142,1768z" style="fill:#507170"/>
   <path class="HatMerlin-Mediumfil14new" d="M15006 8750c1499,-46 3341,487 3960,1083 335,323 -18,752 456,1181 -1415,-280 -5445,-911 -9959,-228 1966,-847 5942,-489 6504,-1001 353,-322 296,-939 -961,-1035z" style="fill:#03fa07"/>
   <path class="HatMerlin-Mediumfil602new HatMerlin-Mediumstr0new" d="M3515 13711c-351,-1259 2152,-2199 3856,-2547 4452,-909 8460,-958 13005,54 1424,317 4147,1459 3506,2708 186,-949 -1820,-1619 -3098,-1920 -4345,-1024 -9258,-998 -13621,-100 -1483,306 -3596,942 -3648,1805z" style="fill:#58ce79"/>
   <polygon class="HatMerlin-Mediumfil603new" points="9867,6846 10117,7473 10702,7438 10272,8049 10383,8766 9867,8516 9350,8995 9461,8229 9031,7808 9616,7584 "/>
   <path class="HatMerlin-Mediumfil604new" d="M11669 4486c29,68 59,136 89,204 30,68 60,135 90,203 107,11 215,24 324,38 109,15 218,32 328,49 -96,42 -193,85 -288,130 -94,47 -188,96 -281,146 2,74 4,148 7,221 2,75 5,149 8,223 -87,-34 -174,-68 -260,-101 -86,-33 -172,-64 -257,-95 -102,46 -204,93 -304,143 -100,50 -199,104 -298,158 36,-83 71,-166 107,-249 35,-82 72,-164 108,-246 -66,-45 -131,-89 -196,-133 -64,-44 -128,-86 -193,-128 105,-29 210,-57 316,-80 107,-24 215,-43 323,-61 62,-73 123,-146 186,-216 63,-70 127,-139 191,-206z" style="fill:#a74321"/>
  </g>
 </g></svg>