<svg xmlns="http://www.w3.org/2000/svg" xmlns:xlink="http://www.w3.org/1999/xlink" style="shape-rendering:geometricPrecision; text-rendering:geometricPrecision; image-rendering:optimizeQuality; fill-rule:evenodd; clip-rule:evenodd" version="1.1" viewBox="0 0 29000 29000" xml:space="preserve"><defs><style type="text/css">.HairBack-Dog0fil22 {fill:none}
.Tail-Dog1fil233 {fill:url(#Tail-Dog1id902)}
.Tail-Dog1fil26 {fill:#f8f3f3}
.Tail-Dog1fil14 {fill:black;fill-opacity:0.200000}
.Tail-Dog1fil22 {fill:none}
.Tail-Dog1str0 {stroke:black;stroke-width:150;stroke-linecap:round;stroke-linejoin:round}
.RightFoot-Dog3fil242 {fill:url(#RightFoot-Dog3id627)}
.RightFoot-Dog3fil14 {fill:black;fill-opacity:0.200000}
.RightFoot-Dog3fil22 {fill:none}
.RightFoot-Dog3fil32 {fill:black;fill-rule:nonzero}
.RightLeg-Dog0fil243 {fill:url(#RightLeg-Dog0id281)}
.RightLeg-Dog0fil32 {fill:black;fill-rule:nonzero}
.RightLeg-Dog0fil14 {fill:black;fill-opacity:0.200000}
.LeftFoot-Dog3fil248 {fill:url(#LeftFoot-Dog3id636)}
.LeftFoot-Dog3fil14 {fill:black;fill-opacity:0.200000}
.LeftFoot-Dog3fil22 {fill:none}
.LeftFoot-Dog3fil32 {fill:black;fill-rule:nonzero}
.LeftLeg-Dog0fil249 {fill:url(#LeftLeg-Dog0id285)}
.LeftLeg-Dog0fil32 {fill:black;fill-rule:nonzero}
.LeftLeg-Dog0fil14 {fill:black;fill-opacity:0.200000}
.RightHand-Dog0fil253 {fill:url(#RightHand-Dog0id397)}
.RightHand-Dog0fil14 {fill:black;fill-opacity:0.200000}
.RightHand-Dog0fil22 {fill:none}
.RightHand-Dog0str0 {stroke:black;stroke-width:150;stroke-linecap:round;stroke-linejoin:round}
.RightPaw-Dog1fil26 {fill:#f8f3f3}
.RightPaw-Dog1fil14 {fill:black;fill-opacity:0.200000}
.RightPaw-Dog1fil32 {fill:black;fill-rule:nonzero}
.LeftHand-Dog0fil261 {fill:url(#LeftHand-Dog0id524)}
.LeftHand-Dog0fil14 {fill:black;fill-opacity:0.200000}
.LeftHand-Dog0fil22 {fill:none}
.LeftHand-Dog0str0 {stroke:black;stroke-width:150;stroke-linecap:round;stroke-linejoin:round}
.LeftPaw-Dog1fil26 {fill:#f8f3f3}
.LeftPaw-Dog1fil14 {fill:black;fill-opacity:0.200000}
.LeftPaw-Dog1fil32 {fill:black;fill-rule:nonzero}
.Body-Dog4fil267 {fill:url(#Body-Dog4id28)}
.Body-Dog4fil271 {fill:url(#Body-Dog4id666)}
.Body-Dog4fil14 {fill:black;fill-opacity:0.200000}
.Body-Dog4fil32 {fill:black;fill-rule:nonzero}
.Head-Dog7fil330 {fill:url(#Head-Dog7id327)}
.Head-Dog7fil341 {fill:url(#Head-Dog7id403)}
.Head-Dog7fil14 {fill:black;fill-opacity:0.200000}
.Head-Dog7fil32 {fill:black;fill-rule:nonzero}
.Head-Dog7fil342 {fill:url(#Head-Dog7id377)}
.Mouth-Dog3fil100 {fill:black}
.Mouth-Dog3fil22 {fill:none}
.Mouth-Dog3str0 {stroke:black;stroke-width:150;stroke-linecap:round;stroke-linejoin:round}
.Mouth-Dog3fil151 {fill:#FF9999}
.Mouth-Dog3fil152 {fill:white}
.Eyes-Dog5fil368 {fill:url(#Eyes-Dog5id916)}
.Eyes-Dog5fil369 {fill:url(#Eyes-Dog5id631)}
.Eyes-Dog5fil370 {fill:url(#Eyes-Dog5id1078)}
.Eyes-Dog5fil152 {fill:white}
.Eyes-Dog5fil157 {fill:black;fill-opacity:0.501961}
.Eyes-Dog5fil371 {fill:url(#Eyes-Dog5id915)}
.Eyes-Dog5fil372 {fill:url(#Eyes-Dog5id622)}
.Eyes-Dog5fil373 {fill:url(#Eyes-Dog5id1076)}
.Eyes-Dog5fil155 {fill:#2f3639}
.Eyes-Dog5fil14 {fill:black;fill-opacity:0.200000}
.Eyes-Dog5fil22 {fill:none}
.Eyes-Dog5str4 {stroke:black;stroke-width:150}
.Moustache-Dog1fil100 {fill:black}
.Nose-Dog0fil416 {fill:url(#Nose-Dog0id907)}
.Nose-Dog0str0 {stroke:black;stroke-width:150;stroke-linecap:round;stroke-linejoin:round}
.BraceletSteel-Mediumfil57new {fill:url(#BraceletSteel-Mediumid666new);fill-rule:nonzero}
.BraceletSteel-Mediumstr4new {stroke:black;stroke-width:100}
.BraceletSteel-Mediumfil58new {fill:url(#BraceletSteel-Mediumid686new);fill-rule:nonzero}
.HatG-Mediumfil14new {fill:black;fill-opacity:0.200000}
.HatG-Mediumfil635new {fill:url(#HatG-Mediumid47new)}
.HatG-Mediumfil636new {fill:url(#HatG-Mediumid218new)}
.HatG-Mediumfil637new {fill:url(#HatG-Mediumid49new)}
.HatG-Mediumfil638new {fill:url(#HatG-Mediumid170new)}
.HatG-Mediumfil640new {fill:url(#HatG-Mediumid3new)}
.HatG-Mediumfil641new {fill:url(#HatG-Mediumid56new)}
.HatG-Mediumfil33new {fill:none}
.HatG-Mediumstr0new {stroke:black;stroke-width:150;stroke-linecap:round;stroke-linejoin:round}
.HatG-Mediumfil639new {fill:none}
.HatG-Mediumstr19new {stroke:black;stroke-width:100;stroke-opacity:0.101961}
.HatG-Mediumstr20new {stroke:black;stroke-width:75;stroke-linecap:round;stroke-linejoin:round;stroke-dasharray:150.000000 225.000000;stroke-opacity:0.101961}
.HatG-Mediumstr6new {stroke:black;stroke-width:150}
.NecklaceMilitaryVestBack-Mediumfil35 {fill:url(#NecklaceMilitaryVestBack-Mediumid36)}
.NecklaceMilitaryVestBack-Mediumstr0 {stroke:black;stroke-width:150;stroke-linecap:round;stroke-linejoin:round}
.NecklaceMilitaryVestBack-Mediumfil36 {fill:url(#NecklaceMilitaryVestBack-Mediumid8)}
.NecklaceMilitaryVest-Mediumfil37 {fill:url(#NecklaceMilitaryVest-Mediumid13)}
.NecklaceMilitaryVest-Mediumfil27 {fill:white;fill-opacity:0.501961}
.NecklaceMilitaryVest-Mediumfil9 {fill:black;fill-opacity:0.200000}
.NecklaceMilitaryVest-Mediumfil7 {fill:black;fill-opacity:0.400000}
.NecklaceMilitaryVest-Mediumfil40 {fill:url(#NecklaceMilitaryVest-Mediumid4)}
.NecklaceMilitaryVest-Mediumfil31 {fill:black;fill-opacity:0.501961}
.NecklaceMilitaryVest-Mediumfil42 {fill:url(#NecklaceMilitaryVest-Mediumid3)}
.NecklaceMilitaryVest-Mediumfil34 {fill:black}
.NecklaceMilitaryVest-Mediumfil38 {fill:url(#NecklaceMilitaryVest-Mediumid29)}
.NecklaceMilitaryVest-Mediumstr0 {stroke:black;stroke-width:150;stroke-linecap:round;stroke-linejoin:round}
.NecklaceMilitaryVest-Mediumfil39 {fill:url(#NecklaceMilitaryVest-Mediumid2)}
.NecklaceMilitaryVest-Mediumfil5 {fill:none}
.NecklaceMilitaryVest-Mediumfil41 {fill:url(#NecklaceMilitaryVest-Mediumid14)}
.NecklaceMilitaryVest-Mediumstr2 {stroke:black;stroke-width:150}
.AccessoryFlaskWithWaterfil79 {fill:url(#AccessoryFlaskWithWaterid23)}
.AccessoryFlaskWithWaterfil1 {fill:black;fill-opacity:0.200000}
.AccessoryFlaskWithWaterfil80 {fill:url(#AccessoryFlaskWithWaterid4)}
.AccessoryFlaskWithWaterfil48 {fill:white;fill-opacity:0.501961}
.AccessoryFlaskWithWaterfil82 {fill:url(#AccessoryFlaskWithWaterid30)}
.AccessoryFlaskWithWaterfil15 {fill:black}
.AccessoryFlaskWithWaterfil78 {fill:url(#AccessoryFlaskWithWaterid25)}
.AccessoryFlaskWithWaterstr1 {stroke:black;stroke-width:150}
.AccessoryFlaskWithWaterfil2 {fill:none}
.AccessoryFlaskWithWaterstr4 {stroke:black;stroke-width:150}
.AccessoryFlaskWithWaterstr3 {stroke:black;stroke-width:150;stroke-linecap:round;stroke-linejoin:round}
.AccessoryFlaskWithWaterfil81 {fill:url(#AccessoryFlaskWithWaterid81)}
.AccessoryFlaskWithWaterstr0 {stroke:black;stroke-width:150;stroke-linecap:round;stroke-linejoin:round}
.AccessoryFlaskWithWaterfil83 {fill:url(#AccessoryFlaskWithWaterid79)}
.AccessoryFlaskWithWaterfil84 {fill:url(#AccessoryFlaskWithWaterid16)}
.AccessoryFlaskWithWaterfil85 {fill:url(#AccessoryFlaskWithWaterid13)}
</style><linearGradient gradientUnits="userSpaceOnUse" id="Tail-Dog1id902" x1="14705.4" x2="18334" xlink:href="#Tail-Dog1id74" y1="22521" y2="17924.8">
  </linearGradient><linearGradient gradientUnits="userSpaceOnUse" id="RightFoot-Dog3id627" x1="16691.1" x2="16037.9" y1="25524" y2="23422.2">
   <stop offset="0" style="stop-opacity:1; stop-color:#575c5e"/>
   <stop offset="0.329412" style="stop-opacity:1; stop-color:#5e594b"/>
   <stop offset="0.619608" style="stop-opacity:1; stop-color:#847e70"/>
   <stop offset="1" style="stop-opacity:1; stop-color:#847e70"/>
  </linearGradient><linearGradient gradientUnits="userSpaceOnUse" id="RightLeg-Dog0id281" x1="15476.3" x2="15476.3" xlink:href="#RightLeg-Dog0id19" y1="24199" y2="20934.6">
  </linearGradient><linearGradient gradientUnits="userSpaceOnUse" id="LeftFoot-Dog3id636" x1="10586.2" x2="11300.1" xlink:href="#LeftFoot-Dog3id627" y1="25486.1" y2="23460.1">
  </linearGradient><linearGradient gradientUnits="objectBoundingBox" id="LeftLeg-Dog0id285" x1="50%" x2="50%" xlink:href="#LeftLeg-Dog0id19" y1="100%" y2="0%">
  </linearGradient><linearGradient gradientUnits="userSpaceOnUse" id="RightHand-Dog0id397" x1="16199" x2="17963.5" xlink:href="#RightHand-Dog0id168" y1="17957.2" y2="20505.4">
  </linearGradient><linearGradient gradientUnits="userSpaceOnUse" id="LeftHand-Dog0id524" x1="11164.9" x2="9400.35" xlink:href="#LeftHand-Dog0id168" y1="17957.2" y2="20505.4">
  </linearGradient><linearGradient gradientUnits="objectBoundingBox" id="Body-Dog4id28" x1="50%" x2="50%" y1="0%" y2="100%">
   <stop offset="0" style="stop-opacity:1; stop-color:#5e594b"/>
   <stop offset="0.101961" style="stop-opacity:1; stop-color:#5e594b"/>
   <stop offset="0.521569" style="stop-opacity:1; stop-color:#847e70"/>
   <stop offset="1" style="stop-opacity:1; stop-color:#9e9e9e"/>
  </linearGradient><linearGradient gradientUnits="userSpaceOnUse" id="Body-Dog4id666" x1="13681.9" x2="13681.9" y1="18190.7" y2="21597.6">
   <stop offset="0" style="stop-opacity:1; stop-color:#ebdada"/>
   <stop offset="0.419608" style="stop-opacity:1; stop-color:#f8f3f3"/>
   <stop offset="1" style="stop-opacity:1; stop-color:#f8f3f3"/>
  </linearGradient><linearGradient gradientUnits="objectBoundingBox" id="Head-Dog7id327" x1="50%" x2="50%" xlink:href="#Head-Dog7id35" y1="99.9999%" y2="0%">
  </linearGradient><linearGradient gradientUnits="userSpaceOnUse" id="Head-Dog7id403" x1="14977.5" x2="19153.5" xlink:href="#Head-Dog7id18" y1="10345.9" y2="14381.5">
  </linearGradient><linearGradient gradientUnits="userSpaceOnUse" id="Head-Dog7id377" x1="11727.3" x2="11727.3" xlink:href="#Head-Dog7id132" y1="16891.4" y2="10356.4">
  </linearGradient><linearGradient gradientUnits="userSpaceOnUse" id="Eyes-Dog5id916" x1="10862.9" x2="10060.5" xlink:href="#Eyes-Dog5id27" y1="14930.3" y2="11447.3">
  </linearGradient><linearGradient gradientUnits="userSpaceOnUse" id="Eyes-Dog5id631" x1="8950.06" x2="12138.2" xlink:href="#Eyes-Dog5id57" y1="13083.2" y2="13083.2">
  </linearGradient><radialGradient cx="10734.8" cy="12890.7" fx="10734.8" fy="12890.7" gradientTransform="matrix(0.251286 1.15858 -1.06367 0.273709 21749 -3075)" gradientUnits="userSpaceOnUse" id="Eyes-Dog5id1078" r="1231.67" xlink:href="#Eyes-Dog5id1055">
  </radialGradient><linearGradient gradientUnits="userSpaceOnUse" id="Eyes-Dog5id915" x1="16500.9" x2="17303.4" xlink:href="#Eyes-Dog5id27" y1="14930.3" y2="11447.3">
  </linearGradient><linearGradient gradientUnits="userSpaceOnUse" id="Eyes-Dog5id622" x1="18413.8" x2="15225.6" xlink:href="#Eyes-Dog5id57" y1="13083.2" y2="13083.2">
  </linearGradient><radialGradient cx="16629.1" cy="12890.7" fx="16629.1" fy="12890.7" gradientTransform="matrix(-0.251286 1.15858 1.06367 0.273709 7096 -9904)" gradientUnits="userSpaceOnUse" id="Eyes-Dog5id1076" r="1231.67" xlink:href="#Eyes-Dog5id1055">
  </radialGradient><linearGradient gradientUnits="userSpaceOnUse" id="Nose-Dog0id907" x1="13681.9" x2="13681.9" xlink:href="#Nose-Dog0id451" y1="14020.2" y2="14838.5">
  </linearGradient><linearGradient gradientUnits="userSpaceOnUse" id="BraceletSteel-Mediumid666new" x1="8808.47" x2="10149.2" xlink:href="#BraceletSteel-Mediumid663new" y1="19708.3" y2="20807.9">
  </linearGradient><linearGradient gradientUnits="userSpaceOnUse" id="BraceletSteel-Mediumid686new" x1="18555.4" x2="17214.7" xlink:href="#BraceletSteel-Mediumid663new" y1="19708.3" y2="20807.9">
  </linearGradient><linearGradient gradientUnits="userSpaceOnUse" id="HatG-Mediumid47new" x1="8773.38" x2="12925.9" y1="10563.5" y2="5372.75">
   <stop offset="0" style="stop-opacity:1; stop-color:#CCCCD0"/>
   <stop offset="1" style="stop-opacity:1; stop-color:#F2F2F6"/>
  </linearGradient><linearGradient gradientUnits="userSpaceOnUse" id="HatG-Mediumid218new" x1="7703.58" x2="9238.2" xlink:href="#HatG-Mediumid170new" y1="10639.8" y2="6826.5">
  </linearGradient><linearGradient gradientUnits="userSpaceOnUse" id="HatG-Mediumid49new" x1="14578.6" x2="18656.5" y1="10035.4" y2="5357.8">
   <stop offset="0" style="stop-opacity:1; stop-color:#DBDBE0"/>
   <stop offset="0.74902" style="stop-opacity:1; stop-color:white"/>
   <stop offset="1" style="stop-opacity:1; stop-color:white"/>
  </linearGradient><linearGradient gradientUnits="userSpaceOnUse" id="HatG-Mediumid3new" x1="13755" x2="13755" y1="9815.97" y2="13088.5">
   <stop offset="0" style="stop-opacity:1; stop-color:#15153B"/>
   <stop offset="1" style="stop-opacity:1; stop-color:#080814"/>
  </linearGradient><linearGradient gradientUnits="userSpaceOnUse" id="HatG-Mediumid56new" x1="20387.5" x2="7122.61" y1="10226.4" y2="11933.8">
   <stop offset="0" style="stop-opacity:1; stop-color:#6666CC"/>
   <stop offset="1" style="stop-opacity:1; stop-color:#3D3B78"/>
  </linearGradient><linearGradient gradientUnits="userSpaceOnUse" id="NecklaceMilitaryVestBack-Mediumid36" x1="11031" x2="10921.7" xlink:href="#NecklaceMilitaryVestBack-Mediumid8" y1="17736.9" y2="21506.7">
  </linearGradient><linearGradient gradientUnits="userSpaceOnUse" id="NecklaceMilitaryVest-Mediumid13" x1="13681.9" x2="13681.9" xlink:href="#NecklaceMilitaryVest-Mediumid2" y1="22760.3" y2="17350.8">
  </linearGradient><linearGradient gradientUnits="userSpaceOnUse" id="NecklaceMilitaryVest-Mediumid4" x1="16100" x2="16034.2" xlink:href="#NecklaceMilitaryVest-Mediumid2" y1="17342.6" y2="19614.9">
  </linearGradient><linearGradient gradientUnits="userSpaceOnUse" id="NecklaceMilitaryVest-Mediumid3" x1="17135.4" x2="11793" y1="21757.3" y2="21853.7">
   <stop offset="0" style="stop-opacity:1; stop-color:#A7855C"/>
   <stop offset="0.14902" style="stop-opacity:1; stop-color:#5F4733"/>
   <stop offset="0.521569" style="stop-opacity:1; stop-color:#A4815B"/>
   <stop offset="1" style="stop-opacity:1; stop-color:#D9B57B"/>
  </linearGradient><linearGradient gradientUnits="userSpaceOnUse" id="NecklaceMilitaryVest-Mediumid29" x1="13681.9" x2="13681.9" xlink:href="#NecklaceMilitaryVest-Mediumid2" y1="22760.3" y2="20910.8">
  </linearGradient><linearGradient gradientUnits="userSpaceOnUse" id="NecklaceMilitaryVest-Mediumid14" x1="13841" x2="15010.2" y1="20437.7" y2="19780.9">
   <stop offset="0" style="stop-opacity:1; stop-color:#574F4A"/>
   <stop offset="1" style="stop-opacity:1; stop-color:#F3F1D1"/>
  </linearGradient><linearGradient gradientUnits="userSpaceOnUse" id="AccessoryFlaskWithWaterid23" x1="3205.91" x2="6561.17" y1="23126.1" y2="23126.1">
   <stop offset="0" style="stop-opacity:1; stop-color:#865126"/>
   <stop offset="0.14902" style="stop-opacity:1; stop-color:#734F25"/>
   <stop offset="0.411765" style="stop-opacity:1; stop-color:#4F341B"/>
   <stop offset="0.760784" style="stop-opacity:1; stop-color:#BA833C"/>
   <stop offset="1" style="stop-opacity:1; stop-color:#855819"/>
  </linearGradient><linearGradient gradientUnits="userSpaceOnUse" id="AccessoryFlaskWithWaterid4" x1="4230.39" x2="5536.69" y1="20350.8" y2="20350.8">
   <stop offset="0" style="stop-opacity:1; stop-color:#424D4A"/>
   <stop offset="0.258824" style="stop-opacity:1; stop-color:#707A78"/>
   <stop offset="0.45098" style="stop-opacity:1; stop-color:#4C5654"/>
   <stop offset="0.690196" style="stop-opacity:1; stop-color:#DFE9EB"/>
   <stop offset="1" style="stop-opacity:1; stop-color:#A4ADAB"/>
  </linearGradient><linearGradient gradientUnits="userSpaceOnUse" id="AccessoryFlaskWithWaterid30" x1="4716.11" x2="5050.97" y1="23904.1" y2="23034.9">
   <stop offset="0" style="stop-opacity:1; stop-color:#4D4B42"/>
   <stop offset="0.168627" style="stop-opacity:1; stop-color:#707A78"/>
   <stop offset="0.341176" style="stop-opacity:1; stop-color:#4C5654"/>
   <stop offset="0.568627" style="stop-opacity:1; stop-color:#DFE9EB"/>
   <stop offset="1" style="stop-opacity:1; stop-color:#838577"/>
  </linearGradient><linearGradient gradientUnits="userSpaceOnUse" id="AccessoryFlaskWithWaterid25" x1="5672.23" x2="4247.15" y1="27034.1" y2="21734.6">
   <stop offset="0" style="stop-opacity:1; stop-color:#8A7A6E"/>
   <stop offset="0.258824" style="stop-opacity:1; stop-color:#413836"/>
   <stop offset="0.65098" style="stop-opacity:1; stop-color:#3B3332"/>
   <stop offset="1" style="stop-opacity:1; stop-color:#AB9780"/>
  </linearGradient><linearGradient gradientUnits="userSpaceOnUse" id="AccessoryFlaskWithWaterid81" x1="4549.26" x2="4088.46" y1="23238.9" y2="21722.7">
   <stop offset="0" style="stop-opacity:1; stop-color:#12131C"/>
   <stop offset="0.368627" style="stop-opacity:1; stop-color:#3B3332"/>
   <stop offset="1" style="stop-opacity:1; stop-color:#AB9780"/>
  </linearGradient><linearGradient gradientUnits="userSpaceOnUse" id="AccessoryFlaskWithWaterid79" x1="4867.21" x2="5918.47" xlink:href="#AccessoryFlaskWithWaterid16" y1="23175.3" y2="21958.8">
  </linearGradient><linearGradient gradientUnits="userSpaceOnUse" id="AccessoryFlaskWithWaterid13" x1="4125.86" x2="5646.78" xlink:href="#AccessoryFlaskWithWaterid4" y1="21404.4" y2="21404.4">
  </linearGradient><linearGradient gradientUnits="userSpaceOnUse" id="Tail-Dog1id74" x1="15961" x2="18418.2" y1="23174.1" y2="17871.9">
   <stop offset="0" style="stop-opacity:1; stop-color:#5e594b"/>
   <stop offset="1" style="stop-opacity:1; stop-color:#847e70"/>
  </linearGradient><linearGradient gradientUnits="userSpaceOnUse" id="RightLeg-Dog0id19" x1="15490.3" x2="15490.3" y1="24284.1" y2="21188.2">
   <stop offset="0" style="stop-opacity:1; stop-color:#9e9e9e"/>
   <stop offset="0.439216" style="stop-opacity:1; stop-color:#9e9e9e"/>
   <stop offset="1" style="stop-opacity:1; stop-color:#847e70"/>
  </linearGradient><linearGradient gradientUnits="userSpaceOnUse" id="LeftFoot-Dog3id627" x1="16691.1" x2="16037.9" y1="25524" y2="23422.2">
   <stop offset="0" style="stop-opacity:1; stop-color:#575c5e"/>
   <stop offset="0.329412" style="stop-opacity:1; stop-color:#5e594b"/>
   <stop offset="0.619608" style="stop-opacity:1; stop-color:#847e70"/>
   <stop offset="1" style="stop-opacity:1; stop-color:#847e70"/>
  </linearGradient><linearGradient gradientUnits="userSpaceOnUse" id="LeftLeg-Dog0id19" x1="15490.3" x2="15490.3" y1="24284.1" y2="21188.2">
   <stop offset="0" style="stop-opacity:1; stop-color:#9e9e9e"/>
   <stop offset="0.439216" style="stop-opacity:1; stop-color:#9e9e9e"/>
   <stop offset="1" style="stop-opacity:1; stop-color:#847e70"/>
  </linearGradient><linearGradient gradientUnits="objectBoundingBox" id="RightHand-Dog0id168" x1="19.8228%" x2="80.1772%" y1="10.3299%" y2="89.6698%">
   <stop offset="0" style="stop-opacity:1; stop-color:#5e594b"/>
   <stop offset="0.0196078" style="stop-opacity:1; stop-color:#5e594b"/>
   <stop offset="0.721569" style="stop-opacity:1; stop-color:#847e70"/>
   <stop offset="1" style="stop-opacity:1; stop-color:#847e70"/>
  </linearGradient><linearGradient gradientUnits="objectBoundingBox" id="LeftHand-Dog0id168" x1="19.8228%" x2="80.1772%" y1="10.3299%" y2="89.6698%">
   <stop offset="0" style="stop-opacity:1; stop-color:#5e594b"/>
   <stop offset="0.0196078" style="stop-opacity:1; stop-color:#5e594b"/>
   <stop offset="0.721569" style="stop-opacity:1; stop-color:#847e70"/>
   <stop offset="1" style="stop-opacity:1; stop-color:#847e70"/>
  </linearGradient><linearGradient gradientUnits="userSpaceOnUse" id="Head-Dog7id35" x1="13681.9" x2="13681.9" y1="17936.7" y2="7484.8">
   <stop offset="0" style="stop-opacity:1; stop-color:#5e594b"/>
   <stop offset="0.4" style="stop-opacity:1; stop-color:#847e70"/>
   <stop offset="1" style="stop-opacity:1; stop-color:#9e9e9e"/>
  </linearGradient><linearGradient gradientUnits="userSpaceOnUse" id="Head-Dog7id18" x1="10235.1" x2="10235.1" y1="19681.2" y2="17649.5">
   <stop offset="0" style="stop-opacity:1; stop-color:#575c5e"/>
   <stop offset="1" style="stop-opacity:1; stop-color:#2f3639"/>
  </linearGradient><linearGradient gradientUnits="userSpaceOnUse" id="Head-Dog7id132" x1="13664.7" x2="13664.7" y1="17953.2" y2="22866.3">
   <stop offset="0" style="stop-opacity:1; stop-color:#ebdada"/>
   <stop offset="0.341176" style="stop-opacity:1; stop-color:#f8f3f3"/>
   <stop offset="1" style="stop-opacity:1; stop-color:#f8f3f3"/>
  </linearGradient><linearGradient gradientUnits="userSpaceOnUse" id="Eyes-Dog5id27" x1="16937.6" x2="16937.6" y1="14961.3" y2="11448.6">
   <stop offset="0" style="stop-opacity:1; stop-color:#804400"/>
   <stop offset="1" style="stop-opacity:1; stop-color:black"/>
  </linearGradient><linearGradient gradientUnits="objectBoundingBox" id="Eyes-Dog5id57" x1="100%" x2="0%" y1="50.0003%" y2="50.0003%">
   <stop offset="0" style="stop-opacity:1; stop-color:#804400"/>
   <stop offset="0.501961" style="stop-opacity:1; stop-color:#ff8700"/>
   <stop offset="1" style="stop-opacity:1; stop-color:#804400"/>
  </linearGradient><radialGradient cx="16677.2" cy="12783.5" fx="16677.2" fy="12783.5" gradientTransform="matrix(-0.257879 1.16297 1.08696 0.253253 7083 -9849)" gradientUnits="userSpaceOnUse" id="Eyes-Dog5id1055" r="1194.51">
   <stop offset="0" style="stop-opacity:1; stop-color:#663600"/>
   <stop offset="0.75" style="stop-opacity:1; stop-color:black"/>
   <stop offset="1" style="stop-opacity:1; stop-color:black"/>
  </radialGradient><linearGradient gradientUnits="userSpaceOnUse" id="Nose-Dog0id451" x1="13653.8" x2="13653.8" y1="14108.6" y2="14926.9">
   <stop offset="0" style="stop-opacity:1; stop-color:#FFCCCC"/>
   <stop offset="1" style="stop-opacity:1; stop-color:#453F2C"/>
  </linearGradient><linearGradient gradientUnits="userSpaceOnUse" id="BraceletSteel-Mediumid663new" x1="19208.4" x2="16994.4" y1="19855.6" y2="20661.5">
   <stop offset="0" style="stop-opacity:1; stop-color:#424352"/>
   <stop offset="0.109804" style="stop-opacity:1; stop-color:#848690"/>
   <stop offset="0.25098" style="stop-opacity:1; stop-color:#FFFFFC"/>
   <stop offset="0.470588" style="stop-opacity:1; stop-color:#8D8F99"/>
   <stop offset="0.780392" style="stop-opacity:1; stop-color:#16171A"/>
   <stop offset="1" style="stop-opacity:1; stop-color:#42444D"/>
  </linearGradient><linearGradient gradientUnits="userSpaceOnUse" id="HatG-Mediumid170new" x1="18179.1" x2="19599.3" y1="10226.2" y2="6697.29">
   <stop offset="0" style="stop-opacity:1; stop-color:#15153B"/>
   <stop offset="1" style="stop-opacity:1; stop-color:#4A47A1"/>
  </linearGradient><linearGradient gradientUnits="userSpaceOnUse" id="NecklaceMilitaryVestBack-Mediumid8" x1="16442.2" x2="16332.9" y1="17736.9" y2="21506.7">
   <stop offset="0" style="stop-opacity:1; stop-color:#573C1C"/>
   <stop offset="1" style="stop-opacity:1; stop-color:#2B100C"/>
  </linearGradient><linearGradient gradientUnits="userSpaceOnUse" id="NecklaceMilitaryVest-Mediumid2" x1="11329.7" x2="11263.8" y1="17342.6" y2="19614.9">
   <stop offset="0" style="stop-opacity:1; stop-color:#503B22"/>
   <stop offset="1" style="stop-opacity:1; stop-color:#D9B57B"/>
  </linearGradient><linearGradient gradientUnits="userSpaceOnUse" id="AccessoryFlaskWithWaterid16" x1="4702.91" x2="5106.95" y1="25411.2" y2="23727">
   <stop offset="0" style="stop-opacity:1; stop-color:#5B5C63"/>
   <stop offset="0.509804" style="stop-opacity:1; stop-color:#665E59"/>
   <stop offset="1" style="stop-opacity:1; stop-color:#AB9B89"/>
  </linearGradient></defs><g id="HairBack-Dog0">
 <animateTransform additive="sum" attributeName="transform" dur="10" repeatCount="indefinite" type="translate" values="0;0 200;0;0 200;0;0 200;0;0 200;0"/>
  <metadata id="CorelCorpID_115Corel-Layer"/>
  <rect class="HairBack-Dog0fil22" height="890" width="890" x="13237" y="6590"/>
 </g><g id="Tail-Dog1">
  <metadata id="CorelCorpID_119Corel-Layer"/>
  <path class="Tail-Dog1fil233" d="M13823 21789c4494,1217 6008,-1476 5166,-4408 1760,3307 158,6668 -5405,5416 -351,-52 -271,-1098 239,-1008z" style="fill:#10554e"/>
  <path class="Tail-Dog1fil26" d="M19104 19815c176,-728 133,-1571 -115,-2434 438,823 668,1650 680,2409 -116,176 -435,130 -565,25z" style="fill:#8af6c9"/>
  <path class="Tail-Dog1fil14" d="M19669 19803c28,2229 -1831,3859 -5811,3053 -15,-311 135,-692 452,-636 3431,929 5125,-421 5359,-2417z" style="fill:#ae2c74"/>
  <path class="Tail-Dog1fil22 Tail-Dog1str0" d="M13823 21789c4494,1217 6008,-1476 5166,-4408 1760,3307 158,6668 -5405,5416 -351,-52 -271,-1098 239,-1008z" style="fill:#713b83"/>
 </g><g id="NecklaceMilitaryVestBack-Medium">
 <animateTransform additive="sum" attributeName="transform" dur="10" repeatCount="indefinite" type="translate" values="0;0 200;0;0 200;0;0 200;0;0 200;0"/>
  <metadata id="CorelCorpID_5Corel-Layer"/>
  <g id="_2617338197808">
   <path class="NecklaceMilitaryVestBack-Mediumfil35 NecklaceMilitaryVestBack-Mediumstr0" d="M10179 17723c-337,102 325,685 597,1402 106,277 295,950 191,1195 -149,348 -619,235 -651,399 0,0 195,774 228,801 34,27 1323,-628 1323,-628 0,0 -232,-2792 -284,-2818 -52,-27 -508,-224 -496,-285 -303,-22 -605,-44 -908,-66z" style="fill:#673d18"/>
   <path class="NecklaceMilitaryVestBack-Mediumfil36 NecklaceMilitaryVestBack-Mediumstr0" d="M17185 17723c337,102 -325,685 -598,1402 -105,277 -295,950 -190,1195 149,348 619,235 651,399 0,0 -195,774 -228,801 -34,27 -1323,-628 -1323,-628 0,0 232,-2792 284,-2818 52,-27 508,-224 496,-285 303,-22 605,-44 908,-66z" style="fill:#990b6d"/>
  </g>
 </g><g id="RightFoot-Dog3">
  <metadata id="CorelCorpID_127Corel-Layer"/>
  <path class="RightFoot-Dog3fil242" d="M17461 25232c-144,249 -469,331 -709,123 -82,82 -321,169 -611,76 -475,-152 -678,-627 -1088,-897 -209,-138 -43,-480 -31,-702 216,88 639,20 960,-216 332,-245 1043,-199 820,325 153,50 376,135 488,193 178,92 308,217 397,350 166,246 124,748 -226,748z" style="fill:#4f9eca"/>
  <path class="RightFoot-Dog3fil14" d="M17461 25232c-144,249 -469,331 -709,123 -82,82 -321,169 -611,76 -475,-152 -678,-627 -1088,-897 -182,-120 -106,-408 -68,-624 13,30 66,32 88,19 2,85 -1,160 50,261 317,621 1468,1311 1612,663 247,396 693,243 634,-148 151,250 332,57 232,-294 150,96 185,309 179,486 -21,178 -124,335 -319,335z" style="fill:#eddf10"/>
  <path class="RightFoot-Dog3fil22" d="M16741 23949c560,135 807,327 949,532 170,244 121,751 -229,751 -144,249 -469,331 -709,123 -82,82 -321,169 -611,76 -475,-152 -614,-562 -1018,-844 -201,-140 -166,-401 -134,-554" style="fill:#1c6086"/>
  <path class="RightFoot-Dog3fil32" d="M17378 25213c0,3 0,7 0,10 -59,86 -148,149 -252,169 -84,16 -174,3 -257,-45l-12 -8c47,-255 19,-572 -334,-636 167,118 191,399 163,611 -41,33 -116,65 -215,77 -89,11 -194,6 -307,-31 -265,-85 -423,-261 -589,-447 -277,-311 -611,-400 -512,-864 8,-41 -28,-86 -58,-89 -24,-2 -80,17 -89,58 -119,558 222,630 548,995 180,201 350,392 654,490 137,43 264,50 371,37 108,-13 199,-49 262,-89l3 0c116,81 258,115 400,88 143,-28 268,-114 349,-234 151,-15 258,-113 313,-251 29,-74 44,-157 44,-240 0,-135 -38,-275 -108,-376 -77,-110 -181,-216 -341,-313 -143,-86 -331,-165 -584,-231 -71,-19 -105,8 -131,48 -23,34 -14,70 26,80 271,65 468,144 612,231 139,84 229,176 295,271 53,76 81,183 81,290 0,66 -11,130 -33,185 -25,64 -65,112 -119,138 13,-317 -128,-634 -466,-624 219,111 313,298 286,700z" style="fill:#6d1537"/>
 </g><g id="LeftFoot-Dog3">
  <metadata id="CorelCorpID_135Corel-Layer"/>
  <path class="LeftFoot-Dog3fil248" d="M9847 25232c143,249 468,331 709,123 82,82 321,169 611,76 475,-152 678,-627 1088,-897 208,-138 43,-480 31,-702 -216,88 -640,20 -960,-216 -332,-245 -1043,-199 -821,325 -152,50 -375,135 -487,193 -178,92 -308,217 -398,350 -165,246 -124,748 227,748z" style="fill:#821fe5"/>
  <path class="LeftFoot-Dog3fil14" d="M9847 25232c143,249 468,331 709,123 82,82 321,169 611,76 475,-152 678,-627 1088,-897 181,-120 105,-408 68,-624 -13,30 -66,32 -88,19 -2,85 1,160 -50,261 -318,621 -1468,1311 -1612,663 -248,396 -693,243 -634,-148 -151,250 -333,57 -232,-294 -150,96 -186,309 -179,486 20,178 124,335 319,335z" style="fill:#c96439"/>
  <path class="LeftFoot-Dog3fil22" d="M10566 23949c-559,135 -807,327 -949,532 -169,244 -121,751 230,751 143,249 468,331 709,123 82,82 321,169 611,76 475,-152 614,-562 1017,-844 201,-140 167,-401 134,-554" style="fill:#7eec07"/>
  <path class="LeftFoot-Dog3fil32" d="M9929 25213c1,3 1,7 0,10 59,86 149,149 253,169 84,16 174,3 257,-45l12 -8c-48,-255 -19,-572 333,-636 -166,118 -190,399 -162,611 41,33 116,65 215,77 89,11 193,6 307,-31 265,-85 423,-261 588,-447 278,-311 612,-400 513,-864 -9,-41 27,-86 58,-89 23,-2 80,17 88,58 119,558 -222,630 -547,995 -180,201 -351,392 -655,490 -137,43 -263,50 -370,37 -109,-13 -200,-49 -262,-89l-3 0c-116,81 -259,115 -401,88 -143,-28 -267,-114 -348,-234 -151,-15 -258,-113 -313,-251 -30,-74 -44,-157 -44,-240 0,-135 38,-275 108,-376 76,-110 181,-216 341,-313 142,-86 330,-165 584,-231 71,-19 105,8 131,48 22,34 14,70 -26,80 -271,65 -468,144 -612,231 -139,84 -230,176 -295,271 -53,76 -81,183 -81,290 0,66 11,130 32,185 26,64 65,112 120,138 -13,-317 128,-634 466,-624 -219,111 -313,298 -287,700z" style="fill:#097263"/>
 </g><g id="RightLeg-Dog0">
  <metadata id="CorelCorpID_128Corel-Layer"/>
  <path class="RightLeg-Dog0fil243" d="M13654 20939c701,0 2353,-56 2710,226 302,239 937,901 935,1761 -2,445 -277,1009 -1000,1266 -472,76 -697,-507 -1295,-235 60,-709 -911,-790 -1350,-797l0 -2221z" style="fill:#3e1d06"/>
  <path class="RightLeg-Dog0fil32" d="M15057 24610c33,25 62,27 88,-6 25,-32 18,-79 -15,-104 -85,-66 -111,-236 -89,-338 34,-163 71,-342 -66,-579 0,-1 -1,-3 -2,-4 -100,-171 -247,-296 -460,-378 -208,-80 -506,-119 -859,-119l0 150c335,0 616,36 805,108 180,69 302,173 385,314 0,2 1,3 2,4 108,188 77,337 48,473 -32,154 43,385 163,479zm1227 -3463c175,139 478,451 693,860 144,272 248,587 247,919 -1,245 -87,464 -218,653 -154,223 -427,476 -707,613 326,-17 760,-427 830,-528 147,-211 244,-458 244,-738 2,-360 -110,-698 -263,-989 -227,-430 -547,-760 -734,-907l-92 117z" style="fill:#ae0160"/>
  <path class="RightLeg-Dog0fil14" d="M17192 23390c67,-148 106,-305 107,-464 2,-775 -541,-1451 -869,-1752 -191,187 -220,614 -78,870 275,-293 637,273 785,794 61,212 86,417 55,552z" style="fill:#3c3e45"/>
 </g><g id="LeftLeg-Dog0">
  <metadata id="CorelCorpID_136Corel-Layer"/>
  <path class="LeftLeg-Dog0fil249" d="M13654 20939c-701,0 -2353,-56 -2710,226 -303,239 -938,901 -935,1761 1,445 276,1009 1000,1266 472,76 697,-507 1294,-235 -59,-709 911,-790 1351,-797l0 -2221z" style="fill:#cc1d4b"/>
  <path class="LeftLeg-Dog0fil32" d="M12251 24610c-33,25 -63,27 -88,-6 -25,-32 -19,-79 14,-104 85,-66 111,-236 90,-338 -34,-163 -72,-342 65,-579 1,-1 2,-3 3,-4 100,-171 246,-296 460,-378 208,-80 506,-119 859,-119l0 150c-335,0 -616,36 -806,108 -179,69 -302,173 -384,314 -1,2 -2,3 -2,4 -109,188 -77,337 -49,473 33,154 -42,385 -162,479zm-1227 -3463c-176,139 -478,451 -694,860 -143,272 -247,587 -246,919 0,245 86,464 217,653 155,223 428,476 708,613 -326,-17 -761,-427 -831,-528 -146,-211 -243,-458 -244,-738 -1,-360 110,-698 264,-989 226,-430 547,-760 733,-907l93 117z" style="fill:#a4714a"/>
  <path class="LeftLeg-Dog0fil14" d="M10116 23390c-67,-148 -107,-305 -107,-464 -2,-775 540,-1451 869,-1752 190,187 275,614 134,870 -388,-413 -1003,879 -896,1346z" style="fill:#7dd368"/>
 </g><g id="RightHand-Dog0">
 <animateTransform additive="sum" attributeName="transform" dur="10" repeatCount="indefinite" type="translate" values="0;0 200;0;0 200;0;0 200;0;0 200;0"/>
  <metadata id="CorelCorpID_141Corel-Layer"/>
  <path class="RightHand-Dog0fil253" d="M15619 17715c247,-7 498,-52 659,-90 985,362 1779,1397 2210,2149 289,504 -636,1265 -911,1014 -400,-366 -786,-483 -1129,-559 -358,-79 -514,-1818 -829,-2514z" style="fill:#bf5405"/>
  <path class="RightHand-Dog0fil22 RightHand-Dog0str0" d="M16041 17553c1079,269 1932,1403 2397,2213m-861 1022c-394,-360 -769,-512 -1113,-557" style="fill:#c3b1c4"/>
  <path class="RightHand-Dog0fil14" d="M17401 20669c-249,-249 -500,-372 -822,-396 -156,-175 -225,-650 -133,-901 308,435 716,808 1104,1031 -30,84 -75,162 -148,228 0,12 -1,25 -1,38z" style="fill:#e3ac88"/>
 </g><g id="LeftHand-Dog0">
 <animateTransform additive="sum" attributeName="transform" dur="10" repeatCount="indefinite" type="translate" values="0;0 200;0;0 200;0;0 200;0;0 200;0"/>
  <metadata id="CorelCorpID_149Corel-Layer"/>
  <path class="LeftHand-Dog0fil261" d="M11744 17715c-246,-7 -497,-52 -658,-90 -985,362 -1779,1397 -2210,2149 -289,504 636,1265 911,1014 400,-366 786,-483 1129,-559 358,-79 514,-1818 828,-2514z" style="fill:#cd94be"/>
  <path class="LeftHand-Dog0fil22 LeftHand-Dog0str0" d="M11323 17553c-1079,269 -1933,1403 -2397,2213m861 1022c394,-360 769,-512 1113,-557" style="fill:#bc458c"/>
  <path class="LeftHand-Dog0fil14" d="M9963 20669c249,-249 500,-372 821,-396 157,-175 226,-650 134,-901 -308,435 -717,808 -1104,1031 30,84 75,162 148,228 0,12 1,25 1,38z" style="fill:#b7ed47"/>
 </g><g id="Body-Dog4">
 <animateTransform additive="sum" attributeName="transform" dur="10" repeatCount="indefinite" type="translate" values="0;0 200;0;0 200;0;0 200;0;0 200;0"/>
  <metadata id="CorelCorpID_160Corel-Layer"/>
  <path class="Body-Dog4fil267" d="M13682 23035c-1548,0 -2752,-291 -2993,-1956 -146,-1010 387,-2357 984,-3487 334,54 1089,70 2009,70 920,0 1675,-16 2008,-70 598,1130 1131,2477 985,3487 -242,1665 -1445,1956 -2993,1956z" style="fill:#bd546d"/>
  <path class="Body-Dog4fil271" d="M11883 18257c-421,-402 -1032,1123 -600,1914 333,609 781,869 1154,752 447,-140 567,675 1245,675 678,0 798,-815 1245,-675 373,117 821,-143 1154,-752 432,-791 -179,-2316 -600,-1914 -682,654 -1019,735 -1799,735 -780,0 -1117,-81 -1799,-735z" style="fill:#f58d91"/>
  <path class="Body-Dog4fil14" d="M12620 22967c-1015,-156 -1748,-629 -1931,-1888 -72,-498 21,-1078 206,-1674 -224,2001 425,3224 1725,3562z" style="fill:#44b316"/>
  <path class="Body-Dog4fil14" d="M14743 22967c1016,-156 1749,-629 1932,-1888 72,-498 -21,-1078 -206,-1674 224,2001 -425,3224 -1726,3562z" style="fill:#dc1962"/>
  <path class="Body-Dog4fil32" d="M11012 22044c-250,-321 -348,-641 -397,-954 -59,-377 -28,-1005 180,-1327 -79,420 -89,912 -32,1305 50,341 104,572 249,976z" style="fill:#7b4894"/>
  <path class="Body-Dog4fil32" d="M16352 22044c250,-321 347,-641 397,-954 59,-377 24,-998 -184,-1320 78,421 93,905 36,1298 -50,341 -104,572 -249,976z" style="fill:#5e0bce"/>
 </g><g id="RightPaw-Dog1">
 <animateTransform additive="sum" attributeName="transform" dur="10" repeatCount="indefinite" type="translate" values="0;0 200;0;0 200;0;0 200;0;0 200;0"/>
  <metadata id="CorelCorpID_147Corel-Layer"/>
  <path class="RightPaw-Dog1fil26" d="M17402 20631c-38,818 551,1339 943,981 309,484 1078,126 986,-356 248,-652 -532,-1279 -980,-1632 -241,-78 -377,-149 -564,-64 -316,143 -32,749 -385,1071z" style="fill:#1fd299"/>
  <path class="RightPaw-Dog1fil14" d="M17402 20631c-17,192 32,393 33,395 44,201 137,399 285,544 194,184 433,219 637,33 492,772 1351,-293 810,-632 144,452 -486,750 -723,253 -324,480 -778,69 -787,-350 -5,-223 56,-314 -107,-471 -30,84 -75,162 -148,228z" style="fill:#6ca6cc"/>
  <path class="RightPaw-Dog1fil32" d="M18446 21611c107,-163 129,-451 -88,-537 74,121 26,386 -69,476 -138,130 -263,138 -430,31 -93,-59 -178,-155 -245,-278 -93,-172 -149,-397 -138,-656 1,-21 -7,-43 -24,-59 -52,-50 -128,-78 -180,-116 -33,-25 -76,-27 -100,6 -24,33 -10,74 23,99 44,31 87,68 130,100 -5,272 57,511 157,696 79,147 183,261 296,334 178,114 384,128 560,8 101,121 232,181 368,195 211,22 433,-69 573,-226 103,-115 160,-263 137,-425 229,-648 -410,-1166 -864,-1533 -104,-84 -134,-147 -206,-255 -23,-34 -69,-44 -104,-21 -34,23 -43,70 -20,104 80,121 120,196 236,290 356,288 865,714 854,1122 -52,-71 -158,-158 -280,-146 191,160 321,562 136,764 -110,120 -284,194 -446,177 -102,-10 -201,-57 -276,-150z" style="fill:#c1d721"/>
 </g><g id="LeftPaw-Dog1">
 <animateTransform additive="sum" attributeName="transform" dur="10" repeatCount="indefinite" type="translate" values="0;0 200;0;0 200;0;0 200;0;0 200;0"/>
  <metadata id="CorelCorpID_155Corel-Layer"/>
  <path class="LeftPaw-Dog1fil26" d="M9962 20631c38,818 -552,1339 -944,981 -308,484 -1077,126 -986,-356 -247,-652 533,-1279 981,-1632 241,-78 377,-149 564,-64 316,143 31,749 385,1071z" style="fill:#1a74fd"/>
  <path class="LeftPaw-Dog1fil14" d="M9962 20631c16,192 -32,393 -33,395 -44,201 -137,399 -285,544 -194,184 -433,219 -637,33 -493,772 -1351,-293 -810,-632 -144,452 485,750 723,253 324,480 778,69 787,-350 4,-223 -56,-314 107,-471 30,84 75,162 148,228z" style="fill:#5f9793"/>
  <path class="LeftPaw-Dog1fil32" d="M8918 21611c-107,-163 -129,-451 88,-537 -74,121 -26,386 69,476 138,130 263,138 430,31 92,-59 178,-155 245,-278 93,-172 149,-397 138,-656 -1,-21 7,-43 24,-59 52,-50 128,-78 180,-116 33,-25 75,-27 100,6 24,33 10,74 -24,99 -43,31 -86,68 -129,100 5,272 -57,511 -157,696 -80,147 -183,261 -296,334 -178,114 -384,128 -560,8 -101,121 -232,181 -369,195 -210,22 -432,-69 -572,-226 -103,-115 -161,-263 -137,-425 -229,-648 410,-1166 863,-1533 105,-84 134,-147 207,-255 23,-34 69,-44 103,-21 35,23 44,70 21,104 -81,121 -120,196 -236,290 -356,288 -865,714 -854,1122 52,-71 157,-158 280,-146 -191,160 -321,562 -136,764 110,120 284,194 446,177 102,-10 201,-57 276,-150z" style="fill:#8dd977"/>
 </g><g id="NecklaceMilitaryVest-Medium">
 <animateTransform additive="sum" attributeName="transform" dur="10" repeatCount="indefinite" type="translate" values="0;0 200;0;0 200;0;0 200;0;0 200;0"/>
  <metadata id="CorelCorpID_6Corel-Layer"/>
  <g id="_2617338187984">
   <path class="NecklaceMilitaryVest-Mediumfil37" d="M13682 19156c-889,0 -2106,-754 -1878,-1801 -679,-35 -1207,135 -1625,368 1075,123 1662,3793 137,2996 -134,439 -81,840 -73,1194 387,359 2159,847 3439,847 1279,0 3052,-488 3439,-847 8,-354 61,-755 -73,-1194 -1525,797 -938,-2873 137,-2996 -419,-233 -946,-403 -1625,-368 228,1047 -989,1801 -1878,1801z" style="fill:#356214"/>
   <path class="NecklaceMilitaryVest-Mediumfil27" d="M17048 20719c-1164,609 -1098,-1387 -522,-2420 -687,1112 -846,3335 522,2420z" style="fill:#0f9d49"/>
   <path class="NecklaceMilitaryVest-Mediumfil27" d="M10316 20719c1164,609 1097,-1387 522,-2420 686,1112 846,3335 -522,2420z" style="fill:#397443"/>
   <path class="NecklaceMilitaryVest-Mediumfil38 NecklaceMilitaryVest-Mediumstr0" d="M17096 20911c71,364 32,700 25,1002 -387,359 -2160,847 -3439,847 -1280,0 -3052,-488 -3439,-847 -7,-302 -46,-638 25,-1002 1,0 1412,579 3414,579 2002,0 3413,-579 3414,-579z" style="fill:#6a7830"/>
   <path class="NecklaceMilitaryVest-Mediumfil9" d="M17096 21114c31,124 41,215 42,298 -344,159 -1674,715 -3456,715 -1782,0 -3112,-556 -3456,-715 1,-83 11,-174 42,-298 1,0 1412,563 3414,563 2001,0 3413,-563 3414,-563zm39 409c-5,67 -12,137 -14,223 -387,280 -2160,811 -3439,811 -1280,0 -3052,-531 -3439,-811 -3,-86 -9,-156 -14,-223 412,184 1723,704 3453,704 1730,0 3041,-520 3453,-704z" style="fill:#e80c9f"/>
   <path class="NecklaceMilitaryVest-Mediumfil7" d="M17135 21540c-4,68 -12,120 -14,206 -387,280 -2160,811 -3439,811 -1280,0 -3052,-531 -3439,-811 -3,-86 -9,-156 -14,-223 1,-83 8,-285 39,-409 1,0 1412,563 3414,563 2001,0 3413,-563 3414,-563 31,124 39,343 39,426z" style="fill:#fe8345"/>
   <path class="NecklaceMilitaryVest-Mediumfil39 NecklaceMilitaryVest-Mediumstr0" d="M12217 18553c54,63 107,171 134,218 181,314 -61,602 -283,730 -223,128 -696,192 -852,-121 -33,-67 -41,-123 -57,-201 -157,-716 -525,-1404 -980,-1456 418,-233 946,-403 1625,-368 -103,474 89,887 413,1198z" style="fill:#0d222a"/>
   <path class="NecklaceMilitaryVest-Mediumfil27" d="M11768 19598c0,0 531,-389 491,-581 -39,-192 -459,-744 -466,-870 -6,-126 10,-289 10,-289 0,0 213,475 278,549 65,74 225,263 270,364 44,101 106,222 76,334 -93,340 -357,459 -659,493z" style="fill:#cd475c"/>
   <path class="NecklaceMilitaryVest-Mediumfil5 NecklaceMilitaryVest-Mediumstr0" d="M12217 18553c54,63 107,171 134,218 181,314 -61,602 -283,730 -223,128 -696,192 -852,-121 -33,-67 -41,-123 -57,-201 -157,-716 -525,-1404 -980,-1456 418,-233 946,-403 1625,-368 -103,474 89,887 413,1198z" style="fill:#0ff048"/>
   <path class="NecklaceMilitaryVest-Mediumfil40" d="M15147 18553c-54,63 -107,171 -134,218 -181,314 61,602 283,730 223,128 696,192 852,-121 33,-67 41,-123 57,-201 157,-716 525,-1404 980,-1456 -419,-233 -946,-403 -1625,-368 103,474 -89,887 -413,1198z" style="fill:#681a20"/>
   <path class="NecklaceMilitaryVest-Mediumfil27" d="M15826 19391c275,-119 348,-926 665,-1232 273,-264 362,-304 362,-304 0,0 -500,731 -547,955 -47,223 -121,667 -241,711 -298,194 -975,25 -1009,-231 179,83 495,219 770,101z" style="fill:#2a7da2"/>
   <path class="NecklaceMilitaryVest-Mediumfil5 NecklaceMilitaryVest-Mediumstr0" d="M15147 18553c-54,63 -107,171 -134,218 -181,314 61,602 283,730 223,128 696,192 852,-121 33,-67 41,-123 57,-201 157,-716 525,-1404 980,-1456 -419,-233 -946,-403 -1625,-368 103,474 -89,887 -413,1198z" style="fill:#239e87"/>
   <path class="NecklaceMilitaryVest-Mediumfil31" d="M12518 18790l-1315 630c-57,-377 -177,-766 -341,-1077l975 -366c112,332 368,610 681,813z" style="fill:#c8f323"/>
   <path class="NecklaceMilitaryVest-Mediumfil31" d="M14846 18790l1314 630c58,-377 177,-766 342,-1077l-975 -366c-112,332 -368,610 -681,813z" style="fill:#4e0411"/>
   <path class="NecklaceMilitaryVest-Mediumfil7" d="M16213 20399l-20 -95c67,196 200,385 382,439l1 3c-58,-2 -1353,218 -2894,198 -1254,-16 -2345,-138 -2739,-182 119,-80 211,-274 258,-458 32,-145 44,-313 38,-491 805,-30 1343,-86 2443,-86 1107,0 1645,57 2459,87 -6,178 10,345 51,487l21 98z" style="fill:#08fdb7"/>
   <path class="NecklaceMilitaryVest-Mediumfil7" d="M15693 20877c55,-66 89,-242 103,-436 -196,17 -412,30 -649,41 -421,19 -905,29 -1465,29 -549,0 -1026,-10 -1442,-28 -239,-11 -457,-24 -655,-40 2,187 19,346 73,417 525,50 1243,104 2024,115 774,10 1487,-43 2011,-98zm109 -536c9,-237 -8,-478 -47,-571 -622,-32 -1150,-73 -2073,-73 -923,0 -1451,41 -2073,73 -7,168 -21,379 -24,573 199,16 419,30 660,40 409,19 885,28 1437,28 563,0 1046,-10 1460,-29 242,-11 461,-24 660,-41z" style="fill:#c39f60"/>
   <path class="NecklaceMilitaryVest-Mediumfil9" d="M14367 20913c419,0 758,-336 758,-752 0,-415 -339,-751 -758,-751 -419,0 -758,336 -758,751 0,416 339,752 758,752z" style="fill:#2852ea"/>
   <circle class="NecklaceMilitaryVest-Mediumfil41 NecklaceMilitaryVest-Mediumstr2" cx="14426" cy="20109" r="665"/>
   <path class="NecklaceMilitaryVest-Mediumfil5 NecklaceMilitaryVest-Mediumstr0" d="M13682 19156c-889,0 -2106,-754 -1878,-1801 -679,-35 -1207,135 -1625,368 1075,123 1662,3793 137,2996 -134,439 -81,840 -73,1194 387,359 2159,847 3439,847 1279,0 3052,-488 3439,-847 8,-354 61,-755 -73,-1194 -1525,797 -938,-2873 137,-2996 -419,-233 -946,-403 -1625,-368 228,1047 -989,1801 -1878,1801z" style="fill:#1f28d4"/>
   <path class="NecklaceMilitaryVest-Mediumfil42" d="M17051 20728c71,365 127,883 120,1185 -341,780 -3595,1252 -5106,784 -46,-15 -308,-344 -308,-403l0 -989c76,-68 217,-241 269,-229 1907,446 4665,-41 5025,-348z" style="fill:#5272ad"/>
   <path class="NecklaceMilitaryVest-Mediumfil27" d="M12337 21311c944,172 3148,62 3665,-192 -121,0 -244,0 -368,-1 -1021,155 -2398,219 -3512,-20l-61 -1c-102,73 -203,145 -304,217 0,325 0,650 0,975 38,43 75,87 113,130 116,-732 16,-1190 467,-1108z" style="fill:#1afd07"/>
   <path class="NecklaceMilitaryVest-Mediumfil5 NecklaceMilitaryVest-Mediumstr0" d="M17051 20728c71,365 127,883 120,1185 -341,780 -3595,1252 -5106,784 -46,-15 -308,-344 -308,-403l0 -989c76,-68 217,-241 269,-229 1907,446 4665,-41 5025,-348z" style="fill:#c4052a"/>
   <path class="NecklaceMilitaryVest-Mediumfil9" d="M17044 20956c68,263 133,583 126,801 -435,679 -3401,1088 -4830,750 -44,-10 -292,-248 -292,-291l0 -714c72,-49 206,-177 254,-165 1686,395 4504,-103 4742,-381z" style="fill:#29953d"/>
   <path class="NecklaceMilitaryVest-Mediumfil7" d="M12048 18365c0,0 -400,-89 -579,354 -179,444 -36,885 299,879 336,-5 610,-320 675,-561 65,-241 153,584 -105,723 -258,139 -342,295 -353,461 -11,166 762,966 1469,1029 707,62 -1379,-163 -1379,-163 -106,73 -212,146 -318,218 -266,-50 -533,-101 -799,-151 -585,250 190,1180 589,1271 -195,-29 -1213,-436 -1259,-474 -45,-38 -76,-952 -20,-1040 57,-88 16,-209 48,-192 33,16 360,203 531,91 172,-112 539,-347 385,-1144 -155,-796 -182,-1096 -420,-1413 -238,-316 -497,-492 -583,-522 -86,-30 294,-231 687,-298 393,-66 888,-78 888,-78 0,0 -73,353 18,577 92,225 226,433 226,433z" style="fill:#4410a4"/>
   <path class="NecklaceMilitaryVest-Mediumfil7" d="M15421 19969c-222,-102 -509,-486 -516,-813 -6,-327 70,-304 70,-304 0,0 24,639 419,695 396,56 770,30 784,-96 15,-127 59,364 -38,466 -96,101 -497,155 -719,52z" style="fill:#1df973"/>
   <g>
    <path class="NecklaceMilitaryVest-Mediumfil34" d="M14193 20476c2,18 4,27 14,41 16,25 45,43 79,36 41,-9 72,-29 104,-50 15,-9 28,-17 45,-26 28,-14 50,-21 80,-23 9,-1 16,0 25,0 44,2 103,26 138,18l1 0 4 -1c16,-3 22,-5 38,-15 28,-17 43,-49 39,-85 -5,-52 -52,-113 -84,-151 -18,-21 -43,-47 -65,-64 -9,-7 -17,-15 -26,-20l-27 -18c-12,-8 -35,-17 -49,-20 -38,-8 -48,-6 -85,2 -51,11 -109,56 -140,100 -13,18 -12,18 -22,34 -32,52 -75,182 -69,242l0 0z" style="fill:#9d9516"/>
    <path class="NecklaceMilitaryVest-Mediumfil34" d="M14416 19819l3 24c5,45 31,90 67,106 38,18 70,4 100,-29 43,-47 60,-117 53,-179 -4,-39 -17,-70 -34,-91 -11,-15 -32,-29 -50,-32 -11,-1 -18,-2 -26,-1l-9 2c-8,3 -17,7 -28,15 -10,6 -20,14 -27,23 -9,13 -6,7 -16,23 -23,40 -38,94 -33,139l0 0z" style="fill:#34f302"/>
    <path class="NecklaceMilitaryVest-Mediumfil34" d="M14289 20006c31,-7 52,-27 66,-58 41,-88 -6,-216 -78,-251 -20,-10 -38,-15 -65,-10 -24,5 -49,29 -59,50 -27,54 -20,120 3,175 8,19 27,47 42,61 24,21 56,40 91,33l0 0z" style="fill:#1dd1b2"/>
    <path class="NecklaceMilitaryVest-Mediumfil34" d="M14627 20048c3,34 10,57 31,79 13,13 36,27 61,22 27,-6 44,-16 65,-36 29,-28 46,-66 55,-106 7,-30 6,-56 3,-87 -2,-13 -12,-36 -19,-47 -5,-8 -9,-12 -14,-18 -29,-29 -78,-20 -112,10 -24,22 -41,47 -54,77 -11,28 -21,67 -16,106l0 0z" style="fill:#db158b"/>
    <path class="NecklaceMilitaryVest-Mediumfil34" d="M13990 20119c2,21 4,28 10,48 3,11 7,21 12,30 13,22 34,49 56,63 25,15 55,28 89,20 49,-10 72,-67 66,-120 -6,-60 -30,-99 -65,-128 -8,-6 -13,-10 -22,-16 -34,-20 -76,-29 -112,2 -27,23 -33,45 -34,79 0,8 -1,13 0,22l0 0z" style="fill:#617353"/>
   </g>
  </g>
 </g><g id="BraceletSteel-Medium">
 <animateTransform additive="sum" attributeName="transform" dur="10" repeatCount="indefinite" type="translate" values="0;0 200;0;0 200;0;0 200;0;0 200;0"/>
  <metadata id="CorelCorpID_19Corel-Layer"/>
  <path class="BraceletSteel-Mediumfil57new BraceletSteel-Mediumstr4new" d="M8743 19983c-151,-67 -236,-210 -167,-360 70,-150 216,-158 370,-99 394,150 1163,722 1389,1066 91,139 106,280 -23,383 -130,103 -302,47 -400,-86 -244,-332 -771,-729 -1169,-904z" style="fill:#cd298e"/>
  <path class="BraceletSteel-Mediumfil58new BraceletSteel-Mediumstr4new" d="M18621 19983c151,-67 236,-210 167,-360 -70,-150 -216,-158 -371,-99 -393,150 -1162,722 -1389,1066 -90,139 -105,280 24,383 130,103 302,47 400,-86 244,-332 771,-729 1169,-904z" style="fill:#829317"/>
 </g><g id="Head-Dog7">
 <animateTransform additive="sum" attributeName="transform" dur="10" repeatCount="indefinite" type="translate" values="0;0 200;0;0 200;0;0 200;0;0 200;0"/>
  <metadata id="CorelCorpID_179Corel-Layer"/>
  <path class="Head-Dog7fil330" d="M13682 7385c-3568,0 -6948,4165 -6021,7554 736,2692 3247,2816 6021,2816 2774,0 5285,-124 6021,-2816 927,-3389 -2453,-7554 -6021,-7554z" style="fill:#ea01c1"/>
  <path class="Head-Dog7fil341" d="M19830 13237c-124,-1172 -653,-2341 -1434,-3323 -632,-582 -1373,-788 -2296,-580 -1509,339 -2296,3283 -1456,4764 840,1482 2804,1680 3867,1002 653,-417 1195,-1044 1319,-1863z" style="fill:#f98c6e"/>
  <path class="Head-Dog7fil14" d="M8141 11211c-590,1190 -813,2509 -480,3728 585,2138 2290,2657 4356,2779 -3483,-543 -4783,-2989 -3876,-6507z" style="fill:#ef830d"/>
  <path class="Head-Dog7fil32" d="M13682 7459c552,0 1099,101 1626,285 302,105 959,411 1688,816 -411,-435 -1448,-891 -1639,-957 -543,-189 -1107,-294 -1675,-294 -568,0 -1132,105 -1675,294 -191,66 -1229,522 -1639,957 728,-405 1386,-711 1688,-816 527,-184 1074,-285 1626,-285z" style="fill:#214a29"/>
  <path class="Head-Dog7fil32" d="M8070 11356c-237,514 -424,1536 -461,1878 -61,568 -26,1137 124,1685 291,1064 865,1718 1623,2120 512,270 1759,641 2840,689 -1197,57 -2559,-372 -2910,-557 -794,-420 -1394,-1103 -1697,-2213 -155,-566 -192,-1154 -129,-1740 23,-210 212,-1304 610,-1862z" style="fill:#910344"/>
  <path class="Head-Dog7fil32" d="M19293 11356c238,514 425,1536 462,1878 61,568 26,1137 -124,1685 -291,1064 -865,1718 -1623,2120 -513,270 -1760,641 -2841,689 1198,57 2560,-372 2910,-557 795,-420 1394,-1103 1698,-2213 155,-566 192,-1154 128,-1740 -22,-210 -211,-1304 -610,-1862z" style="fill:#ec423d"/>
  <path class="Head-Dog7fil342" d="M11105 10398c1609,362 1925,1770 1631,2983 -107,369 -13,643 379,562 180,-39 370,-61 567,-61 1187,0 1796,851 1796,1682 0,831 -685,1327 -1796,1327 -946,0 -1739,-488 -1954,-1146 -147,-407 -437,-437 -738,-359 -786,258 -1660,176 -2162,-222 -2159,-1714 228,-5227 2277,-4766z" style="fill:#d95b00"/>
  <path class="Head-Dog7fil14" d="M13682 14264c-1272,0 -1544,682 -1734,863 101,-448 565,-1247 1734,-1247l0 384z" style="fill:#9e38d3"/>
  <path class="Head-Dog7fil14" d="M13682 14264c1271,0 1543,682 1734,863 -101,-448 -565,-1247 -1734,-1247l0 384z" style="fill:#9dad43"/>
 </g><g id="Mouth-Dog3">
 <animateTransform additive="sum" attributeName="transform" dur="10" repeatCount="indefinite" type="translate" values="0;0 200;0;0 200;0;0 200;0;0 200;0"/>
  <metadata id="CorelCorpID_183Corel-Layer"/>
  <path class="Mouth-Dog3fil22 Mouth-Dog3str0" d="M11958 15406c395,636 1694,403 1724,-520" style="fill:#f90759"/>
  <path class="Mouth-Dog3fil22 Mouth-Dog3str0" d="M15406 15406c-395,636 -1694,403 -1724,-520" style="fill:#473d38"/>
  <path class="Mouth-Dog3fil100" d="M13694 15018c15,256 393,755 1042,817 -441,27 -829,-209 -1054,-209 -226,0 -613,236 -1054,209 649,-62 1026,-561 1042,-817l24 0z" style="fill:#2b7ee7"/>
  <path class="Mouth-Dog3fil151 Mouth-Dog3str0" d="M14563 16433c369,3 453,-448 354,-664 -111,-242 -836,-440 -1188,-217 422,52 285,876 834,881z" style="fill:#5d0771"/>
  <path class="Mouth-Dog3fil152 Mouth-Dog3str0" d="M12323 15678c13,-132 147,-363 232,-442 103,68 259,374 285,490 -115,49 -381,54 -517,-48z" style="fill:#eda7ca"/>
 </g><g id="Eyes-Dog5">
 <animateTransform additive="sum" attributeName="transform" dur="10" repeatCount="indefinite" type="translate" values="0;0 200;0;0 200;0;0 200;0;0 200;0"/>
  <metadata id="CorelCorpID_194Corel-Layer"/>
  <path class="Eyes-Dog5fil368" d="M9316 14709c795,542 2024,313 2507,-216 859,-940 218,-2810 -801,-3082 -675,-181 -1506,115 -1894,721 -767,1199 -378,2191 188,2577z"/>
  <path class="Eyes-Dog5fil369" d="M10951 11455c-95,-18 -189,-26 -281,-30 -489,21 -926,242 -1257,602 -883,963 -325,2044 211,2390 753,486 1701,380 2078,-16 948,-994 191,-2764 -751,-2946z"/>
  <path class="Eyes-Dog5fil370" d="M10432 11457c717,-167 1436,328 1607,1095 170,768 -175,1605 -1000,1773 -824,167 -1445,-329 -1615,-1096 -170,-767 291,-1605 1008,-1772z"/>
  <circle class="Eyes-Dog5fil152" r="235" transform="matrix(0.524035 0.0816328 -0.149565 0.73298 11837.7 13342.5)"/>
  <path class="Eyes-Dog5fil152" d="M10628 13873c196,-20 220,-86 233,-328 12,242 36,308 232,328 -196,20 -220,87 -232,329 -13,-242 -37,-309 -233,-329z"/>
  <path class="Eyes-Dog5fil152" d="M10407 14003c86,-9 96,-38 102,-144 5,106 16,135 102,144 -86,9 -97,38 -102,144 -6,-106 -16,-135 -102,-144z"/>
  <path class="Eyes-Dog5fil152" d="M10913 13516c86,-9 97,-38 102,-144 6,106 16,135 102,144 -86,9 -96,38 -102,144 -5,-106 -16,-135 -102,-144z"/>
  <path class="Eyes-Dog5fil152" d="M9445 12696c121,-13 136,-54 144,-204 7,150 22,191 144,204 -122,12 -137,53 -144,203 -8,-150 -23,-191 -144,-203z"/>
  <path class="Eyes-Dog5fil152" d="M11330 13936c86,-8 97,-38 102,-144 5,106 16,136 102,144 -86,9 -97,38 -102,144 -5,-106 -16,-135 -102,-144z"/>
  <path class="Eyes-Dog5fil152" d="M8983 12791c-355,1046 387,1741 1099,1839 -390,-194 -1161,-786 -1099,-1839z"/>
  <path class="Eyes-Dog5fil157" d="M12030 14198c525,-990 -87,-2541 -1008,-2787 -675,-181 -1506,115 -1894,721 -253,396 -381,770 -417,1107l0 5 -2 12c450,-868 1361,-1493 2019,-1386 937,153 1352,1005 1302,2328z"/>
  <circle class="Eyes-Dog5fil152" r="235" transform="matrix(1.55653 -1.44003 0.848674 0.620922 9762.09 11963.6)"/>
  <circle class="Eyes-Dog5fil152" r="235" transform="matrix(0.231366 -0.483919 0.323456 0.106841 9250.92 12439.8)"/>
  <circle class="Eyes-Dog5fil152" r="235" transform="matrix(0.535512 -0.0305649 0.0623147 0.334896 10707.3 11630.7)"/>
  <path class="Eyes-Dog5fil152" d="M11542 12789c174,-18 195,-77 206,-291 11,214 32,273 206,291 -174,18 -195,77 -206,291 -11,-214 -32,-273 -206,-291z"/>
  <path class="Eyes-Dog5fil22 Eyes-Dog5str4" d="M9316 14709c795,542 2024,313 2507,-216 859,-940 218,-2810 -801,-3082 -675,-181 -1506,115 -1894,721 -767,1199 -378,2191 188,2577z"/>
  <path class="Eyes-Dog5fil371" d="M18048 14709c-795,542 -2024,313 -2507,-216 -859,-940 -218,-2810 801,-3082 675,-181 1506,115 1894,721 767,1199 378,2191 -188,2577z"/>
  <path class="Eyes-Dog5fil372" d="M16413 11455c95,-18 188,-26 281,-30 489,21 926,242 1257,602 883,963 325,2044 -211,2390 -753,486 -1701,380 -2078,-16 -948,-994 -191,-2764 751,-2946z"/>
  <path class="Eyes-Dog5fil373" d="M16932 11457c-717,-167 -1437,328 -1607,1095 -170,768 175,1605 1000,1773 824,167 1445,-329 1615,-1096 170,-767 -291,-1605 -1008,-1772z"/>
  <circle class="Eyes-Dog5fil152" r="235" transform="matrix(0.524035 0.0816328 -0.149565 0.73298 17932.8 13501)"/>
  <path class="Eyes-Dog5fil152" d="M16642 13865c196,-20 220,-86 233,-328 12,242 36,308 232,328 -196,20 -220,87 -232,329 -13,-242 -37,-309 -233,-329z"/>
  <path class="Eyes-Dog5fil152" d="M16421 13995c86,-9 96,-38 102,-144 5,106 16,135 102,144 -86,8 -97,38 -102,144 -6,-106 -16,-136 -102,-144z"/>
  <path class="Eyes-Dog5fil152" d="M16927 13508c86,-9 97,-38 102,-144 6,106 16,135 102,144 -86,9 -96,38 -102,144 -5,-106 -16,-135 -102,-144z"/>
  <path class="Eyes-Dog5fil152" d="M16021 12657c-121,-12 -136,-53 -143,-203 -8,150 -23,191 -144,203 121,13 136,54 144,203 7,-149 22,-190 143,-203z"/>
  <path class="Eyes-Dog5fil152" d="M17344 13928c86,-9 97,-38 102,-144 5,106 16,135 102,144 -86,9 -97,38 -102,144 -5,-106 -16,-135 -102,-144z"/>
  <path class="Eyes-Dog5fil152" d="M18380 12791c356,1046 -386,1741 -1098,1839 389,-194 1161,-786 1098,-1839z"/>
  <path class="Eyes-Dog5fil157" d="M15334 14198c-525,-990 87,-2541 1008,-2787 675,-181 1506,115 1894,721 253,396 381,770 417,1107l0 5 2 12c-450,-868 -1361,-1493 -2020,-1386 -936,153 -1351,1005 -1301,2328z"/>
  <circle class="Eyes-Dog5fil152" r="235" transform="matrix(1.55653 -1.44003 0.848674 0.620922 16238 11930.7)"/>
  <circle class="Eyes-Dog5fil152" r="235" transform="matrix(0.231366 -0.483919 0.323456 0.106841 15638.9 12478.2)"/>
  <circle class="Eyes-Dog5fil152" r="235" transform="matrix(0.534136 0.0490489 0.0120501 0.340431 17216.2 11630.7)"/>
  <path class="Eyes-Dog5fil152" d="M17732 12772c174,-18 195,-77 206,-291 11,214 32,273 206,291 -174,18 -195,77 -206,291 -11,-214 -32,-273 -206,-291z"/>
  <path class="Eyes-Dog5fil22 Eyes-Dog5str4" d="M18048 14709c-795,542 -2024,313 -2507,-216 -859,-940 -218,-2810 801,-3082 675,-181 1506,115 1894,721 767,1199 378,2191 -188,2577z"/>
 <g>
        <animateTransform additive="sum" attributeName="transform" dur="10" repeatCount="indefinite" type="translate" values="0;0;0;0;0;0;0;0;0;0;0;0;0;0;0;0;0;0;0;0;0;0;0;0;0;0;0;0;0;0;0;0;0;0;0;0;0;0;0;0;0;0;0;0;0;0;0;0;0;0;0;0;0;0;0;0;0;0;0;0;0;0;0;0;0;0;0;0;0;0;0;0;0;0;0;0;0;0;0;0;0;0;0;0;0;0;-1200 1500;0;-1200 1500;0"/>
        <g>
            <animateTransform additive="sum" attributeName="transform" dur="10" repeatCount="indefinite" type="rotate" values="0;0;0;0;0;0;0;0;0;0;0;0;0;0;0;0;0;0;0;0;0;0;0;0;0;0;0;0;0;0;0;0;0;0;0;0;0;0;0;0;0;0;0;0;0;0;0;0;0;0;0;0;0;0;0;0;0;0;0;0;0;0;0;0;0;0;0;0;0;0;0;0;0;0;0;0;0;0;0;0;0;0;0;0;0;0;-10;0;-10;0"/>
            <g>
                <animateTransform additive="sum" attributeName="transform" dur="10" repeatCount="indefinite" type="translate" values="0;0;0;0;0;0;0;0;0;0;0;0;0;0;0;0;0;0;0;0;0;0;0;0;0;0;0;0;0;0;0;0;0;0;0;0;0;0;0;0;0;0;0;0;0;0;0;0;0;0;0;0;0;0;0;0;0;0;0;0;0;0;0;0;0;0;0;0;0;0;0;0;0;0;0;0;0;0;0;0;0;0;0;0;0;0;-500 -100;0;-500 -100;0"/> 
                <path class="Eyes-Dog5fil155" d="M12425 8700c-113,-24 -414,256 -841,404 -391,135 -763,85 -845,252 -91,185 269,613 489,667 180,45 597,-80 920,-388 382,-364 414,-907 277,-935z"/>
            </g>
            <g>
                <animateTransform additive="sum" attributeName="transform" dur="10" repeatCount="indefinite" type="translate" values="0;0;0;0;0;0;0;0;0;0;0;0;0;0;0;0;0;0;0;0;0;0;0;0;0;0;0;0;0;0;0;0;0;0;0;0;0;0;0;0;0;0;0;0;0;0;0;0;0;0;0;0;0;0;0;0;0;0;0;0;0;0;0;0;0;0;0;0;0;0;0;0;0;0;0;0;0;0;0;0;0;0;0;0;0;0;-500 -100;0;-500 -100;0"/> 
                <path class="Eyes-Dog5fil14" d="M12425 8700c-113,-24 -414,256 -841,404 -391,135 -763,85 -845,252 -91,185 269,613 489,667 180,45 597,-80 920,-388 382,-364 414,-907 277,-935z"/>
            </g>
        </g>
    </g>  
	<g>
        <animateTransform additive="sum" attributeName="transform" dur="10" repeatCount="indefinite" type="translate" values="0;0;0;0;0;0;0;0;0;0;0;0;0;0;0;0;0;0;0;0;0;0;0;0;0;0;0;0;0;0;0;0;0;0;0;0;0;0;0;0;0;0;0;0;0;0;0;0;0;0;0;0;0;0;0;0;0;0;0;0;0;0;0;0;0;0;0;0;0;0;0;0;0;0;0;0;0;0;0;0;0;0;0;0;0;0;-800 1400;0;-800 1400;0"/>
        <g>
            <animateTransform additive="sum" attributeName="transform" dur="10" repeatCount="indefinite" type="rotate" values="0;0;0;0;0;0;0;0;0;0;0;0;0;0;0;0;0;0;0;0;0;0;0;0;0;0;0;0;0;0;0;0;0;0;0;0;0;0;0;0;0;0;0;0;0;0;0;0;0;0;0;0;0;0;0;0;0;0;0;0;0;0;0;0;0;0;0;0;0;0;0;0;0;0;0;0;0;0;0;0;0;0;0;0;0;0;10;0;10;0"/>
            <g>
                <animateTransform additive="sum" attributeName="transform" dur="10" repeatCount="indefinite" type="translate" values="0;0;0;0;0;0;0;0;0;0;0;0;0;0;0;0;0;0;0;0;0;0;0;0;0;0;0;0;0;0;0;0;0;0;0;0;0;0;0;0;0;0;0;0;0;0;0;0;0;0;0;0;0;0;0;0;0;0;0;0;0;0;0;0;0;0;0;0;0;0;0;0;0;0;0;0;0;0;0;0;0;0;0;0;0;0;2000 -5000;0;2000 -5000;0"/> 
                <path class="Eyes-Dog5fil155" d="M14939 8700c113,-24 414,256 840,404 392,135 763,85 846,252 91,185 -269,613 -489,667 -180,45 -597,-80 -920,-388 -382,-364 -414,-907 -277,-935z"/>
            </g>
            <g>
                <animateTransform additive="sum" attributeName="transform" dur="10" repeatCount="indefinite" type="translate" values="0;0;0;0;0;0;0;0;0;0;0;0;0;0;0;0;0;0;0;0;0;0;0;0;0;0;0;0;0;0;0;0;0;0;0;0;0;0;0;0;0;0;0;0;0;0;0;0;0;0;0;0;0;0;0;0;0;0;0;0;0;0;0;0;0;0;0;0;0;0;0;0;0;0;0;0;0;0;0;0;0;0;0;0;0;0;2000 -5000;0;2000 -5000;0"/> 
                <path class="Eyes-Dog5fil14" d="M14939 8700c113,-24 414,256 840,404 392,135 763,85 846,252 91,185 -269,613 -489,667 -180,45 -597,-80 -920,-388 -382,-364 -414,-907 -277,-935z"/>
            </g>
        </g>
    </g>
 </g><g id="Moustache-Dog1">
 <animateTransform additive="sum" attributeName="transform" dur="10" repeatCount="indefinite" type="translate" values="0;0 200;0;0 200;0;0 200;0;0 200;0"/>
  <metadata id="CorelCorpID_201Corel-Layer"/>
  <g>
   <circle class="Moustache-Dog1fil100" r="98" transform="matrix(1.0333 -0 0.00756858 0.98885 12661.4 14776.2)"/>
   <circle class="Moustache-Dog1fil100" r="98" transform="matrix(1.0333 -0 0.00756858 0.98885 12956.9 15014.8)"/>
   <circle class="Moustache-Dog1fil100" r="98" transform="matrix(-1.0333 -0 0.00756858 0.98885 14702.5 14776.2)"/>
   <circle class="Moustache-Dog1fil100" r="98" transform="matrix(-1.0333 -0 0.00756858 0.98885 14410.6 15014.8)"/>
  </g>
 </g><g id="AccessoryFlaskWithWater">
  <metadata id="CorelCorpID_4Corel-Layer"/>
  <g id="_3081300005968">
   <path class="AccessoryFlaskWithWaterfil78 AccessoryFlaskWithWaterstr1" d="M3672 22908c-76,-75 -537,-519 -628,-419 -1100,1197 -535,2014 -228,2459 118,171 208,301 208,435 0,213 -140,319 -524,319 -299,0 -1003,213 -1376,432 -37,21 -69,42 -94,60 213,65 667,95 1476,61 1632,-67 2345,-221 2822,-324 579,-125 831,-180 1821,51 309,72 1091,-57 1555,-249 94,-39 171,-79 221,-118 -24,-12 -59,-27 -107,-46 -91,-36 -329,-37 -601,-39 -512,-4 -1128,-8 -1438,-269 -772,-649 -903,-1805 -958,-2287 -10,-83 -16,-144 -20,-158 -38,-138 -79,165 -240,202 -600,138 -1543,354 -1889,-110zm-922 -690c382,-416 1212,415 1214,418l0 0c8,8 16,17 23,28 182,264 980,81 1485,-35 377,-86 650,-149 713,82 13,49 22,121 33,219 49,436 168,1480 818,2027 199,168 736,171 1183,174 311,3 585,4 743,66 206,80 322,181 369,292 62,152 12,288 -120,407 -83,75 -207,144 -355,205 -522,216 -1426,357 -1797,270 -903,-210 -1129,-161 -1647,-49 -488,105 -1218,263 -2891,332 -966,40 -1487,-16 -1716,-119 -238,-107 -289,-262 -206,-443 49,-107 167,-210 324,-302 421,-248 1228,-488 1577,-488 91,0 124,135 124,81 0,-12 -59,-97 -136,-209 -371,-537 -1053,-1523 262,-2956zm6212 3422c3,9 4,12 0,1l0 -1z" style="fill:#52e248"/>
   <path class="AccessoryFlaskWithWaterfil79" d="M4884 25502l921 0c594,0 756,-1525 756,-1964 0,-665 -223,-1186 -542,-1505 -407,-407 -751,-724 -751,-1269 -166,-13 -283,-15 -384,-13 -101,-2 -219,0 -384,13 0,545 -345,862 -752,1269 -319,319 -542,840 -542,1505 0,439 162,1964 756,1964l922 0z" style="fill:#2b9ca7"/>
   <path class="AccessoryFlaskWithWaterfil1" d="M4590 20758c-29,1 -59,3 -90,6 0,545 -345,862 -752,1269 -319,319 -542,840 -542,1505 0,439 162,1964 756,1964l452 0c-515,-276 -808,-1460 -808,-1883 0,-730 -15,-1290 335,-1640 347,-347 568,-769 649,-1221z" style="fill:#a489cd"/>
   <path class="AccessoryFlaskWithWaterfil2 AccessoryFlaskWithWaterstr4" d="M4884 25502l921 0c594,0 756,-1525 756,-1964 0,-665 -223,-1186 -542,-1505 -407,-407 -751,-724 -751,-1269 -166,-13 -283,-15 -384,-13 -101,-2 -219,0 -384,13 0,545 -345,862 -752,1269 -319,319 -542,840 -542,1505 0,439 162,1964 756,1964l922 0z" style="fill:#f49d7d"/>
   <path class="AccessoryFlaskWithWaterfil80" d="M4884 20994c198,0 481,-17 653,-52 0,-82 -125,-251 -125,-338 0,-334 0,-425 0,-739 0,-150 -319,-158 -528,-158 -210,0 -529,8 -529,158 0,314 0,405 0,739 0,87 -125,256 -125,338 172,35 455,52 654,52z" style="fill:#11ed48"/>
   <path class="AccessoryFlaskWithWaterfil48" d="M4884 20994c198,0 481,-17 653,-52 0,-58 -62,-158 -99,-243 -169,23 -390,35 -554,35 -165,0 -386,-12 -555,-35 -37,85 -99,185 -99,243 172,35 455,52 654,52z" style="fill:#833b7e"/>
   <path class="AccessoryFlaskWithWaterfil2 AccessoryFlaskWithWaterstr3" d="M4884 20994c198,0 481,-17 653,-52 0,-82 -125,-251 -125,-338 0,-334 0,-425 0,-739 0,-150 -319,-158 -528,-158 -210,0 -529,8 -529,158 0,314 0,405 0,739 0,87 -125,256 -125,338 172,35 455,52 654,52z" style="fill:#e3f1ef"/>
   <path class="AccessoryFlaskWithWaterfil81 AccessoryFlaskWithWaterstr0" d="M3723 21999c-32,-117 1,-131 147,-276 187,-186 231,-47 275,25 220,411 561,680 781,1091 -117,164 -234,328 -352,493 -243,-492 -607,-841 -851,-1333z" style="fill:#c2c480"/>
   <g>
    <path class="AccessoryFlaskWithWaterfil82" d="M4486 23679l795 0 0 -419 -795 0 0 419zm895 200l-995 0c-55,0 -100,-45 -100,-100l0 -619c0,-55 45,-100 100,-100l995 0c56,0 100,45 100,100l0 619c0,55 -44,100 -100,100z" style="fill:#07b3c4"/>
    <path class="AccessoryFlaskWithWaterfil15" d="M4636 23529l495 0 0 -119 -495 0 0 119zm-150 150l795 0 0 -419 -795 0 0 419zm895 200l-995 0c-55,0 -100,-45 -100,-100l0 -619c0,-55 45,-100 100,-100l995 0c56,0 100,45 100,100l0 619c0,55 -44,100 -100,100zm0 150l-995 0c-69,0 -132,-28 -177,-73 -45,-45 -73,-108 -73,-177l0 -619c0,-69 28,-132 73,-177l1 0c45,-45 107,-73 176,-73l995 0c69,0 131,28 177,73l0 1c45,45 73,107 73,176l0 619c0,69 -28,131 -73,176l0 1c-45,45 -108,73 -177,73z" id="1" style="fill:#cc3165"/>
   </g>
   <path class="AccessoryFlaskWithWaterfil83 AccessoryFlaskWithWaterstr0" d="M5814 21779c-394,521 -845,1032 -1240,1553 183,49 373,65 578,16 329,-417 714,-824 1043,-1241 51,-65 -29,-162 -93,-217 -140,-121 -210,-164 -288,-111z" style="fill:#4a1584"/>
   <path class="AccessoryFlaskWithWaterfil84 AccessoryFlaskWithWaterstr0" d="M4634 25589c41,-664 87,-1327 0,-2006 162,-45 328,-46 500,0 67,669 45,1338 0,2006 -167,0 -334,0 -500,0z" style="fill:#4e3c1e"/>
   <path class="AccessoryFlaskWithWaterfil85 AccessoryFlaskWithWaterstr1" d="M4238 21501c215,19 377,59 646,59 268,0 433,-40 650,-59 62,-6 113,-8 113,-113 0,-105 -165,-145 -226,-138 -179,19 -268,59 -537,59 -270,0 -367,-40 -550,-59 -62,-7 -208,76 -208,138 0,62 51,107 112,113z" style="fill:#1f39fa"/>
  </g>
 </g><g id="Nose-Dog0">
 <animateTransform additive="sum" attributeName="transform" dur="10" repeatCount="indefinite" type="translate" values="0;0 200;0;0 200;0;0 200;0;0 200;0"/>
  <metadata id="CorelCorpID_208Corel-Layer"/>
  <path class="Nose-Dog0fil416 Nose-Dog0str0" d="M13682 14020c-283,0 -678,136 -648,338 28,185 288,481 648,481 360,0 620,-296 648,-481 30,-202 -365,-338 -648,-338z" style="fill:#0261d5"/>
 </g><g id="HatG-Medium">
 <animateTransform additive="sum" attributeName="transform" dur="10" repeatCount="indefinite" type="translate" values="0;0 200;0;0 200;0;0 200;0;0 200;0"/>
  <metadata id="CorelCorpID_66Corel-Layer"/>
  <path class="HatG-Mediumfil14new" d="M7531 13089c2101,487 3675,-1155 5913,-1187 2169,-31 4070,1356 6337,650 -719,-580 -1088,-1273 -1807,-1853 -1486,-133 -2972,-266 -4457,-399 -1613,345 -3225,689 -4838,1033 -465,483 -683,1272 -1148,1756z" style="fill:#103a63"/>
  <path class="HatG-Mediumfil635new" d="M7709 11316c-106,-2279 -184,-3213 638,-4380 673,-956 4533,-2691 5040,-2243 561,603 1046,3598 246,5547 -1977,83 -3951,427 -5924,1076z" style="fill:#d6f3a8"/>
  <path class="HatG-Mediumfil636new" d="M7709 11316c-106,-2279 -184,-3213 638,-4380 162,-230 509,-506 950,-785 -1513,1132 -1360,3016 -1030,4988 -95,29 -463,146 -558,177z" style="fill:#9065af"/>
  <path class="HatG-Mediumfil637new" d="M13414 4670c126,1861 93,3713 219,5570 2058,-86 4120,111 6188,544 -12,-2183 -460,-3199 -1240,-4202 -324,-418 -1289,-824 -2212,-1251 -1264,-584 -2675,-852 -2955,-661z" style="fill:#cd4d70"/>
  <path class="HatG-Mediumfil638new" d="M18334 6346c102,79 186,157 247,236 780,1003 1228,2019 1240,4202 -73,-15 -421,-108 -494,-123 197,-1798 -506,-3916 -1369,-4522 -13,-8 386,219 376,207z" style="fill:#01f089"/>
  <path class="HatG-Mediumfil33new HatG-Mediumstr0new" d="M7709 11316c-106,-2279 -184,-3213 638,-4380 673,-956 4533,-2691 5040,-2243 200,-234 1671,32 2982,638 923,427 1888,833 2212,1251 780,1003 1228,2019 1240,4202 -4056,-849 -8087,-791 -12112,532z" style="fill:#a1460e"/>
  <path class="HatG-Mediumfil639new HatG-Mediumstr19new" d="M13621 10126c-98,-1837 -80,-3667 -231,-5459" style="fill:#214128"/>
  <path class="HatG-Mediumfil640new" d="M7531 13089c-370,0 -1426,-339 -1009,-1291 518,-1181 5239,-1804 7140,-1941 2666,-192 7392,272 7422,1763 10,530 -464,966 -1303,932 -1065,-1618 -3963,-1937 -6182,-1916 -2113,20 -5501,1171 -6068,2453z" style="fill:#25938a"/>
  <path class="HatG-Mediumfil639new HatG-Mediumstr20new" d="M13209 10079c13,-1387 -159,-3697 -178,-4811 -6,-362 10,-592 65,-630" style="fill:#9ab126"/>
  <path class="HatG-Mediumfil639new HatG-Mediumstr20new" d="M14076 10045c-134,-1380 -165,-3696 -243,-4807 -26,-362 -62,-590 -120,-623" style="fill:#71452d"/>
  <path class="HatG-Mediumfil639new HatG-Mediumstr20new" d="M19199 10436c-4,-2389 -724,-4035 -1871,-4670" style="fill:#92ef34"/>
  <path class="HatG-Mediumfil639new HatG-Mediumstr20new" d="M8439 10844c-402,-2263 -278,-3874 1357,-5006" style="fill:#fb7858"/>
  <path class="HatG-Mediumfil641new" d="M6439 12344c-29,-154 -9,-334 83,-546 518,-1181 5239,-1804 7140,-1941 2666,-192 7392,272 7422,1763 1,55 -3,108 -13,161 -260,-1401 -4812,-1836 -7409,-1650 -1901,137 -6622,760 -7140,1942 -42,97 -69,187 -83,271z" style="fill:#f11300"/>
  <path class="HatG-Mediumfil33new HatG-Mediumstr6new" d="M7531 13089c-370,0 -1426,-339 -1009,-1291 518,-1181 5239,-1804 7140,-1941 2666,-192 7392,272 7422,1763 10,530 -464,966 -1303,932 -1065,-1618 -3963,-1937 -6182,-1916 -2113,20 -5501,1171 -6068,2453z" style="fill:#4fd2a4"/>
 </g></svg>