<svg xmlns="http://www.w3.org/2000/svg" xmlns:xlink="http://www.w3.org/1999/xlink" style="shape-rendering:geometricPrecision; text-rendering:geometricPrecision; image-rendering:optimizeQuality; fill-rule:evenodd; clip-rule:evenodd" version="1.1" viewBox="0 0 29000 29000" xml:space="preserve"><defs><style type="text/css">.HairBack-Dog0fil22 {fill:none}
.Tail-Dog5fil238 {fill:url(#Tail-Dog5id1013)}
.Tail-Dog5fil14 {fill:black;fill-opacity:0.200000}
.Tail-Dog5fil26 {fill:#fffffd}
.Tail-Dog5fil22 {fill:none}
.Tail-Dog5str0 {stroke:black;stroke-width:150;stroke-linecap:round;stroke-linejoin:round}
.RightFoot-Dog0fil26 {fill:#fffffd}
.RightFoot-Dog0fil14 {fill:black;fill-opacity:0.200000}
.RightFoot-Dog0fil22 {fill:none}
.RightFoot-Dog0fil32 {fill:black;fill-rule:nonzero}
.RightLeg-Dog3fil244 {fill:url(#RightLeg-Dog3id52)}
.RightLeg-Dog3fil32 {fill:black;fill-rule:nonzero}
.RightLeg-Dog3fil14 {fill:black;fill-opacity:0.200000}
.LeftFoot-Dog0fil26 {fill:#fffffd}
.LeftFoot-Dog0fil14 {fill:black;fill-opacity:0.200000}
.LeftFoot-Dog0fil22 {fill:none}
.LeftFoot-Dog0fil32 {fill:black;fill-rule:nonzero}
.LeftLeg-Dog3fil250 {fill:url(#LeftLeg-Dog3id53)}
.LeftLeg-Dog3fil32 {fill:black;fill-rule:nonzero}
.LeftLeg-Dog3fil14 {fill:black;fill-opacity:0.200000}
.RightHand-Dog4fil256 {fill:url(#RightHand-Dog4id168)}
.RightHand-Dog4fil257 {fill:url(#RightHand-Dog4id22)}
.RightHand-Dog4fil14 {fill:black;fill-opacity:0.200000}
.RightHand-Dog4fil22 {fill:none}
.RightHand-Dog4str0 {stroke:black;stroke-width:150;stroke-linecap:round;stroke-linejoin:round}
.RightPaw-Dog0fil259 {fill:url(#RightPaw-Dog0id406)}
.RightPaw-Dog0fil14 {fill:black;fill-opacity:0.200000}
.RightPaw-Dog0fil32 {fill:black;fill-rule:nonzero}
.LeftHand-Dog4fil262 {fill:url(#LeftHand-Dog4id426)}
.LeftHand-Dog4fil57 {fill:url(#LeftHand-Dog4id5)}
.LeftHand-Dog4fil14 {fill:black;fill-opacity:0.200000}
.LeftHand-Dog4fil22 {fill:none}
.LeftHand-Dog4str0 {stroke:black;stroke-width:150;stroke-linecap:round;stroke-linejoin:round}
.LeftPaw-Dog0fil265 {fill:url(#LeftPaw-Dog0id974)}
.LeftPaw-Dog0fil14 {fill:black;fill-opacity:0.200000}
.LeftPaw-Dog0fil32 {fill:black;fill-rule:nonzero}
.Body-Dog2fil267 {fill:url(#Body-Dog2id28)}
.Body-Dog2fil14 {fill:black;fill-opacity:0.200000}
.Body-Dog2fil32 {fill:black;fill-rule:nonzero}
.Body-Dog2fil270 {fill:url(#Body-Dog2id279)}
.Head-Dog4fil332 {fill:url(#Head-Dog4id325)}
.Head-Dog4fil337 {fill:url(#Head-Dog4id1031)}
.Head-Dog4fil32 {fill:black;fill-rule:nonzero}
.Head-Dog4fil14 {fill:black;fill-opacity:0.200000}
.Head-Dog4fil338 {fill:white;fill-opacity:0.501961}
.Mouth-Dog0fil100 {fill:black}
.Mouth-Dog0fil22 {fill:none}
.Mouth-Dog0str0 {stroke:black;stroke-width:150;stroke-linecap:round;stroke-linejoin:round}
.Eyes-Dog5fil368 {fill:url(#Eyes-Dog5id916)}
.Eyes-Dog5fil369 {fill:url(#Eyes-Dog5id631)}
.Eyes-Dog5fil370 {fill:url(#Eyes-Dog5id1078)}
.Eyes-Dog5fil152 {fill:white}
.Eyes-Dog5fil157 {fill:black;fill-opacity:0.501961}
.Eyes-Dog5fil371 {fill:url(#Eyes-Dog5id915)}
.Eyes-Dog5fil372 {fill:url(#Eyes-Dog5id622)}
.Eyes-Dog5fil373 {fill:url(#Eyes-Dog5id1076)}
.Eyes-Dog5fil155 {fill:#a87468}
.Eyes-Dog5fil14 {fill:black;fill-opacity:0.200000}
.Eyes-Dog5fil22 {fill:none}
.Eyes-Dog5str4 {stroke:black;stroke-width:150}
.Moustache-Dog1fil100 {fill:black}
.Nose-Dog0fil416 {fill:url(#Nose-Dog0id907)}
.Nose-Dog0str0 {stroke:black;stroke-width:150;stroke-linecap:round;stroke-linejoin:round}
.BraceletLeather-Mediumfil43new {fill:white;fill-opacity:0.200000}
.BraceletLeather-Mediumfil46new {fill:white;fill-rule:nonzero;fill-opacity:0.200000}
.BraceletLeather-Mediumfil42new {fill:url(#BraceletLeather-Mediumid14new)}
.BraceletLeather-Mediumstr3new {stroke:black;stroke-width:100;stroke-linecap:round;stroke-linejoin:round}
.BraceletLeather-Mediumfil33new {fill:none}
.BraceletLeather-Mediumfil44new {fill:url(#BraceletLeather-Mediumid88new)}
.BraceletLeather-Mediumfil45new {fill:url(#BraceletLeather-Mediumid672new);fill-rule:nonzero}
.BraceletLeather-Mediumstr4new {stroke:black;stroke-width:100}
.BraceletLeather-Mediumfil47new {fill:none;fill-rule:nonzero}
.BraceletLeather-Mediumfil48new {fill:url(#BraceletLeather-Mediumid15new)}
.BraceletLeather-Mediumfil49new {fill:url(#BraceletLeather-Mediumid207new)}
.BraceletLeather-Mediumfil50new {fill:url(#BraceletLeather-Mediumid690new);fill-rule:nonzero}
.NecklaceButterflyfil270new {fill:url(#NecklaceButterflyid34new)}
.NecklaceButterflyfil32new {fill:white;fill-opacity:0.301961}
.NecklaceButterflyfil271new {fill:black;fill-opacity:0.501961}
.NecklaceButterflyfil273new {fill:url(#NecklaceButterflyid119new)}
.NecklaceButterflyfil274new {fill:url(#NecklaceButterflyid588new)}
.NecklaceButterflyfil269new {fill:url(#NecklaceButterflyid166new)}
.NecklaceButterflystr0new {stroke:black;stroke-width:150;stroke-linecap:round;stroke-linejoin:round}
.NecklaceButterflyfil33new {fill:none}
.NecklaceButterflyfil272new {fill:url(#NecklaceButterflyid2new)}
.HatFedora-Mediumfil14 {fill:black;fill-opacity:0.301961}
.HatFedora-Mediumfil29 {fill:black;fill-opacity:0.200000}
.HatFedora-Mediumfil40 {fill:url(#HatFedora-Mediumid9)}
.HatFedora-Mediumfil34 {fill:white;fill-opacity:0.200000}
.HatFedora-Mediumfil35 {fill:black;fill-rule:nonzero}
.HatFedora-Mediumfil36 {fill:url(#HatFedora-Mediumid5)}
.HatFedora-Mediumstr1 {stroke:black;stroke-width:150}
.HatFedora-Mediumfil37 {fill:url(#HatFedora-Mediumid21)}
.HatFedora-Mediumstr2 {stroke:black;stroke-width:150;stroke-linecap:round;stroke-linejoin:round}
.HatFedora-Mediumfil38 {fill:url(#HatFedora-Mediumid18)}
.HatFedora-Mediumfil39 {fill:url(#HatFedora-Mediumid25)}
.HatFedora-Mediumfil2 {fill:none}
</style><linearGradient gradientUnits="userSpaceOnUse" id="Tail-Dog5id1013" x1="15375.6" x2="19587.5" xlink:href="#Tail-Dog5id74" y1="23953.7" y2="19621.3">
  </linearGradient><linearGradient gradientUnits="objectBoundingBox" id="RightLeg-Dog3id52" x1="50%" x2="50%" xlink:href="#RightLeg-Dog3id19" y1="100%" y2="0%">
  </linearGradient><linearGradient gradientUnits="userSpaceOnUse" id="LeftLeg-Dog3id53" x1="11645.9" x2="11645.9" xlink:href="#LeftLeg-Dog3id19" y1="24199" y2="20934.6">
  </linearGradient><linearGradient gradientUnits="objectBoundingBox" id="RightHand-Dog4id168" x1="19.8228%" x2="80.1772%" y1="10.3299%" y2="89.6698%">
   <stop offset="0" style="stop-opacity:1; stop-color:#d9d9cc"/>
   <stop offset="0.0196078" style="stop-opacity:1; stop-color:#d9d9cc"/>
   <stop offset="0.721569" style="stop-opacity:1; stop-color:#fffffc"/>
   <stop offset="1" style="stop-opacity:1; stop-color:#fffffc"/>
  </linearGradient><linearGradient gradientUnits="userSpaceOnUse" id="RightHand-Dog4id22" x1="16885.8" x2="16885.8" xlink:href="#RightHand-Dog4id5" y1="17625.4" y2="19553.4">
  </linearGradient><linearGradient gradientUnits="userSpaceOnUse" id="RightPaw-Dog0id406" x1="18770.8" x2="18008.4" y1="21729.1" y2="19634.5">
   <stop offset="0" style="stop-opacity:1; stop-color:#ffffff"/>
   <stop offset="0.701961" style="stop-opacity:1; stop-color:#fffffc"/>
   <stop offset="1" style="stop-opacity:1; stop-color:#fffffc"/>
  </linearGradient><linearGradient gradientUnits="objectBoundingBox" id="LeftHand-Dog4id426" x1="80.1772%" x2="19.8228%" xlink:href="#LeftHand-Dog4id168" y1="10.3299%" y2="89.6698%">
  </linearGradient><linearGradient gradientUnits="objectBoundingBox" id="LeftHand-Dog4id5" x1="50%" x2="50%" y1="0%" y2="100%">
   <stop offset="0" style="stop-opacity:1; stop-color:#a87468"/>
   <stop offset="1" style="stop-opacity:1; stop-color:#cf9f95"/>
  </linearGradient><linearGradient gradientUnits="userSpaceOnUse" id="LeftPaw-Dog0id974" x1="8449.46" x2="9499.06" xlink:href="#LeftPaw-Dog0id406" y1="21712.6" y2="19651">
  </linearGradient><linearGradient gradientUnits="objectBoundingBox" id="Body-Dog2id28" x1="50%" x2="50%" y1="0%" y2="100%">
   <stop offset="0" style="stop-opacity:1; stop-color:#d9d9cc"/>
   <stop offset="0.101961" style="stop-opacity:1; stop-color:#d9d9cc"/>
   <stop offset="0.521569" style="stop-opacity:1; stop-color:#fffffc"/>
   <stop offset="1" style="stop-opacity:1; stop-color:#ffffff"/>
  </linearGradient><linearGradient gradientUnits="userSpaceOnUse" id="Body-Dog2id279" x1="13696.6" x2="13696.6" y1="17098.5" y2="22390.1">
   <stop offset="0" style="stop-opacity:1; stop-color:#f2f2e4"/>
   <stop offset="0.14902" style="stop-opacity:1; stop-color:#f2f2e4"/>
   <stop offset="0.619608" style="stop-opacity:1; stop-color:#fffffd"/>
   <stop offset="1" style="stop-opacity:1; stop-color:#fffffd"/>
  </linearGradient><linearGradient gradientUnits="objectBoundingBox" id="Head-Dog4id325" x1="50%" x2="50%" xlink:href="#Head-Dog4id35" y1="99.9999%" y2="0%">
  </linearGradient><linearGradient gradientUnits="userSpaceOnUse" id="Head-Dog4id1031" x1="13681.9" x2="13681.9" xlink:href="#Head-Dog4id5" y1="15841.5" y2="11572">
  </linearGradient><linearGradient gradientUnits="userSpaceOnUse" id="Eyes-Dog5id916" x1="10862.9" x2="10060.5" xlink:href="#Eyes-Dog5id27" y1="14930.3" y2="11447.3">
  </linearGradient><linearGradient gradientUnits="userSpaceOnUse" id="Eyes-Dog5id631" x1="8950.06" x2="12138.2" xlink:href="#Eyes-Dog5id57" y1="13083.2" y2="13083.2">
  </linearGradient><radialGradient cx="10734.8" cy="12890.7" fx="10734.8" fy="12890.7" gradientTransform="matrix(0.251286 1.15858 -1.06367 0.273709 21749 -3075)" gradientUnits="userSpaceOnUse" id="Eyes-Dog5id1078" r="1231.67" xlink:href="#Eyes-Dog5id1055">
  </radialGradient><linearGradient gradientUnits="userSpaceOnUse" id="Eyes-Dog5id915" x1="16500.9" x2="17303.4" xlink:href="#Eyes-Dog5id27" y1="14930.3" y2="11447.3">
  </linearGradient><linearGradient gradientUnits="userSpaceOnUse" id="Eyes-Dog5id622" x1="18413.8" x2="15225.6" xlink:href="#Eyes-Dog5id57" y1="13083.2" y2="13083.2">
  </linearGradient><radialGradient cx="16629.1" cy="12890.7" fx="16629.1" fy="12890.7" gradientTransform="matrix(-0.251286 1.15858 1.06367 0.273709 7096 -9904)" gradientUnits="userSpaceOnUse" id="Eyes-Dog5id1076" r="1231.67" xlink:href="#Eyes-Dog5id1055">
  </radialGradient><linearGradient gradientUnits="userSpaceOnUse" id="Nose-Dog0id907" x1="13681.9" x2="13681.9" xlink:href="#Nose-Dog0id451" y1="14020.2" y2="14838.5">
  </linearGradient><linearGradient gradientUnits="userSpaceOnUse" id="BraceletLeather-Mediumid14new" x1="8682.96" x2="8745.92" y1="19682.8" y2="19053.1">
   <stop offset="0" style="stop-opacity:1; stop-color:#683501"/>
   <stop offset="1" style="stop-opacity:1; stop-color:#B08227"/>
  </linearGradient><linearGradient gradientUnits="userSpaceOnUse" id="BraceletLeather-Mediumid88new" x1="8626.8" x2="8294.02" xlink:href="#BraceletLeather-Mediumid14new" y1="19859" y2="19314.4">
  </linearGradient><linearGradient gradientUnits="userSpaceOnUse" id="BraceletLeather-Mediumid672new" x1="8784.44" x2="10049.5" y1="19759" y2="20796.3">
   <stop offset="0" style="stop-opacity:1; stop-color:#643300"/>
   <stop offset="0.321569" style="stop-opacity:1; stop-color:#B5872A"/>
   <stop offset="1" style="stop-opacity:1; stop-color:#643300"/>
  </linearGradient><linearGradient gradientUnits="userSpaceOnUse" id="BraceletLeather-Mediumid15new" x1="18680.9" x2="18617.9" xlink:href="#BraceletLeather-Mediumid14new" y1="19682.8" y2="19053.1">
  </linearGradient><linearGradient gradientUnits="userSpaceOnUse" id="BraceletLeather-Mediumid207new" x1="18737" x2="19069.8" xlink:href="#BraceletLeather-Mediumid14new" y1="19859" y2="19314.4">
  </linearGradient><linearGradient gradientUnits="userSpaceOnUse" id="BraceletLeather-Mediumid690new" x1="18579.4" x2="17314.3" xlink:href="#BraceletLeather-Mediumid672new" y1="19759" y2="20796.3">
  </linearGradient><linearGradient gradientUnits="userSpaceOnUse" id="NecklaceButterflyid34new" x1="12811.4" x2="12143.9" y1="19517.3" y2="17944.9">
   <stop offset="0" style="stop-opacity:1; stop-color:black"/>
   <stop offset="0.6" style="stop-opacity:1; stop-color:#424242"/>
   <stop offset="1" style="stop-opacity:1; stop-color:#858585"/>
  </linearGradient><linearGradient gradientUnits="userSpaceOnUse" id="NecklaceButterflyid119new" x1="14552.4" x2="15219.9" xlink:href="#NecklaceButterflyid34new" y1="19517.3" y2="17944.9">
  </linearGradient><linearGradient gradientUnits="userSpaceOnUse" id="NecklaceButterflyid588new" x1="13681.9" x2="13681.9" xlink:href="#NecklaceButterflyid2new" y1="18978.3" y2="18091.1">
  </linearGradient><linearGradient gradientUnits="userSpaceOnUse" id="NecklaceButterflyid166new" x1="12231.1" x2="12231.1" xlink:href="#NecklaceButterflyid2new" y1="18513" y2="17222">
  </linearGradient><linearGradient gradientUnits="userSpaceOnUse" id="HatFedora-Mediumid9" x1="7659.63" x2="19704.3" xlink:href="#HatFedora-Mediumid7" y1="10519.2" y2="10519.2">
  </linearGradient><linearGradient gradientUnits="userSpaceOnUse" id="HatFedora-Mediumid5" x1="7309.93" x2="20053.9" xlink:href="#HatFedora-Mediumid3" y1="9314.49" y2="13151.8">
  </linearGradient><linearGradient gradientUnits="userSpaceOnUse" id="HatFedora-Mediumid21" x1="5667.01" x2="10810.5" xlink:href="#HatFedora-Mediumid8" y1="10845" y2="11626.8">
  </linearGradient><linearGradient gradientUnits="userSpaceOnUse" id="HatFedora-Mediumid18" x1="16553.4" x2="21696.8" xlink:href="#HatFedora-Mediumid13" y1="10845" y2="11626.8">
  </linearGradient><linearGradient gradientUnits="userSpaceOnUse" id="HatFedora-Mediumid25" x1="8895.72" x2="18468.2" xlink:href="#HatFedora-Mediumid3" y1="6260.45" y2="10415.4">
  </linearGradient><linearGradient gradientUnits="userSpaceOnUse" id="Tail-Dog5id74" x1="15961" x2="18418.2" y1="23174.1" y2="17871.9">
   <stop offset="0" style="stop-opacity:1; stop-color:#d9d9cc"/>
   <stop offset="1" style="stop-opacity:1; stop-color:#fffffc"/>
  </linearGradient><linearGradient gradientUnits="userSpaceOnUse" id="RightLeg-Dog3id19" x1="15490.3" x2="15490.3" y1="24284.1" y2="21188.2">
   <stop offset="0" style="stop-opacity:1; stop-color:#ffffff"/>
   <stop offset="0.439216" style="stop-opacity:1; stop-color:#ffffff"/>
   <stop offset="1" style="stop-opacity:1; stop-color:#fffffc"/>
  </linearGradient><linearGradient gradientUnits="userSpaceOnUse" id="LeftLeg-Dog3id19" x1="15490.3" x2="15490.3" y1="24284.1" y2="21188.2">
   <stop offset="0" style="stop-opacity:1; stop-color:#ffffff"/>
   <stop offset="0.439216" style="stop-opacity:1; stop-color:#ffffff"/>
   <stop offset="1" style="stop-opacity:1; stop-color:#fffffc"/>
  </linearGradient><linearGradient gradientUnits="objectBoundingBox" id="RightHand-Dog4id5" x1="50%" x2="50%" y1="0%" y2="100%">
   <stop offset="0" style="stop-opacity:1; stop-color:#a87468"/>
   <stop offset="1" style="stop-opacity:1; stop-color:#cf9f95"/>
  </linearGradient><linearGradient gradientUnits="objectBoundingBox" id="LeftHand-Dog4id168" x1="19.8228%" x2="80.1772%" y1="10.3299%" y2="89.6698%">
   <stop offset="0" style="stop-opacity:1; stop-color:#d9d9cc"/>
   <stop offset="0.0196078" style="stop-opacity:1; stop-color:#d9d9cc"/>
   <stop offset="0.721569" style="stop-opacity:1; stop-color:#fffffc"/>
   <stop offset="1" style="stop-opacity:1; stop-color:#fffffc"/>
  </linearGradient><linearGradient gradientUnits="userSpaceOnUse" id="LeftPaw-Dog0id406" x1="18770.8" x2="18008.4" y1="21729.1" y2="19634.5">
   <stop offset="0" style="stop-opacity:1; stop-color:#ffffff"/>
   <stop offset="0.701961" style="stop-opacity:1; stop-color:#fffffc"/>
   <stop offset="1" style="stop-opacity:1; stop-color:#fffffc"/>
  </linearGradient><linearGradient gradientUnits="userSpaceOnUse" id="Head-Dog4id35" x1="13681.9" x2="13681.9" y1="17936.7" y2="7484.8">
   <stop offset="0" style="stop-opacity:1; stop-color:#d9d9cc"/>
   <stop offset="0.4" style="stop-opacity:1; stop-color:#fffffc"/>
   <stop offset="1" style="stop-opacity:1; stop-color:#ffffff"/>
  </linearGradient><linearGradient gradientUnits="objectBoundingBox" id="Head-Dog4id5" x1="50%" x2="50%" y1="0%" y2="100%">
   <stop offset="0" style="stop-opacity:1; stop-color:#a87468"/>
   <stop offset="1" style="stop-opacity:1; stop-color:#cf9f95"/>
  </linearGradient><linearGradient gradientUnits="userSpaceOnUse" id="Eyes-Dog5id27" x1="16937.6" x2="16937.6" y1="14961.3" y2="11448.6">
   <stop offset="0" style="stop-opacity:1; stop-color:#804400"/>
   <stop offset="1" style="stop-opacity:1; stop-color:black"/>
  </linearGradient><linearGradient gradientUnits="objectBoundingBox" id="Eyes-Dog5id57" x1="100%" x2="0%" y1="50.0003%" y2="50.0003%">
   <stop offset="0" style="stop-opacity:1; stop-color:#804400"/>
   <stop offset="0.501961" style="stop-opacity:1; stop-color:#ff8700"/>
   <stop offset="1" style="stop-opacity:1; stop-color:#804400"/>
  </linearGradient><radialGradient cx="16677.2" cy="12783.5" fx="16677.2" fy="12783.5" gradientTransform="matrix(-0.257879 1.16297 1.08696 0.253253 7083 -9849)" gradientUnits="userSpaceOnUse" id="Eyes-Dog5id1055" r="1194.51">
   <stop offset="0" style="stop-opacity:1; stop-color:#663600"/>
   <stop offset="0.75" style="stop-opacity:1; stop-color:black"/>
   <stop offset="1" style="stop-opacity:1; stop-color:black"/>
  </radialGradient><linearGradient gradientUnits="userSpaceOnUse" id="Nose-Dog0id451" x1="13653.8" x2="13653.8" y1="14108.6" y2="14926.9">
   <stop offset="0" style="stop-opacity:1; stop-color:#FFCCCC"/>
   <stop offset="1" style="stop-opacity:1; stop-color:#453F2C"/>
  </linearGradient><linearGradient gradientUnits="userSpaceOnUse" id="NecklaceButterflyid2new" x1="15132.8" x2="15132.8" y1="18513" y2="17222">
   <stop offset="0" style="stop-opacity:1; stop-color:black"/>
   <stop offset="1" style="stop-opacity:1; stop-color:#858585"/>
  </linearGradient><linearGradient gradientUnits="userSpaceOnUse" id="HatFedora-Mediumid7" x1="8510.55" x2="18853.4" y1="11561.2" y2="11561.2">
   <stop offset="0" style="stop-opacity:1; stop-color:#343434"/>
   <stop offset="0.231373" style="stop-opacity:1; stop-color:#2B2B2B"/>
   <stop offset="0.709804" style="stop-opacity:1; stop-color:#787878"/>
   <stop offset="1" style="stop-opacity:1; stop-color:#414142"/>
  </linearGradient><linearGradient gradientUnits="userSpaceOnUse" id="HatFedora-Mediumid3" x1="7309.93" x2="20053.9" y1="8514.49" y2="12351.8">
   <stop offset="0" style="stop-opacity:1; stop-color:#573410"/>
   <stop offset="0.478431" style="stop-opacity:1; stop-color:#A6794E"/>
   <stop offset="0.768627" style="stop-opacity:1; stop-color:#C8A77A"/>
   <stop offset="1" style="stop-opacity:1; stop-color:#A88460"/>
  </linearGradient><linearGradient gradientUnits="userSpaceOnUse" id="HatFedora-Mediumid8" x1="6799.48" x2="11216.2" y1="11840.9" y2="12512.2">
   <stop offset="0" style="stop-opacity:1; stop-color:#805325"/>
   <stop offset="0.768627" style="stop-opacity:1; stop-color:#C8A77A"/>
   <stop offset="1" style="stop-opacity:1; stop-color:#A88460"/>
  </linearGradient><linearGradient gradientUnits="userSpaceOnUse" id="HatFedora-Mediumid13" x1="16553.4" x2="21696.8" y1="10045" y2="10826.8">
   <stop offset="0" style="stop-opacity:1; stop-color:#805325"/>
   <stop offset="0.768627" style="stop-opacity:1; stop-color:#E8C697"/>
   <stop offset="1" style="stop-opacity:1; stop-color:#B8936E"/>
  </linearGradient></defs><g id="HairBack-Dog0">
 <animateTransform additive="sum" attributeName="transform" dur="10" repeatCount="indefinite" type="translate" values="0;0 200;0;0 200;0;0 200;0;0 200;0"/>
  <metadata id="CorelCorpID_115Corel-Layer"/>
  <rect class="HairBack-Dog0fil22" height="890" width="890" x="13237" y="6590"/>
 </g><g id="Tail-Dog5">
  <metadata id="CorelCorpID_122Corel-Layer"/>
  <path class="Tail-Dog5fil238" d="M13724 21721c1720,1554 3028,1087 3640,-286 576,-1294 2167,-3016 5034,-2164 -1013,241 -695,2249 -1754,3591 -1340,1700 -4862,2670 -8024,64 -297,-194 678,-1500 1104,-1205z" style="fill:#9e572b"/>
  <path class="Tail-Dog5fil14" d="M20992 22313c-97,191 -211,376 -348,549 -1331,1689 -4815,2656 -7960,116l1080 -897c1836,2003 5794,2346 7228,232z" style="fill:#87a1a9"/>
  <path class="Tail-Dog5fil26" d="M19109 19499c819,-451 1905,-639 3289,-228 -673,160 -759,1101 -1051,2108 -269,64 -664,27 -893,-190 -332,-317 -196,-957 -495,-1397 -177,-260 -564,-302 -850,-293z" style="fill:#23e489"/>
  <path class="Tail-Dog5fil22 Tail-Dog5str0" d="M13724 21721c1720,1554 3028,1087 3640,-286 576,-1294 2167,-3016 5034,-2164 -950,319 -695,2249 -1754,3591 -1340,1700 -4862,2670 -8024,64 -297,-194 678,-1500 1104,-1205z" style="fill:#5c355d"/>
 </g><g id="RightFoot-Dog0">
  <metadata id="CorelCorpID_125Corel-Layer"/>
  <path class="RightFoot-Dog0fil26" d="M17461 25232c-144,249 -469,331 -709,123 -82,82 -321,169 -611,76 -475,-152 -678,-627 -1088,-897 -209,-138 -43,-480 -31,-702 205,68 639,20 960,-216 332,-245 1043,-199 820,325 153,50 376,135 488,193 178,92 308,217 397,350 166,246 124,748 -226,748z" style="fill:#44869f"/>
  <path class="RightFoot-Dog0fil14" d="M17461 25232c-144,249 -469,331 -709,123 -82,82 -321,169 -611,76 -475,-152 -678,-627 -1088,-897 -182,-120 -106,-408 -68,-624 13,30 66,32 88,19 2,85 -1,160 50,261 317,621 1468,1311 1612,663 247,396 693,243 634,-148 151,250 332,57 232,-294 150,96 185,309 179,486 -21,178 -124,335 -319,335z" style="fill:#1c63a9"/>
  <path class="RightFoot-Dog0fil22" d="M16741 23949c560,135 807,327 949,532 170,244 121,751 -229,751 -144,249 -469,331 -709,123 -82,82 -321,169 -611,76 -475,-152 -614,-562 -1018,-844 -201,-140 -166,-401 -134,-554" style="fill:#06741c"/>
  <path class="RightFoot-Dog0fil32" d="M17378 25213c0,3 0,7 0,10 -59,86 -148,149 -252,169 -84,16 -174,3 -257,-45l-12 -8c47,-255 19,-572 -334,-636 167,118 191,399 163,611 -41,33 -116,65 -215,77 -89,11 -194,6 -307,-31 -265,-85 -423,-261 -589,-447 -277,-311 -611,-400 -512,-864 8,-41 -28,-86 -58,-89 -24,-2 -80,17 -89,58 -91,430 90,572 327,781 71,62 146,130 221,214 180,201 350,392 654,490 137,43 264,50 371,37 108,-13 199,-49 262,-89l3 0c116,81 258,115 400,88 143,-28 268,-114 349,-234 151,-15 258,-113 313,-251 29,-74 44,-157 44,-240 0,-135 -38,-275 -108,-376 -77,-110 -181,-216 -341,-313 -143,-86 -331,-165 -584,-231 -71,-19 -105,8 -131,48 -23,34 -14,70 26,80 271,65 468,144 612,231 139,84 229,176 295,271 53,76 81,183 81,290 0,66 -11,130 -33,185 -25,64 -65,112 -119,138 13,-317 -128,-634 -466,-624 219,111 313,298 286,700z" style="fill:#1be861"/>
 </g><g id="LeftFoot-Dog0">
  <metadata id="CorelCorpID_133Corel-Layer"/>
  <path class="LeftFoot-Dog0fil26" d="M9847 25232c143,249 468,331 709,123 82,82 321,169 611,76 475,-152 678,-627 1088,-897 208,-138 43,-480 31,-702 -240,73 -640,20 -960,-216 -332,-245 -1043,-199 -821,325 -152,50 -375,135 -487,193 -178,92 -308,217 -398,350 -165,246 -124,748 227,748z" style="fill:#320145"/>
  <path class="LeftFoot-Dog0fil14" d="M9847 25232c143,249 468,331 709,123 82,82 321,169 611,76 475,-152 678,-627 1088,-897 181,-120 105,-408 68,-624 -13,30 -66,32 -88,19 -2,85 1,160 -50,261 -318,621 -1468,1311 -1612,663 -248,396 -693,243 -634,-148 -151,250 -333,57 -232,-294 -150,96 -186,309 -179,486 20,178 124,335 319,335z" style="fill:#8a12c4"/>
  <path class="LeftFoot-Dog0fil22" d="M10566 23949c-559,135 -807,327 -949,532 -169,244 -121,751 230,751 143,249 468,331 709,123 82,82 321,169 611,76 475,-152 614,-562 1017,-844 201,-140 167,-401 134,-554" style="fill:#74de4e"/>
  <path class="LeftFoot-Dog0fil32" d="M9929 25213c1,3 1,7 0,10 59,86 149,149 253,169 84,16 174,3 257,-45l12 -8c-48,-255 -19,-572 333,-636 -166,118 -190,399 -162,611 41,33 116,65 215,77 89,11 193,6 307,-31 265,-85 423,-261 588,-447 278,-311 612,-400 513,-864 -9,-41 27,-86 58,-89 23,-2 80,17 88,58 119,558 -222,630 -547,995 -180,201 -351,392 -655,490 -137,43 -263,50 -370,37 -109,-13 -200,-49 -262,-89l-3 0c-116,81 -259,115 -401,88 -143,-28 -267,-114 -348,-234 -151,-15 -258,-113 -313,-251 -30,-74 -44,-157 -44,-240 0,-135 38,-275 108,-376 76,-110 181,-216 341,-313 142,-86 330,-165 584,-231 71,-19 105,8 131,48 22,34 14,70 -26,80 -271,65 -468,144 -612,231 -139,84 -230,176 -295,271 -53,76 -81,183 -81,290 0,66 11,130 32,185 26,64 65,112 120,138 -13,-317 128,-634 466,-624 -219,111 -313,298 -287,700z" style="fill:#c24066"/>
 </g><g id="RightLeg-Dog3">
  <metadata id="CorelCorpID_130Corel-Layer"/>
  <path class="RightLeg-Dog3fil244" d="M13654 20939c701,0 2353,-56 2710,226 217,172 606,562 807,1087 138,362 89,1043 499,1102 -216,231 -510,211 -606,59 -64,135 -17,492 320,502 -245,186 -489,136 -666,145 -130,7 -316,95 -419,132 -472,76 -697,-507 -1295,-235 -116,181 -336,152 -424,46 166,-22 251,-457 65,-636 -275,-262 -701,-202 -991,-207l0 -2221z" style="fill:#6eb8a2"/>
  <path class="RightLeg-Dog3fil32" d="M16410 21106c-32,-26 -79,-20 -105,12 -26,33 -20,80 12,105 123,97 302,266 470,491 238,322 333,554 402,938 53,300 109,613 331,732 -310,203 -479,-118 -525,0 -15,40 -28,89 -30,144 -4,165 82,355 287,415 -57,64 -285,110 -481,116 178,53 528,88 680,-149 28,-44 -79,-40 -185,-93 -105,-52 -158,-161 -163,-266 252,131 668,-84 644,-176 -21,-84 -327,-153 -411,-749 -73,-408 -177,-661 -429,-1001 -177,-237 -367,-416 -497,-519zm-1364 2763c-28,-17 -140,141 -267,144 -22,0 -43,-3 -63,-9 41,-46 72,-112 90,-186 41,-167 20,-381 -110,-505 -252,-240 -604,-234 -891,-229 -53,1 -105,2 -151,1l0 75 0 74c48,1 99,0 153,-1 260,-4 578,-10 786,189 89,84 95,248 68,361 -48,202 -177,228 -139,273 62,75 164,105 260,103 86,-2 158,-30 215,-80 11,-9 55,9 59,-4 15,-51 40,-176 -10,-206z" style="fill:#c8bc07"/>
  <path class="RightLeg-Dog3fil14" d="M17654 23400c-221,-66 -356,-315 -355,-474 2,-775 -541,-1451 -869,-1752 -191,187 -276,614 -134,870 282,-301 604,234 760,766 58,196 45,581 598,590z" style="fill:#7d7928"/>
  <path class="RightLeg-Dog3fil14" d="M17259 23943c-221,-66 -189,-413 -189,-571 -211,-104 -133,-392 -496,-540 304,342 -14,1131 685,1111z" style="fill:#aa28fe"/>
  <path class="RightLeg-Dog3fil14" d="M14716 24004c220,-96 333,-421 301,-613 85,143 89,358 57,537 -42,146 -298,160 -358,76z" style="fill:#53ac4e"/>
 </g><g id="LeftLeg-Dog3">
  <metadata id="CorelCorpID_138Corel-Layer"/>
  <path class="LeftLeg-Dog3fil250" d="M13654 20939c-701,0 -2353,-56 -2710,226 -217,172 -606,562 -807,1087 -139,362 -89,1043 -499,1102 216,231 510,211 605,59 64,135 17,492 -319,502 244,186 488,136 666,145 129,7 316,95 419,132 472,76 697,-507 1294,-235 117,181 337,152 424,46 -165,-22 -251,-457 -64,-636 275,-262 701,-202 991,-207l0 -2221z" style="fill:#3e7284"/>
  <path class="LeftLeg-Dog3fil32" d="M10898 21106c32,-26 79,-20 105,12 25,33 20,80 -13,105 -122,97 -301,266 -469,491 -238,322 -333,554 -402,938 -53,300 -109,613 -331,732 309,203 479,-118 525,0 15,40 28,89 29,144 5,165 -81,355 -286,415 56,64 284,110 480,116 -178,53 -527,88 -679,-149 -29,-44 79,-40 185,-93 105,-52 158,-161 162,-266 -251,131 -667,-84 -644,-176 22,-84 327,-153 411,-749 73,-408 178,-661 430,-1001 176,-237 366,-416 497,-519zm1364 2763c28,-17 140,141 267,144 21,0 43,-3 62,-9 -40,-46 -71,-112 -90,-186 -41,-167 -19,-381 110,-505 252,-240 605,-234 892,-229 53,1 105,2 151,1l0 75 0 74c-48,1 -100,0 -153,-1 -260,-4 -579,-10 -786,189 -89,84 -95,248 -68,361 48,202 177,228 138,273 -61,75 -163,105 -259,103 -86,-2 -158,-30 -216,-80 -10,-9 -55,9 -59,-4 -14,-51 -39,-176 11,-206z" style="fill:#96ea9a"/>
  <path class="LeftLeg-Dog3fil14" d="M9653 23400c221,-66 356,-315 356,-474 -2,-775 540,-1451 869,-1752 190,187 275,614 134,870 -283,-301 -604,234 -760,766 -58,196 -46,581 -599,590z" style="fill:#a1dd26"/>
  <path class="LeftLeg-Dog3fil14" d="M10049 23943c221,-66 189,-413 189,-571 210,-104 133,-392 496,-540 -304,342 14,1131 -685,1111z" style="fill:#b1eed6"/>
  <path class="LeftLeg-Dog3fil14" d="M12591 24004c-220,-96 -332,-421 -300,-613 -86,143 -89,358 -58,537 43,146 299,160 358,76z" style="fill:#20fd40"/>
 </g><g id="RightHand-Dog4">
 <animateTransform additive="sum" attributeName="transform" dur="10" repeatCount="indefinite" type="translate" values="0;0 200;0;0 200;0;0 200;0;0 200;0"/>
  <metadata id="CorelCorpID_144Corel-Layer"/>
  <path class="RightHand-Dog4fil256" d="M15619 17715c247,-7 498,-52 659,-90 985,362 1779,1397 2210,2149 289,504 -636,1265 -911,1014 -400,-366 -786,-483 -1129,-559 -358,-79 -514,-1818 -829,-2514z" style="fill:#b5944e"/>
  <path class="RightHand-Dog4fil257" d="M15846 17699c166,-18 321,-47 432,-74 649,238 1214,768 1648,1317 -22,483 -677,797 -1040,490 -461,-391 -268,-1164 -1040,-1733z" style="fill:#90b024"/>
  <path class="RightHand-Dog4fil22 RightHand-Dog4str0" d="M16041 17553c1079,269 1932,1403 2397,2213m-861 1022c-394,-360 -769,-512 -1113,-557" style="fill:#f33c17"/>
  <path class="RightHand-Dog4fil14" d="M17401 20669c-249,-249 -500,-372 -822,-396 -156,-175 -225,-650 -133,-901 308,435 716,808 1104,1031 -30,84 -75,162 -148,228 0,12 -1,25 -1,38z" style="fill:#91f2b6"/>
 </g><g id="LeftHand-Dog4">
 <animateTransform additive="sum" attributeName="transform" dur="10" repeatCount="indefinite" type="translate" values="0;0 200;0;0 200;0;0 200;0;0 200;0"/>
  <metadata id="CorelCorpID_152Corel-Layer"/>
  <path class="LeftHand-Dog4fil262" d="M11744 17715c-246,-7 -497,-52 -658,-90 -985,362 -1779,1397 -2210,2149 -289,504 636,1265 911,1014 400,-366 786,-483 1129,-559 358,-79 514,-1818 828,-2514z" style="fill:#f6c542"/>
  <path class="LeftHand-Dog4fil57" d="M11518 17699c-166,-18 -321,-47 -432,-74 -649,238 -1214,768 -1648,1317 22,483 677,797 1040,490 461,-391 268,-1164 1040,-1733z" style="fill:#68bd34"/>
  <path class="LeftHand-Dog4fil22 LeftHand-Dog4str0" d="M11323 17553c-1079,269 -1933,1403 -2397,2213m861 1022c394,-360 769,-512 1113,-557" style="fill:#3efe6e"/>
  <path class="LeftHand-Dog4fil14" d="M9963 20669c249,-249 500,-372 821,-396 157,-175 226,-650 134,-901 -308,435 -717,808 -1104,1031 30,84 75,162 148,228 0,12 1,25 1,38z" style="fill:#0805e9"/>
 </g><g id="Body-Dog2">
 <animateTransform additive="sum" attributeName="transform" dur="10" repeatCount="indefinite" type="translate" values="0;0 200;0;0 200;0;0 200;0;0 200;0"/>
  <metadata id="CorelCorpID_159Corel-Layer"/>
  <path class="Body-Dog2fil267" d="M13682 23035c-1548,0 -2752,-291 -2993,-1956 -146,-1010 387,-2357 984,-3487 334,54 1089,70 2009,70 920,0 1675,-16 2008,-70 598,1130 1131,2477 985,3487 -242,1665 -1445,1956 -2993,1956z" style="fill:#502da8"/>
  <path class="Body-Dog2fil14" d="M12620 22967c-1015,-156 -1748,-629 -1931,-1888 -72,-498 21,-1078 206,-1674 -224,2001 425,3224 1725,3562z" style="fill:#0d6bde"/>
  <path class="Body-Dog2fil14" d="M14743 22967c1016,-156 1749,-629 1932,-1888 72,-498 -21,-1078 -206,-1674 224,2001 -425,3224 -1726,3562z" style="fill:#12002e"/>
  <path class="Body-Dog2fil32" d="M11012 22044c-250,-321 -348,-641 -397,-954 -59,-377 -28,-1005 180,-1327 -79,420 -89,912 -32,1305 50,341 104,572 249,976z" style="fill:#4c6c45"/>
  <path class="Body-Dog2fil32" d="M16352 22044c250,-321 347,-641 397,-954 59,-377 24,-998 -184,-1320 78,421 93,905 36,1298 -50,341 -104,572 -249,976z" style="fill:#863079"/>
  <path class="Body-Dog2fil14" d="M13682 17939c-855,0 -1811,-224 -2306,-506 -582,280 -513,1744 -476,2382 -13,187 25,527 140,597 321,-315 328,1111 1503,1400 167,-513 543,791 1716,887 -156,-643 979,-1867 819,-868 1238,-572 1099,-2148 1268,-1506 48,-74 131,-155 126,-424 -4,-566 144,-2167 -403,-2459 -494,282 -1532,497 -2387,497z" style="fill:#bf5fc6"/>
  <path class="Body-Dog2fil270" d="M13682 17604c-855,0 -1811,-224 -2306,-505 -582,279 -986,998 -949,1636 34,609 289,1095 648,1329 31,-265 163,-465 284,-582 -265,830 336,1772 1035,2030 -82,-280 31,-672 224,-885 -18,657 608,1638 1492,1763 19,-701 698,-522 648,-1834 174,398 513,547 428,960 498,-278 1125,-1245 860,-2075 147,90 327,306 350,549 367,-249 577,-789 573,-1463 -3,-566 -353,-1128 -900,-1419 -494,281 -1532,496 -2387,496z" style="fill:#ab6983"/>
  <path class="Body-Dog2fil32" d="M16824 19412c269,-1168 -275,-1767 -403,-1932 -25,-32 -15,-100 18,-125 32,-25 96,-15 121,17 145,187 752,908 264,2040z" style="fill:#0b746b"/>
  <path class="Body-Dog2fil32" d="M10919 17342c29,-29 76,-30 106,-1 29,29 30,77 1,106 -389,326 -639,1316 -427,2030 -435,-814 -57,-1885 320,-2135z" style="fill:#96893d"/>
 </g><g id="RightPaw-Dog0">
 <animateTransform additive="sum" attributeName="transform" dur="10" repeatCount="indefinite" type="translate" values="0;0 200;0;0 200;0;0 200;0;0 200;0"/>
  <metadata id="CorelCorpID_146Corel-Layer"/>
  <path class="RightPaw-Dog0fil259" d="M17402 20631c-38,818 551,1339 943,981 309,484 1078,126 986,-356 248,-652 -532,-1279 -980,-1632 -241,-78 -377,-149 -564,-64 -316,143 -32,749 -385,1071z" style="fill:#b2c853"/>
  <path class="RightPaw-Dog0fil14" d="M17402 20631c-17,192 32,393 33,395 44,201 137,399 285,544 194,184 433,219 637,33 492,772 1351,-293 810,-632 144,452 -486,750 -723,253 -324,480 -778,69 -787,-350 -5,-223 56,-314 -107,-471 -30,84 -75,162 -148,228z" style="fill:#028d5a"/>
  <path class="RightPaw-Dog0fil32" d="M18446 21611c107,-163 129,-451 -88,-537 74,121 26,386 -69,476 -138,130 -263,138 -430,31 -93,-59 -178,-155 -245,-278 -93,-172 -149,-397 -138,-656 1,-21 -7,-43 -24,-59 -52,-50 -128,-78 -180,-116 -33,-25 -76,-27 -100,6 -24,33 -10,74 23,99 44,31 87,68 130,100 -5,272 57,511 157,696 79,147 183,261 296,334 178,114 384,128 560,8 101,121 232,181 368,195 211,22 433,-69 573,-226 103,-115 160,-263 137,-425 229,-648 -410,-1166 -864,-1533 -104,-84 -134,-147 -206,-255 -23,-34 -69,-44 -104,-21 -34,23 -43,70 -20,104 80,121 120,196 236,290 356,288 865,714 854,1122 -52,-71 -158,-158 -280,-146 191,160 321,562 136,764 -110,120 -284,194 -446,177 -102,-10 -201,-57 -276,-150z" style="fill:#c705f8"/>
 </g><g id="LeftPaw-Dog0">
 <animateTransform additive="sum" attributeName="transform" dur="10" repeatCount="indefinite" type="translate" values="0;0 200;0;0 200;0;0 200;0;0 200;0"/>
  <metadata id="CorelCorpID_154Corel-Layer"/>
  <path class="LeftPaw-Dog0fil265" d="M9962 20631c38,818 -552,1339 -944,981 -308,484 -1077,126 -986,-356 -247,-652 533,-1279 981,-1632 241,-78 377,-149 564,-64 316,143 31,749 385,1071z" style="fill:#e44e08"/>
  <path class="LeftPaw-Dog0fil14" d="M9962 20631c16,192 -32,393 -33,395 -44,201 -137,399 -285,544 -194,184 -433,219 -637,33 -493,772 -1351,-293 -810,-632 -144,452 485,750 723,253 324,480 778,69 787,-350 4,-223 -56,-314 107,-471 30,84 75,162 148,228z" style="fill:#7a4107"/>
  <path class="LeftPaw-Dog0fil32" d="M8918 21611c-107,-163 -129,-451 88,-537 -74,121 -26,386 69,476 138,130 263,138 430,31 92,-59 178,-155 245,-278 93,-172 149,-397 138,-656 -1,-21 7,-43 24,-59 52,-50 128,-78 180,-116 33,-25 75,-27 100,6 24,33 10,74 -24,99 -43,31 -86,68 -129,100 5,272 -57,511 -157,696 -80,147 -183,261 -296,334 -178,114 -384,128 -560,8 -101,121 -232,181 -369,195 -210,22 -432,-69 -572,-226 -103,-115 -161,-263 -137,-425 -229,-648 410,-1166 863,-1533 105,-84 134,-147 207,-255 23,-34 69,-44 103,-21 35,23 44,70 21,104 -81,121 -120,196 -236,290 -356,288 -865,714 -854,1122 52,-71 157,-158 280,-146 -191,160 -321,562 -136,764 110,120 284,194 446,177 102,-10 201,-57 276,-150z" style="fill:#cc6883"/>
 </g><g id="NecklaceButterfly">
 <animateTransform additive="sum" attributeName="transform" dur="10" repeatCount="indefinite" type="translate" values="0;0 200;0;0 200;0;0 200;0;0 200;0"/>
  <metadata id="CorelCorpID_45Corel-Layer"/>
  <path class="NecklaceButterflyfil269new NecklaceButterflystr0new" d="M13604 18252c-870,-172 -1867,-434 -2367,-1030 -126,0 -253,0 -379,0 423,687 1459,1121 2306,1291 136,-92 303,-169 440,-261z" style="fill:#916b42"/>
  <path class="NecklaceButterflyfil270new" d="M13329 18180c-120,-49 -834,-243 -1314,-292 -480,-49 -458,323 -361,638 90,291 32,576 132,875 181,539 1125,-297 1572,-556 -10,-222 -19,-443 -29,-665z" style="fill:#4394f7"/>
  <path class="NecklaceButterflyfil32new" d="M12696 18074c-1338,-388 -1057,71 -984,452 -72,-448 499,-539 984,-452z" style="fill:#387757"/>
  <path class="NecklaceButterflyfil33new NecklaceButterflystr0new" d="M13329 18180c-120,-49 -834,-243 -1314,-292 -480,-49 -458,323 -361,638 90,291 32,576 132,875 181,539 1125,-297 1572,-556 -10,-222 -19,-443 -29,-665z" style="fill:#519fc4"/>
  <path class="NecklaceButterflyfil271new" d="M13649 18427c-661,-83 -1062,-315 -1122,-150 -72,199 381,183 640,237 -181,3 -481,-48 -474,95 8,170 350,64 485,60 -33,37 -819,150 -708,374 109,218 491,-136 1078,-336 2,-100 99,-180 101,-280z" style="fill:#f48b6a"/>
  <path class="NecklaceButterflyfil272new NecklaceButterflystr0new" d="M13760 18252c870,-172 1867,-434 2367,-1030 126,0 252,0 379,0 -423,687 -1459,1121 -2306,1291 -136,-92 -304,-169 -440,-261z" style="fill:#765279"/>
  <path class="NecklaceButterflyfil273new" d="M14035 18180c120,-49 834,-243 1314,-292 480,-49 458,323 361,638 -90,291 -32,576 -132,875 -181,539 -1125,-297 -1572,-556 10,-222 19,-443 29,-665z" style="fill:#71d204"/>
  <path class="NecklaceButterflyfil32new" d="M14682 18074c1338,-388 1057,71 984,452 72,-448 -499,-539 -984,-452z" style="fill:#6d5173"/>
  <path class="NecklaceButterflyfil33new NecklaceButterflystr0new" d="M14035 18180c120,-49 834,-243 1314,-292 480,-49 458,323 361,638 -90,291 -32,576 -132,875 -181,539 -1125,-297 -1572,-556 10,-222 19,-443 29,-665z" style="fill:#b241a5"/>
  <path class="NecklaceButterflyfil271new" d="M13715 18427c661,-83 1062,-315 1122,-150 72,199 -381,183 -640,237 181,3 481,-48 474,95 -8,170 -350,64 -485,60 33,37 819,150 708,374 -109,218 -491,-136 -1078,-336 -2,-100 -99,-180 -101,-280z" style="fill:#665d91"/>
  <path class="NecklaceButterflyfil274new" d="M13682 18091l-283 0c-85,0 -155,70 -155,154l0 579c0,85 70,154 155,154l283 0 283 0c85,0 155,-69 155,-154l0 -579c0,-84 -70,-154 -155,-154l-283 0z" style="fill:#ddb5c0"/>
  <path class="NecklaceButterflyfil32new" d="M13682 18048l-251 0c-75,0 -137,69 -137,154l0 261c0,-237 775,-237 775,0l0 -261c0,-85 -61,-154 -136,-154l-251 0z" style="fill:#950ccc"/>
  <path class="NecklaceButterflyfil33new NecklaceButterflystr0new" d="M13682 18091l-283 0c-85,0 -155,70 -155,154l0 579c0,85 70,154 155,154l283 0 283 0c85,0 155,-69 155,-154l0 -579c0,-84 -70,-154 -155,-154l-283 0z" style="fill:#7fcdc4"/>
 </g><g id="BraceletLeather-Medium">
 <animateTransform additive="sum" attributeName="transform" dur="10" repeatCount="indefinite" type="translate" values="0;0 200;0;0 200;0;0 200;0;0 200;0"/>
  <metadata id="CorelCorpID_17Corel-Layer"/>
  <path class="BraceletLeather-Mediumfil42new BraceletLeather-Mediumstr3new" d="M8689 19690c-86,-160 -115,-250 -201,-410 -29,-75 3,-239 44,-232 104,3 219,4 324,-2 3,181 43,415 96,612 -87,11 -175,21 -263,32z" style="fill:#2e2655"/>
  <path class="BraceletLeather-Mediumfil43new" d="M8689 19690c-86,-160 -115,-250 -201,-410 -29,-75 3,-239 44,-232l8 0c53,219 164,421 282,626l-133 16z" style="fill:#ee2f2e"/>
  <path class="BraceletLeather-Mediumfil33new BraceletLeather-Mediumstr3new" d="M8689 19690c-86,-160 -115,-250 -201,-410 -29,-75 3,-239 44,-232 104,3 219,4 324,-2 3,181 43,415 96,612 -87,11 -175,21 -263,32z" style="fill:#c4d729"/>
  <path class="BraceletLeather-Mediumfil44new BraceletLeather-Mediumstr3new" d="M8645 19884c-170,-64 -251,-113 -421,-177 -71,-38 -153,-183 -118,-204 81,-66 168,-141 243,-214 121,135 304,285 474,399 -59,66 -118,131 -178,196z" style="fill:#f490b9"/>
  <path class="BraceletLeather-Mediumfil43new" d="M8645 19884c-170,-64 -251,-113 -421,-177 -71,-38 -153,-183 -118,-204l6 -5c184,130 400,211 623,288l-90 98z" style="fill:#81f93c"/>
  <path class="BraceletLeather-Mediumfil33new BraceletLeather-Mediumstr3new" d="M8645 19884c-170,-64 -251,-113 -421,-177 -71,-38 -153,-183 -118,-204 81,-66 168,-141 243,-214 121,135 304,285 474,399 -59,66 -118,131 -178,196z" style="fill:#d1a11f"/>
  <path class="BraceletLeather-Mediumfil45new BraceletLeather-Mediumstr4new" d="M8734 19936c-151,-67 -255,-143 -151,-272 117,-147 267,-135 481,-33 407,194 958,608 1165,923 91,139 91,306 -39,409 -129,103 -210,-20 -308,-153 -243,-331 -765,-704 -1148,-874z" style="fill:#61c38e"/>
  <path class="BraceletLeather-Mediumfil46new" d="M8734 19936c-79,-35 -145,-73 -176,-119 77,-41 167,-29 240,0 506,201 953,539 1254,974 48,70 58,140 38,210 -76,-6 -138,-95 -208,-191 -243,-331 -765,-704 -1148,-874z" style="fill:#426430"/>
  <path class="BraceletLeather-Mediumfil47new BraceletLeather-Mediumstr4new" d="M8734 19936c-151,-67 -255,-143 -151,-272 117,-147 267,-135 481,-33 407,194 958,608 1165,923 91,139 91,306 -39,409 -129,103 -210,-20 -308,-153 -243,-331 -765,-704 -1148,-874z" style="fill:#a5beb3"/>
  <path class="BraceletLeather-Mediumfil48new BraceletLeather-Mediumstr3new" d="M18674 19690c87,-160 116,-250 202,-410 29,-75 -3,-239 -44,-232 -104,3 -219,4 -324,-2 -3,181 -43,415 -97,612 88,11 176,21 263,32z" style="fill:#01c195"/>
  <path class="BraceletLeather-Mediumfil43new" d="M18674 19690c87,-160 116,-250 202,-410 29,-75 -3,-239 -44,-232l-8 0c-53,219 -164,421 -282,626l132 16z" style="fill:#a20216"/>
  <path class="BraceletLeather-Mediumfil33new BraceletLeather-Mediumstr3new" d="M18674 19690c87,-160 116,-250 202,-410 29,-75 -3,-239 -44,-232 -104,3 -219,4 -324,-2 -3,181 -43,415 -97,612 88,11 176,21 263,32z" style="fill:#8c2496"/>
  <path class="BraceletLeather-Mediumfil49new BraceletLeather-Mediumstr3new" d="M18718 19884c170,-64 252,-113 422,-177 71,-38 153,-183 118,-204 -81,-66 -168,-141 -243,-214 -121,135 -305,285 -475,399 60,66 119,131 178,196z" style="fill:#e06e34"/>
  <path class="BraceletLeather-Mediumfil43new" d="M18718 19884c170,-64 252,-113 422,-177 71,-38 153,-183 118,-204l-6 -5c-184,130 -400,211 -623,288l89 98z" style="fill:#49a7d4"/>
  <path class="BraceletLeather-Mediumfil33new BraceletLeather-Mediumstr3new" d="M18718 19884c170,-64 252,-113 422,-177 71,-38 153,-183 118,-204 -81,-66 -168,-141 -243,-214 -121,135 -305,285 -475,399 60,66 119,131 178,196z" style="fill:#566c5b"/>
  <path class="BraceletLeather-Mediumfil50new BraceletLeather-Mediumstr4new" d="M18630 19936c151,-67 255,-143 151,-272 -117,-147 -267,-135 -481,-33 -407,194 -958,608 -1165,923 -91,139 -91,306 39,409 129,103 210,-20 307,-153 244,-331 766,-704 1149,-874z" style="fill:#a1f5ae"/>
  <path class="BraceletLeather-Mediumfil46new" d="M18630 19936c79,-35 145,-73 175,-119 -76,-41 -166,-29 -239,0 -507,201 -954,539 -1254,974 -48,70 -58,140 -38,210 76,-6 137,-95 207,-191 244,-331 766,-704 1149,-874z" style="fill:#cd7c04"/>
  <path class="BraceletLeather-Mediumfil47new BraceletLeather-Mediumstr4new" d="M18630 19936c151,-67 255,-143 151,-272 -117,-147 -267,-135 -481,-33 -407,194 -958,608 -1165,923 -91,139 -91,306 39,409 129,103 210,-20 307,-153 244,-331 766,-704 1149,-874z" style="fill:#706300"/>
 </g><g id="Head-Dog4">
 <animateTransform additive="sum" attributeName="transform" dur="10" repeatCount="indefinite" type="translate" values="0;0 200;0;0 200;0;0 200;0;0 200;0"/>
  <metadata id="CorelCorpID_176Corel-Layer"/>
  <path class="Head-Dog4fil332" d="M13682 7385c-3568,0 -6948,4165 -6021,7554 736,2692 3247,2816 6021,2816 2774,0 5285,-124 6021,-2816 927,-3389 -2453,-7554 -6021,-7554z" style="fill:#724cc9"/>
  <path class="Head-Dog4fil337" d="M12631 11991c-186,-1018 -466,-1512 -1095,-1696 -876,-256 -2872,1104 -3247,2420 -560,1965 611,2599 1558,2748 344,54 649,40 919,-25l0 0c0,1072 1457,1712 2916,1712 1459,0 2916,-640 2916,-1712l0 0c270,65 575,79 919,25 947,-149 2118,-783 1558,-2748 -375,-1316 -2371,-2676 -3247,-2420 -629,184 -909,678 -1096,1696 -47,258 -29,764 105,1313 -366,-163 -760,-260 -1155,-260 -395,0 -790,97 -1155,260 133,-549 152,-1055 104,-1313z" style="fill:#894f94"/>
  <path class="Head-Dog4fil32" d="M8070 11356c-237,514 -424,1536 -461,1878 -61,568 -26,1137 124,1685 291,1064 865,1718 1623,2120 512,270 1886,673 2839,679 -1054,121 -2558,-362 -2909,-547 -794,-420 -1394,-1103 -1697,-2213 -155,-566 -192,-1154 -129,-1740 23,-210 212,-1304 610,-1862z" style="fill:#548b63"/>
  <path class="Head-Dog4fil14" d="M8141 11211c-590,1190 -813,2509 -480,3728 585,2138 2290,2657 4356,2779 -3483,-543 -4783,-2989 -3876,-6507z" style="fill:#7ebb1b"/>
  <path class="Head-Dog4fil32" d="M19293 11356c238,514 425,1536 462,1878 61,568 26,1137 -124,1685 -291,1064 -865,1718 -1623,2120 -513,270 -1887,673 -2840,679 1055,121 2559,-362 2909,-547 795,-420 1394,-1103 1698,-2213 155,-566 192,-1154 128,-1740 -22,-210 -211,-1304 -610,-1862z" style="fill:#9b6a5e"/>
  <path class="Head-Dog4fil32" d="M13682 7459c552,0 1099,101 1626,285 302,105 959,411 1688,816 -411,-435 -1448,-891 -1639,-957 -543,-189 -1107,-294 -1675,-294 -568,0 -1132,105 -1675,294 -191,66 -1229,522 -1639,957 728,-405 1386,-711 1688,-816 527,-184 1074,-285 1626,-285z" style="fill:#17c71d"/>
  <path class="Head-Dog4fil14" d="M13682 13301c-1250,0 -1493,1062 -2424,2071 859,-305 1218,-1543 2424,-1543 0,-176 0,-352 0,-528z" style="fill:#2bc0b3"/>
  <path class="Head-Dog4fil14" d="M13682 13301c1249,0 1492,1062 2423,2071 -858,-305 -1217,-1543 -2423,-1543 0,-176 0,-352 0,-528z" style="fill:#468451"/>
  <path class="Head-Dog4fil14" d="M13466 11880c46,-1212 80,-2253 -298,-2756 -377,-503 -1372,92 -1623,766 257,-359 976,-738 1319,-440 343,297 519,1775 602,2430z" style="fill:#f269d4"/>
  <path class="Head-Dog4fil338" d="M11545 9890c292,-294 823,-406 1166,-109 343,298 602,1457 755,2099 -83,-655 -259,-2133 -602,-2430 -343,-298 -1062,81 -1319,440z" style="fill:#776dc8"/>
  <path class="Head-Dog4fil14" d="M13852 9745c118,-419 350,-805 731,-851 423,-51 984,533 1099,1167 -222,-537 -649,-829 -1014,-868 -290,-31 -623,190 -816,552z" style="fill:#213d77"/>
  <path class="Head-Dog4fil338" d="M15682 10061c-216,-397 -649,-671 -1014,-710 -290,-30 -587,99 -816,394 193,-362 526,-583 816,-552 365,39 792,331 1014,868z" style="fill:#14b7a4"/>
  <path class="Head-Dog4fil14" d="M14743 9720c-882,70 -1328,1441 -987,2347 -119,-844 302,-2015 987,-2347z" style="fill:#997526"/>
  <path class="Head-Dog4fil338" d="M13756 12067c51,-877 474,-1939 987,-2347 -685,332 -1106,1503 -987,2347z" style="fill:#bab787"/>
 </g><g id="Mouth-Dog0">
 <animateTransform additive="sum" attributeName="transform" dur="10" repeatCount="indefinite" type="translate" values="0;0 200;0;0 200;0;0 200;0;0 200;0"/>
  <metadata id="CorelCorpID_180Corel-Layer"/>
  <path class="Mouth-Dog0fil22 Mouth-Dog0str0" d="M12339 15237c50,401 340,551 588,511 295,-48 775,-420 755,-1216" style="fill:#b30bdb"/>
  <path class="Mouth-Dog0fil22 Mouth-Dog0str0" d="M15026 15237c-50,401 -340,551 -588,511 -295,-48 -775,-420 -755,-1216" style="fill:#f26b80"/>
  <path class="Mouth-Dog0fil100" d="M13682 14485c-79,674 -150,965 -624,1303 274,-87 346,-223 624,-223 277,0 350,136 624,223 -475,-338 -545,-629 -624,-1303z" style="fill:#2db61a"/>
 </g><g id="Eyes-Dog5">
 <animateTransform additive="sum" attributeName="transform" dur="10" repeatCount="indefinite" type="translate" values="0;0 200;0;0 200;0;0 200;0;0 200;0"/>
  <metadata id="CorelCorpID_194Corel-Layer"/>
  <path class="Eyes-Dog5fil368" d="M9316 14709c795,542 2024,313 2507,-216 859,-940 218,-2810 -801,-3082 -675,-181 -1506,115 -1894,721 -767,1199 -378,2191 188,2577z"/>
  <path class="Eyes-Dog5fil369" d="M10951 11455c-95,-18 -189,-26 -281,-30 -489,21 -926,242 -1257,602 -883,963 -325,2044 211,2390 753,486 1701,380 2078,-16 948,-994 191,-2764 -751,-2946z"/>
  <path class="Eyes-Dog5fil370" d="M10432 11457c717,-167 1436,328 1607,1095 170,768 -175,1605 -1000,1773 -824,167 -1445,-329 -1615,-1096 -170,-767 291,-1605 1008,-1772z"/>
  <circle class="Eyes-Dog5fil152" r="235" transform="matrix(0.524035 0.0816328 -0.149565 0.73298 11837.7 13342.5)"/>
  <path class="Eyes-Dog5fil152" d="M10628 13873c196,-20 220,-86 233,-328 12,242 36,308 232,328 -196,20 -220,87 -232,329 -13,-242 -37,-309 -233,-329z"/>
  <path class="Eyes-Dog5fil152" d="M10407 14003c86,-9 96,-38 102,-144 5,106 16,135 102,144 -86,9 -97,38 -102,144 -6,-106 -16,-135 -102,-144z"/>
  <path class="Eyes-Dog5fil152" d="M10913 13516c86,-9 97,-38 102,-144 6,106 16,135 102,144 -86,9 -96,38 -102,144 -5,-106 -16,-135 -102,-144z"/>
  <path class="Eyes-Dog5fil152" d="M9445 12696c121,-13 136,-54 144,-204 7,150 22,191 144,204 -122,12 -137,53 -144,203 -8,-150 -23,-191 -144,-203z"/>
  <path class="Eyes-Dog5fil152" d="M11330 13936c86,-8 97,-38 102,-144 5,106 16,136 102,144 -86,9 -97,38 -102,144 -5,-106 -16,-135 -102,-144z"/>
  <path class="Eyes-Dog5fil152" d="M8983 12791c-355,1046 387,1741 1099,1839 -390,-194 -1161,-786 -1099,-1839z"/>
  <path class="Eyes-Dog5fil157" d="M12030 14198c525,-990 -87,-2541 -1008,-2787 -675,-181 -1506,115 -1894,721 -253,396 -381,770 -417,1107l0 5 -2 12c450,-868 1361,-1493 2019,-1386 937,153 1352,1005 1302,2328z"/>
  <circle class="Eyes-Dog5fil152" r="235" transform="matrix(1.55653 -1.44003 0.848674 0.620922 9762.09 11963.6)"/>
  <circle class="Eyes-Dog5fil152" r="235" transform="matrix(0.231366 -0.483919 0.323456 0.106841 9250.92 12439.8)"/>
  <circle class="Eyes-Dog5fil152" r="235" transform="matrix(0.535512 -0.0305649 0.0623147 0.334896 10707.3 11630.7)"/>
  <path class="Eyes-Dog5fil152" d="M11542 12789c174,-18 195,-77 206,-291 11,214 32,273 206,291 -174,18 -195,77 -206,291 -11,-214 -32,-273 -206,-291z"/>
  <path class="Eyes-Dog5fil22 Eyes-Dog5str4" d="M9316 14709c795,542 2024,313 2507,-216 859,-940 218,-2810 -801,-3082 -675,-181 -1506,115 -1894,721 -767,1199 -378,2191 188,2577z"/>
  <path class="Eyes-Dog5fil371" d="M18048 14709c-795,542 -2024,313 -2507,-216 -859,-940 -218,-2810 801,-3082 675,-181 1506,115 1894,721 767,1199 378,2191 -188,2577z"/>
  <path class="Eyes-Dog5fil372" d="M16413 11455c95,-18 188,-26 281,-30 489,21 926,242 1257,602 883,963 325,2044 -211,2390 -753,486 -1701,380 -2078,-16 -948,-994 -191,-2764 751,-2946z"/>
  <path class="Eyes-Dog5fil373" d="M16932 11457c-717,-167 -1437,328 -1607,1095 -170,768 175,1605 1000,1773 824,167 1445,-329 1615,-1096 170,-767 -291,-1605 -1008,-1772z"/>
  <circle class="Eyes-Dog5fil152" r="235" transform="matrix(0.524035 0.0816328 -0.149565 0.73298 17932.8 13501)"/>
  <path class="Eyes-Dog5fil152" d="M16642 13865c196,-20 220,-86 233,-328 12,242 36,308 232,328 -196,20 -220,87 -232,329 -13,-242 -37,-309 -233,-329z"/>
  <path class="Eyes-Dog5fil152" d="M16421 13995c86,-9 96,-38 102,-144 5,106 16,135 102,144 -86,8 -97,38 -102,144 -6,-106 -16,-136 -102,-144z"/>
  <path class="Eyes-Dog5fil152" d="M16927 13508c86,-9 97,-38 102,-144 6,106 16,135 102,144 -86,9 -96,38 -102,144 -5,-106 -16,-135 -102,-144z"/>
  <path class="Eyes-Dog5fil152" d="M16021 12657c-121,-12 -136,-53 -143,-203 -8,150 -23,191 -144,203 121,13 136,54 144,203 7,-149 22,-190 143,-203z"/>
  <path class="Eyes-Dog5fil152" d="M17344 13928c86,-9 97,-38 102,-144 5,106 16,135 102,144 -86,9 -97,38 -102,144 -5,-106 -16,-135 -102,-144z"/>
  <path class="Eyes-Dog5fil152" d="M18380 12791c356,1046 -386,1741 -1098,1839 389,-194 1161,-786 1098,-1839z"/>
  <path class="Eyes-Dog5fil157" d="M15334 14198c-525,-990 87,-2541 1008,-2787 675,-181 1506,115 1894,721 253,396 381,770 417,1107l0 5 2 12c-450,-868 -1361,-1493 -2020,-1386 -936,153 -1351,1005 -1301,2328z"/>
  <circle class="Eyes-Dog5fil152" r="235" transform="matrix(1.55653 -1.44003 0.848674 0.620922 16238 11930.7)"/>
  <circle class="Eyes-Dog5fil152" r="235" transform="matrix(0.231366 -0.483919 0.323456 0.106841 15638.9 12478.2)"/>
  <circle class="Eyes-Dog5fil152" r="235" transform="matrix(0.534136 0.0490489 0.0120501 0.340431 17216.2 11630.7)"/>
  <path class="Eyes-Dog5fil152" d="M17732 12772c174,-18 195,-77 206,-291 11,214 32,273 206,291 -174,18 -195,77 -206,291 -11,-214 -32,-273 -206,-291z"/>
  <path class="Eyes-Dog5fil22 Eyes-Dog5str4" d="M18048 14709c-795,542 -2024,313 -2507,-216 -859,-940 -218,-2810 801,-3082 675,-181 1506,115 1894,721 767,1199 378,2191 -188,2577z"/>
 <g>
        <animateTransform additive="sum" attributeName="transform" dur="10" repeatCount="indefinite" type="translate" values="0;0;0;0;0;0;0;0;0;0;0;0;0;0;0;0;0;0;0;0;0;0;0;0;0;0;0;0;0;0;0;0;0;0;0;0;0;0;0;0;0;0;0;0;0;0;0;0;0;0;0;0;0;0;0;0;0;0;0;0;0;0;0;0;0;0;0;0;0;0;0;0;0;0;0;0;0;0;0;0;0;0;0;0;0;0;-1200 1500;0;-1200 1500;0"/>
        <g>
            <animateTransform additive="sum" attributeName="transform" dur="10" repeatCount="indefinite" type="rotate" values="0;0;0;0;0;0;0;0;0;0;0;0;0;0;0;0;0;0;0;0;0;0;0;0;0;0;0;0;0;0;0;0;0;0;0;0;0;0;0;0;0;0;0;0;0;0;0;0;0;0;0;0;0;0;0;0;0;0;0;0;0;0;0;0;0;0;0;0;0;0;0;0;0;0;0;0;0;0;0;0;0;0;0;0;0;0;-10;0;-10;0"/>
            <g>
                <animateTransform additive="sum" attributeName="transform" dur="10" repeatCount="indefinite" type="translate" values="0;0;0;0;0;0;0;0;0;0;0;0;0;0;0;0;0;0;0;0;0;0;0;0;0;0;0;0;0;0;0;0;0;0;0;0;0;0;0;0;0;0;0;0;0;0;0;0;0;0;0;0;0;0;0;0;0;0;0;0;0;0;0;0;0;0;0;0;0;0;0;0;0;0;0;0;0;0;0;0;0;0;0;0;0;0;-500 -100;0;-500 -100;0"/> 
                <path class="Eyes-Dog5fil155" d="M12425 8700c-113,-24 -414,256 -841,404 -391,135 -763,85 -845,252 -91,185 269,613 489,667 180,45 597,-80 920,-388 382,-364 414,-907 277,-935z"/>
            </g>
            <g>
                <animateTransform additive="sum" attributeName="transform" dur="10" repeatCount="indefinite" type="translate" values="0;0;0;0;0;0;0;0;0;0;0;0;0;0;0;0;0;0;0;0;0;0;0;0;0;0;0;0;0;0;0;0;0;0;0;0;0;0;0;0;0;0;0;0;0;0;0;0;0;0;0;0;0;0;0;0;0;0;0;0;0;0;0;0;0;0;0;0;0;0;0;0;0;0;0;0;0;0;0;0;0;0;0;0;0;0;-500 -100;0;-500 -100;0"/> 
                <path class="Eyes-Dog5fil14" d="M12425 8700c-113,-24 -414,256 -841,404 -391,135 -763,85 -845,252 -91,185 269,613 489,667 180,45 597,-80 920,-388 382,-364 414,-907 277,-935z"/>
            </g>
        </g>
    </g>  
	<g>
        <animateTransform additive="sum" attributeName="transform" dur="10" repeatCount="indefinite" type="translate" values="0;0;0;0;0;0;0;0;0;0;0;0;0;0;0;0;0;0;0;0;0;0;0;0;0;0;0;0;0;0;0;0;0;0;0;0;0;0;0;0;0;0;0;0;0;0;0;0;0;0;0;0;0;0;0;0;0;0;0;0;0;0;0;0;0;0;0;0;0;0;0;0;0;0;0;0;0;0;0;0;0;0;0;0;0;0;-800 1400;0;-800 1400;0"/>
        <g>
            <animateTransform additive="sum" attributeName="transform" dur="10" repeatCount="indefinite" type="rotate" values="0;0;0;0;0;0;0;0;0;0;0;0;0;0;0;0;0;0;0;0;0;0;0;0;0;0;0;0;0;0;0;0;0;0;0;0;0;0;0;0;0;0;0;0;0;0;0;0;0;0;0;0;0;0;0;0;0;0;0;0;0;0;0;0;0;0;0;0;0;0;0;0;0;0;0;0;0;0;0;0;0;0;0;0;0;0;10;0;10;0"/>
            <g>
                <animateTransform additive="sum" attributeName="transform" dur="10" repeatCount="indefinite" type="translate" values="0;0;0;0;0;0;0;0;0;0;0;0;0;0;0;0;0;0;0;0;0;0;0;0;0;0;0;0;0;0;0;0;0;0;0;0;0;0;0;0;0;0;0;0;0;0;0;0;0;0;0;0;0;0;0;0;0;0;0;0;0;0;0;0;0;0;0;0;0;0;0;0;0;0;0;0;0;0;0;0;0;0;0;0;0;0;2000 -5000;0;2000 -5000;0"/> 
                <path class="Eyes-Dog5fil155" d="M14939 8700c113,-24 414,256 840,404 392,135 763,85 846,252 91,185 -269,613 -489,667 -180,45 -597,-80 -920,-388 -382,-364 -414,-907 -277,-935z"/>
            </g>
            <g>
                <animateTransform additive="sum" attributeName="transform" dur="10" repeatCount="indefinite" type="translate" values="0;0;0;0;0;0;0;0;0;0;0;0;0;0;0;0;0;0;0;0;0;0;0;0;0;0;0;0;0;0;0;0;0;0;0;0;0;0;0;0;0;0;0;0;0;0;0;0;0;0;0;0;0;0;0;0;0;0;0;0;0;0;0;0;0;0;0;0;0;0;0;0;0;0;0;0;0;0;0;0;0;0;0;0;0;0;2000 -5000;0;2000 -5000;0"/> 
                <path class="Eyes-Dog5fil14" d="M14939 8700c113,-24 414,256 840,404 392,135 763,85 846,252 91,185 -269,613 -489,667 -180,45 -597,-80 -920,-388 -382,-364 -414,-907 -277,-935z"/>
            </g>
        </g>
    </g>
 </g><g id="Moustache-Dog1">
 <animateTransform additive="sum" attributeName="transform" dur="10" repeatCount="indefinite" type="translate" values="0;0 200;0;0 200;0;0 200;0;0 200;0"/>
  <metadata id="CorelCorpID_201Corel-Layer"/>
  <g>
   <circle class="Moustache-Dog1fil100" r="98" transform="matrix(1.0333 -0 0.00756858 0.98885 12661.4 14776.2)"/>
   <circle class="Moustache-Dog1fil100" r="98" transform="matrix(1.0333 -0 0.00756858 0.98885 12956.9 15014.8)"/>
   <circle class="Moustache-Dog1fil100" r="98" transform="matrix(-1.0333 -0 0.00756858 0.98885 14702.5 14776.2)"/>
   <circle class="Moustache-Dog1fil100" r="98" transform="matrix(-1.0333 -0 0.00756858 0.98885 14410.6 15014.8)"/>
  </g>
 </g><g id="Nose-Dog0">
 <animateTransform additive="sum" attributeName="transform" dur="10" repeatCount="indefinite" type="translate" values="0;0 200;0;0 200;0;0 200;0;0 200;0"/>
  <metadata id="CorelCorpID_208Corel-Layer"/>
  <path class="Nose-Dog0fil416 Nose-Dog0str0" d="M13682 14020c-283,0 -678,136 -648,338 28,185 288,481 648,481 360,0 620,-296 648,-481 30,-202 -365,-338 -648,-338z" style="fill:#e0945c"/>
 </g><g id="HatFedora-Medium">
 <animateTransform additive="sum" attributeName="transform" dur="10" repeatCount="indefinite" type="translate" values="0;0 200;0;0 200;0;0 200;0;0 200;0"/>
  <metadata id="CorelCorpID_6Corel-Layer"/>
  <g id="_1789286603760">
   <path class="HatFedora-Mediumfil14" d="M7955 11937c1265,757 3086,1583 5727,1583 2641,0 4462,-826 5727,-1583 -1919,374 -3837,667 -5727,667 -1890,0 -3808,-293 -5727,-667z" style="fill:#7d50f7"/>
   <path class="HatFedora-Mediumfil36 HatFedora-Mediumstr1" d="M13682 10964c-3355,0 -7870,-2123 -8193,-997 -189,659 693,1411 980,1572 489,274 4583,1290 7213,1290 2630,0 6724,-1016 7213,-1290 286,-161 1169,-913 980,-1572 -323,-1126 -4839,997 -8193,997z" style="fill:#b00c41"/>
   <path class="HatFedora-Mediumfil29" d="M17269 12444c942,-587 2255,-1607 510,-1868l0 0c1823,-445 3342,-893 3514,-296 165,576 -606,1233 -856,1373 -254,143 -1620,514 -3168,791z" style="fill:#27e331"/>
   <path class="HatFedora-Mediumfil14" d="M12870 12801c-3928,-292 -1702,-901 -538,-1281 1164,-380 -111,-308 -1145,-658 -2498,-490 -4908,-1382 -5132,-619 -174,595 640,1274 905,1419 407,223 3521,991 5910,1139z" style="fill:#1b9a78"/>
   <path class="HatFedora-Mediumfil37 HatFedora-Mediumstr2" d="M11015 12596c-1986,-573 -5154,-1890 -5487,-2720 -7,12 -13,24 -19,37l-3 6c-6,15 -12,31 -17,48 -189,659 693,1411 980,1572 340,191 2424,740 4546,1057z" style="fill:#012342"/>
   <path class="HatFedora-Mediumfil38 HatFedora-Mediumstr2" d="M16349 12596c1986,-573 5154,-1890 5486,-2720 8,12 14,24 20,37l3 6c6,15 12,31 17,48 189,659 -694,1411 -980,1572 -340,191 -2424,740 -4546,1057z" style="fill:#de923f"/>
   <path class="HatFedora-Mediumfil39 HatFedora-Mediumstr1" d="M13910 5897c520,0 2166,-651 2671,-614 2043,150 2733,2936 2883,4157 41,337 100,930 100,1044 0,632 -2634,911 -5882,911 -3248,0 -5882,-279 -5882,-911 0,-290 62,-730 126,-1051 329,-1658 1396,-3445 2382,-4001 757,-427 2710,465 3602,465z" style="fill:#8f19da"/>
   <path class="HatFedora-Mediumfil29" d="M10764 11303c-732,-2466 -54,-4447 -72,-4877 -25,-569 -747,-764 -1058,-441 -758,807 -1454,2166 -1708,3448 -64,321 -126,761 -126,1051 0,426 1193,691 2964,819z" style="fill:#598b03"/>
   <path class="HatFedora-Mediumfil40" d="M13682 10294c2688,0 4262,-488 5662,-836 330,-82 360,100 360,830 0,925 -3334,1326 -6022,1326 -2688,0 -6022,-401 -6022,-1326 0,-955 47,-920 447,-808 1370,386 2970,814 5575,814z" style="fill:#76d87b"/>
   <path class="HatFedora-Mediumfil34" d="M13682 10294c2688,0 4262,-488 5662,-836 330,-82 360,100 360,830 0,83 -27,162 -77,236 21,-698 -8,-873 -343,-803 -1436,300 -3055,735 -5792,657 -2645,-74 -4259,-537 -5639,-954 62,1 145,26 254,56 1370,386 2970,814 5575,814z" style="fill:#c99980"/>
   <path class="HatFedora-Mediumfil2 HatFedora-Mediumstr2" d="M13682 10294c2688,0 4262,-488 5662,-836 330,-82 360,100 360,830 0,925 -3334,1326 -6022,1326 -2688,0 -6022,-401 -6022,-1326 0,-955 47,-920 447,-808 1370,386 2970,814 5575,814z" style="fill:#f9acb6"/>
   <path class="HatFedora-Mediumfil35" d="M10645 5763c49,-33 367,406 912,868 545,461 1317,828 1273,864 -45,36 -762,-225 -1363,-744 -601,-518 -870,-955 -822,-988zm3929 1656c3,-57 1441,-623 1745,-825 724,-481 137,-795 158,-848 22,-54 720,446 -71,972 -193,128 -1834,758 -1832,701z" style="fill:#6aaee1"/>
   <path class="HatFedora-Mediumfil14" d="M14574 7419c245,-65 1818,-729 1879,-795 202,-218 507,-585 28,-863 -212,-123 -2033,843 -3013,645 -832,-169 -3218,-1189 -2815,-581 201,303 1483,1470 2160,1673 646,193 1128,89 1761,-79z" style="fill:#e89824"/>
   <path class="HatFedora-Mediumfil14" d="M13687 11614c-2204,-31 -2184,-1008 -1152,-1314 -1517,-221 -2948,-403 -4428,-820 -400,-112 -447,-147 -447,808 0,923 3345,1332 6027,1326z" style="fill:#1e0cd8"/>
   <path class="HatFedora-Mediumfil34" d="M17253 6196c-221,-474 515,-383 618,125 103,509 -1595,1290 -1679,1177 -83,-113 1282,-829 1061,-1302z" style="fill:#661dd0"/>
  </g>
 </g></svg>