<svg xmlns="http://www.w3.org/2000/svg" xmlns:xlink="http://www.w3.org/1999/xlink" style="shape-rendering:geometricPrecision; text-rendering:geometricPrecision; image-rendering:optimizeQuality; fill-rule:evenodd; clip-rule:evenodd" version="1.1" viewBox="0 0 29000 29000" xml:space="preserve"><defs><style type="text/css">.HairBack-Dog1fil14 {fill:black;fill-opacity:0.200000}
.HairBack-Dog1fil229 {fill:url(#HairBack-Dog1id894)}
.HairBack-Dog1str0 {stroke:black;stroke-width:150;stroke-linecap:round;stroke-linejoin:round}
.HairBack-Dog1fil230 {fill:url(#HairBack-Dog1id895)}
.Tail-Dog1fil233 {fill:url(#Tail-Dog1id902)}
.Tail-Dog1fil26 {fill:#fffefd}
.Tail-Dog1fil14 {fill:black;fill-opacity:0.200000}
.Tail-Dog1fil22 {fill:none}
.Tail-Dog1str0 {stroke:black;stroke-width:150;stroke-linecap:round;stroke-linejoin:round}
.RightFoot-Dog2fil241 {fill:url(#RightFoot-Dog2id626)}
.RightFoot-Dog2fil14 {fill:black;fill-opacity:0.200000}
.RightFoot-Dog2fil22 {fill:none}
.RightFoot-Dog2fil32 {fill:black;fill-rule:nonzero}
.RightLeg-Dog5fil246 {fill:url(#RightLeg-Dog5id106)}
.RightLeg-Dog5fil32 {fill:black;fill-rule:nonzero}
.RightLeg-Dog5fil14 {fill:black;fill-opacity:0.200000}
.LeftFoot-Dog2fil247 {fill:url(#LeftFoot-Dog2id635)}
.LeftFoot-Dog2fil14 {fill:black;fill-opacity:0.200000}
.LeftFoot-Dog2fil22 {fill:none}
.LeftFoot-Dog2fil32 {fill:black;fill-rule:nonzero}
.LeftLeg-Dog5fil252 {fill:url(#LeftLeg-Dog5id105)}
.LeftLeg-Dog5fil32 {fill:black;fill-rule:nonzero}
.LeftLeg-Dog5fil14 {fill:black;fill-opacity:0.200000}
.RightHand-Dog4fil256 {fill:url(#RightHand-Dog4id168)}
.RightHand-Dog4fil257 {fill:url(#RightHand-Dog4id22)}
.RightHand-Dog4fil14 {fill:black;fill-opacity:0.200000}
.RightHand-Dog4fil22 {fill:none}
.RightHand-Dog4str0 {stroke:black;stroke-width:150;stroke-linecap:round;stroke-linejoin:round}
.RightPaw-Dog0fil259 {fill:url(#RightPaw-Dog0id406)}
.RightPaw-Dog0fil14 {fill:black;fill-opacity:0.200000}
.RightPaw-Dog0fil32 {fill:black;fill-rule:nonzero}
.LeftHand-Dog4fil262 {fill:url(#LeftHand-Dog4id426)}
.LeftHand-Dog4fil57 {fill:url(#LeftHand-Dog4id5)}
.LeftHand-Dog4fil14 {fill:black;fill-opacity:0.200000}
.LeftHand-Dog4fil22 {fill:none}
.LeftHand-Dog4str0 {stroke:black;stroke-width:150;stroke-linecap:round;stroke-linejoin:round}
.LeftPaw-Dog0fil265 {fill:url(#LeftPaw-Dog0id974)}
.LeftPaw-Dog0fil14 {fill:black;fill-opacity:0.200000}
.LeftPaw-Dog0fil32 {fill:black;fill-rule:nonzero}
.Body-Dog0fil267 {fill:url(#Body-Dog0id28)}
.Body-Dog0fil268 {fill:url(#Body-Dog0id251)}
.Body-Dog0fil14 {fill:black;fill-opacity:0.200000}
.Body-Dog0fil32 {fill:black;fill-rule:nonzero}
.Ears-Dog0fil273 {fill:url(#Ears-Dog0id346)}
.Ears-Dog0fil274 {fill:url(#Ears-Dog0id534)}
.Ears-Dog0fil14 {fill:black;fill-opacity:0.200000}
.Ears-Dog0fil277 {fill:url(#Ears-Dog0id68)}
.Ears-Dog0fil278 {fill:url(#Ears-Dog0id465)}
.Ears-Dog0fil272 {fill:url(#Ears-Dog0id477)}
.Ears-Dog0str4 {stroke:black;stroke-width:150}
.Ears-Dog0fil275 {fill:url(#Ears-Dog0id489)}
.Ears-Dog0str0 {stroke:black;stroke-width:150;stroke-linecap:round;stroke-linejoin:round}
.Ears-Dog0fil276 {fill:url(#Ears-Dog0id92)}
.Ears-Dog0fil279 {fill:url(#Ears-Dog0id486)}
.Head-Dog3fil334 {fill:url(#Head-Dog3id930)}
.Head-Dog3fil335 {fill:url(#Head-Dog3id382)}
.Head-Dog3fil32 {fill:black;fill-rule:nonzero}
.Head-Dog3fil336 {fill:url(#Head-Dog3id466)}
.Head-Dog3fil14 {fill:black;fill-opacity:0.200000}
.Mouth-Dog0fil100 {fill:black}
.Mouth-Dog0fil22 {fill:none}
.Mouth-Dog0str0 {stroke:black;stroke-width:150;stroke-linecap:round;stroke-linejoin:round}
.Eyes-Dog5fil368 {fill:url(#Eyes-Dog5id916)}
.Eyes-Dog5fil369 {fill:url(#Eyes-Dog5id631)}
.Eyes-Dog5fil370 {fill:url(#Eyes-Dog5id1078)}
.Eyes-Dog5fil152 {fill:white}
.Eyes-Dog5fil157 {fill:black;fill-opacity:0.501961}
.Eyes-Dog5fil371 {fill:url(#Eyes-Dog5id915)}
.Eyes-Dog5fil372 {fill:url(#Eyes-Dog5id622)}
.Eyes-Dog5fil373 {fill:url(#Eyes-Dog5id1076)}
.Eyes-Dog5fil155 {fill:#a59562}
.Eyes-Dog5fil14 {fill:black;fill-opacity:0.200000}
.Eyes-Dog5fil22 {fill:none}
.Eyes-Dog5str4 {stroke:black;stroke-width:150}
.Moustache-Dog0fil22 {fill:none}
.Nose-Dog0fil416 {fill:url(#Nose-Dog0id907)}
.Nose-Dog0str0 {stroke:black;stroke-width:150;stroke-linecap:round;stroke-linejoin:round}
.Hair-Dog4fil14 {fill:black;fill-opacity:0.200000}
.Hair-Dog4fil420 {fill:url(#Hair-Dog4id987)}
.Hair-Dog4str0 {stroke:black;stroke-width:150;stroke-linecap:round;stroke-linejoin:round}
.NecklaceChainfil224new {fill:url(#NecklaceChainid673new);fill-rule:nonzero}
.NecklaceChainfil223new {fill:black;fill-rule:nonzero}
.NecklaceChainstr0new {stroke:black;stroke-width:150;stroke-linecap:round;stroke-linejoin:round}
.HatGlasses-Mediumfil571new {fill:white;fill-opacity:0.400000}
.HatGlasses-Mediumfil572new {fill:white;fill-opacity:0.701961}
.HatGlasses-Mediumfil707new {fill:url(#HatGlasses-Mediumid680new);fill-rule:nonzero}
.WeaponBflyNetBack-Mediumfil1 {fill:black;fill-rule:nonzero;fill-opacity:0.200000}
.WeaponBflyNetBack-Mediumfil12 {fill:url(#WeaponBflyNetBack-Mediumid25);fill-rule:nonzero}
.WeaponBflyNetBack-Mediumstr0 {stroke:black;stroke-width:150;stroke-linecap:round;stroke-linejoin:round}
.WeaponBflyNet-Mediumfil13 {fill:white;fill-opacity:0.701961}
.WeaponBflyNet-Mediumfil3 {fill:black;fill-opacity:0.200000}
.WeaponBflyNet-Mediumfil14 {fill:none}
.WeaponBflyNet-Mediumstr2 {stroke:#85E7FF;stroke-width:150;stroke-linecap:round;stroke-linejoin:round}
.WeaponBflyNet-Mediumstr3 {stroke:#85E7FF;stroke-width:150}
.WeaponBflyNet-Mediumfil15 {fill:url(#WeaponBflyNet-Mediumid2)}
.WeaponBflyNet-Mediumstr0 {stroke:black;stroke-width:150;stroke-linecap:round;stroke-linejoin:round}
.WeaponBflyNet-Mediumfil16 {fill:url(#WeaponBflyNet-Mediumid1)}
.WeaponBflyNet-Mediumstr1 {stroke:black;stroke-width:150}
</style><linearGradient gradientUnits="userSpaceOnUse" id="HairBack-Dog1id894" x1="8366.73" x2="11650.5" xlink:href="#HairBack-Dog1id87" y1="16700" y2="21125.7">
  </linearGradient><linearGradient gradientUnits="userSpaceOnUse" id="HairBack-Dog1id895" x1="18771.8" x2="15488" xlink:href="#HairBack-Dog1id87" y1="16700" y2="21125.7">
  </linearGradient><linearGradient gradientUnits="userSpaceOnUse" id="Tail-Dog1id902" x1="14705.4" x2="18334" xlink:href="#Tail-Dog1id74" y1="22521" y2="17924.8">
  </linearGradient><linearGradient gradientUnits="userSpaceOnUse" id="RightFoot-Dog2id626" x1="16691.1" x2="16037.9" y1="25524" y2="23422.2">
   <stop offset="0" style="stop-opacity:1; stop-color:#d9d9cc"/>
   <stop offset="0.619608" style="stop-opacity:1; stop-color:#ffffff"/>
   <stop offset="1" style="stop-opacity:1; stop-color:#ffffff"/>
  </linearGradient><linearGradient gradientUnits="userSpaceOnUse" id="RightLeg-Dog5id106" x1="15678.4" x2="15274.3" xlink:href="#RightLeg-Dog5id105" y1="24212.3" y2="20921.3">
  </linearGradient><linearGradient gradientUnits="userSpaceOnUse" id="LeftFoot-Dog2id635" x1="10586.2" x2="11300.1" xlink:href="#LeftFoot-Dog2id626" y1="25486.1" y2="23460.1">
  </linearGradient><linearGradient gradientUnits="userSpaceOnUse" id="LeftLeg-Dog5id105" x1="11629.3" x2="12033.4" y1="24212.3" y2="20921.3">
   <stop offset="0" style="stop-opacity:1; stop-color:#fffffc"/>
   <stop offset="0.0901961" style="stop-opacity:1; stop-color:#fffffc"/>
   <stop offset="0.419608" style="stop-opacity:1; stop-color:#ffffff"/>
   <stop offset="1" style="stop-opacity:1; stop-color:#ffffff"/>
  </linearGradient><linearGradient gradientUnits="objectBoundingBox" id="RightHand-Dog4id168" x1="19.8228%" x2="80.1772%" y1="10.3299%" y2="89.6698%">
   <stop offset="0" style="stop-opacity:1; stop-color:#d9d9cc"/>
   <stop offset="0.0196078" style="stop-opacity:1; stop-color:#d9d9cc"/>
   <stop offset="0.721569" style="stop-opacity:1; stop-color:#fffffc"/>
   <stop offset="1" style="stop-opacity:1; stop-color:#fffffc"/>
  </linearGradient><linearGradient gradientUnits="userSpaceOnUse" id="RightHand-Dog4id22" x1="16885.8" x2="16885.8" xlink:href="#RightHand-Dog4id5" y1="17625.4" y2="19553.4">
  </linearGradient><linearGradient gradientUnits="userSpaceOnUse" id="RightPaw-Dog0id406" x1="18770.8" x2="18008.4" y1="21729.1" y2="19634.5">
   <stop offset="0" style="stop-opacity:1; stop-color:#ffffff"/>
   <stop offset="0.701961" style="stop-opacity:1; stop-color:#fffffc"/>
   <stop offset="1" style="stop-opacity:1; stop-color:#fffffc"/>
  </linearGradient><linearGradient gradientUnits="objectBoundingBox" id="LeftHand-Dog4id426" x1="80.1772%" x2="19.8228%" xlink:href="#LeftHand-Dog4id168" y1="10.3299%" y2="89.6698%">
  </linearGradient><linearGradient gradientUnits="objectBoundingBox" id="LeftHand-Dog4id5" x1="50%" x2="50%" y1="0%" y2="100%">
   <stop offset="0" style="stop-opacity:1; stop-color:#a59562"/>
   <stop offset="1" style="stop-opacity:1; stop-color:#ccbd8d"/>
  </linearGradient><linearGradient gradientUnits="userSpaceOnUse" id="LeftPaw-Dog0id974" x1="8449.46" x2="9499.06" xlink:href="#LeftPaw-Dog0id406" y1="21712.6" y2="19651">
  </linearGradient><linearGradient gradientUnits="objectBoundingBox" id="Body-Dog0id28" x1="50%" x2="50%" y1="0%" y2="100%">
   <stop offset="0" style="stop-opacity:1; stop-color:#d9d9cc"/>
   <stop offset="0.101961" style="stop-opacity:1; stop-color:#d9d9cc"/>
   <stop offset="0.521569" style="stop-opacity:1; stop-color:#fffffc"/>
   <stop offset="1" style="stop-opacity:1; stop-color:#ffffff"/>
  </linearGradient><linearGradient gradientUnits="userSpaceOnUse" id="Body-Dog0id251" x1="13681.9" x2="13681.9" y1="17494.1" y2="22874.9">
   <stop offset="0" style="stop-opacity:1; stop-color:#d9d9cc"/>
   <stop offset="0.278431" style="stop-opacity:1; stop-color:#fffffc"/>
   <stop offset="0.721569" style="stop-opacity:1; stop-color:#ffffff"/>
   <stop offset="1" style="stop-opacity:1; stop-color:#ffffff"/>
  </linearGradient><linearGradient gradientUnits="userSpaceOnUse" id="Ears-Dog0id346" x1="10525.6" x2="8033.81" xlink:href="#Ears-Dog0id68" y1="11553.5" y2="8766.07">
  </linearGradient><linearGradient gradientUnits="userSpaceOnUse" id="Ears-Dog0id534" x1="7987.15" x2="10325.6" xlink:href="#Ears-Dog0id146" y1="9278.95" y2="10578.1">
  </linearGradient><linearGradient gradientUnits="userSpaceOnUse" id="Ears-Dog0id465" x1="19376.5" x2="17038.4" xlink:href="#Ears-Dog0id146" y1="9277.87" y2="10579.2">
  </linearGradient><linearGradient gradientUnits="userSpaceOnUse" id="Ears-Dog0id477" x1="10974" x2="7412.48" xlink:href="#Ears-Dog0id18" y1="11512.8" y2="8663.52">
  </linearGradient><linearGradient gradientUnits="userSpaceOnUse" id="Ears-Dog0id489" x1="6514.41" x2="9876.29" xlink:href="#Ears-Dog0id18" y1="8457.19" y2="10589.1">
  </linearGradient><linearGradient gradientUnits="userSpaceOnUse" id="Ears-Dog0id92" x1="16390.6" x2="19950.6" xlink:href="#Ears-Dog0id18" y1="11514.2" y2="8662.08">
  </linearGradient><linearGradient gradientUnits="userSpaceOnUse" id="Ears-Dog0id486" x1="20849.2" x2="17487.8" xlink:href="#Ears-Dog0id18" y1="8456.57" y2="10589.7">
  </linearGradient><linearGradient gradientUnits="userSpaceOnUse" id="Head-Dog3id930" x1="13681.9" x2="13681.9" xlink:href="#Head-Dog3id5" y1="17770.1" y2="8028.97">
  </linearGradient><linearGradient gradientUnits="userSpaceOnUse" id="Head-Dog3id382" x1="13681.9" x2="13681.9" y1="18116.2" y2="10052.7">
   <stop offset="0" style="stop-opacity:1; stop-color:#d9d9cc"/>
   <stop offset="0.270588" style="stop-opacity:1; stop-color:#fffffc"/>
   <stop offset="0.878431" style="stop-opacity:1; stop-color:#ffffff"/>
   <stop offset="1" style="stop-opacity:1; stop-color:#ffffff"/>
  </linearGradient><linearGradient gradientUnits="userSpaceOnUse" id="Head-Dog3id466" x1="13681.9" x2="13681.9" xlink:href="#Head-Dog3id454" y1="17379.4" y2="11434.8">
  </linearGradient><linearGradient gradientUnits="userSpaceOnUse" id="Eyes-Dog5id916" x1="10862.9" x2="10060.5" xlink:href="#Eyes-Dog5id27" y1="14930.3" y2="11447.3">
  </linearGradient><linearGradient gradientUnits="userSpaceOnUse" id="Eyes-Dog5id631" x1="8950.06" x2="12138.2" xlink:href="#Eyes-Dog5id57" y1="13083.2" y2="13083.2">
  </linearGradient><radialGradient cx="10734.8" cy="12890.7" fx="10734.8" fy="12890.7" gradientTransform="matrix(0.251286 1.15858 -1.06367 0.273709 21749 -3075)" gradientUnits="userSpaceOnUse" id="Eyes-Dog5id1078" r="1231.67" xlink:href="#Eyes-Dog5id1055">
  </radialGradient><linearGradient gradientUnits="userSpaceOnUse" id="Eyes-Dog5id915" x1="16500.9" x2="17303.4" xlink:href="#Eyes-Dog5id27" y1="14930.3" y2="11447.3">
  </linearGradient><linearGradient gradientUnits="userSpaceOnUse" id="Eyes-Dog5id622" x1="18413.8" x2="15225.6" xlink:href="#Eyes-Dog5id57" y1="13083.2" y2="13083.2">
  </linearGradient><radialGradient cx="16629.1" cy="12890.7" fx="16629.1" fy="12890.7" gradientTransform="matrix(-0.251286 1.15858 1.06367 0.273709 7096 -9904)" gradientUnits="userSpaceOnUse" id="Eyes-Dog5id1076" r="1231.67" xlink:href="#Eyes-Dog5id1055">
  </radialGradient><linearGradient gradientUnits="userSpaceOnUse" id="Nose-Dog0id907" x1="13681.9" x2="13681.9" xlink:href="#Nose-Dog0id451" y1="14020.2" y2="14838.5">
  </linearGradient><linearGradient gradientUnits="userSpaceOnUse" id="Hair-Dog4id987" x1="13680" x2="14179.5" xlink:href="#Hair-Dog4id49" y1="10949.3" y2="6079.92">
  </linearGradient><linearGradient gradientUnits="userSpaceOnUse" id="NecklaceChainid673new" x1="13044.2" x2="14365.2" y1="20556.7" y2="16663.2">
   <stop offset="0" style="stop-opacity:1; stop-color:#CC9933"/>
   <stop offset="0.109804" style="stop-opacity:1; stop-color:#FFF98F"/>
   <stop offset="0.25098" style="stop-opacity:1; stop-color:#FFFFFC"/>
   <stop offset="0.478431" style="stop-opacity:1; stop-color:#FFF982"/>
   <stop offset="0.811765" style="stop-opacity:1; stop-color:#643200"/>
   <stop offset="1" style="stop-opacity:1; stop-color:#CC9933"/>
  </linearGradient><linearGradient gradientUnits="userSpaceOnUse" id="HatGlasses-Mediumid680new" x1="11522.6" x2="15841.3" y1="16145.3" y2="11308.4">
   <stop offset="0" style="stop-opacity:1; stop-color:#01013B"/>
   <stop offset="1" style="stop-opacity:1; stop-color:#000094"/>
  </linearGradient><linearGradient gradientUnits="userSpaceOnUse" id="WeaponBflyNetBack-Mediumid25" x1="7204.83" x2="8458.79" y1="22047.5" y2="19400.3">
   <stop offset="0" style="stop-opacity:1; stop-color:#FF6666"/>
   <stop offset="1" style="stop-opacity:1; stop-color:#FFC5B0"/>
  </linearGradient><linearGradient gradientUnits="userSpaceOnUse" id="WeaponBflyNet-Mediumid2" x1="9470.94" x2="12022.2" y1="22463.7" y2="22328">
   <stop offset="0" style="stop-opacity:1; stop-color:#5C3005"/>
   <stop offset="1" style="stop-opacity:1; stop-color:#B87939"/>
  </linearGradient><linearGradient gradientUnits="userSpaceOnUse" id="WeaponBflyNet-Mediumid1" x1="14169.4" x2="14169.4" y1="25399.5" y2="22680.1">
   <stop offset="0" style="stop-opacity:1; stop-color:#D4A373"/>
   <stop offset="1" style="stop-opacity:1; stop-color:#B87939"/>
  </linearGradient><linearGradient gradientUnits="userSpaceOnUse" id="HairBack-Dog1id87" x1="16230.4" x2="13904.5" y1="16152.6" y2="14931.5">
   <stop offset="0" style="stop-opacity:1; stop-color:#bf8159"/>
   <stop offset="1" style="stop-opacity:1; stop-color:#a6673d"/>
  </linearGradient><linearGradient gradientUnits="userSpaceOnUse" id="Tail-Dog1id74" x1="15961" x2="18418.2" y1="23174.1" y2="17871.9">
   <stop offset="0" style="stop-opacity:1; stop-color:#d9d9cc"/>
   <stop offset="1" style="stop-opacity:1; stop-color:#fffffc"/>
  </linearGradient><linearGradient gradientUnits="userSpaceOnUse" id="RightLeg-Dog5id105" x1="11629.3" x2="12033.4" y1="24212.3" y2="20921.3">
   <stop offset="0" style="stop-opacity:1; stop-color:#fffffc"/>
   <stop offset="0.0901961" style="stop-opacity:1; stop-color:#fffffc"/>
   <stop offset="0.419608" style="stop-opacity:1; stop-color:#ffffff"/>
   <stop offset="1" style="stop-opacity:1; stop-color:#ffffff"/>
  </linearGradient><linearGradient gradientUnits="userSpaceOnUse" id="LeftFoot-Dog2id626" x1="16691.1" x2="16037.9" y1="25524" y2="23422.2">
   <stop offset="0" style="stop-opacity:1; stop-color:#d9d9cc"/>
   <stop offset="0.619608" style="stop-opacity:1; stop-color:#ffffff"/>
   <stop offset="1" style="stop-opacity:1; stop-color:#ffffff"/>
  </linearGradient><linearGradient gradientUnits="objectBoundingBox" id="RightHand-Dog4id5" x1="50%" x2="50%" y1="0%" y2="100%">
   <stop offset="0" style="stop-opacity:1; stop-color:#a59562"/>
   <stop offset="1" style="stop-opacity:1; stop-color:#ccbd8d"/>
  </linearGradient><linearGradient gradientUnits="objectBoundingBox" id="LeftHand-Dog4id168" x1="19.8228%" x2="80.1772%" y1="10.3299%" y2="89.6698%">
   <stop offset="0" style="stop-opacity:1; stop-color:#d9d9cc"/>
   <stop offset="0.0196078" style="stop-opacity:1; stop-color:#d9d9cc"/>
   <stop offset="0.721569" style="stop-opacity:1; stop-color:#fffffc"/>
   <stop offset="1" style="stop-opacity:1; stop-color:#fffffc"/>
  </linearGradient><linearGradient gradientUnits="userSpaceOnUse" id="LeftPaw-Dog0id406" x1="18770.8" x2="18008.4" y1="21729.1" y2="19634.5">
   <stop offset="0" style="stop-opacity:1; stop-color:#ffffff"/>
   <stop offset="0.701961" style="stop-opacity:1; stop-color:#fffffc"/>
   <stop offset="1" style="stop-opacity:1; stop-color:#fffffc"/>
  </linearGradient><linearGradient gradientUnits="userSpaceOnUse" id="Ears-Dog0id68" x1="16838.1" x2="19330.2" y1="11553.4" y2="8766.17">
   <stop offset="0" style="stop-opacity:1; stop-color:#965759"/>
   <stop offset="1" style="stop-opacity:1; stop-color:#C49D9D"/>
  </linearGradient><linearGradient gradientUnits="userSpaceOnUse" id="Ears-Dog0id146" x1="8677.87" x2="10505.7" y1="8188.75" y2="10114.1">
   <stop offset="0" style="stop-opacity:1; stop-color:#C38380"/>
   <stop offset="1" style="stop-opacity:1; stop-color:#804444"/>
  </linearGradient><linearGradient gradientUnits="userSpaceOnUse" id="Ears-Dog0id18" x1="10235.1" x2="10235.1" y1="19681.2" y2="17649.5">
   <stop offset="0" style="stop-opacity:1; stop-color:#ccbd8d"/>
   <stop offset="1" style="stop-opacity:1; stop-color:#a59562"/>
  </linearGradient><linearGradient gradientUnits="objectBoundingBox" id="Head-Dog3id5" x1="50%" x2="50%" y1="0%" y2="100%">
   <stop offset="0" style="stop-opacity:1; stop-color:#a59562"/>
   <stop offset="1" style="stop-opacity:1; stop-color:#ccbd8d"/>
  </linearGradient><linearGradient gradientUnits="userSpaceOnUse" id="Head-Dog3id454" x1="13681.9" x2="13681.9" y1="17765.4" y2="8838.96">
   <stop offset="0" style="stop-opacity:1; stop-color:#f2ebe4"/>
   <stop offset="0.188235" style="stop-opacity:1; stop-color:#fffefd"/>
   <stop offset="1" style="stop-opacity:1; stop-color:#fffefd"/>
  </linearGradient><linearGradient gradientUnits="userSpaceOnUse" id="Eyes-Dog5id27" x1="16937.6" x2="16937.6" y1="14961.3" y2="11448.6">
   <stop offset="0" style="stop-opacity:1; stop-color:#500073"/>
   <stop offset="1" style="stop-opacity:1; stop-color:black"/>
  </linearGradient><linearGradient gradientUnits="objectBoundingBox" id="Eyes-Dog5id57" x1="100%" x2="0%" y1="50.0003%" y2="50.0003%">
   <stop offset="0" style="stop-opacity:1; stop-color:#500073"/>
   <stop offset="0.501961" style="stop-opacity:1; stop-color:#a900f2"/>
   <stop offset="1" style="stop-opacity:1; stop-color:#500073"/>
  </linearGradient><radialGradient cx="16677.2" cy="12783.5" fx="16677.2" fy="12783.5" gradientTransform="matrix(-0.257879 1.16297 1.08696 0.253253 7083 -9849)" gradientUnits="userSpaceOnUse" id="Eyes-Dog5id1055" r="1194.51">
   <stop offset="0" style="stop-opacity:1; stop-color:#3e0059"/>
   <stop offset="0.75" style="stop-opacity:1; stop-color:black"/>
   <stop offset="1" style="stop-opacity:1; stop-color:black"/>
  </radialGradient><linearGradient gradientUnits="userSpaceOnUse" id="Nose-Dog0id451" x1="13653.8" x2="13653.8" y1="14108.6" y2="14926.9">
   <stop offset="0" style="stop-opacity:1; stop-color:#FFCCCC"/>
   <stop offset="1" style="stop-opacity:1; stop-color:#453F2C"/>
  </linearGradient><linearGradient gradientUnits="userSpaceOnUse" id="Hair-Dog4id49" x1="13715.8" x2="13715.8" y1="6802.99" y2="8218.57">
   <stop offset="0" style="stop-opacity:1; stop-color:#a6673d"/>
   <stop offset="1" style="stop-opacity:1; stop-color:#bf8159"/>
  </linearGradient></defs><g id="HairBack-Dog1">
 <animateTransform additive="sum" attributeName="transform" dur="10" repeatCount="indefinite" type="translate" values="0;0 200;0;0 200;0;0 200;0;0 200;0"/>
  <metadata id="CorelCorpID_116Corel-Layer"/>
  <path class="HairBack-Dog1fil229 HairBack-Dog1str0" d="M12285 14916c-452,-984 -2423,-1284 -3774,-317 -598,428 -1194,1379 -406,2658 613,996 -896,1515 -69,2434 571,635 478,1096 126,1772 -309,593 -63,1363 915,1533 -328,-540 -266,-1119 33,-1491 301,-373 479,-900 470,-1417 250,357 383,975 -30,1623 -517,811 756,1221 214,2107 1343,-138 596,-1769 850,-2213 416,-726 819,-599 904,-1232 133,-991 -669,-2454 773,-3254 -280,-465 -213,-1821 -6,-2203z" style="fill:#4e72cd"/>
  <path class="HairBack-Dog1fil14" d="M10486 22772c587,-689 1668,-841 1957,-1288 544,-840 -2232,-3451 -791,-4251 -264,-439 -197,-972 -15,-1352 -1686,-273 -3401,-123 -2877,599 808,1116 541,1624 407,1974 -513,1343 731,1166 992,1814 450,1118 -660,1503 327,2504z" style="fill:#1133e8"/>
  <path class="HairBack-Dog1fil230 HairBack-Dog1str0" d="M14854 14916c452,-984 2422,-1284 3773,-317 599,428 1195,1379 407,2658 -613,996 896,1515 68,2434 -570,635 -477,1096 -125,1772 309,593 62,1363 -915,1533 328,-540 266,-1119 -34,-1491 -300,-373 -478,-900 -470,-1417 -249,357 -382,975 31,1623 517,811 -756,1221 -214,2107 -1343,-138 -596,-1769 -851,-2213 -415,-726 -818,-599 -903,-1232 -133,-991 668,-2454 -773,-3254 280,-465 213,-1821 6,-2203z" style="fill:#b202f7"/>
  <path class="HairBack-Dog1fil14" d="M16652 22772c-587,-689 -1667,-841 -1957,-1288 -543,-840 2233,-3451 791,-4251 265,-439 198,-972 15,-1352 1687,-273 3401,-123 2878,599 -809,1116 -542,1624 -408,1974 513,1343 -730,1166 -991,1814 -451,1118 659,1503 -328,2504z" style="fill:#48cbef"/>
 </g><g id="Tail-Dog1">
  <metadata id="CorelCorpID_119Corel-Layer"/>
  <path class="Tail-Dog1fil233" d="M13823 21789c4494,1217 6008,-1476 5166,-4408 1760,3307 158,6668 -5405,5416 -351,-52 -271,-1098 239,-1008z" style="fill:#487519"/>
  <path class="Tail-Dog1fil26" d="M19104 19815c176,-728 133,-1571 -115,-2434 438,823 668,1650 680,2409 -116,176 -435,130 -565,25z" style="fill:#02068c"/>
  <path class="Tail-Dog1fil14" d="M19669 19803c28,2229 -1831,3859 -5811,3053 -15,-311 135,-692 452,-636 3431,929 5125,-421 5359,-2417z" style="fill:#a5a155"/>
  <path class="Tail-Dog1fil22 Tail-Dog1str0" d="M13823 21789c4494,1217 6008,-1476 5166,-4408 1760,3307 158,6668 -5405,5416 -351,-52 -271,-1098 239,-1008z" style="fill:#f17d1e"/>
 </g><g id="RightFoot-Dog2">
  <metadata id="CorelCorpID_126Corel-Layer"/>
  <path class="RightFoot-Dog2fil241" d="M17461 25232c-144,249 -469,331 -709,123 -82,82 -321,169 -611,76 -475,-152 -678,-627 -1088,-897 -209,-138 -43,-480 -31,-702 205,68 639,20 960,-216 332,-245 1043,-199 820,325 153,50 376,135 488,193 178,92 308,217 397,350 166,246 124,748 -226,748z" style="fill:#152f29"/>
  <path class="RightFoot-Dog2fil14" d="M17461 25232c-144,249 -469,331 -709,123 -82,82 -321,169 -611,76 -475,-152 -678,-627 -1088,-897 -182,-120 -106,-408 -68,-624 13,30 66,32 88,19 2,85 -1,160 50,261 317,621 1468,1311 1612,663 247,396 693,243 634,-148 151,250 332,57 232,-294 150,96 185,309 179,486 -21,178 -124,335 -319,335z" style="fill:#d79af4"/>
  <path class="RightFoot-Dog2fil22" d="M16741 23949c560,135 807,327 949,532 170,244 121,751 -229,751 -144,249 -469,331 -709,123 -82,82 -321,169 -611,76 -475,-152 -614,-562 -1018,-844 -201,-140 -166,-401 -134,-554" style="fill:#4110ae"/>
  <path class="RightFoot-Dog2fil32" d="M17378 25213c0,3 0,7 0,10 -59,86 -148,149 -252,169 -84,16 -174,3 -257,-45l-12 -8c47,-255 19,-572 -334,-636 167,118 191,399 163,611 -41,33 -116,65 -215,77 -89,11 -194,6 -307,-31 -265,-85 -423,-261 -589,-447 -277,-311 -611,-400 -512,-864 8,-41 -28,-86 -58,-89 -24,-2 -80,17 -89,58 -119,558 222,630 548,995 180,201 350,392 654,490 137,43 264,50 371,37 108,-13 199,-49 262,-89l3 0c116,81 258,115 400,88 143,-28 268,-114 349,-234 151,-15 258,-113 313,-251 29,-74 44,-157 44,-240 0,-135 -38,-275 -108,-376 -77,-110 -181,-216 -341,-313 -143,-86 -331,-165 -584,-231 -71,-19 -105,8 -131,48 -23,34 -14,70 26,80 271,65 468,144 612,231 139,84 229,176 295,271 53,76 81,183 81,290 0,66 -11,130 -33,185 -25,64 -65,112 -119,138 13,-317 -128,-634 -466,-624 219,111 313,298 286,700z" style="fill:#1abd47"/>
 </g><g id="LeftFoot-Dog2">
  <metadata id="CorelCorpID_134Corel-Layer"/>
  <path class="LeftFoot-Dog2fil247" d="M9847 25232c143,249 468,331 709,123 82,82 321,169 611,76 475,-152 678,-627 1088,-897 208,-138 43,-480 31,-702 -216,88 -640,20 -960,-216 -332,-245 -1043,-199 -821,325 -152,50 -375,135 -487,193 -178,92 -308,217 -398,350 -165,246 -124,748 227,748z" style="fill:#bec441"/>
  <path class="LeftFoot-Dog2fil14" d="M9847 25232c143,249 468,331 709,123 82,82 321,169 611,76 475,-152 678,-627 1088,-897 181,-120 105,-408 68,-624 -13,30 -66,32 -88,19 -2,85 1,160 -50,261 -318,621 -1468,1311 -1612,663 -248,396 -693,243 -634,-148 -151,250 -333,57 -232,-294 -150,96 -186,309 -179,486 20,178 124,335 319,335z" style="fill:#6e1b36"/>
  <path class="LeftFoot-Dog2fil22" d="M10566 23949c-559,135 -807,327 -949,532 -169,244 -121,751 230,751 143,249 468,331 709,123 82,82 321,169 611,76 475,-152 614,-562 1017,-844 201,-140 167,-401 134,-554" style="fill:#99c537"/>
  <path class="LeftFoot-Dog2fil32" d="M9929 25213c1,3 1,7 0,10 59,86 149,149 253,169 84,16 174,3 257,-45l12 -8c-48,-255 -19,-572 333,-636 -166,118 -190,399 -162,611 41,33 116,65 215,77 89,11 193,6 307,-31 265,-85 423,-261 588,-447 278,-311 612,-400 513,-864 -9,-41 27,-86 58,-89 23,-2 80,17 88,58 119,558 -222,630 -547,995 -180,201 -351,392 -655,490 -137,43 -263,50 -370,37 -109,-13 -200,-49 -262,-89l-3 0c-116,81 -259,115 -401,88 -143,-28 -267,-114 -348,-234 -151,-15 -258,-113 -313,-251 -30,-74 -44,-157 -44,-240 0,-135 38,-275 108,-376 76,-110 181,-216 341,-313 142,-86 330,-165 584,-231 71,-19 105,8 131,48 22,34 14,70 -26,80 -271,65 -468,144 -612,231 -139,84 -230,176 -295,271 -53,76 -81,183 -81,290 0,66 11,130 32,185 26,64 65,112 120,138 -13,-317 128,-634 466,-624 -219,111 -313,298 -287,700z" style="fill:#1d6dfa"/>
 </g><g id="RightLeg-Dog5">
  <metadata id="CorelCorpID_132Corel-Layer"/>
  <path class="RightLeg-Dog5fil246" d="M13654 20939c701,0 2353,-56 2710,226 302,239 937,901 935,1761 -2,445 -277,1009 -1000,1266 -472,76 -697,-507 -1295,-235 60,-709 -911,-790 -1350,-797l0 -2221z" style="fill:#87b15c"/>
  <path class="RightLeg-Dog5fil32" d="M15057 24610c33,25 62,27 88,-6 25,-32 18,-79 -15,-104 -85,-66 -111,-236 -89,-338 34,-163 71,-342 -66,-579 0,-1 -1,-3 -2,-4 -100,-171 -247,-296 -460,-378 -208,-80 -506,-119 -859,-119l0 150c335,0 616,36 805,108 180,69 302,173 385,314 0,2 1,3 2,4 108,188 77,337 48,473 -32,154 43,385 163,479zm1227 -3463c175,139 478,451 693,860 144,272 248,587 247,919 -1,245 -87,464 -218,653 -154,223 -427,476 -707,613 326,-17 760,-427 830,-528 147,-211 244,-458 244,-738 2,-360 -110,-698 -263,-989 -227,-430 -547,-760 -734,-907l-92 117z" style="fill:#ed0a24"/>
  <path class="RightLeg-Dog5fil14" d="M17192 23390c67,-148 106,-305 107,-464 2,-775 -541,-1451 -869,-1752 -191,187 -276,614 -134,870 387,-413 1003,879 896,1346z" style="fill:#055c09"/>
 </g><g id="LeftLeg-Dog5">
  <metadata id="CorelCorpID_140Corel-Layer"/>
  <path class="LeftLeg-Dog5fil252" d="M13654 20939c-701,0 -2353,-56 -2710,226 -303,239 -938,901 -935,1761 1,445 276,1009 1000,1266 472,76 697,-507 1294,-235 -59,-709 911,-790 1351,-797l0 -2221z" style="fill:#a9e269"/>
  <path class="LeftLeg-Dog5fil32" d="M12251 24610c-33,25 -63,27 -88,-6 -25,-32 -19,-79 14,-104 85,-66 111,-236 90,-338 -34,-163 -72,-342 65,-579 1,-1 2,-3 3,-4 100,-171 246,-296 460,-378 208,-80 506,-119 859,-119l0 150c-335,0 -616,36 -806,108 -179,69 -302,173 -384,314 -1,2 -2,3 -2,4 -109,188 -77,337 -49,473 33,154 -42,385 -162,479zm-1227 -3463c-176,139 -478,451 -694,860 -143,272 -247,587 -246,919 0,245 86,464 217,653 155,223 428,476 708,613 -326,-17 -761,-427 -831,-528 -146,-211 -243,-458 -244,-738 -1,-360 110,-698 264,-989 226,-430 547,-760 733,-907l93 117z" style="fill:#fc2e9b"/>
  <path class="LeftLeg-Dog5fil14" d="M10116 23390c-67,-148 -107,-305 -107,-464 -2,-775 540,-1451 869,-1752 190,187 275,614 134,870 -388,-413 -1003,879 -896,1346z" style="fill:#978059"/>
 </g><g id="RightHand-Dog4">
 <animateTransform additive="sum" attributeName="transform" dur="10" repeatCount="indefinite" type="translate" values="0;0 200;0;0 200;0;0 200;0;0 200;0"/>
  <metadata id="CorelCorpID_144Corel-Layer"/>
  <path class="RightHand-Dog4fil256" d="M15619 17715c247,-7 498,-52 659,-90 985,362 1779,1397 2210,2149 289,504 -636,1265 -911,1014 -400,-366 -786,-483 -1129,-559 -358,-79 -514,-1818 -829,-2514z" style="fill:#8a2051"/>
  <path class="RightHand-Dog4fil257" d="M15846 17699c166,-18 321,-47 432,-74 649,238 1214,768 1648,1317 -22,483 -677,797 -1040,490 -461,-391 -268,-1164 -1040,-1733z" style="fill:#7bbddb"/>
  <path class="RightHand-Dog4fil22 RightHand-Dog4str0" d="M16041 17553c1079,269 1932,1403 2397,2213m-861 1022c-394,-360 -769,-512 -1113,-557" style="fill:#0a45a2"/>
  <path class="RightHand-Dog4fil14" d="M17401 20669c-249,-249 -500,-372 -822,-396 -156,-175 -225,-650 -133,-901 308,435 716,808 1104,1031 -30,84 -75,162 -148,228 0,12 -1,25 -1,38z" style="fill:#94cb1f"/>
 </g><g id="LeftHand-Dog4">
 <animateTransform additive="sum" attributeName="transform" dur="10" repeatCount="indefinite" type="translate" values="0;0 200;0;0 200;0;0 200;0;0 200;0"/>
  <metadata id="CorelCorpID_152Corel-Layer"/>
  <path class="LeftHand-Dog4fil262" d="M11744 17715c-246,-7 -497,-52 -658,-90 -985,362 -1779,1397 -2210,2149 -289,504 636,1265 911,1014 400,-366 786,-483 1129,-559 358,-79 514,-1818 828,-2514z" style="fill:#edc47f"/>
  <path class="LeftHand-Dog4fil57" d="M11518 17699c-166,-18 -321,-47 -432,-74 -649,238 -1214,768 -1648,1317 22,483 677,797 1040,490 461,-391 268,-1164 1040,-1733z" style="fill:#850c37"/>
  <path class="LeftHand-Dog4fil22 LeftHand-Dog4str0" d="M11323 17553c-1079,269 -1933,1403 -2397,2213m861 1022c394,-360 769,-512 1113,-557" style="fill:#47286d"/>
  <path class="LeftHand-Dog4fil14" d="M9963 20669c249,-249 500,-372 821,-396 157,-175 226,-650 134,-901 -308,435 -717,808 -1104,1031 30,84 75,162 148,228 0,12 1,25 1,38z" style="fill:#f3f8ca"/>
 </g><g id="Body-Dog0">
 <animateTransform additive="sum" attributeName="transform" dur="10" repeatCount="indefinite" type="translate" values="0;0 200;0;0 200;0;0 200;0;0 200;0"/>
  <metadata id="CorelCorpID_157Corel-Layer"/>
  <path class="Body-Dog0fil267" d="M13682 23035c-1548,0 -2752,-291 -2993,-1956 -146,-1010 387,-2357 984,-3487 334,54 1089,70 2009,70 920,0 1675,-16 2008,-70 598,1130 1131,2477 985,3487 -242,1665 -1445,1956 -2993,1956z" style="fill:#92973b"/>
  <path class="Body-Dog0fil268" d="M13682 17605c-1173,0 -1911,-440 -2137,431 -273,1050 -1533,4839 2137,4839 3670,0 2410,-3789 2137,-4839 -226,-871 -964,-431 -2137,-431z" style="fill:#964084"/>
  <path class="Body-Dog0fil14" d="M12620 22967c-1015,-156 -1748,-629 -1931,-1888 -72,-498 21,-1078 206,-1674 -224,2001 425,3224 1725,3562z" style="fill:#4105c9"/>
  <path class="Body-Dog0fil14" d="M14743 22967c1016,-156 1749,-629 1932,-1888 72,-498 -21,-1078 -206,-1674 224,2001 -425,3224 -1726,3562z" style="fill:#51a4b3"/>
  <path class="Body-Dog0fil32" d="M11012 22044c-250,-321 -348,-641 -397,-954 -59,-377 -28,-1005 180,-1327 -79,420 -89,912 -32,1305 50,341 104,572 249,976z" style="fill:#d77fb8"/>
  <path class="Body-Dog0fil32" d="M16352 22044c250,-321 347,-641 397,-954 59,-377 24,-998 -184,-1320 78,421 93,905 36,1298 -50,341 -104,572 -249,976z" style="fill:#f716c5"/>
 </g><g id="WeaponBflyNetBack-Medium">
 <animateTransform additive="sum" attributeName="transform" dur="10" repeatCount="indefinite" type="translate" values="0;0 200;0;0 200;0;0 200;0;0 200;0"/>
  <metadata id="CorelCorpID_6Corel-Layer"/>
  <path class="WeaponBflyNetBack-Mediumfil12 WeaponBflyNetBack-Mediumstr0" d="M9510 21699l211 -158 -3097 -1978c-171,-110 -453,-135 -615,154 -163,288 4,515 187,606l3288 1638 26 -262z" style="fill:#76ff34"/>
  <path class="WeaponBflyNetBack-Mediumfil1" d="M6205 19540c-65,37 -126,96 -176,184 -162,288 5,515 188,606l3267 1631 22 -220c-464,-223 -2955,-1545 -3141,-1708 -152,-132 -207,-333 -160,-493z" style="fill:#b75d12"/>
 </g><g id="RightPaw-Dog0">
 <animateTransform additive="sum" attributeName="transform" dur="10" repeatCount="indefinite" type="translate" values="0;0 200;0;0 200;0;0 200;0;0 200;0"/>
  <metadata id="CorelCorpID_146Corel-Layer"/>
  <path class="RightPaw-Dog0fil259" d="M17402 20631c-38,818 551,1339 943,981 309,484 1078,126 986,-356 248,-652 -532,-1279 -980,-1632 -241,-78 -377,-149 -564,-64 -316,143 -32,749 -385,1071z" style="fill:#e2926c"/>
  <path class="RightPaw-Dog0fil14" d="M17402 20631c-17,192 32,393 33,395 44,201 137,399 285,544 194,184 433,219 637,33 492,772 1351,-293 810,-632 144,452 -486,750 -723,253 -324,480 -778,69 -787,-350 -5,-223 56,-314 -107,-471 -30,84 -75,162 -148,228z" style="fill:#888968"/>
  <path class="RightPaw-Dog0fil32" d="M18446 21611c107,-163 129,-451 -88,-537 74,121 26,386 -69,476 -138,130 -263,138 -430,31 -93,-59 -178,-155 -245,-278 -93,-172 -149,-397 -138,-656 1,-21 -7,-43 -24,-59 -52,-50 -128,-78 -180,-116 -33,-25 -76,-27 -100,6 -24,33 -10,74 23,99 44,31 87,68 130,100 -5,272 57,511 157,696 79,147 183,261 296,334 178,114 384,128 560,8 101,121 232,181 368,195 211,22 433,-69 573,-226 103,-115 160,-263 137,-425 229,-648 -410,-1166 -864,-1533 -104,-84 -134,-147 -206,-255 -23,-34 -69,-44 -104,-21 -34,23 -43,70 -20,104 80,121 120,196 236,290 356,288 865,714 854,1122 -52,-71 -158,-158 -280,-146 191,160 321,562 136,764 -110,120 -284,194 -446,177 -102,-10 -201,-57 -276,-150z" style="fill:#19e3c4"/>
 </g><g id="LeftPaw-Dog0">
 <animateTransform additive="sum" attributeName="transform" dur="10" repeatCount="indefinite" type="translate" values="0;0 200;0;0 200;0;0 200;0;0 200;0"/>
  <metadata id="CorelCorpID_154Corel-Layer"/>
  <path class="LeftPaw-Dog0fil265" d="M9962 20631c38,818 -552,1339 -944,981 -308,484 -1077,126 -986,-356 -247,-652 533,-1279 981,-1632 241,-78 377,-149 564,-64 316,143 31,749 385,1071z" style="fill:#ca412b"/>
  <path class="LeftPaw-Dog0fil14" d="M9962 20631c16,192 -32,393 -33,395 -44,201 -137,399 -285,544 -194,184 -433,219 -637,33 -493,772 -1351,-293 -810,-632 -144,452 485,750 723,253 324,480 778,69 787,-350 4,-223 -56,-314 107,-471 30,84 75,162 148,228z" style="fill:#ee780b"/>
  <path class="LeftPaw-Dog0fil32" d="M8918 21611c-107,-163 -129,-451 88,-537 -74,121 -26,386 69,476 138,130 263,138 430,31 92,-59 178,-155 245,-278 93,-172 149,-397 138,-656 -1,-21 7,-43 24,-59 52,-50 128,-78 180,-116 33,-25 75,-27 100,6 24,33 10,74 -24,99 -43,31 -86,68 -129,100 5,272 -57,511 -157,696 -80,147 -183,261 -296,334 -178,114 -384,128 -560,8 -101,121 -232,181 -369,195 -210,22 -432,-69 -572,-226 -103,-115 -161,-263 -137,-425 -229,-648 410,-1166 863,-1533 105,-84 134,-147 207,-255 23,-34 69,-44 103,-21 35,23 44,70 21,104 -81,121 -120,196 -236,290 -356,288 -865,714 -854,1122 52,-71 157,-158 280,-146 -191,160 -321,562 -136,764 110,120 284,194 446,177 102,-10 201,-57 276,-150z" style="fill:#242e8c"/>
 </g><g id="NecklaceChain">
 <animateTransform additive="sum" attributeName="transform" dur="10" repeatCount="indefinite" type="translate" values="0;0 200;0;0 200;0;0 200;0;0 200;0"/>
  <metadata id="CorelCorpID_39Corel-Layer"/>
  <path class="NecklaceChainfil223new NecklaceChainstr0new" d="M16804 16967c28,24 57,50 60,83 2,47 -30,107 -75,125 5,4 9,8 13,13 31,35 61,100 80,143 82,-76 201,-238 183,-364l-261 0zm-271 210c35,83 68,168 99,254 26,32 81,70 79,115 -1,47 -39,101 -84,114 4,4 8,9 12,14 27,37 50,102 65,146 94,-68 236,-226 212,-353 -22,-69 -75,-200 -121,-253 -50,-50 -215,-119 -262,-37zm-161 457c28,85 53,170 76,256 23,34 74,77 69,121 -6,45 -49,94 -95,101 4,4 8,9 11,15 24,39 41,105 52,150 98,-56 254,-194 242,-321 -17,-70 -58,-202 -98,-258 -45,-52 -203,-138 -257,-64zm-199 424c20,85 37,171 52,257 20,35 66,83 57,126 -10,43 -57,85 -102,86 3,5 6,10 9,16 19,41 30,107 37,152 101,-42 269,-159 269,-284 -10,-70 -39,-203 -74,-262 -39,-55 -187,-157 -248,-91zm-234 387c10,73 18,145 24,218 0,14 0,28 0,42 15,41 54,94 36,139 -17,45 -73,88 -123,87 3,5 5,11 7,17 12,46 10,119 8,166 123,-35 275,-140 327,-260 3,-7 5,-20 5,-27 -3,-70 -19,-202 -48,-264 -34,-59 -172,-173 -236,-118zm-297 381c-4,91 -13,183 -24,274 10,42 41,99 18,141 -22,41 -83,74 -130,65 2,6 3,12 4,18 6,47 -5,117 -14,163 120,-19 325,-100 364,-231 11,-73 23,-217 5,-287 -25,-67 -145,-198 -223,-143zm-350 340c-16,88 -36,176 -59,263 3,41 26,104 -2,140 -28,37 -92,59 -136,42 1,6 1,12 1,19 -1,46 -22,113 -38,157 120,1 332,-44 388,-166 22,-71 53,-209 44,-280 -15,-67 -115,-216 -198,-175zm-384 271c-6,19 -13,38 -20,57 -26,66 -54,130 -85,194 -4,43 7,108 -29,140 -35,31 -104,43 -146,19 -1,6 -1,12 -3,18 -10,47 -46,109 -71,150 123,22 348,12 429,-102 24,-47 44,-94 62,-143 13,-40 27,-85 29,-127 -5,-71 -83,-230 -166,-206zm-435 205c-45,79 -96,154 -150,226 -12,42 -14,107 -55,131 -41,25 -111,22 -147,-10 -2,6 -4,12 -6,18 -20,43 -68,97 -101,132 116,46 340,81 442,-16 47,-58 127,-177 144,-248 10,-73 -38,-242 -127,-233zm-463 116c-60,68 -126,131 -194,191 -21,38 -37,101 -83,117 -17,5 -31,6 -49,5 -38,-4 -71,-16 -96,-46 -2,5 -6,11 -9,16 -29,38 -88,81 -128,108 75,52 144,79 233,95 61,10 157,18 210,-18 59,-48 162,-148 194,-215 24,-69 11,-245 -78,-253zm-482 18c-73,53 -151,102 -230,146 -28,33 -56,92 -104,97 -47,6 -110,-24 -130,-69 -4,5 -8,10 -13,14 -35,32 -101,62 -145,80 88,90 278,212 411,165 67,-34 189,-111 234,-169 39,-63 63,-237 -23,-264zm-471 -82c-82,38 -167,70 -254,97 -34,27 -73,79 -121,75 -47,-4 -103,-46 -114,-94 -5,4 -10,8 -15,11 -41,24 -112,41 -159,51 69,104 231,261 370,242 72,-20 206,-71 261,-119 50,-53 109,-219 32,-263zm-447 -174c-55,12 -108,22 -163,31 -35,6 -69,11 -103,17 -37,19 -85,64 -130,53 -45,-12 -90,-62 -91,-110 -6,4 -11,6 -17,9 -44,17 -114,23 -161,25 46,110 170,290 304,293 13,-1 25,-3 37,-4 75,-10 175,-28 242,-63 60,-42 151,-193 82,-251zm-401 -249c-89,6 -179,7 -269,4 -41,13 -96,49 -138,30 -44,-19 -82,-77 -77,-125 -5,3 -11,5 -17,6 -47,10 -118,4 -166,-2 31,117 129,317 262,344 73,5 214,2 281,-24 61,-30 183,-163 124,-233zm-363 -317c-91,-9 -182,-24 -272,-42 -43,7 -103,34 -143,8 -41,-26 -72,-90 -61,-138 -6,2 -12,3 -18,3 -32,1 -65,-5 -96,-11 -3,1 -58,-9 -65,-10 0,19 2,37 4,55 25,104 98,286 208,325 73,17 215,37 285,23 68,-21 207,-132 158,-213zm-326 -381c-84,-15 -168,-35 -250,-58 -40,4 -104,25 -138,-1 -35,-27 -52,-88 -34,-130 -6,1 -12,2 -18,2 -46,0 -111,-20 -155,-33 -4,108 29,313 142,364 68,20 140,35 211,41 3,3 49,5 57,5 72,-10 218,-99 187,-187 -1,-1 -1,-2 -2,-3zm-246 -372c-83,-27 -165,-58 -246,-91 -40,-2 -106,12 -137,-19 -33,-31 -45,-95 -23,-136 -6,1 -12,0 -18,0 -46,-6 -109,-33 -151,-52 -14,110 -1,321 107,387 64,29 192,74 261,74 66,-5 232,-78 207,-163zm-212 -412c-81,-37 -160,-79 -238,-122 -41,-6 -107,1 -136,-34 -29,-36 -35,-103 -9,-142 -7,0 -13,-1 -19,-3 -45,-11 -106,-45 -146,-70 -24,112 -31,328 71,407 62,37 185,98 254,107 68,2 240,-53 223,-143zm-175 -446c-77,-47 -152,-98 -226,-151 -41,-11 -107,-11 -133,-50 -25,-40 -26,-108 3,-146 -6,-1 -12,-3 -18,-5 -15,-5 -31,-14 -48,-24l-107 0c-24,118 -28,284 49,360 58,44 177,120 245,137 69,10 244,-28 235,-121zm5722 111c-31,-85 -64,-168 -98,-251 -44,-48 -43,-171 -5,-236l-223 0c-23,64 -33,130 -20,184 24,65 107,211 152,261 35,34 188,127 194,42zm-186 457c-23,-86 -48,-170 -75,-254 -45,-59 -23,-207 37,-250 -38,-52 -73,-117 -102,-175 -95,64 -194,230 -176,348 19,66 87,215 128,269 30,34 175,144 188,62zm-224 421c-15,-85 -32,-170 -52,-255 -39,-61 -5,-201 58,-236 -32,-55 -61,-121 -85,-181 -99,51 -212,199 -204,315 13,67 68,219 103,275 25,36 159,161 180,82zm-266 389c0,-26 0,-54 -1,-80 -5,-61 -12,-120 -21,-181 -32,-62 13,-195 79,-221 -27,-57 -50,-124 -69,-184 -100,36 -225,165 -228,278 6,48 22,108 34,155 9,43 18,92 35,133 22,46 137,182 171,100zm-346 390c11,-90 19,-181 24,-271 -22,-72 53,-209 123,-233 -12,-43 -21,-90 -28,-135 -5,-21 -10,-41 -15,-62 -6,1 -46,10 -49,14 -85,46 -213,163 -233,263 -4,78 5,225 23,301 16,45 111,198 155,123zm-386 324c23,-86 43,-173 58,-261 -11,-72 76,-193 148,-204 -10,-64 -13,-137 -15,-202 -109,15 -270,115 -308,224 -14,76 -23,221 -16,296 9,45 80,213 133,147zm-431 254c37,-76 69,-150 99,-230 1,-1 6,-16 7,-19 -1,-71 98,-175 170,-174 -1,-64 5,-134 12,-198 -112,-5 -259,61 -322,156 -1,2 -3,5 -4,8 -26,72 -62,215 -68,290 0,48 40,224 106,167zm-479 174c54,-72 104,-147 149,-224 14,-70 135,-155 206,-142 11,-64 29,-132 47,-194 -105,-22 -284,16 -355,104 -37,66 -98,200 -119,271 -8,46 -4,227 72,185zm-506 73c68,-58 133,-121 193,-188 28,-65 162,-125 229,-98 22,-60 53,-123 82,-181 -98,-42 -277,-40 -363,32 -50,56 -139,176 -174,240 -18,44 -51,222 33,195zm-514 -33c78,-43 154,-91 228,-143 42,-53 120,-69 185,-67 23,2 42,6 62,18 35,-54 78,-109 118,-160 -55,-43 -112,-56 -180,-64 -51,-4 -140,-7 -186,20 -60,45 -171,143 -218,199 -27,39 -96,206 -9,197zm-491 -135c86,-27 170,-59 252,-95 51,-50 198,-50 248,2 45,-46 99,-91 148,-132 -72,-78 -237,-149 -345,-118 -68,32 -196,105 -254,151 -34,33 -135,183 -49,192zm-454 -227c47,-7 93,-15 140,-24 41,-7 82,-15 123,-24 61,-38 207,-8 246,53 53,-36 115,-69 172,-100 -56,-93 -207,-194 -320,-186 -12,2 -84,22 -90,25 -58,21 -133,46 -187,76 -38,26 -165,157 -84,180zm-400 -296c89,3 179,2 268,-3 65,-28 201,24 228,91 58,-26 124,-48 184,-68 -36,-102 -164,-226 -276,-237 -77,5 -222,29 -293,53 -44,19 -189,127 -111,164zm-362 -365c89,18 180,32 270,42 71,-16 202,61 219,132 62,-15 132,-25 197,-33 -23,-110 -137,-259 -250,-290 -78,-9 -228,-10 -303,2 -49,13 -206,97 -133,147zm-298 -395c82,22 165,42 249,58 17,-2 30,0 46,4 67,28 141,87 155,162 65,-5 138,-3 204,0 -7,-120 -82,-225 -168,-305 -13,-10 -28,-22 -45,-26 -75,-15 -215,-26 -290,-20 -43,8 -213,75 -151,127zm-239 -407c81,33 162,63 245,91 70,-2 173,96 168,168 63,-1 132,6 194,14 12,-108 -53,-273 -154,-326 -73,-25 -213,-54 -289,-58 -45,3 -221,52 -164,111zm-201 -443c78,43 157,84 237,121 71,8 164,121 153,193 63,7 132,23 194,39 21,-109 -30,-287 -125,-354 -61,-31 -218,-85 -285,-93 -47,-3 -225,27 -174,94zm-160 -476c73,53 148,103 225,151 71,15 153,143 135,215 63,15 131,39 191,63 32,-111 -4,-299 -93,-378 -58,-39 -210,-113 -276,-128 -49,-9 -227,3 -182,77zm202 -192c12,37 17,74 8,101 61,22 126,55 184,86 19,-50 26,-118 19,-187l-211 0z" style="fill:#68dd5d"/>
  <path class="NecklaceChainfil224new" d="M16804 16967c28,24 57,50 60,83 2,47 -30,107 -75,125 5,4 9,8 13,13 31,35 61,100 80,143 82,-76 201,-238 183,-364l-261 0zm-271 210c35,83 68,168 99,254 26,32 81,70 79,115 -1,47 -39,101 -84,114 4,4 8,9 12,14 27,37 50,102 65,146 94,-68 236,-226 212,-353 -22,-69 -75,-200 -121,-253 -50,-50 -215,-119 -262,-37zm-161 457c28,85 53,170 76,256 23,34 74,77 69,121 -6,45 -49,94 -95,101 4,4 8,9 11,15 24,39 41,105 52,150 98,-56 254,-194 242,-321 -17,-70 -58,-202 -98,-258 -45,-52 -203,-138 -257,-64zm-199 424c20,85 37,171 52,257 20,35 66,83 57,126 -10,43 -57,85 -102,86 3,5 6,10 9,16 19,41 30,107 37,152 101,-42 269,-159 269,-284 -10,-70 -39,-203 -74,-262 -39,-55 -187,-157 -248,-91zm-234 387c10,73 18,145 24,218 0,14 0,28 0,42 15,41 54,94 36,139 -17,45 -73,88 -123,87 3,5 5,11 7,17 12,46 10,119 8,166 123,-35 275,-140 327,-260 3,-7 5,-20 5,-27 -3,-70 -19,-202 -48,-264 -34,-59 -172,-173 -236,-118zm-297 381c-4,91 -13,183 -24,274 10,42 41,99 18,141 -22,41 -83,74 -130,65 2,6 3,12 4,18 6,47 -5,117 -14,163 120,-19 325,-100 364,-231 11,-73 23,-217 5,-287 -25,-67 -145,-198 -223,-143zm-350 340c-16,88 -36,176 -59,263 3,41 26,104 -2,140 -28,37 -92,59 -136,42 1,6 1,12 1,19 -1,46 -22,113 -38,157 120,1 332,-44 388,-166 22,-71 53,-209 44,-280 -15,-67 -115,-216 -198,-175zm-384 271c-6,19 -13,38 -20,57 -26,66 -54,130 -85,194 -4,43 7,108 -29,140 -35,31 -104,43 -146,19 -1,6 -1,12 -3,18 -10,47 -46,109 -71,150 123,22 348,12 429,-102 24,-47 44,-94 62,-143 13,-40 27,-85 29,-127 -5,-71 -83,-230 -166,-206zm-435 205c-45,79 -96,154 -150,226 -12,42 -14,107 -55,131 -41,25 -111,22 -147,-10 -2,6 -4,12 -6,18 -20,43 -68,97 -101,132 116,46 340,81 442,-16 47,-58 127,-177 144,-248 10,-73 -38,-242 -127,-233zm-463 116c-60,68 -126,131 -194,191 -21,38 -37,101 -83,117 -17,5 -31,6 -49,5 -38,-4 -71,-16 -96,-46 -2,5 -6,11 -9,16 -29,38 -88,81 -128,108 75,52 144,79 233,95 61,10 157,18 210,-18 59,-48 162,-148 194,-215 24,-69 11,-245 -78,-253zm-482 18c-73,53 -151,102 -230,146 -28,33 -56,92 -104,97 -47,6 -110,-24 -130,-69 -4,5 -8,10 -13,14 -35,32 -101,62 -145,80 88,90 278,212 411,165 67,-34 189,-111 234,-169 39,-63 63,-237 -23,-264zm-471 -82c-82,38 -167,70 -254,97 -34,27 -73,79 -121,75 -47,-4 -103,-46 -114,-94 -5,4 -10,8 -15,11 -41,24 -112,41 -159,51 69,104 231,261 370,242 72,-20 206,-71 261,-119 50,-53 109,-219 32,-263zm-447 -174c-55,12 -108,22 -163,31 -35,6 -69,11 -103,17 -37,19 -85,64 -130,53 -45,-12 -90,-62 -91,-110 -6,4 -11,6 -17,9 -44,17 -114,23 -161,25 46,110 170,290 304,293 13,-1 25,-3 37,-4 75,-10 175,-28 242,-63 60,-42 151,-193 82,-251zm-401 -249c-89,6 -179,7 -269,4 -41,13 -96,49 -138,30 -44,-19 -82,-77 -77,-125 -5,3 -11,5 -17,6 -47,10 -118,4 -166,-2 31,117 129,317 262,344 73,5 214,2 281,-24 61,-30 183,-163 124,-233zm-363 -317c-91,-9 -182,-24 -272,-42 -43,7 -103,34 -143,8 -41,-26 -72,-90 -61,-138 -6,2 -12,3 -18,3 -32,1 -65,-5 -96,-11 -3,1 -58,-9 -65,-10 0,19 2,37 4,55 25,104 98,286 208,325 73,17 215,37 285,23 68,-21 207,-132 158,-213zm-326 -381c-84,-15 -168,-35 -250,-58 -40,4 -104,25 -138,-1 -35,-27 -52,-88 -34,-130 -6,1 -12,2 -18,2 -46,0 -111,-20 -155,-33 -4,108 29,313 142,364 68,20 140,35 211,41 3,3 49,5 57,5 72,-10 218,-99 187,-187 -1,-1 -1,-2 -2,-3zm-246 -372c-83,-27 -165,-58 -246,-91 -40,-2 -106,12 -137,-19 -33,-31 -45,-95 -23,-136 -6,1 -12,0 -18,0 -46,-6 -109,-33 -151,-52 -14,110 -1,321 107,387 64,29 192,74 261,74 66,-5 232,-78 207,-163zm-212 -412c-81,-37 -160,-79 -238,-122 -41,-6 -107,1 -136,-34 -29,-36 -35,-103 -9,-142 -7,0 -13,-1 -19,-3 -45,-11 -106,-45 -146,-70 -24,112 -31,328 71,407 62,37 185,98 254,107 68,2 240,-53 223,-143zm-175 -446c-77,-47 -152,-98 -226,-151 -41,-11 -107,-11 -133,-50 -25,-40 -26,-108 3,-146 -6,-1 -12,-3 -18,-5 -15,-5 -31,-14 -48,-24l-107 0c-24,118 -28,284 49,360 58,44 177,120 245,137 69,10 244,-28 235,-121zm5722 111c-31,-85 -64,-168 -98,-251 -44,-48 -43,-171 -5,-236l-223 0c-23,64 -33,130 -20,184 24,65 107,211 152,261 35,34 188,127 194,42zm-186 457c-23,-86 -48,-170 -75,-254 -45,-59 -23,-207 37,-250 -38,-52 -73,-117 -102,-175 -95,64 -194,230 -176,348 19,66 87,215 128,269 30,34 175,144 188,62zm-224 421c-15,-85 -32,-170 -52,-255 -39,-61 -5,-201 58,-236 -32,-55 -61,-121 -85,-181 -99,51 -212,199 -204,315 13,67 68,219 103,275 25,36 159,161 180,82zm-266 389c0,-26 0,-54 -1,-80 -5,-61 -12,-120 -21,-181 -32,-62 13,-195 79,-221 -27,-57 -50,-124 -69,-184 -100,36 -225,165 -228,278 6,48 22,108 34,155 9,43 18,92 35,133 22,46 137,182 171,100zm-346 390c11,-90 19,-181 24,-271 -22,-72 53,-209 123,-233 -12,-43 -21,-90 -28,-135 -5,-21 -10,-41 -15,-62 -6,1 -46,10 -49,14 -85,46 -213,163 -233,263 -4,78 5,225 23,301 16,45 111,198 155,123zm-386 324c23,-86 43,-173 58,-261 -11,-72 76,-193 148,-204 -10,-64 -13,-137 -15,-202 -109,15 -270,115 -308,224 -14,76 -23,221 -16,296 9,45 80,213 133,147zm-431 254c37,-76 69,-150 99,-230 1,-1 6,-16 7,-19 -1,-71 98,-175 170,-174 -1,-64 5,-134 12,-198 -112,-5 -259,61 -322,156 -1,2 -3,5 -4,8 -26,72 -62,215 -68,290 0,48 40,224 106,167zm-479 174c54,-72 104,-147 149,-224 14,-70 135,-155 206,-142 11,-64 29,-132 47,-194 -105,-22 -284,16 -355,104 -37,66 -98,200 -119,271 -8,46 -4,227 72,185zm-506 73c68,-58 133,-121 193,-188 28,-65 162,-125 229,-98 22,-60 53,-123 82,-181 -98,-42 -277,-40 -363,32 -50,56 -139,176 -174,240 -18,44 -51,222 33,195zm-514 -33c78,-43 154,-91 228,-143 42,-53 120,-69 185,-67 23,2 42,6 62,18 35,-54 78,-109 118,-160 -55,-43 -112,-56 -180,-64 -51,-4 -140,-7 -186,20 -60,45 -171,143 -218,199 -27,39 -96,206 -9,197zm-491 -135c86,-27 170,-59 252,-95 51,-50 198,-50 248,2 45,-46 99,-91 148,-132 -72,-78 -237,-149 -345,-118 -68,32 -196,105 -254,151 -34,33 -135,183 -49,192zm-454 -227c47,-7 93,-15 140,-24 41,-7 82,-15 123,-24 61,-38 207,-8 246,53 53,-36 115,-69 172,-100 -56,-93 -207,-194 -320,-186 -12,2 -84,22 -90,25 -58,21 -133,46 -187,76 -38,26 -165,157 -84,180zm-400 -296c89,3 179,2 268,-3 65,-28 201,24 228,91 58,-26 124,-48 184,-68 -36,-102 -164,-226 -276,-237 -77,5 -222,29 -293,53 -44,19 -189,127 -111,164zm-362 -365c89,18 180,32 270,42 71,-16 202,61 219,132 62,-15 132,-25 197,-33 -23,-110 -137,-259 -250,-290 -78,-9 -228,-10 -303,2 -49,13 -206,97 -133,147zm-298 -395c82,22 165,42 249,58 17,-2 30,0 46,4 67,28 141,87 155,162 65,-5 138,-3 204,0 -7,-120 -82,-225 -168,-305 -13,-10 -28,-22 -45,-26 -75,-15 -215,-26 -290,-20 -43,8 -213,75 -151,127zm-239 -407c81,33 162,63 245,91 70,-2 173,96 168,168 63,-1 132,6 194,14 12,-108 -53,-273 -154,-326 -73,-25 -213,-54 -289,-58 -45,3 -221,52 -164,111zm-201 -443c78,43 157,84 237,121 71,8 164,121 153,193 63,7 132,23 194,39 21,-109 -30,-287 -125,-354 -61,-31 -218,-85 -285,-93 -47,-3 -225,27 -174,94zm-160 -476c73,53 148,103 225,151 71,15 153,143 135,215 63,15 131,39 191,63 32,-111 -4,-299 -93,-378 -58,-39 -210,-113 -276,-128 -49,-9 -227,3 -182,77zm202 -192c12,37 17,74 8,101 61,22 126,55 184,86 19,-50 26,-118 19,-187l-211 0z" style="fill:#5b48b5"/>
 </g><g id="Ears-Dog0">
 <animateTransform additive="sum" attributeName="transform" dur="10" repeatCount="indefinite" type="translate" values="0;0 200;0;0 200;0;0 200;0;0 200;0"/>
  <metadata id="CorelCorpID_162Corel-Layer"/>
  <g>
        <animateTransform additive="sum" attributeName="transform" dur="10" repeatCount="indefinite" type="rotate" values="0;0;0;0;0;0;10;0;0;0;0;0;0;0;0;0;0;0;0;0;0;0;0;0;0;0;0;0;0;0;0;0;0;0;0;0;0;0;0;0;0;0;0;0;0;10;0;0;0;0;0;0;0;0;0;0;0;0;0;0;0;0;0;0;0;0;0;0;0;0;0;0;0;0;0;0;0;0;0;0;0;0"/>
        <g>
			<animateTransform additive="sum" attributeName="transform" dur="10" repeatCount="indefinite" type="translate" values="0;0;0;0;0;0;2000 -2000;0;0;0;0;0;0;0;0;0;0;0;0;0;0;0;0;0;0;0;0;0;0;0;0;0;0;0;0;0;0;0;0;0;0;0;0;0;0;2000 -2000;0;0;0;0;0;0;0;0;0;0;0;0;0;0;0;0;0;0;0;0;0;0;0;0;0;0;0;0;0;0;0;0;0;0;0;0"/>
			    <path class="Ears-Dog0fil272 Ears-Dog0str4" d="M9451 7655c-1070,112 -1592,598 -2189,2194 -478,1278 187,2337 649,2689 687,-2391 2136,-3601 3378,-4423 -80,-213 -900,-557 -1838,-460z" style="fill:#c71bbe"/>
          <path class="Ears-Dog0fil273" d="M11195 8845c-1112,-705 -2249,-803 -3475,85 -119,456 -237,911 -356,1367 82,797 283,1435 740,1732 1005,-1058 2086,-2126 3091,-3184z" style="fill:#a03066"/>
          <path class="Ears-Dog0fil274" d="M10467 9844c-63,-1501 -2369,-1513 -2568,-892 -125,387 -10,1239 150,1518 290,507 725,848 1299,820 207,-259 1033,-1366 1119,-1446z" style="fill:#114a53"/>
          <path class="Ears-Dog0fil14" d="M11195 8845c-962,-610 -1943,-765 -2984,-221 -278,252 -508,568 -661,959l-172 660c711,-1056 2373,-1137 2854,-401 326,-333 648,-665 963,-997z" style="fill:#2a06a5"/>
          <path class="Ears-Dog0fil275 Ears-Dog0str0" d="M9451 7655c-1070,112 -2706,969 -3302,2565 -222,593 788,1442 1346,1116 306,-178 881,-3236 2778,-3661 -250,-38 -530,-50 -822,-20z" style="fill:#05c789"/>
		    </g>
  </g>
  <g>
        <animateTransform additive="sum" attributeName="transform" dur="10" repeatCount="indefinite" type="rotate" values="0;0;0;0;0;0;-10;0;0;0;0;0;0;0;0;0;0;0;0;0;0;0;0;0;0;0;0;0;0;0;0;0;0;0;0;0;0;0;0;0;0;0;0;0;0;0;0;0;0;0;0;0;0;0;0;-10;0;0;0;0;0;0;0;0;0;0;0;0;0;0;0;0;0;0;0;0;0;0;0;0;0;0"/>
        <g>
            <animateTransform additive="sum" attributeName="transform" dur="10" repeatCount="indefinite" type="translate" values="0;0;0;0;0;0;-2500 2500;0;0;0;0;0;0;0;0;0;0;0;0;0;0;0;0;0;0;0;0;0;0;0;0;0;0;0;0;0;0;0;0;0;0;0;0;0;0;0;0;0;0;0;0;0;0;0;0;-2500 2500;0;0;0;0;0;0;0;0;0;0;0;0;0;0;0;0;0;0;0;0;0;0;0;0;0;0"/>
            <path class="Ears-Dog0fil276 Ears-Dog0str4" d="M17913 7655c1070,112 1592,598 2188,2194 478,1278 -186,2337 -648,2689 -687,-2391 -2136,-3601 -3379,-4423 81,-213 900,-557 1839,-460z" style="fill:#657b90"/>
            <path class="Ears-Dog0fil277" d="M16168 8845c1113,-705 2250,-803 3476,85 119,456 237,911 356,1367 -82,797 -283,1435 -740,1732 -1005,-1058 -2087,-2126 -3092,-3184z" style="fill:#f71733"/>
            <path class="Ears-Dog0fil278" d="M16897 9844c63,-1501 2369,-1513 2568,-892 124,387 10,1239 -150,1518 -290,507 -725,848 -1299,820 -207,-259 -1033,-1366 -1119,-1446z" style="fill:#4bbfce"/>
            <path class="Ears-Dog0fil14" d="M16168 8845c963,-610 1944,-765 2984,-221 278,252 508,568 662,959l172 660c-712,-1056 -2373,-1137 -2854,-401 -326,-333 -648,-665 -964,-997z" style="fill:#35bc61"/>
            <path class="Ears-Dog0fil279 Ears-Dog0str0" d="M17913 7655c1070,112 2706,969 3302,2565 222,593 -788,1442 -1347,1116 -305,-178 -880,-3236 -2778,-3661 251,-38 531,-50 823,-20z" style="fill:#a1ad0e"/>
		    </g>
  </g>
 </g><g id="Head-Dog3">
 <animateTransform additive="sum" attributeName="transform" dur="10" repeatCount="indefinite" type="translate" values="0;0 200;0;0 200;0;0 200;0;0 200;0"/>
  <metadata id="CorelCorpID_175Corel-Layer"/>
  <path class="Head-Dog3fil334" d="M13682 7365c-2942,0 -5729,2885 -6401,5780 -322,1390 -122,2887 313,3617 213,356 133,-335 613,-650 -153,1055 822,2563 940,2290 495,-1143 1496,-881 2526,-576 592,175 1333,279 2009,279 676,0 1417,-104 2008,-279 1031,-305 2032,-567 2527,576 118,273 1093,-1235 940,-2290 480,315 400,1006 612,650 436,-730 635,-2227 313,-3617 -671,-2895 -3458,-5780 -6400,-5780z" style="fill:#54a43f"/>
  <path class="Head-Dog3fil335" d="M11670 17822c587,187 1336,294 2012,294 676,0 1424,-107 2012,-294 877,-278 2234,-1107 2812,-590 112,100 1117,-2896 -801,-4183 -1531,-1027 -1509,-3010 -2739,-2996 -719,8 -645,776 -1284,776 -639,0 -565,-768 -1285,-776 -1229,-14 -1207,1969 -2738,2996 -1918,1287 -914,4283 -802,4183 579,-517 1936,312 2813,590z" style="fill:#b6d0b2"/>
  <path class="Head-Dog3fil32" d="M13682 7459c552,0 1099,101 1626,285 302,105 959,411 1688,816 -411,-435 -1448,-891 -1639,-957 -543,-189 -1107,-294 -1675,-294 -568,0 -1132,105 -1675,294 -191,66 -1229,522 -1639,957 728,-405 1386,-711 1688,-816 527,-184 1074,-285 1626,-285z" style="fill:#d96031"/>
  <path class="Head-Dog3fil336" d="M13682 17379c-1270,0 -2248,-503 -2588,-1503 -362,-1062 443,-2027 1206,-2414 586,-297 662,-2027 1382,-2027 719,0 796,1730 1381,2027 763,387 1569,1352 1207,2414 -340,1000 -1318,1503 -2588,1503z" style="fill:#f845a9"/>
  <path class="Head-Dog3fil14" d="M7993 11299c-322,596 -566,1221 -712,1846 -322,1390 -122,2887 313,3617 213,356 133,-335 613,-650 -153,1055 822,2563 940,2290 495,-1143 1496,-881 2526,-576 148,44 306,83 469,117 -809,-176 -2239,-1744 -3152,-916 -266,242 -506,-441 -566,-1023 -41,-395 -35,-746 -99,-666 -1085,1328 -1037,-2508 -332,-4039z" style="fill:#b0de01"/>
  <path class="Head-Dog3fil32" d="M8295 10786c-424,698 -847,1973 -941,2376 -152,657 -186,1339 -133,1950 57,663 216,1241 438,1611 24,41 0,77 13,69 9,-6 30,-59 59,-131 70,-176 175,-441 435,-612 35,-22 81,-13 104,22 11,17 14,36 11,54 -93,646 253,1471 549,1925 69,106 135,191 192,247 29,29 51,49 64,58 261,-589 654,-817 1117,-858 203,-18 956,45 1939,446 -420,-104 -1541,-332 -1926,-298 -414,37 -766,246 -1001,786 -18,43 -48,67 -88,76 -60,12 -133,-26 -211,-104 -63,-63 -136,-156 -211,-271 -283,-434 -609,-1195 -588,-1847 -131,138 -199,309 -247,431 -40,99 -69,173 -121,204 -73,43 -139,14 -219,-120 -233,-390 -399,-990 -459,-1675 -54,-625 -19,-1323 138,-1996 57,-247 382,-1366 1086,-2343z" style="fill:#b0a09d"/>
  <path class="Head-Dog3fil32" d="M19069 10786c424,698 847,1973 940,2376 153,657 187,1339 134,1950 -57,663 -216,1241 -438,1611 -24,41 0,77 -13,69 -9,-6 -30,-59 -59,-131 -70,-176 -175,-441 -435,-612 -35,-22 -82,-13 -104,22 -11,17 -14,36 -11,54 93,646 -253,1471 -549,1925 -69,106 -135,191 -192,247 -29,29 -51,49 -64,58 -261,-589 -654,-817 -1117,-858 -203,-18 -956,45 -1939,446 420,-104 1541,-332 1926,-298 414,37 766,246 1000,786 19,43 49,67 89,76 60,12 133,-26 211,-104 63,-63 136,-156 211,-271 283,-434 609,-1195 588,-1847 130,138 198,309 247,431 40,99 69,173 121,204 72,43 139,14 219,-120 233,-390 399,-990 458,-1675 55,-625 19,-1323 -137,-1996 -57,-247 -383,-1366 -1086,-2343z" style="fill:#992cf1"/>
 </g><g id="Mouth-Dog0">
 <animateTransform additive="sum" attributeName="transform" dur="10" repeatCount="indefinite" type="translate" values="0;0 200;0;0 200;0;0 200;0;0 200;0"/>
  <metadata id="CorelCorpID_180Corel-Layer"/>
  <path class="Mouth-Dog0fil22 Mouth-Dog0str0" d="M12339 15237c50,401 340,551 588,511 295,-48 775,-420 755,-1216" style="fill:#360c5d"/>
  <path class="Mouth-Dog0fil22 Mouth-Dog0str0" d="M15026 15237c-50,401 -340,551 -588,511 -295,-48 -775,-420 -755,-1216" style="fill:#f8e22f"/>
  <path class="Mouth-Dog0fil100" d="M13682 14485c-79,674 -150,965 -624,1303 274,-87 346,-223 624,-223 277,0 350,136 624,223 -475,-338 -545,-629 -624,-1303z" style="fill:#f7124f"/>
 </g><g id="WeaponBflyNet-Medium">
 <animateTransform additive="sum" attributeName="transform" dur="10" repeatCount="indefinite" type="translate" values="0;0 200;0;0 200;0;0 200;0;0 200;0"/>
  <metadata id="CorelCorpID_7Corel-Layer"/>
  <path class="WeaponBflyNet-Mediumfil13" d="M9944 24239c-1031,247 -2610,1424 -2409,1744 202,321 807,-308 2195,-285 1388,24 3318,548 4389,475 1072,-73 2527,-605 2527,-1008 0,-404 -664,-890 -664,-890l-1329 -819 -1589 -545 -1246 35c-312,696 -844,1047 -1874,1293z" style="fill:#5e0a23"/>
  <path class="WeaponBflyNet-Mediumfil14 WeaponBflyNet-Mediumstr2" d="M12208 23611c1081,-10 2699,732 3400,1560" style="fill:#e62eaf"/>
  <path class="WeaponBflyNet-Mediumfil14 WeaponBflyNet-Mediumstr2" d="M15001 25038c361,-118 643,-350 896,-735" style="fill:#d4648f"/>
  <path class="WeaponBflyNet-Mediumfil14 WeaponBflyNet-Mediumstr2" d="M14199 24735c361,-118 799,-594 993,-1009" style="fill:#11b4bc"/>
  <path class="WeaponBflyNet-Mediumfil14 WeaponBflyNet-Mediumstr2" d="M13338 24354c351,-256 662,-654 857,-1068" style="fill:#1122a2"/>
  <path class="WeaponBflyNet-Mediumfil14 WeaponBflyNet-Mediumstr2" d="M12448 23933c351,-255 662,-653 856,-1068" style="fill:#5c1dd1"/>
  <path class="WeaponBflyNet-Mediumfil14 WeaponBflyNet-Mediumstr3" d="M9944 24239c-1031,247 -2610,1424 -2409,1744 202,321 807,-308 2195,-285 1388,24 3289,510 4389,475 1101,-35 2500,-626 2500,-1029 0,-404 -637,-869 -637,-869l-1329 -819 -1589 -545 -1246 35c-312,696 -844,1047 -1874,1293z" style="fill:#3687b7"/>
  <path class="WeaponBflyNet-Mediumfil15 WeaponBflyNet-Mediumstr0" d="M12035 22910c-60,107 -121,213 -181,320 -796,-450 -1593,-899 -2390,-1348 -25,-155 36,-261 180,-320 797,449 1594,899 2391,1348z" style="fill:#06c19a"/>
  <path class="WeaponBflyNet-Mediumfil14 WeaponBflyNet-Mediumstr2" d="M7552 25924c388,-461 1369,-846 2240,-977 1201,-181 2132,-581 2417,-1260" style="fill:#adde7b"/>
  <path class="WeaponBflyNet-Mediumfil3" d="M11925 23104l-71 126c-796,-450 -1593,-899 -2390,-1348 -14,-83 -2,-151 33,-206l2428 1428z" style="fill:#96238b"/>
  <path class="WeaponBflyNet-Mediumfil14 WeaponBflyNet-Mediumstr2" d="M13504 26144c892,-24 1786,-100 2461,-823" style="fill:#87def2"/>
  <path class="WeaponBflyNet-Mediumfil14 WeaponBflyNet-Mediumstr2" d="M11549 25873c1214,-25 2062,57 3174,-816" style="fill:#8d9577"/>
  <path class="WeaponBflyNet-Mediumfil14 WeaponBflyNet-Mediumstr2" d="M7630 26002c382,-247 1117,-495 1934,-589 1497,-171 3030,135 3829,-826" style="fill:#ea96e8"/>
  <path class="WeaponBflyNet-Mediumfil16 WeaponBflyNet-Mediumstr1" d="M14530 23222c1360,601 2301,1453 2101,1904 -199,452 -1463,331 -2822,-269 -1360,-600 -2301,-1452 -2102,-1904 200,-451 1463,-331 2823,269zm-2073 437c425,367 973,670 1485,896 512,226 1105,426 1663,494 853,103 929,-68 277,-629 -426,-366 -973,-670 -1485,-896 -512,-226 -1105,-425 -1663,-493 -854,-103 -929,67 -277,628z" style="fill:#85e705"/>
  <path class="WeaponBflyNet-Mediumfil3" d="M16555 25232c-345,321 -1506,173 -2746,-375 -1360,-600 -2301,-1452 -2102,-1904 38,-86 115,-151 223,-196 -33,31 -59,66 -76,106 -199,451 742,1303 2101,1903 1101,486 2139,658 2600,466zm-318 -112c15,-47 65,-258 5,-340 -71,-95 -191,-214 -360,-360 -426,-366 -973,-670 -1485,-896 -512,-226 -1105,-425 -1663,-493 -257,-31 -443,-37 -560,-16 33,-108 266,-128 706,-75 558,68 1151,268 1663,494 513,226 1060,529 1486,896 171,147 292,267 362,363 116,159 17,396 -154,427z" style="fill:#de70e5"/>
  <path class="WeaponBflyNet-Mediumfil14 WeaponBflyNet-Mediumstr2" d="M11269 23733c142,1272 2907,2208 4031,2233" style="fill:#0334cb"/>
  <path class="WeaponBflyNet-Mediumfil14 WeaponBflyNet-Mediumstr2" d="M10476 24127c-23,1341 1755,1969 3097,2026" style="fill:#779fb7"/>
  <path class="WeaponBflyNet-Mediumfil14 WeaponBflyNet-Mediumstr2" d="M9671 24329c-323,500 220,1274 858,1420" style="fill:#dee2b0"/>
  <path class="WeaponBflyNet-Mediumfil14 WeaponBflyNet-Mediumstr2" d="M8801 24747c-190,293 -4,865 395,962" style="fill:#1309d4"/>
  <path class="WeaponBflyNet-Mediumfil14 WeaponBflyNet-Mediumstr2" d="M8109 25223c-267,258 -33,735 247,682" style="fill:#ae058c"/>
 </g><g id="Eyes-Dog5">
 <animateTransform additive="sum" attributeName="transform" dur="10" repeatCount="indefinite" type="translate" values="0;0 200;0;0 200;0;0 200;0;0 200;0"/>
  <metadata id="CorelCorpID_194Corel-Layer"/>
  <path class="Eyes-Dog5fil368" d="M9316 14709c795,542 2024,313 2507,-216 859,-940 218,-2810 -801,-3082 -675,-181 -1506,115 -1894,721 -767,1199 -378,2191 188,2577z"/>
  <path class="Eyes-Dog5fil369" d="M10951 11455c-95,-18 -189,-26 -281,-30 -489,21 -926,242 -1257,602 -883,963 -325,2044 211,2390 753,486 1701,380 2078,-16 948,-994 191,-2764 -751,-2946z"/>
  <path class="Eyes-Dog5fil370" d="M10432 11457c717,-167 1436,328 1607,1095 170,768 -175,1605 -1000,1773 -824,167 -1445,-329 -1615,-1096 -170,-767 291,-1605 1008,-1772z"/>
  <circle class="Eyes-Dog5fil152" r="235" transform="matrix(0.524035 0.0816328 -0.149565 0.73298 11837.7 13342.5)"/>
  <path class="Eyes-Dog5fil152" d="M10628 13873c196,-20 220,-86 233,-328 12,242 36,308 232,328 -196,20 -220,87 -232,329 -13,-242 -37,-309 -233,-329z"/>
  <path class="Eyes-Dog5fil152" d="M10407 14003c86,-9 96,-38 102,-144 5,106 16,135 102,144 -86,9 -97,38 -102,144 -6,-106 -16,-135 -102,-144z"/>
  <path class="Eyes-Dog5fil152" d="M10913 13516c86,-9 97,-38 102,-144 6,106 16,135 102,144 -86,9 -96,38 -102,144 -5,-106 -16,-135 -102,-144z"/>
  <path class="Eyes-Dog5fil152" d="M9445 12696c121,-13 136,-54 144,-204 7,150 22,191 144,204 -122,12 -137,53 -144,203 -8,-150 -23,-191 -144,-203z"/>
  <path class="Eyes-Dog5fil152" d="M11330 13936c86,-8 97,-38 102,-144 5,106 16,136 102,144 -86,9 -97,38 -102,144 -5,-106 -16,-135 -102,-144z"/>
  <path class="Eyes-Dog5fil152" d="M8983 12791c-355,1046 387,1741 1099,1839 -390,-194 -1161,-786 -1099,-1839z"/>
  <path class="Eyes-Dog5fil157" d="M12030 14198c525,-990 -87,-2541 -1008,-2787 -675,-181 -1506,115 -1894,721 -253,396 -381,770 -417,1107l0 5 -2 12c450,-868 1361,-1493 2019,-1386 937,153 1352,1005 1302,2328z"/>
  <circle class="Eyes-Dog5fil152" r="235" transform="matrix(1.55653 -1.44003 0.848674 0.620922 9762.09 11963.6)"/>
  <circle class="Eyes-Dog5fil152" r="235" transform="matrix(0.231366 -0.483919 0.323456 0.106841 9250.92 12439.8)"/>
  <circle class="Eyes-Dog5fil152" r="235" transform="matrix(0.535512 -0.0305649 0.0623147 0.334896 10707.3 11630.7)"/>
  <path class="Eyes-Dog5fil152" d="M11542 12789c174,-18 195,-77 206,-291 11,214 32,273 206,291 -174,18 -195,77 -206,291 -11,-214 -32,-273 -206,-291z"/>
  <path class="Eyes-Dog5fil22 Eyes-Dog5str4" d="M9316 14709c795,542 2024,313 2507,-216 859,-940 218,-2810 -801,-3082 -675,-181 -1506,115 -1894,721 -767,1199 -378,2191 188,2577z"/>
  <path class="Eyes-Dog5fil371" d="M18048 14709c-795,542 -2024,313 -2507,-216 -859,-940 -218,-2810 801,-3082 675,-181 1506,115 1894,721 767,1199 378,2191 -188,2577z"/>
  <path class="Eyes-Dog5fil372" d="M16413 11455c95,-18 188,-26 281,-30 489,21 926,242 1257,602 883,963 325,2044 -211,2390 -753,486 -1701,380 -2078,-16 -948,-994 -191,-2764 751,-2946z"/>
  <path class="Eyes-Dog5fil373" d="M16932 11457c-717,-167 -1437,328 -1607,1095 -170,768 175,1605 1000,1773 824,167 1445,-329 1615,-1096 170,-767 -291,-1605 -1008,-1772z"/>
  <circle class="Eyes-Dog5fil152" r="235" transform="matrix(0.524035 0.0816328 -0.149565 0.73298 17932.8 13501)"/>
  <path class="Eyes-Dog5fil152" d="M16642 13865c196,-20 220,-86 233,-328 12,242 36,308 232,328 -196,20 -220,87 -232,329 -13,-242 -37,-309 -233,-329z"/>
  <path class="Eyes-Dog5fil152" d="M16421 13995c86,-9 96,-38 102,-144 5,106 16,135 102,144 -86,8 -97,38 -102,144 -6,-106 -16,-136 -102,-144z"/>
  <path class="Eyes-Dog5fil152" d="M16927 13508c86,-9 97,-38 102,-144 6,106 16,135 102,144 -86,9 -96,38 -102,144 -5,-106 -16,-135 -102,-144z"/>
  <path class="Eyes-Dog5fil152" d="M16021 12657c-121,-12 -136,-53 -143,-203 -8,150 -23,191 -144,203 121,13 136,54 144,203 7,-149 22,-190 143,-203z"/>
  <path class="Eyes-Dog5fil152" d="M17344 13928c86,-9 97,-38 102,-144 5,106 16,135 102,144 -86,9 -97,38 -102,144 -5,-106 -16,-135 -102,-144z"/>
  <path class="Eyes-Dog5fil152" d="M18380 12791c356,1046 -386,1741 -1098,1839 389,-194 1161,-786 1098,-1839z"/>
  <path class="Eyes-Dog5fil157" d="M15334 14198c-525,-990 87,-2541 1008,-2787 675,-181 1506,115 1894,721 253,396 381,770 417,1107l0 5 2 12c-450,-868 -1361,-1493 -2020,-1386 -936,153 -1351,1005 -1301,2328z"/>
  <circle class="Eyes-Dog5fil152" r="235" transform="matrix(1.55653 -1.44003 0.848674 0.620922 16238 11930.7)"/>
  <circle class="Eyes-Dog5fil152" r="235" transform="matrix(0.231366 -0.483919 0.323456 0.106841 15638.9 12478.2)"/>
  <circle class="Eyes-Dog5fil152" r="235" transform="matrix(0.534136 0.0490489 0.0120501 0.340431 17216.2 11630.7)"/>
  <path class="Eyes-Dog5fil152" d="M17732 12772c174,-18 195,-77 206,-291 11,214 32,273 206,291 -174,18 -195,77 -206,291 -11,-214 -32,-273 -206,-291z"/>
  <path class="Eyes-Dog5fil22 Eyes-Dog5str4" d="M18048 14709c-795,542 -2024,313 -2507,-216 -859,-940 -218,-2810 801,-3082 675,-181 1506,115 1894,721 767,1199 378,2191 -188,2577z"/>
 <g>
        <animateTransform additive="sum" attributeName="transform" dur="10" repeatCount="indefinite" type="translate" values="0;0;0;0;0;0;0;0;0;0;0;0;0;0;0;0;0;0;0;0;0;0;0;0;0;0;0;0;0;0;0;0;0;0;0;0;0;0;0;0;0;0;0;0;0;0;0;0;0;0;0;0;0;0;0;0;0;0;0;0;0;0;0;0;0;0;0;0;0;0;0;0;0;0;0;0;0;0;0;0;0;0;0;0;0;0;-1200 1500;0;-1200 1500;0"/>
        <g>
            <animateTransform additive="sum" attributeName="transform" dur="10" repeatCount="indefinite" type="rotate" values="0;0;0;0;0;0;0;0;0;0;0;0;0;0;0;0;0;0;0;0;0;0;0;0;0;0;0;0;0;0;0;0;0;0;0;0;0;0;0;0;0;0;0;0;0;0;0;0;0;0;0;0;0;0;0;0;0;0;0;0;0;0;0;0;0;0;0;0;0;0;0;0;0;0;0;0;0;0;0;0;0;0;0;0;0;0;-10;0;-10;0"/>
            <g>
                <animateTransform additive="sum" attributeName="transform" dur="10" repeatCount="indefinite" type="translate" values="0;0;0;0;0;0;0;0;0;0;0;0;0;0;0;0;0;0;0;0;0;0;0;0;0;0;0;0;0;0;0;0;0;0;0;0;0;0;0;0;0;0;0;0;0;0;0;0;0;0;0;0;0;0;0;0;0;0;0;0;0;0;0;0;0;0;0;0;0;0;0;0;0;0;0;0;0;0;0;0;0;0;0;0;0;0;-500 -100;0;-500 -100;0"/> 
                <path class="Eyes-Dog5fil155" d="M12425 8700c-113,-24 -414,256 -841,404 -391,135 -763,85 -845,252 -91,185 269,613 489,667 180,45 597,-80 920,-388 382,-364 414,-907 277,-935z"/>
            </g>
            <g>
                <animateTransform additive="sum" attributeName="transform" dur="10" repeatCount="indefinite" type="translate" values="0;0;0;0;0;0;0;0;0;0;0;0;0;0;0;0;0;0;0;0;0;0;0;0;0;0;0;0;0;0;0;0;0;0;0;0;0;0;0;0;0;0;0;0;0;0;0;0;0;0;0;0;0;0;0;0;0;0;0;0;0;0;0;0;0;0;0;0;0;0;0;0;0;0;0;0;0;0;0;0;0;0;0;0;0;0;-500 -100;0;-500 -100;0"/> 
                <path class="Eyes-Dog5fil14" d="M12425 8700c-113,-24 -414,256 -841,404 -391,135 -763,85 -845,252 -91,185 269,613 489,667 180,45 597,-80 920,-388 382,-364 414,-907 277,-935z"/>
            </g>
        </g>
    </g>  
	<g>
        <animateTransform additive="sum" attributeName="transform" dur="10" repeatCount="indefinite" type="translate" values="0;0;0;0;0;0;0;0;0;0;0;0;0;0;0;0;0;0;0;0;0;0;0;0;0;0;0;0;0;0;0;0;0;0;0;0;0;0;0;0;0;0;0;0;0;0;0;0;0;0;0;0;0;0;0;0;0;0;0;0;0;0;0;0;0;0;0;0;0;0;0;0;0;0;0;0;0;0;0;0;0;0;0;0;0;0;-800 1400;0;-800 1400;0"/>
        <g>
            <animateTransform additive="sum" attributeName="transform" dur="10" repeatCount="indefinite" type="rotate" values="0;0;0;0;0;0;0;0;0;0;0;0;0;0;0;0;0;0;0;0;0;0;0;0;0;0;0;0;0;0;0;0;0;0;0;0;0;0;0;0;0;0;0;0;0;0;0;0;0;0;0;0;0;0;0;0;0;0;0;0;0;0;0;0;0;0;0;0;0;0;0;0;0;0;0;0;0;0;0;0;0;0;0;0;0;0;10;0;10;0"/>
            <g>
                <animateTransform additive="sum" attributeName="transform" dur="10" repeatCount="indefinite" type="translate" values="0;0;0;0;0;0;0;0;0;0;0;0;0;0;0;0;0;0;0;0;0;0;0;0;0;0;0;0;0;0;0;0;0;0;0;0;0;0;0;0;0;0;0;0;0;0;0;0;0;0;0;0;0;0;0;0;0;0;0;0;0;0;0;0;0;0;0;0;0;0;0;0;0;0;0;0;0;0;0;0;0;0;0;0;0;0;2000 -5000;0;2000 -5000;0"/> 
                <path class="Eyes-Dog5fil155" d="M14939 8700c113,-24 414,256 840,404 392,135 763,85 846,252 91,185 -269,613 -489,667 -180,45 -597,-80 -920,-388 -382,-364 -414,-907 -277,-935z"/>
            </g>
            <g>
                <animateTransform additive="sum" attributeName="transform" dur="10" repeatCount="indefinite" type="translate" values="0;0;0;0;0;0;0;0;0;0;0;0;0;0;0;0;0;0;0;0;0;0;0;0;0;0;0;0;0;0;0;0;0;0;0;0;0;0;0;0;0;0;0;0;0;0;0;0;0;0;0;0;0;0;0;0;0;0;0;0;0;0;0;0;0;0;0;0;0;0;0;0;0;0;0;0;0;0;0;0;0;0;0;0;0;0;2000 -5000;0;2000 -5000;0"/> 
                <path class="Eyes-Dog5fil14" d="M14939 8700c113,-24 414,256 840,404 392,135 763,85 846,252 91,185 -269,613 -489,667 -180,45 -597,-80 -920,-388 -382,-364 -414,-907 -277,-935z"/>
            </g>
        </g>
    </g>
 </g><g id="Moustache-Dog0">
 <animateTransform additive="sum" attributeName="transform" dur="10" repeatCount="indefinite" type="translate" values="0;0 200;0;0 200;0;0 200;0;0 200;0"/>
  <metadata id="CorelCorpID_200Corel-Layer"/>
  <rect class="Moustache-Dog0fil22" height="487" width="487" x="13438" y="12949"/>
 </g><g id="Nose-Dog0">
 <animateTransform additive="sum" attributeName="transform" dur="10" repeatCount="indefinite" type="translate" values="0;0 200;0;0 200;0;0 200;0;0 200;0"/>
  <metadata id="CorelCorpID_208Corel-Layer"/>
  <path class="Nose-Dog0fil416 Nose-Dog0str0" d="M13682 14020c-283,0 -678,136 -648,338 28,185 288,481 648,481 360,0 620,-296 648,-481 30,-202 -365,-338 -648,-338z" style="fill:#b8adf1"/>
 </g><g id="HatGlasses-Medium">
 <animateTransform additive="sum" attributeName="transform" dur="10" repeatCount="indefinite" type="translate" values="0;0 200;0;0 200;0;0 200;0;0 200;0"/>
  <metadata id="CorelCorpID_76Corel-Layer"/>
  <path class="HatGlasses-Mediumfil571new" d="M8680 12704c1150,-166 2288,-123 3366,168 307,83 391,317 416,508 48,358 12,716 -136,1074 -74,178 -212,284 -403,308 -958,123 -1885,116 -2875,-52 -224,-38 -348,-146 -466,-350 -231,-401 -329,-779 -336,-1170 -5,-283 174,-449 434,-486z" style="fill:#7c1d60"/>
  <path class="HatGlasses-Mediumfil572new" d="M8680 12704c1150,-166 2288,-123 3366,168 307,83 391,317 416,508 48,358 12,716 -136,1074 -35,84 -84,152 -146,202 96,-539 55,-993 -433,-1409 -533,-456 -2618,-699 -3446,-306 72,-132 208,-213 379,-237z" style="fill:#94ee59"/>
  <path class="HatGlasses-Mediumfil571new" d="M18684 12704c-1150,-166 -2288,-123 -3366,168 -307,83 -391,317 -417,508 -48,358 -11,716 137,1074 74,178 212,284 403,308 958,123 1885,116 2875,-52 224,-38 348,-146 466,-350 231,-401 329,-779 336,-1170 5,-283 -174,-449 -434,-486z" style="fill:#6a5e4f"/>
  <path class="HatGlasses-Mediumfil572new" d="M18684 12704c-1150,-166 -2288,-123 -3366,168 -196,53 -301,167 -358,293 710,-514 2961,-429 3462,-51 447,338 331,942 100,1527 106,-59 184,-150 260,-281 231,-401 329,-779 336,-1170 5,-283 -174,-449 -434,-486z" style="fill:#fab1db"/>
  <path class="HatGlasses-Mediumfil707new" d="M18666 12827c-576,-83 -1149,-113 -1711,-85 -545,28 -1082,110 -1605,251 -120,32 -195,92 -242,162 -50,74 -72,162 -83,241 -23,168 -25,337 -5,506 21,169 64,337 133,505 28,68 68,121 118,160 50,38 112,62 185,72 474,61 939,89 1409,82 468,-8 941,-51 1431,-134 90,-16 159,-44 217,-89 59,-46 110,-112 161,-200 110,-191 188,-376 240,-561 51,-183 76,-365 80,-549 1,-103 -28,-184 -80,-242 -56,-64 -143,-104 -248,-119zm-10004 -247c591,-85 1179,-116 1759,-87 562,28 1115,112 1652,257 470,106 1176,265 1609,265 433,0 1139,-159 1609,-265 537,-145 1090,-229 1652,-257 580,-29 1168,2 1759,87 163,24 302,91 399,200 92,103 145,242 142,412 -4,207 -32,409 -89,613 -57,202 -143,407 -264,617 -67,116 -137,206 -225,274 -90,70 -195,114 -328,137 -501,85 -986,129 -1469,137 -481,7 -958,-22 -1443,-84 -118,-15 -220,-56 -305,-121 -85,-65 -152,-153 -197,-263 -78,-189 -127,-378 -150,-567 -96,-432 -602,-640 -1091,-640 -489,0 -996,208 -1091,640 -23,189 -72,378 -150,567 -45,110 -112,198 -197,263 -85,65 -187,106 -305,121 -485,62 -962,91 -1444,84 -482,-8 -968,-52 -1468,-137 -133,-23 -238,-67 -328,-137 -88,-68 -158,-158 -225,-274 -121,-210 -207,-415 -264,-617 -57,-204 -85,-406 -89,-613 -3,-170 50,-309 142,-412 97,-109 236,-176 399,-200zm1747 162c-563,-28 -1135,2 -1712,85 -104,15 -191,55 -247,119 -52,58 -82,139 -80,242 3,184 28,366 80,549 52,185 130,370 240,561 51,88 102,154 161,200 57,45 127,73 217,89 490,83 963,126 1431,134 469,7 935,-21 1409,-82 72,-10 135,-34 185,-72 50,-39 89,-92 118,-160 69,-168 112,-336 133,-505 20,-169 17,-338 -5,-506 -11,-79 -33,-167 -83,-241 -47,-70 -122,-130 -242,-162 -523,-141 -1060,-223 -1605,-251z" style="fill:#03659d"/>
 </g><g id="Hair-Dog4">
 <animateTransform additive="sum" attributeName="transform" dur="10" repeatCount="indefinite" type="translate" values="0;0 200;0;0 200;0;0 200;0;0 200;0"/>
  <metadata id="CorelCorpID_213Corel-Layer"/>
  <path class="Hair-Dog4fil420 Hair-Dog4str0" d="M10980 8153c823,-114 749,589 1586,377 1667,-424 494,1566 1970,1445 584,-47 278,950 1058,1181 279,82 948,162 1286,-437 -1004,-311 -216,-914 -117,-1367 261,-1185 -743,-821 -664,-1772 83,-1011 -1592,-2441 -2995,-1401 -1147,852 -1830,69 -2124,1974z" style="fill:#8efaf0"/>
  <path class="Hair-Dog4fil14" d="M10980 8153c823,-114 749,589 1586,377 1667,-424 494,1566 1970,1445 584,-47 278,950 1058,1181 273,81 924,159 1267,-404 -468,123 -1146,154 -1390,-458 -673,-1682 -1238,-444 -1422,-1443 -283,-1533 -1190,-576 -2000,-1040 -417,-238 -670,126 -1065,315 -1,9 -3,18 -4,27z" style="fill:#366ca1"/>
 </g></svg>