<svg xmlns="http://www.w3.org/2000/svg" xmlns:xlink="http://www.w3.org/1999/xlink" style="shape-rendering:geometricPrecision; text-rendering:geometricPrecision; image-rendering:optimizeQuality; fill-rule:evenodd; clip-rule:evenodd" version="1.1" viewBox="0 0 29000 29000" xml:space="preserve"><defs><style type="text/css">.HairBack-Dog0fil22 {fill:none}
.Tail-Dog3fil236 {fill:url(#Tail-Dog3id156)}
.Tail-Dog3fil14 {fill:black;fill-opacity:0.200000}
.Tail-Dog3fil237 {fill:url(#Tail-Dog3id94)}
.Tail-Dog3fil26 {fill:#f5f4f0}
.Tail-Dog3fil22 {fill:none}
.Tail-Dog3str0 {stroke:black;stroke-width:150;stroke-linecap:round;stroke-linejoin:round}
.RightFoot-Dog0fil26 {fill:#f5f4f0}
.RightFoot-Dog0fil14 {fill:black;fill-opacity:0.200000}
.RightFoot-Dog0fil22 {fill:none}
.RightFoot-Dog0fil32 {fill:black;fill-rule:nonzero}
.RightLeg-Dog3fil244 {fill:url(#RightLeg-Dog3id52)}
.RightLeg-Dog3fil32 {fill:black;fill-rule:nonzero}
.RightLeg-Dog3fil14 {fill:black;fill-opacity:0.200000}
.LeftFoot-Dog0fil26 {fill:#f5f4f0}
.LeftFoot-Dog0fil14 {fill:black;fill-opacity:0.200000}
.LeftFoot-Dog0fil22 {fill:none}
.LeftFoot-Dog0fil32 {fill:black;fill-rule:nonzero}
.LeftLeg-Dog3fil250 {fill:url(#LeftLeg-Dog3id53)}
.LeftLeg-Dog3fil32 {fill:black;fill-rule:nonzero}
.LeftLeg-Dog3fil14 {fill:black;fill-opacity:0.200000}
.RightHand-Dog4fil256 {fill:url(#RightHand-Dog4id168)}
.RightHand-Dog4fil257 {fill:url(#RightHand-Dog4id22)}
.RightHand-Dog4fil14 {fill:black;fill-opacity:0.200000}
.RightHand-Dog4fil22 {fill:none}
.RightHand-Dog4str0 {stroke:black;stroke-width:150;stroke-linecap:round;stroke-linejoin:round}
.RightPaw-Dog3fil260 {fill:url(#RightPaw-Dog3id405)}
.RightPaw-Dog3fil14 {fill:black;fill-opacity:0.200000}
.RightPaw-Dog3fil32 {fill:black;fill-rule:nonzero}
.LeftHand-Dog4fil262 {fill:url(#LeftHand-Dog4id426)}
.LeftHand-Dog4fil57 {fill:url(#LeftHand-Dog4id5)}
.LeftHand-Dog4fil14 {fill:black;fill-opacity:0.200000}
.LeftHand-Dog4fil22 {fill:none}
.LeftHand-Dog4str0 {stroke:black;stroke-width:150;stroke-linecap:round;stroke-linejoin:round}
.LeftPaw-Dog3fil266 {fill:url(#LeftPaw-Dog3id973)}
.LeftPaw-Dog3fil14 {fill:black;fill-opacity:0.200000}
.LeftPaw-Dog3fil32 {fill:black;fill-rule:nonzero}
.Body-Dog0fil267 {fill:url(#Body-Dog0id28)}
.Body-Dog0fil268 {fill:url(#Body-Dog0id251)}
.Body-Dog0fil14 {fill:black;fill-opacity:0.200000}
.Body-Dog0fil32 {fill:black;fill-rule:nonzero}
.Ears-Dog2fil281 {fill:url(#Ears-Dog2id135)}
.Ears-Dog2fil282 {fill:url(#Ears-Dog2id336)}
.Ears-Dog2fil0 {fill:black;fill-opacity:0.101961}
.Ears-Dog2fil284 {fill:url(#Ears-Dog2id291)}
.Ears-Dog2fil285 {fill:url(#Ears-Dog2id423)}
.Ears-Dog2fil280 {fill:url(#Ears-Dog2id337)}
.Ears-Dog2str0 {stroke:black;stroke-width:150;stroke-linecap:round;stroke-linejoin:round}
.Ears-Dog2fil283 {fill:url(#Ears-Dog2id89)}
.Head-Dog7fil330 {fill:url(#Head-Dog7id327)}
.Head-Dog7fil341 {fill:url(#Head-Dog7id403)}
.Head-Dog7fil14 {fill:black;fill-opacity:0.200000}
.Head-Dog7fil32 {fill:black;fill-rule:nonzero}
.Head-Dog7fil342 {fill:url(#Head-Dog7id377)}
.Mouth-Dog4fil100 {fill:black}
.Mouth-Dog4fil22 {fill:none}
.Mouth-Dog4str0 {stroke:black;stroke-width:150;stroke-linecap:round;stroke-linejoin:round}
.Mouth-Dog4fil152 {fill:white}
.Eyes-Dog4fil362 {fill:url(#Eyes-Dog4id1007)}
.Eyes-Dog4fil363 {fill:url(#Eyes-Dog4id571)}
.Eyes-Dog4fil364 {fill:url(#Eyes-Dog4id747)}
.Eyes-Dog4fil157 {fill:black;fill-opacity:0.501961}
.Eyes-Dog4fil152 {fill:white}
.Eyes-Dog4fil365 {fill:url(#Eyes-Dog4id1006)}
.Eyes-Dog4fil366 {fill:url(#Eyes-Dog4id570)}
.Eyes-Dog4fil367 {fill:url(#Eyes-Dog4id729)}
.Eyes-Dog4fil155 {fill:#7b5e45}
.Eyes-Dog4fil14 {fill:black;fill-opacity:0.200000}
.Eyes-Dog4fil22 {fill:none}
.Eyes-Dog4str4 {stroke:black;stroke-width:150}
.Moustache-Dog0fil22 {fill:none}
.Nose-Dog0fil416 {fill:url(#Nose-Dog0id907)}
.Nose-Dog0str0 {stroke:black;stroke-width:150;stroke-linecap:round;stroke-linejoin:round}
.Hair-Dog4fil14 {fill:black;fill-opacity:0.200000}
.Hair-Dog4fil420 {fill:url(#Hair-Dog4id987)}
.Hair-Dog4str0 {stroke:black;stroke-width:150;stroke-linecap:round;stroke-linejoin:round}
.BraceletSilver-Mediumfil62new {fill:black;fill-opacity:0.400000}
.BraceletSilver-Mediumfil61new {fill:url(#BraceletSilver-Mediumid671new);fill-rule:nonzero}
.BraceletSilver-Mediumstr4new {stroke:black;stroke-width:100}
.BraceletSilver-Mediumfil63new {fill:url(#BraceletSilver-Mediumid689new);fill-rule:nonzero}
.NecklaceYinYangfil225new {fill:url(#NecklaceYinYangid676new);fill-rule:nonzero}
.NecklaceYinYangfil46new {fill:white;fill-rule:nonzero;fill-opacity:0.200000}
.NecklaceYinYangfil84new {fill:black}
.NecklaceYinYangfil83new {fill:white}
.NecklaceYinYangfil47new {fill:none;fill-rule:nonzero}
.NecklaceYinYangstr4new {stroke:black;stroke-width:100}
.NecklaceYinYangfil226new {fill:url(#NecklaceYinYangid677new);fill-rule:nonzero}
.NecklaceYinYangstr3new {stroke:black;stroke-width:100;stroke-linecap:round;stroke-linejoin:round}
.NecklaceYinYangfil227new {fill:url(#NecklaceYinYangid669new);fill-rule:nonzero}
.NecklaceYinYangfil228new {fill:url(#NecklaceYinYangid705new);fill-rule:nonzero}
.NecklaceYinYangfil229new {fill:url(#NecklaceYinYangid685new);fill-rule:nonzero}
.NecklaceYinYangfil230new {fill:url(#NecklaceYinYangid101new)}
.HatGlasses-Mediumfil571new {fill:white;fill-opacity:0.400000}
.HatGlasses-Mediumfil572new {fill:white;fill-opacity:0.701961}
.HatGlasses-Mediumfil707new {fill:url(#HatGlasses-Mediumid680new);fill-rule:nonzero}
.WeaponFlySwatterBack-Mediumfil1 {fill:black;fill-rule:nonzero;fill-opacity:0.200000}
.WeaponFlySwatterBack-Mediumfil0 {fill:url(#WeaponFlySwatterBack-Mediumid26);fill-rule:nonzero}
.WeaponFlySwatterBack-Mediumstr0 {stroke:black;stroke-width:150;stroke-linecap:round;stroke-linejoin:round}
.WeaponFlySwatter-Mediumfil3 {fill:black;fill-opacity:0.200000}
.WeaponFlySwatter-Mediumfil4 {fill:url(#WeaponFlySwatter-Mediumid24);fill-rule:nonzero}
.WeaponFlySwatter-Mediumfil1 {fill:black;fill-rule:nonzero;fill-opacity:0.200000}
.WeaponFlySwatter-Mediumfil2 {fill:url(#WeaponFlySwatter-Mediumid0)}
.WeaponFlySwatter-Mediumstr0 {stroke:black;stroke-width:150;stroke-linecap:round;stroke-linejoin:round}
.WeaponFlySwatter-Mediumfil5 {fill:none;fill-rule:nonzero}
.WeaponFlySwatter-Mediumstr1 {stroke:black;stroke-width:150}
.AccessoryBannerLuckfil47 {fill:url(#AccessoryBannerLuckid50)}
.AccessoryBannerLuckfil48 {fill:#7F2A2E;fill-rule:nonzero;fill-opacity:0.501961}
.AccessoryBannerLuckfil49 {fill:url(#AccessoryBannerLuckid59);fill-rule:nonzero}
.AccessoryBannerLuckfil50 {fill:white;fill-rule:nonzero}
.AccessoryBannerLuckfil16 {fill:white}
.AccessoryBannerLuckfil17 {fill:black;fill-opacity:0.200000}
.AccessoryBannerLuckfil38 {fill:url(#AccessoryBannerLuckid47)}
.AccessoryBannerLuckstr0 {stroke:black;stroke-width:150;stroke-linecap:round;stroke-linejoin:round}
.AccessoryBannerLuckfil39 {fill:url(#AccessoryBannerLuckid16)}
.AccessoryBannerLuckfil40 {fill:url(#AccessoryBannerLuckid10)}
.AccessoryBannerLuckfil41 {fill:url(#AccessoryBannerLuckid0)}
.AccessoryBannerLuckfil42 {fill:url(#AccessoryBannerLuckid4)}
.AccessoryBannerLuckfil43 {fill:url(#AccessoryBannerLuckid38)}
.AccessoryBannerLuckfil44 {fill:url(#AccessoryBannerLuckid46)}
.AccessoryBannerLuckfil45 {fill:url(#AccessoryBannerLuckid23)}
.AccessoryBannerLuckstr1 {stroke:black;stroke-width:150}
.AccessoryBannerLuckfil46 {fill:url(#AccessoryBannerLuckid19)}
.AccessoryBannerLuckfil11 {fill:none}
</style><linearGradient gradientUnits="userSpaceOnUse" id="Tail-Dog3id156" x1="15669.8" x2="18898.8" xlink:href="#Tail-Dog3id74" y1="24611.2" y2="17643.3">
  </linearGradient><linearGradient gradientUnits="userSpaceOnUse" id="Tail-Dog3id94" x1="15654.7" x2="19260.5" xlink:href="#Tail-Dog3id5" y1="23542.9" y2="18468.1">
  </linearGradient><linearGradient gradientUnits="objectBoundingBox" id="RightLeg-Dog3id52" x1="50%" x2="50%" xlink:href="#RightLeg-Dog3id19" y1="100%" y2="0%">
  </linearGradient><linearGradient gradientUnits="userSpaceOnUse" id="LeftLeg-Dog3id53" x1="11645.9" x2="11645.9" xlink:href="#LeftLeg-Dog3id19" y1="24199" y2="20934.6">
  </linearGradient><linearGradient gradientUnits="objectBoundingBox" id="RightHand-Dog4id168" x1="19.8228%" x2="80.1772%" y1="10.3299%" y2="89.6698%">
   <stop offset="0" style="stop-opacity:1; stop-color:#c2a772"/>
   <stop offset="0.0196078" style="stop-opacity:1; stop-color:#c2a772"/>
   <stop offset="0.721569" style="stop-opacity:1; stop-color:#e9cd96"/>
   <stop offset="1" style="stop-opacity:1; stop-color:#e9cd96"/>
  </linearGradient><linearGradient gradientUnits="userSpaceOnUse" id="RightHand-Dog4id22" x1="16885.8" x2="16885.8" xlink:href="#RightHand-Dog4id5" y1="17625.4" y2="19553.4">
  </linearGradient><linearGradient gradientUnits="userSpaceOnUse" id="RightPaw-Dog3id405" x1="18770.8" x2="18008.4" y1="21729.1" y2="19634.5">
   <stop offset="0" style="stop-opacity:1; stop-color:#a1846a"/>
   <stop offset="0.701961" style="stop-opacity:1; stop-color:#e9cd96"/>
   <stop offset="1" style="stop-opacity:1; stop-color:#e9cd96"/>
  </linearGradient><linearGradient gradientUnits="objectBoundingBox" id="LeftHand-Dog4id426" x1="80.1772%" x2="19.8228%" xlink:href="#LeftHand-Dog4id168" y1="10.3299%" y2="89.6698%">
  </linearGradient><linearGradient gradientUnits="objectBoundingBox" id="LeftHand-Dog4id5" x1="50%" x2="50%" y1="0%" y2="100%">
   <stop offset="0" style="stop-opacity:1; stop-color:#7b5e45"/>
   <stop offset="1" style="stop-opacity:1; stop-color:#a1846a"/>
  </linearGradient><linearGradient gradientUnits="userSpaceOnUse" id="LeftPaw-Dog3id973" x1="8449.46" x2="9499.06" xlink:href="#LeftPaw-Dog3id405" y1="21712.6" y2="19651">
  </linearGradient><linearGradient gradientUnits="objectBoundingBox" id="Body-Dog0id28" x1="50%" x2="50%" y1="0%" y2="100%">
   <stop offset="0" style="stop-opacity:1; stop-color:#c2a772"/>
   <stop offset="0.101961" style="stop-opacity:1; stop-color:#c2a772"/>
   <stop offset="0.521569" style="stop-opacity:1; stop-color:#e9cd96"/>
   <stop offset="1" style="stop-opacity:1; stop-color:#ffedc9"/>
  </linearGradient><linearGradient gradientUnits="userSpaceOnUse" id="Body-Dog0id251" x1="13681.9" x2="13681.9" y1="17494.1" y2="22874.9">
   <stop offset="0" style="stop-opacity:1; stop-color:#c2a772"/>
   <stop offset="0.278431" style="stop-opacity:1; stop-color:#e9cd96"/>
   <stop offset="0.721569" style="stop-opacity:1; stop-color:#ffedc9"/>
   <stop offset="1" style="stop-opacity:1; stop-color:#ffedc9"/>
  </linearGradient><linearGradient gradientUnits="userSpaceOnUse" id="Ears-Dog2id135" x1="8483.86" x2="11154.1" xlink:href="#Ears-Dog2id70" y1="6976.09" y2="11141.6">
  </linearGradient><linearGradient gradientUnits="userSpaceOnUse" id="Ears-Dog2id336" x1="8753.26" x2="10964" y1="7935.61" y2="9713.77">
   <stop offset="0" style="stop-opacity:1; stop-color:#DADADA"/>
   <stop offset="1" style="stop-opacity:1; stop-color:#9C6A6A"/>
  </linearGradient><linearGradient gradientUnits="userSpaceOnUse" id="Ears-Dog2id291" x1="18881.4" x2="16208.4" xlink:href="#Ears-Dog2id70" y1="6977.06" y2="11140.6">
  </linearGradient><linearGradient gradientUnits="userSpaceOnUse" id="Ears-Dog2id423" x1="18610.7" x2="16399.8" xlink:href="#Ears-Dog2id336" y1="7935.9" y2="9713.48">
  </linearGradient><linearGradient gradientUnits="userSpaceOnUse" id="Ears-Dog2id337" x1="10633.9" x2="9051.55" xlink:href="#Ears-Dog2id5" y1="12588.9" y2="5731.97">
  </linearGradient><linearGradient gradientUnits="userSpaceOnUse" id="Ears-Dog2id89" x1="16729.6" x2="18312.6" xlink:href="#Ears-Dog2id5" y1="12589" y2="5731.92">
  </linearGradient><linearGradient gradientUnits="objectBoundingBox" id="Head-Dog7id327" x1="50%" x2="50%" xlink:href="#Head-Dog7id35" y1="99.9999%" y2="0%">
  </linearGradient><linearGradient gradientUnits="userSpaceOnUse" id="Head-Dog7id403" x1="14977.5" x2="19153.5" xlink:href="#Head-Dog7id18" y1="10345.9" y2="14381.5">
  </linearGradient><linearGradient gradientUnits="userSpaceOnUse" id="Head-Dog7id377" x1="11727.3" x2="11727.3" xlink:href="#Head-Dog7id132" y1="16891.4" y2="10356.4">
  </linearGradient><linearGradient gradientUnits="userSpaceOnUse" id="Eyes-Dog4id1007" x1="10811.7" x2="9983.18" xlink:href="#Eyes-Dog4id27" y1="14906.9" y2="11436.8">
  </linearGradient><linearGradient gradientUnits="userSpaceOnUse" id="Eyes-Dog4id571" x1="9121.91" x2="11966.9" xlink:href="#Eyes-Dog4id57" y1="13105.6" y2="13105.6">
  </linearGradient><linearGradient gradientUnits="userSpaceOnUse" id="Eyes-Dog4id747" x1="10335.5" x2="10965.1" xlink:href="#Eyes-Dog4id384" y1="11450.6" y2="14115.9">
  </linearGradient><linearGradient gradientUnits="userSpaceOnUse" id="Eyes-Dog4id1006" x1="16552.2" x2="17380.7" xlink:href="#Eyes-Dog4id27" y1="14906.9" y2="11436.8">
  </linearGradient><linearGradient gradientUnits="userSpaceOnUse" id="Eyes-Dog4id570" x1="15397" x2="18242" xlink:href="#Eyes-Dog4id57" y1="13105.6" y2="13105.6">
  </linearGradient><linearGradient gradientUnits="userSpaceOnUse" id="Eyes-Dog4id729" x1="16398.8" x2="17028.4" xlink:href="#Eyes-Dog4id384" y1="11450.6" y2="14115.9">
  </linearGradient><linearGradient gradientUnits="userSpaceOnUse" id="Nose-Dog0id907" x1="13681.9" x2="13681.9" xlink:href="#Nose-Dog0id451" y1="14020.2" y2="14838.5">
  </linearGradient><linearGradient gradientUnits="userSpaceOnUse" id="Hair-Dog4id987" x1="13680" x2="14179.5" xlink:href="#Hair-Dog4id49" y1="10949.3" y2="6079.92">
  </linearGradient><linearGradient gradientUnits="userSpaceOnUse" id="BraceletSilver-Mediumid671new" x1="8777.29" x2="10151.7" xlink:href="#BraceletSilver-Mediumid670new" y1="19683.8" y2="20796.7">
  </linearGradient><linearGradient gradientUnits="userSpaceOnUse" id="BraceletSilver-Mediumid689new" x1="18586.5" x2="17212.2" xlink:href="#BraceletSilver-Mediumid670new" y1="19683.8" y2="20796.7">
  </linearGradient><linearGradient gradientUnits="userSpaceOnUse" id="NecklaceYinYangid676new" x1="13681.9" x2="13681.9" xlink:href="#NecklaceYinYangid669new" y1="17208" y2="20390.5">
  </linearGradient><linearGradient gradientUnits="userSpaceOnUse" id="NecklaceYinYangid677new" x1="11189" x2="11399.5" xlink:href="#NecklaceYinYangid669new" y1="18603.5" y2="18002.2">
  </linearGradient><linearGradient gradientUnits="userSpaceOnUse" id="NecklaceYinYangid705new" x1="16170.9" x2="15961.3" xlink:href="#NecklaceYinYangid669new" y1="18602.8" y2="18004">
  </linearGradient><linearGradient gradientUnits="userSpaceOnUse" id="NecklaceYinYangid685new" x1="15099" x2="14900.7" xlink:href="#NecklaceYinYangid669new" y1="19895.5" y2="19273.3">
  </linearGradient><linearGradient gradientUnits="userSpaceOnUse" id="NecklaceYinYangid101new" x1="13681.9" x2="13681.9" y1="20483.4" y2="19943.6">
   <stop offset="0" style="stop-opacity:1; stop-color:#2B2A29"/>
   <stop offset="1" style="stop-opacity:1; stop-color:#f5f4f0"/>
  </linearGradient><linearGradient gradientUnits="userSpaceOnUse" id="HatGlasses-Mediumid680new" x1="11522.6" x2="15841.3" y1="16145.3" y2="11308.4">
   <stop offset="0" style="stop-opacity:1; stop-color:#01013B"/>
   <stop offset="1" style="stop-opacity:1; stop-color:#000094"/>
  </linearGradient><linearGradient gradientUnits="userSpaceOnUse" id="WeaponFlySwatterBack-Mediumid26" x1="7745.86" x2="9181.7" xlink:href="#WeaponFlySwatterBack-Mediumid24" y1="21810.6" y2="20301.7">
  </linearGradient><linearGradient gradientUnits="userSpaceOnUse" id="WeaponFlySwatter-Mediumid24" x1="12160.4" x2="14712.1" y1="25216.2" y2="22534.8">
   <stop offset="0" style="stop-opacity:1; stop-color:#008011"/>
   <stop offset="1" style="stop-opacity:1; stop-color:#00BD55"/>
  </linearGradient><linearGradient gradientUnits="userSpaceOnUse" id="WeaponFlySwatter-Mediumid0" x1="9457.05" x2="12008.3" y1="22428.9" y2="22293.2">
   <stop offset="0" style="stop-opacity:1; stop-color:#787878"/>
   <stop offset="1" style="stop-opacity:1; stop-color:#D6D6D6"/>
  </linearGradient><linearGradient gradientUnits="userSpaceOnUse" id="AccessoryBannerLuckid50" x1="6287.17" x2="6287.17" y1="21415.8" y2="6533.44">
   <stop offset="0" style="stop-opacity:1; stop-color:#FE8E45"/>
   <stop offset="1" style="stop-opacity:1; stop-color:#B44D2A"/>
  </linearGradient><linearGradient gradientUnits="userSpaceOnUse" id="AccessoryBannerLuckid59" x1="6202.84" x2="6202.84" y1="20491.5" y2="6573.82">
   <stop offset="0" style="stop-opacity:1; stop-color:white"/>
   <stop offset="1" style="stop-opacity:1; stop-color:#C59B9E"/>
  </linearGradient><linearGradient gradientUnits="userSpaceOnUse" id="AccessoryBannerLuckid47" x1="5973.37" x2="5973.37" xlink:href="#AccessoryBannerLuckid0" y1="24282.4" y2="5853.99">
  </linearGradient><linearGradient gradientUnits="userSpaceOnUse" id="AccessoryBannerLuckid16" x1="782.09" x2="11464.7" xlink:href="#AccessoryBannerLuckid0" y1="7138.29" y2="7138.29">
  </linearGradient><linearGradient gradientUnits="userSpaceOnUse" id="AccessoryBannerLuckid10" x1="5973.37" x2="5973.37" xlink:href="#AccessoryBannerLuckid0" y1="5516.77" y2="2843.77">
  </linearGradient><linearGradient gradientUnits="userSpaceOnUse" id="AccessoryBannerLuckid4" x1="5973.37" x2="5973.37" xlink:href="#AccessoryBannerLuckid0" y1="6440.39" y2="5183.47">
  </linearGradient><linearGradient gradientUnits="userSpaceOnUse" id="AccessoryBannerLuckid38" x1="1096.09" x2="1096.09" xlink:href="#AccessoryBannerLuckid0" y1="8805.1" y2="5471.46">
  </linearGradient><linearGradient gradientUnits="userSpaceOnUse" id="AccessoryBannerLuckid46" x1="11850.7" x2="11850.7" xlink:href="#AccessoryBannerLuckid0" y1="8805.1" y2="5471.46">
  </linearGradient><linearGradient gradientUnits="userSpaceOnUse" id="AccessoryBannerLuckid23" x1="5087.28" x2="6859.46" xlink:href="#AccessoryBannerLuckid0" y1="23767.8" y2="23767.8">
  </linearGradient><linearGradient gradientUnits="userSpaceOnUse" id="AccessoryBannerLuckid19" x1="4727.02" x2="7219.72" xlink:href="#AccessoryBannerLuckid0" y1="24282.4" y2="24282.4">
  </linearGradient><linearGradient gradientUnits="userSpaceOnUse" id="Tail-Dog3id74" x1="15961" x2="18418.2" y1="23174.1" y2="17871.9">
   <stop offset="0" style="stop-opacity:1; stop-color:#c2a772"/>
   <stop offset="1" style="stop-opacity:1; stop-color:#e9cd96"/>
  </linearGradient><linearGradient gradientUnits="objectBoundingBox" id="Tail-Dog3id5" x1="50%" x2="50%" y1="0%" y2="100%">
   <stop offset="0" style="stop-opacity:1; stop-color:#7b5e45"/>
   <stop offset="1" style="stop-opacity:1; stop-color:#a1846a"/>
  </linearGradient><linearGradient gradientUnits="userSpaceOnUse" id="RightLeg-Dog3id19" x1="15490.3" x2="15490.3" y1="24284.1" y2="21188.2">
   <stop offset="0" style="stop-opacity:1; stop-color:#ffedc9"/>
   <stop offset="0.439216" style="stop-opacity:1; stop-color:#ffedc9"/>
   <stop offset="1" style="stop-opacity:1; stop-color:#e9cd96"/>
  </linearGradient><linearGradient gradientUnits="userSpaceOnUse" id="LeftLeg-Dog3id19" x1="15490.3" x2="15490.3" y1="24284.1" y2="21188.2">
   <stop offset="0" style="stop-opacity:1; stop-color:#ffedc9"/>
   <stop offset="0.439216" style="stop-opacity:1; stop-color:#ffedc9"/>
   <stop offset="1" style="stop-opacity:1; stop-color:#e9cd96"/>
  </linearGradient><linearGradient gradientUnits="objectBoundingBox" id="RightHand-Dog4id5" x1="50%" x2="50%" y1="0%" y2="100%">
   <stop offset="0" style="stop-opacity:1; stop-color:#7b5e45"/>
   <stop offset="1" style="stop-opacity:1; stop-color:#a1846a"/>
  </linearGradient><linearGradient gradientUnits="objectBoundingBox" id="LeftHand-Dog4id168" x1="19.8228%" x2="80.1772%" y1="10.3299%" y2="89.6698%">
   <stop offset="0" style="stop-opacity:1; stop-color:#c2a772"/>
   <stop offset="0.0196078" style="stop-opacity:1; stop-color:#c2a772"/>
   <stop offset="0.721569" style="stop-opacity:1; stop-color:#e9cd96"/>
   <stop offset="1" style="stop-opacity:1; stop-color:#e9cd96"/>
  </linearGradient><linearGradient gradientUnits="userSpaceOnUse" id="LeftPaw-Dog3id405" x1="18770.8" x2="18008.4" y1="21729.1" y2="19634.5">
   <stop offset="0" style="stop-opacity:1; stop-color:#a1846a"/>
   <stop offset="0.701961" style="stop-opacity:1; stop-color:#e9cd96"/>
   <stop offset="1" style="stop-opacity:1; stop-color:#e9cd96"/>
  </linearGradient><linearGradient gradientUnits="userSpaceOnUse" id="Ears-Dog2id70" x1="20208.3" x2="17218.2" y1="8096.38" y2="11659.9">
   <stop offset="0" style="stop-opacity:1; stop-color:#f5f4f0"/>
   <stop offset="1" style="stop-opacity:1; stop-color:#e8e5d8"/>
  </linearGradient><linearGradient gradientUnits="objectBoundingBox" id="Ears-Dog2id5" x1="50%" x2="50%" y1="0%" y2="100%">
   <stop offset="0" style="stop-opacity:1; stop-color:#7b5e45"/>
   <stop offset="1" style="stop-opacity:1; stop-color:#a1846a"/>
  </linearGradient><linearGradient gradientUnits="userSpaceOnUse" id="Head-Dog7id35" x1="13681.9" x2="13681.9" y1="17936.7" y2="7484.8">
   <stop offset="0" style="stop-opacity:1; stop-color:#c2a772"/>
   <stop offset="0.4" style="stop-opacity:1; stop-color:#e9cd96"/>
   <stop offset="1" style="stop-opacity:1; stop-color:#ffedc9"/>
  </linearGradient><linearGradient gradientUnits="userSpaceOnUse" id="Head-Dog7id18" x1="10235.1" x2="10235.1" y1="19681.2" y2="17649.5">
   <stop offset="0" style="stop-opacity:1; stop-color:#a1846a"/>
   <stop offset="1" style="stop-opacity:1; stop-color:#7b5e45"/>
  </linearGradient><linearGradient gradientUnits="userSpaceOnUse" id="Head-Dog7id132" x1="13664.7" x2="13664.7" y1="17953.2" y2="22866.3">
   <stop offset="0" style="stop-opacity:1; stop-color:#e8e5d8"/>
   <stop offset="0.341176" style="stop-opacity:1; stop-color:#f5f4f0"/>
   <stop offset="1" style="stop-opacity:1; stop-color:#f5f4f0"/>
  </linearGradient><linearGradient gradientUnits="userSpaceOnUse" id="Eyes-Dog4id27" x1="16937.6" x2="16937.6" y1="14961.3" y2="11448.6">
   <stop offset="0" style="stop-opacity:1; stop-color:#806000"/>
   <stop offset="1" style="stop-opacity:1; stop-color:black"/>
  </linearGradient><linearGradient gradientUnits="objectBoundingBox" id="Eyes-Dog4id57" x1="100%" x2="0%" y1="50.0003%" y2="50.0003%">
   <stop offset="0" style="stop-opacity:1; stop-color:#806000"/>
   <stop offset="0.501961" style="stop-opacity:1; stop-color:#ffc419"/>
   <stop offset="1" style="stop-opacity:1; stop-color:#806000"/>
  </linearGradient><linearGradient gradientUnits="userSpaceOnUse" id="Eyes-Dog4id384" x1="16417.8" x2="16417.8" y1="11784.3" y2="14068.5">
   <stop offset="0" style="stop-opacity:1; stop-color:black"/>
   <stop offset="0.45" style="stop-opacity:1; stop-color:black"/>
   <stop offset="1" style="stop-opacity:1; stop-color:#664c00"/>
  </linearGradient><linearGradient gradientUnits="userSpaceOnUse" id="Nose-Dog0id451" x1="13653.8" x2="13653.8" y1="14108.6" y2="14926.9">
   <stop offset="0" style="stop-opacity:1; stop-color:#FFCCCC"/>
   <stop offset="1" style="stop-opacity:1; stop-color:#453F2C"/>
  </linearGradient><linearGradient gradientUnits="userSpaceOnUse" id="Hair-Dog4id49" x1="13715.8" x2="13715.8" y1="6802.99" y2="8218.57">
   <stop offset="0" style="stop-opacity:1; stop-color:#a6673d"/>
   <stop offset="1" style="stop-opacity:1; stop-color:#bf8159"/>
  </linearGradient><linearGradient gradientUnits="userSpaceOnUse" id="BraceletSilver-Mediumid670new" x1="8123.49" x2="10221.1" y1="19753" y2="20731.2">
   <stop offset="0" style="stop-opacity:1; stop-color:#ADA8A8"/>
   <stop offset="0.109804" style="stop-opacity:1; stop-color:#EDE8E8"/>
   <stop offset="0.25098" style="stop-opacity:1; stop-color:#FFFFFC"/>
   <stop offset="0.470588" style="stop-opacity:1; stop-color:#DBD4D4"/>
   <stop offset="0.780392" style="stop-opacity:1; stop-color:#403838"/>
   <stop offset="1" style="stop-opacity:1; stop-color:#BDB3B3"/>
  </linearGradient><linearGradient gradientUnits="userSpaceOnUse" id="NecklaceYinYangid669new" x1="12270.9" x2="12467.6" y1="19894.7" y2="19277.5">
   <stop offset="0" style="stop-opacity:1; stop-color:#643300"/>
   <stop offset="1" style="stop-opacity:1; stop-color:#AB7D2D"/>
  </linearGradient><linearGradient gradientUnits="userSpaceOnUse" id="WeaponFlySwatterBack-Mediumid24" x1="12160.4" x2="14712.1" y1="25216.2" y2="22534.8">
   <stop offset="0" style="stop-opacity:1; stop-color:#008011"/>
   <stop offset="1" style="stop-opacity:1; stop-color:#00BD55"/>
  </linearGradient><linearGradient gradientUnits="userSpaceOnUse" id="AccessoryBannerLuckid0" x1="5973.37" x2="5973.37" y1="5158.24" y2="6316.01">
   <stop offset="0" style="stop-opacity:1; stop-color:#1C1717"/>
   <stop offset="0.501961" style="stop-opacity:1; stop-color:#463A3B"/>
   <stop offset="1" style="stop-opacity:1; stop-color:#1A1616"/>
  </linearGradient></defs><g id="AccessoryBannerLuck">
  <metadata id="CorelCorpID_3Corel-Layer"/>
  <g>
   <g id="_3081457736304">
    <rect class="AccessoryBannerLuckfil38 AccessoryBannerLuckstr0" height="18428" rx="326" ry="1811" width="651" x="5648" y="5854"/>
    <path class="AccessoryBannerLuckfil39 AccessoryBannerLuckstr0" d="M782 7138l0 0c0,153 125,277 277,277l10129 0c152,0 277,-124 277,-277l0 0c0,-152 -125,-277 -277,-277l-10129 0c-152,0 -277,125 -277,277z" style="fill:#e806a7"/>
    <polygon class="AccessoryBannerLuckfil40 AccessoryBannerLuckstr0" points="5973,5517 5405,4813 5973,2844 6542,4813 "/>
    <polygon class="AccessoryBannerLuckfil41 AccessoryBannerLuckstr0" points="5973,5158 6496,5922 5973,6316 5451,5922 "/>
    <polygon class="AccessoryBannerLuckfil42 AccessoryBannerLuckstr0" points="5973,6440 7705,5183 5973,5798 4242,5183 "/>
    <path class="AccessoryBannerLuckfil43 AccessoryBannerLuckstr0" d="M1578 6717c88,0 174,10 256,28l0 786c-82,19 -168,29 -256,29 -33,0 -66,-2 -99,-4 -495,77 -856,369 -865,1249 -161,-219 -256,-494 -256,-794 0,-336 121,-643 319,-873 -198,-230 -319,-536 -319,-873 0,-299 95,-574 256,-794 9,881 370,1172 865,1250 33,-3 66,-4 99,-4z" style="fill:#64bb8c"/>
    <path class="AccessoryBannerLuckfil44 AccessoryBannerLuckstr0" d="M11368 6717c-88,0 -173,10 -256,28l0 786c83,19 168,29 256,29 34,0 67,-2 100,-4 494,77 856,369 865,1249 160,-219 256,-494 256,-794 0,-336 -121,-643 -319,-873 198,-230 319,-536 319,-873 0,-299 -96,-574 -256,-794 -9,881 -371,1172 -865,1250 -33,-3 -66,-4 -100,-4z" style="fill:#ae6f04"/>
    <path class="AccessoryBannerLuckfil45 AccessoryBannerLuckstr1" d="M5235 24041l1477 0c197,0 197,-546 0,-546l-1477 0c-197,0 -197,546 0,546z" style="fill:#fdad4e"/>
    <path class="AccessoryBannerLuckfil46 AccessoryBannerLuckstr1" d="M4857 24704l2232 0c298,0 33,-843 -264,-843l-1703 0c-298,0 -562,843 -265,843z" style="fill:#3ccbf3"/>
   </g>
   <g id="_3081457730992">
   <animateTransform additive="sum" attributeName="transform" dur="5" repeatCount="indefinite" type="rotate" values="0;0.5;0;-0.5;0"/>
    <path class="AccessoryBannerLuckfil47" d="M1212 19073c583,374 1132,821 1609,1430 317,-443 956,-597 1430,-1017 768,630 1386,1276 1942,1930 597,-408 1240,-1028 1943,-1930 493,112 958,603 1429,1017 620,-686 1199,-1009 1609,-1430 573,-4202 -381,-7874 0,-12499 -518,-59 -1079,-48 -1662,0 -72,609 -447,812 -670,1218 -266,-406 -683,-803 -798,-1218 -414,114 -504,28 -688,0 -154,1084 -611,1457 -1163,2003 -388,-668 -1006,-1194 -1163,-2003 -141,-22 -288,121 -688,0 -124,641 -532,812 -797,1218 -224,-406 -686,-874 -671,-1218 -554,0 -1108,0 -1662,0 211,4489 343,8859 0,12499z" style="fill:#3a4fc1"/>
    <path class="AccessoryBannerLuckfil48" d="M2214 13969c-48,-53 -127,-51 -174,6 -48,56 -47,147 5,204l938 1040 -969 1075c-48,53 -47,141 3,194 51,54 132,53 183,-3l962 -1067 1130 1254 -1226 1360 -878 -974c-53,-59 -137,-63 -190,-12 -53,50 -57,136 -11,186l900 998 -588 652c-49,55 -49,144 0,199 50,55 130,55 180,0l587 -652 488 541c49,55 130,55 179,0 50,-55 50,-144 0,-199l-488 -541 1227 -1359 1632 1810c24,27 57,41 89,41 33,0 65,-14 90,-41l1632 -1810 1226 1359 -488 541c-49,55 -49,144 0,199 50,55 130,55 180,0l487 -541 588 652c49,55 129,55 179,0 49,-55 49,-144 0,-199l-588 -652 976 -1082c49,-54 49,-143 0,-198 -50,-55 -130,-55 -179,0l-976 1082 -1226 -1360 1131 -1254 993 1102c50,55 130,55 179,0 50,-55 50,-144 0,-199l-993 -1102 1091 -1210c49,-55 49,-144 0,-199 -50,-55 -130,-55 -179,0l-4123 4572 -3979 -4413z" style="fill:#8c671a"/>
    <path class="AccessoryBannerLuckfil49" d="M6193 20054c-611,-597 -1222,-1194 -1833,-1791 -60,-60 -148,-62 -211,-11 -406,313 -812,627 -1218,941 -250,-232 -500,-464 -750,-696 270,-3439 55,-7416 -77,-11300 84,0 167,0 251,0 230,547 610,1094 1052,1641 84,116 222,99 284,-17 487,-704 957,-1411 1252,-2142 -130,-6 -261,-12 -392,-18 -229,711 -630,1213 -1014,1734 -392,-473 -728,-962 -951,-1482 -29,-55 -83,-91 -144,-91 -169,0 -338,0 -507,0 0,0 0,1 0,1 -95,0 -171,88 -169,187 165,4070 345,8164 79,11564 -3,57 18,113 60,154 336,331 625,594 903,838 57,58 145,67 211,16 405,-314 811,-628 1217,-941 614,600 1228,1200 1842,1800 67,67 163,67 230,0 614,-600 1228,-1200 1842,-1800 406,313 812,627 1218,941 66,51 153,42 210,-16 301,-279 602,-558 904,-838 42,-39 63,-97 60,-154 249,-1632 -75,-7709 78,-11564 1,-103 -75,-187 -168,-187 0,0 0,-1 0,-1 -169,0 -338,0 -507,0 -62,0 -115,36 -145,91 -317,494 -634,988 -951,1482 -350,-607 -700,-1214 -1050,-1821 7,91 -112,100 -400,0 432,749 864,1498 1296,2247 68,126 216,122 284,17 351,-547 702,-1094 1052,-1641 84,0 167,0 251,0 -169,3861 124,8444 -76,11317 -251,226 -501,452 -751,679 -406,-314 -812,-628 -1218,-941 -62,-51 -150,-49 -211,11 -611,597 -1222,1194 -1833,1791z" style="fill:#8c1775"/>
    <path class="AccessoryBannerLuckfil50" d="M8242 15107c-61,78 -167,87 -238,19 -70,-67 -78,-185 -17,-263 183,-235 330,-506 429,-803 96,-284 148,-593 148,-917 0,-726 -265,-1384 -694,-1859 -429,-476 -1022,-770 -1677,-770l0 -375c748,0 1425,336 1916,880 490,543 793,1294 793,2124 0,367 -60,720 -170,1048 -114,339 -281,648 -490,916z" style="fill:#0e014d"/>
    <path class="AccessoryBannerLuckfil50" d="M4144 15107c61,78 168,87 238,19 70,-67 78,-185 17,-263 -183,-235 -329,-506 -429,-803 -95,-284 -148,-593 -148,-917 0,-726 266,-1384 695,-1859 429,-476 1022,-770 1676,-770l0 -375c-748,0 -1425,336 -1915,880 -490,543 -794,1294 -794,2124 0,367 61,720 171,1048 113,339 280,648 489,916z" style="fill:#877142"/>
    <ellipse class="AccessoryBannerLuckfil16" cx="6193" cy="12494" rx="312" ry="346"/>
    <path class="AccessoryBannerLuckfil16" d="M6193 15688c564,0 212,1067 0,1067 -212,0 -564,-1067 0,-1067z" style="fill:#110c86"/>
    <path class="AccessoryBannerLuckfil16" d="M7150 15343c489,-312 665,807 482,925 -184,117 -970,-612 -482,-925z" style="fill:#cee818"/>
    <path class="AccessoryBannerLuckfil16" d="M5236 15343c-489,-312 -665,807 -481,925 183,117 969,-612 481,-925z" style="fill:#4c3234"/>
    <path class="AccessoryBannerLuckfil50" d="M5047 12865c63,-21 107,-104 100,-173 -12,-98 -112,-174 -194,-139 -75,27 -119,125 -94,201 19,90 107,146 188,111zm2361 7c50,-21 94,-62 106,-125 19,-83 -37,-180 -119,-194 -87,-28 -181,62 -175,166 0,97 100,181 188,153zm-2448 576c62,-14 112,-76 119,-145 6,-91 -69,-181 -151,-174 -87,-7 -169,97 -144,194 13,91 101,146 176,125zm2504 0c63,-7 119,-76 119,-145 6,-91 -63,-181 -150,-174 -82,0 -151,83 -144,174 6,90 94,166 175,145zm-2398 577c75,-21 125,-111 107,-195 -13,-69 -69,-118 -132,-125 -94,-14 -182,91 -156,195 12,90 106,152 181,125zm2317 0c56,-21 100,-77 106,-139 6,-83 -50,-167 -125,-181 -88,-21 -175,70 -175,167 6,104 106,187 194,153zm-2004 479c57,-21 100,-83 100,-153 7,-90 -62,-167 -144,-167 -94,-7 -175,105 -144,209 19,83 113,139 188,111zm1703 0c63,-28 100,-97 100,-167 -6,-83 -75,-160 -156,-153 -82,0 -150,91 -138,181 6,97 106,174 194,139zm-676 590c-200,28 -401,14 -601,-35 -351,-76 -689,-270 -908,-590 -213,-305 -294,-687 -307,-1062 -12,-466 100,-931 269,-1354 82,-188 176,-375 282,-556 50,-90 132,-160 226,-201 81,-35 181,-35 250,35 125,125 144,347 63,506 -213,396 -370,848 -382,1320 0,146 12,305 56,444 56,167 150,320 276,424 169,139 375,208 582,201 188,-7 376,-62 526,-194 169,-139 282,-348 319,-577 56,-340 -12,-694 -113,-1020 -68,-216 -150,-417 -250,-611 -81,-160 -44,-382 88,-500 56,-56 144,-63 212,-35 113,48 201,153 270,264 244,396 425,847 501,1319 62,410 37,833 -101,1215 -87,236 -219,452 -394,611 -238,229 -551,354 -864,396z" style="fill:#49ff5e"/>
    <path class="AccessoryBannerLuckfil17" d="M1348 17147c1572,1943 6704,-4278 8725,-10592 212,-5 427,-10 643,-16 156,7 309,18 458,35 -381,4625 573,8297 0,12499 -410,421 -989,744 -1609,1430 -471,-414 -936,-905 -1429,-1017 -703,902 -1346,1522 -1943,1930 -556,-654 -1174,-1300 -1942,-1930 -474,420 -1113,574 -1430,1017 -477,-609 -1026,-1056 -1609,-1430 59,-622 103,-1265 136,-1926z" style="fill:#5df0be"/>
    <path class="AccessoryBannerLuckfil17" d="M1414 15011c1341,-607 2864,-1428 3016,-1337 153,92 -1673,1864 -3054,2829 18,-489 31,-986 38,-1492z" style="fill:#de14d0"/>
    <path class="AccessoryBannerLuckfil17" d="M3294 7863c98,-146 2896,1950 3882,1197 986,-754 1517,-1070 1607,-1070 91,0 -1381,2044 -2263,1913 -881,-131 -3323,-1894 -3226,-2040z" style="fill:#208b3d"/>
    <path class="AccessoryBannerLuckfil11 AccessoryBannerLuckstr0" d="M1212 19073c583,374 1132,821 1609,1430 317,-443 956,-597 1430,-1017 768,630 1386,1276 1942,1930 597,-408 1240,-1028 1943,-1930 493,112 958,603 1429,1017 620,-686 1199,-1009 1609,-1430 573,-4202 -381,-7874 0,-12499 -518,-59 -1079,-48 -1662,0 -72,609 -447,812 -670,1218 -266,-406 -683,-803 -798,-1218 -414,114 -504,28 -688,0 -154,1084 -611,1457 -1163,2003 -388,-668 -1006,-1194 -1163,-2003 -141,-22 -288,121 -688,0 -124,641 -532,812 -797,1218 -224,-406 -686,-874 -671,-1218 -554,0 -1108,0 -1662,0 211,4489 343,8859 0,12499z" style="fill:#a87285"/>
   </g>
  </g>
 </g><g id="HairBack-Dog0">
 <animateTransform additive="sum" attributeName="transform" dur="10" repeatCount="indefinite" type="translate" values="0;0 200;0;0 200;0;0 200;0;0 200;0"/>
  <metadata id="CorelCorpID_115Corel-Layer"/>
  <rect class="HairBack-Dog0fil22" height="890" width="890" x="13237" y="6590"/>
 </g><g id="Tail-Dog3">
  <metadata id="CorelCorpID_121Corel-Layer"/>
  <path class="Tail-Dog3fil236" d="M14650 21706c2812,243 4776,-1109 4450,-3682 -194,-796 1800,-377 2195,1294 310,-113 383,-634 452,156 74,861 -56,2508 -1209,3254 310,159 990,-257 636,271 -84,125 -308,383 -609,601 -674,489 -1496,721 -3130,971 -2264,347 -4303,-1232 -4630,-2180l1845 -685z" style="fill:#4b9fda"/>
  <path class="Tail-Dog3fil14" d="M20941 23299c-94,87 -218,187 -376,301 -674,489 -1496,721 -3130,971 -2194,336 -4177,-1137 -4595,-2091 2280,1705 5210,2057 8101,819z" style="fill:#6e2b99"/>
  <path class="Tail-Dog3fil237" d="M14650 21706c2517,217 4354,-843 4479,-2912 46,-775 1023,-211 1245,125 316,477 500,1309 350,1579 259,51 586,-506 531,-21 -118,1027 -555,1908 -1774,2266 99,255 1025,126 454,414 -470,241 -2114,552 -3369,417 -1289,-139 -2300,-639 -2912,-1498l996 -370z" style="fill:#983e97"/>
  <path class="Tail-Dog3fil26" d="M18991 19563c140,-449 182,-963 109,-1539 -53,-216 53,-379 252,-379 980,-1 1229,1456 1346,2036 -128,-512 -1181,-992 -1707,-117l0 -1z" style="fill:#915d0f"/>
  <path class="Tail-Dog3fil22 Tail-Dog3str0" d="M14650 21706c2812,243 4776,-1109 4450,-3682 -194,-796 1800,-377 2195,1294 310,-113 383,-634 452,156 74,861 -56,2508 -1209,3254 310,159 990,-257 636,271 -84,125 -308,383 -609,601 -674,489 -1496,721 -3130,971 -2264,347 -4303,-1232 -4630,-2180l1845 -685z" style="fill:#978ef2"/>
 </g><g id="RightFoot-Dog0">
  <metadata id="CorelCorpID_125Corel-Layer"/>
  <path class="RightFoot-Dog0fil26" d="M17461 25232c-144,249 -469,331 -709,123 -82,82 -321,169 -611,76 -475,-152 -678,-627 -1088,-897 -209,-138 -43,-480 -31,-702 205,68 639,20 960,-216 332,-245 1043,-199 820,325 153,50 376,135 488,193 178,92 308,217 397,350 166,246 124,748 -226,748z" style="fill:#42d908"/>
  <path class="RightFoot-Dog0fil14" d="M17461 25232c-144,249 -469,331 -709,123 -82,82 -321,169 -611,76 -475,-152 -678,-627 -1088,-897 -182,-120 -106,-408 -68,-624 13,30 66,32 88,19 2,85 -1,160 50,261 317,621 1468,1311 1612,663 247,396 693,243 634,-148 151,250 332,57 232,-294 150,96 185,309 179,486 -21,178 -124,335 -319,335z" style="fill:#c5e584"/>
  <path class="RightFoot-Dog0fil22" d="M16741 23949c560,135 807,327 949,532 170,244 121,751 -229,751 -144,249 -469,331 -709,123 -82,82 -321,169 -611,76 -475,-152 -614,-562 -1018,-844 -201,-140 -166,-401 -134,-554" style="fill:#0c41c4"/>
  <path class="RightFoot-Dog0fil32" d="M17378 25213c0,3 0,7 0,10 -59,86 -148,149 -252,169 -84,16 -174,3 -257,-45l-12 -8c47,-255 19,-572 -334,-636 167,118 191,399 163,611 -41,33 -116,65 -215,77 -89,11 -194,6 -307,-31 -265,-85 -423,-261 -589,-447 -277,-311 -611,-400 -512,-864 8,-41 -28,-86 -58,-89 -24,-2 -80,17 -89,58 -91,430 90,572 327,781 71,62 146,130 221,214 180,201 350,392 654,490 137,43 264,50 371,37 108,-13 199,-49 262,-89l3 0c116,81 258,115 400,88 143,-28 268,-114 349,-234 151,-15 258,-113 313,-251 29,-74 44,-157 44,-240 0,-135 -38,-275 -108,-376 -77,-110 -181,-216 -341,-313 -143,-86 -331,-165 -584,-231 -71,-19 -105,8 -131,48 -23,34 -14,70 26,80 271,65 468,144 612,231 139,84 229,176 295,271 53,76 81,183 81,290 0,66 -11,130 -33,185 -25,64 -65,112 -119,138 13,-317 -128,-634 -466,-624 219,111 313,298 286,700z" style="fill:#c66eed"/>
 </g><g id="LeftFoot-Dog0">
  <metadata id="CorelCorpID_133Corel-Layer"/>
  <path class="LeftFoot-Dog0fil26" d="M9847 25232c143,249 468,331 709,123 82,82 321,169 611,76 475,-152 678,-627 1088,-897 208,-138 43,-480 31,-702 -240,73 -640,20 -960,-216 -332,-245 -1043,-199 -821,325 -152,50 -375,135 -487,193 -178,92 -308,217 -398,350 -165,246 -124,748 227,748z" style="fill:#5d1456"/>
  <path class="LeftFoot-Dog0fil14" d="M9847 25232c143,249 468,331 709,123 82,82 321,169 611,76 475,-152 678,-627 1088,-897 181,-120 105,-408 68,-624 -13,30 -66,32 -88,19 -2,85 1,160 -50,261 -318,621 -1468,1311 -1612,663 -248,396 -693,243 -634,-148 -151,250 -333,57 -232,-294 -150,96 -186,309 -179,486 20,178 124,335 319,335z" style="fill:#c9c6cd"/>
  <path class="LeftFoot-Dog0fil22" d="M10566 23949c-559,135 -807,327 -949,532 -169,244 -121,751 230,751 143,249 468,331 709,123 82,82 321,169 611,76 475,-152 614,-562 1017,-844 201,-140 167,-401 134,-554" style="fill:#a037b0"/>
  <path class="LeftFoot-Dog0fil32" d="M9929 25213c1,3 1,7 0,10 59,86 149,149 253,169 84,16 174,3 257,-45l12 -8c-48,-255 -19,-572 333,-636 -166,118 -190,399 -162,611 41,33 116,65 215,77 89,11 193,6 307,-31 265,-85 423,-261 588,-447 278,-311 612,-400 513,-864 -9,-41 27,-86 58,-89 23,-2 80,17 88,58 119,558 -222,630 -547,995 -180,201 -351,392 -655,490 -137,43 -263,50 -370,37 -109,-13 -200,-49 -262,-89l-3 0c-116,81 -259,115 -401,88 -143,-28 -267,-114 -348,-234 -151,-15 -258,-113 -313,-251 -30,-74 -44,-157 -44,-240 0,-135 38,-275 108,-376 76,-110 181,-216 341,-313 142,-86 330,-165 584,-231 71,-19 105,8 131,48 22,34 14,70 -26,80 -271,65 -468,144 -612,231 -139,84 -230,176 -295,271 -53,76 -81,183 -81,290 0,66 11,130 32,185 26,64 65,112 120,138 -13,-317 128,-634 466,-624 -219,111 -313,298 -287,700z" style="fill:#d4c963"/>
 </g><g id="RightLeg-Dog3">
  <metadata id="CorelCorpID_130Corel-Layer"/>
  <path class="RightLeg-Dog3fil244" d="M13654 20939c701,0 2353,-56 2710,226 217,172 606,562 807,1087 138,362 89,1043 499,1102 -216,231 -510,211 -606,59 -64,135 -17,492 320,502 -245,186 -489,136 -666,145 -130,7 -316,95 -419,132 -472,76 -697,-507 -1295,-235 -116,181 -336,152 -424,46 166,-22 251,-457 65,-636 -275,-262 -701,-202 -991,-207l0 -2221z" style="fill:#8e42a2"/>
  <path class="RightLeg-Dog3fil32" d="M16410 21106c-32,-26 -79,-20 -105,12 -26,33 -20,80 12,105 123,97 302,266 470,491 238,322 333,554 402,938 53,300 109,613 331,732 -310,203 -479,-118 -525,0 -15,40 -28,89 -30,144 -4,165 82,355 287,415 -57,64 -285,110 -481,116 178,53 528,88 680,-149 28,-44 -79,-40 -185,-93 -105,-52 -158,-161 -163,-266 252,131 668,-84 644,-176 -21,-84 -327,-153 -411,-749 -73,-408 -177,-661 -429,-1001 -177,-237 -367,-416 -497,-519zm-1364 2763c-28,-17 -140,141 -267,144 -22,0 -43,-3 -63,-9 41,-46 72,-112 90,-186 41,-167 20,-381 -110,-505 -252,-240 -604,-234 -891,-229 -53,1 -105,2 -151,1l0 75 0 74c48,1 99,0 153,-1 260,-4 578,-10 786,189 89,84 95,248 68,361 -48,202 -177,228 -139,273 62,75 164,105 260,103 86,-2 158,-30 215,-80 11,-9 55,9 59,-4 15,-51 40,-176 -10,-206z" style="fill:#be0a3e"/>
  <path class="RightLeg-Dog3fil14" d="M17654 23400c-221,-66 -356,-315 -355,-474 2,-775 -541,-1451 -869,-1752 -191,187 -276,614 -134,870 282,-301 604,234 760,766 58,196 45,581 598,590z" style="fill:#a4c6f3"/>
  <path class="RightLeg-Dog3fil14" d="M17259 23943c-221,-66 -189,-413 -189,-571 -211,-104 -133,-392 -496,-540 304,342 -14,1131 685,1111z" style="fill:#e63e38"/>
  <path class="RightLeg-Dog3fil14" d="M14716 24004c220,-96 333,-421 301,-613 85,143 89,358 57,537 -42,146 -298,160 -358,76z" style="fill:#dd2c4c"/>
 </g><g id="LeftLeg-Dog3">
  <metadata id="CorelCorpID_138Corel-Layer"/>
  <path class="LeftLeg-Dog3fil250" d="M13654 20939c-701,0 -2353,-56 -2710,226 -217,172 -606,562 -807,1087 -139,362 -89,1043 -499,1102 216,231 510,211 605,59 64,135 17,492 -319,502 244,186 488,136 666,145 129,7 316,95 419,132 472,76 697,-507 1294,-235 117,181 337,152 424,46 -165,-22 -251,-457 -64,-636 275,-262 701,-202 991,-207l0 -2221z" style="fill:#4fc374"/>
  <path class="LeftLeg-Dog3fil32" d="M10898 21106c32,-26 79,-20 105,12 25,33 20,80 -13,105 -122,97 -301,266 -469,491 -238,322 -333,554 -402,938 -53,300 -109,613 -331,732 309,203 479,-118 525,0 15,40 28,89 29,144 5,165 -81,355 -286,415 56,64 284,110 480,116 -178,53 -527,88 -679,-149 -29,-44 79,-40 185,-93 105,-52 158,-161 162,-266 -251,131 -667,-84 -644,-176 22,-84 327,-153 411,-749 73,-408 178,-661 430,-1001 176,-237 366,-416 497,-519zm1364 2763c28,-17 140,141 267,144 21,0 43,-3 62,-9 -40,-46 -71,-112 -90,-186 -41,-167 -19,-381 110,-505 252,-240 605,-234 892,-229 53,1 105,2 151,1l0 75 0 74c-48,1 -100,0 -153,-1 -260,-4 -579,-10 -786,189 -89,84 -95,248 -68,361 48,202 177,228 138,273 -61,75 -163,105 -259,103 -86,-2 -158,-30 -216,-80 -10,-9 -55,9 -59,-4 -14,-51 -39,-176 11,-206z" style="fill:#9ac5d5"/>
  <path class="LeftLeg-Dog3fil14" d="M9653 23400c221,-66 356,-315 356,-474 -2,-775 540,-1451 869,-1752 190,187 275,614 134,870 -283,-301 -604,234 -760,766 -58,196 -46,581 -599,590z" style="fill:#e97393"/>
  <path class="LeftLeg-Dog3fil14" d="M10049 23943c221,-66 189,-413 189,-571 210,-104 133,-392 496,-540 -304,342 14,1131 -685,1111z" style="fill:#014ce6"/>
  <path class="LeftLeg-Dog3fil14" d="M12591 24004c-220,-96 -332,-421 -300,-613 -86,143 -89,358 -58,537 43,146 299,160 358,76z" style="fill:#0d38bf"/>
 </g><g id="RightHand-Dog4">
 <animateTransform additive="sum" attributeName="transform" dur="10" repeatCount="indefinite" type="translate" values="0;0 200;0;0 200;0;0 200;0;0 200;0"/>
  <metadata id="CorelCorpID_144Corel-Layer"/>
  <path class="RightHand-Dog4fil256" d="M15619 17715c247,-7 498,-52 659,-90 985,362 1779,1397 2210,2149 289,504 -636,1265 -911,1014 -400,-366 -786,-483 -1129,-559 -358,-79 -514,-1818 -829,-2514z" style="fill:#3e382d"/>
  <path class="RightHand-Dog4fil257" d="M15846 17699c166,-18 321,-47 432,-74 649,238 1214,768 1648,1317 -22,483 -677,797 -1040,490 -461,-391 -268,-1164 -1040,-1733z" style="fill:#1f7325"/>
  <path class="RightHand-Dog4fil22 RightHand-Dog4str0" d="M16041 17553c1079,269 1932,1403 2397,2213m-861 1022c-394,-360 -769,-512 -1113,-557" style="fill:#d2c6d7"/>
  <path class="RightHand-Dog4fil14" d="M17401 20669c-249,-249 -500,-372 -822,-396 -156,-175 -225,-650 -133,-901 308,435 716,808 1104,1031 -30,84 -75,162 -148,228 0,12 -1,25 -1,38z" style="fill:#a6e736"/>
 </g><g id="LeftHand-Dog4">
 <animateTransform additive="sum" attributeName="transform" dur="10" repeatCount="indefinite" type="translate" values="0;0 200;0;0 200;0;0 200;0;0 200;0"/>
  <metadata id="CorelCorpID_152Corel-Layer"/>
  <path class="LeftHand-Dog4fil262" d="M11744 17715c-246,-7 -497,-52 -658,-90 -985,362 -1779,1397 -2210,2149 -289,504 636,1265 911,1014 400,-366 786,-483 1129,-559 358,-79 514,-1818 828,-2514z" style="fill:#371761"/>
  <path class="LeftHand-Dog4fil57" d="M11518 17699c-166,-18 -321,-47 -432,-74 -649,238 -1214,768 -1648,1317 22,483 677,797 1040,490 461,-391 268,-1164 1040,-1733z" style="fill:#7a58e1"/>
  <path class="LeftHand-Dog4fil22 LeftHand-Dog4str0" d="M11323 17553c-1079,269 -1933,1403 -2397,2213m861 1022c394,-360 769,-512 1113,-557" style="fill:#5a64a4"/>
  <path class="LeftHand-Dog4fil14" d="M9963 20669c249,-249 500,-372 821,-396 157,-175 226,-650 134,-901 -308,435 -717,808 -1104,1031 30,84 75,162 148,228 0,12 1,25 1,38z" style="fill:#d408ee"/>
 </g><g id="Body-Dog0">
 <animateTransform additive="sum" attributeName="transform" dur="10" repeatCount="indefinite" type="translate" values="0;0 200;0;0 200;0;0 200;0;0 200;0"/>
  <metadata id="CorelCorpID_157Corel-Layer"/>
  <path class="Body-Dog0fil267" d="M13682 23035c-1548,0 -2752,-291 -2993,-1956 -146,-1010 387,-2357 984,-3487 334,54 1089,70 2009,70 920,0 1675,-16 2008,-70 598,1130 1131,2477 985,3487 -242,1665 -1445,1956 -2993,1956z" style="fill:#82ef8c"/>
  <path class="Body-Dog0fil268" d="M13682 17605c-1173,0 -1911,-440 -2137,431 -273,1050 -1533,4839 2137,4839 3670,0 2410,-3789 2137,-4839 -226,-871 -964,-431 -2137,-431z" style="fill:#1aed1d"/>
  <path class="Body-Dog0fil14" d="M12620 22967c-1015,-156 -1748,-629 -1931,-1888 -72,-498 21,-1078 206,-1674 -224,2001 425,3224 1725,3562z" style="fill:#e7c7ae"/>
  <path class="Body-Dog0fil14" d="M14743 22967c1016,-156 1749,-629 1932,-1888 72,-498 -21,-1078 -206,-1674 224,2001 -425,3224 -1726,3562z" style="fill:#c8f214"/>
  <path class="Body-Dog0fil32" d="M11012 22044c-250,-321 -348,-641 -397,-954 -59,-377 -28,-1005 180,-1327 -79,420 -89,912 -32,1305 50,341 104,572 249,976z" style="fill:#94b0ab"/>
  <path class="Body-Dog0fil32" d="M16352 22044c250,-321 347,-641 397,-954 59,-377 24,-998 -184,-1320 78,421 93,905 36,1298 -50,341 -104,572 -249,976z" style="fill:#324441"/>
 </g><g id="WeaponFlySwatterBack-Medium">
 <animateTransform additive="sum" attributeName="transform" dur="10" repeatCount="indefinite" type="translate" values="0;0 200;0;0 200;0;0 200;0;0 200;0"/>
  <metadata id="CorelCorpID_0Corel-Layer"/>
  <g id="_2367108334752">
   <path class="WeaponFlySwatterBack-Mediumfil0 WeaponFlySwatterBack-Mediumstr0" d="M9496 21664l211 -158 -1804 -1241c-168,-116 -453,-135 -616,153 -163,289 1,523 187,607l1996 902 26 -263z" style="fill:#b69ad1"/>
   <path class="WeaponFlySwatterBack-Mediumfil1" d="M7463 20235c-66,36 -127,96 -176,183 -163,289 1,523 187,607l1996 902 22 -221c-464,-223 -1683,-816 -1870,-979 -151,-131 -206,-332 -159,-492z" style="fill:#a07f7d"/>
  </g>
 </g><g id="RightPaw-Dog3">
 <animateTransform additive="sum" attributeName="transform" dur="10" repeatCount="indefinite" type="translate" values="0;0 200;0;0 200;0;0 200;0;0 200;0"/>
  <metadata id="CorelCorpID_148Corel-Layer"/>
  <path class="RightPaw-Dog3fil260" d="M17402 20631c-38,818 551,1339 943,981 309,484 1078,126 986,-356 248,-652 -532,-1279 -980,-1632 -241,-78 -377,-149 -564,-64 -316,143 -32,749 -385,1071z" style="fill:#63aefb"/>
  <path class="RightPaw-Dog3fil14" d="M17402 20631c-17,192 32,393 33,395 44,201 137,399 285,544 194,184 433,219 637,33 492,772 1351,-293 810,-632 144,452 -486,750 -723,253 -324,480 -778,69 -787,-350 -5,-223 56,-314 -107,-471 -30,84 -75,162 -148,228z" style="fill:#2033a6"/>
  <path class="RightPaw-Dog3fil32" d="M18446 21611c107,-163 129,-451 -88,-537 74,121 26,386 -69,476 -138,130 -263,138 -430,31 -93,-59 -178,-155 -245,-278 -93,-172 -149,-397 -138,-656 1,-21 -7,-43 -24,-59 -52,-50 -128,-78 -180,-116 -33,-25 -76,-27 -100,6 -24,33 -10,74 23,99 44,31 87,68 130,100 -5,272 57,511 157,696 79,147 183,261 296,334 178,114 384,128 560,8 101,121 232,181 368,195 211,22 433,-69 573,-226 103,-115 160,-263 137,-425 229,-648 -410,-1166 -864,-1533 -104,-84 -134,-147 -206,-255 -23,-34 -69,-44 -104,-21 -34,23 -43,70 -20,104 80,121 120,196 236,290 356,288 865,714 854,1122 -52,-71 -158,-158 -280,-146 191,160 321,562 136,764 -110,120 -284,194 -446,177 -102,-10 -201,-57 -276,-150z" style="fill:#451068"/>
 </g><g id="LeftPaw-Dog3">
 <animateTransform additive="sum" attributeName="transform" dur="10" repeatCount="indefinite" type="translate" values="0;0 200;0;0 200;0;0 200;0;0 200;0"/>
  <metadata id="CorelCorpID_156Corel-Layer"/>
  <path class="LeftPaw-Dog3fil266" d="M9962 20631c38,818 -552,1339 -944,981 -308,484 -1077,126 -986,-356 -247,-652 533,-1279 981,-1632 241,-78 377,-149 564,-64 316,143 31,749 385,1071z" style="fill:#d8939e"/>
  <path class="LeftPaw-Dog3fil14" d="M9962 20631c16,192 -32,393 -33,395 -44,201 -137,399 -285,544 -194,184 -433,219 -637,33 -493,772 -1351,-293 -810,-632 -144,452 485,750 723,253 324,480 778,69 787,-350 4,-223 -56,-314 107,-471 30,84 75,162 148,228z" style="fill:#964403"/>
  <path class="LeftPaw-Dog3fil32" d="M8918 21611c-107,-163 -129,-451 88,-537 -74,121 -26,386 69,476 138,130 263,138 430,31 92,-59 178,-155 245,-278 93,-172 149,-397 138,-656 -1,-21 7,-43 24,-59 52,-50 128,-78 180,-116 33,-25 75,-27 100,6 24,33 10,74 -24,99 -43,31 -86,68 -129,100 5,272 -57,511 -157,696 -80,147 -183,261 -296,334 -178,114 -384,128 -560,8 -101,121 -232,181 -369,195 -210,22 -432,-69 -572,-226 -103,-115 -161,-263 -137,-425 -229,-648 410,-1166 863,-1533 105,-84 134,-147 207,-255 23,-34 69,-44 103,-21 35,23 44,70 21,104 -81,121 -120,196 -236,290 -356,288 -865,714 -854,1122 52,-71 157,-158 280,-146 -191,160 -321,562 -136,764 110,120 284,194 446,177 102,-10 201,-57 276,-150z" style="fill:#94e76f"/>
 </g><g id="NecklaceYinYang">
 <animateTransform additive="sum" attributeName="transform" dur="10" repeatCount="indefinite" type="translate" values="0;0 200;0;0 200;0;0 200;0;0 200;0"/>
  <metadata id="CorelCorpID_40Corel-Layer"/>
  <path class="NecklaceYinYangfil225new" d="M16543 17208c-73,675 -449,1409 -941,2000 -570,684 -1305,1183 -1920,1183 -615,0 -1350,-499 -1920,-1183 -492,-591 -868,-1325 -941,-2000l352 0c73,593 413,1245 856,1777 509,611 1145,1056 1653,1056 508,0 1144,-445 1653,-1056 442,-532 782,-1184 856,-1777l352 0z" style="fill:#53ee48"/>
  <path class="NecklaceYinYangfil46new" d="M11135 16868c-273,1109 1292,3303 2547,3303 1255,0 2820,-2194 2547,-3303l-25 4c1,34 2,68 2,103 0,650 -370,1407 -871,2010 -509,611 -1145,1056 -1653,1056 -508,0 -1144,-445 -1653,-1056 -501,-603 -871,-1360 -871,-2010 0,-35 1,-69 2,-103l-25 -4z" style="fill:#66d70b"/>
  <path class="NecklaceYinYangfil47new NecklaceYinYangstr4new" d="M16543 17208c-73,675 -449,1409 -941,2000 -570,684 -1305,1183 -1920,1183 -615,0 -1350,-499 -1920,-1183 -492,-591 -868,-1325 -941,-2000l352 0c73,593 413,1245 856,1777 509,611 1145,1056 1653,1056 508,0 1144,-445 1653,-1056 442,-532 782,-1184 856,-1777l352 0z" style="fill:#1f9266"/>
  <path class="NecklaceYinYangfil226new NecklaceYinYangstr3new" d="M11302 18631c-392,0 -362,-385 -163,-550 197,-163 493,-157 449,148 -114,-87 -503,248 -286,402z" style="fill:#056a2d"/>
  <path class="NecklaceYinYangfil227new NecklaceYinYangstr3new" d="M12385 19918c-393,11 -359,-370 -179,-545 182,-179 487,-172 453,134 -117,-83 -496,263 -274,411z" style="fill:#e291e8"/>
  <path class="NecklaceYinYangfil228new NecklaceYinYangstr3new" d="M16062 18631c392,0 345,-403 163,-550 -200,-160 -493,-157 -449,148 114,-87 503,248 286,402z" style="fill:#200fd4"/>
  <path class="NecklaceYinYangfil229new NecklaceYinYangstr3new" d="M14979 19918c393,11 384,-357 179,-545 -202,-187 -487,-172 -453,134 117,-83 496,263 274,411z" style="fill:#00b527"/>
  <g>
   <circle class="NecklaceYinYangfil84new" r="1577" transform="matrix(-0.552338 -0.290723 0.290723 -0.552338 13681.9 21396.4)"/>
   <g>
    <path class="NecklaceYinYangfil84new" d="M14075 20650c412,217 570,727 353,1139 -215,409 -719,568 -1129,359l0 0c-3,-2 -7,-4 -10,-5l0 0c-206,-109 -285,-364 -177,-570 109,-206 364,-285 570,-177l0 0c206,109 461,30 570,-176 108,-207 29,-462 -177,-570z" style="fill:#c36c3e"/>
    <path class="NecklaceYinYangfil83new" d="M13289 22143c-412,-217 -570,-727 -353,-1139 215,-409 718,-568 1129,-359l0 0c3,2 7,3 10,5l0 0c206,108 285,363 177,570 -109,206 -364,285 -570,176l0 0c-206,-108 -461,-29 -570,177 -108,206 -29,461 177,570z" style="fill:#ae40ac"/>
    <path class="NecklaceYinYangfil84new" d="M13943 20901c67,35 93,119 58,187 -36,67 -119,93 -187,58 -68,-36 -94,-120 -58,-187 36,-68 119,-94 187,-58z" style="fill:#80092a"/>
    <path class="NecklaceYinYangfil83new" d="M13421 21892c-68,-36 -94,-119 -58,-187 36,-67 119,-93 187,-58 68,36 93,119 58,187 -36,68 -119,94 -187,58z" style="fill:#d5e025"/>
   </g>
  </g>
  <path class="NecklaceYinYangfil230new NecklaceYinYangstr4new" d="M13599 19944l166 0c25,0 47,21 46,46l-24 447c-1,26 -20,46 -46,46l-119 0c-25,0 -44,-20 -46,-46l-23 -447c-1,-26 21,-46 46,-46z" style="fill:#e0f29d"/>
 </g><g id="Ears-Dog2">
 <animateTransform additive="sum" attributeName="transform" dur="10" repeatCount="indefinite" type="translate" values="0;0 200;0;0 200;0;0 200;0;0 200;0"/>
  <metadata id="CorelCorpID_163Corel-Layer"/>
  <g>
        <animateTransform additive="sum" attributeName="transform" dur="10" repeatCount="indefinite" type="rotate" values="0;0;0;0;0;0;10;0;0;0;0;0;0;0;0;0;0;0;0;0;0;0;0;0;0;0;0;0;0;0;0;0;0;0;0;0;0;0;0;0;0;0;0;0;0;10;0;0;0;0;0;0;0;0;0;0;0;0;0;0;0;0;0;0;0;0;0;0;0;0;0;0;0;0;0;0;0;0;0;0;0;0"/>
        <g>
		    	<animateTransform additive="sum" attributeName="transform" dur="10" repeatCount="indefinite" type="translate" values="0;0;0;0;0;0;2000 -2000;0;0;0;0;0;0;0;0;0;0;0;0;0;0;0;0;0;0;0;0;0;0;0;0;0;0;0;0;0;0;0;0;0;0;0;0;0;0;2000 -2000;0;0;0;0;0;0;0;0;0;0;0;0;0;0;0;0;0;0;0;0;0;0;0;0;0;0;0;0;0;0;0;0;0;0;0;0"/>
			    <path class="Ears-Dog2fil280 Ears-Dog2str0" d="M7702 12890c-735,-2153 -201,-6443 1386,-7459 920,-17 2721,1441 3220,2694 -2435,1002 -3771,2923 -4606,4765z" style="fill:#406cdc"/>
          <path class="Ears-Dog2fil281" d="M11566 8446c-373,-975 -1282,-2041 -2202,-2349 -1439,1128 -1418,4567 -1150,5924 687,-1517 2130,-2737 3352,-3575z" style="fill:#3f6d27"/>
          <path class="Ears-Dog2fil282" d="M10881 8824c-164,-1108 -1122,-2149 -1485,-1804 -412,391 -750,2615 -439,3677 669,-969 1449,-1589 1924,-1873z" style="fill:#9c1f20"/>
          <path class="Ears-Dog2fil0" d="M11711 8954c-183,-1016 -1140,-2328 -2156,-2782 -64,-27 -128,-52 -191,-75 1017,752 1974,2727 -258,4372 359,122 829,-89 1314,-393 438,-385 880,-770 1291,-1122z" style="fill:#08183e"/>
		    </g>
  </g>
  <g>
        <animateTransform additive="sum" attributeName="transform" dur="10" repeatCount="indefinite" type="rotate" values="0;0;0;0;0;0;-10;0;0;0;0;0;0;0;0;0;0;0;0;0;0;0;0;0;0;0;0;0;0;0;0;0;0;0;0;0;0;0;0;0;0;0;0;0;0;0;0;0;0;0;0;0;0;0;0;-10;0;0;0;0;0;0;0;0;0;0;0;0;0;0;0;0;0;0;0;0;0;0;0;0;0;0"/>
        <g>
            <animateTransform additive="sum" attributeName="transform" dur="10" repeatCount="indefinite" type="translate" values="0;0;0;0;0;0;-2500 2500;0;0;0;0;0;0;0;0;0;0;0;0;0;0;0;0;0;0;0;0;0;0;0;0;0;0;0;0;0;0;0;0;0;0;0;0;0;0;0;0;0;0;0;0;0;0;0;0;-2500 2500;0;0;0;0;0;0;0;0;0;0;0;0;0;0;0;0;0;0;0;0;0;0;0;0;0;0"/>
            <path class="Ears-Dog2fil283 Ears-Dog2str0" d="M19662 12890c735,-2153 201,-6443 -1386,-7459 -920,-17 -2721,1441 -3220,2694 2435,1002 3770,2923 4606,4765z" style="fill:#f95728"/>
            <path class="Ears-Dog2fil284" d="M15798 8446c373,-975 1282,-2041 2202,-2349 1439,1128 1418,4567 1149,5924 -686,-1517 -2129,-2737 -3351,-3575z" style="fill:#db6ca2"/>
            <path class="Ears-Dog2fil285" d="M16482 8824c165,-1108 1123,-2149 1486,-1804 411,391 750,2615 439,3677 -669,-969 -1449,-1589 -1925,-1873z" style="fill:#76495e"/>
            <path class="Ears-Dog2fil0" d="M15653 8954c183,-1016 1140,-2328 2155,-2782 65,-27 129,-52 192,-75 -1017,752 -1974,2727 258,4372 -359,122 -829,-89 -1314,-393 -438,-385 -880,-770 -1291,-1122z" style="fill:#2969d0"/>
		    </g>
  </g>  
 </g><g id="BraceletSilver-Medium">
 <animateTransform additive="sum" attributeName="transform" dur="10" repeatCount="indefinite" type="translate" values="0;0 200;0;0 200;0;0 200;0;0 200;0"/>
  <metadata id="CorelCorpID_21Corel-Layer"/>
  <path class="BraceletSilver-Mediumfil61new BraceletSilver-Mediumstr4new" d="M8722 20021c-151,-67 -275,-159 -160,-358 121,-209 254,-236 409,-177 393,150 1162,722 1389,1066 90,139 62,223 -75,361 -140,140 -296,145 -394,12 -244,-332 -771,-729 -1169,-904z" style="fill:#e461db"/>
  <path class="BraceletSilver-Mediumfil62new" d="M8972 19514c33,39 92,84 12,195l-109 154c-47,65 -146,102 -244,79l358 162c-39,-52 -74,-109 -24,-183l124 -184c36,-53 121,-66 183,-52l-300 -171zm403 244c31,41 86,91 -2,196l-122 144c-51,62 -117,68 -213,37l309 212c-36,-54 -66,-114 -10,-184l138 -173c40,-50 126,-57 186,-38l-286 -194zm405 279c28,43 80,96 -15,195l-131 136c-55,58 -148,69 -242,31l313 255c-32,-57 -50,-150 10,-216l150 -164c43,-47 129,-48 188,-25l-273 -212zm351 315c26,45 53,132 -47,223l-138 125c-59,53 -108,49 -200,4l243 265c-29,-58 -29,-131 34,-193l159 -152c45,-44 120,-42 178,-14l-229 -258z" style="fill:#b204fb"/>
  <path class="BraceletSilver-Mediumfil63new BraceletSilver-Mediumstr4new" d="M18642 20021c151,-67 275,-159 160,-358 -121,-209 -254,-236 -409,-177 -393,150 -1163,722 -1389,1066 -90,139 -62,223 75,361 140,140 296,145 394,12 243,-332 770,-729 1169,-904z" style="fill:#e99f66"/>
  <path class="BraceletSilver-Mediumfil62new" d="M18392 19514c-34,39 -92,84 -13,195l110 154c47,65 143,95 241,72l-355 169c39,-52 74,-109 24,-183l-125 -184c-35,-53 -120,-66 -182,-52l300 -171zm-404 244c-30,41 -85,91 3,196l122 144c51,62 117,68 213,37l-309 212c36,-54 66,-114 10,-184l-139 -173c-39,-50 -125,-57 -186,-38l286 -194zm-404 279c-28,43 -80,96 15,195l131 136c55,58 132,62 225,25l-302 269c32,-57 56,-158 -4,-224l-150 -164c-43,-47 -129,-48 -188,-25l273 -212zm-361 292c-25,45 -43,155 57,246l138 125c59,53 108,49 200,4l-243 265c29,-58 29,-131 -35,-193l-158 -152c-45,-44 -120,-42 -178,-14l219 -281z" style="fill:#b1c131"/>
 </g><g id="Head-Dog7">
 <animateTransform additive="sum" attributeName="transform" dur="10" repeatCount="indefinite" type="translate" values="0;0 200;0;0 200;0;0 200;0;0 200;0"/>
  <metadata id="CorelCorpID_179Corel-Layer"/>
  <path class="Head-Dog7fil330" d="M13682 7385c-3568,0 -6948,4165 -6021,7554 736,2692 3247,2816 6021,2816 2774,0 5285,-124 6021,-2816 927,-3389 -2453,-7554 -6021,-7554z" style="fill:#469cdc"/>
  <path class="Head-Dog7fil341" d="M19830 13237c-124,-1172 -653,-2341 -1434,-3323 -632,-582 -1373,-788 -2296,-580 -1509,339 -2296,3283 -1456,4764 840,1482 2804,1680 3867,1002 653,-417 1195,-1044 1319,-1863z" style="fill:#ac0a18"/>
  <path class="Head-Dog7fil14" d="M8141 11211c-590,1190 -813,2509 -480,3728 585,2138 2290,2657 4356,2779 -3483,-543 -4783,-2989 -3876,-6507z" style="fill:#bc0682"/>
  <path class="Head-Dog7fil32" d="M13682 7459c552,0 1099,101 1626,285 302,105 959,411 1688,816 -411,-435 -1448,-891 -1639,-957 -543,-189 -1107,-294 -1675,-294 -568,0 -1132,105 -1675,294 -191,66 -1229,522 -1639,957 728,-405 1386,-711 1688,-816 527,-184 1074,-285 1626,-285z" style="fill:#729d3d"/>
  <path class="Head-Dog7fil32" d="M8070 11356c-237,514 -424,1536 -461,1878 -61,568 -26,1137 124,1685 291,1064 865,1718 1623,2120 512,270 1759,641 2840,689 -1197,57 -2559,-372 -2910,-557 -794,-420 -1394,-1103 -1697,-2213 -155,-566 -192,-1154 -129,-1740 23,-210 212,-1304 610,-1862z" style="fill:#60c508"/>
  <path class="Head-Dog7fil32" d="M19293 11356c238,514 425,1536 462,1878 61,568 26,1137 -124,1685 -291,1064 -865,1718 -1623,2120 -513,270 -1760,641 -2841,689 1198,57 2560,-372 2910,-557 795,-420 1394,-1103 1698,-2213 155,-566 192,-1154 128,-1740 -22,-210 -211,-1304 -610,-1862z" style="fill:#1b358d"/>
  <path class="Head-Dog7fil342" d="M11105 10398c1609,362 1925,1770 1631,2983 -107,369 -13,643 379,562 180,-39 370,-61 567,-61 1187,0 1796,851 1796,1682 0,831 -685,1327 -1796,1327 -946,0 -1739,-488 -1954,-1146 -147,-407 -437,-437 -738,-359 -786,258 -1660,176 -2162,-222 -2159,-1714 228,-5227 2277,-4766z" style="fill:#8451b7"/>
  <path class="Head-Dog7fil14" d="M13682 14264c-1272,0 -1544,682 -1734,863 101,-448 565,-1247 1734,-1247l0 384z" style="fill:#7aebf0"/>
  <path class="Head-Dog7fil14" d="M13682 14264c1271,0 1543,682 1734,863 -101,-448 -565,-1247 -1734,-1247l0 384z" style="fill:#2a2f55"/>
 </g><g id="Mouth-Dog4">
 <animateTransform additive="sum" attributeName="transform" dur="10" repeatCount="indefinite" type="translate" values="0;0 200;0;0 200;0;0 200;0;0 200;0"/>
  <metadata id="CorelCorpID_184Corel-Layer"/>
  <path class="Mouth-Dog4fil22 Mouth-Dog4str0" d="M11816 15278c446,661 1840,429 1866,-392" style="fill:#22c0c6"/>
  <path class="Mouth-Dog4fil152 Mouth-Dog4str0" d="M12226 15571c14,-148 162,-409 254,-499 113,77 284,421 312,551 -126,56 -416,62 -566,-52z" style="fill:#ddeb88"/>
  <path class="Mouth-Dog4fil22 Mouth-Dog4str0" d="M15548 15278c-447,661 -1840,429 -1866,-392" style="fill:#e1d91b"/>
  <path class="Mouth-Dog4fil152 Mouth-Dog4str0" d="M15138 15571c-15,-148 -162,-409 -255,-499 -112,77 -283,421 -312,551 127,56 417,62 567,-52z" style="fill:#868d2d"/>
  <path class="Mouth-Dog4fil100" d="M13682 14886c70,357 344,687 744,822 -290,-65 -508,-85 -744,-85 -236,0 -454,20 -744,85 400,-135 674,-465 744,-822z" style="fill:#21d9d2"/>
 </g><g id="WeaponFlySwatter-Medium">
 <animateTransform additive="sum" attributeName="transform" dur="10" repeatCount="indefinite" type="translate" values="0;0 200;0;0 200;0;0 200;0;0 200;0"/>
  <metadata id="CorelCorpID_1Corel-Layer"/>
  <g id="_2367108401984">
   <path class="WeaponFlySwatter-Mediumfil2 WeaponFlySwatter-Mediumstr0" d="M12021 22875c-60,107 -120,214 -181,320 -796,-449 -1593,-899 -2390,-1348 -25,-155 36,-261 180,-320 797,449 1594,899 2391,1348z" style="fill:#5e22ae"/>
   <path class="WeaponFlySwatter-Mediumfil3" d="M11911 23070l-71 125c-796,-449 -1593,-899 -2390,-1348 -13,-83 -2,-151 33,-206l2428 1429z" style="fill:#d91462"/>
   <path class="WeaponFlySwatter-Mediumfil4" d="M15132 23138c18,9 34,17 47,25 244,135 344,347 329,601 -14,234 -129,505 -322,782 -47,68 -98,134 -152,200 -54,66 -110,129 -168,190 -241,251 -505,440 -763,538 -282,107 -559,110 -802,-25 -14,-8 -29,-17 -45,-28l-1620 -1038c-225,-145 -316,-292 -255,-521 53,-198 230,-454 546,-840 316,-385 540,-615 743,-729 237,-133 437,-118 684,-1l1778 846zm-2015 -717l-36 45 194 108 52 -64 -94 -44c-41,-20 -79,-34 -116,-45zm341 152l-57 70 194 108 67 -81 -204 -97zm335 159l-72 89 194 107 81 -99 -203 -97zm335 160l-88 106 195 108 96 -118 -203 -96zm335 159l-103 124 195 108 111 -135 -203 -97zm334 159l-117 143 194 108 127 -154 -204 -97zm324 173l-121 147 194 108 49 -60c-20,-76 -60,-142 -122,-195zm131 432l-14 -8 -130 158 91 50c25,-69 43,-136 53,-200zm-103 318l-123 -68 -129 158 157 87c36,-60 68,-119 95,-177zm-164 284l-170 -95 -130 158 180 100c37,-47 71,-93 103,-138 6,-8 12,-17 17,-25zm-201 262l-181 -100 -129 158 170 95c8,-8 15,-15 23,-23 39,-41 78,-84 117,-130zm-235 245l-157 -87 -130 158 123 68c55,-42 110,-89 164,-139zm-278 220l-91 -50 -129 158 13 8c69,-31 138,-70 207,-116zm-477 198l49 -60 -194 -108 -121 148c83,27 173,33 266,20zm-397 -84l127 -153 -195 -108 -117 143 185 118zm-305 -195l112 -136 -195 -108 -102 125 185 119zm-305 -196l97 -117 -194 -108 -88 106 185 119zm-305 -195l82 -100 -194 -107 -73 88 185 119zm-305 -196l67 -81 -194 -108 -58 70 185 119zm-304 -195l51 -63 -194 -108 -36 44c25,24 56,48 93,72l86 55zm-248 -374l61 34 130 -158 -109 -61c-40,70 -67,131 -82,185zm149 -293l124 69 129 -158 -136 -76c-45,60 -84,115 -117,165zm194 -266l141 78 130 -158 -143 -80c-46,56 -89,110 -128,160zm209 -259l144 79 130 -158 -141 -78c-42,49 -86,101 -133,157zm218 -254l137 76 130 -158 -124 -69c-45,45 -92,95 -143,151zm240 -242l109 61 130 -158 -61 -34c-55,31 -114,75 -178,131zm1843 1917l-194 -108 -130 158 194 108 130 -158zm-320 -178l-194 -107 -130 158 194 107 130 -158zm-320 -177l-194 -108 -130 158 194 108 130 -158zm-320 -177l-194 -108 -130 158 195 107 129 -157zm-319 -178l-195 -108 -130 158 195 108 130 -158zm-320 -177l-195 -108 -129 158 194 108 130 -158zm-320 -178l-194 -107 -130 157 194 108 130 -158zm-113 -207l195 108 129 -158 -194 -108 -130 158zm320 177l194 108 130 -158 -194 -107 -130 157zm320 178l194 108 130 -158 -194 -108 -130 158zm320 177l194 108 130 -158 -194 -108 -130 158zm320 178l194 107 130 -157 -195 -108 -129 158zm320 177l194 108 130 -158 -195 -108 -129 158zm319 178l195 107 129 -158 -194 -107 -130 158zm-1707 -1322l194 107 130 -158 -194 -107 -130 158zm320 177l194 108 130 -158 -195 -108 -129 158zm320 177l194 108 130 -158 -195 -107 -129 157zm319 178l195 108 129 -158 -194 -108 -130 158zm320 177l194 108 130 -158 -194 -108 -130 158zm320 178l194 107 130 -157 -194 -108 -130 158zm320 177l194 108 130 -158 -194 -108 -130 158zm-1708 -1322l195 108 129 -158 -194 -108 -130 158zm320 178l194 107 130 -158 -194 -107 -130 158zm320 177l194 108 130 -158 -194 -108 -130 158zm320 177l194 108 130 -158 -194 -107 -130 157zm320 178l194 108 130 -158 -195 -108 -129 158zm320 177l194 108 130 -158 -195 -108 -129 158zm319 178l195 107 129 -157 -194 -108 -130 158zm-2635 -193l-130 158 195 108 129 -158 -194 -108zm320 177l-130 158 194 108 130 -158 -194 -108zm320 178l-130 158 194 107 130 -157 -194 -108zm320 177l-130 158 194 108 130 -158 -194 -108zm319 178l-129 158 194 107 130 -158 -195 -107zm320 177l-129 158 194 108 130 -158 -195 -108zm320 177l-130 158 195 108 129 -158 -194 -108zm-2130 -807l-130 158 194 108 130 -158 -194 -108zm319 178l-129 158 194 107 130 -157 -195 -108zm320 177l-130 158 195 108 129 -158 -194 -108zm320 178l-130 158 195 107 129 -158 -194 -107zm320 177l-130 158 194 108 130 -158 -194 -108zm320 177l-130 158 194 108 130 -158 -194 -108zm320 178l-130 158 194 108 130 -158 -194 -108z" style="fill:#3d80e0"/>
   <path class="WeaponFlySwatter-Mediumfil1" d="M14481 25269c-125,88 -252,157 -378,205 -282,107 -559,110 -802,-25 -14,-8 -29,-17 -45,-28l-1620 -1038c-225,-145 -316,-292 -255,-521 53,-198 230,-454 546,-840 316,-385 540,-615 743,-729 237,-133 437,-118 684,-1l44 21c-232,65 -436,163 -608,285l84 -102 -61 -34c-55,31 -114,75 -178,131l92 51c-37,28 -71,57 -105,87l-84 -47c-45,45 -92,95 -143,151l81 45c-29,32 -56,65 -81,100l-85 -48c-42,49 -86,101 -133,157l107 59c-21,37 -40,75 -58,113l-130 -73c-46,56 -89,110 -128,160l141 78 94 -115c-48,113 -81,229 -100,345l-80 97 65 36c-1,13 -2,26 -2,39 -2,36 1,73 9,109l-153 -85 -130 158 194 108 103 -125c15,48 36,97 64,144l-41 51 123 68c114,144 280,282 473,408l-38 -22 -88 106 185 119 92 -111c41,23 83,46 126,69l-98 119 185 119 112 -136 -54 -30c254,122 524,220 774,285l1 1 0 -1c52,14 104,26 154,36l-28 34 13 8c22,-10 43,-20 64,-32 129,25 248,39 353,41zm-687 73l49 -60 -194 -108 -121 148c83,27 173,33 266,20zm-397 -84l127 -153 -195 -108 -117 143 185 118zm-915 -586l82 -100 -194 -107 -73 88 185 119zm-305 -196l67 -81 -194 -108 -58 70 185 119zm-304 -195l51 -63 -194 -108 -36 44c25,24 56,48 93,72l86 55zm-248 -374l61 34 130 -158 -109 -61c-40,70 -67,131 -82,185zm149 -293l124 69 129 -158 -136 -76c-45,60 -84,115 -117,165z" style="fill:#eb7fdf"/>
   <path class="WeaponFlySwatter-Mediumfil5 WeaponFlySwatter-Mediumstr1" d="M15132 23138c18,9 34,17 47,25 244,135 344,347 329,601 -14,234 -129,505 -322,782 -47,68 -98,134 -152,200 -54,66 -110,129 -168,190 -241,251 -505,440 -763,538 -282,107 -559,110 -802,-25 -14,-8 -29,-17 -45,-28l-1620 -1038c-225,-145 -316,-292 -255,-521 53,-198 230,-454 546,-840 316,-385 540,-615 743,-729 237,-133 437,-118 684,-1l1778 846z" style="fill:#bcfe79"/>
  </g>
 </g><g id="Eyes-Dog4">
 <animateTransform additive="sum" attributeName="transform" dur="10" repeatCount="indefinite" type="translate" values="0;0 200;0;0 200;0;0 200;0;0 200;0"/>
  <metadata id="CorelCorpID_193Corel-Layer"/>
  <g>
        <animateTransform additive="sum" attributeName="transform" dur="10" repeatCount="indefinite" type="translate" values="0;0;0;0;0;0;0;0;0;0;0;0;0;0;0;0;0;0;0;0;0;0;0;0;0;0;0;0;0;0;0;0;0;0;0;0;0;0;0;0;0;0;0;0;0;0;0;0;0;0;0;0;0;0;0;0;0;0;0;0;0;0;0;0;0;0;0;0;0;0;0;0;0;0;0;0;0;0;0;0;0;0;0;0;0;0;0;0;0;0;0 14300;0"/>
        <g>
            <g>
                <animateTransform additive="sum" attributeName="transform" dur="10" repeatCount="indefinite" type="scale" values="1;1;1;1;1;1;1;1;1;1;1;1;1;1;1;1;1;1;1;1;1;1;1;1;1;1;1;1;1;1;1;1;1;1;1;1;1;1;1;1;1;1;1;1;1;1;1;1;1;1;1;1;1;1;1;1;1;1;1;1;1;1;1;1;1;1;1;1;1;1;1;1;1;1;1;1;1;1;1;1;1;1;1;1;1;1;1;1;1;1;1 0.01;1"/> 
				        <path class="Eyes-Dog4fil362" d="M9238 14761c774,527 1990,76 2449,-260 807,-593 339,-2751 -661,-3075 -645,-210 -1334,-20 -1764,474 -908,1044 -574,2485 -24,2861z"/>
            </g>
            <g>
                <animateTransform additive="sum" attributeName="transform" dur="10" repeatCount="indefinite" type="scale" values="1;1;1;1;1;1;1;1;1;1;1;1;1;1;1;1;1;1;1;1;1;1;1;1;1;1;1;1;1;1;1;1;1;1;1;1;1;1;1;1;1;1;1;1;1;1;1;1;1;1;1;1;1;1;1;1;1;1;1;1;1;1;1;1;1;1;1;1;1;1;1;1;1;1;1;1;1;1;1;1;1;1;1;1;1;1;1;1;1;1;1 0.01;1"/> 
                <path class="Eyes-Dog4fil363" d="M11967 13307c-42,-885 -457,-1648 -1064,-1755 -546,-95 -1091,115 -1436,535 -580,704 -359,2023 148,2350 713,460 1465,178 1907,-90 243,-147 427,-541 445,-1040z"/>
                <path class="Eyes-Dog4fil364" d="M10409 11432c697,-163 1272,341 1437,1087 166,746 -141,1452 -838,1614 -698,163 -1397,-310 -1562,-1056 -166,-746 265,-1483 963,-1645z"/>
            </g>
            <g>
                <animateTransform additive="sum" attributeName="transform" dur="10" repeatCount="indefinite" type="translate" values="0;0;0;0;0;0;0;0;0;0;0;0;0;0;0;0;0;0;0;0;0;0;0;0;0;0;0;0;0;0;0;0;0;0;0;0;0;0;0;0;0;0;0;0;0;0;0;0;0;0;0;0;0;0;0;0;0;0;0;0;0;0;0;0;0;0;0;0;0;0;0;0;0;0;0;0;0;0;0;0;0;0;0;0;0;0;0;0;0;0;0 -14590;0"/>    
                <g>
                    <animateTransform additive="sum" attributeName="transform" dur="10" repeatCount="indefinite" type="translate" values="0;0;0;0;0;0;0;0;0;0;0;0;0;0;0;0;0;0;0;0;0;0;0;0;0;0;0;0;0;0;0;0;0;0;0;0;0;0;0;0;0;0;0;0;0;0;0;0;0;0;0;0;0;0;0;0;0;0;0;0;0;0;0;0;0;0;0;0;0;0;0;0;0;0;0;0;0;0;0;0;0;0;0;0;0;0;0;0;0;0;0;0 14000;0"/>
                    <g>
                        <animateTransform additive="sum" attributeName="transform" dur="10" repeatCount="indefinite" type="scale" values="1;1;1;1;1;1;1;1;1;1;1;1;1;1;1;1;1;1;1;1;1;1;1;1;1;1;1;1;1;1;1;1;1;1;1;1;1;1;1;1;1;1;1;1;1;1;1;1;1;1;1;1;1;1;1;1;1;1;1;1;1;1;1;1;1;1;1;1;1;1;1;1;1;1;1;1;1;1;1;1;1;1;1;1;1;1;1;1;1;1;1;1 0.05;1"/> 
                        <path class="Eyes-Dog4fil157" d="M12026 13978c257,-867 -202,-2293 -1000,-2552 -645,-210 -1334,-20 -1764,474 -292,335 -455,712 -524,1081 437,-844 1220,-1289 1860,-1185 911,149 1281,1079 1428,2182z"/>
                    </g>
                </g>
            </g>
            <g>
                <animateTransform additive="sum" attributeName="transform" dur="10" repeatCount="indefinite" type="translate" values="0;0;0;0;0;0;0;0;0;0;0;0;0;0;0;0;0;0;0;0;0;0;0;0;0;0;0;0;0;0;0;0;0;0;0;0;0;0;0;0;0;0;0;0;0;0;0;0;0;0;0;0;0;0;0;0;0;0;0;0;0;0;0;0;0;0;0;0;0;0;0;0;0;0;0;0;0;0;0;0;0;0;0;0;0;0;0;0;0;0;0 -14350;0"/>    
                <g>
                    <animateTransform additive="sum" attributeName="transform" dur="10" repeatCount="indefinite" type="translate" values="0;0;0;0;0;0;0;0;0;0;0;0;0;0;0;0;0;0;0;0;0;0;0;0;0;0;0;0;0;0;0;0;0;0;0;0;0;0;0;0;0;0;0;0;0;0;0;0;0;0;0;0;0;0;0;0;0;0;0;0;0;0;0;0;0;0;0;0;0;0;0;0;0;0;0;0;0;0;0;0;0;0;0;0;0;0;0;0;0;0;0;0;0 12970;0"/>
                    <g>
                        <animateTransform additive="sum" attributeName="transform" dur="10" repeatCount="indefinite" type="scale" values="1;1;1;1;1;1;1;1;1;1;1;1;1;1;1;1;1;1;1;1;1;1;1;1;1;1;1;1;1;1;1;1;1;1;1;1;1;1;1;1;1;1;1;1;1;1;1;1;1;1;1;1;1;1;1;1;1;1;1;1;1;1;1;1;1;1;1;1;1;1;1;1;1;1;1;1;1;1;1;1;1;1;1;1;1;1;1;1;1;1;1;1;1 0.1;1"/>
                        <circle class="Eyes-Dog4fil152" r="235" transform="matrix(0.392601 0.160549 -0.20751 0.481362 11516.9 13436.2)"/>
                        <circle class="Eyes-Dog4fil152" r="235" transform="matrix(0.554042 -1.05186 0.853042 0.366906 11505 13936.9)"/>
                    </g>
                </g>
            </g>
            <g>
                <animateTransform additive="sum" attributeName="transform" dur="10" repeatCount="indefinite" type="translate" values="0;0;0;0;0;0;0;0;0;0;0;0;0;0;0;0;0;0;0;0;0;0;0;0;0;0;0;0;0;0;0;0;0;0;0;0;0;0;0;0;0;0;0;0;0;0;0;0;0;0;0;0;0;0;0;0;0;0;0;0;0;0;0;0;0;0;0;0;0;0;0;0;0;0;0;0;0;0;0;0;0;0;0;0;0;0;0;0;0;0;0 -14300;0"/>    
                <g>
                    <animateTransform additive="sum" attributeName="transform" dur="10" repeatCount="indefinite" type="translate" values="0;0;0;0;0;0;0;0;0;0;0;0;0;0;0;0;0;0;0;0;0;0;0;0;0;0;0;0;0;0;0;0;0;0;0;0;0;0;0;0;0;0;0;0;0;0;0;0;0;0;0;0;0;0;0;0;0;0;0;0;0;0;0;0;0;0;0;0;0;0;0;0;0;0;0;0;0;0;0;0;0;0;0;0;0;0;0;0;0;0;0;0;0 12970;0"/>
                    <g>
                        <animateTransform additive="sum" attributeName="transform" dur="10" repeatCount="indefinite" type="scale" values="1;1;1;1;1;1;1;1;1;1;1;1;1;1;1;1;1;1;1;1;1;1;1;1;1;1;1;1;1;1;1;1;1;1;1;1;1;1;1;1;1;1;1;1;1;1;1;1;1;1;1;1;1;1;1;1;1;1;1;1;1;1;1;1;1;1;1;1;1;1;1;1;1;1;1;1;1;1;1;1;1;1;1;1;1;1;1;1;1;1;1;1;1 0.1;1"/>
                        <path class="Eyes-Dog4fil152" d="M9323 13827c343,-35 386,-152 407,-575 21,423 64,540 407,575 -343,35 -386,152 -407,576 -21,-424 -64,-541 -407,-576z"/>
                        <path class="Eyes-Dog4fil152" d="M9221 14256c142,-14 159,-62 168,-236 9,174 26,222 168,236 -142,15 -159,63 -168,237 -9,-174 -26,-222 -168,-237z"/>
                        <path class="Eyes-Dog4fil152" d="M9953 14036c62,-6 70,-28 74,-104 4,76 11,98 73,104 -62,6 -69,27 -73,104 -4,-77 -12,-98 -74,-104z"/>
                    </g>
                </g>
            </g>
            <g>
                <animateTransform additive="sum" attributeName="transform" dur="10" repeatCount="indefinite" type="translate" values="0;0;0;0;0;0;0;0;0;0;0;0;0;0;0;0;0;0;0;0;0;0;0;0;0;0;0;0;0;0;0;0;0;0;0;0;0;0;0;0;0;0;0;0;0;0;0;0;0;0;0;0;0;0;0;0;0;0;0;0;0;0;0;0;0;0;0;0;0;0;0;0;0;0;0;0;0;0;0;0;0;0;0;0;0;0;0;0;0;0;0 -13500;0"/>  
                <g>
                    <animateTransform additive="sum" attributeName="transform" dur="10" repeatCount="indefinite" type="translate" values="0;0;0;0;0;0;0;0;0;0;0;0;0;0;0;0;0;0;0;0;0;0;0;0;0;0;0;0;0;0;0;0;0;0;0;0;0;0;0;0;0;0;0;0;0;0;0;0;0;0;0;0;0;0;0;0;0;0;0;0;0;0;0;0;0;0;0;0;0;0;0;0;0;0;0;0;0;0;0;0;0;0;0;0;0;0;0;0;0;0;0;0 13000;0"/>
                    <g>
						<animateTransform additive="sum" attributeName="transform" dur="10" repeatCount="indefinite" type="scale" values="1;1;1;1;1;1;1;1;1;1;1;1;1;1;1;1;1;1;1;1;1;1;1;1;1;1;1;1;1;1;1;1;1;1;1;1;1;1;1;1;1;1;1;1;1;1;1;1;1;1;1;1;1;1;1;1;1;1;1;1;1;1;1;1;1;1;1;1;1;1;1;1;1;1;1;1;1;1;1;1;1;1;1;1;1;1;1;1;1;1;1;1 0.05;1"/>
                        <path class="Eyes-Dog4fil152" d="M11218 14324c62,-7 69,-28 73,-104 4,76 12,97 74,104 -62,6 -70,27 -74,104 -4,-77 -11,-98 -73,-104z"/>
                        <path class="Eyes-Dog4fil152" d="M11042 14114c62,-6 70,-27 73,-103 4,76 12,97 74,103 -62,7 -70,28 -74,104 -3,-76 -11,-97 -73,-104z"/>
                    </g>
                </g>
                <g>
                    <animateTransform additive="sum" attributeName="transform" dur="10" repeatCount="indefinite" type="translate" values="0;0;0;0;0;0;0;0;0;0;0;0;0;0;0;0;0;0;0;0;0;0;0;0;0;0;0;0;0;0;0;0;0;0;0;0;0;0;0;0;0;0;0;0;0;0;0;0;0;0;0;0;0;0;0;0;0;0;0;0;0;0;0;0;0;0;0;0;0;0;0;0;0;0;0;0;0;0;0;0;0;0;0;0;0;0;0;0;0;0;0;0 13150;0"/>
                    <g>
                        <animateTransform additive="sum" attributeName="transform" dur="10" repeatCount="indefinite" type="scale" values="1;1;1;1;1;1;1;1;1;1;1;1;1;1;1;1;1;1;1;1;1;1;1;1;1;1;1;1;1;1;1;1;1;1;1;1;1;1;1;1;1;1;1;1;1;1;1;1;1;1;1;1;1;1;1;1;1;1;1;1;1;1;1;1;1;1;1;1;1;1;1;1;1;1;1;1;1;1;1;1;1;1;1;1;1;1;1;1;1;1;1;1 0.05;1"/>
                        <circle class="Eyes-Dog4fil152" r="235" transform="matrix(1.00604 -1.81791 1.45034 0.651615 9752.16 12184.1)"/>
                    </g>
                </g> 
            </g>
			<g>
                <animateTransform additive="sum" attributeName="transform" dur="10" repeatCount="indefinite" type="scale" values="1;1;1;1;1;1;1;1;1;1;1;1;1;1;1;1;1;1;1;1;1;1;1;1;1;1;1;1;1;1;1;1;1;1;1;1;1;1;1;1;1;1;1;1;1;1;1;1;1;1;1;1;1;1;1;1;1;1;1;1;1;1;1;1;1;1;1;1;1;1;1;1;1;1;1;1;1;1;1;1;1;1;1;1;1;1;1;1;1;1;1 0.01;1"/> 
                <path class="Eyes-Dog4fil22 Eyes-Dog4str4" d="M9238 14761c774,527 1990,76 2449,-260 807,-593 339,-2751 -661,-3075 -645,-210 -1334,-20 -1764,474 -908,1044 -574,2485 -24,2861z"/>
            </g>
        </g>
    </g>
  <g>
    <animateTransform additive="sum" attributeName="transform" dur="10" repeatCount="indefinite" type="translate" values="0;0;0;0;0;0;0;0;0;0;0;0;0;0;0;0;0;0;0;0;0;0;0;0;0;0;0;0;0;0;0;0;0;0;0;0;0;0;0;0;0;0;0;0;0;0;0;0;0;0;0;0;0;0;0;0;0;0;0;0;0;0;0;0;0;0;0;0;0;0;0;0;0;0;0;0;0;0;0;0;0;0;0;0;0;0;0;0;0;0;0 14300;0"/>
    <g>
        <g>
            <animateTransform additive="sum" attributeName="transform" dur="10" repeatCount="indefinite" type="scale" values="1;1;1;1;1;1;1;1;1;1;1;1;1;1;1;1;1;1;1;1;1;1;1;1;1;1;1;1;1;1;1;1;1;1;1;1;1;1;1;1;1;1;1;1;1;1;1;1;1;1;1;1;1;1;1;1;1;1;1;1;1;1;1;1;1;1;1;1;1;1;1;1;1;1;1;1;1;1;1;1;1;1;1;1;1;1;1;1;1;1;1 0.01;1"/> 
            <path class="Eyes-Dog4fil365" d="M18126 14761c-774,527 -1991,76 -2449,-260 -807,-593 -340,-2751 661,-3075 645,-210 1334,-20 1764,474 908,1044 574,2485 24,2861z"/>
        </g>
        <g>
            <animateTransform additive="sum" attributeName="transform" dur="10" repeatCount="indefinite" type="scale" values="1;1;1;1;1;1;1;1;1;1;1;1;1;1;1;1;1;1;1;1;1;1;1;1;1;1;1;1;1;1;1;1;1;1;1;1;1;1;1;1;1;1;1;1;1;1;1;1;1;1;1;1;1;1;1;1;1;1;1;1;1;1;1;1;1;1;1;1;1;1;1;1;1;1;1;1;1;1;1;1;1;1;1;1;1;1;1;1;1;1;1 0.01;1"/> 
            <path class="Eyes-Dog4fil366" d="M15397 13307c42,-885 457,-1648 1064,-1755 545,-95 1091,115 1436,535 580,704 359,2023 -148,2350 -713,460 -1465,178 -1907,-90 -243,-147 -427,-541 -445,-1040z"/>
            <path class="Eyes-Dog4fil367" d="M16955 11432c-697,-163 -1272,341 -1437,1087 -166,746 141,1452 838,1614 697,163 1397,-310 1562,-1056 166,-746 -265,-1483 -963,-1645z"/>
        </g>
        <g>
            <animateTransform additive="sum" attributeName="transform" dur="10" repeatCount="indefinite" type="translate" values="0;0;0;0;0;0;0;0;0;0;0;0;0;0;0;0;0;0;0;0;0;0;0;0;0;0;0;0;0;0;0;0;0;0;0;0;0;0;0;0;0;0;0;0;0;0;0;0;0;0;0;0;0;0;0;0;0;0;0;0;0;0;0;0;0;0;0;0;0;0;0;0;0;0;0;0;0;0;0;0;0;0;0;0;0;0;0;0;0;0;0 -14590;0"/>    
            <g>
                <animateTransform additive="sum" attributeName="transform" dur="10" repeatCount="indefinite" type="translate" values="0;0;0;0;0;0;0;0;0;0;0;0;0;0;0;0;0;0;0;0;0;0;0;0;0;0;0;0;0;0;0;0;0;0;0;0;0;0;0;0;0;0;0;0;0;0;0;0;0;0;0;0;0;0;0;0;0;0;0;0;0;0;0;0;0;0;0;0;0;0;0;0;0;0;0;0;0;0;0;0;0;0;0;0;0;0;0;0;0;0;0;0 14000;0"/>
                <g>
                    <animateTransform additive="sum" attributeName="transform" dur="10" repeatCount="indefinite" type="scale" values="1;1;1;1;1;1;1;1;1;1;1;1;1;1;1;1;1;1;1;1;1;1;1;1;1;1;1;1;1;1;1;1;1;1;1;1;1;1;1;1;1;1;1;1;1;1;1;1;1;1;1;1;1;1;1;1;1;1;1;1;1;1;1;1;1;1;1;1;1;1;1;1;1;1;1;1;1;1;1;1;1;1;1;1;1;1;1;1;1;1;1;1 0.05;1"/> 
                    <path class="Eyes-Dog4fil157" d="M15338 13978c-257,-867 201,-2293 1000,-2552 645,-210 1334,-20 1764,474 292,335 455,712 524,1081 -437,-844 -1220,-1289 -1860,-1185 -911,149 -1282,1079 -1428,2182z"/>
                </g>
            </g>
        </g>
        <g>
            <animateTransform additive="sum" attributeName="transform" dur="10" repeatCount="indefinite" type="translate" values="0;0;0;0;0;0;0;0;0;0;0;0;0;0;0;0;0;0;0;0;0;0;0;0;0;0;0;0;0;0;0;0;0;0;0;0;0;0;0;0;0;0;0;0;0;0;0;0;0;0;0;0;0;0;0;0;0;0;0;0;0;0;0;0;0;0;0;0;0;0;0;0;0;0;0;0;0;0;0;0;0;0;0;0;0;0;0;0;0;0;0 -14350;0"/>    
            <g>
                <animateTransform additive="sum" attributeName="transform" dur="10" repeatCount="indefinite" type="translate" values="0;0;0;0;0;0;0;0;0;0;0;0;0;0;0;0;0;0;0;0;0;0;0;0;0;0;0;0;0;0;0;0;0;0;0;0;0;0;0;0;0;0;0;0;0;0;0;0;0;0;0;0;0;0;0;0;0;0;0;0;0;0;0;0;0;0;0;0;0;0;0;0;0;0;0;0;0;0;0;0;0;0;0;0;0;0;0;0;0;0;0;0;0 12970;0"/>
                <g>
                    <animateTransform additive="sum" attributeName="transform" dur="10" repeatCount="indefinite" type="scale" values="1;1;1;1;1;1;1;1;1;1;1;1;1;1;1;1;1;1;1;1;1;1;1;1;1;1;1;1;1;1;1;1;1;1;1;1;1;1;1;1;1;1;1;1;1;1;1;1;1;1;1;1;1;1;1;1;1;1;1;1;1;1;1;1;1;1;1;1;1;1;1;1;1;1;1;1;1;1;1;1;1;1;1;1;1;1;1;1;1;1;1;1;1 0.1;1"/>
                    <path class="Eyes-Dog4fil152" d="M16477 13804c-343,-35 -386,-152 -407,-575 -21,423 -64,540 -407,575 343,35 386,152 407,576 21,-424 64,-541 407,-576z"/>
                    <path class="Eyes-Dog4fil152" d="M15938 14153c-142,-14 -159,-62 -168,-237 -9,175 -26,223 -168,237 142,15 159,63 168,237 9,-174 26,-222 168,-237z"/>
                    <path class="Eyes-Dog4fil152" d="M16539 14145c-62,-6 -69,-28 -73,-104 -4,76 -12,98 -74,104 62,6 70,27 74,104 4,-77 11,-98 73,-104z"/>
                </g>
            </g>
        </g>
        <g>
            <animateTransform additive="sum" attributeName="transform" dur="10" repeatCount="indefinite" type="translate" values="0;0;0;0;0;0;0;0;0;0;0;0;0;0;0;0;0;0;0;0;0;0;0;0;0;0;0;0;0;0;0;0;0;0;0;0;0;0;0;0;0;0;0;0;0;0;0;0;0;0;0;0;0;0;0;0;0;0;0;0;0;0;0;0;0;0;0;0;0;0;0;0;0;0;0;0;0;0;0;0;0;0;0;0;0;0;0;0;0;0;0 -14300;0"/>    
            <g>
                <animateTransform additive="sum" attributeName="transform" dur="10" repeatCount="indefinite" type="translate" values="0;0;0;0;0;0;0;0;0;0;0;0;0;0;0;0;0;0;0;0;0;0;0;0;0;0;0;0;0;0;0;0;0;0;0;0;0;0;0;0;0;0;0;0;0;0;0;0;0;0;0;0;0;0;0;0;0;0;0;0;0;0;0;0;0;0;0;0;0;0;0;0;0;0;0;0;0;0;0;0;0;0;0;0;0;0;0;0;0;0;0;0;0 12970;0"/>
                <g>
                    <animateTransform additive="sum" attributeName="transform" dur="10" repeatCount="indefinite" type="scale" values="1;1;1;1;1;1;1;1;1;1;1;1;1;1;1;1;1;1;1;1;1;1;1;1;1;1;1;1;1;1;1;1;1;1;1;1;1;1;1;1;1;1;1;1;1;1;1;1;1;1;1;1;1;1;1;1;1;1;1;1;1;1;1;1;1;1;1;1;1;1;1;1;1;1;1;1;1;1;1;1;1;1;1;1;1;1;1;1;1;1;1;1;1 0.1;1"/>
                    <circle class="Eyes-Dog4fil152" r="235" transform="matrix(0.392601 0.160549 -0.20751 0.481362 17996.5 13474.7)"/>
                    <circle class="Eyes-Dog4fil152" r="235" transform="matrix(0.554042 -1.05186 0.853042 0.366906 17989.3 14052.3)"/>
                </g>
            </g>
        </g>
        <g>
            <animateTransform additive="sum" attributeName="transform" dur="10" repeatCount="indefinite" type="translate" values="0;0;0;0;0;0;0;0;0;0;0;0;0;0;0;0;0;0;0;0;0;0;0;0;0;0;0;0;0;0;0;0;0;0;0;0;0;0;0;0;0;0;0;0;0;0;0;0;0;0;0;0;0;0;0;0;0;0;0;0;0;0;0;0;0;0;0;0;0;0;0;0;0;0;0;0;0;0;0;0;0;0;0;0;0;0;0;0;0;0;0 -13500;0"/>  
            <g>
                <animateTransform additive="sum" attributeName="transform" dur="10" repeatCount="indefinite" type="translate" values="0;0;0;0;0;0;0;0;0;0;0;0;0;0;0;0;0;0;0;0;0;0;0;0;0;0;0;0;0;0;0;0;0;0;0;0;0;0;0;0;0;0;0;0;0;0;0;0;0;0;0;0;0;0;0;0;0;0;0;0;0;0;0;0;0;0;0;0;0;0;0;0;0;0;0;0;0;0;0;0;0;0;0;0;0;0;0;0;0;0;0;0 13000;0"/>
                <g>
                    <animateTransform additive="sum" attributeName="transform" dur="10" repeatCount="indefinite" type="scale" values="1;1;1;1;1;1;1;1;1;1;1;1;1;1;1;1;1;1;1;1;1;1;1;1;1;1;1;1;1;1;1;1;1;1;1;1;1;1;1;1;1;1;1;1;1;1;1;1;1;1;1;1;1;1;1;1;1;1;1;1;1;1;1;1;1;1;1;1;1;1;1;1;1;1;1;1;1;1;1;1;1;1;1;1;1;1;1;1;1;1;1;1 0.05;1"/>
                    <path class="Eyes-Dog4fil152" d="M17934 14519c-62,-7 -69,-28 -73,-104 -4,76 -12,97 -74,104 62,6 70,27 74,103 4,-76 11,-97 73,-103z"/>
                    <path class="Eyes-Dog4fil152" d="M17698 14259c-62,-7 -70,-28 -74,-104 -4,76 -12,97 -74,104 62,6 70,27 74,104 4,-77 12,-98 74,-104z"/>
                </g>
            </g>
            <g>
                <animateTransform additive="sum" attributeName="transform" dur="10" repeatCount="indefinite" type="translate" values="0;0;0;0;0;0;0;0;0;0;0;0;0;0;0;0;0;0;0;0;0;0;0;0;0;0;0;0;0;0;0;0;0;0;0;0;0;0;0;0;0;0;0;0;0;0;0;0;0;0;0;0;0;0;0;0;0;0;0;0;0;0;0;0;0;0;0;0;0;0;0;0;0;0;0;0;0;0;0;0;0;0;0;0;0;0;0;0;0;0;0;0 13150;0"/>
                <g>
                    <animateTransform additive="sum" attributeName="transform" dur="10" repeatCount="indefinite" type="scale" values="1;1;1;1;1;1;1;1;1;1;1;1;1;1;1;1;1;1;1;1;1;1;1;1;1;1;1;1;1;1;1;1;1;1;1;1;1;1;1;1;1;1;1;1;1;1;1;1;1;1;1;1;1;1;1;1;1;1;1;1;1;1;1;1;1;1;1;1;1;1;1;1;1;1;1;1;1;1;1;1;1;1;1;1;1;1;1;1;1;1;1;1 0.05;1"/>
                    <circle class="Eyes-Dog4fil152" r="235" transform="matrix(1.00604 -1.81791 1.45034 0.651615 16199.4 12184.1)"/>
                </g>
            </g> 
        </g>
        <g>
            <animateTransform additive="sum" attributeName="transform" dur="10" repeatCount="indefinite" type="scale" values="1;1;1;1;1;1;1;1;1;1;1;1;1;1;1;1;1;1;1;1;1;1;1;1;1;1;1;1;1;1;1;1;1;1;1;1;1;1;1;1;1;1;1;1;1;1;1;1;1;1;1;1;1;1;1;1;1;1;1;1;1;1;1;1;1;1;1;1;1;1;1;1;1;1;1;1;1;1;1;1;1;1;1;1;1;1;1;1;1;1;1 0.01;1"/> 
            <path class="Eyes-Dog4fil22 Eyes-Dog4str4" d="M18126 14761c-774,527 -1991,76 -2449,-260 -807,-593 -340,-2751 661,-3075 645,-210 1334,-20 1764,474 908,1044 574,2485 24,2861z"/>
        </g>
    </g>
</g>
<g>
            <animateTransform additive="sum" attributeName="transform" dur="10" repeatCount="indefinite" type="translate" values="0;0;0;0;0;0;0;0;0;0;0;0;0;0;0;0;0;0;0;0;0;0;0;0;0;0;0;0;0;0;0;0;0;0;0;0;0;0;0;0;0;0;0;0;0;0;0;0;0;0;0;0;0;0;0;0;0;0;0;0;0;0;0;0;0;0;0;0;0;0;0;0;0;0;0;0;0;0;0;0;0;0;0;0;0;0;0;0;0;0;3000 -2100;0"/>
            <g>
                <animateTransform additive="sum" attributeName="transform" dur="10" repeatCount="indefinite" type="rotate" values="0;0;0;0;0;0;0;0;0;0;0;0;0;0;0;0;0;0;0;0;0;0;0;0;0;0;0;0;0;0;0;0;0;0;0;0;0;0;0;0;0;0;0;0;0;0;0;0;0;0;0;0;0;0;0;0;0;0;0;0;0;0;0;0;0;0;0;0;0;0;0;0;0;0;0;0;0;0;0;0;0;0;0;0;0;0;0;0;0;0;10;0"/>
                <g>
                    <animateTransform additive="sum" attributeName="transform" dur="10" repeatCount="indefinite" type="translate" values="0;0;0;0;0;0;0;0;0;0;0;0;0;0;0;0;0;0;0;0;0;0;0;0;0;0;0;0;0;0;0;0;0;0;0;0;0;0;0;0;0;0;0;0;0;0;0;0;0;0;0;0;0;0;0;0;0;0;0;0;0;0;0;0;0;0;0;0;0;0;0;0;0;0;0;0;0;0;0;0;0;0;0;0;0;0;0;0;0;0;0 1500;0"/> 
                    <path class="Eyes-Dog4fil155" d="M10667 10175c-64,108 -462,201 -859,474 -365,250 -590,589 -760,563 -189,-28 -206,-429 -90,-643 96,-176 471,-454 904,-549 512,-114 881,25 805,155z"/>
                </g>
                <g>
                    <animateTransform additive="sum" attributeName="transform" dur="10" repeatCount="indefinite" type="translate" values="0;0;0;0;0;0;0;0;0;0;0;0;0;0;0;0;0;0;0;0;0;0;0;0;0;0;0;0;0;0;0;0;0;0;0;0;0;0;0;0;0;0;0;0;0;0;0;0;0;0;0;0;0;0;0;0;0;0;0;0;0;0;0;0;0;0;0;0;0;0;0;0;0;0;0;0;0;0;0;0;0;0;0;0;0;0;0;0;0;0;0 1500;0"/> 
                    <path class="Eyes-Dog4fil14" d="M10667 10175c-64,108 -462,201 -859,474 -365,250 -590,589 -760,563 -189,-28 -206,-429 -90,-643 96,-176 471,-454 904,-549 512,-114 881,25 805,155z"/>
                </g>
            </g>
        </g>  
        <g>
            <animateTransform additive="sum" attributeName="transform" dur="10" repeatCount="indefinite" type="translate" values="0;0;0;0;0;0;0;0;0;0;0;0;0;0;0;0;0;0;0;0;0;0;0;0;0;0;0;0;0;0;0;0;0;0;0;0;0;0;0;0;0;0;0;0;0;0;0;0;0;0;0;0;0;0;0;0;0;0;0;0;0;0;0;0;0;0;0;0;0;0;0;0;0;0;0;0;0;0;0;0;0;0;0;0;0;0;0;0;0;0;-2100 3000;0"/>
            <g>
                <animateTransform additive="sum" attributeName="transform" dur="10" repeatCount="indefinite" type="rotate" values="0;0;0;0;0;0;0;0;0;0;0;0;0;0;0;0;0;0;0;0;0;0;0;0;0;0;0;0;0;0;0;0;0;0;0;0;0;0;0;0;0;0;0;0;0;0;0;0;0;0;0;0;0;0;0;0;0;0;0;0;0;0;0;0;0;0;0;0;0;0;0;0;0;0;0;0;0;0;0;0;0;0;0;0;0;0;0;0;0;0;-10;0"/>
                <g>
                    <animateTransform additive="sum" attributeName="transform" dur="10" repeatCount="indefinite" type="translate" values="0;0;0;0;0;0;0;0;0;0;0;0;0;0;0;0;0;0;0;0;0;0;0;0;0;0;0;0;0;0;0;0;0;0;0;0;0;0;0;0;0;0;0;0;0;0;0;0;0;0;0;0;0;0;0;0;0;0;0;0;0;0;0;0;0;0;0;0;0;0;0;0;0;0;0;0;0;0;0;0;0;0;0;0;0;0;0;0;0;0;0 1500;0"/> 
                    <path class="Eyes-Dog4fil155" d="M16697 10175c64,108 462,201 859,474 365,250 590,589 760,563 188,-28 206,-429 90,-643 -96,-176 -471,-454 -904,-549 -512,-114 -882,25 -805,155z"/>
                </g>
                <g>
                    <animateTransform additive="sum" attributeName="transform" dur="10" repeatCount="indefinite" type="translate" values="0;0;0;0;0;0;0;0;0;0;0;0;0;0;0;0;0;0;0;0;0;0;0;0;0;0;0;0;0;0;0;0;0;0;0;0;0;0;0;0;0;0;0;0;0;0;0;0;0;0;0;0;0;0;0;0;0;0;0;0;0;0;0;0;0;0;0;0;0;0;0;0;0;0;0;0;0;0;0;0;0;0;0;0;0;0;0;0;0;0;0 1500;0"/> 
                    <path class="Eyes-Dog4fil14" d="M16697 10175c64,108 462,201 859,474 365,250 590,589 760,563 188,-28 206,-429 90,-643 -96,-176 -471,-454 -904,-549 -512,-114 -882,25 -805,155z"/>
                </g>
            </g>
        </g>
 </g><g id="Moustache-Dog0">
 <animateTransform additive="sum" attributeName="transform" dur="10" repeatCount="indefinite" type="translate" values="0;0 200;0;0 200;0;0 200;0;0 200;0"/>
  <metadata id="CorelCorpID_200Corel-Layer"/>
  <rect class="Moustache-Dog0fil22" height="487" width="487" x="13438" y="12949"/>
 </g><g id="Nose-Dog0">
 <animateTransform additive="sum" attributeName="transform" dur="10" repeatCount="indefinite" type="translate" values="0;0 200;0;0 200;0;0 200;0;0 200;0"/>
  <metadata id="CorelCorpID_208Corel-Layer"/>
  <path class="Nose-Dog0fil416 Nose-Dog0str0" d="M13682 14020c-283,0 -678,136 -648,338 28,185 288,481 648,481 360,0 620,-296 648,-481 30,-202 -365,-338 -648,-338z" style="fill:#375030"/>
 </g><g id="HatGlasses-Medium">
 <animateTransform additive="sum" attributeName="transform" dur="10" repeatCount="indefinite" type="translate" values="0;0 200;0;0 200;0;0 200;0;0 200;0"/>
  <metadata id="CorelCorpID_76Corel-Layer"/>
  <path class="HatGlasses-Mediumfil571new" d="M8680 12704c1150,-166 2288,-123 3366,168 307,83 391,317 416,508 48,358 12,716 -136,1074 -74,178 -212,284 -403,308 -958,123 -1885,116 -2875,-52 -224,-38 -348,-146 -466,-350 -231,-401 -329,-779 -336,-1170 -5,-283 174,-449 434,-486z" style="fill:#f6ffe7"/>
  <path class="HatGlasses-Mediumfil572new" d="M8680 12704c1150,-166 2288,-123 3366,168 307,83 391,317 416,508 48,358 12,716 -136,1074 -35,84 -84,152 -146,202 96,-539 55,-993 -433,-1409 -533,-456 -2618,-699 -3446,-306 72,-132 208,-213 379,-237z" style="fill:#0c027f"/>
  <path class="HatGlasses-Mediumfil571new" d="M18684 12704c-1150,-166 -2288,-123 -3366,168 -307,83 -391,317 -417,508 -48,358 -11,716 137,1074 74,178 212,284 403,308 958,123 1885,116 2875,-52 224,-38 348,-146 466,-350 231,-401 329,-779 336,-1170 5,-283 -174,-449 -434,-486z" style="fill:#5fd2f0"/>
  <path class="HatGlasses-Mediumfil572new" d="M18684 12704c-1150,-166 -2288,-123 -3366,168 -196,53 -301,167 -358,293 710,-514 2961,-429 3462,-51 447,338 331,942 100,1527 106,-59 184,-150 260,-281 231,-401 329,-779 336,-1170 5,-283 -174,-449 -434,-486z" style="fill:#89af79"/>
  <path class="HatGlasses-Mediumfil707new" d="M18666 12827c-576,-83 -1149,-113 -1711,-85 -545,28 -1082,110 -1605,251 -120,32 -195,92 -242,162 -50,74 -72,162 -83,241 -23,168 -25,337 -5,506 21,169 64,337 133,505 28,68 68,121 118,160 50,38 112,62 185,72 474,61 939,89 1409,82 468,-8 941,-51 1431,-134 90,-16 159,-44 217,-89 59,-46 110,-112 161,-200 110,-191 188,-376 240,-561 51,-183 76,-365 80,-549 1,-103 -28,-184 -80,-242 -56,-64 -143,-104 -248,-119zm-10004 -247c591,-85 1179,-116 1759,-87 562,28 1115,112 1652,257 470,106 1176,265 1609,265 433,0 1139,-159 1609,-265 537,-145 1090,-229 1652,-257 580,-29 1168,2 1759,87 163,24 302,91 399,200 92,103 145,242 142,412 -4,207 -32,409 -89,613 -57,202 -143,407 -264,617 -67,116 -137,206 -225,274 -90,70 -195,114 -328,137 -501,85 -986,129 -1469,137 -481,7 -958,-22 -1443,-84 -118,-15 -220,-56 -305,-121 -85,-65 -152,-153 -197,-263 -78,-189 -127,-378 -150,-567 -96,-432 -602,-640 -1091,-640 -489,0 -996,208 -1091,640 -23,189 -72,378 -150,567 -45,110 -112,198 -197,263 -85,65 -187,106 -305,121 -485,62 -962,91 -1444,84 -482,-8 -968,-52 -1468,-137 -133,-23 -238,-67 -328,-137 -88,-68 -158,-158 -225,-274 -121,-210 -207,-415 -264,-617 -57,-204 -85,-406 -89,-613 -3,-170 50,-309 142,-412 97,-109 236,-176 399,-200zm1747 162c-563,-28 -1135,2 -1712,85 -104,15 -191,55 -247,119 -52,58 -82,139 -80,242 3,184 28,366 80,549 52,185 130,370 240,561 51,88 102,154 161,200 57,45 127,73 217,89 490,83 963,126 1431,134 469,7 935,-21 1409,-82 72,-10 135,-34 185,-72 50,-39 89,-92 118,-160 69,-168 112,-336 133,-505 20,-169 17,-338 -5,-506 -11,-79 -33,-167 -83,-241 -47,-70 -122,-130 -242,-162 -523,-141 -1060,-223 -1605,-251z" style="fill:#171632"/>
 </g><g id="Hair-Dog4">
 <animateTransform additive="sum" attributeName="transform" dur="10" repeatCount="indefinite" type="translate" values="0;0 200;0;0 200;0;0 200;0;0 200;0"/>
  <metadata id="CorelCorpID_213Corel-Layer"/>
  <path class="Hair-Dog4fil420 Hair-Dog4str0" d="M10980 8153c823,-114 749,589 1586,377 1667,-424 494,1566 1970,1445 584,-47 278,950 1058,1181 279,82 948,162 1286,-437 -1004,-311 -216,-914 -117,-1367 261,-1185 -743,-821 -664,-1772 83,-1011 -1592,-2441 -2995,-1401 -1147,852 -1830,69 -2124,1974z" style="fill:#a115e5"/>
  <path class="Hair-Dog4fil14" d="M10980 8153c823,-114 749,589 1586,377 1667,-424 494,1566 1970,1445 584,-47 278,950 1058,1181 273,81 924,159 1267,-404 -468,123 -1146,154 -1390,-458 -673,-1682 -1238,-444 -1422,-1443 -283,-1533 -1190,-576 -2000,-1040 -417,-238 -670,126 -1065,315 -1,9 -3,18 -4,27z" style="fill:#29984d"/>
 </g></svg>