<svg xmlns="http://www.w3.org/2000/svg" xmlns:xlink="http://www.w3.org/1999/xlink" style="shape-rendering:geometricPrecision; text-rendering:geometricPrecision; image-rendering:optimizeQuality; fill-rule:evenodd; clip-rule:evenodd" version="1.1" viewBox="0 0 29000 29000" xml:space="preserve"><defs><style type="text/css">.HairBack-Dog0fil22 {fill:none}
.Tail-Dog0fil232 {fill:url(#Tail-Dog0id975)}
.Tail-Dog0str0 {stroke:black;stroke-width:150;stroke-linecap:round;stroke-linejoin:round}
.RightFoot-Dog0fil26 {fill:#f8f3f3}
.RightFoot-Dog0fil14 {fill:black;fill-opacity:0.200000}
.RightFoot-Dog0fil22 {fill:none}
.RightFoot-Dog0fil32 {fill:black;fill-rule:nonzero}
.RightLeg-Dog0fil243 {fill:url(#RightLeg-Dog0id281)}
.RightLeg-Dog0fil32 {fill:black;fill-rule:nonzero}
.RightLeg-Dog0fil14 {fill:black;fill-opacity:0.200000}
.LeftFoot-Dog0fil26 {fill:#f8f3f3}
.LeftFoot-Dog0fil14 {fill:black;fill-opacity:0.200000}
.LeftFoot-Dog0fil22 {fill:none}
.LeftFoot-Dog0fil32 {fill:black;fill-rule:nonzero}
.LeftLeg-Dog0fil249 {fill:url(#LeftLeg-Dog0id285)}
.LeftLeg-Dog0fil32 {fill:black;fill-rule:nonzero}
.LeftLeg-Dog0fil14 {fill:black;fill-opacity:0.200000}
.RightHand-Dog3fil255 {fill:url(#RightHand-Dog3id169)}
.RightHand-Dog3fil32 {fill:black;fill-rule:nonzero}
.RightHand-Dog3fil14 {fill:black;fill-opacity:0.200000}
.RightPaw-Dog1fil26 {fill:#f8f3f3}
.RightPaw-Dog1fil14 {fill:black;fill-opacity:0.200000}
.RightPaw-Dog1fil32 {fill:black;fill-rule:nonzero}
.LeftHand-Dog3fil263 {fill:url(#LeftHand-Dog3id359)}
.LeftHand-Dog3fil32 {fill:black;fill-rule:nonzero}
.LeftHand-Dog3fil14 {fill:black;fill-opacity:0.200000}
.LeftPaw-Dog1fil26 {fill:#f8f3f3}
.LeftPaw-Dog1fil14 {fill:black;fill-opacity:0.200000}
.LeftPaw-Dog1fil32 {fill:black;fill-rule:nonzero}
.Body-Dog2fil267 {fill:url(#Body-Dog2id28)}
.Body-Dog2fil14 {fill:black;fill-opacity:0.200000}
.Body-Dog2fil32 {fill:black;fill-rule:nonzero}
.Body-Dog2fil270 {fill:url(#Body-Dog2id279)}
.Ears-Dog5fil14 {fill:black;fill-opacity:0.200000}
.Ears-Dog5fil155 {fill:#807256}
.Ears-Dog5str4 {stroke:black;stroke-width:150}
.Ears-Dog5fil296 {fill:url(#Ears-Dog5id709)}
.Ears-Dog5str0 {stroke:black;stroke-width:150;stroke-linecap:round;stroke-linejoin:round}
.Ears-Dog5fil297 {fill:url(#Ears-Dog5id710)}
.Head-Dog0fil330 {fill:url(#Head-Dog0id327)}
.Head-Dog0fil14 {fill:black;fill-opacity:0.200000}
.Head-Dog0fil331 {fill:url(#Head-Dog0id277)}
.Head-Dog0fil32 {fill:black;fill-rule:nonzero}
.Mouth-Dog4fil100 {fill:black}
.Mouth-Dog4fil22 {fill:none}
.Mouth-Dog4str0 {stroke:black;stroke-width:150;stroke-linecap:round;stroke-linejoin:round}
.Mouth-Dog4fil152 {fill:white}
.Eyes-Dog10fil398 {fill:url(#Eyes-Dog10id811)}
.Eyes-Dog10fil399 {fill:url(#Eyes-Dog10id877)}
.Eyes-Dog10fil400 {fill:url(#Eyes-Dog10id885)}
.Eyes-Dog10fil152 {fill:white}
.Eyes-Dog10fil157 {fill:black;fill-opacity:0.501961}
.Eyes-Dog10fil401 {fill:url(#Eyes-Dog10id810)}
.Eyes-Dog10fil402 {fill:url(#Eyes-Dog10id876)}
.Eyes-Dog10fil403 {fill:url(#Eyes-Dog10id884)}
.Eyes-Dog10fil155 {fill:#807256}
.Eyes-Dog10fil14 {fill:black;fill-opacity:0.200000}
.Eyes-Dog10fil22 {fill:none}
.Eyes-Dog10str4 {stroke:black;stroke-width:150}
.Moustache-Dog0fil22 {fill:none}
.Nose-Dog0fil416 {fill:url(#Nose-Dog0id907)}
.Nose-Dog0str0 {stroke:black;stroke-width:150;stroke-linecap:round;stroke-linejoin:round}
.Hair-Dog0fil22 {fill:none}
</style><linearGradient gradientUnits="userSpaceOnUse" id="Tail-Dog0id975" x1="13346.4" x2="17446.1" xlink:href="#Tail-Dog0id74" y1="22493.3" y2="22652.2">
  </linearGradient><linearGradient gradientUnits="userSpaceOnUse" id="RightLeg-Dog0id281" x1="15476.3" x2="15476.3" xlink:href="#RightLeg-Dog0id19" y1="24199" y2="20934.6">
  </linearGradient><linearGradient gradientUnits="objectBoundingBox" id="LeftLeg-Dog0id285" x1="50%" x2="50%" xlink:href="#LeftLeg-Dog0id19" y1="100%" y2="0%">
  </linearGradient><linearGradient gradientUnits="userSpaceOnUse" id="RightHand-Dog3id169" x1="16241.5" x2="18031.9" xlink:href="#RightHand-Dog3id168" y1="17938.5" y2="20524.1">
  </linearGradient><linearGradient gradientUnits="userSpaceOnUse" id="LeftHand-Dog3id359" x1="11122.3" x2="9331.95" xlink:href="#LeftHand-Dog3id168" y1="17938.5" y2="20524.1">
  </linearGradient><linearGradient gradientUnits="objectBoundingBox" id="Body-Dog2id28" x1="50%" x2="50%" y1="0%" y2="100%">
   <stop offset="0" style="stop-opacity:1; stop-color:#5e594b"/>
   <stop offset="0.101961" style="stop-opacity:1; stop-color:#5e594b"/>
   <stop offset="0.521569" style="stop-opacity:1; stop-color:#847e70"/>
   <stop offset="1" style="stop-opacity:1; stop-color:#9e9e9e"/>
  </linearGradient><linearGradient gradientUnits="userSpaceOnUse" id="Body-Dog2id279" x1="13696.6" x2="13696.6" y1="17098.5" y2="22390.1">
   <stop offset="0" style="stop-opacity:1; stop-color:#ebdada"/>
   <stop offset="0.14902" style="stop-opacity:1; stop-color:#ebdada"/>
   <stop offset="0.619608" style="stop-opacity:1; stop-color:#f8f3f3"/>
   <stop offset="1" style="stop-opacity:1; stop-color:#f8f3f3"/>
  </linearGradient><linearGradient gradientUnits="userSpaceOnUse" id="Ears-Dog5id709" x1="5527.49" x2="10467.9" xlink:href="#Ears-Dog5id18" y1="9150.43" y2="15078.9">
  </linearGradient><linearGradient gradientUnits="userSpaceOnUse" id="Ears-Dog5id710" x1="21836.3" x2="16895.9" xlink:href="#Ears-Dog5id18" y1="9150.43" y2="15078.9">
  </linearGradient><linearGradient gradientUnits="objectBoundingBox" id="Head-Dog0id327" x1="50%" x2="50%" xlink:href="#Head-Dog0id35" y1="99.9999%" y2="0%">
  </linearGradient><linearGradient gradientUnits="userSpaceOnUse" id="Head-Dog0id277" x1="13681.9" x2="13681.9" xlink:href="#Head-Dog0id132" y1="16985.2" y2="9774.7">
  </linearGradient><linearGradient gradientUnits="userSpaceOnUse" id="Eyes-Dog10id811" x1="10548.9" x2="10170.7" xlink:href="#Eyes-Dog10id27" y1="14845.3" y2="11518.7">
  </linearGradient><linearGradient gradientUnits="userSpaceOnUse" id="Eyes-Dog10id877" x1="9092.22" x2="12133.7" xlink:href="#Eyes-Dog10id57" y1="12896.4" y2="13213">
  </linearGradient><linearGradient gradientUnits="userSpaceOnUse" id="Eyes-Dog10id885" x1="10842.9" x2="10616.8" xlink:href="#Eyes-Dog10id384" y1="11722.2" y2="14210.2">
  </linearGradient><linearGradient gradientUnits="userSpaceOnUse" id="Eyes-Dog10id810" x1="16814.9" x2="17193.1" xlink:href="#Eyes-Dog10id27" y1="14845.3" y2="11518.7">
  </linearGradient><linearGradient gradientUnits="userSpaceOnUse" id="Eyes-Dog10id876" x1="18271.6" x2="15230.2" xlink:href="#Eyes-Dog10id57" y1="12896.4" y2="13213">
  </linearGradient><linearGradient gradientUnits="userSpaceOnUse" id="Eyes-Dog10id884" x1="16520.9" x2="16747.1" xlink:href="#Eyes-Dog10id384" y1="11722.2" y2="14210.2">
  </linearGradient><linearGradient gradientUnits="userSpaceOnUse" id="Nose-Dog0id907" x1="13681.9" x2="13681.9" xlink:href="#Nose-Dog0id451" y1="14020.2" y2="14838.5">
  </linearGradient><linearGradient gradientUnits="userSpaceOnUse" id="Tail-Dog0id74" x1="15961" x2="18418.2" y1="23174.1" y2="17871.9">
   <stop offset="0" style="stop-opacity:1; stop-color:#5e594b"/>
   <stop offset="1" style="stop-opacity:1; stop-color:#847e70"/>
  </linearGradient><linearGradient gradientUnits="userSpaceOnUse" id="RightLeg-Dog0id19" x1="15490.3" x2="15490.3" y1="24284.1" y2="21188.2">
   <stop offset="0" style="stop-opacity:1; stop-color:#9e9e9e"/>
   <stop offset="0.439216" style="stop-opacity:1; stop-color:#9e9e9e"/>
   <stop offset="1" style="stop-opacity:1; stop-color:#847e70"/>
  </linearGradient><linearGradient gradientUnits="userSpaceOnUse" id="LeftLeg-Dog0id19" x1="15490.3" x2="15490.3" y1="24284.1" y2="21188.2">
   <stop offset="0" style="stop-opacity:1; stop-color:#9e9e9e"/>
   <stop offset="0.439216" style="stop-opacity:1; stop-color:#9e9e9e"/>
   <stop offset="1" style="stop-opacity:1; stop-color:#847e70"/>
  </linearGradient><linearGradient gradientUnits="objectBoundingBox" id="RightHand-Dog3id168" x1="19.8228%" x2="80.1772%" y1="10.3299%" y2="89.6698%">
   <stop offset="0" style="stop-opacity:1; stop-color:#5e594b"/>
   <stop offset="0.0196078" style="stop-opacity:1; stop-color:#5e594b"/>
   <stop offset="0.721569" style="stop-opacity:1; stop-color:#847e70"/>
   <stop offset="1" style="stop-opacity:1; stop-color:#847e70"/>
  </linearGradient><linearGradient gradientUnits="objectBoundingBox" id="LeftHand-Dog3id168" x1="19.8228%" x2="80.1772%" y1="10.3299%" y2="89.6698%">
   <stop offset="0" style="stop-opacity:1; stop-color:#5e594b"/>
   <stop offset="0.0196078" style="stop-opacity:1; stop-color:#5e594b"/>
   <stop offset="0.721569" style="stop-opacity:1; stop-color:#847e70"/>
   <stop offset="1" style="stop-opacity:1; stop-color:#847e70"/>
  </linearGradient><linearGradient gradientUnits="userSpaceOnUse" id="Ears-Dog5id18" x1="10235.1" x2="10235.1" y1="19681.2" y2="17649.5">
   <stop offset="0" style="stop-opacity:1; stop-color:#a69980"/>
   <stop offset="1" style="stop-opacity:1; stop-color:#807256"/>
  </linearGradient><linearGradient gradientUnits="userSpaceOnUse" id="Head-Dog0id35" x1="13681.9" x2="13681.9" y1="17936.7" y2="7484.8">
   <stop offset="0" style="stop-opacity:1; stop-color:#5e594b"/>
   <stop offset="0.4" style="stop-opacity:1; stop-color:#847e70"/>
   <stop offset="1" style="stop-opacity:1; stop-color:#9e9e9e"/>
  </linearGradient><linearGradient gradientUnits="userSpaceOnUse" id="Head-Dog0id132" x1="13664.7" x2="13664.7" y1="17953.2" y2="22866.3">
   <stop offset="0" style="stop-opacity:1; stop-color:#ebdada"/>
   <stop offset="0.341176" style="stop-opacity:1; stop-color:#f8f3f3"/>
   <stop offset="1" style="stop-opacity:1; stop-color:#f8f3f3"/>
  </linearGradient><linearGradient gradientUnits="userSpaceOnUse" id="Eyes-Dog10id27" x1="16937.6" x2="16937.6" y1="14961.3" y2="11448.6">
   <stop offset="0" style="stop-opacity:1; stop-color:#598000"/>
   <stop offset="1" style="stop-opacity:1; stop-color:black"/>
  </linearGradient><linearGradient gradientUnits="objectBoundingBox" id="Eyes-Dog10id57" x1="100%" x2="0%" y1="50.0003%" y2="50.0003%">
   <stop offset="0" style="stop-opacity:1; stop-color:#598000"/>
   <stop offset="0.501961" style="stop-opacity:1; stop-color:#b1ff00"/>
   <stop offset="1" style="stop-opacity:1; stop-color:#598000"/>
  </linearGradient><linearGradient gradientUnits="userSpaceOnUse" id="Eyes-Dog10id384" x1="16417.8" x2="16417.8" y1="11784.3" y2="14068.5">
   <stop offset="0" style="stop-opacity:1; stop-color:black"/>
   <stop offset="0.45" style="stop-opacity:1; stop-color:black"/>
   <stop offset="1" style="stop-opacity:1; stop-color:#476600"/>
  </linearGradient><linearGradient gradientUnits="userSpaceOnUse" id="Nose-Dog0id451" x1="13653.8" x2="13653.8" y1="14108.6" y2="14926.9">
   <stop offset="0" style="stop-opacity:1; stop-color:#FFCCCC"/>
   <stop offset="1" style="stop-opacity:1; stop-color:#453F2C"/>
  </linearGradient></defs><g id="HairBack-Dog0">
 <animateTransform additive="sum" attributeName="transform" dur="10" repeatCount="indefinite" type="translate" values="0;0 200;0;0 200;0;0 200;0;0 200;0"/>
  <metadata id="CorelCorpID_115Corel-Layer"/>
  <rect class="HairBack-Dog0fil22" height="890" width="890" x="13237" y="6590"/>
 </g><g id="Tail-Dog0">
  <metadata id="CorelCorpID_118Corel-Layer"/>
  <path class="Tail-Dog0fil232 Tail-Dog0str0" d="M14281 21032c694,1107 2088,1954 2645,1939 264,-7 743,-89 618,-552 -32,-119 -180,-234 -362,-164 141,-241 541,-142 653,-71 507,324 413,1095 32,1472 -780,771 -4043,1068 -5242,-1463 -197,-294 1379,-1599 1656,-1161z" style="fill:#ead05d"/>
 </g><g id="RightFoot-Dog0">
  <metadata id="CorelCorpID_125Corel-Layer"/>
  <path class="RightFoot-Dog0fil26" d="M17461 25232c-144,249 -469,331 -709,123 -82,82 -321,169 -611,76 -475,-152 -678,-627 -1088,-897 -209,-138 -43,-480 -31,-702 205,68 639,20 960,-216 332,-245 1043,-199 820,325 153,50 376,135 488,193 178,92 308,217 397,350 166,246 124,748 -226,748z" style="fill:#d8100e"/>
  <path class="RightFoot-Dog0fil14" d="M17461 25232c-144,249 -469,331 -709,123 -82,82 -321,169 -611,76 -475,-152 -678,-627 -1088,-897 -182,-120 -106,-408 -68,-624 13,30 66,32 88,19 2,85 -1,160 50,261 317,621 1468,1311 1612,663 247,396 693,243 634,-148 151,250 332,57 232,-294 150,96 185,309 179,486 -21,178 -124,335 -319,335z" style="fill:#7cff7c"/>
  <path class="RightFoot-Dog0fil22" d="M16741 23949c560,135 807,327 949,532 170,244 121,751 -229,751 -144,249 -469,331 -709,123 -82,82 -321,169 -611,76 -475,-152 -614,-562 -1018,-844 -201,-140 -166,-401 -134,-554" style="fill:#1715bf"/>
  <path class="RightFoot-Dog0fil32" d="M17378 25213c0,3 0,7 0,10 -59,86 -148,149 -252,169 -84,16 -174,3 -257,-45l-12 -8c47,-255 19,-572 -334,-636 167,118 191,399 163,611 -41,33 -116,65 -215,77 -89,11 -194,6 -307,-31 -265,-85 -423,-261 -589,-447 -277,-311 -611,-400 -512,-864 8,-41 -28,-86 -58,-89 -24,-2 -80,17 -89,58 -91,430 90,572 327,781 71,62 146,130 221,214 180,201 350,392 654,490 137,43 264,50 371,37 108,-13 199,-49 262,-89l3 0c116,81 258,115 400,88 143,-28 268,-114 349,-234 151,-15 258,-113 313,-251 29,-74 44,-157 44,-240 0,-135 -38,-275 -108,-376 -77,-110 -181,-216 -341,-313 -143,-86 -331,-165 -584,-231 -71,-19 -105,8 -131,48 -23,34 -14,70 26,80 271,65 468,144 612,231 139,84 229,176 295,271 53,76 81,183 81,290 0,66 -11,130 -33,185 -25,64 -65,112 -119,138 13,-317 -128,-634 -466,-624 219,111 313,298 286,700z" style="fill:#5055e9"/>
 </g><g id="LeftFoot-Dog0">
  <metadata id="CorelCorpID_133Corel-Layer"/>
  <path class="LeftFoot-Dog0fil26" d="M9847 25232c143,249 468,331 709,123 82,82 321,169 611,76 475,-152 678,-627 1088,-897 208,-138 43,-480 31,-702 -240,73 -640,20 -960,-216 -332,-245 -1043,-199 -821,325 -152,50 -375,135 -487,193 -178,92 -308,217 -398,350 -165,246 -124,748 227,748z" style="fill:#d210ab"/>
  <path class="LeftFoot-Dog0fil14" d="M9847 25232c143,249 468,331 709,123 82,82 321,169 611,76 475,-152 678,-627 1088,-897 181,-120 105,-408 68,-624 -13,30 -66,32 -88,19 -2,85 1,160 -50,261 -318,621 -1468,1311 -1612,663 -248,396 -693,243 -634,-148 -151,250 -333,57 -232,-294 -150,96 -186,309 -179,486 20,178 124,335 319,335z" style="fill:#e7ea94"/>
  <path class="LeftFoot-Dog0fil22" d="M10566 23949c-559,135 -807,327 -949,532 -169,244 -121,751 230,751 143,249 468,331 709,123 82,82 321,169 611,76 475,-152 614,-562 1017,-844 201,-140 167,-401 134,-554" style="fill:#5909d4"/>
  <path class="LeftFoot-Dog0fil32" d="M9929 25213c1,3 1,7 0,10 59,86 149,149 253,169 84,16 174,3 257,-45l12 -8c-48,-255 -19,-572 333,-636 -166,118 -190,399 -162,611 41,33 116,65 215,77 89,11 193,6 307,-31 265,-85 423,-261 588,-447 278,-311 612,-400 513,-864 -9,-41 27,-86 58,-89 23,-2 80,17 88,58 119,558 -222,630 -547,995 -180,201 -351,392 -655,490 -137,43 -263,50 -370,37 -109,-13 -200,-49 -262,-89l-3 0c-116,81 -259,115 -401,88 -143,-28 -267,-114 -348,-234 -151,-15 -258,-113 -313,-251 -30,-74 -44,-157 -44,-240 0,-135 38,-275 108,-376 76,-110 181,-216 341,-313 142,-86 330,-165 584,-231 71,-19 105,8 131,48 22,34 14,70 -26,80 -271,65 -468,144 -612,231 -139,84 -230,176 -295,271 -53,76 -81,183 -81,290 0,66 11,130 32,185 26,64 65,112 120,138 -13,-317 128,-634 466,-624 -219,111 -313,298 -287,700z" style="fill:#d3b987"/>
 </g><g id="RightLeg-Dog0">
  <metadata id="CorelCorpID_128Corel-Layer"/>
  <path class="RightLeg-Dog0fil243" d="M13654 20939c701,0 2353,-56 2710,226 302,239 937,901 935,1761 -2,445 -277,1009 -1000,1266 -472,76 -697,-507 -1295,-235 60,-709 -911,-790 -1350,-797l0 -2221z" style="fill:#87a153"/>
  <path class="RightLeg-Dog0fil32" d="M15057 24610c33,25 62,27 88,-6 25,-32 18,-79 -15,-104 -85,-66 -111,-236 -89,-338 34,-163 71,-342 -66,-579 0,-1 -1,-3 -2,-4 -100,-171 -247,-296 -460,-378 -208,-80 -506,-119 -859,-119l0 150c335,0 616,36 805,108 180,69 302,173 385,314 0,2 1,3 2,4 108,188 77,337 48,473 -32,154 43,385 163,479zm1227 -3463c175,139 478,451 693,860 144,272 248,587 247,919 -1,245 -87,464 -218,653 -154,223 -427,476 -707,613 326,-17 760,-427 830,-528 147,-211 244,-458 244,-738 2,-360 -110,-698 -263,-989 -227,-430 -547,-760 -734,-907l-92 117z" style="fill:#e71bf4"/>
  <path class="RightLeg-Dog0fil14" d="M17192 23390c67,-148 106,-305 107,-464 2,-775 -541,-1451 -869,-1752 -191,187 -220,614 -78,870 275,-293 637,273 785,794 61,212 86,417 55,552z" style="fill:#897a06"/>
 </g><g id="LeftLeg-Dog0">
  <metadata id="CorelCorpID_136Corel-Layer"/>
  <path class="LeftLeg-Dog0fil249" d="M13654 20939c-701,0 -2353,-56 -2710,226 -303,239 -938,901 -935,1761 1,445 276,1009 1000,1266 472,76 697,-507 1294,-235 -59,-709 911,-790 1351,-797l0 -2221z" style="fill:#86660c"/>
  <path class="LeftLeg-Dog0fil32" d="M12251 24610c-33,25 -63,27 -88,-6 -25,-32 -19,-79 14,-104 85,-66 111,-236 90,-338 -34,-163 -72,-342 65,-579 1,-1 2,-3 3,-4 100,-171 246,-296 460,-378 208,-80 506,-119 859,-119l0 150c-335,0 -616,36 -806,108 -179,69 -302,173 -384,314 -1,2 -2,3 -2,4 -109,188 -77,337 -49,473 33,154 -42,385 -162,479zm-1227 -3463c-176,139 -478,451 -694,860 -143,272 -247,587 -246,919 0,245 86,464 217,653 155,223 428,476 708,613 -326,-17 -761,-427 -831,-528 -146,-211 -243,-458 -244,-738 -1,-360 110,-698 264,-989 226,-430 547,-760 733,-907l93 117z" style="fill:#5bd402"/>
  <path class="LeftLeg-Dog0fil14" d="M10116 23390c-67,-148 -107,-305 -107,-464 -2,-775 540,-1451 869,-1752 190,187 275,614 134,870 -388,-413 -1003,879 -896,1346z" style="fill:#4efb7c"/>
 </g><g id="RightHand-Dog3">
 <animateTransform additive="sum" attributeName="transform" dur="10" repeatCount="indefinite" type="translate" values="0;0 200;0;0 200;0;0 200;0;0 200;0"/>
  <metadata id="CorelCorpID_143Corel-Layer"/>
  <path class="RightHand-Dog3fil255" d="M15619 17715c247,-7 498,-52 659,-90 707,128 970,528 1348,796 130,92 425,224 606,21 133,145 14,423 -156,435 147,181 487,132 553,9 110,293 -168,564 -360,532 81,123 154,243 219,356 289,504 -636,1265 -911,1014 -142,-130 -282,-228 -420,-305 42,90 -40,256 -204,278 129,-199 -332,-494 -505,-532 -358,-79 -514,-1818 -829,-2514z" style="fill:#87622a"/>
  <path class="RightHand-Dog3fil32" d="M16291 17552c-40,-7 -79,20 -86,60 -7,41 25,64 66,71 473,22 768,342 1024,564 192,167 406,367 675,376 83,3 166,-14 241,-63 0,109 -50,205 -110,263 -35,34 -94,44 -92,65 6,53 80,106 122,129 131,70 314,72 448,7 -1,130 -94,264 -215,309 -66,25 -273,10 -150,206 28,5 53,-19 95,-33 40,-12 83,-23 108,-33 157,-59 279,-214 306,-378 9,-58 6,-242 -53,-268 -55,-33 -194,176 -447,68 159,-167 129,-400 79,-483 -35,-58 -164,68 -327,62 -222,-8 -423,-201 -583,-340 -270,-235 -558,-485 -1101,-582zm972 2914c-39,-29 -99,-68 -137,-51 -40,15 11,131 -81,222 -29,-135 -201,-283 -310,-354 -22,-14 -44,-27 -66,-40l-12 149c234,152 283,300 290,366 11,93 54,70 109,41 75,-39 202,-166 185,-292 -3,-19 -8,-38 22,-41z" style="fill:#f2eb41"/>
  <path class="RightHand-Dog3fil14" d="M17401 20669c-114,-114 -122,-122 -244,-186 43,144 -99,268 -204,278 116,-171 -258,-433 -374,-488 -156,-175 -225,-650 -133,-901 308,435 716,808 1104,1031 -30,84 -75,162 -148,228 0,12 -1,25 -1,38z" style="fill:#e2fbb1"/>
  <path class="RightHand-Dog3fil14" d="M18185 19427c-553,-42 -914,-391 -1132,-715 239,293 1327,799 1551,253 61,375 -267,474 -419,462z" style="fill:#5d0ebe"/>
  <path class="RightHand-Dog3fil14" d="M18016 18897c-558,74 -969,-550 -1102,-714 145,162 1013,956 1337,305 53,248 -126,395 -235,409z" style="fill:#f6c0ae"/>
 </g><g id="LeftHand-Dog3">
 <animateTransform additive="sum" attributeName="transform" dur="10" repeatCount="indefinite" type="translate" values="0;0 200;0;0 200;0;0 200;0;0 200;0"/>
  <metadata id="CorelCorpID_151Corel-Layer"/>
  <path class="LeftHand-Dog3fil263" d="M11744 17715c-246,-7 -497,-52 -658,-90 -707,128 -970,528 -1348,796 -131,92 -425,224 -606,21 -133,145 -15,423 156,435 -147,181 -487,132 -553,9 -110,293 168,564 360,532 -81,123 -154,243 -219,356 -289,504 636,1265 911,1014 142,-130 282,-228 419,-305 -41,90 41,256 205,278 -129,-199 332,-494 505,-532 358,-79 514,-1818 828,-2514z" style="fill:#458d61"/>
  <path class="LeftHand-Dog3fil32" d="M11072 17552c41,-7 80,20 87,60 7,41 -25,64 -66,71 -473,22 -768,342 -1024,564 -192,167 -406,367 -675,376 -83,3 -166,-14 -241,-63 0,109 50,205 109,263 36,34 95,44 92,65 -5,53 -79,106 -122,129 -130,70 -314,72 -447,7 1,130 94,264 215,309 66,25 272,10 150,206 -28,5 -53,-19 -95,-33 -40,-12 -83,-23 -108,-33 -157,-59 -279,-214 -306,-378 -9,-58 -6,-242 53,-268 54,-33 194,176 447,68 -159,-167 -129,-400 -79,-483 34,-58 164,68 326,62 222,-8 424,-201 583,-340 271,-235 559,-485 1101,-582zm-971 2914c38,-29 99,-68 137,-51 40,15 -11,131 81,222 29,-135 201,-283 310,-354 22,-14 44,-27 66,-40l12 149c-234,152 -283,300 -291,366 -11,93 -53,70 -108,41 -75,-39 -202,-166 -185,-292 3,-19 8,-38 -22,-41z" style="fill:#b15bbf"/>
  <path class="LeftHand-Dog3fil14" d="M9963 20669c114,-114 122,-122 243,-186 -42,144 99,268 205,278 -116,-171 258,-433 373,-488 157,-175 226,-650 134,-901 -308,435 -717,808 -1104,1031 30,84 75,162 148,228 0,12 1,25 1,38z" style="fill:#625fc4"/>
  <path class="LeftHand-Dog3fil14" d="M9179 19427c553,-42 914,-391 1132,-715 -239,293 -1327,799 -1552,253 -60,375 268,474 420,462z" style="fill:#684c84"/>
  <path class="LeftHand-Dog3fil14" d="M9348 18897c558,74 968,-550 1102,-714 -145,162 -1013,956 -1337,305 -53,248 126,395 235,409z" style="fill:#cd8ffe"/>
 </g><g id="Body-Dog2">
 <animateTransform additive="sum" attributeName="transform" dur="10" repeatCount="indefinite" type="translate" values="0;0 200;0;0 200;0;0 200;0;0 200;0"/>
  <metadata id="CorelCorpID_159Corel-Layer"/>
  <path class="Body-Dog2fil267" d="M13682 23035c-1548,0 -2752,-291 -2993,-1956 -146,-1010 387,-2357 984,-3487 334,54 1089,70 2009,70 920,0 1675,-16 2008,-70 598,1130 1131,2477 985,3487 -242,1665 -1445,1956 -2993,1956z" style="fill:#5942a7"/>
  <path class="Body-Dog2fil14" d="M12620 22967c-1015,-156 -1748,-629 -1931,-1888 -72,-498 21,-1078 206,-1674 -224,2001 425,3224 1725,3562z" style="fill:#f56fae"/>
  <path class="Body-Dog2fil14" d="M14743 22967c1016,-156 1749,-629 1932,-1888 72,-498 -21,-1078 -206,-1674 224,2001 -425,3224 -1726,3562z" style="fill:#2d6f84"/>
  <path class="Body-Dog2fil32" d="M11012 22044c-250,-321 -348,-641 -397,-954 -59,-377 -28,-1005 180,-1327 -79,420 -89,912 -32,1305 50,341 104,572 249,976z" style="fill:#135be9"/>
  <path class="Body-Dog2fil32" d="M16352 22044c250,-321 347,-641 397,-954 59,-377 24,-998 -184,-1320 78,421 93,905 36,1298 -50,341 -104,572 -249,976z" style="fill:#1575c4"/>
  <path class="Body-Dog2fil14" d="M13682 17939c-855,0 -1811,-224 -2306,-506 -582,280 -513,1744 -476,2382 -13,187 25,527 140,597 321,-315 328,1111 1503,1400 167,-513 543,791 1716,887 -156,-643 979,-1867 819,-868 1238,-572 1099,-2148 1268,-1506 48,-74 131,-155 126,-424 -4,-566 144,-2167 -403,-2459 -494,282 -1532,497 -2387,497z" style="fill:#f73547"/>
  <path class="Body-Dog2fil270" d="M13682 17604c-855,0 -1811,-224 -2306,-505 -582,279 -986,998 -949,1636 34,609 289,1095 648,1329 31,-265 163,-465 284,-582 -265,830 336,1772 1035,2030 -82,-280 31,-672 224,-885 -18,657 608,1638 1492,1763 19,-701 698,-522 648,-1834 174,398 513,547 428,960 498,-278 1125,-1245 860,-2075 147,90 327,306 350,549 367,-249 577,-789 573,-1463 -3,-566 -353,-1128 -900,-1419 -494,281 -1532,496 -2387,496z" style="fill:#d74f90"/>
  <path class="Body-Dog2fil32" d="M16824 19412c269,-1168 -275,-1767 -403,-1932 -25,-32 -15,-100 18,-125 32,-25 96,-15 121,17 145,187 752,908 264,2040z" style="fill:#0f46a4"/>
  <path class="Body-Dog2fil32" d="M10919 17342c29,-29 76,-30 106,-1 29,29 30,77 1,106 -389,326 -639,1316 -427,2030 -435,-814 -57,-1885 320,-2135z" style="fill:#b42ec3"/>
 </g><g id="RightPaw-Dog1">
 <animateTransform additive="sum" attributeName="transform" dur="10" repeatCount="indefinite" type="translate" values="0;0 200;0;0 200;0;0 200;0;0 200;0"/>
  <metadata id="CorelCorpID_147Corel-Layer"/>
  <path class="RightPaw-Dog1fil26" d="M17402 20631c-38,818 551,1339 943,981 309,484 1078,126 986,-356 248,-652 -532,-1279 -980,-1632 -241,-78 -377,-149 -564,-64 -316,143 -32,749 -385,1071z" style="fill:#7fd3cd"/>
  <path class="RightPaw-Dog1fil14" d="M17402 20631c-17,192 32,393 33,395 44,201 137,399 285,544 194,184 433,219 637,33 492,772 1351,-293 810,-632 144,452 -486,750 -723,253 -324,480 -778,69 -787,-350 -5,-223 56,-314 -107,-471 -30,84 -75,162 -148,228z" style="fill:#7b1af0"/>
  <path class="RightPaw-Dog1fil32" d="M18446 21611c107,-163 129,-451 -88,-537 74,121 26,386 -69,476 -138,130 -263,138 -430,31 -93,-59 -178,-155 -245,-278 -93,-172 -149,-397 -138,-656 1,-21 -7,-43 -24,-59 -52,-50 -128,-78 -180,-116 -33,-25 -76,-27 -100,6 -24,33 -10,74 23,99 44,31 87,68 130,100 -5,272 57,511 157,696 79,147 183,261 296,334 178,114 384,128 560,8 101,121 232,181 368,195 211,22 433,-69 573,-226 103,-115 160,-263 137,-425 229,-648 -410,-1166 -864,-1533 -104,-84 -134,-147 -206,-255 -23,-34 -69,-44 -104,-21 -34,23 -43,70 -20,104 80,121 120,196 236,290 356,288 865,714 854,1122 -52,-71 -158,-158 -280,-146 191,160 321,562 136,764 -110,120 -284,194 -446,177 -102,-10 -201,-57 -276,-150z" style="fill:#c9a510"/>
 </g><g id="LeftPaw-Dog1">
 <animateTransform additive="sum" attributeName="transform" dur="10" repeatCount="indefinite" type="translate" values="0;0 200;0;0 200;0;0 200;0;0 200;0"/>
  <metadata id="CorelCorpID_155Corel-Layer"/>
  <path class="LeftPaw-Dog1fil26" d="M9962 20631c38,818 -552,1339 -944,981 -308,484 -1077,126 -986,-356 -247,-652 533,-1279 981,-1632 241,-78 377,-149 564,-64 316,143 31,749 385,1071z" style="fill:#86709d"/>
  <path class="LeftPaw-Dog1fil14" d="M9962 20631c16,192 -32,393 -33,395 -44,201 -137,399 -285,544 -194,184 -433,219 -637,33 -493,772 -1351,-293 -810,-632 -144,452 485,750 723,253 324,480 778,69 787,-350 4,-223 -56,-314 107,-471 30,84 75,162 148,228z" style="fill:#cba1fb"/>
  <path class="LeftPaw-Dog1fil32" d="M8918 21611c-107,-163 -129,-451 88,-537 -74,121 -26,386 69,476 138,130 263,138 430,31 92,-59 178,-155 245,-278 93,-172 149,-397 138,-656 -1,-21 7,-43 24,-59 52,-50 128,-78 180,-116 33,-25 75,-27 100,6 24,33 10,74 -24,99 -43,31 -86,68 -129,100 5,272 -57,511 -157,696 -80,147 -183,261 -296,334 -178,114 -384,128 -560,8 -101,121 -232,181 -369,195 -210,22 -432,-69 -572,-226 -103,-115 -161,-263 -137,-425 -229,-648 410,-1166 863,-1533 105,-84 134,-147 207,-255 23,-34 69,-44 103,-21 35,23 44,70 21,104 -81,121 -120,196 -236,290 -356,288 -865,714 -854,1122 52,-71 157,-158 280,-146 -191,160 -321,562 -136,764 110,120 284,194 446,177 102,-10 201,-57 276,-150z" style="fill:#df9cb3"/>
 </g><g id="Ears-Dog5">
 <animateTransform additive="sum" attributeName="transform" dur="10" repeatCount="indefinite" type="translate" values="0;0 200;0;0 200;0;0 200;0;0 200;0"/>
  <metadata id="CorelCorpID_166Corel-Layer"/>
  <g>
        <animateTransform additive="sum" attributeName="transform" dur="10" repeatCount="indefinite" type="rotate" values="0;0;0;0;0;0;10;0;0;0;0;0;0;0;0;0;0;0;0;0;0;0;0;0;0;0;0;0;0;0;0;0;0;0;0;0;0;0;0;0;0;0;0;0;0;10;0;0;0;0;0;0;0;0;0;0;0;0;0;0;0;0;0;0;0;0;0;0;0;0;0;0;0;0;0;0;0;0;0;0;0;0"/>
        <g>
			    <animateTransform additive="sum" attributeName="transform" dur="10" repeatCount="indefinite" type="translate" values="0;0;0;0;0;0;2000 -2000;0;0;0;0;0;0;0;0;0;0;0;0;0;0;0;0;0;0;0;0;0;0;0;0;0;0;0;0;0;0;0;0;0;0;0;0;0;0;2000 -2000;0;0;0;0;0;0;0;0;0;0;0;0;0;0;0;0;0;0;0;0;0;0;0;0;0;0;0;0;0;0;0;0;0;0;0;0"/>
			    <path class="Ears-Dog5fil155 Ears-Dog5str4" d="M11075 8002c-946,-512 -3184,715 -3780,2310 -478,1279 186,2338 648,2690 687,-2391 2507,-3559 3750,-4382 -80,-213 30,-267 -618,-618z" style="fill:#6c3a7a"/>
          <path class="Ears-Dog5fil14" d="M11075 8010c-946,-512 -3184,707 -3780,2302 -478,1279 186,2338 648,2690 687,-2391 2507,-3559 3750,-4382 -80,-213 30,-259 -618,-610z" style="fill:#063ddf"/>
          <path class="Ears-Dog5fil296 Ears-Dog5str0" d="M6479 16367c514,107 1088,-418 847,-2849 -135,-1367 963,-4961 3925,-5507 -3337,-875 -5607,2043 -6169,3163 -892,1775 127,4930 1397,5193z" style="fill:#b93bc7"/>
          <path class="Ears-Dog5fil14" d="M6479 16367c514,107 1088,-418 847,-2849 -39,-398 27,-987 213,-1633l-1 -1c-1148,1286 -463,3391 -1315,3462 -381,31 -750,-135 -1061,-459 321,782 798,1372 1317,1480z" style="fill:#a51723"/>
		</g>
  </g>
  <g>
      <animateTransform additive="sum" attributeName="transform" dur="10" repeatCount="indefinite" type="rotate" values="0;0;0;0;0;0;-10;0;0;0;0;0;0;0;0;0;0;0;0;0;0;0;0;0;0;0;0;0;0;0;0;0;0;0;0;0;0;0;0;0;0;0;0;0;0;0;0;0;0;0;0;0;0;0;0;-10;0;0;0;0;0;0;0;0;0;0;0;0;0;0;0;0;0;0;0;0;0;0;0;0;0;0"/>
      <g>
          <animateTransform additive="sum" attributeName="transform" dur="10" repeatCount="indefinite" type="translate" values="0;0;0;0;0;0;-2500 2500;0;0;0;0;0;0;0;0;0;0;0;0;0;0;0;0;0;0;0;0;0;0;0;0;0;0;0;0;0;0;0;0;0;0;0;0;0;0;0;0;0;0;0;0;0;0;0;0;-2500 2500;0;0;0;0;0;0;0;0;0;0;0;0;0;0;0;0;0;0;0;0;0;0;0;0;0;0"/>
			    <path class="Ears-Dog5fil155 Ears-Dog5str4" d="M16289 8002c946,-512 3184,715 3780,2310 478,1279 -186,2338 -648,2690 -687,-2391 -2507,-3559 -3750,-4382 80,-213 -31,-267 618,-618z" style="fill:#98b3d3"/>
          <path class="Ears-Dog5fil14" d="M16289 8010c946,-512 3184,707 3780,2302 478,1279 -186,2338 -648,2690 -687,-2391 -2507,-3559 -3750,-4382 80,-213 -31,-259 618,-610z" style="fill:#b1fb27"/>
          <path class="Ears-Dog5fil297 Ears-Dog5str0" d="M20885 16367c-514,107 -1088,-418 -848,-2849 136,-1367 -962,-4961 -3924,-5507 3336,-875 5607,2043 6169,3163 892,1775 -128,4930 -1397,5193z" style="fill:#aef6af"/>
          <path class="Ears-Dog5fil14" d="M20885 16367c-514,107 -1088,-418 -848,-2849 40,-398 -26,-987 -212,-1633l0 -1c1149,1286 464,3391 1315,3462 381,31 750,-135 1062,-459 -322,782 -798,1372 -1317,1480z" style="fill:#8dca96"/>
		  </g>
  </g>
 </g><g id="Head-Dog0">
 <animateTransform additive="sum" attributeName="transform" dur="10" repeatCount="indefinite" type="translate" values="0;0 200;0;0 200;0;0 200;0;0 200;0"/>
  <metadata id="CorelCorpID_173Corel-Layer"/>
  <path class="Head-Dog0fil330" d="M13682 7385c-3568,0 -6948,4165 -6021,7554 736,2692 3247,2816 6021,2816 2774,0 5285,-124 6021,-2816 927,-3389 -2453,-7554 -6021,-7554z" style="fill:#26aa1a"/>
  <path class="Head-Dog0fil14" d="M8141 11211c-590,1190 -813,2509 -480,3728 585,2138 2290,2657 4356,2779 -3483,-543 -4783,-2989 -3876,-6507z" style="fill:#3c121f"/>
  <path class="Head-Dog0fil331" d="M14951 14299c-246,-317 -656,-862 -520,-1983 119,-974 291,-2562 -842,-2541 -959,18 -1083,1214 -890,2270 207,1132 36,1821 -259,2225l1 0c-41,40 -80,84 -115,131 -805,1059 -387,2584 1356,2584 1742,0 2161,-1525 1356,-2584 -27,-36 -56,-70 -87,-102l0 0z" style="fill:#e36a64"/>
  <path class="Head-Dog0fil32" d="M13682 7459c552,0 1099,101 1626,285 302,105 959,411 1688,816 -411,-435 -1448,-891 -1639,-957 -543,-189 -1107,-294 -1675,-294 -568,0 -1132,105 -1675,294 -191,66 -1229,522 -1639,957 728,-405 1386,-711 1688,-816 527,-184 1074,-285 1626,-285z" style="fill:#b3ebb2"/>
  <path class="Head-Dog0fil32" d="M8070 11356c-237,514 -424,1536 -461,1878 -61,568 -26,1137 124,1685 291,1064 865,1718 1623,2120 512,270 1759,641 2840,689 -1197,57 -2559,-372 -2910,-557 -794,-420 -1394,-1103 -1697,-2213 -155,-566 -192,-1154 -129,-1740 23,-210 212,-1304 610,-1862z" style="fill:#61fa9b"/>
  <path class="Head-Dog0fil32" d="M19293 11356c238,514 425,1536 462,1878 61,568 26,1137 -124,1685 -291,1064 -865,1718 -1623,2120 -513,270 -1760,641 -2841,689 1198,57 2560,-372 2910,-557 795,-420 1394,-1103 1698,-2213 155,-566 192,-1154 128,-1740 -22,-210 -211,-1304 -610,-1862z" style="fill:#f5fd97"/>
 </g><g id="Mouth-Dog4">
 <animateTransform additive="sum" attributeName="transform" dur="10" repeatCount="indefinite" type="translate" values="0;0 200;0;0 200;0;0 200;0;0 200;0"/>
  <metadata id="CorelCorpID_184Corel-Layer"/>
  <path class="Mouth-Dog4fil22 Mouth-Dog4str0" d="M11816 15278c446,661 1840,429 1866,-392" style="fill:#e2632c"/>
  <path class="Mouth-Dog4fil152 Mouth-Dog4str0" d="M12226 15571c14,-148 162,-409 254,-499 113,77 284,421 312,551 -126,56 -416,62 -566,-52z" style="fill:#122ee3"/>
  <path class="Mouth-Dog4fil22 Mouth-Dog4str0" d="M15548 15278c-447,661 -1840,429 -1866,-392" style="fill:#b4c6cf"/>
  <path class="Mouth-Dog4fil152 Mouth-Dog4str0" d="M15138 15571c-15,-148 -162,-409 -255,-499 -112,77 -283,421 -312,551 127,56 417,62 567,-52z" style="fill:#99b913"/>
  <path class="Mouth-Dog4fil100" d="M13682 14886c70,357 344,687 744,822 -290,-65 -508,-85 -744,-85 -236,0 -454,20 -744,85 400,-135 674,-465 744,-822z" style="fill:#af7f3f"/>
 </g><g id="Eyes-Dog10">
 <animateTransform additive="sum" attributeName="transform" dur="10" repeatCount="indefinite" type="translate" values="0;0 200;0;0 200;0;0 200;0;0 200;0"/>
  <metadata id="CorelCorpID_199Corel-Layer"/>
  <path class="Eyes-Dog10fil398" d="M9115 14430c869,646 2279,559 2905,-447 340,-547 233,-1243 -154,-1555 -725,-585 -2026,-1174 -2603,-776 -1035,715 -961,2175 -148,2778z"/>
  <path class="Eyes-Dog10fil399" d="M11871 12433c-415,-335 -1021,-674 -1572,-826 -279,26 -650,250 -815,428 -597,641 -543,1663 -3,2108 640,529 1501,382 1922,146 389,-217 791,-835 766,-1393 -58,-187 -160,-350 -298,-463z"/>
  <path class="Eyes-Dog10fil400" d="M10645 11723c-702,92 -1306,650 -1233,1448 72,797 801,1118 1573,1021 759,-95 1171,-918 1047,-1579 -283,-395 -1145,-794 -1387,-890z"/>
  <circle class="Eyes-Dog10fil152" r="235" transform="matrix(0.633314 0.587448 -0.488648 0.624529 9054.98 13801.1)"/>
  <circle class="Eyes-Dog10fil152" r="235" transform="matrix(0.220012 0.346704 -0.300224 0.227934 8854.62 13442.9)"/>
  <path class="Eyes-Dog10fil157" d="M11895 14159c44,-55 86,-114 125,-176 340,-547 233,-1243 -154,-1555 -725,-585 -2026,-1174 -2603,-776 -411,284 -647,685 -731,1103 472,-577 1492,-709 1983,-581 881,229 1639,1117 1380,1985z"/>
  <circle class="Eyes-Dog10fil152" r="235" transform="matrix(-0.0837922 2.18357 -2.0039 0.091352 10064.9 12560.8)"/>
  <path class="Eyes-Dog10fil22 Eyes-Dog10str4" d="M9115 14430c869,646 2279,559 2905,-447 340,-547 233,-1243 -154,-1555 -725,-585 -2026,-1174 -2603,-776 -1035,715 -961,2175 -148,2778z"/>
  <path class="Eyes-Dog10fil401" d="M18249 14430c-870,646 -2279,559 -2905,-447 -340,-547 -233,-1243 154,-1555 725,-585 2026,-1174 2603,-776 1035,715 961,2175 148,2778z"/>
  <path class="Eyes-Dog10fil402" d="M15493 12433c415,-335 1021,-674 1572,-826 279,26 650,250 815,428 597,641 543,1663 3,2108 -641,529 -1502,382 -1923,146 -389,-217 -791,-835 -765,-1393 58,-187 160,-350 298,-463z"/>
  <path class="Eyes-Dog10fil403" d="M16719 11723c702,92 1306,650 1233,1448 -73,797 -801,1118 -1574,1021 -758,-95 -1170,-918 -1046,-1579 283,-395 1144,-794 1387,-890z"/>
  <circle class="Eyes-Dog10fil152" r="235" transform="matrix(-0.633314 0.587448 0.488648 0.624529 18308.9 13801.1)"/>
  <circle class="Eyes-Dog10fil152" r="235" transform="matrix(-0.220012 0.346704 0.300224 0.227934 18509.2 13442.9)"/>
  <path class="Eyes-Dog10fil157" d="M15469 14159c-45,-55 -86,-114 -125,-176 -340,-547 -233,-1243 154,-1555 725,-585 2026,-1174 2603,-776 411,284 647,685 731,1103 -472,-577 -1492,-709 -1984,-581 -880,229 -1638,1117 -1379,1985z"/>
  <circle class="Eyes-Dog10fil152" r="235" transform="matrix(0.0837922 2.18357 2.0039 0.091352 17298.9 12560.8)"/>
  <path class="Eyes-Dog10fil22 Eyes-Dog10str4" d="M18249 14430c-870,646 -2279,559 -2905,-447 -340,-547 -233,-1243 154,-1555 725,-585 2026,-1174 2603,-776 1035,715 961,2175 148,2778z"/>
  <path class="Eyes-Dog10fil155" d="M11273 10797c54,132 308,168 711,539 370,342 384,569 579,568 217,-1 315,-527 219,-787 -79,-213 -169,-371 -641,-550 -559,-211 -934,71 -868,230z"/>
  <path class="Eyes-Dog10fil14" d="M11273 10797c54,132 308,168 711,539 370,342 384,569 579,568 217,-1 315,-527 219,-787 -79,-213 -169,-371 -641,-550 -559,-211 -934,71 -868,230z"/>
  <path class="Eyes-Dog10fil155" d="M16091 10797c-54,132 -308,168 -711,539 -371,342 -384,569 -579,568 -217,-1 -315,-527 -219,-787 79,-213 169,-371 641,-550 559,-211 933,71 868,230z"/>
  <path class="Eyes-Dog10fil14" d="M16091 10797c-54,132 -308,168 -711,539 -371,342 -384,569 -579,568 -217,-1 -315,-527 -219,-787 79,-213 169,-371 641,-550 559,-211 933,71 868,230z"/>
 </g><g id="Moustache-Dog0">
 <animateTransform additive="sum" attributeName="transform" dur="10" repeatCount="indefinite" type="translate" values="0;0 200;0;0 200;0;0 200;0;0 200;0"/>
  <metadata id="CorelCorpID_200Corel-Layer"/>
  <rect class="Moustache-Dog0fil22" height="487" width="487" x="13438" y="12949"/>
 </g><g id="Nose-Dog0">
 <animateTransform additive="sum" attributeName="transform" dur="10" repeatCount="indefinite" type="translate" values="0;0 200;0;0 200;0;0 200;0;0 200;0"/>
  <metadata id="CorelCorpID_208Corel-Layer"/>
  <path class="Nose-Dog0fil416 Nose-Dog0str0" d="M13682 14020c-283,0 -678,136 -648,338 28,185 288,481 648,481 360,0 620,-296 648,-481 30,-202 -365,-338 -648,-338z" style="fill:#396422"/>
 </g><g id="Hair-Dog0">
 <animateTransform additive="sum" attributeName="transform" dur="10" repeatCount="indefinite" type="translate" values="0;0 200;0;0 200;0;0 200;0;0 200;0"/>
  <metadata id="CorelCorpID_209Corel-Layer"/>
  <rect class="Hair-Dog0fil22" height="684" width="853" x="13255" y="7755"/>
 </g></svg>