<svg xmlns="http://www.w3.org/2000/svg" xmlns:xlink="http://www.w3.org/1999/xlink" style="shape-rendering:geometricPrecision; text-rendering:geometricPrecision; image-rendering:optimizeQuality; fill-rule:evenodd; clip-rule:evenodd" version="1.1" viewBox="0 0 29000 29000" xml:space="preserve"><defs><style type="text/css">.NecklaceShipWheelfil14new {fill:black;fill-opacity:0.200000}
.NecklaceShipWheelfil372new {fill:url(#NecklaceShipWheelid598new)}
.NecklaceShipWheelfil373new {fill:#EDC26D;fill-opacity:0.301961}
.NecklaceShipWheelfil375new {fill:url(#NecklaceShipWheelid339new)}
.NecklaceShipWheelfil377new {fill:url(#NecklaceShipWheelid552new)}
.NecklaceShipWheelfil379new {fill:url(#NecklaceShipWheelid476new)}
.NecklaceShipWheelfil381new {fill:url(#NecklaceShipWheelid592new)}
.NecklaceShipWheelfil383new {fill:url(#NecklaceShipWheelid392new)}
.NecklaceShipWheelfil385new {fill:url(#NecklaceShipWheelid560new)}
.NecklaceShipWheelfil387new {fill:url(#NecklaceShipWheelid388new)}
.NecklaceShipWheelfil389new {fill:url(#NecklaceShipWheelid577new)}
.NecklaceShipWheelfil391new {fill:url(#NecklaceShipWheelid522new)}
.NecklaceShipWheelfil393new {fill:url(#NecklaceShipWheelid605new)}
.NecklaceShipWheelfil395new {fill:url(#NecklaceShipWheelid384new)}
.NecklaceShipWheelfil399new {fill:#EDC26D;fill-opacity:0.200000}
.NecklaceShipWheelfil371new {fill:url(#NecklaceShipWheelid0new)}
.NecklaceShipWheelstr0new {stroke:black;stroke-width:150;stroke-linecap:round;stroke-linejoin:round}
.NecklaceShipWheelfil33new {fill:none}
.NecklaceShipWheelfil374 {fill:url(#NecklaceShipWheelid1004)}
.NecklaceShipWheelfil376new {fill:url(#NecklaceShipWheelid291new)}
.NecklaceShipWheelfil378new {fill:url(#NecklaceShipWheelid520new)}
.NecklaceShipWheelfil380new {fill:url(#NecklaceShipWheelid266new)}
.NecklaceShipWheelfil382new {fill:url(#NecklaceShipWheelid341new)}
.NecklaceShipWheelfil384new {fill:url(#NecklaceShipWheelid334new)}
.NecklaceShipWheelfil386new {fill:url(#NecklaceShipWheelid309new)}
.NecklaceShipWheelfil388new {fill:url(#NecklaceShipWheelid524new)}
.NecklaceShipWheelfil390new {fill:url(#NecklaceShipWheelid468new)}
.NecklaceShipWheelfil392new {fill:url(#NecklaceShipWheelid431new)}
.NecklaceShipWheelfil394new {fill:url(#NecklaceShipWheelid526new)}
.NecklaceShipWheelfil396new {fill:url(#NecklaceShipWheelid443new)}
.NecklaceShipWheelfil397new {fill:url(#NecklaceShipWheelid198new)}
.NecklaceShipWheelfil398new {fill:url(#NecklaceShipWheelid505new)}
.NecklaceShipWheelstr6new {stroke:black;stroke-width:150}
.HairBack-Fox0fil0 {fill:none}
.Tail-Fox0fil7 {fill:url(#Tail-Fox0id34)}
.Tail-Fox0fil8 {fill:black;fill-opacity:0.200000}
.Tail-Fox0fil0 {fill:none}
.Tail-Fox0str0 {stroke:black;stroke-width:150;stroke-linecap:round;stroke-linejoin:round}
.RightFoot-Fox2fil22 {fill:url(#RightFoot-Fox2id162)}
.RightFoot-Fox2fil8 {fill:black;fill-opacity:0.200000}
.RightFoot-Fox2fil0 {fill:none}
.RightFoot-Fox2fil18 {fill:black;fill-rule:nonzero}
.RightLeg-Fox3fil26 {fill:url(#RightLeg-Fox3id46)}
.RightLeg-Fox3fil25 {fill:#b3a584}
.RightLeg-Fox3fil18 {fill:black;fill-rule:nonzero}
.RightLeg-Fox3fil8 {fill:black;fill-opacity:0.200000}
.LeftFoot-Fox2fil31 {fill:url(#LeftFoot-Fox2id165)}
.LeftFoot-Fox2fil8 {fill:black;fill-opacity:0.200000}
.LeftFoot-Fox2fil0 {fill:none}
.LeftFoot-Fox2fil18 {fill:black;fill-rule:nonzero}
.LeftLeg-Fox3fil33 {fill:url(#LeftLeg-Fox3id43)}
.LeftLeg-Fox3fil25 {fill:#b3a584}
.LeftLeg-Fox3fil18 {fill:black;fill-rule:nonzero}
.LeftLeg-Fox3fil8 {fill:black;fill-opacity:0.200000}
.RightHand-Fox5fil38 {fill:url(#RightHand-Fox5id138)}
.RightHand-Fox5fil18 {fill:black;fill-rule:nonzero}
.RightHand-Fox5fil8 {fill:black;fill-opacity:0.200000}
.RightPaw-Fox1fil40 {fill:url(#RightPaw-Fox1id93)}
.RightPaw-Fox1fil8 {fill:black;fill-opacity:0.200000}
.RightPaw-Fox1fil18 {fill:black;fill-rule:nonzero}
.LeftHand-Fox5fil47 {fill:url(#LeftHand-Fox5id137)}
.LeftHand-Fox5fil18 {fill:black;fill-rule:nonzero}
.LeftHand-Fox5fil8 {fill:black;fill-opacity:0.200000}
.LeftPaw-Fox1fil49 {fill:url(#LeftPaw-Fox1id152)}
.LeftPaw-Fox1fil8 {fill:black;fill-opacity:0.200000}
.LeftPaw-Fox1fil18 {fill:black;fill-rule:nonzero}
.Body-Fox0fil53 {fill:url(#Body-Fox0id192)}
.Body-Fox0fil8 {fill:black;fill-opacity:0.200000}
.Body-Fox0fil18 {fill:black;fill-rule:nonzero}
.Body-Fox0fil54 {fill:#f2efeb;fill-opacity:0.501961}
.Ears-Fox0fil62 {fill:url(#Ears-Fox0id186)}
.Ears-Fox0fil8 {fill:black;fill-opacity:0.200000}
.Ears-Fox0fil63 {fill:url(#Ears-Fox0id194)}
.Ears-Fox0fil65 {fill:url(#Ears-Fox0id86)}
.Ears-Fox0fil66 {fill:url(#Ears-Fox0id59)}
.Ears-Fox0fil61 {fill:url(#Ears-Fox0id171)}
.Ears-Fox0str1 {stroke:black;stroke-width:150}
.Ears-Fox0fil64 {fill:url(#Ears-Fox0id38)}
.Head-Fox4fil131 {fill:url(#Head-Fox4id114)}
.Head-Fox4fil8 {fill:black;fill-opacity:0.200000}
.Head-Fox4fil18 {fill:black;fill-rule:nonzero}
.Head-Fox4fil135 {fill:url(#Head-Fox4id75)}
.Mouth-Fox0fil0 {fill:none}
.Mouth-Fox0str0 {stroke:black;stroke-width:150;stroke-linecap:round;stroke-linejoin:round}
.Eyes-Fox0fil147 {fill:url(#Eyes-Fox0id182)}
.Eyes-Fox0fil148 {fill:url(#Eyes-Fox0id100)}
.Eyes-Fox0fil142 {fill:white}
.Eyes-Fox0fil149 {fill:url(#Eyes-Fox0id132)}
.Eyes-Fox0fil150 {fill:#ad664f}
.Eyes-Fox0fil8 {fill:black;fill-opacity:0.200000}
.Eyes-Fox0fil4 {fill:black;fill-opacity:0.501961}
.Eyes-Fox0fil151 {fill:url(#Eyes-Fox0id12)}
.Eyes-Fox0fil152 {fill:url(#Eyes-Fox0id57)}
.Eyes-Fox0fil153 {fill:url(#Eyes-Fox0id73)}
.Eyes-Fox0fil0 {fill:none}
.Eyes-Fox0str1 {stroke:black;stroke-width:150}
.Moustache-Fox0fil0 {fill:none}
.Nose-Fox0fil215 {fill:url(#Nose-Fox0id189)}
.Nose-Fox0str0 {stroke:black;stroke-width:150;stroke-linecap:round;stroke-linejoin:round}
.Hair-Fox4fil5 {fill:black;fill-opacity:0.301961}
.Hair-Fox4fil220 {fill:url(#Hair-Fox4id126)}
.Hair-Fox4fil18 {fill:black;fill-rule:nonzero}
.Hair-Fox4fil4 {fill:black;fill-opacity:0.501961}
.Hair-Fox4fil219 {fill:url(#Hair-Fox4id1)}
.Hair-Fox4str0 {stroke:black;stroke-width:150;stroke-linecap:round;stroke-linejoin:round}
.Hair-Fox4fil221 {fill:url(#Hair-Fox4id188)}
.Hair-Fox4fil222 {fill:url(#Hair-Fox4id8)}
.NecklaceBiker-Mediumfil12 {fill:black;fill-opacity:0.200000}
.NecklaceBiker-Mediumfil9 {fill:black;fill-opacity:0.400000}
.NecklaceBiker-Mediumfil108 {fill:white}
.NecklaceBiker-Mediumfil116 {fill:#FFCC99;fill-opacity:0.200000}
.NecklaceBiker-Mediumfil89 {fill:url(#NecklaceBiker-Mediumid106)}
.NecklaceBiker-Mediumstr1 {stroke:black;stroke-width:150;stroke-linecap:round;stroke-linejoin:round}
.NecklaceBiker-Mediumfil90 {fill:url(#NecklaceBiker-Mediumid0)}
.NecklaceBiker-Mediumfil91 {fill:url(#NecklaceBiker-Mediumid61)}
.NecklaceBiker-Mediumstr2 {stroke:black;stroke-width:100}
.NecklaceBiker-Mediumfil92 {fill:url(#NecklaceBiker-Mediumid101)}
.NecklaceBiker-Mediumfil93 {fill:url(#NecklaceBiker-Mediumid51)}
.NecklaceBiker-Mediumfil94 {fill:url(#NecklaceBiker-Mediumid60)}
.NecklaceBiker-Mediumfil95 {fill:url(#NecklaceBiker-Mediumid63)}
.NecklaceBiker-Mediumfil96 {fill:url(#NecklaceBiker-Mediumid111)}
.NecklaceBiker-Mediumfil97 {fill:url(#NecklaceBiker-Mediumid108)}
.NecklaceBiker-Mediumfil98 {fill:url(#NecklaceBiker-Mediumid112)}
.NecklaceBiker-Mediumfil99 {fill:url(#NecklaceBiker-Mediumid151)}
.NecklaceBiker-Mediumfil100 {fill:url(#NecklaceBiker-Mediumid93)}
.NecklaceBiker-Mediumfil101 {fill:url(#NecklaceBiker-Mediumid73)}
.NecklaceBiker-Mediumfil102 {fill:url(#NecklaceBiker-Mediumid74)}
.NecklaceBiker-Mediumfil103 {fill:url(#NecklaceBiker-Mediumid102)}
.NecklaceBiker-Mediumfil104 {fill:url(#NecklaceBiker-Mediumid107)}
.NecklaceBiker-Mediumfil105 {fill:url(#NecklaceBiker-Mediumid83)}
.NecklaceBiker-Mediumfil106 {fill:url(#NecklaceBiker-Mediumid28)}
.NecklaceBiker-Mediumfil107 {fill:url(#NecklaceBiker-Mediumid70)}
.NecklaceBiker-Mediumfil109 {fill:url(#NecklaceBiker-Mediumid198)}
.NecklaceBiker-Mediumfil110 {fill:url(#NecklaceBiker-Mediumid62)}
.NecklaceBiker-Mediumfil111 {fill:url(#NecklaceBiker-Mediumid178)}
.NecklaceBiker-Mediumstr3 {stroke:black;stroke-width:100;stroke-linecap:round;stroke-linejoin:round}
.NecklaceBiker-Mediumfil112 {fill:url(#NecklaceBiker-Mediumid15)}
.NecklaceBiker-Mediumfil113 {fill:url(#NecklaceBiker-Mediumid66)}
.NecklaceBiker-Mediumfil114 {fill:url(#NecklaceBiker-Mediumid200)}
.NecklaceBiker-Mediumfil115 {fill:url(#NecklaceBiker-Mediumid217)}
.HatBiker-Mediumfil257 {fill:#450000;fill-opacity:0.901961}
.HatBiker-Mediumfil33 {fill:white;fill-opacity:0.301961}
.HatBiker-Mediumfil108 {fill:white}
.HatBiker-Mediumfil256 {fill:url(#HatBiker-Mediumid264)}
.HatBiker-Mediumstr3 {stroke:black;stroke-width:100;stroke-linecap:round;stroke-linejoin:round}
.BraceletBoxer-Mediumfil1 {fill:black;fill-opacity:0.200000}
.BraceletBoxer-Mediumfil3 {fill:black}
.BraceletBoxer-Mediumfil5 {fill:#FFCC99;fill-opacity:0.301961}
.BraceletBoxer-Mediumfil6 {fill:white;fill-rule:nonzero}
.BraceletBoxer-Mediumfil7 {fill:url(#BraceletBoxer-Mediumid13)}
.BraceletBoxer-Mediumfil0 {fill:url(#BraceletBoxer-Mediumid11)}
.BraceletBoxer-Mediumstr0 {stroke:black;stroke-width:150;stroke-linecap:round;stroke-linejoin:round}
.BraceletBoxer-Mediumfil2 {fill:url(#BraceletBoxer-Mediumid4)}
.BraceletBoxer-Mediumstr1 {stroke:black;stroke-width:100;stroke-linecap:round;stroke-linejoin:round}
.BraceletBoxer-Mediumfil4 {fill:none}
.BraceletBoxer-Mediumfil8 {fill:url(#BraceletBoxer-Mediumid12)}
</style><linearGradient gradientUnits="userSpaceOnUse" id="NecklaceShipWheelid598new" x1="10946.7" x2="11398.3" xlink:href="#NecklaceShipWheelid198new" y1="16600" y2="17725.9">
  </linearGradient><linearGradient gradientUnits="userSpaceOnUse" id="NecklaceShipWheelid339new" x1="12518.8" x2="12947" xlink:href="#NecklaceShipWheelid198new" y1="18755.5" y2="19611.7">
  </linearGradient><linearGradient gradientUnits="userSpaceOnUse" id="NecklaceShipWheelid552new" x1="9023.86" x2="10212.5" xlink:href="#NecklaceShipWheelid198new" y1="20827.6" y2="21151.5">
  </linearGradient><linearGradient gradientUnits="userSpaceOnUse" id="NecklaceShipWheelid476new" x1="11591.8" x2="12634.8" xlink:href="#NecklaceShipWheelid198new" y1="20530.1" y2="20746.4">
  </linearGradient><linearGradient gradientUnits="userSpaceOnUse" id="NecklaceShipWheelid592new" x1="11552" x2="12513.5" xlink:href="#NecklaceShipWheelid198new" y1="24648.7" y2="23806.9">
  </linearGradient><linearGradient gradientUnits="userSpaceOnUse" id="NecklaceShipWheelid392new" x1="12660.1" x2="13464.5" xlink:href="#NecklaceShipWheelid198new" y1="22282.5" y2="21518.6">
  </linearGradient><linearGradient gradientUnits="userSpaceOnUse" id="NecklaceShipWheelid560new" x1="16417.2" x2="15965.5" xlink:href="#NecklaceShipWheelid198new" y1="24294" y2="23168.1">
  </linearGradient><linearGradient gradientUnits="userSpaceOnUse" id="NecklaceShipWheelid388new" x1="14845" x2="14416.8" xlink:href="#NecklaceShipWheelid198new" y1="22138.5" y2="21282.3">
  </linearGradient><linearGradient gradientUnits="userSpaceOnUse" id="NecklaceShipWheelid577new" x1="18340" x2="17151.4" xlink:href="#NecklaceShipWheelid198new" y1="20066.3" y2="19742.5">
  </linearGradient><linearGradient gradientUnits="userSpaceOnUse" id="NecklaceShipWheelid522new" x1="15772" x2="14729.1" xlink:href="#NecklaceShipWheelid198new" y1="20363.9" y2="20147.6">
  </linearGradient><linearGradient gradientUnits="userSpaceOnUse" id="NecklaceShipWheelid605new" x1="15811.8" x2="14850.3" xlink:href="#NecklaceShipWheelid198new" y1="16245.3" y2="17087.1">
  </linearGradient><linearGradient gradientUnits="userSpaceOnUse" id="NecklaceShipWheelid384new" x1="14703.8" x2="13899.3" xlink:href="#NecklaceShipWheelid198new" y1="18611.5" y2="19375.4">
  </linearGradient><linearGradient gradientUnits="userSpaceOnUse" id="NecklaceShipWheelid0new" x1="13681.9" x2="13681.9" y1="25815.8" y2="19053.8">
   <stop offset="0" style="stop-opacity:1; stop-color:#96612C"/>
   <stop offset="1" style="stop-opacity:1; stop-color:#472809"/>
  </linearGradient><linearGradient gradientUnits="userSpaceOnUse" id="NecklaceShipWheelid1004" x1="10847.2" x2="10197.9" xlink:href="#NecklaceShipWheelid27" y1="14638.9" y2="11698.6">
  </linearGradient><linearGradient gradientUnits="userSpaceOnUse" id="NecklaceShipWheelid291new" x1="12300.1" x2="12310.4" xlink:href="#NecklaceShipWheelid198new" y1="18376.7" y2="18866.9">
  </linearGradient><linearGradient gradientUnits="userSpaceOnUse" id="NecklaceShipWheelid520new" x1="10722.1" x2="10282.8" xlink:href="#NecklaceShipWheelid198new" y1="20695" y2="20990.7">
  </linearGradient><linearGradient gradientUnits="userSpaceOnUse" id="NecklaceShipWheelid266new" x1="11162.9" x2="11662.9" xlink:href="#NecklaceShipWheelid198new" y1="20628.7" y2="20824.5">
  </linearGradient><linearGradient gradientUnits="userSpaceOnUse" id="NecklaceShipWheelid341new" x1="12385.5" x2="12484.5" xlink:href="#NecklaceShipWheelid198new" y1="23148.3" y2="23648.7">
  </linearGradient><linearGradient gradientUnits="userSpaceOnUse" id="NecklaceShipWheelid334new" x1="12586.8" x2="12992.4" xlink:href="#NecklaceShipWheelid198new" y1="22698.8" y2="22404.8">
  </linearGradient><linearGradient gradientUnits="userSpaceOnUse" id="NecklaceShipWheelid309new" x1="15384.4" x2="15844.6" xlink:href="#NecklaceShipWheelid198new" y1="22929.3" y2="23075.9">
  </linearGradient><linearGradient gradientUnits="userSpaceOnUse" id="NecklaceShipWheelid524new" x1="15063.8" x2="15053.4" xlink:href="#NecklaceShipWheelid198new" y1="22517.3" y2="22027.1">
  </linearGradient><linearGradient gradientUnits="userSpaceOnUse" id="NecklaceShipWheelid468new" x1="16641.7" x2="17081.1" xlink:href="#NecklaceShipWheelid198new" y1="20199" y2="19903.3">
  </linearGradient><linearGradient gradientUnits="userSpaceOnUse" id="NecklaceShipWheelid431new" x1="16201" x2="15700.9" xlink:href="#NecklaceShipWheelid198new" y1="20265.3" y2="20069.4">
  </linearGradient><linearGradient gradientUnits="userSpaceOnUse" id="NecklaceShipWheelid526new" x1="14978.3" x2="14879.4" xlink:href="#NecklaceShipWheelid198new" y1="17745.7" y2="17245.3">
  </linearGradient><linearGradient gradientUnits="userSpaceOnUse" id="NecklaceShipWheelid443new" x1="14777" x2="14371.5" xlink:href="#NecklaceShipWheelid198new" y1="18195.2" y2="18489.2">
  </linearGradient><linearGradient gradientUnits="userSpaceOnUse" id="NecklaceShipWheelid505new" x1="14288.3" x2="13075.5" xlink:href="#NecklaceShipWheelid198new" y1="19443.4" y2="21417.5">
  </linearGradient><linearGradient gradientUnits="objectBoundingBox" id="Tail-Fox0id34" x1="11.0145%" x2="88.9855%" y1="16.7214%" y2="83.2786%">
   <stop offset="0" style="stop-opacity:1; stop-color:#73643e"/>
   <stop offset="0.541176" style="stop-opacity:1; stop-color:#99875b"/>
   <stop offset="1" style="stop-opacity:1; stop-color:#b3a584"/>
  </linearGradient><linearGradient gradientUnits="userSpaceOnUse" id="RightFoot-Fox2id162" x1="16304.9" x2="16304.9" xlink:href="#RightFoot-Fox2id71" y1="23252.2" y2="25473.4">
  </linearGradient><linearGradient gradientUnits="userSpaceOnUse" id="RightLeg-Fox3id46" x1="14499.2" x2="16453.5" xlink:href="#RightLeg-Fox3id41" y1="23900.5" y2="21141.5">
  </linearGradient><linearGradient gradientUnits="userSpaceOnUse" id="LeftFoot-Fox2id165" x1="11002.8" x2="11002.8" xlink:href="#LeftFoot-Fox2id71" y1="23252.1" y2="25473.4">
  </linearGradient><linearGradient gradientUnits="objectBoundingBox" id="LeftLeg-Fox3id43" x1="76.8084%" x2="23.1916%" xlink:href="#LeftLeg-Fox3id41" y1="93.4795%" y2="6.52046%">
  </linearGradient><linearGradient gradientUnits="userSpaceOnUse" id="RightHand-Fox5id138" x1="16042" x2="17897.2" xlink:href="#RightHand-Fox5id128" y1="17814" y2="20493.3">
  </linearGradient><linearGradient gradientUnits="userSpaceOnUse" id="RightPaw-Fox1id93" x1="18753.4" x2="17671.1" y1="21628.2" y2="19462.6">
   <stop offset="0" style="stop-opacity:1; stop-color:#f2efeb"/>
   <stop offset="1" style="stop-opacity:1; stop-color:#e6ded3"/>
  </linearGradient><linearGradient gradientUnits="userSpaceOnUse" id="LeftHand-Fox5id137" x1="11265.7" x2="9410.43" xlink:href="#LeftHand-Fox5id128" y1="17813.9" y2="20493.3">
  </linearGradient><linearGradient gradientUnits="userSpaceOnUse" id="LeftPaw-Fox1id152" x1="8539.59" x2="9651.19" xlink:href="#LeftPaw-Fox1id93" y1="21657.5" y2="19433.3">
  </linearGradient><linearGradient gradientUnits="objectBoundingBox" id="Body-Fox0id192" x1="50%" x2="50%" y1="0.000177723%" y2="100%">
   <stop offset="0" style="stop-opacity:1; stop-color:#73643e"/>
   <stop offset="0.101961" style="stop-opacity:1; stop-color:#73643e"/>
   <stop offset="0.521569" style="stop-opacity:1; stop-color:#99875b"/>
   <stop offset="1" style="stop-opacity:1; stop-color:#b3a584"/>
  </linearGradient><linearGradient gradientUnits="userSpaceOnUse" id="Ears-Fox0id186" x1="10840.8" x2="7788.08" xlink:href="#Ears-Fox0id0" y1="11322.7" y2="7353.95">
  </linearGradient><linearGradient gradientUnits="userSpaceOnUse" id="Ears-Fox0id194" x1="10187.9" x2="9370.57" xlink:href="#Ears-Fox0id59" y1="11958.3" y2="8029.28">
  </linearGradient><linearGradient gradientUnits="userSpaceOnUse" id="Ears-Fox0id86" x1="16332.3" x2="19766.5" xlink:href="#Ears-Fox0id0" y1="11570.7" y2="7105.91">
  </linearGradient><linearGradient gradientUnits="userSpaceOnUse" id="Ears-Fox0id171" x1="10412" x2="8422.75" xlink:href="#Ears-Fox0id38" y1="12955.9" y2="6040.17">
  </linearGradient><linearGradient gradientUnits="objectBoundingBox" id="Head-Fox4id114" x1="50%" x2="50%" xlink:href="#Head-Fox4id94" y1="99.9999%" y2="0%">
  </linearGradient><linearGradient gradientUnits="userSpaceOnUse" id="Head-Fox4id75" x1="13682" x2="13682" y1="17756" y2="11596.6">
   <stop offset="0" style="stop-opacity:1; stop-color:#99875b"/>
   <stop offset="0.490196" style="stop-opacity:1; stop-color:#b3a584"/>
   <stop offset="1" style="stop-opacity:1; stop-color:#b3a584"/>
  </linearGradient><linearGradient gradientUnits="userSpaceOnUse" id="Eyes-Fox0id182" x1="10652.3" x2="9864.74" xlink:href="#Eyes-Fox0id11" y1="14913.9" y2="11283.7">
  </linearGradient><linearGradient gradientUnits="userSpaceOnUse" id="Eyes-Fox0id100" x1="8721.5" x2="11925.7" xlink:href="#Eyes-Fox0id4" y1="14233.5" y2="14233.5">
  </linearGradient><linearGradient gradientUnits="userSpaceOnUse" id="Eyes-Fox0id132" x1="10130.5" x2="10772.8" xlink:href="#Eyes-Fox0id3" y1="11425.5" y2="14144.1">
  </linearGradient><linearGradient gradientUnits="userSpaceOnUse" id="Eyes-Fox0id12" x1="16711.6" x2="17499.1" xlink:href="#Eyes-Fox0id11" y1="14913.9" y2="11283.7">
  </linearGradient><linearGradient gradientUnits="userSpaceOnUse" id="Eyes-Fox0id57" x1="18642.3" x2="15438.2" xlink:href="#Eyes-Fox0id4" y1="14233.5" y2="14233.5">
  </linearGradient><linearGradient gradientUnits="userSpaceOnUse" id="Eyes-Fox0id73" x1="16912.2" x2="16912.2" xlink:href="#Eyes-Fox0id3" y1="11330.3" y2="14239.3">
  </linearGradient><linearGradient gradientUnits="userSpaceOnUse" id="Nose-Fox0id189" x1="13681.9" x2="13681.9" y1="14170" y2="14789.2">
   <stop offset="0" style="stop-opacity:1; stop-color:#FFCCCC"/>
   <stop offset="1" style="stop-opacity:1; stop-color:#453F2C"/>
  </linearGradient><linearGradient gradientUnits="userSpaceOnUse" id="Hair-Fox4id126" x1="13683" x2="13683" xlink:href="#Hair-Fox4id37" y1="6279.78" y2="8132.22">
  </linearGradient><linearGradient gradientUnits="userSpaceOnUse" id="Hair-Fox4id1" x1="13681.9" x2="13681.9" y1="5002.87" y2="7062.69">
   <stop offset="0" style="stop-opacity:1; stop-color:#252b36"/>
   <stop offset="0.411765" style="stop-opacity:1; stop-color:#252b36"/>
   <stop offset="1" style="stop-opacity:1; stop-color:#404550"/>
  </linearGradient><linearGradient gradientUnits="userSpaceOnUse" id="Hair-Fox4id188" x1="13681.7" x2="13681.7" xlink:href="#Hair-Fox4id37" y1="5910.95" y2="3198.09">
  </linearGradient><linearGradient gradientUnits="userSpaceOnUse" id="Hair-Fox4id8" x1="12452.1" x2="14911.7" y1="6166.63" y2="6166.63">
   <stop offset="0" style="stop-opacity:1; stop-color:#264266"/>
   <stop offset="0.678431" style="stop-opacity:1; stop-color:#acd0ff"/>
   <stop offset="1" style="stop-opacity:1; stop-color:#365680"/>
  </linearGradient><linearGradient gradientUnits="userSpaceOnUse" id="NecklaceBiker-Mediumid106" x1="10748" x2="9128.38" xlink:href="#NecklaceBiker-Mediumid93" y1="20453.9" y2="18198">
  </linearGradient><linearGradient gradientUnits="userSpaceOnUse" id="NecklaceBiker-Mediumid0" x1="11556.9" x2="11556.9" y1="22812.7" y2="17421.9">
   <stop offset="0" style="stop-opacity:1; stop-color:#171717"/>
   <stop offset="0.741176" style="stop-opacity:1; stop-color:#42423B"/>
   <stop offset="1" style="stop-opacity:1; stop-color:#171717"/>
  </linearGradient><linearGradient gradientUnits="userSpaceOnUse" id="NecklaceBiker-Mediumid61" x1="12916.7" x2="11601.9" y1="21889.1" y2="19405.6">
   <stop offset="0" style="stop-opacity:1; stop-color:#8C8C8C"/>
   <stop offset="0.231373" style="stop-opacity:1; stop-color:#F2F2F2"/>
   <stop offset="1" style="stop-opacity:1; stop-color:black"/>
  </linearGradient><linearGradient gradientUnits="userSpaceOnUse" id="NecklaceBiker-Mediumid101" x1="11990" x2="11990" xlink:href="#NecklaceBiker-Mediumid0" y1="21198.9" y2="17320.8">
  </linearGradient><linearGradient gradientUnits="userSpaceOnUse" id="NecklaceBiker-Mediumid51" x1="9916.75" x2="8860.31" y1="19991.8" y2="18718.2">
   <stop offset="0" style="stop-opacity:1; stop-color:#171717"/>
   <stop offset="0.419608" style="stop-opacity:1; stop-color:#42423B"/>
   <stop offset="1" style="stop-opacity:1; stop-color:#171717"/>
  </linearGradient><linearGradient gradientUnits="userSpaceOnUse" id="NecklaceBiker-Mediumid60" x1="9497.06" x2="8794.48" xlink:href="#NecklaceBiker-Mediumid28" y1="18825.5" y2="19493.6">
  </linearGradient><linearGradient gradientUnits="userSpaceOnUse" id="NecklaceBiker-Mediumid63" x1="11308.6" x2="11010.3" xlink:href="#NecklaceBiker-Mediumid28" y1="20396.3" y2="22088.1">
  </linearGradient><linearGradient gradientUnits="userSpaceOnUse" id="NecklaceBiker-Mediumid111" x1="12138.8" x2="11707.8" xlink:href="#NecklaceBiker-Mediumid28" y1="21191.3" y2="23635.6">
  </linearGradient><linearGradient gradientUnits="userSpaceOnUse" id="NecklaceBiker-Mediumid108" x1="11502.3" x2="11311.4" xlink:href="#NecklaceBiker-Mediumid28" y1="20867.2" y2="21950">
  </linearGradient><linearGradient gradientUnits="userSpaceOnUse" id="NecklaceBiker-Mediumid112" x1="11983.7" x2="11716" xlink:href="#NecklaceBiker-Mediumid15" y1="18862.7" y2="19114.9">
  </linearGradient><linearGradient gradientUnits="userSpaceOnUse" id="NecklaceBiker-Mediumid151" x1="11472.8" x2="11278.5" xlink:href="#NecklaceBiker-Mediumid15" y1="17764.2" y2="18058.5">
  </linearGradient><linearGradient gradientUnits="userSpaceOnUse" id="NecklaceBiker-Mediumid73" x1="15806.9" x2="15806.9" xlink:href="#NecklaceBiker-Mediumid0" y1="22812.7" y2="17421.9">
  </linearGradient><linearGradient gradientUnits="userSpaceOnUse" id="NecklaceBiker-Mediumid74" x1="15371.1" x2="15371.1" xlink:href="#NecklaceBiker-Mediumid0" y1="21198.9" y2="17320.8">
  </linearGradient><linearGradient gradientUnits="userSpaceOnUse" id="NecklaceBiker-Mediumid102" x1="17446.8" x2="18503.8" xlink:href="#NecklaceBiker-Mediumid51" y1="19991.5" y2="18718.4">
  </linearGradient><linearGradient gradientUnits="userSpaceOnUse" id="NecklaceBiker-Mediumid107" x1="17867" x2="18569.1" xlink:href="#NecklaceBiker-Mediumid28" y1="18825.2" y2="19493.9">
  </linearGradient><linearGradient gradientUnits="userSpaceOnUse" id="NecklaceBiker-Mediumid83" x1="15945.5" x2="16270.7" xlink:href="#NecklaceBiker-Mediumid28" y1="20394.5" y2="22239">
  </linearGradient><linearGradient gradientUnits="userSpaceOnUse" id="NecklaceBiker-Mediumid70" x1="15651.7" x2="15384" xlink:href="#NecklaceBiker-Mediumid15" y1="18765.9" y2="19018.1">
  </linearGradient><linearGradient gradientUnits="userSpaceOnUse" id="NecklaceBiker-Mediumid198" x1="16122.3" x2="15818.4" xlink:href="#NecklaceBiker-Mediumid15" y1="17840.2" y2="18006.4">
  </linearGradient><linearGradient gradientUnits="userSpaceOnUse" id="NecklaceBiker-Mediumid62" x1="15966.8" x2="14213.8" y1="19840.7" y2="22136.3">
   <stop offset="0" style="stop-opacity:1; stop-color:#8C8C8C"/>
   <stop offset="0.231373" style="stop-opacity:1; stop-color:#F2F2F2"/>
   <stop offset="1" style="stop-opacity:1; stop-color:#8F8F8F"/>
  </linearGradient><linearGradient gradientUnits="userSpaceOnUse" id="NecklaceBiker-Mediumid178" x1="15342.3" x2="15133.5" xlink:href="#NecklaceBiker-Mediumid15" y1="22879.3" y2="23168.6">
  </linearGradient><linearGradient gradientUnits="userSpaceOnUse" id="NecklaceBiker-Mediumid66" x1="15543.9" x2="15247.9" xlink:href="#NecklaceBiker-Mediumid28" y1="21165.1" y2="22843.9">
  </linearGradient><linearGradient gradientUnits="userSpaceOnUse" id="NecklaceBiker-Mediumid200" x1="14728.4" x2="14237.9" xlink:href="#NecklaceBiker-Mediumid15" y1="22809.5" y2="23271.7">
  </linearGradient><linearGradient gradientUnits="userSpaceOnUse" id="NecklaceBiker-Mediumid217" x1="14522.5" x2="14434.9" xlink:href="#NecklaceBiker-Mediumid15" y1="22560.8" y2="22777.2">
  </linearGradient><linearGradient gradientUnits="userSpaceOnUse" id="HatBiker-Mediumid264" x1="13681.9" x2="13681.9" xlink:href="#HatBiker-Mediumid261" y1="13258.2" y2="12009.6">
  </linearGradient><linearGradient gradientUnits="userSpaceOnUse" id="BraceletBoxer-Mediumid13" x1="10659.8" x2="7242.5" xlink:href="#BraceletBoxer-Mediumid2" y1="19968.7" y2="21545.9">
  </linearGradient><linearGradient gradientUnits="userSpaceOnUse" id="BraceletBoxer-Mediumid11" x1="19283.5" x2="17541.8" xlink:href="#BraceletBoxer-Mediumid2" y1="19104.9" y2="22409.6">
  </linearGradient><linearGradient gradientUnits="userSpaceOnUse" id="BraceletBoxer-Mediumid4" x1="16783.3" x2="18659.4" y1="20597.1" y2="19307.3">
   <stop offset="0" style="stop-opacity:1; stop-color:#C4C4C4"/>
   <stop offset="0.341176" style="stop-opacity:1; stop-color:white"/>
   <stop offset="0.819608" style="stop-opacity:1; stop-color:white"/>
   <stop offset="1" style="stop-opacity:1; stop-color:#DBDBDB"/>
  </linearGradient><linearGradient gradientUnits="userSpaceOnUse" id="BraceletBoxer-Mediumid12" x1="8704.42" x2="10580.5" xlink:href="#BraceletBoxer-Mediumid4" y1="19307.3" y2="20597.1">
  </linearGradient><linearGradient gradientUnits="userSpaceOnUse" id="NecklaceShipWheelid198new" x1="15325.7" x2="12038.2" y1="17755" y2="23105.9">
   <stop offset="0" style="stop-opacity:1; stop-color:#96612C"/>
   <stop offset="1" style="stop-opacity:1; stop-color:#754515"/>
  </linearGradient><linearGradient gradientUnits="userSpaceOnUse" id="NecklaceShipWheelid27" x1="16937.6" x2="16937.6" y1="14961.3" y2="11448.6">
   <stop offset="0" style="stop-opacity:1; stop-color:#365680"/>
   <stop offset="1" style="stop-opacity:1; stop-color:black"/>
  </linearGradient><linearGradient gradientUnits="userSpaceOnUse" id="RightFoot-Fox2id71" x1="20567.8" x2="23404.3" y1="20889.9" y2="17430.7">
   <stop offset="0" style="stop-opacity:1; stop-color:#d48e77"/>
   <stop offset="1" style="stop-opacity:1; stop-color:#ad664f"/>
  </linearGradient><linearGradient gradientUnits="objectBoundingBox" id="RightLeg-Fox3id41" x1="23.3197%" x2="76.6803%" y1="93.6504%" y2="6.34959%">
   <stop offset="0" style="stop-opacity:1; stop-color:#b3a584"/>
   <stop offset="0.2" style="stop-opacity:1; stop-color:#b3a584"/>
   <stop offset="1" style="stop-opacity:1; stop-color:#99875b"/>
  </linearGradient><linearGradient gradientUnits="userSpaceOnUse" id="LeftFoot-Fox2id71" x1="20567.8" x2="23404.3" y1="20889.9" y2="17430.7">
   <stop offset="0" style="stop-opacity:1; stop-color:#d48e77"/>
   <stop offset="1" style="stop-opacity:1; stop-color:#ad664f"/>
  </linearGradient><linearGradient gradientUnits="objectBoundingBox" id="LeftLeg-Fox3id41" x1="23.3197%" x2="76.6803%" y1="93.6504%" y2="6.34959%">
   <stop offset="0" style="stop-opacity:1; stop-color:#b3a584"/>
   <stop offset="0.2" style="stop-opacity:1; stop-color:#b3a584"/>
   <stop offset="1" style="stop-opacity:1; stop-color:#99875b"/>
  </linearGradient><linearGradient gradientUnits="objectBoundingBox" id="RightHand-Fox5id128" x1="19.7151%" x2="80.2849%" y1="10.4183%" y2="89.5814%">
   <stop offset="0" style="stop-opacity:1; stop-color:#73643e"/>
   <stop offset="0.0196078" style="stop-opacity:1; stop-color:#73643e"/>
   <stop offset="0.721569" style="stop-opacity:1; stop-color:#99875b"/>
   <stop offset="1" style="stop-opacity:1; stop-color:#99875b"/>
  </linearGradient><linearGradient gradientUnits="objectBoundingBox" id="LeftHand-Fox5id128" x1="19.7151%" x2="80.2849%" y1="10.4183%" y2="89.5814%">
   <stop offset="0" style="stop-opacity:1; stop-color:#73643e"/>
   <stop offset="0.0196078" style="stop-opacity:1; stop-color:#73643e"/>
   <stop offset="0.721569" style="stop-opacity:1; stop-color:#99875b"/>
   <stop offset="1" style="stop-opacity:1; stop-color:#99875b"/>
  </linearGradient><linearGradient gradientUnits="userSpaceOnUse" id="LeftPaw-Fox1id93" x1="18753.4" x2="17671.1" y1="21628.2" y2="19462.6">
   <stop offset="0" style="stop-opacity:1; stop-color:#f2efeb"/>
   <stop offset="1" style="stop-opacity:1; stop-color:#e6ded3"/>
  </linearGradient><linearGradient gradientUnits="userSpaceOnUse" id="Ears-Fox0id0" x1="20255.9" x2="20255.9" y1="13203.8" y2="6228.15">
   <stop offset="0" style="stop-opacity:1; stop-color:#e6ded3"/>
   <stop offset="1" style="stop-opacity:1; stop-color:#f2efeb"/>
  </linearGradient><linearGradient gradientUnits="userSpaceOnUse" id="Ears-Fox0id59" x1="17144.5" x2="18024.7" y1="12109.4" y2="7878.16">
   <stop offset="0" style="stop-opacity:1; stop-color:#9C6666"/>
   <stop offset="1" style="stop-opacity:1; stop-color:#F2E6E6"/>
  </linearGradient><linearGradient gradientUnits="userSpaceOnUse" id="Ears-Fox0id38" x1="16871.2" x2="19021.7" y1="13236.2" y2="5759.79">
   <stop offset="0" style="stop-opacity:1; stop-color:#73643e"/>
   <stop offset="0.478431" style="stop-opacity:1; stop-color:#99875b"/>
   <stop offset="1" style="stop-opacity:1; stop-color:#b3a584"/>
  </linearGradient><linearGradient gradientUnits="objectBoundingBox" id="Head-Fox4id94" x1="50%" x2="50%" y1="99.9999%" y2="0%">
   <stop offset="0" style="stop-opacity:1; stop-color:#73643e"/>
   <stop offset="0.4" style="stop-opacity:1; stop-color:#99875b"/>
   <stop offset="1" style="stop-opacity:1; stop-color:#b3a584"/>
  </linearGradient><linearGradient gradientUnits="userSpaceOnUse" id="Eyes-Fox0id11" x1="16664.8" x2="17411" y1="14898.5" y2="11291.1">
   <stop offset="0" style="stop-opacity:1; stop-color:#365680"/>
   <stop offset="1" style="stop-opacity:1; stop-color:black"/>
  </linearGradient><linearGradient gradientUnits="objectBoundingBox" id="Eyes-Fox0id4" x1="100%" x2="0.00029984%" y1="50%" y2="50%">
   <stop offset="0" style="stop-opacity:1; stop-color:#365680"/>
   <stop offset="0.501961" style="stop-opacity:1; stop-color:#acd0ff"/>
   <stop offset="1" style="stop-opacity:1; stop-color:#365680"/>
  </linearGradient><linearGradient gradientUnits="userSpaceOnUse" id="Eyes-Fox0id3" x1="16867.8" x2="16867.8" y1="11330.3" y2="14359.1">
   <stop offset="0" style="stop-opacity:1; stop-color:black"/>
   <stop offset="0.4" style="stop-opacity:1; stop-color:black"/>
   <stop offset="1" style="stop-opacity:1; stop-color:#264266"/>
  </linearGradient><linearGradient gradientUnits="userSpaceOnUse" id="Hair-Fox4id37" x1="14316" x2="14150.5" y1="4497.03" y2="8171.67">
   <stop offset="0" style="stop-opacity:1; stop-color:#252b36"/>
   <stop offset="1" style="stop-opacity:1; stop-color:#404550"/>
  </linearGradient><linearGradient gradientUnits="userSpaceOnUse" id="NecklaceBiker-Mediumid93" x1="16615.3" x2="18235.9" y1="20453.6" y2="18198.3">
   <stop offset="0" style="stop-opacity:1; stop-color:#171717"/>
   <stop offset="0.690196" style="stop-opacity:1; stop-color:#42423B"/>
   <stop offset="1" style="stop-opacity:1; stop-color:#171717"/>
  </linearGradient><linearGradient gradientUnits="userSpaceOnUse" id="NecklaceBiker-Mediumid28" x1="15861.5" x2="16052.4" y1="20867.2" y2="21950">
   <stop offset="0" style="stop-opacity:1; stop-color:#171717"/>
   <stop offset="0.219608" style="stop-opacity:1; stop-color:#42423B"/>
   <stop offset="1" style="stop-opacity:1; stop-color:#171717"/>
  </linearGradient><linearGradient gradientUnits="userSpaceOnUse" id="NecklaceBiker-Mediumid15" x1="15610.3" x2="14884.4" y1="22677.5" y2="23361.6">
   <stop offset="0" style="stop-opacity:1; stop-color:#F1F1F1"/>
   <stop offset="1" style="stop-opacity:1; stop-color:#262626"/>
  </linearGradient><linearGradient gradientUnits="userSpaceOnUse" id="HatBiker-Mediumid261" x1="13681.9" x2="13681.9" y1="13237.3" y2="11919.9">
   <stop offset="0" style="stop-opacity:1; stop-color:#595959"/>
   <stop offset="1" style="stop-opacity:1; stop-color:#0F0F0F"/>
  </linearGradient><linearGradient gradientUnits="userSpaceOnUse" id="BraceletBoxer-Mediumid2" x1="20053.3" x2="17995" y1="19164.5" y2="23070.1">
   <stop offset="0" style="stop-opacity:1; stop-color:red"/>
   <stop offset="1" style="stop-opacity:1; stop-color:#990000"/>
  </linearGradient></defs><g id="HairBack-Fox0">
 <animateTransform additive="sum" attributeName="transform" dur="10" repeatCount="indefinite" type="translate" values="0;0 200;0;0 200;0;0 200;0;0 200;0"/>
  <metadata id="CorelCorpID_0Corel-Layer"/>
  <rect class="HairBack-Fox0fil0" height="908" width="908" x="13228" y="16528"/>
 </g><g id="Tail-Fox0">
  <metadata id="CorelCorpID_3Corel-Layer"/>
  <path class="Tail-Fox0fil7" d="M13378 20620c1430,1079 2131,881 3156,-587 1134,-1625 3409,-1910 5182,-921 1826,1018 2912,3368 1199,5375 -283,-960 -1569,-1990 -3117,-1031 -357,221 -801,354 -1321,495 -1328,360 -3054,471 -4808,-278 -1023,-437 -1733,-1068 -1863,-1800 -365,-262 1050,-1648 1572,-1253z" style="fill:#67ce19"/>
  <path class="Tail-Fox0fil0 Tail-Fox0str0" d="M13378 20620c1430,1079 2131,881 3156,-587 1134,-1625 3409,-1910 5182,-921 1826,1018 2912,3368 1199,5375 -283,-960 -1442,-1878 -3019,-1096 -1339,663 -3785,1324 -6227,282 -1023,-437 -1733,-1068 -1863,-1800 -365,-262 1050,-1648 1572,-1253z" style="fill:#ab29e5"/>
  <path class="Tail-Fox0fil8" d="M21463 23091c-403,-22 -1129,99 -1617,390 -367,219 -846,326 -1377,468 -1325,354 -3056,468 -4800,-276 -967,-413 -1653,-999 -1836,-1680 4592,2785 6358,-193 9630,1098z" style="fill:#f3f0aa"/>
 </g><g id="RightFoot-Fox2">
  <metadata id="CorelCorpID_17Corel-Layer"/>
  <path class="RightFoot-Fox2fil22" d="M17344 25232c-137,249 -447,331 -676,123 -79,82 -307,169 -584,76 -453,-152 -647,-627 -1039,-897 -210,-335 50,-672 -74,-810 206,-438 728,-491 1087,-467 300,20 870,160 658,684 145,50 358,135 465,193 170,92 294,217 379,350 158,246 119,748 -216,748z" style="fill:#d94837"/>
  <path class="RightFoot-Fox2fil8" d="M17344 25232c-137,249 -447,331 -676,123 -79,82 -307,169 -584,76 -453,-152 -647,-627 -1039,-897 -173,-120 -100,-408 -65,-624 13,30 63,32 85,19 1,85 -2,160 47,261 304,621 1402,1311 1539,663 237,396 662,243 605,-148 145,250 318,57 222,-294 143,96 177,309 171,486 -20,178 -119,335 -305,335z" style="fill:#58f126"/>
  <path class="RightFoot-Fox2fil0" d="M16657 23949c534,135 771,327 906,532 162,244 116,751 -219,751 -137,249 -447,331 -676,123 -79,82 -307,169 -584,76 -453,-152 -586,-562 -971,-844 -192,-140 -159,-401 -128,-554" style="fill:#36b3f6"/>
  <path class="RightFoot-Fox2fil18" d="M17265 25213c0,3 0,7 0,10 -56,86 -141,149 -240,169 -80,16 -166,3 -246,-45l-11 -8c45,-255 18,-572 -319,-636 159,118 182,399 156,611 -40,33 -112,65 -206,77 -84,11 -184,6 -293,-31 -253,-85 -404,-261 -562,-447 -265,-311 -583,-400 -489,-864 8,-41 -26,-86 -55,-89 -23,-2 -77,17 -85,58 -113,558 212,630 523,995 171,201 335,392 625,490 130,43 251,50 353,37 104,-13 191,-49 250,-89l3 0c111,81 247,115 383,88 136,-28 255,-114 333,-234 144,-15 246,-113 298,-251 29,-74 42,-157 42,-240 0,-135 -36,-275 -103,-376 -73,-110 -173,-216 -325,-313 -137,-86 -316,-165 -558,-231l-100 128c258,65 447,144 584,231 133,84 219,176 282,271 50,76 77,183 77,290 0,66 -10,130 -31,185 -24,64 -62,112 -114,138 13,-317 -122,-634 -445,-624 209,111 299,298 273,700z" style="fill:#5372a7"/>
 </g><g id="LeftFoot-Fox2">
  <metadata id="CorelCorpID_26Corel-Layer"/>
  <path class="LeftFoot-Fox2fil31" d="M9963 25232c137,249 448,331 677,123 78,82 306,169 583,76 454,-152 648,-627 1039,-897 210,-335 -49,-672 75,-810 -206,-438 -729,-491 -1088,-467 -299,20 -869,160 -657,684 -145,50 -358,135 -465,193 -170,92 -294,217 -380,350 -158,246 -118,748 216,748z" style="fill:#4b9fcd"/>
  <path class="LeftFoot-Fox2fil8" d="M9963 25232c137,249 448,331 677,123 78,82 306,169 583,76 454,-152 648,-627 1039,-897 173,-120 101,-408 65,-624 -13,30 -63,32 -84,19 -2,85 1,160 -48,261 -303,621 -1401,1311 -1539,663 -236,396 -661,243 -605,-148 -144,250 -317,57 -221,-294 -143,96 -177,309 -171,486 19,178 118,335 304,335z" style="fill:#28c641"/>
  <path class="LeftFoot-Fox2fil0" d="M10650 23949c-534,135 -770,327 -906,532 -161,244 -115,751 219,751 137,249 448,331 677,123 78,82 307,169 583,76 454,-152 587,-562 972,-844 192,-140 159,-401 128,-554" style="fill:#7946ec"/>
  <path class="LeftFoot-Fox2fil18" d="M10042 25213c0,3 0,7 0,10 57,86 142,149 241,169 80,16 166,3 245,-45l12 -8c-45,-255 -19,-572 318,-636 -158,118 -181,399 -155,611 39,33 111,65 206,77 84,11 184,6 292,-31 254,-85 404,-261 562,-447 266,-311 584,-400 490,-864 -8,-41 26,-86 55,-89 22,-2 76,17 85,58 113,558 -213,630 -523,995 -172,201 -335,392 -625,490 -131,43 -252,50 -354,37 -103,-13 -190,-49 -250,-89l-3 0c-111,81 -247,115 -382,88 -137,-28 -256,-114 -333,-234 -144,-15 -246,-113 -299,-251 -28,-74 -41,-157 -41,-240 0,-135 35,-275 102,-376 73,-110 173,-216 326,-313 136,-86 316,-165 558,-231l100 128c-259,65 -447,144 -584,231 -133,84 -219,176 -282,271 -50,76 -77,183 -77,290 0,66 10,130 31,185 24,64 62,112 114,138 -13,-317 122,-634 445,-624 -209,111 -299,298 -274,700z" style="fill:#e95646"/>
 </g><g id="RightLeg-Fox3">
  <metadata id="CorelCorpID_21Corel-Layer"/>
  <path class="RightLeg-Fox3fil26" d="M13654 20939c701,0 2353,-56 2710,226 302,239 937,901 935,1761 -1,258 -252,771 -502,975 -224,183 -468,125 -546,-15 -72,-132 3,-231 80,-241 57,-7 149,41 151,155 116,-164 -7,-389 -136,-425 -226,-64 -381,70 -430,296 -29,132 28,336 -181,421 -142,57 -337,-52 -268,-218 31,110 164,59 196,-10 40,-84 -6,-193 -124,-224 -210,-57 -408,295 -638,-35 -114,-303 -846,-438 -1247,-445l0 -2221z" style="fill:#9e29d4"/>
  <path class="RightLeg-Fox3fil25" d="M15908 23723c-11,129 10,295 -173,369 -142,57 -337,-52 -268,-218 31,110 164,59 196,-10 40,-84 -6,-193 -124,-224 -210,-57 -408,295 -638,-35 -69,-185 -368,-307 -682,-376 1,-32 4,-66 10,-103 567,42 1701,-439 1679,597l0 0z" style="fill:#c7f452"/>
  <path class="RightLeg-Fox3fil18" d="M15057 24610c33,25 62,27 88,-6 25,-32 18,-79 -15,-104 -85,-66 -111,-236 -89,-338 34,-163 71,-342 -66,-579 0,-1 -1,-3 -2,-4 -100,-171 -247,-296 -460,-378 -208,-80 -506,-119 -859,-119l0 150c335,0 616,36 805,108 180,69 302,173 385,314 0,2 1,3 2,4 108,188 77,337 48,473 -32,154 43,385 163,479zm1227 -3463c175,139 478,451 693,860 144,272 248,587 247,919 -1,245 -87,464 -218,653 -154,223 -427,476 -707,613 326,-17 760,-427 830,-528 147,-211 244,-458 244,-738 2,-360 -110,-698 -263,-989 -227,-430 -547,-760 -734,-907l-92 117z" style="fill:#9a9140"/>
  <path class="RightLeg-Fox3fil8" d="M17192 23390c67,-148 106,-305 107,-464 2,-775 -541,-1451 -869,-1752 -191,187 -411,669 -270,926 596,-490 1139,823 1032,1290z" style="fill:#e22fbc"/>
 </g><g id="LeftLeg-Fox3">
  <metadata id="CorelCorpID_30Corel-Layer"/>
  <path class="LeftLeg-Fox3fil33" d="M13654 20939c-701,0 -2353,-56 -2710,226 -303,239 -938,901 -935,1761 1,258 251,771 501,975 225,183 469,125 546,-15 73,-132 -3,-231 -80,-241 -57,-7 -149,41 -150,155 -116,-164 7,-389 135,-425 226,-64 382,70 431,296 29,132 -28,336 181,421 141,57 337,-52 268,-218 -31,110 -164,59 -197,-10 -39,-84 6,-193 125,-224 210,-57 408,295 638,-35 114,-303 845,-438 1247,-445l0 -2221z" style="fill:#7dd56f"/>
  <path class="LeftLeg-Fox3fil25" d="M11399 23723c12,129 -9,295 174,369 141,57 337,-52 268,-218 -31,110 -164,59 -197,-10 -39,-84 6,-193 125,-224 210,-57 408,295 638,-35 69,-185 368,-307 681,-376 -1,-32 -4,-66 -9,-103 -567,42 -1702,-439 -1680,597l0 0z" style="fill:#22cd05"/>
  <path class="LeftLeg-Fox3fil18" d="M12251 24610c-33,25 -63,27 -88,-6 -25,-32 -19,-79 14,-104 85,-66 111,-236 90,-338 -34,-163 -72,-342 65,-579 1,-1 2,-3 3,-4 100,-171 246,-296 460,-378 208,-80 506,-119 859,-119l0 150c-335,0 -616,36 -806,108 -179,69 -302,173 -384,314 -1,2 -2,3 -2,4 -109,188 -77,337 -49,473 33,154 -42,385 -162,479zm-1227 -3463c-176,139 -478,451 -694,860 -143,272 -247,587 -246,919 0,245 86,464 217,653 155,223 428,476 708,613 -326,-17 -761,-427 -831,-528 -146,-211 -243,-458 -244,-738 -1,-360 110,-698 264,-989 226,-430 547,-760 733,-907l93 117z" style="fill:#f3f6df"/>
  <path class="LeftLeg-Fox3fil8" d="M10116 23390c-67,-148 -107,-305 -107,-464 -2,-775 540,-1451 869,-1752 190,187 411,669 269,926 -595,-490 -1138,823 -1031,1290z" style="fill:#47c1e3"/>
 </g><g id="RightHand-Fox5">
 <animateTransform additive="sum" attributeName="transform" dur="10" repeatCount="indefinite" type="translate" values="0;0 200;0;0 200;0;0 200;0;0 200;0"/>
  <metadata id="CorelCorpID_38Corel-Layer"/>
  <path class="RightHand-Fox5fil38" d="M15438 17646c166,-72 204,-213 419,-180 415,64 1161,503 1199,783 124,-70 107,-274 69,-401 215,95 250,597 450,791 379,419 694,862 872,1173 282,489 -618,1230 -886,986 -389,-355 -757,-565 -1090,-638 -348,-77 -727,-1837 -1033,-2514z" style="fill:#7a04c2"/>
  <path class="RightHand-Fox5fil18" d="M15914 17398c-40,-11 -81,12 -92,51 -12,40 11,82 51,93 148,42 316,118 472,200 134,71 458,199 546,317 58,77 125,166 -18,288 -54,47 -3,126 61,108 194,-52 322,-326 256,-486 123,120 104,480 293,691 165,186 317,376 450,561 158,218 292,431 401,620 20,36 66,48 102,28 36,-21 48,-66 28,-102 -110,-191 -247,-408 -409,-633 -138,-191 -247,-350 -419,-534 -197,-211 -221,-824 -516,-839 -59,-3 -117,57 -73,129 44,72 43,168 22,244 -25,-274 -493,-438 -654,-524 -164,-87 -343,-167 -501,-212zm1596 3455c31,28 78,26 106,-5 28,-30 26,-78 -5,-105 -202,-185 -406,-340 -604,-454 -189,-108 -374,-179 -546,-201 -41,-5 -79,24 -84,64 -5,41 24,79 65,84 151,20 317,84 491,183 189,109 385,258 577,434z" style="fill:#ba93e9"/>
  <path class="RightHand-Fox5fil8" d="M17390 20682c-242,-242 -554,-457 -866,-480 -152,-170 -246,-612 -157,-856 201,284 528,601 788,813 127,103 289,193 380,265 -29,81 -73,157 -144,221 0,12 -1,25 -1,37z" style="fill:#6f7953"/>
 </g><g id="LeftHand-Fox5">
 <animateTransform additive="sum" attributeName="transform" dur="10" repeatCount="indefinite" type="translate" values="0;0 200;0;0 200;0;0 200;0;0 200;0"/>
  <metadata id="CorelCorpID_49Corel-Layer"/>
  <path class="LeftHand-Fox5fil47" d="M11870 17646c-166,-72 -204,-213 -419,-180 -415,64 -1161,503 -1200,783 -124,-70 -107,-274 -68,-401 -215,95 -250,597 -450,791 -380,419 -694,862 -873,1173 -281,489 619,1230 887,986 388,-355 757,-565 1089,-638 349,-77 728,-1837 1034,-2514z" style="fill:#b0690c"/>
  <path class="LeftHand-Fox5fil18" d="M11394 17398c39,-11 81,12 92,51 11,40 -12,82 -51,93 -148,42 -317,118 -472,200 -134,71 -458,199 -547,317 -58,77 -124,166 18,288 55,47 3,126 -60,108 -194,-52 -322,-326 -257,-486 -122,120 -104,480 -292,691 -165,186 -317,376 -451,561 -157,218 -292,431 -400,620 -21,36 -66,48 -102,28 -36,-21 -49,-66 -28,-102 109,-191 247,-408 409,-633 138,-191 246,-350 418,-534 198,-211 221,-824 517,-839 58,-3 116,57 72,129 -44,72 -43,168 -22,244 26,-274 493,-438 655,-524 164,-87 343,-167 501,-212zm-1597 3455c-30,28 -77,26 -105,-5 -28,-30 -26,-78 4,-105 202,-185 407,-340 604,-454 190,-108 375,-179 547,-201 41,-5 78,24 83,64 6,41 -23,79 -64,84 -151,20 -318,84 -491,183 -189,109 -385,258 -578,434z" style="fill:#b3f6a3"/>
  <path class="LeftHand-Fox5fil8" d="M9918 20682c242,-242 553,-457 866,-480 152,-170 245,-612 156,-856 -201,284 -527,601 -787,813 -127,103 -289,193 -380,265 29,81 73,157 144,221 0,12 1,25 1,37z" style="fill:#a6bdb0"/>
 </g><g id="Body-Fox0">
 <animateTransform additive="sum" attributeName="transform" dur="10" repeatCount="indefinite" type="translate" values="0;0 200;0;0 200;0;0 200;0;0 200;0"/>
  <metadata id="CorelCorpID_55Corel-Layer"/>
  <path class="Body-Fox0fil53" d="M13654 23035c-1331,-3 -2731,-477 -2932,-1956 -143,-1051 441,-2541 1033,-3671 326,53 1001,53 1899,54 897,-1 1572,-1 1899,-54 591,1130 1176,2620 1033,3671 -202,1479 -1601,1953 -2932,1956z" style="fill:#5ff886"/>
  <path class="Body-Fox0fil8" d="M12532 22906c-908,-225 -1666,-768 -1810,-1827 -69,-505 31,-1112 218,-1732 -261,1919 185,3039 1592,3559z" style="fill:#8bf848"/>
  <path class="Body-Fox0fil18" d="M11147 22100c-343,-354 -481,-873 -499,-1011 -34,-248 -29,-518 7,-802 17,-134 156,-771 285,-941 -140,680 -199,1317 -144,1723 41,304 111,608 351,1031z" style="fill:#335cbe"/>
  <path class="Body-Fox0fil8" d="M14775 22906c908,-225 1667,-768 1811,-1827 69,-505 -31,-1112 -219,-1732 261,1919 -185,3039 -1592,3559z" style="fill:#6d5d8f"/>
  <path class="Body-Fox0fil18" d="M16160 22100c344,-354 481,-873 500,-1011 34,-248 28,-518 -8,-802 -17,-134 -155,-771 -285,-941 141,680 200,1317 145,1723 -42,304 -112,608 -352,1031z" style="fill:#0718c5"/>
  <path class="Body-Fox0fil54" d="M11307 21496c-422,-1195 608,-2186 164,-4430 661,0 1522,0 2183,0 661,0 1522,0 2183,0 -445,2244 586,3235 164,4430 -611,1728 -4084,1728 -4694,0z" style="fill:#db2dd6"/>
 </g><g id="RightPaw-Fox1">
 <animateTransform additive="sum" attributeName="transform" dur="10" repeatCount="indefinite" type="translate" values="0;0 200;0;0 200;0;0 200;0;0 200;0"/>
  <metadata id="CorelCorpID_40Corel-Layer"/>
  <path class="RightPaw-Fox1fil40" d="M17391 20645c-37,796 536,1303 918,955 300,471 1048,122 959,-347 241,-634 -518,-1244 -954,-1587 -129,-155 -206,-274 -278,-399 17,326 -300,151 -507,69 111,217 22,587 -418,535 95,134 203,471 26,573 52,47 227,170 254,201z" style="fill:#6186f6"/>
  <path class="RightPaw-Fox1fil8" d="M17391 20645c-37,796 536,1303 918,955 300,471 1048,122 959,-347 15,-41 27,-81 34,-122 -52,-54 -116,-106 -195,-155 141,440 -471,730 -702,246 -315,467 -757,67 -766,-341 -3,-175 -7,-286 -49,-362 -49,-89 -173,-162 -359,-302 6,96 -18,184 -94,227 52,47 227,170 254,201z" style="fill:#943506"/>
  <path class="RightPaw-Fox1fil18" d="M18407 21599c103,-158 125,-439 -86,-523 72,118 25,376 -67,463 -134,127 -256,135 -418,31 -90,-58 -174,-151 -239,-271 -90,-168 -144,-386 -134,-638 1,-21 -7,-51 -23,-67 -51,-48 -201,-153 -251,-190 -33,-24 -85,-11 -108,21 -24,33 -10,73 22,96 42,31 171,138 213,169 -5,265 56,497 153,678 77,142 178,253 288,324 173,111 373,124 545,8 98,117 225,176 358,190 204,21 420,-68 557,-220 100,-112 156,-256 133,-414 223,-631 -399,-1134 -840,-1491 -102,-82 -130,-143 -201,-248 -22,-33 -232,-290 -265,-268 -34,22 -43,68 -20,101 87,129 149,222 187,282 64,98 106,165 207,248 346,280 842,694 831,1091 -51,-68 -153,-154 -273,-142 186,156 313,547 133,744 -107,116 -276,188 -434,172 -100,-10 -195,-56 -268,-146z" style="fill:#a07baa"/>
 </g><g id="LeftPaw-Fox1">
 <animateTransform additive="sum" attributeName="transform" dur="10" repeatCount="indefinite" type="translate" values="0;0 200;0;0 200;0;0 200;0;0 200;0"/>
  <metadata id="CorelCorpID_51Corel-Layer"/>
  <path class="LeftPaw-Fox1fil49" d="M9917 20645c36,796 -537,1303 -918,955 -300,471 -1048,122 -959,-347 -241,-634 518,-1244 954,-1587 129,-155 205,-274 278,-399 -17,326 300,151 507,69 -111,217 -23,587 418,535 -95,134 -204,471 -27,573 -51,47 -226,170 -253,201z" style="fill:#e0e6fb"/>
  <path class="LeftPaw-Fox1fil8" d="M9917 20645c36,796 -537,1303 -918,955 -300,471 -1048,122 -959,-347 -16,-41 -27,-81 -34,-122 52,-54 116,-106 194,-155 -140,440 472,730 703,246 315,467 757,67 765,-341 4,-175 8,-286 50,-362 49,-89 173,-162 359,-302 -6,96 17,184 93,227 -51,47 -226,170 -253,201z" style="fill:#4ffeb6"/>
  <path class="LeftPaw-Fox1fil18" d="M8901 21599c-104,-158 -125,-439 86,-523 -73,118 -25,376 67,463 134,127 256,135 418,31 90,-58 173,-151 238,-271 91,-168 145,-386 135,-638 -1,-21 6,-51 23,-67 51,-48 200,-153 251,-190 32,-24 84,-11 108,21 24,33 10,73 -23,96 -42,31 -170,138 -213,169 5,265 -55,497 -153,678 -76,142 -177,253 -287,324 -173,111 -373,124 -545,8 -98,117 -226,176 -358,190 -205,21 -421,-68 -557,-220 -100,-112 -156,-256 -133,-414 -223,-631 399,-1134 840,-1491 101,-82 130,-143 200,-248 23,-33 233,-290 266,-268 33,22 42,68 20,101 -87,129 -149,222 -187,282 -64,98 -106,165 -208,248 -346,280 -841,694 -830,1091 51,-68 153,-154 272,-142 -185,156 -312,547 -132,744 107,116 276,188 434,172 99,-10 195,-56 268,-146z" style="fill:#13f4d0"/>
 </g><g id="Ears-Fox0">
 <animateTransform additive="sum" attributeName="transform" dur="10" repeatCount="indefinite" type="translate" values="0;0 200;0;0 200;0;0 200;0;0 200;0"/>
  <metadata id="CorelCorpID_62Corel-Layer"/>
  <path class="Ears-Fox0fil61 Ears-Fox0str1" d="M6977 5380c-586,470 -1285,5624 1175,8314 989,-1846 2965,-3786 4268,-4082 -1078,-3159 -4878,-4684 -5443,-4232z" style="fill:#d30176"/>
  <path class="Ears-Fox0fil62" d="M11531 9366c-1158,-2499 -3809,-3644 -4096,-3142 -661,1158 -336,5198 865,6345 899,-701 2332,-2503 3231,-3203z" style="fill:#37e523"/>
  <path class="Ears-Fox0fil8" d="M10967 8397c-1290,-1818 -3285,-2605 -3532,-2173 -103,180 -182,431 -238,730 550,-1426 3106,778 3476,1712 99,-95 192,-187 294,-269z" style="fill:#0d9a19"/>
  <path class="Ears-Fox0fil63" d="M11439 9441c-879,-1190 -2130,-1776 -2638,-1727 -838,82 -1000,3119 67,4562 898,-700 1673,-2135 2571,-2835z" style="fill:#89a8c5"/>
  <path class="Ears-Fox0fil64 Ears-Fox0str1" d="M20387 5380c586,470 1285,5624 -1175,8314 -990,-1846 -2965,-3786 -4268,-4082 1078,-3159 4878,-4684 5443,-4232z" style="fill:#f6e86b"/>
  <path class="Ears-Fox0fil65" d="M15833 9366c1158,-2499 3809,-3644 4095,-3142 662,1158 337,5198 -865,6345 -898,-701 -2332,-2503 -3230,-3203z" style="fill:#9541c9"/>
  <path class="Ears-Fox0fil8" d="M16397 8397c1290,-1818 3285,-2605 3531,-2173 104,180 183,431 238,730 -549,-1426 -3105,778 -3475,1712 -99,-95 -192,-187 -294,-269z" style="fill:#46fd0f"/>
  <path class="Ears-Fox0fil66" d="M15925 9441c879,-1190 2130,-1776 2638,-1727 838,82 1000,3119 -67,4562 -898,-700 -1673,-2135 -2571,-2835z" style="fill:#98b7f0"/>
 </g><g id="NecklaceBiker-Medium">
 <animateTransform additive="sum" attributeName="transform" dur="10" repeatCount="indefinite" type="translate" values="0;0 200;0;0 200;0;0 200;0;0 200;0"/>
  <metadata id="CorelCorpID_18Corel-Layer"/>
  <path class="NecklaceBiker-Mediumfil12" d="M12430 17786c683,386 1515,3980 436,4851 -782,-142 -782,-314 -1564,-456 495,-1333 633,-3062 1128,-4395z" style="fill:#7db397"/>
  <path class="NecklaceBiker-Mediumfil12" d="M14930 17786c-683,386 -1514,3980 -435,4851 782,-142 782,-314 1564,-456 -495,-1333 -634,-3062 -1129,-4395z" style="fill:#920ca3"/>
  <path class="NecklaceBiker-Mediumfil89 NecklaceBiker-Mediumstr1" d="M10111 17863c-435,-63 -1258,1376 -1310,1661 -83,470 1245,1478 1459,1345 54,-101 227,-249 281,-350 180,-53 359,-106 538,-159 -23,-510 -47,-1021 -70,-1531 -206,-353 -413,-706 -619,-1058 -93,30 -186,61 -279,92z" style="fill:#4082ed"/>
  <path class="NecklaceBiker-Mediumfil9" d="M9561 20537c305,234 606,390 699,332 54,-101 227,-249 281,-350 180,-53 359,-106 538,-159 -6,-138 -13,-275 -19,-413 -43,-325 -368,-501 -411,-825 -28,848 -517,1687 -1088,1415z" style="fill:#830e27"/>
  <path class="NecklaceBiker-Mediumfil90 NecklaceBiker-Mediumstr1" d="M12812 22813c113,-327 214,-1081 186,-1614 -180,-1126 -786,-2285 -680,-3132 -29,-172 -274,-176 -303,-349 -342,-129 -423,-167 -765,-296 -674,368 -1154,155 -1139,441 515,289 730,2038 430,2656 12,272 -52,620 -126,806 73,818 2021,1342 2397,1488z" style="fill:#601946"/>
  <path class="NecklaceBiker-Mediumfil91 NecklaceBiker-Mediumstr2" d="M11921 18710c23,-1 47,-2 71,-3 24,-1 48,-2 72,-3 38,-1 79,43 91,98 0,0 0,0 0,0 13,55 -8,101 -45,103 -24,0 -48,1 -71,2 -24,1 -48,2 -71,3 -38,2 -79,-42 -92,-97 0,0 0,0 0,0 -14,-55 7,-102 45,-103zm52 220c23,-1 47,-2 70,-3 24,-1 48,-1 71,-2 38,-2 78,42 90,97 0,0 0,0 0,0 12,55 -9,102 -46,103 -24,1 -47,2 -70,3 -24,1 -47,2 -71,3 -37,1 -78,-43 -90,-98 0,0 0,0 0,0 -12,-55 8,-101 46,-103zm49 220c23,-1 47,-2 70,-3 23,0 47,-1 70,-2 37,-2 77,42 88,97 0,0 0,0 0,0 12,55 -9,102 -46,103 -24,1 -47,2 -70,3 -23,1 -47,2 -70,3 -37,1 -77,-43 -88,-98 0,0 0,0 0,0 -12,-55 8,-101 46,-103zm46 221c23,-1 47,-2 70,-3 23,-1 46,-2 70,-3 37,-1 76,43 86,98 0,0 0,0 0,0 11,55 -11,101 -47,102 -23,1 -47,2 -70,3 -23,1 -46,2 -69,3 -37,1 -75,-43 -86,-97 0,0 0,0 0,0 -11,-56 9,-102 46,-103zm44 220c23,-1 46,-2 69,-3 23,-1 46,-2 70,-2 36,-2 75,42 85,97 0,0 0,0 0,0 10,55 -12,102 -49,103 -23,1 -46,2 -69,3 -23,1 -46,2 -68,3 -37,1 -75,-43 -85,-98 0,0 0,0 0,0 -11,-55 10,-102 47,-103zm41 220c23,-1 46,-1 69,-2 23,-1 46,-2 69,-3 36,-2 74,42 84,98 0,0 0,0 0,0 9,55 -13,101 -50,103 -23,1 -45,1 -68,2 -23,1 -46,2 -69,3 -36,1 -74,-43 -83,-98 0,0 0,0 0,0 -10,-55 12,-101 48,-103zm39 221c22,-1 45,-2 68,-3 23,0 46,-1 69,-2 36,-2 73,42 82,98 0,0 0,0 0,0 9,55 -14,101 -50,103 -23,0 -46,1 -69,2 -22,1 -45,2 -68,3 -36,1 -73,-43 -81,-98 0,0 0,0 0,0 -10,-55 12,-101 49,-103zm35 221c23,-1 46,-2 69,-3 22,-1 45,-2 68,-3 36,-1 73,43 81,98 0,0 0,0 0,0 8,55 -15,102 -51,103 -23,1 -46,2 -69,3 -22,1 -45,2 -68,3 -36,1 -72,-43 -80,-98 0,0 0,0 0,0 -8,-56 14,-102 50,-103zm33 221c23,-1 46,-2 68,-3 23,-1 46,-2 68,-3 37,-1 73,43 80,98 0,0 0,0 0,0 8,55 -16,102 -52,103 -23,1 -45,2 -68,3 -23,1 -46,1 -68,2 -36,2 -72,-42 -79,-97 0,0 0,0 0,-1 -8,-54 15,-101 51,-102zm30 221c23,-1 46,-2 69,-3 22,-1 45,-2 68,-3 36,-1 71,43 78,98 0,0 0,0 0,0 7,55 -17,102 -53,103 -23,1 -46,2 -68,3 -23,1 -46,2 -68,3 -36,1 -71,-43 -78,-98 0,0 0,0 0,0 -7,-56 16,-102 52,-103zm28 220c23,0 45,-1 68,-2 23,-1 45,-2 68,-3 36,-1 71,43 78,98 0,0 0,0 0,0 6,55 -19,102 -55,103 -23,1 -45,2 -68,3 -23,1 -46,2 -68,3 -37,1 -71,-43 -77,-98 0,0 0,0 0,0 -6,-56 18,-102 54,-104zm25 222c22,-1 45,-2 68,-3 23,-1 45,-2 68,-3 36,-1 71,43 77,98 0,0 0,0 0,0 6,56 -20,102 -56,104 -23,1 -46,1 -69,2 -23,1 -45,2 -68,3 -36,1 -70,-43 -76,-98 0,0 0,0 0,0 -5,-55 19,-102 56,-103zm22 221c22,-1 45,-2 68,-3 23,-1 46,-2 69,-3 36,-1 70,43 75,99 0,0 0,0 0,0 6,55 -20,101 -57,103 -23,1 -46,2 -69,3 -23,0 -46,1 -69,2 -36,2 -69,-42 -74,-98 0,0 0,0 0,0 -5,-55 20,-102 57,-103zm19 221c23,0 46,-1 69,-2 23,-1 46,-2 69,-3 36,-1 70,43 75,98 0,0 0,0 0,0 4,55 -23,102 -59,103 -23,1 -47,2 -70,3 -23,1 -46,2 -69,3 -37,1 -70,-43 -74,-98 0,0 0,0 0,-1 -4,-55 22,-101 59,-103zm16 222c23,-1 47,-2 70,-3 23,-1 46,-2 69,-3 37,-1 70,43 74,98 0,0 0,0 0,0 4,56 -23,102 -60,104 -23,1 -47,2 -70,3 -23,1 -47,1 -70,2 -37,2 -70,-42 -73,-98 0,0 0,0 0,0 -4,-55 24,-102 60,-103zm14 221c23,-1 47,-2 70,-3 23,0 47,-1 70,-2 37,-2 70,42 74,98 0,0 0,0 0,0 3,55 -25,102 -62,103 -24,1 -48,2 -71,3 -24,1 -47,2 -71,3 -37,1 -70,-43 -73,-98 0,0 0,0 0,0 -2,-56 26,-102 63,-104zm11 222c24,-1 47,-2 71,-3 23,-1 47,-2 70,-2 38,-2 71,42 74,98 0,0 7,145 7,145 3,55 -26,101 -64,103 -24,1 -48,2 -72,3 -23,0 -47,1 -71,2 -38,2 -71,-42 -72,-97 0,0 -8,-145 -8,-145 -2,-56 27,-102 65,-104z" style="fill:#6e5221"/>
  <path class="NecklaceBiker-Mediumfil9" d="M12986 21803c16,-210 22,-420 12,-604 -180,-1126 -786,-2285 -680,-3132 -29,-172 -274,-176 -303,-349 -342,-129 -423,-167 -765,-296 -330,180 -613,221 -814,249 300,23 547,145 716,412 -23,252 -104,285 -35,550 80,309 515,-190 811,-70 -190,357 -894,835 -571,1072 729,534 1368,1248 1629,2168z" style="fill:#4d6448"/>
  <path class="NecklaceBiker-Mediumfil92 NecklaceBiker-Mediumstr1" d="M11210 17321c-150,262 -248,635 -226,967 11,162 140,185 246,119 347,-217 669,-294 988,-340 -277,201 -556,421 -754,738 -152,244 -136,341 21,444 476,311 1352,1203 1513,1950 18,-1435 -352,-2917 -656,-3793 -444,7 -688,-91 -1132,-85z" style="fill:#a58e56"/>
  <path class="NecklaceBiker-Mediumfil93 NecklaceBiker-Mediumstr1" d="M9584 20277c195,-219 333,-425 492,-672 -344,-288 -699,-689 -787,-1128 -152,-12 -375,-27 -489,-45 -89,216 -131,505 -71,739 150,384 456,818 855,1106z" style="fill:#fb4724"/>
  <path class="NecklaceBiker-Mediumfil94 NecklaceBiker-Mediumstr1" d="M8706 19397c-10,-168 555,-841 741,-770 47,89 95,178 143,267 -195,-5 -703,636 -712,804 -34,1 -204,-218 -172,-301z" style="fill:#d022dc"/>
  <path class="NecklaceBiker-Mediumfil95 NecklaceBiker-Mediumstr1" d="M10622 20354c97,376 578,512 936,695 158,81 230,231 276,359 0,327 40,395 40,722 -343,-375 -1424,-652 -1429,-1096 89,-239 146,-405 177,-680z" style="fill:#8d3cd9"/>
  <path class="NecklaceBiker-Mediumfil96 NecklaceBiker-Mediumstr1" d="M11541 21015c220,330 387,1160 274,2054 9,199 13,504 -2,742 170,-46 435,-407 463,-604 80,-583 44,-1776 -735,-2192z" style="fill:#6941b5"/>
  <path class="NecklaceBiker-Mediumfil97 NecklaceBiker-Mediumstr1" d="M11196 21855c-101,-135 1,-1008 194,-1051 89,48 178,96 267,144 -166,103 -236,917 -151,1063 -28,20 -291,-70 -310,-156z" style="fill:#d7a47e"/>
  <circle class="NecklaceBiker-Mediumfil98 NecklaceBiker-Mediumstr2" cx="11850" cy="18989" r="186"/>
  <path class="NecklaceBiker-Mediumfil99 NecklaceBiker-Mediumstr2" d="M11337 17754c99,-25 198,26 219,113 22,87 -42,177 -141,202 -100,24 -198,-26 -220,-113 -21,-87 42,-177 142,-202z" style="fill:#0bb7c4"/>
  <path class="NecklaceBiker-Mediumfil100 NecklaceBiker-Mediumstr1" d="M17253 17863c435,-63 1258,1376 1309,1661 84,470 -1244,1478 -1458,1345 -54,-101 -227,-249 -282,-350 -179,-53 -358,-106 -537,-159 23,-510 46,-1021 70,-1531 206,-353 413,-706 619,-1058 93,30 186,61 279,92z" style="fill:#ec2988"/>
  <path class="NecklaceBiker-Mediumfil9" d="M17807 20537c-305,234 -606,390 -699,332 -54,-101 -227,-249 -282,-350 -179,-53 -358,-106 -537,-159 6,-138 13,-275 19,-413 43,-325 368,-501 411,-825 28,848 517,1687 1088,1415z" style="fill:#b2c531"/>
  <path class="NecklaceBiker-Mediumfil101 NecklaceBiker-Mediumstr1" d="M14551 22813c-112,-327 -214,-1081 -186,-1614 181,-1126 787,-2285 681,-3132 28,-172 274,-176 303,-349 342,-129 423,-167 765,-296 674,368 1154,155 1139,441 -515,289 -730,2038 -431,2656 -11,272 53,620 127,806 -73,818 -2022,1342 -2398,1488z" style="fill:#dfc2dd"/>
  <path class="NecklaceBiker-Mediumfil9" d="M14435 21390c271,-542 900,-1297 1457,-1583 245,-126 -381,-946 -765,-1277 335,58 985,415 994,145 6,-184 -42,-406 -169,-488 -299,-108 -598,-217 -897,-325 -255,542 -691,2288 -620,3528z" style="fill:#9a4663"/>
  <path class="NecklaceBiker-Mediumfil102 NecklaceBiker-Mediumstr1" d="M16154 17321c132,230 260,636 214,1043 -11,100 -110,144 -188,89 -370,-262 -693,-337 -1034,-386 306,222 646,479 866,838 40,65 60,185 -41,286 -273,166 -1413,1120 -1606,2008 -18,-1435 353,-2917 657,-3793 443,7 688,-91 1132,-85z" style="fill:#8131e7"/>
  <path class="NecklaceBiker-Mediumfil103 NecklaceBiker-Mediumstr1" d="M17780 20277c-196,-219 -334,-425 -492,-672 344,-288 699,-689 787,-1128 152,-12 375,-27 489,-45 89,216 131,505 71,739 -150,384 -456,818 -855,1106z" style="fill:#1a6b7e"/>
  <path class="NecklaceBiker-Mediumfil104 NecklaceBiker-Mediumstr1" d="M18658 19397c10,-168 -555,-841 -741,-770 -48,89 -95,178 -143,267 195,-5 703,636 712,804 34,1 204,-218 172,-301z" style="fill:#6f415a"/>
  <path class="NecklaceBiker-Mediumfil105 NecklaceBiker-Mediumstr1" d="M16742 20354c-97,376 -578,512 -936,695 -158,81 -230,231 -276,359 -147,241 -232,544 -232,872 342,-376 1615,-802 1621,-1246 -89,-239 -146,-405 -177,-680z" style="fill:#68e072"/>
  <path class="NecklaceBiker-Mediumfil106 NecklaceBiker-Mediumstr1" d="M16168 21855c101,-135 -1,-1008 -195,-1051 -89,48 -177,96 -266,144 165,103 236,917 151,1063 28,20 290,-70 310,-156z" style="fill:#f5c53c"/>
  <circle class="NecklaceBiker-Mediumfil107 NecklaceBiker-Mediumstr2" cx="15518" cy="18892" r="186"/>
  <path class="NecklaceBiker-Mediumfil108" d="M15521 18763c68,0 124,55 124,124 0,43 -22,81 -55,103 8,-16 12,-34 12,-53 0,-69 -56,-125 -124,-125 -26,0 -50,8 -69,21 20,-42 62,-70 112,-70z" style="fill:#373738"/>
  <path class="NecklaceBiker-Mediumfil109 NecklaceBiker-Mediumstr2" d="M16008 17766c100,24 164,114 143,201 -21,87 -119,138 -219,114 -99,-24 -163,-114 -142,-201 21,-87 119,-138 218,-114z" style="fill:#fb19e1"/>
  <path class="NecklaceBiker-Mediumfil110 NecklaceBiker-Mediumstr2" d="M15902 19176l57 72c30,37 24,93 -14,124l-146 118c-38,30 -94,24 -124,-14l-57 -72c-30,-38 -24,-93 14,-124l146 -118c38,-31 94,-24 124,14zm-309 242l65 65c34,35 33,91 -1,125l-17 17c-34,34 -91,33 -125,-1l-64 -65c-34,-35 -34,-91 1,-125l16 -17c35,-34 91,-33 125,1zm-165 159l64 65c34,35 34,91 -1,125l-17 16c-34,34 -90,34 -124,0l-65 -66c-34,-34 -33,-90 1,-124l17 -17c34,-34 90,-34 125,1zm-176 165l64 66c34,34 34,90 -1,124l-17 17c-34,34 -90,34 -124,-1l-65 -65c-34,-35 -33,-91 1,-125l17 -16c34,-34 91,-34 125,0zm-166 165l67 63c35,33 36,90 3,125l-16 17c-34,35 -90,36 -125,3l-67 -63c-35,-33 -36,-90 -3,-125l16 -17c34,-35 90,-37 125,-3zm-152 165l67 64c35,33 36,89 3,124l-16 17c-34,36 -90,37 -125,4l-66 -63c-36,-34 -37,-90 -4,-125l17 -17c33,-35 89,-37 124,-4zm-147 166l73 55c39,28 48,84 19,123l-14 19c-29,39 -85,47 -124,18l-73 -54c-39,-29 -48,-85 -19,-124l14 -19c29,-39 85,-47 124,-18zm-124 168l75 53c40,28 50,83 22,123l-13 19c-28,40 -84,50 -123,22l-76 -53c-39,-27 -49,-83 -21,-122l13 -20c28,-39 83,-49 123,-22zm-137 188l80 45c42,24 57,79 32,121l-11 20c-25,42 -79,57 -121,33l-79 -46c-42,-24 -57,-78 -33,-120l12 -21c24,-42 78,-57 120,-32zm-80 197l86 34c45,18 67,69 49,114l-9 22c-18,45 -70,67 -115,49l-85 -34c-45,-18 -67,-69 -49,-114l9 -22c18,-45 69,-68 114,-49zm-76 219l90 20c47,10 78,57 67,105l-5 23c-10,47 -57,78 -104,67l-90 -19c-48,-11 -78,-58 -68,-105l5 -23c11,-48 58,-78 105,-68zm-33 238l92 -2c48,-1 89,38 90,86l1 24c1,48 -38,89 -86,90l-92 2c-49,1 -89,-38 -90,-86l-1 -24c-1,-48 38,-89 86,-90zm16 223l92 -6c48,-4 91,33 94,81l2 24c3,48 -33,91 -82,94l-91 7c-49,3 -91,-33 -95,-82l-1 -23c-4,-49 33,-91 81,-95zm21 221l91 -6c49,-4 91,33 95,81l1 24c4,48 -33,91 -81,94l-92 7c-48,3 -91,-33 -94,-82l-2 -23c-3,-49 33,-91 82,-95zm14 204l91 -7c49,-3 91,33 95,82l1 23c4,49 -33,91 -81,95l-92 6c-48,4 -91,-33 -94,-81l-2 -24c-3,-48 33,-91 82,-94zm25 221l91 -13c48,-6 92,28 99,76l3 23c7,48 -27,93 -75,100l-91 12c-48,6 -93,-28 -100,-76l-3 -23c-6,-48 28,-93 76,-99zm-62 231l111 -22c58,-11 189,14 191,74l9 284c1,59 -28,116 -86,127l-111 22c-59,11 -98,-34 -127,-86l-131 -226c-29,-52 85,-162 144,-173z" style="fill:#68997a"/>
  <polygon class="NecklaceBiker-Mediumfil111 NecklaceBiker-Mediumstr3" points="15177,23255 15180,22679 15299,22858 15293,23368 "/>
  <path class="NecklaceBiker-Mediumfil112 NecklaceBiker-Mediumstr3" d="M15045 22397l446 340c69,57 120,143 120,267l4 527c0,124 -126,170 -194,112l-451 -372c-68,-58 -91,-177 -91,-301l0 -469c0,-123 98,-161 166,-104zm350 537l-318 -299c-11,-9 -19,-2 -19,16l0 404c0,17 8,39 19,48l320 281c10,9 19,2 19,-16l-2 -386c0,-16 -9,-40 -19,-48z" style="fill:#d68afd"/>
  <path class="NecklaceBiker-Mediumfil113 NecklaceBiker-Mediumstr1" d="M15758 21062c-220,215 -600,993 -382,1885 -170,-111 -207,-160 -303,-273 -128,-460 48,-1272 685,-1612z" style="fill:#07b625"/>
  <path class="NecklaceBiker-Mediumfil9" d="M15758 21062c-220,215 -600,993 -382,1885 -170,-111 -207,-160 -303,-273 -128,-460 48,-1272 685,-1612z" style="fill:#86573e"/>
  <polygon class="NecklaceBiker-Mediumfil114 NecklaceBiker-Mediumstr3" points="14395,22643 14196,23133 14305,23421 14654,23438 14770,23153 14582,22649 "/>
  <polygon class="NecklaceBiker-Mediumfil115 NecklaceBiker-Mediumstr3" points="14360,22520 14522,22484 14597,22818 14435,22854 "/>
  <path class="NecklaceBiker-Mediumfil116" d="M17138 17819c-502,-75 -681,1139 -569,1859 8,-937 325,-1749 569,-1859z" style="fill:#28015e"/>
  <path class="NecklaceBiker-Mediumfil116" d="M10225 17819c502,-75 681,1139 568,1859 -7,-937 -325,-1749 -568,-1859z" style="fill:#8dd2a7"/>
  <path class="NecklaceBiker-Mediumfil116" d="M17432 18014c-226,-147 -367,206 -407,497 154,-406 341,-467 407,-497z" style="fill:#0c4228"/>
  <path class="NecklaceBiker-Mediumfil116" d="M17959 18890c39,-4 95,-122 80,-156 30,23 48,38 73,59 30,36 -56,163 -85,154 -23,-21 -40,-34 -68,-57z" style="fill:#68f815"/>
  <path class="NecklaceBiker-Mediumfil116" d="M17421 19614c155,-50 490,-295 587,-448 -39,-40 -52,-52 -92,-92 -83,158 -266,348 -495,540z" style="fill:#e108cb"/>
  <path class="NecklaceBiker-Mediumfil116" d="M9937 18014c226,-147 367,206 407,497 -154,-406 -341,-467 -407,-497z" style="fill:#197710"/>
  <path class="NecklaceBiker-Mediumfil116" d="M9402 18890c-39,-4 -96,-122 -80,-156 -31,23 -48,38 -73,59 -30,36 55,163 84,154 23,-21 40,-34 69,-57z" style="fill:#84f165"/>
  <path class="NecklaceBiker-Mediumfil116" d="M9939 19614c-155,-50 -490,-295 -586,-448 39,-40 52,-52 91,-92 84,158 266,348 495,540z" style="fill:#3d03bc"/>
  <path class="NecklaceBiker-Mediumfil116" d="M15865 21054c17,-44 119,-83 149,-91 14,35 23,56 33,88 -17,1 -109,38 -154,88 -8,-30 -16,-51 -28,-85z" style="fill:#68a82a"/>
  <path class="NecklaceBiker-Mediumfil116" d="M11500 21054c-17,-44 -119,-83 -149,-91 -14,35 -23,56 -33,88 17,1 109,38 153,88 9,-30 16,-51 29,-85z" style="fill:#8ae8c9"/>
  <path class="NecklaceBiker-Mediumfil116" d="M15299 18698c122,-101 241,-109 357,-39 -137,-155 -302,-318 -560,-502 213,223 275,378 203,541z" style="fill:#51b74d"/>
  <path class="NecklaceBiker-Mediumfil116" d="M16017 18198c131,27 197,-17 237,-130 6,89 16,290 -15,294 -74,-82 -126,-118 -222,-164z" style="fill:#5eb296"/>
  <path class="NecklaceBiker-Mediumfil116" d="M12095 18311c434,-441 542,500 678,1193 -97,-265 -282,-1415 -678,-1193z" style="fill:#a198a6"/>
  <path class="NecklaceBiker-Mediumfil9" d="M10717 19509c49,255 43,891 303,1283 -170,72 -387,391 -7,784 -115,141 -34,379 108,562 -305,-179 -593,-380 -701,-829 18,-98 36,-195 55,-293 36,-189 85,-263 129,-546 44,-276 114,-728 113,-961z" style="fill:#9daa30"/>
  <path class="NecklaceBiker-Mediumfil108" d="M15434 22777c58,28 105,102 110,162 19,196 11,348 6,545 -10,-197 -23,-308 -46,-503 -4,-33 -8,-75 -50,-86 -7,-36 -18,-84 -20,-118z" style="fill:#06986e"/>
  <path class="NecklaceBiker-Mediumfil108" d="M14470 22910c45,-9 89,-19 134,-28 33,88 66,175 99,263 -30,72 -59,144 -88,217 50,-234 2,-411 -145,-452z" style="fill:#4ddce8"/>
  <path class="NecklaceBiker-Mediumfil108" d="M11852 18861c68,0 124,56 124,124 0,43 -22,81 -55,104 7,-17 12,-35 12,-54 0,-69 -56,-124 -125,-124 -25,0 -49,7 -69,21 20,-42 63,-71 113,-71z" style="fill:#e26bd4"/>
  <path class="NecklaceBiker-Mediumfil108" d="M11414 17807c36,5 97,38 88,105 -4,35 -33,66 -60,84 65,-116 -57,-184 -151,-148 21,-34 88,-47 123,-41z" style="fill:#7d072e"/>
  <path class="NecklaceBiker-Mediumfil108" d="M15991 17817c52,9 116,58 107,126 -4,35 -27,59 -68,81 85,-119 -42,-214 -168,-167 20,-34 77,-49 129,-40z" style="fill:#1887b0"/>
 </g><g id="BraceletBoxer-Medium">
  <animateTransform additive="sum" attributeName="transform" dur="10" repeatCount="indefinite" type="translate" values="0;0 200;0;0 200;0;0 200;0;0 200;0"/>
  <metadata id="CorelCorpID_0Corel-Layer"/>
  <g id="_1890968492880">
   <path class="BraceletBoxer-Mediumfil0 BraceletBoxer-Mediumstr0" d="M18174 18907c-578,-193 -1924,1008 -1565,1711 84,165 212,311 371,404 126,459 117,1635 1091,1071 93,269 274,526 577,535 761,22 1775,-844 1611,-1674 -104,-523 -758,-1373 -1425,-1457 -96,-242 -357,-488 -660,-590z" style="fill:#ef31d5"/>
   <path class="BraceletBoxer-Mediumfil1" d="M17980 21538c120,1030 629,1089 668,1090 761,22 1817,-905 1514,-1728 -113,757 -1495,1384 -2182,638z" style="fill:#1900c1"/>
   <path class="BraceletBoxer-Mediumfil2 BraceletBoxer-Mediumstr1" d="M18179 18887c-578,-194 -1929,1028 -1570,1731 84,165 244,327 403,420 11,-651 1211,-1653 1881,-1505 -96,-242 -411,-545 -714,-646z" style="fill:#36b523"/>
   <path class="BraceletBoxer-Mediumfil3" d="M18166 22114c-33,-123 -140,-483 -210,-668 4,191 71,620 -179,702 84,4 304,-39 389,-34z" style="fill:#987ffb"/>
   <path class="BraceletBoxer-Mediumfil4 BraceletBoxer-Mediumstr0" d="M18174 18907c-578,-193 -1924,1008 -1565,1711 84,165 212,311 371,404 126,459 117,1635 1091,1071 93,269 274,526 577,535 761,22 1775,-844 1611,-1674 -104,-523 -758,-1373 -1425,-1457 -96,-242 -357,-488 -660,-590z" style="fill:#8e7e5c"/>
   <path class="BraceletBoxer-Mediumfil1" d="M17961 21473c-474,629 -938,-482 -706,-964 -85,82 -260,383 -225,587 50,305 10,1498 1004,1006 -23,-210 -50,-420 -73,-629z" style="fill:#135c76"/>
   <path class="BraceletBoxer-Mediumfil4 BraceletBoxer-Mediumstr1" d="M18177 19672c80,-175 86,-270 27,-358 -114,-170 -300,-319 -457,-332" style="fill:#ebcc31"/>
   <path class="BraceletBoxer-Mediumfil5" d="M17352 20663c442,-882 1694,-1281 1842,-803 108,351 -1056,-27 -1842,803z" style="fill:#8bc7be"/>
   <path class="BraceletBoxer-Mediumfil1" d="M16754 19792c-54,301 140,636 443,723 -79,162 -158,324 -237,486 -385,-213 -563,-621 -206,-1209z" style="fill:#e4ac74"/>
   <path class="BraceletBoxer-Mediumfil6" d="M19364 20042c-26,-20 -52,-40 -78,-60 -25,-19 -51,-38 -77,-57 -12,4 -24,7 -37,10 26,19 52,38 77,56 25,19 51,39 77,58 -57,14 -112,29 -167,45 -72,-52 -145,-104 -218,-155 -72,-51 -144,-103 -216,-155 53,-20 107,-39 161,-57 25,18 50,37 75,55 25,18 50,37 75,55 12,-4 24,-7 37,-11 -26,-18 -51,-37 -76,-55 -25,-18 -50,-37 -75,-55 58,-18 116,-34 175,-49 74,55 149,111 223,167 77,58 153,117 229,178 -62,8 -124,17 -185,30zm-338 100c-87,36 -174,76 -258,120 -70,-49 -141,-97 -212,-147 -71,-49 -143,-100 -214,-151 48,-26 97,-51 146,-76 42,31 85,62 127,92 43,30 86,60 129,89 -20,-24 -40,-48 -59,-73 -20,-24 -40,-49 -59,-74 -28,-20 -56,-40 -84,-60 50,-22 100,-44 150,-65 22,16 43,31 64,47 22,15 43,30 65,45 34,42 69,85 103,127 34,42 69,83 102,126zm-613 348c-32,-22 -64,-44 -96,-66 -33,-22 -65,-44 -97,-67 0,-15 -1,-30 -2,-46 -21,0 -43,0 -64,0 -28,-19 -55,-38 -82,-57 -27,-20 -55,-39 -82,-58 46,-35 93,-68 140,-101 25,18 50,36 76,54 25,18 50,35 75,53 14,-9 27,-18 41,-27 -25,-18 -50,-35 -75,-53 -25,-18 -50,-36 -75,-54 46,-30 92,-58 140,-86 71,50 142,101 213,151 71,49 142,98 212,146 -110,66 -219,136 -324,211zm23 -236c-17,11 -34,22 -51,33 11,8 23,16 34,23 16,-11 33,-22 50,-33 -11,-8 -22,-15 -33,-23zm-510 187c5,4 10,7 15,10 26,9 53,17 79,25 26,9 53,17 79,26 -34,-24 -68,-48 -102,-71 42,-34 84,-67 126,-100 43,31 87,61 131,91 43,30 86,60 129,90 -71,54 -142,110 -212,168 -50,-16 -100,-31 -150,-47 -50,-15 -100,-30 -150,-44 -32,-22 -63,-43 -95,-64 -31,-21 -63,-42 -94,-63 90,-84 182,-165 275,-241 22,15 43,31 65,46 22,15 43,30 65,45 -54,42 -107,85 -161,129z" style="fill:#5a62a2"/>
  </g>
  <g id="_1890968489072">
   <path class="BraceletBoxer-Mediumfil7" d="M9190 18907c578,-193 1924,1008 1565,1711 -84,165 -212,311 -372,404 -125,459 -116,1635 -1090,1071 -93,269 -274,526 -577,535 -761,22 -1775,-844 -1611,-1674 104,-523 758,-1373 1425,-1457 96,-242 357,-488 660,-590z" style="fill:#c720eb"/>
   <path class="BraceletBoxer-Mediumfil5" d="M8716 19775c980,109 1789,1145 1391,1449 -291,223 -341,-1000 -1391,-1449z" style="fill:#2dd2d4"/>
   <path class="BraceletBoxer-Mediumfil8 BraceletBoxer-Mediumstr1" d="M9185 18887c578,-194 1929,1028 1570,1731 -84,165 -244,327 -403,420 -11,-651 -1211,-1653 -1882,-1505 97,-242 412,-545 715,-646z" style="fill:#203d97"/>
   <path class="BraceletBoxer-Mediumfil6" d="M9336 20656c-95,-64 -191,-125 -289,-183 19,-15 38,-30 57,-45 19,-14 39,-28 58,-43 52,31 103,62 155,94 7,-5 14,-11 22,-16 -52,-32 -103,-63 -154,-94 19,-14 38,-28 58,-41 19,-14 39,-28 58,-42 51,30 101,61 151,93 23,-18 46,-35 68,-53 22,-18 43,-36 65,-55 42,28 83,56 125,84 -59,52 -121,103 -185,152 -64,50 -128,98 -189,149zm-396 -244c-90,-48 -181,-94 -274,-138 65,-49 133,-97 203,-144 71,-46 142,-92 211,-140 50,25 99,50 148,75 -39,29 -79,58 -120,86 -41,28 -83,56 -124,84 37,-14 74,-28 111,-42 37,-14 74,-28 111,-42 26,-19 52,-38 77,-57 49,27 97,54 145,81 -19,15 -38,30 -57,45 -19,15 -39,29 -58,43 -63,25 -126,50 -189,74 -62,24 -124,49 -184,75zm-195 -446c-14,9 -29,18 -43,27 64,27 128,55 191,84 -45,29 -91,59 -135,89 -43,29 -86,60 -127,91 -120,-52 -243,-100 -370,-145 20,-15 40,-30 60,-44 20,-14 42,-28 63,-42 65,24 130,49 195,74 11,-7 21,-14 33,-21 -64,-26 -128,-51 -194,-74 48,-30 96,-59 145,-88 48,-29 97,-58 145,-87 115,46 228,94 339,145 -18,12 -37,25 -55,38 -19,12 -38,24 -57,37 -63,-29 -126,-57 -190,-84zm-389 41c-23,15 -46,30 -68,45 -22,16 -44,31 -65,47 -83,-26 -167,-52 -254,-75 -89,-23 -180,-42 -272,-61 51,-10 103,-19 156,-29 52,-9 104,-18 157,-27 26,6 51,13 76,19 54,-32 110,-65 167,-96 56,-32 113,-63 170,-94 62,17 121,37 181,56 -54,32 -109,63 -164,95 -54,31 -107,63 -160,95 26,9 51,17 76,25z" style="fill:#77cb9b"/>
   <path class="BraceletBoxer-Mediumfil3" d="M9198 22114c32,-123 139,-483 210,-668 -4,191 -71,620 179,702 -84,4 -304,-39 -389,-34z" style="fill:#67bc48"/>
   <path class="BraceletBoxer-Mediumfil4 BraceletBoxer-Mediumstr0" d="M9190 18907c578,-193 1924,1008 1565,1711 -84,165 -212,311 -372,404 -125,459 -116,1635 -1090,1071 -93,269 -274,526 -577,535 -761,22 -1775,-844 -1611,-1674 104,-523 758,-1373 1425,-1457 96,-242 357,-488 660,-590z" style="fill:#422780"/>
   <path class="BraceletBoxer-Mediumfil1" d="M9403 21473c-41,435 453,676 651,502 2,298 -473,337 -724,127 23,-210 50,-420 73,-629z" style="fill:#778578"/>
   <path class="BraceletBoxer-Mediumfil4 BraceletBoxer-Mediumstr1" d="M9187 19672c-80,-175 -86,-270 -27,-358 114,-170 300,-319 457,-332" style="fill:#a8ba53"/>
   <path class="BraceletBoxer-Mediumfil1" d="M9564 18968c-367,-138 -760,114 -1064,534 207,-6 486,66 664,138 -90,-243 55,-443 400,-672z" style="fill:#b8f6cc"/>
   <path class="BraceletBoxer-Mediumfil1" d="M9299 22096c-162,490 -544,531 -583,532 -761,22 -1775,-844 -1611,-1674 65,-326 364,-912 777,-1095 -695,964 395,2723 1417,2237z" style="fill:#d5fe30"/>
  </g>
 </g><g id="Head-Fox4">
 <animateTransform additive="sum" attributeName="transform" dur="10" repeatCount="indefinite" type="translate" values="0;0 200;0;0 200;0;0 200;0;0 200;0"/>
  <metadata id="CorelCorpID_78Corel-Layer"/>
  <path class="Head-Fox4fil131" d="M13682 7385c-2938,0 -5748,2824 -6132,5713 -82,620 -348,808 -700,854 159,444 439,678 914,869 -96,225 -404,355 -730,406 476,906 1886,1638 2751,1934 1206,411 2596,594 3897,594 1301,0 2690,-183 3896,-594 866,-296 2276,-1028 2752,-1934 -327,-51 -634,-181 -730,-406 475,-191 755,-425 914,-869 -353,-46 -618,-234 -700,-854 -384,-2889 -3194,-5713 -6132,-5713z" style="fill:#cf3fa2"/>
  <path class="Head-Fox4fil8" d="M7877 11902c-458,1059 -159,1932 -1027,2050 70,255 422,745 915,892 -121,203 -458,365 -740,431 1025,1397 3221,2278 5246,2409 -1885,-310 -3604,-1084 -4239,-2316 171,-105 384,-373 359,-709 -461,-129 -590,-405 -627,-785 -56,-580 11,-1235 113,-1972z" style="fill:#52d2fd"/>
  <path class="Head-Fox4fil18" d="M8078 11340c-269,812 -412,1453 -454,1768 -43,327 -137,542 -268,683 -112,121 -249,186 -403,219 72,170 165,304 286,416 142,131 324,233 553,326 38,15 57,59 42,97l-1 2 0 0c-52,121 -154,217 -285,290 -115,63 -253,110 -397,140 207,345 552,663 944,938 566,398 1227,704 1714,871 290,98 1586,498 2628,610 -1114,-25 -2397,-373 -2676,-469 -497,-170 -1173,-482 -1752,-889 -443,-311 -830,-678 -1041,-1080l0 0c-4,-7 -7,-15 -8,-24 -6,-41 22,-79 63,-85 166,-26 326,-73 452,-143 76,-43 140,-93 183,-152 -210,-91 -381,-193 -520,-322 -159,-146 -275,-325 -358,-559l0 0c-2,-4 -3,-10 -4,-15 -5,-41 24,-78 65,-84 159,-21 299,-73 406,-189 110,-119 190,-308 229,-600 26,-195 201,-1070 602,-1749z" style="fill:#f061b0"/>
  <path class="Head-Fox4fil18" d="M13682 7460c544,0 1085,98 1605,277 299,103 1035,406 1670,796 -392,-448 -1432,-872 -1621,-937 -536,-185 -1093,-286 -1654,-286 -561,0 -1118,101 -1654,286 -189,65 -1229,489 -1622,937 636,-390 1371,-693 1670,-796 521,-179 1061,-277 1606,-277z" style="fill:#98a24e"/>
  <path class="Head-Fox4fil18" d="M19286 11340c269,812 412,1453 454,1768 43,327 137,542 268,683 112,121 249,186 403,219 -72,170 -166,304 -286,416 -143,131 -324,233 -553,326 -39,15 -57,59 -42,97l1 2 0 0c52,121 154,217 285,290 115,63 253,110 397,140 -207,345 -553,663 -944,938 -566,398 -1228,704 -1715,871 -289,98 -1585,498 -2627,610 1114,-25 2397,-373 2675,-469 498,-170 1174,-482 1753,-889 443,-311 830,-678 1041,-1080l0 0c4,-7 6,-15 8,-24 6,-41 -22,-79 -63,-85 -166,-26 -326,-73 -452,-143 -76,-43 -140,-93 -183,-152 210,-91 381,-193 520,-322 158,-146 275,-325 358,-559l0 0c2,-4 3,-10 4,-15 5,-41 -24,-78 -65,-84 -159,-21 -299,-73 -406,-189 -110,-119 -190,-308 -229,-600 -26,-195 -201,-1070 -602,-1749z" style="fill:#8bc314"/>
  <path class="Head-Fox4fil135" d="M13682 14626c-38,-84 -536,-115 -564,-201 -418,-1258 -1211,-2509 -2318,-2828 -491,961 -982,1922 -1474,2883 -780,1017 171,2603 1790,3033 701,142 1708,252 2566,242l0 -3031 0 3031c858,10 1865,-100 2566,-242 1620,-430 2570,-2016 1790,-3033 -492,-961 -983,-1922 -1474,-2883 -1107,319 -1900,1570 -2317,2828 -29,86 -526,117 -565,201z" style="fill:#edb565"/>
 </g><g id="Mouth-Fox0">
 <animateTransform additive="sum" attributeName="transform" dur="10" repeatCount="indefinite" type="translate" values="0;0 200;0;0 200;0;0 200;0;0 200;0"/>
  <metadata id="CorelCorpID_82Corel-Layer"/>
  <path class="Mouth-Fox0fil0 Mouth-Fox0str0" d="M12445 15102c107,562 1268,727 1237,-476" style="fill:#133928"/>
  <path class="Mouth-Fox0fil0 Mouth-Fox0str0" d="M14921 15102c-108,562 -1268,727 -1238,-476" style="fill:#c10212"/>
 </g><g id="Eyes-Fox0">
 <animateTransform additive="sum" attributeName="transform" dur="10" repeatCount="indefinite" type="translate" values="0;0 200;0;0 200;0;0 200;0;0 200;0"/>
  <metadata id="CorelCorpID_93Corel-Layer"/>
  <path class="Eyes-Fox0fil147" d="M9478 14753c1296,480 3239,208 2480,-1924 -546,-1536 -1906,-1988 -2897,-1220 -1094,848 -781,2700 417,3144z"/>
  <path class="Eyes-Fox0fil148" d="M9478 14761c855,304 1991,294 2448,-336 -316,-187 -532,-538 -632,-811 -481,-22 -1231,-81 -1711,-103 -363,198 -649,431 -861,668 183,261 439,469 756,582z"/>
  <circle class="Eyes-Fox0fil142" r="235" transform="matrix(1.15149 -0.097738 0.133993 1.0709 9194.79 13599.9)"/>
  <circle class="Eyes-Fox0fil142" r="235" transform="matrix(0.577212 0.0129298 -0.0186495 0.510232 8996.06 14106.5)"/>
  <path class="Eyes-Fox0fil149" d="M10203 11364c578,-171 1158,327 1295,1111 137,785 -220,1560 -798,1731 -578,171 -1158,-327 -1295,-1112 -137,-785 221,-1559 798,-1730z"/>
  <path class="Eyes-Fox0fil142" d="M10839 11986c-607,9 -852,1322 29,1337 801,15 629,-1347 -29,-1337z"/>
  <path class="Eyes-Fox0fil150" d="M11364 9449c-67,125 -516,250 -955,579 -403,302 -643,697 -838,676 -215,-23 -254,-479 -132,-728 100,-204 514,-537 1002,-667 578,-152 1004,-12 923,140z"/>
  <path class="Eyes-Fox0fil8" d="M11364 9449c-67,125 -516,250 -955,579 -403,302 -643,697 -838,676 -215,-23 -254,-479 -132,-728 100,-204 514,-537 1002,-667 578,-152 1004,-12 923,140z"/>
  <path class="Eyes-Fox0fil4" d="M12074 13240c-208,-898 -888,-1972 -1896,-2005 -678,-23 -1199,290 -1541,838 -380,608 -271,1240 -178,1516 87,-1267 1016,-1926 1742,-1934 891,-10 1385,501 1873,1585z"/>
  <path class="Eyes-Fox0fil0 Eyes-Fox0str1" d="M9478 14753c1296,480 3239,208 2480,-1924 -546,-1536 -1906,-1988 -2897,-1220 -1094,848 -781,2700 417,3144z"/>
  <path class="Eyes-Fox0fil151" d="M17885 14753c-1295,480 -3238,208 -2479,-1924 546,-1536 1906,-1988 2897,-1220 1094,848 781,2700 -418,3144z"/>
  <path class="Eyes-Fox0fil152" d="M17885 14761c-854,304 -1990,294 -2447,-336 316,-187 531,-538 632,-811 481,-22 1231,-81 1711,-103 362,198 649,431 861,668 -183,261 -439,469 -757,582z"/>
  <circle class="Eyes-Fox0fil142" r="235" transform="matrix(-1.15149 -0.097738 -0.133993 1.0709 18169.1 13599.9)"/>
  <circle class="Eyes-Fox0fil142" r="235" transform="matrix(-0.577212 0.0129298 0.0186495 0.510232 18367.8 14106.5)"/>
  <path class="Eyes-Fox0fil153" d="M17160 11364c-577,-171 -1157,327 -1294,1111 -137,785 220,1560 798,1731 578,171 1157,-327 1295,-1112 137,-784 -221,-1559 -799,-1730z"/>
  <path class="Eyes-Fox0fil142" d="M16525 11986c607,9 852,1322 -29,1337 -802,15 -629,-1347 29,-1337z"/>
  <path class="Eyes-Fox0fil4" d="M15290 13240c208,-898 888,-1972 1896,-2005 678,-23 1199,290 1541,838 380,608 270,1240 178,1516 -87,-1267 -1016,-1926 -1742,-1934 -891,-10 -1385,501 -1873,1585z"/>
  <path class="Eyes-Fox0fil0 Eyes-Fox0str1" d="M17885 14753c-1295,480 -3238,208 -2479,-1924 546,-1536 1906,-1988 2897,-1220 1094,848 781,2700 -418,3144z"/>
  <path class="Eyes-Fox0fil150" d="M16000 9449c67,125 516,250 955,579 403,302 643,697 837,676 216,-23 255,-479 133,-728 -101,-204 -514,-537 -1003,-667 -577,-152 -1003,-12 -922,140z"/>
  <path class="Eyes-Fox0fil8" d="M16000 9449c67,125 516,250 955,579 403,302 643,697 837,676 216,-23 255,-479 133,-728 -101,-204 -514,-537 -1003,-667 -577,-152 -1003,-12 -922,140z"/>
 </g><g id="Moustache-Fox0">
 <animateTransform additive="sum" attributeName="transform" dur="10" repeatCount="indefinite" type="translate" values="0;0 200;0;0 200;0;0 200;0;0 200;0"/>
  <metadata id="CorelCorpID_103Corel-Layer"/>
  <rect class="Moustache-Fox0fil0" height="583" width="417" x="13474" y="14867"/>
 </g><g id="Nose-Fox0">
 <animateTransform additive="sum" attributeName="transform" dur="10" repeatCount="indefinite" type="translate" values="0;0 200;0;0 200;0;0 200;0;0 200;0"/>
  <metadata id="CorelCorpID_111Corel-Layer"/>
  <path class="Nose-Fox0fil215 Nose-Fox0str0" d="M13682 14170c-247,0 -591,102 -564,255 24,141 250,364 564,364 314,0 540,-223 564,-364 27,-153 -317,-255 -564,-255z" style="fill:#043599"/>
 </g><g id="HatBiker-Medium">
 <animateTransform additive="sum" attributeName="transform" dur="10" repeatCount="indefinite" type="translate" values="0;0 200;0;0 200;0;0 200;0;0 200;0"/>
  <metadata id="CorelCorpID_42Corel-Layer"/>
  <g id="_3198517428624">
   <path class="HatBiker-Mediumfil256 HatBiker-Mediumstr3" d="M13682 12836c-218,0 -538,114 -788,422 102,-531 112,-1014 -20,-1248l808 0 808 0c-132,234 -122,717 -21,1248 -249,-308 -569,-422 -787,-422z" style="fill:#d33d05"/>
   <path class="HatBiker-Mediumfil257" d="M8507 11956c1056,-233 2959,-286 4175,-93 757,120 -111,3470 -963,3581 -982,127 -1949,121 -2873,-31 -1021,-168 -935,-3325 -339,-3457z" style="fill:#db08ae"/>
   <polygon class="HatBiker-Mediumfil33" points="13682,12086 12959,12086 13016,12216 13682,12216 14348,12216 14405,12086 "/>
   <path class="HatBiker-Mediumfil257" d="M18857 11956c-1056,-233 -2959,-286 -4175,-93 -757,120 111,3470 963,3581 982,127 1948,121 2873,-31 1021,-168 935,-3325 339,-3457z" style="fill:#98350b"/>
   <path class="HatBiker-Mediumfil108" d="M15511 12072c879,-282 3013,-132 3253,91 402,374 332,1513 251,2045 -31,-2128 -837,-2173 -3504,-2136z" style="fill:#dcd4f4"/>
   <path class="HatBiker-Mediumfil108" d="M9347 12072c878,-282 3012,-132 3252,91 402,374 132,1217 -29,1664 286,-1773 -660,-1924 -3223,-1755z" style="fill:#070e6e"/>
   <ellipse class="HatBiker-Mediumfil108" rx="136" ry="473" transform="matrix(0.983726 0.260414 -0.241455 1.06097 8650.17 12692.2)"/>
   <ellipse class="HatBiker-Mediumfil108" rx="136" ry="473" transform="matrix(1.00676 0.0891641 -0.111595 0.8044 14782.4 12528.2)"/>
  </g>
 </g><g id="Hair-Fox4">
 <animateTransform additive="sum" attributeName="transform" dur="10" repeatCount="indefinite" type="translate" values="0;0 200;0;0 200;0;0 200;0;0 200;0"/>
  <metadata id="CorelCorpID_116Corel-Layer"/>
  <path class="Hair-Fox4fil219 Hair-Fox4str0" d="M10792 5723c397,-1231 1819,-654 2094,31 0,369 358,878 358,1247 -813,252 -944,-342 -1687,-445 -462,-64 -734,-411 -765,-833zm5780 0c-397,-1231 -1819,-654 -2094,31 0,369 81,975 -456,1220 788,288 1048,-262 1651,-412 452,-113 868,-417 899,-839z" style="fill:#c743a6"/>
  <path class="Hair-Fox4fil5" d="M10792 5723c397,-1231 1819,-654 2094,31 0,369 358,878 358,1247 -813,252 -944,-342 -1687,-445 -462,-64 -734,-411 -765,-833zm5780 0c-397,-1231 -1819,-654 -2094,31 0,369 81,975 -456,1220 788,288 1048,-262 1651,-412 452,-113 868,-417 899,-839z" style="fill:#c87306"/>
  <path class="Hair-Fox4fil5" d="M12778 7166c-239,-87 -527,-363 -766,-450 534,-562 -168,-1391 -1158,-1124 107,-271 215,-543 323,-814 604,107 1208,215 1812,323 -59,636 -152,1428 -211,2065z" style="fill:#c9a492"/>
  <path class="Hair-Fox4fil220" d="M16309 8122c-513,-921 -1591,-1147 -1603,-1504 -166,-219 -717,-338 -1024,-338 -307,0 -858,119 -1024,338 -12,357 -1087,593 -1601,1514 35,-17 84,-31 130,-18 471,-208 1489,-439 2495,-439 1006,0 2025,231 2496,439 37,-12 96,-9 131,8z" style="fill:#bd2d69"/>
  <path class="Hair-Fox4fil18" d="M16365 8135c-15,14 -27,16 -66,37 -39,-19 -81,-38 -121,-59 -282,-444 -702,-731 -1026,-950 -2,-1 -3,-2 -5,-3 -277,-188 -488,-332 -514,-512 -67,-77 -196,-141 -343,-189 -206,-69 -444,-104 -608,-104 -165,0 -402,35 -608,104 -147,48 -276,112 -343,189 -26,181 -240,326 -519,515l0 0 0 0c-324,220 -744,505 -1026,950 -40,19 -93,45 -122,59 -36,-20 -85,0 -65,-37 297,-533 770,-853 1129,-1096l0 0c255,-172 448,-303 455,-421 0,-15 5,-31 16,-45 83,-111 245,-196 428,-257 221,-73 477,-111 655,-111 178,0 434,38 655,111 183,61 345,146 428,257l0 0c9,12 15,27 15,43 4,117 196,248 451,420 2,1 3,2 5,3 359,243 831,563 1129,1096z" style="fill:#72330e"/>
  <path class="Hair-Fox4fil221 Hair-Fox4str0" d="M16572 5723c40,-879 -514,-1917 -1723,-1986 -390,-730 -2004,-755 -2700,151 -934,89 -1397,956 -1357,1835 398,-804 1549,-663 1816,188 223,-267 685,-340 1074,-332 389,-8 851,65 1074,332 267,-851 1417,-992 1816,-188z" style="fill:#fb2b53"/>
  <path class="Hair-Fox4fil5" d="M13161 5065c329,-749 -85,-1401 -719,-1378 -145,34 -225,118 -365,281 693,-113 1145,561 1084,1097z" style="fill:#9cfd32"/>
  <path class="Hair-Fox4fil5" d="M14746 3711c282,460 -13,1280 -347,1460 633,-33 954,-919 672,-1339 -168,-66 -222,-95 -325,-121z" style="fill:#b1c325"/>
  <path class="Hair-Fox4fil222 Hair-Fox4str0" d="M13682 5557c328,0 1010,83 1169,389 113,219 58,901 -79,824 -227,-215 -762,-320 -1090,-320 -328,0 -863,105 -1090,320 -137,77 -192,-605 -79,-824 159,-306 841,-389 1169,-389z" style="fill:#0c3812"/>
  <path class="Hair-Fox4fil4" d="M13682 5557c328,0 1010,83 1169,389 113,219 58,901 -79,824 -227,-215 -762,-320 -1090,-320 -328,0 -863,105 -1090,320 -137,77 -192,-605 -79,-824 159,-306 841,-389 1169,-389z" style="fill:#c28bbd"/>
  <path class="Hair-Fox4fil5" d="M13368 6466c-252,28 -665,199 -776,304 -137,77 -192,-605 -79,-824 86,-165 436,-240 688,-297 -540,207 -508,890 167,817z" style="fill:#be978b"/>
 </g><g id="NecklaceShipWheel">
  <metadata id="CorelCorpID_57Corel-Layer"/>
  <path class="NecklaceShipWheelfil371new NecklaceShipWheelstr0new" d="M13682 19054c-550,0 -1250,379 -1347,1130l-729 5632 2076 0 2076 0 -729 -5632c-97,-751 -798,-1130 -1347,-1130z" style="fill:#69a66b"/>
  <path class="NecklaceShipWheelfil14new" d="M14042 19617c639,268 940,1002 672,1640 -267,639 -1001,940 -1640,672 -638,-267 -939,-1001 -672,-1640 268,-638 1002,-939 1640,-672z" style="fill:#976711"/>
  <path class="NecklaceShipWheelfil14new" d="M12132 21754l-526 4062 2076 0 2076 0 -66 -509c-1400,227 -3532,285 -3560,-3553z" style="fill:#e208fd"/>
  <g>
   <path class="NecklaceShipWheelfil372new" d="M11448 17890c63,-48 127,-97 190,-145 63,-48 127,-96 190,-145 -93,-477 -544,-1362 -856,-1124l-380 289c-312,238 421,908 856,1125z" style="fill:#6a18c6"/>
   <path class="NecklaceShipWheelfil14new" d="M11448 17890c63,-48 127,-97 190,-145 59,-45 118,-90 177,-134 -429,68 -910,-176 -1277,-585 107,298 589,704 910,864z" style="fill:#6e9647"/>
   <path class="NecklaceShipWheelfil373new" d="M11755 17656l73 -56c-93,-477 -544,-1362 -856,-1124l-380 289c-84,64 -92,160 -51,269 8,-8 16,-16 26,-23l381 -290c274,-209 655,449 807,935z" style="fill:#7ef15c"/>
   <path class="NecklaceShipWheelfil33new NecklaceShipWheelstr0new" d="M11448 17890c63,-48 127,-97 190,-145 63,-48 127,-96 190,-145 -93,-477 -544,-1362 -856,-1124l-380 289c-312,238 421,908 856,1125z" style="fill:#7af563"/>
   <polygon class="NecklaceShipWheelfil374 NecklaceShipWheelstr0new" points="11326,17924 11894,17492 12173,17859 11605,18291 "/>
   <path class="NecklaceShipWheelfil375new" d="M12166 18834c64,-48 127,-96 191,-145 63,-48 127,-96 190,-145 334,267 579,601 753,989 -64,48 -127,97 -191,145 -63,48 -127,97 -190,145 -328,-271 -585,-596 -753,-989z" style="fill:#04f403"/>
   <path class="NecklaceShipWheelfil14new" d="M13147 19410l-163 124 -153 117 -58 10c-219,-184 -368,-500 -517,-738 302,363 496,575 891,487z" style="fill:#a2ff35"/>
   <path class="NecklaceShipWheelfil373new" d="M12415 18645l132 -101c334,267 579,601 753,989l-155 82c-170,-379 -408,-707 -730,-970z" style="fill:#28aee3"/>
   <path class="NecklaceShipWheelfil33new NecklaceShipWheelstr0new" d="M12166 18834c64,-48 127,-96 191,-145 63,-48 127,-96 190,-145 334,267 579,601 753,989 -64,48 -127,97 -191,145 -63,48 -127,97 -190,145 -328,-271 -585,-596 -753,-989z" style="fill:#263b0c"/>
   <polygon class="NecklaceShipWheelfil376new NecklaceShipWheelstr0new" points="12161,19022 12729,18589 12450,18222 11882,18654 "/>
  </g>
  <g>
   <path class="NecklaceShipWheelfil377new" d="M10350 21103c-10,-79 -20,-158 -30,-237 -10,-79 -20,-158 -30,-237 -460,-158 -1452,-210 -1402,179l60 475c50,388 997,89 1402,-180z" style="fill:#bc155a"/>
   <path class="NecklaceShipWheelfil14new" d="M10350 21103c-10,-79 -20,-158 -30,-237 -9,-73 -19,-147 -28,-220 -156,405 -607,700 -1144,813 311,57 904,-158 1202,-356z" style="fill:#f9ce2c"/>
   <path class="NecklaceShipWheelfil373new" d="M10301 20720l-11 -91c-460,-158 -1452,-210 -1402,179l60 475c14,104 92,159 208,178 -4,-11 -6,-23 -8,-35l-60 -474c-44,-342 716,-343 1213,-232z" style="fill:#104bb7"/>
   <path class="NecklaceShipWheelfil33new NecklaceShipWheelstr0new" d="M10350 21103c-10,-79 -20,-158 -30,-237 -10,-79 -20,-158 -30,-237 -460,-158 -1452,-210 -1402,179l60 475c50,388 997,89 1402,-180z" style="fill:#8b3ff7"/>
   <polygon class="NecklaceShipWheelfil378new NecklaceShipWheelstr0new" points="10319,21226 10228,20518 10686,20460 10776,21168 "/>
   <path class="NecklaceShipWheelfil379new" d="M11527 20953c-10,-79 -20,-158 -30,-237 -10,-79 -20,-158 -30,-237 397,-156 809,-201 1232,-158 10,79 21,158 31,237 10,80 20,159 30,238 -399,148 -809,208 -1233,157z" style="fill:#0d97e5"/>
   <path class="NecklaceShipWheelfil14new" d="M12516 20392l26 203 25 191 -20 55c-269,98 -617,69 -898,79 466,-80 746,-142 867,-528z" style="fill:#72046d"/>
   <path class="NecklaceShipWheelfil373new" d="M11488 20643l-21 -164c397,-156 809,-201 1232,-158l-6 175c-413,-42 -816,0 -1205,147z" style="fill:#23508b"/>
   <path class="NecklaceShipWheelfil33new NecklaceShipWheelstr0new" d="M11527 20953c-10,-79 -20,-158 -30,-237 -10,-79 -20,-158 -30,-237 397,-156 809,-201 1232,-158 10,79 21,158 31,237 10,80 20,159 30,238 -399,148 -809,208 -1233,157z" style="fill:#5ee5da"/>
   <polygon class="NecklaceShipWheelfil380new NecklaceShipWheelstr0new" points="11687,21051 11596,20343 11139,20402 11229,21110 "/>
  </g>
  <g>
   <path class="NecklaceShipWheelfil381new" d="M12585 23660c-74,-30 -147,-61 -221,-92 -74,-31 -147,-62 -221,-92 -366,319 -907,1152 -546,1303l442 185c361,151 575,-818 546,-1304z" style="fill:#9371b5"/>
   <path class="NecklaceShipWheelfil14new" d="M12585 23660c-74,-30 -147,-61 -221,-92 -68,-29 -137,-57 -205,-86 273,338 303,876 133,1398 204,-241 315,-862 293,-1220z" style="fill:#50715d"/>
   <path class="NecklaceShipWheelfil373new" d="M12228 23511l-85 -35c-366,319 -907,1152 -546,1303l442 185c97,41 184,0 258,-90 -11,-3 -22,-6 -34,-11l-441 -185c-317,-133 61,-792 406,-1167z" style="fill:#4ff8b8"/>
   <path class="NecklaceShipWheelfil33new NecklaceShipWheelstr0new" d="M12585 23660c-74,-30 -147,-61 -221,-92 -74,-31 -147,-62 -221,-92 -366,319 -907,1152 -546,1303l442 185c361,151 575,-818 546,-1304z" style="fill:#fd4c2f"/>
   <polygon class="NecklaceShipWheelfil382new NecklaceShipWheelstr0new" points="12675,23749 12017,23473 12195,23048 12853,23324 "/>
   <path class="NecklaceShipWheelfil383new" d="M13043 22566c-74,-31 -147,-62 -221,-92 -73,-31 -147,-62 -220,-93 63,-422 231,-801 480,-1146 73,31 147,62 220,92 74,31 147,62 221,93 -71,419 -224,804 -480,1146z" style="fill:#5f28ad"/>
   <path class="NecklaceShipWheelfil14new" d="M13052 21429l188 79 178 74 38 45c-50,282 -249,569 -381,817 163,-444 250,-717 -23,-1015z" style="fill:#65be01"/>
   <path class="NecklaceShipWheelfil373new" d="M12755 22445l-153 -64c64,-422 231,-801 480,-1146l148 93c-243,337 -408,707 -475,1117z" style="fill:#0b6c4c"/>
   <path class="NecklaceShipWheelfil33new NecklaceShipWheelstr0new" d="M13043 22566c-74,-31 -147,-62 -221,-92 -73,-31 -147,-62 -220,-93 63,-422 231,-801 480,-1146 73,31 147,62 220,92 74,31 147,62 221,93 -71,419 -224,804 -480,1146z" style="fill:#ac3684"/>
   <polygon class="NecklaceShipWheelfil384new NecklaceShipWheelstr0new" points="13208,22477 12549,22201 12371,22627 13030,22902 "/>
  </g>
  <g>
   <path class="NecklaceShipWheelfil385new" d="M15916 23004c-63,48 -127,97 -190,145 -64,48 -127,96 -191,145 94,477 545,1362 857,1124l380 -289c312,-238 -421,-908 -856,-1125z" style="fill:#483ea4"/>
   <path class="NecklaceShipWheelfil14new" d="M15916 23004c-63,48 -127,97 -190,145 -59,45 -118,90 -177,134 429,-68 910,176 1277,585 -107,-298 -589,-704 -910,-864z" style="fill:#92de01"/>
   <path class="NecklaceShipWheelfil373new" d="M15609 23238l-74 56c94,477 545,1362 857,1124l380 -289c84,-64 92,-160 51,-269 -8,8 -16,16 -26,23l-381 290c-274,209 -655,-449 -807,-935z" style="fill:#6941bf"/>
   <path class="NecklaceShipWheelfil33new NecklaceShipWheelstr0new" d="M15916 23004c-63,48 -127,97 -190,145 -64,48 -127,96 -191,145 94,477 545,1362 857,1124l380 -289c312,-238 -421,-908 -856,-1125z" style="fill:#d586c1"/>
   <polygon class="NecklaceShipWheelfil386new NecklaceShipWheelstr0new" points="16038,22970 15470,23402 15191,23035 15759,22603 "/>
   <path class="NecklaceShipWheelfil387new" d="M15198 22060c-64,48 -127,97 -191,145 -63,48 -127,96 -190,145 -334,-267 -579,-601 -753,-989 64,-48 127,-97 191,-145 63,-48 127,-97 190,-145 328,271 585,596 753,989z" style="fill:#9bbb21"/>
   <path class="NecklaceShipWheelfil14new" d="M14217 21484l163 -124 153 -117 58 -10c219,184 368,500 517,738 -303,-363 -496,-575 -891,-487z" style="fill:#0fbf7c"/>
   <path class="NecklaceShipWheelfil373new" d="M14949 22249l-132 101c-334,-267 -579,-601 -753,-989l155 -82c170,379 408,707 730,970z" style="fill:#cbfc37"/>
   <path class="NecklaceShipWheelfil33new NecklaceShipWheelstr0new" d="M15198 22060c-64,48 -127,97 -191,145 -63,48 -127,96 -190,145 -334,-267 -579,-601 -753,-989 64,-48 127,-97 191,-145 63,-48 127,-97 190,-145 328,271 585,596 753,989z" style="fill:#3e4eb5"/>
   <polygon class="NecklaceShipWheelfil388new NecklaceShipWheelstr0new" points="15203,21873 14635,22305 14914,22672 15482,22240 "/>
  </g>
  <g>
   <path class="NecklaceShipWheelfil389new" d="M17013 19791c11,79 21,158 31,237 10,79 20,158 30,237 460,158 1452,210 1402,-179l-60 -475c-50,-388 -997,-89 -1403,180z" style="fill:#b15936"/>
   <path class="NecklaceShipWheelfil14new" d="M17013 19791c11,79 21,158 31,237 9,73 19,147 28,220 155,-405 607,-700 1144,-813 -311,-57 -904,158 -1203,356z" style="fill:#cec0cb"/>
   <path class="NecklaceShipWheelfil373new" d="M17062 20174l12 91c460,158 1452,210 1402,-179l-60 -475c-14,-104 -92,-159 -208,-178 3,11 6,23 7,35l61 474c44,342 -717,343 -1214,232z" style="fill:#121cab"/>
   <path class="NecklaceShipWheelfil33new NecklaceShipWheelstr0new" d="M17013 19791c11,79 21,158 31,237 10,79 20,158 30,237 460,158 1452,210 1402,-179l-60 -475c-50,-388 -997,-89 -1403,180z" style="fill:#aa3657"/>
   <polygon class="NecklaceShipWheelfil390new NecklaceShipWheelstr0new" points="17045,19668 17135,20376 16678,20434 16587,19726 "/>
   <path class="NecklaceShipWheelfil391new" d="M15837 19941c10,79 20,158 30,237 10,79 20,158 30,237 -397,156 -809,201 -1232,158 -11,-79 -21,-158 -31,-237 -10,-80 -20,-159 -30,-238 399,-148 808,-208 1233,-157z" style="fill:#9b06df"/>
   <path class="NecklaceShipWheelfil14new" d="M14847 20502l-25 -203 -25 -191 20 -55c269,-98 617,-69 898,-79 -466,81 -746,142 -868,528z" style="fill:#3e808f"/>
   <path class="NecklaceShipWheelfil373new" d="M15876 20251l21 164c-398,156 -809,201 -1232,158l6 -175c413,42 816,0 1205,-147z" style="fill:#22ac45"/>
   <path class="NecklaceShipWheelfil33new NecklaceShipWheelstr0new" d="M15837 19941c10,79 20,158 30,237 10,79 20,158 30,237 -397,156 -809,201 -1232,158 -11,-79 -21,-158 -31,-237 -10,-80 -20,-159 -30,-238 399,-148 808,-208 1233,-157z" style="fill:#bd06fb"/>
   <polygon class="NecklaceShipWheelfil392new NecklaceShipWheelstr0new" points="15677,19843 15767,20551 16225,20492 16135,19784 "/>
  </g>
  <g>
   <path class="NecklaceShipWheelfil393new" d="M14779 17234c74,30 147,61 221,92 73,31 147,62 221,92 366,-319 907,-1152 546,-1303l-442 -185c-361,-151 -576,818 -546,1304z" style="fill:#e31a3b"/>
   <path class="NecklaceShipWheelfil14new" d="M14779 17234c74,30 147,61 221,92 68,29 136,57 205,86 -274,-338 -303,-876 -133,-1398 -204,241 -315,862 -293,1220z" style="fill:#1cad8b"/>
   <path class="NecklaceShipWheelfil373new" d="M15135 17383l86 35c366,-319 907,-1152 546,-1303l-442 -185c-97,-41 -184,0 -258,90 11,3 22,6 34,11l441 185c317,133 -61,792 -407,1167z" style="fill:#ffe337"/>
   <path class="NecklaceShipWheelfil33new NecklaceShipWheelstr0new" d="M14779 17234c74,30 147,61 221,92 73,31 147,62 221,92 366,-319 907,-1152 546,-1303l-442 -185c-361,-151 -576,818 -546,1304z" style="fill:#99f3f8"/>
   <polygon class="NecklaceShipWheelfil394new NecklaceShipWheelstr0new" points="14689,17145 15347,17421 15169,17846 14511,17570 "/>
   <path class="NecklaceShipWheelfil395new" d="M14321 18328c73,31 147,62 221,92 73,31 147,62 220,93 -64,422 -231,801 -480,1146 -73,-31 -147,-62 -220,-92 -74,-31 -148,-62 -221,-93 71,-419 224,-804 480,-1146z" style="fill:#5c525f"/>
   <path class="NecklaceShipWheelfil14new" d="M14312 19465l-188 -79 -178 -74 -38 -45c50,-282 249,-569 381,-817 -163,444 -250,717 23,1015z" style="fill:#2bd515"/>
   <path class="NecklaceShipWheelfil373new" d="M14609 18449l153 64c-64,422 -231,801 -480,1146l-148 -93c243,-337 408,-707 475,-1117z" style="fill:#21c816"/>
   <path class="NecklaceShipWheelfil33new NecklaceShipWheelstr0new" d="M14321 18328c73,31 147,62 221,92 73,31 147,62 220,93 -64,422 -231,801 -480,1146 -73,-31 -147,-62 -220,-92 -74,-31 -148,-62 -221,-93 71,-419 224,-804 480,-1146z" style="fill:#48ddb5"/>
   <polygon class="NecklaceShipWheelfil396new NecklaceShipWheelstr0new" points="14156,18417 14814,18693 14993,18267 14334,17992 "/>
  </g>
  <path class="NecklaceShipWheelfil397new NecklaceShipWheelstr0new" d="M14906 17507c1615,676 2376,2533 1700,4148 -677,1615 -2534,2375 -4148,1699 -1615,-676 -2376,-2533 -1700,-4148 676,-1615 2534,-2376 4148,-1699zm-329 787c1179,494 1735,1851 1241,3031 -494,1180 -1851,1736 -3031,1242 -1180,-494 -1735,-1851 -1241,-3031 494,-1180 1851,-1736 3031,-1242z" style="fill:#b69498"/>
  <path class="NecklaceShipWheelfil398new NecklaceShipWheelstr0new" d="M14134 19352c595,249 876,934 627,1530 -250,596 -935,877 -1531,627 -595,-249 -876,-935 -627,-1530 250,-596 935,-877 1531,-627z" style="fill:#59fd11"/>
  <path class="NecklaceShipWheelfil399new" d="M14134 19352c595,249 876,934 627,1530 -38,91 -86,174 -142,249 4,-10 8,-19 12,-29 250,-595 -31,-1281 -627,-1530 -505,-212 -1075,-42 -1388,378 259,-576 932,-844 1518,-598z" style="fill:#fabffb"/>
  <circle class="NecklaceShipWheelfil33new NecklaceShipWheelstr6new" r="1167" transform="matrix(0.924318 0.38709 -0.38709 0.924318 13681.9 20430.5)"/>
  <path class="NecklaceShipWheelfil373new" d="M14816 17722c747,313 1298,900 1583,1595 284,696 304,1500 -9,2247 -313,748 -900,1298 -1595,1583 -696,285 -1499,305 -2247,-8 -748,-313 -1298,-900 -1583,-1595 -285,-696 -304,-1500 9,-2247 313,-748 899,-1298 1595,-1583 695,-285 1499,-305 2247,8zm1214 1747c-246,-601 -722,-1108 -1368,-1378 -646,-271 -1341,-254 -1942,-8 -600,246 -1107,721 -1378,1367 -271,647 -254,1342 -8,1942 246,601 721,1108 1367,1378 647,271 1342,254 1943,8 600,-246 1107,-721 1378,-1367 270,-647 254,-1342 8,-1942z" style="fill:#47a75f"/>
  <path class="NecklaceShipWheelfil373new" d="M14816 17722c747,313 1298,900 1583,1595 284,696 304,1500 -9,2247 -103,248 -237,474 -395,676 112,-164 210,-341 290,-532 313,-747 293,-1551 8,-2246 -285,-696 -835,-1283 -1583,-1596 -747,-313 -1551,-293 -2247,-8 -465,191 -881,500 -1200,907 330,-479 788,-839 1306,-1051 695,-285 1499,-305 2247,8zm-3231 1279c-94,139 -176,289 -243,449 -271,647 -254,1342 -8,1942 246,601 721,1108 1367,1378 647,271 1342,254 1943,8 398,-163 755,-427 1029,-774 -285,419 -684,733 -1135,918 -601,246 -1295,263 -1942,-8 -646,-270 -1122,-777 -1368,-1378 -246,-600 -262,-1295 9,-1942 91,-218 209,-416 348,-593z" style="fill:#ad5c29"/>
 </g></svg>