<svg xmlns="http://www.w3.org/2000/svg" xmlns:xlink="http://www.w3.org/1999/xlink" style="shape-rendering:geometricPrecision; text-rendering:geometricPrecision; image-rendering:optimizeQuality; fill-rule:evenodd; clip-rule:evenodd" version="1.1" viewBox="0 0 29000 29000" xml:space="preserve"><defs><style type="text/css">.HairBack-Dog0fil22 {fill:none}
.Tail-Dog5fil238 {fill:url(#Tail-Dog5id1013)}
.Tail-Dog5fil14 {fill:black;fill-opacity:0.200000}
.Tail-Dog5fil26 {fill:#fffffd}
.Tail-Dog5fil22 {fill:none}
.Tail-Dog5str0 {stroke:black;stroke-width:150;stroke-linecap:round;stroke-linejoin:round}
.RightFoot-Dog0fil26 {fill:#fffffd}
.RightFoot-Dog0fil14 {fill:black;fill-opacity:0.200000}
.RightFoot-Dog0fil22 {fill:none}
.RightFoot-Dog0fil32 {fill:black;fill-rule:nonzero}
.RightLeg-Dog2fil244 {fill:url(#RightLeg-Dog2id52)}
.RightLeg-Dog2fil26 {fill:#fffffd}
.RightLeg-Dog2fil32 {fill:black;fill-rule:nonzero}
.RightLeg-Dog2fil14 {fill:black;fill-opacity:0.200000}
.LeftFoot-Dog0fil26 {fill:#fffffd}
.LeftFoot-Dog0fil14 {fill:black;fill-opacity:0.200000}
.LeftFoot-Dog0fil22 {fill:none}
.LeftFoot-Dog0fil32 {fill:black;fill-rule:nonzero}
.LeftLeg-Dog2fil249 {fill:url(#LeftLeg-Dog2id285)}
.LeftLeg-Dog2fil26 {fill:#fffffd}
.LeftLeg-Dog2fil32 {fill:black;fill-rule:nonzero}
.LeftLeg-Dog2fil14 {fill:black;fill-opacity:0.200000}
.RightHand-Dog4fil256 {fill:url(#RightHand-Dog4id168)}
.RightHand-Dog4fil257 {fill:url(#RightHand-Dog4id22)}
.RightHand-Dog4fil14 {fill:black;fill-opacity:0.200000}
.RightHand-Dog4fil22 {fill:none}
.RightHand-Dog4str0 {stroke:black;stroke-width:150;stroke-linecap:round;stroke-linejoin:round}
.RightPaw-Dog1fil26 {fill:#fffffd}
.RightPaw-Dog1fil14 {fill:black;fill-opacity:0.200000}
.RightPaw-Dog1fil32 {fill:black;fill-rule:nonzero}
.LeftHand-Dog4fil262 {fill:url(#LeftHand-Dog4id426)}
.LeftHand-Dog4fil57 {fill:url(#LeftHand-Dog4id5)}
.LeftHand-Dog4fil14 {fill:black;fill-opacity:0.200000}
.LeftHand-Dog4fil22 {fill:none}
.LeftHand-Dog4str0 {stroke:black;stroke-width:150;stroke-linecap:round;stroke-linejoin:round}
.LeftPaw-Dog1fil26 {fill:#fffffd}
.LeftPaw-Dog1fil14 {fill:black;fill-opacity:0.200000}
.LeftPaw-Dog1fil32 {fill:black;fill-rule:nonzero}
.Body-Dog0fil267 {fill:url(#Body-Dog0id28)}
.Body-Dog0fil268 {fill:url(#Body-Dog0id251)}
.Body-Dog0fil14 {fill:black;fill-opacity:0.200000}
.Body-Dog0fil32 {fill:black;fill-rule:nonzero}
.Head-Dog7fil330 {fill:url(#Head-Dog7id327)}
.Head-Dog7fil341 {fill:url(#Head-Dog7id403)}
.Head-Dog7fil14 {fill:black;fill-opacity:0.200000}
.Head-Dog7fil32 {fill:black;fill-rule:nonzero}
.Head-Dog7fil342 {fill:url(#Head-Dog7id377)}
.Mouth-Dog3fil100 {fill:black}
.Mouth-Dog3fil22 {fill:none}
.Mouth-Dog3str0 {stroke:black;stroke-width:150;stroke-linecap:round;stroke-linejoin:round}
.Mouth-Dog3fil151 {fill:#FF9999}
.Mouth-Dog3fil152 {fill:white}
.Eyes-Dog8fil386 {fill:url(#Eyes-Dog8id958)}
.Eyes-Dog8fil387 {fill:url(#Eyes-Dog8id1039)}
.Eyes-Dog8fil388 {fill:url(#Eyes-Dog8id778)}
.Eyes-Dog8fil152 {fill:white}
.Eyes-Dog8fil157 {fill:black;fill-opacity:0.501961}
.Eyes-Dog8fil389 {fill:url(#Eyes-Dog8id27)}
.Eyes-Dog8fil390 {fill:url(#Eyes-Dog8id1044)}
.Eyes-Dog8fil391 {fill:url(#Eyes-Dog8id776)}
.Eyes-Dog8fil155 {fill:#a59562}
.Eyes-Dog8fil14 {fill:black;fill-opacity:0.200000}
.Eyes-Dog8fil22 {fill:none}
.Eyes-Dog8str4 {stroke:black;stroke-width:150}
.Moustache-Dog6fil413 {fill:url(#Moustache-Dog6id340)}
.Moustache-Dog6fil14 {fill:black;fill-opacity:0.200000}
.Moustache-Dog6fil32 {fill:black;fill-rule:nonzero}
.Moustache-Dog6fil414 {fill:url(#Moustache-Dog6id97)}
.Nose-Dog0fil416 {fill:url(#Nose-Dog0id907)}
.Nose-Dog0str0 {stroke:black;stroke-width:150;stroke-linecap:round;stroke-linejoin:round}
.BraceletSteel-Mediumfil57new {fill:url(#BraceletSteel-Mediumid666new);fill-rule:nonzero}
.BraceletSteel-Mediumstr4new {stroke:black;stroke-width:100}
.BraceletSteel-Mediumfil58new {fill:url(#BraceletSteel-Mediumid686new);fill-rule:nonzero}
.NecklaceYinYangfil225new {fill:url(#NecklaceYinYangid676new);fill-rule:nonzero}
.NecklaceYinYangfil46new {fill:white;fill-rule:nonzero;fill-opacity:0.200000}
.NecklaceYinYangfil84new {fill:black}
.NecklaceYinYangfil83new {fill:white}
.NecklaceYinYangfil47new {fill:none;fill-rule:nonzero}
.NecklaceYinYangstr4new {stroke:black;stroke-width:100}
.NecklaceYinYangfil226new {fill:url(#NecklaceYinYangid677new);fill-rule:nonzero}
.NecklaceYinYangstr3new {stroke:black;stroke-width:100;stroke-linecap:round;stroke-linejoin:round}
.NecklaceYinYangfil227new {fill:url(#NecklaceYinYangid669new);fill-rule:nonzero}
.NecklaceYinYangfil228new {fill:url(#NecklaceYinYangid705new);fill-rule:nonzero}
.NecklaceYinYangfil229new {fill:url(#NecklaceYinYangid685new);fill-rule:nonzero}
.NecklaceYinYangfil230new {fill:url(#NecklaceYinYangid101new)}
.HatG-Mediumfil14new {fill:black;fill-opacity:0.200000}
.HatG-Mediumfil635new {fill:url(#HatG-Mediumid47new)}
.HatG-Mediumfil636new {fill:url(#HatG-Mediumid218new)}
.HatG-Mediumfil637new {fill:url(#HatG-Mediumid49new)}
.HatG-Mediumfil638new {fill:url(#HatG-Mediumid170new)}
.HatG-Mediumfil640new {fill:url(#HatG-Mediumid3new)}
.HatG-Mediumfil641new {fill:url(#HatG-Mediumid56new)}
.HatG-Mediumfil33new {fill:none}
.HatG-Mediumstr0new {stroke:black;stroke-width:150;stroke-linecap:round;stroke-linejoin:round}
.HatG-Mediumfil639new {fill:none}
.HatG-Mediumstr19new {stroke:black;stroke-width:100;stroke-opacity:0.101961}
.HatG-Mediumstr20new {stroke:black;stroke-width:75;stroke-linecap:round;stroke-linejoin:round;stroke-dasharray:150.000000 225.000000;stroke-opacity:0.101961}
.HatG-Mediumstr6new {stroke:black;stroke-width:150}
.AccessoryWaterHydrantfil32 {fill:#FF9E9E;fill-opacity:0.501961}
.AccessoryWaterHydrantfil35 {fill:black;fill-opacity:0.400000}
.AccessoryWaterHydrantfil25 {fill:url(#AccessoryWaterHydrantid35)}
.AccessoryWaterHydrantstr2 {stroke:black;stroke-width:150;stroke-linecap:round}
.AccessoryWaterHydrantfil26 {fill:url(#AccessoryWaterHydrantid50)}
.AccessoryWaterHydrantfil27 {fill:url(#AccessoryWaterHydrantid32)}
.AccessoryWaterHydrantfil28 {fill:url(#AccessoryWaterHydrantid74)}
.AccessoryWaterHydrantfil29 {fill:url(#AccessoryWaterHydrantid66)}
.AccessoryWaterHydrantfil30 {fill:url(#AccessoryWaterHydrantid34)}
.AccessoryWaterHydrantfil31 {fill:url(#AccessoryWaterHydrantid70)}
.AccessoryWaterHydrantstr3 {stroke:black;stroke-width:150;stroke-linecap:round;stroke-linejoin:round}
.AccessoryWaterHydrantfil2 {fill:none}
.AccessoryWaterHydrantstr4 {stroke:black;stroke-width:150}
.AccessoryWaterHydrantfil33 {fill:url(#AccessoryWaterHydrantid38)}
.AccessoryWaterHydrantfil34 {fill:url(#AccessoryWaterHydrantid57)}
.AccessoryWaterHydrantfil36 {fill:url(#AccessoryWaterHydrantid60)}
.AccessoryWaterHydrantfil37 {fill:url(#AccessoryWaterHydrantid54)}
.AccessoryWaterHydrantfil38 {fill:url(#AccessoryWaterHydrantid58)}
.AccessoryWaterHydrantfil39 {fill:none}
.AccessoryWaterHydrantstr5 {stroke:black;stroke-width:150;stroke-opacity:0.400000}
.AccessoryWaterHydrantfil40 {fill:url(#AccessoryWaterHydrantid68)}
.AccessoryWaterHydrantstr1 {stroke:black;stroke-width:150}
.AccessoryWaterHydrantstr6 {stroke:black;stroke-width:400;stroke-linecap:round;stroke-linejoin:round;stroke-opacity:0.400000}
</style><linearGradient gradientUnits="userSpaceOnUse" id="Tail-Dog5id1013" x1="15375.6" x2="19587.5" xlink:href="#Tail-Dog5id74" y1="23953.7" y2="19621.3">
  </linearGradient><linearGradient gradientUnits="objectBoundingBox" id="RightLeg-Dog2id52" x1="50%" x2="50%" xlink:href="#RightLeg-Dog2id19" y1="100%" y2="0%">
  </linearGradient><linearGradient gradientUnits="objectBoundingBox" id="LeftLeg-Dog2id285" x1="50%" x2="50%" xlink:href="#LeftLeg-Dog2id19" y1="100%" y2="0%">
  </linearGradient><linearGradient gradientUnits="objectBoundingBox" id="RightHand-Dog4id168" x1="19.8228%" x2="80.1772%" y1="10.3299%" y2="89.6698%">
   <stop offset="0" style="stop-opacity:1; stop-color:#d9d9cc"/>
   <stop offset="0.0196078" style="stop-opacity:1; stop-color:#d9d9cc"/>
   <stop offset="0.721569" style="stop-opacity:1; stop-color:#fffffc"/>
   <stop offset="1" style="stop-opacity:1; stop-color:#fffffc"/>
  </linearGradient><linearGradient gradientUnits="userSpaceOnUse" id="RightHand-Dog4id22" x1="16885.8" x2="16885.8" xlink:href="#RightHand-Dog4id5" y1="17625.4" y2="19553.4">
  </linearGradient><linearGradient gradientUnits="objectBoundingBox" id="LeftHand-Dog4id426" x1="80.1772%" x2="19.8228%" xlink:href="#LeftHand-Dog4id168" y1="10.3299%" y2="89.6698%">
  </linearGradient><linearGradient gradientUnits="objectBoundingBox" id="LeftHand-Dog4id5" x1="50%" x2="50%" y1="0%" y2="100%">
   <stop offset="0" style="stop-opacity:1; stop-color:#a59562"/>
   <stop offset="1" style="stop-opacity:1; stop-color:#ccbd8d"/>
  </linearGradient><linearGradient gradientUnits="objectBoundingBox" id="Body-Dog0id28" x1="50%" x2="50%" y1="0%" y2="100%">
   <stop offset="0" style="stop-opacity:1; stop-color:#d9d9cc"/>
   <stop offset="0.101961" style="stop-opacity:1; stop-color:#d9d9cc"/>
   <stop offset="0.521569" style="stop-opacity:1; stop-color:#fffffc"/>
   <stop offset="1" style="stop-opacity:1; stop-color:#ffffff"/>
  </linearGradient><linearGradient gradientUnits="userSpaceOnUse" id="Body-Dog0id251" x1="13681.9" x2="13681.9" y1="17494.1" y2="22874.9">
   <stop offset="0" style="stop-opacity:1; stop-color:#d9d9cc"/>
   <stop offset="0.278431" style="stop-opacity:1; stop-color:#fffffc"/>
   <stop offset="0.721569" style="stop-opacity:1; stop-color:#ffffff"/>
   <stop offset="1" style="stop-opacity:1; stop-color:#ffffff"/>
  </linearGradient><linearGradient gradientUnits="objectBoundingBox" id="Head-Dog7id327" x1="50%" x2="50%" xlink:href="#Head-Dog7id35" y1="99.9999%" y2="0%">
  </linearGradient><linearGradient gradientUnits="userSpaceOnUse" id="Head-Dog7id403" x1="14977.5" x2="19153.5" xlink:href="#Head-Dog7id18" y1="10345.9" y2="14381.5">
  </linearGradient><linearGradient gradientUnits="userSpaceOnUse" id="Head-Dog7id377" x1="11727.3" x2="11727.3" xlink:href="#Head-Dog7id132" y1="16891.4" y2="10356.4">
  </linearGradient><linearGradient gradientUnits="userSpaceOnUse" id="Eyes-Dog8id958" x1="10796.1" x2="10056.3" xlink:href="#Eyes-Dog8id27" y1="14883" y2="11526.9">
  </linearGradient><radialGradient cx="49.9999%" cy="50.0002%" fx="49.9999%" fy="50.0002%" gradientUnits="objectBoundingBox" id="Eyes-Dog8id1039" r="50.0001%">
   <stop offset="0" style="stop-opacity:1; stop-color:#00ffa5"/>
   <stop offset="1" style="stop-opacity:1; stop-color:#008053"/>
  </radialGradient><linearGradient gradientUnits="userSpaceOnUse" id="Eyes-Dog8id778" x1="10513.2" x2="11003.9" xlink:href="#Eyes-Dog8id384" y1="11650.2" y2="14215">
  </linearGradient><radialGradient cx="16937.7" cy="13396.1" fx="16937.7" fy="13396.1" gradientTransform="matrix(-1 -0 -0 0.885958 33875 1528)" gradientUnits="userSpaceOnUse" id="Eyes-Dog8id1044" r="1766.72" xlink:href="#Eyes-Dog8id1039">
  </radialGradient><linearGradient gradientUnits="userSpaceOnUse" id="Eyes-Dog8id776" x1="16605.3" x2="16605.3" xlink:href="#Eyes-Dog8id384" y1="11591" y2="14274.2">
  </linearGradient><linearGradient gradientUnits="userSpaceOnUse" id="Moustache-Dog6id340" x1="9389.99" x2="12933.9" xlink:href="#Moustache-Dog6id87" y1="16043.9" y2="14183.3">
  </linearGradient><linearGradient gradientUnits="userSpaceOnUse" id="Moustache-Dog6id97" x1="17973.8" x2="14429.9" xlink:href="#Moustache-Dog6id87" y1="16043.9" y2="14183.3">
  </linearGradient><linearGradient gradientUnits="userSpaceOnUse" id="Nose-Dog0id907" x1="13681.9" x2="13681.9" xlink:href="#Nose-Dog0id451" y1="14020.2" y2="14838.5">
  </linearGradient><linearGradient gradientUnits="userSpaceOnUse" id="BraceletSteel-Mediumid666new" x1="8808.47" x2="10149.2" xlink:href="#BraceletSteel-Mediumid663new" y1="19708.3" y2="20807.9">
  </linearGradient><linearGradient gradientUnits="userSpaceOnUse" id="BraceletSteel-Mediumid686new" x1="18555.4" x2="17214.7" xlink:href="#BraceletSteel-Mediumid663new" y1="19708.3" y2="20807.9">
  </linearGradient><linearGradient gradientUnits="userSpaceOnUse" id="NecklaceYinYangid676new" x1="13681.9" x2="13681.9" xlink:href="#NecklaceYinYangid669new" y1="17208" y2="20390.5">
  </linearGradient><linearGradient gradientUnits="userSpaceOnUse" id="NecklaceYinYangid677new" x1="11189" x2="11399.5" xlink:href="#NecklaceYinYangid669new" y1="18603.5" y2="18002.2">
  </linearGradient><linearGradient gradientUnits="userSpaceOnUse" id="NecklaceYinYangid705new" x1="16170.9" x2="15961.3" xlink:href="#NecklaceYinYangid669new" y1="18602.8" y2="18004">
  </linearGradient><linearGradient gradientUnits="userSpaceOnUse" id="NecklaceYinYangid685new" x1="15099" x2="14900.7" xlink:href="#NecklaceYinYangid669new" y1="19895.5" y2="19273.3">
  </linearGradient><linearGradient gradientUnits="userSpaceOnUse" id="NecklaceYinYangid101new" x1="13681.9" x2="13681.9" y1="20483.4" y2="19943.6">
   <stop offset="0" style="stop-opacity:1; stop-color:#2B2A29"/>
   <stop offset="1" style="stop-opacity:1; stop-color:#fffffd"/>
  </linearGradient><linearGradient gradientUnits="userSpaceOnUse" id="HatG-Mediumid47new" x1="8773.38" x2="12925.9" y1="10563.5" y2="5372.75">
   <stop offset="0" style="stop-opacity:1; stop-color:#CCCCD0"/>
   <stop offset="1" style="stop-opacity:1; stop-color:#F2F2F6"/>
  </linearGradient><linearGradient gradientUnits="userSpaceOnUse" id="HatG-Mediumid218new" x1="7703.58" x2="9238.2" xlink:href="#HatG-Mediumid170new" y1="10639.8" y2="6826.5">
  </linearGradient><linearGradient gradientUnits="userSpaceOnUse" id="HatG-Mediumid49new" x1="14578.6" x2="18656.5" y1="10035.4" y2="5357.8">
   <stop offset="0" style="stop-opacity:1; stop-color:#DBDBE0"/>
   <stop offset="0.74902" style="stop-opacity:1; stop-color:white"/>
   <stop offset="1" style="stop-opacity:1; stop-color:white"/>
  </linearGradient><linearGradient gradientUnits="userSpaceOnUse" id="HatG-Mediumid3new" x1="13755" x2="13755" y1="9815.97" y2="13088.5">
   <stop offset="0" style="stop-opacity:1; stop-color:#15153B"/>
   <stop offset="1" style="stop-opacity:1; stop-color:#080814"/>
  </linearGradient><linearGradient gradientUnits="userSpaceOnUse" id="HatG-Mediumid56new" x1="20387.5" x2="7122.61" y1="10226.4" y2="11933.8">
   <stop offset="0" style="stop-opacity:1; stop-color:#6666CC"/>
   <stop offset="1" style="stop-opacity:1; stop-color:#3D3B78"/>
  </linearGradient><linearGradient gradientUnits="userSpaceOnUse" id="AccessoryWaterHydrantid35" x1="1412.61" x2="1346.62" y1="21900.7" y2="21420.5">
   <stop offset="0" style="stop-opacity:1; stop-color:#C79191"/>
   <stop offset="0.490196" style="stop-opacity:1; stop-color:#8C7777"/>
   <stop offset="1" style="stop-opacity:1; stop-color:#EDCFCE"/>
  </linearGradient><linearGradient gradientUnits="userSpaceOnUse" id="AccessoryWaterHydrantid50" x1="1822.86" x2="1822.86" xlink:href="#AccessoryWaterHydrantid32" y1="22158.9" y2="21162.2">
  </linearGradient><linearGradient gradientUnits="userSpaceOnUse" id="AccessoryWaterHydrantid74" x1="5820.44" x2="5754.45" xlink:href="#AccessoryWaterHydrantid35" y1="21900.7" y2="21420.5">
  </linearGradient><linearGradient gradientUnits="userSpaceOnUse" id="AccessoryWaterHydrantid66" x1="5344.2" x2="5344.2" xlink:href="#AccessoryWaterHydrantid32" y1="22158.9" y2="21162.2">
  </linearGradient><linearGradient gradientUnits="userSpaceOnUse" id="AccessoryWaterHydrantid34" x1="5014.59" x2="5014.59" xlink:href="#AccessoryWaterHydrantid32" y1="22521" y2="20800.2">
  </linearGradient><linearGradient gradientUnits="userSpaceOnUse" id="AccessoryWaterHydrantid70" x1="1577.12" x2="5765.73" xlink:href="#AccessoryWaterHydrantid57" y1="25128.7" y2="25128.7">
  </linearGradient><linearGradient gradientUnits="userSpaceOnUse" id="AccessoryWaterHydrantid38" x1="3236.42" x2="4106.43" y1="17865.7" y2="17865.7">
   <stop offset="0" style="stop-opacity:1; stop-color:#DF302F"/>
   <stop offset="0.278431" style="stop-opacity:1; stop-color:#860203"/>
   <stop offset="0.560784" style="stop-opacity:1; stop-color:#A61514"/>
   <stop offset="0.780392" style="stop-opacity:1; stop-color:#FF8C96"/>
   <stop offset="1" style="stop-opacity:1; stop-color:#D9342E"/>
  </linearGradient><linearGradient gradientUnits="userSpaceOnUse" id="AccessoryWaterHydrantid60" x1="1709.43" x2="5633.42" xlink:href="#AccessoryWaterHydrantid57" y1="19824.4" y2="19824.4">
  </linearGradient><linearGradient gradientUnits="userSpaceOnUse" id="AccessoryWaterHydrantid54" x1="2866.92" x2="4475.93" xlink:href="#AccessoryWaterHydrantid32" y1="22066.7" y2="21218.5">
  </linearGradient><linearGradient gradientUnits="userSpaceOnUse" id="AccessoryWaterHydrantid58" x1="3278.19" x2="4064.66" xlink:href="#AccessoryWaterHydrantid32" y1="21849.9" y2="21435.3">
  </linearGradient><linearGradient gradientUnits="userSpaceOnUse" id="AccessoryWaterHydrantid68" x1="3485.88" x2="3856.97" y1="21740.4" y2="21544.8">
   <stop offset="0" style="stop-opacity:1; stop-color:#C79191"/>
   <stop offset="0.670588" style="stop-opacity:1; stop-color:#8C7777"/>
   <stop offset="1" style="stop-opacity:1; stop-color:#EDCFCE"/>
  </linearGradient><linearGradient gradientUnits="userSpaceOnUse" id="Tail-Dog5id74" x1="15961" x2="18418.2" y1="23174.1" y2="17871.9">
   <stop offset="0" style="stop-opacity:1; stop-color:#d9d9cc"/>
   <stop offset="1" style="stop-opacity:1; stop-color:#fffffc"/>
  </linearGradient><linearGradient gradientUnits="userSpaceOnUse" id="RightLeg-Dog2id19" x1="15490.3" x2="15490.3" y1="24284.1" y2="21188.2">
   <stop offset="0" style="stop-opacity:1; stop-color:#ffffff"/>
   <stop offset="0.439216" style="stop-opacity:1; stop-color:#ffffff"/>
   <stop offset="1" style="stop-opacity:1; stop-color:#fffffc"/>
  </linearGradient><linearGradient gradientUnits="userSpaceOnUse" id="LeftLeg-Dog2id19" x1="15490.3" x2="15490.3" y1="24284.1" y2="21188.2">
   <stop offset="0" style="stop-opacity:1; stop-color:#ffffff"/>
   <stop offset="0.439216" style="stop-opacity:1; stop-color:#ffffff"/>
   <stop offset="1" style="stop-opacity:1; stop-color:#fffffc"/>
  </linearGradient><linearGradient gradientUnits="objectBoundingBox" id="RightHand-Dog4id5" x1="50%" x2="50%" y1="0%" y2="100%">
   <stop offset="0" style="stop-opacity:1; stop-color:#a59562"/>
   <stop offset="1" style="stop-opacity:1; stop-color:#ccbd8d"/>
  </linearGradient><linearGradient gradientUnits="objectBoundingBox" id="LeftHand-Dog4id168" x1="19.8228%" x2="80.1772%" y1="10.3299%" y2="89.6698%">
   <stop offset="0" style="stop-opacity:1; stop-color:#d9d9cc"/>
   <stop offset="0.0196078" style="stop-opacity:1; stop-color:#d9d9cc"/>
   <stop offset="0.721569" style="stop-opacity:1; stop-color:#fffffc"/>
   <stop offset="1" style="stop-opacity:1; stop-color:#fffffc"/>
  </linearGradient><linearGradient gradientUnits="userSpaceOnUse" id="Head-Dog7id35" x1="13681.9" x2="13681.9" y1="17936.7" y2="7484.8">
   <stop offset="0" style="stop-opacity:1; stop-color:#d9d9cc"/>
   <stop offset="0.4" style="stop-opacity:1; stop-color:#fffffc"/>
   <stop offset="1" style="stop-opacity:1; stop-color:#ffffff"/>
  </linearGradient><linearGradient gradientUnits="userSpaceOnUse" id="Head-Dog7id18" x1="10235.1" x2="10235.1" y1="19681.2" y2="17649.5">
   <stop offset="0" style="stop-opacity:1; stop-color:#ccbd8d"/>
   <stop offset="1" style="stop-opacity:1; stop-color:#a59562"/>
  </linearGradient><linearGradient gradientUnits="userSpaceOnUse" id="Head-Dog7id132" x1="13664.7" x2="13664.7" y1="17953.2" y2="22866.3">
   <stop offset="0" style="stop-opacity:1; stop-color:#f2f2e4"/>
   <stop offset="0.341176" style="stop-opacity:1; stop-color:#fffffd"/>
   <stop offset="1" style="stop-opacity:1; stop-color:#fffffd"/>
  </linearGradient><linearGradient gradientUnits="userSpaceOnUse" id="Eyes-Dog8id27" x1="16937.6" x2="16937.6" y1="14961.3" y2="11448.6">
   <stop offset="0" style="stop-opacity:1; stop-color:#008053"/>
   <stop offset="1" style="stop-opacity:1; stop-color:black"/>
  </linearGradient><linearGradient gradientUnits="userSpaceOnUse" id="Eyes-Dog8id384" x1="16417.8" x2="16417.8" y1="11784.3" y2="14068.5">
   <stop offset="0" style="stop-opacity:1; stop-color:black"/>
   <stop offset="0.45" style="stop-opacity:1; stop-color:black"/>
   <stop offset="1" style="stop-opacity:1; stop-color:#006642"/>
  </linearGradient><linearGradient gradientUnits="userSpaceOnUse" id="Moustache-Dog6id87" x1="16230.4" x2="13904.5" y1="16152.6" y2="14931.5">
   <stop offset="0" style="stop-opacity:1; stop-color:#cdd1dd"/>
   <stop offset="1" style="stop-opacity:1; stop-color:#a3abc4"/>
  </linearGradient><linearGradient gradientUnits="userSpaceOnUse" id="Nose-Dog0id451" x1="13653.8" x2="13653.8" y1="14108.6" y2="14926.9">
   <stop offset="0" style="stop-opacity:1; stop-color:#FFCCCC"/>
   <stop offset="1" style="stop-opacity:1; stop-color:#453F2C"/>
  </linearGradient><linearGradient gradientUnits="userSpaceOnUse" id="BraceletSteel-Mediumid663new" x1="19208.4" x2="16994.4" y1="19855.6" y2="20661.5">
   <stop offset="0" style="stop-opacity:1; stop-color:#424352"/>
   <stop offset="0.109804" style="stop-opacity:1; stop-color:#848690"/>
   <stop offset="0.25098" style="stop-opacity:1; stop-color:#FFFFFC"/>
   <stop offset="0.470588" style="stop-opacity:1; stop-color:#8D8F99"/>
   <stop offset="0.780392" style="stop-opacity:1; stop-color:#16171A"/>
   <stop offset="1" style="stop-opacity:1; stop-color:#42444D"/>
  </linearGradient><linearGradient gradientUnits="userSpaceOnUse" id="NecklaceYinYangid669new" x1="12270.9" x2="12467.6" y1="19894.7" y2="19277.5">
   <stop offset="0" style="stop-opacity:1; stop-color:#643300"/>
   <stop offset="1" style="stop-opacity:1; stop-color:#AB7D2D"/>
  </linearGradient><linearGradient gradientUnits="userSpaceOnUse" id="HatG-Mediumid170new" x1="18179.1" x2="19599.3" y1="10226.2" y2="6697.29">
   <stop offset="0" style="stop-opacity:1; stop-color:#15153B"/>
   <stop offset="1" style="stop-opacity:1; stop-color:#4A47A1"/>
  </linearGradient><linearGradient gradientUnits="userSpaceOnUse" id="AccessoryWaterHydrantid32" x1="2152.47" x2="2152.47" y1="22521" y2="20800.2">
   <stop offset="0" style="stop-opacity:1; stop-color:#DF302F"/>
   <stop offset="0.25098" style="stop-opacity:1; stop-color:#A61514"/>
   <stop offset="0.670588" style="stop-opacity:1; stop-color:#E34242"/>
   <stop offset="1" style="stop-opacity:1; stop-color:#D9342E"/>
  </linearGradient><linearGradient gradientUnits="userSpaceOnUse" id="AccessoryWaterHydrantid57" x1="2239.15" x2="5103.7" y1="21426.4" y2="21426.4">
   <stop offset="0" style="stop-opacity:1; stop-color:#DF302F"/>
   <stop offset="0.278431" style="stop-opacity:1; stop-color:#860203"/>
   <stop offset="0.560784" style="stop-opacity:1; stop-color:#A61514"/>
   <stop offset="0.780392" style="stop-opacity:1; stop-color:#FC606D"/>
   <stop offset="1" style="stop-opacity:1; stop-color:#D9342E"/>
  </linearGradient></defs><g id="AccessoryWaterHydrant">
  <metadata id="CorelCorpID_1Corel-Layer"/>
  <g id="_3081483343424">
   <path class="AccessoryWaterHydrantfil25 AccessoryWaterHydrantstr2" d="M1534 21913c-74,-37 -235,-75 -308,-113 0,-470 0,192 0,-279 73,-38 234,-75 308,-113 0,546 0,-41 0,505z" style="fill:#b3b6cc"/>
   <rect class="AccessoryWaterHydrantfil26 AccessoryWaterHydrantstr2" height="997" rx="179" ry="51" width="654" x="1496" y="21162"/>
   <rect class="AccessoryWaterHydrantfil27 AccessoryWaterHydrantstr2" height="1721" rx="169" ry="75" width="731" x="1787" y="20800"/>
   <path class="AccessoryWaterHydrantfil28 AccessoryWaterHydrantstr2" d="M5633 21913c74,-37 235,-75 309,-113 0,-470 0,192 0,-279 -74,-38 -235,-75 -309,-113 0,546 0,-41 0,505z" style="fill:#a6d199"/>
   <rect class="AccessoryWaterHydrantfil29 AccessoryWaterHydrantstr2" height="997" rx="179" ry="51" width="654" x="5017" y="21162"/>
   <rect class="AccessoryWaterHydrantfil30 AccessoryWaterHydrantstr2" height="1721" rx="169" ry="75" width="731" x="4649" y="20800"/>
   <path class="AccessoryWaterHydrantfil31 AccessoryWaterHydrantstr3" d="M5766 25404l0 -550c0,-147 -938,-265 -2095,-265 -1156,0 -2094,118 -2094,265l0 550c0,146 938,265 2094,265 1157,0 2095,-119 2095,-265z" style="fill:#22585d"/>
   <path class="AccessoryWaterHydrantfil32" d="M3671 24589c1157,0 2095,118 2095,265 0,146 -938,352 -2095,352 -1156,0 -2094,-206 -2094,-352 0,-147 938,-265 2094,-265z" style="fill:#f27644"/>
   <path class="AccessoryWaterHydrantfil2 AccessoryWaterHydrantstr4" d="M3671 24589c1157,0 2095,118 2095,265 0,146 -938,352 -2095,352 -1156,0 -2094,-206 -2094,-352 0,-147 938,-265 2094,-265z" style="fill:#dd4173"/>
   <path class="AccessoryWaterHydrantfil33 AccessoryWaterHydrantstr3" d="M3671 17525c-415,0 -435,312 -435,457 0,145 0,114 0,222 0,15 83,-54 435,-54 353,0 435,69 435,54 0,-108 0,-77 0,-222 0,-145 -19,-457 -435,-457z" style="fill:#87e3f2"/>
   <path class="AccessoryWaterHydrantfil34 AccessoryWaterHydrantstr3" d="M3671 17910c-1161,0 -1432,1058 -1432,1550l0 480 0 273 0 4523c0,115 924,207 1432,207 509,0 1433,-92 1433,-207l0 -4523 0 -273 0 -480c0,-492 -271,-1550 -1433,-1550z" style="fill:#d34193"/>
   <path class="AccessoryWaterHydrantfil35" d="M3583 24701l177 0c109,0 198,-88 198,-197l0 -4049c0,-108 -89,-197 -198,-197l-177 0c-109,0 -198,89 -198,197l0 4049c0,109 89,197 198,197z" style="fill:#b6014e"/>
   <path class="AccessoryWaterHydrantfil35" d="M4394 24701l156 0c95,0 173,-77 173,-172l0 -4098c0,-96 -78,-173 -173,-173l-156 0c-95,0 -173,77 -173,173l0 4098c0,95 78,172 173,172z" style="fill:#83f424"/>
   <path class="AccessoryWaterHydrantfil35" d="M2793 24701l155 0c96,0 173,-77 173,-172l0 -4098c0,-96 -77,-173 -173,-173l-155 0c-95,0 -173,77 -173,173l0 4098c0,95 78,172 173,172z" style="fill:#460e21"/>
   <path class="AccessoryWaterHydrantfil36 AccessoryWaterHydrantstr3" d="M1996 20117c559,-29 654,-87 1675,-87 1021,0 1117,58 1676,87 157,8 286,-112 286,-249 0,0 0,0 0,0 0,-137 -85,-230 -286,-249 -556,-55 -791,-87 -1676,-87 -885,0 -1116,58 -1675,87 -157,8 -287,112 -287,249 0,0 0,0 0,0 0,137 130,257 287,249z" style="fill:#310484"/>
   <ellipse class="AccessoryWaterHydrantfil37 AccessoryWaterHydrantstr4" cx="3671" cy="21643" rx="911" ry="900"/>
   <ellipse class="AccessoryWaterHydrantfil38 AccessoryWaterHydrantstr4" cx="3671" cy="21643" rx="445" ry="440"/>
   <path class="AccessoryWaterHydrantfil39 AccessoryWaterHydrantstr5" d="M3671 22304c370,0 670,-296 670,-661 0,-366 -300,-662 -670,-662 -369,0 -669,296 -669,662 0,365 300,661 669,661z" style="fill:#c2fa74"/>
   <polygon class="AccessoryWaterHydrantfil40 AccessoryWaterHydrantstr1" points="3892,21643 3837,21737 3782,21831 3671,21831 3561,21831 3506,21737 3451,21643 3506,21548 3561,21454 3671,21454 3782,21454 3837,21548 "/>
   <path class="AccessoryWaterHydrantfil39 AccessoryWaterHydrantstr6" d="M2852 19132c23,-315 94,-510 124,-608" style="fill:#e8f838"/>
   <path class="AccessoryWaterHydrantfil39 AccessoryWaterHydrantstr6" d="M4491 19132c-23,-315 -94,-510 -124,-608" style="fill:#e7c528"/>
   <line class="AccessoryWaterHydrantfil39 AccessoryWaterHydrantstr6" x1="3671" x2="3673" y1="19132" y2="18510"/>
  </g>
 </g><g id="HairBack-Dog0">
 <animateTransform additive="sum" attributeName="transform" dur="10" repeatCount="indefinite" type="translate" values="0;0 200;0;0 200;0;0 200;0;0 200;0"/>
  <metadata id="CorelCorpID_115Corel-Layer"/>
  <rect class="HairBack-Dog0fil22" height="890" width="890" x="13237" y="6590"/>
 </g><g id="Tail-Dog5">
  <metadata id="CorelCorpID_122Corel-Layer"/>
  <path class="Tail-Dog5fil238" d="M13724 21721c1720,1554 3028,1087 3640,-286 576,-1294 2167,-3016 5034,-2164 -1013,241 -695,2249 -1754,3591 -1340,1700 -4862,2670 -8024,64 -297,-194 678,-1500 1104,-1205z" style="fill:#ecf424"/>
  <path class="Tail-Dog5fil14" d="M20992 22313c-97,191 -211,376 -348,549 -1331,1689 -4815,2656 -7960,116l1080 -897c1836,2003 5794,2346 7228,232z" style="fill:#f728f5"/>
  <path class="Tail-Dog5fil26" d="M19109 19499c819,-451 1905,-639 3289,-228 -673,160 -759,1101 -1051,2108 -269,64 -664,27 -893,-190 -332,-317 -196,-957 -495,-1397 -177,-260 -564,-302 -850,-293z" style="fill:#64073c"/>
  <path class="Tail-Dog5fil22 Tail-Dog5str0" d="M13724 21721c1720,1554 3028,1087 3640,-286 576,-1294 2167,-3016 5034,-2164 -950,319 -695,2249 -1754,3591 -1340,1700 -4862,2670 -8024,64 -297,-194 678,-1500 1104,-1205z" style="fill:#52cc86"/>
 </g><g id="RightFoot-Dog0">
  <metadata id="CorelCorpID_125Corel-Layer"/>
  <path class="RightFoot-Dog0fil26" d="M17461 25232c-144,249 -469,331 -709,123 -82,82 -321,169 -611,76 -475,-152 -678,-627 -1088,-897 -209,-138 -43,-480 -31,-702 205,68 639,20 960,-216 332,-245 1043,-199 820,325 153,50 376,135 488,193 178,92 308,217 397,350 166,246 124,748 -226,748z" style="fill:#b9c5a6"/>
  <path class="RightFoot-Dog0fil14" d="M17461 25232c-144,249 -469,331 -709,123 -82,82 -321,169 -611,76 -475,-152 -678,-627 -1088,-897 -182,-120 -106,-408 -68,-624 13,30 66,32 88,19 2,85 -1,160 50,261 317,621 1468,1311 1612,663 247,396 693,243 634,-148 151,250 332,57 232,-294 150,96 185,309 179,486 -21,178 -124,335 -319,335z" style="fill:#319dd8"/>
  <path class="RightFoot-Dog0fil22" d="M16741 23949c560,135 807,327 949,532 170,244 121,751 -229,751 -144,249 -469,331 -709,123 -82,82 -321,169 -611,76 -475,-152 -614,-562 -1018,-844 -201,-140 -166,-401 -134,-554" style="fill:#f009b5"/>
  <path class="RightFoot-Dog0fil32" d="M17378 25213c0,3 0,7 0,10 -59,86 -148,149 -252,169 -84,16 -174,3 -257,-45l-12 -8c47,-255 19,-572 -334,-636 167,118 191,399 163,611 -41,33 -116,65 -215,77 -89,11 -194,6 -307,-31 -265,-85 -423,-261 -589,-447 -277,-311 -611,-400 -512,-864 8,-41 -28,-86 -58,-89 -24,-2 -80,17 -89,58 -91,430 90,572 327,781 71,62 146,130 221,214 180,201 350,392 654,490 137,43 264,50 371,37 108,-13 199,-49 262,-89l3 0c116,81 258,115 400,88 143,-28 268,-114 349,-234 151,-15 258,-113 313,-251 29,-74 44,-157 44,-240 0,-135 -38,-275 -108,-376 -77,-110 -181,-216 -341,-313 -143,-86 -331,-165 -584,-231 -71,-19 -105,8 -131,48 -23,34 -14,70 26,80 271,65 468,144 612,231 139,84 229,176 295,271 53,76 81,183 81,290 0,66 -11,130 -33,185 -25,64 -65,112 -119,138 13,-317 -128,-634 -466,-624 219,111 313,298 286,700z" style="fill:#da0bf4"/>
 </g><g id="LeftFoot-Dog0">
  <metadata id="CorelCorpID_133Corel-Layer"/>
  <path class="LeftFoot-Dog0fil26" d="M9847 25232c143,249 468,331 709,123 82,82 321,169 611,76 475,-152 678,-627 1088,-897 208,-138 43,-480 31,-702 -240,73 -640,20 -960,-216 -332,-245 -1043,-199 -821,325 -152,50 -375,135 -487,193 -178,92 -308,217 -398,350 -165,246 -124,748 227,748z" style="fill:#4fa31b"/>
  <path class="LeftFoot-Dog0fil14" d="M9847 25232c143,249 468,331 709,123 82,82 321,169 611,76 475,-152 678,-627 1088,-897 181,-120 105,-408 68,-624 -13,30 -66,32 -88,19 -2,85 1,160 -50,261 -318,621 -1468,1311 -1612,663 -248,396 -693,243 -634,-148 -151,250 -333,57 -232,-294 -150,96 -186,309 -179,486 20,178 124,335 319,335z" style="fill:#e01015"/>
  <path class="LeftFoot-Dog0fil22" d="M10566 23949c-559,135 -807,327 -949,532 -169,244 -121,751 230,751 143,249 468,331 709,123 82,82 321,169 611,76 475,-152 614,-562 1017,-844 201,-140 167,-401 134,-554" style="fill:#c4d3c0"/>
  <path class="LeftFoot-Dog0fil32" d="M9929 25213c1,3 1,7 0,10 59,86 149,149 253,169 84,16 174,3 257,-45l12 -8c-48,-255 -19,-572 333,-636 -166,118 -190,399 -162,611 41,33 116,65 215,77 89,11 193,6 307,-31 265,-85 423,-261 588,-447 278,-311 612,-400 513,-864 -9,-41 27,-86 58,-89 23,-2 80,17 88,58 119,558 -222,630 -547,995 -180,201 -351,392 -655,490 -137,43 -263,50 -370,37 -109,-13 -200,-49 -262,-89l-3 0c-116,81 -259,115 -401,88 -143,-28 -267,-114 -348,-234 -151,-15 -258,-113 -313,-251 -30,-74 -44,-157 -44,-240 0,-135 38,-275 108,-376 76,-110 181,-216 341,-313 142,-86 330,-165 584,-231 71,-19 105,8 131,48 22,34 14,70 -26,80 -271,65 -468,144 -612,231 -139,84 -230,176 -295,271 -53,76 -81,183 -81,290 0,66 11,130 32,185 26,64 65,112 120,138 -13,-317 128,-634 466,-624 -219,111 -313,298 -287,700z" style="fill:#bf7711"/>
 </g><g id="RightLeg-Dog2">
  <metadata id="CorelCorpID_129Corel-Layer"/>
  <path class="RightLeg-Dog2fil244" d="M13654 20939c701,0 2353,-56 2710,226 302,239 937,901 935,1761 -2,445 -277,1009 -1000,1266 -472,76 -697,-507 -1295,-235 60,-709 -911,-790 -1350,-797l0 -2221z" style="fill:#1b37f0"/>
  <path class="RightLeg-Dog2fil26" d="M17018 23698c-160,201 -394,379 -719,494 -499,92 -693,-474 -1295,-226 28,-334 -173,-538 -439,-651 350,-83 731,-225 1067,-111 562,191 621,649 1188,549 69,-12 135,-31 198,-55z" style="fill:#d2581b"/>
  <path class="RightLeg-Dog2fil32" d="M15057 24610c33,25 62,27 88,-6 25,-32 18,-79 -15,-104 -85,-66 -111,-236 -89,-338 34,-163 71,-342 -66,-579 0,-1 -1,-3 -2,-4 -100,-171 -247,-296 -460,-378 -208,-80 -506,-119 -859,-119l0 150c335,0 616,36 805,108 180,69 302,173 385,314 0,2 1,3 2,4 108,188 77,337 48,473 -32,154 43,385 163,479zm1227 -3463c175,139 478,451 693,860 144,272 248,587 247,919 -1,245 -87,464 -218,653 -154,223 -427,476 -707,613 326,-17 760,-427 830,-528 147,-211 244,-458 244,-738 2,-360 -110,-698 -263,-989 -227,-430 -547,-760 -734,-907l-92 117z" style="fill:#057f31"/>
  <path class="RightLeg-Dog2fil14" d="M17192 23390c67,-148 106,-305 107,-464 2,-775 -541,-1451 -869,-1752 -191,187 -276,614 -134,870 387,-413 1003,879 896,1346z" style="fill:#d97c59"/>
 </g><g id="LeftLeg-Dog2">
  <metadata id="CorelCorpID_137Corel-Layer"/>
  <path class="LeftLeg-Dog2fil249" d="M13654 20939c-701,0 -2353,-56 -2710,226 -303,239 -938,901 -935,1761 1,445 276,1009 1000,1266 472,76 697,-507 1294,-235 -59,-709 911,-790 1351,-797l0 -2221z" style="fill:#f1f686"/>
  <path class="LeftLeg-Dog2fil26" d="M10289 23698c160,201 395,379 720,494 512,91 740,-470 1294,-218 -28,-335 174,-546 440,-659 -350,-83 -731,-225 -1067,-111 -562,191 -621,649 -1188,549 -69,-12 -136,-31 -199,-55z" style="fill:#079184"/>
  <path class="LeftLeg-Dog2fil32" d="M12251 24610c-33,25 -63,27 -88,-6 -25,-32 -19,-79 14,-104 85,-66 111,-236 90,-338 -34,-163 -72,-342 65,-579 1,-1 2,-3 3,-4 100,-171 246,-296 460,-378 208,-80 506,-119 859,-119l0 150c-335,0 -616,36 -806,108 -179,69 -302,173 -384,314 -1,2 -2,3 -2,4 -109,188 -77,337 -49,473 33,154 -42,385 -162,479zm-1227 -3463c-176,139 -478,451 -694,860 -143,272 -247,587 -246,919 0,245 86,464 217,653 155,223 428,476 708,613 -326,-17 -761,-427 -831,-528 -146,-211 -243,-458 -244,-738 -1,-360 110,-698 264,-989 226,-430 547,-760 733,-907l93 117z" style="fill:#aae18d"/>
  <path class="LeftLeg-Dog2fil14" d="M10116 23390c-67,-148 -107,-305 -107,-464 -2,-775 540,-1451 869,-1752 190,187 275,614 134,870 -388,-413 -1003,879 -896,1346z" style="fill:#124ca7"/>
 </g><g id="RightHand-Dog4">
 <animateTransform additive="sum" attributeName="transform" dur="10" repeatCount="indefinite" type="translate" values="0;0 200;0;0 200;0;0 200;0;0 200;0"/>
  <metadata id="CorelCorpID_144Corel-Layer"/>
  <path class="RightHand-Dog4fil256" d="M15619 17715c247,-7 498,-52 659,-90 985,362 1779,1397 2210,2149 289,504 -636,1265 -911,1014 -400,-366 -786,-483 -1129,-559 -358,-79 -514,-1818 -829,-2514z" style="fill:#4e0b74"/>
  <path class="RightHand-Dog4fil257" d="M15846 17699c166,-18 321,-47 432,-74 649,238 1214,768 1648,1317 -22,483 -677,797 -1040,490 -461,-391 -268,-1164 -1040,-1733z" style="fill:#e78b81"/>
  <path class="RightHand-Dog4fil22 RightHand-Dog4str0" d="M16041 17553c1079,269 1932,1403 2397,2213m-861 1022c-394,-360 -769,-512 -1113,-557" style="fill:#907e4b"/>
  <path class="RightHand-Dog4fil14" d="M17401 20669c-249,-249 -500,-372 -822,-396 -156,-175 -225,-650 -133,-901 308,435 716,808 1104,1031 -30,84 -75,162 -148,228 0,12 -1,25 -1,38z" style="fill:#5ac0e8"/>
 </g><g id="LeftHand-Dog4">
 <animateTransform additive="sum" attributeName="transform" dur="10" repeatCount="indefinite" type="translate" values="0;0 200;0;0 200;0;0 200;0;0 200;0"/>
  <metadata id="CorelCorpID_152Corel-Layer"/>
  <path class="LeftHand-Dog4fil262" d="M11744 17715c-246,-7 -497,-52 -658,-90 -985,362 -1779,1397 -2210,2149 -289,504 636,1265 911,1014 400,-366 786,-483 1129,-559 358,-79 514,-1818 828,-2514z" style="fill:#079622"/>
  <path class="LeftHand-Dog4fil57" d="M11518 17699c-166,-18 -321,-47 -432,-74 -649,238 -1214,768 -1648,1317 22,483 677,797 1040,490 461,-391 268,-1164 1040,-1733z" style="fill:#9ef5dd"/>
  <path class="LeftHand-Dog4fil22 LeftHand-Dog4str0" d="M11323 17553c-1079,269 -1933,1403 -2397,2213m861 1022c394,-360 769,-512 1113,-557" style="fill:#99325d"/>
  <path class="LeftHand-Dog4fil14" d="M9963 20669c249,-249 500,-372 821,-396 157,-175 226,-650 134,-901 -308,435 -717,808 -1104,1031 30,84 75,162 148,228 0,12 1,25 1,38z" style="fill:#2c9188"/>
 </g><g id="Body-Dog0">
 <animateTransform additive="sum" attributeName="transform" dur="10" repeatCount="indefinite" type="translate" values="0;0 200;0;0 200;0;0 200;0;0 200;0"/>
  <metadata id="CorelCorpID_157Corel-Layer"/>
  <path class="Body-Dog0fil267" d="M13682 23035c-1548,0 -2752,-291 -2993,-1956 -146,-1010 387,-2357 984,-3487 334,54 1089,70 2009,70 920,0 1675,-16 2008,-70 598,1130 1131,2477 985,3487 -242,1665 -1445,1956 -2993,1956z" style="fill:#b45f0d"/>
  <path class="Body-Dog0fil268" d="M13682 17605c-1173,0 -1911,-440 -2137,431 -273,1050 -1533,4839 2137,4839 3670,0 2410,-3789 2137,-4839 -226,-871 -964,-431 -2137,-431z" style="fill:#9d32fa"/>
  <path class="Body-Dog0fil14" d="M12620 22967c-1015,-156 -1748,-629 -1931,-1888 -72,-498 21,-1078 206,-1674 -224,2001 425,3224 1725,3562z" style="fill:#648d57"/>
  <path class="Body-Dog0fil14" d="M14743 22967c1016,-156 1749,-629 1932,-1888 72,-498 -21,-1078 -206,-1674 224,2001 -425,3224 -1726,3562z" style="fill:#2eefe3"/>
  <path class="Body-Dog0fil32" d="M11012 22044c-250,-321 -348,-641 -397,-954 -59,-377 -28,-1005 180,-1327 -79,420 -89,912 -32,1305 50,341 104,572 249,976z" style="fill:#4f0c5d"/>
  <path class="Body-Dog0fil32" d="M16352 22044c250,-321 347,-641 397,-954 59,-377 24,-998 -184,-1320 78,421 93,905 36,1298 -50,341 -104,572 -249,976z" style="fill:#2bd6f9"/>
 </g><g id="RightPaw-Dog1">
 <animateTransform additive="sum" attributeName="transform" dur="10" repeatCount="indefinite" type="translate" values="0;0 200;0;0 200;0;0 200;0;0 200;0"/>
  <metadata id="CorelCorpID_147Corel-Layer"/>
  <path class="RightPaw-Dog1fil26" d="M17402 20631c-38,818 551,1339 943,981 309,484 1078,126 986,-356 248,-652 -532,-1279 -980,-1632 -241,-78 -377,-149 -564,-64 -316,143 -32,749 -385,1071z" style="fill:#7e4c97"/>
  <path class="RightPaw-Dog1fil14" d="M17402 20631c-17,192 32,393 33,395 44,201 137,399 285,544 194,184 433,219 637,33 492,772 1351,-293 810,-632 144,452 -486,750 -723,253 -324,480 -778,69 -787,-350 -5,-223 56,-314 -107,-471 -30,84 -75,162 -148,228z" style="fill:#301fca"/>
  <path class="RightPaw-Dog1fil32" d="M18446 21611c107,-163 129,-451 -88,-537 74,121 26,386 -69,476 -138,130 -263,138 -430,31 -93,-59 -178,-155 -245,-278 -93,-172 -149,-397 -138,-656 1,-21 -7,-43 -24,-59 -52,-50 -128,-78 -180,-116 -33,-25 -76,-27 -100,6 -24,33 -10,74 23,99 44,31 87,68 130,100 -5,272 57,511 157,696 79,147 183,261 296,334 178,114 384,128 560,8 101,121 232,181 368,195 211,22 433,-69 573,-226 103,-115 160,-263 137,-425 229,-648 -410,-1166 -864,-1533 -104,-84 -134,-147 -206,-255 -23,-34 -69,-44 -104,-21 -34,23 -43,70 -20,104 80,121 120,196 236,290 356,288 865,714 854,1122 -52,-71 -158,-158 -280,-146 191,160 321,562 136,764 -110,120 -284,194 -446,177 -102,-10 -201,-57 -276,-150z" style="fill:#6256bc"/>
 </g><g id="LeftPaw-Dog1">
 <animateTransform additive="sum" attributeName="transform" dur="10" repeatCount="indefinite" type="translate" values="0;0 200;0;0 200;0;0 200;0;0 200;0"/>
  <metadata id="CorelCorpID_155Corel-Layer"/>
  <path class="LeftPaw-Dog1fil26" d="M9962 20631c38,818 -552,1339 -944,981 -308,484 -1077,126 -986,-356 -247,-652 533,-1279 981,-1632 241,-78 377,-149 564,-64 316,143 31,749 385,1071z" style="fill:#0eedea"/>
  <path class="LeftPaw-Dog1fil14" d="M9962 20631c16,192 -32,393 -33,395 -44,201 -137,399 -285,544 -194,184 -433,219 -637,33 -493,772 -1351,-293 -810,-632 -144,452 485,750 723,253 324,480 778,69 787,-350 4,-223 -56,-314 107,-471 30,84 75,162 148,228z" style="fill:#937fe4"/>
  <path class="LeftPaw-Dog1fil32" d="M8918 21611c-107,-163 -129,-451 88,-537 -74,121 -26,386 69,476 138,130 263,138 430,31 92,-59 178,-155 245,-278 93,-172 149,-397 138,-656 -1,-21 7,-43 24,-59 52,-50 128,-78 180,-116 33,-25 75,-27 100,6 24,33 10,74 -24,99 -43,31 -86,68 -129,100 5,272 -57,511 -157,696 -80,147 -183,261 -296,334 -178,114 -384,128 -560,8 -101,121 -232,181 -369,195 -210,22 -432,-69 -572,-226 -103,-115 -161,-263 -137,-425 -229,-648 410,-1166 863,-1533 105,-84 134,-147 207,-255 23,-34 69,-44 103,-21 35,23 44,70 21,104 -81,121 -120,196 -236,290 -356,288 -865,714 -854,1122 52,-71 157,-158 280,-146 -191,160 -321,562 -136,764 110,120 284,194 446,177 102,-10 201,-57 276,-150z" style="fill:#a01720"/>
 </g><g id="NecklaceYinYang">
 <animateTransform additive="sum" attributeName="transform" dur="10" repeatCount="indefinite" type="translate" values="0;0 200;0;0 200;0;0 200;0;0 200;0"/>
  <metadata id="CorelCorpID_40Corel-Layer"/>
  <path class="NecklaceYinYangfil225new" d="M16543 17208c-73,675 -449,1409 -941,2000 -570,684 -1305,1183 -1920,1183 -615,0 -1350,-499 -1920,-1183 -492,-591 -868,-1325 -941,-2000l352 0c73,593 413,1245 856,1777 509,611 1145,1056 1653,1056 508,0 1144,-445 1653,-1056 442,-532 782,-1184 856,-1777l352 0z" style="fill:#5e512e"/>
  <path class="NecklaceYinYangfil46new" d="M11135 16868c-273,1109 1292,3303 2547,3303 1255,0 2820,-2194 2547,-3303l-25 4c1,34 2,68 2,103 0,650 -370,1407 -871,2010 -509,611 -1145,1056 -1653,1056 -508,0 -1144,-445 -1653,-1056 -501,-603 -871,-1360 -871,-2010 0,-35 1,-69 2,-103l-25 -4z" style="fill:#ff95c3"/>
  <path class="NecklaceYinYangfil47new NecklaceYinYangstr4new" d="M16543 17208c-73,675 -449,1409 -941,2000 -570,684 -1305,1183 -1920,1183 -615,0 -1350,-499 -1920,-1183 -492,-591 -868,-1325 -941,-2000l352 0c73,593 413,1245 856,1777 509,611 1145,1056 1653,1056 508,0 1144,-445 1653,-1056 442,-532 782,-1184 856,-1777l352 0z" style="fill:#bac414"/>
  <path class="NecklaceYinYangfil226new NecklaceYinYangstr3new" d="M11302 18631c-392,0 -362,-385 -163,-550 197,-163 493,-157 449,148 -114,-87 -503,248 -286,402z" style="fill:#53b00c"/>
  <path class="NecklaceYinYangfil227new NecklaceYinYangstr3new" d="M12385 19918c-393,11 -359,-370 -179,-545 182,-179 487,-172 453,134 -117,-83 -496,263 -274,411z" style="fill:#db92a4"/>
  <path class="NecklaceYinYangfil228new NecklaceYinYangstr3new" d="M16062 18631c392,0 345,-403 163,-550 -200,-160 -493,-157 -449,148 114,-87 503,248 286,402z" style="fill:#588b53"/>
  <path class="NecklaceYinYangfil229new NecklaceYinYangstr3new" d="M14979 19918c393,11 384,-357 179,-545 -202,-187 -487,-172 -453,134 117,-83 496,263 274,411z" style="fill:#cd5439"/>
  <g>
   <circle class="NecklaceYinYangfil84new" r="1577" transform="matrix(-0.552338 -0.290723 0.290723 -0.552338 13681.9 21396.4)"/>
   <g>
    <path class="NecklaceYinYangfil84new" d="M14075 20650c412,217 570,727 353,1139 -215,409 -719,568 -1129,359l0 0c-3,-2 -7,-4 -10,-5l0 0c-206,-109 -285,-364 -177,-570 109,-206 364,-285 570,-177l0 0c206,109 461,30 570,-176 108,-207 29,-462 -177,-570z" style="fill:#8b2d17"/>
    <path class="NecklaceYinYangfil83new" d="M13289 22143c-412,-217 -570,-727 -353,-1139 215,-409 718,-568 1129,-359l0 0c3,2 7,3 10,5l0 0c206,108 285,363 177,570 -109,206 -364,285 -570,176l0 0c-206,-108 -461,-29 -570,177 -108,206 -29,461 177,570z" style="fill:#0906a9"/>
    <path class="NecklaceYinYangfil84new" d="M13943 20901c67,35 93,119 58,187 -36,67 -119,93 -187,58 -68,-36 -94,-120 -58,-187 36,-68 119,-94 187,-58z" style="fill:#4dcb67"/>
    <path class="NecklaceYinYangfil83new" d="M13421 21892c-68,-36 -94,-119 -58,-187 36,-67 119,-93 187,-58 68,36 93,119 58,187 -36,68 -119,94 -187,58z" style="fill:#c750a4"/>
   </g>
  </g>
  <path class="NecklaceYinYangfil230new NecklaceYinYangstr4new" d="M13599 19944l166 0c25,0 47,21 46,46l-24 447c-1,26 -20,46 -46,46l-119 0c-25,0 -44,-20 -46,-46l-23 -447c-1,-26 21,-46 46,-46z" style="fill:#da2c4c"/>
 </g><g id="BraceletSteel-Medium">
 <animateTransform additive="sum" attributeName="transform" dur="10" repeatCount="indefinite" type="translate" values="0;0 200;0;0 200;0;0 200;0;0 200;0"/>
  <metadata id="CorelCorpID_19Corel-Layer"/>
  <path class="BraceletSteel-Mediumfil57new BraceletSteel-Mediumstr4new" d="M8743 19983c-151,-67 -236,-210 -167,-360 70,-150 216,-158 370,-99 394,150 1163,722 1389,1066 91,139 106,280 -23,383 -130,103 -302,47 -400,-86 -244,-332 -771,-729 -1169,-904z" style="fill:#8b3070"/>
  <path class="BraceletSteel-Mediumfil58new BraceletSteel-Mediumstr4new" d="M18621 19983c151,-67 236,-210 167,-360 -70,-150 -216,-158 -371,-99 -393,150 -1162,722 -1389,1066 -90,139 -105,280 24,383 130,103 302,47 400,-86 244,-332 771,-729 1169,-904z" style="fill:#4fc3f0"/>
 </g><g id="Head-Dog7">
 <animateTransform additive="sum" attributeName="transform" dur="10" repeatCount="indefinite" type="translate" values="0;0 200;0;0 200;0;0 200;0;0 200;0"/>
  <metadata id="CorelCorpID_179Corel-Layer"/>
  <path class="Head-Dog7fil330" d="M13682 7385c-3568,0 -6948,4165 -6021,7554 736,2692 3247,2816 6021,2816 2774,0 5285,-124 6021,-2816 927,-3389 -2453,-7554 -6021,-7554z" style="fill:#5620e6"/>
  <path class="Head-Dog7fil341" d="M19830 13237c-124,-1172 -653,-2341 -1434,-3323 -632,-582 -1373,-788 -2296,-580 -1509,339 -2296,3283 -1456,4764 840,1482 2804,1680 3867,1002 653,-417 1195,-1044 1319,-1863z" style="fill:#9ada4e"/>
  <path class="Head-Dog7fil14" d="M8141 11211c-590,1190 -813,2509 -480,3728 585,2138 2290,2657 4356,2779 -3483,-543 -4783,-2989 -3876,-6507z" style="fill:#8f6460"/>
  <path class="Head-Dog7fil32" d="M13682 7459c552,0 1099,101 1626,285 302,105 959,411 1688,816 -411,-435 -1448,-891 -1639,-957 -543,-189 -1107,-294 -1675,-294 -568,0 -1132,105 -1675,294 -191,66 -1229,522 -1639,957 728,-405 1386,-711 1688,-816 527,-184 1074,-285 1626,-285z" style="fill:#b4cdc2"/>
  <path class="Head-Dog7fil32" d="M8070 11356c-237,514 -424,1536 -461,1878 -61,568 -26,1137 124,1685 291,1064 865,1718 1623,2120 512,270 1759,641 2840,689 -1197,57 -2559,-372 -2910,-557 -794,-420 -1394,-1103 -1697,-2213 -155,-566 -192,-1154 -129,-1740 23,-210 212,-1304 610,-1862z" style="fill:#aa82a7"/>
  <path class="Head-Dog7fil32" d="M19293 11356c238,514 425,1536 462,1878 61,568 26,1137 -124,1685 -291,1064 -865,1718 -1623,2120 -513,270 -1760,641 -2841,689 1198,57 2560,-372 2910,-557 795,-420 1394,-1103 1698,-2213 155,-566 192,-1154 128,-1740 -22,-210 -211,-1304 -610,-1862z" style="fill:#aa5e85"/>
  <path class="Head-Dog7fil342" d="M11105 10398c1609,362 1925,1770 1631,2983 -107,369 -13,643 379,562 180,-39 370,-61 567,-61 1187,0 1796,851 1796,1682 0,831 -685,1327 -1796,1327 -946,0 -1739,-488 -1954,-1146 -147,-407 -437,-437 -738,-359 -786,258 -1660,176 -2162,-222 -2159,-1714 228,-5227 2277,-4766z" style="fill:#488949"/>
  <path class="Head-Dog7fil14" d="M13682 14264c-1272,0 -1544,682 -1734,863 101,-448 565,-1247 1734,-1247l0 384z" style="fill:#392839"/>
  <path class="Head-Dog7fil14" d="M13682 14264c1271,0 1543,682 1734,863 -101,-448 -565,-1247 -1734,-1247l0 384z" style="fill:#5fc355"/>
 </g><g id="Mouth-Dog3">
 <animateTransform additive="sum" attributeName="transform" dur="10" repeatCount="indefinite" type="translate" values="0;0 200;0;0 200;0;0 200;0;0 200;0"/>
  <metadata id="CorelCorpID_183Corel-Layer"/>
  <path class="Mouth-Dog3fil22 Mouth-Dog3str0" d="M11958 15406c395,636 1694,403 1724,-520" style="fill:#ad538c"/>
  <path class="Mouth-Dog3fil22 Mouth-Dog3str0" d="M15406 15406c-395,636 -1694,403 -1724,-520" style="fill:#2d6303"/>
  <path class="Mouth-Dog3fil100" d="M13694 15018c15,256 393,755 1042,817 -441,27 -829,-209 -1054,-209 -226,0 -613,236 -1054,209 649,-62 1026,-561 1042,-817l24 0z" style="fill:#798507"/>
  <path class="Mouth-Dog3fil151 Mouth-Dog3str0" d="M14563 16433c369,3 453,-448 354,-664 -111,-242 -836,-440 -1188,-217 422,52 285,876 834,881z" style="fill:#8bc4c8"/>
  <path class="Mouth-Dog3fil152 Mouth-Dog3str0" d="M12323 15678c13,-132 147,-363 232,-442 103,68 259,374 285,490 -115,49 -381,54 -517,-48z" style="fill:#241679"/>
 </g><g id="Eyes-Dog8">
 <animateTransform additive="sum" attributeName="transform" dur="10" repeatCount="indefinite" type="translate" values="0;0 200;0;0 200;0;0 200;0;0 200;0"/>
  <metadata id="CorelCorpID_197Corel-Layer"/>
  <path class="Eyes-Dog8fil386" d="M9234 14681c773,527 1953,219 2503,-170 896,-636 370,-2689 -694,-2999 -651,-190 -1413,59 -1842,553 -908,1045 -518,2240 33,2616z"/>
  <path class="Eyes-Dog8fil387" d="M9241 14685c135,92 283,157 438,202l961 -2000 -1399 1798zm896 274c149,7 299,-2 446,-21l76 -2061 -522 2082zm823 -98c143,-39 278,-88 402,-143l-688 -1849 286 1992zm732 -320c15,-10 30,-20 45,-30 91,-65 168,-145 230,-236l-1287 -1427 1012 1693zm451 -668c34,-134 50,-277 50,-425l-1515 -621 1465 1046zm12 -838c-57,-321 -180,-639 -352,-903l-1146 658c-19,3 -23,66 -34,57l-1170 -1016c-85,64 -163,135 -233,213l1404 821c43,5 42,-30 39,-56l1492 226zm-3166 -689c-80,125 -144,251 -194,376l1799 139 -1605 -515zm-294 718c-28,141 -39,279 -35,411l1942 -599 -1907 188zm35 861c43,145 102,278 173,394l1722 -1437 -1895 1043z"/>
  <path class="Eyes-Dog8fil388" d="M10523 11622c683,-158 1342,301 1472,1025 130,724 -318,1439 -1001,1596 -683,158 -1342,-301 -1472,-1025 -130,-724 318,-1438 1001,-1596z"/>
  <circle class="Eyes-Dog8fil152" r="235" transform="matrix(0.50221 0.111622 -0.139337 0.596091 11743.8 13438.6)"/>
  <circle class="Eyes-Dog8fil152" r="235" transform="matrix(0.554042 -1.05186 0.853042 0.366906 11542.8 14038.5)"/>
  <path class="Eyes-Dog8fil152" d="M8954 13457c-120,780 748,1349 1178,1226 -441,-97 -1004,-604 -1178,-1226z"/>
  <path class="Eyes-Dog8fil157" d="M10670 12053c1015,126 1448,806 1473,1820 215,-863 -285,-2123 -1100,-2361 -651,-190 -1413,59 -1842,553 -408,469 -553,968 -541,1410 184,-721 1169,-1526 2010,-1422z"/>
  <circle class="Eyes-Dog8fil152" r="235" transform="matrix(1.22514 -2.21383 1.7662 0.793529 9766.07 12383.2)"/>
  <path class="Eyes-Dog8fil22 Eyes-Dog8str4" d="M9234 14681c773,527 1953,219 2503,-170 896,-636 370,-2689 -694,-2999 -651,-190 -1413,59 -1842,553 -908,1045 -518,2240 33,2616z"/>
  <path class="Eyes-Dog8fil389" d="M18130 14681c-773,527 -1953,219 -2503,-170 -896,-636 -370,-2689 693,-2999 652,-190 1413,59 1843,553 908,1045 518,2240 -33,2616z"/>
  <path class="Eyes-Dog8fil390" d="M18123 14685c-135,92 -283,157 -438,202l-961 -2000 1399 1798zm-896 274c-149,7 -299,-2 -446,-21l-76 -2061 522 2082zm-823 -98c-143,-39 -279,-88 -403,-143l689 -1849 -286 1992zm-732 -320c-15,-10 -30,-20 -45,-30 -91,-65 -168,-145 -231,-236l1288 -1427 -1012 1693zm-452 -668c-33,-134 -49,-277 -49,-425l1514 -621 -1465 1046zm-12 -838c58,-321 180,-639 353,-903l1146 658c19,3 23,66 34,57l1170 -1016c85,64 163,135 233,213l-1405 821c-43,5 -42,-30 -38,-56l-1493 226zm3167 -689c80,125 144,251 194,376l-1800 139 1606 -515zm294 718c28,141 38,279 35,411l-1943 -599 1908 188zm-35 861c-43,145 -102,278 -173,394l-1722 -1437 1895 1043z"/>
  <path class="Eyes-Dog8fil391" d="M16841 11622c-683,-158 -1343,301 -1473,1025 -130,724 319,1439 1002,1596 683,158 1342,-301 1472,-1025 130,-724 -318,-1438 -1001,-1596z"/>
  <circle class="Eyes-Dog8fil152" r="235" transform="matrix(0.50221 0.111622 -0.139337 0.596091 17878.7 13333.1)"/>
  <circle class="Eyes-Dog8fil152" r="235" transform="matrix(0.554042 -1.05186 0.853042 0.366906 17576.5 13896.8)"/>
  <path class="Eyes-Dog8fil152" d="M18410 13457c120,780 -748,1349 -1178,1226 440,-97 1004,-604 1178,-1226z"/>
  <path class="Eyes-Dog8fil157" d="M16694 12053c-1015,126 -1448,806 -1474,1820 -214,-863 286,-2123 1100,-2361 652,-190 1413,59 1843,553 407,469 553,968 541,1410 -184,-721 -1170,-1526 -2010,-1422z"/>
  <circle class="Eyes-Dog8fil152" r="235" transform="matrix(1.22514 -2.21383 1.7662 0.793529 16135.2 12383.2)"/>
  <path class="Eyes-Dog8fil22 Eyes-Dog8str4" d="M18130 14681c-773,527 -1953,219 -2503,-170 -896,-636 -370,-2689 693,-2999 652,-190 1413,59 1843,553 908,1045 518,2240 -33,2616z"/>
  <path class="Eyes-Dog8fil155" d="M10181 10061c121,40 186,-151 643,-236 420,-78 679,53 767,-102 98,-172 -154,-835 -390,-922 -717,-265 -1381,1142 -1020,1260z"/>
  <path class="Eyes-Dog8fil14" d="M10181 10061c121,40 186,-151 643,-236 420,-78 679,53 767,-102 98,-172 -154,-835 -390,-922 -717,-265 -1381,1142 -1020,1260z"/>
  <path class="Eyes-Dog8fil155" d="M17183 10061c-121,40 -186,-151 -643,-236 -420,-78 -679,53 -767,-102 -98,-172 154,-835 389,-922 718,-265 1382,1142 1021,1260z"/>
  <path class="Eyes-Dog8fil14" d="M17183 10061c-121,40 -186,-151 -643,-236 -420,-78 -679,53 -767,-102 -98,-172 154,-835 389,-922 718,-265 1382,1142 1021,1260z"/>
 </g><g id="Moustache-Dog6">
 <animateTransform additive="sum" attributeName="transform" dur="10" repeatCount="indefinite" type="translate" values="0;0 200;0;0 200;0;0 200;0;0 200;0"/>
  <metadata id="CorelCorpID_206Corel-Layer"/>
  <path class="Moustache-Dog6fil413" d="M13473 14852c-1346,-28 -2060,486 -2275,1492 -168,-172 -252,-415 -193,-606 -241,105 -397,407 -493,734 -148,-247 -159,-551 -108,-675 -193,110 -516,424 -593,733 -152,-287 -83,-812 20,-901 -261,63 -452,224 -632,464 -65,-295 91,-665 174,-801 -162,34 -327,104 -522,286 224,-1344 2303,-2714 4223,-1253 -35,254 200,396 399,527z" style="fill:#2bebcb"/>
  <path class="Moustache-Dog6fil14" d="M13473 14852c-1346,-28 -2060,486 -2275,1492 -168,-172 -252,-415 -193,-606 -241,105 -397,407 -493,734 -18,-29 -33,-58 -47,-89l36 -113c9,-417 318,-910 699,-1122 -75,196 -75,312 -50,482 158,-416 570,-735 973,-859 462,-142 939,5 943,-315l15 0c45,176 230,290 392,396z" style="fill:#e57200"/>
  <path class="Moustache-Dog6fil14" d="M10376 15960c2,-67 12,-124 28,-163 -193,110 -516,424 -593,733 -4,-8 -8,-16 -12,-25l18 -192c100,-404 429,-908 788,-1171 -99,255 -131,390 -156,699l-73 119z" style="fill:#4b0ad2"/>
  <path class="Moustache-Dog6fil14" d="M9759 15781c19,-73 44,-128 72,-152 -261,63 -452,224 -632,464 -2,-9 -4,-18 -5,-26l65 -165c249,-449 481,-773 936,-955 -159,195 -295,453 -354,770l-82 64z" style="fill:#30be49"/>
  <path class="Moustache-Dog6fil14" d="M9316 15401c20,-44 40,-82 57,-109 -162,34 -327,104 -522,286 3,-21 7,-41 12,-62l112 -134c185,-266 532,-604 932,-728 -185,152 -423,518 -505,701l-86 46z" style="fill:#3f3a7f"/>
  <path class="Moustache-Dog6fil32" d="M11834 15266c-363,338 -457,711 -563,1094 -17,59 -83,72 -129,34 -93,-78 -224,-320 -230,-508 -166,146 -265,354 -325,560 -19,64 -100,68 -138,14 -89,-126 -151,-313 -147,-499 -177,146 -316,324 -415,531 -36,76 -111,65 -139,17 -123,-214 -124,-514 -58,-752 -179,83 -294,169 -411,325 -40,54 -122,30 -134,-35 -44,-223 -4,-427 83,-634 -122,51 -197,98 -268,159 -95,81 -159,11 -151,-36 163,-1008 1322,-1661 1899,-1762 -1050,383 -1636,1155 -1733,1608 117,-80 214,-127 348,-146 66,-9 111,58 79,119 -81,156 -133,364 -143,547 153,-168 351,-280 511,-311 78,-16 112,49 70,128 -37,69 -73,451 -23,594 113,-216 325,-454 536,-572 55,-30 119,15 99,92 -33,120 8,317 49,437 88,-232 197,-453 432,-561 60,-28 127,9 118,76 -18,140 52,326 110,394 51,-183 278,-687 673,-913z" style="fill:#22decb"/>
  <path class="Moustache-Dog6fil414" d="M13891 14852c1346,-28 2060,486 2275,1492 168,-172 252,-415 193,-606 241,105 396,407 493,734 148,-247 159,-551 108,-675 193,110 516,424 593,733 152,-287 83,-812 -20,-901 261,63 452,224 632,464 65,-295 -91,-665 -174,-801 162,34 327,104 522,286 -224,-1344 -2303,-2714 -4223,-1253 35,254 -200,396 -399,527z" style="fill:#edd316"/>
  <path class="Moustache-Dog6fil14" d="M13891 14852c1346,-28 2060,486 2275,1492 168,-172 252,-415 193,-606 241,105 396,407 493,734 18,-29 33,-58 47,-89l-36 -113c-9,-417 -318,-910 -699,-1122 75,196 75,312 50,482 -158,-416 -571,-735 -973,-859 -462,-142 -939,5 -943,-315l-15 0c-45,176 -230,290 -392,396z" style="fill:#de2401"/>
  <path class="Moustache-Dog6fil14" d="M16987 15960c-1,-67 -11,-124 -27,-163 193,110 516,424 593,733 4,-8 8,-16 12,-25l-18 -192c-100,-404 -429,-908 -788,-1171 99,255 130,390 155,699l73 119z" style="fill:#81fe94"/>
  <path class="Moustache-Dog6fil14" d="M17605 15781c-19,-73 -45,-128 -72,-152 261,63 452,224 632,464 2,-9 3,-18 5,-26l-66 -165c-248,-449 -480,-773 -935,-955 159,195 295,453 353,770l83 64z" style="fill:#ea4e9a"/>
  <path class="Moustache-Dog6fil14" d="M18048 15401c-20,-44 -40,-82 -57,-109 162,34 327,104 522,286 -4,-21 -8,-41 -12,-62l-112 -134c-185,-266 -532,-604 -932,-728 185,152 423,518 504,701l87 46z" style="fill:#dc4120"/>
  <path class="Moustache-Dog6fil32" d="M15530 15266c363,338 456,711 563,1094 17,59 83,72 129,34 93,-78 224,-320 230,-508 166,146 264,354 325,560 19,64 100,68 138,14 88,-126 151,-313 147,-499 177,146 316,324 415,531 36,76 111,65 139,17 123,-214 124,-514 58,-752 179,83 294,169 411,325 40,54 121,30 134,-35 44,-223 4,-427 -84,-634 123,51 197,98 269,159 95,81 158,11 151,-36 -163,-1008 -1322,-1661 -1899,-1762 1049,383 1636,1155 1733,1608 -117,-80 -214,-127 -348,-146 -67,-9 -111,58 -80,119 82,156 134,364 143,547 -152,-168 -350,-280 -510,-311 -78,-16 -112,49 -70,128 36,69 73,451 23,594 -114,-216 -325,-454 -536,-572 -55,-30 -120,15 -99,92 33,120 -8,317 -49,437 -88,-232 -197,-453 -432,-561 -60,-28 -127,9 -119,76 19,140 -51,326 -109,394 -51,-183 -278,-687 -673,-913z" style="fill:#632412"/>
 </g><g id="Nose-Dog0">
 <animateTransform additive="sum" attributeName="transform" dur="10" repeatCount="indefinite" type="translate" values="0;0 200;0;0 200;0;0 200;0;0 200;0"/>
  <metadata id="CorelCorpID_208Corel-Layer"/>
  <path class="Nose-Dog0fil416 Nose-Dog0str0" d="M13682 14020c-283,0 -678,136 -648,338 28,185 288,481 648,481 360,0 620,-296 648,-481 30,-202 -365,-338 -648,-338z" style="fill:#c71ada"/>
 </g><g id="HatG-Medium">
 <animateTransform additive="sum" attributeName="transform" dur="10" repeatCount="indefinite" type="translate" values="0;0 200;0;0 200;0;0 200;0;0 200;0"/>
  <metadata id="CorelCorpID_66Corel-Layer"/>
  <path class="HatG-Mediumfil14new" d="M7531 13089c2101,487 3675,-1155 5913,-1187 2169,-31 4070,1356 6337,650 -719,-580 -1088,-1273 -1807,-1853 -1486,-133 -2972,-266 -4457,-399 -1613,345 -3225,689 -4838,1033 -465,483 -683,1272 -1148,1756z" style="fill:#93b260"/>
  <path class="HatG-Mediumfil635new" d="M7709 11316c-106,-2279 -184,-3213 638,-4380 673,-956 4533,-2691 5040,-2243 561,603 1046,3598 246,5547 -1977,83 -3951,427 -5924,1076z" style="fill:#0571a9"/>
  <path class="HatG-Mediumfil636new" d="M7709 11316c-106,-2279 -184,-3213 638,-4380 162,-230 509,-506 950,-785 -1513,1132 -1360,3016 -1030,4988 -95,29 -463,146 -558,177z" style="fill:#07419a"/>
  <path class="HatG-Mediumfil637new" d="M13414 4670c126,1861 93,3713 219,5570 2058,-86 4120,111 6188,544 -12,-2183 -460,-3199 -1240,-4202 -324,-418 -1289,-824 -2212,-1251 -1264,-584 -2675,-852 -2955,-661z" style="fill:#93f5f6"/>
  <path class="HatG-Mediumfil638new" d="M18334 6346c102,79 186,157 247,236 780,1003 1228,2019 1240,4202 -73,-15 -421,-108 -494,-123 197,-1798 -506,-3916 -1369,-4522 -13,-8 386,219 376,207z" style="fill:#538665"/>
  <path class="HatG-Mediumfil33new HatG-Mediumstr0new" d="M7709 11316c-106,-2279 -184,-3213 638,-4380 673,-956 4533,-2691 5040,-2243 200,-234 1671,32 2982,638 923,427 1888,833 2212,1251 780,1003 1228,2019 1240,4202 -4056,-849 -8087,-791 -12112,532z" style="fill:#ed9f9b"/>
  <path class="HatG-Mediumfil639new HatG-Mediumstr19new" d="M13621 10126c-98,-1837 -80,-3667 -231,-5459" style="fill:#348966"/>
  <path class="HatG-Mediumfil640new" d="M7531 13089c-370,0 -1426,-339 -1009,-1291 518,-1181 5239,-1804 7140,-1941 2666,-192 7392,272 7422,1763 10,530 -464,966 -1303,932 -1065,-1618 -3963,-1937 -6182,-1916 -2113,20 -5501,1171 -6068,2453z" style="fill:#db524c"/>
  <path class="HatG-Mediumfil639new HatG-Mediumstr20new" d="M13209 10079c13,-1387 -159,-3697 -178,-4811 -6,-362 10,-592 65,-630" style="fill:#29da56"/>
  <path class="HatG-Mediumfil639new HatG-Mediumstr20new" d="M14076 10045c-134,-1380 -165,-3696 -243,-4807 -26,-362 -62,-590 -120,-623" style="fill:#f86842"/>
  <path class="HatG-Mediumfil639new HatG-Mediumstr20new" d="M19199 10436c-4,-2389 -724,-4035 -1871,-4670" style="fill:#944627"/>
  <path class="HatG-Mediumfil639new HatG-Mediumstr20new" d="M8439 10844c-402,-2263 -278,-3874 1357,-5006" style="fill:#7cf837"/>
  <path class="HatG-Mediumfil641new" d="M6439 12344c-29,-154 -9,-334 83,-546 518,-1181 5239,-1804 7140,-1941 2666,-192 7392,272 7422,1763 1,55 -3,108 -13,161 -260,-1401 -4812,-1836 -7409,-1650 -1901,137 -6622,760 -7140,1942 -42,97 -69,187 -83,271z" style="fill:#b9f2a2"/>
  <path class="HatG-Mediumfil33new HatG-Mediumstr6new" d="M7531 13089c-370,0 -1426,-339 -1009,-1291 518,-1181 5239,-1804 7140,-1941 2666,-192 7392,272 7422,1763 10,530 -464,966 -1303,932 -1065,-1618 -3963,-1937 -6182,-1916 -2113,20 -5501,1171 -6068,2453z" style="fill:#a56f40"/>
 </g></svg>