<svg xmlns="http://www.w3.org/2000/svg" xmlns:xlink="http://www.w3.org/1999/xlink" style="shape-rendering:geometricPrecision; text-rendering:geometricPrecision; image-rendering:optimizeQuality; fill-rule:evenodd; clip-rule:evenodd" version="1.1" viewBox="0 0 29000 29000" xml:space="preserve"><defs><style type="text/css">.HairBack-Cat0fil22 {fill:none}
.Tail-Cat1fil25 {fill:url(#Tail-Cat1id925)}
.Tail-Cat1fil14 {fill:black;fill-opacity:0.200000}
.Tail-Cat1fil27 {fill:url(#Tail-Cat1id265)}
.Tail-Cat1fil26 {fill:#fef2f2}
.Tail-Cat1fil22 {fill:none}
.Tail-Cat1str0 {stroke:black;stroke-width:150;stroke-linecap:round;stroke-linejoin:round}
.RightFoot-Cat0fil26 {fill:#fef2f2}
.RightFoot-Cat0fil14 {fill:black;fill-opacity:0.200000}
.RightFoot-Cat0fil22 {fill:none}
.RightFoot-Cat0fil32 {fill:black;fill-rule:nonzero}
.RightLeg-Cat0fil36 {fill:url(#RightLeg-Cat0id383)}
.RightLeg-Cat0fil26 {fill:#fef2f2}
.RightLeg-Cat0fil32 {fill:black;fill-rule:nonzero}
.RightLeg-Cat0fil14 {fill:black;fill-opacity:0.200000}
.LeftFoot-Cat0fil26 {fill:#fef2f2}
.LeftFoot-Cat0fil14 {fill:black;fill-opacity:0.200000}
.LeftFoot-Cat0fil22 {fill:none}
.LeftFoot-Cat0fil32 {fill:black;fill-rule:nonzero}
.LeftLeg-Cat0fil44 {fill:url(#LeftLeg-Cat0id193)}
.LeftLeg-Cat0fil26 {fill:#fef2f2}
.LeftLeg-Cat0fil32 {fill:black;fill-rule:nonzero}
.LeftLeg-Cat0fil14 {fill:black;fill-opacity:0.200000}
.RightHand-Cat0fil48 {fill:url(#RightHand-Cat0id246)}
.RightHand-Cat0fil14 {fill:black;fill-opacity:0.200000}
.RightHand-Cat0fil22 {fill:none}
.RightHand-Cat0str0 {stroke:black;stroke-width:150;stroke-linecap:round;stroke-linejoin:round}
.RightPaw-Cat0fil26 {fill:#fef2f2}
.RightPaw-Cat0fil14 {fill:black;fill-opacity:0.200000}
.RightPaw-Cat0fil32 {fill:black;fill-rule:nonzero}
.LeftHand-Cat0fil55 {fill:url(#LeftHand-Cat0id849)}
.LeftHand-Cat0fil14 {fill:black;fill-opacity:0.200000}
.LeftHand-Cat0fil22 {fill:none}
.LeftHand-Cat0str0 {stroke:black;stroke-width:150;stroke-linecap:round;stroke-linejoin:round}
.LeftPaw-Cat0fil26 {fill:#fef2f2}
.LeftPaw-Cat0fil14 {fill:black;fill-opacity:0.200000}
.LeftPaw-Cat0fil32 {fill:black;fill-rule:nonzero}
.Body-Cat0fil62 {fill:url(#Body-Cat0id318)}
.Body-Cat0fil14 {fill:black;fill-opacity:0.200000}
.Body-Cat0fil32 {fill:black;fill-rule:nonzero}
.Body-Cat0fil63 {fill:url(#Body-Cat0id247)}
.Ears-Cat0fil68 {fill:url(#Ears-Cat0id64)}
.Ears-Cat0fil69 {fill:url(#Ears-Cat0id515)}
.Ears-Cat0fil14 {fill:black;fill-opacity:0.200000}
.Ears-Cat0fil71 {fill:url(#Ears-Cat0id104)}
.Ears-Cat0fil72 {fill:url(#Ears-Cat0id361)}
.Ears-Cat0fil67 {fill:url(#Ears-Cat0id308)}
.Ears-Cat0str0 {stroke:black;stroke-width:150;stroke-linecap:round;stroke-linejoin:round}
.Ears-Cat0fil70 {fill:url(#Ears-Cat0id399)}
.Head-Cat4fil143 {fill:url(#Head-Cat4id35)}
.Head-Cat4fil144 {fill:url(#Head-Cat4id320)}
.Head-Cat4fil14 {fill:black;fill-opacity:0.200000}
.Head-Cat4fil32 {fill:black;fill-rule:nonzero}
.Mouth-Cat10fil100 {fill:black}
.Mouth-Cat10fil153 {fill:url(#Mouth-Cat10id147)}
.Mouth-Cat10fil151 {fill:#FF9999}
.Mouth-Cat10fil154 {fill:url(#Mouth-Cat10id148)}
.Mouth-Cat10fil22 {fill:none}
.Mouth-Cat10str0 {stroke:black;stroke-width:150;stroke-linecap:round;stroke-linejoin:round}
.Eyes-Cat10fil208 {fill:url(#Eyes-Cat10id891)}
.Eyes-Cat10fil209 {fill:url(#Eyes-Cat10id314)}
.Eyes-Cat10fil210 {fill:url(#Eyes-Cat10id511)}
.Eyes-Cat10fil157 {fill:black;fill-opacity:0.501961}
.Eyes-Cat10fil152 {fill:white}
.Eyes-Cat10fil211 {fill:url(#Eyes-Cat10id890)}
.Eyes-Cat10fil212 {fill:url(#Eyes-Cat10id134)}
.Eyes-Cat10fil213 {fill:url(#Eyes-Cat10id384)}
.Eyes-Cat10fil155 {fill:#8a8ea7}
.Eyes-Cat10fil22 {fill:none}
.Eyes-Cat10str4 {stroke:black;stroke-width:150}
.Moustache-Cat0fil22 {fill:none}
.Nose-Cat0fil221 {fill:url(#Nose-Cat0id921)}
.Nose-Cat0str0 {stroke:black;stroke-width:150;stroke-linecap:round;stroke-linejoin:round}
.Hair-Cat0fil22 {fill:none}
.NecklaceShipWheelfil14new {fill:black;fill-opacity:0.200000}
.NecklaceShipWheelfil372new {fill:url(#NecklaceShipWheelid598new)}
.NecklaceShipWheelfil373new {fill:#EDC26D;fill-opacity:0.301961}
.NecklaceShipWheelfil375new {fill:url(#NecklaceShipWheelid339new)}
.NecklaceShipWheelfil377new {fill:url(#NecklaceShipWheelid552new)}
.NecklaceShipWheelfil379new {fill:url(#NecklaceShipWheelid476new)}
.NecklaceShipWheelfil381new {fill:url(#NecklaceShipWheelid592new)}
.NecklaceShipWheelfil383new {fill:url(#NecklaceShipWheelid392new)}
.NecklaceShipWheelfil385new {fill:url(#NecklaceShipWheelid560new)}
.NecklaceShipWheelfil387new {fill:url(#NecklaceShipWheelid388new)}
.NecklaceShipWheelfil389new {fill:url(#NecklaceShipWheelid577new)}
.NecklaceShipWheelfil391new {fill:url(#NecklaceShipWheelid522new)}
.NecklaceShipWheelfil393new {fill:url(#NecklaceShipWheelid605new)}
.NecklaceShipWheelfil395new {fill:url(#NecklaceShipWheelid384new)}
.NecklaceShipWheelfil399new {fill:#EDC26D;fill-opacity:0.200000}
.NecklaceShipWheelfil371new {fill:url(#NecklaceShipWheelid0new)}
.NecklaceShipWheelstr0new {stroke:black;stroke-width:150;stroke-linecap:round;stroke-linejoin:round}
.NecklaceShipWheelfil33new {fill:none}
.NecklaceShipWheelfil374 {fill:url(#NecklaceShipWheelid1004)}
.NecklaceShipWheelfil376new {fill:url(#NecklaceShipWheelid291new)}
.NecklaceShipWheelfil378new {fill:url(#NecklaceShipWheelid520new)}
.NecklaceShipWheelfil380new {fill:url(#NecklaceShipWheelid266new)}
.NecklaceShipWheelfil382new {fill:url(#NecklaceShipWheelid341new)}
.NecklaceShipWheelfil384new {fill:url(#NecklaceShipWheelid334new)}
.NecklaceShipWheelfil386new {fill:url(#NecklaceShipWheelid309new)}
.NecklaceShipWheelfil388new {fill:url(#NecklaceShipWheelid524new)}
.NecklaceShipWheelfil390new {fill:url(#NecklaceShipWheelid468new)}
.NecklaceShipWheelfil392new {fill:url(#NecklaceShipWheelid431new)}
.NecklaceShipWheelfil394new {fill:url(#NecklaceShipWheelid526new)}
.NecklaceShipWheelfil396new {fill:url(#NecklaceShipWheelid443new)}
.NecklaceShipWheelfil397new {fill:url(#NecklaceShipWheelid198new)}
.NecklaceShipWheelfil398new {fill:url(#NecklaceShipWheelid505new)}
.NecklaceShipWheelstr6new {stroke:black;stroke-width:150}
.BraceletBoxer-Mediumfil1 {fill:black;fill-opacity:0.200000}
.BraceletBoxer-Mediumfil3 {fill:black}
.BraceletBoxer-Mediumfil5 {fill:#FFCC99;fill-opacity:0.301961}
.BraceletBoxer-Mediumfil6 {fill:white;fill-rule:nonzero}
.BraceletBoxer-Mediumfil7 {fill:url(#BraceletBoxer-Mediumid13)}
.BraceletBoxer-Mediumfil0 {fill:url(#BraceletBoxer-Mediumid11)}
.BraceletBoxer-Mediumstr0 {stroke:black;stroke-width:150;stroke-linecap:round;stroke-linejoin:round}
.BraceletBoxer-Mediumfil2 {fill:url(#BraceletBoxer-Mediumid4)}
.BraceletBoxer-Mediumstr1 {stroke:black;stroke-width:100;stroke-linecap:round;stroke-linejoin:round}
.BraceletBoxer-Mediumfil4 {fill:none}
.BraceletBoxer-Mediumfil8 {fill:url(#BraceletBoxer-Mediumid12)}
.NecklaceCapeGoldBack-Mediumfil44 {fill:#341F02;fill-opacity:0.501961}
.NecklaceCapeGoldBack-Mediumfil3 {fill:black;fill-opacity:0.301961}
.NecklaceCapeGoldBack-Mediumfil4 {fill:black;fill-opacity:0.200000}
.NecklaceCapeGoldBack-Mediumfil45 {fill:url(#NecklaceCapeGoldBack-Mediumid39);fill-rule:nonzero}
.NecklaceCapeGoldBack-Mediumfil14 {fill:black;fill-rule:nonzero}
.NecklaceCapeGoldBack-Mediumfil38 {fill:#341F02}
.NecklaceCapeGoldBack-Mediumstr0 {stroke:black;stroke-width:150;stroke-linecap:round;stroke-linejoin:round}
.NecklaceCapeGoldBack-Mediumfil43 {fill:url(#NecklaceCapeGoldBack-Mediumid3)}
.NecklaceCapeGold-Mediumfil47 {fill:url(#NecklaceCapeGold-Mediumid12)}
.NecklaceCapeGold-Mediumfil14 {fill:black;fill-rule:nonzero}
.NecklaceCapeGold-Mediumfil10 {fill:black;fill-opacity:0.400000}
.NecklaceCapeGold-Mediumfil11 {fill:white;fill-opacity:0.800000}
.NecklaceCapeGold-Mediumfil46 {fill:url(#NecklaceCapeGold-Mediumid9)}
.NecklaceCapeGold-Mediumstr0 {stroke:black;stroke-width:150;stroke-linecap:round;stroke-linejoin:round}
.NecklaceCapeGold-Mediumfil17 {fill:url(#NecklaceCapeGold-Mediumid31)}
.NecklaceCapeGold-Mediumstr1 {stroke:black;stroke-width:150}
.NecklaceCapeGold-Mediumfil18 {fill:url(#NecklaceCapeGold-Mediumid37)}
</style><linearGradient gradientUnits="objectBoundingBox" id="Tail-Cat1id925" x1="56.9199%" x2="43.0801%" y1="93.4294%" y2="6.57062%">
   <stop offset="0" style="stop-opacity:1; stop-color:#97a6ba"/>
   <stop offset="1" style="stop-opacity:1; stop-color:#fafafa"/>
  </linearGradient><linearGradient gradientUnits="userSpaceOnUse" id="Tail-Cat1id265" x1="19074.8" x2="19074.8" xlink:href="#Tail-Cat1id5" y1="23110.5" y2="15555.7">
  </linearGradient><linearGradient gradientUnits="userSpaceOnUse" id="RightLeg-Cat0id383" x1="15490.3" x2="15490.3" xlink:href="#RightLeg-Cat0id19" y1="24284.1" y2="21188.2">
  </linearGradient><linearGradient gradientUnits="userSpaceOnUse" id="LeftLeg-Cat0id193" x1="11873.5" x2="11873.5" xlink:href="#LeftLeg-Cat0id19" y1="24284.1" y2="21188.2">
  </linearGradient><linearGradient gradientUnits="objectBoundingBox" id="RightHand-Cat0id246" x1="31.4718%" x2="68.5282%" y1="2.00058%" y2="97.9991%">
   <stop offset="0" style="stop-opacity:1; stop-color:#97a6ba"/>
   <stop offset="0.878431" style="stop-opacity:1; stop-color:#c2cfe1"/>
   <stop offset="1" style="stop-opacity:1; stop-color:#c2cfe1"/>
  </linearGradient><linearGradient gradientUnits="objectBoundingBox" id="LeftHand-Cat0id849" x1="71.9477%" x2="28.0523%" xlink:href="#LeftHand-Cat0id246" y1="2.1954%" y2="97.8043%">
  </linearGradient><linearGradient gradientUnits="objectBoundingBox" id="Body-Cat0id318" x1="50%" x2="50%" xlink:href="#Body-Cat0id36" y1="0.000186021%" y2="100%">
  </linearGradient><linearGradient gradientUnits="userSpaceOnUse" id="Body-Cat0id247" x1="13681.9" x2="13681.9" xlink:href="#Body-Cat0id230" y1="22974.9" y2="18061.8">
  </linearGradient><linearGradient gradientUnits="userSpaceOnUse" id="Ears-Cat0id64" x1="7879.4" x2="11484.3" xlink:href="#Ears-Cat0id61" y1="9322.43" y2="11319">
  </linearGradient><linearGradient gradientUnits="userSpaceOnUse" id="Ears-Cat0id515" x1="8552.14" x2="10215.3" xlink:href="#Ears-Cat0id114" y1="9019.26" y2="9752.2">
  </linearGradient><linearGradient gradientUnits="userSpaceOnUse" id="Ears-Cat0id104" x1="19484.5" x2="15879.6" xlink:href="#Ears-Cat0id61" y1="9321.61" y2="11319.8">
  </linearGradient><linearGradient gradientUnits="userSpaceOnUse" id="Ears-Cat0id361" x1="18811.7" x2="17148.6" xlink:href="#Ears-Cat0id114" y1="9018.96" y2="9752.5">
  </linearGradient><linearGradient gradientUnits="userSpaceOnUse" id="Ears-Cat0id308" x1="7144.48" x2="11346" xlink:href="#Ears-Cat0id70" y1="9230.74" y2="11165.7">
  </linearGradient><linearGradient gradientUnits="userSpaceOnUse" id="Ears-Cat0id399" x1="20219.2" x2="16018" xlink:href="#Ears-Cat0id70" y1="9232.04" y2="11164.4">
  </linearGradient><linearGradient gradientUnits="userSpaceOnUse" id="Head-Cat4id35" x1="13681.9" x2="13681.9" y1="17936.7" y2="7484.8">
   <stop offset="0" style="stop-opacity:1; stop-color:#97a6ba"/>
   <stop offset="0.4" style="stop-opacity:1; stop-color:#c2cfe1"/>
   <stop offset="1" style="stop-opacity:1; stop-color:#fafafa"/>
  </linearGradient><linearGradient gradientUnits="userSpaceOnUse" id="Head-Cat4id320" x1="13681.9" x2="13681.9" xlink:href="#Head-Cat4id230" y1="8439.82" y2="17946.7">
  </linearGradient><linearGradient gradientUnits="userSpaceOnUse" id="Mouth-Cat10id147" x1="12876.7" x2="12876.7" y1="15125.7" y2="15694.8">
   <stop offset="0" style="stop-opacity:1; stop-color:#D6D6D6"/>
   <stop offset="0.6" style="stop-opacity:1; stop-color:white"/>
   <stop offset="1" style="stop-opacity:1; stop-color:#fef2f2"/>
  </linearGradient><linearGradient gradientUnits="userSpaceOnUse" id="Mouth-Cat10id148" x1="14487.2" x2="14487.2" xlink:href="#Mouth-Cat10id147" y1="15125.7" y2="15694.8">
  </linearGradient><linearGradient gradientUnits="userSpaceOnUse" id="Eyes-Cat10id891" x1="10884.2" x2="10257" xlink:href="#Eyes-Cat10id27" y1="14816.5" y2="11570.1">
  </linearGradient><linearGradient gradientUnits="userSpaceOnUse" id="Eyes-Cat10id314" x1="9363.74" x2="12410.6" xlink:href="#Eyes-Cat10id57" y1="13043.4" y2="13043.4">
  </linearGradient><linearGradient gradientUnits="userSpaceOnUse" id="Eyes-Cat10id511" x1="10946.1" x2="10946.1" xlink:href="#Eyes-Cat10id384" y1="11784.3" y2="14068.5">
  </linearGradient><linearGradient gradientUnits="userSpaceOnUse" id="Eyes-Cat10id890" x1="16479.7" x2="17106.8" xlink:href="#Eyes-Cat10id27" y1="14816.5" y2="11570.1">
  </linearGradient><linearGradient gradientUnits="userSpaceOnUse" id="Eyes-Cat10id134" x1="14953.3" x2="18000.1" xlink:href="#Eyes-Cat10id57" y1="13043.4" y2="13043.4">
  </linearGradient><linearGradient gradientUnits="userSpaceOnUse" id="Nose-Cat0id921" x1="13681.9" x2="13681.9" y1="13407.9" y2="13968.6">
   <stop offset="0" style="stop-opacity:1; stop-color:#FFCCCC"/>
   <stop offset="1" style="stop-opacity:1; stop-color:#DB9092"/>
  </linearGradient><linearGradient gradientUnits="userSpaceOnUse" id="NecklaceShipWheelid598new" x1="10946.7" x2="11398.3" xlink:href="#NecklaceShipWheelid198new" y1="16600" y2="17725.9">
  </linearGradient><linearGradient gradientUnits="userSpaceOnUse" id="NecklaceShipWheelid339new" x1="12518.8" x2="12947" xlink:href="#NecklaceShipWheelid198new" y1="18755.5" y2="19611.7">
  </linearGradient><linearGradient gradientUnits="userSpaceOnUse" id="NecklaceShipWheelid552new" x1="9023.86" x2="10212.5" xlink:href="#NecklaceShipWheelid198new" y1="20827.6" y2="21151.5">
  </linearGradient><linearGradient gradientUnits="userSpaceOnUse" id="NecklaceShipWheelid476new" x1="11591.8" x2="12634.8" xlink:href="#NecklaceShipWheelid198new" y1="20530.1" y2="20746.4">
  </linearGradient><linearGradient gradientUnits="userSpaceOnUse" id="NecklaceShipWheelid592new" x1="11552" x2="12513.5" xlink:href="#NecklaceShipWheelid198new" y1="24648.7" y2="23806.9">
  </linearGradient><linearGradient gradientUnits="userSpaceOnUse" id="NecklaceShipWheelid392new" x1="12660.1" x2="13464.5" xlink:href="#NecklaceShipWheelid198new" y1="22282.5" y2="21518.6">
  </linearGradient><linearGradient gradientUnits="userSpaceOnUse" id="NecklaceShipWheelid560new" x1="16417.2" x2="15965.5" xlink:href="#NecklaceShipWheelid198new" y1="24294" y2="23168.1">
  </linearGradient><linearGradient gradientUnits="userSpaceOnUse" id="NecklaceShipWheelid388new" x1="14845" x2="14416.8" xlink:href="#NecklaceShipWheelid198new" y1="22138.5" y2="21282.3">
  </linearGradient><linearGradient gradientUnits="userSpaceOnUse" id="NecklaceShipWheelid577new" x1="18340" x2="17151.4" xlink:href="#NecklaceShipWheelid198new" y1="20066.3" y2="19742.5">
  </linearGradient><linearGradient gradientUnits="userSpaceOnUse" id="NecklaceShipWheelid522new" x1="15772" x2="14729.1" xlink:href="#NecklaceShipWheelid198new" y1="20363.9" y2="20147.6">
  </linearGradient><linearGradient gradientUnits="userSpaceOnUse" id="NecklaceShipWheelid605new" x1="15811.8" x2="14850.3" xlink:href="#NecklaceShipWheelid198new" y1="16245.3" y2="17087.1">
  </linearGradient><linearGradient gradientUnits="userSpaceOnUse" id="NecklaceShipWheelid384new" x1="14703.8" x2="13899.3" xlink:href="#NecklaceShipWheelid198new" y1="18611.5" y2="19375.4">
  </linearGradient><linearGradient gradientUnits="userSpaceOnUse" id="NecklaceShipWheelid0new" x1="13681.9" x2="13681.9" y1="25815.8" y2="19053.8">
   <stop offset="0" style="stop-opacity:1; stop-color:#96612C"/>
   <stop offset="1" style="stop-opacity:1; stop-color:#472809"/>
  </linearGradient><linearGradient gradientUnits="userSpaceOnUse" id="NecklaceShipWheelid1004" x1="10847.2" x2="10197.9" xlink:href="#NecklaceShipWheelid27" y1="14638.9" y2="11698.6">
  </linearGradient><linearGradient gradientUnits="userSpaceOnUse" id="NecklaceShipWheelid291new" x1="12300.1" x2="12310.4" xlink:href="#NecklaceShipWheelid198new" y1="18376.7" y2="18866.9">
  </linearGradient><linearGradient gradientUnits="userSpaceOnUse" id="NecklaceShipWheelid520new" x1="10722.1" x2="10282.8" xlink:href="#NecklaceShipWheelid198new" y1="20695" y2="20990.7">
  </linearGradient><linearGradient gradientUnits="userSpaceOnUse" id="NecklaceShipWheelid266new" x1="11162.9" x2="11662.9" xlink:href="#NecklaceShipWheelid198new" y1="20628.7" y2="20824.5">
  </linearGradient><linearGradient gradientUnits="userSpaceOnUse" id="NecklaceShipWheelid341new" x1="12385.5" x2="12484.5" xlink:href="#NecklaceShipWheelid198new" y1="23148.3" y2="23648.7">
  </linearGradient><linearGradient gradientUnits="userSpaceOnUse" id="NecklaceShipWheelid334new" x1="12586.8" x2="12992.4" xlink:href="#NecklaceShipWheelid198new" y1="22698.8" y2="22404.8">
  </linearGradient><linearGradient gradientUnits="userSpaceOnUse" id="NecklaceShipWheelid309new" x1="15384.4" x2="15844.6" xlink:href="#NecklaceShipWheelid198new" y1="22929.3" y2="23075.9">
  </linearGradient><linearGradient gradientUnits="userSpaceOnUse" id="NecklaceShipWheelid524new" x1="15063.8" x2="15053.4" xlink:href="#NecklaceShipWheelid198new" y1="22517.3" y2="22027.1">
  </linearGradient><linearGradient gradientUnits="userSpaceOnUse" id="NecklaceShipWheelid468new" x1="16641.7" x2="17081.1" xlink:href="#NecklaceShipWheelid198new" y1="20199" y2="19903.3">
  </linearGradient><linearGradient gradientUnits="userSpaceOnUse" id="NecklaceShipWheelid431new" x1="16201" x2="15700.9" xlink:href="#NecklaceShipWheelid198new" y1="20265.3" y2="20069.4">
  </linearGradient><linearGradient gradientUnits="userSpaceOnUse" id="NecklaceShipWheelid526new" x1="14978.3" x2="14879.4" xlink:href="#NecklaceShipWheelid198new" y1="17745.7" y2="17245.3">
  </linearGradient><linearGradient gradientUnits="userSpaceOnUse" id="NecklaceShipWheelid443new" x1="14777" x2="14371.5" xlink:href="#NecklaceShipWheelid198new" y1="18195.2" y2="18489.2">
  </linearGradient><linearGradient gradientUnits="userSpaceOnUse" id="NecklaceShipWheelid505new" x1="14288.3" x2="13075.5" xlink:href="#NecklaceShipWheelid198new" y1="19443.4" y2="21417.5">
  </linearGradient><linearGradient gradientUnits="userSpaceOnUse" id="BraceletBoxer-Mediumid13" x1="10659.8" x2="7242.5" xlink:href="#BraceletBoxer-Mediumid2" y1="19968.7" y2="21545.9">
  </linearGradient><linearGradient gradientUnits="userSpaceOnUse" id="BraceletBoxer-Mediumid11" x1="19283.5" x2="17541.8" xlink:href="#BraceletBoxer-Mediumid2" y1="19104.9" y2="22409.6">
  </linearGradient><linearGradient gradientUnits="userSpaceOnUse" id="BraceletBoxer-Mediumid4" x1="16783.3" x2="18659.4" y1="20597.1" y2="19307.3">
   <stop offset="0" style="stop-opacity:1; stop-color:#C4C4C4"/>
   <stop offset="0.341176" style="stop-opacity:1; stop-color:white"/>
   <stop offset="0.819608" style="stop-opacity:1; stop-color:white"/>
   <stop offset="1" style="stop-opacity:1; stop-color:#DBDBDB"/>
  </linearGradient><linearGradient gradientUnits="userSpaceOnUse" id="BraceletBoxer-Mediumid12" x1="8704.42" x2="10580.5" xlink:href="#BraceletBoxer-Mediumid4" y1="19307.3" y2="20597.1">
  </linearGradient><linearGradient gradientUnits="userSpaceOnUse" id="NecklaceCapeGoldBack-Mediumid39" x1="4520.19" x2="6359.47" y1="17698.1" y2="22164.9">
   <stop offset="0" style="stop-opacity:1; stop-color:#CCA300"/>
   <stop offset="0.231373" style="stop-opacity:1; stop-color:#E6D00E"/>
   <stop offset="0.509804" style="stop-opacity:1; stop-color:#A87403"/>
   <stop offset="1" style="stop-opacity:1; stop-color:#AE7D04"/>
  </linearGradient><linearGradient gradientUnits="userSpaceOnUse" id="NecklaceCapeGoldBack-Mediumid3" x1="5802.55" x2="15394.4" y1="24344" y2="17117.2">
   <stop offset="0" style="stop-opacity:1; stop-color:#B06F00"/>
   <stop offset="0.368627" style="stop-opacity:1; stop-color:#B89C00"/>
   <stop offset="0.709804" style="stop-opacity:1; stop-color:#633501"/>
   <stop offset="1" style="stop-opacity:1; stop-color:#290B00"/>
  </linearGradient><linearGradient gradientUnits="userSpaceOnUse" id="NecklaceCapeGold-Mediumid12" x1="9527.35" x2="11718.7" y1="17325.6" y2="18088.7">
   <stop offset="0" style="stop-opacity:1; stop-color:#AE7D04"/>
   <stop offset="0.25098" style="stop-opacity:1; stop-color:#AE7D04"/>
   <stop offset="0.568627" style="stop-opacity:1; stop-color:#E3C735"/>
   <stop offset="1" style="stop-opacity:1; stop-color:#491B00"/>
  </linearGradient><linearGradient gradientUnits="userSpaceOnUse" id="NecklaceCapeGold-Mediumid9" x1="17530.6" x2="12330.9" y1="17814.8" y2="18031.5">
   <stop offset="0" style="stop-opacity:1; stop-color:#B06700"/>
   <stop offset="0.270588" style="stop-opacity:1; stop-color:#B89C00"/>
   <stop offset="0.768627" style="stop-opacity:1; stop-color:#633501"/>
   <stop offset="1" style="stop-opacity:1; stop-color:#290D00"/>
  </linearGradient><linearGradient gradientUnits="objectBoundingBox" id="NecklaceCapeGold-Mediumid31" x1="82.4142%" x2="17.5858%" xlink:href="#NecklaceCapeGold-Mediumid30" y1="12.6218%" y2="87.3782%">
  </linearGradient><linearGradient gradientUnits="objectBoundingBox" id="NecklaceCapeGold-Mediumid37" x1="82.4142%" x2="17.5858%" xlink:href="#NecklaceCapeGold-Mediumid30" y1="12.6218%" y2="87.3782%">
  </linearGradient><linearGradient gradientUnits="objectBoundingBox" id="Tail-Cat1id5" x1="50%" x2="50%" y1="0%" y2="100%">
   <stop offset="0" style="stop-opacity:1; stop-color:#8a8ea7"/>
   <stop offset="1" style="stop-opacity:1; stop-color:#bec0cc"/>
  </linearGradient><linearGradient gradientUnits="userSpaceOnUse" id="RightLeg-Cat0id19" x1="15490.3" x2="15490.3" y1="24284.1" y2="21188.2">
   <stop offset="0" style="stop-opacity:1; stop-color:#fafafa"/>
   <stop offset="0.439216" style="stop-opacity:1; stop-color:#fafafa"/>
   <stop offset="1" style="stop-opacity:1; stop-color:#c2cfe1"/>
  </linearGradient><linearGradient gradientUnits="userSpaceOnUse" id="LeftLeg-Cat0id19" x1="15490.3" x2="15490.3" y1="24284.1" y2="21188.2">
   <stop offset="0" style="stop-opacity:1; stop-color:#fafafa"/>
   <stop offset="0.439216" style="stop-opacity:1; stop-color:#fafafa"/>
   <stop offset="1" style="stop-opacity:1; stop-color:#c2cfe1"/>
  </linearGradient><linearGradient gradientUnits="objectBoundingBox" id="LeftHand-Cat0id246" x1="31.4718%" x2="68.5282%" y1="2.00058%" y2="97.9991%">
   <stop offset="0" style="stop-opacity:1; stop-color:#97a6ba"/>
   <stop offset="0.878431" style="stop-opacity:1; stop-color:#c2cfe1"/>
   <stop offset="1" style="stop-opacity:1; stop-color:#c2cfe1"/>
  </linearGradient><linearGradient gradientUnits="userSpaceOnUse" id="Body-Cat0id36" x1="13681.9" x2="13681.9" y1="17936.7" y2="7484.8">
   <stop offset="0" style="stop-opacity:1; stop-color:#97a6ba"/>
   <stop offset="0.0313725" style="stop-opacity:1; stop-color:#97a6ba"/>
   <stop offset="0.529412" style="stop-opacity:1; stop-color:#c2cfe1"/>
   <stop offset="1" style="stop-opacity:1; stop-color:#fafafa"/>
  </linearGradient><linearGradient gradientUnits="userSpaceOnUse" id="Body-Cat0id230" x1="13681.9" x2="13681.9" y1="13028.8" y2="17278">
   <stop offset="0" style="stop-opacity:1; stop-color:#fef2f2"/>
   <stop offset="0.658824" style="stop-opacity:1; stop-color:#fef2f2"/>
   <stop offset="1" style="stop-opacity:1; stop-color:#f2dada"/>
  </linearGradient><linearGradient gradientUnits="userSpaceOnUse" id="Ears-Cat0id61" x1="6344" x2="10713.3" y1="10122.8" y2="11711.6">
   <stop offset="0" style="stop-opacity:1; stop-color:#F5E2E2"/>
   <stop offset="1" style="stop-opacity:1; stop-color:#C49D9D"/>
  </linearGradient><linearGradient gradientUnits="userSpaceOnUse" id="Ears-Cat0id114" x1="7986.1" x2="9822.34" y1="9926.47" y2="10545.7">
   <stop offset="0" style="stop-opacity:1; stop-color:#E4BBB9"/>
   <stop offset="1" style="stop-opacity:1; stop-color:#B88383"/>
  </linearGradient><linearGradient gradientUnits="userSpaceOnUse" id="Ears-Cat0id70" x1="20208.3" x2="17218.2" y1="8096.38" y2="11659.9">
   <stop offset="0" style="stop-opacity:1; stop-color:#fef2f2"/>
   <stop offset="1" style="stop-opacity:1; stop-color:#f2dada"/>
  </linearGradient><linearGradient gradientUnits="userSpaceOnUse" id="Head-Cat4id230" x1="13681.9" x2="13681.9" y1="13028.8" y2="17278">
   <stop offset="0" style="stop-opacity:1; stop-color:#fef2f2"/>
   <stop offset="0.658824" style="stop-opacity:1; stop-color:#fef2f2"/>
   <stop offset="1" style="stop-opacity:1; stop-color:#f2dada"/>
  </linearGradient><linearGradient gradientUnits="userSpaceOnUse" id="Eyes-Cat10id27" x1="16937.6" x2="16937.6" y1="14961.3" y2="11448.6">
   <stop offset="0" style="stop-opacity:1; stop-color:#598000"/>
   <stop offset="1" style="stop-opacity:1; stop-color:black"/>
  </linearGradient><linearGradient gradientUnits="objectBoundingBox" id="Eyes-Cat10id57" x1="100%" x2="0%" y1="50.0003%" y2="50.0003%">
   <stop offset="0" style="stop-opacity:1; stop-color:#598000"/>
   <stop offset="0.501961" style="stop-opacity:1; stop-color:#b1ff00"/>
   <stop offset="1" style="stop-opacity:1; stop-color:#598000"/>
  </linearGradient><linearGradient gradientUnits="userSpaceOnUse" id="Eyes-Cat10id384" x1="16417.8" x2="16417.8" y1="11784.3" y2="14068.5">
   <stop offset="0" style="stop-opacity:1; stop-color:black"/>
   <stop offset="0.45" style="stop-opacity:1; stop-color:black"/>
   <stop offset="1" style="stop-opacity:1; stop-color:#476600"/>
  </linearGradient><linearGradient gradientUnits="userSpaceOnUse" id="NecklaceShipWheelid198new" x1="15325.7" x2="12038.2" y1="17755" y2="23105.9">
   <stop offset="0" style="stop-opacity:1; stop-color:#96612C"/>
   <stop offset="1" style="stop-opacity:1; stop-color:#754515"/>
  </linearGradient><linearGradient gradientUnits="userSpaceOnUse" id="NecklaceShipWheelid27" x1="16937.6" x2="16937.6" y1="14961.3" y2="11448.6">
   <stop offset="0" style="stop-opacity:1; stop-color:#598000"/>
   <stop offset="1" style="stop-opacity:1; stop-color:black"/>
  </linearGradient><linearGradient gradientUnits="userSpaceOnUse" id="BraceletBoxer-Mediumid2" x1="20053.3" x2="17995" y1="19164.5" y2="23070.1">
   <stop offset="0" style="stop-opacity:1; stop-color:red"/>
   <stop offset="1" style="stop-opacity:1; stop-color:#990000"/>
  </linearGradient><linearGradient gradientUnits="objectBoundingBox" id="NecklaceCapeGold-Mediumid30" x1="82.4142%" x2="17.5858%" y1="12.6218%" y2="87.3782%">
   <stop offset="0" style="stop-opacity:1; stop-color:#B3C0CC"/>
   <stop offset="0.270588" style="stop-opacity:1; stop-color:#D8DDE6"/>
   <stop offset="0.541176" style="stop-opacity:1; stop-color:#909DA8"/>
   <stop offset="1" style="stop-opacity:1; stop-color:#DBF5FF"/>
  </linearGradient></defs><g id="HairBack-Cat0">
 <animateTransform additive="sum" attributeName="transform" dur="10" repeatCount="indefinite" type="translate" values="0;0 200;0;0 200;0;0 200;0;0 200;0"/>
  <rect class="HairBack-Cat0fil22" height="890" width="890" x="13237" y="6590"/>
 </g><g id="NecklaceCapeGoldBack-Medium">
  <animateTransform additive="sum" attributeName="transform" dur="10" repeatCount="indefinite" type="translate" values="0;0 200;0;0 200;0;0 200;0;0 200;0"/>
  <metadata id="CorelCorpID_14Corel-Layer"/>
  <g id="_1834009988448">
   <g>
    <polygon class="NecklaceCapeGoldBack-Mediumfil38 NecklaceCapeGoldBack-Mediumstr0" points="8345,22996 7275,24229 6804,23598 "/>
    <path class="NecklaceCapeGoldBack-Mediumfil43 NecklaceCapeGoldBack-Mediumstr0" d="M2979 19025c2533,160 2278,2523 4260,1413 771,-431 2189,-2086 2427,-2628 82,-76 1004,-817 1286,-825 97,-3 1408,590 1977,563 2633,-122 2971,-468 3275,-364 256,88 -6,337 449,377 497,44 850,58 939,190 354,529 1283,4208 -137,6383 -1889,-287 -1219,543 -2327,296 -534,-119 -651,-468 -910,-496 -521,-54 -356,348 -1427,83 -884,-219 -2036,-430 -3373,163 -800,356 -1105,-429 -1681,-539 -220,-42 -837,-86 -464,527 140,230 -1017,19 -1387,-216 -788,-503 -112,-731 -551,-1192 -647,-680 -1171,235 -1825,-318 -224,-188 -259,-534 -168,-1004 205,-1056 75,-2081 -363,-2413z" style="fill:#521051"/>
    <path class="NecklaceCapeGoldBack-Mediumfil44" d="M2979 19025c2533,160 2278,2523 4260,1413 771,-431 2189,-2086 2427,-2628 82,-76 1004,-817 1286,-825 97,-3 1408,590 1977,563 2633,-122 2971,-468 3275,-364 256,88 -6,337 449,377 497,44 850,58 939,190 354,529 1283,4208 -137,6383 -1889,-287 -1219,543 -2327,296 -534,-119 -651,-468 -910,-496 -521,-54 -356,348 -1427,83 -884,-219 -2036,-430 -3373,163 -800,356 -1105,-429 -1681,-539 -220,-42 -837,-86 -464,527 140,230 -1017,19 -1387,-216 -788,-503 -112,-731 -551,-1192 -647,-680 -1171,235 -1825,-318 -224,-188 -259,-534 -168,-1004 205,-1056 75,-2081 -363,-2413z" style="fill:#ab7b1c"/>
    <path class="NecklaceCapeGoldBack-Mediumfil3" d="M4053 22627c2107,-851 2456,-1340 3031,-1778 575,-439 1017,-916 1425,-1527 -443,478 -922,922 -1270,1116 -1982,1110 -1727,-1253 -4260,-1413 438,332 568,1357 363,2413 -91,470 -56,816 168,1004 190,161 369,197 543,185z" style="fill:#914f01"/>
    <path class="NecklaceCapeGoldBack-Mediumfil4" d="M16149 24181c1964,-1984 402,-4259 138,-6459 61,-12 123,-25 187,-37 458,-119 1029,-66 1118,66 354,529 1283,4208 -137,6383 -744,-113 -1091,-53 -1306,47zm-6958 -5761c473,-529 357,-342 475,-610 82,-76 112,-255 394,-264 31,-1 230,92 486,218 -138,2315 -3115,5673 -3318,5927 -190,88 130,503 0,563 -317,146 -1201,-217 -1342,-302 -417,-252 -429,-440 -408,-627 3110,-1766 3019,-2877 3713,-4905zm1846 -409c174,88 344,176 486,249 -773,1962 -1726,4431 -2105,5920 -587,261 -908,-92 -1264,-342 1852,-2054 2591,-4240 2883,-5827zm1215 431c704,-20 1246,-95 1762,-199 -303,1984 -733,4378 -1095,5804 -41,-9 -83,-19 -128,-30 -540,-133 -1178,-264 -1898,-211 1305,-2498 1470,-4200 1359,-5364zm2549 -379c239,-58 486,-120 755,-183 232,1841 684,4005 -1057,6208 -95,-79 -177,-143 -281,-154 -204,-21 -303,28 -412,79 1232,-2913 1287,-4779 995,-5950z" style="fill:#969fee"/>
   </g>
   <g>
    <path class="NecklaceCapeGoldBack-Mediumfil45" d="M9651 18259c-377,741 -1253,1968 -2151,2575 -652,440 -2153,1366 -3020,322 -922,-1109 -1802,-1055 -3252,-368 469,-1234 1903,-2437 3397,-1550 509,301 1442,2076 2891,922 761,-606 1418,-1286 1791,-1931l344 30z" style="fill:#aad794"/>
    <path class="NecklaceCapeGoldBack-Mediumfil14" d="M9720 18285c-187,373 -504,875 -881,1350 -383,482 -834,948 -1297,1261 -330,223 -875,569 -1451,728 -591,163 -1211,130 -1669,-420 -446,-538 -880,-793 -1375,-831 -502,-38 -1073,144 -1787,482 -37,18 -82,2 -99,-35 -9,-20 -9,-41 -2,-60 63,-165 143,-330 237,-490 285,-480 705,-912 1204,-1169 503,-259 1086,-338 1690,-109 124,47 249,107 373,181 125,74 266,223 431,397 527,555 1311,1380 2376,531 503,-401 953,-821 1306,-1245 167,-201 319,-414 438,-616l164 15c-130,229 -298,469 -487,696 -361,434 -818,861 -1328,1267 -1172,934 -2012,50 -2577,-545 -157,-166 -292,-307 -399,-371 -117,-70 -234,-126 -350,-170 -560,-213 -1101,-138 -1569,102 -472,243 -871,655 -1143,1112 -57,96 -108,194 -153,293 656,-297 1197,-453 1686,-415 537,41 1004,313 1479,884 410,494 974,520 1514,371 554,-152 1085,-490 1407,-707 449,-304 890,-759 1264,-1230 354,-446 653,-915 837,-1271l161 14z" style="fill:#6b7db6"/>
   </g>
  </g>
 </g><g id="Tail-Cat1">
  <path class="Tail-Cat1fil25" d="M12493 21526c-108,-680 356,-1318 1035,-1426 680,-108 1318,356 1426,1035 72,449 615,757 1013,871 277,80 569,104 842,61 324,-52 634,-203 873,-476 315,-359 185,-698 48,-1055 -333,-871 -681,-1781 -6,-3132 633,-1266 1884,-1986 3288,-1826 1347,153 2497,1082 2852,2410 178,666 -218,1350 -884,1528 -666,178 -1350,-218 -1528,-884 -111,-412 -602,-663 -1007,-554 -739,197 -584,1038 -381,1569 411,1074 408,2538 -507,3585 -653,748 -1490,1157 -2357,1296 -1260,201 -2607,-168 -3570,-1011 -591,-519 -1010,-1199 -1137,-1991z" style="fill:#0c5758"/>
  <path class="Tail-Cat1fil14" d="M12493 21526c-51,-321 26,-633 192,-884l227 -137c304,-15 813,942 1117,927 875,2545 4568,3180 6172,593 -119,430 -326,844 -644,1207 -653,748 -1490,1157 -2357,1296 -1260,201 -2607,-168 -3570,-1011 -591,-519 -1010,-1199 -1137,-1991z" style="fill:#4af1a7"/>
  <path class="Tail-Cat1fil27" d="M20224 15581c254,-32 518,-34 788,-3 196,22 388,61 574,115 -86,612 -248,1468 -799,1408 -532,-57 -594,-890 -563,-1520zm-2123 1222c287,-369 637,-666 1033,-877 351,496 755,1166 339,1487 -394,304 -961,-160 -1372,-610zm-763 2098c0,-399 85,-838 311,-1338 576,230 1428,601 1230,1139 -177,483 -945,370 -1541,199zm-716 3185c63,-3 125,-10 187,-19 324,-52 634,-203 873,-476 35,-40 65,-80 90,-119 348,507 783,1223 346,1546 -470,349 -1157,-368 -1554,-870 19,-21 38,-42 58,-62z" style="fill:#099c7b"/>
  <path class="Tail-Cat1fil26" d="M23232 16766c290,349 509,761 632,1222 178,666 -218,1350 -884,1528 -666,178 -1350,-218 -1528,-884 29,-336 -20,-792 208,-953 475,-334 678,146 766,-601 50,-420 502,-500 806,-312z" style="fill:#eefd61"/>
  <path class="Tail-Cat1fil14" d="M23852 18675c-20,64 -45,127 -75,187 20,-67 45,-129 75,-187zm-75 188c-154,311 -436,557 -797,653 -666,178 -1350,-218 -1528,-884 -111,-412 -602,-663 -1007,-554 -372,99 -517,362 -544,666l0 0c-70,-634 533,-1204 1070,-1107 893,163 894,897 1378,1194 482,295 900,330 1428,32z" style="fill:#8935b4"/>
  <path class="Tail-Cat1fil22 Tail-Cat1str0" d="M12493 21526c-108,-680 356,-1318 1035,-1426 680,-108 1318,356 1426,1035 72,449 615,757 1013,871 277,80 569,104 842,61 324,-52 634,-203 873,-476 315,-359 185,-698 48,-1055 -333,-871 -681,-1781 -6,-3132 633,-1266 1884,-1986 3288,-1826 1347,153 2497,1082 2852,2410 178,666 -218,1350 -884,1528 -666,178 -1350,-218 -1528,-884 -111,-412 -602,-663 -1007,-554 -739,197 -584,1038 -381,1569 411,1074 408,2538 -507,3585 -653,748 -1490,1157 -2357,1296 -1260,201 -2607,-168 -3570,-1011 -591,-519 -1010,-1199 -1137,-1991z" style="fill:#fe4f5d"/>
 </g><g id="RightFoot-Cat0">
  <path class="RightFoot-Cat0fil26" d="M17107 25230c-124,214 -404,285 -611,106 -71,70 -277,145 -526,65 -410,-131 -508,-461 -851,-710 -221,-159 -124,-477 -114,-668 364,340 783,-165 1076,-248 374,-102 737,158 534,413 199,95 520,237 673,411 169,192 121,631 -181,631z" style="fill:#e8e1dd"/>
  <path class="RightFoot-Cat0fil14" d="M17107 25230c-124,214 -404,285 -611,106 -71,70 -277,145 -526,65 -410,-131 -518,-492 -872,-726 -156,-103 -135,-387 -103,-573 18,-14 37,-27 56,-38 -60,533 1445,1528 1433,860 214,342 596,186 545,-150 127,134 271,-14 143,-274 182,62 215,288 209,441 -17,153 -106,289 -274,289z" style="fill:#c89c30"/>
  <path class="RightFoot-Cat0fil22" d="M16655 24186c278,231 480,239 633,413 169,192 121,631 -181,631 -124,214 -404,285 -611,106 -71,70 -277,145 -526,65 -410,-131 -520,-489 -872,-726 -156,-105 -138,-331 -109,-524" style="fill:#ee67dd"/>
  <path class="RightFoot-Cat0fil32" d="M16703 24128c-31,-26 -78,-22 -105,10 -27,31 -22,79 9,105 144,120 266,182 373,236 100,50 184,92 252,169 81,92 97,256 55,370 -18,49 -49,94 -96,118 7,-269 -115,-534 -402,-526 186,95 268,253 247,592 -49,79 -127,137 -220,155 -79,15 -160,-2 -228,-45 38,-218 10,-484 -289,-538 139,98 163,330 142,511 -32,29 -98,60 -189,72 -75,9 -164,4 -260,-27 -221,-71 -352,-219 -489,-375 -104,-118 -211,-239 -363,-342 -57,-38 -82,-102 -91,-176 -11,-85 -1,-183 13,-274 15,-98 -130,-119 -144,-22 -16,102 -31,212 -18,314 14,114 57,216 157,282 136,92 236,206 333,317 151,171 295,335 557,419 119,38 230,44 323,32 93,-11 171,-41 226,-75 103,70 225,98 348,74 125,-24 233,-98 305,-202 136,-15 232,-107 279,-232 61,-166 34,-387 -84,-521 -86,-98 -183,-147 -296,-204 -100,-50 -214,-108 -345,-217z" style="fill:#d00b55"/>
 </g><g id="LeftFoot-Cat0">
 <path class="LeftFoot-Cat0fil26" d="M10257 25230c124,214 404,285 611,106 71,70 277,145 526,65 410,-131 508,-461 851,-710 221,-159 124,-477 114,-668 -364,340 -783,-165 -1076,-248 -374,-102 -737,158 -535,413 -198,95 -519,237 -672,411 -169,192 -121,631 181,631z" style="fill:#35ae1b"/>
  <path class="LeftFoot-Cat0fil14" d="M10257 25230c124,214 404,285 611,106 71,70 277,145 526,65 410,-131 518,-492 871,-726 157,-103 136,-387 103,-573 -17,-14 -36,-27 -55,-38 60,533 -1445,1528 -1434,860 -213,342 -595,186 -544,-150 -127,134 -271,-14 -143,-274 -182,62 -215,288 -209,441 17,153 106,289 274,289z" style="fill:#b45d67"/>
  <path class="LeftFoot-Cat0fil22" d="M10708 24186c-277,231 -480,239 -632,413 -169,192 -121,631 181,631 124,214 404,285 611,106 71,70 277,145 526,65 410,-131 520,-489 871,-726 156,-105 139,-331 110,-524" style="fill:#db58f1"/>
  <path class="LeftFoot-Cat0fil32" d="M10660 24128c32,-26 79,-22 106,10 26,31 22,79 -10,105 -143,120 -266,182 -373,236 -99,50 -183,92 -251,169 -81,92 -97,256 -55,370 18,49 49,94 96,118 -7,-269 115,-534 402,-526 -186,95 -268,253 -247,592 49,79 127,137 220,155 79,15 160,-2 228,-45 -39,-218 -11,-484 289,-538 -139,98 -163,330 -142,511 31,29 98,60 189,72 75,9 163,4 259,-27 222,-71 353,-219 490,-375 104,-118 210,-239 363,-342 56,-38 82,-102 91,-176 11,-85 0,-183 -14,-274 -14,-98 131,-119 145,-22 16,102 31,212 18,314 -14,114 -58,216 -157,282 -136,92 -236,206 -333,317 -151,171 -296,335 -557,419 -119,38 -230,44 -323,32 -93,-11 -171,-41 -226,-75 -103,70 -226,98 -349,74 -124,-24 -233,-98 -304,-202 -136,-15 -232,-107 -279,-232 -61,-166 -34,-387 84,-521 86,-98 183,-147 296,-204 100,-50 214,-108 344,-217z" style="fill:#19bb79"/>
 </g><g id="RightLeg-Cat0">
  <path class="RightLeg-Cat0fil36" d="M13682 23259c428,0 1377,183 1321,776 215,222 637,350 896,149 312,-243 712,-232 720,-12 370,-265 678,-701 680,-1146 2,-860 -666,-1598 -969,-1838 -621,860 -1470,1269 -2648,1328l0 743z" style="fill:#5dff4c"/>
  <path class="RightLeg-Cat0fil26" d="M14726 23532c179,119 298,292 277,513 215,222 637,350 896,149 312,-243 712,-232 720,-12 370,-265 678,-711 680,-1156 1,-384 -132,-743 -305,-1045 295,935 -992,1876 -2268,1551z" style="fill:#555bab"/>
  <path class="RightLeg-Cat0fil32" d="M14990 24254c62,5 73,-66 79,-154 8,-118 -4,-261 -94,-417 0,-1 -1,-3 -2,-4 -100,-171 -247,-296 -460,-378 -208,-80 -478,-119 -831,-119l0 150c335,0 588,36 777,108 180,69 302,173 385,314 0,2 1,3 2,4 67,116 86,244 75,332 -9,68 -10,89 -11,105 -4,48 44,56 80,59zm1296 -3006c175,140 477,451 691,859 144,272 248,587 247,919 -1,245 -87,464 -218,653 -154,223 -454,481 -660,663 306,-60 713,-477 783,-578 147,-211 244,-458 244,-738 2,-360 -110,-698 -263,-989 -227,-430 -547,-760 -734,-907l-46 58 -44 60 0 0z" style="fill:#a64e29"/>
  <path class="RightLeg-Cat0fil14" d="M17192 23490c67,-148 106,-305 107,-464 2,-775 -541,-1451 -869,-1752l-157 727c26,48 52,95 79,143 387,-413 947,879 840,1346z" style="fill:#b13375"/>
 </g><g id="LeftLeg-Cat0">
  <path class="LeftLeg-Cat0fil44" d="M13682 23259c-428,0 -1377,183 -1321,776 -215,222 -637,350 -896,149 -312,-243 -712,-232 -720,-12 -370,-265 -679,-701 -680,-1146 -2,-860 666,-1598 969,-1838 621,860 1470,1269 2648,1328l0 743z" style="fill:#8943d7"/>
  <path class="LeftLeg-Cat0fil26" d="M12496 23650c-96,103 -150,240 -135,395 -215,222 -637,350 -896,149 -312,-243 -712,-232 -720,-12 -500,-358 -806,-1009 -607,-1618 386,1194 2040,1329 2358,1086z" style="fill:#a172f8"/>
  <path class="LeftLeg-Cat0fil32" d="M12374 24254c-62,5 -74,-66 -80,-154 -7,-118 4,-261 94,-417 1,-1 2,-3 3,-4 100,-171 247,-296 460,-378 208,-80 478,-119 831,-119l0 150c-335,0 -588,36 -777,108 -180,69 -303,173 -385,314 -1,2 -1,3 -2,4 -67,116 -86,244 -75,332 9,68 10,89 11,105 4,48 -44,56 -80,59zm-1296 -3006c-176,140 -477,451 -692,859 -143,272 -247,587 -246,919 1,245 87,464 218,653 154,223 454,481 660,663 -306,-60 -713,-477 -784,-578 -146,-211 -243,-458 -244,-738 -1,-360 110,-698 264,-989 226,-430 547,-760 734,-907l46 58 44 60 0 0z" style="fill:#8f4a1a"/>
  <path class="LeftLeg-Cat0fil14" d="M10172 23490c-67,-148 -106,-305 -107,-464 -2,-775 540,-1451 869,-1752l157 727c-26,48 -53,95 -79,143 -388,-413 -947,879 -840,1346z" style="fill:#fc19d7"/>
 </g><g id="RightHand-Cat0">
 <animateTransform additive="sum" attributeName="transform" dur="10" repeatCount="indefinite" type="translate" values="0;0 200;0;0 200;0;0 200;0;0 200;0"/>
  <path class="RightHand-Cat0fil48" d="M16231 17709c1007,345 1819,1401 2257,2165 289,504 -636,1265 -911,1014 -627,-574 -1209,-620 -1689,-543 -742,120 -1353,-1920 -931,-2545 422,-21 934,-40 1274,-91z" style="fill:#e40c9d"/>
  <path class="RightHand-Cat0fil14" d="M17512 20830c-602,-518 -1160,-559 -1624,-485 -171,28 -335,-59 -481,-217 -325,-472 753,-1098 1039,-656 261,403 734,847 1111,1126 -2,93 16,193 -45,232l0 0 0 0z" style="fill:#dfc74c"/>
  <path class="RightHand-Cat0fil22 RightHand-Cat0str0" d="M16477 20333c340,47 711,200 1100,555 275,251 1152,-509 864,-1013 -438,-763 -1203,-1821 -2210,-2166 -90,-31 -172,-59 -246,-84" style="fill:#2c829a"/>
 </g><g id="LeftHand-Cat0">
 <animateTransform additive="sum" attributeName="transform" dur="10" repeatCount="indefinite" type="translate" values="0;0 200;0;0 200;0;0 200;0;0 200;0"/>
  <path class="LeftHand-Cat0fil55" d="M11133 17709c-1007,345 -1819,1401 -2257,2165 -289,504 636,1265 911,1014 627,-574 1209,-620 1689,-543 742,120 1352,-1920 931,-2545 -422,-21 -934,-40 -1274,-91z" style="fill:#14fe25"/>
  <path class="LeftHand-Cat0fil14" d="M9852 20830c602,-518 1160,-559 1624,-485 171,28 335,-59 481,-217 325,-472 -753,-1098 -1039,-656 -261,403 -734,847 -1111,1126 2,93 -16,193 45,232l0 0 0 0z" style="fill:#b561ca"/>
  <path class="LeftHand-Cat0fil22 LeftHand-Cat0str0" d="M10887 20333c-340,47 -711,200 -1100,555 -275,251 -1153,-509 -864,-1013 438,-763 1203,-1821 2210,-2166 90,-31 171,-59 246,-84" style="fill:#b80124"/>
 </g><g id="Body-Cat0">
 <animateTransform additive="sum" attributeName="transform" dur="10" repeatCount="indefinite" type="translate" values="0;0 200;0;0 200;0;0 200;0;0 200;0"/>
  <path class="Body-Cat0fil62" d="M13682 23135c-1548,0 -2752,-291 -2993,-1956 -147,-1014 391,-2287 991,-3420 634,80 1289,123 2002,142 713,-19 1367,-62 2002,-142 600,1133 1137,2406 991,3420 -242,1665 -1445,1956 -2993,1956z" style="fill:#88053d"/>
  <path class="Body-Cat0fil14" d="M12621 23067c-1016,-156 -1749,-629 -1932,-1888 -75,-519 29,-1106 229,-1707 -223,2001 402,3257 1703,3595z" style="fill:#25029d"/>
  <path class="Body-Cat0fil32" d="M11012 22144c-250,-321 -348,-641 -397,-954 -59,-377 -24,-998 184,-1320 -78,421 -93,905 -36,1298 50,341 104,572 249,976z" style="fill:#fe206b"/>
  <path class="Body-Cat0fil63" d="M13682 18144c-911,0 -1630,-350 -1974,394 -875,1890 -906,4437 1974,4437 2879,0 2849,-2547 1974,-4437 -344,-744 -1063,-394 -1974,-394z" style="fill:#4c29df"/>
  <path class="Body-Cat0fil14" d="M14743 23067c1016,-156 1749,-629 1932,-1888 75,-519 -29,-1106 -229,-1707 223,2001 -402,3257 -1703,3595z" style="fill:#4abcc5"/>
  <path class="Body-Cat0fil32" d="M16352 22144c250,-321 347,-641 397,-954 59,-377 24,-998 -184,-1320 78,421 93,905 36,1298 -50,341 -104,572 -249,976z" style="fill:#c9c3ef"/>
 </g><g id="NecklaceCapeGold-Medium">
  <animateTransform additive="sum" attributeName="transform" dur="10" repeatCount="indefinite" type="translate" values="0;0 200;0;0 200;0;0 200;0;0 200;0"/>
  <metadata id="CorelCorpID_15Corel-Layer"/>
  <g id="_1834009982832">
   <path class="NecklaceCapeGold-Mediumfil46 NecklaceCapeGold-Mediumstr0" d="M12255 18362c975,116 2758,-1179 4054,-1285 300,-24 456,257 674,315 232,63 654,221 624,464 -438,-98 -549,-97 -1111,224 -1286,735 -2757,853 -4231,496 -1,-30 -17,-118 -10,-214z" style="fill:#8aa647"/>
   <path class="NecklaceCapeGold-Mediumfil47" d="M11771 18438c-606,-187 -811,-311 -1134,-548 -125,-91 -689,-385 -858,76 -34,92 -71,180 -132,302l-344 -33c100,-174 169,-325 228,-498 122,-357 425,-349 681,-554 197,-158 585,-234 740,-198 909,209 929,642 991,1400l0 0c-47,17 -108,35 -172,53z" style="fill:#f94ab9"/>
   <path class="NecklaceCapeGold-Mediumfil14" d="M11749 18510c-307,-95 -513,-175 -685,-261 -172,-86 -307,-178 -471,-299 -38,-27 -122,-76 -223,-113 -85,-31 -180,-54 -267,-48 -79,6 -152,36 -205,108 -19,26 -35,57 -49,94 -32,88 -78,191 -135,304l-160 -14c66,-129 119,-244 154,-341 19,-51 42,-95 69,-131 83,-113 196,-160 316,-169 111,-8 227,19 328,56 116,43 215,100 260,134 159,116 288,204 450,286 160,80 354,155 641,244 25,-7 50,-14 74,-21l18 -6c-56,-688 -96,-1084 -928,-1275 -73,-17 -209,-4 -350,34 -123,33 -245,83 -327,149 -95,76 -192,123 -284,168 -158,76 -303,147 -373,352 -57,168 -135,336 -230,504l-165 -14c107,-180 192,-360 253,-538 90,-265 263,-348 449,-439 87,-42 176,-85 257,-149 100,-81 242,-141 381,-178 163,-44 328,-57 422,-35 948,218 983,660 1046,1430l3 34c1,8 0,17 -2,26 -3,16 -12,30 -25,41l0 0 0 0c-8,6 -16,11 -26,14 -23,8 -48,16 -75,24 -31,10 -65,20 -99,29 -15,4 -29,4 -42,0z" style="fill:#110f6d"/>
   <ellipse class="NecklaceCapeGold-Mediumfil17 NecklaceCapeGold-Mediumstr1" cx="11884" cy="18448" rx="437" ry="424"/>
   <ellipse class="NecklaceCapeGold-Mediumfil18 NecklaceCapeGold-Mediumstr1" cx="12643" cy="18527" rx="290" ry="282"/>
   <path class="NecklaceCapeGold-Mediumfil10" d="M11884 18872c178,0 331,-104 399,-252 -72,62 -166,99 -270,99 -226,0 -409,-178 -409,-398 0,-99 37,-189 98,-259 -150,67 -254,215 -254,386 0,234 195,424 436,424z" style="fill:#e6648c"/>
   <path class="NecklaceCapeGold-Mediumfil10" d="M12672 18785c120,0 224,-70 270,-170 -49,42 -113,67 -183,67 -152,0 -276,-120 -276,-269 0,-67 25,-128 66,-175 -101,46 -172,145 -172,261 0,158 132,286 295,286z" style="fill:#ef5213"/>
   <path class="NecklaceCapeGold-Mediumfil11" d="M12146 18644c43,-55 69,-122 69,-196 0,-177 -148,-321 -331,-321 -81,0 -155,28 -212,75 34,-10 71,-16 109,-16 208,0 377,164 377,367 0,31 -4,62 -12,91z" style="fill:#c6c0ff"/>
   <path class="NecklaceCapeGold-Mediumfil11" d="M12792 18625c24,-29 37,-66 37,-106 0,-96 -80,-173 -178,-173 -44,0 -84,15 -115,40 19,-5 38,-8 59,-8 112,0 204,88 204,198 0,17 -3,33 -7,49z" style="fill:#b17820"/>
  </g>
 </g><g id="RightPaw-Cat0">
 <animateTransform additive="sum" attributeName="transform" dur="10" repeatCount="indefinite" type="translate" values="0;0 200;0;0 200;0;0 200;0;0 200;0"/>
  <g id="_2842391375968">
   <path class="RightPaw-Cat0fil26" d="M17501 20836c-31,672 506,1059 828,766 253,397 884,103 809,-293 203,-535 -266,-1036 -634,-1325 -198,-64 -364,-248 -462,44 -114,341 -157,279 -402,398 -164,79 -11,352 -139,410z" style="fill:#141ffb"/>
   <path class="RightPaw-Cat0fil14" d="M17501 20836c-31,672 506,1059 828,766 341,429 911,24 753,-293 -65,297 -520,408 -657,-118 -113,412 -522,237 -614,26 -96,-216 -45,-462 -254,-619 -2,93 16,193 -45,232l0 0 0 1c-2,0 -3,1 -5,2l0 0 0 0 0 0 0 0 -1 1 0 0 0 0c-2,1 -3,2 -5,2z" style="fill:#735778"/>
   <path class="RightPaw-Cat0fil32" d="M17437 20673c-79,-58 -168,63 -89,121 29,21 57,43 84,65 -4,302 99,551 246,712 55,61 118,109 183,144 146,76 312,82 454,-8 209,238 583,191 784,-34 86,-97 135,-221 116,-357 83,-234 46,-463 -52,-673 -133,-282 -403,-498 -588,-704 -34,-37 -181,-286 -215,-345 -58,-79 -178,10 -120,89 36,48 75,120 112,186 6,12 81,153 124,188 201,164 431,392 551,649 38,81 65,165 77,251 -53,-69 -156,-152 -275,-139 81,67 126,143 171,252 66,158 113,363 -12,503 -142,159 -412,205 -563,33 116,-164 118,-464 -80,-548 55,102 48,374 -55,477 -86,86 -222,119 -360,47 -49,-26 -97,-63 -141,-112 -129,-140 -218,-365 -207,-639 2,-22 -6,-44 -23,-60 -37,-34 -82,-68 -122,-98z" style="fill:#3cb1d1"/>
  </g>
 </g><g id="LeftPaw-Cat0">
 <animateTransform additive="sum" attributeName="transform" dur="10" repeatCount="indefinite" type="translate" values="0;0 200;0;0 200;0;0 200;0;0 200;0"/>
  <path class="LeftPaw-Cat0fil26" d="M9863 20836c31,672 -506,1059 -828,766 -253,397 -884,103 -809,-293 -203,-535 266,-1036 634,-1325 198,-64 364,-248 462,44 114,341 157,279 402,398 164,79 11,352 139,410z" style="fill:#94daec"/>
  <path class="LeftPaw-Cat0fil14" d="M9863 20836c31,672 -506,1059 -828,766 -341,429 -911,24 -754,-293 66,297 521,408 658,-118 113,412 522,237 614,26 95,-216 45,-462 254,-619 2,93 -16,193 45,232l0 0 0 1c2,0 3,1 5,2l0 0 0 0 0 0 0 0 0 1 1 0 0 0c1,1 3,2 5,2z" style="fill:#d1549a"/>
  <path class="LeftPaw-Cat0fil32" d="M9927 20673c79,-58 168,63 88,121 -28,21 -56,43 -83,65 4,302 -100,551 -246,712 -56,61 -118,109 -183,144 -146,76 -312,82 -454,-8 -209,238 -583,191 -784,-34 -86,-97 -135,-221 -116,-357 -83,-234 -46,-463 52,-673 133,-282 403,-498 588,-704 34,-37 180,-286 214,-345 59,-79 179,10 121,89 -36,48 -76,120 -112,186 -6,12 -81,153 -124,188 -201,164 -431,392 -551,649 -38,81 -66,165 -77,251 53,-69 156,-152 275,-139 -81,67 -126,143 -172,252 -65,158 -113,363 13,503 142,159 412,205 562,33 -115,-164 -117,-464 81,-548 -55,102 -48,374 55,477 86,86 222,119 359,47 50,-26 98,-63 142,-112 128,-140 218,-365 207,-639 -2,-22 6,-44 23,-60 37,-34 81,-68 122,-98z" style="fill:#f87f19"/>
 </g><g id="Ears-Cat0">
 <animateTransform additive="sum" attributeName="transform" dur="10" repeatCount="indefinite" type="translate" values="0;0 200;0;0 200;0;0 200;0;0 200;0"/>
  <g>
        <animateTransform additive="sum" attributeName="transform" dur="10" repeatCount="indefinite" type="rotate" values="0;0;0;0;0;0;0;0;0;0;0;0;0;0;0;0;0;0;0;0;0;0;0;0;0;0;0;0;0;0;0;0;0;0;0;0;0;0;0;0;0;0;0;0;0;0;0;0;0;0;0;0;0;0;0;0;0;0;0;0;0;0;0;0;0;0;0;0;0;0;0;0;0;0;0;0;0;0;0;0;10;0"/>
        <g>
            <animateTransform additive="sum" attributeName="transform" dur="10" repeatCount="indefinite" type="translate" values="0;0;0;0;0;0;0;0;0;0;0;0;0;0;0;0;0;0;0;0;0;0;0;0;0;0;0;0;0;0;0;0;0;0;0;0;0;0;0;0;0;0;0;0;0;0;0;0;0;0;0;0;0;0;0;0;0;0;0;0;0;0;0;0;0;0;0;0;0;0;0;0;0;0;0;0;0;0;0;0;2000 -2000;0"/>
            <path class="Ears-Cat0fil67 Ears-Cat0str0" d="M7795 13241c-878,-2399 -560,-5257 664,-6060 762,-166 2489,479 2735,1467 -981,1269 -2418,3325 -3399,4593z" style="fill:#ebd9d5"/>
            <path class="Ears-Cat0fil68" d="M11439 10107c-514,-1394 -1686,-2244 -2770,-2361 -1193,1080 -691,4184 -280,5149 336,-892 1271,-2217 3050,-2788z" style="fill:#43f24d"/>
            <path class="Ears-Cat0fil69" d="M10307 9475c-403,-919 -1635,-1210 -1816,-735 -184,482 525,613 873,740 -252,-37 -827,-6 -797,402 32,431 476,384 938,360 145,-203 636,-645 802,-767z" style="fill:#9aed2f"/>
            <path class="Ears-Cat0fil14" d="M11203 9585c-586,-1083 -1593,-1737 -2534,-1839 1247,674 1468,1690 411,2932 272,-366 1345,-778 2123,-1093z" style="fill:#132895"/>
        </g>
  </g>
  <g>
        <animateTransform additive="sum" attributeName="transform" dur="10" repeatCount="indefinite" type="rotate" values="0;0;0;0;0;0;0;0;0;0;0;0;0;0;0;0;0;0;0;0;0;0;0;0;0;0;0;0;0;0;0;0;0;0;0;0;0;0;0;0;0;0;0;0;0;0;0;0;0;0;0;0;0;0;0;0;0;0;0;0;0;0;0;0;0;0;0;0;0;0;0;0;0;0;0;0;0;0;0;0;-10;0"/>
        <g>
            <animateTransform additive="sum" attributeName="transform" dur="10" repeatCount="indefinite" type="translate" values="0;0;0;0;0;0;0;0;0;0;0;0;0;0;0;0;0;0;0;0;0;0;0;0;0;0;0;0;0;0;0;0;0;0;0;0;0;0;0;0;0;0;0;0;0;0;0;0;0;0;0;0;0;0;0;0;0;0;0;0;0;0;0;0;0;0;0;0;0;0;0;0;0;0;0;0;0;0;0;0;-2500 2500;0"/>
            <path class="Ears-Cat0fil70 Ears-Cat0str0" d="M19569 13241c878,-2399 560,-5257 -664,-6060 -762,-166 -2489,479 -2735,1467 981,1269 2418,3325 3399,4593z" style="fill:#fba8a6"/>
            <path class="Ears-Cat0fil71" d="M15925 10107c514,-1394 1686,-2244 2770,-2361 1193,1080 691,4184 280,5149 -336,-892 -1271,-2217 -3050,-2788z" style="fill:#90a8dc"/>
            <path class="Ears-Cat0fil72" d="M17057 9475c403,-919 1635,-1210 1816,-735 184,482 -525,613 -873,740 252,-37 827,-6 797,402 -32,431 -476,384 -938,360 -145,-203 -636,-645 -802,-767z" style="fill:#1f5e00"/>
            <path class="Ears-Cat0fil14" d="M16161 9585c586,-1083 1593,-1737 2534,-1839 -1247,674 -1468,1690 -411,2932 -272,-366 -1345,-778 -2123,-1093z" style="fill:#b62de9"/>
		    </g>
  </g>
 </g><g id="BraceletBoxer-Medium">
  <animateTransform additive="sum" attributeName="transform" dur="10" repeatCount="indefinite" type="translate" values="0;0 200;0;0 200;0;0 200;0;0 200;0"/>
  <metadata id="CorelCorpID_0Corel-Layer"/>
  <g id="_1890968492880">
   <path class="BraceletBoxer-Mediumfil0 BraceletBoxer-Mediumstr0" d="M18174 18907c-578,-193 -1924,1008 -1565,1711 84,165 212,311 371,404 126,459 117,1635 1091,1071 93,269 274,526 577,535 761,22 1775,-844 1611,-1674 -104,-523 -758,-1373 -1425,-1457 -96,-242 -357,-488 -660,-590z" style="fill:#55efef"/>
   <path class="BraceletBoxer-Mediumfil1" d="M17980 21538c120,1030 629,1089 668,1090 761,22 1817,-905 1514,-1728 -113,757 -1495,1384 -2182,638z" style="fill:#7b0e07"/>
   <path class="BraceletBoxer-Mediumfil2 BraceletBoxer-Mediumstr1" d="M18179 18887c-578,-194 -1929,1028 -1570,1731 84,165 244,327 403,420 11,-651 1211,-1653 1881,-1505 -96,-242 -411,-545 -714,-646z" style="fill:#0a813b"/>
   <path class="BraceletBoxer-Mediumfil3" d="M18166 22114c-33,-123 -140,-483 -210,-668 4,191 71,620 -179,702 84,4 304,-39 389,-34z" style="fill:#d91fab"/>
   <path class="BraceletBoxer-Mediumfil4 BraceletBoxer-Mediumstr0" d="M18174 18907c-578,-193 -1924,1008 -1565,1711 84,165 212,311 371,404 126,459 117,1635 1091,1071 93,269 274,526 577,535 761,22 1775,-844 1611,-1674 -104,-523 -758,-1373 -1425,-1457 -96,-242 -357,-488 -660,-590z" style="fill:#80d854"/>
   <path class="BraceletBoxer-Mediumfil1" d="M17961 21473c-474,629 -938,-482 -706,-964 -85,82 -260,383 -225,587 50,305 10,1498 1004,1006 -23,-210 -50,-420 -73,-629z" style="fill:#7eebba"/>
   <path class="BraceletBoxer-Mediumfil4 BraceletBoxer-Mediumstr1" d="M18177 19672c80,-175 86,-270 27,-358 -114,-170 -300,-319 -457,-332" style="fill:#9a9233"/>
   <path class="BraceletBoxer-Mediumfil5" d="M17352 20663c442,-882 1694,-1281 1842,-803 108,351 -1056,-27 -1842,803z" style="fill:#d246b0"/>
   <path class="BraceletBoxer-Mediumfil1" d="M16754 19792c-54,301 140,636 443,723 -79,162 -158,324 -237,486 -385,-213 -563,-621 -206,-1209z" style="fill:#d1fc7f"/>
   <path class="BraceletBoxer-Mediumfil6" d="M19364 20042c-26,-20 -52,-40 -78,-60 -25,-19 -51,-38 -77,-57 -12,4 -24,7 -37,10 26,19 52,38 77,56 25,19 51,39 77,58 -57,14 -112,29 -167,45 -72,-52 -145,-104 -218,-155 -72,-51 -144,-103 -216,-155 53,-20 107,-39 161,-57 25,18 50,37 75,55 25,18 50,37 75,55 12,-4 24,-7 37,-11 -26,-18 -51,-37 -76,-55 -25,-18 -50,-37 -75,-55 58,-18 116,-34 175,-49 74,55 149,111 223,167 77,58 153,117 229,178 -62,8 -124,17 -185,30zm-338 100c-87,36 -174,76 -258,120 -70,-49 -141,-97 -212,-147 -71,-49 -143,-100 -214,-151 48,-26 97,-51 146,-76 42,31 85,62 127,92 43,30 86,60 129,89 -20,-24 -40,-48 -59,-73 -20,-24 -40,-49 -59,-74 -28,-20 -56,-40 -84,-60 50,-22 100,-44 150,-65 22,16 43,31 64,47 22,15 43,30 65,45 34,42 69,85 103,127 34,42 69,83 102,126zm-613 348c-32,-22 -64,-44 -96,-66 -33,-22 -65,-44 -97,-67 0,-15 -1,-30 -2,-46 -21,0 -43,0 -64,0 -28,-19 -55,-38 -82,-57 -27,-20 -55,-39 -82,-58 46,-35 93,-68 140,-101 25,18 50,36 76,54 25,18 50,35 75,53 14,-9 27,-18 41,-27 -25,-18 -50,-35 -75,-53 -25,-18 -50,-36 -75,-54 46,-30 92,-58 140,-86 71,50 142,101 213,151 71,49 142,98 212,146 -110,66 -219,136 -324,211zm23 -236c-17,11 -34,22 -51,33 11,8 23,16 34,23 16,-11 33,-22 50,-33 -11,-8 -22,-15 -33,-23zm-510 187c5,4 10,7 15,10 26,9 53,17 79,25 26,9 53,17 79,26 -34,-24 -68,-48 -102,-71 42,-34 84,-67 126,-100 43,31 87,61 131,91 43,30 86,60 129,90 -71,54 -142,110 -212,168 -50,-16 -100,-31 -150,-47 -50,-15 -100,-30 -150,-44 -32,-22 -63,-43 -95,-64 -31,-21 -63,-42 -94,-63 90,-84 182,-165 275,-241 22,15 43,31 65,46 22,15 43,30 65,45 -54,42 -107,85 -161,129z" style="fill:#6e821e"/>
  </g>
  <g id="_1890968489072">
   <path class="BraceletBoxer-Mediumfil7" d="M9190 18907c578,-193 1924,1008 1565,1711 -84,165 -212,311 -372,404 -125,459 -116,1635 -1090,1071 -93,269 -274,526 -577,535 -761,22 -1775,-844 -1611,-1674 104,-523 758,-1373 1425,-1457 96,-242 357,-488 660,-590z" style="fill:#cb558b"/>
   <path class="BraceletBoxer-Mediumfil5" d="M8716 19775c980,109 1789,1145 1391,1449 -291,223 -341,-1000 -1391,-1449z" style="fill:#1dcfde"/>
   <path class="BraceletBoxer-Mediumfil8 BraceletBoxer-Mediumstr1" d="M9185 18887c578,-194 1929,1028 1570,1731 -84,165 -244,327 -403,420 -11,-651 -1211,-1653 -1882,-1505 97,-242 412,-545 715,-646z" style="fill:#951507"/>
   <path class="BraceletBoxer-Mediumfil6" d="M9336 20656c-95,-64 -191,-125 -289,-183 19,-15 38,-30 57,-45 19,-14 39,-28 58,-43 52,31 103,62 155,94 7,-5 14,-11 22,-16 -52,-32 -103,-63 -154,-94 19,-14 38,-28 58,-41 19,-14 39,-28 58,-42 51,30 101,61 151,93 23,-18 46,-35 68,-53 22,-18 43,-36 65,-55 42,28 83,56 125,84 -59,52 -121,103 -185,152 -64,50 -128,98 -189,149zm-396 -244c-90,-48 -181,-94 -274,-138 65,-49 133,-97 203,-144 71,-46 142,-92 211,-140 50,25 99,50 148,75 -39,29 -79,58 -120,86 -41,28 -83,56 -124,84 37,-14 74,-28 111,-42 37,-14 74,-28 111,-42 26,-19 52,-38 77,-57 49,27 97,54 145,81 -19,15 -38,30 -57,45 -19,15 -39,29 -58,43 -63,25 -126,50 -189,74 -62,24 -124,49 -184,75zm-195 -446c-14,9 -29,18 -43,27 64,27 128,55 191,84 -45,29 -91,59 -135,89 -43,29 -86,60 -127,91 -120,-52 -243,-100 -370,-145 20,-15 40,-30 60,-44 20,-14 42,-28 63,-42 65,24 130,49 195,74 11,-7 21,-14 33,-21 -64,-26 -128,-51 -194,-74 48,-30 96,-59 145,-88 48,-29 97,-58 145,-87 115,46 228,94 339,145 -18,12 -37,25 -55,38 -19,12 -38,24 -57,37 -63,-29 -126,-57 -190,-84zm-389 41c-23,15 -46,30 -68,45 -22,16 -44,31 -65,47 -83,-26 -167,-52 -254,-75 -89,-23 -180,-42 -272,-61 51,-10 103,-19 156,-29 52,-9 104,-18 157,-27 26,6 51,13 76,19 54,-32 110,-65 167,-96 56,-32 113,-63 170,-94 62,17 121,37 181,56 -54,32 -109,63 -164,95 -54,31 -107,63 -160,95 26,9 51,17 76,25z" style="fill:#7afbc9"/>
   <path class="BraceletBoxer-Mediumfil3" d="M9198 22114c32,-123 139,-483 210,-668 -4,191 -71,620 179,702 -84,4 -304,-39 -389,-34z" style="fill:#3ab784"/>
   <path class="BraceletBoxer-Mediumfil4 BraceletBoxer-Mediumstr0" d="M9190 18907c578,-193 1924,1008 1565,1711 -84,165 -212,311 -372,404 -125,459 -116,1635 -1090,1071 -93,269 -274,526 -577,535 -761,22 -1775,-844 -1611,-1674 104,-523 758,-1373 1425,-1457 96,-242 357,-488 660,-590z" style="fill:#699756"/>
   <path class="BraceletBoxer-Mediumfil1" d="M9403 21473c-41,435 453,676 651,502 2,298 -473,337 -724,127 23,-210 50,-420 73,-629z" style="fill:#df1c08"/>
   <path class="BraceletBoxer-Mediumfil4 BraceletBoxer-Mediumstr1" d="M9187 19672c-80,-175 -86,-270 -27,-358 114,-170 300,-319 457,-332" style="fill:#16971c"/>
   <path class="BraceletBoxer-Mediumfil1" d="M9564 18968c-367,-138 -760,114 -1064,534 207,-6 486,66 664,138 -90,-243 55,-443 400,-672z" style="fill:#20df44"/>
   <path class="BraceletBoxer-Mediumfil1" d="M9299 22096c-162,490 -544,531 -583,532 -761,22 -1775,-844 -1611,-1674 65,-326 364,-912 777,-1095 -695,964 395,2723 1417,2237z" style="fill:#cfbd5e"/>
  </g>
 </g><g id="Head-Cat4">
 <animateTransform additive="sum" attributeName="transform" dur="10" repeatCount="indefinite" type="translate" values="0;0 200;0;0 200;0;0 200;0;0 200;0"/>
  <path class="Head-Cat4fil143" d="M13682 7485c-3332,0 -6822,4262 -6118,7422 481,2162 3344,3030 6118,3030 2774,0 5637,-868 6118,-3030 704,-3160 -2786,-7422 -6118,-7422z" style="fill:#b3ade1"/>
  <path class="Head-Cat4fil144" d="M7483 13748c-27,396 -3,785 81,1159 481,2162 3344,3040 6118,3040 2774,0 5637,-878 6118,-3040 84,-374 107,-763 81,-1159 -4200,-458 -4396,-5308 -6199,-5308 -543,0 -940,439 -1344,1066 -939,1455 -1919,3922 -4855,4242z" style="fill:#da7078"/>
  <path class="Head-Cat4fil14" d="M8458 10922c-785,1275 -1176,2719 -894,3985 421,1891 2663,2792 5075,2988 -4046,-960 -5424,-2961 -4181,-6973z" style="fill:#b0fa9f"/>
  <path class="Head-Cat4fil32" d="M7917 11963c-177,545 -289,1096 -343,1569 -53,462 -37,918 60,1351 178,802 697,1428 1417,1903 661,435 2110,926 3201,1064 -1561,-30 -2776,-598 -3283,-930 -754,-491 -1330,-1151 -1518,-1995 -100,-451 -117,-932 -62,-1410 44,-384 295,-1267 528,-1552z" style="fill:#bc85ca"/>
  <path class="Head-Cat4fil32" d="M19447 11963c177,545 289,1096 343,1569 53,462 37,918 -60,1351 -178,802 -697,1428 -1417,1903 -661,435 -2111,926 -3201,1064 1561,-30 2775,-598 3283,-930 753,-491 1330,-1151 1518,-1995 100,-451 117,-932 62,-1410 -44,-384 -295,-1267 -528,-1552z" style="fill:#f09d8d"/>
  <path class="Head-Cat4fil32" d="M13682 7560c-408,0 -767,56 -1102,149 -949,262 -2036,899 -2715,1499 604,-730 1714,-1378 2675,-1644 348,-96 720,-154 1142,-154 421,0 794,58 1141,154 962,266 2072,914 2676,1644 -679,-600 -1766,-1237 -2715,-1499 -335,-93 -694,-149 -1102,-149z" style="fill:#e75aa9"/>
 </g><g id="Mouth-Cat10">
 <animateTransform additive="sum" attributeName="transform" dur="10" repeatCount="indefinite" type="translate" values="0;0 200;0;0 200;0;0 200;0;0 200;0"/>
  <path class="Mouth-Cat10fil22 Mouth-Cat10str0" d="M11425 15081c928,755 2257,-190 2257,-1157" style="fill:#1213f0"/>
  <path class="Mouth-Cat10fil100" d="M12374 15363c0,636 715,1121 1308,1121 593,0 1308,-485 1308,-1121 -452,-66 -1159,-487 -1308,-1204 -150,717 -856,1138 -1308,1204z" style="fill:#10d37f"/>
  <path class="Mouth-Cat10fil153" d="M12666 15352c31,231 226,360 290,341 51,-15 134,-252 132,-567 -112,112 -285,184 -422,226z" style="fill:#775ebb"/>
  <path class="Mouth-Cat10fil151" d="M13682 16385c-173,0 -366,-45 -494,-113 85,-284 425,-200 494,-150 68,-50 409,-134 494,150 -129,68 -322,113 -494,113z" style="fill:#8c6b8d"/>
  <path class="Mouth-Cat10fil154" d="M14698 15352c-31,231 -226,360 -290,341 -51,-15 -134,-252 -132,-567 112,112 285,184 422,226z" style="fill:#4fdb3c"/>
  <path class="Mouth-Cat10fil22 Mouth-Cat10str0" d="M15938 15081c-927,755 -2256,-190 -2256,-1157" style="fill:#dd3870"/>
 </g><g id="Eyes-Cat10">
 <animateTransform additive="sum" attributeName="transform" dur="10" repeatCount="indefinite" type="translate" values="0;0 200;0;0 200;0;0 200;0;0 200;0"/>
 <path class="Eyes-Cat10fil208" d="M9474 14538c980,621 2732,308 3018,-1604 49,-331 -2805,-1784 -3290,-1262 -929,1000 -583,2324 272,2866z"/>
  <path class="Eyes-Cat10fil209" d="M12411 12788c-304,-314 -1396,-892 -2237,-1126 -176,78 -320,207 -478,397 -614,737 -273,1782 187,2105 557,391 1353,295 1749,20 364,-253 754,-879 779,-1396z"/>
  <path class="Eyes-Cat10fil210" d="M11995 12477c-381,-238 -927,-508 -1441,-693 -529,193 -841,773 -708,1359 145,634 754,1036 1361,898 607,-138 983,-763 839,-1397 -13,-58 -30,-114 -51,-167z"/>
  <path class="Eyes-Cat10fil157" d="M12058 14051c209,-285 364,-654 434,-1117 49,-331 -2805,-1784 -3290,-1262 -377,406 -544,864 -553,1302 537,-522 1344,-805 1846,-725 898,143 1664,906 1563,1802z"/>
  <circle class="Eyes-Cat10fil152" r="235" transform="matrix(0.127023 2.18149 -1.98577 0.284037 10133.6 12592)"/>
  <path class="Eyes-Cat10fil22 Eyes-Cat10str4" d="M9474 14538c980,621 2732,308 3018,-1604 49,-331 -2805,-1784 -3290,-1262 -929,1000 -583,2324 272,2866z"/>
  <circle class="Eyes-Cat10fil152" r="235" transform="matrix(0.686977 0.523683 -0.42619 0.668712 9247.91 13923.8)"/>
  <circle class="Eyes-Cat10fil152" r="235" transform="matrix(0.252399 0.323889 -0.276862 0.255805 9013.96 13586.6)"/>
  <path class="Eyes-Cat10fil211" d="M17890 14538c-981,621 -2732,308 -3018,-1604 -49,-331 2805,-1784 3290,-1262 929,1000 583,2324 -272,2866z"/>
  <path class="Eyes-Cat10fil212" d="M14953 12788c304,-314 1396,-892 2237,-1126 176,78 320,207 478,397 614,737 273,1782 -187,2105 -557,391 -1353,295 -1750,20 -363,-253 -753,-879 -778,-1396z"/>
  <path class="Eyes-Cat10fil213" d="M15369 12477c381,-238 927,-508 1441,-693 529,193 841,773 707,1359 -144,634 -753,1036 -1360,898 -607,-138 -983,-763 -839,-1397 13,-58 30,-114 51,-167z"/>
  <path class="Eyes-Cat10fil157" d="M15306 14051c-209,-285 -364,-654 -434,-1117 -49,-331 2805,-1784 3290,-1262 377,406 544,864 552,1302 -536,-522 -1344,-805 -1845,-725 -898,143 -1664,906 -1563,1802z"/>
  <circle class="Eyes-Cat10fil152" r="235" transform="matrix(-0.127023 2.18149 1.98577 0.284037 17230.2 12592)"/>
  <path class="Eyes-Cat10fil22 Eyes-Cat10str4" d="M17890 14538c-981,621 -2732,308 -3018,-1604 -49,-331 2805,-1784 3290,-1262 929,1000 583,2324 -272,2866z"/>
  <circle class="Eyes-Cat10fil152" r="235" transform="matrix(-0.686977 0.523683 0.42619 0.668712 18116 13923.8)"/>
  <circle class="Eyes-Cat10fil152" r="235" transform="matrix(-0.252399 0.323889 0.276862 0.255805 18349.9 13586.6)"/>
  <path class="Eyes-Cat10fil155" d="M10650 10702c54,132 487,302 890,674 370,341 569,759 764,758 218,-1 303,-450 207,-710 -79,-214 -457,-588 -929,-766 -559,-211 -998,-115 -932,44z"/>
  <path class="Eyes-Cat10fil157" d="M10650 10702c54,132 487,302 890,674 370,341 569,759 764,758 218,-1 303,-450 207,-710 -79,-214 -457,-588 -929,-766 -559,-211 -998,-115 -932,44z"/>
  <path class="Eyes-Cat10fil155" d="M16714 10702c-54,132 -487,302 -890,674 -371,341 -569,759 -765,758 -217,-1 -302,-450 -206,-710 79,-214 457,-588 929,-766 559,-211 998,-115 932,44z"/>
  <path class="Eyes-Cat10fil157" d="M16714 10702c-54,132 -487,302 -890,674 -371,341 -569,759 -765,758 -217,-1 -302,-450 -206,-710 79,-214 457,-588 929,-766 559,-211 998,-115 932,44z"/>
 </g><g id="Moustache-Cat0">
 <animateTransform additive="sum" attributeName="transform" dur="10" repeatCount="indefinite" type="translate" values="0;0 200;0;0 200;0;0 200;0;0 200;0"/>
  <rect class="Moustache-Cat0fil22" height="1459" width="1352" x="13006" y="11962"/>
 </g><g id="Nose-Cat0">
 <animateTransform additive="sum" attributeName="transform" dur="10" repeatCount="indefinite" type="translate" values="0;0 200;0;0 200;0;0 200;0;0 200;0"/>
  <metadata id="CorelCorpID_107Corel-Layer"/>
  <path class="Nose-Cat0fil221 Nose-Cat0str0" d="M13682 13408c-194,0 -465,93 -444,231 19,127 197,330 444,330 247,0 425,-203 444,-330 21,-138 -250,-231 -444,-231z" style="fill:#48c841"/>
 </g><g id="Hair-Cat0">
 <animateTransform additive="sum" attributeName="transform" dur="10" repeatCount="indefinite" type="translate" values="0;0 200;0;0 200;0;0 200;0;0 200;0"/>
  <metadata id="CorelCorpID_108Corel-Layer"/>
  <rect class="Hair-Cat0fil22" height="890" width="890" x="13237" y="6590"/>
 </g><g id="NecklaceShipWheel">
  <metadata id="CorelCorpID_57Corel-Layer"/>
  <path class="NecklaceShipWheelfil371new NecklaceShipWheelstr0new" d="M13682 19054c-550,0 -1250,379 -1347,1130l-729 5632 2076 0 2076 0 -729 -5632c-97,-751 -798,-1130 -1347,-1130z" style="fill:#ab1317"/>
  <path class="NecklaceShipWheelfil14new" d="M14042 19617c639,268 940,1002 672,1640 -267,639 -1001,940 -1640,672 -638,-267 -939,-1001 -672,-1640 268,-638 1002,-939 1640,-672z" style="fill:#159d5f"/>
  <path class="NecklaceShipWheelfil14new" d="M12132 21754l-526 4062 2076 0 2076 0 -66 -509c-1400,227 -3532,285 -3560,-3553z" style="fill:#42d442"/>
  <g>
   <path class="NecklaceShipWheelfil372new" d="M11448 17890c63,-48 127,-97 190,-145 63,-48 127,-96 190,-145 -93,-477 -544,-1362 -856,-1124l-380 289c-312,238 421,908 856,1125z" style="fill:#25c4de"/>
   <path class="NecklaceShipWheelfil14new" d="M11448 17890c63,-48 127,-97 190,-145 59,-45 118,-90 177,-134 -429,68 -910,-176 -1277,-585 107,298 589,704 910,864z" style="fill:#8d001d"/>
   <path class="NecklaceShipWheelfil373new" d="M11755 17656l73 -56c-93,-477 -544,-1362 -856,-1124l-380 289c-84,64 -92,160 -51,269 8,-8 16,-16 26,-23l381 -290c274,-209 655,449 807,935z" style="fill:#984da8"/>
   <path class="NecklaceShipWheelfil33new NecklaceShipWheelstr0new" d="M11448 17890c63,-48 127,-97 190,-145 63,-48 127,-96 190,-145 -93,-477 -544,-1362 -856,-1124l-380 289c-312,238 421,908 856,1125z" style="fill:#7674a1"/>
   <polygon class="NecklaceShipWheelfil374 NecklaceShipWheelstr0new" points="11326,17924 11894,17492 12173,17859 11605,18291 "/>
   <path class="NecklaceShipWheelfil375new" d="M12166 18834c64,-48 127,-96 191,-145 63,-48 127,-96 190,-145 334,267 579,601 753,989 -64,48 -127,97 -191,145 -63,48 -127,97 -190,145 -328,-271 -585,-596 -753,-989z" style="fill:#23b70c"/>
   <path class="NecklaceShipWheelfil14new" d="M13147 19410l-163 124 -153 117 -58 10c-219,-184 -368,-500 -517,-738 302,363 496,575 891,487z" style="fill:#d5f02b"/>
   <path class="NecklaceShipWheelfil373new" d="M12415 18645l132 -101c334,267 579,601 753,989l-155 82c-170,-379 -408,-707 -730,-970z" style="fill:#0d2070"/>
   <path class="NecklaceShipWheelfil33new NecklaceShipWheelstr0new" d="M12166 18834c64,-48 127,-96 191,-145 63,-48 127,-96 190,-145 334,267 579,601 753,989 -64,48 -127,97 -191,145 -63,48 -127,97 -190,145 -328,-271 -585,-596 -753,-989z" style="fill:#68a9f0"/>
   <polygon class="NecklaceShipWheelfil376new NecklaceShipWheelstr0new" points="12161,19022 12729,18589 12450,18222 11882,18654 "/>
  </g>
  <g>
   <path class="NecklaceShipWheelfil377new" d="M10350 21103c-10,-79 -20,-158 -30,-237 -10,-79 -20,-158 -30,-237 -460,-158 -1452,-210 -1402,179l60 475c50,388 997,89 1402,-180z" style="fill:#6a7dff"/>
   <path class="NecklaceShipWheelfil14new" d="M10350 21103c-10,-79 -20,-158 -30,-237 -9,-73 -19,-147 -28,-220 -156,405 -607,700 -1144,813 311,57 904,-158 1202,-356z" style="fill:#0cc1e7"/>
   <path class="NecklaceShipWheelfil373new" d="M10301 20720l-11 -91c-460,-158 -1452,-210 -1402,179l60 475c14,104 92,159 208,178 -4,-11 -6,-23 -8,-35l-60 -474c-44,-342 716,-343 1213,-232z" style="fill:#dabedd"/>
   <path class="NecklaceShipWheelfil33new NecklaceShipWheelstr0new" d="M10350 21103c-10,-79 -20,-158 -30,-237 -10,-79 -20,-158 -30,-237 -460,-158 -1452,-210 -1402,179l60 475c50,388 997,89 1402,-180z" style="fill:#66c8b3"/>
   <polygon class="NecklaceShipWheelfil378new NecklaceShipWheelstr0new" points="10319,21226 10228,20518 10686,20460 10776,21168 "/>
   <path class="NecklaceShipWheelfil379new" d="M11527 20953c-10,-79 -20,-158 -30,-237 -10,-79 -20,-158 -30,-237 397,-156 809,-201 1232,-158 10,79 21,158 31,237 10,80 20,159 30,238 -399,148 -809,208 -1233,157z" style="fill:#7ea953"/>
   <path class="NecklaceShipWheelfil14new" d="M12516 20392l26 203 25 191 -20 55c-269,98 -617,69 -898,79 466,-80 746,-142 867,-528z" style="fill:#3f7d84"/>
   <path class="NecklaceShipWheelfil373new" d="M11488 20643l-21 -164c397,-156 809,-201 1232,-158l-6 175c-413,-42 -816,0 -1205,147z" style="fill:#357453"/>
   <path class="NecklaceShipWheelfil33new NecklaceShipWheelstr0new" d="M11527 20953c-10,-79 -20,-158 -30,-237 -10,-79 -20,-158 -30,-237 397,-156 809,-201 1232,-158 10,79 21,158 31,237 10,80 20,159 30,238 -399,148 -809,208 -1233,157z" style="fill:#8c856d"/>
   <polygon class="NecklaceShipWheelfil380new NecklaceShipWheelstr0new" points="11687,21051 11596,20343 11139,20402 11229,21110 "/>
  </g>
  <g>
   <path class="NecklaceShipWheelfil381new" d="M12585 23660c-74,-30 -147,-61 -221,-92 -74,-31 -147,-62 -221,-92 -366,319 -907,1152 -546,1303l442 185c361,151 575,-818 546,-1304z" style="fill:#0e1f92"/>
   <path class="NecklaceShipWheelfil14new" d="M12585 23660c-74,-30 -147,-61 -221,-92 -68,-29 -137,-57 -205,-86 273,338 303,876 133,1398 204,-241 315,-862 293,-1220z" style="fill:#5a3900"/>
   <path class="NecklaceShipWheelfil373new" d="M12228 23511l-85 -35c-366,319 -907,1152 -546,1303l442 185c97,41 184,0 258,-90 -11,-3 -22,-6 -34,-11l-441 -185c-317,-133 61,-792 406,-1167z" style="fill:#f9fffe"/>
   <path class="NecklaceShipWheelfil33new NecklaceShipWheelstr0new" d="M12585 23660c-74,-30 -147,-61 -221,-92 -74,-31 -147,-62 -221,-92 -366,319 -907,1152 -546,1303l442 185c361,151 575,-818 546,-1304z" style="fill:#39e2f4"/>
   <polygon class="NecklaceShipWheelfil382new NecklaceShipWheelstr0new" points="12675,23749 12017,23473 12195,23048 12853,23324 "/>
   <path class="NecklaceShipWheelfil383new" d="M13043 22566c-74,-31 -147,-62 -221,-92 -73,-31 -147,-62 -220,-93 63,-422 231,-801 480,-1146 73,31 147,62 220,92 74,31 147,62 221,93 -71,419 -224,804 -480,1146z" style="fill:#057153"/>
   <path class="NecklaceShipWheelfil14new" d="M13052 21429l188 79 178 74 38 45c-50,282 -249,569 -381,817 163,-444 250,-717 -23,-1015z" style="fill:#8f1314"/>
   <path class="NecklaceShipWheelfil373new" d="M12755 22445l-153 -64c64,-422 231,-801 480,-1146l148 93c-243,337 -408,707 -475,1117z" style="fill:#0f94f6"/>
   <path class="NecklaceShipWheelfil33new NecklaceShipWheelstr0new" d="M13043 22566c-74,-31 -147,-62 -221,-92 -73,-31 -147,-62 -220,-93 63,-422 231,-801 480,-1146 73,31 147,62 220,92 74,31 147,62 221,93 -71,419 -224,804 -480,1146z" style="fill:#c65c68"/>
   <polygon class="NecklaceShipWheelfil384new NecklaceShipWheelstr0new" points="13208,22477 12549,22201 12371,22627 13030,22902 "/>
  </g>
  <g>
   <path class="NecklaceShipWheelfil385new" d="M15916 23004c-63,48 -127,97 -190,145 -64,48 -127,96 -191,145 94,477 545,1362 857,1124l380 -289c312,-238 -421,-908 -856,-1125z" style="fill:#eaf3e7"/>
   <path class="NecklaceShipWheelfil14new" d="M15916 23004c-63,48 -127,97 -190,145 -59,45 -118,90 -177,134 429,-68 910,176 1277,585 -107,-298 -589,-704 -910,-864z" style="fill:#53add0"/>
   <path class="NecklaceShipWheelfil373new" d="M15609 23238l-74 56c94,477 545,1362 857,1124l380 -289c84,-64 92,-160 51,-269 -8,8 -16,16 -26,23l-381 290c-274,209 -655,-449 -807,-935z" style="fill:#d03c00"/>
   <path class="NecklaceShipWheelfil33new NecklaceShipWheelstr0new" d="M15916 23004c-63,48 -127,97 -190,145 -64,48 -127,96 -191,145 94,477 545,1362 857,1124l380 -289c312,-238 -421,-908 -856,-1125z" style="fill:#f43c76"/>
   <polygon class="NecklaceShipWheelfil386new NecklaceShipWheelstr0new" points="16038,22970 15470,23402 15191,23035 15759,22603 "/>
   <path class="NecklaceShipWheelfil387new" d="M15198 22060c-64,48 -127,97 -191,145 -63,48 -127,96 -190,145 -334,-267 -579,-601 -753,-989 64,-48 127,-97 191,-145 63,-48 127,-97 190,-145 328,271 585,596 753,989z" style="fill:#825048"/>
   <path class="NecklaceShipWheelfil14new" d="M14217 21484l163 -124 153 -117 58 -10c219,184 368,500 517,738 -303,-363 -496,-575 -891,-487z" style="fill:#a3c0f3"/>
   <path class="NecklaceShipWheelfil373new" d="M14949 22249l-132 101c-334,-267 -579,-601 -753,-989l155 -82c170,379 408,707 730,970z" style="fill:#652490"/>
   <path class="NecklaceShipWheelfil33new NecklaceShipWheelstr0new" d="M15198 22060c-64,48 -127,97 -191,145 -63,48 -127,96 -190,145 -334,-267 -579,-601 -753,-989 64,-48 127,-97 191,-145 63,-48 127,-97 190,-145 328,271 585,596 753,989z" style="fill:#7b56ca"/>
   <polygon class="NecklaceShipWheelfil388new NecklaceShipWheelstr0new" points="15203,21873 14635,22305 14914,22672 15482,22240 "/>
  </g>
  <g>
   <path class="NecklaceShipWheelfil389new" d="M17013 19791c11,79 21,158 31,237 10,79 20,158 30,237 460,158 1452,210 1402,-179l-60 -475c-50,-388 -997,-89 -1403,180z" style="fill:#f1543b"/>
   <path class="NecklaceShipWheelfil14new" d="M17013 19791c11,79 21,158 31,237 9,73 19,147 28,220 155,-405 607,-700 1144,-813 -311,-57 -904,158 -1203,356z" style="fill:#d2f226"/>
   <path class="NecklaceShipWheelfil373new" d="M17062 20174l12 91c460,158 1452,210 1402,-179l-60 -475c-14,-104 -92,-159 -208,-178 3,11 6,23 7,35l61 474c44,342 -717,343 -1214,232z" style="fill:#0f668b"/>
   <path class="NecklaceShipWheelfil33new NecklaceShipWheelstr0new" d="M17013 19791c11,79 21,158 31,237 10,79 20,158 30,237 460,158 1452,210 1402,-179l-60 -475c-50,-388 -997,-89 -1403,180z" style="fill:#d229a7"/>
   <polygon class="NecklaceShipWheelfil390new NecklaceShipWheelstr0new" points="17045,19668 17135,20376 16678,20434 16587,19726 "/>
   <path class="NecklaceShipWheelfil391new" d="M15837 19941c10,79 20,158 30,237 10,79 20,158 30,237 -397,156 -809,201 -1232,158 -11,-79 -21,-158 -31,-237 -10,-80 -20,-159 -30,-238 399,-148 808,-208 1233,-157z" style="fill:#c8b697"/>
   <path class="NecklaceShipWheelfil14new" d="M14847 20502l-25 -203 -25 -191 20 -55c269,-98 617,-69 898,-79 -466,81 -746,142 -868,528z" style="fill:#023291"/>
   <path class="NecklaceShipWheelfil373new" d="M15876 20251l21 164c-398,156 -809,201 -1232,158l6 -175c413,42 816,0 1205,-147z" style="fill:#b9d3ad"/>
   <path class="NecklaceShipWheelfil33new NecklaceShipWheelstr0new" d="M15837 19941c10,79 20,158 30,237 10,79 20,158 30,237 -397,156 -809,201 -1232,158 -11,-79 -21,-158 -31,-237 -10,-80 -20,-159 -30,-238 399,-148 808,-208 1233,-157z" style="fill:#4c7352"/>
   <polygon class="NecklaceShipWheelfil392new NecklaceShipWheelstr0new" points="15677,19843 15767,20551 16225,20492 16135,19784 "/>
  </g>
  <g>
   <path class="NecklaceShipWheelfil393new" d="M14779 17234c74,30 147,61 221,92 73,31 147,62 221,92 366,-319 907,-1152 546,-1303l-442 -185c-361,-151 -576,818 -546,1304z" style="fill:#4c49a0"/>
   <path class="NecklaceShipWheelfil14new" d="M14779 17234c74,30 147,61 221,92 68,29 136,57 205,86 -274,-338 -303,-876 -133,-1398 -204,241 -315,862 -293,1220z" style="fill:#bf9626"/>
   <path class="NecklaceShipWheelfil373new" d="M15135 17383l86 35c366,-319 907,-1152 546,-1303l-442 -185c-97,-41 -184,0 -258,90 11,3 22,6 34,11l441 185c317,133 -61,792 -407,1167z" style="fill:#3607b3"/>
   <path class="NecklaceShipWheelfil33new NecklaceShipWheelstr0new" d="M14779 17234c74,30 147,61 221,92 73,31 147,62 221,92 366,-319 907,-1152 546,-1303l-442 -185c-361,-151 -576,818 -546,1304z" style="fill:#b716b7"/>
   <polygon class="NecklaceShipWheelfil394new NecklaceShipWheelstr0new" points="14689,17145 15347,17421 15169,17846 14511,17570 "/>
   <path class="NecklaceShipWheelfil395new" d="M14321 18328c73,31 147,62 221,92 73,31 147,62 220,93 -64,422 -231,801 -480,1146 -73,-31 -147,-62 -220,-92 -74,-31 -148,-62 -221,-93 71,-419 224,-804 480,-1146z" style="fill:#1c4298"/>
   <path class="NecklaceShipWheelfil14new" d="M14312 19465l-188 -79 -178 -74 -38 -45c50,-282 249,-569 381,-817 -163,444 -250,717 23,1015z" style="fill:#8827f8"/>
   <path class="NecklaceShipWheelfil373new" d="M14609 18449l153 64c-64,422 -231,801 -480,1146l-148 -93c243,-337 408,-707 475,-1117z" style="fill:#9c8bcd"/>
   <path class="NecklaceShipWheelfil33new NecklaceShipWheelstr0new" d="M14321 18328c73,31 147,62 221,92 73,31 147,62 220,93 -64,422 -231,801 -480,1146 -73,-31 -147,-62 -220,-92 -74,-31 -148,-62 -221,-93 71,-419 224,-804 480,-1146z" style="fill:#a518ce"/>
   <polygon class="NecklaceShipWheelfil396new NecklaceShipWheelstr0new" points="14156,18417 14814,18693 14993,18267 14334,17992 "/>
  </g>
  <path class="NecklaceShipWheelfil397new NecklaceShipWheelstr0new" d="M14906 17507c1615,676 2376,2533 1700,4148 -677,1615 -2534,2375 -4148,1699 -1615,-676 -2376,-2533 -1700,-4148 676,-1615 2534,-2376 4148,-1699zm-329 787c1179,494 1735,1851 1241,3031 -494,1180 -1851,1736 -3031,1242 -1180,-494 -1735,-1851 -1241,-3031 494,-1180 1851,-1736 3031,-1242z" style="fill:#bb0776"/>
  <path class="NecklaceShipWheelfil398new NecklaceShipWheelstr0new" d="M14134 19352c595,249 876,934 627,1530 -250,596 -935,877 -1531,627 -595,-249 -876,-935 -627,-1530 250,-596 935,-877 1531,-627z" style="fill:#602539"/>
  <path class="NecklaceShipWheelfil399new" d="M14134 19352c595,249 876,934 627,1530 -38,91 -86,174 -142,249 4,-10 8,-19 12,-29 250,-595 -31,-1281 -627,-1530 -505,-212 -1075,-42 -1388,378 259,-576 932,-844 1518,-598z" style="fill:#611682"/>
  <circle class="NecklaceShipWheelfil33new NecklaceShipWheelstr6new" r="1167" transform="matrix(0.924318 0.38709 -0.38709 0.924318 13681.9 20430.5)"/>
  <path class="NecklaceShipWheelfil373new" d="M14816 17722c747,313 1298,900 1583,1595 284,696 304,1500 -9,2247 -313,748 -900,1298 -1595,1583 -696,285 -1499,305 -2247,-8 -748,-313 -1298,-900 -1583,-1595 -285,-696 -304,-1500 9,-2247 313,-748 899,-1298 1595,-1583 695,-285 1499,-305 2247,8zm1214 1747c-246,-601 -722,-1108 -1368,-1378 -646,-271 -1341,-254 -1942,-8 -600,246 -1107,721 -1378,1367 -271,647 -254,1342 -8,1942 246,601 721,1108 1367,1378 647,271 1342,254 1943,8 600,-246 1107,-721 1378,-1367 270,-647 254,-1342 8,-1942z" style="fill:#d9052b"/>
  <path class="NecklaceShipWheelfil373new" d="M14816 17722c747,313 1298,900 1583,1595 284,696 304,1500 -9,2247 -103,248 -237,474 -395,676 112,-164 210,-341 290,-532 313,-747 293,-1551 8,-2246 -285,-696 -835,-1283 -1583,-1596 -747,-313 -1551,-293 -2247,-8 -465,191 -881,500 -1200,907 330,-479 788,-839 1306,-1051 695,-285 1499,-305 2247,8zm-3231 1279c-94,139 -176,289 -243,449 -271,647 -254,1342 -8,1942 246,601 721,1108 1367,1378 647,271 1342,254 1943,8 398,-163 755,-427 1029,-774 -285,419 -684,733 -1135,918 -601,246 -1295,263 -1942,-8 -646,-270 -1122,-777 -1368,-1378 -246,-600 -262,-1295 9,-1942 91,-218 209,-416 348,-593z" style="fill:#269aa9"/>
 </g></svg>