<svg xmlns="http://www.w3.org/2000/svg" xmlns:xlink="http://www.w3.org/1999/xlink" style="shape-rendering:geometricPrecision; text-rendering:geometricPrecision; image-rendering:optimizeQuality; fill-rule:evenodd; clip-rule:evenodd" version="1.1" viewBox="0 0 29000 29000" xml:space="preserve"><defs><style type="text/css">.HairBack-Dog1fil14 {fill:black;fill-opacity:0.200000}
.HairBack-Dog1fil229 {fill:url(#HairBack-Dog1id894)}
.HairBack-Dog1str0 {stroke:black;stroke-width:150;stroke-linecap:round;stroke-linejoin:round}
.HairBack-Dog1fil230 {fill:url(#HairBack-Dog1id895)}
.Tail-Dog3fil236 {fill:url(#Tail-Dog3id156)}
.Tail-Dog3fil14 {fill:black;fill-opacity:0.200000}
.Tail-Dog3fil237 {fill:url(#Tail-Dog3id94)}
.Tail-Dog3fil26 {fill:#efe9e1}
.Tail-Dog3fil22 {fill:none}
.Tail-Dog3str0 {stroke:black;stroke-width:150;stroke-linecap:round;stroke-linejoin:round}
.RightFoot-Dog2fil241 {fill:url(#RightFoot-Dog2id626)}
.RightFoot-Dog2fil14 {fill:black;fill-opacity:0.200000}
.RightFoot-Dog2fil22 {fill:none}
.RightFoot-Dog2fil32 {fill:black;fill-rule:nonzero}
.RightLeg-Dog0fil243 {fill:url(#RightLeg-Dog0id281)}
.RightLeg-Dog0fil32 {fill:black;fill-rule:nonzero}
.RightLeg-Dog0fil14 {fill:black;fill-opacity:0.200000}
.LeftFoot-Dog2fil247 {fill:url(#LeftFoot-Dog2id635)}
.LeftFoot-Dog2fil14 {fill:black;fill-opacity:0.200000}
.LeftFoot-Dog2fil22 {fill:none}
.LeftFoot-Dog2fil32 {fill:black;fill-rule:nonzero}
.LeftLeg-Dog0fil249 {fill:url(#LeftLeg-Dog0id285)}
.LeftLeg-Dog0fil32 {fill:black;fill-rule:nonzero}
.LeftLeg-Dog0fil14 {fill:black;fill-opacity:0.200000}
.RightHand-Dog4fil256 {fill:url(#RightHand-Dog4id168)}
.RightHand-Dog4fil257 {fill:url(#RightHand-Dog4id22)}
.RightHand-Dog4fil14 {fill:black;fill-opacity:0.200000}
.RightHand-Dog4fil22 {fill:none}
.RightHand-Dog4str0 {stroke:black;stroke-width:150;stroke-linecap:round;stroke-linejoin:round}
.RightPaw-Dog1fil26 {fill:#efe9e1}
.RightPaw-Dog1fil14 {fill:black;fill-opacity:0.200000}
.RightPaw-Dog1fil32 {fill:black;fill-rule:nonzero}
.LeftHand-Dog4fil262 {fill:url(#LeftHand-Dog4id426)}
.LeftHand-Dog4fil57 {fill:url(#LeftHand-Dog4id5)}
.LeftHand-Dog4fil14 {fill:black;fill-opacity:0.200000}
.LeftHand-Dog4fil22 {fill:none}
.LeftHand-Dog4str0 {stroke:black;stroke-width:150;stroke-linecap:round;stroke-linejoin:round}
.LeftPaw-Dog1fil26 {fill:#efe9e1}
.LeftPaw-Dog1fil14 {fill:black;fill-opacity:0.200000}
.LeftPaw-Dog1fil32 {fill:black;fill-rule:nonzero}
.Body-Dog2fil267 {fill:url(#Body-Dog2id28)}
.Body-Dog2fil14 {fill:black;fill-opacity:0.200000}
.Body-Dog2fil32 {fill:black;fill-rule:nonzero}
.Body-Dog2fil270 {fill:url(#Body-Dog2id279)}
.Ears-Dog3fil287 {fill:url(#Ears-Dog3id335)}
.Ears-Dog3fil288 {fill:url(#Ears-Dog3id146)}
.Ears-Dog3fil14 {fill:black;fill-opacity:0.200000}
.Ears-Dog3fil291 {fill:url(#Ears-Dog3id80)}
.Ears-Dog3fil292 {fill:url(#Ears-Dog3id286)}
.Ears-Dog3fil286 {fill:url(#Ears-Dog3id131)}
.Ears-Dog3str4 {stroke:black;stroke-width:150}
.Ears-Dog3fil289 {fill:url(#Ears-Dog3id433)}
.Ears-Dog3str0 {stroke:black;stroke-width:150;stroke-linecap:round;stroke-linejoin:round}
.Ears-Dog3fil290 {fill:url(#Ears-Dog3id425)}
.Ears-Dog3fil293 {fill:url(#Ears-Dog3id505)}
.Head-Dog5fil330 {fill:url(#Head-Dog5id327)}
.Head-Dog5fil14 {fill:black;fill-opacity:0.200000}
.Head-Dog5fil339 {fill:url(#Head-Dog5id685)}
.Head-Dog5fil32 {fill:black;fill-rule:nonzero}
.Mouth-Dog3fil100 {fill:black}
.Mouth-Dog3fil22 {fill:none}
.Mouth-Dog3str0 {stroke:black;stroke-width:150;stroke-linecap:round;stroke-linejoin:round}
.Mouth-Dog3fil151 {fill:#FF9999}
.Mouth-Dog3fil152 {fill:white}
.Eyes-Dog4fil362 {fill:url(#Eyes-Dog4id1007)}
.Eyes-Dog4fil363 {fill:url(#Eyes-Dog4id571)}
.Eyes-Dog4fil364 {fill:url(#Eyes-Dog4id747)}
.Eyes-Dog4fil157 {fill:black;fill-opacity:0.501961}
.Eyes-Dog4fil152 {fill:white}
.Eyes-Dog4fil365 {fill:url(#Eyes-Dog4id1006)}
.Eyes-Dog4fil366 {fill:url(#Eyes-Dog4id570)}
.Eyes-Dog4fil367 {fill:url(#Eyes-Dog4id729)}
.Eyes-Dog4fil155 {fill:#a87468}
.Eyes-Dog4fil14 {fill:black;fill-opacity:0.200000}
.Eyes-Dog4fil22 {fill:none}
.Eyes-Dog4str4 {stroke:black;stroke-width:150}
.Moustache-Dog0fil22 {fill:none}
.Nose-Dog0fil416 {fill:url(#Nose-Dog0id907)}
.Nose-Dog0str0 {stroke:black;stroke-width:150;stroke-linecap:round;stroke-linejoin:round}
.Hair-Dog4fil14 {fill:black;fill-opacity:0.200000}
.Hair-Dog4fil420 {fill:url(#Hair-Dog4id987)}
.Hair-Dog4str0 {stroke:black;stroke-width:150;stroke-linecap:round;stroke-linejoin:round}
.NecklaceTornShirtGreen-Mediumfil7 {fill:url(#NecklaceTornShirtGreen-Mediumid0)}
.NecklaceTornShirtGreen-Mediumfil2 {fill:black;fill-opacity:0.301961}
.NecklaceTornShirtGreen-Mediumfil3 {fill:black}
.NecklaceTornShirtGreen-Mediumfil4 {fill:black;fill-opacity:0.501961}
.NecklaceTornShirtGreen-Mediumfil1 {fill:none}
.NecklaceTornShirtGreen-Mediumfil5 {fill:black;fill-rule:nonzero}
.NecklaceTornShirtGreen-Mediumfil6 {fill:black;fill-opacity:0.400000}
.NecklaceTornShirtGreen-Mediumstr1 {stroke:black;stroke-width:150;stroke-linecap:round;stroke-linejoin:round}
</style><linearGradient gradientUnits="userSpaceOnUse" id="HairBack-Dog1id894" x1="8366.73" x2="11650.5" xlink:href="#HairBack-Dog1id87" y1="16700" y2="21125.7">
  </linearGradient><linearGradient gradientUnits="userSpaceOnUse" id="HairBack-Dog1id895" x1="18771.8" x2="15488" xlink:href="#HairBack-Dog1id87" y1="16700" y2="21125.7">
  </linearGradient><linearGradient gradientUnits="userSpaceOnUse" id="Tail-Dog3id156" x1="15669.8" x2="18898.8" xlink:href="#Tail-Dog3id74" y1="24611.2" y2="17643.3">
  </linearGradient><linearGradient gradientUnits="userSpaceOnUse" id="Tail-Dog3id94" x1="15654.7" x2="19260.5" xlink:href="#Tail-Dog3id5" y1="23542.9" y2="18468.1">
  </linearGradient><linearGradient gradientUnits="userSpaceOnUse" id="RightFoot-Dog2id626" x1="16691.1" x2="16037.9" y1="25524" y2="23422.2">
   <stop offset="0" style="stop-opacity:1; stop-color:#c7aca1"/>
   <stop offset="0.619608" style="stop-opacity:1; stop-color:#ffffff"/>
   <stop offset="1" style="stop-opacity:1; stop-color:#ffffff"/>
  </linearGradient><linearGradient gradientUnits="userSpaceOnUse" id="RightLeg-Dog0id281" x1="15476.3" x2="15476.3" xlink:href="#RightLeg-Dog0id19" y1="24199" y2="20934.6">
  </linearGradient><linearGradient gradientUnits="userSpaceOnUse" id="LeftFoot-Dog2id635" x1="10586.2" x2="11300.1" xlink:href="#LeftFoot-Dog2id626" y1="25486.1" y2="23460.1">
  </linearGradient><linearGradient gradientUnits="objectBoundingBox" id="LeftLeg-Dog0id285" x1="50%" x2="50%" xlink:href="#LeftLeg-Dog0id19" y1="100%" y2="0%">
  </linearGradient><linearGradient gradientUnits="objectBoundingBox" id="RightHand-Dog4id168" x1="19.8228%" x2="80.1772%" y1="10.3299%" y2="89.6698%">
   <stop offset="0" style="stop-opacity:1; stop-color:#c7aca1"/>
   <stop offset="0.0196078" style="stop-opacity:1; stop-color:#c7aca1"/>
   <stop offset="0.721569" style="stop-opacity:1; stop-color:#edd6cc"/>
   <stop offset="1" style="stop-opacity:1; stop-color:#edd6cc"/>
  </linearGradient><linearGradient gradientUnits="userSpaceOnUse" id="RightHand-Dog4id22" x1="16885.8" x2="16885.8" xlink:href="#RightHand-Dog4id5" y1="17625.4" y2="19553.4">
  </linearGradient><linearGradient gradientUnits="objectBoundingBox" id="LeftHand-Dog4id426" x1="80.1772%" x2="19.8228%" xlink:href="#LeftHand-Dog4id168" y1="10.3299%" y2="89.6698%">
  </linearGradient><linearGradient gradientUnits="objectBoundingBox" id="LeftHand-Dog4id5" x1="50%" x2="50%" y1="0%" y2="100%">
   <stop offset="0" style="stop-opacity:1; stop-color:#a87468"/>
   <stop offset="1" style="stop-opacity:1; stop-color:#cf9f95"/>
  </linearGradient><linearGradient gradientUnits="objectBoundingBox" id="Body-Dog2id28" x1="50%" x2="50%" y1="0%" y2="100%">
   <stop offset="0" style="stop-opacity:1; stop-color:#c7aca1"/>
   <stop offset="0.101961" style="stop-opacity:1; stop-color:#c7aca1"/>
   <stop offset="0.521569" style="stop-opacity:1; stop-color:#edd6cc"/>
   <stop offset="1" style="stop-opacity:1; stop-color:#ffffff"/>
  </linearGradient><linearGradient gradientUnits="userSpaceOnUse" id="Body-Dog2id279" x1="13696.6" x2="13696.6" y1="17098.5" y2="22390.1">
   <stop offset="0" style="stop-opacity:1; stop-color:#e3d8ca"/>
   <stop offset="0.14902" style="stop-opacity:1; stop-color:#e3d8ca"/>
   <stop offset="0.619608" style="stop-opacity:1; stop-color:#efe9e1"/>
   <stop offset="1" style="stop-opacity:1; stop-color:#efe9e1"/>
  </linearGradient><linearGradient gradientUnits="userSpaceOnUse" id="Ears-Dog3id335" x1="10525" x2="8537.71" xlink:href="#Ears-Dog3id68" y1="10905.5" y2="7769.95">
  </linearGradient><linearGradient gradientUnits="userSpaceOnUse" id="Ears-Dog3id146" x1="8677.87" x2="10505.7" y1="8188.75" y2="10114.1">
   <stop offset="0" style="stop-opacity:1; stop-color:#C38380"/>
   <stop offset="1" style="stop-opacity:1; stop-color:#804444"/>
  </linearGradient><linearGradient gradientUnits="userSpaceOnUse" id="Ears-Dog3id80" x1="16837.8" x2="18827.1" xlink:href="#Ears-Dog3id68" y1="10905.1" y2="7770.39">
  </linearGradient><linearGradient gradientUnits="userSpaceOnUse" id="Ears-Dog3id286" x1="18685.8" x2="16858.3" xlink:href="#Ears-Dog3id146" y1="8188.54" y2="10114.3">
  </linearGradient><linearGradient gradientUnits="userSpaceOnUse" id="Ears-Dog3id131" x1="10308.3" x2="8645.13" xlink:href="#Ears-Dog3id18" y1="11798.7" y2="7302.14">
  </linearGradient><linearGradient gradientUnits="userSpaceOnUse" id="Ears-Dog3id433" x1="9799.1" x2="7811.82" xlink:href="#Ears-Dog3id18" y1="6582.36" y2="8797.68">
  </linearGradient><linearGradient gradientUnits="userSpaceOnUse" id="Ears-Dog3id425" x1="17055.5" x2="18718.8" xlink:href="#Ears-Dog3id18" y1="11798.7" y2="7302.15">
  </linearGradient><linearGradient gradientUnits="userSpaceOnUse" id="Ears-Dog3id505" x1="17564.6" x2="19552.2" xlink:href="#Ears-Dog3id18" y1="6582.42" y2="8797.62">
  </linearGradient><linearGradient gradientUnits="objectBoundingBox" id="Head-Dog5id327" x1="50%" x2="50%" xlink:href="#Head-Dog5id35" y1="99.9999%" y2="0%">
  </linearGradient><linearGradient gradientUnits="userSpaceOnUse" id="Head-Dog5id685" x1="13681.9" x2="13681.9" xlink:href="#Head-Dog5id132" y1="17576.7" y2="13412.6">
  </linearGradient><linearGradient gradientUnits="userSpaceOnUse" id="Eyes-Dog4id1007" x1="10811.7" x2="9983.18" xlink:href="#Eyes-Dog4id27" y1="14906.9" y2="11436.8">
  </linearGradient><linearGradient gradientUnits="userSpaceOnUse" id="Eyes-Dog4id571" x1="9121.91" x2="11966.9" xlink:href="#Eyes-Dog4id57" y1="13105.6" y2="13105.6">
  </linearGradient><linearGradient gradientUnits="userSpaceOnUse" id="Eyes-Dog4id747" x1="10335.5" x2="10965.1" xlink:href="#Eyes-Dog4id384" y1="11450.6" y2="14115.9">
  </linearGradient><linearGradient gradientUnits="userSpaceOnUse" id="Eyes-Dog4id1006" x1="16552.2" x2="17380.7" xlink:href="#Eyes-Dog4id27" y1="14906.9" y2="11436.8">
  </linearGradient><linearGradient gradientUnits="userSpaceOnUse" id="Eyes-Dog4id570" x1="15397" x2="18242" xlink:href="#Eyes-Dog4id57" y1="13105.6" y2="13105.6">
  </linearGradient><linearGradient gradientUnits="userSpaceOnUse" id="Eyes-Dog4id729" x1="16398.8" x2="17028.4" xlink:href="#Eyes-Dog4id384" y1="11450.6" y2="14115.9">
  </linearGradient><linearGradient gradientUnits="userSpaceOnUse" id="Nose-Dog0id907" x1="13681.9" x2="13681.9" xlink:href="#Nose-Dog0id451" y1="14020.2" y2="14838.5">
  </linearGradient><linearGradient gradientUnits="userSpaceOnUse" id="Hair-Dog4id987" x1="13680" x2="14179.5" xlink:href="#Hair-Dog4id49" y1="10949.3" y2="6079.92">
  </linearGradient><linearGradient gradientUnits="userSpaceOnUse" id="NecklaceTornShirtGreen-Mediumid0" x1="13681.9" x2="13681.9" y1="22800.8" y2="17350.8">
   <stop offset="0" style="stop-opacity:1; stop-color:#393C2B"/>
   <stop offset="1" style="stop-opacity:1; stop-color:#796F39"/>
  </linearGradient><linearGradient gradientUnits="userSpaceOnUse" id="HairBack-Dog1id87" x1="16230.4" x2="13904.5" y1="16152.6" y2="14931.5">
   <stop offset="0" style="stop-opacity:1; stop-color:#fffffd"/>
   <stop offset="1" style="stop-opacity:1; stop-color:#e6e6cc"/>
  </linearGradient><linearGradient gradientUnits="userSpaceOnUse" id="Tail-Dog3id74" x1="15961" x2="18418.2" y1="23174.1" y2="17871.9">
   <stop offset="0" style="stop-opacity:1; stop-color:#c7aca1"/>
   <stop offset="1" style="stop-opacity:1; stop-color:#edd6cc"/>
  </linearGradient><linearGradient gradientUnits="objectBoundingBox" id="Tail-Dog3id5" x1="50%" x2="50%" y1="0%" y2="100%">
   <stop offset="0" style="stop-opacity:1; stop-color:#a87468"/>
   <stop offset="1" style="stop-opacity:1; stop-color:#cf9f95"/>
  </linearGradient><linearGradient gradientUnits="userSpaceOnUse" id="RightLeg-Dog0id19" x1="15490.3" x2="15490.3" y1="24284.1" y2="21188.2">
   <stop offset="0" style="stop-opacity:1; stop-color:#ffffff"/>
   <stop offset="0.439216" style="stop-opacity:1; stop-color:#ffffff"/>
   <stop offset="1" style="stop-opacity:1; stop-color:#edd6cc"/>
  </linearGradient><linearGradient gradientUnits="userSpaceOnUse" id="LeftFoot-Dog2id626" x1="16691.1" x2="16037.9" y1="25524" y2="23422.2">
   <stop offset="0" style="stop-opacity:1; stop-color:#c7aca1"/>
   <stop offset="0.619608" style="stop-opacity:1; stop-color:#ffffff"/>
   <stop offset="1" style="stop-opacity:1; stop-color:#ffffff"/>
  </linearGradient><linearGradient gradientUnits="userSpaceOnUse" id="LeftLeg-Dog0id19" x1="15490.3" x2="15490.3" y1="24284.1" y2="21188.2">
   <stop offset="0" style="stop-opacity:1; stop-color:#ffffff"/>
   <stop offset="0.439216" style="stop-opacity:1; stop-color:#ffffff"/>
   <stop offset="1" style="stop-opacity:1; stop-color:#edd6cc"/>
  </linearGradient><linearGradient gradientUnits="objectBoundingBox" id="RightHand-Dog4id5" x1="50%" x2="50%" y1="0%" y2="100%">
   <stop offset="0" style="stop-opacity:1; stop-color:#a87468"/>
   <stop offset="1" style="stop-opacity:1; stop-color:#cf9f95"/>
  </linearGradient><linearGradient gradientUnits="objectBoundingBox" id="LeftHand-Dog4id168" x1="19.8228%" x2="80.1772%" y1="10.3299%" y2="89.6698%">
   <stop offset="0" style="stop-opacity:1; stop-color:#c7aca1"/>
   <stop offset="0.0196078" style="stop-opacity:1; stop-color:#c7aca1"/>
   <stop offset="0.721569" style="stop-opacity:1; stop-color:#edd6cc"/>
   <stop offset="1" style="stop-opacity:1; stop-color:#edd6cc"/>
  </linearGradient><linearGradient gradientUnits="userSpaceOnUse" id="Ears-Dog3id68" x1="16838.1" x2="19330.2" y1="11553.4" y2="8766.17">
   <stop offset="0" style="stop-opacity:1; stop-color:#965759"/>
   <stop offset="1" style="stop-opacity:1; stop-color:#C49D9D"/>
  </linearGradient><linearGradient gradientUnits="userSpaceOnUse" id="Ears-Dog3id18" x1="10235.1" x2="10235.1" y1="19681.2" y2="17649.5">
   <stop offset="0" style="stop-opacity:1; stop-color:#cf9f95"/>
   <stop offset="1" style="stop-opacity:1; stop-color:#a87468"/>
  </linearGradient><linearGradient gradientUnits="userSpaceOnUse" id="Head-Dog5id35" x1="13681.9" x2="13681.9" y1="17936.7" y2="7484.8">
   <stop offset="0" style="stop-opacity:1; stop-color:#c7aca1"/>
   <stop offset="0.4" style="stop-opacity:1; stop-color:#edd6cc"/>
   <stop offset="1" style="stop-opacity:1; stop-color:#ffffff"/>
  </linearGradient><linearGradient gradientUnits="userSpaceOnUse" id="Head-Dog5id132" x1="13664.7" x2="13664.7" y1="17953.2" y2="22866.3">
   <stop offset="0" style="stop-opacity:1; stop-color:#e3d8ca"/>
   <stop offset="0.341176" style="stop-opacity:1; stop-color:#efe9e1"/>
   <stop offset="1" style="stop-opacity:1; stop-color:#efe9e1"/>
  </linearGradient><linearGradient gradientUnits="userSpaceOnUse" id="Eyes-Dog4id27" x1="16937.6" x2="16937.6" y1="14961.3" y2="11448.6">
   <stop offset="0" style="stop-opacity:1; stop-color:#806000"/>
   <stop offset="1" style="stop-opacity:1; stop-color:black"/>
  </linearGradient><linearGradient gradientUnits="objectBoundingBox" id="Eyes-Dog4id57" x1="100%" x2="0%" y1="50.0003%" y2="50.0003%">
   <stop offset="0" style="stop-opacity:1; stop-color:#806000"/>
   <stop offset="0.501961" style="stop-opacity:1; stop-color:#ffc419"/>
   <stop offset="1" style="stop-opacity:1; stop-color:#806000"/>
  </linearGradient><linearGradient gradientUnits="userSpaceOnUse" id="Eyes-Dog4id384" x1="16417.8" x2="16417.8" y1="11784.3" y2="14068.5">
   <stop offset="0" style="stop-opacity:1; stop-color:black"/>
   <stop offset="0.45" style="stop-opacity:1; stop-color:black"/>
   <stop offset="1" style="stop-opacity:1; stop-color:#664c00"/>
  </linearGradient><linearGradient gradientUnits="userSpaceOnUse" id="Nose-Dog0id451" x1="13653.8" x2="13653.8" y1="14108.6" y2="14926.9">
   <stop offset="0" style="stop-opacity:1; stop-color:#FFCCCC"/>
   <stop offset="1" style="stop-opacity:1; stop-color:#453F2C"/>
  </linearGradient><linearGradient gradientUnits="userSpaceOnUse" id="Hair-Dog4id49" x1="13715.8" x2="13715.8" y1="6802.99" y2="8218.57">
   <stop offset="0" style="stop-opacity:1; stop-color:#e6e6cc"/>
   <stop offset="1" style="stop-opacity:1; stop-color:#fffffd"/>
  </linearGradient></defs><g id="HairBack-Dog1">
 <animateTransform additive="sum" attributeName="transform" dur="10" repeatCount="indefinite" type="translate" values="0;0 200;0;0 200;0;0 200;0;0 200;0"/>
  <metadata id="CorelCorpID_116Corel-Layer"/>
  <path class="HairBack-Dog1fil229 HairBack-Dog1str0" d="M12285 14916c-452,-984 -2423,-1284 -3774,-317 -598,428 -1194,1379 -406,2658 613,996 -896,1515 -69,2434 571,635 478,1096 126,1772 -309,593 -63,1363 915,1533 -328,-540 -266,-1119 33,-1491 301,-373 479,-900 470,-1417 250,357 383,975 -30,1623 -517,811 756,1221 214,2107 1343,-138 596,-1769 850,-2213 416,-726 819,-599 904,-1232 133,-991 -669,-2454 773,-3254 -280,-465 -213,-1821 -6,-2203z" style="fill:#0a1ce1"/>
  <path class="HairBack-Dog1fil14" d="M10486 22772c587,-689 1668,-841 1957,-1288 544,-840 -2232,-3451 -791,-4251 -264,-439 -197,-972 -15,-1352 -1686,-273 -3401,-123 -2877,599 808,1116 541,1624 407,1974 -513,1343 731,1166 992,1814 450,1118 -660,1503 327,2504z" style="fill:#68205f"/>
  <path class="HairBack-Dog1fil230 HairBack-Dog1str0" d="M14854 14916c452,-984 2422,-1284 3773,-317 599,428 1195,1379 407,2658 -613,996 896,1515 68,2434 -570,635 -477,1096 -125,1772 309,593 62,1363 -915,1533 328,-540 266,-1119 -34,-1491 -300,-373 -478,-900 -470,-1417 -249,357 -382,975 31,1623 517,811 -756,1221 -214,2107 -1343,-138 -596,-1769 -851,-2213 -415,-726 -818,-599 -903,-1232 -133,-991 668,-2454 -773,-3254 280,-465 213,-1821 6,-2203z" style="fill:#4e77d9"/>
  <path class="HairBack-Dog1fil14" d="M16652 22772c-587,-689 -1667,-841 -1957,-1288 -543,-840 2233,-3451 791,-4251 265,-439 198,-972 15,-1352 1687,-273 3401,-123 2878,599 -809,1116 -542,1624 -408,1974 513,1343 -730,1166 -991,1814 -451,1118 659,1503 -328,2504z" style="fill:#5e4c4d"/>
 </g><g id="Tail-Dog3">
  <metadata id="CorelCorpID_121Corel-Layer"/>
  <path class="Tail-Dog3fil236" d="M14650 21706c2812,243 4776,-1109 4450,-3682 -194,-796 1800,-377 2195,1294 310,-113 383,-634 452,156 74,861 -56,2508 -1209,3254 310,159 990,-257 636,271 -84,125 -308,383 -609,601 -674,489 -1496,721 -3130,971 -2264,347 -4303,-1232 -4630,-2180l1845 -685z" style="fill:#84e0ff"/>
  <path class="Tail-Dog3fil14" d="M20941 23299c-94,87 -218,187 -376,301 -674,489 -1496,721 -3130,971 -2194,336 -4177,-1137 -4595,-2091 2280,1705 5210,2057 8101,819z" style="fill:#4574cb"/>
  <path class="Tail-Dog3fil237" d="M14650 21706c2517,217 4354,-843 4479,-2912 46,-775 1023,-211 1245,125 316,477 500,1309 350,1579 259,51 586,-506 531,-21 -118,1027 -555,1908 -1774,2266 99,255 1025,126 454,414 -470,241 -2114,552 -3369,417 -1289,-139 -2300,-639 -2912,-1498l996 -370z" style="fill:#fa96de"/>
  <path class="Tail-Dog3fil26" d="M18991 19563c140,-449 182,-963 109,-1539 -53,-216 53,-379 252,-379 980,-1 1229,1456 1346,2036 -128,-512 -1181,-992 -1707,-117l0 -1z" style="fill:#3b0054"/>
  <path class="Tail-Dog3fil22 Tail-Dog3str0" d="M14650 21706c2812,243 4776,-1109 4450,-3682 -194,-796 1800,-377 2195,1294 310,-113 383,-634 452,156 74,861 -56,2508 -1209,3254 310,159 990,-257 636,271 -84,125 -308,383 -609,601 -674,489 -1496,721 -3130,971 -2264,347 -4303,-1232 -4630,-2180l1845 -685z" style="fill:#5845ba"/>
 </g><g id="RightFoot-Dog2">
  <metadata id="CorelCorpID_126Corel-Layer"/>
  <path class="RightFoot-Dog2fil241" d="M17461 25232c-144,249 -469,331 -709,123 -82,82 -321,169 -611,76 -475,-152 -678,-627 -1088,-897 -209,-138 -43,-480 -31,-702 205,68 639,20 960,-216 332,-245 1043,-199 820,325 153,50 376,135 488,193 178,92 308,217 397,350 166,246 124,748 -226,748z" style="fill:#5f9937"/>
  <path class="RightFoot-Dog2fil14" d="M17461 25232c-144,249 -469,331 -709,123 -82,82 -321,169 -611,76 -475,-152 -678,-627 -1088,-897 -182,-120 -106,-408 -68,-624 13,30 66,32 88,19 2,85 -1,160 50,261 317,621 1468,1311 1612,663 247,396 693,243 634,-148 151,250 332,57 232,-294 150,96 185,309 179,486 -21,178 -124,335 -319,335z" style="fill:#d883d2"/>
  <path class="RightFoot-Dog2fil22" d="M16741 23949c560,135 807,327 949,532 170,244 121,751 -229,751 -144,249 -469,331 -709,123 -82,82 -321,169 -611,76 -475,-152 -614,-562 -1018,-844 -201,-140 -166,-401 -134,-554" style="fill:#99dcb2"/>
  <path class="RightFoot-Dog2fil32" d="M17378 25213c0,3 0,7 0,10 -59,86 -148,149 -252,169 -84,16 -174,3 -257,-45l-12 -8c47,-255 19,-572 -334,-636 167,118 191,399 163,611 -41,33 -116,65 -215,77 -89,11 -194,6 -307,-31 -265,-85 -423,-261 -589,-447 -277,-311 -611,-400 -512,-864 8,-41 -28,-86 -58,-89 -24,-2 -80,17 -89,58 -119,558 222,630 548,995 180,201 350,392 654,490 137,43 264,50 371,37 108,-13 199,-49 262,-89l3 0c116,81 258,115 400,88 143,-28 268,-114 349,-234 151,-15 258,-113 313,-251 29,-74 44,-157 44,-240 0,-135 -38,-275 -108,-376 -77,-110 -181,-216 -341,-313 -143,-86 -331,-165 -584,-231 -71,-19 -105,8 -131,48 -23,34 -14,70 26,80 271,65 468,144 612,231 139,84 229,176 295,271 53,76 81,183 81,290 0,66 -11,130 -33,185 -25,64 -65,112 -119,138 13,-317 -128,-634 -466,-624 219,111 313,298 286,700z" style="fill:#a06a6f"/>
 </g><g id="LeftFoot-Dog2">
  <metadata id="CorelCorpID_134Corel-Layer"/>
  <path class="LeftFoot-Dog2fil247" d="M9847 25232c143,249 468,331 709,123 82,82 321,169 611,76 475,-152 678,-627 1088,-897 208,-138 43,-480 31,-702 -216,88 -640,20 -960,-216 -332,-245 -1043,-199 -821,325 -152,50 -375,135 -487,193 -178,92 -308,217 -398,350 -165,246 -124,748 227,748z" style="fill:#2f7c78"/>
  <path class="LeftFoot-Dog2fil14" d="M9847 25232c143,249 468,331 709,123 82,82 321,169 611,76 475,-152 678,-627 1088,-897 181,-120 105,-408 68,-624 -13,30 -66,32 -88,19 -2,85 1,160 -50,261 -318,621 -1468,1311 -1612,663 -248,396 -693,243 -634,-148 -151,250 -333,57 -232,-294 -150,96 -186,309 -179,486 20,178 124,335 319,335z" style="fill:#189bf6"/>
  <path class="LeftFoot-Dog2fil22" d="M10566 23949c-559,135 -807,327 -949,532 -169,244 -121,751 230,751 143,249 468,331 709,123 82,82 321,169 611,76 475,-152 614,-562 1017,-844 201,-140 167,-401 134,-554" style="fill:#210080"/>
  <path class="LeftFoot-Dog2fil32" d="M9929 25213c1,3 1,7 0,10 59,86 149,149 253,169 84,16 174,3 257,-45l12 -8c-48,-255 -19,-572 333,-636 -166,118 -190,399 -162,611 41,33 116,65 215,77 89,11 193,6 307,-31 265,-85 423,-261 588,-447 278,-311 612,-400 513,-864 -9,-41 27,-86 58,-89 23,-2 80,17 88,58 119,558 -222,630 -547,995 -180,201 -351,392 -655,490 -137,43 -263,50 -370,37 -109,-13 -200,-49 -262,-89l-3 0c-116,81 -259,115 -401,88 -143,-28 -267,-114 -348,-234 -151,-15 -258,-113 -313,-251 -30,-74 -44,-157 -44,-240 0,-135 38,-275 108,-376 76,-110 181,-216 341,-313 142,-86 330,-165 584,-231 71,-19 105,8 131,48 22,34 14,70 -26,80 -271,65 -468,144 -612,231 -139,84 -230,176 -295,271 -53,76 -81,183 -81,290 0,66 11,130 32,185 26,64 65,112 120,138 -13,-317 128,-634 466,-624 -219,111 -313,298 -287,700z" style="fill:#cd1e12"/>
 </g><g id="RightLeg-Dog0">
  <metadata id="CorelCorpID_128Corel-Layer"/>
  <path class="RightLeg-Dog0fil243" d="M13654 20939c701,0 2353,-56 2710,226 302,239 937,901 935,1761 -2,445 -277,1009 -1000,1266 -472,76 -697,-507 -1295,-235 60,-709 -911,-790 -1350,-797l0 -2221z" style="fill:#9c9d36"/>
  <path class="RightLeg-Dog0fil32" d="M15057 24610c33,25 62,27 88,-6 25,-32 18,-79 -15,-104 -85,-66 -111,-236 -89,-338 34,-163 71,-342 -66,-579 0,-1 -1,-3 -2,-4 -100,-171 -247,-296 -460,-378 -208,-80 -506,-119 -859,-119l0 150c335,0 616,36 805,108 180,69 302,173 385,314 0,2 1,3 2,4 108,188 77,337 48,473 -32,154 43,385 163,479zm1227 -3463c175,139 478,451 693,860 144,272 248,587 247,919 -1,245 -87,464 -218,653 -154,223 -427,476 -707,613 326,-17 760,-427 830,-528 147,-211 244,-458 244,-738 2,-360 -110,-698 -263,-989 -227,-430 -547,-760 -734,-907l-92 117z" style="fill:#f722b5"/>
  <path class="RightLeg-Dog0fil14" d="M17192 23390c67,-148 106,-305 107,-464 2,-775 -541,-1451 -869,-1752 -191,187 -220,614 -78,870 275,-293 637,273 785,794 61,212 86,417 55,552z" style="fill:#457499"/>
 </g><g id="LeftLeg-Dog0">
  <metadata id="CorelCorpID_136Corel-Layer"/>
  <path class="LeftLeg-Dog0fil249" d="M13654 20939c-701,0 -2353,-56 -2710,226 -303,239 -938,901 -935,1761 1,445 276,1009 1000,1266 472,76 697,-507 1294,-235 -59,-709 911,-790 1351,-797l0 -2221z" style="fill:#dec236"/>
  <path class="LeftLeg-Dog0fil32" d="M12251 24610c-33,25 -63,27 -88,-6 -25,-32 -19,-79 14,-104 85,-66 111,-236 90,-338 -34,-163 -72,-342 65,-579 1,-1 2,-3 3,-4 100,-171 246,-296 460,-378 208,-80 506,-119 859,-119l0 150c-335,0 -616,36 -806,108 -179,69 -302,173 -384,314 -1,2 -2,3 -2,4 -109,188 -77,337 -49,473 33,154 -42,385 -162,479zm-1227 -3463c-176,139 -478,451 -694,860 -143,272 -247,587 -246,919 0,245 86,464 217,653 155,223 428,476 708,613 -326,-17 -761,-427 -831,-528 -146,-211 -243,-458 -244,-738 -1,-360 110,-698 264,-989 226,-430 547,-760 733,-907l93 117z" style="fill:#9b5ac3"/>
  <path class="LeftLeg-Dog0fil14" d="M10116 23390c-67,-148 -107,-305 -107,-464 -2,-775 540,-1451 869,-1752 190,187 275,614 134,870 -388,-413 -1003,879 -896,1346z" style="fill:#2012db"/>
 </g><g id="RightHand-Dog4">
 <animateTransform additive="sum" attributeName="transform" dur="10" repeatCount="indefinite" type="translate" values="0;0 200;0;0 200;0;0 200;0;0 200;0"/>
  <metadata id="CorelCorpID_144Corel-Layer"/>
  <path class="RightHand-Dog4fil256" d="M15619 17715c247,-7 498,-52 659,-90 985,362 1779,1397 2210,2149 289,504 -636,1265 -911,1014 -400,-366 -786,-483 -1129,-559 -358,-79 -514,-1818 -829,-2514z" style="fill:#962012"/>
  <path class="RightHand-Dog4fil257" d="M15846 17699c166,-18 321,-47 432,-74 649,238 1214,768 1648,1317 -22,483 -677,797 -1040,490 -461,-391 -268,-1164 -1040,-1733z" style="fill:#b1787d"/>
  <path class="RightHand-Dog4fil22 RightHand-Dog4str0" d="M16041 17553c1079,269 1932,1403 2397,2213m-861 1022c-394,-360 -769,-512 -1113,-557" style="fill:#c67c12"/>
  <path class="RightHand-Dog4fil14" d="M17401 20669c-249,-249 -500,-372 -822,-396 -156,-175 -225,-650 -133,-901 308,435 716,808 1104,1031 -30,84 -75,162 -148,228 0,12 -1,25 -1,38z" style="fill:#9a00f0"/>
 </g><g id="LeftHand-Dog4">
 <animateTransform additive="sum" attributeName="transform" dur="10" repeatCount="indefinite" type="translate" values="0;0 200;0;0 200;0;0 200;0;0 200;0"/>
  <metadata id="CorelCorpID_152Corel-Layer"/>
  <path class="LeftHand-Dog4fil262" d="M11744 17715c-246,-7 -497,-52 -658,-90 -985,362 -1779,1397 -2210,2149 -289,504 636,1265 911,1014 400,-366 786,-483 1129,-559 358,-79 514,-1818 828,-2514z" style="fill:#078381"/>
  <path class="LeftHand-Dog4fil57" d="M11518 17699c-166,-18 -321,-47 -432,-74 -649,238 -1214,768 -1648,1317 22,483 677,797 1040,490 461,-391 268,-1164 1040,-1733z" style="fill:#1fc418"/>
  <path class="LeftHand-Dog4fil22 LeftHand-Dog4str0" d="M11323 17553c-1079,269 -1933,1403 -2397,2213m861 1022c394,-360 769,-512 1113,-557" style="fill:#5e2eb6"/>
  <path class="LeftHand-Dog4fil14" d="M9963 20669c249,-249 500,-372 821,-396 157,-175 226,-650 134,-901 -308,435 -717,808 -1104,1031 30,84 75,162 148,228 0,12 1,25 1,38z" style="fill:#fbee5e"/>
 </g><g id="Body-Dog2">
 <animateTransform additive="sum" attributeName="transform" dur="10" repeatCount="indefinite" type="translate" values="0;0 200;0;0 200;0;0 200;0;0 200;0"/>
  <metadata id="CorelCorpID_159Corel-Layer"/>
  <path class="Body-Dog2fil267" d="M13682 23035c-1548,0 -2752,-291 -2993,-1956 -146,-1010 387,-2357 984,-3487 334,54 1089,70 2009,70 920,0 1675,-16 2008,-70 598,1130 1131,2477 985,3487 -242,1665 -1445,1956 -2993,1956z" style="fill:#713257"/>
  <path class="Body-Dog2fil14" d="M12620 22967c-1015,-156 -1748,-629 -1931,-1888 -72,-498 21,-1078 206,-1674 -224,2001 425,3224 1725,3562z" style="fill:#30d450"/>
  <path class="Body-Dog2fil14" d="M14743 22967c1016,-156 1749,-629 1932,-1888 72,-498 -21,-1078 -206,-1674 224,2001 -425,3224 -1726,3562z" style="fill:#cd0063"/>
  <path class="Body-Dog2fil32" d="M11012 22044c-250,-321 -348,-641 -397,-954 -59,-377 -28,-1005 180,-1327 -79,420 -89,912 -32,1305 50,341 104,572 249,976z" style="fill:#903367"/>
  <path class="Body-Dog2fil32" d="M16352 22044c250,-321 347,-641 397,-954 59,-377 24,-998 -184,-1320 78,421 93,905 36,1298 -50,341 -104,572 -249,976z" style="fill:#25c131"/>
  <path class="Body-Dog2fil14" d="M13682 17939c-855,0 -1811,-224 -2306,-506 -582,280 -513,1744 -476,2382 -13,187 25,527 140,597 321,-315 328,1111 1503,1400 167,-513 543,791 1716,887 -156,-643 979,-1867 819,-868 1238,-572 1099,-2148 1268,-1506 48,-74 131,-155 126,-424 -4,-566 144,-2167 -403,-2459 -494,282 -1532,497 -2387,497z" style="fill:#98644b"/>
  <path class="Body-Dog2fil270" d="M13682 17604c-855,0 -1811,-224 -2306,-505 -582,279 -986,998 -949,1636 34,609 289,1095 648,1329 31,-265 163,-465 284,-582 -265,830 336,1772 1035,2030 -82,-280 31,-672 224,-885 -18,657 608,1638 1492,1763 19,-701 698,-522 648,-1834 174,398 513,547 428,960 498,-278 1125,-1245 860,-2075 147,90 327,306 350,549 367,-249 577,-789 573,-1463 -3,-566 -353,-1128 -900,-1419 -494,281 -1532,496 -2387,496z" style="fill:#4c2229"/>
  <path class="Body-Dog2fil32" d="M16824 19412c269,-1168 -275,-1767 -403,-1932 -25,-32 -15,-100 18,-125 32,-25 96,-15 121,17 145,187 752,908 264,2040z" style="fill:#b59b6e"/>
  <path class="Body-Dog2fil32" d="M10919 17342c29,-29 76,-30 106,-1 29,29 30,77 1,106 -389,326 -639,1316 -427,2030 -435,-814 -57,-1885 320,-2135z" style="fill:#b808a4"/>
 </g><g id="RightPaw-Dog1">
 <animateTransform additive="sum" attributeName="transform" dur="10" repeatCount="indefinite" type="translate" values="0;0 200;0;0 200;0;0 200;0;0 200;0"/>
  <metadata id="CorelCorpID_147Corel-Layer"/>
  <path class="RightPaw-Dog1fil26" d="M17402 20631c-38,818 551,1339 943,981 309,484 1078,126 986,-356 248,-652 -532,-1279 -980,-1632 -241,-78 -377,-149 -564,-64 -316,143 -32,749 -385,1071z" style="fill:#3215ae"/>
  <path class="RightPaw-Dog1fil14" d="M17402 20631c-17,192 32,393 33,395 44,201 137,399 285,544 194,184 433,219 637,33 492,772 1351,-293 810,-632 144,452 -486,750 -723,253 -324,480 -778,69 -787,-350 -5,-223 56,-314 -107,-471 -30,84 -75,162 -148,228z" style="fill:#3aefd8"/>
  <path class="RightPaw-Dog1fil32" d="M18446 21611c107,-163 129,-451 -88,-537 74,121 26,386 -69,476 -138,130 -263,138 -430,31 -93,-59 -178,-155 -245,-278 -93,-172 -149,-397 -138,-656 1,-21 -7,-43 -24,-59 -52,-50 -128,-78 -180,-116 -33,-25 -76,-27 -100,6 -24,33 -10,74 23,99 44,31 87,68 130,100 -5,272 57,511 157,696 79,147 183,261 296,334 178,114 384,128 560,8 101,121 232,181 368,195 211,22 433,-69 573,-226 103,-115 160,-263 137,-425 229,-648 -410,-1166 -864,-1533 -104,-84 -134,-147 -206,-255 -23,-34 -69,-44 -104,-21 -34,23 -43,70 -20,104 80,121 120,196 236,290 356,288 865,714 854,1122 -52,-71 -158,-158 -280,-146 191,160 321,562 136,764 -110,120 -284,194 -446,177 -102,-10 -201,-57 -276,-150z" style="fill:#2e2b73"/>
 </g><g id="LeftPaw-Dog1">
 <animateTransform additive="sum" attributeName="transform" dur="10" repeatCount="indefinite" type="translate" values="0;0 200;0;0 200;0;0 200;0;0 200;0"/>
  <metadata id="CorelCorpID_155Corel-Layer"/>
  <path class="LeftPaw-Dog1fil26" d="M9962 20631c38,818 -552,1339 -944,981 -308,484 -1077,126 -986,-356 -247,-652 533,-1279 981,-1632 241,-78 377,-149 564,-64 316,143 31,749 385,1071z" style="fill:#3caf13"/>
  <path class="LeftPaw-Dog1fil14" d="M9962 20631c16,192 -32,393 -33,395 -44,201 -137,399 -285,544 -194,184 -433,219 -637,33 -493,772 -1351,-293 -810,-632 -144,452 485,750 723,253 324,480 778,69 787,-350 4,-223 -56,-314 107,-471 30,84 75,162 148,228z" style="fill:#2e19d9"/>
  <path class="LeftPaw-Dog1fil32" d="M8918 21611c-107,-163 -129,-451 88,-537 -74,121 -26,386 69,476 138,130 263,138 430,31 92,-59 178,-155 245,-278 93,-172 149,-397 138,-656 -1,-21 7,-43 24,-59 52,-50 128,-78 180,-116 33,-25 75,-27 100,6 24,33 10,74 -24,99 -43,31 -86,68 -129,100 5,272 -57,511 -157,696 -80,147 -183,261 -296,334 -178,114 -384,128 -560,8 -101,121 -232,181 -369,195 -210,22 -432,-69 -572,-226 -103,-115 -161,-263 -137,-425 -229,-648 410,-1166 863,-1533 105,-84 134,-147 207,-255 23,-34 69,-44 103,-21 35,23 44,70 21,104 -81,121 -120,196 -236,290 -356,288 -865,714 -854,1122 52,-71 157,-158 280,-146 -191,160 -321,562 -136,764 110,120 284,194 446,177 102,-10 201,-57 276,-150z" style="fill:#6b70b7"/>
 </g><g id="NecklaceTornShirtGreen-Medium">
 <animateTransform additive="sum" attributeName="transform" dur="10" repeatCount="indefinite" type="translate" values="0;0 200;0;0 200;0;0 200;0;0 200;0"/>
  <metadata id="CorelCorpID_1Corel-Layer"/>
  <path class="NecklaceTornShirtGreen-Mediumfil7" d="M13682 18647c658,0 2106,-245 1878,-1292 1232,-64 1965,547 2452,984 40,498 -620,1484 -1420,1443 419,783 542,2091 542,2091 -868,673 -2173,928 -3452,928 -1280,0 -2584,-255 -3452,-928 0,0 123,-1308 542,-2091 -800,41 -1460,-945 -1420,-1443 487,-437 1220,-1048 2452,-984 -228,1047 1220,1292 1878,1292zm-333 224c-277,229 -967,753 -1160,652 -247,60 -410,138 -477,171 22,-127 203,-274 387,-425 175,-49 406,-58 634,-218 203,-142 461,-160 616,-180zm1178 3258c209,-147 658,-582 898,-748 7,75 -49,109 -19,182 147,-99 287,-237 421,-317 -42,89 -123,265 -164,356 163,46 282,69 284,184 -130,-13 -477,85 -607,71 -56,106 -113,211 -169,317 -27,-24 -28,-108 -56,-131 -187,8 -401,77 -588,86zm512 -1313c17,-50 351,-288 480,-272 97,46 328,-90 367,-119 -3,47 -86,288 -90,335 -114,-24 -560,-16 -757,56zm70 208c-205,101 -486,172 -744,289 -199,91 -379,234 -526,292 -125,49 -193,20 -243,47 -88,48 -558,215 -643,437 350,-88 701,-176 1051,-265 93,5 185,9 278,14 57,-80 115,-159 172,-239 95,3 190,5 284,7 124,-194 247,-388 371,-582zm-979 -582c-170,79 -233,90 -347,144 -120,56 -110,-23 -231,32 -460,210 -1469,842 -1922,1067 377,-66 754,-132 1131,-198 128,26 255,53 383,79 -6,-57 -74,-152 -80,-210 144,-43 276,-73 424,-48 194,-328 428,-577 642,-866zm1445 -873c-234,152 -444,178 -678,330 73,58 -65,175 -82,282 141,-80 318,-165 393,-215 52,1 190,2 243,3 9,-103 115,-298 124,-400zm-640 -474c-373,78 -645,308 -1185,321 -161,4 -263,-135 -481,15 -131,90 -324,228 -436,353 -75,84 -63,148 -160,243 -327,318 -757,679 -984,957 280,-106 467,-184 747,-290 119,7 374,-50 493,-44 62,-101 81,-166 143,-268 319,-114 639,-229 959,-344 301,-314 602,-629 904,-943z" style="fill:#2a8f13"/>
  <path class="NecklaceTornShirtGreen-Mediumfil1 NecklaceTornShirtGreen-Mediumstr1" d="M13682 18647c658,0 2106,-245 1878,-1292 1232,-64 1965,547 2452,984 40,498 -620,1484 -1420,1443 419,783 542,2091 542,2091 -868,673 -2173,928 -3452,928 -1280,0 -2584,-255 -3452,-928 0,0 123,-1308 542,-2091 -800,41 -1460,-945 -1420,-1443 487,-437 1220,-1048 2452,-984 -228,1047 1220,1292 1878,1292z" style="fill:#a6bb10"/>
  <path class="NecklaceTornShirtGreen-Mediumfil2" d="M13995 22796c-104,3 -209,5 -313,5 -1280,0 -2584,-255 -3452,-928 0,0 123,-1308 542,-2091l351 -665c0,0 -905,2070 83,2793 985,721 2779,885 2789,886z" style="fill:#929123"/>
  <g>
   <path class="NecklaceTornShirtGreen-Mediumfil3" d="M13413 18948c-171,141 -496,392 -769,545 -180,102 -347,162 -460,134 -106,27 -194,57 -265,84 -74,29 -129,56 -161,72 -50,26 -110,6 -135,-43 -11,-22 -13,-46 -8,-68 31,-160 218,-314 412,-472l9 -8c11,-9 23,-15 36,-19l0 0c47,-13 97,-23 149,-34 140,-29 302,-62 455,-169 204,-143 446,-172 612,-192 34,-4 29,-3 49,-6 54,-7 104,32 111,86 5,36 -10,69 -35,90zm-64 -77c-277,229 -967,753 -1160,652 -247,60 -410,138 -477,171 22,-127 203,-274 387,-425 175,-49 406,-58 634,-218 203,-142 461,-160 616,-180zm2478 2375c-42,89 -123,265 -164,356 163,46 282,69 284,184 -130,-13 -477,85 -607,71 -56,106 -113,211 -169,317 -27,-24 -28,-108 -56,-131 -187,8 -401,77 -588,86 209,-147 658,-582 898,-748 7,75 -49,109 -19,182 147,-99 287,-237 421,-317zm-308 -702c97,46 328,-90 367,-119 -3,47 -86,288 -90,335 -114,-24 -560,-16 -757,56 17,-50 351,-288 480,-272zm-410 480c-205,101 -486,172 -744,289 -199,91 -379,234 -526,292 -125,49 -193,20 -243,47 -88,48 -558,215 -643,437 350,-88 701,-176 1051,-265 93,5 185,9 278,14 57,-80 115,-159 172,-239 95,3 190,5 284,7 124,-194 247,-388 371,-582zm-1965 542c-6,-57 -74,-152 -80,-210 144,-43 276,-73 424,-48 194,-328 428,-577 642,-866 -170,79 -233,90 -347,144 -120,56 -110,-23 -231,32 -460,210 -1469,842 -1922,1067 377,-66 754,-132 1131,-198 128,26 255,53 383,79zm1753 -1667c73,58 -65,175 -82,282 141,-80 318,-165 393,-215 52,1 190,2 243,3 9,-103 115,-298 124,-400 -234,152 -444,178 -678,330zm-866 139c301,-314 602,-629 904,-943 -373,78 -645,308 -1185,321 -161,4 -263,-135 -481,15 -131,90 -324,228 -436,353 -75,84 -63,148 -160,243 -327,318 -757,679 -984,957 280,-106 467,-184 747,-290 119,7 374,-50 493,-44 62,-101 81,-166 143,-268 319,-114 639,-229 959,-344zm443 2006c95,-67 245,-199 400,-335 178,-157 364,-320 495,-410 45,-31 107,-20 138,26 6,8 10,17 13,26l22 -17c78,-65 155,-127 233,-174 48,-28 109,-13 137,34 18,30 18,64 5,93l0 0c-42,91 -63,136 -82,178 -10,22 -21,46 -33,73 145,43 241,91 245,246 1,55 -42,101 -97,102 -4,0 -9,0 -12,-1l0 1c-51,-6 -164,14 -277,34 -93,17 -187,33 -261,37l-141 264c-26,48 -86,67 -135,41 -7,-4 -13,-8 -19,-13l0 0c-32,-28 -44,-64 -54,-101 -67,8 -139,22 -211,36 -104,20 -207,39 -309,44 -55,3 -101,-40 -104,-95 -2,-37 17,-70 47,-89zm504 -1307c52,-57 158,-141 263,-200 103,-58 213,-101 290,-91 11,1 21,4 30,8l0 0c9,4 38,-2 73,-14 84,-27 172,-80 194,-96 45,-32 107,-22 139,23 14,20 20,43 18,66l1 0c-3,34 -26,111 -49,188 -20,67 -40,134 -41,146 -4,55 -52,97 -107,92 -6,0 -12,-1 -18,-2 -60,-11 -215,-13 -375,-2 -124,10 -247,27 -323,54 -51,19 -109,-8 -127,-59 -15,-42 -1,-87 32,-113zm-261 334c127,-45 248,-87 348,-136l0 0c30,-15 67,-14 97,5 47,30 60,91 31,137l-369 580c-17,30 -50,49 -87,49l-233 -6 -139 192c-18,29 -51,47 -88,45l-262 -12 -1038 261 0 0c-20,4 -40,4 -60,-4 -52,-20 -77,-78 -57,-129 85,-221 440,-378 617,-456 34,-15 61,-27 72,-33 41,-22 76,-24 120,-26 33,-2 77,-4 134,-26 64,-26 143,-74 229,-127 89,-55 185,-114 291,-162 132,-60 266,-107 394,-152zm-829 -636c52,-20 110,-42 200,-84l0 0c32,-14 71,-12 101,11 45,33 54,95 21,139 -69,94 -145,188 -221,283 -143,179 -286,358 -411,569 -19,38 -62,61 -107,54 -63,-11 -123,-10 -183,-2 -30,4 -60,11 -92,18 22,44 43,88 48,132l-1 0c2,10 1,21 -1,31 -11,54 -64,89 -118,78l-364 -75 -1113 195 0 0c-43,7 -87,-14 -107,-54 -24,-50 -4,-110 45,-134 200,-99 514,-281 839,-470 404,-235 827,-480 1087,-599 91,-41 134,-32 178,-22 11,2 23,5 52,-9 57,-27 100,-43 147,-61zm1311 -793c107,-43 213,-86 322,-157l0 0c18,-12 40,-18 63,-15 55,4 95,53 90,108 -6,65 -37,146 -68,227 -26,68 -53,136 -56,173 -5,51 -49,92 -101,90 -27,0 -74,0 -120,-1 -34,0 -67,0 -93,-1 -46,28 -110,61 -180,98 -61,32 -127,66 -191,102 -19,12 -43,17 -66,13 -55,-9 -92,-60 -83,-114 10,-61 40,-113 69,-162 14,-23 75,-6 50,-25l1 0c-9,-7 -16,-15 -22,-24 -30,-46 -17,-108 29,-138 125,-82 241,-128 356,-174zm-694 -508c133,-54 262,-106 409,-137l0 0c31,-6 65,2 90,26 39,38 41,101 2,141l-903 944 -1 -1c-10,11 -23,20 -38,25l-925 332c-19,34 -34,65 -49,96 -21,43 -42,86 -74,140 -18,32 -53,52 -92,50 -50,-3 -139,9 -228,21 -88,12 -176,24 -243,23 -121,46 -237,92 -354,138 -111,44 -221,88 -375,146l0 0c-32,12 -69,7 -98,-16 -42,-35 -49,-98 -14,-141 156,-192 401,-417 644,-641 121,-111 242,-222 347,-325 41,-39 57,-74 74,-108 19,-41 38,-81 82,-130 61,-68 142,-138 224,-202 77,-60 161,-119 230,-166 185,-128 302,-92 419,-55 39,12 78,24 115,23 321,-8 546,-98 758,-183z" style="fill:#a393d3"/>
  </g>
  <path class="NecklaceTornShirtGreen-Mediumfil4" d="M13349 18871c-51,43 -117,95 -192,153 -83,30 -171,74 -263,139 -222,156 -446,165 -617,212 -91,75 -200,142 -288,205 -137,46 -230,91 -277,114 22,-127 203,-274 387,-425 175,-49 406,-58 634,-218 203,-142 461,-160 616,-180zm1178 3258c209,-147 658,-582 898,-748 7,75 -49,109 -19,182 147,-99 287,-237 421,-317l-19 40c-117,89 -193,296 -328,387 -494,129 -191,291 -594,400 -121,23 -245,50 -359,56zm1149 -523c156,43 269,68 271,180l0 0c-10,-103 -123,-125 -276,-168l5 -12zm-496 551l-9 17c-26,-23 -28,-98 -51,-127 6,0 12,-1 18,-1 22,19 26,78 42,111zm-141 -1341c17,-50 351,-288 480,-272 97,46 328,-90 367,-119 -1,11 -6,32 -13,58 -63,40 -257,146 -342,106 -95,-12 -306,118 -409,203 -30,7 -58,15 -83,24zm70 208c-205,101 -486,172 -744,289 -199,91 -379,234 -526,292 -125,49 -193,20 -243,47 -88,48 -558,215 -643,437l94 -24c118,-197 657,-288 739,-333 49,-26 114,3 236,-45 143,-57 319,-196 512,-284 223,-102 364,-220 533,-314l42 -65zm-979 -582c-170,79 -233,90 -347,144 -120,56 -110,-23 -231,32 -460,210 -1469,842 -1922,1067l222 -39c480,-242 1377,-710 1792,-900 118,-53 108,24 225,-31 48,-22 82,-54 118,-88 48,-61 96,-122 143,-185zm1445 -873c-234,152 -444,178 -678,330 73,58 -65,175 -82,282 45,-26 93,-52 141,-77 38,-31 63,-57 29,-83 182,-118 349,-158 525,-245 30,-77 60,-154 65,-207zm-640 -474c-373,78 -645,308 -1185,321 -161,4 -263,-135 -481,15 -131,90 -324,228 -436,353 -75,84 -63,148 -160,243 -327,318 -757,679 -984,957 82,-31 157,-60 227,-87 244,-238 628,-494 899,-759 95,-92 83,-154 156,-236 109,-122 303,-156 431,-244 211,-146 258,-63 414,-67 448,-11 702,-248 992,-364l127 -132z" style="fill:#0a252b"/>
  <path class="NecklaceTornShirtGreen-Mediumfil1" d="M13349 18871c-277,229 -967,753 -1160,652 -247,60 -410,138 -477,171 22,-127 203,-274 387,-425 175,-49 406,-58 634,-218 203,-142 461,-160 616,-180zm1178 3258c209,-147 658,-582 898,-748 7,75 -49,109 -19,182 147,-99 287,-237 421,-317 -42,89 -123,265 -164,356 163,46 282,69 284,184 -130,-13 -477,85 -607,71 -56,106 -113,211 -169,317 -27,-24 -28,-108 -56,-131 -187,8 -401,77 -588,86zm512 -1313c17,-50 351,-288 480,-272 97,46 328,-90 367,-119 -3,47 -86,288 -90,335 -114,-24 -560,-16 -757,56zm70 208c-205,101 -486,172 -744,289 -199,91 -379,234 -526,292 -125,49 -193,20 -243,47 -88,48 -558,215 -643,437 350,-88 701,-176 1051,-265 93,5 185,9 278,14 57,-80 115,-159 172,-239 95,3 190,5 284,7 124,-194 247,-388 371,-582zm-979 -582c-170,79 -233,90 -347,144 -120,56 -110,-23 -231,32 -460,210 -1469,842 -1922,1067 377,-66 754,-132 1131,-198 128,26 255,53 383,79 -6,-57 -74,-152 -80,-210 144,-43 276,-73 424,-48 194,-328 428,-577 642,-866zm1445 -873c-234,152 -444,178 -678,330 73,58 -65,175 -82,282 141,-80 318,-165 393,-215 52,1 190,2 243,3 9,-103 115,-298 124,-400zm-640 -474c-373,78 -645,308 -1185,321 -161,4 -263,-135 -481,15 -131,90 -324,228 -436,353 -75,84 -63,148 -160,243 -327,318 -757,679 -984,957 280,-106 467,-184 747,-290 119,7 374,-50 493,-44 62,-101 81,-166 143,-268 319,-114 639,-229 959,-344 301,-314 602,-629 904,-943z" style="fill:#e4e4f9"/>
  <path class="NecklaceTornShirtGreen-Mediumfil5" d="M16220 19111c23,-20 175,164 294,352 72,116 129,253 145,286 18,37 3,82 -34,100 -37,18 -82,3 -100,-34 -19,-38 -69,-180 -129,-303 -92,-191 -198,-380 -176,-401z" style="fill:#ca5d77"/>
  <path class="NecklaceTornShirtGreen-Mediumfil6" d="M17857 18910c-387,494 -1164,789 -1616,207 -137,-105 262,486 398,758 -15,-31 -31,-63 -47,-93 547,28 1028,-424 1265,-872z" style="fill:#5c5856"/>
  <path class="NecklaceTornShirtGreen-Mediumfil5" d="M11144 19111c-23,-20 -175,164 -294,352 -72,116 -129,253 -146,286 -18,37 -2,82 35,100 37,18 82,3 100,-34 18,-38 69,-180 128,-303 93,-191 199,-380 177,-401z" style="fill:#f4556d"/>
  <path class="NecklaceTornShirtGreen-Mediumfil6" d="M9506 18910c388,494 1164,789 1617,207 136,-105 -262,486 -399,758 16,-31 32,-63 48,-93 -547,28 -1028,-424 -1266,-872z" style="fill:#24e8ed"/>
 </g><g id="Ears-Dog3">
 <animateTransform additive="sum" attributeName="transform" dur="10" repeatCount="indefinite" type="translate" values="0;0 200;0;0 200;0;0 200;0;0 200;0"/>
  <metadata id="CorelCorpID_164Corel-Layer"/>
  <g>
        <animateTransform additive="sum" attributeName="transform" dur="10" repeatCount="indefinite" type="rotate" values="0;0;0;0;0;0;10;0;0;0;0;0;0;0;0;0;0;0;0;0;0;0;0;0;0;0;0;0;0;0;0;0;0;0;0;0;0;0;0;0;0;0;0;0;0;10;0;0;0;0;0;0;0;0;0;0;0;0;0;0;0;0;0;0;0;0;0;0;0;0;0;0;0;0;0;0;0;0;0;0;0;0"/>
        <g>
			    <animateTransform additive="sum" attributeName="transform" dur="10" repeatCount="indefinite" type="translate" values="0;0;0;0;0;0;2000 -2000;0;0;0;0;0;0;0;0;0;0;0;0;0;0;0;0;0;0;0;0;0;0;0;0;0;0;0;0;0;0;0;0;0;0;0;0;0;0;2000 -2000;0;0;0;0;0;0;0;0;0;0;0;0;0;0;0;0;0;0;0;0;0;0;0;0;0;0;0;0;0;0;0;0;0;0;0;0"/>
			    <path class="Ears-Dog3fil286 Ears-Dog3str4" d="M10135 7120c-1006,-56 -1632,-375 -2412,1039 -625,1133 -282,3491 95,3892 977,-2150 2490,-3072 3758,-3661 -44,-212 -559,-1221 -1441,-1270z" style="fill:#d4fdd2"/>
          <path class="Ears-Dog3fil287" d="M11263 8678c-743,-1151 -1649,-1603 -2861,-1077 -317,389 -238,200 -413,612 -126,524 -377,1947 48,3080 813,-1056 1776,-1845 3226,-2615z" style="fill:#721cb7"/>
          <path class="Ears-Dog3fil288" d="M10815 9402c157,-1424 -1989,-2043 -2288,-1502 -280,504 -146,1442 -39,1729 196,521 550,908 1085,968 229,-213 1151,-1133 1242,-1195z" style="fill:#bac0c7"/>
          <path class="Ears-Dog3fil14" d="M10135 7120c-1006,-56 -1705,-229 -2485,1185 -160,290 -267,1288 -307,1604 819,-1189 2291,-1779 3212,-979 277,-158 758,-418 1021,-540 -44,-212 -559,-1221 -1441,-1270z" style="fill:#5ffe7b"/>
          <path class="Ears-Dog3fil289 Ears-Dog3str0" d="M7782 6779c-1461,773 -851,2097 -702,1985 266,-199 1756,-1972 3704,-1418 -616,-482 -2151,-1018 -3002,-567z" style="fill:#82b2a6"/>
		    </g>
  </g>
  <g>
        <animateTransform additive="sum" attributeName="transform" dur="10" repeatCount="indefinite" type="rotate" values="0;0;0;0;0;0;-10;0;0;0;0;0;0;0;0;0;0;0;0;0;0;0;0;0;0;0;0;0;0;0;0;0;0;0;0;0;0;0;0;0;0;0;0;0;0;0;0;0;0;0;0;0;0;0;0;-10;0;0;0;0;0;0;0;0;0;0;0;0;0;0;0;0;0;0;0;0;0;0;0;0;0;0"/>
        <g>
            <animateTransform additive="sum" attributeName="transform" dur="10" repeatCount="indefinite" type="translate" values="0;0;0;0;0;0;-2500 2500;0;0;0;0;0;0;0;0;0;0;0;0;0;0;0;0;0;0;0;0;0;0;0;0;0;0;0;0;0;0;0;0;0;0;0;0;0;0;0;0;0;0;0;0;0;0;0;0;-2500 2500;0;0;0;0;0;0;0;0;0;0;0;0;0;0;0;0;0;0;0;0;0;0;0;0;0;0"/>
            <path class="Ears-Dog3fil290 Ears-Dog3str4" d="M17229 7120c1006,-56 1632,-375 2412,1039 625,1133 282,3491 -95,3892 -977,-2150 -2490,-3072 -3758,-3661 44,-212 559,-1221 1441,-1270z" style="fill:#0e2dbc"/>
            <path class="Ears-Dog3fil291" d="M16101 8678c743,-1151 1649,-1603 2860,-1077 318,389 239,200 414,612 126,524 377,1947 -49,3080 -812,-1056 -1775,-1845 -3225,-2615z" style="fill:#1d01f9"/>
            <path class="Ears-Dog3fil292" d="M16549 9402c-157,-1424 1989,-2043 2288,-1502 280,504 146,1442 38,1729 -195,521 -549,908 -1084,968 -230,-213 -1151,-1133 -1242,-1195z" style="fill:#25b0fd"/>
            <path class="Ears-Dog3fil14" d="M17229 7120c1006,-56 1705,-229 2485,1185 160,290 266,1288 307,1604 -819,-1189 -2291,-1779 -3212,-979 -277,-158 -758,-418 -1021,-540 44,-212 559,-1221 1441,-1270z" style="fill:#fd7b6e"/>
            <path class="Ears-Dog3fil293 Ears-Dog3str0" d="M19581 6779c1461,773 852,2097 703,1985 -266,-199 -1756,-1972 -3704,-1418 616,-482 2151,-1018 3001,-567z" style="fill:#7cf9a0"/>
		    </g>
  </g>  
 </g><g id="Head-Dog5">
 <animateTransform additive="sum" attributeName="transform" dur="10" repeatCount="indefinite" type="translate" values="0;0 200;0;0 200;0;0 200;0;0 200;0"/>
  <metadata id="CorelCorpID_177Corel-Layer"/>
  <path class="Head-Dog5fil330" d="M13682 7385c-3568,0 -6948,4165 -6021,7554 736,2692 3247,2816 6021,2816 2774,0 5285,-124 6021,-2816 927,-3389 -2453,-7554 -6021,-7554z" style="fill:#3d9626"/>
  <path class="Head-Dog5fil14" d="M8141 11211c-590,1190 -813,2509 -480,3728 585,2138 2290,2657 4356,2779 -3483,-543 -4783,-2989 -3876,-6507z" style="fill:#8a60b2"/>
  <path class="Head-Dog5fil339" d="M12715 13434c-408,-91 -863,98 -1199,808 -324,684 -1233,1154 -2553,433 -300,-164 -653,298 -456,862 665,1904 4071,2040 5175,2040 1104,0 4510,-136 5175,-2040 196,-564 -156,-1026 -456,-862 -1320,721 -2229,251 -2553,-433 -336,-710 -791,-899 -1200,-808 -585,131 -262,738 -966,881 -704,-143 -381,-750 -967,-881z" style="fill:#cb271c"/>
  <path class="Head-Dog5fil32" d="M13682 7459c552,0 1099,101 1626,285 302,105 959,411 1688,816 -411,-435 -1448,-891 -1639,-957 -543,-189 -1107,-294 -1675,-294 -568,0 -1132,105 -1675,294 -191,66 -1229,522 -1639,957 728,-405 1386,-711 1688,-816 527,-184 1074,-285 1626,-285z" style="fill:#6c9c44"/>
  <path class="Head-Dog5fil32" d="M8070 11356c-237,514 -424,1536 -461,1878 -61,568 -26,1137 124,1685 291,1064 865,1718 1623,2120 512,270 1759,641 2840,689 -1197,57 -2559,-372 -2910,-557 -794,-420 -1394,-1103 -1697,-2213 -155,-566 -192,-1154 -129,-1740 23,-210 212,-1304 610,-1862z" style="fill:#61cfc2"/>
  <path class="Head-Dog5fil32" d="M19293 11356c238,514 425,1536 462,1878 61,568 26,1137 -124,1685 -291,1064 -865,1718 -1623,2120 -513,270 -1760,641 -2841,689 1198,57 2560,-372 2910,-557 795,-420 1394,-1103 1698,-2213 155,-566 192,-1154 128,-1740 -22,-210 -211,-1304 -610,-1862z" style="fill:#435cc0"/>
 </g><g id="Mouth-Dog3">
 <animateTransform additive="sum" attributeName="transform" dur="10" repeatCount="indefinite" type="translate" values="0;0 200;0;0 200;0;0 200;0;0 200;0"/>
  <metadata id="CorelCorpID_183Corel-Layer"/>
  <path class="Mouth-Dog3fil22 Mouth-Dog3str0" d="M11958 15406c395,636 1694,403 1724,-520" style="fill:#183785"/>
  <path class="Mouth-Dog3fil22 Mouth-Dog3str0" d="M15406 15406c-395,636 -1694,403 -1724,-520" style="fill:#01c22d"/>
  <path class="Mouth-Dog3fil100" d="M13694 15018c15,256 393,755 1042,817 -441,27 -829,-209 -1054,-209 -226,0 -613,236 -1054,209 649,-62 1026,-561 1042,-817l24 0z" style="fill:#be0735"/>
  <path class="Mouth-Dog3fil151 Mouth-Dog3str0" d="M14563 16433c369,3 453,-448 354,-664 -111,-242 -836,-440 -1188,-217 422,52 285,876 834,881z" style="fill:#ced67f"/>
  <path class="Mouth-Dog3fil152 Mouth-Dog3str0" d="M12323 15678c13,-132 147,-363 232,-442 103,68 259,374 285,490 -115,49 -381,54 -517,-48z" style="fill:#e34617"/>
 </g><g id="Eyes-Dog4">
 <animateTransform additive="sum" attributeName="transform" dur="10" repeatCount="indefinite" type="translate" values="0;0 200;0;0 200;0;0 200;0;0 200;0"/>
  <metadata id="CorelCorpID_193Corel-Layer"/>
  <g>
        <animateTransform additive="sum" attributeName="transform" dur="10" repeatCount="indefinite" type="translate" values="0;0;0;0;0;0;0;0;0;0;0;0;0;0;0;0;0;0;0;0;0;0;0;0;0;0;0;0;0;0;0;0;0;0;0;0;0;0;0;0;0;0;0;0;0;0;0;0;0;0;0;0;0;0;0;0;0;0;0;0;0;0;0;0;0;0;0;0;0;0;0;0;0;0;0;0;0;0;0;0;0;0;0;0;0;0;0;0;0;0;0 14300;0"/>
        <g>
            <g>
                <animateTransform additive="sum" attributeName="transform" dur="10" repeatCount="indefinite" type="scale" values="1;1;1;1;1;1;1;1;1;1;1;1;1;1;1;1;1;1;1;1;1;1;1;1;1;1;1;1;1;1;1;1;1;1;1;1;1;1;1;1;1;1;1;1;1;1;1;1;1;1;1;1;1;1;1;1;1;1;1;1;1;1;1;1;1;1;1;1;1;1;1;1;1;1;1;1;1;1;1;1;1;1;1;1;1;1;1;1;1;1;1 0.01;1"/> 
				        <path class="Eyes-Dog4fil362" d="M9238 14761c774,527 1990,76 2449,-260 807,-593 339,-2751 -661,-3075 -645,-210 -1334,-20 -1764,474 -908,1044 -574,2485 -24,2861z"/>
            </g>
            <g>
                <animateTransform additive="sum" attributeName="transform" dur="10" repeatCount="indefinite" type="scale" values="1;1;1;1;1;1;1;1;1;1;1;1;1;1;1;1;1;1;1;1;1;1;1;1;1;1;1;1;1;1;1;1;1;1;1;1;1;1;1;1;1;1;1;1;1;1;1;1;1;1;1;1;1;1;1;1;1;1;1;1;1;1;1;1;1;1;1;1;1;1;1;1;1;1;1;1;1;1;1;1;1;1;1;1;1;1;1;1;1;1;1 0.01;1"/> 
                <path class="Eyes-Dog4fil363" d="M11967 13307c-42,-885 -457,-1648 -1064,-1755 -546,-95 -1091,115 -1436,535 -580,704 -359,2023 148,2350 713,460 1465,178 1907,-90 243,-147 427,-541 445,-1040z"/>
                <path class="Eyes-Dog4fil364" d="M10409 11432c697,-163 1272,341 1437,1087 166,746 -141,1452 -838,1614 -698,163 -1397,-310 -1562,-1056 -166,-746 265,-1483 963,-1645z"/>
            </g>
            <g>
                <animateTransform additive="sum" attributeName="transform" dur="10" repeatCount="indefinite" type="translate" values="0;0;0;0;0;0;0;0;0;0;0;0;0;0;0;0;0;0;0;0;0;0;0;0;0;0;0;0;0;0;0;0;0;0;0;0;0;0;0;0;0;0;0;0;0;0;0;0;0;0;0;0;0;0;0;0;0;0;0;0;0;0;0;0;0;0;0;0;0;0;0;0;0;0;0;0;0;0;0;0;0;0;0;0;0;0;0;0;0;0;0 -14590;0"/>    
                <g>
                    <animateTransform additive="sum" attributeName="transform" dur="10" repeatCount="indefinite" type="translate" values="0;0;0;0;0;0;0;0;0;0;0;0;0;0;0;0;0;0;0;0;0;0;0;0;0;0;0;0;0;0;0;0;0;0;0;0;0;0;0;0;0;0;0;0;0;0;0;0;0;0;0;0;0;0;0;0;0;0;0;0;0;0;0;0;0;0;0;0;0;0;0;0;0;0;0;0;0;0;0;0;0;0;0;0;0;0;0;0;0;0;0;0 14000;0"/>
                    <g>
                        <animateTransform additive="sum" attributeName="transform" dur="10" repeatCount="indefinite" type="scale" values="1;1;1;1;1;1;1;1;1;1;1;1;1;1;1;1;1;1;1;1;1;1;1;1;1;1;1;1;1;1;1;1;1;1;1;1;1;1;1;1;1;1;1;1;1;1;1;1;1;1;1;1;1;1;1;1;1;1;1;1;1;1;1;1;1;1;1;1;1;1;1;1;1;1;1;1;1;1;1;1;1;1;1;1;1;1;1;1;1;1;1;1 0.05;1"/> 
                        <path class="Eyes-Dog4fil157" d="M12026 13978c257,-867 -202,-2293 -1000,-2552 -645,-210 -1334,-20 -1764,474 -292,335 -455,712 -524,1081 437,-844 1220,-1289 1860,-1185 911,149 1281,1079 1428,2182z"/>
                    </g>
                </g>
            </g>
            <g>
                <animateTransform additive="sum" attributeName="transform" dur="10" repeatCount="indefinite" type="translate" values="0;0;0;0;0;0;0;0;0;0;0;0;0;0;0;0;0;0;0;0;0;0;0;0;0;0;0;0;0;0;0;0;0;0;0;0;0;0;0;0;0;0;0;0;0;0;0;0;0;0;0;0;0;0;0;0;0;0;0;0;0;0;0;0;0;0;0;0;0;0;0;0;0;0;0;0;0;0;0;0;0;0;0;0;0;0;0;0;0;0;0 -14350;0"/>    
                <g>
                    <animateTransform additive="sum" attributeName="transform" dur="10" repeatCount="indefinite" type="translate" values="0;0;0;0;0;0;0;0;0;0;0;0;0;0;0;0;0;0;0;0;0;0;0;0;0;0;0;0;0;0;0;0;0;0;0;0;0;0;0;0;0;0;0;0;0;0;0;0;0;0;0;0;0;0;0;0;0;0;0;0;0;0;0;0;0;0;0;0;0;0;0;0;0;0;0;0;0;0;0;0;0;0;0;0;0;0;0;0;0;0;0;0;0 12970;0"/>
                    <g>
                        <animateTransform additive="sum" attributeName="transform" dur="10" repeatCount="indefinite" type="scale" values="1;1;1;1;1;1;1;1;1;1;1;1;1;1;1;1;1;1;1;1;1;1;1;1;1;1;1;1;1;1;1;1;1;1;1;1;1;1;1;1;1;1;1;1;1;1;1;1;1;1;1;1;1;1;1;1;1;1;1;1;1;1;1;1;1;1;1;1;1;1;1;1;1;1;1;1;1;1;1;1;1;1;1;1;1;1;1;1;1;1;1;1;1 0.1;1"/>
                        <circle class="Eyes-Dog4fil152" r="235" transform="matrix(0.392601 0.160549 -0.20751 0.481362 11516.9 13436.2)"/>
                        <circle class="Eyes-Dog4fil152" r="235" transform="matrix(0.554042 -1.05186 0.853042 0.366906 11505 13936.9)"/>
                    </g>
                </g>
            </g>
            <g>
                <animateTransform additive="sum" attributeName="transform" dur="10" repeatCount="indefinite" type="translate" values="0;0;0;0;0;0;0;0;0;0;0;0;0;0;0;0;0;0;0;0;0;0;0;0;0;0;0;0;0;0;0;0;0;0;0;0;0;0;0;0;0;0;0;0;0;0;0;0;0;0;0;0;0;0;0;0;0;0;0;0;0;0;0;0;0;0;0;0;0;0;0;0;0;0;0;0;0;0;0;0;0;0;0;0;0;0;0;0;0;0;0 -14300;0"/>    
                <g>
                    <animateTransform additive="sum" attributeName="transform" dur="10" repeatCount="indefinite" type="translate" values="0;0;0;0;0;0;0;0;0;0;0;0;0;0;0;0;0;0;0;0;0;0;0;0;0;0;0;0;0;0;0;0;0;0;0;0;0;0;0;0;0;0;0;0;0;0;0;0;0;0;0;0;0;0;0;0;0;0;0;0;0;0;0;0;0;0;0;0;0;0;0;0;0;0;0;0;0;0;0;0;0;0;0;0;0;0;0;0;0;0;0;0;0 12970;0"/>
                    <g>
                        <animateTransform additive="sum" attributeName="transform" dur="10" repeatCount="indefinite" type="scale" values="1;1;1;1;1;1;1;1;1;1;1;1;1;1;1;1;1;1;1;1;1;1;1;1;1;1;1;1;1;1;1;1;1;1;1;1;1;1;1;1;1;1;1;1;1;1;1;1;1;1;1;1;1;1;1;1;1;1;1;1;1;1;1;1;1;1;1;1;1;1;1;1;1;1;1;1;1;1;1;1;1;1;1;1;1;1;1;1;1;1;1;1;1 0.1;1"/>
                        <path class="Eyes-Dog4fil152" d="M9323 13827c343,-35 386,-152 407,-575 21,423 64,540 407,575 -343,35 -386,152 -407,576 -21,-424 -64,-541 -407,-576z"/>
                        <path class="Eyes-Dog4fil152" d="M9221 14256c142,-14 159,-62 168,-236 9,174 26,222 168,236 -142,15 -159,63 -168,237 -9,-174 -26,-222 -168,-237z"/>
                        <path class="Eyes-Dog4fil152" d="M9953 14036c62,-6 70,-28 74,-104 4,76 11,98 73,104 -62,6 -69,27 -73,104 -4,-77 -12,-98 -74,-104z"/>
                    </g>
                </g>
            </g>
            <g>
                <animateTransform additive="sum" attributeName="transform" dur="10" repeatCount="indefinite" type="translate" values="0;0;0;0;0;0;0;0;0;0;0;0;0;0;0;0;0;0;0;0;0;0;0;0;0;0;0;0;0;0;0;0;0;0;0;0;0;0;0;0;0;0;0;0;0;0;0;0;0;0;0;0;0;0;0;0;0;0;0;0;0;0;0;0;0;0;0;0;0;0;0;0;0;0;0;0;0;0;0;0;0;0;0;0;0;0;0;0;0;0;0 -13500;0"/>  
                <g>
                    <animateTransform additive="sum" attributeName="transform" dur="10" repeatCount="indefinite" type="translate" values="0;0;0;0;0;0;0;0;0;0;0;0;0;0;0;0;0;0;0;0;0;0;0;0;0;0;0;0;0;0;0;0;0;0;0;0;0;0;0;0;0;0;0;0;0;0;0;0;0;0;0;0;0;0;0;0;0;0;0;0;0;0;0;0;0;0;0;0;0;0;0;0;0;0;0;0;0;0;0;0;0;0;0;0;0;0;0;0;0;0;0;0 13000;0"/>
                    <g>
						<animateTransform additive="sum" attributeName="transform" dur="10" repeatCount="indefinite" type="scale" values="1;1;1;1;1;1;1;1;1;1;1;1;1;1;1;1;1;1;1;1;1;1;1;1;1;1;1;1;1;1;1;1;1;1;1;1;1;1;1;1;1;1;1;1;1;1;1;1;1;1;1;1;1;1;1;1;1;1;1;1;1;1;1;1;1;1;1;1;1;1;1;1;1;1;1;1;1;1;1;1;1;1;1;1;1;1;1;1;1;1;1;1 0.05;1"/>
                        <path class="Eyes-Dog4fil152" d="M11218 14324c62,-7 69,-28 73,-104 4,76 12,97 74,104 -62,6 -70,27 -74,104 -4,-77 -11,-98 -73,-104z"/>
                        <path class="Eyes-Dog4fil152" d="M11042 14114c62,-6 70,-27 73,-103 4,76 12,97 74,103 -62,7 -70,28 -74,104 -3,-76 -11,-97 -73,-104z"/>
                    </g>
                </g>
                <g>
                    <animateTransform additive="sum" attributeName="transform" dur="10" repeatCount="indefinite" type="translate" values="0;0;0;0;0;0;0;0;0;0;0;0;0;0;0;0;0;0;0;0;0;0;0;0;0;0;0;0;0;0;0;0;0;0;0;0;0;0;0;0;0;0;0;0;0;0;0;0;0;0;0;0;0;0;0;0;0;0;0;0;0;0;0;0;0;0;0;0;0;0;0;0;0;0;0;0;0;0;0;0;0;0;0;0;0;0;0;0;0;0;0;0 13150;0"/>
                    <g>
                        <animateTransform additive="sum" attributeName="transform" dur="10" repeatCount="indefinite" type="scale" values="1;1;1;1;1;1;1;1;1;1;1;1;1;1;1;1;1;1;1;1;1;1;1;1;1;1;1;1;1;1;1;1;1;1;1;1;1;1;1;1;1;1;1;1;1;1;1;1;1;1;1;1;1;1;1;1;1;1;1;1;1;1;1;1;1;1;1;1;1;1;1;1;1;1;1;1;1;1;1;1;1;1;1;1;1;1;1;1;1;1;1;1 0.05;1"/>
                        <circle class="Eyes-Dog4fil152" r="235" transform="matrix(1.00604 -1.81791 1.45034 0.651615 9752.16 12184.1)"/>
                    </g>
                </g> 
            </g>
			<g>
                <animateTransform additive="sum" attributeName="transform" dur="10" repeatCount="indefinite" type="scale" values="1;1;1;1;1;1;1;1;1;1;1;1;1;1;1;1;1;1;1;1;1;1;1;1;1;1;1;1;1;1;1;1;1;1;1;1;1;1;1;1;1;1;1;1;1;1;1;1;1;1;1;1;1;1;1;1;1;1;1;1;1;1;1;1;1;1;1;1;1;1;1;1;1;1;1;1;1;1;1;1;1;1;1;1;1;1;1;1;1;1;1 0.01;1"/> 
                <path class="Eyes-Dog4fil22 Eyes-Dog4str4" d="M9238 14761c774,527 1990,76 2449,-260 807,-593 339,-2751 -661,-3075 -645,-210 -1334,-20 -1764,474 -908,1044 -574,2485 -24,2861z"/>
            </g>
        </g>
    </g>
  <g>
    <animateTransform additive="sum" attributeName="transform" dur="10" repeatCount="indefinite" type="translate" values="0;0;0;0;0;0;0;0;0;0;0;0;0;0;0;0;0;0;0;0;0;0;0;0;0;0;0;0;0;0;0;0;0;0;0;0;0;0;0;0;0;0;0;0;0;0;0;0;0;0;0;0;0;0;0;0;0;0;0;0;0;0;0;0;0;0;0;0;0;0;0;0;0;0;0;0;0;0;0;0;0;0;0;0;0;0;0;0;0;0;0 14300;0"/>
    <g>
        <g>
            <animateTransform additive="sum" attributeName="transform" dur="10" repeatCount="indefinite" type="scale" values="1;1;1;1;1;1;1;1;1;1;1;1;1;1;1;1;1;1;1;1;1;1;1;1;1;1;1;1;1;1;1;1;1;1;1;1;1;1;1;1;1;1;1;1;1;1;1;1;1;1;1;1;1;1;1;1;1;1;1;1;1;1;1;1;1;1;1;1;1;1;1;1;1;1;1;1;1;1;1;1;1;1;1;1;1;1;1;1;1;1;1 0.01;1"/> 
            <path class="Eyes-Dog4fil365" d="M18126 14761c-774,527 -1991,76 -2449,-260 -807,-593 -340,-2751 661,-3075 645,-210 1334,-20 1764,474 908,1044 574,2485 24,2861z"/>
        </g>
        <g>
            <animateTransform additive="sum" attributeName="transform" dur="10" repeatCount="indefinite" type="scale" values="1;1;1;1;1;1;1;1;1;1;1;1;1;1;1;1;1;1;1;1;1;1;1;1;1;1;1;1;1;1;1;1;1;1;1;1;1;1;1;1;1;1;1;1;1;1;1;1;1;1;1;1;1;1;1;1;1;1;1;1;1;1;1;1;1;1;1;1;1;1;1;1;1;1;1;1;1;1;1;1;1;1;1;1;1;1;1;1;1;1;1 0.01;1"/> 
            <path class="Eyes-Dog4fil366" d="M15397 13307c42,-885 457,-1648 1064,-1755 545,-95 1091,115 1436,535 580,704 359,2023 -148,2350 -713,460 -1465,178 -1907,-90 -243,-147 -427,-541 -445,-1040z"/>
            <path class="Eyes-Dog4fil367" d="M16955 11432c-697,-163 -1272,341 -1437,1087 -166,746 141,1452 838,1614 697,163 1397,-310 1562,-1056 166,-746 -265,-1483 -963,-1645z"/>
        </g>
        <g>
            <animateTransform additive="sum" attributeName="transform" dur="10" repeatCount="indefinite" type="translate" values="0;0;0;0;0;0;0;0;0;0;0;0;0;0;0;0;0;0;0;0;0;0;0;0;0;0;0;0;0;0;0;0;0;0;0;0;0;0;0;0;0;0;0;0;0;0;0;0;0;0;0;0;0;0;0;0;0;0;0;0;0;0;0;0;0;0;0;0;0;0;0;0;0;0;0;0;0;0;0;0;0;0;0;0;0;0;0;0;0;0;0 -14590;0"/>    
            <g>
                <animateTransform additive="sum" attributeName="transform" dur="10" repeatCount="indefinite" type="translate" values="0;0;0;0;0;0;0;0;0;0;0;0;0;0;0;0;0;0;0;0;0;0;0;0;0;0;0;0;0;0;0;0;0;0;0;0;0;0;0;0;0;0;0;0;0;0;0;0;0;0;0;0;0;0;0;0;0;0;0;0;0;0;0;0;0;0;0;0;0;0;0;0;0;0;0;0;0;0;0;0;0;0;0;0;0;0;0;0;0;0;0;0 14000;0"/>
                <g>
                    <animateTransform additive="sum" attributeName="transform" dur="10" repeatCount="indefinite" type="scale" values="1;1;1;1;1;1;1;1;1;1;1;1;1;1;1;1;1;1;1;1;1;1;1;1;1;1;1;1;1;1;1;1;1;1;1;1;1;1;1;1;1;1;1;1;1;1;1;1;1;1;1;1;1;1;1;1;1;1;1;1;1;1;1;1;1;1;1;1;1;1;1;1;1;1;1;1;1;1;1;1;1;1;1;1;1;1;1;1;1;1;1;1 0.05;1"/> 
                    <path class="Eyes-Dog4fil157" d="M15338 13978c-257,-867 201,-2293 1000,-2552 645,-210 1334,-20 1764,474 292,335 455,712 524,1081 -437,-844 -1220,-1289 -1860,-1185 -911,149 -1282,1079 -1428,2182z"/>
                </g>
            </g>
        </g>
        <g>
            <animateTransform additive="sum" attributeName="transform" dur="10" repeatCount="indefinite" type="translate" values="0;0;0;0;0;0;0;0;0;0;0;0;0;0;0;0;0;0;0;0;0;0;0;0;0;0;0;0;0;0;0;0;0;0;0;0;0;0;0;0;0;0;0;0;0;0;0;0;0;0;0;0;0;0;0;0;0;0;0;0;0;0;0;0;0;0;0;0;0;0;0;0;0;0;0;0;0;0;0;0;0;0;0;0;0;0;0;0;0;0;0 -14350;0"/>    
            <g>
                <animateTransform additive="sum" attributeName="transform" dur="10" repeatCount="indefinite" type="translate" values="0;0;0;0;0;0;0;0;0;0;0;0;0;0;0;0;0;0;0;0;0;0;0;0;0;0;0;0;0;0;0;0;0;0;0;0;0;0;0;0;0;0;0;0;0;0;0;0;0;0;0;0;0;0;0;0;0;0;0;0;0;0;0;0;0;0;0;0;0;0;0;0;0;0;0;0;0;0;0;0;0;0;0;0;0;0;0;0;0;0;0;0;0 12970;0"/>
                <g>
                    <animateTransform additive="sum" attributeName="transform" dur="10" repeatCount="indefinite" type="scale" values="1;1;1;1;1;1;1;1;1;1;1;1;1;1;1;1;1;1;1;1;1;1;1;1;1;1;1;1;1;1;1;1;1;1;1;1;1;1;1;1;1;1;1;1;1;1;1;1;1;1;1;1;1;1;1;1;1;1;1;1;1;1;1;1;1;1;1;1;1;1;1;1;1;1;1;1;1;1;1;1;1;1;1;1;1;1;1;1;1;1;1;1;1 0.1;1"/>
                    <path class="Eyes-Dog4fil152" d="M16477 13804c-343,-35 -386,-152 -407,-575 -21,423 -64,540 -407,575 343,35 386,152 407,576 21,-424 64,-541 407,-576z"/>
                    <path class="Eyes-Dog4fil152" d="M15938 14153c-142,-14 -159,-62 -168,-237 -9,175 -26,223 -168,237 142,15 159,63 168,237 9,-174 26,-222 168,-237z"/>
                    <path class="Eyes-Dog4fil152" d="M16539 14145c-62,-6 -69,-28 -73,-104 -4,76 -12,98 -74,104 62,6 70,27 74,104 4,-77 11,-98 73,-104z"/>
                </g>
            </g>
        </g>
        <g>
            <animateTransform additive="sum" attributeName="transform" dur="10" repeatCount="indefinite" type="translate" values="0;0;0;0;0;0;0;0;0;0;0;0;0;0;0;0;0;0;0;0;0;0;0;0;0;0;0;0;0;0;0;0;0;0;0;0;0;0;0;0;0;0;0;0;0;0;0;0;0;0;0;0;0;0;0;0;0;0;0;0;0;0;0;0;0;0;0;0;0;0;0;0;0;0;0;0;0;0;0;0;0;0;0;0;0;0;0;0;0;0;0 -14300;0"/>    
            <g>
                <animateTransform additive="sum" attributeName="transform" dur="10" repeatCount="indefinite" type="translate" values="0;0;0;0;0;0;0;0;0;0;0;0;0;0;0;0;0;0;0;0;0;0;0;0;0;0;0;0;0;0;0;0;0;0;0;0;0;0;0;0;0;0;0;0;0;0;0;0;0;0;0;0;0;0;0;0;0;0;0;0;0;0;0;0;0;0;0;0;0;0;0;0;0;0;0;0;0;0;0;0;0;0;0;0;0;0;0;0;0;0;0;0;0 12970;0"/>
                <g>
                    <animateTransform additive="sum" attributeName="transform" dur="10" repeatCount="indefinite" type="scale" values="1;1;1;1;1;1;1;1;1;1;1;1;1;1;1;1;1;1;1;1;1;1;1;1;1;1;1;1;1;1;1;1;1;1;1;1;1;1;1;1;1;1;1;1;1;1;1;1;1;1;1;1;1;1;1;1;1;1;1;1;1;1;1;1;1;1;1;1;1;1;1;1;1;1;1;1;1;1;1;1;1;1;1;1;1;1;1;1;1;1;1;1;1 0.1;1"/>
                    <circle class="Eyes-Dog4fil152" r="235" transform="matrix(0.392601 0.160549 -0.20751 0.481362 17996.5 13474.7)"/>
                    <circle class="Eyes-Dog4fil152" r="235" transform="matrix(0.554042 -1.05186 0.853042 0.366906 17989.3 14052.3)"/>
                </g>
            </g>
        </g>
        <g>
            <animateTransform additive="sum" attributeName="transform" dur="10" repeatCount="indefinite" type="translate" values="0;0;0;0;0;0;0;0;0;0;0;0;0;0;0;0;0;0;0;0;0;0;0;0;0;0;0;0;0;0;0;0;0;0;0;0;0;0;0;0;0;0;0;0;0;0;0;0;0;0;0;0;0;0;0;0;0;0;0;0;0;0;0;0;0;0;0;0;0;0;0;0;0;0;0;0;0;0;0;0;0;0;0;0;0;0;0;0;0;0;0 -13500;0"/>  
            <g>
                <animateTransform additive="sum" attributeName="transform" dur="10" repeatCount="indefinite" type="translate" values="0;0;0;0;0;0;0;0;0;0;0;0;0;0;0;0;0;0;0;0;0;0;0;0;0;0;0;0;0;0;0;0;0;0;0;0;0;0;0;0;0;0;0;0;0;0;0;0;0;0;0;0;0;0;0;0;0;0;0;0;0;0;0;0;0;0;0;0;0;0;0;0;0;0;0;0;0;0;0;0;0;0;0;0;0;0;0;0;0;0;0;0 13000;0"/>
                <g>
                    <animateTransform additive="sum" attributeName="transform" dur="10" repeatCount="indefinite" type="scale" values="1;1;1;1;1;1;1;1;1;1;1;1;1;1;1;1;1;1;1;1;1;1;1;1;1;1;1;1;1;1;1;1;1;1;1;1;1;1;1;1;1;1;1;1;1;1;1;1;1;1;1;1;1;1;1;1;1;1;1;1;1;1;1;1;1;1;1;1;1;1;1;1;1;1;1;1;1;1;1;1;1;1;1;1;1;1;1;1;1;1;1;1 0.05;1"/>
                    <path class="Eyes-Dog4fil152" d="M17934 14519c-62,-7 -69,-28 -73,-104 -4,76 -12,97 -74,104 62,6 70,27 74,103 4,-76 11,-97 73,-103z"/>
                    <path class="Eyes-Dog4fil152" d="M17698 14259c-62,-7 -70,-28 -74,-104 -4,76 -12,97 -74,104 62,6 70,27 74,104 4,-77 12,-98 74,-104z"/>
                </g>
            </g>
            <g>
                <animateTransform additive="sum" attributeName="transform" dur="10" repeatCount="indefinite" type="translate" values="0;0;0;0;0;0;0;0;0;0;0;0;0;0;0;0;0;0;0;0;0;0;0;0;0;0;0;0;0;0;0;0;0;0;0;0;0;0;0;0;0;0;0;0;0;0;0;0;0;0;0;0;0;0;0;0;0;0;0;0;0;0;0;0;0;0;0;0;0;0;0;0;0;0;0;0;0;0;0;0;0;0;0;0;0;0;0;0;0;0;0;0 13150;0"/>
                <g>
                    <animateTransform additive="sum" attributeName="transform" dur="10" repeatCount="indefinite" type="scale" values="1;1;1;1;1;1;1;1;1;1;1;1;1;1;1;1;1;1;1;1;1;1;1;1;1;1;1;1;1;1;1;1;1;1;1;1;1;1;1;1;1;1;1;1;1;1;1;1;1;1;1;1;1;1;1;1;1;1;1;1;1;1;1;1;1;1;1;1;1;1;1;1;1;1;1;1;1;1;1;1;1;1;1;1;1;1;1;1;1;1;1;1 0.05;1"/>
                    <circle class="Eyes-Dog4fil152" r="235" transform="matrix(1.00604 -1.81791 1.45034 0.651615 16199.4 12184.1)"/>
                </g>
            </g> 
        </g>
        <g>
            <animateTransform additive="sum" attributeName="transform" dur="10" repeatCount="indefinite" type="scale" values="1;1;1;1;1;1;1;1;1;1;1;1;1;1;1;1;1;1;1;1;1;1;1;1;1;1;1;1;1;1;1;1;1;1;1;1;1;1;1;1;1;1;1;1;1;1;1;1;1;1;1;1;1;1;1;1;1;1;1;1;1;1;1;1;1;1;1;1;1;1;1;1;1;1;1;1;1;1;1;1;1;1;1;1;1;1;1;1;1;1;1 0.01;1"/> 
            <path class="Eyes-Dog4fil22 Eyes-Dog4str4" d="M18126 14761c-774,527 -1991,76 -2449,-260 -807,-593 -340,-2751 661,-3075 645,-210 1334,-20 1764,474 908,1044 574,2485 24,2861z"/>
        </g>
    </g>
</g>
<g>
            <animateTransform additive="sum" attributeName="transform" dur="10" repeatCount="indefinite" type="translate" values="0;0;0;0;0;0;0;0;0;0;0;0;0;0;0;0;0;0;0;0;0;0;0;0;0;0;0;0;0;0;0;0;0;0;0;0;0;0;0;0;0;0;0;0;0;0;0;0;0;0;0;0;0;0;0;0;0;0;0;0;0;0;0;0;0;0;0;0;0;0;0;0;0;0;0;0;0;0;0;0;0;0;0;0;0;0;0;0;0;0;3000 -2100;0"/>
            <g>
                <animateTransform additive="sum" attributeName="transform" dur="10" repeatCount="indefinite" type="rotate" values="0;0;0;0;0;0;0;0;0;0;0;0;0;0;0;0;0;0;0;0;0;0;0;0;0;0;0;0;0;0;0;0;0;0;0;0;0;0;0;0;0;0;0;0;0;0;0;0;0;0;0;0;0;0;0;0;0;0;0;0;0;0;0;0;0;0;0;0;0;0;0;0;0;0;0;0;0;0;0;0;0;0;0;0;0;0;0;0;0;0;10;0"/>
                <g>
                    <animateTransform additive="sum" attributeName="transform" dur="10" repeatCount="indefinite" type="translate" values="0;0;0;0;0;0;0;0;0;0;0;0;0;0;0;0;0;0;0;0;0;0;0;0;0;0;0;0;0;0;0;0;0;0;0;0;0;0;0;0;0;0;0;0;0;0;0;0;0;0;0;0;0;0;0;0;0;0;0;0;0;0;0;0;0;0;0;0;0;0;0;0;0;0;0;0;0;0;0;0;0;0;0;0;0;0;0;0;0;0;0 1500;0"/> 
                    <path class="Eyes-Dog4fil155" d="M10667 10175c-64,108 -462,201 -859,474 -365,250 -590,589 -760,563 -189,-28 -206,-429 -90,-643 96,-176 471,-454 904,-549 512,-114 881,25 805,155z"/>
                </g>
                <g>
                    <animateTransform additive="sum" attributeName="transform" dur="10" repeatCount="indefinite" type="translate" values="0;0;0;0;0;0;0;0;0;0;0;0;0;0;0;0;0;0;0;0;0;0;0;0;0;0;0;0;0;0;0;0;0;0;0;0;0;0;0;0;0;0;0;0;0;0;0;0;0;0;0;0;0;0;0;0;0;0;0;0;0;0;0;0;0;0;0;0;0;0;0;0;0;0;0;0;0;0;0;0;0;0;0;0;0;0;0;0;0;0;0 1500;0"/> 
                    <path class="Eyes-Dog4fil14" d="M10667 10175c-64,108 -462,201 -859,474 -365,250 -590,589 -760,563 -189,-28 -206,-429 -90,-643 96,-176 471,-454 904,-549 512,-114 881,25 805,155z"/>
                </g>
            </g>
        </g>  
        <g>
            <animateTransform additive="sum" attributeName="transform" dur="10" repeatCount="indefinite" type="translate" values="0;0;0;0;0;0;0;0;0;0;0;0;0;0;0;0;0;0;0;0;0;0;0;0;0;0;0;0;0;0;0;0;0;0;0;0;0;0;0;0;0;0;0;0;0;0;0;0;0;0;0;0;0;0;0;0;0;0;0;0;0;0;0;0;0;0;0;0;0;0;0;0;0;0;0;0;0;0;0;0;0;0;0;0;0;0;0;0;0;0;-2100 3000;0"/>
            <g>
                <animateTransform additive="sum" attributeName="transform" dur="10" repeatCount="indefinite" type="rotate" values="0;0;0;0;0;0;0;0;0;0;0;0;0;0;0;0;0;0;0;0;0;0;0;0;0;0;0;0;0;0;0;0;0;0;0;0;0;0;0;0;0;0;0;0;0;0;0;0;0;0;0;0;0;0;0;0;0;0;0;0;0;0;0;0;0;0;0;0;0;0;0;0;0;0;0;0;0;0;0;0;0;0;0;0;0;0;0;0;0;0;-10;0"/>
                <g>
                    <animateTransform additive="sum" attributeName="transform" dur="10" repeatCount="indefinite" type="translate" values="0;0;0;0;0;0;0;0;0;0;0;0;0;0;0;0;0;0;0;0;0;0;0;0;0;0;0;0;0;0;0;0;0;0;0;0;0;0;0;0;0;0;0;0;0;0;0;0;0;0;0;0;0;0;0;0;0;0;0;0;0;0;0;0;0;0;0;0;0;0;0;0;0;0;0;0;0;0;0;0;0;0;0;0;0;0;0;0;0;0;0 1500;0"/> 
                    <path class="Eyes-Dog4fil155" d="M16697 10175c64,108 462,201 859,474 365,250 590,589 760,563 188,-28 206,-429 90,-643 -96,-176 -471,-454 -904,-549 -512,-114 -882,25 -805,155z"/>
                </g>
                <g>
                    <animateTransform additive="sum" attributeName="transform" dur="10" repeatCount="indefinite" type="translate" values="0;0;0;0;0;0;0;0;0;0;0;0;0;0;0;0;0;0;0;0;0;0;0;0;0;0;0;0;0;0;0;0;0;0;0;0;0;0;0;0;0;0;0;0;0;0;0;0;0;0;0;0;0;0;0;0;0;0;0;0;0;0;0;0;0;0;0;0;0;0;0;0;0;0;0;0;0;0;0;0;0;0;0;0;0;0;0;0;0;0;0 1500;0"/> 
                    <path class="Eyes-Dog4fil14" d="M16697 10175c64,108 462,201 859,474 365,250 590,589 760,563 188,-28 206,-429 90,-643 -96,-176 -471,-454 -904,-549 -512,-114 -882,25 -805,155z"/>
                </g>
            </g>
        </g>
 </g><g id="Moustache-Dog0">
 <animateTransform additive="sum" attributeName="transform" dur="10" repeatCount="indefinite" type="translate" values="0;0 200;0;0 200;0;0 200;0;0 200;0"/>
  <metadata id="CorelCorpID_200Corel-Layer"/>
  <rect class="Moustache-Dog0fil22" height="487" width="487" x="13438" y="12949"/>
 </g><g id="Nose-Dog0">
 <animateTransform additive="sum" attributeName="transform" dur="10" repeatCount="indefinite" type="translate" values="0;0 200;0;0 200;0;0 200;0;0 200;0"/>
  <metadata id="CorelCorpID_208Corel-Layer"/>
  <path class="Nose-Dog0fil416 Nose-Dog0str0" d="M13682 14020c-283,0 -678,136 -648,338 28,185 288,481 648,481 360,0 620,-296 648,-481 30,-202 -365,-338 -648,-338z" style="fill:#ec41fc"/>
 </g><g id="Hair-Dog4">
 <animateTransform additive="sum" attributeName="transform" dur="10" repeatCount="indefinite" type="translate" values="0;0 200;0;0 200;0;0 200;0;0 200;0"/>
  <metadata id="CorelCorpID_213Corel-Layer"/>
  <path class="Hair-Dog4fil420 Hair-Dog4str0" d="M10980 8153c823,-114 749,589 1586,377 1667,-424 494,1566 1970,1445 584,-47 278,950 1058,1181 279,82 948,162 1286,-437 -1004,-311 -216,-914 -117,-1367 261,-1185 -743,-821 -664,-1772 83,-1011 -1592,-2441 -2995,-1401 -1147,852 -1830,69 -2124,1974z" style="fill:#fa849c"/>
  <path class="Hair-Dog4fil14" d="M10980 8153c823,-114 749,589 1586,377 1667,-424 494,1566 1970,1445 584,-47 278,950 1058,1181 273,81 924,159 1267,-404 -468,123 -1146,154 -1390,-458 -673,-1682 -1238,-444 -1422,-1443 -283,-1533 -1190,-576 -2000,-1040 -417,-238 -670,126 -1065,315 -1,9 -3,18 -4,27z" style="fill:#b6c6d5"/>
 </g></svg>