<svg xmlns="http://www.w3.org/2000/svg" xmlns:xlink="http://www.w3.org/1999/xlink" style="shape-rendering:geometricPrecision; text-rendering:geometricPrecision; image-rendering:optimizeQuality; fill-rule:evenodd; clip-rule:evenodd" version="1.1" viewBox="0 0 29000 29000" xml:space="preserve"><defs><style type="text/css">.HairBack-Pig0fil0 {fill:none}
.Tail-Pig0fil0 {fill:none}
.RightFoot-Pig0fil37 {fill:#736d6b}
.RightFoot-Pig0fil38 {fill:#77613d}
.RightFoot-Pig0fil39 {fill:url(#RightFoot-Pig0id227)}
.RightFoot-Pig0fil40 {fill:black}
.RightFoot-Pig0fil10 {fill:black;fill-opacity:0.200000}
.RightFoot-Pig0fil0 {fill:none}
.RightFoot-Pig0str2 {stroke:black;stroke-width:150;stroke-linecap:round;stroke-linejoin:round}
.RightLeg-Pig4fil52 {fill:url(#RightLeg-Pig4id37)}
.RightLeg-Pig4fil10 {fill:black;fill-opacity:0.200000}
.RightLeg-Pig4fil0 {fill:none}
.RightLeg-Pig4str2 {stroke:black;stroke-width:150;stroke-linecap:round;stroke-linejoin:round}
.LeftFoot-Pig0fil37 {fill:#736d6b}
.LeftFoot-Pig0fil38 {fill:#77613d}
.LeftFoot-Pig0fil57 {fill:url(#LeftFoot-Pig0id220)}
.LeftFoot-Pig0fil40 {fill:black}
.LeftFoot-Pig0fil10 {fill:black;fill-opacity:0.200000}
.LeftFoot-Pig0fil0 {fill:none}
.LeftFoot-Pig0str2 {stroke:black;stroke-width:150;stroke-linecap:round;stroke-linejoin:round}
.LeftLeg-Pig4fil67 {fill:url(#LeftLeg-Pig4id2)}
.LeftLeg-Pig4fil10 {fill:black;fill-opacity:0.200000}
.LeftLeg-Pig4fil0 {fill:none}
.LeftLeg-Pig4str2 {stroke:black;stroke-width:150;stroke-linecap:round;stroke-linejoin:round}
.RightHand-Pig0fil68 {fill:url(#RightHand-Pig0id57)}
.RightHand-Pig0fil10 {fill:black;fill-opacity:0.200000}
.RightHand-Pig0fil0 {fill:none}
.RightHand-Pig0str0 {stroke:black;stroke-width:150;stroke-linecap:round;stroke-linejoin:round}
.RightPaw-Pig0fil74 {fill:url(#RightPaw-Pig0id25)}
.RightPaw-Pig0fil10 {fill:black;fill-opacity:0.200000}
.RightPaw-Pig0fil75 {fill:url(#RightPaw-Pig0id217)}
.RightPaw-Pig0fil40 {fill:black}
.RightPaw-Pig0fil0 {fill:none}
.RightPaw-Pig0str2 {stroke:black;stroke-width:150;stroke-linecap:round;stroke-linejoin:round}
.LeftHand-Pig0fil79 {fill:url(#LeftHand-Pig0id22)}
.LeftHand-Pig0fil10 {fill:black;fill-opacity:0.200000}
.LeftHand-Pig0fil0 {fill:none}
.LeftHand-Pig0str0 {stroke:black;stroke-width:150;stroke-linecap:round;stroke-linejoin:round}
.Body-Pig0fil83 {fill:url(#Body-Pig0id42)}
.Body-Pig0fil10 {fill:black;fill-opacity:0.200000}
.Body-Pig0fil84 {fill:black;fill-rule:nonzero}
.LeftPaw-Pig0fil91 {fill:url(#LeftPaw-Pig0id70)}
.LeftPaw-Pig0fil10 {fill:black;fill-opacity:0.200000}
.LeftPaw-Pig0fil92 {fill:url(#LeftPaw-Pig0id209)}
.LeftPaw-Pig0fil40 {fill:black}
.LeftPaw-Pig0fil0 {fill:none}
.LeftPaw-Pig0str2 {stroke:black;stroke-width:150;stroke-linecap:round;stroke-linejoin:round}
.Ears-Pig4fil118 {fill:url(#Ears-Pig4id77)}
.Ears-Pig4fil84 {fill:black;fill-rule:nonzero}
.Ears-Pig4fil115 {fill:black;fill-opacity:0.101961}
.Ears-Pig4fil10 {fill:black;fill-opacity:0.200000}
.Ears-Pig4fil120 {fill:url(#Ears-Pig4id26)}
.Ears-Pig4fil117 {fill:url(#Ears-Pig4id54)}
.Ears-Pig4str0 {stroke:black;stroke-width:150;stroke-linecap:round;stroke-linejoin:round}
.Ears-Pig4fil119 {fill:url(#Ears-Pig4id62)}
.Head-Pig6fil165 {fill:url(#Head-Pig6id36)}
.Head-Pig6fil166 {fill:url(#Head-Pig6id27)}
.Head-Pig6fil10 {fill:black;fill-opacity:0.200000}
.Head-Pig6fil84 {fill:black;fill-rule:nonzero}
.Mouth-Pig4fil169 {fill:black}
.Mouth-Pig4fil170 {fill:black;fill-rule:nonzero;fill-opacity:0.301961}
.Mouth-Pig4fil171 {fill:#FF9999}
.Mouth-Pig4fil0 {fill:none}
.Mouth-Pig4str0 {stroke:black;stroke-width:150;stroke-linecap:round;stroke-linejoin:round}
.EyesClosed-Pig9fil38 {fill:#77613d}
.EyesClosed-Pig9fil148 {fill:black;fill-opacity:0.501961}
.EyesClosed-Pig9fil84 {fill:black;fill-rule:nonzero}
.Eyes-Pig9fil226 {fill:url(#Eyes-Pig9id148)}
.Eyes-Pig9fil227 {fill:url(#Eyes-Pig9id10)}
.Eyes-Pig9fil228 {fill:url(#Eyes-Pig9id45)}
.Eyes-Pig9fil148 {fill:black;fill-opacity:0.501961}
.Eyes-Pig9fil173 {fill:white}
.Eyes-Pig9fil229 {fill:url(#Eyes-Pig9id161)}
.Eyes-Pig9fil230 {fill:url(#Eyes-Pig9id64)}
.Eyes-Pig9fil231 {fill:url(#Eyes-Pig9id76)}
.Eyes-Pig9fil0 {fill:none}
.Eyes-Pig9str0 {stroke:black;stroke-width:150;stroke-linecap:round;stroke-linejoin:round}
.Moustache-Pig3fil234 {fill:url(#Moustache-Pig3id41)}
.Moustache-Pig3fil84 {fill:black;fill-rule:nonzero}
.Moustache-Pig3fil10 {fill:black;fill-opacity:0.200000}
.Nose-Pig0fil236 {fill:url(#Nose-Pig0id201)}
.Nose-Pig0str0 {stroke:black;stroke-width:150;stroke-linecap:round;stroke-linejoin:round}
.Nose-Pig0fil26 {fill:black;fill-opacity:0.301961}
.Nose-Pig0str3 {stroke:black;stroke-width:150;stroke-linecap:round;stroke-linejoin:round;stroke-opacity:0.301961}
.Nose-Pig0fil237 {fill:none}
.Hair-Pig4fil250 {fill:url(#Hair-Pig4id8)}
.Hair-Pig4fil10 {fill:black;fill-opacity:0.200000}
.Hair-Pig4fil84 {fill:black;fill-rule:nonzero}
.Hair-Pig4fil246 {fill:#f2bc6b;fill-opacity:0.701961}
.Hair-Pig4fil251 {fill:url(#Hair-Pig4id24)}
.Hair-Pig4fil0 {fill:none}
.Hair-Pig4str0 {stroke:black;stroke-width:150;stroke-linecap:round;stroke-linejoin:round}
.Hair-Pig4fil252 {fill:url(#Hair-Pig4id85)}
.Hair-Pig4str1 {stroke:black;stroke-width:150}
</style><linearGradient gradientUnits="objectBoundingBox" id="RightFoot-Pig0id227" x1="49.9997%" x2="49.9997%" xlink:href="#RightFoot-Pig0id0" y1="100%" y2="0%">
  </linearGradient><linearGradient gradientUnits="objectBoundingBox" id="RightLeg-Pig4id37" x1="50%" x2="50%" xlink:href="#RightLeg-Pig4id2" y1="100%" y2="0%">
  </linearGradient><linearGradient gradientUnits="objectBoundingBox" id="LeftFoot-Pig0id220" x1="50.0003%" x2="50.0003%" xlink:href="#LeftFoot-Pig0id0" y1="100%" y2="0%">
  </linearGradient><linearGradient gradientUnits="userSpaceOnUse" id="LeftLeg-Pig4id2" x1="11782.6" x2="11782.6" y1="24212.9" y2="21311.8">
   <stop offset="0" style="stop-opacity:1; stop-color:#736d6b"/>
   <stop offset="0.388235" style="stop-opacity:1; stop-color:#736d6b"/>
   <stop offset="1" style="stop-opacity:1; stop-color:#5a4c46"/>
  </linearGradient><linearGradient gradientUnits="objectBoundingBox" id="RightHand-Pig0id57" x1="30.1244%" x2="69.8756%" xlink:href="#RightHand-Pig0id22" y1="2.32158%" y2="97.6784%">
  </linearGradient><linearGradient gradientUnits="objectBoundingBox" id="RightPaw-Pig0id25" x1="81.8832%" x2="18.1168%" y1="89.1977%" y2="10.8018%">
   <stop offset="0" style="stop-opacity:1; stop-color:#332925"/>
   <stop offset="0.619608" style="stop-opacity:1; stop-color:#5a4c46"/>
   <stop offset="1" style="stop-opacity:1; stop-color:#5a4c46"/>
  </linearGradient><linearGradient gradientUnits="objectBoundingBox" id="RightPaw-Pig0id217" x1="50%" x2="50%" xlink:href="#RightPaw-Pig0id0" y1="100%" y2="0%">
  </linearGradient><linearGradient gradientUnits="objectBoundingBox" id="LeftHand-Pig0id22" x1="69.8756%" x2="30.1244%" y1="2.32158%" y2="97.6784%">
   <stop offset="0" style="stop-opacity:1; stop-color:#332925"/>
   <stop offset="0.0196078" style="stop-opacity:1; stop-color:#332925"/>
   <stop offset="0.921569" style="stop-opacity:1; stop-color:#5a4c46"/>
   <stop offset="1" style="stop-opacity:1; stop-color:#5a4c46"/>
  </linearGradient><linearGradient gradientUnits="objectBoundingBox" id="Body-Pig0id42" x1="50%" x2="50%" y1="0.000186021%" y2="100%">
   <stop offset="0" style="stop-opacity:1; stop-color:#332925"/>
   <stop offset="0.0313725" style="stop-opacity:1; stop-color:#332925"/>
   <stop offset="0.529412" style="stop-opacity:1; stop-color:#5a4c46"/>
   <stop offset="1" style="stop-opacity:1; stop-color:#736d6b"/>
  </linearGradient><linearGradient gradientUnits="objectBoundingBox" id="LeftPaw-Pig0id70" x1="18.1168%" x2="81.8832%" xlink:href="#LeftPaw-Pig0id25" y1="89.1977%" y2="10.8018%">
  </linearGradient><linearGradient gradientUnits="objectBoundingBox" id="LeftPaw-Pig0id209" x1="50%" x2="50%" xlink:href="#LeftPaw-Pig0id0" y1="100%" y2="0%">
  </linearGradient><linearGradient gradientUnits="userSpaceOnUse" id="Ears-Pig4id77" x1="17742.8" x2="17952.8" xlink:href="#Ears-Pig4id26" y1="10179.2" y2="8219.56">
  </linearGradient><linearGradient gradientUnits="userSpaceOnUse" id="Ears-Pig4id54" x1="18730.3" x2="18730.3" xlink:href="#Ears-Pig4id3" y1="12181.6" y2="7492.58">
  </linearGradient><linearGradient gradientUnits="userSpaceOnUse" id="Ears-Pig4id62" x1="8633.58" x2="8633.58" xlink:href="#Ears-Pig4id3" y1="12181.6" y2="7492.58">
  </linearGradient><linearGradient gradientUnits="objectBoundingBox" id="Head-Pig6id36" x1="50%" x2="50%" xlink:href="#Head-Pig6id3" y1="100%" y2="9.57532e-005%">
  </linearGradient><linearGradient gradientUnits="userSpaceOnUse" id="Head-Pig6id27" x1="13681.9" x2="13681.9" xlink:href="#Head-Pig6id5" y1="17101.2" y2="10908.6">
  </linearGradient><linearGradient gradientUnits="userSpaceOnUse" id="Eyes-Pig9id148" x1="16641" x2="17334.4" y1="14255.9" y2="11076.2">
   <stop offset="0" style="stop-opacity:1; stop-color:#500073"/>
   <stop offset="1" style="stop-opacity:1; stop-color:black"/>
  </linearGradient><linearGradient gradientUnits="userSpaceOnUse" id="Eyes-Pig9id10" x1="15305.7" x2="18262.7" y1="12539.6" y2="12539.6">
   <stop offset="0" style="stop-opacity:1; stop-color:#500073"/>
   <stop offset="0.501961" style="stop-opacity:1; stop-color:#a900f2"/>
   <stop offset="1" style="stop-opacity:1; stop-color:#500073"/>
  </linearGradient><linearGradient gradientUnits="userSpaceOnUse" id="Eyes-Pig9id45" x1="16680.3" x2="16680.3" y1="11243.5" y2="13543.4">
   <stop offset="0" style="stop-opacity:1; stop-color:black"/>
   <stop offset="0.4" style="stop-opacity:1; stop-color:black"/>
   <stop offset="1" style="stop-opacity:1; stop-color:#3e0059"/>
  </linearGradient><linearGradient gradientUnits="userSpaceOnUse" id="Eyes-Pig9id161" x1="10722.8" x2="10029.5" xlink:href="#Eyes-Pig9id148" y1="14255.9" y2="11076.2">
  </linearGradient><linearGradient gradientUnits="userSpaceOnUse" id="Eyes-Pig9id64" x1="9101.23" x2="12058.2" xlink:href="#Eyes-Pig9id10" y1="12539.6" y2="12539.6">
  </linearGradient><linearGradient gradientUnits="userSpaceOnUse" id="Eyes-Pig9id76" x1="10683.6" x2="10683.6" xlink:href="#Eyes-Pig9id45" y1="11243.5" y2="13543.4">
  </linearGradient><linearGradient gradientUnits="userSpaceOnUse" id="Moustache-Pig3id41" x1="13681.9" x2="13681.9" y1="18279.7" y2="16359.7">
   <stop offset="0" style="stop-opacity:1; stop-color:#d9a04a"/>
   <stop offset="0.6" style="stop-opacity:1; stop-color:#d9a04a"/>
   <stop offset="1" style="stop-opacity:1; stop-color:#f2bc6b"/>
  </linearGradient><linearGradient gradientUnits="userSpaceOnUse" id="Nose-Pig0id201" x1="13681.9" x2="13681.9" xlink:href="#Nose-Pig0id151" y1="13309.5" y2="15458">
  </linearGradient><linearGradient gradientUnits="userSpaceOnUse" id="Hair-Pig4id8" x1="14145" x2="14145" xlink:href="#Hair-Pig4id7" y1="3897.69" y2="8320.53">
  </linearGradient><linearGradient gradientUnits="userSpaceOnUse" id="Hair-Pig4id24" x1="13551.5" x2="13551.5" xlink:href="#Hair-Pig4id7" y1="6803" y2="8984.48">
  </linearGradient><linearGradient gradientUnits="userSpaceOnUse" id="Hair-Pig4id85" x1="12145.8" x2="14996" xlink:href="#Hair-Pig4id10" y1="6795.31" y2="6795.31">
  </linearGradient><linearGradient gradientUnits="userSpaceOnUse" id="RightFoot-Pig0id0" x1="16257.8" x2="16257.8" y1="21560.3" y2="23683.4">
   <stop offset="0" style="stop-opacity:1; stop-color:#77613d"/>
   <stop offset="1" style="stop-opacity:1; stop-color:#9e8660"/>
  </linearGradient><linearGradient gradientUnits="userSpaceOnUse" id="RightLeg-Pig4id2" x1="11782.6" x2="11782.6" y1="24212.9" y2="21311.8">
   <stop offset="0" style="stop-opacity:1; stop-color:#736d6b"/>
   <stop offset="0.388235" style="stop-opacity:1; stop-color:#736d6b"/>
   <stop offset="1" style="stop-opacity:1; stop-color:#5a4c46"/>
  </linearGradient><linearGradient gradientUnits="userSpaceOnUse" id="LeftFoot-Pig0id0" x1="16257.8" x2="16257.8" y1="21560.3" y2="23683.4">
   <stop offset="0" style="stop-opacity:1; stop-color:#77613d"/>
   <stop offset="1" style="stop-opacity:1; stop-color:#9e8660"/>
  </linearGradient><linearGradient gradientUnits="objectBoundingBox" id="RightHand-Pig0id22" x1="69.8756%" x2="30.1244%" y1="2.32158%" y2="97.6784%">
   <stop offset="0" style="stop-opacity:1; stop-color:#332925"/>
   <stop offset="0.0196078" style="stop-opacity:1; stop-color:#332925"/>
   <stop offset="0.921569" style="stop-opacity:1; stop-color:#5a4c46"/>
   <stop offset="1" style="stop-opacity:1; stop-color:#5a4c46"/>
  </linearGradient><linearGradient gradientUnits="userSpaceOnUse" id="RightPaw-Pig0id0" x1="16257.8" x2="16257.8" y1="21560.3" y2="23683.4">
   <stop offset="0" style="stop-opacity:1; stop-color:#77613d"/>
   <stop offset="1" style="stop-opacity:1; stop-color:#9e8660"/>
  </linearGradient><linearGradient gradientUnits="objectBoundingBox" id="LeftPaw-Pig0id25" x1="81.8832%" x2="18.1168%" y1="89.1977%" y2="10.8018%">
   <stop offset="0" style="stop-opacity:1; stop-color:#332925"/>
   <stop offset="0.619608" style="stop-opacity:1; stop-color:#5a4c46"/>
   <stop offset="1" style="stop-opacity:1; stop-color:#5a4c46"/>
  </linearGradient><linearGradient gradientUnits="userSpaceOnUse" id="LeftPaw-Pig0id0" x1="16257.8" x2="16257.8" y1="21560.3" y2="23683.4">
   <stop offset="0" style="stop-opacity:1; stop-color:#77613d"/>
   <stop offset="1" style="stop-opacity:1; stop-color:#9e8660"/>
  </linearGradient><linearGradient gradientUnits="userSpaceOnUse" id="Ears-Pig4id26" x1="9621.09" x2="9411.13" y1="10179.2" y2="8219.56">
   <stop offset="0" style="stop-opacity:1; stop-color:#E39DA8"/>
   <stop offset="1" style="stop-opacity:1; stop-color:#B26572"/>
  </linearGradient><linearGradient gradientUnits="userSpaceOnUse" id="Ears-Pig4id3" x1="18922.8" x2="18922.8" y1="11187.2" y2="5413.87">
   <stop offset="0" style="stop-opacity:1; stop-color:#332925"/>
   <stop offset="0.388235" style="stop-opacity:1; stop-color:#5a4c46"/>
   <stop offset="1" style="stop-opacity:1; stop-color:#736d6b"/>
  </linearGradient><linearGradient gradientUnits="userSpaceOnUse" id="Head-Pig6id3" x1="18922.8" x2="18922.8" y1="11187.2" y2="5413.87">
   <stop offset="0" style="stop-opacity:1; stop-color:#332925"/>
   <stop offset="0.388235" style="stop-opacity:1; stop-color:#5a4c46"/>
   <stop offset="1" style="stop-opacity:1; stop-color:#736d6b"/>
  </linearGradient><linearGradient gradientUnits="userSpaceOnUse" id="Head-Pig6id5" x1="18537.4" x2="18537.4" y1="11625" y2="5118.17">
   <stop offset="0" style="stop-opacity:1; stop-color:#77613d"/>
   <stop offset="1" style="stop-opacity:1; stop-color:#5a4c46"/>
  </linearGradient><linearGradient gradientUnits="userSpaceOnUse" id="Nose-Pig0id151" x1="13681.9" x2="13681.9" y1="13554.2" y2="15469.2">
   <stop offset="0" style="stop-opacity:1; stop-color:#FFCCCC"/>
   <stop offset="1" style="stop-opacity:1; stop-color:#DB9092"/>
  </linearGradient><linearGradient gradientUnits="userSpaceOnUse" id="Hair-Pig4id7" x1="17165.3" x2="17165.3" y1="19960.9" y2="12270.8">
   <stop offset="0" style="stop-opacity:1; stop-color:#d9a04a"/>
   <stop offset="1" style="stop-opacity:1; stop-color:#f2bc6b"/>
  </linearGradient><linearGradient gradientUnits="userSpaceOnUse" id="Hair-Pig4id10" x1="15305.7" x2="18262.7" y1="12539.6" y2="12539.6">
   <stop offset="0" style="stop-opacity:1; stop-color:#500073"/>
   <stop offset="0.501961" style="stop-opacity:1; stop-color:#a900f2"/>
   <stop offset="1" style="stop-opacity:1; stop-color:#500073"/>
  </linearGradient></defs><g id="HairBack-Pig0">
 <animateTransform additive="sum" attributeName="transform" dur="10" repeatCount="indefinite" type="translate" values="0;0 200;0;0 200;0;0 200;0;0 200;0"/>
  <metadata id="CorelCorpID_0Corel-Layer"/>
  <rect class="HairBack-Pig0fil0" height="890" width="890" x="13237" y="6590"/>
  <rect class="HairBack-Pig0fil0" height="890" width="890" x="13237" y="6590"/>
 </g><g id="Tail-Pig0">
  <metadata id="CorelCorpID_3Corel-Layer"/>
  <rect class="Tail-Pig0fil0" height="900" width="900" x="13232" y="22153"/>
 </g><g id="RightFoot-Pig0">
  <metadata id="CorelCorpID_10Corel-Layer"/>
  <path class="RightFoot-Pig0fil37" d="M16559 24190c54,65 143,233 174,292 62,268 -152,365 -298,365 -143,0 -686,-98 -894,289 -330,-192 -541,-572 -540,-565 -22,-43 -41,-85 -54,-126 -58,-176 -10,-247 31,-317 480,-107 1078,-83 1581,62z" style="fill:#acf34b"/>
  <path class="RightFoot-Pig0fil38" d="M15011 24496c-3,101 -14,73 -14,176 -5,821 346,600 430,523 12,-11 59,-71 57,-73 -109,-146 -274,-300 -473,-626z" style="fill:#a1f3d9"/>
  <path class="RightFoot-Pig0fil0 RightFoot-Pig0str2" d="M14995 24537c1,45 2,90 2,135 -5,821 346,600 430,523 4,-4 19,-23 37,-48" style="fill:#377685"/>
  <path class="RightFoot-Pig0fil39" d="M16756 24466c0,0 -225,-105 -294,-5 -54,78 49,353 -47,353 -106,0 -310,-245 -509,-215 -288,43 -418,429 -384,506 35,82 343,409 763,435 419,26 490,-14 487,-39 -3,-24 42,-150 42,-150 0,0 458,-59 491,-95 100,-109 -467,-691 -549,-790z" style="fill:#e95c1e"/>
  <polygon class="RightFoot-Pig0fil40" points="16740,25393 16571,24994 16934,25330 "/>
  <path class="RightFoot-Pig0fil0 RightFoot-Pig0str2" d="M16567 24189c147,241 633,739 718,969 84,231 -492,167 -492,167 0,0 5,189 -122,220 -281,70 -831,-103 -1075,-309 -49,-41 -99,-87 -150,-135" style="fill:#666020"/>
  <path class="RightFoot-Pig0fil0 RightFoot-Pig0str2" d="M16567 24189c45,73 121,170 208,277m-1262 697c-341,-311 -707,-789 -548,-1037" style="fill:#ad06a5"/>
  <path class="RightFoot-Pig0fil10" d="M15252 24171c-250,336 427,769 691,965 282,210 555,378 651,406 -45,23 -445,-31 -727,-123 -179,-96 -710,-617 -803,-752 -94,-163 -147,-331 -119,-480 10,-21 22,-40 33,-59 85,-7 193,-3 274,43z" style="fill:#95fb03"/>
 </g><g id="LeftFoot-Pig0">
  <metadata id="CorelCorpID_27Corel-Layer"/>
  <path class="LeftFoot-Pig0fil37" d="M10805 24190c-54,65 -143,233 -174,292 -62,268 152,365 298,365 143,0 685,-98 894,289 330,-192 541,-572 540,-565 22,-43 40,-85 54,-126 58,-176 10,-247 -31,-317 -480,-107 -1078,-83 -1581,62z" style="fill:#f97ab4"/>
  <path class="LeftFoot-Pig0fil38" d="M12353 24496c3,101 14,73 14,176 5,821 -346,600 -430,523 -12,-11 -59,-71 -57,-73 109,-146 274,-300 473,-626z" style="fill:#fb095f"/>
  <path class="LeftFoot-Pig0fil0 LeftFoot-Pig0str2" d="M12369 24537c-1,45 -2,90 -2,135 5,821 -346,600 -430,523 -4,-4 -19,-23 -37,-48" style="fill:#eb1871"/>
  <path class="LeftFoot-Pig0fil57" d="M10608 24466c0,0 225,-105 294,-5 54,78 -49,353 47,353 106,0 309,-245 509,-215 288,43 418,429 384,506 -35,82 -343,409 -763,435 -419,26 -490,-14 -487,-39 3,-24 -42,-150 -42,-150 0,0 -458,-59 -491,-95 -101,-109 467,-691 549,-790z" style="fill:#8f7bf5"/>
  <polygon class="LeftFoot-Pig0fil40" points="10624,25393 10793,24994 10430,25330 "/>
  <path class="LeftFoot-Pig0fil0 LeftFoot-Pig0str2" d="M10797 24189c-147,241 -633,739 -718,969 -85,231 492,167 492,167 0,0 -5,189 122,220 281,70 831,-103 1075,-309 49,-41 99,-87 150,-135" style="fill:#b0cca0"/>
  <path class="LeftFoot-Pig0fil0 LeftFoot-Pig0str2" d="M10797 24189c-45,73 -121,170 -208,277m1262 697c341,-311 707,-789 548,-1037" style="fill:#122e79"/>
  <path class="LeftFoot-Pig0fil10" d="M12112 24171c250,336 -428,769 -691,965 -282,210 -555,378 -651,406 45,23 444,-31 727,-123 179,-96 710,-617 803,-752 94,-163 147,-331 119,-480 -10,-21 -22,-40 -33,-59 -85,-7 -193,-3 -274,43z" style="fill:#e47810"/>
 </g><g id="RightLeg-Pig4">
  <metadata id="CorelCorpID_26Corel-Layer"/>
  <path class="RightLeg-Pig4fil52" d="M16570 21416c0,0 961,709 909,1714 -6,111 -77,-66 -123,-23 -40,37 69,421 -56,604 -46,67 -123,-179 -160,-119 -128,221 -511,470 -581,598 -599,44 -1104,27 -1581,-62 45,-78 82,-155 -44,-376 -113,-198 -400,-446 -1252,-493 0,-147 0,-280 0,-522 373,-788 1598,-1745 2888,-1321z" style="fill:#ba4eeb"/>
  <path class="RightLeg-Pig4fil10" d="M17102 23575c34,-72 196,234 237,120 39,-110 -19,-533 -19,-606 1,-104 204,136 196,32 -74,-977 -804,-1553 -1086,-1798l-157 688c26,45 52,90 79,136 387,-391 912,861 750,1428z" style="fill:#57b95b"/>
  <path class="RightLeg-Pig4fil0 RightLeg-Pig4str2" d="M14965 24126c284,-396 -518,-875 -1283,-867" style="fill:#8bf25c"/>
  <path class="RightLeg-Pig4fil10" d="M13760 23246c341,-28 1532,124 1607,584 27,166 -52,256 -115,341 -93,-12 -184,-26 -274,-43 40,-70 74,-140 -11,-313 -8,-22 -19,-42 -33,-62l0 -1c-104,-182 -357,-408 -1066,-479 -35,-9 -71,-18 -108,-27z" style="fill:#ba26f6"/>
  <path class="RightLeg-Pig4fil0 RightLeg-Pig4str2" d="M16570 21416c326,350 1032,989 923,1788 -63,-27 -175,-159 -237,-220 120,259 171,599 18,787 -20,-5 -44,-123 -100,-189 -99,153 -180,244 -323,362 -92,75 -194,144 -284,245" style="fill:#d6a7d4"/>
 </g><g id="LeftLeg-Pig4">
  <metadata id="CorelCorpID_43Corel-Layer"/>
  <path class="LeftLeg-Pig4fil67" d="M10794 21416c0,0 -961,709 -909,1714 6,111 76,-66 123,-23 40,37 -69,421 55,604 47,67 124,-179 161,-119 128,221 511,470 581,598 599,44 1104,27 1581,-62 -45,-78 -82,-155 44,-376 113,-198 400,-446 1252,-493 0,-147 0,-280 0,-522 -373,-788 -1598,-1745 -2888,-1321z" style="fill:#d9b9a9"/>
  <path class="LeftLeg-Pig4fil10" d="M10262 23575c-34,-72 -196,234 -237,120 -40,-110 19,-533 19,-606 -1,-104 -204,136 -197,32 75,-977 805,-1553 1087,-1798l157 688c-26,45 -53,90 -79,136 -388,-391 -913,861 -750,1428z" style="fill:#09bafd"/>
  <path class="LeftLeg-Pig4fil0 LeftLeg-Pig4str2" d="M12399 24126c-284,-396 517,-875 1283,-867" style="fill:#ca20b1"/>
  <path class="LeftLeg-Pig4fil10" d="M13604 23246c-341,-28 -1532,124 -1607,584 -27,166 52,256 115,341 93,-12 184,-26 274,-43 -40,-70 -74,-140 11,-313 8,-22 19,-42 33,-62l0 -1c104,-182 357,-408 1066,-479 35,-9 71,-18 108,-27z" style="fill:#dac2d2"/>
  <path class="LeftLeg-Pig4fil0 LeftLeg-Pig4str2" d="M10794 21416c-326,350 -1032,989 -923,1788 63,-27 175,-159 237,-220 -120,259 -171,599 -18,787 20,-5 44,-123 100,-189 99,153 180,244 323,362 92,75 193,144 284,245" style="fill:#ba93fe"/>
 </g><g id="RightHand-Pig0">
 <animateTransform additive="sum" attributeName="transform" dur="10" repeatCount="indefinite" type="translate" values="0;0 200;0;0 200;0;0 200;0;0 200;0"/>
  <metadata id="CorelCorpID_44Corel-Layer"/>
  <path class="RightHand-Pig0fil68" d="M16231 17709c1005,345 1816,1398 2255,2162 -88,184 -847,720 -1129,836 -543,-402 -1045,-430 -1469,-362 -742,120 -1353,-1920 -931,-2545 422,-21 934,-40 1274,-91z" style="fill:#2c286c"/>
  <path class="RightHand-Pig0fil10" d="M17342 20696c-537,-391 -1034,-418 -1454,-351 -171,28 -335,-59 -481,-217 -325,-472 753,-1098 1039,-656 258,399 723,837 1098,1116 3,2 22,18 34,27l-219 113c-8,-18 -14,-30 -17,-32z" style="fill:#b7d0fc"/>
  <path class="RightHand-Pig0fil0 RightHand-Pig0str0" d="M16477 20333c179,24 366,81 561,178 100,50 205,104 305,189m1121 -817c-161,-280 -388,-607 -632,-916 -422,-534 -963,-1039 -1601,-1258 -90,-31 -172,-59 -246,-84" style="fill:#ba6f43"/>
 </g><g id="LeftHand-Pig0">
 <animateTransform additive="sum" attributeName="transform" dur="10" repeatCount="indefinite" type="translate" values="0;0 200;0;0 200;0;0 200;0;0 200;0"/>
  <metadata id="CorelCorpID_61Corel-Layer"/>
  <path class="LeftHand-Pig0fil79" d="M11133 17709c-1005,345 -1817,1398 -2255,2162 88,184 847,720 1128,836 544,-402 1046,-430 1470,-362 742,120 1352,-1920 931,-2545 -422,-21 -934,-40 -1274,-91z" style="fill:#b13fc2"/>
  <path class="LeftHand-Pig0fil10" d="M10022 20696c537,-391 1034,-418 1454,-351 171,28 335,-59 481,-217 325,-472 -753,-1098 -1039,-656 -258,399 -723,837 -1098,1116 -3,2 -22,18 -34,27l219 113c8,-18 14,-30 17,-32z" style="fill:#9c8c4c"/>
  <path class="LeftHand-Pig0fil0 LeftHand-Pig0str0" d="M10887 20333c-179,24 -366,81 -561,178 -100,50 -205,104 -305,189m-1121 -817c161,-280 388,-607 632,-916 422,-534 963,-1039 1601,-1258 90,-31 171,-59 246,-84" style="fill:#44a868"/>
 </g><g id="Body-Pig0">
 <animateTransform additive="sum" attributeName="transform" dur="10" repeatCount="indefinite" type="translate" values="0;0 200;0;0 200;0;0 200;0;0 200;0"/>
  <metadata id="CorelCorpID_66Corel-Layer"/>
  <path class="Body-Pig0fil83" d="M13682 23135c-1548,0 -2752,-291 -2993,-1956 -147,-1014 391,-2287 991,-3420 634,80 1289,123 2002,142 713,-19 1367,-62 2002,-142 600,1133 1137,2406 991,3420 -242,1665 -1445,1956 -2993,1956z" style="fill:#16e1e5"/>
  <path class="Body-Pig0fil10" d="M12621 23067c-1016,-156 -1749,-629 -1932,-1888 -75,-519 29,-1106 229,-1707 -223,2001 402,3257 1703,3595z" style="fill:#dd388a"/>
  <path class="Body-Pig0fil84" d="M11012 22144c-250,-321 -348,-641 -397,-954 -59,-377 -24,-998 184,-1320 -78,421 -93,905 -36,1298 50,341 104,572 249,976z" style="fill:#27528d"/>
  <path class="Body-Pig0fil10" d="M14743 23067c1016,-156 1749,-629 1932,-1888 75,-519 -29,-1106 -229,-1707 223,2001 -402,3257 -1703,3595z" style="fill:#43a047"/>
  <path class="Body-Pig0fil84" d="M16352 22144c250,-321 347,-641 397,-954 59,-377 24,-998 -184,-1320 78,421 93,905 36,1298 -50,341 -104,572 -249,976z" style="fill:#cb17ad"/>
 </g><g id="RightPaw-Pig0">
 <animateTransform additive="sum" attributeName="transform" dur="10" repeatCount="indefinite" type="translate" values="0;0 200;0;0 200;0;0 200;0;0 200;0"/>
  <metadata id="CorelCorpID_49Corel-Layer"/>
  <path class="RightPaw-Pig0fil74" d="M18486 19871c155,269 247,281 434,498 211,244 446,948 341,1067 -34,39 -389,8 -389,8 -15,58 -145,373 -188,392 -161,73 -598,-324 -814,-554 -63,111 -195,178 -216,147 -79,-27 -146,-195 -211,-374 -34,-92 -45,-318 -86,-348 139,-387 621,-775 1129,-836z" style="fill:#61239e"/>
  <path class="RightPaw-Pig0fil10" d="M17452 20518c31,24 62,48 92,70 4,3 39,31 43,34 13,14 26,28 39,43 79,93 97,228 104,283 2,13 3,21 4,24 -2,92 -166,169 -227,208 0,-8 -67,-223 -116,-364 0,-31 3,-54 -7,-90 -9,-6 -18,-13 -27,-19 23,-64 55,-127 95,-189z" style="fill:#48b6c9"/>
  <path class="RightPaw-Pig0fil75" d="M18910 20358c-402,-76 -337,407 -242,635 -239,-309 -538,-414 -692,-297 -104,79 -113,131 -203,226 -99,104 -339,-108 -394,-184 -18,147 139,645 275,691 21,31 153,-36 216,-147 216,230 653,627 814,554 43,-19 173,-334 188,-392 0,0 355,31 389,-8 109,-123 -135,-862 -351,-1078z" style="fill:#f3e763"/>
  <path class="RightPaw-Pig0fil10" d="M18804 21498c-67,307 -352,47 -875,-255 4,66 -100,45 -131,-12 -41,-92 -52,-190 -68,-283 -88,22 -225,-79 -303,-156 -5,-5 -11,-11 -16,-16 49,174 144,541 243,653 90,2 173,-72 216,-147 199,212 579,572 803,508 84,-24 78,-133 131,-292z" style="fill:#a23e64"/>
  <path class="RightPaw-Pig0fil0 RightPaw-Pig0str2" d="M17136 20561c121,75 170,94 271,202 1,149 38,330 93,461 54,128 115,197 196,208 55,8 128,-6 194,-123 208,221 642,571 796,501 41,-19 164,-344 179,-400 0,0 356,75 389,38 86,-99 -94,-785 -280,-992 -109,-122 -404,-420 -409,-427 -68,-85 -123,-182 -179,-276" style="fill:#cfe62c"/>
  <polygon class="RightPaw-Pig0fil40" points="18796,21484 18678,21021 18973,21393 "/>
 </g><g id="LeftPaw-Pig0">
 <animateTransform additive="sum" attributeName="transform" dur="10" repeatCount="indefinite" type="translate" values="0;0 200;0;0 200;0;0 200;0;0 200;0"/>
  <metadata id="CorelCorpID_71Corel-Layer"/>
  <path class="LeftPaw-Pig0fil91" d="M8878 19871c-155,269 -247,281 -434,498 -211,244 -446,948 -341,1067 34,39 388,8 388,8 16,58 146,373 189,392 161,73 598,-324 814,-554 63,111 195,178 216,147 79,-27 146,-195 211,-374 34,-92 45,-318 85,-348 -138,-387 -621,-775 -1128,-836z" style="fill:#bfb7d5"/>
  <path class="LeftPaw-Pig0fil10" d="M9912 20518c-31,24 -62,48 -92,70 -4,3 -39,31 -43,34 -14,14 -27,28 -39,43 -79,93 -97,228 -104,283 -2,13 -3,21 -4,24 2,92 166,169 226,208 0,-8 68,-223 117,-364 -1,-31 -3,-54 7,-90 9,-6 18,-13 26,-19 -22,-64 -54,-127 -94,-189z" style="fill:#ecee17"/>
  <path class="LeftPaw-Pig0fil92" d="M8454 20358c401,-76 337,407 242,635 239,-309 538,-414 692,-297 104,79 113,131 203,226 99,104 339,-108 394,-184 18,147 -140,645 -275,691 -21,31 -153,-36 -216,-147 -216,230 -653,627 -814,554 -43,-19 -173,-334 -189,-392 0,0 -354,31 -388,-8 -109,-123 135,-862 351,-1078z" style="fill:#dee675"/>
  <path class="LeftPaw-Pig0fil10" d="M8560 21498c67,307 352,47 875,-255 -5,66 100,45 131,-12 40,-92 52,-190 68,-283 88,22 225,-79 303,-156 5,-5 11,-11 16,-16 -49,174 -144,541 -243,653 -90,2 -173,-72 -216,-147 -199,212 -579,572 -803,508 -84,-24 -79,-133 -131,-292z" style="fill:#32d179"/>
  <path class="LeftPaw-Pig0fil0 LeftPaw-Pig0str2" d="M10228 20561c-121,75 -170,94 -272,202 0,149 -37,330 -92,461 -55,128 -115,197 -196,208 -55,8 -128,-6 -194,-123 -208,221 -642,571 -797,501 -41,-19 -163,-344 -178,-400 0,0 -356,75 -389,38 -86,-99 94,-785 280,-992 109,-122 404,-420 409,-427 68,-85 123,-182 179,-276" style="fill:#6cff23"/>
  <polygon class="LeftPaw-Pig0fil40" points="8568,21484 8686,21021 8391,21393 "/>
 </g><g id="Ears-Pig4">
 <animateTransform additive="sum" attributeName="transform" dur="10" repeatCount="indefinite" type="translate" values="0;0 200;0;0 200;0;0 200;0;0 200;0"/>
  <metadata id="CorelCorpID_87Corel-Layer"/>
  <g id="_2991525371968">
   <path class="Ears-Pig4fil117 Ears-Pig4str0" d="M18308 7538c446,141 638,777 1378,825 193,12 430,-15 656,-12 342,5 372,253 399,436 66,444 73,1257 -304,1646 -242,248 -556,499 -912,418 -416,-96 -838,-496 -893,-587 279,330 433,1625 643,1918 -1667,-1123 -2968,-2381 -2490,-3480 177,-407 660,-1437 1523,-1164z" style="fill:#407478"/>
   <path class="Ears-Pig4fil118" d="M18041 8196c-312,-206 -792,539 -776,1063 15,523 601,1023 706,976 105,-47 460,-249 460,-249 0,0 -206,-238 -259,-550 -53,-312 28,-678 -131,-1240z" style="fill:#ff7fd1"/>
   <path class="Ears-Pig4fil84" d="M17913 7914c232,45 247,629 274,1031 35,505 155,886 504,1275 27,30 25,78 -6,105 -31,28 -78,25 -106,-5 -346,-385 -493,-785 -526,-1290 -26,-405 33,-786 -140,-1116z" style="fill:#0519b7"/>
   <path class="Ears-Pig4fil115" d="M18832 8005c188,231 312,572 365,778 148,578 477,615 656,541 261,-108 287,-423 163,-676 -122,-249 -184,-281 -226,-282 -42,-1 -329,15 -958,-361z" style="fill:#a90e18"/>
   <path class="Ears-Pig4fil10" d="M20753 9646c-460,770 -934,1199 -1741,606 -213,-157 -438,-453 -525,-714 -182,-549 -84,-1159 -280,-1514 -84,-153 -248,-265 -354,-201 -106,63 -64,339 -48,603 16,265 -9,742 -224,1105 -215,363 2,647 145,800 143,154 1104,1074 1273,974 170,-101 -367,-1041 -367,-1041 272,284 734,709 1172,587 530,-149 941,-652 949,-1205z" style="fill:#f14d80"/>
  </g>
  <g id="_2991525368384">
   <path class="Ears-Pig4fil119 Ears-Pig4str0" d="M9056 7538c-446,141 -638,777 -1378,825 -193,12 -430,-15 -656,-12 -343,5 -372,253 -399,436 -66,444 -73,1257 304,1646 242,248 555,499 912,418 416,-96 838,-496 893,-587 -279,330 -433,1625 -643,1918 1667,-1123 2968,-2381 2490,-3480 -177,-407 -660,-1437 -1523,-1164z" style="fill:#77d1e2"/>
   <path class="Ears-Pig4fil120" d="M9322 8196c313,-206 793,539 777,1063 -16,523 -601,1023 -706,976 -105,-47 -460,-249 -460,-249 0,0 206,-238 259,-550 53,-312 -29,-678 130,-1240z" style="fill:#4e64c2"/>
   <path class="Ears-Pig4fil84" d="M9451 7914c-232,45 -247,629 -275,1031 -34,505 -154,886 -503,1275 -27,30 -25,78 6,105 31,28 78,25 106,-5 346,-385 493,-785 526,-1290 25,-405 -33,-786 140,-1116z" style="fill:#052d39"/>
   <path class="Ears-Pig4fil115" d="M8532 8005c-188,231 -312,572 -365,778 -148,578 -477,615 -656,541 -262,-108 -287,-423 -163,-676 122,-249 184,-281 226,-282 42,-1 328,15 958,-361z" style="fill:#2a8fb4"/>
   <path class="Ears-Pig4fil10" d="M6611 9646c460,770 934,1199 1741,606 213,-157 437,-453 525,-714 182,-549 84,-1159 280,-1514 84,-153 248,-265 354,-201 106,63 64,339 48,603 -16,265 9,742 224,1105 215,363 -2,647 -145,800 -143,154 -1142,1264 -1312,1164 -169,-101 406,-1231 406,-1231 -272,284 -734,709 -1172,587 -530,-149 -941,-652 -949,-1205z" style="fill:#7dd719"/>
  </g>
 </g><g id="Head-Pig6">
 <animateTransform additive="sum" attributeName="transform" dur="10" repeatCount="indefinite" type="translate" values="0;0 200;0;0 200;0;0 200;0;0 200;0"/>
  <metadata id="CorelCorpID_101Corel-Layer"/>
  <path class="Head-Pig6fil165" d="M13682 17937c-481,0 -1034,-24 -1605,-101 -847,-114 -1738,-333 -2509,-708 -371,-180 -500,136 -491,337 -719,-495 -631,-1374 -770,-1556 -53,121 -259,436 -231,759 -578,-501 -343,-1565 -391,-1702 -35,-194 -252,-47 -443,254 -49,-404 -28,-822 41,-1233 85,-513 252,-1119 496,-1583 158,-300 365,-615 604,-1079 102,-182 197,-394 302,-573 27,-47 54,-103 82,-149 358,-597 759,-1164 1323,-1636 1250,-1046 2355,-1447 3591,-1474l1 0 1 0c1236,27 2341,428 3590,1474 565,472 966,1039 1324,1636 28,46 54,102 82,149 104,179 200,391 302,573 239,464 446,779 603,1079 245,464 412,1070 497,1583 69,411 90,829 41,1233 -191,-301 -408,-448 -443,-254 -48,137 187,1201 -391,1702 27,-323 -178,-638 -231,-759 -139,182 -52,1061 -770,1556 9,-201 -120,-517 -491,-337 -771,375 -1662,594 -2509,708 -571,77 -1124,101 -1605,101z" style="fill:#502906"/>
  <path class="Head-Pig6fil166" d="M13682 17101c-1355,0 -1476,-639 -2527,-866 -271,-59 -493,16 -558,-93 -80,-277 186,-742 95,-724 -209,23 -431,238 -517,144 -94,-103 -27,-625 34,-793 161,-440 788,-1254 2097,-1689 543,-181 347,-2171 1376,-2171 1029,0 833,1990 1376,2171 1308,435 1935,1249 2097,1689 61,168 128,690 34,793 -87,94 -308,-121 -517,-144 -91,-18 175,447 94,724 -64,109 -287,34 -557,93 -1051,227 -1172,866 -2527,866z" style="fill:#307c6e"/>
  <path class="Head-Pig6fil10" d="M8595 11042c-90,145 -189,290 -291,434 -206,384 -384,662 -525,928 -244,464 -411,1070 -496,1583 -69,411 -90,829 -41,1233 191,-301 408,-448 443,-254 48,137 -187,1201 391,1702 -28,-323 178,-638 231,-759 139,182 51,1061 770,1556 -9,-201 120,-517 491,-337 771,375 1662,594 2509,708 149,20 297,36 442,50 40,3 80,6 120,9 -2326,-552 -4001,-1593 -4496,-3087 -323,-975 -154,-2267 452,-3766z" style="fill:#1ab72e"/>
  <path class="Head-Pig6fil84" d="M9861 9172c974,-1177 2398,-1757 3821,-1747 1423,-10 2847,570 3821,1747 -1223,-1081 -2522,-1612 -3821,-1603 -1299,-9 -2598,522 -3821,1603z" style="fill:#7ba7fd"/>
  <path class="Head-Pig6fil84" d="M18558 10538c262,349 484,763 669,1097 87,158 168,282 197,333 83,143 159,273 227,401 116,221 215,473 296,731 92,294 162,598 208,874 36,216 59,433 66,650 7,204 0,406 -25,605 -4,41 -42,70 -83,65 -23,-3 -43,-16 -54,-34 -84,-131 -170,-230 -241,-279 -23,-16 -43,-26 -57,-27 0,0 0,-1 0,-1l0 -1c-3,5 -6,14 -9,27 0,4 -1,8 -3,11 -6,18 -2,94 3,199 20,386 57,1127 -415,1536 -31,27 -79,23 -106,-8 -13,-16 -19,-36 -18,-55l0 0c18,-208 -72,-417 -145,-564 -9,39 -17,84 -27,133 -69,363 -177,927 -712,1296 -34,23 -81,15 -104,-19 -10,-14 -14,-30 -13,-46 3,-60 -9,-131 -39,-192 -16,-34 -38,-64 -66,-86 -27,-20 -59,-33 -99,-35 -48,-2 -107,11 -179,46 -367,179 -762,323 -1165,437 -159,44 -1032,206 -1451,214 611,-128 1199,-299 1410,-359 395,-111 781,-251 1140,-426 96,-47 179,-64 251,-61 73,3 134,28 184,65 48,37 84,86 110,139 18,38 32,79 41,120 395,-334 485,-807 545,-1121 30,-153 52,-273 103,-339 8,-10 18,-18 30,-23 38,-17 82,0 98,38 9,19 23,47 40,79 63,124 162,315 192,528 291,-379 262,-967 246,-1290 -6,-116 -10,-201 3,-248 8,-40 22,-71 42,-94 34,-40 79,-56 131,-49 39,5 81,23 124,53 51,35 107,89 163,157 8,-129 10,-257 6,-386 -7,-209 -30,-420 -65,-630 -45,-270 -113,-566 -203,-854 -79,-250 -174,-494 -286,-706 -66,-125 -141,-254 -223,-396 -41,-70 -116,-197 -199,-377 -133,-288 -307,-697 -538,-1128zm1203 4415c1,-1 3,-4 1,-2l-1 1 0 1z" style="fill:#ae0065"/>
  <path class="Head-Pig6fil84" d="M8806 10538c-262,349 -484,763 -669,1097 -87,158 -168,282 -197,333 -83,143 -159,273 -227,401 -116,221 -215,473 -296,731 -92,294 -162,598 -208,874 -36,216 -59,433 -66,650 -7,204 0,406 24,605 5,41 43,70 84,65 23,-3 42,-16 54,-34 84,-131 170,-230 241,-279 23,-16 43,-26 57,-27 0,0 0,-1 0,-1l0 -1c3,5 6,14 8,27 1,4 2,8 3,11 7,18 3,94 -2,199 -20,386 -57,1127 415,1536 31,27 79,23 106,-8 13,-16 19,-36 18,-55l0 0c-18,-208 72,-417 145,-564 9,39 17,84 27,133 69,363 176,927 712,1296 34,23 80,15 104,-19 10,-14 14,-30 13,-46 -3,-60 9,-131 39,-192 16,-34 38,-64 66,-86 26,-20 59,-33 99,-35 48,-2 107,11 179,46 367,179 761,323 1165,437 159,44 1032,206 1451,214 -611,-128 -1199,-299 -1410,-359 -395,-111 -781,-251 -1140,-426 -96,-47 -179,-64 -251,-61 -74,3 -134,28 -184,65 -48,37 -84,86 -110,139 -19,38 -32,79 -41,120 -395,-334 -485,-807 -545,-1121 -30,-153 -52,-273 -103,-339 -8,-10 -18,-18 -30,-23 -38,-17 -82,0 -98,38 -9,19 -23,47 -40,79 -64,124 -162,315 -192,528 -291,-379 -262,-967 -246,-1290 6,-116 10,-201 -3,-248 -8,-40 -22,-71 -42,-94 -34,-40 -79,-56 -131,-49 -39,5 -81,23 -124,53 -51,35 -107,89 -163,157 -8,-129 -10,-257 -6,-386 7,-209 30,-420 65,-630 45,-270 113,-566 203,-854 78,-250 174,-494 286,-706 66,-125 141,-254 223,-396 41,-70 116,-197 199,-377 133,-288 307,-697 538,-1128zm-1203 4415c-1,-1 -3,-4 -1,-2l1 1 0 1z" style="fill:#36b053"/>
 </g><g id="Mouth-Pig4">
 <animateTransform additive="sum" attributeName="transform" dur="10" repeatCount="indefinite" type="translate" values="0;0 200;0;0 200;0;0 200;0;0 200;0"/>
  <metadata id="CorelCorpID_107Corel-Layer"/>
  <path class="Mouth-Pig4fil0 Mouth-Pig4str0" d="M12301 15887c128,-208 380,-414 625,-484 153,-44 495,-141 756,-144" style="fill:#15ef6c"/>
  <path class="Mouth-Pig4fil169" d="M12379 15988c69,-65 -66,-172 36,-353 5,-9 -121,103 -129,100 -83,-36 -156,-51 -225,-113 -118,-105 114,557 318,366z" style="fill:#f9fc52"/>
  <path class="Mouth-Pig4fil170" d="M13189 16148c121,41 299,75 493,75 194,0 371,-34 493,-75 -127,168 -301,242 -493,242 -192,0 -366,-74 -493,-242z" style="fill:#504c0f"/>
  <path class="Mouth-Pig4fil0 Mouth-Pig4str0" d="M15063 15887c-128,-208 -380,-414 -625,-484 -153,-44 -495,-141 -756,-144" style="fill:#ac8dfd"/>
  <path class="Mouth-Pig4fil169" d="M14985 15988c-69,-65 65,-172 -36,-353 -5,-9 121,103 129,100 83,-36 156,-51 225,-113 118,-105 -114,557 -318,366z" style="fill:#504123"/>
  <path class="Mouth-Pig4fil169 Mouth-Pig4str0" d="M13678 15838c-459,-2 -587,-362 -1051,-293 60,-68 221,-237 236,-448 32,-450 365,-817 815,-819l0 1560z" style="fill:#add479"/>
  <path class="Mouth-Pig4fil169 Mouth-Pig4str0" d="M13678 15838c459,-2 587,-362 1051,-293 -60,-68 -221,-237 -235,-448 -32,-450 -365,-817 -816,-819l0 1560z" style="fill:#470ea9"/>
  <path class="Mouth-Pig4fil171" d="M13682 15649c-71,-145 -333,-103 -382,19l0 3c94,59 216,97 382,101 166,-4 288,-42 382,-101l0 -3c-49,-122 -311,-164 -382,-19z" style="fill:#7c2b7a"/>
 </g><g id="EyesClosed-Pig9">
 <animateTransform additive="sum" attributeName="transform" dur="10" repeatCount="indefinite" type="translate" values="0;0 200;0;0 200;0;0 200;0;0 200;0"/>
  <metadata id="CorelCorpID_134Corel-Layer"/>
  <g id="_2991533207088">
   <path class="EyesClosed-Pig9fil38" d="M17001 10300c-57,131 -516,301 -943,673 -391,341 -602,759 -809,758 -229,-1 -320,-450 -218,-710 84,-214 483,-587 984,-766 591,-211 1055,-115 986,45z"/>
   <path class="EyesClosed-Pig9fil148" d="M17001 10300c-57,131 -516,301 -943,673 -391,341 -602,759 -809,758 -229,-1 -320,-450 -218,-710 84,-214 483,-587 984,-766 591,-211 1055,-115 986,45z"/>
  </g>
  <g id="_2991533207760">
   <path class="EyesClosed-Pig9fil38" d="M10363 10300c57,131 516,301 943,673 391,341 602,759 808,758 230,-1 321,-450 219,-710 -84,-214 -484,-587 -984,-766 -591,-211 -1055,-115 -986,45z"/>
   <path class="EyesClosed-Pig9fil148" d="M10363 10300c57,131 516,301 943,673 391,341 602,759 808,758 230,-1 321,-450 219,-710 -84,-214 -484,-587 -984,-766 -591,-211 -1055,-115 -986,45z"/>
  </g>
  <path class="EyesClosed-Pig9fil84" d="M15494 13742c-74,-13 -76,-85 -9,-93 423,-50 1995,-305 2780,-832 115,-77 178,-127 267,-221 44,-46 73,-86 108,-79 108,23 30,179 9,231 -308,774 -1612,1018 -3155,994z"/>
  <path class="EyesClosed-Pig9fil84" d="M11870 13742c74,-13 76,-85 9,-93 -423,-50 -1995,-305 -2780,-832 -115,-77 -178,-127 -267,-221 -44,-46 -73,-86 -108,-79 -108,23 -30,179 -10,231 309,774 1613,1018 3156,994z"/>
 </g><g id="Eyes-Pig9">
 <animate attributeName="opacity" dur="10" repeatCount="indefinite" values="0;1;1;1;1;1;1;1;1;1;1;1;1;1;1;1;1;1;1;1;1;1;1;1;1;1;1;1;1;1;1;1;1;1;1;1;1;1;1;1;1;1;1;1;1;1;1;1;1;1;1;1;1;1;1;1;1;1;1;1;1;1;1;1;1;1;1;1;1;1;1;1;1;1;1;1;1;1;1;1;1;1;1;1;0;0"/>
 <animateTransform additive="sum" attributeName="transform" dur="10" repeatCount="indefinite" type="translate" values="0;0 200;0;0 200;0;0 200;0;0 200;0"/>
  <metadata id="CorelCorpID_135Corel-Layer"/>
  <g id="_2991533203472">
   <path class="Eyes-Pig9fil226" d="M15655 13804c-299,-174 -334,-515 -332,-844 3,-301 26,-590 135,-770 292,-480 1316,-1120 2066,-1097 264,8 486,223 707,450 286,292 409,765 421,1184 27,1046 -927,1522 -1788,1512 -481,-5 -834,-217 -1209,-435z"/>
   <path class="Eyes-Pig9fil227" d="M15666 11951c478,-293 1194,-628 1786,-792 177,78 320,206 478,396 614,737 274,1782 -186,2105 -558,391 -1354,295 -1750,20 -228,-159 -516,-447 -620,-799 -66,-224 -203,-626 292,-930z"/>
   <path class="Eyes-Pig9fil228" d="M15587 11982c172,-108 422,-343 644,-453 269,-133 502,-184 783,-285 529,192 905,785 766,1396 -368,1617 -2500,823 -2199,-500 78,-346 -15,-105 6,-158z"/>
   <path class="Eyes-Pig9fil148" d="M15365 13403c-125,-545 -37,-1050 141,-1331 224,-354 726,-586 1223,-774 376,-142 765,-303 1090,-101 239,149 598,539 707,836 93,255 151,667 114,933 -127,-464 -335,-887 -586,-1073 -489,-364 -2028,213 -2396,648 -221,263 -286,407 -293,862z"/>
   <g>
    <circle class="Eyes-Pig9fil173" r="235" transform="matrix(-0.127023 2.18149 1.98577 0.284037 17238.7 11929.4)"/>
    <circle class="Eyes-Pig9fil173" r="235" transform="matrix(-0.686977 0.523683 0.42619 0.668712 18124.5 13261.3)"/>
    <circle class="Eyes-Pig9fil173" r="235" transform="matrix(-0.252399 0.323889 0.276862 0.255805 18358.4 12924)"/>
   </g>
   <path class="Eyes-Pig9fil0 Eyes-Pig9str0" d="M15497 13682c98,115 513,326 647,387 1118,511 2466,-181 2507,-1257 22,-583 -346,-1434 -907,-1655 -364,-143 -1162,140 -1739,505 -402,254 -554,459 -624,718 -83,309 -113,1035 116,1302z"/>
  </g>
  <g id="_2991533200240">
   <path class="Eyes-Pig9fil229" d="M11709 13804c299,-174 334,-515 331,-844 -2,-301 -25,-590 -134,-770 -292,-480 -1316,-1120 -2066,-1097 -264,8 -486,223 -707,450 -286,292 -410,765 -421,1184 -28,1046 927,1522 1788,1512 481,-5 834,-217 1209,-435z"/>
   <path class="Eyes-Pig9fil230" d="M11698 11951c-478,-293 -1194,-628 -1786,-792 -177,78 -320,206 -478,396 -615,737 -274,1782 186,2105 558,391 1354,295 1750,20 228,-159 516,-447 620,-799 66,-224 203,-626 -292,-930z"/>
   <path class="Eyes-Pig9fil231" d="M11777 11982c-172,-108 -423,-343 -644,-453 -269,-133 -502,-184 -783,-285 -529,192 -905,785 -766,1396 367,1617 2500,823 2199,-500 -78,-346 14,-105 -6,-158z"/>
   <path class="Eyes-Pig9fil148" d="M11999 13403c124,-545 37,-1050 -141,-1331 -224,-354 -726,-586 -1223,-774 -376,-142 -766,-303 -1091,-101 -238,149 -597,539 -706,836 -93,255 -151,667 -114,933 126,-464 335,-887 586,-1073 489,-364 2028,213 2395,648 222,263 287,407 294,862z"/>
   <g>
    <circle class="Eyes-Pig9fil173" r="235" transform="matrix(0.127023 2.18149 -1.98577 0.284037 10125.1 11929.4)"/>
    <circle class="Eyes-Pig9fil173" r="235" transform="matrix(0.686977 0.523683 -0.42619 0.668712 9239.4 13261.3)"/>
    <circle class="Eyes-Pig9fil173" r="235" transform="matrix(0.252399 0.323889 -0.276862 0.255805 9005.45 12924)"/>
   </g>
   <path class="Eyes-Pig9fil0 Eyes-Pig9str0" d="M11867 13682c-98,115 -513,326 -647,387 -1118,511 -2467,-181 -2507,-1257 -22,-583 346,-1434 907,-1655 364,-143 1162,140 1739,505 402,254 554,459 624,718 83,309 113,1035 -116,1302z"/>
  </g>
 </g><g id="Moustache-Pig3">
 <animateTransform additive="sum" attributeName="transform" dur="10" repeatCount="indefinite" type="translate" values="0;0 200;0;0 200;0;0 200;0;0 200;0"/>
  <metadata id="CorelCorpID_139Corel-Layer"/>
  <path class="Moustache-Pig3fil234" d="M10904 16360c18,1 82,389 307,458 92,29 54,-287 160,-188 51,48 159,299 235,358 60,46 84,-101 155,-52 444,308 1055,622 1284,416 233,-209 -273,-240 56,-316 17,-4 119,84 169,76 56,-9 70,-173 129,-148 183,77 245,-10 283,-10 38,0 100,87 283,10 59,-25 73,139 129,148 50,8 152,-80 169,-76 329,76 -177,107 55,316 229,206 841,-108 1285,-416 71,-49 95,98 155,52 76,-59 184,-310 234,-358 107,-99 69,217 161,188 225,-69 289,-457 306,-458 428,508 -378,1121 -737,1290 -307,145 -866,312 -1200,421 -5,-42 1,-166 24,-183 -356,117 -586,377 -694,392 16,-65 -123,-279 -170,-360 -47,81 -166,223 -151,288 -107,-15 -357,-203 -713,-320 23,17 29,141 24,183 -334,-109 -893,-276 -1200,-421 -360,-169 -1165,-782 -738,-1290z" style="fill:#eca4ce"/>
  <path class="Moustache-Pig3fil84" d="M16389 17131c-259,461 -1484,895 -1627,941 -67,21 -129,41 -217,70 -39,13 -81,-9 -94,-48 -2,-6 -3,-13 -3,-19 -2,-17 -3,-42 -2,-68 -146,67 -267,154 -361,222 -92,66 -161,116 -223,125 -41,5 -69,-23 -74,-64 -9,-67 -75,-173 -109,-229 -44,64 -108,193 -133,220 -9,2 -16,2 -24,1 -61,-9 -140,-50 -243,-105 -98,-52 -220,-117 -362,-174 2,31 1,60 -1,77 -6,41 -43,70 -84,65 -5,-1 -9,-2 -14,-3 -87,-29 -149,-49 -216,-70 -146,-46 -1177,-386 -1578,-883 645,474 1437,681 1623,741l118 37 25 5c-2,-13 -14,-20 -16,-24 -26,-19 -37,-52 -27,-84 13,-39 55,-61 95,-48 207,69 378,159 507,228 50,27 94,50 128,66 22,-50 57,-102 90,-150l2 -4c19,-28 37,-55 48,-73 6,-11 16,-21 28,-28 35,-21 81,-8 102,27 5,9 16,27 28,48 41,68 97,162 129,244 26,-17 58,-40 93,-66 128,-93 302,-218 525,-292l0 1c29,-10 62,-1 82,24 26,33 20,80 -12,105 -20,16 -16,22 7,21l118 -37c190,-61 1329,-427 1672,-799z" style="fill:#e3d32e"/>
  <path class="Moustache-Pig3fil10" d="M11851 17651c0,0 682,180 719,180 37,0 -109,-185 -109,-185 0,0 467,94 605,125 137,32 15,-244 86,-407 111,316 213,379 321,495 71,-113 157,-385 179,-432 100,692 494,565 892,145 5,85 54,301 113,329 60,29 826,-207 826,-207 0,0 -918,417 -939,397 -22,-20 -35,-179 -35,-179 0,0 -548,265 -619,366 -71,101 -175,-272 -218,-341 -43,-70 -191,256 -191,256l-651 -283 12 161c0,0 -911,-297 -991,-420z" style="fill:#2cb9a3"/>
 </g><g id="Nose-Pig0">
 <animateTransform additive="sum" attributeName="transform" dur="10" repeatCount="indefinite" type="translate" values="0;0 200;0;0 200;0;0 200;0;0 200;0"/>
  <metadata id="CorelCorpID_141Corel-Layer"/>
  <g id="_2991533171152">
   <path class="Nose-Pig0fil236 Nose-Pig0str0" d="M13682 15431c688,0 1646,200 1573,-487 -68,-630 -928,-1635 -1573,-1635 -645,0 -1505,1005 -1573,1635 -73,687 885,487 1573,487z" style="fill:#301843"/>
   <g>
    <path class="Nose-Pig0fil26 Nose-Pig0str3" d="M14332 14239c-113,0 -205,188 -205,418 0,231 92,418 205,418 114,0 206,-187 206,-418 -1,-230 -93,-418 -206,-418z" style="fill:#592ed0"/>
    <path class="Nose-Pig0fil237 Nose-Pig0str3" d="M14332 14239c-113,0 -205,188 -205,418 0,231 92,418 205,418 114,0 206,-187 206,-418 -1,-230 -93,-418 -206,-418z" style="fill:#e99c39"/>
   </g>
   <g>
    <path class="Nose-Pig0fil26 Nose-Pig0str3" d="M13032 14239c113,0 205,188 205,418 0,231 -92,418 -205,418 -114,0 -206,-187 -206,-418 0,-230 93,-418 206,-418z" style="fill:#8a7dc2"/>
    <path class="Nose-Pig0fil237 Nose-Pig0str3" d="M13032 14239c113,0 205,188 205,418 0,231 -92,418 -205,418 -114,0 -206,-187 -206,-418 0,-230 93,-418 206,-418z" style="fill:#535188"/>
   </g>
  </g>
 </g><g id="Hair-Pig4">
 <animateTransform additive="sum" attributeName="transform" dur="10" repeatCount="indefinite" type="translate" values="0;0 200;0;0 200;0;0 200;0;0 200;0"/>
  <metadata id="CorelCorpID_152Corel-Layer"/>
  <path class="Hair-Pig4fil250" d="M12591 6647c0,0 -275,-339 -423,-635 -333,-667 -240,-1168 82,-1514 128,-138 354,-95 542,-185 123,-59 193,-263 333,-302 284,-78 596,-116 906,-113 105,1 150,101 214,156 -10,-35 311,-113 415,-92 1723,362 1938,2148 1431,2960 -17,17 37,-940 -565,-1253 852,560 -65,2395 -45,2473 58,227 -580,441 -1052,-728 -473,-1169 -1838,-767 -1838,-767z" style="fill:#19ed6a"/>
  <path class="Hair-Pig4fil10" d="M14864 6655c0,0 595,-548 701,-19 106,529 0,1096 0,1096 0,0 -1566,238 -701,-1077z" style="fill:#b2ef4b"/>
  <path class="Hair-Pig4fil10" d="M14620 6573c426,-1655 1420,-704 1514,275 192,-480 330,-801 107,-1486 -409,-1254 -1812,-285 -1707,1191 15,210 86,20 86,20z" style="fill:#1dd2d1"/>
  <path class="Hair-Pig4fil84" d="M14916 6708c-29,29 -77,29 -105,-1 -29,-29 -29,-77 0,-106 669,-588 783,40 761,123 -33,-34 -119,-481 -656,-16z" style="fill:#3aab41"/>
  <path class="Hair-Pig4fil84" d="M14975 5824c131,-204 456,-357 663,-169 31,27 33,75 6,105 -28,31 -75,33 -106,6 -203,-184 -458,-14 -563,58z" style="fill:#f5b35f"/>
  <path class="Hair-Pig4fil10" d="M13013 6483c0,0 -1160,-972 -699,-1972 -417,361 -392,1048 -189,1412 204,363 406,643 406,643 0,0 315,-63 482,-83z" style="fill:#86ffaf"/>
  <path class="Hair-Pig4fil10" d="M13096 4019c-912,555 -124,1858 -92,1854 -235,-1039 43,-1661 1205,-1857 0,0 -142,-150 -1113,3z" style="fill:#6b4d61"/>
  <path class="Hair-Pig4fil246" d="M13597 6447c-833,-1160 200,-2620 1325,-2404 578,111 1063,860 1063,860 -871,-545 -1689,603 -1733,1153 -112,-1299 733,-1556 643,-1548 -1160,107 -1482,1182 -1128,1954 131,288 -170,-15 -170,-15z" style="fill:#3fb97b"/>
  <path class="Hair-Pig4fil0 Hair-Pig4str0" d="M12591 6647c0,0 -275,-339 -423,-635 -372,-743 -308,-1116 106,-1464 380,-318 402,-181 518,-235 214,-151 109,-400 1170,-392 127,1 250,9 219,157 412,-173 816,-59 1156,136 1094,625 1185,2018 754,2708 -17,17 37,-940 -565,-1253 852,560 -65,2395 -45,2473 58,227 -580,441 -1052,-728 -473,-1169 -1838,-767 -1838,-767z" style="fill:#0c5b92"/>
  <path class="Hair-Pig4fil251" d="M16806 8621c409,-681 -1924,-1215 -2056,-1570 -448,-300 -1669,-358 -2340,-7 -111,399 -2420,665 -2137,1788 655,-525 2306,-496 3409,152 503,-208 1996,-778 3124,-363z" style="fill:#99f99e"/>
  <path class="Hair-Pig4fil10" d="M13166 8745c182,66 356,146 516,239 790,-829 -431,-707 -336,-1709 17,-179 26,-185 38,-317 0,0 -95,44 -206,409 -111,365 -645,402 -476,878 81,229 270,387 464,500z" style="fill:#fceef6"/>
  <path class="Hair-Pig4fil246" d="M13858 7028c-84,281 175,503 429,757 254,254 203,863 16,947 -190,86 1147,-244 667,-1055 378,84 813,335 665,793 750,-156 327,-775 -122,-975 -356,-159 -660,-329 -683,-349 -24,-20 -681,-218 -972,-118z" style="fill:#3748ee"/>
  <path class="Hair-Pig4fil84" d="M16807 8628c15,-136 89,-314 -443,-639 -244,-147 -556,-283 -841,-408 -396,-173 -744,-326 -831,-478 -225,-142 -643,-224 -1083,-225 -408,-2 -831,66 -1140,219 -78,159 -383,280 -746,423 -440,174 -974,384 -1234,701 -257,314 -204,514 -216,611 -157,-205 -60,-515 88,-698 283,-349 843,-570 1307,-753 351,-139 642,-254 670,-357 6,-19 19,-37 38,-47 333,-173 793,-250 1233,-249 479,2 938,97 1183,261 12,9 22,21 28,36 38,102 376,249 762,419 290,126 607,265 859,416 666,449 418,714 366,768z" style="fill:#df515b"/>
  <path class="Hair-Pig4fil252 Hair-Pig4str1" d="M12511 7102c-120,65 -270,20 -335,-101 -65,-121 -21,-273 99,-339 249,-136 753,-205 1260,-204 500,0 1020,66 1314,197 124,55 181,203 126,329 -55,126 -201,183 -325,128 -232,-104 -676,-156 -1115,-156 -434,-1 -847,48 -1024,146z" style="fill:#a76dfc"/>
  <path class="Hair-Pig4fil10" d="M12834 7033c0,0 -695,479 -803,761 -109,282 149,679 446,751 -601,-117 -1623,-163 -2200,283l-5 2c-279,-1121 2028,-1387 2138,-1786 9,-5 17,-9 25,-13l1 0 1 -1 14 -7 1 0 1 -1c187,-7 378,15 381,11z" style="fill:#b49f64"/>
 </g></svg>