<svg xmlns="http://www.w3.org/2000/svg" xmlns:xlink="http://www.w3.org/1999/xlink" style="shape-rendering:geometricPrecision; text-rendering:geometricPrecision; image-rendering:optimizeQuality; fill-rule:evenodd; clip-rule:evenodd" version="1.1" viewBox="0 0 29000 29000" xml:space="preserve"><defs><style type="text/css">.HairBack-Pig0fil0 {fill:none}
.Tail-Pig0fil0 {fill:none}
.RightFoot-Pig0fil37 {fill:#fffbfa}
.RightFoot-Pig0fil38 {fill:#ad8373}
.RightFoot-Pig0fil39 {fill:url(#RightFoot-Pig0id227)}
.RightFoot-Pig0fil40 {fill:black}
.RightFoot-Pig0fil10 {fill:black;fill-opacity:0.200000}
.RightFoot-Pig0fil0 {fill:none}
.RightFoot-Pig0str2 {stroke:black;stroke-width:150;stroke-linecap:round;stroke-linejoin:round}
.RightLeg-Pig0fil52 {fill:url(#RightLeg-Pig0id37)}
.RightLeg-Pig0fil10 {fill:black;fill-opacity:0.200000}
.RightLeg-Pig0fil0 {fill:none}
.RightLeg-Pig0str2 {stroke:black;stroke-width:150;stroke-linecap:round;stroke-linejoin:round}
.LeftFoot-Pig0fil37 {fill:#fffbfa}
.LeftFoot-Pig0fil38 {fill:#ad8373}
.LeftFoot-Pig0fil57 {fill:url(#LeftFoot-Pig0id220)}
.LeftFoot-Pig0fil40 {fill:black}
.LeftFoot-Pig0fil10 {fill:black;fill-opacity:0.200000}
.LeftFoot-Pig0fil0 {fill:none}
.LeftFoot-Pig0str2 {stroke:black;stroke-width:150;stroke-linecap:round;stroke-linejoin:round}
.LeftLeg-Pig0fil62 {fill:url(#LeftLeg-Pig0id49)}
.LeftLeg-Pig0fil10 {fill:black;fill-opacity:0.200000}
.LeftLeg-Pig0fil0 {fill:none}
.LeftLeg-Pig0str2 {stroke:black;stroke-width:150;stroke-linecap:round;stroke-linejoin:round}
.RightHand-Pig0fil68 {fill:url(#RightHand-Pig0id57)}
.RightHand-Pig0fil10 {fill:black;fill-opacity:0.200000}
.RightHand-Pig0fil0 {fill:none}
.RightHand-Pig0str0 {stroke:black;stroke-width:150;stroke-linecap:round;stroke-linejoin:round}
.RightPaw-Pig0fil74 {fill:url(#RightPaw-Pig0id25)}
.RightPaw-Pig0fil10 {fill:black;fill-opacity:0.200000}
.RightPaw-Pig0fil75 {fill:url(#RightPaw-Pig0id217)}
.RightPaw-Pig0fil40 {fill:black}
.RightPaw-Pig0fil0 {fill:none}
.RightPaw-Pig0str2 {stroke:black;stroke-width:150;stroke-linecap:round;stroke-linejoin:round}
.LeftHand-Pig0fil79 {fill:url(#LeftHand-Pig0id22)}
.LeftHand-Pig0fil10 {fill:black;fill-opacity:0.200000}
.LeftHand-Pig0fil0 {fill:none}
.LeftHand-Pig0str0 {stroke:black;stroke-width:150;stroke-linecap:round;stroke-linejoin:round}
.Body-Pig0fil83 {fill:url(#Body-Pig0id42)}
.Body-Pig0fil10 {fill:black;fill-opacity:0.200000}
.Body-Pig0fil84 {fill:black;fill-rule:nonzero}
.LeftPaw-Pig0fil91 {fill:url(#LeftPaw-Pig0id70)}
.LeftPaw-Pig0fil10 {fill:black;fill-opacity:0.200000}
.LeftPaw-Pig0fil92 {fill:url(#LeftPaw-Pig0id209)}
.LeftPaw-Pig0fil40 {fill:black}
.LeftPaw-Pig0fil0 {fill:none}
.LeftPaw-Pig0str2 {stroke:black;stroke-width:150;stroke-linecap:round;stroke-linejoin:round}
.Ears-Pig11fil156 {fill:url(#Ears-Pig11id147)}
.Ears-Pig11fil26 {fill:black;fill-opacity:0.301961}
.Ears-Pig11fil157 {fill:url(#Ears-Pig11id230)}
.Ears-Pig11fil84 {fill:black;fill-rule:nonzero}
.Ears-Pig11fil158 {fill:url(#Ears-Pig11id81)}
.Ears-Pig11fil159 {fill:url(#Ears-Pig11id219)}
.Head-Pig5fil165 {fill:url(#Head-Pig5id36)}
.Head-Pig5fil10 {fill:black;fill-opacity:0.200000}
.Head-Pig5fil84 {fill:black;fill-rule:nonzero}
.Mouth-Pig11fil26 {fill:black;fill-opacity:0.301961}
.Mouth-Pig11fil172 {fill:black;fill-rule:nonzero;fill-opacity:0.200000}
.Mouth-Pig11fil10 {fill:black;fill-opacity:0.200000}
.Mouth-Pig11fil169 {fill:black}
.Mouth-Pig11fil173 {fill:white}
.Mouth-Pig11str0 {stroke:black;stroke-width:150;stroke-linecap:round;stroke-linejoin:round}
.Mouth-Pig11fil0 {fill:none}
.EyesClosed-Pig7fil38 {fill:#ad8373}
.EyesClosed-Pig7fil10 {fill:black;fill-opacity:0.200000}
.EyesClosed-Pig7fil84 {fill:black;fill-rule:nonzero}
.Eyes-Pig7fil197 {fill:url(#Eyes-Pig7id164)}
.Eyes-Pig7fil215 {fill:url(#Eyes-Pig7id207)}
.Eyes-Pig7fil216 {fill:url(#Eyes-Pig7id109)}
.Eyes-Pig7fil148 {fill:black;fill-opacity:0.501961}
.Eyes-Pig7fil173 {fill:white}
.Eyes-Pig7fil200 {fill:url(#Eyes-Pig7id179)}
.Eyes-Pig7fil217 {fill:url(#Eyes-Pig7id208)}
.Eyes-Pig7fil218 {fill:url(#Eyes-Pig7id113)}
.Eyes-Pig7fil0 {fill:none}
.Eyes-Pig7str0 {stroke:black;stroke-width:150;stroke-linecap:round;stroke-linejoin:round}
.Moustache-Pig3fil234 {fill:url(#Moustache-Pig3id41)}
.Moustache-Pig3fil84 {fill:black;fill-rule:nonzero}
.Moustache-Pig3fil10 {fill:black;fill-opacity:0.200000}
.Nose-Pig0fil236 {fill:url(#Nose-Pig0id201)}
.Nose-Pig0str0 {stroke:black;stroke-width:150;stroke-linecap:round;stroke-linejoin:round}
.Nose-Pig0fil26 {fill:black;fill-opacity:0.301961}
.Nose-Pig0str3 {stroke:black;stroke-width:150;stroke-linecap:round;stroke-linejoin:round;stroke-opacity:0.301961}
.Nose-Pig0fil237 {fill:none}
.Hair-Pig6fil254 {fill:url(#Hair-Pig6id14)}
.Hair-Pig6fil30 {fill:black;fill-rule:nonzero}
.Hair-Pig6fil10 {fill:black;fill-opacity:0.200000}
.Hair-Pig6fil255 {fill:#e9934a}
</style><linearGradient gradientUnits="objectBoundingBox" id="RightFoot-Pig0id227" x1="49.9997%" x2="49.9997%" xlink:href="#RightFoot-Pig0id0" y1="100%" y2="0%">
  </linearGradient><linearGradient gradientUnits="objectBoundingBox" id="RightLeg-Pig0id37" x1="50%" x2="50%" xlink:href="#RightLeg-Pig0id2" y1="100%" y2="0%">
  </linearGradient><linearGradient gradientUnits="objectBoundingBox" id="LeftFoot-Pig0id220" x1="50.0003%" x2="50.0003%" xlink:href="#LeftFoot-Pig0id0" y1="100%" y2="0%">
  </linearGradient><linearGradient gradientUnits="objectBoundingBox" id="LeftLeg-Pig0id49" x1="50%" x2="50%" xlink:href="#LeftLeg-Pig0id2" y1="100%" y2="0%">
  </linearGradient><linearGradient gradientUnits="objectBoundingBox" id="RightHand-Pig0id57" x1="30.1244%" x2="69.8756%" xlink:href="#RightHand-Pig0id22" y1="2.32158%" y2="97.6784%">
  </linearGradient><linearGradient gradientUnits="objectBoundingBox" id="RightPaw-Pig0id25" x1="81.8832%" x2="18.1168%" y1="89.1977%" y2="10.8018%">
   <stop offset="0" style="stop-opacity:1; stop-color:#d1b0a3"/>
   <stop offset="0.619608" style="stop-opacity:1; stop-color:#f7d8cc"/>
   <stop offset="1" style="stop-opacity:1; stop-color:#f7d8cc"/>
  </linearGradient><linearGradient gradientUnits="objectBoundingBox" id="RightPaw-Pig0id217" x1="50%" x2="50%" xlink:href="#RightPaw-Pig0id0" y1="100%" y2="0%">
  </linearGradient><linearGradient gradientUnits="objectBoundingBox" id="LeftHand-Pig0id22" x1="69.8756%" x2="30.1244%" y1="2.32158%" y2="97.6784%">
   <stop offset="0" style="stop-opacity:1; stop-color:#d1b0a3"/>
   <stop offset="0.0196078" style="stop-opacity:1; stop-color:#d1b0a3"/>
   <stop offset="0.921569" style="stop-opacity:1; stop-color:#f7d8cc"/>
   <stop offset="1" style="stop-opacity:1; stop-color:#f7d8cc"/>
  </linearGradient><linearGradient gradientUnits="objectBoundingBox" id="Body-Pig0id42" x1="50%" x2="50%" y1="0.000186021%" y2="100%">
   <stop offset="0" style="stop-opacity:1; stop-color:#d1b0a3"/>
   <stop offset="0.0313725" style="stop-opacity:1; stop-color:#d1b0a3"/>
   <stop offset="0.529412" style="stop-opacity:1; stop-color:#f7d8cc"/>
   <stop offset="1" style="stop-opacity:1; stop-color:#fffbfa"/>
  </linearGradient><linearGradient gradientUnits="objectBoundingBox" id="LeftPaw-Pig0id70" x1="18.1168%" x2="81.8832%" xlink:href="#LeftPaw-Pig0id25" y1="89.1977%" y2="10.8018%">
  </linearGradient><linearGradient gradientUnits="objectBoundingBox" id="LeftPaw-Pig0id209" x1="50%" x2="50%" xlink:href="#LeftPaw-Pig0id0" y1="100%" y2="0%">
  </linearGradient><linearGradient gradientUnits="userSpaceOnUse" id="Ears-Pig11id147" x1="19116.6" x2="18343.8" xlink:href="#Ears-Pig11id0" y1="11492" y2="5430.71">
  </linearGradient><linearGradient gradientUnits="userSpaceOnUse" id="Ears-Pig11id230" x1="19529.2" x2="15699.7" xlink:href="#Ears-Pig11id219" y1="8264.24" y2="8169.88">
  </linearGradient><linearGradient gradientUnits="userSpaceOnUse" id="Ears-Pig11id81" x1="8633.68" x2="8633.68" xlink:href="#Ears-Pig11id0" y1="11653" y2="5269.7">
  </linearGradient><linearGradient gradientUnits="objectBoundingBox" id="Head-Pig5id36" x1="50%" x2="50%" xlink:href="#Head-Pig5id3" y1="100%" y2="9.57532e-005%">
  </linearGradient><linearGradient gradientUnits="objectBoundingBox" id="Eyes-Pig7id164" x1="38.8114%" x2="61.1889%" xlink:href="#Eyes-Pig7id148" y1="96.6455%" y2="3.35484%">
  </linearGradient><radialGradient cx="16987.8" cy="13055.3" fx="16987.8" fy="13055.3" gradientTransform="matrix(-1.02041 -0 -0 0.932491 34322 881)" gradientUnits="userSpaceOnUse" id="Eyes-Pig7id207" r="1595.63" xlink:href="#Eyes-Pig7id205">
  </radialGradient><linearGradient gradientUnits="userSpaceOnUse" id="Eyes-Pig7id109" x1="17002.3" x2="16419.5" xlink:href="#Eyes-Pig7id45" y1="10915.2" y2="13382.1">
  </linearGradient><linearGradient gradientUnits="objectBoundingBox" id="Eyes-Pig7id179" x1="61.4146%" x2="38.5851%" xlink:href="#Eyes-Pig7id148" y1="96.4338%" y2="3.56653%">
  </linearGradient><radialGradient cx="10441.2" cy="13055.3" fx="10441.2" fy="13055.3" gradientTransform="matrix(1.02041 -0 -0 0.932491 -213 881)" gradientUnits="userSpaceOnUse" id="Eyes-Pig7id208" r="1595.63" xlink:href="#Eyes-Pig7id205">
  </radialGradient><linearGradient gradientUnits="userSpaceOnUse" id="Eyes-Pig7id113" x1="10361.6" x2="10944.4" xlink:href="#Eyes-Pig7id45" y1="10915.2" y2="13382.1">
  </linearGradient><linearGradient gradientUnits="userSpaceOnUse" id="Moustache-Pig3id41" x1="13681.9" x2="13681.9" y1="18279.7" y2="16359.7">
   <stop offset="0" style="stop-opacity:1; stop-color:#cf792d"/>
   <stop offset="0.6" style="stop-opacity:1; stop-color:#cf792d"/>
   <stop offset="1" style="stop-opacity:1; stop-color:#e9934a"/>
  </linearGradient><linearGradient gradientUnits="userSpaceOnUse" id="Nose-Pig0id201" x1="13681.9" x2="13681.9" xlink:href="#Nose-Pig0id151" y1="13309.5" y2="15458">
  </linearGradient><linearGradient gradientUnits="userSpaceOnUse" id="Hair-Pig6id14" x1="11906.6" x2="15774.6" xlink:href="#Hair-Pig6id7" y1="9095.76" y2="5227.8">
  </linearGradient><linearGradient gradientUnits="userSpaceOnUse" id="RightFoot-Pig0id0" x1="16257.8" x2="16257.8" y1="21560.3" y2="23683.4">
   <stop offset="0" style="stop-opacity:1; stop-color:#ad8373"/>
   <stop offset="1" style="stop-opacity:1; stop-color:#d4afa1"/>
  </linearGradient><linearGradient gradientUnits="userSpaceOnUse" id="RightLeg-Pig0id2" x1="11782.6" x2="11782.6" y1="24212.9" y2="21311.8">
   <stop offset="0" style="stop-opacity:1; stop-color:#fffbfa"/>
   <stop offset="0.388235" style="stop-opacity:1; stop-color:#fffbfa"/>
   <stop offset="1" style="stop-opacity:1; stop-color:#f7d8cc"/>
  </linearGradient><linearGradient gradientUnits="userSpaceOnUse" id="LeftFoot-Pig0id0" x1="16257.8" x2="16257.8" y1="21560.3" y2="23683.4">
   <stop offset="0" style="stop-opacity:1; stop-color:#ad8373"/>
   <stop offset="1" style="stop-opacity:1; stop-color:#d4afa1"/>
  </linearGradient><linearGradient gradientUnits="userSpaceOnUse" id="LeftLeg-Pig0id2" x1="11782.6" x2="11782.6" y1="24212.9" y2="21311.8">
   <stop offset="0" style="stop-opacity:1; stop-color:#fffbfa"/>
   <stop offset="0.388235" style="stop-opacity:1; stop-color:#fffbfa"/>
   <stop offset="1" style="stop-opacity:1; stop-color:#f7d8cc"/>
  </linearGradient><linearGradient gradientUnits="objectBoundingBox" id="RightHand-Pig0id22" x1="69.8756%" x2="30.1244%" y1="2.32158%" y2="97.6784%">
   <stop offset="0" style="stop-opacity:1; stop-color:#d1b0a3"/>
   <stop offset="0.0196078" style="stop-opacity:1; stop-color:#d1b0a3"/>
   <stop offset="0.921569" style="stop-opacity:1; stop-color:#f7d8cc"/>
   <stop offset="1" style="stop-opacity:1; stop-color:#f7d8cc"/>
  </linearGradient><linearGradient gradientUnits="userSpaceOnUse" id="RightPaw-Pig0id0" x1="16257.8" x2="16257.8" y1="21560.3" y2="23683.4">
   <stop offset="0" style="stop-opacity:1; stop-color:#ad8373"/>
   <stop offset="1" style="stop-opacity:1; stop-color:#d4afa1"/>
  </linearGradient><linearGradient gradientUnits="objectBoundingBox" id="LeftPaw-Pig0id25" x1="81.8832%" x2="18.1168%" y1="89.1977%" y2="10.8018%">
   <stop offset="0" style="stop-opacity:1; stop-color:#d1b0a3"/>
   <stop offset="0.619608" style="stop-opacity:1; stop-color:#f7d8cc"/>
   <stop offset="1" style="stop-opacity:1; stop-color:#f7d8cc"/>
  </linearGradient><linearGradient gradientUnits="userSpaceOnUse" id="LeftPaw-Pig0id0" x1="16257.8" x2="16257.8" y1="21560.3" y2="23683.4">
   <stop offset="0" style="stop-opacity:1; stop-color:#ad8373"/>
   <stop offset="1" style="stop-opacity:1; stop-color:#d4afa1"/>
  </linearGradient><linearGradient gradientUnits="userSpaceOnUse" id="Ears-Pig11id0" x1="16257.8" x2="16257.8" y1="21560.3" y2="23683.4">
   <stop offset="0" style="stop-opacity:1; stop-color:#ad8373"/>
   <stop offset="1" style="stop-opacity:1; stop-color:#d4afa1"/>
  </linearGradient><linearGradient gradientUnits="userSpaceOnUse" id="Ears-Pig11id219" x1="7773.48" x2="11725.5" y1="8217.06" y2="8217.06">
   <stop offset="0" style="stop-opacity:1; stop-color:#d1b0a3"/>
   <stop offset="1" style="stop-opacity:1; stop-color:#ad8373"/>
  </linearGradient><linearGradient gradientUnits="userSpaceOnUse" id="Head-Pig5id3" x1="18922.8" x2="18922.8" y1="11187.2" y2="5413.87">
   <stop offset="0" style="stop-opacity:1; stop-color:#d1b0a3"/>
   <stop offset="0.388235" style="stop-opacity:1; stop-color:#f7d8cc"/>
   <stop offset="1" style="stop-opacity:1; stop-color:#fffbfa"/>
  </linearGradient><linearGradient gradientUnits="userSpaceOnUse" id="Eyes-Pig7id148" x1="16641" x2="17334.4" y1="14255.9" y2="11076.2">
   <stop offset="0" style="stop-opacity:1; stop-color:#500073"/>
   <stop offset="1" style="stop-opacity:1; stop-color:black"/>
  </linearGradient><radialGradient cx="10603.5" cy="12833.7" fx="10603.5" fy="12833.7" gradientTransform="matrix(-0.879932 -0 -0 0.999997 19934 0)" gradientUnits="userSpaceOnUse" id="Eyes-Pig7id205" r="1364.99">
   <stop offset="0" style="stop-opacity:1; stop-color:#a900f2"/>
   <stop offset="1" style="stop-opacity:1; stop-color:#500073"/>
  </radialGradient><linearGradient gradientUnits="userSpaceOnUse" id="Eyes-Pig7id45" x1="16680.3" x2="16680.3" y1="11243.5" y2="13543.4">
   <stop offset="0" style="stop-opacity:1; stop-color:black"/>
   <stop offset="0.4" style="stop-opacity:1; stop-color:black"/>
   <stop offset="1" style="stop-opacity:1; stop-color:#3e0059"/>
  </linearGradient><linearGradient gradientUnits="userSpaceOnUse" id="Nose-Pig0id151" x1="13681.9" x2="13681.9" y1="13554.2" y2="15469.2">
   <stop offset="0" style="stop-opacity:1; stop-color:#FFCCCC"/>
   <stop offset="1" style="stop-opacity:1; stop-color:#DB9092"/>
  </linearGradient><linearGradient gradientUnits="userSpaceOnUse" id="Hair-Pig6id7" x1="17165.3" x2="17165.3" y1="19960.9" y2="12270.8">
   <stop offset="0" style="stop-opacity:1; stop-color:#cf792d"/>
   <stop offset="1" style="stop-opacity:1; stop-color:#e9934a"/>
  </linearGradient></defs><g id="HairBack-Pig0">
 <animateTransform additive="sum" attributeName="transform" dur="10" repeatCount="indefinite" type="translate" values="0;0 200;0;0 200;0;0 200;0;0 200;0"/>
  <metadata id="CorelCorpID_0Corel-Layer"/>
  <rect class="HairBack-Pig0fil0" height="890" width="890" x="13237" y="6590"/>
  <rect class="HairBack-Pig0fil0" height="890" width="890" x="13237" y="6590"/>
 </g><g id="Tail-Pig0">
  <metadata id="CorelCorpID_3Corel-Layer"/>
  <rect class="Tail-Pig0fil0" height="900" width="900" x="13232" y="22153"/>
 </g><g id="RightFoot-Pig0">
  <metadata id="CorelCorpID_10Corel-Layer"/>
  <path class="RightFoot-Pig0fil37" d="M16559 24190c54,65 143,233 174,292 62,268 -152,365 -298,365 -143,0 -686,-98 -894,289 -330,-192 -541,-572 -540,-565 -22,-43 -41,-85 -54,-126 -58,-176 -10,-247 31,-317 480,-107 1078,-83 1581,62z" style="fill:#b4bd12"/>
  <path class="RightFoot-Pig0fil38" d="M15011 24496c-3,101 -14,73 -14,176 -5,821 346,600 430,523 12,-11 59,-71 57,-73 -109,-146 -274,-300 -473,-626z" style="fill:#623589"/>
  <path class="RightFoot-Pig0fil0 RightFoot-Pig0str2" d="M14995 24537c1,45 2,90 2,135 -5,821 346,600 430,523 4,-4 19,-23 37,-48" style="fill:#8d5b29"/>
  <path class="RightFoot-Pig0fil39" d="M16756 24466c0,0 -225,-105 -294,-5 -54,78 49,353 -47,353 -106,0 -310,-245 -509,-215 -288,43 -418,429 -384,506 35,82 343,409 763,435 419,26 490,-14 487,-39 -3,-24 42,-150 42,-150 0,0 458,-59 491,-95 100,-109 -467,-691 -549,-790z" style="fill:#3456b1"/>
  <polygon class="RightFoot-Pig0fil40" points="16740,25393 16571,24994 16934,25330 "/>
  <path class="RightFoot-Pig0fil0 RightFoot-Pig0str2" d="M16567 24189c147,241 633,739 718,969 84,231 -492,167 -492,167 0,0 5,189 -122,220 -281,70 -831,-103 -1075,-309 -49,-41 -99,-87 -150,-135" style="fill:#3c44c7"/>
  <path class="RightFoot-Pig0fil0 RightFoot-Pig0str2" d="M16567 24189c45,73 121,170 208,277m-1262 697c-341,-311 -707,-789 -548,-1037" style="fill:#6cae99"/>
  <path class="RightFoot-Pig0fil10" d="M15252 24171c-250,336 427,769 691,965 282,210 555,378 651,406 -45,23 -445,-31 -727,-123 -179,-96 -710,-617 -803,-752 -94,-163 -147,-331 -119,-480 10,-21 22,-40 33,-59 85,-7 193,-3 274,43z" style="fill:#42867b"/>
 </g><g id="LeftFoot-Pig0">
  <metadata id="CorelCorpID_27Corel-Layer"/>
  <path class="LeftFoot-Pig0fil37" d="M10805 24190c-54,65 -143,233 -174,292 -62,268 152,365 298,365 143,0 685,-98 894,289 330,-192 541,-572 540,-565 22,-43 40,-85 54,-126 58,-176 10,-247 -31,-317 -480,-107 -1078,-83 -1581,62z" style="fill:#426d52"/>
  <path class="LeftFoot-Pig0fil38" d="M12353 24496c3,101 14,73 14,176 5,821 -346,600 -430,523 -12,-11 -59,-71 -57,-73 109,-146 274,-300 473,-626z" style="fill:#bf6916"/>
  <path class="LeftFoot-Pig0fil0 LeftFoot-Pig0str2" d="M12369 24537c-1,45 -2,90 -2,135 5,821 -346,600 -430,523 -4,-4 -19,-23 -37,-48" style="fill:#09e878"/>
  <path class="LeftFoot-Pig0fil57" d="M10608 24466c0,0 225,-105 294,-5 54,78 -49,353 47,353 106,0 309,-245 509,-215 288,43 418,429 384,506 -35,82 -343,409 -763,435 -419,26 -490,-14 -487,-39 3,-24 -42,-150 -42,-150 0,0 -458,-59 -491,-95 -101,-109 467,-691 549,-790z" style="fill:#65ce0a"/>
  <polygon class="LeftFoot-Pig0fil40" points="10624,25393 10793,24994 10430,25330 "/>
  <path class="LeftFoot-Pig0fil0 LeftFoot-Pig0str2" d="M10797 24189c-147,241 -633,739 -718,969 -85,231 492,167 492,167 0,0 -5,189 122,220 281,70 831,-103 1075,-309 49,-41 99,-87 150,-135" style="fill:#a459b5"/>
  <path class="LeftFoot-Pig0fil0 LeftFoot-Pig0str2" d="M10797 24189c-45,73 -121,170 -208,277m1262 697c341,-311 707,-789 548,-1037" style="fill:#d703a9"/>
  <path class="LeftFoot-Pig0fil10" d="M12112 24171c250,336 -428,769 -691,965 -282,210 -555,378 -651,406 45,23 444,-31 727,-123 179,-96 710,-617 803,-752 94,-163 147,-331 119,-480 -10,-21 -22,-40 -33,-59 -85,-7 -193,-3 -274,43z" style="fill:#d161fd"/>
 </g><g id="RightLeg-Pig0">
  <metadata id="CorelCorpID_22Corel-Layer"/>
  <path class="RightLeg-Pig0fil52" d="M16570 21416c0,0 1181,1189 570,2176 -128,221 -511,470 -581,598 -599,44 -1104,27 -1581,-62 45,-78 82,-155 -44,-376 -113,-198 -400,-446 -1252,-493 0,-147 0,-280 0,-522 373,-788 1598,-1745 2888,-1321z" style="fill:#07e14e"/>
  <path class="RightLeg-Pig0fil10" d="M17192 23421c67,-141 106,-290 107,-439 2,-734 -540,-1374 -869,-1659l-157 688c26,45 52,90 79,136 387,-391 947,832 840,1274z" style="fill:#fd5b36"/>
  <path class="RightLeg-Pig0fil0 RightLeg-Pig0str2" d="M16570 21416c303,324 585,778 689,1246 115,521 25,950 -408,1282 -95,72 -194,144 -284,245m-1602 -63c284,-396 -518,-875 -1283,-867" style="fill:#cf3255"/>
  <path class="RightLeg-Pig0fil10" d="M13760 23246c341,-28 1532,124 1607,584 27,166 -52,256 -115,341 -93,-12 -184,-26 -274,-43 40,-70 74,-140 -11,-313 -8,-22 -19,-42 -33,-62l0 -1c-104,-182 -357,-408 -1066,-479 -35,-9 -71,-18 -108,-27z" style="fill:#d089de"/>
 </g><g id="LeftLeg-Pig0">
  <metadata id="CorelCorpID_39Corel-Layer"/>
  <path class="LeftLeg-Pig0fil62" d="M10794 21416c0,0 -1181,1189 -570,2176 128,221 511,470 581,598 599,44 1104,27 1581,-62 -45,-78 -82,-155 44,-376 113,-198 400,-446 1252,-493 0,-147 0,-280 0,-522 -373,-788 -1598,-1745 -2888,-1321z" style="fill:#cc28e2"/>
  <path class="LeftLeg-Pig0fil10" d="M10172 23421c-67,-141 -106,-290 -107,-439 -2,-734 540,-1374 869,-1659l157 688c-26,45 -53,90 -79,136 -388,-391 -947,832 -840,1274z" style="fill:#12f5e7"/>
  <path class="LeftLeg-Pig0fil0 LeftLeg-Pig0str2" d="M10794 21416c-303,324 -586,778 -689,1246 -115,521 -25,950 408,1282 95,72 193,144 284,245m1602 -63c-284,-396 517,-875 1283,-867" style="fill:#bde839"/>
  <path class="LeftLeg-Pig0fil10" d="M13604 23246c-341,-28 -1532,124 -1607,584 -27,166 52,256 115,341 93,-12 184,-26 274,-43 -40,-70 -74,-140 11,-313 8,-22 19,-42 33,-62l0 -1c104,-182 357,-408 1066,-479 35,-9 71,-18 108,-27z" style="fill:#bfdeb6"/>
 </g><g id="RightHand-Pig0">
 <animateTransform additive="sum" attributeName="transform" dur="10" repeatCount="indefinite" type="translate" values="0;0 200;0;0 200;0;0 200;0;0 200;0"/>
  <metadata id="CorelCorpID_44Corel-Layer"/>
  <path class="RightHand-Pig0fil68" d="M16231 17709c1005,345 1816,1398 2255,2162 -88,184 -847,720 -1129,836 -543,-402 -1045,-430 -1469,-362 -742,120 -1353,-1920 -931,-2545 422,-21 934,-40 1274,-91z" style="fill:#40c499"/>
  <path class="RightHand-Pig0fil10" d="M17342 20696c-537,-391 -1034,-418 -1454,-351 -171,28 -335,-59 -481,-217 -325,-472 753,-1098 1039,-656 258,399 723,837 1098,1116 3,2 22,18 34,27l-219 113c-8,-18 -14,-30 -17,-32z" style="fill:#9e06d0"/>
  <path class="RightHand-Pig0fil0 RightHand-Pig0str0" d="M16477 20333c179,24 366,81 561,178 100,50 205,104 305,189m1121 -817c-161,-280 -388,-607 -632,-916 -422,-534 -963,-1039 -1601,-1258 -90,-31 -172,-59 -246,-84" style="fill:#4f57a0"/>
 </g><g id="LeftHand-Pig0">
 <animateTransform additive="sum" attributeName="transform" dur="10" repeatCount="indefinite" type="translate" values="0;0 200;0;0 200;0;0 200;0;0 200;0"/>
  <metadata id="CorelCorpID_61Corel-Layer"/>
  <path class="LeftHand-Pig0fil79" d="M11133 17709c-1005,345 -1817,1398 -2255,2162 88,184 847,720 1128,836 544,-402 1046,-430 1470,-362 742,120 1352,-1920 931,-2545 -422,-21 -934,-40 -1274,-91z" style="fill:#cc2be2"/>
  <path class="LeftHand-Pig0fil10" d="M10022 20696c537,-391 1034,-418 1454,-351 171,28 335,-59 481,-217 325,-472 -753,-1098 -1039,-656 -258,399 -723,837 -1098,1116 -3,2 -22,18 -34,27l219 113c8,-18 14,-30 17,-32z" style="fill:#9e2011"/>
  <path class="LeftHand-Pig0fil0 LeftHand-Pig0str0" d="M10887 20333c-179,24 -366,81 -561,178 -100,50 -205,104 -305,189m-1121 -817c161,-280 388,-607 632,-916 422,-534 963,-1039 1601,-1258 90,-31 171,-59 246,-84" style="fill:#3b50cb"/>
 </g><g id="Body-Pig0">
 <animateTransform additive="sum" attributeName="transform" dur="10" repeatCount="indefinite" type="translate" values="0;0 200;0;0 200;0;0 200;0;0 200;0"/>
  <metadata id="CorelCorpID_66Corel-Layer"/>
  <path class="Body-Pig0fil83" d="M13682 23135c-1548,0 -2752,-291 -2993,-1956 -147,-1014 391,-2287 991,-3420 634,80 1289,123 2002,142 713,-19 1367,-62 2002,-142 600,1133 1137,2406 991,3420 -242,1665 -1445,1956 -2993,1956z" style="fill:#0d9457"/>
  <path class="Body-Pig0fil10" d="M12621 23067c-1016,-156 -1749,-629 -1932,-1888 -75,-519 29,-1106 229,-1707 -223,2001 402,3257 1703,3595z" style="fill:#a4e5ce"/>
  <path class="Body-Pig0fil84" d="M11012 22144c-250,-321 -348,-641 -397,-954 -59,-377 -24,-998 184,-1320 -78,421 -93,905 -36,1298 50,341 104,572 249,976z" style="fill:#d9bd7d"/>
  <path class="Body-Pig0fil10" d="M14743 23067c1016,-156 1749,-629 1932,-1888 75,-519 -29,-1106 -229,-1707 223,2001 -402,3257 -1703,3595z" style="fill:#5aa7f6"/>
  <path class="Body-Pig0fil84" d="M16352 22144c250,-321 347,-641 397,-954 59,-377 24,-998 -184,-1320 78,421 93,905 36,1298 -50,341 -104,572 -249,976z" style="fill:#a4465f"/>
 </g><g id="RightPaw-Pig0">
 <animateTransform additive="sum" attributeName="transform" dur="10" repeatCount="indefinite" type="translate" values="0;0 200;0;0 200;0;0 200;0;0 200;0"/>
  <metadata id="CorelCorpID_49Corel-Layer"/>
  <path class="RightPaw-Pig0fil74" d="M18486 19871c155,269 247,281 434,498 211,244 446,948 341,1067 -34,39 -389,8 -389,8 -15,58 -145,373 -188,392 -161,73 -598,-324 -814,-554 -63,111 -195,178 -216,147 -79,-27 -146,-195 -211,-374 -34,-92 -45,-318 -86,-348 139,-387 621,-775 1129,-836z" style="fill:#ee26c9"/>
  <path class="RightPaw-Pig0fil10" d="M17452 20518c31,24 62,48 92,70 4,3 39,31 43,34 13,14 26,28 39,43 79,93 97,228 104,283 2,13 3,21 4,24 -2,92 -166,169 -227,208 0,-8 -67,-223 -116,-364 0,-31 3,-54 -7,-90 -9,-6 -18,-13 -27,-19 23,-64 55,-127 95,-189z" style="fill:#133f6f"/>
  <path class="RightPaw-Pig0fil75" d="M18910 20358c-402,-76 -337,407 -242,635 -239,-309 -538,-414 -692,-297 -104,79 -113,131 -203,226 -99,104 -339,-108 -394,-184 -18,147 139,645 275,691 21,31 153,-36 216,-147 216,230 653,627 814,554 43,-19 173,-334 188,-392 0,0 355,31 389,-8 109,-123 -135,-862 -351,-1078z" style="fill:#a1b248"/>
  <path class="RightPaw-Pig0fil10" d="M18804 21498c-67,307 -352,47 -875,-255 4,66 -100,45 -131,-12 -41,-92 -52,-190 -68,-283 -88,22 -225,-79 -303,-156 -5,-5 -11,-11 -16,-16 49,174 144,541 243,653 90,2 173,-72 216,-147 199,212 579,572 803,508 84,-24 78,-133 131,-292z" style="fill:#d544f5"/>
  <path class="RightPaw-Pig0fil0 RightPaw-Pig0str2" d="M17136 20561c121,75 170,94 271,202 1,149 38,330 93,461 54,128 115,197 196,208 55,8 128,-6 194,-123 208,221 642,571 796,501 41,-19 164,-344 179,-400 0,0 356,75 389,38 86,-99 -94,-785 -280,-992 -109,-122 -404,-420 -409,-427 -68,-85 -123,-182 -179,-276" style="fill:#bbaa8a"/>
  <polygon class="RightPaw-Pig0fil40" points="18796,21484 18678,21021 18973,21393 "/>
 </g><g id="LeftPaw-Pig0">
 <animateTransform additive="sum" attributeName="transform" dur="10" repeatCount="indefinite" type="translate" values="0;0 200;0;0 200;0;0 200;0;0 200;0"/>
  <metadata id="CorelCorpID_71Corel-Layer"/>
  <path class="LeftPaw-Pig0fil91" d="M8878 19871c-155,269 -247,281 -434,498 -211,244 -446,948 -341,1067 34,39 388,8 388,8 16,58 146,373 189,392 161,73 598,-324 814,-554 63,111 195,178 216,147 79,-27 146,-195 211,-374 34,-92 45,-318 85,-348 -138,-387 -621,-775 -1128,-836z" style="fill:#4f5f1a"/>
  <path class="LeftPaw-Pig0fil10" d="M9912 20518c-31,24 -62,48 -92,70 -4,3 -39,31 -43,34 -14,14 -27,28 -39,43 -79,93 -97,228 -104,283 -2,13 -3,21 -4,24 2,92 166,169 226,208 0,-8 68,-223 117,-364 -1,-31 -3,-54 7,-90 9,-6 18,-13 26,-19 -22,-64 -54,-127 -94,-189z" style="fill:#a37b59"/>
  <path class="LeftPaw-Pig0fil92" d="M8454 20358c401,-76 337,407 242,635 239,-309 538,-414 692,-297 104,79 113,131 203,226 99,104 339,-108 394,-184 18,147 -140,645 -275,691 -21,31 -153,-36 -216,-147 -216,230 -653,627 -814,554 -43,-19 -173,-334 -189,-392 0,0 -354,31 -388,-8 -109,-123 135,-862 351,-1078z" style="fill:#4fa5aa"/>
  <path class="LeftPaw-Pig0fil10" d="M8560 21498c67,307 352,47 875,-255 -5,66 100,45 131,-12 40,-92 52,-190 68,-283 88,22 225,-79 303,-156 5,-5 11,-11 16,-16 -49,174 -144,541 -243,653 -90,2 -173,-72 -216,-147 -199,212 -579,572 -803,508 -84,-24 -79,-133 -131,-292z" style="fill:#dfa302"/>
  <path class="LeftPaw-Pig0fil0 LeftPaw-Pig0str2" d="M10228 20561c-121,75 -170,94 -272,202 0,149 -37,330 -92,461 -55,128 -115,197 -196,208 -55,8 -128,-6 -194,-123 -208,221 -642,571 -797,501 -41,-19 -163,-344 -178,-400 0,0 -356,75 -389,38 -86,-99 94,-785 280,-992 109,-122 404,-420 409,-427 68,-85 123,-182 179,-276" style="fill:#14aa27"/>
  <polygon class="LeftPaw-Pig0fil40" points="8568,21484 8686,21021 8391,21393 "/>
 </g><g id="Ears-Pig11">
 <animateTransform additive="sum" attributeName="transform" dur="10" repeatCount="indefinite" type="translate" values="0;0 200;0;0 200;0;0 200;0;0 200;0"/>
  <metadata id="CorelCorpID_94Corel-Layer"/>
  <path class="Ears-Pig11fil156" d="M16314 9206c387,-2201 1306,-1965 2249,-2812 884,-794 1294,-1305 2013,-1064 48,14 -831,319 -1000,949 0,3 604,-727 1442,-205 79,47 -1007,132 -1222,703 -74,162 714,476 1005,-10 23,111 -40,518 -395,667 -228,87 -396,112 -447,186 567,67 1244,486 1186,1325 -172,-199 -599,-506 -1037,-497 -34,0 559,354 613,828 54,475 -282,1126 -432,1271 -105,103 165,-996 -247,-1273 131,942 -132,1045 -237,1199 -22,34 72,-648 -105,-821 -119,-161 -326,275 -292,624 44,450 374,1001 767,782 6,-4 -459,612 -1141,-119 82,228 382,397 538,453 156,57 198,89 245,88 47,-1 -582,477 -1145,-151 -21,-69 -2426,-2183 -2358,-2123z" style="fill:#2b1935"/>
  <path class="Ears-Pig11fil26" d="M17799 6921c230,-155 417,-291 558,-358 393,-184 528,-269 780,-271 -336,391 -192,674 -702,1038 -1,3 672,-608 1429,-47 73,50 -809,-14 -1112,542 -99,156 921,311 1022,923 -767,-431 -1361,-202 -1402,-155 556,95 857,406 882,1197 -141,-207 -494,-407 -933,-421 -35,-1 1075,872 518,1837 -431,-134 -558,-474 -853,-517 -377,-337 -704,-358 -1253,-778 -218,-167 -1284,-1723 -803,-1671 702,75 1174,-848 1869,-1319z" style="fill:#f83170"/>
  <path class="Ears-Pig11fil157" d="M18414 5692c125,149 247,692 -157,1347 -1,3 572,-642 1329,-80 72,50 -709,19 -1012,574 -99,157 323,378 689,-89 6,111 -78,599 -456,729 -242,74 -551,57 -613,129 556,95 842,312 866,1103 -141,-207 -478,-313 -917,-327 -35,-1 1206,699 650,1664 -69,-564 -241,-565 -537,-607 -6,384 -2048,809 -1825,-492 48,-276 -1160,-1746 -679,-1694 801,86 2435,-1117 2662,-2257z" style="fill:#e2b6d9"/>
  <path class="Ears-Pig11fil84" d="M18454 6622c28,-66 11,-486 -2,-596 -5,-42 -12,-80 -21,-115 -165,478 -570,989 -1042,1389 -543,460 -1180,776 -1645,726 -21,-2 -30,-1 -30,3 -13,126 203,480 409,819 208,340 407,666 382,808 -22,130 -20,240 1,333 29,126 94,221 184,290 92,72 212,118 342,142 222,41 473,21 687,-31l0 0c22,-6 47,0 66,16 267,239 517,465 695,629 111,102 193,182 235,230 4,3 8,7 12,11 335,373 693,322 892,240 10,-4 18,-8 27,-12 -28,-11 -60,-24 -99,-38 -97,-35 -245,-111 -370,-216 -93,-78 -173,-174 -213,-283 -10,-29 -4,-61 18,-84 29,-30 77,-29 105,2 353,377 635,369 815,289 -68,-17 -133,-51 -192,-99 -90,-73 -169,-178 -230,-298 -79,-152 -130,-329 -146,-494 -19,-198 33,-422 106,-565 27,-53 58,-97 90,-127 44,-41 92,-59 142,-48 31,8 60,26 84,58 124,127 134,436 128,652 89,-136 166,-376 84,-968 -3,-18 1,-37 11,-53 22,-36 68,-47 103,-24 315,212 281,801 262,1132l-1 9c71,-116 152,-282 214,-463 68,-200 111,-416 90,-600 -40,-346 -408,-633 -538,-735 -21,-17 -39,-31 -52,-45 -11,-9 -19,-22 -22,-37 -2,-5 -3,-11 -3,-17l0 -2c-1,-53 23,-79 75,-80 200,-4 397,53 571,136 153,74 288,168 393,259 -17,-266 -119,-479 -265,-643 -225,-251 -555,-389 -854,-424 -13,-2 -25,-6 -36,-14 -33,-25 -42,-73 -18,-108 49,-72 145,-103 282,-147 58,-18 125,-39 200,-68 121,-52 203,-137 258,-229 29,-49 50,-99 64,-145 -162,116 -367,135 -546,106 -79,-13 -153,-35 -215,-62 -66,-29 -121,-63 -158,-99 -60,-57 -83,-121 -56,-185 168,-442 787,-610 1100,-688 -457,-207 -825,-29 -1027,121 -109,81 -213,157 -276,255 -10,15 -23,-10 -26,-66 -5,-105 13,-156 57,-254 172,-383 577,-630 813,-757 -487,-71 -852,265 -1436,803 -47,42 -381,301 -478,461zm151 -369c81,-74 156,-143 228,-209 696,-640 1099,-1012 1766,-788l4 1c46,16 61,48 47,97 -6,20 -19,36 -35,45 -20,16 -48,30 -83,48l0 0c-155,79 -507,260 -725,542 271,-169 716,-314 1249,18 47,28 56,66 31,112 -9,17 -22,28 -38,35 -34,19 -87,32 -156,49l-6 1c-281,70 -878,221 -1021,601l-3 6c-1,4 11,-3 21,6 25,24 64,49 114,70 53,23 115,41 180,52 199,33 435,-5 559,-213 22,-36 68,-48 104,-25 18,12 29,30 33,50 16,79 -2,282 -109,463 -70,117 -175,227 -331,292l-2 1c-76,29 -146,51 -208,71l-28 9c262,71 525,212 719,429 204,228 332,537 304,935 -3,43 -38,75 -80,72 -22,-1 -41,-13 -54,-30 -93,-107 -263,-246 -470,-345 -83,-40 -172,-73 -263,-95 176,156 408,409 443,714 25,211 -22,451 -97,670 -104,306 -264,576 -358,667 -45,44 -85,42 -123,0 -36,-40 -30,-137 -23,-274 13,-214 32,-550 -48,-782 40,602 -116,780 -229,908 -19,21 -37,41 -51,62l-2 4c-30,40 -64,46 -104,16l0 0c-4,-3 -7,-6 -10,-10l-1 0c-14,-15 -21,-36 -20,-57 -3,-25 -1,-56 0,-93 9,-175 27,-564 -80,-669 -3,-3 -6,-6 -8,-9l-3 -4c-1,2 -3,5 -8,10 -19,18 -39,47 -58,85 -61,121 -106,310 -90,477 14,145 60,302 130,436 52,101 116,189 190,248 67,55 142,84 221,76 37,-4 77,-16 117,-39 7,-4 14,-6 21,-8l0 0c40,-8 80,19 88,61 9,47 -44,101 -77,132 -39,38 -97,85 -173,124 -73,38 -162,69 -264,76l5 2c41,17 63,27 75,26l2 0c29,0 50,13 65,37l2 3c19,34 10,79 -22,103 -11,14 -26,28 -45,40 -33,23 -82,50 -143,75 -237,99 -663,161 -1057,-278 -8,-9 -14,-19 -17,-30 -3,-5 -86,-78 -219,-201 -165,-152 -405,-368 -665,-601 -223,50 -480,67 -709,24 -152,-28 -293,-82 -407,-170 -116,-90 -203,-215 -240,-380 -26,-112 -29,-243 -3,-394 15,-84 -169,-385 -360,-699 -220,-361 -450,-738 -432,-918 10,-102 69,-155 194,-142 425,46 1020,-255 1536,-692 516,-437 947,-1008 1046,-1502 8,-42 47,-69 88,-61 17,4 31,13 41,25l1 0c55,67 110,195 130,367 8,73 11,155 4,245z" style="fill:#dfe168"/>
  <path class="Ears-Pig11fil158" d="M11050 9206c-387,-2201 -1306,-1965 -2249,-2812 -885,-794 -1295,-1305 -2013,-1064 -48,14 831,319 999,949 1,3 -603,-727 -1441,-205 -79,47 1007,132 1222,703 74,162 -714,476 -1005,-10 -23,111 40,518 395,667 228,87 396,112 446,186 -566,67 -1243,486 -1185,1325 172,-199 599,-506 1037,-497 34,0 -559,354 -613,828 -55,475 282,1126 431,1271 106,103 -164,-996 248,-1273 -131,942 132,1045 237,1199 22,34 -72,-648 105,-821 118,-161 326,275 292,624 -44,450 -374,1001 -768,782 -6,-4 460,612 1142,-119 -83,228 -382,397 -538,453 -156,57 -198,89 -245,88 -47,-1 582,477 1145,-151 20,-69 2426,-2183 2358,-2123z" style="fill:#a5d980"/>
  <path class="Ears-Pig11fil26" d="M9564 6921c-229,-155 -416,-291 -557,-358 -394,-184 -528,-269 -780,-271 336,391 192,674 702,1038 1,3 -673,-608 -1429,-47 -73,50 809,-14 1111,542 100,156 -920,311 -1022,923 768,-431 1362,-202 1403,-155 -556,95 -858,406 -882,1197 141,-207 494,-407 933,-421 35,-1 -1075,872 -518,1837 431,-134 558,-474 853,-517 377,-337 704,-358 1253,-778 218,-167 1284,-1723 803,-1671 -702,75 -1175,-848 -1870,-1319z" style="fill:#e39640"/>
  <path class="Ears-Pig11fil159" d="M8950 5692c-125,149 -248,692 157,1347 1,3 -572,-642 -1329,-80 -72,50 709,19 1011,574 100,157 -322,378 -688,-89 -6,111 78,599 456,729 241,74 551,57 613,129 -556,95 -842,312 -866,1103 141,-207 478,-313 917,-327 35,-1 -1206,699 -650,1664 69,-564 241,-565 537,-607 6,384 2048,809 1825,-492 -48,-276 1160,-1746 679,-1694 -801,86 -2436,-1117 -2662,-2257z" style="fill:#5b6cf0"/>
  <path class="Ears-Pig11fil84" d="M8910 6622c-29,-66 -11,-486 2,-596 5,-42 12,-80 20,-115 166,478 571,989 1043,1389 543,460 1179,776 1645,726 21,-2 30,-1 30,3 13,126 -203,480 -410,819 -207,340 -406,666 -381,808 22,130 20,240 -1,333 -29,126 -94,221 -184,290 -93,72 -212,118 -342,142 -222,41 -473,21 -687,-31l0 0c-23,-6 -47,0 -66,16 -267,239 -518,465 -695,629 -111,102 -194,182 -235,230 -4,3 -8,7 -12,11 -335,373 -693,322 -892,240 -10,-4 -18,-8 -27,-12 28,-11 60,-24 99,-38 97,-35 245,-111 370,-216 93,-78 173,-174 213,-283 10,-29 4,-61 -18,-84 -29,-30 -77,-29 -106,2 -352,377 -634,369 -814,289 68,-17 132,-51 191,-99 91,-73 170,-178 231,-298 78,-152 130,-329 146,-494 19,-198 -33,-422 -106,-565 -27,-53 -58,-97 -90,-127 -44,-41 -92,-59 -142,-48 -31,8 -60,26 -84,58 -124,127 -134,436 -128,652 -89,-136 -166,-376 -84,-968 3,-18 -1,-37 -11,-53 -22,-36 -69,-47 -103,-24 -315,212 -281,801 -262,1132l1 9c-72,-116 -152,-282 -214,-463 -68,-200 -111,-416 -90,-600 40,-346 408,-633 537,-735 22,-17 40,-31 53,-45 11,-9 18,-22 22,-37 2,-5 3,-11 3,-17l0 -2c1,-53 -23,-79 -75,-80 -200,-4 -397,53 -571,136 -153,74 -289,168 -393,259 17,-266 119,-479 265,-643 225,-251 555,-389 854,-424 12,-2 25,-6 35,-14 34,-25 42,-73 19,-108 -49,-72 -146,-103 -282,-147 -58,-18 -125,-39 -200,-68 -121,-52 -204,-137 -258,-229 -29,-49 -50,-99 -65,-145 162,116 368,135 547,106 79,-13 153,-35 215,-62 66,-29 121,-63 158,-99 60,-57 83,-121 56,-185 -168,-442 -787,-610 -1100,-688 457,-207 825,-29 1027,121 109,81 213,157 276,255 10,15 23,-10 25,-66 5,-105 -13,-156 -57,-254 -172,-383 -576,-630 -812,-757 487,-71 852,265 1436,803 47,42 381,301 478,461zm-151 -369c-81,-74 -156,-143 -228,-209 -696,-640 -1099,-1012 -1766,-788l-4 1c-46,16 -61,48 -47,97 6,20 19,36 35,45 20,16 48,30 83,48l0 0c155,79 507,260 725,542 -271,-169 -716,-314 -1249,18 -47,28 -56,66 -31,112 9,17 22,28 38,35 34,19 87,32 156,49l6 1c280,70 878,221 1021,601l2 6c2,4 -10,-3 -20,6 -25,24 -65,49 -114,70 -53,23 -115,41 -180,52 -199,33 -435,-5 -560,-213 -21,-36 -68,-48 -103,-25 -18,12 -29,30 -33,50 -17,79 2,282 109,463 69,117 175,227 331,292l2 1c75,29 146,51 208,71l28 9c-262,71 -525,212 -720,429 -203,228 -331,537 -303,935 2,43 38,75 80,72 22,-1 41,-13 53,-30 94,-107 264,-246 471,-345 83,-40 172,-73 263,-95 -176,156 -409,409 -444,714 -24,211 23,451 98,670 104,306 264,576 357,667 46,44 86,42 124,0 36,-40 30,-137 22,-274 -12,-214 -31,-550 49,-782 -40,602 116,780 229,908 19,21 36,41 51,62l2 4c29,40 63,46 104,16l0 0c4,-3 7,-6 10,-10l0 0c15,-15 22,-36 21,-57 3,-25 1,-56 -1,-93 -8,-175 -26,-564 81,-669 3,-3 6,-6 8,-9l3 -4c1,2 3,5 8,10 19,18 39,47 58,85 61,121 106,310 89,477 -14,145 -59,302 -129,436 -52,101 -116,189 -190,248 -67,55 -142,84 -221,76 -38,-4 -77,-16 -117,-39 -7,-4 -14,-6 -21,-8l0 0c-41,-8 -80,19 -88,61 -9,47 44,101 77,132 39,38 97,85 173,124 73,38 162,69 264,76l-5 2c-41,17 -63,27 -75,26l-2 0c-29,0 -50,13 -65,37l-2 3c-19,34 -10,79 22,103 11,14 26,28 45,40 33,23 82,50 142,75 238,99 664,161 1058,-278 8,-9 14,-19 17,-30 3,-5 86,-78 219,-201 165,-152 405,-368 665,-601 223,50 480,67 709,24 152,-28 293,-82 406,-170 117,-90 203,-215 241,-380 26,-112 28,-243 2,-394 -14,-84 170,-385 361,-699 220,-361 450,-738 432,-918 -10,-102 -69,-155 -194,-142 -425,46 -1020,-255 -1536,-692 -516,-437 -948,-1008 -1046,-1502 -8,-42 -48,-69 -88,-61 -17,4 -31,13 -41,25l-1 0c-55,67 -110,195 -130,367 -8,73 -11,155 -4,245z" style="fill:#1c07f2"/>
 </g><g id="Head-Pig5">
 <animateTransform additive="sum" attributeName="transform" dur="10" repeatCount="indefinite" type="translate" values="0;0 200;0;0 200;0;0 200;0;0 200;0"/>
  <metadata id="CorelCorpID_100Corel-Layer"/>
  <path class="Head-Pig5fil165" d="M13682 17937c-481,0 -1034,-24 -1605,-101 -847,-114 -1738,-333 -2509,-708 -371,-180 -500,136 -491,337 -719,-495 -631,-1374 -770,-1556 -53,121 -259,436 -231,759 -578,-501 -343,-1565 -391,-1702 -35,-194 -252,-47 -443,254 -49,-404 -28,-822 41,-1233 85,-513 252,-1119 496,-1583 158,-300 365,-615 604,-1079 102,-182 197,-394 302,-573 27,-47 54,-103 82,-149 358,-597 759,-1164 1323,-1636 1250,-1046 2355,-1447 3591,-1474l1 0 1 0c1236,27 2341,428 3590,1474 565,472 966,1039 1324,1636 28,46 54,102 82,149 104,179 200,391 302,573 239,464 446,779 603,1079 245,464 412,1070 497,1583 69,411 90,829 41,1233 -191,-301 -408,-448 -443,-254 -48,137 187,1201 -391,1702 27,-323 -178,-638 -231,-759 -139,182 -52,1061 -770,1556 9,-201 -120,-517 -491,-337 -771,375 -1662,594 -2509,708 -571,77 -1124,101 -1605,101z" style="fill:#5d6240"/>
  <path class="Head-Pig5fil10" d="M8595 11042c-90,145 -189,290 -291,434 -206,384 -384,662 -525,928 -244,464 -411,1070 -496,1583 -69,411 -90,829 -41,1233 191,-301 408,-448 443,-254 48,137 -187,1201 391,1702 -28,-323 178,-638 231,-759 139,182 51,1061 770,1556 -9,-201 120,-517 491,-337 771,375 1662,594 2509,708 149,20 297,36 442,50 40,3 80,6 120,9 -2326,-552 -4001,-1593 -4496,-3087 -323,-975 -154,-2267 452,-3766z" style="fill:#a9ceb7"/>
  <path class="Head-Pig5fil84" d="M9861 9172c974,-1177 2398,-1757 3821,-1747 1423,-10 2847,570 3821,1747 -1223,-1081 -2522,-1612 -3821,-1603 -1299,-9 -2598,522 -3821,1603z" style="fill:#374e45"/>
  <path class="Head-Pig5fil84" d="M18558 10538c262,349 484,763 669,1097 87,158 168,282 197,333 83,143 159,273 227,401 116,221 215,473 296,731 92,294 162,598 208,874 36,216 59,433 66,650 7,204 0,406 -25,605 -4,41 -42,70 -83,65 -23,-3 -43,-16 -54,-34 -84,-131 -170,-230 -241,-279 -23,-16 -43,-26 -57,-27 0,0 0,-1 0,-1l0 -1c-3,5 -6,14 -9,27 0,4 -1,8 -3,11 -6,18 -2,94 3,199 20,386 57,1127 -415,1536 -31,27 -79,23 -106,-8 -13,-16 -19,-36 -18,-55l0 0c18,-208 -72,-417 -145,-564 -9,39 -17,84 -27,133 -69,363 -177,927 -712,1296 -34,23 -81,15 -104,-19 -10,-14 -14,-30 -13,-46 3,-60 -9,-131 -39,-192 -16,-34 -38,-64 -66,-86 -27,-20 -59,-33 -99,-35 -48,-2 -107,11 -179,46 -367,179 -762,323 -1165,437 -159,44 -1032,206 -1451,214 611,-128 1199,-299 1410,-359 395,-111 781,-251 1140,-426 96,-47 179,-64 251,-61 73,3 134,28 184,65 48,37 84,86 110,139 18,38 32,79 41,120 395,-334 485,-807 545,-1121 30,-153 52,-273 103,-339 8,-10 18,-18 30,-23 38,-17 82,0 98,38 9,19 23,47 40,79 63,124 162,315 192,528 291,-379 262,-967 246,-1290 -6,-116 -10,-201 3,-248 8,-40 22,-71 42,-94 34,-40 79,-56 131,-49 39,5 81,23 124,53 51,35 107,89 163,157 8,-129 10,-257 6,-386 -7,-209 -30,-420 -65,-630 -45,-270 -113,-566 -203,-854 -79,-250 -174,-494 -286,-706 -66,-125 -141,-254 -223,-396 -41,-70 -116,-197 -199,-377 -133,-288 -307,-697 -538,-1128zm1203 4415c1,-1 3,-4 1,-2l-1 1 0 1z" style="fill:#a11b97"/>
  <path class="Head-Pig5fil84" d="M8806 10538c-262,349 -484,763 -669,1097 -87,158 -168,282 -197,333 -83,143 -159,273 -227,401 -116,221 -215,473 -296,731 -92,294 -162,598 -208,874 -36,216 -59,433 -66,650 -7,204 0,406 24,605 5,41 43,70 84,65 23,-3 42,-16 54,-34 84,-131 170,-230 241,-279 23,-16 43,-26 57,-27 0,0 0,-1 0,-1l0 -1c3,5 6,14 8,27 1,4 2,8 3,11 7,18 3,94 -2,199 -20,386 -57,1127 415,1536 31,27 79,23 106,-8 13,-16 19,-36 18,-55l0 0c-18,-208 72,-417 145,-564 9,39 17,84 27,133 69,363 176,927 712,1296 34,23 80,15 104,-19 10,-14 14,-30 13,-46 -3,-60 9,-131 39,-192 16,-34 38,-64 66,-86 26,-20 59,-33 99,-35 48,-2 107,11 179,46 367,179 761,323 1165,437 159,44 1032,206 1451,214 -611,-128 -1199,-299 -1410,-359 -395,-111 -781,-251 -1140,-426 -96,-47 -179,-64 -251,-61 -74,3 -134,28 -184,65 -48,37 -84,86 -110,139 -19,38 -32,79 -41,120 -395,-334 -485,-807 -545,-1121 -30,-153 -52,-273 -103,-339 -8,-10 -18,-18 -30,-23 -38,-17 -82,0 -98,38 -9,19 -23,47 -40,79 -64,124 -162,315 -192,528 -291,-379 -262,-967 -246,-1290 6,-116 10,-201 -3,-248 -8,-40 -22,-71 -42,-94 -34,-40 -79,-56 -131,-49 -39,5 -81,23 -124,53 -51,35 -107,89 -163,157 -8,-129 -10,-257 -6,-386 7,-209 30,-420 65,-630 45,-270 113,-566 203,-854 78,-250 174,-494 286,-706 66,-125 141,-254 223,-396 41,-70 116,-197 199,-377 133,-288 307,-697 538,-1128zm-1203 4415c-1,-1 -3,-4 -1,-2l1 1 0 1z" style="fill:#7f0212"/>
 </g><g id="Mouth-Pig11">
 <animateTransform additive="sum" attributeName="transform" dur="10" repeatCount="indefinite" type="translate" values="0;0 200;0;0 200;0;0 200;0;0 200;0"/>
  <metadata id="CorelCorpID_114Corel-Layer"/>
  <g id="_2991504378928">
   <path class="Mouth-Pig11fil26" d="M13685 14778c-412,3 -756,733 -1155,730 408,32 491,117 1155,120 664,-3 746,-88 1155,-120 -399,3 -743,-727 -1155,-730z" style="fill:#dc5d86"/>
   <path class="Mouth-Pig11fil172" d="M12882 16013c315,47 487,75 803,75 316,0 487,-28 803,-75 -302,148 -491,238 -803,238 -312,0 -501,-90 -803,-238z" style="fill:#47fbe5"/>
   <g>
    <path class="Mouth-Pig11fil173 Mouth-Pig11str0" d="M15944 14884c13,-54 13,-118 7,-187 -19,-198 -127,-464 -166,-666 -22,-116 -50,-202 -85,-220 -53,-27 -121,84 -158,179 -19,48 -35,154 -35,246 2,180 31,384 -22,532 -158,441 -616,602 -601,644 47,138 491,71 721,-56 123,-69 287,-245 339,-472z" style="fill:#647d98"/>
    <path class="Mouth-Pig11fil10" d="M15815 15050c-109,115 -450,285 -481,99 -15,-89 -478,284 -392,317 86,34 826,-15 873,-416z" style="fill:#17d564"/>
   </g>
   <g>
    <path class="Mouth-Pig11fil173 Mouth-Pig11str0" d="M11537 15157c-17,-51 -23,-116 -23,-185 1,-202 85,-486 106,-696 12,-119 32,-211 65,-234 50,-36 127,64 172,152 23,46 48,149 55,241 15,181 3,390 68,530 195,415 661,501 650,545 -34,146 -479,154 -717,64 -128,-49 -304,-198 -376,-417z" style="fill:#27e35a"/>
    <path class="Mouth-Pig11fil10" d="M11679 15303c117,96 469,210 484,19 7,-93 502,184 420,232 -82,48 -823,143 -904,-251z" style="fill:#0aab4f"/>
   </g>
   <path class="Mouth-Pig11fil0 Mouth-Pig11str0" d="M11296 15422c236,198 787,290 1129,213 182,-41 306,-124 588,-185 181,-40 494,-72 672,-75" style="fill:#90fb70"/>
   <path class="Mouth-Pig11fil169" d="M11318 15270c5,39 14,88 74,132 28,21 135,214 4,162 -109,-43 -337,-194 -261,-325 48,-82 166,-96 183,31z" style="fill:#c4b8e4"/>
   <path class="Mouth-Pig11fil0 Mouth-Pig11str0" d="M16322 14586c-205,457 -428,661 -719,798 -274,128 -616,136 -996,79 -292,-44 -631,-106 -922,-88" style="fill:#fa94a5"/>
   <path class="Mouth-Pig11fil169" d="M16343 14706c-22,43 -142,7 -128,-37 5,-19 49,-67 9,-212 -67,-238 356,-180 176,138 -15,26 -44,83 -57,111z" style="fill:#dd0fb2"/>
  </g>
 </g><g id="EyesClosed-Pig7">
 <animateTransform additive="sum" attributeName="transform" dur="10" repeatCount="indefinite" type="translate" values="0;0 200;0;0 200;0;0 200;0;0 200;0"/>
  <metadata id="CorelCorpID_130Corel-Layer"/>
  <g id="_2991498753584">
   <path class="EyesClosed-Pig7fil38" d="M17589 10636c-127,21 -195,-160 -675,-295 -440,-123 -713,-35 -805,-187 -103,-168 162,-739 409,-789 753,-152 1450,1208 1071,1271z"/>
   <path class="EyesClosed-Pig7fil10" d="M17589 10636c-127,21 -195,-160 -675,-295 -440,-123 -713,-35 -805,-187 -103,-168 162,-739 409,-789 753,-152 1450,1208 1071,1271z"/>
  </g>
  <g id="_2991498752400">
   <path class="EyesClosed-Pig7fil38" d="M9775 10636c127,21 195,-160 675,-295 440,-123 713,-35 805,-187 103,-168 -162,-739 -409,-789 -753,-152 -1450,1208 -1071,1271z"/>
   <path class="EyesClosed-Pig7fil10" d="M9775 10636c127,21 195,-160 675,-295 440,-123 713,-35 805,-187 103,-168 -162,-739 -409,-789 -753,-152 -1450,1208 -1071,1271z"/>
  </g>
  <path class="EyesClosed-Pig7fil84" d="M15403 13609c78,-67 271,-33 531,7 1042,158 2199,-120 2683,-1209 -144,1319 -1613,1816 -2809,1381 -115,-42 -214,-94 -328,-77 -45,7 -179,-15 -77,-102z"/>
  <path class="EyesClosed-Pig7fil84" d="M11961 13609c-78,-67 -271,-33 -531,7 -1043,158 -2199,-120 -2684,-1209 145,1319 1614,1816 2810,1381 115,-42 214,-94 328,-77 45,7 179,-15 77,-102z"/>
 </g><g id="Eyes-Pig7">
 <animate attributeName="opacity" dur="10" repeatCount="indefinite" values="0;1;1;1;1;1;1;1;1;1;1;1;1;1;1;1;1;1;1;1;1;1;1;1;1;1;1;1;1;1;1;1;1;1;1;1;1;1;1;1;1;1;1;1;1;1;1;1;1;1;1;1;1;1;1;1;1;1;1;1;1;1;1;1;1;1;1;1;1;1;1;1;1;1;1;1;1;1;1;1;1;1;1;1;0;0"/>
 <animateTransform additive="sum" attributeName="transform" dur="10" repeatCount="indefinite" type="translate" values="0;0 200;0;0 200;0;0 200;0;0 200;0"/>
  <metadata id="CorelCorpID_131Corel-Layer"/>
  <g id="_2993573736752">
   <path class="Eyes-Pig7fil197" d="M17019 14281c-583,1 -1009,-212 -1377,-432 -425,-253 -407,-991 -263,-1587 140,-582 450,-1463 1499,-1431 229,8 449,109 627,232 316,218 886,669 1036,1303 208,886 -261,1913 -1522,1915z"/>
   <path class="Eyes-Pig7fil215" d="M15327 13128c4,-77 11,-156 22,-236l1336 -535 -1346 947c-5,-42 -10,-131 -12,-176zm1374 -790l-1306 205c-15,-1385 1038,-259 1312,-223 19,2 23,66 34,56l1205 -1047 141 193 49 55 -1396 817c-44,5 -43,-29 -39,-56zm1657 -457c55,94 175,278 206,372l-1795 137 1589 -509zm223 717c7,100 -4,270 -18,364l-1802 -557 1820 193zm-156 747c-48,115 -108,221 -176,315l-1510 -1249 1686 934zm-516 599c-25,19 -95,56 -120,72 -63,41 -160,96 -225,127l-840 -1726 1185 1527zm-749 312c-113,25 -273,45 -386,49l-69 -1899 455 1850zm-748 -4c-105,-14 -253,-135 -348,-160l626 -1694 -278 1854zm-649 -307c-22,-10 -70,-27 -90,-37 -84,-42 -152,-106 -205,-186l1216 -1345 -921 1568z"/>
   <path class="Eyes-Pig7fil216" d="M16986 10909c-640,-149 -1282,285 -1434,970 -152,684 244,1360 884,1509 640,149 1282,-285 1434,-969 151,-685 -244,-1361 -884,-1510z"/>
   <path class="Eyes-Pig7fil148" d="M15366 13439c-197,-879 180,-2421 1115,-2556 630,-92 1138,102 1545,597 332,404 591,1186 632,1632 -368,-1020 -1369,-1693 -2048,-1627 -863,84 -1229,938 -1244,1954z"/>
   <g>
    <circle class="Eyes-Pig7fil173" r="235" transform="matrix(0.805222 -2.39867 1.88046 0.461536 16282.1 11856.2)"/>
    <circle class="Eyes-Pig7fil173" r="235" transform="matrix(0.511451 -0.0476309 0.0595148 0.521886 17490.7 12785.1)"/>
    <circle class="Eyes-Pig7fil173" r="235" transform="matrix(0.554042 -1.05186 0.853042 0.366906 17645.7 13279.8)"/>
    <path class="Eyes-Pig7fil173" d="M18289 12815c120,779 -748,1349 -1178,1226 441,-98 1005,-604 1178,-1226z"/>
   </g>
   <path class="Eyes-Pig7fil0 Eyes-Pig7str0" d="M15339 13289c0,0 -1,409 303,560 120,60 333,164 559,270 1032,482 2349,-147 2411,-1292 50,-904 -1310,-2574 -2501,-1772 -750,505 -824,1385 -772,2234z"/>
  </g>
  <g id="_2991550381328">
   <path class="Eyes-Pig7fil200" d="M10345 14281c583,1 1009,-212 1377,-432 424,-253 407,-991 263,-1587 -140,-582 -450,-1463 -1500,-1431 -228,8 -448,109 -627,232 -316,218 -885,669 -1035,1303 -208,886 261,1913 1522,1915z"/>
   <path class="Eyes-Pig7fil217" d="M12037 13128c-4,-77 -11,-156 -22,-236l-1337 -535 1347 947c5,-42 9,-131 12,-176zm-1374 -790l1306 205c15,-1385 -1038,-259 -1312,-223 -19,2 -23,66 -34,56l-1206 -1047 -140 193 -50 55 1397 817c43,5 42,-29 39,-56zm-1657 -457c-55,94 -175,278 -206,372l1794 137 -1588 -509zm-224 717c-6,100 5,270 19,364l1801 -557 -1820 193zm157 747c48,115 108,221 176,315l1510 -1249 -1686 934zm516 599c25,19 95,56 120,72 63,41 160,96 225,127l840 -1726 -1185 1527zm748 312c114,25 274,45 387,49l69 -1899 -456 1850zm749 -4c105,-14 252,-135 348,-160l-626 -1694 278 1854zm649 -307c22,-10 69,-27 90,-37 84,-42 152,-106 204,-186l-1215 -1345 921 1568z"/>
   <path class="Eyes-Pig7fil218" d="M10378 10909c640,-149 1282,285 1434,970 151,684 -244,1360 -884,1509 -640,149 -1282,-285 -1434,-969 -151,-685 244,-1361 884,-1510z"/>
   <path class="Eyes-Pig7fil148" d="M11998 13439c196,-879 -180,-2421 -1115,-2556 -630,-92 -1138,102 -1545,597 -333,404 -592,1186 -632,1632 368,-1020 1368,-1693 2048,-1627 863,84 1229,938 1244,1954z"/>
   <g>
    <circle class="Eyes-Pig7fil173" r="235" transform="matrix(0.805222 -2.39867 1.88046 0.461536 9959.72 11856.2)"/>
    <circle class="Eyes-Pig7fil173" r="235" transform="matrix(0.511451 -0.0476309 0.0595148 0.521886 11168.3 12785.1)"/>
    <circle class="Eyes-Pig7fil173" r="235" transform="matrix(0.554042 -1.05186 0.853042 0.366906 11323.2 13279.8)"/>
    <path class="Eyes-Pig7fil173" d="M9075 12815c-120,779 747,1349 1178,1226 -441,-98 -1005,-604 -1178,-1226z"/>
   </g>
   <path class="Eyes-Pig7fil0 Eyes-Pig7str0" d="M12025 13289c0,0 1,409 -303,560 -120,60 -333,164 -560,270 -1031,482 -2348,-147 -2411,-1292 -49,-904 1311,-2574 2502,-1772 750,505 824,1385 772,2234z"/>
  </g>
 </g><g id="Moustache-Pig3">
 <animateTransform additive="sum" attributeName="transform" dur="10" repeatCount="indefinite" type="translate" values="0;0 200;0;0 200;0;0 200;0;0 200;0"/>
  <metadata id="CorelCorpID_139Corel-Layer"/>
  <path class="Moustache-Pig3fil234" d="M10904 16360c18,1 82,389 307,458 92,29 54,-287 160,-188 51,48 159,299 235,358 60,46 84,-101 155,-52 444,308 1055,622 1284,416 233,-209 -273,-240 56,-316 17,-4 119,84 169,76 56,-9 70,-173 129,-148 183,77 245,-10 283,-10 38,0 100,87 283,10 59,-25 73,139 129,148 50,8 152,-80 169,-76 329,76 -177,107 55,316 229,206 841,-108 1285,-416 71,-49 95,98 155,52 76,-59 184,-310 234,-358 107,-99 69,217 161,188 225,-69 289,-457 306,-458 428,508 -378,1121 -737,1290 -307,145 -866,312 -1200,421 -5,-42 1,-166 24,-183 -356,117 -586,377 -694,392 16,-65 -123,-279 -170,-360 -47,81 -166,223 -151,288 -107,-15 -357,-203 -713,-320 23,17 29,141 24,183 -334,-109 -893,-276 -1200,-421 -360,-169 -1165,-782 -738,-1290z" style="fill:#92d327"/>
  <path class="Moustache-Pig3fil84" d="M16389 17131c-259,461 -1484,895 -1627,941 -67,21 -129,41 -217,70 -39,13 -81,-9 -94,-48 -2,-6 -3,-13 -3,-19 -2,-17 -3,-42 -2,-68 -146,67 -267,154 -361,222 -92,66 -161,116 -223,125 -41,5 -69,-23 -74,-64 -9,-67 -75,-173 -109,-229 -44,64 -108,193 -133,220 -9,2 -16,2 -24,1 -61,-9 -140,-50 -243,-105 -98,-52 -220,-117 -362,-174 2,31 1,60 -1,77 -6,41 -43,70 -84,65 -5,-1 -9,-2 -14,-3 -87,-29 -149,-49 -216,-70 -146,-46 -1177,-386 -1578,-883 645,474 1437,681 1623,741l118 37 25 5c-2,-13 -14,-20 -16,-24 -26,-19 -37,-52 -27,-84 13,-39 55,-61 95,-48 207,69 378,159 507,228 50,27 94,50 128,66 22,-50 57,-102 90,-150l2 -4c19,-28 37,-55 48,-73 6,-11 16,-21 28,-28 35,-21 81,-8 102,27 5,9 16,27 28,48 41,68 97,162 129,244 26,-17 58,-40 93,-66 128,-93 302,-218 525,-292l0 1c29,-10 62,-1 82,24 26,33 20,80 -12,105 -20,16 -16,22 7,21l118 -37c190,-61 1329,-427 1672,-799z" style="fill:#1fb23d"/>
  <path class="Moustache-Pig3fil10" d="M11851 17651c0,0 682,180 719,180 37,0 -109,-185 -109,-185 0,0 467,94 605,125 137,32 15,-244 86,-407 111,316 213,379 321,495 71,-113 157,-385 179,-432 100,692 494,565 892,145 5,85 54,301 113,329 60,29 826,-207 826,-207 0,0 -918,417 -939,397 -22,-20 -35,-179 -35,-179 0,0 -548,265 -619,366 -71,101 -175,-272 -218,-341 -43,-70 -191,256 -191,256l-651 -283 12 161c0,0 -911,-297 -991,-420z" style="fill:#0df0f2"/>
 </g><g id="Nose-Pig0">
 <animateTransform additive="sum" attributeName="transform" dur="10" repeatCount="indefinite" type="translate" values="0;0 200;0;0 200;0;0 200;0;0 200;0"/>
  <metadata id="CorelCorpID_141Corel-Layer"/>
  <g id="_2991533171152">
   <path class="Nose-Pig0fil236 Nose-Pig0str0" d="M13682 15431c688,0 1646,200 1573,-487 -68,-630 -928,-1635 -1573,-1635 -645,0 -1505,1005 -1573,1635 -73,687 885,487 1573,487z" style="fill:#110e46"/>
   <g>
    <path class="Nose-Pig0fil26 Nose-Pig0str3" d="M14332 14239c-113,0 -205,188 -205,418 0,231 92,418 205,418 114,0 206,-187 206,-418 -1,-230 -93,-418 -206,-418z" style="fill:#c37dbb"/>
    <path class="Nose-Pig0fil237 Nose-Pig0str3" d="M14332 14239c-113,0 -205,188 -205,418 0,231 92,418 205,418 114,0 206,-187 206,-418 -1,-230 -93,-418 -206,-418z" style="fill:#508f6d"/>
   </g>
   <g>
    <path class="Nose-Pig0fil26 Nose-Pig0str3" d="M13032 14239c113,0 205,188 205,418 0,231 -92,418 -205,418 -114,0 -206,-187 -206,-418 0,-230 93,-418 206,-418z" style="fill:#0ba285"/>
    <path class="Nose-Pig0fil237 Nose-Pig0str3" d="M13032 14239c113,0 205,188 205,418 0,231 -92,418 -205,418 -114,0 -206,-187 -206,-418 0,-230 93,-418 206,-418z" style="fill:#9daf20"/>
   </g>
  </g>
 </g><g id="Hair-Pig6">
 <animateTransform additive="sum" attributeName="transform" dur="10" repeatCount="indefinite" type="translate" values="0;0 200;0;0 200;0;0 200;0;0 200;0"/>
  <metadata id="CorelCorpID_154Corel-Layer"/>
  <path class="Hair-Pig6fil254" d="M17022 7893c153,-53 276,-144 299,-230 0,0 -180,-83 -587,-273 172,-186 306,-282 306,-282 -102,-113 -342,-145 -711,-161 209,-256 227,-911 187,-1043 -411,640 -789,485 -1315,433 6,-91 529,-482 652,-494 -155,-195 -567,-196 -1057,-78 -70,17 -213,129 -284,152 319,-236 306,-431 412,-801 -459,359 -1113,262 -1835,799 113,-270 163,-491 375,-560 -442,-294 -1406,565 -1796,984 237,-422 337,-670 337,-670 -425,-22 -927,757 -1127,1138 -15,-284 -217,-464 -287,-500 88,1631 -570,1526 14,2278 531,-298 802,-355 1348,-264 779,129 1041,535 1384,596 -58,-131 -71,-378 35,-319 103,57 275,471 335,610 93,-108 263,-540 408,-609 108,-51 18,335 -18,450 283,-26 468,-391 965,-581 502,-192 1173,-139 1657,90 2,-81 -21,-217 72,-390 45,-82 117,-175 231,-275z" style="fill:#dc58ee"/>
  <path class="Hair-Pig6fil30" d="M16719 8554c-50,-359 131,-610 376,-780 39,-27 75,-52 103,-74l-487 -227c-36,-17 -54,-68 -41,-113 5,-17 13,-31 24,-41 81,-88 154,-156 209,-204 -36,-15 -79,-27 -129,-37 -115,-23 -265,-35 -447,-43 -38,-1 -68,-42 -67,-90 0,-24 8,-46 21,-61 74,-91 125,-252 157,-419 25,-131 39,-262 44,-367 -323,444 -729,394 -1128,345 -48,-6 -96,-12 -159,-18 -38,-4 -66,-46 -63,-95 1,-24 10,-44 23,-59 47,-76 164,-179 291,-269 80,-56 165,-110 240,-152 -137,-51 -314,-73 -493,-66 -213,9 -424,60 -567,155 -21,18 -43,35 -66,52 -31,25 -72,16 -94,-23 -22,-39 -15,-94 16,-123 22,-20 47,-40 73,-58 109,-92 192,-201 244,-316 38,-85 58,-174 60,-263 -221,196 -480,269 -767,351 -297,85 -626,178 -968,432 -33,25 -76,10 -95,-32 -10,-23 -12,-50 -5,-74 30,-124 81,-233 145,-328 35,-52 74,-100 114,-144 -633,-57 -1088,453 -1427,835 -46,51 -89,100 -144,158 -29,31 -72,26 -97,-11 -20,-32 -21,-76 -3,-108 127,-225 214,-400 267,-512 -118,37 -241,130 -359,250 -247,249 -469,609 -585,831 -21,41 -64,51 -96,24 -18,-16 -29,-41 -30,-67l0 0c-6,-104 -38,-195 -79,-267 -21,-37 -44,-68 -65,-92 4,183 -1,346 -16,502l0 1c-20,199 -57,384 -118,583l0 0 -5 17c-216,630 71,948 79,1028 -101,-68 -379,-476 -207,-1095l5 -14 0 0c57,-185 91,-358 110,-542 18,-184 19,-382 9,-618 -4,-55 32,-103 76,-96 66,10 168,92 243,222 26,46 50,98 68,156 130,-223 319,-503 525,-712 182,-184 380,-313 570,-305 51,-1 86,69 62,128 0,1 -21,52 -65,148 363,-377 833,-742 1472,-590 63,11 83,119 28,163 -79,63 -161,143 -228,242 -7,12 -15,23 -22,35 287,-171 560,-249 811,-320 312,-89 589,-168 804,-410 38,-42 99,-20 112,44 40,182 16,367 -60,537 -14,33 -30,65 -49,96 102,-26 211,-41 319,-46 281,-11 564,48 722,176 59,43 39,158 -29,164 -54,6 -219,103 -368,208 -56,40 -110,79 -152,111l5 1c407,50 822,101 1113,-450 31,-59 102,-51 122,17 27,89 25,391 -29,673 -25,128 -60,254 -108,358 129,8 239,20 331,38 129,27 224,68 286,133 40,38 37,116 -6,148 -1,0 -84,60 -203,176 334,155 472,219 472,219 0,1 53,67 42,111 -26,99 -132,151 -241,227 -431,300 -405,461 -426,636z" style="fill:#c99919"/>
  <path class="Hair-Pig6fil10" d="M13749 9147c357,-929 -2078,-1771 -1230,-2948 -901,141 -1047,1541 -756,2092 60,9 123,19 190,30 108,17 205,40 295,67 -227,-320 -476,-515 -252,-1383 14,530 113,785 315,1043 298,381 724,712 727,740 172,108 299,129 299,129 -58,-131 -71,-378 35,-319 103,57 275,471 335,610 12,-15 27,-36 42,-61zm-2334 -860c-164,-74 -357,-214 -473,-410 -306,-513 -286,-1448 -319,-1460 0,0 -7,652 -81,871l0 0c-69,373 -175,565 -176,762 9,71 22,144 45,219 37,92 94,187 194,316 326,-189 560,-270 810,-298z" style="fill:#e6023a"/>
  <path class="Hair-Pig6fil255" d="M14948 8517c200,-501 119,-839 -93,-1193 -212,-354 -112,-1199 68,-1316 182,-118 -1078,335 -707,1463 -340,-118 -719,-468 -543,-1104 -704,215 -369,1076 27,1356 196,138 456,506 465,920 4,32 1,77 -6,126 -5,45 -13,91 -25,137 -13,58 -27,111 -37,143 260,-24 437,-334 849,-531l2 -1z" style="fill:#f35d44"/>
  <path class="Hair-Pig6fil255" d="M15308 8396c0,0 380,-294 404,-740 23,-447 -133,-460 -45,-622 88,-161 419,-385 419,-385 0,0 -165,299 -107,486 59,187 407,444 312,649 -95,205 -368,416 -556,567 -159,0 -304,19 -427,45l0 0z" style="fill:#521c2f"/>
 </g></svg>